<svg xmlns="http://www.w3.org/2000/svg" xmlns:xlink="http://www.w3.org/1999/xlink" viewBox="0 0 633.1904 581.9042"><defs><clipPath id="a"><rect y="6.5771" width="633.1904" height="575.3271" fill="none"/></clipPath></defs><g clip-path="url(#a)"><path d="M79.2217,142.3642a105.34294,105.34294,0,0,0-8.085,33.7129,10.38114,10.38114,0,0,1,13.6768.4785,92.6317,92.6317,0,0,1,92.3506-85.4355,6.8379,6.8379,0,1,0,0-13.6758,106.40637,106.40637,0,0,0-97.9424,64.9199Z" fill="#fff"/><path d="M169.5937,276.0634A92.62991,92.62991,0,0,1,84.543,184.165a6.8379,6.8379,0,0,0-13.6758,0,106.216,106.216,0,0,0,98.1836,105.5801,10.38012,10.38012,0,0,1,.5429-13.6817Z" fill="#fff"/><path d="M251.2656,250.2841a6.83959,6.83959,0,0,0-9.6699,0,92.31818,92.31818,0,0,1-64.4316,26.0899,6.8379,6.8379,0,1,0,0,13.6758,105.94977,105.94977,0,0,0,74.1015-30.0938A6.83711,6.83711,0,0,0,251.2656,250.2841Z" fill="#fff"/><path d="M177.1641,290.0498a6.8379,6.8379,0,1,1,0-13.6758,92.31818,92.31818,0,0,0,64.4316-26.0899,6.83836,6.83836,0,1,1,9.6699,9.6719,105.94977,105.94977,0,0,1-74.1015,30.0938Zm-41.3829-8.3594a106.21115,106.21115,0,0,1-64.914-97.5254,6.8379,6.8379,0,0,1,13.6758,0,92.62991,92.62991,0,0,0,85.0507,91.8984,10.38012,10.38012,0,0,0-.5429,13.6817A105.37082,105.37082,0,0,1,135.7812,281.6904ZM177.1641,77.4443a6.8379,6.8379,0,1,1,0,13.6758,92.6317,92.6317,0,0,0-92.3506,85.4355,10.38114,10.38114,0,0,0-13.6768-.4785A106.21936,106.21936,0,0,1,177.1641,77.4443Z" fill="#fff"/><path d="M233.4587,127.4541a79.61412,79.61412,0,1,0,23.3157,56.2929A79.08618,79.08618,0,0,0,233.4587,127.4541Z" fill="#fff"/><path d="M121.0586,209.4912V158.0029h11.168v3.8047h-6.4727v43.8789h6.4727v3.8047Z" fill="#333e48"/><path d="M233.2715,158.0029v51.4883h-11.166v-3.8047h6.4707V161.8076h-6.4707v-3.8047Z" fill="#333e48"/><path d="M146.9941,194.206q0,1.544.0479,3.6367.0483,2.0919.1299,4.2481.07905,2.15625.1933,4.1191.11145,1.9629.2725,3.2813H141.041V173.1259q0-4.6962-.1611-8.5117-.15975-3.8145-.4834-6.6113h6.5976Z" fill="#00c2f3"/><path d="M175.7979,176.6669v4.2168H169.748v24.3926h6.0499v4.2168H157.7773v-4.2168h5.9532V180.8837h-5.9532v-4.2168Z" fill="#00c2f3"/><path d="M189.3145,176.6669a11.19646,11.19646,0,0,1,.3867,1.336c.1299.5469.2461,1.1211.3535,1.7207q.1596.90225.291,1.7715l.2559,1.4453a21.23353,21.23353,0,0,1,6.2109-5.293,13.9272,13.9272,0,0,1,6.502-1.625,11.41152,11.41152,0,0,1,4.5527.8535,8.02918,8.02918,0,0,1,3.332,2.7032,13.23672,13.23672,0,0,1,2.043,4.7949,31.42584,31.42584,0,0,1,.6914,7.0976v14.4805a36.02427,36.02427,0,0,1-.9492,9.0273,15.47881,15.47881,0,0,1-2.6543,5.7305,9.34082,9.34082,0,0,1-4.1035,3.0235,15.29077,15.29077,0,0,1-5.3262.8847,11.5099,11.5099,0,0,1-3.1055-.4668,11.67944,11.67944,0,0,1-3.0097-1.3027l2.0918-4.8281a6.44463,6.44463,0,0,0,1.9804.9179,8.79415,8.79415,0,0,0,2.5244.3692,7.29524,7.29524,0,0,0,2.7705-.4981,4.60722,4.60722,0,0,0,2.0743-1.7539,9.59369,9.59369,0,0,0,1.3037-3.4433,28.433,28.433,0,0,0,.4502-5.5684V193.8837a39.29621,39.29621,0,0,0-.4024-6.2578,10.8151,10.8151,0,0,0-1.207-3.7343,4.01093,4.01093,0,0,0-2.0127-1.7872,8.06088,8.06088,0,0,0-2.8157-.4492,7.54672,7.54672,0,0,0-3.3933.8223,12.47827,12.47827,0,0,0-3.043,2.123,15.75768,15.75768,0,0,0-2.4443,2.9434,13.51906,13.51906,0,0,0-1.5781,3.2832v18.666h-5.9531v-19.793a50.34047,50.34047,0,0,0-.5479-8.0605,41.1892,41.1892,0,0,0-1.0615-4.9727Z" fill="#00c2f3"/><path d="M129.7661,453.852H97.5586v-5.3467h32.2075Zm-4.1914,56.9302h-5.5181v-5.8604H107.1821v5.8604h-5.603V481.8676h23.9956Zm-.2568-45.8946-23.6533.085v-5.3457h23.6533Zm.0854,11.2061H101.6646V470.747h23.7387Zm-1.0693-33.106-21.7285.086V437.727H124.334Zm-4.2774,56.6729V487.1289H107.0967v12.5317Zm55.2618-23.4814-46.2369.0854v-5.2607h11.4629l2.481-13.2168H132.3325v-5.2608h11.5488l1.8389-9.7954H129.3384v-5.3462h42.4731v5.2612H151.4941l-1.7534,9.795h17.6226l-1.8399,18.477h9.795Zm-7.4424,34.7739h-5.5176v-5.7744H140.7158v5.7744h-5.6035V481.9536H167.876Zm-5.5176-11.0357V487.2143h-21.728v12.7031Zm-.8555-42.2158H148.7998l-2.4805,13.3023h13.8579Z" fill="#fff"/><path d="M271.7607,453.852H194.0015v-5.3467h77.7592Zm-11.4624,10.9497H204.6938v-5.1748h55.6045Zm0,11.1206H204.6938V470.747h55.6045Zm-2.0102,35.0308h-5.5176v-6.0313H212.6499v6.0313h-5.5176V481.8676h51.1558Zm-.0855-68.521-50.6425.1279v-5.1753h50.6425Zm-5.4321,57.2285V487.1289H212.6499v12.5317Z" fill="#fff"/><path d="M368.2051,495.4697H333.7729v5.9453q0,9.5376-10.1381,9.5381h-5.6885l-2.0957-5.2608h7.9556q4.1916,0,4.1923-3.8496v-6.373H290.4438V490.123h37.5547v-3.6787q8.93745-3.33615,12.7886-6.2442H308.0229v-4.9194h42.2608v4.6626a131.01172,131.01172,0,0,1-16.5108,9.2813v.8984h34.4322Zm-3.5933-15.8692h-5.134V470.747H299.7266v9.3672h-5.604V465.7431h7.3562V439.6513q6.07275-.59835,13.3034-5.7739l2.8233,3.9351a25.17956,25.17956,0,0,1-10.6084,5.4321v3.5932h10.9492v4.4483H306.9971v4.6621h10.9492V460.31H306.9971v5.4331h45.4668V460.31H342.0273v-4.2768h10.4366v-5.004H342.1128v-4.3627h10.3511v-4.6626H340.3594v-5.1753h17.5364v28.8286h6.716Zm-24.2524-33.1909-2.9937,3.6782a45.67211,45.67211,0,0,0-6.6299-5.0898,51.16357,51.16357,0,0,1-7.7851,5.3467l-3.5073-3.0801a33.903,33.903,0,0,0,7.2719-4.02,74.65523,74.65523,0,0,0-8.4272-2.7373l2.1826-3.9356a78.97409,78.97409,0,0,1,9.5376,3.0796,36.43352,36.43352,0,0,0,5.0903-5.8594l3.5928,2.8658a27.10915,27.10915,0,0,1-4.4482,5.1753A31.96446,31.96446,0,0,1,340.3594,446.4096Zm.5127,15.5689-3.5918,2.8232a39.58579,39.58579,0,0,0-7.1861-4.4053,46.2279,46.2279,0,0,1-8.2119,4.4053l-3.251-2.5664a42.368,42.368,0,0,0,7.9136-4.5337,43.48367,43.48367,0,0,0-7.272-3.3369l3.2076-2.6938a53.41508,53.41508,0,0,1,7.5278,3.2929,36.36891,36.36891,0,0,0,4.833-4.1059l3.9351,2.0102a21.44535,21.44535,0,0,1-4.8755,4.6626A31.80318,31.80318,0,0,1,340.8721,461.9785Z" fill="#fff"/><path d="M464.5615,495.4697H430.1299v5.9453q0,9.5376-10.1372,9.5381h-5.6885l-2.0957-5.2608h7.9556q4.1901,0,4.1914-3.8496v-6.373H386.8018V490.123h37.5537v-3.6787q8.9391-3.33615,12.7893-6.2442H404.3809v-4.9194h42.2597v4.6626a130.96,130.96,0,0,1-16.5107,9.2813v.8984h34.4316Zm-3.5918-15.8692h-5.135V470.747H396.0835v9.3672h-5.603V465.7431h7.3564V439.6513q6.07395-.59835,13.3023-5.7739l2.8227,3.9351a25.15221,25.15221,0,0,1-10.6081,5.4321v3.5932h10.9504v4.4483H403.3538v4.6621h10.9504V460.31H403.3538v5.4331h45.467V460.31H438.3853v-4.2768h10.4355v-5.004H438.4697v-4.3627h10.3511v-4.6626H436.7163v-5.1753h17.5366v28.8286h6.7168Zm-22.73-18.5815-3.8969,3.563a41.25481,41.25481,0,0,0-6.7857-8.0962q-5.7396,6.3948-9.4323,8.1367l-3.8562-3.2383q4.34835-2.06835,9.4335-7.7324a49.67293,49.67293,0,0,0-8.2436-4.4546l3.3638-3.479a66.53952,66.53952,0,0,1,7.7109,4.2105,24.47547,24.47547,0,0,0,2.624-6.0332H416.2783v-5.0596h6.9048v-5.21h4.4312v5.21h8.1948v5.0596h-1.6223a32.19521,32.19521,0,0,1-3.6751,8.705A39.78617,39.78617,0,0,1,438.2397,461.019Z" fill="#fff"/><path d="M562.3301,453.6816l-3.0794,4.4477q-14.58645-3.5925-22.8396-8.2973v3.8496h-28.915v-4.2354q-12.4893,6.4593-22.4133,8.4263l-2.8221-4.4907q24.03675-5.85945,40.0347-19.5899l5.2608,1.7535a7.27826,7.27826,0,0,1-1.4976,1.4965Q540.2588,448.848,562.3301,453.6816Zm-9.1114,24.5078H491.1143V458.1293h62.1044Zm-5.0888,32.8486h-5.2608v-3.4218H501.5513v3.4218h-5.2608V482.6806h51.8394Zm-28.5293-37.4677V462.8769H496.3748v10.6934Zm23.2685,19.333v-5.5176H501.5513v5.5176Zm0,10.0942V497.394H501.5513v5.6035Zm-28.957-33.6621-4.4053,3.0796a30.78248,30.78248,0,0,0-7.7851-5.9453l4.4482-2.5659A22.00647,22.00647,0,0,1,513.9121,469.3354Zm20.7451-20.4019a53.935,53.935,0,0,1-12.0195-8.7685,65.67316,65.67316,0,0,1-13.9004,8.7685Zm13.3023,24.6368V462.8769H524.8623v10.6934Zm-5.1763-8.17a20.37327,20.37327,0,0,1-7.6133,6.8438l-4.7051-2.3521q5.6046-3.1647,7.6983-6.331Z" fill="#fff"/><path d="M130.1689,383.9316l-1.6337,1.8809a38.19284,38.19284,0,0,1-13.9859-9.1021l.0352,6.8701H122.79v15.1099h-2.2314v-2.02H106.3437v2.02H104.042V383.5805h8.2402v-6.8701q-3.6189,5.53425-13.0722,8.6626l-1.6514-1.8628q8.38035-2.21415,11.9829-6.7998H99.5439v-2.1963h12.7383V371.123q-4.199.42255-10.542.6152l-1.5107-2.1259q14.9868-.05355,23.9307-2.5127l1.6865,1.6875a77.89083,77.89083,0,0,1-11.2622,2.0551v3.6719h12.914v2.1963l-10.0678-.0347A37.4579,37.4579,0,0,0,130.1689,383.9316Zm-9.6103,4.9375v-3.0923h-14.25v3.0923Zm0,5.6401v-3.4785h-14.25v3.4785Z" fill="#fff"/><path d="M151.30619,385.5478a34.2967,34.2967,0,0,1-5.7983,11.2637l2.0552,1.3003a33.51157,33.51157,0,0,0,5.8691-11.2627Zm-3.708-9.751-1.4765,1.8452a12.9967,12.9967,0,0,1,5.5361,4.2867l1.5449-2.0904A13.22524,13.22524,0,0,0,147.59819,375.7968Zm1.7212-7.8711-1.6509,1.687a10.604,10.604,0,0,1,5.3243,4.0757l1.6508-1.7749A10.77089,10.77089,0,0,0,149.31939,367.9257Z" fill="#fff"/><path d="M172.28429,390.8906v-6.6255a20.39568,20.39568,0,0,0,4.499,3.2344l1.4409-1.9517a15.08916,15.08916,0,0,1-7.1694-6.2187h6.0083v-2.1612h-5.7447v-4.1997h4.3394v-2.1616h-4.3394v-3.7061h-2.2319v3.7417h-6.5181v-3.7417H160.336v3.7417h-4.3213v2.1602h4.357v4.1992h-5.7281v2.1626h5.7984q-1.949,3.654-7.0454,6.0781l1.6509,1.9507a22.00012,22.00012,0,0,0,2.7763-1.897v9.418a2.67091,2.67091,0,0,0,3.022,3.0215h11.5083a2.80522,2.80522,0,0,0,2.2226-.9307,7.86026,7.86026,0,0,0,1.2745-3.6714l-2.2666-1.02a6.912,6.912,0,0,1-.667,2.8106,1.37605,1.37605,0,0,1-1.1773.6152h-10.7187a.85318.85318,0,0,1-.9654-.9668v-3.8818Zm-9.7159-17.9224h6.5538v4.1997h-6.5538Zm.21,6.3609h5.9741a14.57328,14.57328,0,0,0,2.6006,3.9892h-11.1572A12.39705,12.39705,0,0,0,162.77839,379.3291Zm-2.7222,6.1494h9.9971v3.2856h-9.9971Z" fill="#fff"/><path d="M226.03314,396.934l-1.6338,1.8267q-10.9827-5.99055-13.9512-20.1875-3.67305,14.4258-14.9697,20.1875l-1.7749-2.0903q11.1921-5.4471,14.1792-18.062h-11.9478v-2.2667h12.2115a89.96631,89.96631,0,0,0,.2812-9.2421l2.4424.3515q.08715,5.376-.2109,8.8555h13.3183v2.2666h-11.0869Q214.99849,390.60905,226.03314,396.934Z" fill="#fff"/><path d="M273.84208,392.3657h-14.1448v2.4428q0,3.9171-4.1641,3.918h-2.3369l-.8606-2.1611h3.2681q1.7211,0,1.7214-1.5816v-2.6181h-15.426v-2.1963h15.426v-1.5112a21.95582,21.95582,0,0,0,5.2542-2.565h-13.459v-2.021h17.3593v1.9151a53.60189,53.60189,0,0,1-6.7824,3.8129v.3692h14.1448Zm-1.4759-6.5186h-2.1081v-3.6372h-24.5464v3.8477h-2.3013v-5.9029h3.022V369.4365a11.63148,11.63148,0,0,0,5.4639-2.3721l1.1596,1.6167a10.34342,10.34342,0,0,1-4.3574,2.2315v1.4755h4.4978v1.8277h-4.4978v1.915h4.4978v1.792h-4.4978v2.2319h18.6777v-2.2319h-4.2871V376.166h4.2871v-2.0557h-4.2519v-1.7925h4.2519v-1.9145h-4.9726v-2.126h7.2036v11.8418h2.759Zm-9.9626-13.6343-1.2305,1.5103a18.68775,18.68775,0,0,0-2.7229-2.0903,20.99036,20.99036,0,0,1-3.198,2.1963l-1.4404-1.2647a13.93038,13.93038,0,0,0,2.9863-1.6518,30.80525,30.80525,0,0,0-3.4609-1.125l.8965-1.6163a32.56833,32.56833,0,0,1,3.9179,1.2652,14.98413,14.98413,0,0,0,2.0908-2.4073l1.4761,1.1778a11.1626,11.1626,0,0,1-1.8276,2.126A13.11471,13.11471,0,0,1,262.40358,372.2128Zm.2107,6.3956-1.4759,1.1596a16.2731,16.2731,0,0,0-2.9516-1.81,18.99626,18.99626,0,0,1-3.3736,1.81l-1.3354-1.0547a17.379,17.379,0,0,0,3.251-1.8623,17.84124,17.84124,0,0,0-2.9876-1.3701l1.3177-1.1074a21.98555,21.98555,0,0,1,3.0927,1.353,14.98144,14.98144,0,0,0,1.9854-1.6865l1.6162.8262a8.81946,8.81946,0,0,1-2.0029,1.9145A13.04916,13.04916,0,0,1,262.61428,378.6084Z" fill="#fff"/><path d="M322.30138,396.4594l-1.5469,2.0562a41.9545,41.9545,0,0,1-14.5122-7.0987q-4.79955,3.91845-15.0766,7.2393l-1.7212-2.0908q9.94485-2.75835,15.0405-6.6944a23.93973,23.93973,0,0,1-6.8701-11.7548,19.37869,19.37869,0,0,1-2.6011,4.6386l-1.8608-1.7041a23.21086,23.21086,0,0,0,3.5654-5.7812H290.674v-2.1607h14.0928v-6.0092h2.2661v5.9736h14.3369v2.1616H315.36q-1.5798,9.1722-7.2739,14.6006Q313.26948,393.7714,322.30138,396.4594Zm-9.2954-21.2246h-13.5981a22.14784,22.14784,0,0,0,6.8686,13.0899A22.45962,22.45962,0,0,0,313.006,375.2348Z" fill="#fff"/><path d="M369.84662,392.3657h-14.1455v2.4428q0,3.9171-4.1635,3.918h-2.337l-.8603-2.1611h3.2671q1.7226,0,1.7226-1.5816v-2.6181h-15.4262v-2.1963H353.33v-1.5112a21.9311,21.9311,0,0,0,5.2525-2.565H345.124v-2.021h17.3594v1.9151a53.63529,53.63529,0,0,1-6.7823,3.8129v.3692h14.1455Zm-1.4755-6.5186h-2.1094v-3.6372h-24.5464v3.8477h-2.3018v-5.9029h3.0225V369.4365a11.63568,11.63568,0,0,0,5.4653-2.3721l1.1587,1.6167a10.33859,10.33859,0,0,1-4.3584,2.2315v1.4755h4.499v1.8277h-4.499v1.915h4.499v1.792h-4.499v2.2319h18.6787v-2.2319h-4.2885V376.166h4.2885v-2.0557h-4.2519v-1.7925h4.2519v-1.9145h-4.9729v-2.126h7.2034v11.8418h2.7603Zm-9.9637-13.6343-1.2309,1.5103a18.6501,18.6501,0,0,0-2.7219-2.0903,21.05815,21.05815,0,0,1-3.1983,2.1963l-1.4404-1.2647a13.93528,13.93528,0,0,0,2.9866-1.6518,30.93889,30.93889,0,0,0-3.4612-1.125l.8969-1.6163a32.56562,32.56562,0,0,1,3.9173,1.2652,14.87436,14.87436,0,0,0,2.0901-2.4073l1.477,1.1778a11.22758,11.22758,0,0,1-1.8266,2.126A13.1292,13.1292,0,0,1,358.40742,372.2128Zm.2107,6.3956-1.4756,1.1596a16.25964,16.25964,0,0,0-2.9521-1.81,18.987,18.987,0,0,1-3.3735,1.81l-1.336-1.0547a17.295,17.295,0,0,0,3.251-1.8623,17.80029,17.80029,0,0,0-2.9868-1.3701l1.3178-1.1074a21.989,21.989,0,0,1,3.0926,1.353,14.846,14.846,0,0,0,1.9851-1.6865l1.6162.8262a8.83039,8.83039,0,0,1-2.0015,1.9145A13.0919,13.0919,0,0,1,358.61812,378.6084Z" fill="#fff"/><path d="M392.99462,379.0473q3.55,3.9888,3.5507,7.7837a4.28176,4.28176,0,0,1-.9585,2.9341,3.37441,3.37441,0,0,1-2.6792,1.0898,13.94978,13.94978,0,0,1-2.2839-.228l-.6501-2.3374a12.68326,12.68326,0,0,0,2.7055.4746,1.78984,1.78984,0,0,0,1.2481-.5273,1.83448,1.83448,0,0,0,.5625-1.4058,8.42279,8.42279,0,0,0-.9663-3.3735,13.43765,13.43765,0,0,0-2.8997-3.9175l3.4265-8.8037h-5.2178v27.9902h-2.3027V368.5053h9.8565v2.231Zm24.2307,13.231a12.13086,12.13086,0,0,1-1.2307,4.1284,2.70788,2.70788,0,0,1-2.5118,1.2832h-2.7407q-2.74215,0-2.7407-2.8814v-9.2949h-3.7085q-.1047,5.65725-2.2046,8.4776-2.09985,2.8197-7.793,4.7353l-1.4756-2.021q5.2881-1.563,7.2569-4.0415,1.968-2.4771,1.9853-7.1152h-4.8147v-2.3023h18.8196v2.2671h-5.8706v8.75a1.339,1.339,0,0,0,.2818.8169.81591.81591,0,0,0,.6679.3775h2.2315q.68475,0,1.0459-1.1246a17.92258,17.92258,0,0,0,.6059-2.9165Zm-2.021-15.9366-2.2307.0352v-3.0928H399.725v3.0928h-2.2666v-5.3242h7.7129v-3.9883h2.3027v3.9536h7.7303Zm-2.951,3.3907h-11.8784v-2.3013h11.8784Z" fill="#fff"/><path d="M465.852,392.3657h-14.1455v2.4428q0,3.9171-4.1636,3.918H445.206l-.8613-2.1611h3.268q1.72275,0,1.7227-1.5816v-2.6181h-15.4277v-2.1963h15.4277v-1.5112a21.94536,21.94536,0,0,0,5.2529-2.565h-13.459v-2.021h17.3594v1.9151a53.61925,53.61925,0,0,1-6.7822,3.8129v.3692H465.852Zm-1.477-6.5186h-2.108v-3.6372h-24.5454v3.8477h-2.3027v-5.9029h3.0234V369.4365a11.63013,11.63013,0,0,0,5.4629-2.3721l1.1602,1.6167a10.34171,10.34171,0,0,1-4.357,2.2315v1.4755h4.4976v1.8277h-4.4976v1.915h4.4976v1.792h-4.4976v2.2319h18.6768v-2.2319h-4.2871V376.166h4.2871v-2.0557h-4.2515v-1.7925h4.2515v-1.9145H454.413v-2.126h7.2032v11.8418h2.7588Zm-9.962-13.6343-1.2309,1.5103a18.71134,18.71134,0,0,0-2.7237-2.0903,20.98672,20.98672,0,0,1-3.1967,2.1963l-1.4414-1.2647a13.88986,13.88986,0,0,0,2.9878-1.6518,30.87408,30.87408,0,0,0-3.4615-1.125l.8955-1.6163a32.43828,32.43828,0,0,1,3.918,1.2652,14.99682,14.99682,0,0,0,2.0923-2.4073l1.4756,1.1778a11.20578,11.20578,0,0,1-1.8281,2.126A13.10456,13.10456,0,0,1,454.413,372.2128Zm.2105,6.3956-1.4756,1.1596a16.32519,16.32519,0,0,0-2.9512-1.81,18.98659,18.98659,0,0,1-3.3745,1.81l-1.3349-1.0547a17.37406,17.37406,0,0,0,3.2509-1.8623,17.86792,17.86792,0,0,0-2.9878-1.3701l1.3179-1.1074a21.93968,21.93968,0,0,1,3.0918,1.353,14.97467,14.97467,0,0,0,1.9858-1.6865l1.6163.8262a8.826,8.826,0,0,1-2.003,1.9145A13.02979,13.02979,0,0,1,454.62346,378.6084Z" fill="#fff"/><path d="M513.96731,396.9692h-31.977v-2.2661h14.8986v-8.2412h-10.7351v-2.2666h10.7351v-7.1685h-7.9592a18.69225,18.69225,0,0,1-4.8144,6.9048l-2.3184-1.2124a19.41414,19.41414,0,0,0,6.4126-13.0366l2.3721.685a26.36615,26.36615,0,0,1-.8267,4.4283h7.0996v-7.6963h2.3716v7.6606h12.4043v2.2666h-12.4043v7.1338h10.5776v2.2661h-10.5776v8.2407h14.7412Z" fill="#fff"/><path d="M562.3301,375.1992l-1.2642,1.8276a37.50325,37.50325,0,0,1-9.3833-3.4082v1.5806H539.8047v-1.7393a35.577,35.577,0,0,1-9.2061,3.4614l-1.1599-1.8452a38.962,38.962,0,0,0,16.4461-8.0469l2.1606.7208a3.02827,3.02827,0,0,1-.6142.6147A34.4007,34.4007,0,0,0,562.3301,375.1992Zm-3.7417,10.0683H533.0767v-8.2407h25.5117Zm-2.0908,13.4932h-2.1622v-1.4053H537.3623v1.4053h-2.1606V387.1123h21.2959Zm-11.7203-15.3911V378.977h-9.54v4.3926Zm9.5581,7.9419v-2.2666H537.3623v2.2666Zm0,4.1465v-2.3013H537.3623v2.3013Zm-11.895-13.8277-1.8095,1.2652a12.65467,12.65467,0,0,0-3.1973-2.4424l1.8267-1.0537A9.024,9.024,0,0,1,542.4404,381.6303Zm8.5215-8.3808a22.1422,22.1422,0,0,1-4.9365-3.6026,27.01945,27.01945,0,0,1-5.7105,3.6026Zm5.4649,10.1201V378.977h-9.4873v4.3926Zm-2.1255-3.3555a8.3797,8.3797,0,0,1-3.1284,2.811l-1.9322-.9658a9.1254,9.1254,0,0,0,3.1626-2.601Z" fill="#fff"/></g></svg>