<svg xmlns="http://www.w3.org/2000/svg" xmlns:xlink="http://www.w3.org/1999/xlink" viewBox="0 0 2679.09961 708.6651"><defs><clipPath id="a"><rect x="0.001" width="2679.09861" height="708.6651" fill="none"/></clipPath></defs><g clip-path="url(#a)"><text transform="translate(1761.58594 387.73734)" font-size="72" fill="#a39b4b" font-family="SourceHanSansHC-Medium-B5pc-H, Source Han Sans HC"><tspan letter-spacing="0.03951em">二零二零至二零二一年</tspan><tspan x="748.44824" y="0">度</tspan></text><rect x="1633.97851" y="222.2159" width="3" height="264.2382" fill="#a39b4b"/><path d="M158.4443,271.5723a210.76256,210.76256,0,0,0-16.16789,67.4248,20.76517,20.76517,0,0,1,27.35249.958c7.3379-95.5908,87.22359-170.8691,184.69629-170.8691a13.6748,13.6748,0,1,0,0-27.3496A212.81491,212.81491,0,0,0,158.4443,271.5723Z" fill="#a39b4b"/><path d="M339.18549,538.9659c-94.95208-7.6846-169.66789-86.9639-170.09659-183.794a13.6758,13.6758,0,1,0-27.3516,0A212.42986,212.42986,0,0,0,338.10159,566.3262a20.74967,20.74967,0,0,1,1.0839-27.3603Z" fill="#a39b4b"/><path d="M502.52249,487.4082a13.67447,13.67447,0,0,0-19.3399,0,184.63231,184.63231,0,0,1-128.8574,52.1758,13.6748,13.6748,0,0,0,0,27.3496,211.864,211.864,0,0,0,148.1973-60.1855A13.6697,13.6697,0,0,0,502.52249,487.4082Z" fill="#a39b4b"/><path d="M354.32419,141.7325A212.42942,212.42942,0,0,0,142.27441,338.9922a20.78223,20.78223,0,0,1,27.34959.96c7.3399-95.5899,87.23049-170.8692,184.70019-170.8692a13.67525,13.67525,0,1,0,0-27.3505Zm-15.1396,397.2304c-94.95118-7.6806-169.67-86.9599-170.08989-183.79a13.68065,13.68065,0,1,0-27.36129,0A212.43417,212.43417,0,0,0,338.10449,566.3223a20.745,20.745,0,0,1,1.0801-27.3594Zm163.33982-51.5508a13.665,13.665,0,0,0-19.33982,0,184.63713,184.63713,0,0,1-128.8604,52.1709,13.67485,13.67485,0,0,0,0,27.3497A211.9132,211.9132,0,0,0,502.52441,506.753,13.67782,13.67782,0,0,0,502.52441,487.4121Z" fill="#a39b4b"/><path d="M466.90429,241.753a159.22958,159.22958,0,1,0,46.6299,112.58A158.14731,158.14731,0,0,0,466.90429,241.753Zm-202.4502,68.7099h-12.9502v87.75h12.9502v7.6094h-22.3398V302.8428h22.3398Zm17.6299,95.3594V333.0928q0-9.3897-.3301-17.0205-.315-7.6347-.96-13.2295h13.18952V375.253q0,3.08925.10058,7.2695.08925,4.185.2607,8.5.1494,4.30515.3789,8.2402.2256,3.9141.55082,6.5596Zm69.5107-57.21h-12.1006v48.7803h12.1006v8.4297h-36.041v-8.4297h11.9004V348.6123h-11.9004v-8.4394h36.041Zm76.2696,50.1299a72.41632,72.41632,0,0,1-1.9004,18.0606,31.02559,31.02559,0,0,1-5.3096,11.4502,18.4939,18.4939,0,0,1-8.21,6.0498,30.51586,30.51586,0,0,1-10.6504,1.7695,24.71728,24.71728,0,0,1-12.2304-3.54l4.1904-9.6494a12.65745,12.65745,0,0,0,3.9502,1.83,17.39149,17.39149,0,0,0,5.0498.7393,14.64419,14.64419,0,0,0,5.54-.9893,9.315,9.315,0,0,0,4.1504-3.5107,19.07972,19.07972,0,0,0,2.6094-6.8897,56.77931,56.77931,0,0,0,.9004-11.1298V374.6026a79.20877,79.20877,0,0,0-.7998-12.5098,21.71993,21.71993,0,0,0-2.42088-7.4707,7.972,7.972,0,0,0-4.01952-3.5693,16.0868,16.0868,0,0,0-5.6299-.9004,15.17768,15.17768,0,0,0-6.7901,1.6406,24.99634,24.99634,0,0,0-6.0898,4.25,31.7482,31.7482,0,0,0-4.8906,5.8897,27.15535,27.15535,0,0,0-3.1494,6.5595v37.3301h-11.9102V366.2422a100.65235,100.65235,0,0,0-1.0898-16.1201,81.59462,81.59462,0,0,0-2.1299-9.9492H378.624a22.63014,22.63014,0,0,1,.7695,2.6797c.2608,1.0898.4903,2.2402.711,3.4404.209,1.1992.4101,2.3799.5801,3.54l.5097,2.8897q6.1788-7.33455,12.4297-10.5801a27.77981,27.77981,0,0,1,13-3.2597,22.71027,22.71027,0,0,1,9.0996,1.7099,16.00867,16.00867,0,0,1,6.6699,5.4102,26.31235,26.31235,0,0,1,4.0801,9.5898,62.356,62.356,0,0,1,1.3907,14.1895Zm38.6699,7.0801h-22.3301v-7.6094h12.9394v-87.75h-12.9394v-7.6201h22.3301Z" fill="#a39b4b"/><path d="M731.93551,379.6319h-54.9931V370.503h54.9931Zm-7.1572,97.2051h-9.4209V466.8311H693.374V476.837h-9.5674V427.4678h40.97173Zm-.4385-78.3633-40.38673.1465v-9.129h40.38673Zm.1465,19.1347H683.95308v-9.1289h40.53323Zm-1.8261-56.5273-37.09973.1465v-9.1289h37.09973Zm-7.3028,96.7676V436.4502H693.22848v21.3985Zm94.3565-40.0938-78.9473.1446V408.917h19.5723l4.2363-22.5664h-18.2578v-8.9824h19.7187l3.1397-16.7246h-27.9707v-9.1289h72.5205v8.9824h-34.6904l-2.9942,16.7246h30.0899l-3.1407,31.5488h16.7237Zm-12.708,59.375h-9.42v-9.8594h-36.955v9.8594h-9.5665V427.6143h55.9415Zm-9.42-18.8437V436.5967h-37.1006v21.6895Zm-1.4609-72.0821h-21.6914l-4.2344,22.7129h23.6621Z" fill="#a39b4b"/><path d="M974.38571,379.6319H841.61431V370.503h132.7714Zm-19.5722,18.6953h-94.9434v-8.836h94.9434Zm0,18.9883h-94.9434v-8.836h94.9434Zm-3.4336,59.8144H941.96V466.8311H873.456v10.2988h-9.4218V427.4678h87.3457Zm-.1446-116.998-86.4707.2187v-8.8359h86.4707ZM941.96,457.8487V436.4502H873.456v21.3985Z" fill="#a39b4b"/><path d="M1139.05861,450.6924h-58.791v10.1504q0,16.2861-17.3106,16.2871h-9.7129l-3.5781-8.9824h13.584q7.15725,0,7.1582-6.5742V450.6924h-64.123v-9.1289h64.123v-6.2812q15.2607-5.69835,21.8359-10.6621h-55.9433v-8.4004h72.1582v7.9609a223.54489,223.54489,0,0,1-28.1914,15.8477v1.5351h58.791Zm-6.1348-27.0957h-8.7656V408.4795h-102.0234v15.9942h-9.5694V399.9346h12.5615V355.3838q10.3683-1.01955,22.7149-9.8574l4.8203,6.7188q-6.6504,6.1347-18.1133,9.2753v6.1348h18.6953v7.5957h-18.6953v7.959h18.6953v7.4492h-18.6953v9.2754h77.6328v-9.2754h-17.8203v-7.3027h17.8203v-8.5449h-17.6738v-7.4493h17.6738v-7.9609h-20.6679v-8.8359h29.9433v49.2226h11.4668Zm-41.4101-56.6719-5.1114,6.2793a77.95248,77.95248,0,0,0-11.3203-8.6894,87.44446,87.44446,0,0,1-13.2929,9.1289l-5.9883-5.2598a57.8534,57.8534,0,0,0,12.416-6.8633,127.00611,127.00611,0,0,0-14.3887-4.6738l3.7266-6.7207a134.926,134.926,0,0,1,16.2851,5.2578,62.22133,62.22133,0,0,0,8.6914-10.0039l6.1348,4.8926a46.309,46.309,0,0,1-7.5957,8.8379A54.46147,54.46147,0,0,1,1091.51371,366.9248Zm.875,26.5821-6.1328,4.8203a67.66515,67.66515,0,0,0-12.2696-7.5215q-3.94335,2.99415-14.0215,7.5215l-5.5507-4.3809q9.419-4.45305,13.5117-7.7422a74.30257,74.30257,0,0,0-12.416-5.6972l5.4765-4.5996a91.17944,91.17944,0,0,1,12.8535,5.623q2.0421-1.166,8.252-7.0117l6.7187,3.4336a36.64019,36.64019,0,0,1-8.3242,7.9609A54.27946,54.27946,0,0,1,1092.38871,393.5069Z" fill="#a39b4b"/><path d="M1303.583,450.6924h-58.791v10.1504q0,16.2861-17.3086,16.2871h-9.7129l-3.5781-8.9824h13.584q7.15425,0,7.1562-6.5742V450.6924h-64.1211v-9.1289h64.1211v-6.2812q15.2637-5.69835,21.8379-10.6621h-55.9434v-8.4004h72.1563v7.9609a223.39579,223.39579,0,0,1-28.1914,15.8477v1.5351h58.791Zm-6.1328-27.0957h-8.7676V408.4795h-102.0234v15.9942h-9.5664V399.9346h12.5605V355.3838q10.37115-1.01955,22.7129-9.8574l4.8203,6.7188q-6.64455,6.1347-18.1133,9.2753v6.1348h18.6973v7.5957h-18.6973v7.959h18.6973v7.4492h-18.6973v9.2754h77.6328v-9.2754h-17.8183v-7.3027h17.8183v-8.5449h-17.6738v-7.4493h17.6738v-7.9609h-20.6679v-8.8359h29.9433v49.2226h11.4688Zm-38.8106-31.7285-6.6543,6.084c-3.0371-4.5625-7.3828-10.2754-11.5859-13.8242q-9.7998,10.919-16.1055,13.8945l-6.5839-5.5293q7.4238-3.53325,16.1074-13.2031-9.876-6.1524-14.0762-7.6055l5.7441-5.9414q3.501,1.38285,13.1661,7.1895a41.81253,41.81253,0,0,0,4.4804-10.3008h-21.9902v-8.6387h11.7891v-8.8965h7.5664v8.8965h13.9922v8.6387h-2.7696a55.02326,55.02326,0,0,1-6.2754,14.8633C1250.53421,381.3643,1255.41891,387.2608,1258.63961,391.8682Z" fill="#a39b4b"/><path d="M1470.51851,379.3409l-5.2578,7.5937q-24.90525-6.1347-38.998-14.168v6.5743h-49.3711v-7.2325q-21.3252,11.0304-38.2695,14.3887l-4.8184-7.668q41.042-10.00485,68.3574-33.4492l8.9824,2.9942a12.40669,12.40669,0,0,1-2.5566,2.5546Q1432.83306,371.088,1470.51851,379.3409Zm-15.5566,41.8457h-106.041v-34.252h106.041Zm-8.6894,56.0879H1437.29v-5.8418h-70.5488v5.8418h-8.9824v-48.42h88.5137Zm-48.7129-63.9747V395.042h-39.6563v18.2578Zm39.7304,33.0098v-9.4199h-70.5488v9.4199Zm0,17.2363v-9.5683h-70.5488v9.5683Zm-49.4433-57.4765-7.5215,5.2578a52.556,52.556,0,0,0-13.293-10.1504l7.5957-4.3828A37.5797,37.5797,0,0,1,1387.84671,406.0694Zm35.4218-34.836a92.07643,92.07643,0,0,1-20.5234-14.9726,112.07984,112.07984,0,0,1-23.7344,14.9726Zm22.7129,42.0664V395.042h-39.4375v18.2578Zm-8.8379-13.9492q-4.3095,6.8643-13,11.6856l-8.0332-4.0176q9.5685-5.4024,13.1446-10.8086Z" fill="#a39b4b"/><path d="M732.623,260.2452l-2.789,3.2109q-12.5406-4.40925-23.88093-15.541l.0606,11.7304h14.00973v25.8008h-3.8105v-3.4492h-24.2695v3.4492h-3.93173V259.6455H702.082V247.9151q-6.17865,9.4512-22.3203,14.791l-2.81927-3.1797q14.31-3.78225,20.45987-11.6113H680.332v-3.75h21.75V238.376q-7.169.72075-18,1.0488l-2.5801-3.6289q25.5909-.09075,40.86143-4.291l2.8799,2.8809a132.915,132.915,0,0,1-19.22953,3.5097v6.2696h22.04983v3.75l-17.1905-.0586A63.95639,63.95639,0,0,0,732.623,260.2452Zm-16.4101,8.4316v-5.2813H691.88278v5.2813Zm0,9.6289v-5.9395H691.88278v5.9395Z" fill="#a39b4b"/><path d="M768.71371,263.0049q-3.78225,11.73345-9.9004,19.2324l3.5098,2.2207a57.24368,57.24368,0,0,0,10.0215-19.2304Zm-6.3301-16.6484-2.5215,3.1504a22.19195,22.19195,0,0,1,9.4532,7.3183l2.6367-3.5683Q768.83486,249.085,762.38361,246.3565Zm2.9385-13.4395-2.8193,2.8789a18.11415,18.11415,0,0,1,9.0918,6.959l2.8183-3.0293A18.38666,18.38666,0,0,0,765.32211,232.917Z" fill="#a39b4b"/><path d="M804.534,272.128V260.8155a34.81952,34.81952,0,0,0,7.6817,5.5215l2.4599-3.3321a25.75423,25.75423,0,0,1-12.2412-10.6191h10.2578v-3.6895h-9.8076v-7.1699h7.4092V237.835h-7.4092v-6.3281h-3.8115v6.3886h-11.1289v-6.3886h-3.8125v6.3886h-7.378v3.6895h7.4405v7.1699h-9.7813v3.6914h9.9004q-3.32805,6.2403-12.0293,10.3789l2.8184,3.3301a37.615,37.615,0,0,0,4.7402-3.2383v16.0801q0,5.15925,5.1602,5.1602h19.6504a4.78993,4.78993,0,0,0,3.7949-1.5899q1.3974-1.59075,2.1758-6.2695l-3.8692-1.7402q-.39255,3.75-1.1406,4.7988a2.34715,2.34715,0,0,1-2.0098,1.0508h-18.3008a1.45774,1.45774,0,0,1-1.6484-1.6524V272.128Zm-16.5898-30.6016h11.1894v7.1699h-11.1894Zm.3584,10.8594h10.2002a24.92734,24.92734,0,0,0,4.4404,6.8125h-19.0498A21.14486,21.14486,0,0,0,788.30261,252.3858Zm-4.6475,10.5h17.0693v5.6113h-17.0693Z" fill="#a39b4b"/><path d="M896.30676,282.4463l-2.789,3.1192q-18.753-10.2276-23.8223-34.4688-6.26955,24.62985-25.5586,34.4688l-3.0312-3.5684q19.1103-9.3018,24.2109-30.8418h-20.4004v-3.8691h20.8496a153.55826,153.55826,0,0,0,.4805-15.7813l4.1699.6016q.1494,9.17865-.3594,15.1191h22.7403v3.8711h-18.9297Q877.465,271.6455,896.30676,282.4463Z" fill="#a39b4b"/><path d="M977.93846,274.6455h-24.1504v4.1719q0,6.6885-7.1113,6.6895h-3.9902l-1.4688-3.6895h5.5801q2.9385,0,2.9394-2.7012v-4.4707h-26.3398v-3.75h26.3398v-2.58a37.52066,37.52066,0,0,0,8.9707-4.3789h-22.9804v-3.4512h29.6406v3.2695a91.83144,91.83144,0,0,1-11.5801,6.5117v.6289h24.1504Zm-2.5195-11.1289h-3.5996v-6.2109h-41.9121v6.5703h-3.9297V253.7959h5.1601V235.4952q4.25985-.41895,9.3301-4.0489l1.9785,2.7598a17.655,17.655,0,0,1-7.4394,3.8105v2.5196h7.6797v3.1191h-7.6797v3.2715h7.6797v3.0586h-7.6797v3.8105h31.8906v-3.8105h-7.3203v-3h7.3203v-3.5098h-7.2598v-3.0605h7.2598v-3.2696h-8.4902v-3.6289H970.708v20.2188h4.711Zm-17.0117-23.2812-2.0996,2.5801a31.99849,31.99849,0,0,0-4.6504-3.5703,35.70731,35.70731,0,0,1-5.459,3.75l-2.461-2.1582a23.78928,23.78928,0,0,0,5.0996-2.8204,52.64207,52.64207,0,0,0-5.9101-1.9218l1.5312-2.7598a55.59908,55.59908,0,0,1,6.6895,2.1602,25.5345,25.5345,0,0,0,3.5703-4.1094l2.5195,2.0097a19.01643,19.01643,0,0,1-3.1191,3.6309A22.436,22.436,0,0,1,958.40726,240.2354Zm.3613,10.9199-2.5215,1.9805a27.71086,27.71086,0,0,0-5.0391-3.0899,32.42919,32.42919,0,0,1-5.7597,3.0899l-2.2813-1.8008a29.62657,29.62657,0,0,0,5.5508-3.1797,30.627,30.627,0,0,0-5.0996-2.3398l2.248-1.8907a37.46212,37.46212,0,0,1,5.2813,2.3106,25.61129,25.61129,0,0,0,3.3906-2.8789l2.7598,1.4101a15.07683,15.07683,0,0,1-3.4199,3.2696A22.31932,22.31932,0,0,1,958.76856,251.1553Z" fill="#a39b4b"/><path d="M1060.68046,281.6358l-2.6406,3.5117q-15.26955-4.5-24.7793-12.1211-8.19435,6.69135-25.7422,12.3613l-2.9394-3.5703q16.98045-4.7109,25.6816-11.4316a40.86336,40.86336,0,0,1-11.7305-20.0703,33.09176,33.09176,0,0,1-4.4414,7.9199l-3.1777-2.9082a39.66859,39.66859,0,0,0,6.0879-9.8711h-10.3203v-3.6895h24.0625V231.5049h3.8691v10.2012h24.4805v3.6894H1048.829q-2.69835,15.66225-12.42,24.9297Q1045.25956,277.046,1060.68046,281.6358Zm-15.8711-36.2403h-23.2187q2.3964,13.8897,11.7285,22.3516Q1042.43931,259.25695,1044.80936,245.3955Z" fill="#a39b4b"/><path d="M1141.86146,274.6455h-24.1523v4.1719q0,6.6885-7.1094,6.6895h-3.9902l-1.4688-3.6895h5.5782q2.94135,0,2.9414-2.7012v-4.4707h-26.3389v-3.75h26.3389v-2.58a37.46107,37.46107,0,0,0,8.9687-4.3789h-22.9804v-3.4512h29.6406v3.2695a91.69661,91.69661,0,0,1-11.5801,6.5117v.6289h24.1523Zm-2.5195-11.1289h-3.6016v-6.2109h-41.9121v6.5703h-3.9296V253.7959h5.1601V235.4952q4.25985-.41895,9.332-4.0489l1.9786,2.7598a17.664,17.664,0,0,1-7.4415,3.8105v2.5196h7.6817v3.1191h-7.6817v3.2715h7.6817v3.0586h-7.6817v3.8105h31.8926v-3.8105h-7.3222v-3h7.3222v-3.5098h-7.2597v-3.0605h7.2597v-3.2696h-8.4902v-3.6289h12.2988v20.2188h4.7129Zm-17.0117-23.2812-2.1016,2.5801a31.95591,31.95591,0,0,0-4.6484-3.5703,35.82087,35.82087,0,0,1-5.4609,3.75l-2.459-2.1582a23.84253,23.84253,0,0,0,5.0996-2.8204,52.901,52.901,0,0,0-5.9102-1.9218l1.5313-2.7598a55.60341,55.60341,0,0,1,6.6894,2.1602,25.4246,25.4246,0,0,0,3.5684-4.1094l2.5215,2.0097a19.08884,19.08884,0,0,1-3.1192,3.6309A22.436,22.436,0,0,1,1122.33026,240.2354Zm.3594,10.9199-2.5196,1.9805a27.72474,27.72474,0,0,0-5.041-3.0899,32.43292,32.43292,0,0,1-5.7597,3.0899l-2.2813-1.8008a29.4993,29.4993,0,0,0,5.5508-3.1797,30.55308,30.55308,0,0,0-5.0996-2.3398l2.25-1.8907a37.56356,37.56356,0,0,1,5.2812,2.3106,25.50184,25.50184,0,0,0,3.3887-2.8789l2.7598,1.4101a15.06931,15.06931,0,0,1-3.418,3.2696A22.3536,22.3536,0,0,1,1122.68966,251.1553Z" fill="#a39b4b"/><path d="M1181.38616,251.9053q6.0615,6.8115,6.0625,13.291a7.31062,7.31062,0,0,1-1.6367,5.0098,5.76474,5.76474,0,0,1-4.5742,1.8613,23.70714,23.70714,0,0,1-3.9004-.3906l-1.1094-3.9902a21.66532,21.66532,0,0,0,4.6192.8105,3.05239,3.05239,0,0,0,2.1308-.9004,3.13248,3.13248,0,0,0,.961-2.4004,14.37236,14.37236,0,0,0-1.6504-5.7597,22.92721,22.92721,0,0,0-4.9512-6.6895l5.8516-15.0312h-8.9102v47.791h-3.9316V233.9053h16.83v3.8106Zm41.3731,22.5918a20.73594,20.73594,0,0,1-2.1016,7.0488,4.62175,4.62175,0,0,1-4.2891,2.1914h-4.6796q-4.68165,0-4.6797-4.9199V262.9463h-6.3321q-.17865,9.65925-3.7636,14.4746-3.586,4.8165-13.3067,8.086l-2.5195-3.4512q9.02925-2.66895,12.3906-6.9004,3.36045-4.22745,3.3906-12.1484h-8.2207v-3.9317h32.1329v3.8711h-10.0235v14.9414a2.29092,2.29092,0,0,0,.4805,1.3946,1.39889,1.39889,0,0,0,1.1406.6445h3.8106q1.169,0,1.7851-1.9199a30.59409,30.59409,0,0,0,1.0352-4.9805Zm-3.4512-27.2109-3.8086.0605v-5.2812h-22.6211v5.2812h-3.8711v-9.0918h13.1699v-6.8086h3.9317v6.75h13.1992Zm-5.0391,5.789h-20.2812v-3.9297h20.2812Z" fill="#a39b4b"/><path d="M1305.78646,274.6455h-24.1524v4.1719q0,6.6885-7.1094,6.6895h-3.9902l-1.4707-3.6895h5.5801q2.94135,0,2.9414-2.7012v-4.4707h-26.3418v-3.75h26.3418v-2.58a37.46107,37.46107,0,0,0,8.9687-4.3789h-22.9804v-3.4512h29.6406v3.2695a91.69661,91.69661,0,0,1-11.5801,6.5117v.6289h24.1524Zm-2.5215-11.1289h-3.5996v-6.2109h-41.9102v6.5703h-3.9316V253.7959h5.1621V235.4952q4.25685-.41895,9.3281-4.0489l1.9805,2.7598a17.66759,17.66759,0,0,1-7.4395,3.8105v2.5196h7.6797v3.1191h-7.6797v3.2715h7.6797v3.0586h-7.6797v3.8105h31.8906v-3.8105h-7.3203v-3h7.3203v-3.5098h-7.2597v-3.0605h7.2597v-3.2696h-8.4902v-3.6289h12.2988v20.2188h4.711Zm-17.0098-23.2812-2.1016,2.5801a31.99139,31.99139,0,0,0-4.6503-3.5703,35.70731,35.70731,0,0,1-5.459,3.75l-2.461-2.1582a23.76246,23.76246,0,0,0,5.1016-2.8204,52.77474,52.77474,0,0,0-5.9102-1.9218l1.5293-2.7598a55.38194,55.38194,0,0,1,6.6895,2.1602,25.55634,25.55634,0,0,0,3.5723-4.1094l2.5195,2.0097a19.03426,19.03426,0,0,1-3.1211,3.6309A22.38457,22.38457,0,0,1,1286.25516,240.2354Zm.3594,10.9199-2.5196,1.9805a27.84373,27.84373,0,0,0-5.039-3.0899,32.46571,32.46571,0,0,1-5.7617,3.0899l-2.2793-1.8008a29.62994,29.62994,0,0,0,5.5508-3.1797,30.66239,30.66239,0,0,0-5.1016-2.3398l2.25-1.8907a37.4341,37.4341,0,0,1,5.2793,2.3106,25.61129,25.61129,0,0,0,3.3906-2.8789l2.7598,1.4101a15.07889,15.07889,0,0,1-3.4199,3.2696A22.27252,22.27252,0,0,1,1286.61456,251.1553Z" fill="#a39b4b"/><path d="M1387.94156,282.5069H1333.342v-3.8692h25.4395V264.5655h-18.3301v-3.8692h18.3301V248.4561h-13.5899a31.92893,31.92893,0,0,1-8.2207,11.7891l-3.959-2.0704a33.1417,33.1417,0,0,0,10.9492-22.2597l4.0508,1.1699a44.976,44.976,0,0,1-1.4121,7.5605h12.1231V231.5049h4.0488V244.585h21.1797v3.8711h-21.1797v12.1797h18.0605v3.8691h-18.0605v14.0723h25.1699Z" fill="#a39b4b"/><path d="M1470.51851,245.335l-2.1582,3.1211q-10.23045-2.51955-16.0214-5.8203v2.6992h-20.2813v-2.9688a60.80859,60.80859,0,0,1-15.7187,5.9102l-1.9805-3.1504q16.8603-4.1103,28.0801-13.7402l3.6894,1.2304a5.12691,5.12691,0,0,1-1.0488,1.0489Q1455.03716,241.94735,1470.51851,245.335Zm-6.3886,17.1914h-43.5606V248.4561h43.5606Zm-3.5703,23.0391h-3.6914V283.167h-28.9805v2.3985h-3.6895V265.6768h36.3614Zm-20.0118-26.2793v-7.5h-16.289v7.5Zm16.3204,13.5605v-3.8711h-28.9805v3.8711Zm0,7.0801v-3.9297h-28.9805v3.9297Zm-20.3106-23.6113-3.0898,2.1601a21.60454,21.60454,0,0,0-5.459-4.1699l3.1191-1.7988A15.40908,15.40908,0,0,1,1436.55761,256.3155Zm14.5508-14.3086a37.78931,37.78931,0,0,1-8.4297-6.1524,46.15806,46.15806,0,0,1-9.75,6.1524Zm9.3301,17.2793v-7.5h-16.1992v7.5Zm-3.6289-5.7305a14.29977,14.29977,0,0,1-5.3418,4.8008l-3.2989-1.6504a15.58863,15.58863,0,0,0,5.4004-4.4395Z" fill="#a39b4b"/></g></svg>