<svg xmlns="http://www.w3.org/2000/svg" xmlns:xlink="http://www.w3.org/1999/xlink" viewBox="0 0 655.2671 708.668"><defs><clipPath id="a"><rect width="655.2671" height="708.668" fill="none"/></clipPath></defs><g clip-path="url(#a)"><path d="M155.4165,341.4961a13.67625,13.67625,0,0,1,13.6768,13.6758c-.002-.2783-.0117-.5576-.0117-.8369,0-102.3106,82.9355-185.2486,185.249-185.2486a13.6755,13.6755,0,0,0,0-27.351A212.44366,212.44366,0,0,0,141.7319,354.335c0,.2793.0079.5586.0098.8369A13.67518,13.67518,0,0,1,155.4165,341.4961Z" fill="#5a5c66"/><path d="M340.6548,553.2588a13.67546,13.67546,0,0,1,13.6758-13.6758c-102.0322,0-184.7871-82.4863-185.2373-184.4111a13.6758,13.6758,0,1,0-27.3516,0A212.436,212.436,0,0,0,354.3306,566.9355,13.67559,13.67559,0,0,1,340.6548,553.2588Z" fill="#858591"/><path d="M502.5298,487.4092a13.67543,13.67543,0,0,0-19.3418,0A184.63539,184.63539,0,0,1,354.3306,539.583a13.67625,13.67625,0,0,0,0,27.3525A211.92079,211.92079,0,0,0,502.5298,506.749,13.67483,13.67483,0,0,0,502.5298,487.4092Z" fill="#9f9ea7"/><path d="M466.9136,241.751a159.22487,159.22487,0,1,0,46.6299,112.584A158.17945,158.17945,0,0,0,466.9136,241.751Z" fill="#9f9ea7"/><path d="M242.1206,405.8252V302.8477h22.334V310.46H251.5093v87.7519h12.9453v7.6133Z" fill="#333e48"/><path d="M466.5386,302.8477V405.8252H444.2085v-7.6133H457.148V310.46H444.2085v-7.6123Z" fill="#333e48"/><path d="M293.9898,375.2549c0,2.0556.0322,4.4834.0957,7.2705q.09375,4.18365.2587,8.4971.15975,4.3125.3868,8.2402.2211,3.9258.5459,6.5625H282.0835V333.0947q0-9.394-.3223-17.0224-.3192-7.629-.9658-13.2246h13.1944Z" fill="#fff"/><path d="M351.5952,340.1758v8.4336H339.4946v48.7861h12.1006v8.4316h-36.041v-8.4316h11.9063V348.6094H315.5542v-8.4336Z" fill="#fff"/><path d="M378.6284,340.1758a22.45263,22.45263,0,0,1,.7715,2.6738c.2608,1.0928.4922,2.2393.709,3.4404q.31785,1.8018.5801,3.5411l.5117,2.8925q6.18165-7.3344,12.4219-10.5849a27.8278,27.8278,0,0,1,13.0029-3.251,22.81825,22.81825,0,0,1,9.1074,1.706A16.06271,16.06271,0,0,1,422.396,346a26.47572,26.47572,0,0,1,4.0869,9.5908,62.93616,62.93616,0,0,1,1.3828,14.1944v28.958a72.0136,72.0136,0,0,1-1.9004,18.0547,30.92284,30.92284,0,0,1-5.3086,11.4609,18.65354,18.65354,0,0,1-8.207,6.0469,30.5223,30.5223,0,0,1-10.6523,1.7695,23.03284,23.03284,0,0,1-6.211-.9316,23.488,23.488,0,0,1-6.0175-2.6075l4.1845-9.6543a12.91609,12.91609,0,0,0,3.958,1.836,17.60175,17.60175,0,0,0,5.0508.7383,14.58148,14.58148,0,0,0,5.5391-.9961,9.234,9.234,0,0,0,4.1484-3.5079,19.17848,19.17848,0,0,0,2.6084-6.8867,56.88367,56.88367,0,0,0,.9004-11.1347V374.6094a78.50168,78.50168,0,0,0-.8047-12.5176,21.60875,21.60875,0,0,0-2.415-7.4668,8.0047,8.0047,0,0,0-4.0244-3.5742,16.11217,16.11217,0,0,0-5.6299-.8994,15.11678,15.11678,0,0,0-6.7871,1.6435,25.02993,25.02993,0,0,0-6.086,4.2471,31.54519,31.54519,0,0,0-4.8896,5.8887,27.03035,27.03035,0,0,0-3.1563,6.5644v37.332H370.2603V366.2432a100.498,100.498,0,0,0-1.0957-16.1241,81.73526,81.73526,0,0,0-2.1241-9.9433Z" fill="#fff"/></g></svg>