<svg xmlns="http://www.w3.org/2000/svg" xmlns:xlink="http://www.w3.org/1999/xlink" viewBox="0 0 1958.7177 708.6592"><defs><clipPath id="a"><rect width="1958.7177" height="708.6592" fill="none"/></clipPath></defs><g clip-path="url(#a)"><path d="M155.417,341.4912a13.67431,13.67431,0,0,1,13.6757,13.6753c-.0019-.2793-.0117-.5581-.0117-.8384,0-102.3091,82.9366-185.2475,185.2471-185.2475a13.67485,13.67485,0,1,0,0-27.3497A212.44437,212.44437,0,0,0,141.7314,354.3281c0,.2803.0078.5591.0098.8384A13.67561,13.67561,0,0,1,155.417,341.4912Z" fill="#ee212e"/><path d="M340.6543,553.2524a13.674,13.674,0,0,1,13.6738-13.6753c-102.0313,0-184.7842-82.4863-185.2354-184.4106a13.67575,13.67575,0,0,0-27.3515,0A212.4303,212.4303,0,0,0,354.3281,566.9282,13.67433,13.67433,0,0,1,340.6543,553.2524Z" fill="#46bc96"/><path d="M502.5254,487.4018a13.675,13.675,0,0,0-19.3399,0,184.6279,184.6279,0,0,1-128.8574,52.1753,13.67555,13.67555,0,0,0,0,27.3511,211.88706,211.88706,0,0,0,148.1973-60.185A13.67151,13.67151,0,0,0,502.5254,487.4018Z" fill="#00c2f3"/><path d="M466.9121,241.7466a159.22089,159.22089,0,1,0,46.6308,112.5815A158.17017,158.17017,0,0,0,466.9121,241.7466Z" fill="#00c2f3"/><path d="M242.1211,405.8188V302.8413h22.334v7.6118H251.5097v87.7525h12.9454v7.6132Z" fill="#333e48"/><path d="M466.5371,302.8413V405.8188H444.209v-7.6132h12.9375V310.4531H444.209v-7.6118Z" fill="#333e48"/><path d="M293.9902,375.2485q0,3.08505.0957,7.2715.09375,4.1844.2598,8.4961.1581,4.31325.3867,8.2393.21975,3.9279.5449,6.5634H282.084V333.0884q0-9.3948-.3223-17.0215-.31935-7.629-.9649-13.2256h13.1934Z" fill="#fff"/><path d="M351.5957,340.1694v8.4336H339.4941v48.7862h12.1016v8.4306h-36.041v-8.4306h11.9062V348.603H315.5547v-8.4336Z" fill="#fff"/><path d="M378.6289,340.1694a23.01573,23.01573,0,0,1,.7715,2.6734c.2597,1.0932.4922,2.2397.7089,3.4409q.3165,1.8018.5801,3.5415l.5117,2.8921q6.18165-7.3338,12.4219-10.584a27.82281,27.82281,0,0,1,13.002-3.25,22.84626,22.84626,0,0,1,9.1074,1.7041,16.04923,16.04923,0,0,1,6.6621,5.4058,26.46837,26.46837,0,0,1,4.0879,9.5913,62.94077,62.94077,0,0,1,1.3828,14.1943v28.959a72.0195,72.0195,0,0,1-1.9004,18.0542,30.95212,30.95212,0,0,1-5.3086,11.4604,18.66472,18.66472,0,0,1-8.207,6.0469,30.5182,30.5182,0,0,1-10.6524,1.7715,23.01527,23.01527,0,0,1-6.2109-.9336,23.52332,23.52332,0,0,1-6.0176-2.6074l4.1856-9.6538a12.89914,12.89914,0,0,0,3.957,1.8354,17.66371,17.66371,0,0,0,5.0508.7383,14.55415,14.55415,0,0,0,5.5391-.9976,9.2259,9.2259,0,0,0,4.1484-3.5063,19.16948,19.16948,0,0,0,2.6094-6.8862,56.90505,56.90505,0,0,0,.8984-11.1348V374.604a78.68978,78.68978,0,0,0-.8027-12.5186,21.61562,21.61562,0,0,0-2.416-7.4658,7.9999,7.9999,0,0,0-4.0235-3.5742,16.12445,16.12445,0,0,0-5.6308-.9004,15.107,15.107,0,0,0-6.7872,1.645,25.0596,25.0596,0,0,0-6.0859,4.2451,31.603,31.603,0,0,0-4.8887,5.8897,27.01888,27.01888,0,0,0-3.1562,6.564v37.331H370.2597v-39.583a100.47078,100.47078,0,0,0-1.0957-16.123,81.61005,81.61005,0,0,0-2.123-9.9444Z" fill="#fff"/><path d="M626.6645,336.8325V236.3613h12.0913v89.8194h42.751v10.6518Z" fill="#333e48"/><path d="M703.3847,245.1416q-3.74475,0-5.3979-1.7988a6.6332,6.6332,0,0,1-1.6553-4.6787V236.793a6.63715,6.63715,0,0,1,1.6553-4.6778q1.653-1.7988,5.3979-1.7998,3.7413,0,5.3975,1.7998a6.64391,6.64391,0,0,1,1.6553,4.6778v1.8711a6.64,6.64,0,0,1-1.6553,4.6787Q707.1262,245.1437,703.3847,245.1416Zm-5.7578,17.418h11.5157v74.2729H697.6269Z" fill="#333e48"/><path d="M733.6123,336.8325V262.5596h11.5156v11.9531h.5757a24.20676,24.20676,0,0,1,7.7007-9.9746q4.9665-3.7047,13.3144-3.7061,11.51445,0,18.209,7.4121,6.69285,7.4151,6.6934,20.9439v47.6445H780.1059V291.104q0-20.053-16.8413-20.0527a25.89425,25.89425,0,0,0-6.6938.8657,19.45827,19.45827,0,0,0-5.8296,2.5976,12.83639,12.83639,0,0,0-4.1026,4.3995,12.52976,12.52976,0,0,0-1.5107,6.2749v51.6435Z" fill="#333e48"/><path d="M874.3867,334.3857q0,15.3999-8.6367,24.1817-8.6367,8.7795-24.3262,8.7812a39.36849,39.36849,0,0,1-15.6182-2.8183,31.87717,31.87717,0,0,1-10.8671-7.4473l6.7651-7.9522a26.138,26.138,0,0,0,8.6367,5.9268,28.99334,28.99334,0,0,0,11.3711,2.0703q10.07445,0,15.6177-5.5635,5.53995-5.5707,5.542-16.4116V324.8789h-.5757a24.44466,24.44466,0,0,1-8.6362,10.2598A23.74959,23.74959,0,0,1,840.56,338.56a28.24121,28.24121,0,0,1-12.5229-2.7348,26.52875,26.52875,0,0,1-9.5-7.773,37.39709,37.39709,0,0,1-6.0459-12.2348,61.279,61.279,0,0,1,0-32.2432,37.4474,37.4474,0,0,1,6.0459-12.2353,26.56179,26.56179,0,0,1,9.5-7.7725A28.22736,28.22736,0,0,1,840.56,260.832a25.28943,25.28943,0,0,1,13.315,3.3482,20.90531,20.90531,0,0,1,8.4204,10.3325h.5757V262.5596h11.5156Zm-30.3721-6.0459a25.96782,25.96782,0,0,0,7.3413-1.0127,17.80256,17.80256,0,0,0,5.9732-2.9658,14.84671,14.84671,0,0,0,4.0307-4.7724,13.73664,13.73664,0,0,0,1.5113-6.5831V285.374a11.91622,11.91622,0,0,0-1.4395-5.7158,13.50978,13.50978,0,0,0-4.0303-4.5562,20.87757,20.87757,0,0,0-6.0454-2.9643,24.33866,24.33866,0,0,0-7.3413-1.0864q-9.7902,0-15.5454,6.2212-5.75895,6.22035-5.7578,16.0581v12.7299q0,9.83655,5.7578,16.0586Q834.2238,328.3396,844.0146,328.3398Z" fill="#333e48"/><path d="M944.6279,324.8789h-.5757a35.44446,35.44446,0,0,1-2.8066,5.0605,18.92866,18.92866,0,0,1-4.1021,4.417,19.21106,19.21106,0,0,1-5.9018,3.0635,25.76713,25.76713,0,0,1-8.0611,1.1401q-11.5173,0-18.2802-7.4135-6.7677-7.41135-6.7657-20.9434V262.5596h11.5157v45.7275q0,20.053,16.9848,20.0527a25.74859,25.74859,0,0,0,6.6939-.8662,18.46678,18.46678,0,0,0,5.7573-2.5947,13.11463,13.11463,0,0,0,4.0303-4.3994,12.83019,12.83019,0,0,0,1.5112-6.4214V262.5596h11.5156v74.2729H944.6279Z" fill="#333e48"/><path d="M986.3701,245.1416q-3.74415,0-5.3975-1.7988a6.63089,6.63089,0,0,1-1.6552-4.6787V236.793a6.63483,6.63483,0,0,1,1.6552-4.6778q1.65315-1.7988,5.3975-1.7998,3.7419,0,5.3979,1.7998a6.64572,6.64572,0,0,1,1.6553,4.6778v1.8711a6.64175,6.64175,0,0,1-1.6553,4.6787Q990.112,245.1437,986.3701,245.1416Zm-5.7573,17.418h11.5151v74.2729H980.6128Z" fill="#333e48"/><path d="M1038.9092,338.56q-10.3638,0-17.3448-3.9584a39.413,39.413,0,0,1-12.0195-10.5801l8.2046-6.6211a32.23284,32.23284,0,0,0,9.644,8.4204,25.113,25.113,0,0,0,12.3794,2.9512q7.34115,0,11.4429-3.1665a11.50417,11.50417,0,0,0,1.2959-16.3379q-2.80815-3.09375-10.148-4.2461l-5.9018-.8638a49.16363,49.16363,0,0,1-9.5-2.231,26.40015,26.40015,0,0,1-7.5567-4.0302,17.29837,17.29837,0,0,1-5.038-6.2617,20.39491,20.39491,0,0,1-1.7994-8.9239,21.44647,21.44647,0,0,1,2.0152-9.5727,19.26655,19.26655,0,0,1,5.542-6.8369,24.22263,24.22263,0,0,1,8.4199-4.1021,38.92317,38.92317,0,0,1,10.5083-1.3672q9.0681,0,15.1855,3.166a34.08644,34.08644,0,0,1,10.7242,8.7803l-7.6294,6.9092a22.90593,22.90593,0,0,0-7.1968-6.2608,23.17569,23.17569,0,0,0-11.9473-2.8076q-7.1997,0-10.8676,3.0957a10.437,10.437,0,0,0-3.6705,8.42q0,5.4726,3.6705,7.9165,3.67,2.44995,10.5795,3.5991l5.7579.8633q12.37785,1.872,17.561,7.125,5.1819,5.2572,5.1821,13.7461,0,10.7958-7.3413,16.9853Q1051.72,338.562,1038.9092,338.56Z" fill="#333e48"/><path d="M1102.101,336.8325q-6.0453,0-9.1401-3.3735a12.553,12.553,0,0,1-3.0947-8.8345V272.7783h-12.2354V262.5596h6.9097q3.74055,0,5.1099-1.5127,1.3659-1.51035,1.3672-5.2535V241.9746h10.3637v20.585h16.2656v10.2187h-16.2656v53.835h15.1138v10.2192Z" fill="#333e48"/><path d="M1141.9726,245.1416q-3.74415,0-5.3974-1.7988a6.631,6.631,0,0,1-1.6553-4.6787V236.793a6.63489,6.63489,0,0,1,1.6553-4.6778q1.65225-1.7988,5.3974-1.7998,3.742,0,5.398,1.7998a6.64617,6.64617,0,0,1,1.6553,4.6778v1.8711a6.6422,6.6422,0,0,1-1.6553,4.6787Q1145.7146,245.1437,1141.9726,245.1416Zm-5.7578,17.418h11.5156v74.2729h-11.5156Z" fill="#333e48"/><path d="M1199.8374,338.56a34.22952,34.22952,0,0,1-13.9624-2.7348,28.477,28.477,0,0,1-10.4356-7.773,34.58094,34.58094,0,0,1-6.4775-12.2348,59.36426,59.36426,0,0,1,0-32.2432,34.62474,34.62474,0,0,1,6.4775-12.2353,28.51232,28.51232,0,0,1,10.4356-7.7725,34.213,34.213,0,0,1,13.9624-2.7344q11.0823,0,17.7768,4.8213a29.43028,29.43028,0,0,1,10.0039,12.5947l-9.644,4.8946a17.498,17.498,0,0,0-6.6211-8.9248,19.87836,19.87836,0,0,0-11.5156-3.1665,23.02887,23.02887,0,0,0-9.0684,1.6552,17.72425,17.72425,0,0,0-6.4775,4.6065,19.38781,19.38781,0,0,0-3.8863,7.0527,29.77486,29.77486,0,0,0-1.2959,8.9961v12.667q0,9.791,5.2544,16.0493,5.25225,6.2622,15.4737,6.2617,13.9599,0,20.1518-12.955l8.3487,5.6142a29.493,29.493,0,0,1-10.7237,12.811Q1210.4892,338.5599,1199.8374,338.56Z" fill="#333e48"/><path d="M1266.9131,338.56q-10.3638,0-17.3448-3.9584a39.413,39.413,0,0,1-12.0195-10.5801l8.2046-6.6211a32.23284,32.23284,0,0,0,9.644,8.4204,25.11191,25.11191,0,0,0,12.3794,2.9512q7.34115,0,11.4429-3.1665a11.50417,11.50417,0,0,0,1.2959-16.3379q-2.8074-3.09375-10.1479-4.2461l-5.9019-.8638a49.16363,49.16363,0,0,1-9.5-2.231,26.39823,26.39823,0,0,1-7.5566-4.0302,17.2976,17.2976,0,0,1-5.0381-6.2617,20.39493,20.39493,0,0,1-1.7993-8.9239,21.44646,21.44646,0,0,1,2.0151-9.5727,19.26763,19.26763,0,0,1,5.542-6.8369,24.22263,24.22263,0,0,1,8.4199-4.1021,38.92052,38.92052,0,0,1,10.5083-1.3672q9.0681,0,15.1856,3.166a34.0872,34.0872,0,0,1,10.7241,8.7803l-7.6294,6.9092a22.90262,22.90262,0,0,0-7.1973-6.2608,23.17251,23.17251,0,0,0-11.9468-2.8076q-7.1997,0-10.8676,3.0957a10.437,10.437,0,0,0-3.6705,8.42q0,5.4726,3.6705,7.9165,3.67,2.44995,10.5795,3.5991l5.7579.8633q12.37785,1.872,17.561,7.125,5.1819,5.2572,5.1816,13.7461,0,10.7958-7.3408,16.9853Q1279.7239,338.562,1266.9131,338.56Z" fill="#333e48"/><path d="M1378.0351,338.56q-12.2358,0-20.872-4.6782a44.2824,44.2824,0,0,1-14.6817-12.8828l8.9243-7.4853a39.1027,39.1027,0,0,0,11.8033,10.7241,30.43673,30.43673,0,0,0,15.2578,3.6704q10.7958,0,16.4814-5.1816,5.6844-5.18265,5.6856-13.8189,0-7.19535-4.3184-11.0825-4.3176-3.8877-14.25-6.1904l-8.2046-1.8711q-13.8186-3.16485-21.0874-9.5713-7.27005-6.4044-7.2695-18.0659a27.30427,27.30427,0,0,1,2.4472-11.8028,23.67339,23.67339,0,0,1,6.8374-8.6362,30.85366,30.85366,0,0,1,10.5074-5.2539,47.57819,47.57819,0,0,1,13.459-1.7998q11.36865,0,19.5039,4.1748a37.57477,37.57477,0,0,1,13.7465,12.2348l-9.0683,6.6211a31.31669,31.31669,0,0,0-10.0757-9.0683q-5.904-3.3099-14.6826-3.3111-9.64455,0-15.1856,4.1026-5.54295,4.10295-5.542,12.3071,0,7.199,4.6783,10.8677,4.6758,3.6702,14.1782,5.8301l8.2046,1.8711q14.8242,3.31275,21.4477,10.0756,6.6189,6.767,6.6211,17.9927a31.83918,31.83918,0,0,1-2.375,12.5235,25.705,25.705,0,0,1-6.8369,9.5,31.81087,31.81087,0,0,1-10.8677,6.0454A45.14806,45.14806,0,0,1,1378.0351,338.56Z" fill="#333e48"/><path d="M1460.3691,338.56a33.4897,33.4897,0,0,1-13.6748-2.7348,29.45258,29.45258,0,0,1-10.5796-7.8452,36.91343,36.91343,0,0,1-6.8374-12.2349,53.62568,53.62568,0,0,1,0-32.0273,36.82731,36.82731,0,0,1,6.8374-12.3067,29.48958,29.48958,0,0,1,10.5796-7.8447,33.47316,33.47316,0,0,1,13.6748-2.7344,32.98923,32.98923,0,0,1,13.6026,2.7344,30.36842,30.36842,0,0,1,10.5791,7.8447,36.21759,36.21759,0,0,1,6.9096,12.3067,53.62568,53.62568,0,0,1,0,32.0273,36.29929,36.29929,0,0,1-6.9096,12.2349,30.32905,30.32905,0,0,1-10.5791,7.8452A33.00543,33.00543,0,0,1,1460.3691,338.56Zm0-10.2202q9.35445,0,15.2578-5.7578,5.9004-5.75535,5.9014-17.5605V294.3696q0-11.8008-5.9014-17.561-5.904-5.7546-15.2578-5.7573-9.3588,0-15.2578,5.7573-5.90475,5.7597-5.9019,17.561v10.6519q0,11.80515,5.9019,17.5605Q1451.0117,328.34185,1460.3691,328.3398Z" fill="#333e48"/><path d="M1540.5444,338.56a34.22817,34.22817,0,0,1-13.9624-2.7348,28.4834,28.4834,0,0,1-10.436-7.773,34.58671,34.58671,0,0,1-6.4771-12.2348,59.354,59.354,0,0,1,0-32.2432,34.63052,34.63052,0,0,1,6.4771-12.2353,28.51871,28.51871,0,0,1,10.436-7.7725,34.21165,34.21165,0,0,1,13.9624-2.7344q11.0823,0,17.7764,4.8213a29.43136,29.43136,0,0,1,10.0044,12.5947l-9.6446,4.8946a17.49467,17.49467,0,0,0-6.6211-8.9248,19.87518,19.87518,0,0,0-11.5151-3.1665,23.02919,23.02919,0,0,0-9.0688,1.6552,17.71855,17.71855,0,0,0-6.4771,4.6065,19.38909,19.38909,0,0,0-3.8862,7.0527,29.75608,29.75608,0,0,0-1.2959,8.9961v12.667q0,9.791,5.2539,16.0493,5.25285,6.2622,15.4741,6.2617,13.9593,0,20.1519-12.955l8.3486,5.6142a29.49386,29.49386,0,0,1-10.7241,12.811Q1551.19655,338.5599,1540.5444,338.56Z" fill="#333e48"/><path d="M1591.0664,245.1416q-3.7449,0-5.3975-1.7988a6.631,6.631,0,0,1-1.6553-4.6787V236.793a6.63489,6.63489,0,0,1,1.6553-4.6778q1.6524-1.7988,5.3975-1.7998,3.74115,0,5.3979,1.7998a6.64572,6.64572,0,0,1,1.6553,4.6778v1.8711a6.64175,6.64175,0,0,1-1.6553,4.6787Q1594.8083,245.1437,1591.0664,245.1416Zm-5.7578,17.418h11.5156v74.2729h-11.5156Z" fill="#333e48"/><path d="M1649.2187,338.56a33.34918,33.34918,0,0,1-13.7461-2.7348,29.60523,29.60523,0,0,1-10.5078-7.8452,35.963,35.963,0,0,1-6.7656-12.2349,55.1851,55.1851,0,0,1,0-32.0273,35.89191,35.89191,0,0,1,6.7656-12.3067,29.64288,29.64288,0,0,1,10.5078-7.8447,33.333,33.333,0,0,1,13.7461-2.7344,31.57045,31.57045,0,0,1,13.3867,2.7256,29.67955,29.67955,0,0,1,10.0762,7.5317,33.58367,33.58367,0,0,1,6.4053,11.4029,45.01924,45.01924,0,0,1,2.2314,14.4863v5.4517h-53.4028v3.455a25.4204,25.4204,0,0,0,1.5112,8.8526,21.02186,21.02186,0,0,0,4.3184,7.1245,19.741,19.741,0,0,0,6.9092,4.751,23.73072,23.73072,0,0,0,9.2842,1.7265,22.59307,22.59307,0,0,0,12.3076-3.3105,21.72127,21.72127,0,0,0,8.1323-9.5l8.2046,5.9394a28.66285,28.66285,0,0,1-11.2276,12.3838A33.86209,33.86209,0,0,1,1649.2187,338.56Zm0-68.0844a21.92661,21.92661,0,0,0-8.6362,1.6465,19.415,19.415,0,0,0-6.6934,4.6484,21.799,21.799,0,0,0-4.3901,7.0811,24.465,24.465,0,0,0-1.5835,8.9414v1.0009h41.0234v-1.5747q0-9.87075-5.3979-15.8061Q1658.1431,270.4761,1649.2187,270.4756Z" fill="#333e48"/><path d="M1716.727,336.8325q-6.0453,0-9.1401-3.3735a12.55031,12.55031,0,0,1-3.0947-8.8345V272.7783h-12.2354V262.5596h6.9092q3.74115,0,5.1103-1.5127,1.366-1.51035,1.3672-5.2535V241.9746h10.3638v20.585h16.2656v10.2187h-16.2656v53.835h15.1138v10.2192Z" fill="#333e48"/><path d="M1796.6142,262.5596h11.3721l-33.251,91.5459a40.85273,40.85273,0,0,1-2.5908,5.5415,10.80355,10.80355,0,0,1-3.167,3.5268,12.58759,12.58759,0,0,1-4.6777,1.8711,34.76249,34.76249,0,0,1-6.8374.5762h-5.9019V355.4014h11.6592l5.6143-15.8086-27.7813-77.0332h11.5156l17.8487,50.4257,3.4546,12.0689h.7197l4.0303-12.0689Z" fill="#333e48"/><path d="M646.7929,477.751l-3.6103-11.4766H627.1924l-3.5459,11.4766h-8.6407l15.0879-45.0039h10.5742L655.626,477.751Zm-11.4765-37.2657h-.3223l-5.7383,18.5039h11.8633Z" fill="#333e48"/><path d="M692.1181,477.751l-3.6103-11.4766H672.5176l-3.5459,11.4766H660.331l15.0879-45.0039h10.5742l14.958,45.0039Zm-11.4765-37.2657h-.3223l-5.7383,18.5039h11.8633Z" fill="#333e48"/><path d="M736.1552,458.7314H717.3926V477.751h-8.5108V432.7471h8.5108v18.4394h18.7626V432.7471h8.5108V477.751h-8.5108Z" fill="#333e48"/><path d="M771.0361,457.3779l-5.9961,7.0918V477.751h-8.5107V432.7471H765.04v22.1796h.3223l6.3828-8.4453,11.1543-13.7343h9.8008l-15.668,18.7617,16.957,26.2422h-10.122Z" fill="#333e48"/><path d="M809.5927,432.7471v27.6601q0,5.2881,2.0313,7.9317,2.03025,2.64255,6.8662,2.6425,4.8354,0,6.8672-2.6425,2.03025-2.64555,2.0303-7.9317V432.7471h8.3818v26.5644a34.5185,34.5185,0,0,1-.9346,8.5742,14.612,14.612,0,0,1-2.998,5.9981,12.09517,12.09517,0,0,1-5.3838,3.5137,25.17415,25.17415,0,0,1-8.0273,1.1269,24.79153,24.79153,0,0,1-8.0274-1.1269,12.11387,12.11387,0,0,1-5.3193-3.5137,14.292,14.292,0,0,1-2.9658-5.9981,35.64682,35.64682,0,0,1-.9024-8.5742V432.7471Z" fill="#333e48"/></g></svg>