<svg xmlns="http://www.w3.org/2000/svg" xmlns:xlink="http://www.w3.org/1999/xlink" viewBox="0 0 2678.8574 708.66209"><defs><clipPath id="a"><rect y="-0.00051" width="2678.8574" height="708.6616" fill="none"/></clipPath></defs><g clip-path="url(#a)"><text transform="translate(1761.57615 387.73339)" font-size="72" fill="#333e48" font-family="SourceHanSansHC-Medium-B5pc-H, Source Han Sans HC"><tspan letter-spacing="0.03951em">二零二零至二零二一年</tspan><tspan x="748.44824" y="0">度</tspan></text><path d="M155.4072,341.49269a13.67476,13.67476,0,0,1,13.6768,13.6748c-.002-.2793-.0118-.5576-.0118-.8369,0-102.3106,82.9366-185.2481,185.2481-185.2481a13.6753,13.6753,0,1,0,0-27.35059A212.44252,212.44252,0,0,0,141.7226,354.33059c0,.2793.0078.5576.0098.8369A13.675,13.675,0,0,1,155.4072,341.49269Z" fill="#ee212e"/><path d="M340.6455,553.25339a13.67439,13.67439,0,0,1,13.6748-13.6748c-102.0313,0-184.7852-82.4863-185.2363-184.4111a13.6758,13.6758,0,0,0-27.3516,0,212.42912,212.42912,0,0,0,212.5879,211.7617A13.67518,13.67518,0,0,1,340.6455,553.25339Z" fill="#46bc96"/><path d="M502.5176,487.40279a13.675,13.675,0,0,0-19.3399,0,184.62658,184.62658,0,0,1-128.8574,52.1758,13.6753,13.6753,0,0,0,0,27.3506,211.88444,211.88444,0,0,0,148.1973-60.1846A13.672,13.672,0,0,0,502.5176,487.40279Z" fill="#00c2f3"/><path d="M466.9043,241.74759a159.22149,159.22149,0,1,0,46.6308,112.583A158.17223,158.17223,0,0,0,466.9043,241.74759Z" fill="#00c2f3"/><path d="M242.1133,405.81979V302.84229h22.3339v7.6133H251.5019v87.75192h12.9453v7.61228Z" fill="#333e48"/><path d="M466.5293,302.84229v102.9775H444.2002v-7.61228h12.9384V310.45559H444.2002v-7.6133Z" fill="#333e48"/><path d="M293.9824,375.24949q0,3.08505.0957,7.2715.09375,4.18506.2588,8.49609.1596,4.3125.3867,8.24023.22125,3.92577.5459,6.56248H282.0761v-72.7295q0-9.3954-.3222-17.0215-.31935-7.63035-.9658-13.2265h13.1943Z" fill="#fff"/><path d="M351.5879,340.17039v8.4336H339.4863v48.78614h12.1016v8.43066H315.5468v-8.43066h11.9063V348.604H315.5468v-8.4336Z" fill="#fff"/><path d="M378.6211,340.17039a22.819,22.819,0,0,1,.7705,2.6738c.2607,1.0928.4922,2.2393.7099,3.4414q.3165,1.8018.5801,3.5411l.5117,2.8925q6.18165-7.3344,12.4219-10.5849a27.82281,27.82281,0,0,1,13.002-3.25,22.85663,22.85663,0,0,1,9.1074,1.7041,16.04712,16.04712,0,0,1,6.6621,5.4062,26.48448,26.48448,0,0,1,4.0879,9.5908,62.94233,62.94233,0,0,1,1.3828,14.1944v28.959a72.02936,72.02936,0,0,1-1.9004,18.05473,30.96235,30.96235,0,0,1-5.3086,11.4609,18.66241,18.66241,0,0,1-8.207,6.0459,30.539,30.539,0,0,1-10.6524,1.7715,22.995,22.995,0,0,1-6.2109-.9336,23.4885,23.4885,0,0,1-6.0176-2.6074l4.1846-9.6543a12.90523,12.90523,0,0,0,3.958,1.8359,17.63893,17.63893,0,0,0,5.0498.7383,14.56455,14.56455,0,0,0,5.54-.9971,9.22423,9.22423,0,0,0,4.1485-3.5068,19.15146,19.15146,0,0,0,2.6084-6.8867,56.81056,56.81056,0,0,0,.8994-11.1348V374.605a78.55317,78.55317,0,0,0-.8037-12.5186,21.595,21.595,0,0,0-2.4151-7.4658,8.005,8.005,0,0,0-4.0244-3.5742,16.11572,16.11572,0,0,0-5.6299-.8994,15.10709,15.10709,0,0,0-6.7871,1.6435,25.05287,25.05287,0,0,0-6.0859,4.2461,31.54157,31.54157,0,0,0-4.8887,5.8897,27.05412,27.05412,0,0,0-3.1572,6.5644v37.3301H370.2519v-39.583a100.473,100.473,0,0,0-1.0957-16.1231,81.9993,81.9993,0,0,0-2.123-9.9443Z" fill="#fff"/><path d="M731.9253,379.63279H676.9326v-9.1289h54.9927Zm-7.1568,97.2061h-9.4214V466.833H693.3642v10.0059h-9.5669v-49.3701h40.9712Zm-.4384-78.36331-40.3868.1455v-9.12793h40.3868Zm.1459,19.13381H683.9433v-9.1289H724.476Zm-1.8256-56.5264-37.1001.1465v-9.1289h37.1001Zm-7.3033,96.7666v-21.3975H693.2187v21.3975Zm94.3575-40.0937-78.9478.1455v-8.9825h19.5723l4.2363-22.56636H736.3076v-8.98344h19.7187l3.1402-16.7246H731.1953v-9.1289h72.5205v8.9834H769.0254l-2.9942,16.7246h30.0894l-3.1406,31.5489h16.7246Zm-12.708,59.375h-9.4209v-9.8594H750.6216v9.8594h-9.5674v-49.5157h55.9424Zm-9.4209-18.8428v-21.6904H750.4756v21.6904Zm-1.461-72.08205H764.4243l-4.2354,22.71285H783.851Z" fill="#333e48"/><path d="M974.376,379.63279H841.605v-9.1289H974.376Zm-19.5723,18.6963h-94.9419v-8.83594h94.9419Zm0,18.9883h-94.9419v-8.8369h94.9419Zm-3.4321,59.8135h-9.4209V466.833h-68.5044v10.2979h-9.4209v-49.6621h87.3462Zm-.146-116.9971-86.4703.2187v-8.8369h86.4703Zm-9.2749,97.7158v-21.3975h-68.5044v21.3975Z" fill="#333e48"/><path d="M1139.04979,450.69339h-58.791v10.1513q0,16.28475-17.3106,16.2862h-9.7129l-3.5781-8.9825h13.584q7.15725,0,7.1582-6.5732v-10.8818h-64.1231v-9.1289h64.1231v-6.2813q15.2607-5.6967,21.8359-10.6621H1036.292v-8.3994h72.1582v7.9609a223.65725,223.65725,0,0,1-28.1914,15.8477v1.5342h58.791Zm-6.1348-27.0957h-8.7656v-15.1172H1022.126v15.9941h-9.56889V399.93651h12.561V355.38569q10.36813-1.0209,22.71489-9.8584l4.8203,6.7188q-6.6504,6.1347-18.1133,9.2754v6.1347h18.6953v7.5958H1034.54v7.95991h18.6953v7.44825H1034.54v9.27636h77.6328v-9.27636h-17.8203v-7.30274h17.8203v-8.54392H1094.499v-7.4492h17.6738v-7.961h-20.6679v-8.8369h29.9433V399.79h11.4668Zm-41.4101-56.6719-5.1114,6.2803a77.94821,77.94821,0,0,0-11.3203-8.6905,87.3684,87.3684,0,0,1-13.293,9.1289l-5.9882-5.2588a57.90063,57.90063,0,0,0,12.416-6.8642,127.37517,127.37517,0,0,0-14.3887-4.6738l3.7266-6.7198a134.926,134.926,0,0,1,16.2851,5.2578,62.19181,62.19181,0,0,0,8.6914-10.0048l6.1348,4.8935a46.29859,46.29859,0,0,1-7.5957,8.8369A54.54089,54.54089,0,0,1,1091.50489,366.92579Zm.875,26.583-6.1329,4.82031a67.607,67.607,0,0,0-12.2695-7.52148q-3.94335,2.99413-14.0215,7.52148l-5.5508-4.38183q9.419-4.45312,13.5118-7.74122a74.22061,74.22061,0,0,0-12.416-5.69725l5.4765-4.5996a91.19544,91.19544,0,0,1,12.8535,5.62205q2.0421-1.166,8.252-7.01075l6.7187,3.4326a36.59881,36.59881,0,0,1-8.3242,7.961A54.32184,54.32184,0,0,1,1092.37989,393.50878Z" fill="#333e48"/><path d="M1303.57518,450.69339h-58.791v10.1513q0,16.28475-17.30859,16.2862h-9.7129l-3.5782-8.9825h13.584q7.15441,0,7.1563-6.5732v-10.8818h-64.1211v-9.1289h64.1211v-6.2813q15.26368-5.6967,21.83789-10.6621h-55.94339v-8.3994h72.15629v7.9609a223.5151,223.5151,0,0,1-28.1914,15.8477v1.5342h58.791Zm-6.1328-27.0957h-8.7676v-15.1172H1186.65129v15.9941h-9.5664V399.93651h12.5606V355.38569q10.371-1.0209,22.7129-9.8584l4.8203,6.7188q-6.64455,6.1347-18.1133,9.2754v6.1347h18.6973v7.5958h-18.6973v7.95991h18.6973v7.44825h-18.6973v9.27636h77.63279v-9.27636h-17.8183v-7.30274h17.8183v-8.54392h-17.6738v-7.4492h17.6738v-7.961h-20.668v-8.8369h29.9434V399.79h11.4688Zm-38.8106-31.72758-6.6543,6.084c-3.0371-4.56347-7.3828-10.27637-11.5859-13.82422q-9.79978,10.919-16.10548,13.89356l-6.584-5.5293q7.42378-3.53173,16.10739-13.20314-9.87585-6.1509-14.0761-7.6055l5.7441-5.9404q3.501,1.38285,13.166,7.1895a41.81985,41.81985,0,0,0,4.4805-10.3018h-21.99019v-8.6387h11.789v-8.8964h7.56639v8.8964h13.9922v8.6387h-2.7695a54.99609,54.99609,0,0,1-6.2754,14.8633C1250.52628,381.36522,1255.4111,387.26269,1258.63178,391.87011Z" fill="#333e48"/><path d="M1470.51068,379.34179l-5.2578,7.59472q-24.90525-6.13476-38.998-14.16792v6.5732h-49.3711v-7.2314q-21.3252,11.02875-38.2696,14.38765l-4.8183-7.668q41.042-10.00485,68.3574-33.4492l8.9824,2.9941a12.42236,12.42236,0,0,1-2.55658,2.5557Q1432.8251,371.08829,1470.51068,379.34179Zm-15.55658,41.8467h-106.041v-34.252h106.041Zm-8.68952,56.0879h-8.9824v-5.8428h-70.5488v5.8428h-8.9824v-48.42h88.5136Zm-48.7129-63.9756V395.043h-39.6562v18.25783Zm39.7305,33.0107v-9.4209h-70.5488v9.4209Zm0,17.2354v-9.5674h-70.5488v9.5674Zm-49.4434-57.4766-7.5214,5.2588a52.53771,52.53771,0,0,0-13.293-10.15137l7.59572-4.38183A37.57731,37.57731,0,0,1,1387.83878,406.07029Zm35.4219-34.8349a92.10853,92.10853,0,0,1-20.5234-14.9727,112.1227,112.1227,0,0,1-23.7344,14.9727Zm22.7129,42.0654V395.043H1406.5361v18.25783Zm-8.8379-13.94924q-4.3095,6.86571-13,11.68554l-8.0332-4.0166q9.56835-5.40375,13.1445-10.80956Z" fill="#333e48"/><path d="M732.6137,260.24709l-2.79,3.2109q-12.53985-4.4106-23.8804-15.541l.0601,11.7305h14.0102v25.7998h-3.81V281.998H691.9331v3.4493h-3.9307v-25.7998h14.0703V247.917q-6.1794,9.4497-22.3203,14.791l-2.8198-3.1807q14.30925-3.78075,20.4604-11.6103H680.3222v-3.75h21.7505v-5.79q-7.1697.7206-18,1.0498l-2.58-3.6299q25.59-.0909,40.8608-4.2901l2.8799,2.8809a132.92054,132.92054,0,0,1-19.23,3.5098v6.2695h22.0503v3.75l-17.1904-.0596A63.95491,63.95491,0,0,0,732.6137,260.24709Zm-16.4101,8.4306v-5.2802H691.873v5.2802Zm0,9.6299v-5.9394H691.873v5.9394Z" fill="#333e48"/><path d="M768.70459,263.00679q-3.783,11.73195-9.9004,19.2315l3.5088,2.2207a57.19745,57.19745,0,0,0,10.0215-19.2305Zm-6.331-16.6494-2.5215,3.1504a22.192,22.192,0,0,1,9.4531,7.3193l2.6377-3.5693Q768.82424,249.086,762.37359,246.35739Zm2.9389-13.4394-2.8193,2.8799a18.10511,18.10511,0,0,1,9.0913,6.9589l2.8188-3.0302A18.39188,18.39188,0,0,0,765.31249,232.918Z" fill="#333e48"/><path d="M804.52389,272.12889v-11.3125a34.83522,34.83522,0,0,0,7.6817,5.5225l2.4604-3.3321a25.76306,25.76306,0,0,1-12.2412-10.6191h10.2583v-3.6895H802.875v-7.1709h7.4092v-3.6914H802.875v-6.3271h-3.8115v6.3887h-11.1289v-6.3887h-3.812v6.3887h-7.3784v3.6884h7.4399v7.17h-9.7808v3.6923h9.9004q-3.32805,6.2388-12.0298,10.378l2.8189,3.331a37.67266,37.67266,0,0,0,4.7407-3.2392v16.081q0,5.15925,5.1597,5.1592h19.6504a4.79035,4.79035,0,0,0,3.7944-1.5889q1.3974-1.59075,2.1768-6.2695l-3.8702-1.7412q-.39105,3.75-1.1396,4.7988a2.34837,2.34837,0,0,1-2.0098,1.0508h-18.3017a1.45727,1.45727,0,0,1-1.6485-1.6514v-6.6279Zm-16.5893-30.6016h11.1899v7.1709h-11.1899Zm.3584,10.8604h10.2007a24.88259,24.88259,0,0,0,4.4399,6.8115h-19.0498A21.14848,21.14848,0,0,0,788.293,252.38769Zm-4.648,10.5h17.0699v5.6103H783.645Z" fill="#333e48"/><path d="M896.29783,282.44819l-2.79,3.1192q-18.7515-10.2291-23.82079-34.4697-6.27106,24.63135-25.5601,34.4697l-3.0307-3.5694q19.11028-9.30015,24.21089-30.8408H844.90624v-3.8701h20.85059a153.53677,153.53677,0,0,0,.4805-15.7803l4.1699.6006q.1494,9.1788-.3603,15.1201h22.7407v3.8702h-18.9302Q877.45653,271.648,896.29783,282.44819Z" fill="#333e48"/><path d="M977.92948,274.64749h-24.1509v4.1709q0,6.68835-7.1098,6.6904h-3.9903l-1.4697-3.6904h5.5801q2.93925,0,2.9399-2.7002v-4.4707h-26.3403v-3.75h26.3403v-2.5801a37.47855,37.47855,0,0,0,8.9702-4.3799h-22.9804v-3.4502h29.6401v3.2695a91.57046,91.57046,0,0,1-11.5801,6.5108v.6299h24.1509Zm-2.5195-11.1299h-3.6001v-6.21h-41.9116v6.5694h-3.9297v-10.0791h5.1601v-18.3008q4.2591-.41895,9.3296-4.0498l1.98,2.7597a17.64778,17.64778,0,0,1-7.4399,3.8106v2.5195h7.6801v3.1201h-7.6801v3.2705h7.6801v3.0596h-7.6801v3.8106h31.8911v-3.8106h-7.3203v-3h7.3203v-3.5098h-7.2603V240.417h7.2603v-3.2695h-8.4903v-3.6299H970.699v20.2197h4.711Zm-17.0108-23.2803-2.1005,2.5791a31.93834,31.93834,0,0,0-4.6495-3.5693,35.88506,35.88506,0,0,1-5.4604,3.75l-2.46-2.1592a23.81327,23.81327,0,0,0,5.0996-2.8203,52.46125,52.46125,0,0,0-5.9096-1.9209l1.5302-2.7598a55.407,55.407,0,0,1,6.69,2.1602,25.55334,25.55334,0,0,0,3.5698-4.1104l2.5205,2.0108a19.0349,19.0349,0,0,1-3.1201,3.6298A22.41339,22.41339,0,0,1,958.39918,240.23729Zm.3599,10.9199-2.52,1.9805a27.78041,27.78041,0,0,0-5.0401-3.0908,32.43555,32.43555,0,0,1-5.7602,3.0908l-2.2803-1.8008a29.6605,29.6605,0,0,0,5.5508-3.1797,30.44276,30.44276,0,0,0-5.1006-2.3398l2.2495-1.8906a37.52,37.52,0,0,1,5.2808,2.3105,25.60236,25.60236,0,0,0,3.3901-2.8799l2.7598,1.4102a15.05683,15.05683,0,0,1-3.4199,3.2695A22.30258,22.30258,0,0,1,958.75908,251.15719Z" fill="#333e48"/><path d="M1060.67172,281.63769l-2.6406,3.5107q-15.26955-4.5-24.7793-12.1211-8.19435,6.6915-25.7422,12.3614l-2.9395-3.5703q16.98062-4.70955,25.6817-11.4307a40.86343,40.86343,0,0,1-11.7305-20.0703,33.11245,33.11245,0,0,1-4.4414,7.9199l-3.1777-2.9092a39.65048,39.65048,0,0,0,6.0879-9.8711h-10.3203v-3.6894h24.0625v-10.2608h3.8691V241.707h24.4805v3.6905h-10.2618q-2.6982,15.6606-12.4199,24.9296Q1045.25082,277.04784,1060.67172,281.63769Zm-15.8711-36.2402h-23.2187q2.39642,13.88955,11.7285,22.3505Q1042.43058,259.25784,1044.80062,245.39749Z" fill="#333e48"/><path d="M1141.85336,274.64749h-24.1523v4.1709q0,6.68835-7.10939,6.6904h-3.99021l-1.46879-3.6904h5.57809q2.9415,0,2.9414-2.7002v-4.4707h-26.3398v-3.75h26.3398v-2.5801a37.45322,37.45322,0,0,0,8.9688-4.3799h-22.9805v-3.4502h29.6406v3.2695a91.56784,91.56784,0,0,1-11.58,6.5108v.6299h24.1523Zm-2.5195-11.1299h-3.6016v-6.21h-41.9121v6.5694h-3.9297v-10.0791h5.16021v-18.3008q4.25968-.41895,9.332-4.0498l1.97849,2.7597a17.64207,17.64207,0,0,1-7.4414,3.8106v2.5195h7.6817v3.1201h-7.6817v3.2705h7.6817v3.0596h-7.6817v3.8106h31.8926v-3.8106h-7.3223v-3h7.3223v-3.5098h-7.2598V240.417h7.2598v-3.2695h-8.4902v-3.6299h12.2988v20.2197h4.7129Zm-17.0117-23.2803-2.1016,2.5791a31.899,31.899,0,0,0-4.6484-3.5693,35.96106,35.96106,0,0,1-5.461,3.75l-2.459-2.1592a23.83725,23.83725,0,0,0,5.0996-2.8203,52.66072,52.66072,0,0,0-5.91009-1.9209l1.53119-2.7598a55.45637,55.45637,0,0,1,6.6895,2.1602,25.47215,25.47215,0,0,0,3.5684-4.1104l2.5214,2.0108a19.114,19.114,0,0,1-3.1191,3.6298A22.44256,22.44256,0,0,1,1122.32216,240.23729Zm.3593,10.9199-2.5195,1.9805a27.73912,27.73912,0,0,0-5.041-3.0908,32.41335,32.41335,0,0,1-5.7598,3.0908l-2.2812-1.8008a29.54966,29.54966,0,0,0,5.5508-3.1797,30.39239,30.39239,0,0,0-5.0997-2.3398l2.25-1.8906a37.54843,37.54843,0,0,1,5.2813,2.3105,25.4712,25.4712,0,0,0,3.3887-2.8799l2.7597,1.4102a15.04893,15.04893,0,0,1-3.4179,3.2695A22.36017,22.36017,0,0,1,1122.68146,251.15719Z" fill="#333e48"/><path d="M1181.37785,251.90719q6.0615,6.81015,6.0625,13.2901a7.30686,7.30686,0,0,1-1.6367,5.0097,5.76157,5.76157,0,0,1-4.5742,1.8614,23.80462,23.80462,0,0,1-3.9004-.3897l-1.1094-3.9912a21.66568,21.66568,0,0,0,4.6191.8105,3.0525,3.0525,0,0,0,2.1309-.9003,3.13124,3.13124,0,0,0,.96092-2.4004,14.38084,14.38084,0,0,0-1.65042-5.7598,22.9276,22.9276,0,0,0-4.9511-6.6895l5.85152-15.0312h-8.91012v47.792h-3.9317v-51.6016h16.8301v3.8096Zm41.373,22.5908a20.74394,20.74394,0,0,1-2.1015,7.0499,4.62327,4.62327,0,0,1-4.2891,2.1904h-4.67968q-4.68168,0-4.67972-4.9199v-15.8702h-6.332q-.17865,9.65925-3.7637,14.4747-3.58587,4.81485-13.30658,8.0859l-2.51952-3.4512q9.02928-2.66895,12.3906-6.9004,3.3603-4.22895,3.3906-12.1494h-8.22068v-3.9307h32.13278v3.8711H1210.749v14.9405a2.28809,2.28809,0,0,0,.4805,1.3945,1.39627,1.39627,0,0,0,1.1406.6445h3.81052q1.16892,0,1.78518-1.9199a30.58237,30.58237,0,0,0,1.0351-4.9805Zm-3.4511-27.2109-3.8086.0606v-5.2813h-22.6211v5.2813h-3.8711v-9.0909h13.1699v-6.8095h3.9316v6.75h13.1993Zm-5.0391,5.79h-20.2812v-3.9296h20.2812Z" fill="#333e48"/><path d="M1305.77819,274.64749H1281.6259v4.1709q0,6.68835-7.1094,6.6904h-3.9902l-1.4707-3.6904h5.58q2.9415,0,2.9415-2.7002v-4.4707h-26.3418v-3.75h26.3418v-2.5801a37.45388,37.45388,0,0,0,8.9687-4.3799h-22.9805v-3.4502h29.6407v3.2695a91.57753,91.57753,0,0,1-11.5801,6.5108v.6299h24.15229Zm-2.52148-11.1299h-3.59962v-6.21H1257.747v6.5694h-3.9317v-10.0791h5.1621v-18.3008q4.25685-.41895,9.3282-4.0498l1.9804,2.7597a17.64558,17.64558,0,0,1-7.4394,3.8106v2.5195h7.6797v3.1201h-7.6797v3.2705h7.6797v3.0596h-7.6797v3.8106h31.8906v-3.8106h-7.3203v-3h7.3203v-3.5098h-7.2598V240.417h7.2598v-3.2695h-8.4902v-3.6299h12.29879v20.2197h4.71092Zm-17.00971-23.2803-2.1016,2.5791a31.9195,31.9195,0,0,0-4.6504-3.5693,35.84066,35.84066,0,0,1-5.459,3.75l-2.4609-2.1592a23.76236,23.76236,0,0,0,5.10161-2.8203,52.53038,52.53038,0,0,0-5.91021-1.9209l1.5293-2.7598a55.24092,55.24092,0,0,1,6.6895,2.1602,25.59852,25.59852,0,0,0,3.5722-4.1104l2.5196,2.0108a19.06,19.06,0,0,1-3.1211,3.6298A22.39416,22.39416,0,0,1,1286.247,240.23729Zm.3593,10.9199-2.5195,1.9805a27.86135,27.86135,0,0,0-5.039-3.0908,32.44946,32.44946,0,0,1-5.7618,3.0908l-2.27929-1.8008a29.67754,29.67754,0,0,0,5.55079-3.1797,30.49713,30.49713,0,0,0-5.1015-2.3398l2.25-1.8906a37.42307,37.42307,0,0,1,5.2793,2.3105,25.56621,25.56621,0,0,0,3.3906-2.8799l2.7597,1.4102a15.05494,15.05494,0,0,1-3.41989,3.2695A22.27952,22.27952,0,0,1,1286.6063,251.15719Z" fill="#333e48"/><path d="M1387.93355,282.50779h-54.59962v-3.8691h25.4394v-14.0713h-18.3301v-3.8701h18.3301V248.457h-13.58978a31.93163,31.93163,0,0,1-8.22072,11.7901l-3.959-2.0703a33.14593,33.14593,0,0,0,10.9492-22.2598l4.0508,1.1699a45.01343,45.01343,0,0,1-1.4121,7.5606h12.123v-13.1407h4.0489v13.0801h21.1796v3.8701h-21.1796v12.1807h18.0605v3.8691h-18.0605v14.0713h25.16992Z" fill="#333e48"/><path d="M1470.51068,245.33689l-2.1582,3.1201q-10.23045-2.51955-16.0215-5.8193v2.6992h-20.2812v-2.9697a60.77546,60.77546,0,0,1-15.7188,5.9101l-1.9804-3.1503q16.8603-4.11045,28.08-13.7403l3.68952,1.2305a5.13574,5.13574,0,0,1-1.04882,1.0498Q1455.02918,241.94774,1470.51068,245.33689Zm-6.3887,17.1914h-43.5605V248.457h43.5605Zm-3.5703,23.0391h-3.6914V283.168h-28.9804v2.3994h-3.6895v-19.8897h36.3613Zm-20.0117-26.2803v-7.5h-16.289v7.5Zm16.3203,13.5606v-3.8702h-28.9804v3.8702Zm0,7.08V275.998h-28.9804v3.9297Zm-20.3105-23.6103-3.0899,2.1601a21.60421,21.60421,0,0,0-5.4589-4.1699l3.11912-1.7998A15.41166,15.41166,0,0,1,1436.54978,256.31739Zm14.5508-14.3096a37.812,37.812,0,0,1-8.4297-6.1514,46.117,46.117,0,0,1-9.75,6.1514Zm9.33,17.2793v-7.5h-16.1992v7.5Zm-3.6289-5.7295a14.30439,14.30439,0,0,1-5.3418,4.7998l-3.29878-1.6494a15.58151,15.58151,0,0,0,5.40038-4.4404Z" fill="#333e48"/><rect x="1633.96867" y="222.21139" width="3" height="264.2383" fill="#333e48"/></g></svg>