<svg xmlns="http://www.w3.org/2000/svg" xmlns:xlink="http://www.w3.org/1999/xlink" viewBox="0 0 2893.9746 708.6611"><defs><clipPath id="a"><rect width="2893.9746" height="708.6611" fill="none"/></clipPath></defs><g clip-path="url(#a)"><path d="M1090.6738,341.4921a13.675,13.675,0,0,1,13.6767,13.6758c0-.2793-.0097-.5586-.0097-.8379,0-102.3105,82.9346-185.248,185.248-185.248a13.6748,13.6748,0,0,0,0-27.3496A212.44721,212.44721,0,0,0,1076.9882,354.33c0,.2793.0108.5586.0108.8379A13.67525,13.67525,0,0,1,1090.6738,341.4921Z" fill="#5a5c66"/><path d="M1275.913,553.2539a13.676,13.676,0,0,1,13.6758-13.6758c-102.0302,0-184.7851-82.4863-185.2383-184.4102a13.67575,13.67575,0,1,0-27.3515,0,212.4318,212.4318,0,0,0,212.5898,211.7617A13.676,13.676,0,0,1,1275.913,553.2539Z" fill="#858591"/><path d="M1437.7861,487.4023a13.67676,13.67676,0,0,0-19.3399,0,184.62983,184.62983,0,0,1-128.8574,52.1758,13.67575,13.67575,0,1,0,0,27.3515,211.90008,211.90008,0,0,0,148.1973-60.1855A13.672,13.672,0,0,0,1437.7861,487.4023Z" fill="#9f9ea7"/><path d="M1402.1709,241.748a159.2204,159.2204,0,1,0,46.6308,112.582A158.16046,158.16046,0,0,0,1402.1709,241.748Z" fill="#9f9ea7"/><path d="M1177.3818,405.8203V302.8418h22.332v7.6132h-12.9433v87.752h12.9433v7.6133Z" fill="#333e48"/><path d="M1401.7978,302.8418V405.8203h-22.3301V398.207h12.9395V310.455h-12.9395v-7.6132Z" fill="#333e48"/><path d="M1229.2509,375.25q0,3.0849.0938,7.2714.09525,4.18365.2598,8.4961.1611,4.3125.3867,8.2383.2241,3.9288.5449,6.5645h-13.1914V333.0898q0-9.39555-.3223-17.0215-.3207-7.62885-.9668-13.2265h13.1953Z" fill="#fff"/><path d="M1286.8545,340.1699v8.4336h-12.1006v48.7871h12.1006v8.4297h-36.0411v-8.4297h11.9063V348.6035h-11.9063v-8.4336Z" fill="#fff"/><path d="M1313.8877,340.1699a22.16176,22.16176,0,0,1,.7705,2.6738c.2627,1.0938.4931,2.2402.7099,3.4414q.31935,1.8018.5801,3.541l.5107,2.8926q6.18315-7.33305,12.4229-10.584a27.83056,27.83056,0,0,1,13.0039-3.25,22.82647,22.82647,0,0,1,9.1055,1.7032,16.06,16.06,0,0,1,6.664,5.4062,26.45429,26.45429,0,0,1,4.085,9.5918,62.7544,62.7544,0,0,1,1.3848,14.1934v28.9589a71.971,71.971,0,0,1-1.9004,18.0547,30.95558,30.95558,0,0,1-5.3076,11.461,18.67236,18.67236,0,0,1-8.2081,6.0468,30.51944,30.51944,0,0,1-10.6503,1.7715,23.04256,23.04256,0,0,1-6.212-.9336,23.55754,23.55754,0,0,1-6.0175-2.6074l4.1836-9.6543a12.92326,12.92326,0,0,0,3.9589,1.836,17.65848,17.65848,0,0,0,5.0489.7382,14.53038,14.53038,0,0,0,5.5381-.998,9.21122,9.21122,0,0,0,4.1503-3.5059,19.19336,19.19336,0,0,0,2.6084-6.8867,56.877,56.877,0,0,0,.9004-11.1348V374.6054a78.428,78.428,0,0,0-.8047-12.5195,21.57142,21.57142,0,0,0-2.416-7.4648,8.00556,8.00556,0,0,0-4.0224-3.5743,16.11756,16.11756,0,0,0-5.6299-.9004,15.08479,15.08479,0,0,0-6.7861,1.6446,24.971,24.971,0,0,0-6.087,4.2461,31.51456,31.51456,0,0,0-4.8906,5.8886,27.175,27.175,0,0,0-3.1562,6.5645v37.3301h-11.9043V366.2382a100.48238,100.48238,0,0,0-1.0957-16.123,82.00826,82.00826,0,0,0-2.125-9.9453Z" fill="#fff"/><text transform="translate(1561.92183 573.78023)" font-size="59.99992" fill="#333e48" font-family="FiraSans-Bold, Fira Sans" font-weight="700">Se<tspan x="67.55859" y="0" letter-spacing="-0.00698em">s</tspan><tspan x="95.93945" y="0">sion 2020–2021</tspan></text><text transform="translate(214.89644 584.52926)" font-size="60" fill="#333e48" font-family="SourceHanSansHC-Medium-B5pc-H, Source Han Sans HC"><tspan letter-spacing="0.1007em">二零二零至二零二一年</tspan><tspan x="660.41797" y="0">度</tspan></text><path d="M196.7246,379.6269H141.7324V370.498h54.9922Zm-7.1563,97.2051h-9.4209V466.8261H158.164V476.832h-9.5674V427.4629h40.9717Zm-.4385-78.3633-40.3867.1465v-9.1289h40.3867Zm.1465,19.1348H148.7431v-9.1289h40.5332Zm-1.8261-56.5274-37.0997.1465v-9.1289h37.0997Zm-7.3028,96.7676V436.4453H158.0185v21.3984ZM274.5039,417.75l-78.9473.1445v-8.9824h19.5723l4.2363-22.5664H201.1074v-8.9825h19.7187l3.1397-16.7246H195.9951v-9.1289h72.5205v8.9824H233.8242l-2.9932,16.7247h30.0899l-3.1407,31.5488h16.7237Zm-12.708,59.375H252.375v-9.8594H215.4209v9.8594h-9.5664V427.6093h55.9414Zm-9.4209-18.8438V436.5918H215.2754v21.6894Zm-1.46-72.082H229.2236l-4.2354,22.7129h23.6631Z" fill="#333e48"/><path d="M439.1757,379.6269H306.4043V370.498H439.1757Zm-19.5722,18.6953H324.6601v-8.8359h94.9434Zm0,18.9883H324.6601v-8.8359h94.9434Zm-3.4336,59.8145H406.75V466.8261H338.2461V477.125h-9.4219V427.4629h87.3457Zm-.1445-116.9981-86.4708.2188v-8.836h86.4708ZM406.75,457.8437V436.4453H338.2461v21.3984Z" fill="#333e48"/><path d="M603.8486,450.6875h-58.79v10.1504q0,16.2861-17.3116,16.2871h-9.7129l-3.5781-8.9825H528.04q7.15725,0,7.1582-6.5742V450.6875h-64.123v-9.1289h64.123v-6.2813q15.2607-5.6982,21.8359-10.6621H501.0898v-8.4004H573.249v7.9609a223.64828,223.64828,0,0,1-28.1904,15.8477v1.5352h58.79Zm-6.1348-27.0957h-8.7656V408.4746H486.9248v15.9941h-9.5694V399.9296H489.917V355.3789q10.36815-1.01955,22.7148-9.8575l4.8203,6.7188q-6.6504,6.1347-18.1142,9.2754v6.1348h18.6962v7.5957H499.3379v7.9589h18.6962v7.4493H499.3379v9.2753h77.6337v-9.2753H559.1513v-7.3028h17.8203v-8.5449H559.2978v-7.4492h17.6738v-7.961H556.3037v-8.8359H586.247v49.2227h11.4668Zm-41.4101-56.6719-5.1123,6.2793a77.83863,77.83863,0,0,0-11.3194-8.6895,87.43724,87.43724,0,0,1-13.2929,9.1289l-5.9893-5.2597a57.80956,57.80956,0,0,0,12.416-6.8633,126.9366,126.9366,0,0,0-14.3877-4.6738l3.7266-6.7207a134.89057,134.89057,0,0,1,16.2851,5.2578,62.17329,62.17329,0,0,0,8.6905-10.0039l6.1357,4.8925a46.37087,46.37087,0,0,1-7.5957,8.8379A54.46212,54.46212,0,0,1,556.3037,366.9199Zm.875,26.582-6.1328,4.8203a67.66515,67.66515,0,0,0-12.2696-7.5215q-3.94335,2.99415-14.0224,7.5215l-5.5498-4.3808q9.41895-4.4532,13.5117-7.7422a74.3014,74.3014,0,0,0-12.416-5.6973l5.4765-4.5996a91.23034,91.23034,0,0,1,12.8535,5.6231q2.0421-1.1661,8.252-7.0118l6.7187,3.4336a36.64285,36.64285,0,0,1-8.3242,7.961A54.27889,54.27889,0,0,1,557.1787,393.5019Z" fill="#333e48"/><path d="M768.373,450.6875H709.582v10.1504q0,16.2861-17.3086,16.2871h-9.7129l-3.5781-8.9825h13.584q7.15425,0,7.1562-6.5742V450.6875H635.6015v-9.1289h64.1211v-6.2813q15.2637-5.6982,21.8379-10.6621H665.6171v-8.4004h72.1563v7.9609a223.38332,223.38332,0,0,1-28.1914,15.8477v1.5352h58.791Zm-6.1328-27.0957h-8.7676V408.4746H651.4492v15.9941h-9.5664V399.9296h12.5605V355.3789q10.37115-1.01955,22.7129-9.8575l4.8203,6.7188q-6.64455,6.1347-18.1133,9.2754v6.1348h18.6973v7.5957H663.8632v7.9589h18.6973v7.4493H663.8632v9.2753h77.6329v-9.2753H723.6777v-7.3028h17.8184v-8.5449H723.8222v-7.4492h17.6739v-7.961h-20.668v-8.8359h29.9433v49.2227h11.4688Zm-38.8106-31.7286-6.6542,6.084c-3.0372-4.5625-7.3829-10.2754-11.586-13.8242q-9.7998,10.919-16.1055,13.8945L682.5,392.4882q7.4238-3.5331,16.1074-13.2031-9.876-6.15225-14.0762-7.6055l5.7442-5.9414q3.50085,1.38285,13.166,7.1895a41.81253,41.81253,0,0,0,4.4804-10.3008H685.9316v-8.6387h11.7891v-8.8964h7.5664v8.8964h13.9922v8.6387h-2.7696a55.02326,55.02326,0,0,1-6.2754,14.8633C715.3242,381.3593,720.2089,387.2558,723.4296,391.8632Z" fill="#333e48"/><path d="M935.3086,379.3359l-5.2579,7.5937q-24.90525-6.1347-38.998-14.1679v6.5742H841.6816v-7.2324q-21.3252,11.03025-38.2695,14.3886l-4.8184-7.6679q41.042-10.00485,68.3574-33.4492l8.9825,2.9941a12.4127,12.4127,0,0,1-2.5567,2.5547Q897.62305,371.0829,935.3086,379.3359Zm-15.5567,41.8457H813.7109v-34.252h106.041Zm-8.6894,56.0879H902.08v-5.8418H831.5312v5.8418h-8.9824V428.8496h88.5137Zm-48.7129-63.9746V395.0371H822.6933v18.2578ZM902.08,446.3046v-9.4199H831.5312v9.4199Zm0,17.2364v-9.5684H831.5312v9.5684Zm-49.4433-57.4766-7.5215,5.2578a52.55426,52.55426,0,0,0-13.293-10.1504l7.5957-4.3828A37.5797,37.5797,0,0,1,852.6367,406.0644Zm35.4219-34.8359a92.072,92.072,0,0,1-20.5235-14.9727,112.08019,112.08019,0,0,1-23.7344,14.9727Zm22.7128,42.0664V395.0371H871.3339v18.2578Zm-8.8378-13.9492q-4.30965,6.86415-13,11.6855l-8.0332-4.0176q9.56835-5.40225,13.1445-10.8086Z" fill="#333e48"/><path d="M197.413,260.2402l-2.789,3.2109q-12.5406-4.4091-23.8809-15.541l.0606,11.7305h14.0097v25.8008h-3.8105v-3.4493H156.7334v3.4493h-3.9317V259.6406H166.872V247.9101q-6.17865,9.4512-22.3203,14.791l-2.8193-3.1797q14.3085-3.7821,20.459-11.6113H145.1211v-3.75H166.872v-5.789q-7.16895.7206-18,1.0488l-2.58-3.6289q25.59075-.0909,40.8613-4.291l2.8799,2.8808a132.89845,132.89845,0,0,1-19.2295,3.5098v6.2695h22.0498v3.75l-17.1905-.0586A63.95474,63.95474,0,0,0,197.413,260.2402Zm-16.4101,8.4316v-5.2812H156.6728v5.2812Zm0,9.6289v-5.9394H156.6728v5.9394Z" fill="#333e48"/><path d="M233.50371,263q-3.78225,11.7333-9.9004,19.2324l3.5098,2.2207a57.24509,57.24509,0,0,0,10.0215-19.2305Zm-6.3301-16.6485-2.5215,3.1504a22.19215,22.19215,0,0,1,9.4532,7.3184l2.6367-3.5684Q233.62336,249.0801,227.17361,246.3515Zm2.9385-13.4394-2.8193,2.8789a18.1136,18.1136,0,0,1,9.0918,6.959l2.8183-3.0293A18.39051,18.39051,0,0,0,230.11211,232.9121Z" fill="#333e48"/><path d="M269.324,272.123V260.8105a34.81626,34.81626,0,0,0,7.6817,5.5215l2.4599-3.332a25.7539,25.7539,0,0,1-12.2412-10.6192h10.2578v-3.6894h-9.8076v-7.17h7.4092V237.83h-7.4092v-6.3281h-3.8125v6.3887h-11.1279v-6.3887h-3.8125v6.3887h-7.378V241.58h7.4405v7.17h-9.7813v3.6914h9.9004q-3.328,6.24015-12.0293,10.3789l2.8184,3.3301a37.63619,37.63619,0,0,0,4.7402-3.2383v16.08q0,5.15925,5.1602,5.1602h19.6504a4.78986,4.78986,0,0,0,3.7949-1.5898q1.3974-1.5909,2.1758-6.2696l-3.8692-1.7402q-.39255,3.75-1.1406,4.7988a2.3476,2.3476,0,0,1-2.0107,1.0508h-18.2998a1.45774,1.45774,0,0,1-1.6485-1.6523v-6.627Zm-16.5898-30.6016h11.1894v7.17h-11.1894Zm.3584,10.8594h10.2002a24.92585,24.92585,0,0,0,4.4404,6.8125h-19.0498A21.158,21.158,0,0,0,253.09261,252.3808Zm-4.6475,10.5h17.0694v5.6113h-17.0694Z" fill="#333e48"/><path d="M361.09676,282.4414l-2.789,3.1191q-18.753-10.2276-23.8223-34.4687-6.26955,24.62985-25.5586,34.4687l-3.0312-3.5684q19.1103-9.30165,24.2109-30.8417h-20.4004v-3.8692h20.8496a153.5572,153.5572,0,0,0,.4805-15.7812l4.1699.6015q.1494,9.1788-.3594,15.1192h22.7403v3.8711h-18.9297Q342.255,271.6406,361.09676,282.4414Z" fill="#333e48"/><path d="M442.72847,274.6406h-24.1504v4.1719q0,6.68835-7.1113,6.6894h-3.9902l-1.4688-3.6894h5.5801q2.9385,0,2.9394-2.7012v-4.4707h-26.3398v-3.75h26.3398v-2.5801a37.51684,37.51684,0,0,0,8.9707-4.3789h-22.9804v-3.4512h29.6406V263.75a91.83144,91.83144,0,0,1-11.5801,6.5117v.6289h24.1504Zm-2.5195-11.1289h-3.5996v-6.211h-41.9121v6.5704h-3.9297V253.791h5.1601V235.4902q4.25985-.41895,9.3301-4.0488l1.9785,2.7597a17.6551,17.6551,0,0,1-7.4394,3.8106v2.5195h7.6797v3.1192h-7.6797v3.2714h7.6797v3.0586h-7.6797v3.8106h31.8906v-3.8106h-7.3203v-3h7.3203v-3.5097h-7.2598v-3.0606h7.2598v-3.2695h-8.4902v-3.6289H435.498v20.2187h4.711Zm-17.0117-23.2813-2.0996,2.5801a31.99849,31.99849,0,0,0-4.6504-3.5703,35.70731,35.70731,0,0,1-5.459,3.75l-2.461-2.1582a23.79235,23.79235,0,0,0,5.0997-2.8203,52.65324,52.65324,0,0,0-5.9102-1.9219l1.5312-2.7598a55.63473,55.63473,0,0,1,6.6895,2.1602,25.5345,25.5345,0,0,0,3.5703-4.1094l2.5195,2.0098a19.016,19.016,0,0,1-3.1191,3.6308A22.436,22.436,0,0,1,423.19727,240.2304Zm.3613,10.92-2.5215,1.9804a27.71585,27.71585,0,0,0-5.0391-3.0898,32.42379,32.42379,0,0,1-5.7597,3.0898L407.957,251.33a29.62736,29.62736,0,0,0,5.5508-3.1796,30.61767,30.61767,0,0,0-5.0996-2.3399l2.2481-1.8906a37.45456,37.45456,0,0,1,5.2812,2.3105,25.60452,25.60452,0,0,0,3.3906-2.8789l2.7598,1.4102a15.0785,15.0785,0,0,1-3.4199,3.2695A22.31989,22.31989,0,0,1,423.55857,251.1504Z" fill="#333e48"/><path d="M525.47,281.6308l-2.6406,3.5117q-15.27105-4.5-24.7793-12.1211-8.19435,6.6915-25.7422,12.3614l-2.9385-3.5703q16.9791-4.711,25.6807-11.4317a40.8637,40.8637,0,0,1-11.7314-20.0703,33.05533,33.05533,0,0,1-4.4405,7.9199l-3.1777-2.9082a39.66678,39.66678,0,0,0,6.0879-9.8711h-10.3213v-3.6894h24.0635V231.5h3.8691v10.2011h24.4805v3.6895h-10.2608q-2.70105,15.6621-12.4209,24.9297Q510.04912,277.0409,525.47,281.6308Zm-15.8711-36.2402h-23.2187q2.3964,13.8897,11.7285,22.3515Q507.22887,259.25195,509.59892,245.3906Z" fill="#333e48"/><path d="M606.65148,274.6406h-24.1523v4.1719q0,6.68835-7.1094,6.6894h-3.9902l-1.4688-3.6894h5.5782q2.94135,0,2.9414-2.7012v-4.4707h-26.3389v-3.75h26.3389v-2.5801a37.45726,37.45726,0,0,0,8.9687-4.3789h-22.9804v-3.4512h29.6406V263.75a91.69661,91.69661,0,0,1-11.5801,6.5117v.6289h24.1523Zm-2.5195-11.1289h-3.6015v-6.211h-41.9122v6.5704h-3.9296V253.791h5.1601V235.4902q4.25985-.41895,9.332-4.0488l1.9786,2.7597a17.66425,17.66425,0,0,1-7.4414,3.8106v2.5195h7.6816v3.1192H563.718v3.2714h7.6816v3.0586H563.718v3.8106h31.8925v-3.8106h-7.3222v-3h7.3222v-3.5097h-7.2597v-3.0606h7.2597v-3.2695h-8.4902v-3.6289h12.2988v20.2187h4.7129Zm-17.0117-23.2813-2.1016,2.5801a31.95591,31.95591,0,0,0-4.6484-3.5703,35.82087,35.82087,0,0,1-5.4609,3.75l-2.459-2.1582a23.84235,23.84235,0,0,0,5.0996-2.8203,52.90509,52.90509,0,0,0-5.9102-1.9219l1.5313-2.7598a55.63906,55.63906,0,0,1,6.6894,2.1602,25.41967,25.41967,0,0,0,3.5684-4.1094l2.5215,2.0098a19.0884,19.0884,0,0,1-3.1192,3.6308A22.43291,22.43291,0,0,1,587.12028,240.2304Zm.3594,10.92-2.5196,1.9804a27.72973,27.72973,0,0,0-5.041-3.0898,32.42751,32.42751,0,0,1-5.7597,3.0898l-2.2813-1.8008a29.49675,29.49675,0,0,0,5.5508-3.1796,30.53987,30.53987,0,0,0-5.0996-2.3399l2.25-1.8906a37.55245,37.55245,0,0,1,5.2812,2.3105,25.50184,25.50184,0,0,0,3.3887-2.8789l2.7598,1.4102a15.071,15.071,0,0,1-3.418,3.2695A22.35418,22.35418,0,0,1,587.47968,251.1504Z" fill="#333e48"/><path d="M646.17618,251.9004q6.0615,6.8115,6.0625,13.291a7.31035,7.31035,0,0,1-1.6367,5.0097,5.76448,5.76448,0,0,1-4.5742,1.8614,23.70855,23.70855,0,0,1-3.9004-.3907l-1.1094-3.9902a21.66532,21.66532,0,0,0,4.6192.8105,3.05227,3.05227,0,0,0,2.1308-.9003,3.13263,3.13263,0,0,0,.961-2.4004,14.37274,14.37274,0,0,0-1.6504-5.7598,22.92983,22.92983,0,0,0-4.9512-6.6895l5.8516-15.0312h-8.9102v47.791h-3.9316V233.9004h16.83v3.8105Zm41.3731,22.5917a20.73664,20.73664,0,0,1-2.1016,7.0489,4.62194,4.62194,0,0,1-4.2891,2.1914H676.479q-4.68165,0-4.6797-4.9199V262.9414h-6.3321q-.17865,9.6591-3.7636,14.4746-3.586,4.81635-13.3067,8.0859l-2.5195-3.4512q9.02925-2.66895,12.3906-6.9003,3.36045-4.2276,3.3906-12.1485h-8.2207v-3.9316h32.1329v3.8711h-10.0235v14.9414a2.29085,2.29085,0,0,0,.4805,1.3945,1.39889,1.39889,0,0,0,1.1406.6445h3.8106q1.169,0,1.7851-1.9199a30.59177,30.59177,0,0,0,1.0352-4.9805Zm-3.4512-27.2109-3.8086.0606v-5.2813h-22.6211v5.2813h-3.8711V238.25h13.1699v-6.8086h3.9317v6.75h13.1992Zm-5.0391,5.7891h-20.2812v-3.9297H679.059Z" fill="#333e48"/><path d="M770.57649,274.6406h-24.1524v4.1719q0,6.68835-7.1094,6.6894h-3.9902l-1.4707-3.6894h5.5801q2.94135,0,2.9414-2.7012v-4.4707h-26.3418v-3.75h26.3418v-2.5801a37.45726,37.45726,0,0,0,8.9687-4.3789h-22.9804v-3.4512h29.6406V263.75a91.68953,91.68953,0,0,1-11.5801,6.5117v.6289h24.1524Zm-2.5215-11.1289h-3.5996v-6.211h-41.9102v6.5704h-3.9316V253.791h5.1621V235.4902q4.25685-.41895,9.3281-4.0488l1.9805,2.7597a17.66767,17.66767,0,0,1-7.4395,3.8106v2.5195h7.6797v3.1192h-7.6797v3.2714h7.6797v3.0586h-7.6797v3.8106h31.8906v-3.8106h-7.3203v-3h7.3203v-3.5097h-7.2597v-3.0606h7.2597v-3.2695h-8.4902v-3.6289H763.344v20.2187h4.711Zm-17.0098-23.2813-2.1016,2.5801a31.99139,31.99139,0,0,0-4.6503-3.5703,35.70731,35.70731,0,0,1-5.459,3.75l-2.461-2.1582a23.76228,23.76228,0,0,0,5.1016-2.8203,52.77886,52.77886,0,0,0-5.9102-1.9219l1.5293-2.7598a55.41731,55.41731,0,0,1,6.6895,2.1602,25.55634,25.55634,0,0,0,3.5723-4.1094l2.5195,2.0098a19.03383,19.03383,0,0,1-3.1211,3.6308A22.38148,22.38148,0,0,1,751.04519,240.2304Zm.3594,10.92-2.5195,1.9804a27.85293,27.85293,0,0,0-5.0391-3.0898,32.46029,32.46029,0,0,1-5.7617,3.0898L735.805,251.33a29.62736,29.62736,0,0,0,5.5508-3.1796,30.653,30.653,0,0,0-5.1016-2.3399l2.25-1.8906a37.42307,37.42307,0,0,1,5.2793,2.3105,25.61129,25.61129,0,0,0,3.3906-2.8789l2.7598,1.4102a15.0785,15.0785,0,0,1-3.4199,3.2695A22.27309,22.27309,0,0,1,751.40459,251.1504Z" fill="#333e48"/><path d="M852.73159,282.5019H798.132v-3.8691h25.4395V264.5605h-18.3301v-3.8691h18.3301V248.4511h-13.5899a31.927,31.927,0,0,1-8.2207,11.7891l-3.959-2.0703a33.14172,33.14172,0,0,0,10.9492-22.2598l4.0508,1.1699a44.97505,44.97505,0,0,1-1.4121,7.5606h12.1231V231.5h4.0488v13.08h21.1797v3.8711h-21.1797v12.1797h18.0605V264.5h-18.0605v14.0722h25.1699Z" fill="#333e48"/><path d="M935.3086,245.33l-2.1582,3.1211q-10.2306-2.51955-16.0215-5.8203V245.33H896.8476v-2.9687a60.81161,60.81161,0,0,1-15.7187,5.9101l-1.9805-3.1503q16.8603-4.11045,28.0801-13.7403l3.6894,1.2305a5.12593,5.12593,0,0,1-1.0488,1.0488Q919.82715,241.94235,935.3086,245.33Zm-6.3887,17.1914H885.3593V248.4511h43.5606Zm-3.5703,23.0391h-3.6914v-2.3984H892.6777v2.3984h-3.6895V265.6718h36.3614Zm-20.0117-26.2793v-7.5H889.0488v7.5Zm16.3203,13.5606v-3.8711H892.6777v3.8711Zm0,7.08v-3.9297H892.6777v3.9297Zm-20.3106-23.6113-3.0898,2.1602a21.60514,21.60514,0,0,0-5.459-4.17l3.1191-1.7988A15.41036,15.41036,0,0,1,901.3476,256.3105Zm14.5508-14.3086a37.78874,37.78874,0,0,1-8.4297-6.1523,46.15771,46.15771,0,0,1-9.75,6.1523Zm9.3301,17.2793v-7.5H909.0293v7.5Zm-3.6289-5.7305a14.29977,14.29977,0,0,1-5.3418,4.8008l-3.2989-1.6504a15.58854,15.58854,0,0,0,5.4004-4.4394Z" fill="#333e48"/><path d="M1561.9218,336.8339V236.3623h12.0909v89.8193h42.7509v10.6523Z" fill="#333e48"/><path d="M1638.6425,245.1425q-3.747,0-5.3984-1.7988a6.63481,6.63481,0,0,1-1.6562-4.6787v-1.8711a6.64323,6.64323,0,0,1,1.6562-4.6787q1.6524-1.7973,5.3984-1.7988,3.7398,0,5.3965,1.7988a6.64269,6.64269,0,0,1,1.6553,4.6787v1.8711a6.63427,6.63427,0,0,1-1.6553,4.6787Q1642.38375,245.1455,1638.6425,245.1425Zm-5.7588,17.418h11.5157v74.2734h-11.5157Z" fill="#333e48"/><path d="M1668.8691,336.8339V262.5605h11.5156v11.9531h.5762a24.20225,24.20225,0,0,1,7.7002-9.9746q4.96725-3.70455,13.3135-3.707,11.51655,0,18.2099,7.4131,6.69285,7.415,6.6934,20.9443v47.6445h-11.5147V291.1054q0-20.05365-16.8418-20.0527a25.88735,25.88735,0,0,0-6.6933.8652,19.46064,19.46064,0,0,0-5.8301,2.5977,12.83763,12.83763,0,0,0-4.1016,4.3994,12.518,12.518,0,0,0-1.5117,6.2744v51.6445Z" fill="#333e48"/><path d="M1809.6425,334.3867q0,15.3999-8.6367,24.1816-8.6352,8.78025-24.3242,8.7813a39.36758,39.36758,0,0,1-15.6191-2.8184,31.88921,31.88921,0,0,1-10.8672-7.4473l6.7656-7.9521a26.13437,26.13437,0,0,0,8.6367,5.9268,28.98335,28.98335,0,0,0,11.3711,2.0703q10.0737,0,15.6172-5.5635,5.5401-5.57085,5.542-16.4111V324.8798h-.5752a24.44853,24.44853,0,0,1-8.6367,10.2598,23.74911,23.74911,0,0,1-13.0996,3.4209,28.24947,28.24947,0,0,1-12.5235-2.7344,26.54932,26.54932,0,0,1-9.5-7.7724,37.42564,37.42564,0,0,1-6.0449-12.2354,61.29233,61.29233,0,0,1,0-32.2431,37.45442,37.45442,0,0,1,6.0449-12.2354,26.58094,26.58094,0,0,1,9.5-7.7725,28.23758,28.23758,0,0,1,12.5235-2.7353,25.28784,25.28784,0,0,1,13.3154,3.3496,20.90393,20.90393,0,0,1,8.4209,10.332h.5752V262.5605h11.5146Zm-30.3711-6.0459a25.95793,25.95793,0,0,0,7.3418-1.0127,17.79724,17.79724,0,0,0,5.9727-2.9658,14.84752,14.84752,0,0,0,4.0312-4.7725,13.74354,13.74354,0,0,0,1.5108-6.583V285.375a11.90729,11.90729,0,0,0-1.4404-5.7159,13.49222,13.49222,0,0,0-4.0293-4.5556,20.8458,20.8458,0,0,0-6.045-2.9649,24.33041,24.33041,0,0,0-7.3418-1.0859q-9.791,0-15.5449,6.2207-5.7597,6.22125-5.7578,16.0586v12.7295q0,9.8379,5.7578,16.0586Q1769.4805,328.3412,1779.2714,328.3408Z" fill="#333e48"/><path d="M1879.8847,324.8798h-.5761a35.34306,35.34306,0,0,1-2.8067,5.0606,18.89814,18.89814,0,0,1-4.1015,4.417,19.23594,19.23594,0,0,1-5.9024,3.0635,25.76506,25.76506,0,0,1-8.0605,1.1396q-11.5167,0-18.2813-7.4131-6.766-7.4106-6.7637-20.9424V262.5605h11.5147V308.288q0,20.0523,16.9853,20.0528a25.7318,25.7318,0,0,0,6.6934-.8662,18.475,18.475,0,0,0,5.7578-2.5948,13.11068,13.11068,0,0,0,4.0293-4.3994,12.83078,12.83078,0,0,0,1.5117-6.4218V262.5605h11.5157v74.2734h-11.5157Z" fill="#333e48"/><path d="M1921.6269,245.1425q-3.74415,0-5.3974-1.7988a6.62978,6.62978,0,0,1-1.6553-4.6787v-1.8711a6.63818,6.63818,0,0,1,1.6553-4.6787q1.65375-1.7973,5.3974-1.7988,3.7413,0,5.3985,1.7988a6.65106,6.65106,0,0,1,1.6542,4.6787v1.8711a6.64262,6.64262,0,0,1-1.6542,4.6787Q1925.36865,245.1455,1921.6269,245.1425Zm-5.7578,17.418h11.5156v74.2734h-11.5156Z" fill="#333e48"/><path d="M1974.166,338.5605q-10.3638,0-17.3457-3.958a39.424,39.424,0,0,1-12.0186-10.5801l8.2041-6.6211a32.24323,32.24323,0,0,0,9.6446,8.4199,25.103,25.103,0,0,0,12.3789,2.9522q7.34175,0,11.4433-3.167a11.50393,11.50393,0,0,0,1.2959-16.3379q-2.80815-3.09375-10.1474-4.2461l-5.9024-.8642a49.13329,49.13329,0,0,1-9.5-2.2305,26.38649,26.38649,0,0,1-7.5566-4.0303,17.29174,17.29174,0,0,1-5.0381-6.2617,20.37987,20.37987,0,0,1-1.7998-8.9238,21.44417,21.44417,0,0,1,2.0156-9.5733,19.28116,19.28116,0,0,1,5.542-6.8359,24.21439,24.21439,0,0,1,8.4199-4.1025,38.91989,38.91989,0,0,1,10.5088-1.3682q9.06735,0,15.1856,3.167a34.10207,34.10207,0,0,1,10.7236,8.7803l-7.6299,6.9091a22.89622,22.89622,0,0,0-7.1973-6.2607,23.172,23.172,0,0,0-11.9463-2.8076q-7.1997,0-10.8681,3.0947a10.44207,10.44207,0,0,0-3.6699,8.4209q0,5.4726,3.6699,7.917,3.67095,2.4492,10.5801,3.5986l5.7578.8633q12.37785,1.87215,17.5605,7.125,5.18265,5.25735,5.1817,13.7461,0,10.796-7.3399,16.9854Q1986.97655,338.563,1974.166,338.5605Z" fill="#333e48"/><path d="M2037.3574,336.8339q-6.044,0-9.1397-3.374a12.55337,12.55337,0,0,1-3.0947-8.8349V272.7793h-12.2353V262.5605h6.9091q3.7413,0,5.1104-1.5127,1.36665-1.5102,1.3672-5.2529V241.9755h10.3642v20.585h16.2657v10.2188h-16.2657v53.8349h15.1133v10.2197Z" fill="#333e48"/><path d="M2077.2295,245.1425q-3.74415,0-5.3975-1.7988a6.62589,6.62589,0,0,1-1.6563-4.6787v-1.8711a6.63428,6.63428,0,0,1,1.6563-4.6787q1.6524-1.7973,5.3975-1.7988,3.74265,0,5.3974,1.7988a6.64735,6.64735,0,0,1,1.6563,4.6787v1.8711a6.63892,6.63892,0,0,1-1.6563,4.6787Q2080.97165,245.1455,2077.2295,245.1425Zm-5.7569,17.418h11.5147v74.2734h-11.5147Z" fill="#333e48"/><path d="M2135.0937,338.5605a34.22738,34.22738,0,0,1-13.9619-2.7344,28.4819,28.4819,0,0,1-10.4356-7.7724,34.58811,34.58811,0,0,1-6.4775-12.2354,59.37671,59.37671,0,0,1,0-32.2431,34.61312,34.61312,0,0,1,6.4775-12.2354,28.51537,28.51537,0,0,1,10.4356-7.7725,34.21268,34.21268,0,0,1,13.9619-2.7353q11.083,0,17.7774,4.8223a29.43635,29.43635,0,0,1,10.0039,12.5947l-9.6446,4.8945a17.48973,17.48973,0,0,0-6.6211-8.9248,19.87558,19.87558,0,0,0-11.5156-3.166,23.04241,23.04241,0,0,0-9.0683,1.6543,17.72287,17.72287,0,0,0-6.4766,4.6074,19.36062,19.36062,0,0,0-3.8867,7.0527,29.76528,29.76528,0,0,0-1.2959,8.9952v12.667q0,9.791,5.2549,16.0507,5.25,6.26085,15.4726,6.2608,13.96005,0,20.1524-12.9551L2163.5937,321a29.48256,29.48256,0,0,1-10.7226,12.8105Q2145.7461,338.561,2135.0937,338.5605Z" fill="#333e48"/><path d="M2202.1699,338.5605q-10.3653,0-17.3457-3.958a39.40883,39.40883,0,0,1-12.0176-10.5801l8.2031-6.6211a32.24323,32.24323,0,0,0,9.6446,8.4199,25.103,25.103,0,0,0,12.3789,2.9522q7.34175,0,11.4433-3.167a11.50254,11.50254,0,0,0,1.2949-16.3379q-2.8065-3.09375-10.1464-4.2461l-5.9024-.8642a49.13329,49.13329,0,0,1-9.5-2.2305,26.38649,26.38649,0,0,1-7.5566-4.0303,17.29436,17.29436,0,0,1-5.0391-6.2617,20.39427,20.39427,0,0,1-1.7988-8.9238,21.44417,21.44417,0,0,1,2.0156-9.5733,19.27043,19.27043,0,0,1,5.542-6.8359,24.21072,24.21072,0,0,1,8.4209-4.1025,38.90241,38.90241,0,0,1,10.5078-1.3682q9.06735,0,15.1856,3.167a34.11676,34.11676,0,0,1,10.7246,8.7803l-7.6309,6.9091a22.89622,22.89622,0,0,0-7.1973-6.2607,23.17189,23.17189,0,0,0-11.9462-2.8076q-7.1997,0-10.8682,3.0947a10.44207,10.44207,0,0,0-3.6699,8.4209q0,5.4726,3.6699,7.917,3.671,2.4492,10.5801,3.5986l5.7578.8633q12.37785,1.87215,17.5605,7.125,5.18265,5.25735,5.1817,13.7461,0,10.796-7.3399,16.9854Q2214.98045,338.563,2202.1699,338.5605Z" fill="#333e48"/><path d="M2313.292,338.5605q-12.23595,0-20.8721-4.6777A44.27849,44.27849,0,0,1,2277.7382,321l8.9239-7.4854a39.10521,39.10521,0,0,0,11.8037,10.7236,30.43291,30.43291,0,0,0,15.2588,3.6709q10.79445,0,16.4804-5.1816,5.68365-5.18265,5.6856-13.8193,0-7.19535-4.3184-11.0821-4.31835-3.8877-14.25-6.1904l-8.2051-1.8711q-13.8192-3.16545-21.0869-9.5713-7.2699-6.40425-7.2705-18.0664a27.30874,27.30874,0,0,1,2.4483-11.8027,23.66948,23.66948,0,0,1,6.8369-8.6358,30.85112,30.85112,0,0,1,10.5078-5.2539,47.57569,47.57569,0,0,1,13.459-1.7998q11.36715,0,19.5039,4.1748a37.5717,37.5717,0,0,1,13.7461,12.2354l-9.0684,6.6211a31.31317,31.31317,0,0,0-10.0752-9.0684q-5.90475-3.3105-14.6826-3.3105-9.64455,0-15.1855,4.1015-5.5431,4.1031-5.542,12.3067,0,7.2012,4.6787,10.8681,4.6758,3.66945,14.1777,5.8301l8.2051,1.8711q14.8242,3.312,21.4473,10.0752,6.61815,6.76755,6.6211,17.9932a31.8319,31.8319,0,0,1-2.375,12.5234,25.69,25.69,0,0,1-6.8379,9.5,31.78512,31.78512,0,0,1-10.8672,6.0459A45.15492,45.15492,0,0,1,2313.292,338.5605Z" fill="#333e48"/><path d="M2395.625,338.5605a33.48829,33.48829,0,0,1-13.6739-2.7344,29.4417,29.4417,0,0,1-10.58-7.8457,36.91178,36.91178,0,0,1-6.837-12.2343,53.63855,53.63855,0,0,1,0-32.0274,36.83305,36.83305,0,0,1,6.837-12.3066,29.48576,29.48576,0,0,1,10.58-7.8448,33.47386,33.47386,0,0,1,13.6739-2.7353,32.99239,32.99239,0,0,1,13.6035,2.7353,30.372,30.372,0,0,1,10.5801,7.8448,36.2329,36.2329,0,0,1,6.9082,12.3066,53.61763,53.61763,0,0,1,0,32.0274,36.3075,36.3075,0,0,1-6.9082,12.2343,30.325,30.325,0,0,1-10.5801,7.8457A33.00656,33.00656,0,0,1,2395.625,338.5605Zm0-10.2197q9.35595,0,15.2587-5.7578,5.9004-5.75535,5.9014-17.5606V294.3711q0-11.8008-5.9014-17.5616-5.90475-5.75535-15.2587-5.7568-9.35745,0-15.2569,5.7568-5.90475,5.75835-5.9013,17.5616v10.6513q0,11.80515,5.9013,17.5606Q2386.2685,328.3427,2395.625,328.3408Z" fill="#333e48"/><path d="M2475.8007,338.5605a34.23475,34.23475,0,0,1-13.9628-2.7344,28.49761,28.49761,0,0,1-10.4356-7.7724,34.6027,34.6027,0,0,1-6.4766-12.2354,59.32807,59.32807,0,0,1,0-32.2431,34.62774,34.62774,0,0,1,6.4766-12.2354,28.53112,28.53112,0,0,1,10.4356-7.7725,34.22,34.22,0,0,1,13.9628-2.7353q11.08305,0,17.7774,4.8223a29.43635,29.43635,0,0,1,10.0039,12.5947l-9.6445,4.8945a17.50071,17.50071,0,0,0-6.6211-8.9248,19.87613,19.87613,0,0,0-11.5157-3.166,23.03618,23.03618,0,0,0-9.0683,1.6543,17.72287,17.72287,0,0,0-6.4766,4.6074,19.36062,19.36062,0,0,0-3.8867,7.0527,29.76486,29.76486,0,0,0-1.2969,8.9952v12.667q0,9.791,5.2539,16.0507,5.2545,6.26085,15.4746,6.2608,13.96005,0,20.1524-12.9551L2504.3017,321a29.49143,29.49143,0,0,1-10.7236,12.8105Q2486.4531,338.561,2475.8007,338.5605Z" fill="#333e48"/><path d="M2526.3232,245.1425q-3.74565,0-5.3975-1.7988a6.62568,6.62568,0,0,1-1.6552-4.6787v-1.8711a6.63407,6.63407,0,0,1,1.6552-4.6787q1.6524-1.7973,5.3975-1.7988,3.74115,0,5.3975,1.7988a6.64774,6.64774,0,0,1,1.6562,4.6787v1.8711a6.63931,6.63931,0,0,1-1.6562,4.6787Q2530.0653,245.1455,2526.3232,245.1425Zm-5.7578,17.418h11.5156v74.2734h-11.5156Z" fill="#333e48"/><path d="M2584.4746,338.5605a33.347,33.347,0,0,1-13.7451-2.7344,29.58072,29.58072,0,0,1-10.5069-7.8457,35.94046,35.94046,0,0,1-6.7666-12.2343,55.19655,55.19655,0,0,1,0-32.0274,35.87657,35.87657,0,0,1,6.7666-12.3066,29.6255,29.6255,0,0,1,10.5069-7.8448,33.33269,33.33269,0,0,1,13.7451-2.7353,31.56673,31.56673,0,0,1,13.3877,2.7266,29.672,29.672,0,0,1,10.0761,7.5312,33.56984,33.56984,0,0,1,6.4053,11.4033,45.01766,45.01766,0,0,1,2.2315,14.4864v5.4521h-53.4034v3.4551a25.39808,25.39808,0,0,0,1.5118,8.8515,21.0229,21.0229,0,0,0,4.3183,7.125,19.73432,19.73432,0,0,0,6.9082,4.751,23.73434,23.73434,0,0,0,9.2852,1.7266,22.5974,22.5974,0,0,0,12.3076-3.3106,21.71851,21.71851,0,0,0,8.1318-9.5l8.2051,5.9395a28.673,28.673,0,0,1-11.2275,12.3838A33.863,33.863,0,0,1,2584.4746,338.5605Zm0-68.084a21.9249,21.9249,0,0,0-8.6348,1.6465,19.41509,19.41509,0,0,0-6.6934,4.6484,21.80183,21.80183,0,0,0-4.3906,7.0811,24.4774,24.4774,0,0,0-1.584,8.9414v1.001h41.0235v-1.5742q0-9.87165-5.3975-15.8067Q2593.3999,270.477,2584.4746,270.4765Z" fill="#333e48"/><path d="M2651.9843,336.8339q-6.0468,0-9.1406-3.374a12.55337,12.55337,0,0,1-3.0947-8.8349V272.7793h-12.2354V262.5605h6.9082q3.7428,0,5.1114-1.5127,1.36515-1.5102,1.3672-5.2529V241.9755h10.3632v20.585h16.2657v10.2188h-16.2657v53.8349h15.1133v10.2197Z" fill="#333e48"/><path d="M2731.8711,262.5605h11.372l-33.251,91.5459a40.59513,40.59513,0,0,1-2.5917,5.542,10.79926,10.79926,0,0,1-3.1661,3.5264,12.57245,12.57245,0,0,1-4.6777,1.8711,34.80282,34.80282,0,0,1-6.8379.5761h-5.9023V355.4023h11.6601l5.6133-15.8086-27.7803-77.0332h11.5147l17.8496,50.4258,3.4551,12.0683h.7187l4.0313-12.0683Z" fill="#333e48"/><path d="M1582.0498,477.7519l-3.6104-11.4765h-15.9902l-3.5459,11.4765h-8.6406l15.0878-45.0039h10.5743l14.958,45.0039Zm-11.4776-37.2656h-.3213l-5.7382,18.5039h11.8623Z" fill="#333e48"/><path d="M1627.375,477.7519l-3.6094-11.4765h-15.9912l-3.5459,11.4765h-8.6406l15.0878-45.0039H1621.25l14.958,45.0039Zm-11.4766-37.2656h-.3223l-5.7382,18.5039h11.8632Z" fill="#333e48"/><path d="M1671.4121,458.7324h-18.7627v19.0195h-8.5108V432.748h8.5108v18.4395h18.7627V432.748h8.5097v45.0039h-8.5097Z" fill="#333e48"/><path d="M1706.2929,457.3789l-5.9961,7.0918v13.2812h-8.5107V432.748h8.5107v22.1797h.3223l6.3828-8.4453,11.1543-13.7344h9.8008l-15.668,18.7617,16.9571,26.2422H1719.124Z" fill="#333e48"/><path d="M1744.8496,432.748v27.6602q0,5.2881,2.0312,7.9316,2.03025,2.64255,6.8662,2.6426,4.83555,0,6.8672-2.6426,2.03025-2.64555,2.0303-7.9316V432.748h8.3809v26.5645a34.528,34.528,0,0,1-.9336,8.5742,14.6123,14.6123,0,0,1-2.9981,5.998,12.09763,12.09763,0,0,1-5.3848,3.5137,25.16089,25.16089,0,0,1-8.0253,1.127,24.78977,24.78977,0,0,1-8.0284-1.127,12.113,12.113,0,0,1-5.3193-3.5137,14.27924,14.27924,0,0,1-2.9658-5.998,35.648,35.648,0,0,1-.9024-8.5742V432.748Z" fill="#333e48"/></g></svg>