<svg xmlns="http://www.w3.org/2000/svg" xmlns:xlink="http://www.w3.org/1999/xlink" viewBox="0 0 633.1904 695.5176"><defs><clipPath id="a"><rect width="633.1904" height="695.5176" fill="none"/></clipPath></defs><g clip-path="url(#a)"><text transform="translate(97.55955 624.71042)" font-size="42" fill="#fff" font-family="SourceHanSansHC-Medium-B5pc-H, Source Han Sans HC"><tspan letter-spacing="0.00658em">二零二零至二零二一年</tspan><tspan x="422.76465" y="0">度</tspan></text><path d="M79.2217,135.7871A105.34231,105.34231,0,0,0,71.1367,169.5a10.38084,10.38084,0,0,1,13.6768.4785A92.63178,92.63178,0,0,1,177.164,84.542a6.8379,6.8379,0,1,0,0-13.6758,106.40628,106.40628,0,0,0-97.9423,64.9209Z" fill="#fff"/><path d="M169.5937,269.4863A92.63014,92.63014,0,0,1,84.543,177.5869a6.8379,6.8379,0,0,0-13.6758,0A106.216,106.216,0,0,0,169.0508,283.167a10.37879,10.37879,0,0,1,.5429-13.6807Z" fill="#fff"/><path d="M251.2656,243.707a6.83717,6.83717,0,0,0-9.6699,0,92.32139,92.32139,0,0,1-64.4317,26.0889,6.8379,6.8379,0,0,0,0,13.6758,105.94977,105.94977,0,0,0,74.1016-30.0938A6.83591,6.83591,0,0,0,251.2656,243.707Z" fill="#fff"/><path d="M177.164,283.4717a6.8379,6.8379,0,0,1,0-13.6758,92.32139,92.32139,0,0,0,64.4317-26.0889,6.838,6.838,0,1,1,9.6699,9.6709,105.94977,105.94977,0,0,1-74.1016,30.0938Zm-41.3828-8.3594a106.209,106.209,0,0,1-64.914-97.5254,6.8379,6.8379,0,0,1,13.6758,0,92.63014,92.63014,0,0,0,85.0507,91.8994,10.37879,10.37879,0,0,0-.5429,13.6807A105.36951,105.36951,0,0,1,135.7812,275.1123ZM177.164,70.8662a6.8379,6.8379,0,1,1,0,13.6758,92.63178,92.63178,0,0,0-92.3505,85.4365A10.38084,10.38084,0,0,0,71.1367,169.5,106.21927,106.21927,0,0,1,177.164,70.8662Z" fill="#fff"/><path d="M233.459,120.876a79.61485,79.61485,0,1,0,23.3154,56.2929A79.08762,79.08762,0,0,0,233.459,120.876Z" fill="#fff"/><path d="M121.0586,202.914V151.4248h11.1679v3.8056h-6.4726v43.878h6.4726v3.8056Z" fill="#333e48"/><path d="M233.2715,151.4248V202.914h-11.166v-3.8056h6.4707v-43.878h-6.4707v-3.8056Z" fill="#333e48"/><path d="M146.9941,187.6289q0,1.54245.0479,3.6357.0483,2.0919.1299,4.2481.07905,2.15625.1933,4.1201.1113,1.9629.2725,3.2812H141.041V166.5478q0-4.6962-.1611-8.5107-.15975-3.8145-.4834-6.6123h6.5976Z" fill="#00c2f3"/><path d="M175.7978,170.0888v4.2168H169.748v24.3936h6.0498v4.2158H157.7773v-4.2158h5.9532V174.3056h-5.9532v-4.2168Z" fill="#00c2f3"/><path d="M189.3144,170.0888a11.23086,11.23086,0,0,1,.3868,1.337c.1298.5459.246,1.1201.3535,1.7207q.1596.90075.291,1.7705l.2558,1.4463a21.21975,21.21975,0,0,1,6.211-5.293,13.91509,13.91509,0,0,1,6.5019-1.625,11.41183,11.41183,0,0,1,4.5528.8525,8.02981,8.02981,0,0,1,3.332,2.7032,13.23465,13.23465,0,0,1,2.043,4.7958,31.41186,31.41186,0,0,1,.6914,7.0967V199.374a36.01877,36.01877,0,0,1-.9492,9.0273,15.47118,15.47118,0,0,1-2.6543,5.7305,9.33242,9.33242,0,0,1-4.1036,3.0234,15.28732,15.28732,0,0,1-5.3261.8858,11.51384,11.51384,0,0,1-3.1055-.4668,11.71651,11.71651,0,0,1-3.0098-1.3037l2.0918-4.8281a6.42325,6.42325,0,0,0,1.9805.9179,8.79415,8.79415,0,0,0,2.5244.3692,7.27793,7.27793,0,0,0,2.7705-.4981,4.61026,4.61026,0,0,0,2.0742-1.7529,9.605,9.605,0,0,0,1.3038-3.4443,28.429,28.429,0,0,0,.4502-5.5674V187.3066a39.30132,39.30132,0,0,0-.4024-6.2588,10.8151,10.8151,0,0,0-1.207-3.7343,4.01518,4.01518,0,0,0-2.0127-1.7872,8.06031,8.06031,0,0,0-2.8154-.4492,7.54669,7.54669,0,0,0-3.3936.8223,12.47827,12.47827,0,0,0-3.043,2.123,15.73217,15.73217,0,0,0-2.4443,2.9444,13.51315,13.51315,0,0,0-1.5781,3.2822v18.666h-5.9532V183.123a50.3581,50.3581,0,0,0-.5478-8.0615,41.1892,41.1892,0,0,0-1.0615-4.9727Z" fill="#00c2f3"/><path d="M129.7676,447.2724H97.5586v-5.3457h32.209Zm-4.1914,56.9317h-5.5196v-5.8614h-12.873v5.8614h-5.6035v-28.916h23.9961Zm-.2579-45.8946-23.6523.084v-5.3457h23.6523Zm.086,11.2051H101.666v-5.3457h23.7383Zm-1.0703-33.1054-21.7285.0859v-5.3477H124.334Zm-4.2774,56.6718V480.5498h-12.959V493.081Zm55.2617-23.4804-46.2363.0859v-5.2617h11.4629l2.4805-13.2168H132.334v-5.2598h11.5488l1.8379-9.7969H129.3398v-5.3457h42.4727v5.2618H151.4941l-1.7519,9.7949h17.6211l-1.8399,18.4765h9.7949Zm-7.4414,34.7734h-5.5175v-5.7734H140.7168v5.7734h-5.6035v-29h32.7636Zm-5.5175-11.0352V480.6357H140.6308v12.7031Zm-.8555-42.2168H148.8008l-2.4805,13.3028h13.8574Z" fill="#fff"/><path d="M271.7617,447.2724H194.0019v-5.3457h77.7598Zm-11.4629,10.9512H204.6953v-5.1758h55.6035Zm0,11.1191H204.6953v-5.1738h55.6035ZM258.289,504.374h-5.5175v-6.0313H212.6504v6.0313h-5.5176V475.2881H258.289Zm-.0859-68.5215-50.6426.1289v-5.1758h50.6426Zm-5.4316,57.2285V480.5498H212.6504V493.081Z" fill="#fff"/><path d="M368.2051,488.8916H333.7734v5.9453q0,9.5361-10.1387,9.5371h-5.6875l-2.0957-5.2598h7.9551q4.19235,0,4.1934-3.8496v-6.373H290.4453v-5.3477H328v-3.6777q8.9355-3.3369,12.7871-6.2442H308.0234v-4.9199h42.2617v4.6621a130.82914,130.82914,0,0,1-16.5117,9.2813v.8984h34.4317Zm-3.5918-15.8692h-5.1348v-8.8535h-59.752v9.3672H294.123V459.165h7.3575V433.0732q6.0702-.6006,13.3027-5.7754l2.8223,3.9356a25.14349,25.14349,0,0,1-10.6075,5.4316v3.5938h10.9492v4.4492H306.998v4.6621h10.9492v4.3613H306.998v5.4336h45.4668v-5.4336H342.0273v-4.2773h10.4375v-5.0039H342.1133v-4.3633h10.3515v-4.6621H340.3594V430.249h17.5371v28.8301h6.7168ZM340.3594,439.831l-2.9922,3.6778a45.884,45.884,0,0,0-6.6309-5.0899,51.21094,51.21094,0,0,1-7.7851,5.3477l-3.5079-3.0801a33.88543,33.88543,0,0,0,7.2735-4.0215,74.99317,74.99317,0,0,0-8.4278-2.7363l2.1817-3.9356a79.17758,79.17758,0,0,1,9.539,3.0801,36.53859,36.53859,0,0,0,5.0899-5.8594l3.5918,2.8653a27.08136,27.08136,0,0,1-4.4473,5.1758A31.92213,31.92213,0,0,1,340.3594,439.831Zm.5136,15.5684-3.5918,2.8242a39.641,39.641,0,0,0-7.1855-4.4062,46.30937,46.30937,0,0,1-8.2129,4.4062l-3.25-2.5664a42.3736,42.3736,0,0,0,7.9121-4.5352,43.52191,43.52191,0,0,0-7.2715-3.3359l3.2071-2.6934a53.235,53.235,0,0,1,7.5292,3.293,36.35154,36.35154,0,0,0,4.8321-4.1074l3.9355,2.0117a21.50862,21.50862,0,0,1-4.875,4.6621A31.88389,31.88389,0,0,1,340.873,455.3994Z" fill="#fff"/><path d="M464.5625,488.8916H430.1308v5.9453q0,9.5361-10.1367,9.5371h-5.6894l-2.0957-5.2598h7.955q4.1925,0,4.1915-3.8496v-6.373H386.8027v-5.3477h37.5528v-3.6777q8.94135-3.3369,12.791-6.2442H404.3808v-4.9199h42.2598v4.6621a130.65817,130.65817,0,0,1-16.5098,9.2813v.8984h34.4317Zm-3.5918-15.8692h-5.1348v-8.8535H396.084v9.3672h-5.6035V459.165h7.3574V433.0732q6.0732-.6006,13.3027-5.7754l2.8223,3.9356a25.13157,25.13157,0,0,1-10.6074,5.4316v3.5938h10.9492v4.4492H403.3555v4.6621h10.9492v4.3613H403.3555v5.4336h45.4667v-5.4336H438.3867v-4.2773h10.4355v-5.0039H438.4707v-4.3633h10.3515v-4.6621H436.7168V430.249h17.5371v28.8301h6.7168Zm-22.7305-18.582-3.8965,3.5625a41.32021,41.32021,0,0,0-6.7851-8.0957q-5.7393,6.39555-9.4336,8.1367l-3.8555-3.2383q4.34775-2.06835,9.4336-7.7324a49.68882,49.68882,0,0,0-8.2441-4.4551l3.3632-3.4785a66.20373,66.20373,0,0,1,7.711,4.211,24.46036,24.46036,0,0,0,2.625-6.0332H416.2793v-5.0606h6.9043v-5.209h4.4316v5.209h8.1953v5.0606h-1.623a32.19494,32.19494,0,0,1-3.6758,8.705A39.739,39.739,0,0,1,438.2402,454.4404Z" fill="#fff"/><path d="M562.3301,447.1025l-3.0782,4.4473q-14.5869-3.5919-22.8398-8.2969v3.8496h-28.916v-4.2344q-12.4893,6.457-22.4121,8.4258l-2.8223-4.4902q24.0351-5.85945,40.0352-19.5899l5.2597,1.752a7.30632,7.30632,0,0,1-1.498,1.498Q540.2588,442.2676,562.3301,447.1025Zm-9.1114,24.5078H491.1152V451.5498h62.1035Zm-5.0879,32.8496h-5.2617v-3.4218H501.5527v3.4218H496.291V476.1025h51.8398Zm-28.5293-37.4687V456.2978H496.375v10.6934Zm23.2676,19.334v-5.5176H501.5527v5.5176Zm0,10.0937v-5.6035H501.5527v5.6035Zm-28.957-33.6621-4.4043,3.0801a30.79432,30.79432,0,0,0-7.7852-5.9453l4.4473-2.5664A21.99383,21.99383,0,0,1,513.9121,462.7568Zm20.7461-20.4023a53.91941,53.91941,0,0,1-12.0195-8.7676,65.64869,65.64869,0,0,1-13.9004,8.7676Zm13.3027,24.6367V456.2978H524.8633v10.6934Zm-5.1777-8.1699a20.35365,20.35365,0,0,1-7.6133,6.8437l-4.7051-2.3515q5.6046-3.1641,7.6992-6.3321Z" fill="#fff"/><path d="M130.1699,377.3525l-1.6348,1.8809a38.21018,38.21018,0,0,1-13.9843-9.1016l.0351,6.8692h8.2051v15.1113h-2.2324v-2.0215H106.3437v2.0215H104.043V377.001h8.2402v-6.8692q-3.61815,5.53425-13.0723,8.6621l-1.6523-1.8633q8.38185-2.2119,11.9844-6.7988H99.5449v-2.1973h12.7383v-3.3906q-4.1982.42195-10.543.6153l-1.5097-2.125q14.9853-.0558,23.9296-2.5137l1.6875,1.6875a77.78381,77.78381,0,0,1-11.2617,2.0547v3.6718H127.5v2.1973l-10.0684-.0351A37.44773,37.44773,0,0,0,130.1699,377.3525Zm-9.6113,4.9375v-3.0918h-14.25V382.29Zm0,5.6406v-3.4785h-14.25v3.4785Z" fill="#fff"/><path d="M151.306,378.9697a34.296,34.296,0,0,1-5.7969,11.2637l2.0547,1.2988a33.50672,33.50672,0,0,0,5.8692-11.2617Zm-3.707-9.752-1.4766,1.8458a12.99636,12.99636,0,0,1,5.5352,4.2871l1.5449-2.0918A13.22248,13.22248,0,0,0,147.599,369.2177Zm1.7207-7.871-1.6504,1.6875a10.59283,10.59283,0,0,1,5.3242,4.0761l1.6504-1.7754A10.763,10.763,0,0,0,149.31968,361.3467Z" fill="#fff"/><path d="M172.28448,384.3115v-6.625a20.41755,20.41755,0,0,0,4.5,3.2344l1.4395-1.9512a15.09611,15.09611,0,0,1-7.168-6.2187h6.0078v-2.1622h-5.7441v-4.1992h4.3379v-2.1621h-4.3379v-3.7051h-2.2324v3.7403h-6.5176v-3.7403h-2.2324v3.7403H156.015v2.1601h4.3574v4.1992h-5.7285v2.1641h5.7988q-1.9482,3.6534-7.0449,6.0781l1.6504,1.9493a22.00032,22.00032,0,0,0,2.7754-1.8965v9.4179q0,3.02355,3.0234,3.0215h11.5079a2.80894,2.80894,0,0,0,2.2226-.9297,7.86232,7.86232,0,0,0,1.2734-3.6718l-2.2656-1.0196a6.91362,6.91362,0,0,1-.6679,2.8106,1.37588,1.37588,0,0,1-1.1758.6152h-10.7188a.85377.85377,0,0,1-.9668-.9668v-3.8828Zm-9.7148-17.9219h6.5527v4.1992h-6.5527Zm.209,6.3614h5.9746a14.59361,14.59361,0,0,0,2.5996,3.9882h-11.1563A12.37191,12.37191,0,0,0,162.77868,372.751Zm-2.7227,6.1484h9.9981v3.2851H160.056Z" fill="#fff"/><path d="M226.03381,390.3545l-1.6347,1.8281q-10.98045-5.99115-13.9512-20.1875-3.671,14.4258-14.9687,20.1875l-1.7754-2.0918q11.19135-5.44635,14.1797-18.0606h-11.9473v-2.2675h12.2109a89.80791,89.80791,0,0,0,.2813-9.2422l2.4414.3515q.0879,5.376-.211,8.8555h13.3184v2.2676h-11.0859Q214.99776,384.0302,226.03381,390.3545Z" fill="#fff"/><path d="M273.84273,385.7861h-14.1445v2.4434q0,3.917-4.1641,3.9179h-2.3379l-.8593-2.1601h3.2675q1.71975,0,1.7207-1.5821v-2.6191h-15.4257v-2.1953h15.4257v-1.5117a21.853,21.853,0,0,0,5.2539-2.5645h-13.4589v-2.0215h17.3593v1.9161a53.72672,53.72672,0,0,1-6.7812,3.8125v.3691h14.1445Zm-1.4765-6.5176h-2.1075v-3.6367h-24.5468v3.8477h-2.3008v-5.9043h3.0215V362.8584a11.64319,11.64319,0,0,0,5.4648-2.3731l1.1582,1.6172a10.32124,10.32124,0,0,1-4.3574,2.2305v1.4765h4.498v1.8282h-4.498v1.914h4.498v1.793h-4.498v2.2305h18.6777v-2.2305h-4.2871v-1.7578h4.2871v-2.0547H263.124v-1.793h4.2519v-1.914h-4.9726v-2.127h7.205V373.54h2.7579Zm-9.9629-13.6347-1.2305,1.5097a18.69235,18.69235,0,0,0-2.7227-2.0898,20.92556,20.92556,0,0,1-3.1972,2.1973l-1.4414-1.2657a13.8664,13.8664,0,0,0,2.9863-1.6523,31.33909,31.33909,0,0,0-3.4609-1.125l.8964-1.6153a32.23819,32.23819,0,0,1,3.918,1.2657,14.99958,14.99958,0,0,0,2.0918-2.4082l1.4766,1.1777a11.19458,11.19458,0,0,1-1.8282,2.127A13.02236,13.02236,0,0,1,262.40333,365.6338Zm.2109,6.3964-1.4746,1.1583a16.3546,16.3546,0,0,0-2.9531-1.8086,18.8675,18.8675,0,0,1-3.3731,1.8086l-1.3359-1.0547a17.28437,17.28437,0,0,0,3.2519-1.8614,17.80934,17.80934,0,0,0-2.9882-1.3711l1.3183-1.1074a21.98091,21.98091,0,0,1,3.0918,1.3535,14.9004,14.9004,0,0,0,1.9863-1.6855l1.6153.8262a8.81093,8.81093,0,0,1-2.002,1.914A13.06047,13.06047,0,0,1,262.61423,372.0302Z" fill="#fff"/><path d="M322.30111,389.8799l-1.5469,2.0566a41.9663,41.9663,0,0,1-14.5117-7.0977q-4.7988,3.9171-15.0762,7.2383l-1.7207-2.0898q9.94335-2.75985,15.0391-6.6953a23.92982,23.92982,0,0,1-6.8691-11.7539,19.40537,19.40537,0,0,1-2.6016,4.6386l-1.8613-1.705a23.18438,23.18438,0,0,0,3.5664-5.7813h-6.045v-2.1602h14.0938v-6.0097h2.2656v5.9746h14.336v2.1601h-6.0098q-1.579,9.173-7.2734,14.6016Q313.26881,387.19145,322.30111,389.8799Zm-9.2949-21.2247h-13.5977a22.1377,22.1377,0,0,0,6.8692,13.0899A22.46145,22.46145,0,0,0,313.00621,368.6552Z" fill="#fff"/><path d="M369.84734,385.7861h-14.1465v2.4434q0,3.917-4.1641,3.9179h-2.3359l-.8613-2.1601h3.2676q1.7226,0,1.7226-1.5821v-2.6191h-15.4258v-2.1953h15.4258v-1.5117a21.87312,21.87312,0,0,0,5.252-2.5645h-13.4571v-2.0215H362.484v1.9161a53.90026,53.90026,0,0,1-6.7832,3.8125v.3691h14.1465Zm-1.4766-6.5176h-2.1093v-3.6367h-24.5469v3.8477h-2.3008v-5.9043h3.0215V362.8584a11.64136,11.64136,0,0,0,5.4668-2.3731l1.1582,1.6172a10.33038,10.33038,0,0,1-4.3594,2.2305v1.4765h4.5v1.8282h-4.5v1.914h4.5v1.793h-4.5v2.2305h18.6797v-2.2305h-4.2891v-1.7578h4.2891v-2.0547h-4.252v-1.793h4.252v-1.914h-4.9727v-2.127h7.2032V373.54h2.7597Zm-9.9629-13.6347-1.2304,1.5097a18.9149,18.9149,0,0,0-2.7227-2.0898,21.04554,21.04554,0,0,1-3.1992,2.1973l-1.4395-1.2657a13.96118,13.96118,0,0,0,2.9864-1.6523,31.60764,31.60764,0,0,0-3.461-1.125l.8965-1.6153a32.46471,32.46471,0,0,1,3.918,1.2657,14.98262,14.98262,0,0,0,2.0898-2.4082l1.4766,1.1777a11.18026,11.18026,0,0,1-1.8262,2.127A13.08006,13.08006,0,0,1,358.40784,365.6338Zm.211,6.3964-1.4766,1.1583a16.34062,16.34062,0,0,0-2.9512-1.8086,18.90185,18.90185,0,0,1-3.375,1.8086l-1.3359-1.0547a17.22275,17.22275,0,0,0,3.252-1.8614,17.855,17.855,0,0,0-2.9864-1.3711l1.3164-1.1074a22.113,22.113,0,0,1,3.0938,1.3535,14.8058,14.8058,0,0,0,1.9844-1.6855l1.6171.8262a8.89132,8.89132,0,0,1-2.0019,1.914A13.15487,13.15487,0,0,1,358.61884,372.0302Z" fill="#fff"/><path d="M392.99507,372.4677q3.5508,3.9903,3.5508,7.7852a4.28658,4.28658,0,0,1-.959,2.9336,3.37607,3.37607,0,0,1-2.6797,1.0898,13.84754,13.84754,0,0,1-2.2832-.2285l-.6504-2.3379a12.6011,12.6011,0,0,0,2.7051.4746,1.78479,1.78479,0,0,0,1.2481-.5273,1.82893,1.82893,0,0,0,.5625-1.4043,8.44141,8.44141,0,0,0-.9649-3.375,13.46946,13.46946,0,0,0-2.9004-3.916l3.4258-8.8047H388.833v27.9902h-2.3027V361.9267h9.8554v2.2305Zm24.2305,13.2325a12.12859,12.12859,0,0,1-1.2305,4.1269,2.708,2.708,0,0,1-2.5117,1.2832h-2.7402q-2.7423,0-2.7422-2.8808v-9.295h-3.7071q-.10545,5.65725-2.205,8.4786-2.1006,2.81835-7.793,4.7343l-1.4766-2.0214q5.2881-1.56165,7.2578-4.0411,1.96875-2.4756,1.9844-7.1152h-4.8144V376.667h18.8203v2.2675h-5.8711v8.75a1.335,1.335,0,0,0,.2812.8165.81462.81462,0,0,0,.668.3789h2.2324q.68565,0,1.0449-1.125a17.90893,17.90893,0,0,0,.6075-2.9161Zm-2.0215-15.9375-2.2305.0351V366.706h-13.248v3.0918H397.458v-5.3242h7.7129v-3.9883h2.3027v3.9532h7.7305Zm-2.9512,3.3906H400.376v-2.3008h11.8769Z" fill="#fff"/><path d="M465.85189,385.7861h-14.1445v2.4434q0,3.917-4.1641,3.9179h-2.3359l-.8614-2.1601h3.2676q1.7226,0,1.7227-1.5821v-2.6191h-15.4278v-2.1953h15.4278v-1.5117a21.872,21.872,0,0,0,5.2519-2.5645h-13.459v-2.0215h17.3594v1.9161a53.73382,53.73382,0,0,1-6.7812,3.8125v.3691h14.1445Zm-1.4766-6.5176h-2.1074v-3.6367H437.723v3.8477h-2.3028v-5.9043h3.0235V362.8584a11.64575,11.64575,0,0,0,5.4629-2.3731l1.1601,1.6172a10.34486,10.34486,0,0,1-4.3574,2.2305v1.4765h4.4981v1.8282h-4.4981v1.914h4.4981v1.793h-4.4981v2.2305h18.6758v-2.2305H455.098v-1.7578h4.2871v-2.0547h-4.25v-1.793h4.25v-1.914h-4.9707v-2.127h7.2031V373.54h2.7578Zm-9.9609-13.6347-1.2324,1.5097a18.80854,18.80854,0,0,0-2.7227-2.0898,21.02568,21.02568,0,0,1-3.1973,2.1973l-1.4414-1.2657a13.92857,13.92857,0,0,0,2.9883-1.6523,31.61412,31.61412,0,0,0-3.4609-1.125l.8945-1.6153a32.24381,32.24381,0,0,1,3.918,1.2657,14.99958,14.99958,0,0,0,2.0918-2.4082l1.4765,1.1777a11.19026,11.19026,0,0,1-1.8281,2.127A13.03282,13.03282,0,0,1,454.41439,365.6338Zm.209,6.3964-1.4746,1.1583a16.41,16.41,0,0,0-2.9512-1.8086,18.97587,18.97587,0,0,1-3.375,1.8086l-1.334-1.0547a17.31865,17.31865,0,0,0,3.25-1.8614,17.80725,17.80725,0,0,0-2.9883-1.3711l1.3184-1.1074a21.98091,21.98091,0,0,1,3.0918,1.3535,14.9004,14.9004,0,0,0,1.9863-1.6855l1.6152.8262a8.81053,8.81053,0,0,1-2.0019,1.914A13.01844,13.01844,0,0,1,454.62339,372.0302Z" fill="#fff"/><path d="M513.96842,390.3896h-31.9786V388.124h14.9004v-8.2402h-10.7363v-2.2676h10.7363v-7.168h-7.9609a18.662,18.662,0,0,1-4.8145,6.9043l-2.3183-1.2129a19.41074,19.41074,0,0,0,6.414-13.0351l2.3711.6836a26.409,26.409,0,0,1-.8261,4.4296h7.0996v-7.6972h2.3711v7.6601h12.4043v2.2676h-12.4043v7.1328h10.5781v2.2676h-10.5781v8.2402h14.7422Z" fill="#fff"/><path d="M562.3301,368.6201l-1.2637,1.8281a37.48054,37.48054,0,0,1-9.3828-3.4082v1.5801H539.8047v-1.7383a35.64317,35.64317,0,0,1-9.2051,3.4609l-1.1602-1.8457a38.93879,38.93879,0,0,0,16.4453-8.0468l2.1622.7207a3.05173,3.05173,0,0,1-.6153.6152A34.39611,34.39611,0,0,0,562.3301,368.6201Zm-3.7403,10.0684H533.0781v-8.2403h25.5117Zm-2.0918,13.4941h-2.1621v-1.4063H537.3633v1.4063h-2.1602V380.5342H556.498ZM544.7773,376.79v-4.3926h-9.539V376.79Zm9.5586,7.9434v-2.2676H537.3633v2.2676Zm0,4.1465v-2.3028H537.3633v2.3028Zm-11.8945-13.8282-1.8106,1.2657a12.59693,12.59693,0,0,0-3.1972-2.4434l1.8281-1.0527A9.00252,9.00252,0,0,1,542.4414,375.0517Zm8.5215-8.3808a22.17,22.17,0,0,1-4.9375-3.6035,27.00564,27.00564,0,0,1-5.709,3.6035Zm5.4648,10.1191v-4.3926h-9.4883V376.79Zm-2.125-3.3555a8.38725,8.38725,0,0,1-3.1289,2.8125l-1.9316-.9668a9.12149,9.12149,0,0,0,3.1621-2.6015Z" fill="#fff"/></g></svg>