<svg xmlns="http://www.w3.org/2000/svg" xmlns:xlink="http://www.w3.org/1999/xlink" viewBox="0 0 2893.9736 708.6601"><defs><clipPath id="a"><rect width="2893.9736" height="708.6601" fill="none"/></clipPath></defs><g clip-path="url(#a)"><path d="M1090.6748,341.4912a13.67476,13.67476,0,0,1,13.6758,13.6758c0-.2793-.0098-.5586-.0098-.8379,0-102.3106,82.9356-185.2481,185.2481-185.2481a13.6748,13.6748,0,0,0,0-27.3496,212.44395,212.44395,0,0,0-212.5996,212.5977c0,.2793.0097.5586.0097.8379A13.676,13.676,0,0,1,1090.6748,341.4912Z" fill="#ee212e"/><path d="M1275.9131,553.2529a13.676,13.676,0,0,1,13.6758-13.6758c-102.0313,0-184.7852-82.4863-185.2383-184.4101a13.6758,13.6758,0,1,0-27.3516,0,212.43335,212.43335,0,0,0,212.5899,211.7617A13.676,13.676,0,0,1,1275.9131,553.2529Z" fill="#46bc96"/><path d="M1437.7861,487.4013a13.67664,13.67664,0,0,0-19.3398,0,184.63019,184.63019,0,0,1-128.8574,52.1758,13.6758,13.6758,0,1,0,0,27.3516,211.90025,211.90025,0,0,0,148.1972-60.1856A13.67182,13.67182,0,0,0,1437.7861,487.4013Z" fill="#00c2f3"/><path d="M1402.1709,241.747a159.22016,159.22016,0,1,0,46.6309,112.5821A158.16054,158.16054,0,0,0,1402.1709,241.747Z" fill="#00c2f3"/><path d="M1177.3818,405.8193V302.8408h22.3321v7.6133h-12.9434V398.206h12.9434v7.6133Z" fill="#333e48"/><path d="M1401.7979,302.8408V405.8193h-22.3301V398.206h12.9394V310.4541h-12.9394v-7.6133Z" fill="#333e48"/><path d="M1229.251,375.249q0,3.0849.0937,7.2715.09675,4.1835.2598,8.4961.1611,4.3125.3867,8.2382.22275,3.9288.5449,6.5645h-13.1914V333.0888q0-9.3954-.3222-17.0215-.32235-7.62885-.9668-13.2265h13.1953Z" fill="#fff"/><path d="M1286.8545,340.1689v8.4336h-12.0996v48.7871h12.0996v8.4297h-36.041v-8.4297h11.9062V348.6025h-11.9062v-8.4336Z" fill="#fff"/><path d="M1313.8877,340.1689a22.33113,22.33113,0,0,1,.7715,2.6738c.2617,1.0938.4922,2.2403.709,3.4414q.31935,1.8018.58,3.5411l.5118,2.8925q6.18165-7.3329,12.4218-10.584a27.83056,27.83056,0,0,1,13.0039-3.25,22.82786,22.82786,0,0,1,9.1055,1.7032,16.06094,16.06094,0,0,1,6.6641,5.4062,26.47185,26.47185,0,0,1,4.0859,9.5918,62.81263,62.81263,0,0,1,1.3848,14.1934v28.959a71.91468,71.91468,0,0,1-1.9024,18.0547,30.92229,30.92229,0,0,1-5.3066,11.4609,18.66472,18.66472,0,0,1-8.207,6.0469,30.53416,30.53416,0,0,1-10.6524,1.7714,23.038,23.038,0,0,1-6.2109-.9335,23.5534,23.5534,0,0,1-6.0176-2.6075l4.1836-9.6543a12.92046,12.92046,0,0,0,3.959,1.836,17.65739,17.65739,0,0,0,5.0488.7383,14.53921,14.53921,0,0,0,5.5391-.9981,9.2171,9.2171,0,0,0,4.1504-3.5059,19.21439,19.21439,0,0,0,2.6074-6.8867,56.88367,56.88367,0,0,0,.9004-11.1347V374.6045a78.44034,78.44034,0,0,0-.8047-12.5196,21.57565,21.57565,0,0,0-2.416-7.4648,7.99865,7.99865,0,0,0-4.0235-3.5742,16.10507,16.10507,0,0,0-5.6289-.9004,15.09216,15.09216,0,0,0-6.7871,1.6445,24.987,24.987,0,0,0-6.0859,4.2461,31.55005,31.55005,0,0,0-4.8906,5.8887,27.17494,27.17494,0,0,0-3.1563,6.5644v37.3301h-11.9043v-39.582a100.473,100.473,0,0,0-1.0957-16.1231,81.96935,81.96935,0,0,0-2.125-9.9453Z" fill="#fff"/><text transform="translate(1812.58692 573.77926)" font-size="59.99992" fill="#333e48" font-family="FiraSans-Bold, Fira Sans" font-weight="700">Se<tspan x="67.55859" y="0" letter-spacing="-0.00699em">s</tspan><tspan x="95.93896" y="0">sion 2020–2021</tspan></text><text transform="translate(214.89356 584.52926)" font-size="60" fill="#333e48" font-family="SourceHanSansHC-Medium-B5pc-H, Source Han Sans HC"><tspan letter-spacing="0.1007em">二零二零至二零二一年</tspan><tspan x="660.41895" y="0">度</tspan></text><path d="M196.7246,379.6201H141.7314v-9.1289h54.9932Zm-7.1572,97.2051h-9.4209V466.8193H158.1631v10.0059h-9.5674V427.456h40.9717Zm-.4385-78.3633-40.3867.1465v-9.1289h40.3867Zm.1465,19.1347H148.7422v-9.1289h40.5332Zm-1.8262-56.5273-37.0996.1465v-9.1289h37.0996Zm-7.3027,96.7676V436.4384H158.0176v21.3985Zm94.3564-40.0938-78.9472.1446v-8.9825h19.5722l4.2364-22.5664H201.1064v-8.9824h19.7188l3.1396-16.7246H195.9941v-9.1289h72.5206v8.9824H233.8242l-2.9941,16.7246h30.0898l-3.1406,31.5488h16.7236Zm-12.708,59.375H252.375v-9.8594H215.4199v9.8594h-9.5664V427.6025h55.9414Zm-9.4199-18.8437V436.5849H215.2744v21.6895Zm-1.4609-72.0821H229.2227l-4.2344,22.7129h23.6621Z" fill="#333e48"/><path d="M439.1748,379.6201H306.4033v-9.1289H439.1748Zm-19.5723,18.6953H324.6592v-8.8359h94.9433Zm0,18.9883H324.6592v-8.836h94.9433Zm-3.4336,59.8144H406.749V466.8193H338.2451v10.2988h-9.4219V427.456h87.3457Zm-.1445-116.998-86.4707.2187v-8.8359h86.4707Zm-9.2754,97.7168V436.4384H338.2451v21.3985Z" fill="#333e48"/><path d="M603.8477,450.6806H545.0566V460.831q0,16.2861-17.3105,16.2871h-9.7129l-3.5781-8.9824h13.584q7.15725,0,7.1582-6.5742V450.6806H471.0742v-9.1289h64.1231v-6.2812q15.2607-5.69835,21.8359-10.6621H501.0898V416.208h72.1583v7.9609a223.5397,223.5397,0,0,1-28.1915,15.8477v1.5351h58.7911Zm-6.1348-27.0957h-8.7656V408.4677H486.9238v15.9942h-9.5693V399.9228H489.916V355.372q10.36815-1.01955,22.7149-9.8574l4.8203,6.7188q-6.6504,6.1347-18.1133,9.2753v6.1348h18.6953v7.5957H499.3379v7.959h18.6953v7.4492H499.3379v9.2754h77.6328v-9.2754H559.1504v-7.3027h17.8203v-8.5449H559.2969v-7.4493h17.6738v-7.9609h-20.668v-8.8359h29.9434v49.2226h11.4668ZM556.3027,366.913l-5.1113,6.2793a77.958,77.958,0,0,0-11.3203-8.6894,87.4455,87.4455,0,0,1-13.293,9.1289l-5.9883-5.2598a57.85422,57.85422,0,0,0,12.4161-6.8633,127.01258,127.01258,0,0,0-14.3887-4.6738l3.7266-6.7207a134.926,134.926,0,0,1,16.2851,5.2578,62.23128,62.23128,0,0,0,8.6914-10.0039l6.1348,4.8926a46.309,46.309,0,0,1-7.5957,8.8379A54.46091,54.46091,0,0,1,556.3027,366.913Zm.875,26.5821-6.1328,4.8203a67.661,67.661,0,0,0-12.2695-7.5215q-3.94335,2.99415-14.0215,7.5215l-5.5508-4.3809q9.41895-4.45305,13.5117-7.7422a74.2987,74.2987,0,0,0-12.416-5.6972l5.4766-4.5996a91.18458,91.18458,0,0,1,12.8535,5.623q2.04195-1.166,8.252-7.0117l6.7187,3.4336a36.64019,36.64019,0,0,1-8.3242,7.9609A54.27657,54.27657,0,0,1,557.1777,393.4951Z" fill="#333e48"/><path d="M768.3721,450.6806h-58.791V460.831q0,16.2861-17.3086,16.2871h-9.7129l-3.5782-8.9824h13.584q7.1544,0,7.1563-6.5742V450.6806H635.6006v-9.1289h64.1211v-6.2812q15.2637-5.69835,21.8379-10.6621H665.6162V416.208h72.1563v7.9609a223.40288,223.40288,0,0,1-28.1914,15.8477v1.5351h58.791Zm-6.1328-27.0957h-8.7676V408.4677H651.4482v15.9942h-9.5664V399.9228h12.5606V355.372q10.371-1.01955,22.7129-9.8574l4.8203,6.7188q-6.64455,6.1347-18.1133,9.2753v6.1348h18.6973v7.5957H663.8623v7.959h18.6973v7.4492H663.8623v9.2754h77.6328v-9.2754H723.6768v-7.3027h17.8183v-8.5449H723.8213v-7.4493h17.6738v-7.9609H720.8272v-8.8359h29.9433v49.2226h11.4688Zm-38.8106-31.7285-6.6543,6.084c-3.0371-4.5625-7.3828-10.2754-11.5859-13.8242q-9.7998,10.919-16.1055,13.8945l-6.584-5.5293q7.4238-3.53325,16.1074-13.2031-9.87585-6.1524-14.0761-7.6055l5.7441-5.9414q3.501,1.38285,13.166,7.1895a41.81275,41.81275,0,0,0,4.4805-10.3008H685.9307v-8.6387h11.789v-8.8965h7.5664v8.8965h13.9922v8.6387h-2.7695a55.02326,55.02326,0,0,1-6.2754,14.8633C715.3232,381.3525,720.208,387.249,723.4287,391.8564Z" fill="#333e48"/><path d="M935.3076,379.3291l-5.2578,7.5937q-24.90525-6.1347-38.998-14.168v6.5743H841.6807v-7.2325q-21.3252,11.0304-38.2696,14.3887l-4.8183-7.668q41.042-10.00485,68.3574-33.4492l8.9824,2.9942a12.41268,12.41268,0,0,1-2.5566,2.5547Q897.622,371.0761,935.3076,379.3291ZM919.751,421.1748H813.71v-34.252H919.751Zm-8.6895,56.0879h-8.9824v-5.8418H831.5303v5.8418h-8.9824v-48.42h88.5136ZM862.3486,413.288V395.0302H822.6924V413.288Zm39.7305,33.0098v-9.4199H831.5303v9.4199Zm0,17.2363v-9.5683H831.5303v9.5683Zm-49.4434-57.4765-7.5214,5.2578a52.556,52.556,0,0,0-13.293-10.1504l7.5957-4.3828A37.57841,37.57841,0,0,1,852.6357,406.0576Zm35.4219-34.836a92.07643,92.07643,0,0,1-20.5234-14.9726,112.08237,112.08237,0,0,1-23.7344,14.9726Zm22.7129,42.0664V395.0302H871.333V413.288Zm-8.8379-13.9492q-4.3095,6.8643-13,11.6856l-8.0332-4.0176q9.56835-5.4024,13.1445-10.8086Z" fill="#333e48"/><path d="M197.4121,260.2334l-2.789,3.2109q-12.5406-4.40925-23.8809-15.541l.0605,11.7304h14.0098v25.8008H181.002v-3.4492H156.7324v3.4492h-3.9316V259.6337h14.0703V247.9033q-6.17865,9.4512-22.3203,14.791l-2.8194-3.1797q14.31015-3.78225,20.46-11.6113H145.1211v-3.75h21.75v-5.7891q-7.16895.72075-18,1.0488l-2.5801-3.6289q25.5909-.09075,40.8613-4.291l2.8799,2.8809a132.91022,132.91022,0,0,1-19.2295,3.5097v6.2696h22.0498v3.75l-17.1904-.0586A63.95639,63.95639,0,0,0,197.4121,260.2334ZM181.002,268.665v-5.2813H156.6719v5.2813Zm0,9.6289v-5.9394H156.6719v5.9394Z" fill="#333e48"/><path d="M233.50276,262.9931q-3.78225,11.73345-9.9004,19.2324l3.5098,2.2207a57.24165,57.24165,0,0,0,10.0214-19.2304Zm-6.3301-16.6484-2.5215,3.1504a22.191,22.191,0,0,1,9.4531,7.3183l2.6368-3.5683Q233.62376,249.07315,227.17266,246.3447Zm2.9385-13.4395-2.8194,2.8789a18.11331,18.11331,0,0,1,9.0918,6.959l2.8184-3.0293A18.38666,18.38666,0,0,0,230.11116,232.9052Z" fill="#333e48"/><path d="M269.32306,272.1162V260.8037a34.819,34.819,0,0,0,7.6816,5.5215l2.46-3.3321a25.75377,25.75377,0,0,1-12.2412-10.6191h10.2578v-3.6895h-9.8076v-7.1699h7.4092v-3.6914h-7.4092v-6.3281h-3.8115v6.3886h-11.129v-6.3886h-3.8125v6.3886h-7.3779v3.6895h7.4404v7.1699H239.202v3.6914h9.9004q-3.3282,6.2403-12.0293,10.3789l2.8183,3.3301a37.609,37.609,0,0,0,4.7403-3.2383v16.0801q0,5.15925,5.1601,5.1602h19.6504a4.79014,4.79014,0,0,0,3.795-1.5899q1.3974-1.59075,2.1757-6.2695l-3.8691-1.7402q-.39255,3.75-1.1406,4.7988a2.34727,2.34727,0,0,1-2.0098,1.0508h-18.3008a1.45774,1.45774,0,0,1-1.6484-1.6524v-6.6269Zm-16.5899-30.6016h11.1895v7.1699h-11.1895Zm.3584,10.8594h10.2002a24.93014,24.93014,0,0,0,4.4405,6.8125h-19.0498A21.14438,21.14438,0,0,0,253.09156,252.374Zm-4.6474,10.5h17.0693v5.6113h-17.0693Z" fill="#333e48"/><path d="M361.09586,282.4345l-2.7891,3.1192q-18.75285-10.2276-23.8222-34.4688-6.26955,24.62985-25.5586,34.4688l-3.0313-3.5684q19.11045-9.3018,24.211-30.8418h-20.4004v-3.8691h20.8496a153.55826,153.55826,0,0,0,.4805-15.7813l4.1699.6016q.1494,9.17865-.3594,15.1191h22.7402v3.8711h-18.9296Q342.25406,271.6337,361.09586,282.4345Z" fill="#333e48"/><path d="M442.72752,274.6337h-24.1504v4.1719q0,6.6885-7.1113,6.6895h-3.9903l-1.4687-3.6895h5.5801q2.93835,0,2.9394-2.7011v-4.4708h-26.3398v-3.75h26.3398v-2.58a37.52263,37.52263,0,0,0,8.9707-4.3789h-22.9805v-3.4512h29.6407v3.2695a91.83144,91.83144,0,0,1-11.5801,6.5117v.6289h24.1504Zm-2.5195-11.1289h-3.5997v-6.2109h-41.9121v6.5703h-3.9297V253.7841h5.1602V235.4834q4.2597-.41895,9.3301-4.0489l1.9785,2.7598a17.65544,17.65544,0,0,1-7.4395,3.8105v2.5196h7.6797v3.1191h-7.6797v3.2715h7.6797v3.0586h-7.6797v3.8105h31.8907v-3.8105h-7.3203v-3h7.3203v-3.5098h-7.2598v-3.0605h7.2598v-3.2696h-8.4903v-3.6289H435.497v20.2188h4.711Zm-17.0118-23.2812-2.0996,2.5801a31.98745,31.98745,0,0,0-4.6504-3.5703,35.69747,35.69747,0,0,1-5.459,3.75l-2.4609-2.1582a23.7917,23.7917,0,0,0,5.0996-2.8204,52.64207,52.64207,0,0,0-5.9101-1.9218l1.5312-2.7598a55.62264,55.62264,0,0,1,6.6895,2.1602,25.53946,25.53946,0,0,0,3.5703-4.1094l2.5195,2.0097a19.02,19.02,0,0,1-3.1191,3.6309A22.43236,22.43236,0,0,1,423.19622,240.2236Zm.3614,10.9199-2.5215,1.9805a27.72327,27.72327,0,0,0-5.0391-3.0899,32.42439,32.42439,0,0,1-5.7598,3.0899l-2.2812-1.8008a29.62094,29.62094,0,0,0,5.5508-3.1797,30.627,30.627,0,0,0-5.0996-2.3398l2.248-1.8907a37.46212,37.46212,0,0,1,5.2813,2.3106,25.61129,25.61129,0,0,0,3.3906-2.8789l2.7598,1.4101a15.07723,15.07723,0,0,1-3.42,3.2696A22.31752,22.31752,0,0,1,423.55762,251.1435Z" fill="#333e48"/><path d="M525.46957,281.624l-2.6406,3.5117q-15.26955-4.5-24.7793-12.1211-8.19435,6.69135-25.7422,12.3613l-2.9395-3.5703q16.98045-4.7109,25.6817-11.4316a40.86261,40.86261,0,0,1-11.7305-20.0703,33.09519,33.09519,0,0,1-4.4414,7.9199l-3.1777-2.9082a39.67153,39.67153,0,0,0,6.0879-9.8711h-10.3204v-3.6895h24.0625V231.4931h3.8692v10.2012h24.4804v3.6894H513.618q-2.6982,15.66225-12.4199,24.9297Q510.04867,277.03415,525.46957,281.624Zm-15.8711-36.2403h-23.2188q2.39655,13.8897,11.7286,22.3516Q507.22827,259.24515,509.59847,245.3837Z" fill="#333e48"/><path d="M606.65053,274.6337h-24.1523v4.1719q0,6.6885-7.1094,6.6895h-3.9902l-1.4688-3.6895h5.5781q2.9415,0,2.9414-2.7011v-4.4708h-26.3388v-3.75h26.3388v-2.58a37.46218,37.46218,0,0,0,8.9688-4.3789h-22.9805v-3.4512h29.6406v3.2695a91.68761,91.68761,0,0,1-11.58,6.5117v.6289h24.1523Zm-2.5195-11.1289h-3.6016v-6.2109h-41.9121v6.5703h-3.9297V253.7841h5.1602V235.4834q4.2597-.41895,9.332-4.0489l1.9785,2.7598a17.66356,17.66356,0,0,1-7.4414,3.8105v2.5196h7.6817v3.1191h-7.6817v3.2715h7.6817v3.0586h-7.6817v3.8105h31.8926v-3.8105h-7.3223v-3h7.3223v-3.5098h-7.2598v-3.0605h7.2598v-3.2696h-8.4902v-3.6289h12.2988v20.2188h4.7129Zm-17.0117-23.2812-2.1016,2.5801a31.96694,31.96694,0,0,0-4.6484-3.5703,35.817,35.817,0,0,1-5.461,3.75l-2.459-2.1582a23.84094,23.84094,0,0,0,5.0997-2.8204,52.91427,52.91427,0,0,0-5.9102-1.9218l1.5312-2.7598a55.6169,55.6169,0,0,1,6.6895,2.1602,25.4246,25.4246,0,0,0,3.5684-4.1094l2.5214,2.0097a19.08812,19.08812,0,0,1-3.1191,3.6309A22.436,22.436,0,0,1,587.11933,240.2236Zm.3593,10.9199-2.5195,1.9805a27.73374,27.73374,0,0,0-5.041-3.0899,32.42439,32.42439,0,0,1-5.7598,3.0899l-2.2812-1.8008a29.49372,29.49372,0,0,0,5.5508-3.1797,30.55485,30.55485,0,0,0-5.0997-2.3398l2.25-1.8907a37.56,37.56,0,0,1,5.2813,2.3106,25.50855,25.50855,0,0,0,3.3887-2.8789l2.7597,1.4101a15.06892,15.06892,0,0,1-3.4179,3.2696A22.3507,22.3507,0,0,1,587.47863,251.1435Z" fill="#333e48"/><path d="M646.17533,251.8935q6.0615,6.8115,6.0625,13.291a7.31062,7.31062,0,0,1-1.6367,5.0098,5.76474,5.76474,0,0,1-4.5742,1.8613,23.70714,23.70714,0,0,1-3.9004-.3906l-1.1094-3.9902a21.66568,21.66568,0,0,0,4.6191.8105,3.05261,3.05261,0,0,0,2.1309-.9004,3.13241,3.13241,0,0,0,.9609-2.4004,14.37236,14.37236,0,0,0-1.6504-5.7597,22.92629,22.92629,0,0,0-4.9511-6.6895l5.8515-15.0312h-8.9101v47.791h-3.9317V233.8935h16.8301v3.8106Zm41.373,22.5918a20.73627,20.73627,0,0,1-2.1015,7.0488,4.62185,4.62185,0,0,1-4.2891,2.1914H676.478q-4.68165,0-4.6797-4.9199V262.9345h-6.332q-.17865,9.65925-3.7637,14.4746-3.5859,4.8165-13.3066,8.086l-2.5195-3.4512q9.02925-2.669,12.3906-6.9004,3.3603-4.22745,3.3906-12.1484H653.437v-3.9317h32.1328v3.8711h-10.0234v14.9414a2.29029,2.29029,0,0,0,.4805,1.3946,1.39876,1.39876,0,0,0,1.1406.6445h3.8105q1.16895,0,1.7852-1.9199a30.58468,30.58468,0,0,0,1.0351-4.9805Zm-3.4511-27.2109-3.8086.0605v-5.2812h-22.6211v5.2812h-3.8711v-9.0918h13.1699v-6.8086h3.9316v6.75h13.1993Zm-5.0391,5.789h-20.2812v-3.9297h20.2812Z" fill="#333e48"/><path d="M770.57549,274.6337h-24.1523v4.1719q0,6.6885-7.1094,6.6895h-3.9902l-1.4707-3.6895h5.58q2.9415,0,2.9415-2.7011v-4.4708h-26.3418v-3.75h26.3418v-2.58a37.463,37.463,0,0,0,8.9687-4.3789h-22.9805v-3.4512h29.6407v3.2695a91.69661,91.69661,0,0,1-11.5801,6.5117v.6289h24.1523Zm-2.5215-11.1289h-3.5996v-6.2109h-41.9101v6.5703h-3.9317V253.7841h5.1621V235.4834q4.25685-.41895,9.3282-4.0489l1.9804,2.7598a17.66716,17.66716,0,0,1-7.4394,3.8105v2.5196h7.6797v3.1191h-7.6797v3.2715h7.6797v3.0586h-7.6797v3.8105h31.8906v-3.8105h-7.3203v-3h7.3203v-3.5098h-7.2598v-3.0605h7.2598v-3.2696h-8.4902v-3.6289h12.2988v20.2188h4.7109Zm-17.0097-23.2812-2.1016,2.5801a31.98745,31.98745,0,0,0-4.6504-3.5703,35.69747,35.69747,0,0,1-5.459,3.75l-2.4609-2.1582a23.76246,23.76246,0,0,0,5.1016-2.8204,52.77474,52.77474,0,0,0-5.9102-1.9218l1.5293-2.7598a55.39962,55.39962,0,0,1,6.6895,2.1602,25.55053,25.55053,0,0,0,3.5722-4.1094l2.5196,2.0097a19.03426,19.03426,0,0,1-3.1211,3.6309A22.38766,22.38766,0,0,1,751.04429,240.2236Zm.3594,10.9199-2.5196,1.9805a27.85625,27.85625,0,0,0-5.039-3.0899,32.46089,32.46089,0,0,1-5.7618,3.0899l-2.2793-1.8008a29.62094,29.62094,0,0,0,5.5508-3.1797,30.66062,30.66062,0,0,0-5.1015-2.3398l2.25-1.8907a37.4341,37.4341,0,0,1,5.2793,2.3106,25.61129,25.61129,0,0,0,3.3906-2.8789l2.7597,1.4101a15.07478,15.07478,0,0,1-3.4199,3.2696A22.27307,22.27307,0,0,1,751.40369,251.1435Z" fill="#333e48"/><path d="M852.73064,282.4951H798.131v-3.8692h25.4394V264.5537h-18.3301v-3.8692h18.3301V248.4443h-13.5898a31.92893,31.92893,0,0,1-8.2207,11.7891l-3.959-2.0704a33.14149,33.14149,0,0,0,10.9492-22.2597l4.0508,1.1699a44.99627,44.99627,0,0,1-1.4121,7.5605h12.123V231.4931h4.0489v13.0801h21.1796v3.8711h-21.1796V260.624h18.0605v3.8691h-18.0605v14.0723h25.1699Z" fill="#333e48"/><path d="M935.3076,245.3232l-2.1582,3.1211q-10.23045-2.51955-16.0215-5.8203v2.6992H896.8467v-2.9687a60.81214,60.81214,0,0,1-15.7188,5.9101l-1.9804-3.1504q16.8603-4.1103,28.08-13.7402l3.6895,1.2305a5.12593,5.12593,0,0,1-1.0488,1.0488Q919.8261,241.93555,935.3076,245.3232Zm-6.3887,17.1914H885.3584V248.4443h43.5605Zm-3.5703,23.0391h-3.6914v-2.3985H892.6768v2.3985h-3.6895V265.665h36.3613Zm-20.0117-26.2793v-7.5h-16.289v7.5Zm16.3203,13.5605v-3.8711H892.6768v3.8711Zm0,7.0801v-3.9297H892.6768v3.9297Zm-20.3105-23.6113-3.0899,2.1601a21.60246,21.60246,0,0,0-5.4589-4.1699l3.1191-1.7988A15.40908,15.40908,0,0,1,901.3467,256.3037Zm14.5508-14.3086a37.78931,37.78931,0,0,1-8.4297-6.1524,46.16061,46.16061,0,0,1-9.75,6.1524Zm9.33,17.2793v-7.5H909.0283v7.5Zm-3.6289-5.7305a14.29823,14.29823,0,0,1-5.3418,4.8008l-3.2988-1.6504a15.58959,15.58959,0,0,0,5.4004-4.4395Z" fill="#333e48"/><path d="M1561.9229,336.833V236.3613h12.0908v89.8193h42.751V336.833Z" fill="#333e48"/><path d="M1638.6426,245.1416q-3.74565,0-5.3975-1.7989a6.63031,6.63031,0,0,1-1.6562-4.6787v-1.8711a6.63872,6.63872,0,0,1,1.6562-4.6787q1.6524-1.7973,5.3975-1.7988,3.74115,0,5.3974,1.7988a6.64675,6.64675,0,0,1,1.6553,4.6787v1.8711a6.63832,6.63832,0,0,1-1.6553,4.6787Q1642.38475,245.1445,1638.6426,245.1416Zm-5.7578,17.4179h11.5156V336.833h-11.5156Z" fill="#333e48"/><path d="M1668.8701,336.833V262.5595h11.5156v11.9532h.5762a24.20275,24.20275,0,0,1,7.7002-9.9747q4.96725-3.70455,13.3145-3.707,11.515,0,18.209,7.4131,6.69285,7.4151,6.6933,20.9443V336.833h-11.5146V291.1045q0-20.0538-16.8418-20.0528a25.8876,25.8876,0,0,0-6.6934.8653,19.46916,19.46916,0,0,0-5.8301,2.5976,12.83733,12.83733,0,0,0-4.1015,4.3994,12.518,12.518,0,0,0-1.5118,6.2744V336.833Z" fill="#333e48"/><path d="M1809.6445,334.3857q0,15.3999-8.6367,24.1816-8.6367,8.7804-24.3262,8.7813a39.36412,39.36412,0,0,1-15.6181-2.8184,31.889,31.889,0,0,1-10.8672-7.4472l6.7656-7.9522a26.13642,26.13642,0,0,0,8.6367,5.9268,28.98335,28.98335,0,0,0,11.3711,2.0703q10.07385,0,15.6172-5.5635,5.5401-5.57085,5.542-16.4111V324.8789h-.5752a24.44822,24.44822,0,0,1-8.6367,10.2597,23.74911,23.74911,0,0,1-13.0996,3.4209,28.24337,28.24337,0,0,1-12.5225-2.7343,26.53257,26.53257,0,0,1-9.5-7.7725,37.40727,37.40727,0,0,1-6.0459-12.2354,61.29233,61.29233,0,0,1,0-32.2431,37.436,37.436,0,0,1,6.0459-12.2354,26.56255,26.56255,0,0,1,9.5-7.7724,28.22884,28.22884,0,0,1,12.5225-2.7354,25.28784,25.28784,0,0,1,13.3154,3.3496,20.90375,20.90375,0,0,1,8.4209,10.3321h.5752V262.5595h11.5156Zm-30.372-6.0459a25.95339,25.95339,0,0,0,7.3418-1.0127,17.79767,17.79767,0,0,0,5.9726-2.9658,14.84657,14.84657,0,0,0,4.0313-4.7725,13.7444,13.7444,0,0,0,1.5107-6.583V285.374a11.91613,11.91613,0,0,0-1.4394-5.7158,13.5063,13.5063,0,0,0-4.0303-4.5557,20.85885,20.85885,0,0,0-6.0449-2.9648,24.323,24.323,0,0,0-7.3418-1.086q-9.7911,0-15.545,6.2207-5.7597,6.22125-5.7578,16.0586v12.7295q0,9.8379,5.7578,16.0586Q1769.4815,328.34035,1779.2725,328.3398Z" fill="#333e48"/><path d="M1879.8857,324.8789h-.5761a35.3475,35.3475,0,0,1-2.8067,5.0605,18.89814,18.89814,0,0,1-4.1015,4.417,19.23262,19.23262,0,0,1-5.9024,3.0635,25.76506,25.76506,0,0,1-8.0605,1.1396q-11.5167,0-18.2803-7.4131-6.76755-7.4106-6.7656-20.9423V262.5595h11.5156v45.7276q0,20.05215,16.9854,20.0527a25.726,25.726,0,0,0,6.6933-.8662,18.47375,18.47375,0,0,0,5.7578-2.5947,13.1106,13.1106,0,0,0,4.0293-4.3994,12.83143,12.83143,0,0,0,1.5117-6.4219V262.5595h11.5157V336.833h-11.5157Z" fill="#333e48"/><path d="M1921.6279,245.1416q-3.74415,0-5.3974-1.7989a6.62978,6.62978,0,0,1-1.6553-4.6787v-1.8711a6.63818,6.63818,0,0,1,1.6553-4.6787q1.65375-1.7973,5.3974-1.7988,3.7413,0,5.3985,1.7988a6.65112,6.65112,0,0,1,1.6543,4.6787v1.8711a6.64268,6.64268,0,0,1-1.6543,4.6787Q1925.36965,245.1445,1921.6279,245.1416Zm-5.7578,17.4179h11.5156V336.833h-11.5156Z" fill="#333e48"/><path d="M1974.167,338.5595q-10.3638,0-17.3447-3.958a39.41586,39.41586,0,0,1-12.0196-10.5801l8.2041-6.621a32.246,32.246,0,0,0,9.6446,8.4199,25.10676,25.10676,0,0,0,12.3789,2.9521q7.34175,0,11.4433-3.167a11.50393,11.50393,0,0,0,1.2959-16.3379q-2.808-3.09375-10.1474-4.2461l-5.9024-.8642a49.12769,49.12769,0,0,1-9.5-2.2305,26.39976,26.39976,0,0,1-7.5566-4.0303,17.29174,17.29174,0,0,1-5.0381-6.2617,20.39407,20.39407,0,0,1-1.7998-8.9238,21.44343,21.44343,0,0,1,2.0156-9.5732,19.2699,19.2699,0,0,1,5.542-6.836,24.21614,24.21614,0,0,1,8.4199-4.1025,38.921,38.921,0,0,1,10.5088-1.3682q9.06735,0,15.1856,3.167a34.091,34.091,0,0,1,10.7236,8.7803l-7.6299,6.9092a22.90179,22.90179,0,0,0-7.1963-6.2608,23.17824,23.17824,0,0,0-11.9472-2.8076q-7.1997,0-10.8682,3.0947a10.44207,10.44207,0,0,0-3.6699,8.4209q0,5.47275,3.6699,7.917,3.671,2.4492,10.5801,3.5987l5.7578.8632q12.37785,1.87215,17.5605,7.125,5.18265,5.25735,5.1827,13.7461,0,10.796-7.3409,16.9854Q1986.97755,338.562,1974.167,338.5595Z" fill="#333e48"/><path d="M2037.3584,336.833q-6.044,0-9.1396-3.3741a12.553,12.553,0,0,1-3.0948-8.8349V272.7783h-12.2353V262.5595h6.9092q3.74115,0,5.1103-1.5127,1.36665-1.5102,1.3672-5.2529V241.9746h10.3643v20.5849h16.2656v10.2188h-16.2656v53.8349h15.1132V336.833Z" fill="#333e48"/><path d="M2077.2305,245.1416q-3.74415,0-5.3975-1.7989a6.62978,6.62978,0,0,1-1.6553-4.6787v-1.8711a6.63818,6.63818,0,0,1,1.6553-4.6787q1.6524-1.7973,5.3975-1.7988,3.74265,0,5.3974,1.7988a6.64735,6.64735,0,0,1,1.6563,4.6787v1.8711a6.63892,6.63892,0,0,1-1.6563,4.6787Q2080.97265,245.1445,2077.2305,245.1416Zm-5.7578,17.4179h11.5156V336.833h-11.5156Z" fill="#333e48"/><path d="M2135.0947,338.5595a34.229,34.229,0,0,1-13.9619-2.7343,28.48179,28.48179,0,0,1-10.4355-7.7725,34.58827,34.58827,0,0,1-6.4776-12.2354,59.37927,59.37927,0,0,1,0-32.2431,34.61328,34.61328,0,0,1,6.4776-12.2354,28.51366,28.51366,0,0,1,10.4355-7.7724,34.211,34.211,0,0,1,13.9619-2.7354q11.083,0,17.7774,4.8223a29.43694,29.43694,0,0,1,10.0039,12.5947l-9.6446,4.8945a17.49,17.49,0,0,0-6.621-8.9248,19.87687,19.87687,0,0,0-11.5157-3.166,23.04108,23.04108,0,0,0-9.0683,1.6543,17.72287,17.72287,0,0,0-6.4766,4.6074,19.37492,19.37492,0,0,0-3.8867,7.0528,29.76415,29.76415,0,0,0-1.2959,8.9951v12.667q0,9.791,5.2549,16.0508,5.2515,6.2607,15.4726,6.2607,13.96005,0,20.1524-12.9551l8.3486,5.6143a29.49143,29.49143,0,0,1-10.7236,12.8105Q2145.7471,338.56,2135.0947,338.5595Z" fill="#333e48"/><path d="M2202.1709,338.5595q-10.3638,0-17.3447-3.958a39.41586,39.41586,0,0,1-12.0196-10.5801l8.2041-6.621a32.24723,32.24723,0,0,0,9.6446,8.4199,25.10434,25.10434,0,0,0,12.3789,2.9521q7.34175,0,11.4433-3.167a11.50393,11.50393,0,0,0,1.2959-16.3379q-2.808-3.09375-10.1474-4.2461l-5.9024-.8642a49.12769,49.12769,0,0,1-9.5-2.2305,26.39976,26.39976,0,0,1-7.5566-4.0303,17.29278,17.29278,0,0,1-5.0381-6.2617,20.39407,20.39407,0,0,1-1.7998-8.9238,21.44343,21.44343,0,0,1,2.0156-9.5732,19.2699,19.2699,0,0,1,5.542-6.836,24.21614,24.21614,0,0,1,8.4199-4.1025,38.91566,38.91566,0,0,1,10.5088-1.3682q9.0675,0,15.1856,3.167a34.091,34.091,0,0,1,10.7236,8.7803l-7.6299,6.9092a22.89583,22.89583,0,0,0-7.1972-6.2608,23.17252,23.17252,0,0,0-11.9463-2.8076q-7.1997,0-10.8682,3.0947a10.44207,10.44207,0,0,0-3.6699,8.4209q0,5.47275,3.6699,7.917,3.67095,2.4492,10.5801,3.5987l5.7578.8632q12.378,1.87215,17.5605,7.125,5.18265,5.25735,5.1817,13.7461,0,10.796-7.3399,16.9854Q2214.98145,338.562,2202.1709,338.5595Z" fill="#333e48"/><path d="M2313.293,338.5595q-12.236,0-20.8721-4.6777a44.27719,44.27719,0,0,1-14.6816-12.8828l8.9238-7.4854a39.10561,39.10561,0,0,0,11.8037,10.7237,30.433,30.433,0,0,0,15.2578,3.6709q10.79595,0,16.4815-5.1817,5.6835-5.18265,5.6855-13.8193,0-7.19535-4.3184-11.082-4.31835-3.8877-14.25-6.1905l-8.205-1.8711q-13.81785-3.16545-21.0869-9.5713-7.27005-6.40425-7.2696-18.0664a27.30854,27.30854,0,0,1,2.4473-11.8027,23.67872,23.67872,0,0,1,6.8369-8.6357,30.84753,30.84753,0,0,1,10.5078-5.2539,47.57251,47.57251,0,0,1,13.459-1.7999q11.36865,0,19.5039,4.1749a37.57051,37.57051,0,0,1,13.7461,12.2353l-9.0684,6.6211a31.30184,31.30184,0,0,0-10.0752-9.0684q-5.90475-3.3105-14.6826-3.3105-9.64455,0-15.1855,4.1016-5.543,4.10295-5.542,12.3066,0,7.2012,4.6787,10.8682,4.6758,3.6693,14.1777,5.83l8.2051,1.8711q14.8242,3.312,21.4473,10.0752,6.61815,6.76755,6.6211,17.9932a31.82977,31.82977,0,0,1-2.375,12.5234,25.71009,25.71009,0,0,1-6.8369,9.5,31.79935,31.79935,0,0,1-10.8682,6.0459A45.15492,45.15492,0,0,1,2313.293,338.5595Z" fill="#333e48"/><path d="M2395.627,338.5595a33.49082,33.49082,0,0,1-13.6748-2.7343,29.44321,29.44321,0,0,1-10.5801-7.8457,36.91032,36.91032,0,0,1-6.8369-12.2344,53.63646,53.63646,0,0,1,0-32.0274,36.83211,36.83211,0,0,1,6.8369-12.3066,29.48469,29.48469,0,0,1,10.5801-7.8447,33.47318,33.47318,0,0,1,13.6748-2.7354,32.98941,32.98941,0,0,1,13.6025,2.7354,30.36681,30.36681,0,0,1,10.5791,7.8447,36.21732,36.21732,0,0,1,6.9092,12.3066,53.61763,53.61763,0,0,1,0,32.0274,36.29129,36.29129,0,0,1-6.9092,12.2344,30.32267,30.32267,0,0,1-10.5791,7.8457A33.00674,33.00674,0,0,1,2395.627,338.5595Zm0-10.2197q9.35445,0,15.2578-5.7578,5.9004-5.75535,5.9013-17.5606V294.3701q0-11.8008-5.9013-17.5615-5.9049-5.7555-15.2578-5.7569-9.35895,0-15.2579,5.7569-5.90475,5.7582-5.9013,17.5615v10.6513q0,11.8053,5.9013,17.5606Q2386.2695,328.3417,2395.627,328.3398Z" fill="#333e48"/><path d="M2475.8018,338.5595a34.22917,34.22917,0,0,1-13.962-2.7343,28.4936,28.4936,0,0,1-10.4365-7.7725,34.60254,34.60254,0,0,1-6.4765-12.2354,59.3511,59.3511,0,0,1,0-32.2431,34.62758,34.62758,0,0,1,6.4765-12.2354,28.52549,28.52549,0,0,1,10.4365-7.7724,34.21119,34.21119,0,0,1,13.962-2.7354q11.0829,0,17.7773,4.8223a29.43694,29.43694,0,0,1,10.0039,12.5947l-9.6445,4.8945a17.49563,17.49563,0,0,0-6.6211-8.9248,19.87676,19.87676,0,0,0-11.5156-3.166,23.03813,23.03813,0,0,0-9.0684,1.6543,17.71534,17.71534,0,0,0-6.4766,4.6074,19.37492,19.37492,0,0,0-3.8867,7.0528,29.76415,29.76415,0,0,0-1.2959,8.9951v12.667q0,9.791,5.2539,16.0508,5.253,6.2607,15.4737,6.2607,13.9599,0,20.1523-12.9551l8.3486,5.6143a29.49143,29.49143,0,0,1-10.7236,12.8105Q2486.4541,338.56,2475.8018,338.5595Z" fill="#333e48"/><path d="M2526.3242,245.1416q-3.7455,0-5.3974-1.7989a6.62978,6.62978,0,0,1-1.6553-4.6787v-1.8711a6.63818,6.63818,0,0,1,1.6553-4.6787q1.65225-1.7973,5.3974-1.7988,3.7413,0,5.3975,1.7988a6.64774,6.64774,0,0,1,1.6562,4.6787v1.8711a6.63931,6.63931,0,0,1-1.6562,4.6787Q2530.06645,245.1445,2526.3242,245.1416Zm-5.7578,17.4179h11.5156V336.833h-11.5156Z" fill="#333e48"/><path d="M2584.4766,338.5595a33.35035,33.35035,0,0,1-13.7461-2.7343,29.593,29.593,0,0,1-10.5078-7.8457,35.95443,35.95443,0,0,1-6.7657-12.2344,55.19655,55.19655,0,0,1,0-32.0274,35.89087,35.89087,0,0,1,6.7657-12.3066,29.6352,29.6352,0,0,1,10.5078-7.8447,33.33287,33.33287,0,0,1,13.7461-2.7354,31.56211,31.56211,0,0,1,13.3867,2.7266,29.67337,29.67337,0,0,1,10.0762,7.5312,33.57226,33.57226,0,0,1,6.4052,11.4033,45.01535,45.01535,0,0,1,2.2315,14.4864v5.4521h-53.4033v3.4551a25.40133,25.40133,0,0,0,1.5117,8.8516,21.02483,21.02483,0,0,0,4.3183,7.125,19.73125,19.73125,0,0,0,6.9092,4.7509,23.72961,23.72961,0,0,0,9.2842,1.7266,22.59711,22.59711,0,0,0,12.3076-3.3105,21.71963,21.71963,0,0,0,8.1318-9.5l8.2051,5.9394a28.6663,28.6663,0,0,1-11.2275,12.3838A33.86188,33.86188,0,0,1,2584.4766,338.5595Zm0-68.084a21.92289,21.92289,0,0,0-8.6358,1.6465,19.4136,19.4136,0,0,0-6.6933,4.6485,21.79885,21.79885,0,0,0-4.3907,7.081,24.47814,24.47814,0,0,0-1.5839,8.9414v1.001h41.0234v-1.5742q0-9.87165-5.3975-15.8067Q2593.4009,270.476,2584.4766,270.4755Z" fill="#333e48"/><path d="M2651.9854,336.833q-6.047,0-9.1407-3.3741a12.55337,12.55337,0,0,1-3.0947-8.8349V272.7783h-12.2353V262.5595h6.9091q3.7413,0,5.1104-1.5127,1.36515-1.5102,1.3672-5.2529V241.9746h10.3633v20.5849h16.2656v10.2188h-16.2656v53.8349h15.1142V336.833Z" fill="#333e48"/><path d="M2731.8721,262.5595h11.372l-33.2509,91.5459a40.82992,40.82992,0,0,1-2.5909,5.542,10.81241,10.81241,0,0,1-3.1669,3.5264,12.57366,12.57366,0,0,1-4.6778,1.8711,34.802,34.802,0,0,1-6.8379.5762h-5.9013V355.4013h11.6591l5.6143-15.8086-27.7812-77.0332h11.5156l17.8486,50.4258,3.4551,12.0684h.7187l4.0313-12.0684Z" fill="#333e48"/><path d="M1582.0508,477.75l-3.6104-11.4766h-15.9902l-3.5459,11.4766h-8.6406l15.0879-45.0039h10.5742l14.958,45.0039Zm-11.4766-37.2657h-.3222l-5.7383,18.5039h11.8633Z" fill="#333e48"/><path d="M1627.376,477.75l-3.6104-11.4766h-15.9902l-3.5459,11.4766h-8.6406l15.0879-45.0039h10.5742l14.958,45.0039Zm-11.4766-37.2657h-.3222l-5.7383,18.5039h11.8633Z" fill="#333e48"/><path d="M1671.4131,458.7304h-18.7627V477.75h-8.5107V432.7461h8.5107v18.4394h18.7627V432.7461h8.5107V477.75h-8.5107Z" fill="#333e48"/><path d="M1706.2939,457.3769l-5.996,7.0918V477.75h-8.5108V432.7461h8.5108v22.1796h.3222l6.3828-8.4453,11.1543-13.7343h9.8008l-15.668,18.7617,16.9571,26.2422H1719.125Z" fill="#333e48"/><path d="M1744.8506,432.7461v27.6601q0,5.2881,2.0312,7.9317,2.0304,2.64255,6.8663,2.6425,4.8354,0,6.8671-2.6425,2.0304-2.64555,2.0303-7.9317V432.7461h8.3818v26.5644a34.52361,34.52361,0,0,1-.9345,8.5742,14.61213,14.61213,0,0,1-2.9981,5.9981,12.09361,12.09361,0,0,1-5.3838,3.5136,25.174,25.174,0,0,1-8.0273,1.127,24.79109,24.79109,0,0,1-8.0273-1.127,12.11317,12.11317,0,0,1-5.3194-3.5136,14.29313,14.29313,0,0,1-2.9658-5.9981,35.65229,35.65229,0,0,1-.9023-8.5742V432.7461Z" fill="#333e48"/></g></svg>