<svg xmlns="http://www.w3.org/2000/svg" xmlns:xlink="http://www.w3.org/1999/xlink" viewBox="0 0 2683.06251 708.6728"><defs><clipPath id="a"><rect x="0.001" width="2683.06151" height="708.6728" fill="none"/></clipPath></defs><g clip-path="url(#a)"><text transform="translate(1761.58793 387.73824)" font-size="72" fill="#fff" font-family="SourceHanSansHC-Medium-B5pc-H, Source Han Sans HC"><tspan letter-spacing="0.03951em">二零二零至二零二一年</tspan><tspan x="748.44824" y="0">度</tspan></text><rect x="1633.98051" y="222.2177" width="3" height="264.2383" fill="#fff"/><path d="M158.4424,271.5732a210.68729,210.68729,0,0,0-16.16989,67.4248,20.76346,20.76346,0,0,1,27.35349.958c7.3379-95.5928,87.22459-170.873,184.70119-170.873a13.6753,13.6753,0,0,0,0-27.3506A212.80656,212.80656,0,0,0,158.4424,271.5732Z" fill="#fff"/><path d="M339.18659,538.9697C244.23151,531.2861,169.5147,452.0058,169.085,355.1728a13.6758,13.6758,0,1,0-27.3516,0A212.43222,212.43222,0,0,0,338.10059,566.331a20.7514,20.7514,0,0,1,1.086-27.3613Z" fill="#fff"/><path d="M502.52839,487.4111a13.68135,13.68135,0,0,0-19.3418,0,184.62431,184.62431,0,0,1-128.8594,52.1777,13.6758,13.6758,0,0,0,0,27.3516,211.90052,211.90052,0,0,0,148.2012-60.1875A13.672,13.672,0,0,0,502.52839,487.4111Z" fill="#fff"/><path d="M354.32719,566.9404a13.6758,13.6758,0,0,1,0-27.3516,184.62431,184.62431,0,0,0,128.8594-52.1777,13.67672,13.67672,0,0,1,19.3418,19.3418,211.90052,211.90052,0,0,1-148.2012,60.1875Zm-82.7656-16.7188A212.41559,212.41559,0,0,1,141.7334,355.1728a13.6758,13.6758,0,1,1,27.3516,0c.4297,96.833,75.14651,176.1133,170.10159,183.7969a20.7514,20.7514,0,0,0-1.086,27.3613A210.73844,210.73844,0,0,1,271.56159,550.2216Zm82.7656-408.4892a13.6753,13.6753,0,0,1,0,27.3506c-97.4766,0-177.36329,75.2802-184.70119,170.873a20.76346,20.76346,0,0,0-27.35349-.958A212.43851,212.43851,0,0,1,354.32719,141.7324Z" fill="#fff"/><path d="M466.91309,241.7509a159.2227,159.2227,0,1,0,46.6328,112.586A158.17145,158.17145,0,0,0,466.91309,241.7509Z" fill="#fff"/><path d="M242.11619,405.8271V302.8466h22.334v7.6133h-12.9443v87.7539h12.9443v7.6133Z" fill="#333e48"/><path d="M466.53809,302.8466V405.8271H444.21v-7.6133h12.93852V310.4599H444.21v-7.6133Z" fill="#333e48"/><path d="M293.98729,375.2558q0,3.0864.0957,7.2715.09378,4.185.2598,8.4971.15825,4.311.38672,8.2392.21972,3.9273.54488,6.5635h-13.1933V333.0947q0-9.39555-.3223-17.0215-.31935-7.62885-.9668-13.2266h13.1953Z" fill="#333e48"/><path d="M351.59379,340.1767v8.4336h-12.1006v48.7861h12.1006v8.4317h-36.042v-8.4317H327.458V348.6103h-11.9062v-8.4336Z" fill="#333e48"/><path d="M378.628,340.1767a22.85871,22.85871,0,0,1,.7714,2.6738c.2598,1.0918.4922,2.2383.709,3.4405q.3165,1.80165.58012,3.54l.51168,2.8945q6.18165-7.3359,12.4219-10.5859a27.83077,27.83077,0,0,1,13.0029-3.251,22.83451,22.83451,0,0,1,9.10752,1.7061,16.04908,16.04908,0,0,1,6.663,5.4062,26.47487,26.47487,0,0,1,4.08788,9.5918,62.92058,62.92058,0,0,1,1.3828,14.1934v28.959a72.01786,72.01786,0,0,1-1.9003,18.0547,30.95461,30.95461,0,0,1-5.3086,11.4619,18.65624,18.65624,0,0,1-8.2071,6.0459,30.53318,30.53318,0,0,1-10.6523,1.7715,23.02126,23.02126,0,0,1-6.211-.9327,23.455,23.455,0,0,1-6.0175-2.6084l4.1836-9.6543a12.86553,12.86553,0,0,0,3.9589,1.836,17.58836,17.58836,0,0,0,5.0489.7383,14.56659,14.56659,0,0,0,5.54-.9961,9.23488,9.23488,0,0,0,4.1494-3.5078,19.199,19.199,0,0,0,2.6074-6.8868,56.86882,56.86882,0,0,0,.9004-11.1347V374.6123a78.40592,78.40592,0,0,0-.8046-12.5196,21.57347,21.57347,0,0,0-2.4151-7.4668,8.014,8.014,0,0,0-4.0244-3.5742,16.11338,16.11338,0,0,0-5.6289-.8984,15.11689,15.11689,0,0,0-6.7881,1.6426,25.00062,25.00062,0,0,0-6.0869,4.248,31.54391,31.54391,0,0,0-4.8887,5.8877,27.06864,27.06864,0,0,0-3.1562,6.5644v37.3321h-11.9063v-39.584a100.47548,100.47548,0,0,0-1.0957-16.124,81.54227,81.54227,0,0,0-2.123-9.9434Z" fill="#333e48"/><path d="M731.93751,379.6337H676.94438v-9.1289h54.99313Zm-7.1572,97.2051h-9.4209V466.833H693.376v10.0058h-9.5674V427.4697h40.97173Zm-.4385-78.3633-40.38673.1465v-9.1289h40.38673Zm.1465,19.1348H683.95508v-9.1289h40.53323Zm-1.8262-56.5273-37.0996.1464v-9.1289h37.0996Zm-7.3027,96.7675V436.4521h-22.1289v21.3984Zm94.3565-40.0937-78.9473.1445v-8.9824h19.5723l4.2363-22.5664h-18.2578v-8.9824h19.7187l3.1397-16.7246h-27.9707v-9.1289h72.5205v8.9824h-34.6905l-2.9941,16.7246h30.0898l-3.1406,31.5488h16.7237Zm-12.7081,59.375h-9.4199v-9.8594h-36.9551v9.8594h-9.5664V427.6162h55.9414Zm-9.4199-18.8438V436.5986h-37.1006V458.288Zm-1.4609-72.082h-21.6914l-4.2344,22.7129h23.6621Z" fill="#fff"/><path d="M974.38771,379.6337H841.61621v-9.1289h132.7715Zm-19.5722,18.6954h-94.9434v-8.836h94.9434Zm0,18.9882h-94.9434v-8.8359h94.9434Zm-3.4336,59.8145h-9.42V466.833H873.458v10.2988h-9.4218V427.4697h87.3457Zm-.1446-116.9981-86.4707.2188v-8.8359h86.4707Zm-9.2754,97.7168V436.4521H873.458v21.3984Z" fill="#fff"/><path d="M1139.06061,450.6943h-58.791v10.1504q0,16.2861-17.3106,16.2871h-9.7129l-3.5781-8.9824h13.584q7.15725,0,7.1582-6.5742V450.6943h-64.1231v-9.1289h64.1231v-6.2813q15.2607-5.6982,21.8359-10.6621h-55.9433v-8.4004h72.1582v7.961a223.54546,223.54546,0,0,1-28.1914,15.8476v1.5352h58.791Zm-6.1348-27.0957h-8.7656V408.4814h-102.0234v15.9941h-9.5694v-24.539h12.5615V355.3857q10.36815-1.01955,22.7149-9.8574l4.8203,6.7187q-6.6504,6.13485-18.1133,9.2754v6.1348h18.6953v7.5957h-18.6953v7.959h18.6953v7.4492h-18.6953v9.2754h77.6328v-9.2754h-17.8203v-7.3027h17.8203v-8.545h-17.6738v-7.4492h17.6738v-7.9609h-20.6679v-8.836h29.9433V399.79h11.4668Zm-41.4101-56.6719-5.1114,6.2793a77.95094,77.95094,0,0,0-11.3203-8.6894,87.44052,87.44052,0,0,1-13.293,9.1289l-5.9882-5.2598a57.86012,57.86012,0,0,0,12.416-6.8633,127.00611,127.00611,0,0,0-14.3887-4.6738l3.7266-6.7207a134.926,134.926,0,0,1,16.2851,5.2578,62.2306,62.2306,0,0,0,8.6914-10.0039l6.1348,4.8926a46.309,46.309,0,0,1-7.5957,8.8379A54.45731,54.45731,0,0,1,1091.51571,366.9267Zm.875,26.582-6.1329,4.8204a67.661,67.661,0,0,0-12.2695-7.5215q-3.94335,2.99415-14.0215,7.5215l-5.5508-4.3809q9.419-4.4532,13.5118-7.7422a74.3014,74.3014,0,0,0-12.416-5.6973l5.4765-4.5996a91.19563,91.19563,0,0,1,12.8535,5.6231q2.0421-1.1661,8.252-7.0117l6.7187,3.4336a36.64451,36.64451,0,0,1-8.3242,7.9609A54.28259,54.28259,0,0,1,1092.39071,393.5087Z" fill="#fff"/><path d="M1303.585,450.6943h-58.791v10.1504q0,16.2861-17.3086,16.2871h-9.7129l-3.5781-8.9824h13.584q7.15425,0,7.1562-6.5742V450.6943h-64.1211v-9.1289h64.1211v-6.2813q15.2637-5.6982,21.8379-10.6621h-55.9434v-8.4004h72.1563v7.961a223.40346,223.40346,0,0,1-28.1914,15.8476v1.5352h58.791Zm-6.1328-27.0957h-8.7676V408.4814h-102.0234v15.9941h-9.5664v-24.539h12.5605V355.3857q10.37115-1.01955,22.7129-9.8574l4.8203,6.7187q-6.64455,6.13485-18.1133,9.2754v6.1348h18.6973v7.5957h-18.6973v7.959h18.6973v7.4492h-18.6973v9.2754h77.6328v-9.2754h-17.8183v-7.3027h17.8183v-8.545h-17.6738v-7.4492h17.6738v-7.9609h-20.6679v-8.836h29.9433V399.79h11.4688Zm-38.8106-31.7285-6.6543,6.084c-3.0371-4.5625-7.3828-10.2754-11.5859-13.8243q-9.7998,10.919-16.1055,13.8946l-6.584-5.5293q7.42395-3.53325,16.1075-13.2032-9.876-6.15225-14.0762-7.6054l5.7441-5.9414q3.501,1.3827,13.1661,7.1894a41.80924,41.80924,0,0,0,4.4804-10.3008h-21.9902v-8.6386h11.789v-8.8965h7.5665v8.8965h13.9921v8.6386h-2.7695a55.0219,55.0219,0,0,1-6.2754,14.8633C1250.53621,381.3662,1255.42091,387.2627,1258.64161,391.8701Z" fill="#fff"/><path d="M1470.52051,379.3427l-5.2578,7.5938q-24.90525-6.13485-38.998-14.168v6.5742h-49.3711v-7.2324q-21.3252,11.03025-38.2695,14.3887l-4.8184-7.668q41.04195-10.00485,68.3574-33.4492l8.9824,2.9941a12.41022,12.41022,0,0,1-2.5566,2.5547Q1432.83506,371.08985,1470.52051,379.3427Zm-15.5566,41.8457h-106.041V386.9365h106.041Zm-8.6895,56.0879h-8.9824v-5.8418h-70.5488v5.8418h-8.9824V428.8564h88.5136Zm-48.7128-63.9746V395.0439h-39.6563v18.2578Zm39.7304,33.0098v-9.4199h-70.5488v9.4199Zm0,17.2363v-9.5684h-70.5488v9.5684Zm-49.4433-57.4766-7.5215,5.2579a52.55366,52.55366,0,0,0-13.293-10.1504l7.5957-4.3828A37.58073,37.58073,0,0,1,1387.84871,406.0712Zm35.4218-34.8359a92.07643,92.07643,0,0,1-20.5234-14.9726,112.08384,112.08384,0,0,1-23.7344,14.9726Zm22.7129,42.0664V395.0439h-39.4375v18.2578Zm-8.8379-13.9492q-4.3095,6.8643-13,11.6855l-8.0332-4.0175q9.56835-5.4024,13.1446-10.8086Z" fill="#fff"/><path d="M732.625,260.247l-2.789,3.211q-12.5406-4.40925-23.8809-15.5411l.0606,11.7305h14.0097v25.8008h-3.8105V281.999H691.94528v3.4492h-3.9316V259.6474H702.084V247.9169q-6.17865,9.4512-22.3203,14.7911l-2.8193-3.1797q14.31-3.78225,20.4599-11.6114H680.334v-3.75h21.75v-5.789q-7.169.72075-18,1.0488l-2.5801-3.6289q25.59095-.09075,40.86143-4.291l2.8798,2.8809a132.91125,132.91125,0,0,1-19.2294,3.5097v6.2695h22.0498v3.75l-17.1905-.0585A63.95615,63.95615,0,0,0,732.625,260.247Zm-16.4101,8.4317v-5.2813H691.88478v5.2813Zm0,9.6289v-5.9395H691.88478v5.9395Z" fill="#fff"/><path d="M768.7157,263.0068q-3.78225,11.73345-9.9004,19.2324l3.5098,2.2207a57.24321,57.24321,0,0,0,10.0215-19.2305Zm-6.3301-16.6484-2.5215,3.1503a22.19292,22.19292,0,0,1,9.4532,7.3184l2.6367-3.5684Q768.83685,249.0869,762.3856,246.3584Zm2.9385-13.4395-2.8193,2.8789a18.11415,18.11415,0,0,1,9.0918,6.959l2.8183-3.0293A18.38666,18.38666,0,0,0,765.3241,232.9189Z" fill="#fff"/><path d="M804.536,272.1298V260.8173a34.81478,34.81478,0,0,0,7.6816,5.5215l2.46-3.332a25.75423,25.75423,0,0,1-12.2412-10.6191h10.2578v-3.6895h-9.8076v-7.1699h7.4092v-3.6914h-7.4092v-6.3282h-3.8115v6.3887H787.9462v-6.3887h-3.8125v6.3887h-7.378v3.6895h7.4405v7.1699h-9.7813v3.6914h9.9004q-3.32805,6.2403-12.0293,10.3789l2.8184,3.3301a37.6256,37.6256,0,0,0,4.7402-3.2383V278.999q0,5.1591,5.1602,5.1601h19.6503a4.78993,4.78993,0,0,0,3.795-1.5898q1.3974-1.5909,2.1758-6.2695l-3.8692-1.7403q-.39255,3.75-1.1406,4.7989a2.34729,2.34729,0,0,1-2.0098,1.0507H785.3055a1.45767,1.45767,0,0,1-1.6484-1.6523v-6.627Zm-16.5898-30.6015h11.1894v7.1699H787.9462Zm.3584,10.8594h10.2002a24.92734,24.92734,0,0,0,4.4404,6.8125H783.8954A21.14655,21.14655,0,0,0,788.3046,252.3877Zm-4.6475,10.5h17.0693v5.6113H783.6571Z" fill="#fff"/><path d="M896.30875,282.4482l-2.789,3.1191q-18.753-10.22745-23.8223-34.4687-6.26955,24.62985-25.5586,34.4687l-3.0312-3.5683q19.1103-9.3018,24.2109-30.8418h-20.4004V247.288h20.8496a153.555,153.555,0,0,0,.4805-15.7812l4.1699.6016q.1494,9.17865-.3594,15.1191h22.7403v3.8711h-18.9297Q877.467,271.6474,896.30875,282.4482Z" fill="#fff"/><path d="M977.94045,274.6474h-24.1504v4.1719q0,6.6885-7.1113,6.6894h-3.9903l-1.4687-3.6894h5.5801q2.9385,0,2.9394-2.7012v-4.4707h-26.3398v-3.75h26.3398v-2.5801a37.51684,37.51684,0,0,0,8.9707-4.3789h-22.9804v-3.4511h29.6406v3.2695a91.83144,91.83144,0,0,1-11.5801,6.5117v.6289h24.1504Zm-2.5195-11.1289h-3.5996v-6.2109h-41.9121v6.5703h-3.9297V253.7978h5.1601V235.497q4.25985-.41895,9.3301-4.0488l1.9785,2.7598a17.655,17.655,0,0,1-7.4394,3.8105v2.5195h7.6796v3.1192h-7.6796v3.2715h7.6796v3.0586h-7.6796v3.8105h31.8906v-3.8105h-7.3203v-3h7.3203v-3.5098h-7.2598v-3.0606h7.2598v-3.2695h-8.4902v-3.6289H970.71v20.2188h4.711Zm-17.0117-23.2812-2.0997,2.58a31.99845,31.99845,0,0,0-4.6503-3.5703,35.693,35.693,0,0,1-5.459,3.75l-2.461-2.1582a23.7891,23.7891,0,0,0,5.0996-2.8203,52.667,52.667,0,0,0-5.9101-1.9219l1.5312-2.7597a55.61611,55.61611,0,0,1,6.6895,2.1601,25.53827,25.53827,0,0,0,3.5703-4.1093l2.5195,2.0097a19.02,19.02,0,0,1-3.1191,3.6309A22.43184,22.43184,0,0,1,958.40925,240.2373Zm.3613,10.9199-2.5215,1.9805a27.71086,27.71086,0,0,0-5.0391-3.0899,32.42919,32.42919,0,0,1-5.7597,3.0899l-2.2813-1.8008a29.62657,29.62657,0,0,0,5.5508-3.1797,30.63408,30.63408,0,0,0-5.0996-2.3399l2.248-1.8906a37.439,37.439,0,0,1,5.2813,2.3106,25.61967,25.61967,0,0,0,3.3906-2.8789l2.7598,1.4101a15.07622,15.07622,0,0,1-3.4199,3.2695A22.3236,22.3236,0,0,1,958.77055,251.1572Z" fill="#fff"/><path d="M1060.6825,281.6377l-2.6406,3.5117q-15.26955-4.5-24.7793-12.1211-8.19435,6.69135-25.7422,12.3613l-2.9395-3.5703q16.9806-4.7109,25.6817-11.4316a40.86322,40.86322,0,0,1-11.7305-20.0704,33.09388,33.09388,0,0,1-4.4414,7.92l-3.1777-2.9082a39.6704,39.6704,0,0,0,6.0879-9.8711h-10.3203v-3.6895h24.0625V231.5068h3.8691V241.708h24.4805v3.6894h-10.2618q-2.6982,15.6621-12.4199,24.9297Q1045.2616,277.04785,1060.6825,281.6377Zm-15.8711-36.2403h-23.2187q2.3964,13.8897,11.7285,22.3516Q1042.44135,259.2587,1044.8114,245.3974Z" fill="#fff"/><path d="M1141.86345,274.6474h-24.1523v4.1719q0,6.6885-7.1094,6.6894h-3.9902l-1.4688-3.6894h5.5782q2.94135,0,2.9414-2.7012v-4.4707h-26.3389v-3.75h26.3389v-2.5801a37.45923,37.45923,0,0,0,8.9687-4.3789h-22.9805v-3.4511h29.6407v3.2695a91.69661,91.69661,0,0,1-11.5801,6.5117v.6289h24.1523Zm-2.5195-11.1289h-3.6016v-6.2109h-41.9121v6.5703h-3.9297V253.7978h5.1602V235.497q4.2597-.41895,9.332-4.0488l1.9785,2.7598a17.663,17.663,0,0,1-7.4414,3.8105v2.5195h7.6817v3.1192h-7.6817v3.2715h7.6817v3.0586h-7.6817v3.8105h31.8926v-3.8105h-7.3222v-3h7.3222v-3.5098h-7.2597v-3.0606h7.2597v-3.2695h-8.4902v-3.6289h12.2988v20.2188h4.7129Zm-17.0117-23.2812-2.1016,2.58a31.96848,31.96848,0,0,0-4.6484-3.5703,35.80261,35.80261,0,0,1-5.461,3.75l-2.4589-2.1582a23.84235,23.84235,0,0,0,5.0996-2.8203,52.92612,52.92612,0,0,0-5.9102-1.9219l1.5313-2.7597a55.62045,55.62045,0,0,1,6.6894,2.1601,25.42833,25.42833,0,0,0,3.5684-4.1093l2.5215,2.0097a19.08884,19.08884,0,0,1-3.1192,3.6309A22.43184,22.43184,0,0,1,1122.33225,240.2373Zm.3594,10.9199-2.5196,1.9805a27.72815,27.72815,0,0,0-5.041-3.0899,32.431,32.431,0,0,1-5.7598,3.0899l-2.2812-1.8008a29.4993,29.4993,0,0,0,5.5508-3.1797,30.56008,30.56008,0,0,0-5.0996-2.3399l2.25-1.8906a37.54028,37.54028,0,0,1,5.2812,2.3106,25.51015,25.51015,0,0,0,3.3887-2.8789l2.7598,1.4101a15.06664,15.06664,0,0,1-3.418,3.2695A22.3579,22.3579,0,0,1,1122.69165,251.1572Z" fill="#fff"/><path d="M1181.3882,251.9072q6.0615,6.8115,6.0625,13.291a7.31079,7.31079,0,0,1-1.6367,5.0098,5.76474,5.76474,0,0,1-4.5742,1.8613,23.7181,23.7181,0,0,1-3.9004-.3906l-1.1094-3.9903a21.66761,21.66761,0,0,0,4.6191.8106,3.05261,3.05261,0,0,0,2.1309-.9004,3.13241,3.13241,0,0,0,.9609-2.4004,14.37274,14.37274,0,0,0-1.6503-5.7598,22.92815,22.92815,0,0,0-4.9512-6.6894l5.8515-15.0313h-8.9101v47.791h-3.9317V233.9072h16.8301v3.8105Zm41.3731,22.5918a20.73669,20.73669,0,0,1-2.1016,7.0488,4.622,4.622,0,0,1-4.2891,2.1914h-4.6797q-4.6815,0-4.6796-4.9199V262.9482h-6.3321q-.17865,9.65925-3.7636,14.4746-3.58605,4.81635-13.3067,8.0859l-2.5195-3.4511q9.02925-2.66895,12.3906-6.9004,3.3603-4.2276,3.3906-12.1485h-8.2207v-3.9316h32.1328v3.8711h-10.0234v14.9414a2.29064,2.29064,0,0,0,.4805,1.3945,1.39888,1.39888,0,0,0,1.1406.6446h3.8105q1.16895,0,1.7852-1.92a30.59258,30.59258,0,0,0,1.0352-4.9804Zm-3.4512-27.211-3.8086.0606v-5.2813h-22.6211v5.2813h-3.8711v-9.0918h13.1699v-6.8086h3.9317v6.75h13.1992Zm-5.0391,5.7891h-20.2812v-3.9297h20.2812Z" fill="#fff"/><path d="M1305.7884,274.6474h-24.1523v4.1719q0,6.6885-7.1094,6.6894h-3.9902l-1.4707-3.6894h5.5801q2.94135,0,2.9414-2.7012v-4.4707h-26.3418v-3.75h26.3418v-2.5801a37.45726,37.45726,0,0,0,8.9687-4.3789h-22.9804v-3.4511h29.6406v3.2695a91.69661,91.69661,0,0,1-11.5801,6.5117v.6289h24.1523Zm-2.5214-11.1289h-3.5996v-6.2109h-41.9102v6.5703h-3.9316V253.7978h5.1621V235.497q4.25685-.41895,9.3281-4.0488l1.9805,2.7598a17.6682,17.6682,0,0,1-7.4395,3.8105v2.5195h7.6797v3.1192h-7.6797v3.2715h7.6797v3.0586h-7.6797v3.8105h31.8906v-3.8105h-7.3203v-3h7.3203v-3.5098h-7.2597v-3.0606h7.2597v-3.2695h-8.4902v-3.6289h12.2988v20.2188h4.711Zm-17.0098-23.2812-2.1016,2.58a31.99451,31.99451,0,0,0-4.6504-3.5703,35.68709,35.68709,0,0,1-5.4589,3.75l-2.461-2.1582a23.76228,23.76228,0,0,0,5.1016-2.8203,52.79978,52.79978,0,0,0-5.9102-1.9219l1.5293-2.7597a55.39885,55.39885,0,0,1,6.6895,2.1601,25.55431,25.55431,0,0,0,3.5722-4.1093l2.5196,2.0097a19.03426,19.03426,0,0,1-3.1211,3.6309A22.3835,22.3835,0,0,1,1286.2572,240.2373Zm.3594,10.9199-2.5196,1.9805a27.84717,27.84717,0,0,0-5.039-3.0899,32.46944,32.46944,0,0,1-5.7617,3.0899l-2.2793-1.8008a29.62839,29.62839,0,0,0,5.5507-3.1797,30.66766,30.66766,0,0,0-5.1015-2.3399l2.25-1.8906a37.411,37.411,0,0,1,5.2793,2.3106,25.61967,25.61967,0,0,0,3.3906-2.8789l2.7598,1.4101a15.07456,15.07456,0,0,1-3.42,3.2695A22.275,22.275,0,0,1,1286.6166,251.1572Z" fill="#fff"/><path d="M1387.94356,282.5087H1333.344v-3.8691h25.4394V264.5673h-18.33v-3.8691h18.33V248.458h-13.5898a31.92861,31.92861,0,0,1-8.2207,11.789l-3.959-2.0703a33.14172,33.14172,0,0,0,10.9492-22.2598l4.0508,1.17a44.976,44.976,0,0,1-1.4121,7.5605h12.123V231.5068h4.0489v13.0801h21.1797v3.8711h-21.1797v12.1797h18.0605v3.8691h-18.0605v14.0723h25.1699Z" fill="#fff"/><path d="M1470.52051,245.3369l-2.1582,3.1211q-10.23045-2.51955-16.0214-5.8203v2.6992h-20.2813v-2.9688a60.80859,60.80859,0,0,1-15.7187,5.9102l-1.9805-3.1504q16.8603-4.1103,28.0801-13.7402l3.6894,1.2304a5.12593,5.12593,0,0,1-1.0488,1.0488Q1455.03916,241.94915,1470.52051,245.3369Zm-6.3886,17.1914h-43.5606V248.458h43.5606Zm-3.5703,23.039h-3.6915v-2.3984h-28.9804v2.3984h-3.6895V265.6787h36.3614Zm-20.0118-26.2793v-7.5h-16.289v7.5Zm16.3203,13.5606v-3.8711h-28.9804v3.8711Zm0,7.0801V275.999h-28.9804v3.9297Zm-20.3105-23.6114-3.0898,2.1602a21.60454,21.60454,0,0,0-5.459-4.1699l3.1191-1.7989A15.41164,15.41164,0,0,1,1436.55961,256.3173Zm14.5508-14.3086a37.78874,37.78874,0,0,1-8.4297-6.1523,46.1537,46.1537,0,0,1-9.75,6.1523Zm9.3301,17.2793v-7.5h-16.1993v7.5Zm-3.6289-5.7304a14.30144,14.30144,0,0,1-5.3418,4.8008l-3.2989-1.6504a15.58973,15.58973,0,0,0,5.4004-4.4395Z" fill="#fff"/></g></svg>