<svg xmlns="http://www.w3.org/2000/svg" xmlns:xlink="http://www.w3.org/1999/xlink" viewBox="0 0 1612.25968 708.665"><defs><clipPath id="a"><rect x="0.001" width="1612.25868" height="708.665" fill="none"/></clipPath></defs><g clip-path="url(#a)"><path d="M155.4082,341.4931a13.67617,13.67617,0,0,1,13.6767,13.6758c-.0019-.2783-.0117-.5576-.0117-.8369,0-102.3106,82.9356-185.249,185.249-185.249a13.6753,13.6753,0,0,0,0-27.3506A212.44379,212.44379,0,0,0,141.7236,354.332c0,.2793.0078.5586.0098.8369A13.67518,13.67518,0,0,1,155.4082,341.4931Z" fill="#5a5c66"/><path d="M340.6465,553.2558A13.67538,13.67538,0,0,1,354.3222,539.58c-102.0322,0-184.7871-82.4863-185.2373-184.4111a13.67575,13.67575,0,1,0-27.3515,0A212.43619,212.43619,0,0,0,354.3222,566.9326,13.67559,13.67559,0,0,1,340.6465,553.2558Z" fill="#858591"/><path d="M502.5215,487.4062a13.67543,13.67543,0,0,0-19.3418,0A184.6352,184.6352,0,0,1,354.3222,539.58a13.6763,13.6763,0,0,0,0,27.3526A211.92145,211.92145,0,0,0,502.5215,506.746,13.67483,13.67483,0,0,0,502.5215,487.4062Z" fill="#9f9ea7"/><path d="M466.9052,241.748a159.22487,159.22487,0,1,0,46.6299,112.584A158.179,158.179,0,0,0,466.9052,241.748Z" fill="#9f9ea7"/><path d="M242.1123,405.8222V302.8447h22.334v7.6123H251.501v87.7519h12.9453v7.6133Z" fill="#333e48"/><path d="M466.5302,302.8447V405.8222h-22.33v-7.6133h12.9394V310.457H444.2002v-7.6123Z" fill="#333e48"/><path d="M293.9814,375.2519c0,2.0557.0322,4.4834.0957,7.2705q.09375,4.18365.2588,8.4971.15975,4.3125.3867,8.2402.22125,3.9258.5459,6.5625H282.0752V333.0917q0-9.3939-.3223-17.0224-.31935-7.62885-.9658-13.2246h13.1943Z" fill="#fff"/><path d="M351.5869,340.1728v8.4336H339.4863v48.7861h12.1006v8.4317h-36.041v-8.4317h11.9062V348.6064H315.5459v-8.4336Z" fill="#fff"/><path d="M378.6201,340.1728a22.49046,22.49046,0,0,1,.7715,2.6738c.2607,1.0928.4922,2.2393.709,3.4405q.31785,1.80165.58,3.541l.5118,2.8926q6.18165-7.33455,12.4218-10.585a27.82789,27.82789,0,0,1,13.003-3.251,22.8165,22.8165,0,0,1,9.1074,1.7061,16.06231,16.06231,0,0,1,6.6631,5.4062,26.47648,26.47648,0,0,1,4.0869,9.5908,62.93616,62.93616,0,0,1,1.3828,14.1944v28.958a72.01828,72.01828,0,0,1-1.9004,18.0547,30.92442,30.92442,0,0,1-5.3086,11.4609,18.65354,18.65354,0,0,1-8.207,6.0469,30.52248,30.52248,0,0,1-10.6524,1.7695,23.02764,23.02764,0,0,1-6.2109-.9316,23.492,23.492,0,0,1-6.0176-2.6074l4.1846-9.6543a12.91732,12.91732,0,0,0,3.958,1.8359,17.60124,17.60124,0,0,0,5.0508.7383,14.58059,14.58059,0,0,0,5.539-.9961,9.234,9.234,0,0,0,4.1485-3.5078,19.18182,19.18182,0,0,0,2.6084-6.8867,56.88549,56.88549,0,0,0,.9004-11.1348V374.6064a78.51437,78.51437,0,0,0-.8047-12.5176,21.60861,21.60861,0,0,0-2.4151-7.4668,8.00391,8.00391,0,0,0-4.0244-3.5742,16.11178,16.11178,0,0,0-5.6299-.8994,15.11709,15.11709,0,0,0-6.7871,1.6435,25.02939,25.02939,0,0,0-6.0859,4.2471,31.54519,31.54519,0,0,0-4.8896,5.8887,27.03035,27.03035,0,0,0-3.1563,6.5644v37.3321H370.2519v-39.584a100.48418,100.48418,0,0,0-1.0957-16.124,81.74144,81.74144,0,0,0-2.124-9.9434Z" fill="#fff"/><path d="M731.9262,379.6289H676.9336V370.5h54.9926Zm-7.1567,97.206h-9.4214V466.8291H693.3652v10.0058h-9.5669V427.4648h40.9712Zm-.4385-78.3633-40.3867.1455v-9.1279H724.331Zm.146,19.1338H683.9443v-9.1289H724.477Zm-1.8257-56.5263-37.1001.1464v-9.1289h37.1001Zm-7.3032,96.7666V436.4482H693.2197v21.3975Zm94.3574-40.0938-78.9477.1455V408.915h19.5723l4.2363-22.5664H736.3086v-8.9834h19.7187l3.1402-16.7246H731.1963v-9.1289h72.5205v8.9834H769.0263l-2.9941,16.7246h30.0894l-3.1407,31.5488h16.7246Zm-12.708,59.375h-9.4209v-9.8594H750.6225v9.8594h-9.5673V427.6113h55.9423Zm-9.4209-18.8428V436.5937H750.4765v21.6904Zm-1.4609-72.082H764.4253l-4.2354,22.7129H783.852Z" fill="#333e48"/><path d="M974.37689,379.6289H841.6059V370.5h132.771Zm-19.5722,18.6962h-94.9419v-8.8359h94.9419Zm0,18.9883h-94.9419v-8.8369h94.9419Zm-3.4322,59.8135h-9.4209V466.8291h-68.5044v10.2978h-9.4209V427.4648h87.3462Zm-.146-116.9971-86.4702.2188v-8.8369h86.4702Zm-9.2749,97.7159V436.4482h-68.5044v21.3975Z" fill="#333e48"/><path d="M1139.05079,450.6894h-58.7911v10.1514q0,16.2846-17.3105,16.2861h-9.7129l-3.5781-8.9824h13.584q7.1571,0,7.1582-6.5733V450.6894h-64.1231v-9.1289h64.1231v-6.2813q15.2607-5.6967,21.8359-10.6621h-55.9434v-8.3994h72.15821v7.961a223.657,223.657,0,0,1-28.19141,15.8476v1.5342h58.7911Zm-6.1348-27.0957h-8.7656V408.4765h-102.0235v15.9942h-9.56879V399.9326h12.561V355.3818q10.36814-1.02105,22.71489-9.8584l4.8203,6.7187q-6.6504,6.13485-18.1133,9.2754v6.1348h18.6953v7.5957H1034.541v7.96h18.6953v7.4482H1034.541v9.2764h77.6328v-9.2764h-17.8203v-7.3027h17.8203v-8.544H1094.5v-7.4492h17.6738v-7.9609h-20.668v-8.8369h29.9434v49.2236h11.4668Zm-41.4102-56.6719-5.1113,6.2803a77.94845,77.94845,0,0,0-11.3203-8.6904,87.37337,87.37337,0,0,1-13.293,9.1289l-5.9883-5.2588a57.90355,57.90355,0,0,0,12.4161-6.8643,127.42281,127.42281,0,0,0-14.3887-4.6738l3.7266-6.7197a134.926,134.926,0,0,1,16.2851,5.2578,62.19778,62.19778,0,0,0,8.6914-10.0049l6.1348,4.8936a46.30466,46.30466,0,0,1-7.5957,8.8369A54.54,54.54,0,0,1,1091.50579,366.9218Zm.875,26.583-6.1328,4.8203a67.60992,67.60992,0,0,0-12.2695-7.5214q-3.94335,2.99415-14.0215,7.5214l-5.5508-4.3818q9.419-4.45305,13.5117-7.7412a74.22429,74.22429,0,0,0-12.416-5.6973l5.4766-4.5996a91.201,91.201,0,0,1,12.8535,5.6221q2.042-1.166,8.252-7.0107l6.7187,3.4326a36.60132,36.60132,0,0,1-8.3242,7.9609A54.31878,54.31878,0,0,1,1092.38079,393.5048Z" fill="#333e48"/><path d="M1303.5761,450.6894h-58.791v10.1514q0,16.2846-17.30861,16.2861h-9.7129l-3.5781-8.9824h13.584q7.15425,0,7.1563-6.5733V450.6894h-64.1211v-9.1289h64.1211v-6.2813q15.26354-5.6967,21.83779-10.6621h-55.94329v-8.3994h72.15619v7.961a223.52209,223.52209,0,0,1-28.19138,15.8476v1.5342h58.791Zm-6.13282-27.0957h-8.7675V408.4765H1186.65229v15.9942h-9.5664V399.9326h12.5606V355.3818q10.371-1.02105,22.7129-9.8584l4.8203,6.7187q-6.64455,6.13485-18.1133,9.2754v6.1348h18.6972v7.5957h-18.6972v7.96h18.6972v7.4482h-18.6972v9.2764h77.63279v-9.2764h-17.8184v-7.3027h17.8184v-8.544h-17.6738v-7.4492h17.6738v-7.9609h-20.668v-8.8369h29.9434v49.2236h11.4687Zm-38.8105-31.7275-6.6543,6.0839c-3.0371-4.5634-7.3828-10.2763-11.5859-13.8242q-9.79978,10.91895-16.10548,13.8936l-6.584-5.5293q7.42379-3.53175,16.10739-13.2031-9.876-6.1509-14.0761-7.6055l5.7441-5.9404q3.501,1.3827,13.166,7.1894a41.8175,41.8175,0,0,0,4.4805-10.3017h-21.99029v-8.6387h11.7891v-8.8965h7.56639v8.8965h13.9922v8.6387h-2.7695a54.99538,54.99538,0,0,1-6.2754,14.8632C1250.52728,381.3613,1255.4121,387.2587,1258.63278,391.8662Z" fill="#333e48"/><path d="M1470.51168,379.3378l-5.2578,7.5948q-24.90525-6.13485-38.9981-14.168v6.5732h-49.3711v-7.2314q-21.3252,11.02875-38.2695,14.3877l-4.8183-7.668q41.04195-10.00485,68.3574-33.4492l8.9824,2.9941a12.41979,12.41979,0,0,1-2.55658,2.5557Q1432.8261,371.08445,1470.51168,379.3378Zm-15.55658,41.8467H1348.914V386.9326H1454.9551Zm-8.68952,56.0879h-8.9824v-5.8428h-70.5488v5.8428h-8.9825V428.8525h88.5137Zm-48.7129-63.9756V395.039h-39.6562v18.2578Zm39.7305,33.0108v-9.4209h-70.5488v9.4209Zm0,17.2353v-9.5674h-70.5488v9.5674Zm-49.4434-57.4765-7.5215,5.2587a52.53826,52.53826,0,0,0-13.2929-10.1513l7.59572-4.3819A37.57717,37.57717,0,0,1,1387.83978,406.0664Zm35.4219-34.835a92.10356,92.10356,0,0,1-20.5234-14.9727,112.1227,112.1227,0,0,1-23.7344,14.9727Zm22.7129,42.0654V395.039H1406.5371v18.2578Zm-8.8379-13.9492q-4.30965,6.8658-13,11.6856l-8.0332-4.0166q9.56835-5.4039,13.1445-10.8096Z" fill="#333e48"/><path d="M732.6147,260.2431l-2.79,3.211q-12.53985-4.41075-23.8804-15.5411l.0601,11.7305h14.0102v25.7998h-3.81v-3.4492H691.9341v3.4492h-3.9307V259.6435h14.0703V247.913q-6.1794,9.4497-22.3203,14.7911l-2.8198-3.1807q14.30925-3.78075,20.4604-11.6104H680.3232v-3.75h21.7505v-5.79q-7.1697.72075-18,1.0498l-2.5801-3.6299q25.59015-.09075,40.8609-4.29l2.8799,2.8808a132.89585,132.89585,0,0,1-19.23,3.5098v6.2695h22.0503v3.75l-17.1905-.0595A63.95441,63.95441,0,0,0,732.6147,260.2431Zm-16.4101,8.4307v-5.2803H691.874v5.2803Zm0,9.6299v-5.9395H691.874v5.9395Z" fill="#333e48"/><path d="M768.70559,263.0029q-3.783,11.732-9.9004,19.2314l3.5088,2.2207a57.19879,57.19879,0,0,0,10.0215-19.2304Zm-6.3311-16.6494-2.5215,3.1504a22.19091,22.19091,0,0,1,9.4532,7.3193l2.6377-3.5693Q768.82524,249.082,762.37449,246.3535Zm2.939-13.4395-2.8193,2.8799a18.10529,18.10529,0,0,1,9.0913,6.959l2.8188-3.0303A18.39188,18.39188,0,0,0,765.31349,232.914Z" fill="#333e48"/><path d="M804.52489,272.125V260.8125a34.8321,34.8321,0,0,0,7.68169,5.5224l2.4604-3.332a25.76372,25.76372,0,0,1-12.24119-10.6192h10.25829v-3.6894H802.876v-7.1709h7.40919V237.832H802.876v-6.3272h-3.8115v6.3887h-11.1289v-6.3887h-3.812v6.3887h-7.3785v3.6885h7.44v7.1699h-9.7808v3.6924h9.9004q-3.328,6.2388-12.0298,10.3779l2.8189,3.3311a37.66256,37.66256,0,0,0,4.7407-3.2393v16.0811q0,5.1591,5.1597,5.1591h19.65029a4.79067,4.79067,0,0,0,3.7945-1.5888q1.3974-1.5909,2.1767-6.2695l-3.8701-1.7413q-.39105,3.75-1.1396,4.7989a2.34849,2.34849,0,0,1-2.00979,1.0507h-18.3017a1.45724,1.45724,0,0,1-1.6485-1.6513V272.125Zm-16.5893-30.6016h11.1899v7.1709h-11.1899Zm.3584,10.8603h10.2006a24.88431,24.88431,0,0,0,4.44,6.8116h-19.0498A21.15324,21.15324,0,0,0,788.294,252.3837Zm-4.648,10.5h17.0698v5.6104H783.646Z" fill="#333e48"/><path d="M896.29887,282.4443l-2.79,3.1191q-18.7515-10.22895-23.82079-34.4697Q863.417,275.725,844.128,285.5634l-3.0308-3.5693q19.11045-9.3003,24.211-30.8408h-20.4009v-3.8701h20.8506a153.56674,153.56674,0,0,0,.4805-15.7803l4.1699.6006q.1494,9.17865-.3604,15.1201h22.7408v3.8701h-18.9302Q877.45757,271.644,896.29887,282.4443Z" fill="#333e48"/><path d="M977.93046,274.6435h-24.1509v4.1709q0,6.6885-7.1099,6.6904h-3.9902l-1.4697-3.6904h5.5801q2.93912,0,2.9399-2.7002v-4.4707h-26.3403v-3.75h26.3403v-2.5801a37.47474,37.47474,0,0,0,8.9702-4.3799h-22.9804v-3.4501h29.6401v3.2695a91.571,91.571,0,0,1-11.5801,6.5107v.6299h24.1509Zm-2.5195-11.1299h-3.6001v-6.2099h-41.9117v6.5693h-3.9296V253.7939h5.1601V235.4931q4.2591-.419,9.32961-4.0498l1.98,2.7598a17.64764,17.64764,0,0,1-7.44,3.8105v2.5196h7.68019v3.1201h-7.68019v3.2705h7.68019v3.0596h-7.68019v3.8105h31.89119v-3.8105h-7.3204v-3h7.3204v-3.5098h-7.2603V240.413h7.2603v-3.2695h-8.4903v-3.6299H970.7v20.2198h4.711Zm-17.0108-23.2802-2.1006,2.5791a31.931,31.931,0,0,0-4.6494-3.5694,35.87066,35.87066,0,0,1-5.4604,3.75l-2.46-2.1592a23.8087,23.8087,0,0,0,5.0996-2.8203,52.47521,52.47521,0,0,0-5.9097-1.9209l1.5303-2.7597a55.39988,55.39988,0,0,1,6.69,2.1601,25.5578,25.5578,0,0,0,3.5698-4.1103l2.52051,2.0107a19.03576,19.03576,0,0,1-3.12011,3.6299A22.40922,22.40922,0,0,1,958.40016,240.2334Zm.3599,10.9199-2.52,1.9804a27.78384,27.78384,0,0,0-5.0401-3.0908,32.43927,32.43927,0,0,1-5.7602,3.0908l-2.2803-1.8007a29.66664,29.66664,0,0,0,5.55081-3.1797,30.45027,30.45027,0,0,0-5.10061-2.3399l2.2495-1.8906a37.50733,37.50733,0,0,1,5.2808,2.3106,25.61751,25.61751,0,0,0,3.3901-2.8799l2.7598,1.4101a15.05536,15.05536,0,0,1-3.42,3.2696A22.29708,22.29708,0,0,1,958.76006,251.1533Z" fill="#333e48"/><path d="M1060.6727,281.6337l-2.6406,3.5108q-15.26955-4.5-24.7793-12.1211-8.19435,6.69135-25.7422,12.3613l-2.9395-3.5703q16.98045-4.7094,25.6817-11.4307a40.86224,40.86224,0,0,1-11.7305-20.0703,33.11305,33.11305,0,0,1-4.4414,7.92l-3.1777-2.9092a39.65011,39.65011,0,0,0,6.0878-9.8711h-10.3203v-3.6895h24.0625V231.5029h3.8692v10.2002h24.4804v3.6904h-10.2617q-2.6982,15.6606-12.4199,24.9297Q1045.2518,277.044,1060.6727,281.6337Zm-15.8711-36.2402h-23.2188q2.39657,13.8897,11.7286,22.3506Q1042.4314,259.2538,1044.8016,245.3935Z" fill="#333e48"/><path d="M1141.85433,274.6435h-24.1524v4.1709q0,6.6885-7.10928,6.6904h-3.99032l-1.46868-3.6904h5.57808q2.94138,0,2.9414-2.7002v-4.4707h-26.3398v-3.75h26.3398v-2.5801a37.45138,37.45138,0,0,0,8.9688-4.3799h-22.9805v-3.4501h29.6406v3.2695a91.56255,91.56255,0,0,1-11.5801,6.5107v.6299h24.1524Zm-2.5195-11.1299h-3.6016v-6.2099h-41.9121v6.5693h-3.9297V253.7939h5.16022V235.4931q4.25967-.419,9.332-4.0498l1.97848,2.7598a17.64259,17.64259,0,0,1-7.4414,3.8105v2.5196h7.6816v3.1201h-7.6816v3.2705h7.6816v3.0596h-7.6816v3.8105h31.8926v-3.8105h-7.3223v-3h7.3223v-3.5098h-7.2598V240.413h7.2598v-3.2695h-8.4903v-3.6299h12.2989v20.2198h4.7129Zm-17.0118-23.2802-2.1015,2.5791a31.89488,31.89488,0,0,0-4.6485-3.5694,35.94954,35.94954,0,0,1-5.4609,3.75l-2.459-2.1592a23.83267,23.83267,0,0,0,5.0996-2.8203,52.68151,52.68151,0,0,0-5.91008-1.9209l1.53118-2.7597a55.443,55.443,0,0,1,6.6895,2.1601,25.471,25.471,0,0,0,3.56832-4.1103l2.52148,2.0107a19.118,19.118,0,0,1-3.1191,3.6299A22.43471,22.43471,0,0,1,1122.323,240.2334Zm.3594,10.9199-2.5195,1.9804a27.74254,27.74254,0,0,0-5.041-3.0908,32.41335,32.41335,0,0,1-5.7598,3.0908l-2.2812-1.8007a29.55135,29.55135,0,0,0,5.55072-3.1797,30.39484,30.39484,0,0,0-5.09962-2.3399l2.25-1.8906a37.54091,37.54091,0,0,1,5.2813,2.3106,25.47447,25.47447,0,0,0,3.3886-2.8799l2.7598,1.4101a15.04561,15.04561,0,0,1-3.418,3.2696A22.357,22.357,0,0,1,1122.68243,251.1533Z" fill="#333e48"/><path d="M1181.37882,251.9033q6.0615,6.81,6.0625,13.29a7.30743,7.30743,0,0,1-1.63678,5.0098,5.7613,5.7613,0,0,1-4.57422,1.8613,23.8163,23.8163,0,0,1-3.9004-.3896l-1.1093-3.9913a21.66107,21.66107,0,0,0,4.6191.8106,3.05279,3.05279,0,0,0,2.1309-.9004,3.13094,3.13094,0,0,0,.96092-2.4004,14.38168,14.38168,0,0,0-1.65042-5.7598,22.926,22.926,0,0,0-4.9512-6.6894l5.85162-15.0313h-8.91022v47.792h-3.9316V233.9033h16.8301v3.8095Zm41.373,22.5908a20.74626,20.74626,0,0,1-2.1015,7.0498,4.62318,4.62318,0,0,1-4.2891,2.1904h-4.67968q-4.68168,0-4.67972-4.9199V262.9443h-6.332q-.1788,9.6591-3.7637,14.4746-3.58587,4.815-13.30658,8.0859l-2.51962-3.4511q9.02943-2.66895,12.3907-6.9004,3.3603-4.2291,3.3906-12.1494h-8.22068v-3.9307h32.13278v3.8711h-10.0234v14.9404a2.28839,2.28839,0,0,0,.4804,1.3945,1.39655,1.39655,0,0,0,1.1407.6446h3.81052q1.16892,0,1.78518-1.9199a30.58468,30.58468,0,0,0,1.0351-4.9805Zm-3.4512-27.2109-3.8086.0605v-5.2812h-22.621v5.2812h-3.8711v-9.0908h13.1699v-6.8096h3.9316v6.75h13.1992Zm-5.039,5.79h-20.2813v-3.9297h20.2813Z" fill="#333e48"/><path d="M1305.77921,274.6435h-24.1523v4.1709q0,6.6885-7.1094,6.6904h-3.9903l-1.4707-3.6904h5.5801q2.9415,0,2.9414-2.7002v-4.4707h-26.3418v-3.75h26.3418v-2.5801a37.44921,37.44921,0,0,0,8.9688-4.3799h-22.9805v-3.4501h29.6406v3.2695a91.56912,91.56912,0,0,1-11.58,6.5107v.6299h24.1523Zm-2.52149-11.1299h-3.59961v-6.2099H1257.748v6.5693h-3.9317V253.7939h5.1621V235.4931q4.25685-.419,9.3281-4.0498l1.9805,2.7598a17.6455,17.6455,0,0,1-7.4394,3.8105v2.5196h7.6796v3.1201h-7.6796v3.2705h7.6796v3.0596h-7.6796v3.8105h31.8906v-3.8105h-7.3203v-3h7.3203v-3.5098h-7.2598V240.413h7.2598v-3.2695h-8.4902v-3.6299h12.2988v20.2198h4.71091ZM1286.248,240.2334l-2.1016,2.5791a31.92475,31.92475,0,0,0-4.6504-3.5694,35.83124,35.83124,0,0,1-5.459,3.75l-2.4609-2.1592a23.75449,23.75449,0,0,0,5.1015-2.8203,52.54993,52.54993,0,0,0-5.9101-1.9209l1.5293-2.7597a55.21551,55.21551,0,0,1,6.6894,2.1601,25.59388,25.59388,0,0,0,3.5723-4.1103l2.5195,2.0107a19.06039,19.06039,0,0,1-3.1211,3.6299A22.38746,22.38746,0,0,1,1286.248,240.2334Zm.3593,10.9199-2.5195,1.9804a27.85891,27.85891,0,0,0-5.03909-3.0908,32.44782,32.44782,0,0,1-5.76171,3.0908l-2.27929-1.8007a29.6832,29.6832,0,0,0,5.55079-3.1797,30.50585,30.50585,0,0,0-5.1016-2.3399l2.25-1.8906a37.40584,37.40584,0,0,1,5.2793,2.3106,25.56613,25.56613,0,0,0,3.3907-2.8799l2.7597,1.4101a15.05328,15.05328,0,0,1-3.41989,3.2696A22.27582,22.27582,0,0,1,1286.60731,251.1533Z" fill="#333e48"/><path d="M1387.9345,282.5039h-54.59972v-3.8692h25.4395V264.5634h-18.3301v-3.8701h18.3301V248.4531H1345.1845a31.93329,31.93329,0,0,1-8.22072,11.79l-3.959-2.0703a33.14593,33.14593,0,0,0,10.9492-22.2598l4.0508,1.17a45.01433,45.01433,0,0,1-1.4121,7.5605h12.123V231.5029h4.04882V244.583h21.17968v3.8701H1362.7645v12.1806h18.06058v3.8692H1362.7645v14.0713h25.17Z" fill="#333e48"/><path d="M1470.51168,245.333l-2.1582,3.1201q-10.23045-2.51955-16.0215-5.8194v2.6993h-20.2812v-2.9698a60.77611,60.77611,0,0,1-15.7188,5.9102l-1.9805-3.1504q16.86045-4.1103,28.0801-13.7402l3.68952,1.2304a5.13326,5.13326,0,0,1-1.04892,1.0498Q1455.03023,241.94375,1470.51168,245.333Zm-6.3887,17.1914h-43.5605V248.4531h43.5605Zm-3.5703,23.039h-3.6914V283.164h-28.9805v2.3994h-3.6894V265.6738h36.3613Zm-20.0117-26.2802v-7.5h-16.2891v7.5Zm16.3203,13.5605v-3.8701h-28.9805v3.8701Zm0,7.0801v-3.9297h-28.9805v3.9297Zm-20.3105-23.6104-3.0899,2.1602a21.60454,21.60454,0,0,0-5.459-4.1699l3.11922-1.7998A15.41269,15.41269,0,0,1,1436.55078,256.3134Zm14.5507-14.3095a37.81824,37.81824,0,0,1-8.4296-6.1514,46.117,46.117,0,0,1-9.75,6.1514Zm9.3301,17.2793v-7.5h-16.1992v7.5Zm-3.6289-5.7295a14.30523,14.30523,0,0,1-5.3418,4.7998l-3.29878-1.6494a15.5816,15.5816,0,0,0,5.40038-4.4405Z" fill="#333e48"/></g></svg>