<svg xmlns="http://www.w3.org/2000/svg" xmlns:xlink="http://www.w3.org/1999/xlink" viewBox="0 0 655.2676 708.668"><defs><clipPath id="a"><rect width="655.2676" height="708.668" fill="none"/></clipPath></defs><g clip-path="url(#a)"><path d="M158.4409,271.5723A210.6898,210.6898,0,0,0,142.271,338.998a20.762,20.762,0,0,1,27.3535.9571c7.3379-95.5918,87.2246-170.8714,184.7012-170.8714a13.67565,13.67565,0,0,0,0-27.3513A212.80451,212.80451,0,0,0,158.4409,271.5723Z" fill="#fff"/><path d="M339.1851,538.9687c-94.9551-7.6816-169.6719-86.9628-170.1016-183.7968a13.67575,13.67575,0,1,0-27.3515,0A212.43932,212.43932,0,0,0,338.0991,566.332a20.75406,20.75406,0,0,1,1.086-27.3633Z" fill="#fff"/><path d="M502.5269,487.4121a13.67652,13.67652,0,0,0-19.3418,0,184.6314,184.6314,0,0,1-128.8594,52.1758,13.6758,13.6758,0,0,0,0,27.3516A211.90052,211.90052,0,0,0,502.5269,506.752,13.6697,13.6697,0,0,0,502.5269,487.4121Z" fill="#fff"/><path d="M354.3257,566.9395a13.6758,13.6758,0,0,1,0-27.3516,184.6314,184.6314,0,0,0,128.8594-52.1758,13.676,13.676,0,1,1,19.3418,19.3399,211.90052,211.90052,0,0,1-148.2012,60.1875Zm-82.7656-16.7188A212.41318,212.41318,0,0,1,141.732,355.1719a13.67575,13.67575,0,1,1,27.3515,0c.4297,96.834,75.1465,176.1152,170.1016,183.7968a20.75406,20.75406,0,0,0-1.086,27.3633A210.71684,210.71684,0,0,1,271.5601,550.2207Zm82.7656-408.4883a13.67565,13.67565,0,0,1,0,27.3513c-97.4766,0-177.3633,75.2796-184.7012,170.8714a20.762,20.762,0,0,0-27.3535-.9571A212.43951,212.43951,0,0,1,354.3257,141.7324Z" fill="#fff"/><path d="M466.9116,241.75a159.22475,159.22475,0,1,0,46.6329,112.5859A158.17086,158.17086,0,0,0,466.9116,241.75Z" fill="#fff"/><path d="M242.1148,405.8262V302.8477h22.334v7.6113H251.5044v87.7539h12.9444v7.6133Z" fill="#333e48"/><path d="M466.5366,302.8477V405.8262H444.2085v-7.6133H457.147V310.459H444.2085v-7.6113Z" fill="#333e48"/><path d="M293.9859,375.2559q0,3.0849.0957,7.2714.09375,4.18365.2597,8.4961.15825,4.3125.3868,8.2403.2196,3.9258.5449,6.5625H282.0796V333.0957q0-9.39555-.3223-17.0234-.3192-7.629-.9667-13.2246h13.1953Z" fill="#333e48"/><path d="M351.5923,340.1758v8.4336H339.4917v48.7871h12.1006v8.4316h-36.042v-8.4316h11.9063V348.6094H315.5503v-8.4336Z" fill="#333e48"/><path d="M378.6265,340.1758a22.85639,22.85639,0,0,1,.7715,2.6738c.2597,1.0938.4922,2.2402.709,3.4414q.31635,1.8018.58,3.541l.5118,2.8926q6.1815-7.3359,12.4218-10.5859a27.8297,27.8297,0,0,1,13.003-3.25,22.834,22.834,0,0,1,9.1074,1.705A16.06547,16.06547,0,0,1,422.3941,346a26.48906,26.48906,0,0,1,4.0879,9.5918,62.93809,62.93809,0,0,1,1.3828,14.1934v28.9609a72.02927,72.02927,0,0,1-1.9004,18.0547,30.95471,30.95471,0,0,1-5.3086,11.4609,18.66528,18.66528,0,0,1-8.207,6.0469,30.57812,30.57812,0,0,1-10.6524,1.7715,23.023,23.023,0,0,1-6.2109-.9336,23.55671,23.55671,0,0,1-6.0176-2.6074l4.1836-9.6563a12.82006,12.82006,0,0,0,3.959,1.8359,17.58769,17.58769,0,0,0,5.0488.7383,14.54547,14.54547,0,0,0,5.54-.9961,9.22407,9.22407,0,0,0,4.1495-3.5058,19.226,19.226,0,0,0,2.6074-6.8887,56.87134,56.87134,0,0,0,.9004-11.1348V374.6113a78.43983,78.43983,0,0,0-.8047-12.5195,21.57411,21.57411,0,0,0-2.4151-7.4648,8.00836,8.00836,0,0,0-4.0244-3.5762,16.11067,16.11067,0,0,0-5.6289-.8985,15.09325,15.09325,0,0,0-6.7881,1.6446,24.99476,24.99476,0,0,0-6.0869,4.2461,31.58282,31.58282,0,0,0-4.8887,5.8886,27.06748,27.06748,0,0,0-3.1562,6.5645v37.332H370.2573v-39.584a100.47078,100.47078,0,0,0-1.0957-16.123,81.58915,81.58915,0,0,0-2.123-9.9453Z" fill="#333e48"/></g></svg>