<svg xmlns="http://www.w3.org/2000/svg" xmlns:xlink="http://www.w3.org/1999/xlink" viewBox="0 0 2893.9746 708.6612"><defs><clipPath id="a"><rect width="2893.9746" height="708.6612" fill="none"/></clipPath></defs><g clip-path="url(#a)"><text transform="translate(1812.59178 573.78129)" font-size="59.99992" fill="#fff" font-family="FiraSans-Bold, Fira Sans" font-weight="700">Se<tspan x="67.55859" y="0" letter-spacing="-0.00699em">s</tspan><tspan x="95.93896" y="0">sion 2020–2021</tspan></text><text transform="translate(214.89891 584.53129)" font-size="60" fill="#fff" font-family="SourceHanSansHC-Medium-B5pc-H, Source Han Sans HC"><tspan letter-spacing="0.10069em">二零二零至二零二一年</tspan><tspan x="660.41602" y="0">度</tspan></text><path d="M1093.7031,271.5704a210.68849,210.68849,0,0,0-16.1699,67.4228,20.76651,20.76651,0,0,1,27.3535.958c7.3379-95.5908,87.2227-170.8682,184.6953-170.8682a13.67525,13.67525,0,1,0,0-27.3505,212.8035,212.8035,0,0,0-195.8789,129.8379Z" fill="#fff"/><path d="M1274.4433,538.96c-94.9531-7.6826-169.6679-86.9619-170.0976-183.791a13.6758,13.6758,0,1,0-27.3516,0,212.43038,212.43038,0,0,0,196.3633,211.1523,20.75124,20.75124,0,0,1,1.0859-27.3613Z" fill="#fff"/><path d="M1437.7793,487.4034a13.67664,13.67664,0,0,0-19.3399,0,184.62736,184.62736,0,0,1-128.8574,52.1767,13.6748,13.6748,0,1,0,0,27.3496,211.9051,211.9051,0,0,0,148.1973-60.1845A13.672,13.672,0,0,0,1437.7793,487.4034Z" fill="#fff"/><path d="M1289.582,566.9297a13.6748,13.6748,0,1,1,0-27.3496,184.62736,184.62736,0,0,0,128.8574-52.1767,13.676,13.676,0,0,1,19.3399,19.3418,211.9051,211.9051,0,0,1-148.1973,60.1845Zm-82.7637-16.7187a212.41321,212.41321,0,0,1-129.8242-195.042,13.6758,13.6758,0,1,1,27.3516,0c.4297,96.8291,75.1445,176.1084,170.0976,183.791a20.75124,20.75124,0,0,0-1.0859,27.3613A210.73716,210.73716,0,0,1,1206.8183,550.211Zm82.7637-408.4785a13.67525,13.67525,0,1,1,0,27.3505c-97.4726,0-177.3574,75.2774-184.6953,170.8682a20.76651,20.76651,0,0,0-27.3535-.958A212.43353,212.43353,0,0,1,1289.582,141.7325Z" fill="#fff"/><path d="M1402.166,241.7481a159.22245,159.22245,0,1,0,46.6309,112.584A158.16785,158.16785,0,0,0,1402.166,241.7481Z" fill="#fff"/><path d="M1177.375,405.8204V302.8438h22.332v7.6133h-12.9433V398.208h12.9433v7.6124Z" fill="#333e48"/><path d="M1401.791,302.8438V405.8204h-22.3281V398.208h12.9375V310.4571h-12.9375v-7.6133Z" fill="#333e48"/><path d="M1229.2441,375.25q0,3.0879.0957,7.2715.09375,4.18515.2598,8.4981.15825,4.3095.3867,8.2373.21975,3.92715.5449,6.5635h-13.1933V333.0909q0-9.39555-.3223-17.0205-.31935-7.6305-.9668-13.2266h13.1953Z" fill="#333e48"/><path d="M1286.8496,340.1719v8.4336H1274.75v48.7842h12.0996v8.4316h-36.041v-8.4316h11.9062V348.6055h-11.9062v-8.4336Z" fill="#333e48"/><path d="M1313.8828,340.1719a22.83684,22.83684,0,0,1,.7715,2.6738c.2597,1.0928.4922,2.2393.709,3.4405q.31635,1.80165.58,3.541l.5118,2.8935q6.18165-7.3344,12.4218-10.5849a27.81906,27.81906,0,0,1,13.002-3.252,22.83042,22.83042,0,0,1,9.1074,1.7061,16.059,16.059,0,0,1,6.6621,5.4062,26.46492,26.46492,0,0,1,4.0879,9.5918,62.92058,62.92058,0,0,1,1.3828,14.1934v28.958a72.0191,72.0191,0,0,1-1.9004,18.0547,30.94549,30.94549,0,0,1-5.3086,11.4609,18.64157,18.64157,0,0,1-8.205,6.0459,30.53184,30.53184,0,0,1-10.6524,1.7715,23.01282,23.01282,0,0,1-6.2109-.9336,23.48508,23.48508,0,0,1-6.0176-2.6064l4.1836-9.6543a12.87822,12.87822,0,0,0,3.959,1.8359,17.62141,17.62141,0,0,0,5.0488.7373,14.5567,14.5567,0,0,0,5.5391-.9961,9.23534,9.23534,0,0,0,4.1504-3.5068,19.21274,19.21274,0,0,0,2.6074-6.8877,56.87134,56.87134,0,0,0,.9004-11.1348V374.6065a78.40145,78.40145,0,0,0-.8047-12.5186,21.56067,21.56067,0,0,0-2.416-7.4658,8.00326,8.00326,0,0,0-4.0235-3.5742,16.11343,16.11343,0,0,0-5.6289-.8994,15.12453,15.12453,0,0,0-6.789,1.6435,25.03472,25.03472,0,0,0-6.086,4.2461,31.56917,31.56917,0,0,0-4.8886,5.8877,27.0449,27.0449,0,0,0-3.1563,6.5645v37.331h-11.9062v-39.583a100.45831,100.45831,0,0,0-1.0958-16.1221,81.61189,81.61189,0,0,0-2.123-9.9443Z" fill="#333e48"/><path d="M196.7256,379.627H141.7324v-9.1289h54.9932Zm-7.1573,97.2051h-9.4209V466.8262H158.164v10.0059h-9.5673V427.4629h40.9716Zm-.4384-78.3633-40.3868.1465v-9.1289h40.3868Zm.1464,19.1348H148.7431v-9.129h40.5332Zm-1.8261-56.5274-37.0996.1465v-9.1289h37.0996Zm-7.3028,96.7676V436.4454H158.0185v21.3984ZM274.5039,417.75l-78.9473.1446v-8.9825h19.5723l4.2363-22.5664H201.1074v-8.9824h19.7188l3.1396-16.7246H195.9951v-9.1289h72.5205v8.9824H233.8252l-2.9942,16.7246h30.0899l-3.1406,31.5489h16.7236Zm-12.708,59.375H252.376v-9.8593H215.4209v9.8593h-9.5664V427.6094h55.9414Zm-9.4199-18.8437V436.5918H215.2754v21.6895Zm-1.461-72.082H229.2236l-4.2344,22.7128h23.6621Z" fill="#fff"/><path d="M439.1758,379.627H306.4043v-9.1289H439.1758Zm-19.5723,18.6953H324.6601v-8.8359h94.9434Zm0,18.9883H324.6601v-8.836h94.9434Zm-3.4336,59.8144H406.75V466.8262H338.2461V477.125h-9.4219V427.4629h87.3457Zm-.1445-116.998-86.4707.2187v-8.8359h86.4707ZM406.75,457.8438V436.4454H338.2461v21.3984Z" fill="#fff"/><path d="M603.8486,450.6875h-58.791v10.1504q0,16.28625-17.3105,16.2871h-9.7129l-3.5782-8.9824H528.04q7.15725,0,7.1582-6.5742V450.6875h-64.123v-9.1289h64.123v-6.2812q15.26085-5.6982,21.836-10.6621H501.0908v-8.4004H573.249v7.9609a223.53778,223.53778,0,0,1-28.1914,15.8477v1.5351h58.791Zm-6.1348-27.0957h-8.7656V408.4746H486.9248v15.9942h-9.5694V399.9297H489.917V355.3789q10.36815-1.0194,22.7148-9.8574l4.8203,6.7188q-6.6504,6.1347-18.1133,9.2754v6.1347h18.6954v7.5957H499.3388v7.959h18.6954v7.4492H499.3388v9.2754h77.6329v-9.2754H559.1513v-7.3027h17.8204v-8.5449H559.2978v-7.4492h17.6739v-7.961h-20.668v-8.8359h29.9434v49.2226h11.4667ZM556.3037,366.92l-5.1113,6.2793a77.95622,77.95622,0,0,0-11.3203-8.6895,87.43828,87.43828,0,0,1-13.293,9.1289l-5.9883-5.2598a57.85511,57.85511,0,0,0,12.416-6.8632,126.9897,126.9897,0,0,0-14.3887-4.6739l3.7266-6.7207a134.92736,134.92736,0,0,1,16.2852,5.2578,62.23128,62.23128,0,0,0,8.6914-10.0039l6.1347,4.8926a46.30238,46.30238,0,0,1-7.5957,8.8379A54.458,54.458,0,0,1,556.3037,366.92Zm.875,26.582-6.1328,4.8203a67.66515,67.66515,0,0,0-12.2696-7.5215q-3.94335,2.99415-14.0214,7.5215l-5.5508-4.3809q9.41895-4.45305,13.5117-7.7421a74.28938,74.28938,0,0,0-12.416-5.6973l5.4765-4.5996a91.19782,91.19782,0,0,1,12.8536,5.623q2.042-1.16595,8.2519-7.0117l6.7188,3.4336a36.64263,36.64263,0,0,1-8.3243,7.9609A54.27848,54.27848,0,0,1,557.1787,393.502Z" fill="#fff"/><path d="M768.373,450.6875H709.582v10.1504q0,16.28625-17.3086,16.2871h-9.7129l-3.5781-8.9824h13.584q7.15425,0,7.1562-6.5742V450.6875H635.6015v-9.1289h64.1211v-6.2812q15.2637-5.6982,21.8379-10.6621H665.6172v-8.4004h72.1562v7.9609a223.39579,223.39579,0,0,1-28.1914,15.8477v1.5351h58.791Zm-6.1328-27.0957h-8.7676V408.4746H651.4492v15.9942h-9.5664V399.9297h12.5605V355.3789q10.37115-1.0194,22.7129-9.8574l4.8203,6.7188q-6.6444,6.1347-18.1132,9.2754v6.1347h18.6972v7.5957H663.8633v7.959h18.6972v7.4492H663.8633v9.2754h77.6328v-9.2754H723.6777v-7.3027h17.8184v-8.5449H723.8222v-7.4492h17.6739v-7.961h-20.668v-8.8359h29.9434v49.2226h11.4687Zm-38.8105-31.7285-6.6543,6.084c-3.0371-4.5625-7.3828-10.2754-11.586-13.8242q-9.7998,10.91895-16.1054,13.8945l-6.584-5.5293q7.4238-3.5331,16.1074-13.2031-9.876-6.1524-14.0762-7.6055l5.7442-5.9414q3.501,1.38285,13.166,7.1895a41.81651,41.81651,0,0,0,4.4805-10.3008H685.9316v-8.6387h11.7891v-8.8965h7.5664v8.8965h13.9922v8.6387h-2.7696a55.02,55.02,0,0,1-6.2753,14.8633C715.3242,381.3594,720.209,387.2559,723.4297,391.8633Z" fill="#fff"/><path d="M935.3086,379.336l-5.2578,7.5937q-24.9054-6.1347-38.9981-14.1679v6.5742H841.6816v-7.2324q-21.3252,11.03025-38.2695,14.3886l-4.8184-7.6679q41.0421-10.005,68.3575-33.4493l8.9824,2.9942a12.41024,12.41024,0,0,1-2.5567,2.5547Q897.62305,371.083,935.3086,379.336Zm-15.5567,41.8457H813.7109v-34.252h106.041Zm-8.6894,56.0879h-8.9824v-5.8418H831.5312v5.8418h-8.9824v-48.42h88.5137ZM862.3496,413.295V395.0371H822.6933V413.295Zm39.7305,33.0097v-9.4199H831.5312v9.4199Zm0,17.2364v-9.5684H831.5312v9.5684Zm-49.4434-57.4766-7.5215,5.2578a52.55426,52.55426,0,0,0-13.293-10.1504l7.5957-4.3828A37.57879,37.57879,0,0,1,852.6367,406.0645Zm35.4219-34.8359a92.07835,92.07835,0,0,1-20.5235-14.9727,112.086,112.086,0,0,1-23.7343,14.9727Zm22.7129,42.0664V395.0371H871.334V413.295Zm-8.8379-13.9493q-4.30965,6.8643-13,11.6856l-8.0332-4.0176q9.56835-5.4024,13.1445-10.8086Z" fill="#fff"/><path d="M197.4131,260.2403l-2.7891,3.2109q-12.54045-4.4091-23.8809-15.541l.0606,11.7305h14.0098v25.8007h-3.8106v-3.4492H156.7334v3.4492h-3.9317V259.6407h14.0704V247.9102q-6.1788,9.4512-22.3204,14.791l-2.8193-3.1797q14.31-3.78225,20.46-11.6113H145.1221v-3.75h21.75v-5.7891q-7.16895.72075-18,1.0489l-2.5801-3.6289q25.59075-.0909,40.8613-4.2911l2.8799,2.8809a132.91206,132.91206,0,0,1-19.2295,3.5098v6.2695h22.0498v3.75l-17.1904-.0586A63.95451,63.95451,0,0,0,197.4131,260.2403Zm-16.4102,8.4316v-5.2812H156.6728v5.2812Zm0,9.6289v-5.9394H156.6728v5.9394Z" fill="#fff"/><path d="M233.50375,263q-3.78225,11.73345-9.9004,19.2325l3.5098,2.2207a57.24149,57.24149,0,0,0,10.0215-19.2305Zm-6.33-16.6484-2.5215,3.1504a22.19244,22.19244,0,0,1,9.4531,7.3184l2.6367-3.5684Q233.6249,249.08,227.17375,246.3516Zm2.9384-13.4395-2.8193,2.879a18.114,18.114,0,0,1,9.0918,6.9589l2.8183-3.0293A18.38666,18.38666,0,0,0,230.11215,232.9121Z" fill="#fff"/><path d="M269.32405,272.1231V260.8106a34.81626,34.81626,0,0,0,7.6817,5.5215L279.46565,263a25.7537,25.7537,0,0,1-12.2412-10.6191h10.2578v-3.6895h-9.8076v-7.1699h7.4092v-3.6914h-7.4092V231.502h-3.8115v6.3887h-11.1289V231.502h-3.8125v6.3887h-7.3779v3.6894h7.4404V248.75H239.203v3.6914h9.9004q-3.32805,6.2403-12.0293,10.379l2.8184,3.33a37.615,37.615,0,0,0,4.7402-3.2383v16.0801q0,5.15925,5.1602,5.1602h19.6504a4.78993,4.78993,0,0,0,3.7949-1.5899q1.3974-1.59075,2.1758-6.2695l-3.8692-1.7402q-.39255,3.75-1.1406,4.7988a2.3471,2.3471,0,0,1-2.0097,1.0508h-18.3008a1.45777,1.45777,0,0,1-1.6485-1.6524v-6.6269Zm-16.5898-30.6016h11.1895v7.1699h-11.1895Zm.3584,10.8594h10.2002a24.92734,24.92734,0,0,0,4.4404,6.8125h-19.0498A21.14211,21.14211,0,0,0,253.09265,252.3809Zm-4.6475,10.5h17.0694v5.6113h-17.0694Z" fill="#fff"/><path d="M361.09685,282.4414l-2.7891,3.1192q-18.753-10.2276-23.8223-34.4688-6.26955,24.63-25.5586,34.4688l-3.0312-3.5684q19.1103-9.30165,24.2109-30.8418h-20.4004v-3.8691h20.8496a153.55826,153.55826,0,0,0,.4805-15.7813l4.1699.6016q.1494,9.17865-.3593,15.1191H357.587v3.8711h-18.9297Q342.255,271.64075,361.09685,282.4414Z" fill="#fff"/><path d="M442.7285,274.6407H418.5781v4.1718q0,6.6885-7.1113,6.6895h-3.9902l-1.4688-3.6895h5.5801q2.9385,0,2.9395-2.7011v-4.4707H388.1875v-3.75h26.3399v-2.5801a37.51881,37.51881,0,0,0,8.9707-4.3789H400.5176v-3.4512h29.6406V263.75a91.82375,91.82375,0,0,1-11.5801,6.5118v.6289h24.1504Zm-2.5195-11.1289h-3.5996v-6.211H394.6973v6.5703h-3.9297v-10.08h5.1602V235.4903q4.2597-.41895,9.33-4.0489l1.9785,2.7598a17.65623,17.65623,0,0,1-7.4394,3.8106v2.5195h7.6797v3.1191h-7.6797v3.2715h7.6797v3.0586h-7.6797v3.8106h31.8906v-3.8106h-7.3203v-3h7.3203v-3.5098h-7.2597v-3.0605h7.2597v-3.2695h-8.4902v-3.6289h12.3008v20.2187h4.7109Zm-17.0117-23.2813-2.0996,2.5801a31.993,31.993,0,0,0-4.6504-3.5703,35.70731,35.70731,0,0,1-5.459,3.75l-2.4609-2.1582a23.79825,23.79825,0,0,0,5.0996-2.8203,52.63243,52.63243,0,0,0-5.9102-1.9219l1.5313-2.7598a55.63906,55.63906,0,0,1,6.6894,2.1602,25.5345,25.5345,0,0,0,3.5703-4.1094l2.5196,2.0098a19.02332,19.02332,0,0,1-3.1192,3.6308A22.436,22.436,0,0,1,423.1973,240.2305Zm.3613,10.9199-2.5215,1.9805a27.71853,27.71853,0,0,0-5.039-3.0898,32.42561,32.42561,0,0,1-5.7598,3.0898l-2.2812-1.8008a29.62276,29.62276,0,0,0,5.5507-3.1797,30.627,30.627,0,0,0-5.0996-2.3398l2.2481-1.8906a37.45456,37.45456,0,0,1,5.2812,2.3105,25.59776,25.59776,0,0,0,3.3906-2.8789l2.7598,1.4102a15.07644,15.07644,0,0,1-3.4199,3.2695A22.32068,22.32068,0,0,1,423.5586,251.1504Z" fill="#fff"/><path d="M525.4705,281.6309l-2.6406,3.5117q-15.26955-4.5-24.7793-12.1211-8.19435,6.6915-25.7422,12.3614l-2.9394-3.5704q16.98045-4.7109,25.6816-11.4316a40.86244,40.86244,0,0,1-11.7304-20.0703,33.09217,33.09217,0,0,1-4.4415,7.9199l-3.1777-2.9082a39.66678,39.66678,0,0,0,6.0879-9.8711H471.4686v-3.6894h24.0625V231.5h3.8691v10.2012h24.4805v3.6895H513.619q-2.6982,15.6621-12.4199,24.9297Q510.0497,277.041,525.4705,281.6309Zm-15.871-36.2402H486.3807q2.39655,13.88955,11.7285,22.3515Q507.22935,259.25205,509.5995,245.3907Z" fill="#fff"/><path d="M606.65155,274.6407h-24.1524v4.1718q0,6.6885-7.1094,6.6895h-3.9902l-1.4687-3.6895h5.5781q2.94135,0,2.9414-2.7011v-4.4707h-26.3389v-3.75h26.3389v-2.5801a37.45726,37.45726,0,0,0,8.9687-4.3789h-22.9804v-3.4512h29.6406V263.75a91.689,91.689,0,0,1-11.5801,6.5118v.6289h24.1524Zm-2.5196-11.1289h-3.6015v-6.211h-41.9121v6.5703h-3.9297v-10.08h5.1601V235.4903q4.25985-.41895,9.3321-4.0489l1.9785,2.7598a17.66539,17.66539,0,0,1-7.4414,3.8106v2.5195h7.6816v3.1191H563.718v3.2715h7.6816v3.0586H563.718v3.8106h31.8926v-3.8106h-7.3223v-3h7.3223v-3.5098h-7.2598v-3.0605h7.2598v-3.2695h-8.4903v-3.6289h12.2988v20.2187h4.7129Zm-17.0117-23.2813-2.1015,2.5801a31.963,31.963,0,0,0-4.6485-3.5703,35.82087,35.82087,0,0,1-5.4609,3.75l-2.459-2.1582a23.84426,23.84426,0,0,0,5.0996-2.8203,52.88407,52.88407,0,0,0-5.9102-1.9219l1.5313-2.7598a55.64622,55.64622,0,0,1,6.6895,2.1602,25.42376,25.42376,0,0,0,3.5683-4.1094l2.5215,2.0098a19.09435,19.09435,0,0,1-3.1191,3.6308A22.43236,22.43236,0,0,1,587.12025,240.2305Zm.3594,10.9199-2.5195,1.9805a27.73387,27.73387,0,0,0-5.0411-3.0898,32.42379,32.42379,0,0,1-5.7597,3.0898l-2.2813-1.8008a29.48705,29.48705,0,0,0,5.5508-3.1797,30.5492,30.5492,0,0,0-5.0996-2.3398l2.25-1.8906a37.55928,37.55928,0,0,1,5.2813,2.3105,25.51023,25.51023,0,0,0,3.3886-2.8789l2.7598,1.4102a15.06892,15.06892,0,0,1-3.418,3.2695A22.35733,22.35733,0,0,1,587.47965,251.1504Z" fill="#fff"/><path d="M646.1762,251.9004q6.06165,6.8115,6.0625,13.291a7.31044,7.31044,0,0,1-1.6367,5.0098,5.76474,5.76474,0,0,1-4.5742,1.8613,23.70714,23.70714,0,0,1-3.9004-.3906l-1.1094-3.9902a21.66632,21.66632,0,0,0,4.6192.8105,3.05239,3.05239,0,0,0,2.1308-.9004,3.13213,3.13213,0,0,0,.961-2.4004,14.37236,14.37236,0,0,0-1.6504-5.7597,22.92852,22.92852,0,0,0-4.9512-6.6895l5.8516-15.0312h-8.9102v47.791h-3.9316V233.9004h16.8301v3.8106Zm41.3731,22.5918a20.73664,20.73664,0,0,1-2.1016,7.0489,4.62188,4.62188,0,0,1-4.289,2.1914H676.479q-4.68165,0-4.6797-4.92V262.9414h-6.332q-.1788,9.65925-3.7637,14.4747-3.5859,4.81635-13.3067,8.0859l-2.5195-3.4512q9.02925-2.66895,12.3906-6.9004,3.36045-4.22745,3.3907-12.1484H653.438v-3.9316h32.1328v3.871H675.5473v14.9415a2.29085,2.29085,0,0,0,.4805,1.3945,1.39889,1.39889,0,0,0,1.1406.6445h3.8106q1.16895,0,1.7851-1.9199a30.59409,30.59409,0,0,0,1.0352-4.9805Zm-3.4512-27.2109-3.8086.0605v-5.2812H657.6684v5.2812h-3.8711V238.25h13.17v-6.8086h3.9316v6.75h13.1992Zm-5.039,5.7891H658.7778v-3.9297h20.2813Z" fill="#fff"/><path d="M770.5765,274.6407H746.4241v4.1718q0,6.6885-7.1093,6.6895h-3.9903l-1.4707-3.6895h5.5801q2.94135,0,2.9414-2.7011v-4.4707H716.0335v-3.75h26.3418v-2.5801a37.46034,37.46034,0,0,0,8.9688-4.3789H728.3636v-3.4512h29.6406V263.75a91.689,91.689,0,0,1-11.5801,6.5118v.6289h24.1524Zm-2.5215-11.1289h-3.5996v-6.211H722.5452v6.5703h-3.9316v-10.08h5.1621V235.4903q4.25685-.41895,9.3281-4.0489l1.9805,2.7598a17.6682,17.6682,0,0,1-7.4395,3.8106v2.5195h7.6797v3.1191h-7.6797v3.2715h7.6797v3.0586h-7.6797v3.8106h31.8907v-3.8106h-7.3203v-3h7.3203v-3.5098h-7.2598v-3.0605h7.2598v-3.2695h-8.4903v-3.6289h12.2989v20.2187h4.7109Zm-17.0098-23.2813-2.1015,2.5801a31.99849,31.99849,0,0,0-4.6504-3.5703,35.70731,35.70731,0,0,1-5.459,3.75l-2.4609-2.1582a23.76576,23.76576,0,0,0,5.1015-2.8203,52.75747,52.75747,0,0,0-5.9101-1.9219l1.5293-2.7598a55.41591,55.41591,0,0,1,6.6894,2.1602,25.55634,25.55634,0,0,0,3.5723-4.1094l2.5195,2.0098a19.03687,19.03687,0,0,1-3.1211,3.6308A22.38148,22.38148,0,0,1,751.0452,240.2305Zm.3594,10.9199-2.5195,1.9805a27.85293,27.85293,0,0,0-5.0391-3.0898,32.46029,32.46029,0,0,1-5.7617,3.0898l-2.2793-1.8008a29.62094,29.62094,0,0,0,5.5508-3.1797,30.66239,30.66239,0,0,0-5.1016-2.3398l2.25-1.8906a37.41794,37.41794,0,0,1,5.2793,2.3105,25.59776,25.59776,0,0,0,3.3906-2.8789l2.7598,1.4102a15.0785,15.0785,0,0,1-3.4199,3.2695A22.27622,22.27622,0,0,1,751.4046,251.1504Z" fill="#fff"/><path d="M852.7316,282.502H798.132v-3.8691h25.4395V264.5606H805.2414v-3.8692h18.3301V248.4512H809.9816a31.927,31.927,0,0,1-8.2207,11.7891l-3.959-2.0703a33.14247,33.14247,0,0,0,10.9493-22.2598l4.0507,1.1699a44.97686,44.97686,0,0,1-1.4121,7.5606h12.1231V231.5h4.0488v13.0801h21.1797v3.8711H827.5617v12.1797h18.0606V264.5H827.5617v14.0723h25.1699Z" fill="#fff"/><path d="M935.3086,245.3301l-2.1582,3.1211q-10.23045-2.51955-16.0215-5.8203v2.6992H896.8476v-2.9687a60.81028,60.81028,0,0,1-15.7187,5.9101l-1.9805-3.1504q16.86045-4.1103,28.0801-13.7402l3.6894,1.2305a5.12344,5.12344,0,0,1-1.0488,1.0488Q919.82715,241.94245,935.3086,245.3301Zm-6.3887,17.1914H885.3594V248.4512h43.5605Zm-3.5703,23.0391h-3.6914v-2.3985H892.6777v2.3985h-3.6894V265.6719h36.3613Zm-20.0117-26.2793v-7.5H889.0488v7.5Zm16.3203,13.5605v-3.8711H892.6777v3.8711Zm0,7.0801v-3.9297H892.6777v3.9297Zm-20.3106-23.6113-3.0898,2.1601a21.60454,21.60454,0,0,0-5.459-4.1699l3.1191-1.7988A15.40908,15.40908,0,0,1,901.3476,256.3106Zm14.5508-14.3086a37.78616,37.78616,0,0,1-8.4297-6.1524,46.15806,46.15806,0,0,1-9.75,6.1524Zm9.3301,17.2793v-7.5H909.0293v7.5Zm-3.6289-5.7305a14.299,14.299,0,0,1-5.3418,4.8008l-3.2988-1.6504a15.59157,15.59157,0,0,0,5.4004-4.4394Z" fill="#fff"/><path d="M1561.9277,336.834V236.3623h12.0908v89.8194h42.751V336.834Z" fill="#fff"/><path d="M1638.6474,245.1426q-3.7455,0-5.3974-1.7988a6.63037,6.63037,0,0,1-1.6563-4.6787V236.794a6.63844,6.63844,0,0,1,1.6563-4.6787q1.65225-1.79745,5.3974-1.7989,3.7413,0,5.3975,1.7989a6.64686,6.64686,0,0,1,1.6553,4.6787v1.8711a6.63877,6.63877,0,0,1-1.6553,4.6787Q1642.38965,245.1456,1638.6474,245.1426Zm-5.7578,17.418h11.5157V336.834h-11.5157Z" fill="#fff"/><path d="M1668.875,336.834V262.5606h11.5156v11.9531h.5762a24.20225,24.20225,0,0,1,7.7002-9.9746q4.96725-3.70455,13.3144-3.707,11.5152,0,18.209,7.4131,6.69285,7.41495,6.6934,20.9443V336.834h-11.5147V291.1055q0-20.05365-16.8418-20.0527a25.88735,25.88735,0,0,0-6.6933.8652,19.46823,19.46823,0,0,0-5.8301,2.5977,12.83763,12.83763,0,0,0-4.1016,4.3994,12.518,12.518,0,0,0-1.5117,6.2744V336.834Z" fill="#fff"/><path d="M1809.6494,334.3868q0,15.3999-8.6367,24.1816-8.6367,8.78025-24.3262,8.7812a39.36679,39.36679,0,0,1-15.6182-2.8183,31.88975,31.88975,0,0,1-10.8671-7.4473l6.7656-7.9521a26.13409,26.13409,0,0,0,8.6367,5.9267,28.98085,28.98085,0,0,0,11.3711,2.0703q10.0737,0,15.6172-5.5634,5.54-5.57085,5.542-16.4112V324.8799h-.5752a24.44915,24.44915,0,0,1-8.6367,10.2598,23.75006,23.75006,0,0,1-13.0997,3.4209,28.24161,28.24161,0,0,1-12.5224-2.7344,26.53257,26.53257,0,0,1-9.5-7.7725,37.40377,37.40377,0,0,1-6.0459-12.2353,61.2927,61.2927,0,0,1,0-32.2432,37.4345,37.4345,0,0,1,6.0459-12.2353,26.56388,26.56388,0,0,1,9.5-7.7725,28.22972,28.22972,0,0,1,12.5224-2.7353,25.287,25.287,0,0,1,13.3155,3.3496,20.90393,20.90393,0,0,1,8.4209,10.332h.5752V262.5606h11.5156Zm-30.3721-6.0459a25.957,25.957,0,0,0,7.3418-1.0127,17.7974,17.7974,0,0,0,5.9727-2.9659,14.84716,14.84716,0,0,0,4.0312-4.7724,13.74354,13.74354,0,0,0,1.5108-6.583V285.375a11.91651,11.91651,0,0,0-1.4395-5.7158,13.50385,13.50385,0,0,0-4.0303-4.5556,20.854,20.854,0,0,0-6.0449-2.9649,24.32616,24.32616,0,0,0-7.3418-1.0859q-9.79095,0-15.5449,6.2207-5.7597,6.2211-5.7578,16.0586v12.7295q0,9.8379,5.7578,16.0586Q1769.48625,328.3413,1779.2773,328.3409Z" fill="#fff"/><path d="M1879.8906,324.8799h-.5762a35.34766,35.34766,0,0,1-2.8066,5.0606,18.89844,18.89844,0,0,1-4.1016,4.417,19.2319,19.2319,0,0,1-5.9023,3.0634,25.76221,25.76221,0,0,1-8.0606,1.1397q-11.51655,0-18.2802-7.4131-6.7677-7.4106-6.7657-20.9424V262.5606h11.5157v45.7275q0,20.0523,16.9853,20.0528a25.72629,25.72629,0,0,0,6.6934-.8663,18.47251,18.47251,0,0,0,5.7578-2.5947,13.11068,13.11068,0,0,0,4.0293-4.3994,12.83091,12.83091,0,0,0,1.5117-6.4219v-51.498h11.5156V336.834h-11.5156Z" fill="#fff"/><path d="M1921.6328,245.1426q-3.74415,0-5.3975-1.7988a6.62972,6.62972,0,0,1-1.6552-4.6787V236.794a6.63778,6.63778,0,0,1,1.6552-4.6787q1.6539-1.79745,5.3975-1.7989,3.74115,0,5.3984,1.7989a6.65033,6.65033,0,0,1,1.6543,4.6787v1.8711a6.64223,6.64223,0,0,1-1.6543,4.6787Q1925.37445,245.1456,1921.6328,245.1426Zm-5.7578,17.418h11.5156V336.834H1915.875Z" fill="#fff"/><path d="M1974.1719,338.5606q-10.3638,0-17.3448-3.958a39.418,39.418,0,0,1-12.0195-10.5801l8.2041-6.6211a32.24291,32.24291,0,0,0,9.6445,8.4199,25.10625,25.10625,0,0,0,12.3789,2.9522q7.3419,0,11.4434-3.167a11.50417,11.50417,0,0,0,1.2959-16.3379q-2.80815-3.09375-10.1475-4.2461l-5.9023-.8643a49.126,49.126,0,0,1-9.5-2.2304,26.40035,26.40035,0,0,1-7.5567-4.0303,17.29252,17.29252,0,0,1-5.038-6.2617,20.39438,20.39438,0,0,1-1.7998-8.9238,21.44387,21.44387,0,0,1,2.0156-9.5733,19.26849,19.26849,0,0,1,5.542-6.8359,24.21454,24.21454,0,0,1,8.4199-4.1026,38.92389,38.92389,0,0,1,10.5088-1.3681q9.06735,0,15.1855,3.167a34.08988,34.08988,0,0,1,10.7237,8.7802l-7.6299,6.9092a22.90284,22.90284,0,0,0-7.1963-6.2607,23.17838,23.17838,0,0,0-11.9473-2.8076q-7.1997,0-10.8681,3.0947a10.442,10.442,0,0,0-3.67,8.4209q0,5.4726,3.67,7.917,3.6708,2.4492,10.58,3.5986l5.7579.8633q12.37785,1.872,17.5605,7.125,5.18265,5.25735,5.1826,13.7461,0,10.7958-7.3408,16.9853Q1986.98245,338.5631,1974.1719,338.5606Z" fill="#fff"/><path d="M2037.3633,336.834q-6.04395,0-9.1397-3.374a12.55346,12.55346,0,0,1-3.0947-8.835V272.7793h-12.2354V262.5606h6.9092q3.7413,0,5.1104-1.5127,1.36665-1.5102,1.3672-5.2529V241.9756h10.3642v20.585h16.2656v10.2187h-16.2656v53.835h15.1133V336.834Z" fill="#fff"/><path d="M2077.2353,245.1426q-3.74415,0-5.3974-1.7988a6.62978,6.62978,0,0,1-1.6553-4.6787V236.794a6.63784,6.63784,0,0,1,1.6553-4.6787q1.65225-1.79745,5.3974-1.7989,3.74265,0,5.3975,1.7989a6.6474,6.6474,0,0,1,1.6562,4.6787v1.8711a6.63931,6.63931,0,0,1-1.6562,4.6787Q2080.97755,245.1456,2077.2353,245.1426Zm-5.7578,17.418h11.5156V336.834h-11.5156Z" fill="#fff"/><path d="M2135.0996,338.5606a34.227,34.227,0,0,1-13.9619-2.7344,28.48132,28.48132,0,0,1-10.4356-7.7725,34.58677,34.58677,0,0,1-6.4775-12.2353,59.37707,59.37707,0,0,1,0-32.2432,34.61351,34.61351,0,0,1,6.4775-12.2353,28.51454,28.51454,0,0,1,10.4356-7.7725,34.21234,34.21234,0,0,1,13.9619-2.7353q11.083,0,17.7773,4.8222a29.43589,29.43589,0,0,1,10.0039,12.5948l-9.6445,4.8945a17.48973,17.48973,0,0,0-6.6211-8.9248,19.876,19.876,0,0,0-11.5156-3.166,23.0398,23.0398,0,0,0-9.0684,1.6543,17.72249,17.72249,0,0,0-6.4765,4.6074,19.374,19.374,0,0,0-3.8868,7.0527,29.76825,29.76825,0,0,0-1.2958,8.9951v12.667q0,9.7911,5.2548,16.0508,5.2515,6.2607,15.4727,6.2608,13.9599,0,20.1523-12.9551L2163.6006,321a29.49191,29.49191,0,0,1-10.7237,12.8106Q2145.7519,338.5611,2135.0996,338.5606Z" fill="#fff"/><path d="M2202.1758,338.5606q-10.3638,0-17.3448-3.958a39.418,39.418,0,0,1-12.0195-10.5801l8.2041-6.6211a32.24411,32.24411,0,0,0,9.6445,8.4199,25.10356,25.10356,0,0,0,12.3789,2.9522q7.3419,0,11.4434-3.167a11.50417,11.50417,0,0,0,1.2959-16.3379q-2.80815-3.09375-10.1475-4.2461l-5.9023-.8643a49.126,49.126,0,0,1-9.5-2.2304,26.39843,26.39843,0,0,1-7.5566-4.0303,17.29174,17.29174,0,0,1-5.0381-6.2617,20.39438,20.39438,0,0,1-1.7998-8.9238,21.44387,21.44387,0,0,1,2.0156-9.5733,19.26849,19.26849,0,0,1,5.542-6.8359,24.21454,24.21454,0,0,1,8.4199-4.1026,38.91859,38.91859,0,0,1,10.5088-1.3681q9.06735,0,15.1855,3.167a34.08988,34.08988,0,0,1,10.7237,8.7802l-7.6299,6.9092a22.89622,22.89622,0,0,0-7.1973-6.2607,23.172,23.172,0,0,0-11.9463-2.8076q-7.1997,0-10.8681,3.0947a10.442,10.442,0,0,0-3.67,8.4209q0,5.4726,3.67,7.917,3.6708,2.4492,10.58,3.5986l5.7579.8633q12.37785,1.872,17.5605,7.125,5.18265,5.25735,5.1816,13.7461,0,10.7958-7.3398,16.9853Q2214.98635,338.5631,2202.1758,338.5606Z" fill="#fff"/><path d="M2313.2978,338.5606q-12.2358,0-20.872-4.6777A44.2767,44.2767,0,0,1,2277.7441,321l8.9238-7.4853a39.10667,39.10667,0,0,0,11.8038,10.7236,30.43168,30.43168,0,0,0,15.2578,3.6709q10.7958,0,16.4814-5.1816,5.68365-5.18265,5.6856-13.8194,0-7.1952-4.3184-11.082-4.31835-3.8877-14.25-6.1904l-8.2051-1.8711q-13.81785-3.1656-21.0869-9.5713-7.27-6.40425-7.2695-18.0664a27.30821,27.30821,0,0,1,2.4472-11.8027,23.67932,23.67932,0,0,1,6.837-8.6358,30.85021,30.85021,0,0,1,10.5078-5.2539,47.57569,47.57569,0,0,1,13.459-1.7998q11.36865,0,19.5039,4.1748a37.5708,37.5708,0,0,1,13.7461,12.2354l-9.0684,6.6211a31.3039,31.3039,0,0,0-10.0752-9.0684q-5.90475-3.3105-14.6826-3.3106-9.64455,0-15.1856,4.1016-5.543,4.1031-5.542,12.3067,0,7.20105,4.6788,10.8681,4.67565,3.66945,14.1777,5.8301l8.2051,1.8711q14.8242,3.312,21.4472,10.0752,6.61815,6.76755,6.6211,17.9931a31.83027,31.83027,0,0,1-2.375,12.5235,25.709,25.709,0,0,1-6.8369,9.5,31.80053,31.80053,0,0,1-10.8681,6.0459A45.15833,45.15833,0,0,1,2313.2978,338.5606Z" fill="#fff"/><path d="M2395.6318,338.5606a33.48955,33.48955,0,0,1-13.6748-2.7344,29.44407,29.44407,0,0,1-10.5801-7.8457,36.91385,36.91385,0,0,1-6.8369-12.2344,53.63613,53.63613,0,0,1,0-32.0273,36.83609,36.83609,0,0,1,6.8369-12.3067,29.48788,29.48788,0,0,1,10.5801-7.8447,33.47512,33.47512,0,0,1,13.6748-2.7353,32.99113,32.99113,0,0,1,13.6026,2.7353,30.36929,30.36929,0,0,1,10.5791,7.8447,36.21762,36.21762,0,0,1,6.9091,12.3067,53.61521,53.61521,0,0,1,0,32.0273,36.2911,36.2911,0,0,1-6.9091,12.2344,30.32267,30.32267,0,0,1-10.5791,7.8457A33.0053,33.0053,0,0,1,2395.6318,338.5606Zm0-10.2197q9.35445,0,15.2578-5.7579,5.9004-5.75535,5.9014-17.5605V294.3711q0-11.8008-5.9014-17.5615-5.90475-5.75535-15.2578-5.7568-9.3588,0-15.2578,5.7568-5.90475,5.75835-5.9014,17.5615v10.6514q0,11.80515,5.9014,17.5605Q2386.2744,328.34285,2395.6318,328.3409Z" fill="#fff"/><path d="M2475.8066,338.5606a34.22738,34.22738,0,0,1-13.9619-2.7344,28.4936,28.4936,0,0,1-10.4365-7.7725,34.59976,34.59976,0,0,1-6.4766-12.2353,59.354,59.354,0,0,1,0-32.2432,34.62652,34.62652,0,0,1,6.4766-12.2353,28.52685,28.52685,0,0,1,10.4365-7.7725,34.21268,34.21268,0,0,1,13.9619-2.7353q11.08305,0,17.7774,4.8222a29.43663,29.43663,0,0,1,10.0039,12.5948l-9.6446,4.8945a17.49467,17.49467,0,0,0-6.6211-8.9248,19.87558,19.87558,0,0,0-11.5156-3.166,23.03583,23.03583,0,0,0-9.0683,1.6543,17.7145,17.7145,0,0,0-6.4766,4.6074,19.37529,19.37529,0,0,0-3.8867,7.0527,29.76508,29.76508,0,0,0-1.2959,8.9951v12.667q0,9.7911,5.2539,16.0508,5.25285,6.2607,15.4736,6.2608,13.96005,0,20.1524-12.9551L2504.3076,321a29.4917,29.4917,0,0,1-10.7236,12.8106Q2486.459,338.5611,2475.8066,338.5606Z" fill="#fff"/><path d="M2526.3291,245.1426q-3.74565,0-5.3975-1.7988a6.62978,6.62978,0,0,1-1.6553-4.6787V236.794a6.63784,6.63784,0,0,1,1.6553-4.6787q1.6524-1.79745,5.3975-1.7989,3.74115,0,5.3974,1.7989a6.647,6.647,0,0,1,1.6563,4.6787v1.8711a6.63892,6.63892,0,0,1-1.6563,4.6787Q2530.07125,245.1456,2526.3291,245.1426Zm-5.7578,17.418h11.5156V336.834h-11.5156Z" fill="#fff"/><path d="M2584.4814,338.5606a33.34909,33.34909,0,0,1-13.7461-2.7344,29.59477,29.59477,0,0,1-10.5078-7.8457,35.95592,35.95592,0,0,1-6.7656-12.2344,55.19621,55.19621,0,0,1,0-32.0273,35.89283,35.89283,0,0,1,6.7656-12.3067,29.63933,29.63933,0,0,1,10.5078-7.8447,33.33479,33.33479,0,0,1,13.7461-2.7353,31.563,31.563,0,0,1,13.3867,2.7265,29.67235,29.67235,0,0,1,10.0762,7.5313,33.57151,33.57151,0,0,1,6.4053,11.4033,45.01706,45.01706,0,0,1,2.2314,14.4863v5.4522h-53.4033v3.4551a25.40076,25.40076,0,0,0,1.5117,8.8515,21.02313,21.02313,0,0,0,4.3184,7.125,19.73056,19.73056,0,0,0,6.9092,4.751,23.72926,23.72926,0,0,0,9.2842,1.7266,22.5974,22.5974,0,0,0,12.3076-3.3106,21.71915,21.71915,0,0,0,8.1318-9.5l8.2051,5.9395a28.66647,28.66647,0,0,1-11.2276,12.3838A33.86278,33.86278,0,0,1,2584.4814,338.5606Zm0-68.084a21.92062,21.92062,0,0,0-8.6357,1.6465,19.41239,19.41239,0,0,0-6.6934,4.6484,21.80014,21.80014,0,0,0-4.3906,7.0811,24.4774,24.4774,0,0,0-1.584,8.9414v1.001h41.0235v-1.5743q0-9.8715-5.3975-15.8066Q2593.4058,270.4771,2584.4814,270.4766Z" fill="#fff"/><path d="M2651.9902,336.834q-6.0468,0-9.1406-3.374a12.553,12.553,0,0,1-3.0947-8.835V272.7793h-12.2354V262.5606h6.9092q3.74115,0,5.1103-1.5127,1.3653-1.5102,1.3672-5.2529V241.9756h10.3633v20.585h16.2656v10.2187h-16.2656v53.835h15.1143V336.834Z" fill="#fff"/><path d="M2731.8769,262.5606h11.3721l-33.251,91.5459a40.84213,40.84213,0,0,1-2.5908,5.542,10.81127,10.81127,0,0,1-3.167,3.5263,12.57077,12.57077,0,0,1-4.6777,1.8711,34.79507,34.79507,0,0,1-6.8379.5762h-5.9014V355.4024h11.6592l5.6143-15.8086-27.7813-77.0332h11.5156l17.8487,50.4258,3.455,12.0683h.7188l4.0312-12.0683Z" fill="#fff"/><path d="M1582.0556,477.752l-3.6103-11.4766h-15.9902l-3.5459,11.4766h-8.6407l15.0879-45.0039h10.5742l14.9581,45.0039Zm-11.4765-37.2656h-.3223l-5.7383,18.5039h11.8633Z" fill="#fff"/><path d="M1627.3808,477.752l-3.6103-11.4766h-15.9902l-3.5459,11.4766h-8.6407l15.0879-45.0039h10.5742l14.958,45.0039Zm-11.4765-37.2656h-.3223l-5.7383,18.5039h11.8633Z" fill="#fff"/><path d="M1671.4179,458.7325h-18.7626V477.752h-8.5108V432.7481h8.5108v18.4394h18.7626V432.7481h8.5108V477.752h-8.5108Z" fill="#fff"/><path d="M1706.2988,457.3789l-5.9961,7.0918V477.752h-8.5107V432.7481h8.5107v22.1797h.3223l6.3828-8.4453,11.1543-13.7344h9.8008l-15.668,18.7617,16.957,26.2422h-10.122Z" fill="#fff"/><path d="M1744.8554,432.7481v27.6601q0,5.2881,2.0313,7.9317,2.03025,2.64255,6.8662,2.6426,4.8354,0,6.8672-2.6426,2.03025-2.64555,2.0303-7.9317V432.7481h8.3818v26.5644a34.51991,34.51991,0,0,1-.9346,8.5743,14.611,14.611,0,0,1-2.998,5.998,12.09517,12.09517,0,0,1-5.3838,3.5137,25.17415,25.17415,0,0,1-8.0273,1.1269,24.79153,24.79153,0,0,1-8.0274-1.1269,12.11387,12.11387,0,0,1-5.3193-3.5137,14.291,14.291,0,0,1-2.9658-5.998,35.64828,35.64828,0,0,1-.9024-8.5743V432.7481Z" fill="#fff"/></g></svg>