<svg xmlns="http://www.w3.org/2000/svg" xmlns:xlink="http://www.w3.org/1999/xlink" viewBox="0 0 633.1895 575.3232"><defs><clipPath id="a"><rect width="633.1895" height="575.3232" fill="none"/></clipPath></defs><g clip-path="url(#a)"><path d="M77.709,170.7471a6.83656,6.83656,0,0,1,6.8379,6.8369c-.001-.1397-.0059-.2783-.0059-.419a92.62324,92.62324,0,0,1,92.624-92.623,6.8379,6.8379,0,1,0,0-13.6758A106.22218,106.22218,0,0,0,70.8662,177.165c0,.1407.0039.2793.0049.419A6.83713,6.83713,0,0,1,77.709,170.7471Z" fill="#ee212e"/><path d="M170.3281,276.6269a6.83718,6.83718,0,0,1,6.8369-6.8378A92.61891,92.61891,0,0,1,84.5469,177.584a6.8379,6.8379,0,0,0-13.6758,0A106.21638,106.21638,0,0,0,177.165,283.4648,6.8372,6.8372,0,0,1,170.3281,276.6269Z" fill="#46bc96"/><path d="M251.2637,243.7021a6.83663,6.83663,0,0,0-9.67,0,92.3127,92.3127,0,0,1-64.4287,26.087,6.83785,6.83785,0,0,0,0,13.6757,105.94935,105.94935,0,0,0,74.0987-30.0918A6.83609,6.83609,0,0,0,251.2637,243.7021Z" fill="#00c2f3"/><path d="M233.4568,120.874a79.61062,79.61062,0,1,0,23.3157,56.291A79.08738,79.08738,0,0,0,233.4568,120.874Z" fill="#00c2f3"/><path d="M121.0615,202.9101V151.4209h11.167v3.8066h-6.4726v43.877h6.4726v3.8056Z" fill="#333e48"/><path d="M233.2695,151.4209v51.4892h-11.164v-3.8056h6.4687v-43.877h-6.4687v-3.8066Z" fill="#333e48"/><path d="M146.9961,187.625q0,1.54245.0478,3.6357.04695,2.0919.1299,4.2481.0792,2.15625.1934,4.1201.1098,1.9629.2724,3.2812H141.043V166.5459q0-4.6992-.1612-8.5117-.1596-3.8145-.4824-6.6133h6.5967Z" fill="#fff"/><path d="M175.7988,170.085v4.2167H169.748v24.3936h6.0508v4.2158H157.7783v-4.2158h5.9531V174.3017h-5.9531V170.085Z" fill="#fff"/><path d="M189.3154,170.085a11.48415,11.48415,0,0,1,.3858,1.3378c.1299.5459.2461,1.1192.3545,1.7207q.1581.89955.29,1.7696l.2559,1.4472a21.204,21.204,0,0,1,6.2109-5.2929,13.91155,13.91155,0,0,1,6.501-1.625,11.437,11.437,0,0,1,4.5537.8515,8.02646,8.02646,0,0,1,3.331,2.7032,13.23477,13.23477,0,0,1,2.044,4.7959,31.46811,31.46811,0,0,1,.6914,7.0966v14.4805a36.02056,36.02056,0,0,1-.9502,9.0274,15.48512,15.48512,0,0,1-2.6543,5.7304,9.33083,9.33083,0,0,1-4.1035,3.0225,15.2595,15.2595,0,0,1-5.3262.8857,11.48075,11.48075,0,0,1-3.1055-.4668,11.7089,11.7089,0,0,1-3.0087-1.3037l2.0927-4.8271a6.43322,6.43322,0,0,0,1.9785.9179,8.806,8.806,0,0,0,2.5254.3692,7.2916,7.2916,0,0,0,2.7696-.4981,4.61374,4.61374,0,0,0,2.0742-1.7539,9.582,9.582,0,0,0,1.3047-3.4433,28.44581,28.44581,0,0,0,.4492-5.5674V187.3027a39.32727,39.32727,0,0,0-.4014-6.2588,10.80658,10.80658,0,0,0-1.208-3.7334,4.0053,4.0053,0,0,0-2.0117-1.7871,8.064,8.064,0,0,0-2.8157-.4502,7.54952,7.54952,0,0,0-3.3933.8223,12.561,12.561,0,0,0-3.043,2.123,15.78068,15.78068,0,0,0-2.4443,2.9454,13.50725,13.50725,0,0,0-1.5781,3.2812v18.666h-5.9531v-19.792a50.24055,50.24055,0,0,0-.5479-8.0615,40.83648,40.83648,0,0,0-1.0615-4.9726Z" fill="#fff"/><path d="M129.7622,443.8559H97.5547v-5.3466h32.2075Zm-4.1914,56.9302h-5.5181v-5.8603H107.1782v5.8603h-5.603V471.8716h23.9956Zm-.2568-45.8945-23.6534.085v-5.3458H125.314Zm.0854,11.206H101.6606V460.751h23.7388Zm-1.0693-33.1059-21.7285.0854v-5.3462h21.7285Zm-4.2774,56.6728V477.1328H107.0928v12.5317Zm55.2618-23.4809-46.2369.0849v-5.2607h11.4629l2.481-13.2168H132.3286v-5.2607h11.5488l1.8389-9.7954H129.3345v-5.3462h42.4731v5.2617H151.4902l-1.7534,9.7944h17.6226l-1.8399,18.4771h9.795Zm-7.4424,34.7734h-5.5176v-5.7744H140.7119v5.7744h-5.6035V471.958h32.7637Zm-5.5176-11.0356V477.2187h-21.728v12.7027Zm-.8555-42.2158H148.7959l-2.4805,13.3022h13.8579Z" fill="#333e48"/><path d="M271.7568,443.8559H193.9976v-5.3466h77.7592Zm-11.4624,10.9498H204.6899v-5.1749h55.6045Zm0,11.121H204.6899V460.751h55.6045Zm-2.0102,35.0303h-5.5176v-6.0312H212.6458v6.0312h-5.5174V471.8716h51.1558Zm-.0855-68.521-50.6425.128v-5.1753h50.6425Zm-5.4321,57.2285V477.1328H212.6458v12.5317Z" fill="#333e48"/><path d="M368.2012,485.4736H333.7688v5.9453q0,9.5376-10.1379,9.5381h-5.6885l-2.0957-5.2607h7.9555q4.19175,0,4.1924-3.8496v-6.3731H290.4399v-5.3467h37.5547v-3.6787q8.93775-3.33615,12.7886-6.2441H308.0188v-4.919h42.261v4.6622a130.98768,130.98768,0,0,1-16.511,9.2812v.8984h34.4324Zm-3.5933-15.8691h-5.1338V460.751H299.7227v9.3672h-5.604V455.7471h7.3564V429.6553q6.07245-.59775,13.3032-5.774l2.8233,3.9351a25.17956,25.17956,0,0,1-10.6084,5.4321v3.5933h10.9492V441.29H306.9932v4.6621h10.9492v4.3619H306.9932v5.4331h45.467V450.314H342.0234v-4.2769h10.4368v-5.0039H342.1089v-4.3628h10.3513v-4.6626H340.3555v-5.1753h17.5366v28.8286h6.7158Zm-24.2524-33.1909-2.9937,3.6782a45.66479,45.66479,0,0,0-6.6299-5.0899,51.13254,51.13254,0,0,1-7.7851,5.3467l-3.5073-3.0801a33.89871,33.89871,0,0,0,7.2719-4.02,74.66175,74.66175,0,0,0-8.4272-2.7373l2.1826-3.9355a78.96211,78.96211,0,0,1,9.5376,3.0796,36.43352,36.43352,0,0,0,5.0903-5.8594l3.5928,2.8652a27.09008,27.09008,0,0,1-4.4482,5.1758A31.96511,31.96511,0,0,1,340.3555,436.4136Zm.5127,15.5688-3.5918,2.8233a39.58019,39.58019,0,0,0-7.1861-4.4053,46.23453,46.23453,0,0,1-8.2119,4.4053l-3.251-2.5665a42.35322,42.35322,0,0,0,7.9134-4.5336,43.4949,43.4949,0,0,0-7.272-3.3374l3.2078-2.6934a53.34127,53.34127,0,0,1,7.5278,3.293,36.37282,36.37282,0,0,0,4.833-4.106l3.9351,2.0103a21.451,21.451,0,0,1-4.8758,4.663A31.78382,31.78382,0,0,1,340.8682,451.9824Z" fill="#333e48"/><path d="M464.5576,485.4736H430.1257v5.9453q0,9.5376-10.1369,9.5381h-5.6885l-2.0957-5.2607h7.9556q4.1901,0,4.1914-3.8496v-6.3731H386.7979v-5.3467h37.5537v-3.6787q8.9388-3.33615,12.7895-6.2441H404.3767v-4.919h42.26v4.6622a130.96635,130.96635,0,0,1-16.511,9.2812v.8984h34.4319Zm-3.5918-15.8691h-5.1347V460.751H396.0796v9.3672h-5.603V455.7471h7.3562V429.6553q6.07425-.59775,13.3025-5.774l2.8225,3.9351a25.1511,25.1511,0,0,1-10.6077,5.4321v3.5933h10.9502V441.29H403.3501v4.6621h10.9502v4.3619H403.3501v5.4331h45.4668V450.314H438.3813v-4.2769h10.4356v-5.0039H438.4658v-4.3628h10.3511v-4.6626H436.7124v-5.1753h17.5364v28.8286h6.717Zm-22.73-18.5816-3.8969,3.563a41.25369,41.25369,0,0,0-6.7857-8.0962q-5.73915,6.3948-9.4321,8.1368l-3.8565-3.2383q4.3485-2.06835,9.4336-7.7324a49.65723,49.65723,0,0,0-8.2436-4.4546l3.3638-3.479a66.54189,66.54189,0,0,1,7.7109,4.2104,24.47383,24.47383,0,0,0,2.624-6.0332H416.2744v-5.0596h6.9048v-5.2099h4.4312v5.2099h8.1948v5.0596h-1.6221a32.20372,32.20372,0,0,1-3.6753,8.7051A39.77128,39.77128,0,0,1,438.2358,451.0229Z" fill="#333e48"/><path d="M562.3262,443.6855l-3.0791,4.4478q-14.5869-3.5925-22.8399-8.2974v3.8496h-28.915v-4.2353q-12.4896,6.4599-22.4131,8.4263l-2.8223-4.4908q24.0366-5.8593,40.0347-19.5898l5.2607,1.7534a7.28178,7.28178,0,0,1-1.4975,1.4966Q540.2549,438.8518,562.3262,443.6855Zm-9.1114,24.5078H491.1104v-20.06h62.1044Zm-5.0891,32.8487h-5.2605v-3.4219H501.5474v3.4219h-5.2608V472.6846h51.8391Zm-28.529-37.4678V452.8808H496.3711v10.6934Zm23.2685,19.333v-5.5176H501.5474v5.5176Zm0,10.0947v-5.6035H501.5474v5.6035Zm-28.957-33.6626-4.4053,3.0796a30.78248,30.78248,0,0,0-7.7851-5.9453l4.448-2.5659A22.00724,22.00724,0,0,1,513.9082,459.3393Zm20.7451-20.4018a53.93876,53.93876,0,0,1-12.0195-8.7686,65.67351,65.67351,0,0,1-13.9004,8.7686Zm13.3023,24.6367V452.8808H524.8584v10.6934Zm-5.1763-8.1699a20.36721,20.36721,0,0,1-7.6135,6.8437l-4.7049-2.352q5.6046-3.16485,7.6983-6.3311Z" fill="#333e48"/><path d="M130.165,373.9355l-1.6338,1.8809a38.1973,38.1973,0,0,1-13.9858-9.1016l.0352,6.8697h8.2055v15.1098h-2.2314v-2.0195H106.3398v2.0195h-2.3017V373.5845h8.2402v-6.8697q-3.6189,5.5335-13.0722,8.6621l-1.6514-1.8627q8.38035-2.21415,11.9829-6.7994H99.54v-2.1967h12.7383v-3.3912q-4.19895.42345-10.542.6153l-1.5107-2.126q14.9868-.0534,23.9306-2.5127l1.6866,1.6875a77.89013,77.89013,0,0,1-11.2622,2.0552v3.6719h12.914v2.1967l-10.0678-.0351A37.44846,37.44846,0,0,0,130.165,373.9355Zm-9.6103,4.9375v-3.0922h-14.25v3.0922Zm0,5.6402v-3.4781h-14.25v3.4781Z" fill="#333e48"/><path d="M151.30231,375.5517a34.29569,34.29569,0,0,1-5.7983,11.2637l2.0552,1.3003a33.51157,33.51157,0,0,0,5.8691-11.2627Zm-3.708-9.7509-1.4765,1.8452a12.9965,12.9965,0,0,1,5.5361,4.2866l1.5449-2.0898A13.22236,13.22236,0,0,0,147.59431,365.8008Zm1.7212-7.8711-1.6509,1.6875a10.60251,10.60251,0,0,1,5.3243,4.0752l1.6508-1.7744A10.76766,10.76766,0,0,0,149.31551,357.9297Z" fill="#333e48"/><path d="M172.28041,380.8945V374.269a20.39242,20.39242,0,0,0,4.499,3.2344l1.4409-1.9517a15.08916,15.08916,0,0,1-7.1694-6.2187h6.0083v-2.1611h-5.7447v-4.1997h4.3394v-2.1617h-4.3394v-3.706h-2.2319v3.7417h-6.5181v-3.7417h-2.2324v3.7417h-4.3213v2.1606h4.357v4.1988h-5.7281v2.1626h5.7984q-1.94895,3.654-7.0454,6.0781l1.6508,1.9507a22.01524,22.01524,0,0,0,2.7764-1.897v9.418a2.67088,2.67088,0,0,0,3.022,3.0214h11.5083a2.80547,2.80547,0,0,0,2.2226-.9306,7.86139,7.86139,0,0,0,1.2745-3.6714l-2.2666-1.02a6.91132,6.91132,0,0,1-.667,2.8105,1.37591,1.37591,0,0,1-1.1773.6153h-10.7187a.85314.85314,0,0,1-.9654-.9668v-3.8819Zm-9.7159-17.9223h6.5538v4.1997h-6.5538Zm.21,6.3608h5.9741a14.5737,14.5737,0,0,0,2.6006,3.9893H160.192A12.39906,12.39906,0,0,0,162.77451,369.333Zm-2.7222,6.1494h9.9971v3.2857h-9.9971Z" fill="#333e48"/><path d="M226.02927,386.938l-1.6338,1.8266q-10.9827-5.9904-13.9512-20.1875-3.67305,14.4258-14.9697,20.1875l-1.7749-2.0898q11.1921-5.4477,14.1792-18.0625h-11.9478v-2.2666h12.2115a89.96846,89.96846,0,0,0,.2812-9.2422l2.4424.3516q.08715,5.376-.2109,8.8554h13.3183v2.2666h-11.0869Q214.99462,380.61385,226.02927,386.938Z" fill="#333e48"/><path d="M273.83818,382.3696h-14.1445v2.4429q0,3.917-4.164,3.918h-2.337l-.8608-2.1612H255.6q1.7211,0,1.7214-1.5815v-2.6182h-15.426v-2.1963h15.426v-1.5112a21.95092,21.95092,0,0,0,5.2539-2.5649h-13.459v-2.021h17.3596v1.915a53.59922,53.59922,0,0,1-6.7822,3.813v.3691h14.1445Zm-1.4755-6.518h-2.1084v-3.6377h-24.5464v3.8476h-2.3015v-5.9023h3.0222V359.4404a11.63077,11.63077,0,0,0,5.4638-2.3721l1.1597,1.6167a10.34411,10.34411,0,0,1-4.3574,2.2315v1.4756h4.498v1.8276h-4.498v1.9151h4.498v1.7919h-4.498v2.2325h18.6777v-2.2325h-4.2871v-1.7568h4.2871v-2.0557h-4.2519v-1.7924h4.2519v-1.9146h-4.9726v-2.126h7.2036V370.123h2.7593Zm-9.9629-13.6348-1.2305,1.5102a18.68775,18.68775,0,0,0-2.7229-2.0903,20.94733,20.94733,0,0,1-3.198,2.1963l-1.4404-1.2647a13.92556,13.92556,0,0,0,2.9863-1.6518,30.701,30.701,0,0,0-3.4609-1.1245l.8964-1.6167a32.546,32.546,0,0,1,3.918,1.2651,14.98792,14.98792,0,0,0,2.0908-2.4072l1.4761,1.1777a11.1626,11.1626,0,0,1-1.8276,2.126A13.11536,13.11536,0,0,1,262.39978,362.2168Zm.2109,6.3955-1.4763,1.1597a16.271,16.271,0,0,0-2.9514-1.8101,18.97723,18.97723,0,0,1-3.3736,1.8101l-1.3354-1.0547a17.362,17.362,0,0,0,3.251-1.8623,17.83944,17.83944,0,0,0-2.9873-1.3701l1.3173-1.1075a21.997,21.997,0,0,1,3.0928,1.3531,14.98536,14.98536,0,0,0,1.9854-1.6866l1.6162.8262a8.82858,8.82858,0,0,1-2.0029,1.915A13.041,13.041,0,0,1,262.61068,368.6123Z" fill="#333e48"/><path d="M322.29754,386.4634l-1.5469,2.0561a41.95178,41.95178,0,0,1-14.5122-7.0986q-4.79955,3.91845-15.0766,7.2392l-1.7212-2.0908q9.94485-2.7582,15.0405-6.6943a23.94047,23.94047,0,0,1-6.8701-11.7549,19.38121,19.38121,0,0,1-2.6011,4.6387l-1.8608-1.7041a23.20557,23.20557,0,0,0,3.5654-5.7813h-6.0444v-2.1606h14.0927v-6.0093h2.2662v5.9736h14.3369v2.1617h-6.0098q-1.5798,9.172-7.2739,14.6005Q313.26549,383.77545,322.29754,386.4634Zm-9.2954-21.2246H299.404a22.14476,22.14476,0,0,0,6.8686,13.0893A22.45673,22.45673,0,0,0,313.00214,365.2388Z" fill="#333e48"/><path d="M369.84271,382.3696h-14.1453v2.4429q0,3.917-4.1638,3.918h-2.3369l-.8601-2.1612h3.2671q1.7226,0,1.7226-1.5815v-2.6182h-15.4262v-2.1963h15.4262v-1.5112a21.93542,21.93542,0,0,0,5.2525-2.5649h-13.4585v-2.021h17.3594v1.915a53.60819,53.60819,0,0,1-6.7823,3.813v.3691h14.1453Zm-1.4754-6.518H366.258v-3.6377h-24.5464v3.8476h-2.3018v-5.9023h3.0225V359.4404a11.63568,11.63568,0,0,0,5.4653-2.3721l1.1587,1.6167a10.3371,10.3371,0,0,1-4.3586,2.2315v1.4756h4.499v1.8276h-4.499v1.9151h4.499v1.7919h-4.499v2.2325h18.6789v-2.2325h-4.2885v-1.7568h4.2885v-2.0557h-4.2519v-1.7924h4.2519v-1.9146H358.404v-2.126h7.2031V370.123h2.7602Zm-9.9633-13.6348-1.231,1.5102a18.66029,18.66029,0,0,0-2.7222-2.0903,21.00883,21.00883,0,0,1-3.1982,2.1963l-1.4404-1.2647a13.94661,13.94661,0,0,0,2.9868-1.6518,30.81488,30.81488,0,0,0-3.4614-1.1245l.8969-1.6167a32.58488,32.58488,0,0,1,3.9175,1.2651,14.9027,14.9027,0,0,0,2.0901-2.4072l1.4766,1.1777a11.21888,11.21888,0,0,1-1.8264,2.126A13.14083,13.14083,0,0,1,358.404,362.2168Zm.2104,6.3955-1.4756,1.1597a16.26584,16.26584,0,0,0-2.9521-1.8101,18.9884,18.9884,0,0,1-3.3736,1.8101l-1.3359-1.0547a17.28493,17.28493,0,0,0,3.251-1.8623,17.7999,17.7999,0,0,0-2.9868-1.3701l1.3178-1.1075a22.00734,22.00734,0,0,1,3.0928,1.3531,14.85148,14.85148,0,0,0,1.9846-1.6866l1.6165.8262a8.84988,8.84988,0,0,1-2.0015,1.915A13.07786,13.07786,0,0,1,358.61441,368.6123Z" fill="#333e48"/><path d="M392.99062,369.0513q3.55005,3.98865,3.5508,7.7837a4.28149,4.28149,0,0,1-.9585,2.934,3.37415,3.37415,0,0,1-2.6792,1.0899,13.95543,13.95543,0,0,1-2.2841-.2281l-.6499-2.3374a12.68819,12.68819,0,0,0,2.7055.4747,1.7911,1.7911,0,0,0,1.2481-.5269,1.83611,1.83611,0,0,0,.5625-1.4062,8.41909,8.41909,0,0,0-.9666-3.3736,13.42463,13.42463,0,0,0-2.8996-3.9175l3.4267-8.8037h-5.218v27.9903h-2.3025V358.5093h9.8564v2.2309Zm24.231,13.2309a12.12418,12.12418,0,0,1-1.231,4.1279,2.70679,2.70679,0,0,1-2.5117,1.2837h-2.7407q-2.74215,0-2.741-2.8813v-9.2949H404.289q-.1047,5.65725-2.2046,8.4775-2.10015,2.81985-7.793,4.7354l-1.4756-2.0205q5.2881-1.563,7.2569-4.042,1.968-2.4771,1.9853-7.1153h-4.8144v-2.3022h18.8193v2.2671h-5.8706v8.75a1.33991,1.33991,0,0,0,.2817.8169.81634.81634,0,0,0,.668.3774h2.2317q.68445,0,1.0457-1.1245a17.9249,17.9249,0,0,0,.6059-2.9165Zm-2.021-15.9365-2.2309.0351v-3.0927h-13.2486v3.0927h-2.2668v-5.3242h7.7131v-3.9883h2.3027v3.9537h7.7305Zm-2.9512,3.3906H400.371V367.435h11.8784Z" fill="#333e48"/><path d="M465.84833,382.3696h-14.1455v2.4429q0,3.917-4.1636,3.918h-2.3369l-.8616-2.1612h3.2683q1.72275,0,1.7227-1.5815v-2.6182h-15.428v-2.1963h15.428v-1.5112a21.95166,21.95166,0,0,0,5.2529-2.5649h-13.459v-2.021h17.3592v1.915a53.58835,53.58835,0,0,1-6.782,3.813v.3691h14.1455Zm-1.4771-6.518h-2.1079v-3.6377h-24.5454v3.8476h-2.3027v-5.9023h3.0234V359.4404a11.63054,11.63054,0,0,0,5.4629-2.3721l1.1602,1.6167a10.34058,10.34058,0,0,1-4.357,2.2315v1.4756h4.4976v1.8276h-4.4976v1.9151h4.4976v1.7919h-4.4976v2.2325h18.6768v-2.2325h-4.2871v-1.7568h4.2871v-2.0557h-4.2517v-1.7924h4.2517v-1.9146h-4.9722v-2.126h7.2032V370.123h2.7587Zm-9.9619-13.6348-1.2309,1.5102a18.71134,18.71134,0,0,0-2.7237-2.0903,20.932,20.932,0,0,1-3.197,2.1963l-1.4411-1.2647a13.88986,13.88986,0,0,0,2.9878-1.6518,30.74969,30.74969,0,0,0-3.4615-1.1245l.8955-1.6167a32.43751,32.43751,0,0,1,3.918,1.2651,15.00561,15.00561,0,0,0,2.0923-2.4072l1.4756,1.1777a11.21011,11.21011,0,0,1-1.8282,2.126A13.10268,13.10268,0,0,1,454.40933,362.2168Zm.2105,6.3955-1.4756,1.1597a16.32945,16.32945,0,0,0-2.9514-1.8101,18.96767,18.96767,0,0,1-3.3743,1.8101l-1.3349-1.0547a17.35713,17.35713,0,0,0,3.2509-1.8623,17.85979,17.85979,0,0,0-2.9878-1.3701l1.3179-1.1075a21.94429,21.94429,0,0,1,3.0918,1.3531,14.97859,14.97859,0,0,0,1.9858-1.6866l1.6163.8262a8.83722,8.83722,0,0,1-2.003,1.915A13.01591,13.01591,0,0,1,454.61983,368.6123Z" fill="#333e48"/><path d="M513.96354,386.9736h-31.977V384.707h14.8989v-8.2412H486.15v-2.2666h10.7354v-7.1684h-7.9595a18.696,18.696,0,0,1-4.8144,6.9047l-2.3184-1.2119a19.41634,19.41634,0,0,0,6.4126-13.0371l2.3721.6851a26.36525,26.36525,0,0,1-.8267,4.4282h7.0996v-7.6963h2.3714v7.6607h12.4045v2.2666h-12.4045v7.1337h10.5778v2.2662h-10.5778v8.2407h14.7414Z" fill="#333e48"/><path d="M562.3262,365.2031l-1.2644,1.8277a37.50406,37.50406,0,0,1-9.3831-3.4083v1.5806H539.8008v-1.7392a35.58434,35.58434,0,0,1-9.2061,3.4614l-1.1596-1.8452a38.96079,38.96079,0,0,0,16.4458-8.0469l2.1606.7207a3.00117,3.00117,0,0,1-.6143.6143A34.39515,34.39515,0,0,0,562.3262,365.2031Zm-3.7417,10.0684H533.0728v-8.2407h25.5117Zm-2.0908,13.4931h-2.1622v-1.4052H537.3584v1.4052h-2.1606V377.1162h21.2959ZM544.7734,373.374v-4.3931h-9.54v4.3931Zm9.5581,7.9414v-2.2666H537.3584v2.2666Zm0,4.1465v-2.3018H537.3584v2.3018Zm-11.895-13.8271-1.8098,1.2646a12.64553,12.64553,0,0,0-3.197-2.4424l1.8266-1.0537A9.01864,9.01864,0,0,1,542.4365,371.6348Zm8.5213-8.3814a22.1398,22.1398,0,0,1-4.9363-3.6025,27.022,27.022,0,0,1-5.7107,3.6025Zm5.4651,10.1206v-4.3931h-9.4874v4.3931Zm-2.1255-3.3559a8.38242,8.38242,0,0,1-3.1285,2.811l-1.9321-.9658a9.12548,9.12548,0,0,0,3.1626-2.6011Z" fill="#333e48"/><rect x="-12.4307" y="-12.4649" width="658.0508" height="600.2188" fill="none"/></g></svg>