<svg xmlns="http://www.w3.org/2000/svg" xmlns:xlink="http://www.w3.org/1999/xlink" viewBox="0 0 633.1895 708.0112"><defs><clipPath id="a"><rect y="-0.001" width="633.1895" height="708.0122" fill="none"/></clipPath></defs><g clip-path="url(#a)"><path d="M79.2227,135.7861a105.37075,105.37075,0,0,0-8.086,33.7129,10.38247,10.38247,0,0,1,13.6778.4785A92.629,92.629,0,0,1,177.166,84.542a6.8379,6.8379,0,0,0,0-13.6758,106.404,106.404,0,0,0-97.9433,64.9199Z" fill="#fff"/><path d="M169.5957,269.4853A92.63088,92.63088,0,0,1,84.543,177.5869a6.8379,6.8379,0,0,0-13.6758,0A106.2154,106.2154,0,0,0,169.0527,283.167a10.37421,10.37421,0,0,1,.543-13.6817Z" fill="#fff"/><path d="M251.2656,243.706a6.83959,6.83959,0,0,0-9.6699,0,92.31667,92.31667,0,0,1-64.4297,26.0899,6.8379,6.8379,0,0,0,0,13.6758,105.94976,105.94976,0,0,0,74.0996-30.0938A6.83711,6.83711,0,0,0,251.2656,243.706Z" fill="#fff"/><path d="M177.166,283.4717a6.8379,6.8379,0,0,1,0-13.6758,92.31667,92.31667,0,0,0,64.4297-26.0899,6.83836,6.83836,0,1,1,9.6699,9.6719,105.94976,105.94976,0,0,1-74.0996,30.0938Zm-41.3848-8.3594a106.21633,106.21633,0,0,1-64.914-97.5254,6.8379,6.8379,0,0,1,13.6758,0,92.63088,92.63088,0,0,0,85.0527,91.8984,10.37421,10.37421,0,0,0-.543,13.6817A105.36966,105.36966,0,0,1,135.7812,275.1123ZM177.166,70.8662a6.8379,6.8379,0,0,1,0,13.6758,92.629,92.629,0,0,0-92.3515,85.4355,10.38247,10.38247,0,0,0-13.6778-.4785A106.21937,106.21937,0,0,1,177.166,70.8662Z" fill="#fff"/><path d="M233.459,120.874a79.61485,79.61485,0,1,0,23.3164,56.2949A79.091,79.091,0,0,0,233.459,120.874Z" fill="#fff"/><path d="M121.0605,202.9131V151.4248h11.1661v3.8047h-6.4727v43.8769h6.4727v3.8067Z" fill="#333e48"/><path d="M233.2715,151.4248v51.4883H222.1074v-3.8067h6.4688V155.2295h-6.4688v-3.8047Z" fill="#333e48"/><path d="M146.9961,187.6279q0,1.54395.0469,3.6367.0468,2.0919.1289,4.2481.082,2.15625.1933,4.1191.11145,1.9629.2735,3.2813H141.041V166.5478q0-4.6962-.1601-8.5117-.16125-3.8145-.4844-6.6113h6.5996Z" fill="#00c2f3"/><path d="M175.7988,170.0888v4.2168H169.748v24.3926h6.0508v4.2168H157.7773v-4.2168h5.9532V174.3056h-5.9532v-4.2168Z" fill="#00c2f3"/><path d="M189.3164,170.0888a11.61092,11.61092,0,0,1,.3848,1.336c.1308.5469.2461,1.1211.3554,1.7207q.15825.9024.2891,1.7715l.2559,1.4453a21.25761,21.25761,0,0,1,6.2109-5.293,13.9272,13.9272,0,0,1,6.502-1.625,11.41152,11.41152,0,0,1,4.5527.8535,8.02358,8.02358,0,0,1,3.332,2.7032,13.23672,13.23672,0,0,1,2.043,4.7949,31.36821,31.36821,0,0,1,.6914,7.0976V199.374a36.02427,36.02427,0,0,1-.9492,9.0273,15.44725,15.44725,0,0,1-2.6543,5.7305,9.34082,9.34082,0,0,1-4.1035,3.0235,15.28278,15.28278,0,0,1-5.3262.8847,11.51558,11.51558,0,0,1-3.1055-.4668,11.66633,11.66633,0,0,1-3.0078-1.3027l2.0918-4.8281a6.421,6.421,0,0,0,1.9785.9179,8.80093,8.80093,0,0,0,2.5254.3692,7.29,7.29,0,0,0,2.7695-.4981,4.60722,4.60722,0,0,0,2.0743-1.7539,9.5913,9.5913,0,0,0,1.3046-3.4433,28.51191,28.51191,0,0,0,.4493-5.5684V187.3056a39.29621,39.29621,0,0,0-.4024-6.2578,10.8151,10.8151,0,0,0-1.207-3.7343,4.00824,4.00824,0,0,0-2.0117-1.7872,8.07009,8.07009,0,0,0-2.8164-.4492,7.54293,7.54293,0,0,0-3.3926.8223,12.44027,12.44027,0,0,0-3.043,2.123,15.8007,15.8007,0,0,0-2.4453,2.9434,13.556,13.556,0,0,0-1.5781,3.2832v18.666h-5.9531V183.1221a50.249,50.249,0,0,0-.5469-8.0606,40.5909,40.5909,0,0,0-1.0625-4.9727Z" fill="#00c2f3"/><path d="M107.4575,426.1631V358.4077h8.1538V418.98h28.8301v7.1831Z" fill="#fff"/><path d="M159.1958,364.3291a4.73989,4.73989,0,0,1-3.6406-1.2134,4.47151,4.47151,0,0,1-1.1162-3.1548v-1.2622a4.4774,4.4774,0,0,1,1.1162-3.1548,6.06745,6.06745,0,0,1,7.2807,0,4.48417,4.48417,0,0,1,1.1162,3.1548v1.2622a4.47826,4.47826,0,0,1-1.1162,3.1548A4.74383,4.74383,0,0,1,159.1958,364.3291Zm-3.8828,11.7456h7.7656v50.0884H155.313Z" fill="#fff"/><path d="M179.5806,426.1631V376.0747h7.7656v8.0615h.3882a16.32389,16.32389,0,0,1,5.1933-6.7266q3.34935-2.49825,8.979-2.4995,7.7652,0,12.2798,4.9986,4.51395,5.001,4.5137,14.1245v32.1299h-7.7656V395.3252q0-13.5234-11.3575-13.5235a17.45167,17.45167,0,0,0-4.5141.584,13.12726,13.12726,0,0,0-3.9312,1.752,8.645,8.645,0,0,0-2.7661,2.9668,8.43914,8.43914,0,0,0-1.0195,4.2314v34.8272Z" fill="#fff"/><path d="M274.5151,424.5132q0,10.3857-5.8242,16.3076-5.8242,5.9202-16.4048,5.9219a26.54331,26.54331,0,0,1-10.5322-1.9009,21.50346,21.50346,0,0,1-7.3286-5.022l4.562-5.3628a17.62463,17.62463,0,0,0,5.8242,3.9966,19.54838,19.54838,0,0,0,7.6685,1.3965q6.794,0,10.5322-3.752,3.736-3.7566,3.7373-11.0678V418.102h-.3882a16.48325,16.48325,0,0,1-5.8242,6.919,16.0131,16.0131,0,0,1-8.8335,2.3071,19.04113,19.04113,0,0,1-8.4453-1.8442,17.88314,17.88314,0,0,1-6.4062-5.2417,25.2199,25.2199,0,0,1-4.0772-8.251,41.31643,41.31643,0,0,1,0-21.7441,25.23774,25.23774,0,0,1,4.0772-8.251,17.919,17.919,0,0,1,6.4062-5.2422,19.041,19.041,0,0,1,8.4453-1.8438,17.0543,17.0543,0,0,1,8.979,2.2578,14.09977,14.09977,0,0,1,5.6787,6.9683h.3882v-8.0615h7.7656Zm-20.4819-4.0772a17.52183,17.52183,0,0,0,4.9507-.6826,12.01514,12.01514,0,0,0,4.0283-2.0005,10.01265,10.01265,0,0,0,2.7183-3.2183,9.26594,9.26594,0,0,0,1.019-4.4394V391.4604a8.02744,8.02744,0,0,0-.9707-3.854,9.11239,9.11239,0,0,0-2.7178-3.0727,14.07449,14.07449,0,0,0-4.0771-1.9995,16.4127,16.4127,0,0,0-4.9507-.7325q-6.6021,0-10.4834,4.1954a15.30859,15.30859,0,0,0-3.8828,10.8295v8.5845a15.31093,15.31093,0,0,0,3.8828,10.8301Q247.4309,420.4358,254.0332,420.436Z" fill="#fff"/><path d="M321.8848,418.102h-.3882a23.91892,23.91892,0,0,1-1.8926,3.4126,12.76577,12.76577,0,0,1-2.7666,2.9785,12.95437,12.95437,0,0,1-3.98,2.0665,17.371,17.371,0,0,1-5.436.7685q-7.7673,0-12.3281-4.999-4.56375-4.99875-4.5625-14.124V376.0747h7.7656v30.8384q0,13.52265,11.4546,13.5229a17.35917,17.35917,0,0,0,4.5136-.584,12.47286,12.47286,0,0,0,3.8829-1.75,8.84528,8.84528,0,0,0,2.7182-2.9673,8.64975,8.64975,0,0,0,1.0191-4.33v-34.73h7.7656v50.0884h-7.7656Z" fill="#fff"/><path d="M350.0347,364.3291a4.739,4.739,0,0,1-3.6402-1.2134,4.472,4.472,0,0,1-1.1162-3.1548v-1.2622a4.47785,4.47785,0,0,1,1.1162-3.1548,6.06685,6.06685,0,0,1,7.2803,0,4.48417,4.48417,0,0,1,1.1162,3.1548v1.2622a4.47826,4.47826,0,0,1-1.1162,3.1548A4.74309,4.74309,0,0,1,350.0347,364.3291Zm-3.8828,11.7456h7.7656v50.0884h-7.7656Z" fill="#fff"/><path d="M385.4658,427.3281a23.43076,23.43076,0,0,1-11.6972-2.6694,26.57836,26.57836,0,0,1-8.1055-7.1348l5.5332-4.4653a21.74766,21.74766,0,0,0,6.5039,5.6787,16.93738,16.93738,0,0,0,8.3481,1.9902q4.95045,0,7.7168-2.1357a7.7581,7.7581,0,0,0,.8741-11.0176q-1.8933-2.08665-6.8438-2.8633l-3.98-.583a33.17,33.17,0,0,1-6.4067-1.5044,17.793,17.793,0,0,1-5.0962-2.7178,11.67468,11.67468,0,0,1-3.3975-4.2231,13.7521,13.7521,0,0,1-1.2133-6.0176,14.467,14.467,0,0,1,1.3588-6.4555,12.99191,12.99191,0,0,1,3.7374-4.6109,16.34388,16.34388,0,0,1,5.6787-2.7666,26.255,26.255,0,0,1,7.0864-.9219,22.12984,22.12984,0,0,1,10.2407,2.1353,22.97774,22.97774,0,0,1,7.2319,5.9214l-5.145,4.6592a15.45247,15.45247,0,0,0-4.8535-4.2227,15.63013,15.63013,0,0,0-8.0566-1.8926q-4.8552,0-7.3291,2.0869a7.04063,7.04063,0,0,0-2.4751,5.6787q0,3.69,2.4751,5.3389a18.468,18.468,0,0,0,7.1347,2.4268l3.8828.582q8.3475,1.2627,11.8428,4.8052a12.63586,12.63586,0,0,1,3.4946,9.2705q0,7.28025-4.9506,11.4546Q394.10525,427.3291,385.4658,427.3281Z" fill="#fff"/><path d="M428.0811,426.1631q-4.0767,0-6.1641-2.2749a8.46536,8.46536,0,0,1-2.0869-5.9576V382.9668h-8.251v-6.8921h4.6592q2.52315,0,3.4463-1.0195a5.29249,5.29249,0,0,0,.9218-3.543v-9.3189h6.9893v13.8814h10.9692v6.8921H427.5957v36.3047h10.1924v6.8916Z" fill="#fff"/><path d="M454.9697,364.3291a4.7388,4.7388,0,0,1-3.6401-1.2134,4.47226,4.47226,0,0,1-1.1167-3.1548v-1.2622a4.47815,4.47815,0,0,1,1.1167-3.1548,6.06685,6.06685,0,0,1,7.2803,0,4.48462,4.48462,0,0,1,1.1162,3.1548v1.2622a4.47872,4.47872,0,0,1-1.1162,3.1548A4.74334,4.74334,0,0,1,454.9697,364.3291Zm-3.8828,11.7456h7.7656v50.0884h-7.7656Z" fill="#fff"/><path d="M493.9922,427.3281a23.07877,23.07877,0,0,1-9.416-1.8442,19.1998,19.1998,0,0,1-7.0376-5.2417,23.33281,23.33281,0,0,1-4.3682-8.251,40.03745,40.03745,0,0,1,0-21.7441,23.34835,23.34835,0,0,1,4.3682-8.251,19.23759,19.23759,0,0,1,7.0376-5.2422,23.07872,23.07872,0,0,1,9.416-1.8438q7.4736,0,11.9883,3.2515a19.84629,19.84629,0,0,1,6.7466,8.4937l-6.504,3.3007a11.79715,11.79715,0,0,0-4.4653-6.0185,13.40048,13.40048,0,0,0-7.7656-2.1358,15.53251,15.53251,0,0,0-6.1157,1.1162,11.95926,11.95926,0,0,0-4.3682,3.1065,13.07272,13.07272,0,0,0-2.6206,4.7563,20.06784,20.06784,0,0,0-.874,6.0669v8.542a16.25772,16.25772,0,0,0,3.5434,10.8242q3.5421,4.2225,10.4351,4.2222,9.4146,0,13.5898-8.7363l5.6304,3.7856a19.89169,19.89169,0,0,1-7.2319,8.6397A21.15624,21.15624,0,0,1,493.9922,427.3281Z" fill="#fff"/><path d="M539.2266,427.3281a23.43012,23.43012,0,0,1-11.6973-2.6694,26.57952,26.57952,0,0,1-8.1055-7.1348l5.5332-4.4653a21.74766,21.74766,0,0,0,6.5039,5.6787,16.93508,16.93508,0,0,0,8.3482,1.9902q4.95045,0,7.7168-2.1357a7.758,7.758,0,0,0,.874-11.0176q-1.8933-2.08665-6.8437-2.8633l-3.98-.583a33.17105,33.17105,0,0,1-6.4068-1.5044,17.793,17.793,0,0,1-5.0962-2.7178,11.67546,11.67546,0,0,1-3.3974-4.2231,13.75066,13.75066,0,0,1-1.2134-6.0176,14.467,14.467,0,0,1,1.3589-6.4555,12.99272,12.99272,0,0,1,3.7373-4.6109,16.34475,16.34475,0,0,1,5.6787-2.7666,26.255,26.255,0,0,1,7.0864-.9219,22.13,22.13,0,0,1,10.2408,2.1353,22.97885,22.97885,0,0,1,7.2319,5.9214l-5.145,4.6592a15.45471,15.45471,0,0,0-4.8535-4.2227,15.63051,15.63051,0,0,0-8.0567-1.8926q-4.8552,0-7.3291,2.0869a7.04063,7.04063,0,0,0-2.4751,5.6787q0,3.69,2.4751,5.3389a18.468,18.468,0,0,0,7.1348,2.4268l3.8828.582q8.34735,1.2627,11.8428,4.8052a12.63586,12.63586,0,0,1,3.4946,9.2705q0,7.28025-4.9507,11.4546Q547.866,427.3291,539.2266,427.3281Z" fill="#fff"/><path d="M126.4834,543.8135a29.19364,29.19364,0,0,1-14.0752-3.1548,29.85831,29.85831,0,0,1-9.9014-8.688l6.0186-5.0479a26.36269,26.36269,0,0,0,7.9595,7.2325,20.52909,20.52909,0,0,0,10.29,2.4751q7.28025,0,11.1143-3.4947a11.999,11.999,0,0,0,3.8344-9.3188q0-4.85235-2.9121-7.4741-2.9121-2.62215-9.6098-4.1749l-5.5332-1.2617q-9.31935-2.1342-14.2212-6.455-4.9029-4.3185-4.9019-12.1827a18.41422,18.41422,0,0,1,1.6499-7.9594,15.97247,15.97247,0,0,1,4.6109-5.8243,20.82906,20.82906,0,0,1,7.0864-3.5434,32.088,32.088,0,0,1,9.0761-1.2134,28.50515,28.50515,0,0,1,13.1534,2.8154,25.34185,25.34185,0,0,1,9.27,8.251l-6.1152,4.4653a21.12688,21.12688,0,0,0-6.795-6.1157,20.02068,20.02068,0,0,0-9.9013-2.2324q-6.50475,0-10.2412,2.7661-3.73755,2.767-3.7373,8.2998,0,4.8552,3.1552,7.3286,3.15315,2.4756,9.5615,3.9322l5.5328,1.2617q9.99675,2.2338,14.4633,6.7949,4.46415,4.563,4.4654,12.1338a21.47054,21.47054,0,0,1-1.6016,8.4453,17.33278,17.33278,0,0,1-4.6108,6.4063,21.44608,21.44608,0,0,1-7.3286,4.0771A30.45766,30.45766,0,0,1,126.4834,543.8135Z" fill="#fff"/><path d="M182.0073,543.8135a22.58,22.58,0,0,1-9.2217-1.8443,19.85557,19.85557,0,0,1-7.1347-5.2905,24.88615,24.88615,0,0,1-4.6109-8.251,36.1678,36.1678,0,0,1,0-21.5986,24.83849,24.83849,0,0,1,4.6109-8.2993,19.8953,19.8953,0,0,1,7.1347-5.2906,22.57979,22.57979,0,0,1,9.2217-1.8437,22.25324,22.25324,0,0,1,9.1734,1.8437,20.48575,20.48575,0,0,1,7.1347,5.2906,24.428,24.428,0,0,1,4.6597,8.2993,36.1678,36.1678,0,0,1,0,21.5986,24.47305,24.47305,0,0,1-4.6597,8.251,20.4435,20.4435,0,0,1-7.1347,5.2905A22.25344,22.25344,0,0,1,182.0073,543.8135Zm0-6.8921a14.11442,14.11442,0,0,0,10.2896-3.8824q3.9792-3.8817,3.98-11.8427v-7.1836q0-7.95855-3.98-11.8428a15.57523,15.57523,0,0,0-20.5791,0q-3.98145,3.88335-3.98,11.8428v7.1836q0,7.9599,3.98,11.8427A14.11033,14.11033,0,0,0,182.0073,536.9214Z" fill="#fff"/><path d="M236.0757,543.8135a23.07771,23.07771,0,0,1-9.4155-1.8443,19.20009,19.20009,0,0,1-7.0376-5.2417,23.32948,23.32948,0,0,1-4.3682-8.251,40.02465,40.02465,0,0,1,0-21.7441,23.34847,23.34847,0,0,1,4.3682-8.251,19.23455,19.23455,0,0,1,7.0376-5.2422,23.07763,23.07763,0,0,1,9.4155-1.8437q7.4736,0,11.9888,3.2519a19.84475,19.84475,0,0,1,6.746,8.4932l-6.5034,3.3008a11.8014,11.8014,0,0,0-4.4658-6.0186,13.4001,13.4001,0,0,0-7.7656-2.1357,15.529,15.529,0,0,0-6.1153,1.1162,11.95949,11.95949,0,0,0-4.3681,3.1064,13.07491,13.07491,0,0,0-2.6211,4.7564,20.08323,20.08323,0,0,0-.8735,6.0669v8.5425a16.2598,16.2598,0,0,0,3.5429,10.8237q3.5427,4.22235,10.4351,4.2222,9.4146,0,13.5898-8.7364l5.6304,3.7857a19.89314,19.89314,0,0,1-7.2314,8.6396A21.1583,21.1583,0,0,1,236.0757,543.8135Z" fill="#fff"/><path d="M270.147,480.8144a4.73941,4.73941,0,0,1-3.6402-1.2133,4.472,4.472,0,0,1-1.1162-3.1548v-1.2617a4.47793,4.47793,0,0,1,1.1162-3.1553,6.06685,6.06685,0,0,1,7.2803,0,4.48425,4.48425,0,0,1,1.1162,3.1553v1.2617a4.47826,4.47826,0,0,1-1.1162,3.1548A4.74345,4.74345,0,0,1,270.147,480.8144ZM266.2642,492.56h7.7656v50.0884h-7.7656Z" fill="#fff"/><path d="M309.3638,543.8135a22.48863,22.48863,0,0,1-9.2705-1.8443,19.9633,19.9633,0,0,1-7.086-5.2905,24.24171,24.24171,0,0,1-4.5625-8.251,37.21172,37.21172,0,0,1,0-21.5986,24.20361,24.20361,0,0,1,4.5625-8.2993,20.00377,20.00377,0,0,1,7.086-5.2906,22.48851,22.48851,0,0,1,9.2705-1.8437,21.29523,21.29523,0,0,1,9.0273,1.8379,20.00953,20.00953,0,0,1,6.7949,5.0796,22.63483,22.63483,0,0,1,4.3199,7.6899,30.35767,30.35767,0,0,1,1.5048,9.7691v3.6767H294.9971v2.3296a17.13387,17.13387,0,0,0,1.0195,5.9702,14.16351,14.16351,0,0,0,2.9121,4.8047,13.30868,13.30868,0,0,0,4.6592,3.2036,16.00232,16.00232,0,0,0,6.2612,1.1646,15.23349,15.23349,0,0,0,8.2993-2.2325,14.64712,14.64712,0,0,0,5.4849-6.4067l5.5332,4.0054a19.33206,19.33206,0,0,1-7.5718,8.3515A22.83907,22.83907,0,0,1,309.3638,543.8135Zm0-45.9146a14.78374,14.78374,0,0,0-5.8242,1.1104,13.08381,13.08381,0,0,0-4.5137,3.1352,14.69842,14.69842,0,0,0-2.961,4.7744,16.50473,16.50473,0,0,0-1.0678,6.0303v.6748h27.6655v-1.0615q0-6.65625-3.6401-10.6592A12.42463,12.42463,0,0,0,309.3638,497.8989Z" fill="#fff"/><path d="M354.8896,542.6484q-4.07655,0-6.164-2.2749a8.46511,8.46511,0,0,1-2.0869-5.9575V499.4521h-8.251V492.56h4.6592q2.52315,0,3.4463-1.0195a5.29185,5.29185,0,0,0,.9218-3.5425v-9.3193h6.9893V492.56h10.9692v6.8921H354.4043v36.3047h10.1924v6.8916Z" fill="#fff"/><path d="M408.7637,492.56h7.6689l-22.4233,61.7373a27.53668,27.53668,0,0,1-1.7476,3.7369,7.27561,7.27561,0,0,1-2.1352,2.3784,8.49523,8.49523,0,0,1-3.1548,1.2622,23.446,23.446,0,0,1-4.6109.3882h-3.9799v-6.8921h7.8628l3.7856-10.6612L371.2944,492.56h7.7657l12.0371,34.0064,2.3296,8.1391h.4853l2.7178-8.1391Z" fill="#fff"/><path d="M120.8643,637.5605l-2.4161-7.6787H107.749l-2.373,7.6787H99.5947l10.0957-30.1123h7.0742l10.0098,30.1123Zm-7.6797-24.9345h-.2149l-3.8398,12.3808h7.9375Zm38.0058,24.9345-2.416-7.6787H138.0752l-2.3711,7.6787h-5.7812l10.0937-30.1123h7.0762l10.0078,30.1123Zm-7.6797-24.9345h-.2148l-3.8398,12.3808h7.9375Zm37.1446,12.2089H168.1025v12.7256h-5.6953V607.4482h5.6953v12.3379h12.5528V607.4482h5.6953v30.1123h-5.6953Zm23.3398-.9062-4.0117,4.7461v8.8857h-5.6953V607.4482h5.6953V622.289h.2148l4.2715-5.6503,7.4629-9.1905h6.5567l-10.4825,12.5537,11.3457,17.5586h-6.7734Zm25.7969-16.4805V625.956a8.63591,8.63591,0,0,0,1.3594,5.3067q1.3593,1.76955,4.5937,1.7685,3.2373,0,4.5957-1.7685a8.63591,8.63591,0,0,0,1.3594-5.3067V607.4482h5.6074v17.7754a23.13257,23.13257,0,0,1-.625,5.7363,9.7888,9.7888,0,0,1-2.0058,4.0137,8.10384,8.10384,0,0,1-3.6036,2.3506,16.829,16.829,0,0,1-5.3711.7539,16.58764,16.58764,0,0,1-5.371-.7539,8.10969,8.10969,0,0,1-3.5586-2.3506,9.57346,9.57346,0,0,1-1.9844-4.0137,23.88425,23.88425,0,0,1-.6035-5.7363V607.4482Z" fill="#fff"/></g></svg>