<svg xmlns="http://www.w3.org/2000/svg" xmlns:xlink="http://www.w3.org/1999/xlink" viewBox="0 0 1958.7197 708.67289"><defs><clipPath id="a"><rect y="0.001" width="1958.7197" height="708.67379" fill="none"/></clipPath></defs><g clip-path="url(#a)"><path d="M158.4414,271.57519a210.71228,210.71228,0,0,0-16.1709,67.4258,20.76317,20.76317,0,0,1,27.3545.957c7.3378-95.5937,87.2246-170.873,184.7011-170.873a13.6758,13.6758,0,0,0,0-27.3516A212.8085,212.8085,0,0,0,158.4414,271.57519Z" fill="#a39b4b"/><path d="M339.1855,538.97169c-94.9551-7.6836-169.6729-86.9649-170.1016-183.7969a13.67575,13.67575,0,1,0-27.3515,0A212.43046,212.43046,0,0,0,338.0996,566.333a20.75124,20.75124,0,0,1,1.0859-27.3613Z" fill="#a39b4b"/><path d="M502.5273,487.41309a13.68014,13.68014,0,0,0-19.3408,0,184.63033,184.63033,0,0,1-128.8604,52.1777,13.6758,13.6758,0,1,0,0,27.3516,211.90052,211.90052,0,0,0,148.2012-60.1875A13.672,13.672,0,0,0,502.5273,487.41309Z" fill="#a39b4b"/><path d="M354.3276,141.72949A212.44266,212.44266,0,0,0,142.2675,338.999a20.76469,20.76469,0,0,1,27.3599.961A185.25258,185.25258,0,0,1,354.3276,169.0898a13.68016,13.68016,0,0,0,0-27.36031Zm-15.1401,397.2402a185.248,185.248,0,0,1-170.1001-183.79,13.67505,13.67505,0,1,0-27.3501,0,212.42156,212.42156,0,0,0,196.3603,211.1494,20.76408,20.76408,0,0,1,1.0899-27.3594Zm163.3398-51.5605a13.68837,13.68837,0,0,0-19.3398,0,184.59848,184.59848,0,0,1-128.8599,52.1806,13.67485,13.67485,0,1,0,0,27.3497,211.9629,211.9629,0,0,0,148.1997-60.1797A13.68968,13.68968,0,0,0,502.5273,487.40919Z" fill="#a39b4b"/><path d="M466.9174,241.749a159.23078,159.23078,0,1,0,46.6299,112.5908A158.20873,158.20873,0,0,0,466.9174,241.749ZM264.4472,310.46H251.5073v87.75973h12.9399v7.60937H242.1171V302.84959h22.3301Zm17.6304,95.3691v-72.7295q0-9.40575-.3203-17.0205-.315-7.6347-.9698-13.2295h13.1998v72.4102q0,3.08925.0903,7.2695.1047,4.18506.2598,8.5.1647,4.30517.3901,8.24023.22485,3.91555.5498,6.55957Zm69.52-57.2197H339.4873v48.79h12.1103v8.42969H315.5473V397.3994h11.9102v-48.79H315.5473v-8.4297h36.0503ZM427.8671,398.749a72.252,72.252,0,0,1-1.8999,18.05078,30.99993,30.99993,0,0,1-5.31,11.46,18.63336,18.63336,0,0,1-8.21,6.0498,30.59129,30.59129,0,0,1-10.6499,1.7695,23.04529,23.04529,0,0,1-6.2099-.9297,23.52017,23.52017,0,0,1-6.0201-2.6103l4.1802-9.6495a12.83717,12.83717,0,0,0,3.96,1.8301,17.67511,17.67511,0,0,0,5.0498.7403,14.47476,14.47476,0,0,0,5.54-1,9.22121,9.22121,0,0,0,4.1499-3.5,19.16461,19.16461,0,0,0,2.6104-6.8907,56.90119,56.90119,0,0,0,.8999-11.1396v-28.3203a77.78756,77.78756,0,0,0-.8101-12.5098,21.51584,21.51584,0,0,0-2.4101-7.4697,8.0397,8.0397,0,0,0-4.0201-3.5801,16.34752,16.34752,0,0,0-5.6298-.8906,15.0476,15.0476,0,0,0-6.7901,1.6406,25.00315,25.00315,0,0,0-6.0898,4.25,31.41281,31.41281,0,0,0-4.8902,5.8897,27.10935,27.10935,0,0,0-3.1499,6.5595v37.3301H370.2573V366.249a100.7128,100.7128,0,0,0-1.0899-16.1299,80.90006,80.90006,0,0,0-2.1299-9.9394h11.5899a23.04741,23.04741,0,0,1,.77,2.6699c.2598,1.0899.4898,2.2402.71,3.4395.2099,1.2099.4101,2.3906.5801,3.54l.5097,2.9004q6.18015-7.33455,12.4199-10.5899a27.92651,27.92651,0,0,1,13.0103-3.25,22.73165,22.73165,0,0,1,9.1001,1.71,16.14244,16.14244,0,0,1,6.6699,5.3994,26.402,26.402,0,0,1,4.0801,9.6006,62.35875,62.35875,0,0,1,1.3896,14.1895Zm38.6704,7.08008h-22.33v-7.60937h12.9399V310.46H444.2075v-7.6104h22.33Z" fill="#a39b4b"/><path d="M626.6655,336.83109V236.35989h12.0913v89.8193h42.751v10.6519Z" fill="#a39b4b"/><path d="M703.3857,245.14009q-3.74565,0-5.398-1.7988a6.6328,6.6328,0,0,1-1.6552-4.6787v-1.8711a6.63683,6.63683,0,0,1,1.6552-4.6777q1.65315-1.7988,5.398-1.7998,3.74115,0,5.3975,1.7998a6.6436,6.6436,0,0,1,1.6552,4.6777v1.8711a6.63955,6.63955,0,0,1-1.6552,4.6787Q707.1272,245.14234,703.3857,245.14009Zm-5.7578,17.418h11.5156v74.273H697.6279Z" fill="#a39b4b"/><path d="M733.6132,336.83109v-74.273h11.5157v11.9531h.5756a24.20823,24.20823,0,0,1,7.7007-9.9746q4.96665-3.70455,13.3145-3.706,11.5143,0,18.209,7.4121,6.69285,7.415,6.6933,20.9438v47.6446H780.1069v-45.7286q0-20.0529-16.8413-20.0527a25.895,25.895,0,0,0-6.6939.8657,19.46207,19.46207,0,0,0-5.8296,2.5977,12.83579,12.83579,0,0,0-4.1025,4.3994,12.53,12.53,0,0,0-1.5107,6.2749v51.6436Z" fill="#a39b4b"/><path d="M874.3876,334.38429q0,15.3999-8.6367,24.1816-8.6367,8.7795-24.3261,8.7813a39.3681,39.3681,0,0,1-15.6182-2.8184,31.87524,31.87524,0,0,1-10.8672-7.4473l6.7651-7.9521a26.14092,26.14092,0,0,0,8.6368,5.9268,28.99514,28.99514,0,0,0,11.3711,2.0703q10.07445,0,15.6176-5.5635,5.5401-5.57085,5.542-16.4116v-10.274h-.5757a24.444,24.444,0,0,1-8.6362,10.2598,23.74867,23.74867,0,0,1-13.0991,3.4214,28.24138,28.24138,0,0,1-12.523-2.7349,26.52932,26.52932,0,0,1-9.5-7.7729,37.3996,37.3996,0,0,1-6.0459-12.2349,61.27863,61.27863,0,0,1,0-32.2431,37.45091,37.45091,0,0,1,6.0459-12.2354,26.56473,26.56473,0,0,1,9.5-7.7725,28.22881,28.22881,0,0,1,12.523-2.7343,25.29145,25.29145,0,0,1,13.3149,3.3481,20.90575,20.90575,0,0,1,8.4204,10.3325h.5757v-11.9531h11.5156Zm-30.372-6.0459a25.96782,25.96782,0,0,0,7.3413-1.0127,17.80485,17.80485,0,0,0,5.9731-2.9658,14.84507,14.84507,0,0,0,4.0308-4.7725,13.73764,13.73764,0,0,0,1.5112-6.583v-27.6318a11.91651,11.91651,0,0,0-1.4394-5.7159,13.5116,13.5116,0,0,0-4.0303-4.5561,20.879,20.879,0,0,0-6.0454-2.9644,24.33866,24.33866,0,0,0-7.3413-1.0864q-9.79035,0-15.5454,6.2212-5.7591,6.2205-5.7578,16.0581v12.73q0,9.8364,5.7578,16.0586Q834.2248,328.338,844.0156,328.33839Z" fill="#a39b4b"/><path d="M944.6289,324.87739h-.5757a35.44079,35.44079,0,0,1-2.8067,5.0606,18.93018,18.93018,0,0,1-4.102,4.417,19.216,19.216,0,0,1-5.9019,3.0635,25.76984,25.76984,0,0,1-8.061,1.1401q-11.5173,0-18.2803-7.4136-6.76755-7.41135-6.7656-20.9433v-47.6436h11.5156v45.7275q0,20.053,16.9849,20.0528a25.74839,25.74839,0,0,0,6.6938-.8662,18.46751,18.46751,0,0,0,5.7574-2.5948,13.11331,13.11331,0,0,0,4.0302-4.3994,12.83021,12.83021,0,0,0,1.5113-6.4214v-51.4985h11.5156v74.273H944.6289Z" fill="#a39b4b"/><path d="M986.371,245.14009q-3.744,0-5.3974-1.7988a6.63062,6.63062,0,0,1-1.6553-4.6787v-1.8711a6.63464,6.63464,0,0,1,1.6553-4.6777q1.653-1.7988,5.3974-1.7998,3.742,0,5.398,1.7998a6.64591,6.64591,0,0,1,1.6553,4.6777v1.8711a6.64187,6.64187,0,0,1-1.6553,4.6787Q990.113,245.14234,986.371,245.14009Zm-5.7573,17.418h11.5152v74.273H980.6137Z" fill="#a39b4b"/><path d="M1038.9101,338.55859q-10.3638,0-17.3447-3.9585a39.412,39.412,0,0,1-12.0196-10.5801l8.2046-6.6211a32.23056,32.23056,0,0,0,9.6441,8.4204,25.11272,25.11272,0,0,0,12.3794,2.9512q7.341,0,11.4428-3.1665a11.50393,11.50393,0,0,0,1.2959-16.3379q-2.808-3.09375-10.1479-4.2461l-5.9019-.8638a49.17284,49.17284,0,0,1-9.5-2.2309,26.39976,26.39976,0,0,1-7.5566-4.0303,17.297,17.297,0,0,1-5.0381-6.2617,20.39417,20.39417,0,0,1-1.7993-8.9238,21.4472,21.4472,0,0,1,2.0151-9.5728,19.2685,19.2685,0,0,1,5.542-6.8369,24.22335,24.22335,0,0,1,8.4199-4.102,38.92048,38.92048,0,0,1,10.5084-1.3672q9.0681,0,15.1855,3.166a34.08609,34.08609,0,0,1,10.7241,8.7803l-7.6294,6.9091a22.90336,22.90336,0,0,0-7.1968-6.2607,23.17432,23.17432,0,0,0-11.9472-2.8076q-7.1997,0-10.8677,3.0957a10.43687,10.43687,0,0,0-3.6704,8.4199q0,5.4726,3.6704,7.9165,3.6702,2.45,10.5796,3.5991l5.7578.8633q12.378,1.87215,17.5606,7.125,5.1825,5.25735,5.1826,13.7461,0,10.79595-7.3413,16.9854Q1051.72085,338.56054,1038.9101,338.55859Z" fill="#a39b4b"/><path d="M1102.102,336.83109q-6.04545,0-9.1401-3.3736a12.55263,12.55263,0,0,1-3.0948-8.8345v-51.8461h-12.2353v-10.2188h6.9097q3.7404,0,5.1098-1.5127,1.366-1.5102,1.3672-5.2534v-13.8189h10.3638v20.585h16.2656v10.2188h-16.2656v53.8349h15.1137v10.2193Z" fill="#a39b4b"/><path d="M1141.9736,245.14009q-3.74415,0-5.3975-1.7988a6.63062,6.63062,0,0,1-1.6553-4.6787v-1.8711a6.63464,6.63464,0,0,1,1.6553-4.6777q1.6524-1.7988,5.3975-1.7998,3.7419,0,5.3979,1.7998a6.64546,6.64546,0,0,1,1.6553,4.6777v1.8711a6.64142,6.64142,0,0,1-1.6553,4.6787Q1145.7155,245.14234,1141.9736,245.14009Zm-5.7578,17.418h11.5156v74.273h-11.5156Z" fill="#a39b4b"/><path d="M1199.8383,338.55859a34.22987,34.22987,0,0,1-13.9624-2.7349,28.47725,28.47725,0,0,1-10.4355-7.7729,34.58158,34.58158,0,0,1-6.4776-12.2349,59.36646,59.36646,0,0,1,0-32.2431,34.62624,34.62624,0,0,1,6.4776-12.2354,28.515,28.515,0,0,1,10.4355-7.7725,34.215,34.215,0,0,1,13.9624-2.7343q11.0823,0,17.7769,4.8213a29.42969,29.42969,0,0,1,10.0039,12.5947l-9.6441,4.8945a17.4978,17.4978,0,0,0-6.621-8.9248,19.87847,19.87847,0,0,0-11.5157-3.1665,23.02654,23.02654,0,0,0-9.0683,1.6553,17.72524,17.72524,0,0,0-6.4776,4.6064,19.38954,19.38954,0,0,0-3.8862,7.0528,29.77079,29.77079,0,0,0-1.2959,8.9961v12.6669q0,9.7911,5.2544,16.0494,5.25225,6.2622,15.4736,6.2617,13.96005,0,20.1519-12.9551l8.3486,5.6143a29.49335,29.49335,0,0,1-10.7236,12.811Q1210.4902,338.55834,1199.8383,338.55859Z" fill="#a39b4b"/><path d="M1266.914,338.55859q-10.3638,0-17.3447-3.9585a39.41052,39.41052,0,0,1-12.0195-10.5801l8.2045-6.6211a32.23176,32.23176,0,0,0,9.6441,8.4204,25.11164,25.11164,0,0,0,12.3794,2.9512q7.341,0,11.4429-3.1665a11.50417,11.50417,0,0,0,1.2959-16.3379q-2.8074-3.09375-10.148-4.2461l-5.9019-.8638a49.1746,49.1746,0,0,1-9.5-2.2309,26.39976,26.39976,0,0,1-7.5566-4.0303,17.297,17.297,0,0,1-5.0381-6.2617,20.39417,20.39417,0,0,1-1.7993-8.9238,21.4472,21.4472,0,0,1,2.0151-9.5728,19.2685,19.2685,0,0,1,5.542-6.8369,24.223,24.223,0,0,1,8.42-4.102,38.91656,38.91656,0,0,1,10.5083-1.3672q9.0681,0,15.1855,3.166a34.08609,34.08609,0,0,1,10.7241,8.7803l-7.6294,6.9091a22.90071,22.90071,0,0,0-7.1972-6.2607,23.17152,23.17152,0,0,0-11.9468-2.8076q-7.1997,0-10.8677,3.0957a10.43687,10.43687,0,0,0-3.6704,8.4199q0,5.4726,3.6704,7.9165,3.6702,2.45,10.5796,3.5991l5.7578.8633q12.378,1.87215,17.561,7.125,5.1819,5.25735,5.1817,13.7461,0,10.79595-7.3408,16.9854Q1279.72475,338.56054,1266.914,338.55859Z" fill="#a39b4b"/><path d="M1378.0361,338.55859q-12.2358,0-20.8721-4.6782a44.28207,44.28207,0,0,1-14.6816-12.8828l8.9243-7.4854a39.1011,39.1011,0,0,0,11.8032,10.7241,30.437,30.437,0,0,0,15.2578,3.6704q10.79595,0,16.4815-5.1816,5.68425-5.18265,5.6855-13.8189,0-7.1952-4.3183-11.0825-4.31775-3.8877-14.25-6.1904l-8.2046-1.8711q-13.8186-3.16485-21.0874-9.5713-7.27005-6.40425-7.2696-18.0659a27.30384,27.30384,0,0,1,2.4473-11.8027,23.67456,23.67456,0,0,1,6.8374-8.6363,30.85316,30.85316,0,0,1,10.5073-5.2539,47.57919,47.57919,0,0,1,13.459-1.7998q11.36865,0,19.5039,4.1748a37.58008,37.58008,0,0,1,13.7466,12.2349l-9.0684,6.6211a31.31567,31.31567,0,0,0-10.0756-9.0684q-5.90415-3.30975-14.6827-3.311-9.6444,0-15.1855,4.1025-5.54295,4.1031-5.542,12.3072,0,7.19895,4.6782,10.8676,4.6758,3.6702,14.1782,5.8301l8.2041,1.8711q14.82495,3.31275,21.4483,10.0757,6.6189,6.7668,6.6211,17.9927a31.839,31.839,0,0,1-2.375,12.5234,25.70446,25.70446,0,0,1-6.8369,9.5,31.81015,31.81015,0,0,1-10.8677,6.0454A45.14565,45.14565,0,0,1,1378.0361,338.55859Z" fill="#a39b4b"/><path d="M1460.3701,338.55859a33.48974,33.48974,0,0,1-13.6748-2.7349,29.45056,29.45056,0,0,1-10.5796-7.8452,36.91117,36.91117,0,0,1-6.8374-12.2348,53.626,53.626,0,0,1,0-32.0274,36.82507,36.82507,0,0,1,6.8374-12.3066,29.49014,29.49014,0,0,1,10.5796-7.8448,33.47476,33.47476,0,0,1,13.6748-2.7343,32.99066,32.99066,0,0,1,13.6025,2.7343,30.369,30.369,0,0,1,10.5791,7.8448,36.21729,36.21729,0,0,1,6.9097,12.3066,53.626,53.626,0,0,1,0,32.0274,36.299,36.299,0,0,1-6.9097,12.2348,30.3269,30.3269,0,0,1-10.5791,7.8452A33.00532,33.00532,0,0,1,1460.3701,338.55859Zm0-10.2202q9.35445,0,15.2578-5.7578,5.9004-5.75535,5.9013-17.5606v-10.6518q0-11.8008-5.9013-17.5611-5.90415-5.7546-15.2578-5.7573-9.359,0-15.2578,5.7573-5.9049,5.75985-5.9019,17.5611V305.02q0,11.80515,5.9019,17.5606Q1451.01255,328.34029,1460.3701,328.33839Z" fill="#a39b4b"/><path d="M1540.5454,338.55859a34.22785,34.22785,0,0,1-13.9624-2.7349,28.48268,28.48268,0,0,1-10.4361-7.7729,34.58863,34.58863,0,0,1-6.477-12.2349,59.3511,59.3511,0,0,1,0-32.2431,34.63331,34.63331,0,0,1,6.477-12.2354,28.52046,28.52046,0,0,1,10.4361-7.7725,34.21294,34.21294,0,0,1,13.9624-2.7343q11.08215,0,17.7763,4.8213a29.43077,29.43077,0,0,1,10.0044,12.5947l-9.6445,4.8945a17.49522,17.49522,0,0,0-6.6211-8.9248,19.87562,19.87562,0,0,0-11.5151-3.1665,23.02787,23.02787,0,0,0-9.0689,1.6553,17.71794,17.71794,0,0,0-6.477,4.6064,19.38825,19.38825,0,0,0-3.8863,7.0528,29.75827,29.75827,0,0,0-1.2959,8.9961v12.6669q0,9.7911,5.2539,16.0494,5.253,6.2622,15.4742,6.2617,13.95915,0,20.1518-12.9551l8.3486,5.6143a29.49442,29.49442,0,0,1-10.7241,12.811Q1551.19745,338.55834,1540.5454,338.55859Z" fill="#a39b4b"/><path d="M1591.0673,245.14009q-3.74475,0-5.3974-1.7988a6.63062,6.63062,0,0,1-1.6553-4.6787v-1.8711a6.63464,6.63464,0,0,1,1.6553-4.6777q1.65225-1.7988,5.3974-1.7998,3.7413,0,5.398,1.7998a6.64591,6.64591,0,0,1,1.6553,4.6777v1.8711a6.64187,6.64187,0,0,1-1.6553,4.6787Q1594.8093,245.14234,1591.0673,245.14009Zm-5.7578,17.418h11.5156v74.273h-11.5156Z" fill="#a39b4b"/><path d="M1649.2197,338.55859a33.34886,33.34886,0,0,1-13.7461-2.7349,29.60316,29.60316,0,0,1-10.5078-7.8452,35.96275,35.96275,0,0,1-6.7657-12.2348,55.18543,55.18543,0,0,1,0-32.0274,35.8916,35.8916,0,0,1,6.7657-12.3066,29.64345,29.64345,0,0,1,10.5078-7.8448,33.33426,33.33426,0,0,1,13.7461-2.7343,31.57109,31.57109,0,0,1,13.3867,2.7256,29.67826,29.67826,0,0,1,10.0762,7.5317,33.58038,33.58038,0,0,1,6.4052,11.4028,45.01666,45.01666,0,0,1,2.2315,14.4864v5.4516h-53.4028v3.4551a25.41943,25.41943,0,0,0,1.5112,8.8525,21.02225,21.02225,0,0,0,4.3183,7.1245,19.73931,19.73931,0,0,0,6.9092,4.751,23.72961,23.72961,0,0,0,9.2842,1.7266,22.59289,22.59289,0,0,0,12.3076-3.3106,21.71951,21.71951,0,0,0,8.1323-9.5l8.2046,5.9395a28.66378,28.66378,0,0,1-11.2275,12.3838A33.86209,33.86209,0,0,1,1649.2197,338.55859Zm0-68.0845a21.92746,21.92746,0,0,0-8.6363,1.6465,19.41735,19.41735,0,0,0-6.6933,4.6484,21.79725,21.79725,0,0,0-4.3901,7.0811,24.46325,24.46325,0,0,0-1.5835,8.9414v1.001h41.0234v-1.5747q0-9.8709-5.398-15.8062Q1658.144,270.47459,1649.2197,270.47409Z" fill="#a39b4b"/><path d="M1716.728,336.83109q-6.04545,0-9.1402-3.3736a12.55076,12.55076,0,0,1-3.0947-8.8345v-51.8461h-12.2353v-10.2188h6.9091q3.7413,0,5.1104-1.5127,1.3659-1.5102,1.3672-5.2534v-13.8189h10.3638v20.585h16.2656v10.2188h-16.2656v53.8349h15.1137v10.2193Z" fill="#a39b4b"/><path d="M1796.6152,262.55809h11.3721l-33.251,91.5459a40.877,40.877,0,0,1-2.5908,5.5415,10.80393,10.80393,0,0,1-3.167,3.5269,12.59049,12.59049,0,0,1-4.6778,1.8711,34.76185,34.76185,0,0,1-6.8374.5761h-5.9018v-10.2197h11.6592l5.6142-15.8086-27.7812-77.0332h11.5156l17.8486,50.4258,3.4546,12.0688h.7197l4.0303-12.0688Z" fill="#a39b4b"/><path d="M646.7939,477.749l-3.6104-11.4765H627.1933l-3.5459,11.4765h-8.6406l15.0879-45.0039h10.5742l14.958,45.0039Zm-11.4766-37.2656h-.3222l-5.7383,18.5039h11.8633Z" fill="#a39b4b"/><path d="M692.1191,477.749l-3.6104-11.4765H672.5185l-3.5459,11.4765H660.332l15.0879-45.0039h10.5742l14.958,45.0039Zm-11.4766-37.2656h-.3222l-5.7383,18.5039h11.8633Z" fill="#a39b4b"/><path d="M736.1562,458.72949H717.3935V477.749h-8.5107v-45.0039h8.5107v18.4395h18.7627v-18.4395h8.5107V477.749h-8.5107Z" fill="#a39b4b"/><path d="M771.0371,457.376l-5.9961,7.0918V477.749h-8.5108v-45.0039h8.5108v22.1797h.3222l6.3828-8.4453,11.1543-13.7344h9.8008l-15.6679,18.7617,16.957,26.2422H783.8681Z" fill="#a39b4b"/><path d="M809.5937,432.74509v27.6602q0,5.2881,2.0313,7.9316,2.03025,2.64255,6.8662,2.6426,4.8354,0,6.8671-2.6426,2.0304-2.64555,2.0303-7.9316v-27.6602h8.3819v26.5645a34.52436,34.52436,0,0,1-.9346,8.5742,14.61108,14.61108,0,0,1-2.9981,5.998,12.09317,12.09317,0,0,1-5.3837,3.5137,25.175,25.175,0,0,1-8.0274,1.127,24.79109,24.79109,0,0,1-8.0273-1.127,12.1125,12.1125,0,0,1-5.3194-3.5137,14.2933,14.2933,0,0,1-2.9658-5.998,35.65345,35.65345,0,0,1-.9023-8.5742v-26.5645Z" fill="#a39b4b"/></g></svg>