<svg xmlns="http://www.w3.org/2000/svg" xmlns:xlink="http://www.w3.org/1999/xlink" viewBox="0 0 2899.3926 708.6718"><defs><clipPath id="a"><rect width="2899.3926" height="708.6718" fill="none"/></clipPath></defs><g clip-path="url(#a)"><path d="M158.4414,271.5722a210.68838,210.68838,0,0,0-16.1699,67.4258,20.76184,20.76184,0,0,1,27.3535.957c7.3379-95.5918,87.2246-170.8711,184.7012-170.8711a13.67575,13.67575,0,0,0,0-27.3515A212.816,212.816,0,0,0,158.4414,271.5722Z" fill="#fff"/><path d="M339.1855,538.9687c-94.955-7.6816-169.6718-86.9629-170.1015-183.7949a13.6758,13.6758,0,1,0-27.3516,0A212.4393,212.4393,0,0,0,338.0996,566.332a20.75389,20.75389,0,0,1,1.0859-27.3633Z" fill="#fff"/><path d="M502.5273,487.4121a13.67411,13.67411,0,0,0-19.3398,0,184.63969,184.63969,0,0,1-128.8613,52.1757,13.6758,13.6758,0,0,0,0,27.3516,211.90939,211.90939,0,0,0,148.2011-60.1855A13.67182,13.67182,0,0,0,502.5273,487.4121Z" fill="#fff"/><path d="M354.3262,566.9394a13.6758,13.6758,0,0,1,0-27.3516,184.63969,184.63969,0,0,0,128.8613-52.1757,13.676,13.676,0,0,1,19.3398,19.3418,211.90939,211.90939,0,0,1-148.2011,60.1855Zm-82.7657-16.7187A212.41372,212.41372,0,0,1,141.7324,355.1738a13.6758,13.6758,0,1,1,27.3516,0c.4297,96.832,75.1465,176.1133,170.1015,183.7949a20.75389,20.75389,0,0,0-1.0859,27.3633A210.724,210.724,0,0,1,271.5605,550.2207Zm82.7657-408.4883a13.67575,13.67575,0,0,1,0,27.3515c-97.4766,0-177.3633,75.2793-184.7012,170.8711a20.76184,20.76184,0,0,0-27.3535-.957A212.4384,212.4384,0,0,1,354.3262,141.7324Z" fill="#fff"/><path d="M466.914,241.75a159.22946,159.22946,0,1,0,46.6309,112.5859A158.17877,158.17877,0,0,0,466.914,241.75Z" fill="#fff"/><path d="M242.1172,405.8261V302.8476h22.332v7.6113H251.5039v87.7539h12.9453v7.6133Z" fill="#333e48"/><path d="M466.539,302.8476V405.8261h-22.33v-7.6133h12.9394V310.4589H444.209v-7.6113Z" fill="#333e48"/><path d="M293.9863,375.2558q0,3.0879.0957,7.2715.09375,4.18365.2598,8.4961.1581,4.3125.3867,8.2402.21975,3.9258.5449,6.5625H282.0801V333.0957q0-9.39555-.3223-17.0235-.31935-7.62885-.9668-13.2246h13.1953Z" fill="#333e48"/><path d="M351.5937,340.1757v8.4336H339.4922v48.7871h12.1015v8.4317H315.5508v-8.4317H327.457V348.6093H315.5508v-8.4336Z" fill="#333e48"/><path d="M378.6269,340.1757a22.09635,22.09635,0,0,1,.7715,2.6739c.2617,1.0937.4922,2.2402.709,3.4414q.31935,1.80165.5801,3.541l.5117,2.8926q6.18165-7.33305,12.4238-10.586a27.81717,27.81717,0,0,1,13.002-3.25,22.83742,22.83742,0,0,1,9.1074,1.7051A16.06619,16.06619,0,0,1,422.3945,346a26.471,26.471,0,0,1,4.0879,9.5918,62.95018,62.95018,0,0,1,1.3828,14.1953V398.746a72.0235,72.0235,0,0,1-1.9004,18.0547,30.95365,30.95365,0,0,1-5.3086,11.461,18.66373,18.66373,0,0,1-8.207,6.0468,30.57755,30.57755,0,0,1-10.6523,1.7715,23.0243,23.0243,0,0,1-6.211-.9336,23.55474,23.55474,0,0,1-6.0176-2.6074l4.1836-9.6562a12.85568,12.85568,0,0,0,3.959,1.8359,17.58819,17.58819,0,0,0,5.0488.7383,14.55675,14.55675,0,0,0,5.5411-.9961,9.2218,9.2218,0,0,0,4.1484-3.5059,19.22355,19.22355,0,0,0,2.6074-6.8886,56.87134,56.87134,0,0,0,.9004-11.1348V374.6113a78.39547,78.39547,0,0,0-.8047-12.5176,21.57434,21.57434,0,0,0-2.414-7.4668,8.011,8.011,0,0,0-4.0254-3.5742,16.10547,16.10547,0,0,0-5.6289-.9004,15.12623,15.12623,0,0,0-6.7891,1.6445,24.99848,24.99848,0,0,0-6.084,4.2461,31.61466,31.61466,0,0,0-4.8906,5.8887,27.17494,27.17494,0,0,0-3.1563,6.5644v37.3321H370.2597v-39.584a100.69383,100.69383,0,0,0-1.0957-16.1231,81.88674,81.88674,0,0,0-2.125-9.9453Z" fill="#333e48"/><text transform="translate(2037.91014 381.84175)" font-size="80" fill="#fff" font-family="FiraSans-Bold, Fira Sans" font-weight="700">Se<tspan x="90.07813" y="0" letter-spacing="-0.00699em">s</tspan><tspan x="127.91797" y="0" letter-spacing="0.00001em">sion 2020–2021</tspan></text><rect x="1925.9472" y="242.9003" width="3" height="228.4454" fill="#fff"/><path d="M626.665,336.8339V236.3623h12.0918v89.8193h42.751v10.6523Z" fill="#fff"/><path d="M703.3857,245.1425q-3.74415,0-5.3984-1.7988a6.63536,6.63536,0,0,1-1.6543-4.6787v-1.8711a6.63787,6.63787,0,0,1,1.6543-4.6777q1.65375-1.79895,5.3984-1.7998,3.7413,0,5.3975,1.7998a6.643,6.643,0,0,1,1.6553,4.6777v1.8711a6.64046,6.64046,0,0,1-1.6553,4.6787Q707.12645,245.1455,703.3857,245.1425Zm-5.7578,17.418h11.5147v74.2734H697.6279Z" fill="#fff"/><path d="M733.6133,336.8339V262.5605h11.5156v11.9531h.5752a24.21173,24.21173,0,0,1,7.7012-9.9746q4.96575-3.70455,13.3144-3.706,11.5122,0,18.209,7.4121,6.69285,7.415,6.6934,20.9443v47.6445H780.1064V291.1054q0-20.05365-16.8408-20.0527a25.88935,25.88935,0,0,0-6.6943.8652,19.44,19.44,0,0,0-5.8291,2.5977,12.82235,12.82235,0,0,0-4.1026,4.3994,12.52809,12.52809,0,0,0-1.5107,6.2744v51.6445Z" fill="#fff"/><path d="M874.3887,334.3867q0,15.3999-8.6377,24.1816-8.6382,8.78025-24.3262,8.7813a39.3698,39.3698,0,0,1-15.6182-2.8184,31.87524,31.87524,0,0,1-10.8672-7.4473l6.7647-7.9521a26.13362,26.13362,0,0,0,8.6367,5.9267,28.98776,28.98776,0,0,0,11.3711,2.0704q10.0752,0,15.6182-5.5635,5.53995-5.57085,5.542-16.4111V324.8798h-.5762a24.439,24.439,0,0,1-8.6358,10.2598,23.74772,23.74772,0,0,1-13.0986,3.4209,28.23706,28.23706,0,0,1-12.5234-2.7344,26.52464,26.52464,0,0,1-9.5-7.7734,37.388,37.388,0,0,1-6.0459-12.2344,61.26494,61.26494,0,0,1,0-32.2431,37.442,37.442,0,0,1,6.0459-12.2354,26.56388,26.56388,0,0,1,9.5-7.7725,28.22472,28.22472,0,0,1,12.5234-2.7343,25.28672,25.28672,0,0,1,13.3145,3.3486,20.89235,20.89235,0,0,1,8.4199,10.332h.5762V262.5605h11.5166Zm-30.3731-6.0459a25.94635,25.94635,0,0,0,7.3408-1.0127,17.79394,17.79394,0,0,0,5.9737-2.9658,14.83055,14.83055,0,0,0,4.0293-4.7725,13.72328,13.72328,0,0,0,1.5127-6.583V285.375a11.91661,11.91661,0,0,0-1.4395-5.7159,13.50492,13.50492,0,0,0-4.0303-4.5556,20.874,20.874,0,0,0-6.0459-2.9649,24.3196,24.3196,0,0,0-7.3408-1.0859q-9.7896,0-15.5459,6.2207-5.75835,6.21975-5.7578,16.0586v12.7295q0,9.8364,5.7578,16.0586Q834.22505,328.3412,844.0156,328.3408Z" fill="#fff"/><path d="M944.6289,324.8798h-.5752a35.53827,35.53827,0,0,1-2.8066,5.0606,18.9649,18.9649,0,0,1-4.1026,4.417,19.25091,19.25091,0,0,1-5.9014,3.0635,25.77606,25.77606,0,0,1-8.0615,1.1396q-11.51805,0-18.2803-7.4131-6.76755-7.4106-6.7656-20.9433V262.5605h11.5156V308.288q0,20.0523,16.9844,20.0528a25.77154,25.77154,0,0,0,6.6944-.8662,18.46,18.46,0,0,0,5.7568-2.5948,13.11623,13.11623,0,0,0,4.0312-4.3994,12.82973,12.82973,0,0,0,1.5108-6.4219v-51.498h11.5156v74.2734H944.6289Z" fill="#fff"/><path d="M986.3711,245.1425q-3.74415,0-5.3975-1.7988a6.63146,6.63146,0,0,1-1.6553-4.6787v-1.8711a6.634,6.634,0,0,1,1.6553-4.6777q1.6524-1.79895,5.3975-1.7998,3.74265,0,5.3974,1.7998a6.64313,6.64313,0,0,1,1.6563,4.6777v1.8711a6.6406,6.6406,0,0,1-1.6563,4.6787Q990.11325,245.1455,986.3711,245.1425Zm-5.7578,17.418h11.5156v74.2734H980.6133Z" fill="#fff"/><path d="M1038.9101,338.5605q-10.36365,0-17.3447-3.958a39.40857,39.40857,0,0,1-12.0205-10.5801l8.2061-6.6211a32.22073,32.22073,0,0,0,9.6435,8.4209,25.11766,25.11766,0,0,0,12.3799,2.9512q7.3404,0,11.4424-3.167a11.50556,11.50556,0,0,0,1.2969-16.3379q-2.80965-3.09375-10.1504-4.2461l-5.9004-.8642a49.15082,49.15082,0,0,1-9.5-2.2305,26.40035,26.40035,0,0,1-7.5567-4.0303,17.29382,17.29382,0,0,1-5.0381-6.2617,20.39569,20.39569,0,0,1-1.7988-8.9238,21.45631,21.45631,0,0,1,2.0147-9.5733,19.25757,19.25757,0,0,1,5.542-6.8359,24.21648,24.21648,0,0,1,8.4189-4.1025,38.92557,38.92557,0,0,1,10.5088-1.3672q9.06885,0,15.1855,3.166a34.068,34.068,0,0,1,10.7237,8.7803l-7.628,6.9091a22.92483,22.92483,0,0,0-7.1962-6.2607,23.18725,23.18725,0,0,0-11.9483-2.8076q-7.1997,0-10.8672,3.0957a10.43536,10.43536,0,0,0-3.6709,8.4199q0,5.4726,3.6709,7.917,3.66945,2.4492,10.5791,3.5986l5.7578.8633q12.378,1.87215,17.5616,7.125,5.18115,5.25735,5.1816,13.7461,0,10.796-7.3418,16.9853Q1051.72125,338.563,1038.9101,338.5605Z" fill="#fff"/><path d="M1102.1025,336.8339q-6.0468,0-9.1416-3.374a12.5528,12.5528,0,0,1-3.0937-8.8349V272.7793h-12.2354V262.5605h6.9102q3.73965,0,5.1093-1.5127,1.3653-1.5102,1.3672-5.2529V241.9755h10.3633v20.585h16.2647v10.2188h-16.2647v53.8349h15.1143v10.2197Z" fill="#fff"/><path d="M1141.9736,245.1425q-3.74415,0-5.3974-1.7988a6.63146,6.63146,0,0,1-1.6553-4.6787v-1.8711a6.634,6.634,0,0,1,1.6553-4.6777q1.65225-1.79895,5.3974-1.7998,3.7413,0,5.3985,1.7998a6.64684,6.64684,0,0,1,1.6542,4.6777v1.8711a6.64431,6.64431,0,0,1-1.6542,4.6787Q1145.71535,245.1455,1141.9736,245.1425Zm-5.7578,17.418h11.5147v74.2734h-11.5147Z" fill="#fff"/><path d="M1199.8388,338.5605a34.23173,34.23173,0,0,1-13.9628-2.7344,28.47249,28.47249,0,0,1-10.4356-7.7734,34.57473,34.57473,0,0,1-6.4775-12.2344,59.32807,59.32807,0,0,1,0-32.2431,34.62176,34.62176,0,0,1,6.4775-12.2354,28.51454,28.51454,0,0,1,10.4356-7.7725,34.21689,34.21689,0,0,1,13.9628-2.7343q11.08155,0,17.7764,4.8213a29.435,29.435,0,0,1,10.0039,12.5947l-9.6435,4.8945a17.5117,17.5117,0,0,0-6.6211-8.9248,19.8827,19.8827,0,0,0-11.5157-3.166,23.03272,23.03272,0,0,0-9.0683,1.6543,17.73846,17.73846,0,0,0-6.4785,4.6074,19.38686,19.38686,0,0,0-3.8858,7.0527,29.77019,29.77019,0,0,0-1.2959,8.9961v12.6661q0,9.791,5.253,16.0498,5.25435,6.2622,15.4755,6.2617,13.96005,0,20.1514-12.9551L1228.3388,321a29.49143,29.49143,0,0,1-10.7236,12.8105Q1210.4902,338.561,1199.8388,338.5605Z" fill="#fff"/><path d="M1266.914,338.5605q-10.36365,0-17.3447-3.958a39.38186,39.38186,0,0,1-12.0195-10.5801l8.2051-6.6211a32.24363,32.24363,0,0,0,9.6435,8.4209,25.11766,25.11766,0,0,0,12.3799,2.9512q7.3404,0,11.4424-3.167a11.50417,11.50417,0,0,0,1.2959-16.3379q-2.80665-3.09375-10.1485-4.2461l-5.9013-.8642a49.16836,49.16836,0,0,1-9.5-2.2305,26.40035,26.40035,0,0,1-7.5567-4.0303,17.29252,17.29252,0,0,1-5.038-6.2617,20.39425,20.39425,0,0,1-1.7989-8.9238,21.45631,21.45631,0,0,1,2.0147-9.5733,19.24637,19.24637,0,0,1,5.541-6.8359,24.2178,24.2178,0,0,1,8.4209-4.1025,38.91285,38.91285,0,0,1,10.5078-1.3672q9.06885,0,15.1855,3.166a34.09378,34.09378,0,0,1,10.7247,8.7803l-7.629,6.9091a22.91819,22.91819,0,0,0-7.1972-6.2607,23.18089,23.18089,0,0,0-11.9473-2.8076q-7.1997,0-10.8672,3.0957a10.43536,10.43536,0,0,0-3.6709,8.4199q0,5.4726,3.6709,7.917,3.66945,2.4492,10.5791,3.5986l5.7578.8633q12.378,1.87215,17.5616,7.125,5.18115,5.25735,5.1816,13.7461,0,10.796-7.3418,16.9853Q1279.72515,338.563,1266.914,338.5605Z" fill="#fff"/><path d="M1378.0361,338.5605q-12.2358,0-20.8721-4.6777A44.29772,44.29772,0,0,1,1342.4824,321l8.9248-7.4854a39.09968,39.09968,0,0,0,11.8018,10.7236,30.43554,30.43554,0,0,0,15.2588,3.6709q10.7943,0,16.4814-5.1816,5.685-5.18265,5.6855-13.8193,0-7.19535-4.3183-11.0821-4.31685-3.8877-14.25-6.1904l-8.2041-1.8711q-13.81935-3.16545-21.0879-9.5713-7.27005-6.40425-7.2695-18.0664a27.30852,27.30852,0,0,1,2.4472-11.8027,23.67306,23.67306,0,0,1,6.8379-8.6358,30.8557,30.8557,0,0,1,10.5069-5.2539,47.58047,47.58047,0,0,1,13.4589-1.7998q11.36865,0,19.5039,4.1748a37.58083,37.58083,0,0,1,13.7471,12.2354l-9.0683,6.6211a31.30712,31.30712,0,0,0-10.0762-9.0684q-5.9034-3.3105-14.6826-3.3115-9.64455,0-15.1856,4.1025-5.54295,4.1031-5.542,12.3067,0,7.1997,4.6768,10.8681,4.6773,3.66945,14.1797,5.8301l8.2051,1.8711q14.8212,3.312,21.4472,10.0752,6.61965,6.76755,6.6211,17.9932a31.848,31.848,0,0,1-2.375,12.5234,25.6977,25.6977,0,0,1-6.8369,9.5,31.8234,31.8234,0,0,1-10.8672,6.0459A45.16907,45.16907,0,0,1,1378.0361,338.5605Z" fill="#fff"/><path d="M1460.3701,338.5605a33.48955,33.48955,0,0,1-13.6748-2.7344,29.4385,29.4385,0,0,1-10.5791-7.8457,36.8981,36.8981,0,0,1-6.8379-12.2344,53.59642,53.59642,0,0,1,0-32.0273,36.819,36.819,0,0,1,6.8379-12.3066,29.48255,29.48255,0,0,1,10.5791-7.8448,33.47476,33.47476,0,0,1,13.6748-2.7343,32.99,32.99,0,0,1,13.6025,2.7343,30.36649,30.36649,0,0,1,10.5791,7.8448,36.2147,36.2147,0,0,1,6.9092,12.3066,53.61523,53.61523,0,0,1,0,32.0273,36.28961,36.28961,0,0,1-6.9092,12.2344,30.31961,30.31961,0,0,1-10.5791,7.8457A33.00449,33.00449,0,0,1,1460.3701,338.5605Zm0-10.2197q9.35445,0,15.2578-5.7578,5.9004-5.7555,5.9014-17.5606V294.371q0-11.80065-5.9014-17.5615-5.90325-5.75535-15.2578-5.7568-9.359,0-15.2588,5.7568-5.90325,5.75985-5.9023,17.5615v10.6514q0,11.80515,5.9023,17.5606Q1451.0117,328.3427,1460.3701,328.3408Z" fill="#fff"/><path d="M1540.5449,338.5605a34.22738,34.22738,0,0,1-13.9619-2.7344,28.48311,28.48311,0,0,1-10.4365-7.7734,34.5717,34.5717,0,0,1-6.4766-12.2344,59.35366,59.35366,0,0,1,0-32.2431,34.61872,34.61872,0,0,1,6.4766-12.2354,28.52519,28.52519,0,0,1,10.4365-7.7725,34.21254,34.21254,0,0,1,13.9619-2.7343q11.083,0,17.7764,4.8213a29.43052,29.43052,0,0,1,10.0049,12.5947l-9.6446,4.8945a17.49522,17.49522,0,0,0-6.6211-8.9248,19.8758,19.8758,0,0,0-11.5156-3.166,23.03669,23.03669,0,0,0-9.0684,1.6543,17.72629,17.72629,0,0,0-6.4775,4.6074,19.38521,19.38521,0,0,0-3.8857,7.0527,29.73579,29.73579,0,0,0-1.2959,8.9961v12.6661q0,9.791,5.2539,16.0498,5.25285,6.2622,15.4736,6.2617,13.9599,0,20.1523-12.9551L1569.0449,321a29.48538,29.48538,0,0,1-10.7236,12.8105Q1551.19765,338.561,1540.5449,338.5605Z" fill="#fff"/><path d="M1591.0674,245.1425q-3.74415,0-5.3975-1.7988a6.6275,6.6275,0,0,1-1.6562-4.6787v-1.8711a6.63,6.63,0,0,1,1.6562-4.6777q1.6524-1.79895,5.3975-1.7998,3.74115,0,5.3984,1.7998a6.64645,6.64645,0,0,1,1.6543,4.6777v1.8711a6.64392,6.64392,0,0,1-1.6543,4.6787Q1594.80905,245.1455,1591.0674,245.1425Zm-5.7578,17.418h11.5156v74.2734h-11.5156Z" fill="#fff"/><path d="M1649.2207,338.5605a33.35053,33.35053,0,0,1-13.7471-2.7344,29.59271,29.59271,0,0,1-10.5078-7.8457,35.95592,35.95592,0,0,1-6.7656-12.2344,55.174,55.174,0,0,1,0-32.0273,35.89143,35.89143,0,0,1,6.7656-12.3066,29.63753,29.63753,0,0,1,10.5078-7.8448,33.336,33.336,0,0,1,13.7471-2.7343,31.56456,31.56456,0,0,1,13.3857,2.7255,29.69331,29.69331,0,0,1,10.0762,7.5313,33.605,33.605,0,0,1,6.4053,11.4033,45.01749,45.01749,0,0,1,2.2314,14.4863v5.4522H1627.917v3.4551a25.42319,25.42319,0,0,0,1.5107,8.8515,21.02313,21.02313,0,0,0,4.3184,7.125,19.74664,19.74664,0,0,0,6.9092,4.751,23.72876,23.72876,0,0,0,9.2841,1.7266,22.59774,22.59774,0,0,0,12.3077-3.3106,21.72756,21.72756,0,0,0,8.1328-9.5l8.2041,5.9395a28.66033,28.66033,0,0,1-11.2276,12.3838A33.86075,33.86075,0,0,1,1649.2207,338.5605Zm0-68.084a21.9376,21.9376,0,0,0-8.6377,1.6465,19.411,19.411,0,0,0-6.6934,4.6484,21.79776,21.79776,0,0,0-4.3896,7.0811,24.4529,24.4529,0,0,0-1.583,8.9414v1.001h41.0234v-1.5742q0-9.87165-5.3984-15.8067Q1658.14395,270.477,1649.2207,270.4765Z" fill="#fff"/><path d="M1716.7265,336.8339q-6.04395,0-9.1386-3.374a12.549,12.549,0,0,1-3.0957-8.8349V272.7793h-12.2344V262.5605h6.9092q3.73965,0,5.1103-1.5127,1.3668-1.5102,1.3672-5.2529V241.9755h10.3643v20.585h16.2656v10.2188h-16.2656v53.8349h15.1133v10.2197Z" fill="#fff"/><path d="M1796.6152,262.5605h11.3721l-33.251,91.5459a40.95136,40.95136,0,0,1-2.5908,5.542,10.81266,10.81266,0,0,1-3.167,3.5264,12.58927,12.58927,0,0,1-4.6777,1.8711,34.79641,34.79641,0,0,1-6.8379.5761h-5.9014V355.4023h11.6592l5.6142-15.8086-27.7802-77.0332h11.5146l17.8487,50.4258,3.4541,12.0683h.7207l4.0293-12.0683Z" fill="#fff"/><path d="M646.793,477.7509l-3.6094-11.4765H627.1933l-3.5468,11.4765h-8.6397l15.0879-45.0039h10.5742l14.958,45.0039Zm-11.4756-37.2656h-.3223l-5.7383,18.5039h11.8633Z" fill="#fff"/><path d="M692.1191,477.7509l-3.6103-11.4765H672.5185l-3.5459,11.4765H660.332l15.0879-45.0039h10.5742l14.958,45.0039Zm-11.4765-37.2656h-.3223l-5.7383,18.5039h11.8633Z" fill="#fff"/><path d="M736.1562,458.7314H717.3935v19.0195h-8.5107V432.747h8.5107v18.4395h18.7627V432.747h8.5108v45.0039h-8.5108Z" fill="#fff"/><path d="M771.0371,457.3779l-5.9961,7.0918v13.2812h-8.5107V432.747h8.5107v22.1797h.3223l6.3828-8.4453,11.1543-13.7344h9.8008l-15.668,18.7617,16.957,26.2422H783.8681Z" fill="#fff"/><path d="M809.5937,432.747v27.6602q0,5.2881,2.0313,7.9316,2.03025,2.64255,6.8662,2.6426,4.8354,0,6.8672-2.6426,2.03025-2.6454,2.0303-7.9316V432.747h8.3818v26.5645a34.51962,34.51962,0,0,1-.9346,8.5742,14.611,14.611,0,0,1-2.998,5.998,12.09906,12.09906,0,0,1-5.3838,3.5137,25.17892,25.17892,0,0,1-8.0274,1.127,24.78687,24.78687,0,0,1-8.0273-1.127,12.11217,12.11217,0,0,1-5.3193-3.5137,14.30389,14.30389,0,0,1-2.9668-5.998,35.70275,35.70275,0,0,1-.9014-8.5742V432.747Z" fill="#fff"/></g></svg>