<svg xmlns="http://www.w3.org/2000/svg" xmlns:xlink="http://www.w3.org/1999/xlink" viewBox="0 0 633.1875 692.6768"><defs><clipPath id="a"><rect width="633.1875" height="692.6768" fill="none"/></clipPath></defs><g clip-path="url(#a)"><text transform="translate(97.55471 624.70707)" font-size="42" fill="#a39b4b" font-family="SourceHanSansHC-Medium-B5pc-H, Source Han Sans HC"><tspan letter-spacing="0.00658em">二零二零至二零二一年</tspan><tspan x="422.76465" y="0">度</tspan></text><path d="M79.2227,135.7842a105.32825,105.32825,0,0,0-8.084,33.7119,10.38144,10.38144,0,0,1,13.6758.4795A92.62935,92.62935,0,0,1,177.1621,84.542a6.8374,6.8374,0,1,0,0-13.6748,106.40889,106.40889,0,0,0-97.9394,64.917Z" fill="#a39b4b"/><path d="M169.5918,269.4795A92.62753,92.62753,0,0,1,84.5449,177.584a6.83785,6.83785,0,1,0-13.6757,0,106.21349,106.21349,0,0,0,98.1816,105.5762,10.37568,10.37568,0,0,1,.541-13.6807Z" fill="#a39b4b"/><path d="M251.2598,243.7012a6.83717,6.83717,0,0,0-9.6699,0,92.31112,92.31112,0,0,1-64.4278,26.0879,6.8374,6.8374,0,1,0,0,13.6748,105.93393,105.93393,0,0,0,74.0977-30.0928A6.8347,6.8347,0,0,0,251.2598,243.7012Z" fill="#a39b4b"/><path d="M177.1621,70.8653A106.21733,106.21733,0,0,0,71.1367,169.4942a10.393,10.393,0,0,1,13.6758.4795,92.63191,92.63191,0,0,1,92.3496-85.4336,6.8374,6.8374,0,1,0,0-13.6748Zm-7.5703,198.6133A92.6205,92.6205,0,0,1,84.5469,177.584a6.83985,6.83985,0,0,0-13.6797,0,106.21576,106.21576,0,0,0,98.1836,105.5742,10.37422,10.37422,0,0,1,.541-13.6796Zm81.668-25.7754a6.83235,6.83235,0,0,0-9.6699,0,92.31214,92.31214,0,0,1-64.4278,26.0849,6.8374,6.8374,0,0,0,0,13.6748,105.94535,105.94535,0,0,0,74.0977-30.0888A6.83953,6.83953,0,0,0,251.2598,243.7032Z" fill="#a39b4b"/><path d="M233.4512,120.875a79.61473,79.61473,0,1,0,23.3145,56.2891A79.07326,79.07326,0,0,0,233.4512,120.875ZM132.2266,155.2295H125.752v43.875h6.4746v3.8047H121.0567V151.42h11.1699Zm8.8144,47.6797V166.544q0-4.69335-.164-8.5098-.15825-3.81735-.4805-6.6142h6.5957v36.2041c0,1.0302.0137,2.2402.0488,3.6347q.047,2.09325.1309,4.25c.0488,1.4356.1152,2.8106.1895,4.1201.0761,1.3047.166,2.4004.2753,3.2803Zm34.7559-28.6055h-6.0508v24.3907h6.0508v4.2148H157.7774v-4.2148h5.9492V174.3037h-5.9492V170.084h18.0195Zm38.1348,25.0655a36.15654,36.15654,0,0,1-.9512,9.0303,15.51689,15.51689,0,0,1-2.6543,5.7246,9.25527,9.25527,0,0,1-4.1055,3.0254,15.25553,15.25553,0,0,1-5.3242.8837,12.33167,12.33167,0,0,1-6.1152-1.7695l2.0957-4.8242a6.33257,6.33257,0,0,0,1.9746.915,8.69262,8.69262,0,0,0,2.5234.3692,7.34513,7.34513,0,0,0,2.7715-.4942,4.66506,4.66506,0,0,0,2.0742-1.7558,9.51114,9.51114,0,0,0,1.3047-3.4444,28.34644,28.34644,0,0,0,.4512-5.5654v-14.165a39.545,39.545,0,0,0-.4004-6.2549,10.85755,10.85755,0,0,0-1.2109-3.7354,3.989,3.989,0,0,0-2.0098-1.7841,8.02693,8.02693,0,0,0-2.8145-.4502,7.574,7.574,0,0,0-3.3945.8203,12.46727,12.46727,0,0,0-3.0449,2.125,15.83284,15.83284,0,0,0-2.4453,2.9443,13.50445,13.50445,0,0,0-1.5742,3.2803v18.665H185.127v-19.79a50.50886,50.50886,0,0,0-.5449-8.0606,40.701,40.701,0,0,0-1.0664-4.9746h5.7949a10.97425,10.97425,0,0,1,.3847,1.3399c.1309.5449.2461,1.1201.3555,1.7207.1055.5996.2051,1.1894.291,1.7695l.2539,1.4453a21.11692,21.11692,0,0,1,6.2149-5.29,13.88936,13.88936,0,0,1,6.5-1.6299,11.36052,11.36052,0,0,1,4.5508.8545,7.99869,7.99869,0,0,1,3.3339,2.7051,13.1813,13.1813,0,0,1,2.0411,4.7949,31.21212,31.21212,0,0,1,.6953,7.0947Zm19.334,3.54H222.1016v-3.8047h6.4687v-43.875h-6.4687V151.42h11.1641Z" fill="#a39b4b"/><path d="M129.7637,447.2686H97.5547v-5.3457h32.209Zm-4.1914,56.9316h-5.5195v-5.8613H107.1797v5.8613h-5.6035v-28.916h23.9961Zm-.2578-45.8945-23.6524.084V453.044h23.6524Zm.0859,11.2051H101.6621v-5.3457h23.7383Zm-1.0703-33.1055-21.7285.0859v-5.3476h21.7285Zm-4.2773,56.6719V480.5459h-12.959v12.5313Zm55.2617-23.4805-46.2363.086v-5.2618H140.541l2.4805-13.2168H132.3301v-5.2597h11.5488l1.8379-9.7969H129.336v-5.3457h42.4726v5.2617H151.4903l-1.752,9.7949h17.6211l-1.8398,18.4766h9.7949Zm-7.4414,34.7735h-5.5176v-5.7735H140.7129v5.7735h-5.6035v-29h32.7637Zm-5.5176-11.0352V480.6319H140.627V493.335ZM161.5,451.1182H148.7969l-2.4805,13.3027h13.8575Z" fill="#a39b4b"/><path d="M271.7578,447.2686H193.9981v-5.3457h77.7597Zm-11.4629,10.9512H204.6914V453.044h55.6035Zm0,11.1191H204.6914v-5.1738h55.6035Zm-2.0097,35.0313h-5.5176v-6.0313H212.6465v6.0313h-5.5176v-29.086h51.1563Zm-.086-68.5215-50.6425.1289v-5.1758h50.6425Zm-5.4316,57.2285V480.5459H212.6465v12.5313Z" fill="#a39b4b"/><path d="M368.2012,488.8877H333.7696v5.9453q0,9.53625-10.1387,9.5372h-5.6875l-2.0957-5.2598h7.9551q4.19235,0,4.1933-3.8496v-6.3731H290.4414v-5.3476h37.5547v-3.6778q8.93565-3.3369,12.7871-6.2441H308.0196v-4.9199h42.2617v4.6621a130.83681,130.83681,0,0,1-16.5117,9.2812v.8985h34.4316Zm-3.5918-15.8691h-5.1348v-8.8535H299.7227v9.3672h-5.6035V459.1612h7.3574V433.0694q6.07035-.6006,13.3027-5.7754l2.8223,3.9355a25.14315,25.14315,0,0,1-10.6074,5.4317v3.5937h10.9492v4.4492H306.9942v4.6621h10.9492v4.3614H306.9942v5.4336H352.461v-5.4336H342.0235v-4.2774H352.461v-5.0039H342.1094V440.083H352.461v-4.6621H340.3555v-5.1757h17.5371v28.83h6.7168Zm-24.2539-33.1914-2.9922,3.6777a45.87151,45.87151,0,0,0-6.6309-5.0898,51.20059,51.20059,0,0,1-7.7851,5.3476l-3.5078-3.08a33.88891,33.88891,0,0,0,7.2734-4.0215,74.976,74.976,0,0,0-8.4277-2.7364l2.1816-3.9355a79.15551,79.15551,0,0,1,9.5391,3.0801,36.54706,36.54706,0,0,0,5.0898-5.8594l3.5918,2.8652a27.07762,27.07762,0,0,1-4.4472,5.1758A31.92948,31.92948,0,0,1,340.3555,439.8272Zm.5137,15.5683-3.5918,2.8243a39.64015,39.64015,0,0,0-7.1856-4.4063,46.311,46.311,0,0,1-8.2129,4.4063l-3.25-2.5664a42.3725,42.3725,0,0,0,7.9121-4.5352,43.50385,43.50385,0,0,0-7.2714-3.3359l3.207-2.6934a53.22513,53.22513,0,0,1,7.5293,3.293,36.35322,36.35322,0,0,0,4.832-4.1074l3.9356,2.0117a21.515,21.515,0,0,1-4.875,4.6621A31.89176,31.89176,0,0,1,340.8692,455.3955Z" fill="#a39b4b"/><path d="M464.5586,488.8877H430.127v5.9453q0,9.53625-10.1367,9.5372h-5.6895l-2.0957-5.2598h7.9551q4.19235,0,4.1914-3.8496v-6.3731H386.7989v-5.3476h37.5527v-3.6778q8.94135-3.3369,12.791-6.2441H404.377v-4.9199h42.2597v4.6621a130.65683,130.65683,0,0,1-16.5097,9.2812v.8985h34.4316Zm-3.5918-15.8691h-5.1347v-8.8535h-59.752v9.3672h-5.6035V459.1612h7.3574V433.0694q6.0732-.6006,13.3027-5.7754l2.8223,3.9355a25.13045,25.13045,0,0,1-10.6074,5.4317v3.5937h10.9492v4.4492H403.3516v4.6621h10.9492v4.3614H403.3516v5.4336h45.4668v-5.4336H438.3828v-4.2774h10.4356v-5.0039H438.4668V440.083h10.3516v-4.6621H436.7129v-5.1757H454.25v28.83h6.7168Zm-22.7304-18.582-3.8965,3.5625a41.31723,41.31723,0,0,0-6.7852-8.0957q-5.7393,6.3954-9.4336,8.1367l-3.8554-3.2383q4.3476-2.06835,9.4335-7.7324a49.67694,49.67694,0,0,0-8.2441-4.4551l3.3633-3.4785a66.19914,66.19914,0,0,1,7.7109,4.2109,24.45334,24.45334,0,0,0,2.625-6.0332H416.2754V432.253h6.9043v-5.209h4.4317v5.209h8.1953v5.0605h-1.6231a32.188,32.188,0,0,1-3.6758,8.7051A39.73473,39.73473,0,0,1,438.2364,454.4366Z" fill="#a39b4b"/><path d="M562.3262,447.0987l-3.0781,4.4472q-14.5869-3.59175-22.8399-8.2968v3.8496h-28.916v-4.2344q-12.4893,6.457-22.4121,8.4258l-2.8223-4.4903q24.03525-5.8593,40.0352-19.5898l5.2598,1.752a7.314,7.314,0,0,1-1.4981,1.498Q540.2549,442.26365,562.3262,447.0987Zm-9.1113,24.5078H491.1114V451.5459h62.1035Zm-5.0879,32.8496h-5.2617v-3.4219H501.5489v3.4219h-5.2618V476.0987H548.127Zm-28.5293-37.4688V456.294H496.3711v10.6933Zm23.2676,19.334v-5.5176H501.5489v5.5176Zm0,10.0938v-5.6035H501.5489v5.6035ZM513.9082,462.753l-4.4043,3.08a30.79633,30.79633,0,0,0-7.7851-5.9453l4.4472-2.5664A21.99227,21.99227,0,0,1,513.9082,462.753Zm20.7461-20.4024a53.91853,53.91853,0,0,1-12.0195-8.7676,65.64469,65.64469,0,0,1-13.9004,8.7676Zm13.3028,24.6367V456.294H524.8594v10.6933Zm-5.1778-8.1699a20.35308,20.35308,0,0,1-7.6133,6.8438l-4.705-2.3516q5.60445-3.1641,7.6992-6.332Z" fill="#a39b4b"/><path d="M130.166,377.3487l-1.6347,1.8808a38.20809,38.20809,0,0,1-13.9844-9.1015l.0352,6.8691h8.205v15.1113h-2.2324V390.087H106.3399v2.0214h-2.3008V376.9971h8.2402V370.128q-3.61815,5.5341-13.0722,8.6621l-1.6524-1.8633q8.38185-2.2119,11.9844-6.7988H99.541v-2.1973h12.7383v-3.3906q-4.1982.4218-10.5429.6152l-1.5098-2.125q14.9853-.05565,23.9297-2.5137l1.6875,1.6875a77.75916,77.75916,0,0,1-11.2617,2.0547v3.6719h12.914v2.1973l-10.0683-.0352A37.44847,37.44847,0,0,0,130.166,377.3487Zm-9.6113,4.9375v-3.0918h-14.25v3.0918Zm0,5.6406v-3.4785h-14.25v3.4785Z" fill="#a39b4b"/><path d="M151.30213,378.9659a34.29733,34.29733,0,0,1-5.7969,11.2636l2.0547,1.2989a33.5079,33.5079,0,0,0,5.8691-11.2618Zm-3.7071-9.752-1.4765,1.8457a12.99743,12.99743,0,0,1,5.5351,4.2871l1.5449-2.0918A13.22151,13.22151,0,0,0,147.595,369.2139Zm1.7207-7.8711-1.6504,1.6875a10.59326,10.59326,0,0,1,5.3243,4.0762l1.6504-1.7754A10.76442,10.76442,0,0,0,149.31573,361.3428Z" fill="#a39b4b"/><path d="M172.28063,384.3077v-6.625a20.40913,20.40913,0,0,0,4.5,3.2343l1.4394-1.9511a15.09661,15.09661,0,0,1-7.1679-6.2188h6.0078V370.585h-5.7442v-4.1992h4.3379v-2.1621h-4.3379v-3.7051h-2.2324v3.7402h-6.5176v-3.7402h-2.2324v3.7402H156.011v2.1602h4.3575v4.1992H154.64v2.1641h5.7988q-1.9482,3.65325-7.0449,6.0781l1.6503,1.9492a21.972,21.972,0,0,0,2.7754-1.8965v9.418q0,3.0234,3.0235,3.0215h11.5078a2.80926,2.80926,0,0,0,2.2226-.9297,7.8622,7.8622,0,0,0,1.2735-3.6719l-2.2656-1.0195a6.912,6.912,0,0,1-.668,2.8105,1.37574,1.37574,0,0,1-1.1758.6153h-10.7187a.85377.85377,0,0,1-.9668-.9668v-3.8828Zm-9.7149-17.9219h6.5528v4.1992h-6.5528Zm.209,6.3613h5.9746a14.59553,14.59553,0,0,0,2.5996,3.9883h-11.1562A12.37238,12.37238,0,0,0,162.77473,372.7471Zm-2.7226,6.1484h9.998v3.2852h-9.998Z" fill="#a39b4b"/><path d="M226.03,390.3506l-1.6348,1.8281q-10.98045-5.99115-13.9512-20.1875-3.6708,14.4258-14.9687,20.1875l-1.7754-2.0917q11.19135-5.44635,14.1797-18.0606h-11.9473v-2.2676h12.211a89.8122,89.8122,0,0,0,.2812-9.2422l2.4414.3516q.0879,5.376-.2109,8.8555h13.3183v2.2675h-11.0859Q214.99382,384.02645,226.03,390.3506Z" fill="#a39b4b"/><path d="M273.8389,385.7823H259.6943v2.4433q0,3.9171-4.164,3.918h-2.3379l-.8594-2.1602h3.2676q1.71975,0,1.7207-1.582v-2.6191H241.8955V383.587h15.4258v-1.5118a21.85743,21.85743,0,0,0,5.2539-2.5644h-13.459v-2.0215h17.3594v1.916a53.71618,53.71618,0,0,1-6.7813,3.8125v.3692h14.1446Zm-1.4766-6.5176h-2.1074V375.628H245.708v3.8476h-2.3008v-5.9043h3.0215V362.8545a11.64148,11.64148,0,0,0,5.4648-2.373l1.1582,1.6172a10.32168,10.32168,0,0,1-4.3574,2.2304v1.4766h4.4981v1.8281h-4.4981v1.9141h4.4981v1.793h-4.4981v2.2304h18.6778v-2.2304h-4.2872V369.583h4.2872v-2.0546h-4.252v-1.793h4.252v-1.9141h-4.9727v-2.1269h7.2051v11.8418h2.7578Zm-9.9629-13.6348-1.2305,1.5098a18.689,18.689,0,0,0-2.7226-2.0899,20.93154,20.93154,0,0,1-3.1973,2.1973l-1.4414-1.2656a13.86658,13.86658,0,0,0,2.9863-1.6524,31.33909,31.33909,0,0,0-3.4609-1.125l.8965-1.6152a32.236,32.236,0,0,1,3.9179,1.2656,14.99029,14.99029,0,0,0,2.0918-2.4082l1.4766,1.1778a11.19649,11.19649,0,0,1-1.8281,2.1269A13.02592,13.02592,0,0,1,262.3994,365.6299Zm.2109,6.3965-1.4746,1.1582a16.36594,16.36594,0,0,0-2.9531-1.8086,18.85627,18.85627,0,0,1-3.373,1.8086l-1.336-1.0547a17.29561,17.29561,0,0,0,3.252-1.8613,17.80685,17.80685,0,0,0-2.9883-1.3711l1.3183-1.1074a21.97575,21.97575,0,0,1,3.0918,1.3535,14.896,14.896,0,0,0,1.9864-1.6856l1.6152.8262a8.81092,8.81092,0,0,1-2.0019,1.9141A13.06227,13.06227,0,0,1,262.6103,372.0264Z" fill="#a39b4b"/><path d="M322.29718,389.876l-1.5468,2.0567a41.96772,41.96772,0,0,1-14.5118-7.0977q-4.7988,3.917-15.0761,7.2383l-1.7207-2.0899q9.94335-2.7597,15.039-6.6953a23.92938,23.92938,0,0,1-6.8691-11.7539,19.40253,19.40253,0,0,1-2.6016,4.6387l-1.8613-1.7051a23.178,23.178,0,0,0,3.5664-5.7812h-6.0449v-2.1602H304.764v-6.0098h2.2657v5.9746h14.3359v2.1602h-6.0098q-1.579,9.1728-7.2734,14.6016Q313.265,387.1875,322.29718,389.876Zm-9.2949-21.2246h-13.5976a22.13761,22.13761,0,0,0,6.8691,13.0898A22.46117,22.46117,0,0,0,313.00228,368.6514Z" fill="#a39b4b"/><path d="M369.84342,385.7823h-14.1465v2.4433q0,3.9171-4.164,3.918h-2.336l-.8613-2.1602h3.2676q1.7226,0,1.7226-1.582v-2.6191h-15.4257V383.587h15.4257v-1.5118a21.87167,21.87167,0,0,0,5.252-2.5644h-13.457v-2.0215h17.3593v1.916a53.88773,53.88773,0,0,1-6.7832,3.8125v.3692h14.1465Zm-1.4765-6.5176h-2.1094V375.628h-24.5469v3.8476h-2.3008v-5.9043h3.0215V362.8545a11.63965,11.63965,0,0,0,5.4668-2.373l1.1582,1.6172a10.33022,10.33022,0,0,1-4.3594,2.2304v1.4766h4.5v1.8281h-4.5v1.9141h4.5v1.793h-4.5v2.2304h18.6797v-2.2304h-4.289V369.583h4.289v-2.0546h-4.2519v-1.793h4.2519v-1.9141H358.404v-2.1269h7.2031v11.8418h2.7598Zm-9.9629-13.6348-1.2305,1.5098a18.90744,18.90744,0,0,0-2.7227-2.0899,21.04554,21.04554,0,0,1-3.1992,2.1973l-1.4394-1.2656a13.963,13.963,0,0,0,2.9863-1.6524,31.61412,31.61412,0,0,0-3.4609-1.125l.8965-1.6152a32.46252,32.46252,0,0,1,3.9179,1.2656,14.97419,14.97419,0,0,0,2.0899-2.4082l1.4765,1.1778a11.18217,11.18217,0,0,1-1.8261,2.1269A13.08729,13.08729,0,0,1,358.404,365.6299Zm.2109,6.3965-1.4766,1.1582a16.34775,16.34775,0,0,0-2.9511-1.8086,18.88873,18.88873,0,0,1-3.375,1.8086l-1.336-1.0547a17.22908,17.22908,0,0,0,3.252-1.8613,17.84894,17.84894,0,0,0-2.9863-1.3711l1.3164-1.1074a22.11129,22.11129,0,0,1,3.0937,1.3535,14.803,14.803,0,0,0,1.9844-1.6856l1.6172.8262a8.89,8.89,0,0,1-2.002,1.9141A13.15249,13.15249,0,0,1,358.61492,372.0264Z" fill="#a39b4b"/><path d="M392.9913,372.4639q3.55065,3.9903,3.5507,7.7852a4.28658,4.28658,0,0,1-.959,2.9336,3.37632,3.37632,0,0,1-2.6796,1.0898,13.85644,13.85644,0,0,1-2.2832-.2285l-.6504-2.3379a12.60047,12.60047,0,0,0,2.705.4746,1.785,1.785,0,0,0,1.2481-.5273,1.82908,1.82908,0,0,0,.5625-1.4043,8.44141,8.44141,0,0,0-.9649-3.375,13.46759,13.46759,0,0,0-2.9003-3.9161l3.4257-8.8046h-5.2168v27.9902h-2.3027V361.9229h9.8555v2.2305Zm24.2304,13.2324a12.12961,12.12961,0,0,1-1.2304,4.127,2.70847,2.70847,0,0,1-2.5118,1.2832h-2.7402q-2.74215,0-2.7422-2.8809v-9.2949h-3.707q-.10545,5.65725-2.2051,8.4785-2.1006,2.81835-7.793,4.7344l-1.4765-2.0215q5.2881-1.5615,7.2578-4.041,1.96875-2.4756,1.9844-7.1152h-4.8145v-2.3028h18.8203v2.2676h-5.8711v8.75a1.33486,1.33486,0,0,0,.2813.8164.81445.81445,0,0,0,.6679.3789h2.2325q.6855,0,1.0449-1.125a17.92167,17.92167,0,0,0,.6074-2.916Zm-2.0215-15.9375-2.2304.0352v-3.0918H399.7217v3.0918h-2.2676v-5.3242h7.7129v-3.9883h2.3028v3.9531h7.7304Zm-2.9511,3.3907h-11.877v-2.3008h11.877Z" fill="#a39b4b"/><path d="M465.848,385.7823h-14.1445v2.4433q0,3.9171-4.1641,3.918h-2.3359l-.8613-2.1602h3.2675q1.72275,0,1.7227-1.582v-2.6191h-15.4277V383.587h15.4277v-1.5118a21.87363,21.87363,0,0,0,5.252-2.5644h-13.459v-2.0215h17.3593v1.916a53.70718,53.70718,0,0,1-6.7812,3.8125v.3692H465.848Zm-1.4765-6.5176H462.264V375.628h-24.5449v3.8476h-2.3027v-5.9043h3.0234V362.8545a11.644,11.644,0,0,0,5.4629-2.373l1.1602,1.6172a10.34634,10.34634,0,0,1-4.3575,2.2304v1.4766h4.4981v1.8281h-4.4981v1.9141h4.4981v1.793h-4.4981v2.2304h18.6758v-2.2304h-4.2871V369.583h4.2871v-2.0546h-4.25v-1.793h4.25v-1.9141h-4.9707v-2.1269h7.2031v11.8418h2.7579Zm-9.961-13.6348-1.2324,1.5098a18.7956,18.7956,0,0,0-2.7227-2.0899,21.02463,21.02463,0,0,1-3.1972,2.1973l-1.4414-1.2656a13.93116,13.93116,0,0,0,2.9883-1.6524,31.60764,31.60764,0,0,0-3.461-1.125l.8945-1.6152a32.23742,32.23742,0,0,1,3.918,1.2656,14.99528,14.99528,0,0,0,2.0918-2.4082l1.4766,1.1778a11.2001,11.2001,0,0,1-1.8281,2.1269A13.03944,13.03944,0,0,1,454.41048,365.6299Zm.209,6.3965-1.4746,1.1582a16.418,16.418,0,0,0-2.9512-1.8086,18.95893,18.95893,0,0,1-3.375,1.8086l-1.334-1.0547a17.325,17.325,0,0,0,3.25-1.8613,17.80127,17.80127,0,0,0-2.9882-1.3711l1.3183-1.1074a21.97575,21.97575,0,0,1,3.0918,1.3535,14.89762,14.89762,0,0,0,1.9863-1.6856l1.6153.8262a8.80927,8.80927,0,0,1-2.002,1.9141A13.01379,13.01379,0,0,1,454.61948,372.0264Z" fill="#a39b4b"/><path d="M513.96457,390.3858h-31.9785v-2.2656h14.9004v-8.2403h-10.7364v-2.2676h10.7364v-7.1679h-7.961a18.66211,18.66211,0,0,1-4.8144,6.9043l-2.3184-1.2129a19.41152,19.41152,0,0,0,6.4141-13.0352l2.3711.6836a26.42167,26.42167,0,0,1-.8262,4.4297h7.0996v-7.6973h2.3711v7.6602h12.4043v2.2676h-12.4043v7.1328h10.5781v2.2676h-10.5781v8.2402h14.7422Z" fill="#a39b4b"/><path d="M562.3262,368.6162l-1.2637,1.8282a37.4875,37.4875,0,0,1-9.3828-3.4082v1.58H539.8008V366.878a35.64919,35.64919,0,0,1-9.2051,3.4609l-1.1601-1.8457a38.93833,38.93833,0,0,0,16.4453-8.0469l2.1621.7207a3.05,3.05,0,0,1-.6152.6153A34.39391,34.39391,0,0,0,562.3262,368.6162Zm-3.7402,10.0684H533.0742v-8.2402H558.586Zm-2.0918,13.4941h-2.1621v-1.4062H537.3594v1.4062h-2.1602V380.5303h21.295Zm-11.7207-15.3925v-4.3926h-9.5391v4.3926Zm9.5586,7.9433V382.462H537.3594v2.2675Zm0,4.1465v-2.3027H537.3594v2.3027Zm-11.8946-13.8281-1.8105,1.2656a12.599,12.599,0,0,0-3.1973-2.4433l1.8281-1.0528A9.00277,9.00277,0,0,1,542.4375,375.0479Zm8.5215-8.3809a22.1691,22.1691,0,0,1-4.9375-3.6035,27.00164,27.00164,0,0,1-5.709,3.6035Zm5.4649,10.1192v-4.3926h-9.4883v4.3926Zm-2.125-3.3555a8.3876,8.3876,0,0,1-3.129,2.8125l-1.9316-.9668a9.12268,9.12268,0,0,0,3.1621-2.6016Z" fill="#a39b4b"/></g></svg>