<svg xmlns="http://www.w3.org/2000/svg" xmlns:xlink="http://www.w3.org/1999/xlink" viewBox="0 0 633.1933 1102.7705"><defs><clipPath id="a"><rect width="633.1933" height="1102.7705" fill="none"/></clipPath></defs><g clip-path="url(#a)"><path d="M79.2207,135.7861a105.36884,105.36884,0,0,0-8.084,33.7109,10.38144,10.38144,0,0,1,13.6758.4795A92.6289,92.6289,0,0,1,177.1611,84.542a6.83745,6.83745,0,0,0,0-13.6749,106.40186,106.40186,0,0,0-97.9404,64.919Z" fill="#fff"/><path d="M169.5908,269.4804A92.62614,92.62614,0,0,1,84.542,177.5849a6.8374,6.8374,0,1,0-13.6748,0,106.21217,106.21217,0,0,0,98.1806,105.5762,10.37592,10.37592,0,0,1,.543-13.6807Z" fill="#fff"/><path d="M251.2588,243.7021a6.83971,6.83971,0,0,0-9.67,0,92.31354,92.31354,0,0,1-64.4277,26.0889,6.8374,6.8374,0,1,0,0,13.6748,105.95036,105.95036,0,0,0,74.0977-30.0928A6.83609,6.83609,0,0,0,251.2588,243.7021Z" fill="#fff"/><path d="M177.1611,283.4658a6.8374,6.8374,0,1,1,0-13.6748,92.31354,92.31354,0,0,0,64.4277-26.0889,6.838,6.838,0,0,1,9.67,9.6709,105.95036,105.95036,0,0,1-74.0977,30.0928Zm-41.3828-8.3594a106.20233,106.20233,0,0,1-64.9111-97.5215,6.8374,6.8374,0,1,1,13.6748,0,92.62614,92.62614,0,0,0,85.0488,91.8955,10.37592,10.37592,0,0,0-.543,13.6807A105.394,105.394,0,0,1,135.7783,275.1064ZM177.1611,70.8671a6.83745,6.83745,0,0,1,0,13.6749,92.6289,92.6289,0,0,0-92.3486,85.4345,10.38144,10.38144,0,0,0-13.6758-.4795A106.21567,106.21567,0,0,1,177.1611,70.8671Z" fill="#fff"/><path d="M233.4521,120.875a79.61111,79.61111,0,1,0,23.3155,56.292A79.08141,79.08141,0,0,0,233.4521,120.875Z" fill="#fff"/><path d="M121.0566,202.9111V151.4228h11.167v3.8067H125.751v43.875h6.4726v3.8066Z" fill="#333e48"/><path d="M233.2646,151.4228v51.4883h-11.164v-3.8066h6.4687v-43.875h-6.4687v-3.8067Z" fill="#333e48"/><path d="M146.9912,187.6259q0,1.54395.0488,3.6358.047,2.09175.1289,4.249.0792,2.15475.1934,4.1182.1113,1.96425.2734,3.2822h-6.5976V166.5459q0-4.69785-.1602-8.5098-.1611-3.816-.4844-6.6133h6.5977Z" fill="#00c2f3"/><path d="M175.7939,170.0869v4.2168h-6.0498v24.3916h6.0498v4.2158H157.7734v-4.2158h5.9531V174.3037h-5.9531v-4.2168Z" fill="#00c2f3"/><path d="M189.3115,170.0869a11.627,11.627,0,0,1,.3848,1.3369c.1308.5459.2461,1.1191.3554,1.7197q.15825.9009.2891,1.7705l.2559,1.4473a21.21583,21.21583,0,0,1,6.2109-5.293,13.91625,13.91625,0,0,1,6.5019-1.626,11.40993,11.40993,0,0,1,4.5528.8536,8.02819,8.02819,0,0,1,3.332,2.7031,13.22831,13.22831,0,0,1,2.043,4.7959,31.46288,31.46288,0,0,1,.6914,7.0967v14.4785a36.01383,36.01383,0,0,1-.9492,9.0273,15.50126,15.50126,0,0,1-2.6543,5.7305,9.32448,9.32448,0,0,1-4.1035,3.0234,15.26747,15.26747,0,0,1-5.3262.8858,11.51953,11.51953,0,0,1-3.1055-.4668,11.74425,11.74425,0,0,1-3.0088-1.3037l2.0918-4.8272a6.441,6.441,0,0,0,1.9795.918,8.794,8.794,0,0,0,2.5244.3691,7.29718,7.29718,0,0,0,2.7705-.498,4.6197,4.6197,0,0,0,2.0743-1.7539,9.601,9.601,0,0,0,1.3037-3.4434,28.44239,28.44239,0,0,0,.4502-5.5674V187.3037a39.191,39.191,0,0,0-.4024-6.2588,10.8087,10.8087,0,0,0-1.207-3.7334,4.00905,4.00905,0,0,0-2.0127-1.7871,8.05235,8.05235,0,0,0-2.8145-.4492,7.55516,7.55516,0,0,0-3.3935.8212,12.51707,12.51707,0,0,0-3.044,2.1231,15.80568,15.80568,0,0,0-2.4443,2.9443,13.55068,13.55068,0,0,0-1.5781,3.2823v18.665H185.126v-19.791a50.25329,50.25329,0,0,0-.5469-8.0615,40.55786,40.55786,0,0,0-1.0625-4.9717Z" fill="#00c2f3"/><path d="M129.7666,426.039H97.5586v-5.3467h32.208Zm-4.1914,56.9297h-5.5186v-5.8603h-12.874v5.8603h-5.6035V454.0546h23.9961Zm-.2578-45.8945-23.6524.0849v-5.3457h23.6524Zm.0859,11.206H101.665v-5.3466h23.7383Zm-1.0693-33.1054-21.7286.0859V409.913H124.334Zm-4.2774,56.6718V459.3154H107.0967v12.5312Zm55.2617-23.4814-46.2373.0859v-5.2607h11.4629l2.4815-13.2168H132.333v-5.2607h11.5488l1.8379-9.7959H129.3388v-5.3458h42.4727v5.2618H151.4941l-1.7529,9.7949h17.6221l-1.8399,18.4766h9.7949Zm-7.4423,34.7744h-5.5176v-5.7744H140.7158v5.7744h-5.6035v-29H167.876Zm-5.5176-11.0351V459.4013H140.6299v12.7032Zm-.8555-42.2159H148.7998l-2.4805,13.3018h13.8574Z" fill="#fff"/><path d="M271.7607,426.039H194.001v-5.3467h77.7597Zm-11.4629,10.9492H204.6943v-5.1748h55.6035Zm0,11.1202H204.6943v-5.1748h55.6035Zm-2.0097,35.0312h-5.5176v-6.0312H212.6494v6.0312h-5.5176v-29.085h51.1563Zm-.086-68.5205-50.6426.1279v-5.1758h50.6426Zm-5.4316,57.2275V459.3154H212.6494v12.5312Z" fill="#fff"/><path d="M368.2051,467.6562H333.7724v5.9453q0,9.5376-10.1377,9.5381h-5.6884l-2.0957-5.2607h7.955q4.1925,0,4.1934-3.8496v-6.3731H290.4443v-5.3467H327.999v-3.6787q8.937-3.3369,12.7881-6.2441H308.0224v-4.919h42.2618v4.6621a131.00418,131.00418,0,0,1-16.5118,9.2813v.8984h34.4327Zm-3.5928-15.8691h-5.1348v-8.8535h-59.751v9.3671H294.122V437.9296h7.3575V411.8379q6.0717-.59775,13.3027-5.7745l2.8232,3.9356a25.16353,25.16353,0,0,1-10.6084,5.4316v3.5938h10.9493v4.4482H306.997v4.6621h10.9493v4.3623H306.997v5.4326h45.4668V432.497H342.0273v-4.2773h10.4365v-5.0039H342.1123v-4.3623h10.3515v-4.6631H340.3594v-5.1758h17.5361v28.8291h6.7168Zm-24.2529-33.1905-2.9932,3.6778a45.68611,45.68611,0,0,0-6.6309-5.0899,51.06312,51.06312,0,0,1-7.7851,5.3467l-3.5069-3.0801a33.89508,33.89508,0,0,0,7.2725-4.0205,74.792,74.792,0,0,0-8.4277-2.7363l2.1826-3.9356a78.9118,78.9118,0,0,1,9.5381,3.0792,36.45416,36.45416,0,0,0,5.0898-5.8594l3.5928,2.8662a27.11324,27.11324,0,0,1-4.4483,5.1748A31.96934,31.96934,0,0,1,340.3594,418.5966Zm.5126,15.5684-3.5917,2.8232a39.62668,39.62668,0,0,0-7.1856-4.4052,46.21421,46.21421,0,0,1-8.2129,4.4052l-3.25-2.5664a42.42993,42.42993,0,0,0,7.9131-4.5332,43.40007,43.40007,0,0,0-7.2725-3.3369l3.208-2.6943a53.48122,53.48122,0,0,1,7.5284,3.293,36.40794,36.40794,0,0,0,4.832-4.1065l3.9355,2.0107a21.44977,21.44977,0,0,1-4.875,4.6631A31.7898,31.7898,0,0,1,340.872,434.165Z" fill="#fff"/><path d="M464.5615,467.6562H430.1299v5.9453q0,9.5376-10.1368,9.5381h-5.6894l-2.0957-5.2607h7.956q4.191,0,4.1914-3.8496v-6.3731H386.8017v-5.3467h37.5537v-3.6787q8.94-3.3369,12.7901-6.2441H404.3808v-4.919h42.2598v4.6621a130.912,130.912,0,0,1-16.5107,9.2813v.8984h34.4316Zm-3.5918-15.8691h-5.1348v-8.8535H396.083v9.3671h-5.6026V437.9296h7.3565V411.8379q6.0732-.59775,13.3027-5.7745l2.8223,3.9356a25.14291,25.14291,0,0,1-10.6074,5.4316v3.5938h10.9492v4.4482H403.3545v4.6621h10.9492v4.3623H403.3545v5.4326h45.4668V432.497H438.3857v-4.2773h10.4356v-5.0039H438.4697v-4.3623h10.3516v-4.6631H436.7158v-5.1758h17.5371v28.8291h6.7168ZM438.2392,433.206l-3.8964,3.5625a41.26834,41.26834,0,0,0-6.7852-8.0957q-5.7393,6.394-9.4326,8.1367l-3.8565-3.2383q4.34775-2.06835,9.4336-7.7324a49.60639,49.60639,0,0,0-8.2441-4.4551l3.3642-3.4785a66.388,66.388,0,0,1,7.711,4.21,24.47383,24.47383,0,0,0,2.624-6.0332H416.2783v-5.0596h6.9043v-5.2099h4.4316v5.2099h8.1953v5.0596h-1.623a32.20068,32.20068,0,0,1-3.6748,8.7051A39.7588,39.7588,0,0,1,438.2392,433.206Z" fill="#fff"/><path d="M562.3301,425.8681l-3.0791,4.4473q-14.587-3.59175-22.8399-8.2969v3.8496h-28.915v-4.2353q-12.4893,6.4599-22.4131,8.4267l-2.8223-4.4912q24.0366-5.8593,40.0352-19.5898l5.2597,1.7529a7.27421,7.27421,0,0,1-1.497,1.4971Q540.2588,421.03365,562.3301,425.8681Zm-9.1114,24.5078H491.1142V430.3154h62.1045Zm-5.0888,32.8487h-5.2608v-3.4219H501.5517v3.4219H496.29V454.8671h51.8399Zm-28.5293-37.4678V435.0634H496.375v10.6934Zm23.2685,19.333v-5.5176H501.5517v5.5176Zm0,10.0947V469.581H501.5517v5.6035Zm-28.957-33.6621-4.4053,3.0791a30.80941,30.80941,0,0,0-7.7851-5.9453l4.4482-2.5654A21.99817,21.99817,0,0,1,513.9121,441.5224Zm20.7451-20.4023a53.92509,53.92509,0,0,1-12.0195-8.7686,65.65218,65.65218,0,0,1-13.9004,8.7686Zm13.3027,24.6367V435.0634H524.8623v10.6934Zm-5.1767-8.1699a20.3689,20.3689,0,0,1-7.6133,6.8437l-4.7051-2.3515q5.6046-3.1656,7.6983-6.3321Z" fill="#fff"/><path d="M130.1689,356.1181l-1.6338,1.8809a38.20532,38.20532,0,0,1-13.9853-9.1016l.0351,6.8692H122.79v15.1103h-2.2314v-2.0205H106.3437v2.0205H104.042V355.7666h8.2402v-6.8692q-3.61815,5.53425-13.0723,8.6621l-1.6513-1.8633q8.38035-2.21325,11.9834-6.7988H99.5439v-2.1972h12.7383v-3.3907q-4.1982.42195-10.542.6153l-1.5107-2.126q14.9868-.05415,23.9306-2.5127l1.6866,1.6875a77.89865,77.89865,0,0,1-11.2618,2.0547v3.6719H127.499v2.1972l-10.0684-.0351A37.44867,37.44867,0,0,0,130.1689,356.1181Zm-9.6103,4.9375v-3.0918h-14.25v3.0918Zm0,5.6406v-3.4785h-14.25v3.4785Z" fill="#fff"/><path d="M151.30593,357.7343a34.30665,34.30665,0,0,1-5.7978,11.2637l2.0547,1.2998a33.5159,33.5159,0,0,0,5.8691-11.2617Zm-3.708-9.7509-1.4766,1.8457a12.99823,12.99823,0,0,1,5.5362,4.2861l1.5449-2.0908A13.2252,13.2252,0,0,0,147.59793,347.9834Zm1.7207-7.8711-1.6504,1.6875a10.59572,10.59572,0,0,1,5.3242,4.0752l1.6504-1.7745A10.75854,10.75854,0,0,0,149.31863,340.1123Z" fill="#fff"/><path d="M172.28353,363.0771v-6.625a20.4423,20.4423,0,0,0,4.5,3.2344l1.4404-1.9522a15.089,15.089,0,0,1-7.169-6.2187h6.0079v-2.1611h-5.7442v-4.1993h4.3389v-2.1621h-4.3389v-3.706h-2.2324v3.7412h-6.5176v-3.7412h-2.2324v3.7412h-4.3223v2.1611h4.3574v4.1992h-5.7285v2.1621h5.7989q-1.94835,3.6549-7.045,6.0782l1.6504,1.9502a22.01272,22.01272,0,0,0,2.7764-1.8965v9.4179a2.67107,2.67107,0,0,0,3.0225,3.0215h11.5078a2.804,2.804,0,0,0,2.2226-.9306,7.86749,7.86749,0,0,0,1.2744-3.6709l-2.2666-1.0205a6.91043,6.91043,0,0,1-.667,2.8105,1.37495,1.37495,0,0,1-1.1767.6152h-10.7188a.853.853,0,0,1-.9658-.9668v-3.8818Zm-9.7149-17.9219h6.5527v4.1993h-6.5527Zm.209,6.3604h5.9746a14.56434,14.56434,0,0,0,2.6006,3.9892h-11.1572A12.36571,12.36571,0,0,0,162.77763,351.5156Zm-2.7217,6.1494h9.9971v3.2852h-9.9971Z" fill="#fff"/><path d="M226.03337,369.1211l-1.6338,1.8261q-10.982-5.98965-13.9512-20.1875-3.6723,14.4258-14.9697,20.1875l-1.7754-2.0908q11.19285-5.44635,14.1797-18.0615h-11.9473v-2.2666h12.2109a89.81878,89.81878,0,0,0,.2813-9.2422l2.4424.3516q.0864,5.37585-.211,8.8554h13.3184v2.2666h-11.0869Q214.99872,362.7963,226.03337,369.1211Z" fill="#fff"/><path d="M273.84225,364.5527h-14.1445v2.4424q0,3.917-4.1641,3.9179h-2.3369l-.8603-2.1611h3.2676q1.7211,0,1.7216-1.581v-2.6182H241.899v-2.1963h15.4267v-1.5117a21.96826,21.96826,0,0,0,5.2539-2.5645h-13.4589v-2.0215h17.3593v1.9151a53.60343,53.60343,0,0,1-6.7822,3.8135v.3691h14.1445Zm-1.4756-6.5186h-2.1084v-3.6377h-24.5468v3.8477h-2.3008v-5.9033h3.0215V341.623a11.62565,11.62565,0,0,0,5.4648-2.3721l1.1592,1.6172a10.34471,10.34471,0,0,1-4.3574,2.2305v1.4756h4.498v1.8281h-4.498v1.915h4.498v1.792h-4.498v2.2315h18.6777v-2.2315h-4.2871v-1.7568h4.2871v-2.0557h-4.2519v-1.792h4.2519v-1.915h-4.9726v-2.126h7.2041v11.8418h2.7587Zm-9.9628-13.6347-1.2305,1.5097a18.73208,18.73208,0,0,0-2.7227-2.0898,20.91,20.91,0,0,1-3.1982,2.1963l-1.4404-1.2647a13.91442,13.91442,0,0,0,2.9863-1.6523,31.0479,31.0479,0,0,0-3.4609-1.125l.8964-1.6152a32.51921,32.51921,0,0,1,3.918,1.2646,14.98792,14.98792,0,0,0,2.0908-2.4072l1.4766,1.1777a11.18414,11.18414,0,0,1-1.8281,2.126A13.11964,13.11964,0,0,1,262.40385,344.3994Zm.2109,6.3955-1.4756,1.1601a16.29723,16.29723,0,0,0-2.9521-1.8105,18.97816,18.97816,0,0,1-3.3741,1.8105l-1.3349-1.0556a17.36351,17.36351,0,0,0,3.251-1.8614,17.90827,17.90827,0,0,0-2.9874-1.371l1.3174-1.1075a21.93945,21.93945,0,0,1,3.0928,1.3535,15.01527,15.01527,0,0,0,1.9854-1.6865l1.6162.8262a8.81664,8.81664,0,0,1-2.003,1.915A13.02385,13.02385,0,0,1,262.61475,350.7949Z" fill="#fff"/><path d="M322.30108,368.6455l-1.5469,2.0566a41.96341,41.96341,0,0,1-14.5127-7.0986q-4.7988,3.91845-15.0761,7.2392l-1.7207-2.0908q9.94335-2.75835,15.04-6.6943a23.93451,23.93451,0,0,1-6.8701-11.7549,19.36612,19.36612,0,0,1-2.6016,4.6387l-1.8603-1.7041a23.22636,23.22636,0,0,0,3.5654-5.7813h-6.0449v-2.1601h14.0937v-6.0098h2.2656v5.9736h14.337v2.1621h-6.0098q-1.58055,9.17145-7.2744,14.6006Q313.26928,365.95705,322.30108,368.6455Zm-9.2959-21.2237h-13.5977a22.14337,22.14337,0,0,0,6.8692,13.0889A22.456,22.456,0,0,0,313.00518,347.4218Z" fill="#fff"/><path d="M369.84687,364.5527h-14.1465v2.4424q0,3.917-4.1631,3.9179h-2.3369l-.8603-2.1611h3.2666q1.7226,0,1.7226-1.581v-2.6182h-15.4258v-2.1963h15.4258v-1.5117a21.96025,21.96025,0,0,0,5.253-2.5645h-13.458v-2.0215h17.3593v1.9151a53.61546,53.61546,0,0,1-6.7832,3.8135v.3691h14.1465Zm-1.4766-6.5186H366.261v-3.6377h-24.5459v3.8477h-2.3018v-5.9033h3.0225V341.623a11.62905,11.62905,0,0,0,5.4658-2.3721l1.1582,1.6172a10.34291,10.34291,0,0,1-4.3584,2.2305v1.4756h4.499v1.8281h-4.499v1.915h4.499v1.792h-4.499v2.2315h18.6787v-2.2315H359.091v-1.7568h4.2891v-2.0557h-4.2519v-1.792h4.2519v-1.915h-4.9726v-2.126h7.2031v11.8418h2.7597Zm-9.9628-13.6347-1.2305,1.5097a18.73208,18.73208,0,0,0-2.7227-2.0898,21.00883,21.00883,0,0,1-3.1982,2.1963l-1.4404-1.2647a13.93856,13.93856,0,0,0,2.9863-1.6523,31.176,31.176,0,0,0-3.461-1.125l.8965-1.6152a32.5765,32.5765,0,0,1,3.918,1.2646,14.8854,14.8854,0,0,0,2.0898-2.4072l1.4766,1.1777a11.203,11.203,0,0,1-1.8262,2.126A13.17061,13.17061,0,0,1,358.40747,344.3994Zm.2109,6.3955-1.4766,1.1601a16.2215,16.2215,0,0,0-2.9511-1.8105,19.01544,19.01544,0,0,1-3.3741,1.8105l-1.3359-1.0556a17.26305,17.26305,0,0,0,3.251-1.8614,17.89066,17.89066,0,0,0-2.9864-1.371l1.3174-1.1075a22.04277,22.04277,0,0,1,3.0928,1.3535,14.8443,14.8443,0,0,0,1.9844-1.6865l1.6172.8262a8.85393,8.85393,0,0,1-2.002,1.915A13.08862,13.08862,0,0,1,358.61837,350.7949Z" fill="#fff"/><path d="M392.9946,351.2334q3.5508,3.99015,3.5508,7.7841a4.2826,4.2826,0,0,1-.959,2.9346,3.374,3.374,0,0,1-2.6787,1.0899,13.96981,13.96981,0,0,1-2.2842-.2286l-.6504-2.3379a12.66533,12.66533,0,0,0,2.7061.4747,1.78824,1.78824,0,0,0,1.2481-.5274,1.83248,1.83248,0,0,0,.5625-1.4053,8.42958,8.42958,0,0,0-.9659-3.374,13.45014,13.45014,0,0,0-2.9004-3.917l3.4268-8.8037h-5.2178V370.913h-2.3027V340.6923h9.8564v2.2305Zm24.2305,13.2314a12.12581,12.12581,0,0,1-1.2305,4.1279,2.707,2.707,0,0,1-2.5117,1.2832h-2.7402q-2.74215,0-2.7412-2.8808v-9.2949h-3.708q-.1056,5.6571-2.2051,8.4775-2.1006,2.81985-7.793,4.7353l-1.4756-2.0214q5.2881-1.56165,7.2569-4.0411,1.96875-2.47695,1.9853-7.1152h-4.8144v-2.3027h18.8193v2.2676h-5.8711v8.75a1.33821,1.33821,0,0,0,.2822.8164.81594.81594,0,0,0,.668.3779h2.2314q.68565,0,1.0459-1.124a17.91649,17.91649,0,0,0,.6065-2.917Zm-2.0205-15.9365-2.2315.0351v-3.0927h-13.248v3.0927h-2.2666v-5.3242h7.7129v-3.9883h2.3027v3.9541h7.7305Zm-2.9512,3.3906H400.3755v-2.3008h11.8779Z" fill="#fff"/><path d="M465.85193,364.5527h-14.1455v2.4424q0,3.917-4.1641,3.9179h-2.3359l-.8614-2.1611h3.2676q1.72275,0,1.7227-1.581v-2.6182h-15.4278v-2.1963h15.4278v-1.5117a21.97887,21.97887,0,0,0,5.2529-2.5645h-13.459v-2.0215h17.3594v1.9151a53.67411,53.67411,0,0,1-6.7822,3.8135v.3691h14.1455Zm-1.4776-6.5186h-2.1074v-3.6377H437.722v3.8477h-2.3027v-5.9033h3.0234V341.623a11.62448,11.62448,0,0,0,5.4629-2.3721l1.1601,1.6172a10.35017,10.35017,0,0,1-4.3574,2.2305v1.4756h4.4981v1.8281h-4.4981v1.915h4.4981v1.792h-4.4981v2.2315h18.6768v-2.2315H455.098v-1.7568h4.2871v-2.0557h-4.251v-1.792h4.251v-1.915h-4.9717v-2.126h7.2031v11.8418h2.7578Zm-9.9609-13.6347-1.2314,1.5097a18.74787,18.74787,0,0,0-2.7237-2.0898,20.8996,20.8996,0,0,1-3.1972,2.1963l-1.4414-1.2647a13.88209,13.88209,0,0,0,2.9882-1.6523,31.11492,31.11492,0,0,0-3.4609-1.125l.8945-1.6152a32.40524,32.40524,0,0,1,3.918,1.2646,15.00985,15.00985,0,0,0,2.0928-2.4072l1.4756,1.1777a11.18486,11.18486,0,0,1-1.8282,2.126A13.12209,13.12209,0,0,1,454.41343,344.3994Zm.21,6.3955-1.4756,1.1601a16.32163,16.32163,0,0,0-2.9512-1.8105,18.99085,18.99085,0,0,1-3.375,1.8105l-1.334-1.0556a17.34131,17.34131,0,0,0,3.25-1.8614,17.90262,17.90262,0,0,0-2.9873-1.371l1.3174-1.1075a21.87671,21.87671,0,0,1,3.0918,1.3535,14.93935,14.93935,0,0,0,1.9863-1.6865l1.6162.8262a8.8142,8.8142,0,0,1-2.0029,1.915A13.00294,13.00294,0,0,1,454.62343,350.7949Z" fill="#fff"/><path d="M513.96747,369.1562h-31.9776v-2.2666h14.8995v-8.2412H486.153v-2.2666h10.7364v-7.168h-7.96a18.68427,18.68427,0,0,1-4.8145,6.9043l-2.3183-1.2119a19.419,19.419,0,0,0,6.4131-13.0371l2.3711.6855a26.40453,26.40453,0,0,1-.8262,4.4278h7.0996v-7.6963h2.3711v7.6601h12.4043v2.2676h-12.4043v7.1328h10.5781v2.2666h-10.5781v8.2413h14.7422Z" fill="#fff"/><path d="M562.3301,347.3857l-1.2647,1.8281a37.53272,37.53272,0,0,1-9.3828-3.4082v1.5801H539.8047v-1.7393a35.62262,35.62262,0,0,1-9.2061,3.462l-1.1601-1.8457a38.96067,38.96067,0,0,0,16.4462-8.0469l2.1612.7207a3.02363,3.02363,0,0,1-.6153.6152A34.41056,34.41056,0,0,0,562.3301,347.3857Zm-3.7413,10.0684H533.0771v-8.2403h25.5117Zm-2.0918,13.4931h-2.1621V369.542H537.3623v1.4052h-2.1602V359.2988H556.497Zm-11.7197-15.3916V351.163h-9.54v4.3926Zm9.5576,7.9424v-2.2666H537.3623v2.2666Zm0,4.1465v-2.3018H537.3623v2.3018Zm-11.8945-13.8272-1.8096,1.2647a12.64969,12.64969,0,0,0-3.1972-2.4424l1.8271-1.0537A9.01774,9.01774,0,0,1,542.4404,353.8173Zm8.5215-8.3808a22.162,22.162,0,0,1-4.9365-3.6035,27.03828,27.03828,0,0,1-5.71,3.6035Zm5.4648,10.1191V351.163h-9.4873v4.3926Zm-2.125-3.3554a8.37839,8.37839,0,0,1-3.1289,2.8115l-1.9316-.9658a9.12268,9.12268,0,0,0,3.1621-2.6016Z" fill="#fff"/><path d="M105.4267,628.54V560.7851h8.1543v60.5723h28.8301V628.54Z" fill="#fff"/><path d="M157.165,566.706a4.73939,4.73939,0,0,1-3.6406-1.2129,4.47319,4.47319,0,0,1-1.1152-3.1543v-1.2627a4.47655,4.47655,0,0,1,1.1152-3.1543,6.0666,6.0666,0,0,1,7.2812,0,4.48128,4.48128,0,0,1,1.1163,3.1543v1.2627a4.4779,4.4779,0,0,1-1.1163,3.1543A4.74219,4.74219,0,0,1,157.165,566.706Zm-3.8828,11.7461h7.7656V628.54h-7.7656Z" fill="#fff"/><path d="M177.5498,628.54V578.4521h7.7656v8.0615h.3887a16.3303,16.3303,0,0,1,5.1933-6.7265q3.34875-2.49765,8.9786-2.4991,7.76655,0,12.2802,4.9981,4.5132,5.001,4.5137,14.125V628.54h-7.7656V597.7031q0-13.5234-11.3574-13.5244a17.47731,17.47731,0,0,0-4.5147.584,13.183,13.183,0,0,0-3.9307,1.7519,8.65569,8.65569,0,0,0-2.7666,2.9668,8.443,8.443,0,0,0-1.0195,4.2324V628.54Z" fill="#fff"/><path d="M272.4853,626.8906q0,10.3857-5.8242,16.3076-5.8242,5.92095-16.4053,5.9219a26.54188,26.54188,0,0,1-10.5322-1.9004,21.508,21.508,0,0,1-7.3281-5.0225l4.5615-5.3623a17.63944,17.63944,0,0,0,5.8242,3.9961,19.54013,19.54013,0,0,0,7.669,1.3965q6.79395,0,10.5312-3.752,3.7368-3.75585,3.7383-11.0683v-6.9277h-.3887a16.48356,16.48356,0,0,1-5.8242,6.9189,16.00847,16.00847,0,0,1-8.834,2.3076,19.046,19.046,0,0,1-8.4453-1.8447,17.89442,17.89442,0,0,1-6.4062-5.2412,25.224,25.224,0,0,1-4.0762-8.252,41.2918,41.2918,0,0,1,0-21.7441,25.25077,25.25077,0,0,1,4.0762-8.25,17.91807,17.91807,0,0,1,6.4062-5.2422,19.04556,19.04556,0,0,1,8.4453-1.8438,17.0481,17.0481,0,0,1,8.9795,2.2579,14.08816,14.08816,0,0,1,5.6787,6.9677h.3887v-8.0615h7.7656Zm-20.4824-4.0772a17.52535,17.52535,0,0,0,4.9512-.6826,11.9969,11.9969,0,0,0,4.0273-2.001,9.99,9.99,0,0,0,2.7188-3.2177,9.26376,9.26376,0,0,0,1.0195-4.4395V593.8379a8.03165,8.03165,0,0,0-.9707-3.8545,9.11834,9.11834,0,0,0-2.7187-3.0723,14.0699,14.0699,0,0,0-4.0762-2,16.416,16.416,0,0,0-4.9512-.7324q-6.6021,0-10.4834,4.1953a15.31382,15.31382,0,0,0-3.8828,10.8301v8.5849a15.30981,15.30981,0,0,0,3.8828,10.8291Q245.39985,622.81345,252.0029,622.8134Z" fill="#fff"/><path d="M319.8545,620.4795h-.3887a23.67679,23.67679,0,0,1-1.8926,3.4121,12.73644,12.73644,0,0,1-2.7656,2.9795,12.97468,12.97468,0,0,1-3.9805,2.0664,17.39183,17.39183,0,0,1-5.4355.7685q-7.768,0-12.3281-5-4.5645-4.998-4.5625-14.123V578.4521h7.7656V609.29q0,13.5234,11.4541,13.5234a17.34058,17.34058,0,0,0,4.5137-.5839,12.49755,12.49755,0,0,0,3.8828-1.75,8.85155,8.85155,0,0,0,2.7177-2.9668,8.65179,8.65179,0,0,0,1.0196-4.3301V578.4521h7.7656V628.54h-7.7656Z" fill="#fff"/><path d="M348.0049,566.706a4.7383,4.7383,0,0,1-3.6407-1.2129,4.47379,4.47379,0,0,1-1.1162-3.1543v-1.2627a4.47715,4.47715,0,0,1,1.1162-3.1543,6.06525,6.06525,0,0,1,7.2803,0,4.48122,4.48122,0,0,1,1.1162,3.1543v1.2627a4.47784,4.47784,0,0,1-1.1162,3.1543A4.74135,4.74135,0,0,1,348.0049,566.706Zm-3.8829,11.7461h7.7657V628.54H344.122Z" fill="#fff"/><path d="M383.4355,629.706a23.42968,23.42968,0,0,1-11.6972-2.6699,26.59161,26.59161,0,0,1-8.1055-7.1348l5.5332-4.4648a21.74331,21.74331,0,0,0,6.5039,5.6777,16.92782,16.92782,0,0,0,8.3486,1.9912q4.9497,0,7.7168-2.1357a7.75883,7.75883,0,0,0,.8731-11.0176q-1.89255-2.0874-6.8438-2.8633l-3.9795-.583a33.18357,33.18357,0,0,1-6.4072-1.5049,17.80216,17.80216,0,0,1-5.0957-2.7177,11.67857,11.67857,0,0,1-3.3975-4.2237,13.7559,13.7559,0,0,1-1.2138-6.0175,14.46916,14.46916,0,0,1,1.3594-6.4551,12.99665,12.99665,0,0,1,3.7373-4.6114,16.33108,16.33108,0,0,1,5.6787-2.7656,26.21434,26.21434,0,0,1,7.0859-.9219,22.1303,22.1303,0,0,1,10.2412,2.1348,22.95993,22.95993,0,0,1,7.2315,5.9219l-5.1446,4.6592a15.45506,15.45506,0,0,0-4.8535-4.2237,15.63905,15.63905,0,0,0-8.0566-1.8916q-4.8546,0-7.3291,2.0869a7.04189,7.04189,0,0,0-2.4756,5.6788q0,3.68985,2.4756,5.3388a18.48158,18.48158,0,0,0,7.1347,2.4268l3.8829.581q8.3481,1.2627,11.8427,4.8057a12.63279,12.63279,0,0,1,3.4942,9.2705q0,7.28025-4.9502,11.4541Q392.0757,629.7075,383.4355,629.706Z" fill="#fff"/><path d="M426.0508,628.54q-4.0767,0-6.1641-2.2744a8.467,8.467,0,0,1-2.0869-5.958V585.3447h-8.251v-6.8926h4.6592q2.5224,0,3.4463-1.0195a5.29154,5.29154,0,0,0,.9219-3.543v-9.3184h6.9892v13.8809h10.9688v6.8926H425.5654v36.3047h10.1924V628.54Z" fill="#fff"/><path d="M452.9394,566.706a4.73411,4.73411,0,0,1-3.6396-1.2129,4.46989,4.46989,0,0,1-1.1172-3.1543v-1.2627a4.47325,4.47325,0,0,1,1.1172-3.1543,6.06375,6.06375,0,0,1,7.2793,0,4.47776,4.47776,0,0,1,1.1172,3.1543v1.2627a4.47439,4.47439,0,0,1-1.1172,3.1543A4.73879,4.73879,0,0,1,452.9394,566.706Zm-3.8828,11.7461h7.7656V628.54h-7.7656Z" fill="#fff"/><path d="M491.9619,629.706a23.07884,23.07884,0,0,1-9.416-1.8447,19.20121,19.20121,0,0,1-7.0371-5.2412,23.33054,23.33054,0,0,1-4.3692-8.252,40.05026,40.05026,0,0,1,0-21.7441,23.35381,23.35381,0,0,1,4.3692-8.25,19.22583,19.22583,0,0,1,7.0371-5.2422,23.07872,23.07872,0,0,1,9.416-1.8438q7.4736,0,11.9883,3.251a19.83916,19.83916,0,0,1,6.7461,8.4932l-6.5039,3.3008a11.792,11.792,0,0,0-4.4649-6.0176,13.39494,13.39494,0,0,0-7.7656-2.1367,15.52436,15.52436,0,0,0-6.1152,1.1172,11.95941,11.95941,0,0,0-4.3692,3.1054,13.08739,13.08739,0,0,0-2.6201,4.7569,20.0544,20.0544,0,0,0-.874,6.0673v8.5411a16.2547,16.2547,0,0,0,3.5429,10.8242q3.5421,4.2231,10.4356,4.2226,9.4146,0,13.5898-8.7363l5.6309,3.7852a19.90462,19.90462,0,0,1-7.2324,8.6406A21.15826,21.15826,0,0,1,491.9619,629.706Z" fill="#fff"/><path d="M537.1963,629.706a23.43008,23.43008,0,0,1-11.6973-2.6699,26.59394,26.59394,0,0,1-8.1055-7.1348l5.5332-4.4648a21.75537,21.75537,0,0,0,6.5039,5.6777,16.92134,16.92134,0,0,0,8.3477,1.9912q4.9512,0,7.7168-2.1357a7.75695,7.75695,0,0,0,.875-11.0176q-1.894-2.0874-6.8438-2.8633l-3.9804-.583a33.15649,33.15649,0,0,1-6.4063-1.5049,17.808,17.808,0,0,1-5.0967-2.7177,11.67831,11.67831,0,0,1-3.3974-4.2237,13.74046,13.74046,0,0,1-1.2129-6.0175,14.4569,14.4569,0,0,1,1.3584-6.4551,12.99879,12.99879,0,0,1,3.7373-4.6114,16.34061,16.34061,0,0,1,5.6787-2.7656,26.21649,26.21649,0,0,1,7.0869-.9219,22.13209,22.13209,0,0,1,10.2403,2.1348,22.97422,22.97422,0,0,1,7.2324,5.9219l-5.1455,4.6592a15.44609,15.44609,0,0,0-4.8535-4.2237,15.6417,15.6417,0,0,0-8.0567-1.8916q-4.856,0-7.3291,2.0869a7.03813,7.03813,0,0,0-2.4746,5.6788q0,3.68985,2.4746,5.3388a18.48764,18.48764,0,0,0,7.1348,2.4268l3.8828.581q8.3466,1.2627,11.8428,4.8057a12.6374,12.6374,0,0,1,3.4951,9.2705q0,7.28025-4.9512,11.4541Q545.8349,629.7075,537.1963,629.706Z" fill="#fff"/><path d="M124.4531,746.1904a29.18791,29.18791,0,0,1-14.0752-3.1543,29.85564,29.85564,0,0,1-9.9014-8.6875l6.0186-5.0488a26.34327,26.34327,0,0,0,7.959,7.2324,20.52526,20.52526,0,0,0,10.291,2.4756q7.28025,0,11.1133-3.4951a11.99515,11.99515,0,0,0,3.8349-9.3184q0-4.8516-2.9121-7.4736-2.9121-2.62215-9.6103-4.1748l-5.5332-1.2618q-9.31935-2.1357-14.2207-6.455-4.9029-4.31835-4.9024-12.1836a18.4114,18.4114,0,0,1,1.6504-7.959,15.95989,15.95989,0,0,1,4.6113-5.8242,20.81362,20.81362,0,0,1,7.086-3.543,32.08532,32.08532,0,0,1,9.0762-1.2139,28.49742,28.49742,0,0,1,13.1533,2.8155,25.33706,25.33706,0,0,1,9.2705,8.2509l-6.1153,4.4659a21.13087,21.13087,0,0,0-6.7949-6.1163,20.02774,20.02774,0,0,0-9.9023-2.2324q-6.504,0-10.2403,2.7666-3.73815,2.7657-3.7382,8.2998,0,4.8546,3.1562,7.3282,3.1524,2.47545,9.5606,3.9316l5.5332,1.2627q9.996,2.23245,14.4629,6.7949,4.46475,4.5615,4.4658,12.1328a21.47245,21.47245,0,0,1-1.6016,8.4453,17.32825,17.32825,0,0,1-4.6103,6.4063,21.45506,21.45506,0,0,1-7.3291,4.0781A30.45405,30.45405,0,0,1,124.4531,746.1904Z" fill="#fff"/><path d="M179.9775,746.1904a22.58214,22.58214,0,0,1-9.2226-1.8438,19.84879,19.84879,0,0,1-7.1348-5.291,24.87706,24.87706,0,0,1-4.6104-8.25,36.18153,36.18153,0,0,1,0-21.5996,24.84668,24.84668,0,0,1,4.6104-8.2988,19.894,19.894,0,0,1,7.1348-5.291,22.59855,22.59855,0,0,1,9.2226-1.8438,22.267,22.267,0,0,1,9.1729,1.8438,20.484,20.484,0,0,1,7.1347,5.291,24.43421,24.43421,0,0,1,4.6592,8.2988,36.16061,36.16061,0,0,1,0,21.5996,24.46247,24.46247,0,0,1-4.6592,8.25,20.4359,20.4359,0,0,1-7.1347,5.291A22.251,22.251,0,0,1,179.9775,746.1904Zm0-6.8916a14.11144,14.11144,0,0,0,10.2891-3.8828q3.97845-3.88035,3.9804-11.8428v-7.1836q0-7.957-3.9804-11.8418a15.57523,15.57523,0,0,0-20.5791,0q-3.98145,3.88335-3.9795,11.8418v7.1836q0,7.9599,3.9795,11.8428A14.10894,14.10894,0,0,0,179.9775,739.2988Z" fill="#fff"/><path d="M234.0459,746.1904a23.07673,23.07673,0,0,1-9.416-1.8438,19.19185,19.19185,0,0,1-7.0371-5.2412,23.33146,23.33146,0,0,1-4.3692-8.2509,40.05063,40.05063,0,0,1,0-21.7442,23.34485,23.34485,0,0,1,4.3692-8.2519,19.23751,19.23751,0,0,1,7.0371-5.2422,23.09322,23.09322,0,0,1,9.416-1.8438q7.4736,0,11.9883,3.252a19.85064,19.85064,0,0,1,6.7461,8.4941l-6.504,3.3008a11.79617,11.79617,0,0,0-4.4648-6.0195,13.4109,13.4109,0,0,0-7.7656-2.1348,15.54035,15.54035,0,0,0-6.1153,1.1152,11.96578,11.96578,0,0,0-4.3691,3.1075,13.08941,13.08941,0,0,0-2.6211,4.7558,20.08012,20.08012,0,0,0-.873,6.0664v8.543a16.25946,16.25946,0,0,0,3.5429,10.8242q3.5421,4.22175,10.4356,4.2217,9.4131,0,13.5898-8.7363l5.6299,3.7861a19.89314,19.89314,0,0,1-7.2314,8.6396A21.16027,21.16027,0,0,1,234.0459,746.1904Z" fill="#fff"/><path d="M268.1162,683.1923a4.73637,4.73637,0,0,1-3.6397-1.2138,4.47014,4.47014,0,0,1-1.1162-3.1553v-1.2617a4.47837,4.47837,0,0,1,1.1162-3.1553,6.06885,6.06885,0,0,1,7.2803,0,4.487,4.487,0,0,1,1.1162,3.1553v1.2617a4.47869,4.47869,0,0,1-1.1162,3.1553A4.7414,4.7414,0,0,1,268.1162,683.1923Zm-3.8828,11.7452h7.7656v50.0888h-7.7656Z" fill="#fff"/><path d="M307.333,746.1904a22.48548,22.48548,0,0,1-9.2695-1.8438,19.93848,19.93848,0,0,1-7.086-5.291,24.2154,24.2154,0,0,1-4.5625-8.25,37.21508,37.21508,0,0,1,0-21.5996,24.19385,24.19385,0,0,1,4.5625-8.2988,19.98449,19.98449,0,0,1,7.086-5.291,22.50159,22.50159,0,0,1,9.2695-1.8438,21.30718,21.30718,0,0,1,9.0273,1.8379,20.00418,20.00418,0,0,1,6.795,5.0801,22.63132,22.63132,0,0,1,4.3203,7.6894,30.37449,30.37449,0,0,1,1.5048,9.7696v3.6767H292.9668v2.3301a17.13065,17.13065,0,0,0,1.0195,5.9697,14.13812,14.13812,0,0,0,2.9121,4.8047,13.298,13.298,0,0,0,4.6592,3.2031,15.98329,15.98329,0,0,0,6.2617,1.1651,15.23352,15.23352,0,0,0,8.2988-2.2324,14.64555,14.64555,0,0,0,5.4844-6.4073l5.5332,4.0059a19.32615,19.32615,0,0,1-7.5713,8.3516A22.84354,22.84354,0,0,1,307.333,746.1904Zm0-45.9141a14.79075,14.79075,0,0,0-5.8242,1.1104,13.08305,13.08305,0,0,0-4.5137,3.1357,14.70822,14.70822,0,0,0-2.9609,4.7735,16.507,16.507,0,0,0-1.0674,6.0312v.6738h27.665v-1.0605q0-6.65625-3.6396-10.6602A12.427,12.427,0,0,0,307.333,700.2763Z" fill="#fff"/><path d="M352.8594,745.0263q-4.0767,0-6.1641-2.2754a8.46779,8.46779,0,0,1-2.0869-5.957V701.8291h-8.251v-6.8916h4.6592q2.5224,0,3.4463-1.0196a5.29012,5.29012,0,0,0,.9218-3.542v-9.3203h6.9893v13.8819h10.9688v6.8916H352.374v36.3046h10.1924v6.8926Z" fill="#fff"/><path d="M406.7334,694.9375h7.6689l-22.4228,61.7373a27.60829,27.60829,0,0,1-1.7481,3.7363,7.27068,7.27068,0,0,1-2.1347,2.3789,8.515,8.515,0,0,1-3.1553,1.2627,23.52853,23.52853,0,0,1-4.6104.3877h-3.9804v-6.8926h7.8632l3.7852-10.6601-18.7344-51.9502h7.7657l12.0371,34.0068,2.3291,8.1387h.4853l2.7178-8.1387Z" fill="#fff"/><path d="M118.833,839.9394l-2.4151-7.6787H105.7187l-2.373,7.6787H97.5644l10.0957-30.1123h7.0743l10.0087,30.1123Zm-7.6787-24.9346h-.2158l-3.8389,12.3809h7.9375Z" fill="#fff"/><path d="M149.1601,839.9394l-2.416-7.6787H136.0449l-2.3721,7.6787h-5.7812l10.0947-30.1123h7.0762l10.0078,30.1123Zm-7.6797-24.9346h-.2148l-3.8398,12.3809h7.9375Z" fill="#fff"/><path d="M178.625,827.2138H166.0713v12.7256h-5.6944V809.8271h5.6944V822.165H178.625V809.8271h5.6953v30.1123H178.625Z" fill="#fff"/><path d="M201.9638,826.3076l-4.0117,4.7461v8.8857h-5.6943V809.8271h5.6943v14.8408h.2158l4.2706-5.6504,7.4638-9.1904h6.5567l-10.4825,12.5537,11.3457,17.5586h-6.7734Z" fill="#fff"/><path d="M227.7617,809.8271v18.5078a8.63591,8.63591,0,0,0,1.3594,5.3067q1.3593,1.7694,4.5937,1.7685,3.2373,0,4.5957-1.7685a8.64292,8.64292,0,0,0,1.3584-5.3067V809.8271h5.6084v17.7754a23.13314,23.13314,0,0,1-.625,5.7363,9.7882,9.7882,0,0,1-2.0058,4.0137,8.10384,8.10384,0,0,1-3.6036,2.3506,16.83584,16.83584,0,0,1-5.371.7539,16.5906,16.5906,0,0,1-5.3711-.7539,8.104,8.104,0,0,1-3.5586-2.3506,9.56349,9.56349,0,0,1-1.9844-4.0137,23.83918,23.83918,0,0,1-.6035-5.7363V809.8271Z" fill="#fff"/><text transform="translate(97.56443 1042.06246)" font-size="42" fill="#fff" font-family="FiraSans-Bold, Fira Sans" font-weight="700">Se<tspan x="47.29102" y="0" letter-spacing="-0.007em">s</tspan><tspan x="67.15723" y="0">sion 2020–2021</tspan></text><text transform="translate(97.56443 982.65426)" font-size="42" fill="#fff" font-family="SourceHanSansHC-Medium-B5pc-H, Source Han Sans HC"><tspan letter-spacing="0.00658em">二零二零至二零二一年</tspan><tspan x="422.76465" y="0">度</tspan></text><rect x="97.5644" y="908.2129" width="464.7657" height="1.5" fill="#fff"/></g></svg>