<svg xmlns="http://www.w3.org/2000/svg" xmlns:xlink="http://www.w3.org/1999/xlink" viewBox="0 0 633.1885 799.0234"><defs><clipPath id="a"><rect width="633.1885" height="799.0234" fill="none"/></clipPath></defs><g clip-path="url(#a)"><path d="M79.2217,135.7871A105.37,105.37,0,0,0,71.1358,169.5a10.382,10.382,0,0,1,13.6777.4785A92.62994,92.62994,0,0,1,177.1651,84.542a6.8379,6.8379,0,0,0,0-13.6758,106.40265,106.40265,0,0,0-97.9434,64.9209Z" fill="#fff"/><path d="M169.5947,269.4863A92.63111,92.63111,0,0,1,84.542,177.5869a6.8379,6.8379,0,0,0-13.6758,0A106.21553,106.21553,0,0,0,169.0518,283.167a10.37272,10.37272,0,0,1,.5429-13.6807Z" fill="#fff"/><path d="M251.2647,243.707a6.83729,6.83729,0,0,0-9.67,0,92.31975,92.31975,0,0,1-64.4296,26.0889,6.8379,6.8379,0,0,0,0,13.6758,105.95024,105.95024,0,0,0,74.0996-30.0938A6.83609,6.83609,0,0,0,251.2647,243.707Z" fill="#fff"/><path d="M177.1651,283.4717a6.8379,6.8379,0,0,1,0-13.6758,92.31975,92.31975,0,0,0,64.4296-26.0889,6.838,6.838,0,0,1,9.67,9.6709,105.95024,105.95024,0,0,1-74.0996,30.0938Zm-41.3848-8.3594a106.21405,106.21405,0,0,1-64.9141-97.5254,6.8379,6.8379,0,0,1,13.6758,0,92.63111,92.63111,0,0,0,85.0527,91.8994,10.37272,10.37272,0,0,0-.5429,13.6807A105.36835,105.36835,0,0,1,135.7803,275.1123ZM177.1651,70.8662a6.8379,6.8379,0,0,1,0,13.6758,92.62994,92.62994,0,0,0-92.3516,85.4365A10.382,10.382,0,0,0,71.1358,169.5,106.21927,106.21927,0,0,1,177.1651,70.8662Z" fill="#fff"/><path d="M233.458,120.875a79.61364,79.61364,0,1,0,23.3164,56.2939A79.08768,79.08768,0,0,0,233.458,120.875Z" fill="#fff"/><path d="M121.0596,202.914V151.4248h11.166v3.8056h-6.4727v43.877h6.4727v3.8066Z" fill="#333e48"/><path d="M233.2705,151.4248V202.914h-11.164v-3.8066h6.4687v-43.877h-6.4687v-3.8056Z" fill="#333e48"/><path d="M146.9951,187.6289q0,1.54245.0469,3.6357.04695,2.0919.1289,4.2481.08205,2.15625.1934,4.1201.1113,1.9629.2734,3.2812h-6.5976V166.5478q0-4.6962-.1602-8.5107-.1611-3.8145-.4844-6.6123h6.5996Z" fill="#00c2f3"/><path d="M175.7979,170.0888v4.2168h-6.0508v24.3936h6.0508v4.2158H157.7764v-4.2158h5.9531V174.3056h-5.9531v-4.2168Z" fill="#00c2f3"/><path d="M189.3154,170.0888a11.62947,11.62947,0,0,1,.3848,1.337c.1309.5459.2461,1.1201.3555,1.7207q.1581.90075.289,1.7705l.2559,1.4463a21.24353,21.24353,0,0,1,6.2109-5.293,13.91548,13.91548,0,0,1,6.502-1.625,11.411,11.411,0,0,1,4.5527.8525,8.02385,8.02385,0,0,1,3.3321,2.7032,13.23634,13.23634,0,0,1,2.0429,4.7958,31.35426,31.35426,0,0,1,.6914,7.0967V199.374a36.01877,36.01877,0,0,1-.9492,9.0273,15.43807,15.43807,0,0,1-2.6543,5.7305,9.33158,9.33158,0,0,1-4.1035,3.0234,15.2799,15.2799,0,0,1-5.3262.8858,11.51884,11.51884,0,0,1-3.1054-.4668,11.70185,11.70185,0,0,1-3.0079-1.3037l2.0918-4.8281a6.39861,6.39861,0,0,0,1.9786.9179,8.79974,8.79974,0,0,0,2.5253.3692,7.27322,7.27322,0,0,0,2.7696-.4981,4.61129,4.61129,0,0,0,2.0742-1.7529,9.60449,9.60449,0,0,0,1.3047-3.4443,28.51668,28.51668,0,0,0,.4492-5.5674V187.3066a39.31489,39.31489,0,0,0-.4023-6.2588,10.81283,10.81283,0,0,0-1.2071-3.7343,4.01248,4.01248,0,0,0-2.0117-1.7872,8.07009,8.07009,0,0,0-2.8164-.4492,7.54293,7.54293,0,0,0-3.3926.8223,12.43974,12.43974,0,0,0-3.0429,2.123,15.77617,15.77617,0,0,0-2.4454,2.9444,13.55379,13.55379,0,0,0-1.5781,3.2822v18.666h-5.9531V183.123a50.24169,50.24169,0,0,0-.5469-8.0615,40.57184,40.57184,0,0,0-1.0625-4.9727Z" fill="#00c2f3"/><path d="M107.4561,426.1631V358.4072h8.1543v60.5723h28.83v7.1836Z" fill="#fff"/><path d="M159.1943,364.3291a4.74347,4.74347,0,0,1-3.6406-1.2129,4.474,4.474,0,0,1-1.1152-3.1553v-1.2627a4.47975,4.47975,0,0,1,1.1152-3.1543,6.07035,6.07035,0,0,1,7.2813,0,4.48488,4.48488,0,0,1,1.1162,3.1543v1.2627a4.47914,4.47914,0,0,1-1.1162,3.1553A4.74638,4.74638,0,0,1,159.1943,364.3291Zm-3.8828,11.7461h7.7657v50.0879h-7.7657Z" fill="#fff"/><path d="M179.5791,426.1631V376.0752h7.7656v8.0605h.3887a16.33616,16.33616,0,0,1,5.1934-6.7265q3.3486-2.49765,8.9785-2.4991,7.76655,0,12.2803,4.9991,4.513,5.00085,4.5136,14.124v32.1299h-7.7656V395.3252q0-13.52355-11.3574-13.5235a17.43525,17.43525,0,0,0-4.5147.584,13.1325,13.1325,0,0,0-3.9306,1.752,8.64582,8.64582,0,0,0-2.7666,2.9668,8.43785,8.43785,0,0,0-1.0196,4.2314v34.8272Z" fill="#fff"/><path d="M274.5147,424.5127q0,10.3857-5.8243,16.3086-5.8242,5.91945-16.4052,5.9218a26.54154,26.54154,0,0,1-10.5323-1.9013,21.49537,21.49537,0,0,1-7.3281-5.0225l4.5615-5.3623a17.64522,17.64522,0,0,0,5.8243,3.9971,19.55945,19.55945,0,0,0,7.6689,1.3965q6.794,0,10.5313-3.752,3.7368-3.75735,3.7382-11.0684v-6.9277h-.3886a16.481,16.481,0,0,1-5.8243,6.918,16.009,16.009,0,0,1-8.8339,2.3076,19.0464,19.0464,0,0,1-8.4454-1.8447,17.89442,17.89442,0,0,1-6.4062-5.2412,25.22843,25.22843,0,0,1-4.0762-8.251,41.29218,41.29218,0,0,1,0-21.7442,25.24673,25.24673,0,0,1,4.0762-8.2509,17.92644,17.92644,0,0,1,6.4062-5.2422,19.046,19.046,0,0,1,8.4454-1.8438,17.04925,17.04925,0,0,1,8.9795,2.2578,14.09771,14.09771,0,0,1,5.6787,6.9678h.3886v-8.0605h7.7657Zm-20.4825-4.0762a17.52537,17.52537,0,0,0,4.9512-.6836,12.01537,12.01537,0,0,0,4.0274-2,10.00385,10.00385,0,0,0,2.7187-3.2187,9.25821,9.25821,0,0,0,1.0195-4.4395V391.4599a8.02551,8.02551,0,0,0-.9707-3.8535,9.10957,9.10957,0,0,0-2.7187-3.0722,14.04211,14.04211,0,0,0-4.0762-2,16.416,16.416,0,0,0-4.9512-.7325q-6.60195,0-10.4834,4.1953a15.31125,15.31125,0,0,0-3.8828,10.8301v8.584a15.31276,15.31276,0,0,0,3.8828,10.8301Q247.4293,420.43655,254.0322,420.4365Z" fill="#fff"/><path d="M321.8838,418.1025h-.3887a23.71864,23.71864,0,0,1-1.8925,3.4121,12.73275,12.73275,0,0,1-2.7657,2.9785,12.95024,12.95024,0,0,1-3.9804,2.0664,17.38985,17.38985,0,0,1-5.4356.7686q-7.768,0-12.3281-4.999-4.5645-4.99815-4.5625-14.124V376.0752h7.7656v30.8379q0,13.5234,11.4541,13.5234a17.37909,17.37909,0,0,0,4.5137-.584,12.49525,12.49525,0,0,0,3.8828-1.75,8.85514,8.85514,0,0,0,2.7178-2.9678,8.65112,8.65112,0,0,0,1.0195-4.33V376.0752h7.7656v50.0879h-7.7656Z" fill="#fff"/><path d="M350.0342,364.3291a4.7417,4.7417,0,0,1-3.6406-1.2129,4.47418,4.47418,0,0,1-1.1162-3.1553v-1.2627a4.4799,4.4799,0,0,1,1.1162-3.1543,6.0687,6.0687,0,0,1,7.2802,0,4.48448,4.48448,0,0,1,1.1163,3.1543v1.2627a4.47875,4.47875,0,0,1-1.1163,3.1553A4.74515,4.74515,0,0,1,350.0342,364.3291Zm-3.8828,11.7461h7.7656v50.0879h-7.7656Z" fill="#fff"/><path d="M385.4649,427.3281a23.43015,23.43015,0,0,1-11.6973-2.6689,26.59277,26.59277,0,0,1-8.1055-7.1348l5.5332-4.4658a21.74863,21.74863,0,0,0,6.5039,5.6787,16.93838,16.93838,0,0,0,8.3487,1.9902q4.9497,0,7.7168-2.1357a7.759,7.759,0,0,0,.873-11.0176q-1.89255-2.0874-6.8437-2.8633l-3.9795-.583a33.18563,33.18563,0,0,1-6.4073-1.5039,17.80187,17.80187,0,0,1-5.0957-2.7188,11.66541,11.66541,0,0,1-3.3974-4.2226,13.75767,13.75767,0,0,1-1.2139-6.0176,14.46946,14.46946,0,0,1,1.3594-6.4551,12.98954,12.98954,0,0,1,3.7373-4.6113,16.3483,16.3483,0,0,1,5.6787-2.7666,26.24993,26.24993,0,0,1,7.0859-.9219,22.11583,22.11583,0,0,1,10.2412,2.1358,22.95661,22.95661,0,0,1,7.2315,5.9209l-5.1445,4.6592a15.4534,15.4534,0,0,0-4.8536-4.2227,15.62862,15.62862,0,0,0-8.0566-1.8926q-4.85445,0-7.3291,2.0869a7.04183,7.04183,0,0,0-2.4756,5.6787q0,3.69,2.4756,5.3389a18.4649,18.4649,0,0,0,7.1348,2.4268l3.8828.582q8.3481,1.2627,11.8428,4.8047a12.6355,12.6355,0,0,1,3.4941,9.2715q0,7.28025-4.9502,11.4541Q394.105,427.3291,385.4649,427.3281Z" fill="#fff"/><path d="M428.0801,426.1631q-4.0767,0-6.1641-2.2754a8.46484,8.46484,0,0,1-2.0869-5.9571V382.9668h-8.251v-6.8916h4.6592q2.52255,0,3.4463-1.0196a5.2923,5.2923,0,0,0,.9219-3.5429v-9.3194h6.9892v13.8819h10.9688v6.8916H427.5947v36.3047h10.1924v6.8916Z" fill="#fff"/><path d="M454.9688,364.3291a4.73814,4.73814,0,0,1-3.6397-1.2129,4.47074,4.47074,0,0,1-1.1172-3.1553v-1.2627a4.47645,4.47645,0,0,1,1.1172-3.1543,6.06735,6.06735,0,0,1,7.2793,0,4.48051,4.48051,0,0,1,1.1172,3.1543v1.2627a4.47478,4.47478,0,0,1-1.1172,3.1553A4.74219,4.74219,0,0,1,454.9688,364.3291Zm-3.8828,11.7461h7.7656v50.0879H451.086Z" fill="#fff"/><path d="M493.9912,427.3281a23.07917,23.07917,0,0,1-9.416-1.8447,19.20121,19.20121,0,0,1-7.0371-5.2412,23.33264,23.33264,0,0,1-4.3691-8.251,40.05063,40.05063,0,0,1,0-21.7442,23.34856,23.34856,0,0,1,4.3691-8.2509,19.2347,19.2347,0,0,1,7.0371-5.2422,23.07905,23.07905,0,0,1,9.416-1.8438q7.4736,0,11.9883,3.251a19.841,19.841,0,0,1,6.7461,8.4941l-6.5039,3.3008a11.79375,11.79375,0,0,0-4.4649-6.0185,13.40114,13.40114,0,0,0-7.7656-2.1358,15.52685,15.52685,0,0,0-6.1152,1.1162,11.9639,11.9639,0,0,0-4.3692,3.1065,13.084,13.084,0,0,0-2.6201,4.7558,20.06019,20.06019,0,0,0-.874,6.0674v8.542a16.25751,16.25751,0,0,0,3.543,10.8242q3.54195,4.22175,10.4355,4.2227,9.4146,0,13.5899-8.7363l5.6308,3.7851a19.90218,19.90218,0,0,1-7.2324,8.6397A21.151,21.151,0,0,1,493.9912,427.3281Z" fill="#fff"/><path d="M539.2256,427.3281a23.43015,23.43015,0,0,1-11.6973-2.6689,26.59242,26.59242,0,0,1-8.1054-7.1348l5.5332-4.4658a21.75949,21.75949,0,0,0,6.5039,5.6787,16.93166,16.93166,0,0,0,8.3476,1.9902q4.9512,0,7.7168-2.1357a7.757,7.757,0,0,0,.875-11.0176q-1.894-2.0874-6.8437-2.8633l-3.9805-.583a33.15644,33.15644,0,0,1-6.4062-1.5039,17.80643,17.80643,0,0,1-5.0967-2.7188,11.66464,11.66464,0,0,1-3.3975-4.2226,13.74508,13.74508,0,0,1-1.2129-6.0176,14.4572,14.4572,0,0,1,1.3584-6.4551,12.99061,12.99061,0,0,1,3.7373-4.6113,16.35785,16.35785,0,0,1,5.6787-2.7666,26.25281,26.25281,0,0,1,7.087-.9219,22.11775,22.11775,0,0,1,10.2402,2.1358,22.97089,22.97089,0,0,1,7.2324,5.9209l-5.1455,4.6592a15.44284,15.44284,0,0,0-4.8535-4.2227,15.63177,15.63177,0,0,0-8.0567-1.8926q-4.856,0-7.3291,2.0869a7.03837,7.03837,0,0,0-2.4746,5.6787q0,3.69,2.4746,5.3389a18.471,18.471,0,0,0,7.1348,2.4268l3.8828.582q8.34675,1.2627,11.8428,4.8047a12.63977,12.63977,0,0,1,3.4951,9.2715q0,7.28025-4.9512,11.4541Q547.86435,427.3291,539.2256,427.3281Z" fill="#fff"/><path d="M126.4824,543.8135a29.1999,29.1999,0,0,1-14.0752-3.1543,29.86862,29.86862,0,0,1-9.9013-8.6885l6.0185-5.0479a26.3537,26.3537,0,0,0,7.959,7.2324,20.525,20.525,0,0,0,10.291,2.4747q7.28025,0,11.1133-3.4942a11.995,11.995,0,0,0,3.835-9.3183q0-4.8531-2.9121-7.4747-2.9121-2.622-9.6104-4.1748l-5.5332-1.2617q-9.31935-2.1342-14.2207-6.4551-4.9029-4.31835-4.9023-12.1826a18.40512,18.40512,0,0,1,1.6503-7.959,15.96284,15.96284,0,0,1,4.6114-5.8242,20.79831,20.79831,0,0,1,7.0859-3.5439,32.08532,32.08532,0,0,1,9.0762-1.2139,28.49834,28.49834,0,0,1,13.1533,2.8164,25.34352,25.34352,0,0,1,9.2705,8.25l-6.1152,4.4658a21.14311,21.14311,0,0,0-6.7949-6.1162,20.02788,20.02788,0,0,0-9.9024-2.2324q-6.50385,0-10.2402,2.7666-3.7383,2.767-3.7383,8.2998,0,4.85445,3.1562,7.3281,3.1524,2.4756,9.5606,3.9327l5.5332,1.2617q9.99615,2.2338,14.4629,6.7949,4.4649,4.563,4.4658,12.1338a21.47946,21.47946,0,0,1-1.6016,8.4453,17.33491,17.33491,0,0,1-4.6103,6.4062,21.45185,21.45185,0,0,1-7.3291,4.0772A30.45288,30.45288,0,0,1,126.4824,543.8135Z" fill="#fff"/><path d="M182.0068,543.8135a22.58378,22.58378,0,0,1-9.2226-1.8438,19.86239,19.86239,0,0,1-7.1348-5.291,24.88,24.88,0,0,1-4.6103-8.251,36.17826,36.17826,0,0,1,0-21.5986,24.82661,24.82661,0,0,1,4.6103-8.2989,19.89723,19.89723,0,0,1,7.1348-5.291,22.58375,22.58375,0,0,1,9.2226-1.8437,22.25254,22.25254,0,0,1,9.1729,1.8437,20.48777,20.48777,0,0,1,7.1348,5.291,24.41645,24.41645,0,0,1,4.6591,8.2989,36.15734,36.15734,0,0,1,0,21.5986,24.46708,24.46708,0,0,1-4.6591,8.251,20.45072,20.45072,0,0,1-7.1348,5.291A22.25257,22.25257,0,0,1,182.0068,543.8135Zm0-6.8926a14.11144,14.11144,0,0,0,10.2891-3.8828q3.9786-3.8805,3.9805-11.8418v-7.1836q0-7.95855-3.9805-11.8428a15.57523,15.57523,0,0,0-20.5791,0q-3.98145,3.88335-3.9795,11.8428v7.1836q0,7.9599,3.9795,11.8418A14.10894,14.10894,0,0,0,182.0068,536.9209Z" fill="#fff"/><path d="M236.0752,543.8135a23.07872,23.07872,0,0,1-9.416-1.8438,19.19543,19.19543,0,0,1-7.0371-5.2422,23.33267,23.33267,0,0,1-4.3692-8.251,40.05026,40.05026,0,0,1,0-21.7441,23.34994,23.34994,0,0,1,4.3692-8.251,19.22863,19.22863,0,0,1,7.0371-5.2422,23.0787,23.0787,0,0,1,9.416-1.8437q7.4736,0,11.9883,3.2519a19.842,19.842,0,0,1,6.7461,8.4932l-6.5039,3.3008a11.795,11.795,0,0,0-4.4649-6.0186,13.404,13.404,0,0,0-7.7656-2.1357,15.5216,15.5216,0,0,0-6.1152,1.1162,11.96167,11.96167,0,0,0-4.3692,3.1064,13.09576,13.09576,0,0,0-2.6211,4.7569,20.07545,20.07545,0,0,0-.873,6.0664v8.543a16.25677,16.25677,0,0,0,3.543,10.8232q3.54195,4.2231,10.4355,4.2217,9.4131,0,13.5899-8.7364l5.6298,3.7862a19.89246,19.89246,0,0,1-7.2314,8.6396A21.16031,21.16031,0,0,1,236.0752,543.8135Z" fill="#fff"/><path d="M270.1455,480.8144a4.736,4.736,0,0,1-3.6396-1.2138,4.46929,4.46929,0,0,1-1.1162-3.1543v-1.2618a4.47476,4.47476,0,0,1,1.1162-3.1552,6.0647,6.0647,0,0,1,7.2802,0,4.48339,4.48339,0,0,1,1.1163,3.1552v1.2618a4.4779,4.4779,0,0,1-1.1163,3.1543A4.7414,4.7414,0,0,1,270.1455,480.8144Zm-3.8828,11.7451h7.7656v50.0889h-7.7656Z" fill="#fff"/><path d="M309.3623,543.8135a22.48709,22.48709,0,0,1-9.2695-1.8438,19.95144,19.95144,0,0,1-7.086-5.291,24.22188,24.22188,0,0,1-4.5625-8.251,37.21172,37.21172,0,0,1,0-21.5986,24.1784,24.1784,0,0,1,4.5625-8.2989,19.98686,19.98686,0,0,1,7.086-5.291,22.48707,22.48707,0,0,1,9.2695-1.8437,21.29216,21.29216,0,0,1,9.0274,1.8379,19.99091,19.99091,0,0,1,6.7949,5.0801,22.62184,22.62184,0,0,1,4.3203,7.6894,30.36991,30.36991,0,0,1,1.5049,9.7695v3.6758H294.9961v2.3301a17.143,17.143,0,0,0,1.0195,5.9707,14.1599,14.1599,0,0,0,2.9121,4.8047,13.32625,13.32625,0,0,0,4.6592,3.2031,16.00206,16.00206,0,0,0,6.2617,1.1641,15.22533,15.22533,0,0,0,8.2989-2.2324,14.64379,14.64379,0,0,0,5.4843-6.4063l5.5333,4.0059a19.337,19.337,0,0,1-7.5713,8.3515A22.843,22.843,0,0,1,309.3623,543.8135Zm0-45.9141a14.79088,14.79088,0,0,0-5.8242,1.1094,13.08305,13.08305,0,0,0-4.5137,3.1357,14.71345,14.71345,0,0,0-2.9609,4.7744,16.50637,16.50637,0,0,0-1.0674,6.0303v.6748h27.665v-1.0615q0-6.65625-3.6396-10.6592A12.42365,12.42365,0,0,0,309.3623,497.8994Z" fill="#fff"/><path d="M354.8887,542.6484q-4.0767,0-6.1641-2.2744a8.47034,8.47034,0,0,1-2.0869-5.958V499.4521h-8.251v-6.8926h4.6592q2.52255,0,3.4463-1.0195a5.2897,5.2897,0,0,0,.9219-3.542v-9.3193h6.9892v13.8808h10.9688v6.8926H354.4033v36.3047h10.1924v6.8916Z" fill="#fff"/><path d="M408.7627,492.5595h7.669l-22.4229,61.7383a27.681,27.681,0,0,1-1.748,3.7364,7.28315,7.28315,0,0,1-2.1348,2.3789,8.51444,8.51444,0,0,1-3.1553,1.2617,23.44335,23.44335,0,0,1-4.6103.3887h-3.9805v-6.8926h7.8633l3.7851-10.6612L371.294,492.5595h7.7656l12.0371,34.0069,2.3291,8.1396h.4853l2.7178-8.1396Z" fill="#fff"/><path d="M120.8623,637.5615l-2.415-7.6787H107.7481l-2.3731,7.6787H99.5938l10.0957-30.1123h7.0742l10.0088,30.1123Zm-7.6787-24.9346h-.2158l-3.8389,12.3809h7.9375Z" fill="#fff"/><path d="M151.1895,637.5615l-2.416-7.6787H138.0742l-2.372,7.6787h-5.7813l10.0947-30.1123h7.0762l10.0078,30.1123Zm-7.6797-24.9346h-.2149l-3.8398,12.3809h7.9375Z" fill="#fff"/><path d="M180.6543,624.8359H168.1006v12.7256h-5.6943V607.4492h5.6943v12.3379h12.5537V607.4492h5.6953v30.1123h-5.6953Z" fill="#fff"/><path d="M203.9932,623.9297l-4.0117,4.7461v8.8857h-5.6944V607.4492h5.6944V622.29h.2158l4.2705-5.6504,7.4639-9.1904h6.5566l-10.4824,12.5537,11.3457,17.5586h-6.7735Z" fill="#fff"/><path d="M229.791,607.4492V625.957a8.636,8.636,0,0,0,1.3594,5.3066q1.35945,1.76955,4.5938,1.7686,3.2373,0,4.5957-1.7686a8.64306,8.64306,0,0,0,1.3584-5.3066V607.4492h5.6084v17.7754a23.1337,23.1337,0,0,1-.625,5.7363,9.79017,9.79017,0,0,1-2.0059,4.0137,8.10491,8.10491,0,0,1-3.6035,2.3506,16.83693,16.83693,0,0,1-5.3711.7539,16.591,16.591,0,0,1-5.3711-.7539,8.10482,8.10482,0,0,1-3.5586-2.3506,9.56526,9.56526,0,0,1-1.9844-4.0137,23.83976,23.83976,0,0,1-.6035-5.7363V607.4492Z" fill="#fff"/><text transform="translate(97.55665 738.24704)" font-size="42" fill="#fff" font-family="FiraSans-Bold, Fira Sans" font-weight="700">Se<tspan x="47.29102" y="0" letter-spacing="-0.007em">s</tspan><tspan x="67.15723" y="0">sion 2020–2021</tspan></text></g></svg>