<svg xmlns="http://www.w3.org/2000/svg" xmlns:xlink="http://www.w3.org/1999/xlink" viewBox="0 0 2680.9737 708.6728"><defs><clipPath id="a"><rect y="0.001" width="2680.9737" height="708.6718" fill="none"/></clipPath></defs><g clip-path="url(#a)"><text transform="translate(1761.58694 387.73825)" font-size="72" fill="#fff" font-family="SourceHanSansHC-Medium-B5pc-H, Source Han Sans HC"><tspan letter-spacing="0.03951em">二零二零至二零二一年</tspan><tspan x="748.44824" y="0">度</tspan></text><rect x="1633.9795" y="222.2177" width="3" height="264.2383" fill="#fff"/><path d="M158.4414,271.5732a210.69038,210.69038,0,0,0-16.1699,67.4258,20.76184,20.76184,0,0,1,27.3535.957c7.3379-95.5918,87.2246-170.8711,184.7012-170.8711a13.67575,13.67575,0,0,0,0-27.3515A212.80468,212.80468,0,0,0,158.4414,271.5732Z" fill="#fff"/><path d="M339.1856,538.9697c-94.9551-7.6816-169.6719-86.9629-170.1016-183.7969a13.6758,13.6758,0,0,0-27.3516,0A212.43946,212.43946,0,0,0,338.0996,566.333a20.75406,20.75406,0,0,1,1.086-27.3633Z" fill="#fff"/><path d="M502.5274,487.4131a13.67652,13.67652,0,0,0-19.3418,0,184.63132,184.63132,0,0,1-128.8594,52.1757,13.6758,13.6758,0,0,0,0,27.3516,211.89936,211.89936,0,0,0,148.2012-60.1875A13.66958,13.66958,0,0,0,502.5274,487.4131Z" fill="#fff"/><path d="M354.3262,566.9404a13.6758,13.6758,0,0,1,0-27.3516,184.63132,184.63132,0,0,0,128.8594-52.1757,13.676,13.676,0,0,1,19.3418,19.3398,211.89936,211.89936,0,0,1-148.2012,60.1875Zm-82.7656-16.7187A212.41361,212.41361,0,0,1,141.7324,355.1728a13.6758,13.6758,0,0,1,27.3516,0c.4297,96.834,75.1465,176.1153,170.1016,183.7969a20.75406,20.75406,0,0,0-1.086,27.3633A210.71684,210.71684,0,0,1,271.5606,550.2217Zm82.7656-408.4883a13.67575,13.67575,0,0,1,0,27.3515c-97.4766,0-177.3633,75.2793-184.7012,170.8711a20.76184,20.76184,0,0,0-27.3535-.957A212.43854,212.43854,0,0,1,354.3262,141.7334Z" fill="#fff"/><path d="M466.9121,241.751a159.22487,159.22487,0,1,0,46.6328,112.5859A158.17113,158.17113,0,0,0,466.9121,241.751Z" fill="#fff"/><path d="M242.1153,405.8271V302.8486h22.3339v7.6113H251.5049v87.7539h12.9443v7.6133Z" fill="#333e48"/><path d="M466.5371,302.8486V405.8271H444.209v-7.6133h12.9385V310.4599H444.209v-7.6113Z" fill="#333e48"/><path d="M293.9864,375.2568q0,3.085.0957,7.2715.09375,4.18365.2597,8.4961.15825,4.3125.3867,8.2402.21975,3.9258.545,6.5625H282.0801V333.0967q0-9.39555-.3223-17.0235-.31935-7.62885-.9668-13.2246h13.1954Z" fill="#00c2f3"/><path d="M351.5928,340.1767v8.4336H339.4922v48.7871h12.1006v8.4317h-36.042v-8.4317h11.9063V348.6103H315.5508v-8.4336Z" fill="#00c2f3"/><path d="M378.627,340.1767a22.853,22.853,0,0,1,.7715,2.6739c.2597,1.0937.4922,2.2402.7089,3.4414q.3165,1.80165.5801,3.541l.5117,2.8926q6.18165-7.336,12.4219-10.586a27.8297,27.8297,0,0,1,13.003-3.25,22.83434,22.83434,0,0,1,9.1074,1.7051,16.06392,16.06392,0,0,1,6.6631,5.4063,26.48677,26.48677,0,0,1,4.0878,9.5917,62.9324,62.9324,0,0,1,1.3829,14.1934V398.747a72.02817,72.02817,0,0,1-1.9004,18.0547,30.956,30.956,0,0,1-5.3086,11.461,18.664,18.664,0,0,1-8.2071,6.0468,30.57715,30.57715,0,0,1-10.6523,1.7715,23.023,23.023,0,0,1-6.2109-.9336,23.55671,23.55671,0,0,1-6.0176-2.6074l4.1836-9.6562a12.82125,12.82125,0,0,0,3.959,1.8359,17.58769,17.58769,0,0,0,5.0488.7383,14.54739,14.54739,0,0,0,5.54-.9961,9.22357,9.22357,0,0,0,4.1494-3.5059,19.22424,19.22424,0,0,0,2.6075-6.8886,56.87134,56.87134,0,0,0,.9004-11.1348V374.6123a78.44034,78.44034,0,0,0-.8047-12.5196,21.57484,21.57484,0,0,0-2.4151-7.4648,8.00962,8.00962,0,0,0-4.0244-3.5762,16.11346,16.11346,0,0,0-5.6289-.8984,15.09443,15.09443,0,0,0-6.7881,1.6445,24.99476,24.99476,0,0,0-6.0869,4.2461,31.58348,31.58348,0,0,0-4.8887,5.8887,27.06689,27.06689,0,0,0-3.1562,6.5644v37.3321H370.2578v-39.584a100.473,100.473,0,0,0-1.0957-16.1231,81.59346,81.59346,0,0,0-2.123-9.9453Z" fill="#00c2f3"/><path d="M731.9351,379.6396H676.9424v-9.1289h54.9927Zm-7.1568,97.2051H715.357V466.8388H693.3741v10.0059h-9.5669V427.4756h40.9711Zm-.4384-78.3633-40.3867.1465V389.499h40.3867Zm.146,19.1348H683.9532v-9.1289h40.5327Zm-1.8257-56.5274-37.1001.1465v-9.1289h37.1001Zm-7.3032,96.7676V436.458H693.2285v21.3984Zm94.3574-40.0937-78.9478.1445v-8.9824h19.5723l4.2363-22.5664H736.3174V377.376h19.7188l3.1401-16.7247H731.2051v-9.1289h72.5205v8.9825H769.0352l-2.9942,16.7246h30.0894l-3.1406,31.5488h16.7246Zm-12.708,59.375h-9.4209v-9.8594H750.6314v9.8594H741.064V427.622h55.9424Zm-9.4209-18.8438V436.6045H750.4854v21.6894Zm-1.461-72.082H764.4341l-4.2353,22.7129h23.6621Z" fill="#fff"/><path d="M974.3858,379.6396H841.6148v-9.1289h132.771Zm-19.5723,18.6953H859.8716V389.499h94.9419Zm0,18.9883H859.8716v-8.8359h94.9419Zm-3.4321,59.8145h-9.4209V466.8388H873.4561v10.2989h-9.4209V427.4756h87.3462Zm-.146-116.9981-86.4702.2188v-8.836h86.4702Zm-9.2749,97.7168V436.458H873.4561v21.3984Z" fill="#fff"/><path d="M1139.0596,450.7002h-58.791v10.1504q0,16.2861-17.3106,16.2871h-9.7129l-3.5781-8.9825h13.584q7.15725,0,7.1582-6.5742V450.7002h-64.123v-9.1289h64.123V435.29q15.2607-5.6982,21.8359-10.6621h-55.9433v-8.4004H1108.46v7.961a223.54546,223.54546,0,0,1-28.1914,15.8476v1.5352h58.791Zm-6.1348-27.0957h-8.7656V408.4873H1022.1358v15.9941h-9.5689v-24.539h12.5611V355.3916q10.36815-1.01955,22.7148-9.8574l4.8203,6.7187q-6.6504,6.1347-18.1133,9.2754v6.1348h18.6953v7.5957h-18.6953v7.9589h18.6953v7.4493h-18.6953v9.2754h77.6328V390.667h-17.8203v-7.3028h17.8203v-8.5449h-17.6738v-7.4492h17.6738v-7.9609h-20.6679v-8.836h29.9433v49.2227h11.4668Zm-41.4101-56.6719-5.1114,6.2793a77.95223,77.95223,0,0,0-11.3203-8.6895,87.43,87.43,0,0,1-13.2929,9.1289l-5.9883-5.2597a57.85771,57.85771,0,0,0,12.416-6.8633,127.00611,127.00611,0,0,0-14.3887-4.6738l3.7266-6.7207a134.90826,134.90826,0,0,1,16.2851,5.2578,62.23144,62.23144,0,0,0,8.6915-10.0039l6.1347,4.8925a46.29934,46.29934,0,0,1-7.5957,8.8379A54.46212,54.46212,0,0,1,1091.5147,366.9326Zm.875,26.582-6.1328,4.8203a67.66455,67.66455,0,0,0-12.2696-7.5214q-3.94335,2.994-14.0215,7.5214l-5.5507-4.3808q9.419-4.4532,13.5117-7.7422a74.29753,74.29753,0,0,0-12.416-5.6973l5.4765-4.5996a91.17891,91.17891,0,0,1,12.8535,5.6231q2.0421-1.1661,8.252-7.0118l6.7188,3.4336a36.6453,36.6453,0,0,1-8.3243,7.961A54.27889,54.27889,0,0,1,1092.3897,393.5146Z" fill="#fff"/><path d="M1303.585,450.7002h-58.791v10.1504q0,16.2861-17.3086,16.2871h-9.7129l-3.5781-8.9825h13.5839q7.1544,0,7.1563-6.5742V450.7002h-64.1211v-9.1289h64.1211V435.29q15.2637-5.6982,21.8379-10.6621h-55.9434v-8.4004h72.1563v7.961a223.40346,223.40346,0,0,1-28.1914,15.8476v1.5352h58.791Zm-6.1328-27.0957h-8.7676V408.4873H1186.6612v15.9941h-9.5664v-24.539h12.5605V355.3916q10.37115-1.01955,22.7129-9.8574l4.8203,6.7187q-6.64455,6.1347-18.1133,9.2754v6.1348h18.6973v7.5957h-18.6973v7.9589h18.6973v7.4493h-18.6973v9.2754h77.6328V390.667h-17.8183v-7.3028h17.8183v-8.5449h-17.6738v-7.4492h17.6738v-7.9609h-20.6679v-8.836h29.9433v49.2227h11.4688Zm-38.8106-31.7285-6.6543,6.0839c-3.0371-4.5625-7.3828-10.2754-11.5859-13.8242q-9.7998,10.919-16.1055,13.8945l-6.584-5.5292q7.424-3.53325,16.1075-13.2032-9.876-6.15225-14.0762-7.6054l5.7441-5.9414q3.501,1.3827,13.166,7.1894a41.809,41.809,0,0,0,4.4805-10.3008h-21.9902V354.001h11.789v-8.8965h7.5665v8.8965h13.9921v8.6386h-2.7695a55.02326,55.02326,0,0,1-6.2754,14.8633C1250.5362,381.372,1255.4209,387.2685,1258.6416,391.876Z" fill="#fff"/><path d="M1470.5205,379.3486l-5.2578,7.5938q-24.90525-6.13485-38.998-14.168v6.5742h-49.3711v-7.2324q-21.3252,11.03025-38.2695,14.3887l-4.8184-7.668q41.042-10.00485,68.3574-33.4492l8.9824,2.9941a12.41022,12.41022,0,0,1-2.5566,2.5547Q1432.83505,371.09575,1470.5205,379.3486Zm-15.5566,41.8457h-106.041V386.9424h106.041Zm-8.6895,56.0879h-8.9824v-5.8418h-70.5488v5.8418h-8.9824V428.8623h88.5136Zm-48.7128-63.9746V395.0498h-39.6563v18.2578Zm39.7304,33.0098v-9.42h-70.5488v9.42Zm0,17.2363v-9.5684h-70.5488v9.5684Zm-49.4433-57.4766-7.5215,5.2578a52.55834,52.55834,0,0,0-13.293-10.1504l7.5957-4.3828A37.5797,37.5797,0,0,1,1387.8487,406.0771Zm35.4218-34.8359a92.07384,92.07384,0,0,1-20.5234-14.9727,112.08019,112.08019,0,0,1-23.7344,14.9727Zm22.7129,42.0664V395.0498h-39.4375v18.2578Zm-8.8379-13.9492q-4.3095,6.86415-13,11.6855l-8.0332-4.0176q9.56835-5.40225,13.1446-10.8086Z" fill="#fff"/><path d="M732.6236,260.2529l-2.7901,3.2109q-12.5397-4.4091-23.8803-15.541l.0595,11.7305h14.0108v25.8008h-3.8101v-3.4492H691.9429v3.4492h-3.9312V259.6533h14.0708V247.9228q-6.1794,9.4512-22.3208,14.791l-2.8193-3.1796q14.3094-3.78225,20.4605-11.6114H680.3321v-3.75h21.7504v-5.789q-7.16955.7206-18,1.0488l-2.58-3.6289q25.59-.0909,40.8608-4.291l2.8799,2.8808a132.88817,132.88817,0,0,1-19.2305,3.5098v6.2695h22.0508v3.75l-17.1904-.0586A63.95037,63.95037,0,0,0,732.6236,260.2529Zm-16.4102,8.4316v-5.2812H691.8828v5.2812Zm0,9.629V272.374H691.8828v5.9395Z" fill="#fff"/><path d="M768.71439,263.0127q-3.78285,11.7333-9.9004,19.2324l3.5088,2.2207a57.21446,57.21446,0,0,0,10.0215-19.2305Zm-6.331-16.6485-2.5215,3.1504a22.18942,22.18942,0,0,1,9.4531,7.3184l2.6377-3.5684Q768.834,249.0928,762.38339,246.3642Zm2.9389-13.4394-2.8193,2.8789a18.11079,18.11079,0,0,1,9.0913,6.959l2.8189-3.0293A18.38635,18.38635,0,0,0,765.32229,232.9248Z" fill="#fff"/><path d="M804.53379,272.1357V260.8232a34.85683,34.85683,0,0,0,7.6816,5.5215l2.4605-3.332a25.75827,25.75827,0,0,1-12.2413-10.6192h10.2583v-3.6894h-9.8081v-7.1699h7.4092v-3.6915h-7.4092v-6.3281h-3.8115v6.3887h-11.1289v-6.3887h-3.812v6.3887H776.754v3.6894h7.4399v7.17h-9.7807v3.6914h9.9003q-3.32805,6.24015-12.0297,10.3789l2.8188,3.3301a37.67872,37.67872,0,0,0,4.7407-3.2383v16.0801q0,5.1591,5.1597,5.1601h19.6504a4.788,4.788,0,0,0,3.7944-1.5898q1.39755-1.5909,2.1768-6.2696l-3.8701-1.7402q-.3912,3.75-1.1397,4.7988a2.34832,2.34832,0,0,1-2.0097,1.0508h-18.3018a1.45787,1.45787,0,0,1-1.6484-1.6523v-6.627Zm-16.5894-30.6015h11.1899v7.1699h-11.1899Zm.3584,10.8593h10.2007a24.90027,24.90027,0,0,0,4.4399,6.8125h-19.0498A21.14105,21.14105,0,0,0,788.30279,252.3935Zm-4.6479,10.5h17.0698v5.6114h-17.0698Z" fill="#fff"/><path d="M896.30768,282.4541l-2.79,3.1191q-18.7515-10.22745-23.8208-34.4687-6.27165,24.62985-25.5601,34.4687l-3.0307-3.5683q19.1103-9.3018,24.2109-30.8418h-20.4009v-3.8692h20.8506a153.55611,153.55611,0,0,0,.4805-15.7812l4.1699.6015q.1494,9.1788-.3603,15.1192h22.7407v3.8711h-18.9302Q877.46638,271.6533,896.30768,282.4541Z" fill="#fff"/><path d="M977.93932,274.6533h-24.1508v4.1719q0,6.6885-7.1099,6.6894h-3.9902l-1.4698-3.6894h5.5801q2.93925,0,2.9399-2.7012v-4.4707h-26.3403v-3.75h26.3403v-2.5801a37.48482,37.48482,0,0,0,8.9703-4.3789h-22.9805v-3.4512h29.6401v3.2696a91.68761,91.68761,0,0,1-11.58,6.5117v.6289h24.1508Zm-2.5195-11.1289h-3.6001v-6.2109h-41.9116v6.5703h-3.9302V253.8037h5.1607V235.5029q4.259-.41895,9.3295-4.0488l1.98,2.7597a17.66938,17.66938,0,0,1-7.4399,3.8106v2.5195h7.6802v3.1192h-7.6802v3.2714h7.6802v3.0586h-7.6802v3.8106h31.8911v-3.8106H959.579v-3h7.3203v-3.5097H959.639v-3.0606h7.2603v-3.2695h-8.4902v-3.6289h12.2998v20.2187h4.7109Zm-17.0107-23.2813-2.1006,2.5801a32.0174,32.0174,0,0,0-4.6494-3.5703,35.74752,35.74752,0,0,1-5.4605,3.75l-2.46-2.1582a23.81652,23.81652,0,0,0,5.0997-2.8203,52.71688,52.71688,0,0,0-5.9097-1.9219l1.5303-2.7598a55.58871,55.58871,0,0,1,6.6899,2.1602,25.5055,25.5055,0,0,0,3.5698-4.1094l2.5205,2.0098a19.00875,19.00875,0,0,1-3.1201,3.6309A22.40571,22.40571,0,0,1,958.40912,240.2431Zm.3598,10.92-2.52,1.9804a27.7771,27.7771,0,0,0-5.04-3.0898,32.45338,32.45338,0,0,1-5.7603,3.0898l-2.2803-1.8008a29.60493,29.60493,0,0,0,5.5508-3.1796,30.59635,30.59635,0,0,0-5.1006-2.3399l2.2495-1.8906a37.52,37.52,0,0,1,5.2808,2.3105,25.64011,25.64011,0,0,0,3.3901-2.8789l2.7598,1.4102a15.07644,15.07644,0,0,1-3.4199,3.2695A22.2914,22.2914,0,0,1,958.76892,251.1631Z" fill="#fff"/><path d="M1060.68151,281.6435l-2.6406,3.5117q-15.26955-4.5-24.7793-12.121-8.19435,6.69135-25.7422,12.3613l-2.9394-3.5703q16.98045-4.711,25.6816-11.4317a40.86292,40.86292,0,0,1-11.7305-20.0703,33.08985,33.08985,0,0,1-4.4414,7.9199l-3.1777-2.9082a39.66678,39.66678,0,0,0,6.0879-9.8711h-10.3203v-3.6894h24.0625V231.5127h3.8691v10.2011h24.4805v3.6895H1048.83q-2.69835,15.6621-12.42,24.9297Q1045.26061,277.05375,1060.68151,281.6435Zm-15.8711-36.2402h-23.2187q2.3964,13.8897,11.7285,22.3516Q1042.44036,259.2646,1044.81041,245.4033Z" fill="#fff"/><path d="M1141.86319,274.6533h-24.1523v4.1719q0,6.6885-7.1094,6.6894h-3.9902l-1.4688-3.6894h5.5782q2.94135,0,2.9414-2.7012v-4.4707h-26.3399v-3.75h26.3399v-2.5801a37.45923,37.45923,0,0,0,8.9687-4.3789h-22.9805v-3.4512h29.6407v3.2696a91.69661,91.69661,0,0,1-11.5801,6.5117v.6289h24.1523Zm-2.5195-11.1289h-3.6016v-6.2109H1093.83v6.5703h-3.9297V253.8037h5.1602V235.5029q4.2597-.41895,9.332-4.0488l1.9785,2.7597a17.663,17.663,0,0,1-7.4414,3.8106v2.5195h7.6817v3.1192h-7.6817v3.2714h7.6817v3.0586h-7.6817v3.8106h31.8926v-3.8106h-7.3223v-3h7.3223v-3.5097h-7.2598v-3.0606h7.2598v-3.2695h-8.4902v-3.6289h12.2988v20.2187h4.7129Zm-17.0117-23.2813-2.1016,2.5801a31.96848,31.96848,0,0,0-4.6484-3.5703,35.817,35.817,0,0,1-5.461,3.75l-2.4589-2.1582a23.84235,23.84235,0,0,0,5.0996-2.8203,52.90509,52.90509,0,0,0-5.9102-1.9219l1.5313-2.7598a55.63906,55.63906,0,0,1,6.6894,2.1602,25.4246,25.4246,0,0,0,3.5684-4.1094l2.5215,2.0098a19.0919,19.0919,0,0,1-3.1192,3.6309A22.43119,22.43119,0,0,1,1122.332,240.2431Zm.3594,10.92-2.5196,1.9804a27.73314,27.73314,0,0,0-5.041-3.0898,32.42561,32.42561,0,0,1-5.7598,3.0898l-2.2812-1.8008a29.4945,29.4945,0,0,0,5.5508-3.1796,30.54375,30.54375,0,0,0-5.0996-2.3399l2.25-1.8906a37.55245,37.55245,0,0,1,5.2812,2.3105,25.50184,25.50184,0,0,0,3.3887-2.8789l2.7598,1.4102a15.073,15.073,0,0,1-3.418,3.2695A22.35418,22.35418,0,0,1,1122.69139,251.1631Z" fill="#fff"/><path d="M1181.38763,251.9131q6.0615,6.8115,6.0625,13.291a7.31035,7.31035,0,0,1-1.6367,5.0097,5.76448,5.76448,0,0,1-4.5742,1.8614,23.70855,23.70855,0,0,1-3.9004-.3907l-1.1094-3.9902a21.66761,21.66761,0,0,0,4.6191.8106,3.05261,3.05261,0,0,0,2.1309-.9004,3.13241,3.13241,0,0,0,.9609-2.4004,14.37274,14.37274,0,0,0-1.6503-5.7598,22.92815,22.92815,0,0,0-4.9512-6.6894l5.8515-15.0313h-8.9101v47.791h-3.9317V233.9131h16.8301v3.8105Zm41.3731,22.5918a20.73669,20.73669,0,0,1-2.1016,7.0488,4.622,4.622,0,0,1-4.2891,2.1914h-4.6797q-4.68165,0-4.6796-4.9199V262.9541h-6.3321q-.17865,9.6591-3.7636,14.4746-3.586,4.81635-13.3067,8.0859l-2.5195-3.4511q9.02925-2.66895,12.3906-6.9004,3.3603-4.2276,3.3906-12.1485h-8.2207V259.083h32.1328v3.8711h-10.0234v14.9414a2.29085,2.29085,0,0,0,.4805,1.3945,1.39876,1.39876,0,0,0,1.1406.6445h3.8105q1.169,0,1.7852-1.9199a30.59258,30.59258,0,0,0,1.0352-4.9804Zm-3.4512-27.211-3.8086.0606v-5.2813h-22.6211v5.2813h-3.8711v-9.0918h13.1699v-6.8086h3.9317v6.75h13.1992Zm-5.0391,5.7891h-20.2812v-3.9297h20.2812Z" fill="#fff"/><path d="M1305.788,274.6533h-24.1523v4.1719q0,6.6885-7.1094,6.6894h-3.9902l-1.4707-3.6894h5.5801q2.94135,0,2.9414-2.7012v-4.4707h-26.3418v-3.75h26.3418v-2.5801a37.45726,37.45726,0,0,0,8.9687-4.3789h-22.9804v-3.4512h29.6406v3.2696a91.69661,91.69661,0,0,1-11.5801,6.5117v.6289h24.1523Zm-2.5214-11.1289h-3.5997v-6.2109h-41.9101v6.5703h-3.9316V253.8037h5.1621V235.5029q4.25685-.41895,9.3281-4.0488l1.9805,2.7597a17.66828,17.66828,0,0,1-7.4395,3.8106v2.5195h7.6797v3.1192h-7.6797v3.2714h7.6797v3.0586h-7.6797v3.8106h31.8906v-3.8106h-7.3203v-3h7.3203v-3.5097h-7.2597v-3.0606h7.2597v-3.2695h-8.4902v-3.6289h12.2988v20.2187h4.711Zm-17.0098-23.2813-2.1016,2.5801a31.99451,31.99451,0,0,0-4.6504-3.5703,35.70135,35.70135,0,0,1-5.4589,3.75l-2.461-2.1582a23.76228,23.76228,0,0,0,5.1016-2.8203,52.77886,52.77886,0,0,0-5.9102-1.9219l1.5293-2.7598a55.41731,55.41731,0,0,1,6.6895,2.1602,25.55053,25.55053,0,0,0,3.5722-4.1094l2.5196,2.0098a19.0373,19.0373,0,0,1-3.1211,3.6309A22.38285,22.38285,0,0,1,1286.25682,240.2431Zm.3594,10.92-2.5196,1.9804a27.8522,27.8522,0,0,0-5.039-3.0898,32.464,32.464,0,0,1-5.7617,3.0898l-2.2793-1.8008a29.62355,29.62355,0,0,0,5.5507-3.1796,30.65123,30.65123,0,0,0-5.1015-2.3399l2.25-1.8906a37.42307,37.42307,0,0,1,5.2793,2.3105,25.61129,25.61129,0,0,0,3.3906-2.8789l2.7598,1.4102a15.0789,15.0789,0,0,1-3.42,3.2695A22.2713,22.2713,0,0,1,1286.61622,251.1631Z" fill="#fff"/><path d="M1387.94336,282.5146h-54.5996v-3.8691h25.4394V264.5732h-18.33v-3.8691h18.33V248.4638h-13.5898a31.92813,31.92813,0,0,1-8.2207,11.7891l-3.959-2.0703a33.14172,33.14172,0,0,0,10.9492-22.2598l4.0508,1.1699a44.98521,44.98521,0,0,1-1.4121,7.5606h12.123V231.5127h4.0489v13.08h21.1797v3.8711h-21.1797v12.1797h18.0605v3.8692h-18.0605v14.0722h25.1699Z" fill="#fff"/><path d="M1470.5205,245.3427l-2.1582,3.1211q-10.23045-2.5194-16.0215-5.8203v2.6992h-20.2812V242.374a60.81513,60.81513,0,0,1-15.7188,5.9102l-1.9804-3.1504q16.8603-4.11045,28.0801-13.7403l3.6894,1.2305a5.12593,5.12593,0,0,1-1.0488,1.0488Q1455.03915,241.95505,1470.5205,245.3427Zm-6.3886,17.1915h-43.5606V248.4638h43.5606Zm-3.5703,23.039h-3.6915v-2.3984h-28.9804v2.3984h-3.6895V265.6845h36.3614Zm-20.0118-26.2793v-7.5h-16.289v7.5Zm16.3203,13.5606v-3.8711h-28.9804v3.8711Zm0,7.08v-3.9296h-28.9804v3.9296Zm-20.3105-23.6113-3.0898,2.1602a21.60219,21.60219,0,0,0-5.459-4.1699l3.1191-1.7989A15.41036,15.41036,0,0,1,1436.5596,256.3232Zm14.5508-14.3086a37.78874,37.78874,0,0,1-8.4297-6.1523,46.15624,46.15624,0,0,1-9.75,6.1523Zm9.3301,17.2793v-7.5h-16.1993v7.5Zm-3.6289-5.7304a14.3004,14.3004,0,0,1-5.3418,4.8007l-3.2989-1.6504a15.5895,15.5895,0,0,0,5.4004-4.4394Z" fill="#fff"/></g></svg>