<svg xmlns="http://www.w3.org/2000/svg" xmlns:xlink="http://www.w3.org/1999/xlink" viewBox="0 0 1612.2549 708.6592"><defs><clipPath id="a"><rect x="-0.001" width="1612.2559" height="708.6592" fill="none"/></clipPath></defs><g clip-path="url(#a)"><path d="M155.4151,341.4917a13.67506,13.67506,0,0,1,13.6767,13.6748c-.001-.2793-.0107-.5576-.0107-.8369a185.24513,185.24513,0,0,1,185.248-185.2478,13.67555,13.67555,0,0,0,0-27.3511A212.44353,212.44353,0,0,0,141.7305,354.3296c0,.2793.0078.5576.0098.8369A13.67523,13.67523,0,0,1,155.4151,341.4917Z" fill="#ee212e"/><path d="M340.6533,553.2524a13.67525,13.67525,0,0,1,13.6758-13.6748c-102.0312,0-184.7861-82.4863-185.2373-184.4111a13.67575,13.67575,0,0,0-27.3515,0A212.42763,212.42763,0,0,0,354.3291,566.9277,13.67561,13.67561,0,0,1,340.6533,553.2524Z" fill="#46bc96"/><path d="M502.5264,487.4023a13.67423,13.67423,0,0,0-19.3408,0,184.62572,184.62572,0,0,1-128.8565,52.1753,13.67505,13.67505,0,1,0,0,27.3501,211.88656,211.88656,0,0,0,148.1973-60.184A13.67316,13.67316,0,0,0,502.5264,487.4023Z" fill="#00c2f3"/><path d="M466.9121,241.7466a159.22125,159.22125,0,1,0,46.6309,112.583A158.16993,158.16993,0,0,0,466.9121,241.7466Z" fill="#00c2f3"/><path d="M242.1211,405.8188V302.8413h22.334v7.6133H251.5098v87.7519h12.9453v7.6123Z" fill="#333e48"/><path d="M466.5371,302.8413V405.8188H444.208v-7.6123h12.9395V310.4546H444.208v-7.6133Z" fill="#333e48"/><path d="M293.9903,375.2485q0,3.08505.0957,7.2715.09375,4.18515.2587,8.4961.15975,4.31325.3868,8.2407.2211,3.9258.5459,6.562H282.084v-72.729q0-9.39615-.3223-17.0214-.3192-7.63185-.9658-13.2271h13.1944Z" fill="#fff"/><path d="M351.5957,340.1699v8.4326H339.4942v48.7871h12.1015v8.4307h-36.041v-8.4307H327.461V348.6025H315.55471v-8.4326Z" fill="#fff"/><path d="M378.6289,340.1699a22.38281,22.38281,0,0,1,.7705,2.6734c.2608,1.0922.4922,2.2392.71,3.4419q.31635,1.8003.5801,3.5405l.5117,2.893q6.18165-7.3344,12.4219-10.5854a27.82568,27.82568,0,0,1,13.0019-3.25,22.85461,22.85461,0,0,1,9.1074,1.7041,16.04451,16.04451,0,0,1,6.6622,5.4063,26.485,26.485,0,0,1,4.0878,9.5908,62.94024,62.94024,0,0,1,1.3829,14.1943v28.959a72.02378,72.02378,0,0,1-1.9004,18.0547,30.94635,30.94635,0,0,1-5.3086,11.4614,18.65574,18.65574,0,0,1-8.2071,6.0454,30.53709,30.53709,0,0,1-10.6513,1.7715,22.985,22.985,0,0,1-6.211-.9336,23.5052,23.5052,0,0,1-6.0175-2.6074l4.1836-9.6538a12.9118,12.9118,0,0,0,3.9589,1.8349,17.62877,17.62877,0,0,0,5.0489.7388,14.571,14.571,0,0,0,5.54-.9966,9.22007,9.22007,0,0,0,4.1484-3.5073,19.15339,19.15339,0,0,0,2.6084-6.8862,56.81139,56.81139,0,0,0,.9004-11.1348V374.6035a78.39754,78.39754,0,0,0-.8047-12.5176,21.575,21.575,0,0,0-2.415-7.4663,8.00241,8.00241,0,0,0-4.0244-3.5737,16.11335,16.11335,0,0,0-5.6289-.9004,15.09659,15.09659,0,0,0-6.7871,1.6445,25.035,25.035,0,0,0-6.0869,4.2456,31.528,31.528,0,0,0-4.8887,5.8897,27.061,27.061,0,0,0-3.1572,6.5644v37.3306H370.2608V366.2368a100.45805,100.45805,0,0,0-1.0967-16.123,81.95952,81.95952,0,0,0-2.1231-9.9439Z" fill="#fff"/><path d="M731.93459,379.6313h-54.9922v-9.1289h54.9922Zm-7.1563,97.2066H715.357V466.832H693.374v10.0059h-9.56681V427.4673h40.9711Zm-.4384-78.3638-40.3868.1455v-9.1279h40.3868Zm.146,19.1343h-40.5328v-9.1299h40.5328Zm-1.8257-56.5264-37.1001.1455v-9.1279h37.1001ZM715.357,457.8481V436.4512H693.22849v21.3969Zm94.35689-40.0937-78.9473.146V408.918h19.5723l4.2363-22.5664h-18.2578v-8.9839h19.7188l3.1406-16.7241h-27.9717v-9.129h72.5205v8.9834h-34.6904L766.041,377.2227h30.08889l-3.1406,31.5478h16.7246Zm-12.707,59.3755H787.585V467.27H750.63189v9.8599h-9.5684V427.6138h55.9434ZM787.585,458.2861V436.5962H750.48539v21.6899Zm-1.461-72.081H764.43459l-4.2363,22.7129h23.6621Z" fill="#333e48"/><path d="M974.38578,379.6313H841.61429v-9.1289H974.38578Zm-19.5723,18.6963H859.87209v-8.8359h94.94139Zm0,18.9888H859.87209v-8.8379h94.94139Zm-3.4316,59.8135H941.96V466.832H873.45609v10.2979h-9.4209V427.4673h87.34669Zm-.1465-116.9971-86.47069.2188v-8.837h86.47069ZM941.96,457.8481V436.4512H873.45609v21.3969Z" fill="#333e48"/><path d="M1139.05958,450.6924h-58.791v10.1509q0,16.2846-17.31058,16.2866h-9.71292l-3.57808-8.9834h13.584q7.15722,0,7.15818-6.5728V450.6924h-64.123v-9.1299h64.123v-6.2808q15.26073-5.696,21.8359-10.6621h-55.9433v-8.3999H1108.46v7.9619a223.66194,223.66194,0,0,1-28.19142,15.8472v1.5337h58.791Zm-6.1348-27.0962h-8.7656V408.4785h-102.0234v15.9951h-9.5684V399.9355H1025.128V355.3848q10.36812-1.0218,22.71478-9.8584l4.8203,6.7187q-6.6504,6.1341-18.1133,9.2749v6.1348h18.6953v7.5957h-18.6953v7.9599h18.6953v7.4488h-18.6953v9.2763h77.6328v-9.2763h-17.8203v-7.3037h17.8203v-8.544h-17.6738v-7.4487h17.6738v-7.9605h-20.6679v-8.8374H1121.458v49.2242h11.46678Zm-41.4101-56.6714-5.1114,6.2803a77.91409,77.91409,0,0,0-11.32028-8.6905,87.43784,87.43784,0,0,1-13.29292,9.129l-5.9883-5.2588a57.94686,57.94686,0,0,0,12.416-6.8648,127.4784,127.4784,0,0,0-14.3887-4.6733l3.7266-6.7202a134.8226,134.8226,0,0,1,16.2851,5.2583,62.19619,62.19619,0,0,0,8.6915-10.0054l6.13472,4.8935a46.30508,46.30508,0,0,1-7.59572,8.8375A54.4989,54.4989,0,0,1,1091.51468,366.9248Zm.875,26.5825-6.1328,4.8203a67.63971,67.63971,0,0,0-12.2696-7.521q-3.94335,2.99415-14.0215,7.521l-5.5507-4.3818q9.41895-4.45245,13.5117-7.7407a74.22234,74.22234,0,0,0-12.416-5.6978l5.4765-4.5996a91.31084,91.31084,0,0,1,12.8535,5.6221q2.0421-1.1661,8.252-7.0112l6.7187,3.4331a36.593,36.593,0,0,1-8.3242,7.9614A54.30027,54.30027,0,0,1,1092.38968,393.5073Z" fill="#333e48"/><path d="M1303.585,450.6924h-58.791v10.1509q0,16.2846-17.30862,16.2866h-9.7129l-3.5781-8.9834h13.5839q7.1544,0,7.1563-6.5728V450.6924h-64.1211v-9.1299h64.1211v-6.2808q15.2637-5.696,21.8379-10.6621h-55.9434v-8.3999h72.1563v7.9619a223.519,223.519,0,0,1-28.19138,15.8472v1.5337h58.791Zm-6.13282-27.0962h-8.7676V408.4785h-102.0234v15.9951h-9.5664V399.9355h12.5605V355.3848q10.37115-1.0218,22.7129-9.8584l4.8203,6.7187q-6.64455,6.1341-18.1133,9.2749v6.1348h18.6973v7.5957h-18.6973v7.9599h18.6973v7.4488h-18.6973v9.2763H1276.708v-9.2763h-17.81832v-7.3037H1276.708v-8.544h-17.67382v-7.4487H1276.708v-7.9605h-20.66792v-8.8374h29.9433v49.2242h11.4688Zm-38.8106-31.7271-6.6543,6.084c-3.0371-4.5635-7.3828-10.2763-11.5859-13.8247q-9.7998,10.91895-16.1055,13.8931l-6.584-5.5283q7.424-3.53175,16.1075-13.2032-9.876-6.15225-14.0762-7.6059l5.7441-5.9404q3.501,1.38345,13.166,7.1899a41.80979,41.80979,0,0,0,4.4805-10.3023h-21.9902v-8.6381h11.789v-8.897h7.56642v8.897h13.99218v8.6381h-2.7695a54.97156,54.97156,0,0,1-6.2754,14.8628C1250.53618,381.3643,1255.42088,387.2612,1258.64158,391.8691Z" fill="#333e48"/><path d="M1470.5205,379.3408l-5.2578,7.5947q-24.90525-6.13545-38.998-14.1679v6.5732h-49.3711v-7.2319q-21.3252,11.0295-38.2696,14.3882l-4.8183-7.668q41.042-10.00485,68.3574-33.4497l8.9824,2.9946a12.41506,12.41506,0,0,1-2.5566,2.5552Q1432.83505,371.087,1470.5205,379.3408Zm-15.5566,41.8457h-106.041v-34.251h106.041Zm-8.6895,56.0884h-8.9824v-5.8428h-70.5488v5.8428h-8.9824V428.8545h88.5136Zm-48.7129-63.9756V395.042h-39.6562v18.2573Zm39.7305,33.0108v-9.4205h-70.5488v9.4205Zm0,17.2358v-9.5684h-70.5488v9.5684Zm-49.4433-57.4771-7.5215,5.2588a52.5233,52.5233,0,0,0-13.293-10.1508l7.5957-4.3824A37.57849,37.57849,0,0,1,1387.8487,406.0688Zm35.4218-34.8344a92.124,92.124,0,0,1-20.5234-14.9732,112.16445,112.16445,0,0,1-23.7344,14.9732Zm22.7129,42.0649V395.042h-39.4375v18.2573Zm-8.8379-13.9492q-4.3095,6.86565-13,11.6855l-8.0332-4.017q9.56835-5.40315,13.1446-10.8086Z" fill="#333e48"/><path d="M732.624,260.2456l-2.79051,3.2109q-12.5397-4.4106-23.8804-15.5405l.0601,11.7295h14.0103v25.8003h-3.8101v-3.4487h-24.2705v3.4487h-3.9307V259.6455h14.0703V247.916q-6.1794,9.449-22.3203,14.7905l-2.8198-3.1801q14.30941-3.78075,20.4605-11.6104h-17.0708v-3.75h21.7504v-5.79q-7.16955.71925-18,1.0493l-2.58-3.6299q25.59-.09075,40.8608-4.2895l2.8799,2.8808a132.9,132.9,0,0,1-19.23,3.5088v6.2705h22.0503v3.75l-17.1904-.0605A63.93683,63.93683,0,0,0,732.624,260.2456Zm-16.41061,8.4312v-5.2813h-24.3306v5.2813Zm0,9.6298v-5.9394h-24.3306v5.9394Z" fill="#333e48"/><path d="M768.71486,263.0059q-3.78375,11.7318-9.9004,19.2309l3.50781,2.2212a57.17532,57.17532,0,0,0,10.02149-19.2305Zm-6.332-16.6504-2.5215,3.1513a22.179,22.179,0,0,1,9.4531,7.3189l2.6387-3.5689Q768.833,249.085,762.38286,246.3555Zm2.93941-13.439-2.81931,2.8799a18.10467,18.10467,0,0,1,9.0908,6.959l2.8194-3.0298A18.393,18.393,0,0,0,765.32227,232.9165Z" fill="#333e48"/><path d="M804.53327,272.127V260.8149a34.91071,34.91071,0,0,0,7.68159,5.523l2.4609-3.332a25.76839,25.76839,0,0,1-12.2412-10.6192h10.2588v-3.6899h-9.8086v-7.1704h7.4092v-3.6919h-7.4092v-6.3272h-3.81149v6.3882H787.94436v-6.3882h-3.8115v6.3882H776.754v3.689h7.4394v7.1699h-9.7802v3.6924h9.9003q-3.328,6.238-12.03019,10.3784l2.81929,3.331a37.65744,37.65744,0,0,0,4.7412-3.2397V278.998q0,5.15775,5.1592,5.1592h19.6504a4.78888,4.78888,0,0,0,3.79391-1.5888q1.39753-1.59165,2.17779-6.2696l-3.8711-1.7412q-.3897,3.75-1.13869,4.7979a2.34832,2.34832,0,0,1-2.00981,1.0517h-18.3027a1.45772,1.45772,0,0,1-1.6484-1.6518V272.127Zm-16.58891-30.6006h11.1904v7.1704h-11.1904Zm.3584,10.8603H798.504a24.86283,24.86283,0,0,0,4.4394,6.8111h-19.0498A21.14828,21.14828,0,0,0,788.30276,252.3867Zm-4.6484,10.5h17.0703v5.6104h-17.0703Z" fill="#333e48"/><path d="M896.30808,282.4468l-2.79,3.1196q-18.7515-10.2297-23.8203-34.4702-6.2724,24.6321-25.5606,34.4702l-3.0312-3.5693q19.1103-9.301,24.2109-30.8409h-20.4004v-3.8706h20.8506a153.51843,153.51843,0,0,0,.4805-15.7797l4.1699.5996q.1494,9.18015-.3603,15.1206h22.74021v3.8701H873.86768Q877.46678,271.6465,896.30808,282.4468Z" fill="#333e48"/><path d="M977.93945,274.6455h-24.1503v4.1714q0,6.68925-7.1094,6.6904h-3.9903l-1.4707-3.6904h5.58011q2.94,0,2.94039-2.6997v-4.4717h-26.3408v-3.75h26.3408v-2.5791a37.42242,37.42242,0,0,0,8.9698-4.3809h-22.9805v-3.4501h29.6406v3.27a91.56912,91.56912,0,0,1-11.58,6.5107v.6294h24.1503ZM975.42,263.5161h-3.5996v-6.2095h-41.9121v6.5694h-3.9297V253.7964h5.1602V235.4956q4.2597-.4182,9.33-4.0498l1.9805,2.7603a17.651,17.651,0,0,1-7.44039,3.81v2.5195h7.68059v3.1206h-7.68059v3.2706h7.68059v3.0586h-7.68059v3.811h31.89159v-3.811h-7.3203v-3h7.3203v-3.5093h-7.2608V240.416h7.2608v-3.2705h-8.4903v-3.6294h12.2989v20.2202H975.42Zm-17.0098-23.2798-2.1015,2.5786a31.93731,31.93731,0,0,0-4.6485-3.5693,36.018,36.018,0,0,1-5.4609,3.75l-2.46-2.1592a23.81652,23.81652,0,0,0,5.0997-2.8203,52.65613,52.65613,0,0,0-5.9092-1.9209l1.5293-2.7602a55.3468,55.3468,0,0,1,6.6904,2.1606,25.5062,25.5062,0,0,0,3.5693-4.1103l2.5215,2.0102a19.01374,19.01374,0,0,1-3.1211,3.6309A22.34165,22.34165,0,0,1,958.41015,240.2363Zm.3594,10.9199-2.5195,1.9795a27.7735,27.7735,0,0,0-5.041-3.0898,32.45882,32.45882,0,0,1-5.7598,3.0898l-2.2803-1.8007a29.65077,29.65077,0,0,0,5.5508-3.1788,30.459,30.459,0,0,0-5.1006-2.3398l2.25-1.8911a37.47675,37.47675,0,0,1,5.2803,2.311,25.57724,25.57724,0,0,0,3.3897-2.8808l2.75971,1.4106a15.03126,15.03126,0,0,1-3.41991,3.2695A22.2492,22.2492,0,0,1,958.76955,251.1562Z" fill="#333e48"/><path d="M1060.68161,281.6357l-2.6406,3.5108q-15.26955-4.5-24.7793-12.1201-8.19435,6.6906-25.74218,12.3608l-2.93942-3.5703q16.98045-4.70955,25.6816-11.4302a40.86512,40.86512,0,0,1-11.7305-20.0703,33.11861,33.11861,0,0,1-4.4414,7.9199l-3.1777-2.9092a39.668,39.668,0,0,0,6.0879-9.871h-10.3203v-3.69h24.0625V231.5059h3.8691v10.2002h24.4805v3.6894h-10.2617q-2.69835,15.66135-12.42,24.9302Q1045.26074,277.04705,1060.68161,281.6357Zm-15.87108-36.2402h-23.21872q2.3964,13.89105,11.7285,22.3511Q1042.44046,259.2563,1044.81053,245.3955Z" fill="#333e48"/><path d="M1141.86328,274.6455H1117.711v4.1714q0,6.68925-7.1094,6.6904h-3.9902l-1.4688-3.6904h5.57812q2.9415,0,2.94148-2.6997v-4.4717h-26.3399v-3.75h26.3399v-2.5791a37.4299,37.4299,0,0,0,8.9687-4.3809h-22.9805v-3.4501h29.6407v3.27a91.5781,91.5781,0,0,1-11.5801,6.5107v.6294h24.1523Zm-2.5195-11.1294h-3.6016v-6.2095h-41.9121v6.5694h-3.9297V253.7964h5.1602V235.4956q4.2597-.4182,9.332-4.0498l1.9785,2.7603a17.63646,17.63646,0,0,1-7.44138,3.81v2.5195h7.68168v3.1206h-7.68168v3.2706h7.68168v3.0586h-7.68168v3.811h31.89258v-3.811H1123.5v-3h7.3223v-3.5093h-7.2598V240.416h7.2598v-3.2705h-8.4902v-3.6294h12.2988v20.2202h4.7129Zm-17.0117-23.2798-2.1016,2.5786a31.93574,31.93574,0,0,0-4.6484-3.5693,36.018,36.018,0,0,1-5.461,3.75l-2.4589-2.1592a23.84235,23.84235,0,0,0,5.0996-2.8203,52.77857,52.77857,0,0,0-5.9102-1.9209l1.5313-2.7602a55.44666,55.44666,0,0,1,6.6894,2.1606,25.4548,25.4548,0,0,0,3.56842-4.1103l2.52148,2.0102a19.10415,19.10415,0,0,1-3.1192,3.6309A22.396,22.396,0,0,1,1122.33208,240.2363Zm.3594,10.9199-2.5196,1.9795a27.70524,27.70524,0,0,0-5.041-3.0898,32.45882,32.45882,0,0,1-5.7598,3.0898l-2.2812-1.8007a29.55771,29.55771,0,0,0,5.55082-3.1788,30.40793,30.40793,0,0,0-5.09962-2.3398l2.25-1.8911a37.49167,37.49167,0,0,1,5.2812,2.311,25.45969,25.45969,0,0,0,3.3887-2.8808l2.75972,1.4106a15.02567,15.02567,0,0,1-3.41792,3.2695A22.33246,22.33246,0,0,1,1122.69148,251.1562Z" fill="#333e48"/><path d="M1181.3877,251.9058q6.0615,6.81,6.0625,13.2905a7.30826,7.30826,0,0,1-1.63668,5.0098,5.76287,5.76287,0,0,1-4.57422,1.8608,23.85978,23.85978,0,0,1-3.9004-.3897l-1.10938-3.9917a21.62123,21.62123,0,0,0,4.61908.8116,3.05112,3.05112,0,0,0,2.13092-.9009,3.12988,3.12988,0,0,0,.96088-2.3999,14.38375,14.38375,0,0,0-1.6504-5.7608,22.93029,22.93029,0,0,0-4.9511-6.6889l5.8515-15.0313h-8.9101v47.792h-3.9317V233.9058h16.8301v3.8095Zm41.3731,22.5913a20.7462,20.7462,0,0,1-2.1016,7.0493,4.62231,4.62231,0,0,1-4.2891,2.1904h-4.6797q-4.68165,0-4.6796-4.9199V262.9468h-6.3321q-.17865,9.65985-3.7637,14.4751-3.5859,4.8141-13.3066,8.0854l-2.5195-3.4511q9.02925-2.66895,12.39062-6.9,3.36027-4.2297,3.39058-12.1494h-8.2207v-3.9311h32.1328v3.8711h-10.0234v14.9404a2.28744,2.28744,0,0,0,.4805,1.3945,1.39694,1.39694,0,0,0,1.1406.6451h3.8105q1.169,0,1.7852-1.92a30.602,30.602,0,0,0,1.0352-4.9804Zm-3.4512-27.2115-3.8086.0611v-5.2818h-22.6211v5.2818h-3.8711v-9.0913h13.1699v-6.8096h3.9317v6.7505h13.1992Zm-5.03908,5.7901H1193.9893v-3.9302h20.28122Z" fill="#333e48"/><path d="M1305.78808,274.6455h-24.1523v4.1714q0,6.68925-7.1094,6.6904h-3.9902l-1.4707-3.6904h5.5801q2.94135,0,2.9414-2.6997v-4.4717h-26.34183v-3.75H1277.587v-2.5791a37.42794,37.42794,0,0,0,8.9687-4.3809h-22.98053v-3.4501h29.64073v3.27a91.5781,91.5781,0,0,1-11.5801,6.5107v.6294h24.1523Zm-2.5214-11.1294h-3.5997v-6.2095h-41.91013v6.5694h-3.9317V253.7964h5.1622V235.4956q4.2567-.4182,9.32813-4.0498l1.9805,2.7603a17.64176,17.64176,0,0,1-7.43953,3.81v2.5195h7.67973v3.1206h-7.67973v3.2706h7.67973v3.0586h-7.67973v3.811h31.89063v-3.811h-7.3203v-3h7.3203v-3.5093h-7.2597V240.416h7.2597v-3.2705h-8.4902v-3.6294h12.2988v20.2202h4.711Zm-17.0098-23.2798-2.1016,2.5786a31.96173,31.96173,0,0,0-4.6504-3.5693,35.90219,35.90219,0,0,1-5.4589,3.75l-2.461-2.1592a23.76228,23.76228,0,0,0,5.1016-2.8203,52.65432,52.65432,0,0,0-5.9102-1.9209l1.5293-2.7602a55.22642,55.22642,0,0,1,6.6895,2.1606,25.58083,25.58083,0,0,0,3.5722-4.1103l2.5196,2.0102a19.04948,19.04948,0,0,1-3.1211,3.6309A22.34781,22.34781,0,0,1,1286.25688,240.2363Zm.3594,10.9199-2.5196,1.9795a27.824,27.824,0,0,0-5.039-3.0898,32.49729,32.49729,0,0,1-5.7617,3.0898l-2.2793-1.8007a29.68632,29.68632,0,0,0,5.5507-3.1788,30.5134,30.5134,0,0,0-5.1015-2.3398l2.25-1.8911a37.36267,37.36267,0,0,1,5.2793,2.311,25.56876,25.56876,0,0,0,3.3906-2.8808l2.7598,1.4106a15.03346,15.03346,0,0,1-3.42,3.2695A22.24974,22.24974,0,0,1,1286.61628,251.1562Z" fill="#333e48"/><path d="M1387.94338,282.5068h-54.5996v-3.8696h25.4394V264.5664h-18.33v-3.8701h18.33V248.4561h-13.5898a31.93828,31.93828,0,0,1-8.2207,11.7895l-3.959-2.0703a33.14478,33.14478,0,0,0,10.9492-22.2593l4.0508,1.1699a45.00442,45.00442,0,0,1-1.4121,7.5596h12.123V231.5059h4.0489v13.08h21.1797v3.8702h-21.1797v12.1796h18.0605v3.8702h-18.0605v14.0712h25.1699Z" fill="#333e48"/><path d="M1470.5205,245.335l-2.1582,3.1211q-10.23045-2.51955-16.0215-5.8204v2.6993h-20.2812v-2.9693a60.7964,60.7964,0,0,1-15.7188,5.9107l-1.9804-3.1504q16.8603-4.11105,28.0801-13.7407l3.6894,1.2304a5.14065,5.14065,0,0,1-1.0488,1.0503Q1455.03915,241.94525,1470.5205,245.335Zm-6.3886,17.1919h-43.5606V248.4561h43.5606Zm-3.5704,23.0395h-3.6914v-2.3999h-28.9804v2.3999h-3.6895V265.6768h36.3613Zm-20.0117-26.2808v-7.5h-16.289v7.5Zm16.3203,13.5611v-3.8706h-28.9804v3.8706Zm0,7.0801v-3.9297h-28.9804v3.9297Zm-20.3105-23.6104-3.0898,2.1597a21.60213,21.60213,0,0,0-5.459-4.1695l3.1191-1.7998A15.40773,15.40773,0,0,1,1436.5596,256.3164Zm14.5508-14.3096a37.836,37.836,0,0,1-8.4297-6.1523,46.1001,46.1001,0,0,1-9.75,6.1523Zm9.3301,17.2788v-7.5h-16.1993v7.5Zm-3.629-5.7294a14.30562,14.30562,0,0,1-5.3417,4.7993l-3.2989-1.649a15.57936,15.57936,0,0,0,5.4004-4.4404Z" fill="#333e48"/></g></svg>