<svg xmlns="http://www.w3.org/2000/svg" xmlns:xlink="http://www.w3.org/1999/xlink" viewBox="0 0 1612.2588 708.67291"><defs><clipPath id="a"><rect y="0.001" width="1612.2588" height="708.67191" fill="none"/></clipPath></defs><g clip-path="url(#a)"><path d="M158.4414,271.57332a210.687,210.687,0,0,0-16.1699,67.4257,20.762,20.762,0,0,1,27.3535.9571C176.9629,244.36433,256.8496,169.085,354.3262,169.085a13.6758,13.6758,0,0,0,0-27.3516A212.80448,212.80448,0,0,0,158.4414,271.57332Z" fill="#a39b4b"/><path d="M339.1855,538.9698c-94.955-7.68168-169.6718-86.96288-170.1015-183.79688a13.6758,13.6758,0,0,0-27.3516,0A212.4393,212.4393,0,0,0,338.0996,566.333a20.75379,20.75379,0,0,1,1.0859-27.36322Z" fill="#a39b4b"/><path d="M502.5273,487.41312a13.67676,13.67676,0,0,0-19.3418,0,184.63134,184.63134,0,0,1-128.8593,52.1758,13.6758,13.6758,0,0,0,0,27.3516A211.90052,211.90052,0,0,0,502.5273,506.753,13.66952,13.66952,0,0,0,502.5273,487.41312Z" fill="#a39b4b"/><path d="M354.3301,141.7295A212.427,212.427,0,0,0,142.2695,338.999a20.75264,20.75264,0,0,1,27.3506.961,185.26146,185.26146,0,0,1,184.71-170.87012,13.6802,13.6802,0,0,0,0-27.3604ZM339.1894,538.9698c-94.9589-7.68068-169.6796-86.96-170.1093-183.79988a13.6748,13.6748,0,0,0-27.3496,0,212.43427,212.43427,0,0,0,196.3691,211.1592,20.73742,20.73742,0,0,1,1.0898-27.35932Zm163.3399-51.56058a13.68849,13.68849,0,0,0-19.3399,0,184.661,184.661,0,0,1-128.8593,52.1807,13.6748,13.6748,0,1,0,0,27.3496A211.90585,211.90585,0,0,0,502.5293,506.749,13.67483,13.67483,0,0,0,502.5293,487.40922Z" fill="#a39b4b"/><path d="M466.9101,241.749A159.23077,159.23077,0,1,0,513.54,354.33992,158.17016,158.17016,0,0,0,466.9101,241.749ZM264.4502,310.46H251.5v87.75h12.9502v7.6191H242.1201V302.84962h22.3301Zm17.6299,95.3691v-72.7295q0-9.40575-.3203-17.0302-.3297-7.62015-.9698-13.2198h13.2002V375.2598c0,2.04982.0293,4.47952.0899,7.26952q.09075,4.18515.2597,8.4903.1656,4.3197.3907,8.25.2241,3.91545.539,6.5595Zm69.5097-57.2197H339.4902v48.79h12.0996v8.4297h-36.04v-8.4297H327.46v-48.79H315.5498v-8.4297h36.04Zm76.2803,50.1396A71.72251,71.72251,0,0,1,425.96,416.7998a30.84014,30.84014,0,0,1-5.2999,11.46,18.74507,18.74507,0,0,1-8.2099,6.04982,30.59415,30.59415,0,0,1-10.6504,1.7695,23.04543,23.04543,0,0,1-6.21-.9297,23.514,23.514,0,0,1-6.0195-2.6103l4.1797-9.6592a12.84656,12.84656,0,0,0,3.96,1.83988,17.67527,17.67527,0,0,0,5.0498.74022,14.473,14.473,0,0,0,5.54-1,9.223,9.223,0,0,0,4.1504-3.5,19.18334,19.18334,0,0,0,2.6103-6.8906,56.90693,56.90693,0,0,0,.8995-11.1397v-28.3203a78.14087,78.14087,0,0,0-.8096-12.5195,21.52568,21.52568,0,0,0-2.4102-7.46,8.06109,8.06109,0,0,0-4.0302-3.58012,16.0106,16.0106,0,0,0-5.6299-.90038,15.04946,15.04946,0,0,0-6.7803,1.65038,25.05827,25.05827,0,0,0-6.0898,4.23932,32.10156,32.10156,0,0,0-4.8897,5.8906,27.3709,27.3709,0,0,0-3.1602,6.5693v37.3301H370.2598V366.249a100.5285,100.5285,0,0,0-1.0997-16.1298,81.27853,81.27853,0,0,0-2.1201-9.9395h11.5899a23.72252,23.72252,0,0,1,.7705,2.6699c.2597,1.0899.4902,2.2403.709,3.4395.2109,1.2002.4004,2.3906.58,3.54l.5108,2.9004q6.18015-7.3344,12.4199-10.5898a27.797,27.797,0,0,1,13-3.25,22.78506,22.78506,0,0,1,9.1104,1.7099,16.058,16.058,0,0,1,6.6601,5.3994,26.44713,26.44713,0,0,1,4.0899,9.5909,63.07335,63.07335,0,0,1,1.3896,14.1992Zm38.6699,7.0801H444.21V398.21h12.9404V310.46H444.21v-7.6104h22.33Z" fill="#a39b4b"/><path d="M731.9355,379.63332H676.9424v-9.1289h54.9931Zm-7.1572,97.2061h-9.4209v-10.0059H693.374v10.0059h-9.5674v-49.3701h40.9717Zm-.4385-78.3633-40.3867.1455v-9.1279h40.3867Zm.1465,19.1338H683.9531V408.481h40.5332Zm-1.8262-56.5264-37.0996.1465v-9.1289h37.0996Zm-7.3027,96.7666v-21.3974H693.2285v21.3974Zm94.3574-40.0937-78.9482.1455v-8.9824h19.5723l4.2363-22.5664H736.3174v-8.9834h19.7187l3.1397-16.7247H731.2051v-9.1289h72.5205v8.9834H769.0351l-2.9941,16.7246h30.0899l-3.1407,31.5489h16.7246Zm-12.7089,59.375h-9.42V467.272h-36.955v9.8594h-9.5665v-49.5157h55.9415Zm-9.42-18.8428v-21.6904H750.4853v21.6904Zm-1.4609-72.082H764.4336l-4.2344,22.7129h23.6621Z" fill="#a39b4b"/><path d="M974.3857,379.63332H841.6152v-9.1289H974.3857Zm-19.5722,18.6963H859.8711v-8.8359h94.9424Zm0,18.9883H859.8711V408.481h94.9424Zm-3.4326,59.8135h-9.42v-10.2979H873.456v10.2979h-9.4209v-49.6621h87.3458Zm-.1456-116.9971-86.4697.2188v-8.837h86.4697Zm-9.2744,97.7158v-21.3974H873.456v21.3974Z" fill="#a39b4b"/><path d="M1139.0596,450.69392h-58.7911v10.1513q0,16.28475-17.3105,16.2862h-9.7129l-3.5781-8.9824h13.584q7.15725,0,7.1582-6.5733v-10.8818h-64.1231V441.565h64.1231v-6.2813q15.2607-5.6967,21.8359-10.6621h-55.9434v-8.3994H1108.46v7.9609a223.64967,223.64967,0,0,1-28.1915,15.84768V441.565h58.7911Zm-6.1348-27.0957h-8.7656V408.481H1022.1357v15.9941h-9.5693V399.937h12.5615v-44.5507q10.36815-1.02105,22.7149-9.8584l4.8203,6.7187q-6.6504,6.13485-18.1133,9.2754v6.13478h18.6953v7.59572h-18.6953v7.9599h18.6953v7.4483h-18.6953v9.2763h77.6328v-9.2763h-17.8203v-7.3028h17.8203V374.814h-17.6738V367.3648h17.6738v-7.961h-20.668v-8.83688h29.9434v49.2237h11.4668Zm-41.4102-56.6719-5.1113,6.2803a77.95386,77.95386,0,0,0-11.3203-8.6905,87.359,87.359,0,0,1-13.293,9.1289l-5.9883-5.2587a57.90355,57.90355,0,0,0,12.4161-6.8643,127.38167,127.38167,0,0,0-14.3887-4.6738l3.7266-6.7198a134.909,134.909,0,0,1,16.2851,5.2579,62.19778,62.19778,0,0,0,8.6914-10.0049l6.1348,4.8935a46.2985,46.2985,0,0,1-7.5957,8.83688A54.54494,54.54494,0,0,1,1091.5146,366.92632Zm.875,26.583-6.1328,4.8203a67.61052,67.61052,0,0,0-12.2695-7.5215q-3.94335,2.99415-14.0215,7.5215l-5.5508-4.38182q9.419-4.45317,13.5117-7.74118a74.208,74.208,0,0,0-12.416-5.6973l5.4766-4.5996a91.20339,91.20339,0,0,1,12.8535,5.62208q2.042-1.16607,8.252-7.01078l6.7187,3.4326a36.60009,36.60009,0,0,1-8.3242,7.961A54.31878,54.31878,0,0,1,1092.3896,393.50932Z" fill="#a39b4b"/><path d="M1303.585,450.69392h-58.7911v10.1513q0,16.28475-17.3086,16.2862h-9.7128l-3.5782-8.9824h13.584q7.15425,0,7.1563-6.5733v-10.8818h-64.1211V441.565h64.1211v-6.2813q15.26355-5.6967,21.8379-10.6621h-55.9434v-8.3994h72.1562v7.9609a223.50562,223.50562,0,0,1-28.1914,15.84768V441.565h58.7911Zm-6.1329-27.0957h-8.7675V408.481H1186.6611v15.9941h-9.5664V399.937h12.5606v-44.5507q10.371-1.02105,22.7129-9.8584l4.8203,6.7187q-6.64455,6.13485-18.1133,9.2754v6.13478h18.6973v7.59572h-18.6973v7.9599h18.6973v7.4483h-18.6973v9.2763h77.6328v-9.2763h-17.8184v-7.3028h17.8184V374.814h-17.6738V367.3648h17.6738v-7.961H1256.04v-8.83688h29.9434v49.2237h11.4687Zm-38.8105-31.7276-6.6543,6.084c-3.0371-4.5635-7.3828-10.2764-11.5859-13.8242q-9.7998,10.91895-16.1055,13.8936l-6.584-5.5293q7.4238-3.53175,16.1074-13.2032-9.876-6.1509-14.0761-7.6054l5.7441-5.9405q3.501,1.38285,13.166,7.1895a41.81985,41.81985,0,0,0,4.4805-10.3018h-21.9903v-8.6386h11.7891v-8.8965h7.5664v8.8965h13.9922v8.6386h-2.7695a54.99609,54.99609,0,0,1-6.2754,14.8633C1250.5361,381.36572,1255.4209,387.26322,1258.6416,391.87062Z" fill="#a39b4b"/><path d="M1470.5205,379.34232l-5.2578,7.5947q-24.90525-6.1347-38.9981-14.1679v6.5732h-49.3711v-7.2314q-21.3252,11.02875-38.2695,14.3877l-4.8183-7.668q41.042-10.00485,68.3574-33.4492l8.9824,2.9941a12.42288,12.42288,0,0,1-2.5566,2.5557Q1432.8349,371.089,1470.5205,379.34232Zm-15.5566,41.8467H1348.9228V386.937h106.0411Zm-8.6895,56.0879h-8.9824v-5.8428h-70.5488v5.8428h-8.9825V428.857h88.5137Zm-48.7129-63.9756v-18.2578h-39.6562v18.2578Zm39.7305,33.0107v-9.4209h-70.5488v9.4209Zm0,17.2354V453.98h-70.5488v9.5674Zm-49.4434-57.47662-7.5215,5.25882a52.53886,52.53886,0,0,0-13.2929-10.1514l7.5957-4.3818A37.57677,37.57677,0,0,1,1387.8486,406.0708Zm35.4219-34.83488a92.10538,92.10538,0,0,1-20.5234-14.9727,112.1227,112.1227,0,0,1-23.7344,14.9727Zm22.7129,42.0654v-18.2578h-39.4375v18.2578Zm-8.8379-13.9492q-4.3095,6.86565-13,11.6855l-8.0332-4.0166q9.56835-5.40375,13.1445-10.8095Z" fill="#a39b4b"/><path d="M732.623,260.24762l-2.789,3.2109q-12.5406-4.4106-23.8809-15.541l.0606,11.73049h14.0097V285.4478h-3.8105v-3.44918H691.9434v3.44918h-3.9317V259.648H702.082V247.91753q-6.17865,9.44968-22.3203,14.791l-2.8193-3.1806q14.31-3.78075,20.4599-11.61039H680.332v-3.75h21.75v-5.79q-7.169.7206-18,1.0498l-2.5801-3.6299q25.5909-.0909,40.8614-4.29l2.8799,2.8808a132.9146,132.9146,0,0,1-19.2295,3.5098v6.26953h22.0498v3.75l-17.1905-.0596A63.95893,63.95893,0,0,0,732.623,260.24762Zm-16.4101,8.4306V263.398H691.8828v5.2802Zm0,9.6299v-5.9394H691.8828v5.9394Z" fill="#a39b4b"/><path d="M768.71392,263.00742q-3.78225,11.7318-9.9004,19.23138l3.5098,2.22072a57.22646,57.22646,0,0,0,10.0215-19.2305Zm-6.3301-16.64949-2.5215,3.1504a22.19411,22.19411,0,0,1,9.4532,7.31939l2.6367-3.5694Q768.83507,249.08653,762.38382,246.35793Zm2.9385-13.43943-2.8193,2.8799a18.10854,18.10854,0,0,1,9.0918,6.959l2.8183-3.03033A18.39188,18.39188,0,0,0,765.32232,232.9185Z" fill="#a39b4b"/><path d="M804.53422,272.12942v-11.3125a34.78857,34.78857,0,0,0,7.6817,5.5225l2.4599-3.332a25.75919,25.75919,0,0,1-12.2412-10.6192h10.2578V248.6988h-9.8076v-7.1709h7.4092v-3.6914h-7.4092v-6.3272h-3.8115v6.3887h-11.1289v-6.3887h-3.8125v6.3887h-7.378v3.6885h7.4405v7.16993h-9.7813v3.69237h9.9004q-3.328,6.23868-12.0293,10.37792l2.8184,3.331a37.63015,37.63015,0,0,0,4.7402-3.2392v16.081q0,5.15925,5.1602,5.1592h19.6504a4.79236,4.79236,0,0,0,3.7949-1.5888q1.3974-1.5909,2.1758-6.2696l-3.8692-1.7412q-.39255,3.75-1.1406,4.7988a2.34715,2.34715,0,0,1-2.0098,1.0508h-18.3008a1.457,1.457,0,0,1-1.6484-1.6513v-6.628Zm-16.5898-30.60152h11.1894v7.1709h-11.1894Zm.3584,10.86032H798.503a24.90665,24.90665,0,0,0,4.4404,6.8115h-19.0498A21.15187,21.15187,0,0,0,788.30282,252.38822Zm-4.6475,10.5h17.0693v5.6104h-17.0693Z" fill="#a39b4b"/><path d="M896.30723,282.4488l-2.79,3.11912q-18.7515-10.22895-23.8213-34.46969-6.26955,24.63133-25.5596,34.46969l-3.0303-3.5693q19.11045-9.3003,24.211-30.84089h-20.4014v-3.8701h20.8506a153.53527,153.53527,0,0,0,.4805-15.78023l4.1699.6005q.1494,9.1788-.3604,15.12023h22.7412v3.8701h-18.9306Q877.46593,271.64852,896.30723,282.4488Z" fill="#a39b4b"/><path d="M977.9391,274.648H953.7877v4.1709q0,6.6885-7.1103,6.6904h-3.9903l-1.4687-3.6904h5.5801q2.93835,0,2.9394-2.7002V274.648H923.3981v-3.75h26.3398v-2.5801a37.51365,37.51365,0,0,0,8.9707-4.3799H935.7281V260.4878h29.6397v3.26962a91.58344,91.58344,0,0,1-11.5801,6.5107v.6299h24.1514Zm-2.5195-11.1299H971.819v-6.21H929.9078v6.5694h-3.9297v-10.0791h5.1602V235.4976q4.25835-.419,9.3291-4.0498l1.9795,2.7597a17.63941,17.63941,0,0,1-7.4395,3.8106v2.5195h7.6797v3.12013h-7.6797v3.2705h7.6797v3.05957h-7.6797v3.81062h31.8907V249.9878h-7.3203v-3h7.3203v-3.50967h-7.2598V240.4175h7.2598V237.148h-8.4903v-3.6299h12.3008v20.2197h4.711ZM958.4078,240.2378l-2.0996,2.57913a31.97941,31.97941,0,0,0-4.6504-3.56933,35.80556,35.80556,0,0,1-5.4599,3.75l-2.46-2.15923a23.81327,23.81327,0,0,0,5.0996-2.8203,52.39829,52.39829,0,0,0-5.9101-1.9209l1.5312-2.7598a55.46265,55.46265,0,0,1,6.6895,2.1602,25.58742,25.58742,0,0,0,3.5703-4.1104l2.5195,2.0108a19.04914,19.04914,0,0,1-3.1191,3.6299A22.43406,22.43406,0,0,1,958.4078,240.2378Zm.3604,10.91993-2.5205,1.98049a27.75991,27.75991,0,0,0-5.0391-3.09079,32.46652,32.46652,0,0,1-5.7607,3.09079l-2.2803-1.80079a29.67736,29.67736,0,0,0,5.5508-3.1797,30.44276,30.44276,0,0,0-5.1006-2.3398l2.249-1.8906a37.50617,37.50617,0,0,1,5.2813,2.31047,25.63078,25.63078,0,0,0,3.3906-2.87987l2.7598,1.4102a15.05723,15.05723,0,0,1-3.42,3.2695A22.3215,22.3215,0,0,1,958.7682,251.15773Z" fill="#a39b4b"/><path d="M1060.68137,281.63822l-2.6406,3.5108q-15.26955-4.5-24.7793-12.1211-8.19435,6.69132-25.7422,12.3613l-2.9395-3.5703q16.98045-4.70955,25.6817-11.4307a40.86227,40.86227,0,0,1-11.7305-20.07029,33.11246,33.11246,0,0,1-4.4414,7.91987l-3.1777-2.90918a39.65155,39.65155,0,0,0,6.0879-9.87109h-10.3204v-3.6894h24.0625V231.5074h3.8692v10.2001h24.4804V245.398h-10.2617q-2.6982,15.66059-12.4199,24.92969Q1045.26047,277.04832,1060.68137,281.63822Zm-15.8711-36.24019h-23.2188q2.39655,13.88954,11.7286,22.35059Q1042.44007,259.25832,1044.81027,245.398Z" fill="#a39b4b"/><path d="M1141.863,274.648h-24.1524v4.1709q0,6.6885-7.1093,6.6904h-3.9903l-1.4687-3.6904h5.5781q2.9415,0,2.9414-2.7002V274.648H1087.322v-3.75h26.3398v-2.5801a37.45519,37.45519,0,0,0,8.9688-4.3799h-22.9805V260.4878h29.6406v3.26962a91.57637,91.57637,0,0,1-11.5801,6.5107v.6299h24.1524Zm-2.5195-11.1299h-3.6016v-6.21h-41.9121v6.5694h-3.9297v-10.0791h5.1602V235.4976q4.2597-.419,9.332-4.0498l1.9785,2.7597a17.64267,17.64267,0,0,1-7.4414,3.8106v2.5195h7.6816v3.12013h-7.6816v3.2705h7.6816v3.05957h-7.6816v3.81062h31.8926V249.9878h-7.3223v-3h7.3223v-3.50967h-7.2598V240.4175h7.2598V237.148h-8.4903v-3.6299h12.2989v20.2197h4.7129Zm-17.0118-23.28032-2.1015,2.57913a31.9,31.9,0,0,0-4.6485-3.56933,35.96512,35.96512,0,0,1-5.4609,3.75l-2.459-2.15923a23.8375,23.8375,0,0,0,5.0996-2.8203,52.66077,52.66077,0,0,0-5.9101-1.9209l1.5312-2.7598a55.46265,55.46265,0,0,1,6.6895,2.1602,25.46637,25.46637,0,0,0,3.5683-4.1104l2.5215,2.0108a19.12109,19.12109,0,0,1-3.1191,3.6299A22.43406,22.43406,0,0,1,1122.33173,240.2378Zm.3594,10.91993-2.5195,1.98049a27.743,27.743,0,0,0-5.041-3.09079,32.41281,32.41281,0,0,1-5.7598,3.09079l-2.2812-1.80079a29.54477,29.54477,0,0,0,5.5507-3.1797,30.3868,30.3868,0,0,0-5.0996-2.3398l2.25-1.8906a37.55776,37.55776,0,0,1,5.2813,2.31047,25.46253,25.46253,0,0,0,3.3886-2.87987l2.7598,1.4102a15.04727,15.04727,0,0,1-3.418,3.2695A22.36072,22.36072,0,0,1,1122.69113,251.15773Z" fill="#a39b4b"/><path d="M1181.38755,251.90773q6.0615,6.8101,6.0625,13.29007a7.30737,7.30737,0,0,1-1.6367,5.00972,5.76138,5.76138,0,0,1-4.5743,1.8614,23.80646,23.80646,0,0,1-3.9004-.3897l-1.1093-3.9912a21.66761,21.66761,0,0,0,4.6191.8106,3.05288,3.05288,0,0,0,2.1309-.9004,3.131,3.131,0,0,0,.9609-2.40042,14.381,14.381,0,0,0-1.6504-5.75978,22.92455,22.92455,0,0,0-4.9512-6.6894l5.8516-15.03132h-8.9102v47.792h-3.9316V233.9077h16.8301v3.8096Zm41.373,22.59089a20.74641,20.74641,0,0,1-2.1015,7.0498,4.62336,4.62336,0,0,1-4.2891,2.19038h-4.6797q-4.68165,0-4.6797-4.91988V262.9488h-6.332q-.1788,9.65913-3.7637,14.47462-3.5859,4.81485-13.3066,8.0859l-2.5196-3.4512q9.0294-2.669,12.3907-6.9004,3.3603-4.22895,3.3906-12.1494h-8.2207v-3.9306h32.1328v3.87108h-10.0234v14.94042a2.28861,2.28861,0,0,0,.4804,1.3945,1.3964,1.3964,0,0,0,1.1407.6445h3.8105q1.16895,0,1.7852-1.9199a30.58318,30.58318,0,0,0,1.0351-4.9804Zm-3.4512-27.211-3.8085.0606v-5.2813h-22.6211v5.2813h-3.8711V238.2574h13.1699v-6.8096h3.9316v6.75h13.1992Zm-5.039,5.79009H1193.989V249.148h20.2813Z" fill="#a39b4b"/><path d="M1305.788,274.648h-24.1523v4.1709q0,6.6885-7.1094,6.6904h-3.9902l-1.4708-3.6904h5.5801q2.9415,0,2.9414-2.7002V274.648H1251.245v-3.75h26.3418v-2.5801a37.45322,37.45322,0,0,0,8.9688-4.3799h-22.9805V260.4878h29.6406v3.26962a91.58153,91.58153,0,0,1-11.58,6.5107v.6299h24.1523Zm-2.5215-11.1299h-3.5996v-6.21h-41.9101v6.5694h-3.9317v-10.0791h5.1621V235.4976q4.25685-.419,9.3281-4.0498l1.9805,2.7597a17.64564,17.64564,0,0,1-7.4394,3.8106v2.5195h7.6797v3.12013h-7.6797v3.2705h7.6797v3.05957h-7.6797v3.81062h31.8906V249.9878h-7.3203v-3h7.3203v-3.50967h-7.2598V240.4175h7.2598V237.148h-8.4902v-3.6299h12.2988v20.2197h4.7109Zm-17.0097-23.28032-2.1016,2.57913a31.92984,31.92984,0,0,0-4.6504-3.56933,35.84574,35.84574,0,0,1-5.459,3.75l-2.4609-2.15923a23.759,23.759,0,0,0,5.1015-2.8203,52.52919,52.52919,0,0,0-5.9101-1.9209l1.5293-2.7598a55.23386,55.23386,0,0,1,6.6894,2.1602,25.59438,25.59438,0,0,0,3.5723-4.1104l2.5195,2.0108a19.05985,19.05985,0,0,1-3.1211,3.6299A22.38681,22.38681,0,0,1,1286.25677,240.2378Zm.3593,10.91993-2.5195,1.98049a27.85949,27.85949,0,0,0-5.0391-3.09079,32.44747,32.44747,0,0,1-5.7617,3.09079l-2.2793-1.80079a29.67736,29.67736,0,0,0,5.5508-3.1797,30.49888,30.49888,0,0,0-5.1016-2.3398l2.25-1.8906a37.41643,37.41643,0,0,1,5.2793,2.31047,25.55478,25.55478,0,0,0,3.3907-2.87987l2.7597,1.4102a15.05478,15.05478,0,0,1-3.4199,3.2695A22.27958,22.27958,0,0,1,1286.61607,251.15773Z" fill="#a39b4b"/><path d="M1387.94328,282.50832h-54.5997v-3.8691h25.4395v-14.0713H1340.453V260.6978h18.3301V248.45753h-13.5898a31.93256,31.93256,0,0,1-8.2207,11.79009l-3.959-2.0703a33.146,33.146,0,0,0,10.9492-22.25982l4.0508,1.1699a45.01424,45.01424,0,0,1-1.4121,7.56063h12.123V231.5074h4.0488v13.08h21.1797v3.8701h-21.1797v12.18069h18.0606v3.8692h-18.0606v14.0712h25.17Z" fill="#a39b4b"/><path d="M1470.5205,245.33743l-2.1582,3.1201q-10.23045-2.5194-16.0215-5.8193v2.6992h-20.2812v-2.9697a60.77978,60.77978,0,0,1-15.7188,5.9102l-1.9805-3.1504q16.86045-4.11045,28.0801-13.74033l3.6895,1.2305a5.13325,5.13325,0,0,1-1.0489,1.0498Q1455.03905,241.94825,1470.5205,245.33743Zm-6.3887,17.19137h-43.5605V248.45753h43.5605Zm-3.5703,23.03912h-3.6914v-2.3994h-28.9805v2.3994h-3.6894v-19.8897h36.3613Zm-20.0117-26.2803v-7.5h-16.2891v7.5Zm16.3203,13.5606v-3.8701h-28.9805v3.8701Zm0,7.08v-3.9296h-28.9805v3.9296Zm-20.3105-23.6103-3.0899,2.1602a21.60279,21.60279,0,0,0-5.459-4.17l3.1192-1.7998A15.41156,15.41156,0,0,1,1436.5596,256.31792Zm14.5507-14.30959a37.81745,37.81745,0,0,1-8.4296-6.15133,46.11793,46.11793,0,0,1-9.75,6.15133Zm9.3301,17.27929v-7.5h-16.1992v7.5Zm-3.6289-5.7295a14.30454,14.30454,0,0,1-5.3418,4.7998l-3.2988-1.6494a15.58032,15.58032,0,0,0,5.4004-4.4404Z" fill="#a39b4b"/></g></svg>