<svg xmlns="http://www.w3.org/2000/svg" xmlns:xlink="http://www.w3.org/1999/xlink" viewBox="0 0 2893.97951 708.0527"><defs><clipPath id="a"><rect x="0.0009" width="2893.97861" height="708.0527" fill="none"/></clipPath></defs><g clip-path="url(#a)"><text transform="translate(1559.28903 573.78023)" font-size="59.99992" fill="#fff" font-family="FiraSans-Bold, Fira Sans" font-weight="700">Se<tspan x="67.55859" y="0" letter-spacing="-0.00698em">s</tspan><tspan x="95.93945" y="0">sion 2020–2021</tspan></text><text transform="translate(214.90134 584.52926)" font-size="60" fill="#fff" font-family="SourceHanSansHC-Medium-B5pc-H, Source Han Sans HC"><tspan letter-spacing="0.1007em">二零二零至二零二一年</tspan><tspan x="660.41895" y="0">度</tspan></text><path d="M1093.708,271.5703a210.68585,210.68585,0,0,0-16.1699,67.4228,20.76651,20.76651,0,0,1,27.3535.958c7.3379-95.5908,87.2226-170.8681,184.6953-170.8681a13.6753,13.6753,0,1,0,0-27.3506A212.8039,212.8039,0,0,0,1093.708,271.5703Z" fill="#fff"/><path d="M1274.44821,538.9599c-94.9531-7.6826-169.668-86.9619-170.0976-183.791a13.6758,13.6758,0,1,0-27.3516,0,212.43038,212.43038,0,0,0,196.3633,211.1523,20.75124,20.75124,0,0,1,1.0859-27.3613Z" fill="#fff"/><path d="M1437.78411,487.4033a13.67652,13.67652,0,0,0-19.3398,0,184.62736,184.62736,0,0,1-128.8574,52.1767,13.6748,13.6748,0,1,0,0,27.3496,211.90461,211.90461,0,0,0,148.1972-60.1845A13.67182,13.67182,0,0,0,1437.78411,487.4033Z" fill="#fff"/><path d="M1289.58691,566.9296a13.6748,13.6748,0,1,1,0-27.3496,184.62736,184.62736,0,0,0,128.8574-52.1767,13.676,13.676,0,1,1,19.3398,19.3418,211.90461,211.90461,0,0,1-148.1972,60.1845Zm-82.7637-16.7187a212.413,212.413,0,0,1-129.8242-195.042,13.6758,13.6758,0,1,1,27.3516,0c.4296,96.8291,75.1445,176.1084,170.0976,183.791a20.75124,20.75124,0,0,0-1.0859,27.3613A210.73445,210.73445,0,0,1,1206.82321,550.2109Zm82.7637-408.4785a13.6753,13.6753,0,1,1,0,27.3506c-97.4727,0-177.3574,75.2773-184.6953,170.8681a20.76651,20.76651,0,0,0-27.3535-.958,212.43353,212.43353,0,0,1,212.0488-197.2607Z" fill="#fff"/><path d="M1402.17091,241.748a159.2227,159.2227,0,1,0,46.6308,112.584A158.168,158.168,0,0,0,1402.17091,241.748Z" fill="#fff"/><path d="M1177.37981,405.8203V302.8437h22.3321v7.6133h-12.9434v87.751h12.9434v7.6123Z" fill="#333e48"/><path d="M1401.79591,302.8437V405.8203h-22.3282V398.208h12.9375V310.457h-12.9375v-7.6133Z" fill="#333e48"/><path d="M1229.249,375.25q0,3.0879.0957,7.2714.09375,4.18515.2598,8.4981.1581,4.3095.3867,8.2373.21975,3.9273.5449,6.5635h-13.1934V333.0908q0-9.39555-.3222-17.0205-.31935-7.63035-.9668-13.2266h13.1953Z" fill="#00c2f3"/><path d="M1286.85451,340.1718v8.4336h-12.0997v48.7842h12.0997v8.4316h-36.0411v-8.4316h11.9063V348.6054h-11.9063v-8.4336Z" fill="#00c2f3"/><path d="M1313.88771,340.1718a22.85532,22.85532,0,0,1,.7714,2.6739c.2598,1.0927.4922,2.2392.709,3.4404q.3165,1.8018.5801,3.541l.5117,2.8936q6.18165-7.33455,12.4219-10.585a27.81906,27.81906,0,0,1,13.002-3.252,22.83077,22.83077,0,0,1,9.1074,1.7061,16.05983,16.05983,0,0,1,6.6621,5.4063,26.4634,26.4634,0,0,1,4.0879,9.5918,62.919,62.919,0,0,1,1.3828,14.1933v28.958a72.02323,72.02323,0,0,1-1.9004,18.0547,30.94707,30.94707,0,0,1-5.3086,11.4609,18.64108,18.64108,0,0,1-8.2051,6.0459,30.53087,30.53087,0,0,1-10.6523,1.7715,23.01294,23.01294,0,0,1-6.211-.9336,23.4859,23.4859,0,0,1-6.0175-2.6064l4.1836-9.6543a12.87756,12.87756,0,0,0,3.9589,1.8359,17.62209,17.62209,0,0,0,5.0489.7373,14.55582,14.55582,0,0,0,5.539-.9961,9.2343,9.2343,0,0,0,4.1504-3.5068,19.21088,19.21088,0,0,0,2.6074-6.8877,56.86286,56.86286,0,0,0,.9004-11.1348V374.6064a78.40178,78.40178,0,0,0-.8046-12.5185,21.559,21.559,0,0,0-2.4161-7.4659,8.00393,8.00393,0,0,0-4.0234-3.5742,16.11653,16.11653,0,0,0-5.6289-.8994,15.12407,15.12407,0,0,0-6.7891,1.6436,25.031,25.031,0,0,0-6.0859,4.246,31.56965,31.56965,0,0,0-4.8887,5.8877,27.04811,27.04811,0,0,0-3.1562,6.5645v37.331h-11.9063v-39.583a100.45737,100.45737,0,0,0-1.0957-16.122,81.61005,81.61005,0,0,0-2.123-9.9444Z" fill="#00c2f3"/><path d="M196.7304,379.6269H141.73731V370.498H196.7304Zm-7.1572,97.2051h-9.42089V466.8261H158.1689V476.832h-9.5674V427.4629h40.9717Zm-.4385-78.3633-40.3867.1465v-9.1289h40.3867Zm.1465,19.1348H148.748v-9.1289h40.5332Zm-1.8262-56.5274-37.0996.1465v-9.1289H187.455Zm-7.30269,96.7676V436.4453H158.0234v21.3984ZM274.50879,417.75l-78.94729.1445v-8.9824h19.57229l4.2363-22.5664H201.11231v-8.9825H220.831l3.1397-16.7246H196v-9.1289h72.52049v8.9824H233.83l-2.9941,16.7247h30.0898l-3.1406,31.5488h16.7237Zm-12.7081,59.375h-9.4199v-9.8594h-36.9551v9.8594h-9.56638V427.6093h55.94138Zm-9.4199-18.8438V436.5918h-37.1006v21.6894Zm-1.4609-72.082h-21.6914l-4.2344,22.7129h23.6621Z" fill="#fff"/><path d="M439.18059,379.6269H306.40909V370.498h132.7715Zm-19.5722,18.6953H324.665v-8.8359h94.9434Zm0,18.9883H324.665v-8.8359h94.9434Zm-3.4336,59.8145h-9.42V466.8261h-68.5039V477.125h-9.4218V427.4629h87.3457Zm-.1446-116.9981-86.4707.2188v-8.836h86.4707Zm-9.2754,97.7168V436.4453h-68.5039v21.3984Z" fill="#fff"/><path d="M603.85348,450.6875h-58.791v10.1504q0,16.2861-17.3106,16.2871H518.039l-3.5781-8.9825h13.584q7.15725,0,7.1582-6.5742V450.6875H471.08v-9.1289h64.1231v-6.2813q15.2607-5.6982,21.8359-10.6621h-55.9433v-8.4004h72.1582v7.9609a223.53241,223.53241,0,0,1-28.1914,15.8477v1.5352h58.791Zm-6.1348-27.0957h-8.76559V408.4746H486.92969v15.9941h-9.56938V399.9296h12.56148V355.3789q10.36815-1.01955,22.7149-9.8575l4.8203,6.7188q-6.6504,6.1347-18.1133,9.2754v6.1348H518.039v7.5957h-18.6953v7.9589H518.039v7.4493h-18.6953v9.2753h77.6328v-9.2753h-17.8203v-7.3028h17.8203v-8.5449h-17.6738v-7.4492h17.6738v-7.961h-20.6679v-8.8359h29.9433v49.2227h11.46679Zm-41.41009-56.6719-5.1114,6.2793a77.95776,77.95776,0,0,0-11.3203-8.6895,87.4333,87.4333,0,0,1-13.293,9.1289l-5.9882-5.2597a57.85964,57.85964,0,0,0,12.416-6.8633,127.00482,127.00482,0,0,0-14.3887-4.6738l3.7266-6.7207a134.89057,134.89057,0,0,1,16.2851,5.2578,62.2306,62.2306,0,0,0,8.6914-10.0039l6.1348,4.8925a46.30291,46.30291,0,0,1-7.5957,8.8379A54.46212,54.46212,0,0,1,556.30859,366.9199Zm.875,26.582-6.1329,4.8203a67.661,67.661,0,0,0-12.2695-7.5215q-3.94332,2.99415-14.0215,7.5215l-5.5508-4.3808q9.419-4.4532,13.5118-7.7422a74.3014,74.3014,0,0,0-12.416-5.6973l5.4765-4.5996a91.184,91.184,0,0,1,12.8535,5.6231q2.0421-1.1661,8.252-7.0118l6.7187,3.4336a36.64285,36.64285,0,0,1-8.3242,7.961A54.27889,54.27889,0,0,1,557.18359,393.5019Z" fill="#fff"/><path d="M768.37791,450.6875h-58.791v10.1504q0,16.2861-17.3086,16.2871h-9.71293l-3.57807-8.9825h13.584q7.1542,0,7.15617-6.5742V450.6875h-64.1211v-9.1289h64.1211v-6.2813q15.26374-5.6982,21.83793-10.6621H665.622v-8.4004h72.15633v7.9609a223.39042,223.39042,0,0,1-28.1914,15.8477v1.5352h58.791Zm-6.1328-27.0957h-8.7676V408.4746H651.45408v15.9941h-9.5664V399.9296h12.5605V355.3789q10.3712-1.01955,22.7129-9.8575l4.8203,6.7188q-6.64455,6.1347-18.1133,9.2754v6.1348h18.6973v7.5957h-18.6973v7.9589h18.6973v7.4493h-18.6973v9.2753h77.63283v-9.2753h-17.8183v-7.3028h17.8183v-8.5449h-17.6738v-7.4492h17.6738v-7.961H720.833v-8.8359h29.9433v49.2227h11.4688Zm-38.8106-31.7286-6.6543,6.084c-3.0371-4.5625-7.3828-10.2754-11.5859-13.8242q-9.79985,10.919-16.10553,13.8945l-6.584-5.5293q7.42395-3.5331,16.10753-13.2031-9.876-6.15225-14.07623-7.6055l5.7441-5.9414q3.501,1.38285,13.16613,7.1895a41.81246,41.81246,0,0,0,4.48037-10.3008h-21.9902v-8.6387h11.7891v-8.8964h7.5664v8.8964h13.99213v8.6387h-2.7695a55.02326,55.02326,0,0,1-6.2754,14.8633C715.32911,381.3593,720.21381,387.2558,723.43451,391.8632Z" fill="#fff"/><path d="M935.31341,379.3359l-5.2578,7.5937q-24.90525-6.1347-38.998-14.1679v6.5742h-49.3711v-7.2324q-21.3252,11.03025-38.2695,14.3886l-4.8184-7.6679q41.042-10.00485,68.3574-33.4492l8.9824,2.9941a12.41022,12.41022,0,0,1-2.5566,2.5547Q897.628,371.0829,935.31341,379.3359Zm-15.5566,41.8457h-106.041v-34.252h106.041Zm-8.6895,56.0879h-8.9824v-5.8418h-70.5488v5.8418h-8.9824V428.8496h88.5136Zm-48.7128-63.9746V395.0371h-39.6563v18.2578Zm39.7304,33.0097v-9.4199h-70.5488v9.4199Zm0,17.2364v-9.5684h-70.5488v9.5684Zm-49.4433-57.4766-7.5215,5.2578a52.556,52.556,0,0,0-13.293-10.1504l7.5957-4.3828A37.5797,37.5797,0,0,1,852.64161,406.0644Zm35.4218-34.8359A92.07384,92.07384,0,0,1,867.54,356.2558a112.08019,112.08019,0,0,1-23.7344,14.9727Zm22.7129,42.0664V395.0371h-39.4375v18.2578Zm-8.8379-13.9492q-4.3095,6.86415-13,11.6855l-8.0332-4.0176q9.56835-5.40225,13.1446-10.8086Z" fill="#fff"/><path d="M197.4179,260.2402l-2.789,3.2109q-12.5406-4.4091-23.8809-15.541l.0606,11.7305h14.00971v25.8008H181.0078v-3.4493H156.7382v3.4493h-3.9316V259.6406h14.0703V247.9101q-6.17865,9.4512-22.3203,14.791l-2.81929-3.1797q14.31-3.7821,20.45989-11.6113H145.1269v-3.75h21.75v-5.789q-7.169.7206-18,1.0488l-2.5801-3.6289q25.5909-.0909,40.8614-4.291l2.8799,2.8808a132.901,132.901,0,0,1-19.2295,3.5098v6.2695h22.0498v3.75l-17.1905-.0586A63.95493,63.95493,0,0,0,197.4179,260.2402Zm-16.4101,8.4316v-5.2812H156.6777v5.2812Zm0,9.6289v-5.9394H156.6777v5.9394Z" fill="#fff"/><path d="M233.5086,263q-3.78225,11.7333-9.9004,19.2324l3.5098,2.2207a57.24509,57.24509,0,0,0,10.0215-19.2305Zm-6.3301-16.6485-2.5215,3.1504a22.19215,22.19215,0,0,1,9.4532,7.3184l2.6367-3.5684Q233.62975,249.0801,227.1785,246.3515Zm2.9385-13.4394-2.8193,2.8789a18.1136,18.1136,0,0,1,9.0918,6.959l2.8183-3.0293A18.38608,18.38608,0,0,0,230.117,232.9121Z" fill="#fff"/><path d="M269.3289,272.123V260.8105a34.81851,34.81851,0,0,0,7.6816,5.5215l2.46-3.332a25.7539,25.7539,0,0,1-12.2412-10.6192h10.2578v-3.6894h-9.8076v-7.17h7.4092V237.83h-7.4092v-6.3281H263.868v6.3887H252.7391v-6.3887h-3.8125v6.3887h-7.378V241.58h7.4405v7.17h-9.7813v3.6914h9.9004q-3.32805,6.24015-12.0293,10.3789l2.8184,3.3301a37.63619,37.63619,0,0,0,4.7402-3.2383v16.08q0,5.15925,5.1602,5.1602H269.448a4.78993,4.78993,0,0,0,3.795-1.5898q1.3974-1.5909,2.1758-6.2696l-3.8692-1.7402q-.39255,3.75-1.1406,4.7988a2.34715,2.34715,0,0,1-2.0098,1.0508H250.09842A1.45772,1.45772,0,0,1,248.45,278.75v-6.627Zm-16.5898-30.6016h11.1894v7.17H252.7391Zm.3584,10.8594h10.2002a24.92585,24.92585,0,0,0,4.4404,6.8125H248.6883A21.1441,21.1441,0,0,0,253.0975,252.3808Zm-4.6475,10.5h17.0693v5.6113H248.45Z" fill="#fff"/><path d="M361.10165,282.4414l-2.789,3.1191q-18.753-10.2276-23.82228-34.4687-6.26958,24.62985-25.55862,34.4687l-3.0312-3.5684q19.1103-9.30165,24.2109-30.8417h-20.4004v-3.8692h20.8496a153.5572,153.5572,0,0,0,.4805-15.7812l4.1699.6015q.1494,9.1788-.3594,15.1192H357.592v3.8711h-18.9297Q342.25985,271.6406,361.10165,282.4414Z" fill="#fff"/><path d="M442.73335,274.6406H418.583v4.1719q0,6.68835-7.1113,6.6894h-3.9902l-1.4688-3.6894h5.5801q2.9385,0,2.93942-2.7012v-4.4707H388.19235v-3.75h26.33982v-2.5801a37.51661,37.51661,0,0,0,8.97068-4.3789h-22.9804v-3.4512h29.6406V263.75a91.83144,91.83144,0,0,1-11.5801,6.5117v.6289h24.1504Zm-2.5195-11.1289h-3.5996v-6.211H394.70217v6.5704h-3.92972V253.791h5.1601V235.4902q4.25985-.41895,9.3301-4.0488l1.97852,2.7597a17.6553,17.6553,0,0,1-7.43942,3.8106v2.5195h7.6797v3.1192h-7.6797v3.2714h7.6797v3.0586h-7.6797v3.8106h31.8906v-3.8106h-7.3203v-3h7.3203v-3.5097h-7.2598v-3.0606h7.2598v-3.2695h-8.49018v-3.6289h12.30068v20.2187h4.711Zm-17.01168-23.2813-2.09972,2.5801a31.99218,31.99218,0,0,0-4.65028-3.5703,35.70928,35.70928,0,0,1-5.459,3.75l-2.461-2.1582a23.78942,23.78942,0,0,0,5.09958-2.8203,52.64616,52.64616,0,0,0-5.9101-1.9219l1.5312-2.7598a55.63358,55.63358,0,0,1,6.6895,2.1602,25.5345,25.5345,0,0,0,3.5703-4.1094l2.51952,2.0098a19.01686,19.01686,0,0,1-3.11912,3.6308A22.43675,22.43675,0,0,1,423.20217,240.2304Zm.36128,10.92-2.5215,1.9804a27.71516,27.71516,0,0,0-5.0391-3.0898,32.42417,32.42417,0,0,1-5.75968,3.0898l-2.28132-1.8008a29.62736,29.62736,0,0,0,5.5508-3.1796,30.61767,30.61767,0,0,0-5.0996-2.3399l2.248-1.8906a37.45108,37.45108,0,0,1,5.2813,2.3105,25.61129,25.61129,0,0,0,3.3906-2.8789l2.7598,1.4102a15.08015,15.08015,0,0,1-3.4199,3.2695A22.31989,22.31989,0,0,1,423.56345,251.1504Z" fill="#fff"/><path d="M525.4754,281.6308l-2.6406,3.5117q-15.26955-4.5-24.7793-12.1211-8.19435,6.6915-25.7422,12.3614l-2.9395-3.5703q16.9806-4.711,25.6817-11.4317a40.86292,40.86292,0,0,1-11.7305-20.0703,33.09328,33.09328,0,0,1-4.4414,7.9199l-3.1777-2.9082a39.66678,39.66678,0,0,0,6.0879-9.8711H471.4735v-3.6894H495.536V231.5h3.8691v10.2011h24.4805v3.6895H513.6238q-2.6982,15.6621-12.4199,24.9297Q510.0545,277.0409,525.4754,281.6308Zm-15.8711-36.2402H486.3856q2.3964,13.8897,11.7285,22.3515Q507.23425,259.25195,509.6043,245.3906Z" fill="#fff"/><path d="M606.65635,274.6406h-24.1523v4.1719q0,6.68835-7.1094,6.6894h-3.9902l-1.4688-3.6894h5.5782q2.94135,0,2.9414-2.7012v-4.4707H552.11636v-3.75h26.33889v-2.5801a37.45667,37.45667,0,0,0,8.9687-4.3789h-22.9805v-3.4512h29.64073V263.75a91.69931,91.69931,0,0,1-11.58013,6.5117v.6289h24.1523Zm-2.5195-11.1289h-3.6016v-6.211H558.62318v6.5704h-3.92972V253.791h5.1602V235.4902q4.2597-.41895,9.332-4.0488l1.97853,2.7597a17.66337,17.66337,0,0,1-7.44142,3.8106v2.5195h7.68169v3.1192h-7.68169v3.2714h7.68169v3.0586h-7.68169v3.8106h31.89259v-3.8106h-7.32217v-3h7.32217v-3.5097h-7.2597v-3.0606h7.2597v-3.2695h-8.49017v-3.6289H599.424v20.2187h4.7129Zm-17.01167-23.2813-2.10163,2.5801a31.95544,31.95544,0,0,0-4.64837-3.5703,35.81992,35.81992,0,0,1-5.461,3.75l-2.45893-2.1582a23.84235,23.84235,0,0,0,5.0996-2.8203,52.90509,52.90509,0,0,0-5.9102-1.9219l1.5313-2.7598a55.63734,55.63734,0,0,1,6.6894,2.1602,25.4246,25.4246,0,0,0,3.5684-4.1094l2.5215,2.0098a19.0884,19.0884,0,0,1-3.1192,3.6308A22.43712,22.43712,0,0,1,587.12518,240.2304Zm.35937,10.92-2.5196,1.9804a27.73212,27.73212,0,0,0-5.041-3.0898,32.42618,32.42618,0,0,1-5.75977,3.0898L571.883,251.33a29.50009,29.50009,0,0,0,5.5508-3.1796,30.54438,30.54438,0,0,0-5.09957-2.3399l2.25-1.8906a37.5535,37.5535,0,0,1,5.28117,2.3105,25.50184,25.50184,0,0,0,3.3887-2.8789l2.7598,1.4102a15.071,15.071,0,0,1-3.418,3.2695A22.35418,22.35418,0,0,1,587.48455,251.1504Z" fill="#fff"/><path d="M646.18107,251.9004q6.0615,6.8115,6.0625,13.291a7.31035,7.31035,0,0,1-1.6367,5.0097,5.76448,5.76448,0,0,1-4.5742,1.8614,23.70794,23.70794,0,0,1-3.9004-.3907l-1.10943-3.9902a21.66521,21.66521,0,0,0,4.61923.8105,3.05245,3.05245,0,0,0,2.1308-.9003,3.13256,3.13256,0,0,0,.9609-2.4004,14.37231,14.37231,0,0,0-1.6503-5.7598,22.93036,22.93036,0,0,0-4.9512-6.6895l5.8515-15.0312h-8.91013v47.791H635.142V233.9004h16.83v3.8105Zm41.3731,22.5917a20.73664,20.73664,0,0,1-2.1016,7.0489,4.62194,4.62194,0,0,1-4.2891,2.1914h-4.6797q-4.6815,0-4.6796-4.9199V262.9414h-6.3321q-.17865,9.6591-3.7636,14.4746-3.58605,4.81635-13.3067,8.0859l-2.5195-3.4512q9.02925-2.66895,12.3906-6.9003,3.3603-4.2276,3.3906-12.1485h-8.2207v-3.9316h32.1328v3.8711h-10.0234v14.9414a2.29085,2.29085,0,0,0,.4805,1.3945,1.39876,1.39876,0,0,0,1.1406.6445h3.8105q1.16895,0,1.7852-1.9199a30.59177,30.59177,0,0,0,1.0352-4.9805Zm-3.4512-27.2109-3.8086.0606v-5.2813h-22.6211v5.2813h-3.8711V238.25h13.1699v-6.8086h3.9317v6.75H684.103Zm-5.0391,5.7891h-20.2812v-3.9297h20.2812Z" fill="#fff"/><path d="M770.58131,274.6406H746.429v4.1719q0,6.68835-7.1094,6.6894h-3.9902l-1.4707-3.6894h5.5801q2.94135,0,2.9414-2.7012v-4.4707h-26.3418v-3.75h26.3418v-2.5801a37.45726,37.45726,0,0,0,8.9687-4.3789h-22.9804v-3.4512h29.6406V263.75a91.69661,91.69661,0,0,1-11.5801,6.5117v.6289h24.1523Zm-2.5214-11.1289h-3.5996v-6.211h-41.9102v6.5704h-3.9316V253.791h5.1621V235.4902q4.25685-.41895,9.3281-4.0488l1.9805,2.7597a17.66828,17.66828,0,0,1-7.4395,3.8106v2.5195h7.6797v3.1192h-7.6797v3.2714h7.6797v3.0586h-7.6797v3.8106h31.8906v-3.8106H752.22v-3h7.3203v-3.5097h-7.2597v-3.0606h7.2597v-3.2695h-8.4902v-3.6289h12.2988v20.2187h4.711Zm-17.0098-23.2813-2.1016,2.5801a31.98745,31.98745,0,0,0-4.6504-3.5703,35.70135,35.70135,0,0,1-5.4589,3.75l-2.461-2.1582a23.76228,23.76228,0,0,0,5.1016-2.8203,52.77886,52.77886,0,0,0-5.9102-1.9219l1.5293-2.7598a55.41731,55.41731,0,0,1,6.6895,2.1602,25.55053,25.55053,0,0,0,3.5722-4.1094l2.5196,2.0098a19.03383,19.03383,0,0,1-3.1211,3.6308A22.38457,22.38457,0,0,1,751.05011,240.2304Zm.3594,10.92-2.5196,1.9804a27.8522,27.8522,0,0,0-5.039-3.0898,32.464,32.464,0,0,1-5.7617,3.0898l-2.2793-1.8008a29.62582,29.62582,0,0,0,5.5507-3.1796,30.64732,30.64732,0,0,0-5.1015-2.3399l2.25-1.8906a37.42307,37.42307,0,0,1,5.2793,2.3105,25.61129,25.61129,0,0,0,3.3906-2.8789l2.7598,1.4102a15.0789,15.0789,0,0,1-3.42,3.2695A22.2713,22.2713,0,0,1,751.40951,251.1504Z" fill="#fff"/><path d="M852.73646,282.5019h-54.5996v-3.8691h25.4394V264.5605h-18.33v-3.8691h18.33V248.4511h-13.5898a31.92813,31.92813,0,0,1-8.2207,11.7891l-3.959-2.0703a33.14172,33.14172,0,0,0,10.9492-22.2598l4.0508,1.1699a44.97505,44.97505,0,0,1-1.4121,7.5606h12.1231V231.5h4.0488v13.08h21.1797v3.8711h-21.1797v12.1797h18.0605V264.5h-18.0605v14.0722h25.1699Z" fill="#fff"/><path d="M935.31341,245.33l-2.1582,3.1211q-10.23045-2.51955-16.0214-5.8203V245.33h-20.2813v-2.9687a60.81161,60.81161,0,0,1-15.7187,5.9101l-1.9805-3.1503q16.8603-4.11045,28.0801-13.7403l3.6894,1.2305a5.12593,5.12593,0,0,1-1.0488,1.0488Q919.83206,241.94235,935.31341,245.33Zm-6.3886,17.1914h-43.5606V248.4511h43.5606Zm-3.5703,23.0391h-3.6914v-2.3984h-28.9805v2.3984h-3.6895V265.6718h36.3614Zm-20.0118-26.2793v-7.5h-16.289v7.5Zm16.3204,13.5606v-3.8711h-28.9805v3.8711Zm0,7.08v-3.9297h-28.9805v3.9297Zm-20.3106-23.6113-3.0898,2.1602a21.60514,21.60514,0,0,0-5.459-4.17l3.1191-1.7988A15.41036,15.41036,0,0,1,901.35251,256.3105Zm14.5508-14.3086a37.78874,37.78874,0,0,1-8.4297-6.1523,46.15771,46.15771,0,0,1-9.75,6.1523Zm9.3301,17.2793v-7.5h-16.1993v7.5Zm-3.6289-5.7305a14.29977,14.29977,0,0,1-5.3418,4.8008l-3.2989-1.6504a15.58854,15.58854,0,0,0,5.4004-4.4394Z" fill="#fff"/><path d="M1561.93261,336.8339V236.3623h12.0908v89.8193h42.751v10.6523Z" fill="#fff"/><path d="M1638.65231,245.1425q-3.74565,0-5.3975-1.7988a6.63076,6.63076,0,0,1-1.6562-4.6787v-1.8711a6.63917,6.63917,0,0,1,1.6562-4.6787q1.6524-1.7973,5.3975-1.7988,3.74115,0,5.3975,1.7988a6.64714,6.64714,0,0,1,1.6552,4.6787v1.8711a6.63871,6.63871,0,0,1-1.6552,4.6787Q1642.39456,245.1455,1638.65231,245.1425Zm-5.7578,17.418h11.5156v74.2734h-11.5156Z" fill="#fff"/><path d="M1668.87981,336.8339V262.5605h11.5157v11.9531h.5761a24.20308,24.20308,0,0,1,7.7002-9.9746q4.9674-3.70455,13.3145-3.707,11.5152,0,18.209,7.4131,6.69285,7.415,6.6933,20.9443v47.6445H1715.374V291.1054q0-20.05365-16.8418-20.0527a25.88811,25.88811,0,0,0-6.6934.8652,19.47126,19.47126,0,0,0-5.83,2.5977,12.83667,12.83667,0,0,0-4.1016,4.3994,12.518,12.518,0,0,0-1.5117,6.2744v51.6445Z" fill="#fff"/><path d="M1809.65431,334.3867q0,15.3999-8.6368,24.1816-8.6367,8.78025-24.3261,8.7813a39.36639,39.36639,0,0,1-15.6182-2.8184,31.88921,31.88921,0,0,1-10.8672-7.4473l6.7656-7.9521a26.1358,26.1358,0,0,0,8.6368,5.9268,28.98265,28.98265,0,0,0,11.3711,2.0703q10.0737,0,15.6171-5.5635,5.5401-5.57085,5.542-16.4111V324.8798h-.5752a24.44711,24.44711,0,0,1-8.6367,10.2598,23.74888,23.74888,0,0,1-13.0996,3.4209,28.2413,28.2413,0,0,1-12.5224-2.7344,26.53229,26.53229,0,0,1-9.5-7.7724,37.40334,37.40334,0,0,1-6.0459-12.2354,61.29233,61.29233,0,0,1,0-32.2431,37.43208,37.43208,0,0,1,6.0459-12.2354,26.56388,26.56388,0,0,1,9.5-7.7725,28.22942,28.22942,0,0,1,12.5224-2.7353,25.28759,25.28759,0,0,1,13.3154,3.3496,20.90341,20.90341,0,0,1,8.4209,10.332h.5752V262.5605h11.5157Zm-30.3721-6.0459a25.95339,25.95339,0,0,0,7.3418-1.0127,17.79673,17.79673,0,0,0,5.9726-2.9658,14.84657,14.84657,0,0,0,4.0313-4.7725,13.74467,13.74467,0,0,0,1.5107-6.583V285.375a11.91651,11.91651,0,0,0-1.4394-5.7159,13.50492,13.50492,0,0,0-4.0303-4.5556,20.85776,20.85776,0,0,0-6.0449-2.9649,24.32616,24.32616,0,0,0-7.3418-1.0859q-9.7911,0-15.5449,6.2207-5.75985,6.22125-5.7578,16.0586v12.7295q0,9.8379,5.7578,16.0586Q1769.49116,328.3412,1779.28221,328.3408Z" fill="#fff"/><path d="M1879.89551,324.8798h-.5762a35.352,35.352,0,0,1-2.8066,5.0606,18.8986,18.8986,0,0,1-4.1016,4.417,19.23423,19.23423,0,0,1-5.9023,3.0635,25.76616,25.76616,0,0,1-8.0606,1.1396q-11.51655,0-18.2803-7.4131-6.76755-7.4106-6.7656-20.9424V262.5605h11.5156V308.288q0,20.0523,16.9854,20.0528a25.72547,25.72547,0,0,0,6.6933-.8662,18.47552,18.47552,0,0,0,5.7579-2.5948,13.11171,13.11171,0,0,0,4.0293-4.3994,12.83078,12.83078,0,0,0,1.5117-6.4218V262.5605h11.5156v74.2734h-11.5156Z" fill="#fff"/><path d="M1921.63771,245.1425q-3.74415,0-5.3975-1.7988a6.62978,6.62978,0,0,1-1.6553-4.6787v-1.8711a6.63818,6.63818,0,0,1,1.6553-4.6787q1.65375-1.7973,5.3975-1.7988,3.74115,0,5.3984,1.7988a6.65067,6.65067,0,0,1,1.6543,4.6787v1.8711a6.64223,6.64223,0,0,1-1.6543,4.6787Q1925.37936,245.1455,1921.63771,245.1425Zm-5.7579,17.418h11.5157v74.2734h-11.5157Z" fill="#fff"/><path d="M1974.17671,338.5605q-10.3638,0-17.3447-3.958a39.41551,39.41551,0,0,1-12.0195-10.5801l8.2041-6.6211a32.24291,32.24291,0,0,0,9.6445,8.4199,25.106,25.106,0,0,0,12.3789,2.9522q7.34175,0,11.4434-3.167a11.50417,11.50417,0,0,0,1.2959-16.3379q-2.80815-3.09375-10.1475-4.2461l-5.9023-.8642a49.13329,49.13329,0,0,1-9.5-2.2305,26.40035,26.40035,0,0,1-7.5567-4.0303,17.29278,17.29278,0,0,1-5.0381-6.2617,20.39549,20.39549,0,0,1-1.7998-8.9238,21.44282,21.44282,0,0,1,2.0157-9.5733,19.2691,19.2691,0,0,1,5.5419-6.8359,24.21489,24.21489,0,0,1,8.42-4.1025,38.91989,38.91989,0,0,1,10.5088-1.3682q9.06735,0,15.1855,3.167a34.08985,34.08985,0,0,1,10.7236,8.7803l-7.6298,6.9091a22.904,22.904,0,0,0-7.1963-6.2607,23.17863,23.17863,0,0,0-11.9473-2.8076q-7.1997,0-10.8682,3.0947a10.44207,10.44207,0,0,0-3.6699,8.4209q0,5.4726,3.6699,7.917,3.67095,2.4492,10.5801,3.5986l5.7578.8633q12.378,1.87215,17.5606,7.125,5.1825,5.25735,5.1826,13.7461,0,10.796-7.3408,16.9854Q1986.98721,338.563,1974.17671,338.5605Z" fill="#fff"/><path d="M2037.36811,336.8339q-6.04395,0-9.1396-3.374a12.55292,12.55292,0,0,1-3.0947-8.8349V272.7793h-12.2354V262.5605h6.9092q3.74115,0,5.1103-1.5127,1.3668-1.5102,1.3672-5.2529V241.9755h10.3643v20.585h16.2656v10.2188h-16.2656v53.8349h15.1133v10.2197Z" fill="#fff"/><path d="M2077.24021,245.1425q-3.74415,0-5.3975-1.7988a6.62972,6.62972,0,0,1-1.6552-4.6787v-1.8711a6.63812,6.63812,0,0,1,1.6552-4.6787q1.6524-1.7973,5.3975-1.7988,3.74265,0,5.3975,1.7988a6.64774,6.64774,0,0,1,1.6562,4.6787v1.8711a6.63931,6.63931,0,0,1-1.6562,4.6787Q2080.98231,245.1455,2077.24021,245.1425Zm-5.7578,17.418h11.5156v74.2734h-11.5156Z" fill="#fff"/><path d="M2135.10451,338.5605a34.22753,34.22753,0,0,1-13.962-2.7344,28.48154,28.48154,0,0,1-10.4355-7.7724,34.58811,34.58811,0,0,1-6.4775-12.2354,59.37671,59.37671,0,0,1,0-32.2431,34.61312,34.61312,0,0,1,6.4775-12.2354,28.515,28.515,0,0,1,10.4355-7.7725,34.21283,34.21283,0,0,1,13.962-2.7353q11.0829,0,17.7773,4.8223a29.43635,29.43635,0,0,1,10.0039,12.5947l-9.6445,4.8945a17.49028,17.49028,0,0,0-6.6211-8.9248,19.876,19.876,0,0,0-11.5156-3.166,23.0398,23.0398,0,0,0-9.0684,1.6543,17.72371,17.72371,0,0,0-6.4766,4.6074,19.37529,19.37529,0,0,0-3.8867,7.0527,29.76528,29.76528,0,0,0-1.2959,8.9952v12.667q0,9.791,5.2549,16.0507,5.2515,6.26085,15.4727,6.2608,13.9599,0,20.1523-12.9551l8.3486,5.6143a29.49143,29.49143,0,0,1-10.7236,12.8105Q2145.75681,338.561,2135.10451,338.5605Z" fill="#fff"/><path d="M2202.18061,338.5605q-10.3638,0-17.3447-3.958a39.41551,39.41551,0,0,1-12.0195-10.5801l8.2041-6.6211a32.24291,32.24291,0,0,0,9.6445,8.4199,25.1033,25.1033,0,0,0,12.3789,2.9522q7.34175,0,11.4434-3.167a11.50417,11.50417,0,0,0,1.2959-16.3379q-2.80815-3.09375-10.1475-4.2461l-5.9023-.8642a49.13329,49.13329,0,0,1-9.5-2.2305,26.40035,26.40035,0,0,1-7.5567-4.0303,17.29278,17.29278,0,0,1-5.0381-6.2617,20.39549,20.39549,0,0,1-1.7998-8.9238,21.44418,21.44418,0,0,1,2.0157-9.5733,19.2691,19.2691,0,0,1,5.5419-6.8359,24.21489,24.21489,0,0,1,8.42-4.1025,38.9146,38.9146,0,0,1,10.5088-1.3682q9.06735,0,15.1855,3.167a34.08874,34.08874,0,0,1,10.7236,8.7803l-7.6298,6.9091a22.89734,22.89734,0,0,0-7.1973-6.2607,23.172,23.172,0,0,0-11.9463-2.8076q-7.1997,0-10.8682,3.0947a10.44207,10.44207,0,0,0-3.6699,8.4209q0,5.4726,3.6699,7.917,3.671,2.4492,10.5801,3.5986l5.7578.8633q12.378,1.87215,17.5606,7.125,5.18265,5.25735,5.1816,13.7461,0,10.796-7.3398,16.9854Q2214.99111,338.563,2202.18061,338.5605Z" fill="#fff"/><path d="M2313.30271,338.5605q-12.2358,0-20.8721-4.6777A44.27816,44.27816,0,0,1,2277.749,321l8.9238-7.4854a39.10638,39.10638,0,0,0,11.8037,10.7236,30.43194,30.43194,0,0,0,15.2578,3.6709q10.796,0,16.4815-5.1816,5.6835-5.18265,5.6855-13.8193,0-7.19535-4.3183-11.0821-4.31835-3.8877-14.25-6.1904l-8.2051-1.8711q-13.81785-3.16545-21.0869-9.5713-7.27005-6.40425-7.2696-18.0664a27.30854,27.30854,0,0,1,2.4473-11.8027,23.68093,23.68093,0,0,1,6.8369-8.6358,30.852,30.852,0,0,1,10.5078-5.2539,47.57669,47.57669,0,0,1,13.459-1.7998q11.36865,0,19.5039,4.1748a37.57091,37.57091,0,0,1,13.7461,12.2354l-9.0683,6.6211a31.3039,31.3039,0,0,0-10.0752-9.0684q-5.9049-3.3105-14.6826-3.3105-9.64455,0-15.1856,4.1015-5.54295,4.1031-5.542,12.3067,0,7.2012,4.6787,10.8681,4.6758,3.66945,14.1778,5.8301l8.205,1.8711q14.82435,3.312,21.4473,10.0752,6.61815,6.76755,6.6211,17.9932a31.83012,31.83012,0,0,1-2.375,12.5234,25.71009,25.71009,0,0,1-6.8369,9.5,31.79841,31.79841,0,0,1-10.8682,6.0459A45.15492,45.15492,0,0,1,2313.30271,338.5605Z" fill="#fff"/><path d="M2395.63671,338.5605a33.48955,33.48955,0,0,1-13.6748-2.7344,29.44206,29.44206,0,0,1-10.5801-7.8457,36.91159,36.91159,0,0,1-6.8369-12.2343,53.63646,53.63646,0,0,1,0-32.0274,36.83287,36.83287,0,0,1,6.8369-12.3066,29.48612,29.48612,0,0,1,10.5801-7.8448,33.47512,33.47512,0,0,1,13.6748-2.7353,32.99065,32.99065,0,0,1,13.6025,2.7353,30.36741,30.36741,0,0,1,10.5791,7.8448,36.2147,36.2147,0,0,1,6.9092,12.3066,53.61554,53.61554,0,0,1,0,32.0274,36.28912,36.28912,0,0,1-6.9092,12.2343,30.32052,30.32052,0,0,1-10.5791,7.8457A33.00483,33.00483,0,0,1,2395.63671,338.5605Zm0-10.2197q9.35445,0,15.2578-5.7578,5.9004-5.75535,5.9014-17.5606V294.3711q0-11.8008-5.9014-17.5616-5.90475-5.75535-15.2578-5.7568-9.359,0-15.2578,5.7568-5.9049,5.75835-5.9014,17.5616v10.6513q0,11.80515,5.9014,17.5606Q2386.27931,328.3427,2395.63671,328.3408Z" fill="#fff"/><path d="M2475.81151,338.5605a34.227,34.227,0,0,1-13.9619-2.7344,28.4917,28.4917,0,0,1-10.4365-7.7724,34.6011,34.6011,0,0,1-6.4766-12.2354,59.3511,59.3511,0,0,1,0-32.2431,34.62613,34.62613,0,0,1,6.4766-12.2354,28.52519,28.52519,0,0,1,10.4365-7.7725,34.21234,34.21234,0,0,1,13.9619-2.7353q11.083,0,17.7773,4.8223a29.43561,29.43561,0,0,1,10.0039,12.5947l-9.6445,4.8945a17.49522,17.49522,0,0,0-6.6211-8.9248,19.876,19.876,0,0,0-11.5156-3.166,23.03634,23.03634,0,0,0-9.0684,1.6543,17.71412,17.71412,0,0,0-6.4765,4.6074,19.374,19.374,0,0,0-3.8868,7.0527,29.76841,29.76841,0,0,0-1.2959,8.9952v12.667q0,9.791,5.254,16.0507,5.25285,6.26085,15.4736,6.2608,13.9599,0,20.1523-12.9551l8.3487,5.6143a29.49164,29.49164,0,0,1-10.7237,12.8105Q2486.46381,338.561,2475.81151,338.5605Z" fill="#fff"/><path d="M2526.33391,245.1425q-3.7455,0-5.3974-1.7988a6.62978,6.62978,0,0,1-1.6553-4.6787v-1.8711a6.63818,6.63818,0,0,1,1.6553-4.6787q1.6524-1.7973,5.3974-1.7988,3.7413,0,5.3975,1.7988a6.6478,6.6478,0,0,1,1.6563,4.6787v1.8711a6.63937,6.63937,0,0,1-1.6563,4.6787Q2530.07616,245.1455,2526.33391,245.1425Zm-5.7578,17.418h11.5157v74.2734h-11.5157Z" fill="#fff"/><path d="M2584.48631,338.5605a33.34876,33.34876,0,0,1-13.7461-2.7344,29.59271,29.59271,0,0,1-10.5078-7.8457,35.95376,35.95376,0,0,1-6.7656-12.2343,55.19432,55.19432,0,0,1,0-32.0274,35.88976,35.88976,0,0,1,6.7656-12.3066,29.63753,29.63753,0,0,1,10.5078-7.8448,33.33446,33.33446,0,0,1,13.7461-2.7353,31.56147,31.56147,0,0,1,13.3867,2.7266,29.67337,29.67337,0,0,1,10.0762,7.5312,33.57151,33.57151,0,0,1,6.4053,11.4033,45.01768,45.01768,0,0,1,2.2314,14.4864v5.4521h-53.4033v3.4551a25.40036,25.40036,0,0,0,1.5117,8.8515,21.02313,21.02313,0,0,0,4.3184,7.125,19.72975,19.72975,0,0,0,6.9091,4.751,23.72961,23.72961,0,0,0,9.2842,1.7266,22.59692,22.59692,0,0,0,12.3076-3.3106,21.71871,21.71871,0,0,0,8.1319-9.5l8.2051,5.9395a28.66708,28.66708,0,0,1-11.2276,12.3838A33.86188,33.86188,0,0,1,2584.48631,338.5605Zm0-68.084a21.92239,21.92239,0,0,0-8.6357,1.6465,19.41509,19.41509,0,0,0-6.6934,4.6484,21.80014,21.80014,0,0,0-4.3906,7.0811,24.47531,24.47531,0,0,0-1.584,8.9414v1.001h41.0234v-1.5742q0-9.87165-5.3974-15.8067Q2593.41056,270.477,2584.48631,270.4765Z" fill="#fff"/><path d="M2651.99511,336.8339q-6.04695,0-9.1406-3.374a12.553,12.553,0,0,1-3.0948-8.8349V272.7793h-12.2353V262.5605h6.9092q3.74115,0,5.1103-1.5127,1.3653-1.5102,1.3672-5.2529V241.9755h10.3633v20.585H2667.54v10.2188h-16.2656v53.8349h15.1142v10.2197Z" fill="#fff"/><path d="M2731.88181,262.5605h11.3721l-33.251,91.5459a40.84213,40.84213,0,0,1-2.5908,5.542,10.81266,10.81266,0,0,1-3.167,3.5264,12.57366,12.57366,0,0,1-4.6778,1.8711,34.80173,34.80173,0,0,1-6.8378.5761h-5.9014V355.4023h11.6592l5.6142-15.8086-27.7812-77.0332h11.5156l17.8486,50.4258,3.4551,12.0683h.7188l4.0312-12.0683Z" fill="#fff"/><path d="M1582.06051,477.7519l-3.6103-11.4765h-15.9903l-3.5459,11.4765h-8.6406l15.0879-45.0039h10.5742l14.958,45.0039Zm-11.4766-37.2656h-.3222l-5.7383,18.5039h11.8633Z" fill="#fff"/><path d="M1627.38571,477.7519l-3.6103-11.4765h-15.9903l-3.5459,11.4765h-8.6406l15.0879-45.0039h10.5742l14.958,45.0039Zm-11.4766-37.2656h-.3222l-5.7383,18.5039h11.8633Z" fill="#fff"/><path d="M1671.42281,458.7324h-18.7627v19.0195h-8.5107V432.748h8.5107v18.4395h18.7627V432.748h8.5108v45.0039h-8.5108Z" fill="#fff"/><path d="M1706.30371,457.3789l-5.9961,7.0918v13.2812h-8.5108V432.748h8.5108v22.1797h.3222l6.3829-8.4453,11.1543-13.7344h9.8007l-15.6679,18.7617,16.957,26.2422h-10.1221Z" fill="#fff"/><path d="M1744.86031,432.748v27.6602q0,5.2881,2.0313,7.9316,2.03025,2.64255,6.8662,2.6426,4.8354,0,6.8672-2.6426,2.03025-2.64555,2.0302-7.9316V432.748h8.3819v26.5645a34.51962,34.51962,0,0,1-.9346,8.5742,14.611,14.611,0,0,1-2.998,5.998,12.09434,12.09434,0,0,1-5.3838,3.5137,25.175,25.175,0,0,1-8.0274,1.127,24.79109,24.79109,0,0,1-8.0273-1.127,12.11335,12.11335,0,0,1-5.3194-3.5137,14.2933,14.2933,0,0,1-2.9658-5.998,35.65345,35.65345,0,0,1-.9023-8.5742V432.748Z" fill="#fff"/></g></svg>