<svg xmlns="http://www.w3.org/2000/svg" xmlns:xlink="http://www.w3.org/1999/xlink" viewBox="0 0 633.1904 575.32709"><defs><clipPath id="a"><rect width="633.1904" height="575.32709" fill="none"/></clipPath></defs><g clip-path="url(#a)"><path d="M79.2217,135.7871A105.34294,105.34294,0,0,0,71.1367,169.5a10.38115,10.38115,0,0,1,13.6768.47849A92.6317,92.6317,0,0,1,177.1641,84.543a6.8379,6.8379,0,1,0,0-13.6758,106.40637,106.40637,0,0,0-97.9424,64.9199Z" fill="#a39b4b"/><path d="M169.5937,269.48629A92.62991,92.62991,0,0,1,84.543,177.5879a6.8379,6.8379,0,0,0-13.6758,0A106.216,106.216,0,0,0,169.0508,283.168a10.38012,10.38012,0,0,1,.5429-13.6817Z" fill="#a39b4b"/><path d="M251.2656,243.707a6.83959,6.83959,0,0,0-9.6699,0,92.31818,92.31818,0,0,1-64.4316,26.0899,6.8379,6.8379,0,0,0,0,13.6758,105.94977,105.94977,0,0,0,74.1015-30.0938A6.83711,6.83711,0,0,0,251.2656,243.707Z" fill="#a39b4b"/><path d="M177.1646,70.8691A106.233,106.233,0,0,0,71.1348,169.499a10.38218,10.38218,0,0,1,13.6797.48049A92.631,92.631,0,0,1,177.1646,84.5391a6.835,6.835,0,1,0,0-13.67Zm-7.5699,198.62019A92.62849,92.62849,0,0,1,84.5444,177.5898a6.83985,6.83985,0,1,0-13.6797,0,106.24584,106.24584,0,0,0,98.19,105.58009,10.35909,10.35909,0,0,1,.54-13.6806ZM251.2646,243.71a6.84418,6.84418,0,0,0-9.6699,0,92.34678,92.34678,0,0,1-64.4301,26.0898,6.835,6.835,0,1,0,0,13.6699,105.98755,105.98755,0,0,0,74.1-30.0898A6.83814,6.83814,0,0,0,251.2646,243.71Z" fill="#a39b4b"/><path d="M233.4546,120.8799a79.59721,79.59721,0,1,0,23.3198,56.29A79.05022,79.05022,0,0,0,233.4546,120.8799Zm-101.23,34.34959h-6.4702v43.8799h6.4702v3.7998H121.0547V151.4297h11.1699Zm8.8198,47.6797V166.5498c0-3.1299-.06-5.9707-.1596-8.5107q-.1656-3.8247-.4903-6.6094h6.6001v36.2002c0,1.0293.02,2.2392.0498,3.63959.0303,1.38971.0703,2.80961.1299,4.24031.0503,1.4394.1104,2.80949.1904,4.12009.0699,1.3096.17,2.4092.2701,3.2793Zm34.75-28.59959h-6.0498v24.38959h6.0498v4.2207h-18.02v-4.2207h5.96V174.3096h-5.96v-4.2198h18.02Zm38.1402,25.07029a36.09663,36.09663,0,0,1-.9502,9.0195,15.41828,15.41828,0,0,1-2.6499,5.7305,9.33225,9.33225,0,0,1-4.1099,3.0293,15.27083,15.27083,0,0,1-5.3203.8799,11.13,11.13,0,0,1-3.1099-.4698,11.5059,11.5059,0,0,1-3.0097-1.2998l2.0898-4.83a6.52294,6.52294,0,0,0,1.98.9199,8.70565,8.70565,0,0,0,2.5303.3701,7.34652,7.34652,0,0,0,2.7695-.5,4.59728,4.59728,0,0,0,2.0703-1.75,9.818,9.818,0,0,0,1.3101-3.4404,28.48362,28.48362,0,0,0,.4497-5.5694V187.3096a38.88311,38.88311,0,0,0-.4097-6.2598,10.88227,10.88227,0,0,0-1.2002-3.7402,3.9971,3.9971,0,0,0-2.02-1.7803,8.00531,8.00531,0,0,0-2.8101-.4502,7.56635,7.56635,0,0,0-3.3999.8203,12.58542,12.58542,0,0,0-3.04,2.12009,15.50593,15.50593,0,0,0-2.4399,2.95021,13.12925,13.12925,0,0,0-1.5801,3.2793v18.67089h-5.9497V183.1191a50.86916,50.86916,0,0,0-.5503-8.0595,42.84,42.84,0,0,0-1.0601-4.9698h5.7901a10.96328,10.96328,0,0,1,.3901,1.3399c.1299.54.2397,1.1201.3501,1.7197.1099.5996.1997,1.1904.29,1.7705l.2598,1.4395a21.23585,21.23585,0,0,1,6.21-5.2901,13.93773,13.93773,0,0,1,6.5-1.6201,11.35932,11.35932,0,0,1,4.5502.8506,8.02194,8.02194,0,0,1,3.3296,2.6992,13.28136,13.28136,0,0,1,2.0503,4.8008,31.5325,31.5325,0,0,1,.69,7.0996Zm19.3398,3.5293H222.1045v-3.7998h6.4702v-43.8799h-6.4702V151.4297h11.1699Z" fill="#a39b4b"/><path d="M129.7676,442.09719H97.5586v-5.3467h32.209Zm-4.1914,56.9301h-5.5196V493.167h-12.873v5.8603h-5.6035v-28.9145h23.9961Zm-.2578-45.8945-23.6524.085v-5.3457h23.6524Zm.0859,11.2061H101.666v-5.3467h23.7383Zm-1.0703-33.106-21.7285.0859v-5.3466H124.334Zm-4.2774,56.6729V475.374H107.0977v12.5318Zm55.2618-23.4815-46.2364.0855V459.249h11.4629l2.4805-13.2168H132.334v-5.2607h11.5488l1.8379-9.7954H129.3398v-5.3462h42.4727v5.2612H151.4941l-1.7519,9.7949h17.6211l-1.8399,18.4771h9.795Zm-7.4414,34.7739h-5.5176v-5.7744H140.7168v5.7744h-5.6035v-28.9995H167.877Zm-5.5176-11.0356v-12.7031H140.6309v12.7031Zm-.8555-42.2158H148.8008l-2.4805,13.3022h13.8574Z" fill="#a39b4b"/><path d="M271.7615,442.09719H194.002v-5.3467h77.7595Zm-11.4629,10.9497H204.6951v-5.1748h55.6035Zm0,11.1206H204.6951v-5.1753h55.6035Zm-2.0098,35.0307h-5.5176V493.167H212.6501v6.0312h-5.5175v-29.0854h51.1562Zm-.0859-68.521-50.6426.128v-5.1753h50.6426Zm-5.4317,57.2286V475.374H212.6501v12.5318Z" fill="#a39b4b"/><path d="M368.2051,483.71479H333.7732v5.9454q0,9.5376-10.1387,9.538h-5.6877l-2.0955-5.2607h7.9551q4.19235,0,4.1934-3.8496v-6.3731H290.4451v-5.3466h37.5547v-3.6787q8.9355-3.3363,12.7873-6.2442H308.0232v-4.9194h42.262v4.6626a131.11364,131.11364,0,0,1-16.512,9.2812v.8985h34.4319Zm-3.5918-15.8691h-5.1348v-8.8535H299.7263v9.3672h-5.6035v-14.3711h7.3574v-26.0918q6.07035-.59835,13.3025-5.7739l2.8225,3.935a25.16444,25.16444,0,0,1-10.6074,5.4321v3.5933h10.949v4.4483h-10.949v4.6621h10.949v4.3618h-10.949v5.4331h45.467v-5.4331H342.0273v-4.2769h10.4375v-5.0039H342.1133v-4.3628h10.3515V430.249H340.3594v-5.1753h17.5371v28.8286h6.7168Zm-24.2539-33.1909-2.9922,3.6782a45.75607,45.75607,0,0,0-6.6311-5.0898,51.09473,51.09473,0,0,1-7.7852,5.3466l-3.5078-3.08a33.90441,33.90441,0,0,0,7.2735-4.0201,74.72334,74.72334,0,0,0-8.4278-2.7373l2.1817-3.9355a79.06721,79.06721,0,0,1,9.539,3.0796,36.51981,36.51981,0,0,0,5.0899-5.8594l3.592,2.8657a27.06246,27.06246,0,0,1-4.4475,5.1753A31.9313,31.9313,0,0,1,340.3594,434.65479Zm.5134,15.5688-3.5916,2.8233a39.67668,39.67668,0,0,0-7.1857-4.4053,46.29757,46.29757,0,0,1-8.2129,4.4053l-3.25-2.5664a42.34129,42.34129,0,0,0,7.9121-4.5337,43.42427,43.42427,0,0,0-7.2715-3.3369l3.207-2.6939a53.39828,53.39828,0,0,1,7.5293,3.293,36.42,36.42,0,0,0,4.8321-4.106l3.9357,2.0103a21.477,21.477,0,0,1-4.8752,4.6626A31.83174,31.83174,0,0,1,340.8728,450.22359Z" fill="#a39b4b"/><path d="M464.5625,483.71479H430.1309v5.9454q0,9.5376-10.1368,9.538h-5.6894l-2.096-5.2607h7.9554q4.1919,0,4.1914-3.8496v-6.3731H386.8027v-5.3466h37.5528v-3.6787q8.94135-3.3363,12.791-6.2442H404.3809v-4.9194h42.2597v4.6626a130.90588,130.90588,0,0,1-16.5097,9.2812v.8985h34.4316Zm-3.5918-15.8691h-5.1348v-8.8535H396.0837v9.3672h-5.6032v-14.3711h7.3574v-26.0918q6.0732-.59835,13.3027-5.7739l2.8223,3.935a25.15475,25.15475,0,0,1-10.6074,5.4321v3.5933h10.9492v4.4483H403.3555v4.6621h10.9492v4.3618H403.3555v5.4331h45.4668v-5.4331H438.3867v-4.2769h10.4356v-5.0039H438.4707v-4.3628h10.3516V430.249H436.7168v-5.1753h17.5371v28.8286h6.7168Zm-22.7305-18.5815-3.8965,3.5629a41.27841,41.27841,0,0,0-6.7851-8.0961q-5.7393,6.39465-9.4338,8.1367l-3.8553-3.2383q4.3473-2.06835,9.4336-7.7324a49.61059,49.61059,0,0,0-8.2444-4.4546l3.3636-3.479a66.49089,66.49089,0,0,1,7.7109,4.2104,24.44235,24.44235,0,0,0,2.625-6.0332H416.2793v-5.0595h6.9043v-5.21h4.4316v5.21h8.1953v5.0595h-1.623a32.16176,32.16176,0,0,1-3.6758,8.7051A39.76035,39.76035,0,0,1,438.2402,449.26419Z" fill="#a39b4b"/><path d="M562.3301,441.92679l-3.0784,4.4477q-14.5866-3.5925-22.8396-8.2974v3.8497h-28.916v-4.2354q-12.4893,6.4593-22.4124,8.4263l-2.822-4.4907q24.03525-5.85945,40.0352-19.5899l5.2597,1.7534a7.26956,7.26956,0,0,1-1.498,1.4966Q540.2588,437.093,562.3301,441.92679Zm-9.1114,24.5078H491.1152v-20.0601h62.1035Zm-5.0878,32.8486h-5.2618v-3.4219H501.5527v3.4219h-5.2619v-28.3574h51.8401Zm-28.5293-37.4678v-10.6933H496.3748v10.6933Zm23.2675,19.333v-5.5175H501.5527v5.5175Zm0,10.0943v-5.6035H501.5527v5.6035Zm-28.957-33.6621-4.4043,3.0796a30.818,30.818,0,0,0-7.7851-5.9454l4.4472-2.5659A21.99318,21.99318,0,0,1,513.9121,457.58059Zm20.7461-20.4019a53.92452,53.92452,0,0,1-12.0195-8.7685,65.65183,65.65183,0,0,1-13.9004,8.7685Zm13.3027,24.6367v-10.6933H524.8633v10.6933Zm-5.1777-8.1699a20.36557,20.36557,0,0,1-7.6133,6.8438l-4.7051-2.3521q5.6046-3.16485,7.6993-6.331Z" fill="#a39b4b"/><path d="M130.1699,372.17679l-1.6347,1.8808a38.19818,38.19818,0,0,1-13.9844-9.102l.0351,6.8701h8.2051v15.10985h-2.2324v-2.02H106.3437v2.02H104.043V371.82569h8.2402v-6.8701q-3.61815,5.5341-13.0723,8.6626l-1.6523-1.8628q8.38185-2.21415,11.9844-6.7998H99.5449v-2.1963h12.7383v-3.3911q-4.1982.42255-10.543.6152l-1.5097-2.126q14.9853-.0534,23.9297-2.5127l1.6875,1.6875a77.907,77.907,0,0,1-11.2618,2.0552v3.6719H127.5v2.1963l-10.0684-.0347A37.448,37.448,0,0,0,130.1699,372.17679Zm-9.6113,4.9375V374.022h-14.25v3.0923Zm0,5.64009v-3.47849h-14.25v3.47849Z" fill="#a39b4b"/><path d="M151.30593,373.793a34.2877,34.2877,0,0,1-5.7968,11.26364l2.0547,1.30029a33.52044,33.52044,0,0,0,5.8691-11.26273Zm-3.707-9.751-1.477,1.8452a12.995,12.995,0,0,1,5.5356,4.2866l1.5449-2.0903A13.22218,13.22218,0,0,0,147.59893,364.042Zm1.7207-7.8711-1.6504,1.687a10.60486,10.60486,0,0,1,5.3242,4.0757l1.6504-1.7749A10.76809,10.76809,0,0,0,149.31963,356.17089Z" fill="#a39b4b"/><path d="M172.28453,379.13569v-6.6254a20.41239,20.41239,0,0,0,4.5,3.2343l1.4394-1.9516a15.08889,15.08889,0,0,1-7.168-6.2188h6.0079v-2.1611h-5.7442v-4.1997h4.3379v-2.1616h-4.3379v-3.7061h-2.2324v3.7417h-6.5176v-3.7417h-2.2324v3.7417h-4.3223v2.1602h4.3574v4.1992h-5.7285v2.1626h5.7989q-1.94835,3.654-7.045,6.0781l1.6504,1.9507a21.99229,21.99229,0,0,0,2.7754-1.897v9.418a2.67138,2.67138,0,0,0,3.0235,3.02148h11.5078a2.80823,2.80823,0,0,0,2.2226-.93066,7.85864,7.85864,0,0,0,1.2735-3.67139l-2.2657-1.02a6.90574,6.90574,0,0,1-.6679,2.81054,1.37461,1.37461,0,0,1-1.1758.61523h-10.7188a.8536.8536,0,0,1-.9668-.96679v-3.88188Zm-9.7149-17.9223h6.5527v4.1997h-6.5527Zm.209,6.3608h5.9746a14.59232,14.59232,0,0,0,2.5996,3.9893h-11.1562A12.3713,12.3713,0,0,0,162.77863,367.57419Zm-2.7227,6.1494h9.9981v3.2857h-9.9981Z" fill="#a39b4b"/><path d="M226.03372,385.17919l-1.6348,1.82666q-10.98-5.99048-13.9509-20.18746-3.6708,14.42565-14.9687,20.18746l-1.7754-2.09033q11.19135-5.447,14.1797-18.062h-11.9473v-2.2666h12.2109a89.81769,89.81769,0,0,0,.2813-9.2422l2.4414.3516q.0879,5.376-.2109,8.8555h13.3181v2.2666h-11.0857Q214.99787,378.85424,226.03372,385.17919Z" fill="#a39b4b"/><path d="M273.8428,380.61079H259.6983v2.44291q0,3.917-4.1641,3.918h-2.3379l-.8594-2.16113h3.2674q1.72,0,1.7209-1.58155v-2.6182H241.8994v-2.1962h15.4258v-1.5113a21.90978,21.90978,0,0,0,5.2539-2.5649h-13.459v-2.021h17.3592v1.915a53.57632,53.57632,0,0,1-6.781,3.813v.3692h14.1445Zm-1.4766-6.5185h-2.1074v-3.6372H245.7119v3.8476h-2.3008v-5.9028h3.0215v-10.7183a11.63722,11.63722,0,0,0,5.4646-2.372l1.1585,1.6167a10.32826,10.32826,0,0,1-4.3574,2.2314v1.4756h4.498v1.8276h-4.498v1.9151h4.498v1.792h-4.498v2.2319H267.376V366.168h-4.2871v-1.7569h4.2871v-2.0556h-4.252V360.563h4.252v-1.9146h-4.9727v-2.1259h7.2051v11.8418h2.7578Zm-9.9629-13.6343-1.2304,1.5103a18.58992,18.58992,0,0,0-2.7227-2.0904,20.90184,20.90184,0,0,1-3.1973,2.1963l-1.4416-1.2646a13.86764,13.86764,0,0,0,2.9866-1.6519,30.71387,30.71387,0,0,0-3.461-1.125l.8965-1.6162a32.41476,32.41476,0,0,1,3.918,1.2651,14.94736,14.94736,0,0,0,2.0918-2.4072l1.4765,1.1777a11.22025,11.22025,0,0,1-1.8281,2.126A13.09437,13.09437,0,0,1,262.4033,360.458Zm.211,6.3955-1.4746,1.1597a16.28563,16.28563,0,0,0-2.9534-1.8101,18.91621,18.91621,0,0,1-3.3731,1.8101l-1.3356-1.0547a17.35731,17.35731,0,0,0,3.2517-1.8623,17.79956,17.79956,0,0,0-2.9881-1.3701l1.3184-1.1074a21.85637,21.85637,0,0,1,3.0918,1.353,14.95277,14.95277,0,0,0,1.9863-1.6865l1.6152.8261a8.77907,8.77907,0,0,1-2.0019,1.9146A13.04147,13.04147,0,0,1,262.6143,366.85349Z" fill="#a39b4b"/><path d="M322.30113,384.70458l-1.5469,2.05615a41.96746,41.96746,0,0,1-14.5117-7.09864q-4.7988,3.91847-15.0761,7.23927l-1.7208-2.09082q9.9435-2.75831,15.0391-6.69435a23.93457,23.93457,0,0,1-6.8691-11.7549A19.36612,19.36612,0,0,1,295.014,371l-1.8613-1.7041a23.1916,23.1916,0,0,0,3.5664-5.7813h-6.0449V361.354h14.0935v-6.0093h2.2658v5.9737h14.336V363.48h-6.0098q-1.57905,9.17205-7.2734,14.6006Q313.269,382.01659,322.30113,384.70458ZM313.00623,363.48h-13.5977a22.14065,22.14065,0,0,0,6.8692,13.0898A22.46418,22.46418,0,0,0,313.00623,363.48Z" fill="#a39b4b"/><path d="M369.84747,380.61079H355.701v2.44291q0,3.917-4.164,3.918h-2.336l-.8613-2.16113h3.2676q1.7226,0,1.7226-1.58155v-2.6182h-15.426v-2.1962h15.426v-1.5113a21.932,21.932,0,0,0,5.252-2.5649h-13.4571v-2.021h17.3594v1.915a53.77409,53.77409,0,0,1-6.7832,3.813v.3692h14.1465Zm-1.4766-6.5185h-2.1093v-3.6372h-24.5469v3.8476h-2.3008v-5.9028h3.0215v-10.7183a11.63681,11.63681,0,0,0,5.4668-2.372l1.1582,1.6167a10.33619,10.33619,0,0,1-4.3594,2.2314v1.4756h4.5v1.8276h-4.5v1.9151h4.5v1.792h-4.5v2.2319h18.6797V366.168h-4.2891v-1.7569h4.2891v-2.0556h-4.2519V360.563h4.2519v-1.9146h-4.9729v-2.1259h7.2034v11.8418h2.7597Zm-9.9631-13.6343-1.2302,1.5103a18.79887,18.79887,0,0,0-2.7227-2.0904,21.00561,21.00561,0,0,1-3.1992,2.1963l-1.4394-1.2646a13.97123,13.97123,0,0,0,2.9863-1.6519,30.96452,30.96452,0,0,0-3.461-1.125l.8963-1.6162a32.60916,32.60916,0,0,1,3.918,1.2651,14.93218,14.93218,0,0,0,2.09-2.4072l1.4766,1.1777a11.203,11.203,0,0,1-1.8262,2.126A13.14283,13.14283,0,0,1,358.40777,360.458Zm.2112,6.3955-1.4766,1.1597a16.27565,16.27565,0,0,0-2.9511-1.8101,18.9767,18.9767,0,0,1-3.375,1.8101l-1.336-1.0547a17.30492,17.30492,0,0,0,3.252-1.8623,17.85843,17.85843,0,0,0-2.9864-1.3701l1.3164-1.1074a21.9734,21.9734,0,0,1,3.0936,1.353,14.82775,14.82775,0,0,0,1.9846-1.6865l1.6172.8261a8.86173,8.86173,0,0,1-2.002,1.9146A13.13321,13.13321,0,0,1,358.619,366.85349Z" fill="#a39b4b"/><path d="M392.9949,367.29249q3.5511,3.9888,3.551,7.7837a4.28443,4.28443,0,0,1-.959,2.9341,3.37478,3.37478,0,0,1-2.6797,1.0898,13.96144,13.96144,0,0,1-2.2832-.228l-.6504-2.3374a12.69972,12.69972,0,0,0,2.7051.4746,1.78688,1.78688,0,0,0,1.2481-.5274,1.83411,1.83411,0,0,0,.5625-1.4057,8.43988,8.43988,0,0,0-.9649-3.3736,13.47821,13.47821,0,0,0-2.9004-3.9174l3.4258-8.8038H388.833v27.99028h-2.3027V356.75049h9.8555v2.2309Zm24.2307,13.2309a12.12834,12.12834,0,0,1-1.2307,4.12846,2.70847,2.70847,0,0,1-2.5115,1.2832h-2.7402q-2.7426,0-2.7422-2.88135v-9.29491h-3.707q-.1056,5.65725-2.2051,8.47753-2.1006,2.81982-7.793,4.73535l-1.4766-2.021q5.2881-1.563,7.2579-4.04148,1.96875-2.4771,1.9843-7.1153h-4.8147v-2.3022h18.8206v2.2671h-5.8711v8.75a1.33855,1.33855,0,0,0,.2813.81689.816.816,0,0,0,.6679.37744h2.2324q.68565,0,1.045-1.12451a17.9066,17.9066,0,0,0,.6074-2.91651Zm-2.0217-15.9365-2.2303.0352v-3.0928h-13.248v3.0928H397.458v-5.3242h7.7129v-3.9883h2.3027v3.9536h7.7303Zm-2.951,3.3906H400.376v-2.3012h11.8769Z" fill="#a39b4b"/><path d="M465.85193,380.61079h-14.1445v2.44291q0,3.917-4.1641,3.918h-2.3359l-.8614-2.16113h3.2676q1.72275,0,1.7227-1.58155v-2.6182h-15.4278v-2.1962h15.4278v-1.5113a21.92694,21.92694,0,0,0,5.2519-2.5649h-13.459v-2.021h17.3594v1.915a53.60837,53.60837,0,0,1-6.7812,3.813v.3692h14.1445Zm-1.4766-6.5185h-2.1074v-3.6372H437.723v3.8476h-2.3027v-5.9028h3.0232v-10.7183a11.641,11.641,0,0,0,5.4631-2.372l1.1599,1.6167a10.34924,10.34924,0,0,1-4.3572,2.2314v1.4756h4.4981v1.8276h-4.4981v1.9151h4.4981v1.792h-4.4981v2.2319h18.6758V366.168H455.098v-1.7569h4.2871v-2.0556h-4.25V360.563h4.25v-1.9146h-4.9707v-2.1259h7.2031v11.8418h2.7578Zm-9.9609-13.6343-1.2324,1.5103a18.68832,18.68832,0,0,0-2.7227-2.0904,20.99963,20.99963,0,0,1-3.1972,2.1963l-1.4417-1.2646a13.92657,13.92657,0,0,0,2.9885-1.6519,30.9707,30.9707,0,0,0-3.4609-1.125l.8945-1.6162a32.41476,32.41476,0,0,1,3.918,1.2651,14.94736,14.94736,0,0,0,2.0918-2.4072l1.4766,1.1777a11.21517,11.21517,0,0,1-1.8284,2.126A13.10038,13.10038,0,0,1,454.41443,360.458Zm.209,6.3955-1.4746,1.1597a16.3418,16.3418,0,0,0-2.9512-1.8101,19.04383,19.04383,0,0,1-3.375,1.8101l-1.334-1.0547a17.40182,17.40182,0,0,0,3.25-1.8623,17.81074,17.81074,0,0,0-2.9883-1.3701l1.3184-1.1074a21.86658,21.86658,0,0,1,3.0918,1.353,14.95277,14.95277,0,0,0,1.9863-1.6865l1.6153.8261a8.77947,8.77947,0,0,1-2.002,1.9146A12.99492,12.99492,0,0,1,454.62343,366.85349Z" fill="#a39b4b"/><path d="M513.96847,385.21435H481.99v-2.26612h14.9004V374.707H486.154v-2.2666h10.7364V365.272h-7.961a18.66488,18.66488,0,0,1-4.8144,6.9048l-2.3184-1.2124a19.412,19.412,0,0,0,6.4141-13.0367l2.3711.6851a26.40814,26.40814,0,0,1-.8262,4.4282h7.0996v-7.6963h2.3711v7.6607h12.4043v2.2666h-12.4043v7.1338h10.5781v2.2661h-10.5781v8.2407h14.7422Z" fill="#a39b4b"/><path d="M562.3301,363.44429l-1.2637,1.8277a37.4875,37.4875,0,0,1-9.3828-3.4082v1.5805H539.8047v-1.7392a35.57906,35.57906,0,0,1-9.2051,3.4614l-1.1601-1.8452a38.95056,38.95056,0,0,0,16.4453-8.0469l2.1621.7207a3.03177,3.03177,0,0,1-.6153.6148A34.40106,34.40106,0,0,0,562.3301,363.44429Zm-3.7403,10.0684H533.0781V365.272h25.5117Zm-2.092,13.49316h-2.1619v-1.40527H537.3633v1.40527h-2.1602V375.35739h21.2947Zm-11.7205-15.39116v-4.3925h-9.539v4.3925Zm9.5586,7.9419V377.29H537.3633v2.2666Zm0,4.14652v-2.30126H537.3633v2.30126Zm-11.8945-13.82762-1.8105,1.2651a12.62211,12.62211,0,0,0-3.1973-2.4424l1.8281-1.0537A9.02185,9.02185,0,0,1,542.4414,369.87549Zm8.5215-8.3809a22.12963,22.12963,0,0,1-4.9375-3.6025,26.99813,26.99813,0,0,1-5.709,3.6025Zm5.4648,10.1201v-4.3925h-9.4882v4.3925Zm-2.125-3.3554a8.3876,8.3876,0,0,1-3.1289,2.811l-1.9316-.9658a9.12774,9.12774,0,0,0,3.1621-2.6011Z" fill="#a39b4b"/></g></svg>