<svg xmlns="http://www.w3.org/2000/svg" xmlns:xlink="http://www.w3.org/1999/xlink" viewBox="0 0 2900.0352 708.6728"><defs><clipPath id="a"><rect width="2900.0352" height="708.6728" fill="none"/></clipPath></defs><g clip-path="url(#a)"><path d="M158.44139,271.5732a210.71819,210.71819,0,0,0-16.1709,67.4258,20.76317,20.76317,0,0,1,27.3545.957c7.3379-95.5927,87.2246-170.872,184.7012-170.872a13.6758,13.6758,0,0,0,0-27.3516,212.807,212.807,0,0,0-195.8848,129.8408Z" fill="#fff"/><path d="M339.18559,538.9697c-94.9551-7.6826-169.6729-86.9639-170.1016-183.7959a13.67575,13.67575,0,1,0-27.3515,0A212.43392,212.43392,0,0,0,338.09959,566.332a20.75273,20.75273,0,0,1,1.086-27.3623Z" fill="#fff"/><path d="M502.52739,487.4121a13.67773,13.67773,0,0,0-19.3408,0,184.6382,184.6382,0,0,1-128.8604,52.1767,13.6758,13.6758,0,0,0,0,27.3516,211.90438,211.90438,0,0,0,148.2012-60.1865A13.672,13.672,0,0,0,502.52739,487.4121Z" fill="#fff"/><path d="M354.32619,566.9404a13.6758,13.6758,0,0,1,0-27.3516,184.6382,184.6382,0,0,0,128.8604-52.1767,13.67636,13.67636,0,1,1,19.3408,19.3418,211.90438,211.90438,0,0,1-148.2012,60.1865Zm-82.7666-16.7187a212.4163,212.4163,0,0,1-129.8271-195.0479,13.67575,13.67575,0,1,1,27.3515,0c.4287,96.832,75.1465,176.1133,170.1016,183.7959a20.75273,20.75273,0,0,0-1.086,27.3623A210.755,210.755,0,0,1,271.55959,550.2217Zm82.7666-408.4893a13.6758,13.6758,0,0,1,0,27.3516c-97.4766,0-177.3633,75.2793-184.7012,170.872a20.76317,20.76317,0,0,0-27.3545-.957,212.43844,212.43844,0,0,1,212.0557-197.2666Z" fill="#fff"/><path d="M466.91309,241.75A159.227,159.227,0,1,0,513.545,354.3359,158.17988,158.17988,0,0,0,466.91309,241.75Z" fill="#fff"/><path d="M242.11619,405.8261V302.8476H264.4493v7.6123H251.50389v87.7539H264.4493v7.6123Z" fill="#333e48"/><path d="M466.53809,302.8476V405.8261H444.208v-7.6123h12.9395V310.4599H444.208v-7.6123Z" fill="#333e48"/><path d="M293.98639,375.2558q0,3.0879.0947,7.2715.09525,4.18365.2598,8.4971.15961,4.311.3867,8.2392.2211,3.9258.5449,6.5625h-13.1934V333.0957q0-9.39555-.3222-17.0225-.31935-7.62885-.9658-13.2256h13.1953Z" fill="#00c2f3"/><path d="M351.59279,340.1767v8.4336h-12.1006v48.7862h12.1006v8.4316h-36.042v-8.4316h11.9063V348.6103h-11.9063v-8.4336Z" fill="#00c2f3"/><path d="M378.627,340.1767a22.4872,22.4872,0,0,1,.7715,2.6739c.2607,1.0927.4922,2.2392.709,3.4414q.31785,1.80165.58,3.54l.51181,2.8926q6.1815-7.33305,12.42279-10.585a27.81984,27.81984,0,0,1,13.002-3.25,22.834,22.834,0,0,1,9.1074,1.7051,16.06178,16.06178,0,0,1,6.6631,5.4063,26.4826,26.4826,0,0,1,4.0869,9.5908,62.89746,62.89746,0,0,1,1.38281,14.1953v28.959a71.98248,71.98248,0,0,1-1.90041,18.0547,30.91641,30.91641,0,0,1-5.30859,11.4609,18.64656,18.64656,0,0,1-8.207,6.0469,30.54938,30.54938,0,0,1-10.65241,1.7715,23.01673,23.01673,0,0,1-6.2099-.9336,23.49065,23.49065,0,0,1-6.0176-2.6075l4.1836-9.6552a12.86121,12.86121,0,0,0,3.958,1.8359,17.59953,17.59953,0,0,0,5.0498.7383,14.57016,14.57016,0,0,0,5.54-.9961,9.23117,9.23117,0,0,0,4.14851-3.5068,19.19525,19.19525,0,0,0,2.60839-6.8877,56.88165,56.88165,0,0,0,.9004-11.1358V374.6113a78.51437,78.51437,0,0,0-.8047-12.5176,21.59487,21.59487,0,0,0-2.41509-7.4668,8.00439,8.00439,0,0,0-4.02441-3.5742,16.11717,16.11717,0,0,0-5.6299-.9004,15.12174,15.12174,0,0,0-6.788,1.6445,25.00271,25.00271,0,0,0-6.085,4.2461,31.61735,31.61735,0,0,0-4.88969,5.8887,27.10452,27.10452,0,0,0-3.15621,6.5645v37.332h-11.9053v-39.584a100.58688,100.58688,0,0,0-1.0957-16.123,81.72291,81.72291,0,0,0-2.124-9.9444Z" fill="#00c2f3"/><text transform="translate(2037.91117 381.84177)" font-size="80" fill="#fff" font-family="FiraSans-Bold, Fira Sans" font-weight="700">Se<tspan x="90.07715" y="0" letter-spacing="-0.00699em">s</tspan><tspan x="127.91699" y="0" letter-spacing="0.00001em">sion</tspan><tspan x="281.27637" y="0" letter-spacing="0.70524em"> </tspan><tspan x="356.65527" y="0" letter-spacing="-0.00001em">2020–2021</tspan></text><rect x="1925.9493" y="242.8994" width="3" height="228.4463" fill="#fff"/><path d="M626.66608,336.834V236.3633h12.0908v89.8193h42.7509V336.834Z" fill="#fff"/><path d="M703.38578,245.1435q-3.74565,0-5.39748-1.7988a6.63023,6.63023,0,0,1-1.65622-4.6787v-1.8711a6.636,6.636,0,0,1,1.65622-4.6777q1.65237-1.79895,5.39748-1.7998,3.74115,0,5.3974,1.7998a6.644,6.644,0,0,1,1.6553,4.6777v1.8711a6.63832,6.63832,0,0,1-1.6553,4.6787Q707.12793,245.145,703.38578,245.1435Zm-5.7578,17.418h11.5156V336.834H697.628Z" fill="#fff"/><path d="M733.6133,336.834V262.5615h11.51558v11.9531h.5762a24.203,24.203,0,0,1,7.70022-9.9746q4.96722-3.70455,13.31448-3.706,11.515,0,18.2089,7.4121,6.693,7.41495,6.6934,20.9433V336.834h-11.5146V291.1054q0-20.05215-16.8418-20.0527a25.88782,25.88782,0,0,0-6.69338.8662,19.47174,19.47174,0,0,0-5.83012,2.5977,12.83133,12.83133,0,0,0-4.1025,4.3994,12.53094,12.53094,0,0,0-1.5108,6.2754V336.834Z" fill="#fff"/><path d="M874.38768,334.3877q0,15.3999-8.6367,24.1816-8.6367,8.77875-24.3262,8.7813a39.36588,39.36588,0,0,1-15.6181-2.8184,31.87524,31.87524,0,0,1-10.8672-7.4473l6.7656-7.9521a26.13634,26.13634,0,0,0,8.6367,5.9267,28.99954,28.99954,0,0,0,11.3711,2.0704q10.0737,0,15.6172-5.5635,5.5401-5.57085,5.542-16.4121V324.8808h-.5752a24.44853,24.44853,0,0,1-8.6367,10.2598,23.75022,23.75022,0,0,1-13.0996,3.4219,28.24256,28.24256,0,0,1-12.5225-2.7354,26.53229,26.53229,0,0,1-9.5-7.7724,37.40766,37.40766,0,0,1-6.0459-12.2354,61.2927,61.2927,0,0,1,0-32.2432,37.45573,37.45573,0,0,1,6.0459-12.2353,26.56388,26.56388,0,0,1,9.5-7.7725,28.22976,28.22976,0,0,1,12.5225-2.7343,25.29563,25.29563,0,0,1,13.3154,3.3476,20.91925,20.91925,0,0,1,8.4209,10.333h.5752V262.5615h11.5156Zm-30.372-6.0459a25.98983,25.98983,0,0,0,7.3418-1.0127,17.81629,17.81629,0,0,0,5.9726-2.9658,14.84782,14.84782,0,0,0,4.0313-4.7725,13.74189,13.74189,0,0,0,1.5107-6.583V285.376a11.91651,11.91651,0,0,0-1.4394-5.7159,13.527,13.527,0,0,0-4.0303-4.5566,20.88269,20.88269,0,0,0-6.0449-2.9639,24.35821,24.35821,0,0,0-7.3418-1.0869q-9.79107,0-15.545,6.2217-5.7597,6.2211-5.7578,16.0576v12.7305q0,9.8364,5.7578,16.0586Q834.22468,328.34085,844.01568,328.3418Z" fill="#fff"/><path d="M944.6289,324.8808h-.5761a35.34845,35.34845,0,0,1-2.8067,5.0606,18.90011,18.90011,0,0,1-4.1015,4.417,19.18912,19.18912,0,0,1-5.9024,3.0634,25.76055,25.76055,0,0,1-8.0605,1.1407q-11.51675,0-18.28032-7.4141-6.76755-7.4121-6.7656-20.9433V262.5615h11.5156V308.289q0,20.0538,16.98542,20.0528a25.726,25.726,0,0,0,6.6933-.8662,18.47392,18.47392,0,0,0,5.7578-2.5948,13.10966,13.10966,0,0,0,4.0293-4.3994,12.82963,12.82963,0,0,0,1.5117-6.4209v-51.499h11.5157V336.834H944.6289Z" fill="#fff"/><path d="M986.3711,245.1435q-3.74415,0-5.3974-1.7988a6.62978,6.62978,0,0,1-1.6553-4.6787v-1.8711a6.63548,6.63548,0,0,1,1.6553-4.6777q1.65375-1.79895,5.3974-1.7998,3.7413,0,5.3985,1.7998a6.64842,6.64842,0,0,1,1.6543,4.6777v1.8711a6.64268,6.64268,0,0,1-1.6543,4.6787Q990.11285,245.145,986.3711,245.1435Zm-5.7578,17.418h11.5156V336.834H980.6133Z" fill="#fff"/><path d="M1038.9102,338.5625q-10.3638,0-17.3447-3.959a39.407,39.407,0,0,1-12.0196-10.5801l8.2051-6.6211a32.214,32.214,0,0,0,9.6436,8.4199,25.10915,25.10915,0,0,0,12.3798,2.9512q7.3404,0,11.4424-3.166a11.50393,11.50393,0,0,0,1.2959-16.3379q-2.808-3.09375-10.1484-4.2461l-5.9014-.8633a49.21622,49.21622,0,0,1-9.5-2.2314,26.39976,26.39976,0,0,1-7.5566-4.0303,17.30011,17.30011,0,0,1-5.0381-6.2617,20.39427,20.39427,0,0,1-1.7988-8.9238,21.45024,21.45024,0,0,1,2.0146-9.5723,19.26569,19.26569,0,0,1,5.542-6.8379,24.21585,24.21585,0,0,1,8.4199-4.1016,38.92319,38.92319,0,0,1,10.5078-1.3671q9.06885,0,15.1856,3.166a34.08446,34.08446,0,0,1,10.7246,8.7802l-7.6289,6.9092a22.90612,22.90612,0,0,0-7.1973-6.2607,23.17089,23.17089,0,0,0-11.9472-2.8076q-7.1997,0-10.8672,3.0957a10.43628,10.43628,0,0,0-3.6709,8.4199q0,5.4726,3.6709,7.916,3.66945,2.4507,10.5791,3.5996l5.7578.8633q12.37785,1.872,17.5615,7.125,5.18115,5.25735,5.1817,13.7461,0,10.79595-7.3418,16.9853Q1051.7212,338.564,1038.9102,338.5625Z" fill="#fff"/><path d="M1102.1026,336.834q-6.04695,0-9.1407-3.3731a12.5526,12.5526,0,0,1-3.0947-8.834V272.7802h-12.2353V262.5615h6.9101q3.7398,0,5.1094-1.5127,1.3653-1.5102,1.3672-5.2539V241.9765h10.3633v20.585h16.2656v10.2187h-16.2656v53.835h15.1142V336.834Z" fill="#fff"/><path d="M1141.9737,245.1435q-3.74415,0-5.3975-1.7988a6.62978,6.62978,0,0,1-1.6553-4.6787v-1.8711a6.63548,6.63548,0,0,1,1.6553-4.6777q1.6524-1.79895,5.3975-1.7998,3.74115,0,5.3984,1.7998a6.648,6.648,0,0,1,1.6543,4.6777v1.8711a6.64223,6.64223,0,0,1-1.6543,4.6787Q1145.71535,245.145,1141.9737,245.1435Zm-5.7578,17.418h11.5156V336.834h-11.5156Z" fill="#fff"/><path d="M1199.8389,338.5625a34.23235,34.23235,0,0,1-13.9629-2.7354,28.48154,28.48154,0,0,1-10.4355-7.7724,34.58827,34.58827,0,0,1-6.4776-12.2354,59.354,59.354,0,0,1,0-32.2432,34.63008,34.63008,0,0,1,6.4776-12.2353,28.515,28.515,0,0,1,10.4355-7.7725,34.21737,34.21737,0,0,1,13.9629-2.7343q11.08155,0,17.7764,4.8212a29.42391,29.42391,0,0,1,10.0039,12.5948l-9.6436,4.8945a17.50565,17.50565,0,0,0-6.6211-8.9248,19.88027,19.88027,0,0,0-11.5156-3.167,23.01466,23.01466,0,0,0-9.0684,1.6563,17.72556,17.72556,0,0,0-6.4785,4.6054,19.40418,19.40418,0,0,0-3.8857,7.0528,29.77546,29.77546,0,0,0-1.2959,8.9961v12.6679q0,9.7911,5.2539,16.0489,5.25285,6.2622,15.4746,6.2617,13.9599,0,20.1514-12.9551l8.3486,5.6143a29.4947,29.4947,0,0,1-10.7236,12.8115Q1210.4903,338.5615,1199.8389,338.5625Z" fill="#fff"/><path d="M1266.9141,338.5625q-10.3638,0-17.3447-3.959a39.407,39.407,0,0,1-12.0196-10.5801l8.2051-6.6211a32.214,32.214,0,0,0,9.6436,8.4199,25.10927,25.10927,0,0,0,12.3799,2.9512q7.34025,0,11.4423-3.166a11.50393,11.50393,0,0,0,1.2959-16.3379q-2.80665-3.09375-10.1484-4.2461l-5.9014-.8633a49.21622,49.21622,0,0,1-9.5-2.2314,26.39976,26.39976,0,0,1-7.5566-4.0303,17.30011,17.30011,0,0,1-5.0381-6.2617,20.39427,20.39427,0,0,1-1.7988-8.9238,21.45024,21.45024,0,0,1,2.0146-9.5723,19.26569,19.26569,0,0,1,5.542-6.8379,24.21585,24.21585,0,0,1,8.4199-4.1016,38.92341,38.92341,0,0,1,10.5079-1.3671q9.06885,0,15.1855,3.166a34.08446,34.08446,0,0,1,10.7246,8.7802l-7.6289,6.9092a22.905,22.905,0,0,0-7.1973-6.2607,23.17089,23.17089,0,0,0-11.9472-2.8076q-7.1997,0-10.8672,3.0957a10.43628,10.43628,0,0,0-3.6709,8.4199q0,5.4726,3.6709,7.916,3.66945,2.4507,10.5791,3.5996l5.7578.8633q12.378,1.872,17.5615,7.125,5.18115,5.25735,5.1817,13.7461,0,10.79595-7.3418,16.9853Q1279.7251,338.564,1266.9141,338.5625Z" fill="#fff"/><path d="M1378.0362,338.5625q-12.236,0-20.8721-4.6787a44.287,44.287,0,0,1-14.6816-12.8828l8.9248-7.4854a39.096,39.096,0,0,0,11.8027,10.7246,30.44205,30.44205,0,0,0,15.2578,3.6699q10.796,0,16.4815-5.1816,5.685-5.18265,5.6855-13.8184,0-7.1952-4.3184-11.083-4.31685-3.8877-14.25-6.1904l-8.2041-1.8711q-13.81935-3.1641-21.0879-9.5713-7.2699-6.40425-7.2695-18.0654a27.2999,27.2999,0,0,1,2.4473-11.8028,23.66764,23.66764,0,0,1,6.8379-8.6367,30.85519,30.85519,0,0,1,10.5068-5.2539,47.58069,47.58069,0,0,1,13.459-1.7998q11.36865,0,19.5039,4.1748a37.57968,37.57968,0,0,1,13.7471,12.2344l-9.0684,6.6211a31.32912,31.32912,0,0,0-10.0762-9.0684q-5.90325-3.309-14.6826-3.3105-9.64455,0-15.1855,4.1025-5.543,4.1031-5.542,12.3076,0,7.19835,4.6777,10.8672,4.6758,3.671,14.1787,5.8301l8.2041,1.8711q14.8242,3.3135,21.4483,10.0762,6.61965,6.76605,6.6211,17.9922a31.848,31.848,0,0,1-2.375,12.5234,25.69882,25.69882,0,0,1-6.8369,9.5,31.821,31.821,0,0,1-10.8672,6.0449A45.13915,45.13915,0,0,1,1378.0362,338.5625Z" fill="#fff"/><path d="M1460.3702,338.5625a33.49006,33.49006,0,0,1-13.6749-2.7354,29.45993,29.45993,0,0,1-10.5791-7.8447,36.91106,36.91106,0,0,1-6.8378-12.2354,53.61521,53.61521,0,0,1,0-32.0273,36.81709,36.81709,0,0,1,6.8378-12.3066,29.495,29.495,0,0,1,10.5791-7.8448,33.4749,33.4749,0,0,1,13.6749-2.7343,32.99066,32.99066,0,0,1,13.6025,2.7343,30.37154,30.37154,0,0,1,10.5791,7.8448,36.218,36.218,0,0,1,6.9101,12.3066,53.63613,53.63613,0,0,1,0,32.0273,36.30748,36.30748,0,0,1-6.9101,12.2354,30.3342,30.3342,0,0,1-10.5791,7.8447A33.00549,33.00549,0,0,1,1460.3702,338.5625Zm0-10.2207q9.35445,0,15.2578-5.7578,5.9004-5.7555,5.9013-17.5606V294.3711q0-11.8008-5.9013-17.5606-5.9034-5.75385-15.2578-5.7578-9.359,0-15.2579,5.7578-5.90475,5.75985-5.9023,17.5606v10.6523q0,11.80515,5.9023,17.5606Q1451.0127,328.3437,1460.3702,328.3418Z" fill="#fff"/><path d="M1540.5459,338.5625a34.229,34.229,0,0,1-13.9629-2.7354,28.48154,28.48154,0,0,1-10.4355-7.7724,34.58811,34.58811,0,0,1-6.4775-12.2354,59.35146,59.35146,0,0,1,0-32.2432,34.62992,34.62992,0,0,1,6.4775-12.2353,28.515,28.515,0,0,1,10.4355-7.7725,34.214,34.214,0,0,1,13.9629-2.7343q11.08155,0,17.7754,4.8212a29.42608,29.42608,0,0,1,10.0049,12.5948l-9.6445,4.8945a17.49577,17.49577,0,0,0-6.6211-8.9248,19.87534,19.87534,0,0,0-11.5147-3.167,23.01925,23.01925,0,0,0-9.0693,1.6563,17.72177,17.72177,0,0,0-6.4775,4.6054,19.40289,19.40289,0,0,0-3.8858,7.0528,29.7473,29.7473,0,0,0-1.2959,8.9961v12.6679q0,9.7911,5.2539,16.0489,5.253,6.2622,15.4746,6.2617,13.95855,0,20.1514-12.9551l8.3486,5.6143a29.49685,29.49685,0,0,1-10.7246,12.8115Q1551.1978,338.5615,1540.5459,338.5625Z" fill="#fff"/><path d="M1591.0674,245.1435q-3.74415,0-5.3974-1.7988a6.62978,6.62978,0,0,1-1.6553-4.6787v-1.8711a6.63548,6.63548,0,0,1,1.6553-4.6777q1.65225-1.79895,5.3974-1.7998,3.7413,0,5.3985,1.7998a6.64842,6.64842,0,0,1,1.6543,4.6777v1.8711a6.64268,6.64268,0,0,1-1.6543,4.6787Q1594.80915,245.145,1591.0674,245.1435Zm-5.7578,17.418h11.5156V336.834h-11.5156Z" fill="#fff"/><path d="M1649.2198,338.5625a33.34863,33.34863,0,0,1-13.7461-2.7354,29.61274,29.61274,0,0,1-10.5078-7.8447,35.96866,35.96866,0,0,1-6.7657-12.2354,55.174,55.174,0,0,1,0-32.0273,35.88994,35.88994,0,0,1,6.7657-12.3066,29.64849,29.64849,0,0,1,10.5078-7.8448,33.33393,33.33393,0,0,1,13.7461-2.7343,31.58177,31.58177,0,0,1,13.3867,2.7255,29.68472,29.68472,0,0,1,10.0762,7.5323,33.59113,33.59113,0,0,1,6.4052,11.4023,45.01866,45.01866,0,0,1,2.2315,14.4863v5.4512H1627.917v3.4551a25.43624,25.43624,0,0,0,1.5108,8.8535,21.01843,21.01843,0,0,0,4.3183,7.124,19.74756,19.74756,0,0,0,6.9092,4.751,23.72961,23.72961,0,0,0,9.2842,1.7266,22.58862,22.58862,0,0,0,12.3076-3.3106,21.72051,21.72051,0,0,0,8.1328-9.5l8.2041,5.9395a28.66071,28.66071,0,0,1-11.2275,12.3838A33.86229,33.86229,0,0,1,1649.2198,338.5625Zm0-68.085a21.93276,21.93276,0,0,0-8.6368,1.6465,19.43353,19.43353,0,0,0-6.6933,4.6484,21.798,21.798,0,0,0-4.3897,7.0811,24.45633,24.45633,0,0,0-1.583,8.9414v1.001h41.0235v-1.5752q0-9.87015-5.3985-15.8057Q1658.1441,270.478,1649.2198,270.4775Z" fill="#fff"/><path d="M1716.7276,336.834q-6.04395,0-9.1397-3.3731a12.54806,12.54806,0,0,1-3.0947-8.834V272.7802h-12.2354V262.5615h6.9092q3.7413,0,5.1104-1.5127,1.36665-1.5102,1.3672-5.2539V241.9765h10.3642v20.585h16.2656v10.2187h-16.2656v53.835h15.1133V336.834Z" fill="#fff"/><path d="M1796.6153,262.5615h11.372l-33.2509,91.5459a40.88686,40.88686,0,0,1-2.5909,5.541,10.795,10.795,0,0,1-3.1669,3.5274,12.58875,12.58875,0,0,1-4.6778,1.871,34.71467,34.71467,0,0,1-6.8369.5762h-5.9023V355.4033h11.6591l5.6143-15.8086-27.7813-77.0332h11.5157l17.8486,50.4258,3.4541,12.0693h.7207l4.0293-12.0693Z" fill="#fff"/><path d="M646.794,477.7529l-3.6104-11.4766h-15.9902l-3.5459,11.4766h-8.6406l15.0879-45.0039H640.669l14.958,45.0039Zm-11.4766-37.2656h-.3222l-5.7383,18.5039h11.8633Z" fill="#fff"/><path d="M692.11918,477.7529l-3.6104-11.4766h-15.9902l-3.5459,11.4766h-8.6406L675.42,432.749h10.5742l14.958,45.0039Zm-11.4766-37.2656h-.32228l-5.73822,18.5039H686.4453Z" fill="#fff"/><path d="M736.1563,458.7334H717.39358v19.0195h-8.5108V432.749h8.5108v18.4395H736.1563V432.749H744.667v45.0039H736.1563Z" fill="#fff"/><path d="M771.03708,457.3799l-5.996,7.0918v13.2812H756.5303V432.749h8.51078v22.1797h.32222l6.38278-8.4453,11.1543-13.7344h9.8008l-15.668,18.7617,16.95712,26.2422H783.86818Z" fill="#fff"/><path d="M809.59378,432.749v27.6602q0,5.288,2.0312,7.9316,2.0304,2.64255,6.8662,2.6426,4.83555,0,6.8672-2.6426,2.03025-2.64555,2.0303-7.9316V432.749h8.3818v26.5645a34.52473,34.52473,0,0,1-.9345,8.5742,14.6123,14.6123,0,0,1-2.9981,5.998,12.09434,12.09434,0,0,1-5.3838,3.5137,25.17406,25.17406,0,0,1-8.0273,1.1269,24.79237,24.79237,0,0,1-8.0274-1.1269,12.11359,12.11359,0,0,1-5.3193-3.5137,14.29187,14.29187,0,0,1-2.96578-5.998,35.652,35.652,0,0,1-.90242-8.5742V432.749Z" fill="#fff"/></g></svg>