<svg xmlns="http://www.w3.org/2000/svg" xmlns:xlink="http://www.w3.org/1999/xlink" viewBox="0 0 1958.72068 708.67291"><defs><clipPath id="a"><rect x="0.001" y="0.001" width="1958.71968" height="708.6738" fill="none"/></clipPath></defs><g clip-path="url(#a)"><path d="M158.4424,271.57522a210.71342,210.71342,0,0,0-16.1709,67.4258,20.76317,20.76317,0,0,1,27.3545.957c7.3379-95.59369,87.2246-170.873,184.7011-170.873a13.6758,13.6758,0,0,0,0-27.3516A212.8089,212.8089,0,0,0,158.4424,271.57522Z" fill="#fff"/><path d="M339.1865,538.97172c-94.9551-7.6836-169.6728-86.9648-170.1015-183.79692a13.6758,13.6758,0,0,0-27.3516,0A212.43008,212.43008,0,0,0,338.1006,566.333a20.75124,20.75124,0,0,1,1.0859-27.3613Z" fill="#fff"/><path d="M502.5283,487.41312a13.68014,13.68014,0,0,0-19.3408,0A184.63031,184.63031,0,0,1,354.3271,539.5908a13.67581,13.67581,0,0,0,0,27.35162,211.89936,211.89936,0,0,0,148.2012-60.1875A13.67182,13.67182,0,0,0,502.5283,487.41312Z" fill="#fff"/><path d="M354.3271,566.94242a13.67581,13.67581,0,0,1,0-27.35162,184.63031,184.63031,0,0,0,128.8604-52.17768,13.67636,13.67636,0,0,1,19.3408,19.3418,211.89936,211.89936,0,0,1-148.2012,60.1875Zm-82.7666-16.7187A212.419,212.419,0,0,1,141.7334,355.1748a13.6758,13.6758,0,0,1,27.3516,0c.4287,96.83212,75.1464,176.11332,170.1015,183.79692a20.75124,20.75124,0,0,0-1.0859,27.3613A210.78184,210.78184,0,0,1,271.5605,550.22372ZM354.3271,141.7334a13.6758,13.6758,0,0,1,0,27.3516c-97.4765,0-177.3632,75.27933-184.7011,170.873a20.76317,20.76317,0,0,0-27.3545-.957A212.43853,212.43853,0,0,1,354.3271,141.7334Z" fill="#fff"/><path d="M466.9141,241.751a159.22739,159.22739,0,1,0,46.6318,112.58789A158.18321,158.18321,0,0,0,466.9141,241.751Z" fill="#fff"/><path d="M242.1172,405.82722V302.84872h22.333v7.6132H251.5049V398.2158h12.9453v7.61142Z" fill="#333e48"/><path d="M466.5391,302.84872v102.9785H444.209V398.2158h12.9394V310.46192H444.209v-7.6132Z" fill="#333e48"/><path d="M293.9873,375.2588q0,3.08508.0947,7.27152.09525,4.18365.2598,8.4961.1596,4.3095.3867,8.2383.22125,3.9258.5449,6.5625H282.0801v-72.7305q0-9.39555-.3223-17.0215-.31935-7.62885-.9658-13.2265h13.1953Z" fill="#333e48"/><path d="M351.5937,340.17872v8.4336H339.4932v48.7852h12.1005v8.4316h-36.042v-8.4316H327.458v-48.7852H315.5517v-8.4336Z" fill="#333e48"/><path d="M378.6279,340.17872a22.44938,22.44938,0,0,1,.7715,2.6739c.2607,1.0918.4922,2.23818.709,3.4414q.31785,1.80165.5801,3.539l.5117,2.8946q6.18165-7.336,12.4228-10.586a27.82014,27.82014,0,0,1,13.002-3.25,22.834,22.834,0,0,1,9.1074,1.7051,16.05418,16.05418,0,0,1,6.6631,5.4063,26.47346,26.47346,0,0,1,4.0869,9.59178,62.86151,62.86151,0,0,1,1.3828,14.19332v28.959a71.98225,71.98225,0,0,1-1.9004,18.05468,30.90783,30.90783,0,0,1-5.3086,11.46092,18.63823,18.63823,0,0,1-8.207,6.0469,30.526,30.526,0,0,1-10.6523,1.7715,23.01742,23.01742,0,0,1-6.21-.9336,23.42263,23.42263,0,0,1-6.0176-2.6074l4.1836-9.65432a12.88382,12.88382,0,0,0,3.958,1.83592,17.59953,17.59953,0,0,0,5.0498.7383,14.58805,14.58805,0,0,0,5.5401-.9961,9.239,9.239,0,0,0,4.1484-3.5078,19.18108,19.18108,0,0,0,2.6084-6.8867,56.89352,56.89352,0,0,0,.9004-11.1368v-28.3183a78.52366,78.52366,0,0,0-.8047-12.51952,21.59408,21.59408,0,0,0-2.415-7.46678,8.01464,8.01464,0,0,0-4.0244-3.5743,16.1193,16.1193,0,0,0-5.6299-.8984,15.1197,15.1197,0,0,0-6.7881,1.6426,25.01158,25.01158,0,0,0-6.085,4.248,31.48407,31.48407,0,0,0-4.8896,5.8887,27.06724,27.06724,0,0,0-3.1563,6.5644v37.3301H370.2598v-39.582a100.6079,100.6079,0,0,0-1.0957-16.125,81.69879,81.69879,0,0,0-2.1241-9.9434Z" fill="#333e48"/><path d="M626.6665,336.835V236.3638h12.0913v89.81932h42.751V336.835Z" fill="#fff"/><path d="M703.3867,245.14413q-3.7449,0-5.3979-1.7989a6.63294,6.63294,0,0,1-1.6553-4.67873v-1.8711a6.63706,6.63706,0,0,1,1.6553-4.6777q1.653-1.7988,5.3979-1.7998,3.74115,0,5.3975,1.7998a6.64377,6.64377,0,0,1,1.6552,4.6777v1.8711a6.63963,6.63963,0,0,1-1.6552,4.67873Q707.1282,245.14628,703.3867,245.14413ZM697.6289,262.562h11.5156v74.273H697.6289Z" fill="#fff"/><path d="M733.6142,336.835V262.562h11.5157v11.9532h.5757a24.20655,24.20655,0,0,1,7.7006-9.9746q4.96665-3.70473,13.3145-3.7061,11.51445,0,18.209,7.4121,6.69285,7.4151,6.6933,20.9439V336.835H780.1079v-45.7285q0-20.05308-16.8413-20.0528a25.89507,25.89507,0,0,0-6.6939.8658,19.45881,19.45881,0,0,0-5.8295,2.5976,12.83513,12.83513,0,0,0-4.1026,4.3994,12.53,12.53,0,0,0-1.5107,6.2749V336.835Z" fill="#fff"/><path d="M874.3887,334.38822q0,15.39987-8.6368,24.1817-8.6367,8.7795-24.3261,8.7812a39.36633,39.36633,0,0,1-15.6182-2.8184,31.875,31.875,0,0,1-10.8672-7.4472l6.7652-7.9522a26.13949,26.13949,0,0,0,8.6367,5.9268,28.99334,28.99334,0,0,0,11.3711,2.0703q10.07445,0,15.6176-5.5635,5.5401-5.5707,5.542-16.4116v-10.2739h-.5756a24.4432,24.4432,0,0,1-8.6363,10.2597,23.74843,23.74843,0,0,1-13.0991,3.4214,28.24059,28.24059,0,0,1-12.5229-2.7348,26.52875,26.52875,0,0,1-9.5-7.773,37.39533,37.39533,0,0,1-6.0459-12.2348,61.279,61.279,0,0,1,0-32.2432,37.447,37.447,0,0,1,6.0459-12.2354,26.56255,26.56255,0,0,1,9.5-7.7724,28.22675,28.22675,0,0,1,12.5229-2.7344,25.29022,25.29022,0,0,1,13.3149,3.3481,20.90574,20.90574,0,0,1,8.4205,10.3326h.5756V262.562h11.5157Zm-30.3721-6.0459a25.96782,25.96782,0,0,0,7.3413-1.0127,17.80171,17.80171,0,0,0,5.9731-2.96582,14.84478,14.84478,0,0,0,4.0308-4.77248,13.73736,13.73736,0,0,0,1.5112-6.583v-27.6318a11.91607,11.91607,0,0,0-1.4394-5.7158,13.51084,13.51084,0,0,0-4.0303-4.5562,20.87883,20.87883,0,0,0-6.0454-2.9643,24.33554,24.33554,0,0,0-7.3413-1.0865q-9.79035,0-15.5454,6.2212-5.7591,6.2205-5.7578,16.0581v12.73q0,9.8364,5.7578,16.0586Q834.2258,328.34212,844.0166,328.34232Z" fill="#fff"/><path d="M944.6299,324.88142h-.5757a35.44634,35.44634,0,0,1-2.8067,5.0605,18.928,18.928,0,0,1-4.102,4.417,19.21265,19.21265,0,0,1-5.9019,3.0635,25.76691,25.76691,0,0,1-8.061,1.1401q-11.5173,0-18.2803-7.4135-6.76755-7.4115-6.7656-20.9434V262.562h11.5156v45.7276q0,20.0529,16.9849,20.0527a25.74783,25.74783,0,0,0,6.6938-.8662,18.46734,18.46734,0,0,0,5.7574-2.5947,13.11331,13.11331,0,0,0,4.0302-4.3994,12.82968,12.82968,0,0,0,1.5113-6.4214V262.562h11.5156v74.273H944.6299Z" fill="#fff"/><path d="M986.37206,245.14413q-3.74414,0-5.39746-1.7989a6.63069,6.63069,0,0,1-1.6553-4.67873v-1.8711a6.63481,6.63481,0,0,1,1.6553-4.6777q1.65307-1.7988,5.39746-1.7998,3.74194,0,5.39795,1.7998a6.64584,6.64584,0,0,1,1.65527,4.6777v1.8711a6.6417,6.6417,0,0,1-1.65527,4.67873Q990.114,245.14628,986.37206,245.14413ZM980.61474,262.562h11.51513v74.273H980.61474Z" fill="#fff"/><path d="M1038.9111,338.56252q-10.3638,0-17.3447-3.9585a39.41177,39.41177,0,0,1-12.0195-10.58l8.2046-6.6211a32.233,32.233,0,0,0,9.644,8.4204,25.114,25.114,0,0,0,12.3794,2.9511q7.341,0,11.4429-3.1665a11.50417,11.50417,0,0,0,1.2959-16.3379q-2.80815-3.09375-10.148-4.246l-5.9018-.8638a49.171,49.171,0,0,1-9.5-2.231,26.40261,26.40261,0,0,1-7.5567-4.0302,17.2983,17.2983,0,0,1-5.0381-6.2618,20.39559,20.39559,0,0,1-1.7993-8.9238,21.44511,21.44511,0,0,1,2.0152-9.5727,19.26646,19.26646,0,0,1,5.5419-6.837,24.22473,24.22473,0,0,1,8.42-4.102,38.92317,38.92317,0,0,1,10.5083-1.3672q9.0681,0,15.1855,3.166a34.08491,34.08491,0,0,1,10.7241,8.78028l-7.6294,6.90922a22.90272,22.90272,0,0,0-7.1967-6.2608,23.1747,23.1747,0,0,0-11.9473-2.8076q-7.1997,0-10.8677,3.0957a10.43684,10.43684,0,0,0-3.6704,8.4199q0,5.47275,3.6704,7.9165,3.6702,2.45,10.5796,3.5992l5.7578.8632q12.378,1.87215,17.5611,7.125,5.18175,5.25735,5.1821,13.7461,0,10.796-7.3413,16.9854Q1051.72185,338.56447,1038.9111,338.56252Z" fill="#fff"/><path d="M1102.103,336.835q-6.04545,0-9.1401-3.3735a12.55291,12.55291,0,0,1-3.0947-8.8345V272.7808h-12.2354V262.562h6.9097q3.7404,0,5.1098-1.5127,1.36605-1.5102,1.3672-5.2534V241.97713h10.3638V262.562h16.2656V272.7808h-16.2656v53.83492h15.1138V336.835Z" fill="#fff"/><path d="M1141.9751,245.14413q-3.74415,0-5.3984-1.7989a6.63414,6.63414,0,0,1-1.6543-4.67873v-1.8711a6.63826,6.63826,0,0,1,1.6543-4.6777q1.65225-1.7988,5.3984-1.7998,3.74115,0,5.3974,1.7998a6.64337,6.64337,0,0,1,1.6553,4.6777v1.8711a6.63924,6.63924,0,0,1-1.6553,4.67873Q1145.7159,245.14628,1141.9751,245.14413Zm-5.7578,17.41789h11.5156v74.273h-11.5156Z" fill="#fff"/><path d="M1199.83929,338.56252a34.22736,34.22736,0,0,1-13.96189-2.7348,28.46924,28.46924,0,0,1-10.4355-7.773,34.5827,34.5827,0,0,1-6.4785-12.2348,59.37707,59.37707,0,0,1,0-32.2432,34.62767,34.62767,0,0,1,6.4785-12.2354,28.50537,28.50537,0,0,1,10.4355-7.7724,34.21083,34.21083,0,0,1,13.96189-2.7344q11.08155,0,17.7764,4.82128a29.41934,29.41934,0,0,1,10.0039,12.59472l-9.64349,4.8945a17.50174,17.50174,0,0,0-6.62111-8.9248,19.87922,19.87922,0,0,0-11.5157-3.1665,23.02833,23.02833,0,0,0-9.0683,1.6553,17.72426,17.72426,0,0,0-6.47759,4.6065,19.39639,19.39639,0,0,0-3.8867,7.0527,29.77168,29.77168,0,0,0-1.2949,8.9961v12.667q0,9.791,5.2539,16.0493,5.253,6.2622,15.47359,6.2617,13.96005,0,20.1514-12.9551l8.3496,5.6143a29.50166,29.50166,0,0,1-10.7246,12.811Q1210.49069,338.56227,1199.83929,338.56252Z" fill="#fff"/><path d="M1266.91449,338.56252q-10.3623,0-17.3437-3.9585a39.40016,39.40016,0,0,1-12.0195-10.58l8.2041-6.6211a32.23758,32.23758,0,0,0,9.6435,8.4204,25.116,25.116,0,0,0,12.3799,2.9511q7.3404,0,11.4424-3.1665a11.50319,11.50319,0,0,0,1.29691-16.3379q-2.80817-3.09375-10.14851-4.246l-5.9023-.8638a49.17977,49.17977,0,0,1-9.5-2.231,26.41589,26.41589,0,0,1-7.5567-4.0302,17.29568,17.29568,0,0,1-5.0371-6.2618,20.39549,20.39549,0,0,1-1.7998-8.9238,21.45186,21.45186,0,0,1,2.0147-9.5727,19.27456,19.27456,0,0,1,5.5429-6.837,24.21607,24.21607,0,0,1,8.42-4.102,38.91683,38.91683,0,0,1,10.50781-1.3672q9.06734,0,15.18549,3.166a34.08225,34.08225,0,0,1,10.7246,8.78028l-7.6299,6.90922a22.89936,22.89936,0,0,0-7.19719-6.2608,23.17216,23.17216,0,0,0-11.94631-2.8076q-7.2012,0-10.8682,3.0957a10.43872,10.43872,0,0,0-3.6709,8.4199q0,5.47275,3.6709,7.9165,3.66945,2.45,10.5791,3.5992l5.7578.8632q12.378,1.87215,17.56161,7.125,5.18114,5.25735,5.18159,13.7461,0,10.796-7.3408,16.9854Q1279.72514,338.56447,1266.91449,338.56252Z" fill="#fff"/><path d="M1378.03759,338.56252q-12.2373,0-20.8731-4.6782a44.29772,44.29772,0,0,1-14.6816-12.8828l8.9248-7.4854a39.10891,39.10891,0,0,0,11.8037,10.7242,30.43567,30.43567,0,0,0,15.2578,3.6704q10.79595,0,16.4805-5.1817,5.685-5.1825,5.6855-13.8188,0-7.19535-4.3183-11.0825-4.31685-3.8877-14.25-6.1905l-8.2041-1.8711q-13.81785-3.1647-21.0869-9.5712-7.27155-6.4044-7.2696-18.066a27.30376,27.30376,0,0,1,2.4473-11.80269,23.66727,23.66727,0,0,1,6.8369-8.63623,30.8557,30.8557,0,0,1,10.5069-5.2539,47.57687,47.57687,0,0,1,13.4589-1.7998q11.37015,0,19.5039,4.1748a37.57557,37.57557,0,0,1,13.7471,12.23483l-9.0683,6.62109a31.31505,31.31505,0,0,0-10.0752-9.06829q-5.9049-3.3099-14.6836-3.3111-9.64455,0-15.1856,4.1026-5.543,4.10293-5.541,12.30709,0,7.199,4.6777,10.8677,4.6758,3.67005,14.17781,5.83l8.20509,1.8711q14.8242,3.31275,21.4472,10.07568,6.61965,6.767,6.6206,17.99272a31.82976,31.82976,0,0,1-2.3745,12.5234,25.69641,25.69641,0,0,1-6.8359,9.5,31.815,31.815,0,0,1-10.8682,6.0454A45.14031,45.14031,0,0,1,1378.03759,338.56252Z" fill="#fff"/><path d="M1460.3711,338.56252a33.49111,33.49111,0,0,1-13.67581-2.7348,29.44634,29.44634,0,0,1-10.5781-7.8453,36.88486,36.88486,0,0,1-6.8379-12.2348,53.61555,53.61555,0,0,1,0-32.0274,36.80084,36.80084,0,0,1,6.8379-12.3066,29.48423,29.48423,0,0,1,10.5781-7.8447,33.47457,33.47457,0,0,1,13.67581-2.7344,32.98367,32.98367,0,0,1,13.60149,2.7344,30.3573,30.3573,0,0,1,10.5801,7.8447,36.23384,36.23384,0,0,1,6.9102,12.3066,53.6574,53.6574,0,0,1,0,32.0274,36.314,36.314,0,0,1-6.9102,12.2348,30.317,30.317,0,0,1-10.5801,7.8453A32.99987,32.99987,0,0,1,1460.3711,338.56252Zm0-10.2202q9.35443,0,15.25779-5.7578,5.9004-5.75535,5.9004-17.5605v-10.6519q0-11.8008-5.9004-17.561-5.90325-5.75475-15.25779-5.7574-9.36032,0-15.25781,5.7574-5.90625,5.7597-5.9024,17.561V305.024q0,11.80515,5.9024,17.5605Q1451.01369,328.34422,1460.3711,328.34232Z" fill="#fff"/><path d="M1540.54689,338.56252a34.22555,34.22555,0,0,1-13.9629-2.7348,28.46959,28.46959,0,0,1-10.4356-7.773,34.5827,34.5827,0,0,1-6.4785-12.2348,59.37707,59.37707,0,0,1,0-32.2432,34.62767,34.62767,0,0,1,6.4785-12.2354,28.50573,28.50573,0,0,1,10.4356-7.7724,34.209,34.209,0,0,1,13.9629-2.7344q11.08005,0,17.7754,4.82128a29.42742,29.42742,0,0,1,10.0039,12.59472l-9.6446,4.8945a17.4896,17.4896,0,0,0-6.6211-8.9248,19.8723,19.8723,0,0,0-11.5136-3.1665,23.03854,23.03854,0,0,0-9.0703,1.6553,17.71967,17.71967,0,0,0-6.4766,4.6065,19.39492,19.39492,0,0,0-3.8867,7.0527,29.77168,29.77168,0,0,0-1.2949,8.9961v12.667q0,9.791,5.2539,16.0493,5.25285,6.2622,15.4746,6.2617,13.957,0,20.1504-12.9551l8.3496,5.6143a29.50166,29.50166,0,0,1-10.7246,12.811Q1551.19729,338.56227,1540.54689,338.56252Z" fill="#fff"/><path d="M1591.06838,245.14413q-3.74415,0-5.3985-1.7989a6.63459,6.63459,0,0,1-1.6543-4.67873v-1.8711a6.63871,6.63871,0,0,1,1.6543-4.6777q1.6524-1.7988,5.3985-1.7998,3.74115,0,5.3984,1.7998a6.6473,6.6473,0,0,1,1.65432,4.6777v1.8711a6.64316,6.64316,0,0,1-1.65432,4.67873Q1594.80853,245.14628,1591.06838,245.14413Zm-5.7579,17.41789h11.5157v74.273h-11.5157Z" fill="#fff"/><path d="M1649.22068,338.56252a33.34253,33.34253,0,0,1-13.7461-2.7348,29.60343,29.60343,0,0,1-10.5078-7.8453,35.94378,35.94378,0,0,1-6.7656-12.2348,55.17432,55.17432,0,0,1,0-32.0274,35.87454,35.87454,0,0,1,6.7656-12.3066,29.642,29.642,0,0,1,10.5078-7.8447,33.32636,33.32636,0,0,1,13.7461-2.7344,31.57205,31.57205,0,0,1,13.3867,2.7256,29.6846,29.6846,0,0,1,10.0762,7.53168,33.58844,33.58844,0,0,1,6.4043,11.40292,45.019,45.019,0,0,1,2.2324,14.4863v5.4516H1627.918v3.4551a25.45471,25.45471,0,0,0,1.5097,8.8526,21.02227,21.02227,0,0,0,4.31842,7.12448,19.76119,19.76119,0,0,0,6.91008,4.75092,23.72454,23.72454,0,0,0,9.2832,1.7266,22.5937,22.5937,0,0,0,12.3086-3.31052,21.728,21.728,0,0,0,8.1329-9.5l8.2031,5.93942a28.65188,28.65188,0,0,1-11.2266,12.3838A33.86451,33.86451,0,0,1,1649.22068,338.56252Zm0-68.0844a21.93437,21.93437,0,0,0-8.6367,1.6464,19.42531,19.42531,0,0,0-6.6934,4.6485,21.79967,21.79967,0,0,0-4.3906,7.081,24.47589,24.47589,0,0,0-1.582,8.9414v1.001h41.0234v-1.5747q0-9.8709-5.3984-15.8061Q1658.14358,270.47847,1649.22068,270.47812Z" fill="#fff"/><path d="M1716.72848,336.835q-6.04395,0-9.1406-3.3735a12.55238,12.55238,0,0,1-3.09378-8.8345V272.7808h-12.23632V262.562h6.9102q3.74118,0,5.1093-1.5127,1.36815-1.5102,1.3672-5.2534V241.97713h10.3653V262.562h16.2656V272.7808h-16.2656v53.83492h15.1132V336.835Z" fill="#fff"/><path d="M1796.61518,262.562h11.3731l-33.252,91.5459a40.8,40.8,0,0,1-2.5898,5.5415,10.79989,10.79989,0,0,1-3.168,3.5269,12.58759,12.58759,0,0,1-4.6777,1.8711,34.743,34.743,0,0,1-6.836.5762h-5.9023V355.4038h11.6582l5.6152-15.80858-27.7812-77.0332h11.5156l17.8477,50.42578,3.455,12.06892h.7207l4.0293-12.06892Z" fill="#fff"/><path d="M646.7949,477.753l-3.6103-11.4766H627.1943l-3.5459,11.4766h-8.6406l15.0879-45.004h10.5742l14.958,45.004Zm-11.4766-37.2657h-.3222l-5.7383,18.5039h11.8633Z" fill="#fff"/><path d="M692.1201,477.753l-3.6103-11.4766H672.5195l-3.5459,11.4766H660.333l15.0879-45.004h10.5742l14.958,45.004Zm-11.4766-37.2657h-.3222l-5.7383,18.5039h11.8633Z" fill="#fff"/><path d="M736.1572,458.73342H717.3945V477.753h-8.5107V432.749h8.5107v18.4395h18.7627V432.749h8.5108v45.004h-8.5108Z" fill="#fff"/><path d="M771.0381,457.37992l-5.9961,7.0918V477.753h-8.5108V432.749h8.5108v22.1797h.3222l6.3829-8.4453,11.1543-13.7344h9.8007L777.0342,451.5108l16.957,26.24222H783.8691Z" fill="#fff"/><path d="M809.5947,432.749v27.6602q0,5.2881,2.0313,7.93158,2.03025,2.64273,6.8662,2.64262,4.8354,0,6.8672-2.64262,2.03025-2.64537,2.0302-7.93158V432.749h8.3819v26.5645a34.51906,34.51906,0,0,1-.9346,8.5742,14.6118,14.6118,0,0,1-2.998,5.99808,12.094,12.094,0,0,1-5.3838,3.51362,25.175,25.175,0,0,1-8.0274,1.127,24.79109,24.79109,0,0,1-8.0273-1.127,12.113,12.113,0,0,1-5.3194-3.51362,14.29411,14.29411,0,0,1-2.9658-5.99808,35.65287,35.65287,0,0,1-.9023-8.5742V432.749Z" fill="#fff"/></g></svg>