<svg xmlns="http://www.w3.org/2000/svg" xmlns:xlink="http://www.w3.org/1999/xlink" viewBox="0 0 633.1914 798.8935"><defs><clipPath id="a"><rect width="633.1914" height="798.8935" fill="none"/></clipPath></defs><g clip-path="url(#a)"><path d="M77.709,170.748a6.83826,6.83826,0,0,1,6.8389,6.8379c-.001-.1397-.0059-.2783-.0059-.419a92.6248,92.6248,0,0,1,92.626-92.625,6.83785,6.83785,0,0,0,0-13.6757A106.22456,106.22456,0,0,0,70.8672,177.1669c0,.1407.0039.2793.0049.419A6.83713,6.83713,0,0,1,77.709,170.748Z" fill="#5a5c66"/><path d="M170.3301,276.6298a6.838,6.838,0,0,1,6.8379-6.8379,92.62,92.62,0,0,1-92.6201-92.206,6.8379,6.8379,0,1,0-13.6758,0A106.21935,106.21935,0,0,0,177.168,283.4687,6.83756,6.83756,0,0,1,170.3301,276.6298Z" fill="#858591"/><path d="M251.2676,243.706a6.83591,6.83591,0,0,0-9.6709,0,92.31774,92.31774,0,0,1-64.4287,26.0859,6.8384,6.8384,0,0,0,0,13.6768,105.96565,105.96565,0,0,0,74.0996-30.0928A6.83832,6.83832,0,0,0,251.2676,243.706Z" fill="#9f9ea7"/><path d="M233.459,120.875a79.61364,79.61364,0,1,0,23.3154,56.2919A79.08465,79.08465,0,0,0,233.459,120.875Z" fill="#9f9ea7"/><path d="M121.0625,202.913V151.4228h11.166v3.8066h-6.4726v43.877h6.4726v3.8066Z" fill="#333e48"/><path d="M233.2715,151.4228V202.913H222.1074v-3.8066h6.4688v-43.877h-6.4688v-3.8066Z" fill="#333e48"/><path d="M146.9961,187.6279c0,1.0273.0166,2.2412.0488,3.6348q.04695,2.09175.1289,4.248.0792,2.15625.1934,4.1211.1113,1.9629.2734,3.2812H141.043V166.5478q0-4.6977-.1602-8.5117-.1611-3.8145-.4834-6.6133h6.5967Z" fill="#fff"/><path d="M175.7998,170.0878v4.2168H169.75v24.3936h6.0498v4.2148H157.7793v-4.2148h5.9531V174.3046h-5.9531v-4.2168Z" fill="#fff"/><path d="M189.3164,170.0878a11.06656,11.06656,0,0,1,.3858,1.337c.1298.5468.246,1.1191.3544,1.7207q.15825.8994.2901,1.7695l.2558,1.4473a21.21583,21.21583,0,0,1,6.211-5.293,13.91125,13.91125,0,0,1,6.501-1.625,11.4035,11.4035,0,0,1,4.5546.8525A8.026,8.026,0,0,1,211.2002,173a13.22614,13.22614,0,0,1,2.0439,4.7959,31.45,31.45,0,0,1,.6914,7.0966V199.372a36.01008,36.01008,0,0,1-.9501,9.0274,15.47142,15.47142,0,0,1-2.6543,5.7304,9.34033,9.34033,0,0,1-4.1036,3.0235,15.29153,15.29153,0,0,1-5.3271.8847,11.47627,11.47627,0,0,1-3.1055-.4668,11.70076,11.70076,0,0,1-3.0078-1.3027l2.0918-4.8281a6.43552,6.43552,0,0,0,1.9785.918,8.80937,8.80937,0,0,0,2.5254.3691,7.276,7.276,0,0,0,2.7705-.4981,4.61026,4.61026,0,0,0,2.0742-1.7529,9.60427,9.60427,0,0,0,1.3038-3.4443,28.42591,28.42591,0,0,0,.4501-5.5664V187.3046a39.19132,39.19132,0,0,0-.4023-6.2587,10.79483,10.79483,0,0,0-1.207-3.7334,4.01053,4.01053,0,0,0-2.0127-1.7872,8.05821,8.05821,0,0,0-2.8145-.4501,7.56366,7.56366,0,0,0-3.3945.8222,12.55863,12.55863,0,0,0-3.043,2.1231,15.8442,15.8442,0,0,0-2.4443,2.9453,13.50725,13.50725,0,0,0-1.5781,3.2812v18.666h-5.9522V183.122a50.23378,50.23378,0,0,0-.5488-8.0625,40.7947,40.7947,0,0,0-1.0615-4.9717Z" fill="#fff"/><path d="M107.4575,426.163V358.4072h8.1538v60.5722h28.8301v7.1836Z" fill="#333e48"/><path d="M159.1958,364.3291a4.74208,4.74208,0,0,1-3.6406-1.2129,4.47194,4.47194,0,0,1-1.1162-3.1553v-1.2627a4.47748,4.47748,0,0,1,1.1162-3.1543,6.06945,6.06945,0,0,1,7.2807,0,4.48432,4.48432,0,0,1,1.1163,3.1543v1.2627a4.47875,4.47875,0,0,1-1.1163,3.1553A4.746,4.746,0,0,1,159.1958,364.3291Zm-3.8828,11.7461h7.7656V426.163H155.313Z" fill="#333e48"/><path d="M179.5806,426.163V376.0752h7.7656v8.0605h.3882a16.33361,16.33361,0,0,1,5.1933-6.7266q3.34935-2.4975,8.979-2.499,7.7652,0,12.2798,4.999,4.51395,5.001,4.5137,14.1241V426.163h-7.7656V395.3252q0-13.52355-11.3574-13.5235a17.43031,17.43031,0,0,0-4.5142.584,13.12228,13.12228,0,0,0-3.9312,1.752,8.64113,8.64113,0,0,0-2.7661,2.9667,8.43847,8.43847,0,0,0-1.0195,4.2315V426.163Z" fill="#333e48"/><path d="M274.5151,424.5127q0,10.3857-5.8242,16.3085-5.8242,5.91945-16.4048,5.9219a26.54308,26.54308,0,0,1-10.5322-1.9013,21.49754,21.49754,0,0,1-7.3286-5.0225l4.562-5.3623a17.635,17.635,0,0,0,5.8242,3.9971,19.55743,19.55743,0,0,0,7.6685,1.3964q6.794,0,10.5322-3.7519,3.736-3.75735,3.7373-11.0684v-6.9277h-.3882a16.48013,16.48013,0,0,1-5.8242,6.918,16.00989,16.00989,0,0,1-8.8335,2.3076,19.04136,19.04136,0,0,1-8.4453-1.8447,17.88619,17.88619,0,0,1-6.4062-5.2413,25.21837,25.21837,0,0,1-4.0772-8.2509,41.31954,41.31954,0,0,1,0-21.7442,25.23972,25.23972,0,0,1,4.0772-8.251,17.91867,17.91867,0,0,1,6.4062-5.2421,19.03959,19.03959,0,0,1,8.4453-1.8438,17.04871,17.04871,0,0,1,8.979,2.2578,14.10242,14.10242,0,0,1,5.6787,6.9678h.3882v-8.0605h7.7656Zm-20.4819-4.0762a17.52185,17.52185,0,0,0,4.9507-.6836,12.01435,12.01435,0,0,0,4.0283-2,10.01551,10.01551,0,0,0,2.7183-3.2188,9.26317,9.26317,0,0,0,1.019-4.4394V391.4599a8.02551,8.02551,0,0,0-.9707-3.8535,9.10069,9.10069,0,0,0-2.7178-3.0723,14.05508,14.05508,0,0,0-4.0771-2,16.41582,16.41582,0,0,0-4.9507-.7324q-6.6021,0-10.4834,4.1953a15.309,15.309,0,0,0-3.8828,10.8301v8.584a15.3107,15.3107,0,0,0,3.8828,10.8301Q247.4309,420.4364,254.0332,420.4365Z" fill="#333e48"/><path d="M321.8848,418.1025h-.3882a23.91412,23.91412,0,0,1-1.8926,3.4121,12.75591,12.75591,0,0,1-2.7666,2.9785,12.9434,12.9434,0,0,1-3.98,2.0664,17.39719,17.39719,0,0,1-5.436.7686q-7.7673,0-12.3281-4.999-4.56375-4.99815-4.5625-14.1241V376.0752h7.7656V406.913q0,13.52355,11.4546,13.5235a17.38616,17.38616,0,0,0,4.5137-.584,12.49755,12.49755,0,0,0,3.8828-1.75,8.85631,8.85631,0,0,0,2.7182-2.9678,8.65119,8.65119,0,0,0,1.0191-4.3301V376.0752h7.7656V426.163h-7.7656Z" fill="#333e48"/><path d="M350.0347,364.3291a4.74124,4.74124,0,0,1-3.6402-1.2129,4.47239,4.47239,0,0,1-1.1162-3.1553v-1.2627a4.47793,4.47793,0,0,1,1.1162-3.1543,6.06885,6.06885,0,0,1,7.2803,0,4.48425,4.48425,0,0,1,1.1162,3.1543v1.2627a4.47869,4.47869,0,0,1-1.1162,3.1553A4.74528,4.74528,0,0,1,350.0347,364.3291Zm-3.8828,11.7461h7.7656V426.163h-7.7656Z" fill="#333e48"/><path d="M385.4658,427.3281a23.43079,23.43079,0,0,1-11.6972-2.669,26.5926,26.5926,0,0,1-8.1055-7.1347l5.5332-4.4659a21.75365,21.75365,0,0,0,6.5039,5.6788,16.93765,16.93765,0,0,0,8.3481,1.9902q4.95045,0,7.7168-2.1357a7.7581,7.7581,0,0,0,.8741-11.0176q-1.8933-2.0874-6.8438-2.8633l-3.98-.583a33.17787,33.17787,0,0,1-6.4067-1.5039,17.80728,17.80728,0,0,1-5.0962-2.7188,11.66464,11.66464,0,0,1-3.3975-4.2226,13.75241,13.75241,0,0,1-1.2133-6.0176,14.464,14.464,0,0,1,1.3588-6.4551,12.9898,12.9898,0,0,1,3.7374-4.6113,16.35264,16.35264,0,0,1,5.6787-2.7666,26.251,26.251,0,0,1,7.0864-.9219,22.11679,22.11679,0,0,1,10.2407,2.1358,22.9611,22.9611,0,0,1,7.2319,5.9209l-5.145,4.6591a15.44726,15.44726,0,0,0-4.8535-4.2226,15.63013,15.63013,0,0,0-8.0566-1.8926q-4.8552,0-7.3291,2.0869a7.04,7.04,0,0,0-2.4751,5.6787q0,3.69,2.4751,5.3389a18.46645,18.46645,0,0,0,7.1347,2.4267l3.8828.5821q8.3475,1.2627,11.8428,4.8047a12.63734,12.63734,0,0,1,3.4947,9.2715q0,7.28025-4.9507,11.4541Q394.10525,427.3291,385.4658,427.3281Z" fill="#333e48"/><path d="M428.0811,426.163q-4.0767,0-6.1641-2.2753a8.46257,8.46257,0,0,1-2.0869-5.9571V382.9668h-8.251v-6.8916h4.6592q2.52315,0,3.4463-1.0196a5.29326,5.29326,0,0,0,.9218-3.5429v-9.3194h6.9893v13.8819h10.9692v6.8916H427.5957v36.3046h10.1924v6.8916Z" fill="#333e48"/><path d="M454.9697,364.3291a4.741,4.741,0,0,1-3.6401-1.2129,4.47268,4.47268,0,0,1-1.1167-3.1553v-1.2627a4.47823,4.47823,0,0,1,1.1167-3.1543,6.06885,6.06885,0,0,1,7.2803,0,4.48471,4.48471,0,0,1,1.1162,3.1543v1.2627a4.47914,4.47914,0,0,1-1.1162,3.1553A4.74553,4.74553,0,0,1,454.9697,364.3291Zm-3.8828,11.7461h7.7656V426.163h-7.7656Z" fill="#333e48"/><path d="M493.9922,427.3281a23.079,23.079,0,0,1-9.416-1.8447,19.20315,19.20315,0,0,1-7.0376-5.2413,23.33094,23.33094,0,0,1-4.36817-8.2509,40.03807,40.03807,0,0,1,0-21.7442,23.34955,23.34955,0,0,1,4.36817-8.251,19.23726,19.23726,0,0,1,7.0376-5.2421,23.07726,23.07726,0,0,1,9.416-1.8438q7.4736,0,11.9883,3.251a19.85393,19.85393,0,0,1,6.7466,8.4941l-6.504,3.3008a11.79715,11.79715,0,0,0-4.4653-6.0185,13.40048,13.40048,0,0,0-7.7656-2.1358,15.53251,15.53251,0,0,0-6.1157,1.1162,11.95843,11.95843,0,0,0-4.3682,3.1065,13.07578,13.07578,0,0,0-2.6206,4.7558,20.07472,20.07472,0,0,0-.874,6.0674v8.542a16.258,16.258,0,0,0,3.54345,10.8242q3.542,4.22175,10.43507,4.2227,9.4146,0,13.5898-8.7363l5.6304,3.7851a19.89169,19.89169,0,0,1-7.2319,8.6397A21.1523,21.1523,0,0,1,493.9922,427.3281Z" fill="#333e48"/><path d="M539.2266,427.3281a23.43015,23.43015,0,0,1-11.6973-2.669,26.59492,26.59492,0,0,1-8.1055-7.1347l5.5332-4.4659a21.75365,21.75365,0,0,0,6.5039,5.6788,16.93508,16.93508,0,0,0,8.3482,1.9902q4.95045,0,7.7168-2.1357a7.758,7.758,0,0,0,.874-11.0176q-1.8933-2.0874-6.8437-2.8633l-3.98-.583a33.17893,33.17893,0,0,1-6.4068-1.5039,17.80728,17.80728,0,0,1-5.0962-2.7188,11.66541,11.66541,0,0,1-3.3974-4.2226,13.751,13.751,0,0,1-1.2134-6.0176,14.464,14.464,0,0,1,1.3589-6.4551,12.99061,12.99061,0,0,1,3.7373-4.6113,16.35351,16.35351,0,0,1,5.6787-2.7666,26.251,26.251,0,0,1,7.0864-.9219,22.11722,22.11722,0,0,1,10.2408,2.1358,22.96221,22.96221,0,0,1,7.2319,5.9209l-5.145,4.6591a15.4495,15.4495,0,0,0-4.8535-4.2226,15.63051,15.63051,0,0,0-8.0567-1.8926q-4.8552,0-7.3291,2.0869a7.04,7.04,0,0,0-2.4751,5.6787q0,3.69,2.4751,5.3389a18.46639,18.46639,0,0,0,7.1348,2.4267l3.8828.5821q8.34735,1.2627,11.8428,4.8047a12.63728,12.63728,0,0,1,3.4946,9.2715q0,7.28025-4.9507,11.4541Q547.866,427.3291,539.2266,427.3281Z" fill="#333e48"/><path d="M126.4834,543.8134a29.19821,29.19821,0,0,1-14.0752-3.1543,29.86961,29.86961,0,0,1-9.9014-8.6884l6.0186-5.0479a26.36229,26.36229,0,0,0,7.9595,7.2324,20.52373,20.52373,0,0,0,10.29,2.4746q7.28025,0,11.1143-3.4941a11.998,11.998,0,0,0,3.8344-9.3184q0-4.853-2.9121-7.4746-2.9121-2.622-9.6098-4.1748l-5.5332-1.2617q-9.31935-2.1342-14.2212-6.4551-4.9029-4.31835-4.9019-12.1826a18.41084,18.41084,0,0,1,1.6499-7.959,15.963,15.963,0,0,1,4.6109-5.8242,20.81183,20.81183,0,0,1,7.0864-3.5439,32.08782,32.08782,0,0,1,9.0762-1.2139,28.49737,28.49737,0,0,1,13.1533,2.8164,25.339,25.339,0,0,1,9.27,8.25l-6.1152,4.4658a21.132,21.132,0,0,0-6.795-6.1162,20.0261,20.0261,0,0,0-9.9013-2.2324q-6.50475,0-10.2412,2.7666-3.73755,2.767-3.7373,8.2998,0,4.85445,3.1552,7.3281,3.15315,2.4756,9.5616,3.9326l5.5327,1.2618q9.99675,2.2338,14.4633,6.7949,4.46415,4.563,4.4654,12.1338a21.47054,21.47054,0,0,1-1.6016,8.4453,17.33161,17.33161,0,0,1-4.6108,6.4062,21.43629,21.43629,0,0,1-7.3286,4.0772A30.45774,30.45774,0,0,1,126.4834,543.8134Z" fill="#333e48"/><path d="M182.0073,543.8134a22.57979,22.57979,0,0,1-9.2217-1.8437,19.85687,19.85687,0,0,1-7.1347-5.291,24.88293,24.88293,0,0,1-4.6109-8.251,36.1678,36.1678,0,0,1,0-21.5986,24.82943,24.82943,0,0,1,4.6109-8.2989,19.8917,19.8917,0,0,1,7.1347-5.291,22.57979,22.57979,0,0,1,9.2217-1.8437,22.25324,22.25324,0,0,1,9.1734,1.8437,20.48191,20.48191,0,0,1,7.1347,5.291,24.41756,24.41756,0,0,1,4.6597,8.2989,36.1678,36.1678,0,0,1,0,21.5986,24.46822,24.46822,0,0,1-4.6597,8.251,20.44489,20.44489,0,0,1-7.1347,5.291A22.25324,22.25324,0,0,1,182.0073,543.8134Zm0-6.8925a14.11069,14.11069,0,0,0,10.2896-3.8829q3.9792-3.88035,3.98-11.8418v-7.1835q0-7.95855-3.98-11.8428a15.57523,15.57523,0,0,0-20.5791,0q-3.98145,3.8832-3.98,11.8428v7.1835q0,7.96005,3.98,11.8418A14.10661,14.10661,0,0,0,182.0073,536.9209Z" fill="#333e48"/><path d="M236.0757,543.8134a23.07763,23.07763,0,0,1-9.4155-1.8437,19.20133,19.20133,0,0,1-7.0376-5.2422,23.33121,23.33121,0,0,1-4.3682-8.251,40.02465,40.02465,0,0,1,0-21.7441,23.34674,23.34674,0,0,1,4.3682-8.251,19.23455,19.23455,0,0,1,7.0376-5.2422,23.07763,23.07763,0,0,1,9.4155-1.8437q7.4736,0,11.9888,3.2519a19.8412,19.8412,0,0,1,6.746,8.4932l-6.5034,3.3008a11.801,11.801,0,0,0-4.4658-6.0186,13.4001,13.4001,0,0,0-7.7656-2.1357,15.52817,15.52817,0,0,0-6.1152,1.1162,11.95787,11.95787,0,0,0-4.3682,3.1064,13.0722,13.0722,0,0,0-2.6211,4.7569,20.07477,20.07477,0,0,0-.8735,6.0664v8.5429a16.25962,16.25962,0,0,0,3.5429,10.8233q3.5427,4.2231,10.4351,4.2217,9.4146,0,13.5898-8.7364l5.6304,3.7862a19.89314,19.89314,0,0,1-7.2314,8.6396A21.16221,21.16221,0,0,1,236.0757,543.8134Z" fill="#333e48"/><path d="M270.147,480.8144a4.73724,4.73724,0,0,1-3.6402-1.2139,4.47137,4.47137,0,0,1-1.1162-3.1543v-1.2617a4.477,4.477,0,0,1,1.1162-3.1552,6.06485,6.06485,0,0,1,7.2803,0,4.48333,4.48333,0,0,1,1.1162,3.1552v1.2617a4.47767,4.47767,0,0,1-1.1162,3.1543A4.74128,4.74128,0,0,1,270.147,480.8144Zm-3.8828,11.7451h7.7656v50.0889h-7.7656Z" fill="#333e48"/><path d="M309.3638,543.8134a22.48851,22.48851,0,0,1-9.2705-1.8437,19.96464,19.96464,0,0,1-7.086-5.291,24.237,24.237,0,0,1-4.5625-8.251,37.21172,37.21172,0,0,1,0-21.5986,24.19335,24.19335,0,0,1,4.5625-8.2989,20.00011,20.00011,0,0,1,7.086-5.291,22.48851,22.48851,0,0,1,9.2705-1.8437,21.29523,21.29523,0,0,1,9.0273,1.8379,20.00416,20.00416,0,0,1,6.7949,5.08,22.62915,22.62915,0,0,1,4.3199,7.6895,30.35579,30.35579,0,0,1,1.5048,9.7695v3.6758H294.9971v2.3301a17.14073,17.14073,0,0,0,1.0195,5.9707,14.17412,14.17412,0,0,0,2.9121,4.8047,13.32206,13.32206,0,0,0,4.6592,3.2031,16.00233,16.00233,0,0,0,6.2612,1.1641,15.225,15.225,0,0,0,8.2993-2.2325,14.64351,14.64351,0,0,0,5.4849-6.4062l5.5332,4.0058a19.33727,19.33727,0,0,1-7.5718,8.3516A22.84419,22.84419,0,0,1,309.3638,543.8134Zm0-45.914a14.78529,14.78529,0,0,0-5.8242,1.1093,13.08,13.08,0,0,0-4.5137,3.1358,14.69842,14.69842,0,0,0-2.961,4.7744,16.50854,16.50854,0,0,0-1.0678,6.0303v.6748h27.6655v-1.0615q0-6.65625-3.6401-10.6592A12.42258,12.42258,0,0,0,309.3638,497.8994Z" fill="#333e48"/><path d="M354.8897,542.6484q-4.0767,0-6.1641-2.2744a8.46807,8.46807,0,0,1-2.0869-5.958V499.4521h-8.251v-6.8926h4.6592q2.52315,0,3.4463-1.0195a5.2903,5.2903,0,0,0,.9218-3.542v-9.3193h6.9893v13.8808h10.9692v6.8926H354.4043v36.3047h10.1924v6.8916Z" fill="#333e48"/><path d="M408.7637,492.5595h7.6689l-22.4233,61.7383a27.55454,27.55454,0,0,1-1.7476,3.7363,7.27548,7.27548,0,0,1-2.1352,2.3789,8.51023,8.51023,0,0,1-3.1548,1.2618,23.44283,23.44283,0,0,1-4.6109.3886h-3.9799v-6.8925h7.8628l3.7856-10.6612-18.7349-51.9502h7.7657l12.0371,34.0069,2.3296,8.1396h.4853l2.7178-8.1396Z" fill="#333e48"/><path d="M120.8633,637.5615l-2.4151-7.6787H107.749l-2.373,7.6787H99.5947l10.0957-30.1123h7.0743l10.0087,30.1123Zm-7.6787-24.9346h-.2158l-3.8389,12.3809h7.9375Z" fill="#333e48"/><path d="M151.1904,637.5615l-2.416-7.6787H138.0752l-2.3721,7.6787h-5.7812l10.0947-30.1123h7.0762l10.0078,30.1123Zm-7.6797-24.9346h-.2148l-3.8398,12.3809h7.9375Z" fill="#333e48"/><path d="M180.6553,624.8359H168.1016v12.7256h-5.6944V607.4492h5.6944v12.3379h12.5537V607.4492h5.6953v30.1123h-5.6953Z" fill="#333e48"/><path d="M203.9941,623.9296l-4.0117,4.7461v8.8858h-5.6943V607.4492h5.6943V622.29h.2158l4.2706-5.6504,7.4638-9.1904h6.5567l-10.4825,12.5537,11.3457,17.5586h-6.7734Z" fill="#333e48"/><path d="M229.792,607.4492V625.957a8.63558,8.63558,0,0,0,1.3594,5.3066q1.3593,1.76955,4.5937,1.7686,3.2373,0,4.5957-1.7686a8.64259,8.64259,0,0,0,1.3584-5.3066V607.4492h5.6084v17.7754a23.1337,23.1337,0,0,1-.625,5.7363,9.78883,9.78883,0,0,1-2.0058,4.0137,8.10552,8.10552,0,0,1-3.6036,2.3506,16.83584,16.83584,0,0,1-5.371.7539,16.5906,16.5906,0,0,1-5.3711-.7539,8.10568,8.10568,0,0,1-3.5586-2.3506,9.56409,9.56409,0,0,1-1.9844-4.0137,23.83976,23.83976,0,0,1-.6035-5.7363V607.4492Z" fill="#333e48"/><text transform="translate(97.5586 738.24703)" font-size="42" fill="#333e48" font-family="FiraSans-Bold, Fira Sans" font-weight="700">Se<tspan x="47.29102" y="0" letter-spacing="-0.00699em">s</tspan><tspan x="67.15723" y="0">sion 2020–2021</tspan></text></g></svg>