<?xml version="1.0" encoding="UTF-8"?><svg id="uuid-e4ae404a-6229-4712-8547-d169842488cc" xmlns="http://www.w3.org/2000/svg" width="223.375181367463682mm" height="249.918079888119337mm" xmlns:xlink="http://www.w3.org/1999/xlink" viewBox="0 0 633.189500000000407 708.429213472003539"><defs><style>.uuid-b77bcf73-cedf-4c2b-85be-38da190f61a3{clip-path:url(#uuid-8bc69cdd-40c5-4795-8e8b-09c5c0d4fc04);}.uuid-2cccf228-3bd9-4cff-8919-4391f4829fbc{fill:#fff;}.uuid-9948b4c2-a8fb-4af3-ac79-e6b0495cfcbc{fill:none;}.uuid-b6d463ca-ad6f-45e4-bfea-1fd5de764ae7{fill:#333e48;}</style><clipPath id="uuid-8bc69cdd-40c5-4795-8e8b-09c5c0d4fc04"><rect class="uuid-9948b4c2-a8fb-4af3-ac79-e6b0495cfcbc" y="-.001899999999296" width="633.189500000000407" height="708.431113472002835"/></clipPath></defs><g class="uuid-b77bcf73-cedf-4c2b-85be-38da190f61a3"><path class="uuid-2cccf228-3bd9-4cff-8919-4391f4829fbc" d="M79.222700000000259,135.785200000000259c-4.552799999999479,10.763699999999517-7.259799999999814,22.072200000000521-8.085999999999331,33.712900000000445,1.795000000000073-1.46100000000024,4.08009999999922-2.339900000000853,6.568400000000111-2.339900000000853,2.747999999999593,0,5.244099999999889,1.078199999999924,7.109399999999368,2.818400000000111,3.667900000000373-47.796899999999368,43.611300000000483-85.435599999999795,92.351500000000669-85.435599999999795,3.775400000000445,0,6.835999999999331-3.0625,6.835999999999331-6.837800000000243,0-3.777399999999034-3.060599999998885-6.837899999999536-6.835999999999331-6.837899999999536-14.345699999999852,0-28.269500000000335,2.8125-41.384700000000521,8.359300000000076-12.658199999999852,5.355499999999665-24.025400000000445,13.015699999999924-33.783199999999852,22.775399999999536-9.759799999999814,9.757800000000316-17.421899999999368,21.125-22.775400000000445,33.785200000000259Z"/><path class="uuid-2cccf228-3bd9-4cff-8919-4391f4829fbc" d="M169.595699999999852,269.484424560680964c-47.478499999999258-3.841799902947969-84.837899999998626-43.482424560680556-85.052699999998367-91.898424560680724,0-3.775399999999536-3.060600000000704-6.837899999999536-6.837900000000445-6.837899999999536-3.775400000000445,0-6.837900000000445,3.0625-6.837900000000445,6.837899999999536.054700000000594,14.197199999999611,2.861300000000483,27.97649999999976,8.355499999999665,40.962900000000445,5.353500000001077,12.660100000000057,13.015600000000632,24.027325240439495,22.775400000000445,33.785124993936734,9.757799999999406,9.759775006063137,21.125,17.421899559885787,33.783199999999852,22.777399424593568,10.628899999999703,4.494099886470394,21.787099999999555,7.193299818282867,33.271500000000742,8.054599796524599-1.443400000000111-1.788999954806059-2.314500000000407-4.060499897423142-2.314500000000407-6.53322421505527,0-2.767475549989285,1.091800000000148-5.27927548653588,2.857399999998961-7.148375439319352Z"/><path class="uuid-2cccf228-3bd9-4cff-8919-4391f4829fbc" d="M251.265600000000632,243.705125211921768c-1.33389999999963-1.333999966300325-3.08389999999963-2.001925211921844-4.83389999999963-2.001925211921844s-3.5.667925245621518-4.83600000000115,2.001925211921844c-16.671899999999368,16.146499592104192-39.388699999999517,26.089799340916215-64.429699999998775,26.089799340916215-3.777299999999741,0-6.837900000000445,3.060599922682741-6.837900000000445,6.837875447162332,0,3.775424284723158,3.060600000000704,6.837924207357901,6.837900000000445,6.837924207357901,14.343800000000556,0,28.265699999999924-2.812499928950274,41.380900000000111-8.359299788827229,12.20509999999922-5.16219986959095,23.201199999999517-12.474699684861662,32.718699999999444-21.734399450941964,2.671900000001187-2.669899932552653,2.671900000001187-6.999999823166036,0-9.671899755667255Z"/><path class="uuid-2cccf228-3bd9-4cff-8919-4391f4829fbc" d="M177.166000000001077,283.470724207358217c-3.777299999999741,0-6.837900000000445-3.062499922634743-6.837900000000445-6.837924207357901,0-3.777275524479592,3.060600000000704-6.837875447162332,6.837900000000445-6.837875447162332,25.040999999999258,0,47.757799999999406-9.943299748812024,64.429699999998775-26.089799340916215,1.33600000000115-1.333999966300325,3.08600000000115-2.001925211921844,4.83600000000115-2.001925211921844s3.5.667925245621518,4.83389999999963,2.001925211921844c2.671900000001187,2.671899932501219,2.671900000001187,7.001999823114602,0,9.671899755667255-9.517499999999927,9.259699766080303-20.513600000000224,16.572199581351015-32.718699999999444,21.734399450941964-13.115200000000186,5.546799859876955-27.037099999999555,8.359299788827229-41.380900000000111,8.359299788827229ZM135.781300000000556,275.111424418530987c-12.658199999999852-5.355499864707781-24.025400000000445-13.017624418530431-33.783199999999852-22.777399424593568-9.759799999999814-9.757799753497238-17.421899999999368-21.125024993936677-22.775400000000445-33.785124993936734-5.494199999999182-12.986400000000685-8.300799999999072-26.765700000000834-8.355499999999665-40.962900000000445,0-3.775399999999536,3.0625-6.837899999999536,6.837900000000445-6.837899999999536,3.777299999999741,0,6.837900000000445,3.0625,6.837900000000445,6.837899999999536.214799999999741,48.416000000000167,37.574199999999109,88.056624657732755,85.052699999998367,91.898424560680724-1.765599999998813,1.869099952783472-2.857399999998961,4.380899889330067-2.857399999998961,7.148375439319352,0,2.472724317632128.871100000000297,4.744224260249212,2.314500000000407,6.53322421505527-11.484400000001187-.861299978241732-22.642600000001039-3.560499910054205-33.271500000000742-8.054599796524599ZM177.166000000001077,70.865300000000389c3.775400000000445,0,6.835999999999331,3.060500000000502,6.835999999999331,6.837899999999536,0,3.775300000000243-3.060599999998885,6.837800000000243-6.835999999999331,6.837800000000243-48.740200000000186,0-88.683600000000297,37.638700000000426-92.351500000000669,85.435599999999795-1.865299999999479-1.740200000000186-4.361399999999776-2.818400000000111-7.109399999999368-2.818400000000111-2.488300000000891,0-4.773400000000038.878900000000613-6.568400000000111,2.339900000000853.826199999999517-11.640699999999924,3.533199999999852-22.949200000000928,8.085999999999331-33.712900000000445,5.353500000001077-12.660200000000259,13.015600000000632-24.027399999999943,22.775400000000445-33.785200000000259,9.757799999999406-9.759699999999611,21.125-17.41989999999987,33.783199999999852-22.775399999999536,13.115200000000186-5.546800000000076,27.039000000000669-8.359300000000076,41.384700000000521-8.359300000000076Z"/><path class="uuid-2cccf228-3bd9-4cff-8919-4391f4829fbc" d="M233.459000000000742,120.873100000000704c-15.035200000000259-15.035200000000259-35.029300000000148-23.314500000000407-56.292999999999665-23.314500000000407-21.265600000000632,0-41.257800000001225,8.279300000000148-56.292900000000373,23.314500000000407-15.037099999999555,15.037099999999555-23.318400000000111,35.029300000000148-23.318400000000111,56.29489999999987,0,21.263699999999517,8.281300000000556,41.255900000000111,23.318400000000111,56.292999999999665,15.035099999999147,15.035125090890688,35.027299999999741,23.318324881639455,56.292900000000373,23.318324881639455,21.263699999999517,0,41.257799999999406-8.283199790748768,56.292999999999665-23.318324881639455,15.037099999999555-15.037099999999555,23.316399999999703-35.029300000000148,23.316399999999703-56.292999999999665,0-21.265599999999722-8.279300000000148-41.257800000000316-23.316399999999703-56.29489999999987Z"/><path class="uuid-b6d463ca-ad6f-45e4-bfea-1fd5de764ae7" d="M121.060600000000704,202.912100000000464v-51.488200000000688h11.165999999999258v3.804600000000391h-6.47269999999844v43.877000000000407h6.47269999999844v3.806599999999889h-11.165999999999258Z"/><path class="uuid-b6d463ca-ad6f-45e4-bfea-1fd5de764ae7" d="M233.271500000000742,151.423899999999776v51.488200000000688h-11.164099999999962v-3.806599999999889h6.468800000000556v-43.877000000000407h-6.468800000000556v-3.804600000000391h11.164099999999962Z"/><path class="uuid-b6d463ca-ad6f-45e4-bfea-1fd5de764ae7" d="M146.996100000000297,187.627000000000407c0,1.029300000000148.015600000000632,2.242199999999684.046900000001187,3.636700000000019.031199999999444,1.394499999999425.076199999999517,2.810499999999593.128899999999703,4.247999999999593.054699999998775,1.4375.117199999998775,2.810599999999795.193400000000111,4.119200000000092.074199999999109,1.308600000000297.165999999999258,2.402299999999741.273400000000038,3.281200000000354h-6.597700000000259v-36.365200000000186c0-3.130900000000111-.052700000000186-5.968700000000354-.160100000000966-8.511700000000019-.107399999998961-2.542999999999665-.26759999999922-4.746100000000297-.484399999999368-6.611300000000483h6.599599999999555v36.203100000000632Z"/><path class="uuid-b6d463ca-ad6f-45e4-bfea-1fd5de764ae7" d="M175.798800000000483,170.087900000000445v4.216800000000148h-6.050699999999779v24.39259999999922h6.050699999999779v4.216800000000148h-18.02139999999963v-4.216800000000148h5.953100000000632v-24.39259999999922h-5.953100000000632v-4.216800000000148h18.02139999999963Z"/><path class="uuid-b6d463ca-ad6f-45e4-bfea-1fd5de764ae7" d="M189.316400000001522,170.087900000000445c.126999999998588.343799999999646.255900000000111.787099999999555.384799999999814,1.335999999999331.130799999998999.546800000000076.246100000000297,1.121000000001004.355499999999665,1.720700000000761.105400000000373.60149999999976.201100000000224,1.191399999999703.28899999999885,1.77139999999963l.255900000000111,1.445399999999609c2.060500000001412-2.443399999999201,4.130800000000818-4.208999999998923,6.210900000001857-5.292999999999665,2.081999999998516-1.082000000000335,4.25-1.625,6.501999999998588-1.625,1.716800000000148,0,3.234300000000076.285100000000057,4.552700000000186.853500000000167,1.320300000001225.570300000000316,2.431599999999889,1.470699999999852,3.332000000000335,2.703099999999722.900400000000445,1.234400000000278,1.58009999999922,2.834000000000742,2.042999999999665,4.79490000000078.462900000000445,1.964899999999034.691399999999703,4.328199999999924.691399999999703,7.09769999999935v14.480500000000575c0,3.625-.316399999999703,6.636699999999109-.949199999999109,9.027299999999741-.630900000000111,2.39260000000013-1.517600000001039,4.302799999999479-2.654300000000148,5.730499999999665-1.136700000000928,1.423800000000483-2.505900000000111,2.433600000000297-4.103500000001077,3.023400000000038-1.59769999999844.589899999999943-3.373099999998885.884799999999814-5.326199999999517.884799999999814-.964799999999741,0-2-.156299999999646-3.105499999999665-.466800000000148-1.103499999999258-.310599999999795-2.107399999998961-.744099999999889-3.007799999999406-1.302699999999277l2.091800000000148-4.828199999999924c.492199999998775.365299999999479,1.152399999999034.669999999999163,1.978499999999258.917999999999665.826199999999517.246100000000297,1.667999999999665.369099999999889,2.525400000000445.369099999999889,1.031299999998737,0,1.953199999999924-.166000000000167,2.769599999999627-.497999999999593.814399999999296-.332000000000335,1.505799999998999-.916000000000167,2.074199999999109-1.753900000000613.568300000000818-.835900000000038,1.003900000001522-1.984399999999368,1.304700000000594-3.443400000000111.298800000000483-1.458999999999833.449200000000928-3.314399999999296.449200000000928-5.568299999998999v-14.160200000000259c0-2.574200000000019-.134800000001633-4.660100000000057-.402400000000853-6.257800000000316-.267499999999927-1.599600000000464-.671800000000076-2.843700000000354-1.207000000000335-3.734400000000278-.535099999999147-.890599999999722-1.207000000000335-1.484300000000076-2.011699999999109-1.787099999999555-.804700000000594-.298800000000483-1.742200000000594-.449200000000019-2.816399999999703-.449200000000019-1.158199999999852,0-2.287100000001374.273400000000038-3.392600000001039.822299999999814-1.105499999999665.54489999999987-2.121100000000297,1.253900000000613-3.042999999999665,2.123000000000502-.921800000000076.867199999999684-1.738199999999779,1.849599999999555-2.445299999999406,2.943400000000111-.707000000000335,1.095699999999852-1.234300000000076,2.1875-1.578100000000632,3.283199999999852v18.665999999999258h-5.953100000000632v-19.792999999999665c0-3.173800000000483-.181699999999182-5.861300000000483-.546899999999368-8.060499999999593-.363300000000891-2.199200000000928-.718699999999444-3.85740000000078-1.0625-4.972700000000259h5.79490000000078Z"/><path class="uuid-2cccf228-3bd9-4cff-8919-4391f4829fbc" d="M107.458000000000538,426.163622417274382v-67.755400000000009h8.153800000000047v60.572299999999814h28.83009999999922v7.183100000000195h-36.983899999999267Z"/><path class="uuid-2cccf228-3bd9-4cff-8919-4391f4829fbc" d="M159.196300000001429,364.32962241727364c-1.683600000000297,0-2.897399999999834-.403299999999945-3.640600000000632-1.213399999999638-.744599999999991-.808099999999286-1.11620000000039-1.858900000000176-1.11620000000039-3.154799999999341v-1.261700000000928c0-1.293899999999667.371600000000399-2.34519999999975,1.11620000000039-3.155300000000352.743200000000797-.808599999999387,1.957000000000335-1.213299999999435,3.640600000000632-1.213299999999435,1.681699999999182,0,2.895499999998719.404700000000048,3.640099999998711,1.213299999999435.743200000000797.810100000000602,1.116299999999683,1.861400000000685,1.116299999999683,3.155300000000352v1.261700000000928c0,1.295899999999165-.373099999998885,2.346700000000055-1.116299999999683,3.154799999999341-.744599999999991.810099999999693-1.958399999999529,1.213399999999638-3.640099999998711,1.213399999999638ZM155.313500000000204,376.075722417273937h7.765600000000632v50.087900000000445h-7.765600000000632v-50.087900000000445Z"/><path class="uuid-2cccf228-3bd9-4cff-8919-4391f4829fbc" d="M179.581100000001243,426.163622417274382v-50.087900000000445h7.765599999998813v8.060999999999694h.388200000001234c1.228499999999258-2.817900000000009,2.960399999999936-5.060999999999694,5.193299999998999-6.726500000000669,2.233000000000175-1.665599999998449,5.225099999999657-2.499599999999191,8.979000000001179-2.499599999999191,5.176799999999275,0,9.270599999999831,1.667000000000371,12.279799999998431,4.999100000000908,3.009300000001531,3.333999999998923,4.513700000001336,8.041999999999462,4.513700000001336,14.123999999999796v32.129899999999907h-7.765600000000632v-30.837900000000445c0-9.015599999999722-3.785700000000361-13.523499999999331-11.35740000000078-13.523499999999331-1.553299999999581,0-3.057699999999386.195799999999508-4.514199999999619.583999999998923-1.456099999999424.38970000000063-2.766099999998914.973700000000463-3.93119999999908,1.752000000000407-1.165000000000873.778299999999035-2.086900000000242,1.766599999999016-2.766100000000733,2.966800000000148-.679699999998775,1.199200000000019-1.019500000000335,2.610300000000279-1.019500000000335,4.231400000000576v34.827199999999721h-7.765599999998813Z"/><path class="uuid-2cccf228-3bd9-4cff-8919-4391f4829fbc" d="M274.515600000000632,424.513722417274039c0,6.923800000000483-1.941399999999703,12.359800000000178-5.824199999999109,16.307600000000093-3.882800000001225,3.946799999999712-9.352000000000771,5.92239999999947-16.40480000000025,5.92239999999947-4.077100000000428,0-7.588300000001254-.634799999999814-10.532200000001467-1.901400000000649-2.945299999999406-1.269499999998516-5.387199999999211-2.942399999998997-7.328599999998914-5.021999999999025l4.561999999999898-5.362799999999879c1.682099999999991,1.731999999999971,3.623600000000806,3.0649999999996,5.824199999999109,3.996099999999387,2.199300000000221.931700000001001,4.756400000000212,1.397000000000844,7.668500000001586,1.397000000000844,4.529300000000148,0,8.040499999999156-1.251500000000306,10.532199999999648-3.752000000001317,2.490700000000288-2.504399999998896,3.737299999998868-6.192799999998897,3.737299999998868-11.067799999998897v-6.92830000000049h-.388199999999415c-1.489199999999983,3.075699999999415-3.430599999999686,5.381400000000212-5.824199999999109,6.918999999999869-2.395000000000437,1.53860000000077-5.338800000001356,2.307099999999991-8.83350000000064,2.307099999999991-3.106400000000576,0-5.921399999999267-.615699999999379-8.445299999999406-1.843699999999444-2.523400000000038-1.22899999999936-4.659200000000055-2.976599999999962-6.406200000001263-5.242200000000594-1.747599999998783-2.264699999999721-3.106499999999869-5.014699999999721-4.077199999999721-8.250999999999294-.970699999999852-3.235400000000482-1.456000000000131-6.859400000000278-1.456000000000131-10.872099999999591,0-4.011700000000928.485300000000279-7.635700000000725,1.456000000000131-10.872000000000298.970699999999852-3.235400000000482,2.329600000000937-5.985400000000482,4.077199999999721-8.251000000000204,1.747000000001208-2.26470000000063,3.882800000001225-4.011700000000019,6.406200000001263-5.242199999999684,2.52390000000014-1.228500000000167,5.33889999999883-1.843800000000556,8.445299999999406-1.843800000000556,3.494699999999284,0,6.487300000000687.753500000000713,8.97899999999936,2.257900000000518,2.4908000000014,1.506799999999203,4.383300000001327,3.828599999999824,5.67870000000039,6.968199999999342h.388199999999415v-8.060999999999694h7.765600000000632v48.438000000000102ZM254.033700000001772,420.436522417274318c1.747599999998783,0,3.397499999999127-.227500000000873,4.950699999999415-.682600000000093,1.553200000000288-.454600000000028,2.895500000000538-1.122600000000602,4.028299999999945-2.000500000000102,1.131900000000314-.876899999999296,2.03859999999986-1.950699999999415,2.718300000000454-3.217800000000352.679199999998673-1.268500000000131,1.018999999998414-2.748999999999796,1.018999999998414-4.439899999999398v-18.634799999999814c0-1.365200000000186-.324199999999109-2.649900000000343-.970699999999852-3.854000000001179-.647399999999834-1.202599999998711-1.553199999998469-2.22649999999885-2.717799999998533-3.072699999998804-1.165000000000873-.844700000000557-2.52390000000014-1.511200000000827-4.077100000000428-1.999499999999898s-3.203100000000632-.732500000000073-4.950699999999415-.732500000000073c-4.401400000000649,0-7.89600000000064,1.398499999999331-10.483400000000984,4.195399999999609-2.589299999999639,2.796799999999166-3.882799999999406,6.406700000000455-3.882799999999406,10.829999999999927v8.583999999999833c0,4.422899999999572,1.293499999999767,8.03269999999975,3.882799999999406,10.83010000000013,2.587400000000343,2.796400000000176,6.082000000000335,4.194800000000214,10.483400000000984,4.194800000000214Z"/><path class="uuid-2cccf228-3bd9-4cff-8919-4391f4829fbc" d="M321.885299999999916,418.102522417273576h-.388199999999415c-.518599999999424,1.15480000000025-1.149400000000242,2.29149999999936-1.89259999999922,3.412600000000566-.745100000000093,1.120599999999286-1.666999999999462,2.114300000000185-2.766600000000835,2.97859999999946-1.10149999999885.865200000000186-2.426699999999983,1.55370000000039-3.979999999999563,2.066400000000613-1.553200000000288.512200000000121-3.365700000000288.768499999999221-5.435999999999694.768499999999221-5.178200000000288,0-9.287099999999555-1.664999999999054-12.328100000000632-4.998999999999796-3.042499999999563-3.332499999999527-4.5625-8.039999999999054-4.5625-14.123999999999796v-32.129899999999907h7.765600000000632v30.837900000000445c0,9.01509999999962,3.817900000000009,13.522899999999936,11.454599999999118,13.522899999999936,1.553200000000288,0,3.057600000000093-.19380000000092,4.513699999999517-.584000000000742,1.45600000000195-.388100000000122,2.75-.972099999999045,3.882800000001225-1.75,1.131799999999203-.778299999999945,2.038500000000568-1.766999999999825,2.718199999999342-2.967199999999139.679700000000594-1.199300000000221,1.019099999999526-2.643100000000231,1.019099999999526-4.330100000001039v-34.729499999999462h7.765600000000632v50.087900000000445h-7.765600000000632v-8.061100000000806Z"/><path class="uuid-2cccf228-3bd9-4cff-8919-4391f4829fbc" d="M350.035200000000259,364.32962241727364c-1.683600000000297,0-2.896999999999025-.403299999999945-3.640199999999822-1.213399999999638-.744599999999991-.808099999999286-1.11620000000039-1.858900000000176-1.11620000000039-3.154799999999341v-1.261700000000928c0-1.293899999999667.371600000000399-2.34519999999975,1.11620000000039-3.155300000000352.743200000000797-.808599999999387,1.956599999999526-1.213299999999435,3.640199999999822-1.213299999999435,1.682099999999991,0,2.895500000000538.404700000000048,3.64010000000053,1.213299999999435.743200000000797.810100000000602,1.11620000000039,1.861400000000685,1.11620000000039,3.155300000000352v1.261700000000928c0,1.295899999999165-.372999999999593,2.346700000000055-1.11620000000039,3.154799999999341-.744599999999991.810099999999693-1.958000000000538,1.213399999999638-3.64010000000053,1.213399999999638ZM346.152400000000853,376.075722417273937h7.765600000000632v50.087900000000445h-7.765600000000632v-50.087900000000445Z"/><path class="uuid-2cccf228-3bd9-4cff-8919-4391f4829fbc" d="M385.466300000000047,427.328622417273436c-4.659099999998944,0-8.55909999999858-.890099999998711-11.697199999998702-2.668899999998757-3.13970000000154-1.779300000000148-5.840900000001056-4.158199999999852-8.105499999999665-7.134800000000723l5.533199999999852-4.465799999999945c1.941399999999703,2.459899999998925,4.108899999999267,4.352499999999964,6.503899999999703,5.67869999999948,2.393599999999424,1.327100000000428,5.176799999999275,1.990200000000186,8.348200000000361,1.990200000000186,3.300199999999677,0,5.872499999999491-.711899999999332,7.716699999999037-2.135700000000725,1.84480000000076-1.422899999999572,2.766600000000835-3.429699999998775,2.766600000000835-6.018599999999424,0-1.941399999999703-.630800000000818-3.606400000000576-1.892499999999927-4.998999999999796-1.26220000000103-1.390599999999722-3.543499999999767-2.344699999999648-6.843800000000556-2.863299999999072l-3.979999999999563-.583000000000538c-2.329499999999825-.323200000000725-4.465299999999843-.824700000000121-6.406700000001365-1.503899999999703-1.941399999999703-.680200000000696-3.640099999998711-1.585399999999936-5.096199999999953-2.718200000000252-1.455999999998312-1.131400000000212-2.58889999999883-2.539600000000064-3.397499999999127-4.223199999999451-.809999999999491-1.681599999999889-1.213299999999435-3.688500000000204-1.213299999999435-6.017600000001039,0-2.459000000000742.452099999998609-4.611299999999574,1.358899999999267-6.454999999999927.905699999999342-1.84480000000076,2.150799999999435-3.381900000000314,3.737300000000687-4.611399999999776,1.584899999999834-1.228499999999258,3.477999999999156-2.150900000000547,5.678699999998571-2.766599999999926,2.199200000000928-.614199999999983,4.5625-.921900000000278,7.08640000000014-.921900000000278,4.076699999999619,0,7.489300000001094.712400000000343,10.240700000000288,2.135299999999916,2.75,1.424300000000585,5.160200000000259,3.397500000000946,7.231999999999971,5.921399999999267l-5.145099999999729,4.659200000001874c-1.101000000000568-1.552800000001298-2.71769999999924-2.960000000001855-4.853499999999258-4.222700000000259-2.135200000000623-1.261700000000928-4.821300000001429-1.892600000001039-8.056599999999889-1.892600000001039-3.236800000000585,0-5.67870000000039.695800000001327-7.329100000000835,2.086900000000242-1.649900000000343,1.392100000000937-2.475099999999657,3.285200000000259-2.475099999999657,5.678799999999683,0,2.459900000000744.825199999999313,4.239200000000892,2.475099999999657,5.338799999999537,1.650400000000445,1.101599999999962,4.028800000000047,1.909200000000965,7.134700000000521,2.426800000001094l3.882900000000518.582000000000335c5.564899999999398.841800000000148,9.513099999998303,2.444299999999203,11.84269999999924,4.805199999999786,2.329599999999118,2.363299999999981,3.494699999999284,5.45259999999962,3.494699999999284,9.270499999999629,0,4.853500000000167-1.650400000000445,8.67240000000038-4.950699999999415,11.454599999999118-3.300300000000789,2.783200000001671-7.831099999999424,4.173800000000483-13.589900000000853,4.173800000000483Z"/><path class="uuid-2cccf228-3bd9-4cff-8919-4391f4829fbc" d="M428.081600000001345,426.163622417274382c-2.717800000000352,0-4.773000000001048-.757800000000316-6.164099999999962-2.274900000000343-1.392100000000937-1.516599999999926-2.086900000000242-3.503399999999601-2.086900000000242-5.957500000000437v-34.963900000000649h-8.251000000000204v-6.891599999999016h4.659200000000055c1.682099999999991,0,2.830599999999322-.340299999999843,3.44629999999961-1.020000000000437.614199999999983-.679199999998673.921900000001187-1.859399999999368.921900000001187-3.542999999999665v-9.318900000000212h6.989199999999983v13.881900000000314h10.969299999998839v6.891599999999016h-10.969299999998839v36.304700000000594h10.192399999999907v6.891600000000835h-9.707000000000335Z"/><path class="uuid-2cccf228-3bd9-4cff-8919-4391f4829fbc" d="M454.970200000001569,364.32962241727364c-1.683600000000297,0-2.896899999999732-.403299999999945-3.64010000000053-1.213399999999638-.744599999999991-.808099999999286-1.116700000000492-1.858900000000176-1.116700000000492-3.154799999999341v-1.261700000000928c0-1.293899999999667.372100000000501-2.34519999999975,1.116700000000492-3.155300000000352.743200000000797-.808599999999387,1.956500000000233-1.213299999999435,3.64010000000053-1.213299999999435,1.682199999999284,0,2.895499999998719.404700000000048,3.640199999999822,1.213299999999435.743099999999686.810100000000602,1.116199999998571,1.861400000000685,1.116199999998571,3.155300000000352v1.261700000000928c0,1.295899999999165-.373099999998885,2.346700000000055-1.116199999998571,3.154799999999341-.744700000001103.810099999999693-1.958000000000538,1.213399999999638-3.640199999999822,1.213399999999638ZM451.087400000000343,376.075722417273937h7.765600000000632v50.087900000000445h-7.765600000000632v-50.087900000000445Z"/><path class="uuid-2cccf228-3bd9-4cff-8919-4391f4829fbc" d="M493.992700000000696,427.328622417273436c-3.494599999999991,0-6.634299999999712-.615699999999379-9.415999999999258-1.843699999999444-2.783199999999852-1.22899999999936-5.129399999999805-2.976599999999962-7.037600000001476-5.242200000000594-1.909700000000157-2.264699999999721-3.365699999998469-5.014699999999721-4.368199999998978-8.250999999999294-1.003899999999703-3.235400000000482-1.504399999999805-6.859400000000278-1.504399999999805-10.872099999999591,0-4.011700000000928.500500000000102-7.635700000000725,1.504399999999805-10.872000000000298,1.002500000000509-3.235400000000482,2.458499999998821-5.985400000000482,4.368199999998978-8.251000000000204,1.908200000001671-2.26470000000063,4.254400000001624-4.011700000000019,7.037600000001476-5.242199999999684,2.781699999999546-1.228500000000167,5.921399999999267-1.843800000000556,9.415999999999258-1.843800000000556,4.98240000000078,0,8.97899999999936,1.084000000000742,11.988300000000891,3.251000000000204,3.009299999999712,2.169499999999971,5.257299999999304,5,6.74659999999858,8.494200000000092l-6.503899999999703,3.300699999998869c-.906800000000658-2.587799999999334-2.395099999999729-4.594699999998738-4.465399999999136-6.018499999998312-2.071799999999712-1.422900000000482-4.659200000000055-2.135800000000017-7.765600000000632-2.135800000000017-2.329599999999118,0-4.368200000000797.373099999998885-6.115700000000288,1.116299999999683-1.747099999998682.744599999999991-3.203099999998813,1.781199999999444-4.368199999998978,3.106399999999667-1.164500000000771,1.32720000000063-2.03859999999986,2.912100000000464-2.620600000000195,4.756400000000212-.582500000000437,1.845200000000659-.873999999999796,3.867600000000493-.873999999999796,6.066799999999603v8.542000000000371c0,4.402399999999943,1.180199999998877,8.00880000000052,3.543399999998655,10.823800000000119,2.361399999999776,2.815400000000409,5.839400000000751,4.222600000000057,10.435100000000602,4.222600000000057,6.276400000000649,0,10.806599999999889-2.911600000000362,13.589799999999741-8.736300000000483l5.630400000000009,3.785600000000159c-1.618199999998978,3.625-4.028299999999945,6.503900000000613-7.231899999998859,8.63970000000063-3.203100000000632,2.135199999998804-7.19970000000103,3.203099999998813-11.988300000000891,3.203099999998813Z"/><path class="uuid-2cccf228-3bd9-4cff-8919-4391f4829fbc" d="M539.227100000000064,427.328622417273436c-4.659699999998338,0-8.55909999999858-.890099999998711-11.697299999999814-2.668899999998757-3.139600000000428-1.779300000000148-5.840799999999945-4.158199999999852-8.105499999999665-7.134800000000723l5.533199999999852-4.465799999999945c1.941399999999703,2.459899999998925,4.108900000001086,4.352499999999964,6.503899999999703,5.67869999999948,2.393100000001141,1.327100000000428,5.176300000000992,1.990200000000186,8.348200000000361,1.990200000000186,3.300300000000789,0,5.872600000000602-.711899999999332,7.716800000000148-2.135700000000725,1.844699999999648-1.422899999999572,2.766600000000835-3.429699999998775,2.766600000000835-6.018599999999424,0-1.941399999999703-.630900000000111-3.606400000000576-1.892600000001039-4.998999999999796-1.262199999999211-1.390599999999722-3.543399999998655-2.344699999999648-6.843699999999444-2.863299999999072l-3.979999999999563-.583000000000538c-2.329600000000937-.323200000000725-4.465299999999843-.824700000000121-6.406800000000658-1.503899999999703-1.941399999999703-.680200000000696-3.64010000000053-1.585399999999936-5.096100000000661-2.718200000000252-1.456099999999424-1.131400000000212-2.58889999999883-2.539600000000064-3.397499999999127-4.223199999999451-.810100000000602-1.681599999999889-1.213400000000547-3.688500000000204-1.213400000000547-6.017600000001039,0-2.459000000000742.452199999999721-4.611299999999574,1.358900000001086-6.454999999999927.905799999998635-1.84480000000076,2.150899999998728-3.381900000000314,3.737299999998868-4.611399999999776,1.585000000000946-1.228499999999258,3.478000000000975-2.150900000000547,5.67870000000039-2.766599999999926,2.199199999999109-.614199999999983,4.5625-.921900000000278,7.08640000000014-.921900000000278,4.076699999999619,0,7.489299999999275.712400000000343,10.240799999999581,2.135299999999916,2.75,1.424300000000585,5.160100000000966,3.397500000000946,7.231900000000678,5.921399999999267l-5.145000000000437,4.659200000001874c-1.10109999999986-1.552800000001298-2.717800000000352-2.960000000001855-4.853499999999258-4.222700000000259-2.135299999999916-1.261700000000928-4.821300000001429-1.892600000001039-8.056700000001001-1.892600000001039-3.236799999998766,0-5.67870000000039.695800000001327-7.329099999999016,2.086900000000242-1.649900000000343,1.392100000000937-2.475099999999657,3.285200000000259-2.475099999999657,5.678799999999683,0,2.459900000000744.825199999999313,4.239200000000892,2.475099999999657,5.338799999999537,1.650399999998626,1.101599999999962,4.028800000000047,1.909200000000965,7.134799999999814,2.426800000001094l3.882799999999406.582000000000335c5.564899999999398.841800000000148,9.513199999999415,2.444299999999203,11.842800000000352,4.805199999999786,2.329599999999118,2.363299999999981,3.494599999999991,5.45259999999962,3.494599999999991,9.270499999999629,0,4.853500000000167-1.650400000000445,8.67240000000038-4.950700000001234,11.454599999999118-3.30029999999897,2.783200000001671-7.830999999998312,4.173800000000483-13.589799999999741,4.173800000000483Z"/><path class="uuid-2cccf228-3bd9-4cff-8919-4391f4829fbc" d="M126.483900000001086,543.814022417274828c-5.501000000000204,0-10.192399999999907-1.052800000001298-14.075199999999313-3.154300000000148-3.882800000001225-2.102600000000166-7.183600000000297-4.999500000001717-9.901400000000649-8.688500000000204l6.018599999999424-5.047900000000482c2.393099999999322,3.171900000000278,5.04739999999947,5.582100000000537,7.959500000000844,7.232500000000073,2.912099999999555,1.649899999999434,6.341800000000148,2.475100000000566,10.289999999999054,2.475100000000566,4.853500000001077,0,8.557099999999991-1.165100000000166,11.114300000001094-3.494700000001103,2.555599999999686-2.329999999999927,3.834399999999732-5.435999999999694,3.834399999999732-9.318799999999101,0-3.23490000000038-.970699999999852-5.727100000000064-2.912100000001374-7.474100000000362-1.941399999999703-1.748099999999795-5.144999999998618-3.138700000000426-9.609799999998359-4.174799999999777l-5.533200000001671-1.261800000000221c-6.212899999998626-1.422800000000279-10.954099999999016-3.574200000000019-14.221199999999953-6.454999999999927-3.268599999999424-2.878899999999703-4.901899999998932-6.940500000000611-4.901899999998932-12.182700000001205,0-2.975499999998647.548800000000483-5.629799999998795,1.649900000000343-7.958899999998721,1.100099999999657-2.33010000000013,2.636300000000119-4.271499999999833,4.610899999999674-5.824700000000121,1.973599999999351-1.553299999999581,4.334899999999834-2.733000000000175,7.08640000000014-3.543499999999767,2.75-.808600000000297,5.775899999998728-1.213400000000547,9.076199999999517-1.213400000000547,5.111300000000483,0,9.496100000000297.939000000000306,13.153299999999945,2.815400000000409,3.655300000000352,1.8774999999996,6.746100000000297,4.6274999999996,9.270000000000437,8.250999999999294l-6.115200000000186,4.465400000000955c-1.878000000000611-2.587900000000445-4.14259999999922-4.626000000000204-6.795000000000073-6.115799999999581-2.654300000000148-1.487800000000789-5.954999999999927-2.232900000000882-9.901299999999537-2.232900000000882-4.33640000000014,0-7.750500000000102.922899999999572-10.24120000000039,2.766599999999016-2.491700000000492,1.84480000000076-3.737300000000687,4.611400000001595-3.737300000000687,8.299800000000687,0,3.236800000000585,1.051199999999881,5.67870000000039,3.155200000001059,7.328600000000733,2.102100000000064,1.650400000000445,5.290100000000166,2.961499999999432,9.561599999999089,3.932199999999284l5.53269999999975,1.261700000000928c6.664500000000771,1.489199999999983,11.486300000000483,3.753899999999703,14.463400000000547,6.794899999998961,2.976000000000568,3.042000000000371,4.465299999999843,7.085900000000038,4.465299999999843,12.13380000000052,0,3.106399999999667-.533699999999953,5.920900000000074-1.601599999999962,8.445300000000316-1.067799999998897,2.523499999999331-2.605900000000474,4.659200000000055-4.610800000000381,6.406299999999646-2.006899999998495,1.7475000000004-4.450199999999313,3.106399999999667-7.328599999998914,4.077099999999518-2.880400000000009.970699999999852-6.132400000000416,1.456100000001243-9.755900000000111,1.456100000001243Z"/><path class="uuid-2cccf228-3bd9-4cff-8919-4391f4829fbc" d="M182.007800000001225,543.814022417274828c-3.365700000000288,0-6.439900000001217-.6158000000014-9.221600000000763-1.844300000000658-2.783199999999852-1.228000000000065-5.161700000000565-2.992599999999584-7.134799999999814-5.290500000000065-1.974599999999555-2.295900000000074-3.511200000000827-5.04740000000038-4.610899999999674-8.251000000001113-1.101000000000568-3.203099999998813-1.649900000000343-6.810499999999593-1.649900000000343-10.823199999998906,0-3.94629999999961.548899999999776-7.538099999999758,1.649900000000343-10.775400000000445,1.099699999998847-3.234399999999368,2.636300000000119-6.001999999999498,4.610899999999674-8.299299999999675,1.973099999999249-2.296400000000176,4.351599999999962-4.060099999999693,7.134799999999814-5.290599999999358,2.781699999999546-1.228500000001077,5.855900000000474-1.843700000000354,9.221600000000763-1.843700000000354,3.364299999999275,0,6.421899999999368.615199999999277,9.173399999999674,1.843700000000354,2.75,1.230499999999665,5.128399999999601,2.994199999999182,7.134700000000521,5.290599999999358,2.005400000000009,2.297300000000178,3.558599999998478,5.064900000000307,4.659700000000157,8.299299999999675,1.099599999999555,3.237300000000687,1.649899999998524,6.829100000000835,1.649899999998524,10.775400000000445,0,4.012699999999313-.55029999999897,7.620100000000093-1.649899999998524,10.823199999998906-1.101100000001679,3.203600000000733-2.654300000000148,5.955100000001039-4.659700000000157,8.251000000001113-2.00630000000092,2.297900000000482-4.384700000000521,4.0625-7.134700000000521,5.290500000000065-2.751500000000306,1.228499999999258-5.809100000000399,1.844300000000658-9.173399999999674,1.844300000000658ZM182.007800000001225,536.921922417272981c4.206099999999424,0,7.635299999999916-1.293499999998858,10.289600000000064-3.882799999998497,2.652799999999843-2.587400000000343,3.979999999999563-6.535700000000361,3.979999999999563-11.84230000000025v-7.183600000000297c0-5.305699999999888-1.327199999999721-9.253899999999703-3.979999999999563-11.842800000000352-2.654300000000148-2.587399999999434-6.08350000000064-3.882799999999406-10.289600000000064-3.882799999999406-4.207000000000335,0-7.636700000000928,1.295399999999972-10.289500000000771,3.882799999999406-2.654300000000148,2.588900000000649-3.979999999999563,6.537100000000464-3.979999999999563,11.842800000000352v7.183600000000297c0,5.306599999999889,1.325699999999415,9.254899999999907,3.979999999999563,11.84230000000025,2.652799999999843,2.589299999999639,6.082500000000437,3.882799999998497,10.289500000000771,3.882799999998497Z"/><path class="uuid-2cccf228-3bd9-4cff-8919-4391f4829fbc" d="M236.076200000001336,543.814022417274828c-3.494099999999889,0-6.63379999999961-.6158000000014-9.415500000000975-1.844300000000658-2.783199999999852-1.228000000000065-5.129899999999907-2.976000000000568-7.037599999999657-5.241700000000492-1.909700000000157-2.264599999999518-3.365799999999581-5.014599999999518-4.368199999998978-8.250899999999092-1.004400000001624-3.235400000000482-1.504900000001726-6.859400000001187-1.504900000001726-10.872100000000501,0-4.011700000000019.500500000000102-7.635800000000017,1.504900000001726-10.872100000000501,1.002399999999398-3.23529999999937,2.458499999998821-5.98529999999937,4.368199999998978-8.251000000000204,1.90769999999975-2.264600000000428,4.254399999999805-4.011699999999109,7.037599999999657-5.242199999998775,2.781700000001365-1.228500000001077,5.921400000001086-1.843700000000354,9.415500000000975-1.843700000000354,4.982399999998961,0,8.97899999999936,1.083999999999833,11.988799999999173,3.251499999999396,3.00879999999961,2.169400000000678,5.256800000001022,4.999499999999898,6.746100000000297,8.493600000000697l-6.503500000000713,3.300799999999981c-.907199999999648-2.587900000001355-2.395499999998719-4.594699999999648-4.465799999999945-6.018600000000333-2.07129999999961-1.42279999999937-4.659200000000055-2.135699999999815-7.765599999998813-2.135699999999815-2.329100000000835,0-4.368200000000797.372999999999593-6.115200000000186,1.11620000000039-1.747100000000501.745100000000093-3.203199999999924,1.780799999999545-4.368200000000797,3.106499999999869-1.164999999999054,1.327099999999518-2.03859999999986,2.912099999999555-2.621100000000297,4.756299999999101-.581999999998516,1.844700000000557-.873499999999694,3.867700000000696-.873499999999694,6.066900000000714v8.543000000000575c0,4.401299999999537,1.180099999999584,8.007799999999406,3.542900000000373,10.823199999998906,2.361899999999878,2.815000000000509,5.839400000000751,4.222199999999248,10.435100000000602,4.222199999999248,6.27639999999883,0,10.806599999999889-2.912099999998645,13.589799999999741-8.736399999998866l5.630400000000009,3.785700000000361c-1.618200000000797,3.625-4.028299999999945,6.503899999999703-7.231400000000576,8.639599999999518-3.203599999998914,2.135299999999006-7.200199999999313,3.203200000000834-11.988799999999173,3.203200000000834Z"/><path class="uuid-2cccf228-3bd9-4cff-8919-4391f4829fbc" d="M270.147500000000946,480.81492241727392c-1.683600000000297,0-2.897000000000844-.403299999999945-3.640199999999822-1.212799999999334-.744599999999991-.809100000000399-1.11620000000039-1.85990000000038-1.11620000000039-3.155300000000352v-1.261700000000019c0-1.293999999999869.371600000000399-2.345299999999952,1.11620000000039-3.155300000001262.743199999998978-.808599999998478,1.956599999999526-1.212899999998626,3.640199999999822-1.212899999998626,1.682099999999991,0,2.895500000000538.404300000000148,3.64010000000053,1.212899999998626.743199999998978.81000000000131,1.116199999998571,1.861300000001393,1.116199999998571,3.155300000001262v1.261700000000019c0,1.295399999999972-.372999999999593,2.346199999999953-1.116199999998571,3.155300000000352-.744599999999991.809499999999389-1.958000000000538,1.212799999999334-3.64010000000053,1.212799999999334ZM266.26470000000154,492.560522417274115h7.765599999998813v50.088400000000547h-7.765599999998813v-50.088400000000547Z"/><path class="uuid-2cccf228-3bd9-4cff-8919-4391f4829fbc" d="M309.364300000001094,543.814022417274828c-3.430700000000797,0-6.520500000000538-.6158000000014-9.270500000000538-1.844300000000658-2.751000000000204-1.228000000000065-5.11279999999897-2.992599999999584-7.085999999999331-5.290500000000065-1.975099999999657-2.295900000000074-3.494599999999991-5.04740000000038-4.5625-8.251000000001113-1.067800000000716-3.203099999998813-1.601500000000669-6.810499999999593-1.601500000000669-10.823199999998906,0-3.94629999999961.533699999999953-7.538099999999758,1.601500000000669-10.775400000000445,1.067900000000009-3.234399999999368,2.587400000000343-6.001999999999498,4.5625-8.299299999999675,1.973200000000361-2.296400000000176,4.334999999999127-4.060099999999693,7.085999999999331-5.290599999999358,2.75-1.228500000001077,5.839799999999741-1.843700000000354,9.270500000000538-1.843700000000354,3.364199999999983,0,6.372999999999593.612299999999777,9.027299999999741,1.837899999999536,2.653299999999945,1.225599999999758,4.917499999999563,2.91990000000078,6.79490000000078,5.079600000000937,1.876499999998487,2.159599999999045,3.315999999998894,4.723099999999249,4.319899999998597,7.689899999999398,1.002400000001217,2.966800000000148,1.504899999999907,6.223200000000361,1.504899999999907,9.769099999999526v3.677200000000084h-36.013699999999517v2.329100000000835c0,2.135800000000017.339799999999741,4.125500000000102,1.019500000000335,5.97019999999975.679200000000492,1.844299999999748,1.649900000000343,3.445799999999508,2.912099999999555,4.804699999999684,1.261700000000928,1.358900000000176,2.815000000000509,2.426800000000185,4.659200000000055,3.203599999999824,1.844199999999546.776400000000649,3.931599999999889,1.164599999999155,6.261200000000827,1.164599999999155,3.170000000000073,0,5.936599999999089-.743199999998978,8.299299999998766-2.232399999998961,2.361899999999878-1.487799999999879,4.189500000000407-3.623599999999897,5.484900000001289-6.406799999999748l5.533199999999852,4.005400000000009c-1.618599999999788,3.452599999998711-4.142600000001039,6.235800000000381-7.571799999999712,8.351599999999962-3.431100000001607,2.115700000000288-7.507800000001225,3.174300000000585-12.230900000000474,3.174300000000585ZM309.364300000001094,497.899422417272945c-2.135800000000017,0-4.077199999999721.370100000001912-5.824200000000928,1.110400000001391-1.747599999998783.740700000000288-3.251999999998588,1.785099999999147-4.513699999999517,3.135199999999713-1.262199999999211,1.349600000000464-2.249499999999898,2.942399999999907-2.960900000000038,4.774399999999332-.712900000000445,1.83350000000064-1.067900000000009,3.843300000000454-1.067900000000009,6.030300000000352v.674800000000687h27.665500000000975v-1.061499999999796c0-4.4375-1.213400000000547-7.989800000001196-3.64010000000053-10.659200000000055-2.426799999999275-2.668900000000576-5.647000000000844-4.004400000001624-9.658699999999953-4.004400000001624Z"/><path class="uuid-2cccf228-3bd9-4cff-8919-4391f4829fbc" d="M354.890199999999822,542.648922417274662c-2.717799999998533,0-4.772999999999229-.757800000000316-6.164099999998143-2.274400000000242-1.392100000000937-1.517100000000937-2.086900000000242-3.503899999999703-2.086900000000242-5.958000000001448v-34.96389999999883h-8.251000000000204v-6.892100000000028h4.659200000000055c1.682099999999991,0,2.830599999999322-.339799999999741,3.44629999999961-1.019500000000335.614199999999983-.679199999999582.921800000000076-1.858899999999267.921800000000076-3.542499999999563v-9.319300000000112h6.989299999999275v13.88130000000001h10.969200000001365v6.892100000000028h-10.969200000001365v36.304699999999684h10.192399999999907v6.891600000000835h-9.707000000000335Z"/><path class="uuid-2cccf228-3bd9-4cff-8919-4391f4829fbc" d="M408.764200000001438,492.560522417274115h7.668899999998757l-22.423299999998562,61.73739999999998c-.582500000000437,1.487699999999677-1.165100000000166,2.732899999999972-1.747600000000602,3.736800000000585-.582000000000335,1.002899999999499-1.29490000000078,1.796399999999267-2.135200000000623,2.378399999999601-.841800000000148.582500000000437-1.893099999999322,1.003399999998692-3.15480000000025,1.262199999999211-1.262199999999211.257800000001225-2.799799999998868.388200000001234-4.610799999998562.388200000001234h-3.980000000001382v-6.892100000000937h7.862800000000789l3.785599999999249-10.661099999999351-18.73489999999947-51.949800000000323h7.765699999999924l12.037099999999555,34.006400000000212,2.329600000000937,8.139199999999619h.485300000000279l2.717799999998533-8.139199999999619,12.133800000001429-34.006400000000212Z"/><path class="uuid-2cccf228-3bd9-4cff-8919-4391f4829fbc" d="M124.503921875000742,637.562038281250352l-2.416015625-7.67822265625h-10.697265625l-2.373046875,7.67822265625h-5.7802734375l10.0947265625-30.109375h7.07421875l10.0078125,30.109375h-5.91015625ZM116.826187500000742,612.628932812500352h-.2158203125l-3.83984375,12.38037109375h7.9375l-3.8818359375-12.38037109375Z"/><path class="uuid-2cccf228-3bd9-4cff-8919-4391f4829fbc" d="M134.510757812500742,637.562038281250352v-22.51708984375h5.521484375v4.65869140625h.2158203125c.5615234375-2.37255859375,2.373046875-4.65869140625,5.953125-4.65869140625h1.2080078125v5.21923828125h-1.7255859375c-3.7099609375,0-5.6513671875,1.03515625-5.6513671875,3.494140625v13.8037109375h-5.521484375Z"/><path class="uuid-2cccf228-3bd9-4cff-8919-4391f4829fbc" d="M152.843765625000742,631.824733593750352v-12.3798828125h-3.3212890625v-4.39990234375h1.724609375c1.6396484375,0,2.1572265625-.77685546875,2.1572265625-2.32958984375v-3.83935546875h4.9609375v6.1689453125h4.615234375v4.39990234375h-4.615234375v13.71728515625h4.2705078125v4.39990234375h-3.96875c-3.7958984375,0-5.8232421875-2.0703125-5.8232421875-5.7373046875Z"/><path class="uuid-2cccf228-3bd9-4cff-8919-4391f4829fbc" d="M165.827164062500742,633.938503125000352l3.365234375-3.2783203125c1.638671875,1.89794921875,3.623046875,3.0625,6.16796875,3.0625,2.6318359375,0,3.7529296875-.99169921875,3.7529296875-2.587890625,0-1.29443359375-.7763671875-2.11376953125-2.7607421875-2.37255859375l-2.2431640625-.30224609375c-4.8310546875-.603515625-7.505859375-2.71728515625-7.505859375-6.8154296875,0-4.35693359375,3.408203125-7.11767578125,8.541015625-7.11767578125,4.400390625,0,6.6435546875,1.29443359375,8.7998046875,3.53759765625l-3.234375,3.23486328125c-1.294921875-1.38037109375-3.1923828125-2.41552734375-5.392578125-2.41552734375-2.3720703125,0-3.408203125.94921875-3.408203125,2.32958984375,0,1.509765625.8203125,2.19970703125,2.93359375,2.544921875l2.2861328125.3017578125c4.91796875.6904296875,7.2900390625,2.89013671875,7.2900390625,6.64306640625,0,4.35693359375-3.666015625,7.37646484375-9.2744140625,7.37646484375-4.2705078125,0-7.07421875-1.552734375-9.3173828125-4.14111328125Z"/><path class="uuid-2cccf228-3bd9-4cff-8919-4391f4829fbc" d="M218.453140625000742,637.562038281250352l-2.416015625-7.67822265625h-10.6982421875l-2.3720703125,7.67822265625h-5.7802734375l10.09375-30.109375h7.07421875l10.0078125,30.109375h-5.9091796875ZM210.774429687500742,612.628932812500352h-.2158203125l-3.8388671875,12.38037109375h7.9365234375l-3.8818359375-12.38037109375Z"/><path class="uuid-2cccf228-3bd9-4cff-8919-4391f4829fbc" d="M226.518570312500742,633.938503125000352l3.365234375-3.2783203125c1.638671875,1.89794921875,3.623046875,3.0625,6.16796875,3.0625,2.6318359375,0,3.7529296875-.99169921875,3.7529296875-2.587890625,0-1.29443359375-.7763671875-2.11376953125-2.7607421875-2.37255859375l-2.2431640625-.30224609375c-4.8310546875-.603515625-7.505859375-2.71728515625-7.505859375-6.8154296875,0-4.35693359375,3.408203125-7.11767578125,8.541015625-7.11767578125,4.400390625,0,6.6435546875,1.29443359375,8.7998046875,3.53759765625l-3.234375,3.23486328125c-1.294921875-1.38037109375-3.1923828125-2.41552734375-5.392578125-2.41552734375-2.3720703125,0-3.408203125.94921875-3.408203125,2.32958984375,0,1.509765625.8203125,2.19970703125,2.93359375,2.544921875l2.2861328125.3017578125c4.91796875.6904296875,7.2900390625,2.89013671875,7.2900390625,6.64306640625,0,4.35693359375-3.666015625,7.37646484375-9.2744140625,7.37646484375-4.2705078125,0-7.07421875-1.552734375-9.3173828125-4.14111328125Z"/><path class="uuid-2cccf228-3bd9-4cff-8919-4391f4829fbc" d="M247.742203125000742,633.938503125000352l3.3642578125-3.2783203125c1.6396484375,1.89794921875,3.6240234375,3.0625,6.1689453125,3.0625,2.630859375,0,3.7529296875-.99169921875,3.7529296875-2.587890625,0-1.29443359375-.7763671875-2.11376953125-2.7607421875-2.37255859375l-2.2431640625-.30224609375c-4.83203125-.603515625-7.505859375-2.71728515625-7.505859375-6.8154296875,0-4.35693359375,3.4072265625-7.11767578125,8.541015625-7.11767578125,4.3994140625,0,6.642578125,1.29443359375,8.7998046875,3.53759765625l-3.2353515625,3.23486328125c-1.2939453125-1.38037109375-3.1923828125-2.41552734375-5.3916015625-2.41552734375-2.373046875,0-3.408203125.94921875-3.408203125,2.32958984375,0,1.509765625.8193359375,2.19970703125,2.93359375,2.544921875l2.2861328125.3017578125c4.9169921875.6904296875,7.2900390625,2.89013671875,7.2900390625,6.64306640625,0,4.35693359375-3.6669921875,7.37646484375-9.2744140625,7.37646484375-4.2705078125,0-7.07421875-1.552734375-9.3173828125-4.14111328125Z"/><path class="uuid-2cccf228-3bd9-4cff-8919-4391f4829fbc" d="M269.697281250000742,626.260280468750352c0-7.20361328125,4.01171875-11.7333984375,10.439453125-11.7333984375,6.470703125,0,10.482421875,4.52978515625,10.482421875,11.7333984375,0,7.2470703125-4.01171875,11.8193359375-10.482421875,11.8193359375-6.427734375,0-10.439453125-4.572265625-10.439453125-11.8193359375ZM284.838882812500742,628.374050000000352v-4.1845703125c0-3.3642578125-1.8115234375-5.21923828125-4.7021484375-5.21923828125-2.8466796875,0-4.6591796875,1.85498046875-4.6591796875,5.21923828125v4.1845703125c0,3.40771484375,1.8125,5.2626953125,4.6591796875,5.2626953125,2.890625,0,4.7021484375-1.85498046875,4.7021484375-5.2626953125Z"/><path class="uuid-2cccf228-3bd9-4cff-8919-4391f4829fbc" d="M293.982437500000742,626.260280468750352c0-7.20361328125,3.7529296875-11.7333984375,10.396484375-11.7333984375,4.529296875,0,7.505859375,2.1572265625,8.8427734375,5.6943359375l-4.529296875,2.02734375c-.517578125-1.89794921875-1.94140625-3.2783203125-4.3134765625-3.2783203125-3.0625,0-4.6162109375,2.15673828125-4.6162109375,5.3056640625v4.09814453125c0,3.14892578125,1.5537109375,5.2626953125,4.6162109375,5.2626953125,2.630859375,0,3.92578125-1.509765625,4.7451171875-3.537109375l4.2275390625,2.02734375c-1.466796875,3.96826171875-4.6162109375,5.95263671875-8.97265625,5.95263671875-6.6435546875,0-10.396484375-4.572265625-10.396484375-11.8193359375Z"/><path class="uuid-2cccf228-3bd9-4cff-8919-4391f4829fbc" d="M317.146500000000742,609.005397656250352v-.8623046875c0-1.59619140625.9482421875-2.7607421875,3.234375-2.7607421875,2.2431640625,0,3.2353515625,1.16455078125,3.2353515625,2.7607421875v.8623046875c0,1.59619140625-.9921875,2.7607421875-3.2353515625,2.7607421875-2.2861328125,0-3.234375-1.16455078125-3.234375-2.7607421875ZM317.620132812500742,615.044948437500352h5.521484375v22.51708984375h-5.521484375v-22.51708984375Z"/><path class="uuid-2cccf228-3bd9-4cff-8919-4391f4829fbc" d="M327.929703125000742,631.436550000000352c0-4.61572265625,3.494140625-6.90185546875,9.619140625-6.90185546875h3.8388671875v-1.63916015625c0-2.501953125-1.2509765625-3.96826171875-4.18359375-3.96826171875-2.5888671875,0-4.0556640625,1.2939453125-5.1337890625,2.8466796875l-3.2783203125-2.93310546875c1.6396484375-2.58837890625,4.2705078125-4.31396484375,8.7998046875-4.31396484375,6.08203125,0,9.3173828125,2.89013671875,9.3173828125,8.0234375v10.61181640625h2.2431640625v4.39990234375h-3.0625c-2.3720703125,0-3.8388671875-1.552734375-4.1845703125-3.88232421875h-.2587890625c-.7333984375,2.89013671875-3.19140625,4.39990234375-6.556640625,4.39990234375-4.572265625,0-7.16015625-2.63134765625-7.16015625-6.64306640625ZM341.387710937500742,630.832546093750352v-2.97607421875h-3.537109375c-2.8896484375,0-4.3134765625.9921875-4.3134765625,2.7607421875v.73291015625c0,1.81201171875,1.2509765625,2.7177734375,3.408203125,2.7177734375,2.4580078125,0,4.4423828125-1.12158203125,4.4423828125-3.2353515625Z"/><path class="uuid-2cccf228-3bd9-4cff-8919-4391f4829fbc" d="M354.673843750000742,631.824733593750352v-12.3798828125h-3.3212890625v-4.39990234375h1.724609375c1.6396484375,0,2.1572265625-.77685546875,2.1572265625-2.32958984375v-3.83935546875h4.9609375v6.1689453125h4.615234375v4.39990234375h-4.615234375v13.71728515625h4.2705078125v4.39990234375h-3.96875c-3.7958984375,0-5.8232421875-2.0703125-5.8232421875-5.7373046875Z"/><path class="uuid-2cccf228-3bd9-4cff-8919-4391f4829fbc" d="M369.124039062500742,609.005397656250352v-.8623046875c0-1.59619140625.94921875-2.7607421875,3.2353515625-2.7607421875,2.2431640625,0,3.2353515625,1.16455078125,3.2353515625,2.7607421875v.8623046875c0,1.59619140625-.9921875,2.7607421875-3.2353515625,2.7607421875-2.2861328125,0-3.2353515625-1.16455078125-3.2353515625-2.7607421875ZM369.598648437500742,615.044948437500352h5.521484375v22.51708984375h-5.521484375v-22.51708984375Z"/><path class="uuid-2cccf228-3bd9-4cff-8919-4391f4829fbc" d="M379.993179687500742,626.260280468750352c0-7.20361328125,4.01171875-11.7333984375,10.439453125-11.7333984375,6.470703125,0,10.482421875,4.52978515625,10.482421875,11.7333984375,0,7.2470703125-4.01171875,11.8193359375-10.482421875,11.8193359375-6.427734375,0-10.439453125-4.572265625-10.439453125-11.8193359375ZM395.134781250000742,628.374050000000352v-4.1845703125c0-3.3642578125-1.8115234375-5.21923828125-4.7021484375-5.21923828125-2.8466796875,0-4.6591796875,1.85498046875-4.6591796875,5.21923828125v4.1845703125c0,3.40771484375,1.8125,5.2626953125,4.6591796875,5.2626953125,2.890625,0,4.7021484375-1.85498046875,4.7021484375-5.2626953125Z"/><path class="uuid-2cccf228-3bd9-4cff-8919-4391f4829fbc" d="M405.788101562500742,637.562038281250352v-22.51708984375h5.521484375v3.75244140625h.2158203125c.90625-2.41552734375,2.8046875-4.2705078125,6.2978515625-4.2705078125,4.6162109375,0,7.2041015625,3.1923828125,7.2041015625,8.80029296875v14.23486328125h-5.521484375v-13.67431640625c0-3.19189453125-1.078125-4.8310546875-3.7099609375-4.8310546875-2.2861328125,0-4.486328125,1.20751953125-4.486328125,3.623046875v14.88232421875h-5.521484375Z"/></g></svg>