<?xml version="1.0" encoding="UTF-8"?><svg id="uuid-3fac2286-9935-4f3c-afcf-e0ffe9cad2e4" xmlns="http://www.w3.org/2000/svg" width="568.76906812461209mm" height="250.004051829100774mm" xmlns:xlink="http://www.w3.org/1999/xlink" viewBox="0 0 1612.25879999999961 708.672913465847159"><defs><style>.uuid-54c68d98-1f4c-4f24-a8e1-d90bbd22af14{fill:#fff;}.uuid-6d6a9710-e7bd-485b-8d97-741f38c0f487{fill:none;}.uuid-285b25fa-e752-4712-98ae-2d53cbaae6b9{fill:#333e48;}.uuid-31f6d7dc-6610-42e4-acc6-7eb055f24739{clip-path:url(#uuid-58472952-460c-49ed-879d-eb76a35a7aeb);}</style><clipPath id="uuid-58472952-460c-49ed-879d-eb76a35a7aeb"><rect class="uuid-6d6a9710-e7bd-485b-8d97-741f38c0f487" y=".001000000000204" width="1612.25879999999961" height="708.671913465846956"/></clipPath></defs><g class="uuid-31f6d7dc-6610-42e4-acc6-7eb055f24739"><path class="uuid-54c68d98-1f4c-4f24-a8e1-d90bbd22af14" d="M158.441399999999703,271.573324507911821c-9.105400000000373,21.52729945617466-14.519500000000335,44.144475492088532-16.16990000000078,67.425698296683549,3.587900000000445-2.921799926189124,8.159200000000055-4.679599881783361,13.136700000000928-4.679599881783361,5.495100000000093,0,10.488299999999072,2.154299945577804,14.216800000000148,5.636699857604981,7.337899999999536-95.591797585148015,87.224599999999555-170.871122780416954,184.701199999999517-170.871122780416954,7.552700000000186,0,13.674799999999777-6.123099999999795,13.674799999999777-13.675799999999981s-6.122099999999591-13.675799999999981-13.674799999999777-13.675799999999981c-28.689500000000407,0-56.536099999999351,5.625-82.765600000000632,16.718800000000556-25.318400000000111,10.708999999999833-48.052799999999479,26.033199999999852-67.567399999999907,45.548799999999574-19.518599999999424,19.51760000000013-34.844699999999648,42.252025147556196-45.551799999999275,67.572324507911617Z"/><path class="uuid-54c68d98-1f4c-4f24-a8e1-d90bbd22af14" d="M339.185599999998885,538.96980000000076c-94.95509999999922-7.681682053036639-169.671899999999368-86.962880050225067-170.101599999999962-183.796877603992471,0-7.550799809250748-6.120099999999184-13.675799654520233-13.675799999999072-13.675799654520233-7.552700000000186,0-13.675800000000891,6.124999845269485-13.675800000000891,13.675799654520233.109400000001187,28.394499282693687,5.722700000000259,55.955098586455279,16.709000000000742,81.927697930332215,10.707099999999627,25.318399360403419,26.033199999999852,48.052698786086694,45.551799999999275,67.568398293078644,19.514600000000428,19.517499506946479,42.248999999999796,34.843699119774101,67.567399999999907,45.552698849242006,21.255800000000818,8.990199772888445,43.573200000000725,14.386699636561389,66.539000000000669,16.111299592994328-2.886700000000019-3.579999909562503-4.626900000000205-8.12299979479576-4.626900000000205-13.068299669866974,0-5.53319986022052,2.183600000000297-10.556699733315327,5.712899999999536-14.294917391787749Z"/><path class="uuid-54c68d98-1f4c-4f24-a8e1-d90bbd22af14" d="M502.527399999999034,487.413119055339848c-2.670000000000073-2.671899932502129-6.170000000000073-4.00579989880589-9.670000000000073-4.00579989880589-3.497999999999593,0-7,1.333899966303761-9.671800000000076,4.00579989880589-33.341799999999239,32.290999184260727-78.775399999999536,52.175798681928427-128.859399999999368,52.175798681928427-7.552700000000186,0-13.675799999999981,6.12299984532001-13.675799999999981,13.675799654520233,0,7.55269980920275,6.123099999999795,13.675799654520233,13.675799999999981,13.675799654520233,28.690399999999499,0,56.535200000000259-5.624999857900548,82.763699999999517-16.718799577647587,24.408199999999852-10.320299739287293,46.401300000000447-24.947299369778193,65.4375-43.468698901889184,5.343700000000354-5.33989986510187,5.343700000000354-13.998099646377341,0-19.339899511432122Z"/><path class="uuid-54c68d98-1f4c-4f24-a8e1-d90bbd22af14" d="M354.326199999999517,566.940517046308742c-7.552700000000186,0-13.675799999999981-6.123099845317483-13.675799999999981-13.675799654520233,0-7.552799809200224,6.123099999999795-13.675799654520233,13.675799999999981-13.675799654520233,50.083999999999833,0,95.51760000000013-19.8847994976677,128.859399999999368-52.175798681928427,2.671800000000076-2.671899932502129,6.173800000000483-4.00579989880589,9.671800000000076-4.00579989880589,3.5,0,7,1.333899966303761,9.670000000000073,4.00579989880589,5.343700000000354,5.341799865054782,5.343700000000354,13.999999646330252,0,19.339899511432122-19.036199999999553,18.521399532110991-41.029300000000148,33.148399162601891-65.4375,43.468698901889184-26.228499999999258,11.093799719747039-54.073300000000017,16.718799577647587-82.763699999999517,16.718799577647587ZM271.560599999998885,550.221717468661154c-25.318400000000111-10.708999729467905-48.052799999999479-26.035199342295527-67.567399999999907-45.552698849242006-19.518599999999424-19.51569950699195-34.844699999999648-42.249998932675226-45.551799999999275-67.568398293078644-10.986300000000483-25.972599343876936-16.599599999999555-53.533198647638528-16.709000000000742-81.927697930332215,0-7.550799809250748,6.123100000000704-13.675799654520233,13.675800000000891-13.675799654520233,7.555699999999888,0,13.675799999999072,6.124999845269485,13.675799999999072,13.675799654520233.429700000000594,96.833997553767404,75.146500000000742,176.115195550955832,170.101599999999962,183.796877603992471-3.529299999999239,3.738217658472422-5.712899999999536,8.761717531567228-5.712899999999536,14.294917391787749,0,4.945299875071214,1.740200000000186,9.488299760304471,4.626900000000205,13.068299669866974-22.965799999999945-1.72459995643294-45.283199999999852-7.121099820105883-66.539000000000669-16.111299592994328ZM354.326199999999517,141.733400000000074c7.552700000000186,0,13.674799999999777,6.123099999999795,13.674799999999777,13.675799999999981s-6.122099999999591,13.675799999999981-13.674799999999777,13.675799999999981c-97.476599999999962,0-177.363299999999981,75.279325195268939-184.701199999999517,170.871122780416954-3.728500000001077-3.482399912027176-8.721700000000055-5.636699857604981-14.216800000000148-5.636699857604981-4.977500000000873,0-9.548800000000483,1.757799955594237-13.136700000000928,4.679599881783361,1.650400000000445-23.281222804595018,7.064500000000407-45.898398840508889,16.16990000000078-67.425698296683549,10.707099999999627-25.320299360355421,26.033199999999852-48.054724507911487,45.551799999999275-67.572324507911617,19.514600000000428-19.515599999999722,42.248999999999796-34.839799999999741,67.567399999999907-45.548799999999574,26.229500000001281-11.093800000000556,54.076100000000224-16.718800000000556,82.765600000000632-16.718800000000556Z"/><path class="uuid-54c68d98-1f4c-4f24-a8e1-d90bbd22af14" d="M466.912099999999555,241.751025261286486c-30.070299999999406-30.072325261286096-70.054700000000594-46.632825261285689-112.585900000000038-46.632825261285689-42.527299999999741,0-82.512700000000223,16.560499999999593-112.584000000000742,46.632825261285689-30.072299999999814,30.072299240309803-46.636699999999109,70.056598230220516-46.636699999999109,112.585897155840939,0,42.529298925619514,16.564399999999296,82.511797915576608,46.636699999999109,112.585997155838413,30.07130000000052,30.070299240360328,70.056700000001001,46.634698821908387,112.584000000000742,46.634698821908387,42.531199999999444,0,82.515600000000632-16.564399581548059,112.585900000000038-46.634698821908387,30.073300000000017-30.074199240261805,46.632799999999406-70.056698230218899,46.632799999999406-112.585997155838413,0-42.529298925620424-16.559499999999389-82.513597915531136-46.632799999999406-112.585897155840939Z"/><path class="uuid-285b25fa-e752-4712-98ae-2d53cbaae6b9" d="M242.115299999999479,405.827221116373039v-102.978497398544278h22.33389999999963v7.611299807722389h-12.944299999999203v87.753897783150023h12.944299999999203v7.613299807671865h-22.33389999999963Z"/><path class="uuid-285b25fa-e752-4712-98ae-2d53cbaae6b9" d="M466.537099999999555,302.848723717828761v102.978497398544278h-22.328100000000632v-7.613299807671865h12.938500000000204v-87.753897783150023h-12.938500000000204v-7.611299807722389h22.328100000000632Z"/><path class="uuid-285b25fa-e752-4712-98ae-2d53cbaae6b9" d="M293.986399999999776,375.256921888643774c0,2.056599948045914.032199999999648,4.484299886717054.095699999999852,7.271399816308985.0625,2.789099929541408.150299999999334,5.623099857948546.259700000000521,8.496099785370461.105499999999665,2.874999927371391.233399999999165,5.623099857948546.386699999999109,8.240299791832513.146500000000742,2.617199933883967.33010000000013,4.804699878623069.545000000000073,6.562499834217306h-13.193400000000111v-72.73049816267303c0-6.263699841765629-.10739999999987-11.937499698433385-.322299999999814-17.023399569952744-.212900000000445-5.085999871516833-.535100000000057-9.494199760156334-.966800000000148-13.224599665918504h13.195400000000518v72.408198170815012Z"/><path class="uuid-285b25fa-e752-4712-98ae-2d53cbaae6b9" d="M351.592799999999443,340.176800000000185v8.433622561790798h-12.100600000000668v48.787098767534189h12.100600000000668v8.431599786999868h-36.042000000000371v-8.431599786999868h11.906300000000556v-48.787098767534189h-11.906300000000556v-8.433622561790798h36.042000000000371Z"/><path class="uuid-285b25fa-e752-4712-98ae-2d53cbaae6b9" d="M378.626999999999498,340.176800000000185c.255799999999908.687522757473744.513700000000426,1.576222735023293.771499999999833,2.673822707295585.259700000000521,1.093799972368288.492200000000594,2.240177292704175.70889999999963,3.441399913062924.21100000000115,1.201199969655136.404300000000148,2.382777379641993.580100000001039,3.540999910546816l.511699999999109,2.892599926926778c4.121100000000297-4.890599876453052,8.259799999999814-8.417999787343433,12.421900000000278-10.585899732577673,4.164099999999962-2.165999945282238,8.5-3.249999917898094,13.002999999999702-3.249999917898094,3.433500000001004,0,6.469700000000557.568299985643534,9.10740000000078,1.705077192644239,2.639599999999518,1.140622735467332,4.860300000000279,2.941422689975298,6.663099999999758,5.406222627709212,1.799799999999777,2.468777372290788,3.162099999999555,5.667999856814276,4.087799999999334,9.59177737229038.921900000001187,3.927722286178323,1.382900000000518,8.654322166774364,1.382900000000518,14.193422026844928v28.960899268386129c0,7.251899816801597-.634799999999814,13.273399664685712-1.900400000000445,18.054678704768776-1.263699999999517,4.787120718198821-3.037099999999555,8.603520621788448-5.308599999999387,11.460920549604452-2.27350000000024,2.849599928013049-5.011700000000019,4.867199877044186-8.207100000000537,6.046899847242457-3.197199999999611,1.179699970198271-6.747999999999593,1.771499955248146-10.652299999999741,1.771499955248146-1.930699999999888,0-4.001000000000204-.312499992105586-6.210900000000038-.93359997641528-2.208999999999833-.624999984211172-4.214899999999943-1.492199962303857-6.01759999999922-2.607399934131536l4.183599999999387-9.656320441547905c.986299999999574.730520667032579,2.305600000000595,1.341820651589842,3.958999999999833,1.83600000000024,1.650400000000445.492120626673568,3.335900000000038.738220620456559,5.048800000000483.738220620456559,2.0625,0,3.908199999999852-.329999991663499,5.539999999999054-.996099974836397,1.629900000000816-.663999983225949,3.011800000000221-1.831999953719787,4.149400000000242-3.505799911436952,1.136800000000221-1.675799957664822,2.005900000000111-3.970699899690771,2.607500000000073-6.888699825975891.599600000000464-2.91799992628512.900400000000445-6.630899832489376.900400000000445-11.134799718711292v-28.320299284569046c0-5.148399869940476-.26760000000013-9.32219976450142-.804700000000594-12.519521904927387-.535200000000259-3.195277698083373-1.342799999999443-5.68547763517563-2.415100000000166-7.464777590226731-1.07129999999961-1.781299955000577-2.413099999999758-2.972699924903281-4.024399999999332-3.576222409773436-1.605500000000575-.597677484784981-3.483400000000074-.898477477186134-5.628900000000613-.898477477186134-2.316399999999703,0-4.578099999998813.546899986184144-6.788099999999758,1.644599958453909-2.209899999999834,1.091799972418812-4.24119999999948,2.507799936647643-6.086900000000242,4.246099892734492-1.843699999999444,1.736299956137373-3.473599999999351,3.697199906600872-4.888699999999517,5.888599851240542-1.414999999999964,2.189499944689487-2.468699999999444,4.374999889479113-3.156199999999444,6.564499834167691v37.331999056914356h-11.906300000000556v-39.58399900002405c0-6.349599839595612-.365200000000186-11.724599703811691-1.095699999999852-16.122999592698761-.726500000000669-4.39839988888707-1.4375-7.714799805107759-2.122999999999593-9.945322523602044h11.587899999999536Z"/><path class="uuid-54c68d98-1f4c-4f24-a8e1-d90bbd22af14" d="M731.934589315799712,379.633221778089137h-54.992198610780179v-9.128921778089534h54.992198610780179v9.128921778089534ZM724.778289496579418,476.83980000000065h-9.421289496579448v-10.005880424786483h-21.983000000000175v10.005880424786483h-9.566809468400606v-49.370579430350517h40.971098964980229v49.370579430350517ZM724.339889507658881,398.475999999999658l-40.386798979749074.145521298404674v-9.127899769409851h40.386798979749074v8.982378471005177ZM724.485889503969702,417.61029999999937h-40.532798976059894v-9.129899999999907h40.532798976059894v9.129899999999907ZM722.660189550089854,361.083922246683869l-37.100099062770823.145499996324361v-9.12792224300938h37.100099062770823v8.982422246685019ZM715.356999999999971,457.849999999999454v-21.396899999999732h-22.128509706401019v21.396899999999732h22.128509706401019ZM809.713887350929326,417.756320815018626l-78.947298005629818.14599999631173v-8.982420811331394h19.57229950556939l4.236299892980242-22.566378391678882h-18.257799538769177v-8.983899773047597h19.718799501859394l3.140599920659952-16.724121835272854h-27.971699293369966v-9.128977511622907h72.520498167979895v8.983377511622166h-34.690399123649513l-2.994188378560466,16.724721838936603h30.088887694089863l-3.140599920659952,31.547778161064343h16.724599577500157v8.983920815018791ZM797.00688767192969,477.131800000000112h-9.421887671930563v-9.859880435850755h-36.953111156539308v9.859880435850755h-9.568399758280066v-49.516100000000733h55.943398586749936v49.516100000000733ZM787.584999999999127,458.287999999999556v-21.689879660964834h-37.099611152829311v21.689879660964834h37.099611152829311ZM786.123999999999796,386.206999999999425h-21.68941150522005l-4.236299892980242,22.712899999999536h23.662099402239619l2.263611995960673-22.712899999999536Z"/><path class="uuid-54c68d98-1f4c-4f24-a8e1-d90bbd22af14" d="M974.38578319096996,379.633221778089137h-132.771496645909792v-9.128921778089534h132.771496645909792v9.128921778089534ZM954.81348368539966,398.329499999999825h-94.941397601570316v-8.835878471005344h94.941397601570316v8.835878471005344ZM954.81348368539966,417.318299999998999h-94.941397601570316v-8.837899999999536h94.941397601570316v8.837899999999536ZM951.381883772090077,477.131800000000112h-9.421883772090951v-10.297880424785944h-68.503914259339581v10.297880424785944h-9.420899761999863v-49.662579430349979h87.346697793430394v49.662579430349979ZM951.23538377578916,360.134699999999611l-86.470697815559106.218822265135714v-8.836999776758603h86.470697815559106v8.618177511622889ZM941.959999999999127,457.849999999999454v-21.396899999999732h-68.503914259339581v21.396899999999732h68.503914259339581Z"/><path class="uuid-54c68d98-1f4c-4f24-a8e1-d90bbd22af14" d="M1139.059579030959867,450.694319982934758h-58.790998514819876v10.150899743566697c0,10.856380273497962-5.769580516140195,16.286580273498657-17.310580516140362,16.286580273498657h-9.712918801190426l-3.578081198809741-8.983380457993007h13.583999999999833c4.771480825499566,0,7.158180765210091-2.191899944627949,7.158180765210091-6.572799833957106v-10.881299725115241h-64.122998380120407v-9.129899769359326h64.122998380120407v-6.28082021357659c10.173819234790244-3.797299999999268,17.453099559100338-7.350079442077913,21.835899448380587-10.662079358409756h-55.943298586750643v-8.399920641590143h72.158218373159798v7.961920652654953c-7.597720004099756,5.161199869617121-16.994219766719652,10.442899736190157-28.191419483859136,15.847199599666055v1.533699961255479h58.790998514819876v9.129899769359326ZM1132.924779185928855,423.598120667442345h-8.765599778558681v-15.117720667442882h-102.023397422670314v15.995100000000093h-9.568399758280066v-24.538100000000668h12.560617773579906v-44.550677609391641c6.912081734500134-.681199982791441,14.486281543159748-3.968322390607682,22.714781335290354-9.858399750955869l4.820299878219885,6.718699830271362c-4.433599887990567,4.089399896693067-10.470699735480594,7.182099818564893-18.113299542410459,9.274899765696318v6.134799845021917h18.695299527709722v7.595699808116478h-18.695299527709722v7.959899798916013h18.695299527709722v7.448799811827485h-18.695299527709722v9.276278500497938h77.632798038830515v-9.276278500497938h-17.820299549830452v-7.303721499501989h17.820299549830452v-8.543978100151435h-17.673799553530444v-7.448699811830011h17.673799553530444v-7.960499798900855h-20.667899477890387v-8.837422289117058h29.94331976796002v49.224221268860674h11.466779185929227v23.807099398582068ZM1091.514680232039609,366.926722099082326l-5.111399870869718,6.280277900917099c-2.777280361170597-2.676777991949166-6.550699834520856-5.574677918742054-11.320280361170262-8.690477840030326-3.943319253240588,3.311077840030521-8.375,6.353099839507195-13.292919017049826,9.128977840030529l-5.988299848730094-5.258777937800005c4.722599880699818-1.947299950807064,8.859399776200007-4.235922062199279,12.415999686350006-6.864799826580565-5.94139984991034-2.238822235619409-10.736299728780068-3.797299904072133-14.388699636509955-4.673299881942512l3.726599905859985-6.720199830233469c5.402318910079885,1.363199965562671,10.831999726359754,3.117199921252904,16.285099588600133,5.258299867164169,3.457099912669946-3.260299917637894,6.353599839500021-6.595699833378603,8.691499780439699-10.005399747242336l6.134719541039885,4.893477356635231c-1.949219646779966,3.019099999999526-4.480519582830311,5.964922369058513-7.595719504140106,8.837499999998727,3.601599909020479,2.043422244871181,7.083999821050384,4.648922179050714,10.443399736180254,7.814422099083458ZM1092.389680209938888,393.50919999999951l-6.132799845079717,4.820300000000316c-3.943399900379518-3.01797861797786-8.035199797010137-5.52487855464824-12.269599690040195-7.520978504222512-2.62889993358931,1.996099949574273-7.3026998155201,4.502999886244652-14.021499645788936,7.520978504222512l-5.550699859770248-4.381800000000112c6.279299841369721-2.968278508539697,10.783199727589817-5.551278443287629,13.511699658660291-7.740700000000288-2.728499931070473-1.70307834495452-6.865299826570663-3.602978296959009-12.415999686340001-5.697799999999916l5.476499861649245-4.599578127844325c5.013718996769967,1.802299954470072,9.298899765090027,3.67629990712885,12.85349967529055,5.622099857973808,1.361399965609962-.77742173012939,4.113299896089302-3.11382173012953,8.251999791539674-7.011221730129364l6.718699830270452,3.433099999999286c-2.48239993729112,3.214300000000549-5.255799867230962,5.868600000000697-8.324199789710292,7.961421619398607,4.040999897909387,1.850078380602099,8.00779979769959,4.381299889319052,11.902399699319176,7.594178380601988Z"/><path class="uuid-54c68d98-1f4c-4f24-a8e1-d90bbd22af14" d="M1303.584999999999127,450.694319982934758h-58.790999999999258v10.150899743566697c0,10.856380273497962-5.769623494370535,16.286580273498657-17.308623202870876,16.286580273498657h-9.712899754629689l-3.578099909609591-8.983380457993007h13.583899656840003c4.769599879509769,0,7.156299819220294-2.191899944627949,7.156299819220294-6.572799833957106v-10.881299725115241h-64.121098380170224v-9.129899769359326h64.121098380170224v-6.28082021357659c10.175799742939489-3.797299999999268,17.453099559099428-7.350079442077913,21.837899448330063-10.662079358409756h-55.943398586750845v-8.399920641590143h72.156298177180361v7.961920652654953c-7.595699808120116,5.161199869617121-16.994199570699493,10.442899736190157-28.191375647709719,15.847199599666055v1.533699961255479h58.790999999999258v9.129899769359326ZM1297.452175029618957,423.598120667442345h-8.767599778509975v-15.117720667442882h-102.023397422669404v15.995100000000093h-9.56639975832968v-24.538100000000668h12.560499682689624v-44.550677609391641c6.9140998253406-.681199982791441,14.484399634089641-3.968322390607682,22.712899426220247-9.858399750955869l4.820299878229889,6.718699830271362c-4.429699888089999,4.089399896693067-10.468699735530208,7.182099818564893-18.113299542420464,9.274899765696318v6.134799845021917h18.697299527670111v7.595699808116478h-18.697299527670111v7.959899798916013h18.697299527670111v7.448799811827485h-18.697299527670111v9.276278500497938h77.632822485170436v-9.276278500497938h-17.818323996209983v-7.303721499501989h17.818323996209983v-8.543978100151435h-17.67382399986036v-7.448699811830011h17.67382399986036v-7.960499798900855h-20.667923924220304v-8.837422289117058h29.943299243569527v49.224221268860674h11.468799710270105v23.807099398582068ZM1258.641576010058998,391.871021468936306l-6.654299831900062,6.083999846305232c-3.037099923269125-4.563499884716293-7.382799813489328-10.276321315242058-11.585899707310091-13.824721315242641-6.533199834959305,7.279321480593353-11.906299699228839,11.912100000000464-16.105499593139029,13.893121313514712l-6.583999833679627-5.528299860343395c4.949299874969256-2.354521453170491,10.316399739389453-6.751999829430133,16.107499593089415-13.203199666459113-6.583999833669623-4.101499896387395-11.275376637119734-6.637199832330225-14.076199644400731-7.605899807858805l5.74409985489001-5.940399849932874c2.33399994104002.922277871080041,6.718799830270655,3.31589991623332,13.165999667400683,7.189899818367849,1.916099951589786-3.135721947288403,3.406299913949624-6.568399834068259,4.480499886809412-10.302299739742011h-21.990199444479003v-8.638099781783239h11.788999702179353v-8.896999775242875h7.566423340480469v8.896999775242875h13.992176114909853v8.638099781783239h-2.769499930040183c-1.554676184870004,5.718277792453591-3.646499907879843,10.671399730417761-6.275399841470062,14.862799624534091,5.08989987142013,3.87017816792013,9.9745997480195,9.767099753262301,13.195299666659594,14.374999636856955Z"/><path class="uuid-54c68d98-1f4c-4f24-a8e1-d90bbd22af14" d="M1470.520499999999629,379.342721785427784l-5.257800000000316,7.594678214571104c-16.603499999999258-4.090278303099694-29.60149999999976-8.8128999999999-38.997999999999593-14.167899999999463v6.573221785428359h-49.371100000000297v-7.231921785428312c-14.216800000000148,7.353000000000975-26.972700000000259,12.149899999999434-38.269599999999627,14.388221604644968l-4.818300000000818-7.667999806290027c27.361300000000483-6.669899831504154,50.146500000000742-17.819799549833988,68.35740000000078-33.449699154989503l8.98239999999987,2.994599924350041c-.974600000000464,1.217299969248415-1.826100000000224,2.070277432284456-2.556599999999889,2.555199935450219,16.164099999999962,13.438499660514935,36.808599999999387,22.909177496834673,61.931599999999889,28.411599282262614ZM1454.96389999999974,421.188420728316487h-106.041000000000167v-34.251020728317599h106.041000000000167v34.251020728317599ZM1446.274399999999332,477.276800000000549h-8.98239999999987v-5.842780540994681h-70.548800000000483v5.842780540994681h-8.982399999998961v-48.420400000000882h88.513599999999315v48.420400000000882ZM1397.561499999999796,413.301199999998971v-18.257299999999304h-39.656200000000354v18.257299999999304h39.656200000000354ZM1437.291999999999462,446.311999999998989v-9.420479668376174h-70.548800000000483v9.420479668376174h70.548800000000483ZM1437.291999999999462,463.54779999999937v-9.568380100053218h-70.548800000000483v9.568380100053218h70.548800000000483ZM1387.848699999999553,406.070721110221712l-7.521499999999833,5.258778889778114c-4.527400000000853-4.575200000000223-8.959000000000742-7.959878821542588-13.292999999999665-10.150800000000345l7.595699999999852-4.382378655486718c5.160200000000259,2.190478655486913,9.566399999999703,5.283178655487063,13.218799999999646,9.274399765708949ZM1423.270499999999629,371.236299999999574c-7.060500000000502-3.700677916299355-13.90230000000065-8.691900000000714-20.523400000000038-14.973177631532053-7.060599999999795,5.842277631531942-14.970699999999852,10.83399972631014-23.734400000000278,14.973177631532053h44.257800000000316ZM1445.983399999999165,413.301199999998971v-18.257299999999304h-39.4375v18.257299999999304h39.4375ZM1437.145499999999629,399.351999999998952c-2.873000000000502,4.577121164324126-7.207000000000335,8.473121065902887-13,11.685500000000502l-8.033200000000761-4.016999999999825c6.378900000000613-3.602100000000064,10.759800000000723-7.206078731730486,13.144600000000537-10.808578640723681l7.888600000000224,3.140078640723004Z"/><path class="uuid-54c68d98-1f4c-4f24-a8e1-d90bbd22af14" d="M732.833671613319893,281.637624253666218l-2.640599933291014,3.510799911309732c-10.179699742839148-2.999999924213625-18.441399534129232-7.039624164975976-24.779299374019502-12.120099693820521-5.462899862000086,4.460375528843542-14.040999645299962,8.580475528844545-25.74217912002041,12.360775528843988l-2.939420155419612-3.570299999999406c11.320299714020621-3.139675671595796,19.880799497760563-6.94970000000103,25.681599351220029-11.43017546216015-5.820299852959579-5.499999861058313-9.732399754139806-12.189899692057224-11.730499703659916-20.070324537840861-1.079999972719634,2.77982497463563-2.562499935270353,5.419924907941095-4.441399887799889,7.919924844785783l-3.177699919730003-2.909199926507426c2.519499936359352-3.001424918277735,4.546899885139283-6.291524918277901,6.087899846210348-9.871024918277726h-10.320299739290931v-3.689974739142599h24.062499392130121v-10.260225260856714h3.869099902260132v10.200200000000223h24.480499381570553v3.689399999999296h-10.261699740760378c-1.798899954559602,10.440924905411521-5.937499850009772,18.75-12.419999686249866,24.930199999999786,5.900420959520488,4.480924426184174,13.990299646579842,8.251424330933332,24.271499386850337,11.310024253666597ZM716.962593185990045,245.397399999999834h-23.218720585180563c1.59759995963941,9.260699999999815,5.50779986085945,16.709999999999127,11.728499703720445,22.351124604534562,6.080099846400117-5.660199857011321,9.910220881460191-13.110899668790807,11.490220881460118-22.351124604534562Z"/><path class="uuid-54c68d98-1f4c-4f24-a8e1-d90bbd22af14" d="M876.854792562529838,274.647399999999834h-24.152299389859763v4.171400000000176c0,4.459524212218639-2.369199940150793,6.690399999999499-7.10939982040054,6.690399999999499h-3.990199899199979l-1.468799962900448-3.690399999999499h5.578122181280378c1.96100000000024,0,2.941477603500061-.900400000000445,2.941477603500061-2.69970000000103v-4.471699999999146h-26.339899334599977v-3.75h26.339899334599977v-2.579100000000835c4.17959989441988-1.559599999999591,7.169899818869453-3.019999999999527,8.968699773429762-4.380900000000111h-22.980499419460102v-3.45010000000002h29.640699251210208v3.27002470536172c-3.119199921199652,2.121099946416507-6.980499823660466,4.290975294638883-11.58009970745934,6.510699835525884v.629375459113362h24.152299389859763v3.75ZM874.33529262617958,263.518024711405815h-3.601599909019569v-6.209499843134836h-41.912098941210388v6.569399834042997h-3.929699900730157v-10.079624702314504h5.160199869649659v-18.300799999999072c2.839799928260618-.278800000000047,5.951199849660043-1.629899999999907,9.331999764250213-4.049799999999777l1.978499950020705,2.760299999999916c-1.818299954070426,1.680599999999686-4.300699891360637,2.95010000000002-7.441377787690726,3.809999999999491v2.519500000000335h7.681677781620238v3.120599999999286h-7.681677781620238v3.270599999999831h7.681677781620238v3.058599999999387h-7.681677781620238v3.811000000000604h31.89257716999964v-3.811000000000604h-7.322299815019505v-3h7.322299815019505v-3.509274782340071h-7.259799816599298v-3.060125217658424h7.259799816599298v-3.270500000000538h-8.490199785519508v-3.629399999999805h12.298799689309817v20.220224958464314h4.712899880940313v9.779799752941472ZM857.32359305592945,240.238200000000688l-2.101599946910028,2.578599999998914c-1.138699971229471-1.099599999999555-2.689399932060041-2.288499999999658-4.64839988256972-3.569299999999203-1.621099959050298,1.35990000000038-3.441377555000145,2.609899999998561-5.460999862040808,3.750025229796847l-2.458899937889328-2.159225229796903c1.939399951009364-.800799999999981,3.638599908080323-1.740200000000186,5.099599871179635-2.820300000000316-2.441399938329596-.91989999999987-4.412077626249811-1.559999999999491-5.910199850699428-1.920900000000074l1.531299961319746-2.760199999999713c2.218699943950014.560499999999593,4.449199887600116,1.280700000000252,6.689399831009723,2.160600000000159,1.419899964130309-1.338399999999638,2.609422432120482-2.710000000000036,3.568422432120315-4.110300000000279l2.521477414030414,2.010199999999713c-.80079997977009,1.239800000000287-1.841799953470399,2.451200000000426-3.119199921200561,3.630900000000111,1.478499962649948.838800000000447,2.908199926539965,1.909100000000763,4.289099891650039,3.209900000000744ZM857.682993046849333,251.158099999999649l-2.51959993635046,1.979524973637126c-1.619099959099913-1.240224973636941-3.300799916609321-2.269999942654977-5.040999872649991-3.089824973637405-1.080099972719836.819825030982429-2.999999924219082,1.849600000000464-5.759799854498851,3.089824973637405l-2.281199942370222-1.800699954510492c2.581999934769556-1.219299969197891,4.431599888050187-2.27879994243267,5.550822230469748-3.178825019126634-1.119222342419562-.70010000000002-2.820322299449799-1.479400000000169-5.099622241869838-2.33980000000065l2.249999943160219-1.891074793687949c2.060499947949211.740674793688413,3.820299903489285,1.511199961823877,5.281199866589304,2.31099994161923.560599985839872-.320325147930816,1.68949995731964-1.279799967669533,3.3886999143906-2.880825147931318l2.759722517729642,1.410625185071694c-1.019522561689882,1.319774814929588-2.158222532919353,2.410674814928825-3.417922501100293,3.269474814928799,1.658199958110345.759825083282522,3.287099916960869,1.799425057020017,4.888699876500141,3.120600000000195Z"/><path class="uuid-54c68d98-1f4c-4f24-a8e1-d90bbd22af14" d="M979.218664564089522,251.907725004706663c4.040999897920301,4.539974995293051,6.062499846850187,8.970699773381057,6.062499846850187,13.290474995292243,0,2.100100000000566-.544899986240125,3.770524573710645-1.636676219610308,5.009800000000723-1.087923711559597,1.240724511059852-2.613323673030209,1.860800000000381-4.57422362349007,1.860800000000381-1.080099972719836,0-2.380899939849769-.131400000001122-3.900399901469427-.389675494760922l-1.109376475040335-3.9917245052402c2.140576448990032.542024592386952,3.679676410110005.811624585576283,4.619076386379675.811624585576283.779299980310498,0,1.490299962350036-.300824585576265,2.130923613620325-.900899977241352.640576316360239-.599099984865461.960876308270599-1.399399964648183.960876308270599-2.399924608334914,0-1.499475293157957-.550699986080872-3.419399999998859-1.650399958300113-5.760800000000017-1.101476349970653-2.339275126412758-2.751899930490254-4.569775070065589-4.951099874930151-6.68887501653262l5.851499852179586-15.03132498346622h-8.910099774910123v47.791999999999462h-3.931699900679632v-51.60149999999885h16.830099574839551v3.809499999999389l-5.790999853709764,14.190525004706615ZM1020.591763518919834,274.499024434002422c-.521499986830349,3.239675565996549-1.220799969159998,5.590299858777144-2.101599946910937,7.04927556599705-.878899977798937,1.460399999999936-2.310599941629334,2.190399999999499-4.289099891650039,2.190399999999499h-4.679699881779015c-3.121099921159839,0-4.679599881779723-1.640575757965962-4.679599881779723-4.919899999998961v-15.870075274212468h-6.332099840040428c-.119099996990371,6.439899837314442-1.374999965270035,11.264075274212701-3.763699904920031,14.475075274212031-2.390599939610183,3.209424279039922-6.824199827609846,5.905224210938286-13.306599663850648,8.085399999999936l-2.519499936349348-3.451075756956016c6.019499847930092-1.779324243043447,10.150399743580238-4.080099896928004,12.390623619689904-6.900024243043845,2.240176010700452-2.819775511413354,3.36907598218022-6.870100000000093,3.390575981639813-12.149400000000242h-8.220699792330379v-3.931099999999788h32.132799188260833v3.871124725787922h-10.023399746790346v14.940375274211874c0,.499524335743445.160199995959374.964924323986452.480499987869734,1.394499999999425.320299991900356.430724302254021.701099982279629.645100000000639,1.140599971180563.645100000000639h3.810499903739583c.779299980310498,0,1.374999965260031-.640699999999924,1.785199954900236-1.920000000000073.40819998968982-1.279275622341629.753924551529963-2.939899999999398,1.035199973849558-4.980375528843979l3.74999990527067,1.470699962846993ZM1017.140563606099022,247.287499999999454l-3.808599903779395.061125119879762v-5.281825119879613h-22.621099428550224v5.281825119879613h-3.871099902209608v-9.091325119879002h13.169899667309437v-6.809599999999591h3.931699900669628v6.750500000000102h13.199199666560162v9.08929999999873ZM1012.101488191329736,253.07759999999962h-20.281223945580678v-3.930199999999786h20.281223945580678v3.930199999999786Z"/><path class="uuid-54c68d98-1f4c-4f24-a8e1-d90bbd22af14" d="M1166.458497528099542,274.647399999999834h-24.152299999999741v4.171400000000176c0,4.459524212218639-2.371100000000297,6.690399999999499-7.109400000000278,6.690399999999499h-3.990199999990182l-1.470700000009856-3.690399999999499h5.58010000000013c1.960900000000038,0,2.941399999999703-.900400000000445,2.941399999999703-2.69970000000103v-4.471699999999146h-26.341824835330044v-3.75h26.341824835330044v-2.579100000000835c4.179700000000594-1.559599999999591,7.16990000000078-3.019999999999527,8.968700000000354-4.380900000000111h-22.980525146810578v-3.45010000000002h29.640725146809928v3.27002470536172c-3.119199999999182,2.121099946416507-6.980499999999665,4.290975294638883-11.58009999999922,6.510699835525884v.629375459113362h24.152299999999741v3.75ZM1163.937097528099912,263.518024711405815h-3.599700000000666v-6.209499843134836h-41.91012499982935v6.569399834042997h-3.931699900680542v-10.079624702314504h5.16219986959004v-18.300799999999072c2.837799928320237-.278800000000047,5.949199849710567-1.629899999999907,9.328125030920091-4.049799999999777l1.980500000000575,2.760299999999916c-1.820400000000518,1.680599999999686-4.298925208000583,2.95010000000002-7.439525128660534,3.809999999999491v2.519500000000335h7.679725128669816v3.120599999999286h-7.679725128669816v3.270599999999831h7.679725128669816v3.058599999999387h-7.679725128669816v3.811000000000604h31.890625128659849v-3.811000000000604h-7.320300000000316v-3h7.320300000000316v-3.509274782340071h-7.259699999999611v-3.060125217658424h7.259699999999611v-3.270500000000538h-8.490199999999277v-3.629399999999805h12.298799999999574v20.220224958464314h4.71100000000024v9.779799752941472ZM1146.927297528100098,240.238200000000688l-2.101599999990867,2.578599999998914c-1.140600000009727-1.099599999999555-2.68940000001021-2.288499999999658-4.65040000000954-3.569299999999203-1.619099999999889,1.35990000000038-3.439400000000205,2.609899999998561-5.45889999999963,3.750025229796847l-2.46100000000115-2.159225229796903c1.941400000000613-.800799999999981,3.642600000001039-1.740200000000186,5.101599999999962-2.820300000000316-2.441399999999703-.91989999999987-4.41019999999935-1.559999999999491-5.91019999999935-1.920900000000074l1.529300000000148-2.760199999999713c2.220699999999852.560499999999593,4.451200000000426,1.280700000000252,6.689499999999498,2.160600000000159,1.41990000000078-1.338399999999638,2.611300000000483-2.710000000000036,3.572200000000521-4.110300000000279l2.519599999999627,2.010199999999713c-.800799999989977,1.239800000000287-1.841800000000148,2.451200000000426-3.121100000000297,3.630900000000111,1.480400000000373.838800000000447,2.910100000000966,1.909100000000763,4.291000000001077,3.209900000000744ZM1147.286697528099467,251.158099999999649l-2.519599999999627,1.979524973637126c-1.621100000000297-1.240224973636941-3.300699999999779-2.269999942654977-5.039000000000669-3.089824973637405-1.082099999999627.819825030982429-3,1.849600000000464-5.761699999999109,3.089824973637405l-2.279300000000148-1.800699954510492c2.579999999999927-1.219299969197891,4.429599999999482-2.27879994243267,5.550699999999779-3.178825019126634-1.121100000000297-.70010000000002-2.822200000000521-1.479400000000169-5.101500000000669-2.33980000000065l2.25-1.891074793687949c2.060500000000502.740674793688413,3.82030000001032,1.511199961823877,5.279300000000148,2.31099994161923.560500000000502-.320325147930816,1.689400000000205-1.279799967669533,3.390600000000632-2.880825147931318l2.759799999999814,1.410625185071694c-1.019599999999627,1.319774814929588-2.160200000000259,2.410674814928825-3.420000000000073,3.269474814928799,1.660200000000259.759825083282522,3.29110000000037,1.799425057020017,4.890699999999924,3.120600000000195Z"/><path class="uuid-54c68d98-1f4c-4f24-a8e1-d90bbd22af14" d="M1311.453256039929329,282.508699999999408h-54.599599999999555v-3.869599999999991h25.43940000001021v-14.070800000000418h-18.330000000010841v-3.870100000000093h18.330000000010841v-12.240199999999277h-13.589800000010655c-1.640599999989718,4.259224984257344-4.380900000000111,8.189400000000205-8.220699999999852,11.789524794025965l-3.958999999989828-2.070299947699823c6.558600000000297-6.059599846921628,10.208999999989828-13.479024846326865,10.949199999990014-22.259324846325399l4.050800000009986,1.16989999999987c-.160200000020268,2.040100000000166-.630900000020119,4.559599999999591-1.412099999999555,7.559599999999591h12.122999999999593v-13.139599999999518h4.048899999979767v13.079999999999927h21.179700000009689v3.870199999999386h-21.179700000009689v12.17962478417121h18.060500000010506v3.870175215829477h-18.060500000010506v14.071224330932637h25.169900000009875v3.929675669066455Z"/><path class="uuid-54c68d98-1f4c-4f24-a8e1-d90bbd22af14" d="M1456.869826969429596,245.336925170699033l-2.158200000000761,3.121074829300596c-6.820299999999406-1.679674865713423-12.162099999999555-3.619674816704901-16.021499999998923-5.820374761110543v2.699299931809946h-20.281200000000354v-2.969299924989173c-5.83980000000065,3.020999923683121-11.08010000000013,4.989774754289101-15.718799999999646,5.910699850683159l-1.980400000000373-3.150399920414202c11.240200000000186-2.740699930764094,20.599599999999555-7.320825175978825,28.08010000000013-13.740725175978696l3.689400000000205,1.230400000000373c-.400400000000445.5-.75.85109999999986-1.048800000000483,1.050299999999879,6.638699999999517,5.519500000000335,15.121100000000297,9.409699999999248,25.439400000000205,11.66902517069866ZM1450.481226969429372,262.528800000000047h-43.560599999999795v-14.070800000000418h43.560599999999795v14.070800000000418ZM1446.910826969429763,285.568299999998999h-3.691399999999703v-2.399899999999434h-28.980400000000373v2.399899999999434h-3.689500000000407v-19.889599999999518h36.361300000000483v19.889599999999518ZM1426.899126969428835,259.287499999999454v-7.5h-16.28899999999885v7.5h16.28899999999885ZM1443.21942696943006,272.848624475695033v-3.87059990222042h-28.980400000000373v3.87059990222042h28.980400000000373ZM1443.21942696943006,279.92869999999948v-3.929675603890246h-28.980400000000373v3.929675603890246h28.980400000000373ZM1422.908926969429558,256.318299999998999l-3.08980000000065,2.159724838727925c-1.859399999999368-1.878399952547625-3.679699999998775-3.269599917402957-5.458999999998923-4.16949989466957l3.119099999999889-1.799824944057946c2.121100000000297.899024966814068,3.929699999999684,2.170000000000073,5.429699999999684,3.809599999999591ZM1437.459726969429539,242.008699999999408c-2.900400000000445-1.519999999999527-5.708999999999833-3.571299999998701-8.429700000000594-6.152299999998831-2.902399999999034,2.400899999999638-6.150399999999536,4.452099999999518-9.75,6.152299999998831h18.179700000000594ZM1446.789826969429669,259.287499999999454v-7.5h-16.199300000000221v7.5h16.199300000000221ZM1443.160826969429763,253.558124963014052c-1.181599999999889,1.879275036984836-2.960900000000038,3.479375036985402-5.341700000000856,4.799275036984909l-3.298899999999776-1.648975116568181c2.619200000001001-1.48039996260195,4.41990000000078-2.960899925201375,5.400400000000445-4.440399887826061l3.240200000000186,1.290099967409333Z"/></g></svg>