<?xml version="1.0" encoding="UTF-8"?><svg id="uuid-7d6daf83-caa4-4027-834f-ebc401a748a7" xmlns="http://www.w3.org/2000/svg" width="223.374475811918586mm" height="244.360978552288231mm" xmlns:xlink="http://www.w3.org/1999/xlink" viewBox="0 0 633.1875 692.676799999999275"><defs><style>.uuid-9f9242f7-6e8a-4415-b42d-e8529287a4dd{fill:none;}.uuid-ade9b1d6-2c05-408d-b028-a79d7e323dcd{clip-path:url(#uuid-9a520028-55e9-4504-9242-bee8ceda645b);}.uuid-3ee5b7a5-31aa-463b-b9a7-f8a16d7d8458{fill:#a39b4b;}</style><clipPath id="uuid-9a520028-55e9-4504-9242-bee8ceda645b"><rect class="uuid-9f9242f7-6e8a-4415-b42d-e8529287a4dd" width="633.1875" height="692.676799999999275"/></clipPath></defs><g class="uuid-ade9b1d6-2c05-408d-b028-a79d7e323dcd"><rect class="uuid-9f9242f7-6e8a-4415-b42d-e8529287a4dd" x="97.554712499999368" y="587.747107812499962" width="462" height="46.3251953125"/><path class="uuid-3ee5b7a5-31aa-463b-b9a7-f8a16d7d8458" d="M137.293970312499368,619.834021874999962v4.537109375h-37.38671875v-4.537109375h37.38671875ZM133.764673437499368,595.175818749999962v4.3271484375h-30.3291015625v-4.3271484375h30.3291015625Z"/><path class="uuid-3ee5b7a5-31aa-463b-b9a7-f8a16d7d8458" d="M158.542017187499368,595.679724999999962v-1.974609375h-13.484375v-2.8984375h30.91796875v2.8984375h-13.5263671875v1.974609375h16.298828125v7.5615234375h-3.7392578125v-4.95703125h-12.5595703125v6.6376953125h-1.1767578125l2.6884765625,1.3017578125-.8818359375.671875c3.9482421875,1.974609375,10.921875,3.94921875,17.2646484375,4.7890625-.7978515625.755859375-1.8486328125,2.2685546875-2.3525390625,3.1923828125-2.8984375-.50390625-5.880859375-1.3017578125-8.6953125-2.267578125v1.51171875h-17.474609375v-1.5966796875c-2.6044921875,1.0087890625-5.2509765625,1.8486328125-7.6875,2.5625-.7568359375-.7978515625-2.1845703125-2.1416015625-3.1083984375-2.7724609375,6.888671875-1.51171875,14.408203125-4.158203125,18.9453125-7.392578125h-1.4287109375v-6.6376953125h-12.5185546875v4.95703125h-3.5703125v-7.5615234375h16.0888671875ZM148.543970312499368,598.620154687499962c2.6044921875.419921875,6.2177734375,1.302734375,8.1494140625,1.974609375l-.9658203125,2.1005859375,1.0498046875-.251953125.294921875,2.3525390625c-3.5712890625,1.0078125-7.099609375,1.9736328125-10.1240234375,2.814453125l-1.0927734375-2.8564453125c2.478515625-.4208984375,5.83984375-1.21875,9.41015625-1.974609375-1.974609375-.7138671875-5.29296875-1.5966796875-7.8134765625-2.1005859375l1.091796875-2.05859375ZM170.303735937499368,615.801795312499962l.5888671875-.2099609375,2.5205078125,1.595703125c-1.974609375,2.6044921875-5.208984375,5.125-8.2333984375,7.015625l3.4443359375,1.51171875-1.72265625,2.814453125c-3.2763671875-1.6796875-9.8720703125-4.4521484375-14.66015625-6.2587890625l1.6796875-2.39453125c2.142578125.755859375,4.7890625,1.7646484375,7.3095703125,2.73046875,1.974609375-.9658203125,4.2431640625-2.39453125,6.0068359375-3.822265625h-20.9189453125v-2.982421875h23.9853515625ZM166.859399999999368,611.684607812499962c-2.5205078125-1.0078125-4.7470703125-2.1005859375-6.46875-3.1083984375-1.974609375,1.1337890625-4.1591796875,2.1845703125-6.427734375,3.1083984375h12.896484375ZM164.842798437499368,602.191443749999962l.4208984375.083984375-1.05078125-1.5966796875c2.39453125-.3779296875,5.96484375-1.5126953125,8.0234375-2.1845703125l1.5966796875,2.142578125c-2.1845703125.83984375-5.1669921875,1.470703125-7.51953125,1.890625,3.1083984375.671875,6.7626953125,1.7216796875,8.86328125,2.5205078125l-.9658203125,2.478515625c-2.39453125-1.0087890625-6.931640625-2.3525390625-10.3759765625-3.193359375l1.0078125-2.1416015625Z"/><path class="uuid-3ee5b7a5-31aa-463b-b9a7-f8a16d7d8458" d="M221.293970312499368,619.834021874999962v4.537109375h-37.38671875v-4.537109375h37.38671875ZM217.764673437499368,595.175818749999962v4.3271484375h-30.3291015625v-4.3271484375h30.3291015625Z"/><path class="uuid-3ee5b7a5-31aa-463b-b9a7-f8a16d7d8458" d="M242.542017187499368,595.679724999999962v-1.974609375h-13.484375v-2.8984375h30.91796875v2.8984375h-13.5263671875v1.974609375h16.298828125v7.5615234375h-3.7392578125v-4.95703125h-12.5595703125v6.6376953125h-1.1767578125l2.6884765625,1.3017578125-.8818359375.671875c3.9482421875,1.974609375,10.921875,3.94921875,17.2646484375,4.7890625-.7978515625.755859375-1.8486328125,2.2685546875-2.3525390625,3.1923828125-2.8984375-.50390625-5.880859375-1.3017578125-8.6953125-2.267578125v1.51171875h-17.474609375v-1.5966796875c-2.6044921875,1.0087890625-5.2509765625,1.8486328125-7.6875,2.5625-.7568359375-.7978515625-2.1845703125-2.1416015625-3.1083984375-2.7724609375,6.888671875-1.51171875,14.408203125-4.158203125,18.9453125-7.392578125h-1.4287109375v-6.6376953125h-12.5185546875v4.95703125h-3.5703125v-7.5615234375h16.0888671875ZM232.543970312499368,598.620154687499962c2.6044921875.419921875,6.2177734375,1.302734375,8.1494140625,1.974609375l-.9658203125,2.1005859375,1.0498046875-.251953125.294921875,2.3525390625c-3.5712890625,1.0078125-7.099609375,1.9736328125-10.1240234375,2.814453125l-1.0927734375-2.8564453125c2.478515625-.4208984375,5.83984375-1.21875,9.41015625-1.974609375-1.974609375-.7138671875-5.29296875-1.5966796875-7.8134765625-2.1005859375l1.091796875-2.05859375ZM254.303735937499368,615.801795312499962l.5888671875-.2099609375,2.5205078125,1.595703125c-1.974609375,2.6044921875-5.208984375,5.125-8.2333984375,7.015625l3.4443359375,1.51171875-1.72265625,2.814453125c-3.2763671875-1.6796875-9.8720703125-4.4521484375-14.66015625-6.2587890625l1.6796875-2.39453125c2.142578125.755859375,4.7890625,1.7646484375,7.3095703125,2.73046875,1.974609375-.9658203125,4.2431640625-2.39453125,6.0068359375-3.822265625h-20.9189453125v-2.982421875h23.9853515625ZM250.859399999999368,611.684607812499962c-2.5205078125-1.0078125-4.7470703125-2.1005859375-6.46875-3.1083984375-1.974609375,1.1337890625-4.1591796875,2.1845703125-6.427734375,3.1083984375h12.896484375ZM248.842798437499368,602.191443749999962l.4208984375.083984375-1.05078125-1.5966796875c2.39453125-.3779296875,5.96484375-1.5126953125,8.0234375-2.1845703125l1.5966796875,2.142578125c-2.1845703125.83984375-5.1669921875,1.470703125-7.51953125,1.890625,3.1083984375.671875,6.7626953125,1.7216796875,8.86328125,2.5205078125l-.9658203125,2.478515625c-2.39453125-1.0087890625-6.931640625-2.3525390625-10.3759765625-3.193359375l1.0078125-2.1416015625Z"/><path class="uuid-3ee5b7a5-31aa-463b-b9a7-f8a16d7d8458" d="M288.533228124999368,607.484412499999962v4.9140625h13.31640625v3.6552734375h-13.31640625v6.97265625h17.0126953125v3.697265625h-37.8486328125v-3.697265625h16.6767578125v-6.97265625h-12.896484375v-3.6552734375h12.896484375v-4.9140625h4.1591796875ZM270.469751562499368,603.409217187499962c.8818359375-.16796875,1.8056640625-.83984375,2.9404296875-1.9326171875.923828125-.7978515625,3.3603515625-3.3603515625,5.62890625-6.3427734375h-10.333984375v-3.6962890625h35.4541015625v3.6962890625h-19.9111328125c-2.2265625,2.8984375-4.62109375,5.5869140625-6.9736328125,7.8134765625l17.6435546875-.6298828125c-1.5546875-1.38671875-3.150390625-2.7724609375-4.6630859375-3.94921875l3.150390625-2.142578125c3.78125,2.8564453125,8.5703125,6.9736328125,10.8798828125,9.8720703125l-3.486328125,2.4365234375c-.6298828125-.83984375-1.4697265625-1.8486328125-2.478515625-2.8984375-22.263671875.9658203125-24.7841796875,1.0498046875-26.548828125,1.638671875-.2099609375-.8408203125-.83984375-2.8154296875-1.3017578125-3.865234375Z"/><path class="uuid-3ee5b7a5-31aa-463b-b9a7-f8a16d7d8458" d="M347.293970312499368,619.834021874999962v4.537109375h-37.38671875v-4.537109375h37.38671875ZM343.764673437499368,595.175818749999962v4.3271484375h-30.3291015625v-4.3271484375h30.3291015625Z"/><path class="uuid-3ee5b7a5-31aa-463b-b9a7-f8a16d7d8458" d="M368.542017187499368,595.679724999999962v-1.974609375h-13.484375v-2.8984375h30.91796875v2.8984375h-13.5263671875v1.974609375h16.298828125v7.5615234375h-3.7392578125v-4.95703125h-12.5595703125v6.6376953125h-1.1767578125l2.6884765625,1.3017578125-.8818359375.671875c3.9482421875,1.974609375,10.921875,3.94921875,17.2646484375,4.7890625-.7978515625.755859375-1.8486328125,2.2685546875-2.3525390625,3.1923828125-2.8984375-.50390625-5.880859375-1.3017578125-8.6953125-2.267578125v1.51171875h-17.474609375v-1.5966796875c-2.6044921875,1.0087890625-5.2509765625,1.8486328125-7.6875,2.5625-.7568359375-.7978515625-2.1845703125-2.1416015625-3.1083984375-2.7724609375,6.888671875-1.51171875,14.408203125-4.158203125,18.9453125-7.392578125h-1.4287109375v-6.6376953125h-12.5185546875v4.95703125h-3.5703125v-7.5615234375h16.0888671875ZM358.543970312499368,598.620154687499962c2.6044921875.419921875,6.2177734375,1.302734375,8.1494140625,1.974609375l-.9658203125,2.1005859375,1.0498046875-.251953125.294921875,2.3525390625c-3.5712890625,1.0078125-7.099609375,1.9736328125-10.1240234375,2.814453125l-1.0927734375-2.8564453125c2.478515625-.4208984375,5.83984375-1.21875,9.41015625-1.974609375-1.974609375-.7138671875-5.29296875-1.5966796875-7.8134765625-2.1005859375l1.091796875-2.05859375ZM380.303735937499368,615.801795312499962l.5888671875-.2099609375,2.5205078125,1.595703125c-1.974609375,2.6044921875-5.208984375,5.125-8.2333984375,7.015625l3.4443359375,1.51171875-1.72265625,2.814453125c-3.2763671875-1.6796875-9.8720703125-4.4521484375-14.66015625-6.2587890625l1.6796875-2.39453125c2.142578125.755859375,4.7890625,1.7646484375,7.3095703125,2.73046875,1.974609375-.9658203125,4.2431640625-2.39453125,6.0068359375-3.822265625h-20.9189453125v-2.982421875h23.9853515625ZM376.859399999999368,611.684607812499962c-2.5205078125-1.0078125-4.7470703125-2.1005859375-6.46875-3.1083984375-1.974609375,1.1337890625-4.1591796875,2.1845703125-6.427734375,3.1083984375h12.896484375ZM374.842798437499368,602.191443749999962l.4208984375.083984375-1.05078125-1.5966796875c2.39453125-.3779296875,5.96484375-1.5126953125,8.0234375-2.1845703125l1.5966796875,2.142578125c-2.1845703125.83984375-5.1669921875,1.470703125-7.51953125,1.890625,3.1083984375.671875,6.7626953125,1.7216796875,8.86328125,2.5205078125l-.9658203125,2.478515625c-2.39453125-1.0087890625-6.931640625-2.3525390625-10.3759765625-3.193359375l1.0078125-2.1416015625Z"/><path class="uuid-3ee5b7a5-31aa-463b-b9a7-f8a16d7d8458" d="M431.293970312499368,619.834021874999962v4.537109375h-37.38671875v-4.537109375h37.38671875ZM427.764673437499368,595.175818749999962v4.3271484375h-30.3291015625v-4.3271484375h30.3291015625Z"/><path class="uuid-3ee5b7a5-31aa-463b-b9a7-f8a16d7d8458" d="M473.965845312499368,606.139685937499962v4.369140625h-38.646484375v-4.369140625h38.646484375Z"/><path class="uuid-3ee5b7a5-31aa-463b-b9a7-f8a16d7d8458" d="M484.250024999999368,615.002967187499962v-11.173828125h12.4765625v-5.880859375h-9.7041015625c-1.8896484375,3.150390625-3.990234375,5.96484375-6.1748046875,8.107421875-.755859375-.7138671875-2.4365234375-2.0166015625-3.40234375-2.5625,3.90625-3.40234375,7.2666015625-8.8212890625,9.2412109375-14.408203125l4.033203125,1.0498046875c-.5048828125,1.3447265625-1.05078125,2.6884765625-1.6806640625,3.9912109375h24.57421875v3.822265625h-12.8125v5.880859375h11.8466796875v3.697265625h-11.8466796875v7.4765625h14.955078125v3.865234375h-14.955078125v9.3671875h-4.07421875v-9.3671875h-19.3232421875v-3.865234375h6.8466796875ZM496.726587499999368,615.002967187499962v-7.4765625h-8.52734375v7.4765625h8.52734375Z"/><path class="uuid-3ee5b7a5-31aa-463b-b9a7-f8a16d7d8458" d="M541.247095312499368,589.001014062499962c.671875,1.259765625,1.3857421875,2.8564453125,1.890625,4.2001953125h14.3662109375v3.697265625h-30.9599609375v7.6025390625c0,6.8896484375-.5458984375,16.9716796875-4.07421875,23.6923828125-.7978515625-.587890625-2.6044921875-1.427734375-3.61328125-1.763671875,3.4453125-6.3857421875,3.7392578125-15.54296875,3.7392578125-21.88671875v-11.341796875h16.046875c-.419921875-1.091796875-.8818359375-2.310546875-1.38671875-3.2763671875l3.9912109375-.923828125ZM551.329126562499368,613.449256249999962l.7138671875-.16796875,2.478515625,1.3017578125c-1.890625,3.4873046875-4.705078125,6.1337890625-8.19140625,8.107421875,3.486328125,1.05078125,7.51953125,1.72265625,11.8037109375,2.1005859375-.83984375.83984375-1.806640625,2.4365234375-2.310546875,3.4443359375-5.2509765625-.587890625-9.9970703125-1.7216796875-14.072265625-3.40234375-4.28515625,1.5966796875-9.1572265625,2.5625-14.1982421875,3.150390625-.2939453125-.9658203125-1.0087890625-2.478515625-1.638671875-3.3603515625,4.033203125-.3359375,8.0234375-.9658203125,11.59375-1.974609375-2.3935546875-1.4697265625-4.4521484375-3.2763671875-6.0908203125-5.376953125l1.5966796875-.6298828125h-5.0830078125v-3.1923828125h23.3984375ZM537.549829687499368,597.948279687499962v3.2763671875h9.1162109375v-3.2763671875h3.90625v3.2763671875h6.4697265625v3.1923828125h-6.4697265625v6.8056640625h-16.802734375v-6.8056640625h-6.30078125v-3.1923828125h6.30078125v-3.2763671875h3.7802734375ZM535.492212499999368,616.641639062499962c1.595703125,1.7646484375,3.822265625,3.234375,6.4267578125,4.4111328125,2.6884765625-1.134765625,4.95703125-2.6044921875,6.6796875-4.4111328125h-13.1064453125ZM537.549829687499368,604.417029687499962v3.7392578125h9.1162109375v-3.7392578125h-9.1162109375Z"/><path class="uuid-3ee5b7a5-31aa-463b-b9a7-f8a16d7d8458" d="M79.222700000000259,135.784200000000055c-4.552800000001298,10.764699999999721-7.259799999999814,22.073300000000017-8.084000000000742,33.711900000000242,1.794899999998961-1.459899999999834,4.080100000001039-2.338799999999537,6.568400000000111-2.338799999999537,2.747999999999593,0,5.244099999999889,1.076099999998405,7.107399999998961,2.818299999998999,3.66990000000078-47.79490000000078,43.611300000000483-85.433600000000297,92.347600000000966-85.433600000000297,3.775400000000445,0,6.837900000000445-3.060499999999593,6.837900000000445-6.837899999998626,0-3.776300000001356-3.0625-6.836900000000242-6.837900000000445-6.836900000000242-14.343699999999444,0-28.265600000000632,2.8125-41.380799999998999,8.358399999999165-12.658200000001671,5.355499999999665-24.025400000000445,13.016600000000835-33.781300000000556,22.774400000000242-9.759700000000521,9.75879999999961-17.423800000000483,21.125-22.777299999999741,33.784200000000055Z"/><path class="uuid-3ee5b7a5-31aa-463b-b9a7-f8a16d7d8458" d="M169.591800000000148,269.479499999999462c-47.474600000001374-3.841800000000148-84.832000000000335-43.481400000000576-85.046900000001187-91.895499999998719,0-3.776300000001356-3.060499999999593-6.838800000001356-6.837799999999334-6.838800000001356-3.777400000000853,0-6.837900000000445,3.0625-6.837900000000445,6.838800000001356.054700000000594,14.19629999999961,2.861300000000483,27.975599999999758,8.353500000001077,40.961899999998423,5.353499999999258,12.658200000001671,13.01759999999922,24.026400000000649,22.777299999999741,33.783200000001671,9.755900000000111,9.75879999999961,21.123099999998885,17.420899999999165,33.781300000000556,22.77639999999883,10.626899999999296,4.494099999999889,21.785099999999147,7.192399999999907,33.269499999998516,8.054700000000594-1.445299999999406-1.789099999999962-2.314399999999296-4.060600000000704-2.314399999999296-6.534200000000055,0-2.766600000000835,1.089799999999741-5.278299999999945,2.855400000000373-7.146500000000742Z"/><path class="uuid-3ee5b7a5-31aa-463b-b9a7-f8a16d7d8458" d="M251.259799999999814,243.701199999999517c-1.335900000000038-1.334999999999127-3.084000000000742-2.002899999999499-4.834000000000742-2.002899999999499s-3.5.667900000000373-4.835900000000038,2.002899999999499c-16.670000000000073,16.145500000000538-39.386699999999109,26.087900000000445-64.427799999999479,26.087900000000445-3.775400000000445,0-6.837900000000445,3.060499999999593-6.837900000000445,6.836900000000242s3.0625,6.837900000000445,6.837900000000445,6.837900000000445c14.345699999999852,0,28.26759999999922-2.8125,41.380900000000111-8.358400000000984,12.20509999999922-5.161099999999351,23.199199999999109-12.474599999999555,32.716800000000148-21.734399999999368,2.671899999999368-2.668900000000576,2.671899999999368-6.998999999999796,0-9.66990000000078Z"/><path class="uuid-3ee5b7a5-31aa-463b-b9a7-f8a16d7d8458" d="M177.162099999999555,70.865299999999479c-14.345699999999852,0-28.265600000000632,2.814400000001115-41.380799999998999,8.359300000000076-12.660200000002078,5.355500000001484-24.02350000000115,13.015699999999924-33.783200000001671,22.775400000000445-9.755900000000111,9.759799999999814-17.419899999998961,21.125-22.775399999998626,33.784200000000055-4.550800000000891,10.765599999998813-7.259799999999814,22.075199999999313-8.08600000000115,33.709999999999127,1.795000000000073-1.459999999999127,4.080100000001039-2.334999999999127,6.570400000000518-2.334999999999127,2.746100000000297,0,5.246100000000297,1.075199999999313,7.105400000000373,2.814500000000407,3.669899999998961-47.793999999999869,43.613299999999072-85.433600000000297,92.349599999999555-85.433600000000297,3.773499999999331,0,6.839899999999034-3.059600000000501,6.839899999999034-6.834999999999127,0-3.775400000000445-3.066399999999703-6.83980000000156-6.839899999999034-6.83980000000156ZM169.591800000000148,269.47860000000037c-47.474600000001374-3.840900000001056-84.834000000000742-43.479500000001281-85.04490000000078-91.894599999999627,0-3.775400000000445-3.064500000000407-6.83980000000156-6.839799999999741-6.83980000000156-3.775400000000445,0-6.839900000000853,3.064400000001115-6.839900000000853,6.83980000000156.054700000000594,14.195299999999406,2.865200000000186,27.974599999999555,8.355500000001484,40.964899999999034,5.355499999999665,12.654300000000148,13.019499999998516,24.024400000000242,22.775399999998626,33.779300000000148,9.759700000000521,9.760700000000725,21.122999999999593,17.419899999998961,33.783200000001671,22.775400000000445,10.625,4.494099999999889,21.785099999999147,7.194299999999203,33.269499999998516,8.054599999999482-1.445299999999406-1.785100000000966-2.314399999999296-4.060499999999593-2.314399999999296-6.53019999999924,0-2.769600000001446,1.089799999999741-5.280300000000352,2.855400000000373-7.149400000000242ZM251.259799999999814,243.703199999999924c-1.334000000000742-1.339900000000853-3.084000000000742-2.004899999999907-4.834000000000742-2.004899999999907s-3.5.664999999999054-4.835900000000038,2.004899999999907c-16.670000000000073,16.145500000000538-39.388699999999517,26.084899999999834-64.427799999999479,26.084899999999834-3.775400000000445,0-6.835900000000038,3.059600000000501-6.835900000000038,6.839900000000853,0,3.775400000000445,3.060499999999593,6.834899999999834,6.835900000000038,6.834899999999834,14.343800000000556,0,28.269599999999627-2.809499999999389,41.384799999999814-8.359300000000076,12.199199999999109-5.160200000000259,23.193400000000111-12.46980000000076,32.712900000000445-21.729500000001281,2.669899999998961-2.670899999999165,2.669899999998961-7,0-9.670899999999165Z"/><path class="uuid-3ee5b7a5-31aa-463b-b9a7-f8a16d7d8458" d="M233.451199999999517,120.875c-15.029300000000148-15.035099999999147-35.025400000000445-23.315399999999499-56.289099999999962-23.315399999999499-21.265600000000632,0-41.255799999998999,8.280300000000352-56.291000000001077,23.315399999999499-15.035099999999147,15.034200000000055-23.318299999998999,35.029300000000148-23.318299999998999,56.289099999999962,0,21.264600000000428,8.283199999999852,41.254899999999907,23.318299999998999,56.29490000000078,15.035200000002078,15.034199999998236,35.025400000000445,23.314499999998588,56.291000000001077,23.314499999998588,21.263699999999517,0,41.259799999999814-8.280300000000352,56.289099999999962-23.314499999998588,15.039099999999962-15.040000000000873,23.314500000000407-35.030300000000352,23.314500000000407-56.29490000000078,0-21.259799999999814-8.275400000000445-41.254899999999907-23.314500000000407-56.289099999999962ZM132.226599999999962,155.229499999999462h-6.474600000001374v43.875h6.474600000001374v3.804700000000594h-11.16990000000078v-51.489199999999983h11.16990000000078v3.809499999999389ZM141.040999999999258,202.909200000000055v-36.365200000000186c0-3.128899999999703-.054599999999482-5.964899999999034-.164000000000669-8.509799999999814-.105499999999665-2.54490000000078-.265599999998813-4.75-.480499999999665-6.614199999999983h6.595699999999852v36.204099999999016c0,1.030200000001059.013700000001336,2.240200000000186.048800000000483,3.634700000000521.031300000000556,1.395500000000538.076199999999517,2.810600000000704.130900000000111,4.25.048800000000483,1.435600000000704.115200000000186,2.810600000000704.189500000000407,4.120100000000093.076100000000224,1.304700000000594.165999999999258,2.400400000000445.275299999999334,3.280300000000352h-6.595699999999852ZM175.796899999999368,174.30370000000039h-6.050800000000891v24.390699999999924h6.050800000000891v4.214799999999741h-18.019500000000335v-4.214799999999741h5.949200000000928v-24.390699999999924h-5.949200000000928v-4.219699999999648h18.019500000000335v4.219699999999648ZM213.931699999999182,199.369199999999182c0,3.625-.320299999999406,6.634700000000521-.951199999999517,9.030300000000352-.634799999999814,2.389600000000428-1.519500000000335,4.298800000000483-2.654300000000148,5.724599999999555-1.134799999999814,1.429600000001301-2.505900000000111,2.439400000001115-4.105499999999665,3.025400000000445-1.595699999999852.589799999999741-3.369099999999889.883700000000317-5.324200000000928.883700000000317-.964799999999741,0-2-.154300000000148-3.105499999999665-.463799999999537-1.105400000000373-.310600000000704-2.109300000000076-.746100000000297-3.009699999998702-1.305700000000797l2.095699999998033-4.824199999999109c.488300000000891.364199999999983,1.148400000001857.668899999998757,1.974600000001374.914999999999054.83009999999922.25,1.669899999998961.369200000001001,2.523400000000038.369200000001001,1.035200000000259,0,1.95509999999922-.165100000000166,2.771499999998923-.494200000001001.814500000000407-.335900000000038,1.503900000001522-.920899999999165,2.074200000000928-1.755799999998999.570299999999406-.835000000000946,1.005900000000111-1.984400000001187,1.304700000000594-3.444400000000314.300799999999072-1.459899999999834.451199999999517-3.315399999999499.451199999999517-5.565399999999499v-14.165000000000873c0-2.569400000000314-.134799999999814-4.660200000000259-.400400000000445-6.254899999999907-.269500000000335-1.599599999999555-.675799999999072-2.844699999999648-1.210900000000038-3.735399999999572-.535200000000259-.889600000000428-1.20509999999922-1.484300000000076-2.009799999999814-1.784100000000763-.804700000000594-.300799999999072-1.744099999999889-.450199999999313-2.814500000000407-.450199999999313-1.160099999999147,0-2.290999999999258.274400000000242-3.394500000000335.820299999999406-1.105499999999665.54490000000078-2.121099999998478,1.254899999999907-3.044899999998961,2.125-.91990000000078.864199999999983-1.736300000000483,1.849599999999555-2.445299999999406,2.944300000001022-.705100000001039,1.089799999999741-1.230500000001484,2.185599999998885-1.574200000000928,3.280299999998533v18.665000000000873h-5.955100000001039v-19.790000000000873c0-3.174799999998868-.181699999999182-5.860399999999572-.544899999998961-8.060599999998885-.365299999999479-2.199200000000928-.720699999999852-3.854499999999462-1.066399999999703-4.974599999999555h5.794899999998961c.130800000000818.344699999999648.255800000000818.790099999998347.384700000000521,1.339899999999034.130900000000111.54490000000078.246100000000297,1.120100000000093.355499999999665,1.720699999999852.105500000001484.599599999999555.205100000001039,1.189400000001115.291000000001077,1.769500000000335l.253899999999703,1.445299999999406c2.060600000000704-2.445299999999406,4.130900000000111-4.209899999999834,6.214899999999034-5.289999999999054,2.080100000001039-1.085000000000946,4.25-1.629899999999907,6.5-1.629899999999907,1.71480000000156,0,3.236300000000483.284200000000055,4.550800000000891.854499999999462,1.320299999999406.570299999999406,2.435499999999593,1.469699999999648,3.33389999999963,2.70509999999922.900400000000445,1.235300000000279,1.580100000001039,2.830000000001746,2.04110000000037,4.79490000000078.464799999999741,1.964799999999741.695299999999406,4.325199999999313.695299999999406,7.094699999999648v14.480499999999665ZM233.265699999999924,202.909200000000055h-11.164099999999962v-3.804700000000594h6.468699999999444v-43.875h-6.468699999999444v-3.809499999999389h11.164099999999962v51.489199999999983Z"/><path class="uuid-3ee5b7a5-31aa-463b-b9a7-f8a16d7d8458" d="M129.762199999999211,447.269000000000233h-32.207500000000437v-5.346600000000763h32.207500000000437v5.346600000000763ZM125.570799999999508,504.199200000000928h-5.518099999999322v-5.860300000000279h-12.874499999999898v5.860300000000279h-5.603000000000975v-28.914500000000771h23.995600000000195v28.914500000000771ZM125.314000000000306,458.304700000000594l-23.653400000001056.084999999999127v-5.345799999999144h23.653400000001056v5.260800000000017ZM125.399400000000242,469.510700000000725h-23.738800000000992v-5.346600000000763h23.738800000000992v5.346600000000763ZM124.33009999999922,436.40480000000025l-21.728499999999258.085399999999936v-5.346199999999953h21.728499999999258v5.260800000000017ZM120.052700000000186,493.07760000000053v-12.531700000001365h-12.959899999999834v12.531700000001365h12.959899999999834ZM175.314499999998588,469.596700000000055l-46.236899999999878.084899999999834v-5.260700000000725h11.462900000000445l2.480999999999767-13.216799999998329h-10.692900000000009v-5.260700000000725h11.548800000000483l1.838900000000649-9.795400000000882h-16.381800000001022v-5.346199999999953h42.473100000001068v5.261700000000928h-20.317399999999907l-1.753399999999601,9.794400000000678h17.622599999998783l-1.839899999999034,18.477100000000064h9.794999999998254v5.261699999999109ZM167.872099999998682,504.370100000000093h-5.51759999999922v-5.774400000000242h-21.64259999999922v5.774400000000242h-5.603500000001077v-28.998999999999796h32.763699999999517v28.998999999999796ZM162.354499999999462,493.334499999999025v-12.702699999998003h-21.727999999999156v12.702699999998003h21.727999999999156ZM161.498999999999796,451.118700000000899h-12.703100000000632l-2.480499999999665,13.302199999998265h13.857900000000882l1.325699999999415-13.302199999998265Z"/><path class="uuid-3ee5b7a5-31aa-463b-b9a7-f8a16d7d8458" d="M271.756799999999203,447.269000000000233h-77.7591999999986v-5.346600000000763h77.7591999999986v5.346600000000763ZM260.294399999998859,458.218800000000556h-55.604499999999462v-5.17489999999998h55.604499999999462v5.17489999999998ZM260.294399999998859,469.339799999999741h-55.604499999999462v-5.175699999999779h55.604499999999462v5.175699999999779ZM258.284200000000055,504.370100000000093h-5.517600000001039v-6.031199999999444h-40.120799999998781v6.031199999999444h-5.517400000000634v-29.085399999999936h51.155800000000454v29.085399999999936ZM258.198699999999008,435.849099999999453l-50.642499999999927.128000000000611v-5.175300000000789h50.642499999999927v5.047300000000178ZM252.766599999999016,493.07760000000053v-12.531700000001365h-40.120799999998781v12.531700000001365h40.120799999998781Z"/><path class="uuid-3ee5b7a5-31aa-463b-b9a7-f8a16d7d8458" d="M368.201199999999517,488.886700000000928h-34.432399999999689v5.945299999999406c0,6.358399999999165-3.378700000001118,9.538099999999758-10.137899999999718,9.538099999999758h-5.688500000000204l-2.095699999999852-5.260700000000725h7.955500000000029c2.794499999999971,0,4.192399999999907-1.284200000000055,4.192399999999907-3.849599999999555v-6.373099999998885h-37.554700000000594v-5.346700000001874h37.554700000000594v-3.678699999998571c5.95850000000064-2.224100000001272,10.221700000000055-4.304700000000594,12.78859999999986-6.244099999999889h-32.764400000000023v-4.918999999999869h42.260999999998603v4.662199999998847c-4.449699999999211,3.022399999999834-9.952699999998003,6.11620000000039-16.510999999998603,9.281200000001263v.898399999998219h34.432399999999689v5.346700000001874ZM364.607899999999063,473.017600000001039h-5.13379999999961v-8.853500000001077h-59.751399999999194v9.367200000000594h-5.604000000001179v-14.371100000000297h7.356400000000576v-26.091800000000148c4.048300000000381-.39850000000115,8.483599999999569-2.324300000000221,13.303200000000288-5.773999999999432l2.823300000000017,3.935099999998783c-2.596700000000055,2.395500000000538-6.132400000000416,4.206500000000233-10.608400000000984,5.432099999999991v3.593300000000454h10.949200000000928v4.448200000000725h-10.949200000000928v4.662099999999555h10.949200000000928v4.361899999999878h-10.949200000000928v5.433100000000195h45.467000000000553v-5.433100000000195h-10.436799999999494v-4.276900000000751h10.436799999999494v-5.003899999999703h-10.351300000000265v-4.36279999999897h10.351300000000265v-4.662600000001476h-12.104699999999866v-5.17529999999897h17.536599999999453v28.828600000000733h6.715799999999945v13.943400000000111ZM340.355499999999665,439.826699999999619l-2.99369999999908,3.678200000000288c-1.626400000001013-1.567399999999907-3.83640000000014-3.264699999999721-6.629900000001726-5.089900000000853-2.309499999999389,1.939500000000407-4.904799999998431,3.721700000001874-7.785099999999147,5.346700000001874l-3.507300000001123-3.080100000001039c2.766100000000733-1.139600000000428,5.188900000001013-2.480400000000373,7.271899999999732-4.020000000000437-3.479999999999563-1.311499999999796-6.288099999997939-2.224099999999453-8.427199999998265-2.737299999998868l2.182600000000093-3.935499999999593c3.164099999999962.798299999998562,6.343699999999444,1.825699999999415,9.537599999999657,3.079599999999118,2.024900000000343-1.909200000000055,3.721199999999953-3.863299999999072,5.090299999999843-5.859399999999368l3.592800000000352,2.865200000000186c-1.141600000000835,1.768599999999424-2.623999999999796,3.494199999999182-4.448200000000725,5.175799999999072,2.109300000000076,1.197299999999814,4.148400000000038,2.723100000001068,6.11620000000039,4.576699999999619ZM340.868199999998978,455.395500000000538l-3.591800000000148,2.823300000000017c-2.309599999998682-1.768100000001141-4.706099999999424-3.236400000001595-7.186099999998987-4.405300000000352-1.539500000000771,1.168899999998757-4.276799999999639,2.637199999999211-8.211900000000242,4.405300000000352l-3.251000000000204-2.566500000000815c3.677799999999479-1.738699999999881,6.315500000000611-3.250899999999092,7.913399999999456-4.533599999998842-1.597899999998845-.997600000000602-4.020800000000236-2.109900000001289-7.271999999999025-3.337400000000343l3.207800000000134-2.693400000000111c2.936499999999796,1.055699999998978,5.44629999999961,2.152299999999741,7.527799999999843,3.292999999999665.79739999999947-.455100000001039,2.409200000000055-1.824300000000221,4.832999999998719-4.105999999999767l3.935100000000602,2.010299999999916c-1.454099999999016,1.882299999999304-3.078199999999924,3.436499999999796-4.875799999999799,4.663000000000466,2.367000000000189,1.083099999999831,4.690200000000914,2.565499999998792,6.971499999999651,4.447299999999814Z"/><path class="uuid-3ee5b7a5-31aa-463b-b9a7-f8a16d7d8458" d="M464.557600000000093,488.886700000000928h-34.431900000001406v5.945299999999406c0,6.358399999999165-3.378600000000006,9.538099999999758-10.136899999999514,9.538099999999758h-5.688500000000204l-2.095699999999852-5.260700000000725h7.955600000001141c2.793399999998655,0,4.191399999999703-1.284200000000055,4.191399999999703-3.849599999999555v-6.373099999998885h-37.55370000000039v-5.346700000001874h37.55370000000039v-3.678699999998571c5.959199999999328-2.224100000001272,10.221599999998944-4.304700000000594,12.789499999998952-6.244099999999889h-32.764400000000023v-4.918999999999869h42.260000000000218v4.662199999998847c-4.448999999998705,3.022399999999834-9.953100000000632,6.11620000000039-16.511000000000422,9.281200000001263v.898399999998219h34.431900000001406v5.346700000001874ZM460.965799999999945,473.017600000001039h-5.134700000000521v-8.853500000001077h-59.751500000000306v9.367200000000594h-5.602999999999156v-14.371100000000297h7.356200000000172v-26.091800000000148c4.049499999999171-.39850000000115,8.483099999999467-2.324300000000221,13.302499999999782-5.773999999999432l2.822500000000218,3.935099999998783c-2.593500000000859,2.395500000000538-6.130699999999706,4.206500000000233-10.607700000000477,5.432099999999991v3.593300000000454h10.950199999999313v4.448200000000725h-10.950199999999313v4.662099999999555h10.950199999999313v4.361899999999878h-10.950199999999313v5.433100000000195h45.466800000000148v-5.433100000000195h-10.435600000000704v-4.276900000000751h10.435600000000704v-5.003899999999703h-10.35109999999986v-4.36279999999897h10.35109999999986v-4.662600000001476h-12.104500000001281v-5.17529999999897h17.536400000000867v28.828600000000733h6.717000000000553v13.943400000000111ZM438.235800000000381,454.435999999999694l-3.896899999999732,3.563000000000102c-1.778800000000047-2.672800000000279-4.324300000000221-6.018500000000131-6.785700000000361-8.096199999999953-3.826100000000224,4.263199999999415-6.973100000001068,6.97609999999986-9.43210000000181,8.136800000000221l-3.85649999999805-3.238299999999072c2.898999999999432-1.378900000001522,6.041999999999462-3.954600000000937,9.433599999998478-7.73240000000078-3.855900000000474-2.401900000000751-6.603499999999258-3.887300000000323-8.243599999999788-4.454600000000937l3.363800000000992-3.47899999999936c1.367099999999482.540000000000873,3.934999999999491,1.941899999999805,7.710900000000038,4.210399999999936,1.122099999998682-1.835900000000038,1.995100000000093-3.846700000000055,2.623999999999796-6.033199999999852h-12.878899999999703v-5.059600000000501h6.90480000000025v-5.209899999999834h4.43119999999908v5.209899999999834h8.194799999999304v5.059600000000501h-1.622099999998682c-.910600000001068,3.348599999999351-2.135200000000623,6.249499999999898-3.675300000000789,8.705100000001039,2.980999999999767,2.265599999998813,5.841800000000148,5.719699999997829,7.728000000000975,8.418399999998655Z"/><path class="uuid-3ee5b7a5-31aa-463b-b9a7-f8a16d7d8458" d="M562.326199999999517,447.098599999999351l-3.079100000000835,4.447800000001735c-9.724599999999555-2.395000000000437-17.336899999998423-5.16110000000117-22.839899999999034-8.297400000001289v3.849599999999555h-28.915000000000873v-4.235300000000279c-8.326399999998102,4.306599999999889-15.796899999999368,7.115200000000186-22.413099999999758,8.426300000000992l-2.822299999999814-4.490799999999581c16.024400000000242-3.906199999999444,29.368899999999485-10.436500000001615,40.034700000000157-19.589799999999741l5.260700000000725,1.753399999999601c-.570800000001327.712900000000445-1.069800000001123,1.212399999998524-1.49750000000131,1.496600000000399,9.466800000000148,7.870599999998376,21.557600000000093,13.416999999999462,36.271500000000742,16.639599999998609ZM553.214799999999741,471.606400000000576h-62.104400000000169v-20.059999999999491h62.104400000000169v20.059999999999491ZM548.125699999998687,504.455100000001039h-5.260499999998501v-3.421900000001187h-41.317800000000716v3.421900000001187h-5.260800000000017v-28.35740000000078h51.839099999999235v28.35740000000078ZM519.596700000000055,466.987299999998868v-10.693399999998292h-23.225600000001577v10.693399999998292h23.225600000001577ZM542.865200000000186,486.320299999999406v-5.51759999999922h-41.317800000000716v5.51759999999922h41.317800000000716ZM542.865200000000186,496.414999999999054v-5.603499999999258h-41.317800000000716v5.603499999999258h41.317800000000716ZM513.908199999999852,462.752399999999398l-4.405300000000352,3.079600000000937c-2.651299999999537-2.679200000000492-5.246999999999389-4.661599999999453-7.785099999999147-5.945299999999406l4.44800000000032-2.56590000000142c3.022699999999531,1.28269999999975,5.602999999999156,3.094199999999546,7.742399999999179,5.431599999999889ZM534.653299999999945,442.350599999999758c-4.134700000000521-2.166999999999462-8.142100000000937-5.089899999999034-12.019500000000335-8.768599999999424-4.135299999999916,3.421899999999368-8.768099999999322,6.344799999998941-13.900400000000445,8.768599999999424h25.91990000000078ZM547.955599999999322,466.987299999998868v-10.693399999998292h-23.097200000000157v10.693399999998292h23.097200000000157ZM542.779300000000148,458.817399999999907c-1.682600000000093,2.680699999998978-4.220700000001671,4.962900000000445-7.613499999999476,6.843699999999444l-4.704900000000634-2.351999999998952c3.736399999999776-2.10989999999947,6.301799999999275-4.22019999999975,7.698300000000017-6.331099999999424l4.620100000000093,1.839399999998932Z"/><path class="uuid-3ee5b7a5-31aa-463b-b9a7-f8a16d7d8458" d="M133.202146062989414,389.876500000000306l-1.546899999999368,2.056099999999788c-5.961900000000242-1.756800000001022-10.800300000000789-4.122999999999593-14.51220000000103-7.098599999999351-3.199699999999211,2.612299999998868-8.223099999999249,5.025399999998626-15.076600000000326,7.239199999999983l-1.721199999999953-2.090800000001764c6.629900000001726-1.838799999999537,11.643500000000131-4.070299999999406,15.040500000000975-6.694299999999203-3.408199999999852-3.221700000000055-5.69970000000103-7.139199999999619-6.870100000000093-11.754899999999907-.632300000001123,1.628399999999601-1.500500000000102,3.174300000000585-2.60109999999986,4.638699999999517l-1.860800000000381-1.704099999999016c1.475599999999758-1.757300000001123,2.663300000000163-3.684600000000501,3.565399999999499-5.781300000000556h-6.044399999998859v-2.160599999999249h14.09269999999924v-6.009299999999712h2.266200000000026v5.973599999999351h14.336900000000242v2.161699999998746h-6.009799999999814c-1.053200000000288,6.114700000001903-3.477500000000873,10.980900000000474-7.27390000000014,14.600500000000466,3.455500000000029,2.624100000000908,8.19380000000092,4.832099999999627,14.215299999999843,6.624100000000908ZM123.906746062990351,368.651899999998932h-13.598100000001068c.935499999999593,5.423300000000381,3.225500000000466,9.786600000001272,6.868599999999788,13.089300000001458,3.560999999999694-3.314400000001115,5.804200000000492-7.677700000000186,6.729500000001281-13.089300000001458Z"/><path class="uuid-3ee5b7a5-31aa-463b-b9a7-f8a16d7d8458" d="M217.366966062989377,385.78269999999975h-14.145300000000134v2.442900000000009c0,2.611300000000483-1.387199999999211,3.917999999999665-4.163800000000265,3.917999999999665h-2.336900000000242l-.860099999999875-2.161200000000463h3.267100000000937c1.148400000000038,0,1.722599999999147-.527299999997922,1.722599999999147-1.581499999998414v-2.618200000000797h-15.426199999999881v-2.19629999999961h15.426199999999881v-1.511200000000827c2.447799999999916-.913099999999758,4.199300000000221-1.768599999999424,5.252500000000509-2.564899999999398h-13.45850000000064v-2.02100000000064h17.359400000001187v1.915000000000873c-1.826700000001438,1.242200000000594-4.088400000000547,2.513199999999415-6.78230000000076,3.813000000000102v.369099999999889h14.145300000000134v2.19629999999961ZM215.891566062990023,379.264699999999721h-2.109300000000076v-3.637699999999313h-24.546400000001086v3.847599999999147h-2.301799999999275v-5.902299999999741h3.022499999999127v-10.718800000000556c1.663099999999758-.16359999999986,3.485300000000279-.954599999999118,5.465300000001662-2.372099999998682l1.158699999999953,1.616700000000492c-1.064900000001217.983899999999267-2.519000000000233,1.727599999998347-4.358600000001388,2.23149999999805v1.475600000001577h4.498999999999796v1.827599999998711h-4.498999999999796v1.915100000000166h4.498999999999796v1.791900000000169h-4.498999999999796v2.232500000000073h18.678900000000795v-2.232500000000073h-4.288500000000568v-1.756799999999203h4.288500000000568v-2.055700000000797h-4.251899999999296v-1.792400000000271h4.251899999999296v-1.914600000000064h-4.972600000000966v-2.125999999998385h7.203100000000632v11.841799999998329h2.760200000000623v5.72860000000037ZM205.928266062988769,365.629899999999907l-1.230999999999767,1.510200000000623c-.66649999999936-.644000000000233-1.574699999999211-1.340300000001662-2.722200000000157-2.090300000001662-.949199999999109.796900000001187-2.015599999998813,1.529300000001967-3.198199999998906,2.196300000001429l-1.440399999999499-1.264699999999721c1.135499999998501-.468700000001263,2.131299999999101-1.019000000000233,2.986799999998766-1.651800000001458-1.429700000000594-.53859999999986-2.583999999998923-.91359999999986-3.46140000000014-1.124499999998079l.896899999999732-1.616700000000492c1.29910000000018.328599999998914,2.605500000001484.75,3.917499999999563,1.265099999998711.832000000000335-.784199999998236,1.528300000001764-1.586899999998423,2.090100000001257-2.407199999999648l1.476599999999962,1.177700000000186c-.468999999999141.725599999999758-1.078400000000329,1.434600000000501-1.826399999999921,2.126000000000204.865700000000288.49120000000039,1.703099999998813,1.118700000000899,2.511699999999109,1.879899999999907ZM206.138666062988705,372.025400000000445l-1.475599999999758,1.159700000000157c-.948199999998906-.72609999999986-1.933100000000195-1.329600000000937-2.952100000000428-1.810100000000602-.633099999999104.480499999999665-1.757299999999304,1.084000000000742-3.373599999998987,1.810100000000602l-1.335900000000038-1.054700000000594c1.512199999999211-.714400000000751,2.595499999999447-1.334500000000844,3.251000000000204-1.862300000000687-.655500000000757-.41019999999844-1.651900000000751-.86620000000039-2.986800000000585-1.370100000000093l1.317800000000716-1.107499999998254c1.206599999999526.433599999998478,2.237299999998868.885299999998097,3.092799999998533,1.353099999998449.328600000000733-.1875.989800000001196-.749099999999089,1.984600000001592-1.686599999999089l1.616500000000087.826199999999517c-.597400000000562.772499999999127-1.264400000000023,1.41110000000117-2.001500000000306,1.915000000000873.970699999999852.444400000000314,1.924800000000687,1.053799999999683,2.86279999999897,1.827199999999721Z"/><path class="uuid-3ee5b7a5-31aa-463b-b9a7-f8a16d7d8458" d="M276.05398606298877,372.464399999998932c2.366700000000492,2.659100000000763,3.550800000000891,5.253900000001522,3.550800000000891,7.783699999999953,0,1.22990000000209-.319299999999203,2.208000000000538-.95850000000064,2.934000000001106-.637199999999211.727100000000064-1.530699999999342,1.089899999999034-2.679199999998673,1.089899999999034-.632300000001123,0-1.394500000000335-.076699999999619-2.284100000000763-.228099999998449l-.649900000000343-2.337400000000343c1.253899999999703.316899999999805,2.155200000001059.474700000000666,2.705500000000029.474700000000666.456099999999424,0,.872600000000602-.176300000000992,1.248100000000704-.526900000000751.375-.351599999999962.5625-.820299999999406.5625-1.406200000001263,0-.877999999998792-.322299999999814-2.00249999999869-.966599999999744-3.373599999998987-.644800000001851-1.370100000000093-1.61160000000018-2.676299999999173-2.899600000000646-3.917499999999563l3.426699999999983-8.80370000000039h-5.218000000000757v27.990299999999479h-2.302499999999782v-30.221199999999953h9.856400000000576v2.230900000000474l-3.391600000000835,8.311099999998987ZM300.284986062988537,385.695299999999406c-.305199999998877,1.897500000000946-.714799999999741,3.274400000000242-1.230999999999767,4.127900000001318-.514599999998609.855499999999665-1.352999999999156,1.283699999999953-2.511699999999109,1.283699999999953h-2.740700000000288c-1.828100000000632,0-2.740999999999985-.960900000000038-2.740999999999985-2.88130000000092v-9.29490000000078h-3.708200000000943c-.069799999999304,3.771500000000742-.805199999998877,6.597600000000966-2.204599999999118,8.477500000000873-1.400100000000748,1.879899999999907-3.996600000000399,3.458000000000538-7.792999999999665,4.735399999999572l-1.475599999999758-2.020500000000538c3.525400000000445-1.041999999999462,5.944900000000416-2.390199999998003,7.256899999998495-4.041999999999462,1.312000000001717-1.65139999999883,1.973100000001068-4.022999999999229,1.985300000000279-7.115299999999479h-4.814399999999296v-2.302200000000084h18.819299999999203v2.267099999999118h-5.870599999998376v8.75c0,.29240000000209.093999999999141.565400000001318.281699999999546.816900000001624.187299999999595.252399999999398.410200000000259.377399999999398.667999999999665.377399999999398h2.231700000000274c.456299999999828,0,.805399999999281-.374499999999898,1.045700000000579-1.124499999999898.238699999998062-.748999999999796.441399999999703-1.721199999999953.605899999998655-2.91649999999936l2.19629999999961.861299999998664ZM298.263986062989716,369.75879999999961l-2.230900000000474.035100000000966v-3.092700000001059h-13.248599999998987v3.092700000001059h-2.26680000000124v-5.324200000000928h7.71310000000085v-3.988299999999072h2.302700000000186v3.953700000000026h7.730499999999665v5.323699999999008ZM295.31278606298838,373.149400000000242h-11.878399999999601v-2.301299999999173h11.878399999999601v2.301299999999173Z"/><path class="uuid-3ee5b7a5-31aa-463b-b9a7-f8a16d7d8458" d="M384.451806062988908,385.78269999999975h-14.145500000000538v2.442900000000009c0,2.611300000000483-1.388699999999517,3.917999999999665-4.16359999999986,3.917999999999665h-2.336899999998423l-.86160000000018-2.161200000000463h3.268299999999726c1.148499999999331,0,1.722700000000259-.527299999997922,1.722700000000259-1.581499999998414v-2.618200000000797h-15.427999999999884v-2.19629999999961h15.427999999999884v-1.511200000000827c2.447699999998804-.913099999999758,4.199199999999109-1.768599999999424,5.252899999999499-2.564899999999398h-13.459000000000742v-2.02100000000064h17.359200000000783v1.915000000000873c-1.826399999999921,1.242200000000594-4.088200000000143,2.513199999999415-6.782000000001062,3.813000000000102v.369099999999889h14.145500000000538v2.19629999999961ZM382.974706062988844,379.264699999999721h-2.107899999999063v-3.637699999999313h-24.545400000000882v3.847599999999147h-2.302700000000186v-5.902299999999741h3.023400000000038v-10.718800000000556c1.661600000001272-.16359999999986,3.483900000001086-.954599999999118,5.462900000000445-2.372099999998682l1.160200000000259,1.616700000000492c-1.065899999999601.983899999999267-2.518099999999322,1.727599999998347-4.356999999999971,2.23149999999805v1.475600000001577h4.497600000000602v1.827599999998711h-4.497600000000602v1.915100000000166h4.497600000000602v1.791900000000169h-4.497600000000602v2.232500000000073h18.676799999999275v-2.232500000000073h-4.287099999999555v-1.756799999999203h4.287099999999555v-2.055700000000797h-4.251699999998891v-1.792400000000271h4.251699999998891v-1.914600000000064h-4.972200000000157v-2.125999999998385h7.203199999999924v11.841799999998329h2.758700000000317v5.72860000000037ZM373.012806062988602,365.629899999999907l-1.230899999998655,1.510200000000623c-.668000000001484-.644000000000233-1.575200000001132-1.340300000001662-2.723700000000463-2.090300000001662-.948200000000725.796900000001187-2.014100000000326,1.529300000001967-3.197000000000116,2.196300000001429l-1.441100000000006-1.264699999999721c1.137199999999211-.468700000001263,2.133299999999508-1.019000000000233,2.987800000000789-1.651800000001458-1.429700000000594-.53859999999986-2.583099999999831-.91359999999986-3.461500000001251-1.124499999998079l.895500000000538-1.616700000000492c1.300799999999072.328599999998914,2.606999999999971.75,3.917999999999665,1.265099999998711.831500000000233-.784199999998236,1.529300000000148-1.586899999998423,2.09230000000025-2.407199999999648l1.475599999999758,1.177700000000186c-.469499999999243.725599999999758-1.079100000000835,1.434600000000501-1.828199999999924,2.126000000000204.867200000000594.49120000000039,1.704599999999118,1.118700000000899,2.513199999999415,1.879899999999907ZM373.22330606298965,372.025400000000445l-1.475599999999758,1.159700000000157c-.949500000000626-.72609999999986-1.933100000000195-1.329600000000937-2.951399999999921-1.810100000000602-.633600000001024.480499999999665-1.756600000000617,1.084000000000742-3.374299999999494,1.810100000000602l-1.334900000001653-1.054700000000594c1.511200000000827-.714400000000751,2.594199999999546-1.334500000000844,3.250900000000911-1.862300000000687-.656700000001365-.41019999999844-1.652799999999843-.86620000000039-2.987800000000789-1.370100000000093l1.317900000000009-1.107499999998254c1.206500000000233.433599999998478,2.237300000000687.885299999998097,3.091800000000148,1.353099999998449.328100000000632-.1875.989300000001094-.749099999999089,1.985800000000381-1.686599999999089l1.616299999999683.826199999999517c-.597200000000157.772499999999127-1.265199999999822,1.41110000000117-2.003000000000611,1.915000000000873.972200000000157.444400000000314,1.927800000001298,1.053799999999683,2.864300000001094,1.827199999999721Z"/><path class="uuid-3ee5b7a5-31aa-463b-b9a7-f8a16d7d8458" d="M468.844426062989442,390.386700000000928h-31.976999999998952v-2.266600000000835h14.898899999998321v-8.24120000000039h-10.735399999999572v-2.266600000000835h10.735399999999572v-7.168399999998655h-7.959499999999025c-.960399999999936,2.494599999999991-2.565399999999499,4.796299999999974-4.814399999999296,6.904699999999139l-2.318400000000111-1.211899999998423c3.840799999998126-3.548800000000483,5.97899999999936-7.895500000000538,6.412599999999657-13.037100000001374l2.372099999998682.685100000000602c-.093799999998737,1.194799999999304-.369199999999182,2.670899999999165-.826699999999619,4.428200000000288h7.099600000001374v-7.69629999999961h2.371399999999994v7.660699999998542h12.404499999998734v2.266600000000835h-12.404499999998734v7.133700000000317h10.577799999999115v2.266200000000026h-10.577799999999115v8.240699999998469h14.741399999998976v2.302200000001903Z"/><path class="uuid-3ee5b7a5-31aa-463b-b9a7-f8a16d7d8458" d="M553.957746062989827,368.61620000000039l-1.264400000000023,1.827699999999822c-3.993900000001304-.983899999999267-7.122300000000905-2.119699999999284-9.383100000000923-3.408299999999144v1.580599999999322h-11.877899999999499v-1.739199999999983c-3.419899999998961,1.769000000000233-6.489299999999275,2.92279999999846-9.206099999999424,3.46140000000014l-1.159600000000864-1.845200000001569c6.583000000000538-1.604499999999462,12.064399999999296-4.287099999999555,16.445800000001327-8.046899999999368l2.160599999999249.720699999999852c-.23489999999947.293000000001484-.439399999999296.497999999999593-.614300000001094.614300000001094,3.888200000001234,3.233399999999165,8.855999999999767,5.511699999999109,14.899000000001251,6.834899999999834ZM550.216046062989335,378.684600000000501h-25.511700000000928v-8.240700000000288h25.511700000000928v8.240700000000288ZM548.12524606298939,392.177700000000186h-2.162200000000666v-1.40519999999924h-16.973099999999249v1.40519999999924h-2.160600000001068v-11.648400000000038h21.295900000000984v11.648400000000038ZM536.404946062988529,376.787099999999555v-4.393099999999322h-9.539999999999054v4.393099999999322h9.539999999999054ZM545.963046062988724,384.728499999999258v-2.266599999999016h-16.973099999999249v2.266599999999016h16.973099999999249ZM545.963046062988724,388.875v-2.301799999999275h-16.973099999999249v2.301799999999275h16.973099999999249ZM534.068046062990106,375.047899999999572l-1.809800000000905,1.264600000000428c-1.088600000000952-1.100599999999758-2.155000000000655-1.914999999999054-3.197000000000116-2.442399999999907l1.826600000000326-1.05370000000039c1.242200000000594.526400000000649,2.301300000000992,1.270500000000538,3.180200000000696,2.231499999999869ZM542.589346062990444,366.66649999999936c-1.69800000000032-.889600000000428-3.343100000001868-2.090799999999945-4.936300000001211-3.602499999999054-1.700199999999313,1.405699999999342-3.602600000000166,2.606899999998859-5.710699999999633,3.602499999999054h10.647000000000844ZM548.054446062989882,376.787099999999555v-4.393099999999322h-9.48739999999998v4.393099999999322h9.48739999999998ZM545.92894606298978,373.431200000000899c-.691899999999805,1.100999999998749-1.734700000000885,2.037599999999657-3.128500000000713,2.810999999999694l-1.932099999999991-.965799999999945c1.533699999999953-.867200000000594,2.588400000000547-1.734400000001187,3.162599999999657-2.60109999999986l1.898000000001048.755900000000111Z"/></g></svg>