<?xml version="1.0" encoding="UTF-8"?><svg id="uuid-6ff674cd-b8f0-40c6-808b-f51104ce0ee0" xmlns="http://www.w3.org/2000/svg" width="223.374828589691134mm" height="281.877695211066168mm" xmlns:xlink="http://www.w3.org/1999/xlink" viewBox="0 0 633.188500000000204 799.023400000000038"><defs><style>.uuid-860fb353-b5c3-4de1-ba3a-2b35fab97f39{fill:#00c2f3;}.uuid-11030919-0da9-40e8-a9ff-7d39b021bfa2{clip-path:url(#uuid-c5a9d367-8cd8-4d12-9899-3a63801239e4);}.uuid-8425c5a9-af3d-44df-91bd-051d95dab929{fill:#fff;}.uuid-44f6ca65-ca34-48e6-b751-e2180c0e38f1{fill:none;}.uuid-62aa9862-24fe-4acb-b664-1e0129e29765{fill:#333e48;}</style><clipPath id="uuid-c5a9d367-8cd8-4d12-9899-3a63801239e4"><rect class="uuid-44f6ca65-ca34-48e6-b751-e2180c0e38f1" width="633.188500000000204" height="799.023400000000038"/></clipPath></defs><g class="uuid-11030919-0da9-40e8-a9ff-7d39b021bfa2"><path class="uuid-8425c5a9-af3d-44df-91bd-051d95dab929" d="M79.221700000000055,135.787099999999555c-4.552699999998367,10.763699999999517-7.259799999999814,22.072200000000521-8.085900000000038,33.712900000000445,1.79490000000078-1.46100000000115,4.080000000001746-2.339900000000853,6.568300000000818-2.339900000000853,2.748099999998885,0,5.244199999999182,1.077199999999721,7.109399999999368,2.818400000000111,3.668000000001484-47.796899999999368,43.611300000000483-85.436499999999796,92.351599999999962-85.436499999999796,3.775300000001153,0,6.835900000000038-3.061599999999089,6.835900000000038-6.837900000000445,0-3.77639999999883-3.060599999998885-6.837899999998626-6.835900000000038-6.837899999998626-14.345799999999144,0-28.269599999999627,2.8125-41.384799999999814,8.359399999999368-12.658199999999852,5.355400000000373-24.025400000000445,13.016599999999016-33.783199999999852,22.775400000000445-9.759799999999814,9.757799999999406-17.421899999999368,21.125-22.775400000000445,33.786099999999351Z"/><path class="uuid-8425c5a9-af3d-44df-91bd-051d95dab929" d="M169.594700000001467,269.486300000000483c-47.478500000001077-3.841800000000148-84.837900000000445-43.48240000000078-85.052700000000186-91.899400000000242,0-3.775400000000445-3.060499999999593-6.837900000000445-6.837900000000445-6.837900000000445-3.775400000000445,0-6.837900000000445,3.0625-6.837900000000445,6.837900000000445.054700000000594,14.197299999999814,2.861399999999776,27.977499999999054,8.355499999999665,40.96389999999883,5.353500000001077,12.659100000000763,13.015600000000632,24.02730000000156,22.775400000000445,33.784100000000763,9.757799999999406,9.759799999999814,21.125,17.421899999999368,33.783199999999852,22.777399999999034,10.628900000001522,4.494099999999889,21.787099999999555,7.193300000000818,33.271500000000742,8.054700000000594-1.443400000000111-1.789099999999962-2.314500000000407-4.060600000000704-2.314500000000407-6.533199999999852,0-2.76759999999922,1.091800000000148-5.279300000000148,2.85740000000078-7.147499999999127Z"/><path class="uuid-8425c5a9-af3d-44df-91bd-051d95dab929" d="M251.264699999999721,243.707000000000335c-1.333999999998923-1.335000000000946-3.083999999998923-2.002900000001318-4.833999999998923-2.002900000001318s-3.5.667900000000373-4.835999999999331,2.002900000001318c-16.671800000000076,16.145499999998719-39.388600000000224,26.08889999999883-64.429600000001301,26.08889999999883-3.777399999999034,0-6.837900000000445,3.061499999999796-6.837900000000445,6.837900000000445,0,3.776299999999537,3.060500000001412,6.837900000000445,6.837900000000445,6.837900000000445,14.343700000001263,0,28.265600000000632-2.8125,41.380800000000818-8.359400000001187,12.20509999999922-5.161199999998644,23.201199999999517-12.474599999999555,32.718799999998737-21.734399999999368,2.671800000000076-2.669899999998961,2.671800000000076-7,0-9.670899999999165Z"/><path class="uuid-8425c5a9-af3d-44df-91bd-051d95dab929" d="M177.165100000000166,283.471700000000055c-3.777399999999034,0-6.837900000000445-3.061600000000908-6.837900000000445-6.837900000000445,0-3.776400000000649,3.060500000001412-6.837900000000445,6.837900000000445-6.837900000000445,25.041000000001077,0,47.757800000001225-9.943400000000111,64.429600000001301-26.08889999999883,1.335999999999331-1.335000000000946,3.085999999999331-2.002900000001318,4.835999999999331-2.002900000001318s3.5.667900000000373,4.833999999998923,2.002900000001318c2.671800000000076,2.670899999999165,2.671800000000076,7.001000000000204,0,9.670899999999165-9.51759999999922,9.259799999999814-20.513699999999517,16.573200000000725-32.718799999998737,21.734399999999368-13.115200000000186,5.546900000001187-27.037099999999555,8.359400000001187-41.380800000000818,8.359400000001187ZM135.780300000000352,275.112299999998868c-12.658199999999852-5.355499999999665-24.025400000000445-13.01759999999922-33.783199999999852-22.777399999999034-9.759799999999814-9.756799999999203-17.421899999999368-21.125-22.775400000000445-33.784100000000763-5.494099999999889-12.986399999999776-8.300799999999072-26.766599999999016-8.355499999999665-40.96389999999883,0-3.775400000000445,3.0625-6.837900000000445,6.837900000000445-6.837900000000445,3.777400000000853,0,6.837900000000445,3.0625,6.837900000000445,6.837900000000445.214799999999741,48.416999999999462,37.574199999999109,88.057600000000093,85.052700000000186,91.899400000000242-1.765600000000632,1.868199999998978-2.85740000000078,4.379899999999907-2.85740000000078,7.147499999999127,0,2.472599999999147.871100000000297,4.744099999999889,2.314500000000407,6.533199999999852-11.484400000001187-.861399999999776-22.64259999999922-3.560600000000704-33.271500000000742-8.054700000000594ZM177.165100000000166,70.86620000000039c3.775300000001153,0,6.835900000000038,3.061499999999796,6.835900000000038,6.837899999998626,0,3.776300000001356-3.060599999998885,6.837900000000445-6.835900000000038,6.837900000000445-48.740299999999479,0-88.683599999998478,37.639600000000428-92.351599999999962,85.436499999999796-1.865200000000186-1.74120000000039-4.361300000000483-2.818400000000111-7.109399999999368-2.818400000000111-2.488299999999072,0-4.773400000000038.878899999999703-6.568300000000818,2.339900000000853.826100000000224-11.640699999999924,3.533200000001671-22.949200000000928,8.085900000000038-33.712900000000445,5.353500000001077-12.661099999999351,13.015600000000632-24.028299999999945,22.775400000000445-33.786099999999351,9.757799999999406-9.758800000001429,21.125-17.420000000000073,33.783199999999852-22.775400000000445,13.115200000000186-5.546899999999368,27.039000000000669-8.359399999999368,41.384799999999814-8.359399999999368Z"/><path class="uuid-8425c5a9-af3d-44df-91bd-051d95dab929" d="M233.458000000000538,120.875c-15.035099999999147-15.036200000000463-35.029300000000148-23.315500000000611-56.292900000000373-23.315500000000611-21.265699999999924,0-41.257899999998699,8.279300000000148-56.292999999999665,23.315500000000611-15.037099999999555,15.037099999999555-23.318400000000111,35.029300000000148-23.318400000000111,56.293899999998757,0,21.26470000000154,8.281300000000556,41.255900000000111,23.318400000000111,56.293000000001484,15.035100000000966,15.035099999999147,35.027299999999741,23.318299999998999,56.292999999999665,23.318299999998999,21.263600000000224,0,41.257800000001225-8.283199999999852,56.292900000000373-23.318299999998999,15.037099999999555-15.037100000001374,23.316399999999703-35.028299999999945,23.316399999999703-56.293000000001484,0-21.264599999998609-8.279300000000148-41.256799999999203-23.316399999999703-56.293899999998757Z"/><path class="uuid-62aa9862-24fe-4acb-b664-1e0129e29765" d="M121.059600000000501,202.91399999999885v-51.489199999999983h11.166000000001077v3.805600000001505h-6.472700000000259v43.876999999998588h6.472700000000259v3.806599999999889h-11.166000000001077Z"/><path class="uuid-62aa9862-24fe-4acb-b664-1e0129e29765" d="M233.270500000000538,151.424799999998868v51.489199999999983h-11.16399999999885v-3.806599999999889h6.468699999999444v-43.876999999998588h-6.468699999999444v-3.805600000001505h11.16399999999885Z"/><path class="uuid-860fb353-b5c3-4de1-ba3a-2b35fab97f39" d="M146.995100000000093,187.628899999999703c0,1.028299999999945.015699999999924,2.242200000000594.046900000001187,3.635700000000725.031299999998737,1.394599999999627.076199999999517,2.811499999999796.128899999999703,4.248099999998885.054700000000594,1.4375.117200000000594,2.811499999999796.193400000000111,4.120100000000093.074199999999109,1.308600000000297.165999999999258,2.402299999999741.273400000000038,3.281199999999444h-6.597600000000966v-36.366199999998571c0-3.130800000000818-.052799999999479-5.968700000001263-.160200000000259-8.510700000000725-.107399999998961-2.542999999999665-.26759999999922-4.747100000000501-.484399999999368-6.612300000000687h6.599599999999555v36.204100000000835Z"/><path class="uuid-860fb353-b5c3-4de1-ba3a-2b35fab97f39" d="M175.797900000001391,170.088799999999537v4.216800000000148h-6.050800000000891v24.393599999999424h6.050800000000891v4.215799999999945h-18.021500000000742v-4.215799999999945h5.953100000000632v-24.393599999999424h-5.953100000000632v-4.216800000000148h18.021500000000742Z"/><path class="uuid-860fb353-b5c3-4de1-ba3a-2b35fab97f39" d="M189.315400000001318,170.088799999999537c.126999999998588.343800000000556.255900000000111.788099999999758.384799999999814,1.336999999999534.130900000000111.545900000000984.246100000000297,1.120100000000093.355499999999665,1.720699999999852.105400000000373.600500000000466.201100000000224,1.191400000001522.289000000000669,1.770500000000538l.255900000000111,1.44629999999961c2.060499999999593-2.444400000000314,4.130900000000111-4.208999999998923,6.210899999998219-5.292999999999665,2.082100000001446-1.083000000000538,4.25-1.625,6.502000000000407-1.625,1.716800000000148,0,3.234400000001187.284200000000055,4.552700000000186.852500000000873,1.320299999999406.570299999999406,2.431700000001001,1.470699999999852,3.332099999999627,2.703199999999924.900300000001153,1.234300000000076,1.580000000001746,2.83389999999963,2.042900000000373,4.795799999999872.462900000000445,1.96389999999883.691399999999703,4.327199999999721.691399999999703,7.096700000000055v14.480499999999665c0,3.626000000000204-.316399999999703,6.636699999999109-.949199999999109,9.027299999999741-.630800000000818,2.393599999999424-1.51759999999922,4.302799999999479-2.654300000000148,5.730499999999665-1.136700000000928,1.424800000000687-2.505800000000818,2.433600000000297-4.103499999999258,3.023400000000038-1.597700000000259.589900000000853-3.373000000001412.885800000000017-5.326200000001336.885800000000017-.964799999999741,0-2-.156299999998737-3.105399999998554-.466800000000148-1.10360000000037-.311499999999796-2.107500000001892-.745100000000093-3.007900000000518-1.303699999998571l2.091800000000148-4.828100000000632c.492199999998775.365200000000186,1.152399999999034.670899999999165,1.97860000000037.917900000000373.826099999998405.246099999998478,1.667899999998554.369199999999182,2.525299999999334.369199999999182,1.031300000000556,0,1.953199999999924-.165100000000166,2.769599999999627-.498100000000704.814400000001115-.331999999998516,1.505800000000818-.915999999999258,2.074200000000928-1.752899999999499s1.003899999999703-1.985399999999572,1.304699999998775-3.444299999999203c.298800000000483-1.459000000000742.449200000000928-3.314500000000407.449200000000928-5.567399999999907v-14.160200000000259c0-2.575200000001132-.134799999999814-4.661099999999351-.40230000000156-6.25879999999961-.26759999999922-1.599600000001374-.671899999999368-2.843700000001263-1.207099999999627-3.734300000000076-.535099999999147-.889699999999721-1.206999999998516-1.484400000001187-2.011699999999109-1.787200000000666-.804700000000594-.298800000000483-1.742200000000594-.449199999999109-2.816399999999703-.449199999999109-1.158199999999852,0-2.287100000001374.273499999999331-3.392600000001039.822299999999814-1.105399999998554.544899999998961-2.121099999998478,1.253899999999703-3.042899999998554,2.122999999999593-.921900000001187.867200000000594-1.738300000000891,1.849599999999555-2.445400000000518,2.944400000000314-.707000000000335,1.094699999999648-1.234300000000076,2.1875-1.578100000000632,3.282199999999648v18.665999999999258h-5.953100000000632v-19.791999999999462c0-3.174800000000687-.181599999999889-5.862300000000687-.546899999999368-8.061499999999796-.363299999999072-2.199200000000928-.718699999999444-3.85740000000078-1.0625-4.972700000000259h5.79490000000078Z"/><rect class="uuid-44f6ca65-ca34-48e6-b751-e2180c0e38f1" x="102.330090625000594" y="702.694309374999648" width="368.1259765625" height="46.6611328125"/><path class="uuid-8425c5a9-af3d-44df-91bd-051d95dab929" d="M124.047864062500594,712.138645312499648l-2.9404296875,3.4033203125c-2.05859375-1.6806640625-4.0751953125-2.4365234375-6.4267578125-2.4365234375-2.5205078125,0-4.2431640625,1.091796875-4.2431640625,3.150390625,0,2.0166015625,1.091796875,2.8564453125,5.8388671875,4.326171875,5.2509765625,1.6806640625,8.611328125,3.865234375,8.611328125,9.2421875,0,5.3349609375-4.2001953125,9.0732421875-11.2578125,9.0732421875-4.8310546875,0-8.359375-1.7216796875-10.75390625-4.07421875l3.1923828125-3.4873046875c2.1005859375,1.806640625,4.4111328125,2.8994140625,7.3935546875,2.8994140625s4.9990234375-1.4287109375,4.9990234375-3.9912109375c0-2.310546875-1.1337890625-3.318359375-5.544921875-4.6630859375-6.30078125-1.9736328125-8.8212890625-4.494140625-8.8212890625-8.9052734375,0-4.95703125,4.2841796875-8.19140625,10.1650390625-8.19140625,4.3271484375,0,7.267578125,1.3017578125,9.7880859375,3.654296875Z"/><path class="uuid-8425c5a9-af3d-44df-91bd-051d95dab929" d="M147.693371875000594,728.900364062499648h-13.904296875c.419921875,4.2841796875,2.4365234375,5.544921875,5.29296875,5.544921875,1.890625,0,3.486328125-.5888671875,5.4189453125-1.9326171875l2.478515625,3.3603515625c-2.1845703125,1.7646484375-4.95703125,3.0244140625-8.443359375,3.0244140625-7.1416015625,0-10.8798828125-4.705078125-10.8798828125-11.677734375,0-6.7216796875,3.6123046875-11.9306640625,10.123046875-11.9306640625,6.3017578125,0,10.0400390625,4.201171875,10.0400390625,11.30078125,0,.755859375-.083984375,1.6796875-.1259765625,2.310546875ZM141.896496875000594,724.909153124999648c0-3.3603515625-1.134765625-5.544921875-3.9912109375-5.544921875-2.3515625,0-3.7802734375,1.5546875-4.1162109375,5.796875h8.107421875v-.251953125Z"/><path class="uuid-8425c5a9-af3d-44df-91bd-051d95dab929" d="M167.684582812500594,717.977512499999648l-2.2685546875,3.4033203125c-1.806640625-1.134765625-3.6123046875-1.7646484375-5.544921875-1.7646484375-1.974609375,0-3.06640625.7978515625-3.06640625,2.0166015625,0,1.3017578125.755859375,1.890625,4.6630859375,3.0244140625,4.4521484375,1.2177734375,6.97265625,3.06640625,6.97265625,7.015625,0,4.6201171875-4.326171875,7.224609375-9.619140625,7.224609375-3.865234375,0-6.9736328125-1.3017578125-9.07421875-3.234375l2.9404296875-3.2763671875c1.6806640625,1.3017578125,3.7392578125,2.1845703125,5.96484375,2.1845703125,2.2265625,0,3.6552734375-.9248046875,3.6552734375-2.4365234375,0-1.6806640625-.7978515625-2.2265625-4.9150390625-3.361328125-4.4951171875-1.259765625-6.5947265625-3.486328125-6.5947265625-6.8466796875,0-3.7802734375,3.4443359375-6.6376953125,8.8212890625-6.6376953125,3.234375,0,5.96484375,1.0087890625,8.0654296875,2.6884765625Z"/><path class="uuid-8425c5a9-af3d-44df-91bd-051d95dab929" d="M187.801770312500594,717.977512499999648l-2.2685546875,3.4033203125c-1.806640625-1.134765625-3.6123046875-1.7646484375-5.544921875-1.7646484375-1.974609375,0-3.06640625.7978515625-3.06640625,2.0166015625,0,1.3017578125.755859375,1.890625,4.6630859375,3.0244140625,4.4521484375,1.2177734375,6.97265625,3.06640625,6.97265625,7.015625,0,4.6201171875-4.326171875,7.224609375-9.619140625,7.224609375-3.865234375,0-6.9736328125-1.3017578125-9.07421875-3.234375l2.9404296875-3.2763671875c1.6806640625,1.3017578125,3.7392578125,2.1845703125,5.96484375,2.1845703125,2.2265625,0,3.6552734375-.9248046875,3.6552734375-2.4365234375,0-1.6806640625-.7978515625-2.2265625-4.9150390625-3.361328125-4.4951171875-1.259765625-6.5947265625-3.486328125-6.5947265625-6.8466796875,0-3.7802734375,3.4443359375-6.6376953125,8.8212890625-6.6376953125,3.234375,0,5.96484375,1.0087890625,8.0654296875,2.6884765625Z"/><path class="uuid-8425c5a9-af3d-44df-91bd-051d95dab929" d="M199.055676562500594,707.980442187499648c0,1.9736328125-1.5126953125,3.486328125-3.6552734375,3.486328125s-3.6123046875-1.5126953125-3.6123046875-3.486328125c0-1.974609375,1.4697265625-3.4873046875,3.6123046875-3.4873046875s3.6552734375,1.5126953125,3.6552734375,3.4873046875ZM198.424817187500594,738.225559374999648h-5.96484375v-22.263671875h5.96484375v22.263671875Z"/><path class="uuid-8425c5a9-af3d-44df-91bd-051d95dab929" d="M224.299817187500594,727.093723437499648c0,7.056640625-3.9912109375,11.8037109375-10.669921875,11.8037109375-6.6376953125,0-10.669921875-4.41015625-10.669921875-11.8037109375,0-7.099609375,3.990234375-11.8046875,10.7119140625-11.8046875,6.63671875,0,10.6279296875,4.4111328125,10.6279296875,11.8046875ZM209.176770312500594,727.093723437499648c0,5.125,1.51171875,7.3515625,4.453125,7.3515625,2.9404296875,0,4.4521484375-2.2685546875,4.4521484375-7.3515625,0-5.125-1.51171875-7.3515625-4.41015625-7.3515625-2.9833984375,0-4.4951171875,2.2685546875-4.4951171875,7.3515625Z"/><path class="uuid-8425c5a9-af3d-44df-91bd-051d95dab929" d="M247.483410937500594,722.010715624999648v16.21484375h-5.96484375v-15.20703125c0-2.5625-.9248046875-3.2763671875-2.4365234375-3.2763671875-1.72265625,0-3.06640625,1.134765625-4.28515625,3.1083984375v15.375h-5.96484375v-22.263671875h5.1669921875l.4619140625,2.814453125c1.806640625-2.2265625,3.9912109375-3.4873046875,6.8056640625-3.4873046875,3.90625,0,6.216796875,2.5205078125,6.216796875,6.7216796875Z"/><path class="uuid-8425c5a9-af3d-44df-91bd-051d95dab929" d="M281.124035937500594,716.801731249999648c0,4.62109375-2.8564453125,8.5693359375-12.0986328125,16.802734375h12.7705078125l-.6298828125,4.62109375h-18.9453125v-4.3271484375c10.0390625-9.619140625,12.76953125-12.8115234375,12.76953125-16.5927734375,0-2.5625-1.5537109375-4.2001953125-4.2001953125-4.2001953125-2.310546875,0-3.8232421875.923828125-5.544921875,2.982421875l-3.697265625-2.8984375c2.310546875-2.982421875,5.376953125-4.705078125,9.830078125-4.705078125,6.4267578125,0,9.74609375,3.7802734375,9.74609375,8.3173828125Z"/><path class="uuid-8425c5a9-af3d-44df-91bd-051d95dab929" d="M305.945325000000594,723.649387499999648c0,9.9130859375-3.5703125,15.248046875-10.2080078125,15.248046875-6.63671875,0-10.20703125-5.3349609375-10.20703125-15.248046875,0-9.9140625,3.5703125-15.1650390625,10.20703125-15.1650390625,6.6376953125,0,10.2080078125,5.2509765625,10.2080078125,15.1650390625ZM291.663098437500594,723.649387499999648c0,8.1494140625,1.3017578125,10.75390625,4.07421875,10.75390625,2.73046875,0,4.0751953125-2.478515625,4.0751953125-10.75390625s-1.3447265625-10.7119140625-4.0751953125-10.7119140625c-2.7724609375,0-4.07421875,2.6044921875-4.07421875,10.7119140625Z"/><path class="uuid-8425c5a9-af3d-44df-91bd-051d95dab929" d="M328.163098437500594,716.801731249999648c0,4.62109375-2.8564453125,8.5693359375-12.0986328125,16.802734375h12.7705078125l-.6298828125,4.62109375h-18.9453125v-4.3271484375c10.0390625-9.619140625,12.76953125-12.8115234375,12.76953125-16.5927734375,0-2.5625-1.5537109375-4.2001953125-4.2001953125-4.2001953125-2.310546875,0-3.8232421875.923828125-5.544921875,2.982421875l-3.697265625-2.8984375c2.310546875-2.982421875,5.376953125-4.705078125,9.830078125-4.705078125,6.4267578125,0,9.74609375,3.7802734375,9.74609375,8.3173828125Z"/><path class="uuid-8425c5a9-af3d-44df-91bd-051d95dab929" d="M352.984387500000594,723.649387499999648c0,9.9130859375-3.5703125,15.248046875-10.2080078125,15.248046875-6.63671875,0-10.20703125-5.3349609375-10.20703125-15.248046875,0-9.9140625,3.5703125-15.1650390625,10.20703125-15.1650390625,6.6376953125,0,10.2080078125,5.2509765625,10.2080078125,15.1650390625ZM338.702160937500594,723.649387499999648c0,8.1494140625,1.3017578125,10.75390625,4.07421875,10.75390625,2.73046875,0,4.0751953125-2.478515625,4.0751953125-10.75390625s-1.3447265625-10.7119140625-4.0751953125-10.7119140625c-2.7724609375,0-4.07421875,2.6044921875-4.07421875,10.7119140625Z"/><path class="uuid-8425c5a9-af3d-44df-91bd-051d95dab929" d="M355.542004687500594,722.724582812499648h19.828125v4.705078125h-19.828125v-4.705078125Z"/><path class="uuid-8425c5a9-af3d-44df-91bd-051d95dab929" d="M397.042004687500594,716.801731249999648c0,4.62109375-2.8564453125,8.5693359375-12.0986328125,16.802734375h12.7705078125l-.6298828125,4.62109375h-18.9453125v-4.3271484375c10.0390625-9.619140625,12.76953125-12.8115234375,12.76953125-16.5927734375,0-2.5625-1.5537109375-4.2001953125-4.2001953125-4.2001953125-2.310546875,0-3.8232421875.923828125-5.544921875,2.982421875l-3.697265625-2.8984375c2.310546875-2.982421875,5.376953125-4.705078125,9.830078125-4.705078125,6.4267578125,0,9.74609375,3.7802734375,9.74609375,8.3173828125Z"/><path class="uuid-8425c5a9-af3d-44df-91bd-051d95dab929" d="M421.863293750000594,723.649387499999648c0,9.9130859375-3.5703125,15.248046875-10.2080078125,15.248046875-6.63671875,0-10.20703125-5.3349609375-10.20703125-15.248046875,0-9.9140625,3.5703125-15.1650390625,10.20703125-15.1650390625,6.6376953125,0,10.2080078125,5.2509765625,10.2080078125,15.1650390625ZM407.581067187500594,723.649387499999648c0,8.1494140625,1.3017578125,10.75390625,4.07421875,10.75390625,2.73046875,0,4.0751953125-2.478515625,4.0751953125-10.75390625s-1.3447265625-10.7119140625-4.0751953125-10.7119140625c-2.7724609375,0-4.07421875,2.6044921875-4.07421875,10.7119140625Z"/><path class="uuid-8425c5a9-af3d-44df-91bd-051d95dab929" d="M444.081067187500594,716.801731249999648c0,4.62109375-2.8564453125,8.5693359375-12.0986328125,16.802734375h12.7705078125l-.6298828125,4.62109375h-18.9453125v-4.3271484375c10.0390625-9.619140625,12.76953125-12.8115234375,12.76953125-16.5927734375,0-2.5625-1.5537109375-4.2001953125-4.2001953125-4.2001953125-2.310546875,0-3.8232421875.923828125-5.544921875,2.982421875l-3.697265625-2.8984375c2.310546875-2.982421875,5.376953125-4.705078125,9.830078125-4.705078125,6.4267578125,0,9.74609375,3.7802734375,9.74609375,8.3173828125Z"/><path class="uuid-8425c5a9-af3d-44df-91bd-051d95dab929" d="M469.070325000000594,733.646457812499648v4.5791015625h-18.2734375v-4.5791015625h6.8056640625v-18.5673828125l-6.216796875,3.7392578125-2.5625-3.9912109375,9.3671875-5.6708984375h5.2509765625v24.490234375h5.62890625Z"/><path class="uuid-8425c5a9-af3d-44df-91bd-051d95dab929" d="M107.457000000000335,426.163500000000568v-67.755400000001828h8.153800000000047v60.572299999999814h28.830100000001039v7.183100000002014h-36.983900000001086Z"/><path class="uuid-8425c5a9-af3d-44df-91bd-051d95dab929" d="M159.195300000001225,364.329499999998006c-1.683600000000297,0-2.897399999999834-.403299999998126-3.640600000000632-1.213399999998728-.744599999999991-.808100000000195-1.11620000000039-1.858900000001086-1.11620000000039-3.154799999998431v-1.261700000002747c0-1.293899999998757.371600000000399-2.34519999999975,1.11620000000039-3.155299999998533.743200000000797-.808600000000297,1.957000000000335-1.213299999999435,3.640600000000632-1.213299999999435,1.681699999999182,0,2.895500000000538.404699999999139,3.640099999998711,1.213299999999435.743200000000797.810099999998783,1.116300000001502,1.861399999999776,1.116300000001502,3.155299999998533v1.261700000002747c0,1.295899999997346-.373100000000704,2.346699999998236-1.116300000001502,3.154799999998431-.744599999998172.810100000000602-1.958399999999529,1.213399999998728-3.640099999998711,1.213399999998728ZM155.3125,376.075599999998303h7.765600000000632v50.087900000002264h-7.765600000000632v-50.087900000002264Z"/><path class="uuid-8425c5a9-af3d-44df-91bd-051d95dab929" d="M179.580100000001039,426.163500000000568v-50.087900000002264h7.765600000000632v8.061000000001513h.388199999999415c1.228499999999258-2.817900000001828,2.960399999999936-5.061000000001513,5.193299999998999-6.726500000000669,2.233000000000175-1.665600000000268,5.225100000001476-2.499599999999191,8.979000000001179-2.499599999999191,5.176799999999275,0,9.270599999999831,1.666999999999462,12.27980000000025,4.999100000000908,3.009299999999712,3.333999999998923,4.513699999999517,8.041999999997643,4.513699999999517,14.123999999999796v32.129899999999907h-7.765600000000632v-30.837900000002264c0-9.015599999998813-3.785699999998542-13.523499999999331-11.357399999998961-13.523499999999331-1.553299999999581,0-3.057700000001205.195800000001327-4.514200000001438.583999999998923-1.456099999999424.38970000000154-2.766099999998914.973700000002282-3.93119999999908,1.752000000000407-1.165000000000873.778300000001764-2.086900000000242,1.766600000000835-2.766100000000733,2.966800000001967-.679699999998775,1.199199999999109-1.019499999998516,2.610300000000279-1.019499999998516,4.231400000000576v34.827199999999721h-7.765600000000632Z"/><path class="uuid-8425c5a9-af3d-44df-91bd-051d95dab929" d="M274.514600000000428,424.513600000000224c0,6.923800000000483-1.941399999999703,12.359799999998359-5.824199999999109,16.307600000000093-3.882800000001225,3.946799999997893-9.352000000000771,5.92239999999947-16.40480000000025,5.92239999999947-4.077100000000428,0-7.588300000001254-.634799999999814-10.532199999999648-1.901400000000649-2.945300000001225-1.269500000000335-5.38720000000103-2.942399999999907-7.328600000000733-5.021999999999025l4.561999999999898-5.362800000000789c1.682099999999991,1.731999999999971,3.623600000000806,3.065000000000509,5.824200000000928,3.996099999998478,2.199300000000221.931700000001001,4.756399999998393,1.397000000000844,7.668499999999767,1.397000000000844,4.529300000000148,0,8.040499999999156-1.251499999998487,10.532199999999648-3.752000000000407,2.490700000000288-2.504399999997986,3.737299999998868-6.192799999998897,3.737299999998868-11.067799999998897v-6.9283000000014h-.388199999999415c-1.489199999999983,3.075700000001234-3.430599999999686,5.381400000002031-5.824199999999109,6.919000000001688-2.395000000000437,1.53859999999986-5.338799999999537,2.307099999998172-8.83350000000064,2.307099999998172-3.106400000000576,0-5.921400000001086-.615699999998469-8.445299999999406-1.843699999997625-2.523400000000038-1.22899999999936-4.659200000000055-2.976600000001781-6.406199999999444-5.242200000000594-1.747600000000602-2.264699999999721-3.106500000001688-5.014699999999721-4.07720000000154-8.251000000000204-.970699999999852-3.235400000001391-1.456000000000131-6.859400000001187-1.456000000000131-10.872100000000501,0-4.011699999999109.485300000000279-7.635699999998906,1.456000000000131-10.871999999999389.970699999999852-3.235400000001391,2.329600000000937-5.985400000001391,4.07720000000154-8.251000000000204,1.746999999999389-2.264699999999721,3.882799999999406-4.011699999999109,6.406199999999444-5.242200000000594,2.523899999998321-1.228499999999258,5.33889999999883-1.843799999998737,8.445299999999406-1.843799999998737,3.494700000001103,0,6.487300000000687.753499999998894,8.979000000001179,2.257900000000518,2.490799999999581,1.506799999999203,4.383299999999508,3.828599999998914,5.678699999998571,6.968199999999342h.388199999999415v-8.061000000001513h7.765600000000632v48.438000000001921ZM254.03269999999975,420.436400000000503c1.747600000000602,0,3.397500000000946-.227500000000873,4.950700000001234-.682600000000093,1.553200000000288-.454600000000937,2.895499999998719-1.122600000002421,4.028299999999945-2.000500000001921,1.131900000000314-.876899999999296,2.03859999999986-1.950699999997596,2.718300000000454-3.217799999998533.679200000000492-1.26850000000195,1.018999999998414-2.748999999999796,1.018999999998414-4.439900000001217v-18.634799999999814c0-1.365200000000186-.324199999999109-2.649900000000343-.970699999998033-3.85399999999936-.647400000001653-1.20260000000053-1.553200000002107-2.226500000000669-2.717800000000352-3.072700000000623-1.165000000000873-.844699999999648-2.52390000000014-1.511200000000827-4.077100000000428-1.999499999998079s-3.203100000000632-.732500000001892-4.950700000001234-.732500000001892c-4.40139999999883,0-7.895999999998821,1.398499999999331-10.483399999999165,4.195400000000518-2.589299999999639,2.796800000000076-3.882799999999406,6.406699999999546-3.882799999999406,10.829999999999927v8.584000000000742c0,4.422899999997753,1.293499999999767,8.03269999999975,3.882799999999406,10.83009999999922,2.587400000000343,2.796399999999267,6.082000000000335,4.194800000001123,10.483399999999165,4.194800000001123Z"/><path class="uuid-8425c5a9-af3d-44df-91bd-051d95dab929" d="M321.884300000001531,418.102399999997942h-.388200000001234c-.518599999999424,1.15480000000025-1.149400000000242,2.291500000001179-1.89259999999922,3.412600000001476-.745100000000093,1.120600000000195-1.667000000001281,2.114299999999275-2.766600000000835,2.97860000000037-1.10149999999885.865200000000186-2.426699999999983,1.55370000000039-3.979999999999563,2.066399999999703-1.553200000000288.51220000000103-3.365700000000288.768499999998312-5.435999999999694.768499999998312-5.178200000000288,0-9.287099999999555-1.664999999997235-12.328100000000632-4.998999999999796-3.042499999999563-3.332499999998618-4.5625-8.039999999997235-4.5625-14.123999999999796v-32.129899999999907h7.765600000000632v30.837900000002264c0,9.015099999998711,3.817900000000009,13.522899999999936,11.454599999999118,13.522899999999936,1.553200000000288,0,3.057600000000093-.19380000000092,4.513700000001336-.584000000002561,1.455999999998312-.388100000000122,2.75-.972099999999045,3.882799999999406-1.75,1.131799999999203-.778299999998126,2.038500000000568-1.766999999999825,2.718199999999342-2.967199999999139.679700000000594-1.199300000000221,1.019100000001345-2.643099999999322,1.019100000001345-4.33009999999922v-34.729500000001281h7.765599999998813v50.087900000002264h-7.765599999998813v-8.061100000002625Z"/><path class="uuid-8425c5a9-af3d-44df-91bd-051d95dab929" d="M350.034200000001874,364.329499999998006c-1.683600000000297,0-2.897000000000844-.403299999998126-3.640200000001641-1.213399999998728-.744599999999991-.808100000000195-1.11620000000039-1.858900000001086-1.11620000000039-3.154799999998431v-1.261700000002747c0-1.293899999998757.371600000000399-2.34519999999975,1.11620000000039-3.155299999998533.743200000000797-.808600000000297,1.956600000001345-1.213299999999435,3.640200000001641-1.213299999999435,1.682099999998172,0,2.895499999998719.404699999999139,3.640099999998711,1.213299999999435.743200000000797.810099999998783,1.11620000000039,1.861399999999776,1.11620000000039,3.155299999998533v1.261700000002747c0,1.295899999997346-.372999999999593,2.346699999998236-1.11620000000039,3.154799999998431-.744599999999991.810100000000602-1.958000000000538,1.213399999998728-3.640099999998711,1.213399999998728ZM346.151400000000649,376.075599999998303h7.765600000000632v50.087900000002264h-7.765600000000632v-50.087900000002264Z"/><path class="uuid-8425c5a9-af3d-44df-91bd-051d95dab929" d="M385.465299999999843,427.328499999997803c-4.659099999998944,0-8.55909999999858-.890099999996892-11.697199999998702-2.668899999996938-3.139699999999721-1.779300000001967-5.840900000001056-4.158200000001671-8.105500000001484-7.134800000001633l5.533200000001671-4.465799999999945c1.941399999999703,2.459899999999834,4.108899999999267,4.352500000000873,6.503899999999703,5.67870000000039,2.393599999999424,1.327099999998609,5.176799999999275,1.990200000000186,8.348200000000361,1.990200000000186,3.300199999999677,0,5.872499999999491-.711900000000242,7.716699999999037-2.135700000000725,1.84480000000076-1.422899999999572,2.766600000000835-3.429699999998775,2.766600000000835-6.018600000001243,0-1.941399999999703-.630800000000818-3.606399999998757-1.892499999999927-4.998999999999796-1.26220000000103-1.390599999998813-3.543500000001586-2.344699999997829-6.843800000000556-2.863299999997253l-3.979999999999563-.583000000002357c-2.329499999999825-.323199999998906-4.465299999999843-.824699999999211-6.406699999999546-1.503899999999703-1.941400000001522-.680199999998877-3.64010000000053-1.585399999999936-5.096199999999953-2.718199999999342-1.45600000000195-1.131400000000212-2.588900000000649-2.539600000000064-3.397500000000946-4.223200000000361-.809999999999491-1.681599999999889-1.213299999999435-3.688500000000204-1.213299999999435-6.01759999999922,0-2.459000000000742.452100000000428-4.611300000000483,1.358899999999267-6.455000000001746.905700000001161-1.844799999998941,2.150800000001254-3.381900000000314,3.737300000000687-4.611399999997957,1.584899999999834-1.228500000001077,3.477999999999156-2.150900000000547,5.678699999998571-2.766600000000835,2.199200000000928-.614199999999983,4.5625-.921899999999368,7.08640000000014-.921899999999368,4.076700000001438,0,7.489300000001094.712400000000343,10.240700000000288,2.135299999998097,2.75,1.424300000002404,5.160200000000259,3.397500000002765,7.231999999999971,5.921400000001086l-5.145099999999729,4.659200000000055c-1.100999999998749-1.552800000001298-2.71769999999924-2.959999999999127-4.853499999999258-4.22269999999844-2.135200000000623-1.261700000002747-4.821300000001429-1.892600000002858-8.056599999999889-1.892600000002858-3.236800000000585,0-5.67870000000039.695800000001327-7.329100000000835,2.086900000002061-1.649900000000343,1.392100000000937-2.475099999999657,3.28519999999844-2.475099999999657,5.678799999997864,0,2.459900000001653.825199999999313,4.239200000001802,2.475099999999657,5.338800000001356,1.650400000000445,1.101599999999962,4.028800000000047,1.909200000000055,7.134700000000521,2.426800000001094l3.882899999998699.581999999998516c5.564900000001217.841800000001967,9.513100000000122,2.444299999999203,11.842700000001059,4.805200000000696,2.329600000000937,2.363299999999072,3.494699999999284,5.452599999998711,3.494699999999284,9.270500000000538,0,4.853499999999258-1.650399999998626,8.67239999999947-4.950699999999415,11.454599999999118-3.300300000000789,2.783199999999852-7.831099999999424,4.173799999998664-13.589900000000853,4.173799999998664Z"/><path class="uuid-8425c5a9-af3d-44df-91bd-051d95dab929" d="M428.080600000001141,426.163500000000568c-2.717800000000352,0-4.773000000001048-.757800000001225-6.164099999999962-2.274900000000343-1.392100000000937-1.516600000000835-2.086900000000242-3.50340000000142-2.086900000000242-5.957500000000437v-34.963900000000649h-8.251000000000204v-6.891600000000835h4.659200000000055c1.682099999999991,0,2.830599999999322-.340299999999843,3.44629999999961-1.020000000000437.614199999999983-.679199999998673.921899999999368-1.859399999997549.921899999999368-3.542999999997846v-9.318900000002031h6.989199999999983v13.881900000000314h10.969300000000658v6.891600000000835h-10.969300000000658v36.304699999998775h10.192399999999907v6.891600000002654h-9.706999999998516Z"/><path class="uuid-8425c5a9-af3d-44df-91bd-051d95dab929" d="M454.969200000001365,364.329499999998006c-1.683600000000297,0-2.896900000001551-.403299999998126-3.64010000000053-1.213399999998728-.744599999999991-.808100000000195-1.116700000000492-1.858900000001086-1.116700000000492-3.154799999998431v-1.261700000002747c0-1.293899999998757.372100000000501-2.34519999999975,1.116700000000492-3.155299999998533.743199999998978-.808600000000297,1.956500000000233-1.213299999999435,3.64010000000053-1.213299999999435,1.682199999999284,0,2.895499999998719.404699999999139,3.640199999999822,1.213299999999435.743099999999686.810099999998783,1.11620000000039,1.861399999999776,1.11620000000039,3.155299999998533v1.261700000002747c0,1.295899999997346-.373100000000704,2.346699999998236-1.11620000000039,3.154799999998431-.744700000001103.810100000000602-1.958000000000538,1.213399999998728-3.640199999999822,1.213399999998728ZM451.08640000000014,376.075599999998303h7.765600000000632v50.087900000002264h-7.765600000000632v-50.087900000002264Z"/><path class="uuid-8425c5a9-af3d-44df-91bd-051d95dab929" d="M493.991700000000492,427.328499999997803c-3.494599999999991,0-6.634299999999712-.615699999998469-9.415999999999258-1.843699999997625-2.783199999999852-1.22899999999936-5.129399999999805-2.976600000001781-7.037599999999657-5.242200000000594-1.909700000000157-2.264699999999721-3.365700000000288-5.014699999999721-4.368200000000797-8.251000000000204-1.003899999999703-3.235400000001391-1.504399999999805-6.859400000001187-1.504399999999805-10.872100000000501,0-4.011699999999109.500500000000102-7.635699999998906,1.504399999999805-10.871999999999389,1.002500000000509-3.235400000001391,2.45850000000064-5.985400000001391,4.368200000000797-8.251000000000204,1.908199999999852-2.264699999999721,4.254399999999805-4.011699999999109,7.037599999999657-5.242200000000594,2.781699999999546-1.228499999999258,5.921399999999267-1.843799999998737,9.415999999999258-1.843799999998737,4.98240000000078,0,8.979000000001179,1.083999999998923,11.988300000000891,3.251000000000204,3.009299999999712,2.169499999999971,5.257299999999304,5,6.746600000000399,8.494199999999182l-6.503900000001522,3.300699999999779c-.906799999998839-2.587799999999334-2.395099999999729-4.594699999999648-4.465399999999136-6.018500000000131-2.071799999999712-1.422899999999572-4.659200000000055-2.135800000000017-7.765600000000632-2.135800000000017-2.329599999999118,0-4.368199999998978.373100000000704-6.115700000000288,1.116300000001502-1.747100000000501.744599999998172-3.203099999998813,1.781199999997625-4.368199999998978,3.106399999998757-1.164500000000771,1.32720000000154-2.03859999999986,2.912099999999555-2.620600000000195,4.756400000000212-.582500000000437,1.84519999999975-.873999999999796,3.867600000001403-.873999999999796,6.066800000000512v8.541999999999462c0,4.402400000000853,1.180199999998877,8.008800000001429,3.543399999998655,10.823800000000119,2.361400000001595,2.815399999999499,5.839400000000751,4.222600000000966,10.435100000000602,4.222600000000966,6.276400000000649,0,10.806599999999889-2.911600000001272,13.589799999999741-8.736300000000483l5.630400000000009,3.785599999999249c-1.618199999998978,3.625-4.028299999999945,6.503899999999703-7.231899999998859,8.639699999999721-3.203100000000632,2.135200000000623-7.19970000000103,3.203099999998813-11.988300000000891,3.203099999998813Z"/><path class="uuid-8425c5a9-af3d-44df-91bd-051d95dab929" d="M539.22609999999986,427.328499999997803c-4.659700000000157,0-8.55909999999858-.890099999996892-11.697299999999814-2.668899999996938-3.139599999998609-1.779300000001967-5.840799999999945-4.158200000001671-8.105499999999665-7.134800000001633l5.533199999999852-4.465799999999945c1.941399999999703,2.459899999999834,4.108900000001086,4.352500000000873,6.503899999999703,5.67870000000039,2.393100000001141,1.327099999998609,5.176300000000992,1.990200000000186,8.348200000000361,1.990200000000186,3.300300000000789,0,5.872600000000602-.711900000000242,7.716800000000148-2.135700000000725,1.844699999999648-1.422899999999572,2.766600000000835-3.429699999998775,2.766600000000835-6.018600000001243,0-1.941399999999703-.630900000000111-3.606399999998757-1.892600000001039-4.998999999999796-1.262199999999211-1.390599999998813-3.543400000000474-2.344699999997829-6.843699999999444-2.863299999997253l-3.979999999999563-.583000000002357c-2.329600000000937-.323199999998906-4.465299999999843-.824699999999211-6.406800000000658-1.503899999999703-1.941399999999703-.680199999998877-3.64010000000053-1.585399999999936-5.096099999998842-2.718199999999342-1.456100000001243-1.131400000000212-2.588900000000649-2.539600000000064-3.397500000000946-4.223200000000361-.810100000000602-1.681599999999889-1.213400000000547-3.688500000000204-1.213400000000547-6.01759999999922,0-2.459000000000742.45220000000154-4.611300000000483,1.358900000001086-6.455000000001746.905800000000454-1.844799999998941,2.150899999998728-3.381900000000314,3.737299999998868-4.611399999997957,1.585000000000946-1.228500000001077,3.478000000000975-2.150900000000547,5.67870000000039-2.766600000000835,2.199200000000928-.614199999999983,4.5625-.921899999999368,7.08640000000014-.921899999999368,4.076699999999619,0,7.489299999999275.712400000000343,10.240799999999581,2.135299999998097,2.75,1.424300000002404,5.160100000000966,3.397500000002765,7.231900000000678,5.921400000001086l-5.145000000000437,4.659200000000055c-1.10109999999986-1.552800000001298-2.717800000000352-2.959999999999127-4.853499999999258-4.22269999999844-2.135299999999916-1.261700000002747-4.821300000001429-1.892600000002858-8.056700000001001-1.892600000002858-3.236800000000585,0-5.678699999998571.695800000001327-7.329099999999016,2.086900000002061-1.649900000000343,1.392100000000937-2.475100000001476,3.28519999999844-2.475100000001476,5.678799999997864,0,2.459900000001653.825200000001132,4.239200000001802,2.475100000001476,5.338800000001356,1.650400000000445,1.101599999999962,4.028800000000047,1.909200000000055,7.134799999999814,2.426800000001094l3.882799999999406.581999999998516c5.564899999999398.841800000001967,9.513199999999415,2.444299999999203,11.842800000000352,4.805200000000696,2.329600000000937,2.363299999999072,3.494599999999991,5.452599999998711,3.494599999999991,9.270500000000538,0,4.853499999999258-1.650400000000445,8.67239999999947-4.950699999999415,11.454599999999118-3.300300000000789,2.783199999999852-7.831000000000131,4.173799999998664-13.58980000000156,4.173799999998664Z"/><path class="uuid-8425c5a9-af3d-44df-91bd-051d95dab929" d="M126.482900000000882,543.813899999999194c-5.501000000000204,0-10.192399999999907-1.052799999999479-14.075200000001132-3.154299999998329-3.882799999999406-2.102600000001985-7.183599999998478-4.999500000001717-9.90139999999883-8.688500000000204l6.018599999999424-5.047900000001391c2.393100000001141,3.171900000001187,5.04739999999947,5.582099999999627,7.959500000000844,7.232500000000073,2.912099999999555,1.649899999998524,6.341800000000148,2.475100000001476,10.289999999999054,2.475100000001476,4.853500000001077,0,8.557099999999991-1.165100000001985,11.114300000001094-3.494700000002922,2.555599999999686-2.329999999998108,3.834399999999732-5.435999999997875,3.834399999999732-9.318799999997282,0-3.234900000001289-.970699999999852-5.727100000000064-2.912099999999555-7.474100000001272-1.941399999999703-1.748099999998885-5.145000000000437-3.138700000001336-9.609800000000178-4.174799999998868l-5.533199999999852-1.261800000000221c-6.212900000000445-1.422800000000279-10.954100000000835-3.574200000000928-14.221199999999953-6.455000000001746-3.268600000001243-2.878899999999703-4.901900000000751-6.940500000000611-4.901900000000751-12.182699999999386,0-2.975499999998647.548800000000483-5.629800000000614,1.649900000000343-7.95889999999963,1.100099999999657-2.33009999999922,2.636300000000119-4.271499999998923,4.610899999999674-5.82470000000103,1.973599999999351-1.553299999999581,4.334899999999834-2.733000000000175,7.08640000000014-3.543499999999767,2.75-.808600000000297,5.775900000000547-1.213400000000547,9.076199999999517-1.213400000000547,5.111300000000483,0,9.496100000000297.939000000002125,13.153299999999945,2.815400000001318,3.655300000000352,1.877500000000509,6.746100000000297,4.627500000000509,9.270000000000437,8.250999999998385l-6.115200000000186,4.465400000000955c-1.877999999998792-2.587899999998626-4.14259999999922-4.626000000000204-6.795000000000073-6.115799999999581-2.654300000000148-1.48779999999897-5.954999999999927-2.232899999999063-9.901299999999537-2.232899999999063-4.33640000000014,0-7.750500000000102.922899999997753-10.24120000000039,2.766599999999016-2.491700000000492,1.844799999998941-3.737299999998868,4.611400000001595-3.737299999998868,8.299800000000687,0,3.236799999998766,1.051199999998062,5.67870000000039,3.15519999999924,7.328600000000733,2.102100000000064,1.650399999998626,5.290100000000166,2.961499999997613,9.561599999999089,3.932199999999284l5.53269999999975,1.261699999999109c6.664500000000771,1.489199999999983,11.486300000000483,3.753899999999703,14.463400000000547,6.79490000000078,2.976000000000568,3.041999999999462,4.465299999999843,7.085899999998219,4.465299999999843,12.13379999999961,0,3.106400000000576-.533699999999953,5.920900000000984-1.601599999999962,8.445299999999406-1.067799999998897,2.523499999999331-2.605900000000474,4.659200000001874-4.610800000000381,6.406300000000556-2.006899999998495,1.747499999999491-4.450199999999313,3.106400000000576-7.328599999998914,4.077100000000428-2.880400000000009.970699999999852-6.132400000000416,1.456099999999424-9.755900000000111,1.456099999999424Z"/><path class="uuid-8425c5a9-af3d-44df-91bd-051d95dab929" d="M182.006800000001022,543.813899999999194c-3.365700000000288,0-6.439899999999398-.615799999999581-9.221600000000763-1.844299999998839-2.783199999999852-1.228000000000975-5.161699999998746-2.992599999999584-7.134799999999814-5.290500000000975-1.974599999999555-2.295900000000984-3.511199999999008-5.04739999999947-4.610899999999674-8.251000000000204-1.101000000000568-3.203099999998813-1.649900000000343-6.810499999999593-1.649900000000343-10.823199999998906,0-3.94629999999961.548899999999776-7.538100000001577,1.649900000000343-10.775400000002264,1.099700000000666-3.234399999997549,2.636300000000119-6.001999999998588,4.610899999999674-8.299299999998766,1.973100000001068-2.296399999999267,4.351599999999962-4.060099999998783,7.134799999999814-5.290600000000268,2.781700000001365-1.228500000001077,5.855900000000474-1.843699999999444,9.221600000000763-1.843699999999444,3.364299999999275,0,6.421899999999368.615199999998367,9.173399999999674,1.843699999999444,2.75,1.230500000001484,5.128399999999601,2.994200000001001,7.134700000000521,5.290600000000268,2.005400000000009,2.297300000000178,3.558600000000297,5.064900000001217,4.659700000000157,8.299299999998766,1.099599999999555,3.237300000000687,1.649900000000343,6.829100000002654,1.649900000000343,10.775400000002264,0,4.012699999999313-.550300000000789,7.620100000000093-1.649900000000343,10.823199999998906-1.10109999999986,3.203600000000733-2.654300000000148,5.95509999999922-4.659700000000157,8.251000000000204-2.00630000000092,2.297900000001391-4.384700000000521,4.0625-7.134700000000521,5.290500000000975-2.751500000000306,1.228499999999258-5.809100000000399,1.844299999998839-9.173399999999674,1.844299999998839ZM182.006800000001022,536.921799999998257c4.206099999999424,0,7.635299999999916-1.293499999999767,10.289600000000064-3.882799999999406,2.652799999999843-2.587400000000343,3.979999999999563-6.535700000000361,3.979999999999563-11.84230000000025v-7.183600000000297c0-5.305699999998978-1.327199999999721-9.253899999999703-3.979999999999563-11.842799999998533-2.654300000000148-2.587400000000343-6.08350000000064-3.882799999999406-10.289600000000064-3.882799999999406-4.207000000000335,0-7.636700000000928,1.295399999999063-10.289500000000771,3.882799999999406-2.654300000000148,2.58889999999883-3.979999999999563,6.537099999999555-3.979999999999563,11.842799999998533v7.183600000000297c0,5.306599999999889,1.325699999999415,9.254899999999907,3.979999999999563,11.84230000000025,2.652799999999843,2.589299999999639,6.082500000000437,3.882799999999406,10.289500000000771,3.882799999999406Z"/><path class="uuid-8425c5a9-af3d-44df-91bd-051d95dab929" d="M236.075200000001132,543.813899999999194c-3.494099999999889,0-6.633800000001429-.615799999999581-9.415500000000975-1.844299999998839-2.783199999999852-1.228000000000975-5.129899999999907-2.976000000000568-7.037599999999657-5.241700000000492-1.909700000000157-2.264600000000428-3.365799999999581-5.014600000000428-4.368200000000797-8.250899999999092-1.004399999997986-3.235400000001391-1.504899999999907-6.859400000001187-1.504899999999907-10.872100000000501,0-4.011700000000928.500500000001921-7.635800000000017,1.504899999999907-10.872100000000501,1.002400000001217-3.235300000000279,2.45850000000064-5.985300000000279,4.368200000000797-8.251000000000204,1.90769999999975-2.264600000000428,4.254399999999805-4.011699999999109,7.037599999999657-5.242200000000594,2.781699999999546-1.228500000001077,5.921400000001086-1.843699999999444,9.415500000000975-1.843699999999444,4.982399999998961,0,8.97899999999936,1.084000000000742,11.988799999999173,3.251500000000306,3.008800000001429,2.169399999998859,5.256800000001022,4.999499999998079,6.746100000000297,8.493599999999788l-6.503500000000713,3.300799999999072c-.907199999999648-2.587899999998626-2.395499999998719-4.594699999997829-4.465799999998126-6.018599999999424-2.071300000001429-1.422800000000279-4.659200000001874-2.135699999998906-7.765600000000632-2.135699999998906-2.329100000000835,0-4.368200000000797.372999999999593-6.115200000000186,1.11620000000039-1.747100000000501.745100000000093-3.203199999999924,1.780799999998635-4.368200000000797,3.10649999999805-1.164999999999054,1.327100000000428-2.03859999999986,2.912100000001374-2.621099999998478,4.75630000000092-.582000000000335,1.844699999999648-.873500000001513,3.867699999998877-.873500000001513,6.066899999999805v8.542999999999665c0,4.401300000001356,1.180100000001403,8.007799999999406,3.542900000000373,10.823199999998906,2.361899999999878,2.815000000002328,5.839400000000751,4.222200000000157,10.435100000000602,4.222200000000157,6.276400000000649,0,10.806599999999889-2.912099999997736,13.589799999999741-8.736399999997957l5.630400000000009,3.785700000000361c-1.618200000000797,3.625-4.028299999999945,6.503899999999703-7.231400000000576,8.639599999998609-3.203599999998914,2.135299999999916-7.200199999999313,3.203199999999924-11.988799999999173,3.203199999999924Z"/><path class="uuid-8425c5a9-af3d-44df-91bd-051d95dab929" d="M270.146500000000742,480.814799999998286c-1.683600000000297,0-2.896999999999025-.403299999998126-3.640199999999822-1.212799999997515-.744599999999991-.809100000002218-1.11620000000039-1.859900000001289-1.11620000000039-3.155300000002171v-1.261699999999109c0-1.293999999999869.371600000000399-2.345300000000861,1.11620000000039-3.155300000000352.743200000000797-.808599999998478,1.956599999999526-1.212900000000445,3.640199999999822-1.212900000000445,1.682099999999991,0,2.895500000000538.404300000001967,3.64010000000053,1.212900000000445.743199999998978.809999999999491,1.116199999998571,1.861300000000483,1.116199999998571,3.155300000000352v1.261699999999109c0,1.295400000000882-.372999999999593,2.346199999999953-1.116199999998571,3.155300000002171-.744599999999991.809499999999389-1.958000000000538,1.212799999997515-3.64010000000053,1.212799999997515ZM266.263700000001336,492.5604000000003h7.765599999998813v50.088399999998728h-7.765599999998813v-50.088399999998728Z"/><path class="uuid-8425c5a9-af3d-44df-91bd-051d95dab929" d="M309.363300000000891,543.813899999999194c-3.430700000000797,0-6.520500000000538-.615799999999581-9.270500000000538-1.844299999998839-2.751000000000204-1.228000000000975-5.11279999999897-2.992599999999584-7.085999999999331-5.290500000000975-1.975100000001476-2.295900000000984-3.494599999999991-5.04739999999947-4.5625-8.251000000000204-1.067800000000716-3.203099999998813-1.601500000000669-6.810499999999593-1.601500000000669-10.823199999998906,0-3.94629999999961.533699999999953-7.538100000001577,1.601500000000669-10.775400000002264,1.067900000000009-3.234399999997549,2.587399999998524-6.001999999998588,4.5625-8.299299999998766,1.973200000000361-2.296399999999267,4.334999999999127-4.060099999998783,7.085999999999331-5.290600000000268,2.75-1.228500000001077,5.839799999999741-1.843699999999444,9.270500000000538-1.843699999999444,3.364199999999983,0,6.372999999999593.612299999998868,9.027299999999741,1.837900000000445,2.653299999999945,1.225599999997939,4.917499999999563,2.91990000000078,6.79490000000078,5.079600000000937,1.876500000000306,2.159599999999045,3.315999999998894,4.723099999999249,4.319900000000416,7.689899999997579,1.002399999999398,2.966800000001967,1.504899999999907,6.223200000000361,1.504899999999907,9.769100000001345v3.677199999998265h-36.013700000001336v2.329100000002654c0,2.135800000000017.339799999999741,4.125499999998283,1.019500000000335,5.97019999999975.679200000000492,1.844299999998839,1.649900000000343,3.445799999997689,2.912099999999555,4.804699999998775,1.261700000000928,1.358900000001086,2.815000000000509,2.426799999999275,4.659200000000055,3.203599999998914,1.844199999999546.776400000002468,3.931599999999889,1.164600000000064,6.261200000000827,1.164600000000064,3.170000000000073,0,5.936599999999089-.743199999998978,8.299299999998766-2.232399999998961,2.361899999999878-1.487800000000789,4.189500000000407-3.623600000000806,5.484900000001289-6.406799999998839l5.533199999999852,4.00539999999819c-1.618599999999788,3.45260000000053-4.14259999999922,6.2358000000022-7.571799999999712,8.351600000001781-3.431099999999788,2.115699999998469-7.507800000001225,3.174299999998766-12.230900000000474,3.174299999998766ZM309.363300000000891,497.89929999999913c-2.135800000000017,0-4.077199999999721.370100000000093-5.824199999999109,1.110400000001391-1.747600000000602.740699999998469-3.252000000000407,1.785099999997328-4.513700000001336,3.135199999998804-1.262199999999211,1.349599999999555-2.249499999999898,2.942399999999907-2.960900000000038,4.774400000000242-.712899999998626,1.83350000000064-1.067900000000009,3.843300000000454-1.067900000000009,6.030299999998533v.674800000000687h27.665500000000975v-1.061499999999796c0-4.4375-1.213400000000547-7.989799999999377-3.64010000000053-10.659199999998236-2.426800000001094-2.668900000000576-5.647000000000844-4.004400000001624-9.658699999999953-4.004400000001624Z"/><path class="uuid-8425c5a9-af3d-44df-91bd-051d95dab929" d="M354.889200000001438,542.648799999999028c-2.717800000000352,0-4.773000000001048-.757799999999406-6.164100000001781-2.274400000000242-1.392099999999118-1.517100000000937-2.086899999998423-3.503899999999703-2.086899999998423-5.957999999998719v-34.963900000000649h-8.251000000000204v-6.892099999999118h4.659200000000055c1.682099999999991,0,2.830599999999322-.33980000000156,3.44629999999961-1.019500000002154.614199999999983-.679199999998673.921800000000076-1.858899999999267.921800000000076-3.542499999999563v-9.319299999999203h6.989299999999275v13.88130000000092h10.969200000001365v6.892099999999118h-10.969200000001365v36.304699999998775h10.192399999999907v6.891600000000835h-9.706999999998516Z"/><path class="uuid-8425c5a9-af3d-44df-91bd-051d95dab929" d="M408.763200000001234,492.5604000000003h7.668900000000576l-22.423300000000381,61.73739999999998c-.582500000000437,1.487699999999677-1.165100000000166,2.732899999999063-1.747600000000602,3.736799999998766-.582000000000335,1.002900000001318-1.29490000000078,1.796400000001086-2.135200000000623,2.37840000000142-.841799999998329.582499999998618-1.893099999999322,1.003399999999601-3.15480000000025,1.262199999999211-1.262199999999211.257799999999406-2.799799999998868.388199999999415-4.610799999998562.388199999999415h-3.979999999999563v-6.892099999999118h7.86279999999897l3.785599999999249-10.66110000000117-18.73489999999947-51.949799999998504h7.765699999999924l12.037099999999555,34.006399999998393,2.329600000000937,8.139200000001438h.485300000000279l2.717800000000352-8.139200000001438,12.13379999999961-34.006399999998393Z"/><path class="uuid-8425c5a9-af3d-44df-91bd-051d95dab929" d="M124.502942187500594,637.561496874999648l-2.416015625-7.677734375h-10.6982421875l-2.3720703125,7.677734375h-5.7802734375l10.09375-30.109375h7.07421875l10.0078125,30.109375h-5.9091796875ZM116.824231250000594,612.628879687499648h-.21484375l-3.83984375,12.3798828125h7.9375l-3.8828125-12.3798828125Z"/><path class="uuid-8425c5a9-af3d-44df-91bd-051d95dab929" d="M134.509778125000594,637.561496874999648v-22.5166015625h5.521484375v4.658203125h.2158203125c.5615234375-2.3720703125,2.3720703125-4.658203125,5.953125-4.658203125h1.2080078125v5.21875h-1.7265625c-3.708984375,0-5.650390625,1.03515625-5.650390625,3.494140625v13.8037109375h-5.521484375Z"/><path class="uuid-8425c5a9-af3d-44df-91bd-051d95dab929" d="M152.841809375000594,631.824192187499648v-12.3798828125h-3.3203125v-4.3994140625h1.724609375c1.638671875,0,2.1572265625-.77734375,2.1572265625-2.330078125v-3.8388671875h4.9599609375v6.1689453125h4.6162109375v4.3994140625h-4.6162109375v13.7177734375h4.271484375v4.3994140625h-3.96875c-3.796875,0-5.82421875-2.0703125-5.82421875-5.7373046875Z"/><path class="uuid-8425c5a9-af3d-44df-91bd-051d95dab929" d="M165.826184375000594,633.938449999999648l3.365234375-3.2783203125c1.638671875,1.8974609375,3.623046875,3.0625,6.16796875,3.0625,2.630859375,0,3.7529296875-.9921875,3.7529296875-2.587890625,0-1.294921875-.7763671875-2.1142578125-2.7607421875-2.373046875l-2.2431640625-.3017578125c-4.8310546875-.603515625-7.505859375-2.7177734375-7.505859375-6.8154296875,0-4.357421875,3.4072265625-7.1181640625,8.541015625-7.1181640625,4.3994140625,0,6.6435546875,1.294921875,8.7998046875,3.5380859375l-3.234375,3.234375c-1.294921875-1.3798828125-3.193359375-2.4150390625-5.392578125-2.4150390625-2.373046875,0-3.408203125.94921875-3.408203125,2.3291015625,0,1.509765625.8203125,2.2001953125,2.93359375,2.544921875l2.2861328125.3017578125c4.9169921875.6904296875,7.2900390625,2.890625,7.2900390625,6.6435546875,0,4.3564453125-3.666015625,7.3759765625-9.2744140625,7.3759765625-4.2705078125,0-7.07421875-1.552734375-9.3173828125-4.140625Z"/><path class="uuid-8425c5a9-af3d-44df-91bd-051d95dab929" d="M218.451184375000594,637.561496874999648l-2.416015625-7.677734375h-10.697265625l-2.373046875,7.677734375h-5.779296875l10.09375-30.109375h7.07421875l10.0078125,30.109375h-5.91015625ZM210.773450000000594,612.628879687499648h-.2158203125l-3.8388671875,12.3798828125h7.9365234375l-3.8818359375-12.3798828125Z"/><path class="uuid-8425c5a9-af3d-44df-91bd-051d95dab929" d="M226.517590625000594,633.938449999999648l3.365234375-3.2783203125c1.638671875,1.8974609375,3.623046875,3.0625,6.16796875,3.0625,2.630859375,0,3.7529296875-.9921875,3.7529296875-2.587890625,0-1.294921875-.7763671875-2.1142578125-2.7607421875-2.373046875l-2.2431640625-.3017578125c-4.8310546875-.603515625-7.505859375-2.7177734375-7.505859375-6.8154296875,0-4.357421875,3.4072265625-7.1181640625,8.541015625-7.1181640625,4.3994140625,0,6.6435546875,1.294921875,8.7998046875,3.5380859375l-3.234375,3.234375c-1.294921875-1.3798828125-3.193359375-2.4150390625-5.392578125-2.4150390625-2.373046875,0-3.408203125.94921875-3.408203125,2.3291015625,0,1.509765625.8203125,2.2001953125,2.93359375,2.544921875l2.2861328125.3017578125c4.9169921875.6904296875,7.2900390625,2.890625,7.2900390625,6.6435546875,0,4.3564453125-3.666015625,7.3759765625-9.2744140625,7.3759765625-4.2705078125,0-7.07421875-1.552734375-9.3173828125-4.140625Z"/><path class="uuid-8425c5a9-af3d-44df-91bd-051d95dab929" d="M247.740246875000594,633.938449999999648l3.365234375-3.2783203125c1.638671875,1.8974609375,3.623046875,3.0625,6.16796875,3.0625,2.6318359375,0,3.75390625-.9921875,3.75390625-2.587890625,0-1.294921875-.77734375-2.1142578125-2.76171875-2.373046875l-2.2421875-.3017578125c-4.83203125-.603515625-7.505859375-2.7177734375-7.505859375-6.8154296875,0-4.357421875,3.4072265625-7.1181640625,8.541015625-7.1181640625,4.3994140625,0,6.642578125,1.294921875,8.798828125,3.5380859375l-3.234375,3.234375c-1.294921875-1.3798828125-3.1923828125-2.4150390625-5.392578125-2.4150390625-2.3720703125,0-3.408203125.94921875-3.408203125,2.3291015625,0,1.509765625.8203125,2.2001953125,2.93359375,2.544921875l2.287109375.3017578125c4.9169921875.6904296875,7.2890625,2.890625,7.2890625,6.6435546875,0,4.3564453125-3.666015625,7.3759765625-9.2734375,7.3759765625-4.271484375,0-7.07421875-1.552734375-9.318359375-4.140625Z"/><path class="uuid-8425c5a9-af3d-44df-91bd-051d95dab929" d="M269.696301562500594,626.259739062499648c0-7.203125,4.01171875-11.7333984375,10.439453125-11.7333984375,6.4697265625,0,10.4814453125,4.5302734375,10.4814453125,11.7333984375,0,7.2470703125-4.01171875,11.8193359375-10.4814453125,11.8193359375-6.427734375,0-10.439453125-4.572265625-10.439453125-11.8193359375ZM284.837903125000594,628.373996874999648v-4.1845703125c0-3.3642578125-1.8125-5.2197265625-4.7021484375-5.2197265625-2.8466796875,0-4.6591796875,1.85546875-4.6591796875,5.2197265625v4.1845703125c0,3.4072265625,1.8125,5.2626953125,4.6591796875,5.2626953125,2.8896484375,0,4.7021484375-1.85546875,4.7021484375-5.2626953125Z"/><path class="uuid-8425c5a9-af3d-44df-91bd-051d95dab929" d="M293.981457812500594,626.259739062499648c0-7.203125,3.7529296875-11.7333984375,10.3955078125-11.7333984375,4.529296875,0,7.505859375,2.1572265625,8.84375,5.6943359375l-4.529296875,2.02734375c-.517578125-1.8974609375-1.94140625-3.2783203125-4.314453125-3.2783203125-3.0625,0-4.615234375,2.1572265625-4.615234375,5.3056640625v4.0986328125c0,3.1484375,1.552734375,5.2626953125,4.615234375,5.2626953125,2.6318359375,0,3.92578125-1.509765625,4.74609375-3.537109375l4.2265625,2.02734375c-1.466796875,3.9677734375-4.615234375,5.9521484375-8.97265625,5.9521484375-6.642578125,0-10.3955078125-4.572265625-10.3955078125-11.8193359375Z"/><path class="uuid-8425c5a9-af3d-44df-91bd-051d95dab929" d="M317.144543750000594,609.004856249999648v-.8623046875c0-1.595703125.94921875-2.7607421875,3.2353515625-2.7607421875,2.2431640625,0,3.2353515625,1.1650390625,3.2353515625,2.7607421875v.8623046875c0,1.5966796875-.9921875,2.7607421875-3.2353515625,2.7607421875-2.2861328125,0-3.2353515625-1.1640625-3.2353515625-2.7607421875ZM317.619153125000594,615.044895312499648h5.521484375v22.5166015625h-5.521484375v-22.5166015625Z"/><path class="uuid-8425c5a9-af3d-44df-91bd-051d95dab929" d="M327.927746875000594,631.436496874999648c0-4.6162109375,3.494140625-6.90234375,9.619140625-6.90234375h3.83984375v-1.638671875c0-2.501953125-1.2509765625-3.96875-4.18359375-3.96875-2.5888671875,0-4.0556640625,1.2939453125-5.1337890625,2.8466796875l-3.2783203125-2.9326171875c1.638671875-2.5888671875,4.2705078125-4.314453125,8.7998046875-4.314453125,6.08203125,0,9.3173828125,2.890625,9.3173828125,8.0234375v10.6123046875h2.2431640625v4.3994140625h-3.0634765625c-2.37109375,0-3.837890625-1.552734375-4.18359375-3.8818359375h-.2587890625c-.7333984375,2.8896484375-3.1923828125,4.3994140625-6.556640625,4.3994140625-4.5732421875,0-7.1611328125-2.630859375-7.1611328125-6.642578125ZM341.386731250000594,630.832004687499648v-2.9755859375h-3.537109375c-2.890625,0-4.314453125.9921875-4.314453125,2.7607421875v.732421875c0,1.8125,1.251953125,2.7177734375,3.408203125,2.7177734375,2.458984375,0,4.443359375-1.12109375,4.443359375-3.2353515625Z"/><path class="uuid-8425c5a9-af3d-44df-91bd-051d95dab929" d="M354.671887500000594,631.824192187499648v-12.3798828125h-3.3203125v-4.3994140625h1.724609375c1.638671875,0,2.1572265625-.77734375,2.1572265625-2.330078125v-3.8388671875h4.9599609375v6.1689453125h4.6162109375v4.3994140625h-4.6162109375v13.7177734375h4.271484375v4.3994140625h-3.96875c-3.796875,0-5.82421875-2.0703125-5.82421875-5.7373046875Z"/><path class="uuid-8425c5a9-af3d-44df-91bd-051d95dab929" d="M369.123059375000594,609.004856249999648v-.8623046875c0-1.595703125.94921875-2.7607421875,3.234375-2.7607421875,2.244140625,0,3.236328125,1.1650390625,3.236328125,2.7607421875v.8623046875c0,1.5966796875-.9921875,2.7607421875-3.236328125,2.7607421875-2.28515625,0-3.234375-1.1640625-3.234375-2.7607421875ZM369.597668750000594,615.044895312499648h5.521484375v22.5166015625h-5.521484375v-22.5166015625Z"/><path class="uuid-8425c5a9-af3d-44df-91bd-051d95dab929" d="M379.992200000000594,626.259739062499648c0-7.203125,4.01171875-11.7333984375,10.439453125-11.7333984375,6.470703125,0,10.482421875,4.5302734375,10.482421875,11.7333984375,0,7.2470703125-4.01171875,11.8193359375-10.482421875,11.8193359375-6.427734375,0-10.439453125-4.572265625-10.439453125-11.8193359375ZM395.132825000000594,628.373996874999648v-4.1845703125c0-3.3642578125-1.810546875-5.2197265625-4.701171875-5.2197265625-2.84765625,0-4.6591796875,1.85546875-4.6591796875,5.2197265625v4.1845703125c0,3.4072265625,1.8115234375,5.2626953125,4.6591796875,5.2626953125,2.890625,0,4.701171875-1.85546875,4.701171875-5.2626953125Z"/><path class="uuid-8425c5a9-af3d-44df-91bd-051d95dab929" d="M405.787121875000594,637.561496874999648v-22.5166015625h5.521484375v3.751953125h.2158203125c.9052734375-2.4150390625,2.8037109375-4.2705078125,6.2978515625-4.2705078125,4.615234375,0,7.2041015625,3.1923828125,7.2041015625,8.80078125v14.234375h-5.521484375v-13.673828125c0-3.1923828125-1.0791015625-4.8310546875-3.7099609375-4.8310546875-2.2861328125,0-4.486328125,1.20703125-4.486328125,3.623046875v14.8818359375h-5.521484375Z"/></g></svg>