<?xml version="1.0" encoding="UTF-8"?><svg id="uuid-fa1e4155-5b70-4b42-84cb-4cafe2d4aeb2" xmlns="http://www.w3.org/2000/svg" width="1020.931644209908768mm" height="249.785254304157434mm" xmlns:xlink="http://www.w3.org/1999/xlink" viewBox="0 0 2893.97950736531493 708.052700000000186"><defs><style>.uuid-92d6529d-40e7-4435-b223-3ccc40f01cd0{fill:#00c2f3;}.uuid-95b2c875-7ef6-4541-b9fd-5aeeaecb2933{fill:#fff;}.uuid-4838706a-fb56-4ae7-b236-d1d68f812b6f{fill:none;}.uuid-afd5da73-c43d-4aeb-8b09-6baae10f3fcc{fill:#333e48;}.uuid-b550e47a-ac86-4b30-b98d-30ec8bc5d391{clip-path:url(#uuid-de9a85a8-b6d6-4daa-a370-6cb4627ededc);}</style><clipPath id="uuid-de9a85a8-b6d6-4daa-a370-6cb4627ededc"><rect class="uuid-4838706a-fb56-4ae7-b236-d1d68f812b6f" x=".000899999979993" width="2893.978607365334938" height="708.052700000000186"/></clipPath></defs><g class="uuid-b550e47a-ac86-4b30-b98d-30ec8bc5d391"><path class="uuid-95b2c875-7ef6-4541-b9fd-5aeeaecb2933" d="M1093.708007365319645,271.570300000001225c-9.10550000000967,21.527299999999741-14.519599999999627,44.144499999999425-16.16989999999987,67.42279999999937,3.587800000000243-2.91989999999987,8.158200000000761-4.677699999999277,13.136699999990014-4.677699999999277,5.494100000000799,0,10.488300000009986,2.152299999999741,14.216800000010153,5.635699999998906,7.337899999989531-95.590799999999945,87.222600000000057-170.868099999999686,184.695300000000316-170.868099999999686,7.552699999999277,0,13.675799999999981-6.123099999999795,13.675799999999981-13.674799999999777,0-7.552800000000389-6.123100000000704-13.675799999999981-13.675799999999981-13.675799999999981-28.687500000000909,0-56.533200000009856,5.625-82.763700000000426,16.718699999999444-25.316399999999703,10.709000000000742-48.050799999999981,26.03230000000076-67.564399999999296,45.548899999999776-19.519600000000537,19.515600000000632-34.84380000001056,42.25-45.550800000000891,67.570300000001225Z"/><path class="uuid-95b2c875-7ef6-4541-b9fd-5aeeaecb2933" d="M1274.448207365319831,538.959900000000744c-94.953099999999722-7.682600000000093-169.66800000000967-86.961900000000242-170.097600000000057-183.791000000000167,0-7.552700000000186-6.121100000010301-13.677700000000186-13.675800000009986-13.677700000000186-7.552799999989475,0-13.675799999989977,6.125-13.675799999989977,13.677700000000186.109399999990273,28.39260000000013,5.722599999990052,55.951199999999517,16.708999999999833,81.922899999999572,10.70699999999033,25.319300000001022,26.031200000000354,48.05370000000039,45.550800000000891,67.568300000000818,19.513599999999315,19.51759999999922,42.247999999999593,34.841800000000148,67.564399999999296,45.550799999999072,21.255900000000111,8.989300000001094,43.572299999999814,14.385700000000725,66.539099999989958,16.110300000000279-2.886699999990014-3.578099999999722-4.626999999999498-8.120999999999185-4.626999999999498-13.067299999999705,0-5.533199999999852,2.183599999999387-10.556700000000092,5.71290000000954-14.293999999999869Z"/><path class="uuid-95b2c875-7ef6-4541-b9fd-5aeeaecb2933" d="M1437.784107365309865,487.403300000000854c-2.669899999989866-2.66989999999987-6.169899999989866-4.004900000000816-9.667899999999463-4.004900000000816-3.4980999999907,0-7,1.335000000000946-9.671899999990273,4.004900000000816-33.341800000010153,32.291000000000167-78.773400000010042,52.176699999999983-128.85739999999987,52.176699999999983-7.552800000010393,0-13.675800000009986,6.123099999999795-13.675800000009986,13.673899999999776,0,7.552700000000186,6.122999999999593,13.675700000000688,13.675800000009986,13.675700000000688,28.689399999989291,0,56.535100000000057-5.625,82.761699999990014-16.718700000001263,24.408200000009856-10.320299999999406,46.40040000000954-24.947299999999814,65.435499999999593-43.465799999999945,5.34380000001056-5.341799999999239,5.34380000001056-14,0-19.341799999999239Z"/><path class="uuid-95b2c875-7ef6-4541-b9fd-5aeeaecb2933" d="M1289.586907365320258,566.929600000001301c-7.552800000010393,0-13.675800000009986-6.123000000000502-13.675800000009986-13.675700000000688,0-7.550799999999981,6.122999999999593-13.673899999999776,13.675800000009986-13.673899999999776,50.083999999989828,0,95.515599999989718-19.885699999999815,128.85739999999987-52.176699999999983,2.671899999990273-2.66989999999987,6.173799999999574-4.004900000000816,9.671899999990273-4.004900000000816,3.498000000009597,0,6.998000000009597,1.335000000000946,9.667899999999463,4.004900000000816,5.34380000001056,5.341799999999239,5.34380000001056,14,0,19.341799999999239-19.035099999990052,18.518500000000131-41.027299999989737,33.145500000000538-65.435499999999593,43.465799999999945-26.226599999989958,11.093700000001263-54.072300000000723,16.718700000001263-82.761699999990014,16.718700000001263ZM1206.823207365319831,550.210900000000038c-25.316399999999703-10.708999999998923-48.050799999999981-26.033199999999852-67.564399999999296-45.550799999999072-19.519600000000537-19.514600000000428-34.84380000001056-42.248999999999796-45.550800000000891-67.568300000000818-10.98640000000978-25.971700000000055-16.599600000009559-53.530299999999443-16.708999999999833-81.922899999999572,0-7.552700000000186,6.123000000000502-13.677700000000186,13.675799999989977-13.677700000000186,7.554699999999684,0,13.675800000009986,6.125,13.675800000009986,13.677700000000186.429599999990387,96.829099999999926,75.144500000000335,176.108400000000074,170.097600000000057,183.791000000000167-3.529300000010153,3.737299999999777-5.71290000000954,8.760800000000017-5.71290000000954,14.293999999999869,0,4.94630000000052,1.740300000009483,9.489199999999983,4.626999999999498,13.067299999999705-22.966799999990144-1.724599999999555-45.283199999989847-7.120999999999185-66.539099999989958-16.110300000000279ZM1289.586907365320258,141.73240000000078c7.552699999999277,0,13.675799999999981,6.122999999999593,13.675799999999981,13.675799999999981,0,7.551699999999983-6.123100000000704,13.674799999999777-13.675799999999981,13.674799999999777-97.472700000000259,0-177.357400000010784,75.277299999999741-184.695300000000316,170.868099999999686-3.728500000000167-3.483399999999165-8.722700000009354-5.635699999998906-14.216800000010153-5.635699999998906-4.978499999989253,0-9.548899999989771,1.757799999999406-13.136699999990014,4.677699999999277,1.650300000000243-23.278299999999945,7.064399999990201-45.895499999999629,16.16989999999987-67.42279999999937,10.70699999999033-25.320300000001225,26.031200000000354-48.054700000000594,45.550800000000891-67.570300000001225,19.513599999999315-19.516599999999016,42.247999999999593-34.839899999999034,67.564399999999296-45.548899999999776,26.23049999999057-11.093699999999444,54.076199999999517-16.718699999999444,82.763700000000426-16.718699999999444Z"/><path class="uuid-95b2c875-7ef6-4541-b9fd-5aeeaecb2933" d="M1402.170907365310086,241.748000000000502c-30.070299999990311-30.07130000000052-70.052799999990384-46.629899999999907-112.583999999989828-46.629899999999907-42.525400000000445,0-82.509800000000723,16.558599999999387-112.58010000000013,46.629899999999907-30.072299999999814,30.073199999999815-46.636700000000019,70.056600000000799-46.636700000000019,112.583999999999833,0,42.528299999999945,16.564400000000205,82.507800000000316,46.636700000000019,112.582000000000335,30.070299999999406,30.070299999999406,70.054699999999684,46.63379999999961,112.58010000000013,46.63379999999961,42.531199999999444,0,82.513699999999517-16.563500000000204,112.583999999989828-46.63379999999961,30.072200000009616-30.074200000000019,46.630800000009913-70.05370000000039,46.630800000009913-112.582000000000335,0-42.527399999999034-16.558600000000297-82.510800000000017-46.630800000009913-112.583999999999833Z"/><path class="uuid-afd5da73-c43d-4aeb-8b09-6baae10f3fcc" d="M1177.379807365319721,405.820300000001225v-102.976599999999962h22.332099999999627v7.613299999999072h-12.943399999999201v87.751000000000204h12.943399999999201v7.612300000000687h-22.332099999999627Z"/><path class="uuid-afd5da73-c43d-4aeb-8b09-6baae10f3fcc" d="M1401.795907365310086,302.843700000001263v102.976599999999962h-22.328199999999924v-7.612300000000687h12.9375v-87.751000000000204h-12.9375v-7.613299999999072h22.328199999999924Z"/><path class="uuid-92d6529d-40e7-4435-b223-3ccc40f01cd0" d="M1229.249007365319812,375.25c0,2.058600000000297.033199999989847,4.484300000000076.095699999989847,7.27140000000054.0625,2.790100000000166.15040000001045,5.625.259799999999814,8.498099999999795.105400000010377,2.873000000000502.234300000000076,5.620100000000093.386700000000928,8.237300000000687.146500000009837,2.618199999998978.330100000010134,4.805699999998978.544899999998961,6.563500000000204h-13.193399999999201v-72.729500000000371c0-6.263700000000426-.10739999999987-11.9375-.322199999990517-17.020499999999629-.212899999999536-5.086900000000242-.535200000009354-9.496100000000297-.966800000009243-13.226599999999962h13.195300000009411v72.406299999998737Z"/><path class="uuid-92d6529d-40e7-4435-b223-3ccc40f01cd0" d="M1286.854507365309473,340.171800000000076v8.433600000000297h-12.099699999989753v48.784200000000055h12.099699999989753v8.431599999999889h-36.041099999989456v-8.431599999999889h11.906299999989642v-48.784200000000055h-11.906299999989642v-8.433600000000297h36.041099999989456Z"/><path class="uuid-92d6529d-40e7-4435-b223-3ccc40f01cd0" d="M1313.887707365320239,340.171800000000076c.255799999999908.6875.51359999998931,1.576200000000426.771399999989626,2.673900000000685.259799999999814,1.09270000000015.492199999999684,2.239199999999983.709000000009837,3.440400000000409.21100000000024,1.201199999999517.404300000000148,2.382799999999406.58010000000013,3.540999999999258l.511700000000019,2.893600000000333c4.121100000000297-4.88970000000063,8.259799999989809-8.418000000000575,12.421900000000278-10.585000000000036,4.164099999989958-2.166999999999462,8.5-3.252000000000407,13.002000000000407-3.252000000000407,3.433499999999185,0,6.470699999988938.569400000000314,9.107399999989866,1.706100000000333,2.638600000009319,1.13970000000063,4.859400000009373,2.941400000000613,6.662100000009559,5.406299999999646,1.800799999999981,2.468700000000354,3.162100000000464,5.666900000000169,4.087899999990441,9.591800000000148.921900000009373,3.925699999999779,1.382800000009411,8.654200000000856,1.382800000009411,14.193300000000818v28.957999999998719c0,7.252900000001318-.634799999999814,13.27350000000115-1.90040000000954,18.054700000000594-1.263699999990422,4.787099999999555-3.03709999999046,8.604499999999462-5.308600000000297,11.460900000000038-2.273399999990033,2.849700000000666-5.009799999999814,4.868199999999888-8.205099999990125,6.045900000000074-3.197199999999611,1.181700000000092-6.747999999999593,1.771499999999833-10.652299999999741,1.771499999999833-1.931700000000092,0-4.002000000000407-.3125-6.211000000010245-.933600000000297-2.208899999989626-.623999999999796-4.214799999989737-1.490200000000186-6.017499999989923-2.606399999999667l4.183600000000297-9.654299999999239c.986299999999574.729499999999462,2.304599999999482,1.339799999999741,3.958899999989626,1.835899999999128,1.65040000001045.49120000000039,3.336000000010245.737299999999777,5.04890000000978.737299999999777,2.0625,0,3.908199999990757-.331000000000131,5.539000000000669-.996099999999387,1.630900000000111-.664999999999964,3.011800000000221-1.832999999999629,4.150399999999536-3.506800000000112,1.136699999990014-1.674800000000687,2.005900000000111-3.969699999999648,2.60739999999987-6.887700000000223.599699999989753-2.918899999999667.900399999990441-6.629899999999907.900399999990441-11.134799999999814v-28.319300000000112c0-5.149400000000242-.267499999989923-9.323199999999815-.804599999990387-12.518500000000131-.53519999999935-3.197299999999814-1.343799999999646-5.6875-2.41609999999946-7.465899999999237-1.070300000000316-1.780200000001059-2.412100000000464-2.970699999999852-4.023400000010042-3.574200000000928-1.60549999999057-.597599999999147-3.484399999990273-.899400000000242-5.628900000000613-.899400000000242-2.316399999989699,0-4.578099999989718.547800000000279-6.789099999989958,1.643600000001243-2.209000000009837,1.091699999999037-4.240199999999277,2.508699999999408-6.085900000010042,4.245999999999185-1.843799999989642,1.735399999999572-3.47459999998955,3.698300000000017-4.888699999989512,5.887700000000223-1.416000000010172,2.189499999999498-2.468700000010358,4.375999999999294-3.156200000010358,6.564499999999498v37.331000000000131h-11.906299999989642v-39.582999999999629c0-6.349600000000464-.365200000000186-11.72360000000026-1.095699999999852-16.122000000000298-.72649999999976-4.398499999999331-1.437500000010004-7.712899999999536-2.123000000010506-9.944400000000314h11.58790000001045Z"/><path class="uuid-95b2c875-7ef6-4541-b9fd-5aeeaecb2933" d="M196.727496681110097,379.625900000000911h-54.992198610780179v-9.128899999999703h54.992198610780179v9.128899999999703ZM189.571196861899807,476.832500000000437h-9.421289496589452v-10.005900000000111h-21.983000000000175v10.005900000000111h-9.566809468400606v-49.370600000000195h40.971098964990233v49.370600000000195ZM189.132796872970175,398.468700000001263l-40.386798979739979.145499999998719v-9.127899999999499h40.386798979739979v8.98240000000078ZM189.278796869280086,417.603000000000975h-40.532798976049889v-9.129899999999907h40.532798976049889v9.129899999999907ZM187.453096915400238,361.076600000000326l-37.100099062770823.145500000000538v-9.127900000000409h37.100099062770823v8.98239999999987ZM180.149907365310355,457.842700000001059v-21.396899999999732h-22.128509706401019v21.396899999999732h22.128509706401019ZM274.50679471624062,417.749000000000706l-78.947298005620723.145999999999731v-8.98239999999987h19.572299505560295l4.236299892979332-22.566399999999703h-18.257799538769177v-8.983900000000176h19.718799501859394l3.140599920670866-16.724099999999453h-27.97169929338088v-9.129000000000815h72.520498167979895v8.983400000000074h-34.690399123649513l-2.994201575230363,16.724699999999757h30.08890089075976l-3.140599920659952,31.547800000000279h16.724599577501067v8.983900000000176ZM261.799795037250078,477.124500000000808h-9.421901412850275v-9.85990000000038h-36.953097415619595v9.85990000000038h-9.568399758280066v-49.516099999999824h55.943398586749936v49.516099999999824ZM252.377893624399803,458.280700000001161v-21.689900000000307h-37.099597411919603v21.689900000000307h37.099597411919603ZM250.91690736531018,386.19970000000103h-21.68941150522005l-4.236299892980242,22.712899999999536h23.662099402250533l2.263611995949759-22.712899999999536Z"/><path class="uuid-95b2c875-7ef6-4541-b9fd-5aeeaecb2933" d="M439.178690556280344,379.625900000000911h-132.771496645909792v-9.128899999999703h132.771496645909792v9.128899999999703ZM419.606391050720049,398.322200000000521h-94.94139760158032v-8.835900000000038h94.94139760158032v8.835900000000038ZM419.606391050720049,417.311000000000604h-94.94139760158032v-8.837899999999536h94.94139760158032v8.837899999999536ZM416.174791137409557,477.124500000000808h-9.421901412849365v-10.297900000000482h-68.503896618580256v10.297900000000482h-9.420899762009867v-49.662600000000566h87.346697793439489v49.662600000000566ZM416.028291141110458,360.127400000001217l-86.47069781557002.218799999999646v-8.837000000000444h86.47069781557002v8.618200000000797ZM406.752889724560191,457.842700000001059v-21.396899999999732h-68.503896618580256v21.396899999999732h68.503896618580256Z"/><path class="uuid-95b2c875-7ef6-4541-b9fd-5aeeaecb2933" d="M603.852486396270251,450.687000000000808h-58.790998514810781v10.150899999999638c0,10.856400000000576-5.76958051614929,16.286600000000362-17.310601213569498,16.286600000000362h-9.712898103759471l-3.578081198810651-8.983400000000074h13.583979295170138c4.77150153033017,0,7.158201470039785-2.191899999999805,7.158201470039785-6.572799999999916v-10.88130000000001h-64.122998380119498v-9.129900000000816h64.122998380119498v-6.280799999998635c10.173798092119796-3.797300000000178,17.453099559090333-7.350100000000566,21.835899448370583-10.662100000001374h-55.943298586749734v-8.399899999999434h72.158196526259417v7.961900000000242c-7.59769815718937,5.161199999999553-16.994197919820181,10.442900000000009-28.191397636950569,15.847199999999248v1.533699999999953h58.790998514810781v9.129900000000816ZM597.717686551250154,423.590800000000854h-8.7655997785605v-15.117699999999786h-102.023397422679409v15.995100000000093h-9.568399758280066v-24.538100000000668h12.560598031829613v-44.550699999999779c6.912101476250427-.68119999999999,14.486301284910041-3.968299999999545,22.714801077040647-9.858400000000074l4.82029987822898,6.718699999999444c-4.433599887999662,4.089400000000751-10.470699735489688,7.182099999999991-18.113299542419554,9.274900000000343v6.134799999999814h18.695299527720636v7.595699999999852h-18.695299527720636v7.959900000000744h18.695299527720636v7.44879999999921h-18.695299527720636v9.276300000000447h77.632798038830515v-9.276300000000447h-17.820299549820447v-7.30369999999948h17.820299549820447v-8.543999999999869h-17.673799553520439v-7.448699999999917h17.673799553520439v-7.960500000000138h-20.667899477880383v-8.837399999999434h29.943297592700219v49.224199999999655h11.466801361189937v23.807099999999991ZM556.307587597359998,366.919400000000678l-5.111399870879723,6.280300000000352c-2.777301580710628-2.676800000000185-6.550699834520856-5.57470000000103-11.320301364890838-8.690500000000611-3.943298249520012,3.311100000000806-8.374999788429704,6.353100000000268-13.29289801332925,9.129000000000815l-5.988299848720089-5.25880000000052c4.722599880699818-1.947300000000723,8.859399776190003-4.235900000000584,12.415999686340001-6.864800000000287-5.941399849899426-2.238799999999173-10.736299728770064-3.797300000000178-14.388699636509955-4.673300000000381l3.726599905859985-6.72019999999975c5.402298212659844,1.363199999999779,10.831999726359754,3.117200000000594,16.285099588609228,5.258300000000418,3.457099912660851-3.260299999999916,6.353599839490926-6.595699999999852,8.691499780430604-10.005400000000009l6.13471954104989,4.893500000000131c-1.949219646779966,3.019100000000435-4.480519582840316,5.964899999999943-7.595719504140106,8.837499999999636,3.601599909010474,2.043399999999565,7.083999821040379,4.64890000000014,10.443399736180254,7.814400000000205ZM557.182587575250182,393.501900000001115l-6.132799845069712,4.820299999999406c-3.943399900380427-3.018000000000029-8.03519979702105-5.524900000000343-12.269599690051109-7.520999999999731-2.628899933579305,1.996099999999387-7.302699815509186,4.502999999999702-14.021499645779841,7.520999999999731l-5.550699859779343-4.381799999999203c6.279299841369721-2.968300000000454,10.783199727589817-5.551300000000992,13.511699658669386-7.740700000000288-2.728499931079568-1.703100000000632-6.865299826569753-3.603000000000975-12.415999686349096-5.697799999999916l5.476499861650154-4.599600000000464c5.013698222479434,1.802300000000287,9.298899765090027,3.676300000000083,12.853499675298735,5.622099999999591,1.361399965600867-.777399999999034,4.113299896080207-3.113799999999173,8.251999791530579-7.011199999999008l6.718699830270452,3.433099999999286c-2.482399937290211,3.214300000000549-5.255799867220048,5.868600000000697-8.324199789710292,7.96140000000014,4.040999897920301,1.850100000000566,8.007799797710504,4.38130000000001,11.902399699320085,7.594200000000455Z"/><path class="uuid-95b2c875-7ef6-4541-b9fd-5aeeaecb2933" d="M768.377907365320425,450.687000000000808h-58.791000000001077v10.150899999999638c0,10.856400000000576-5.769623494368716,16.286600000000362-17.308623202869057,16.286600000000362h-9.712899754640603l-3.578099909599587-8.983400000000074h13.583899656840003c4.769599879509769,0,7.15629981921029-2.191899999999805,7.15629981921029-6.572799999999916v-10.88130000000001h-64.12109838016022v-9.129900000000816h64.12109838016022v-6.280799999998635c10.175799742949494-3.797300000000178,17.453099559109432-7.350100000000566,21.837899448339158-10.662100000001374h-55.94339858675994v-8.399899999999434h72.156298177190365v7.961900000000242c-7.595699808120116,5.161199999999553-16.994199570700403,10.442900000000009-28.191375647710629,15.847199999999248v1.533699999999953h58.791000000001077v9.129900000000816ZM762.245082394940255,423.590800000000854h-8.767599778520889v-15.117699999999786h-102.023397422669404v15.995100000000093h-9.56639975832968v-24.538100000000668h12.560499682699628v-44.550699999999779c6.914099825330595-.68119999999999,14.484399634090551-3.968299999999545,22.712899426220247-9.858400000000074l4.820299878229889,6.718699999999444c-4.429699888100004,4.089400000000751-10.468699735540213,7.182099999999991-18.113299542419554,9.274900000000343v6.134799999999814h18.697299527659197v7.595699999999852h-18.697299527659197v7.959900000000744h18.697299527659197v7.44879999999921h-18.697299527659197v9.276300000000447h77.632822485169527v-9.276300000000447h-17.818323996209983v-7.30369999999948h17.818323996209983v-8.543999999999869h-17.673823999859451v-7.448699999999917h17.673823999859451v-7.960500000000138h-20.667923924229399v-8.837399999999434h29.943299243579531v49.224199999999655h11.468799710270105v23.807099999999991ZM723.434483375369382,391.86370000000079l-6.654299831889148,6.083999999999833c-3.037099923280039-4.563500000000204-7.382799813490237-10.276299999999537-11.585899707320095-13.824700000000121-6.533199834960215,7.279300000000148-11.906299699220654,11.912100000000464-16.105499593139939,13.893100000000231l-6.583999833670532-5.528299999999945c4.949299874970166-2.354499999999462,10.316399739380358-6.752000000000407,16.107499593090324-13.203199999999924-6.583999833679627-4.101500000000669-11.275376637120644-6.637200000000121-14.076199644409826-7.605900000000474l5.74409985489001-5.940399999999499c2.33399994104002.922300000000178,6.718799830269745,3.315899999999601,13.165999667399774,7.189899999999398,1.9160999516007-3.135699999999815,3.406299913949624-6.568400000000111,4.480499886809412-10.302299999999377h-21.990199444479003v-8.638100000000122h11.788999702190267v-8.896999999999935h7.566423340469555v8.896999999999935h13.992176114919857v8.638100000000122h-2.769499930040183c-1.554676184870004,5.718299999999545-3.646499907889847,10.671399999999267-6.275399841470062,14.862799999999879,5.089899871410125,3.870200000000295,9.97459974802041,9.767100000000028,13.195299666649589,14.375Z"/><path class="uuid-95b2c875-7ef6-4541-b9fd-5aeeaecb2933" d="M935.313407365320018,379.335400000000845l-5.257799999999406,7.594699999999648c-16.603500000001077-4.090299999999843-29.601500000000669-8.8128999999999-38.998000000000502-14.167899999999463v6.573199999999815h-49.371100000000297v-7.231899999999769c-14.216800000010153,7.352999999999156-26.972700000010263,12.149899999999434-38.269599999999627,14.388199999999415l-4.818300000010822-7.667999999999665c27.361300000010488-6.66990000000078,50.146500000010747-17.819800000000214,68.357400000010784-33.449700000000121l8.98239999999987,2.994599999999991c-.974600000010469,1.217299999999341-1.826100000010229,2.070300000000316-2.556599999999889,2.555199999999786,16.164099999989958,13.438500000000204,36.808600000000297,22.909200000000055,61.931599999999889,28.411600000000362ZM919.756807365320128,421.181100000000697h-106.041000000000167v-34.251000000000204h106.041000000000167v34.251000000000204ZM911.067307365319721,477.269500000000335h-8.98239999999987v-5.842800000000352h-70.548800000010488v5.842800000000352h-8.982399999998961v-48.420399999999063h88.513600000009319v48.420399999999063ZM862.354407365320185,413.293900000000576v-18.257299999999304h-39.656200000000354v18.257299999999304h39.656200000000354ZM902.08490736531985,446.304700000000594v-9.420500000000175h-70.548800000010488v9.420500000000175h70.548800000010488ZM902.08490736531985,463.540500000000975v-9.568400000000111h-70.548800000010488v9.568400000000111h70.548800000010488ZM852.641607365319942,406.063400000000911l-7.521499999999833,5.25879999999961c-4.527400000009948-4.575199999999313-8.959000000010747-7.959899999999834-13.293000000000575-10.150799999999435l7.595699999999852-4.382400000000416c5.160200000000259,2.190500000000611,9.566400000000613,5.283199999999852,13.218800000000556,9.274400000000242ZM888.063407365320018,371.229000000001179c-7.060499999999593-3.700700000000325-13.902300000010655-8.691900000000714-20.523400000010042-14.973200000000361-7.06059999998979,5.84230000000025-14.970699999989847,10.833999999999833-23.734399999989364,14.973200000000361h44.257799999999406ZM910.776307365309549,413.293900000000576v-18.257299999999304h-39.4375v18.257299999999304h39.4375ZM901.938407365320018,399.344700000000557c-2.872999999999593,4.577099999999518-7.20700000000943,8.473100000000159-13,11.685500000000502l-8.033200000009856-4.016999999999825c6.378899999999703-3.602100000000064,10.759799999999814-7.206100000001243,13.144599999999627-10.808600000000297l7.888600000010229,3.14009999999962Z"/><path class="uuid-95b2c875-7ef6-4541-b9fd-5aeeaecb2933" d="M197.626578978639373,281.630300000000716l-2.6405999332992,3.510800000000017c-10.179699742830053-3-18.441399534130142-7.039600000000064-24.779299374019502-12.120100000000093-5.462899861990081,4.460399999999936-14.040999645290867,8.580500000000029-25.742179120010405,12.360800000000381l-2.939420155429616-3.570300000000316c11.320299714028806-3.13970000000063,19.880799497768749-6.949700000000121,25.681599351229124-11.430199999999786-5.820299852969583-5.5-9.732399754139806-12.189900000000307-11.730499703659916-20.070300000000316-1.079999972719634,2.77980000000025-2.562499935269443,5.41989999999987-4.441399887799889,7.91989999999987l-3.177699919730003-2.909200000000055c2.519499936350257-3.001399999999194,4.546899885140192-6.29149999999936,6.087899846209439-9.870999999999185h-10.320299739289112v-3.690000000000509h24.062499392130121v-10.260200000000623h3.869099902260132v10.200200000001132h24.480499381569643v3.689399999999296h-10.261699740770382c-1.798899954549597,10.440899999999601-5.937499849999767,18.75-12.419999686239862,24.930200000000696,5.900420959519579,4.480899999999565,13.990299646569838,8.251399999999194,24.271499386849428,11.309999999999491ZM181.755500551309524,245.39010000000053h-23.218720585179653c1.59759995964032,9.260700000000725,5.507799860860359,16.710000000000036,11.72849970371044,22.35109999999986,6.080099846409212-5.660200000000259,9.910220881469286-13.110899999999674,11.490220881469213-22.35109999999986Z"/><path class="uuid-95b2c875-7ef6-4541-b9fd-5aeeaecb2933" d="M341.647699927850226,274.64010000000053h-24.152299389869768v4.171400000000176c0,4.459499999999935-2.369199940150793,6.690400000000409-7.10939982040054,6.690400000000409h-3.990199899199979l-1.468799962889534-3.690400000000409h5.578122181279468c1.96100000000024,0,2.941477603500061-.900399999999536,2.941477603500061-2.699700000000121v-4.471700000000055h-26.339899334599977v-3.75h26.339899334599977v-2.579099999999926c4.179599894409876-1.559599999999591,7.169899818870363-3.019999999999527,8.968699773430671-4.380900000000111h-22.980499419471016v-3.45010000000002h29.640699251220212v3.269999999999527c-3.119199921209656,2.121100000000297-6.980499823659557,4.291000000001077-11.580099707469344,6.510700000000725v.629399999999805h24.152299389869768v3.75ZM339.128199991489964,263.510700000000725h-3.601599909010474v-6.209499999999935h-41.912098941209479v6.569399999999405h-3.929699900730157v-10.079599999999118h5.160199869639655v-18.300800000000891c2.839799928260618-.278800000000047,5.951199849660043-1.629899999999907,9.331999764250213-4.049799999998868l1.978499950020705,2.760299999999916c-1.818299954060421,1.680599999999686-4.300699891350632,2.95010000000002-7.441377787679812,3.809999999999491v2.519500000000335h7.681677781609324v3.120600000000195h-7.681677781609324v3.270599999999831h7.681677781609324v3.058599999999387h-7.681677781609324v3.811000000000604h31.892577169988726v-3.811000000000604h-7.322299815019505v-3h7.322299815019505v-3.509299999999712h-7.259799816599298v-3.060099999999693h7.259799816599298v-3.270500000000538h-8.490199785519508v-3.629399999999805h12.298799689309817v20.22019999999975h4.712899880940313v9.77980000000025ZM322.116500421239834,240.230900000000474l-2.101599946900023,2.578600000000733c-1.138699971239475-1.099600000000464-2.689399932060041-2.288500000000568-4.648399882579724-3.569300000001022-1.621099959040293,1.35990000000038-3.44137755499014,2.60990000000038-5.460999862039898,3.75l-2.458899937880233-2.159200000000055c1.939399951000269-.800799999999072,3.638599908079414-1.740199999999277,5.09959987116963-2.820299999999406-2.441399938319591-.91989999999987-4.412077626239807-1.559999999999491-5.910199850689423-1.920900000000074l1.531299961309742-2.760199999999713c2.218699943950014.560499999999593,4.449199887610121,1.280699999999342,6.689399831009723,2.160599999999249,1.419899964130309-1.338399999999638,2.609422432130486-2.709999999999127,3.568422432130319-4.11029999999937l2.521477414029505,2.010199999999713c-.80079997977009,1.239800000000287-1.84179995346949,2.451199999999517-3.119199921199652,3.630900000000111,1.478499962650858.838799999999537,2.90819992652996,1.909099999999853,4.289099891640035,3.209899999999834ZM322.475900412169722,251.150800000001254l-2.51959993634955,1.979499999999462c-1.619099959099913-1.240200000000186-3.300799916620235-2.270000000000437-5.040999872659995-3.089799999999741-1.080099972709831.819799999999304-2.999999924209988,1.849599999999555-5.759799854490666,3.089799999999741l-2.281199942369312-1.800699999999779c2.581999934770465-1.219300000000658,4.431599888040182-2.278800000000047,5.550822230469748-3.178799999999683-1.119222342429566-.70010000000002-2.820322299449799-1.479400000000169-5.099622241869838-2.33980000000065l2.24999994315931-1.891099999999824c2.060499947940116.740700000000288,3.820299903491104,1.511199999999917,5.281199866580209,2.310999999999694.560599985839872-.320299999999406,1.68949995732055-1.27980000000025,3.388699914399695-2.880799999999908l2.759722517730552,1.410600000000159c-1.019522561689882,1.319799999999304-2.158222532929358,2.410700000000361-3.417922501110297,3.269500000000335,1.658199958120349.759799999999814,3.287099916969964,1.799399999999878,4.888699876510145,3.120600000000195Z"/><path class="uuid-95b2c875-7ef6-4541-b9fd-5aeeaecb2933" d="M444.011571929399906,251.900400000000445c4.040999897920301,4.540000000000873,6.062499846850187,8.970699999999852,6.062499846850187,13.290500000000065,0,2.100100000000566-.544899986230121,3.770499999999629-1.636676219600304,5.009800000000723-1.087923711569601,1.240699999999379-2.613323673029299,1.860799999999472-4.574223623500075,1.860799999999472-1.080099972709831,0-2.380899939849769-.131400000000212-3.900399901460332-.38970000000063l-1.109376475039426-3.991699999999582c2.140576448990032.542000000000371,3.679676410100001.811599999999999,4.61907638636967.811599999999999.779299980320502,0,1.490299962350036-.300799999999981,2.13092361363033-.900899999999638.640576316360239-.599100000000362.96087630826969-1.399400000000242.96087630826969-2.399900000000343,0-1.499499999999898-.550699986089967-3.419399999999769-1.650399958309208-5.760800000000017-1.101476349960649-2.339299999999639-2.751899930480249-4.569800000000214-4.951099874921056-6.688900000000103l5.851499852170491-15.031299999999646h-8.910099774909213v47.792000000000371h-3.931699900670537v-51.601500000000669h16.830099574829546v3.809500000000298l-5.790999853709764,14.190499999999702ZM485.384670884230218,274.491700000000492c-.521499986820345,3.239700000000084-1.220799969159998,5.590299999999843-2.101599946910028,7.049300000000585-.878899977790752,1.460399999999936-2.310599941630244,2.190399999999499-4.289099891650039,2.190399999999499h-4.679699881779925c-3.121099921150744,0-4.679599881779723-1.640599999999722-4.679599881779723-4.91989999999987v-15.870100000000093h-6.332099840040428c-.119099996990371,6.439900000000307-1.374999965260031,11.264099999999416-3.763699904920031,14.475100000000566-2.390599939610183,3.209399999999732-6.824199827599841,5.90519999999924-13.306599663850648,8.085399999999936l-2.519499936349348-3.451100000000224c6.019499847940097-1.779300000000148,10.150399743580238-4.08010000000013,12.390623619699909-6.899999999999636,2.240176010699543-2.819800000001123,3.36907598218022-6.870100000000093,3.390575981639813-12.149400000000242h-8.220699792329469v-3.931099999999788h32.132799188259924v3.871099999999387h-10.023399746790346v14.940400000000409c0,.499499999999898.160199995950279.964899999999034.48049998785973,1.394500000000335.32029999191036.430699999998978.701099982290543.645099999999729,1.140599971190568.645099999999729h3.810499903730488c.779299980318683,0,1.374999965269126-.640699999999924,1.785199954909331-1.920000000000073.408199989679815-1.279300000000148.753924551529963-2.939900000000307,1.035199973839553-4.980400000000373l3.74999990527067,1.470699999999852ZM481.93347097142032,247.280200000001059l-3.808599903790309.061099999998987v-5.281799999998839h-22.621099428540219v5.281799999998839h-3.871099902209608v-9.091300000000047h13.169899667299433v-6.809599999998682h3.931699900680542v6.750499999999192h13.199199666560162v9.089300000000549ZM476.894395556650124,253.070300000001225h-20.281223945590682v-3.930200000000696h20.281223945590682v3.930200000000696Z"/><path class="uuid-95b2c875-7ef6-4541-b9fd-5aeeaecb2933" d="M631.251404893419931,274.64010000000053h-24.152299999999741v4.171400000000176c0,4.459499999999935-2.371100000000297,6.690400000000409-7.109400000000278,6.690400000000409h-3.990200000000186l-1.470699999999852-3.690400000000409h5.58010000000013c1.960900000000038,0,2.941400000000613-.900399999999536,2.941400000000613-2.699700000000121v-4.471700000000055h-26.341824835340958v-3.75h26.341824835340958v-2.579099999999926c4.179699999998775-1.559599999999591,7.169899999998961-3.019999999999527,8.968699999999444-4.380900000000111h-22.980525146820582v-3.45010000000002h29.640725146820841v3.269999999999527c-3.119200000001001,2.121100000000297-6.980499999999665,4.291000000001077-11.58010000000013,6.510700000000725v.629399999999805h24.152299999999741v3.75ZM628.730004893419391,263.510700000000725h-3.599699999998847v-6.209499999999935h-41.910124999831169v6.569399999999405h-3.931699900678723v-10.079599999999118h5.162199869589131v-18.300800000000891c2.837799928310233-.278800000000047,5.949199849709657-1.629899999999907,9.328125030920091-4.049799999998868l1.980499999999665,2.760299999999916c-1.820399999999609,1.680599999999686-4.298925207999673,2.95010000000002-7.439525128659625,3.809999999999491v2.519500000000335h7.679725128659811v3.120600000000195h-7.679725128659811v3.270599999999831h7.679725128659811v3.058599999999387h-7.679725128659811v3.811000000000604h31.890625128659849v-3.811000000000604h-7.320299999999406v-3h7.320299999999406v-3.509299999999712h-7.259699999999611v-3.060099999999693h7.259699999999611v-3.270500000000538h-8.490200000000186v-3.629399999999805h12.298800000000483v20.22019999999975h4.710999999999331v9.77980000000025ZM611.720204893419577,240.230900000000474l-2.101599999999962,2.578600000000733c-1.140599999999722-1.099600000000464-2.689399999999296-2.288500000000568-4.650399999999536-3.569300000001022-1.619099999999889,1.35990000000038-3.439400000000205,2.60990000000038-5.45890000000054,3.75l-2.460999999999331-2.159200000000055c1.941399999999703-.800799999999072,3.64259999999922-1.740199999999277,5.101599999999962-2.820299999999406-2.441399999999703-.91989999999987-4.410200000000259-1.559999999999491-5.910200000000259-1.920900000000074l1.529300000000148-2.760199999999713c2.220699999999852.560499999999593,4.451199999999517,1.280699999999342,6.689500000000407,2.160599999999249,1.419899999998961-1.338399999999638,2.611299999999574-2.709999999999127,3.572199999999611-4.11029999999937l2.519600000000537,2.010199999999713c-.800800000000891,1.239800000000287-1.841800000000148,2.451199999999517-3.121100000000297,3.630900000000111,1.480399999999463.838799999999537,2.910099999999147,1.909099999999853,4.290999999999258,3.209899999999834ZM612.079604893419855,251.150800000001254l-2.519600000000537,1.979499999999462c-1.621099999999387-1.240200000000186-3.300699999999779-2.270000000000437-5.03899999999885-3.089799999999741-1.082100000000537.819799999999304-3,1.849599999999555-5.761700000000928,3.089799999999741l-2.279300000000148-1.800699999999779c2.579999999999927-1.219300000000658,4.429600000000391-2.278800000000047,5.550700000000688-3.178799999999683-1.121100000000297-.70010000000002-2.822199999999611-1.479400000000169-5.10149999999976-2.33980000000065l2.25-1.891099999999824c2.060499999999593.740700000000288,3.820299999999406,1.511199999999917,5.279300000000148,2.310999999999694.560499999999593-.320299999999406,1.689399999999296-1.27980000000025,3.390599999999722-2.880799999999908l2.759799999999814,1.410600000000159c-1.019600000000537,1.319799999999304-2.16019999999935,2.410700000000361-3.420000000000073,3.269500000000335,1.660200000000259.759799999999814,3.29109999999946,1.799399999999878,4.890699999999924,3.120600000000195Z"/><path class="uuid-95b2c875-7ef6-4541-b9fd-5aeeaecb2933" d="M776.246163405250627,282.501400000001013h-54.599600000000464v-3.869599999999991h25.439400000000205v-14.070800000000418h-18.330000000010841v-3.870100000000093h18.330000000010841v-12.240199999999277h-13.589799999999741c-1.640599999990627,4.25919999999951-4.380900000011025,8.189399999999296-8.220700000000761,11.789499999998952l-3.958999999989828-2.070299999999406c6.558599999999387-6.059600000000501,10.208999999989828-13.479000000000269,10.949199999990014-22.259299999999712l4.050800000009986,1.169899999998961c-.160200000019358,2.040100000000166-.630900000020119,4.559600000000501-1.412100000009559,7.559600000000501h12.123000000009597v-13.139600000000428h4.048899999979767v13.079999999999927h21.179699999999684v3.870200000001205h-21.179699999999684v12.179599999999482h18.060500000000502v3.870199999999386h-18.060500000000502v14.071200000000317h25.169900000010784v3.929700000000594Z"/><path class="uuid-95b2c875-7ef6-4541-b9fd-5aeeaecb2933" d="M921.662734334749985,245.329600000000937l-2.158200000009856,3.121100000000297c-6.820299999990311-1.679700000000594-12.16209999998955-3.619700000001103-16.021499999990738-5.820400000000518v2.699300000000221h-20.281200000009449v-2.969300000000658c-5.839799999989737,3.02100000000064-11.080099999990125,4.989800000000287-15.718799999990551,5.910700000000361l-1.980399999999463-3.150400000000445c11.240200000000186-2.740699999999379,20.599600000000464-7.320799999999508,28.080099999990125-13.740699999999379l3.689400000000205,1.230399999999463c-.400399999990441.5-.75.85109999999986-1.048799999990479,1.050300000000789,6.638700000000426,5.519499999999425,15.121100000000297,9.409700000000157,25.439400000000205,11.668999999999869ZM915.274134334740666,262.521500000000742h-43.5605999999907v-14.070799999999508h43.5605999999907v14.070799999999508ZM911.703734334750152,285.561000000000604h-3.691400000009708v-2.399899999999434h-28.980399999990368v2.399899999999434h-3.689499999999498v-19.889599999999518h36.361299999999574v19.889599999999518ZM891.692034334740129,259.280200000001059v-7.5h-16.28899999999976v7.5h16.28899999999976ZM908.012334334740444,272.841300000000047v-3.870599999999286h-28.980399999990368v3.870599999999286h28.980399999990368ZM908.012334334740444,279.921400000001086v-3.929700000000594h-28.980399999990368v3.929700000000594h28.980399999990368ZM887.701834334739942,256.311000000000604l-3.089799999989737,2.159700000000157c-1.859400000000278-1.878400000000511-3.679700000000594-3.269600000000537-5.459000000009837-4.169499999999971l3.119099999999889-1.799799999999777c2.121100000000297.898999999999432,3.929699999999684,2.170000000000073,5.429699999999684,3.809599999999591ZM902.252634334749928,242.001400000001013c-2.900399999999536-1.520000000000437-5.708999999999833-3.57130000000052-8.429700000010598-6.152299999999741-2.902399999989939,2.400899999998728-6.150399999989531,4.452099999999518-9.75,6.152299999999741h18.179700000010598ZM911.582734334740053,259.280200000001059v-7.5h-16.199300000000221v7.5h16.199300000000221ZM907.953734334750152,253.550800000000891c-1.181600000009894,1.879299999999603-2.960900000000038,3.479400000000169-5.341699999999946,4.799299999999675l-3.29890000001069-1.649000000000342c2.619200000010096-1.480399999999463,4.419900000009875-2.960900000000038,5.40040000001045-4.440399999999499l3.240200000000186,1.290100000000166Z"/><path class="uuid-95b2c875-7ef6-4541-b9fd-5aeeaecb2933" d="M1561.93258408497968,336.833400000000438v-100.471099999999751h12.090799694569796v89.819300000000112h42.750998920010716v10.651799999999639h-54.841798614580512Z"/><path class="uuid-95b2c875-7ef6-4541-b9fd-5aeeaecb2933" d="M1638.652282146889775,245.142500000000837c-2.497099936929772,0-4.295899891480076-.597600000000057-5.397474781570054-1.798799999999574-1.10442505418996-1.199200000000928-1.65622504024941-2.756800000001022-1.65622504024941-4.67870000000039v-1.871100000000297c0-1.918499999999767.55179998605945-3.477499999999964,1.65622504024941-4.678200000000288,1.101574890089978-1.198800000000119,2.900374844640282-1.799299999999675,5.397474781570054-1.799299999999675,2.494125218419867,0,4.294025218430761.600499999999556,5.397525218420014,1.799299999999675,1.102500000009968,1.200700000000325,1.655200000010154,2.759700000000521,1.655200000010154,4.678200000000288v1.871100000000297c0,1.921899999999368-.552700000000186,3.479499999999462-1.655200000010154,4.67870000000039-1.103499999989253,1.201199999999517-2.903400000000147,1.798799999999574-5.397525218420014,1.798799999999574ZM1632.894482292340399,262.560500000000502h11.515625072969669v74.272899999999936h-11.515625072969669v-74.272899999999936Z"/><path class="uuid-95b2c875-7ef6-4541-b9fd-5aeeaecb2933" d="M1668.879807365319721,336.833400000000438v-74.272899999999936h11.515699999999924v11.953099999999722h.57609999999022c1.82130000000052-4.17869999999948,4.38970000000063-7.505799999998999,7.700200000010227-9.974599999999555,3.311599999989994-2.469699999999648,7.74809999998979-3.706500000000233,13.314499999990403-3.706500000000233,7.67680000000928,0,13.747099999999591,2.471199999999953,18.209000000009837,7.412599999999657,4.461899999989328,4.943300000000818,6.693299999999908,11.925700000000688,6.693299999999908,20.94380000000092v47.644499999999425h-11.514600000000428v-45.728500000000167c0-13.368599999999788-5.615199999999277-20.052700000000186-16.841800000010153-20.052700000000186-2.302700000000186,0-4.535199999989345.290500000000975-6.693400000000111.865700000000288-2.159099999999853.578100000000632-4.102499999999054,1.443900000000212-5.829999999989013,2.597700000000259-1.726600000010876,1.153800000000047-3.094800000010764,2.620100000000093-4.101600000010876,4.399400000000242-1.007799999989402,1.778800000000047-1.511699999990014,3.871100000000297-1.511699999990014,6.274900000000343v51.643499999999221h-11.515699999999924Z"/><path class="uuid-95b2c875-7ef6-4541-b9fd-5aeeaecb2933" d="M1809.654307365320165,334.386700000000928c0,10.266599999999926-2.878900000000613,18.328099999999722-8.636800000000221,24.181599999999889-5.757800000000316,5.853000000000065-13.868099999999686,8.781299999999646-24.326100000000224,8.781299999999646-6.045900000000074,0-11.252999999999702-.940499999999702-15.618199999999888-2.818399999999201-4.367199999999684-1.882300000001123-7.988299999999981-4.363300000000891-10.867199999999684-7.447300000000723l6.765599999989718-7.952099999999518c2.494200000010096,2.568299999998999,5.373099999999795,4.544899999998961,8.636800000000221,5.926299999999173,3.26070000000982,1.380800000000818,7.052700000000186,2.070800000000418,11.371099999999387,2.070800000000418,6.715800000010859,0,11.921800000000076-1.855500000000575,15.617100000000391-5.563499999999294,3.693400000000111-3.713900000000649,5.542000000010376-9.183600000000297,5.542000000010376-16.411600000001272v-10.273999999999432h-.575200000000223c-2.208900000010544,4.561099999999897-5.087800000000243,7.979499999999462-8.636700000000019,10.259799999999814-3.551699999999983,2.281200000000354-7.917000000000371,3.421400000000176-13.099600000000464,3.421400000000176-4.60550000000967,0-8.779299999999239-.91359999999986-12.522400000009839-2.73490000000038-3.74219999998968-1.822199999999611-6.909199999990051-4.413099999999758-9.5-7.772399999999834-2.590900000000147-3.358399999999165-4.606499999989865-7.435599999999795-6.04589999998916-12.235399999999572-1.439500000000407-4.79740000000038-2.158200000000761-10.170900000000074-2.158200000000761-16.122100000000501,0-5.948199999999815.718700000000354-11.32169999999951,2.158200000000761-16.121100000000297,1.439399999999296-4.797299999999268,3.454999999989013-8.87539999999899,6.04589999998916-12.23529999999937,2.590800000009949-3.357899999999972,5.75780000001032-5.948699999999917,9.5-7.772500000000036,3.7431000000106-1.822200000000521,7.916900000000169-2.734800000000178,12.522400000009839-2.734800000000178,5.182600000000093,0,9.619200000001001,1.117599999999584,13.315400000000409,3.34860000000026,3.692399999999907,2.233400000000074,6.499099999999999,5.676800000000185,8.420900000000074,10.332499999999527h.575200000000223v-11.953099999999722h11.515699999999924v71.826200000000426ZM1779.28220736530966,328.340800000000854c2.591800000010153,0,5.038100000010672-.337400000000343,7.341800000010153-1.012200000000121,2.302700000000186-.674800000000687,4.292999999989661-1.664600000000064,5.972599999990052-2.966300000000047,1.677800000010393-1.29989999999998,3.023500000010245-2.89260000000013,4.03130000001056-4.772500000000036,1.006799999999203-1.880400000000009,1.510699999999815-4.075200000000223,1.510699999999815-6.582999999999629v-27.632300000000214c0-2.024000000000342-.481400000010581-3.929199999999582-1.439400000000205-5.715400000000045-.960000000000036-1.783199999999852-2.30370000000039-3.301199999999881-4.030300000010357-4.556099999999788-1.727499999989959-1.252500000000509-3.74219999998968-2.240700000000288-6.044899999989866-2.964400000000751-2.30369999999948-.724099999999453-4.75-1.08640000000014-7.341800000010153-1.08640000000014-6.527399999989939,0-11.708999999989828,2.073200000000725-15.54489999999987,6.221199999999953-3.839899999989939,4.147400000000744-5.757800000000316,9.499500000000808-5.757800000000316,16.058100000000195v12.730000000000473c0,6.558599999999387,1.917900000010377,11.91110000000026,5.757800000000316,16.058599999999387,3.835900000010042,4.146900000000642,9.017500000009932,6.220700000000761,15.54489999999987,6.220700000000761Z"/><path class="uuid-95b2c875-7ef6-4541-b9fd-5aeeaecb2933" d="M1879.895507365319645,324.879800000000614h-.576199999999517c-.768600000000333,1.711499999999432-1.704099999999926,3.39850000000024-2.806599999999889,5.060600000000704-1.103600000010374,1.662099999999555-2.470700000010766,3.134699999998702-4.101600000009967,4.41649999999936-1.632799999990311,1.282199999999648-3.598599999990256,2.30370000000039-5.902299999989737,3.063900000000103-2.302800000000389.759799999999814-4.990300000000389,1.140199999999822-8.060600000000704,1.140199999999822-7.677700000000186,0-13.771499999999833-2.469700000000557-18.280300000000352-7.41359999999986-4.511700000010023-4.940900000000511-6.765599999999722-11.921900000000278-6.765599999999722-20.942900000000009v-47.644000000000233h11.515599999999722v45.727499999999964c0,13.36869999999999,5.661200000000463,20.052800000000389,16.985400000000482,20.052800000000389,2.302700000000186,0,4.534200000000055-.287100000000464,6.693299999989904-.86620000000039,2.15920000001006-.575200000000223,4.07720000000063-1.440499999999702,5.757899999999609-2.59479999999985,1.677700000000186-1.154300000000148,3.022400000010748-2.620100000000093,4.029300000011062-4.399400000000242,1.007799999999406-1.778299999999945,1.511699999999109-3.91989999999987,1.511699999999109-6.421399999999267v-51.498500000000604h11.515599999990627v74.272899999999936h-11.515599999990627v-11.953599999999824Z"/><path class="uuid-95b2c875-7ef6-4541-b9fd-5aeeaecb2933" d="M1921.637707365320239,245.142500000000837c-2.496100000000297,0-4.295000000010077-.597600000000057-5.397500000000036-1.798799999999574-1.104500000000371-1.199200000000928-1.655300000000352-2.756800000001022-1.655300000000352-4.67870000000039v-1.871100000000297c0-1.918499999999767.550799999999981-3.477499999999964,1.655300000000352-4.678200000000288,1.102499999989959-1.198800000000119,2.90139999999974-1.799299999999675,5.397500000000036-1.799299999999675,2.494099999999889,0,4.293899999999667.600499999999556,5.398399999990033,1.799299999999675,1.101600000009967,1.200700000000325,1.654300000010153,2.759700000000521,1.654300000010153,4.678200000000288v1.871100000000297c0,1.921899999999368-.552700000000186,3.479499999999462-1.654300000010153,4.67870000000039-1.104499999990367,1.201199999999517-2.904299999990144,1.798799999999574-5.398399999990033,1.798799999999574ZM1915.879807365319721,262.560500000000502h11.515699999999924v74.272899999999936h-11.515699999999924v-74.272899999999936Z"/><path class="uuid-95b2c875-7ef6-4541-b9fd-5aeeaecb2933" d="M1974.176707365319999,338.561000000000604c-6.909200000000055,0-12.691399999999703-1.319800000000214-17.344700000000557-3.958499999999731-4.655299999999443-2.638200000000325-8.661100000009355-6.165100000000166-12.019499999999425-10.58010000000013l8.204099999999926-6.621099999999387c2.878899999999703,3.647999999999229,6.093700000000354,6.45509999999922,9.64449999999033,8.419899999998961,3.548800000009578,1.968800000000556,7.67680000000928,2.951700000000528,12.378899999999703,2.951700000000528,4.894500000010339,0,8.709000000009837-1.055199999999786,11.443400000000111-3.166500000000269,2.73529999999937-2.10989999999947,4.102500000009968-5.085900000000038,4.102500000009968-8.924799999999777,0-2.878900000000613-.935500000000502-5.348200000000361-2.806599999999889-7.413100000000668-1.872100000000501-2.0625-5.253900000000613-3.476599999999962-10.147500000000036-4.246099999999387l-5.902300000010655-.863800000000083c-3.455099999989216-.47899999999936-6.621099999999387-1.223100000000159-9.5-2.230900000000474-2.878899999989699-1.007799999999406-5.397499999990032-2.350599999999758-7.556699999989178-4.030299999999443-2.159200000000055-1.677700000000186-3.83980000000065-3.76509999999962-5.038100000000668-6.261700000000019-1.201099999999315-2.494099999999889-1.799799999999777-5.469699999999648-1.799799999999777-8.923800000000483,0-3.646499999998923.66989999999987-6.837399999999434,2.015699999999924-9.572799999999916,1.34270000000015-2.73489999999947,3.189399999990201-5.012199999999211,5.541900000000169-6.836900000000242,2.350599999999758-1.821799999999712,5.157299999989846-3.189899999999398,8.420000000000073-4.102100000000064,3.261700000000019-.911099999999351,6.765599999999722-1.367599999999584,10.50880000000052-1.367599999999584,6.044899999998961,0,11.105399999999463,1.057099999999991,15.185499999999593,3.166500000000269,4.077100000000428,2.112299999999777,7.65139999999974,5.038099999999758,10.723599999999351,8.78020000000015l-7.629799999999705,6.909200000000055c-1.632900000009613-2.302700000000186-4.029299999999239-4.39010000000053-7.19629999999961-6.260700000000725-3.167000000010376-1.871599999999489-7.149500000000444-2.807600000000093-11.947300000000723-2.807600000000093-4.799799999999777,0-8.420900000009169,1.032200000000557-10.868200000009892,3.095200000000659-2.446299999989606,2.063900000000103-3.66989999999987,4.871599999999489-3.66989999999987,8.420399999999972,0,3.648400000000038,1.223600000010265,6.286099999999351,3.66989999999987,7.91649999999936,2.447300000000723,1.633300000000418,5.974600000010469,2.831500000000233,10.58010000000013,3.599100000001272l5.75780000001032.863299999999072c8.251999999999498,1.247999999999593,14.106499999999869,3.623499999999694,17.56059999998979,7.125,3.455000000009932,3.504899999999907,5.182600000000093,8.085399999999936,5.182600000000093,13.746100000000297,0,7.197299999999814-2.447299999999814,12.860800000000381-7.34079999998994,16.985800000000381-4.894599999999627,4.1274999999996-11.613299999999981,6.189499999999498-20.152399999999943,6.189499999999498Z"/><path class="uuid-95b2c875-7ef6-4541-b9fd-5aeeaecb2933" d="M2037.368107365319702,336.833400000000438c-4.029300000010153,0-7.077100000009523-1.124499999999898-9.139600000009523-3.373499999999694-2.064500000000407-2.249000000000706-3.094699999989643-5.195300000000316-3.094699999989643-8.834499999999935v-51.846199999999953h-12.235400000000482v-10.218700000000354h6.909200000000055c2.494099999999889,0,4.197199999999611-.504899999999907,5.11029999999937-1.512700000000223.911200000000463-1.006799999999203,1.367199999990589-2.756799999999203,1.367199999990589-5.252899999999499v-13.819400000000314h10.364300000010189v20.585000000000036h16.265599999989718v10.218700000000354h-16.265599999989718v53.834999999999127h15.113299999999981v10.219200000000455h-14.394600000000537Z"/><path class="uuid-95b2c875-7ef6-4541-b9fd-5aeeaecb2933" d="M2077.240207365320202,245.142500000000837c-2.496100000000297,0-4.295900000000074-.597600000000057-5.397500000010041-1.798799999999574-1.104499999990367-1.199200000000928-1.655199999990145-2.756800000001022-1.655199999990145-4.67870000000039v-1.871100000000297c0-1.918499999999767.550699999999779-3.477499999999964,1.655199999990145-4.678200000000288,1.101600000009967-1.198800000000119,2.901400000009744-1.799299999999675,5.397500000010041-1.799299999999675,2.495100000000093,0,4.293899999989662.600499999999556,5.397500000000036,1.799299999999675,1.102499999999964,1.200700000000325,1.65619999998944,2.759700000000521,1.65619999998944,4.678200000000288v1.871100000000297c0,1.921899999999368-.553699999989476,3.479499999999462-1.65619999998944,4.67870000000039-1.103600000010374,1.201199999999517-2.902399999999943,1.798799999999574-5.397500000000036,1.798799999999574ZM2071.482407365309882,262.560500000000502h11.515600000010636v74.272899999999936h-11.515600000010636v-74.272899999999936Z"/><path class="uuid-95b2c875-7ef6-4541-b9fd-5aeeaecb2933" d="M2135.104507365309473,338.561000000000604c-5.181699999989178,0-9.83699999998953-.91359999999986-13.96199999998953-2.73490000000038-4.126900000000205-1.822199999999611-7.606400000009671-4.413099999999758-10.435500000000502-7.772399999999834-2.831999999999425-3.358399999999165-4.99119999999948-7.435599999999795-6.477500000009968-12.235399999999572-1.488299999989977-4.79740000000038-2.230499999989661-10.170900000000074-2.230499999989661-16.122100000000501,0-5.948199999999815.742199999999684-11.32169999999951,2.230499999989661-16.121100000000297,1.486300000010488-4.797299999999268,3.645500000010543-8.87539999999899,6.477500000009968-12.23529999999937,2.829099999990831-3.357899999999972,6.308600000000297-5.948699999999917,10.435500000000502-7.772500000000036,4.125-1.822200000000521,8.780300000000352-2.734800000000178,13.96199999998953-2.734800000000178,7.388600000010229,0,13.315400000000409,1.607900000000882,17.777300000010655,4.821700000000419,4.461899999989328,3.216399999999339,7.79489999999987,7.413099999999758,10.003899999999703,12.59479999999985l-9.644500000000335,4.894499999999425c-1.343799999999646-3.837399999999434-3.550799999999072-6.813000000000102-6.621099999999387-8.924799999998868-3.072299999999814-2.109400000001187-6.909200000000055-3.166500000001179-11.515600000010636-3.166500000001179-3.454099999989921,0-6.476599999989048.553200000000288-9.068399999999201,1.655300000000352-2.589799999989737,1.104000000000269-4.75,2.64010000000053-6.476599999989958,4.606400000000576-1.727500000000873,1.96730000000025-3.023400000010042,4.318400000000111-3.886700000000019,7.052700000000186-.863299999999981,2.73489999999947-1.295900000000074,5.735899999999674-1.295900000000074,8.995699999999488v12.666900000000169c0,6.527899999999136,1.75,11.876000000000204,5.254899999999907,16.050299999999879,3.501000000000204,4.174399999999878,8.658199999989847,6.261300000000119,15.472699999989345,6.261300000000119,9.306600000000799,0,16.025300000010247-4.318400000000111,20.152300000010655-12.95510000000013l8.348599999999351,5.614199999999983c-2.399399999999332,5.375500000000102-5.973599999999351,9.644599999999627-10.723599999999351,12.811099999999897s-10.675799999999981,4.75-17.777300000010655,4.75Z"/><path class="uuid-95b2c875-7ef6-4541-b9fd-5aeeaecb2933" d="M2202.180607365319702,338.561000000000604c-6.909199999999146,0-12.691399999999703-1.319800000000214-17.344699999999648-3.958499999999731-4.655300000000352-2.638200000000325-8.661100000010265-6.165100000000166-12.019500000000335-10.58010000000013l8.204099999999926-6.621099999999387c2.878900000000613,3.647999999999229,6.093700000000354,6.45509999999922,9.64449999999033,8.419899999998961,3.548799999999574,1.968800000000556,7.675800000009986,2.951700000000528,12.378899999999703,2.951700000000528,4.894500000010339,0,8.709000000010747-1.055199999999786,11.443400000000111-3.166500000000269,2.735300000000279-2.10989999999947,4.102500000009968-5.085900000000038,4.102500000009968-8.924799999999777,0-2.878900000000613-.935499999999593-5.348200000000361-2.806599999999889-7.413100000000668-1.872100000009596-2.0625-5.253899999999703-3.476599999999962-10.147500000000036-4.246099999999387l-5.902300000009745-.863800000000083c-3.455099999990125-.47899999999936-6.621100000000297-1.223100000000159-9.5-2.230900000000474-2.878900000000613-1.007799999999406-5.397499999990032-2.350599999999758-7.556699999990087-4.030299999999443-2.159200000000055-1.677700000000186-3.839799999999741-3.76509999999962-5.038099999999758-6.261700000000019-1.201100000000224-2.494099999999889-1.799800000010691-5.469699999999648-1.799800000010691-8.923800000000483,0-3.646499999998923.670000000010987-6.837399999999434,2.015699999999924-9.572799999999916,1.342700000010154-2.73489999999947,3.189400000000205-5.012199999999211,5.541900000011083-6.836900000000242,2.350599999999758-1.821799999999712,5.157299999998941-3.189899999999398,8.419999999999163-4.102100000000064,3.260699999999815-.911099999999351,6.765599999999722-1.367599999999584,10.50880000000052-1.367599999999584,6.04489999999987,0,11.105399999999463,1.057099999999991,15.185499999999593,3.166500000000269,4.077199999999721,2.112299999999777,7.651399999989735,5.038099999999758,10.72360000000026,8.78020000000015l-7.629800000010619,6.909200000000055c-1.632899999999609-2.302700000000186-4.029299999989234-4.39010000000053-7.197299999989809-6.260700000000725-3.166000000000167-1.871599999999489-7.148399999999128-2.807600000000093-11.94629999999961-2.807600000000093-4.799800000009782,0-8.420900000010079,1.032200000000557-10.868200000009892,3.095200000000659-2.446299999989606,2.063900000000103-3.669899999989866,4.871599999999489-3.669899999989866,8.420399999999972,0,3.648400000000038,1.22360000000026,6.286099999999351,3.669899999989866,7.91649999999936,2.447299999999814,1.633300000000418,5.974600000009559,2.831500000000233,10.580100000010134,3.599100000001272l5.757799999999406.863299999999072c8.252000000000407,1.247999999999593,14.106499999989865,3.623499999999694,17.560599999999795,7.125,3.455100000001039,3.504899999999907,5.181600000000799,8.085399999999936,5.181600000000799,13.746100000000297,0,7.197299999999814-2.446300000010524,12.860800000000381-7.33980000000065,16.985800000000381-4.894599999999627,4.1274999999996-11.613299999999981,6.189499999999498-20.152399999999943,6.189499999999498Z"/><path class="uuid-95b2c875-7ef6-4541-b9fd-5aeeaecb2933" d="M2313.302707365317474,338.561000000000604c-8.157199999997829,0-15.114299999997456-1.561099999999897-20.872099999997772-4.678199999999379-5.757799999999406-3.117200000000594-10.651299999999537-7.413100000000668-14.681599999999889-12.882900000000518l8.923800000000483-7.485300000000279c3.549799999989773,4.703100000000632,7.485399999999572,8.276900000000751,11.803699999989476,10.72360000000026,4.318400000000111,2.447299999999814,9.403300000009949,3.670900000000074,15.257800000007592,3.670900000000074,7.197299999999814,0,12.689499999996769-1.727499999999964,16.48149999999805-5.181599999999889,3.789000000000669-3.45510000000013,5.685499999999593-8.061499999999796,5.685499999999593-13.818900000000212,0-4.796800000000076-1.439399999999296-8.492099999999482-4.318299999998999-11.082500000000437-2.878899999999703-2.591800000000148-7.628899999999703-4.654300000000148-14.25-6.190399999999499l-8.205099999995582-1.871100000000297c-9.211900000010246-2.110399999999572-16.242200000000594-5.301299999999173-21.086900000010246-9.57129999999961-4.846699999990051-4.269500000000335-7.269599999989623-10.292999999999665-7.269599999989623-18.065899999999601,0-4.412600000000566.814499999999498-8.348200000000361,2.4472999999889-11.802700000000186,1.630900000000111-3.454600000000937,3.909200000010969-6.33350000000064,6.836900000010246-8.636300000000119,2.925799999989977-2.30370000000039,6.427799999990384-4.05370000000039,10.507800000000316-5.253899999999703,4.078199999999924-1.199200000000928,8.564500000000407-1.799800000000687,13.458999999995285-1.799800000000687,7.579099999999016,0,14.081099999999424,1.39260000000013,19.503899999999703,4.174800000000687,5.420000000001892,2.784200000000055,10.003899999999703,6.861299999999574,13.746100000000297,12.235399999999572l-9.068299999998999,6.620600000000195c-2.784200000001874-3.837400000000343-6.14259999999922-6.85990000000038-10.075199999999313-9.068400000000111-3.936600000000908-2.206500000000233-8.830100000002858-3.310499999999593-14.682600000000093-3.310499999999593-6.429699999996956,0-11.492199999996956,1.367199999998775-15.185599999997066,4.101999999998952-3.695299999999406,2.735400000000482-5.542000000009466,6.837900000000445-5.542000000009466,12.307200000001103,0,4.800199999999677,1.558600000009392,8.420799999999872,4.678700000009485,10.867599999999584,3.117199999999684,2.446799999999712,7.843799999999646,4.390699999999924,14.177800000000389,5.83009999999922l8.20499999999447,1.871100000000297c9.882900000000518,2.20850000000064,17.032300000002579,5.566399999999703,21.447299999998904,10.075700000000325,4.412100000002283,4.511199999999917,6.621100000001206,10.507800000000316,6.621100000001206,17.992699999999786,0,4.606400000000576-.790999999997439,8.78020000000015-2.375,12.523400000000038-1.583999999998923,3.742200000000594-3.864299999997456,6.909200000000055-6.836899999998423,9.5-2.975600000001577,2.590799999999945-6.59860000000117,4.606400000000576-10.868200000000797,6.045399999999972-4.270499999998719,1.439499999999498-9.092799999998533,2.159200000000055-14.465799999998126,2.159200000000055Z"/><path class="uuid-95b2c875-7ef6-4541-b9fd-5aeeaecb2933" d="M2395.636707365316397,338.561000000000604c-4.99120000000039,0-9.549800000000687-.91359999999986-13.674800000000687-2.73490000000038-4.127000000000407-1.822199999999611-7.654299999998329-4.438000000000102-10.58009999999922-7.84519999999975-2.927700000000186-3.40480000000025-5.206099999999424-7.484399999999368-6.836900000002061-12.23489999999947-1.632799999999406-4.75-2.44629999999961-10.09860000000026-2.44629999999961-16.049800000000687,0-5.85149999999976.813500000000204-11.177700000000186,2.44629999999961-15.977499999999054,1.630800000002637-4.796900000001187,3.909200000001874-8.899400000000242,6.836900000002061-12.306600000000799,2.925800000000891-3.405299999999443,6.453099999998813-6.020999999999731,10.58009999999922-7.84479999999985,4.125-1.822200000000521,8.683600000000297-2.734800000000178,13.674800000000687-2.734800000000178,4.988300000000891,0,9.522399999998015.912599999999657,13.602500000000873,2.734800000000178,4.077199999999721,1.823800000000119,7.603499999997439,4.439500000000407,10.579099999999016,7.84479999999985,2.973699999998644,3.407200000000557,5.27639999999883,7.509699999999611,6.909199999997327,12.306600000000799,1.63090000000102,4.799799999998868,2.447300000000723,10.125999999999294,2.447300000000723,15.977499999999054,0,5.951200000000426-.816399999999703,11.299800000000687-2.447300000000723,16.049800000000687-1.632799999998497,4.750500000000102-3.935499999998683,8.83009999999922-6.909199999997327,12.23489999999947-2.975600000001577,3.407199999999648-6.501899999999296,6.023000000000138-10.579099999999016,7.84519999999975-4.080100000002858,1.82130000000052-8.614199999999983,2.73490000000038-13.602500000000873,2.73490000000038ZM2395.636707365316397,328.340800000000854c6.236300000000483,0,11.32129999999961-1.918000000000575,15.257799999999406-5.757800000000316,3.933600000000297-3.836499999999432,5.90139999999883-9.690499999999702,5.90139999999883-17.560599999999795v-10.651800000000549c0-7.867199999999684-1.967799999998533-13.721700000000055-5.90139999999883-17.561099999998987-3.936499999999796-3.83640000000014-9.021499999998923-5.757300000001123-15.257799999999406-5.757300000001123-6.239300000001094,0-11.324199999999109,1.920900000000984-15.257799999999406,5.757300000001123-3.936600000000908,3.839399999998932-5.901400000003377,9.693899999999303-5.901400000003377,17.561099999998987v10.651800000000549c0,7.870100000000093,1.964800000002469,13.724100000000362,5.901400000003377,17.560599999999795,3.933600000000297,3.839799999999741,9.018499999998312,5.757800000000316,15.257799999999406,5.757800000000316Z"/><path class="uuid-95b2c875-7ef6-4541-b9fd-5aeeaecb2933" d="M2475.811507365317084,338.561000000000604c-5.181700000001001,0-9.836900000002061-.91359999999986-13.961900000002061-2.73490000000038-4.127000000000407-1.822199999999611-7.60649999999805-4.413099999999758-10.436499999999796-7.772399999999834-2.831099999999424-3.358399999999165-4.99029999999766-7.435599999999795-6.476599999998143-12.235399999999572-1.489300000001094-4.79740000000038-2.231500000001688-10.170900000000074-2.231500000001688-16.122100000000501,0-5.948199999999815.742200000000594-11.32169999999951,2.231500000001688-16.121100000000297,1.486300000000483-4.797299999999268,3.645499999998719-8.87539999999899,6.476599999998143-12.23529999999937,2.830000000001746-3.357899999999972,6.309499999999389-5.948699999999917,10.436499999999796-7.772500000000036,4.125-1.822200000000521,8.780200000001059-2.734800000000178,13.961900000002061-2.734800000000178,7.388699999999517,0,13.314399999999296,1.607900000000882,17.777299999997922,4.821700000000419,4.461900000002061,3.216399999999339,7.795000000001892,7.413099999999758,10.003899999999703,12.59479999999985l-9.644499999998516,4.894499999999425c-1.344700000001467-3.837399999999434-3.550800000000891-6.813000000000102-6.621100000000297-8.924799999998868-3.072299999999814-2.109400000001187-6.909199999998236-3.166500000001179-11.515599999998813-3.166500000001179-3.455100000002858,0-6.476600000001781.553200000000288-9.068400000000111,1.655300000000352-2.590800000001764,1.104000000000269-4.75,2.64010000000053-6.476500000000669,4.606400000000576-1.727600000001985,1.96730000000025-3.023499999999331,4.318400000000111-3.886800000000221,7.052700000000186-.863199999999779,2.73489999999947-1.295900000000984,5.735899999999674-1.295900000000984,8.995699999999488v12.666900000000169c0,6.527899999999136,1.75,11.876000000000204,5.254000000000815,16.050299999999879,3.501899999999296,4.174399999999878,8.659100000000763,6.261300000000119,15.47360000000117,6.261300000000119,9.306599999999889,0,16.025399999998626-4.318400000000111,20.152299999997922-12.95510000000013l8.348700000002282,5.614199999999983c-2.399400000002061,5.375500000000102-5.973700000002282,9.644599999999627-10.723700000002282,12.811099999999897s-10.676699999999983,4.75-17.777299999997922,4.75Z"/><path class="uuid-95b2c875-7ef6-4541-b9fd-5aeeaecb2933" d="M2526.333907365315099,245.142500000000837c-2.496999999999389,0-4.295799999999872-.597600000000057-5.397399999998015-1.798799999999574-1.104500000001281-1.199200000000928-1.655300000002171-2.756800000001022-1.655300000002171-4.67870000000039v-1.871100000000297c0-1.918499999999767.550800000000891-3.477499999999964,1.655300000002171-4.678200000000288,1.101599999998143-1.198800000000119,2.900399999998626-1.799299999999675,5.397399999998015-1.799299999999675,2.494200000001001,0,4.294000000001688.600499999999556,5.397499999999127,1.799299999999675,1.102500000000873,1.200700000000325,1.656300000002375,2.759700000000521,1.656300000002375,4.678200000000288v1.871100000000297c0,1.921899999999368-.553800000001502,3.479499999999462-1.656300000002375,4.67870000000039-1.103499999997439,1.201199999999517-2.903299999998126,1.798799999999574-5.397499999999127,1.798799999999574ZM2520.576107365315693,262.560500000000502h11.515699999999924v74.272899999999936h-11.515699999999924v-74.272899999999936Z"/><path class="uuid-95b2c875-7ef6-4541-b9fd-5aeeaecb2933" d="M2584.486307365314133,338.561000000000604c-5.086899999998423,0-9.66899999999805-.91359999999986-13.746099999996659-2.73490000000038-4.080100000002858-1.822199999999611-7.582000000002154-4.438000000000102-10.507800000003044-7.84519999999975-2.928699999996752-3.40480000000025-5.181699999997363-7.484399999999368-6.765599999998813-12.23489999999947-1.582999999998719-4.75-2.374100000000908-10.09860000000026-2.374100000000908-16.049800000000687,0-5.85149999999976.791100000002189-11.177700000000186,2.374100000000908-15.977499999999054,1.583900000001449-4.796900000001187,3.836900000002061-8.899400000000242,6.765599999998813-12.306600000000799,2.925800000000891-3.405299999999443,6.427700000000186-6.020999999999731,10.507800000003044-7.84479999999985,4.077099999998609-1.822200000000521,8.659199999998236-2.734800000000178,13.746099999996659-2.734800000000178,4.989300000001094,0,9.451200000003155.908199999999852,13.386700000002747,2.725599999999758,3.933600000000297,1.817300000000614,7.291999999996733,4.329499999999825,10.076199999999517,7.532200000000557,2.782199999997829,3.203099999999722,4.917000000001281,7.003899999999703,6.405299999998533,11.402799999999843,1.486300000000483,4.399400000000242,2.231400000000576,9.228000000000065,2.231400000000576,14.486299999999574v5.451700000000528h-53.403299999998126v3.45510000000013c0,3.16649999999936.503899999999703,6.117199999999684,1.511699999999109,8.851999999999862,1.007799999999406,2.73490000000038,2.447299999999814,5.110400000000482,4.318400000000111,7.125,1.871100000000297,2.015699999999924,4.173800000000483,3.598699999999553,6.909100000000763,4.750999999999294,2.735399999997753,1.151400000000649,5.83009999999922,1.726600000000872,9.284199999998236,1.726600000000872,4.701199999999517,0,8.802800000001298-1.102600000000166,12.307600000000093-3.310599999999795,3.501000000000204-2.206000000000131,6.211999999999534-5.373000000000502,8.131900000000314-9.5l8.20509999999922,5.939499999999498c-2.399499999999534,5.119099999999889-6.14259999999922,9.246100000000297-11.227599999998347,12.38380000000052-5.086900000002061,3.137699999999313-11.132799999999406,4.707499999999527-18.136700000002747,4.707499999999527ZM2584.486307365314133,270.476500000000669c-3.166999999997643,0-6.044899999997142.548800000000483-8.635699999998906,1.646499999999833-2.591799999998329,1.097700000000259-4.822299999999814,2.647500000000036-6.693400000000111,4.648400000000038-1.871100000000297,2.001999999999498-3.335899999998219,4.363299999999981-4.390599999998813,7.081100000000333-1.056700000001001,2.718699999999444-1.583999999998923,5.698199999999815-1.583999999998923,8.941399999999703v1.001000000000204h41.023399999998219v-1.574700000000121c0-6.580600000000231-1.798800000000483-11.84769999999935-5.397399999998015-15.80619999999999-3.598700000002282-3.958000000000538-8.373100000000704-5.9375-14.322300000003452-5.9375Z"/><path class="uuid-95b2c875-7ef6-4541-b9fd-5aeeaecb2933" d="M2651.995107365317381,336.833400000000438c-4.031300000002375,0-7.078100000002451-1.124499999999898-9.140600000002451-3.373499999999694-2.064500000001317-2.249000000000706-3.094799999998941-5.195300000000316-3.094799999998941-8.834499999999935v-51.846199999999953h-12.235300000000279v-10.218700000000354h6.909200000001874c2.494099999999889,0,4.197199999998702-.504899999999907,5.110299999996641-1.512700000000223.910200000002078-1.006799999999203,1.367200000000594-2.756799999999203,1.367200000000594-5.252899999999499v-13.819400000000314h10.363300000000891v20.585000000000036h16.265599999997903v10.218700000000354h-16.265599999997903v53.834999999999127h15.114199999999983v10.219200000000455h-14.393499999998312Z"/><path class="uuid-95b2c875-7ef6-4541-b9fd-5aeeaecb2933" d="M2731.88180736531649,262.560500000000502h11.372100000000501l-33.251000000000204,91.545900000000074c-.863300000000891,2.207000000000335-1.727500000000873,4.052700000000186-2.590800000001764,5.541500000000269-.864299999997456,1.486799999999675-1.920899999997346,2.66359999999986-3.166999999997643,3.526899999999841-1.248100000000704.864199999999983-2.806700000001001,1.487299999999777-4.677800000001298,1.871000000000095-1.870999999999185.382399999999507-4.152300000002469.576200000000426-6.837800000001153.576200000000426h-5.90139999999883v-10.219700000000557h11.659199999998236l5.614199999999983-15.808599999999387-27.781199999997625-77.033200000000761h11.515599999998813l17.84860000000117,50.425799999999981,3.45509999999922,12.06880000000001h.718799999998737l4.031200000001263-12.06880000000001,17.992200000000594-50.425799999999981Z"/><path class="uuid-95b2c875-7ef6-4541-b9fd-5aeeaecb2933" d="M1589.949190177820128,477.751912500000799l-3.6103515625-11.4755859375h-15.98828125l-3.5458984375,11.4755859375h-8.638671875l15.0859375-44.9990234375h10.5732421875l14.9560546875,44.9990234375h-8.83203125ZM1578.473604240320128,440.489217187500799h-.322265625l-5.7373046875,18.5029296875h11.8623046875l-5.802734375-18.5029296875Z"/><path class="uuid-95b2c875-7ef6-4541-b9fd-5aeeaecb2933" d="M1604.910127677820128,477.751912500000799v-33.65234375h8.251953125v6.962890625h.322265625c.837890625-3.546875,3.5458984375-6.962890625,8.896484375-6.962890625h1.8056640625v7.80078125h-2.5791015625c-5.5439453125,0-8.4453125,1.546875-8.4453125,5.2216796875v20.6298828125h-8.251953125Z"/><path class="uuid-95b2c875-7ef6-4541-b9fd-5aeeaecb2933" d="M1632.311494865320128,469.177693750000799v-18.501953125h-4.96484375v-6.576171875h2.5791015625c2.4501953125,0,3.2236328125-1.16015625,3.2236328125-3.4814453125v-5.7373046875h7.4140625v9.21875h6.8974609375v6.576171875h-6.8974609375v20.5h6.3818359375v6.576171875h-5.9306640625c-5.673828125,0-8.703125-3.0947265625-8.703125-8.57421875Z"/><path class="uuid-95b2c875-7ef6-4541-b9fd-5aeeaecb2933" d="M1651.717744865320128,472.335896875000799l5.029296875-4.8984375c2.44921875,2.8359375,5.4150390625,4.576171875,9.21875,4.576171875,3.9326171875,0,5.6083984375-1.482421875,5.6083984375-3.8671875,0-1.9345703125-1.16015625-3.1591796875-4.1259765625-3.5458984375l-3.3525390625-.4521484375c-7.2197265625-.90234375-11.216796875-4.060546875-11.216796875-10.185546875,0-6.51171875,5.0927734375-10.63671875,12.7646484375-10.63671875,6.5751953125,0,9.927734375,1.93359375,13.1513671875,5.2861328125l-4.8349609375,4.8349609375c-1.9345703125-2.0625-4.7705078125-3.6103515625-8.05859375-3.6103515625-3.5458984375,0-5.0927734375,1.4189453125-5.0927734375,3.4814453125,0,2.255859375,1.224609375,3.2880859375,4.3837890625,3.8037109375l3.4169921875.451171875c7.3486328125,1.0322265625,10.89453125,4.3193359375,10.89453125,9.9287109375,0,6.5107421875-5.4794921875,11.0234375-13.8603515625,11.0234375-6.3828125,0-10.5732421875-2.3203125-13.92578125-6.189453125Z"/><path class="uuid-95b2c875-7ef6-4541-b9fd-5aeeaecb2933" d="M1730.373994865320128,477.751912500000799l-3.6103515625-11.4755859375h-15.98828125l-3.5458984375,11.4755859375h-8.638671875l15.0859375-44.9990234375h10.5732421875l14.9560546875,44.9990234375h-8.83203125ZM1718.898408927820128,440.489217187500799h-.322265625l-5.7373046875,18.5029296875h11.8623046875l-5.802734375-18.5029296875Z"/><path class="uuid-95b2c875-7ef6-4541-b9fd-5aeeaecb2933" d="M1742.433565177820128,472.335896875000799l5.029296875-4.8984375c2.44921875,2.8359375,5.4150390625,4.576171875,9.21875,4.576171875,3.9326171875,0,5.6083984375-1.482421875,5.6083984375-3.8671875,0-1.9345703125-1.16015625-3.1591796875-4.1259765625-3.5458984375l-3.3525390625-.4521484375c-7.2197265625-.90234375-11.216796875-4.060546875-11.216796875-10.185546875,0-6.51171875,5.0927734375-10.63671875,12.7646484375-10.63671875,6.5751953125,0,9.927734375,1.93359375,13.1513671875,5.2861328125l-4.8349609375,4.8349609375c-1.9345703125-2.0625-4.7705078125-3.6103515625-8.05859375-3.6103515625-3.5458984375,0-5.0927734375,1.4189453125-5.0927734375,3.4814453125,0,2.255859375,1.224609375,3.2880859375,4.3837890625,3.8037109375l3.4169921875.451171875c7.3486328125,1.0322265625,10.89453125,4.3193359375,10.89453125,9.9287109375,0,6.5107421875-5.4794921875,11.0234375-13.8603515625,11.0234375-6.3828125,0-10.5732421875-2.3203125-13.92578125-6.189453125Z"/><path class="uuid-95b2c875-7ef6-4541-b9fd-5aeeaecb2933" d="M1774.155244865320128,472.335896875000799l5.029296875-4.8984375c2.44921875,2.8359375,5.4150390625,4.576171875,9.21875,4.576171875,3.9326171875,0,5.6083984375-1.482421875,5.6083984375-3.8671875,0-1.9345703125-1.16015625-3.1591796875-4.1259765625-3.5458984375l-3.3525390625-.4521484375c-7.2197265625-.90234375-11.216796875-4.060546875-11.216796875-10.185546875,0-6.51171875,5.0927734375-10.63671875,12.7646484375-10.63671875,6.5751953125,0,9.927734375,1.93359375,13.1513671875,5.2861328125l-4.8349609375,4.8349609375c-1.9345703125-2.0625-4.7705078125-3.6103515625-8.05859375-3.6103515625-3.5458984375,0-5.0927734375,1.4189453125-5.0927734375,3.4814453125,0,2.255859375,1.224609375,3.2880859375,4.3837890625,3.8037109375l3.4169921875.451171875c7.3486328125,1.0322265625,10.89453125,4.3193359375,10.89453125,9.9287109375,0,6.5107421875-5.4794921875,11.0234375-13.8603515625,11.0234375-6.3828125,0-10.5732421875-2.3203125-13.92578125-6.189453125Z"/><path class="uuid-95b2c875-7ef6-4541-b9fd-5aeeaecb2933" d="M1806.972627677820128,460.861287500000799c0-10.765625,5.9951171875-17.53515625,15.6005859375-17.53515625,9.6708984375,0,15.666015625,6.76953125,15.666015625,17.53515625,0,10.830078125-5.9951171875,17.6640625-15.666015625,17.6640625-9.60546875,0-15.6005859375-6.833984375-15.6005859375-17.6640625ZM1829.600557365320128,464.019490625000799v-6.2529296875c0-5.0283203125-2.7080078125-7.7998046875-7.02734375-7.7998046875-4.2548828125,0-6.9619140625,2.771484375-6.9619140625,7.7998046875v6.2529296875c0,5.09375,2.70703125,7.865234375,6.9619140625,7.865234375,4.3193359375,0,7.02734375-2.771484375,7.02734375-7.865234375Z"/><path class="uuid-95b2c875-7ef6-4541-b9fd-5aeeaecb2933" d="M1843.271455802820128,460.861287500000799c0-10.765625,5.6083984375-17.53515625,15.5361328125-17.53515625,6.76953125,0,11.2177734375,3.22265625,13.216796875,8.509765625l-6.76953125,3.029296875c-.7734375-2.8359375-2.9013671875-4.8984375-6.447265625-4.8984375-4.5771484375,0-6.8974609375,3.22265625-6.8974609375,7.9287109375v6.1240234375c0,4.70703125,2.3203125,7.865234375,6.8974609375,7.865234375,3.9326171875,0,5.8671875-2.255859375,7.091796875-5.28515625l6.318359375,3.029296875c-2.1923828125,5.931640625-6.8984375,8.896484375-13.41015625,8.896484375-9.927734375,0-15.5361328125-6.833984375-15.5361328125-17.6640625Z"/><path class="uuid-95b2c875-7ef6-4541-b9fd-5aeeaecb2933" d="M1877.892549552820128,435.074178125000799v-1.2890625c0-2.3857421875,1.41796875-4.126953125,4.8349609375-4.126953125,3.3525390625,0,4.8349609375,1.7412109375,4.8349609375,4.126953125v1.2890625c0,2.384765625-1.482421875,4.125-4.8349609375,4.125-3.4169921875,0-4.8349609375-1.740234375-4.8349609375-4.125ZM1878.601533927820128,444.099568750000799h8.251953125v33.65234375h-8.251953125v-33.65234375Z"/><path class="uuid-95b2c875-7ef6-4541-b9fd-5aeeaecb2933" d="M1894.010713615320128,468.597615625000799c0-6.8984375,5.2216796875-10.314453125,14.3759765625-10.314453125h5.7373046875v-2.451171875c0-3.73828125-1.869140625-5.9306640625-6.2529296875-5.9306640625-3.8681640625,0-6.060546875,1.9345703125-7.671875,4.2548828125l-4.8994140625-4.3837890625c2.44921875-3.8681640625,6.3818359375-6.4462890625,13.1513671875-6.4462890625,9.08984375,0,13.9248046875,4.318359375,13.9248046875,11.990234375v15.859375h3.3525390625v6.576171875h-4.5771484375c-3.5458984375,0-5.7373046875-2.3203125-6.2529296875-5.802734375h-.38671875c-1.0966796875,4.3203125-4.771484375,6.576171875-9.7998046875,6.576171875-6.8330078125,0-10.701171875-3.9326171875-10.701171875-9.927734375ZM1914.123994865320128,467.695271875000799v-4.44921875h-5.2861328125c-4.3193359375,0-6.4462890625,1.4833984375-6.4462890625,4.126953125v1.095703125c0,2.70703125,1.869140625,4.060546875,5.0927734375,4.060546875,3.6748046875,0,6.6396484375-1.67578125,6.6396484375-4.833984375Z"/><path class="uuid-95b2c875-7ef6-4541-b9fd-5aeeaecb2933" d="M1933.984346427820128,469.177693750000799v-18.501953125h-4.96484375v-6.576171875h2.5791015625c2.4501953125,0,3.2236328125-1.16015625,3.2236328125-3.4814453125v-5.7373046875h7.4140625v9.21875h6.8974609375v6.576171875h-6.8974609375v20.5h6.3818359375v6.576171875h-5.9306640625c-5.673828125,0-8.703125-3.0947265625-8.703125-8.57421875Z"/><path class="uuid-95b2c875-7ef6-4541-b9fd-5aeeaecb2933" d="M1955.582979240320128,435.074178125000799v-1.2890625c0-2.3857421875,1.41796875-4.126953125,4.8349609375-4.126953125,3.3525390625,0,4.8349609375,1.7412109375,4.8349609375,4.126953125v1.2890625c0,2.384765625-1.482421875,4.125-4.8349609375,4.125-3.4169921875,0-4.8349609375-1.740234375-4.8349609375-4.125ZM1956.291963615320128,444.099568750000799h8.251953125v33.65234375h-8.251953125v-33.65234375Z"/><path class="uuid-95b2c875-7ef6-4541-b9fd-5aeeaecb2933" d="M1971.830049552820128,460.861287500000799c0-10.765625,5.9951171875-17.53515625,15.6005859375-17.53515625,9.6708984375,0,15.666015625,6.76953125,15.666015625,17.53515625,0,10.830078125-5.9951171875,17.6640625-15.666015625,17.6640625-9.60546875,0-15.6005859375-6.833984375-15.6005859375-17.6640625ZM1994.457979240320128,464.019490625000799v-6.2529296875c0-5.0283203125-2.7080078125-7.7998046875-7.02734375-7.7998046875-4.2548828125,0-6.9619140625,2.771484375-6.9619140625,7.7998046875v6.2529296875c0,5.09375,2.70703125,7.865234375,6.9619140625,7.865234375,4.3193359375,0,7.02734375-2.771484375,7.02734375-7.865234375Z"/><path class="uuid-95b2c875-7ef6-4541-b9fd-5aeeaecb2933" d="M2010.384737052820128,477.751912500000799v-33.65234375h8.251953125v5.6083984375h.322265625c1.3544921875-3.6103515625,4.1904296875-6.3818359375,9.4130859375-6.3818359375,6.8974609375,0,10.765625,4.7705078125,10.765625,13.1513671875v21.2744140625h-8.251953125v-20.4365234375c0-4.7705078125-1.611328125-7.2197265625-5.5439453125-7.2197265625-3.4169921875,0-6.705078125,1.8046875-6.705078125,5.4140625v22.2421875h-8.251953125Z"/></g></svg>