<?xml version="1.0" encoding="UTF-8"?><svg id="uuid-3a19194a-3fc5-4748-b5e1-3efb88e9eb8e" xmlns="http://www.w3.org/2000/svg" width="945.126791737298618mm" height="250.001295412023921mm" xmlns:xlink="http://www.w3.org/1999/xlink" viewBox="0 0 2679.099607365389602 708.665100000000166"><defs><style>.uuid-b0f4c6b2-19c2-4199-a57f-be7cf20210ec{fill:none;}.uuid-83fa43dc-06dc-46d3-b9e0-4d8f1652ec61{clip-path:url(#uuid-19fd4a71-d243-4a18-b3ba-f21bf75bedef);}.uuid-7b909ed0-f8a7-4c9a-a542-c1638c7acfeb{fill:#a39b4b;}</style><clipPath id="uuid-19fd4a71-d243-4a18-b3ba-f21bf75bedef"><rect class="uuid-b0f4c6b2-19c2-4199-a57f-be7cf20210ec" x=".000999999974738" width="2679.098607365414864" height="708.665100000000166"/></clipPath></defs><g class="uuid-83fa43dc-06dc-46d3-b9e0-4d8f1652ec61"><rect class="uuid-b0f4c6b2-19c2-4199-a57f-be7cf20210ec" x="1761.58593861538975" y="324.376990624999962" width="792" height="79.416015625"/><path class="uuid-7b909ed0-f8a7-4c9a-a542-c1638c7acfeb" d="M1829.70410267788975,379.384803124999962v7.7763671875h-64.0859375v-7.7763671875h64.0859375ZM1823.65527455288975,337.117224999999962v7.416015625h-51.98828125v-7.416015625h51.98828125Z"/><path class="uuid-7b909ed0-f8a7-4c9a-a542-c1638c7acfeb" d="M1866.13281361538975,337.981482812499962v-3.384765625h-23.1142578125v-4.96875h52.9970703125v4.96875h-23.1865234375v3.384765625h27.9384765625v12.9609375h-6.408203125v-8.4970703125h-21.5302734375v11.376953125h-2.015625l4.6083984375,2.232421875-1.5126953125,1.15234375c6.7685546875,3.3837890625,18.7216796875,6.7685546875,29.5947265625,8.2080078125-1.3681640625,1.296875-3.16796875,3.888671875-4.0322265625,5.47265625-4.96875-.8642578125-10.0810546875-2.232421875-14.9052734375-3.8876953125v2.591796875h-29.955078125v-2.736328125c-4.4638671875,1.728515625-9,3.16796875-13.1767578125,4.392578125-1.2958984375-1.3681640625-3.744140625-3.6728515625-5.328125-4.7529296875,11.80859375-2.591796875,24.6982421875-7.1279296875,32.474609375-12.6728515625h-2.4482421875v-11.376953125h-21.4580078125v8.4970703125h-6.1201171875v-12.9609375h27.578125ZM1848.99511830288975,343.021521874999962c4.46484375.7197265625,10.6572265625,2.232421875,13.9697265625,3.3837890625l-1.65625,3.6005859375,1.7998046875-.431640625.50390625,4.0322265625c-6.1201171875,1.728515625-12.1689453125,3.3837890625-17.353515625,4.82421875l-1.8720703125-4.896484375c4.248046875-.7197265625,10.0087890625-2.087890625,16.1298828125-3.3837890625-3.384765625-1.224609375-9.0732421875-2.736328125-13.3935546875-3.6005859375l1.8720703125-3.5283203125ZM1886.29492299038975,372.471717187499962l1.0078125-.359375,4.3203125,2.736328125c-3.384765625,4.4638671875-8.9287109375,8.7841796875-14.11328125,12.0244140625l5.904296875,2.5927734375-2.9521484375,4.82421875c-5.6162109375-2.880859375-16.9208984375-7.6328125-25.1298828125-10.7294921875l2.8798828125-4.103515625c3.6728515625,1.2958984375,8.208984375,3.0234375,12.529296875,4.6796875,3.3837890625-1.65625,7.2724609375-4.1044921875,10.296875-6.552734375h-35.859375v-5.1123046875h41.1162109375ZM1880.38964955288975,365.415076562499962c-4.3203125-1.7275390625-8.13671875-3.599609375-11.0888671875-5.328125-3.3837890625,1.9443359375-7.1279296875,3.744140625-11.0166015625,5.328125h22.10546875ZM1876.93359486538975,349.141639062499962l.7197265625.14453125-1.7998046875-2.736328125c4.1044921875-.6484375,10.224609375-2.5927734375,13.7529296875-3.744140625l2.736328125,3.671875c-3.744140625,1.4404296875-8.8564453125,2.5205078125-12.888671875,3.240234375,5.328125,1.15234375,11.5927734375,2.9521484375,15.193359375,4.3203125l-1.65625,4.2490234375c-4.1044921875-1.728515625-11.880859375-4.0322265625-17.7861328125-5.47265625l1.728515625-3.6728515625Z"/><path class="uuid-7b909ed0-f8a7-4c9a-a542-c1638c7acfeb" d="M1973.70410267788975,379.384803124999962v7.7763671875h-64.0859375v-7.7763671875h64.0859375ZM1967.65527455288975,337.117224999999962v7.416015625h-51.98828125v-7.416015625h51.98828125Z"/><path class="uuid-7b909ed0-f8a7-4c9a-a542-c1638c7acfeb" d="M2010.13281361538975,337.981482812499962v-3.384765625h-23.1142578125v-4.96875h52.9970703125v4.96875h-23.1865234375v3.384765625h27.9384765625v12.9609375h-6.408203125v-8.4970703125h-21.5302734375v11.376953125h-2.015625l4.6083984375,2.232421875-1.5126953125,1.15234375c6.7685546875,3.3837890625,18.7216796875,6.7685546875,29.5947265625,8.2080078125-1.3681640625,1.296875-3.16796875,3.888671875-4.0322265625,5.47265625-4.96875-.8642578125-10.0810546875-2.232421875-14.9052734375-3.8876953125v2.591796875h-29.955078125v-2.736328125c-4.4638671875,1.728515625-9,3.16796875-13.1767578125,4.392578125-1.2958984375-1.3681640625-3.744140625-3.6728515625-5.328125-4.7529296875,11.80859375-2.591796875,24.6982421875-7.1279296875,32.474609375-12.6728515625h-2.4482421875v-11.376953125h-21.4580078125v8.4970703125h-6.1201171875v-12.9609375h27.578125ZM1992.99511830288975,343.021521874999962c4.46484375.7197265625,10.6572265625,2.232421875,13.9697265625,3.3837890625l-1.65625,3.6005859375,1.7998046875-.431640625.50390625,4.0322265625c-6.1201171875,1.728515625-12.1689453125,3.3837890625-17.353515625,4.82421875l-1.8720703125-4.896484375c4.248046875-.7197265625,10.0087890625-2.087890625,16.1298828125-3.3837890625-3.384765625-1.224609375-9.0732421875-2.736328125-13.3935546875-3.6005859375l1.8720703125-3.5283203125ZM2030.29492299038975,372.471717187499962l1.0078125-.359375,4.3203125,2.736328125c-3.384765625,4.4638671875-8.9287109375,8.7841796875-14.11328125,12.0244140625l5.904296875,2.5927734375-2.9521484375,4.82421875c-5.6162109375-2.880859375-16.9208984375-7.6328125-25.1298828125-10.7294921875l2.8798828125-4.103515625c3.6728515625,1.2958984375,8.208984375,3.0234375,12.529296875,4.6796875,3.3837890625-1.65625,7.2724609375-4.1044921875,10.296875-6.552734375h-35.859375v-5.1123046875h41.1162109375ZM2024.38964955288975,365.415076562499962c-4.3203125-1.7275390625-8.13671875-3.599609375-11.0888671875-5.328125-3.3837890625,1.9443359375-7.1279296875,3.744140625-11.0166015625,5.328125h22.10546875ZM2020.93359486538975,349.141639062499962l.7197265625.14453125-1.7998046875-2.736328125c4.1044921875-.6484375,10.224609375-2.5927734375,13.7529296875-3.744140625l2.736328125,3.671875c-3.744140625,1.4404296875-8.8564453125,2.5205078125-12.888671875,3.240234375,5.328125,1.15234375,11.5927734375,2.9521484375,15.193359375,4.3203125l-1.65625,4.2490234375c-4.1044921875-1.728515625-11.880859375-4.0322265625-17.7861328125-5.47265625l1.728515625-3.6728515625Z"/><path class="uuid-7b909ed0-f8a7-4c9a-a542-c1638c7acfeb" d="M2088.97363392788975,358.214881249999962v8.4248046875h22.8251953125v6.2646484375h-22.8251953125v11.953125h29.162109375v6.3359375h-64.8779296875v-6.3359375h28.5869140625v-11.953125h-22.10546875v-6.2646484375h22.10546875v-8.4248046875h7.12890625ZM2058.01074330288975,351.230506249999962c1.51171875-.2880859375,3.0966796875-1.4404296875,5.0400390625-3.3125,1.583984375-1.3681640625,5.7607421875-5.7607421875,9.6494140625-10.873046875h-17.7138671875v-6.3369140625h60.7734375v6.3369140625h-34.130859375c-3.81640625,4.96875-7.9208984375,9.5771484375-11.953125,13.3935546875l30.2421875-1.080078125c-2.6640625-2.376953125-5.400390625-4.7529296875-7.9921875-6.7685546875l5.400390625-3.6728515625c6.48046875,4.896484375,14.689453125,11.953125,18.6494140625,16.921875l-5.9765625,4.17578125c-1.080078125-1.439453125-2.5205078125-3.16796875-4.248046875-4.9677734375-38.1630859375,1.6552734375-42.4833984375,1.7998046875-45.5078125,2.8076171875-.3603515625-1.439453125-1.4404296875-4.82421875-2.232421875-6.6240234375Z"/><path class="uuid-7b909ed0-f8a7-4c9a-a542-c1638c7acfeb" d="M2189.70410267788975,379.384803124999962v7.7763671875h-64.0859375v-7.7763671875h64.0859375ZM2183.65527455288975,337.117224999999962v7.416015625h-51.98828125v-7.416015625h51.98828125Z"/><path class="uuid-7b909ed0-f8a7-4c9a-a542-c1638c7acfeb" d="M2226.13281361538975,337.981482812499962v-3.384765625h-23.1142578125v-4.96875h52.9970703125v4.96875h-23.1865234375v3.384765625h27.9384765625v12.9609375h-6.408203125v-8.4970703125h-21.5302734375v11.376953125h-2.015625l4.6083984375,2.232421875-1.5126953125,1.15234375c6.7685546875,3.3837890625,18.7216796875,6.7685546875,29.5947265625,8.2080078125-1.3681640625,1.296875-3.16796875,3.888671875-4.0322265625,5.47265625-4.96875-.8642578125-10.0810546875-2.232421875-14.9052734375-3.8876953125v2.591796875h-29.955078125v-2.736328125c-4.4638671875,1.728515625-9,3.16796875-13.1767578125,4.392578125-1.2958984375-1.3681640625-3.744140625-3.6728515625-5.328125-4.7529296875,11.80859375-2.591796875,24.6982421875-7.1279296875,32.474609375-12.6728515625h-2.4482421875v-11.376953125h-21.4580078125v8.4970703125h-6.1201171875v-12.9609375h27.578125ZM2208.99511830288975,343.021521874999962c4.46484375.7197265625,10.6572265625,2.232421875,13.9697265625,3.3837890625l-1.65625,3.6005859375,1.7998046875-.431640625.50390625,4.0322265625c-6.1201171875,1.728515625-12.1689453125,3.3837890625-17.353515625,4.82421875l-1.8720703125-4.896484375c4.248046875-.7197265625,10.0087890625-2.087890625,16.1298828125-3.3837890625-3.384765625-1.224609375-9.0732421875-2.736328125-13.3935546875-3.6005859375l1.8720703125-3.5283203125ZM2246.29492299038975,372.471717187499962l1.0078125-.359375,4.3203125,2.736328125c-3.384765625,4.4638671875-8.9287109375,8.7841796875-14.11328125,12.0244140625l5.904296875,2.5927734375-2.9521484375,4.82421875c-5.6162109375-2.880859375-16.9208984375-7.6328125-25.1298828125-10.7294921875l2.8798828125-4.103515625c3.6728515625,1.2958984375,8.208984375,3.0234375,12.529296875,4.6796875,3.3837890625-1.65625,7.2724609375-4.1044921875,10.296875-6.552734375h-35.859375v-5.1123046875h41.1162109375ZM2240.38964955288975,365.415076562499962c-4.3203125-1.7275390625-8.13671875-3.599609375-11.0888671875-5.328125-3.3837890625,1.9443359375-7.1279296875,3.744140625-11.0166015625,5.328125h22.10546875ZM2236.93359486538975,349.141639062499962l.7197265625.14453125-1.7998046875-2.736328125c4.1044921875-.6484375,10.224609375-2.5927734375,13.7529296875-3.744140625l2.736328125,3.671875c-3.744140625,1.4404296875-8.8564453125,2.5205078125-12.888671875,3.240234375,5.328125,1.15234375,11.5927734375,2.9521484375,15.193359375,4.3203125l-1.65625,4.2490234375c-4.1044921875-1.728515625-11.880859375-4.0322265625-17.7861328125-5.47265625l1.728515625-3.6728515625Z"/><path class="uuid-7b909ed0-f8a7-4c9a-a542-c1638c7acfeb" d="M2333.70410267788975,379.384803124999962v7.7763671875h-64.0859375v-7.7763671875h64.0859375ZM2327.65527455288975,337.117224999999962v7.416015625h-51.98828125v-7.416015625h51.98828125Z"/><path class="uuid-7b909ed0-f8a7-4c9a-a542-c1638c7acfeb" d="M2406.85546986538975,355.910193749999962v7.4892578125h-66.2451171875v-7.4892578125h66.2451171875Z"/><path class="uuid-7b909ed0-f8a7-4c9a-a542-c1638c7acfeb" d="M2424.49121205288975,371.103553124999962v-19.1533203125h21.3857421875v-10.0810546875h-16.6337890625c-3.240234375,5.400390625-6.83984375,10.224609375-10.583984375,13.8974609375-1.296875-1.224609375-4.1767578125-3.4560546875-5.8330078125-4.392578125,6.6962890625-5.83203125,12.45703125-15.12109375,15.841796875-24.6982421875l6.912109375,1.80078125c-.8642578125,2.3037109375-1.7998046875,4.6083984375-2.8798828125,6.83984375h42.123046875v6.552734375h-21.9619140625v10.0810546875h20.3056640625v6.3369140625h-20.3056640625v12.81640625h25.634765625v6.625h-25.634765625v16.0576171875h-6.984375v-16.0576171875h-33.123046875v-6.625h11.7373046875ZM2445.87695424038975,371.103553124999962v-12.81640625h-14.6171875v12.81640625h14.6171875Z"/><path class="uuid-7b909ed0-f8a7-4c9a-a542-c1638c7acfeb" d="M2522.19726674038975,326.532264062499962c1.15234375,2.16015625,2.3759765625,4.896484375,3.240234375,7.2001953125h24.6259765625v6.3369140625h-53.068359375v13.033203125c0,11.80859375-.935546875,29.08984375-6.984375,40.611328125-1.3681640625-1.0078125-4.46484375-2.4482421875-6.1923828125-3.0244140625,5.904296875-10.9453125,6.408203125-26.642578125,6.408203125-37.515625v-19.44140625h27.5068359375c-.720703125-1.8720703125-1.5126953125-3.9599609375-2.376953125-5.6162109375l6.8408203125-1.583984375ZM2539.47851674038975,368.439490624999962l1.224609375-.2880859375,4.248046875,2.232421875c-3.240234375,5.9765625-8.064453125,10.5126953125-14.041015625,13.8974609375,5.9765625,1.7998046875,12.888671875,2.9521484375,20.2333984375,3.599609375-1.439453125,1.4404296875-3.095703125,4.1767578125-3.9599609375,5.9052734375-9.0009765625-1.0087890625-17.1376953125-2.9521484375-24.1220703125-5.8330078125-7.3447265625,2.736328125-15.697265625,4.392578125-24.337890625,5.400390625-.50390625-1.65625-1.728515625-4.248046875-2.80859375-5.759765625,6.9130859375-.576171875,13.7529296875-1.65625,19.8740234375-3.384765625-4.1044921875-2.5205078125-7.6328125-5.6162109375-10.44140625-9.216796875l2.736328125-1.080078125h-8.712890625v-5.47265625h40.107421875ZM2515.86132924038975,341.869178124999962v5.6162109375h15.625v-5.6162109375h6.6962890625v5.6162109375h11.0888671875v5.47265625h-11.0888671875v11.6650390625h-28.802734375v-11.6650390625h-10.80078125v-5.47265625h10.80078125v-5.6162109375h6.4814453125ZM2512.33300892788975,373.912146874999962c2.7353515625,3.0244140625,6.5517578125,5.544921875,11.0166015625,7.560546875,4.6083984375-1.9443359375,8.4970703125-4.4638671875,11.44921875-7.560546875h-22.4658203125ZM2515.86132924038975,352.958045312499962v6.4091796875h15.625v-6.4091796875h-15.625Z"/><rect class="uuid-7b909ed0-f8a7-4c9a-a542-c1638c7acfeb" x="1633.978507365389305" y="222.215900000001056" width="3" height="264.238199999999779"/><path class="uuid-7b909ed0-f8a7-4c9a-a542-c1638c7acfeb" d="M158.444295997360314,271.572299999999814c-9.103499770026247,21.529300000000148-14.517499633257103,44.146500000000742-16.167888631971437,67.424800000000687,3.587888949768967-2.91990000000078,8.16008883426548-4.677700000000186,13.136688708545989-4.677700000000186,5.496099861156836,0,10.488311291454011,2.152299999999741,14.215799640878686,5.635700000000725,7.337899814629054-95.590800000001764,87.223597796546528-170.869100000001708,184.696295334179013-170.869100000001708,7.55269980920275,0,13.675799654520233-6.121099999998478,13.675799654520233-13.674799999998868,0-7.552800000001298-6.123099845317483-13.674800000000687-13.675799654520233-13.674800000000687-28.687499275292794,0-56.533198571851244,5.625-82.761697909263603,16.717700000001059-25.318399360403419,10.709999999999127-48.052798786084168,26.033199999998033-67.565498293151904,45.548899999999776-19.517499506946479,19.517499999999927-34.844699119748839,42.250899999999092-45.553698849216744,67.569299999999203Z"/><path class="uuid-7b909ed0-f8a7-4c9a-a542-c1638c7acfeb" d="M339.185491431453556,538.965900000001056c-94.952084066064344-7.684600000000501-169.667895713828329-86.963900000000649-170.096595702998457-183.794000000001688,0-7.551699999999983-6.121099845368008-13.676699999999983-13.675799654520233-13.676699999999983-7.552799809200224,0-13.675799654520233,6.125-13.675799654520233,13.676699999999983.109399997236324,28.392600000001039,5.722699855432438,55.952199999999721,16.70699957794568,81.925800000000891,10.708999729467905,25.316399999999703,26.036199342270265,48.051799999999275,45.553698849216744,67.565399999999499,19.512699507067737,19.518599999999424,42.247098932748486,34.842800000000352,67.565498293151904,45.55370000000039,21.255799463033327,8.988300000000891,43.57129889929638,14.384799999999814,66.538098319106211,16.109399999999368-2.8886999270253-3.578100000000632-4.627999883086886-8.121099999998478-4.627999883086886-13.067399999999907,0-5.534200000000055,2.181699944885622-10.557600000000093,5.711899855705269-14.292899999998554Z"/><path class="uuid-7b909ed0-f8a7-4c9a-a542-c1638c7acfeb" d="M502.522487305213872,487.408199999999852c-2.670899932527391-2.670900000000984-6.167999844183214-4.005799999998999-9.667999755765777-4.005799999998999s-6.999999823165126,1.334899999998015-9.671899755667255,4.005799999998999c-33.341799157715286,32.290100000000166-78.774398009991273,52.175800000000891-128.857396744788275,52.175800000000891-7.55269980920275,0-13.674783683602072,6.122099999998682-13.674783683602072,13.674799999998868,0,7.552799999999479,6.122083874399323,13.674800000000687,13.674783683602072,13.674800000000687,28.691399275194271,0,56.535098571803246-5.623999999999796,82.764597909190343-16.716800000000148,24.40729938341974-10.322200000000521,46.399498827850039-24.949199999999109,65.432698347030964-43.468700000001263,5.343699865006784-5.33889999999883,5.343699865006784-13.998999999999796,0-19.339899999999034Z"/><path class="uuid-7b909ed0-f8a7-4c9a-a542-c1638c7acfeb" d="M354.324191049017827,141.732500000000073c-28.690399275219534,0-56.530298571924504,5.629799999998795-82.760697909288865,16.719699999999648-25.319399360378156,10.709899999999834-48.04889878618269,26.030300000000352-67.569398293053382,45.550800000000891-19.510687481286368,19.519500000000335-34.839799119872623,42.25-45.549798849315266,67.569299999999203-9.099599770124769,21.530300000000352-14.520499633181316,44.150400000000445-16.169888631970025,67.41990000000078,3.589888949767555-2.91990000000078,8.160188834312066-4.66990000000078,13.139688708519316-4.66990000000078,5.490199861305882,0,10.490199734995258,2.150400000000445,14.209899641027732,5.629899999999907,7.33989981457853-95.589900000000853,87.230497796372219-170.869199999999182,184.70019533408049-170.869199999999182,7.54979980927601,0,13.679699654421711-6.120100000000093,13.679699654421711-13.670900000000984,0-7.549800000000687-6.129899845145701-13.679599999999482-13.679699654421711-13.679599999999482ZM339.184591431476292,538.962900000000445c-94.95118406608708-7.680599999999686-169.669995713775279-86.959899999999834-170.089895703167713-183.790000000000873,0-7.550799999999072-6.130799845122965-13.680699999998978-13.680599654398975-13.680699999998978s-13.680688708520393,6.129899999999907-13.680688708520393,13.680699999998978c.111289051312269,28.389600000000428,5.730488909359337,55.949200000000928,16.710888631971102,81.929700000000594,10.709999729442643,25.309499999999389,26.039111368028898,48.049800000000687,45.549798849315266,67.559499999999389,19.520499506870692,19.520599999999831,42.249998932675226,34.840900000001056,67.569398293053382,45.550800000000891,21.249999463179847,8.989299999999275,43.570298899321642,14.389699999999721,66.540998319032951,16.109399999999368-2.890599926977302-3.569299999999203-4.630899883013626-8.120100000000093-4.630899883013626-13.059600000000501,0-5.539999999999054,2.180699944910884-10.560499999999593,5.710999855728005-14.299799999998868ZM502.524407365390289,487.412099999999555c-2.669919992777068-2.679599999999482-6.169919904359631-4.009699999998702-9.669919815942194-4.009699999998702s-6.999999823165126,1.33009999999922-9.669899755717779,4.009699999998702c-33.339899157763284,32.290100000000166-78.780298009842227,52.170900000000984-128.860396744712489,52.170900000000984-7.549783683627538,0-13.66989965466928,6.119199999999182-13.66989965466928,13.679699999998775,0,7.549800000000687,6.120115971041741,13.670000000000073,13.66989965466928,13.670000000000073,28.690399275219534,0,56.540098571676936-5.620199999999386,82.770497909041296-16.719799999998941,24.399399383619311-10.320299999999406,46.388718407330089-24.940399999999499,65.429718407331166-43.459899999999834,5.339879804878365-5.340900000001056,5.339879804878365-14,0-19.340900000001056Z"/><path class="uuid-7b909ed0-f8a7-4c9a-a542-c1638c7acfeb" d="M466.904288205005287,241.753000000000611c-30.059599240630632-30.070300000001225-70.049798230393208-46.630900000000111-112.58009715598746-46.630900000000111s-82.510697915604396,16.560599999998885-112.58009715598746,46.630900000000111c-30.070299240360328,30.069299999999203-46.639598821784602,70.059499999999389-46.639598821784602,112.579999999999927,0,42.529299999998329,16.569299581424275,82.509799999999814,46.639598821784602,112.589899999999034,30.069399240383063,30.069300000001022,70.049798230393208,46.629899999999907,112.58009715598746,46.629899999999907s82.520497915356827-16.560599999998885,112.58009715598746-46.629899999999907c30.079119160383925-30.08009999999922,46.629898822029645-70.060600000000704,46.629898822029645-112.589899999999034,0-42.520500000000538-16.55077966164572-82.510700000000725-46.629898822029645-112.579999999999927ZM264.454093319327512,310.462900000000445h-12.950199672850431v87.75h12.950199672850431v7.609399999999368h-22.339799435649184v-102.979499999999462h22.339799435649184v7.620100000000093ZM282.083992873958778,405.822299999999814v-72.729499999999462c0-6.259799999999814-.110399997211061-11.930700000000797-.330099991660973-17.020500000000538-.209999994694954-5.089799999999741-.530299986603495-9.5-.95999997574836-13.229499999999462h13.189514458839767v72.410200000000259c0,2.059499999999389.031185207177259,4.479499999999462.100585205424068,7.269500000000335.059499998496904,2.789999999999054.149414794575932,5.620100000000093.260699993414164,8.5.099599997483892,2.870100000000093.229499994202342,5.620100000000093.378899990428181,8.240199999998367.150399996200576,2.609400000001187.330099991660973,4.799800000000687.550814810734664,6.559600000000501h-13.190414491431511ZM351.594691117970797,348.612299999998868h-12.100599694313132v48.780300000002171h12.100599694313132v8.429699999998775h-36.040999089527759v-8.429699999998775h11.90039969937061v-48.780300000002171h-11.90039969937061v-8.439399999999296h36.040999089527759v8.439399999999296ZM427.86428919123864,398.742200000000594c0,7.25-.640699983814557,13.270499999998719-1.900399951991858,18.060599999998885-1.269599967927206,4.780200000001059-3.040099923200614,8.599600000001374-5.309599865868222,11.450200000001132-2.270499942642346,2.859299999998257-5.010799873416545,4.879899999999907-8.209999792597955,6.049799999998868-3.190399919403717,1.179700000000594-6.740199829728226,1.769500000000335-10.650399730948266,1.769500000000335-1.929599951254204,0-3.999999898951501-.309600000000501-6.209899843124731-.929699999998775-2.209999944170704-.620100000000093-4.219699893401412-1.490200000000186-6.020499847909377-2.610300000000279l4.190399894141592-9.649400000000242c.979517312449389.72939999999835,2.299799941902165,1.339799999999741,3.950199900209554,1.829999999999927,1.66019995805982.5,3.339799915629555.739299999999275,5.049799872431322.739299999999275,2.070299947699823,0,3.910199901220039-.33009999999922,5.539999860047828-.989299999999275,1.629899958825263-.66990000000078,3.009799923966057-1.840799999999945,4.150399895152077-3.510700000000725,1.139699971208756-1.669899999998961,2.009799949228182-3.969699999999648,2.609399934081011-6.889699999999721.600599984827568-2.919899999998961.900399977253983-6.629800000000614.900399977253983-11.129800000000614v-28.33009999999922c0-5.139699999999721-.269499993191857-9.320299999999406-.799799979795353-12.509799999999814-.539999986358453-3.200199999999313-1.350599965880974-5.690399999999499-2.420882146931035-7.470699999999852-1.069317764899097-1.779300000000148-2.409217731050376-2.969699999999648-4.019517690370776-3.569300000001022-1.609399959343136-.600599999999758-3.490299911827606-.900399999998626-5.629899857776763-.900399999998626-2.319399941407028,0-4.580099884296942.549799999998868-6.790099828467646,1.640599999998813-2.20989994417323,1.089900000000853-4.240199892883538,2.509799999999814-6.089799846158712,4.25-1.839799953522743,1.729500000001281-3.470682777226102,3.699200000000928-4.890599876453052,5.889699999999721-1.409199964400614,2.179599999999482-2.458999937880435,4.370100000000093-3.149399920439464,6.559500000001208v37.33009999999922h-11.910199699123041v-39.58009999999922c0-6.349599999999555-.36039999089553-11.719699999999648-1.089799972469336-16.120100000000093-.72949998157128-4.399400000000242-1.440499963609909-7.710000000000946-2.1298999461942-9.949200000000928h11.589799707217026c.2597999934369.689399999999296.509799987121369,1.580100000001039.769499980560795,2.679700000000594.260799993411638,1.089799999999741.49029998761398,2.240200000000186.710999982038629,3.440399999999499.208999994720216,1.199200000000928.410099989640003,2.379899999999907.580099985345441,3.540000000000873l.509699987123895,2.889699999999721c4.119199895940255-4.889699999999721,8.259799791339901-8.41990000000078,12.429699685999367-10.58009999999922,4.160199894904508-2.16990000000078,8.499999785271939-3.259700000000521,12.999999671592377-3.259700000000521,3.42969991335849,0,6.470699836536369.569299999999203,9.099599770124769,1.709899999999834,2.640699933290307,1.139699999999721,4.871099876945664,2.939500000000407,6.669899831504154,5.410200000000259,1.800799954507966,2.469699999999648,3.160199920166633,5.659099999998944,4.080099896928004,9.589799999999741.93069997648854,3.929700000000594,1.390699964867963,8.649400000000242,1.390699964867963,14.189500000000407v28.959899999999834ZM466.534188214354799,405.822299999999814h-22.330099435894226v-7.609399999999368h12.939399673123262v-87.75h-12.939399673123262v-7.620100000000093h22.330099435894226v102.979499999999462Z"/><path class="uuid-7b909ed0-f8a7-4c9a-a542-c1638c7acfeb" d="M731.932596681190262,379.630900000000111h-54.992198610783817v-9.128899999999703h54.992198610783817v9.128899999999703ZM724.776296861969968,476.837499999999636h-9.421289496580357v-10.005900000000111h-21.983000000001994v10.005900000000111h-9.566809468400606v-49.370600000000195h40.971098964982957v49.370600000000195ZM724.33789687305034,398.473700000000463l-40.386798979749074.145499999998719v-9.127899999999499h40.386798979749074v8.98240000000078ZM724.483896869360251,417.608000000000175h-40.532798976058984v-9.129899999999907h40.532798976058984v9.129899999999907ZM722.658196915479493,361.081599999999526l-37.100099062774461.145500000000538v-9.127899999999499h37.100099062774461v8.982399999998961ZM715.355007365389611,457.847700000000259v-21.396899999999732h-22.128509706404657v21.396899999999732h22.128509706404657ZM809.711894716319875,417.753999999998996l-78.947298005630728.14600000000064v-8.982399999998961h19.572299505571209l4.236299892978423-22.566400000001522h-18.257799538769177v-8.983899999999267h19.718799501859394l3.140599920659952-16.724099999999453h-27.971699293369966v-9.129000000000815h72.5204981679708v8.983400000000984h-34.690399123639509l-2.994188378559556,16.724699999998847h30.088887694088044l-3.140599920658133,31.547800000000279h16.724599577499248v8.983899999999267ZM797.004895037320239,477.129500000000917h-9.421887671929653v-9.859900000001289h-36.953111156541127v9.859900000001289h-9.568399758280066v-49.516100000000733h55.943398586750845v49.516100000000733ZM787.583007365390586,458.285700000000361v-21.689899999999398h-37.099611152840225v21.689899999999398h37.099611152840225ZM786.122007365389436,386.20470000000023h-21.68941150522005l-4.236299892980242,22.712900000000445h23.662099402239619l2.263611995960673-22.712900000000445Z"/><path class="uuid-7b909ed0-f8a7-4c9a-a542-c1638c7acfeb" d="M974.383790556350505,379.630900000000111h-132.771496645911611v-9.128899999999703h132.771496645911611v9.128899999999703ZM954.81149105079021,398.327199999999721h-94.94139760158032v-8.835900000000038h94.94139760158032v8.835900000000038ZM954.81149105079021,417.316000000000713h-94.94139760158032v-8.837900000000445h94.94139760158032v8.837900000000445ZM951.379891137479717,477.129500000000917h-9.421883772089132v-10.297900000001391h-68.5039142593414v10.297900000001391h-9.420899761998953v-49.662600000001476h87.346697793429485v49.662600000001476ZM951.233391141180618,360.132400000000416l-86.470697815560925.218799999998737v-8.836999999999534h86.470697815560925v8.618200000000797ZM941.958007365390586,457.847700000000259v-21.396899999999732h-68.5039142593414v21.396899999999732h68.5039142593414Z"/><path class="uuid-7b909ed0-f8a7-4c9a-a542-c1638c7acfeb" d="M1139.057586396340412,450.692000000000917h-58.790998514810781v10.150899999998728c0,10.856400000000576-5.769580516140195,16.286600000001272-17.310580516139453,16.286600000001272h-9.712918801191336l-3.578081198809741-8.983400000000984h13.584000000000742c4.771480825500475,0,7.158180765209181-2.191899999999805,7.158180765209181-6.572799999999916v-10.881299999999101h-64.122998380118588v-9.129899999999907h64.122998380118588v-6.280800000000454c10.173819234791154-3.797300000000178,17.453099559101247-7.350099999999657,21.835899448380587-10.662100000001374h-55.943298586760648v-8.399900000000343h72.158218373171621v7.961900000002061c-7.597720004101575,5.161199999998644-16.994219766731476,10.44289999999819-28.191419483860955,15.847200000000157v1.533699999999953h58.790998514810781v9.129899999999907ZM1132.922786551320314,423.595800000000963h-8.7655997785605v-15.117700000000696h-102.023397422670314v15.995100000000093h-9.568399758280066v-24.538099999999758h12.560617773580816v-44.550699999999779c6.91208173449013-.681200000000899,14.486281543149744-3.968300000000454,22.714781335278531-9.858400000000984l4.820299878230799,6.718699999999444c-4.433599887990567,4.089400000000751-10.470699735480594,7.182099999999991-18.113299542419554,9.274900000000343v6.134799999999814h18.695299527718817v7.595699999999852h-18.695299527718817v7.959900000001653h18.695299527718817v7.4487999999983h-18.695299527718817v9.276300000001356h77.632798038830515v-9.276300000001356h-17.820299549821357v-7.30370000000039h17.820299549821357v-8.54399999999805h-17.673799553520439v-7.448700000000827h17.673799553520439v-7.960500000001048h-20.667899477881292v-8.837399999998524h29.943319767960929v49.224199999998746h11.466779185930136v23.80710000000181ZM1091.512687597429249,366.924399999999878l-5.111399870878813,6.280300000000352c-2.777280361160592-2.676800000001094-6.550699834509942-5.57470000000103-11.320280361160258-8.690500000000611-3.943319253239679,3.311100000000806-8.375,6.353100000000268-13.292919017050735,9.129000000000815l-5.988299848730094-5.25879999999961c4.722599880700727-1.947299999999814,8.859399776200007-4.235900000001493,12.415999686350915-6.864800000001196-5.941399849911249-2.238799999999173-10.736299728780068-3.797300000000178-14.388699636510864-4.673300000000381l3.726599905859985-6.72019999999975c5.402318910080794,1.363199999999779,10.831999726360664,3.117200000000594,16.285099588600133,5.258300000001327,3.457099912669946-3.260300000001735,6.353599839490926-6.595700000001671,8.691499780430604-10.005400000001828l6.13471954104898,4.89350000000195c-1.949219646779966,3.019099999999526-4.480519582828492,5.964899999999034-7.595719504139197,8.837499999999636,3.601599909019569,2.043400000000474,7.083999821050384,4.648899999998321,10.443399736179344,7.814399999999296ZM1092.387687575330347,393.506900000000314l-6.132799845079717,4.820299999999406c-3.943399900381337-3.018000000000029-8.035199797010137-5.524900000000343-12.269599690040195-7.520999999998821-2.628899933590219,1.996099999998478-7.3026998155201,4.502999999998792-14.021499645790755,7.520999999998821l-5.550699859779343-4.381799999999203c6.279299841378815-2.968300000000454,10.783199727598912-5.551300000000992,13.511699658669386-7.740700000000288-2.728499931070473-1.703100000000632-6.865299826569753-3.602999999999156-12.415999686350915-5.697799999999916l5.476499861661068-4.599599999999555c5.013718996769967,1.802299999999377,9.298899765090027,3.676299999999173,12.85349967528964,5.622099999998682,1.361399965609962-.777399999999034,4.113299896091121-3.113799999999173,8.251999791540584-7.011199999999008l6.718699830269543,3.433100000000195c-2.482399937289301,3.214299999999639-5.255799867229143,5.868599999999788-8.324199789709382,7.961399999998321,4.040999897908478,1.850100000001476,8.007799797698681,4.38130000000092,11.902399699320085,7.594200000001365Z"/><path class="uuid-7b909ed0-f8a7-4c9a-a542-c1638c7acfeb" d="M1303.583007365390586,450.692000000000917h-58.791000000001077v10.150899999998728c0,10.856400000000576-5.769623494370535,16.286600000001272-17.308623202869057,16.286600000001272h-9.712899754629689l-3.57809990961141-8.983400000000984h13.583899656840003c4.769599879509769,0,7.156299819220294-2.191899999999805,7.156299819220294-6.572799999999916v-10.881299999999101h-64.121098380170224v-9.129899999999907h64.121098380170224v-6.280800000000454c10.175799742939489-3.797300000000178,17.453099559099428-7.350099999999657,21.837899448330063-10.662100000001374h-55.943398586749026v-8.399900000000343h72.156298177169447v7.961900000002061c-7.595699808111021,5.161199999998644-16.994199570690398,10.44289999999819-28.191375647700625,15.847200000000157v1.533699999999953h58.791000000001077v9.129899999999907ZM1297.450182395010415,423.595800000000963h-8.767599778509975v-15.117700000000696h-102.023397422670314v15.995100000000093h-9.566399758339685v-24.538099999999758h12.560499682698719v-44.550699999999779c6.914099825329686-.681200000000899,14.48439963409146-3.968300000000454,22.712899426220247-9.858400000000984l4.820299878230799,6.718699999999444c-4.429699888090909,4.089400000000751-10.468699735540213,7.182099999999991-18.113299542419554,9.274900000000343v6.134799999999814h18.697299527670111v7.595699999999852h-18.697299527670111v7.959900000001653h18.697299527670111v7.4487999999983h-18.697299527670111v9.276300000001356h77.632822485169527v-9.276300000001356h-17.818323996210893v-7.30370000000039h17.818323996210893v-8.54399999999805h-17.67382399986127v-7.448700000000827h17.67382399986127v-7.960500000001048h-20.667923924220304v-8.837399999998524h29.943299243570436v49.224199999998746h11.468799710270105v23.80710000000181ZM1258.639583375450457,391.868700000000899l-6.654299831900062,6.083999999998923c-3.037099923280039-4.563500000000204-7.382799813491147-10.276299999999537-11.585899707310091-13.824699999999211-6.533199834961124,7.279300000000148-11.906299699230658,11.912099999999555-16.105499593149943,13.893099999999322l-6.583999833670532-5.528299999999945c4.949299874970166-2.354499999999462,10.316399739389453-6.752000000000407,16.107499593090324-13.203199999999924-6.583999833670532-4.101500000000669-11.275376637120644-6.637199999999211-14.076199644399821-7.605900000000474l5.74409985489001-5.940399999999499c2.33399994104002.922300000000178,6.718799830268836,3.315899999999601,13.165999667398864,7.189899999999398,1.916099951589786-3.135699999998906,3.406299913951443-6.568400000000111,4.480499886811231-10.302299999999377h-21.990199444480822v-8.638100000000122h11.788999702179353v-8.896999999999025h7.566423340480469v8.896999999999025h13.992176114910762v8.638100000000122h-2.769499930040183c-1.554676184870914,5.718300000000454-3.646499907879843,10.671399999999267-6.275399841470062,14.862800000000789,5.08989987142013,3.870199999999386,9.97459974802041,9.767099999999118,13.195299666660503,14.375Z"/><path class="uuid-7b909ed0-f8a7-4c9a-a542-c1638c7acfeb" d="M1470.518507365390178,379.340399999999136l-5.257800000001225,7.594700000001467c-16.603499999999258-4.090299999999843-29.60149999999885-8.812900000000809-38.997999999999593-14.167900000000373v6.573199999998906h-49.371100000000297v-7.231899999998859c-14.216799999998329,7.352999999999156-26.97269999999844,12.149900000000343-38.269599999999627,14.388199999999415l-4.818299999998999-7.667999999999665c27.361299999998664-6.66990000000078,50.146499999998923-17.819800000001123,68.357399999998961-33.44970000000103l8.98240000000078,2.99460000000181c-.974599999999555,1.21730000000025-1.826100000000224,2.070299999999406-2.556599999999889,2.555199999998877,16.164099999999962,13.438500000000204,36.808600000000297,22.909200000000055,61.931599999999889,28.411599999999453ZM1454.961907365390289,421.186100000000806h-106.041000000001077v-34.251000000000204h106.041000000001077v34.251000000000204ZM1446.272407365389881,477.274499999999534h-8.98240000000078v-5.842800000000352h-70.548799999998664v5.842800000000352h-8.98240000000078v-48.420399999999063h88.513600000000224v48.420399999999063ZM1397.559507365389436,413.298899999999776v-18.257299999999304h-39.656199999999444v18.257299999999304h39.656199999999444ZM1437.290007365389101,446.309699999999793v-9.420500000000175h-70.548799999998664v9.420500000000175h70.548799999998664ZM1437.290007365389101,463.545500000000175v-9.568400000000111h-70.548799999998664v9.568400000000111h70.548799999998664ZM1387.846707365390102,406.068400000000111l-7.521500000000742,5.25879999999961c-4.527399999999034-4.575199999999313-8.958999999998923-7.959899999999834-13.292999999999665-10.150799999999435l7.595699999999852-4.382400000000416c5.160200000000259,2.190500000000611,9.566399999999703,5.283199999999852,13.218800000000556,9.274400000000242ZM1423.268507365390178,371.234000000000378c-7.060499999999593-3.700699999999415-13.902299999999741-8.691899999999805-20.523400000000038-14.973200000000361-7.060600000000704,5.84230000000025-14.970699999999852,10.834000000000742-23.734400000001187,14.973200000000361h44.257800000001225ZM1445.981407365390623,413.298899999999776v-18.257299999999304h-39.4375v18.257299999999304h39.4375ZM1437.143507365390178,399.349700000000666c-2.872999999999593,4.577099999998609-7.207000000000335,8.473099999999249-13,11.685499999999593l-8.033199999999852-4.016999999999825c6.378899999999703-3.602100000000064,10.759799999999814-7.206099999999424,13.144599999999627-10.808600000000297l7.888600000000224,3.14010000000053Z"/><path class="uuid-7b909ed0-f8a7-4c9a-a542-c1638c7acfeb" d="M732.831678978709533,281.635299999999916l-2.640599933289195,3.510800000000017c-10.179699742840967-3-18.441399534131051-7.039600000000064-24.779299374024049-12.120100000000093-5.462899861995538,4.460399999999936-14.040999645294505,8.580500000000029-25.742179120014043,12.360800000000381l-2.939420155427797-3.570300000001225c11.320299714025168-3.139699999999721,19.880799497768749-6.949699999999211,25.681599351228215-11.430199999998877-5.820299852966855-5.5-9.732399754138896-12.189900000001217-11.730499703662645-20.070299999999406-1.079999972716905,2.77980000000025-2.562499935265805,5.419899999998961-4.441399887800799,7.919899999998961l-3.177699919724546-2.909200000000055c2.519499936352076-3.001399999999194,4.546899885135645-6.29149999999936,6.08789984620671-9.870999999999185h-10.320299739287293v-3.690000000000509h24.062499392130121v-10.260200000000623h3.869099902258313v10.200200000001132h24.480499381566915v3.689399999999296h-10.261699740760378c-1.798899954559602,10.440899999999601-5.937499850009772,18.75-12.419999686249866,24.930200000000696,5.900420959520488,4.480900000000474,13.990299646580752,8.251399999999194,24.271499386850337,11.309999999999491ZM716.960600551379684,245.395099999999729h-23.218720585176925c1.597599959641229,9.260700000000725,5.507799860861269,16.709999999999127,11.728499703713169,22.35109999999986,6.080099846403755-5.660200000000259,9.910220881463829-13.110899999999674,11.490220881463756-22.35109999999986Z"/><path class="uuid-7b909ed0-f8a7-4c9a-a542-c1638c7acfeb" d="M876.852799927919477,274.645099999999729h-24.152299389859763v4.171399999999267c0,4.459500000000844-2.369199940148974,6.690400000001318-7.109399820399631,6.690400000001318h-3.990199899200888l-1.468799962898629-3.690400000001318h5.578122181279468c1.961000000010245,0,2.941477603499152-.900399999998626,2.941477603499152-2.699699999999211v-4.471700000000055h-26.339899334599977v-3.75h26.339899334599977v-2.579099999999016c4.179599894410785-1.559600000000501,7.169899818871272-3.020000000000437,8.968699773429762-4.380900000000111h-22.980499419460102v-3.45010000000002h29.640699251211117v3.269999999998618c-3.119199921200561,2.121100000000297-6.980499823659557,4.291000000001077-11.580099707460249,6.510700000000725v.629399999999805h24.152299389859763v3.75ZM874.33329999156922,263.515699999999924h-3.601599909019569v-6.209499999999025h-41.912098941209479v6.569399999998495h-3.929699900731066v-10.079599999999118h5.160199869651478v-18.300800000000891c2.839799928258799-.278800000000047,5.951199849660043-1.629899999999907,9.331999764248394-4.049799999998868l1.978499950020705,2.760299999999916c-1.818299954069516,1.680599999999686-4.300699891360637,2.95010000000002-7.441377787690726,3.809999999999491v2.519500000000335h7.681677781620238v3.120600000000195h-7.681677781620238v3.270599999999831h7.681677781620238v3.058600000000297h-7.681677781620238v3.810999999999694h31.892577170001459v-3.810999999999694h-7.322299815021324v-3h7.322299815021324v-3.509299999999712h-7.259799816600207v-3.060100000000602h7.259799816600207v-3.270500000000538h-8.490199785521327v-3.629399999999805h12.298799689311636v20.22019999999975h4.712899880938494v9.77980000000025ZM857.32160042131909,240.235899999999674l-2.101599946909118,2.578600000000733c-1.13869997123038-1.099599999999555-2.689399932060041-2.288500000000568-4.64839988256972-3.569300000001022-1.621099959051207,1.35989999999947-3.441377555000145,2.60989999999947-5.460999862039898,3.75l-2.458899937890237-2.159200000000055c1.939399951010273-.800799999999072,3.638599908079414-1.740199999998367,5.099599871180544-2.820299999999406-2.441399938330505-.919899999998961-4.41207762625163-1.559999999999491-5.910199850701247-1.920899999999165l1.531299961319746-2.760200000000623c2.218699943950924.560499999999593,4.449199887600116,1.280699999999342,6.689399831009723,2.160599999999249,1.419899964130309-1.338400000000547,2.609422432131396-2.709999999999127,3.568422432121224-4.110300000000279l2.521477414029505,2.010200000000623c-.80079997977009,1.239799999999377-1.841799953470399,2.451199999999517-3.119199921200561,3.630900000000111,1.478499962649948.838799999999537,2.90819992653087,1.909100000000763,4.289099891650039,3.209899999999834ZM857.681000412239882,251.155800000000454l-2.51959993634955,1.979499999999462c-1.619099959099913-1.240200000000186-3.30079991661114-2.270000000000437-5.040999872649991-3.089799999999741-1.080099972719836.819799999999304-2.999999924220901,1.849599999999555-5.75979985450067,3.089799999999741l-2.281199942370222-1.800699999999779c2.581999934769556-1.219300000000658,4.431599888050187-2.278800000000047,5.550822230470658-3.178799999999683-1.119222342420471-.70010000000002-2.820322299450709-1.479400000000169-5.099622241870748-2.339799999999741l2.249999943160219-1.891100000000733c2.06049994795103.740700000000288,3.820299903491104,1.511200000000827,5.281199866589304,2.310999999999694.560599985841691-.320299999999406,1.689499957321459-1.27980000000025,3.3886999143906-2.880800000000818l2.759722517730552,1.410600000001068c-1.019522561689882,1.319799999999304-2.158222532920263,2.410700000000361-3.417922501099383,3.269500000000335,1.658199958108526.759799999999814,3.28709991695905,1.799399999999878,4.888699876499231,3.120600000000195Z"/><path class="uuid-7b909ed0-f8a7-4c9a-a542-c1638c7acfeb" d="M979.216671929480071,251.905399999999645c4.040999897910297,4.540000000000873,6.062499846850187,8.970699999999852,6.062499846850187,13.290500000000975,0,2.100099999999657-.544899986240125,3.770499999998719-1.636676219610308,5.009799999999814-1.087923711560506,1.240699999998469-2.613323673031118,1.860799999998562-4.57422362349098,1.860799999998562-1.080099972719836,0-2.380899939858864-.131399999998393-3.900399901469427-.389699999999721l-1.109376475040335-3.991699999998673c2.140576448990032.541999999999462,3.679676410110915.811599999999089,4.619076386379675.811599999999089.779299980311407,0,1.490299962351855-.300799999999072,2.130923613620325-.900899999998728.640576316360239-.599100000001272.960876308270599-1.399400000002061.960876308270599-2.399900000000343,0-1.499500000001717-.550699986089967-3.419400000000678-1.650399958311027-5.760800000000017-1.10147634995883-2.339299999999639-2.75189993047934-4.569800000001123-4.951099874919237-6.688900000001013l5.851499852180496-15.031299999998737h-8.910099774910123v47.791999999999462h-3.931699900680542v-51.601500000000669h16.83009957484137v3.809500000001208l-5.790999853710673,14.190499999998792ZM1020.589770884309473,274.496699999999691c-.52149998682944,3.239700000000084-1.220799969159998,5.590299999999843-2.101599946909118,7.049300000000585-.878899977800756,1.460399999999936-2.310599941631153,2.190399999999499-4.289099891650039,2.190399999999499h-4.679699881780834c-3.121099921159839,0-4.679599881790637-1.640599999998813-4.679599881790637-4.91990000000078v-15.870100000000093h-6.332099840028604c-.119099996991281,6.439900000001217-1.374999965270035,11.264100000000326-3.763699904920941,14.475100000001476-2.390599939610183,3.209399999999732-6.824199827609846,5.90519999999924-13.306599663848829,8.085399999999936l-2.519499936350257-3.451100000000224c6.019499847929183-1.779300000000148,10.150399743579328-4.08009999999922,12.390623619688995-6.899999999999636,2.240176010700452-2.819800000001123,3.36907598218022-6.870100000000093,3.390575981640723-12.149400000000242h-8.220699792329469v-3.931099999999788h32.132799188259014v3.871099999998478h-10.023399746789437v14.940400000001318c0,.499499999999898.160199995960284.964900000000853.48049998785973,1.394500000000335.32029999191036.430699999998978.701099982290543.645099999999729,1.140599971189658.645099999999729h3.810499903740492c.779299980309588,0,1.374999965259121-.640699999999924,1.785199954900236-1.920000000000073.40819998968982-1.279300000000148.753924551529053-2.939900000001217,1.035199973850467-4.980400000000373l3.749999905268851,1.470699999999852ZM1017.138570971490481,247.285200000000259l-3.808599903790309.061099999998987v-5.281799999998839h-22.621099428541129v5.281799999998839h-3.871099902209608v-9.091300000000047h13.169899667300342v-6.809599999998682h3.931699900680542v6.750500000000102h13.199199666560162v9.089299999999639ZM1012.099495556720285,253.075300000000425h-20.281223945579768v-3.930200000000696h20.281223945579768v3.930200000000696Z"/><path class="uuid-7b909ed0-f8a7-4c9a-a542-c1638c7acfeb" d="M1166.456504893500096,274.645099999999729h-24.152300000010655v4.171399999999267c0,4.459500000000844-2.371100000000297,6.690400000001318-7.109399999999368,6.690400000001318h-3.990199999991091l-1.470700000008947-3.690400000001318h5.58009999999922c1.960900000010952,0,2.941399999999703-.900399999998626,2.941399999999703-2.699699999999211v-4.471700000000055h-26.341824835328225v-3.75h26.341824835328225v-2.579099999999016c4.179700000000594-1.559600000000501,7.16990000000078-3.020000000000437,8.968700000001263-4.380900000000111h-22.980525146811488v-3.45010000000002h29.640725146811747v3.269999999998618c-3.119199999990087,2.121100000000297-6.980500000001484,4.291000000001077-11.580100000001039,6.510700000000725v.629399999999805h24.152300000010655v3.75ZM1163.935104893489552,263.515699999999924h-3.599700000000666v-6.209499999999025h-41.91012499982935v6.569399999998495h-3.931699900680542v-10.079599999999118h5.16219986959004v-18.300800000000891c2.837799928320237-.278800000000047,5.949199849721481-1.629899999999907,9.328125030921001-4.049799999998868l1.980500000010579,2.760299999999916c-1.820400000000518,1.680599999999686-4.298925208011497,2.95010000000002-7.439525128671448,3.809999999999491v2.519500000000335h7.679725128669816v3.120600000000195h-7.679725128669816v3.270599999999831h7.679725128669816v3.058600000000297h-7.679725128669816v3.810999999999694h31.890625128660758v-3.810999999999694h-7.320299999999406v-3h7.320299999999406v-3.509299999999712h-7.259699999989607v-3.060100000000602h7.259699999989607v-3.270500000000538h-8.490200000000186v-3.629399999999805h12.298800000000483v20.22019999999975h4.710999999999331v9.77980000000025ZM1146.925304893489738,240.235899999999674l-2.101599999989048,2.578600000000733c-1.140600000011545-1.099599999999555-2.68940000001021-2.288500000000568-4.650400000011359-3.569300000001022-1.619099999999889,1.35989999999947-3.439399999999296,2.60989999999947-5.458899999988716,3.75l-2.461000000010245-2.159200000000055c1.941399999999703-.800799999999072,3.642600000010134-1.740199999998367,5.101599999999962-2.820299999999406-2.441400000001522-.919899999998961-4.410200000000259-1.559999999999491-5.910200000000259-1.920899999999165l1.529300000000148-2.760200000000623c2.220699999999852.560499999999593,4.451199999999517,1.280699999999342,6.689499999998588,2.160599999999249,1.419900000011694-1.338400000000547,2.611300000011397-2.709999999999127,3.572200000000521-4.110300000000279l2.519599999999627,2.010200000000623c-.800799999989977,1.239799999999377-1.841800000000148,2.451199999999517-3.121099999998478,3.630900000000111,1.480399999998554.838799999999537,2.910099999999147,1.909100000000763,4.290999999999258,3.209899999999834ZM1147.284704893489106,251.155800000000454l-2.519599999988714,1.979499999999462c-1.621100000000297-1.240200000000186-3.300699999999779-2.270000000000437-5.039000000011583-3.089799999999741-1.082099999988714.819799999999304-3,1.849599999999555-5.761699999988195,3.089799999999741l-2.279300000011062-1.800699999999779c2.580000000010841-1.219300000000658,4.429599999999482-2.278800000000047,5.550699999999779-3.178799999999683-1.121100000000297-.70010000000002-2.822200000000521-1.479400000000169-5.10149999999885-2.339799999999741l2.25-1.891100000000733c2.060499999999593.740700000000288,3.820300000008501,1.511200000000827,5.279299999998329,2.310999999999694.560500000001412-.320299999999406,1.689400000001115-1.27980000000025,3.390600000000632-2.880800000000818l2.759799999999814,1.410600000001068c-1.019599999999627,1.319799999999304-2.160200000000259,2.410700000000361-3.419999999989159,3.269500000000335,1.660199999989345.759799999999814,3.291099999989456,1.799399999999878,4.89069999998901,3.120600000000195Z"/><path class="uuid-7b909ed0-f8a7-4c9a-a542-c1638c7acfeb" d="M1311.451263405318969,282.506400000000212h-54.599599999988641v-3.869599999999991h25.439399999990201v-14.070799999999508h-18.329999999999927v-3.870100000000093h18.329999999999927v-12.240200000000186h-13.58980000000156c-1.640599999998813,4.259200000000419-4.380899999998292,8.189399999999296-8.220699999999852,11.789499999998952l-3.958999999989828-2.070299999999406c6.558600000000297-6.059600000000501,10.208999999989828-13.47899999999936,10.949200000000928-22.259299999999712l4.050799999999072,1.169899999998961c-.160200000020268,2.040100000000166-.630900000009206,4.559600000000501-1.412100000010469,7.559600000000501h12.123000000001412v-13.139600000000428h4.048899999988862v13.079999999999927h21.179700000011508v3.870200000001205h-21.179700000011508v12.179599999999482h18.060500000001412v3.870199999999386h-18.060500000001412v14.071200000000317h25.169900000009875v3.929700000000594Z"/><path class="uuid-7b909ed0-f8a7-4c9a-a542-c1638c7acfeb" d="M1456.867834334820145,245.334600000000137l-2.158199999999852,3.121100000000297c-6.820300000001225-1.679700000000594-12.162100000001374-3.619700000001103-16.021500000000742-5.820400000000518v2.699300000000221h-20.281199999999444v-2.969300000000658c-5.839799999999741,3.02100000000064-11.080100000001039,4.989799999999377-15.718800000000556,5.910700000000361l-1.980400000000373-3.150400000000445c11.240200000000186-2.740700000000288,20.599599999999555-7.320799999999508,28.080100000001039-13.740700000000288l3.689399999999296,1.230400000000373c-.400400000000445.5-.75.85109999999986-1.048800000000483,1.050300000000789,6.638700000001336,5.519500000000335,15.121100000000297,9.409700000000157,25.439400000001115,11.668999999999869ZM1450.479234334819921,262.526499999999942h-43.560600000000704v-14.070799999999508h43.560600000000704v14.070799999999508ZM1446.908834334819403,285.566000000000713h-3.691399999999703v-2.399900000000343h-28.980400000000373v2.399900000000343h-3.689500000000407v-19.889600000000428h36.361300000000483v19.889600000000428ZM1426.897134334820294,259.285200000000259v-7.5h-16.289000000000669v7.5h16.289000000000669ZM1443.2174343348197,272.846299999999246v-3.870599999998376h-28.980400000000373v3.870599999998376h28.980400000000373ZM1443.2174343348197,279.926400000000285v-3.929700000000594h-28.980400000000373v3.929700000000594h28.980400000000373ZM1422.906934334820107,256.316000000000713l-3.089799999999741,2.159700000000157c-1.859400000001187-1.87840000000142-3.679700000000594-3.269600000001446-5.459000000000742-4.169499999999971l3.119099999999889-1.799800000000687c2.121100000000297.898999999999432,3.929700000000594,2.170000000000073,5.429700000000594,3.809600000000501ZM1437.457734334819179,242.006400000000212c-2.900400000000445-1.520000000000437-5.708999999998923-3.57129999999961-8.429699999998775-6.152299999999741-2.902400000000853,2.400899999998728-6.150400000000445,4.452100000000428-9.75,6.152299999999741h18.179699999998775ZM1446.787834334820218,259.285200000000259v-7.5h-16.199300000000221v7.5h16.199300000000221ZM1443.158834334819403,253.55580000000009c-1.181599999999889,1.879300000000512-2.960900000000038,3.479400000000169-5.341699999999037,4.799299999998766l-3.298899999999776-1.648999999999432c2.619199999999182-1.480399999998554,4.419899999998961-2.960900000000038,5.400399999998626-4.440399999999499l3.240200000000186,1.290100000000166Z"/></g></svg>