<?xml version="1.0" encoding="UTF-8"?><svg id="uuid-272265cc-6d98-4e6b-bcaf-75441a161745" xmlns="http://www.w3.org/2000/svg" width="568.76906812461209mm" height="250.004051829100774mm" xmlns:xlink="http://www.w3.org/1999/xlink" viewBox="0 0 1612.25879999999961 708.672913465847159"><defs><style>.uuid-2fe5d363-0bfa-437e-acc3-0bedb762fa83{fill:none;}.uuid-08e30863-3a72-456b-914e-8e34c6954f04{fill:#a39b4b;}.uuid-7504c085-7d43-4ca1-83ba-2b6b7c36f627{clip-path:url(#uuid-0c5c4b91-cf58-418b-bef3-aa717dc46aeb);}</style><clipPath id="uuid-0c5c4b91-cf58-418b-bef3-aa717dc46aeb"><rect class="uuid-2fe5d363-0bfa-437e-acc3-0bedb762fa83" y=".001000000000204" width="1612.25879999999961" height="708.671913465846956"/></clipPath></defs><g class="uuid-7504c085-7d43-4ca1-83ba-2b6b7c36f627"><path class="uuid-08e30863-3a72-456b-914e-8e34c6954f04" d="M158.441399999999703,271.573324507911821c-9.105499999999665,21.52729945617466-14.519500000000335,44.144475492088532-16.16990000000078,67.425698296683549,3.587900000000445-2.921799926189124,8.159200000000055-4.679599881783361,13.136700000000928-4.679599881783361,5.495100000000093,0,10.488300000000891,2.154299945577804,14.216800000000148,5.636699857604981,7.337900000000445-95.591797585148015,87.224599999999555-170.871122780416954,184.701199999999517-170.871122780416954,7.552700000000186,0,13.674800000000687-6.123099999999795,13.674800000000687-13.675799999999981s-6.122100000000501-13.675799999999981-13.674800000000687-13.675799999999981c-28.689500000000407,0-56.536200000000463,5.625-82.765699999999924,16.718800000000556-25.318300000000818,10.708999999999833-48.052700000000186,26.033199999999852-67.567300000000614,45.548799999999574-19.518599999999424,19.51760000000013-34.844799999998941,42.252025147556196-45.551799999999275,67.572324507911617Z"/><path class="uuid-08e30863-3a72-456b-914e-8e34c6954f04" d="M339.185499999999593,538.96980000000076c-94.954999999999927-7.681682053036639-169.671800000000076-86.962880050225067-170.10149999999885-183.796877603992471,0-7.550799809250748-6.120100000000093-13.675799654520233-13.675800000000891-13.675799654520233-7.552700000000186,0-13.675800000000891,6.124999845269485-13.675800000000891,13.675799654520233.109400000001187,28.394499282693687,5.722700000000259,55.955098586455279,16.709000000000742,81.927697930332215,10.707000000000335,25.318399360403419,26.033199999999852,48.052698786086694,45.551799999999275,67.568398293078644,19.514600000000428,19.517499506946479,42.248999999999796,34.843699119774101,67.567300000000614,45.552698849242006,21.255900000000111,8.990199772888445,43.573300000000017,14.386699636561389,66.539099999999962,16.111299592994328-2.886699999999109-3.579999909562503-4.627000000000407-8.12299979479576-4.627000000000407-13.068299669866974,0-5.53319986022052,2.183600000000297-10.556699733315327,5.712900000000445-14.294917391787749Z"/><path class="uuid-08e30863-3a72-456b-914e-8e34c6954f04" d="M502.527299999999741,487.413119055339848c-2.66990000000078-2.671899932502129-6.16990000000078-4.00579989880589-9.66990000000078-4.00579989880589-3.497999999999593,0-7,1.333899966303761-9.671899999999368,4.00579989880589-33.341800000000148,32.290999184260727-78.775400000000445,52.175798681928427-128.859300000000076,52.175798681928427-7.552799999999479,0-13.675799999999072,6.12299984532001-13.675799999999072,13.675799654520233,0,7.55269980920275,6.122999999999593,13.675799654520233,13.675799999999072,13.675799654520233,28.690399999999499,0,56.535099999999147-5.624999857900548,82.763600000000224-16.718799577647587,24.408199999999852-10.320299739287293,46.40139999999883-24.947299369778193,65.4375-43.468698901889184,5.343799999998737-5.33989986510187,5.343799999998737-13.998099646377341,0-19.339899511432122Z"/><path class="uuid-08e30863-3a72-456b-914e-8e34c6954f04" d="M354.33009999999922,141.729500000000371c-28.689499999998588,0-56.540100000000166,5.629899999999907-82.769599999999627,16.719699999999648-25.320299999999406,10.710000000000036-48.050699999999779,26.040100000000166-67.570299999999406,45.549799999999777-19.519500000000335,19.520600000000741-34.839799999999741,42.250025147657652-45.550800000000891,67.570424508010547-9.099599999999555,21.5301994561014-14.519500000000335,44.150375491990417-16.169899999998961,67.429598296585027,3.589899999999034-2.919899926237122,8.16019999999844-4.679599881783361,13.140599999998813-4.679599881783361,5.490300000001298,0,10.490300000001298,2.15037707718875,14.210000000000946,5.640599857506459,7.339899999999034-95.600597584925708,87.229499999999462-170.870122780317615,184.709999999999127-170.870122780317615,7.549800000000687,0,13.66990000000078-6.129900000000816,13.66990000000078-13.680700000000797,0-7.549799999999777-6.120100000000093-13.679699999999684-13.66990000000078-13.679699999999684ZM339.189399999999296,538.96980000000076c-94.95889999999963-7.680682053061901-169.679599999999482-86.960000000000036-170.109300000000076-183.799877603916684,0-7.550699809253274-6.120100000000093-13.670899654644018-13.670000000000073-13.670899654644018-7.550699999999779,0-13.679599999999482,6.120199845390744-13.679599999999482,13.670899654644018.109300000000076,28.399499282568286,5.729499999999462,55.959998586331494,16.70889999999963,81.929697930281691,10.71100000000115,25.320299360355421,26.031300000000556,48.049798786159954,45.550800000000891,67.570298293030646,19.519599999999627,19.519599506893428,42.25,34.839881380604311,67.570299999999406,45.549881380604347,21.259799999999814,8.990217241596838,43.569400000000314,14.389617105196521,66.539099999999962,16.109317061753245-2.889600000000428-3.580099909559067-4.628899999999703-8.119099794894282-4.628899999999703-13.059499670089281,0-5.540099860045302,2.189399999999296-10.559599733242067,5.718699999999444-14.299817391663964ZM502.529300000000148,487.409219055438371c-2.66990000000078-2.669899932552653-6.16990000000078-3.99999989895241-9.66990000000078-3.99999989895241s-7,1.330099966399757-9.670000000000073,3.99999989895241c-33.349599999999555,32.289999184285989-78.779300000000148,52.180698681804643-128.859300000000076,52.180698681804643-7.560599999998885,0-13.679699999998775,6.12009984539327-13.679699999998775,13.679699654421711,0,7.54979980927601,6.119099999999889,13.66989965466928,13.679699999998775,13.66989965466928,28.689400000001115,0,56.529300000000148-5.620099858024332,82.759700000000521-16.719717046333244,24.410200000000259-10.320382270576374,46.400400000000445-24.95018190099654,65.439500000000407-43.470781433126831,5.340799999999945-5.339799865105306,5.340799999999945-13.989218566873205,0-19.339799511435558Z"/><path class="uuid-08e30863-3a72-456b-914e-8e34c6954f04" d="M466.910099999999147,241.74902526133701c-30.070299999999406-30.069325261336417-70.050699999999779-46.629825261336919-112.579999999999927-46.629825261336919-42.530300000000352,0-82.519599999999627,16.560500000000502-112.589899999999034,46.629825261336919-30.070300000001225,30.070399240357801-46.630800000000818,70.060598230120377-46.630800000000818,112.590897155714629,0,42.529298925619514,16.560499999999593,82.509697915629658,46.630800000000818,112.579997155989986,30.070299999999406,30.069399240383063,70.059599999998682,46.639698821782076,112.589899999999034,46.639698821782076,42.529300000000148,0,82.509700000000521-16.570299581399013,112.579999999999927-46.639698821782076,30.080100000001039-30.070299240360328,46.629899999999907-70.050698230370472,46.629899999999907-112.579997155989986,0-42.530298925594252-16.549799999998868-82.520497915356827-46.629899999999907-112.590897155714629ZM264.450199999999313,310.460023525551151h-12.950199999999313v87.749997783248546h12.950199999999313v7.619099807525345h-22.33009999999922v-102.979497398519015h22.33009999999922v7.610399807745125ZM282.08009999999922,405.829121116325041v-72.729498162698292c0-6.270499841594756-.109399999999368-11.940399698360125-.320299999999406-17.030199569780962-.21980000000076-5.080099871666789-.539099999999962-9.490299760254857-.96980000000076-13.219799666039762h13.200200000001132v72.410176282194698c0,2.049821836787487.029300000000148,4.479521775408102.089899999999034,7.269521704926774.060500000001412,2.790099929516145.150400000000445,5.620099858024332.259700000000521,8.490299785516982.110399999999572,2.879799927250133.240299999999479,5.62979985777929.390699999999924,8.24999979158747.149400000000242,2.610299934058276.329999999999927,4.799799878746853.539000000000669,6.559499834293092h-13.189400000001115ZM351.589799999999741,348.609422561816245h-12.099599999999555v48.789998767460929h12.099599999999555v8.429699787047866h-36.040000000000873v-8.429699787047866h11.910200000000259v-48.789998767460929h-11.910200000000259v-8.429699787047866h36.040000000000873v8.429699787047866ZM427.870100000000093,398.749021295183411c0,7.249999816849595-.639600000000428,13.270599664756446-1.910100000000966,18.050778704817276-1.259799999999814,4.790120718173057-3.030300000000352,8.609420621689424-5.29989999999998,11.460000000000036-2.28019999999924,2.849620477690223-5.019499999998516,4.8701204266481-8.209899999999834,6.049820396846371-3.200199999999313,1.179699970198271-6.75,1.76949995529867-10.650400000000445,1.76949995529867-1.929699999998775,0-4-.309499992181372-6.209999999999127-.929699976513803-2.209899999999834-.629799984089914-4.219699999999648-1.490199962354382-6.019500000000335-2.610299934058276l4.179700000000594-9.659199755988084c.990200000000186.72949998157037,2.310499999999593,1.349599965906236,3.959999999999127,1.839879314415157,1.649400000000242.490220626721566,3.339799999999741.740220620406035,5.049800000000687.740220620406035,2.060499999999593,0,3.910099999999147-.330099991660973,5.539999999999054-.999999974737875,1.629899999999907-.660220645668232,3.010700000000725-1.830099953767785,4.150400000000445-3.499999911582563,1.139600000000428-1.680699957541947,2.009799999999814-3.970699899691681,2.610300000000279-6.890599825928803.599599999999555-2.919999926234595.899499999999534-6.629899832514639.899499999999534-11.139699718587508v-28.320299284569046c0-5.149399869915214-.270599999999831-9.320299764549418-.809599999998682-12.519499683730828-.530300000000352-3.190499919401191-1.339900000000853-5.680699856493447-2.410200000000259-7.459999811544549-1.070300000001225-1.780299955025839-2.41990000000078-2.970699924953806-4.030200000001059-3.580122409724936-1.600599999999758-.600577484661699-3.479499999999462-.900377477088114-5.629899999999907-.900377477088114-2.310599999998885,0-4.570299999999406.549799986110884-6.780300000000352,1.650377477088114-2.209999999999127,1.089922453686086-4.25,2.509822417816395-6.089799999999741,4.23932237412555-1.839899999999034,1.74019995603885-3.469799999998941,3.700199906525086-4.889699999999721,5.890599851190927-1.410200000000259,2.189499944688578-2.470699999999852,4.379899889354419-3.160200000000259,6.569299834045523v37.330099056962354h-11.900299999999334v-39.580099000122573c0-6.349599839595612-.369199999999182-11.729399703690433-1.099700000000666-16.129799592526979-.720699999999852-4.39942252367473-1.439399999999296-7.709999805229018-2.120100000000093-9.93949974890711h11.589900000000853c.25.679699982829334.510700000000725,1.569299960356147.770500000000538,2.669899932552653.259699999998702,1.08989997246681.490200000000186,2.240299943405262.708999999998923,3.439499913110922.210900000000038,1.200199969680398.400400000000445,2.390599939608364.579999999999927,3.539999910572078l.510800000000017,2.900399926729733c4.120100000000093-4.889599876478314,8.259799999999814-8.419899787295435,12.41990000000078-10.58979973247915,4.169899999998961-2.169922725253855,8.5-3.249999917898094,13-3.249999917898094,3.440399999999499,0,6.469699999999648.57029998559301,9.110399999999572,1.709899956804293,2.639600000000428,1.139699971208756,4.859300000000076,2.939499925741984,6.660100000000966,5.399399863599683,1.798799999998664,2.470777372240264,3.169899999998961,5.670899856741016,4.089899999999034,9.590899757713487.91990000000078,3.929699900727428,1.389600000000428,8.659099781252735,1.389600000000428,14.199199641298037v28.959899268411391ZM466.539999999999054,405.829121116325041h-22.329999999999927v-7.619099807525345h12.940400000001318v-87.749997783248546h-12.940400000001318v-7.610399807745125h22.329999999999927v102.979497398519015Z"/><path class="uuid-08e30863-3a72-456b-914e-8e34c6954f04" d="M731.934589315800622,379.633319311401465h-54.992198610780179v-9.128900000000613h54.992198610780179v9.128900000000613ZM724.778289496580328,476.83991931140099h-9.421289496580357v-10.005899999999201h-21.983000000000175v10.005899999999201h-9.566809468400606v-49.370599999999286h40.971098964981138v49.370599999999286ZM724.339889507658881,398.476119311399998l-40.386798979749074.145500000001448v-9.127899999999499h40.386798979749074v8.982399999998051ZM724.485889503970611,417.610419311400619h-40.532798976060803v-9.129899999999907h40.532798976060803v9.129899999999907ZM722.660189550089854,361.084019311401789l-37.100099062770823.145499999999629v-9.127900000000409h37.100099062770823v8.98240000000078ZM715.356999999999971,457.850119311400704v-21.396899999999732h-22.128509706401019v21.396899999999732h22.128509706401019ZM809.713887350930236,417.75641931140126l-78.947298005630728.145999999999731v-8.98239999999987h19.57229950556939l4.236299892980242-22.566399999999703h-18.257799538769177v-8.983900000000176h19.718799501859394l3.140599920659952-16.724100000001272h-27.971699293369966v-9.128999999998996h72.5204981679708v8.983400000000074h-34.690399123639509l-2.994188378561375,16.724700000000666h30.088887694089863l-3.140599920659952,31.54779999999937h16.724599577501067v8.983900000000176ZM797.00688767192878,477.131919311401361h-9.421887671929653v-9.85990000000038h-36.953111156539308v9.85990000000038h-9.568399758280066v-49.516100000000733h55.943398586749026v49.516100000000733ZM787.584999999999127,458.288119311400806v-21.689899999999398h-37.099611152840225v21.689899999999398h37.099611152840225ZM786.123999999999796,386.207119311400675h-21.68941150522005l-4.236299892980242,22.712900000000445h23.662099402239619l2.263611995960673-22.712900000000445Z"/><path class="uuid-08e30863-3a72-456b-914e-8e34c6954f04" d="M974.38578319096996,379.633319311401465h-132.771496645909792v-9.128900000000613h132.771496645909792v9.128900000000613ZM954.813483685398751,398.329619311401075h-94.941397601578501v-8.835899999999128h94.941397601578501v8.835899999999128ZM954.813483685398751,417.318419311401158h-94.941397601578501v-8.837900000000445h94.941397601578501v8.837900000000445ZM951.381883772090077,477.131919311401361h-9.421883772090951v-10.297899999999572h-68.503914259339581v10.297899999999572h-9.420899762000772v-49.662599999999657h87.346697793431304v49.662599999999657ZM951.23538377578916,360.134819311400861l-86.470697815559106.218800000000556v-8.837000000000444h86.470697815559106v8.618199999999888ZM941.959999999999127,457.850119311400704v-21.396899999999732h-68.503914259339581v21.396899999999732h68.503914259339581Z"/><path class="uuid-08e30863-3a72-456b-914e-8e34c6954f04" d="M1139.059579030959867,450.694419311401361h-58.790998514819876v10.150899999999638c0,10.856399999999667-5.769580516140195,16.286600000000362-17.310580516139453,16.286600000000362h-9.712918801191336l-3.578081198809741-8.983400000000074h13.584000000000742c4.771480825498656,0,7.158180765209181-2.191899999999805,7.158180765209181-6.572799999999916v-10.88130000000001h-64.122998380120407v-9.129899999999907h64.122998380120407v-6.280800000000454c10.173819234791154-3.797300000000178,17.453099559101247-7.350099999999657,21.835899448380587-10.662099999999555h-55.943298586751553v-8.399900000000343h72.158218373160707v7.961900000000242c-7.597720004099756,5.161200000000463-16.994219766720562,10.442900000000009-28.191419483859136,15.847200000000157v1.533699999999953h58.790998514819876v9.129899999999907ZM1132.924779185928855,423.598219311401408h-8.765599778558681v-15.117700000000696h-102.023397422670314v15.995100000000093h-9.568399758280066v-24.538099999999758h12.560617773578997v-44.550699999999779c6.912081734501044-.68119999999999,14.486281543151563-3.968300000000454,22.714781335291264-9.858400000000074l4.820299878219885,6.718700000000354c-4.433599887990567,4.089399999999841-10.470699735480594,7.182099999999991-18.113299542419554,9.274899999999434v6.134800000000723h18.695299527718817v7.595699999999852h-18.695299527718817v7.959899999999834h18.695299527718817v7.448800000000119h-18.695299527718817v9.276299999999537h77.63279803883961v-9.276299999999537h-17.820299549830452v-7.30370000000039h17.820299549830452v-8.543999999999869h-17.673799553531353v-7.448699999999917h17.673799553531353v-7.960500000000138h-20.667899477890387v-8.837400000000343h29.943319767960929v49.224200000000565h11.466779185928317v23.807099999999991ZM1091.514680232039609,366.926819311401232l-5.111399870869718,6.280299999999443c-2.777280361169687-2.676799999999275-6.550699834520856-5.574699999999211-11.320280361169353-8.690499999999702-3.943319253241498,3.311099999998987-8.375,6.353100000000268-13.292919017050735,9.128999999998996l-5.988299848730094-5.258799999998701c4.722599880700727-1.947299999999814,8.859399776200007-4.235899999999674,12.415999686349096-6.864800000000287-5.94139984990943-2.238800000000992-10.736299728778249-3.797299999999268-14.388699636509045-4.673299999999472l3.726599905859985-6.72019999999975c5.402318910080794,1.363199999999779,10.831999726360664,3.117199999999684,16.285099588600133,5.258299999999508,3.457099912669946-3.260299999999916,6.353599839500021-6.595699999999852,8.691499780430604-10.005400000000009l6.13471954104898,4.893500000000131c-1.949219646779966,3.019099999999526-4.480519582830311,5.964899999999943-7.595719504141016,8.837499999999636,3.601599909021388,2.043400000000474,7.083999821050384,4.64890000000014,10.443399736181163,7.814400000000205ZM1092.389680209938888,393.509319311400759l-6.132799845079717,4.820300000000316c-3.943399900379518-3.01799999999912-8.035199797010137-5.524899999999434-12.269599690040195-7.520999999999731-2.6288999335884,1.996100000000297-7.3026998155201,4.503000000000611-14.021499645788936,7.520999999999731l-5.550699859770248-4.381800000000112c6.279299841369721-2.968299999999545,10.783199727589817-5.551299999999173,13.511699658660291-7.740700000000288-2.728499931070473-1.703099999998813-6.865299826571572-3.602999999999156-12.415999686340001-5.697799999999916l5.476499861650154-4.599599999999555c5.013718996769967,1.802300000000287,9.298899765090027,3.676300000000083,12.85349967528964,5.622100000000501,1.361399965609962-.777400000000853,4.113299896089302-3.113800000000992,8.251999791540584-7.011200000001736l6.718699830269543,3.433100000001104c-2.48239993729112,3.214299999999639-5.255799867230962,5.868599999999788-8.324199789711201,7.96140000000014,4.040999897910297,1.850099999998747,8.0077997977005,4.38130000000001,11.902399699320085,7.594199999999546Z"/><path class="uuid-08e30863-3a72-456b-914e-8e34c6954f04" d="M1303.584999999999127,450.694419311401361h-58.790999999999258v10.150899999999638c0,10.856399999999667-5.769623494370535,16.286600000000362-17.308623202870876,16.286600000000362h-9.712899754629689l-3.578099909609591-8.983400000000074h13.583899656840003c4.769599879509769,0,7.156299819220294-2.191899999999805,7.156299819220294-6.572799999999916v-10.88130000000001h-64.121098380170224v-9.129899999999907h64.121098380170224v-6.280800000000454c10.175799742939489-3.797300000000178,17.453099559099428-7.350099999999657,21.837899448330063-10.662099999999555h-55.943398586750845v-8.399900000000343h72.156298177171266v7.961900000000242c-7.595699808111021,5.161200000000463-16.994199570690398,10.442900000000009-28.191375647700625,15.847200000000157v1.533699999999953h58.790999999999258v9.129899999999907ZM1297.452175029618957,423.598219311401408h-8.767599778509975v-15.117700000000696h-102.023397422668495v15.995100000000093h-9.56639975833059v-24.538099999999758h12.560499682689624v-44.550699999999779c6.9140998253406-.68119999999999,14.484399634089641-3.968300000000454,22.712899426220247-9.858400000000074l4.82029987822898,6.718700000000354c-4.42969988808909,4.089399999999841-10.468699735538394,7.182099999999991-18.113299542419554,9.274899999999434v6.134800000000723h18.697299527670111v7.595699999999852h-18.697299527670111v7.959899999999834h18.697299527670111v7.448800000000119h-18.697299527670111v9.276299999999537h77.632822485171346v-9.276299999999537h-17.818323996210893v-7.30370000000039h17.818323996210893v-8.543999999999869h-17.67382399986127v-7.448699999999917h17.67382399986127v-7.960500000000138h-20.667923924220304v-8.837400000000343h29.943299243570436v49.224200000000565h11.468799710268286v23.807099999999991ZM1258.641576010058998,391.871119311401344l-6.654299831900062,6.083999999999833c-3.037099923269125-4.563500000000204-7.382799813489328-10.276300000000447-11.585899707310091-13.824700000000121-6.533199834959305,7.279300000000148-11.906299699228839,11.912099999999555-16.105499593139029,13.893100000000231l-6.583999833679627-5.528299999999945c4.949299874970166-2.354500000000371,10.316399739389453-6.751999999999498,16.107499593090324-13.203199999999924-6.583999833670532-4.10149999999976-11.275376637120644-6.637200000000121-14.07619964440164-7.605899999999565l5.74409985489001-5.940400000000409c2.33399994104002.922299999999268,6.718799830270655,3.315900000000511,13.165999667400683,7.189900000000307,1.916099951589786-3.135700000000725,3.406299913949624-6.568400000000111,4.480499886809412-10.302300000000287h-21.990199444479003v-8.638100000000122h11.788999702179353v-8.896999999999935h7.566423340480469v8.896999999999935h13.992176114910762v8.638100000000122h-2.769499930040183c-1.554676184870914,5.718299999999545-3.646499907881662,10.671400000000176-6.275399841470062,14.862799999999879,5.089899871418311,3.870199999999386,9.974599748018591,9.767100000000028,13.195299666658684,14.375Z"/><path class="uuid-08e30863-3a72-456b-914e-8e34c6954f04" d="M1470.520500000000538,379.342819311401399l-5.257800000001225,7.594699999999648c-16.603499999999258-4.090299999999843-29.60149999999885-8.8128999999999-38.997999999999593-14.167900000000373v6.573200000000725h-49.371100000000297v-7.231900000000678c-14.216800000000148,7.353000000000975-26.972700000000259,12.149900000000343-38.269599999999627,14.388200000001234l-4.818300000000818-7.668000000000575c27.361300000000483-6.66989999999987,50.146500000000742-17.819800000000214,68.35740000000078-33.449700000000121l8.98240000000078,2.994599999999991c-.974600000001374,1.21730000000025-1.826100000000224,2.070299999999406-2.556599999999889,2.555200000000696,16.164099999998143,13.438499999999294,36.808599999998478,22.909199999999146,61.931599999999889,28.411599999999453ZM1454.963900000000649,421.188519311401251h-106.041000000001077v-34.251000000000204h106.041000000001077v34.251000000000204ZM1446.274400000000242,477.276919311401798h-8.98240000000078v-5.842800000000352h-70.548800000000483v5.842800000000352h-8.982399999998961v-48.420400000000882h88.513600000000224v48.420400000000882ZM1397.561499999999796,413.30131931140113v-18.257300000000214h-39.656199999999444v18.257300000000214h39.656199999999444ZM1437.291999999999462,446.312119311401148v-9.420500000000175h-70.548800000000483v9.420500000000175h70.548800000000483ZM1437.291999999999462,463.547919311400619v-9.568399999999201h-70.548800000000483v9.568399999999201h70.548800000000483ZM1387.848700000000463,406.070819311401465l-7.521500000000742,5.25879999999961c-4.527400000000853-4.575200000000223-8.959000000000742-7.959899999999834-13.292999999999665-10.150800000000345l7.595699999999852-4.382399999999507c5.160200000000259,2.190499999999702,9.566399999999703,5.283199999999852,13.218800000000556,9.274400000000242ZM1423.270500000000538,371.236419311400823c-7.060500000001412-3.700699999999415-13.90230000000156-8.691899999999805-20.523400000001857-14.973199999999451-7.060599999998885,5.842299999999341-14.970699999998033,10.833999999999833-23.734399999999368,14.973199999999451h44.257800000001225ZM1445.983399999999165,413.30131931140113v-18.257300000000214h-39.4375v18.257300000000214h39.4375ZM1437.145500000000538,399.352119311401111c-2.873000000001412,4.577100000000428-7.207000000000335,8.473100000000159-13,11.685499999999593l-8.033200000001671-4.017000000000735c6.378900000001522-3.602099999999155,10.759799999999814-7.206099999998514,13.144600000001446-10.808599999998478l7.888600000000224,3.14009999999962Z"/><path class="uuid-08e30863-3a72-456b-914e-8e34c6954f04" d="M732.833671613319893,281.63771931140127l-2.640599933291014,3.510800000000017c-10.179699742839148-3-18.441399534129232-7.039600000000064-24.779299374018592-12.120100000000093-5.462899862000995,4.460399999999936-14.040999645301781,8.580500000000029-25.742179120021319,12.360799999999472l-2.939420155420521-3.570299999999406c11.32029971402153-3.139699999999721,19.880799497761473-6.949700000000121,25.681599351220939-11.430199999999786-5.820299852959579-5.5-9.732399754138896-12.189900000000307-11.730499703659007-20.070300000000316-1.079999972720543,2.77980000000025-2.562499935260348,5.41990000000078-4.441399887800799,7.91990000000078l-3.177699919720908-2.909200000000965c2.519499936350257-3.001400000001013,4.546899885132007-6.291500000000269,6.087899846201253-9.871000000001004h-10.320299739280017v-3.68999999999869h24.062499392130121v-10.260200000000623h3.869099902249218v10.200199999999313h24.480499381570553v3.689400000001115h-10.261699740760378c-1.798899954559602,10.440900000000511-5.937499850009772,18.75-12.419999686249866,24.930199999998877,5.900420959520488,4.480900000001384,13.990299646580752,8.251400000001013,24.271499386850337,11.31000000000131ZM716.962593185990045,245.397519311401084h-23.218720585180563c1.59759995963941,9.260699999998906,5.50779986085945,16.710000000000036,11.728499703720445,22.35110000000077,6.080099846400117-5.660200000000259,9.910220881460191-13.110900000000584,11.490220881460118-22.35110000000077Z"/><path class="uuid-08e30863-3a72-456b-914e-8e34c6954f04" d="M876.854792562529838,274.647519311401084h-24.152299389859763v4.171400000000176c0,4.459499999999935-2.369199940150793,6.690399999999499-7.109399820399631,6.690399999999499h-3.990199899200888l-1.468799962900448-3.690399999999499h5.578122181279468c1.961000000010245,0,2.941477603500971-.900400000000445,2.941477603500971-2.699700000000121v-4.471700000000055h-26.339899334599977v-3.75h26.339899334599977v-2.579099999999926c4.179599894410785-1.559600000000501,7.169899818869453-3.020000000000437,8.968699773429762-4.380900000000111h-22.980499419460102v-3.45010000000002h29.640699251211117v3.270000000000437c-3.119199921200561,2.121100000000297-6.980499823661376,4.290999999999258-11.580099707460249,6.510699999999815v.629399999999805h24.152299389859763v3.75ZM874.33529262617958,263.518119311401279h-3.601599909019569v-6.209499999999935h-41.912098941209479v6.569400000000314h-3.929699900731066v-10.079600000000937h5.160199869649659v-18.300799999999981c2.839799928260618-.278800000000047,5.951199849660043-1.629900000000816,9.331999764250213-4.049800000000687l1.978499950020705,2.760299999999916c-1.818299954071335,1.680600000000595-4.300699891360637,2.95010000000002-7.441377787679812,3.8100000000004v2.519500000000335h7.681677781609324v3.120599999999286h-7.681677781609324v3.270600000000741h7.681677781609324v3.058600000000297h-7.681677781609324v3.810999999999694h31.892577169988726v-3.810999999999694h-7.322299815019505v-3h7.322299815019505v-3.509299999999712h-7.259799816598388v-3.060100000000602h7.259799816598388v-3.270500000000538h-8.490199785519508v-3.629399999999805h12.298799689309817v20.220200000001569h4.712899880940313v9.779799999999341ZM857.32359305592945,240.238319311400119l-2.101599946909118,2.578600000000733c-1.13869997123038-1.099600000000464-2.689399932060041-2.288500000000568-4.648399882571539-3.569300000000112-1.621099959049388,1.35989999999947-3.441377554998326,2.60990000000038-5.460999862039898,3.750000000000909l-2.458899937890237-2.159200000000965c1.939399951010273-.800799999999981,3.638599908081233-1.740200000000186,5.099599871180544-2.820300000000316-2.441399938328686-.91989999999987-4.412077626249811-1.5600000000004-5.910199850699428-1.920900000000074l1.531299961319746-2.760199999999713c2.218699943950924.560499999999593,4.449199887600116,1.280699999999342,6.689399831009723,2.160600000000159,1.419899964130309-1.338400000000547,2.609422432129577-2.710000000000036,3.568422432121224-4.110300000000279l2.521477414029505,2.010199999999713c-.80079997977009,1.239800000000287-1.841799953470399,2.451200000000426-3.119199921200561,3.630900000000111,1.478499962649948.838800000000447,2.90819992653087,1.909099999999853,4.289099891650039,3.209899999999834ZM857.682993046850243,251.158219311399989l-2.519599936351369,1.979500000001281c-1.619099959099913-1.240200000000186-3.300799916609321-2.269999999999527-5.040999872649991-3.08980000000065-1.080099972719836.819800000001123-2.999999924219082,1.849600000000464-5.759799854498851,3.08980000000065l-2.281199942370222-1.800699999999779c2.581999934769556-1.219299999999748,4.431599888050187-2.278800000000047,5.550822230470658-3.178800000001502-1.119222342420471-.70010000000002-2.820322299450709-1.479399999999259-5.099622241870748-2.339799999998831l2.249999943160219-1.891099999999824c2.060499947949211.740699999999379,3.820299903489285,1.511199999999917,5.281199866589304,2.311000000000604.560599985839872-.320300000001225,1.68949995731964-1.27980000000025,3.3886999143906-2.880800000000818l2.759722517728733,1.410600000000159c-1.019522561688063,1.319800000000214-2.158222532918444,2.410699999999451-3.417922501099383,3.269499999999425,1.658199958110345.759800000000723,3.287099916960869,1.799400000000787,4.88869987650105,3.120599999999286Z"/><path class="uuid-08e30863-3a72-456b-914e-8e34c6954f04" d="M979.218664564088613,251.907819311400999c4.040999897921211,4.539999999999964,6.062499846852006,8.970700000000761,6.062499846852006,13.290500000000065,0,2.100099999999657-.544899986241944,3.770500000000538-1.636676219612127,5.009799999998904-1.087923711558688,1.240700000001198-2.613323673029299,1.860800000001291-4.574223623489161,1.860800000001291-1.080099972719836,0-2.380899939858864-.131400000000212-3.900399901469427-.389699999999721l-1.109376475040335-3.991700000000492c2.140576448990032.542000000000371,3.679676410109096.811600000000908,4.619076386379675.811600000000908.779299980311407,0,1.490299962350036-.300800000000891,2.130923613620325-.900900000000547.640576316360239-.599099999999453.960876308270599-1.399400000000242.960876308270599-2.399900000000343,0-1.499499999999898-.550699986089967-3.419399999999769-1.650399958300113-5.760800000000017-1.101476349971563-2.339299999999639-2.751899930490254-4.569799999999304-4.951099874930151-6.688899999999194l5.851499852178677-15.031300000001465h-8.910099774908304v47.792000000000371h-3.931699900680542v-51.601500000000669h16.830099574839551v3.809500000000298l-5.790999853710673,14.190500000000611ZM1020.591763518919834,274.499119311401955c-.52149998682944,3.239699999999175-1.220799969159998,5.590299999999843-2.101599946910937,7.049299999998766-.878899977798937,1.460399999999936-2.310599941629334,2.190400000000409-4.289099891650039,2.190400000000409h-4.679699881779015c-3.121099921159839,0-4.679599881779723-1.640599999999722-4.679599881779723-4.91989999999987v-15.870100000000093h-6.332099840039518c-.119099996991281,6.439900000000307-1.374999965271854,11.264100000000326-3.763699904920941,14.475099999999657-2.390599939610183,3.209400000000642-6.824199827609846,5.90520000000015-13.306599663850648,8.085399999999936l-2.519499936348438-3.451099999999315c6.019499847929183-1.779300000000148,10.150399743579328-4.08010000000013,12.390623619688995-6.900000000001455,2.240176010700452-2.819799999998395,3.36907598218022-6.870099999999184,3.390575981640723-12.149399999999332h-8.220699792331288v-3.931100000000697h32.132799188260833v3.871100000001206h-10.023399746791256v14.940399999999499c0,.499500000000808.160199995960284.964900000000853.480499987861549,1.394500000000335.320299991908541.430700000000797.701099982288724.645099999999729,1.140599971189658.645099999999729h3.810499903738673c.779299980311407,0,1.37499996526094-.640699999999924,1.785199954902055-1.920000000000073.408199989688001-1.279299999999239.753924551529053-2.939899999999398,1.035199973848648-4.980399999999463l3.74999990527067,1.470700000000761ZM1017.140563606099022,247.287619311400704l-3.80859990378849.061100000000806v-5.281800000000658h-22.621099428541129v5.281800000000658h-3.871099902209608v-9.091300000000956h13.169899667300342v-6.809600000000501h3.931699900680542v6.750500000000102h13.199199666558343v9.089300000000549ZM1012.101488191330645,253.07771931139996h-20.281223945581587v-3.930199999998877h20.281223945581587v3.930199999998877Z"/><path class="uuid-08e30863-3a72-456b-914e-8e34c6954f04" d="M1166.458497528108637,274.647519311401084h-24.152300000008836v4.171400000000176c0,4.459499999999935-2.371100000000297,6.690399999999499-7.109400000001187,6.690399999999499h-3.990199999989272l-1.470700000008947-3.690399999999499h5.58009999999922c1.960900000009133,0,2.941399999999703-.900400000000445,2.941399999999703-2.699700000000121v-4.471700000000055h-26.341824835330044v-3.75h26.341824835330044v-2.579099999999926c4.179700000000594-1.559600000000501,7.16990000000078-3.020000000000437,8.968700000001263-4.380900000000111h-22.980525146811488v-3.45010000000002h29.640725146809928v3.270000000000437c-3.119199999990087,2.121100000000297-6.98049999999057,4.290999999999258-11.58009999999922,6.510699999999815v.629399999999805h24.152300000008836v3.75ZM1163.937097528099912,263.518119311401279h-3.599699999989753v-6.209499999999935h-41.910124999840264v6.569400000000314h-3.931699900680542v-10.079600000000937h5.162199869599135v-18.300799999999981c2.837799928311142-.278800000000047,5.949199849710567-1.629900000000816,9.328125030911906-4.049800000000687l1.98050000000876,2.760299999999916c-1.820400000000518,1.680600000000595-4.298925208000583,2.95010000000002-7.439525128669629,3.8100000000004v2.519500000000335h7.679725128669816v3.120599999999286h-7.679725128669816v3.270600000000741h7.679725128669816v3.058600000000297h-7.679725128669816v3.810999999999694h31.890625128660758v-3.810999999999694h-7.320299999990311v-3h7.320299999990311v-3.509299999999712h-7.259699999991426v-3.060100000000602h7.259699999991426v-3.270500000000538h-8.490200000000186v-3.629399999999805h12.298800000000483v20.220200000001569h4.710999999999331v9.779799999999341ZM1146.927297528100098,240.238319311400119l-2.101599999990867,2.578600000000733c-1.140600000009727-1.099600000000464-2.68940000001021-2.288500000000568-4.65040000000954-3.569300000000112-1.619099999999889,1.35989999999947-3.439399999999296,2.60990000000038-5.458899999990535,3.750000000000909l-2.461000000010245-2.159200000000965c1.941399999999703-.800799999999981,3.642600000010134-1.740200000000186,5.101600000010876-2.820300000000316-2.441399999999703-.91989999999987-4.410200000011173-1.5600000000004-5.910200000011173-1.920900000000074l1.529300000001967-2.760199999999713c2.220699999998033.560499999999593,4.451199999999517,1.280699999999342,6.689500000009502,2.160600000000159,1.419899999998961-1.338400000000547,2.611299999998664-2.710000000000036,3.572199999989607-4.110300000000279l2.519599999999627,2.010199999999713c-.800799999989977,1.239800000000287-1.841799999989234,2.451200000000426-3.121100000000297,3.630900000000111,1.480400000000373.838800000000447,2.910100000000966,1.909099999999853,4.291000000001077,3.209899999999834ZM1147.286697528108562,251.158219311399989l-2.519599999999627,1.979500000001281c-1.621100000000297-1.240200000000186-3.300699999999779-2.269999999999527-5.03899999999885-3.08980000000065-1.082100000001446.819800000001123-3,1.849600000000464-5.761700000000928,3.08980000000065l-2.279300000009243-1.800699999999779c2.580000000009022-1.219299999999748,4.429599999999482-2.278800000000047,5.550699999999779-3.178800000001502-1.121100000000297-.70010000000002-2.822199999989607-1.479399999999259-5.101500000000669-2.339799999998831l2.25-1.891099999999824c2.060499999999593.740699999999379,3.82030000001032,1.511199999999917,5.279300000011062,2.311000000000604.560499999990498-.320300000001225,1.689399999990201-1.27980000000025,3.390599999989718-2.880800000000818l2.759799999999814,1.410600000000159c-1.019599999999627,1.319800000000214-2.160199999991164,2.410699999999451-3.419999999990978,3.269499999999425,1.660199999991164.759800000000723,3.291099999991275,1.799400000000787,4.890699999999924,3.120599999999286Z"/><path class="uuid-08e30863-3a72-456b-914e-8e34c6954f04" d="M1311.453256039929329,282.508819311400657h-54.59959999999046v-3.869599999999991h25.439400000001115v-14.070799999999508h-18.330000000010841v-3.870100000000093h18.330000000010841v-12.240200000001096h-13.589800000010655c-1.640599999998813,4.259200000001329-4.380900000000111,8.189400000001115-8.220699999990757,11.789500000001681l-3.958999999998923-2.070300000000316c6.558600000000297-6.059599999999591,10.208999999998923-13.479000000000269,10.949199999999109-22.259300000000621l4.050800000000891,1.16989999999987c-.160200000020268,2.040100000000166-.630900000011025,4.559599999999591-1.412099999999555,7.559600000000501h12.122999999990498v-13.139600000000428h4.048899999997957v13.080000000000837h21.179700000000594v3.870199999998476h-21.179700000000594v12.179600000001301h18.060500000001412v3.870200000000295h-18.060500000001412v14.071199999999408h25.16990000000078v3.929699999999684Z"/><path class="uuid-08e30863-3a72-456b-914e-8e34c6954f04" d="M1456.869826969430505,245.337019311401491l-2.158200000001671,3.121099999998478c-6.820299999999406-1.679699999998775-12.162099999999555-3.619699999998375-16.021499999998923-5.820399999998699v2.699300000000221h-20.281200000001263v-2.969299999999748c-5.839799999999741,3.020999999999731-11.08009999999922,4.989799999999377-15.718799999998737,5.910699999999451l-1.980400000000373-3.150399999999536c11.240200000000186-2.740700000000288,20.599599999999555-7.320800000001327,28.08009999999922-13.740700000001198l3.689400000001115,1.230399999999463c-.400400000000445.5-.75.85110000000077-1.048800000000483,1.050300000000789,6.638699999999517,5.519499999999425,15.121100000000297,9.409699999999248,25.439400000001115,11.669000000000779ZM1450.481226969428462,262.528919311401296h-43.560599999998885v-14.070800000001327h43.560599999998885v14.070800000001327ZM1446.910826969429763,285.568419311401158h-3.691399999999703v-2.399900000000343h-28.980400000000373v2.399900000000343h-3.689500000000407v-19.889600000000428h36.361300000000483v19.889600000000428ZM1426.899126969428835,259.287619311400704v-7.5h-16.28899999999885v7.5h16.28899999999885ZM1443.21942696943006,272.84871931140151v-3.870600000000195h-28.980400000000373v3.870600000000195h28.980400000000373ZM1443.21942696943006,279.92881931140073v-3.929699999998775h-28.980400000000373v3.929699999998775h28.980400000000373ZM1422.908926969428649,256.318419311401158l-3.089799999999741,2.159700000000157c-1.859399999999368-1.878399999999601-3.679699999998775-3.269599999999627-5.458999999998923-4.169499999999971l3.119099999999889-1.799800000000687c2.121100000000297.899000000000342,3.929699999998775,2.170000000000073,5.429699999998775,3.809600000000501ZM1437.459726969429539,242.008819311400657c-2.900400000000445-1.520000000000437-5.708999999998923-3.57130000000052-8.429700000000594-6.15230000000065-2.902399999999034,2.400900000000547-6.150399999998626,4.452100000000428-9.75,6.15230000000065h18.179700000000594ZM1446.789826969428759,259.287619311400704v-7.5h-16.199300000000221v7.5h16.199300000000221ZM1443.160826969429763,253.558219311401444c-1.181599999999889,1.879299999999603-2.960900000000038,3.479399999999259-5.341700000000856,4.799299999999675l-3.298899999999776-1.648999999999432c2.619200000001001-1.480400000000373,4.41990000000078-2.960900000000038,5.400400000000445-4.440400000000409l3.240200000000186,1.290100000000166Z"/></g></svg>