<?xml version="1.0" encoding="UTF-8"?><svg id="uuid-fb34e670-43e0-4967-bc78-d0cb1d4e82eb" xmlns="http://www.w3.org/2000/svg" width="223.375181367463682mm" height="244.784378947474437mm" xmlns:xlink="http://www.w3.org/1999/xlink" viewBox="0 0 633.189500000000407 693.876990114615182"><defs><style>.uuid-da32e535-6906-42a3-ba61-3ff535f5858d{fill:#00c2f3;}.uuid-64368b50-ae00-4397-986c-effd9a6a3a90{fill:#fff;}.uuid-9a471dcc-76fd-4941-813a-6ee85892a156{fill:#ee212e;}.uuid-40552003-e684-4712-84b7-19043abffea3{clip-path:url(#uuid-033c10c5-15f6-4a50-8ea1-0f6bb93ed5b6);}.uuid-081d2ed0-6586-4718-83ef-158fb22c2e10{fill:none;}.uuid-cc85a211-99eb-4e7f-86bf-d852e5743bf6{fill:#333e48;}.uuid-60704238-7be9-4aac-bc81-3910c68e8c12{fill:#46bc96;}</style><clipPath id="uuid-033c10c5-15f6-4a50-8ea1-0f6bb93ed5b6"><rect class="uuid-081d2ed0-6586-4718-83ef-158fb22c2e10" x=".001000000000204" width="633.189400000001115" height="693.876990114615182"/></clipPath></defs><g class="uuid-40552003-e684-4712-84b7-19043abffea3"><rect class="uuid-081d2ed0-6586-4718-83ef-158fb22c2e10" x="97.559589062500891" y="587.748036989614775" width="462" height="46.3251953125"/><path class="uuid-cc85a211-99eb-4e7f-86bf-d852e5743bf6" d="M137.298846875000891,619.834951052114775v4.537109375h-37.38671875v-4.537109375h37.38671875ZM133.769550000000891,595.176747927114775v4.3271484375h-30.3291015625v-4.3271484375h30.3291015625Z"/><path class="uuid-cc85a211-99eb-4e7f-86bf-d852e5743bf6" d="M158.546893750000891,595.680654177114775v-1.974609375h-13.484375v-2.8984375h30.91796875v2.8984375h-13.5263671875v1.974609375h16.298828125v7.5615234375h-3.7392578125v-4.95703125h-12.5595703125v6.6376953125h-1.1767578125l2.6884765625,1.3017578125-.8818359375.671875c3.9482421875,1.974609375,10.921875,3.94921875,17.2646484375,4.7890625-.7978515625.755859375-1.8486328125,2.2685546875-2.3525390625,3.1923828125-2.8984375-.50390625-5.880859375-1.3017578125-8.6953125-2.267578125v1.51171875h-17.474609375v-1.5966796875c-2.6044921875,1.0087890625-5.2509765625,1.8486328125-7.6875,2.5625-.7568359375-.7978515625-2.1845703125-2.1416015625-3.1083984375-2.7724609375,6.888671875-1.51171875,14.408203125-4.158203125,18.9453125-7.392578125h-1.4287109375v-6.6376953125h-12.5185546875v4.95703125h-3.5703125v-7.5615234375h16.0888671875ZM148.548846875000891,598.621083864614775c2.6044921875.419921875,6.2177734375,1.302734375,8.1494140625,1.974609375l-.9658203125,2.1005859375,1.0498046875-.251953125.294921875,2.3525390625c-3.5712890625,1.0078125-7.099609375,1.9736328125-10.1240234375,2.814453125l-1.0927734375-2.8564453125c2.478515625-.4208984375,5.83984375-1.21875,9.41015625-1.974609375-1.974609375-.7138671875-5.29296875-1.5966796875-7.8134765625-2.1005859375l1.091796875-2.05859375ZM170.308612500000891,615.802724489614775l.5888671875-.2099609375,2.5205078125,1.595703125c-1.974609375,2.6044921875-5.208984375,5.125-8.2333984375,7.015625l3.4443359375,1.51171875-1.72265625,2.814453125c-3.2763671875-1.6796875-9.8720703125-4.4521484375-14.66015625-6.2587890625l1.6796875-2.39453125c2.142578125.755859375,4.7890625,1.7646484375,7.3095703125,2.73046875,1.974609375-.9658203125,4.2431640625-2.39453125,6.0068359375-3.822265625h-20.9189453125v-2.982421875h23.9853515625ZM166.864276562500891,611.685536989614775c-2.5205078125-1.0078125-4.7470703125-2.1005859375-6.46875-3.1083984375-1.974609375,1.1337890625-4.1591796875,2.1845703125-6.427734375,3.1083984375h12.896484375ZM164.847675000000891,602.192372927114775l.4208984375.083984375-1.05078125-1.5966796875c2.39453125-.3779296875,5.96484375-1.5126953125,8.0234375-2.1845703125l1.5966796875,2.142578125c-2.1845703125.83984375-5.1669921875,1.470703125-7.51953125,1.890625,3.1083984375.671875,6.7626953125,1.7216796875,8.86328125,2.5205078125l-.9658203125,2.478515625c-2.39453125-1.0087890625-6.931640625-2.3525390625-10.3759765625-3.193359375l1.0078125-2.1416015625Z"/><path class="uuid-cc85a211-99eb-4e7f-86bf-d852e5743bf6" d="M221.298846875000891,619.834951052114775v4.537109375h-37.38671875v-4.537109375h37.38671875ZM217.769550000000891,595.176747927114775v4.3271484375h-30.3291015625v-4.3271484375h30.3291015625Z"/><path class="uuid-cc85a211-99eb-4e7f-86bf-d852e5743bf6" d="M242.546893750000891,595.680654177114775v-1.974609375h-13.484375v-2.8984375h30.91796875v2.8984375h-13.5263671875v1.974609375h16.298828125v7.5615234375h-3.7392578125v-4.95703125h-12.5595703125v6.6376953125h-1.1767578125l2.6884765625,1.3017578125-.8818359375.671875c3.9482421875,1.974609375,10.921875,3.94921875,17.2646484375,4.7890625-.7978515625.755859375-1.8486328125,2.2685546875-2.3525390625,3.1923828125-2.8984375-.50390625-5.880859375-1.3017578125-8.6953125-2.267578125v1.51171875h-17.474609375v-1.5966796875c-2.6044921875,1.0087890625-5.2509765625,1.8486328125-7.6875,2.5625-.7568359375-.7978515625-2.1845703125-2.1416015625-3.1083984375-2.7724609375,6.888671875-1.51171875,14.408203125-4.158203125,18.9453125-7.392578125h-1.4287109375v-6.6376953125h-12.5185546875v4.95703125h-3.5703125v-7.5615234375h16.0888671875ZM232.548846875000891,598.621083864614775c2.6044921875.419921875,6.2177734375,1.302734375,8.1494140625,1.974609375l-.9658203125,2.1005859375,1.0498046875-.251953125.294921875,2.3525390625c-3.5712890625,1.0078125-7.099609375,1.9736328125-10.1240234375,2.814453125l-1.0927734375-2.8564453125c2.478515625-.4208984375,5.83984375-1.21875,9.41015625-1.974609375-1.974609375-.7138671875-5.29296875-1.5966796875-7.8134765625-2.1005859375l1.091796875-2.05859375ZM254.308612500000891,615.802724489614775l.5888671875-.2099609375,2.5205078125,1.595703125c-1.974609375,2.6044921875-5.208984375,5.125-8.2333984375,7.015625l3.4443359375,1.51171875-1.72265625,2.814453125c-3.2763671875-1.6796875-9.8720703125-4.4521484375-14.66015625-6.2587890625l1.6796875-2.39453125c2.142578125.755859375,4.7890625,1.7646484375,7.3095703125,2.73046875,1.974609375-.9658203125,4.2431640625-2.39453125,6.0068359375-3.822265625h-20.9189453125v-2.982421875h23.9853515625ZM250.864276562500891,611.685536989614775c-2.5205078125-1.0078125-4.7470703125-2.1005859375-6.46875-3.1083984375-1.974609375,1.1337890625-4.1591796875,2.1845703125-6.427734375,3.1083984375h12.896484375ZM248.847675000000891,602.192372927114775l.4208984375.083984375-1.05078125-1.5966796875c2.39453125-.3779296875,5.96484375-1.5126953125,8.0234375-2.1845703125l1.5966796875,2.142578125c-2.1845703125.83984375-5.1669921875,1.470703125-7.51953125,1.890625,3.1083984375.671875,6.7626953125,1.7216796875,8.86328125,2.5205078125l-.9658203125,2.478515625c-2.39453125-1.0087890625-6.931640625-2.3525390625-10.3759765625-3.193359375l1.0078125-2.1416015625Z"/><path class="uuid-cc85a211-99eb-4e7f-86bf-d852e5743bf6" d="M288.538104687500891,607.485341677114775v4.9140625h13.31640625v3.6552734375h-13.31640625v6.97265625h17.0126953125v3.697265625h-37.8486328125v-3.697265625h16.6767578125v-6.97265625h-12.896484375v-3.6552734375h12.896484375v-4.9140625h4.1591796875ZM270.474628125000891,603.410146364614775c.8818359375-.16796875,1.8056640625-.83984375,2.9404296875-1.9326171875.923828125-.7978515625,3.3603515625-3.3603515625,5.62890625-6.3427734375h-10.333984375v-3.6962890625h35.4541015625v3.6962890625h-19.9111328125c-2.2265625,2.8984375-4.62109375,5.5869140625-6.9736328125,7.8134765625l17.6435546875-.6298828125c-1.5546875-1.38671875-3.150390625-2.7724609375-4.6630859375-3.94921875l3.150390625-2.142578125c3.78125,2.8564453125,8.5703125,6.9736328125,10.8798828125,9.8720703125l-3.486328125,2.4365234375c-.6298828125-.83984375-1.4697265625-1.8486328125-2.478515625-2.8984375-22.263671875.9658203125-24.7841796875,1.0498046875-26.548828125,1.638671875-.2099609375-.8408203125-.83984375-2.8154296875-1.3017578125-3.865234375Z"/><path class="uuid-cc85a211-99eb-4e7f-86bf-d852e5743bf6" d="M347.298846875000891,619.834951052114775v4.537109375h-37.38671875v-4.537109375h37.38671875ZM343.769550000000891,595.176747927114775v4.3271484375h-30.3291015625v-4.3271484375h30.3291015625Z"/><path class="uuid-cc85a211-99eb-4e7f-86bf-d852e5743bf6" d="M368.546893750000891,595.680654177114775v-1.974609375h-13.484375v-2.8984375h30.91796875v2.8984375h-13.5263671875v1.974609375h16.298828125v7.5615234375h-3.7392578125v-4.95703125h-12.5595703125v6.6376953125h-1.1767578125l2.6884765625,1.3017578125-.8818359375.671875c3.9482421875,1.974609375,10.921875,3.94921875,17.2646484375,4.7890625-.7978515625.755859375-1.8486328125,2.2685546875-2.3525390625,3.1923828125-2.8984375-.50390625-5.880859375-1.3017578125-8.6953125-2.267578125v1.51171875h-17.474609375v-1.5966796875c-2.6044921875,1.0087890625-5.2509765625,1.8486328125-7.6875,2.5625-.7568359375-.7978515625-2.1845703125-2.1416015625-3.1083984375-2.7724609375,6.888671875-1.51171875,14.408203125-4.158203125,18.9453125-7.392578125h-1.4287109375v-6.6376953125h-12.5185546875v4.95703125h-3.5703125v-7.5615234375h16.0888671875ZM358.548846875000891,598.621083864614775c2.6044921875.419921875,6.2177734375,1.302734375,8.1494140625,1.974609375l-.9658203125,2.1005859375,1.0498046875-.251953125.294921875,2.3525390625c-3.5712890625,1.0078125-7.099609375,1.9736328125-10.1240234375,2.814453125l-1.0927734375-2.8564453125c2.478515625-.4208984375,5.83984375-1.21875,9.41015625-1.974609375-1.974609375-.7138671875-5.29296875-1.5966796875-7.8134765625-2.1005859375l1.091796875-2.05859375ZM380.308612500000891,615.802724489614775l.5888671875-.2099609375,2.5205078125,1.595703125c-1.974609375,2.6044921875-5.208984375,5.125-8.2333984375,7.015625l3.4443359375,1.51171875-1.72265625,2.814453125c-3.2763671875-1.6796875-9.8720703125-4.4521484375-14.66015625-6.2587890625l1.6796875-2.39453125c2.142578125.755859375,4.7890625,1.7646484375,7.3095703125,2.73046875,1.974609375-.9658203125,4.2431640625-2.39453125,6.0068359375-3.822265625h-20.9189453125v-2.982421875h23.9853515625ZM376.864276562500891,611.685536989614775c-2.5205078125-1.0078125-4.7470703125-2.1005859375-6.46875-3.1083984375-1.974609375,1.1337890625-4.1591796875,2.1845703125-6.427734375,3.1083984375h12.896484375ZM374.847675000000891,602.192372927114775l.4208984375.083984375-1.05078125-1.5966796875c2.39453125-.3779296875,5.96484375-1.5126953125,8.0234375-2.1845703125l1.5966796875,2.142578125c-2.1845703125.83984375-5.1669921875,1.470703125-7.51953125,1.890625,3.1083984375.671875,6.7626953125,1.7216796875,8.86328125,2.5205078125l-.9658203125,2.478515625c-2.39453125-1.0087890625-6.931640625-2.3525390625-10.3759765625-3.193359375l1.0078125-2.1416015625Z"/><path class="uuid-cc85a211-99eb-4e7f-86bf-d852e5743bf6" d="M431.298846875000891,619.834951052114775v4.537109375h-37.38671875v-4.537109375h37.38671875ZM427.769550000000891,595.176747927114775v4.3271484375h-30.3291015625v-4.3271484375h30.3291015625Z"/><path class="uuid-cc85a211-99eb-4e7f-86bf-d852e5743bf6" d="M473.970721875000891,606.140615114614775v4.369140625h-38.646484375v-4.369140625h38.646484375Z"/><path class="uuid-cc85a211-99eb-4e7f-86bf-d852e5743bf6" d="M484.254901562500891,615.003896364614775v-11.173828125h12.4765625v-5.880859375h-9.7041015625c-1.8896484375,3.150390625-3.990234375,5.96484375-6.1748046875,8.107421875-.755859375-.7138671875-2.4365234375-2.0166015625-3.40234375-2.5625,3.90625-3.40234375,7.2666015625-8.8212890625,9.2412109375-14.408203125l4.033203125,1.0498046875c-.5048828125,1.3447265625-1.05078125,2.6884765625-1.6806640625,3.9912109375h24.57421875v3.822265625h-12.8125v5.880859375h11.8466796875v3.697265625h-11.8466796875v7.4765625h14.955078125v3.865234375h-14.955078125v9.3671875h-4.07421875v-9.3671875h-19.3232421875v-3.865234375h6.8466796875ZM496.731464062500891,615.003896364614775v-7.4765625h-8.52734375v7.4765625h8.52734375Z"/><path class="uuid-cc85a211-99eb-4e7f-86bf-d852e5743bf6" d="M541.251971875000891,589.001943239614775c.671875,1.259765625,1.3857421875,2.8564453125,1.890625,4.2001953125h14.3662109375v3.697265625h-30.9599609375v7.6025390625c0,6.8896484375-.5458984375,16.9716796875-4.07421875,23.6923828125-.7978515625-.587890625-2.6044921875-1.427734375-3.61328125-1.763671875,3.4453125-6.3857421875,3.7392578125-15.54296875,3.7392578125-21.88671875v-11.341796875h16.046875c-.419921875-1.091796875-.8818359375-2.310546875-1.38671875-3.2763671875l3.9912109375-.923828125ZM551.334003125000891,613.450185427114775l.7138671875-.16796875,2.478515625,1.3017578125c-1.890625,3.4873046875-4.705078125,6.1337890625-8.19140625,8.107421875,3.486328125,1.05078125,7.51953125,1.72265625,11.8037109375,2.1005859375-.83984375.83984375-1.806640625,2.4365234375-2.310546875,3.4443359375-5.2509765625-.587890625-9.9970703125-1.7216796875-14.072265625-3.40234375-4.28515625,1.5966796875-9.1572265625,2.5625-14.1982421875,3.150390625-.2939453125-.9658203125-1.0087890625-2.478515625-1.638671875-3.3603515625,4.033203125-.3359375,8.0234375-.9658203125,11.59375-1.974609375-2.3935546875-1.4697265625-4.4521484375-3.2763671875-6.0908203125-5.376953125l1.5966796875-.6298828125h-5.0830078125v-3.1923828125h23.3984375ZM537.554706250000891,597.949208864614775v3.2763671875h9.1162109375v-3.2763671875h3.90625v3.2763671875h6.4697265625v3.1923828125h-6.4697265625v6.8056640625h-16.802734375v-6.8056640625h-6.30078125v-3.1923828125h6.30078125v-3.2763671875h3.7802734375ZM535.497089062500891,616.642568239614775c1.595703125,1.7646484375,3.822265625,3.234375,6.4267578125,4.4111328125,2.6884765625-1.134765625,4.95703125-2.6044921875,6.6796875-4.4111328125h-13.1064453125ZM537.554706250000891,604.417958864614775v3.7392578125h9.1162109375v-3.7392578125h-9.1162109375Z"/><path class="uuid-9a471dcc-76fd-4941-813a-6ee85892a156" d="M77.710000000000946,170.747095686565444c3.777299999999741,0,6.837900000000445,3.060499922685267,6.837900000000445,6.836899827285379-.002000000000407-.139699996470881-.005900000000111-.27829999297046-.005900000000111-.41899998941517,0-51.154298707733687,41.468799999998737-92.622997660146211,92.623100000000704-92.622997660146211,3.777299999997922,0,6.837799999999334-3.060599922682741,6.837799999999334-6.837899827260117,0-3.776399904600112-3.060500000001412-6.837899827260117-6.837799999999334-6.837899827260117-14.343800000000556,0-28.265699999999924,2.812499928950274-41.380900000000111,8.359399788823794-12.658200000001671,5.354499864733953-24.025400000000445,13.016599671173026-33.783200000001671,22.774399424669355-9.757799999999406,9.758799753472886-17.421899999999368,21.124999466338522-22.775399999998626,33.784199146540232-5.546900000001187,13.11519966868218-8.359400000001187,27.037099316985405-8.359400000001187,41.380798954633065,0,.14069999644471.003899999999703.279299992944289.005900000000111.41899998941517,0-3.776399904600112,3.060499999999593-6.836899827285379,6.837900000000445-6.836899827285379Z"/><path class="uuid-60704238-7be9-4aac-bc81-3910c68e8c12" d="M170.329100000000835,276.626993011814193c0-3.776399904600112,3.060600000000704-6.837899827260117,6.83600000000115-6.837899827260117-51.015699999999924,0-92.392600000001039-41.242198958134395-92.617200000000594-92.205097670703253,0-3.776399904600112-3.060600000000704-6.836899827285379-6.837900000000445-6.836899827285379-3.777400000000853,0-6.837900000000445,3.060499922685267-6.837900000000445,6.836899827285379.054700000000594,14.196299641371297,2.861300000000483,27.9755992932769,8.353500000001077,40.962898965190107,5.353499999999258,12.659199680201709,13.01759999999922,24.025399393066436,22.775399999998626,33.783199146564584,9.757800000001225,9.758799753471976,21.125,17.420899559911049,33.783200000001671,22.775396489008926,13.115200000000186,5.546802795512122,27.037099999999555,8.359302724462395,41.380900000000111,8.359302724462395-3.775400000000445,0-6.83600000000115-3.061499922660005-6.83600000000115-6.837799827262643Z"/><path class="uuid-da32e535-6906-42a3-ba61-3ff535f5858d" d="M251.26470000000154,243.702093843567127c-2.670000000000073-2.670899932527391-6.998100000000704-2.670899932527391-9.670000000000073,0-16.671800000000076,16.145599592127837-39.386700000000928,26.086999340986949-64.429599999999482,26.086999340986949-3.775400000000445,0-6.83600000000115,3.061499922660005-6.83600000000115,6.837899827260117,0,3.776299904602638,3.060600000000704,6.837799827262643,6.83600000000115,6.837799827262643,14.345699999998033,0,28.267499999998108-2.812499928950274,41.382799999999406-8.359302724462395,12.203099999998813-5.160196934006308,23.199199999999109-12.473696749251758,32.716800000000148-21.732496515354796,2.671800000000076-2.6708999325283,2.671800000000076-6.999999823165126,0-9.670899755692517Z"/><path class="uuid-da32e535-6906-42a3-ba61-3ff535f5858d" d="M233.458000000000538,120.873996946465923c-15.035099999999147-15.035099620181427-35.027299999999741-23.315399411003455-56.292899999998554-23.315399411003455-21.261800000000221,0-41.253900000001522,8.280299790822028-56.29110000000037,23.315399411003455-15.035100000000966,15.036199620153639-23.316400000001522,35.027399115133449-23.316400000001522,56.290998577969731,0,21.265699462783232,8.281300000000556,41.254898957813566,23.316400000001522,56.291998577944469,15.037199999998847,15.035199620178901,35.029300000000148,23.31739941095293,56.29110000000037,23.31739941095293,21.265599999998813,0,41.257799999999406-8.28219979077403,56.292899999998554-23.31739941095293,15.035200000000259-15.037099620130903,23.314500000000407-35.026299115161237,23.314500000000407-56.291998577944469,0-21.263599462836282-8.279300000000148-41.254798957816092-23.314500000000407-56.290998577969731Z"/><path class="uuid-cc85a211-99eb-4e7f-86bf-d852e5743bf6" d="M121.061500000001615,202.910194874057197v-51.489298699270876h11.167999999999665v3.806593939828417h-6.472600000000966v43.877000000000407h6.472600000000966v3.805704759442051h-11.167999999999665Z"/><path class="uuid-cc85a211-99eb-4e7f-86bf-d852e5743bf6" d="M233.270500000000538,151.420896174786321v51.489298699270876h-11.16399999999885v-3.805704759442051h6.468699999999444v-43.877000000000407h-6.468699999999444v-3.806593939828417h11.16399999999885Z"/><path class="uuid-64368b50-ae00-4397-986c-effd9a6a3a90" d="M146.997100000000501,187.624995260193828c0,1.028299974022957.015600000000632,2.242199943357264.046900000001187,3.635699908154493.031199999999444,1.394599964769441.076099999998405,2.812499928950274.130799999998999,4.248099892683058.052800000001298,1.437499963686605.115300000001298,2.811499928976446.193400000000111,4.120099895918429.072200000000521,1.308595157664968.164000000000669,2.402299939312798.271500000000742,3.28129991710739h-6.595699999999852v-36.364299081360514c0-3.132799920858815-.052800000001298-5.968799849216339-.162100000001374-8.511699784976372-.105499999999665-2.542999935758417-.26759999999922-4.748099880052905-.482499999998254-6.61329983293399h6.59769999999844v36.204099085407506Z"/><path class="uuid-64368b50-ae00-4397-986c-effd9a6a3a90" d="M175.799800000000687,170.084995703291497v4.216799893474672h-6.050799999999072v24.393499383768358h6.050799999999072v4.215799893499934h-18.021499999998923v-4.215799893499934h5.953199999999924v-24.393499383768358h-5.953199999999924v-4.216799893474672h18.021499999998923Z"/><path class="uuid-64368b50-ae00-4397-986c-effd9a6a3a90" d="M189.315400000001318,170.084995703291497c.128999999998996.344699991292146.257899999998699.788999980068184.386800000000221,1.337899966202713.128899999999703.545799986211023.246099999998478,1.119099971728247.353499999999258,1.720699956530552.105499999999665.59959998485283.203100000000632,1.190399969927967.291000000001077,1.76949995529867l.255900000000111,1.447299963438127c2.060499999999593-2.445399938224,4.128899999999703-4.208999893671717,6.210899999998219-5.292999866287573,2.080100000001039-1.082999972641119,4.25-1.624999958949047,6.5-1.624999958949047,1.716800000000148,0,3.234400000001187.284199992820504,4.554700000000594.851499978489301,1.318300000000818.570399985590484,2.429700000000594,1.470699962846993,3.33009999999922,2.703199931711424.900400000000445,1.234299968818959,1.582000000000335,2.833999928407138,2.04490000000078,4.795899878845375.460900000000038,1.96379995038933.691399999999703,4.327099890689169.691399999999703,7.096599820724805v14.480499634191801c0,3.625999908399535-.318400000000111,6.635799832365592-.951199999999517,9.027395151127166-.630799999998999,2.392504560381894-1.51759999999922,4.301704512150536-2.654300000000148,5.730404476058538-1.136700000000928,1.42389996403017-2.505800000000818,2.433595523941221-4.103499999999258,3.022499923646137-1.597700000000259.590799985075137-3.372999999999593.885699977625336-5.326199999999517.885699977625336-.96480000000156,0-2-.155199996079318-3.105400000000373-.46679998820764-1.10360000000037-.311499992130848-2.107500000000073-.745099981177191-3.007800000001225-1.303699967065768l2.091700000000856-4.827104422056436c.494199999999182.365204534773511,1.152399999999034.669904527076142,1.97860000000037.917904520811135.826099999998405.246095479188625,1.669899999998961.369199990673224,2.525399999998626.369199990673224,1.031200000001263,0,1.953100000000632-.165999995806487,2.769500000000335-.498104511484598.814400000001115-.332999999999629,1.505800000000818-.916000000000167,2.074200000000928-1.753895431625097.570299999999406-.836899978858128,1.003899999999703-1.984299949873275,1.304699999998775-3.443299913014926.300800000000891-1.45899996314256.449200000000928-3.315499916242516.449200000000928-5.567399859355646v-14.16019964228326c0-2.574205153720868-.132799999999406-4.66109988225071-.400400000000445-6.258799841889413-.269500000000335-1.598599959615967-.671899999999368-2.843699928161186-1.209000000000742-3.73340531183203-.535099999999147-.889594571381167-1.204999999998108-1.485294556332519-2.011699999999109-1.78709454870841-.802700000000186-.298799992452587-1.742200000000594-.450199988626991-2.814399999999296-.450199988626991-1.158200000001671,0-2.289100000001781.273499993090809-3.394599999999627.822294537335438-1.103500000001077.546905428075661-2.119100000001708,1.254905410190077-3.042900000000373,2.1231053882575-.921900000001187.868099978069949-1.736400000001595,1.849599953275174-2.443400000000111,2.945299925595464-.709000000000742,1.093699972370814-1.234400000001187,2.187499944739102-1.578100000000632,3.281199917109006v18.665999528458087h-5.953100000000632v-19.791999500012025c0-3.174799919797806-.183600000000297-5.862299851905846-.548899999999776-8.061499796349381-.363299999999072-2.199199944443535-.718699999999444-3.856399902579142-1.060499999999593-4.972599874381558h5.792900000000373Z"/><path class="uuid-cc85a211-99eb-4e7f-86bf-d852e5743bf6" d="M129.76510000000053,447.271890114614507h-32.207500000000437v-5.346599999999853h32.207500000000437v5.346599999999853ZM125.573700000000827,504.202090114615203h-5.518099999999322v-5.860300000001189h-12.874499999999898v5.860300000001189h-5.603000000000975v-28.914500000000771h23.995600000000195v28.914500000000771ZM125.316900000001624,458.307590114613959l-23.653400000001056.085000000000946v-5.345800000000963h23.653400000001056v5.260800000000017ZM125.40230000000156,469.51359011461409h-23.738800000000992v-5.346599999999853h23.738800000000992v5.346599999999853ZM124.333000000000538,436.407690114614525l-21.728499999999258.085399999999936v-5.346199999999953h21.728499999999258v5.260800000000017ZM120.055600000001505,493.080490114613895v-12.531699999999546h-12.959899999999834v12.531699999999546h12.959899999999834ZM175.317399999999907,469.59959011461433l-46.236899999999878.084899999999834v-5.260699999999815h11.462900000000445l2.481000000001586-13.216800000000148h-10.692900000001828v-5.260699999999815h11.548800000000483l1.838900000000649-9.795399999999972h-16.381800000001022v-5.346199999999953h42.473100000001068v5.261700000000019h-20.317399999999907l-1.753399999999601,9.794399999999769h17.622599999998783l-1.839899999999034,18.477100000000064h9.794999999998254v5.261700000000019ZM167.875,504.372990114614367h-5.51759999999922v-5.774399999999332h-21.64259999999922v5.774399999999332h-5.603500000001077v-28.998999999999796h32.763699999999517v28.998999999999796ZM162.35740000000078,493.337390114614209v-12.702699999999822h-21.727999999999156v12.702699999999822h21.727999999999156ZM161.501900000001115,451.121590114614264h-12.703100000000632l-2.480499999999665,13.302200000000084h13.857900000000882l1.325699999999415-13.302200000000084Z"/><path class="uuid-cc85a211-99eb-4e7f-86bf-d852e5743bf6" d="M271.759700000000521,447.271890114614507h-77.7591999999986v-5.346599999999853h77.7591999999986v5.346599999999853ZM260.297300000001997,458.221690114613921h-55.604500000001281v-5.17489999999998h55.604500000001281v5.17489999999998ZM260.297300000001997,469.342690114614925h-55.604500000001281v-5.175700000000688h55.604500000001281v5.175700000000688ZM258.287100000001374,504.372990114614367h-5.517600000001039v-6.031200000000354h-40.120799999998781v6.031200000000354h-5.517400000000634v-29.085399999999936h51.155800000000454v29.085399999999936ZM258.201600000000326,435.851990114614637l-50.642499999999927.127999999999702v-5.175299999999879h50.642499999999927v5.047300000000178ZM252.769500000000335,493.080490114613895v-12.531699999999546h-40.120799999998781v12.531699999999546h40.120799999998781Z"/><path class="uuid-cc85a211-99eb-4e7f-86bf-d852e5743bf6" d="M368.204100000000835,488.889590114614293h-34.432399999999689v5.945299999999406c0,6.358400000000984-3.378700000001118,9.538100000000668-10.137899999999718,9.538100000000668h-5.688500000000204l-2.095699999999852-5.260699999999815h7.955500000000029c2.794499999999971,0,4.192399999999907-1.284200000000055,4.192399999999907-3.849599999999555v-6.373100000000704h-37.554700000000594v-5.346700000000055h37.554700000000594v-3.67870000000039c5.95850000000064-2.224099999999453,10.221700000000055-4.304699999999684,12.78859999999986-6.244099999999889h-32.764400000000023v-4.918999999999869h42.261000000000422v4.662200000000666c-4.44970000000103,3.022399999999834-9.952699999999822,6.11619999999948-16.511000000000422,9.281199999999444v.898400000000038h34.432399999999689v5.346700000000055ZM364.610800000000381,473.020490114614404h-5.13379999999961v-8.853500000000167h-59.751399999999194v9.367199999999684h-5.604000000001179v-14.371099999999387h7.356400000000576v-26.091800000000148c4.048300000000381-.39850000000024,8.483599999999569-2.324300000000221,13.303200000000288-5.774000000000342l2.823300000000017,3.935100000000602c-2.596700000000055,2.395499999999629-6.132400000000416,4.206500000000233-10.608400000000984,5.432099999999991v3.593299999999545h10.949200000000928v4.448199999999815h-10.949200000000928v4.662100000000464h10.949200000000928v4.361899999999878h-10.949200000000928v5.433100000000195h45.467000000000553v-5.433100000000195h-10.436799999999494v-4.276899999999841h10.436799999999494v-5.003899999999703h-10.351300000000265v-4.362800000000789h10.351300000000265v-4.662599999999657h-12.104699999999866v-5.175299999999879h17.536599999999453v28.828599999999824h6.715799999999945v13.943400000000111ZM340.358400000000984,439.829590114614803l-2.99369999999908,3.678199999999379c-1.626400000001013-1.567399999999907-3.83640000000014-3.264699999999721-6.629899999999907-5.089899999999943-2.309500000001208,1.939500000000407-4.90480000000025,3.721700000000055-7.785100000000966,5.346700000000055l-3.507300000001123-3.08010000000013c2.766100000000733-1.139599999999518,5.188900000001013-2.480399999999463,7.271900000001551-4.019999999999527-3.480000000001382-1.311499999999796-6.288099999999758-2.224100000000362-8.427200000000084-2.737300000000687l2.182600000000093-3.935499999999593c3.164099999999962.798300000000381,6.343699999999444,1.825699999999415,9.537599999999657,3.079600000000028,2.024900000000343-1.909200000000055,3.721199999999953-3.863299999999981,5.090299999999843-5.859400000000278l3.592800000000352,2.865200000000186c-1.141600000000835,1.768599999999424-2.623999999999796,3.494200000000092-4.448200000000725,5.175799999999981,2.109300000000076,1.197300000000723,4.148400000000038,2.723100000000159,6.11620000000039,4.576700000000528ZM340.871100000000297,455.398390114613903l-3.591799999998329,2.823300000000017c-2.309600000000501-1.768099999999322-4.706100000001243-3.236399999999776-7.186100000000806-4.405299999999443-1.539500000000771,1.168899999999667-4.276799999999639,2.637200000000121-8.211900000000242,4.405299999999443l-3.251000000000204-2.566499999998996c3.677800000001298-1.738699999999881,6.315500000000611-3.250900000000911,7.913400000001275-4.533600000000661-1.597900000000664-.997599999999693-4.020800000002055-2.10989999999947-7.272000000000844-3.337400000000343l3.207800000000134-2.693400000000111c2.936499999999796,1.055700000000797,5.44629999999961,2.15230000000065,7.527799999999843,3.293000000000575.79739999999947-.45510000000013,2.409200000000055-1.824300000000221,4.832999999998719-4.106000000000677l3.935100000000602,2.010300000000825c-1.454099999999016,1.882300000000214-3.078199999999924,3.436499999999796-4.875799999999799,4.662999999999556,2.367000000000189,1.083099999999831,4.690200000000914,2.565500000000611,6.971499999999651,4.447299999999814Z"/><path class="uuid-cc85a211-99eb-4e7f-86bf-d852e5743bf6" d="M464.560500000001412,488.889590114614293h-34.431900000001406v5.945299999999406c0,6.358400000000984-3.378600000000006,9.538100000000668-10.136899999999514,9.538100000000668h-5.688499999998385l-2.095700000001671-5.260699999999815h7.955600000001141c2.793399999998655,0,4.191399999999703-1.284200000000055,4.191399999999703-3.849599999999555v-6.373100000000704h-37.55370000000039v-5.346700000000055h37.55370000000039v-3.67870000000039c5.959199999999328-2.224099999999453,10.221600000000763-4.304699999999684,12.789499999998952-6.244099999999889h-32.764400000000023v-4.918999999999869h42.260000000000218v4.662200000000666c-4.448999999998705,3.022399999999834-9.953099999998813,6.11619999999948-16.511000000000422,9.281199999999444v.898400000000038h34.431900000001406v5.346700000000055ZM460.968700000001263,473.020490114614404h-5.134700000000521v-8.853500000000167h-59.751500000000306v9.367199999999684h-5.602999999999156v-14.371099999999387h7.356200000000172v-26.091800000000148c4.049499999999171-.39850000000024,8.483099999999467-2.324300000000221,13.302499999999782-5.774000000000342l2.822500000000218,3.935100000000602c-2.593500000000859,2.395499999999629-6.130699999999706,4.206500000000233-10.607700000000477,5.432099999999991v3.593299999999545h10.950200000001132v4.448199999999815h-10.950200000001132v4.662100000000464h10.950200000001132v4.361899999999878h-10.950200000001132v5.433100000000195h45.466800000000148v-5.433100000000195h-10.435600000000704v-4.276899999999841h10.435600000000704v-5.003899999999703h-10.35109999999986v-4.362800000000789h10.35109999999986v-4.662599999999657h-12.104500000001281v-5.175299999999879h17.536400000000867v28.828599999999824h6.717000000000553v13.943400000000111ZM438.2387000000017,454.438890114614878l-3.896899999999732,3.563000000000102c-1.778800000000047-2.672800000000279-4.324300000000221-6.018500000000131-6.785700000000361-8.096199999999953-3.826100000000224,4.263199999999415-6.973100000001068,6.97609999999986-9.432099999999991,8.136799999999312l-3.856499999999869-3.238299999999981c2.898999999999432-1.378899999999703,6.041999999999462-3.954600000000028,9.433600000000297-7.73239999999987-3.855900000000474-2.401899999999841-6.603500000001077-3.887300000000323-8.243600000001607-4.454600000000028l3.363800000000992-3.479000000000269c1.367099999999482.539999999999964,3.934999999999491,1.941900000000714,7.710900000000038,4.210400000000845,1.122100000000501-1.835900000000038,1.995100000000093-3.846700000000055,2.623999999999796-6.033200000000761h-12.878899999999703v-5.059599999999591h6.90480000000025v-5.209899999999834h4.43119999999908v5.209899999999834h8.194800000001123v5.059599999999591h-1.622100000000501c-.910600000001068,3.34860000000026-2.135200000000623,6.249499999999898-3.675300000000789,8.70510000000013,2.980999999999767,2.265600000000632,5.841800000000148,5.719699999999648,7.728000000000975,8.418400000000474Z"/><path class="uuid-cc85a211-99eb-4e7f-86bf-d852e5743bf6" d="M562.329100000000835,447.101490114614535l-3.079100000000835,4.447799999999916c-9.724599999999555-2.395000000000437-17.336899999998423-5.16110000000026-22.839899999999034-8.29739999999947v3.849599999999555h-28.915000000000873v-4.235300000000279c-8.326399999998102,4.306599999999889-15.796899999999368,7.115200000000186-22.413099999997939,8.426300000000083l-2.822300000001633-4.49080000000049c16.024400000000242-3.906199999999444,29.368899999999485-10.436499999999796,40.034700000000157-19.589799999999741l5.260700000000725,1.753399999999601c-.570800000001327.712900000000445-1.069800000001123,1.212400000000343-1.49750000000131,1.496600000000399,9.466800000001967,7.870600000000195,21.557600000000093,13.417000000000371,36.271500000000742,16.639600000000428ZM553.217700000001059,471.609290114613941h-62.104400000000169v-20.059999999999491h62.104400000000169v20.059999999999491ZM548.128600000000006,504.457990114614404h-5.260499999998501v-3.421899999999368h-41.317800000000716v3.421899999999368h-5.260800000000017v-28.35739999999987h51.839099999999235v28.35739999999987ZM519.599600000001374,466.990190114614052v-10.693400000000111h-23.225599999999758v10.693400000000111h23.225599999999758ZM542.868100000001505,486.32319011461459v-5.51760000000013h-41.317800000000716v5.51760000000013h41.317800000000716ZM542.868100000001505,496.417890114613328v-5.603499999998348h-41.317800000000716v5.603499999998348h41.317800000000716ZM513.91110000000117,462.755290114614581l-4.405300000000352,3.079599999999118c-2.651299999999537-2.679199999998673-5.246999999999389-4.661599999999453-7.785099999999147-5.945299999999406l4.44800000000032-2.565899999999601c3.022699999999531,1.28269999999975,5.602999999999156,3.094199999999546,7.742399999999179,5.431599999999889ZM534.656200000001263,442.353490114614942c-4.134700000000521-2.167000000000371-8.142100000000937-5.089900000000853-12.019500000000335-8.768600000001243-4.135299999999916,3.421900000001187-8.768099999999322,6.34480000000076-13.900400000000445,8.768600000001243h25.91990000000078ZM547.95850000000064,466.990190114614052v-10.693400000000111h-23.097200000000157v10.693400000000111h23.097200000000157ZM542.782200000001467,458.820290114614181c-1.682600000000093,2.680699999999888-4.220699999999852,4.962899999999536-7.613499999999476,6.843700000000354l-4.704900000000634-2.352000000000771c3.736399999999776-2.10989999999947,6.301799999999275-4.22019999999975,7.698300000000017-6.331099999999424l4.620100000000093,1.839399999999841Z"/><path class="uuid-cc85a211-99eb-4e7f-86bf-d852e5743bf6" d="M133.205046062990732,389.87939011461458l-1.546899999999368,2.056099999999788c-5.961900000000242-1.756800000000112-10.800300000000789-4.123000000000502-14.51220000000103-7.09860000000026-3.199699999999211,2.612300000000687-8.223099999999249,5.025400000000445-15.076599999998507,7.239199999999983l-1.721199999999953-2.090799999999945c6.629899999999907-1.838799999999537,11.643499999998312-4.070299999999406,15.040499999999156-6.694299999999203-3.408199999999852-3.221700000000055-5.69970000000103-7.139200000000528-6.870100000000093-11.754899999999907-.632300000001123,1.628399999999601-1.500500000000102,3.174299999998766-2.60109999999986,4.638699999999517l-1.860800000000381-1.704100000000835c1.475599999999758-1.757299999999304,2.663300000000163-3.684599999998682,3.565400000001318-5.781299999998737h-6.044400000000678v-2.160600000001068h14.09269999999924v-6.009299999999712h2.266200000000026v5.97360000000026h14.336900000000242v2.161699999999655h-6.009799999999814c-1.053200000000288,6.114700000000084-3.477500000000873,10.980900000000474-7.27390000000014,14.600500000000466,3.455500000000029,2.624099999999999,8.19380000000092,4.832099999999627,14.215299999999843,6.624099999999999ZM123.909646062991669,368.654790114614116h-13.598100000001068c.935500000001412,5.423300000000381,3.225500000000466,9.786600000000362,6.868599999999788,13.089299999999639,3.561000000001513-3.314399999999296,5.804200000000492-7.677699999999277,6.729500000001281-13.089299999999639Z"/><path class="uuid-cc85a211-99eb-4e7f-86bf-d852e5743bf6" d="M217.369866062990695,385.785590114614934h-14.145300000000134v2.442900000000009c0,2.611299999999574-1.387199999999211,3.917999999999665-4.163800000000265,3.917999999999665h-2.336899999998423l-.860100000001694-2.161200000000463h3.267100000000937c1.148400000000038,0,1.722599999999147-.527299999999741,1.722599999999147-1.581500000000233v-2.618199999998978h-15.426199999999881v-2.19630000000052h15.426199999999881v-1.511199999999917c2.447799999999916-.913099999999758,4.199300000000221-1.768600000000333,5.252500000000509-2.564900000000307h-13.45850000000064v-2.020999999999731h17.359400000001187v1.914999999999964c-1.826700000001438,1.242199999999684-4.088400000000547,2.513200000000325-6.78230000000076,3.813000000000102v.369099999999889h14.145300000000134v2.19630000000052ZM215.894466062991341,379.267590114614904h-2.109300000000076v-3.637700000001132h-24.546400000001086v3.847600000000966h-2.301799999999275v-5.902299999999741h3.022500000000946v-10.718800000000556c1.663099999997939-.16359999999986,3.48529999999846-.954600000000028,5.465299999999843-2.372100000000501l1.158699999999953,1.616700000000492c-1.064900000001217.983899999999267-2.519000000000233,1.727600000000166-4.358600000001388,2.231499999999869v1.475599999999758h4.499000000001615v1.82760000000053h-4.499000000001615v1.915100000000166h4.499000000001615v1.791900000000169h-4.499000000001615v2.232500000000073h18.678900000000795v-2.232500000000073h-4.288500000000568v-1.756800000001022h4.288500000000568v-2.055699999998978h-4.251899999999296v-1.792400000000271h4.251899999999296v-1.914600000000064h-4.972600000000966v-2.126000000000204h7.203100000000632v11.841800000000148h2.760200000000623v5.72860000000037ZM205.931166062990087,365.632790114614181l-1.230999999999767,1.510199999999713c-.66649999999936-.643999999999323-1.574699999999211-1.340299999999843-2.722200000000157-2.090299999999843-.949199999999109.796900000000278-2.015599999998813,1.529300000000148-3.198199999998906,2.19630000000052l-1.440399999999499-1.26470000000063c1.135499999998501-.468699999999444,2.131299999999101-1.019000000000233,2.986799999998766-1.651799999999639-1.429700000000594-.53859999999986-2.583999999998923-.91359999999986-3.46140000000014-1.124499999999898l.896899999999732-1.616700000000492c1.29910000000018.328600000000733,2.605500000001484.75,3.917500000001382,1.26510000000053.832000000000335-.784200000000055,1.528299999999945-1.586900000000242,2.090099999999438-2.407199999999648l1.476599999999962,1.177700000000186c-.468999999999141.725599999999758-1.078400000000329,1.434599999999591-1.826399999999921,2.125999999999294.865700000000288.49119999999948,1.703099999998813,1.11869999999999,2.511699999999109,1.879899999999907ZM206.141566062990023,372.02829011461381l-1.475599999999758,1.159700000000157c-.948199999998906-.72609999999986-1.933100000000195-1.329599999999118-2.952100000000428-1.810099999999693-.633099999999104.480500000000575-1.757299999999304,1.083999999999833-3.373599999998987,1.810099999999693l-1.335900000000038-1.054699999999684c1.512199999999211-.714399999999841,2.595499999999447-1.334499999999935,3.251000000000204-1.862299999999777-.655500000000757-.410200000000259-1.651900000000751-.86620000000039-2.986800000000585-1.370100000000093l1.317800000000716-1.107500000000073c1.206599999999526.433600000000297,2.237300000000687.885299999999916,3.092800000000352,1.353100000000268.328599999998914-.1875.989799999999377-.749100000000908,1.984599999999773-1.686600000000908l1.616500000000087.826200000001336c-.597400000000562.772499999999127-1.264400000000023,1.411099999999351-2.001500000000306,1.914999999999054.970699999999852.444400000000314,1.924800000000687,1.053799999999683,2.86279999999897,1.827199999999721Z"/><path class="uuid-cc85a211-99eb-4e7f-86bf-d852e5743bf6" d="M276.056886062990088,372.467290114614116c2.366700000000492,2.659100000000763,3.550800000000891,5.253899999999703,3.550800000000891,7.783699999999953,0,1.229900000000271-.319299999999203,2.208000000000538-.95850000000064,2.934000000000196-.637199999999211.727100000000064-1.530699999999342,1.089899999999943-2.679199999998673,1.089899999999943-.632300000001123,0-1.394500000000335-.076699999999619-2.284100000000763-.228100000000268l-.649900000000343-2.337399999999434c1.253899999999703.316899999999805,2.155200000001059.474699999999757,2.705500000000029.474699999999757.456099999999424,0,.872600000000602-.176300000000083,1.248100000000704-.526899999999841.375-.351599999999962.5625-.820300000000316.5625-1.406200000000354,0-.877999999999702-.322299999999814-2.0024999999996-.966599999999744-3.373599999999897-.644800000000032-1.370099999999184-1.61160000000018-2.676300000000083-2.899600000000646-3.917500000000473l3.426699999999983-8.80369999999948h-5.218000000000757v27.990300000000389h-2.302499999999782v-30.221199999999953h9.856400000000576v2.230899999999565l-3.391600000000835,8.311099999999897ZM300.287886062989855,385.69819011461459c-.305199999998877,1.897499999999127-.714799999997922,3.274400000000242-1.230999999999767,4.127899999999499-.514599999998609.855500000000575-1.352999999999156,1.283699999999953-2.511699999999109,1.283699999999953h-2.740700000000288c-1.828100000000632,0-2.740999999999985-.960900000000038-2.740999999999985-2.881299999999101v-9.29490000000078h-3.708200000000943c-.069799999999304,3.771500000000742-.805199999998877,6.597600000000057-2.204599999999118,8.477500000000873-1.400100000000748,1.879899999999907-3.996600000000399,3.457999999998719-7.792999999999665,4.735399999999572l-1.475599999999758-2.020500000000538c3.525400000000445-1.041999999999462,5.944900000000416-2.390199999999822,7.256900000000314-4.041999999999462,1.311999999999898-1.651400000000649,1.973099999999249-4.023000000000138,1.98529999999846-7.115300000000389h-4.814399999999296v-2.302199999999175h18.819299999999203v2.267099999999118h-5.870599999998376v8.75c0,.292400000000271.093999999999141.565400000000409.281699999999546.816899999999805.187299999999595.252400000000307.410200000000259.377400000000307.667999999999665.377400000000307h2.231700000000274c.456299999999828,0,.805399999999281-.374499999999898,1.045700000000579-1.124499999999898.238699999999881-.748999999999796.441399999999703-1.721199999999953.605899999998655-2.916500000000269l2.19629999999961.861300000000483ZM298.266886062991034,369.761690114614794l-2.230900000000474.035099999999147v-3.09269999999924h-13.248599999998987v3.09269999999924h-2.26680000000124v-5.324199999999109h7.71310000000085v-3.988300000000891h2.302700000000186v3.953700000000026h7.730499999999665v5.323700000000827ZM295.315686062991517,373.152290114614516h-11.878399999999601v-2.301300000000083h11.878399999999601v2.301300000000083Z"/><path class="uuid-cc85a211-99eb-4e7f-86bf-d852e5743bf6" d="M384.454706062990226,385.785590114614934h-14.145499999998719v2.442900000000009c0,2.611299999999574-1.388700000001336,3.917999999999665-4.163600000001679,3.917999999999665h-2.336899999998423l-.86160000000018-2.161200000000463h3.268299999999726c1.148499999999331,0,1.722700000000259-.527299999999741,1.722700000000259-1.581500000000233v-2.618199999998978h-15.427999999999884v-2.19630000000052h15.427999999999884v-1.511199999999917c2.447699999998804-.913099999999758,4.199199999999109-1.768600000000333,5.252899999999499-2.564900000000307h-13.459000000000742v-2.020999999999731h17.359200000000783v1.914999999999964c-1.826399999999921,1.242199999999684-4.088200000000143,2.513200000000325-6.781999999999243,3.813000000000102v.369099999999889h14.145499999998719v2.19630000000052ZM382.977606062991981,379.267590114614904h-2.107900000000882v-3.637700000001132h-24.545400000000882v3.847600000000966h-2.302700000000186v-5.902299999999741h3.023400000001857v-10.718800000000556c1.661599999999453-.16359999999986,3.483899999999267-.954600000000028,5.462899999998626-2.372100000000501l1.160200000000259,1.616700000000492c-1.065899999999601.983899999999267-2.518099999999322,1.727600000000166-4.356999999999971,2.231499999999869v1.475599999999758h4.497600000000602v1.82760000000053h-4.497600000000602v1.915100000000166h4.497600000000602v1.791900000000169h-4.497600000000602v2.232500000000073h18.676799999999275v-2.232500000000073h-4.287099999999555v-1.756800000001022h4.287099999999555v-2.055699999998978h-4.251699999998891v-1.792400000000271h4.251699999998891v-1.914600000000064h-4.972200000000157v-2.126000000000204h7.203199999999924v11.841800000000148h2.758700000002136v5.72860000000037ZM373.015706062989921,365.632790114614181l-1.230899999998655,1.510199999999713c-.668000000001484-.643999999999323-1.575199999999313-1.340299999999843-2.723700000000463-2.090299999999843-.948200000000725.796900000000278-2.014100000000326,1.529300000000148-3.197000000000116,2.19630000000052l-1.441100000000006-1.26470000000063c1.137199999999211-.468699999999444,2.133299999999508-1.019000000000233,2.987800000000789-1.651799999999639-1.429700000000594-.53859999999986-2.583099999999831-.91359999999986-3.461500000001251-1.124499999999898l.895500000000538-1.616700000000492c1.300799999999072.328600000000733,2.606999999999971.75,3.917999999999665,1.26510000000053.831500000000233-.784200000000055,1.529300000000148-1.586900000000242,2.09230000000025-2.407199999999648l1.475599999999758,1.177700000000186c-.469499999999243.725599999999758-1.079099999999016,1.434599999999591-1.828199999999924,2.125999999999294.867200000000594.49119999999948,1.704600000000937,1.11869999999999,2.513199999999415,1.879899999999907ZM373.226206062990968,372.02829011461381l-1.475599999999758,1.159700000000157c-.949500000000626-.72609999999986-1.933100000000195-1.329599999999118-2.951399999999921-1.810099999999693-.633600000001024.480500000000575-1.756600000000617,1.083999999999833-3.374299999999494,1.810099999999693l-1.334900000001653-1.054699999999684c1.511200000000827-.714399999999841,2.594200000001365-1.334499999999935,3.250900000000911-1.862299999999777-.656699999999546-.410200000000259-1.652799999999843-.86620000000039-2.987800000000789-1.370100000000093l1.317900000000009-1.107500000000073c1.206500000000233.433600000000297,2.237300000000687.885299999999916,3.091800000000148,1.353100000000268.328100000000632-.1875.989300000001094-.749100000000908,1.985800000000381-1.686600000000908l1.616299999999683.826200000001336c-.597200000000157.772499999999127-1.265199999999822,1.411099999999351-2.003000000000611,1.914999999999054.972200000000157.444400000000314,1.927800000001298,1.053799999999683,2.864300000001094,1.827199999999721Z"/><path class="uuid-cc85a211-99eb-4e7f-86bf-d852e5743bf6" d="M468.84732606299076,390.389590114614293h-31.976999999998952v-2.266599999999926h14.89890000000014v-8.24119999999948h-10.735400000001391v-2.266600000000835h10.735400000001391v-7.168399999999565h-7.959500000000844c-.960399999999936,2.494599999999991-2.565399999999499,4.796299999999974-4.814399999999296,6.904700000000048l-2.318400000000111-1.211900000000242c3.840799999998126-3.548800000000483,5.97899999999936-7.895500000000538,6.412599999999657-13.037099999999555l2.372100000000501.685099999999693c-.093800000000556,1.194800000000214-.369200000001001,2.670900000000074-.826700000001438,4.428199999999379h7.099600000001374v-7.69629999999961h2.371399999999994v7.660700000000361h12.404499999998734v2.266599999999926h-12.404499999998734v7.133699999999408h10.577799999999115v2.266200000000026h-10.577799999999115v8.240700000000288h14.741399999998976v2.302200000000084Z"/><path class="uuid-cc85a211-99eb-4e7f-86bf-d852e5743bf6" d="M553.960646062991145,368.619090114613755l-1.264400000000023,1.827700000000732c-3.993900000001304-.983900000000176-7.122300000000905-2.119700000000194-9.383099999999104-3.408300000000054v1.580599999999322h-11.877900000001318v-1.739199999999983c-3.419899999998961,1.769000000000233-6.489299999999275,2.922800000000279-9.206099999999424,3.46140000000014l-1.159600000000864-1.84519999999975c6.583000000000538-1.604499999999462,12.064400000001115-4.287099999999555,16.445800000001327-8.046899999999368l2.160599999999249.720699999999852c-.23489999999947.292999999999665-.439399999999296.497999999999593-.614300000001094.614299999999275,3.888200000001234,3.233400000000984,8.856000000001586,5.511700000000928,14.899000000001251,6.834899999999834ZM550.218946062990653,378.687490114613865h-25.511699999999109v-8.240699999999379h25.511699999999109v8.240699999999379ZM548.128146062990709,392.180590114614461h-2.162199999998847v-1.40520000000015h-16.973100000001068v1.40520000000015h-2.160599999999249v-11.648400000000038h21.295899999999165v11.648400000000038ZM536.407846062989847,376.789990114614739v-4.393100000000231h-9.539999999999054v4.393100000000231h9.539999999999054ZM545.965946062991861,384.731390114614442v-2.266599999999926h-16.973100000001068v2.266599999999926h16.973100000001068ZM545.965946062991861,388.877890114614274v-2.301800000000185h-16.973100000001068v2.301800000000185h16.973100000001068ZM534.070946062991425,375.050790114614756l-1.809800000000905,1.264599999999518c-1.088599999999133-1.100599999999758-2.155000000000655-1.914999999999964-3.197000000000116-2.442399999999907l1.826600000000326-1.05369999999948c1.242200000000594.52639999999883,2.301300000000992,1.270499999999629,3.180200000000696,2.231499999999869ZM542.592246062991762,366.669390114614544c-1.69800000000032-.889600000000428-3.343100000001868-2.090799999999945-4.936300000001211-3.602499999999964-1.700199999999313,1.405700000000252-3.602600000000166,2.606899999999769-5.710699999999633,3.602499999999964h10.647000000000844ZM548.057346062991201,376.789990114614739v-4.393100000000231h-9.48739999999998v4.393100000000231h9.48739999999998ZM545.931846062991099,373.434090114614264c-.691899999999805,1.101000000000568-1.734700000000885,2.037599999999657-3.128500000000713,2.810999999999694l-1.932099999999991-.965799999999945c1.533699999999953-.867199999999684,2.588400000000547-1.734399999999368,3.162599999999657-2.60109999999986l1.898000000001048.755900000000111Z"/></g></svg>