<?xml version="1.0" encoding="UTF-8"?><svg id="uuid-d58dbf15-a6b5-47b2-8920-b09d9a9ddcac" xmlns="http://www.w3.org/2000/svg" width="231.163667917158875mm" height="250.002318467563953mm" xmlns:xlink="http://www.w3.org/1999/xlink" viewBox="0 0 655.267100000000028 708.667999999999665"><defs><style>.uuid-f66f8a2a-d815-4fc9-b00d-a9bea6011a43{fill:#fff;}.uuid-5145f29d-c429-4489-8fa3-2fbec368f2ef{fill:none;}.uuid-58419614-8d50-498d-8381-1980ed476d7e{fill:#333e48;}.uuid-1e1ef871-aa1d-42fa-a852-de34c6ca99ad{fill:#9f9ea7;}.uuid-6d30f1fc-36ef-47b9-88e0-8699ce52999e{clip-path:url(#uuid-73ce2c48-9d90-4314-860b-a543c45a5826);}.uuid-a144795c-3fab-4919-b0bb-b1adc790f688{fill:#5a5c66;}.uuid-ca55539f-526f-4f2e-a293-98556da4d11d{fill:#858591;}</style><clipPath id="uuid-73ce2c48-9d90-4314-860b-a543c45a5826"><rect class="uuid-5145f29d-c429-4489-8fa3-2fbec368f2ef" width="655.267100000000028" height="708.667999999999665"/></clipPath></defs><g class="uuid-6d30f1fc-36ef-47b9-88e0-8699ce52999e"><path class="uuid-a144795c-3fab-4919-b0bb-b1adc790f688" d="M155.416500000000269,341.496100000000297c7.554699999999684,0,13.676800000000185,6.123999999999796,13.676800000000185,13.675799999999072-.002000000000407-.278299999999945-.011700000000928-.557600000000093-.011700000000928-.836899999999332,0-102.310599999999795,82.935500000000502-185.248600000000351,185.249000000000706-185.248600000000351,7.551699999999983,0,13.674799999999777-6.122299999999996,13.674799999999777-13.674999999999727,0-7.553000000000338-6.123099999999795-13.675999999999931-13.674799999999777-13.675999999999931-28.688500000000204,0-56.534200000000055,5.6253999999999-82.762700000000223,16.718699999999899-25.319400000000314,10.709199999999782-48.052799999999479,26.033199999999852-67.567399999999907,45.548799999999574-19.51760000000013,19.51760000000013-34.843800000000556,42.25-45.550799999999981,67.570300000000316-11.093700000000354,26.22859999999946-16.717799999999443,54.073300000000017-16.717799999999443,82.761800000000221,0,.279299999999239.007899999999609.558599999999387.009799999999814.836899999999332,0-7.551799999999275,6.121099999999387-13.675799999999072,13.674799999999777-13.675799999999072Z"/><path class="uuid-ca55539f-526f-4f2e-a293-98556da4d11d" d="M340.65480000000025,553.25879999999961c0-7.552700000000186,6.122100000000501-13.675799999999072,13.675799999999981-13.675799999999072-102.032200000000557,0-184.787100000000464-82.486300000000483-185.237299999999777-184.41110000000117,0-7.551799999999275-6.122100000000501-13.675799999999072-13.676800000000185-13.675799999999072-7.55370000000039,0-13.674799999999777,6.123999999999796-13.674799999999777,13.675799999999072.108399999999165,28.393500000000131,5.722700000000259,55.952100000000428,16.707999999999629,81.924800000000687,10.706999999999425,25.318299999999908,26.033199999999852,48.052700000000186,45.550799999999981,67.568299999999908,19.514600000000428,19.51760000000013,42.247999999999593,34.841799999999239,67.567399999999907,45.550799999999981,26.228500000000167,11.094699999999648,54.074200000000019,16.719699999999648,82.762700000000223,16.719699999999648-7.55369999999948,0-13.675799999999981-6.122999999999593-13.675799999999981-13.676699999999983Z"/><path class="uuid-1e1ef871-aa1d-42fa-a852-de34c6ca99ad" d="M502.52980000000025,487.409200000000055c-5.342800000000352-5.341800000000148-14-5.341800000000148-19.341800000000148,0-33.340799999999945,32.28899999999976-78.775400000000445,52.173800000000483-128.85739999999987,52.173800000000483-7.55369999999948,0-13.675799999999981,6.123099999998885-13.675799999999981,13.675799999999072,0,7.55370000000039,6.122100000000501,13.676699999999983,13.675799999999981,13.676699999999983,28.689400000000205,0,56.533199999999852-5.625,82.760699999999815-16.719699999999648,24.407199999999648-10.322200000000521,46.400400000000445-24.947200000000521,65.438500000000204-43.466800000000148,5.340799999999945-5.339799999999741,5.340799999999945-14,0-19.339799999999741Z"/><path class="uuid-1e1ef871-aa1d-42fa-a852-de34c6ca99ad" d="M466.91359999999986,241.751000000000204c-30.07129999999961-30.070300000000316-70.055699999999888-46.629899999999907-112.584999999999127-46.629899999999907-42.526300000000447,0-82.510700000000725,16.559599999999591-112.582000000000335,46.629899999999907-30.07130000000052,30.072199999999611-46.634799999999814,70.056599999999889-46.634799999999814,112.583999999999833,0,42.529299999999239,16.563499999999294,82.507800000000316,46.634799999999814,112.581999999999425,30.07129999999961,30.07130000000052,70.055699999999888,46.635700000000725,112.582000000000335,46.635700000000725,42.529299999999239,0,82.513699999999517-16.564400000000205,112.584999999999127-46.635700000000725,30.070300000000316-30.074199999999109,46.629899999999907-70.052700000000186,46.629899999999907-112.581999999999425,0-42.527399999999943-16.559599999999591-82.511800000000221-46.629899999999907-112.583999999999833Z"/><path class="uuid-58419614-8d50-498d-8381-1980ed476d7e" d="M242.120600000000195,405.825199999999313v-102.977499999999054h22.333999999999833v7.612299999999777h-12.945300000000316v87.751900000000205h12.945300000000316v7.613299999999072h-22.333999999999833Z"/><path class="uuid-58419614-8d50-498d-8381-1980ed476d7e" d="M466.53859999999986,302.847700000000259v102.977499999999054h-22.33009999999922v-7.613299999999072h12.939499999999498v-87.751900000000205h-12.939499999999498v-7.612299999999777h22.33009999999922Z"/><path class="uuid-f66f8a2a-d815-4fc9-b00d-a9bea6011a43" d="M293.989800000000287,375.254899999999907c0,2.055599999999686.032199999999648,4.483400000000074.095699999999852,7.270500000000538.0625,2.789099999999962.151300000000447,5.623999999999796.258699999999408,8.497099999999591.106500000000779,2.875.234400000001187,5.622999999999593.386800000000221,8.240199999999277.147399999999834,2.617200000000594.331000000000131,4.804700000000594.545900000000984,6.5625h-13.193400000000111v-72.730499999999665c0-6.262699999999313-.106400000000576-11.9375-.322300000000723-17.022399999999834-.212800000000243-5.085999999999331-.535100000000057-9.495199999999386-.965799999999945-13.224599999999555h13.194400000000314v72.407199999999648Z"/><path class="uuid-f66f8a2a-d815-4fc9-b00d-a9bea6011a43" d="M351.59519999999975,340.175799999999981v8.433599999999387h-12.100599999999758v48.78610000000026h12.100599999999758v8.431600000000799h-36.040999999999258v-8.431600000000799h11.906299999999646v-48.78610000000026h-11.906299999999646v-8.433599999999387h36.040999999999258Z"/><path class="uuid-f66f8a2a-d815-4fc9-b00d-a9bea6011a43" d="M378.628399999999601,340.175799999999981c.256900000000314.6875.51470000000063,1.576200000000426.771500000000742,2.673799999999574.260800000000017,1.092800000000352.492199999999684,2.239300000000185.708999999999833,3.440400000000409.211899999999332,1.201200000000426.405299999999443,2.381899999999405.58010000000013,3.54109999999946l.511700000000019,2.892499999999927c4.121099999999387-4.889599999999518,8.25879999999961-8.416999999999462,12.421900000000278-10.584899999999834,4.163099999999758-2.165999999999258,8.5-3.251000000000204,13.002899999999499-3.251000000000204,3.433600000000297,0,6.469699999999648.568400000000111,9.10739999999987,1.706000000000131,2.638700000000426,1.139699999999721,4.860400000000482,2.941500000000815,6.663100000000668,5.406300000000556,1.799799999998868,2.468699999999444,3.161099999999351,5.665999999999258,4.086899999999332,9.590799999999945.921900000000278,3.927799999999479,1.382800000000316,8.654300000000148,1.382800000000316,14.194400000000314v28.957999999999629c0,7.253900000000613-.634700000000521,13.273400000000038-1.900400000000445,18.054699999999684-1.263600000000224,4.787100000000464-3.036099999999351,8.605400000000373-5.308600000000297,11.460900000000038-2.272399999999834,2.849599999999555-5.010699999998906,4.867200000000594-8.206999999999425,6.046900000000278-3.19630000000052,1.181599999999889-6.746099999999387,1.769499999999425-10.65230000000065,1.769499999999425-1.929699999998775,0-4-.310599999998885-6.210999999999331-.931599999999889-2.20889999999963-.625-4.214799999999741-1.490299999999479-6.017499999999927-2.607500000000073l4.184499999999389-9.654300000000148c.986400000000685.72860000000037,2.305700000000797,1.339900000000853,3.958000000000538,1.83600000000115,1.65139999999974.492199999999684,3.336999999999534.738299999999072,5.050799999999981.738299999999072,2.0625,0,3.907200000000557-.332099999999627,5.539099999999962-.996099999999387,1.629899999999907-.66610000000037,3.011700000000019-1.833999999999833,4.148400000000038-3.507899999999609,1.137700000000223-1.673800000000483,2.006899999999405-3.968700000001263,2.608400000000074-6.886700000000928.599599999999555-2.91989999999987.900400000000445-6.630799999998999.900400000000445-11.134699999999611v-28.32130000000052c0-5.148499999999331-.268500000000131-9.322299999999814-.804700000000594-12.51759999999922-.536099999999351-3.19630000000052-1.342800000000352-5.686499999999796-2.414999999999964-7.466800000000148-1.07130000000052-1.780300000000352-2.413099999999758-2.971700000000055-4.024399999999332-3.574200000000019-1.605500000000575-.597700000000259-3.483400000000984-.899400000000242-5.629900000000816-.899400000000242-2.315400000000409,0-4.577199999999721.547800000000279-6.787100000000464,1.643500000000131-2.209999999999127,1.092799999999443-4.24119999999948,2.509799999999814-6.085999999999331,4.247099999999591-1.844699999999648,1.736300000000483-3.474599999999555,3.697299999999814-4.889600000000428,5.888700000000426-1.415100000000166,2.1875-2.468799999999646,4.375-3.156299999999646,6.564400000000205v37.332000000000335h-11.90520000000015v-39.58390000000054c0-6.350600000000668-.365299999999479-11.724600000000464-1.095699999999852-16.124099999999999-.727600000000166-4.397399999999834-1.438500000000204-7.712900000000445-2.124099999999999-9.943299999999908h11.587899999999536Z"/></g></svg>