<?xml version="1.0" encoding="UTF-8"?><svg id="uuid-31d56847-5a94-4e8c-adf2-2bce93ca55d0" xmlns="http://www.w3.org/2000/svg" width="223.375498867458901mm" height="245.363149648348212mm" xmlns:xlink="http://www.w3.org/1999/xlink" viewBox="0 0 633.190400000000409 695.51759999999922"><defs><style>.uuid-d51e9363-af11-4d37-adc3-356579aeec07{fill:#00c2f3;}.uuid-818051eb-4007-46e3-b7f4-5aaae7bf9c2d{fill:#fff;}.uuid-ce3ffa0b-28da-4f2e-8386-6c90f790e557{fill:none;}.uuid-0b48ea5d-82c1-41b1-bf1f-3069f6005035{clip-path:url(#uuid-1c43e92a-8c34-4745-9672-7710a6fbecbf);}.uuid-54a6e964-a900-4065-91d6-ae292fa3f32f{fill:#333e48;}</style><clipPath id="uuid-1c43e92a-8c34-4745-9672-7710a6fbecbf"><rect class="uuid-ce3ffa0b-28da-4f2e-8386-6c90f790e557" width="633.190400000000409" height="695.51759999999922"/></clipPath></defs><g class="uuid-0b48ea5d-82c1-41b1-bf1f-3069f6005035"><rect class="uuid-ce3ffa0b-28da-4f2e-8386-6c90f790e557" x="97.559553125000093" y="587.750461718749648" width="464.7646484375" height="46.32470703125"/><path class="uuid-818051eb-4007-46e3-b7f4-5aaae7bf9c2d" d="M137.298810937500093,619.838840624999648v4.537109375h-37.38671875v-4.537109375h37.38671875ZM133.769514062500093,595.180637499999648v4.326171875h-30.3291015625v-4.326171875h30.3291015625Z"/><path class="uuid-818051eb-4007-46e3-b7f4-5aaae7bf9c2d" d="M158.546857812500093,595.684543749999648v-1.974609375h-13.484375v-2.8984375h30.91796875v2.8984375h-13.5263671875v1.974609375h16.298828125v7.560546875h-3.7392578125v-4.95703125h-12.5595703125v6.638671875h-1.1767578125l2.6884765625,1.30078125-.8818359375.671875c3.9482421875,1.974609375,10.921875,3.94921875,17.2646484375,4.7890625-.7978515625.755859375-1.8486328125,2.26953125-2.3525390625,3.193359375-2.8984375-.50390625-5.880859375-1.302734375-8.6953125-2.26953125v1.513671875h-17.474609375v-1.59765625c-2.6044921875,1.009765625-5.2509765625,1.849609375-7.6875,2.5625-.7568359375-.796875-2.1845703125-2.140625-3.1083984375-2.771484375,6.888671875-1.51171875,14.408203125-4.158203125,18.9453125-7.392578125h-1.4287109375v-6.638671875h-12.5185546875v4.95703125h-3.5703125v-7.560546875h16.0888671875ZM148.548810937500093,598.623996874999648c2.6044921875.419921875,6.2177734375,1.302734375,8.1494140625,1.974609375l-.9658203125,2.1015625,1.0498046875-.251953125.294921875,2.3515625c-3.5712890625,1.0078125-7.099609375,1.974609375-10.1240234375,2.814453125l-1.0927734375-2.85546875c2.478515625-.421875,5.83984375-1.21875,9.41015625-1.974609375-1.974609375-.71484375-5.29296875-1.59765625-7.8134765625-2.1015625l1.091796875-2.05859375ZM170.308576562500093,615.805637499999648l.5888671875-.208984375,2.5205078125,1.595703125c-1.974609375,2.603515625-5.208984375,5.125-8.2333984375,7.015625l3.4443359375,1.51171875-1.72265625,2.814453125c-3.2763671875-1.6796875-9.8720703125-4.453125-14.66015625-6.259765625l1.6796875-2.39453125c2.142578125.755859375,4.7890625,1.765625,7.3095703125,2.73046875,1.974609375-.96484375,4.2431640625-2.39453125,6.0068359375-3.822265625h-20.9189453125v-2.982421875h23.9853515625ZM166.864240625000093,611.688449999999648c-2.5205078125-1.0078125-4.7470703125-2.099609375-6.46875-3.107421875-1.974609375,1.1328125-4.1591796875,2.18359375-6.427734375,3.107421875h12.896484375ZM164.847639062500093,602.196262499999648l.4208984375.083984375-1.05078125-1.59765625c2.39453125-.376953125,5.96484375-1.51171875,8.0234375-2.18359375l1.5966796875,2.142578125c-2.1845703125.83984375-5.1669921875,1.470703125-7.51953125,1.890625,3.1083984375.671875,6.7626953125,1.720703125,8.86328125,2.51953125l-.9658203125,2.478515625c-2.39453125-1.0078125-6.931640625-2.3515625-10.3759765625-3.193359375l1.0078125-2.140625Z"/><path class="uuid-818051eb-4007-46e3-b7f4-5aaae7bf9c2d" d="M221.298810937500093,619.838840624999648v4.537109375h-37.38671875v-4.537109375h37.38671875ZM217.769514062500093,595.180637499999648v4.326171875h-30.3291015625v-4.326171875h30.3291015625Z"/><path class="uuid-818051eb-4007-46e3-b7f4-5aaae7bf9c2d" d="M242.546857812500093,595.684543749999648v-1.974609375h-13.484375v-2.8984375h30.91796875v2.8984375h-13.5263671875v1.974609375h16.298828125v7.560546875h-3.7392578125v-4.95703125h-12.5595703125v6.638671875h-1.1767578125l2.6884765625,1.30078125-.8818359375.671875c3.9482421875,1.974609375,10.921875,3.94921875,17.2646484375,4.7890625-.7978515625.755859375-1.8486328125,2.26953125-2.3525390625,3.193359375-2.8984375-.50390625-5.880859375-1.302734375-8.6953125-2.26953125v1.513671875h-17.474609375v-1.59765625c-2.6044921875,1.009765625-5.2509765625,1.849609375-7.6875,2.5625-.7568359375-.796875-2.1845703125-2.140625-3.1083984375-2.771484375,6.888671875-1.51171875,14.408203125-4.158203125,18.9453125-7.392578125h-1.4287109375v-6.638671875h-12.5185546875v4.95703125h-3.5703125v-7.560546875h16.0888671875ZM232.548810937500093,598.623996874999648c2.6044921875.419921875,6.2177734375,1.302734375,8.1494140625,1.974609375l-.9658203125,2.1015625,1.0498046875-.251953125.294921875,2.3515625c-3.5712890625,1.0078125-7.099609375,1.974609375-10.1240234375,2.814453125l-1.0927734375-2.85546875c2.478515625-.421875,5.83984375-1.21875,9.41015625-1.974609375-1.974609375-.71484375-5.29296875-1.59765625-7.8134765625-2.1015625l1.091796875-2.05859375ZM254.308576562500093,615.805637499999648l.5888671875-.208984375,2.5205078125,1.595703125c-1.974609375,2.603515625-5.208984375,5.125-8.2333984375,7.015625l3.4443359375,1.51171875-1.72265625,2.814453125c-3.2763671875-1.6796875-9.8720703125-4.453125-14.66015625-6.259765625l1.6796875-2.39453125c2.142578125.755859375,4.7890625,1.765625,7.3095703125,2.73046875,1.974609375-.96484375,4.2431640625-2.39453125,6.0068359375-3.822265625h-20.9189453125v-2.982421875h23.9853515625ZM250.864240625000093,611.688449999999648c-2.5205078125-1.0078125-4.7470703125-2.099609375-6.46875-3.107421875-1.974609375,1.1328125-4.1591796875,2.18359375-6.427734375,3.107421875h12.896484375ZM248.847639062500093,602.196262499999648l.4208984375.083984375-1.05078125-1.59765625c2.39453125-.376953125,5.96484375-1.51171875,8.0234375-2.18359375l1.5966796875,2.142578125c-2.1845703125.83984375-5.1669921875,1.470703125-7.51953125,1.890625,3.1083984375.671875,6.7626953125,1.720703125,8.86328125,2.51953125l-.9658203125,2.478515625c-2.39453125-1.0078125-6.931640625-2.3515625-10.3759765625-3.193359375l1.0078125-2.140625Z"/><path class="uuid-818051eb-4007-46e3-b7f4-5aaae7bf9c2d" d="M288.538068750000093,607.489231249999648v4.9140625h13.31640625v3.654296875h-13.31640625v6.97265625h17.0126953125v3.697265625h-37.8486328125v-3.697265625h16.6767578125v-6.97265625h-12.896484375v-3.654296875h12.896484375v-4.9140625h4.1591796875ZM270.474592187500093,603.413059374999648c.8818359375-.16796875,1.8056640625-.83984375,2.9404296875-1.931640625.923828125-.798828125,3.3603515625-3.361328125,5.62890625-6.34375h-10.333984375v-3.6953125h35.4541015625v3.6953125h-19.9111328125c-2.2265625,2.8984375-4.62109375,5.587890625-6.9736328125,7.814453125l17.6435546875-.630859375c-1.5546875-1.38671875-3.150390625-2.771484375-4.6630859375-3.94921875l3.150390625-2.142578125c3.78125,2.857421875,8.5703125,6.974609375,10.8798828125,9.873046875l-3.486328125,2.435546875c-.6298828125-.83984375-1.4697265625-1.84765625-2.478515625-2.8984375-22.263671875.966796875-24.7841796875,1.05078125-26.548828125,1.638671875-.2099609375-.83984375-.83984375-2.814453125-1.3017578125-3.865234375Z"/><path class="uuid-818051eb-4007-46e3-b7f4-5aaae7bf9c2d" d="M347.298810937500093,619.838840624999648v4.537109375h-37.38671875v-4.537109375h37.38671875ZM343.769514062500093,595.180637499999648v4.326171875h-30.3291015625v-4.326171875h30.3291015625Z"/><path class="uuid-818051eb-4007-46e3-b7f4-5aaae7bf9c2d" d="M368.546857812500093,595.684543749999648v-1.974609375h-13.484375v-2.8984375h30.91796875v2.8984375h-13.5263671875v1.974609375h16.298828125v7.560546875h-3.7392578125v-4.95703125h-12.5595703125v6.638671875h-1.1767578125l2.6884765625,1.30078125-.8818359375.671875c3.9482421875,1.974609375,10.921875,3.94921875,17.2646484375,4.7890625-.7978515625.755859375-1.8486328125,2.26953125-2.3525390625,3.193359375-2.8984375-.50390625-5.880859375-1.302734375-8.6953125-2.26953125v1.513671875h-17.474609375v-1.59765625c-2.6044921875,1.009765625-5.2509765625,1.849609375-7.6875,2.5625-.7568359375-.796875-2.1845703125-2.140625-3.1083984375-2.771484375,6.888671875-1.51171875,14.408203125-4.158203125,18.9453125-7.392578125h-1.4287109375v-6.638671875h-12.5185546875v4.95703125h-3.5703125v-7.560546875h16.0888671875ZM358.548810937500093,598.623996874999648c2.6044921875.419921875,6.2177734375,1.302734375,8.1494140625,1.974609375l-.9658203125,2.1015625,1.0498046875-.251953125.294921875,2.3515625c-3.5712890625,1.0078125-7.099609375,1.974609375-10.1240234375,2.814453125l-1.0927734375-2.85546875c2.478515625-.421875,5.83984375-1.21875,9.41015625-1.974609375-1.974609375-.71484375-5.29296875-1.59765625-7.8134765625-2.1015625l1.091796875-2.05859375ZM380.308576562500093,615.805637499999648l.5888671875-.208984375,2.5205078125,1.595703125c-1.974609375,2.603515625-5.208984375,5.125-8.2333984375,7.015625l3.4443359375,1.51171875-1.72265625,2.814453125c-3.2763671875-1.6796875-9.8720703125-4.453125-14.66015625-6.259765625l1.6796875-2.39453125c2.142578125.755859375,4.7890625,1.765625,7.3095703125,2.73046875,1.974609375-.96484375,4.2431640625-2.39453125,6.0068359375-3.822265625h-20.9189453125v-2.982421875h23.9853515625ZM376.864240625000093,611.688449999999648c-2.5205078125-1.0078125-4.7470703125-2.099609375-6.46875-3.107421875-1.974609375,1.1328125-4.1591796875,2.18359375-6.427734375,3.107421875h12.896484375ZM374.847639062500093,602.196262499999648l.4208984375.083984375-1.05078125-1.59765625c2.39453125-.376953125,5.96484375-1.51171875,8.0234375-2.18359375l1.5966796875,2.142578125c-2.1845703125.83984375-5.1669921875,1.470703125-7.51953125,1.890625,3.1083984375.671875,6.7626953125,1.720703125,8.86328125,2.51953125l-.9658203125,2.478515625c-2.39453125-1.0078125-6.931640625-2.3515625-10.3759765625-3.193359375l1.0078125-2.140625Z"/><path class="uuid-818051eb-4007-46e3-b7f4-5aaae7bf9c2d" d="M431.298810937500093,619.838840624999648v4.537109375h-37.38671875v-4.537109375h37.38671875ZM427.769514062500093,595.180637499999648v4.326171875h-30.3291015625v-4.326171875h30.3291015625Z"/><path class="uuid-818051eb-4007-46e3-b7f4-5aaae7bf9c2d" d="M473.970685937500093,606.143528124999648v4.369140625h-38.646484375v-4.369140625h38.646484375Z"/><path class="uuid-818051eb-4007-46e3-b7f4-5aaae7bf9c2d" d="M484.254865625000093,615.006809374999648v-11.173828125h12.4765625v-5.880859375h-9.7041015625c-1.8896484375,3.150390625-3.990234375,5.96484375-6.1748046875,8.107421875-.755859375-.712890625-2.4365234375-2.015625-3.40234375-2.5625,3.90625-3.40234375,7.2666015625-8.8203125,9.2412109375-14.408203125l4.033203125,1.05078125c-.5048828125,1.34375-1.05078125,2.6875-1.6806640625,3.990234375h24.57421875v3.822265625h-12.8125v5.880859375h11.8466796875v3.697265625h-11.8466796875v7.4765625h14.955078125v3.865234375h-14.955078125v9.3671875h-4.07421875v-9.3671875h-19.3232421875v-3.865234375h6.8466796875ZM496.731428125000093,615.006809374999648v-7.4765625h-8.52734375v7.4765625h8.52734375Z"/><path class="uuid-818051eb-4007-46e3-b7f4-5aaae7bf9c2d" d="M541.251935937500093,589.004856249999648c.671875,1.259765625,1.3857421875,2.857421875,1.890625,4.201171875h14.3662109375v3.697265625h-30.9599609375v7.6015625c0,6.890625-.5458984375,16.97265625-4.07421875,23.693359375-.7978515625-.587890625-2.6044921875-1.427734375-3.61328125-1.763671875,3.4453125-6.38671875,3.7392578125-15.54296875,3.7392578125-21.88671875v-11.341796875h16.046875c-.419921875-1.091796875-.8818359375-2.310546875-1.38671875-3.27734375l3.9912109375-.923828125ZM551.333967187500093,613.454074999999648l.7138671875-.16796875,2.478515625,1.30078125c-1.890625,3.48828125-4.705078125,6.134765625-8.19140625,8.107421875,3.486328125,1.05078125,7.51953125,1.72265625,11.8037109375,2.1015625-.83984375.83984375-1.806640625,2.435546875-2.310546875,3.443359375-5.2509765625-.587890625-9.9970703125-1.720703125-14.072265625-3.40234375-4.28515625,1.59765625-9.1572265625,2.5625-14.1982421875,3.150390625-.2939453125-.96484375-1.0087890625-2.478515625-1.638671875-3.359375,4.033203125-.3359375,8.0234375-.966796875,11.59375-1.974609375-2.3935546875-1.470703125-4.4521484375-3.27734375-6.0908203125-5.376953125l1.5966796875-.630859375h-5.0830078125v-3.19140625h23.3984375ZM537.554670312500093,597.952121874999648v3.27734375h9.1162109375v-3.27734375h3.90625v3.27734375h6.4697265625v3.19140625h-6.4697265625v6.806640625h-16.802734375v-6.806640625h-6.30078125v-3.19140625h6.30078125v-3.27734375h3.7802734375ZM535.497053125000093,616.645481249999648c1.595703125,1.765625,3.822265625,3.234375,6.4267578125,4.412109375,2.6884765625-1.134765625,4.95703125-2.60546875,6.6796875-4.412109375h-13.1064453125ZM537.554670312500093,604.420871874999648v3.740234375h9.1162109375v-3.740234375h-9.1162109375Z"/><path class="uuid-818051eb-4007-46e3-b7f4-5aaae7bf9c2d" d="M79.221700000000055,135.787099999999555c-4.552800000000389,10.763699999999517-7.259799999999814,22.072200000000521-8.085000000000036,33.712900000000445,1.793899999999667-1.46100000000115,4.08010000000013-2.339900000000853,6.568400000000111-2.339900000000853,2.747999999999593,0,5.244099999999889,1.077199999999721,7.108400000000074,2.818400000000111,3.668899999999667-47.795899999999165,43.612299999999777-85.436499999999796,92.350499999999556-85.436499999999796,3.777399999999943,0,6.837900000000445-3.061599999999089,6.837900000000445-6.837900000000445,0-3.77639999999883-3.060500000000502-6.837899999998626-6.837900000000445-6.837899999998626-14.343699999999444,0-28.267499999999927,2.8125-41.382799999999406,8.359399999999368-12.659099999999853,5.355400000000373-24.025400000000445,13.016599999999016-33.783200000000761,22.775400000000445-9.759699999999611,9.757799999999406-17.42279999999937,21.125-22.776299999999537,33.786099999999351Z"/><path class="uuid-818051eb-4007-46e3-b7f4-5aaae7bf9c2d" d="M169.593700000000354,269.486300000000483c-47.477499999999964-3.841800000000148-84.835900000000038-43.48240000000078-85.050700000000688-91.899400000000242,0-3.775400000000445-3.060599999999795-6.837900000000445-6.837899999999536-6.837900000000445-3.77639999999974,0-6.837900000000445,3.0625-6.837900000000445,6.837900000000445.054700000000594,14.197299999999814,2.861300000000483,27.977499999999054,8.354500000000371,40.96389999999883,5.353500000000167,12.659100000000763,13.016599999999926,24.02730000000156,22.776299999999537,33.784100000000763,9.757800000000316,9.759799999999814,21.124100000000908,17.421899999999368,33.783200000000761,22.777399999999034,10.628899999999703,4.494099999999889,21.787099999999555,7.193300000000818,33.269599999999627,8.054700000000594-1.443400000000111-1.789099999999962-2.3125-4.060600000000704-2.3125-6.533199999999852,0-2.76759999999922,1.091800000000148-5.279300000000148,2.855400000000373-7.147499999999127Z"/><path class="uuid-818051eb-4007-46e3-b7f4-5aaae7bf9c2d" d="M251.265599999999722,243.707000000000335c-1.335000000000036-1.335000000000946-3.083999999999833-2.002900000001318-4.833999999999833-2.002900000001318s-3.501000000000204.667900000000373-4.835900000000038,2.002900000001318c-16.671899999999368,16.145499999998719-39.388699999999517,26.08889999999883-64.431700000000092,26.08889999999883-3.775299999999334,0-6.837799999999334,3.061499999999796-6.837799999999334,6.837900000000445,0,3.776299999999537,3.0625,6.837900000000445,6.837799999999334,6.837900000000445,14.345700000000761,0,28.26760000000013-2.8125,41.382900000000518-8.359400000001187,12.203099999999722-5.161199999998644,23.201099999998405-12.474599999999555,32.718699999999444-21.734399999999368,2.671900000000278-2.669899999998961,2.671900000000278-7,0-9.670899999999165Z"/><path class="uuid-818051eb-4007-46e3-b7f4-5aaae7bf9c2d" d="M177.16399999999976,283.471700000000055c-3.775299999999334,0-6.837799999999334-3.061600000000908-6.837799999999334-6.837900000000445,0-3.776400000000649,3.0625-6.837900000000445,6.837799999999334-6.837900000000445,25.043000000000575,0,47.759800000000723-9.943400000000111,64.431700000000092-26.08889999999883,1.334899999999834-1.335000000000946,3.085900000000038-2.002900000001318,4.835900000000038-2.002900000001318s3.498999999999796.667900000000373,4.833999999999833,2.002900000001318c2.671900000000278,2.670899999999165,2.671900000000278,7.001000000000204,0,9.670899999999165-9.517600000001039,9.259799999999814-20.515599999999722,16.573200000000725-32.718699999999444,21.734399999999368-13.115300000000389,5.546900000001187-27.037199999999757,8.359400000001187-41.382900000000518,8.359400000001187ZM135.781200000000354,275.112299999998868c-12.659099999999853-5.355499999999665-24.025400000000445-13.01759999999922-33.783200000000761-22.777399999999034-9.759699999999611-9.756799999999203-17.42279999999937-21.125-22.776299999999537-33.784100000000763-5.493199999999888-12.986399999999776-8.299799999999777-26.766599999999016-8.354500000000371-40.96389999999883,0-3.775400000000445,3.061500000000706-6.837900000000445,6.837900000000445-6.837900000000445,3.777299999999741,0,6.837899999999536,3.0625,6.837899999999536,6.837900000000445.21480000000065,48.416999999999462,37.573200000000725,88.057600000000093,85.050700000000688,91.899400000000242-1.763600000000224,1.868199999998978-2.855400000000373,4.379899999999907-2.855400000000373,7.147499999999127,0,2.472599999999147.869099999999889,4.744099999999889,2.3125,6.533199999999852-11.482500000000073-.861399999999776-22.640699999999924-3.560600000000704-33.269599999999627-8.054700000000594ZM177.16399999999976,70.86620000000039c3.777399999999943,0,6.837900000000445,3.061499999999796,6.837900000000445,6.837899999998626,0,3.776300000001356-3.060500000000502,6.837900000000445-6.837900000000445,6.837900000000445-48.738199999999779,0-88.681599999999889,37.640600000000632-92.350499999999556,85.436499999999796-1.864300000000185-1.74120000000039-4.360400000000482-2.818400000000111-7.108400000000074-2.818400000000111-2.488299999999981,0-4.774500000000444.878899999999703-6.568400000000111,2.339900000000853.825200000000223-11.640699999999924,3.532199999999648-22.949200000000928,8.085000000000036-33.712900000000445,5.353500000000167-12.661099999999351,13.016599999999926-24.028299999999945,22.776299999999537-33.786099999999351,9.757800000000316-9.758800000001429,21.124100000000908-17.420000000000073,33.783200000000761-22.775400000000445,13.115299999999479-5.546899999999368,27.039099999999962-8.359399999999368,41.382799999999406-8.359399999999368Z"/><path class="uuid-818051eb-4007-46e3-b7f4-5aaae7bf9c2d" d="M233.458999999999833,120.876000000000204c-15.036199999999553-15.037200000000666-35.029300000000148-23.316500000000815-56.295000000000073-23.316500000000815-21.263599999999315,0-41.255799999999908,8.279300000000148-56.291899999999259,23.316500000000815-15.036200000000463,15.036099999999351-23.318400000000111,35.028299999999945-23.318400000000111,56.292899999998554,0,21.265600000000632,8.282199999999648,41.255900000000111,23.318400000000111,56.293000000001484,15.036099999999351,15.035099999999147,35.028299999999945,23.318299999998999,56.291899999999259,23.318299999998999,21.265699999999924,0,41.25880000000052-8.283199999999852,56.295000000000073-23.318299999998999,15.035100000000057-15.037100000001374,23.315400000000409-35.027400000000853,23.315400000000409-56.293000000001484,0-21.264599999998609-8.280300000000352-41.256799999999203-23.315400000000409-56.292899999998554Z"/><path class="uuid-54a6e964-a900-4065-91d6-ae292fa3f32f" d="M121.058600000000297,202.91399999999885v-51.489199999999983h11.167899999999463v3.805600000001505h-6.472600000000057v43.877999999998792h6.472600000000057v3.805599999999686h-11.167899999999463Z"/><path class="uuid-54a6e964-a900-4065-91d6-ae292fa3f32f" d="M233.271499999999833,151.424799999998868v51.489199999999983h-11.166000000000167v-3.805599999999686h6.470700000000761v-43.877999999998792h-6.470700000000761v-3.805600000001505h11.166000000000167Z"/><path class="uuid-d51e9363-af11-4d37-adc3-356579aeec07" d="M146.994099999999889,187.628899999999703c0,1.028299999999945.016599999999926,2.242200000000594.047900000000482,3.635700000000725.032199999999648,1.394599999999627.075199999999313,2.8125.129899999999907,4.248099999998885.052700000000186,1.4375.117099999999482,2.811499999999796.193299999999908,4.120100000000093.074200000000019,1.308600000000297.166000000000167,2.402299999999741.272500000000036,3.281199999999444h-6.596700000000055v-36.366199999998571c0-3.130800000000818-.052700000000186-5.968700000001263-.16110000000026-8.510700000000725-.106499999999869-2.542999999999665-.26760000000013-4.747100000000501-.483400000000074-6.612300000000687h6.597600000000057v36.204100000000835Z"/><path class="uuid-d51e9363-af11-4d37-adc3-356579aeec07" d="M175.797800000000279,170.088799999999537v4.216800000000148h-6.049800000000687v24.393599999999424h6.049800000000687v4.215799999999945h-18.020500000000538v-4.215799999999945h5.953199999999924v-24.393599999999424h-5.953199999999924v-4.216800000000148h18.020500000000538Z"/><path class="uuid-d51e9363-af11-4d37-adc3-356579aeec07" d="M189.314400000000205,170.088799999999537c.128899999999703.343800000000556.257800000000316.788099999999758.386800000000221,1.336999999999534.129799999999705.545900000000984.246000000000095,1.120100000000093.353499999999258,1.720699999999852.106400000000576.600500000000466.203100000000632,1.190400000001318.291000000000167,1.770500000000538l.255799999999908,1.44629999999961c2.060600000000704-2.444400000000314,4.128999999999905-4.208999999998923,6.21100000000024-5.292999999999665,2.082000000000335-1.083000000000538,4.25-1.625,6.501900000000205-1.625,1.716800000000148,0,3.234400000000278.284200000000055,4.552799999999479.852500000000873,1.320300000000316.570299999999406,2.430600000000595,1.470699999999852,3.332000000000335,2.703199999999924.900400000000445,1.234300000000076,1.58010000000013,2.83389999999963,2.042999999999665,4.795799999999872.461900000000242,1.96389999999883.691400000000613,4.327199999999721.691400000000613,7.096700000000055v14.480499999999665c0,3.626000000000204-.316400000000613,6.636699999999109-.949200000000019,9.027299999999741-.631900000000314,2.393599999999424-1.518600000000333,4.302799999999479-2.654300000000148,5.730499999999665-1.136800000000221,1.424800000000687-2.505900000000111,2.433600000000297-4.10360000000037,3.023400000000038-1.598599999999351.589900000000853-3.373999999999796.885800000000017-5.326099999999315.885800000000017-.964900000001762,0-2.001000000000204-.156299999998737-3.105500000000575-.466800000000148-1.105499999999665-.311499999999796-2.10739999999987-.745100000000093-3.009799999999814-1.303699999998571l2.091800000000148-4.828100000000632c.494200000000092.365200000000186,1.153400000000147.670899999999165,1.980499999999665.917900000000373.825200000000223.246099999998478,1.668000000000575.369199999999182,2.524400000000242.369199999999182,1.031299999999646,0,1.954099999999926-.165100000000166,2.770499999999629-.498100000000704.814500000000407-.331999999998516,1.505900000000111-.915999999999258,2.074200000000019-1.752899999999499.568400000000111-.836900000000242,1.003000000000611-1.985399999999572,1.303800000000592-3.444299999999203.299799999999777-1.459000000000742.450199999999313-3.314500000000407.450199999999313-5.567399999999907v-14.160200000000259c0-2.575200000001132-.134799999999814-4.661099999999351-.402399999999943-6.25879999999961-.267600000001039-1.599600000001374-.671899999999368-2.843700000001263-1.206999999999425-3.734300000000076-.536200000000463-.889699999999721-1.207100000000537-1.484400000001187-2.012700000000223-1.787200000000666-.80370000000039-.298800000000483-1.74120000000039-.449199999999109-2.815400000000409-.449199999999109-1.158299999999144,0-2.288099999999758.273499999999331-3.393599999999424.822299999999814-1.104500000000371.544899999998961-2.120100000000093,1.253899999999703-3.043000000000575,2.122999999999593-.92279999999937.867200000000594-1.737299999999777,1.849599999999555-2.444299999999203,2.944400000000314-.708000000000538,1.094699999999648-1.234400000000278,2.1875-1.578100000000632,3.282199999999648v18.665999999999258h-5.953199999999924v-19.791999999999462c0-3.174800000000687-.183599999999387-5.862300000000687-.54779999999937-8.061499999999796-.364300000000185-2.199200000000928-.719700000000557-3.85740000000078-1.061500000000706-4.972700000000259h5.792900000000373Z"/><path class="uuid-818051eb-4007-46e3-b7f4-5aaae7bf9c2d" d="M129.766100000000733,447.272899999998117h-32.207500000000437v-5.346599999998944h32.207500000000437v5.346599999998944ZM125.57470000000103,504.203099999998813h-5.518100000001141v-5.860300000000279h-12.874499999999898v5.860300000000279h-5.602999999999156v-28.914500000000771h23.995600000000195v28.914500000000771ZM125.317900000000009,458.308599999998478l-23.653399999999237.085000000000946v-5.345800000000963h23.653399999999237v5.260800000000017ZM125.403299999999945,469.514599999998609h-23.738799999999173v-5.346599999998944h23.738799999999173v5.346599999998944ZM124.334000000000742,436.408699999998134l-21.728500000001077.085399999999936v-5.346199999999953h21.728500000001077v5.260800000000017ZM120.056599999999889,493.081499999998414v-12.531699999999546h-12.959899999999834v12.531699999999546h12.959899999999834ZM175.318400000000111,469.600599999999758l-46.236899999999878.084899999998015v-5.260699999998906h11.462900000000445l2.480999999999767-13.216800000000148h-10.692900000000009v-5.260700000000725h11.548800000000483l1.83889999999883-9.795399999999063h-16.381799999999203v-5.346199999999953h42.473099999999249v5.261699999999109h-20.317399999999907l-1.753399999999601,9.794400000000678h17.622600000000602l-1.839900000000853,18.477100000000064h9.795000000000073v5.261700000000928ZM167.876000000000204,504.373999999997977h-5.51759999999922v-5.774399999998423h-21.642600000001039v5.774399999998423h-5.603499999999258v-28.998999999999796h32.763699999999517v28.998999999999796ZM162.358400000000984,493.338399999998728v-12.702699999999822h-21.728000000000975v12.702699999999822h21.728000000000975ZM161.502899999999499,451.122599999998783h-12.703099999998813l-2.480499999999665,13.302200000000084h13.857899999999063l1.325699999999415-13.302200000000084Z"/><path class="uuid-818051eb-4007-46e3-b7f4-5aaae7bf9c2d" d="M271.760700000000725,447.272899999998117h-77.759200000000419v-5.346599999998944h77.759200000000419v5.346599999998944ZM260.298300000000381,458.22269999999844h-55.604500000001281v-5.17489999999998h55.604500000001281v5.17489999999998ZM260.298300000000381,469.343699999999444h-55.604500000001281v-5.175699999999779h55.604500000001281v5.175699999999779ZM258.288099999999758,504.373999999997977h-5.51759999999922v-6.031199999999444h-40.1208000000006v6.031199999999444h-5.517400000000634v-29.085399999999936h51.155800000000454v29.085399999999936ZM258.20260000000053,435.852999999999156l-50.642500000000837.127999999998792v-5.17529999999897h50.642500000000837v5.047300000000178ZM252.770500000000538,493.081499999998414v-12.531699999999546h-40.1208000000006v12.531699999999546h40.1208000000006Z"/><path class="uuid-818051eb-4007-46e3-b7f4-5aaae7bf9c2d" d="M368.20509999999922,488.890599999998813h-34.432399999999689v5.945299999999406c0,6.358400000000984-3.378699999999299,9.538099999999758-10.137899999999718,9.538099999999758h-5.688500000001113l-2.095699999998942-5.260699999998906h7.955500000000029c2.794499999999971,0,4.192399999999907-1.284200000000055,4.192399999999907-3.849599999999555v-6.373100000000704h-37.554700000000594v-5.346700000000055h37.554700000000594v-3.67870000000039c5.95850000000064-2.224099999999453,10.221700000000055-4.304700000000594,12.78859999999986-6.244099999999889h-32.764400000000023v-4.918999999999869h42.261000000000422v4.662200000000666c-4.449699999999211,3.022399999999834-9.952699999999822,6.11620000000039-16.511000000000422,9.281199999999444v.898400000000038h34.432399999999689v5.346700000000055ZM364.611799999999675,473.021499999998923h-5.13380000000052v-8.853499999999258h-59.751399999999194v9.367199999998775h-5.604000000000269v-14.371099999998478h7.356399999999667v-26.091800000001967c4.048300000000381-.398499999999331,8.483600000001388-2.324300000000221,13.303200000000288-5.773999999999432l2.823300000000017,3.935100000000602c-2.596700000000965,2.395499999998719-6.132400000000416,4.206500000000233-10.608399999999165,5.432099999999991v3.593299999998635h10.9491999999982v4.448200000000725h-10.9491999999982v4.662099999999555h10.9491999999982v4.361899999999878h-10.9491999999982v5.433100000002014h45.466999999998734v-5.433100000002014h-10.436799999999494v-4.276899999998932h10.436799999999494v-5.003899999999703h-10.351299999998446v-4.362800000000789h10.351299999998446v-4.662599999999657h-12.104699999999866v-5.17529999999897h17.536600000001272v28.828599999998914h6.715799999999035v13.943400000000111ZM340.359399999999368,439.830599999999322l-2.99369999999908,3.678199999998469c-1.626400000001013-1.567399999999907-3.83640000000014-3.264699999999721-6.629899999999907-5.089899999999034-2.309500000001208,1.939500000000407-4.90480000000025,3.721700000000055-7.785100000000966,5.346700000000055l-3.507299999999304-3.080100000001039c2.766099999998914-1.139599999998609,5.188899999999194-2.480399999998554,7.271899999999732-4.019999999998618-3.479999999999563-1.311499999999796-6.288099999999758-2.224100000001272-8.427200000000084-2.737300000000687l2.182600000000093-3.935499999999593c3.164099999999962.798300000000381,6.343699999999444,1.825699999999415,9.537599999999657,3.079599999999118,2.024900000000343-1.909199999998236,3.721199999999953-3.863299999999072,5.090299999999843-5.859399999999368l3.592800000000352,2.865200000000186c-1.141599999999016,1.768599999999424-2.623999999999796,3.494199999999182-4.448199999998906,5.175799999999072,2.109299999998257,1.197300000001633,4.148400000000038,2.723100000001068,6.116199999998571,4.576700000001438ZM340.872100000000501,455.399399999998423l-3.591800000000148,2.823300000000017c-2.309600000000501-1.768099999999322-4.706100000001243-3.236399999999776-7.186100000000806-4.405300000000352-1.539499999999862,1.168900000000576-4.276799999999639,2.63720000000103-8.211900000000242,4.405300000000352l-3.251000000000204-2.566499999998996c3.677800000001298-1.738699999999881,6.315500000000611-3.250900000000911,7.913400000001275-4.533600000000661-1.597900000000664-.997600000000602-4.020800000000236-2.10989999999947-7.272000000000844-3.337400000000343l3.207800000000134-2.693400000000111c2.936499999999796,1.055700000000797,5.44629999999961,2.152299999999741,7.527799999999843,3.292999999999665.797400000001289-.45509999999922,2.409200000000055-1.824300000000221,4.833000000000538-4.105999999999767l3.935100000000602,2.010300000001735c-1.454100000000835,1.882299999999304-3.078199999999924,3.436499999999796-4.875800000001618,4.662999999998647,2.367000000000189,1.083099999999831,4.690200000000914,2.565500000000611,6.97150000000147,4.447299999999814Z"/><path class="uuid-818051eb-4007-46e3-b7f4-5aaae7bf9c2d" d="M464.561499999999796,488.890599999998813h-34.431899999999587v5.945299999999406c0,6.358400000000984-3.378600000000006,9.538099999999758-10.136899999999514,9.538099999999758h-5.688500000000204l-2.095699999999852-5.260699999998906h7.955599999999322c2.793400000000474,0,4.191399999999703-1.284200000000055,4.191399999999703-3.849599999999555v-6.373100000000704h-37.55370000000039v-5.346700000000055h37.55370000000039v-3.67870000000039c5.959200000001147-2.224099999999453,10.221600000000763-4.304700000000594,12.789500000000771-6.244099999999889h-32.764400000000023v-4.918999999999869h42.260000000000218v4.662200000000666c-4.449000000000524,3.022399999999834-9.953100000000632,6.11620000000039-16.511000000000422,9.281199999999444v.898400000000038h34.431899999999587v5.346700000000055ZM460.969699999999648,473.021499999998923h-5.134700000000521v-8.853499999999258h-59.751499999998487v9.367199999998775h-5.603000000000975v-14.371099999998478h7.356200000000172v-26.091800000001967c4.04950000000099-.398499999999331,8.483099999999467-2.324300000000221,13.302499999998872-5.773999999999432l2.822500000001128,3.935100000000602c-2.59349999999904,2.395499999998719-6.130699999999706,4.206500000000233-10.607700000000477,5.432099999999991v3.593299999998635h10.950200000001132v4.448200000000725h-10.950200000001132v4.662099999999555h10.950200000001132v4.361899999999878h-10.950200000001132v5.433100000002014h45.466800000000148v-5.433100000002014h-10.435599999998885v-4.276899999998932h10.435599999998885v-5.003899999999703h-10.35109999999986v-4.362800000000789h10.35109999999986v-4.662599999999657h-12.104499999999462v-5.17529999999897h17.536399999999048v28.828599999998914h6.717000000000553v13.943400000000111ZM438.239700000000084,454.439899999999398l-3.896899999999732,3.563000000000102c-1.778800000000047-2.672800000000279-4.324300000000221-6.018500000000131-6.785700000000361-8.096199999999953-3.826100000000224,4.263199999999415-6.973099999999249,6.97609999999986-9.432099999999991,8.136799999998402l-3.856499999999869-3.238299999999072c2.898999999999432-1.378899999999703,6.041999999998552-3.954599999999118,9.433600000000297-7.732399999998961-3.855900000000474-2.401900000000751-6.603500000001077-3.887300000002142-8.243599999999788-4.454600000000937l3.363799999999173-3.47899999999936c1.367099999999482.539999999999054,3.934999999999491,1.941899999999805,7.710900000000038,4.210399999999936,1.122100000000501-1.835900000000038,1.995100000000093-3.846700000000055,2.623999999999796-6.033200000001671h-12.878899999999703v-5.059599999998682h6.90480000000025v-5.209899999999834h4.43119999999908v5.209899999999834h8.194800000001123v5.059599999998682h-1.622100000000501c-.910599999999249,3.34860000000117-2.135200000000623,6.249500000001717-3.675300000000789,8.705100000001039,2.981000000001586,2.265600000000632,5.841800000000148,5.719699999999648,7.728000000000975,8.418400000000474Z"/><path class="uuid-818051eb-4007-46e3-b7f4-5aaae7bf9c2d" d="M562.33009999999922,447.102499999999054l-3.079099999999016,4.447799999999916c-9.724599999999555-2.395000000000437-17.336900000000242-5.161099999999351-22.839900000000853-8.29739999999947v3.849599999999555h-28.914999999999054v-4.235300000000279c-8.326399999999921,4.306599999999889-15.796900000001187,7.115200000000186-22.413099999999758,8.426299999999173l-2.822299999999814-4.490799999999581c16.024399999998423-3.906199999999444,29.368899999999485-10.436499999999796,40.034699999998338-19.589799999999741l5.260700000000725,1.753399999999601c-.570799999999508.712900000000445-1.069799999999304,1.212400000000343-1.497499999999491,1.496600000000399,9.466800000000148,7.870600000000195,21.557600000000093,13.416999999999462,36.271499999998923,16.639600000000428ZM553.218699999999444,471.61029999999846h-62.104400000000169v-20.059999999999491h62.104400000000169v20.059999999999491ZM548.12960000000021,504.458999999998923h-5.26050000000032v-3.421899999999368h-41.317800000000716v3.421899999999368h-5.260800000000017v-28.357399999998961h51.839100000001054v28.357399999998961ZM519.600599999999758,466.991199999998571v-10.693400000000111h-23.225599999999758v10.693400000000111h23.225599999999758ZM542.869099999999889,486.324199999999109v-5.517600000001039h-41.317800000000716v5.517600000001039h41.317800000000716ZM542.869099999999889,496.418899999998757v-5.603499999999258h-41.317800000000716v5.603499999999258h41.317800000000716ZM513.912099999999555,462.756299999999101l-4.405300000000352,3.079599999999118c-2.651299999999537-2.679199999998673-5.246999999999389-4.661599999999453-7.785099999999147-5.945299999999406l4.44800000000032-2.565899999999601c3.022699999999531,1.28269999999975,5.602999999999156,3.094199999999546,7.742399999999179,5.431599999999889ZM534.657199999999648,442.354499999999462c-4.134700000000521-2.167000000001281-8.142099999999118-5.089900000000853-12.019500000000335-8.768600000001243-4.135299999999916,3.421900000001187-8.768099999999322,6.34480000000076-13.900399999998626,8.768600000001243h25.919899999998961ZM547.959499999999025,466.991199999998571v-10.693400000000111h-23.097199999998338v10.693400000000111h23.097199999998338ZM542.783199999999852,458.821299999997791c-1.682600000000093,2.680700000000797-4.220699999999852,4.962900000000445-7.613499999999476,6.843700000001263l-4.704900000000634-2.352000000000771c3.736399999999776-2.10989999999947,6.301800000001094-4.22019999999975,7.698300000000017-6.331099999999424l4.620100000000093,1.839399999998932Z"/><path class="uuid-818051eb-4007-46e3-b7f4-5aaae7bf9c2d" d="M133.206046062992755,389.880400000000009l-1.546900000001187,2.056099999997969c-5.961900000000242-1.756799999999203-10.80029999999897-4.122999999999593-14.512199999999211-7.098599999999351-3.19970000000103,2.612300000000687-8.223100000001068,5.025400000000445-15.076600000000326,7.239199999999983l-1.721199999999953-2.090799999999945c6.629899999999907-1.838799999999537,11.643500000000131-4.070299999999406,15.040499999999156-6.694299999999203-3.408199999999852-3.221700000000055-5.699699999999211-7.139200000001438-6.870099999998274-11.754899999999907-.632300000001123,1.628399999999601-1.500500000000102,3.174299999998766-2.601100000001679,4.638699999999517l-1.860799999998562-1.704100000000835c1.475599999999758-1.757299999999304,2.663300000000163-3.684599999998682,3.565399999999499-5.781299999998737h-6.044400000000678v-2.160600000001068h14.092700000001059v-6.009299999999712h2.266199999999117v5.973599999999351h14.336900000001151v2.161700000000565h-6.009800000001633c-1.053199999998469,6.114700000000084-3.477499999999054,10.980900000000474-7.273899999998321,14.600500000000466,3.455500000000029,2.624100000000908,8.193799999999101,4.832099999999627,14.215299999999843,6.624100000000908ZM123.910646062991873,368.655799999998635h-13.598100000000159c.935500000000502,5.423300000000381,3.225499999999556,9.786599999999453,6.868600000000697,13.089299999999639,3.560999999999694-3.314399999999296,5.804200000000492-7.677700000000186,6.729499999999462-13.089299999999639Z"/><path class="uuid-818051eb-4007-46e3-b7f4-5aaae7bf9c2d" d="M217.370866062992718,385.786599999999453h-14.145300000001043v2.442900000000009c0,2.611300000000483-1.387199999998302,3.917999999999665-4.163799999999355,3.917999999999665h-2.336900000000242l-.860099999999875-2.161200000000463h3.267100000000937c1.148400000000038,0,1.722599999999147-.527299999999741,1.722599999999147-1.581500000000233v-2.618199999998978h-15.426199999999881v-2.196300000001429h15.426199999999881v-1.511199999999008c2.447799999999916-.913099999999758,4.199300000000221-1.768600000001243,5.252500000000509-2.564899999999398h-13.45850000000064v-2.02100000000064h17.359400000001187v1.915000000000873c-1.826700000001438,1.242199999998775-4.088400000000547,2.513199999999415-6.782300000001669,3.812999999998283v.369099999999889h14.145300000001043v2.196300000001429ZM215.895466062993364,379.268599999999424h-2.109300000000076v-3.637700000001132h-24.546400000001086v3.847600000000966h-2.301799999999275v-5.902299999999741h3.022499999999127v-10.718800000000556c1.663099999999758-.16359999999986,3.485300000000279-.954600000000937,5.465299999999843-2.372100000000501l1.158699999999953,1.616700000000492c-1.064899999999398.983899999999267-2.519000000001142,1.727600000000166-4.358599999999569,2.231499999999869v1.475599999999758h4.498999999999796v1.82760000000053h-4.498999999999796v1.915100000000166h4.498999999999796v1.791900000000169h-4.498999999999796v2.232500000000073h18.678900000000795v-2.232500000000073h-4.288500000000568v-1.756800000001022h4.288500000000568v-2.055699999998978h-4.251900000001115v-1.792400000000271h4.251900000001115v-1.914600000000064h-4.972600000000966v-2.126000000000204h7.203100000000632v11.841800000000148h2.760200000000623v5.72860000000037ZM205.93216606299211,365.633799999997791l-1.230999999999767,1.510200000000623c-.66649999999936-.644000000000233-1.574699999999211-1.340299999999843-2.722200000000157-2.090299999999843-.949199999999109.796900000001187-2.015600000000632,1.529300000000148-3.198200000000725,2.19629999999961l-1.440399999999499-1.264699999999721c1.13550000000032-.468699999999444,2.13130000000092-1.019000000000233,2.986800000000585-1.651799999999639-1.429700000000594-.53859999999986-2.584000000000742-.91359999999986-3.46140000000014-1.124499999999898l.896899999999732-1.616700000000492c1.29910000000018.328600000000733,2.605499999999665.75,3.917499999999563,1.26510000000053.832000000000335-.784200000000055,1.528299999999945-1.586900000000242,2.090100000001257-2.407199999999648l1.476599999999962,1.177700000000186c-.46900000000096.725599999999758-1.078400000001238,1.434599999998682-1.826399999999921,2.125999999998385.865700000000288.49120000000039,1.703099999998813,1.118700000000899,2.511699999999109,1.879899999999907ZM206.142566062992046,372.029299999998329l-1.475599999999758,1.159700000000157c-.948199999998906-.72609999999986-1.933100000000195-1.329599999999118-2.952100000000428-1.810100000000602-.633099999999104.480500000001484-1.757299999999304,1.084000000000742-3.373599999998987,1.810100000000602l-1.335900000000038-1.054699999998775c1.512199999999211-.714400000000751,2.595499999999447-1.334500000000844,3.251000000000204-1.862300000000687-.655500000000757-.410200000000259-1.651900000000751-.86620000000039-2.986800000000585-1.370100000000093l1.317800000000716-1.107500000000073c1.206599999999526.433600000000297,2.237299999998868.885299999999916,3.092799999998533,1.353100000000268.328600000000733-.1875.989800000001196-.749100000000908,1.984600000001592-1.686600000000908l1.616500000000087.826200000001336c-.597400000000562.772499999999127-1.264400000000023,1.411099999999351-2.001500000000306,1.914999999999054.970699999999852.444400000000314,1.924799999998868,1.053799999999683,2.86279999999897,1.827199999999721Z"/><path class="uuid-818051eb-4007-46e3-b7f4-5aaae7bf9c2d" d="M276.057886062992111,372.468299999998635c2.366699999999582,2.659100000000763,3.550800000000891,5.253899999999703,3.550800000000891,7.783699999999953,0,1.229900000000271-.319300000001022,2.208000000000538-.95850000000064,2.934000000001106-.63720000000103.727100000000064-1.530699999999342,1.089899999999034-2.679200000000492,1.089899999999034-.632299999999304,0-1.394500000000335-.076699999999619-2.284099999998944-.228100000000268l-.649900000001253-2.337400000000343c1.253900000000613.316900000001624,2.15520000000015.474700000000666,2.705500000000029.474700000000666.456100000000333,0,.872599999999693-.176300000000992,1.248099999999795-.526899999998932.375-.351600000001781.5625-.820300000001225.5625-1.406200000001263,0-.878000000000611-.322299999999814-2.00249999999869-.966599999999744-3.373599999998987-.644800000000032-1.370100000000093-1.61160000000018-2.676300000000992-2.899599999998827-3.917500000001382l3.426699999999983-8.803699999998571h-5.218000000000757v27.990299999999479h-2.302499999999782v-30.221199999999953h9.856400000000576v2.230900000000474l-3.391600000000835,8.311099999998987ZM300.288886062991878,385.699199999999109c-.305199999998877,1.897499999999127-.714799999999741,3.274400000000242-1.230999999999767,4.127899999999499-.514600000000428.855499999999665-1.352999999999156,1.283699999999953-2.511699999999109,1.283699999999953h-2.740700000000288c-1.828100000000632,0-2.740999999999985-.960900000000038-2.740999999999985-2.881299999999101v-9.29490000000078h-3.708200000000943c-.069799999999304,3.771500000000742-.805199999998877,6.597600000000966-2.204599999999118,8.477500000000873-1.400100000000748,1.879899999999907-3.996600000000399,3.457999999998719-7.792999999999665,4.735399999999572l-1.475600000001577-2.020500000000538c3.525400000000445-1.041999999999462,5.944900000000416-2.390199999999822,7.256900000000314-4.041999999999462,1.311999999999898-1.651400000000649,1.973100000001068-4.022999999999229,1.985300000000279-7.115299999999479h-4.814399999999296v-2.302200000000084h18.819299999999203v2.267099999999118h-5.870600000000195v8.75c0,.292400000000271.09400000000096.565399999999499.281699999999546.816899999999805.187300000001414.252399999999398.410200000000259.377399999999398.668000000001484.377399999999398h2.231700000000274c.456299999999828,0,.805399999999281-.374499999998079,1.04569999999876-1.124499999998079.238699999999881-.748999999999796.441399999999703-1.721199999999953.605900000000474-2.916500000001179l2.19629999999961.861300000000483ZM298.267886062991238,369.762699999999313l-2.230899999999565.035099999999147v-3.09269999999924h-13.248599999999897v3.09269999999924h-2.266799999999421v-5.324199999999109h7.713099999999031v-3.988300000000891h2.302700000000186v3.953700000000026h7.730499999999665v5.323700000000827ZM295.316686062991721,373.153299999999945h-11.878399999999601v-2.301300000000992h11.878399999999601v2.301300000000992Z"/><path class="uuid-818051eb-4007-46e3-b7f4-5aaae7bf9c2d" d="M384.455706062992249,385.786599999999453h-14.145500000000538v2.442900000000009c0,2.611300000000483-1.388699999999517,3.917999999999665-4.16359999999986,3.917999999999665h-2.336900000001151l-.861599999999271-2.161200000000463h3.268299999999726c1.14850000000115,0,1.722700000000259-.527299999999741,1.722700000000259-1.581500000000233v-2.618199999998978h-15.427999999999884v-2.196300000001429h15.427999999999884v-1.511199999999008c2.447700000000623-.913099999999758,4.199200000000928-1.768600000001243,5.252900000001318-2.564899999999398h-13.459000000000742v-2.02100000000064h17.359200000000783v1.915000000000873c-1.82640000000174,1.242199999998775-4.088200000000143,2.513199999999415-6.782000000001062,3.812999999998283v.369099999999889h14.145500000000538v2.196300000001429ZM382.978606062992185,379.268599999999424h-2.107900000000882v-3.637700000001132h-24.545399999999063v3.847600000000966h-2.302700000000186v-5.902299999999741h3.023400000000038v-10.718800000000556c1.661599999999453-.16359999999986,3.483899999999267-.954600000000937,5.462900000000445-2.372100000000501l1.160200000000259,1.616700000000492c-1.06590000000142.983899999999267-2.518100000001141,1.727600000000166-4.356999999999971,2.231499999999869v1.475599999999758h4.497599999997874v1.82760000000053h-4.497599999997874v1.915100000000166h4.497599999997874v1.791900000000169h-4.497599999997874v2.232500000000073h18.676799999999275v-2.232500000000073h-4.287099999999555v-1.756800000001022h4.287099999999555v-2.055699999998978h-4.25170000000071v-1.792400000000271h4.25170000000071v-1.914600000000064h-4.972200000000157v-2.126000000000204h7.203199999999924v11.841800000000148h2.758700000000317v5.72860000000037ZM373.016706062991943,365.633799999997791l-1.230900000000474,1.510200000000623c-.667999999999665-.644000000000233-1.575199999999313-1.340299999999843-2.723699999998644-2.090299999999843-.948200000000725.796900000001187-2.014100000000326,1.529300000000148-3.197000000000116,2.19629999999961l-1.441100000000006-1.264699999999721c1.137199999999211-.468699999999444,2.133299999999508-1.019000000000233,2.98779999999897-1.651799999999639-1.429700000000594-.53859999999986-2.583099999999831-.91359999999986-3.461499999999432-1.124499999999898l.895500000000538-1.616700000000492c1.300799999999072.328600000000733,2.606999999999971.75,3.917999999999665,1.26510000000053.831500000000233-.784200000000055,1.529299999999239-1.586900000000242,2.09230000000025-2.407199999999648l1.475599999999758,1.177700000000186c-.469500000001062.725599999999758-1.079100000001745,1.434599999998682-1.828199999999924,2.125999999998385.867199999998775.49120000000039,1.704599999999118,1.118700000000899,2.513199999999415,1.879899999999907ZM373.227206062991172,372.029299999998329l-1.475599999999758,1.159700000000157c-.949499999999716-.72609999999986-1.933100000000195-1.329599999999118-2.951399999999921-1.810100000000602-.633599999999205.480500000001484-1.756599999998798,1.084000000000742-3.374299999999494,1.810100000000602l-1.334899999999834-1.054699999998775c1.511199999999008-.714400000000751,2.594199999999546-1.334500000000844,3.250899999999092-1.862300000000687-.656699999999546-.410200000000259-1.652799999999843-.86620000000039-2.98779999999897-1.370100000000093l1.317900000000009-1.107500000000073c1.206500000000233.433600000000297,2.237299999998868.885299999999916,3.091800000000148,1.353100000000268.328099999998813-.1875.989299999999275-.749100000000908,1.985800000000381-1.686600000000908l1.616299999999683.826200000001336c-.597200000000157.772499999999127-1.265199999999822,1.411099999999351-2.003000000000611,1.914999999999054.972200000000157.444400000000314,1.927799999999479,1.053799999999683,2.864299999999275,1.827199999999721Z"/><path class="uuid-818051eb-4007-46e3-b7f4-5aaae7bf9c2d" d="M468.848326062990964,390.390599999998813h-31.976999999998952v-2.266600000000835h14.89890000000014v-8.241199999998571h-10.735400000001391v-2.266600000000835h10.735400000001391v-7.168399999998655h-7.959500000000844c-.960399999999936,2.494599999998172-2.565399999999499,4.796299999998155-4.814399999999296,6.904699999999139l-2.318400000000111-1.211900000000242c3.840799999999945-3.548800000000483,5.97899999999936-7.895500000000538,6.412599999999657-13.037099999999555l2.372100000000501.685099999998783c-.093800000000556,1.194800000001123-.369200000001001,2.670900000000984-.826700000000528,4.428200000000288h7.099600000000464v-7.69629999999961h2.371399999999994v7.660700000000361h12.404499999998734v2.266600000000835h-12.404499999998734v7.133699999998498h10.577799999999115v2.266200000000026h-10.577799999999115v8.240700000000288h14.741399999998976v2.302200000000084Z"/><path class="uuid-818051eb-4007-46e3-b7f4-5aaae7bf9c2d" d="M553.961646062991349,368.620099999998274l-1.264400000000023,1.827700000001641c-3.993899999999485-.983900000001086-7.122300000000905-2.119700000001103-9.383100000000923-3.408300000000963v1.580599999999322h-11.877899999999499v-1.739199999999983c-3.419899999998961,1.769000000000233-6.489299999999275,2.922800000000279-9.206099999999424,3.46140000000014l-1.159599999999955-1.84519999999975c6.582999999999629-1.604499999999462,12.064400000000205-4.287099999999555,16.445800000000418-8.046899999999368l2.160599999999249.720699999999852c-.23489999999947.292999999999665-.439399999999296.497999999999593-.614299999999275.614299999999275,3.888199999999415,3.233400000000984,8.855999999999767,5.511700000000928,14.898999999999432,6.834899999999834ZM550.219946062990857,378.688499999998385h-25.511699999999109v-8.240699999998469h25.511699999999109v8.240699999998469ZM548.129146062990912,392.18159999999807h-2.162200000000666v-1.40519999999924h-16.973099999999249v1.40519999999924h-2.160599999999249v-11.648399999998219h21.295899999999165v11.648399999998219ZM536.40884606299187,376.790999999999258v-4.393100000001141h-9.540000000000873v4.393100000001141h9.540000000000873ZM545.966946062990246,384.732399999998961v-2.266599999999016h-16.973099999999249v2.266599999999016h16.973099999999249ZM545.966946062990246,388.878899999997884v-2.301799999999275h-16.973099999999249v2.301799999999275h16.973099999999249ZM534.071946062991628,375.051799999999275l-1.809800000000905,1.264599999998609c-1.088600000000042-1.100599999997939-2.154999999998836-1.914999999999054-3.197000000001026-2.442399999999907l1.826600000001235-1.053699999998571c1.242200000000594.52639999999883,2.301300000000992,1.270500000000538,3.180200000000696,2.231499999999869ZM542.593246062991966,366.670399999999063c-1.69800000000032-.889600000000428-3.343100000000049-2.090799999999945-4.936300000001211-3.602499999999054-1.700199999999313,1.405699999999342-3.602600000001075,2.606899999998859-5.710699999999633,3.602499999999054h10.647000000000844ZM548.058346062991404,376.790999999999258v-4.393100000001141h-9.48739999999998v4.393100000001141h9.48739999999998ZM545.932846062991302,373.435099999998783c-.691899999999805,1.101000000000568-1.734700000000885,2.037599999999657-3.128500000001623,2.810999999999694l-1.932099999999991-.965799999999945c1.533700000000863-.867199999998775,2.588400000001457-1.734399999999368,3.162600000000566-2.60109999999986l1.898000000001048.755900000000111Z"/></g></svg>