<?xml version="1.0" encoding="UTF-8"?><svg id="uuid-759da7f2-c149-45df-9847-596c23e897f0" xmlns="http://www.w3.org/2000/svg" width="568.767692291299454mm" height="249.999214023166246mm" xmlns:xlink="http://www.w3.org/1999/xlink" viewBox="0 0 1612.254899999999907 708.659200000000055"><defs><style>.uuid-9da27c50-786d-4ef1-9c94-ed99a73cea61{fill:#00c2f3;}.uuid-98dcccc8-954c-4a15-9c88-f4f3dd1a2059{clip-path:url(#uuid-c79b5497-2e1f-4b2a-8d02-708df6f03b39);}.uuid-2838cabe-a013-4084-a999-56b44639e90f{fill:#fff;}.uuid-f5a9c82a-c21d-41ea-8f8f-bb729e959817{fill:#ee212e;}.uuid-f299b94c-0fa1-4161-a2a0-5687f4b91098{fill:none;}.uuid-228b7196-20cf-4353-a978-cb954661873f{fill:#333e48;}.uuid-976fc35f-33fd-4183-85b5-94b2f9202fe6{fill:#46bc96;}</style><clipPath id="uuid-c79b5497-2e1f-4b2a-8d02-708df6f03b39"><rect class="uuid-f299b94c-0fa1-4161-a2a0-5687f4b91098" x="-.001000000000204" width="1612.255900000000111" height="708.659200000000055"/></clipPath></defs><g class="uuid-98dcccc8-954c-4a15-9c88-f4f3dd1a2059"><path class="uuid-f5a9c82a-c21d-41ea-8f8f-bb729e959817" d="M155.415100000000166,341.491700000000492c7.555599999999686,0,13.676699999999983,6.123499999999694,13.676699999999983,13.674799999998868-.001000000000204-.279300000000148-.010699999999815-.557600000000093-.010699999999815-.836899999999332,0-102.311000000000604,82.935499999999593-185.247800000000097,185.247999999999593-185.247800000000097,7.551800000000185,0,13.674800000000687-6.121399999999994,13.674800000000687-13.675999999999931,0-7.552000000000135-6.123000000000502-13.675100000000384-13.674800000000687-13.675100000000384-28.688499999999294,0-56.534200000000055,5.626200000000154-82.763599999999315,16.719000000000051-25.317400000000816,10.709200000000237-48.050799999999981,26.033200000000306-67.565500000000611,45.548800000000028-19.51760000000013,19.51760000000013-34.843699999999444,42.25-45.551699999999983,67.569900000000416-11.092799999999443,26.227999999999156-16.717799999999443,54.07169999999951-16.717799999999443,82.761199999999917,0,.279299999999239.007799999999406.557599999999184.009799999999814.836899999999332,0-7.551299999999173,6.121999999999389-13.674799999998868,13.674799999999777-13.674799999998868Z"/><path class="uuid-976fc35f-33fd-4183-85b5-94b2f9202fe6" d="M340.653299999999945,553.252399999999398c0-7.552700000000186,6.123100000000704-13.674799999999777,13.675799999999981-13.674799999999777-102.031199999999444,0-184.786099999999351-82.486299999999574-185.237299999999777-184.41110000000026,0-7.551299999999173-6.121100000000297-13.674799999998868-13.676699999999983-13.674799999998868-7.552800000000389,0-13.674799999999777,6.123499999999694-13.674799999999777,13.674799999998868.108400000000074,28.393600000000333,5.722600000000057,55.95260000000053,16.707999999999629,81.924800000000687,10.708000000000538,25.318400000000111,26.034099999999853,48.052299999999377,45.551699999999983,67.566399999999703,19.51470000000063,19.519099999999526,42.248099999999795,34.842800000000352,67.565500000000611,45.552700000000186,26.229399999999259,11.093800000000556,54.07510000000002,16.71730000000025,82.763599999999315,16.71730000000025-7.552699999999277,0-13.675799999999981-6.1225000000004-13.675799999999981-13.675300000000789Z"/><path class="uuid-9da27c50-786d-4ef1-9c94-ed99a73cea61" d="M502.52639511113739,487.402299999999741c-5.33989986510278-5.341800000000148-13.997099646403512-5.341800000000148-19.340799511410296,0-33.340799157740548,32.290600000000268-78.77349559972663,52.175299999999879-128.856495599727168,52.175299999999879-7.552699999999277,0-13.675799999999981,6.122099999999591-13.675799999999981,13.674799999999777,0,7.552800000000389,6.123100000000704,13.675300000000789,13.675799999999981,13.675300000000789,28.689500000000407,0,56.533197426767401-5.623499999999694,82.762696764154498-16.71730000000025,24.406299383445003-10.322200000000521,46.399398827852565-24.947700000000623,65.434598346982966-43.466699999999946,5.342799865029519-5.340900000000147,5.342799865029519-14,0-19.341400000000249Z"/><path class="uuid-9da27c50-786d-4ef1-9c94-ed99a73cea61" d="M466.912096010830282,241.746600000000399c-30.070299240360328-30.07130000000052-70.053696010830208-46.630900000000111-112.582996010830357-46.630900000000111-42.527320000000145,0-82.510699999999815,16.559599999999591-112.581999999999425,46.630900000000111-30.07130000000052,30.072199999999611-46.63380000000052,70.056099999999788-46.63380000000052,112.582999999999629,0,42.529299999999239,16.5625,82.50879999999961,46.63380000000052,112.581999999999425,30.07129999999961,30.07130000000052,70.05467999999928,46.634799999999814,112.581999999999425,46.634799999999814,42.529300000000148,0,82.512696770470029-16.563499999999294,112.582996010830357-46.634799999999814,30.072299240309803-30.073199999999815,46.630903989170292-70.052700000000186,46.630903989170292-112.581999999999425,0-42.526899999999841-16.558604748860489-82.510800000000017-46.630903989170292-112.582999999999629Z"/><path class="uuid-228b7196-20cf-4353-a978-cb954661873f" d="M242.121100000000297,405.81880000000001v-102.977499999999964h22.333999999999833v7.613299999999981h-12.945300000000316v87.751900000000205h12.945300000000316v7.612299999999777h-22.333999999999833Z"/><path class="uuid-228b7196-20cf-4353-a978-cb954661873f" d="M466.537096020303579,302.841300000000047v102.977499999999964h-22.329096020303041v-7.612299999999777h12.939496257504288v-87.751900000000205h-12.939496257504288v-7.613299999999981h22.329096020303041Z"/><path class="uuid-2838cabe-a013-4084-a999-56b44639e90f" d="M293.990300000000389,375.248499999999694c0,2.056700000000092.032199999999648,4.484400000000278.095699999999852,7.271500000000742.0625,2.790099999999256.151299999999537,5.623599999998987.258700000000317,8.496099999999387.106499999999869,2.875500000000102.234399999999368,5.623500000000604.386799999999312,8.240699999999379.147400000000744,2.617200000000594.331000000000131,4.80370000000039.545900000000074,6.562000000000808h-13.193400000000111v-72.729000000000269c0-6.264100000000326-.106399999999667-11.9375-.322299999999814-17.02139999999963-.212800000000243-5.087900000000445-.53610000000026-9.496100000000297-.965799999999945-13.227100000000064h13.194400000000314v72.407199999999648Z"/><path class="uuid-2838cabe-a013-4084-a999-56b44639e90f" d="M351.595699999999852,340.16989999999987v8.432600000000093h-12.10149999999976v48.787100000000464h12.10149999999976v8.430699999998978h-36.04098999999951v-8.430699999998978h11.906289999999899v-48.787100000000464h-11.906289999999899v-8.432600000000093h36.04098999999951Z"/><path class="uuid-2838cabe-a013-4084-a999-56b44639e90f" d="M378.628900000000613,340.16989999999987c.256899999999405.688499999999294.514699999999721,1.576700000000528.770499999999629,2.673400000000584.260800000000017,1.092199999999139.492199999999684,2.239199999999983.710000000000036,3.441899999999805.210900000000038,1.200199999999313.404300000000148,2.381299999999101.58010000000013,3.540499999999156l.511700000000019,2.893000000000029c4.121099999999387-4.889599999999518,8.25879999999961-8.417400000000271,12.421899999999368-10.585399999999936,4.163100000000668-2.165999999999258,8.5-3.25,13.001900000000205-3.25,3.432597447095759,0,6.469797370369633.568400000000111,9.107397303738253,1.704100000000835,2.639699933315569,1.14009999999962,4.861399877190706,2.941399999999703,6.662199831698672,5.406299999999646,1.799799954533228,2.468700000000354,3.162099920118635,5.667399999999361,4.087799896733486,9.590799999999945.921899976710847,3.927699999999277,1.382899965065008,8.65520000000015,1.382899965065008,14.194300000000112v28.958999999999833c0,7.253400000000511-.634799983963603,13.272899999999936-1.900399951991858,18.054699999999684-1.262699968101515,4.785600000000159-3.036199923299137,8.603000000000065-5.308599865893484,11.46140000000014-2.273499942566559,2.848200000000361-5.010799873416545,4.867200000000594-8.207099792671215,6.045399999999972-3.195299919279933,1.180699999999888-6.74609738667823,1.771499999999833-10.65129738667838,1.771499999999833-1.930699999999888,0-4.001000000000204-.311499999999796-6.21100000000024-.933600000000297-2.20889999999963-.623999999999796-4.214799999999741-1.491699999999582-6.017499999999927-2.607399999998961l4.183600000000297-9.653800000000047c.987299999999777.728499999999258,2.305599999999686,1.339299999999639,3.95889999999963,1.834899999999834,1.65139999999974.49120000000039,3.33600000000024.738799999999173,5.048899999999776.738799999999173,2.063400000000001,0,3.908199999999852-.331999999999425,5.539999999999964-.996599999999489,1.629897450301542-.665500000000065,3.011697415394337-1.831999999999425,4.14839738667888-3.507300000000214,1.138699971234018-1.674299999999675,2.00789994927618-3.969699999999648,2.608399934106274-6.886199999999008.600599984828477-2.91950000000088.900402679215404-6.631900000000314.900402679215404-11.134800000000723v-28.32130000000052c0-5.147399999999834-.267502695202893-9.321799999999712-.804702681632989-12.51759999999922-.535099986482237-3.19629999999961-1.342699966080545-5.686999999999898-2.414999938991969-7.466300000000047-1.07129737937521-1.78020000000015-2.412099939065229-2.970699999999852-4.024397379374932-3.573700000000827-1.606500000000779-.59769999999935-3.483400000000074-.900399999999536-5.628900000000613-.900399999999536-2.316399999999703,0-4.577199999999721.54740000000038-6.787099999999555,1.644500000000335-2.21100000000024,1.092799999999443-4.242200000000594,2.509299999999712-6.086900000000242,4.245599999999286-1.84479999999985,1.735900000000584-3.474600000000464,3.699300000000221-4.888700000000426,5.88970000000063-1.415999999999258,2.188499999999294-2.468799999999646,4.375500000000102-3.157199999999648,6.564400000000205v37.330599999999322h-11.904300000000148v-39.583499999999731c0-6.349600000000464-.36619999999948-11.724600000000464-1.096700000000055-16.123000000000502-.727600000000166-4.398499999999331-1.438500000000204-7.712899999999536-2.123099999999795-9.943899999999303h11.587900000000445Z"/><path class="uuid-228b7196-20cf-4353-a978-cb954661873f" d="M731.934589315798803,379.63130000000001h-54.992198610780179v-9.128900000000613h54.992198610780179v9.128900000000613ZM724.778289496582147,476.837900000000445h-9.421289496582176v-10.005900000000111h-21.983000000000175v10.005900000000111h-9.566809468400606v-49.370600000000195h40.971098964982957v49.370600000000195ZM724.339889507657062,398.474099999999453l-40.386798979743617.145500000000538v-9.127899999999499h40.386798979743617v8.982399999998961ZM724.485889503968792,417.608399999999165h-40.532798976055346v-9.129899999999907h40.532798976055346v9.129899999999907ZM722.660189550089854,361.082000000000335l-37.100099062772642.145499999999629v-9.127900000000409h37.100099062772642v8.98240000000078ZM715.356999999999971,457.848099999999249v-21.396899999999732h-22.128509706402838v21.396899999999732h22.128509706402838ZM809.713887350928417,417.754399999999805l-78.947298005623452.14600000000064v-8.98240000000078h19.572299505562114l4.236299892982061-22.566399999999703h-18.257799538769177v-8.983900000000176h19.718799501861213l3.140599920661771-16.724100000000362h-27.971699293375423v-9.128999999998996h72.520498167978076v8.983399999999165h-34.690399123646785l-2.994188378557737,16.724700000000666h30.088887694088044l-3.140599920661771,31.54779999999937h16.724599577501067v8.983900000000176ZM797.006887671934237,477.129899999999907h-9.421887671933291v-9.85989999999947h-36.95311115653567v9.85989999999947h-9.568399758281885v-49.516100000000733h55.943398586750845v49.516100000000733ZM787.585000000000946,458.286099999999351v-21.689899999999398h-37.099611152834768v21.689899999999398h37.099611152834768ZM786.123999999999796,386.20509999999922h-21.68941150522005l-4.236299892982061,22.712900000000445h23.662099402245076l2.263611995957035-22.712900000000445Z"/><path class="uuid-228b7196-20cf-4353-a978-cb954661873f" d="M974.385783190966322,379.63130000000001h-132.771496645909792v-9.128900000000613h132.771496645909792v9.128900000000613ZM954.813483685404208,398.32759999999962h-94.941397601578501v-8.835899999999128h94.941397601578501v8.835899999999128ZM954.813483685404208,417.316399999999703h-94.941397601578501v-8.837900000000445h94.941397601578501v8.837900000000445ZM951.381883772093715,477.129899999999907h-9.42188377209277v-10.297899999999572h-68.503914259335943v10.297899999999572h-9.420899762008048v-49.662599999999657h87.346697793436761v49.662599999999657ZM951.235383775794617,360.132799999999406l-86.470697815566382.218800000000556v-8.836999999999534h86.470697815566382v8.618199999998978ZM941.960000000000946,457.848099999999249v-21.396899999999732h-68.503914259335943v21.396899999999732h68.503914259335943Z"/><path class="uuid-228b7196-20cf-4353-a978-cb954661873f" d="M1139.059579030956229,450.692399999999907h-58.790998514814419v10.150900000000547c0,10.856399999998757-5.769580516142014,16.286599999999453-17.310580516141272,16.286599999999453h-9.712918801187698l-3.578081198813379-8.983400000000074h13.584000000000742c4.771480825504113,0,7.158180765211-2.191899999999805,7.158180765211-6.572799999999916v-10.88130000000001h-64.122998380116769v-9.129899999999907h64.122998380116769v-6.280800000000454c10.173819234789335-3.797300000000178,17.453099559097609-7.350099999999657,21.835899448378768-10.662099999999555h-55.943298586753372v-8.399900000000343h72.158218373164345v7.961900000000242c-7.597720004099756,5.161200000000463-16.9942197667242,10.442900000000009-28.191419483859136,15.847200000000157v1.533699999999953h58.790998514814419v9.129899999999907ZM1132.924779185934312,423.596199999999953h-8.765599778562319v-15.117700000000696h-102.023397422672133v15.995100000000093h-9.568399758281885v-24.538099999999758h12.560617773582635v-44.550699999999779c6.912081734495587-.68119999999999,14.486281543155201-3.968300000000454,22.714781335285807-9.858400000000074l4.82029987822898,6.718700000000354c-4.433599887997843,4.089399999999841-10.470699735487869,7.182099999999991-18.113299542419554,9.274900000000343v6.134799999999814h18.695299527716998v7.595699999999852h-18.695299527716998v7.959899999999834h18.695299527716998v7.448800000000119h-18.695299527716998v9.276299999999537h77.632798038830515v-9.276299999999537h-17.820299549821357v-7.30370000000039h17.820299549821357v-8.543999999999869h-17.673799553522258v-7.448699999999917h17.673799553522258v-7.960500000000138h-20.66789947788493v-8.837400000000343h29.94331976795911v49.224200000000565h11.466779185933774v23.807099999999991ZM1091.514680232041428,366.924799999999777l-5.111399870875175,6.280299999999443c-2.777280361166049-2.676799999999275-6.550699834515399-5.574699999999211-11.320280361165715-8.690499999998792-3.943319253243317,3.311099999998987-8.375,6.353099999999358-13.292919017052554,9.128999999998996l-5.988299848722818-5.25879999999961c4.722599880697089-1.947299999999814,8.859399776192731-4.235899999999674,12.415999686345458-6.864799999999377-5.941399849907611-2.238800000000992-10.736299728778249-3.797300000000178-14.388699636510864-4.673300000000381l3.726599905858166-6.72019999999975c5.402318910082613,1.363199999999779,10.831999726360664,3.117199999999684,16.285099588603771,5.258299999999508,3.457099912666308-3.260299999999916,6.353599839494564-6.595699999999852,8.691499780434242-10.005400000000009l6.134719541043523,4.893500000000131c-1.949219646778147,3.019099999999526-4.48051958283213,5.964899999999943-7.595719504135559,8.837499999999636,3.601599909015931,2.043400000000474,7.083999821043108,4.64890000000014,10.443399736177525,7.814400000000205ZM1092.389680209937069,393.507299999999304l-6.132799845072441,4.820300000000316c-3.943399900381337-3.01799999999912-8.035199797013775-5.524899999999434-12.269599690043833-7.520999999999731-2.6288999335884,1.996100000000297-7.302699815518281,4.503000000000611-14.021499645787117,7.520999999999731l-5.550699859777524-4.381800000000112c6.27929984137154-2.968299999999545,10.783199727593455-5.551299999999173,13.511699658665748-7.740700000000288-2.728499931072292-1.703099999998813-6.865299826567934-3.602999999999156-12.415999686345458-5.697799999999916l5.476499861651973-4.599599999999555c5.013718996771786,1.802300000000287,9.298899765090027,3.676300000000083,12.853499675293278,5.622100000000501,1.361399965608143-.777400000000853,4.113299896089302-3.113800000000992,8.251999791536946-7.011200000000827l6.718699830271362,3.433100000000195c-2.482399937289301,3.214299999999639-5.255799867227324,5.868599999999788-8.32419978971302,7.96140000000014,4.040999897915754,1.850099999999657,8.007799797705957,4.38130000000001,11.902399699320085,7.594199999999546Z"/><path class="uuid-228b7196-20cf-4353-a978-cb954661873f" d="M1303.585000000000946,450.692399999999907h-58.791000000001077v10.150900000000547c0,10.856399999998757-5.769623494366897,16.286599999999453-17.308623202867238,16.286599999999453h-9.712899754631508l-3.578099909609591-8.983400000000074h13.583899656841822c4.769599879509769,0,7.156299819216656-2.191899999999805,7.156299819216656-6.572799999999916v-10.88130000000001h-64.121098380164767v-9.129899999999907h64.121098380164767v-6.280800000000454c10.17579974293767-3.797300000000178,17.453099559097609-7.350099999999657,21.837899448328244-10.662099999999555h-55.943398586750845v-8.399900000000343h72.156298177178542v7.961900000000242c-7.595699808116478,5.161200000000463-16.994199570690398,10.442900000000009-28.191375647706082,15.847200000000157v1.533699999999953h58.791000000001077v9.129899999999907ZM1297.452175029622595,423.596199999999953h-8.767599778511794v-15.117700000000696h-102.023397422672133v15.995100000000093h-9.566399758332409v-24.538099999999758h12.560499682695081v-44.550699999999779c6.914099825335143-.68119999999999,14.484399634093279-3.968300000000454,22.712899426223885-9.858400000000074l4.82029987822898,6.718700000000354c-4.429699888096366,4.089399999999841-10.468699735538394,7.182099999999991-18.113299542419554,9.274900000000343v6.134799999999814h18.697299527666473v7.595699999999852h-18.697299527666473v7.959899999999834h18.697299527666473v7.448800000000119h-18.697299527666473v9.276299999999537h77.632822485165889v-9.276299999999537h-17.818323996207255v-7.30370000000039h17.818323996207255v-8.543999999999869h-17.673823999857632v-7.448699999999917h17.673823999857632v-7.960500000000138h-20.667923924220304v-8.837400000000343h29.943299243568617v49.224200000000565h11.468799710273743v23.807099999999991ZM1258.641576010060817,391.869099999999889l-6.654299831898243,6.083999999999833c-3.037099923276401-4.563499999999294-7.382799813494785-10.276300000000447-11.585899707315548-13.824700000000121-6.533199834957486,7.279300000000148-11.906299699221563,11.912099999999555-16.105499593140848,13.893100000000231l-6.58399983367417-5.528299999999945c4.949299874970166-2.354500000000371,10.316399739385815-6.751999999999498,16.107499593090324-13.203199999999924-6.58399983367417-4.10149999999976-11.275376637122463-6.637200000000121-14.076199644405278-7.605899999999565l5.744099854891829-5.940400000000409c2.333999941038201.922299999999268,6.718799830268836,3.315900000000511,13.165999667398864,7.189900000000307,1.916099951595243-3.135700000000725,3.406299913949624-6.568400000000111,4.48049988681305-10.302300000000287h-21.990199444480822v-8.638100000000122h11.78899970218481v-8.896999999999935h7.566423340475012v8.896999999999935h13.992176114908943v8.638100000000122h-2.769499930036545c-1.554676184872733,5.718299999999545-3.646499907881662,10.671400000000176-6.275399841470062,14.862799999999879,5.089899871418311,3.870199999999386,9.97459974802041,9.767100000000028,13.195299666658684,14.375Z"/><path class="uuid-228b7196-20cf-4353-a978-cb954661873f" d="M1470.520500000000538,379.340799999999945l-5.257800000001225,7.594699999999648c-16.603499999999258-4.090299999999843-29.60149999999885-8.8128999999999-38.997999999999593-14.167900000000373v6.573200000000725h-49.371100000000297v-7.231900000000678c-14.216799999998329,7.353000000000975-26.97269999999844,12.149900000000343-38.269599999999627,14.388200000001234l-4.818299999998999-7.668000000000575c27.361299999998664-6.66989999999987,50.146499999998923-17.819800000000214,68.357399999998961-33.449700000000121l8.98240000000078,2.994599999999991c-.974599999999555,1.21730000000025-1.826100000000224,2.070299999999406-2.556599999999889,2.555200000000696,16.164099999999962,13.438499999999294,36.808600000000297,22.909199999999146,61.931599999999889,28.411599999999453ZM1454.963900000000649,421.186499999999796h-106.041000000001077v-34.251000000000204h106.041000000001077v34.251000000000204ZM1446.274400000000242,477.274900000000343h-8.98240000000078v-5.842800000000352h-70.548799999998664v5.842800000000352h-8.98240000000078v-48.420400000000882h88.513600000000224v48.420400000000882ZM1397.561499999999796,413.299299999999675v-18.257300000000214h-39.656199999999444v18.257300000000214h39.656199999999444ZM1437.291999999999462,446.310099999999693v-9.420499999999265h-70.548799999998664v9.420499999999265h70.548799999998664ZM1437.291999999999462,463.545899999999165v-9.568399999999201h-70.548799999998664v9.568399999999201h70.548799999998664ZM1387.848700000000463,406.06880000000001l-7.521500000000742,5.25879999999961c-4.527399999999034-4.575200000000223-8.958999999998923-7.959899999999834-13.292999999999665-10.150800000000345l7.595699999999852-4.382399999999507c5.160200000000259,2.190499999999702,9.566399999999703,5.283199999999852,13.218800000000556,9.274400000000242ZM1423.270500000000538,371.234399999999368c-7.060499999999593-3.700699999999415-13.902299999999741-8.691899999999805-20.523400000000038-14.973199999999451-7.060600000000704,5.842299999999341-14.970699999999852,10.833999999999833-23.734400000001187,14.973199999999451h44.257800000001225ZM1445.983400000000984,413.299299999999675v-18.257300000000214h-39.4375v18.257300000000214h39.4375ZM1437.145500000000538,399.350099999999657c-2.872999999999593,4.577100000000428-7.207000000000335,8.473100000000159-13,11.685499999999593l-8.033199999999852-4.016999999999825c6.378899999999703-3.602100000000064,10.759799999999814-7.206099999999424,13.144599999999627-10.808599999999387l7.888600000000224,3.14009999999962Z"/><path class="uuid-228b7196-20cf-4353-a978-cb954661873f" d="M732.833671613321712,281.635699999999815l-2.640599933291924,3.510800000000017c-10.179699742840057-3-18.441399534130142-7.039600000000064-24.77929937402223-12.120100000000093-5.462899861995538,4.460399999999936-14.040999645294505,8.580500000000029-25.742179120014953,12.360799999999472l-2.939420155425978-3.570299999999406c11.320299714024259-3.139699999999721,19.880799497767839-6.949700000000121,25.681599351227305-11.430199999999786-5.820299852966855-5.5-9.732399754138896-12.189900000000307-11.730499703662645-20.070300000000316-1.079999972716905,2.77980000000025-2.562499935265805,5.41990000000078-4.441399887800799,7.91990000000078l-3.177699919724546-2.909200000000055c2.519499936352076-3.001400000001013,4.546899885135645-6.291500000001179,6.087899846205801-9.871000000001004h-10.320299739286384v-3.6899999999996h24.062499392130121v-10.260199999999713h3.869099902258313v10.200199999999313h24.480499381569643v3.689400000000205h-10.261699740765835c-1.798899954555964,10.440900000000511-5.937499850007043,18.75-12.419999686245319,24.930199999999786,5.900420959522307,4.480900000000474,13.990299646575295,8.251400000001013,24.271499386849428,11.3100000000004ZM716.962593185994592,245.395499999999629h-23.218720585180563c1.597599959641229,9.260699999999815,5.507799860861269,16.710000000000036,11.728499703713169,22.35110000000077,6.080099846403755-5.660200000000259,9.910220881465648-13.110900000000584,11.490220881467394-22.35110000000077Z"/><path class="uuid-228b7196-20cf-4353-a978-cb954661873f" d="M876.854792562531657,274.645499999999629h-24.152299389861582v4.171400000000176c0,4.459499999999935-2.369199940148974,6.690399999999499-7.10939982040145,6.690399999999499h-3.990199899199069l-1.468799962894991-3.690399999999499h5.578122181279468c1.96100000000115,0,2.941477603497333-.900400000000445,2.941477603497333-2.699700000000121v-4.471700000000055h-26.339899334598158v-3.75h26.339899334598158v-2.579099999999926c4.179599894414423-1.559600000000501,7.169899818873091-3.020000000000437,8.968699773431581-4.380900000000111h-22.98049941946374v-3.45010000000002h29.640699251212936v3.270000000000437c-3.11919992120238,2.121100000000297-6.980499823657738,4.290999999999258-11.580099707462068,6.510699999999815v.629399999999805h24.152299389861582v3.75ZM874.33529262617958,263.516099999999824h-3.601599909015931v-6.209499999999935h-41.912098941211298v6.569400000000314h-3.929699900727428v-10.079600000000937h5.160199869642383v-18.300799999999072c2.839799928260618-.278800000000047,5.951199849660043-1.629899999999907,9.331999764253851-4.049800000000687l1.978499950018886,2.760299999999916c-1.818299954065878,1.680600000000595-4.30069989135518,2.95010000000002-7.441377787685269,3.8100000000004v2.519499999999425h7.681677781614781v3.120600000000195h-7.681677781614781v3.270599999999831h7.681677781614781v3.058600000000297h-7.681677781614781v3.810999999999694h31.892577169996002v-3.810999999999694h-7.322299815023143v-3h7.322299815023143v-3.509299999999712h-7.259799816602026v-3.060100000000602h7.259799816602026v-3.270499999999629h-8.490199785519508v-3.629399999999805h12.298799689306179v20.220200000000659h4.712899880942132v9.779799999999341ZM857.323593055931269,240.236300000000483l-2.101599946909118,2.578599999998914c-1.138699971234018-1.099599999999555-2.689399932060041-2.288499999999658-4.648399882571539-3.569299999999203-1.621099959047569,1.35989999999947-3.441377554996507,2.60989999999947-5.460999862043536,3.75l-2.458899937882961-2.159200000000055c1.939399951006635-.800800000000891,3.638599908081233-1.740200000000186,5.099599871173268-2.820300000000316-2.441399938325048-.91989999999987-4.412077626242535-1.5600000000004-5.91019985069579-1.920900000000074l1.531299961316108-2.760199999999713c2.218699943950924.560499999999593,4.449199887603754,1.280700000000252,6.689399831011542,2.160600000000159,1.419899964130309-1.338400000000547,2.609422432125939-2.710000000000946,3.568422432124862-4.110300000000279l2.521477414031324,2.010199999999713c-.80079997977009,1.239800000000287-1.841799953472218,2.451200000000426-3.11919992120238,3.630900000000111,1.478499962649948.838800000000447,2.908199926532689,1.909099999999853,4.28909989164822,3.209900000000744ZM857.682993046852062,251.156199999999444l-2.51959993634955,1.979500000000371c-1.619099959098094-1.240200000000186-3.300799916614778-2.269999999999527-5.040999872653629-3.08980000000065-1.080099972714379.819800000001123-2.999999924213625,1.849600000000464-5.759799854495213,3.08980000000065l-2.281199942372041-1.800699999999779c2.581999934773194-1.219299999999748,4.431599888048368-2.278800000000047,5.550822230472477-3.178800000000592-1.119222342424109-.70010000000002-2.820322299450709-1.479400000000169-5.099622241870748-2.339799999999741l2.249999943160219-1.891099999999824c2.060499947947392.740699999999379,3.820299903491104,1.511199999999917,5.281199866585666,2.311000000000604.560599985838053-.320300000001225,1.68949995731964-1.27980000000025,3.388699914394238-2.880800000000818l2.759722517730552,1.410600000000159c-1.019522561691701,1.319800000000214-2.15822253292572,2.410699999999451-3.417922501103021,3.269499999999425,1.658199958110345.759800000000723,3.287099916960869,1.799400000000787,4.88869987650105,3.120600000000195Z"/><path class="uuid-228b7196-20cf-4353-a978-cb954661873f" d="M979.218664564090432,251.905800000000454c4.040999897915754,4.539999999999054,6.062499846848368,8.970699999999852,6.062499846848368,13.290499999999156,0,2.100099999999657-.544899986234668,3.770500000000538-1.63667621960667,5.009799999999814-1.087923711564144,1.240700000000288-2.613323673029299,1.860800000000381-4.574223623492799,1.860800000000381-1.080099972714379,0-2.380899939853407-.131400000000212-3.900399901467608-.389699999999721l-1.109376475040335-3.991700000000492c2.140576448990032.542000000000371,3.679676410109096.811600000000908,4.619076386377856.811600000000908.779299980313226,0,1.490299962351855-.300800000000891,2.130923613622144-.900900000000547.640576316363877-.599099999999453.960876308272418-1.399400000000242.960876308272418-2.399900000000343,0-1.499499999999898-.550699986088148-3.419399999999769-1.650399958307389-5.760800000000017-1.101476349964287-2.339299999999639-2.751899930481159-4.569799999999304-4.951099874924694-6.688899999999194l5.851499852178677-15.031300000000556h-8.910099774911941v47.791999999999462h-3.931699900676904v-51.60149999999885h16.830099574835913v3.809499999999389l-5.790999853707035,14.190500000000611ZM1020.591763518918015,274.497100000000501c-.521499986825802,3.239699999999175-1.220799969159998,5.590299999999843-2.101599946909118,7.049299999998766-.878899977797118,1.460399999999936-2.310599941629334,2.190400000000409-4.28909989164822,2.190400000000409h-4.679699881780834c-3.121099921154382,0-4.679599881783361-1.640599999999722-4.679599881783361-4.91989999999987v-15.870100000000093h-6.332099840037699c-.119099996991281,6.439900000000307-1.374999965264578,11.264100000000326-3.763699904920941,14.475099999999657-2.390599939608364,3.209400000000642-6.824199827606208,5.905200000001059-13.30659966384701,8.085399999999936l-2.519499936352076-3.451099999999315c6.01949984793464-1.779300000000148,10.150399743579328-4.08010000000013,12.390623619692633-6.900000000000546,2.240176010702271-2.819799999999304,3.369075982183858-6.870100000000093,3.390575981640723-12.149400000000242h-8.22069979232765v-3.931099999999788h32.132799188257195v3.871100000000297h-10.023399746787618v14.940399999999499c0,.499500000000808.160199995953008.964900000000853.480499987861549,1.394500000000335.320299991908541.430700000000797.701099982288724.645099999999729,1.14059997118602.645099999999729h3.810499903738673c.779299980313226,0,1.374999965264578-.640699999999924,1.785199954902055-1.920000000000073.408199989688001-1.279299999999239.753924551529053-2.939899999999398,1.035199973848648-4.980399999999463l3.749999905267032,1.470700000000761ZM1017.14056360610266,247.285599999999249l-3.808599903786671.061100000000806v-5.281800000000658h-22.621099428542948v5.281800000000658h-3.871099902207789v-9.091300000000047h13.169899667300342v-6.809600000000501h3.931699900676904v6.750500000000102h13.199199666560162v9.089299999999639ZM1012.101488191330645,253.075699999999415h-20.281223945583406v-3.930199999999786h20.281223945583406v3.930199999999786Z"/><path class="uuid-228b7196-20cf-4353-a978-cb954661873f" d="M1166.458497528104999,274.645499999999629h-24.15230000000156v4.171400000000176c0,4.459499999999935-2.371100000000297,6.690399999999499-7.109400000001187,6.690399999999499h-3.990199999996548l-1.470700000001671-3.690399999999499h5.58009999999922c1.960900000001857,0,2.941399999999703-.900400000000445,2.941399999999703-2.699700000000121v-4.471700000000055h-26.341824835333682v-3.75h26.341824835333682v-2.579099999999926c4.179700000000594-1.559600000000501,7.16990000000078-3.020000000000437,8.968700000001263-4.380900000000111h-22.980525146816944v-3.45010000000002h29.640725146815385v3.270000000000437c-3.119199999997363,2.121100000000297-6.980499999997846,4.290999999999258-11.58009999999922,6.510699999999815v.629399999999805h24.15230000000156v3.75ZM1163.93709752810355,263.516099999999824h-3.599699999998847v-6.209499999999935h-41.910124999834807v6.569400000000314h-3.931699900676904v-10.079600000000937h5.162199869591859v-18.300799999999072c2.837799928311142-.278800000000047,5.949199849710567-1.629899999999907,9.328125030919182-4.049800000000687l1.980500000001484,2.760299999999916c-1.820400000000518,1.680600000000595-4.298925208000583,2.95010000000002-7.439525128662353,3.8100000000004v2.519499999999425h7.67972512866254v3.120600000000195h-7.67972512866254v3.270599999999831h7.67972512866254v3.058600000000297h-7.67972512866254v3.810999999999694h31.890625128660758v-3.810999999999694h-7.320299999999406v-3h7.320299999999406v-3.509299999999712h-7.259699999998702v-3.060100000000602h7.259699999998702v-3.270499999999629h-8.490200000000186v-3.629399999999805h12.298800000000483v20.220200000000659h4.710999999999331v9.779799999999341ZM1146.927297528103736,240.236300000000483l-2.101599999998143,2.578599999998914c-1.140600000002451-1.099599999999555-2.689400000002934-2.288499999999658-4.650400000002264-3.569299999999203-1.619099999999889,1.35989999999947-3.439399999999296,2.60989999999947-5.458899999997811,3.75l-2.461000000002969-2.159200000000055c1.941399999999703-.800800000000891,3.642600000002858-1.740200000000186,5.101600000001781-2.820300000000316-2.441399999999703-.91989999999987-4.410200000002078-1.5600000000004-5.910200000002078-1.920900000000074l1.529300000001967-2.760199999999713c2.220699999998033.560499999999593,4.451199999999517,1.280700000000252,6.689500000000407,2.160600000000159,1.41990000000078-1.338400000000547,2.611300000000483-2.710000000000946,3.572199999998702-4.110300000000279l2.519599999999627,2.010199999999713c-.800799999997253,1.239800000000287-1.841799999998329,2.451200000000426-3.121100000000297,3.630900000000111,1.480400000000373.838800000000447,2.910100000000966,1.909099999999853,4.291000000001077,3.209900000000744ZM1147.286697528104924,251.156199999999444l-2.519599999999627,1.979500000000371c-1.621100000000297-1.240200000000186-3.300699999999779-2.269999999999527-5.039000000000669-3.08980000000065-1.082099999999627.819800000001123-3,1.849600000000464-5.761699999999109,3.08980000000065l-2.279300000001967-1.800699999999779c2.580000000001746-1.219299999999748,4.429599999999482-2.278800000000047,5.550699999999779-3.178800000000592-1.121100000000297-.70010000000002-2.822199999998702-1.479400000000169-5.101500000000669-2.339799999999741l2.25-1.891099999999824c2.060499999999593.740699999999379,3.820300000003044,1.511199999999917,5.279300000001967,2.311000000000604.560499999999593-.320300000001225,1.689399999999296-1.27980000000025,3.390599999998813-2.880800000000818l2.759799999999814,1.410600000000159c-1.019599999999627,1.319800000000214-2.16019999999844,2.410699999999451-3.419999999998254,3.269499999999425,1.66019999999844.759800000000723,3.291099999998551,1.799400000000787,4.890699999999924,3.120600000000195Z"/><path class="uuid-228b7196-20cf-4353-a978-cb954661873f" d="M1311.453256039931148,282.506799999999203h-54.599599999995917v-3.869599999999991h25.439400000001115v-14.070799999999508h-18.330000000001746v-3.870100000000093h18.330000000001746v-12.240200000000186h-13.58980000000156c-1.640599999998813,4.259200000000419-4.380900000000111,8.189400000000205-8.220699999999852,11.789500000000771l-3.958999999998923-2.070300000000316c6.558600000000297-6.059599999999591,10.208999999998923-13.479000000000269,10.949199999999109-22.259300000000621l4.050800000000891,1.16990000000078c-.160200000011173,2.040100000000166-.630900000011025,4.559599999999591-1.412099999999555,7.559599999999591h12.122999999999593v-13.139599999999518h4.048899999988862v13.079999999999927h21.179700000009689v3.870199999999386h-21.179700000009689v12.179600000000391h18.060500000001412v3.870200000000295h-18.060500000001412v14.071200000000317h25.169900000006237v3.929699999998775Z"/><path class="uuid-228b7196-20cf-4353-a978-cb954661873f" d="M1456.869826969430505,245.335000000000036l-2.158199999999852,3.121099999999387c-6.820300000001225-1.679699999999684-12.162100000001374-3.619699999999284-16.021500000000742-5.820399999999609v2.699300000000221h-20.281199999999444v-2.969299999999748c-5.839799999999741,3.020999999999731-11.080100000001039,4.989799999999377-15.718800000000556,5.910699999999451l-1.980400000000373-3.150399999999536c11.240200000000186-2.740700000000288,20.599600000001374-7.320800000000418,28.080100000001039-13.740700000000288l3.689399999999296,1.230400000000373c-.400400000000445.5-.75.85109999999986-1.048800000000483,1.05029999999897,6.638700000001336,5.519500000000335,15.121100000000297,9.409700000000157,25.439400000001115,11.669000000000779ZM1450.481226969430281,262.526899999999841h-43.560600000000704v-14.070800000000418h43.560600000000704v14.070800000000418ZM1446.910826969429763,285.566399999999703h-3.691399999999703v-2.399900000000343h-28.980400000000373v2.399900000000343h-3.689500000000407v-19.889600000000428h36.361300000000483v19.889600000000428ZM1426.899126969430654,259.285599999999249v-7.5h-16.289000000000669v7.5h16.289000000000669ZM1443.21942696943006,272.846700000000055v-3.870600000000195h-28.980400000000373v3.870600000000195h28.980400000000373ZM1443.21942696943006,279.926799999999275v-3.929699999998775h-28.980400000000373v3.929699999998775h28.980400000000373ZM1422.908926969430468,256.316399999999703l-3.089799999999741,2.159700000000157c-1.859400000001187-1.878399999999601-3.679700000000594-3.269599999999627-5.459000000000742-4.169499999999971l3.119099999999889-1.799800000000687c2.121100000000297.899000000001251,3.929700000000594,2.170000000000073,5.429700000000594,3.809600000000501ZM1437.459726969429539,242.006799999999203c-2.900399999998626-1.519999999999527-5.708999999998923-3.57129999999961-8.429699999998775-6.152299999999741-2.902400000000853,2.400900000000547-6.150400000000445,4.452100000000428-9.75,6.152299999999741h18.179699999998775ZM1446.789826969430578,259.285599999999249v-7.5h-16.199300000000221v7.5h16.199300000000221ZM1443.160826969429763,253.55619999999999c-1.181599999999889,1.879299999999603-2.960900000000038,3.479399999999259-5.341699999999037,4.799299999999675l-3.298899999999776-1.648999999999432c2.619199999999182-1.480400000000373,4.419899999998961-2.960900000000038,5.400399999998626-4.440400000000409l3.240200000000186,1.290100000000166Z"/></g></svg>