<?xml version="1.0" encoding="UTF-8"?><svg id="uuid-631fdcee-4d7d-4fb1-97a8-a7ae0f54ddaa" xmlns="http://www.w3.org/2000/svg" width="1023.396605741236613mm" height="249.998543745398791mm" xmlns:xlink="http://www.w3.org/1999/xlink" viewBox="0 0 2900.966800000001967 708.65730000000076"><defs><style>.uuid-b45019b3-cdf6-4f8c-b4fa-45487564f198{fill:none;}.uuid-fccc0980-a027-4eac-aa1d-21c7bff41cbe{fill:#a39b4b;}.uuid-7d0df99e-916c-4e01-983b-609026b528b6{clip-path:url(#uuid-25b21c15-e1ff-4566-9564-56b54ee1a998);}</style><clipPath id="uuid-25b21c15-e1ff-4566-9564-56b54ee1a998"><rect class="uuid-b45019b3-cdf6-4f8c-b4fa-45487564f198" x="-.000899999999092" width="2900.967700000001059" height="708.65730000000076"/></clipPath></defs><g class="uuid-7d0df99e-916c-4e01-983b-609026b528b6"><rect class="uuid-b45019b3-cdf6-4f8c-b4fa-45487564f198" x="2037.902390625000407" y="314.112342187499962" width="701.1923828125" height="88.8798828125"/><path class="uuid-fccc0980-a027-4eac-aa1d-21c7bff41cbe" d="M2079.263718750000407,332.111365624999962l-5.6005859375,6.4794921875c-3.919921875-3.2001953125-7.759765625-4.6396484375-12.240234375-4.6396484375-4.7998046875,0-8.080078125,2.080078125-8.080078125,6,0,3.83984375,2.080078125,5.4404296875,11.1201171875,8.240234375,10,3.2001953125,16.400390625,7.3603515625,16.400390625,17.6005859375,0,10.16015625-8,17.2802734375-21.4404296875,17.2802734375-9.2001953125,0-15.919921875-3.2802734375-20.48046875-7.7607421875l6.080078125-6.6396484375c4,3.439453125,8.400390625,5.51953125,14.080078125,5.51953125,5.6806640625,0,9.5205078125-2.7197265625,9.5205078125-7.599609375,0-4.400390625-2.16015625-6.3203125-10.560546875-8.8798828125-12-3.7607421875-16.7998046875-8.560546875-16.7998046875-16.9609375,0-9.4404296875,8.16015625-15.6005859375,19.3603515625-15.6005859375,8.240234375,0,13.83984375,2.48046875,18.640625,6.9609375Z"/><path class="uuid-fccc0980-a027-4eac-aa1d-21c7bff41cbe" d="M2124.302781250000407,364.031287499999962h-26.48046875c.7998046875,8.16015625,4.6396484375,10.560546875,10.080078125,10.560546875,3.599609375,0,6.6396484375-1.1201171875,10.3203125-3.6796875l4.7197265625,6.3994140625c-4.16015625,3.3603515625-9.4404296875,5.7607421875-16.080078125,5.7607421875-13.6005859375,0-20.720703125-8.9609375-20.720703125-22.2412109375,0-12.7998046875,6.8798828125-22.7197265625,19.2802734375-22.7197265625,12,0,19.12109375,8,19.12109375,21.5205078125,0,1.439453125-.16015625,3.2001953125-.240234375,4.3994140625ZM2113.262742187500407,356.431678124999962c0-6.400390625-2.16015625-10.560546875-7.6005859375-10.560546875-4.48046875,0-7.2001953125,2.9599609375-7.83984375,11.0400390625h15.4404296875v-.4794921875Z"/><path class="uuid-fccc0980-a027-4eac-aa1d-21c7bff41cbe" d="M2162.381882812500407,343.231482812499962l-4.3203125,6.4794921875c-3.4404296875-2.16015625-6.8798828125-3.359375-10.560546875-3.359375-3.759765625,0-5.83984375,1.51953125-5.83984375,3.83984375,0,2.4794921875,1.4404296875,3.599609375,8.8798828125,5.759765625,8.48046875,2.3203125,13.2802734375,5.8408203125,13.2802734375,13.3603515625,0,8.80078125-8.240234375,13.7607421875-18.3203125,13.7607421875-7.3603515625,0-13.2802734375-2.48046875-17.2802734375-6.16015625l5.6005859375-6.240234375c3.2001953125,2.4794921875,7.1201171875,4.16015625,11.3603515625,4.16015625,4.2392578125,0,6.9599609375-1.759765625,6.9599609375-4.640625,0-3.2001953125-1.5205078125-4.240234375-9.3603515625-6.3994140625-8.560546875-2.400390625-12.560546875-6.640625-12.560546875-13.041015625,0-7.2001953125,6.560546875-12.6396484375,16.80078125-12.6396484375,6.16015625,0,11.3603515625,1.919921875,15.3603515625,5.1201171875Z"/><path class="uuid-fccc0980-a027-4eac-aa1d-21c7bff41cbe" d="M2200.701218750000407,343.231482812499962l-4.3203125,6.4794921875c-3.4404296875-2.16015625-6.8798828125-3.359375-10.560546875-3.359375-3.759765625,0-5.83984375,1.51953125-5.83984375,3.83984375,0,2.4794921875,1.4404296875,3.599609375,8.8798828125,5.759765625,8.48046875,2.3203125,13.2802734375,5.8408203125,13.2802734375,13.3603515625,0,8.80078125-8.240234375,13.7607421875-18.3203125,13.7607421875-7.3603515625,0-13.2802734375-2.48046875-17.2802734375-6.16015625l5.6005859375-6.240234375c3.2001953125,2.4794921875,7.1201171875,4.16015625,11.3603515625,4.16015625,4.2392578125,0,6.9599609375-1.759765625,6.9599609375-4.640625,0-3.2001953125-1.5205078125-4.240234375-9.3603515625-6.3994140625-8.560546875-2.400390625-12.560546875-6.640625-12.560546875-13.041015625,0-7.2001953125,6.560546875-12.6396484375,16.80078125-12.6396484375,6.16015625,0,11.3603515625,1.919921875,15.3603515625,5.1201171875Z"/><path class="uuid-fccc0980-a027-4eac-aa1d-21c7bff41cbe" d="M2222.139695312500407,324.190467187499962c0,3.7607421875-2.8798828125,6.640625-6.9599609375,6.640625s-6.8798828125-2.8798828125-6.8798828125-6.640625c0-3.759765625,2.7998046875-6.6396484375,6.8798828125-6.6396484375s6.9599609375,2.8798828125,6.9599609375,6.6396484375ZM2220.939500000000407,381.792029687499962h-11.359375v-42.4013671875h11.359375v42.4013671875Z"/><path class="uuid-fccc0980-a027-4eac-aa1d-21c7bff41cbe" d="M2270.219773437500407,360.591834374999962c0,13.4404296875-7.599609375,22.48046875-20.3203125,22.48046875-12.6396484375,0-20.3203125-8.400390625-20.3203125-22.48046875,0-13.5205078125,7.6005859375-22.48046875,20.400390625-22.48046875,12.640625,0,20.240234375,8.3994140625,20.240234375,22.48046875ZM2241.418992187500407,360.591834374999962c0,9.759765625,2.880859375,14,8.48046875,14,5.6005859375,0,8.48046875-4.3203125,8.48046875-14,0-9.7607421875-2.8798828125-14.0009765625-8.400390625-14.0009765625-5.6796875,0-8.560546875,4.3203125-8.560546875,14.0009765625Z"/><path class="uuid-fccc0980-a027-4eac-aa1d-21c7bff41cbe" d="M2314.379929687500407,350.911170312499962v30.880859375h-11.3603515625v-28.9609375c0-4.8798828125-1.759765625-6.240234375-4.640625-6.240234375-3.279296875,0-5.83984375,2.16015625-8.16015625,5.9208984375v29.2802734375h-11.359375v-42.4013671875h9.83984375l.8798828125,5.3603515625c3.4404296875-4.240234375,7.6005859375-6.6396484375,12.9599609375-6.6396484375,7.4404296875,0,11.8408203125,4.7998046875,11.8408203125,12.7998046875Z"/><path class="uuid-fccc0980-a027-4eac-aa1d-21c7bff41cbe" d="M2378.459031250000407,340.991248437499962c0,8.7998046875-5.4404296875,16.3203125-23.041015625,32.0009765625h24.3203125l-1.2001953125,8.7998046875h-36.080078125v-8.240234375c19.1201171875-18.3203125,24.3203125-24.400390625,24.3203125-31.6005859375,0-4.8798828125-2.9599609375-8-8-8-4.400390625,0-7.2802734375,1.759765625-10.560546875,5.6796875l-7.0400390625-5.51953125c4.400390625-5.6806640625,10.240234375-8.9609375,18.720703125-8.9609375,12.240234375,0,18.560546875,7.2001953125,18.560546875,15.8408203125Z"/><path class="uuid-fccc0980-a027-4eac-aa1d-21c7bff41cbe" d="M2425.738328125000407,354.031287499999962c0,18.880859375-6.7998046875,29.041015625-19.4404296875,29.041015625s-19.4404296875-10.16015625-19.4404296875-29.041015625c0-18.8798828125,6.7998046875-28.880859375,19.4404296875-28.880859375s19.4404296875,10.0009765625,19.4404296875,28.880859375ZM2398.538132812500407,354.031287499999962c0,15.5205078125,2.4794921875,20.48046875,7.759765625,20.48046875,5.2001953125,0,7.7607421875-4.7197265625,7.7607421875-20.48046875,0-15.759765625-2.560546875-20.400390625-7.7607421875-20.400390625-5.2802734375,0-7.759765625,4.9599609375-7.759765625,20.400390625Z"/><path class="uuid-fccc0980-a027-4eac-aa1d-21c7bff41cbe" d="M2468.058640625000407,340.991248437499962c0,8.7998046875-5.4404296875,16.3203125-23.041015625,32.0009765625h24.3203125l-1.2001953125,8.7998046875h-36.080078125v-8.240234375c19.1201171875-18.3203125,24.3203125-24.400390625,24.3203125-31.6005859375,0-4.8798828125-2.9599609375-8-8-8-4.400390625,0-7.2802734375,1.759765625-10.560546875,5.6796875l-7.0400390625-5.51953125c4.400390625-5.6806640625,10.240234375-8.9609375,18.720703125-8.9609375,12.240234375,0,18.560546875,7.2001953125,18.560546875,15.8408203125Z"/><path class="uuid-fccc0980-a027-4eac-aa1d-21c7bff41cbe" d="M2515.337937500000407,354.031287499999962c0,18.880859375-6.7998046875,29.041015625-19.4404296875,29.041015625s-19.4404296875-10.16015625-19.4404296875-29.041015625c0-18.8798828125,6.7998046875-28.880859375,19.4404296875-28.880859375s19.4404296875,10.0009765625,19.4404296875,28.880859375ZM2488.137742187500407,354.031287499999962c0,15.5205078125,2.4794921875,20.48046875,7.759765625,20.48046875,5.2001953125,0,7.7607421875-4.7197265625,7.7607421875-20.48046875,0-15.759765625-2.560546875-20.400390625-7.7607421875-20.400390625-5.2802734375,0-7.759765625,4.9599609375-7.759765625,20.400390625Z"/><path class="uuid-fccc0980-a027-4eac-aa1d-21c7bff41cbe" d="M2520.216843750000407,352.271521874999962h37.7607421875v8.9599609375h-37.7607421875v-8.9599609375Z"/><path class="uuid-fccc0980-a027-4eac-aa1d-21c7bff41cbe" d="M2599.257859375000407,340.991248437499962c0,8.7998046875-5.4404296875,16.3203125-23.041015625,32.0009765625h24.3203125l-1.2001953125,8.7998046875h-36.080078125v-8.240234375c19.1201171875-18.3203125,24.3203125-24.400390625,24.3203125-31.6005859375,0-4.8798828125-2.9599609375-8-8-8-4.400390625,0-7.2802734375,1.759765625-10.560546875,5.6796875l-7.0400390625-5.51953125c4.400390625-5.6806640625,10.240234375-8.9609375,18.720703125-8.9609375,12.240234375,0,18.560546875,7.2001953125,18.560546875,15.8408203125Z"/><path class="uuid-fccc0980-a027-4eac-aa1d-21c7bff41cbe" d="M2646.537156250000407,354.031287499999962c0,18.880859375-6.7998046875,29.041015625-19.4404296875,29.041015625s-19.4404296875-10.16015625-19.4404296875-29.041015625c0-18.8798828125,6.7998046875-28.880859375,19.4404296875-28.880859375s19.4404296875,10.0009765625,19.4404296875,28.880859375ZM2619.336960937500407,354.031287499999962c0,15.5205078125,2.4794921875,20.48046875,7.759765625,20.48046875,5.2001953125,0,7.7607421875-4.7197265625,7.7607421875-20.48046875,0-15.759765625-2.560546875-20.400390625-7.7607421875-20.400390625-5.2802734375,0-7.759765625,4.9599609375-7.759765625,20.400390625Z"/><path class="uuid-fccc0980-a027-4eac-aa1d-21c7bff41cbe" d="M2688.857468750000407,340.991248437499962c0,8.7998046875-5.4404296875,16.3203125-23.041015625,32.0009765625h24.3203125l-1.2001953125,8.7998046875h-36.080078125v-8.240234375c19.1201171875-18.3203125,24.3203125-24.400390625,24.3203125-31.6005859375,0-4.8798828125-2.9599609375-8-8-8-4.400390625,0-7.2802734375,1.759765625-10.560546875,5.6796875l-7.0400390625-5.51953125c4.400390625-5.6806640625,10.240234375-8.9609375,18.720703125-8.9609375,12.240234375,0,18.560546875,7.2001953125,18.560546875,15.8408203125Z"/><path class="uuid-fccc0980-a027-4eac-aa1d-21c7bff41cbe" d="M2736.457078125000407,373.072303124999962v8.7197265625h-34.80078125v-8.7197265625h12.9599609375v-35.361328125l-11.83984375,7.1201171875-4.880859375-7.599609375,17.8408203125-10.80078125h10v46.6416015625h10.720703125Z"/><rect class="uuid-fccc0980-a027-4eac-aa1d-21c7bff41cbe" x="1925.941500000000815" y="242.889699999999721" width="3" height="228.445300000001225"/><path class="uuid-fccc0980-a027-4eac-aa1d-21c7bff41cbe" d="M158.441500000000815,271.565500000000611c-9.10360000000037,21.529300000000148-14.51759999999922,44.146499999998923-16.167999999999665,67.423799999998664,3.589799999999741-2.919899999998961,8.160099999999147-4.677700000000186,13.136699999999109-4.677700000000186,5.496100000000297,0,10.488300000000891,2.15230000000156,14.216800000000148,5.636700000000928,7.337900000000445-95.589900000000853,87.222700000000259-170.867200000000594,184.693400000000111-170.867200000000594,7.552700000000186,0,13.675699999999779-6.121099999998478,13.675699999999779-13.675799999999072,0-7.552700000000186-6.122999999999593-13.673800000000483-13.675699999999779-13.673800000000483-28.6875,0-56.531299999998737,5.625-82.759799999999814,16.716800000000148-25.318400000000111,10.710900000000038-48.052700000000186,26.033199999999852-67.564500000000407,45.548800000000483-19.517499999999927,19.51759999999922-34.845699999999852,42.25-45.554599999999482,67.568400000000111Z"/><path class="uuid-fccc0980-a027-4eac-aa1d-21c7bff41cbe" d="M339.181700000001001,538.956099999999424c-94.951199999999517-7.683599999998478-169.666000000001077-86.962900000000445-170.095699999999852-183.790999999999258,0-7.552800000001298-6.121100000000297-13.677800000001298-13.675800000000891-13.677800000001298-7.552700000000186,0-13.675799999999072,6.125-13.675799999999072,13.677800000001298.109399999999368,28.39259999999922,5.724599999999555,55.951100000000224,16.707099999999627,81.923800000000483,10.70889999999963,25.316399999999703,26.037099999999555,48.052700000000186,45.554599999999482,67.566399999999703,19.511800000000221,19.51759999999922,42.246100000000297,34.841800000000148,67.564500000000407,45.552700000000186,21.253899999999703,8.988299999999072,43.570299999999406,14.384799999999814,66.537099999999555,16.109399999999368-2.888699999999517-3.578100000000632-4.628899999999703-8.121100000000297-4.628899999999703-13.068300000000818,0-5.533199999998033,2.181599999999889-10.556699999999182,5.712900000000445-14.292999999999665Z"/><path class="uuid-fccc0980-a027-4eac-aa1d-21c7bff41cbe" d="M502.515699999999924,487.399499999999534c-2.669899999998961-2.670000000000073-6.167999999999665-4.005900000000111-9.665999999999258-4.005900000000111-3.5,0-7,1.335900000000038-9.671899999999368,4.005900000000111-33.341800000001967,32.291000000001077-78.775400000000445,52.175699999999779-128.85740000000078,52.175699999999779-7.550800000000891,0-13.673899999999776,6.121100000000297-13.673899999999776,13.673899999999776,0,7.552700000000186,6.123099999998885,13.675699999999779,13.673899999999776,13.675699999999779,28.691399999999703,0,56.535100000000966-5.625,82.763600000000224-16.716799999998329,24.408199999999852-10.322200000000521,46.398499999999331-24.949200000000928,65.431699999999182-43.468700000001263,5.343700000001263-5.337899999998626,5.343700000001263-13.998099999998885,0-19.339799999999741Z"/><path class="uuid-fccc0980-a027-4eac-aa1d-21c7bff41cbe" d="M354.320400000000518,141.727600000000166c-28.689500000000407,0-56.529300000000148,5.628899999999703-82.759799999999814,16.718699999999444-25.320299999999406,10.71100000000115-48.048800000000483,26.031300000000556-67.568400000000111,45.550800000000891-19.511699999999109,19.519500000000335-34.839799999999741,42.25-45.550699999999779,67.568400000000111-9.099700000000666,21.531199999999444-14.519599999999627,44.150400000000445-16.170000000000073,67.419899999998961,3.589900000000853-2.919899999998961,8.160200000000259-4.669899999998961,13.140699999999924-4.669899999998961,5.490200000000186,0,10.490200000000186,2.150400000000445,14.20889999999963,5.628899999999703,7.339900000000853-95.587900000000445,87.22860000000037-170.867200000000594,184.699300000000221-170.867200000000594,7.548800000000483,0,13.679599999999482-6.119199999999182,13.679599999999482-13.669899999998961,0-7.550800000000891-6.130799999998999-13.679700000000594-13.679599999999482-13.679700000000594ZM339.179700000000594,538.954100000000835c-94.949199999999109-7.681599999999889-169.667900000000373-86.958900000001449-170.087900000000445-183.789000000000669,0-7.550800000000891-6.130799999998999-13.679700000000594-13.679599999999482-13.679700000000594-7.550799999999072,0-13.679700000000594,6.128899999999703-13.679700000000594,13.679700000000594.109300000000076,28.390599999998813,5.728500000001077,55.949199999999109,16.709000000000742,81.929700000000594,10.710900000000038,25.308600000000297,26.039000000000669,48.048799999998664,45.550699999999779,67.558600000000297,19.519599999999627,19.521399999997811,42.248100000000704,34.839799999997922,67.568400000000111,45.550699999999779,21.25,8.988299999999072,43.570299999999406,14.388699999999517,66.539099999999962,16.109399999999368-2.890699999999924-3.570300000001225-4.628899999999703-8.121100000000297-4.628899999999703-13.060499999999593,0-5.539099999999962,2.179599999999482-10.560600000000704,5.70889999999963-14.298899999999776ZM502.517600000001039,487.403400000001056c-2.66990000000078-2.679700000000594-6.16990000000078-4.009800000001633-9.66990000000078-4.009800000001633s-7,1.330100000001039-9.669899999998961,4.009800000001633c-33.339900000000853,32.290999999999258-78.779300000001967,52.169899999998961-128.85740000000078,52.169899999998961-7.550800000000891,0-13.670000000000073,6.119099999999889-13.670000000000073,13.679700000000594,0,7.550699999999779,6.119199999999182,13.669899999998961,13.670000000000073,13.669899999998961,28.689399999999296,0,56.539000000000669-5.619199999999182,82.769500000000335-16.718799999998737,24.398400000000038-10.320300000001225,46.388699999999517-24.939400000001115,65.427700000000186-43.458900000001449,5.339899999999034-5.341799999998329,5.339899999999034-14,0-19.341799999998329Z"/><path class="uuid-fccc0980-a027-4eac-aa1d-21c7bff41cbe" d="M466.898499999999331,241.747100000000501c-30.058599999998478-30.070300000001225-70.048799999998664-46.630900000000111-112.578099999998813-46.630900000000111-42.531299999998737,0-82.509799999999814,16.560599999998885-112.58009999999922,46.630900000000111-30.070299999999406,30.068400000000111-46.638700000001336,70.058599999998478-46.638700000001336,112.578099999998813,0,42.529300000000148,16.56840000000193,82.509800000001633,46.638700000001336,112.589900000000853,30.070299999999406,30.068299999998999,70.048800000000483,46.628899999999703,112.58009999999922,46.628899999999703,42.529300000000148,0,82.519500000000335-16.560600000000704,112.578099999998813-46.628899999999703,30.080100000001039-30.08009999999922,46.628900000001522-70.060600000000704,46.628900000001522-112.589900000000853,0-42.519500000000335-16.548800000000483-82.509699999998702-46.628900000001522-112.578099999998813ZM264.451199999999517,310.456099999999424h-12.951199999999517v87.75h12.951199999999517v7.609400000001187h-22.339799999997922v-102.978500000001077h22.339799999997922v7.619099999999889ZM282.080100000001039,405.815500000000611v-72.730499999999665c0-6.257800000001225-.109300000000076-11.929700000000594-.330100000001039-17.019500000000335-.20889999999963-5.089900000000853-.529199999999037-9.5-.95889999999963-13.228500000001077h13.189400000001115v72.408199999999852c0,2.060499999999593.029299999998329,4.480400000000373.099599999999555,7.269500000000335.060599999998885,2.790999999999258.150400000000445,5.621100000000297.259799999999814,8.5.099599999999555,2.871100000000297.230499999999665,5.621100000000297.380900000000111,8.240200000000186.150299999999334,2.609399999999368.329999999999927,4.800799999999072.548799999998664,6.560600000000704h-13.189499999998588ZM351.589900000000853,348.604499999999462h-12.099599999999555v48.781300000000556h12.099599999999555v8.429700000000594h-36.039099999999962v-8.429700000000594h11.898499999999331v-48.781300000000556h-11.898499999999331v-8.439399999999296h36.039099999999962v8.439399999999296ZM427.859400000001187,398.735399999999572c0,7.25-.640600000000632,13.269500000000335-1.900400000000445,18.060499999999593-1.269500000000335,4.779300000000148-3.040999999999258,8.597700000000259-5.310500000001412,11.449300000000221-2.269499999998516,2.859300000000076-5.009799999999814,4.878899999999703-8.208999999998923,6.050699999999779-3.191399999999703,1.179700000000594-6.740200000000186,1.767600000001039-10.650399999998626,1.767600000001039-1.929700000000594,0-4-.308600000000297-6.209000000000742-.927700000000186-2.210900000000038-.621100000000297-4.220699999999852-1.492200000000594-6.021500000000742-2.611300000000483l4.191399999999703-9.648499999999331c.97860000000037.728499999999258,2.298900000001595,1.337900000000445,3.949300000000221,1.83009999999922,1.660100000000966.5,3.33980000000156.738300000000891,5.048800000000483.738300000000891,2.070299999999406,0,3.910200000000259-.330100000001039,5.541000000001077-.988300000000891,1.628899999999703-.671899999999368,3.009799999999814-1.841800000000148,4.150399999998626-3.511699999999109,1.138699999999517-1.66990000000078,2.009799999999814-3.968800000000556,2.609400000001187-6.888700000001336.599599999997736-2.919899999998961.900399999998626-6.630900000000111.900399999998626-11.130900000000111v-28.329999999998108c0-5.138700000001336-.269599999999627-9.320300000001225-.800800000000891-12.509799999999814-.539099999998143-3.199200000000928-1.349599999997736-5.689500000000407-2.419899999998961-7.470700000001671-1.070299999999406-1.779299999998329-2.410200000000259-2.968799999998737-4.019599999999627-3.568400000000111-1.609300000000076-.60149999999885-3.490200000000186-.900399999998626-5.630800000000818-.900399999998626-2.318400000000111,0-4.58009999999922.548899999999776-6.789099999998143,1.640699999999924-2.209000000000742,1.089799999999741-4.240200000000186,2.509699999998702-6.08980000000156,4.25-1.839899999999034,1.728499999999258-3.470699999999852,3.699199999999109-4.890699999999924,5.888599999998405-1.408199999999852,2.179700000000594-2.45889999999963,4.371100000000297-3.148400000000038,6.560600000000704v37.330100000001039h-11.910200000000259v-39.580100000001039c0-6.349599999999555-.361300000000483-11.720699999999852-1.089799999999741-16.121100000000297-.730499999999665-4.398399999998219-1.441399999999703-7.708999999998923-2.130899999998292-9.949199999999109h11.589899999999034c.259799999999814.689399999999296.509799999999814,1.58009999999922.769499999998516,2.679700000000594.261700000000928,1.089799999999741.490300000001298,2.240200000000186.71100000000115,3.441399999999703.20889999999963,1.199199999999109.410099999999147,2.378899999999703.579999999999927,3.53899999999885l.509799999999814,2.890700000001743c4.119099999999889-4.890700000001743,8.259799999999814-8.420000000001892,12.429700000000594-10.580100000001039,4.160100000000966-2.169899999998961,8.5-3.259799999999814,13-3.259799999999814,3.429700000000594,0,6.470699999999852.568400000000111,9.099599999999555,1.709000000000742,2.640600000000632,1.140599999998813,4.871100000000297,2.939499999998588,6.669899999998961,5.41019999999844,1.800800000000891,2.470700000001671,3.160200000002078,5.660100000000966,4.080100000001039,9.58980000000156.929699999998775,3.929699999998775,1.390600000000632,8.650399999998626,1.390600000000632,14.189499999998588v28.960900000000038ZM466.529300000001967,405.815500000000611h-22.330000000001746v-7.609400000001187h12.939399999999296v-87.75h-12.939399999999296v-7.619099999999889h22.330000000001746v102.978500000001077Z"/><path class="uuid-fccc0980-a027-4eac-aa1d-21c7bff41cbe" d="M626.666076719669945,336.829499999999825v-100.471100000000661h12.090799694560701v89.819300000001022h42.750998920018901v10.651799999999639h-54.841798614579602Z"/><path class="uuid-fccc0980-a027-4eac-aa1d-21c7bff41cbe" d="M703.385774781570944,245.138600000000224c-2.497099936921586,0-4.295899891480076-.597600000000966-5.397474781570054-1.798800000000483-1.104425054181775-1.199199999999109-1.656225040240315-2.756799999999203-1.656225040240315-4.67870000000039v-1.871100000000297c0-1.918499999999767.551799986058541-3.477499999999054,1.656225040240315-4.678199999998469,1.101574890089978-1.198800000000119,2.900374844648468-1.799300000000585,5.397474781570054-1.799300000000585,2.494125218428962,0,4.294025218430761.600500000000466,5.397525218430019,1.799300000000585,1.102499999999054,1.200699999999415,1.65519999999924,2.759699999998702,1.65519999999924,4.678199999998469v1.871100000000297c0,1.921900000001187-.552700000000186,3.479500000001281-1.65519999999924,4.67870000000039-1.103499999999258,1.201199999999517-2.903400000001056,1.798800000000483-5.397525218430019,1.798800000000483ZM697.627974927021569,262.556599999999889h11.515625072977855v74.272899999999936h-11.515625072977855v-74.272899999999936Z"/><path class="uuid-fccc0980-a027-4eac-aa1d-21c7bff41cbe" d="M733.613300000000891,336.829499999999825v-74.272899999999936h11.515699999999924v11.953100000000632h.576100000000224c1.82129999999961-4.17870000000039,4.389699999999721-7.505800000000818,7.700199999999313-9.974600000001374,3.311599999999089-2.469699999999648,7.748100000000704-3.706500000000233,13.314500000000407-3.706500000000233,7.676799999999275,0,13.747099999998682,2.471199999999953,18.209000000000742,7.412600000001476,4.461899999998423,4.943299999998999,6.693299999998999,11.925699999999779,6.693299999998999,20.943799999999101v47.644500000000335h-11.514600000000428v-45.728499999999258c0-13.368600000001607-5.615199999998367-20.052700000000186-16.841800000000148-20.052700000000186-2.302700000000186,0-4.53519999999844.290499999999156-6.693400000000111.865699999998469-2.159099999998944.578100000000632-4.102499999999054,1.443900000002031-5.829999999998108,2.597700000002078-1.726600000001781,1.153800000000047-3.09480000000076,2.620100000000093-4.101600000001781,4.399399999998423-1.007799999999406,1.778800000000047-1.511699999999109,3.871100000000297-1.511699999999109,6.274900000000343v51.643500000000131h-11.515699999999924Z"/><path class="uuid-fccc0980-a027-4eac-aa1d-21c7bff41cbe" d="M874.387800000000425,334.382799999999406c0,10.266600000000835-2.878899999999703,18.328100000000632-8.636800000000221,24.181599999999889-5.757799999999406,5.853000000000975-13.868099999999686,8.781300000000556-24.326099999998405,8.781300000000556-6.045900000000984,0-11.253000000000611-.940500000000611-15.618200000000797-2.818400000000111-4.367200000000594-1.882299999999304-7.988300000000891-4.363300000000891-10.867200000000594-7.447299999999814l6.765600000000632-7.952100000000428c2.494199999999182,2.568300000000818,5.373099999998885,4.54490000000078,8.636799999998402,5.926300000000992,3.260700000002544,1.380799999998999,7.052700000000186,2.070799999999508,11.371100000000297,2.070799999999508,6.715800000001764,0,11.921800000000076-1.855499999999665,15.617100000001301-5.563500000000204,3.693399999998292-3.713900000000649,5.541999999999462-9.183600000000297,5.541999999999462-16.411599999999453v-10.273999999999432h-.575199999999313c-2.208900000001449,4.561099999998987-5.087800000001153,7.979499999999462-8.636700000000928,10.259799999999814-3.551699999999983,2.281199999999444-7.916999999999462,3.421399999999267-13.099599999999555,3.421399999999267-4.605499999999665,0-8.779300000000148-.91359999999986-12.522399999999834-2.73489999999947-3.742200000000594-1.822200000000521-6.909200000000055-4.413100000001577-9.5-7.772400000001653-2.590900000001056-3.358399999999165-4.606499999999869-7.435599999998885-6.045899999999165-12.235399999999572-1.439500000000407-4.79739999999947-2.158200000001671-10.170899999999165-2.158200000001671-16.122099999998682,0-5.948200000000725.718700000001263-11.321700000000419,2.158200000001671-16.121100000000297,1.439399999999296-4.797300000000178,3.454999999998108-8.875400000000809,6.045899999999165-12.235300000000279,2.590799999999945-3.357899999999063,5.757799999999406-5.948700000000827,9.5-7.772499999999127,3.743099999999686-1.822200000000521,7.916900000000169-2.734800000001997,12.522399999999834-2.734800000001997,5.182600000000093,0,9.619200000001001,1.117600000001403,13.315399999999499,3.34860000000117,3.692399999999907,2.233400000000984,6.499100000000908,5.676799999999275,8.420900000000984,10.332500000000437h.575199999999313v-11.953100000000632h11.515699999999924v71.826199999999517ZM844.015699999999924,328.336900000000242c2.591800000000148,0,5.038100000001577-.337400000000343,7.341800000000148-1.01220000000103,2.302700000000186-.674799999998868,4.292999999999665-1.664600000000064,5.972600000000966-2.966300000000047,1.677799999999479-1.299899999998161,3.023499999999331-2.89259999999922,4.031300000000556-4.772499999999127,1.006799999999203-1.880400000000009,1.510699999998906-4.075199999999313,1.510699999998906-6.583000000000538v-27.632299999999304c0-2.024000000001251-.481400000000576-3.929200000000492-1.439399999999296-5.715400000000955-.960000000000946-1.783199999999852-2.30370000000039-3.301199999999881-4.030300000000352-4.556099999999788-1.727499999999054-1.252500000000509-3.742200000000594-2.240700000000288-6.04490000000078-2.964399999998932-2.303699999998571-.724099999999453-4.75-1.08640000000014-7.341800000000148-1.08640000000014-6.527399999999034,0-11.708999999998923,2.073199999998906-15.544899999998961,6.221199999999953-3.839900000000853,4.147399999999834-5.757800000001225,9.499499999999898-5.757800000001225,16.058100000000195v12.729999999999563c0,6.558600000000297,1.917900000000373,11.911099999999351,5.757800000001225,16.058600000000297,3.835900000000038,4.146899999999732,9.017499999999927,6.220699999999852,15.544899999998961,6.220699999999852Z"/><path class="uuid-fccc0980-a027-4eac-aa1d-21c7bff41cbe" d="M944.629000000000815,324.875900000000911h-.576199999999517c-.768599999999424,1.711499999999432-1.704100000000835,3.398499999999331-2.806599999999889,5.060599999998885-1.10360000000037,1.662099999999555-2.470700000001671,3.134700000000521-4.101600000001781,4.416500000001179-1.632799999999406,1.282199999999648-3.598599999999351,2.303699999998571-5.902299999997922,3.063899999999194-2.302800000001298.759799999999814-4.990300000001298,1.140199999999822-8.060600000000704,1.140199999999822-7.677700000000186,0-13.771500000000742-2.469699999999648-18.280300000000352-7.41359999999986-4.511700000000928-4.940899999999601-6.765600000000632-11.921900000001187-6.765600000000632-20.942900000000009v-47.644000000000233h11.515600000000632v45.727499999999054c0,13.368700000000899,5.661200000000463,20.052800000001298,16.985399999999572,20.052800000001298,2.302700000000186,0,4.534200000000055-.287100000001374,6.693300000000818-.86620000000039,2.159200000000055-.575199999999313,4.077199999999721-1.440500000000611,5.757899999998699-2.594799999998941,1.677700000000186-1.154300000001967,3.022400000001653-2.620100000000093,4.029300000001967-4.399400000002061,1.007799999999406-1.778299999998126,1.511699999999109-3.919899999998961,1.511699999999109-6.421399999999267v-51.498499999999694h11.515599999998813v74.272899999999936h-11.515599999998813v-11.953599999998914Z"/><path class="uuid-fccc0980-a027-4eac-aa1d-21c7bff41cbe" d="M986.371200000001409,245.138600000000224c-2.496100000000297,0-4.295000000001892-.597600000000966-5.397500000000946-1.798800000000483-1.104499999999462-1.199199999999109-1.655300000000352-2.756799999999203-1.655300000000352-4.67870000000039v-1.871100000000297c0-1.918499999999767.550800000000891-3.477499999999054,1.655300000000352-4.678199999998469,1.102499999999054-1.198800000000119,2.901400000000649-1.799300000000585,5.397500000000946-1.799300000000585,2.494099999999889,0,4.293900000000576.600500000000466,5.398399999998219,1.799300000000585,1.101600000001781,1.200699999999415,1.654300000001967,2.759699999998702,1.654300000001967,4.678199999998469v1.871100000000297c0,1.921900000001187-.552700000000186,3.479500000001281-1.654300000001967,4.67870000000039-1.104499999997643,1.201199999999517-2.904299999998329,1.798800000000483-5.398399999998219,1.798800000000483ZM980.613300000000891,262.556599999999889h11.515699999999924v74.272899999999936h-11.515699999999924v-74.272899999999936Z"/><path class="uuid-fccc0980-a027-4eac-aa1d-21c7bff41cbe" d="M1038.910200000000259,338.557099999999991c-6.909200000000055,0-12.691399999999703-1.319800000001123-17.344699999999648-3.95850000000064-4.655300000000352-2.638199999999415-8.66110000000117-6.165099999998347-12.019500000000335-10.58009999999922l8.204100000000835-6.621100000000297c2.878899999999703,3.648000000001048,6.093699999999444,6.45509999999922,9.644499999998516,8.41990000000078,3.548800000000483,1.968799999998737,7.676800000001094,2.951699999999619,12.378899999999703,2.951699999999619,4.894500000002154,0,8.709000000000742-1.055200000000696,11.443400000000111-3.166500000001179,2.735300000000279-2.10989999999947,4.102500000000873-5.085899999998219,4.102500000000873-8.924799999998868,0-2.878899999999703-.935499999999593-5.348200000000361-2.806599999999889-7.413099999999758-1.872100000000501-2.0625-5.253899999999703-3.476599999999962-10.147499999999127-4.246100000000297l-5.90230000000156-.863799999999173c-3.45509999999922-.479000000001179-6.621100000000297-1.223100000001068-9.5-2.230900000000474s-5.397499999999127-2.350599999999758-7.556699999999182-4.030300000000352c-2.159200000000055-1.677700000000186-3.839799999999741-3.76510000000053-5.038099999999758-6.261699999999109-1.201100000000224-2.494100000001708-1.799800000000687-5.469700000001467-1.799800000000687-8.923800000000483,0-3.646500000000742.66990000000078-6.837400000000343,2.015699999999924-9.572799999999916,1.342700000001059-2.734900000001289,3.189399999999296-5.01220000000103,5.541900000000169-6.836900000000242,2.350600000001577-1.821800000001531,5.15730000000076-3.189900000001217,8.420000000000073-4.102100000000064,3.261700000000928-.91110000000117,6.765600000000632-1.367600000001403,10.508800000001429-1.367600000001403,6.044899999998961,0,11.105399999998554,1.05710000000181,15.185499999999593,3.166500000001179,4.077099999998609,2.112299999998868,7.65139999999883,5.038099999999758,10.723599999999351,8.78019999999924l-7.629800000000614,6.909200000000055c-1.632900000000518-2.302699999998367-4.029299999998329-4.390099999998711-7.19629999999961-6.260699999998906-3.166999999999462-1.871600000000399-7.149499999999534-2.807600000000093-11.947299999999814-2.807600000000093-4.799800000000687,0-8.420900000000984,1.032199999999648-10.868200000000797,3.09519999999975-2.44629999999961,2.063899999999194-3.669899999998961,4.871600000000399-3.669899999998961,8.420400000000882,0,3.648399999998219,1.223599999999351,6.286099999999351,3.669899999998961,7.91649999999936,2.447299999999814,1.633299999999508,5.974600000001374,2.831500000000233,10.580100000001039,3.599099999999453l5.757799999999406.863300000000891c8.252000000000407,1.247999999999593,14.106499999999869,3.623499999999694,17.560600000000704,7.125,3.454999999999927,3.504899999999907,5.182600000000093,8.085399999999936,5.182600000000093,13.746100000000297,0,7.197299999999814-2.447300000001633,12.860799999998562-7.340799999999945,16.985799999998562-4.894599999999627,4.127500000000509-11.613300000000891,6.189500000000407-20.152400000000853,6.189500000000407Z"/><path class="uuid-fccc0980-a027-4eac-aa1d-21c7bff41cbe" d="M1102.101600000001781,336.829499999999825c-4.029300000001967,0-7.077100000002247-1.124499999999898-9.139600000002247-3.373499999999694-2.064499999998588-2.248999999999796-3.094699999997829-5.195299999999406-3.094699999997829-8.834500000000844v-51.846199999999953h-12.235400000001391v-10.218699999999444h6.909200000000055c2.494099999999889,0,4.197200000000521-.504899999999907,5.110300000000279-1.512699999999313.911200000000463-1.006800000001022,1.367199999998775-2.756800000001022,1.367199999998775-5.252900000001318v-13.819400000000314h10.364300000001094v20.585000000000946h16.265599999998813v10.218699999999444h-16.265599999998813v53.835000000000946h15.113300000000891v10.219199999999546h-14.394599999999627Z"/><path class="uuid-fccc0980-a027-4eac-aa1d-21c7bff41cbe" d="M1141.973700000000463,245.138600000000224c-2.496099999998478,0-4.295899999999165-.597600000000966-5.397500000000946-1.798800000000483-1.104499999997643-1.199199999999109-1.65519999999924-2.756799999999203-1.65519999999924-4.67870000000039v-1.871100000000297c0-1.918499999999767.550700000001598-3.477499999999054,1.65519999999924-4.678199999998469,1.101600000001781-1.198800000000119,2.901400000002468-1.799300000000585,5.397500000000946-1.799300000000585,2.495100000000093,0,4.293900000000576.600500000000466,5.397500000000946,1.799300000000585,1.102499999999054,1.200699999999415,1.656199999999444,2.759699999998702,1.656199999999444,4.678199999998469v1.871100000000297c0,1.921900000001187-.55370000000039,3.479500000001281-1.656199999999444,4.67870000000039-1.10360000000037,1.201199999999517-2.902400000000853,1.798800000000483-5.397500000000946,1.798800000000483ZM1136.215900000001056,262.556599999999889h11.515600000000632v74.272899999999936h-11.515600000000632v-74.272899999999936Z"/><path class="uuid-fccc0980-a027-4eac-aa1d-21c7bff41cbe" d="M1199.837999999999738,338.557099999999991c-5.181699999999182,0-9.836999999999534-.91359999999986-13.961999999999534-2.73489999999947-4.126899999999296-1.822200000000521-7.606400000000576-4.413100000001577-10.435499999999593-7.772400000001653-2.832000000000335-3.358399999999165-4.99120000000039-7.435599999998885-6.477500000000873-12.235399999999572-1.488299999999072-4.79739999999947-2.230499999999665-10.170899999999165-2.230499999999665-16.122099999998682,0-5.948200000000725.742200000000594-11.321700000000419,2.230499999999665-16.121100000000297,1.486300000000483-4.797300000000178,3.645500000000538-8.875400000000809,6.477500000000873-12.235300000000279,2.829099999999016-3.357899999999063,6.308600000000297-5.948700000000827,10.435499999999593-7.772499999999127,4.125-1.822200000000521,8.780300000000352-2.734800000001997,13.961999999999534-2.734800000001997,7.388600000002043,0,13.315400000001318,1.607900000000882,17.77730000000156,4.821700000000419,4.461899999998423,3.216400000001158,7.794899999998961,7.413100000001577,10.003899999999703,12.59480000000076l-9.644500000000335,4.894500000000335c-1.343800000000556-3.837400000000343-3.550799999999072-6.813000000000102-6.621100000000297-8.924800000000687-3.072299999999814-2.109399999999368-6.909200000000055-3.16649999999936-11.515600000000632-3.16649999999936-3.454099999999016,0-6.476599999998143.553199999998469-9.068400000000111,1.655299999998533-2.589799999997922,1.104000000001179-4.75,2.64010000000053-6.476599999998143,4.606400000000576-1.727500000000873,1.96730000000025-3.023400000001857,4.318400000000111-3.886700000000928,7.052700000000186-.863299999999072,2.73489999999947-1.295899999999165,5.735899999999674-1.295899999999165,8.995699999999488v12.666900000000169c0,6.527900000000955,1.75,11.876000000000204,5.254899999999907,16.050300000000789,3.501000000000204,4.174399999999878,8.658199999998033,6.261300000000119,15.47269999999844,6.261300000000119,9.306599999999889,0,16.025300000001153-4.318400000000111,20.15230000000156-12.95509999999922l8.348599999999351,5.614199999999983c-2.399400000000242,5.375499999998283-5.973599999999351,9.644599999999627-10.723599999999351,12.811099999998987s-10.675800000000891,4.75-17.77730000000156,4.75Z"/><path class="uuid-fccc0980-a027-4eac-aa1d-21c7bff41cbe" d="M1266.914100000001781,338.557099999999991c-6.909200000001874,0-12.691400000001522-1.319800000001123-17.344700000001467-3.95850000000064-4.655299999998533-2.638199999999415-8.661099999999351-6.165099999998347-12.019499999998516-10.58009999999922l8.204099999999016-6.621100000000297c2.878899999999703,3.648000000001048,6.093699999999444,6.45509999999922,9.644499999998516,8.41990000000078,3.548800000000483,1.968799999998737,7.675800000000891,2.951699999999619,12.378900000001522,2.951699999999619,4.894500000000335,0,8.709000000000742-1.055200000000696,11.443400000000111-3.166500000001179,2.73529999999846-2.10989999999947,4.102499999999054-5.085899999998219,4.102499999999054-8.924799999998868,0-2.878899999999703-.935499999999593-5.348200000000361-2.806599999999889-7.413099999999758-1.872100000000501-2.0625-5.253899999999703-3.476599999999962-10.147499999999127-4.246100000000297l-5.90230000000156-.863799999999173c-3.45509999999922-.479000000001179-6.621099999998478-1.223100000001068-9.5-2.230900000000474-2.878899999999703-1.007800000001225-5.397499999999127-2.350599999999758-7.556699999999182-4.030300000000352-2.159200000000055-1.677700000000186-3.839799999999741-3.76510000000053-5.038099999999758-6.261699999999109-1.201100000000224-2.494100000001708-1.799800000000687-5.469700000001467-1.799800000000687-8.923800000000483,0-3.646500000000742.670000000001892-6.837400000000343,2.015699999999924-9.572799999999916,1.342700000001059-2.734900000001289,3.189400000001115-5.01220000000103,5.541900000000169-6.836900000000242,2.350600000001577-1.821800000001531,5.15730000000076-3.189900000001217,8.420000000001892-4.102100000000064,3.260699999998906-.91110000000117,6.765599999998813-1.367600000001403,10.50879999999961-1.367600000001403,6.044899999998961,0,11.105400000000373,1.05710000000181,15.185499999999593,3.166500000001179,4.077199999999721,2.112299999998868,7.65139999999883,5.038099999999758,10.723599999999351,8.78019999999924l-7.629800000000614,6.909200000000055c-1.632899999998699-2.302699999998367-4.029299999998329-4.390099999998711-7.197299999999814-6.260699999998906-3.165999999999258-1.871600000000399-7.148399999998219-2.807600000000093-11.94629999999961-2.807600000000093-4.799800000000687,0-8.420900000000984,1.032199999999648-10.868200000000797,3.09519999999975-2.44629999999961,2.063899999999194-3.669899999998961,4.871600000000399-3.669899999998961,8.420400000000882,0,3.648399999998219,1.223599999999351,6.286099999999351,3.669899999998961,7.91649999999936,2.447299999999814,1.633299999999508,5.974600000001374,2.831500000000233,10.580100000001039,3.599099999999453l5.757800000001225.863300000000891c8.251999999998588,1.247999999999593,14.10649999999805,3.623499999999694,17.560599999998885,7.125,3.455100000001039,3.504899999999907,5.181599999999889,8.085399999999936,5.181599999999889,13.746100000000297,0,7.197299999999814-2.44629999999961,12.860799999998562-7.339799999999741,16.985799999998562-4.894599999999627,4.127500000000509-11.613300000000891,6.189500000000407-20.152399999999034,6.189500000000407Z"/><path class="uuid-fccc0980-a027-4eac-aa1d-21c7bff41cbe" d="M1378.036200000000463,338.557099999999991c-8.157199999999648,0-15.114299999999275-1.561099999998987-20.872099999998682-4.678200000000288-5.757800000001225-3.117199999998775-10.651300000001356-7.413099999999758-14.681600000001708-12.882899999998699l8.923800000000483-7.485300000000279c3.549799999998868,4.703099999998813,7.485399999999572,8.276899999998932,11.80370000000039,10.723599999999351,4.318400000000111,2.447299999999814,9.403299999999945,3.670899999999165,15.257799999999406,3.670899999999165,7.197300000001633,0,12.689500000000407-1.727499999999054,16.481499999999869-5.181599999999889,3.789000000000669-3.45509999999922,5.685499999999593-8.061499999999796,5.685499999999593-13.818899999998393,0-4.796800000000076-1.439399999999296-8.492100000001301-4.318299999998999-11.082500000000437-2.878899999999703-2.591800000000148-7.628899999999703-4.654300000000148-14.25-6.190399999999499l-8.20509999999922-1.871100000000297c-9.211900000002061-2.110400000001391-16.242200000000594-5.301300000000992-21.086900000002061-9.571300000001429-4.846699999998236-4.269500000000335-7.269599999999627-10.292999999999665-7.269599999999627-18.065899999999601,0-4.412599999999657.814500000000407-8.348200000000361,2.447299999999814-11.802700000000186,1.630900000000111-3.454599999999118,3.909200000001874-6.33350000000064,6.836900000002061-8.636300000000119,2.925799999999072-2.303699999998571,6.42779999999766-4.053699999998571,10.507799999999406-5.253899999999703,4.078199999999924-1.199199999999109,8.564500000000407-1.799799999998868,13.458999999998923-1.799799999998868,7.579100000000835,0,14.081099999999424,1.39259999999922,19.503899999999703,4.174799999998868,5.420000000001892,2.784200000000055,10.003899999999703,6.861300000000483,13.746100000000297,12.235399999999572l-9.068299999998999,6.620600000000195c-2.784200000000055-3.837399999998524-6.14259999999922-6.85989999999947-10.075199999999313-9.068400000000111-3.936600000000908-2.206499999998414-8.830100000001039-3.310499999999593-14.682600000000093-3.310499999999593-6.429700000000594,0-11.492200000000594,1.367200000000594-15.185600000000704,4.102000000000771-3.695299999999406,2.735399999999572-5.542000000001281,6.837899999998626-5.542000000001281,12.307199999999284,0,4.800199999999677,1.558600000000297,8.420799999999872,4.67870000000039,10.867599999999584,3.117200000000594,2.446799999999712,7.843800000000556,4.390699999999924,14.177800000001298,5.830100000001039l8.204999999998108,1.871100000000297c9.882900000000518,2.208499999998821,17.03230000000076,5.566399999999703,21.447299999999814,10.075699999999415,4.412100000001374,4.511199999999008,6.621100000000297,10.507799999999406,6.621100000000297,17.992700000000696,0,4.606399999998757-.790999999999258,8.78019999999924-2.375,12.523399999998219-1.583999999998923,3.742200000000594-3.864299999999275,6.909200000001874-6.836899999998423,9.5-2.975600000001577,2.590800000001764-6.59860000000117,4.606400000000576-10.868200000000797,6.045400000000882-4.270499999998719,1.439500000000407-9.092799999998533,2.159200000000055-14.465799999999945,2.159200000000055Z"/><path class="uuid-fccc0980-a027-4eac-aa1d-21c7bff41cbe" d="M1460.370200000001205,338.557099999999991c-4.99120000000039,0-9.549800000000687-.91359999999986-13.674800000000687-2.73489999999947-4.127000000000407-1.822200000000521-7.654300000000148-4.438000000000102-10.58009999999922-7.84519999999975-2.927700000000186-3.40480000000025-5.206099999999424-7.484400000001187-6.836900000000242-12.234900000001289-1.632800000001225-4.75-2.446300000001429-10.098599999999351-2.446300000001429-16.049799999998868,0-5.851500000000669.813500000000204-11.177700000000186,2.446300000001429-15.977500000000873,1.630800000000818-4.796899999999368,3.909200000000055-8.899400000000242,6.836900000000242-12.306599999999889,2.925799999999072-3.405300000000352,6.453099999998813-6.02100000000064,10.58009999999922-7.844799999998941,4.125-1.822200000000521,8.683600000000297-2.734800000001997,13.674800000000687-2.734800000001997,4.988299999999072,0,9.522399999999834.912600000001476,13.602499999999054,2.734800000001997,4.07720000000154,1.8237999999983,7.603499999999258,4.439499999998588,10.579100000000835,7.844799999998941,2.973699999998644,3.407199999999648,5.27639999999883,7.509700000000521,6.909199999998236,12.306599999999889,1.630900000000111,4.799800000000687,2.447300000001633,10.126000000000204,2.447300000001633,15.977500000000873,0,5.951199999999517-.816400000001522,11.299799999998868-2.447300000001633,16.049799999998868-1.632799999999406,4.750500000000102-3.935499999999593,8.830100000001039-6.909199999998236,12.234900000001289-2.975600000001577,3.407199999999648-6.501899999999296,6.022999999999229-10.579100000000835,7.84519999999975-4.08009999999922,1.82129999999961-8.614199999999983,2.73489999999947-13.602499999999054,2.73489999999947ZM1460.370200000001205,328.336900000000242c6.236300000000483,0,11.32129999999961-1.917999999999665,15.257799999999406-5.757799999999406,3.933600000000297-3.836500000001251,5.90139999999883-9.690500000000611,5.90139999999883-17.560600000000704v-10.651799999999639c0-7.867200000000594-1.967799999998533-13.721700000000055-5.90139999999883-17.561100000000806-3.936499999999796-3.83640000000014-9.021499999998923-5.757299999999304-15.257799999999406-5.757299999999304-6.239300000001094,0-11.324200000000928,1.920899999999165-15.257799999999406,5.757299999999304-3.936600000000908,3.839400000000751-5.901400000002468,9.693900000000212-5.901400000002468,17.561100000000806v10.651799999999639c0,7.870100000000093,1.96480000000156,13.724099999999453,5.901400000002468,17.560600000000704,3.933599999998478,3.839799999999741,9.018499999998312,5.757799999999406,15.257799999999406,5.757799999999406Z"/><path class="uuid-fccc0980-a027-4eac-aa1d-21c7bff41cbe" d="M1540.545000000001892,338.557099999999991c-5.181700000001001,0-9.836900000002061-.91359999999986-13.961900000002061-2.73489999999947-4.127000000000407-1.822200000000521-7.60649999999805-4.413100000001577-10.436499999999796-7.772400000001653-2.831099999999424-3.358399999999165-4.990299999999479-7.435599999998885-6.476599999998143-12.235399999999572-1.489300000001094-4.79739999999947-2.231500000001688-10.170899999999165-2.231500000001688-16.122099999998682,0-5.948200000000725.742200000000594-11.321700000000419,2.231500000001688-16.121100000000297,1.486299999998664-4.797300000000178,3.645499999998719-8.875400000000809,6.476599999998143-12.235300000000279,2.830000000001746-3.357899999999063,6.309499999999389-5.948700000000827,10.436499999999796-7.772499999999127,4.125-1.822200000000521,8.780200000001059-2.734800000001997,13.961900000002061-2.734800000001997,7.388699999999517,0,13.314399999999296,1.607900000000882,17.777299999997922,4.821700000000419,4.461900000002061,3.216400000001158,7.795000000001892,7.413100000001577,10.003899999999703,12.59480000000076l-9.644499999998516,4.894500000000335c-1.344700000001467-3.837400000000343-3.550800000000891-6.813000000000102-6.621100000000297-8.924800000000687-3.072299999999814-2.109399999999368-6.909200000000055-3.16649999999936-11.515599999998813-3.16649999999936-3.455100000001039,0-6.476600000001781.553199999998469-9.068400000000111,1.655299999998533-2.590800000001764,1.104000000001179-4.75,2.64010000000053-6.476500000000669,4.606400000000576-1.727600000000166,1.96730000000025-3.023499999999331,4.318400000000111-3.886800000000221,7.052700000000186-.863199999999779,2.73489999999947-1.295900000000984,5.735899999999674-1.295900000000984,8.995699999999488v12.666900000000169c0,6.527900000000955,1.75,11.876000000000204,5.254000000000815,16.050300000000789,3.501899999999296,4.174399999999878,8.659100000000763,6.261300000000119,15.47360000000117,6.261300000000119,9.306599999999889,0,16.025399999998626-4.318400000000111,20.152299999997922-12.95509999999922l8.348700000000463,5.614199999999983c-2.399400000000242,5.375499999998283-5.973700000000463,9.644599999999627-10.723700000000463,12.811099999998987s-10.676699999999983,4.75-17.777299999997922,4.75Z"/><path class="uuid-fccc0980-a027-4eac-aa1d-21c7bff41cbe" d="M1591.067399999999907,245.138600000000224c-2.496999999999389,0-4.295799999999872-.597600000000966-5.397399999998015-1.798800000000483-1.104500000001281-1.199199999999109-1.655300000002171-2.756799999999203-1.655300000002171-4.67870000000039v-1.871100000000297c0-1.918499999999767.550800000000891-3.477499999999054,1.655300000002171-4.678199999998469,1.101599999998143-1.198800000000119,2.900399999998626-1.799300000000585,5.397399999998015-1.799300000000585,2.494200000001001,0,4.294000000001688.600500000000466,5.397500000000946,1.799300000000585,1.102499999999054,1.200699999999415,1.656300000000556,2.759699999998702,1.656300000000556,4.678199999998469v1.871100000000297c0,1.921900000001187-.553800000001502,3.479500000001281-1.656300000000556,4.67870000000039-1.103499999999258,1.201199999999517-2.903299999999945,1.798800000000483-5.397500000000946,1.798800000000483ZM1585.309600000000501,262.556599999999889h11.515699999999924v74.272899999999936h-11.515699999999924v-74.272899999999936Z"/><path class="uuid-fccc0980-a027-4eac-aa1d-21c7bff41cbe" d="M1649.21980000000076,338.557099999999991c-5.086900000000242,0-9.668999999999869-.91359999999986-13.746100000000297-2.73489999999947-4.080100000001039-1.822200000000521-7.582000000000335-4.438000000000102-10.507799999999406-7.84519999999975-2.92870000000039-3.40480000000025-5.181699999999182-7.484400000001187-6.765600000000632-12.234900000001289-1.582999999998719-4.75-2.374100000000908-10.098599999999351-2.374100000000908-16.049799999998868,0-5.851500000000669.791100000002189-11.177700000000186,2.374100000000908-15.977500000000873,1.583900000001449-4.796899999999368,3.836900000000242-8.899400000000242,6.765600000000632-12.306599999999889,2.925799999999072-3.405300000000352,6.427699999998367-6.02100000000064,10.507799999999406-7.844799999998941,4.077100000000428-1.822200000000521,8.659200000000055-2.734800000001997,13.746100000000297-2.734800000001997,4.989299999999275,0,9.451199999999517.908200000001671,13.386700000000928,2.725600000001577,3.933600000000297,1.817299999998795,7.291999999997643,4.329499999999825,10.076199999999517,7.532199999999648,2.782199999999648,3.203100000000632,4.916999999999462,7.003899999999703,6.405299999998533,11.402799999999843,1.486300000000483,4.399400000000242,2.231400000000576,9.228000000000975,2.231400000000576,14.486300000000483v5.451699999999619h-53.403299999999945v3.45509999999922c0,3.166500000001179.503900000001522,6.117200000000594,1.511700000000928,8.852000000000771,1.007799999999406,2.73489999999947,2.447299999999814,5.110399999999572,4.318400000000111,7.125,1.871100000000297,2.015699999999924,4.173800000000483,3.598700000000463,6.909099999998944,4.751000000000204,2.735399999999572,1.151400000000649,5.830100000001039,1.726599999999962,9.284200000000055,1.726599999999962,4.701199999999517,0,8.802800000001298-1.102600000000166,12.307600000000093-3.310600000000704,3.501000000000204-2.206000000000131,6.211999999999534-5.372999999999593,8.131900000000314-9.5l8.20509999999922,5.939500000000407c-2.399499999999534,5.119099999999889-6.14259999999922,9.246100000000297-11.227599999998347,12.38379999999961-5.086900000002061,3.137699999999313-11.132800000001225,4.707500000000437-18.136700000000928,4.707500000000437ZM1649.21980000000076,270.472599999999147c-3.166999999999462,0-6.044899999998961.548800000000483-8.635700000000725,1.646500000000742-2.591799999998329,1.097700000000259-4.822299999999814,2.647500000000946-6.693400000000111,4.648400000000038-1.871100000000297,2.002000000000407-3.335899999998219,4.363300000000891-4.390599999998813,7.081099999999424-1.056700000001001,2.718700000001263-1.584000000000742,5.698200000000725-1.584000000000742,8.941399999999703v1.001000000000204h41.023400000000038v-1.574699999999211c0-6.580599999999322-1.798800000000483-11.847700000000259-5.397399999999834-15.806200000000899-3.598700000000463-3.957999999998719-8.373099999998885-5.9375-14.322299999999814-5.9375Z"/><path class="uuid-fccc0980-a027-4eac-aa1d-21c7bff41cbe" d="M1716.72860000000037,336.829499999999825c-4.031300000000556,0-7.078100000000632-1.124499999999898-9.140600000000632-3.373499999999694-2.064500000000407-2.248999999999796-3.094799999998941-5.195299999999406-3.094799999998941-8.834500000000844v-51.846199999999953h-12.235300000000279v-10.218699999999444h6.909200000000055c2.494099999999889,0,4.197200000000521-.504899999999907,5.110300000000279-1.512699999999313.910200000000259-1.006800000001022,1.367199999998775-2.756800000001022,1.367199999998775-5.252900000001318v-13.819400000000314h10.363300000000891v20.585000000000946h16.265599999998813v10.218699999999444h-16.265599999998813v53.835000000000946h15.114199999999983v10.219199999999546h-14.393500000000131Z"/><path class="uuid-fccc0980-a027-4eac-aa1d-21c7bff41cbe" d="M1796.615300000001298,262.556599999999889h11.372100000000501l-33.251000000000204,91.545899999999165c-.863300000000891,2.207000000000335-1.727500000000873,4.052700000000186-2.590800000001764,5.541500000001179-.864299999999275,1.486800000000585-1.920899999999165,2.66359999999986-3.166999999999462,3.526899999998932-1.248099999998885.864199999999983-2.806699999999182,1.487300000000687-4.677799999999479,1.871000000001004-1.870999999999185.382400000000416-4.15230000000156.576199999999517-6.837800000001153.576199999999517h-5.90139999999883v-10.219699999999648h11.659200000000055l5.614199999999983-15.808600000000297-27.781199999999444-77.033199999999852h11.515599999998813l17.84860000000117,50.425799999999072,3.45509999999922,12.06880000000092h.718799999998737l4.031200000001263-12.06880000000092,17.992200000000594-50.425799999999072Z"/><path class="uuid-fccc0980-a027-4eac-aa1d-21c7bff41cbe" d="M654.682664062500407,477.748084374999962l-3.6103515625-11.4755859375h-15.98828125l-3.5458984375,11.4755859375h-8.638671875l15.0859375-44.9990234375h10.5732421875l14.9560546875,44.9990234375h-8.83203125ZM643.207078125000407,440.485389062499962h-.322265625l-5.7373046875,18.5029296875h11.8623046875l-5.802734375-18.5029296875Z"/><path class="uuid-fccc0980-a027-4eac-aa1d-21c7bff41cbe" d="M669.643601562500407,477.748084374999962v-33.65234375h8.251953125v6.962890625h.322265625c.837890625-3.546875,3.5458984375-6.962890625,8.896484375-6.962890625h1.8056640625v7.80078125h-2.5791015625c-5.5439453125,0-8.4453125,1.546875-8.4453125,5.2216796875v20.6298828125h-8.251953125Z"/><path class="uuid-fccc0980-a027-4eac-aa1d-21c7bff41cbe" d="M697.044968750000407,469.173865624999962v-18.501953125h-4.96484375v-6.576171875h2.5791015625c2.4501953125,0,3.2236328125-1.16015625,3.2236328125-3.4814453125v-5.7373046875h7.4140625v9.21875h6.8974609375v6.576171875h-6.8974609375v20.5h6.3818359375v6.576171875h-5.9306640625c-5.673828125,0-8.703125-3.0947265625-8.703125-8.57421875Z"/><path class="uuid-fccc0980-a027-4eac-aa1d-21c7bff41cbe" d="M716.451218750000407,472.332068749999962l5.029296875-4.8984375c2.44921875,2.8359375,5.4150390625,4.576171875,9.21875,4.576171875,3.9326171875,0,5.6083984375-1.482421875,5.6083984375-3.8671875,0-1.9345703125-1.16015625-3.1591796875-4.1259765625-3.5458984375l-3.3525390625-.4521484375c-7.2197265625-.90234375-11.216796875-4.060546875-11.216796875-10.185546875,0-6.51171875,5.0927734375-10.63671875,12.7646484375-10.63671875,6.5751953125,0,9.927734375,1.93359375,13.1513671875,5.2861328125l-4.8349609375,4.8349609375c-1.9345703125-2.0625-4.7705078125-3.6103515625-8.05859375-3.6103515625-3.5458984375,0-5.0927734375,1.4189453125-5.0927734375,3.4814453125,0,2.255859375,1.224609375,3.2880859375,4.3837890625,3.8037109375l3.4169921875.451171875c7.3486328125,1.0322265625,10.89453125,4.3193359375,10.89453125,9.9287109375,0,6.5107421875-5.4794921875,11.0234375-13.8603515625,11.0234375-6.3828125,0-10.5732421875-2.3203125-13.92578125-6.189453125Z"/><path class="uuid-fccc0980-a027-4eac-aa1d-21c7bff41cbe" d="M795.107468750000407,477.748084374999962l-3.6103515625-11.4755859375h-15.98828125l-3.5458984375,11.4755859375h-8.638671875l15.0859375-44.9990234375h10.5732421875l14.9560546875,44.9990234375h-8.83203125ZM783.631882812500407,440.485389062499962h-.322265625l-5.7373046875,18.5029296875h11.8623046875l-5.802734375-18.5029296875Z"/><path class="uuid-fccc0980-a027-4eac-aa1d-21c7bff41cbe" d="M807.167039062500407,472.332068749999962l5.029296875-4.8984375c2.44921875,2.8359375,5.4150390625,4.576171875,9.21875,4.576171875,3.9326171875,0,5.6083984375-1.482421875,5.6083984375-3.8671875,0-1.9345703125-1.16015625-3.1591796875-4.1259765625-3.5458984375l-3.3525390625-.4521484375c-7.2197265625-.90234375-11.216796875-4.060546875-11.216796875-10.185546875,0-6.51171875,5.0927734375-10.63671875,12.7646484375-10.63671875,6.5751953125,0,9.927734375,1.93359375,13.1513671875,5.2861328125l-4.8349609375,4.8349609375c-1.9345703125-2.0625-4.7705078125-3.6103515625-8.05859375-3.6103515625-3.5458984375,0-5.0927734375,1.4189453125-5.0927734375,3.4814453125,0,2.255859375,1.224609375,3.2880859375,4.3837890625,3.8037109375l3.4169921875.451171875c7.3486328125,1.0322265625,10.89453125,4.3193359375,10.89453125,9.9287109375,0,6.5107421875-5.4794921875,11.0234375-13.8603515625,11.0234375-6.3828125,0-10.5732421875-2.3203125-13.92578125-6.189453125Z"/><path class="uuid-fccc0980-a027-4eac-aa1d-21c7bff41cbe" d="M838.888718750000407,472.332068749999962l5.029296875-4.8984375c2.44921875,2.8359375,5.4150390625,4.576171875,9.21875,4.576171875,3.9326171875,0,5.6083984375-1.482421875,5.6083984375-3.8671875,0-1.9345703125-1.16015625-3.1591796875-4.1259765625-3.5458984375l-3.3525390625-.4521484375c-7.2197265625-.90234375-11.216796875-4.060546875-11.216796875-10.185546875,0-6.51171875,5.0927734375-10.63671875,12.7646484375-10.63671875,6.5751953125,0,9.927734375,1.93359375,13.1513671875,5.2861328125l-4.8349609375,4.8349609375c-1.9345703125-2.0625-4.7705078125-3.6103515625-8.05859375-3.6103515625-3.5458984375,0-5.0927734375,1.4189453125-5.0927734375,3.4814453125,0,2.255859375,1.224609375,3.2880859375,4.3837890625,3.8037109375l3.4169921875.451171875c7.3486328125,1.0322265625,10.89453125,4.3193359375,10.89453125,9.9287109375,0,6.5107421875-5.4794921875,11.0234375-13.8603515625,11.0234375-6.3828125,0-10.5732421875-2.3203125-13.92578125-6.189453125Z"/><path class="uuid-fccc0980-a027-4eac-aa1d-21c7bff41cbe" d="M871.706101562500407,460.857459374999962c0-10.765625,5.9951171875-17.53515625,15.6005859375-17.53515625,9.6708984375,0,15.666015625,6.76953125,15.666015625,17.53515625,0,10.830078125-5.9951171875,17.6640625-15.666015625,17.6640625-9.60546875,0-15.6005859375-6.833984375-15.6005859375-17.6640625ZM894.334031250000407,464.015662499999962v-6.2529296875c0-5.0283203125-2.7080078125-7.7998046875-7.02734375-7.7998046875-4.2548828125,0-6.9619140625,2.771484375-6.9619140625,7.7998046875v6.2529296875c0,5.09375,2.70703125,7.865234375,6.9619140625,7.865234375,4.3193359375,0,7.02734375-2.771484375,7.02734375-7.865234375Z"/><path class="uuid-fccc0980-a027-4eac-aa1d-21c7bff41cbe" d="M908.004929687500407,460.857459374999962c0-10.765625,5.6083984375-17.53515625,15.5361328125-17.53515625,6.76953125,0,11.2177734375,3.22265625,13.216796875,8.509765625l-6.76953125,3.029296875c-.7734375-2.8359375-2.9013671875-4.8984375-6.447265625-4.8984375-4.5771484375,0-6.8974609375,3.22265625-6.8974609375,7.9287109375v6.1240234375c0,4.70703125,2.3203125,7.865234375,6.8974609375,7.865234375,3.9326171875,0,5.8671875-2.255859375,7.091796875-5.28515625l6.318359375,3.029296875c-2.1923828125,5.931640625-6.8984375,8.896484375-13.41015625,8.896484375-9.927734375,0-15.5361328125-6.833984375-15.5361328125-17.6640625Z"/><path class="uuid-fccc0980-a027-4eac-aa1d-21c7bff41cbe" d="M942.626023437500407,435.070349999999962v-1.2890625c0-2.3857421875,1.41796875-4.126953125,4.8349609375-4.126953125,3.3525390625,0,4.8349609375,1.7412109375,4.8349609375,4.126953125v1.2890625c0,2.384765625-1.482421875,4.125-4.8349609375,4.125-3.4169921875,0-4.8349609375-1.740234375-4.8349609375-4.125ZM943.335007812500407,444.095740624999962h8.251953125v33.65234375h-8.251953125v-33.65234375Z"/><path class="uuid-fccc0980-a027-4eac-aa1d-21c7bff41cbe" d="M958.744187500000407,468.593787499999962c0-6.8984375,5.2216796875-10.314453125,14.3759765625-10.314453125h5.7373046875v-2.451171875c0-3.73828125-1.869140625-5.9306640625-6.2529296875-5.9306640625-3.8681640625,0-6.060546875,1.9345703125-7.671875,4.2548828125l-4.8994140625-4.3837890625c2.44921875-3.8681640625,6.3818359375-6.4462890625,13.1513671875-6.4462890625,9.08984375,0,13.9248046875,4.318359375,13.9248046875,11.990234375v15.859375h3.3525390625v6.576171875h-4.5771484375c-3.5458984375,0-5.7373046875-2.3203125-6.2529296875-5.802734375h-.38671875c-1.0966796875,4.3203125-4.771484375,6.576171875-9.7998046875,6.576171875-6.8330078125,0-10.701171875-3.9326171875-10.701171875-9.927734375ZM978.857468750000407,467.691443749999962v-4.44921875h-5.2861328125c-4.3193359375,0-6.4462890625,1.4833984375-6.4462890625,4.126953125v1.095703125c0,2.70703125,1.869140625,4.060546875,5.0927734375,4.060546875,3.6748046875,0,6.6396484375-1.67578125,6.6396484375-4.833984375Z"/><path class="uuid-fccc0980-a027-4eac-aa1d-21c7bff41cbe" d="M998.717820312500407,469.173865624999962v-18.501953125h-4.96484375v-6.576171875h2.5791015625c2.4501953125,0,3.2236328125-1.16015625,3.2236328125-3.4814453125v-5.7373046875h7.4140625v9.21875h6.8974609375v6.576171875h-6.8974609375v20.5h6.3818359375v6.576171875h-5.9306640625c-5.673828125,0-8.703125-3.0947265625-8.703125-8.57421875Z"/><path class="uuid-fccc0980-a027-4eac-aa1d-21c7bff41cbe" d="M1020.316453125000407,435.070349999999962v-1.2890625c0-2.3857421875,1.41796875-4.126953125,4.8349609375-4.126953125,3.3525390625,0,4.8349609375,1.7412109375,4.8349609375,4.126953125v1.2890625c0,2.384765625-1.482421875,4.125-4.8349609375,4.125-3.4169921875,0-4.8349609375-1.740234375-4.8349609375-4.125ZM1021.025437500000407,444.095740624999962h8.251953125v33.65234375h-8.251953125v-33.65234375Z"/><path class="uuid-fccc0980-a027-4eac-aa1d-21c7bff41cbe" d="M1036.563523437500407,460.857459374999962c0-10.765625,5.9951171875-17.53515625,15.6005859375-17.53515625,9.6708984375,0,15.666015625,6.76953125,15.666015625,17.53515625,0,10.830078125-5.9951171875,17.6640625-15.666015625,17.6640625-9.60546875,0-15.6005859375-6.833984375-15.6005859375-17.6640625ZM1059.191453125000407,464.015662499999962v-6.2529296875c0-5.0283203125-2.7080078125-7.7998046875-7.02734375-7.7998046875-4.2548828125,0-6.9619140625,2.771484375-6.9619140625,7.7998046875v6.2529296875c0,5.09375,2.70703125,7.865234375,6.9619140625,7.865234375,4.3193359375,0,7.02734375-2.771484375,7.02734375-7.865234375Z"/><path class="uuid-fccc0980-a027-4eac-aa1d-21c7bff41cbe" d="M1075.118210937500407,477.748084374999962v-33.65234375h8.251953125v5.6083984375h.322265625c1.3544921875-3.6103515625,4.1904296875-6.3818359375,9.4130859375-6.3818359375,6.8974609375,0,10.765625,4.7705078125,10.765625,13.1513671875v21.2744140625h-8.251953125v-20.4365234375c0-4.7705078125-1.611328125-7.2197265625-5.5439453125-7.2197265625-3.4169921875,0-6.705078125,1.8046875-6.705078125,5.4140625v22.2421875h-8.251953125Z"/></g></svg>