<?xml version="1.0" encoding="UTF-8"?><svg id="uuid-b610eb0f-85b6-41cd-b111-6741674c9c62" xmlns="http://www.w3.org/2000/svg" width="945.78792996235677mm" height="250.004011800872064mm" xmlns:xlink="http://www.w3.org/1999/xlink" viewBox="0 0 2680.973699999999553 708.672800000000279"><defs><style>.uuid-fa1b0cfb-b02f-41bf-aa08-f89ceda739bd{fill:#00c2f3;}.uuid-384b854a-7903-44b0-9c61-1a5256a086f5{fill:#fff;}.uuid-9c4b0b06-2947-4f0a-897a-f3856d6a4ac1{clip-path:url(#uuid-17f139c2-8176-4714-8fea-bcd13b47df5e);}.uuid-4cdaf1cd-c27c-4c37-93ce-785e4b18e2a1{fill:none;}.uuid-f9d8ecbc-3577-4cc5-8921-ef9c17608532{fill:#333e48;}</style><clipPath id="uuid-17f139c2-8176-4714-8fea-bcd13b47df5e"><rect class="uuid-4cdaf1cd-c27c-4c37-93ce-785e4b18e2a1" y=".001000000000204" width="2680.973699999999553" height="708.671800000000076"/></clipPath></defs><g class="uuid-9c4b0b06-2947-4f0a-897a-f3856d6a4ac1"><rect class="uuid-4cdaf1cd-c27c-4c37-93ce-785e4b18e2a1" x="1761.587308398439745" y="324.377903124999648" width="820.447998046872272" height="79.416015625"/><path class="uuid-384b854a-7903-44b0-9c61-1a5256a086f5" d="M1829.705106249999517,379.385715624999648v7.7763671875h-64.08544921875v-7.7763671875h64.08544921875ZM1823.656766406249517,337.118137499999648v7.416015625h-51.98828125v-7.416015625h51.98828125Z"/><path class="uuid-384b854a-7903-44b0-9c61-1a5256a086f5" d="M1866.134305468749517,337.982395312499648v-3.384765625h-23.1142578125v-4.96875h52.99658203125v4.96875h-23.18603515625v3.384765625h27.9384765625v12.9609375h-6.408203125v-8.4970703125h-21.5302734375v11.376953125h-2.01611328125l4.6083984375,2.232421875-1.51171875,1.15234375c6.7685546875,3.3837890625,18.72119140625,6.7685546875,29.59423828125,8.2080078125-1.3681640625,1.296875-3.16796875,3.888671875-4.0322265625,5.47265625-4.96826171875-.8642578125-10.0810546875-2.232421875-14.9052734375-3.8876953125v2.591796875h-29.95458984375v-2.736328125c-4.46435546875,1.728515625-9.0009765625,3.16796875-13.17724609375,4.392578125-1.2958984375-1.3681640625-3.744140625-3.6728515625-5.32861328125-4.7529296875,11.80908203125-2.591796875,24.6982421875-7.1279296875,32.47509765625-12.6728515625h-2.4482421875v-11.376953125h-21.4580078125v8.4970703125h-6.12060546875v-12.9609375h27.57861328125ZM1848.996610156249517,343.022434374999648c4.46435546875.7197265625,10.6572265625,2.232421875,13.96923828125,3.3837890625l-1.65625,3.6005859375,1.80029296875-.431640625.50390625,4.0322265625c-6.1201171875,1.728515625-12.1689453125,3.3837890625-17.35302734375,4.82421875l-1.87255859375-4.896484375c4.24853515625-.7197265625,10.0087890625-2.087890625,16.12939453125-3.3837890625-3.38427734375-1.224609375-9.07275390625-2.736328125-13.39306640625-3.6005859375l1.8720703125-3.5283203125ZM1886.295926562499517,372.472629687499648l1.00830078125-.359375,4.3203125,2.736328125c-3.38427734375,4.4638671875-8.9287109375,8.7841796875-14.11328125,12.0244140625l5.904296875,2.5927734375-2.9521484375,4.82421875c-5.6162109375-2.880859375-16.92138671875-7.6328125-25.1298828125-10.7294921875l2.8798828125-4.103515625c3.67236328125,1.2958984375,8.208984375,3.0234375,12.529296875,4.6796875,3.38427734375-1.65625,7.2724609375-4.1044921875,10.296875-6.552734375h-35.859375v-5.1123046875h41.11572265625ZM1880.391629687499517,365.415989062499648c-4.3203125-1.7275390625-8.13671875-3.599609375-11.0888671875-5.328125-3.384765625,1.9443359375-7.12890625,3.744140625-11.01708984375,5.328125h22.10595703125ZM1876.935086718749517,349.142551562499648l.72021484375.14453125-1.80029296875-2.736328125c4.1044921875-.6484375,10.22509765625-2.5927734375,13.75341796875-3.744140625l2.736328125,3.671875c-3.74462890625,1.4404296875-8.85693359375,2.5205078125-12.88916015625,3.240234375,5.328125,1.15234375,11.5927734375,2.9521484375,15.19287109375,4.3203125l-1.65576171875,4.2490234375c-4.1044921875-1.728515625-11.88134765625-4.0322265625-17.78564453125-5.47265625l1.72802734375-3.6728515625Z"/><path class="uuid-384b854a-7903-44b0-9c61-1a5256a086f5" d="M1973.705106249999517,379.385715624999648v7.7763671875h-64.08544921875v-7.7763671875h64.08544921875ZM1967.656766406249517,337.118137499999648v7.416015625h-51.98828125v-7.416015625h51.98828125Z"/><path class="uuid-384b854a-7903-44b0-9c61-1a5256a086f5" d="M2010.134305468749517,337.982395312499648v-3.384765625h-23.1142578125v-4.96875h52.99658203125v4.96875h-23.18603515625v3.384765625h27.9384765625v12.9609375h-6.408203125v-8.4970703125h-21.5302734375v11.376953125h-2.01611328125l4.6083984375,2.232421875-1.51171875,1.15234375c6.7685546875,3.3837890625,18.72119140625,6.7685546875,29.59423828125,8.2080078125-1.3681640625,1.296875-3.16796875,3.888671875-4.0322265625,5.47265625-4.96826171875-.8642578125-10.0810546875-2.232421875-14.9052734375-3.8876953125v2.591796875h-29.95458984375v-2.736328125c-4.46435546875,1.728515625-9.0009765625,3.16796875-13.17724609375,4.392578125-1.2958984375-1.3681640625-3.744140625-3.6728515625-5.32861328125-4.7529296875,11.80908203125-2.591796875,24.6982421875-7.1279296875,32.47509765625-12.6728515625h-2.4482421875v-11.376953125h-21.4580078125v8.4970703125h-6.12060546875v-12.9609375h27.57861328125ZM1992.996610156249517,343.022434374999648c4.46435546875.7197265625,10.6572265625,2.232421875,13.96923828125,3.3837890625l-1.65625,3.6005859375,1.80029296875-.431640625.50390625,4.0322265625c-6.1201171875,1.728515625-12.1689453125,3.3837890625-17.35302734375,4.82421875l-1.87255859375-4.896484375c4.24853515625-.7197265625,10.0087890625-2.087890625,16.12939453125-3.3837890625-3.38427734375-1.224609375-9.07275390625-2.736328125-13.39306640625-3.6005859375l1.8720703125-3.5283203125ZM2030.295926562499517,372.472629687499648l1.00830078125-.359375,4.3203125,2.736328125c-3.38427734375,4.4638671875-8.9287109375,8.7841796875-14.11328125,12.0244140625l5.904296875,2.5927734375-2.9521484375,4.82421875c-5.6162109375-2.880859375-16.92138671875-7.6328125-25.1298828125-10.7294921875l2.8798828125-4.103515625c3.67236328125,1.2958984375,8.208984375,3.0234375,12.529296875,4.6796875,3.38427734375-1.65625,7.2724609375-4.1044921875,10.296875-6.552734375h-35.859375v-5.1123046875h41.11572265625ZM2024.391629687499517,365.415989062499648c-4.3203125-1.7275390625-8.13671875-3.599609375-11.0888671875-5.328125-3.384765625,1.9443359375-7.12890625,3.744140625-11.01708984375,5.328125h22.10595703125ZM2020.935086718749517,349.142551562499648l.72021484375.14453125-1.80029296875-2.736328125c4.1044921875-.6484375,10.22509765625-2.5927734375,13.75341796875-3.744140625l2.736328125,3.671875c-3.74462890625,1.4404296875-8.85693359375,2.5205078125-12.88916015625,3.240234375,5.328125,1.15234375,11.5927734375,2.9521484375,15.19287109375,4.3203125l-1.65576171875,4.2490234375c-4.1044921875-1.728515625-11.88134765625-4.0322265625-17.78564453125-5.47265625l1.72802734375-3.6728515625Z"/><path class="uuid-384b854a-7903-44b0-9c61-1a5256a086f5" d="M2088.974637499999517,358.215793749999648v8.4248046875h22.826171875v6.2646484375h-22.826171875v11.953125h29.16259765625v6.3359375h-64.87744140625v-6.3359375h28.58642578125v-11.953125h-22.10595703125v-6.2646484375h22.10595703125v-8.4248046875h7.12841796875ZM2058.012235156249517,351.231418749999648c1.51220703125-.2880859375,3.09619140625-1.4404296875,5.04052734375-3.3125,1.583984375-1.3681640625,5.76025390625-5.7607421875,9.6484375-10.873046875h-17.71337890625v-6.3369140625h60.7734375v6.3369140625h-34.130859375c-3.81640625,4.96875-7.9208984375,9.5771484375-11.953125,13.3935546875l30.24267578125-1.080078125c-2.66455078125-2.376953125-5.400390625-4.7529296875-7.99267578125-6.7685546875l5.400390625-3.6728515625c6.48046875,4.896484375,14.68896484375,11.953125,18.6494140625,16.921875l-5.9765625,4.17578125c-1.080078125-1.439453125-2.52001953125-3.16796875-4.248046875-4.9677734375-38.16357421875,1.6552734375-42.48388671875,1.7998046875-45.50830078125,2.8076171875-.35986328125-1.439453125-1.43994140625-4.82421875-2.23193359375-6.6240234375Z"/><path class="uuid-384b854a-7903-44b0-9c61-1a5256a086f5" d="M2189.705106249999517,379.385715624999648v7.7763671875h-64.08544921875v-7.7763671875h64.08544921875ZM2183.656766406249517,337.118137499999648v7.416015625h-51.98828125v-7.416015625h51.98828125Z"/><path class="uuid-384b854a-7903-44b0-9c61-1a5256a086f5" d="M2226.134305468749517,337.982395312499648v-3.384765625h-23.1142578125v-4.96875h52.99658203125v4.96875h-23.18603515625v3.384765625h27.9384765625v12.9609375h-6.408203125v-8.4970703125h-21.5302734375v11.376953125h-2.01611328125l4.6083984375,2.232421875-1.51171875,1.15234375c6.7685546875,3.3837890625,18.72119140625,6.7685546875,29.59423828125,8.2080078125-1.3681640625,1.296875-3.16796875,3.888671875-4.0322265625,5.47265625-4.96826171875-.8642578125-10.0810546875-2.232421875-14.9052734375-3.8876953125v2.591796875h-29.95458984375v-2.736328125c-4.46435546875,1.728515625-9.0009765625,3.16796875-13.17724609375,4.392578125-1.2958984375-1.3681640625-3.744140625-3.6728515625-5.32861328125-4.7529296875,11.80908203125-2.591796875,24.6982421875-7.1279296875,32.47509765625-12.6728515625h-2.4482421875v-11.376953125h-21.4580078125v8.4970703125h-6.12060546875v-12.9609375h27.57861328125ZM2208.996610156249517,343.022434374999648c4.46435546875.7197265625,10.6572265625,2.232421875,13.96923828125,3.3837890625l-1.65625,3.6005859375,1.80029296875-.431640625.50390625,4.0322265625c-6.1201171875,1.728515625-12.1689453125,3.3837890625-17.35302734375,4.82421875l-1.87255859375-4.896484375c4.24853515625-.7197265625,10.0087890625-2.087890625,16.12939453125-3.3837890625-3.38427734375-1.224609375-9.07275390625-2.736328125-13.39306640625-3.6005859375l1.8720703125-3.5283203125ZM2246.295926562499517,372.472629687499648l1.00830078125-.359375,4.3203125,2.736328125c-3.38427734375,4.4638671875-8.9287109375,8.7841796875-14.11328125,12.0244140625l5.904296875,2.5927734375-2.9521484375,4.82421875c-5.6162109375-2.880859375-16.92138671875-7.6328125-25.1298828125-10.7294921875l2.8798828125-4.103515625c3.67236328125,1.2958984375,8.208984375,3.0234375,12.529296875,4.6796875,3.38427734375-1.65625,7.2724609375-4.1044921875,10.296875-6.552734375h-35.859375v-5.1123046875h41.11572265625ZM2240.391629687499517,365.415989062499648c-4.3203125-1.7275390625-8.13671875-3.599609375-11.0888671875-5.328125-3.384765625,1.9443359375-7.12890625,3.744140625-11.01708984375,5.328125h22.10595703125ZM2236.935086718749517,349.142551562499648l.72021484375.14453125-1.80029296875-2.736328125c4.1044921875-.6484375,10.22509765625-2.5927734375,13.75341796875-3.744140625l2.736328125,3.671875c-3.74462890625,1.4404296875-8.85693359375,2.5205078125-12.88916015625,3.240234375,5.328125,1.15234375,11.5927734375,2.9521484375,15.19287109375,4.3203125l-1.65576171875,4.2490234375c-4.1044921875-1.728515625-11.88134765625-4.0322265625-17.78564453125-5.47265625l1.72802734375-3.6728515625Z"/><path class="uuid-384b854a-7903-44b0-9c61-1a5256a086f5" d="M2333.705106249999517,379.385715624999648v7.7763671875h-64.08544921875v-7.7763671875h64.08544921875ZM2327.656766406249517,337.118137499999648v7.416015625h-51.98828125v-7.416015625h51.98828125Z"/><path class="uuid-384b854a-7903-44b0-9c61-1a5256a086f5" d="M2406.857449999999517,355.911106249999648v7.4892578125h-66.24560546875v-7.4892578125h66.24560546875Z"/><path class="uuid-384b854a-7903-44b0-9c61-1a5256a086f5" d="M2424.492703906249517,371.104465624999648v-19.1533203125h21.3857421875v-10.0810546875h-16.63330078125c-3.240234375,5.400390625-6.8408203125,10.224609375-10.5849609375,13.8974609375-1.2958984375-1.224609375-4.17626953125-3.4560546875-5.83251953125-4.392578125,6.69677734375-5.83203125,12.45703125-15.12109375,15.84130859375-24.6982421875l6.91259765625,1.80078125c-.86376953125,2.3037109375-1.80029296875,4.6083984375-2.88037109375,6.83984375h42.1240234375v6.552734375h-21.9619140625v10.0810546875h20.3056640625v6.3369140625h-20.3056640625v12.81640625h25.63427734375v6.625h-25.63427734375v16.0576171875h-6.98486328125v-16.0576171875h-33.12255859375v-6.625h11.73681640625ZM2445.878446093749517,371.104465624999648v-12.81640625h-14.6171875v12.81640625h14.6171875Z"/><path class="uuid-384b854a-7903-44b0-9c61-1a5256a086f5" d="M2522.198758593749517,326.533176562499648c1.15234375,2.16015625,2.37646484375,4.896484375,3.240234375,7.2001953125h24.62646484375v6.3369140625h-53.06884765625v13.033203125c0,11.80859375-.93603515625,29.08984375-6.984375,40.611328125-1.3681640625-1.0078125-4.46435546875-2.4482421875-6.1923828125-3.0244140625,5.904296875-10.9453125,6.408203125-26.642578125,6.408203125-37.515625v-19.44140625h27.50634765625c-.7197265625-1.8720703125-1.51220703125-3.9599609375-2.3759765625-5.6162109375l6.84033203125-1.583984375ZM2539.480496874999517,368.440403124999648l1.22412109375-.2880859375,4.24853515625,2.232421875c-3.24072265625,5.9765625-8.06494140625,10.5126953125-14.04150390625,13.8974609375,5.9765625,1.7998046875,12.88916015625,2.9521484375,20.23388671875,3.599609375-1.4404296875,1.4404296875-3.09619140625,4.1767578125-3.96044921875,5.9052734375-9.0009765625-1.0087890625-17.1376953125-2.9521484375-24.1220703125-5.8330078125-7.3447265625,2.736328125-15.697265625,4.392578125-24.337890625,5.400390625-.50439453125-1.65625-1.728515625-4.248046875-2.80859375-5.759765625,6.91259765625-.576171875,13.75341796875-1.65625,19.8740234375-3.384765625-4.1044921875-2.5205078125-7.6328125-5.6162109375-10.44091796875-9.216796875l2.736328125-1.080078125h-8.712890625v-5.47265625h40.107421875ZM2515.862332812499517,341.870090624999648v5.6162109375h15.62548828125v-5.6162109375h6.6962890625v5.6162109375h11.08935546875v5.47265625h-11.08935546875v11.6650390625h-28.80224609375v-11.6650390625h-10.80078125v-5.47265625h10.80078125v-5.6162109375h6.48046875ZM2512.334012499999517,373.913059374999648c2.736328125,3.0244140625,6.552734375,5.544921875,11.01708984375,7.560546875,4.6083984375-1.9443359375,8.49658203125-4.4638671875,11.44873046875-7.560546875h-22.4658203125ZM2515.862332812499517,352.958957812499648v6.4091796875h15.62548828125v-6.4091796875h-15.62548828125Z"/><rect class="uuid-384b854a-7903-44b0-9c61-1a5256a086f5" x="1633.979499999999462" y="222.21769999999924" width="3" height="264.238300000000891"/><path class="uuid-384b854a-7903-44b0-9c61-1a5256a086f5" d="M158.441399999999703,271.573199999998906c-9.105400000000373,21.527400000000853-14.519500000000335,44.144500000000335-16.16990000000078,67.425800000000891,3.587900000000445-2.921899999999368,8.159200000000055-4.679700000000594,13.136700000000928-4.679700000000594,5.495100000000093,0,10.488299999999072,2.154300000000148,14.216800000000148,5.636700000000928,7.337899999999536-95.591800000000148,87.224599999999555-170.871100000000297,184.701199999999517-170.871100000000297,7.552700000000186,0,13.674799999999777-6.122999999999593,13.674799999999777-13.675699999999779,0-7.552800000001298-6.122099999999591-13.675800000000891-13.674799999999777-13.675800000000891-28.689500000000407,0-56.536099999999351,5.625-82.765600000000632,16.718700000001263-25.318400000000111,10.708999999998923-48.052799999999479,26.033199999999852-67.567399999999907,45.548899999999776-19.518599999999424,19.517499999999927-34.844699999999648,42.251899999999296-45.551799999999275,67.572199999998702Z"/><path class="uuid-384b854a-7903-44b0-9c61-1a5256a086f5" d="M339.185599999998885,538.969699999999648c-94.95509999999922-7.681599999999889-169.671899999999368-86.962900000000445-170.101599999999962-183.796899999999368,0-7.550800000000891-6.120099999999184-13.675800000000891-13.675799999999072-13.675800000000891-7.552700000000186,0-13.675800000000891,6.125-13.675800000000891,13.675800000000891.109400000001187,28.394599999999627,5.722700000000259,55.95509999999922,16.709000000000742,81.927799999999479,10.707099999999627,25.318299999998999,26.033199999999852,48.052700000000186,45.551799999999275,67.568299999998999,19.514600000000428,19.517600000001039,42.248999999999796,34.843800000000556,67.567399999999907,45.552800000001298,21.255800000000818,8.990200000000186,43.573200000000725,14.386699999999109,66.539000000000669,16.111300000000483-2.886700000000019-3.580100000001039-4.626900000000205-8.123100000000704-4.626900000000205-13.068400000000111,0-5.533200000001671,2.183600000000297-10.556599999999889,5.712899999999536-14.29490000000078Z"/><path class="uuid-384b854a-7903-44b0-9c61-1a5256a086f5" d="M502.527399999999034,487.413099999999758c-2.670000000000073-2.671899999999368-6.170000000000073-4.005900000000111-9.670000000000073-4.005900000000111-3.497999999999593,0-7,1.334000000000742-9.671800000000076,4.005900000000111-33.341799999999239,32.290999999999258-78.775399999999536,52.175699999999779-128.859399999999368,52.175699999999779-7.552700000000186,0-13.675799999999981,6.123100000000704-13.675799999999981,13.675800000000891,0,7.552799999999479,6.123099999999795,13.675799999999072,13.675799999999981,13.675799999999072,28.690399999999499,0,56.535200000000259-5.625,82.763699999999517-16.718699999999444,24.408199999999852-10.320400000000518,46.401300000000447-24.947299999999814,65.4375-43.468800000000556,5.343700000000354-5.339799999999741,5.343700000000354-13.997999999999593,0-19.339799999999741Z"/><path class="uuid-384b854a-7903-44b0-9c61-1a5256a086f5" d="M354.326199999999517,566.940399999999499c-7.552700000000186,0-13.675799999999981-6.122999999999593-13.675799999999981-13.675799999999072,0-7.552700000000186,6.123099999999795-13.675800000000891,13.675799999999981-13.675800000000891,50.083999999999833,0,95.51760000000013-19.884700000000521,128.859399999999368-52.175699999999779,2.671800000000076-2.671899999999368,6.173800000000483-4.005900000000111,9.671800000000076-4.005900000000111,3.5,0,7,1.334000000000742,9.670000000000073,4.005900000000111,5.343700000000354,5.341800000000148,5.343700000000354,14,0,19.339799999999741-19.036199999999553,18.521500000000742-41.029300000000148,33.148400000000038-65.4375,43.468800000000556-26.228499999999258,11.093699999999444-54.073300000000017,16.718699999999444-82.763699999999517,16.718699999999444ZM271.560599999998885,550.221700000000055c-25.318400000000111-10.709000000000742-48.052799999999479-26.035200000000259-67.567399999999907-45.552800000001298-19.518599999999424-19.515599999998813-34.844699999999648-42.25-45.551799999999275-67.568299999998999-10.986300000000483-25.972700000000259-16.599599999999555-53.533199999999852-16.709000000000742-81.927799999999479,0-7.550800000000891,6.123100000000704-13.675800000000891,13.675800000000891-13.675800000000891,7.555699999999888,0,13.675799999999072,6.125,13.675799999999072,13.675800000000891.429700000000594,96.833999999998923,75.146500000000742,176.115299999999479,170.101599999999962,183.796899999999368-3.529299999999239,3.738300000000891-5.712899999999536,8.761699999999109-5.712899999999536,14.29490000000078,0,4.945299999999406,1.740200000000186,9.488299999999072,4.626900000000205,13.068400000000111-22.965799999999945-1.724600000001374-45.283199999999852-7.121100000000297-66.539000000000669-16.111300000000483ZM354.326199999999517,141.733399999999165c7.552700000000186,0,13.674799999999777,6.122999999999593,13.674799999999777,13.675800000000891,0,7.552700000000186-6.122099999999591,13.675699999999779-13.674799999999777,13.675699999999779-97.476599999999962,0-177.363299999999981,75.279300000000148-184.701199999999517,170.871100000000297-3.728500000001077-3.48240000000078-8.721700000000055-5.636700000000928-14.216800000000148-5.636700000000928-4.977500000000873,0-9.548800000000483,1.757800000001225-13.136700000000928,4.679700000000594,1.650400000000445-23.281300000000556,7.064500000000407-45.898400000000038,16.16990000000078-67.425800000000891,10.707099999999627-25.320299999999406,26.033199999999852-48.054699999998775,45.551799999999275-67.572199999998702,19.514600000000428-19.515699999999924,42.248999999999796-34.839900000000853,67.567399999999907-45.548899999999776,26.229500000001281-11.093700000001263,54.076100000000224-16.718700000001263,82.765600000000632-16.718700000001263Z"/><path class="uuid-384b854a-7903-44b0-9c61-1a5256a086f5" d="M466.912099999999555,241.751000000000204c-30.070299999999406-30.072299999999814-70.054700000000594-46.632900000000518-112.585900000000038-46.632900000000518-42.527299999999741,0-82.512700000000223,16.560600000000704-112.584000000000742,46.632900000000518-30.072299999999814,30.072199999998702-46.636699999999109,70.056599999999889-46.636699999999109,112.585900000000038s16.564399999999296,82.511699999999109,46.636699999999109,112.585900000000038c30.07130000000052,30.070299999999406,70.056700000001001,46.634799999999814,112.584000000000742,46.634799999999814,42.531199999999444,0,82.515600000000632-16.564500000000407,112.585900000000038-46.634799999999814,30.073300000000017-30.074200000000928,46.632799999999406-70.056599999999889,46.632799999999406-112.585900000000038s-16.559499999999389-82.513700000001336-46.632799999999406-112.585900000000038Z"/><path class="uuid-f9d8ecbc-3577-4cc5-8921-ef9c17608532" d="M242.115299999999479,405.827100000000428v-102.978500000001077h22.33389999999963v7.611300000000483h-12.944299999999203v87.753899999999703h12.944299999999203v7.613300000000891h-22.33389999999963Z"/><path class="uuid-f9d8ecbc-3577-4cc5-8921-ef9c17608532" d="M466.537099999999555,302.848599999999351v102.978500000001077h-22.328100000000632v-7.613300000000891h12.938500000000204v-87.753899999999703h-12.938500000000204v-7.611300000000483h22.328100000000632Z"/><path class="uuid-fa1b0cfb-b02f-41bf-aa08-f89ceda739bd" d="M293.986399999999776,375.256799999999203c0,2.056700000001001.032199999999648,4.484400000001187.095699999999852,7.271500000000742.0625,2.789099999999962.150299999999334,5.622999999999593.259700000000521,8.496100000000297.105499999999665,2.875.233399999999165,5.622999999999593.386699999999109,8.240200000000186.146500000000742,2.617199999998775.33010000000013,4.804699999998775.545000000000073,6.5625h-13.193400000000111v-72.730400000000373c0-6.263699999999517-.10739999999987-11.9375-.322299999999814-17.02350000000115-.212900000000445-5.085900000000038-.535100000000057-9.494099999999889-.966800000000148-13.224599999999555h13.195400000000518v72.408199999999852Z"/><path class="uuid-fa1b0cfb-b02f-41bf-aa08-f89ceda739bd" d="M351.592799999999443,340.176699999999983v8.433600000000297h-12.100600000000668v48.787099999999555h12.100600000000668v8.431699999999182h-36.042000000000371v-8.431699999999182h11.906300000000556v-48.787099999999555h-11.906300000000556v-8.433600000000297h36.042000000000371Z"/><path class="uuid-fa1b0cfb-b02f-41bf-aa08-f89ceda739bd" d="M378.626999999999498,340.176699999999983c.255799999999908.6875.513700000000426,1.576199999999517.771499999999833,2.673899999999776.259700000000521,1.093699999999444.492200000000594,2.240200000000186.70889999999963,3.441399999999703.21100000000115,1.201100000000224.404300000000148,2.382799999999406.580100000001039,3.541000000001077l.511699999999109,2.89259999999922c4.121100000000297-4.890699999999924,8.259799999999814-8.417999999999665,12.421900000000278-10.585999999999331,4.164099999999962-2.166000000001077,8.5-3.25,13.002999999999702-3.25,3.433500000001004,0,6.469700000000557.568400000000111,9.10740000000078,1.70509999999922,2.639599999999518,1.140600000000632,4.860300000000279,2.941399999999703,6.663099999999758,5.406300000000556,1.799799999999777,2.468699999999444,3.162099999999555,5.667899999998554,4.087799999999334,9.591699999999037.921900000001187,3.927800000001298,1.382900000000518,8.654300000000148,1.382900000000518,14.193400000000111v28.960900000000038c0,7.252000000000407-.634799999999814,13.27350000000115-1.900400000000445,18.054700000000594-1.263699999999517,4.787099999999555-3.037099999999555,8.603499999999258-5.308599999999387,11.460999999999331-2.27350000000024,2.849599999999555-5.011700000000019,4.867200000000594-8.207100000000537,6.046800000000076-3.197199999999611,1.179700000000594-6.747999999999593,1.771500000000742-10.652299999999741,1.771500000000742-1.930699999999888,0-4.001000000000204-.3125-6.210900000000038-.933600000000297-2.208999999999833-.625-4.214899999999943-1.492200000000594-6.01759999999922-2.60740000000078l4.183599999999387-9.656199999999444c.986299999999574.730400000000373,2.305600000000595,1.341800000000148,3.958999999999833,1.835900000000038,1.650400000000445.492200000000594,3.335900000000038.738300000000891,5.048800000000483.738300000000891,2.0625,0,3.908199999999852-.330100000001039,5.539999999999054-.996100000000297,1.629900000000816-.664099999999962,3.011800000000221-1.832000000000335,4.149400000000242-3.505900000000111,1.136800000000221-1.675800000000891,2.005900000000111-3.970699999999852,2.607500000000073-6.888600000000224.599600000000464-2.917999999999665.900400000000445-6.630900000000111.900400000000445-11.134799999999814v-28.320300000001225c0-5.148499999999331-.26760000000013-9.322299999999814-.804700000000594-12.519599999999627-.535200000000259-3.195299999999406-1.342799999999443-5.685499999999593-2.415100000000166-7.464799999999741-1.07129999999961-1.781199999999444-2.413099999999758-2.972700000000259-4.024399999999332-3.576199999999517-1.605500000000575-.597600000000966-3.483400000000074-.898400000000038-5.628900000000613-.898400000000038-2.316399999999703,0-4.578099999998813.546899999999368-6.788099999999758,1.644500000000335-2.209899999999834,1.091800000000148-4.24119999999948,2.507799999999406-6.086900000000242,4.246099999998478-1.843699999999444,1.736300000000483-3.473599999999351,3.697300000001633-4.888699999999517,5.888700000001336-1.414999999999964,2.189399999999296-2.468699999999444,4.375-3.156199999999444,6.564399999999296v37.332099999999627h-11.906300000000556v-39.583999999998923c0-6.349599999999555-.365200000000186-11.724599999999555-1.095699999999852-16.123100000000704-.726500000000669-4.398400000000038-1.4375-7.714799999999741-2.122999999999593-9.945299999999406h11.587899999999536Z"/><path class="uuid-384b854a-7903-44b0-9c61-1a5256a086f5" d="M732.144816285229354,379.638599999998405h-54.992198610779269v-9.128900000001522h54.992198610779269v9.128900000001522ZM724.988516466019064,476.845199999997931h-9.421289496589452v-10.005900000000111h-21.983000000000175v10.005900000000111h-9.566809468399697v-49.370599999998376h40.971098964989324v49.370599999998376ZM724.550116477089432,398.481399999998757l-40.386798979739979.145499999998719v-9.127899999999499h40.386798979739979v8.98240000000078ZM724.696116473399343,417.61569999999665h-40.532798976049889v-9.129899999999907h40.532798976049889v9.129899999999907ZM722.870416519519495,361.08929999999782l-37.100099062769914.145500000000538v-9.127900000001318h37.100099062769914v8.98240000000078ZM715.567226969429612,457.855399999998554v-21.396899999999732h-22.128509706400109v21.396899999999732h22.128509706400109ZM809.924114320359877,417.76169999999729l-78.947298005619814.14600000000064v-8.98240000000078h19.572299505559386l4.236299892980242-22.566399999999703h-18.257799538770087v-8.983899999999267h19.718799501859394l3.140599920670866-16.724099999999453h-27.97169929338088v-9.129000000000815h72.520498167979895v8.983400000000984h-34.690399123649513l-2.994188378560466,16.724699999998847h30.088887694090772l-3.140599920659952,31.547800000000279h16.724599577500157v8.983899999999267ZM797.217114641369335,477.137199999999211h-9.421887671939658v-9.85989999999947h-36.953111156530213v9.85989999999947h-9.568399758280066v-49.516100000000733h55.943398586749936v49.516100000000733ZM787.795226969429677,458.293399999996836v-21.689899999997579h-37.099611152830221v21.689899999997579h37.099611152830221ZM786.334226969429437,386.212399999998524h-21.68941150522005l-4.236299892980242,22.712899999998626h23.662099402250533l2.263611995949759-22.712899999998626Z"/><path class="uuid-384b854a-7903-44b0-9c61-1a5256a086f5" d="M974.596010160399601,379.638599999998405h-132.771496645909792v-9.128900000001522h132.771496645909792v9.128900000001522ZM955.023710654839306,398.334899999998015h-94.94139760158032v-8.835900000000038h94.94139760158032v8.835900000000038ZM955.023710654839306,417.323699999999008h-94.94139760158032v-8.837900000002264h94.94139760158032v8.837900000002264ZM951.592110741529723,477.137199999999211h-9.421883772100045v-10.297900000001391h-68.503914259329576v10.297900000001391h-9.420899762010777v-49.662599999999657h87.346697793440399v49.662599999999657ZM951.445610745229715,360.140099999998711l-86.47069781557002.218799999998737v-8.836999999999534h86.47069781557002v8.618200000000797ZM942.170226969429677,457.855399999998554v-21.396899999999732h-68.503914259329576v21.396899999999732h68.503914259329576Z"/><path class="uuid-384b854a-7903-44b0-9c61-1a5256a086f5" d="M1139.269806000389508,450.699699999999211h-58.790998514809871v10.150900000000547c0,10.856399999996938-5.769580516150199,16.286599999999453-17.310580516149457,16.286599999999453h-9.712918801180422l-3.578081198820655-8.983400000000984h13.584000000000742c4.77148082550957,0,7.158180765209181-2.191899999999805,7.158180765209181-6.572799999999916v-10.881299999999101h-64.122998380109493v-9.129899999999907h64.122998380109493v-6.280800000000454c10.173819234791154-3.797300000001997,17.453099559100338-7.350099999999657,21.835899448380587-10.662100000001374h-55.943298586749734v-8.399900000000343h72.158218373159798v7.961900000002061c-7.597720004100665,5.161199999998644-16.994219766719652,10.44289999999819-28.191419483850041,15.847200000000157v1.533699999999953h58.790998514809871v9.129899999999907ZM1133.13500615536941,423.603499999999258h-8.7655997785605v-15.117700000002515h-102.023397422679409v15.995100000000093h-9.568399758280066v-24.538099999997939h12.560617773579906v-44.550699999999779c6.912081734500134-.681200000000899,14.486281543159748-3.968300000000454,22.714781335290354-9.858400000000984l4.820299878229889,6.718700000001263c-4.433599888000572,4.089399999998932-10.470699735490598,7.182099999998172-18.113299542420464,9.274900000000343v6.134799999999814h18.695299527720636v7.595699999998033h-18.695299527720636v7.959900000001653h18.695299527720636v7.4487999999983h-18.695299527720636v9.276300000001356h77.632798038830515v-9.276300000001356h-17.820299549819538v-7.30370000000039h17.820299549819538v-8.54399999999805h-17.673799553520439v-7.448700000000827h17.673799553520439v-7.960500000001048h-20.667899477879473v-8.837400000000343h29.943319767950015v49.224200000000565h11.466779185939231v23.80710000000181ZM1091.724907201480164,366.932099999998172l-5.111399870880632,6.280300000000352c-2.777280361169687-2.676800000001094-6.550699834519946-5.57470000000103-11.320280361169353-8.690500000000611-3.943319253240588,3.311099999998987-8.375,6.353100000000268-13.292919017050735,9.129000000000815l-5.988299848720089-5.25879999999961c4.722599880699818-1.947299999999814,8.859399776190003-4.235899999999674,12.415999686340001-6.864799999999377-5.941399849899426-2.238800000002811-10.736299728770064-3.797300000001997-14.388699636509955-4.6733000000022l3.726599905859985-6.72019999999975c5.402318910080794,1.363199999999779,10.831999726360664,3.117200000000594,16.285099588610137,5.258300000001327,3.457099912659942-3.260300000001735,6.353599839490016-6.595700000001671,8.691499780429695-10.005400000001828l6.134719541039885,4.89350000000195c-1.949219646779966,3.019099999997707-4.480519582829402,5.964899999999034-7.595719504130102,8.837499999997817,3.601599909010474,2.043400000002293,7.083999821040379,4.64890000000014,10.443399736181163,7.814400000001115ZM1092.599907179369438,393.51459999999679l-6.132799845069712,4.820300000001225c-3.943399900380427-3.01799999999821-8.035199797020141-5.524899999998524-12.2695996900502-7.520999999998821-2.628899933580215,1.996100000000297-7.302699815510096,4.503000000000611-14.021499645779841,7.520999999998821l-5.550699859780252-4.381800000001022c6.279299841369721-2.968299999998635,10.783199727589817-5.551299999999173,13.511699658670295-7.740699999998469-2.728499931080478-1.703099999998813-6.865299826570663-3.602999999999156-12.415999686350006-5.697800000001735l5.476499861650154-4.599599999997736c5.013718996769967,1.802299999999377,9.298899765090027,3.676299999999173,12.853499675299645,5.622100000000501,1.361399965599958-.777400000002672,4.113299896080207-3.113800000002811,8.251999791530579-7.011200000000827l6.718699830269543,3.433099999998376c-2.482399937290211,3.214299999999639-5.255799867220048,5.868600000001607-8.324199789710292,7.96140000000014,4.040999897920301,1.850099999999657,8.007799797710504,4.38130000000092,11.902399699320085,7.594199999999546Z"/><path class="uuid-384b854a-7903-44b0-9c61-1a5256a086f5" d="M1303.795226969429677,450.699699999999211h-58.791000000000167v10.150900000000547c0,10.856399999996938-5.769623494359621,16.286599999999453-17.308623202859962,16.286599999999453h-9.712899754640603l-3.578099909599587-8.983400000000984h13.583899656840003c4.769599879510679,0,7.15629981921029-2.191899999999805,7.15629981921029-6.572799999999916v-10.881299999999101h-64.12109838016022v-9.129899999999907h64.12109838016022v-6.280800000000454c10.175799742939489-3.797300000001997,17.453099559099428-7.350099999999657,21.837899448330063-10.662100000001374h-55.943398586750845v-8.399900000000343h72.156298177180361v7.961900000002061c-7.595699808120116,5.161199999998644-16.994199570689489,10.44289999999819-28.191375647709719,15.847200000000157v1.533699999999953h58.791000000000167v9.129899999999907ZM1297.662401999059512,423.603499999999258h-8.76759977851998v-15.117700000002515h-102.023397422669404v15.995100000000093h-9.56639975833059v-24.538099999997939h12.560499682689624v-44.550699999999779c6.9140998253406-.681200000000899,14.484399634100555-3.968300000000454,22.712899426230251-9.858400000000984l4.820299878229889,6.718700000001263c-4.429699888100004,4.089399999998932-10.468699735540213,7.182099999998172-18.113299542419554,9.274900000000343v6.134799999999814h18.697299527659197v7.595699999998033h-18.697299527659197v7.959900000001653h18.697299527659197v7.4487999999983h-18.697299527659197v9.276300000001356h77.632822485160432v-9.276300000001356h-17.818323996200888v-7.30370000000039h17.818323996200888v-8.54399999999805h-17.673823999850356v-7.448700000000827h17.673823999850356v-7.960500000001048h-20.667923924220304v-8.837400000000343h29.943299243569527v49.224200000000565h11.468799710280109v23.80710000000181ZM1258.851802979489548,391.876399999999194l-6.654299831890057,6.083999999998923c-3.037099923280039-4.563500000000204-7.382799813500242-10.276300000001356-11.585899707320095-13.82470000000103-6.533199834960215,7.279300000001967-11.906299699219744,11.912100000001374-16.105499593139939,13.893100000001141l-6.583999833670532-5.528299999999945c4.949299874970166-2.354499999999462,10.316399739380358-6.751999999998588,16.107499593090324-13.203199999999924-6.583999833679627-4.10149999999885-11.275376637129739-6.637199999999211-14.076199644409826-7.605900000000474l5.74409985489001-5.940399999999499c2.33399994104002.922299999998359,6.718799830269745,3.31590000000142,13.165999667399774,7.189900000001217,1.9160999516007-3.135700000002544,3.406299913950534-6.568400000000111,4.480499886810321-10.302300000001196h-21.990199444479913v-8.638100000000122h11.788999702190267v-8.896999999999025h7.566423340469555v8.896999999999025h13.992176114909853v8.638100000000122h-2.769499930030179c-1.554676184880009,5.718299999998635-3.646499907888938,10.671400000001086-6.275399841470062,14.862800000000789,5.089899871411035,3.870199999997567,9.97459974802041,9.767099999999118,13.195299666650499,14.375Z"/><path class="uuid-384b854a-7903-44b0-9c61-1a5256a086f5" d="M1470.730726969430179,379.34809999999743l-5.257800000001225,7.594700000001467c-16.603499999999258-4.090299999999843-29.60149999999885-8.812900000000809-38.997999999999593-14.167900000000373v6.573199999998906h-49.371100000000297v-7.231899999998859c-14.216800000000148,7.352999999999156-26.97269999999935,12.149900000000343-38.269599999999627,14.388200000001234l-4.818299999999908-7.668000000001484c27.361299999999574-6.66990000000078,50.146499999999833-17.819800000001123,68.35739999999987-33.44970000000103l8.98240000000078,2.99460000000181c-.974600000000464,1.21730000000025-1.826100000000224,2.070299999999406-2.556600000000799,2.555199999998877,16.164099999999962,13.438500000000204,36.808600000000297,22.909200000000055,61.931600000000799,28.411599999999453ZM1455.174126969429381,421.193799999999101h-106.041000000000167v-34.251000000000204h106.041000000000167v34.251000000000204ZM1446.484626969429883,477.282199999999648h-8.98240000000078v-5.842800000002171h-70.548799999999574v5.842800000002171h-8.98239999999987v-48.420400000002701h88.513600000000224v48.420400000002701ZM1397.771726969429437,413.30659999999807v-18.257300000001123h-39.656199999999444v18.257300000001123h39.656199999999444ZM1437.502226969429103,446.317399999998088v-9.420500000000175h-70.548799999999574v9.420500000000175h70.548799999999574ZM1437.502226969429103,463.55319999999665v-9.568399999998292h-70.548799999999574v9.568399999998292h70.548799999999574ZM1388.058926969430104,406.076099999998405l-7.521500000000742,5.25879999999961c-4.527399999999943-4.575200000001132-8.958999999999833-7.959899999999834-13.292999999999665-10.150800000001254l7.595699999999852-4.382399999998597c5.160200000000259,2.190500000000611,9.566399999999703,5.283199999999852,13.218800000000556,9.274400000000242ZM1423.480726969430179,371.241699999996854c-7.060500000000502-3.700699999997596-13.90230000000065-8.691899999997986-20.523400000000038-14.973199999998542-7.060600000000704,5.842299999998431-14.970700000000761,10.834000000000742-23.734400000001187,14.973199999998542h44.257800000001225ZM1446.193626969429715,413.30659999999807v-18.257300000001123h-39.4375v18.257300000001123h39.4375ZM1437.355726969430179,399.357399999998961c-2.873000000000502,4.577099999998609-7.207000000000335,8.473099999999249-13,11.685499999999593l-8.033200000000761-4.016999999999825c6.378900000000613-3.602100000000064,10.759800000000723-7.206099999999424,13.144600000000537-10.808600000000297l7.888600000000224,3.14010000000053Z"/><path class="uuid-384b854a-7903-44b0-9c61-1a5256a086f5" d="M733.043898582759539,281.64299999999821l-2.640599933300109,3.510800000000017c-10.179699742840057-3-18.441399534130142-7.039600000000064-24.779299374019502-12.120100000000093-5.462899861990081,4.460399999999936-14.040999645290867,8.580500000000029-25.742179120010405,12.360799999998562l-2.939420155429616-3.570299999999406c11.320299714019711-3.139699999999721,19.880799497769658-6.949699999999211,25.681599351230034-11.430199999998877-5.820299852970493-5.5-9.732399754140715-12.189900000001217-11.730499703669921-20.070299999999406-1.079999972710539,2.77980000000025-2.562499935260348,5.41990000000078-4.441399887800799,7.91990000000078l-3.177699919719089-2.909200000001874c2.519499936349348-3.001400000001013,4.546899885139283-6.29149999999936,6.087899846209439-9.870999999999185h-10.320299739290022v-3.690000000000509h24.062499392130121v-10.260199999998804h3.869099902260132v10.200199999999313h24.480499381569643v3.689399999999296h-10.261699740770382c-1.798899954549597,10.44090000000142-5.937499850009772,18.75-12.419999686238953,24.930199999998877,5.900420959519579,4.480900000002293,13.990299646569838,8.251400000001013,24.271499386849428,11.31000000000131ZM717.17282015542969,245.402799999998024h-23.218720585179653c1.59759995963941,9.260699999998906,5.50779986085945,16.709999999999127,11.728499703709531,22.35109999999986,6.080099846400117-5.66019999999844,9.910220881469286-13.110899999999674,11.490220881470123-22.35109999999986Z"/><path class="uuid-384b854a-7903-44b0-9c61-1a5256a086f5" d="M877.065019531969483,274.652799999998024h-24.152299389869768v4.171399999999267c0,4.459500000000844-2.369199940150793,6.690399999999499-7.109399820399631,6.690399999999499h-3.990199899200888l-1.468799962889534-3.690399999999499h5.578122181279468c1.96100000000024,0,2.941477603490057-.900399999998626,2.941477603490057-2.699699999999211v-4.471700000000055h-26.339899334589063v-3.75h26.339899334589063v-2.579099999999016c4.17959989441988-1.559600000000501,7.169899818880367-3.020000000000437,8.968699773440676-4.380900000000111h-22.980499419471016v-3.450100000001839h29.640699251220212v3.270000000000437c-3.119199921209656,2.121100000000297-6.980499823659557,4.291000000001077-11.580099707469344,6.510700000000725v.629399999999805h24.152299389869768v3.75ZM874.545519595609221,263.523399999998219h-3.601599909009565v-6.209499999999025h-41.912098941210388v6.569400000000314h-3.929699900729247v-10.079600000000937h5.160199869639655v-18.300800000000891c2.839799928259708-.278800000000047,5.951199849660043-1.629899999999907,9.331999764249304-4.049800000000687l1.978499950020705,2.760300000001735c-1.818299954060421,1.680599999999686-4.300699891349723,2.950099999998201-7.441377787679812,3.809999999999491v2.519500000000335h7.681677781609324v3.120599999998376h-7.681677781609324v3.270599999999831h7.681677781609324v3.058600000000297h-7.681677781609324v3.811000000001513h31.892577169989636v-3.811000000001513h-7.322299815020415v-3h7.322299815020415v-3.509299999997893h-7.259799816600207v-3.060100000002421h7.259799816600207v-3.270499999998719h-8.490199785520417v-3.629399999999805h12.298799689309817v20.220200000001569h4.712899880940313v9.779799999998431ZM857.533820025359091,240.243599999999788l-2.101599946900023,2.578599999997095c-1.138699971239475-1.099599999997736-2.689399932060041-2.288499999998749-4.648399882579724-3.569299999999203-1.621099959039384,1.35989999999947-3.44137755499014,2.60989999999947-5.460999862039898,3.75l-2.458899937880233-2.159199999998236c1.939399951000269-.800800000000891,3.638599908080323-1.740200000000186,5.09959987116963-2.820300000001225-2.441399938319591-.919899999998961-4.412077626238897-1.559999999999491-5.910199850689423-1.920899999999165l1.531299961309742-2.760200000000623c2.218699943950924.560499999999593,4.44919988761103,1.280699999999342,6.689399831009723,2.160599999999249,1.419899964130309-1.338400000000547,2.609422432130486-2.709999999999127,3.568422432130319-4.110300000000279l2.521477414030414,2.010200000000623c-.80079997977009,1.239799999999377-1.84179995346949,2.451199999999517-3.119199921199652,3.630900000000111,1.478499962649948.838800000001356,2.908199926529051,1.909100000000763,4.289099891639125,3.209900000001653ZM857.893220016288979,251.16349999999693l-2.51959993634955,1.979500000001281c-1.619099959099913-1.240200000000186-3.300799916620235-2.270000000000437-5.040999872659995-3.08980000000156-1.080099972709831.819800000001123-2.999999924209988,1.849600000001374-5.759799854489756,3.08980000000156l-2.281199942370222-1.800699999999779c2.581999934770465-1.219300000000658,4.431599888040182-2.278800000000047,5.550822230469748-3.178800000001502-1.119222342429566-.700099999998201-2.820322299449799-1.479400000000169-5.099622241869838-2.339799999997922l2.249999943160219-1.891100000000733c2.060499947940116.740699999998469,3.820299903490195,1.511200000000827,5.2811998665793,2.311000000001513.560599985840781-.320300000003044,1.68949995732055-1.27980000000025,3.388699914400604-2.880800000002637l2.759722517729642,1.410600000001068c-1.019522561689882,1.319799999999304-2.158222532929358,2.410699999998542-3.417922501109388,3.269500000000335,1.658199958109435.759799999999814,3.287099916969964,1.799399999999878,4.888699876509236,3.120599999998376Z"/><path class="uuid-384b854a-7903-44b0-9c61-1a5256a086f5" d="M979.428891533520073,251.913099999999758c4.040999897919392,4.539999999997235,6.062499846849278,8.970699999998033,6.062499846849278,13.290499999999156,0,2.100099999999657-.544899986230121,3.770499999998719-1.636676219600304,5.009799999999814-1.087923711569601,1.240699999998469-2.613323673029299,1.860799999998562-4.574223623500075,1.860799999998562-1.080099972708922,0-2.380899939849769-.131399999998393-3.900399901459423-.389699999999721l-1.10937647505034-3.991699999998673c2.140576449000946.541999999999462,3.679676410110915.811600000000908,4.619076386379675.811600000000908.779299980320502,0,1.490299962350036-.300800000000891,2.130923613620325-.900900000000547.640576316370243-.599099999999453.960876308279694-1.399400000002061.960876308279694-2.399900000000343,0-1.499500000001717-.550699986089967-3.419400000000678-1.650399958309208-5.760800000000017-1.101476349960649-2.339299999999639-2.751899930480249-4.569800000001123-4.951099874920146-6.688900000001013l5.851499852170491-15.031299999998737h-8.910099774910123v47.791999999997643h-3.931699900670537v-51.601499999997031h16.830099574829546v3.809499999999389l-5.790999853708854,14.190500000000611ZM1020.801990488349475,274.504399999999805c-.521499986820345,3.239699999998265-1.220799969159998,5.590299999999843-2.101599946910028,7.049299999998766-.878899977789843,1.460399999999936-2.310599941630244,2.190399999999499-4.289099891650039,2.190399999999499h-4.679699881779925c-3.121099921149835,0-4.679599881779723-1.640599999998813-4.679599881779723-4.91990000000078v-15.870100000000093h-6.332099840040428c-.119099996990371,6.439900000001217-1.374999965260031,11.264100000000326-3.763699904920031,14.475099999999657-2.390599939610183,3.209400000001551-6.824199827599841,5.905200000001059-13.306599663849738,8.085399999999936l-2.519499936350257-3.451099999998405c6.019499847940097-1.779300000000148,10.150399743580238-4.08009999999922,12.390623619689904-6.900000000001455,2.240176010710456-2.819799999997485,3.369075982190225-6.870100000000093,3.390575981649818-12.149399999998423h-8.220699792329469v-3.931100000001607h32.132799188259924v3.871100000000297h-10.023399746790346v14.940399999999499c0,.499500000001717.160199995950279.964900000002672.48049998785973,1.394500000002154.32029999191036.430700000000797.701099982290543.64509999999791,1.140599971190568.64509999999791h3.810499903730488c.779299980319593,0,1.374999965270035-.640699999999924,1.785199954909331-1.919999999998254.408199989680725-1.279300000000148.753924551519958-2.939900000001217,1.035199973840463-4.980400000000373l3.74999990526976,1.470700000001671ZM1017.350790575539577,247.292899999998554l-3.808599903790309.061099999998987v-5.281800000000658h-22.62109942853931v5.281800000000658h-3.871099902210517v-9.091300000000047h13.169899667299433v-6.809600000000501h3.931699900680542v6.750500000001921h13.199199666560162v9.089299999999639ZM1012.311715160759377,253.0829999999969h-20.281223945579768v-3.930199999998877h20.281223945579768v3.930199999998877Z"/><path class="uuid-384b854a-7903-44b0-9c61-1a5256a086f5" d="M1166.668724497540097,274.652799999998024h-24.15230000000065v4.171399999999267c0,4.459500000000844-2.371099999999387,6.690399999999499-7.109400000000278,6.690399999999499h-3.990200000000186l-1.470699999999852-3.690399999999499h5.580100000001039c1.960899999999128,0,2.941399999999703-.900399999998626,2.941399999999703-2.699699999999211v-4.471700000000055h-26.341824835340958v-3.75h26.341824835340958v-2.579099999999016c4.179699999999684-1.559600000000501,7.16989999999987-3.020000000000437,8.968699999999444-4.380900000000111h-22.980525146819673v-3.450100000001839h29.640725146819932v3.270000000000437c-3.119200000000092,2.121100000000297-6.980499999999665,4.291000000001077-11.58010000000013,6.510700000000725v.629399999999805h24.15230000000065v3.75ZM1164.147324497539557,263.523399999998219h-3.599699999999757v-6.209499999999025h-41.910124999840264v6.569400000000314h-3.931699900669628v-10.079600000000937h5.16219986959004v-18.300800000000891c2.837799928309323-.278800000000047,5.949199849709657-1.629899999999907,9.328125030919182-4.049800000000687l1.980500000000575,2.760300000001735c-1.820399999999609,1.680599999999686-4.298925207999673,2.950099999998201-7.439525128659625,3.809999999999491v2.519500000000335h7.679725128658902v3.120599999998376h-7.679725128658902v3.270599999999831h7.679725128658902v3.058600000000297h-7.679725128658902v3.811000000001513h31.89062512865894v-3.811000000001513h-7.320299999999406v-3h7.320299999999406v-3.509299999997893h-7.259699999999611v-3.060100000002421h7.259699999999611v-3.270499999998719h-8.490199999999277v-3.629399999999805h12.298799999999574v20.220200000001569h4.71100000000024v9.779799999998431ZM1147.137524497539744,240.243599999999788l-2.101600000000872,2.578599999997095c-1.140599999998813-1.099599999997736-2.689399999999296-2.288499999998749-4.650399999999536-3.569299999999203-1.619099999999889,1.35989999999947-3.439400000000205,2.60989999999947-5.45889999999963,3.75l-2.46100000000024-2.159199999998236c1.941399999999703-.800800000000891,3.64260000000013-1.740200000000186,5.101599999999962-2.820300000001225-2.441399999999703-.919899999998961-4.410200000000259-1.559999999999491-5.910200000000259-1.920899999999165l1.529300000000148-2.760200000000623c2.220699999999852.560499999999593,4.451200000000426,1.280699999999342,6.689500000000407,2.160599999999249,1.41989999999987-1.338400000000547,2.611299999999574-2.709999999999127,3.572199999999611-4.110300000000279l2.519600000000537,2.010200000000623c-.800800000000891,1.239799999999377-1.841800000000148,2.451199999999517-3.121100000000297,3.630900000000111,1.480400000000373.838800000001356,2.910100000000057,1.909100000000763,4.291000000000167,3.209900000001653ZM1147.496924497540022,251.16349999999693l-2.519600000000537,1.979500000001281c-1.621099999999387-1.240200000000186-3.300699999999779-2.270000000000437-5.03899999999976-3.08980000000156-1.082099999999627.819800000001123-3,1.849600000001374-5.761700000000019,3.08980000000156l-2.279300000000148-1.800699999999779c2.579999999999927-1.219300000000658,4.429600000000391-2.278800000000047,5.550699999999779-3.178800000001502-1.121099999999387-.700099999998201-2.822199999999611-1.479400000000169-5.10149999999976-2.339799999997922l2.25-1.891100000000733c2.060499999999593.740699999998469,3.820299999999406,1.511200000000827,5.279300000000148,2.311000000001513.560499999999593-.320300000003044,1.689399999999296-1.27980000000025,3.390599999999722-2.880800000002637l2.759800000000723,1.410600000001068c-1.019600000000537,1.319799999999304-2.160200000000259,2.410699999998542-3.420000000000073,3.269500000000335,1.66019999999935.759799999999814,3.29109999999946,1.799399999999878,4.890699999999924,3.120599999998376Z"/><path class="uuid-384b854a-7903-44b0-9c61-1a5256a086f5" d="M1311.66348300935897,282.514099999998507h-54.59959999998955v-3.86960000000181h25.439400000000205v-14.070799999997689h-18.329999999999927v-3.870100000000093h18.329999999999927v-12.240200000000186h-13.589799999999741c-1.640600000000632,4.259200000000419-4.380900000000111,8.189399999999296-8.220699999999852,11.789499999998952l-3.959000000000742-2.070299999999406c6.558600000000297-6.059600000000501,10.209000000000742-13.47899999999936,10.949200000000019-22.259300000001531l4.050799999999981,1.16990000000078c-.160200000009354,2.040100000001985-.630900000009206,4.559600000000501-1.412099999999555,7.559600000000501h12.122999999999593v-13.139599999998609h4.048899999990681v13.079999999998108h21.179700000009689v3.870200000001205h-21.179700000009689v12.179599999999482h18.060499999999593v3.870200000001205h-18.060499999999593v14.071199999998498h25.169899999998961v3.929700000000594Z"/><path class="uuid-384b854a-7903-44b0-9c61-1a5256a086f5" d="M1457.080053938860146,245.342299999998431l-2.158200000000761,3.121100000000297c-6.820300000000316-1.679700000000594-12.162100000000464-3.619699999999284-16.021499999999833-5.820400000000518v2.699300000000221h-20.281199999999444v-2.969300000000658c-5.83980000000065,3.02100000000064-11.080100000001039,4.989799999999377-15.718800000000556,5.910700000000361l-1.980400000000373-3.150399999998626c11.240200000000186-2.740700000002107,20.599600000000464-7.320800000001327,28.08010000000013-13.740700000002107l3.689400000000205,1.230400000000373c-.400400000000445.5-.75.85109999999986-1.048800000000483,1.05029999999897,6.638700000000426,5.519500000002154,15.121100000000297,9.409700000000157,25.439400000001115,11.669000000001688ZM1450.691453938859922,262.534199999998236h-43.560600000000704v-14.070799999999508h43.560600000000704v14.070799999999508ZM1447.121053938859404,285.573699999999008h-3.691399999999703v-2.399900000000343h-28.980400000000373v2.399900000000343h-3.689500000000407v-19.889600000002247h36.361300000000483v19.889600000002247ZM1427.109353938859385,259.292899999998554v-7.5h-16.28899999999976v7.5h16.28899999999976ZM1443.429653938859701,272.853999999997541v-3.870599999998376h-28.980400000000373v3.870599999998376h28.980400000000373ZM1443.429653938859701,279.934099999996761v-3.929699999996956h-28.980400000000373v3.929699999996956h28.980400000000373ZM1423.119153938860109,256.323699999999008l-3.08980000000065,2.159700000000157c-1.859400000000278-1.87840000000142-3.679699999999684-3.269599999999627-5.458999999999833-4.169499999999971l3.119099999999889-1.799800000000687c2.121100000000297.899000000001251,3.929700000000594,2.169999999998254,5.429700000000594,3.809600000000501ZM1437.66995393885918,242.014099999998507c-2.900399999999536-1.520000000000437-5.708999999999833-3.57129999999961-8.429699999999684-6.15230000000156-2.902399999999943,2.400900000000547-6.150399999999536,4.452100000002247-9.75,6.15230000000156h18.179699999999684ZM1447.00005393885931,259.292899999998554v-7.5h-16.199299999999312v7.5h16.199299999999312ZM1443.371053938859404,253.563499999998385c-1.181599999999889,1.879300000000512-2.960900000000038,3.479400000000169-5.341699999999946,4.799299999998766l-3.298899999999776-1.648999999997613c2.619200000000092-1.480400000000373,4.41989999999987-2.960900000001857,5.400399999999536-4.440400000001318l3.240200000000186,1.290100000000166Z"/></g></svg>