<?xml version="1.0" encoding="UTF-8"?><svg id="uuid-1f476490-04e1-4749-ab7d-9338e1154684" xmlns="http://www.w3.org/2000/svg" width="945.041346362458285mm" height="250.000233591362104mm" xmlns:xlink="http://www.w3.org/1999/xlink" viewBox="0 0 2678.85739999999987 708.66209011461433"><defs><style>.uuid-276b0e0f-55bc-4c43-b6ea-f3c694f95701{fill:#00c2f3;}.uuid-8d494053-67a9-41d4-bc32-6bc3e38363df{fill:#fff;}.uuid-da4df195-774a-43c4-876f-32df410a3ffc{fill:#ee212e;}.uuid-2c2a39af-817f-475c-8c1f-5b47851c5308{fill:none;}.uuid-07db973b-a46d-4f73-be05-9ed15f8bce7c{fill:#333e48;}.uuid-27a6d325-4ae7-401b-b182-bf2ef664fe98{fill:#46bc96;}.uuid-bb71bc09-ba0d-4fb0-850f-ad87497a1c21{clip-path:url(#uuid-b3c92a54-b47f-4086-ba69-f461f6ed3294);}</style><clipPath id="uuid-b3c92a54-b47f-4086-ba69-f461f6ed3294"><rect class="uuid-2c2a39af-817f-475c-8c1f-5b47851c5308" y="-.000509885385327" width="2678.85739999999987" height="708.661599999999453"/></clipPath></defs><g class="uuid-bb71bc09-ba0d-4fb0-850f-ad87497a1c21"><rect class="uuid-2c2a39af-817f-475c-8c1f-5b47851c5308" x="1761.576146874999722" y="324.373036989614775" width="792" height="79.416015625"/><path class="uuid-07db973b-a46d-4f73-be05-9ed15f8bce7c" d="M1829.694310937499722,379.380849489614775v7.7763671875h-64.0859375v-7.7763671875h64.0859375ZM1823.645482812499722,337.112783083364775v7.4169921875h-51.98828125v-7.4169921875h51.98828125Z"/><path class="uuid-07db973b-a46d-4f73-be05-9ed15f8bce7c" d="M1866.123021874999722,337.977040895864775v-3.38427734375h-23.1142578125v-4.96826171875h52.9970703125v4.96826171875h-23.1865234375v3.38427734375h27.9384765625v12.9609375h-6.408203125v-8.49658203125h-21.5302734375v11.376953125h-2.015625l4.6083984375,2.232421875-1.5126953125,1.15185546875c6.7685546875,3.38427734375,18.7216796875,6.7685546875,29.5947265625,8.208984375-1.3681640625,1.2958984375-3.16796875,3.88818359375-4.0322265625,5.47216796875-4.96875-.86376953125-10.0810546875-2.23193359375-14.9052734375-3.88818359375v2.59228515625h-29.955078125v-2.736328125c-4.4638671875,1.72802734375-9,3.16845703125-13.1767578125,4.392578125-1.2958984375-1.3681640625-3.744140625-3.67236328125-5.328125-4.75244140625,11.80859375-2.59228515625,24.6982421875-7.12890625,32.474609375-12.67333984375h-2.4482421875v-11.376953125h-21.4580078125v8.49658203125h-6.1201171875v-12.9609375h27.578125ZM1848.985326562499722,343.017568239614775c4.46484375.72021484375,10.6572265625,2.23193359375,13.9697265625,3.38427734375l-1.65625,3.60009765625,1.7998046875-.431640625.50390625,4.0322265625c-6.1201171875,1.72802734375-12.1689453125,3.38427734375-17.353515625,4.82421875l-1.8720703125-4.896484375c4.248046875-.7197265625,10.0087890625-2.087890625,16.1298828125-3.38427734375-3.384765625-1.22412109375-9.0732421875-2.73583984375-13.3935546875-3.60009765625l1.8720703125-3.5283203125ZM1886.285131249999722,372.468251833364775l1.0078125-.3603515625,4.3203125,2.736328125c-3.384765625,4.46435546875-8.9287109375,8.78466796875-14.11328125,12.02490234375l5.904296875,2.59228515625-2.9521484375,4.82470703125c-5.6162109375-2.88037109375-16.9208984375-7.6328125-25.1298828125-10.72900390625l2.8798828125-4.1044921875c3.6728515625,1.29638671875,8.208984375,3.0244140625,12.529296875,4.6806640625,3.3837890625-1.65625,7.2724609375-4.1044921875,10.296875-6.552734375h-35.859375v-5.1123046875h41.1162109375ZM1880.379857812499722,365.411611208364775c-4.3203125-1.728515625-8.13671875-3.6005859375-11.0888671875-5.32861328125-3.3837890625,1.9443359375-7.1279296875,3.744140625-11.0166015625,5.32861328125h22.10546875ZM1876.923803124999722,349.138173708364775l.7197265625.14404296875-1.7998046875-2.736328125c4.1044921875-.64794921875,10.224609375-2.59228515625,13.7529296875-3.744140625l2.736328125,3.671875c-3.744140625,1.4404296875-8.8564453125,2.5205078125-12.888671875,3.240234375,5.328125,1.15234375,11.5927734375,2.95263671875,15.193359375,4.32080078125l-1.65625,4.248046875c-4.1044921875-1.72802734375-11.880859375-4.0322265625-17.7861328125-5.47216796875l1.728515625-3.67236328125Z"/><path class="uuid-07db973b-a46d-4f73-be05-9ed15f8bce7c" d="M1973.694310937499722,379.380849489614775v7.7763671875h-64.0859375v-7.7763671875h64.0859375ZM1967.645482812499722,337.112783083364775v7.4169921875h-51.98828125v-7.4169921875h51.98828125Z"/><path class="uuid-07db973b-a46d-4f73-be05-9ed15f8bce7c" d="M2010.123021874999722,337.977040895864775v-3.38427734375h-23.1142578125v-4.96826171875h52.9970703125v4.96826171875h-23.1865234375v3.38427734375h27.9384765625v12.9609375h-6.408203125v-8.49658203125h-21.5302734375v11.376953125h-2.015625l4.6083984375,2.232421875-1.5126953125,1.15185546875c6.7685546875,3.38427734375,18.7216796875,6.7685546875,29.5947265625,8.208984375-1.3681640625,1.2958984375-3.16796875,3.88818359375-4.0322265625,5.47216796875-4.96875-.86376953125-10.0810546875-2.23193359375-14.9052734375-3.88818359375v2.59228515625h-29.955078125v-2.736328125c-4.4638671875,1.72802734375-9,3.16845703125-13.1767578125,4.392578125-1.2958984375-1.3681640625-3.744140625-3.67236328125-5.328125-4.75244140625,11.80859375-2.59228515625,24.6982421875-7.12890625,32.474609375-12.67333984375h-2.4482421875v-11.376953125h-21.4580078125v8.49658203125h-6.1201171875v-12.9609375h27.578125ZM1992.985326562499722,343.017568239614775c4.46484375.72021484375,10.6572265625,2.23193359375,13.9697265625,3.38427734375l-1.65625,3.60009765625,1.7998046875-.431640625.50390625,4.0322265625c-6.1201171875,1.72802734375-12.1689453125,3.38427734375-17.353515625,4.82421875l-1.8720703125-4.896484375c4.248046875-.7197265625,10.0087890625-2.087890625,16.1298828125-3.38427734375-3.384765625-1.22412109375-9.0732421875-2.73583984375-13.3935546875-3.60009765625l1.8720703125-3.5283203125ZM2030.285131249999722,372.468251833364775l1.0078125-.3603515625,4.3203125,2.736328125c-3.384765625,4.46435546875-8.9287109375,8.78466796875-14.11328125,12.02490234375l5.904296875,2.59228515625-2.9521484375,4.82470703125c-5.6162109375-2.88037109375-16.9208984375-7.6328125-25.1298828125-10.72900390625l2.8798828125-4.1044921875c3.6728515625,1.29638671875,8.208984375,3.0244140625,12.529296875,4.6806640625,3.3837890625-1.65625,7.2724609375-4.1044921875,10.296875-6.552734375h-35.859375v-5.1123046875h41.1162109375ZM2024.379857812499722,365.411611208364775c-4.3203125-1.728515625-8.13671875-3.6005859375-11.0888671875-5.32861328125-3.3837890625,1.9443359375-7.1279296875,3.744140625-11.0166015625,5.32861328125h22.10546875ZM2020.923803124999722,349.138173708364775l.7197265625.14404296875-1.7998046875-2.736328125c4.1044921875-.64794921875,10.224609375-2.59228515625,13.7529296875-3.744140625l2.736328125,3.671875c-3.744140625,1.4404296875-8.8564453125,2.5205078125-12.888671875,3.240234375,5.328125,1.15234375,11.5927734375,2.95263671875,15.193359375,4.32080078125l-1.65625,4.248046875c-4.1044921875-1.72802734375-11.880859375-4.0322265625-17.7861328125-5.47216796875l1.728515625-3.67236328125Z"/><path class="uuid-07db973b-a46d-4f73-be05-9ed15f8bce7c" d="M2088.963842187499722,358.210927614614775v8.4248046875h22.8251953125v6.26416015625h-22.8251953125v11.953125h29.162109375v6.33642578125h-64.8779296875v-6.33642578125h28.5869140625v-11.953125h-22.10546875v-6.26416015625h22.10546875v-8.4248046875h7.12890625ZM2058.000951562499722,351.226064333364775c1.51171875-.2880859375,3.0966796875-1.43994140625,5.0400390625-3.31201171875,1.583984375-1.3681640625,5.7607421875-5.7607421875,9.6494140625-10.873046875h-17.7138671875v-6.33642578125h60.7734375v6.33642578125h-34.130859375c-3.81640625,4.96826171875-7.9208984375,9.57666015625-11.953125,13.39306640625l30.2421875-1.080078125c-2.6640625-2.3759765625-5.400390625-4.75244140625-7.9921875-6.7685546875l5.400390625-3.67236328125c6.48046875,4.896484375,14.689453125,11.953125,18.6494140625,16.92138671875l-5.9765625,4.1767578125c-1.080078125-1.4404296875-2.5205078125-3.16845703125-4.248046875-4.96875-38.1630859375,1.65625-42.4833984375,1.80029296875-45.5078125,2.80810546875-.3603515625-1.43994140625-1.4404296875-4.82421875-2.232421875-6.62451171875Z"/><path class="uuid-07db973b-a46d-4f73-be05-9ed15f8bce7c" d="M2189.694310937499722,379.380849489614775v7.7763671875h-64.0859375v-7.7763671875h64.0859375ZM2183.645482812499722,337.112783083364775v7.4169921875h-51.98828125v-7.4169921875h51.98828125Z"/><path class="uuid-07db973b-a46d-4f73-be05-9ed15f8bce7c" d="M2226.123021874999722,337.977040895864775v-3.38427734375h-23.1142578125v-4.96826171875h52.9970703125v4.96826171875h-23.1865234375v3.38427734375h27.9384765625v12.9609375h-6.408203125v-8.49658203125h-21.5302734375v11.376953125h-2.015625l4.6083984375,2.232421875-1.5126953125,1.15185546875c6.7685546875,3.38427734375,18.7216796875,6.7685546875,29.5947265625,8.208984375-1.3681640625,1.2958984375-3.16796875,3.88818359375-4.0322265625,5.47216796875-4.96875-.86376953125-10.0810546875-2.23193359375-14.9052734375-3.88818359375v2.59228515625h-29.955078125v-2.736328125c-4.4638671875,1.72802734375-9,3.16845703125-13.1767578125,4.392578125-1.2958984375-1.3681640625-3.744140625-3.67236328125-5.328125-4.75244140625,11.80859375-2.59228515625,24.6982421875-7.12890625,32.474609375-12.67333984375h-2.4482421875v-11.376953125h-21.4580078125v8.49658203125h-6.1201171875v-12.9609375h27.578125ZM2208.985326562499722,343.017568239614775c4.46484375.72021484375,10.6572265625,2.23193359375,13.9697265625,3.38427734375l-1.65625,3.60009765625,1.7998046875-.431640625.50390625,4.0322265625c-6.1201171875,1.72802734375-12.1689453125,3.38427734375-17.353515625,4.82421875l-1.8720703125-4.896484375c4.248046875-.7197265625,10.0087890625-2.087890625,16.1298828125-3.38427734375-3.384765625-1.22412109375-9.0732421875-2.73583984375-13.3935546875-3.60009765625l1.8720703125-3.5283203125ZM2246.285131249999722,372.468251833364775l1.0078125-.3603515625,4.3203125,2.736328125c-3.384765625,4.46435546875-8.9287109375,8.78466796875-14.11328125,12.02490234375l5.904296875,2.59228515625-2.9521484375,4.82470703125c-5.6162109375-2.88037109375-16.9208984375-7.6328125-25.1298828125-10.72900390625l2.8798828125-4.1044921875c3.6728515625,1.29638671875,8.208984375,3.0244140625,12.529296875,4.6806640625,3.3837890625-1.65625,7.2724609375-4.1044921875,10.296875-6.552734375h-35.859375v-5.1123046875h41.1162109375ZM2240.379857812499722,365.411611208364775c-4.3203125-1.728515625-8.13671875-3.6005859375-11.0888671875-5.32861328125-3.3837890625,1.9443359375-7.1279296875,3.744140625-11.0166015625,5.32861328125h22.10546875ZM2236.923803124999722,349.138173708364775l.7197265625.14404296875-1.7998046875-2.736328125c4.1044921875-.64794921875,10.224609375-2.59228515625,13.7529296875-3.744140625l2.736328125,3.671875c-3.744140625,1.4404296875-8.8564453125,2.5205078125-12.888671875,3.240234375,5.328125,1.15234375,11.5927734375,2.95263671875,15.193359375,4.32080078125l-1.65625,4.248046875c-4.1044921875-1.72802734375-11.880859375-4.0322265625-17.7861328125-5.47216796875l1.728515625-3.67236328125Z"/><path class="uuid-07db973b-a46d-4f73-be05-9ed15f8bce7c" d="M2333.694310937499722,379.380849489614775v7.7763671875h-64.0859375v-7.7763671875h64.0859375ZM2327.645482812499722,337.112783083364775v7.4169921875h-51.98828125v-7.4169921875h51.98828125Z"/><path class="uuid-07db973b-a46d-4f73-be05-9ed15f8bce7c" d="M2406.845678124999722,355.906728395864775v7.48876953125h-66.2451171875v-7.48876953125h66.2451171875Z"/><path class="uuid-07db973b-a46d-4f73-be05-9ed15f8bce7c" d="M2424.481420312499722,371.100087770864775v-19.15380859375h21.3857421875v-10.0810546875h-16.6337890625c-3.240234375,5.40087890625-6.83984375,10.22509765625-10.583984375,13.8974609375-1.296875-1.22412109375-4.1767578125-3.45654296875-5.8330078125-4.392578125,6.6962890625-5.83251953125,12.45703125-15.12109375,15.841796875-24.6982421875l6.912109375,1.80029296875c-.8642578125,2.30419921875-1.7998046875,4.6083984375-2.8798828125,6.8408203125h42.123046875v6.55224609375h-21.9619140625v10.0810546875h20.3056640625v6.33642578125h-20.3056640625v12.8173828125h25.634765625v6.62451171875h-25.634765625v16.05712890625h-6.984375v-16.05712890625h-33.123046875v-6.62451171875h11.7373046875ZM2445.867162499999722,371.100087770864775v-12.8173828125h-14.6171875v12.8173828125h14.6171875Z"/><path class="uuid-07db973b-a46d-4f73-be05-9ed15f8bce7c" d="M2522.187474999999722,326.528310427114775c1.15234375,2.16015625,2.3759765625,4.89599609375,3.240234375,7.2001953125h24.6259765625v6.3369140625h-53.068359375v13.033203125c0,11.80859375-.935546875,29.09033203125-6.984375,40.611328125-1.3681640625-1.00830078125-4.46484375-2.4482421875-6.1923828125-3.0244140625,5.904296875-10.94482421875,6.408203125-26.64208984375,6.408203125-37.51513671875v-19.44189453125h27.5068359375c-.720703125-1.8720703125-1.5126953125-3.9599609375-2.376953125-5.6162109375l6.8408203125-1.583984375ZM2539.468724999999722,368.435536989614775l1.224609375-.2880859375,4.248046875,2.232421875c-3.240234375,5.9765625-8.064453125,10.5126953125-14.041015625,13.8974609375,5.9765625,1.7998046875,12.888671875,2.9521484375,20.2333984375,3.60009765625-1.439453125,1.43994140625-3.095703125,4.17626953125-3.9599609375,5.904296875-9.0009765625-1.0078125-17.1376953125-2.9521484375-24.1220703125-5.83251953125-7.3447265625,2.736328125-15.697265625,4.392578125-24.337890625,5.40087890625-.50390625-1.65625-1.728515625-4.24853515625-2.80859375-5.7607421875,6.9130859375-.576171875,13.7529296875-1.65625,19.8740234375-3.38427734375-4.1044921875-2.52001953125-7.6328125-5.61669921875-10.44140625-9.216796875l2.736328125-1.080078125h-8.712890625v-5.47265625h40.107421875ZM2515.851537499999722,341.865224489614775v5.61669921875h15.625v-5.61669921875h6.6962890625v5.61669921875h11.0888671875v5.47265625h-11.0888671875v11.6650390625h-28.802734375v-11.6650390625h-10.80078125v-5.47265625h10.80078125v-5.61669921875h6.4814453125ZM2512.323217187499722,373.908193239614775c2.7353515625,3.0244140625,6.5517578125,5.54443359375,11.0166015625,7.560546875,4.6083984375-1.94384765625,8.4970703125-4.46435546875,11.44921875-7.560546875h-22.4658203125ZM2515.851537499999722,352.954579958364775v6.408203125h15.625v-6.408203125h-15.625Z"/><path class="uuid-da4df195-774a-43c4-876f-32df410a3ffc" d="M155.407199999999648,341.492690114614561c7.555699999999888,0,13.676800000000185,6.123000000000502,13.676800000000185,13.674799999999777-.002000000000407-.279299999999239-.011800000000221-.557599999999184-.011800000000221-.836899999999332,0-102.310596481174798,82.936599999999999-185.248099999999795,185.248099999999795-185.248099999999795,7.552700000000186,0,13.675799999999981-6.121094231366442,13.675799999999981-13.675794040518667,0-7.551699809228012-6.123099999999795-13.674799654545495-13.675799999999981-13.674799654545495-28.6875,0-56.533199999999852,5.625999857875286-82.762699999999313,16.718799577647587-25.317400000000816,10.708999729467905-48.050799999999981,26.033199342346052-67.565400000000409,45.548794117416037-19.51760000000013,19.517604238868444-34.843799999999646,42.25-45.551800000000185,67.5693030249804-11.092799999999443,26.228596975020082-16.717799999999443,54.072296975019526-16.717799999999443,82.761796975019934,0,.279300000000148.007799999999406.557600000000093.009799999999814.836899999999332,0-7.551799999999275,6.122099999999591-13.674799999999777,13.674799999999777-13.674799999999777Z"/><path class="uuid-27a6d325-4ae7-401b-b182-bf2ef664fe98" d="M340.645499999999629,553.253390114614376c0-7.552699999999277,6.122100000000501-13.674799999999777,13.674799999999777-13.674799999999777-102.031299999999646,0-184.78519999999935-82.486299999999574-185.236299999999574-184.41110000000026,0-7.551799999999275-6.121100000000297-13.674799999999777-13.676800000000185-13.674799999999777-7.552700000000186,0-13.674799999999777,6.123000000000502-13.674799999999777,13.674799999999777.108400000000074,28.39354000000003,5.722700000000259,55.952100000000428,16.707999999999629,81.924800000000687,10.708000000000538,25.318299999999908,26.034200000000055,48.051699999999983,45.551800000000185,67.566399999999703,19.514600000000428,19.518500000000131,42.247999999999593,34.842800000000352,67.565400000000409,45.552700000000186,26.229499999999462,11.093799999999646,54.075199999999313,16.717799999999443,82.762699999999313,16.717799999999443-7.552699999999277,0-13.674799999999777-6.122999999999593-13.674799999999777-13.675799999999981Z"/><path class="uuid-276b0e0f-55bc-4c43-b6ea-f3c694f95701" d="M502.51760000000013,487.402790114614618c-5.338900000000649-5.340799999999945-13.996100000000297-5.340799999999945-19.339900000000853,0-33.341799999999239,32.291000000000167-78.773399999999128,52.175799999999981-128.85739999999987,52.175799999999981-7.552699999999277,0-13.674799999999777,6.122100000000501-13.674799999999777,13.674799999999777,0,7.552800000000389,6.122100000000501,13.675799999999981,13.674799999999777,13.675799999999981,28.690400000000409,0,56.534200000000055-5.623999999999796,82.763700000000426-16.717799999999443,24.406199999999444-10.322200000000521,46.399400000000242-24.948199999999815,65.433600000000297-43.466800000000148,5.343699999999444-5.340799999999945,5.343699999999444-14,0-19.341800000000148Z"/><path class="uuid-276b0e0f-55bc-4c43-b6ea-f3c694f95701" d="M466.904300000000148,241.74759389294195c-30.070300000000316-30.071299240335065-70.054700000000594-46.630898822004383-112.584000000000742-46.630898822004383-42.52639999999974,0-82.509799999999814,16.559599581669318-112.581999999999425,46.630898822004383-30.070400000000518,30.07219924031142-46.632900000000518,70.055596221673113-46.632900000000518,112.582996221673056,0,42.52925999999934,16.5625,82.50879999999961,46.632900000000518,112.581999999999425,30.072199999999611,30.07130000000052,70.055599999999686,46.634800000000723,112.581999999999425,46.634800000000723,42.529300000000148,0,82.513700000000426-16.563500000000204,112.584000000000742-46.634800000000723,30.072199999999611-30.073199999999815,46.630799999999908-70.052740000000085,46.630799999999908-112.581999999999425,0-42.527399999999943-16.558600000000297-82.510796981361636-46.630799999999908-112.582996221673056Z"/><path class="uuid-07db973b-a46d-4f73-be05-9ed15f8bce7c" d="M242.113299999999981,405.819790114614989v-102.977499999999964h22.33389999999963v7.613299999999981h-12.945300000000316v87.7519199999997h12.945300000000316v7.612280000000283h-22.33389999999963Z"/><path class="uuid-07db973b-a46d-4f73-be05-9ed15f8bce7c" d="M466.529300000000148,302.842290114615025v102.977499999999964h-22.329100000000835v-7.612280000000283h12.938400000000001v-87.7519199999997h-12.938400000000001v-7.613299999999981h22.329100000000835Z"/><path class="uuid-8d494053-67a9-41d4-bc32-6bc3e38363df" d="M293.98239999999987,375.249490114614673c0,2.056700000000092.032199999999648,4.484400000000278.095699999999852,7.271499999999833.0625,2.790039999999863.150400000000445,5.624020000000201.25879999999961,8.496090000000549.106400000000576,2.875.233400000000074,5.623050000000148.386700000000019,8.240229999999428.147500000000036,2.617180000000189.331100000000333,4.804680000000189.545900000000074,6.562480000000505h-13.193400000000111v-72.729500000000371c0-6.263600000000224-.106399999999667-11.9375-.322199999999611-17.021499999999833-.212899999999536-5.086900000000242-.536199999999553-9.496000000000095-.965799999999945-13.22649999999976h13.194300000000112v72.407199999999648Z"/><path class="uuid-8d494053-67a9-41d4-bc32-6bc3e38363df" d="M351.587899999999536,340.170390114614747v8.433600000000297h-12.101599999999962v48.786140000000159h12.101599999999962v8.430659999999989h-36.04109999999946v-8.430659999999989h11.906299999999646v-48.786140000000159h-11.906299999999646v-8.433600000000297h36.04109999999946Z"/><path class="uuid-8d494053-67a9-41d4-bc32-6bc3e38363df" d="M378.621099999999387,340.170390114614747c.255799999999908.688500000000204.513600000000224,1.577199999999721.770500000000538,2.673799999999574.260699999999815,1.092800000000352.492199999999684,2.239300000000185.709899999999834,3.441400000000613.21100000000024,1.201199999999517.404300000000148,2.381899999999405.58010000000013,3.54109999999946l.511700000000019,2.892499999999927c4.121099999999387-4.889599999999518,8.257799999999406-8.416999999999462,12.421899999999368-10.584899999999834,4.162100000000464-2.165999999999258,8.5-3.25,13.002000000000407-3.25,3.432600000000093,0,6.468700000000354.568299999999908,9.10739999999987,1.704099999999926,2.638700000000426,1.139600000000428,4.861300000000483,2.941400000000613,6.662100000000464,5.406200000000354,1.799799999999777,2.468799999999646,3.162099999999555,5.667000000000371,4.087899999999536,9.590799999999945.921900000000278,3.927800000000389,1.382800000000316,8.655300000000352,1.382800000000316,14.194400000000314v28.958969999999681c0,7.252929999999651-.634799999999814,13.272429999999986-1.900400000000445,18.054729999999836-1.263699999999517,4.78610000000026-3.037099999999555,8.603500000000167-5.308599999999387,11.460900000000038-2.273400000000038,2.84860000000026-5.011700000000019,4.867200000000594-8.207000000000335,6.045900000000074-3.195300000000316,1.180699999999888-6.746100000000297,1.771499999999833-10.652399999999943,1.771499999999833-1.929699999999684,0-4-.311499999999796-6.210900000000038-.933599999999387-2.208999999999833-.624000000000706-4.214799999999741-1.49120000000039-6.01760000000013-2.60739999999987l4.184600000000501-9.654300000000148c.987299999999777.729499999999462,2.305699999999888,1.339799999999741,3.957999999999629,1.835900000000038,1.652299999999741.49119999999948,3.336900000000242.738299999999981,5.049799999999777.738299999999981,2.063500000000204,0,3.907200000000557-.332000000000335,5.539999999999964-.997100000000501,1.628900000000613-.664999999999964,3.011800000000221-1.831999999999425,4.14850000000024-3.506800000000112,1.138700000000426-1.673899999999776,2.007800000000316-3.969699999999648,2.608400000000074-6.886700000000019.600599999999758-2.918999999999869.899400000000242-6.630900000000111.899400000000242-11.134799999999814v-28.320300000000316c0-5.148499999999331-.26760000000013-9.322299999999814-.80370000000039-12.518599999999424-.536199999999553-3.19630000000052-1.342800000000352-5.686499999999796-2.415100000000166-7.465799999999945-1.071199999999408-1.780300000000352-2.412099999999555-2.970699999999852-4.024399999999332-3.574200000000019-1.606400000000576-.597700000000259-3.483400000000074-.899400000000242-5.629900000000816-.899400000000242-2.315399999999499,0-4.576099999999315.546800000000076-6.787099999999555,1.643500000000131-2.209899999999834,1.092800000000352-4.24120000000039,2.509799999999814-6.085900000000038,4.246100000000297s-3.474599999999555,3.699200000000019-4.888700000000426,5.889699999999721c-1.415999999999258,2.188400000000001-2.468699999999444,4.375-3.157199999999648,6.564400000000205v37.33010000000013h-11.905300000000352v-39.583000000000538c0-6.349599999999555-.365199999999277-11.724599999999555-1.095699999999852-16.123099999999795-.727499999999964-4.398400000000038-1.438499999999294-7.712800000000243-2.122999999999593-9.944300000000112h11.587899999999536Z"/><path class="uuid-07db973b-a46d-4f73-be05-9ed15f8bce7c" d="M731.92476842888118,379.632790114614181h-54.992198610780179v-9.128900000000613h54.992198610780179v9.128900000000613ZM724.768468609664524,476.839390114614616h-9.421289496582176v-10.005900000000111h-21.983000000000175v10.005900000000111h-9.566809468400606v-49.370600000000195h40.971098964982957v49.370600000000195ZM724.330068620739439,398.475590114613624l-40.386798979743617.145500000000538v-9.127899999999499h40.386798979743617v8.982399999998961ZM724.476068617051169,417.609890114613336h-40.532798976055346v-9.129899999999907h40.532798976055346v9.129899999999907ZM722.65036866317223,361.083490114614506l-37.100099062772642.145499999999629v-9.127900000000409h37.100099062772642v8.98240000000078ZM715.347179113082348,457.84959011461342v-21.396899999999732h-22.128509706402838v21.396899999999732h22.128509706402838ZM809.704066464010793,417.755890114613976l-78.947298005623452.14600000000064v-8.98240000000078h19.572299505562114l4.236299892982061-22.566399999999703h-18.257799538769177v-8.983900000000176h19.718799501861213l3.140599920661771-16.724100000000362h-27.971699293375423v-9.128999999998996h72.520498167978076v8.983399999999165h-34.690399123647694l-2.994188378556828,16.724700000000666h30.088887694088044l-3.140599920661771,31.54779999999937h16.724599577501067v8.983900000000176ZM796.997066785016614,477.131390114614078h-9.421887671933291v-9.85989999999947h-36.95311115653567v9.85989999999947h-9.568399758281885v-49.516100000000733h55.943398586750845v49.516100000000733ZM787.575179113083323,458.287590114613522v-21.689899999999398h-37.099611152834768v21.689899999999398h37.099611152834768ZM786.114179113082173,386.206590114613391h-21.68941150522005l-4.236299892982061,22.712900000000445h23.662099402245076l2.263611995957035-22.712900000000445Z"/><path class="uuid-07db973b-a46d-4f73-be05-9ed15f8bce7c" d="M974.375962304048699,379.632790114614181h-132.771496645909792v-9.128900000000613h132.771496645909792v9.128900000000613ZM954.803662798486585,398.329090114613791h-94.941397601578501v-8.835899999999128h94.941397601578501v8.835899999999128ZM954.803662798486585,417.317890114613874h-94.941397601578501v-8.837900000000445h94.941397601578501v8.837900000000445ZM951.372062885176092,477.131390114614078h-9.42188377209277v-10.297899999999572h-68.503914259335943v10.297899999999572h-9.420899762008048v-49.662599999999657h87.346697793436761v49.662599999999657ZM951.225562888876993,360.134290114613577l-86.470697815566382.218800000000556v-8.836999999999534h86.470697815566382v8.618199999998978ZM941.950179113083323,457.84959011461342v-21.396899999999732h-68.503914259335943v21.396899999999732h68.503914259335943Z"/><path class="uuid-07db973b-a46d-4f73-be05-9ed15f8bce7c" d="M1139.049758144038606,450.693890114614078h-58.790998514814419v10.150900000000547c0,10.856399999998757-5.769580516142014,16.286599999999453-17.310580516141272,16.286599999999453h-9.712918801186788l-3.578081198814289-8.983400000000074h13.584000000000742c4.771480825504113,0,7.158180765211-2.191899999999805,7.158180765211-6.572799999999916v-10.88130000000001h-64.122998380116769v-9.129899999999907h64.122998380116769v-6.280800000000454c10.173819234789335-3.797300000000178,17.453099559097609-7.350099999999657,21.835899448378768-10.662099999999555h-55.943298586753372v-8.399900000000343h72.158218373164345v7.961900000000242c-7.597720004099756,5.161200000000463-16.9942197667242,10.442900000000009-28.191419483859136,15.847200000000157v1.533699999999953h58.790998514814419v9.129899999999907ZM1132.914958299016689,423.597690114614124h-8.765599778562319v-15.117700000000696h-102.023397422671223v15.995100000000093h-9.568399758282794v-24.538099999999758h12.560617773582635v-44.550699999999779c6.912081734495587-.68119999999999,14.486281543155201-3.968300000000454,22.714781335285807-9.858400000000074l4.82029987822898,6.718700000000354c-4.433599887997843,4.089399999999841-10.470699735487869,7.182099999999991-18.113299542418645,9.274900000000343v6.134799999999814h18.695299527716998v7.595699999999852h-18.695299527716998v7.959899999999834h18.695299527716998v7.448800000000119h-18.695299527716998v9.276299999999537h77.632798038829606v-9.276299999999537h-17.820299549821357v-7.30370000000039h17.820299549821357v-8.543999999999869h-17.673799553522258v-7.448699999999917h17.673799553522258v-7.960500000000138h-20.66789947788493v-8.837400000000343h29.94331976795911v49.224200000000565h11.466779185933774v23.807099999999991ZM1091.504859345123805,366.926290114613948l-5.111399870875175,6.280299999999443c-2.777280361166049-2.676799999999275-6.550699834515399-5.574699999999211-11.320280361165715-8.690499999998792-3.943319253243317,3.311099999998987-8.375,6.353099999999358-13.292919017052554,9.128999999998996l-5.988299848722818-5.25879999999961c4.722599880697089-1.947299999999814,8.859399776192731-4.235899999999674,12.415999686345458-6.864799999999377-5.941399849907611-2.238800000000992-10.736299728778249-3.797300000000178-14.388699636510864-4.673300000000381l3.726599905858166-6.72019999999975c5.402318910082613,1.363199999999779,10.831999726360664,3.117199999999684,16.285099588603771,5.258299999999508,3.457099912666308-3.260299999999916,6.353599839494564-6.595699999999852,8.691499780434242-10.005400000000009l6.134719541043523,4.893500000000131c-1.949219646778147,3.019099999999526-4.48051958283213,5.964899999999943-7.595719504135559,8.837499999999636,3.601599909015931,2.043400000000474,7.083999821043108,4.64890000000014,10.443399736177525,7.814400000000205ZM1092.379859323019446,393.508790114613475l-6.132799845072441,4.820300000000316c-3.943399900381337-3.01799999999912-8.035199797013775-5.524899999999434-12.269599690043833-7.520999999999731-2.6288999335884,1.996100000000297-7.302699815518281,4.503000000000611-14.021499645787117,7.520999999999731l-5.550699859777524-4.381800000000112c6.27929984137154-2.968299999999545,10.783199727593455-5.551299999999173,13.511699658665748-7.740700000000288-2.728499931072292-1.703099999998813-6.865299826567934-3.602999999999156-12.415999686345458-5.697799999999916l5.476499861651973-4.599599999999555c5.013718996771786,1.802300000000287,9.298899765090027,3.676300000000083,12.853499675293278,5.622100000000501,1.361399965608143-.777400000000853,4.113299896089302-3.113800000000992,8.251999791536946-7.011200000000827l6.718699830271362,3.433100000000195c-2.482399937289301,3.214299999999639-5.255799867227324,5.868599999999788-8.32419978971302,7.96140000000014,4.040999897915754,1.850099999999657,8.007799797705957,4.38130000000001,11.902399699320085,7.594199999999546Z"/><path class="uuid-07db973b-a46d-4f73-be05-9ed15f8bce7c" d="M1303.575179113083323,450.693890114614078h-58.791000000001077v10.150900000000547c0,10.856399999998757-5.769623494366897,16.286599999999453-17.308623202867238,16.286599999999453h-9.712899754631508l-3.578099909609591-8.983400000000074h13.583899656841822c4.769599879509769,0,7.156299819216656-2.191899999999805,7.156299819216656-6.572799999999916v-10.88130000000001h-64.121098380164767v-9.129899999999907h64.121098380164767v-6.280800000000454c10.17579974293767-3.797300000000178,17.453099559097609-7.350099999999657,21.837899448328244-10.662099999999555h-55.943398586750845v-8.399900000000343h72.156298177178542v7.961900000000242c-7.595699808116478,5.161200000000463-16.994199570690398,10.442900000000009-28.191375647706082,15.847200000000157v1.533699999999953h58.791000000001077v9.129899999999907ZM1297.442354142704971,423.597690114614124h-8.767599778511794v-15.117700000000696h-102.023397422672133v15.995100000000093h-9.566399758332409v-24.538099999999758h12.560499682695081v-44.550699999999779c6.914099825335143-.68119999999999,14.484399634093279-3.968300000000454,22.712899426223885-9.858400000000074l4.82029987822898,6.718700000000354c-4.429699888096366,4.089399999999841-10.468699735538394,7.182099999999991-18.113299542419554,9.274900000000343v6.134799999999814h18.697299527666473v7.595699999999852h-18.697299527666473v7.959899999999834h18.697299527666473v7.448800000000119h-18.697299527666473v9.276299999999537h77.632822485165889v-9.276299999999537h-17.818323996207255v-7.30370000000039h17.818323996207255v-8.543999999999869h-17.673823999857632v-7.448699999999917h17.673823999857632v-7.960500000000138h-20.667923924220304v-8.837400000000343h29.943299243568617v49.224200000000565h11.468799710273743v23.807099999999991ZM1258.631755123143193,391.87059011461406l-6.654299831898243,6.083999999999833c-3.037099923276401-4.563499999999294-7.382799813494785-10.276300000000447-11.585899707315548-13.824700000000121-6.533199834957486,7.279300000000148-11.906299699221563,11.912099999999555-16.105499593140848,13.893100000000231l-6.58399983367417-5.528299999999945c4.949299874970166-2.354500000000371,10.316399739385815-6.751999999999498,16.107499593090324-13.203199999999924-6.58399983367417-4.10149999999976-11.275376637122463-6.637200000000121-14.076199644405278-7.605899999999565l5.744099854891829-5.940400000000409c2.333999941038201.922299999999268,6.718799830268836,3.315900000000511,13.165999667398864,7.189900000000307,1.916099951595243-3.135700000000725,3.406299913949624-6.568400000000111,4.48049988681305-10.302300000000287h-21.990199444480822v-8.638100000000122h11.78899970218481v-8.896999999999935h7.566423340475012v8.896999999999935h13.992176114908943v8.638100000000122h-2.769499930036545c-1.554676184872733,5.718299999999545-3.646499907881662,10.671400000000176-6.275399841470062,14.862799999999879,5.089899871418311,3.870199999999386,9.97459974802041,9.767100000000028,13.195299666658684,14.375Z"/><path class="uuid-07db973b-a46d-4f73-be05-9ed15f8bce7c" d="M1470.510679113082915,379.342290114614116l-5.257800000001225,7.594699999999648c-16.603499999999258-4.090299999999843-29.60149999999885-8.8128999999999-38.997999999999593-14.167900000000373v6.573200000000725h-49.371100000000297v-7.231900000000678c-14.216799999998329,7.353000000000975-26.97269999999844,12.149900000000343-38.269599999999627,14.388200000001234l-4.818299999998999-7.668000000000575c27.361299999998664-6.66989999999987,50.146499999998923-17.819800000000214,68.357399999998961-33.449700000000121l8.98240000000078,2.994599999999991c-.974599999999555,1.21730000000025-1.826100000000224,2.070299999999406-2.556599999999889,2.555200000000696,16.164099999999962,13.438499999999294,36.808600000000297,22.909199999999146,61.931599999999889,28.411599999999453ZM1454.954079113083026,421.187990114613967h-106.041000000001077v-34.251000000000204h106.041000000001077v34.251000000000204ZM1446.264579113082618,477.276390114614514h-8.98240000000078v-5.842800000000352h-70.548799999998664v5.842800000000352h-8.98240000000078v-48.420400000000882h88.513600000000224v48.420400000000882ZM1397.551679113082173,413.300790114613847v-18.257300000000214h-39.656199999999444v18.257300000000214h39.656199999999444ZM1437.282179113081838,446.311590114613864v-9.420499999999265h-70.548799999998664v9.420499999999265h70.548799999998664ZM1437.282179113081838,463.547390114613336v-9.568399999999201h-70.548799999998664v9.568399999999201h70.548799999998664ZM1387.838879113082839,406.070290114614181l-7.521500000000742,5.25879999999961c-4.527399999999034-4.575200000000223-8.958999999998923-7.959899999999834-13.292999999999665-10.150800000000345l7.595699999999852-4.382399999999507c5.160200000000259,2.190499999999702,9.566399999999703,5.283199999999852,13.218800000000556,9.274400000000242ZM1423.260679113082915,371.235890114613539c-7.060499999999593-3.700699999999415-13.902299999999741-8.691899999999805-20.523400000000038-14.973199999999451-7.060600000000704,5.842299999999341-14.970699999999852,10.833999999999833-23.734400000001187,14.973199999999451h44.257800000001225ZM1445.97357911308336,413.300790114613847v-18.257300000000214h-39.4375v18.257300000000214h39.4375ZM1437.135679113082915,399.351590114613828c-2.872999999999593,4.577100000000428-7.207000000000335,8.473100000000159-13,11.685499999999593l-8.033199999999852-4.016999999999825c6.378899999999703-3.602100000000064,10.759799999999814-7.206099999999424,13.144599999999627-10.808599999999387l7.888600000000224,3.14009999999962Z"/><path class="uuid-07db973b-a46d-4f73-be05-9ed15f8bce7c" d="M732.823850726404089,281.637190114613986l-2.640599933291924,3.510800000000017c-10.179699742840057-3-18.441399534130142-7.039600000000064-24.77929937402223-12.120100000000093-5.462899861995538,4.460399999999936-14.040999645294505,8.580500000000029-25.742179120014953,12.360799999999472l-2.939420155425978-3.570299999999406c11.320299714024259-3.13970000000063,19.880799497767839-6.949700000000121,25.681599351227305-11.430199999999786-5.820299852966855-5.5-9.732399754138896-12.189900000000307-11.730499703662645-20.070300000000316-1.079999972716905,2.77980000000025-2.562499935265805,5.419903424905897-4.441399887800799,7.919903361750585l-3.177699919724546-2.909199926507426c2.519499936352076-3.001403435243446,4.546899885135645-6.291503435243612,6.087899846205801-9.871003435243438h-10.320299739286384v-3.6899999999996h24.062499392130121v-10.260200000000623h3.869099902258313v10.200200000000223h24.480499381569643v3.689400000000205h-10.261699740765835c-1.798899954555964,10.440903422377232-5.937499850007043,18.75-12.419999686245319,24.930199999999786,5.900420959521398,4.480900000000474,13.990299646575295,8.251402847899044,24.271499386849428,11.3100000000004ZM716.952772299076059,245.3969901146138h-23.218720585179653c1.597599959641229,9.260699999999815,5.507799860861269,16.710000000000036,11.728499703713169,22.351103121500273,6.080099846403755-5.660199857011321,9.910220881465648-13.110903121500087,11.490220881466485-22.351103121500273Z"/><path class="uuid-07db973b-a46d-4f73-be05-9ed15f8bce7c" d="M876.844971675614033,274.6469901146138h-24.152299389861582v4.171400000000176c0,4.459499999999935-2.369199940148974,6.690399999999499-7.10939982040145,6.690399999999499h-3.990199899199069l-1.468799962894991-3.690399999999499h5.578122181279468c1.96100000000115,0,2.941477603497333-.900400000000445,2.941477603497333-2.699700000000121v-4.471700000000055h-26.339899334598158v-3.75h26.339899334598158v-2.579099999999926c4.179599894414423-1.559600000000501,7.169899818873091-3.020000000000437,8.968699773431581-4.380900000000111h-22.98049941946374v-3.45010000000002h29.640699251212936v3.270000000000437c-3.11919992120238,2.121103168742593-6.980499823657738,4.290999999999258-11.580099707462068,6.510699999999815v.629399999999805h24.152299389861582v3.75ZM874.325471739261957,263.517590114613995h-3.601599909015931v-6.209499999999935h-41.912098941211298v6.569400000000314h-3.929699900727428v-10.079600000000937h5.160199869642383v-18.300796063770576c2.839799928260618-.27879999295692,5.951199849660043-1.629899958825263,9.331999764253851-4.049803936229182l1.978499950018886,2.760299999999916c-1.818299954065878,1.680600000000595-4.30069989135427,2.95010000000002-7.441377787685269,3.8100000000004v2.519499999999425h7.681677781614781v3.120600000000195h-7.681677781614781v3.270599999999831h7.681677781614781v3.058600000000297h-7.681677781614781v3.810999999999694h31.892577169996002v-3.810999999999694h-7.322299815023143v-3h7.322299815023143v-3.509299999999712h-7.259799816602026v-3.060100000000602h7.259799816602026v-3.270499999999629h-8.490199785519508v-3.629399999999805h12.298799689306179v20.220203475430026h4.712899880942132v9.779796524569974ZM857.313772169013646,240.237793931082706l-2.101599946909118,2.578596183530863c-1.138699971234018-1.099599999999555-2.689399932060041-2.288499999999658-4.648399882571539-3.569296158503676-1.621099959047569,1.359896158503943-3.441377554996507,2.609896158503943-5.460999862043536,3.749999905267032l-2.458899937882961-2.15919994545402c1.939399951006635-.800803801309485,3.638599908081233-1.74020380130878,5.099599871173268-2.82030380130891-2.441399938325048-.91989999999987-4.412077626241626-1.5600000000004-5.91019985069579-1.920900000000074l1.531299961316108-2.760199999999713c2.218699943950924.560499999999593,4.449199887603754,1.280703958456797,6.689399831011542,2.160603936228654,1.419899964130309-1.338403936229042,2.609422432125939-2.710003936229441,3.568422432124862-4.110303936228775l2.521477414031324,2.010199999999713c-.80079997977009,1.239800000000287-1.841799953472218,2.451199999999517-3.11919992120238,3.630900000000111,1.478499962649948.83880387636782,2.908199926532689,1.909099999999853,4.28909989164822,3.209903816468795ZM857.673172159934438,251.157690114613615l-2.51959993634955,1.979500000000371c-1.619099959098094-1.240200000000186-3.300799916614778-2.26999645205251-5.040999872653629-3.08980000000065-1.080099972714379.81980354794814-2.999999924213625,1.849600000000464-5.759799854495213,3.08980000000065l-2.281199942372041-1.800699999999779c2.581999934772284-1.219296433106138,4.431599888048368-2.278800000000047,5.550822230472477-3.178800000000592-1.119222342424109-.70010000000002-2.820322299450709-1.479400000000169-5.099622241870748-2.339799999999741l2.249999943160219-1.891099999999824c2.060499947947392.740699999999379,3.820299903491104,1.511199999999917,5.281199866585666,2.311003664895907.560599985838053-.320303664896528,1.68949995731964-1.279799967669533,3.388699914394238-2.880803664896121l2.759722517730552,1.410600000000159c-1.019522561691701,1.319800000000214-2.15822253292572,2.410699999999451-3.417922501103021,3.269499999999425,1.658199958110345.759800000000723,3.287099916960869,1.799400000000787,4.88869987650105,3.120600000000195Z"/><path class="uuid-07db973b-a46d-4f73-be05-9ed15f8bce7c" d="M979.208843677172808,251.90729363628634c4.040999897915754,4.539996478327339,6.062499846848368,8.970699773381057,6.062499846848368,13.290496478327441,0,2.100099999999657-.544899986234668,3.770503090675447-1.63667621960667,5.009799999999814-1.087923711564144,1.240700000000288-2.61332367302839,1.860800000000381-4.574223623492799,1.860800000000381-1.080099972714379,0-2.380899939853407-.131400000000212-3.900399901467608-.38970000000063l-1.109376475040335-3.991699999999582c2.140576448990032.542000000000371,3.679676410109096.811603102541085,4.619076386377856.811603102541085.779299980313226,0,1.490299962351855-.300803102541067,2.130923613622144-.900903102540724.640576316363877-.599096859566089.960876308272418-1.399400000000242.960876308272418-2.399900000000343,0-1.499499999999898-.550699986088148-3.419399999999769-1.650399958307389-5.760800000000017-1.101476349964287-2.339299999999639-2.751899930481159-4.569796553100787-4.951099874924694-6.688896499567818l5.851499852178677-15.031303500431932h-8.910099774911941v47.791999999999462h-3.931699900676904v-51.601496023608888h16.830099574835913v3.809496023609427l-5.790999853707035,14.190503521672326ZM1020.581942632000391,274.498593065582099c-.521499986825802,3.239697049031747-1.220799969159998,5.590299858777144-2.101599946909118,7.049297049031338-.878899977797118,1.460399999999936-2.310599941629334,2.190400000000409-4.28909989164822,2.190400000000409h-4.679699881779925c-3.121099921155292,0-4.67959988178427-1.640599999999722-4.67959988178427-4.91989999999987v-15.870100000000093h-6.332099840037699c-.119099996991281,6.439900000000307-1.374999965264578,11.264100000000326-3.763699904920031,14.475099999999657-2.390599939609274,3.209400000000642-6.824199827607117,5.905202727903998-13.30659966384701,8.085399999999936l-2.519499936352986-3.451099999999315c6.01949984793464-1.779300000000148,10.150399743579328-4.08010000000013,12.390623619692633-6.900000000000546,2.240176010702271-2.819796994447643,3.369075982183858-6.870100000000093,3.390575981640723-12.149400000000242h-8.22069979232765v-3.931099999999788h32.132799188257195v3.871100000000297h-10.023399746787618v14.940399999999499c0,.499500000000808.160199995953008.964899999999943.480499987861549,1.394500000000335.320299991908541.430702819218823.701099982288724.645099999999729,1.14059997118602.645099999999729h3.810499903738673c.779299980313226,0,1.374999965265488-.640699999999924,1.785199954902055-1.920000000000073.408199989688001-1.279299999999239.753924551529053-2.939899999999398,1.035199973848648-4.980399999999463l3.749999905267032,1.470702950968189ZM1017.130742719185037,247.28709011461342l-3.808599903786671.061099999999897v-5.281799999999748h-22.621099428542948v5.281799999999748h-3.871099902207789v-9.091299999999137h13.169899667300342v-6.809600000000501h3.931699900676904v6.750500000000102h13.199199666560162v9.089299999999639ZM1012.091667304413022,253.077190114613586h-20.281223945583406v-3.930199999999786h20.281223945583406v3.930199999999786Z"/><path class="uuid-07db973b-a46d-4f73-be05-9ed15f8bce7c" d="M1166.448676641187376,274.6469901146138h-24.15230000000156v4.171400000000176c0,4.459499999999935-2.371100000000297,6.690399999999499-7.109400000001187,6.690399999999499h-3.990199999996548l-1.470700000001671-3.690399999999499h5.58009999999922c1.960900000001857,0,2.941399999999703-.900400000000445,2.941399999999703-2.699700000000121v-4.471700000000055h-26.341824835333682v-3.75h26.341824835333682v-2.579099999999926c4.179700000000594-1.559600000000501,7.16990000000078-3.020000000000437,8.968700000001263-4.380900000000111h-22.980525146816944v-3.45010000000002h29.640725146815385v3.270000000000437c-3.119199999997363,2.121103168742593-6.980499999997846,4.290999999999258-11.58009999999922,6.510699999999815v.629399999999805h24.15230000000156v3.75ZM1163.927276641185927,263.517590114613995h-3.599699999998847v-6.209499999999935h-41.910124999834807v6.569400000000314h-3.931699900676904v-10.079600000000937h5.162199869591859v-18.300796063770576c2.837799928311142-.27879999295692,5.949199849710567-1.629899958825263,9.328125030919182-4.049803936229182l1.980500000001484,2.760299999999916c-1.820400000000518,1.680600000000595-4.298925208000583,2.95010000000002-7.439525128662353,3.8100000000004v2.519499999999425h7.67972512866254v3.120600000000195h-7.67972512866254v3.270599999999831h7.67972512866254v3.058600000000297h-7.67972512866254v3.810999999999694h31.890625128660758v-3.810999999999694h-7.320299999999406v-3h7.320299999999406v-3.509299999999712h-7.259699999998702v-3.060100000000602h7.259699999998702v-3.270499999999629h-8.490200000000186v-3.629399999999805h12.298800000000483v20.220203475430026h4.710999999999331v9.779796524569974ZM1146.917476641186113,240.237793931082706l-2.101599999998143,2.578596183530863c-1.140600000002451-1.099599999999555-2.689400000002934-2.288499999999658-4.650400000002264-3.569296158503676-1.619099999999889,1.359896158503943-3.439399999999296,2.609896158503943-5.458899999997811,3.749999905267032l-2.461000000002969-2.15919994545402c1.941399999999703-.800803801309485,3.642600000002858-1.74020380130878,5.101600000001781-2.82030380130891-2.441399999999703-.91989999999987-4.410200000002078-1.5600000000004-5.910200000002078-1.920900000000074l1.529300000001967-2.760199999999713c2.220699999998033.560499999999593,4.451199999999517,1.280703958456797,6.689500000000407,2.160603936228654,1.41990000000078-1.338403936229042,2.611300000000483-2.710003936229441,3.572199999998702-4.110303936228775l2.519599999999627,2.010199999999713c-.800799999997253,1.239800000000287-1.841799999998329,2.451199999999517-3.121100000000297,3.630900000000111,1.480400000000373.83880387636782,2.910100000000966,1.909099999999853,4.291000000001077,3.209903816468795ZM1147.2768766411873,251.157690114613615l-2.519599999999627,1.979500000000371c-1.621100000000297-1.240200000000186-3.300699999999779-2.26999645205251-5.039000000000669-3.08980000000065-1.082099999999627.81980354794814-3,1.849600000000464-5.761699999999109,3.08980000000065l-2.279300000001967-1.800699999999779c2.580000000001746-1.219296433106138,4.429599999999482-2.278800000000047,5.550699999999779-3.178800000000592-1.121100000000297-.70010000000002-2.822199999998702-1.479400000000169-5.101500000000669-2.339799999999741l2.25-1.891099999999824c2.060499999999593.740699999999379,3.820300000003044,1.511199999999917,5.279300000001967,2.311003664895907.560499999999593-.320303664896528,1.689399999999296-1.279799967669533,3.390599999998813-2.880803664896121l2.759799999999814,1.410600000000159c-1.019599999999627,1.319800000000214-2.16019999999844,2.410699999999451-3.419999999998254,3.269499999999425,1.66019999999844.759800000000723,3.291099999998551,1.799400000000787,4.890699999999924,3.120600000000195Z"/><path class="uuid-07db973b-a46d-4f73-be05-9ed15f8bce7c" d="M1311.443435153013525,282.508290114613374h-54.599599999995917v-3.869599999999991h25.439400000001115v-14.070799999999508h-18.330000000001746v-3.870100000000093h18.330000000001746v-12.240200000000186h-13.58980000000156c-1.640599999998813,4.259200000000419-4.380900000000111,8.189400000000205-8.220699999999852,11.789503310991677l-3.958999999998923-2.070303310991221c6.558600000000297-6.05959648363023,10.208999999998923-13.479000000000269,10.949199999999109-22.259300000000621l4.050800000000891,1.16990000000078c-.160200000011173,2.040100000000166-.630900000011025,4.559599999999591-1.412099999999555,7.559599999999591h12.122999999999593v-13.139600000000428h4.048899999988862v13.080000000000837h21.179700000009689v3.870199999999386h-21.179700000009689v12.179600000000391h18.060500000001412v3.870199999999386h-18.060500000001412v14.071202847899258h25.169900000006237v3.929697152100744Z"/><path class="uuid-07db973b-a46d-4f73-be05-9ed15f8bce7c" d="M1456.860006082512882,245.336490114614207l-2.158199999999852,3.121099999999387c-6.820300000001225-1.679699999999684-12.162100000001374-3.619696299739189-16.021500000000742-5.820399999999609v2.699300000000221h-20.281199999999444v-2.96929623732467c-5.839799999999741,3.020996237324653-11.080100000001039,4.989796237324299-15.718800000000556,5.910696237324373l-1.980400000000373-3.150399999999536c11.240200000000186-2.740700000000288,20.599600000001374-7.320800000000418,28.080100000001039-13.740700000000288l3.689399999999296,1.230404008981168c-.400400000000445.499999987368938-.75.851099978499406-1.048800000000483,1.050295991018174,6.638700000001336,5.519500000000335,15.121100000000297,9.409700000000157,25.439400000001115,11.669000000000779ZM1450.471406082512658,262.528390114614012h-43.560600000000704v-14.070800000000418h43.560600000000704v14.070800000000418ZM1446.90100608251214,285.567890114613874h-3.691399999999703v-2.399900000000343h-28.980400000000373v2.399900000000343h-3.689500000000407v-19.889600000000428h36.361300000000483v19.889600000000428ZM1426.889306082513031,259.28709011461342v-7.5h-16.289000000000669v7.5h16.289000000000669ZM1443.209606082512437,272.848190114613317v-3.870599999999286h-28.980400000000373v3.870599999999286h28.980400000000373ZM1443.209606082512437,279.928290114613446v-3.929697086924534h-28.980400000000373v3.929697086924534h28.980400000000373ZM1422.899106082512844,256.317890114613874l-3.089799999999741,2.159700000000157c-1.859400000001187-1.878396596855055-3.679700000000594-3.269596561710387-5.459000000000742-4.169499999999971l3.119099999999889-1.799800000000687c2.121100000000297.899003483779779,3.929700000000594,2.170000000000073,5.429700000000594,3.809600000000501ZM1437.449906082511916,242.008290114613374c-2.900399999998626-1.519999999999527-5.708999999998923-3.57129999999961-8.429699999998775-6.152299999999741-2.902400000000853,2.400900000000547-6.150400000000445,4.452100000000428-9.75,6.152299999999741h18.179699999998775ZM1446.780006082512955,259.28709011461342v-7.5h-16.199300000000221v7.5h16.199300000000221ZM1443.15100608251214,253.557690114614161c-1.181599999999889,1.879299999999603-2.960900000000038,3.479399999999259-5.341699999999037,4.799299999999675l-3.298899999999776-1.648996599603379c2.619199999999182-1.480403400396426,4.419899999998961-2.960899925201375,5.400399999998626-4.440403400396463l3.240200000000186,1.290100000000166Z"/><rect class="uuid-07db973b-a46d-4f73-be05-9ed15f8bce7c" x="1633.968674983786514" y="222.211394386467873" width="2.999999924213625" height="264.238295728147023"/></g></svg>