<?xml version="1.0" encoding="UTF-8"?><svg id="uuid-1bd13be6-f599-4626-9f55-60d3ab16608c" xmlns="http://www.w3.org/2000/svg" width="223.375851645231137mm" height="246.419401576929943mm" xmlns:xlink="http://www.w3.org/1999/xlink" viewBox="0 0 633.191399999999703 698.511700000000928"><defs><style>.uuid-599e8cec-4d3d-47d7-9b98-885cbd1820f2{clip-path:url(#uuid-d6feda71-2386-4f6c-9510-9645d75df94e);}.uuid-0d30af25-722c-4f9a-aa4a-b28755d08052{fill:#fff;}.uuid-62d9a85b-b5b9-4317-8274-464559485c62{fill:none;}.uuid-51b1fe89-1c05-4d01-bcf7-d4b1a2263701{fill:#333e48;}.uuid-6bb943f8-4e33-4afe-845a-79fd0fdebdcc{fill:#9f9ea7;}.uuid-9ba2ff99-0ac1-40fb-9e0c-2b28e63263bb{fill:#5a5c66;}.uuid-fc814191-7c47-448b-9d3e-2f2b244aa505{fill:#858591;}</style><clipPath id="uuid-d6feda71-2386-4f6c-9510-9645d75df94e"><rect class="uuid-62d9a85b-b5b9-4317-8274-464559485c62" width="633.191399999999703" height="698.511700000000928"/></clipPath></defs><g class="uuid-599e8cec-4d3d-47d7-9b98-885cbd1820f2"><rect class="uuid-62d9a85b-b5b9-4317-8274-464559485c62" x="97.55859375" y="587.748489843750576" width="464.7646484375" height="74.5908203125"/><path class="uuid-51b1fe89-1c05-4d01-bcf7-d4b1a2263701" d="M137.2978515625,619.834915625000576v4.537109375h-37.38671875v-4.537109375h37.38671875ZM133.7685546875,595.176712500000576v4.328125h-30.3291015625v-4.328125h30.3291015625Z"/><path class="uuid-51b1fe89-1c05-4d01-bcf7-d4b1a2263701" d="M158.5458984375,595.680618750000576v-1.974609375h-13.484375v-2.8984375h30.91796875v2.8984375h-13.5263671875v1.974609375h16.298828125v7.5625h-3.7392578125v-4.95703125h-12.5595703125v6.63671875h-1.1767578125l2.6884765625,1.302734375-.8818359375.671875c3.9482421875,1.974609375,10.921875,3.94921875,17.2646484375,4.7890625-.7978515625.755859375-1.8486328125,2.267578125-2.3525390625,3.19140625-2.8984375-.50390625-5.880859375-1.30078125-8.6953125-2.267578125v1.51171875h-17.474609375v-1.595703125c-2.6044921875,1.0078125-5.2509765625,1.84765625-7.6875,2.5625-.7568359375-.798828125-2.1845703125-2.142578125-3.1083984375-2.7734375,6.888671875-1.51171875,14.408203125-4.158203125,18.9453125-7.392578125h-1.4287109375v-6.63671875h-12.5185546875v4.95703125h-3.5703125v-7.5625h16.0888671875ZM148.5478515625,598.622025000000576c2.6044921875.419921875,6.2177734375,1.302734375,8.1494140625,1.974609375l-.9658203125,2.099609375,1.0498046875-.251953125.294921875,2.353515625c-3.5712890625,1.0078125-7.099609375,1.97265625-10.1240234375,2.814453125l-1.0927734375-2.857421875c2.478515625-.419921875,5.83984375-1.21875,9.41015625-1.974609375-1.974609375-.712890625-5.29296875-1.595703125-7.8134765625-2.099609375l1.091796875-2.05859375ZM170.3076171875,615.803665625000576l.5888671875-.2109375,2.5205078125,1.595703125c-1.974609375,2.60546875-5.208984375,5.125-8.2333984375,7.015625l3.4443359375,1.51171875-1.72265625,2.814453125c-3.2763671875-1.6796875-9.8720703125-4.451171875-14.66015625-6.2578125l1.6796875-2.39453125c2.142578125.755859375,4.7890625,1.763671875,7.3095703125,2.73046875,1.974609375-.966796875,4.2431640625-2.39453125,6.0068359375-3.822265625h-20.9189453125v-2.982421875h23.9853515625ZM166.86328125,611.686478125000576c-2.5205078125-1.0078125-4.7470703125-2.1015625-6.46875-3.109375-1.974609375,1.134765625-4.1591796875,2.185546875-6.427734375,3.109375h12.896484375ZM164.8466796875,602.192337500000576l.4208984375.083984375-1.05078125-1.595703125c2.39453125-.37890625,5.96484375-1.513671875,8.0234375-2.185546875l1.5966796875,2.142578125c-2.1845703125.83984375-5.1669921875,1.470703125-7.51953125,1.890625,3.1083984375.671875,6.7626953125,1.72265625,8.86328125,2.521484375l-.9658203125,2.478515625c-2.39453125-1.009765625-6.931640625-2.353515625-10.3759765625-3.193359375l1.0078125-2.142578125Z"/><path class="uuid-51b1fe89-1c05-4d01-bcf7-d4b1a2263701" d="M221.2978515625,619.834915625000576v4.537109375h-37.38671875v-4.537109375h37.38671875ZM217.7685546875,595.176712500000576v4.328125h-30.3291015625v-4.328125h30.3291015625Z"/><path class="uuid-51b1fe89-1c05-4d01-bcf7-d4b1a2263701" d="M242.5458984375,595.680618750000576v-1.974609375h-13.484375v-2.8984375h30.91796875v2.8984375h-13.5263671875v1.974609375h16.298828125v7.5625h-3.7392578125v-4.95703125h-12.5595703125v6.63671875h-1.1767578125l2.6884765625,1.302734375-.8818359375.671875c3.9482421875,1.974609375,10.921875,3.94921875,17.2646484375,4.7890625-.7978515625.755859375-1.8486328125,2.267578125-2.3525390625,3.19140625-2.8984375-.50390625-5.880859375-1.30078125-8.6953125-2.267578125v1.51171875h-17.474609375v-1.595703125c-2.6044921875,1.0078125-5.2509765625,1.84765625-7.6875,2.5625-.7568359375-.798828125-2.1845703125-2.142578125-3.1083984375-2.7734375,6.888671875-1.51171875,14.408203125-4.158203125,18.9453125-7.392578125h-1.4287109375v-6.63671875h-12.5185546875v4.95703125h-3.5703125v-7.5625h16.0888671875ZM232.5478515625,598.622025000000576c2.6044921875.419921875,6.2177734375,1.302734375,8.1494140625,1.974609375l-.9658203125,2.099609375,1.0498046875-.251953125.294921875,2.353515625c-3.5712890625,1.0078125-7.099609375,1.97265625-10.1240234375,2.814453125l-1.0927734375-2.857421875c2.478515625-.419921875,5.83984375-1.21875,9.41015625-1.974609375-1.974609375-.712890625-5.29296875-1.595703125-7.8134765625-2.099609375l1.091796875-2.05859375ZM254.3076171875,615.803665625000576l.5888671875-.2109375,2.5205078125,1.595703125c-1.974609375,2.60546875-5.208984375,5.125-8.2333984375,7.015625l3.4443359375,1.51171875-1.72265625,2.814453125c-3.2763671875-1.6796875-9.8720703125-4.451171875-14.66015625-6.2578125l1.6796875-2.39453125c2.142578125.755859375,4.7890625,1.763671875,7.3095703125,2.73046875,1.974609375-.966796875,4.2431640625-2.39453125,6.0068359375-3.822265625h-20.9189453125v-2.982421875h23.9853515625ZM250.86328125,611.686478125000576c-2.5205078125-1.0078125-4.7470703125-2.1015625-6.46875-3.109375-1.974609375,1.134765625-4.1591796875,2.185546875-6.427734375,3.109375h12.896484375ZM248.8466796875,602.192337500000576l.4208984375.083984375-1.05078125-1.595703125c2.39453125-.37890625,5.96484375-1.513671875,8.0234375-2.185546875l1.5966796875,2.142578125c-2.1845703125.83984375-5.1669921875,1.470703125-7.51953125,1.890625,3.1083984375.671875,6.7626953125,1.72265625,8.86328125,2.521484375l-.9658203125,2.478515625c-2.39453125-1.009765625-6.931640625-2.353515625-10.3759765625-3.193359375l1.0078125-2.142578125Z"/><path class="uuid-51b1fe89-1c05-4d01-bcf7-d4b1a2263701" d="M288.537109375,607.485306250000576v4.9140625h13.31640625v3.65625h-13.31640625v6.97265625h17.0126953125v3.697265625h-37.8486328125v-3.697265625h16.6767578125v-6.97265625h-12.896484375v-3.65625h12.896484375v-4.9140625h4.1591796875ZM270.4736328125,603.411087500000576c.8818359375-.16796875,1.8056640625-.83984375,2.9404296875-1.93359375.923828125-.796875,3.3603515625-3.359375,5.62890625-6.341796875h-10.333984375v-3.697265625h35.4541015625v3.697265625h-19.9111328125c-2.2265625,2.8984375-4.62109375,5.5859375-6.9736328125,7.8125l17.6435546875-.62890625c-1.5546875-1.38671875-3.150390625-2.7734375-4.6630859375-3.94921875l3.150390625-2.142578125c3.78125,2.85546875,8.5703125,6.97265625,10.8798828125,9.87109375l-3.486328125,2.4375c-.6298828125-.83984375-1.4697265625-1.849609375-2.478515625-2.8984375-22.263671875.96484375-24.7841796875,1.048828125-26.548828125,1.638671875-.2099609375-.841796875-.83984375-2.81640625-1.3017578125-3.865234375Z"/><path class="uuid-51b1fe89-1c05-4d01-bcf7-d4b1a2263701" d="M347.2978515625,619.834915625000576v4.537109375h-37.38671875v-4.537109375h37.38671875ZM343.7685546875,595.176712500000576v4.328125h-30.3291015625v-4.328125h30.3291015625Z"/><path class="uuid-51b1fe89-1c05-4d01-bcf7-d4b1a2263701" d="M368.5458984375,595.680618750000576v-1.974609375h-13.484375v-2.8984375h30.91796875v2.8984375h-13.5263671875v1.974609375h16.298828125v7.5625h-3.7392578125v-4.95703125h-12.5595703125v6.63671875h-1.1767578125l2.6884765625,1.302734375-.8818359375.671875c3.9482421875,1.974609375,10.921875,3.94921875,17.2646484375,4.7890625-.7978515625.755859375-1.8486328125,2.267578125-2.3525390625,3.19140625-2.8984375-.50390625-5.880859375-1.30078125-8.6953125-2.267578125v1.51171875h-17.474609375v-1.595703125c-2.6044921875,1.0078125-5.2509765625,1.84765625-7.6875,2.5625-.7568359375-.798828125-2.1845703125-2.142578125-3.1083984375-2.7734375,6.888671875-1.51171875,14.408203125-4.158203125,18.9453125-7.392578125h-1.4287109375v-6.63671875h-12.5185546875v4.95703125h-3.5703125v-7.5625h16.0888671875ZM358.5478515625,598.622025000000576c2.6044921875.419921875,6.2177734375,1.302734375,8.1494140625,1.974609375l-.9658203125,2.099609375,1.0498046875-.251953125.294921875,2.353515625c-3.5712890625,1.0078125-7.099609375,1.97265625-10.1240234375,2.814453125l-1.0927734375-2.857421875c2.478515625-.419921875,5.83984375-1.21875,9.41015625-1.974609375-1.974609375-.712890625-5.29296875-1.595703125-7.8134765625-2.099609375l1.091796875-2.05859375ZM380.3076171875,615.803665625000576l.5888671875-.2109375,2.5205078125,1.595703125c-1.974609375,2.60546875-5.208984375,5.125-8.2333984375,7.015625l3.4443359375,1.51171875-1.72265625,2.814453125c-3.2763671875-1.6796875-9.8720703125-4.451171875-14.66015625-6.2578125l1.6796875-2.39453125c2.142578125.755859375,4.7890625,1.763671875,7.3095703125,2.73046875,1.974609375-.966796875,4.2431640625-2.39453125,6.0068359375-3.822265625h-20.9189453125v-2.982421875h23.9853515625ZM376.86328125,611.686478125000576c-2.5205078125-1.0078125-4.7470703125-2.1015625-6.46875-3.109375-1.974609375,1.134765625-4.1591796875,2.185546875-6.427734375,3.109375h12.896484375ZM374.8466796875,602.192337500000576l.4208984375.083984375-1.05078125-1.595703125c2.39453125-.37890625,5.96484375-1.513671875,8.0234375-2.185546875l1.5966796875,2.142578125c-2.1845703125.83984375-5.1669921875,1.470703125-7.51953125,1.890625,3.1083984375.671875,6.7626953125,1.72265625,8.86328125,2.521484375l-.9658203125,2.478515625c-2.39453125-1.009765625-6.931640625-2.353515625-10.3759765625-3.193359375l1.0078125-2.142578125Z"/><path class="uuid-51b1fe89-1c05-4d01-bcf7-d4b1a2263701" d="M431.2978515625,619.834915625000576v4.537109375h-37.38671875v-4.537109375h37.38671875ZM427.7685546875,595.176712500000576v4.328125h-30.3291015625v-4.328125h30.3291015625Z"/><path class="uuid-51b1fe89-1c05-4d01-bcf7-d4b1a2263701" d="M473.9697265625,606.141556250000576v4.369140625h-38.646484375v-4.369140625h38.646484375Z"/><path class="uuid-51b1fe89-1c05-4d01-bcf7-d4b1a2263701" d="M484.25390625,615.004837500000576v-11.173828125h12.4765625v-5.880859375h-9.7041015625c-1.8896484375,3.150390625-3.990234375,5.96484375-6.1748046875,8.107421875-.755859375-.71484375-2.4365234375-2.017578125-3.40234375-2.5625,3.90625-3.40234375,7.2666015625-8.822265625,9.2412109375-14.408203125l4.033203125,1.048828125c-.5048828125,1.345703125-1.05078125,2.689453125-1.6806640625,3.9921875h24.57421875v3.822265625h-12.8125v5.880859375h11.8466796875v3.697265625h-11.8466796875v7.4765625h14.955078125v3.865234375h-14.955078125v9.3671875h-4.07421875v-9.3671875h-19.3232421875v-3.865234375h6.8466796875ZM496.73046875,615.004837500000576v-7.4765625h-8.52734375v7.4765625h8.52734375Z"/><path class="uuid-51b1fe89-1c05-4d01-bcf7-d4b1a2263701" d="M541.2509765625,589.002884375000576c.671875,1.259765625,1.3857421875,2.85546875,1.890625,4.19921875h14.3662109375v3.697265625h-30.9599609375v7.603515625c0,6.888671875-.5458984375,16.970703125-4.07421875,23.69140625-.7978515625-.587890625-2.6044921875-1.427734375-3.61328125-1.763671875,3.4453125-6.384765625,3.7392578125-15.54296875,3.7392578125-21.88671875v-11.341796875h16.046875c-.419921875-1.091796875-.8818359375-2.310546875-1.38671875-3.275390625l3.9912109375-.923828125ZM551.3330078125,613.450150000000576l.7138671875-.16796875,2.478515625,1.302734375c-1.890625,3.486328125-4.705078125,6.1328125-8.19140625,8.107421875,3.486328125,1.05078125,7.51953125,1.72265625,11.8037109375,2.099609375-.83984375.83984375-1.806640625,2.4375-2.310546875,3.4453125-5.2509765625-.587890625-9.9970703125-1.72265625-14.072265625-3.40234375-4.28515625,1.595703125-9.1572265625,2.5625-14.1982421875,3.150390625-.2939453125-.966796875-1.0087890625-2.478515625-1.638671875-3.361328125,4.033203125-.3359375,8.0234375-.96484375,11.59375-1.974609375-2.3935546875-1.46875-4.4521484375-3.275390625-6.0908203125-5.376953125l1.5966796875-.62890625h-5.0830078125v-3.193359375h23.3984375ZM537.5537109375,597.950150000000576v3.275390625h9.1162109375v-3.275390625h3.90625v3.275390625h6.4697265625v3.193359375h-6.4697265625v6.8046875h-16.802734375v-6.8046875h-6.30078125v-3.193359375h6.30078125v-3.275390625h3.7802734375ZM535.49609375,616.643509375000576c1.595703125,1.763671875,3.822265625,3.234375,6.4267578125,4.41015625,2.6884765625-1.134765625,4.95703125-2.603515625,6.6796875-4.41015625h-13.1064453125ZM537.5537109375,604.418900000000576v3.73828125h9.1162109375v-3.73828125h-9.1162109375Z"/><path class="uuid-9ba2ff99-0ac1-40fb-9e0c-2b28e63263bb" d="M77.708999999999833,170.747000000001208c3.777299999999741,0,6.83889999999974,3.0625,6.83889999999974,6.837899999998626-.000999999999294-.138699999999517-.005900000000111-.278299999999945-.005900000000111-.417999999999665,0-51.15519999999924,41.467800000000352-92.625,92.626000000000204-92.625,3.775400000000445,0,6.836900000000242-3.061499999999796,6.836900000000242-6.837799999999334,0-3.776400000000649-3.061499999999796-6.837900000000445-6.836900000000242-6.837900000000445-14.34479999999985,0-28.26759999999922,2.8125-41.382799999999406,8.359300000000076-12.659200000000055,5.354499999999462-24.025400000000445,13.016600000000835-33.783200000000761,22.775400000000445-9.759799999999814,9.757799999999406-17.421899999999368,21.125-22.775399999999536,33.785200000000259-5.546900000000278,13.114199999999983-8.359400000000278,27.037099999999555-8.359400000000278,41.380799999998999,0,.139699999999721.003900000000613.279300000000148.004899999999907.417999999999665,0-3.775399999998626,3.060500000000502-6.837899999998626,6.836900000000242-6.837899999998626Z"/><path class="uuid-fc814191-7c47-448b-9d3e-2f2b244aa505" d="M170.33010000000013,276.629800000000614c0-3.776299999999537,3.060499999999593-6.837900000000445,6.837899999999536-6.837900000000445-51.01759999999922,0-92.394599999999627-41.244099999999889-92.620100000000093-92.207000000000335,0-3.775399999998626-3.061599999999999-6.837899999998626-6.83889999999974-6.837899999998626-3.77639999999974,0-6.836900000000242,3.0625-6.836900000000242,6.837899999998626.05370000000039,14.197300000001633,2.861300000000483,27.976599999999962,8.354500000000371,40.962900000000445,5.353500000000167,12.660200000000259,13.015599999999722,24.027400000000853,22.775399999999536,33.785200000000259,9.757800000000316,9.75879999999961,21.124000000000706,17.420899999999165,33.783200000000761,22.775400000000445,13.115200000000186,5.546800000000076,27.037999999999556,8.359300000000076,41.382799999999406,8.359300000000076-3.777399999999943,0-6.837899999999536-3.060499999999593-6.837899999999536-6.837900000000445Z"/><path class="uuid-6bb943f8-4e33-4afe-845a-79fd0fdebdcc" d="M251.26760000000013,243.704999999999927c-2.671900000000278-2.670899999999165-7-2.670899999999165-9.670900000000074,0-16.670900000000074,16.144600000001446-39.38799999999992,26.086900000000242-64.42870000000039,26.086900000000242-3.777399999999943,0-6.837899999999536,3.061600000000908-6.837899999999536,6.837900000000445,0,3.777400000000853,3.060499999999593,6.837900000000445,6.837899999999536,6.837900000000445,14.343700000000354,0,28.266600000000381-2.8125,41.380800000000363-8.359300000000076,12.202899999999772-5.161200000000463,23.199000000000069-12.473700000000463,32.718800000000101-21.733400000000984,2.66989999999987-2.670000000000073,2.66989999999987-7,0-9.670000000000073Z"/><path class="uuid-6bb943f8-4e33-4afe-845a-79fd0fdebdcc" d="M233.458700000000135,120.873999999999796c-15.034900000000107-15.03519999999844-35.027100000000246-23.314499999998588-56.292699999999968-23.314499999998588-21.262700000000223,0-41.255799999999908,8.279300000000148-56.291000000000167,23.314499999998588-15.035200000000259,15.037100000001374-23.317399999999907,35.029300000000148-23.317399999999907,56.292900000000373,0,21.264699999999721,8.282199999999648,41.254000000000815,23.317399999999907,56.292000000001281,15.035200000000259,15.03519999999844,35.028299999999945,23.317399999999907,56.291000000000167,23.317399999999907,21.265599999999722,0,41.257799999999861-8.282200000001467,56.292699999999968-23.317399999999907,15.035399999999754-15.038000000000466,23.315699999999651-35.02730000000156,23.315699999999651-56.292000000001281,0-21.263600000000224-8.280299999999897-41.255799999998999-23.315699999999651-56.292900000000373Z"/><path class="uuid-51b1fe89-1c05-4d01-bcf7-d4b1a2263701" d="M121.0625,202.912100000001374v-51.489300000001094h11.166000000000167v3.806599999999889h-6.472600000000057v43.877000000000407h6.472600000000057v3.805700000000797h-11.166000000000167Z"/><path class="uuid-51b1fe89-1c05-4d01-bcf7-d4b1a2263701" d="M233.271499999999833,151.422800000000279v51.489300000001094h-11.164099999999962v-3.805700000000797h6.468800000000101v-43.877000000000407h-6.468800000000101v-3.806599999999889h11.164099999999962Z"/><path class="uuid-0d30af25-722c-4f9a-aa4a-b28755d08052" d="M146.996100000000297,187.626900000001115c0,1.028299999999945.016599999999926,2.241199999998571.048799999999574,3.635800000000017.031300000000556,1.394500000000335.075200000000223,2.8125.128899999999703,4.247999999999593.052800000000389,1.4375.117200000000594,2.811499999999796.193400000000111,4.120100000000093.074200000000019,1.308600000000297.166000000000167,2.402399999999034.273400000000038,3.281300000000556h-6.597600000000057v-36.365300000001298c0-3.131799999999203-.052799999999479-5.968699999999444-.16019999999935-8.511699999999109s-.26760000000013-4.747100000000501-.483400000000074-6.612300000000687h6.596700000000055v36.204100000000835Z"/><path class="uuid-0d30af25-722c-4f9a-aa4a-b28755d08052" d="M175.799799999999777,170.086900000000242v4.216800000000148h-6.049799999999777v24.393500000000131h6.049799999999777v4.215799999999945h-18.020499999999629v-4.215799999999945h5.953099999999722v-24.393500000000131h-5.953099999999722v-4.216800000000148h18.020499999999629Z"/><path class="uuid-0d30af25-722c-4f9a-aa4a-b28755d08052" d="M189.316399999999703,170.086900000000242c.128900000000613.343699999999444.257800000000316.789000000000669.385700000000725,1.337900000000445.129899999999907.545899999999165.246099999999387,1.119099999999889.354499999999462,1.719699999999648.105499999999665.600599999999758.203199999999924,1.190399999999499.290100000000166,1.770500000000538l.255799999999908,1.44629999999961c2.060599999999795-2.444400000000314,4.129899999999907-4.208000000000538,6.21100000000024-5.291999999999462,2.080999999999676-1.084000000000742,4.25-1.626000000000204,6.500999999999749-1.626000000000204,1.71770000000015,0,3.235299999999825.284200000000055,4.554599999999937.852600000000166,1.319400000000314.570299999999406,2.429700000000139,1.470699999999852,3.331100000000333,2.703099999998813.900399999999991,1.234400000001187,1.580999999999676,2.834000000000742,2.043899999999667,4.795900000000984.46100000000024,1.963799999999537.691400000000158,4.327100000000428.691400000000158,7.096700000000055v14.480400000000373c0,3.625999999998385-.317300000000159,6.636699999999109-.95010000000002,9.027399999999034-.63189999999986,2.392499999999927-1.518599999999878,4.301699999999983-2.654300000000148,5.729499999999462-1.136799999999766,1.424800000000687-2.505899999999656,2.434500000001208-4.103599999999915,3.023400000001857-1.598599999999806.590799999998126-3.373999999999796.885699999998906-5.327099999999973.885699999998906-.964899999999943,0-2-.156199999999444-3.10550000000012-.466800000000148-1.103500000000167-.3125-2.10739999999987-.745100000000093-3.007800000000316-1.30370000000039l2.091800000000148-4.827099999998609c.493199999999888.365199999998367,1.152300000000196.669899999998961,1.978500000000167.917999999999665.826199999999972.245999999999185,1.669000000000324.369099999999889,2.525399999999991.369099999999889,1.031300000000101,0,1.954099999999926-.166000000001077,2.770500000000084-.498100000000704.814499999999953-.332000000000335,1.505900000000111-.916900000000169,2.074200000000019-1.753899999999703.568400000000111-.836900000000242,1.003000000000156-1.984300000000076,1.303699999999935-3.443299999998999.29989999999998-1.459000000000742.450200000000223-3.314500000000407.450200000000223-5.567399999999907v-14.16110000000117c0-2.574300000000221-.133700000000317-4.660200000000259-.402300000000196-6.257799999999406-.26760000000013-1.598700000000463-.670900000000074-2.843800000000556-1.20699999999988-3.734400000001187-.536200000000008-.889699999999721-1.207300000000032-1.485399999999572-2.012700000000223-1.787099999999555-.802799999999934-.298899999999776-1.742199999999684-.449199999999109-2.814499999999953-.449199999999109-1.158199999999852,0-2.28899999999976.273400000000038-3.39449999999988.822199999998702-1.104499999999916.545900000000984-2.120099999999638,1.253900000001522-3.04300000000012,2.123100000000704-.921900000000278.868099999999686-1.736299999999574,1.848599999999351-2.444300000000112,2.944300000001022-.707999999999629,1.093699999999444-1.234399999999368,2.1875-1.578099999999722,3.282199999999648v18.665999999999258h-5.952199999999721v-19.791999999999462c0-3.174800000000687-.183600000000297-5.862300000000687-.548800000000483-8.061499999999796-.363299999999981-2.199200000000928-.718799999999646-3.85740000000078-1.061499999999796-4.972600000000966h5.793899999999667Z"/><path class="uuid-51b1fe89-1c05-4d01-bcf7-d4b1a2263701" d="M129.765599999999722,447.269900000001144h-32.207499999999527v-5.346600000000763h32.207499999999527v5.346600000000763ZM125.574200000000019,504.20010000000002h-5.518100000000231v-5.86029999999846h-12.874499999999898v5.86029999999846h-5.603000000000065v-28.914499999998952h23.995600000000195v28.914499999998952ZM125.317399999999907,458.305599999999686l-23.653400000000147.085000000000946v-5.345800000000963h23.653400000000147v5.260800000000017ZM125.402799999999843,469.511599999999817h-23.738800000000083v-5.346599999998944h23.738800000000083v5.346599999998944ZM124.333499999999731,436.405700000001161l-21.728500000000167.085399999999936v-5.346199999999953h21.728500000000167v5.260800000000017ZM120.056099999999788,493.078499999999622v-12.531699999999546h-12.959899999999834v12.531699999999546h12.959899999999834ZM175.317900000000009,469.597600000000966l-46.236899999999878.084899999999834v-5.260700000000725h11.462899999999536l2.481000000000677-13.216800000000148h-10.692900000000009v-5.260699999998906h11.548799999999574l1.83889999999974-9.795400000000882h-16.381799999999203v-5.346199999999953h42.473099999999249v5.261700000000928h-20.317399999999907l-1.753399999999601,9.794399999998859h17.622599999999693l-1.839899999999943,18.477100000000064h9.795000000000073v5.261700000000928ZM167.875500000000102,504.371000000001004h-5.51760000000013v-5.774400000000242h-21.64260000000013v5.774400000000242h-5.603500000000167v-28.998999999999796h32.763700000000426v28.998999999999796ZM162.357899999999972,493.335399999999936v-12.702699999999822h-21.728000000000065v12.702699999999822h21.728000000000065ZM161.502400000000307,451.119599999999991h-12.703100000000632l-2.480499999999665,13.302200000000084h13.857899999999972l1.325700000000325-13.302200000000084Z"/><path class="uuid-51b1fe89-1c05-4d01-bcf7-d4b1a2263701" d="M271.760200000000168,447.269900000001144h-77.759199999999964v-5.346600000000763h77.759199999999964v5.346600000000763ZM260.297799999999825,458.219700000001467h-55.604499999999916v-5.174900000001799h55.604499999999916v5.174900000001799ZM260.297799999999825,469.340700000000652h-55.604499999999916v-5.175699999999779h55.604499999999916v5.175699999999779ZM258.287600000000111,504.371000000001004h-5.51760000000013v-6.031199999999444h-40.120800000000145v6.031199999999444h-5.517399999999725v-29.085399999999936h51.155799999999999v29.085399999999936ZM258.202099999999973,435.850000000000364l-50.642499999999927.128000000000611v-5.175300000000789h50.642499999999927v5.047300000000178ZM252.769999999999982,493.078499999999622v-12.531699999999546h-40.120800000000145v12.531699999999546h40.120800000000145Z"/><path class="uuid-51b1fe89-1c05-4d01-bcf7-d4b1a2263701" d="M368.204600000000028,488.88760000000002h-34.432400000000143v5.945300000001225c0,6.358399999999165-3.378699999999753,9.538099999999758-10.137899999999718,9.538099999999758h-5.688500000000204l-2.095699999999852-5.260700000000725h7.955500000000029c2.794499999999971,0,4.192399999999907-1.284200000000055,4.192399999999907-3.849599999999555v-6.373100000000704h-37.554700000000139v-5.346700000000055h37.554700000000139v-3.67870000000039c5.958499999999731-2.224099999999453,10.221700000000055-4.304699999998775,12.78859999999986-6.244099999999889h-32.764400000000023v-4.918999999999869h42.260999999999967v4.662200000000666c-4.449699999999666,3.022399999999834-9.952699999999822,6.11620000000039-16.510999999999967,9.281199999999444v.898400000000038h34.432400000000143v5.346700000000055ZM364.611300000000028,473.018500000000131h-5.133800000000065v-8.853499999999258h-59.751400000000103v9.367200000000594h-5.603999999999814v-14.371100000000297h7.356400000000122v-26.091800000000148c4.048299999999927-.39850000000115,8.483600000000024-2.324300000000221,13.303199999999833-5.773999999999432l2.823300000000017,3.935099999998783c-2.596700000000055,2.395500000000538-6.132399999999961,4.206500000000233-10.608400000000074,5.432099999999991v3.593300000000454h10.949200000000019v4.448200000000725h-10.949200000000019v4.662099999999555h10.949200000000019v4.361899999999878h-10.949200000000019v5.433100000000195h45.467000000000098v-5.433100000000195h-10.436799999999948v-4.276900000000751h10.436799999999948v-5.003899999999703h-10.351300000000265v-4.362800000000789h10.351300000000265v-4.662599999999657h-12.104699999999866v-5.17529999999897h17.536599999999908v28.828599999998914h6.715799999999945v13.943400000000111ZM340.358900000000176,439.82760000000053l-2.99369999999999,3.678200000000288c-1.626400000000103-1.567399999999907-3.83640000000014-3.264699999999721-6.629900000000362-5.089900000000853-2.309499999999844,1.939500000000407-4.904799999999796,3.721700000000055-7.785099999999602,5.346700000000055l-3.507300000000214-3.08009999999922c2.766099999999824-1.139600000000428,5.188900000000103-2.480400000000373,7.271900000000187-4.020000000000437-3.480000000000018-1.311499999999796-6.288100000000213-2.224099999999453-8.427200000000084-2.737299999998868l2.182600000000093-3.935500000001412c3.164099999999962.798300000000381,6.343699999999899,1.825700000001234,9.537599999999657,3.079600000000937,2.024900000000343-1.909200000000055,3.721199999999953-3.863300000000891,5.090300000000298-5.859400000001187l3.592799999999897,2.865200000000186c-1.141599999999926,1.768600000001243-2.624000000000251,3.494200000001001-4.44820000000027,5.175800000000891,2.109300000000076,1.197299999999814,4.148400000000038,2.723099999999249,6.11620000000039,4.576699999999619ZM340.871599999999944,455.396400000001449l-3.591800000000148,2.823300000000017c-2.309599999999591-1.768100000001141-4.706099999999878-3.236400000001595-7.186099999999897-4.405300000000352-1.539499999999862,1.168899999998757-4.276800000000094,2.637199999999211-8.211899999999787,4.405300000000352l-3.251000000000204-2.566500000000815c3.677799999999934-1.738699999999881,6.315500000000156-3.250899999999092,7.913399999999911-4.533600000000661-1.597899999999754-.997599999998783-4.020799999999781-2.10989999999947-7.271999999999935-3.337399999998524l3.207800000000134-2.693400000000111c2.936499999999796,1.055699999998978,5.446300000000065,2.152299999999741,7.527799999999843,3.292999999999665.797399999999925-.455100000001039,2.409200000000055-1.824300000000221,4.833000000000084-4.105999999999767l3.935100000000148,2.010299999999916c-1.454099999999926,1.882299999999304-3.078199999999924,3.436499999999796-4.875800000000254,4.662999999998647,2.367000000000189,1.08310000000165,4.690200000000004,2.565500000000611,6.971500000000106,4.447300000001633Z"/><path class="uuid-51b1fe89-1c05-4d01-bcf7-d4b1a2263701" d="M464.560999999999694,488.88760000000002h-34.431899999999587v5.945300000001225c0,6.358399999999165-3.378600000000006,9.538099999999758-10.136899999999969,9.538099999999758h-5.688500000000204l-2.095699999999852-5.260700000000725h7.955599999999777c2.79340000000002,0,4.191400000000158-1.284200000000055,4.191400000000158-3.849599999999555v-6.373100000000704h-37.553699999999935v-5.346700000000055h37.553699999999935v-3.67870000000039c5.959199999999782-2.224099999999453,10.221599999999853-4.304699999998775,12.789499999999862-6.244099999999889h-32.764400000000023v-4.918999999999869h42.260000000000218v4.662200000000666c-4.449000000000069,3.022399999999834-9.953100000000177,6.11620000000039-16.510999999999967,9.281199999999444v.898400000000038h34.431899999999587v5.346700000000055ZM460.969200000000001,473.018500000000131h-5.134700000000066v-8.853499999999258h-59.751499999999851v9.367200000000594h-5.603000000000065v-14.371100000000297h7.356200000000172v-26.091800000000148c4.049499999999625-.39850000000115,8.483099999999922-2.324300000000221,13.302499999999782-5.773999999999432l2.822500000000218,3.935099999998783c-2.593500000000404,2.395500000000538-6.130700000000161,4.206500000000233-10.607700000000023,5.432099999999991v3.593300000000454h10.950199999999768v4.448200000000725h-10.950199999999768v4.662099999999555h10.950199999999768v4.361899999999878h-10.950199999999768v5.433100000000195h45.466799999999694v-5.433100000000195h-10.435599999999795v-4.276900000000751h10.435599999999795v-5.003899999999703h-10.35109999999986v-4.362800000000789h10.35109999999986v-4.662599999999657h-12.104499999999916v-5.17529999999897h17.536399999999958v28.828599999998914h6.717000000000098v13.943400000000111ZM438.239199999999983,454.436900000000605l-3.896900000000187,3.563000000000102c-1.778799999999592-2.672800000000279-4.324299999999766-6.018500000000131-6.785699999999906-8.096199999999953-3.826099999999769,4.263199999999415-6.973099999999704,6.97609999999986-9.432099999999991,8.136800000000221l-3.856499999999869-3.238300000000891c2.898999999999887-1.378899999999703,6.041999999999916-3.954599999999118,9.433599999999842-7.732399999998961-3.85590000000002-2.401900000000751-6.603499999999713-3.887300000000323-8.243599999999788-4.454600000000937l3.363800000000083-3.47899999999936c1.367099999999937.539999999999054,3.934999999999945,1.941899999999805,7.710900000000038,4.210399999999936,1.122099999999591-1.835900000000038,1.995099999999638-3.846700000000055,2.623999999999796-6.033199999999852h-12.878900000000158v-5.059600000000501h6.90480000000025v-5.209899999999834h4.43119999999999v5.209899999999834h8.194799999999759v5.059600000000501h-1.622100000000046c-.910599999999704,3.348599999999351-2.135199999999713,6.249499999999898-3.675299999999879,8.70509999999922,2.981000000000222,2.265600000000632,5.841800000000148,5.719699999999648,7.728000000000065,8.418400000000474Z"/><path class="uuid-51b1fe89-1c05-4d01-bcf7-d4b1a2263701" d="M562.329600000000028,447.099500000000262l-3.079099999999926,4.447799999999916c-9.724600000000009-2.394999999998618-17.336900000000242-5.161099999999351-22.839899999999943-8.29739999999947v3.849599999999555h-28.914999999999964v-4.235300000000279c-8.326400000000376,4.306599999999889-15.796900000000278,7.115200000000186-22.413100000000213,8.426300000000992l-2.822299999999814-4.4908000000014c16.024399999999787-3.906199999999444,29.36889999999994-10.436499999999796,40.034699999999702-19.589799999999741l5.26070000000027,1.75340000000142c-.570799999999963.712899999998626-1.069800000000214,1.212399999998524-1.497499999999945,1.49659999999858,9.466799999999694,7.870600000000195,21.557599999999638,13.417000000001281,36.271499999999833,16.639600000000428ZM553.218199999999797,471.607299999999668h-62.104399999999714v-20.059999999999491h62.104399999999714v20.059999999999491ZM548.129100000000108,504.456000000000131h-5.26050000000032v-3.421899999999368h-41.317799999999806v3.421899999999368h-5.260800000000017v-28.357399999998961h51.839100000000144v28.357399999998961ZM519.600100000000111,466.988199999999779v-10.693400000000111h-23.225600000000213v10.693400000000111h23.225600000000213ZM542.868599999999788,486.321200000000317v-5.51759999999922h-41.317799999999806v5.51759999999922h41.317799999999806ZM542.868599999999788,496.415899999999965v-5.603499999999258h-41.317799999999806v5.603499999999258h41.317799999999806ZM513.911599999999908,462.753300000000309l-4.405299999999897,3.079600000000937c-2.651299999999992-2.679200000000492-5.246999999999844-4.661600000001272-7.785100000000057-5.945300000001225l4.447999999999865-2.565899999999601c3.022699999999986,1.28269999999975,5.603000000000065,3.094199999999546,7.742400000000089,5.431599999999889ZM534.656700000000001,442.351500000000669c-4.134700000000066-2.166999999999462-8.142100000000028-5.089900000000853-12.01949999999988-8.768599999999424-4.135299999999916,3.421899999999368-8.768100000000231,6.344799999998941-13.900399999999991,8.768599999999424h25.91989999999987ZM547.958999999999833,466.988199999999779v-10.693400000000111h-23.097199999999702v10.693400000000111h23.097199999999702ZM542.782700000000204,458.818300000000818c-1.682600000000093,2.680699999998978-4.220700000000306,4.962900000000445-7.613500000000386,6.843699999999444l-4.704899999999725-2.351999999998952c3.736399999999776-2.109900000001289,6.30179999999973-4.22019999999975,7.698300000000017-6.331100000001243l4.620100000000093,1.839400000000751Z"/><path class="uuid-51b1fe89-1c05-4d01-bcf7-d4b1a2263701" d="M133.205546062989924,389.877400000001217l-1.546900000000278,2.056099999999788c-5.961899999999332-1.756800000001022-10.800299999999879-4.123000000001412-14.512199999999211-7.09860000000117-3.199700000000121,2.612300000000687-8.223100000000159,5.025400000000445-15.076600000000326,7.239199999999983l-1.721199999999953-2.090799999999945c6.629899999999907-1.838799999999537,11.643500000000131-4.070299999999406,15.040500000000065-6.694299999999203-3.408199999999852-3.221700000000055-5.699700000000121-7.139199999999619-6.870100000000093-11.754899999999907-.632300000000214,1.628399999999601-1.500500000000102,3.174300000000585-2.60109999999986,4.638699999999517l-1.860800000000381-1.704099999999016c1.475599999999758-1.757300000001123,2.663300000000163-3.684600000000501,3.565400000000409-5.781300000000556h-6.044400000000678v-2.160600000001068h14.09270000000015v-6.009299999999712h2.266200000000026v5.97360000000117h14.336900000000242v2.161699999998746h-6.009799999999814c-1.053200000000288,6.114700000000084-3.477499999999964,10.980900000000474-7.27390000000014,14.600500000000466,3.455500000000029,2.624100000000908,8.19380000000001,4.832099999999627,14.215299999999843,6.624100000000908ZM123.910146062989952,368.652799999999843h-13.598100000000159c.935500000000502,5.423300000000381,3.225500000000466,9.786600000001272,6.868599999999788,13.089300000001458,3.561000000000604-3.314400000001115,5.804200000000492-7.677700000000186,6.729500000000371-13.089300000001458Z"/><path class="uuid-51b1fe89-1c05-4d01-bcf7-d4b1a2263701" d="M217.370366062989888,385.783600000000661h-14.145299999999679v2.442900000000009c0,2.611300000000483-1.387200000000121,3.917999999999665-4.163800000000265,3.917999999999665h-2.336899999999787l-.860099999999875-2.161200000000463h3.267099999999573c1.148400000000038,0,1.722600000000057-.527299999999741,1.722600000000057-1.581500000000233v-2.618199999998978h-15.426200000000335v-2.19629999999961h15.426200000000335v-1.511200000000827c2.447799999999916-.913099999999758,4.199300000000221-1.768599999999424,5.252500000000055-2.564899999999398h-13.458499999999731v-2.02100000000064h17.359399999999823v1.915000000000873c-1.826700000000073,1.242199999998775-4.088400000000092,2.513199999999415-6.78229999999985,3.813000000000102v.369099999999889h14.145299999999679v2.19629999999961ZM215.894966062990079,379.265600000000632h-2.109300000000076v-3.637699999999313h-24.546399999999721v3.847599999999147h-2.301800000000185v-5.902299999999741h3.022500000000036v-10.718800000000556c1.663099999999758-.16359999999986,3.485300000000279-.954599999999118,5.465299999999843-2.372100000000501l1.158699999999953,1.616700000000492c-1.064900000000307.983900000001086-2.519000000000233,1.727600000000166-4.358599999999569,2.231499999999869v1.475599999999758h4.498999999999796v1.82760000000053h-4.498999999999796v1.915100000000166h4.498999999999796v1.791900000000169h-4.498999999999796v2.232500000000073h18.67889999999943v-2.232500000000073h-4.288499999999658v-1.756799999999203h4.288499999999658v-2.055700000000797h-4.25189999999975v-1.792400000000271h4.25189999999975v-1.914600000000064h-4.972599999999602v-2.126000000000204h7.203099999999722v11.841800000000148h2.760200000000168v5.72860000000037ZM205.931666062990189,365.630800000000818l-1.231000000000222,1.510199999998804c-.666499999999814-.643999999998414-1.574700000000121-1.340299999999843-2.722200000000157-2.090299999999843-.949200000000019.796900000001187-2.015599999999722,1.529300000000148-3.198199999999815,2.196300000001429l-1.440399999999954-1.26470000000154c1.135499999999865-.468699999999444,2.13130000000001-1.018999999998414,2.98680000000013-1.651799999999639-1.429700000000139-.53859999999986-2.584000000000287-.91359999999986-3.461400000000594-1.124499999999898l.896900000000642-1.616700000000492c1.299099999999726.328600000000733,2.605499999999665.75,3.917499999999563,1.26510000000053.832000000000335-.784200000000055,1.528300000000399-1.586900000000242,2.090100000000348-2.407199999999648l1.476599999999962,1.177700000000186c-.469000000000051.725599999999758-1.078399999999874,1.434600000000501-1.826399999999921,2.126000000000204.865699999999833.49120000000039,1.703099999999722,1.11869999999908,2.511700000000019,1.879899999999907ZM206.142066062990125,372.026300000001356l-1.475600000000213,1.159700000000157c-.948199999999815-.726100000001679-1.93309999999974-1.329600000000937-2.952099999999973-1.810100000000602-.633100000000013.480499999999665-1.757299999999759,1.083999999998923-3.373599999999897,1.810100000000602l-1.335900000000038-1.054700000000594c1.512200000000121-.714400000000751,2.595499999999902-1.334500000000844,3.251000000000204-1.862300000000687-.655500000000302-.410200000000259-1.651900000000296-.86620000000039-2.986800000000585-1.370100000000093l1.317800000000261-1.107500000000073c1.20659999999998.433600000000297,2.237300000000232.885299999999916,3.092799999999897,1.353100000000268.328600000000279-.1875.989800000000287-.749099999999089,1.984600000000228-1.686599999999089l1.616500000000087.826199999999517c-.597400000000107.772499999999127-1.264400000000023,1.411099999999351-2.001500000000306,1.914999999999054.970700000000306.444400000000314,1.924800000000232,1.053800000001502,2.862800000000334,1.82720000000154Z"/><path class="uuid-51b1fe89-1c05-4d01-bcf7-d4b1a2263701" d="M276.05738606299019,372.465299999999843c2.366700000000037,2.659100000000763,3.550799999999981,5.253900000001522,3.550799999999981,7.783699999999953,0,1.229900000000271-.319300000000112,2.208000000000538-.958500000000186,2.934000000001106-.637200000000121.727100000000064-1.530699999999797,1.089899999999034-2.679200000000037,1.089899999999034-.632299999999759,0-1.39449999999988-.076699999999619-2.284099999999853-.228100000000268l-.649899999999889-2.337399999998524c1.253899999999703.316899999999805,2.155199999999695.474699999998847,2.705499999999574.474699999998847.456100000000333,0,.872600000000148-.176299999999173,1.24810000000025-.526899999998932.375-.351599999999962.5625-.820300000001225.5625-1.406200000001263,0-.877999999998792-.322299999999814-2.00249999999869-.966600000000199-3.373599999998987-.644800000000032-1.370100000000093-1.611599999999726-2.676300000000992-2.899599999999737-3.917499999999563l3.426699999999983-8.80370000000039h-5.218000000000302v27.990299999999479h-2.302499999999782v-30.221199999999953h9.856400000000122v2.230900000000474l-3.391599999999926,8.311099999998987ZM300.288386062989957,385.696200000000317c-.305199999999786,1.897500000000946-.714799999999741,3.274400000000242-1.230999999999767,4.127899999999499-.514599999999973.855500000001484-1.353000000000065,1.283700000001772-2.511700000000019,1.283700000001772h-2.740700000000288c-1.828099999999722,0-2.740999999999985-.960900000001857-2.740999999999985-2.88130000000092v-9.29490000000078h-3.708200000000033c-.069799999999759,3.771500000000742-.805199999999786,6.597600000000966-2.204600000000028,8.477500000000873-1.400099999999838,1.879899999999907-3.996599999999944,3.458000000000538-7.792999999999665,4.735399999999572l-1.475600000000213-2.020500000000538c3.525399999999991-1.041999999999462,5.944899999999961-2.390199999999822,7.25689999999986-4.041999999999462,1.312000000000353-1.651400000000649,1.973100000000159-4.022999999999229,1.985300000000279-7.115299999999479h-4.814400000000205v-2.302200000000084h18.819300000000112v2.267099999999118h-5.870600000000195v8.75c0,.292400000000271.094000000000051.565400000001318.281700000000001.816900000001624.18730000000005.252399999999398.410200000000259.377399999999398.66800000000012.377399999999398h2.231700000000274c.456299999999828,0,.805399999999736-.374499999999898,1.04569999999967-1.124499999999898.238700000000335-.748999999999796.441400000000158-1.721199999999953.60590000000002-2.916500000001179l2.196300000000065.861300000000483ZM298.267386062990226,369.759700000000521l-2.23090000000002.035099999999147v-3.09269999999924h-13.248600000000351v3.09269999999924h-2.266799999999876v-5.324199999999109h7.71309999999994v-3.988300000000891h2.302700000000186v3.953700000001845h7.73050000000012v5.323699999999008ZM295.3161860629898,373.150300000001153h-11.878399999999601v-2.301300000000992h11.878399999999601v2.301300000000992Z"/><path class="uuid-51b1fe89-1c05-4d01-bcf7-d4b1a2263701" d="M384.455206062989873,385.783600000000661h-14.145500000000084v2.442900000000009c0,2.611300000000483-1.388699999999972,3.917999999999665-4.16359999999986,3.917999999999665h-2.336899999999787l-.86160000000018-2.161200000000463h3.268300000000181c1.148499999999785,0,1.722699999999804-.527299999999741,1.722699999999804-1.581500000000233v-2.618199999998978h-15.427999999999884v-2.19629999999961h15.427999999999884v-1.511200000000827c2.447700000000168-.913099999999758,4.199200000000019-1.768599999999424,5.252899999999954-2.564899999999398h-13.458999999999833v-2.02100000000064h17.359199999999873v1.915000000000873c-1.826399999999921,1.242199999998775-4.088200000000143,2.513199999999415-6.782000000000153,3.813000000000102v.369099999999889h14.145500000000084v2.19629999999961ZM382.978106062989809,379.265600000000632h-2.107899999999972v-3.637699999999313h-24.545399999999972v3.847599999999147h-2.302699999999732v-5.902299999999741h3.023400000000038v-10.718800000000556c1.661599999999908-.16359999999986,3.483899999999721-.954599999999118,5.462899999999991-2.372100000000501l1.160199999999804,1.616700000000492c-1.065900000000056.983900000001086-2.518099999999777,1.727600000000166-4.356999999999971,2.231499999999869v1.475599999999758h4.497600000000148v1.82760000000053h-4.497600000000148v1.915100000000166h4.497600000000148v1.791900000000169h-4.497600000000148v2.232500000000073h18.676800000000185v-2.232500000000073h-4.287100000000009v-1.756799999999203h4.287100000000009v-2.055700000000797h-4.251700000000255v-1.792400000000271h4.251700000000255v-1.914600000000064h-4.972200000000157v-2.126000000000204h7.203199999999924v11.841800000000148h2.758699999999862v5.72860000000037ZM373.016206062990022,365.630800000000818l-1.23090000000002,1.510199999998804c-.66800000000012-.643999999998414-1.575200000000223-1.340299999999843-2.723700000000008-2.090299999999843-.948199999999815.796900000001187-2.014099999999871,1.529300000000148-3.197000000000116,2.196300000001429l-1.441100000000006-1.26470000000154c1.137200000000121-.468699999999444,2.133299999999963-1.018999999998414,2.987800000000334-1.651799999999639-1.429700000000139-.53859999999986-2.583100000000286-.91359999999986-3.461500000000342-1.124499999999898l.895500000000084-1.616700000000492c1.300799999999981.328600000000733,2.606999999999971.75,3.91800000000012,1.26510000000053.831499999999778-.784200000000055,1.529300000000148-1.586900000000242,2.092299999999796-2.407199999999648l1.475600000000213,1.177700000000186c-.469500000000153.725599999999758-1.079099999999926,1.434600000000501-1.828199999999924,2.126000000000204.867199999999684.49120000000039,1.704600000000028,1.11869999999908,2.51319999999987,1.879899999999907ZM373.226706062990161,372.026300000001356l-1.475600000000213,1.159700000000157c-.949500000000171-.726100000001679-1.93309999999974-1.329600000000937-2.951399999999921-1.810100000000602-.633600000000115.480499999999665-1.756600000000162,1.083999999998923-3.374299999999948,1.810100000000602l-1.334900000000289-1.054700000000594c1.511200000000372-.714400000000751,2.594200000000001-1.334500000000844,3.250900000000001-1.862300000000687-.656700000000001-.410200000000259-1.652799999999843-.86620000000039-2.987799999999879-1.370100000000093l1.317900000000009-1.107500000000073c1.206500000000233.433600000000297,2.237300000000232.885299999999916,3.091800000000148,1.353100000000268.328099999999722-.1875.98929999999973-.749099999999089,1.985799999999927-1.686599999999089l1.616300000000138.826199999999517c-.597200000000157.772499999999127-1.265200000000277,1.411099999999351-2.003000000000156,1.914999999999054.972200000000157.444400000000314,1.927799999999934,1.053800000001502,2.864300000000185,1.82720000000154Z"/><path class="uuid-51b1fe89-1c05-4d01-bcf7-d4b1a2263701" d="M468.847826062989952,390.38760000000002h-31.976999999999862v-2.266599999999016h14.898899999999685v-8.24120000000039h-10.735399999999572v-2.266600000000835h10.735399999999572v-7.168399999998655h-7.959499999999935c-.960399999999936,2.494599999999991-2.565399999999954,4.796299999999974-4.81439999999975,6.904699999999139l-2.318400000000111-1.211900000000242c3.840799999999945-3.548799999998664,5.978999999999814-7.895499999998719,6.412600000000111-13.037099999999555l2.372100000000046.685100000000602c-.093800000000101,1.194799999999304-.369200000000092,2.670899999999165-.826700000000073,4.428200000000288h7.099600000000009v-7.696300000001429h2.371399999999994v7.660700000000361h12.404500000000098v2.266600000000835h-12.404500000000098v7.133699999998498h10.577800000000025v2.266200000001845h-10.577800000000025v8.240699999998469h14.741399999999885v2.302200000000084Z"/><path class="uuid-51b1fe89-1c05-4d01-bcf7-d4b1a2263701" d="M553.961146062989883,368.617100000001301l-1.264400000000023,1.827699999999822c-3.99389999999994-.983900000001086-7.122299999999996-2.119700000001103-9.383100000000013-3.408300000000963v1.580600000001141h-11.877899999999954v-1.739199999999983c-3.41989999999987,1.768999999998414-6.48929999999973,2.92279999999846-9.206099999999878,3.461399999998321l-1.159599999999955-1.84519999999975c6.583000000000084-1.604499999999462,12.06439999999975-4.287099999999555,16.445799999999963-8.046899999999368l2.160600000000159.720699999999852c-.23490000000038.292999999999665-.439400000000205.497999999999593-.614300000000185.614300000001094,3.88819999999987,3.233399999999165,8.856000000000222,5.511699999999109,14.898999999999887,6.834899999999834ZM550.219446062989846,378.685499999999593h-25.511700000000019v-8.240699999998469h25.511700000000019v8.240699999998469ZM548.128646062989901,392.178600000001097h-2.162199999999757v-1.405200000001059h-16.973100000000159v1.405200000001059h-2.160600000000159v-11.648400000000038h21.295900000000074v11.648400000000038ZM536.408346062989949,376.788000000000466v-4.393099999999322h-9.539999999999964v4.393099999999322h9.539999999999964ZM545.966446062990144,384.729400000000169v-2.266599999999016h-16.973100000000159v2.266599999999016h16.973100000000159ZM545.966446062990144,388.875900000000911v-2.301800000001094h-16.973100000000159v2.301800000001094h16.973100000000159ZM534.071446062990162,375.048800000000483l-1.809799999999996,1.264600000000428c-1.088600000000042-1.100599999999758-2.1550000000002-1.915000000000873-3.197000000000116-2.442399999999907l1.826599999999871-1.05370000000039c1.242200000000139.526400000000649,2.301300000000083,1.270500000000538,3.180200000000241,2.231499999999869ZM542.592746062990045,366.667400000000271c-1.697999999999865-.889600000000428-3.343100000000049-2.090799999999945-4.936299999999846-3.602499999999054-1.700200000000223,1.405699999999342-3.602600000000166,2.606899999998859-5.710700000000088,3.602499999999054h10.646999999999935ZM548.057846062989938,376.788000000000466v-4.393099999999322h-9.48739999999998v4.393099999999322h9.48739999999998ZM545.932346062989836,373.432099999999991c-.691899999999805,1.101000000000568-1.734699999999975,2.037600000001476-3.128499999999804,2.810999999999694l-1.932099999999991-.965799999998126c1.533699999999953-.867200000000594,2.588400000000092-1.734400000001187,3.162600000000111-2.601100000001679l1.897999999999683.755900000000111Z"/></g></svg>