<?xml version="1.0" encoding="UTF-8"?><svg id="uuid-5e7f6885-7a3f-4392-8472-8ba4111a39b9" xmlns="http://www.w3.org/2000/svg" width="1023.067957968394126mm" height="250.004011800872064mm" xmlns:xlink="http://www.w3.org/1999/xlink" viewBox="0 0 2900.035200000000259 708.672800000000279"><defs><style>.uuid-088ddc3a-a71d-4fe3-8a92-a9ef60bc3149{clip-path:url(#uuid-77fabc39-8d7c-4647-a9af-81aa60eb21ea);}.uuid-b1b149bd-1f52-432e-a00b-265c721d5ffd{fill:#00c2f3;}.uuid-25873e69-09a1-4533-809b-f441f26ef193{fill:#fff;}.uuid-14a140da-ddf0-42f0-829c-b5c289757c2e{fill:none;}.uuid-aeee230f-a566-425c-ba0e-50859439356f{fill:#333e48;}</style><clipPath id="uuid-77fabc39-8d7c-4647-a9af-81aa60eb21ea"><rect class="uuid-14a140da-ddf0-42f0-829c-b5c289757c2e" width="2900.035200000000259" height="708.672800000000279"/></clipPath></defs><g class="uuid-088ddc3a-a71d-4fe3-8a92-a9ef60bc3149"><path class="uuid-25873e69-09a1-4533-809b-f441f26ef193" d="M158.441394013025274,271.573199999998906c-9.105399769978249,21.527400000000853-14.519499633206578,44.144500000000335-16.170899591488705,67.425800000000891,3.58889990933767-2.921899999999368,8.160199793856009-4.679700000000594,13.137699668113783-4.679700000000594,5.495199861179572,0,10.487299735068518,2.153299999999945,14.216799640853424,5.636700000000928,7.337899814629054-95.592700000001059,87.224597796521266-170.872000000001208,184.701195334055228-170.872000000001208,7.55269980920275,0,13.674799654545495-6.123099999998885,13.674799654545495-13.675799999999072,0-7.552799999999479-6.122099845342746-13.675800000000891-13.674799654545495-13.675800000000891-28.689399275244796,0-56.536098571777984,5.625-82.766597909139819,16.718700000001263-25.317399360428681,10.709999999999127-48.050798786134692,26.033199999999852-67.566398293129168,45.54989999999998-19.518599506917781,19.517499999999927-34.844699119748839,42.250899999999092-45.551798849264742,67.572199999998702Z"/><path class="uuid-25873e69-09a1-4533-809b-f441f26ef193" d="M339.18558944704273,538.969699999999648c-94.9550976012315-7.682600000000093-169.672895713702019-86.963900000000649-170.101595702872146-183.795899999999165,0-7.552700000000186-6.12009984539236-13.676800000001094-13.675799654520233-13.676800000001094-7.55269980920275,0-13.675699654522759,6.124100000000908-13.675699654522759,13.676800000001094.10929999723885,28.39259999999922,5.721599855460227,55.953099999998813,16.708899577897682,81.925799999999072,10.707099729515903,25.319299999999203,26.033199342346961,48.054700000000594,45.551798849264742,67.568300000000818,19.515599506994477,19.519599999999627,42.248998932700488,34.843799999998737,67.566398293129168,45.553799999999683,21.256799463008065,8.989199999999983,43.574198899224029,14.385699999998906,66.539998319058213,16.110300000000279-2.886699927075824-3.579100000000835-4.626899883114675-8.122100000000501-4.626899883114675-13.067399999999907,0-5.534200000000055,2.183610408636923-10.557600000000093,5.712899855680007-14.29490000000078Z"/><path class="uuid-25873e69-09a1-4533-809b-f441f26ef193" d="M502.527385320681788,487.412099999999555c-2.669899932552653-2.66990000000078-6.168999844157952-4.004899999999907-9.668999755740515-4.004899999999907-3.498999911607825,0-7.00089982314239,1.334999999999127-9.671799755669781,4.004899999999907-33.342799157690024,32.291000000001077-78.777398009915487,52.176699999999983-128.860396744712489,52.176699999999983-7.55269980920275,0-13.675799654520233,6.123100000000704-13.675799654520233,13.675800000000891,0,7.552799999999479,6.123099845317483,13.675799999999072,13.675799654520233,13.675799999999072,28.690399275219534,0,56.534198571825982-5.625,82.763697909213079-16.718699999999444,24.407199383422267-10.322299999999814,46.401298827804567-24.948300000000017,65.437498346909706-43.467800000000352,5.343699865006784-5.341800000000148,5.343699865006784-14,0-19.341800000000148Z"/><path class="uuid-25873e69-09a1-4533-809b-f441f26ef193" d="M354.326189064559003,566.940399999999499c-7.55269980920275,0-13.675799654520233-6.122999999999593-13.675799654520233-13.675799999999072,0-7.552700000000186,6.123099845317483-13.675800000000891,13.675799654520233-13.675800000000891,50.082998734797002,0,95.517597587022465-19.885699999998906,128.860396744712489-52.176699999999983,2.670899932527391-2.66990000000078,6.172799844061956-4.004899999999907,9.671799755669781-4.004899999999907,3.499999911582563,0,6.999099823187862,1.334999999999127,9.668999755740515,4.004899999999907,5.343699865006784,5.341800000000148,5.343699865006784,14,0,19.341800000000148-19.036199519105139,18.519500000000335-41.030298963487439,33.145500000000538-65.437498346909706,43.467800000000352-26.229499337387097,11.093699999999444-54.073298633993545,16.718699999999444-82.763697909213079,16.718699999999444ZM271.559591155419184,550.221700000000055c-25.317399360428681-10.710000000000946-48.050798786134692-26.034200000000055-67.566398293129168-45.553799999999683-19.518599506917781-19.513600000000224-34.844699119748839-42.249000000001615-45.551798849264742-67.568300000000818-10.987299722437456-25.972700000000259-16.599599580658833-53.533199999999852-16.708899577897682-81.925799999999072,0-7.552700000000186,6.12299984532001-13.676800000001094,13.675699654522759-13.676800000001094,7.555699809127873,0,13.675799654520233,6.124100000000908,13.675799654520233,13.676800000001094.428699989170127,96.831999999998516,75.146498101640645,176.113299999999072,170.101595702872146,183.795899999999165-3.529289447043084,3.737300000000687-5.712899855680007,8.760700000000725-5.712899855680007,14.29490000000078,0,4.945299999999406,1.74019995603885,9.488299999999072,4.626899883114675,13.067399999999907-22.965799419834184-1.724600000001374-45.283198856050149-7.121100000000297-66.539998319058213-16.110300000000279ZM354.326189064559003,141.732399999998961c7.55269980920275,0,13.674799654545495,6.123000000001412,13.674799654545495,13.675800000000891,0,7.552700000000186-6.122099845342746,13.675799999999072-13.674799654545495,13.675799999999072-97.476597537533962,0-177.363295519426174,75.279300000000148-184.701195334055228,170.872000000001208-3.729499905784905-3.483400000000984-8.721599779673852-5.636700000000928-14.216799640853424-5.636700000000928-4.977499874257774,0-9.548799758776113,1.757800000001225-13.137699668113783,4.679700000000594,1.651399958282127-23.281300000000556,7.065499821510457-45.898400000000038,16.170899591488705-67.425800000000891,10.707099729515903-25.32129999999961,26.033199342346961-48.054699999998775,45.551798849264742-67.572199999998702,19.515599506994477-19.516700000000128,42.248998932700488-34.839900000000853,67.566398293129168-45.54989999999998,26.230499337361834-11.093700000001263,54.077198633895023-16.718700000001263,82.766597909139819-16.718700000001263Z"/><path class="uuid-25873e69-09a1-4533-809b-f441f26ef193" d="M466.91308622037468,241.75c-30.071299240335065-30.07129999999961-70.056598230221425-46.631900000000314-112.586897155815677-46.631900000000314-42.528298925644776,0-82.51369791552861,16.560600000000704-112.583997155888937,46.631900000000314-30.072199240312329,30.073199999998906-46.636698821857863,70.057600000000093-46.636698821857863,112.585900000000038,0,42.530300000000352,16.564499581545533,82.511699999999109,46.636698821857863,112.585900000000038,30.070299240360328,30.070399999998699,70.055698230244161,46.634799999999814,112.583997155888937,46.634799999999814,42.530298925594252,0,82.515597915480612-16.564400000001115,112.586897155815677-46.634799999999814,30.072299240309803-30.074200000000928,46.631898821979121-70.055599999999686,46.631898821979121-112.585900000000038,0-42.528299999999945-16.559599581669318-82.512700000001132-46.631898821979121-112.585900000000038Z"/><path class="uuid-aeee230f-a566-425c-ba0e-50859439356f" d="M242.116191899222031,405.826100000000224v-102.978500000001077h22.33310810077819v7.612300000000687h-12.94540833793144v87.753899999999703h12.94540833793144v7.612300000000687h-22.33310810077819Z"/><path class="uuid-aeee230f-a566-425c-ba0e-50859439356f" d="M466.538086229847977,302.847599999999147v102.978500000001077h-22.330099435894226v-7.612300000000687h12.939499673120736v-87.753899999999703h-12.939499673120736v-7.612300000000687h22.330099435894226Z"/><path class="uuid-b1b149bd-1f52-432e-a00b-265c721d5ffd" d="M293.986390588870563,375.255799999998999c0,2.058600000000297.03219999918656,4.484400000001187.094699997607677,7.271500000000742.063499998395855,2.789099999999962.151399996175314,5.623999999999796.2597999934369,8.497100000000501.106409420084674,2.873999999999796.234299994081084,5.622099999998682.386699990231136,8.239199999999983.147399996276363,2.617199999998775.330999991638237,4.804699999998775.544899986234668,6.5625h-13.193399666706682v-72.730400000000373c0-6.263699999999517-.10639999731211-11.9375-.322199991860543-17.022500000000946-.212899994621694-5.085900000000038-.535199986479711-9.495099999998274-.96579997560184-13.225599999999758h13.195299666658684v72.408199999999852Z"/><path class="uuid-b1b149bd-1f52-432e-a00b-265c721d5ffd" d="M351.592789133610495,340.176699999999983v8.433600000000297h-12.100599694313132v48.786199999998644h12.100599694313132v8.431600000001708h-36.041999089502497v-8.431600000001708h11.906299699221563v-48.786199999998644h-11.906299699221563v-8.433600000000297h36.041999089502497Z"/><path class="uuid-b1b149bd-1f52-432e-a00b-265c721d5ffd" d="M378.62698845066916,340.176699999999983c.256799993512686.6875.514599987000111,1.576199999999517.771499980510271,2.673899999999776.260699993414164,1.09269999999924.492199987565982,2.239199999999983.708999982089153,3.441399999999703.211899994646956,1.201100000000224.405199989763787,2.381800000001022.579999985347968,3.540000000000873l.51181160138367,2.89259999999922c4.120999999999185-4.888699999999517,8.259688177029602-8.416999999999462,12.42278807186085-10.584999999999127,4.16209989485651-2.166000000001077,8.498999785297201-3.25,13.001999671541853-3.25,3.433599913259968,0,6.469699836561631.568400000000111,9.107399769927724,1.70509999999922,2.638699933340831,1.139600000000428,4.860299877218495,2.941399999999703,6.663099831675936,5.406300000000556,1.799799954533228,2.468699999999444,3.161099920143897,5.666900000000169,4.086899896756222,9.590799999999945.922812758237342,3.927700000000186,1.382812758236469,8.656199999999444,1.382812758236469,14.195299999999406v28.959000000000742c0,7.251899999999296-.6338127771578,13.273400000000038-1.900412745160793,18.054699999998775-1.262699968101515,4.787100000001374-3.036099923301663,8.604400000000169-5.30858725483813,11.460900000000038-2.272512553647175,2.849600000001374-5.010712484474425,4.868200000000797-8.207000000000335,6.046900000001187-3.196312322983431,1.180599999999686-6.747112233282678,1.771499999998923-10.652412134626502,1.771499999998923-1.929699951251678,0-4.000899898928765-.3125-6.209899843124731-.933600000000297-2.208999944195966-.624099999999089-4.21489989352267-1.491299999999683-6.017599847982638-2.607500000000073l4.183599894313375-9.65519999999924c.987311931419754.730400000000373,2.305699941753119,1.340799999999945,3.95799990001251,1.835900000000038,1.651399958282127.492200000000594,3.336899915702816.738300000000891,5.049799872431322.738300000000891,2.06251215897646,0,3.907199901295826-.331100000001243,5.539999860047828-.996100000000297,1.628899958850525-.665100000000166,3.011799923915532-1.833000000000538,4.148512298928836-3.506800000001022,1.13768756753052-1.67489999999998,2.006787545575207-3.969799999998941,2.608387530377513-6.887699999999313.599612469623025-2.918999999999869.900399977253983-6.630900000000111.900399977253983-11.135800000000017v-28.320299999999406c0-5.148400000000038-.268599993214593-9.322300000001633-.804699979671568-12.517600000001039-.536199986454449-3.197200000000521-1.342799966078019-5.6875-2.415087527959258-7.466800000000148-1.071212383969396-1.781199999999444-2.413000000000466-2.970699999999852-4.024412309365289-3.574199999999109-1.606399959418923-.597600000000966-3.483399912001914-.900400000000445-5.629899857776763-.900400000000445-2.316399941482814,0-4.577099884372728.548800000000483-6.787999828520697,1.644500000000335-2.208099944218702,1.091800000000148-4.240299892881012,2.507899999998699-6.08499984627997,4.246100000000297-1.844688158058489,1.736399999999776-3.474599912224221,3.699299999998402-4.889688158058561,5.888699999999517-1.414999999999054,2.189500000000407-2.467711656077881,4.375-3.156211638684908,6.564500000000407v37.332000000000335h-11.905299699246825v-39.584000000000742c0-6.349599999999555-.36619999074901-11.724599999999555-1.09569997232029-16.122999999999593-.727499981621804-4.39850000000115-1.438499963660433-7.713900000000649-2.123999946343247-9.944400000000314h11.587899707265024Z"/><rect class="uuid-14a140da-ddf0-42f0-829c-b5c289757c2e" x="2037.911167187499814" y="314.122043749999648" width="701.1923828125" height="88.8798828125"/><path class="uuid-25873e69-09a1-4533-809b-f441f26ef193" d="M2079.272495312499814,332.121067187499648l-5.6005859375,6.4794921875c-3.919921875-3.2001953125-7.759765625-4.6396484375-12.240234375-4.6396484375-4.7998046875,0-8.080078125,2.080078125-8.080078125,6,0,3.83984375,2.080078125,5.4404296875,11.1201171875,8.240234375,10,3.2001953125,16.400390625,7.3603515625,16.400390625,17.6005859375,0,10.16015625-8,17.2802734375-21.4404296875,17.2802734375-9.2001953125,0-15.919921875-3.2802734375-20.48046875-7.7607421875l6.080078125-6.6396484375c4,3.439453125,8.400390625,5.51953125,14.080078125,5.51953125,5.6806640625,0,9.5205078125-2.7197265625,9.5205078125-7.599609375,0-4.400390625-2.16015625-6.3203125-10.560546875-8.8798828125-12-3.7607421875-16.7998046875-8.560546875-16.7998046875-16.9609375,0-9.4404296875,8.16015625-15.6005859375,19.3603515625-15.6005859375,8.240234375,0,13.83984375,2.48046875,18.640625,6.9609375Z"/><path class="uuid-25873e69-09a1-4533-809b-f441f26ef193" d="M2124.311557812499814,364.040989062499648h-26.48046875c.7998046875,8.16015625,4.6396484375,10.560546875,10.080078125,10.560546875,3.599609375,0,6.6396484375-1.1201171875,10.3203125-3.6796875l4.7197265625,6.3994140625c-4.16015625,3.3603515625-9.4404296875,5.7607421875-16.080078125,5.7607421875-13.6005859375,0-20.720703125-8.9599609375-20.720703125-22.2412109375,0-12.7998046875,6.8798828125-22.7197265625,19.2802734375-22.7197265625,12,0,19.12109375,8,19.12109375,21.5205078125,0,1.439453125-.16015625,3.2001953125-.240234375,4.3994140625ZM2113.271518749999814,356.441379687499648c0-6.400390625-2.16015625-10.560546875-7.6005859375-10.560546875-4.48046875,0-7.2001953125,2.9599609375-7.83984375,11.0400390625h15.4404296875v-.4794921875Z"/><path class="uuid-25873e69-09a1-4533-809b-f441f26ef193" d="M2162.390659374999814,343.241184374999648l-4.3203125,6.4794921875c-3.4404296875-2.16015625-6.8798828125-3.359375-10.560546875-3.359375-3.759765625,0-5.83984375,1.51953125-5.83984375,3.83984375,0,2.4794921875,1.4404296875,3.599609375,8.8798828125,5.759765625,8.48046875,2.3203125,13.2802734375,5.8408203125,13.2802734375,13.3603515625,0,8.80078125-8.240234375,13.7607421875-18.3203125,13.7607421875-7.3603515625,0-13.2802734375-2.48046875-17.2802734375-6.16015625l5.6005859375-6.240234375c3.2001953125,2.4794921875,7.1201171875,4.16015625,11.3603515625,4.16015625,4.2392578125,0,6.9599609375-1.759765625,6.9599609375-4.640625,0-3.2001953125-1.5205078125-4.240234375-9.3603515625-6.3994140625-8.560546875-2.400390625-12.560546875-6.640625-12.560546875-13.041015625,0-7.2001953125,6.560546875-12.6396484375,16.80078125-12.6396484375,6.16015625,0,11.3603515625,1.919921875,15.3603515625,5.1201171875Z"/><path class="uuid-25873e69-09a1-4533-809b-f441f26ef193" d="M2200.709995312499814,343.241184374999648l-4.3203125,6.4794921875c-3.4404296875-2.16015625-6.8798828125-3.359375-10.560546875-3.359375-3.759765625,0-5.83984375,1.51953125-5.83984375,3.83984375,0,2.4794921875,1.4404296875,3.599609375,8.8798828125,5.759765625,8.48046875,2.3203125,13.2802734375,5.8408203125,13.2802734375,13.3603515625,0,8.80078125-8.240234375,13.7607421875-18.3203125,13.7607421875-7.3603515625,0-13.2802734375-2.48046875-17.2802734375-6.16015625l5.6005859375-6.240234375c3.2001953125,2.4794921875,7.1201171875,4.16015625,11.3603515625,4.16015625,4.2392578125,0,6.9599609375-1.759765625,6.9599609375-4.640625,0-3.2001953125-1.5205078125-4.240234375-9.3603515625-6.3994140625-8.560546875-2.400390625-12.560546875-6.640625-12.560546875-13.041015625,0-7.2001953125,6.560546875-12.6396484375,16.80078125-12.6396484375,6.16015625,0,11.3603515625,1.919921875,15.3603515625,5.1201171875Z"/><path class="uuid-25873e69-09a1-4533-809b-f441f26ef193" d="M2222.148471874999814,324.200168749999648c0,3.7607421875-2.8798828125,6.640625-6.9599609375,6.640625s-6.8798828125-2.8798828125-6.8798828125-6.640625c0-3.759765625,2.7998046875-6.6396484375,6.8798828125-6.6396484375s6.9599609375,2.8798828125,6.9599609375,6.6396484375ZM2220.948276562499814,381.801731249999648h-11.359375v-42.4013671875h11.359375v42.4013671875Z"/><path class="uuid-25873e69-09a1-4533-809b-f441f26ef193" d="M2270.228549999999814,360.601535937499648c0,13.4404296875-7.599609375,22.48046875-20.3203125,22.48046875-12.6396484375,0-20.3203125-8.400390625-20.3203125-22.48046875,0-13.5205078125,7.6005859375-22.48046875,20.400390625-22.48046875,12.640625,0,20.240234375,8.3994140625,20.240234375,22.48046875ZM2241.427768749999814,360.601535937499648c0,9.759765625,2.880859375,14,8.48046875,14,5.6005859375,0,8.48046875-4.3203125,8.48046875-14,0-9.7607421875-2.8798828125-14.0009765625-8.400390625-14.0009765625-5.6796875,0-8.560546875,4.3203125-8.560546875,14.0009765625Z"/><path class="uuid-25873e69-09a1-4533-809b-f441f26ef193" d="M2314.388706249999814,350.920871874999648v30.880859375h-11.3603515625v-28.9609375c0-4.8798828125-1.759765625-6.240234375-4.640625-6.240234375-3.279296875,0-5.83984375,2.16015625-8.16015625,5.9208984375v29.2802734375h-11.359375v-42.4013671875h9.83984375l.8798828125,5.3603515625c3.4404296875-4.240234375,7.6005859375-6.6396484375,12.9599609375-6.6396484375,7.4404296875,0,11.8408203125,4.7998046875,11.8408203125,12.7998046875Z"/><path class="uuid-25873e69-09a1-4533-809b-f441f26ef193" d="M2378.466831249999814,341.000949999999648c0,8.7998046875-5.4404296875,16.3203125-23.041015625,32.0009765625h24.3203125l-1.2001953125,8.7998046875h-36.080078125v-8.240234375c19.1201171875-18.3203125,24.3203125-24.400390625,24.3203125-31.6005859375,0-4.8798828125-2.9599609375-8-8-8-4.400390625,0-7.2802734375,1.759765625-10.560546875,5.6796875l-7.0400390625-5.51953125c4.400390625-5.6806640625,10.240234375-8.9609375,18.720703125-8.9609375,12.240234375,0,18.560546875,7.2001953125,18.560546875,15.8408203125Z"/><path class="uuid-25873e69-09a1-4533-809b-f441f26ef193" d="M2425.746128124999814,354.040989062499648c0,18.880859375-6.7998046875,29.041015625-19.4404296875,29.041015625s-19.4404296875-10.16015625-19.4404296875-29.041015625c0-18.8798828125,6.7998046875-28.880859375,19.4404296875-28.880859375s19.4404296875,10.0009765625,19.4404296875,28.880859375ZM2398.545932812499814,354.040989062499648c0,15.5205078125,2.4794921875,20.48046875,7.759765625,20.48046875,5.2001953125,0,7.7607421875-4.7197265625,7.7607421875-20.48046875s-2.560546875-20.400390625-7.7607421875-20.400390625c-5.2802734375,0-7.759765625,4.9599609375-7.759765625,20.400390625Z"/><path class="uuid-25873e69-09a1-4533-809b-f441f26ef193" d="M2468.066440624999814,341.000949999999648c0,8.7998046875-5.4404296875,16.3203125-23.041015625,32.0009765625h24.3203125l-1.2001953125,8.7998046875h-36.080078125v-8.240234375c19.1201171875-18.3203125,24.3203125-24.400390625,24.3203125-31.6005859375,0-4.8798828125-2.9599609375-8-8-8-4.400390625,0-7.2802734375,1.759765625-10.560546875,5.6796875l-7.0400390625-5.51953125c4.400390625-5.6806640625,10.240234375-8.9609375,18.720703125-8.9609375,12.240234375,0,18.560546875,7.2001953125,18.560546875,15.8408203125Z"/><path class="uuid-25873e69-09a1-4533-809b-f441f26ef193" d="M2515.345737499999814,354.040989062499648c0,18.880859375-6.7998046875,29.041015625-19.4404296875,29.041015625s-19.4404296875-10.16015625-19.4404296875-29.041015625c0-18.8798828125,6.7998046875-28.880859375,19.4404296875-28.880859375s19.4404296875,10.0009765625,19.4404296875,28.880859375ZM2488.145542187499814,354.040989062499648c0,15.5205078125,2.4794921875,20.48046875,7.759765625,20.48046875,5.2001953125,0,7.7607421875-4.7197265625,7.7607421875-20.48046875s-2.560546875-20.400390625-7.7607421875-20.400390625c-5.2802734375,0-7.759765625,4.9599609375-7.759765625,20.400390625Z"/><path class="uuid-25873e69-09a1-4533-809b-f441f26ef193" d="M2520.224643749999814,352.281223437499648h37.7607421875v8.9599609375h-37.7607421875v-8.9599609375Z"/><path class="uuid-25873e69-09a1-4533-809b-f441f26ef193" d="M2599.265659374999814,341.000949999999648c0,8.7998046875-5.4404296875,16.3203125-23.041015625,32.0009765625h24.3203125l-1.2001953125,8.7998046875h-36.080078125v-8.240234375c19.1201171875-18.3203125,24.3203125-24.400390625,24.3203125-31.6005859375,0-4.8798828125-2.9599609375-8-8-8-4.400390625,0-7.2802734375,1.759765625-10.560546875,5.6796875l-7.0400390625-5.51953125c4.400390625-5.6806640625,10.240234375-8.9609375,18.720703125-8.9609375,12.240234375,0,18.560546875,7.2001953125,18.560546875,15.8408203125Z"/><path class="uuid-25873e69-09a1-4533-809b-f441f26ef193" d="M2646.544956249999814,354.040989062499648c0,18.880859375-6.7998046875,29.041015625-19.4404296875,29.041015625s-19.4404296875-10.16015625-19.4404296875-29.041015625c0-18.8798828125,6.7998046875-28.880859375,19.4404296875-28.880859375s19.4404296875,10.0009765625,19.4404296875,28.880859375ZM2619.344760937499814,354.040989062499648c0,15.5205078125,2.4794921875,20.48046875,7.759765625,20.48046875,5.2001953125,0,7.7607421875-4.7197265625,7.7607421875-20.48046875s-2.560546875-20.400390625-7.7607421875-20.400390625c-5.2802734375,0-7.759765625,4.9599609375-7.759765625,20.400390625Z"/><path class="uuid-25873e69-09a1-4533-809b-f441f26ef193" d="M2688.865268749999814,341.000949999999648c0,8.7998046875-5.4404296875,16.3203125-23.041015625,32.0009765625h24.3203125l-1.2001953125,8.7998046875h-36.080078125v-8.240234375c19.1201171875-18.3203125,24.3203125-24.400390625,24.3203125-31.6005859375,0-4.8798828125-2.9599609375-8-8-8-4.400390625,0-7.2802734375,1.759765625-10.560546875,5.6796875l-7.0400390625-5.51953125c4.400390625-5.6806640625,10.240234375-8.9609375,18.720703125-8.9609375,12.240234375,0,18.560546875,7.2001953125,18.560546875,15.8408203125Z"/><path class="uuid-25873e69-09a1-4533-809b-f441f26ef193" d="M2736.464878124999814,373.082004687499648v8.7197265625h-34.80078125v-8.7197265625h12.9599609375v-35.361328125l-11.83984375,7.1201171875-4.880859375-7.599609375,17.8408203125-10.80078125h10v46.6416015625h10.720703125Z"/><rect class="uuid-25873e69-09a1-4533-809b-f441f26ef193" x="1925.949300000000221" y="242.899400000000242" width="3" height="228.44629999999961"/><path class="uuid-25873e69-09a1-4533-809b-f441f26ef193" d="M626.665976719668834,336.834399999999732v-100.47110000000248h12.090799694560701v89.819300000002841h42.750998920018901v10.651799999999639h-54.841798614579602Z"/><path class="uuid-25873e69-09a1-4533-809b-f441f26ef193" d="M703.385674781566195,245.143499999998312c-2.497099936917948,0-4.295899891476438-.597600000000966-5.397494398639537-1.798800000000483-1.104405437108653-1.199199999999109-1.656205423169013-2.756799999999203-1.656205423169013-4.67870000000039v-1.871100000000297c0-1.918499999999767.55179998606036-3.477499999997235,1.656205423169013-4.678199999998469,1.101594507163099-1.198800000001938,2.900394461721589-1.799299999998766,5.397494398639537-1.799299999998766,2.494125218436238,0,4.294025218434399.600499999996828,5.397525218435476,1.799299999998766,1.102500000000873,1.200700000001234,1.655200000001059,2.759699999998702,1.655200000001059,4.678199999998469v1.871100000000297c0,1.921900000001187-.552700000000186,3.479500000001281-1.655200000001059,4.67870000000039-1.103500000001077,1.201199999999517-2.903399999999237,1.798800000000483-5.397525218435476,1.798800000000483ZM697.627874927020457,262.561499999999796h11.515625072981493v74.272899999999936h-11.515625072981493v-74.272899999999936Z"/><path class="uuid-25873e69-09a1-4533-809b-f441f26ef193" d="M733.61317948296346,336.834399999999732v-74.272899999999936h11.515699709088949v11.953099999998813h.576120807949337c1.82129999999961-4.17870000000039,4.389699999999721-7.505799999998999,7.700199999999313-9.974600000001374,3.311600000000908-2.469699999997829,7.748100000000704-3.706500000000233,13.314500000000407-3.706500000000233,7.676800000001094,0,13.747100000000501,2.471199999999953,18.208999999998923,7.412599999999657,4.461900000002061,4.943300000002637,6.693278017537523,11.925700000003417,6.693278017537523,20.94380000000092v47.644500000002154h-11.514578017537133v-45.728500000001077c0-13.368600000001607-5.615200000000186-20.052700000000186-16.841799999998329-20.052700000000186-2.302700000000186,0-4.535200000002078.290499999999156-6.693400000000111.865699999998469-2.159100000000763.578100000002451-4.102500000000873,1.443900000002031-5.830000000001746,2.597700000002078-1.726599999998143,1.153800000000047-3.094799999998941,2.620100000000093-4.101599999998143,4.399399999998423-1.007820820679626,1.778800000000047-1.511720807950041,3.871100000000297-1.511720807950041,6.274900000000343v51.64350000000195h-11.515699709088949Z"/><path class="uuid-25873e69-09a1-4533-809b-f441f26ef193" d="M874.387675926700467,334.387699999999313c0,10.266599999999016-2.878899927272869,18.328099999998813-8.636775926697737,24.181599999999889-5.757823709664081,5.852999999999156-13.868123504780669,8.781299999998737-24.326100000002043,8.781299999998737-6.045923087855044,0-11.253022956312634-.940500000000611-15.618222846038407-2.818400000000111-4.367199889675248-1.882300000001123-7.988277153959643-4.363300000000891-10.867199725471437-7.447299999999814l6.765622571510903-7.952099999998609c2.494200000001001,2.568299999998999,5.373100000000704,4.54490000000078,8.636800000000221,5.926299999999173,3.260699999998906,1.380799999998999,7.052700000000186,2.070800000001327,11.371100000000297,2.070800000001327,6.715799999998126,0,11.921800000000076-1.855500000001484,15.617099999999482-5.563500000000204,3.693400000000111-3.713900000002468,5.541976217609772-9.183600000000297,5.541976217609772-16.411600000003091v-10.273999999997613h-.575199985469226c-2.208876232140028,4.561099999998987-5.087776232139731,7.979499999997643-8.636676232141326,10.259799999999814-3.551699999999983,2.281200000001263-7.917023349677038,3.421399999999267-13.09962321875355,3.421399999999267-4.60547678124567,0-8.779276781246153-.91359999999986-12.522376781245839-2.73489999999947-3.742200000000594-1.822199999998702-6.909222727870656-4.413100000001577-9.5-7.772400000001653-2.590899999999237-3.358399999997346-4.606522546051565-7.435599999997066-6.045900000000984-12.235399999997753-1.43952247332345-4.79739999999947-2.158199999998033-10.170900000000984-2.158199999998033-16.122100000000501,0-5.948199999998906.718677526674583-11.321700000000419,2.158199999998033-16.121100000000297,1.439377453949419-4.797299999998359,3.455000000001746-8.875400000000809,6.045900000000984-12.235300000000279,2.590777272129344-3.357899999999063,5.757799999999406-5.948700000000827,9.5-7.772499999999127,3.743099999999686-1.82220000000234,7.916900000000169-2.734800000001997,12.522376781245839-2.734800000001997,5.182599869076512,0,9.619223218753177,1.117600000001403,13.315423218755313,3.34860000000117,3.692399999999907,2.233400000000984,6.499076280688314,5.676800000001094,8.420876232139562,10.332500000000437h.575199985469226v-11.953099999998813h11.515699709088949v71.826199999999517ZM844.015600000002451,328.341799999998329c2.591799999998329,0,5.038099999997939-.337400000000343,7.341799999998329-1.01220000000103,2.302700000000186-.674800000000687,4.293000000001484-1.664600000000064,5.972600000000966-2.966300000000047,1.677776315227675-1.299899999998161,3.023499999999331-2.89259999999922,4.031299999998737-4.772499999999127,1.00677623034062-1.88039999999819,1.510676217611035-4.075199999999313,1.510676217611035-6.582999999998719v-27.632300000001123c0-2.024000000001251-.481376217609068-3.929199999998673-1.439399963637698-5.715400000000955-.959976253972854-1.783199999998033-2.303699941803643-3.301199999998062-4.030276253972261-4.556099999997969-1.727500000000873-1.252500000002328-3.742200000000594-2.240700000002107-6.04490000000078-2.964400000000751-2.30370000000039-.724099999999453-4.75-1.08640000000014-7.341799999998329-1.08640000000014-6.527423141142208,0-11.709023010243982,2.073199999998906-15.54490000000078,6.221199999999953-3.839899999999034,4.147400000001653-5.757799999999406,9.499500000001717-5.757799999999406,16.058099999998376v12.730000000003201c0,6.558599999996659,1.917900000000373,11.911099999997532,5.757799999999406,16.058599999996659,3.835876989756798,4.14690000000337,9.017476858858572,6.220700000001671,15.54490000000078,6.220700000001671Z"/><path class="uuid-25873e69-09a1-4533-809b-f441f26ef193" d="M944.628899999999703,324.880799999998999h-.576199999999517c-.768599999999424,1.711499999997613-1.704100000000835,3.398499999999331-2.806599999999889,5.060600000000704-1.10360000000037,1.662099999997736-2.470699999999852,3.134699999998702-4.101599999999962,4.41649999999936-1.632800000001225,1.282199999997829-3.59860000000117,2.30370000000039-5.902299999999741,3.063900000001013-2.302800000001298.759799999999814-4.990300000001298,1.140199999998003-8.060600000000704,1.140199999998003-7.677725111981999,0-13.771499999998923-2.469700000001467-18.280299999998533-7.41359999999986-4.511699999999109-4.94090000000142-6.765599999998813-11.921900000001187-6.765599999998813-20.94289999999819v-47.644000000000233h11.515599999998813v45.727499999997235c0,13.368700000002718,5.661174892851704,20.052800000001298,16.985399999997753,20.052800000001298,2.302700000000186,0,4.534200000000055-.287100000001374,6.693300000000818-.86620000000039,2.159200000000055-.575199999999313,4.077199999999721-1.440500000000611,5.757900000000518-2.594799999998941,1.677700000000186-1.154300000001967,3.022399999999834-2.620100000000093,4.029300000000148-4.399400000002061,1.007799999999406-1.778299999998126,1.511699999999109-3.919899999997142,1.511699999999109-6.421399999999267v-51.498499999997875h11.515600000000632v74.272899999999936h-11.515600000000632v-11.953600000000733Z"/><path class="uuid-25873e69-09a1-4533-809b-f441f26ef193" d="M986.371100000000297,245.143499999998312c-2.496100000000297,0-4.295000000000073-.597600000000966-5.397500000000946-1.798800000000483-1.104499999999462-1.199199999999109-1.655300000000352-2.756799999999203-1.655300000000352-4.67870000000039v-1.871100000000297c0-1.918499999999767.550800000000891-3.477499999997235,1.655300000000352-4.678199999998469,1.102500000000873-1.198800000001938,2.901400000000649-1.799299999998766,5.397500000000946-1.799299999998766,2.494099999999889,0,4.293900000000576.600499999996828,5.398400000000038,1.799299999998766,1.101599999999962,1.200700000001234,1.654300000000148,2.759699999998702,1.654300000000148,4.678199999998469v1.871100000000297c0,1.921900000001187-.552700000000186,3.479500000001281-1.654300000000148,4.67870000000039-1.104499999999462,1.201199999999517-2.904300000000148,1.798800000000483-5.398400000000038,1.798800000000483ZM980.613199999999779,262.561499999999796h11.515699999999924v74.272899999999936h-11.515699999999924v-74.272899999999936Z"/><path class="uuid-25873e69-09a1-4533-809b-f441f26ef193" d="M1038.910099999999147,338.561999999998079c-6.909200000000055,0-12.691399999999703-1.319800000001123-17.344699999999648-3.95850000000064-4.655300000000352-2.638199999997596-8.661099999999351-6.165099999998347-12.019500000000335-10.58009999999922l8.204100000000835-6.621100000000297c2.878899999999703,3.648000000001048,6.093699999999444,6.45509999999922,9.644500000000335,8.41990000000078,3.548799999998664,1.968799999998737,7.676799999999275,2.951700000001438,12.378899999999703,2.951700000001438,4.894500000000335,0,8.709000000000742-1.055200000002515,11.443400000000111-3.166500000002998,2.735300000000279-2.10989999999947,4.102499999999054-5.085899999998219,4.102499999999054-8.924799999997049,0-2.878900000003341-.935499999999593-5.348200000000361-2.806599999999889-7.413100000001577-1.872099999998682-2.0625-5.253899999999703-3.476600000001781-10.147499999999127-4.246100000000297l-5.902299999999741-.863799999999173c-3.455100000001039-.47899999999936-6.621100000000297-1.223099999999249-9.5-2.230900000002293-2.878900000001522-1.007799999999406-5.397500000000946-2.350599999997939-7.556700000001001-4.030299999998533-2.159200000000055-1.677700000000186-3.839799999999741-3.76510000000053-5.038099999999758-6.261699999999109-1.201100000000224-2.494099999999889-1.799800000000687-5.469700000001467-1.799800000000687-8.923800000000483,0-3.646499999998923.66990000000078-6.837400000000343,2.015699999999924-9.572800000001735,1.342700000001059-2.73489999999947,3.189400000001115-5.012199999997392,5.541900000000169-6.836899999998423,2.350600000001577-1.821800000001531,5.15730000000076-3.189900000001217,8.420000000000073-4.102100000000064,3.261700000000928-.91110000000117,6.765600000000632-1.367600000001403,10.508800000001429-1.367600000001403,6.044899999998961,0,11.105399999998554,1.05710000000181,15.185499999999593,3.166500000002998,4.077100000000428,2.112299999997049,7.65139999999883,5.038099999997939,10.723599999999351,8.780199999997421l-7.629800000000614,6.909200000001874c-1.632899999998699-2.302700000000186-4.029299999998329-4.39010000000053-7.19629999999961-6.260700000002544-3.166999999999462-1.87159999999858-7.149499999999534-2.807600000000093-11.947299999999814-2.807600000000093-4.799799999998868,0-8.420899999999165,1.032200000001467-10.868199999998978,3.095200000003388-2.446300000001429,2.063899999997375-3.66990000000078,4.87159999999858-3.66990000000078,8.420399999999063,0,3.648399999998219,1.223599999999351,6.286099999997532,3.66990000000078,7.91649999999936,2.447299999999814,1.633300000001327,5.974599999999555,2.831500000000233,10.58009999999922,3.599099999999453l5.757799999999406.863300000000891c8.252000000000407,1.247999999999593,14.106499999999869,3.623499999997875,17.560600000000704,7.125,3.454999999999927,3.504899999999907,5.182600000000093,8.085399999999936,5.182600000000093,13.746100000000297,0,7.197299999999814-2.447299999999814,12.860799999998562-7.340799999999945,16.985799999998562-4.894599999999627,4.127500000002328-11.613300000000891,6.189500000000407-20.152400000000853,6.189500000000407Z"/><path class="uuid-25873e69-09a1-4533-809b-f441f26ef193" d="M1102.101500000000669,336.834399999999732c-4.029300000000148,0-7.077100000000428-1.124500000001717-9.139600000000428-3.373500000001513-2.064500000000407-2.248999999999796-3.094699999999648-5.195299999999406-3.094699999999648-8.834500000000844v-51.846199999999953h-12.235400000001391v-10.218699999997625h6.909200000000055c2.494099999999889,0,4.197200000000521-.504899999999907,5.110300000000279-1.512700000002951.911200000000463-1.006799999999203,1.367200000000594-2.756799999999203,1.367200000000594-5.252899999999499v-13.819400000000314h10.364299999999275v20.585000000002765h16.265600000000632v10.218699999997625h-16.265600000000632v53.835000000002765h15.113300000000891v10.219199999999546h-14.394599999999627Z"/><path class="uuid-25873e69-09a1-4533-809b-f441f26ef193" d="M1141.973599999999351,245.143499999998312c-2.496099999998478,0-4.295899999999165-.597600000000966-5.397499999999127-1.798800000000483-1.104499999999462-1.199199999999109-1.655200000001059-2.756799999999203-1.655200000001059-4.67870000000039v-1.871100000000297c0-1.918499999999767.550700000001598-3.477499999997235,1.655200000001059-4.678199999998469,1.101599999999962-1.198800000001938,2.901400000000649-1.799299999998766,5.397499999999127-1.799299999998766,2.495100000000093,0,4.293900000000576.600499999996828,5.397500000000946,1.799299999998766,1.102499999999054,1.200700000001234,1.656199999999444,2.759699999998702,1.656199999999444,4.678199999998469v1.871100000000297c0,1.921900000001187-.55370000000039,3.479500000001281-1.656199999999444,4.67870000000039-1.10360000000037,1.201199999999517-2.902400000000853,1.798800000000483-5.397500000000946,1.798800000000483ZM1136.215799999999945,262.561499999999796h11.515600000000632v74.272899999999936h-11.515600000000632v-74.272899999999936Z"/><path class="uuid-25873e69-09a1-4533-809b-f441f26ef193" d="M1199.837900000000445,338.561999999998079c-5.181700000001001,0-9.837000000001353-.91359999999986-13.962000000001353-2.73489999999947-4.126899999999296-1.822199999998702-7.606399999998757-4.413100000001577-10.435499999999593-7.772400000001653-2.832000000000335-3.358399999997346-4.99120000000039-7.435599999997066-6.477499999999054-12.235399999997753-1.488300000000891-4.79739999999947-2.230499999999665-10.170900000000984-2.230499999999665-16.122100000000501,0-5.948199999998906.742199999998775-11.321700000000419,2.230499999999665-16.121100000000297,1.486299999998664-4.797299999998359,3.645499999998719-8.875400000000809,6.477499999999054-12.235300000000279,2.829100000000835-3.357899999999063,6.308600000000297-5.948700000000827,10.435499999999593-7.772499999999127,4.125-1.82220000000234,8.780300000000352-2.734800000001997,13.962000000001353-2.734800000001997,7.388600000000224,0,13.315399999999499,1.607900000002701,17.777299999999741,4.821700000000419,4.461900000000242,3.216400000001158,7.794899999998961,7.413100000001577,10.003899999999703,12.594800000002579l-9.644500000000335,4.894499999998516c-1.343800000000556-3.837400000000343-3.550799999999072-6.813000000001921-6.621100000000297-8.924800000000687-3.072299999999814-2.109400000001187-6.909200000000055-3.16649999999936-11.515599999998813-3.16649999999936-3.454100000000835,0-6.476599999999962.553199999998469-9.068400000000111,1.655299999998533-2.589799999999741,1.104000000002998-4.75,2.64010000000053-6.476599999999962,4.606400000000576-1.727500000000873,1.96730000000025-3.023400000000038,4.318400000000111-3.886700000000928,7.052700000000186-.863299999999072,2.73489999999947-1.295899999999165,5.735899999999674-1.295899999999165,8.995699999999488v12.666900000000169c0,6.527900000000955,1.75,11.876000000000204,5.254899999999907,16.050300000002608,3.501000000000204,4.174399999999878,8.658199999999852,6.2612999999983,15.472700000000259,6.2612999999983,9.306599999999889,0,16.025299999999334-4.318400000000111,20.152299999999741-12.95509999999922l8.348599999999351,5.614199999999983c-2.399400000000242,5.375499999998283-5.973599999999351,9.644599999999627-10.723599999999351,12.811099999998987s-10.675800000000891,4.75-17.777299999999741,4.75Z"/><path class="uuid-25873e69-09a1-4533-809b-f441f26ef193" d="M1266.914000000000669,338.561999999998079c-6.909200000000055,0-12.691400000001522-1.319800000001123-17.344700000001467-3.95850000000064-4.655299999998533-2.638199999997596-8.661099999999351-6.165099999998347-12.019499999998516-10.58009999999922l8.204099999999016-6.621100000000297c2.878899999999703,3.648000000001048,6.093699999999444,6.45509999999922,9.644500000000335,8.41990000000078,3.548800000000483,1.968799999998737,7.675799999999072,2.951700000001438,12.378899999999703,2.951700000001438,4.894500000000335,0,8.709000000000742-1.055200000002515,11.443400000000111-3.166500000002998,2.735300000000279-2.10989999999947,4.102499999999054-5.085899999998219,4.102499999999054-8.924799999997049,0-2.878900000003341-.935499999999593-5.348200000000361-2.806599999999889-7.413100000001577-1.872099999998682-2.0625-5.253899999999703-3.476600000001781-10.147499999999127-4.246100000000297l-5.902299999999741-.863799999999173c-3.455100000001039-.47899999999936-6.621100000000297-1.223099999999249-9.5-2.230900000002293-2.878899999999703-1.007799999999406-5.397500000000946-2.350599999997939-7.556700000001001-4.030299999998533-2.159200000000055-1.677700000000186-3.839799999999741-3.76510000000053-5.038099999999758-6.261699999999109-1.201100000000224-2.494099999999889-1.799799999998868-5.469700000001467-1.799799999998868-8.923800000000483,0-3.646499999998923.670000000000073-6.837400000000343,2.015699999999924-9.572800000001735,1.34269999999924-2.73489999999947,3.189399999999296-5.012199999997392,5.541900000000169-6.836899999998423,2.350599999999758-1.821800000001531,5.157299999998941-3.189900000001217,8.420000000000073-4.102100000000064,3.260699999998906-.91110000000117,6.765599999998813-1.367600000001403,10.50879999999961-1.367600000001403,6.044899999998961,0,11.105400000000373,1.05710000000181,15.185499999999593,3.166500000002998,4.077199999999721,2.112299999997049,7.651400000000649,5.038099999997939,10.723599999999351,8.780199999997421l-7.629799999998795,6.909200000001874c-1.632900000000518-2.302700000000186-4.029300000000148-4.39010000000053-7.197299999999814-6.260700000002544-3.166000000001077-1.87159999999858-7.148400000000038-2.807600000000093-11.946300000001429-2.807600000000093-4.799799999998868,0-8.420899999999165,1.032200000001467-10.868199999998978,3.095200000003388-2.44629999999961,2.063899999997375-3.66990000000078,4.87159999999858-3.66990000000078,8.420399999999063,0,3.648399999998219,1.22360000000117,6.286099999997532,3.66990000000078,7.91649999999936,2.447299999999814,1.633300000001327,5.974599999999555,2.831500000000233,10.58009999999922,3.599099999999453l5.757800000001225.863300000000891c8.251999999998588,1.247999999999593,14.106499999999869,3.623499999997875,17.560599999998885,7.125,3.455100000001039,3.504899999999907,5.181599999999889,8.085399999999936,5.181599999999889,13.746100000000297,0,7.197299999999814-2.44629999999961,12.860799999998562-7.339799999999741,16.985799999998562-4.894599999999627,4.127500000002328-11.613299999999072,6.189500000000407-20.152399999999034,6.189500000000407Z"/><path class="uuid-25873e69-09a1-4533-809b-f441f26ef193" d="M1378.036099999999351,338.561999999998079c-8.157199999999648,0-15.114299999999275-1.561099999998987-20.872099999998682-4.678199999998469-5.757800000001225-3.117200000000594-10.651300000001356-7.413100000001577-14.681599999999889-12.882900000000518l8.923799999998664-7.485300000000279c3.549800000000687,4.703099999998813,7.485399999999572,8.276900000000751,11.80370000000039,10.72360000000117,4.318400000000111,2.447299999999814,9.403299999999945,3.670899999997346,15.257799999999406,3.670899999997346,7.197300000001633,0,12.689500000000407-1.727499999997235,16.481499999999869-5.181599999999889,3.789000000000669-3.45509999999922,5.685500000001412-8.061499999999796,5.685500000001412-13.818899999998393,0-4.796800000000076-1.439400000001115-8.492099999999482-4.318300000000818-11.082500000000437-2.878899999999703-2.591800000001967-7.628899999999703-4.654300000001967-14.25-6.190399999999499l-8.20509999999922-1.871100000000297c-9.211900000000242-2.110400000001391-16.242200000000594-5.301299999999173-21.086900000000242-9.57129999999961-4.846700000000055-4.269500000002154-7.269599999999627-10.293000000001484-7.269599999999627-18.06590000000142,0-4.412599999999657.814499999998588-8.348200000000361,2.447299999999814-11.802700000000186,1.630900000000111-3.454600000000937,3.909200000000055-6.33350000000064,6.836900000000242-8.6362999999983,2.925799999999072-2.30370000000039,6.427799999999479-4.05370000000039,10.507799999999406-5.253899999999703,4.078199999999924-1.199200000002747,8.564500000000407-1.799800000000687,13.458999999998923-1.799800000000687,7.579100000000835,0,14.081100000001243,1.39259999999922,19.503900000001522,4.174800000000687,5.420000000000073,2.784199999998236,10.003899999999703,6.861300000000483,13.746099999998478,12.235399999997753l-9.068299999998999,6.620600000002014c-2.784200000000055-3.837400000000343-6.14259999999922-6.85989999999947-10.075199999999313-9.068400000000111-3.936600000000908-2.206500000000233-8.830100000001039-3.310499999999593-14.682600000000093-3.310499999999593-6.429700000000594,0-11.492200000000594,1.367199999996956-15.185600000000704,4.101999999998952-3.695299999999406,2.735400000001391-5.541999999999462,6.837899999998626-5.541999999999462,12.307199999999284,0,4.800200000001496,1.558599999998478,8.420799999999872,4.678699999998571,10.867600000001403,3.117200000000594,2.446799999997893,7.843800000000556,4.390699999999924,14.177800000001298,5.83009999999922l8.204999999999927,1.871100000000297c9.882899999998699,2.20850000000064,17.032299999998941,5.566399999999703,21.447299999999814,10.075700000001234,4.412099999999555,4.511199999997189,6.621100000000297,10.507799999999406,6.621100000000297,17.992699999998877,0,4.606400000000576-.791000000001077,8.780200000001059-2.375,12.523399999998219-1.584000000000742,3.742200000000594-3.864300000001094,6.909200000001874-6.836900000000242,9.5-2.975599999999758,2.590800000001764-6.59860000000117,4.606400000000576-10.868200000000797,6.045400000002701-4.270499999998719,1.439499999996769-9.092799999998533,2.159199999998236-14.465799999999945,2.159199999998236Z"/><path class="uuid-25873e69-09a1-4533-809b-f441f26ef193" d="M1460.370100000000093,338.561999999998079c-4.99120000000039,0-9.549800000000687-.91359999999986-13.674800000000687-2.73489999999947-4.127000000000407-1.822199999998702-7.654300000000148-4.438000000001921-10.58009999999922-7.84519999999975-2.927700000000186-3.40480000000025-5.206099999999424-7.484400000001187-6.836900000000242-12.23489999999947-1.632799999999406-4.75-2.44629999999961-10.09860000000117-2.44629999999961-16.049800000000687,0-5.851500000000669.813500000000204-11.177700000000186,2.44629999999961-15.977500000000873,1.630800000000818-4.796900000001187,3.909200000000055-8.899399999998423,6.836900000000242-12.306599999999889,2.925799999999072-3.405299999998533,6.453099999998813-6.02100000000064,10.58009999999922-7.844799999998941,4.125-1.82220000000234,8.683600000000297-2.734800000001997,13.674800000000687-2.734800000001997,4.988299999999072,0,9.522399999999834.912599999999657,13.602499999999054,2.734800000001997,4.07720000000154,1.8237999999983,7.603500000001077,4.439500000000407,10.579100000000835,7.844799999998941,2.973700000000463,3.407200000001467,5.276400000000649,7.509699999998702,6.909200000000055,12.306599999999889,1.630900000000111,4.799800000000687,2.447299999999814,10.126000000000204,2.447299999999814,15.977500000000873,0,5.951199999999517-.816399999999703,11.299800000000687-2.447299999999814,16.049800000000687-1.632799999999406,4.750499999998283-3.935499999999593,8.83009999999922-6.909200000000055,12.23489999999947-2.975599999999758,3.407199999997829-6.501899999999296,6.023000000001048-10.579100000000835,7.84519999999975-4.08009999999922,1.82129999999961-8.614199999999983,2.73489999999947-13.602499999999054,2.73489999999947ZM1460.370100000000093,328.341799999998329c6.236300000000483,0,11.32129999999961-1.918000000001484,15.257799999999406-5.757799999999406,3.933600000000297-3.836500000001251,5.901400000000649-9.690500000000611,5.901400000000649-17.560600000000704v-10.651799999999639c0-7.867200000000594-1.967800000000352-13.721700000001874-5.901400000000649-17.561099999998987-3.936499999999796-3.83640000000014-9.021499999998923-5.757300000001123-15.257799999999406-5.757300000001123-6.239300000001094,0-11.324200000000928,1.920900000000984-15.257799999999406,5.757300000001123-3.936600000000908,3.839399999997113-5.901400000000649,9.693899999998393-5.901400000000649,17.561099999998987v10.651799999999639c0,7.870100000000093,1.964799999999741,13.724099999999453,5.901400000000649,17.560600000000704,3.933599999998478,3.839799999997922,9.018499999998312,5.757799999999406,15.257799999999406,5.757799999999406Z"/><path class="uuid-25873e69-09a1-4533-809b-f441f26ef193" d="M1540.54490000000078,338.561999999998079c-5.181700000001001,0-9.836900000000242-.91359999999986-13.961900000000242-2.73489999999947-4.127000000000407-1.822199999998702-7.606499999999869-4.413100000001577-10.436500000001615-7.772400000001653-2.831099999999424-3.358399999997346-4.990299999999479-7.435599999997066-6.476599999998143-12.235399999997753-1.489300000001094-4.79739999999947-2.231500000001688-10.170900000000984-2.231500000001688-16.122100000000501,0-5.948199999998906.742200000000594-11.321700000000419,2.231500000001688-16.121100000000297,1.486299999998664-4.797299999998359,3.645499999998719-8.875400000000809,6.476599999998143-12.235300000000279,2.830000000001746-3.357899999999063,6.309500000001208-5.948700000000827,10.436500000001615-7.772499999999127,4.125-1.82220000000234,8.78019999999924-2.734800000001997,13.961900000000242-2.734800000001997,7.388699999999517,0,13.314399999999296,1.607900000002701,17.777299999999741,4.821700000000419,4.461900000000242,3.216400000001158,7.795000000000073,7.413100000001577,10.003899999999703,12.594800000002579l-9.644500000000335,4.894499999998516c-1.344699999999648-3.837400000000343-3.550800000000891-6.813000000001921-6.621100000000297-8.924800000000687-3.072299999999814-2.109400000001187-6.909200000000055-3.16649999999936-11.515599999998813-3.16649999999936-3.455100000001039,0-6.476600000001781.553199999998469-9.068400000000111,1.655299999998533-2.590800000001764,1.104000000002998-4.75,2.64010000000053-6.476500000000669,4.606400000000576-1.727600000000166,1.96730000000025-3.023499999999331,4.318400000000111-3.886800000000221,7.052700000000186-.863199999999779,2.73489999999947-1.295899999999165,5.735899999999674-1.295899999999165,8.995699999999488v12.666900000000169c0,6.527900000000955,1.75,11.876000000000204,5.253999999998996,16.050300000002608,3.501899999999296,4.174399999999878,8.659100000000763,6.2612999999983,15.47360000000117,6.2612999999983,9.306599999999889,0,16.025399999998626-4.318400000000111,20.152299999999741-12.95509999999922l8.348699999998644,5.614199999999983c-2.399400000000242,5.375499999998283-5.973699999998644,9.644599999999627-10.723699999998644,12.811099999998987s-10.676699999999983,4.75-17.777299999999741,4.75Z"/><path class="uuid-25873e69-09a1-4533-809b-f441f26ef193" d="M1591.067300000000614,245.143499999998312c-2.497000000001208,0-4.295800000001691-.597600000000966-5.397399999999834-1.798800000000483-1.104500000001281-1.199199999999109-1.655300000000352-2.756799999999203-1.655300000000352-4.67870000000039v-1.871100000000297c0-1.918499999999767.550799999999072-3.477499999997235,1.655300000000352-4.678199999998469,1.101599999998143-1.198800000001938,2.900399999998626-1.799299999998766,5.397399999999834-1.799299999998766,2.494199999999182,0,4.293999999999869.600499999996828,5.397499999999127,1.799299999998766,1.102500000000873,1.200700000001234,1.656300000000556,2.759699999998702,1.656300000000556,4.678199999998469v1.871100000000297c0,1.921900000001187-.553799999999683,3.479500000001281-1.656300000000556,4.67870000000039-1.103499999999258,1.201199999999517-2.903299999999945,1.798800000000483-5.397499999999127,1.798800000000483ZM1585.309499999999389,262.561499999999796h11.515699999999924v74.272899999999936h-11.515699999999924v-74.272899999999936Z"/><path class="uuid-25873e69-09a1-4533-809b-f441f26ef193" d="M1649.219699999999648,338.561999999998079c-5.086900000000242,0-9.668999999999869-.91359999999986-13.746100000000297-2.73489999999947-4.08009999999922-1.822199999998702-7.582000000000335-4.438000000001921-10.507799999999406-7.84519999999975-2.92870000000039-3.40480000000025-5.181699999999182-7.484400000001187-6.765600000000632-12.23489999999947-1.582999999998719-4.75-2.374099999999089-10.09860000000117-2.374099999999089-16.049800000000687,0-5.851500000000669.79110000000037-11.177700000000186,2.374099999999089-15.977500000000873,1.583900000001449-4.796900000001187,3.836900000000242-8.899399999998423,6.765600000000632-12.306599999999889,2.925799999999072-3.405299999998533,6.427700000000186-6.02100000000064,10.507799999999406-7.844799999998941,4.077100000000428-1.82220000000234,8.659200000000055-2.734800000001997,13.746100000000297-2.734800000001997,4.989299999999275,0,9.451199999999517.908200000001671,13.386700000000928,2.725600000001577,3.933600000000297,1.817299999998795,7.291999999999462,4.329499999999825,10.076199999999517,7.532200000001467,2.782199999999648,3.203099999998813,4.916999999999462,7.003899999999703,6.405300000000352,11.402799999999843,1.486299999998664,4.399399999998423,2.231399999998757,9.227999999999156,2.231399999998757,14.486299999996845v5.451700000001438h-53.403299999999945v3.45509999999922c0,3.16649999999936.503900000001522,6.117200000000594,1.511700000000928,8.85200000000259,1.007799999999406,2.73489999999947,2.447299999999814,5.110399999997753,4.318400000000111,7.125,1.871100000000297,2.015699999999924,4.173800000000483,3.598699999998644,6.909099999998944,4.751000000000204,2.735400000001391,1.15139999999883,5.830100000001039,1.726599999998143,9.284200000000055,1.726599999998143,4.701200000001336,0,8.802800000001298-1.102599999998347,12.307600000000093-3.310600000000704,3.501000000000204-2.205999999998312,6.211999999999534-5.372999999999593,8.131900000000314-9.5l8.20509999999922,5.939500000000407c-2.399499999999534,5.119099999999889-6.14259999999922,9.246100000000297-11.227599999998347,12.38379999999961-5.086900000000242,3.137699999999313-11.132800000001225,4.707500000000437-18.136700000000928,4.707500000000437ZM1649.219699999999648,270.477499999997235c-3.166999999999462,0-6.044899999998961.548800000000483-8.635700000000725,1.646500000002561-2.591799999998329,1.09769999999844-4.822299999999814,2.647499999999127-6.693399999998292,4.648399999998219-1.871100000000297,2.002000000000407-3.335900000000038,4.363300000000891-4.390600000000632,7.081099999999424-1.056700000001001,2.718700000001263-1.584000000000742,5.698200000002544-1.584000000000742,8.941399999999703v1.001000000000204h41.023400000000038v-1.574699999997392c0-6.580600000001141-1.798799999998664-11.847700000002078-5.397399999999834-15.806200000002718-3.598700000000463-3.957999999998719-8.373099999998885-5.9375-14.322299999999814-5.9375Z"/><path class="uuid-25873e69-09a1-4533-809b-f441f26ef193" d="M1716.728499999999258,336.834399999999732c-4.031299999998737,0-7.078099999998813-1.124500000001717-9.140599999998813-3.373500000001513-2.064500000000407-2.248999999999796-3.09480000000076-5.195299999999406-3.09480000000076-8.834500000000844v-51.846199999999953h-12.235300000000279v-10.218699999997625h6.909200000000055c2.494099999999889,0,4.197200000000521-.504899999999907,5.110300000000279-1.512700000002951.910200000000259-1.006799999999203,1.367200000000594-2.756799999999203,1.367200000000594-5.252899999999499v-13.819400000000314h10.363299999999072v20.585000000002765h16.265600000000632v10.218699999997625h-16.265600000000632v53.835000000002765h15.114199999999983v10.219199999999546h-14.393500000000131Z"/><path class="uuid-25873e69-09a1-4533-809b-f441f26ef193" d="M1796.615200000000186,262.561499999999796h11.372100000000501l-33.251000000000204,91.545899999997346c-.863300000000891,2.207000000002154-1.727500000000873,4.052700000000186-2.590799999999945,5.541500000002998-.864300000001094,1.486799999998766-1.920900000000984,2.66359999999986-3.167000000001281,3.526899999997113-1.248099999998885.864199999999983-2.806699999999182,1.487300000000687-4.677799999999479,1.871000000002823-1.870999999999185.382399999998597-4.152299999999741.576199999999517-6.837799999999334.576199999999517h-5.901400000000649v-10.219700000001467h11.659200000000055l5.614199999999983-15.808600000000297-27.781199999999444-77.033199999998033h11.515599999998813l17.84860000000117,50.425799999997253,3.45509999999922,12.06880000000092h.718800000000556l4.031199999999444-12.06880000000092,17.992200000000594-50.425799999997253Z"/><path class="uuid-25873e69-09a1-4533-809b-f441f26ef193" d="M654.682651562499814,477.752903124999648l-3.6103515625-11.4755859375h-15.98828125l-3.5458984375,11.4755859375h-8.638671875l15.0859375-44.9990234375h10.5732421875l14.9560546875,44.9990234375h-8.83203125ZM643.207065624999814,440.490207812499648h-.322283850044187l-5.737286462455813,18.5029296875h11.862286307725299l-5.802715995225299-18.5029296875Z"/><path class="uuid-25873e69-09a1-4533-809b-f441f26ef193" d="M669.643589062499814,477.752903124999648v-33.65234375h8.251953125v6.962890625h.322265625c.837890625-3.546875,3.5458984375-6.962890625,8.896484375-6.962890625h1.8056640625v7.80078125h-2.5791015625c-5.5439453125,0-8.4453125,1.546875-8.4453125,5.2216796875v20.6298828125h-8.251953125Z"/><path class="uuid-25873e69-09a1-4533-809b-f441f26ef193" d="M697.044956249999814,469.178684374999648v-18.501953125h-4.96484375v-6.576171875h2.5791015625c2.4501953125,0,3.2236328125-1.16015625,3.2236328125-3.4814453125v-5.7373046875h7.4140625v9.21875h6.8974609375v6.576171875h-6.8974609375v20.5h6.3818359375v6.576171875h-5.9306640625c-5.673828125,0-8.703125-3.0947265625-8.703125-8.57421875Z"/><path class="uuid-25873e69-09a1-4533-809b-f441f26ef193" d="M716.451206249999814,472.336887499999648l5.029296875-4.8984375c2.44921875,2.8359375,5.4150390625,4.576171875,9.21875,4.576171875,3.9326171875,0,5.6083984375-1.482421875,5.6083984375-3.8671875,0-1.9345703125-1.16015625-3.1591796875-4.1259765625-3.5458984375l-3.3525390625-.4521484375c-7.2197265625-.90234375-11.216796875-4.060546875-11.216796875-10.185546875,0-6.51171875,5.0927734375-10.63671875,12.7646484375-10.63671875,6.5751953125,0,9.927734375,1.93359375,13.1513671875,5.2861328125l-4.8349609375,4.8349609375c-1.9345703125-2.0625-4.7705078125-3.6103515625-8.058614191795641-3.6103515625-3.545877995704359,0-5.092752995704359,1.4189453125-5.092752995704359,3.4814453125,0,2.255859375,1.224609375,3.2880859375,4.3837890625,3.8037109375l3.4169921875.451171875c7.3486328125,1.0322265625,10.89453125,4.3193359375,10.89453125,9.9287109375,0,6.5107421875-5.4794921875,11.0234375-13.8603515625,11.0234375-6.3828125,0-10.5732421875-2.3203125-13.92578125-6.189453125Z"/><path class="uuid-25873e69-09a1-4533-809b-f441f26ef193" d="M795.107456249999814,477.752903124999648l-3.6103515625-11.4755859375h-15.98828125l-3.5458984375,11.4755859375h-8.638671875l15.0859375-44.9990234375h10.5732421875l14.9560546875,44.9990234375h-8.83203125ZM783.631870312499814,440.490207812499648h-.322265625l-5.7373046875,18.5029296875h11.8623046875l-5.802734375-18.5029296875Z"/><path class="uuid-25873e69-09a1-4533-809b-f441f26ef193" d="M807.167026562499814,472.336887499999648l5.029296875-4.8984375c2.44921875,2.8359375,5.4150390625,4.576171875,9.21875,4.576171875,3.9326171875,0,5.6083984375-1.482421875,5.6083984375-3.8671875,0-1.9345703125-1.16015625-3.1591796875-4.1259765625-3.5458984375l-3.3525390625-.4521484375c-7.2197265625-.90234375-11.216796875-4.060546875-11.216796875-10.185546875,0-6.51171875,5.0927734375-10.63671875,12.7646484375-10.63671875,6.5751953125,0,9.927734375,1.93359375,13.1513671875,5.2861328125l-4.8349609375,4.8349609375c-1.9345703125-2.0625-4.7705078125-3.6103515625-8.05859375-3.6103515625-3.5458984375,0-5.0927734375,1.4189453125-5.0927734375,3.4814453125,0,2.255859375,1.224609375,3.2880859375,4.3837890625,3.8037109375l3.4169921875.451171875c7.3486328125,1.0322265625,10.89453125,4.3193359375,10.89453125,9.9287109375,0,6.5107421875-5.4794921875,11.0234375-13.8603515625,11.0234375-6.3828125,0-10.5732421875-2.3203125-13.92578125-6.189453125Z"/><path class="uuid-25873e69-09a1-4533-809b-f441f26ef193" d="M838.888706249999814,472.336887499999648l5.029296875-4.8984375c2.44921875,2.8359375,5.4150390625,4.576171875,9.21875,4.576171875,3.9326171875,0,5.6083984375-1.482421875,5.6083984375-3.8671875,0-1.9345703125-1.16015625-3.1591796875-4.1259765625-3.5458984375l-3.3525390625-.4521484375c-7.2197265625-.90234375-11.216796875-4.060546875-11.216796875-10.185546875,0-6.51171875,5.0927734375-10.63671875,12.7646484375-10.63671875,6.5751953125,0,9.927734375,1.93359375,13.1513671875,5.2861328125l-4.8349609375,4.8349609375c-1.9345703125-2.0625-4.7705078125-3.6103515625-8.05859375-3.6103515625-3.5458984375,0-5.0927734375,1.4189453125-5.0927734375,3.4814453125,0,2.255859375,1.224609375,3.2880859375,4.3837890625,3.8037109375l3.4169921875.451171875c7.3486328125,1.0322265625,10.89453125,4.3193359375,10.89453125,9.9287109375,0,6.5107421875-5.4794921875,11.0234375-13.8603515625,11.0234375-6.3828125,0-10.5732421875-2.3203125-13.92578125-6.189453125Z"/><path class="uuid-25873e69-09a1-4533-809b-f441f26ef193" d="M871.706089062499814,460.862278124999648c0-10.765625,5.9951171875-17.53515625,15.6005859375-17.53515625,9.6708984375,0,15.666015625,6.76953125,15.666015625,17.53515625,0,10.830078125-5.9951171875,17.6640625-15.666015625,17.6640625-9.60546875,0-15.6005859375-6.833984375-15.6005859375-17.6640625ZM894.334018749999814,464.020481249999648v-6.2529296875c0-5.0283203125-2.7080078125-7.7998046875-7.02734375-7.7998046875-4.2548828125,0-6.9619140625,2.771484375-6.9619140625,7.7998046875v6.2529296875c0,5.09375,2.70703125,7.865234375,6.9619140625,7.865234375,4.3193359375,0,7.02734375-2.771484375,7.02734375-7.865234375Z"/><path class="uuid-25873e69-09a1-4533-809b-f441f26ef193" d="M908.004917187499814,460.862278124999648c0-10.765625,5.6083984375-17.53515625,15.5361328125-17.53515625,6.76953125,0,11.2177734375,3.22265625,13.216796875,8.509765625l-6.76953125,3.029296875c-.7734375-2.8359375-2.9013671875-4.8984375-6.447265625-4.8984375-4.5771484375,0-6.8974609375,3.22265625-6.8974609375,7.9287109375v6.1240234375c0,4.70703125,2.3203125,7.865234375,6.8974609375,7.865234375,3.9326171875,0,5.8671875-2.255859375,7.091796875-5.28515625l6.318359375,3.029296875c-2.1923828125,5.931640625-6.8984375,8.896484375-13.41015625,8.896484375-9.927734375,0-15.5361328125-6.833984375-15.5361328125-17.6640625Z"/><path class="uuid-25873e69-09a1-4533-809b-f441f26ef193" d="M942.626010937499814,435.075168749999648v-1.2890625c0-2.3857421875,1.41796875-4.126953125,4.8349609375-4.126953125,3.3525390625,0,4.8349609375,1.7412109375,4.8349609375,4.126953125v1.2890625c0,2.384765625-1.482421875,4.125-4.8349609375,4.125-3.4169921875,0-4.8349609375-1.740234375-4.8349609375-4.125ZM943.334995312499814,444.100559374999648h8.251953125v33.65234375h-8.251953125v-33.65234375Z"/><path class="uuid-25873e69-09a1-4533-809b-f441f26ef193" d="M958.744174999999814,468.598606249999648c0-6.8984375,5.2216796875-10.314453125,14.3759765625-10.314453125h5.7373046875v-2.451171875c0-3.73828125-1.869140625-5.9306640625-6.2529296875-5.9306640625-3.8681640625,0-6.060546875,1.9345703125-7.671875,4.2548828125l-4.8994140625-4.3837890625c2.44921875-3.8681640625,6.3818359375-6.4462890625,13.1513671875-6.4462890625,9.08984375,0,13.9248046875,4.318359375,13.9248046875,11.990234375v15.859375h3.3525390625v6.576171875h-4.5771484375c-3.5458984375,0-5.7373046875-2.3203125-6.2529296875-5.802734375h-.38671875c-1.0966796875,4.3203125-4.771484375,6.576171875-9.7998046875,6.576171875-6.8330078125,0-10.701171875-3.9326171875-10.701171875-9.927734375ZM978.857456249999814,467.696262499999648v-4.44921875h-5.2861328125c-4.3193359375,0-6.4462890625,1.4833984375-6.4462890625,4.126953125v1.095703125c0,2.70703125,1.869140625,4.060546875,5.0927734375,4.060546875,3.6748046875,0,6.6396484375-1.67578125,6.6396484375-4.833984375Z"/><path class="uuid-25873e69-09a1-4533-809b-f441f26ef193" d="M998.717807812499814,469.178684374999648v-18.501953125h-4.96484375v-6.576171875h2.5791015625c2.4501953125,0,3.2236328125-1.16015625,3.2236328125-3.4814453125v-5.7373046875h7.4140625v9.21875h6.8974609375v6.576171875h-6.8974609375v20.5h6.3818359375v6.576171875h-5.9306640625c-5.673828125,0-8.703125-3.0947265625-8.703125-8.57421875Z"/><path class="uuid-25873e69-09a1-4533-809b-f441f26ef193" d="M1020.316440624999814,435.075168749999648v-1.2890625c0-2.3857421875,1.41796875-4.126953125,4.8349609375-4.126953125,3.3525390625,0,4.8349609375,1.7412109375,4.8349609375,4.126953125v1.2890625c0,2.384765625-1.482421875,4.125-4.8349609375,4.125-3.4169921875,0-4.8349609375-1.740234375-4.8349609375-4.125ZM1021.025424999999814,444.100559374999648h8.251953125v33.65234375h-8.251953125v-33.65234375Z"/><path class="uuid-25873e69-09a1-4533-809b-f441f26ef193" d="M1036.563510937499814,460.862278124999648c0-10.765625,5.9951171875-17.53515625,15.6005859375-17.53515625,9.6708984375,0,15.666015625,6.76953125,15.666015625,17.53515625,0,10.830078125-5.9951171875,17.6640625-15.666015625,17.6640625-9.60546875,0-15.6005859375-6.833984375-15.6005859375-17.6640625ZM1059.191440624999814,464.020481249999648v-6.2529296875c0-5.0283203125-2.7080078125-7.7998046875-7.02734375-7.7998046875-4.2548828125,0-6.9619140625,2.771484375-6.9619140625,7.7998046875v6.2529296875c0,5.09375,2.70703125,7.865234375,6.9619140625,7.865234375,4.3193359375,0,7.02734375-2.771484375,7.02734375-7.865234375Z"/><path class="uuid-25873e69-09a1-4533-809b-f441f26ef193" d="M1075.118198437499814,477.752903124999648v-33.65234375h8.251953125v5.6083984375h.322265625c1.3544921875-3.6103515625,4.1904296875-6.3818359375,9.4130859375-6.3818359375,6.8974609375,0,10.765625,4.7705078125,10.765625,13.1513671875v21.2744140625h-8.251953125v-20.4365234375c0-4.7705078125-1.611328125-7.2197265625-5.5439453125-7.2197265625-3.4169921875,0-6.705078125,1.8046875-6.705078125,5.4140625v22.2421875h-8.251953125Z"/></g></svg>