<?xml version="1.0" encoding="UTF-8"?><svg id="uuid-1d92f044-0779-4307-accd-ebc0fd7d1eab" xmlns="http://www.w3.org/2000/svg" width="223.375498867458589mm" height="205.282867472515818mm" xmlns:xlink="http://www.w3.org/1999/xlink" viewBox="0 0 633.190399999999499 581.904199999999037"><defs><style>.uuid-523b1c1b-8b03-41ef-89a6-107367afe7a8{fill:#00c2f3;}.uuid-a9afd142-5fee-418c-bf4b-c3a468c8263d{fill:#fff;}.uuid-1d622397-77c3-4128-b39f-ac600155b86c{fill:none;}.uuid-26f07626-29dc-43e5-a682-43db57ca3dd5{fill:#333e48;}.uuid-1ad5d6a7-be42-4b23-90b1-efde776ccdc9{clip-path:url(#uuid-159603a7-2710-4b3b-a886-2c81a80eda86);}</style><clipPath id="uuid-159603a7-2710-4b3b-a886-2c81a80eda86"><rect class="uuid-1d622397-77c3-4128-b39f-ac600155b86c" y="6.577099999999064" width="633.190399999999499" height="575.327099999999518"/></clipPath></defs><g class="uuid-1ad5d6a7-be42-4b23-90b1-efde776ccdc9"><path class="uuid-a9afd142-5fee-418c-bf4b-c3a468c8263d" d="M79.221700000000055,142.364199999999983c-4.552800000000389,10.763699999999517-7.259799999999814,22.072299999999814-8.085000000000036,33.712899999999536,1.793999999999869-1.460900000000038,4.08010000000013-2.339799999999741,6.568400000000111-2.339799999999741,2.747999999999593,0,5.244099999999889,1.078099999999722,7.108400000000074,2.818299999999908,3.668899999999667-47.79489999999987,43.612299999999777-85.435500000000502,92.350599999999758-85.435500000000502,3.777299999999741,0,6.837899999999536-3.0625,6.837899999999536-6.837899999999536,0-3.777399999999943-3.060599999999795-6.837900000000445-6.837899999999536-6.837900000000445-14.343799999999646,0-28.26760000000013,2.8125-41.382899999999609,8.359400000000278-12.659100000000763,5.355399999999463-24.025300000000243,13.015599999999722-33.783600000000661,22.775399999999536-9.759299999999712,9.757800000000316-17.42239999999947,21.125-22.775899999999638,33.785100000000966Z"/><path class="uuid-a9afd142-5fee-418c-bf4b-c3a468c8263d" d="M169.593700000000354,276.063399999999092c-47.477499999999964-3.841800000000148-84.835900000000038-43.48239999999987-85.050700000000688-91.898400000000038,0-3.775399999999536-3.060599999999795-6.837899999999536-6.837899999999536-6.837899999999536-3.77639999999974,0-6.837900000000445,3.0625-6.837900000000445,6.837899999999536.054700000000594,14.197300000000723,2.861300000000483,27.976599999999962,8.354500000000371,40.962900000000445,5.353500000000167,12.660100000000057,13.016599999999926,24.027299999999741,22.775899999999638,33.785100000000057,9.758300000000418,9.759799999999814,21.124499999999898,17.421900000000278,33.783600000000661,22.777399999999943,10.628999999999905,4.494099999999889,21.787199999999757,7.193299999999908,33.269599999999627,8.054699999999684-1.443400000000111-1.789099999999962-2.3125-4.060599999999795-2.3125-6.533199999999852,0-2.76760000000013,1.091800000000148-5.279300000000148,2.855400000000373-7.14850000000024Z"/><path class="uuid-a9afd142-5fee-418c-bf4b-c3a468c8263d" d="M251.265600000000632,250.284099999998944c-1.334900000000744-1.333999999998923-3.084000000000742-2.001899999999296-4.834000000000742-2.001899999999296s-3.500900000000001.667900000000373-4.835900000000038,2.001899999999296c-16.671899999999368,16.146500000000742-39.388899999999921,26.089900000000853-64.431599999999889,26.089900000000853-3.775399999999536,0-6.837899999999536,3.060499999999593-6.837899999999536,6.837899999999536,0,3.775400000000445,3.0625,6.837900000000445,6.837899999999536,6.837900000000445,14.345699999999852,0,28.267499999999927-2.8125,41.382799999999406-8.359400000000278,12.203100000000632-5.162099999999555,23.200900000000729-12.474599999999555,32.718700000001263-21.734400000000278,2.671899999999368-2.66989999999987,2.671899999999368-7,0-9.671900000000278Z"/><path class="uuid-a9afd142-5fee-418c-bf4b-c3a468c8263d" d="M177.164099999999962,290.049799999999777c-3.775399999999536,0-6.837899999999536-3.0625-6.837899999999536-6.837900000000445,0-3.777399999999943,3.0625-6.837899999999536,6.837899999999536-6.837899999999536,25.042699999999968,0,47.759700000000521-9.943400000000111,64.431599999999889-26.089900000000853,1.335000000000036-1.333999999998923,3.085900000000038-2.001899999999296,4.835900000000038-2.001899999999296s3.499099999999999.667900000000373,4.834000000000742,2.001899999999296c2.671899999999368,2.671900000000278,2.671899999999368,7.002000000000407,0,9.671900000000278-9.517800000000534,9.259800000000723-20.515600000000632,16.572300000000723-32.718700000001263,21.734400000000278-13.115299999999479,5.546900000000278-27.037099999999555,8.359400000000278-41.382799999999406,8.359400000000278ZM135.781200000000354,281.690399999999499c-12.659100000000763-5.355499999999665-24.025300000000243-13.01760000000013-33.783600000000661-22.777399999999943-9.759299999999712-9.757800000000316-17.42239999999947-21.125-22.775899999999638-33.785100000000057-5.493199999999888-12.986300000000483-8.299799999999777-26.765599999999722-8.354500000000371-40.962900000000445,0-3.775399999999536,3.061500000000706-6.837899999999536,6.837900000000445-6.837899999999536,3.777299999999741,0,6.837899999999536,3.0625,6.837899999999536,6.837899999999536.21480000000065,48.416000000000167,37.573200000000725,88.056599999999889,85.050700000000688,91.898400000000038-1.763600000000224,1.869200000000092-2.855400000000373,4.380900000000111-2.855400000000373,7.14850000000024,0,2.472600000000057.869099999999889,4.744099999999889,2.3125,6.533199999999852-11.48239999999987-.861399999999776-22.640599999999722-3.560599999999795-33.269599999999627-8.054699999999684ZM177.164099999999962,77.444299999999203c3.777299999999741,0,6.837899999999536,3.060500000000502,6.837899999999536,6.837900000000445,0,3.775399999999536-3.060599999999795,6.837899999999536-6.837899999999536,6.837899999999536-48.738299999999981,0-88.681700000000092,37.640600000000632-92.350599999999758,85.435500000000502-1.864300000000185-1.740200000000186-4.360400000000482-2.818299999999908-7.108400000000074-2.818299999999908-2.488299999999981,0-4.774400000000242.878899999999703-6.568400000000111,2.339799999999741.825200000000223-11.640599999999722,3.532199999999648-22.949200000000019,8.085000000000036-33.712899999999536,5.353500000000167-12.660100000000966,13.016599999999926-24.02730000000065,22.775899999999638-33.785100000000966,9.758300000000418-9.759799999999814,21.124499999999898-17.420000000000073,33.783600000000661-22.775399999999536,13.115299999999479-5.546900000000278,27.039099999999962-8.359400000000278,41.382899999999609-8.359400000000278Z"/><path class="uuid-a9afd142-5fee-418c-bf4b-c3a468c8263d" d="M233.458700000000135,127.454099999999016c-15.035800000000563-15.037199999999757-35.028999999999542-23.316499999998996-56.294600000000173-23.316499999998996-21.263699999999517,0-41.255900000000111,8.279299999999239-56.292000000000371,23.316499999998996-15.036199999999553,15.035100000000966-23.318399999999201,35.02730000000065-23.318399999999201,56.292900000000373,0,21.265600000000632,8.282199999999648,41.255900000000111,23.318399999999201,56.292999999999665,15.03610000000026,15.035100000000966,35.028300000000854,23.318400000000111,56.292000000000371,23.318400000000111,21.265600000000632,0,41.25879999999961-8.283299999999144,56.294600000000173-23.318400000000111,15.035399999999754-15.037099999999555,23.315700000000106-35.027399999999034,23.315700000000106-56.292999999999665,0-21.265599999999722-8.280300000000352-41.257799999999406-23.315700000000106-56.292900000000373Z"/><path class="uuid-26f07626-29dc-43e5-a682-43db57ca3dd5" d="M121.058600000000297,209.49119999999948v-51.488299999999981h11.167999999999665v3.804699999999684h-6.472700000000259v43.878900000000613h6.472700000000259v3.804699999999684h-11.167999999999665Z"/><path class="uuid-26f07626-29dc-43e5-a682-43db57ca3dd5" d="M233.271499999999833,158.002899999999499v51.488299999999981h-11.166000000000167v-3.804699999999684h6.470699999999852v-43.878900000000613h-6.470699999999852v-3.804699999999684h11.166000000000167Z"/><path class="uuid-523b1c1b-8b03-41ef-89a6-107367afe7a8" d="M146.994099999999889,194.205999999999221c0,1.029300000000148.016599999999926,2.242200000000594.047899999999572,3.636700000000019.032200000000557,1.394600000000537.075200000000223,2.8125.129900000000816,4.248100000000704.052699999999277,1.4375.117199999999684,2.810499999999593.193299999999908,4.119099999999889.074300000000221,1.308599999999387.166000000000167,2.402399999999943.272500000000036,3.281299999999646h-6.596700000000055v-36.365300000000389c0-3.130799999999908-.052700000000186-5.968699999999444-.16110000000026-8.511699999999109-.106499999999869-2.543000000000575-.26760000000013-4.746100000000297-.483400000000074-6.611300000000483h6.597600000000057v36.203099999999722Z"/><path class="uuid-523b1c1b-8b03-41ef-89a6-107367afe7a8" d="M175.797899999999572,176.666899999999259v4.216800000000148h-6.04989999999998v24.39260000000013h6.04989999999998v4.216800000000148h-18.020599999999831v-4.216800000000148h5.953199999999924v-24.39260000000013h-5.953199999999924v-4.216800000000148h18.020599999999831Z"/><path class="uuid-523b1c1b-8b03-41ef-89a6-107367afe7a8" d="M189.314500000000407,176.666899999999259c.128899999999703.343800000000556.257799999999406.787199999999757.386700000000019,1.33600000000024.129899999999907.546900000000278.246099999999387,1.121100000000297.353499999999258,1.720699999999852.106400000000576.601500000000669.203100000000632,1.191399999999703.291000000000167,1.771499999999833l.255900000000111,1.445300000000316c2.060499999999593-2.443400000000111,4.128899999999703-4.208999999999833,6.210900000000038-5.292999999999665,2.082000000000335-1.082000000000335,4.25-1.625,6.502000000000407-1.625,1.716699999999037,0,3.234300000000076.28519999999935,4.552700000000186.853499999999258,1.320299999999406.570300000000316,2.430699999998978,1.470699999999852,3.331999999999425,2.703199999999924.900399999999536,1.234300000000076,1.58010000000013,2.83390000000054,2.043000000000575,4.79490000000078.461899999999332,1.964799999999741.691399999999703,4.328099999999722.691399999999703,7.097599999999147v14.480500000000575c0,3.625-.316399999999703,6.636700000000019-.949200000000928,9.027299999999741-.631899999999405,2.39260000000013-1.518599999999424,4.302800000000389-2.654299999999239,5.730500000000575-1.136700000000019,1.423799999999574-2.505900000000111,2.433599999999387-4.103500000000167,3.023499999999331-1.598700000000463.58980000000065-3.374099999999999.884700000000521-5.326199999999517.884700000000521-.964900000000853,0-2.001000000000204-.156200000000354-3.105500000000575-.466800000000148-1.105399999999463-.310499999999593-2.10739999999987-.744099999999889-3.009699999999611-1.302700000000186l2.091799999999239-4.828099999999722c.494100000000799.365200000000186,1.153300000000854.66989999999987,1.980400000000373.917899999999463.825200000000223.246100000000297,1.668000000000575.369200000000092,2.524400000000242.369200000000092,1.031299999999646,0,1.954099999999926-.166000000000167,2.770499999999629-.498099999999795.814500000000407-.332000000000335,1.505900000000111-.916000000000167,2.074300000000221-1.753899999999703.568299999999908-.835900000000038,1.002899999999499-1.984400000000278,1.30370000000039-3.443299999999908.299799999999777-1.458999999999833.450199999999313-3.314500000000407.450199999999313-5.568400000000111v-14.160200000000259c0-2.574200000000019-.134799999999814-4.660100000000057-.402399999999034-6.257800000000316-.267600000001039-1.599599999999555-.671900000001187-2.843699999999444-1.207000000000335-3.734300000000076-.536400000000867-.890699999999924-1.207000000000335-1.484399999999368-2.012700000000223-1.787199999999757-.80369999999948-.298799999999574-1.74119999999948-.449200000000019-2.815700000000106-.449200000000019-1.157900000000154,0-2.287800000000061.27350000000024-3.393299999999726.822299999999814-1.104500000000371.54490000000078-2.120100000000093,1.253900000000613-3.043000000000575,2.123000000000502-.92279999999937.867199999999684-1.737299999999777,1.849600000000464-2.444300000000112,2.943400000000111-.707999999999629,1.095699999999852-1.234399999999368,2.1875-1.578099999999722,3.283199999999852v18.666000000000167h-5.953099999999722v-19.792999999999665c0-3.173800000000483-.183600000000297-5.861300000000483-.547900000000482-8.060500000000502-.364299999999275-2.199200000000019-.719699999999648-3.85739999999987-1.061499999999796-4.972700000000259h5.793000000000575Z"/><path class="uuid-a9afd142-5fee-418c-bf4b-c3a468c8263d" d="M129.766099999999824,453.851899999999659h-32.207499999999527v-5.346599999999853h32.207499999999527v5.346599999999853ZM125.574700000000121,510.782099999999446h-5.518100000000231v-5.86029999999937h-12.874499999999898v5.86029999999937h-5.603000000000065v-28.914499999999862h23.995600000000195v28.914499999999862ZM125.317900000000009,464.88760000000002l-23.653400000000147.084999999999127v-5.345799999999144h23.653400000000147v5.260800000000017ZM125.403299999999945,476.093599999999242h-23.738800000000083v-5.346599999999853h23.738800000000083v5.346599999999853ZM124.333999999999833,442.987699999999677l-21.728500000000167.085399999999936v-5.346199999999953h21.728500000000167v5.260800000000017ZM120.056599999999889,499.660499999999956v-12.531700000000455h-12.959899999999834v12.531700000000455h12.959899999999834ZM175.318400000000111,476.179599999999482l-46.236899999999878.084899999999834v-5.260699999999815h11.462899999999536l2.481000000000677-13.216800000000148h-10.692900000000009v-5.260699999999815h11.548799999999574l1.83889999999974-9.795399999999972h-16.381800000000112v-5.346199999999953h42.473100000000159v5.261700000000019h-20.317399999999907l-1.753399999999601,9.794399999999769h17.622599999999693l-1.839899999999943,18.477100000000064h9.795000000000073v5.261700000000019ZM167.876000000000204,510.95299999999952h-5.51760000000013v-5.774400000000242h-21.64260000000013v5.774400000000242h-5.603500000000167v-28.998999999999796h32.763700000000426v28.998999999999796ZM162.358400000000074,499.917399999999361v-12.702699999999822h-21.728000000000065v12.702699999999822h21.728000000000065ZM161.502900000000409,457.701599999999416h-12.703100000000632l-2.480499999999665,13.302200000000084h13.857899999999972l1.325700000000325-13.302200000000084Z"/><path class="uuid-a9afd142-5fee-418c-bf4b-c3a468c8263d" d="M271.760699999999815,453.851899999999659h-77.75919999999951v-5.346599999999853h77.75919999999951v5.346599999999853ZM260.298300000000381,464.801699999999983h-55.604500000000371v-5.17489999999998h55.604500000000371v5.17489999999998ZM260.298300000000381,475.922699999999168h-55.604500000000371v-5.175699999999779h55.604500000000371v5.175699999999779ZM258.288099999999758,510.95299999999952h-5.51759999999922v-6.031199999999444h-40.1208000000006v6.031199999999444h-5.517399999999725v-29.085399999999936h51.155799999999545v29.085399999999936ZM258.20260000000053,442.431999999999789l-50.642499999999927.127999999999702v-5.175299999999879h50.642499999999927v5.047300000000178ZM252.770500000000538,499.660499999999956v-12.531700000000455h-40.1208000000006v12.531700000000455h40.1208000000006Z"/><path class="uuid-a9afd142-5fee-418c-bf4b-c3a468c8263d" d="M368.20510000000013,495.469599999999446h-34.432400000000598v5.945300000000316c0,6.358400000000074-3.378699999999299,9.538099999999758-10.137899999999718,9.538099999999758h-5.688500000000204l-2.095699999999852-5.260699999999815h7.955500000000029c2.794499999999971,0,4.192399999999907-1.284200000000055,4.192399999999907-3.849600000000464v-6.373099999999795h-37.554699999999684v-5.346700000000055h37.554699999999684v-3.67869999999948c5.95850000000064-2.224100000000362,10.221700000000055-4.304700000000594,12.78859999999986-6.244099999999889h-32.764400000000023v-4.919000000000779h42.261000000000422v4.662199999999757c-4.449700000000121,3.022400000000744-9.952699999999822,6.11620000000039-16.511000000000422,9.281200000000354v.898400000000038h34.432400000000598v5.346700000000055ZM364.611800000000585,479.600499999999556h-5.13380000000052v-8.853500000000167h-59.751400000000103v9.367200000000594h-5.60399999999936v-14.371100000000297h7.356399999998757v-26.091800000000148c4.048300000000381-.39850000000024,8.483600000000479-2.324300000000221,13.303200000000288-5.774000000000342l2.823300000000017,3.935100000000602c-2.596700000000055,2.395499999999629-6.132399999999507,4.206499999999323-10.608399999999165,5.432099999999991v3.593299999999545h10.949199999999109v4.448200000000725h-10.949199999999109v4.662099999999555h10.949199999999109v4.361899999999878h-10.949199999999109v5.433100000000195h45.466999999999643v-5.433100000000195h-10.436800000000403v-4.276899999999841h10.436800000000403v-5.003900000000613h-10.351300000000265v-4.36279999999897h10.351300000000265v-4.662600000000566h-12.104700000000776v-5.175299999999879h17.536600000000362v28.828599999999824h6.715800000000854v13.943400000000111ZM340.359399999999368,446.409599999999045l-2.99369999999908,3.678200000000288c-1.626400000000103-1.567399999999907-3.83640000000014-3.264699999999721-6.629899999999907-5.089899999999943-2.309500000000298,1.939500000000407-4.90480000000025,3.721700000000055-7.785100000000966,5.346700000000055l-3.507299999999304-3.08010000000013c2.766099999999824-1.139599999999518,5.188900000000103-2.480399999999463,7.271899999999732-4.019999999999527-3.479999999999563-1.311500000000706-6.288099999999758-2.224100000000362-8.427200000000084-2.737299999999777l2.182600000000093-3.935500000000502c3.164099999999962.798300000000381,6.343700000000354,1.825700000000325,9.537599999999657,3.079600000000028,2.024900000000343-1.909200000000055,3.721199999999953-3.863299999999981,5.090299999999843-5.859400000000278l3.592800000000352,2.865200000000186c-1.141599999999926,1.768600000000333-2.623999999999796,3.494200000000092-4.448199999999815,5.175799999999981,2.109300000000076,1.197299999999814,4.148400000000038,2.723100000000159,6.11619999999948,4.576699999999619ZM340.872100000000501,461.978399999999965l-3.591800000000148,2.823300000000017c-2.309600000000501-1.768100000000231-4.706100000000333-3.236400000000685-7.186100000000806-4.405300000000352-1.539499999998952,1.168899999999667-4.276799999999639,2.637200000000121-8.211899999999332,4.405300000000352l-3.251000000000204-2.566500000000815c3.677800000000389-1.738699999999881,6.315499999999702-3.250899999999092,7.913400000000365-4.533599999999751-1.597900000000664-.997599999999693-4.020800000000236-2.10990000000038-7.272000000000844-3.337399999999434l3.207800000000134-2.693400000000111c2.936499999999796,1.055699999999888,5.44630000000052,2.152299999999741,7.527799999999843,3.292999999999665.79740000000038-.45510000000013,2.409200000000055-1.824300000000221,4.833000000000538-4.105999999999767l3.935100000000602,2.010299999999916c-1.454100000000835,1.882299999999304-3.078200000000834,3.436499999999796-4.875800000000709,4.662999999999556,2.367000000000189,1.083100000000741,4.690200000000004,2.565500000000611,6.97150000000056,4.447300000000723Z"/><path class="uuid-a9afd142-5fee-418c-bf4b-c3a468c8263d" d="M464.561499999999796,495.469599999999446h-34.431899999999587v5.945300000000316c0,6.358400000000074-3.378600000000006,9.538099999999758-10.136900000000423,9.538099999999758h-5.688499999999294l-2.095699999999852-5.260699999999815h7.955599999999322c2.793400000000474,0,4.191399999999703-1.284200000000055,4.191399999999703-3.849600000000464v-6.373099999999795h-37.55369999999948v-5.346700000000055h37.55369999999948v-3.67869999999948c5.959200000000237-2.224100000000362,10.221600000000763-4.304700000000594,12.789500000000771-6.244099999999889h-32.764400000000023v-4.919000000000779h42.260000000000218v4.662199999999757c-4.449000000000524,3.022400000000744-9.953100000000632,6.11620000000039-16.511000000000422,9.281200000000354v.898400000000038h34.431899999999587v5.346700000000055ZM460.969699999999648,479.600499999999556h-5.134699999999611v-8.853500000000167h-59.751499999999396v9.367200000000594h-5.603000000000975v-14.371100000000297h7.356200000000172v-26.091800000000148c4.04950000000008-.39850000000024,8.483100000000377-2.324300000000221,13.302499999999782-5.774000000000342l2.822500000000218,3.935100000000602c-2.593499999999949,2.395499999999629-6.130699999999706,4.206499999999323-10.607700000000477,5.432099999999991v3.593299999999545h10.950200000001132v4.448200000000725h-10.950200000001132v4.662099999999555h10.950200000001132v4.361899999999878h-10.950200000001132v5.433100000000195h45.466800000000148v-5.433100000000195h-10.435599999998885v-4.276899999999841h10.435599999998885v-5.003900000000613h-10.35109999999986v-4.36279999999897h10.35109999999986v-4.662600000000566h-12.104499999999462v-5.175299999999879h17.536399999999958v28.828599999999824h6.716999999999643v13.943400000000111ZM438.239700000000084,461.018899999999121l-3.896899999999732,3.563000000000102c-1.778800000000047-2.67279999999937-4.324300000000221-6.018500000000131-6.785700000000361-8.096199999999953-3.826100000000224,4.263200000000325-6.973100000000159,6.97609999999986-9.432099999999991,8.136800000000221l-3.856499999999869-3.238299999999981c2.898999999999432-1.378899999999703,6.041999999999462-3.954600000000028,9.433600000000297-7.73239999999987-3.855900000000474-2.401899999999841-6.603500000001077-3.887300000000323-8.243599999999788-4.454600000000028l3.363799999999173-3.479000000000269c1.367100000000391.539999999999964,3.9350000000004,1.941899999999805,7.710900000000038,4.210399999999936,1.122100000000501-1.835900000000038,1.995100000000093-3.846700000000055,2.623999999999796-6.033199999999852h-12.878899999999703v-5.059599999999591h6.90480000000025v-5.209900000000744h4.43119999999999v5.209900000000744h8.194800000000214v5.059599999999591h-1.622100000000501c-.910599999999249,3.34860000000026-2.135199999999713,6.249499999999898-3.675299999999879,8.70510000000013,2.980999999999767,2.265599999999722,5.841800000000148,5.719699999999648,7.728000000000065,8.418399999999565Z"/><path class="uuid-a9afd142-5fee-418c-bf4b-c3a468c8263d" d="M562.33010000000013,453.681499999999687l-3.079099999999926,4.447799999999916c-9.724599999999555-2.394999999999527-17.336900000000242-5.16110000000026-22.839900000000853-8.29740000000038v3.849600000000464h-28.914999999999054v-4.235300000000279c-8.326399999999921,4.306599999999889-15.796900000000278,7.115200000000186-22.413099999999758,8.426300000000083l-2.822300000000723-4.490799999999581c16.024400000000242-3.906200000000354,29.368900000000394-10.436500000000706,40.034700000000157-19.58980000000065l5.260699999999815,1.753400000000511c-.570799999999508.712899999999536-1.069799999999304,1.212399999999434-1.497499999999491,1.496599999999489,9.466800000000148,7.870600000000195,21.557600000000093,13.417000000000371,36.271499999999833,16.639600000000428ZM553.218699999999444,478.189300000000003h-62.104399999999259v-20.0600000000004h62.104399999999259v20.0600000000004ZM548.12960000000021,511.037999999999556h-5.26050000000032v-3.421900000000278h-41.317799999999806v3.421900000000278h-5.260800000000017v-28.35739999999987h51.839100000000144v28.35739999999987ZM519.600599999999758,473.570199999999204v-10.693399999999201h-23.225599999999758v10.693399999999201h23.225599999999758ZM542.869099999999889,492.903199999999742v-5.51760000000013h-41.317799999999806v5.51760000000013h41.317799999999806ZM542.869099999999889,502.99789999999939v-5.603500000000167h-41.317799999999806v5.603500000000167h41.317799999999806ZM513.912099999999555,469.335299999999734l-4.405299999999443,3.079600000000028c-2.651300000000447-2.679200000000492-5.247000000000298-4.661600000000362-7.785100000000057-5.945300000000316l4.44800000000032-2.565899999999601c3.022699999999531,1.28269999999975,5.602999999999156,3.094199999999546,7.742399999999179,5.431599999999889ZM534.657199999999648,448.933499999999185c-4.134699999999611-2.166999999999462-8.142099999999118-5.089899999999943-12.019499999999425-8.768599999999424-4.135300000000825,3.421899999999368-8.768100000000231,6.34479999999985-13.900400000000445,8.768599999999424h25.91989999999987ZM547.959499999999935,473.570199999999204v-10.693399999999201h-23.097200000000157v10.693399999999201h23.097200000000157ZM542.783199999999852,465.400299999999334c-1.682600000000093,2.680699999999888-4.220699999999852,4.962900000000445-7.613499999999476,6.843700000000354l-4.704900000000634-2.351999999999862c3.736399999999776-2.10990000000038,6.301800000000185-4.22019999999975,7.698300000000017-6.331100000000333l4.620100000000093,1.839399999999841Z"/><path class="uuid-a9afd142-5fee-418c-bf4b-c3a468c8263d" d="M133.206046062990026,396.459399999999732l-1.546900000000278,2.056099999999788c-5.961899999999332-1.756800000000112-10.800299999999879-4.122999999999593-14.512200000000121-7.09860000000026-3.199699999999211,2.612299999999777-8.223099999999249,5.025400000000445-15.076599999999416,7.239199999999983l-1.721199999999953-2.090799999999945c6.629899999999907-1.838799999999537,11.643500000000131-4.070299999999406,15.040500000000065-6.694300000000112-3.408200000000761-3.221700000000055-5.699700000000121-7.139199999999619-6.870100000000093-11.754899999999907-.632300000000214,1.628400000000511-1.500500000000102,3.174300000000585-2.60109999999986,4.638700000000426l-1.860800000000381-1.704099999999926c1.475599999999758-1.757300000000214,2.663300000000163-3.684600000000501,3.565400000000409-5.781300000000556h-6.044400000000678v-2.160599999999249h14.09270000000015v-6.009300000000621h2.266200000000026v5.97360000000026h14.336900000000242v2.161699999999655h-6.009799999999814c-1.053200000000288,6.114700000000084-3.477499999999964,10.980900000000474-7.27390000000014,14.600500000000466,3.455500000000029,2.624099999999999,8.19380000000001,4.832099999999627,14.215299999999843,6.624099999999999ZM123.910646062990054,375.234799999999268h-13.598100000000159c.935500000000502,5.423300000000381,3.225500000000466,9.786600000000362,6.868599999999788,13.089300000000549,3.561000000000604-3.314400000000205,5.804200000000492-7.677700000000186,6.729500000000371-13.089300000000549Z"/><path class="uuid-a9afd142-5fee-418c-bf4b-c3a468c8263d" d="M217.37086606298999,392.365599999999176h-14.145300000000134v2.442900000000009c0,2.611300000000483-1.387200000000121,3.918000000000575-4.163799999999355,3.918000000000575h-2.336900000000242l-.860099999999875-2.161200000000463h3.267099999999118c1.148400000000038,0,1.722600000000966-.527299999999741,1.722600000000966-1.581499999999323v-2.618200000000797h-15.42620000000079v-2.19629999999961h15.42620000000079v-1.511199999999917c2.447799999999916-.913099999999758,4.199299999999312-1.768600000000333,5.2524999999996-2.564900000000307h-13.458499999999731v-2.020999999999731h17.359399999999368v1.914999999999964c-1.826699999999619,1.242199999999684-4.088399999999638,2.513199999999415-6.78229999999985,3.813000000000102v.369099999999889h14.145300000000134v2.19629999999961ZM215.895466062989726,385.847599999999147h-2.109300000000076v-3.637699999999313h-24.546399999999267v3.847599999999147h-2.301800000000185v-5.902299999999741h3.022500000000036v-10.718799999999646c1.663099999999758-.16359999999986,3.48529999999937-.954600000000028,5.465299999999843-2.372099999999591l1.158699999999953,1.616699999999582c-1.064900000000307.983900000000176-2.519000000000233,1.727600000000166-4.358600000000479,2.231499999999869v1.475599999999758h4.499000000000706v1.82760000000053h-4.499000000000706v1.915099999999256h4.499000000000706v1.791900000000169h-4.499000000000706v2.232500000000073h18.678899999999885v-2.232500000000073h-4.288499999999658v-1.756799999999203h4.288499999999658v-2.055700000000797h-4.251899999999296v-1.792399999999361h4.251899999999296v-1.914600000000064h-4.972599999999147v-2.126000000000204h7.203099999999722v11.841800000000148h2.760199999999713v5.72859999999946ZM205.932166062990291,372.212799999999334l-1.230999999999767,1.510200000000623c-.666500000001179-.644000000000233-1.57470000000103-1.340300000000752-2.722200000000157-2.090300000000752-.949200000000928.796900000000278-2.015600000000632,1.529300000000148-3.198200000000725,2.19630000000052l-1.440399999999499-1.264699999999721c1.13550000000032-.468700000000354,2.13130000000001-1.019000000000233,2.986799999999675-1.651800000000549-1.429699999999684-.53859999999986-2.583999999999833-.91359999999986-3.46140000000014-1.124499999999898l.896900000000642-1.616699999999582c1.29910000000018.328599999999824,2.605499999999665.75,3.917499999999563,1.26509999999962.832000000000335-.784200000000055,1.528299999999945-1.586900000000242,2.090099999999438-2.407200000000557l1.476600000000872,1.177700000000186c-.469000000000051.725599999999758-1.078400000000329,1.434600000000501-1.826400000000831,2.126000000000204.865700000000288.49120000000039,1.703100000000632,1.11869999999999,2.511700000000928,1.879899999999907ZM206.142566062990227,378.608299999999872l-1.475599999999758,1.159700000000157c-.948200000000725-.72610000000077-1.933100000000195-1.329600000000937-2.952100000000428-1.810100000000602-.633100000000013.480499999999665-1.757300000000214,1.083999999999833-3.373599999999897,1.810100000000602l-1.335900000000038-1.054700000000594c1.512200000000121-.714399999999841,2.595500000000357-1.334499999999935,3.250999999999294-1.862299999999777-.655499999998938-.410200000000259-1.651899999998932-.86620000000039-2.986799999999675-1.370100000000093l1.317799999999806-1.107500000000073c1.206600000000435.433600000000297,2.237300000000687.885299999999916,3.092800000000352,1.353100000000268.328600000000733-.1875.989800000000287-.749099999999999,1.984599999999773-1.686599999999999l1.616500000000087.826199999999517c-.597399999999652.772500000000036-1.264400000000023,1.41110000000026-2.001500000000306,1.914999999999964.970700000000761.444400000000314,1.924800000000687,1.053800000000592,2.862800000000789,1.82720000000063Z"/><path class="uuid-a9afd142-5fee-418c-bf4b-c3a468c8263d" d="M276.057886062990292,379.047299999999268c2.366699999999582,2.659099999999853,3.550799999999072,5.253900000000613,3.550799999999072,7.783699999999953,0,1.229900000000271-.319299999999203,2.208000000000538-.958499999998821,2.934000000000196-.63720000000103.727100000000064-1.530700000001161,1.089899999999943-2.679200000000492,1.089899999999943-.632300000000214,0-1.394500000000335-.076699999999619-2.284099999999853-.228099999999358l-.649900000000343-2.337400000000343c1.253900000000613.316899999999805,2.15520000000015.474699999999757,2.705500000000029.474699999999757.456100000000333,0,.872599999999693-.176300000000083,1.248099999999795-.526899999999841.375-.351599999999962.5625-.820300000000316.5625-1.406200000000354,0-.877999999999702-.322299999999814-2.0024999999996-.966599999999744-3.373599999999897-.644800000000032-1.370100000000093-1.61160000000018-2.676300000000083-2.899599999999737-3.917499999999563l3.426699999999983-8.80370000000039h-5.217999999999847v27.990300000000389h-2.302499999999782v-30.221199999999953h9.856399999999667v2.230899999999565l-3.391599999999926,8.311099999999897ZM300.288886062990059,392.278199999999742c-.305200000000696,1.897500000000036-.714799999999741,3.274399999999332-1.230999999999767,4.127899999999499-.514600000000428.855500000000575-1.353000000000065,1.283699999999953-2.511700000000928,1.283699999999953h-2.740699999999379c-1.828099999999722,0-2.740999999999985-.960899999999128-2.740999999999985-2.88130000000001v-9.29489999999987h-3.708200000000033c-.069799999999304,3.771499999999833-.805199999999786,6.597600000000057-2.204600000000028,8.477499999999964-1.400099999999838,1.879899999999907-3.996599999999489,3.458000000000538-7.793000000000575,4.735400000000482l-1.475599999999758-2.020500000000538c3.525400000000445-1.041999999999462,5.944900000000416-2.390199999999822,7.256900000000314-4.041999999999462,1.311999999999898-1.65139999999974,1.973100000000159-4.023000000000138,1.985300000000279-7.115300000000389h-4.814400000000205v-2.302200000000084h18.819300000000112v2.267100000000028h-5.870600000000195v8.75c0,.292400000000271.094000000000051.565400000000409.281699999999546.816900000000714.187300000000505.252399999999398.410200000000259.377399999999398.668000000000575.377399999999398h2.231699999999364c.456300000000738,0,.8054000000011-.374499999999898,1.045700000000579-1.124499999999898.238699999999881-.748999999999796.441399999999703-1.721199999999953.605900000000474-2.916500000000269l2.19629999999961.861300000000483ZM298.267886062989419,376.341699999999037l-2.230899999999565.035100000000966v-3.092700000001059h-13.248599999999897v3.092700000001059h-2.266799999999421v-5.324200000000928h7.713099999999031v-3.988299999999072h2.302700000000186v3.953700000000026h7.730499999999665v5.323699999999008ZM295.316686062989902,379.732299999999668h-11.878399999999601v-2.301300000000083h11.878399999999601v2.301300000000083Z"/><path class="uuid-a9afd142-5fee-418c-bf4b-c3a468c8263d" d="M384.45570606299043,392.365599999999176h-14.145500000000538v2.442900000000009c0,2.611300000000483-1.388699999999517,3.918000000000575-4.16359999999986,3.918000000000575h-2.336900000000242l-.86160000000018-2.161200000000463h3.268299999999726c1.14850000000115,0,1.722700000000259-.527299999999741,1.722700000000259-1.581499999999323v-2.618200000000797h-15.427999999999884v-2.19629999999961h15.427999999999884v-1.511199999999917c2.447700000000623-.913099999999758,4.199200000000928-1.768600000000333,5.252900000000409-2.564900000000307h-13.458999999999833v-2.020999999999731h17.359199999999873v1.914999999999964c-1.826399999999921,1.242199999999684-4.088200000000143,2.513199999999415-6.782000000000153,3.813000000000102v.369099999999889h14.145500000000538v2.19629999999961ZM382.978606062990366,385.847599999999147h-2.107900000000882v-3.637699999999313h-24.545399999999063v3.847599999999147h-2.302700000000186v-5.902299999999741h3.023400000000038v-10.718799999999646c1.661599999999453-.16359999999986,3.483899999999267-.954600000000028,5.462899999999536-2.372099999999591l1.160200000000259,1.616699999999582c-1.065900000000511.983900000000176-2.518100000000231,1.727600000000166-4.356999999999971,2.231499999999869v1.475599999999758h4.497599999999693v1.82760000000053h-4.497599999999693v1.915099999999256h4.497599999999693v1.791900000000169h-4.497599999999693v2.232500000000073h18.676800000000185v-2.232500000000073h-4.287100000000464v-1.756799999999203h4.287100000000464v-2.055700000000797h-4.25170000000071v-1.792399999999361h4.25170000000071v-1.914600000000064h-4.972200000000157v-2.126000000000204h7.203199999999924v11.841800000000148h2.758700000000317v5.72859999999946ZM373.016706062990124,372.212799999999334l-1.230900000000474,1.510200000000623c-.667999999999665-.644000000000233-1.575199999999313-1.340300000000752-2.723699999999553-2.090300000000752-.948199999999815.796900000000278-2.014099999999416,1.529300000000148-3.197000000000116,2.19630000000052l-1.441100000000006-1.264699999999721c1.137200000000121-.468700000000354,2.133300000000418-1.019000000000233,2.987799999999879-1.651800000000549-1.429699999999684-.53859999999986-2.583099999999831-.91359999999986-3.461499999999432-1.124499999999898l.895499999999629-1.616699999999582c1.300799999999981.328599999999824,2.606999999999971.75,3.918000000000575,1.26509999999962.831499999999323-.784200000000055,1.529299999999239-1.586900000000242,2.092299999999341-2.407200000000557l1.475600000000668,1.177700000000186c-.469500000001062.725599999999758-1.079100000000835,1.434600000000501-1.828200000000834,2.126000000000204.867199999999684.49120000000039,1.704600000000028,1.11869999999999,2.513200000000325,1.879899999999907ZM373.227206062989353,378.608299999999872l-1.475599999999758,1.159700000000157c-.949499999999716-.72610000000077-1.933100000000195-1.329600000000937-2.951399999999921-1.810100000000602-.633599999999205.480499999999665-1.756599999999708,1.083999999999833-3.374299999999494,1.810100000000602l-1.334899999999834-1.054700000000594c1.511199999999008-.714399999999841,2.594199999999546-1.334499999999935,3.250899999999092-1.862299999999777-.656699999999546-.410200000000259-1.652799999999843-.86620000000039-2.98779999999897-1.370100000000093l1.317900000000009-1.107500000000073c1.206499999999323.433600000000297,2.237299999998868.885299999999916,3.091800000000148,1.353100000000268.328099999998813-.1875.989299999999275-.749099999999999,1.985799999999472-1.686599999999999l1.616299999999683.826199999999517c-.597199999999248.772500000000036-1.265199999999822,1.41110000000026-2.002999999999702,1.914999999999964.972200000000157.444400000000314,1.927799999999479,1.053800000000592,2.864299999999275,1.82720000000063Z"/><path class="uuid-a9afd142-5fee-418c-bf4b-c3a468c8263d" d="M468.848326062990054,396.969599999999446h-31.976999999999862v-2.266599999999926h14.89890000000014v-8.24120000000039h-10.735400000000482v-2.266599999999926h10.735400000000482v-7.168399999999565h-7.959500000000844c-.960399999999936,2.494599999999991-2.565399999999499,4.796299999999974-4.814399999999296,6.904700000000048l-2.318400000000111-1.211900000000242c3.840799999999945-3.548799999999574,5.97899999999936-7.895499999999629,6.412599999999657-13.037100000000464l2.372100000000501.685100000000602c-.093800000000556,1.194800000000214-.369200000000092,2.670900000000074-.826699999999619,4.428200000000288h7.099599999999555v-7.69630000000052h2.371399999999994v7.660700000000361h12.404499999999643v2.266599999999926h-12.404499999999643v7.133700000000317h10.577800000000025v2.266200000000026h-10.577800000000025v8.240699999999379h14.741399999999885v2.302200000000084Z"/><path class="uuid-a9afd142-5fee-418c-bf4b-c3a468c8263d" d="M553.96164606298953,375.199099999999817l-1.264400000000023,1.827699999999822c-3.993899999999485-.983900000000176-7.122299999999086-2.119700000000194-9.383099999999104-3.408300000000054v1.580600000000231h-11.877900000000409v-1.739199999999983c-3.41989999999987,1.769000000000233-6.489300000000185,2.92279999999937-9.206100000000333,3.46140000000014l-1.159599999999045-1.845200000000659c6.582999999998719-1.604500000000371,12.064399999999296-4.287099999999555,16.445799999999508-8.046900000000278l2.160599999999249.720700000000761c-.23489999999947.292999999999665-.439399999999296.497999999999593-.614299999999275.614300000000185,3.888199999999415,3.233399999999165,8.855999999999767,5.511699999999109,14.898999999999432,6.834899999999834ZM550.219946062989948,385.267499999999927h-25.511700000000019v-8.240700000000288h25.511700000000019v8.240700000000288ZM548.129146062990003,398.760599999999613h-2.162199999999757v-1.40520000000015h-16.973100000000159v1.40520000000015h-2.160600000000159v-11.648400000000038h21.295900000000074v11.648400000000038ZM536.408846062990051,383.369999999999891v-4.393100000000231h-9.539999999999964v4.393100000000231h9.539999999999964ZM545.966946062990246,391.311399999999594v-2.266599999999926h-16.973100000000159v2.266599999999926h16.973100000000159ZM545.966946062990246,395.457899999999427v-2.301800000000185h-16.973100000000159v2.301800000000185h16.973100000000159ZM534.071946062989809,381.630799999998999l-1.809799999999996,1.264600000000428c-1.088600000000042-1.100599999999758-2.154999999999745-1.914999999999964-3.196999999999207-2.442399999999907l1.826599999999416-1.05370000000039c1.242199999999684.526400000000649,2.301300000000083,1.270500000000538,3.180199999999786,2.231499999999869ZM542.593246062990147,373.249399999999696c-1.69800000000032-.889600000000428-3.343100000000049-2.090799999999945-4.936300000000301-3.602499999999964-1.700200000000223,1.405699999999342-3.602599999999256,2.606899999999769-5.710699999999633,3.602499999999964h10.646999999999935ZM548.058346062989585,383.369999999999891v-4.393100000000231h-9.48739999999998v4.393100000000231h9.48739999999998ZM545.932846062989483,380.014099999999416c-.691899999999805,1.100999999999658-1.734699999999066,2.037600000000566-3.128499999998894,2.811000000000604l-1.932099999999991-.965799999999945c1.533699999999953-.867200000000594,2.588399999998728-1.734400000000278,3.162599999999657-2.60110000000077l1.897999999999229.755900000000111Z"/></g></svg>