<?xml version="1.0" encoding="UTF-8"?><svg id="uuid-33572df9-ae8e-4bba-aa34-66a9fbf6a6e0" xmlns="http://www.w3.org/2000/svg" width="1023.034197135567524mm" height="250.000907356474386mm" xmlns:xlink="http://www.w3.org/1999/xlink" viewBox="0 0 2899.939499999999498 708.664000000000669"><defs><style>.uuid-4b1e27c5-b966-49f0-a02f-d39eec89d87a{fill:#fff;}.uuid-1b31e9ae-2830-426a-a7fe-d1b48c188906{fill:none;}.uuid-bafb2ec5-bbf6-4c8e-b85b-f302e34ed7d0{fill:#333e48;}.uuid-672af87c-8e3d-41ae-89a0-6eae37959a96{fill:#9f9ea7;}.uuid-91b0f718-5995-4ca3-857b-291e9fe2d089{clip-path:url(#uuid-f7e2c399-71eb-4151-aee3-adda88048a26);}.uuid-8f495640-dede-44d5-ae1e-6b26a10c73a6{fill:#5a5c66;}.uuid-690f1490-93c4-4f02-bd02-8d6257c233f5{fill:#858591;}</style><clipPath id="uuid-f7e2c399-71eb-4151-aee3-adda88048a26"><rect class="uuid-1b31e9ae-2830-426a-a7fe-d1b48c188906" width="2899.939499999999498" height="708.664000000000669"/></clipPath></defs><g class="uuid-91b0f718-5995-4ca3-857b-291e9fe2d089"><path class="uuid-8f495640-dede-44d5-ae1e-6b26a10c73a6" d="M155.417999999999665,341.492100000001301c7.554699999999684,0,13.675799999999981,6.125,13.675799999999981,13.675799999999072-.001999999999498-.277299999999741-.011700000000019-.556599999999889-.011700000000019-.835900000000038,0-102.310599999998885,82.935499999999593-185.25,185.25-185.25,7.550699999999779,0,13.673800000000483-6.121100000000297,13.673800000000483-13.673800000000483,0-7.552799999999479-6.123100000000704-13.675799999999072-13.673800000000483-13.675799999999072-28.689500000000407,0-56.535200000000259,5.625-82.763699999999517,16.718699999999444-25.318400000000111,10.709000000000742-48.052700000000186,26.033199999999852-67.566400000000613,45.548899999999776-19.51760000000013,19.516600000000835-34.843799999999646,42.25-45.550799999999981,67.569300000001022-11.093800000000556,26.229499999999462-16.718800000000556,54.073199999998906-16.718800000000556,82.762699999999313,0,.279300000000148.007900000000518.558600000000297.009799999999814.835900000000038,0-7.550799999999072,6.121100000000297-13.675799999999072,13.675800000000891-13.675799999999072Z"/><path class="uuid-690f1490-93c4-4f02-bd02-8d6257c233f5" d="M340.656299999999646,553.255800000000818c0-7.552700000000186,6.121099999999387-13.675800000000891,13.675799999999981-13.675800000000891-102.033199999999852,0-184.787200000000666-82.486299999998664-185.238299999999981-184.412099999999555,0-7.550799999999072-6.121100000000297-13.675799999999072-13.675799999999981-13.675799999999072-7.554700000000594,0-13.675800000000891,6.125-13.675800000000891,13.675799999999072.109400000001187,28.394599999999627,5.722700000000259,55.953100000000632,16.709000000000742,81.925800000000891,10.707000000000335,25.318400000000111,26.033199999999852,48.052700000000186,45.550799999999981,67.568400000000111,19.513700000000426,19.517499999999927,42.248000000000502,34.841799999998329,67.566400000000613,45.550699999999779,26.228499999999258,11.093799999998737,54.074199999999109,16.718799999998737,82.763699999999517,16.718799999998737-7.554700000000594,0-13.675799999999981-6.123099999998885-13.675799999999981-13.675799999999072Z"/><path class="uuid-672af87c-8e3d-41ae-89a0-6eae37959a96" d="M502.531299999999646,487.406200000001263c-5.343799999999646-5.341800000000148-14-5.341800000000148-19.341800000000148,0-33.341800000000148,32.289099999999962-78.775399999999536,52.173799999998664-128.85739999999987,52.173799999998664-7.554700000000594,0-13.675799999999981,6.123100000000704-13.675799999999981,13.675800000000891s6.121099999999387,13.675799999999072,13.675799999999981,13.675799999999072c28.688400000000001,0,56.533199999999852-5.625,82.759700000000521-16.718799999998737,24.408199999999852-10.322200000000521,46.400399999998626-24.947200000000521,65.439499999999498-43.466800000000148,5.339799999999741-5.339799999999741,5.339799999999741-14,0-19.339799999999741Z"/><path class="uuid-672af87c-8e3d-41ae-89a0-6eae37959a96" d="M466.914099999999962,241.747999999999593c-30.070300000000316-30.07129999999961-70.054700000000594-46.630899999998292-112.584000000000742-46.630899999998292-42.527299999999741,0-82.511699999999109,16.559599999998682-112.582000000000335,46.630899999998292-30.072299999999814,30.072300000001633-46.634799999999814,70.056600000001708-46.634799999999814,112.584000000000742,0,42.528299999999945,16.5625,82.507800000001225,46.634799999999814,112.582000000000335,30.070300000001225,30.070299999999406,70.054700000000594,46.634799999999814,112.582000000000335,46.634799999999814,42.529300000000148,0,82.513700000000426-16.564500000000407,112.584000000000742-46.634799999999814,30.070299999999406-30.074199999999109,46.630799999998999-70.05370000000039,46.630799999998999-112.582000000000335,0-42.527399999999034-16.560499999999593-82.511699999999109-46.630799999998999-112.584000000000742Z"/><path class="uuid-bafb2ec5-bbf6-4c8e-b85b-f302e34ed7d0" d="M242.121099999999387,405.821200000000317v-102.977499999999054h22.333999999999833v7.613299999999072h-12.945299999999406v87.751900000001115h12.945299999999406v7.612299999998868h-22.333999999999833Z"/><path class="uuid-bafb2ec5-bbf6-4c8e-b85b-f302e34ed7d0" d="M466.539099999999962,302.843700000001263v102.977499999999054h-22.330100000001039v-7.612299999998868h12.939500000000407v-87.751900000001115h-12.939500000000407v-7.613299999999072h22.330100000001039Z"/><path class="uuid-4b1e27c5-b966-49f0-a02f-d39eec89d87a" d="M293.990299999999479,375.251900000001115c0,2.054699999998775.033199999999852,4.482399999998961.095699999999852,7.269500000000335.0625,2.789099999998143.152299999999741,5.625.259700000000521,8.497099999998682.105499999999665,2.875.234399999999368,5.623100000000704.386699999999109,8.240200000000186.146500000000742,2.617200000000594.330100000001039,4.804700000000594.545000000000073,6.5625h-13.193400000000111v-72.729400000000169c0-6.263699999999517-.105499999999665-11.9375-.322299999999814-17.023499999999331-.212799999999334-5.085900000000038-.535099999999147-9.494099999999889-.964799999999741-13.224599999999555h13.193400000000111v72.408199999999852Z"/><path class="uuid-4b1e27c5-b966-49f0-a02f-d39eec89d87a" d="M351.595699999999852,340.171800000000076v8.433600000000297h-12.099600000000464v48.786200000000463h12.099600000000464v8.431599999999889h-36.041000000000167v-8.431599999999889h11.906299999999646v-48.786200000000463h-11.906299999999646v-8.433600000000297h36.041000000000167Z"/><path class="uuid-4b1e27c5-b966-49f0-a02f-d39eec89d87a" d="M378.628899999999703,340.171800000000076c.257799999999406.6875.514699999999721,1.576199999999517.771499999999833,2.673899999999776.261700000000019,1.093700000001263.492199999999684,2.240200000000186.708999999999833,3.441400000001522.212900000000445,1.201099999998405.406300000000556,2.380799999998999.58010000000013,3.540999999999258l.511700000000019,2.89259999999922c4.121100000000297-4.890699999999924,8.259799999999814-8.417999999999665,12.421899999999368-10.585999999999331,4.164000000000669-2.165999999999258,8.5-3.25,13.003900000000613-3.25,3.433599999999387,0,6.468700000000354.568400000000111,9.10739999999987,1.705100000001039,2.638699999999517,1.140599999998813,4.859400000000278,2.941399999999703,6.662099999999555,5.406199999999444,1.800800000000891,2.468800000000556,3.162100000000464,5.66610000000037,4.087900000000445,9.591800000000148.921900000000278,3.927799999999479,1.382799999999406,8.654300000000148,1.382799999999406,14.193400000000111v28.958999999998923c0,7.252899999999499-.634799999999814,13.273400000000038-1.900399999998626,18.054700000000594-1.263600000000224,4.787099999999555-3.037100000000464,8.604499999999462-5.308600000000297,11.459899999999834-2.273400000000038,2.849599999999555-5.011700000000928,4.868199999998978-8.207000000000335,6.046899999999368-3.197299999999814,1.181700000001001-6.746100000000297,1.770500000000538-10.652299999999741,1.770500000000538-1.929700000000594,0-4-.310499999999593-6.21100000000024-.932600000000093-2.208999999999833-.623999999999796-4.21480000000065-1.490200000000186-6.01760000000013-2.607399999998961l4.183600000000297-9.654300000000148c.986399999999776.729499999999462,2.306699999999182,1.339799999999741,3.958999999999833,1.835900000000038,1.650399999999536.492199999998775,3.33600000000024.738299999999072,5.050799999999981.738299999999072,2.0625,0,3.906199999999444-.331099999999424,5.539099999999962-.996100000000297,1.628899999999703-.664999999999054,3.011700000000019-1.833999999998923,4.148400000000038-3.506799999999203,1.136700000000019-1.674800000000687,2.005900000000111-3.96980000000076,2.60739999999987-6.887700000001132.599600000000464-2.918999999999869.900399999999536-6.629899999999907.900399999999536-11.134799999999814v-28.32129999999961c0-5.148400000000038-.26759999999922-9.322200000000521-.804699999998775-12.51759999999922-.535100000000966-3.195300000001225-1.342700000001059-5.685499999999593-2.414000000000669-7.466800000000148-1.072299999999814-1.779200000000856-2.414099999999962-2.970699999999852-4.025400000000445-3.574200000000928-1.605499999999665-.597599999999147-3.482500000000073-.898400000000038-5.628899999999703-.898400000000038-2.316399999999703,0-4.578199999999924.546900000001187-6.787099999999555,1.642600000001039-2.21100000000024,1.093699999999444-4.242200000000594,2.509699999998702-6.08600000000024,4.247999999999593-1.845700000000761,1.736300000000483-3.474600000000464,3.697299999999814-4.890599999999722,5.888699999999517-1.414099999999962,2.1875-2.468800000000556,4.375-3.156300000000556,6.564400000001115v37.331099999999424h-11.904300000000148v-39.583000000000538c0-6.351599999999962-.36619999999948-11.724599999999555-1.095699999999852-16.125-.728499999999258-4.396499999998923-1.439399999999296-7.712899999998626-2.125-9.943400000000111h11.587900000000445Z"/><rect class="uuid-1b31e9ae-2830-426a-a7fe-d1b48c188906" x="2037.911160937499517" y="314.118118750000576" width="701.1923828125" height="88.8798828125"/><path class="uuid-bafb2ec5-bbf6-4c8e-b85b-f302e34ed7d0" d="M2079.272000781249517,332.117142187500576l-5.60009765625,6.4794921875c-3.919921875-3.2001953125-7.76025390625-4.6396484375-12.240234375-4.6396484375-4.80029296875,0-8.080078125,2.080078125-8.080078125,6,0,3.83984375,2.080078125,5.4404296875,11.1201171875,8.240234375,10.00048828125,3.2001953125,16.400390625,7.3603515625,16.400390625,17.6005859375,0,10.16015625-8,17.2802734375-21.4404296875,17.2802734375-9.2001953125,0-15.92041015625-3.2802734375-20.48046875-7.7607421875l6.080078125-6.6396484375c4,3.439453125,8.400390625,5.51953125,14.08056640625,5.51953125s9.52001953125-2.7197265625,9.52001953125-7.599609375c0-4.400390625-2.16015625-6.3203125-10.56005859375-8.8798828125-12.00048828125-3.7607421875-16.80078125-8.560546875-16.80078125-16.9609375,0-9.4404296875,8.16064453125-15.6005859375,19.36083984375-15.6005859375,8.240234375,0,13.84033203125,2.48046875,18.64013671875,6.9609375Z"/><path class="uuid-bafb2ec5-bbf6-4c8e-b85b-f302e34ed7d0" d="M2124.311551562499517,364.037064062500576h-26.48095703125c.80029296875,8.16015625,4.64013671875,10.560546875,10.08056640625,10.560546875,3.60009765625,0,6.64013671875-1.1201171875,10.31982421875-3.6796875l4.72021484375,6.3994140625c-4.16015625,3.3603515625-9.43994140625,5.7607421875-16.080078125,5.7607421875-13.6005859375,0-20.720703125-8.9599609375-20.720703125-22.2412109375,0-12.7998046875,6.88037109375-22.7197265625,19.2802734375-22.7197265625,12.00048828125,0,19.12060546875,8,19.12060546875,21.5205078125,0,1.439453125-.16015625,3.2001953125-.23974609375,4.3994140625ZM2113.271024218749517,356.437454687500576c0-6.400390625-2.16015625-10.560546875-7.60009765625-10.560546875-4.47998046875,0-7.2001953125,2.9599609375-7.84033203125,11.0400390625h15.4404296875v-.4794921875Z"/><path class="uuid-bafb2ec5-bbf6-4c8e-b85b-f302e34ed7d0" d="M2162.390653124999517,343.237259375000576l-4.3203125,6.4794921875c-3.43994140625-2.16015625-6.88037109375-3.359375-10.56005859375-3.359375-3.76025390625,0-5.84033203125,1.51953125-5.84033203125,3.83984375,0,2.4794921875,1.43994140625,3.599609375,8.88037109375,5.759765625,8.47998046875,2.3203125,13.2802734375,5.8408203125,13.2802734375,13.3603515625,0,8.80078125-8.240234375,13.7607421875-18.3203125,13.7607421875-7.3603515625,0-13.28076171875-2.48046875-17.28076171875-6.16015625l5.60009765625-6.240234375c3.2001953125,2.4794921875,7.1201171875,4.16015625,11.3603515625,4.16015625s6.96044921875-1.759765625,6.96044921875-4.640625c0-3.2001953125-1.52001953125-4.240234375-9.3603515625-6.3994140625-8.56005859375-2.400390625-12.560546875-6.640625-12.560546875-13.041015625,0-7.2001953125,6.560546875-12.6396484375,16.80078125-12.6396484375,6.16015625,0,11.35986328125,1.919921875,15.3603515625,5.1201171875Z"/><path class="uuid-bafb2ec5-bbf6-4c8e-b85b-f302e34ed7d0" d="M2200.709989062499517,343.237259375000576l-4.3203125,6.4794921875c-3.43994140625-2.16015625-6.88037109375-3.359375-10.56005859375-3.359375-3.76025390625,0-5.84033203125,1.51953125-5.84033203125,3.83984375,0,2.4794921875,1.43994140625,3.599609375,8.88037109375,5.759765625,8.47998046875,2.3203125,13.2802734375,5.8408203125,13.2802734375,13.3603515625,0,8.80078125-8.240234375,13.7607421875-18.3203125,13.7607421875-7.3603515625,0-13.28076171875-2.48046875-17.28076171875-6.16015625l5.60009765625-6.240234375c3.2001953125,2.4794921875,7.1201171875,4.16015625,11.3603515625,4.16015625s6.96044921875-1.759765625,6.96044921875-4.640625c0-3.2001953125-1.52001953125-4.240234375-9.3603515625-6.3994140625-8.56005859375-2.400390625-12.560546875-6.640625-12.560546875-13.041015625,0-7.2001953125,6.560546875-12.6396484375,16.80078125-12.6396484375,6.16015625,0,11.35986328125,1.919921875,15.3603515625,5.1201171875Z"/><path class="uuid-bafb2ec5-bbf6-4c8e-b85b-f302e34ed7d0" d="M2222.148953906249517,324.196243750000576c0,3.7607421875-2.88037109375,6.640625-6.96044921875,6.640625s-6.8798828125-2.8798828125-6.8798828125-6.640625c0-3.759765625,2.7998046875-6.6396484375,6.8798828125-6.6396484375s6.96044921875,2.8798828125,6.96044921875,6.6396484375ZM2220.948758593749517,381.797806250000576h-11.3603515625v-42.4013671875h11.3603515625v42.4013671875Z"/><path class="uuid-bafb2ec5-bbf6-4c8e-b85b-f302e34ed7d0" d="M2270.229032031249517,360.597610937500576c0,13.4404296875-7.60009765625,22.48046875-20.32080078125,22.48046875-12.64013671875,0-20.3203125-8.400390625-20.3203125-22.48046875,0-13.5205078125,7.60009765625-22.48046875,20.400390625-22.48046875,12.640625,0,20.24072265625,8.3994140625,20.24072265625,22.48046875ZM2241.428250781249517,360.597610937500576c0,9.759765625,2.8798828125,14,8.47998046875,14s8.48046875-4.3203125,8.48046875-14c0-9.7607421875-2.88037109375-14.0009765625-8.400390625-14.0009765625-5.68017578125,0-8.56005859375,4.3203125-8.56005859375,14.0009765625Z"/><path class="uuid-bafb2ec5-bbf6-4c8e-b85b-f302e34ed7d0" d="M2314.388699999999517,350.916946875000576v30.880859375h-11.3603515625v-28.9609375c0-4.8798828125-1.76025390625-6.240234375-4.64013671875-6.240234375-3.2802734375,0-5.84033203125,2.16015625-8.16015625,5.9208984375v29.2802734375h-11.3603515625v-42.4013671875h9.84033203125l.8798828125,5.3603515625c3.43994140625-4.240234375,7.60009765625-6.6396484375,12.96044921875-6.6396484375,7.43994140625,0,11.84033203125,4.7998046875,11.84033203125,12.7998046875Z"/><path class="uuid-bafb2ec5-bbf6-4c8e-b85b-f302e34ed7d0" d="M2378.466824999999517,340.997025000000576c0,8.7998046875-5.43994140625,16.3203125-23.04052734375,32.0009765625h24.32080078125l-1.2001953125,8.7998046875h-36.0810546875v-8.240234375c19.12060546875-18.3203125,24.32080078125-24.400390625,24.32080078125-31.6005859375,0-4.8798828125-2.9599609375-8-8-8-4.400390625,0-7.2802734375,1.759765625-10.560546875,5.6796875l-7.0400390625-5.51953125c4.39990234375-5.6806640625,10.240234375-8.9609375,18.72021484375-8.9609375,12.240234375,0,18.560546875,7.2001953125,18.560546875,15.8408203125Z"/><path class="uuid-bafb2ec5-bbf6-4c8e-b85b-f302e34ed7d0" d="M2425.746610156249517,354.037064062500576c0,18.880859375-6.7998046875,29.041015625-19.4404296875,29.041015625-12.64013671875,0-19.4404296875-10.16015625-19.4404296875-29.041015625,0-18.8798828125,6.80029296875-28.880859375,19.4404296875-28.880859375,12.640625,0,19.4404296875,10.0009765625,19.4404296875,28.880859375ZM2398.545926562499517,354.037064062500576c0,15.5205078125,2.48046875,20.48046875,7.76025390625,20.48046875,5.2001953125,0,7.76025390625-4.7197265625,7.76025390625-20.48046875s-2.56005859375-20.400390625-7.76025390625-20.400390625c-5.27978515625,0-7.76025390625,4.9599609375-7.76025390625,20.400390625Z"/><path class="uuid-bafb2ec5-bbf6-4c8e-b85b-f302e34ed7d0" d="M2468.066434374999517,340.997025000000576c0,8.7998046875-5.43994140625,16.3203125-23.04052734375,32.0009765625h24.32080078125l-1.2001953125,8.7998046875h-36.0810546875v-8.240234375c19.12060546875-18.3203125,24.32080078125-24.400390625,24.32080078125-31.6005859375,0-4.8798828125-2.9599609375-8-8-8-4.400390625,0-7.2802734375,1.759765625-10.560546875,5.6796875l-7.0400390625-5.51953125c4.39990234375-5.6806640625,10.240234375-8.9609375,18.72021484375-8.9609375,12.240234375,0,18.560546875,7.2001953125,18.560546875,15.8408203125Z"/><path class="uuid-bafb2ec5-bbf6-4c8e-b85b-f302e34ed7d0" d="M2515.346219531249517,354.037064062500576c0,18.880859375-6.7998046875,29.041015625-19.4404296875,29.041015625-12.64013671875,0-19.4404296875-10.16015625-19.4404296875-29.041015625,0-18.8798828125,6.80029296875-28.880859375,19.4404296875-28.880859375,12.640625,0,19.4404296875,10.0009765625,19.4404296875,28.880859375ZM2488.145535937499517,354.037064062500576c0,15.5205078125,2.48046875,20.48046875,7.76025390625,20.48046875,5.2001953125,0,7.76025390625-4.7197265625,7.76025390625-20.48046875s-2.56005859375-20.400390625-7.76025390625-20.400390625c-5.27978515625,0-7.76025390625,4.9599609375-7.76025390625,20.400390625Z"/><path class="uuid-bafb2ec5-bbf6-4c8e-b85b-f302e34ed7d0" d="M2520.225125781249517,352.277298437500576h37.76123046875v8.9599609375h-37.76123046875v-8.9599609375Z"/><path class="uuid-bafb2ec5-bbf6-4c8e-b85b-f302e34ed7d0" d="M2599.265164843749517,340.997025000000576c0,8.7998046875-5.43994140625,16.3203125-23.04052734375,32.0009765625h24.32080078125l-1.2001953125,8.7998046875h-36.0810546875v-8.240234375c19.12060546875-18.3203125,24.32080078125-24.400390625,24.32080078125-31.6005859375,0-4.8798828125-2.9599609375-8-8-8-4.400390625,0-7.2802734375,1.759765625-10.560546875,5.6796875l-7.0400390625-5.51953125c4.39990234375-5.6806640625,10.240234375-8.9609375,18.72021484375-8.9609375,12.240234375,0,18.560546875,7.2001953125,18.560546875,15.8408203125Z"/><path class="uuid-bafb2ec5-bbf6-4c8e-b85b-f302e34ed7d0" d="M2646.544949999999517,354.037064062500576c0,18.880859375-6.7998046875,29.041015625-19.4404296875,29.041015625-12.64013671875,0-19.4404296875-10.16015625-19.4404296875-29.041015625,0-18.8798828125,6.80029296875-28.880859375,19.4404296875-28.880859375,12.640625,0,19.4404296875,10.0009765625,19.4404296875,28.880859375ZM2619.344266406249517,354.037064062500576c0,15.5205078125,2.48046875,20.48046875,7.76025390625,20.48046875,5.2001953125,0,7.76025390625-4.7197265625,7.76025390625-20.48046875s-2.56005859375-20.400390625-7.76025390625-20.400390625c-5.27978515625,0-7.76025390625,4.9599609375-7.76025390625,20.400390625Z"/><path class="uuid-bafb2ec5-bbf6-4c8e-b85b-f302e34ed7d0" d="M2688.864774218749517,340.997025000000576c0,8.7998046875-5.43994140625,16.3203125-23.04052734375,32.0009765625h24.32080078125l-1.2001953125,8.7998046875h-36.0810546875v-8.240234375c19.12060546875-18.3203125,24.32080078125-24.400390625,24.32080078125-31.6005859375,0-4.8798828125-2.9599609375-8-8-8-4.400390625,0-7.2802734375,1.759765625-10.560546875,5.6796875l-7.0400390625-5.51953125c4.39990234375-5.6806640625,10.240234375-8.9609375,18.72021484375-8.9609375,12.240234375,0,18.560546875,7.2001953125,18.560546875,15.8408203125Z"/><path class="uuid-bafb2ec5-bbf6-4c8e-b85b-f302e34ed7d0" d="M2736.464871874999517,373.078079687500576v8.7197265625h-34.80078125v-8.7197265625h12.9599609375v-35.361328125l-11.84033203125,7.1201171875-4.8798828125-7.599609375,17.84033203125-10.80078125h10.00048828125v46.6416015625h10.72021484375Z"/><rect class="uuid-bafb2ec5-bbf6-4c8e-b85b-f302e34ed7d0" x="1925.949199999999109" y="242.895500000000538" width="3" height="228.445299999999406"/><path class="uuid-bafb2ec5-bbf6-4c8e-b85b-f302e34ed7d0" d="M626.665976719669743,336.833400000001348v-100.471100000000661h12.090799694559792v89.819299999999203h42.750998920019811v10.651800000001458h-54.841798614579602Z"/><path class="uuid-bafb2ec5-bbf6-4c8e-b85b-f302e34ed7d0" d="M703.385674781569833,245.142499999999927c-2.497099936919767,0-4.295899891480076-.597599999999147-5.397474781570054-1.798799999998664-1.104425054179956-1.199200000000928-1.656225040240315-2.756800000001022-1.656225040240315-4.67870000000039v-1.871100000000297c0-1.918499999999767.55179998606036-3.477500000000873,1.656225040240315-4.678200000000288,1.101574890089978-1.198800000000119,2.900374844650287-1.799300000000585,5.397474781570054-1.799300000000585,2.494125218429872,0,4.294025218429852.600500000000466,5.397525218430019,1.799300000000585,1.102499999999054,1.200699999999415,1.65519999999924,2.759700000000521,1.65519999999924,4.678200000000288v1.871100000000297c0,1.921899999999368-.552700000000186,3.479499999999462-1.65519999999924,4.67870000000039-1.103500000000167,1.201199999999517-2.903400000000147,1.798799999998664-5.397525218430019,1.798799999998664ZM697.627874927019548,262.560499999999593h11.515625072980583v74.272900000001755h-11.515625072980583v-74.272900000001755Z"/><path class="uuid-bafb2ec5-bbf6-4c8e-b85b-f302e34ed7d0" d="M733.613199999999779,336.833400000001348v-74.272900000001755h11.515699999999924v11.953100000000632h.576100000000224c1.82129999999961-4.17870000000039,4.389699999999721-7.505799999998999,7.700199999999313-9.974599999999555,3.311600000000908-2.469699999999648,7.748100000000704-3.706500000000233,13.314500000000407-3.706500000000233,7.676799999999275,0,13.747100000000501,2.471199999999953,18.208999999999833,7.412599999999657,4.461900000000242,4.943300000000818,6.693299999999908,11.925699999999779,6.693299999999908,20.94380000000092v47.644500000000335h-11.514600000000428v-45.728500000001077c0-13.368599999999788-5.615199999999277-20.052700000000186-16.841799999999239-20.052700000000186-2.302700000000186,0-4.535200000000259.290500000000975-6.693400000000111.865700000000288-2.159099999999853.578100000000632-4.102499999999964,1.443900000000212-5.829999999999927,2.597700000000259-1.726599999999962,1.153800000000047-3.09479999999985,2.620100000000093-4.101599999999962,4.399400000000242-1.007800000000316,1.778800000000047-1.511700000000019,3.871100000000297-1.511700000000019,6.274900000000343v51.643500000000131h-11.515699999999924Z"/><path class="uuid-bafb2ec5-bbf6-4c8e-b85b-f302e34ed7d0" d="M874.387699999999313,334.386700000000928c0,10.266599999999016-2.878899999999703,18.328100000000632-8.636800000000221,24.181599999999889-5.757799999999406,5.852999999999156-13.868099999999686,8.781300000000556-24.326100000000224,8.781300000000556-6.045899999999165,0-11.252999999998792-.940500000000611-15.618199999998978-2.818400000000111-4.367200000000594-1.882300000001123-7.988300000000891-4.363300000000891-10.867200000000594-7.447299999999814l6.765600000000632-7.952100000000428c2.494199999999182,2.568299999998999,5.373099999999795,4.544899999998961,8.636800000000221,5.926299999999173,3.260699999998906,1.380800000000818,7.052699999999277,2.070799999999508,11.371099999999387,2.070799999999508,6.715799999999945,0,11.921800000000076-1.855499999999665,15.617100000000391-5.563499999998385,3.693400000000111-3.713900000000649,5.541999999999462-9.183600000000297,5.541999999999462-16.411600000001272v-10.273999999999432h-.575199999999313c-2.20890000000054,4.561100000000806-5.087800000001153,7.979499999999462-8.636700000000928,10.259799999999814-3.551699999999983,2.281199999999444-7.916999999999462,3.421400000001086-13.099599999999555,3.421400000001086-4.605499999999665,0-8.779300000000148-.913600000001679-12.522399999999834-2.734900000001289-3.742200000000594-1.822200000000521-6.909200000000055-4.413099999999758-9.5-7.772399999999834-2.590900000000147-3.358399999999165-4.606499999999869-7.435600000000704-6.045900000000074-12.235399999999572-1.439499999999498-4.79739999999947-2.158200000000761-10.170900000000984-2.158200000000761-16.122100000000501,0-5.948200000000725.718700000001263-11.321700000000419,2.158200000000761-16.121100000000297,1.439400000000205-4.797300000000178,3.454999999999927-8.87539999999899,6.045900000000074-12.23529999999846,2.590799999999945-3.357900000000882,5.757799999999406-5.948700000000827,9.5-7.772500000000946,3.743099999999686-1.822200000000521,7.916900000000169-2.734800000000178,12.522399999999834-2.734800000000178,5.182600000000093,0,9.619200000000092,1.117599999999584,13.315399999999499,3.348599999999351,3.692399999999907,2.233400000000984,6.499100000000908,5.676800000001094,8.420900000000984,10.332500000000437h.575199999999313v-11.953100000000632h11.515699999999924v71.826200000001336ZM844.015599999999722,328.340799999999945c2.591799999999239,0,5.038099999999758-.337399999998524,7.341799999999239-1.012199999999211,2.302700000000186-.674800000000687,4.293000000000575-1.664600000000064,5.972600000000966-2.966300000000047,1.677799999999479-1.29989999999998,3.023499999999331-2.89259999999922,4.031299999999646-4.772499999999127,1.006800000000112-1.880400000001828,1.510699999999815-4.075200000001132,1.510699999999815-6.583000000000538v-27.632300000001123c0-2.023999999999432-.481399999999667-3.929199999998673-1.439399999999296-5.715399999999136-.960000000000946-1.783199999999852-2.30370000000039-3.301199999999881-4.030300000000352-4.556099999999788-1.727500000000873-1.252500000000509-3.742200000000594-2.240700000000288-6.04490000000078-2.964400000000751-2.30369999999948-.724099999999453-4.75-1.08640000000014-7.341799999999239-1.08640000000014-6.527399999999943,0-11.708999999999833,2.073200000000725-15.54489999999987,6.221199999999953-3.839900000000853,4.147399999999834-5.757800000000316,9.499499999999898-5.757800000000316,16.058100000000195v12.729999999999563c0,6.558600000000297,1.917899999999463,11.91110000000117,5.757800000000316,16.058600000000297,3.835900000000038,4.146899999999732,9.017499999999927,6.220699999999852,15.54489999999987,6.220699999999852Z"/><path class="uuid-bafb2ec5-bbf6-4c8e-b85b-f302e34ed7d0" d="M944.628899999999703,324.879800000000614h-.576199999999517c-.768600000001243,1.711499999999432-1.704100000000835,3.398499999999331-2.806600000000799,5.060600000000704-1.10359999999946,1.662099999999555-2.470699999999852,3.134699999998702-4.101599999999962,4.41649999999936-1.632800000000316,1.282199999999648-3.59860000000026,2.30370000000039-5.902299999999741,3.063899999999194-2.302800000000389.759799999999814-4.990300000000389,1.140200000001641-8.060599999999795,1.140200000001641-7.677700000000186,0-13.771500000000742-2.469700000001467-18.280300000000352-7.413600000001679-4.511700000000019-4.940899999999601-6.765600000000632-11.921899999999368-6.765600000000632-20.942900000000009v-47.644000000000233h11.515600000000632v45.727500000000873c0,13.368700000000899,5.661200000000463,20.052799999999479,16.985399999999572,20.052799999999479,2.302700000000186,0,4.534200000000055-.287099999999555,6.693300000000818-.866199999998571,2.159200000000055-.575200000001132,4.077199999999721-1.440500000000611,5.757899999999609-2.59480000000076,1.677700000000186-1.154300000000148,3.022399999999834-2.620100000000093,4.029300000000148-4.399400000000242,1.007800000000316-1.778299999999945,1.511700000000019-3.91990000000078,1.511700000000019-6.421399999999267v-51.498500000001513h11.515599999999722v74.272900000001755h-11.515599999999722v-11.953600000000733Z"/><path class="uuid-bafb2ec5-bbf6-4c8e-b85b-f302e34ed7d0" d="M986.371099999999387,245.142499999999927c-2.496099999999387,0-4.295000000000073-.597599999999147-5.397500000000036-1.798799999998664-1.104499999999462-1.199200000000928-1.655300000000352-2.756800000001022-1.655300000000352-4.67870000000039v-1.871100000000297c0-1.918499999999767.550800000000891-3.477500000000873,1.655300000000352-4.678200000000288,1.102499999999964-1.198800000000119,2.901400000000649-1.799300000000585,5.397500000000036-1.799300000000585,2.494099999999889,0,4.293899999999667.600500000000466,5.398400000000038,1.799300000000585,1.101599999999962,1.200699999999415,1.654300000000148,2.759700000000521,1.654300000000148,4.678200000000288v1.871100000000297c0,1.921899999999368-.552700000000186,3.479499999999462-1.654300000000148,4.67870000000039-1.104500000000371,1.201199999999517-2.904300000000148,1.798799999998664-5.398400000000038,1.798799999998664ZM980.613199999999779,262.560499999999593h11.515699999999924v74.272900000001755h-11.515699999999924v-74.272900000001755Z"/><path class="uuid-bafb2ec5-bbf6-4c8e-b85b-f302e34ed7d0" d="M1038.910099999999147,338.561000000001513c-6.909200000000055,0-12.691399999999703-1.319800000001123-17.344699999999648-3.95850000000064-4.655300000000352-2.638200000001234-8.661099999999351-6.165100000000166-12.019500000000335-10.580100000001039l8.204100000000835-6.621099999998478c2.878899999999703,3.647999999999229,6.093699999999444,6.45509999999922,9.644499999999425,8.419899999998961,3.548799999999574,1.968800000000556,7.676800000000185,2.951699999999619,12.378900000000613,2.951699999999619,4.894499999999425,0,8.708999999998923-1.055199999998877,11.443400000000111-3.16649999999936,2.73529999999937-2.10989999999947,4.102499999999054-5.085900000000038,4.102499999999054-8.924800000000687,0-2.878899999999703-.935499999999593-5.348199999998542-2.806599999999889-7.413099999999758-1.872099999999591-2.0625-5.253899999999703-3.476599999999962-10.147500000000036-4.246100000000297l-5.902299999999741-.863799999999173c-3.45510000000013-.47899999999936-6.621099999999387-1.223100000001068-9.5-2.230900000000474s-5.397500000000036-2.350599999999758-7.556700000000092-4.030300000000352c-2.159200000000055-1.677699999998367-3.839799999999741-3.765099999998711-5.038099999999758-6.261699999999109-1.201100000000224-2.494099999999889-1.799800000000687-5.469699999999648-1.799800000000687-8.923800000000483,0-3.646499999998923.66990000000078-6.837400000000343,2.015699999999924-9.572799999999916,1.342700000001059-2.73489999999947,3.189400000001115-5.012199999999211,5.541900000000169-6.836900000000242,2.350599999999758-1.821799999999712,5.15730000000076-3.189899999999398,8.420000000000073-4.102100000000064,3.261700000000928-.911099999999351,6.765600000000632-1.367599999999584,10.50880000000052-1.367599999999584,6.04489999999987,0,11.105399999999463,1.057099999999991,15.185499999999593,3.16649999999936,4.077100000000428,2.112300000000687,7.65139999999974,5.038100000001577,10.72360000000026,8.780200000001059l-7.629800000000614,6.909200000000055c-1.632899999999609-2.302700000000186-4.029299999999239-4.39010000000053-7.19629999999961-6.260700000000725-3.166999999999462-1.871600000000399-7.149499999999534-2.807600000000093-11.947299999999814-2.807600000000093-4.799799999999777,0-8.420900000000074,1.032200000001467-10.868199999999888,3.09519999999975-2.44630000000052,2.063900000001013-3.66989999999987,4.871600000000399-3.66989999999987,8.420400000000882,0,3.648400000000038,1.223599999999351,6.286099999999351,3.66989999999987,7.91649999999936,2.447299999999814,1.633299999999508,5.974600000000464,2.831500000000233,10.58010000000013,3.599100000001272l5.757799999999406.863299999999072c8.252000000000407,1.247999999999593,14.106499999999869,3.623499999999694,17.560600000000704,7.125,3.454999999999927,3.504899999999907,5.182600000000093,8.085399999999936,5.182600000000093,13.746100000000297,0,7.197299999999814-2.447299999999814,12.860800000000381-7.340799999999945,16.985800000000381-4.894600000000537,4.12749999999869-11.613300000000891,6.189500000000407-20.152400000000853,6.189500000000407Z"/><path class="uuid-bafb2ec5-bbf6-4c8e-b85b-f302e34ed7d0" d="M1102.10149999999885,336.833400000001348c-4.029299999999239,0-7.077099999999518-1.124499999999898-9.139599999999518-3.373500000001513-2.064499999999498-2.248999999999796-3.094699999999648-5.195299999999406-3.094699999999648-8.834499999999025v-51.846199999999953h-12.235400000000482v-10.218700000001263h6.909200000000055c2.494099999999889,0,4.197200000000521-.504899999999907,5.110300000000279-1.512699999999313.911200000000463-1.006799999999203,1.367200000000594-2.756799999999203,1.367200000000594-5.252899999999499v-13.819400000000314h10.364299999999275v20.584999999999127h16.265600000000632v10.218700000001263h-16.265600000000632v53.834999999999127h15.113299999999981v10.219200000001365h-14.394600000000537Z"/><path class="uuid-bafb2ec5-bbf6-4c8e-b85b-f302e34ed7d0" d="M1141.973599999999351,245.142499999999927c-2.496100000000297,0-4.295899999999165-.597599999999147-5.397500000000036-1.798799999998664-1.104500000000371-1.199200000000928-1.65520000000015-2.756800000001022-1.65520000000015-4.67870000000039v-1.871100000000297c0-1.918499999999767.550699999999779-3.477500000000873,1.65520000000015-4.678200000000288,1.101600000000872-1.198800000000119,2.90139999999974-1.799300000000585,5.397500000000036-1.799300000000585,2.495100000000093,0,4.293900000000576.600500000000466,5.397500000000036,1.799300000000585,1.102499999999964,1.200699999999415,1.656200000000354,2.759700000000521,1.656200000000354,4.678200000000288v1.871100000000297c0,1.921899999999368-.55370000000039,3.479499999999462-1.656200000000354,4.67870000000039-1.10359999999946,1.201199999999517-2.902399999999943,1.798799999998664-5.397500000000036,1.798799999998664ZM1136.215799999999945,262.560499999999593h11.515599999999722v74.272900000001755h-11.515599999999722v-74.272900000001755Z"/><path class="uuid-bafb2ec5-bbf6-4c8e-b85b-f302e34ed7d0" d="M1199.837899999999536,338.561000000001513c-5.181700000000092,0-9.837000000000444-.913600000001679-13.962000000000444-2.734900000001289-4.126899999999296-1.822200000000521-7.606399999999667-4.413099999999758-10.435499999999593-7.772399999999834-2.832000000000335-3.358399999999165-4.99120000000039-7.435600000000704-6.477499999999964-12.235399999999572-1.488299999999981-4.79739999999947-2.230500000000575-10.170900000000984-2.230500000000575-16.122100000000501,0-5.948200000000725.742200000000594-11.321700000000419,2.230500000000575-16.121100000000297,1.486299999999574-4.797300000000178,3.645499999999629-8.87539999999899,6.477499999999964-12.23529999999846,2.829099999999926-3.357900000000882,6.308600000000297-5.948700000000827,10.435499999999593-7.772500000000946,4.125-1.822200000000521,8.780300000000352-2.734800000000178,13.962000000000444-2.734800000000178,7.388599999999315,0,13.315400000000409,1.607900000000882,17.777299999999741,4.821700000000419,4.461900000000242,3.216399999999339,7.79489999999987,7.413099999999758,10.003900000000613,12.594799999998941l-9.644500000000335,4.894500000000335c-1.343800000000556-3.837400000000343-3.550799999999981-6.813000000000102-6.621100000000297-8.924799999998868-3.072299999999814-2.109400000001187-6.909200000000055-3.166500000001179-11.515599999999722-3.166500000001179-3.454099999999926,0-6.476599999999962.553200000000288-9.068400000000111,1.655300000000352-2.589799999999741,1.10399999999936-4.75,2.64010000000053-6.476599999999962,4.606400000000576-1.727499999999964,1.96730000000025-3.023400000000038,4.318400000000111-3.886700000000019,7.052700000000186-.863299999999981,2.73489999999947-1.295900000000074,5.735899999999674-1.295900000000074,8.995699999999488v12.666900000000169c0,6.527899999999136,1.75,11.876000000000204,5.254899999999907,16.05029999999897,3.501000000000204,4.174399999999878,8.658200000000761,6.261300000000119,15.472700000000259,6.261300000000119,9.306599999999889,0,16.025300000000243-4.318400000000111,20.152299999999741-12.95509999999922l8.34860000000026,5.614199999999983c-2.399400000000242,5.375500000000102-5.97360000000026,9.644599999999627-10.72360000000026,12.811100000000806s-10.675799999999981,4.75-17.777299999999741,4.75Z"/><path class="uuid-bafb2ec5-bbf6-4c8e-b85b-f302e34ed7d0" d="M1266.91399999999885,338.561000000001513c-6.909199999999146,0-12.691399999999703-1.319800000001123-17.344699999999648-3.95850000000064-4.655300000000352-2.638200000001234-8.661099999999351-6.165100000000166-12.019500000000335-10.580100000001039l8.204100000000835-6.621099999998478c2.878899999999703,3.647999999999229,6.093699999999444,6.45509999999922,9.644500000000335,8.419899999998961,3.548799999999574,1.968800000000556,7.675799999999072,2.951699999999619,12.378899999999703,2.951699999999619,4.894500000000335,0,8.708999999999833-1.055199999998877,11.443400000000111-3.16649999999936,2.735300000000279-2.10989999999947,4.102499999999054-5.085900000000038,4.102499999999054-8.924800000000687,0-2.878899999999703-.935499999999593-5.348199999998542-2.806599999999889-7.413099999999758-1.872099999999591-2.0625-5.253899999999703-3.476599999999962-10.147499999999127-4.246100000000297l-5.902299999999741-.863799999999173c-3.455100000001039-.47899999999936-6.621100000000297-1.223100000001068-9.5-2.230900000000474-2.878900000000613-1.007799999999406-5.397500000000946-2.350599999999758-7.556700000001001-4.030300000000352-2.159200000000055-1.677699999998367-3.839799999999741-3.765099999998711-5.038099999999758-6.261699999999109-1.201100000000224-2.494099999999889-1.799799999999777-5.469699999999648-1.799799999999777-8.923800000000483,0-3.646499999998923.670000000000073-6.837400000000343,2.015699999999924-9.572799999999916,1.34270000000015-2.73489999999947,3.189400000000205-5.012199999999211,5.541900000000169-6.836900000000242,2.350599999999758-1.821799999999712,5.15729999999985-3.189899999999398,8.419999999999163-4.102100000000064,3.260700000000725-.911099999999351,6.765600000000632-1.367599999999584,10.50880000000052-1.367599999999584,6.04489999999987,0,11.105399999999463,1.057099999999991,15.185500000000502,3.16649999999936,4.077199999999721,2.112300000000687,7.65139999999974,5.038100000001577,10.723599999999351,8.780200000001059l-7.629799999999705,6.909200000000055c-1.632899999999609-2.302700000000186-4.029300000000148-4.39010000000053-7.197299999999814-6.260700000000725-3.166000000000167-1.871600000000399-7.148400000000038-2.807600000000093-11.94630000000052-2.807600000000093-4.799799999999777,0-8.420899999999165,1.032200000001467-10.868199999999888,3.09519999999975-2.44629999999961,2.063900000001013-3.66989999999987,4.871600000000399-3.66989999999987,8.420400000000882,0,3.648400000000038,1.22360000000026,6.286099999999351,3.66989999999987,7.91649999999936,2.447300000000723,1.633299999999508,5.974600000000464,2.831500000000233,10.58010000000013,3.599100000001272l5.757799999999406.863299999999072c8.252000000000407,1.247999999999593,14.106500000000779,3.623499999999694,17.560600000000704,7.125,3.45510000000013,3.504899999999907,5.181599999999889,8.085399999999936,5.181599999999889,13.746100000000297,0,7.197299999999814-2.44629999999961,12.860800000000381-7.339799999999741,16.985800000000381-4.894599999999627,4.12749999999869-11.613299999999981,6.189500000000407-20.152400000000853,6.189500000000407Z"/><path class="uuid-bafb2ec5-bbf6-4c8e-b85b-f302e34ed7d0" d="M1378.036099999999351,338.561000000001513c-8.157199999999648,0-15.114299999999275-1.561100000000806-20.872100000000501-4.678200000000288-5.757799999999406-3.117200000000594-10.651299999999537-7.413099999999758-14.681599999999889-12.882900000000518l8.923800000000483-7.485300000000279c3.549800000000687,4.703100000000632,7.485399999999572,8.276900000000751,11.80370000000039,10.723599999999351,4.318400000000111,2.447299999999814,9.403299999999945,3.670900000000984,15.257799999999406,3.670900000000984,7.197299999999814,0,12.689500000000407-1.727500000000873,16.481499999999869-5.181599999999889,3.789000000000669-3.455100000001039,5.685500000000502-8.061499999999796,5.685500000000502-13.818900000000212,0-4.796800000000076-1.439400000000205-8.492099999999482-4.318299999999908-11.082500000000437-2.878899999999703-2.591800000000148-7.628899999999703-4.654300000000148-14.25-6.190399999999499l-8.20510000000013-1.871100000000297c-9.211900000000242-2.110399999999572-16.242199999999684-5.301299999999173-21.086900000000242-9.57129999999961-4.846699999999146-4.269500000000335-7.269599999999627-10.292999999999665-7.269599999999627-18.065899999999601,0-4.412599999999657.814499999999498-8.348200000000361,2.447299999999814-11.802700000000186,1.630900000000111-3.454600000000937,3.909200000000055-6.33350000000064,6.836899999999332-8.636300000000119,2.925800000000891-2.30370000000039,6.427800000001298-4.05370000000039,10.507800000001225-5.253899999999703,4.078199999999924-1.199200000000928,8.564499999999498-1.799800000000687,13.458999999998923-1.799800000000687,7.579100000000835,0,14.081100000000333,1.392600000001039,19.503900000000613,4.174800000000687,5.420000000000073,2.784200000000055,10.003899999999703,6.861299999998664,13.746099999999387,12.235399999999572l-9.068299999998999,6.620600000000195c-2.784200000000055-3.837400000000343-6.142600000001039-6.859900000001289-10.075200000001132-9.068400000000111-3.936599999999089-2.206500000000233-8.83009999999922-3.310499999999593-14.682599999999184-3.310499999999593-6.429699999999684,0-11.492199999999684,1.367199999998775-15.185599999999795,4.101999999998952-3.695300000000316,2.735399999999572-5.542000000000371,6.837900000000445-5.542000000000371,12.307200000001103,0,4.800199999999677,1.558599999999387,8.420799999999872,4.67869999999948,10.867599999999584,3.117200000000594,2.446799999999712,7.843800000000556,4.390699999999924,14.177800000000389,5.83009999999922l8.204999999999927,1.871100000000297c9.882899999999609,2.20850000000064,17.03229999999985,5.566399999999703,21.447300000000723,10.075699999999415,4.412099999999555,4.511200000000827,6.621099999999387,10.507800000001225,6.621099999999387,17.992700000000696,0,4.606400000000576-.791000000000167,8.78019999999924-2.375,12.523400000000038-1.583999999999833,3.742200000000594-3.864300000000185,6.909200000000055-6.836899999999332,9.5-2.975600000000668,2.590799999999945-6.59860000000117,4.606400000000576-10.868200000000797,6.045399999999063-4.270499999999629,1.439500000000407-9.092800000000352,2.159200000001874-14.465799999999945,2.159200000001874Z"/><path class="uuid-bafb2ec5-bbf6-4c8e-b85b-f302e34ed7d0" d="M1460.370100000000093,338.561000000001513c-4.99120000000039,0-9.549800000000687-.913600000001679-13.674800000000687-2.734900000001289-4.127000000000407-1.822200000000521-7.654300000000148-4.438000000000102-10.58010000000013-7.84519999999975-2.927699999999277-3.40480000000025-5.206100000000333-7.484399999999368-6.836899999999332-12.23489999999947-1.632800000000316-4.75-2.44630000000052-10.09860000000117-2.44630000000052-16.049800000000687,0-5.85149999999885.813500000000204-11.177700000000186,2.44630000000052-15.977499999999054,1.630799999998999-4.796900000001187,3.909200000000055-8.899400000000242,6.836899999999332-12.306599999999889,2.925799999999981-3.405300000000352,6.453099999999722-6.02100000000064,10.58010000000013-7.84480000000076,4.125-1.822200000000521,8.683600000000297-2.734800000000178,13.674800000000687-2.734800000000178,4.988299999999072,0,9.522399999999834.912599999999657,13.602499999999054,2.734800000000178,4.07720000000063,1.823800000000119,7.603500000000167,4.439500000000407,10.579100000000835,7.84480000000076,2.973699999999553,3.407199999999648,5.27639999999974,7.509699999998702,6.909200000000055,12.306599999999889,1.630899999999201,4.799799999998868,2.447299999999814,10.126000000000204,2.447299999999814,15.977499999999054,0,5.951199999999517-.816400000000613,11.299800000000687-2.447299999999814,16.049800000000687-1.632800000000316,4.750500000000102-3.935500000000502,8.83009999999922-6.909200000000055,12.23489999999947-2.975600000000668,3.407199999999648-6.501900000000205,6.022999999999229-10.579100000000835,7.84519999999975-4.08009999999922,1.82129999999961-8.614199999999983,2.734900000001289-13.602499999999054,2.734900000001289ZM1460.370100000000093,328.340799999999945c6.236299999999574,0,11.32129999999961-1.917999999999665,15.257799999999406-5.757799999999406,3.933600000000297-3.836499999999432,5.90139999999974-9.690500000000611,5.90139999999974-17.560600000000704v-10.651799999999639c0-7.867199999998775-1.967799999999443-13.721700000000055-5.90139999999974-17.561099999998987-3.936499999999796-3.83640000000014-9.021499999999833-5.757300000001123-15.257799999999406-5.757300000001123-6.239300000001094,0-11.324200000000928,1.920900000000984-15.257800000001225,5.757300000001123-3.936599999999089,3.839399999998932-5.90139999999883,9.693900000000212-5.90139999999883,17.561099999998987v10.651799999999639c0,7.870100000000093,1.964799999999741,13.724100000001272,5.90139999999883,17.560600000000704,3.933600000000297,3.839799999999741,9.018500000000131,5.757799999999406,15.257800000001225,5.757799999999406Z"/><path class="uuid-bafb2ec5-bbf6-4c8e-b85b-f302e34ed7d0" d="M1540.544899999998961,338.561000000001513c-5.181699999999182,0-9.836899999999332-.913600000001679-13.961899999999332-2.734900000001289-4.127000000000407-1.822200000000521-7.606499999999869-4.413099999999758-10.436499999999796-7.772399999999834-2.831100000000333-3.358399999999165-4.990300000000389-7.435600000000704-6.476600000000872-12.235399999999572-1.489299999999275-4.79739999999947-2.231499999999869-10.170900000000984-2.231499999999869-16.122100000000501,0-5.948200000000725.742200000000594-11.321700000000419,2.231499999999869-16.121100000000297,1.486300000000483-4.797300000000178,3.645500000000538-8.87539999999899,6.476600000000872-12.23529999999846,2.829999999999927-3.357900000000882,6.309499999999389-5.948700000000827,10.436499999999796-7.772500000000946,4.125-1.822200000000521,8.78020000000015-2.734800000000178,13.961899999999332-2.734800000000178,7.388700000000426,0,13.314400000001115,1.607900000000882,17.77730000000065,4.821700000000419,4.461900000000242,3.216399999999339,7.795000000000073,7.413099999999758,10.003899999999703,12.594799999998941l-9.644499999999425,4.894500000000335c-1.344700000000557-3.837400000000343-3.550800000000891-6.813000000000102-6.621100000000297-8.924799999998868-3.072299999999814-2.109400000001187-6.909200000000055-3.166500000001179-11.515600000000632-3.166500000001179-3.45509999999922,0-6.476599999999962.553200000000288-9.068399999999201,1.655300000000352-2.590799999999945,1.10399999999936-4.75,2.64010000000053-6.47649999999976,4.606400000000576-1.727600000000166,1.96730000000025-3.02350000000024,4.318400000000111-3.886800000000221,7.052700000000186-.863199999999779,2.73489999999947-1.295900000000074,5.735899999999674-1.295900000000074,8.995699999999488v12.666900000000169c0,6.527899999999136,1.75,11.876000000000204,5.253999999999905,16.05029999999897,3.501900000000205,4.174399999999878,8.659099999999853,6.261300000000119,15.473599999999351,6.261300000000119,9.306600000000799,0,16.025400000000445-4.318400000000111,20.15230000000065-12.95509999999922l8.348699999999553,5.614199999999983c-2.399399999999332,5.375500000000102-5.973699999999553,9.644599999999627-10.723699999999553,12.811100000000806s-10.676699999999983,4.75-17.77730000000065,4.75Z"/><path class="uuid-bafb2ec5-bbf6-4c8e-b85b-f302e34ed7d0" d="M1591.067299999999705,245.142499999999927c-2.497000000000298,0-4.295799999999872-.597599999999147-5.397400000000744-1.798799999998664-1.104499999999462-1.199200000000928-1.655299999999443-2.756800000001022-1.655299999999443-4.67870000000039v-1.871100000000297c0-1.918499999999767.550799999999981-3.477500000000873,1.655299999999443-4.678200000000288,1.101600000000872-1.198800000000119,2.900400000000445-1.799300000000585,5.397400000000744-1.799300000000585,2.494200000000092,0,4.293999999999869.600500000000466,5.397500000000036,1.799300000000585,1.102499999999964,1.200699999999415,1.656299999999646,2.759700000000521,1.656299999999646,4.678200000000288v1.871100000000297c0,1.921899999999368-.553799999999683,3.479499999999462-1.656299999999646,4.67870000000039-1.103500000000167,1.201199999999517-2.903299999999945,1.798799999998664-5.397500000000036,1.798799999998664ZM1585.309499999999389,262.560499999999593h11.515699999999924v74.272900000001755h-11.515699999999924v-74.272900000001755Z"/><path class="uuid-bafb2ec5-bbf6-4c8e-b85b-f302e34ed7d0" d="M1649.219699999999648,338.561000000001513c-5.086900000000242,0-9.668999999999869-.913600000001679-13.746100000000297-2.734900000001289-4.08010000000013-1.822200000000521-7.582000000000335-4.438000000000102-10.507799999999406-7.84519999999975-2.92870000000039-3.40480000000025-5.181700000000092-7.484399999999368-6.765600000000632-12.23489999999947-1.582999999999629-4.75-2.374099999999999-10.09860000000117-2.374099999999999-16.049800000000687,0-5.85149999999885.79110000000037-11.177700000000186,2.374099999999999-15.977499999999054,1.58390000000054-4.796900000001187,3.836900000000242-8.899400000000242,6.765600000000632-12.306599999999889,2.925799999999072-3.405300000000352,6.427699999999277-6.02100000000064,10.507799999999406-7.84480000000076,4.077100000000428-1.822200000000521,8.659200000000055-2.734800000000178,13.746100000000297-2.734800000000178,4.989300000000185,0,9.451199999999517.908199999999852,13.386700000000019,2.725599999999758,3.933599999999387,1.817300000000614,7.292000000000371,4.329499999999825,10.076199999999517,7.532199999999648,2.782200000000557,3.203100000000632,4.917000000000371,7.003900000001522,6.405300000000352,11.402799999999843,1.486299999999574,4.399400000000242,2.231399999999667,9.228000000000975,2.231399999999667,14.486300000000483v5.451699999999619h-53.403299999999945v3.455100000001039c0,3.16649999999936.503899999999703,6.117200000000594,1.511700000000019,8.851999999998952,1.007800000000316,2.734900000001289,2.447300000000723,5.110400000001391,4.318400000000111,7.125,1.871100000000297,2.015699999999924,4.173799999999574,3.598700000000463,6.909099999999853,4.751000000000204,2.735400000000482,1.151400000000649,5.83010000000013,1.726599999999962,9.284200000000055,1.726599999999962,4.701200000000426,0,8.802800000000389-1.102600000000166,12.307600000000093-3.310599999998885,3.501000000000204-2.206000000000131,6.212000000000444-5.372999999999593,8.131900000000314-9.5l8.20510000000013,5.939500000000407c-2.399500000000444,5.119099999999889-6.14260000000013,9.246099999998478-11.227600000000166,12.38379999999961-5.086900000000242,3.137699999999313-11.132800000000316,4.707500000000437-18.136700000000019,4.707500000000437ZM1649.219699999999648,270.476500000000669c-3.167000000000371,0-6.04489999999987.548800000000483-8.635699999999815,1.646499999998923-2.591800000000148,1.097700000000259-4.822300000000723,2.647500000000946-6.693400000000111,4.648400000001857-1.871100000000297,2.001999999998588-3.335900000000038,4.363299999999072-4.390599999999722,7.081099999999424-1.056700000001001,2.718699999999444-1.584000000000742,5.698199999998906-1.584000000000742,8.941399999999703v1.001000000000204h41.023400000000038v-1.57470000000103c0-6.580599999999322-1.798799999999574-11.84769999999844-5.397399999999834-15.80619999999908-3.598700000000463-3.958000000000538-8.373099999999795-5.9375-14.322299999999814-5.9375Z"/><path class="uuid-bafb2ec5-bbf6-4c8e-b85b-f302e34ed7d0" d="M1716.728499999999258,336.833400000001348c-4.031299999999646,0-7.078099999999722-1.124499999999898-9.140599999999722-3.373500000001513-2.064499999999498-2.248999999999796-3.09479999999985-5.195299999999406-3.09479999999985-8.834499999999025v-51.846199999999953h-12.235300000000279v-10.218700000001263h6.909200000000055c2.494099999999889,0,4.197200000000521-.504899999999907,5.110300000000279-1.512699999999313.910200000000259-1.006799999999203,1.367199999999684-2.756799999999203,1.367199999999684-5.252899999999499v-13.819400000000314h10.363299999999981v20.584999999999127h16.265600000000632v10.218700000001263h-16.265600000000632v53.834999999999127h15.114199999999983v10.219200000001365h-14.393500000000131Z"/><path class="uuid-bafb2ec5-bbf6-4c8e-b85b-f302e34ed7d0" d="M1796.615199999999277,262.560499999999593h11.372100000000501l-33.251000000000204,91.545900000000984c-.863299999999981,2.207000000000335-1.727499999999964,4.052700000000186-2.590799999999945,5.54149999999936-.864300000000185,1.486800000000585-1.920900000000074,2.66359999999986-3.167000000000371,3.526900000000751-1.248099999999795.864199999999983-2.806699999999182,1.487300000000687-4.677799999999479,1.870999999999185-1.871000000000095.382400000000416-4.152299999999741.576200000001336-6.837800000000243.576200000001336h-5.90139999999974v-10.219699999999648h11.659200000000055l5.614199999999983-15.808600000000297-27.781200000000354-77.033200000001671h11.515599999999722l17.84860000000026,50.425800000000891,3.45510000000013,12.06880000000092h.718799999999646l4.031200000000354-12.06880000000092,17.992199999999684-50.425800000000891Z"/><path class="uuid-bafb2ec5-bbf6-4c8e-b85b-f302e34ed7d0" d="M654.682645312499517,477.751907812500576l-3.6103515625-11.4755859375h-15.98828125l-3.5458984375,11.4755859375h-8.638671875l15.0859375-44.9990234375h10.5732421875l14.9560546875,44.9990234375h-8.83203125ZM643.207059374999517,440.489212500000576h-.322265625l-5.7373046875,18.501953125h11.8623046875l-5.802734375-18.501953125Z"/><path class="uuid-bafb2ec5-bbf6-4c8e-b85b-f302e34ed7d0" d="M669.643582812499517,477.751907812500576v-33.65234375h8.251953125v6.9619140625h.322265625c.837890625-3.544921875,3.5458984375-6.9619140625,8.896484375-6.9619140625h1.8056640625v7.7998046875h-2.5791015625c-5.5439453125,0-8.4453125,1.5478515625-8.4453125,5.22265625v20.6298828125h-8.251953125Z"/><path class="uuid-bafb2ec5-bbf6-4c8e-b85b-f302e34ed7d0" d="M697.044949999999517,469.177689062500576v-18.5029296875h-4.96484375v-6.5751953125h2.5791015625c2.4501953125,0,3.2236328125-1.1611328125,3.2236328125-3.4814453125v-5.73828125h7.4140625v9.2197265625h6.8974609375v6.5751953125h-6.8974609375v20.501953125h6.3818359375v6.5751953125h-5.9306640625c-5.673828125,0-8.703125-3.0947265625-8.703125-8.57421875Z"/><path class="uuid-bafb2ec5-bbf6-4c8e-b85b-f302e34ed7d0" d="M716.451199999999517,472.336868750000576l5.029296875-4.900390625c2.44921875,2.8369140625,5.4150390625,4.578125,9.21875,4.578125,3.9326171875,0,5.6083984375-1.4833984375,5.6083984375-3.869140625,0-1.93359375-1.16015625-3.158203125-4.1259765625-3.544921875l-3.3525390625-.451171875c-7.2197265625-.90234375-11.216796875-4.0625-11.216796875-10.1865234375,0-6.5107421875,5.0927734375-10.6376953125,12.7646484375-10.6376953125,6.5751953125,0,9.927734375,1.9345703125,13.1513671875,5.287109375l-4.8349609375,4.8349609375c-1.9345703125-2.0634765625-4.7705078125-3.6103515625-8.05859375-3.6103515625-3.5458984375,0-5.0927734375,1.41796875-5.0927734375,3.4814453125,0,2.2568359375,1.224609375,3.2880859375,4.3837890625,3.8037109375l3.4169921875.451171875c7.3486328125,1.03125,10.89453125,4.3193359375,10.89453125,9.927734375,0,6.51171875-5.4794921875,11.0244140625-13.8603515625,11.0244140625-6.3828125,0-10.5732421875-2.3212890625-13.92578125-6.1884765625Z"/><path class="uuid-bafb2ec5-bbf6-4c8e-b85b-f302e34ed7d0" d="M795.107449999999517,477.751907812500576l-3.6103515625-11.4755859375h-15.98828125l-3.5458984375,11.4755859375h-8.638671875l15.0859375-44.9990234375h10.5732421875l14.9560546875,44.9990234375h-8.83203125ZM783.631864062499517,440.489212500000576h-.322265625l-5.7373046875,18.501953125h11.8623046875l-5.802734375-18.501953125Z"/><path class="uuid-bafb2ec5-bbf6-4c8e-b85b-f302e34ed7d0" d="M807.167020312499517,472.336868750000576l5.029296875-4.900390625c2.44921875,2.8369140625,5.4150390625,4.578125,9.21875,4.578125,3.9326171875,0,5.6083984375-1.4833984375,5.6083984375-3.869140625,0-1.93359375-1.16015625-3.158203125-4.1259765625-3.544921875l-3.3525390625-.451171875c-7.2197265625-.90234375-11.216796875-4.0625-11.216796875-10.1865234375,0-6.5107421875,5.0927734375-10.6376953125,12.7646484375-10.6376953125,6.5751953125,0,9.927734375,1.9345703125,13.1513671875,5.287109375l-4.8349609375,4.8349609375c-1.9345703125-2.0634765625-4.7705078125-3.6103515625-8.05859375-3.6103515625-3.5458984375,0-5.0927734375,1.41796875-5.0927734375,3.4814453125,0,2.2568359375,1.224609375,3.2880859375,4.3837890625,3.8037109375l3.4169921875.451171875c7.3486328125,1.03125,10.89453125,4.3193359375,10.89453125,9.927734375,0,6.51171875-5.4794921875,11.0244140625-13.8603515625,11.0244140625-6.3828125,0-10.5732421875-2.3212890625-13.92578125-6.1884765625Z"/><path class="uuid-bafb2ec5-bbf6-4c8e-b85b-f302e34ed7d0" d="M838.888699999999517,472.336868750000576l5.029296875-4.900390625c2.44921875,2.8369140625,5.4150390625,4.578125,9.21875,4.578125,3.9326171875,0,5.6083984375-1.4833984375,5.6083984375-3.869140625,0-1.93359375-1.16015625-3.158203125-4.1259765625-3.544921875l-3.3525390625-.451171875c-7.2197265625-.90234375-11.216796875-4.0625-11.216796875-10.1865234375,0-6.5107421875,5.0927734375-10.6376953125,12.7646484375-10.6376953125,6.5751953125,0,9.927734375,1.9345703125,13.1513671875,5.287109375l-4.8349609375,4.8349609375c-1.9345703125-2.0634765625-4.7705078125-3.6103515625-8.05859375-3.6103515625-3.5458984375,0-5.0927734375,1.41796875-5.0927734375,3.4814453125,0,2.2568359375,1.224609375,3.2880859375,4.3837890625,3.8037109375l3.4169921875.451171875c7.3486328125,1.03125,10.89453125,4.3193359375,10.89453125,9.927734375,0,6.51171875-5.4794921875,11.0244140625-13.8603515625,11.0244140625-6.3828125,0-10.5732421875-2.3212890625-13.92578125-6.1884765625Z"/><path class="uuid-bafb2ec5-bbf6-4c8e-b85b-f302e34ed7d0" d="M871.706082812499517,460.861282812500576c0-10.7666015625,5.9951171875-17.5361328125,15.6005859375-17.5361328125,9.6708984375,0,15.666015625,6.76953125,15.666015625,17.5361328125,0,10.8310546875-5.9951171875,17.6640625-15.666015625,17.6640625-9.60546875,0-15.6005859375-6.8330078125-15.6005859375-17.6640625ZM894.334012499999517,464.020462500000576v-6.25390625c0-5.0283203125-2.7080078125-7.80078125-7.02734375-7.80078125-4.2548828125,0-6.9619140625,2.7724609375-6.9619140625,7.80078125v6.25390625c0,5.0927734375,2.70703125,7.865234375,6.9619140625,7.865234375,4.3193359375,0,7.02734375-2.7724609375,7.02734375-7.865234375Z"/><path class="uuid-bafb2ec5-bbf6-4c8e-b85b-f302e34ed7d0" d="M908.004910937499517,460.861282812500576c0-10.7666015625,5.6083984375-17.5361328125,15.5361328125-17.5361328125,6.76953125,0,11.2177734375,3.224609375,13.216796875,8.509765625l-6.76953125,3.03125c-.7734375-2.8369140625-2.9013671875-4.900390625-6.447265625-4.900390625-4.5771484375,0-6.8974609375,3.2236328125-6.8974609375,7.9296875v6.125c0,4.7060546875,2.3203125,7.865234375,6.8974609375,7.865234375,3.9326171875,0,5.8671875-2.2568359375,7.091796875-5.287109375l6.318359375,3.0302734375c-2.1923828125,5.9306640625-6.8984375,8.896484375-13.41015625,8.896484375-9.927734375,0-15.5361328125-6.8330078125-15.5361328125-17.6640625Z"/><path class="uuid-bafb2ec5-bbf6-4c8e-b85b-f302e34ed7d0" d="M942.626004687499517,435.073196875000576v-1.2890625c0-2.384765625,1.41796875-4.125,4.8349609375-4.125,3.3525390625,0,4.8349609375,1.740234375,4.8349609375,4.125v1.2890625c0,2.3857421875-1.482421875,4.126953125-4.8349609375,4.126953125-3.4169921875,0-4.8349609375-1.7412109375-4.8349609375-4.126953125ZM943.334989062499517,444.099564062500576h8.251953125v33.65234375h-8.251953125v-33.65234375Z"/><path class="uuid-bafb2ec5-bbf6-4c8e-b85b-f302e34ed7d0" d="M958.744168749999517,468.597610937500576c0-6.8984375,5.2216796875-10.3154296875,14.3759765625-10.3154296875h5.7373046875v-2.44921875c0-3.7392578125-1.869140625-5.931640625-6.2529296875-5.931640625-3.8681640625,0-6.060546875,1.93359375-7.671875,4.255859375l-4.8994140625-4.384765625c2.44921875-3.8671875,6.3818359375-6.447265625,13.1513671875-6.447265625,9.08984375,0,13.9248046875,4.3203125,13.9248046875,11.9921875v15.859375h3.3525390625v6.5751953125h-4.5771484375c-3.5458984375,0-5.7373046875-2.3212890625-6.2529296875-5.8017578125h-.38671875c-1.0966796875,4.318359375-4.771484375,6.5751953125-9.7998046875,6.5751953125-6.8330078125,0-10.701171875-3.9326171875-10.701171875-9.927734375ZM978.857449999999517,467.694290625000576v-4.447265625h-5.2861328125c-4.3193359375,0-6.4462890625,1.482421875-6.4462890625,4.125v1.0966796875c0,2.7080078125,1.869140625,4.0615234375,5.0927734375,4.0615234375,3.6748046875,0,6.6396484375-1.67578125,6.6396484375-4.8359375Z"/><path class="uuid-bafb2ec5-bbf6-4c8e-b85b-f302e34ed7d0" d="M998.717801562499517,469.177689062500576v-18.5029296875h-4.96484375v-6.5751953125h2.5791015625c2.4501953125,0,3.2236328125-1.1611328125,3.2236328125-3.4814453125v-5.73828125h7.4140625v9.2197265625h6.8974609375v6.5751953125h-6.8974609375v20.501953125h6.3818359375v6.5751953125h-5.9306640625c-5.673828125,0-8.703125-3.0947265625-8.703125-8.57421875Z"/><path class="uuid-bafb2ec5-bbf6-4c8e-b85b-f302e34ed7d0" d="M1020.316434374999517,435.073196875000576v-1.2890625c0-2.384765625,1.41796875-4.125,4.8349609375-4.125,3.3525390625,0,4.8349609375,1.740234375,4.8349609375,4.125v1.2890625c0,2.3857421875-1.482421875,4.126953125-4.8349609375,4.126953125-3.4169921875,0-4.8349609375-1.7412109375-4.8349609375-4.126953125ZM1021.025418749999517,444.099564062500576h8.251953125v33.65234375h-8.251953125v-33.65234375Z"/><path class="uuid-bafb2ec5-bbf6-4c8e-b85b-f302e34ed7d0" d="M1036.563504687499517,460.861282812500576c0-10.7666015625,5.9951171875-17.5361328125,15.6005859375-17.5361328125,9.6708984375,0,15.666015625,6.76953125,15.666015625,17.5361328125,0,10.8310546875-5.9951171875,17.6640625-15.666015625,17.6640625-9.60546875,0-15.6005859375-6.8330078125-15.6005859375-17.6640625ZM1059.191434374999517,464.020462500000576v-6.25390625c0-5.0283203125-2.7080078125-7.80078125-7.02734375-7.80078125-4.2548828125,0-6.9619140625,2.7724609375-6.9619140625,7.80078125v6.25390625c0,5.0927734375,2.70703125,7.865234375,6.9619140625,7.865234375,4.3193359375,0,7.02734375-2.7724609375,7.02734375-7.865234375Z"/><path class="uuid-bafb2ec5-bbf6-4c8e-b85b-f302e34ed7d0" d="M1075.118192187499517,477.751907812500576v-33.65234375h8.251953125v5.6083984375h.322265625c1.3544921875-3.609375,4.1904296875-6.3828125,9.4130859375-6.3828125,6.8974609375,0,10.765625,4.771484375,10.765625,13.15234375v21.2744140625h-8.251953125v-20.4365234375c0-4.7705078125-1.611328125-7.220703125-5.5439453125-7.220703125-3.4169921875,0-6.705078125,1.8046875-6.705078125,5.416015625v22.2412109375h-8.251953125Z"/></g></svg>