<?xml version="1.0" encoding="UTF-8"?><svg id="uuid-7a944f37-4f7e-420e-bcd4-41a4395b7219" xmlns="http://www.w3.org/2000/svg" width="222.963807206974792mm" height="257.332934746357694mm" xmlns:xlink="http://www.w3.org/1999/xlink" viewBox="0 0 632.023399999999128 729.447699999998804"><defs><style>.uuid-2cf065d1-80ba-455a-b4ab-6a2d3ce815bf{fill:#00c2f3;}.uuid-2cdc88b8-31a4-4460-bc7b-008e61797281{fill:#fff;}.uuid-0490cd21-4219-40dc-a073-91de74329ede{fill:#ee212e;}.uuid-6c0db481-08b3-4cdb-b8c8-4b4f54833c2b{fill:none;}.uuid-9cdfc2d7-471f-4f66-88e9-f4f1f7507db6{clip-path:url(#uuid-9ae5d487-4448-45fc-baa3-057f78178a7f);}.uuid-e3334713-61bd-4bcd-9402-d583f666574a{fill:#333e48;}.uuid-670b93a0-9eab-47ba-a6e5-0f8ea0ba7500{fill:#46bc96;}</style><clipPath id="uuid-9ae5d487-4448-45fc-baa3-057f78178a7f"><rect class="uuid-6c0db481-08b3-4cdb-b8c8-4b4f54833c2b" width="632.023399999999128" height="729.447699999998804"/></clipPath></defs><g class="uuid-9cdfc2d7-471f-4f66-88e9-f4f1f7507db6"><path class="uuid-0490cd21-4219-40dc-a073-91de74329ede" d="M77.704999999999927,170.747099999999591c3.777399999999034,0,6.837899999999536,3.060500000000502,6.837899999999536,6.836899999999332-.001900000000205-.139699999999721-.005799999999908-.278299999999945-.005799999999908-.418999999999869,0-51.154300000000148,41.468699999999444-92.622999999999593,92.622999999999593-92.622999999999593,3.777400000000853,0,6.837900000000445-3.060600000000704,6.837900000000445-6.837900000000445,0-3.77639999999974-3.060499999999593-6.837899999999536-6.837900000000445-6.837899999999536-14.343699999999444,0-28.265599999999722,2.8125-41.380799999999908,8.359400000000278-12.658199999999852,5.354499999999462-24.025399999999536,13.016599999999016-33.783199999999852,22.774400000000242-9.757800000000316,9.75879999999961-17.421900000000278,21.125-22.775399999999536,33.784200000000055-5.546900000000278,13.115199999999277-8.359400000000278,27.037099999999555-8.359400000000278,41.380799999998999,0,.140699999999924.003899999999703.279300000000148.005900000000111.418999999999869,0-3.77639999999883,3.060499999999593-6.836899999999332,6.837800000000243-6.836899999999332Z"/><path class="uuid-670b93a0-9eab-47ba-a6e5-0f8ea0ba7500" d="M170.324199999999109,276.626899999999296c0-3.776299999999537,3.060500000000502-6.837799999999334,6.835900000000038-6.837799999999334-51.015599999999722,0-92.39259999999922-41.242200000000594-92.617199999999684-92.205100000001039,0-3.77639999999883-3.060500000000502-6.836899999999332-6.837899999999536-6.836899999999332-3.77730000000065,0-6.837800000000243,3.060500000000502-6.837800000000243,6.836899999999332.054599999999482,14.19630000000052,2.861299999999574,27.975600000000668,8.353500000000167,40.962900000000445,5.353499999999258,12.659099999999853,13.01759999999922,24.025400000000445,22.775399999999536,33.783199999999852,9.757800000000316,9.75879999999961,21.125,17.420900000000074,33.783199999999852,22.775400000000445,13.115200000000186,5.546800000000076,27.037100000000464,8.359300000000076,41.380799999999908,8.359300000000076-3.775399999999536,0-6.835900000000038-3.061499999999796-6.835900000000038-6.837900000000445Z"/><path class="uuid-2cf065d1-80ba-455a-b4ab-6a2d3ce815bf" d="M251.259699999999611,243.702099999999518c-2.66989999999987-2.670900000000074-6.998000000000502-2.670900000000074-9.66989999999987,0-16.671900000000278,16.145499999999629-39.386700000000019,26.087000000000444-64.429700000000594,26.087000000000444-3.775399999999536,0-6.835900000000038,3.061499999999796-6.835900000000038,6.837799999999334,0,3.776400000000649,3.060500000000502,6.837900000000445,6.835900000000038,6.837900000000445,14.345699999999852,0,28.26760000000013-2.8125,41.382800000000316-8.359300000000076,12.203199999999924-5.160200000000259,23.199300000000221-12.473700000000463,32.716800000000148-21.732500000000073,2.671900000000278-2.670900000000074,2.671900000000278-7,0-9.670900000000074Z"/><path class="uuid-2cf065d1-80ba-455a-b4ab-6a2d3ce815bf" d="M233.453099999999722,120.873999999999796c-15.035200000000259-15.035100000000966-35.02730000000065-23.315400000000409-56.293000000000575-23.315400000000409-21.261699999999109,0-41.253899999999703,8.280299999999443-56.290999999999258,23.315400000000409-15.035100000000057,15.036099999999351-23.316400000000613,35.027399999999034-23.316400000000613,56.290999999999258,0,21.265699999999924,8.281300000000556,41.254899999999907,23.316400000000613,56.292000000000371,15.037099999999555,15.03519999999935,35.029300000000148,23.317399999999907,56.290999999999258,23.317399999999907,21.265699999999924,0,41.257800000000316-8.282200000000557,56.293000000000575-23.317399999999907,15.03519999999935-15.037100000000464,23.314400000000205-35.026300000000447,23.314400000000205-56.292000000000371,0-21.263600000000224-8.279200000000856-41.254899999999907-23.314400000000205-56.290999999999258Z"/><path class="uuid-e3334713-61bd-4bcd-9402-d583f666574a" d="M121.056599999999889,202.910099999999147v-51.489199999999983h11.167999999999665v3.806599999999889h-6.472700000000259v43.877000000000407h6.472700000000259v3.805599999999686h-11.167999999999665Z"/><path class="uuid-e3334713-61bd-4bcd-9402-d583f666574a" d="M233.265599999999722,151.420899999999165v51.489199999999983h-11.164099999999962v-3.805599999999686h6.468799999999646v-43.877000000000407h-6.468799999999646v-3.806599999999889h11.164099999999962Z"/><path class="uuid-2cdc88b8-31a4-4460-bc7b-008e61797281" d="M146.992199999999684,187.625c0,1.028299999999945.015599999999722,2.242199999998775.046800000000076,3.635699999998906.031299999999646,1.394600000000537.076199999999517,2.8125.130899999999201,4.248100000000704.052700000000186,1.4375.115200000000186,2.811499999999796.193400000000111,4.120100000000093.072200000000521,1.308600000000297.164000000000669,2.402299999999741.27140000000054,3.281199999999444h-6.595699999999852v-36.364199999999983c0-3.132799999999406-.052700000000186-5.968799999999646-.162100000000464-8.511699999999109-.105399999999463-2.543000000000575-.26760000000013-4.748100000000704-.48239999999987-6.613300000000891h6.597700000000259v36.204100000000835Z"/><path class="uuid-2cdc88b8-31a4-4460-bc7b-008e61797281" d="M175.794899999998961,170.084999999999127v4.216700000000856h-6.050799999999072v24.393599999999424h6.050799999999072v4.215799999999945h-18.021499999998923v-4.215799999999945h5.953099999999722v-24.393599999999424h-5.953099999999722v-4.216700000000856h18.021499999998923Z"/><path class="uuid-2cdc88b8-31a4-4460-bc7b-008e61797281" d="M189.310499999999593,170.084999999999127c.128899999999703.344699999999648.257799999999406.789000000000669.386700000000019,1.337800000000243.128899999999703.545900000000074.246099999999387,1.119200000000092.35359999999946,1.720699999999852.105400000000373.599699999999757.203100000000632,1.190499999999702.291000000000167,1.769600000000537l.255799999999908,1.447199999999611c2.060600000000704-2.445300000000316,4.128900000000613-4.20890000000054,6.21100000000024-5.292899999999463,2.079999999999927-1.083000000000538,4.25-1.625,6.5-1.625,1.716800000000148,0,3.234300000000076.284200000000055,4.554699999999684.85149999999885,1.318300000000818.570300000001225,2.429600000000391,1.470700000000761,3.329999999999927,2.703200000000834.900400000000445,1.234299999999166,1.582100000000537,2.83389999999963,2.045000000000073,4.795900000000074.460900000000038,1.963799999999537.691400000000613,4.327100000000428.691400000000613,7.096599999999853v14.480500000000575c0,3.625999999999294-.318400000000111,6.635699999998906-.951200000000426,9.027399999999034-.630900000000111,2.392499999999927-1.51759999999922,4.301699999999983-2.654300000000148,5.730400000000373-1.136699999999109,1.423800000000483-2.505900000000111,2.433600000000297-4.103499999999258,3.022500000000036-1.597700000000259.590799999999945-3.373100000000704.885699999999815-5.326200000000426.885699999999815-.964799999999741,0-2-.155300000000352-3.105499999999665-.466800000000148-1.103500000000167-.311499999999796-2.10739999999987-.745100000000093-3.007800000000316-1.30370000000039l2.091800000000148-4.827099999999518c.494200000000092.365200000000186,1.152399999999943.66989999999987,1.978500000000167.917899999999463.826199999999517.246100000000297,1.670000000000073.369200000001001,2.525399999999536.369200000001001,1.031300000000556,0,1.953100000000632-.166000000000167,2.769600000000537-.498100000000704.814400000000205-.332999999999629,1.505799999999908-.915999999999258,2.074200000000019-1.753899999999703.570299999999406-.836900000000242,1.003899999999703-1.984399999999368,1.304699999999684-3.443299999999908.300699999999779-1.458999999999833.449200000000019-3.315499999999702.449200000000019-5.567399999999907v-14.160200000000259c0-2.574200000000019-.132800000000316-4.66110000000026-.400400000000445-6.25880000000052-.269499999999425-1.598599999999351-.671899999999368-2.843699999999444-1.208999999999833-3.733399999999165-.53519999999935-.889600000000428-1.20510000000013-1.485300000000279-2.011700000000019-1.787099999999555-.802700000000186-.298800000000483-1.742199999999684-.450200000001132-2.814499999999498-.450200000001132-1.158200000000761,0-2.28899999999976.27350000000115-3.394500000000335.822300000000723-1.103500000000167.546900000000278-2.119099999999889,1.254899999999907-3.042999999999665,2.122999999999593-.921800000000076.868199999999888-1.736300000000483,1.849699999999757-2.443299999999908,2.945399999999609-.709000000000742,1.093700000001263-1.234400000000278,2.1875-1.578199999999924,3.281200000001263v18.665999999999258h-5.953100000000632v-19.791999999999462c0-3.174800000000687-.183600000000297-5.862300000000687-.548799999999574-8.061499999999796-.363299999999981-2.199200000000928-.718800000000556-3.856400000000576-1.060599999999795-4.972600000000966h5.792999999999665Z"/><path class="uuid-e3334713-61bd-4bcd-9402-d583f666574a" d="M107.451599999999416,426.163099999999758v-67.755400000000009h8.153800000000047v60.572299999999814h28.83010000000013v7.183100000000195h-36.983900000000176Z"/><path class="uuid-e3334713-61bd-4bcd-9402-d583f666574a" d="M159.189899999999398,364.329099999999016c-1.683600000000297,0-2.897399999999834-.403299999999945-3.640599999999722-1.213399999999638-.744599999999991-.808099999999286-1.11620000000039-1.858900000000176-1.11620000000039-3.154799999999341v-1.261700000000928c0-1.293899999999667.371600000000399-2.34519999999975,1.11620000000039-3.155300000000352.743199999999888-.808599999999387,1.956999999999425-1.213299999999435,3.640599999999722-1.213299999999435,1.681700000000092,0,2.895500000000538.404700000000048,3.64010000000053,1.213299999999435.743199999999888.810100000000602,1.116299999999683,1.861400000000685,1.116299999999683,3.155300000000352v1.261700000000928c0,1.295899999999165-.373099999999795,2.346700000000055-1.116299999999683,3.154799999999341-.744599999999991.810099999999693-1.958400000000438,1.213399999999638-3.64010000000053,1.213399999999638ZM155.307099999999991,376.075199999999313h7.765599999999722v50.087900000000445h-7.765599999999722v-50.087900000000445Z"/><path class="uuid-e3334713-61bd-4bcd-9402-d583f666574a" d="M179.574699999999211,426.163099999999758v-50.087900000000445h7.765600000000632v8.060999999999694h.388199999999415c1.228500000000167-2.817900000000009,2.960399999999936-5.060999999999694,5.193299999999908-6.72649999999976,2.233000000000175-1.665599999999358,5.225100000000566-2.4996000000001,8.979000000000269-2.4996000000001,5.176800000000185,0,9.270599999999831,1.667000000000371,12.27980000000025,4.999100000000908,3.009299999999712,3.333999999998923,4.513699999999517,8.041999999999462,4.513699999999517,14.123999999999796v32.129899999999907h-7.765599999999722v-30.837900000000445c0-9.015599999999722-3.785699999999451-13.523499999999331-11.35739999999987-13.523499999999331-1.553299999999581,0-3.057700000000295.195799999999508-4.514199999999619.583999999998923-1.456100000000333.38970000000063-2.766100000000733.973700000000463-3.931200000000899,1.752000000000407-1.164999999999054.778299999999945-2.086899999999332,1.766599999999926-2.766099999999824,2.966800000000148-.679699999999684,1.199200000000019-1.019499999999425,2.610300000000279-1.019499999999425,4.231400000000576v34.827199999999721h-7.765600000000632Z"/><path class="uuid-e3334713-61bd-4bcd-9402-d583f666574a" d="M274.50919999999951,424.513199999999415c0,6.923800000000483-1.941399999999703,12.359800000000178-5.824200000000019,16.307600000000093-3.882800000000316,3.946799999999712-9.351999999999862,5.92239999999947-16.40480000000025,5.92239999999947-4.077099999999518,0-7.588299999999435-.634799999999814-10.532199999999648-1.90139999999974-2.945300000000316-1.269499999999425-5.387200000000121-2.942399999999907-7.328599999999824-5.021999999999935l4.561999999999898-5.362799999999879c1.682099999999991,1.731999999999971,3.623599999999897,3.0649999999996,5.824200000000019,3.996099999999387,2.199300000000221.931700000001001,4.756400000000212,1.397000000000844,7.668499999999767,1.397000000000844,4.529300000000148,0,8.040500000000065-1.251500000000306,10.532199999999648-3.752000000000407,2.490700000000288-2.504399999999805,3.737300000000687-6.192799999999806,3.737300000000687-11.067799999999806v-6.92830000000049h-.388200000000325c-1.489199999999983,3.075700000000325-3.430599999999686,5.381400000000212-5.824200000000019,6.918999999999869-2.395000000000437,1.53860000000077-5.338799999999537,2.307099999999991-8.833499999999731,2.307099999999991-3.106399999999667,0-5.921400000000176-.615699999999379-8.445300000000316-1.843699999999444-2.523400000000038-1.22899999999936-4.659200000000055-2.976599999999962-6.406199999999444-5.242200000000594-1.747600000000602-2.264699999999721-3.106500000000779-5.014699999999721-4.07720000000063-8.250999999999294-.970699999999852-3.235400000000482-1.456000000000131-6.859400000000278-1.456000000000131-10.872099999999591,0-4.011700000000928.485300000000279-7.635700000000725,1.456000000000131-10.872000000000298.970699999999852-3.235400000000482,2.329600000000028-5.985400000000482,4.07720000000063-8.251000000000204,1.746999999999389-2.26470000000063,3.882799999999406-4.011700000000019,6.406199999999444-5.242199999999684,2.52390000000014-1.228500000000167,5.338900000000649-1.843800000000556,8.445300000000316-1.843800000000556,3.494700000000194,0,6.487299999999777.753500000000713,8.979000000000269,2.257900000000518,2.490799999999581,1.506799999999203,4.383299999999508,3.828599999999824,5.67869999999948,6.968199999999342h.388200000000325v-8.060999999999694h7.765599999999722v48.438000000000102ZM254.027299999999741,420.435999999999694c1.747599999999693,0,3.397500000000036-.227500000000873,4.950699999999415-.682600000000093,1.553200000000288-.454600000000028,2.895500000000538-1.122600000000602,4.028299999999945-2.000500000000102,1.131900000000314-.876900000000205,2.03859999999986-1.950699999999415,2.718300000000454-3.217800000000352.679200000000492-1.268500000000131,1.019000000000233-2.748999999999796,1.019000000000233-4.439899999999398v-18.634799999999814c0-1.365200000000186-.324200000000019-2.649900000000343-.970699999999852-3.854000000001179-.647400000000744-1.202599999998711-1.553200000000288-2.22649999999885-2.717800000000352-3.072699999998804-1.164999999999964-.844700000000557-2.52390000000014-1.511200000000827-4.077100000000428-1.999499999999898-1.553199999999379-.488300000000891-3.203099999999722-.732500000000073-4.950699999999415-.732500000000073-4.401400000000649,0-7.89600000000064,1.398499999999331-10.483400000000074,4.195399999999609-2.589300000000549,2.796799999999166-3.882800000000316,6.406700000000455-3.882800000000316,10.829999999999927v8.583999999999833c0,4.422899999999572,1.293499999999767,8.03269999999975,3.882800000000316,10.83010000000013,2.587399999999434,2.796400000000176,6.081999999999425,4.194800000000214,10.483400000000074,4.194800000000214Z"/><path class="uuid-e3334713-61bd-4bcd-9402-d583f666574a" d="M321.878899999999703,418.101999999998952h-.388200000000325c-.518600000000333,1.15480000000025-1.149399999999332,2.291500000000269-1.89260000000013,3.412600000000566-.745100000000093,1.120599999999286-1.666999999999462,2.114300000000185-2.766599999999926,2.97859999999946-1.10149999999976.865200000000186-2.426699999999983,1.55370000000039-3.979999999999563,2.066400000000613-1.553200000000288.512200000000121-3.365700000000288.768499999999221-5.436000000000604.768499999999221-5.178199999999379,0-9.287099999999555-1.664999999999054-12.328099999999722-4.998999999999796-3.042500000000473-3.332499999999527-4.5625-8.039999999999054-4.5625-14.123999999999796v-32.129899999999907h7.765599999999722v30.837900000000445c0,9.01509999999962,3.817900000000009,13.522899999999936,11.454600000000028,13.522899999999936,1.553200000000288,0,3.057600000000093-.19380000000092,4.513700000000426-.584000000000742,1.456000000000131-.388100000000122,2.75-.972099999999045,3.882799999999406-1.75,1.131800000001022-.778299999999945,2.038500000000568-1.766999999999825,2.718200000000252-2.967199999999139.679699999999684-1.199300000000221,1.019100000000435-2.643100000000231,1.019100000000435-4.330100000001039v-34.729499999999462h7.765599999999722v50.087900000000445h-7.765599999999722v-8.061100000000806Z"/><path class="uuid-e3334713-61bd-4bcd-9402-d583f666574a" d="M350.028800000000047,364.329099999999016c-1.683600000000297,0-2.897000000000844-.403299999999945-3.640200000000732-1.213399999999638-.744599999999991-.808099999999286-1.11619999999948-1.858900000000176-1.11619999999948-3.154799999999341v-1.261700000000928c0-1.293899999999667.371599999999489-2.34519999999975,1.11619999999948-3.155300000000352.743199999999888-.808599999999387,1.956600000000435-1.213299999999435,3.640200000000732-1.213299999999435,1.682099999999991,0,2.895499999999629.404700000000048,3.64009999999962,1.213299999999435.743199999999888.810100000000602,1.11619999999948,1.861400000000685,1.11619999999948,3.155300000000352v1.261700000000928c0,1.295899999999165-.372999999999593,2.346700000000055-1.11619999999948,3.154799999999341-.744599999999991.810099999999693-1.957999999999629,1.213399999999638-3.64009999999962,1.213399999999638ZM346.145999999999731,376.075199999999313h7.765599999999722v50.087900000000445h-7.765599999999722v-50.087900000000445Z"/><path class="uuid-e3334713-61bd-4bcd-9402-d583f666574a" d="M385.459899999999834,427.328099999998813c-4.659100000000763,0-8.559100000000399-.890099999998711-11.697200000000521-2.668899999998757-3.139699999999721-1.779300000000148-5.840900000000147-4.158200000000761-8.105499999999665-7.134800000000723l5.533199999999852-4.465799999999945c1.941399999999703,2.459899999999834,4.108900000000176,4.352499999999964,6.503899999999703,5.67869999999948,2.393600000000333,1.327100000000428,5.176800000000185,1.990200000000186,8.348200000000361,1.990200000000186,3.300199999999677,0,5.872499999999491-.711899999999332,7.716699999999946-2.135699999999815,1.84479999999985-1.422900000000482,2.766599999999926-3.429699999999684,2.766599999999926-6.018600000000333,0-1.941399999999703-.630799999999908-3.606399999999667-1.892499999999927-4.998999999999796-1.262200000000121-1.390599999999722-3.543499999999767-2.344699999999648-6.843800000000556-2.863299999999072l-3.979999999999563-.583000000000538c-2.329499999999825-.323200000000725-4.465299999999843-.824700000000121-6.406699999999546-1.503899999999703-1.941400000000613-.680200000000696-3.64010000000053-1.585399999999936-5.096199999999953-2.718200000000252-1.456000000000131-1.131400000000212-2.588900000000649-2.539600000000064-3.397500000000946-4.223199999999451-.809999999999491-1.681600000000799-1.213299999999435-3.688500000000204-1.213299999999435-6.017600000001039,0-2.458999999999833.452100000000428-4.611299999999574,1.358900000000176-6.454999999999927.905700000000252-1.84479999999985,2.150800000000345-3.381900000000314,3.737299999999777-4.611399999999776,1.584899999999834-1.228499999999258,3.478000000000065-2.150900000000547,5.67870000000039-2.766599999999926,2.199199999999109-.614199999999983,4.5625-.921900000000278,7.08640000000014-.921900000000278,4.076699999999619,0,7.489299999999275.712400000000343,10.240699999999379,2.135299999999916,2.75,1.424300000000585,5.160200000000259,3.397500000000946,7.231999999999971,5.921400000000176l-5.145099999999729,4.659200000000055c-1.100999999999658-1.552800000000389-2.71770000000015-2.960000000000036-4.853500000000167-4.22269999999935-2.135199999999713-1.261700000000928-4.82129999999961-1.892600000001039-8.056599999999889-1.892600000001039-3.236800000000585,0-5.67870000000039.695800000000418-7.329099999999926,2.086900000000242-1.649900000000343,1.392100000000937-2.475100000000566,3.285200000000259-2.475100000000566,5.678799999999683,0,2.459900000000744.825200000000223,4.239200000000892,2.475100000000566,5.338800000000447,1.650399999999536,1.101599999999962,4.028800000000047,1.909200000000055,7.134699999999611,2.426800000000185l3.882900000000518.582000000000335c5.564899999999398.841800000000148,9.513100000000122,2.444299999999203,11.84269999999924,4.805199999999786,2.329600000000937,2.363299999999981,3.494700000000194,5.45259999999962,3.494700000000194,9.270499999999629,0,4.853500000000167-1.650399999999536,8.67240000000038-4.950699999999415,11.454600000000028-3.300299999999879,2.783200000000761-7.831100000000333,4.173799999999574-13.589899999999943,4.173799999999574Z"/><path class="uuid-e3334713-61bd-4bcd-9402-d583f666574a" d="M428.075199999999313,426.163099999999758c-2.717800000000352,0-4.773000000000138-.757800000000316-6.164099999999962-2.274900000000343-1.392100000000028-1.516599999999926-2.086900000000242-3.503399999999601-2.086900000000242-5.957500000000437v-34.96389999999974h-8.250999999999294v-6.891599999999926h4.659200000000055c1.682099999999991,0,2.830599999999322-.340299999999843,3.44629999999961-1.020000000000437.614199999999983-.679199999999582.921900000000278-1.859399999999368.921900000000278-3.542999999999665v-9.318900000000212h6.989199999999983v13.881900000000314h10.969299999999748v6.891599999999926h-10.969299999999748v36.304699999999684h10.192399999999907v6.891600000000835h-9.707000000000335Z"/><path class="uuid-e3334713-61bd-4bcd-9402-d583f666574a" d="M454.963799999999537,364.329099999999016c-1.683600000000297,0-2.896899999999732-.403299999999945-3.64010000000053-1.213399999999638-.744600000000901-.808099999999286-1.116699999999582-1.858900000000176-1.116699999999582-3.154799999999341v-1.261700000000928c0-1.293899999999667.372099999998682-2.34519999999975,1.116699999999582-3.155300000000352.743200000000797-.808599999999387,1.956500000000233-1.213299999999435,3.64010000000053-1.213299999999435,1.682200000000194,0,2.895499999999629.404700000000048,3.640199999999822,1.213299999999435.743099999998776.810100000000602,1.11620000000039,1.861400000000685,1.11620000000039,3.155300000000352v1.261700000000928c0,1.295899999999165-.373100000001614,2.346700000000055-1.11620000000039,3.154799999999341-.744700000000194.810099999999693-1.957999999999629,1.213399999999638-3.640199999999822,1.213399999999638ZM451.080999999999221,376.075199999999313h7.765599999999722v50.087900000000445h-7.765599999999722v-50.087900000000445Z"/><path class="uuid-e3334713-61bd-4bcd-9402-d583f666574a" d="M493.986299999999574,427.328099999998813c-3.494599999999991,0-6.634300000000621-.615699999999379-9.416000000000167-1.843699999999444-2.783199999999852-1.22899999999936-5.129399999999805-2.976599999999962-7.037599999999657-5.242200000000594-1.909700000000157-2.264699999999721-3.365700000000288-5.014699999999721-4.368200000000797-8.250999999999294-1.003899999999703-3.235400000000482-1.504399999999805-6.859400000000278-1.504399999999805-10.872099999999591,0-4.011700000000928.500500000000102-7.635700000000725,1.504399999999805-10.872000000000298,1.002500000000509-3.235400000000482,2.45850000000064-5.985400000000482,4.368200000000797-8.251000000000204,1.908199999999852-2.26470000000063,4.254399999999805-4.011700000000019,7.037599999999657-5.242199999999684,2.781699999999546-1.228500000000167,5.921400000000176-1.843800000000556,9.416000000000167-1.843800000000556,4.98239999999987,0,8.979000000000269,1.084000000000742,11.988299999999981,3.251000000000204,3.009299999999712,2.169499999999971,5.257300000000214,5,6.746600000000399,8.494200000000092l-6.503900000000613,3.300699999999779c-.906799999999748-2.587800000000243-2.395099999999729-4.594699999999648-4.465400000000045-6.018499999999221-2.071799999999712-1.422900000000482-4.659200000000055-2.135800000000017-7.765599999999722-2.135800000000017-2.329600000000028,0-4.368199999999888.373099999998885-6.115700000000288,1.116299999999683-1.747099999999591.744599999999991-3.203099999999722,1.781199999999444-4.368199999999888,3.106399999999667-1.164499999999862,1.32720000000063-2.03859999999986,2.912100000000464-2.620600000000195,4.756400000000212-.582499999999527,1.84519999999975-.873999999999796,3.867600000000493-.873999999999796,6.066799999999603v8.542000000000371c0,4.402399999999943,1.180199999999786,8.00880000000052,3.543400000000474,10.823800000000119,2.361399999999776,2.815400000000409,5.839399999999841,4.222600000000057,10.435099999999693,4.222600000000057,6.27639999999974,0,10.806599999999889-2.911600000000362,13.589799999999741-8.736300000000483l5.630400000000009,3.785600000000159c-1.618199999999888,3.625-4.028299999999945,6.503900000000613-7.231899999999769,8.63970000000063-3.203099999999722,2.135199999998804-7.199700000000121,3.203099999998813-11.988299999999981,3.203099999998813Z"/><path class="uuid-e3334713-61bd-4bcd-9402-d583f666574a" d="M539.220699999999852,427.328099999998813c-4.659700000000157,0-8.559100000000399-.890099999998711-11.697300000000723-2.668899999998757-3.139599999999518-1.779300000000148-5.840799999999945-4.158200000000761-8.105499999999665-7.134800000000723l5.533199999999852-4.465799999999945c1.941400000000613,2.459899999999834,4.108900000000176,4.352499999999964,6.503900000000613,5.67869999999948,2.393099999999322,1.327100000000428,5.176299999999173,1.990200000000186,8.348199999999451,1.990200000000186,3.300299999999879,0,5.872599999999693-.711899999999332,7.716800000000148-2.135699999999815,1.844699999999648-1.422900000000482,2.766599999999926-3.429699999999684,2.766599999999926-6.018600000000333,0-1.941399999999703-.630900000000111-3.606399999999667-1.89260000000013-4.998999999999796-1.262200000000121-1.390599999999722-3.543399999999565-2.344699999999648-6.843700000000354-2.863299999999072l-3.979999999999563-.583000000000538c-2.329600000000028-.323200000000725-4.465299999999843-.824700000000121-6.406799999999748-1.503899999999703-1.941400000001522-.680200000000696-3.64010000000053-1.585399999999936-5.096099999999751-2.718200000000252-1.456100000000333-1.131400000000212-2.588900000000649-2.539600000000064-3.397500000000036-4.223199999999451-.810100000000602-1.681600000000799-1.213400000000547-3.688500000000204-1.213400000000547-6.017600000001039,0-2.458999999999833.45220000000063-4.611299999999574,1.358900000000176-6.454999999999927.905800000000454-1.84479999999985,2.150899999999638-3.381900000000314,3.737299999999777-4.611399999999776,1.585000000000036-1.228499999999258,3.478000000000065-2.150900000000547,5.67870000000039-2.766599999999926,2.199200000000019-.614199999999983,4.5625-.921900000000278,7.08640000000014-.921900000000278,4.076699999999619,0,7.489299999999275.712400000000343,10.240799999999581,2.135299999999916,2.75,1.424300000000585,5.160100000000057,3.397500000000946,7.231899999999769,5.921400000000176l-5.144999999999527,4.659200000000055c-1.10109999999986-1.552800000000389-2.717800000000352-2.960000000000036-4.853500000000167-4.22269999999935-2.135299999999916-1.261700000000928-4.82129999999961-1.892600000001039-8.056700000000092-1.892600000001039-3.236799999999675,0-5.67869999999948.695800000000418-7.329099999999926,2.086900000000242-1.649900000000343,1.392100000000937-2.475099999999657,3.285200000000259-2.475099999999657,5.678799999999683,0,2.459900000000744.825199999999313,4.239200000000892,2.475099999999657,5.338800000000447,1.650400000000445,1.101599999999962,4.028800000000047,1.909200000000055,7.134799999999814,2.426800000000185l3.882800000000316.582000000000335c5.564900000000307.841800000000148,9.513200000000325,2.444299999999203,11.842799999998533,4.805199999999786,2.329600000001847,2.363299999999981,3.494600000000901,5.45259999999962,3.494600000000901,9.270499999999629,0,4.853500000000167-1.650399999999536,8.67240000000038-4.950699999999415,11.454600000000028-3.300299999999879,2.783200000000761-7.831000000000131,4.173799999999574-13.589799999999741,4.173799999999574Z"/><path class="uuid-e3334713-61bd-4bcd-9402-d583f666574a" d="M126.477499999999054,543.813499999999294c-5.500999999999294,0-10.192399999999907-1.052800000000389-14.075199999999313-3.154299999999239-3.882800000000316-2.102600000000166-7.183600000000297-4.999500000000808-9.901400000000649-8.688500000000204l6.018600000000333-5.047900000000482c2.393100000000231,3.171900000000278,5.04740000000038,5.582100000000537,7.959499999999935,7.232500000000073,2.912100000000464,1.649899999999434,6.341800000000148,2.475100000000566,10.289999999999964,2.475100000000566,4.853500000000167,0,8.557099999999991-1.165100000000166,11.114300000000185-3.494700000001103,2.555599999999686-2.329999999999927,3.834399999999732-5.435999999999694,3.834399999999732-9.318799999999101,0-3.23490000000038-.970699999999852-5.727100000000064-2.912099999999555-7.474100000000362-1.941399999999703-1.748099999999795-5.145000000000437-3.138700000000426-9.609800000000178-4.174799999999777l-5.533199999999852-1.261800000000221c-6.212900000000445-1.422800000000279-10.954099999999926-3.574200000000019-14.221199999999953-6.454999999999927-3.268600000000333-2.878899999999703-4.901900000000751-6.940500000000611-4.901900000000751-12.182700000000295,0-2.975499999999556.548800000000483-5.629799999999705,1.649900000000343-7.95889999999963,1.100099999999657-2.33010000000013,2.636300000000119-4.271499999999833,4.610899999999674-5.824700000000121,1.97360000000026-1.553299999999581,4.334900000000744-2.733000000000175,7.08640000000014-3.543499999999767,2.75-.808600000000297,5.775900000000547-1.213400000000547,9.076200000000426-1.213400000000547,5.111299999999574,0,9.496100000000297.939000000000306,13.153299999999945,2.815400000000409,3.655300000000352,1.8774999999996,6.746100000000297,4.6274999999996,9.269999999999527,8.250999999999294l-6.115199999999277,4.465400000000955c-1.877999999999702-2.587900000000445-4.14260000000013-4.626000000000204-6.795000000000073-6.11580000000049-2.654300000000148-1.487799999999879-5.954999999999927-2.232899999999972-9.901300000000447-2.232899999999972-4.33640000000014,0-7.750500000000102.922899999999572-10.24119999999948,2.766599999999926-2.491700000000492,1.84479999999985-3.737299999999777,4.611400000000685-3.737299999999777,8.299799999999777,0,3.236800000000585,1.051199999999881,5.67870000000039,3.15519999999924,7.328600000000733,2.102100000000064,1.650399999999536,5.290100000000166,2.961499999999432,9.561599999999999,3.932199999999284l5.532700000000659,1.261700000000928c6.664499999999862,1.489199999999983,11.486299999999574,3.753899999999703,14.463399999999638,6.794899999998961,2.975999999999658,3.042000000000371,4.465299999999843,7.085900000000038,4.465299999999843,12.13380000000052,0,3.106399999999667-.533699999999953,5.920900000000074-1.601599999999962,8.445300000000316-1.067799999999806,2.523499999999331-2.605899999999565,4.659200000000055-4.610799999999472,6.406299999999646-2.006900000000314,1.7475000000004-4.450200000000223,3.106399999999667-7.328600000000733,4.077099999999518-2.880400000000009.970699999999852-6.132399999999507,1.456100000000333-9.755900000000111,1.456100000000333Z"/><path class="uuid-e3334713-61bd-4bcd-9402-d583f666574a" d="M182.001399999999194,543.813499999999294c-3.365699999999379,0-6.439899999999398-.61580000000049-9.221599999999853-1.844299999999748-2.783199999999852-1.228000000000065-5.161699999999655-2.992599999999584-7.134799999999814-5.290500000000065-1.974600000000464-2.295900000000074-3.511199999999917-5.04740000000038-4.610900000000584-8.251000000000204-1.100999999999658-3.203099999999722-1.649899999999434-6.810500000000502-1.649899999999434-10.823199999999815,0-3.94629999999961.548899999999776-7.538099999999758,1.649899999999434-10.775400000000445,1.099700000000666-3.234399999999368,2.636300000000119-6.001999999999498,4.610900000000584-8.299299999999675,1.973100000000159-2.296400000000176,4.351599999999962-4.060099999999693,7.134799999999814-5.290599999999358,2.781700000000455-1.228500000001077,5.855900000000474-1.843700000000354,9.221599999999853-1.843700000000354,3.364300000000185,0,6.421900000000278.615199999999277,9.173400000000584,1.843700000000354,2.75,1.230499999999665,5.128399999999601,2.994199999999182,7.134699999999611,5.290599999999358,2.005400000000009,2.297300000000178,3.558600000000297,5.064900000000307,4.659700000000157,8.299299999999675,1.099599999999555,3.237300000000687,1.649900000000343,6.829100000000835,1.649900000000343,10.775400000000445,0,4.012699999999313-.550300000000789,7.620100000000093-1.649900000000343,10.823199999999815-1.10109999999986,3.203599999999824-2.654300000000148,5.95510000000013-4.659700000000157,8.251000000000204-2.00630000000001,2.297900000000482-4.384699999999611,4.0625-7.134699999999611,5.290500000000065-2.751500000000306,1.228499999999258-5.809100000000399,1.844299999999748-9.173400000000584,1.844299999999748ZM182.001399999999194,536.921399999999267c4.206100000000333,0,7.635299999999916-1.293499999999767,10.289600000000064-3.882799999999406,2.652799999999843-2.587400000000343,3.980000000000473-6.535700000000361,3.980000000000473-11.84230000000025v-7.183600000000297c0-5.305699999999888-1.32720000000063-9.253899999999703-3.980000000000473-11.842800000000352-2.654300000000148-2.587399999999434-6.083499999999731-3.882799999999406-10.289600000000064-3.882799999999406-4.206999999999425,0-7.636700000000019,1.295399999999972-10.289499999999862,3.882799999999406-2.654300000000148,2.588900000000649-3.979999999999563,6.537100000000464-3.979999999999563,11.842800000000352v7.183600000000297c0,5.306599999999889,1.325699999999415,9.254899999999907,3.979999999999563,11.84230000000025,2.652799999999843,2.589299999999639,6.082500000000437,3.882799999999406,10.289499999999862,3.882799999999406Z"/><path class="uuid-e3334713-61bd-4bcd-9402-d583f666574a" d="M236.069799999999304,543.813499999999294c-3.494099999999889,0-6.63379999999961-.61580000000049-9.415500000000065-1.844299999999748-2.783199999999852-1.228000000000065-5.129899999999907-2.976000000000568-7.037599999999657-5.241700000000492-1.909700000000157-2.264599999999518-3.36580000000049-5.014599999999518-4.368199999999888-8.250899999999092-1.004399999999805-3.235400000000482-1.504899999999907-6.859400000001187-1.504899999999907-10.872100000000501,0-4.011700000000019.500500000000102-7.635800000000017,1.504899999999907-10.872100000000501,1.002399999999398-3.23529999999937,2.458499999999731-5.98529999999937,4.368199999999888-8.251000000000204,1.90769999999975-2.264599999999518,4.254399999999805-4.011699999999109,7.037599999999657-5.242199999998775,2.781700000000455-1.228500000001077,5.921400000000176-1.843700000000354,9.415500000000065-1.843700000000354,4.98239999999987,0,8.979000000000269,1.083999999999833,11.988800000000083,3.251499999999396,3.00880000000052,2.169400000000678,5.256800000000112,4.999499999999898,6.746100000000297,8.493600000000697l-6.503499999999804,3.300799999999981c-.907200000000557-2.587900000000445-2.395500000000538-4.594699999999648-4.465799999999945-6.018600000000333-2.07130000000052-1.42279999999937-4.659200000000055-2.135699999999815-7.765600000000632-2.135699999999815-2.329099999999926,0-4.368199999999888.372999999999593-6.115200000000186,1.11620000000039-1.747099999999591.745100000000093-3.203199999999924,1.780799999999545-4.368199999999888,3.106499999999869-1.164999999999964,1.327099999999518-2.03859999999986,2.912099999999555-2.621099999999387,4.756299999999101-.582000000000335,1.844700000000557-.873500000000604,3.867700000000696-.873500000000604,6.066900000000714v8.542999999999665c0,4.401300000000447,1.180100000000493,8.007800000000316,3.542900000000373,10.823199999999815,2.361899999999878,2.815000000000509,5.839399999999841,4.222200000000157,10.435099999999693,4.222200000000157,6.276400000000649,0,10.806599999999889-2.912099999999555,13.589799999999741-8.736399999999776l5.630400000000009,3.785700000000361c-1.618199999999888,3.625-4.028299999999945,6.503899999999703-7.231399999999667,8.639599999999518-3.203599999999824,2.135299999999916-7.200200000000223,3.203199999999924-11.988800000000083,3.203199999999924Z"/><path class="uuid-e3334713-61bd-4bcd-9402-d583f666574a" d="M270.141099999999824,480.814399999999296c-1.683600000000297,0-2.896999999999935-.403299999999945-3.640200000000732-1.212799999999334-.744599999999991-.809100000000399-1.11619999999948-1.85990000000038-1.11619999999948-3.155300000000352v-1.261700000000019c0-1.293999999999869.371599999999489-2.345299999999952,1.11619999999948-3.155300000000352.743200000000797-.808599999999387,1.956600000000435-1.212899999999536,3.640200000000732-1.212899999999536,1.682099999999991,0,2.895499999999629.404300000000148,3.64009999999962,1.212899999999536.743199999999888.8100000000004,1.11620000000039,1.861300000000483,1.11620000000039,3.155300000000352v1.261700000000019c0,1.295399999999972-.373000000000502,2.346199999999953-1.11620000000039,3.155300000000352-.744599999999991.809499999999389-1.957999999999629,1.212799999999334-3.64009999999962,1.212799999999334ZM266.258299999999508,492.559999999999491h7.765599999999722v50.088400000000547h-7.765599999999722v-50.088400000000547Z"/><path class="uuid-e3334713-61bd-4bcd-9402-d583f666574a" d="M309.357899999999063,543.813499999999294c-3.430699999999888,0-6.520499999999629-.61580000000049-9.270499999999629-1.844299999999748-2.751000000000204-1.228000000000065-5.112799999999879-2.992599999999584-7.08600000000024-5.290500000000065-1.975099999999657-2.295900000000074-3.494599999999991-5.04740000000038-4.5625-8.251000000000204-1.067799999999806-3.203099999999722-1.60149999999976-6.810500000000502-1.60149999999976-10.823199999999815,0-3.94629999999961.533699999999953-7.538099999999758,1.60149999999976-10.775400000000445,1.067900000000009-3.234399999999368,2.587400000000343-6.001999999999498,4.5625-8.299299999999675,1.973200000000361-2.296400000000176,4.335000000000036-4.060099999999693,7.08600000000024-5.290599999999358,2.75-1.228500000001077,5.839799999999741-1.843700000000354,9.270499999999629-1.843700000000354,3.364199999999983,0,6.373000000000502.612299999999777,9.02730000000065,1.837899999999536,2.653299999999945,1.225599999999758,4.917499999999563,2.91990000000078,6.79489999999987,5.079600000000937,1.876500000000306,2.159599999999045,3.315999999999804,4.723099999999249,4.319900000000416,7.689899999999398,1.002399999999398,2.966800000000148,1.504899999999907,6.223200000000361,1.504899999999907,9.769099999999526v3.677200000000084h-36.013700000000426v2.329100000000835c0,2.135800000000017.339799999999741,4.125500000000102,1.019500000000335,5.97019999999975.679199999999582,1.844299999999748,1.649899999999434,3.445799999999508,2.912099999999555,4.804699999999684,1.261700000000019,1.358900000000176,2.8149999999996,2.426800000000185,4.659200000000055,3.203599999999824,1.844200000000455.776400000000649,3.931599999999889,1.164600000000064,6.261199999999917,1.164600000000064,3.170000000000073,0,5.936599999999999-.743199999999888,8.299300000000585-2.23239999999987,2.361899999999878-1.487799999999879,4.189499999999498-3.623599999999897,5.48489999999947-6.406799999999748l5.533199999999852,4.005400000000009c-1.618599999999788,3.45259999999962-4.14259999999922,6.235800000000381-7.571799999999712,8.351599999999962-3.431099999999788,2.115700000000288-7.507800000000316,3.174299999999675-12.230900000000474,3.174299999999675ZM309.357899999999063,497.89889999999923c-2.135800000000017,0-4.077199999999721.370100000000093-5.824199999999109,1.110400000000482-1.747600000000602.740700000000288-3.252000000000407,1.785099999999147-4.513700000000426,3.135199999999713-1.262200000000121,1.349600000000464-2.249499999999898,2.942399999999907-2.960900000000038,4.774399999999332-.712899999999536,1.83350000000064-1.067900000000009,3.843300000000454-1.067900000000009,6.030300000000352v.674800000000687h27.665500000000065v-1.061499999999796c0-4.4375-1.213400000000547-7.989800000001196-3.64010000000053-10.659200000000055-2.426799999999275-2.668900000000576-5.646999999999025-4.004400000000714-9.658699999999953-4.004400000000714Z"/><path class="uuid-e3334713-61bd-4bcd-9402-d583f666574a" d="M354.88379999999961,542.648400000000038c-2.717800000000352,0-4.773000000000138-.757800000000316-6.164099999999962-2.274400000000242-1.392100000000028-1.517100000000937-2.086900000000242-3.503899999999703-2.086900000000242-5.958000000000538v-34.96389999999974h-8.251000000000204v-6.892100000000028h4.659200000000055c1.682099999999991,0,2.830600000000231-.339799999999741,3.44630000000052-1.019500000000335.614199999999983-.679199999999582.921799999999166-1.858899999999267.921799999999166-3.542499999999563v-9.319300000000112h6.989300000001094v13.88130000000001h10.969199999999546v6.892100000000028h-10.969199999999546v36.304699999999684h10.192399999999907v6.891600000000835h-9.707000000000335Z"/><path class="uuid-e3334713-61bd-4bcd-9402-d583f666574a" d="M408.757799999999406,492.559999999999491h7.668900000000576l-22.423300000000381,61.73739999999998c-.582500000000437,1.487699999999677-1.165100000000166,2.732899999999972-1.747600000000602,3.736800000000585-.581999999999425,1.002899999999499-1.294899999998961,1.796399999999267-2.135199999999713,2.378399999999601-.841799999999239.582500000000437-1.893100000000231,1.003399999999601-3.154799999999341,1.262199999999211-1.262200000000121.257800000001225-2.799800000000687.388200000001234-4.610800000000381.388200000001234h-3.979999999999563v-6.892100000000937h7.86279999999897l3.785600000001068-10.661099999999351-18.73490000000038-51.949800000000323h7.765699999999924l12.037100000000464,34.006400000000212,2.329599999999118,8.139199999999619h.485300000000279l2.717800000000352-8.139199999999619,12.13379999999961-34.006400000000212Z"/><path class="uuid-e3334713-61bd-4bcd-9402-d583f666574a" d="M124.498017187499499,637.561514062499555l-2.416015625-7.67822265625h-10.69775390625l-2.37255859375,7.67822265625h-5.7802734375l10.09423828125-30.109375h7.07421875l10.0078125,30.109375h-5.90966796875ZM116.819794531249499,612.628408593749555h-.2158203125l-3.83935546875,12.38037109375h7.93701171875l-3.8818359375-12.38037109375Z"/><path class="uuid-e3334713-61bd-4bcd-9402-d583f666574a" d="M134.504853124999499,637.561514062499555v-22.51708984375h5.521484375v4.65869140625h.2158203125c.56103515625-2.37255859375,2.37255859375-4.65869140625,5.953125-4.65869140625h1.20751953125v5.21923828125h-1.7255859375c-3.70947265625,0-5.65087890625,1.03515625-5.65087890625,3.494140625v13.8037109375h-5.521484375Z"/><path class="uuid-e3334713-61bd-4bcd-9402-d583f666574a" d="M152.837372656249499,631.824209374999555v-12.3798828125h-3.3212890625v-4.39990234375h1.72509765625c1.63916015625,0,2.1572265625-.77685546875,2.1572265625-2.32958984375v-3.83935546875h4.96044921875v6.1689453125h4.61572265625v4.39990234375h-4.61572265625v13.71728515625h4.2705078125v4.39990234375h-3.96875c-3.7958984375,0-5.8232421875-2.0703125-5.8232421875-5.7373046875Z"/><path class="uuid-e3334713-61bd-4bcd-9402-d583f666574a" d="M165.821259374999499,633.937978906249555l3.36474609375-3.2783203125c1.63916015625,1.89794921875,3.62353515625,3.0625,6.16845703125,3.0625,2.63134765625,0,3.7529296875-.99169921875,3.7529296875-2.587890625,0-1.29443359375-.7763671875-2.11376953125-2.7607421875-2.37255859375l-2.2431640625-.30224609375c-4.83154296875-.603515625-7.505859375-2.71728515625-7.505859375-6.8154296875,0-4.35693359375,3.40771484375-7.11767578125,8.541015625-7.11767578125,4.39990234375,0,6.64306640625,1.29443359375,8.7998046875,3.53759765625l-3.23486328125,3.23486328125c-1.29443359375-1.38037109375-3.1923828125-2.41552734375-5.39208984375-2.41552734375-2.37255859375,0-3.408203125.94921875-3.408203125,2.32958984375,0,1.509765625.81982421875,2.19970703125,2.93359375,2.544921875l2.2861328125.3017578125c4.91748046875.6904296875,7.2900390625,2.89013671875,7.2900390625,6.64306640625,0,4.35693359375-3.66650390625,7.37646484375-9.2744140625,7.37646484375-4.2705078125,0-7.07421875-1.552734375-9.3173828125-4.14111328125Z"/><path class="uuid-e3334713-61bd-4bcd-9402-d583f666574a" d="M218.446747656249499,637.561514062499555l-2.416015625-7.67822265625h-10.69775390625l-2.37255859375,7.67822265625h-5.7802734375l10.09423828125-30.109375h7.07421875l10.0078125,30.109375h-5.90966796875ZM210.768036718749499,612.628408593749555h-.21533203125l-3.83935546875,12.38037109375h7.93701171875l-3.88232421875-12.38037109375Z"/><path class="uuid-e3334713-61bd-4bcd-9402-d583f666574a" d="M226.512665624999499,633.937978906249555l3.36474609375-3.2783203125c1.63916015625,1.89794921875,3.62353515625,3.0625,6.16845703125,3.0625,2.63134765625,0,3.7529296875-.99169921875,3.7529296875-2.587890625,0-1.29443359375-.7763671875-2.11376953125-2.7607421875-2.37255859375l-2.2431640625-.30224609375c-4.83154296875-.603515625-7.505859375-2.71728515625-7.505859375-6.8154296875,0-4.35693359375,3.40771484375-7.11767578125,8.541015625-7.11767578125,4.39990234375,0,6.64306640625,1.29443359375,8.7998046875,3.53759765625l-3.23486328125,3.23486328125c-1.29443359375-1.38037109375-3.1923828125-2.41552734375-5.39208984375-2.41552734375-2.37255859375,0-3.408203125.94921875-3.408203125,2.32958984375,0,1.509765625.81982421875,2.19970703125,2.93359375,2.544921875l2.2861328125.3017578125c4.91748046875.6904296875,7.2900390625,2.89013671875,7.2900390625,6.64306640625,0,4.35693359375-3.66650390625,7.37646484375-9.2744140625,7.37646484375-4.2705078125,0-7.07421875-1.552734375-9.3173828125-4.14111328125Z"/><path class="uuid-e3334713-61bd-4bcd-9402-d583f666574a" d="M247.735810156249499,633.937978906249555l3.36474609375-3.2783203125c1.63916015625,1.89794921875,3.62353515625,3.0625,6.16845703125,3.0625,2.63134765625,0,3.7529296875-.99169921875,3.7529296875-2.587890625,0-1.29443359375-.7763671875-2.11376953125-2.7607421875-2.37255859375l-2.2431640625-.30224609375c-4.83154296875-.603515625-7.505859375-2.71728515625-7.505859375-6.8154296875,0-4.35693359375,3.40771484375-7.11767578125,8.541015625-7.11767578125,4.39990234375,0,6.64306640625,1.29443359375,8.7998046875,3.53759765625l-3.23486328125,3.23486328125c-1.29443359375-1.38037109375-3.1923828125-2.41552734375-5.39208984375-2.41552734375-2.37255859375,0-3.408203125.94921875-3.408203125,2.32958984375,0,1.509765625.81982421875,2.19970703125,2.93359375,2.544921875l2.2861328125.3017578125c4.91748046875.6904296875,7.2900390625,2.89013671875,7.2900390625,6.64306640625,0,4.35693359375-3.66650390625,7.37646484375-9.2744140625,7.37646484375-4.2705078125,0-7.07421875-1.552734375-9.3173828125-4.14111328125Z"/><path class="uuid-e3334713-61bd-4bcd-9402-d583f666574a" d="M269.691376562499499,626.259756249999555c0-7.20361328125,4.01171875-11.7333984375,10.439453125-11.7333984375,6.47021484375,0,10.48193359375,4.52978515625,10.48193359375,11.7333984375,0,7.2470703125-4.01171875,11.8193359375-10.48193359375,11.8193359375-6.427734375,0-10.439453125-4.572265625-10.439453125-11.8193359375ZM284.832489843749499,628.373525781249555v-4.1845703125c0-3.3642578125-1.8115234375-5.21923828125-4.70166015625-5.21923828125-2.84716796875,0-4.6591796875,1.85498046875-4.6591796875,5.21923828125v4.1845703125c0,3.40771484375,1.81201171875,5.2626953125,4.6591796875,5.2626953125,2.89013671875,0,4.70166015625-1.85498046875,4.70166015625-5.2626953125Z"/><path class="uuid-e3334713-61bd-4bcd-9402-d583f666574a" d="M293.976532812499499,626.259756249999555c0-7.20361328125,3.7529296875-11.7333984375,10.39599609375-11.7333984375,4.529296875,0,7.505859375,2.1572265625,8.84326171875,5.6943359375l-4.529296875,2.02734375c-.51806640625-1.89794921875-1.94140625-3.2783203125-4.31396484375-3.2783203125-3.0625,0-4.61572265625,2.15673828125-4.61572265625,5.3056640625v4.09814453125c0,3.14892578125,1.55322265625,5.2626953125,4.61572265625,5.2626953125,2.63134765625,0,3.92578125-1.509765625,4.7451171875-3.537109375l4.2275390625,2.02734375c-1.466796875,3.96826171875-4.61572265625,5.95263671875-8.97265625,5.95263671875-6.64306640625,0-10.39599609375-4.572265625-10.39599609375-11.8193359375Z"/><path class="uuid-e3334713-61bd-4bcd-9402-d583f666574a" d="M317.140107031249499,609.004873437499555v-.8623046875c0-1.59619140625.94873046875-2.7607421875,3.23486328125-2.7607421875,2.2431640625,0,3.2353515625,1.16455078125,3.2353515625,2.7607421875v.8623046875c0,1.59619140625-.9921875,2.7607421875-3.2353515625,2.7607421875-2.2861328125,0-3.23486328125-1.16455078125-3.23486328125-2.7607421875ZM317.614228124999499,615.044424218749555h5.521484375v22.51708984375h-5.521484375v-22.51708984375Z"/><path class="uuid-e3334713-61bd-4bcd-9402-d583f666574a" d="M327.923310156249499,631.436025781249555c0-4.61572265625,3.494140625-6.90185546875,9.619140625-6.90185546875h3.83935546875v-1.63916015625c0-2.501953125-1.2509765625-3.96826171875-4.18408203125-3.96826171875-2.58837890625,0-4.05517578125,1.2939453125-5.13330078125,2.8466796875l-3.2783203125-2.93310546875c1.63916015625-2.58837890625,4.2705078125-4.31396484375,8.7998046875-4.31396484375,6.08203125,0,9.3173828125,2.89013671875,9.3173828125,8.0234375v10.61181640625h2.2431640625v4.39990234375h-3.06298828125c-2.3720703125,0-3.8388671875-1.552734375-4.18408203125-3.88232421875h-.2587890625c-.7333984375,2.89013671875-3.19189453125,4.39990234375-6.556640625,4.39990234375-4.57275390625,0-7.16064453125-2.63134765625-7.16064453125-6.64306640625ZM341.381806249999499,630.832021874999555v-2.97607421875h-3.537109375c-2.89013671875,0-4.31396484375.9921875-4.31396484375,2.7607421875v.73291015625c0,1.81201171875,1.2509765625,2.7177734375,3.408203125,2.7177734375,2.45849609375,0,4.44287109375-1.12158203125,4.44287109375-3.2353515625Z"/><path class="uuid-e3334713-61bd-4bcd-9402-d583f666574a" d="M354.667450781249499,631.824209374999555v-12.3798828125h-3.3212890625v-4.39990234375h1.72509765625c1.63916015625,0,2.1572265625-.77685546875,2.1572265625-2.32958984375v-3.83935546875h4.96044921875v6.1689453125h4.61572265625v4.39990234375h-4.61572265625v13.71728515625h4.2705078125v4.39990234375h-3.96875c-3.7958984375,0-5.8232421875-2.0703125-5.8232421875-5.7373046875Z"/><path class="uuid-e3334713-61bd-4bcd-9402-d583f666574a" d="M369.118134374999499,609.004873437499555v-.8623046875c0-1.59619140625.94873046875-2.7607421875,3.23486328125-2.7607421875,2.2431640625,0,3.2353515625,1.16455078125,3.2353515625,2.7607421875v.8623046875c0,1.59619140625-.9921875,2.7607421875-3.2353515625,2.7607421875-2.2861328125,0-3.23486328125-1.16455078125-3.23486328125-2.7607421875ZM369.592255468749499,615.044424218749555h5.521484375v22.51708984375h-5.521484375v-22.51708984375Z"/><path class="uuid-e3334713-61bd-4bcd-9402-d583f666574a" d="M379.987274999999499,626.259756249999555c0-7.20361328125,4.01171875-11.7333984375,10.439453125-11.7333984375,6.47021484375,0,10.48193359375,4.52978515625,10.48193359375,11.7333984375,0,7.2470703125-4.01171875,11.8193359375-10.48193359375,11.8193359375-6.427734375,0-10.439453125-4.572265625-10.439453125-11.8193359375ZM395.128388281249499,628.373525781249555v-4.1845703125c0-3.3642578125-1.8115234375-5.21923828125-4.70166015625-5.21923828125-2.84716796875,0-4.6591796875,1.85498046875-4.6591796875,5.21923828125v4.1845703125c0,3.40771484375,1.81201171875,5.2626953125,4.6591796875,5.2626953125,2.89013671875,0,4.70166015625-1.85498046875,4.70166015625-5.2626953125Z"/><path class="uuid-e3334713-61bd-4bcd-9402-d583f666574a" d="M405.782196874999499,637.561514062499555v-22.51708984375h5.521484375v3.75244140625h.2158203125c.90576171875-2.41552734375,2.80419921875-4.2705078125,6.2978515625-4.2705078125,4.61572265625,0,7.2041015625,3.1923828125,7.2041015625,8.80029296875v14.23486328125h-5.521484375v-13.67431640625c0-3.19189453125-1.07861328125-4.8310546875-3.7099609375-4.8310546875-2.2861328125,0-4.486328125,1.20751953125-4.486328125,3.623046875v14.88232421875h-5.521484375Z"/></g></svg>