<?xml version="1.0" encoding="UTF-8"?><svg id="uuid-de129620-62fa-49e7-9450-aff3057b9e70" xmlns="http://www.w3.org/2000/svg" width="1023.115477134347202mm" height="250.000233591362104mm" xmlns:xlink="http://www.w3.org/1999/xlink" viewBox="0 0 2900.16990000000078 708.66209011461433"><defs><style>.uuid-56dcfa7c-2b0b-4dc4-9ff3-749c83872f63{fill:#00c2f3;}.uuid-8298f4b9-116a-4938-afc9-d3bcb738e6c3{fill:#fff;}.uuid-f9416064-9b6d-412f-a56e-08bb830b9190{fill:#ee212e;}.uuid-270edebf-5671-4fc9-a30b-fe569ffdcf72{fill:none;}.uuid-0b10be73-0050-4b28-be94-a485ca8b6268{clip-path:url(#uuid-a0ade1e8-aa17-47e6-bc4e-691775b85541);}.uuid-fef8a692-fd7e-4ed2-bb30-cd61bad90b9c{fill:#333e48;}.uuid-a11b2af9-838f-4095-8dd8-c96fd1c37fcc{fill:#46bc96;}</style><clipPath id="uuid-a0ade1e8-aa17-47e6-bc4e-691775b85541"><rect class="uuid-270edebf-5671-4fc9-a30b-fe569ffdcf72" width="2900.16990000000078" height="708.66209011461433"/></clipPath></defs><g class="uuid-0b10be73-0050-4b28-be94-a485ca8b6268"><path class="uuid-f9416064-9b6d-412f-a56e-08bb830b9190" d="M155.417999999999665,341.492190114614459c7.554700000000594,0,13.675699999999779,6.123000000000502,13.675699999999779,13.675799999999981-.000899999999092-.279299999999239-.010700000000725-.558599999999387-.010700000000725-.837899999999536,0-102.309600000000501,82.936500000001615-185.248094385985496,185.248000000001412-185.248094385985496,7.552799999999479,0,13.67489999999998-6.121099845368008,13.67489999999998-13.674799654545495,0-7.551705959469473-6.122100000000501-13.674799654545495-13.67489999999998-13.674799654545495-28.6875,0-56.534100000000763,5.624999857900548-82.76260000000002,16.718799577647587-25.318400000000111,10.708999729467905-48.050800000000891,26.033199342346052-67.565500000000611,45.548798849340528-19.51759999999922,19.517599506943952-34.843699999999444,42.249998932675226-45.551699999999983,67.568398293078644-11.093799999998737,26.228496975009875-16.718799999998737,54.073196975009523-16.718799999998737,82.761696975009727,0,.279300000000148.00879999999961.558600000000297.009799999999814.837899999999536,0-7.552799999999479,6.122999999999593-13.675799999999981,13.675799999999072-13.675799999999981Z"/><path class="uuid-a11b2af9-838f-4095-8dd8-c96fd1c37fcc" d="M340.656199999999444,553.253890114614478c0-7.552699999999277,6.122100000000501-13.675799999999981,13.674800000000687-13.675799999999981-102.031199999999444,0-184.785099999999147-82.486299999999574-185.237300000000687-184.410100000000057,0-7.552799999999479-6.120999999999185-13.675799999999981-13.675699999999779-13.675799999999981-7.552799999999479,0-13.675799999999072,6.123000000000502-13.675799999999072,13.675799999999981.109399999999368,28.392550000000483,5.723599999999351,55.951100000000224,16.708999999998923,81.923800000000483,10.708000000000538,25.318400000000111,26.034100000000763,48.052700000000186,45.551699999999983,67.567399999999907,19.514699999999721,19.518500000000131,42.247100000000501,34.842800000000352,67.565500000000611,45.551699999999983,26.228499999999258,11.093799999999646,54.07510000000002,16.718799999999646,82.76260000000002,16.718799999999646-7.552700000000186,0-13.674800000000687-6.123099999999795-13.674800000000687-13.675799999999981Z"/><path class="uuid-56dcfa7c-2b0b-4dc4-9ff3-749c83872f63" d="M502.528299999999945,487.40329011461472c-5.338900000000649-5.340799999999945-13.996100000000297-5.340799999999945-19.339799999999741,0-33.341800000000148,32.290100000000166-78.774400000000242,52.174799999999777-128.857500000000073,52.174799999999777-7.552700000000186,0-13.674800000000687,6.123100000000704-13.674800000000687,13.675799999999981,0,7.552700000000186,6.122100000000501,13.675799999999981,13.674800000000687,13.675799999999981,28.690499999998792,0,56.534200000000055-5.625,82.762699999999313-16.718799999999646,24.40730000000076-10.32129999999961,46.400400000000445-24.947199999999611,65.434600000000501-43.466800000000148,5.343800000000556-5.339799999999741,5.343800000000556-14,0-19.340799999999945Z"/><path class="uuid-56dcfa7c-2b0b-4dc4-9ff3-749c83872f63" d="M466.914099999999962,241.747993892931845c-30.069400000000314-30.072199240312329-70.053799999999683-46.630798822006909-112.583099999999831-46.630798822006909-42.526299999999537,0-82.510700000000725,16.55859958169458-112.582000000000335,46.630798822006909-30.070299999999406,30.072299240309803-46.63379999999961,70.054696221683116-46.63379999999961,112.582096221683059,0,42.529279999999744,16.563500000000204,82.509699999999611,46.63379999999961,112.582999999999629,30.07129999999961,30.07130000000052,70.055700000000797,46.63380000000052,112.582000000000335,46.63380000000052,42.529300000000148,0,82.513699999999517-16.5625,112.583099999999831-46.63380000000052,30.072200000000521-30.073300000000017,46.630800000000818-70.053719999999885,46.630800000000818-112.582999999999629,0-42.527399999999943-16.558600000000297-82.509796981373256-46.630800000000818-112.582096221683059Z"/><path class="uuid-fef8a692-fd7e-4ed2-bb30-cd61bad90b9c" d="M242.123999999999796,405.820290114615091v-102.977499999999964h22.333000000000538v7.612299999999777h-12.944300000001022v87.751929999999447h12.944300000001022v7.613270000000739h-22.333000000000538Z"/><path class="uuid-fef8a692-fd7e-4ed2-bb30-cd61bad90b9c" d="M466.540000000000873,302.842790114615127v102.977499999999964h-22.329100000000835v-7.613270000000739h12.938500000000204v-87.751929999999447h-12.938500000000204v-7.612299999999777h22.329100000000835Z"/><path class="uuid-8298f4b9-116a-4938-afc9-d3bcb738e6c3" d="M293.993200000000797,375.249990114614775c0,2.056599999999889.032199999999648,4.484400000000278.094699999999648,7.271480000000338.063499999998385,2.789069999999811.15139999999883,5.623049999999239.259799999999814,8.49609799999962.106399999998757,2.875001999999768.233299999999872,5.623051999999916.386699999999109,8.239262000000053.147399999999834,2.618159999999989.331000000000131,4.805659999999989.54490000000078,6.563460000000305h-13.192399999999907v-72.730500000000575c0-6.263599999999315-.106400000000576-11.936499999999796-.322299999999814-17.02139999999963-.213799999999537-5.08600000000024-.53610000000117-9.495200000000295-.965799999999945-13.225599999999758h13.194400000000314v72.407199999999648Z"/><path class="uuid-8298f4b9-116a-4938-afc9-d3bcb738e6c3" d="M351.597700000000259,340.170890114614849v8.433600000000297h-12.100599999999758v48.786129999999503h12.100599999999758v8.430669999999736h-36.04110000000037v-8.430669999999736h11.906300000000556v-48.786129999999503h-11.906300000000556v-8.433600000000297h36.04110000000037Z"/><path class="uuid-8298f4b9-116a-4938-afc9-d3bcb738e6c3" d="M378.630900000000111,340.170890114614849c.256799999999203.688500000000204.514600000000428,1.577099999999518.77139999999963,2.672800000000279.260800000000017,1.093799999999646.492200000000594,2.240299999999479.709000000000742,3.441499999999905.211899999998423,1.201099999999315.405299999998533,2.382799999999406.58009999999922,3.541000000000167l.511699999999109,2.892499999999927c4.121100000000297-4.888600000000224,8.258800000001429-8.417900000000373,12.421900000001187-10.58390000000054,4.163099999999758-2.16609999999946,8.5-3.25,13.002899999999499-3.25,3.432600000000093,0,6.468800000000556.567300000000614,9.106499999999869,1.704099999999926,2.639600000000428,1.139600000000428,4.861300000000483,2.941400000000613,6.663099999999758,5.406200000000354,1.799800000000687,2.468799999999646,3.162100000001374,5.666999999999462,4.086900000000242,9.590799999999945.922800000000279,3.927800000000389,1.383800000001429,8.655300000000352,1.383800000001429,14.194400000000314v28.958959999999934c0,7.252939999999398-.634800000001633,13.272439999999733-1.901400000000649,18.05373999999938-1.262700000001132,4.787100000000464-3.036099999999351,8.604500000000371-5.307600000000093,11.460900000000038-2.27350000000115,2.849600000000464-5.011700000000928,4.867200000000594-8.207099999999627,6.046900000000278-3.196200000000317,1.181599999999889-6.747000000001208,1.771499999999833-10.652299999999741,1.771499999999833-1.929700000000594,0-4-.3125-6.210900000001857-.933599999999387-2.208999999998923-.625-4.214899999999034-1.49120000000039-6.01759999999922-2.60740000000078l4.184600000000501-9.654299999999239c.986300000000483.729399999999259,2.305599999999686,1.339799999999741,3.957999999998719,1.835900000000038,1.651300000001356.49119999999948,3.336900000002061.738299999999981,5.049800000000687.738299999999981,2.0625,0,3.907200000001467-.332100000000537,5.539000000000669-.997100000000501,1.629899999999907-.664999999999964,3.012699999999313-1.832999999999629,4.149400000000242-3.506800000000112,1.137699999999313-1.673899999999776,2.006899999998495-3.96979999999985,2.608399999999165-6.886800000000221.599700000000666-2.918899999999667.899499999999534-6.630799999999908.899499999999534-11.134699999999611v-28.320300000000316c0-5.148499999999331-.26759999999922-9.322299999999814-.803799999999683-12.518599999999424-.536099999999351-3.19630000000052-1.343699999999444-5.686499999999796-2.415999999999258-7.465799999999945-1.070299999999406-1.781300000000556-2.412100000001374-2.970699999999852-4.023400000000038-3.574200000000019-1.606499999999869-.597700000000259-3.483400000000984-.900400000000445-5.629899999999907-.900400000000445-2.315400000001318,0-4.576200000001336.547800000000279-6.787099999999555,1.644500000000335-2.210000000000946,1.091800000000148-4.24120000000039,2.509799999999814-6.085900000001857,4.246099999999387-1.844799999998941,1.736300000000483-3.474599999999555,3.698300000000017-4.889699999999721,5.888700000000426-1.414999999999054,2.189400000000205-2.467799999998533,4.375-3.156199999999444,6.564400000000205v37.331099999999424h-11.905300000000352v-39.582999999999629c0-6.349599999999555-.365200000000186-11.724599999999555-1.095699999999852-16.123099999999795-.727600000000166-4.398400000000038-1.438500000000204-7.712900000000445-2.123999999999796-9.944300000000112h11.587900000000445Z"/><rect class="uuid-270edebf-5671-4fc9-a30b-fe569ffdcf72" x="2028.911126562499703" y="314.116201052114775" width="701.1923828125" height="88.8798828125"/><path class="uuid-fef8a692-fd7e-4ed2-bb30-cd61bad90b9c" d="M2070.272454687499703,332.114736208364775l-5.6005859375,6.47998046875c-3.919921875-3.19970703125-7.759765625-4.64013671875-12.240234375-4.64013671875-4.7998046875,0-8.080078125,2.080078125-8.080078125,6.00048828125,0,3.83984375,2.080078125,5.43994140625,11.1201171875,8.240234375,10,3.19970703125,16.400390625,7.35986328125,16.400390625,17.60009765625,0,10.16015625-8,17.28076171875-21.4404296875,17.28076171875-9.2001953125,0-15.919921875-3.2802734375-20.48046875-7.76025390625l6.080078125-6.64013671875c4,3.43994140625,8.400390625,5.52001953125,14.080078125,5.52001953125,5.6806640625,0,9.5205078125-2.72021484375,9.5205078125-7.60009765625,0-4.400390625-2.16015625-6.3203125-10.560546875-8.88037109375-12-3.76025390625-16.7998046875-8.56005859375-16.7998046875-16.96044921875,0-9.43994140625,8.16015625-15.60009765625,19.3603515625-15.60009765625,8.240234375,0,13.83984375,2.47998046875,18.640625,6.9599609375Z"/><path class="uuid-fef8a692-fd7e-4ed2-bb30-cd61bad90b9c" d="M2115.311517187499703,364.035634645864775h-26.48046875c.7998046875,8.16015625,4.6396484375,10.56005859375,10.080078125,10.56005859375,3.599609375,0,6.6396484375-1.1201171875,10.3203125-3.68017578125l4.7197265625,6.400390625c-4.16015625,3.35986328125-9.4404296875,5.76025390625-16.080078125,5.76025390625-13.6005859375,0-20.720703125-8.96044921875-20.720703125-22.24072265625,0-12.80029296875,6.8798828125-22.720703125,19.2802734375-22.720703125,12,0,19.12109375,8.00048828125,19.12109375,21.5205078125,0,1.43994140625-.16015625,3.2001953125-.240234375,4.400390625ZM2104.271478124999703,356.435536989614775c0-6.400390625-2.16015625-10.560546875-7.6005859375-10.560546875-4.48046875,0-7.2001953125,2.9599609375-7.83984375,11.04052734375h15.4404296875v-.47998046875Z"/><path class="uuid-fef8a692-fd7e-4ed2-bb30-cd61bad90b9c" d="M2153.390618749999703,343.234853395864775l-4.3203125,6.48046875c-3.4404296875-2.16015625-6.8798828125-3.3603515625-10.560546875-3.3603515625-3.759765625,0-5.83984375,1.52001953125-5.83984375,3.84033203125,0,2.47998046875,1.4404296875,3.60009765625,8.8798828125,5.759765625,8.48046875,2.3203125,13.2802734375,5.84033203125,13.2802734375,13.3603515625,0,8.80029296875-8.240234375,13.7607421875-18.3203125,13.7607421875-7.3603515625,0-13.2802734375-2.48046875-17.2802734375-6.16015625l5.6005859375-6.240234375c3.2001953125,2.47998046875,7.1201171875,4.16015625,11.3603515625,4.16015625,4.2392578125,0,6.9599609375-1.76025390625,6.9599609375-4.64013671875,0-3.2001953125-1.5205078125-4.240234375-9.3603515625-6.400390625-8.560546875-2.39990234375-12.560546875-6.64013671875-12.560546875-13.0400390625,0-7.2001953125,6.560546875-12.640625,16.80078125-12.640625,6.16015625,0,11.3603515625,1.92041015625,15.3603515625,5.1201171875Z"/><path class="uuid-fef8a692-fd7e-4ed2-bb30-cd61bad90b9c" d="M2191.709954687499703,343.234853395864775l-4.3203125,6.48046875c-3.4404296875-2.16015625-6.8798828125-3.3603515625-10.560546875-3.3603515625-3.759765625,0-5.83984375,1.52001953125-5.83984375,3.84033203125,0,2.47998046875,1.4404296875,3.60009765625,8.8798828125,5.759765625,8.48046875,2.3203125,13.2802734375,5.84033203125,13.2802734375,13.3603515625,0,8.80029296875-8.240234375,13.7607421875-18.3203125,13.7607421875-7.3603515625,0-13.2802734375-2.48046875-17.2802734375-6.16015625l5.6005859375-6.240234375c3.2001953125,2.47998046875,7.1201171875,4.16015625,11.3603515625,4.16015625,4.2392578125,0,6.9599609375-1.76025390625,6.9599609375-4.64013671875,0-3.2001953125-1.5205078125-4.240234375-9.3603515625-6.400390625-8.560546875-2.39990234375-12.560546875-6.64013671875-12.560546875-13.0400390625,0-7.2001953125,6.560546875-12.640625,16.80078125-12.640625,6.16015625,0,11.3603515625,1.92041015625,15.3603515625,5.1201171875Z"/><path class="uuid-fef8a692-fd7e-4ed2-bb30-cd61bad90b9c" d="M2213.148431249999703,324.194326052114775c0,3.76025390625-2.8798828125,6.640625-6.9599609375,6.640625s-6.8798828125-2.88037109375-6.8798828125-6.640625c0-3.759765625,2.7998046875-6.64013671875,6.8798828125-6.64013671875s6.9599609375,2.88037109375,6.9599609375,6.64013671875ZM2211.948235937499703,381.795888552114775h-11.359375v-42.40087890625h11.359375v42.40087890625Z"/><path class="uuid-fef8a692-fd7e-4ed2-bb30-cd61bad90b9c" d="M2261.228509374999703,360.595204958364775c0,13.4404296875-7.599609375,22.48095703125-20.3203125,22.48095703125-12.6396484375,0-20.3203125-8.400390625-20.3203125-22.48095703125,0-13.52001953125,7.6005859375-22.48046875,20.400390625-22.48046875,12.640625,0,20.240234375,8.400390625,20.240234375,22.48046875ZM2232.427728124999703,360.595204958364775c0,9.76025390625,2.880859375,14.00048828125,8.48046875,14.00048828125,5.6005859375,0,8.48046875-4.3203125,8.48046875-14.00048828125,0-9.76025390625-2.8798828125-14-8.400390625-14-5.6796875,0-8.560546875,4.31982421875-8.560546875,14Z"/><path class="uuid-fef8a692-fd7e-4ed2-bb30-cd61bad90b9c" d="M2305.388665624999703,350.915029177114775v30.880859375h-11.3603515625v-28.96044921875c0-4.88037109375-1.759765625-6.240234375-4.640625-6.240234375-3.279296875,0-5.83984375,2.16015625-8.16015625,5.919921875v29.28076171875h-11.359375v-42.40087890625h9.83984375l.8798828125,5.35986328125c3.4404296875-4.23974609375,7.6005859375-6.64013671875,12.9599609375-6.64013671875,7.4404296875,0,11.8408203125,4.80029296875,11.8408203125,12.80029296875Z"/><path class="uuid-fef8a692-fd7e-4ed2-bb30-cd61bad90b9c" d="M2369.466790624999703,340.995107302114775c0,8.7998046875-5.4404296875,16.3203125-23.041015625,32.00048828125h24.3203125l-1.2001953125,8.80029296875h-36.080078125v-8.240234375c19.1201171875-18.3203125,24.3203125-24.400390625,24.3203125-31.6005859375,0-4.88037109375-2.9599609375-8.00048828125-8-8.00048828125-4.400390625,0-7.2802734375,1.76025390625-10.560546875,5.68017578125l-7.0400390625-5.52001953125c4.400390625-5.68017578125,10.240234375-8.9599609375,18.720703125-8.9599609375,12.240234375,0,18.560546875,7.2001953125,18.560546875,15.84033203125Z"/><path class="uuid-fef8a692-fd7e-4ed2-bb30-cd61bad90b9c" d="M2416.746087499999703,354.035146364614775c0,18.88037109375-6.7998046875,29.041015625-19.4404296875,29.041015625s-19.4404296875-10.16064453125-19.4404296875-29.041015625,6.7998046875-28.88037109375,19.4404296875-28.88037109375,19.4404296875,10,19.4404296875,28.88037109375ZM2389.545892187499703,354.035146364614775c0,15.5205078125,2.4794921875,20.48046875,7.759765625,20.48046875,5.2001953125,0,7.7607421875-4.72021484375,7.7607421875-20.48046875s-2.560546875-20.400390625-7.7607421875-20.400390625c-5.2802734375,0-7.759765625,4.9599609375-7.759765625,20.400390625Z"/><path class="uuid-fef8a692-fd7e-4ed2-bb30-cd61bad90b9c" d="M2459.066399999999703,340.995107302114775c0,8.7998046875-5.4404296875,16.3203125-23.041015625,32.00048828125h24.3203125l-1.2001953125,8.80029296875h-36.080078125v-8.240234375c19.1201171875-18.3203125,24.3203125-24.400390625,24.3203125-31.6005859375,0-4.88037109375-2.9599609375-8.00048828125-8-8.00048828125-4.400390625,0-7.2802734375,1.76025390625-10.560546875,5.68017578125l-7.0400390625-5.52001953125c4.400390625-5.68017578125,10.240234375-8.9599609375,18.720703125-8.9599609375,12.240234375,0,18.560546875,7.2001953125,18.560546875,15.84033203125Z"/><path class="uuid-fef8a692-fd7e-4ed2-bb30-cd61bad90b9c" d="M2506.345696874999703,354.035146364614775c0,18.88037109375-6.7998046875,29.041015625-19.4404296875,29.041015625s-19.4404296875-10.16064453125-19.4404296875-29.041015625,6.7998046875-28.88037109375,19.4404296875-28.88037109375,19.4404296875,10,19.4404296875,28.88037109375ZM2479.145501562499703,354.035146364614775c0,15.5205078125,2.4794921875,20.48046875,7.759765625,20.48046875,5.2001953125,0,7.7607421875-4.72021484375,7.7607421875-20.48046875s-2.560546875-20.400390625-7.7607421875-20.400390625c-5.2802734375,0-7.759765625,4.9599609375-7.759765625,20.400390625Z"/><path class="uuid-fef8a692-fd7e-4ed2-bb30-cd61bad90b9c" d="M2511.224603124999703,352.275380739614775h37.7607421875v8.9599609375h-37.7607421875v-8.9599609375Z"/><path class="uuid-fef8a692-fd7e-4ed2-bb30-cd61bad90b9c" d="M2590.265618749999703,340.995107302114775c0,8.7998046875-5.4404296875,16.3203125-23.041015625,32.00048828125h24.3203125l-1.2001953125,8.80029296875h-36.080078125v-8.240234375c19.1201171875-18.3203125,24.3203125-24.400390625,24.3203125-31.6005859375,0-4.88037109375-2.9599609375-8.00048828125-8-8.00048828125-4.400390625,0-7.2802734375,1.76025390625-10.560546875,5.68017578125l-7.0400390625-5.52001953125c4.400390625-5.68017578125,10.240234375-8.9599609375,18.720703125-8.9599609375,12.240234375,0,18.560546875,7.2001953125,18.560546875,15.84033203125Z"/><path class="uuid-fef8a692-fd7e-4ed2-bb30-cd61bad90b9c" d="M2637.544915624999703,354.035146364614775c0,18.88037109375-6.7998046875,29.041015625-19.4404296875,29.041015625s-19.4404296875-10.16064453125-19.4404296875-29.041015625,6.7998046875-28.88037109375,19.4404296875-28.88037109375,19.4404296875,10,19.4404296875,28.88037109375ZM2610.344720312499703,354.035146364614775c0,15.5205078125,2.4794921875,20.48046875,7.759765625,20.48046875,5.2001953125,0,7.7607421875-4.72021484375,7.7607421875-20.48046875s-2.560546875-20.400390625-7.7607421875-20.400390625c-5.2802734375,0-7.759765625,4.9599609375-7.759765625,20.400390625Z"/><path class="uuid-fef8a692-fd7e-4ed2-bb30-cd61bad90b9c" d="M2679.865228124999703,340.995107302114775c0,8.7998046875-5.4404296875,16.3203125-23.041015625,32.00048828125h24.3203125l-1.2001953125,8.80029296875h-36.080078125v-8.240234375c19.1201171875-18.3203125,24.3203125-24.400390625,24.3203125-31.6005859375,0-4.88037109375-2.9599609375-8.00048828125-8-8.00048828125-4.400390625,0-7.2802734375,1.76025390625-10.560546875,5.68017578125l-7.0400390625-5.52001953125c4.400390625-5.68017578125,10.240234375-8.9599609375,18.720703125-8.9599609375,12.240234375,0,18.560546875,7.2001953125,18.560546875,15.84033203125Z"/><path class="uuid-fef8a692-fd7e-4ed2-bb30-cd61bad90b9c" d="M2727.464837499999703,373.075673708364775v8.72021484375h-34.80078125v-8.72021484375h12.9599609375v-35.36083984375l-11.83984375,7.1201171875-4.880859375-7.60009765625,17.8408203125-10.80029296875h10v46.64111328125h10.720703125Z"/><rect class="uuid-fef8a692-fd7e-4ed2-bb30-cd61bad90b9c" x="1916.950199999999313" y="242.89449011461511" width="3" height="228.445299999999406"/><path class="uuid-fef8a692-fd7e-4ed2-bb30-cd61bad90b9c" d="M628.019312126509249,336.833894181705546v-100.47110000000248h12.090799694560701v89.819300000002841h42.75099892002072v10.651799999999639h-54.841798614581421Z"/><path class="uuid-fef8a692-fd7e-4ed2-bb30-cd61bad90b9c" d="M704.739010188410248,245.142994181704125c-2.497099936919767,0-4.295899891480076-.597600000000966-5.397474781570054-1.798800000000483-1.104425054179956-1.199199999999109-1.656225040240315-2.756799999999203-1.656225040240315-4.678700000001299v-1.871099999999387c0-1.918499999999767.55179998606036-3.477499999997235,1.656225040240315-4.678199999998469,1.101574890089978-1.198800000001938,2.900374844650287-1.799299999998766,5.397474781570054-1.799299999998766,2.494125218439876,0,4.294025218428942.600499999996828,5.397525218430019,1.799299999998766,1.102500000009968,1.200700000001234,1.655200000008335,2.759699999998702,1.655200000008335,4.678199999998469v1.871099999999387c0,1.921900000002097-.552699999998367,3.47950000000219-1.655200000008335,4.678700000001299-1.103500000001077,1.201199999999517-2.903399999990143,1.798800000000483-5.397525218430019,1.798800000000483ZM698.981210333859053,262.56099418170561h11.515625072981493v74.272899999999936h-11.515625072981493v-74.272899999999936Z"/><path class="uuid-fef8a692-fd7e-4ed2-bb30-cd61bad90b9c" d="M734.966535406840194,336.833894181705546v-74.272899999999936h11.515699999999924v11.953099999998813h.576100000000224c1.82129999999961-4.17870000000039,4.389699999999721-7.505799999998999,7.700199999999313-9.974600000001374,3.311600000000908-2.469699999997829,7.748100000000704-3.706500000000233,13.314500000000407-3.706500000000233,7.676800000010189,0,13.747100000000501,2.471199999999953,18.208999999998923,7.412599999999657,4.461900000011155,4.943300000002637,6.693300000000818,11.925700000003417,6.693300000000818,20.94380000000092v47.644500000002154h-11.514600000000428v-45.728500000001077c0-13.368600000001607-5.615200000000186-20.052700000001096-16.841799999989234-20.052700000001096-2.302700000000186,0-4.535200000011173.290500000000065-6.693400000000111.865699999999379-2.159100000009857.578100000002451-4.102500000009968,1.443900000002031-5.830000000010841,2.597700000002078-1.726599999989048,1.153800000000047-3.094799999998941,2.620100000000093-4.101599999989048,4.399399999997513-1.00780000001032,1.778800000001866-1.511700000010023,3.871100000001206-1.511700000010023,6.274900000001253v51.64350000000195h-11.515699999999924Z"/><path class="uuid-fef8a692-fd7e-4ed2-bb30-cd61bad90b9c" d="M875.741035406839728,334.387194181705127c0,10.266599999999016-2.878899999999703,18.328099999998813-8.636799999991126,24.181599999999889-5.757800000008501,5.852999999999156-13.868100000008781,8.781299999998737-24.326100000009319,8.781299999998737-6.045899999999165,0-11.253000000000611-.940500000000611-15.618199999998978-2.818400000000111-4.367200000000594-1.882300000001123-7.988299999989977-4.363300000000891-10.867200000000594-7.447299999999814l6.765600000000632-7.952099999998609c2.494200000008277,2.568299999998999,5.373100000009799,4.54490000000078,8.636800000000221,5.926299999999173,3.260699999998906,1.380799999998999,7.052700000000186,2.070800000001327,11.371100000009392,2.070800000001327,6.715799999989031,0,11.921800000000076-1.855500000001484,15.617099999990387-5.563500000000204,3.693400000000111-3.713900000002468,5.541999999999462-9.183600000000297,5.541999999999462-16.411600000003091v-10.273999999997613h-.575200000001132c-2.208899999988716,4.561099999998987-5.08779999998842,7.979499999997643-8.636699999999109,10.259799999999814-3.551699999999983,2.281200000001263-7.916999999999462,3.421399999999267-13.099599999999555,3.421399999999267-4.605499999999665,0-8.779300000000148-.91359999999986-12.522399999999834-2.73489999999947-3.742200000000594-1.822199999998702-6.909200000000055-4.413100000001577-9.5-7.772400000001653-2.590899999990143-3.358399999997346-4.606499999999869-7.435599999997066-6.045900000000984-12.235399999997753-1.439500000000407-4.79739999999947-2.158199999988938-10.170900000000984-2.158199999988938-16.122100000000501,0-5.948199999998906.71869999998853-11.321700000000419,2.158199999988938-16.121100000000297,1.439400000001115-4.797299999998359,3.455000000010841-8.875400000000809,6.045900000000984-12.235300000000279,2.590799999999945-3.357899999999063,5.757799999999406-5.948700000000827,9.5-7.772499999999127,3.743099999999686-1.82220000000234,7.916900000000169-2.734800000001997,12.522399999999834-2.734800000001997,5.182600000000093,0,9.619199999999182,1.117600000001403,13.315400000008594,3.34860000000117,3.692400000001726,2.233400000000984,6.499099999989994,5.676800000001094,8.42089999999007,10.332500000000437h.575200000001132v-11.953099999998813h11.515699999999924v71.826199999999517ZM845.368935406850142,328.341294181704143c2.591799999989234,0,5.038099999988845-.337400000000343,7.341799999989234-1.01220000000103,2.302700000000186-.674800000000687,4.293000000010579-1.664600000000064,5.972600000000966-2.966300000000047,1.677799999999479-1.299899999998161,3.023499999999331-2.89259999999922,4.031299999998737-4.772499999999127,1.006800000001022-1.88039999999819,1.510700000000725-4.075199999999313,1.510700000000725-6.582999999998719v-27.632300000001123c0-2.024000000001251-.481399999989662-3.929199999998673-1.439400000001115-5.715400000000955-.959999999999127-1.783199999998033-2.303699999998571-3.301199999998062-4.030299999998533-4.556099999997969-1.727500000000873-1.252500000002328-3.742200000000594-2.240700000002107-6.04490000000078-2.964400000000751-2.30370000000039-.724099999999453-4.75-1.086400000001049-7.341799999989234-1.086400000001049-6.527400000009948,0-11.709000000009837,2.073199999999815-15.544900000009875,6.221200000000863-3.839899999989939,4.147400000001653-5.757799999990311,9.499500000001717-5.757799999990311,16.058099999998376v12.730000000003201c0,6.558599999996659,1.917900000000373,11.911099999997532,5.757799999990311,16.058599999996659,3.835900000000038,4.14690000000337,9.017499999999927,6.220700000001671,15.544900000009875,6.220700000001671Z"/><path class="uuid-fef8a692-fd7e-4ed2-bb30-cd61bad90b9c" d="M945.982235406840118,324.880294181704812h-.576200000001336c-.768599999999424,1.711499999997613-1.704099999999016,3.398499999999331-2.806599999999889,5.060600000000704-1.103599999998551,1.662099999997736-2.470699999988938,3.134699999998702-4.101599999998143,4.41649999999936-1.63279999999213,1.282199999997829-3.59860000000117,2.30370000000039-5.90230000000156,3.063900000001013-2.302799999999479.759799999999814-4.990299999999479,1.140199999998003-8.060599999998885,1.140199999998003-7.677700000000186,0-13.771500000000742-2.469700000001467-18.280300000000352-7.41359999999986-4.511699999990014-4.94090000000142-6.765599999989718-11.921900000001187-6.765599999989718-20.94289999999819v-47.644000000000233h11.515599999989718v45.727499999997235c0,13.368700000002718,5.661199999998644,20.052800000001298,16.985400000008667,20.052800000001298,2.302699999991091,0,4.53419999999096-.287100000001374,6.693299999991723-.86620000000039,2.159199999998236-.575199999999313,4.077199999999721-1.440500000000611,5.757900000009613-2.594799999998941,1.677700000000186-1.154300000001967,3.02239999998892-2.620100000000093,4.029299999989234-4.399400000002061,1.007799999999406-1.778299999998126,1.511700000000928-3.919899999997142,1.511700000000928-6.421399999999267v-51.498499999997875h11.515600000000632v74.272899999999936h-11.515600000000632v-11.953600000000733Z"/><path class="uuid-fef8a692-fd7e-4ed2-bb30-cd61bad90b9c" d="M987.724435406838893,245.142994181704125c-2.496100000000297,0-4.294999999998254-.597600000000966-5.397499999999127-1.798800000000483-1.104499999999462-1.199199999999109-1.655299999989438-2.756799999999203-1.655299999989438-4.678700000001299v-1.871099999999387c0-1.918499999999767.550799999989977-3.477499999997235,1.655299999989438-4.678199999998469,1.102500000000873-1.198800000001938,2.90139999999883-1.799299999998766,5.397499999999127-1.799299999998766,2.494099999999889,0,4.293900000000576.600499999996828,5.398400000001857,1.799299999998766,1.101599999998143,1.200700000001234,1.654299999998329,2.759699999998702,1.654299999998329,4.678199999998469v1.871099999999387c0,1.921900000002097-.552700000000186,3.47950000000219-1.654299999998329,4.678700000001299-1.104500000001281,1.201199999999517-2.904300000001967,1.798800000000483-5.398400000001857,1.798800000000483ZM981.966535406840194,262.56099418170561h11.515699999999924v74.272899999999936h-11.515699999999924v-74.272899999999936Z"/><path class="uuid-fef8a692-fd7e-4ed2-bb30-cd61bad90b9c" d="M1040.263435406839562,338.561494181703893c-6.90919999999096,0-12.691399999999703-1.319800000001123-17.344699999999648-3.95850000000064-4.655300000000352-2.638199999997596-8.661099999999351-6.165099999998347-12.019500000000335-10.58009999999922l8.204099999999016-6.621100000000297c2.878900000001522,3.648000000001048,6.093700000001263,6.45509999999922,9.644500000002154,8.41990000000078,3.548800000009578,1.968799999998737,7.676799999999275,2.951700000001438,12.378899999999703,2.951700000001438,4.894499999998516,0,8.708999999998923-1.055200000002515,11.443400000000111-3.166500000002998,2.735300000009374-2.10989999999947,4.102500000008149-5.085899999998219,4.102500000008149-8.924799999997049,0-2.878900000003341-.935500000008687-5.348200000000361-2.806600000008984-7.413100000001577-1.872099999989587-2.0625-5.253899999999703-3.476600000001781-10.147500000000946-4.246100000000297l-5.902299999988827-.863799999999173c-3.455100000010134-.47899999999936-6.621100000009392-1.223099999999249-9.5-2.230900000002293-2.878899999999703-1.007799999999406-5.397500000010041-2.350599999997939-7.556700000010096-4.030299999998533-2.159200000000055-1.677700000000186-3.839799999999741-3.76510000000053-5.038099999999758-6.261699999999109-1.201100000000224-2.494099999999889-1.799799999989773-5.469700000001467-1.799799999989773-8.923800000000483,0-3.646499999998923.669899999989866-6.837400000000343,2.015699999999924-9.572800000001735,1.342699999988326-2.73489999999947,3.189399999990201-5.012199999996483,5.54189999999835-6.836899999999332,2.350599999990663-1.821800000000621,5.157299999991665-3.189900000000307,8.419999999990978-4.102099999999155,3.261699999999109-.91110000000117,6.765600000000632-1.367600000001403,10.50879999999961-1.367600000001403,6.04490000000078,0,11.105400000000373,1.05710000000181,15.185499999999593,3.166500000002998,4.077100000011342,2.112299999997049,7.651400000011563,5.038099999997939,10.72360000000117,8.780199999997421l-7.6297999999897,6.909200000001874c-1.632900000009613-2.302700000000186-4.029300000011062-4.39010000000053-7.196300000010524-6.260700000002544-3.166999999999462-1.87159999999858-7.149499999999534-2.807600000000093-11.947299999999814-2.807600000000093-4.799799999989773,0-8.420899999999165,1.032200000001467-10.868199999989884,3.095200000003388-2.446300000001429,2.063899999997375-3.669900000009875,4.87159999999858-3.669900000009875,8.420399999999063,0,3.648399999998219,1.223600000008446,6.286099999997532,3.669900000009875,7.91649999999845,2.447299999990719,1.633300000002237,5.974599999988641,2.831500000001142,10.580099999990125,3.599100000000362l5.757799999999406.863300000000891c8.252000000000407,1.247999999999593,14.106500000010783,3.623499999997875,17.560600000000704,7.125,3.454999999999927,3.504899999999907,5.182600000000093,8.085399999999936,5.182600000000093,13.746100000000297,0,7.197299999999814-2.447299999999814,12.860799999998562-7.340800000001764,16.985799999998562-4.894599999999627,4.127500000002328-11.613299999989977,6.189500000000407-20.152399999999034,6.189500000000407Z"/><path class="uuid-fef8a692-fd7e-4ed2-bb30-cd61bad90b9c" d="M1103.454835406839265,336.833894181705546c-4.029299999989234,0-7.077099999998609-1.124500000001717-9.139599999998609-3.373500000001513-2.064500000000407-2.248999999999796-3.094700000001467-5.195299999999406-3.094700000001467-8.834500000000844v-51.846199999999953h-12.235399999990477v-10.218699999997625h6.90919999999096c2.494099999999889,0,4.197200000000521-.504899999999907,5.110300000000279-1.512700000002951.911199999998644-1.006799999999203,1.367200000000594-2.756799999999203,1.367200000000594-5.252899999999499v-13.819400000000314h10.364299999999275v20.585000000002765h16.265600000000632v10.218699999997625h-16.265600000000632v53.835000000002765h15.113299999999072v10.219199999999546h-14.394599999999627Z"/><path class="uuid-fef8a692-fd7e-4ed2-bb30-cd61bad90b9c" d="M1143.326935406839766,245.142994181704125c-2.496100000000297,0-4.295900000000984-.597600000000966-5.397499999999127-1.798800000000483-1.104500000001281-1.199199999999109-1.655200000001059-2.756799999999203-1.655200000001059-4.678700000001299v-1.871099999999387c0-1.918499999999767.550699999999779-3.477499999997235,1.655200000001059-4.678199999998469,1.101599999998143-1.198800000001938,2.90139999999883-1.799299999998766,5.397499999999127-1.799299999998766,2.495100000000093,0,4.293900000000576.600499999996828,5.397499999999127,1.799299999998766,1.102500000000873,1.200700000001234,1.656200000001263,2.759699999998702,1.656200000001263,4.678199999998469v1.871099999999387c0,1.921900000002097-.55370000000039,3.47950000000219-1.656200000001263,4.678700000001299-1.103599999998551,1.201199999999517-2.902399999999034,1.798800000000483-5.397499999999127,1.798800000000483ZM1137.56913540684036,262.56099418170561h11.515599999998813v74.272899999999936h-11.515599999998813v-74.272899999999936Z"/><path class="uuid-fef8a692-fd7e-4ed2-bb30-cd61bad90b9c" d="M1201.191235406849955,338.561494181703893c-5.181700000010096,0-9.837000000001353-.91359999999986-13.962000000001353-2.73489999999947-4.12690000001021-1.822199999998702-7.606400000007852-4.413100000001577-10.435500000008687-7.772400000001653-2.832000000000335-3.358399999997346-4.991199999991295-7.435599999997066-6.477499999989959-12.235399999997753-1.488300000009986-4.79739999999947-2.230500000010579-10.170900000000984-2.230500000010579-16.122100000000501,0-5.948199999998906.742200000000594-11.321700000000419,2.230500000010579-16.121100000000297,1.486299999998664-4.797299999998359,3.645499999989624-8.875400000000809,6.477499999989959-12.235300000000279,2.829100000000835-3.357899999999063,6.308599999998478-5.948700000000827,10.435500000008687-7.772499999999127,4.125-1.82220000000234,8.780299999991257-2.734800000001997,13.962000000001353-2.734800000001997,7.38859999998931,0,13.315399999990404,1.607900000002701,17.777299999988827,4.821700000000419,4.461900000011155,3.216400000001158,7.79490000000078,7.413100000001577,10.003899999999703,12.594800000002579l-9.644499999998516,4.894499999998516c-1.343799999991461-3.837400000000343-3.550800000000891-6.813000000001921-6.621100000000297-8.924800000000687-3.072299999999814-2.109400000001187-6.90919999999096-3.166500000000269-11.515599999989718-3.166500000000269-3.45410000000993,0-6.476600000010876.553199999999379-9.068400000009206,1.655299999999443-2.58980000000156,1.104000000002998-4.75,2.64010000000053-6.476600000001781,4.606400000000576-1.727499999999054,1.96730000000025-3.023399999998219,4.318400000000111-3.886699999999109,7.052700000000186-.863300000000891,2.73489999999947-1.295900000000984,5.735899999998765-1.295900000000984,8.995699999999488v12.666900000000169c0,6.527900000000955,1.75,11.876000000000204,5.254899999999907,16.050300000002608,3.501000000000204,4.174399999999878,8.658200000001671,6.2612999999983,15.472700000011173,6.2612999999983,9.306599999990794,0,16.02529999998842-4.318400000000111,20.152299999988827-12.95509999999922l8.34860000000117,5.614199999999983c-2.399400000000242,5.375499999998283-5.97360000000117,9.644599999999627-10.72360000000117,12.811099999998987s-10.675799999999072,4.75-17.777299999988827,4.75Z"/><path class="uuid-fef8a692-fd7e-4ed2-bb30-cd61bad90b9c" d="M1268.267335406839265,338.561494181703893c-6.909199999989141,0-12.691399999999703-1.319800000001123-17.344699999990553-3.95850000000064-4.655300000009447-2.638199999997596-8.661100000008446-6.165099999998347-12.01950000000943-10.58009999999922l8.204100000000835-6.621100000000297c2.878899999999703,3.648000000001048,6.093699999999444,6.45509999999922,9.644500000000335,8.41990000000078,3.548800000009578,1.968799999998737,7.675800000008167,2.951700000001438,12.378899999999703,2.951700000001438,4.894499999998516,0,8.708999999998923-1.055200000002515,11.443400000000111-3.166500000002998,2.735300000000279-2.10989999999947,4.102500000008149-5.085899999998219,4.102500000008149-8.924799999997049,0-2.878900000003341-.935500000008687-5.348200000000361-2.806599999999889-7.413100000001577-1.872100000007777-2.0625-5.253900000008798-3.476600000001781-10.147500000010041-4.246100000000297l-5.902299999997922-.863799999999173c-3.455099999991944-.47899999999936-6.621100000000297-1.223099999999249-9.5-2.230900000002293-2.878899999990608-1.007799999999406-5.397499999991851-2.350599999997939-7.556700000001001-4.030299999998533-2.15919999999096-1.677700000000186-3.839799999999741-3.76510000000053-5.038099999999758-6.261699999999109-1.201100000000224-2.494099999999889-1.799799999989773-5.469700000001467-1.799799999989773-8.923800000000483,0-3.646499999998923.669999999989159-6.837400000000343,2.015699999999924-9.572800000001735,1.342699999990145-2.73489999999947,3.189399999990201-5.012199999996483,5.541900000000169-6.836899999999332,2.350599999988845-1.821800000000621,5.157299999989846-3.189900000000307,8.419999999989159-4.102099999999155,3.260700000000725-.91110000000117,6.765600000000632-1.367600000001403,10.50879999999961-1.367600000001403,6.04490000000078,0,11.105400000000373,1.05710000000181,15.185499999999593,3.166500000002998,4.07720000000154,2.112299999997049,7.651400000011563,5.038099999997939,10.72360000000117,8.780199999997421l-7.6297999999897,6.909200000001874c-1.632900000009613-2.302700000000186-4.029300000011062-4.39010000000053-7.197299999999814-6.260700000002544-3.166000000010172-1.87159999999858-7.148400000010952-2.807600000000093-11.946300000001429-2.807600000000093-4.799800000007963,0-8.42090000000826,1.032200000001467-10.868200000008073,3.095200000003388-2.446299999990515,2.063899999997375-3.66990000000078,4.87159999999858-3.66990000000078,8.420399999999063,0,3.648399999998219,1.223600000010265,6.286099999997532,3.66990000000078,7.91649999999845,2.447299999999814,1.633300000002237,5.974599999997736,2.831500000001142,10.58009999999922,3.599100000000362l5.757799999999406.863300000000891c8.252000000000407,1.247999999999593,14.106500000010783,3.623499999997875,17.560600000000704,7.125,3.45509999999922,3.504899999999907,5.181599999999889,8.085399999999936,5.181599999999889,13.746100000000297,0,7.197299999999814-2.44629999999961,12.860799999998562-7.339799999999741,16.985799999998562-4.894600000001446,4.127500000002328-11.613299999989977,6.189500000000407-20.152400000000853,6.189500000000407Z"/><path class="uuid-fef8a692-fd7e-4ed2-bb30-cd61bad90b9c" d="M1379.389435406839766,338.561494181703893c-8.157199999999648,0-15.114300000001094-1.561099999998987-20.872100000000501-4.678199999998469-5.757799999999406-3.117200000000594-10.651299999999537-7.413100000001577-14.681599999999889-12.882900000000518l8.923800000000483-7.485300000000279c3.549800000000687,4.703099999998813,7.485400000008667,8.276900000000751,11.80370000000039,10.72360000000117,4.318400000000111,2.447299999999814,9.403299999998126,3.670899999997346,15.257799999999406,3.670899999997346,7.197299999999814,0,12.689500000000407-1.727499999997235,16.481500000008964-5.181599999999889,3.788999999989755-3.45509999999922,5.685500000001412-8.061499999999796,5.685500000001412-13.818899999998393,0-4.796800000000076-1.43940000001021-8.492099999999482-4.318300000009913-11.082500000000437-2.878900000001522-2.591800000001967-7.628900000001522-4.654300000001967-14.25-6.190399999999499l-8.205100000001039-1.871100000000297c-9.211899999998423-2.110400000001391-16.242200000000594-5.301299999999173-21.086899999998423-9.57129999999961-4.846700000001874-4.269500000002154-7.269599999990533-10.293000000001484-7.269599999990533-18.06590000000142,0-4.412599999999657.814499999998588-8.348200000000361,2.447299999999814-11.802700000000186,1.630900000000111-3.454600000000937,3.909199999989141-6.33350000000064,6.836899999989328-8.6362999999983,2.925800000000891-2.30370000000039,6.427800000001298-4.05370000000039,10.507799999999406-5.253899999999703,4.078199999999924-1.199200000002747,8.564500000000407-1.799800000000687,13.459000000009837-1.799800000000687,7.57909999999174,0,14.081099999992148,1.39259999999922,19.503900000001522,4.174800000000687,5.419999999989159,2.784199999998236,10.003899999990608,6.861300000000483,13.746099999998478,12.235399999997753l-9.068300000009913,6.620600000002014c-2.784199999998236-3.837400000000343-6.14259999999922-6.85989999999947-10.075199999999313-9.068400000000111-3.936600000000908-2.206500000000233-8.83009999999922-3.310499999999593-14.682600000000093-3.310499999999593-6.429700000000594,0-11.492200000000594,1.367199999996956-15.185600000000704,4.101999999998952-3.695299999999406,2.735400000001391-5.541999999988548,6.837899999998626-5.541999999988548,12.307199999999284,0,4.800200000001496,1.558599999998478,8.420799999999872,4.678699999998571,10.867600000001403,3.117199999991499,2.446799999997893,7.843799999991461,4.390699999999924,14.177799999990384,5.83009999999922l8.205000000001746,1.871100000000297c9.882900000007794,2.208499999999731,17.032299999998941,5.566399999999703,21.447299999999814,10.075700000001234,4.412099999999555,4.511199999997189,6.621100000000297,10.507799999999406,6.621100000000297,17.992699999998877,0,4.606400000000576-.791000000001077,8.780200000001059-2.375,12.523399999998219-1.584000000000742,3.742200000000594-3.864300000001094,6.909200000001874-6.836900000002061,9.5-2.975599999997939,2.590800000001764-6.598599999990256,4.606400000000576-10.868199999998978,6.045400000002701-4.270500000000538,1.439499999996769-9.092800000000352,2.159199999998236-14.465799999999945,2.159199999998236Z"/><path class="uuid-fef8a692-fd7e-4ed2-bb30-cd61bad90b9c" d="M1461.723435406838689,338.561494181703893c-4.991199999998571,0-9.549799999998868-.91359999999986-13.674799999998868-2.73489999999947-4.126999999991313-1.822199999998702-7.654300000000148-4.438000000001921-10.580100000001039-7.84519999999975-2.927700000000186-3.40480000000025-5.206099999999424-7.484400000001187-6.836899999998423-12.23489999999947-1.632799999990311-4.75-2.44629999999961-10.09860000000117-2.44629999999961-16.049800000000687,0-5.851500000000669.813500000009299-11.177700000000186,2.44629999999961-15.977500000000873,1.630799999998999-4.796900000001187,3.909199999998236-8.899399999998423,6.836899999998423-12.306599999999889,2.925800000000891-3.405299999998533,6.453100000009727-6.02100000000064,10.580100000001039-7.844799999998941,4.125-1.82220000000234,8.683600000000297-2.734800000001997,13.674799999998868-2.734800000001997,4.988300000000891,0,9.522400000001653.912599999999657,13.602500000000873,2.734800000001997,4.077199999999721,1.8237999999983,7.603500000001077,4.439500000000407,10.579099999999016,7.844799999998941,2.973700000011377,3.407200000001467,5.276400000011563,7.509699999998702,6.909200000001874,12.306599999999889,1.630900000000111,4.799800000000687,2.447299999999814,10.126000000000204,2.447299999999814,15.977500000000873,0,5.951199999999517-.816399999999703,11.299800000000687-2.447299999999814,16.049800000000687-1.632799999990311,4.750499999998283-3.935499999990498,8.83009999999922-6.909200000001874,12.23489999999947-2.975599999997939,3.407199999997829-6.501899999999296,6.023000000001048-10.579099999999016,7.84519999999975-4.08009999999922,1.82129999999961-8.614199999999983,2.73489999999947-13.602500000000873,2.73489999999947ZM1461.723435406838689,328.341294181704143c6.236300000000483,0,11.321300000001429-1.918000000001484,15.257800000001225-5.757799999999406,3.933599999998478-3.836500000001251,5.901400000000649-9.690500000000611,5.901400000000649-17.560600000000704v-10.651799999999639c0-7.867200000000594-1.967800000002171-13.721700000001874-5.901400000000649-17.561099999998987-3.936499999999796-3.836400000001049-9.021500000000742-5.757300000002033-15.257800000001225-5.757300000002033-6.23929999999018,0-11.324199999999109,1.920900000000984-15.257799999999406,5.757300000002033-3.936600000000908,3.839399999997113-5.90139999999883,9.693899999998393-5.90139999999883,17.561099999998987v10.651799999999639c0,7.870100000000093,1.964799999997922,13.724099999999453,5.90139999999883,17.560600000000704,3.933600000000297,3.839799999997922,9.018500000009226,5.757799999999406,15.257799999999406,5.757799999999406Z"/><path class="uuid-fef8a692-fd7e-4ed2-bb30-cd61bad90b9c" d="M1541.898235406839376,338.561494181703893c-5.181700000001001,0-9.836899999989328-.91359999999986-13.961899999989328-2.73489999999947-4.127000000009502-1.822199999998702-7.606500000010783-4.413100000001577-10.436500000001615-7.772400000001653-2.831100000008519-3.358399999997346-4.990300000008574-7.435599999997066-6.476600000009057-12.235399999997753-1.489299999999275-4.79739999999947-2.231499999990774-10.170900000000984-2.231499999990774-16.122100000000501,0-5.948199999998906.742199999991499-11.321700000000419,2.231499999990774-16.121100000000297,1.486300000000483-4.797299999998359,3.645500000000538-8.875400000000809,6.476600000009057-12.235300000000279,2.829999999990832-3.357899999999063,6.309499999992113-5.948700000000827,10.436500000001615-7.772499999999127,4.125-1.82220000000234,8.780199999988326-2.734800000001997,13.961899999989328-2.734800000001997,7.388699999999517,0,13.314399999999296,1.607900000002701,17.777300000010655,4.821700000000419,4.461899999989328,3.216400000001158,7.794999999989159,7.413100000001577,10.003899999990608,12.594800000002579l-9.644500000002154,4.894499999998516c-1.344699999997829-3.837400000000343-3.550799999989977-6.813000000001921-6.621099999998478-8.924800000000687-3.072300000001633-2.109400000001187-6.909200000000055-3.166500000000269-11.515600000000632-3.166500000000269-3.45509999999922,0-6.476599999990867.553199999999379-9.068400000000111,1.655299999999443-2.59079999999085,1.104000000002998-4.75,2.64010000000053-6.476500000000669,4.606400000000576-1.727599999998347,1.96730000000025-3.023499999999331,4.318400000000111-3.886800000000221,7.052700000000186-.863199999999779,2.73489999999947-1.295899999988251,5.735899999998765-1.295899999988251,8.995699999999488v12.666900000000169c0,6.527900000000955,1.75,11.876000000000204,5.253999999989901,16.050300000002608,3.501900000008391,4.174399999999878,8.659099999998944,6.2612999999983,15.473599999999351,6.2612999999983,9.306599999999889,0,16.025400000000445-4.318400000000111,20.152300000010655-12.95509999999922l8.348699999989549,5.614199999999983c-2.399399999991147,5.375499999998283-5.973699999989549,9.644599999999627-10.723699999989549,12.811099999998987s-10.676699999999983,4.75-17.777300000010655,4.75Z"/><path class="uuid-fef8a692-fd7e-4ed2-bb30-cd61bad90b9c" d="M1592.420635406850124,245.142994181704125c-2.497000000010303,0-4.295800000001691-.597600000000966-5.397400000010748-1.798800000000483-1.104499999999462-1.199199999999109-1.655299999989438-2.756799999999203-1.655299999989438-4.678700000001299v-1.871099999999387c0-1.918499999999767.550799999989977-3.477499999997235,1.655299999989438-4.678199999998469,1.101600000009057-1.198800000001938,2.900400000000445-1.799299999998766,5.397400000010748-1.799299999998766,2.494199999988268,0,4.293999999988955.600499999996828,5.397499999990032,1.799299999998766,1.102500000009968,1.200700000001234,1.656299999998737,2.759699999998702,1.656299999998737,4.678199999998469v1.871099999999387c0,1.921900000002097-.553799999988769,3.47950000000219-1.656299999998737,4.678700000001299-1.103500000001077,1.201199999999517-2.903300000001764,1.798800000000483-5.397499999990032,1.798800000000483ZM1586.662835406839804,262.56099418170561h11.515699999999924v74.272899999999936h-11.515699999999924v-74.272899999999936Z"/><path class="uuid-fef8a692-fd7e-4ed2-bb30-cd61bad90b9c" d="M1650.573035406840063,338.561494181703893c-5.086900000000242,0-9.669000000001688-.91359999999986-13.746100000000297-2.73489999999947-4.08009999999922-1.822199999998702-7.58199999999124-4.438000000001921-10.507799999999406-7.84519999999975-2.92870000000039-3.40480000000025-5.181700000001001-7.484400000001187-6.765600000000632-12.23489999999947-1.583000000000538-4.75-2.374099999999089-10.09860000000117-2.374099999999089-16.049800000000687,0-5.851500000000669.791099999998551-11.177700000000186,2.374099999999089-15.977500000000873,1.58389999999963-4.796900000001187,3.836900000000242-8.899399999998423,6.765600000000632-12.306599999999889,2.925800000008167-3.405299999998533,6.427700000000186-6.02100000000064,10.507799999999406-7.844799999998941,4.077099999998609-1.82220000000234,8.659200000000055-2.734800000001997,13.746100000000297-2.734800000001997,4.98930000000837,0,9.451199999999517.908200000001671,13.386699999999109,2.725600000001577,3.933600000000297,1.817299999998795,7.292000000001281,4.329499999999825,10.076199999999517,7.532200000001467,2.782200000001467,3.203099999998813,4.917000000001281,7.003899999999703,6.405300000011266,11.402799999999843,1.486299999998664,4.399399999998423,2.231399999998757,9.227999999999156,2.231399999998757,14.486299999996845v5.451700000001438h-53.40330000000904v3.45509999999922c0,3.16649999999936.503899999999703,6.117200000000594,1.511699999999109,8.85200000000259,1.007800000001225,2.73489999999947,2.447299999999814,5.110399999997753,4.318400000000111,7.125,1.871100000000297,2.015699999999924,4.173800000000483,3.598699999998644,6.909100000000763,4.751000000000204,2.735400000010486,1.15139999999883,5.83009999999922,1.726599999998143,9.284200000000055,1.726599999998143,4.701200000010431,0,8.802799999999479-1.102599999998347,12.307600000000093-3.310600000000704,3.501000000000204-2.205999999998312,6.212000000008629-5.372999999999593,8.131900000000314-9.5l8.205100000008315,5.939500000000407c-2.399500000008629,5.119099999999889-6.142600000008315,9.246100000000297-11.227600000009261,12.38379999999961-5.086899999998423,3.137699999999313-11.132799999999406,4.707500000000437-18.136699999999109,4.707500000000437ZM1650.573035406840063,270.476994181703049c-3.167000000001281,0-6.04490000000078.548800000000483-8.63569999999163,1.646500000002561-2.591800000009243,1.09769999999844-4.822299999999814,2.647499999999127-6.693399999998292,4.648399999998219-1.871100000009392,2.002000000000407-3.335900000010952,4.363300000000891-4.390600000011545,7.081099999998514-1.056699999990087,2.718700000002173-1.583999999998923,5.698200000003453-1.583999999998923,8.941400000000613v1.001000000000204h41.023400000000038v-1.574699999997392c0-6.580600000001141-1.798799999989569-11.847700000002078-5.397399999999834-15.806200000002718-3.598699999991368-3.957999999998719-8.373100000000704-5.9375-14.322299999999814-5.9375Z"/><path class="uuid-fef8a692-fd7e-4ed2-bb30-cd61bad90b9c" d="M1718.081835406839673,336.833894181705546c-4.031299999989642,0-7.078099999989718-1.124500000001717-9.140599999989718-3.373500000001513-2.064500000009502-2.248999999999796-3.094800000009855-5.195299999999406-3.094800000009855-8.834500000000844v-51.846199999999953h-12.235300000000279v-10.218699999997625h6.909200000000055c2.494099999999889,0,4.197199999998702-.504899999999907,5.110300000000279-1.512700000002951.91019999999844-1.006799999999203,1.367200000000594-2.756799999999203,1.367200000000594-5.252899999999499v-13.819400000000314h10.363299999999072v20.585000000002765h16.265600000000632v10.218699999997625h-16.265600000000632v53.835000000002765h15.114199999999983v10.219199999999546h-14.393500000000131Z"/><path class="uuid-fef8a692-fd7e-4ed2-bb30-cd61bad90b9c" d="M1797.968535406838782,262.56099418170561h11.372100000000501l-33.251000000000204,91.545899999997346c-.863299999999072,2.207000000002154-1.727499999999054,4.052700000000186-2.590799999989031,5.541500000002998-.864300000010189,1.486799999998766-1.920900000010079,2.66359999999986-3.167000000010376,3.526899999997113-1.248100000000704.864199999999983-2.806700000001001,1.487300000000687-4.677800000001298,1.871000000002823-1.870999999999185.382399999998597-4.152299999997922.576199999999517-6.83779999998842.576199999999517h-5.901400000011563v-10.219700000001467h11.659200000001874l5.614199999999983-15.808600000000297-27.781200000001263-77.033199999998033h11.515600000009727l17.848599999990256,50.425799999997253,3.455100000001039,12.06880000000092h.718800000000556l4.031199999999444-12.06880000000092,17.992199999998775-50.425799999997253Z"/><path class="uuid-fef8a692-fd7e-4ed2-bb30-cd61bad90b9c" d="M656.035149999999703,477.752431520864775l-3.609375-11.4755859375h-15.98828125l-3.546875,11.4755859375h-8.638671875l15.0859375-44.9990234375h10.57421875l14.955078125,44.9990234375h-8.83203125ZM644.560540624999703,440.489736208364775h-.322265625l-5.73828125,18.50244140625h11.86328125l-5.802734375-18.50244140625Z"/><path class="uuid-fef8a692-fd7e-4ed2-bb30-cd61bad90b9c" d="M670.996087499999703,477.752431520864775v-33.65234375h8.251953125v6.96240234375h.322265625c.837890625-3.5458984375,3.546875-6.96240234375,8.896484375-6.96240234375h1.806640625v7.80029296875h-2.580078125c-5.54296875,0-8.4453125,1.54736328125-8.4453125,5.22216796875v20.6298828125h-8.251953125Z"/><path class="uuid-fef8a692-fd7e-4ed2-bb30-cd61bad90b9c" d="M698.398431249999703,469.178212770864775v-18.50244140625h-4.96484375v-6.57568359375h2.578125c2.451171875,0,3.224609375-1.16064453125,3.224609375-3.4814453125v-5.73779296875h7.4140625v9.21923828125h6.896484375v6.57568359375h-6.896484375v20.5009765625h6.380859375v6.57568359375h-5.9296875c-5.673828125,0-8.703125-3.0947265625-8.703125-8.57421875Z"/><path class="uuid-fef8a692-fd7e-4ed2-bb30-cd61bad90b9c" d="M717.804681249999703,472.336904177114775l5.029296875-4.8994140625c2.44921875,2.83642578125,5.4140625,4.5771484375,9.21875,4.5771484375,3.931640625,0,5.607421875-1.48291015625,5.607421875-3.8681640625,0-1.93408203125-1.16015625-3.15869140625-4.125-3.54541015625l-3.353515625-.45166015625c-7.21875-.90234375-11.216796875-4.0615234375-11.216796875-10.18603515625,0-6.51123046875,5.09375-10.63720703125,12.765625-10.63720703125,6.57421875,0,9.927734375,1.93408203125,13.150390625,5.28662109375l-4.833984375,4.8349609375c-1.935546875-2.06298828125-4.771484375-3.6103515625-8.05859375-3.6103515625-3.546875,0-5.09375,1.41845703125-5.09375,3.4814453125,0,2.25634765625,1.224609375,3.2880859375,4.384765625,3.8037109375l3.416015625.451171875c7.349609375,1.03173828125,10.89453125,4.3193359375,10.89453125,9.92822265625,0,6.51123046875-5.478515625,11.02392578125-13.859375,11.02392578125-6.3828125,0-10.57421875-2.32080078125-13.92578125-6.18896484375Z"/><path class="uuid-fef8a692-fd7e-4ed2-bb30-cd61bad90b9c" d="M796.460931249999703,477.752431520864775l-3.611328125-11.4755859375h-15.98828125l-3.544921875,11.4755859375h-8.638671875l15.0859375-44.9990234375h10.572265625l14.95703125,44.9990234375h-8.83203125ZM784.984368749999703,440.489736208364775h-.322265625l-5.736328125,18.50244140625h11.861328125l-5.802734375-18.50244140625Z"/><path class="uuid-fef8a692-fd7e-4ed2-bb30-cd61bad90b9c" d="M808.519524999999703,472.336904177114775l5.029296875-4.8994140625c2.44921875,2.83642578125,5.416015625,4.5771484375,9.21875,4.5771484375,3.93359375,0,5.609375-1.48291015625,5.609375-3.8681640625,0-1.93408203125-1.16015625-3.15869140625-4.126953125-3.54541015625l-3.3515625-.45166015625c-7.220703125-.90234375-11.216796875-4.0615234375-11.216796875-10.18603515625,0-6.51123046875,5.091796875-10.63720703125,12.763671875-10.63720703125,6.576171875,0,9.927734375,1.93408203125,13.15234375,5.28662109375l-4.8359375,4.8349609375c-1.93359375-2.06298828125-4.76953125-3.6103515625-8.05859375-3.6103515625-3.544921875,0-5.091796875,1.41845703125-5.091796875,3.4814453125,0,2.25634765625,1.224609375,3.2880859375,4.3828125,3.8037109375l3.41796875.451171875c7.34765625,1.03173828125,10.89453125,4.3193359375,10.89453125,9.92822265625,0,6.51123046875-5.48046875,11.02392578125-13.861328125,11.02392578125-6.3828125,0-10.572265625-2.32080078125-13.92578125-6.18896484375Z"/><path class="uuid-fef8a692-fd7e-4ed2-bb30-cd61bad90b9c" d="M840.242181249999703,472.336904177114775l5.029296875-4.8994140625c2.44921875,2.83642578125,5.4140625,4.5771484375,9.21875,4.5771484375,3.931640625,0,5.607421875-1.48291015625,5.607421875-3.8681640625,0-1.93408203125-1.16015625-3.15869140625-4.125-3.54541015625l-3.353515625-.45166015625c-7.21875-.90234375-11.216796875-4.0615234375-11.216796875-10.18603515625,0-6.51123046875,5.09375-10.63720703125,12.765625-10.63720703125,6.57421875,0,9.927734375,1.93408203125,13.150390625,5.28662109375l-4.833984375,4.8349609375c-1.935546875-2.06298828125-4.771484375-3.6103515625-8.05859375-3.6103515625-3.546875,0-5.09375,1.41845703125-5.09375,3.4814453125,0,2.25634765625,1.224609375,3.2880859375,4.384765625,3.8037109375l3.416015625.451171875c7.349609375,1.03173828125,10.89453125,4.3193359375,10.89453125,9.92822265625,0,6.51123046875-5.478515625,11.02392578125-13.859375,11.02392578125-6.3828125,0-10.57421875-2.32080078125-13.92578125-6.18896484375Z"/><path class="uuid-fef8a692-fd7e-4ed2-bb30-cd61bad90b9c" d="M873.058587499999703,460.861806520864775c0-10.76611328125,5.99609375-17.53564453125,15.6015625-17.53564453125,9.669921875,0,15.666015625,6.76953125,15.666015625,17.53564453125,0,10.83056640625-5.99609375,17.6640625-15.666015625,17.6640625-9.60546875,0-15.6015625-6.83349609375-15.6015625-17.6640625ZM895.687493749999703,464.020497927114775v-6.25341796875c0-5.0283203125-2.708984375-7.80029296875-7.02734375-7.80029296875-4.255859375,0-6.962890625,2.77197265625-6.962890625,7.80029296875v6.25341796875c0,5.09326171875,2.70703125,7.865234375,6.962890625,7.865234375,4.318359375,0,7.02734375-2.77197265625,7.02734375-7.865234375Z"/><path class="uuid-fef8a692-fd7e-4ed2-bb30-cd61bad90b9c" d="M909.357415624999703,460.861806520864775c0-10.76611328125,5.609375-17.53564453125,15.537109375-17.53564453125,6.76953125,0,11.216796875,3.2236328125,13.216796875,8.509765625l-6.76953125,3.0302734375c-.7734375-2.83642578125-2.90234375-4.8994140625-6.447265625-4.8994140625-4.578125,0-6.8984375,3.22314453125-6.8984375,7.92919921875v6.12451171875c0,4.70654296875,2.3203125,7.865234375,6.8984375,7.865234375,3.931640625,0,5.8671875-2.25634765625,7.091796875-5.2861328125l6.318359375,3.02978515625c-2.193359375,5.93115234375-6.8984375,8.896484375-13.41015625,8.896484375-9.927734375,0-15.537109375-6.83349609375-15.537109375-17.6640625Z"/><path class="uuid-fef8a692-fd7e-4ed2-bb30-cd61bad90b9c" d="M943.978509374999703,435.074208864614775v-1.2890625c0-2.38525390625,1.41796875-4.1259765625,4.8359375-4.1259765625,3.3515625,0,4.833984375,1.74072265625,4.833984375,4.1259765625v1.2890625c0,2.38525390625-1.482421875,4.1259765625-4.833984375,4.1259765625-3.41796875,0-4.8359375-1.74072265625-4.8359375-4.1259765625ZM944.687493749999703,444.100087770864775h8.251953125v33.65234375h-8.251953125v-33.65234375Z"/><path class="uuid-fef8a692-fd7e-4ed2-bb30-cd61bad90b9c" d="M960.097649999999703,468.598134645864775c0-6.8984375,5.220703125-10.31494140625,14.375-10.31494140625h5.73828125v-2.4501953125c0-3.73876953125-1.869140625-5.93115234375-6.25390625-5.93115234375-3.8671875,0-6.060546875,1.93408203125-7.671875,4.25537109375l-4.8984375-4.38427734375c2.44921875-3.86767578125,6.380859375-6.44677734375,13.150390625-6.44677734375,9.08984375,0,13.92578125,4.3193359375,13.92578125,11.9912109375v15.859375h3.3515625v6.57568359375h-4.576171875c-3.546875,0-5.73828125-2.32080078125-6.25390625-5.80224609375h-.38671875c-1.095703125,4.3193359375-4.771484375,6.57568359375-9.798828125,6.57568359375-6.833984375,0-10.701171875-3.9326171875-10.701171875-9.927734375ZM980.210931249999703,467.695302614614775v-4.4482421875h-5.287109375c-4.318359375,0-6.4453125,1.48291015625-6.4453125,4.1259765625v1.09619140625c0,2.70751953125,1.869140625,4.06103515625,5.091796875,4.06103515625,3.67578125,0,6.640625-1.67578125,6.640625-4.8349609375Z"/><path class="uuid-fef8a692-fd7e-4ed2-bb30-cd61bad90b9c" d="M1000.070306249999703,469.178212770864775v-18.50244140625h-4.96484375v-6.57568359375h2.580078125c2.44921875,0,3.22265625-1.16064453125,3.22265625-3.4814453125v-5.73779296875h7.4140625v9.21923828125h6.8984375v6.57568359375h-6.8984375v20.5009765625h6.3828125v6.57568359375h-5.931640625c-5.673828125,0-8.703125-3.0947265625-8.703125-8.57421875Z"/><path class="uuid-fef8a692-fd7e-4ed2-bb30-cd61bad90b9c" d="M1021.669915624999703,435.074208864614775v-1.2890625c0-2.38525390625,1.41796875-4.1259765625,4.833984375-4.1259765625,3.353515625,0,4.8359375,1.74072265625,4.8359375,4.1259765625v1.2890625c0,2.38525390625-1.482421875,4.1259765625-4.8359375,4.1259765625-3.416015625,0-4.833984375-1.74072265625-4.833984375-4.1259765625ZM1022.378899999999703,444.100087770864775h8.251953125v33.65234375h-8.251953125v-33.65234375Z"/><path class="uuid-fef8a692-fd7e-4ed2-bb30-cd61bad90b9c" d="M1037.916009374999703,460.861806520864775c0-10.76611328125,5.99609375-17.53564453125,15.6015625-17.53564453125,9.669921875,0,15.666015625,6.76953125,15.666015625,17.53564453125,0,10.83056640625-5.99609375,17.6640625-15.666015625,17.6640625-9.60546875,0-15.6015625-6.83349609375-15.6015625-17.6640625ZM1060.544915624999703,464.020497927114775v-6.25341796875c0-5.0283203125-2.708984375-7.80029296875-7.02734375-7.80029296875-4.255859375,0-6.962890625,2.77197265625-6.962890625,7.80029296875v6.25341796875c0,5.09326171875,2.70703125,7.865234375,6.962890625,7.865234375,4.318359375,0,7.02734375-2.77197265625,7.02734375-7.865234375Z"/><path class="uuid-fef8a692-fd7e-4ed2-bb30-cd61bad90b9c" d="M1076.470696874999703,477.752431520864775v-33.65234375h8.251953125v5.6083984375h.322265625c1.35546875-3.60986328125,4.19140625-6.38232421875,9.4140625-6.38232421875,6.896484375,0,10.765625,4.77099609375,10.765625,13.15185546875v21.2744140625h-8.251953125v-20.4365234375c0-4.7705078125-1.611328125-7.22021484375-5.544921875-7.22021484375-3.416015625,0-6.705078125,1.8046875-6.705078125,5.4150390625v22.24169921875h-8.251953125Z"/></g></svg>