<?xml version="1.0" encoding="UTF-8"?><svg id="uuid-8a849e2c-6d3e-43d6-a328-f5af6502f711" xmlns="http://www.w3.org/2000/svg" width="223.375498867458589mm" height="202.962609297796661mm" xmlns:xlink="http://www.w3.org/1999/xlink" viewBox="0 0 633.190399999999499 575.327090114615203"><defs><style>.uuid-b7d13dd6-45d8-419a-8c7a-f6804d3cc83a{fill:none;}.uuid-9aa17672-d9ba-440a-ac07-302e7143ba12{fill:#a39b4b;}.uuid-4f828770-761a-4c56-a662-6e2c48b8ef8d{clip-path:url(#uuid-c6753cf2-3cb0-496c-95cd-13363e31753b);}</style><clipPath id="uuid-c6753cf2-3cb0-496c-95cd-13363e31753b"><rect class="uuid-b7d13dd6-45d8-419a-8c7a-f6804d3cc83a" width="633.190399999999499" height="575.327090114615203"/></clipPath></defs><g class="uuid-4f828770-761a-4c56-a662-6e2c48b8ef8d"><path class="uuid-9aa17672-d9ba-440a-ac07-302e7143ba12" d="M79.221700000000055,135.787096569729329c-4.552800000000389,10.763699728086067-7.259799999999814,22.072299442406802-8.085000000000036,33.712899148340512,1.793999999999869-1.460899963095471,4.08010000000013-2.33979994089168,6.568400000000111-2.33979994089168,2.747999999999593,0,5.244099999999889,1.078099972764903,7.108400000000074,2.818294337436782,3.668899999999667-47.794893201232298,43.612299999999777-85.435492250350762,92.350599999999758-85.435492250350762,3.777299999999741,0,6.837899999999536-3.06250774964974,6.837899999999536-6.837899827260117,0-3.77739990457485-3.060599999999795-6.837899827260117-6.837899999999536-6.837899827260117-14.343799999999646,0-28.26760000000013,2.812499928950274-41.382899999999609,8.359399788823794-12.659100000000763,5.355399864711217-24.025300000000243,13.015599671198288-33.783600000000661,22.775399424645002-9.759299999999712,9.757799753497238-17.42239999999947,21.124999466337613-22.775899999999638,33.785099146516586Z"/><path class="uuid-9aa17672-d9ba-440a-ac07-302e7143ba12" d="M169.593700000000354,269.486293192203448c-47.477499999999964-3.841803077588338-84.835900000000038-43.482398901543093-85.050700000000688-91.898397678450237,0-3.775405399138435-3.060599999999795-6.837899827261026-6.837899999999536-6.837899827261026-3.77639999999974,0-6.837900000000445,3.062494428122591-6.837900000000445,6.837899827261026.054700000000594,14.197299641345126,2.861300000000483,27.976594600861972,8.354500000000371,40.962898965189197,5.353500000000167,12.660099680178973,13.016599999999926,24.027299393019348,22.775899999999638,33.785099146516586,9.758300000000418,9.759799753446714,21.124499999999898,17.421899559885787,33.783600000000661,22.777399424594478,10.628999999999905,4.494099886469485,21.787199999999757,7.193299818281957,33.269599999999627,8.054699796521163-1.443400000000111-1.789099954803532-2.3125-4.060599897420616-2.3125-6.533199834957486,0-2.767599930084543,1.091800000000148-5.279302897002708,2.855400000000373-7.148499819413701Z"/><path class="uuid-9aa17672-d9ba-440a-ac07-302e7143ba12" d="M251.265600000000177,243.706993843443342c-1.334900000000289-1.333999966300325-3.084000000000287-2.001899949427752-4.834000000000287-2.001899949427752s-3.500900000000001.667899983127427-4.835900000000038,2.001899949427752c-16.671899999999823,16.1464962711716-39.388899999999921,26.089899340913689-64.431599999999889,26.089899340913689-3.775399999999536,0-6.837899999999536,3.060499922686176-6.837899999999536,6.837899827260117,0,3.775399904625374,3.0625,6.837899827259207,6.837899999999536,6.837899827259207,14.345699999999852,0,28.267499999999927-2.812499928949364,41.382799999999861-8.359399788822884,12.203100000000177-5.162099869594385,23.200900000000274-12.474599684865098,32.718700000000354-21.734399450942874,2.671899999999823-2.669899932552653,2.671899999999823-6.999999823165126,0-9.671899755667255Z"/><path class="uuid-9aa17672-d9ba-440a-ac07-302e7143ba12" d="M177.164600000000064,70.869098209695949c-14.339899999999943,0-28.270099999999729,2.810599928998272-41.379899999999907,8.360391904919197-12.660200000000259,5.349607748737071-24.030300000000352,13.009807555223233-33.790100000000166,22.769507308673383-9.760199999999713,9.760799753421452-17.41989999999987,21.130899466188566-22.770000000000437,33.790099146390276-4.559999999999491,10.760699728161853-7.260199999999713,22.070299442457326-8.089799999999741,33.709899148416298,1.799799999999777-1.459899963120733,4.079600000000028-2.33979994089168,6.569800000000214-2.33979994089168,2.75,0,5.239700000000084,1.080099972714379,7.10990000000038,2.820294337411724,3.66989999999987-47.79979320113398,43.609799999999268-85.440392250252444,92.350099999999657-85.440392250252444,3.779700000000048,0,6.839799999999741-3.059607749747556,6.839799999999741-6.829099827483333,0-3.78029990450068-3.060099999999693-6.840899827183421-6.839799999999741-6.840899827183421ZM169.594699999999648,269.489293192127661c-47.479999999999563-3.839899902995967-84.840299999999843-43.490298901342612-85.050299999999879-91.899497678422449,0-3.780199904505025-3.059999999999491-6.840799827187766-6.839799999999741-6.840799827187766-3.780300000000352,0-6.839899999999943,3.060599922682741-6.839899999999943,6.840799827187766.059599999999591,14.199299641294601,2.85989999999947,27.969799293422511,8.35989999999947,40.959998965262457,5.350100000000566,12.660199680176447,13.009800000000723,24.029299392968824,22.770000000000437,33.789999146392802,9.759799999999814,9.759799753446714,21.129899999999907,17.419999559932876,33.790100000000166,22.769599424791522,10.629899999999907,4.499999886320438,21.77980000000025,7.200199818107649,33.269999999999527,8.060499796374643-1.450199999999313-1.789999954780797-2.320299999999406-4.060499897423142-2.320299999999406-6.530299835030746,0-2.770499930011283,1.100099999999657-5.280199866610928,2.86029999999937-7.150299819368229ZM251.264599999999973,243.709993843367556c-1.329999999999927-1.340899966126017-3.079999999999927-1.99999994947575-4.829999999999927-1.99999994947575s-3.5.659099983349734-4.839899999999943,1.99999994947575c-16.670399999999972,16.13959959227941-39.390100000000075,26.089799340916215-64.430100000000039,26.089799340916215-3.77980000000025,0-6.839899999999943,3.059599922708003-6.839899999999943,6.839799827212119,0,3.769599904771894,3.060099999999693,6.830099827457161,6.839899999999943,6.830099827457161,14.350000000000364,0,28.269999999999982-2.810499929001708,41.379800000000159-8.360299788801058,12.209999999999582-5.160199869642383,23.200199999999768-12.469799684986356,32.72019999999975-21.729499451066658,2.670000000000073-2.669899932552653,2.670000000000073-6.999999823165126,0-9.669899755717779Z"/><path class="uuid-9aa17672-d9ba-440a-ac07-302e7143ba12" d="M233.454600000000028,120.879896946316876c-15.030299999999897-15.040099620055116-35.019999999999982-23.32029941087967-56.289999999999964-23.32029941087967-21.260299999999916,0-41.260299999999916,8.280199790824554-56.290100000000166,23.32029941087967-15.039999999999964,15.029299620327947-23.319800000000214,35.019499115333019-23.319800000000214,56.289998577994993,0,21.269594590303313,8.27980000000025,41.259798957689782,23.319800000000214,56.290098577992467,15.02980000000025,15.038999620082905,35.02980000000025,23.319299410904023,56.290100000000166,23.319299410904023,21.269999999999982,0,41.259700000000066-8.280299790821118,56.289999999999964-23.319299410904023,15.039999999999964-15.030299620302685,23.319799999999759-35.020503987689153,23.319799999999759-56.290098577992467,0-21.270499462661974-8.279799999999796-41.260698957667046-23.319799999999759-56.289998577994993ZM132.224599999999555,155.229490114615146h-6.47019999999975v43.879904855458335h6.47019999999975v3.799799904008978h-11.16989999999987v-51.479498699518444h11.16989999999987v3.799793940051131ZM141.044399999999769,202.909194874082459v-36.359399081484298c0-3.129899920932075-.059999999999491-5.970699849167431-.159599999999955-8.510699785001634-.110399999999572-2.549799935586634-.270099999999729-4.749999880004907-.490299999999479-6.609399833032512h6.600099999999657v36.200199085506028c0,1.029299973997695.020000000000437,2.23919994343305.049799999999777,3.639594854545066.030300000000352,1.389705018404129.070300000000316,2.809604982534438.129899999999907,4.240304946391916.050299999999879,1.439399963637698.110400000000482,2.80949992902606.190400000000409,4.120099895917519.069899999999507,1.309595157690637.170000000000073,2.409199939138489.270099999999729,3.279299917157914h-6.590400000000045ZM175.794399999999769,174.309595596569125h-6.049799999999777v24.38959938386688h6.049799999999777v4.22069989337615h-18.019999999999527v-4.22069989337615h5.960000000000036v-24.38959938386688h-5.960000000000036v-4.219799893398886h18.019999999999527v4.219799893398886ZM213.934600000000046,199.379894963240076c0,3.619099908573844-.319899999999961,6.629899832514639-.950200000000223,9.019499772148265-.629899999999907,2.400399939360796-1.519999999999982,4.310599891105085-2.649899999999889,5.730499855235394-1.140199999999822,1.42969996388274-2.509799999999814,2.439399938375573-4.109899999999925,3.029299923473445-1.600100000000111.589799985100399-3.370100000000093.879899977771856-5.320299999999861.879899977771856-.969700000000103,0-2.009800000000268-.149499996223312-3.10990000000038-.469799988131854-1.109800000000178-.309499992181372-2.109800000000178-.740199981300975-3.009699999999611-1.299804389122073l2.089799999999741-4.829999999999927c.5.370104534624261,1.160200000000259.669904527050676,1.980000000000018.919904520735145.83010000000013.249999993684469,1.66989999999987.370095479264819,2.530299999999897.370095479264819,1.02980000000025,0,1.949700000000121-.169895484322296,2.769500000000335-.5.810099999999693-.330095467644242,1.5-.910195452989683,2.070299999999861-1.75.569800000000214-.839895410557801,1-1.990195381498779,1.310100000000148-3.440395344862736.299799999999777-1.459999963117298.449699999999666-3.319399916144903.449699999999666-5.569399859306031v-14.160099642284877c0-2.580105153546356-.139699999999721-4.660199882273446-.409699999999702-6.259799841864151-.260200000000168-1.600599959565443-.670399999999972-2.839799928260618-1.200200000000223-3.740199905514601-.539999999999964-.889699977524288-1.209899999999834-1.480499962599424-2.019999999999982-1.780299955025839-.799799999999777-.299805451141765-1.739799999999832-.450199988626991-2.810099999999693-.450199988626991-1.15960000000041,0-2.290000000000418.270499993166595-3.399900000000343.820299979277479-1.100100000000111.549799986109974-2.120099999999638,1.249999968422344-3.039999999999509,2.120094558207711-.91990000000078.870105366253483-1.739800000000287,1.849605341509232-2.439900000000307,2.950205313705737-.710000000000036,1.08989997246681-1.240300000000389,2.179699944936146-1.58010000000013,3.279299917157914v18.670899528333393h-5.949700000000121v-19.800799499789719c0-3.16989991992159-.190499999999702-5.859299851981632-.550299999999879-8.059499796399905-.370100000000093-2.200199944419182-.71979999999985-3.849599902750924-1.060099999999693-4.969799874452292h5.790100000000166c.129799999999705.339899991413404.260199999999713.790099980040395.39009999999962,1.339899966151279.129899999999907.539999986358453.239700000000084,1.120099971703894.350099999999657,1.719699956556724.10990000000038.59959998485283.199700000000121,1.190399969927967.289999999999964,1.770499955273408l.259800000000723,1.439499963635171c2.060099999999693-2.439499938373046,4.129899999999907-4.209999893646454,6.210000000000036-5.290099866360833,2.079999999999472-1.079999972716905,4.249999999999545-1.620099959072832,6.499999999999545-1.620099959072832,1.720200000000204,0,3.229900000000271.28029439526199,4.550200000000132.850599978512037,1.319899999999961.569299985618272,2.429700000000139,1.469694416749917,3.329600000000028,2.699199931812473.910199999999804,1.240299968667387,1.580099999999675,2.840799928235356,2.050299999999879,4.800799878720682.460000000000036,1.959999950487145.690000000000055,4.330099890613383.690000000000055,7.099599820649019v14.480499634192711ZM233.274399999999787,202.909194874082459h-11.16989999999987v-3.799799904008978h6.470200000000204v-43.879904855458335h-6.470200000000204v-3.799793940051131h11.16989999999987v51.479498699518444Z"/><path class="uuid-9aa17672-d9ba-440a-ac07-302e7143ba12" d="M129.766099999999824,442.09709011461473h-32.207499999999527v-5.346599999999853h32.207499999999527v5.346599999999853ZM125.574700000000121,499.027290114614516h-5.518100000000231v-5.860300000000279h-12.874499999999898v5.860300000000279h-5.603000000000065v-28.914499999999862h23.995600000000195v28.914499999999862ZM125.317900000000009,453.132790114614181l-23.653400000000147.085000000000946v-5.345800000000963h23.653400000000147v5.260800000000017ZM125.403299999999945,464.338790114614312h-23.738800000000083v-5.346599999999853h23.738800000000083v5.346599999999853ZM124.333999999999833,431.232890114614747l-21.728500000000167.085399999999936v-5.346199999999953h21.728500000000167v5.260800000000017ZM120.056599999999889,487.905690114614117v-12.531699999999546h-12.959899999999834v12.531699999999546h12.959899999999834ZM175.318400000000111,464.424790114614552l-46.236899999999878.084899999999834v-5.260699999999815h11.462899999999536l2.481000000000677-13.216800000000148h-10.692900000000009v-5.260699999999815h11.548799999999574l1.83889999999974-9.795399999999972h-16.381800000000112v-5.346199999999953h42.473100000000159v5.261700000000019h-20.317399999999907l-1.753399999999601,9.794399999999769h17.622599999999693l-1.839899999999943,18.477100000000064h9.795000000000073v5.261700000000019ZM167.876000000000204,499.19819011461459h-5.51760000000013v-5.774400000000242h-21.64260000000013v5.774400000000242h-5.603500000000167v-28.998999999999796h32.763700000000426v28.998999999999796ZM162.358400000000074,488.162590114614432v-12.702699999999822h-21.728000000000065v12.702699999999822h21.728000000000065ZM161.502900000000409,445.946790114614487h-12.703100000000632l-2.480499999999665,13.302200000000084h13.857899999999972l1.325700000000325-13.302200000000084Z"/><path class="uuid-9aa17672-d9ba-440a-ac07-302e7143ba12" d="M271.760699999999815,442.09709011461473h-77.75919999999951v-5.346599999999853h77.75919999999951v5.346599999999853ZM260.298299999999927,453.046890114614143h-55.604499999999916v-5.17489999999998h55.604499999999916v5.17489999999998ZM260.298299999999927,464.167890114615147h-55.604499999999916v-5.175700000000688h55.604499999999916v5.175700000000688ZM258.288100000000213,499.19819011461459h-5.51760000000013v-6.031200000000354h-40.120800000000145v6.031200000000354h-5.517399999999725v-29.085399999999936h51.155799999999999v29.085399999999936ZM258.202600000000075,430.677190114614859l-50.642499999999927.127999999999702v-5.175299999999879h50.642499999999927v5.047300000000178ZM252.770500000000084,487.905690114614117v-12.531699999999546h-40.120800000000145v12.531699999999546h40.120800000000145Z"/><path class="uuid-9aa17672-d9ba-440a-ac07-302e7143ba12" d="M368.20510000000013,483.714790114614516h-34.432400000000143v5.945299999999406c0,6.358400000000984-3.378700000000208,9.538100000000668-10.137900000000172,9.538100000000668h-5.688499999999749l-2.095699999999852-5.260699999999815h7.955499999999574c2.794500000000426,0,4.192400000000362-1.284200000000055,4.192400000000362-3.849599999999555v-6.373100000000704h-37.554700000000139v-5.346700000000055h37.554700000000139v-3.67870000000039c5.958499999999731-2.224099999999453,10.221700000000055-4.304699999999684,12.78859999999986-6.244099999999889h-32.764400000000023v-4.918999999999869h42.260999999999967v4.662200000000666c-4.449700000000121,3.022399999999834-9.952699999999822,6.11619999999948-16.510999999999967,9.281199999999444v.898400000000038h34.432400000000143v5.346700000000055ZM364.61180000000013,467.845690114614627h-5.133800000000065v-8.853500000000167h-59.751400000000103v9.367199999999684h-5.603999999999814v-14.371099999999387h7.356399999999667v-26.091800000000148c4.048300000000381-.39850000000024,8.483600000000024-2.324300000000221,13.303200000000288-5.774000000000342l2.823300000000017,3.935100000000602c-2.596700000000055,2.395499999999629-6.132399999999961,4.206500000000233-10.608400000000074,5.432099999999991v3.593299999999545h10.949200000000019v4.448199999999815h-10.949200000000019v4.662100000000464h10.949200000000019v4.361899999999878h-10.949200000000019v5.433100000000195h45.467000000000098v-5.433100000000195h-10.436799999999948v-4.276899999999841h10.436799999999948v-5.003899999999703h-10.351300000000265v-4.362800000000789h10.351300000000265v-4.662599999999657h-12.104700000000321v-5.175299999999879h17.536599999999908v28.828599999999824h6.715800000000399v13.943400000000111ZM340.359399999999823,434.654790114615025l-2.99369999999999,3.678199999999379c-1.626399999999649-1.567399999999907-3.836399999999685-3.264699999999721-6.629899999999907-5.089899999999943-2.309499999999844,1.939500000000407-4.904799999999796,3.721700000000055-7.785100000000057,5.346700000000055l-3.507299999999759-3.08010000000013c2.766099999999824-1.139599999999518,5.188900000000103-2.480399999999463,7.271899999999732-4.019999999999527-3.480000000000018-1.311499999999796-6.288099999999758-2.224100000000362-8.42719999999963-2.737300000000687l2.182599999999638-3.935499999999593c3.164099999999962.798300000000381,6.343700000000354,1.825699999999415,9.537600000000111,3.079600000000028,2.024899999999889-1.909200000000055,3.721199999999953-3.863299999999981,5.090299999999843-5.859400000000278l3.592800000000352,2.865200000000186c-1.141600000000381,1.768599999999424-2.624000000000251,3.494200000000092-4.44820000000027,5.175799999999981,2.109300000000076,1.197300000000723,4.148400000000038,2.723100000000159,6.116199999999935,4.576700000000528ZM340.872100000000046,450.223590114614126l-3.591800000000148,2.823300000000017c-2.309600000000046-1.768099999999322-4.706099999999878-3.236399999999776-7.186099999999897-4.405299999999443-1.539499999999862,1.168899999999667-4.276800000000094,2.637200000000121-8.211899999999787,4.405299999999443l-3.251000000000204-2.566499999998996c3.677799999999934-1.738699999999881,6.315500000000156-3.250900000000911,7.913399999999911-4.533600000000661-1.597899999999754-.997599999999693-4.020799999999781-2.10989999999947-7.271999999999935-3.337400000000343l3.207800000000134-2.693400000000111c2.936499999999796,1.055700000000797,5.446300000000065,2.15230000000065,7.527799999999843,3.293000000000575.797399999999925-.45510000000013,2.409200000000055-1.824300000000221,4.833000000000084-4.106000000000677l3.935100000000148,2.010300000000825c-1.454100000000381,1.882300000000214-3.078200000000379,3.436499999999796-4.875800000000254,4.662999999999556,2.367000000000189,1.083099999999831,4.690200000000004,2.565500000000611,6.971500000000106,4.447299999999814Z"/><path class="uuid-9aa17672-d9ba-440a-ac07-302e7143ba12" d="M464.561499999999796,483.714790114614516h-34.431899999999587v5.945299999999406c0,6.358400000000984-3.378600000000461,9.538100000000668-10.136900000000423,9.538100000000668h-5.688499999999749l-2.095699999999852-5.260699999999815h7.955599999999777c2.79340000000002,0,4.191400000000158-1.284200000000055,4.191400000000158-3.849599999999555v-6.373100000000704h-37.553699999999935v-5.346700000000055h37.553699999999935v-3.67870000000039c5.959199999999782-2.224099999999453,10.221599999999853-4.304699999999684,12.789499999999862-6.244099999999889h-32.764400000000023v-4.918999999999869h42.260000000000218v4.662200000000666c-4.449000000000069,3.022399999999834-9.953100000000177,6.11619999999948-16.510999999999967,9.281199999999444v.898400000000038h34.431899999999587v5.346700000000055ZM460.969700000000103,467.845690114614627h-5.134700000000066v-8.853500000000167h-59.751499999999851v9.367199999999684h-5.603000000000065v-14.371099999999387h7.356199999999717v-26.091800000000148c4.04950000000008-.39850000000024,8.483100000000377-2.324300000000221,13.302500000000236-5.774000000000342l2.822499999999764,3.935100000000602c-2.593499999999949,2.395499999999629-6.130699999999706,4.206500000000233-10.607700000000023,5.432099999999991v3.593299999999545h10.950200000000223v4.448199999999815h-10.950200000000223v4.662100000000464h10.950200000000223v4.361899999999878h-10.950200000000223v5.433100000000195h45.466800000000148v-5.433100000000195h-10.435599999999795v-4.276899999999841h10.435599999999795v-5.003899999999703h-10.35109999999986v-4.362800000000789h10.35109999999986v-4.662599999999657h-12.104499999999916v-5.175299999999879h17.536399999999958v28.828599999999824h6.717000000000098v13.943400000000111ZM438.239700000000084,449.264090114615101l-3.896900000000187,3.563000000000102c-1.778800000000047-2.672800000000279-4.324299999999766-6.018500000000131-6.785699999999906-8.096199999999953-3.826100000000224,4.263199999999415-6.973100000000159,6.97609999999986-9.432099999999991,8.136799999999312l-3.856499999999869-3.238299999999981c2.898999999999887-1.378899999999703,6.041999999999916-3.954600000000028,9.433599999999842-7.73239999999987-3.85590000000002-2.401899999999841-6.603500000000167-3.887300000000323-8.243599999999788-4.454600000000028l3.363799999999628-3.479000000000269c1.367100000000391.539999999999964,3.9350000000004,1.941900000000714,7.710900000000038,4.210400000000845,1.122100000000046-1.835900000000038,1.995100000000093-3.846700000000055,2.624000000000251-6.033200000000761h-12.878900000000158v-5.059599999999591h6.90480000000025v-5.209899999999834h4.43119999999999v5.209899999999834h8.194799999999759v5.059599999999591h-1.622100000000046c-.910599999999704,3.34860000000026-2.135199999999713,6.249499999999898-3.675299999999879,8.70510000000013,2.980999999999767,2.265600000000632,5.841800000000148,5.719699999999648,7.728000000000065,8.418400000000474Z"/><path class="uuid-9aa17672-d9ba-440a-ac07-302e7143ba12" d="M562.33010000000013,441.926690114614757l-3.079100000000381,4.447799999999916c-9.724599999999555-2.395000000000437-17.336899999999787-5.16110000000026-22.839899999999943-8.29739999999947v3.849599999999555h-28.914999999999964v-4.235300000000279c-8.326399999999921,4.306599999999889-15.796899999999823,7.115200000000186-22.413099999999758,8.426300000000083l-2.822300000000268-4.49080000000049c16.024400000000242-3.906199999999444,29.368900000000394-10.436499999999796,40.034700000000157-19.589799999999741l5.260699999999815,1.753399999999601c-.570799999999963.712900000000445-1.069799999999759,1.212400000000343-1.497499999999945,1.496600000000399,9.466800000000148,7.870600000000195,21.557600000000093,13.417000000000371,36.271500000000287,16.639600000000428ZM553.218699999999899,466.434490114614164h-62.104399999999714v-20.059999999999491h62.104399999999714v20.059999999999491ZM548.12960000000021,499.283190114614627h-5.26050000000032v-3.421900000000278h-41.317799999999806v3.421900000000278h-5.260800000000017v-28.35739999999987h51.839100000000144v28.35739999999987ZM519.600600000000213,461.815390114614274v-10.693400000000111h-23.225600000000213v10.693400000000111h23.225600000000213ZM542.869099999999889,481.148390114614813v-5.51760000000013h-41.317799999999806v5.51760000000013h41.317799999999806ZM542.869099999999889,491.243090114614461v-5.603499999999258h-41.317799999999806v5.603499999999258h41.317799999999806ZM513.912100000000009,457.580490114614804l-4.405299999999897,3.079599999999118c-2.651299999999992-2.679199999998673-5.247000000000298-4.661599999999453-7.785100000000057-5.945299999999406l4.447999999999865-2.565899999999601c3.022699999999986,1.28269999999975,5.603000000000065,3.094199999999546,7.742400000000089,5.431599999999889ZM534.657200000000103,437.178690114615165c-4.134700000000066-2.167000000000371-8.142100000000028-5.089900000000853-12.01949999999988-8.768600000001243-4.13530000000037,3.421900000001187-8.768100000000231,6.34480000000076-13.900400000000445,8.768600000001243h25.919900000000325ZM547.959499999999935,461.815390114614274v-10.693400000000111h-23.097200000000157v10.693400000000111h23.097200000000157ZM542.783199999999852,453.645490114614404c-1.682599999999638,2.680699999999888-4.220699999999852,4.962899999999536-7.613499999999931,6.843700000000354l-4.704899999999725-2.352000000000771c3.736399999999776-2.10989999999947,6.30179999999973-4.22019999999975,7.698300000000017-6.331099999999424l4.620099999999638,1.839399999999841Z"/><path class="uuid-9aa17672-d9ba-440a-ac07-302e7143ba12" d="M133.206046062990026,384.704590114614803l-1.546900000000278,2.056099999999788c-5.961899999999332-1.756800000000112-10.800299999999879-4.123000000000502-14.512200000000121-7.09860000000026-3.199699999999211,2.612300000000687-8.223099999999249,5.025400000000445-15.076599999999416,7.239199999999983l-1.721199999999953-2.090799999999945c6.629899999999907-1.838799999999537,11.643500000000131-4.070299999999406,15.040500000000065-6.694299999999203-3.408200000000761-3.221700000000055-5.699700000000121-7.139200000000528-6.870100000000093-11.754899999999907-.632300000000214,1.628399999999601-1.500500000000102,3.174299999998766-2.60109999999986,4.638699999999517l-1.860800000000381-1.704100000000835c1.475599999999758-1.757299999999304,2.663300000000163-3.684599999998682,3.565400000000409-5.781299999998737h-6.044400000000678v-2.160600000001068h14.09270000000015v-6.009299999999712h2.266200000000026v5.97360000000026h14.336900000000242v2.161699999999655h-6.009799999999814c-1.053200000000288,6.114700000000084-3.477499999999964,10.980900000000474-7.27390000000014,14.600500000000466,3.455500000000029,2.624099999999999,8.19380000000001,4.832099999999627,14.215299999999843,6.624099999999999ZM123.910646062990054,363.479990114614338h-13.598100000000159c.935500000000502,5.423300000000381,3.225500000000466,9.786600000000362,6.868599999999788,13.089299999999639,3.561000000000604-3.314399999999296,5.804200000000492-7.677699999999277,6.729500000000371-13.089299999999639Z"/><path class="uuid-9aa17672-d9ba-440a-ac07-302e7143ba12" d="M217.37086606298999,380.610790114615156h-14.145300000000134v2.442900000000009c0,2.611299999999574-1.387199999999666,3.917999999999665-4.16379999999981,3.917999999999665h-2.336899999999787l-.860099999999875-2.161200000000463h3.267099999999573c1.148400000000038,0,1.722600000000057-.527299999999741,1.722600000000057-1.581500000000233v-2.618199999998978h-15.426200000000335v-2.19630000000052h15.426200000000335v-1.511199999999917c2.447799999999916-.913099999999758,4.199299999999766-1.768600000000333,5.252500000000055-2.564900000000307h-13.458499999999731v-2.020999999999731h17.359399999999823v1.914999999999964c-1.826700000000073,1.242199999999684-4.088400000000092,2.513200000000325-6.782300000000305,3.813000000000102v.369099999999889h14.145300000000134v2.19630000000052ZM215.895466062990181,374.092790114615127h-2.109300000000076v-3.637700000001132h-24.546399999999721v3.847600000000966h-2.301800000000185v-5.902299999999741h3.022500000000036v-10.718800000000556c1.663099999999758-.16359999999986,3.48529999999937-.954600000000028,5.465299999999843-2.372100000000501l1.158699999999953,1.616700000000492c-1.064900000000307.983899999999267-2.519000000000233,1.727600000000166-4.358600000000479,2.231499999999869v1.475599999999758h4.499000000000706v1.82760000000053h-4.499000000000706v1.915100000000166h4.499000000000706v1.791900000000169h-4.499000000000706v2.232500000000073h18.67890000000034v-2.232500000000073h-4.288500000000113v-1.756800000001022h4.288500000000113v-2.055699999998978h-4.25189999999975v-1.792400000000271h4.25189999999975v-1.914600000000064h-4.972600000000057v-2.126000000000204h7.203100000000177v11.841800000000148h2.760200000000168v5.72860000000037ZM205.932166062989836,360.457990114614404l-1.230999999999767,1.510199999999713c-.666500000000269-.643999999999323-1.574700000000121-1.340299999999843-2.722200000000157-2.090299999999843-.949200000000019.796900000000278-2.015599999999722,1.529300000000148-3.198199999999815,2.19630000000052l-1.440399999999954-1.26470000000063c1.135499999999865-.468699999999444,2.13130000000001-1.019000000000233,2.986799999999675-1.651799999999639-1.429699999999684-.53859999999986-2.583999999999833-.91359999999986-3.46140000000014-1.124499999999898l.896900000000642-1.616700000000492c1.299099999999726.328600000000733,2.605499999999665.75,3.917499999999563,1.26510000000053.832000000000335-.784200000000055,1.528299999999945-1.586900000000242,2.090099999999893-2.407199999999648l1.476600000000417,1.177700000000186c-.469000000000051.725599999999758-1.078400000000329,1.434599999999591-1.826400000000376,2.125999999999294.865700000000288.49119999999948,1.703100000000177,1.11869999999999,2.511700000000019,1.879899999999907ZM206.142566062990227,366.853490114614033l-1.475600000000213,1.159700000000157c-.948199999999815-.72609999999986-1.933100000000195-1.329599999999118-2.952099999999973-1.810099999999693-.633100000000013.480500000000575-1.757300000000214,1.083999999999833-3.373599999999897,1.810099999999693l-1.335900000000038-1.054699999999684c1.512200000000121-.714399999999841,2.595499999999902-1.334499999999935,3.250999999999749-1.862299999999777-.655499999999847-.410200000000259-1.651899999999841-.86620000000039-2.98680000000013-1.370100000000093l1.317800000000261-1.107500000000073c1.20659999999998.433600000000297,2.237300000000232.885299999999916,3.092799999999897,1.353100000000268.328600000000279-.1875.989800000000287-.749100000000908,1.984600000000228-1.686600000000908l1.616500000000087.826200000001336c-.597400000000107.772499999999127-1.264400000000023,1.411099999999351-2.001500000000306,1.914999999999054.970700000000306.444400000000314,1.924800000000232,1.053799999999683,2.862800000000334,1.827199999999721Z"/><path class="uuid-9aa17672-d9ba-440a-ac07-302e7143ba12" d="M276.057886062989837,367.292490114614338c2.366700000000037,2.659100000000763,3.550799999999981,5.253899999999703,3.550799999999981,7.783699999999953,0,1.229900000000271-.319299999999657,2.208000000000538-.958499999999731,2.934000000000196-.637200000000121.727100000000064-1.530700000000252,1.089899999999943-2.679200000000037,1.089899999999943-.632300000000214,0-1.39449999999988-.076699999999619-2.284099999999853-.228100000000268l-.649900000000343-2.337399999999434c1.253900000000158.316899999999805,2.15520000000015.474699999999757,2.705500000000029.474699999999757.456100000000333,0,.872600000000148-.176300000000083,1.24810000000025-.526899999999841.375-.351599999999962.5625-.820300000000316.5625-1.406200000000354,0-.877999999999702-.322300000000268-2.0024999999996-.966600000000199-3.373599999999897-.644800000000032-1.370099999999184-1.611599999999726-2.676300000000083-2.899599999999737-3.917500000000473l3.426699999999983-8.80369999999948h-5.218000000000302v27.990300000000389h-2.302499999999782v-30.221199999999953h9.856400000000122v2.230899999999565l-3.391600000000381,8.311099999999897ZM300.288886062990059,380.523390114614813c-.305200000000241,1.897499999999127-.714800000000196,3.274400000000242-1.231000000000222,4.127899999999499-.514599999999973.855500000000575-1.352999999999611,1.283699999999953-2.511700000000019,1.283699999999953h-2.740699999999833c-1.828100000000177,0-2.740999999999985-.960900000000038-2.740999999999985-2.881299999999101v-9.29490000000078h-3.708200000000033c-.069799999999759,3.771500000000742-.805199999999786,6.597600000000057-2.204600000000028,8.477500000000873-1.400099999999838,1.879899999999907-3.996599999999944,3.457999999998719-7.79300000000012,4.735399999999572l-1.475599999999758-2.020500000000538c3.525399999999991-1.041999999999462,5.944899999999961-2.390199999999822,7.25689999999986-4.041999999999462,1.311999999999898-1.651400000000649,1.973100000000159-4.023000000000138,1.985300000000279-7.115300000000389h-4.814400000000205v-2.302199999999175h18.819300000000112v2.267099999999118h-5.870600000000195v8.75c0,.292400000000271.094000000000051.565400000000409.281700000000001.816899999999805.18730000000005.252400000000307.410200000000259.377400000000307.66800000000012.377400000000307h2.231699999999819c.456300000000283,0,.805400000000191-.374499999999898,1.045700000000124-1.124499999999898.238699999999881-.748999999999796.441400000000158-1.721199999999953.60590000000002-2.916500000000269l2.196300000000065.861300000000483ZM298.267886062989874,364.586890114615017l-2.23090000000002.035099999999147v-3.09269999999924h-13.248599999999897v3.09269999999924h-2.266799999999876v-5.324199999999109h7.71309999999994v-3.988300000000891h2.302700000000186v3.953700000000026h7.730499999999665v5.323700000000827ZM295.316686062989902,367.977490114614739h-11.878400000000056v-2.301300000000083h11.878400000000056v2.301300000000083Z"/><path class="uuid-9aa17672-d9ba-440a-ac07-302e7143ba12" d="M384.455706062989975,380.610790114615156h-14.145500000000084v2.442900000000009c0,2.611299999999574-1.388699999999972,3.917999999999665-4.16359999999986,3.917999999999665h-2.336900000000242l-.861599999999726-2.161200000000463h3.268299999999726c1.14850000000024,0,1.722700000000259-.527299999999741,1.722700000000259-1.581500000000233v-2.618199999998978h-15.427999999999884v-2.19630000000052h15.427999999999884v-1.511199999999917c2.447700000000168-.913099999999758,4.199200000000019-1.768600000000333,5.252899999999954-2.564900000000307h-13.458999999999833v-2.020999999999731h17.359199999999873v1.914999999999964c-1.826399999999921,1.242199999999684-4.088200000000143,2.513200000000325-6.782000000000153,3.813000000000102v.369099999999889h14.145500000000084v2.19630000000052ZM382.978606062989911,374.092790114615127h-2.107899999999972v-3.637700000001132h-24.545399999999972v3.847600000000966h-2.302700000000186v-5.902299999999741h3.023400000000038v-10.718800000000556c1.661600000000362-.16359999999986,3.483900000000176-.954600000000028,5.462899999999991-2.372100000000501l1.160200000000259,1.616700000000492c-1.065900000000056.983899999999267-2.518100000000231,1.727600000000166-4.356999999999971,2.231499999999869v1.475599999999758h4.497599999999693v1.82760000000053h-4.497599999999693v1.915100000000166h4.497599999999693v1.791900000000169h-4.497599999999693v2.232500000000073h18.67679999999973v-2.232500000000073h-4.287100000000009v-1.756800000001022h4.287100000000009v-2.055699999998978h-4.251699999999801v-1.792400000000271h4.251699999999801v-1.914600000000064h-4.972199999999702v-2.126000000000204h7.203199999999924v11.841800000000148h2.758699999999862v5.72860000000037ZM373.016706062990124,360.457990114614404l-1.23090000000002,1.510199999999713c-.66800000000012-.643999999999323-1.575200000000223-1.340299999999843-2.723700000000008-2.090299999999843-.94820000000027.796900000000278-2.014099999999871,1.529300000000148-3.197000000000116,2.19630000000052l-1.441100000000006-1.26470000000063c1.137200000000121-.468699999999444,2.133299999999963-1.019000000000233,2.987799999999879-1.651799999999639-1.429699999999684-.53859999999986-2.583099999999831-.91359999999986-3.461499999999887-1.124499999999898l.895500000000084-1.616700000000492c1.300799999999981.328600000000733,2.606999999999971.75,3.91800000000012,1.26510000000053.831499999999778-.784200000000055,1.529299999999694-1.586900000000242,2.092299999999796-2.407199999999648l1.475600000000213,1.177700000000186c-.469500000000153.725599999999758-1.079100000000381,1.434599999999591-1.828200000000379,2.125999999999294.867200000000139.49119999999948,1.704600000000028,1.11869999999999,2.513200000000325,1.879899999999907ZM373.227206062989808,366.853490114614033l-1.475599999999758,1.159700000000157c-.949500000000171-.72609999999986-1.933100000000195-1.329599999999118-2.951399999999921-1.810099999999693-.633600000000115.480500000000575-1.756600000000162,1.083999999999833-3.374299999999948,1.810099999999693l-1.334900000000289-1.054699999999684c1.511199999999917-.714399999999841,2.594200000000001-1.334499999999935,3.250900000000001-1.862299999999777-.656700000000001-.410200000000259-1.652799999999843-.86620000000039-2.987799999999879-1.370100000000093l1.317900000000009-1.107500000000073c1.206499999999778.433600000000297,2.237299999999777.885299999999916,3.091800000000148,1.353100000000268.328099999999722-.1875.98929999999973-.749100000000908,1.985799999999927-1.686600000000908l1.616299999999683.826200000001336c-.597199999999702.772499999999127-1.265199999999822,1.411099999999351-2.002999999999702,1.914999999999054.972199999999702.444400000000314,1.927799999999934,1.053799999999683,2.86429999999973,1.827199999999721Z"/><path class="uuid-9aa17672-d9ba-440a-ac07-302e7143ba12" d="M468.848326062990054,385.214790114614516h-31.976999999999862v-2.266599999999926h14.898899999999685v-8.24119999999948h-10.735400000000027v-2.266600000000835h10.735400000000027v-7.168399999999565h-7.959499999999935c-.960399999999936,2.494599999999991-2.565399999999954,4.796299999999974-4.81439999999975,6.904700000000048l-2.318400000000111-1.211900000000242c3.840799999999945-3.548800000000483,5.978999999999814-7.895500000000538,6.412600000000111-13.037099999999555l2.372099999999591.685099999999693c-.093799999999646,1.194800000000214-.369199999999637,2.670900000000074-.826699999999619,4.428199999999379h7.099600000000009v-7.69629999999961h2.371399999999994v7.660700000000361h12.404499999999643v2.266599999999926h-12.404499999999643v7.133699999999408h10.577800000000025v2.266200000000026h-10.577800000000025v8.240700000000288h14.741399999999885v2.302200000000084Z"/><path class="uuid-9aa17672-d9ba-440a-ac07-302e7143ba12" d="M553.961646062989985,363.444290114613977l-1.264400000000023,1.827700000000732c-3.99389999999994-.983900000000176-7.122299999999996-2.119700000000194-9.383100000000013-3.408300000000054v1.580599999999322h-11.877899999999954v-1.739199999999983c-3.41989999999987,1.769000000000233-6.489300000000185,2.922800000000279-9.206099999999878,3.46140000000014l-1.159599999999955-1.84519999999975c6.582999999999629-1.604499999999462,12.06439999999975-4.287099999999555,16.445799999999963-8.046899999999368l2.160599999999704.720699999999852c-.234899999999925.292999999999665-.43939999999975.497999999999593-.61429999999973.614299999999275,3.88819999999987,3.233400000000984,8.855999999999767,5.511700000000928,14.898999999999887,6.834899999999834ZM550.219946062989948,373.512690114614088h-25.511700000000019v-8.240699999999379h25.511700000000019v8.240699999999379ZM548.129146062990003,387.005790114614683h-2.162200000000212v-1.40520000000015h-16.973099999999704v1.40520000000015h-2.160600000000159v-11.648400000000038h21.295900000000074v11.648400000000038ZM536.408846062990051,371.615190114614961v-4.393100000000231h-9.539999999999964v4.393100000000231h9.539999999999964ZM545.966946062989791,379.556590114614664v-2.266599999999926h-16.973099999999704v2.266599999999926h16.973099999999704ZM545.966946062989791,383.703090114614497v-2.301800000000185h-16.973099999999704v2.301800000000185h16.973099999999704ZM534.071946062989809,369.875990114614979l-1.809799999999996,1.264599999999518c-1.088599999999587-1.100599999999758-2.154999999999745-1.914999999999964-3.196999999999662-2.442399999999907l1.826599999999871-1.05369999999948c1.242200000000139.52639999999883,2.301300000000083,1.270499999999629,3.180199999999786,2.231499999999869ZM542.593246062990147,361.494590114614766c-1.69800000000032-.889600000000428-3.343100000000049-2.090799999999945-4.936300000000301-3.602499999999964-1.700199999999768,1.405700000000252-3.602599999999711,2.606899999999769-5.710699999999633,3.602499999999964h10.646999999999935ZM548.05834606299004,371.615190114614961v-4.393100000000231h-9.48739999999998v4.393100000000231h9.48739999999998ZM545.932846062989938,368.259290114614487c-.691899999999805,1.101000000000568-1.734699999999975,2.037599999999657-3.128499999999804,2.810999999999694l-1.932099999999991-.965799999999945c1.533699999999953-.867199999999684,2.588399999999638-1.734399999999368,3.162599999999657-2.60109999999986l1.898000000000138.755900000000111Z"/></g></svg>