<?xml version="1.0" encoding="UTF-8"?><svg id="uuid-0f21483c-0a7b-4aa7-b931-9b895720ef4f" xmlns="http://www.w3.org/2000/svg" width="568.769376992912157mm" height="250.00126013424628mm" xmlns:xlink="http://www.w3.org/1999/xlink" viewBox="0 0 1612.259675532201982 708.664999999999054"><defs><style>.uuid-c576d798-f482-4b12-b211-e104e3d6e1a5{fill:#fff;}.uuid-8d21a0b8-ed85-4a80-958b-b8f7907ce4a1{fill:none;}.uuid-cfcb3c69-4ead-45fb-852c-e530f39d21af{fill:#333e48;}.uuid-3a8f8bc3-6e05-4a46-ba58-306f7e16fd07{fill:#9f9ea7;}.uuid-52a1c8ff-12ac-4d2c-b91e-d878de1a37bc{clip-path:url(#uuid-ae3073a5-e54b-45e2-a286-41dec4b6b03e);}.uuid-e9d86abf-7e58-4522-99ff-b4aac584c2a8{fill:#5a5c66;}.uuid-f2fd7c3d-18af-46a0-8ee1-7368b095f000{fill:#858591;}</style><clipPath id="uuid-ae3073a5-e54b-45e2-a286-41dec4b6b03e"><rect class="uuid-8d21a0b8-ed85-4a80-958b-b8f7907ce4a1" x=".000999999999294" width="1612.258675532202687" height="708.664999999999054"/></clipPath></defs><g class="uuid-52a1c8ff-12ac-4d2c-b91e-d878de1a37bc"><path class="uuid-e9d86abf-7e58-4522-99ff-b4aac584c2a8" d="M155.408199999999852,341.493099999999686c7.554699999999684,0,13.676699999999983,6.123999999999796,13.676699999999983,13.675799999999981-.001900000000205-.278299999999945-.011700000000019-.557600000000093-.011700000000019-.836900000000242,0-102.310599999999795,82.935599999999795-185.248999999999796,185.248999999999796-185.248999999999796,7.551800000000185,0,13.674799999999777-6.122099999999591,13.674799999999777-13.674799999999777,0-7.552800000000389-6.122999999999593-13.675800000000891-13.674799999999777-13.675800000000891-28.688400000000001,0-56.534099999999853,5.625-82.762700000000223,16.718700000000354-25.319300000000112,10.708999999999833-48.052699999999277,26.033199999999852-67.567299999999705,45.548900000000685-19.51760000000013,19.517499999999927-34.843799999999646,42.25-45.550799999999981,67.570299999999406-11.093799999999646,26.228500000000167-16.717800000000352,54.073199999999815-16.717800000000352,82.761700000000019,0,.279300000000148.007800000000316.558600000000297.009800000000723.836900000000242,0-7.551800000000185,6.121099999999387-13.675799999999981,13.674799999999777-13.675799999999981Z"/><path class="uuid-f2fd7c3d-18af-46a0-8ee1-7368b095f000" d="M340.646499999999833,553.255799999998999c0-7.552699999999277,6.122000000000298-13.675799999999072,13.675699999999779-13.675799999999072-102.032199999999648,0-184.787099999999555-82.486300000000483-185.237299999999777-184.41110000000026,0-7.551800000000185-6.122000000000298-13.675799999999981-13.676699999999983-13.675799999999981-7.55370000000039,0-13.674799999999777,6.123999999999796-13.674799999999777,13.675799999999981.108399999998255,28.393600000000333,5.722599999998238,55.952099999999518,16.707999999999629,81.924799999999777,10.707000000000335,25.318400000000111,26.033199999999852,48.052700000000186,45.550799999999981,67.568400000000111,19.514600000000428,19.517499999999927,42.247999999999593,34.841800000000148,67.567299999999705,45.550699999999779,26.22860000000037,11.09479999999985,54.074300000000221,16.71979999999985,82.762700000000223,16.71979999999985-7.55369999999948,0-13.675699999999779-6.123099999999795-13.675699999999779-13.676800000000185Z"/><path class="uuid-3a8f8bc3-6e05-4a46-ba58-306f7e16fd07" d="M502.521499999999833,487.406199999999444c-5.342800000000352-5.341800000000148-14-5.341800000000148-19.341800000000148,0-33.340900000000147,32.289099999999962-78.775399999999536,52.173800000000483-128.857500000000073,52.173800000000483-7.55369999999948,0-13.675699999999779,6.123099999999795-13.675699999999779,13.675799999999072,0,7.55370000000039,6.122000000000298,13.676800000000185,13.675699999999779,13.676800000000185,28.689500000000407,0,56.533199999999852-5.625,82.760800000000017-16.71979999999985,24.407199999999648-10.322199999999611,46.400400000000445-24.947199999999611,65.438500000000204-43.466800000000148,5.340799999999945-5.339799999999741,5.340799999999945-14,0-19.339799999999741Z"/><path class="uuid-3a8f8bc3-6e05-4a46-ba58-306f7e16fd07" d="M466.90520000000015,241.747999999999593c-30.071200000000317-30.070300000000316-70.055600000000595-46.629899999999907-112.584900000000744-46.629899999999907-42.52639999999974,0-82.510800000000017,16.559599999999591-112.581999999999425,46.629899999999907-30.07130000000052,30.072299999999814-46.634799999999814,70.056599999999889-46.634799999999814,112.583999999999833,0,42.529300000000148,16.563499999999294,82.507800000000316,46.634799999999814,112.582000000000335,30.071199999999408,30.07129999999961,70.055599999999686,46.635800000000017,112.581999999999425,46.635800000000017,42.529300000000148,0,82.513700000000426-16.564500000000407,112.584900000000744-46.635800000000017,30.070399999999609-30.074200000000019,46.629899999999907-70.052700000000186,46.629899999999907-112.582000000000335,0-42.527399999999943-16.559500000000298-82.511700000000019-46.629899999999907-112.583999999999833Z"/><path class="uuid-cfcb3c69-4ead-45fb-852c-e530f39d21af" d="M242.112299999999777,405.822199999999611v-102.977499999999964h22.333999999999833v7.612299999999777h-12.945300000000316v87.751900000000205h12.945300000000316v7.613299999999981h-22.333999999999833Z"/><path class="uuid-cfcb3c69-4ead-45fb-852c-e530f39d21af" d="M466.53020000000015,302.844699999999648v102.977499999999964h-22.330000000000837v-7.613299999999981h12.939400000000205v-87.751900000000205h-12.939400000000205v-7.612299999999777h22.330000000000837Z"/><path class="uuid-c576d798-f482-4b12-b211-e104e3d6e1a5" d="M293.981399999999667,375.251899999999296c0,2.055699999999888.032199999999648,4.483400000000074.095699999999852,7.270500000000538.0625,2.789099999999962.151400000000649,5.623999999999796.25880000000052,8.497099999999591.106499999999869,2.875.234399999999368,5.623000000000502.386700000000019,8.240200000000186.147500000000036,2.617199999999684.331099999999424,4.804699999999684.545900000000074,6.5625h-13.193300000000818v-72.730500000000575c0-6.26260000000002-.106499999999869-11.9375-.322299999999814-17.022399999999834-.212899999999536-5.085900000000038-.53519999999935-9.495100000000093-.965799999999945-13.224599999999555h13.194300000000112v72.407199999999648Z"/><path class="uuid-c576d798-f482-4b12-b211-e104e3d6e1a5" d="M351.586899999999332,340.17279999999937v8.433600000000297h-12.100599999999758v48.78610000000026h12.100599999999758v8.431699999999182h-36.040999999999258v-8.431699999999182h11.906199999999444v-48.78610000000026h-11.906199999999444v-8.433600000000297h36.040999999999258Z"/><path class="uuid-c576d798-f482-4b12-b211-e104e3d6e1a5" d="M378.620100000000093,340.17279999999937c.256799999999203.6875.514599999999518,1.576200000000426.771499999999833,2.673799999999574.260699999999815,1.092800000000352.492199999999684,2.239300000001094.708999999999833,3.440500000000611.211900000000242,1.201100000000224.40520000000015,2.381800000000112.579999999999927,3.541000000000167l.511800000000221,2.89260000000013c4.121099999999387-4.88970000000063,8.258699999999408-8.417000000000371,12.421800000000076-10.585000000000036,4.163099999999758-2.166000000000167,8.5-3.251000000000204,13.002999999999702-3.251000000000204,3.433600000000297,0,6.469699999999648.568400000000111,9.10739999999987,1.706100000000333,2.638700000000426,1.139599999999518,4.860300000000279,2.941399999999703,6.663099999999758,5.406199999999444,1.799800000000687,2.468800000000556,3.16110000000026,5.666000000000167,4.086900000000242,9.590799999999945.921900000000278,3.927800000000389,1.382800000000316,8.654300000000148,1.382800000000316,14.194400000000314v28.957999999999629c0,7.253900000000613-.634799999999814,13.273400000000038-1.900400000000445,18.054699999999684-1.263699999999517,4.787100000000464-3.036099999999351,8.605400000000373-5.308599999999387,11.460900000000038-2.272400000000744,2.849600000000464-5.010700000000725,4.867200000000594-8.207000000000335,6.046900000000278-3.19629999999961,1.181600000000799-6.746100000000297,1.769500000000335-10.652399999999943,1.769500000000335-1.929699999999684,0-4-.310500000000502-6.210900000000038-.931599999999889-2.208999999999833-.625-4.214799999999741-1.490300000000389-6.01760000000013-2.60739999999987l4.184600000000501-9.654300000000148c.986299999999574.728499999999258,2.305699999999888,1.339799999999741,3.957999999999629,1.835900000000038,1.65139999999974.492199999999684,3.336900000000242.738299999999981,5.050799999999981.738299999999981,2.0625,0,3.907199999999648-.332100000000537,5.53899999999976-.996100000000297,1.629899999999907-.666000000000167,3.011800000000221-1.833999999999833,4.14850000000024-3.507800000000316,1.137700000000223-1.673899999999776,2.006800000000112-3.968799999999646,2.608400000000074-6.886699999999109.599599999999555-2.920000000000073.900399999999536-6.630900000000111.900399999999536-11.134800000000723v-28.32129999999961c0-5.148400000000038-.268599999999424-9.322300000000723-.804699999999684-12.51760000000013-.536199999999553-3.19629999999961-1.342800000000352-5.686499999999796-2.415100000000166-7.466800000000148-1.071199999999408-1.780300000000352-2.412999999999556-2.971700000000055-4.024399999999332-3.574200000000019-1.605400000000373-.59769999999935-3.483400000000074-.899399999999332-5.629900000000816-.899399999999332-2.315399999999499,0-4.577099999999518.54779999999937-6.787099999999555,1.643499999999221-2.209899999999834,1.092800000000352-4.24120000000039,2.509800000000723-6.085900000000038,4.247100000000501-1.844699999999648,1.736299999999574-3.474599999999555,3.697299999999814-4.889600000000428,5.888699999999517-1.415099999999256,2.1875-2.468799999999646,4.375-3.156299999999646,6.564400000000205v37.332099999999627h-11.905300000000352v-39.583999999999833c0-6.350599999999758-.365199999999277-11.724599999999555-1.095699999999852-16.123999999999796-.727499999999964-4.397500000000036-1.438499999999294-7.712899999999536-2.123999999999796-9.943400000000111h11.587900000000445Z"/><path class="uuid-cfcb3c69-4ead-45fb-852c-e530f39d21af" d="M731.926286563805661,379.628799999999501h-54.992699999999786v-9.129899999999907h54.992699999999786v9.129899999999907ZM724.769486563805913,476.834399999999732h-9.421400000000176v-10.005900000000111h-21.982899999999972v10.005900000000111h-9.566899999999805v-49.369599999999991h40.971199999999953v49.369599999999991ZM724.330986563805709,398.471599999998944l-40.386700000000019.145000000000437v-9.127399999999398h40.386700000000019v8.982399999998961ZM724.47698656380544,417.604899999999361h-40.53269999999975v-9.128899999999703h40.53269999999975v9.128899999999703ZM722.651286563806025,361.078499999999622l-37.100000000000364.146499999999833v-9.128899999999703h37.100000000000364v8.98239999999987ZM715.348086563805737,457.845599999999649v-21.397899999999936h-22.128400000000511v21.397899999999936h22.128400000000511ZM809.705486563805607,417.751399999999194l-78.947699999999713.145500000000538v-8.98240000000078h19.572299999999814l4.236299999999574-22.566399999999703h-18.257799999999406v-8.983000000000175h19.718699999999444l3.140200000000732-16.725099999999657h-27.971200000000863v-9.128399999999601h72.520500000000538v8.982899999999972h-34.690499999999702l-2.994099999999889,16.725099999999657h30.089399999999841l-3.140700000000834,31.548400000000584h16.724600000000464v8.983399999999165ZM796.997486563805978,477.126399999999194h-9.420900000000074v-9.859399999999368h-36.954099999999926v9.859399999999368h-9.567300000000614v-49.515699999999924h55.942300000000614v49.515699999999924ZM787.576586563805904,458.283599999999751v-21.690400000000409h-37.100100000000566v21.690400000000409h37.100100000000566ZM786.115686563805866,386.201599999999416h-21.690400000000409l-4.235399999999572,22.712899999999536h23.662099999999555l2.263700000000426-22.712899999999536Z"/><path class="uuid-cfcb3c69-4ead-45fb-852c-e530f39d21af" d="M974.376886563805783,379.628799999999501h-132.77100000000064v-9.129899999999907h132.77100000000064v9.129899999999907ZM954.804686563805262,398.324599999999919h-94.941899999999805v-8.835399999999936h94.941899999999805v8.835399999999936ZM954.804686563805262,417.31289999999899h-94.941899999999805v-8.836899999999332h94.941899999999805v8.836899999999332ZM951.372486563805978,477.126399999999194h-9.420900000000074v-10.297899999999572h-68.504400000000714v10.297899999999572h-9.420899999999165v-49.661599999999453h87.346199999999953v49.661599999999453ZM951.226486563805338,360.129299999999603l-86.47019999999975.218799999999646v-8.836499999999432h86.47019999999975v8.617699999999786ZM941.951586563805904,457.845599999999649v-21.397899999999936h-68.504400000000714v21.397899999999936h68.504400000000714Z"/><path class="uuid-cfcb3c69-4ead-45fb-852c-e530f39d21af" d="M1139.050786563805559,450.688899999999194h-58.79110000000037v10.151300000000447c0,10.856999999999971-5.769500000000335,16.286199999999553-17.310499999999593,16.286199999999553h-9.712900000000445l-3.578099999998813-8.98239999999987h13.583999999998923c4.771500000000742,0,7.158200000001671-2.192399999999907,7.158200000001671-6.572799999999916v-10.882300000000214h-64.123100000001614v-9.128899999999703h64.123100000001614v-6.280800000000454c10.173799999998664-3.798299999999472,17.453099999998813-7.35109999999986,21.835899999998219-10.662599999999657h-55.943400000000111v-8.399400000000242h72.158300000000963v7.960900000000038c-7.597700000000259,5.161200000000463-16.994199999999182,10.443900000000212-28.191500000000815,15.847700000000259v1.534200000000055h58.79110000000037v9.128899999999703ZM1132.915986563805745,423.593199999999342h-8.765599999998813v-15.117199999999684h-102.02350000000115v15.994099999999889h-9.56880000000001v-24.538099999999758h12.560999999998785v-44.550700000000688c6.912100000001374-.680699999999888,14.486300000000483-3.967299999999341,22.714900000000853-9.858399999999165l4.820300000001225,6.718699999999444c-4.433600000000297,4.090299999999843-10.470700000001671,7.182600000000093-18.113300000000891,9.275400000000445v6.134799999999814h18.695299999999406v7.596199999999953h-18.695299999999406v7.95889999999963h18.695299999999406v7.448800000000119h-18.695299999999406v9.276300000000447h77.632799999999406v-9.276300000000447h-17.820299999999406v-7.302799999999479h17.820299999999406v-8.543900000000576h-17.673800000000483v-7.449200000000019h17.673800000000483v-7.96100000000024h-20.667999999999665v-8.83639999999923h29.943400000000111v49.223199999999451h11.466800000000148v23.807600000000093ZM1091.505786563805486,366.921299999999974l-5.111299999998664,6.280299999999443c-2.77730000000156-2.676800000000185-6.550800000000891-5.574300000000221-11.320300000001225-8.6899999999996-3.943400000000111,3.311499999999796-8.375,6.353499999999258-13.292999999999665,9.128399999999601l-5.988300000000891-5.258700000000317c4.722700000000259-1.94629999999961,8.859400000002097-4.23489999999947,12.41610000000037-6.864299999999275-5.941399999999703-2.239300000000185-10.736399999999776-3.79740000000038-14.388699999999517-4.673800000000483l3.726599999999962-6.72019999999975c5.402299999999741,1.364199999999983,10.831999999998516,3.117599999999584,16.285100000000966,5.258299999999508,3.456999999998516-3.259299999999712,6.353499999997439-6.595699999999852,8.691399999999703-10.004899999999907l6.134799999999814,4.894000000000233c-1.949200000000928,3.018100000000231-4.480500000001484,5.964399999999841-7.595700000001671,8.83640000000014,3.601500000000669,2.043999999999869,7.084000000000742,4.649900000000343,10.443300000000818,7.814500000000407ZM1092.380786563805486,393.504799999999705l-6.132800000001225,4.819800000000214c-3.943299999998999-3.018500000000131-8.035099999997328-5.525400000000445-12.269499999998516-7.52100000000064-2.628899999999703,1.995600000000195-7.302700000000186,4.502500000000509-14.021499999998923,7.52100000000064l-5.550800000000891-4.381800000000112c6.279299999998329-2.968800000000556,10.783199999999852-5.550799999999981,13.511699999999109-7.74120000000039-2.728499999999258-1.703599999999824-6.865200000000186-3.602600000000166-12.415999999999258-5.696799999999712l5.476599999999962-4.599600000000464c5.013699999999517,1.801300000000083,9.298800000000483,3.675300000000789,12.853500000001077,5.621600000000399,1.361299999998664-.777900000000045,4.113299999999072-3.114300000000185,8.251999999998588-7.010800000000017l6.718699999999444,3.432600000000093c-2.482399999998961,3.21389999999974-5.255799999998999,5.868199999999888-8.324199999999109,7.960999999999331,4.041000000001077,1.850600000000668,8.007799999999406,4.38130000000092,11.902299999999741,7.595200000000659Z"/><path class="uuid-cfcb3c69-4ead-45fb-852c-e530f39d21af" d="M1303.576186563806004,450.688899999999194h-58.79110000000037v10.151300000000447c0,10.856999999999971-5.769500000000335,16.286199999999553-17.308600000000297,16.286199999999553h-9.712799999999334l-3.578200000001743-8.98239999999987h13.584000000002561c4.769499999998516,0,7.156299999998737-2.192399999999907,7.156299999998737-6.572799999999916v-10.882300000000214h-64.121129999999539v-9.128899999999703h64.121129999999539v-6.280800000000454c10.175699999999779-3.798299999999472,17.453099999998813-7.35109999999986,21.837900000000445-10.662599999999657h-55.943400000000111v-8.399400000000242h72.156199999999444v7.960900000000038c-7.595699999999852,5.161200000000463-16.994099999999889,10.443900000000212-28.191399999999703,15.847700000000259v1.534200000000055h58.79110000000037v9.128899999999703ZM1297.443283485133179,423.593199999999342h-8.76749977851432v-15.117199999999684h-102.02349714281263v15.994099999999889h-9.566380000000208v-24.538099999999758h12.560579999999391v-44.550700000000688c6.91399999999885-.680699999999888,14.484300000000076-3.967299999999341,22.712900000000445-9.858399999999165l4.820299999999406,6.718699999999444c-4.429700000000594,4.090299999999843-10.468799999998737,7.182600000000093-18.113300000000891,9.275400000000445v6.134799999999814h18.697300000001633v7.596199999999953h-18.697300000001633v7.95889999999963h18.697300000001633v7.448800000000119h-18.697300000001633v9.276300000000447h77.632800000001225v-9.276300000000447h-17.818400000000111v-7.302799999999479h17.818400000000111v-8.543900000000576h-17.673799999998664v-7.449200000000019h17.673799999998664v-7.96100000000024h-20.667999999999665v-8.83639999999923h29.943397211050979v49.223199999999451h11.468699710276269v23.807600000000093ZM1258.632786563805894,391.865599999999176l-6.654300000000148,6.084000000000742c-3.037100000001374-4.563500000000204-7.382799999999406-10.276400000000649-11.585900000000038-13.824700000000121-6.533199999999852,7.280299999999443-11.906300000000556,11.913099999999758-16.105499999999665,13.894099999999526l-6.584000000000742-5.529300000000148c4.949200000000928-2.354499999999462,10.316400000001522-6.751999999999498,16.107399999998961-13.203199999999924-6.583999999998923-4.100099999999657-11.275399999998626-6.636700000000019-14.076099999998405-7.604999999999563l5.744099999999889-5.940900000000511c2.333999999998923.921900000000278,6.718699999999444,3.315500000000611,13.166000000001077,7.189500000000407,1.915999999997439-3.135299999999916,3.406299999998737-6.568400000000111,4.480499999997846-10.301300000000083h-21.990299999999479v-8.639100000000326h11.789099999999962v-8.896499999999833h7.566399999999703v8.896499999999833h13.992200000000594v8.639100000000326h-2.769499999998516c-1.554700000000594,5.71730000000025-3.646500000002561,10.670399999999972-6.275400000002264,14.862799999999879,5.08980000000156,3.869099999999889,9.974600000001374,9.766599999999926,13.195300000001225,14.373999999999796Z"/><path class="uuid-cfcb3c69-4ead-45fb-852c-e530f39d21af" d="M1470.511679113057653,379.337299999999232l-5.2577998671768,7.594700000000557c-16.60349958056031-4.08980000000065-29.601599252200685-8.811999999999898-38.998099014825129-14.167900000000373v6.573199999999815h-49.371098752781108v-7.230899999999565c-14.21669964085595,7.35149999999976-26.972599318614812,12.14890000000014-38.26949491446976,14.387200000000121l-4.818303997040857-7.668000000000575c27.361303997042342-6.66989999999987,50.146398733195383-17.818899999999303,68.357398273146828-33.449200000000019l8.98239977308549,2.994099999999889c-.974599975379533,1.218300000000454-1.826199953866308,2.070300000000316-2.556599935414852,2.555700000000797,16.163999591663014,13.438899999999194,36.808599070136552,22.909200000000055,61.931598435476189,28.411099999999351ZM1454.955079506050424,421.183999999999287h-106.041097321176494v-34.251999999999498h106.041097321176494v34.251999999999498ZM1446.265579725565658,477.272399999999834h-8.982393161759319v-5.842800000000352h-70.548804829113578v5.842800000000352h-8.982499773082964v-48.420399999999972h88.513697763955861v48.420399999999972ZM1397.552680956157019,413.296800000000076v-18.258300000000418h-39.656198998200125v18.258300000000418h39.656198998200125ZM1437.283186563806339,446.306999999999789v-9.420900000000074h-70.548804829113578v9.420900000000074h70.548804829113578ZM1437.283186563806339,463.542399999999361v-9.567399999999907h-70.548804829113578v9.567399999999907h70.548804829113578ZM1387.839781201525511,406.065799999999399l-7.521499809990928,5.25880000000052c-4.527299885630782-4.575700000000325-8.95889977367915-7.959500000000844-13.292899664193101-10.151400000000649l7.595699808116478-4.382299999999304c5.160105028347971,2.190899999999601,9.566399758332409,5.283699999999953,13.21869966606755,9.274899999999434ZM1423.261680306693052,371.230899999999565c-7.060493742887047-3.699700000000121-13.902299648798362-8.690999999999804-20.523399481535307-14.972700000000259-7.060599821634241,5.842800000000352-14.970699621808308,10.833999999999833-23.734399400416805,14.972700000000259h44.257798881952112ZM1445.974579732916936,413.296800000000076v-18.258300000000418h-39.437499003724952v18.258300000000418h39.437499003724952ZM1437.136679956181069,399.347599999999147c-2.872999927421915,4.576600000000326-7.206999817935866,8.472100000000864-12.999999671592377,11.6850000000004l-8.033199797064299-4.016599999999926c6.378899838855432-3.601999999999862,10.759799728184589-7.206000000000131,13.144499667942-10.809500000000298l7.888699800714676,3.141099999999824Z"/><path class="uuid-cfcb3c69-4ead-45fb-852c-e530f39d21af" d="M737.800286563807276,281.633199999999306l-2.640600000001541,3.510800000000017c-10.179699999999684-3-18.441399999999703-7.039600000000064-24.779299999999239-12.121099999999387-5.462900000000445,4.460900000000038-14.041000000001077,8.581499999999323-25.742200000000594,12.361299999999574l-2.939499999999498-3.569800000000214c11.320299999999406-3.140199999999822,19.880900000000111-6.950699999999415,25.681700000000092-11.43119999999999-5.820300000000316-5.5-9.732500000000073-12.189400000000205-11.730500000000575-20.070300000000316-1.08010000000013,2.780300000000352-2.5625,5.41990000000078-4.441399999999703,7.91990000000078l-3.177700000000186-2.909200000000055c2.519500000001244-3.000500000000102,4.546800000000076-6.291000000000167,6.087900000000445-9.871100000000297h-10.320400000000518v-3.688900000000103h24.0625v-10.260800000000017h3.869200000000092v10.199700000000121h24.480400000000373v3.690500000000611h-10.261700000000019c-1.798800000000483,10.439899999999398-5.9375,18.75-12.41990000000078,24.930099999999584,5.900400000000445,4.480499999999665,13.990200000000186,8.250500000000102,24.271500000001652,11.310099999999693ZM721.92918656380607,245.393000000000029h-23.218799999999646c1.59769999999935,9.260199999999713,5.507899999999609,16.709899999999834,11.72859999999946,22.350599999999758,6.079999999999927-5.660700000000361,9.910100000000057-13.110400000000482,11.490200000000186-22.350599999999758Z"/><path class="uuid-cfcb3c69-4ead-45fb-852c-e530f39d21af" d="M881.508962538831838,274.643000000000029h-24.15230000000065v4.171399999999267c0,4.45850000000064-2.369200000000092,6.690400000000409-7.109399999999368,6.690400000000409h-3.990300000000389l-1.468699999999444-3.690400000000409h5.578099999999722c1.96100000000024,0,2.941399999999703-.900399999999536,2.941399999999703-2.700699999999415v-4.470699999999852h-26.339819999999236v-3.75h26.339819999999236v-2.580100000001039c4.179699999999684-1.559599999999591,7.16989999999987-3.019499999999425,8.968800000000556-4.379899999999907h-22.980500000000575v-3.450199999999313h29.640599999999722v3.269999999999527c-3.11909999999898,2.120200000000295-6.980399999999463,4.290600000000268-11.579999999999927,6.510800000000017v.629400000000714h24.15230000000065v3.75ZM878.989462538831503,263.513599999999315h-3.601599999999962v-6.210000000000036h-41.912108999999873v6.568900000000212h-3.929691000000275v-10.079099999999926h5.16016000000036v-18.300799999999981c2.83983999999964-.279300000000148,5.951169999999365-1.629399999999805,9.332040000000234-4.049799999999777l1.978500000000167,2.759699999999611c-1.81840000000102,1.680699999999888-4.300770000000739,2.950700000000325-7.441400000000613,3.811099999999897v2.519000000000233h7.681599999999889v3.120600000000195h-7.681599999999889v3.269999999999527h7.681599999999889v3.059600000000501h-7.681599999999889v3.810599999999795h31.89260000000013v-3.810599999999795h-7.322299999999814v-3h7.322299999999814v-3.509299999999712h-7.259799999999814v-3.061000000000604h7.259799999999814v-3.269499999999425h-8.490300000000389v-3.629400000000714h12.298900000000685v20.219200000000455h4.712899999999536v9.780799999999545ZM861.977662538831282,240.23279999999977l-2.10149999999976,2.579600000000028c-1.138700000000426-1.099600000000464-2.689500000000407-2.289499999999862-4.64850000000024-3.569800000000214-1.621000000000095,1.360300000000279-3.441399999999703,2.610300000000279-5.460899999999128,3.75l-2.459000000000742-2.159700000000157c1.939500000000407-.800299999999879,3.638700000000426-1.739700000000084,5.099600000000464-2.819300000000112-2.441400000000613-.920399999999972-4.412100000000464-1.561099999999897-5.910100000000057-1.921400000000176l1.531199999999444-2.760299999999916c2.218800000000556.561100000000806,4.449200000000019,1.281300000000556,6.689500000000407,2.160700000000361,1.41989999999987-1.33889999999974,2.609400000000278-2.710000000000036,3.568299999999908-4.110399999999572l2.521499999999833,2.010800000000017c-.800799999999981,1.239199999999983-1.841800000000148,2.450199999999313-3.119099999999889,3.629899999999907,1.478500000000167.838799999999537,2.908199999999852,1.910099999999147,4.28899999999976,3.209899999999834ZM862.33706253883156,251.153199999999742l-2.519499999999425,1.979999999999563c-1.619200000001001-1.240199999999277-3.300799999999981-2.269999999999527-5.041000000000167-3.091300000000047-1.08010000000013.82130000000052-3,1.85110000000077-5.759799999999814,3.091300000000047l-2.281200000000354-1.801300000000083c2.582000000000335-1.218699999999444,4.431599999999889-2.278299999999945,5.550699999999779-3.17869999999948-1.119099999999889-.700700000000325-2.820300000000316-1.480000000000473-5.099600000000464-2.340300000000752l2.25-1.89009999999962c2.060600000000704.739700000000084,3.820300000000316,1.511199999999917,5.281300000000556,2.3100000000004.560499999999593-.320300000000316,1.689400000000205-1.278800000000047,3.388699999999517-2.879899999999907l2.759700000000521,1.410699999999451c-1.019500000000335,1.318299999999908-2.158199999999852,2.409599999999955-3.418000000000575,3.269000000000233,1.658300000000054.759299999999712,3.287200000000666,1.799299999999675,4.888700000000426,3.120600000000195Z"/><path class="uuid-cfcb3c69-4ead-45fb-852c-e530f39d21af" d="M981.7157185138567,251.903199999999742c4.040999999999258,4.539600000000064,6.0625,8.96979999999985,6.0625,13.289600000000064,0,2.100599999999758-.54490000000078,3.770499999999629-1.636700000000019,5.009699999999611-1.087899999999536,1.241299999999683-2.613299999999981,1.861899999999878-4.574300000000221,1.861899999999878-1.079999999999927,0-2.380799999999908-.131400000000212-3.900400000000445-.390199999999822l-1.109300000000076-3.99120000000039c2.140600000000632.541000000000167,3.679700000000594.810600000000704,4.619099999999889.810600000000704.779300000000148,0,1.490200000000186-.300799999999981,2.130900000000111-.900400000000445.640600000000632-.599599999999555.960900000000038-1.399400000000242.960900000000038-2.400399999999536,0-1.499000000000706-.550799999999981-3.419000000000779-1.650399999999536-5.759800000000723-1.10149999999976-2.339799999999741-2.751899999999296-4.569799999999304-4.951200000000426-6.689399999999296l5.851599999999962-15.030800000000454h-8.910100000000057v47.792000000000371h-3.931700000000092v-51.601599999999962h16.83010000000013v3.809599999999591l-5.790999999999258,14.190400000000409ZM1023.088715733148092,274.493599999999788c-.521499986825802,3.240200000000186-1.220699969162524,5.590799999999945-2.101499946911645,7.049799999999777-.878899977797118,1.459899999999834-2.310599941629334,2.190400000000409-4.289099891647311,2.190400000000409h-4.67969738073316c-3.121099999999387,0-4.679699999998775-1.640600000000632-4.679699999998775-4.919400000000678v-15.870600000000195h-6.332000000001244c-.119200000000092,6.439400000000205-1.375,11.264100000000326-3.763699999999517,14.474600000000464-2.390599999999722,3.210399999999936-6.824200000000019,5.90520000000015-13.306599999999889,8.08640000000014l-2.519600000000537-3.451200000000426c6.019600000000537-1.77980000000025,10.150400000000445-4.08009999999922,12.390699999999924-6.900399999999536,2.240200000000186-2.820300000000316,3.369099999999889-6.869599999999991,3.390600000000632-12.149900000000343h-8.220699999999852v-3.930199999999786h32.132797269273397v3.870699999999488h-10.023397269274028v14.940400000000409c0,.498999999999796.160100000000057.964799999999741.480400000000373,1.394999999999527.320299999999406.430200000000696.701199999999517.644000000000233,1.140699999999924.644000000000233h3.810497385271447c.779299980313226,0,1.374999965264578-.639599999999518,1.785199954902055-1.91989999999987.408199989688001-1.279300000000148.753902659826053-2.938900000000103,1.035099973851175-4.980399999999463l3.749999905267032,1.470699999999852ZM1019.637518513855866,247.282599999999547l-3.808502597312327.060599999999795v-5.280799999999545h-22.621097402687155v5.280799999999545h-3.871100000000297v-9.090400000000045h13.16989999999987v-6.809999999999491h3.931599999999889v6.75h13.199200000000019v9.089799999999741ZM1014.598518513856106,253.073099999999613h-20.281299999999646v-3.930099999999584h20.281299999999646v3.930099999999584Z"/><path class="uuid-cfcb3c69-4ead-45fb-852c-e530f39d21af" d="M1166.799370330299098,274.643000000000029h-24.152299389861582v4.171399999999267c0,4.45850000000064-2.371096288636181,6.690400000000409-7.10939982040145,6.690400000000409h-3.990199899199069l-1.470699962846993-3.690400000000409h5.579999859037343c1.960999950460973,0,2.941399925693986-.900399999999536,2.941399925693986-2.700699999999415v-4.470699999999852h-26.34179933455016v-3.75h26.34179933455016v-2.580100000001039c4.179699894411897-1.559599999999591,7.169999818870565-3.019499999999425,8.968803609079259-4.379899999999907h-22.980503255113945v-3.450199999999313h29.640599251215463v3.269999999999527c-3.11909599610226,2.120200000000295-6.980399823660264,4.290600000000268-11.579999707464594,6.510800000000017v.629400000000714h24.152299389861582v3.75ZM1164.277870393997546,263.513599999999315h-3.599599909066455v-6.210000000000036h-41.910098941261822v6.568900000000212h-3.931699900676904v-10.079099999999926h5.162099869594385v-18.300799999999981c2.837899928308616-.279300000000148,5.949199849710567-1.629399999999805,9.328199764349847-4.049799999999777l1.980399949970888,2.759699999999611c-1.820299954015354,1.680699999999888-4.298799891403178,2.950700000000325-7.439399812064948,3.811099999999897v2.519000000000233h7.67969980599446v3.120600000000195h-7.67969980599446v3.269999999999527h7.67969980599446v3.059600000000501h-7.67969980599446v3.810599999999795h31.890599194375682v-3.810599999999795h-7.320299815073668v-3h7.320299815073668v-3.509299999999712h-7.259799816602026v-3.061000000000604h7.259799816602026v-3.269499999999425h-8.490199785519508v-3.629400000000714h12.298803828101882v20.219200000000455h4.710895742196954v9.780799999999545ZM1147.268170823698711,240.23279999999977l-2.101599946909118,2.579600000000028c-1.140596224988258-1.099600000000464-2.689499932057515-2.289499999999862-4.650399882521015-3.569800000000214-1.619099959098094,1.360300000000279-3.439399913113448,2.610300000000279-5.458999862094061,3.75l-2.460899937832437-2.159700000000157c1.941399950956111-.800299999999879,3.642599907980184-1.739700000000084,5.10149987112527-2.819300000000112-2.441399938325048-.920399999999972-4.410099888591503-1.561099999999897-5.910099850698316-1.921400000000176l1.529303437031558-2.760299999999916c2.220696468235474.561100000000806,4.451196411888304,1.281300000000556,6.689396355346616,2.160700000000361,1.419999964127783-1.33889999999974,2.611399934030487-2.710000000000036,3.572299909756111-4.110399999999572l2.519499936352076,2.010800000000017c-.800699979770798,1.239199999999983-1.841799953472218,2.450199999999313-3.121099921154382,3.629899999999907,1.480499962599424.838799999999537,2.910199926482164,1.910099999999147,4.291099891597696,3.209899999999834ZM1147.627470814622029,251.153199999999742l-2.519496162822179,1.979999999999563c-1.621103732577467-1.240199999999277-3.300803690144676-2.269999999999527-5.039103646231524-3.091300000000047-1.081999972666381.82130000000052-2.999999924213625,1.85110000000077-5.761699854447215,3.091300000000047l-2.279299942420039-1.801300000000083c2.580103443098778-1.218699999999444,4.429699888096366-2.278299999999945,5.550799859774997-3.17869999999948-1.121099971678632-.700700000000325-2.822299928702705-1.480000000000473-5.101599871122744-2.340300000000752l2.249999943160219-1.89009999999962c2.060599947944866.739700000000084,3.820399903488578,1.511199999999917,5.279299866633664,2.3100000000004.560603644653384-.320300000000316,1.68949995731964-1.278800000000047,3.390699914343713-2.879899999999907l2.759699930284114,1.410699999999451c-1.019499974245264,1.318299999999908-2.160099945431284,2.409599999999955-3.419899913606059,3.269000000000233,1.660199958061639.759299999999712,3.290999916862347,1.799299999999675,4.890599876453052,3.120600000000195Z"/><path class="uuid-cfcb3c69-4ead-45fb-852c-e530f39d21af" d="M1310.89672491768124,282.503299999999399h-54.59959862069627v-3.869099999999889h25.439399357346701v-14.07130000000052h-18.330099536942726v-3.870099999999184h18.330099536942726v-12.240300000000389h-13.589799656692776c-1.640699958552432,4.260299999999916-4.380895206362766,8.190500000000611-8.22069979232765,11.790100000000166l-3.958999899987248-2.069800000000214c6.558599834315828-6.059599999999591,10.208999742098968-13.479999999999563,10.949199723399943-22.260299999999916l4.050799897668185,1.169399999999769c-.160195135116737,2.040600000000268-.630899984062125,4.561100000000806-1.412099964327354,7.561100000000806h12.122999693747261v-13.140200000000732h4.048799897718709v13.079099999999926h21.179699464955775v3.870600000000195h-21.179699464955775v12.180699999999888h18.060599543750868v3.869599999999991h-18.060599543750868v14.070800000000418h25.169999364150499v3.929699999999684Z"/><path class="uuid-cfcb3c69-4ead-45fb-852c-e530f39d21af" d="M1456.224579473980157,245.331899999999223l-2.158199945479282,3.120600000000195c-6.820292603772032-1.679599999999482-12.162099692759512-3.619599999999991-16.021499595262867-5.819300000000112v2.698699999999917h-20.281199487653794v-2.968699999999444c-5.839899852471717,3.019999999999527-11.080099720093131,4.989700000000084-15.718799602909712,5.909700000000157l-1.980499949968362-3.150400000000445c11.240299716046138-2.740299999999479,20.599706032022368-7.320300000000316,28.080099290637008-13.740299999999479l3.68949990679539,1.230999999999767c-.400399989885045.5-.749999981053406.850099999999657-1.048893165410846,1.049299999999675,6.63869302420062,5.520499999999629,15.121092809917172,9.410600000000159,25.439492549252464,11.669399999999769ZM1449.835879635372294,262.523799999999028h-43.560498899569211v-14.07129999999961h43.560498899569211v14.07129999999961ZM1446.265579725565658,285.56289999999899h-3.691399906747392v-2.39889999999923h-28.980499267890991v2.39889999999923h-3.689399906797917v-19.889699999999721h36.3612990814363v19.889699999999721ZM1426.253880231103722,259.282599999999547v-7.5h-16.289099588502722v7.5h16.289099588502722ZM1442.574179818818266,272.843199999999342v-3.869699999999284h-28.980499267890991v3.869699999999284h28.980499267890991ZM1442.574179818818266,279.923199999999269v-3.929599999999482h-28.980499267890991v3.929599999999482h28.980499267890991ZM1422.263680331904652,256.31289999999899l-3.08989992194256,2.160600000001068c-1.859399953027605-1.879400000000714-3.679693485233656-3.269500000000335-5.458999862094061-4.16990000000078l3.11919992120238-1.800299999999879c2.121106455657355.899900000000343,3.929699900727428,2.16989999999987,5.429699862834241,3.809599999999591ZM1436.814379964323052,242.003299999999399c-2.900293039594544-1.519499999999425-5.708899855781056-3.570300000000316-8.429599787050392-6.151299999999537-2.902399926679209,2.400799999999435-6.150399844627827,4.451599999999416-9.749999753694283,6.151299999999537h18.179599540744675ZM1446.144479728624901,259.282599999999547v-7.5h-16.199199590773787v7.5h16.199199590773787ZM1442.515579820298626,253.553599999999278c-1.181599970150273,1.879399999999805-2.960899925201375,3.479000000000269-5.341799865054782,4.799300000000585l-3.298799916665303-1.64890000000014c2.619106886149893-1.480499999999665,4.419899888343934-2.96140000000014,5.400399863574421-4.440400000000409l3.240199918145663,1.289999999999964Z"/></g></svg>