<?xml version="1.0" encoding="UTF-8"?><svg id="uuid-f89aae4a-db00-4a5f-b1dd-8a13a3d32ba2" xmlns="http://www.w3.org/2000/svg" width="690.993125455657605mm" height="250.000907356474045mm" xmlns:xlink="http://www.w3.org/1999/xlink" viewBox="0 0 1958.720699999999852 708.66399999999976"><defs><style>.uuid-f35c7183-a104-4ff5-95f8-d63b96b53452{fill:#fff;}.uuid-57021734-4f9c-45f6-a776-c4a8e7a24fd2{fill:none;}.uuid-ec4bd062-ae35-4b34-97c6-589f564bd10e{fill:#333e48;}.uuid-84147418-f8f2-4030-845a-02b1793613b9{fill:#9f9ea7;}.uuid-000156e2-574d-43ab-9dd9-39401ea9ec01{fill:#5a5c66;}.uuid-95979303-4912-4906-9455-92611eae9d87{fill:#858591;}.uuid-87932b2e-ef7c-41ed-a474-246bc628168d{clip-path:url(#uuid-986a010c-2bea-444a-b668-5c066695a334);}</style><clipPath id="uuid-986a010c-2bea-444a-b668-5c066695a334"><rect class="uuid-57021734-4f9c-45f6-a776-c4a8e7a24fd2" width="1958.720699999999852" height="708.66399999999976"/></clipPath></defs><g class="uuid-87932b2e-ef7c-41ed-a474-246bc628168d"><path class="uuid-000156e2-574d-43ab-9dd9-39401ea9ec01" d="M155.417999999999665,341.492099999999482c7.554599999999482,0,13.675699999999779,6.125,13.675699999999779,13.675799999999981-.001899999999296-.277299999999741-.011699999999109-.556599999999889-.011699999999109-.835900000000038,0-102.310599999999795,82.935599999998885-185.25,185.25-185.25,7.550799999999072,0,13.673899999999776-6.121099999999387,13.673899999999776-13.673799999999574,0-7.552800000000389-6.123100000000704-13.675800000000891-13.673899999999776-13.675800000000891-28.689400000001115,0-56.535100000000966,5.625-82.763600000000224,16.718700000000354-25.318400000000111,10.708999999999833-48.052799999999479,26.033199999999852-67.566500000000815,45.548900000000685-19.517499999999927,19.516599999999016-34.843699999999444,42.25-45.550699999999779,67.569299999999203-11.093800000000556,26.229500000000371-16.718800000000556,54.073200000000725-16.718800000000556,82.762700000000223,0,.279300000000148.007800000001225.558600000000297.009799999999814.835900000000038,0-7.550799999999981,6.121100000000297-13.675799999999981,13.675800000000891-13.675799999999981Z"/><path class="uuid-95979303-4912-4906-9455-92611eae9d87" d="M340.656199999999444,553.255799999998999c0-7.552699999999277,6.121100000000297-13.675799999999072,13.675800000000891-13.675799999999072-102.033200000001671,0-184.787100000001374-82.486300000000483-185.238300000000891-184.412100000000464,0-7.550799999999981-6.121100000000297-13.675799999999981-13.675699999999779-13.675799999999981-7.554700000000594,0-13.675800000000891,6.125-13.675800000000891,13.675799999999981.109400000001187,28.394600000000537,5.722600000000966,55.953099999999722,16.709000000000742,81.925799999999981,10.707000000000335,25.318400000000111,26.033199999999852,48.052700000000186,45.550699999999779,67.568400000000111,19.513700000001336,19.517499999999927,42.248100000000704,34.841800000000148,67.566500000000815,45.550699999999779,26.228499999999258,11.093800000000556,54.074199999999109,16.718800000000556,82.763600000000224,16.718800000000556-7.554700000000594,0-13.675800000000891-6.123100000000704-13.675800000000891-13.675800000000891Z"/><path class="uuid-84147418-f8f2-4030-845a-02b1793613b9" d="M502.531199999999444,487.406199999999444c-5.343699999999444-5.341800000000148-14-5.341800000000148-19.341800000000148,0-33.341800000000148,32.289099999999962-78.775299999999334,52.173800000000483-128.857399999998961,52.173800000000483-7.554700000000594,0-13.675800000000891,6.123099999999795-13.675800000000891,13.675799999999072,0,7.552700000000186,6.121100000000297,13.675800000000891,13.675800000000891,13.675800000000891,28.688500000000204,0,56.533199999999852-5.625,82.759799999999814-16.718800000000556,24.408199999999852-10.322199999999611,46.400399999998626-24.947199999999611,65.439399999999296-43.466800000000148,5.339899999999034-5.339799999999741,5.339899999999034-14,0-19.339799999999741Z"/><path class="uuid-84147418-f8f2-4030-845a-02b1793613b9" d="M466.914099999999962,241.747999999999593c-30.070400000000518-30.07129999999961-70.054700000000594-46.630900000000111-112.584000000000742-46.630900000000111-42.527399999999034,0-82.511699999999109,16.559600000000501-112.582099999999627,46.630900000000111-30.072200000000521,30.072299999999814-46.634700000000521,70.056599999999889-46.634700000000521,112.583999999999833,0,42.528299999999945,16.5625,82.507800000000316,46.634700000000521,112.582000000000335,30.070400000000518,30.070300000000316,70.054700000000594,46.634799999999814,112.582099999999627,46.634799999999814,42.529300000000148,0,82.513600000000224-16.564499999999498,112.584000000000742-46.634799999999814,30.070299999999406-30.074200000000019,46.630799999998999-70.05370000000039,46.630799999998999-112.582000000000335,0-42.527399999999943-16.560499999999593-82.511700000000019-46.630799999998999-112.583999999999833Z"/><path class="uuid-ec4bd062-ae35-4b34-97c6-589f564bd10e" d="M242.121099999998478,405.821199999999408v-102.977499999999964h22.334000000000742v7.613299999999981h-12.945299999999406v87.751900000000205h12.945299999999406v7.612299999999777h-22.334000000000742Z"/><path class="uuid-ec4bd062-ae35-4b34-97c6-589f564bd10e" d="M466.539099999999962,302.843699999999444v102.977499999999964h-22.33009999999922v-7.612299999999777h12.939399999999296v-87.751900000000205h-12.939399999999296v-7.613299999999981h22.33009999999922Z"/><path class="uuid-f35c7183-a104-4ff5-95f8-d63b96b53452" d="M293.990200000000186,375.251899999999296c0,2.054700000000594.033199999999852,4.48240000000078.095699999999852,7.269500000000335.0625,2.789099999999962.152399999999034,5.625.259799999999814,8.497099999999591.105499999999665,2.875.234399999999368,5.623099999999795.386699999999109,8.240200000000186.146500000000742,2.617199999999684.330100000001039,4.804699999999684.54490000000078,6.5625h-13.193299999998999v-72.729500000000371c0-6.263599999999315-.105500000001484-11.9375-.322300000001633-17.023400000000038-.212900000000445-5.085900000000038-.535099999999147-9.494099999999889-.964799999999741-13.224599999999555h13.193300000000818v72.408199999999852Z"/><path class="uuid-f35c7183-a104-4ff5-95f8-d63b96b53452" d="M351.595699999999852,340.171800000000076v8.433599999999387h-12.099600000001374v48.786199999999553h12.099600000001374v8.431600000000799h-36.041000000001077v-8.431600000000799h11.906200000001263v-48.786199999999553h-11.906200000001263v-8.433599999999387h36.041000000001077Z"/><path class="uuid-f35c7183-a104-4ff5-95f8-d63b96b53452" d="M378.628899999999703,340.171800000000076c.257799999999406.6875.514600000000428,1.576199999999517.771500000000742,2.673899999999776.261699999999109,1.093699999999444.492199999998775,2.240200000000186.708999999998923,3.441399999999703.212900000000445,1.201100000000224.406200000001263,2.380799999999908.579999999999927,3.541000000000167l.511800000000221,2.89260000000013c4.121100000000297-4.890699999999924,8.259700000000521-8.418000000000575,12.421800000000076-10.58600000000024,4.164099999999962-2.166000000000167,8.5-3.25,13.003899999999703-3.25,3.433600000000297,0,6.468800000000556.568400000000111,9.107500000000073,1.70510000000013,2.638600000000224,1.140599999999722,4.859300000000076,2.941399999999703,6.662100000001374,5.406199999999444,1.800799999999072,2.468800000000556,3.162099999999555,5.66610000000037,4.087899999998626,9.591800000000148.921800000000076,3.927800000000389,1.382799999999406,8.654300000000148,1.382799999999406,14.193400000000111v28.958999999999833c0,7.252900000000409-.634799999999814,13.273400000000038-1.900399999998626,18.054699999999684-1.263699999999517,4.787100000000464-3.037100000001374,8.604500000000371-5.308600000000297,11.459900000000744-2.273400000000038,2.849599999999555-5.011699999999109,4.868199999999888-8.207000000000335,6.046900000000278-3.197299999999814,1.181699999999182-6.746100000000297,1.770499999999629-10.652400000000853,1.770499999999629-1.929699999998775,0-4-.310500000000502-6.210899999998219-.932600000000093-2.209000000000742-.623999999999796-4.214900000000853-1.490200000000186-6.017600000001039-2.60739999999987l4.183600000000297-9.654300000000148c.986300000000483.729499999999462,2.306599999999889,1.339799999999741,3.959000000000742,1.835900000000038,1.650399999998626.492199999999684,3.335899999998219.738299999999981,5.050799999999072.738299999999981,2.0625,0,3.906199999999444-.331100000000333,5.539000000000669-.996100000000297,1.628899999999703-.664999999999964,3.011699999999109-1.833999999999833,4.148499999999331-3.506800000000112,1.136700000000928-1.674799999999777,2.005800000000818-3.96979999999985,2.60740000000078-6.887699999999313.599599999999555-2.918999999999869.900400000000445-6.629899999999907.900400000000445-11.134799999999814v-28.32130000000052c0-5.148400000000038-.267600000001039-9.322199999999611-.804700000000594-12.51760000000013-.535200000000259-3.195299999999406-1.342800000000352-5.685499999999593-2.414099999999962-7.466800000000148-1.072200000000521-1.779300000000148-2.414000000000669-2.970699999999852-4.025400000000445-3.574199999999109-1.605400000000373-.597600000000966-3.48240000000078-.898400000000038-5.628899999999703-.898400000000038-2.316399999999703,0-4.578100000000632.546899999999368-6.787100000001374,1.64259999999922-2.210899999998219,1.093700000000354-4.242199999998775,2.509700000000521-6.085899999998219,4.248000000000502-1.845700000001671,1.736299999999574-3.474600000001374,3.697299999999814-4.890600000000632,5.888699999999517-1.414099999999962,2.1875-2.468800000000556,4.375-3.156300000000556,6.564400000000205v37.331100000000333h-11.904300000000148v-39.583000000000538c0-6.351599999999962-.366199999998571-11.724599999999555-1.095699999999852-16.125-.728499999999258-4.396499999999833-1.439399999999296-7.712899999999536-2.125-9.943399999999201h11.587900000000445Z"/><path class="uuid-ec4bd062-ae35-4b34-97c6-589f564bd10e" d="M626.665976719670653,336.83429999999953v-100.471099999999751h12.090799694558882v89.819299999999203h42.75099892002072v10.651800000000549h-54.841798614579602Z"/><path class="uuid-ec4bd062-ae35-4b34-97c6-589f564bd10e" d="M703.385674781558919,245.143399999999019c-2.497099936908853,0-4.295899891469162-.597599999999147-5.39747478155914-1.798799999999574-1.104425054179956-1.199200000000019-1.656225040240315-2.756800000000112-1.656225040240315-4.67869999999948v-1.871100000000297c0-1.918499999999767.55179998606036-3.477499999999964,1.656225040240315-4.678200000000288,1.101574890089978-1.198800000000119,2.900374844650287-1.799299999999675,5.39747478155914-1.799299999999675,2.494125218441695,0,4.294025218439856.600499999999556,5.397525218440933,1.799299999999675,1.102500000000873,1.200700000000325,1.65519999999924,2.759700000000521,1.65519999999924,4.678200000000288v1.871100000000297c0,1.921899999999368-.552699999998367,3.479499999999462-1.65519999999924,4.67869999999948-1.103500000001077,1.201200000000426-2.903399999999237,1.798799999999574-5.397525218440933,1.798799999999574ZM697.627874927018638,262.561399999999594h11.515625072981493v74.272899999999936h-11.515625072981493v-74.272899999999936Z"/><path class="uuid-ec4bd062-ae35-4b34-97c6-589f564bd10e" d="M733.613199999999779,336.83429999999953v-74.272899999999936h11.515699999999924v11.953099999999722h.576100000000224c1.82129999999961-4.17869999999948,4.389699999999721-7.505799999999908,7.700199999999313-9.974599999999555,3.311600000000908-2.469700000000557,7.748100000000704-3.706500000000233,13.314500000000407-3.706500000000233,7.676800000001094,0,13.747100000000501,2.471199999999953,18.208999999998923,7.412599999999657,4.461900000002061,4.943300000000818,6.693300000000818,11.925699999999779,6.693300000000818,20.94380000000001v47.644500000000335h-11.514600000000428v-45.728500000000167c0-13.368599999999788-5.615200000000186-20.052700000000186-16.841799999998329-20.052700000000186-2.302700000000186,0-4.535200000002078.290500000000065-6.693400000000111.865700000000288-2.159100000000763.578099999999722-4.102500000000873,1.443900000000212-5.830000000001746,2.597700000000259-1.726599999998143,1.153800000000047-3.094799999998941,2.620100000000093-4.101599999998143,4.399400000000242-1.007800000001225,1.778800000000047-1.511700000000928,3.871099999999387-1.511700000000928,6.274899999999434v51.643500000000131h-11.515699999999924Z"/><path class="uuid-ec4bd062-ae35-4b34-97c6-589f564bd10e" d="M874.387699999999313,334.38760000000002c0,10.266599999999016-2.878899999999703,18.328099999999722-8.636800000000221,24.181599999999889-5.757799999999406,5.852999999999156-13.868099999999686,8.781299999999646-24.326100000000224,8.781299999999646-6.045899999999165,0-11.252999999998792-.940499999999702-15.618199999998978-2.818400000000111-4.367200000000594-1.882300000000214-7.988299999999072-4.363299999999981-10.867200000000594-7.447299999999814l6.765600000000632-7.952100000000428c2.494199999999182,2.568299999999908,5.373100000000704,4.54489999999987,8.636800000000221,5.926300000000083,3.260699999998906,1.380799999999908,7.052700000000186,2.070800000000418,11.371100000000297,2.070800000000418,6.715799999998126,0,11.921800000000076-1.855500000000575,15.617099999999482-5.563500000000204,3.693400000000111-3.71389999999974,5.541999999999462-9.183600000000297,5.541999999999462-16.411600000000362v-10.273999999999432h-.575199999999313c-2.20889999999963,4.561099999999897-5.087799999999334,7.979499999999462-8.636700000000928,10.259799999999814-3.551699999999983,2.281199999999444-7.916999999999462,3.421400000000176-13.099599999999555,3.421400000000176-4.605499999999665,0-8.779300000000148-.91359999999986-12.522399999999834-2.73490000000038-3.742200000000594-1.822199999999611-6.909200000000055-4.413099999999758-9.5-7.772399999999834-2.590899999999237-3.358400000000074-4.606499999999869-7.435599999999795-6.045900000000984-12.235399999999572-1.439499999998588-4.79740000000038-2.158199999998033-10.170900000000074-2.158199999998033-16.122100000000501,0-5.948199999999815.718699999999444-11.321700000000419,2.158199999998033-16.121100000000297,1.439400000001115-4.797299999999268,3.455000000001746-8.8753999999999,6.045900000000984-12.23529999999937,2.590799999999945-3.357899999999972,5.757799999999406-5.948699999999917,9.5-7.772500000000036,3.743099999999686-1.822200000000521,7.916900000000169-2.734800000000178,12.522399999999834-2.734800000000178,5.182600000000093,0,9.619199999999182,1.117599999999584,13.315399999999499,3.34860000000026,3.692400000001726,2.233400000000074,6.499100000000908,5.676800000000185,8.420900000000984,10.332499999999527h.575199999999313v-11.953099999999722h11.515699999999924v71.826200000000426ZM844.015600000000632,328.341699999999037c2.591799999998329,0,5.038099999997939-.337399999999434,7.341799999998329-1.012199999999211,2.302700000000186-.674800000000687,4.293000000001484-1.664600000000064,5.972600000000966-2.966300000000047,1.677799999999479-1.29989999999998,3.023499999999331-2.89260000000013,4.031299999998737-4.772500000000036,1.006800000001022-1.880400000000009,1.510700000000725-4.075200000000223,1.510700000000725-6.583000000000538v-27.632300000000214c0-2.023999999999432-.481399999998757-3.929199999999582-1.439399999999296-5.715399999999136-.960000000000946-1.783199999999852-2.30370000000039-3.301199999999881-4.030300000000352-4.556099999999788-1.727500000000873-1.252500000000509-3.742200000000594-2.240700000000288-6.04490000000078-2.964400000000751-2.30370000000039-.724099999999453-4.75-1.08640000000014-7.341799999998329-1.08640000000014-6.527400000000853,0-11.709000000000742,2.073200000000725-15.54490000000078,6.221199999999953-3.839899999999034,4.147399999999834-5.757799999999406,9.499499999999898-5.757799999999406,16.058100000000195v12.730000000000473c0,6.558599999999387,1.917900000000373,11.91110000000026,5.757799999999406,16.058599999999387,3.835900000000038,4.146900000000642,9.017499999999927,6.220699999999852,15.54490000000078,6.220699999999852Z"/><path class="uuid-ec4bd062-ae35-4b34-97c6-589f564bd10e" d="M944.628899999999703,324.880699999999706h-.576199999999517c-.768600000001243,1.711499999999432-1.704100000000835,3.398499999999331-2.806600000001708,5.060599999999795-1.103599999998551,1.662100000000464-2.470699999998033,3.134699999999611-4.101599999998143,4.416500000000269-1.632800000001225,1.282199999999648-3.59860000000117,2.30369999999948-5.90230000000156,3.063899999999194-2.302799999999479.759800000000723-4.990299999999479,1.140200000000732-8.060599999998885,1.140200000000732-7.677700000000186,0-13.771500000000742-2.469700000000557-18.280300000000352-7.41359999999986-4.511699999999109-4.940900000000511-6.765599999998813-11.921900000000278-6.765599999998813-20.942900000000009v-47.644000000000233h11.515599999998813v45.727499999999964c0,13.36869999999999,5.661200000000463,20.052799999999479,16.985399999999572,20.052799999999479,2.302700000000186,0,4.534200000000055-.287099999999555,6.693300000000818-.86619999999948,2.159200000000055-.575200000000223,4.077199999999721-1.440499999999702,5.757900000000518-2.59479999999985,1.677700000000186-1.154300000000148,3.022399999999834-2.620100000000093,4.029299999998329-4.399400000000242,1.007800000001225-1.778299999999945,1.511700000000928-3.91989999999987,1.511700000000928-6.421400000000176v-51.498499999999694h11.515600000000632v74.272899999999936h-11.515600000000632v-11.953599999999824Z"/><path class="uuid-ec4bd062-ae35-4b34-97c6-589f564bd10e" d="M986.371099999998478,245.143399999999019c-2.496099999998478,0-4.294999999998254-.597599999999147-5.397499999999127-1.798799999999574-1.104499999999462-1.199200000000019-1.655299999998533-2.756800000000112-1.655299999998533-4.67869999999948v-1.871100000000297c0-1.918499999999767.550799999999072-3.477499999999964,1.655299999998533-4.678200000000288,1.102500000000873-1.198800000000119,2.901400000000649-1.799299999999675,5.397499999999127-1.799299999999675,2.494100000001708,0,4.293900000000576.600499999999556,5.398400000001857,1.799299999999675,1.101599999998143,1.200700000000325,1.654299999998329,2.759700000000521,1.654299999998329,4.678200000000288v1.871100000000297c0,1.921899999999368-.552700000000186,3.479499999999462-1.654299999998329,4.67869999999948-1.104500000001281,1.201200000000426-2.904300000000148,1.798799999999574-5.398400000001857,1.798799999999574ZM980.613199999999779,262.561399999999594h11.515699999999924v74.272899999999936h-11.515699999999924v-74.272899999999936Z"/><path class="uuid-ec4bd062-ae35-4b34-97c6-589f564bd10e" d="M1038.910099999999147,338.561899999999696c-6.909200000000055,0-12.691399999999703-1.319800000000214-17.344699999999648-3.958499999999731-4.655300000000352-2.638200000000325-8.661099999999351-6.165100000000166-12.019500000000335-10.58010000000013l8.204100000000835-6.621100000000297c2.878899999999703,3.648000000000138,6.093699999999444,6.45510000000013,9.644500000000335,8.41989999999987,3.548800000000483,1.968800000000556,7.676799999999275,2.951699999999619,12.378899999999703,2.951699999999619,4.894500000000335,0,8.708999999998923-1.055199999999786,11.443400000000111-3.16649999999936,2.735300000000279-2.10990000000038,4.102499999999054-5.085900000000038,4.102499999999054-8.924800000000687,0-2.878899999999703-.935499999999593-5.348199999999451-2.806599999999889-7.413099999999758-1.872099999998682-2.0625-5.253899999999703-3.476599999999962-10.147499999999127-4.246099999999387l-5.902299999999741-.863800000000083c-3.455100000001039-.479000000000269-6.621100000000297-1.223100000000159-9.5-2.230900000000474s-5.397500000000946-2.350599999999758-7.556700000001001-4.030299999999443c-2.159200000000055-1.677700000000186-3.839799999999741-3.76510000000053-5.038099999999758-6.261700000000019-1.201100000000224-2.494099999999889-1.799799999998868-5.469700000000557-1.799799999998868-8.923800000000483,0-3.646499999999833.669899999998961-6.837400000000343,2.015699999999924-9.572799999999916,1.34269999999924-2.73489999999947,3.189399999999296-5.012200000000121,5.54189999999835-6.836900000000242,2.350599999999758-1.821799999999712,5.15730000000076-3.189899999999398,8.420000000000073-4.102100000000064,3.261700000000928-.911099999999351,6.765600000000632-1.367599999999584,10.50879999999961-1.367599999999584,6.04490000000078,0,11.105400000000373,1.057099999999991,15.185500000001412,3.166500000000269,4.077100000000428,2.112299999999777,7.65139999999883,5.038099999999758,10.723599999999351,8.78020000000015l-7.629799999998795,6.909200000000055c-1.632900000000518-2.302700000000186-4.029300000001967-4.39010000000053-7.196300000001429-6.260700000000725-3.166999999999462-1.871599999999489-7.149499999999534-2.807600000000093-11.947299999999814-2.807600000000093-4.799799999998868,0-8.420899999999165,1.032200000000557-10.868199999998978,3.095200000000659-2.446300000001429,2.063900000000103-3.66990000000078,4.871599999999489-3.66990000000078,8.420399999999972,0,3.648400000000038,1.223599999999351,6.286099999999351,3.66990000000078,7.91649999999936,2.447299999999814,1.633300000000418,5.974599999999555,2.831500000000233,10.58009999999922,3.599100000000362l5.757799999999406.863299999999981c8.252000000000407,1.247999999999593,14.106499999999869,3.623499999999694,17.560600000000704,7.125,3.454999999999927,3.504899999999907,5.182600000000093,8.085399999999936,5.182600000000093,13.746100000000297,0,7.197299999999814-2.447299999999814,12.860799999999472-7.340799999999945,16.985799999999472-4.894599999999627,4.127500000000509-11.613300000000891,6.189500000000407-20.152400000000853,6.189500000000407Z"/><path class="uuid-ec4bd062-ae35-4b34-97c6-589f564bd10e" d="M1102.10149999999885,336.83429999999953c-4.029299999998329,0-7.077099999998609-1.124499999999898-9.139599999998609-3.373499999999694-2.064500000000407-2.249000000000706-3.094700000001467-5.195300000000316-3.094700000001467-8.834499999999935v-51.846199999999953h-12.235399999999572v-10.218700000000354h6.909200000000055c2.494099999999889,0,4.197200000000521-.504899999999907,5.110300000000279-1.512700000000223.911200000000463-1.006800000000112,1.367200000000594-2.756800000000112,1.367200000000594-5.252899999999499v-13.819400000000314h10.364299999999275v20.585000000000036h16.265600000000632v10.218700000000354h-16.265600000000632v53.834999999999127h15.113300000000891v10.219200000000455h-14.394600000001446Z"/><path class="uuid-ec4bd062-ae35-4b34-97c6-589f564bd10e" d="M1141.973599999999351,245.143399999999019c-2.496100000000297,0-4.295899999999165-.597599999999147-5.397499999999127-1.798799999999574-1.104500000001281-1.199200000000019-1.655200000001059-2.756800000000112-1.655200000001059-4.67869999999948v-1.871100000000297c0-1.918499999999767.550699999999779-3.477499999999964,1.655200000001059-4.678200000000288,1.101599999999962-1.198800000000119,2.90139999999883-1.799299999999675,5.397499999999127-1.799299999999675,2.495100000000093,0,4.293900000000576.600499999999556,5.397500000000946,1.799299999999675,1.102499999999054,1.200700000000325,1.656199999999444,2.759700000000521,1.656199999999444,4.678200000000288v1.871100000000297c0,1.921899999999368-.55370000000039,3.479499999999462-1.656199999999444,4.67869999999948-1.10360000000037,1.201200000000426-2.902400000000853,1.798799999999574-5.397500000000946,1.798799999999574ZM1136.215799999999945,262.561399999999594h11.515599999998813v74.272899999999936h-11.515599999998813v-74.272899999999936Z"/><path class="uuid-ec4bd062-ae35-4b34-97c6-589f564bd10e" d="M1199.837900000000445,338.561899999999696c-5.181700000001001,0-9.837000000001353-.91359999999986-13.962000000001353-2.73490000000038-4.126899999999296-1.822199999999611-7.606399999998757-4.413099999999758-10.435499999999593-7.772399999999834-2.832000000000335-3.358400000000074-4.99120000000039-7.435599999999795-6.477499999999054-12.235399999999572-1.488300000000891-4.79740000000038-2.230500000001484-10.170900000000074-2.230500000001484-16.122100000000501,0-5.948199999999815.742200000000594-11.321700000000419,2.230500000001484-16.121100000000297,1.486299999998664-4.797299999999268,3.645499999998719-8.8753999999999,6.477499999999054-12.23529999999937,2.829100000000835-3.357899999999972,6.308600000000297-5.948699999999917,10.435499999999593-7.772500000000036,4.125-1.822200000000521,8.780300000000352-2.734800000000178,13.962000000001353-2.734800000000178,7.388599999998405,0,13.315399999999499,1.607899999999972,17.777299999999741,4.821700000000419,4.461900000000242,3.216399999999339,7.794899999998961,7.413099999999758,10.003899999999703,12.59479999999985l-9.644500000000335,4.894499999999425c-1.343799999998737-3.837399999999434-3.550800000000891-6.813000000000102-6.621100000000297-8.924799999999777-3.072299999999814-2.109400000000278-6.909200000000055-3.166500000000269-11.515599999998813-3.166500000000269-3.454100000000835,0-6.476600000001781.553200000000288-9.068400000000111,1.655300000000352-2.58980000000156,1.104000000000269-4.75,2.64010000000053-6.476599999999962,4.606399999999667-1.727500000000873,1.96730000000025-3.023400000000038,4.318400000000111-3.886700000000928,7.052700000000186-.863299999999072,2.73490000000038-1.295899999999165,5.735900000000584-1.295899999999165,8.995700000000397v12.666900000000169c0,6.527899999999136,1.75,11.875999999999294,5.254899999999907,16.050299999999879,3.500999999998385,4.174399999999878,8.658199999999852,6.26129999999921,15.472700000000259,6.26129999999921,9.306599999999889,0,16.025299999999334-4.318399999999201,20.152299999999741-12.95509999999922l8.348599999999351,5.614199999999983c-2.399400000000242,5.375500000000102-5.973599999999351,9.644599999999627-10.723599999999351,12.811099999999897s-10.675800000000891,4.75-17.777299999999741,4.75Z"/><path class="uuid-ec4bd062-ae35-4b34-97c6-589f564bd10e" d="M1266.91399999999885,338.561899999999696c-6.909199999998236,0-12.691399999999703-1.319800000000214-17.344699999999648-3.958499999999731-4.655300000000352-2.638200000000325-8.661099999999351-6.165100000000166-12.019500000000335-10.58010000000013l8.204100000000835-6.621100000000297c2.878899999999703,3.648000000000138,6.093699999999444,6.45510000000013,9.644500000000335,8.41989999999987,3.548800000000483,1.968800000000556,7.675799999999072,2.951699999999619,12.378899999999703,2.951699999999619,4.894500000000335,0,8.708999999998923-1.055199999999786,11.443400000000111-3.16649999999936,2.735300000000279-2.10990000000038,4.102500000000873-5.085900000000038,4.102500000000873-8.924800000000687,0-2.878899999999703-.935500000001412-5.348199999999451-2.806599999999889-7.413099999999758-1.872100000000501-2.0625-5.253900000001522-3.476599999999962-10.147500000000946-4.246099999999387l-5.902299999999741-.863800000000083c-3.455100000001039-.479000000000269-6.621100000000297-1.223100000000159-9.5-2.230900000000474s-5.397500000000946-2.350599999999758-7.556700000001001-4.030299999999443c-2.159200000000055-1.677700000000186-3.839799999999741-3.76510000000053-5.038099999999758-6.261700000000019-1.201100000000224-2.494099999999889-1.799799999998868-5.469700000000557-1.799799999998868-8.923800000000483,0-3.646499999999833.669999999998254-6.837400000000343,2.015699999999924-9.572799999999916,1.34269999999924-2.73489999999947,3.189399999999296-5.012200000000121,5.541900000000169-6.836900000000242,2.350599999999758-1.821799999999712,5.157299999998941-3.189899999999398,8.419999999998254-4.102100000000064,3.260700000000725-.911099999999351,6.765600000000632-1.367599999999584,10.508800000001429-1.367599999999584,6.044899999998961,0,11.105399999998554,1.057099999999991,15.185499999999593,3.166500000000269,4.077199999999721,2.112299999999777,7.651400000000649,5.038099999999758,10.723599999999351,8.78020000000015l-7.629799999998795,6.909200000000055c-1.632900000000518-2.302700000000186-4.029300000000148-4.39010000000053-7.197299999999814-6.260700000000725-3.166000000001077-1.871599999999489-7.148400000001857-2.807600000000093-11.946300000001429-2.807600000000093-4.799799999998868,0-8.420899999999165,1.032200000000557-10.868199999998978,3.095200000000659-2.44629999999961,2.063900000000103-3.66990000000078,4.871599999999489-3.66990000000078,8.420399999999972,0,3.648400000000038,1.22360000000117,6.286099999999351,3.66990000000078,7.91649999999936,2.447299999999814,1.633300000000418,5.974599999999555,2.831500000000233,10.58009999999922,3.599100000000362l5.757799999999406.863299999999981c8.252000000000407,1.247999999999593,14.106500000001688,3.623499999999694,17.560600000000704,7.125,3.45509999999922,3.504899999999907,5.181599999999889,8.085399999999936,5.181599999999889,13.746100000000297,0,7.197299999999814-2.44629999999961,12.860799999999472-7.339799999999741,16.985799999999472-4.894599999999627,4.127500000000509-11.613299999999072,6.189500000000407-20.152400000000853,6.189500000000407Z"/><path class="uuid-ec4bd062-ae35-4b34-97c6-589f564bd10e" d="M1378.036099999999351,338.561899999999696c-8.157199999999648,0-15.114299999999275-1.561099999999897-20.872100000000501-4.678200000000288-5.757799999999406-3.117199999999684-10.651299999999537-7.413099999999758-14.681599999999889-12.882899999999609l8.923800000000483-7.485300000000279c3.549800000000687,4.703099999999722,7.485400000001391,8.276899999999841,11.80370000000039,10.72360000000026,4.318400000000111,2.447299999999814,9.403299999999945,3.670900000000074,15.257799999999406,3.670900000000074,7.197299999999814,0,12.689500000000407-1.727500000000873,16.481499999999869-5.181599999999889,3.789000000000669-3.45510000000013,5.685500000001412-8.061500000000706,5.685500000001412-13.818900000000212,0-4.796800000000076-1.439400000001115-8.492100000000391-4.318300000000818-11.082500000000437-2.878899999999703-2.591800000000148-7.628899999999703-4.654300000000148-14.25-6.190399999999499l-8.205100000001039-1.871100000000297c-9.211899999998423-2.110399999999572-16.242199999998775-5.301300000000083-21.086899999998423-9.57129999999961-4.846700000000055-4.269500000000335-7.269599999999627-10.293000000000575-7.269599999999627-18.065900000000511,0-4.412599999999657.814499999998588-8.348199999999451,2.447299999999814-11.802700000000186,1.630900000000111-3.454600000000028,3.909199999998236-6.333499999999731,6.836899999998423-8.63629999999921,2.925800000000891-2.30370000000039,6.427800000001298-4.05370000000039,10.507800000001225-5.253900000000613,4.078199999999924-1.199200000000019,8.564499999998588-1.799799999999777,13.459000000000742-1.799799999999777,7.579099999999016,0,14.081099999999424,1.39260000000013,19.503899999999703,4.174799999999777,5.419999999998254,2.784200000000055,10.003899999999703,6.861299999999574,13.746100000000297,12.235400000000482l-9.068300000000818,6.620600000000195c-2.784200000000055-3.837400000000343-6.142600000001039-6.85990000000038-10.075200000001132-9.068400000000111-3.936599999999089-2.206500000000233-8.83009999999922-3.310500000000502-14.682600000000093-3.310500000000502-6.429699999998775,0-11.492199999998775,1.367199999999684-15.185599999998885,4.101999999999862-3.695300000001225,2.735400000000482-5.541999999999462,6.837900000000445-5.541999999999462,12.307200000000194,0,4.800199999999677,1.558600000000297,8.420799999999872,4.67870000000039,10.867600000000493,3.117199999998775,2.446799999999712,7.843799999998737,4.390699999999924,14.177799999999479,5.83009999999922l8.204999999999927,1.871100000000297c9.882900000000518,2.208499999999731,17.032299999998941,5.566399999999703,21.447299999999814,10.075700000000325,4.412099999999555,4.511199999999917,6.621100000000297,10.507799999999406,6.621100000000297,17.992699999999786,0,4.606399999999667-.791000000001077,8.78020000000015-2.375,12.523400000000038-1.584000000000742,3.742199999999684-3.864300000001094,6.909200000000055-6.836900000000242,9.5-2.975599999999758,2.590799999999945-6.598599999999351,4.606399999999667-10.868200000000797,6.045399999999972-4.270500000000538,1.439499999999498-9.092800000000352,2.159200000000055-14.465799999999945,2.159200000000055Z"/><path class="uuid-ec4bd062-ae35-4b34-97c6-589f564bd10e" d="M1460.370100000000093,338.561899999999696c-4.99120000000039,0-9.549800000000687-.91359999999986-13.674800000000687-2.73490000000038-4.126999999998588-1.822199999999611-7.654300000000148-4.438000000000102-10.58009999999922-7.84519999999975-2.927700000000186-3.40480000000025-5.206100000001243-7.484400000000278-6.836900000000242-12.23490000000038-1.632799999999406-4.75-2.44629999999961-10.098599999999351-2.44629999999961-16.049799999999777,0-5.85149999999976.813500000000204-11.177700000000186,2.44629999999961-15.977499999999964,1.630799999998999-4.796900000000278,3.909200000000055-8.899400000000242,6.836900000000242-12.306599999999889,2.925799999999072-3.405300000000352,6.453100000000632-6.020999999999731,10.58009999999922-7.84479999999985,4.125-1.822200000000521,8.683600000000297-2.734800000000178,13.674800000000687-2.734800000000178,4.988299999999072,0,9.522399999999834.912599999999657,13.602499999999054,2.734800000000178,4.077199999999721,1.823800000000119,7.603500000001077,4.439499999999498,10.579100000000835,7.84479999999985,2.973700000000463,3.407199999999648,5.276400000000649,7.509699999999611,6.909200000000055,12.306599999999889,1.630900000000111,4.799799999999777,2.447299999999814,10.126000000000204,2.447299999999814,15.977499999999964,0,5.951200000000426-.816399999999703,11.299799999999777-2.447299999999814,16.049799999999777-1.632799999999406,4.750500000000102-3.935499999999593,8.83010000000013-6.909200000000055,12.23490000000038-2.975599999999758,3.407199999999648-6.501900000001115,6.023000000000138-10.579100000000835,7.84519999999975-4.08009999999922,1.82130000000052-8.614199999999983,2.73490000000038-13.602499999999054,2.73490000000038ZM1460.370100000000093,328.341699999999037c6.236299999998664,0,11.32129999999961-1.917999999999665,15.257799999999406-5.757799999999406,3.933600000000297-3.836500000000342,5.901400000000649-9.690500000000611,5.901400000000649-17.560599999999795v-10.651800000000549c0-7.867199999999684-1.967800000000352-13.721700000000055-5.901400000000649-17.561099999999897-3.936499999999796-3.83640000000014-9.021500000000742-5.757300000000214-15.257799999999406-5.757300000000214-6.239299999999275,0-11.324200000000928,1.920900000000074-15.257800000001225,5.757300000000214-3.936599999999089,3.839399999999841-5.90139999999883,9.693900000000212-5.90139999999883,17.561099999999897v10.651800000000549c0,7.870099999999184,1.964799999999741,13.724099999999453,5.90139999999883,17.560599999999795,3.933600000000297,3.839799999999741,9.01850000000195,5.757799999999406,15.257800000001225,5.757799999999406Z"/><path class="uuid-ec4bd062-ae35-4b34-97c6-589f564bd10e" d="M1540.544899999998961,338.561899999999696c-5.181699999999182,0-9.836899999998423-.91359999999986-13.961899999998423-2.73490000000038-4.127000000000407-1.822199999999611-7.606500000001688-4.413099999999758-10.436499999999796-7.772399999999834-2.831100000001243-3.358400000000074-4.990300000001298-7.435599999999795-6.476600000001781-12.235399999999572-1.489299999999275-4.79740000000038-2.231499999999869-10.170900000000074-2.231499999999869-16.122100000000501,0-5.948199999999815.742200000000594-11.321700000000419,2.231499999999869-16.121100000000297,1.486300000000483-4.797299999999268,3.645500000000538-8.8753999999999,6.476600000001781-12.23529999999937,2.829999999998108-3.357899999999972,6.309499999999389-5.948699999999917,10.436499999999796-7.772500000000036,4.125-1.822200000000521,8.78019999999924-2.734800000000178,13.961899999998423-2.734800000000178,7.388700000001336,0,13.314400000001115,1.607899999999972,17.77730000000156,4.821700000000419,4.461899999998423,3.216399999999339,7.794999999998254,7.413099999999758,10.003899999999703,12.59479999999985l-9.644500000000335,4.894499999999425c-1.344699999999648-3.837399999999434-3.550799999999072-6.813000000000102-6.621100000000297-8.924799999999777-3.072299999999814-2.109400000000278-6.909200000000055-3.166500000000269-11.515600000000632-3.166500000000269-3.45509999999922,0-6.476599999998143.553200000000288-9.068400000000111,1.655300000000352-2.590799999998126,1.104000000000269-4.75,2.64010000000053-6.47649999999885,4.606399999999667-1.727600000000166,1.96730000000025-3.02350000000115,4.318400000000111-3.886800000000221,7.052700000000186-.863199999999779,2.73490000000038-1.295899999999165,5.735900000000584-1.295899999999165,8.995700000000397v12.666900000000169c0,6.527899999999136,1.75,11.875999999999294,5.253999999998996,16.050299999999879,3.501900000001115,4.174399999999878,8.659100000000763,6.26129999999921,15.473599999999351,6.26129999999921,9.306599999999889,0,16.025400000000445-4.318399999999201,20.15230000000156-12.95509999999922l8.348699999998644,5.614199999999983c-2.399399999998423,5.375500000000102-5.973699999998644,9.644599999999627-10.723699999998644,12.811099999999897s-10.676699999999983,4.75-17.77730000000156,4.75Z"/><path class="uuid-ec4bd062-ae35-4b34-97c6-589f564bd10e" d="M1591.067300000000614,245.143399999999019c-2.497000000001208,0-4.295799999999872-.597599999999147-5.397400000001653-1.798799999999574-1.104499999999462-1.199200000000019-1.655299999998533-2.756800000000112-1.655299999998533-4.67869999999948v-1.871100000000297c0-1.918499999999767.550799999999072-3.477499999999964,1.655299999998533-4.678200000000288,1.101600000001781-1.198800000000119,2.900400000000445-1.799299999999675,5.397400000001653-1.799299999999675,2.494199999999182,0,4.29399999999805.600499999999556,5.397499999999127,1.799299999999675,1.102500000000873,1.200700000000325,1.656300000000556,2.759700000000521,1.656300000000556,4.678200000000288v1.871100000000297c0,1.921899999999368-.553799999999683,3.479499999999462-1.656300000000556,4.67869999999948-1.103500000001077,1.201200000000426-2.903299999999945,1.798799999999574-5.397499999999127,1.798799999999574ZM1585.309499999999389,262.561399999999594h11.515699999999924v74.272899999999936h-11.515699999999924v-74.272899999999936Z"/><path class="uuid-ec4bd062-ae35-4b34-97c6-589f564bd10e" d="M1649.219699999999648,338.561899999999696c-5.086900000000242,0-9.668999999999869-.91359999999986-13.746100000000297-2.73490000000038-4.08009999999922-1.822199999999611-7.581999999998516-4.438000000000102-10.507799999999406-7.84519999999975-2.92870000000039-3.40480000000025-5.181700000001001-7.484400000000278-6.765600000000632-12.23490000000038-1.583000000000538-4.75-2.374099999999089-10.098599999999351-2.374099999999089-16.049799999999777,0-5.85149999999976.791099999998551-11.177700000000186,2.374099999999089-15.977499999999964,1.58389999999963-4.796900000000278,3.836900000000242-8.899400000000242,6.765600000000632-12.306599999999889,2.925800000000891-3.405300000000352,6.427700000000186-6.020999999999731,10.507799999999406-7.84479999999985,4.077100000000428-1.822200000000521,8.659200000000055-2.734800000000178,13.746100000000297-2.734800000000178,4.989300000001094,0,9.451199999999517.908199999999852,13.386699999999109,2.725599999999758,3.933600000000297,1.817300000000614,7.292000000001281,4.329499999999825,10.076200000001336,7.532200000000557,2.782199999999648,3.203099999999722,4.916999999999462,7.003899999999703,6.405300000000352,11.402799999999843,1.486299999998664,4.399399999999332,2.231399999998757,9.228000000000065,2.231399999998757,14.486299999999574v5.451700000000528h-53.403299999999945v3.45510000000013c0,3.16649999999936.503899999999703,6.117199999999684,1.511700000000928,8.851999999999862,1.007799999999406,2.73489999999947,2.447299999999814,5.110399999999572,4.318400000000111,7.125,1.871099999998478,2.015699999999924,4.173799999998664,3.598699999999553,6.909099999998944,4.750999999999294,2.735400000001391,1.151400000000649,5.830100000001039,1.726599999999962,9.284200000000055,1.726599999999962,4.701200000001336,0,8.802799999999479-1.102599999999256,12.307600000000093-3.310599999999795,3.501000000000204-2.205999999999221,6.212000000001353-5.372999999999593,8.131900000000314-9.5l8.205100000001039,5.939500000000407c-2.399500000001353,5.119099999999889-6.142600000001039,9.246099999999387-11.227600000001985,12.38379999999961-5.086899999998423,3.137700000000223-11.132799999999406,4.707500000000437-18.136699999999109,4.707500000000437ZM1649.219699999999648,270.477399999999761c-3.166999999999462,0-6.04490000000078.548799999999574-8.635699999998906,1.646499999999833-2.591800000001967,1.09769999999935-4.822300000001633,2.647500000000036-6.693400000000111,4.648400000000038-1.871100000000297,2.001999999999498-3.335900000001857,4.363299999999981-4.390600000000632,7.081100000000333-1.056699999999182,2.718699999999444-1.584000000000742,5.698199999999815-1.584000000000742,8.941399999999703v1.001000000000204h41.023400000000038v-1.574700000000121c0-6.580600000000231-1.798799999998664-11.847700000000259-5.397399999999834-15.80619999999999-3.598699999998644-3.958000000000538-8.373100000000704-5.9375-14.322299999999814-5.9375Z"/><path class="uuid-ec4bd062-ae35-4b34-97c6-589f564bd10e" d="M1716.728499999999258,336.83429999999953c-4.031299999998737,0-7.078099999998813-1.124499999999898-9.140599999998813-3.373499999999694-2.064500000000407-2.249000000000706-3.09480000000076-5.195300000000316-3.09480000000076-8.834499999999935v-51.846199999999953h-12.235300000000279v-10.218700000000354h6.909200000000055c2.494099999999889,0,4.197200000000521-.504899999999907,5.110300000000279-1.512700000000223.910200000000259-1.006800000000112,1.367200000000594-2.756800000000112,1.367200000000594-5.252899999999499v-13.819400000000314h10.363299999999072v20.585000000000036h16.265600000000632v10.218700000000354h-16.265600000000632v53.834999999999127h15.114199999999983v10.219200000000455h-14.393500000000131Z"/><path class="uuid-ec4bd062-ae35-4b34-97c6-589f564bd10e" d="M1796.615200000000186,262.561399999999594h11.372099999998682l-33.251000000000204,91.545900000000074c-.863299999999072,2.207000000000335-1.727499999999054,4.052700000000186-2.590799999998126,5.54149999999936-.864300000001094,1.486800000000585-1.920900000000984,2.66360000000077-3.167000000001281,3.526900000000751-1.248099999998885.864199999999983-2.806699999999182,1.487299999999777-4.677799999999479,1.870999999999185-1.871000000001004.382400000000416-4.152299999999741.576200000000426-6.837799999999334.576200000000426h-5.901400000000649v-10.219699999999648h11.659200000000055l5.614199999999983-15.808600000000297-27.781199999999444-77.033199999999852h11.515599999998813l17.84860000000117,50.425799999999981,3.45509999999922,12.06880000000001h.718800000000556l4.031199999999444-12.06880000000001,17.992200000000594-50.425799999999981Z"/><path class="uuid-ec4bd062-ae35-4b34-97c6-589f564bd10e" d="M654.682607812499555,477.752882812499593l-3.6103515625-11.4755859375h-15.98828125l-3.5458984375,11.4755859375h-8.638671875l15.0859375-44.9990234375h10.5732421875l14.9560546875,44.9990234375h-8.83203125ZM643.207021874999555,440.490187499999593h-.322265625l-5.7373046875,18.50244140625h11.8623046875l-5.802734375-18.50244140625Z"/><path class="uuid-ec4bd062-ae35-4b34-97c6-589f564bd10e" d="M669.643545312499555,477.752882812499593v-33.65234375h8.251953125v6.96240234375h.322265625c.837890625-3.5458984375,3.5458984375-6.96240234375,8.896484375-6.96240234375h1.8056640625v7.80029296875h-2.5791015625c-5.5439453125,0-8.4453125,1.54736328125-8.4453125,5.22216796875v20.6298828125h-8.251953125Z"/><path class="uuid-ec4bd062-ae35-4b34-97c6-589f564bd10e" d="M697.044912499999555,469.178664062499593v-18.50244140625h-4.96484375v-6.57568359375h2.5791015625c2.4501953125,0,3.2236328125-1.16064453125,3.2236328125-3.4814453125v-5.73779296875h7.4140625v9.21923828125h6.8974609375v6.57568359375h-6.8974609375v20.5009765625h6.3818359375v6.57568359375h-5.9306640625c-5.673828125,0-8.703125-3.0947265625-8.703125-8.57421875Z"/><path class="uuid-ec4bd062-ae35-4b34-97c6-589f564bd10e" d="M716.451162499999555,472.337355468749593l5.029296875-4.8994140625c2.44921875,2.83642578125,5.4150390625,4.5771484375,9.21875,4.5771484375,3.9326171875,0,5.6083984375-1.48291015625,5.6083984375-3.8681640625,0-1.93408203125-1.16015625-3.15869140625-4.1259765625-3.54541015625l-3.3525390625-.45166015625c-7.2197265625-.90234375-11.216796875-4.0615234375-11.216796875-10.18603515625,0-6.51123046875,5.0927734375-10.63720703125,12.7646484375-10.63720703125,6.5751953125,0,9.927734375,1.93408203125,13.1513671875,5.28662109375l-4.8349609375,4.8349609375c-1.9345703125-2.06298828125-4.7705078125-3.6103515625-8.05859375-3.6103515625-3.5458984375,0-5.0927734375,1.41845703125-5.0927734375,3.4814453125,0,2.25634765625,1.224609375,3.2880859375,4.3837890625,3.8037109375l3.4169921875.451171875c7.3486328125,1.03173828125,10.89453125,4.3193359375,10.89453125,9.92822265625,0,6.51123046875-5.4794921875,11.02392578125-13.8603515625,11.02392578125-6.3828125,0-10.5732421875-2.32080078125-13.92578125-6.18896484375Z"/><path class="uuid-ec4bd062-ae35-4b34-97c6-589f564bd10e" d="M795.107412499999555,477.752882812499593l-3.6103515625-11.4755859375h-15.98828125l-3.5458984375,11.4755859375h-8.638671875l15.0859375-44.9990234375h10.5732421875l14.9560546875,44.9990234375h-8.83203125ZM783.631826562499555,440.490187499999593h-.322265625l-5.7373046875,18.50244140625h11.8623046875l-5.802734375-18.50244140625Z"/><path class="uuid-ec4bd062-ae35-4b34-97c6-589f564bd10e" d="M807.166982812499555,472.337355468749593l5.029296875-4.8994140625c2.44921875,2.83642578125,5.4150390625,4.5771484375,9.21875,4.5771484375,3.9326171875,0,5.6083984375-1.48291015625,5.6083984375-3.8681640625,0-1.93408203125-1.16015625-3.15869140625-4.1259765625-3.54541015625l-3.3525390625-.45166015625c-7.2197265625-.90234375-11.216796875-4.0615234375-11.216796875-10.18603515625,0-6.51123046875,5.0927734375-10.63720703125,12.7646484375-10.63720703125,6.5751953125,0,9.927734375,1.93408203125,13.1513671875,5.28662109375l-4.8349609375,4.8349609375c-1.9345703125-2.06298828125-4.7705078125-3.6103515625-8.05859375-3.6103515625-3.5458984375,0-5.0927734375,1.41845703125-5.0927734375,3.4814453125,0,2.25634765625,1.224609375,3.2880859375,4.3837890625,3.8037109375l3.4169921875.451171875c7.3486328125,1.03173828125,10.89453125,4.3193359375,10.89453125,9.92822265625,0,6.51123046875-5.4794921875,11.02392578125-13.8603515625,11.02392578125-6.3828125,0-10.5732421875-2.32080078125-13.92578125-6.18896484375Z"/><path class="uuid-ec4bd062-ae35-4b34-97c6-589f564bd10e" d="M838.888662499999555,472.337355468749593l5.029296875-4.8994140625c2.44921875,2.83642578125,5.4150390625,4.5771484375,9.21875,4.5771484375,3.9326171875,0,5.6083984375-1.48291015625,5.6083984375-3.8681640625,0-1.93408203125-1.16015625-3.15869140625-4.1259765625-3.54541015625l-3.3525390625-.45166015625c-7.2197265625-.90234375-11.216796875-4.0615234375-11.216796875-10.18603515625,0-6.51123046875,5.0927734375-10.63720703125,12.7646484375-10.63720703125,6.5751953125,0,9.927734375,1.93408203125,13.1513671875,5.28662109375l-4.8349609375,4.8349609375c-1.9345703125-2.06298828125-4.7705078125-3.6103515625-8.05859375-3.6103515625-3.5458984375,0-5.0927734375,1.41845703125-5.0927734375,3.4814453125,0,2.25634765625,1.224609375,3.2880859375,4.3837890625,3.8037109375l3.4169921875.451171875c7.3486328125,1.03173828125,10.89453125,4.3193359375,10.89453125,9.92822265625,0,6.51123046875-5.4794921875,11.02392578125-13.8603515625,11.02392578125-6.3828125,0-10.5732421875-2.32080078125-13.92578125-6.18896484375Z"/><path class="uuid-ec4bd062-ae35-4b34-97c6-589f564bd10e" d="M871.706045312499555,460.862257812499593c0-10.76611328125,5.9951171875-17.53564453125,15.6005859375-17.53564453125,9.6708984375,0,15.666015625,6.76953125,15.666015625,17.53564453125,0,10.83056640625-5.9951171875,17.6640625-15.666015625,17.6640625-9.60546875,0-15.6005859375-6.83349609375-15.6005859375-17.6640625ZM894.333974999999555,464.020949218749593v-6.25341796875c0-5.0283203125-2.7080078125-7.80029296875-7.02734375-7.80029296875-4.2548828125,0-6.9619140625,2.77197265625-6.9619140625,7.80029296875v6.25341796875c0,5.09326171875,2.70703125,7.865234375,6.9619140625,7.865234375,4.3193359375,0,7.02734375-2.77197265625,7.02734375-7.865234375Z"/><path class="uuid-ec4bd062-ae35-4b34-97c6-589f564bd10e" d="M908.004873437499555,460.862257812499593c0-10.76611328125,5.6083984375-17.53564453125,15.5361328125-17.53564453125,6.76953125,0,11.2177734375,3.2236328125,13.216796875,8.509765625l-6.76953125,3.0302734375c-.7734375-2.83642578125-2.9013671875-4.8994140625-6.447265625-4.8994140625-4.5771484375,0-6.8974609375,3.22314453125-6.8974609375,7.92919921875v6.12451171875c0,4.70654296875,2.3203125,7.865234375,6.8974609375,7.865234375,3.9326171875,0,5.8671875-2.25634765625,7.091796875-5.2861328125l6.318359375,3.02978515625c-2.1923828125,5.93115234375-6.8984375,8.896484375-13.41015625,8.896484375-9.927734375,0-15.5361328125-6.83349609375-15.5361328125-17.6640625Z"/><path class="uuid-ec4bd062-ae35-4b34-97c6-589f564bd10e" d="M942.625967187499555,435.074660156249593v-1.2890625c0-2.38525390625,1.41796875-4.1259765625,4.8349609375-4.1259765625,3.3525390625,0,4.8349609375,1.74072265625,4.8349609375,4.1259765625v1.2890625c0,2.38525390625-1.482421875,4.1259765625-4.8349609375,4.1259765625-3.4169921875,0-4.8349609375-1.74072265625-4.8349609375-4.1259765625ZM943.334951562499555,444.100539062499593h8.251953125v33.65234375h-8.251953125v-33.65234375Z"/><path class="uuid-ec4bd062-ae35-4b34-97c6-589f564bd10e" d="M958.744131249999555,468.598585937499593c0-6.8984375,5.2216796875-10.31494140625,14.3759765625-10.31494140625h5.7373046875v-2.4501953125c0-3.73876953125-1.869140625-5.93115234375-6.2529296875-5.93115234375-3.8681640625,0-6.060546875,1.93408203125-7.671875,4.25537109375l-4.8994140625-4.38427734375c2.44921875-3.86767578125,6.3818359375-6.44677734375,13.1513671875-6.44677734375,9.08984375,0,13.9248046875,4.3193359375,13.9248046875,11.9912109375v15.859375h3.3525390625v6.57568359375h-4.5771484375c-3.5458984375,0-5.7373046875-2.32080078125-6.2529296875-5.80224609375h-.38671875c-1.0966796875,4.3193359375-4.771484375,6.57568359375-9.7998046875,6.57568359375-6.8330078125,0-10.701171875-3.9326171875-10.701171875-9.927734375ZM978.857412499999555,467.695753906249593v-4.4482421875h-5.2861328125c-4.3193359375,0-6.4462890625,1.48291015625-6.4462890625,4.1259765625v1.09619140625c0,2.70751953125,1.869140625,4.06103515625,5.0927734375,4.06103515625,3.6748046875,0,6.6396484375-1.67578125,6.6396484375-4.8349609375Z"/><path class="uuid-ec4bd062-ae35-4b34-97c6-589f564bd10e" d="M998.717764062499555,469.178664062499593v-18.50244140625h-4.96484375v-6.57568359375h2.5791015625c2.4501953125,0,3.2236328125-1.16064453125,3.2236328125-3.4814453125v-5.73779296875h7.4140625v9.21923828125h6.8974609375v6.57568359375h-6.8974609375v20.5009765625h6.3818359375v6.57568359375h-5.9306640625c-5.673828125,0-8.703125-3.0947265625-8.703125-8.57421875Z"/><path class="uuid-ec4bd062-ae35-4b34-97c6-589f564bd10e" d="M1020.316396874999555,435.074660156249593v-1.2890625c0-2.38525390625,1.41796875-4.1259765625,4.8349609375-4.1259765625,3.3525390625,0,4.8349609375,1.74072265625,4.8349609375,4.1259765625v1.2890625c0,2.38525390625-1.482421875,4.1259765625-4.8349609375,4.1259765625-3.4169921875,0-4.8349609375-1.74072265625-4.8349609375-4.1259765625ZM1021.025381249999555,444.100539062499593h8.251953125v33.65234375h-8.251953125v-33.65234375Z"/><path class="uuid-ec4bd062-ae35-4b34-97c6-589f564bd10e" d="M1036.563467187499555,460.862257812499593c0-10.76611328125,5.9951171875-17.53564453125,15.6005859375-17.53564453125,9.6708984375,0,15.666015625,6.76953125,15.666015625,17.53564453125,0,10.83056640625-5.9951171875,17.6640625-15.666015625,17.6640625-9.60546875,0-15.6005859375-6.83349609375-15.6005859375-17.6640625ZM1059.191396874999555,464.020949218749593v-6.25341796875c0-5.0283203125-2.7080078125-7.80029296875-7.02734375-7.80029296875-4.2548828125,0-6.9619140625,2.77197265625-6.9619140625,7.80029296875v6.25341796875c0,5.09326171875,2.70703125,7.865234375,6.9619140625,7.865234375,4.3193359375,0,7.02734375-2.77197265625,7.02734375-7.865234375Z"/><path class="uuid-ec4bd062-ae35-4b34-97c6-589f564bd10e" d="M1075.118154687499555,477.752882812499593v-33.65234375h8.251953125v5.6083984375h.322265625c1.3544921875-3.60986328125,4.1904296875-6.38232421875,9.4130859375-6.38232421875,6.8974609375,0,10.765625,4.77099609375,10.765625,13.15185546875v21.2744140625h-8.251953125v-20.4365234375c0-4.7705078125-1.611328125-7.22021484375-5.5439453125-7.22021484375-3.4169921875,0-6.705078125,1.8046875-6.705078125,5.4150390625v22.24169921875h-8.251953125Z"/></g></svg>