<?xml version="1.0" encoding="UTF-8"?><svg id="uuid-67a359e8-ba11-4ea7-8e9c-74b77da5a4b9" xmlns="http://www.w3.org/2000/svg" width="946.524814824981263mm" height="250.004011800872064mm" xmlns:xlink="http://www.w3.org/1999/xlink" viewBox="0 0 2683.062507515975085 708.672800000000279"><defs><style>.uuid-3c13fd34-ac70-4a26-8761-59a4c442ceec{clip-path:url(#uuid-5c876e34-0621-403f-997d-2bc3bd0f4a26);}.uuid-d5344efe-2688-4a85-a5b1-e8291469d89a{fill:#fff;}.uuid-28aeb539-ebf8-4d83-8d09-8ba1b5247b32{fill:none;}.uuid-a79b8e98-248f-4608-9172-3c7114786fac{fill:#333e48;}</style><clipPath id="uuid-5c876e34-0621-403f-997d-2bc3bd0f4a26"><rect class="uuid-28aeb539-ebf8-4d83-8d09-8ba1b5247b32" x=".000999999974738" width="2683.061507516000347" height="708.672800000000279"/></clipPath></defs><g class="uuid-3c13fd34-ac70-4a26-8761-59a4c442ceec"><rect class="uuid-28aeb539-ebf8-4d83-8d09-8ba1b5247b32" x="1761.58792939097475" y="324.377884375000576" width="792" height="79.416015625"/><path class="uuid-d5344efe-2688-4a85-a5b1-e8291469d89a" d="M1829.70609345347475,379.385696875000576v7.7763671875h-64.0859375v-7.7763671875h64.0859375ZM1823.65726532847475,337.118118750000576v7.416015625h-51.98828125v-7.416015625h51.98828125Z"/><path class="uuid-d5344efe-2688-4a85-a5b1-e8291469d89a" d="M1866.13480439097475,337.982376562500576v-3.384765625h-23.1142578125v-4.96875h52.9970703125v4.96875h-23.1865234375v3.384765625h27.9384765625v12.9609375h-6.408203125v-8.4970703125h-21.5302734375v11.376953125h-2.015625l4.6083984375,2.232421875-1.5126953125,1.15234375c6.7685546875,3.3837890625,18.7216796875,6.7685546875,29.5947265625,8.2080078125-1.3681640625,1.296875-3.16796875,3.888671875-4.0322265625,5.47265625-4.96875-.8642578125-10.0810546875-2.232421875-14.9052734375-3.8876953125v2.591796875h-29.955078125v-2.736328125c-4.4638671875,1.728515625-9,3.16796875-13.1767578125,4.392578125-1.2958984375-1.3681640625-3.744140625-3.6728515625-5.328125-4.7529296875,11.80859375-2.591796875,24.6982421875-7.1279296875,32.474609375-12.6728515625h-2.4482421875v-11.376953125h-21.4580078125v8.4970703125h-6.1201171875v-12.9609375h27.578125ZM1848.99710907847475,343.022415625000576c4.46484375.7197265625,10.6572265625,2.232421875,13.9697265625,3.3837890625l-1.65625,3.6005859375,1.7998046875-.431640625.50390625,4.0322265625c-6.1201171875,1.728515625-12.1689453125,3.3837890625-17.353515625,4.82421875l-1.8720703125-4.896484375c4.248046875-.7197265625,10.0087890625-2.087890625,16.1298828125-3.3837890625-3.384765625-1.224609375-9.0732421875-2.736328125-13.3935546875-3.6005859375l1.8720703125-3.5283203125ZM1886.29691376597475,372.472610937500576l1.0078125-.359375,4.3203125,2.736328125c-3.384765625,4.4638671875-8.9287109375,8.7841796875-14.11328125,12.0244140625l5.904296875,2.5927734375-2.9521484375,4.82421875c-5.6162109375-2.880859375-16.9208984375-7.6328125-25.1298828125-10.7294921875l2.8798828125-4.103515625c3.6728515625,1.2958984375,8.208984375,3.0234375,12.529296875,4.6796875,3.3837890625-1.65625,7.2724609375-4.1044921875,10.296875-6.552734375h-35.859375v-5.1123046875h41.1162109375ZM1880.39164032847475,365.415970312500576c-4.3203125-1.7275390625-8.13671875-3.599609375-11.0888671875-5.328125-3.3837890625,1.9443359375-7.1279296875,3.744140625-11.0166015625,5.328125h22.10546875ZM1876.93558564097475,349.142532812500576l.7197265625.14453125-1.7998046875-2.736328125c4.1044921875-.6484375,10.224609375-2.5927734375,13.7529296875-3.744140625l2.736328125,3.671875c-3.744140625,1.4404296875-8.8564453125,2.5205078125-12.888671875,3.240234375,5.328125,1.15234375,11.5927734375,2.9521484375,15.193359375,4.3203125l-1.65625,4.2490234375c-4.1044921875-1.728515625-11.880859375-4.0322265625-17.7861328125-5.47265625l1.728515625-3.6728515625Z"/><path class="uuid-d5344efe-2688-4a85-a5b1-e8291469d89a" d="M1973.70609345347475,379.385696875000576v7.7763671875h-64.0859375v-7.7763671875h64.0859375ZM1967.65726532847475,337.118118750000576v7.416015625h-51.98828125v-7.416015625h51.98828125Z"/><path class="uuid-d5344efe-2688-4a85-a5b1-e8291469d89a" d="M2010.13480439097475,337.982376562500576v-3.384765625h-23.1142578125v-4.96875h52.9970703125v4.96875h-23.1865234375v3.384765625h27.9384765625v12.9609375h-6.408203125v-8.4970703125h-21.5302734375v11.376953125h-2.015625l4.6083984375,2.232421875-1.5126953125,1.15234375c6.7685546875,3.3837890625,18.7216796875,6.7685546875,29.5947265625,8.2080078125-1.3681640625,1.296875-3.16796875,3.888671875-4.0322265625,5.47265625-4.96875-.8642578125-10.0810546875-2.232421875-14.9052734375-3.8876953125v2.591796875h-29.955078125v-2.736328125c-4.4638671875,1.728515625-9,3.16796875-13.1767578125,4.392578125-1.2958984375-1.3681640625-3.744140625-3.6728515625-5.328125-4.7529296875,11.80859375-2.591796875,24.6982421875-7.1279296875,32.474609375-12.6728515625h-2.4482421875v-11.376953125h-21.4580078125v8.4970703125h-6.1201171875v-12.9609375h27.578125ZM1992.99710907847475,343.022415625000576c4.46484375.7197265625,10.6572265625,2.232421875,13.9697265625,3.3837890625l-1.65625,3.6005859375,1.7998046875-.431640625.50390625,4.0322265625c-6.1201171875,1.728515625-12.1689453125,3.3837890625-17.353515625,4.82421875l-1.8720703125-4.896484375c4.248046875-.7197265625,10.0087890625-2.087890625,16.1298828125-3.3837890625-3.384765625-1.224609375-9.0732421875-2.736328125-13.3935546875-3.6005859375l1.8720703125-3.5283203125ZM2030.29691376597475,372.472610937500576l1.0078125-.359375,4.3203125,2.736328125c-3.384765625,4.4638671875-8.9287109375,8.7841796875-14.11328125,12.0244140625l5.904296875,2.5927734375-2.9521484375,4.82421875c-5.6162109375-2.880859375-16.9208984375-7.6328125-25.1298828125-10.7294921875l2.8798828125-4.103515625c3.6728515625,1.2958984375,8.208984375,3.0234375,12.529296875,4.6796875,3.3837890625-1.65625,7.2724609375-4.1044921875,10.296875-6.552734375h-35.859375v-5.1123046875h41.1162109375ZM2024.39164032847475,365.415970312500576c-4.3203125-1.7275390625-8.13671875-3.599609375-11.0888671875-5.328125-3.3837890625,1.9443359375-7.1279296875,3.744140625-11.0166015625,5.328125h22.10546875ZM2020.93558564097475,349.142532812500576l.7197265625.14453125-1.7998046875-2.736328125c4.1044921875-.6484375,10.224609375-2.5927734375,13.7529296875-3.744140625l2.736328125,3.671875c-3.744140625,1.4404296875-8.8564453125,2.5205078125-12.888671875,3.240234375,5.328125,1.15234375,11.5927734375,2.9521484375,15.193359375,4.3203125l-1.65625,4.2490234375c-4.1044921875-1.728515625-11.880859375-4.0322265625-17.7861328125-5.47265625l1.728515625-3.6728515625Z"/><path class="uuid-d5344efe-2688-4a85-a5b1-e8291469d89a" d="M2088.97562470347475,358.215775000000576v8.4248046875h22.8251953125v6.2646484375h-22.8251953125v11.953125h29.162109375v6.3359375h-64.8779296875v-6.3359375h28.5869140625v-11.953125h-22.10546875v-6.2646484375h22.10546875v-8.4248046875h7.12890625ZM2058.01273407847475,351.231400000000576c1.51171875-.2880859375,3.0966796875-1.4404296875,5.0400390625-3.3125,1.583984375-1.3681640625,5.7607421875-5.7607421875,9.6494140625-10.873046875h-17.7138671875v-6.3369140625h60.7734375v6.3369140625h-34.130859375c-3.81640625,4.96875-7.9208984375,9.5771484375-11.953125,13.3935546875l30.2421875-1.080078125c-2.6640625-2.376953125-5.400390625-4.7529296875-7.9921875-6.7685546875l5.400390625-3.6728515625c6.48046875,4.896484375,14.689453125,11.953125,18.6494140625,16.921875l-5.9765625,4.17578125c-1.080078125-1.439453125-2.5205078125-3.16796875-4.248046875-4.9677734375-38.1630859375,1.6552734375-42.4833984375,1.7998046875-45.5078125,2.8076171875-.3603515625-1.439453125-1.4404296875-4.82421875-2.232421875-6.6240234375Z"/><path class="uuid-d5344efe-2688-4a85-a5b1-e8291469d89a" d="M2189.70609345347475,379.385696875000576v7.7763671875h-64.0859375v-7.7763671875h64.0859375ZM2183.65726532847475,337.118118750000576v7.416015625h-51.98828125v-7.416015625h51.98828125Z"/><path class="uuid-d5344efe-2688-4a85-a5b1-e8291469d89a" d="M2226.13480439097475,337.982376562500576v-3.384765625h-23.1142578125v-4.96875h52.9970703125v4.96875h-23.1865234375v3.384765625h27.9384765625v12.9609375h-6.408203125v-8.4970703125h-21.5302734375v11.376953125h-2.015625l4.6083984375,2.232421875-1.5126953125,1.15234375c6.7685546875,3.3837890625,18.7216796875,6.7685546875,29.5947265625,8.2080078125-1.3681640625,1.296875-3.16796875,3.888671875-4.0322265625,5.47265625-4.96875-.8642578125-10.0810546875-2.232421875-14.9052734375-3.8876953125v2.591796875h-29.955078125v-2.736328125c-4.4638671875,1.728515625-9,3.16796875-13.1767578125,4.392578125-1.2958984375-1.3681640625-3.744140625-3.6728515625-5.328125-4.7529296875,11.80859375-2.591796875,24.6982421875-7.1279296875,32.474609375-12.6728515625h-2.4482421875v-11.376953125h-21.4580078125v8.4970703125h-6.1201171875v-12.9609375h27.578125ZM2208.99710907847475,343.022415625000576c4.46484375.7197265625,10.6572265625,2.232421875,13.9697265625,3.3837890625l-1.65625,3.6005859375,1.7998046875-.431640625.50390625,4.0322265625c-6.1201171875,1.728515625-12.1689453125,3.3837890625-17.353515625,4.82421875l-1.8720703125-4.896484375c4.248046875-.7197265625,10.0087890625-2.087890625,16.1298828125-3.3837890625-3.384765625-1.224609375-9.0732421875-2.736328125-13.3935546875-3.6005859375l1.8720703125-3.5283203125ZM2246.29691376597475,372.472610937500576l1.0078125-.359375,4.3203125,2.736328125c-3.384765625,4.4638671875-8.9287109375,8.7841796875-14.11328125,12.0244140625l5.904296875,2.5927734375-2.9521484375,4.82421875c-5.6162109375-2.880859375-16.9208984375-7.6328125-25.1298828125-10.7294921875l2.8798828125-4.103515625c3.6728515625,1.2958984375,8.208984375,3.0234375,12.529296875,4.6796875,3.3837890625-1.65625,7.2724609375-4.1044921875,10.296875-6.552734375h-35.859375v-5.1123046875h41.1162109375ZM2240.39164032847475,365.415970312500576c-4.3203125-1.7275390625-8.13671875-3.599609375-11.0888671875-5.328125-3.3837890625,1.9443359375-7.1279296875,3.744140625-11.0166015625,5.328125h22.10546875ZM2236.93558564097475,349.142532812500576l.7197265625.14453125-1.7998046875-2.736328125c4.1044921875-.6484375,10.224609375-2.5927734375,13.7529296875-3.744140625l2.736328125,3.671875c-3.744140625,1.4404296875-8.8564453125,2.5205078125-12.888671875,3.240234375,5.328125,1.15234375,11.5927734375,2.9521484375,15.193359375,4.3203125l-1.65625,4.2490234375c-4.1044921875-1.728515625-11.880859375-4.0322265625-17.7861328125-5.47265625l1.728515625-3.6728515625Z"/><path class="uuid-d5344efe-2688-4a85-a5b1-e8291469d89a" d="M2333.70609345347475,379.385696875000576v7.7763671875h-64.0859375v-7.7763671875h64.0859375ZM2327.65726532847475,337.118118750000576v7.416015625h-51.98828125v-7.416015625h51.98828125Z"/><path class="uuid-d5344efe-2688-4a85-a5b1-e8291469d89a" d="M2406.85746064097475,355.911087500000576v7.4892578125h-66.2451171875v-7.4892578125h66.2451171875Z"/><path class="uuid-d5344efe-2688-4a85-a5b1-e8291469d89a" d="M2424.49320282847475,371.104446875000576v-19.1533203125h21.3857421875v-10.0810546875h-16.6337890625c-3.240234375,5.400390625-6.83984375,10.224609375-10.583984375,13.8974609375-1.296875-1.224609375-4.1767578125-3.4560546875-5.8330078125-4.392578125,6.6962890625-5.83203125,12.45703125-15.12109375,15.841796875-24.6982421875l6.912109375,1.80078125c-.8642578125,2.3037109375-1.7998046875,4.6083984375-2.8798828125,6.83984375h42.123046875v6.552734375h-21.9619140625v10.0810546875h20.3056640625v6.3369140625h-20.3056640625v12.81640625h25.634765625v6.625h-25.634765625v16.0576171875h-6.984375v-16.0576171875h-33.123046875v-6.625h11.7373046875ZM2445.87894501597475,371.104446875000576v-12.81640625h-14.6171875v12.81640625h14.6171875Z"/><path class="uuid-d5344efe-2688-4a85-a5b1-e8291469d89a" d="M2522.19925751597475,326.533157812500576c1.15234375,2.16015625,2.3759765625,4.896484375,3.240234375,7.2001953125h24.6259765625v6.3369140625h-53.068359375v13.033203125c0,11.80859375-.935546875,29.08984375-6.984375,40.611328125-1.3681640625-1.0078125-4.46484375-2.4482421875-6.1923828125-3.0244140625,5.904296875-10.9453125,6.408203125-26.642578125,6.408203125-37.515625v-19.44140625h27.5068359375c-.720703125-1.8720703125-1.5126953125-3.9599609375-2.376953125-5.6162109375l6.8408203125-1.583984375ZM2539.48050751597475,368.440384375000576l1.224609375-.2880859375,4.248046875,2.232421875c-3.240234375,5.9765625-8.064453125,10.5126953125-14.041015625,13.8974609375,5.9765625,1.7998046875,12.888671875,2.9521484375,20.2333984375,3.599609375-1.439453125,1.4404296875-3.095703125,4.1767578125-3.9599609375,5.9052734375-9.0009765625-1.0087890625-17.1376953125-2.9521484375-24.1220703125-5.8330078125-7.3447265625,2.736328125-15.697265625,4.392578125-24.337890625,5.400390625-.50390625-1.65625-1.728515625-4.248046875-2.80859375-5.759765625,6.9130859375-.576171875,13.7529296875-1.65625,19.8740234375-3.384765625-4.1044921875-2.5205078125-7.6328125-5.6162109375-10.44140625-9.216796875l2.736328125-1.080078125h-8.712890625v-5.47265625h40.107421875ZM2515.86332001597475,341.870071875000576v5.6162109375h15.625v-5.6162109375h6.6962890625v5.6162109375h11.0888671875v5.47265625h-11.0888671875v11.6650390625h-28.802734375v-11.6650390625h-10.80078125v-5.47265625h10.80078125v-5.6162109375h6.4814453125ZM2512.33499970347475,373.913040625000576c2.7353515625,3.0244140625,6.5517578125,5.544921875,11.0166015625,7.560546875,4.6083984375-1.9443359375,8.4970703125-4.4638671875,11.44921875-7.560546875h-22.4658203125ZM2515.86332001597475,352.958939062500576v6.4091796875h15.625v-6.4091796875h-15.625Z"/><rect class="uuid-d5344efe-2688-4a85-a5b1-e8291469d89a" x="1633.98050751597475" y="222.217700000001059" width="3" height="264.238299999999072"/><path class="uuid-d5344efe-2688-4a85-a5b1-e8291469d89a" d="M158.442395997408312,271.573200000000725c-9.105499769975722,21.527299999999741-14.519499633206578,44.144500000000335-16.1698884814341,67.424799999998868,3.587888799282155-2.920899999999165,8.159188683801403-4.678699999998571,13.136688558059177-4.678699999998571,5.495099861182098,0,10.488311441940823,2.152299999999741,14.216799640853424,5.636699999999109,7.337899814629054-95.592800000000352,87.224597796521266-170.872999999999593,184.701195334055228-170.872999999999593,7.55269980920275,0,13.674799654545495-6.123100000000704,13.674799654545495-13.675799999999072,0-7.552800000001298-6.122099845342746-13.674800000000687-13.674799654545495-13.674800000000687-28.68949927524227,0-56.536198571775458,5.625-82.765597909165081,16.718699999999444-25.318399360403419,10.710000000000946-48.052798786084168,26.033199999999852-67.567398293103906,45.549800000000687-19.51859950691869,19.516599999999016-34.844799119746312,42.252000000000407-45.551798849264742,67.572299999999814Z"/><path class="uuid-d5344efe-2688-4a85-a5b1-e8291469d89a" d="M339.186591431425768,538.969700000001467c-94.955083915450814-7.683600000000297-169.671895713727281-86.963900000000649-170.101595702872146-183.796900000001187,0-7.552700000000186-6.12009984539327-13.676799999999275-13.675799654520233-13.676799999999275-7.552688558058435,0-13.675799654520233,6.124099999999089-13.675799654520233,13.676799999999275.109399997236324,28.394500000000335,5.722699855432438,55.954100000000835,16.708999577895156,81.926800000001094,10.706999729518429,25.319299999999203,26.033199342346052,48.053699999998571,45.551798849264742,67.569299999999203,19.514599507019739,19.51759999999922,42.248998932700488,34.842800000000352,67.567398293103906,45.552700000000186,21.255799463033327,8.988299999999072,43.573198899248382,14.385800000000017,66.538998319083476,16.109399999999368-2.886699927075824-3.578099999998813-4.626899883114675-8.121100000000297-4.626899883114675-13.066399999999703,0-5.534200000000055,2.183599944837624-10.558600000000297,5.712899855680007-14.294899999998961Z"/><path class="uuid-d5344efe-2688-4a85-a5b1-e8291469d89a" d="M502.528387305064825,487.41110000000117c-2.669999932550127-2.66990000000078-6.16999984413269-4.003899999999703-9.669999755715253-4.003899999999703-3.497999911633087,0-6.999999823165126,1.333999999998923-9.671799755669781,4.003899999999703-33.341799157715286,32.292999999999665-78.775398009966011,52.177700000000186-128.859396744737751,52.177700000000186-7.552799809200224,0-13.675799654520233,6.123099999998885-13.675799654520233,13.675799999999072s6.12299984532001,13.675800000000891,13.675799654520233,13.675800000000891c28.690399275219534,0,56.535098571803246-5.625,82.763697909213079-16.718800000000556,24.408199383397005-10.322200000000521,46.401298827804567-24.949200000000928,65.437498346909706-43.468699999999444,5.343699865006784-5.340799999999945,5.343699865006784-14,0-19.341800000000148Z"/><path class="uuid-d5344efe-2688-4a85-a5b1-e8291469d89a" d="M354.327191048942041,566.940400000001318c-7.552799809200224,0-13.675799654520233-6.123100000000704-13.675799654520233-13.675800000000891s6.12299984532001-13.675799999999072,13.675799654520233-13.675799999999072c50.08399873477174,0,95.517597587022465-19.884700000000521,128.859396744737751-52.177700000000186,2.671799932504655-2.66990000000078,6.173799844036694-4.003899999999703,9.671799755669781-4.003899999999703,3.499999911582563,0,6.999999823165126,1.333999999998923,9.669999755715253,4.003899999999703,5.343699865006784,5.341800000000148,5.343699865006784,14.001000000000204,0,19.341800000000148-19.036199519105139,18.519499999998516-41.029298963512701,33.146499999998923-65.437498346909706,43.468699999999444-26.228599337409833,11.093800000000556-54.073298633993545,16.718800000000556-82.763697909213079,16.718800000000556ZM271.56159313977696,550.221600000000763c-25.318399360403419-10.709899999999834-48.052798786084168-26.035100000000966-67.567398293103906-45.552700000000186-19.51859950691869-19.515600000000632-34.844799119746312-42.25-45.551798849264742-67.569299999999203-10.986299722462718-25.972700000000259-16.599599580658833-53.53230000000076-16.708999577895156-81.926800000001094,0-7.552700000000186,6.123111096461798-13.676799999999275,13.675799654520233-13.676799999999275,7.555699809126963,0,13.675799654520233,6.124099999999089,13.675799654520233,13.676799999999275.429699989144865,96.833000000000538,75.146511787421332,176.113300000000891,170.101595702872146,183.796900000001187-3.529299910842383,3.736299999998664-5.712899855680007,8.760699999998906-5.712899855680007,14.294899999998961,0,4.945299999999406,1.74019995603885,9.488300000000891,4.626899883114675,13.066399999999703-22.965799419835093-1.723599999999351-45.283198856050149-7.121100000000297-66.538998319083476-16.109399999999368ZM354.327191048942041,141.73240000000078c7.55269980920275,0,13.674799654545495,6.121999999999389,13.674799654545495,13.674800000000687,0,7.552699999998367-6.122099845342746,13.675799999999072-13.674799654545495,13.675799999999072-97.476597537533962,0-177.363295519426174,75.28019999999924-184.701195334055228,170.872999999999593-3.728488198912601-3.484399999999368-8.721699779671326-5.636699999999109-14.216799640853424-5.636699999999109-4.977499874257774,0-9.548799758777022,1.757799999999406-13.136688558059177,4.678699999998571,1.650388848227522-23.280299999998533,7.064388711458378-45.897499999999127,16.1698884814341-67.424799999998868,10.706999729518429-25.320299999999406,26.033199342346052-48.055700000000797,45.551798849264742-67.572299999999814,19.514599507019739-19.516600000000835,42.248998932700488-34.839799999999741,67.567398293103906-45.549800000000687,26.229399337389623-11.093699999999444,54.076098633922811-16.718699999999444,82.765597909165081-16.718699999999444Z"/><path class="uuid-d5344efe-2688-4a85-a5b1-e8291469d89a" d="M466.91308820478298,241.750900000000911c-30.070299240360328-30.072200000000521-70.054698230269423-46.632800000001225-112.585897155840939-46.632800000001225-42.527398925667512,0-82.512683532966548,16.560600000000704-112.583997155888937,46.632800000001225-30.072299240309803,30.072299999999814-46.636686377078149,70.056699999999182-46.636686377078149,112.585999999999331s16.564387136768346,82.510700000000725,46.636686377078149,112.584000000000742c30.071313622922389,30.072199999998702,70.056598230221425,46.636699999999109,112.583997155888937,46.636699999999109,42.531198925571516,0,82.515597915480612-16.564500000000407,112.585897155840939-46.636699999999109,30.073299240284541-30.073300000000017,46.632798821956385-70.054700000000594,46.632798821956385-112.584000000000742s-16.559499581671844-82.513699999999517-46.632798821956385-112.585999999999331Z"/><path class="uuid-a79b8e98-248f-4608-9172-3c7114786fac" d="M242.116193883630331,405.827100000000428v-102.980499999999665h22.333999435795704v7.613299999999072h-12.944299672999477v87.753900000001522h12.944299672999477v7.613299999999072h-22.333999435795704Z"/><path class="uuid-a79b8e98-248f-4608-9172-3c7114786fac" d="M466.538088214256277,302.846600000000763v102.980499999999665h-22.32809943594475v-7.613299999999072h12.938518737662889v-87.753900000001522h-12.938518737662889v-7.613299999999072h22.32809943594475Z"/><path class="uuid-a79b8e98-248f-4608-9172-3c7114786fac" d="M293.987292573256127,375.255800000000818c0,2.057600000000093.032299999184033,4.484399999999368.095699997582415,7.271500000000742.062514945137082,2.789999999999054.150399996200576,5.623999999999796.2597999934369,8.497099999998682.105499997334846,2.873999999999796.23339999410382,5.622000000001208.386714951699105,8.239199999999983.14648503483113,2.618200000000797.330085030193004,4.805700000000797.5448850247667,6.563500000000204h-13.193299666709208v-72.732399999998961c0-6.263700000001336-.107399997286848-11.936500000001615-.322299991858017-17.021500000000742-.212899994621694-5.085900000000038-.535099986482237-9.496100000000297-.966799975576578-13.226599999999962h13.195299666658684v72.409200000000055Z"/><path class="uuid-a79b8e98-248f-4608-9172-3c7114786fac" d="M351.593791117993533,340.176699999999983v8.433600000000297h-12.100599694313132v48.78610000000117h12.100599694313132v8.431699999999182h-36.041999089502497v-8.431699999999182h11.906199699224089v-48.78610000000117h-11.906199699224089v-8.433600000000297h36.041999089502497Z"/><path class="uuid-a79b8e98-248f-4608-9172-3c7114786fac" d="M378.627990435052197,340.176699999999983c.255799993537948.6875.513599987025373,1.576200000001336.771399980512797,2.673800000000483.2597999934369,1.091800000000148.492199987565982,2.238300000000891.708999982089153,3.440500000000611.210999994669692,1.201100000000224.404299989786523,2.381799999999203.580117118321141,3.539999999999054l.511682854097671,2.894500000000335c4.121099895892257-4.890600000000632,8.259799791339901-8.417900000000373,12.421899686196411-10.585900000000038,4.164099894805986-2.165999999999258,8.499999785271939-3.251000000000204,13.002899671519117-3.251000000000204,3.433599913259968,0,6.469799836559105.569400000000314,9.107517788186669,1.706100000001243,2.639581915056624,1.138699999999517,4.860281858957023,2.941399999999703,6.663000000000466,5.406199999999444,1.799781767949753,2.468800000000556,3.16208173353516,5.665999999999258,4.087881710147485,9.591800000000148.921899976710847,3.925799999999072,1.382799965067534,8.654300000000148,1.382799965067534,14.193400000000111v28.958999999998923c0,7.253899999999703-.634681675215688,13.273400000000038-1.900299951994384,18.054700000000594-1.263699968076253,4.787099999999555-3.037199923273874,8.605400000000373-5.308599865893484,11.461900000000242-2.273499942566559,2.848599999999351-5.011781857327151,4.868099999999686-8.207099792671215,6.045899999999165-3.197199919231934,1.181599999999889-6.747999829531182,1.771500000000742-10.652299730900268,1.771500000000742-1.930699951226416,0-4.000999898926239-.311600000000908-6.210999843096943-.932699999999386-2.208899944198492-.624000000001615-4.214799893525196-1.49120000000039-6.017499847985164-2.608400000000984l4.183599894313375-9.654300000000148c.986299975083966.730499999999665,2.305599941755645,1.339900000000853,3.958899899989774,1.83600000000115,1.650399958307389.492199999998775,3.335999915725552.738299999999072,5.048899872454058.738299999999072,2.062499947896868,0,3.908199901270564-.331099999999424,5.539999860047828-.996100000000297,1.629899958825263-.665999999999258,3.011717830520865-1.833000000000538,4.149399895177339-3.507799999999406,1.136699971284543-1.673899999999776,2.005899949326704-3.968800000000556,2.607399934131536-6.886800000000221.599699984850304-2.918900000000576.900399977253983-6.630800000000818.900399977253983-11.134700000000521v-28.320299999999406c0-5.150400000000445-.2674819760432-9.324300000000221-.804599979674094-12.519599999999627-.535199986479711-3.197200000000521-1.342799966078019-5.6875-2.415099938989442-7.466800000000148-1.071299972936686-1.779300000000148-2.413099939039967-2.970699999999852-4.024399898335105-3.574200000000928-1.605499959441659-.597599999999147-3.483382159043686-.898400000000038-5.628899857802026-.898400000000038-2.316399941482814,0-4.578099884347466.546900000001187-6.78809982851817,1.642600000001039-2.209999944170704,1.091800000000148-4.241199892858276,2.509699999998702-6.086899846231972,4.247999999999593-1.843799953421694,1.734399999999368-3.473599912249483,3.697299999999814-4.88869987650105,5.887699999999313-1.414999964254093,2.188500000000204-2.468699937635392,4.376000000000204-3.156199920267682,6.564400000001115v37.332099999999627h-11.906299699221563v-39.584000000000742c0-6.350599999999758-.365199990774272-11.725599999999758-1.09569997232029-16.123999999999796-.726499981647066-4.398499999999331-1.437499963685696-7.712899999998626-2.122999946368509-9.943400000000111h11.587899707265024Z"/><path class="uuid-d5344efe-2688-4a85-a5b1-e8291469d89a" d="M732.146799184174597,379.632700000000114h-54.992198610776541v-9.128899999999703h54.992198610776541v9.128899999999703ZM724.990499364965217,476.839299999999639h-9.421289496591271v-10.005899999998292h-21.982999999994718v10.005899999998292h-9.566809468400606v-49.370599999998376h40.971098964986595v49.370599999998376ZM724.552099376034676,398.475500000000466l-40.386798979741798.145500000000538v-9.127900000001318h40.386798979741798v8.98240000000078ZM724.698099372344586,417.609800000000178h-40.532798976051708v-9.129899999999907h40.532798976051708v9.129899999999907ZM722.872399418465648,361.083400000001348l-37.100099062769004.145499999998719v-9.127899999999499h37.100099062769004v8.98240000000078ZM715.569209868373946,457.849500000000262v-21.396899999999732h-22.128509706397381v21.396899999999732h22.128509706397381ZM809.926097219304211,417.755800000000818l-78.947298005619814.145999999998821v-8.982399999998961h19.572299505560295l4.236299892980242-22.566399999999703h-18.257799538769177v-8.983900000001086h19.718799501868489l3.140599920659952-16.724099999999453h-27.971699293379061v-9.129000000000815h72.520498167979895v8.983400000000984h-34.690399123650423l-2.994188378550461,16.724700000000666h30.088887694080768l-3.140599920659952,31.54779999999846h16.724599577499248v8.983900000001086ZM797.219097540315488,477.13130000000092h-9.421887671931472v-9.85989999999947h-36.953111156539308v9.85989999999947h-9.568399758280066v-49.516100000000733h55.943398586750845v49.516100000000733ZM787.797209868384016,458.287500000000364v-21.689899999999398h-37.099611152838406v21.689899999999398h37.099611152838406ZM786.33620986837559,386.206500000000233h-21.68941150522005l-4.236299892980242,22.712900000000445h23.662099402248714l2.263611995951578-22.712900000000445Z"/><path class="uuid-d5344efe-2688-4a85-a5b1-e8291469d89a" d="M974.597993059345754,379.632700000000114h-132.771496645911611v-9.128899999999703h132.771496645911611v9.128899999999703ZM955.025693553785459,398.329000000001543h-94.94139760158032v-8.835900000001857h94.94139760158032v8.835900000001857ZM955.025693553785459,417.317800000000716h-94.94139760158032v-8.837900000000445h94.94139760158032v8.837900000000445ZM951.594093640474966,477.13130000000092h-9.421883772090951v-10.297899999999572h-68.503914259339581v10.297899999999572h-9.420899762009867v-49.662599999999657h87.346697793440399v49.662599999999657ZM951.447593644174049,360.134200000000419l-86.47069781557002.218800000000556v-8.837000000001353h86.47069781557002v8.618200000000797ZM942.172209868384016,457.849500000000262v-21.396899999999732h-68.503914259339581v21.396899999999732h68.503914259339581Z"/><path class="uuid-d5344efe-2688-4a85-a5b1-e8291469d89a" d="M1139.271788899335661,450.69380000000092h-58.790998514810781v10.150900000000547c0,10.856399999998757-5.76958051614929,16.286599999999453-17.310580516139453,16.286599999999453h-9.712918801191336l-3.578081198818836-8.983400000000984h13.583999999998923c4.77148082550957,0,7.158180765220095-2.191899999999805,7.158180765220095-6.572799999999916v-10.881299999999101h-64.122998380120407v-9.129899999999907h64.122998380120407v-6.280800000000454c10.173819234791154-3.797300000000178,17.453099559090333-7.350099999999657,21.835899448371492-10.662099999999555h-55.943298586751553v-8.399900000000343h72.158218373169802v7.961900000000242c-7.597720004099756,5.161200000000463-16.994219766729657,10.442900000000009-28.191419483859136,15.847200000000157v1.533699999999953h58.790998514810781v9.129899999999907ZM1133.136989054313744,423.597600000000966h-8.765599778558681v-15.117700000000696h-102.023397422679409v15.995100000000093h-9.568399758281885v-24.538099999999758h12.56061777359173v-44.550699999999779c6.91208173449013-.681200000000899,14.486281543149744-3.968300000000454,22.714781335278531-9.858400000000984l4.820299878230799,6.718700000001263c-4.433599887999662,4.089399999998932-10.470699735489688,7.182099999999991-18.113299542419554,9.274900000000343v6.134799999999814h18.695299527718817v7.595699999999852h-18.695299527718817v7.959899999999834h18.695299527718817v7.448800000000119h-18.695299527718817v9.276299999999537h77.632798038828696v-9.276299999999537h-17.820299549819538v-7.30370000000039h17.820299549819538v-8.543999999999869h-17.67379955351862v-7.448700000000827h17.67379955351862v-7.960499999999229h-20.667899477879473v-8.837400000000343h29.943319767960929v49.224200000000565h11.466779185928317v23.807099999999991ZM1091.726890100424498,366.926199999999881l-5.111399870878813,6.280300000000352c-2.777280361171506-2.676799999999275-6.550699834511761-5.574699999999211-11.320280361160258-8.690500000000611-3.943319253250593,3.311100000000806-8.375,6.353100000000268-13.292919017061649,9.129000000000815l-5.98829984871918-5.25879999999961c4.722599880700727-1.947299999999814,8.859399776190912-4.235899999999674,12.415999686350915-6.864799999999377-5.941399849911249-2.238800000000992-10.736299728780068-3.797300000000178-14.388699636519959-4.673300000000381l3.726599905859985-6.72019999999975c5.402318910089889,1.363199999999779,10.831999726358845,3.117199999998775,16.285099588609228,5.258299999999508,3.457099912659032-3.260299999999916,6.353599839490926-6.595699999999852,8.691499780430604-10.005400000000009l6.134719541039885,4.893500000000131c-1.949219646770871,3.019099999999526-4.480519582830311,5.964899999999034-7.595719504130102,8.837499999999636,3.601599909010474,2.043400000000474,7.08399982103947,4.64890000000014,10.443399736179344,7.814399999999296ZM1092.601890078314682,393.508700000000317l-6.132799845070622,4.820300000001225c-3.943399900379518-3.018000000000029-8.035199797010137-5.524900000000343-12.269599690040195-7.52100000000064-2.6288999335884,1.996100000000297-7.302699815518281,4.503000000000611-14.021499645788936,7.52100000000064l-5.550699859779343-4.381800000001022c6.279299841369721-2.968300000000454,10.783199727589817-5.551299999999173,13.511699658669386-7.740700000000288-2.728499931079568-1.703099999998813-6.865299826569753-3.602999999999156-12.415999686350915-5.697799999999916l5.476499861650154-4.599599999999555c5.013718996769967,1.802299999999377,9.298899765090027,3.676299999999173,12.853499675300554,5.622100000000501,1.361399965600867-.777400000000853,4.113299896089302-3.113800000000992,8.25199979152967-7.011200000000827l6.718699830269543,3.433100000000195c-2.482399937280206,3.214299999999639-5.255799867218229,5.868599999999788-8.324199789709382,7.96140000000014,4.040999897919392,1.850099999999657,8.007799797709595,4.381299999999101,11.902399699320085,7.594199999999546Z"/><path class="uuid-d5344efe-2688-4a85-a5b1-e8291469d89a" d="M1303.797209868384016,450.69380000000092h-58.791000000010172v10.150900000000547c0,10.856399999998757-5.769623494359621,16.286599999999453-17.308623202858143,16.286599999999453h-9.712899754631508l-3.578099909609591-8.983400000000984h13.583899656840003c4.769599879509769,0,7.15629981920938-2.191899999999805,7.15629981920938-6.572799999999916v-10.881299999999101h-64.12109838015931v-9.129899999999907h64.12109838015931v-6.280800000000454c10.175799742941308-3.797300000000178,17.453099559101247-7.350099999999657,21.837899448330063-10.662099999999555h-55.943398586749026v-8.399900000000343h72.156298177180361v7.961900000000242c-7.595699808120116,5.161200000000463-16.994199570690398,10.442900000000009-28.191375647711538,15.847200000000157v1.533699999999953h58.791000000010172v9.129899999999907ZM1297.664384898005665,423.597600000000966h-8.767599778511794v-15.117700000000696h-102.023397422679409v15.995100000000093h-9.566399758328771v-24.538099999999758h12.560499682698719v-44.550699999999779c6.914099825329686-.681200000000899,14.484399634089641-3.968300000000454,22.712899426220247-9.858400000000984l4.820299878230799,6.718700000001263c-4.429699888100004,4.089399999998932-10.468699735540213,7.182099999999991-18.113299542421373,9.274900000000343v6.134799999999814h18.697299527670111v7.595699999999852h-18.697299527670111v7.959899999999834h18.697299527670111v7.448800000000119h-18.697299527670111v9.276299999999537h77.632822485171346v-9.276299999999537h-17.818323996210893v-7.30370000000039h17.818323996210893v-8.543999999999869h-17.67382399986127v-7.448700000000827h17.67382399986127v-7.960499999999229h-20.667923924220304v-8.837400000000343h29.943299243559522v49.224200000000565h11.468799710281019v23.807099999999991ZM1258.853785878443887,391.870500000000902l-6.654299831898243,6.083999999998923c-3.037099923280039-4.563500000000204-7.382799813500242-10.276299999999537-11.585899707321005-13.824699999999211-6.533199834959305,7.279300000000148-11.906299699219744,11.912099999999555-16.105499593139029,13.893099999999322l-6.583999833670532-5.528299999999945c4.949299874970166-2.354499999999462,10.316399739380358-6.751999999998588,16.107499593090324-13.203199999999924-6.583999833681446-4.10149999999885-11.275376637131558-6.637199999999211-14.076199644410735-7.605900000000474l5.74409985489001-5.940399999999499c2.33399994104002.922300000000178,6.718799830270655,3.31590000000142,13.165999667400683,7.189900000001217,1.916099951598881-3.135700000000725,3.406299913949624-6.568400000000111,4.480499886818507-10.302300000001196h-21.990199444488098v-8.638100000000122h11.788999702188448v-8.896999999999025h7.566423340471374v8.896999999999025h13.992176114908943v8.638100000000122h-2.769499930029269c-1.554676184880009,5.718300000000454-3.646499907879843,10.671400000001086-6.275399841470062,14.862800000000789,5.08989987142013,3.870199999999386,9.97459974802041,9.767099999999118,13.195299666658684,14.375Z"/><path class="uuid-d5344efe-2688-4a85-a5b1-e8291469d89a" d="M1470.732709868385427,379.342200000000958l-5.25780000001032,7.594699999999648c-16.603500000001077-4.090299999999843-29.601499999989755-8.812900000000809-38.997999999999593-14.167900000000373v6.573200000000725h-49.371100000000297v-7.231900000000678c-14.216799999991053,7.353000000000975-26.972699999991164,12.149900000000343-38.269599999999627,14.388200000001234l-4.818299999991723-7.668000000001484c27.361299999991388-6.669899999998961,50.146499999991647-17.819799999999304,68.357399999989866-33.449699999999211l8.982400000011694,2.994599999999991c-.974600000001374,1.21730000000025-1.826100000000224,2.070299999999406-2.556599999999889,2.555199999998877,16.164099999999962,13.438500000000204,36.808599999998478,22.909200000001874,61.931599999999889,28.411600000001272ZM1455.176109868385538,421.187900000000809h-106.041000000010172v-34.251000000000204h106.041000000010172v34.251000000000204ZM1446.486609868385131,477.276300000001356h-8.982400000009875v-5.842800000000352h-70.548799999991388v5.842800000000352h-8.982400000009875v-48.420400000000882h88.513600000011138v48.420400000000882ZM1397.77370986837559,413.300699999999779v-18.257299999999304h-39.656199999990349v18.257299999999304h39.656199999990349ZM1437.504209868375256,446.311499999999796v-9.420500000000175h-70.548799999991388v9.420500000000175h70.548799999991388ZM1437.504209868375256,463.547300000000178v-9.568400000000111h-70.548799999991388v9.568400000000111h70.548799999991388ZM1388.060909868385352,406.070200000000114l-7.521500000009837,5.258800000001429c-4.527399999991758-4.575200000001132-8.958999999991647-7.959900000001653-13.293000000001484-10.150800000001254l7.595700000001671-4.382400000000416c5.160200000009354,2.190500000000611,9.566399999999703,5.283200000001671,13.218800000009651,9.274400000000242ZM1423.482709868385427,371.235800000000381c-7.060500000001412-3.700699999999415-13.90230000000156-8.691899999999805-20.523400000000038-14.973200000000361-7.060600000009799,5.84230000000025-14.970699999999852,10.834000000000742-23.734400000010282,14.973200000000361h44.25780000001032ZM1446.195609868384054,413.300699999999779v-18.257299999999304h-39.4375v18.257299999999304h39.4375ZM1437.357709868385427,399.351500000000669c-2.873000000001412,4.577100000000428-7.207000000000335,8.473099999999249-13,11.685499999999593l-8.033200000001671-4.016999999999825c6.378900000001522-3.602100000000064,10.759800000001633-7.206099999999424,13.144600000001446-10.808600000000297l7.888600000000224,3.14010000000053Z"/><path class="uuid-d5344efe-2688-4a85-a5b1-e8291469d89a" d="M733.045881481704782,281.637099999999919l-2.640599933300109,3.510800000000017c-10.179699742839148-3-18.441399534129232-7.039600000000064-24.779299374020411-12.120100000000093-5.462899861993719,4.460399999999936-14.040999645292686,8.580500000000029-25.742179120012224,12.360800000000381l-2.939420155425978-3.570299999999406c11.320299714023349-3.139699999999721,19.88079949776693-6.94970000000103,25.681599351228215-11.430200000000696-5.820299852968674-5.5-9.732399754140715-12.189899999999398-11.730499703664464-20.070299999999406-1.079999972716905,2.77980000000025-2.562499935265805,5.41990000000078-4.441399887800799,7.91990000000078l-3.177699919724546-2.909200000001874c2.519499936352076-3.001399999999194,4.546899885135645-6.29149999999936,6.08789984620671-9.870999999999185h-10.320299739287293v-3.690000000000509h24.062499392130121v-10.260199999998804h3.869099902260132v10.200199999999313h24.480499381570553v3.689399999999296h-10.261699740769473c-1.798899954550507,10.44090000000142-5.937499850009772,18.75-12.419999686240772,24.930200000000696,5.900420959520488,4.480900000000474,13.990299646569838,8.251399999999194,24.271499386850337,11.309999999999491ZM717.174803054374934,245.396899999999732h-23.218720585182382c1.597599959641229,9.260700000000725,5.507799860861269,16.710000000000946,11.72849970371135,22.35109999999986,6.080099846400117-5.66019999999844,9.910220881471105-13.110899999999674,11.490220881471032-22.35109999999986Z"/><path class="uuid-d5344efe-2688-4a85-a5b1-e8291469d89a" d="M877.067002430914727,274.646899999999732h-24.152299389870677v4.171400000001086c0,4.459499999999025-2.369199940139879,6.690399999999499-7.109399820399631,6.690399999999499h-3.990199899199069l-1.468799962891353-3.690399999999499h5.578122181281287c1.960999999999331,0,2.941477603499152-.900400000000445,2.941477603499152-2.69970000000103v-4.471700000000055h-26.339899334599977v-3.75h26.339899334599977v-2.579099999999016c4.179599894410785-1.559600000000501,7.169899818869453-3.020000000000437,8.968699773429762-4.380900000000111h-22.980499419469197v-3.45010000000002h29.640699251220212v3.270000000000437c-3.119199921209656,2.121100000000297-6.980499823661376,4.290999999999258-11.580099707471163,6.510699999998906v.629399999999805h24.152299389870677v3.75ZM874.547502494555374,263.517499999999927h-3.601599909010474v-6.209499999999025h-41.912098941209479v6.569400000000314h-3.929699900731066v-10.079600000000937h5.160199869640564v-18.300799999999072c2.839799928260618-.278800000000047,5.951199849660043-1.629899999999907,9.331999764259308-4.049800000000687l1.978499950009791,2.760299999999916c-1.818299954058602,1.680599999999686-4.300699891349723,2.95010000000002-7.441377787679812,3.809999999999491v2.519500000000335h7.681677781611143v3.120600000000195h-7.681677781611143v3.270599999999831h7.681677781611143v3.058600000000297h-7.681677781611143v3.810999999999694h31.89257716999964v-3.810999999999694h-7.3222998150286v-3h7.3222998150286v-3.509299999999712h-7.259799816609302v-3.060100000000602h7.259799816609302v-3.270500000000538h-8.490199785519508v-3.629399999999805h12.298799689300722v20.220200000001569h4.712899880940313v9.779799999998431ZM857.535802924314339,240.237700000001496l-2.101599946909118,2.578599999998914c-1.138699971241294-1.099599999999555-2.689399932060041-2.288500000000568-4.64839988256972-3.569299999999203-1.621099959051207,1.35989999999947-3.441377555000145,2.60989999999947-5.460999862050812,3.75l-2.458899937879323-2.159200000000055c1.939399951008454-.800800000000891,3.638599908079414-1.740200000000186,5.09959987116963-2.820300000001225-2.441399938319591-.919899999998961-4.412077626240716-1.559999999999491-5.910199850690333-1.920899999999165l1.531299961310651-2.760200000000623c2.218699943949105.560499999999593,4.449199887609211,1.280700000001161,6.689399831009723,2.160600000001068,1.419899964130309-1.338400000000547,2.609422432129577-2.710000000000946,3.568422432130319-4.110300000000279l2.521477414029505,2.010199999998804c-.80079997977009,1.239800000001196-1.841799953470399,2.451200000001336-3.119199921200561,3.630900000000111,1.478499962649948.838800000001356,2.90819992653087,1.909100000000763,4.289099891650039,3.209900000001653ZM857.895202915235132,251.157600000000457l-2.51959993634955,1.979499999999462c-1.619099959101732-1.240200000000186-3.300799916620235-2.269999999998618-5.040999872660905-3.089799999999741-1.080099972710741.819800000001123-2.999999924209988,1.849599999999555-5.759799854489756,3.089799999999741l-2.281199942370222-1.800699999999779c2.581999934769556-1.219299999998839,4.431599888039273-2.278800000000047,5.550822230470658-3.178799999999683-1.119222342431385-.70010000000002-2.820322299450709-1.479400000000169-5.099622241870748-2.339799999999741l2.249999943160219-1.891100000000733c2.060499947949211.740700000000288,3.820299903489285,1.511200000000827,5.281199866580209,2.311000000001513.560599985839872-.320300000001225,1.68949995731964-1.27980000000025,3.388699914399695-2.880800000000818l2.759722517730552,1.410599999999249c-1.019522561689882,1.319800000001123-2.158222532931177,2.410700000000361-3.417922501101202,3.269500000000335,1.658199958110345.759799999999814,3.287099916960869,1.799399999999878,4.88869987650105,3.120600000000195Z"/><path class="uuid-d5344efe-2688-4a85-a5b1-e8291469d89a" d="M979.430874432475321,251.907200000001467c4.040999897910297,4.539999999999054,6.062499846839273,8.970699999999852,6.062499846839273,13.290499999999156,0,2.100099999999657-.544899986229211,3.770500000000538-1.636676219599394,5.009799999999814-1.08792371157142,1.240700000000288-2.613323673031118,1.860800000000381-4.574223623500075,1.860800000000381-1.080099972710741,0-2.380899939849769-.131400000000212-3.900399901460332-.389699999999721l-1.109376475040335-3.991700000000492c2.140576448990032.541999999999462,3.679676410110915.811600000000908,4.61907638637058.811600000000908.779299980320502,0,1.490299962359131-.300800000000891,2.13092361362942-.900900000000547.640576316360239-.599099999999453.960876308270599-1.399400000000242.960876308270599-2.399900000000343,0-1.499499999999898-.550699986089967-3.419400000000678-1.650399958311027-5.760800000000017-1.10147634995883-2.339299999999639-2.75189993047934-4.569799999999304-4.951099874919237-6.688900000001013l5.851499852180496-15.031299999998737h-8.910099774921036v47.791999999999462h-3.931699900669628v-51.60149999999885h16.830099574830456v3.809499999999389l-5.790999853699759,14.190500000000611ZM1020.803973387293809,274.498500000001513c-.521499986818526,3.239699999998265-1.220799969159998,5.590299999999843-2.101599946909118,7.049299999998766-.878899977789843,1.460399999999936-2.310599941629334,2.190399999999499-4.289099891640944,2.190399999999499h-4.67969988178811c-3.121099921150744,0-4.679599881781542-1.640599999998813-4.679599881781542-4.919899999998961v-15.870100000000093h-6.332099840039518c-.119099996989462,6.439899999999398-1.374999965259121,11.264100000000326-3.763699904919122,14.475099999999657-2.390599939610183,3.209399999999732-6.824199827600751,5.90519999999924-13.306599663841553,8.085399999999936l-2.519499936359352-3.451100000000224c6.019499847940097-1.779300000000148,10.150399743579328-4.08009999999922,12.390623619699909-6.899999999999636,2.240176010700452-2.819799999999304,3.36907598218022-6.870100000000093,3.390575981640723-12.149400000000242h-8.220699792331288v-3.931099999999788h32.132799188260833v3.871100000000297h-10.023399746789437v14.940399999999499c0,.499499999999898.16019999594937.964900000000853.48049998785973,1.394500000000335.32029999191036.430700000000797.701099982288724.645099999999729,1.140599971189658.645099999999729h3.810499903740492c.779299980309588,0,1.374999965259121-.640699999999924,1.785199954900236-1.920000000000073.40819998968982-1.279300000000148.753924551529053-2.939899999999398,1.035199973848648-4.980400000000373l3.749999905259756,1.470700000001671ZM1017.35277347448573,247.287000000000262l-3.808599903790309.061100000000806v-5.281800000000658h-22.621099428541129v5.281800000000658h-3.871099902209608v-9.091300000000047h13.169899667300342v-6.809600000000501h3.931699900680542v6.750500000000102h13.199199666560162v9.089299999999639ZM1012.313698059715534,253.077100000000428h-20.281223945590682v-3.930200000000696h20.281223945590682v3.930200000000696Z"/><path class="uuid-d5344efe-2688-4a85-a5b1-e8291469d89a" d="M1166.670707396484431,274.646899999999732h-24.152299999999741v4.171400000001086c0,4.459499999999025-2.371100000000297,6.690399999999499-7.109399999999368,6.690399999999499h-3.990200000000186l-1.470699999999852-3.690399999999499h5.58009999999922c1.960900000000038,0,2.941399999999703-.900400000000445,2.941399999999703-2.69970000000103v-4.471700000000055h-26.341824835339139v-3.75h26.341824835339139v-2.579099999999016c4.179700000000594-1.559600000000501,7.16990000000078-3.020000000000437,8.968700000001263-4.380900000000111h-22.980525146820582v-3.45010000000002h29.640725146819022v3.270000000000437c-3.119199999999182,2.121100000000297-6.980499999999665,4.290999999999258-11.58009999999922,6.510699999998906v.629399999999805h24.152299999999741v3.75ZM1164.149307396484801,263.517499999999927h-3.599700000000666v-6.209499999999025h-41.910124999840264v6.569400000000314h-3.931699900669628v-10.079600000000937h5.16219986959004v-18.300799999999072c2.837799928311142-.278800000000047,5.949199849710567-1.629899999999907,9.328125030921001-4.049800000000687l1.980499999999665,2.760299999999916c-1.820400000000518,1.680599999999686-4.298925208000583,2.95010000000002-7.439525128660534,3.809999999999491v2.519500000000335h7.679725128660721v3.120600000000195h-7.679725128660721v3.270599999999831h7.679725128660721v3.058600000000297h-7.679725128660721v3.810999999999694h31.890625128660758v-3.810999999999694h-7.320299999999406v-3h7.320299999999406v-3.509299999999712h-7.259700000000521v-3.060100000000602h7.259700000000521v-3.270500000000538h-8.490200000000186v-3.629399999999805h12.298800000000483v20.220200000001569h4.710999999999331v9.779799999998431ZM1147.139507396484987,240.237700000001496l-2.101599999999962,2.578599999998914c-1.140600000000632-1.099599999999555-2.689400000001115-2.288500000000568-4.650400000000445-3.569299999999203-1.619099999999889,1.35989999999947-3.439399999999296,2.60989999999947-5.45889999999963,3.75l-2.46100000000115-2.159200000000055c1.941400000001522-.800800000000891,3.642600000001039-1.740200000000186,5.101600000001781-2.820300000001225-2.441400000001522-.919899999998961-4.410200000000259-1.559999999999491-5.910200000000259-1.920899999999165l1.529300000000148-2.760200000000623c2.220699999999852.560499999999593,4.451199999999517,1.280700000001161,6.689499999998588,2.160600000001068,1.41990000000078-1.338400000000547,2.611300000000483-2.710000000000946,3.572200000000521-4.110300000000279l2.519599999999627,2.010199999998804c-.800799999999072,1.239800000001196-1.841800000000148,2.451200000001336-3.121100000000297,3.630900000000111,1.480400000000373.838800000001356,2.910100000000966,1.909100000000763,4.291000000001077,3.209900000001653ZM1147.498907396484356,251.157600000000457l-2.519599999999627,1.979499999999462c-1.621100000000297-1.240200000000186-3.300699999999779-2.269999999998618-5.039000000000669-3.089799999999741-1.082099999999627.819800000001123-3,1.849599999999555-5.761699999999109,3.089799999999741l-2.279300000000148-1.800699999999779c2.579999999999927-1.219299999998839,4.429599999999482-2.278800000000047,5.550699999999779-3.178799999999683-1.121100000000297-.70010000000002-2.822200000000521-1.479400000000169-5.101500000000669-2.339799999999741l2.25-1.891100000000733c2.060500000001412.740700000000288,3.820300000001225,1.511200000000827,5.279300000000148,2.311000000001513.560500000001412-.320300000001225,1.689400000001115-1.27980000000025,3.390600000000632-2.880800000000818l2.759799999999814,1.410599999999249c-1.019599999999627,1.319800000001123-2.160200000000259,2.410700000000361-3.420000000000073,3.269500000000335,1.660200000000259.759799999999814,3.29110000000037,1.799399999999878,4.890699999999924,3.120600000000195Z"/><path class="uuid-d5344efe-2688-4a85-a5b1-e8291469d89a" d="M1311.665465908314218,282.508200000000215h-54.599599999999555v-3.869599999999991h25.439399999999296v-14.070799999999508h-18.329999999999927v-3.870100000000093h18.329999999999927v-12.240200000000186h-13.589799999999741c-1.640599999998813,4.259200000000419-4.380900000000111,8.189399999999296-8.220699999999852,11.789500000000771l-3.958999999998923-2.070300000001225c6.558599999998478-6.059599999998682,10.208999999998923-13.47899999999936,10.949199999999109-22.259299999999712l4.050800000000891,1.16990000000078c-.160200000011173,2.040100000000166-.630900000011025,4.559599999998682-1.412100000001374,7.559599999998682h12.123000000001412v-13.139599999998609h4.048899999988862v13.079999999999927h21.179700000009689v3.870199999999386h-21.179700000009689v12.179599999999482h18.060500000001412v3.870200000001205h-18.060500000001412v14.071199999998498h25.169900000009875v3.929700000000594Z"/><path class="uuid-d5344efe-2688-4a85-a5b1-e8291469d89a" d="M1457.082036837815394,245.33640000000014l-2.158199999999852,3.121100000000297c-6.82030000001032-1.679700000000594-12.162100000010469-3.619699999999284-16.021500000011656-5.820400000000518v2.699300000000221h-20.28119999998853v-2.969299999998839c-5.839799999999741,3.020999999998821-11.080100000010134,4.989799999999377-15.71880000001147,5.910699999998542l-1.980399999998554-3.150399999998626c11.240200000000186-2.740700000000288,20.59960000000865-7.320800000001327,28.080100000010134-13.740700000000288l3.689399999990201,1.230400000000373c-.400400000000445.5-.75.85109999999986-1.048800000000483,1.05029999999897,6.638700000010431,5.519500000000335,15.121100000000297,9.409700000000157,25.43940000001021,11.668999999999869ZM1450.69343683781517,262.528299999999945h-43.560600000009799v-14.070799999999508h43.560600000009799v14.070799999999508ZM1447.123036837805557,285.567800000000716h-3.691400000001522v-2.399900000000343h-28.980399999998554v2.399900000000343h-3.689500000000407v-19.889600000000428h36.361300000000483v19.889600000000428ZM1427.111336837815543,259.287000000000262v-7.5h-16.289000000011583v7.5h16.289000000011583ZM1443.431636837804035,272.848100000001068v-3.870600000000195h-28.980399999998554v3.870600000000195h28.980399999998554ZM1443.431636837804035,279.928200000000288v-3.929699999998775h-28.980399999998554v3.929699999998775h28.980399999998554ZM1423.121136837815357,256.317800000000716l-3.089799999999741,2.159700000000157c-1.859400000010282-1.878399999999601-3.679700000011508-3.269599999999627-5.459000000011656-4.169499999999971l3.119100000001708-1.799800000000687c2.121100000009392.899000000001251,3.929700000009689,2.170000000000073,5.429700000009689,3.809600000000501ZM1437.671936837805333,242.008200000000215c-2.90039999999135-1.520000000000437-5.708999999989828-3.57129999999961-8.429699999991499-6.152299999999741-2.902400000009948,2.400900000000547-6.150399999998626,4.452100000000428-9.75,6.152299999999741h18.179699999991499ZM1447.002036837815467,259.287000000000262v-7.5h-16.199300000000221v7.5h16.199300000000221ZM1443.373036837805557,253.557600000000093c-1.181599999999889,1.879300000000512-2.960900000000038,3.479400000000169-5.341699999989942,4.799300000000585l-3.298900000001595-1.648999999999432c2.619199999990087-1.480400000000373,4.419899999989866-2.960900000000038,5.40039999999135-4.440400000001318l3.240200000000186,1.290100000000166Z"/></g></svg>