<?xml version="1.0" encoding="UTF-8"?><svg id="uuid-a8ffbbc3-fee3-4fa2-b997-d21a14c5aa88" xmlns="http://www.w3.org/2000/svg" width="231.163844306045149mm" height="250.002318467563953mm" xmlns:xlink="http://www.w3.org/1999/xlink" viewBox="0 0 655.26760000000013 708.667999999999665"><defs><style>.uuid-ca7c3b94-8c4f-45b2-a155-eda1609e9987{fill:none;}.uuid-191fda3a-c484-434e-bb33-a0901769ab50{fill:#a39b4b;}.uuid-8633d0b5-4798-4604-912c-f35cdff3d09a{clip-path:url(#uuid-ade77caa-e08a-442b-a248-d80389fe213e);}</style><clipPath id="uuid-ade77caa-e08a-442b-a248-d80389fe213e"><rect class="uuid-ca7c3b94-8c4f-45b2-a155-eda1609e9987" width="655.26760000000013" height="708.667999999999665"/></clipPath></defs><g class="uuid-8633d0b5-4798-4604-912c-f35cdff3d09a"><path class="uuid-191fda3a-c484-434e-bb33-a0901769ab50" d="M158.440900000000511,271.575199999999313c-9.105400000000373,21.52730000000065-14.519500000000335,44.144500000000335-16.170900000000074,67.425800000000891,3.58889999999974-2.921900000000278,8.16019999999935-4.679700000000594,13.137699999998404-4.679700000000594,5.495200000001205,0,10.487300000001596,2.152299999999741,14.216800000001058,5.636700000000928,7.337900000000445-95.593700000001263,87.224600000000464-170.873300000000654,184.701200000000426-170.873300000000654,7.552700000000186,0,13.674799999999777-6.122299999999996,13.674799999999777-13.675500000000284,0-7.552799999999934-6.122099999999591-13.675599999999577-13.674799999999777-13.675599999999577-28.689400000000205,0-56.53610000000026,5.624799999999595-82.766599999999926,16.718499999999949-25.317399999999907,10.711199999999735-48.050799999999981,26.033500000000004-67.566400000000613,45.550799999999526-19.518599999999424,19.51760000000013-34.844699999999648,42.25-45.551799999999275,67.572299999999814Z"/><path class="uuid-191fda3a-c484-434e-bb33-a0901769ab50" d="M339.185100000000602,538.971700000000055c-94.95510000000013-7.683600000000297-169.672900000000482-86.964900000000853-170.101599999999962-183.796900000000278,0-7.552699999999277-6.120100000000093-13.675799999999981-13.6758000000018-13.675799999999981-7.552699999998367,0-13.675699999998869,6.123100000000704-13.675699999998869,13.675799999999981.109300000000076,28.394499999999425,5.721599999999853,55.953099999999722,16.70890000000054,81.925799999999981,10.707099999999627,25.320299999999406,26.033199999999852,48.054700000000594,45.551799999999275,67.570299999999406,19.515600000000632,19.517600000001039,42.249000000000706,34.841800000000148,67.566400000000613,45.552700000000186,21.256800000000112,8.988300000000891,43.574200000000019,14.384799999999814,66.539999999999964,16.109400000001187-2.886700000000019-3.578100000000632-4.626900000000205-8.121100000000297-4.626900000000205-13.066400000000613,0-5.535200000000259,2.183600000000297-10.558599999999387,5.712900000000445-14.29489999999987Z"/><path class="uuid-191fda3a-c484-434e-bb33-a0901769ab50" d="M502.526899999999841,487.413099999999758c-2.66989999999987-2.66989999999987-6.168999999999869-4.003899999999703-9.668999999999869-4.003899999999703-3.498999999999796,0-7.000900000000001,1.333999999999833-9.671800000000076,4.003899999999703-33.342799999999443,32.292999999999665-78.777399999999943,52.177700000000186-128.860399999999572,52.177700000000186-7.552700000000186,0-13.675799999999981,6.123099999999795-13.675799999999981,13.675799999999981,0,7.552699999999277,6.123099999999795,13.675799999999981,13.675799999999981,13.675799999999981,28.690399999999499,0,56.534200000000055-5.625,82.763699999999517-16.718800000000556,24.407200000000557-10.322199999999611,46.401300000000447-24.949199999999109,65.4375-43.468699999999444,5.343700000000354-5.339899999999943,5.343700000000354-14,0-19.341800000000148Z"/><path class="uuid-191fda3a-c484-434e-bb33-a0901769ab50" d="M354.327199999998811,141.729699999999866c-28.690499999998792,0-56.540099999998347,5.629699999999957-82.769999999998618,16.719500000000153-25.320399999999609,10.709999999999582-48.050299999999879,26.040099999999711-67.560099999999693,45.549799999999777-19.520000000000437,19.520500000000538-34.850100000000566,42.25-45.560100000000602,67.58010000000013-9.100099999999657,21.520499999999629-14.519999999999527,44.140599999999722-16.16989999999987,67.41989999999987,3.589899999999943-2.91989999999987,8.159700000000157-4.679700000000594,13.13970000000063-4.679700000000594,5.5,0,10.490199999999277,2.150400000000445,14.22019999999975,5.640700000000834,7.339799999999741-95.600600000000668,87.22019999999975-170.870400000000245,184.700199999998404-170.870400000000245,7.549800000001596,0,13.669900000001689-6.129399999999805,13.669900000001689-13.680400000000191,0-7.549799999999777-6.120100000000093-13.679499999999734-13.669900000001689-13.679499999999734ZM339.186999999999898,538.969699999999648c-94.959899999999834-7.680599999999686-169.66989999999987-86.959899999999834-170.100099999999657-183.789999999999964,0-7.560599999999795-6.120100000000093-13.680699999999888-13.680099999999584-13.680699999999888-7.549800000000687,0-13.670000000000073,6.120100000000093-13.670000000000073,13.680699999999888.100099999999657,28.389599999999518,5.720299999999952,55.950200000000223,16.700199999999313,81.91989999999987,10.710000000000036,25.320300000000316,26.040100000000166,48.059600000000501,45.560100000000602,67.570300000000316,19.509799999999814,19.519600000000537,42.239700000000084,34.839899999999943,67.560099999999693,45.549799999999777,21.259699999999611,8.990300000000389,43.579499999999825,14.389699999999721,66.539999999999964,16.109400000000278-2.880400000000009-3.569300000000112-4.620100000000093-8.119099999999889-4.620100000000093-13.059599999999591,0-5.540000000000873,2.179700000000594-10.559500000000298,5.709899999999834-14.299800000000687ZM502.526899999999841,487.409200000000055c-2.66989999999987-2.66990000000078-6.16989999999987-4-9.66989999999987-4s-7,1.33009999999922-9.670000000000073,4c-33.339799999999741,32.300799999999981-78.78019999999924,52.180599999999686-128.859800000001087,52.180599999999686-7.55029999999897,0-13.680199999998877,6.120200000000295-13.680199999998877,13.679700000000594,0,7.549799999998868,6.129899999999907,13.670000000000073,13.680199999998877,13.670000000000073,28.689900000001217,0,56.52980000000116-5.620200000001205,82.75970000000143-16.71980000000076,24.410200000000259-10.320299999999406,46.399900000000343-24.950199999999313,65.4399999999996-43.459899999999834,5.33980000000065-5.339899999999943,5.33980000000065-14,0-19.350599999999758Z"/><path class="uuid-191fda3a-c484-434e-bb33-a0901769ab50" d="M466.917000000000371,241.748999999999796c-30.08010000000013-30.069300000000112-70.0600000000004-46.629899999999907-112.58980000000156-46.629899999999907-42.530299999998533,0-82.510299999999006,16.560599999999795-112.590399999998226,46.629899999999907-30.069800000000214,30.08010000000013-46.629800000000614,70.060600000000704-46.629800000000614,112.590799999999945,0,42.529300000000148,16.5600000000004,82.509799999999814,46.629800000000614,112.58010000000013,30.08009999999922,30.079099999999926,70.060099999999693,46.63970000000063,112.590399999998226,46.63970000000063,42.52980000000116,0,82.50970000000143-16.560600000000704,112.58980000000156-46.63970000000063,30.069800000000214-30.070300000000316,46.629899999999907-70.050799999999981,46.629899999999907-112.58010000000013,0-42.53019999999924-16.560099999999693-82.510699999999815-46.629899999999907-112.590799999999945ZM264.446799999999712,310.460000000000036h-12.939899999999398v87.759699999999611h12.939899999999398v7.609400000000278h-22.33009999999922v-102.979500000000371h22.33009999999922v7.610400000000482ZM282.077199999998811,405.829099999999926v-72.729500000000371c0-6.270499999999629-.100099999998747-11.940399999999499-.320299999998497-17.020499999999629-.210000000000036-5.08980000000065-.540100000000166-9.5-.96979999999985-13.229500000000371h13.199700000000121v72.410200000000259c0,2.059499999999389.030299999999443,4.479499999999462.090399999998226,7.269500000000335.069800000001123,2.789999999999054.159600000001774,5.620100000000093.25970000000143,8.5.10989999999947,2.870100000000093.24029999999857,5.620100000000093.390199999999822,8.240200000000186.149900000000343,2.610399999999572.33010000000013,4.799799999998868.549799999999777,6.559599999999591h-13.19970000000103ZM351.597200000000157,348.609399999999368h-12.110399999999572v48.790000000000873h12.110399999999572v8.429699999999684h-36.050299999999879v-8.429699999999684h11.910200000000259v-48.790000000000873h-11.910200000000259v-8.429699999999684h36.050299999999879v8.429699999999684ZM427.866700000000492,398.748999999999796c0,7.25-.639600000000428,13.270500000000538-1.899900000000343,18.050799999999981-1.270000000000437,4.789999999999964-3.039999999999964,8.609400000000278-5.309999999999491,11.460000000000036-2.270100000000639,2.849599999999555-5.009800000000723,4.870100000000093-8.210000000000946,6.049800000000687-3.199699999999211,1.179699999998775-6.75,1.769499999999425-10.649899999999434,1.769499999999425-1.930199999999786,0-4-.309599999999591-6.210000000000036-.929699999999684-2.209899999999834-.629899999999907-4.22019999999975-1.490200000000186-6.020000000000437-2.610300000000279l4.180200000000696-9.649499999999534c.989700000000084.729499999999462,2.310099999999693,1.339899999999034,3.960000000000036,1.83009999999922,1.649899999999434.490300000000389,3.339799999999741.740300000000389,5.049799999999777.740300000000389,2.059999999999491,0,3.910100000000057-.33010000000013,5.539999999999964-1,1.629899999999907-.660200000000259,3.010299999999916-1.83010000000013,4.149899999999434-3.5,1.14010000000053-1.680699999999888,2.010300000000825-3.970700000000761,2.610400000000482-6.890700000000834.599600000000464-2.919899999998961.899900000000343-6.629799999998795.899900000000343-11.139599999999518v-28.320300000000316c0-5.149399999999332-.270100000000639-9.320299999999406-.810100000000602-12.509799999999814-.530299999999443-3.200199999999313-1.339799999999741-5.690399999999499-2.41019999999935-7.469699999999648-1.069800000000214-1.780300000000352-2.409600000001774-2.970699999999852-4.020000000000437-3.58010000000013-1.609800000000178-.589799999999741-3.489700000000084-.890599999999722-5.629899999999907-.890599999999722-2.319800000000214,0-4.579999999999927.539999999999964-6.789999999999964,1.640599999999722-2.210000000000036,1.08980000000065-4.239700000000084,2.509800000000723-6.089799999999741,4.25-1.840400000000045,1.729500000000371-3.470299999999952,3.689499999999498-4.890200000000732,5.88970000000063-1.410099999999147,2.179599999999482-2.459899999999834,4.370100000000093-3.149899999999434,6.559499999999389v37.33010000000013h-11.910100000000057v-39.58010000000013c0-6.349599999999555-.35990000000038-11.729499999999462-1.089899999999943-16.129899999999907-.730000000000473-4.399400000000242-1.439900000000307-7.709899999999834-2.129899999999907-9.939400000000205h11.589899999999943c.259699999999611.689400000000205.509699999999611,1.58010000000013.769999999999527,2.66989999999987.259800000000723,1.089900000000853.489700000000084,2.240200000000186.710000000000036,3.439500000000407.209899999999834,1.209899999999834.410100000000057,2.390599999999722.579999999999927,3.539999999999964l.509799999999814,2.900399999999536c4.120100000000093-4.889699999999721,8.260300000000825-8.419899999998961,12.41990000000078-10.589899999999034,4.170399999999972-2.160100000000966,8.5-3.25,13.010299999999916-3.25,3.430199999999786,0,6.47019999999975.570399999999609,9.100099999999657,1.709999999999127,2.639600000000428,1.139699999999721,4.859800000000178,2.939500000000407,6.66989999999987,5.399400000000242,1.799799999999777,2.470699999999852,3.160200000000259,5.670900000000074,4.08010000000013,9.600599999999758.929700000000594,3.91990000000078,1.389600000000428,8.649400000000242,1.389600000000428,14.189500000000407v28.959899999999834ZM466.537100000000464,405.829099999999926h-22.329999999999927v-7.609400000000278h12.939899999999398v-87.759699999999611h-12.939899999999398v-7.610400000000482h22.329999999999927v102.979500000000371Z"/></g></svg>