<?xml version="1.0" encoding="UTF-8"?><svg id="uuid-e9c407a3-4408-49b1-bdde-3a345ce792fb" xmlns="http://www.w3.org/2000/svg" width="1020.930265778277203mm" height="250.000237078706277mm" xmlns:xlink="http://www.w3.org/1999/xlink" viewBox="0 0 2893.975600000001577 708.662099999999555"><defs><style>.uuid-6ee1f2aa-b423-4838-8971-d93ce6a4f20b{fill:#00c2f3;}.uuid-2ff37202-b07a-479c-b47a-6796ee1d3cea{fill:#fff;}.uuid-bc45d60e-a464-432a-9de8-1c33687e7af0{fill:#ee212e;}.uuid-507efd34-6258-4200-814f-55bec0452b61{fill:none;}.uuid-4235ba28-20cf-4d6f-85a7-f5e94549293b{fill:#333e48;}.uuid-924ba432-4084-47e7-97b7-79a18bfe6607{fill:#46bc96;}.uuid-a6689cea-633b-44b5-bf7b-087851c9d637{clip-path:url(#uuid-ccd1189b-15a1-4dd1-9ac3-9d094393da12);}</style><clipPath id="uuid-ccd1189b-15a1-4dd1-9ac3-9d094393da12"><rect class="uuid-507efd34-6258-4200-814f-55bec0452b61" x=".001000000000204" y=".005400000000009" width="2893.974600000001374" height="708.662599999999657"/></clipPath></defs><g class="uuid-a6689cea-633b-44b5-bf7b-087851c9d637"><path class="uuid-bc45d60e-a464-432a-9de8-1c33687e7af0" d="M1095.174788624397479,341.497499999999491c7.554699809152225,0,13.675799654520233,6.122600000000602,13.675799654520233,13.675799999999981,0-.279300000000148-.009699999754957-.558100000000195-.009699999754957-.837899999999536,0-102.310500000000502,82.935497904873046-185.248000000000502,185.247995320241898-185.248000000000502,7.55269980920275,0,13.673799654570757-6.120600000000195,13.673799654570757-13.676300000000083,0-7.550299999999879-6.121099845368008-13.673300000000381-13.673799654570757-13.673300000000381-28.687499275292794,0-56.53519857180072,5.625-82.763697909213079,16.718700000000354-25.318299360405945,10.709499999999935-48.050798786134692,26.033200000000761-67.564398293179693,45.548900000000685-19.517599506943952,19.517499999999927-34.843799119771575,42.25-45.55279884923948,67.568299999998999-11.093699719749566,26.228500000001077-16.718699577650113,54.072299999999814-16.718699577650113,82.761700000000928,0,.279799999999341.00981102987862.558599999999387.00981102987862.837899999999536,0-7.553199999999379,6.122999999999593-13.675799999999981,13.675688624396571-13.675799999999981Z"/><path class="uuid-924ba432-4084-47e7-97b7-79a18bfe6607" d="M1280.413099999999758,553.259299999999712c0-7.552800000000389,6.123083790202145-13.675300000000789,13.675783599404895-13.675300000000789-102.031297422472562,0-184.78519533193321-82.486799999999675-185.238295320486941-184.410699999999451,0-7.553199999999379-6.121099845368008-13.675799999999981-13.675799654520233-13.675799999999981-7.552688624396978,0-13.675688624396571,6.122600000000602-13.675688624396571,13.675799999999981.109288967112661,28.393100000000231,5.724588825258252,55.951200000000426,16.708888547771494,81.923899999999776,10.708999729467905,25.31880000000001,26.035199342295527,48.053200000000288,45.55279884923948,67.566400000000613,19.513599507045001,19.519999999999527,42.246098932773748,34.843699999999444,67.564398293179693,45.553199999999379,26.228499337412359,11.093200000000252,54.076198633920285,16.718200000000252,82.763697909213079,16.718200000000252-7.55269980920275,0-13.675783599404895-6.122999999999593-13.675783599404895-13.675699999999779Z"/><path class="uuid-6ee1f2aa-b423-4838-8971-d93ce6a4f20b" d="M1442.28617985562596,487.40769999999975c-5.33989986510278-5.339400000000751-13.996079855625794-5.339400000000751-19.339899511433032,0-33.341799157715286,32.29149999999936-78.775398009966011,52.176299999999173-128.857396744788275,52.176299999999173-7.55269980920275,0-13.675783599404895,6.1225000000004-13.675783599404895,13.675300000000789,0,7.552700000000186,6.123083790202145,13.675699999999779,13.675783599404895,13.675699999999779,28.68949927524227,0,56.533216400595848-5.625,82.761697909263603-16.718200000000252,24.408199383397005-10.322799999999916,46.400398827827303-24.947799999999916,65.435598346957704-43.466799999999239,5.343699865006784-5.340300000000752,5.343699865006784-14,0-19.34230000000025Z"/><path class="uuid-6ee1f2aa-b423-4838-8971-d93ce6a4f20b" d="M1406.670880755344115,241.753399999999601c-30.068299240410852-30.071799999999712-70.052698230319947-46.630900000000111-112.581997155939462-46.630900000000111-42.527298925670038,0-82.511697915579134,16.559100000000399-112.581997155939462,46.630900000000111-30.070299240360328,30.072299999999814-46.634786443464691,70.054699999999684-46.634786443464691,112.582000000000335,0,42.529799999999341,16.564487203104363,82.509799999999814,46.634786443464691,112.582599999999729,30.070299240360328,30.071700000000419,70.054698230269423,46.634200000000419,112.581997155939462,46.634200000000419,42.529298925619514,0,82.51369791552861-16.5625,112.581997155939462-46.634200000000419,30.072299240309803-30.072799999999916,46.630898822004383-70.052800000000389,46.630898822004383-112.582599999999729,0-42.52730000000065-16.55859958169458-82.509700000000521-46.630898822004383-112.582000000000335Z"/><path class="uuid-4235ba28-20cf-4d6f-85a7-f5e94549293b" d="M1181.881886433991895,405.825699999999415v-102.978500000000167h22.331999435846228v7.613200000000688h-12.943399673022213v87.751999999999498h12.943399673022213v7.613299999999981h-22.331999435846228Z"/><path class="uuid-4235ba28-20cf-4d6f-85a7-f5e94549293b" d="M1406.297880764766887,302.847199999999248v102.978500000000167h-22.330099435894226v-7.613299999999981h12.939499673120736v-87.751999999999498h-12.939499673120736v-7.613200000000688h22.330099435894226Z"/><path class="uuid-2ff37202-b07a-479c-b47a-6796ee1d3cea" d="M1233.750985123668215,375.255400000000009c0,2.056599999999889.031299999209295,4.484300000000076.093799997630413,7.27139999999963.064399998373119,2.789600000000064.152314878701873,5.623599999999897.259699993439426,8.496100000000297.107399997286848,2.875500000000102.234399994078558,5.623099999998885.386699990231136,8.238299999999072.148499996248574,2.619200000001001.332099991610448,4.807099999999991.544999986232142,6.564500000000407h-13.191399666757206v-72.730499999999665c0-6.263200000000325-.107499997284322-11.9375-.322299991858017-17.021500000000742-.214899994571169-5.085900000000038-.537099986431713-9.496599999999489-.966799975576578-13.22649999999976h13.195299666658684v72.408200000000761Z"/><path class="uuid-2ff37202-b07a-479c-b47a-6796ee1d3cea" d="M1291.354483668481407,340.17529999999897v8.433600000000297h-12.099599694338394v48.787099999999555h12.099599694338394v8.429700000000594h-36.040999089527759v-8.429700000000594h11.906299699221563v-48.787099999999555h-11.906299699221563v-8.433600000000297h36.040999089527759Z"/><path class="uuid-2ff37202-b07a-479c-b47a-6796ee1d3cea" d="M1318.387682985565334,340.17529999999897c.257799993487424.689900000000307.515699986972322,1.578100000000632.771499980510271,2.674300000000585.261699993388902,1.093300000000454.492199987565982,2.239700000000084.708999982089153,3.440899999999601.212917051836484,1.201200000000426.406199989738525,2.382800000000316.580099985345441,3.541500000000269l.511699987073371,2.892100000000028c4.121117079417672-4.888699999999517,8.259799791339901-8.417999999999665,12.421899686196411-10.583999999999833,4.163999894808512-2.166000000000167,8.499999785271939-3.25,13.003899671493855-3.25,3.431599913310492,0,6.468699836586893.566399999999703,9.105399769978249,1.703199999999924,2.640699933290307,1.141099999999824,4.861399877190706,2.941799999999603,6.664099831650674,5.406700000000455,1.798818120098076,2.468699999999444,3.162099920118635,5.667999999999665,4.085899896781484,9.591300000000047.923918223315923,3.927699999999277,1.38479996501701,8.653800000000047,1.38479996501701,14.193799999999101v28.958099999999831c0,7.254300000000512-.634799983963603,13.274400000000242-1.90229995194386,18.055600000000595-1.261799968124251,4.786600000000362-3.035199923324399,8.603000000000065-5.306699865941482,11.460500000000138-2.273399942569085,2.849599999999555-5.011699873393809,4.867199999999684-8.206999792673741,6.046800000000076-3.197299919229408,1.181699999999182-6.748099829528655,1.770999999999731-10.652399730897741,1.770999999999731-1.929599951254204,0-3.999999898951501-.311499999999796-6.210899843099469-.933100000000195-2.208999944195966-.625-4.214799893525196-1.492199999999684-6.017582557144124-2.607899999999972l4.183582603474861-9.653299999999945c.986417396525212.728000000000065,2.306699941727857,1.339399999999841,3.958999899987248,1.835900000000038,1.650417496537557.489799999999377,3.335899915728078.737799999999879,5.048799872456584.737799999999879,2.062499947896868,0,3.908199901270564-.331999999999425,5.539099860070564-.998000000000502,1.630899958800001-.664099999999962,3.013699923867534-1.831999999999425,4.150399895152077-3.506399999999303,1.136699971284543-1.673299999999472,2.005899949326704-3.969700000000557,2.607399934131536-6.885699999999815.59959998485283-2.920400000000882.900399977253983-6.631400000000212.900399977253983-11.134799999999814v-28.320800000000418c0-5.148400000000038-.267599993239855-9.322199999999611-.804682042527929-12.519499999999425-.535117923625876-3.195300000001225-1.343717903198922-5.685500000000502-2.415999999999258-7.46480000000065-1.070317849073035-1.781299999999646-2.412117815176316-2.970699999999852-4.023417774471454-3.574299999999312-1.605499959441659-.597600000000966-3.48249991202465-.900400000000445-5.628899857802026-.900400000000445-2.316399941482814,0-4.576199884395464.54739999999947-6.787199828540906,1.644599999999627-2.210899944147968,1.091800000000148-4.24209989283554,2.509700000000521-6.085899846257234,4.246100000000297-1.845699953373696,1.736300000000483-3.474582692928379,3.697200000000521-4.890582692927637,5.889100000000326-1.414117147802244,2.188500000000204-2.466817121208805,4.374499999999898-3.15631710379057,6.563500000000204v37.330599999999322h-11.904299699272087v-39.582500000000437c0-6.349199999999655-.365199990774272-11.724199999999655-1.09569997232029-16.123099999998885-.728499981596542-4.397900000000845-1.439399963637698-7.712400000000343-2.124999946317985-9.944800000001123h11.587899707265024Z"/><path class="uuid-4235ba28-20cf-4d6f-85a7-f5e94549293b" d="M201.224200000000565,379.623999999999796h-54.992699999999786v-9.129899999999907h54.992699999999786v9.129899999999907ZM194.067400000000816,476.829599999999118h-9.421400000000176v-10.005900000000111h-21.982899999999972v10.005900000000111h-9.566899999999805v-49.369599999999991h40.971199999999953v49.369599999999991ZM193.628900000000613,398.466799999999239l-40.386700000000019.144999999999527v-9.127399999999398h40.386700000000019v8.98239999999987ZM193.774900000000343,417.600099999999657h-40.53269999999975v-9.128899999999703h40.53269999999975v9.128899999999703ZM191.949200000000928,361.073699999999008l-37.100000000000364.146500000000742v-9.128899999999703h37.100000000000364v8.982399999998961ZM184.64600000000064,457.840799999999945v-21.397899999999936h-22.128400000000511v21.397899999999936h22.128400000000511ZM279.003400000000511,417.746599999999489l-78.947699999999713.145499999999629v-8.98239999999987h19.572299999999814l4.236299999999574-22.566399999999703h-18.257799999999406v-8.983000000000175h19.718699999999444l3.140200000000732-16.725100000000566h-27.971200000000863v-9.128399999999601h72.520500000000538v8.982900000000882h-34.690499999999702l-2.994100000000799,16.725099999999657h30.089400000000751l-3.140700000000834,31.548399999999674h16.724600000000464v8.983400000000074ZM266.295400000000882,477.121599999999489h-9.420900000000074v-9.859400000000278h-36.954099999999926v9.859400000000278h-9.567300000000614v-49.515699999999924h55.942300000000614v49.515699999999924ZM256.874500000000808,458.278800000000047v-21.690400000000409h-37.100100000000566v21.690400000000409h37.100100000000566ZM255.41360000000077,386.196799999999712h-21.690400000000409l-4.235399999999572,22.712899999999536h23.662099999999555l2.263700000000426-22.712899999999536Z"/><path class="uuid-4235ba28-20cf-4d6f-85a7-f5e94549293b" d="M443.674800000000687,379.623999999999796h-132.77100000000064v-9.129899999999907h132.77100000000064v9.129899999999907ZM424.102600000000166,398.319799999999304h-94.941899999999805v-8.835399999999936h94.941899999999805v8.835399999999936ZM424.102600000000166,417.308099999999286h-94.941899999999805v-8.836899999999332h94.941899999999805v8.836899999999332ZM420.670400000000882,477.121599999999489h-9.420900000000074v-10.297900000000482h-68.504400000000714v10.297900000000482h-9.420899999999165v-49.661600000000362h87.346199999999953v49.661600000000362ZM420.524400000000242,360.124499999999898l-86.47019999999975.218799999999646v-8.836500000000342h86.47019999999975v8.617700000000696ZM411.249500000000808,457.840799999999945v-21.397899999999936h-68.504400000000714v21.397899999999936h68.504400000000714Z"/><path class="uuid-4235ba28-20cf-4d6f-85a7-f5e94549293b" d="M608.348700000000463,450.684099999999489h-58.79110000000037v10.151300000000447c0,10.856999999999971-5.769499999999425,16.286199999999553-17.310499999999593,16.286199999999553h-9.712900000000445l-3.578099999999722-8.98239999999987h13.583999999999833c4.771500000000742,0,7.158200000000761-2.192399999999907,7.158200000000761-6.572799999999916v-10.882300000000214h-64.123100000000704v-9.128900000000613h64.123100000000704v-6.280799999999545c10.173799999999574-3.798299999999472,17.453099999999722-7.35109999999986,21.835899999999128-10.662600000000566h-55.943399999999201v-8.399399999999332h72.158300000000054v7.960900000000038c-7.597700000000259,5.161199999999553-16.994200000000092,10.443899999999303-28.191500000000815,15.84769999999935v1.534200000000055h58.79110000000037v9.128900000000613ZM602.213900000000649,423.588399999999638h-8.765599999999722v-15.117199999999684h-102.02350000000024v15.994099999999889h-9.56880000000001v-24.538099999999758h12.560999999999694v-44.550700000000688c6.912100000000464-.680699999999888,14.486300000000483-3.967299999999341,22.714899999999943-9.858400000000074l4.820300000000316,6.718699999999444c-4.433600000000297,4.090300000000752-10.470699999999852,7.182600000000093-18.113299999999981,9.275400000000445v6.134799999999814h18.695299999999406v7.596199999999953h-18.695299999999406v7.95890000000054h18.695299999999406v7.448800000000119h-18.695299999999406v9.276300000000447h77.632799999999406v-9.276300000000447h-17.820299999999406v-7.302800000000389h17.820299999999406v-8.543899999999667h-17.673799999999574v-7.449200000000019h17.673799999999574v-7.96100000000024h-20.667999999999665v-8.83639999999923h29.943400000000111v49.223199999999451h11.466800000000148v23.807600000000093ZM560.80370000000039,366.91649999999936l-5.111299999999574,6.280300000000352c-2.77730000000065-2.676800000000185-6.550799999999981-5.574300000000221-11.320300000000316-8.690000000000509-3.943400000000111,3.311499999999796-8.375,6.353500000000167-13.292999999999665,9.128399999999601l-5.988299999999981-5.258699999999408c4.72269999999935-1.94630000000052,8.859399999999368-4.23490000000038,12.41609999999946-6.864300000000185-5.941399999999703-2.239299999999275-10.736399999999776-3.79739999999947-14.388699999999517-4.673799999999574l3.726599999999962-6.720200000000659c5.402299999999741,1.364199999999983,10.831999999999425,3.117600000000493,16.285100000000057,5.258300000000418,3.456999999999425-3.259300000000621,6.353499999999258-6.595699999999852,8.691399999999703-10.004899999999907l6.134799999999814,4.894000000000233c-1.949200000000019,3.018100000000231-4.480499999999665,5.964399999999841-7.595699999999852,8.83639999999923,3.60149999999976,2.043999999999869,7.083999999999833,4.649900000000343,10.443299999999908,7.814500000000407ZM561.67870000000039,393.5l-6.132800000000316,4.819799999999304c-3.943299999999908-3.018500000000131-8.035099999999147-5.525400000000445-12.269499999999425-7.520999999999731-2.628899999999703,1.995599999999286-7.302700000000186,4.5024999999996-14.021499999999833,7.520999999999731l-5.550799999999981-4.381799999999203c6.279299999999239-2.968800000000556,10.783199999999852-5.550800000000891,13.511700000000019-7.74120000000039-2.728500000000167-1.703600000000733-6.865200000000186-3.602600000000166-12.416000000000167-5.696799999999712l5.476599999999962-4.599600000000464c5.013699999999517,1.801300000000083,9.298799999999574,3.675299999999879,12.853500000000167,5.621599999999489,1.361299999999574-.777899999999136,4.113299999999981-3.114299999999275,8.251999999999498-7.010800000000017l6.718700000000354,3.432600000000093c-2.48239999999987,3.213900000000649-5.255799999999908,5.868200000000797-8.324200000000019,7.96100000000024,4.041000000000167,1.850600000000668,8.007799999999406,4.38130000000001,11.902299999999741,7.595200000000659Z"/><path class="uuid-4235ba28-20cf-4d6f-85a7-f5e94549293b" d="M772.874100000000908,450.684099999999489h-58.79110000000037v10.151300000000447c0,10.856999999999971-5.769500000000335,16.286199999999553-17.308600000000297,16.286199999999553h-9.712799999999334l-3.578200000000834-8.98239999999987h13.584000000000742c4.769499999999425,0,7.156299999999646-2.192399999999907,7.156299999999646-6.572799999999916v-10.882300000000214h-64.121129999999539v-9.128900000000613h64.121129999999539v-6.280799999999545c10.175699999999779-3.798299999999472,17.453099999999722-7.35109999999986,21.837900000000445-10.662600000000566h-55.943400000000111v-8.399399999999332h72.156199999999444v7.960900000000038c-7.595699999999852,5.161199999999553-16.994099999999889,10.443899999999303-28.191399999999703,15.84769999999935v1.534200000000055h58.79110000000037v9.128900000000613ZM766.741196921328083,423.588399999999638h-8.76749977851432v-15.117199999999684h-102.02349714281354v15.994099999999889h-9.566379999999299v-24.538099999999758h12.560579999999391v-44.550700000000688c6.91399999999976-.680699999999888,14.484300000000076-3.967299999999341,22.712900000000445-9.858400000000074l4.820299999999406,6.718699999999444c-4.429699999999684,4.090300000000752-10.468799999999646,7.182600000000093-18.113299999999981,9.275400000000445v6.134799999999814h18.697300000000723v7.596199999999953h-18.697300000000723v7.95890000000054h18.697300000000723v7.448800000000119h-18.697300000000723v9.276300000000447h77.632800000000316v-9.276300000000447h-17.818400000000111v-7.302800000000389h17.818400000000111v-8.543899999999667h-17.673799999999574v-7.449200000000019h17.673799999999574v-7.96100000000024h-20.667999999999665v-8.83639999999923h29.943397211050979v49.223199999999451h11.468699710276269v23.807600000000093ZM727.930700000000797,391.860799999999472l-6.654300000000148,6.083999999999833c-3.037100000000464-4.563500000000204-7.382800000000316-10.27639999999974-11.585900000000038-13.824699999999211-6.533199999999852,7.280299999999443-11.906300000000556,11.913099999999758-16.105499999999665,13.894099999999526l-6.584000000000742-5.529300000000148c4.949200000000019-2.354499999999462,10.316400000000613-6.752000000000407,16.10739999999987-13.203199999999924-6.583999999999833-4.100099999999657-11.275399999999536-6.636700000000019-14.076099999999315-7.604999999999563l5.744099999999889-5.940900000000511c2.333999999999833.921900000000278,6.718699999999444,3.315499999999702,13.166000000000167,7.189499999999498,1.915999999999258-3.135299999999916,3.406299999999646-6.568400000000111,4.480499999999665-10.301299999999173h-21.990300000000389v-8.639100000000326h11.789099999999962v-8.896499999999833h7.566400000000613v8.896499999999833h13.992199999999684v8.639100000000326h-2.769499999999425c-1.554700000000594,5.71730000000025-3.646500000000742,10.670399999999063-6.275400000000445,14.86279999999897,5.089799999999741,3.869100000000799,9.974600000000464,9.766600000000835,13.195300000000316,14.374000000000706Z"/><path class="uuid-4235ba28-20cf-4d6f-85a7-f5e94549293b" d="M939.809592549252557,379.332499999999527l-5.2577998671768,7.594700000000557c-16.60349958056031-4.08980000000065-29.601599252200685-8.812000000000808-38.998099014825129-14.167900000000373v6.573199999999815h-49.371098752781108v-7.230899999999565c-14.21669964085595,7.35149999999885-26.972599318614812,12.14890000000014-38.269494914468851,14.387199999999211l-4.818303997041767-7.667999999999665c27.361303997041432-6.66989999999987,50.146398733195383-17.818900000000212,68.357398273146828-33.449200000000019l8.98239977308549,2.994099999999889c-.974599975379533,1.218299999999545-1.826199953866308,2.070300000000316-2.556599935414852,2.555699999999888,16.163999591663014,13.438900000000103,36.808599070136552,22.909200000000055,61.931598435476189,28.41110000000026ZM924.252992942245328,421.179199999999582h-106.041097321176494v-34.251999999999498h106.041097321176494v34.251999999999498ZM915.563493161760562,477.26759999999922h-8.982393161760228v-5.842800000000352h-70.548804829112669v5.842800000000352h-8.982499773082964v-48.420399999999972h88.513697763955861v48.420399999999972ZM866.850594392351923,413.291999999999462v-18.258299999999508h-39.656198998200125v18.258299999999508h39.656198998200125ZM906.581100000000333,446.302200000000084v-9.420900000000984h-70.548804829112669v9.420900000000984h70.548804829112669ZM906.581100000000333,463.537599999999657v-9.567399999999907h-70.548804829112669v9.567399999999907h70.548804829112669ZM857.137694637720415,406.060999999999694l-7.521499809990928,5.25879999999961c-4.527299885630782-4.575699999999415-8.95889977367915-7.959499999999935-13.292899664193101-10.15139999999974l7.595699808116478-4.382300000000214c5.160105028347971,2.190899999999601,9.566399758332409,5.283699999999953,13.21869966606755,9.274900000000343ZM892.559593742887955,371.22609999999986c-7.060493742887047-3.69970000000103-13.902299648798362-8.691000000000713-20.523399481535307-14.972700000000259-7.060599821634241,5.842800000000352-14.970699621808308,10.833999999999833-23.734399400417715,14.972700000000259h44.257798881953022ZM915.27249316911184,413.291999999999462v-18.258299999999508h-39.437499003724952v18.258299999999508h39.437499003724952ZM906.434593392375973,399.342799999999443c-2.872999927421915,4.576599999999416-7.206999817935866,8.472099999999955-12.999999671592377,11.6850000000004l-8.033199797064299-4.016600000000835c6.378899838855432-3.601999999998952,10.759799728184589-7.206000000000131,13.144499667942-10.809499999999389l7.888699800714676,3.141099999999824Z"/><path class="uuid-4235ba28-20cf-4d6f-85a7-f5e94549293b" d="M207.09820000000218,281.628399999999601l-2.640600000001541,3.510800000000017c-10.179699999999684-3-18.441400000000613-7.039600000000064-24.779299999999239-12.121100000000297-5.462900000000445,4.460900000000038-14.041000000001077,8.581500000000233-25.742200000000594,12.361300000000483l-2.939499999999498-3.569800000000214c11.320299999999406-3.140200000000732,19.880900000000111-6.950700000000325,25.681700000000092-11.43119999999999-5.820300000000316-5.5-9.732500000000073-12.189400000000205-11.730500000000575-20.070300000000316-1.08010000000013,2.780300000000352-2.5625,5.41989999999987-4.441399999999703,7.91989999999987l-3.177700000001096-2.909200000000055c2.519500000002154-3.000500000000102,4.546800000000076-6.290999999999258,6.087900000001355-9.871100000000297h-10.320400000000518v-3.688899999999194h24.0625v-10.260800000000017h3.869200000000092v10.199699999999211h24.480400000000373v3.690500000000611h-10.261700000000019c-1.798800000000483,10.439899999999398-5.9375,18.75-12.41990000000078,24.930099999999584,5.900399999999536,4.480500000000575,13.990200000000186,8.250500000000102,24.271500000001652,11.310100000000602ZM191.227100000000064,245.388199999999415h-23.218799999998737c1.59769999999935,9.260200000000623,5.507899999998699,16.709899999999834,11.72859999999946,22.350599999999758,6.079999999999927-5.660700000000361,9.910100000000057-13.110399999999572,11.490199999999277-22.350599999999758Z"/><path class="uuid-4235ba28-20cf-4d6f-85a7-f5e94549293b" d="M350.806875975026742,274.638199999999415h-24.15230000000065v4.171400000000176c0,4.458499999999731-2.369200000001001,6.690400000000409-7.109399999999368,6.690400000000409h-3.990300000000389l-1.468699999999444-3.690400000000409h5.578099999999722c1.96100000000024,0,2.941399999999703-.900399999999536,2.941399999999703-2.700700000000325v-4.470699999999852h-26.339820000000145v-3.75h26.339820000000145v-2.58010000000013c4.179699999998775-1.559599999999591,7.16989999999987-3.019499999999425,8.968800000000556-4.379899999999907h-22.980500000000575v-3.450200000000223h29.640599999998813v3.270000000000437c-3.11909999999898,2.120199999999386-6.980399999998554,4.290600000000268-11.579999999999018,6.510800000000017v.629399999999805h24.15230000000065v3.75ZM348.287375975026407,263.50879999999961h-3.601599999999962v-6.210000000000036h-41.912108999999873v6.568899999999303h-3.929691000000275v-10.079099999999016h5.16016000000036v-18.300800000000891c2.83983999999964-.279300000000148,5.951169999998456-1.629399999999805,9.332040000000234-4.049799999999777l1.978499999999258,2.759699999999611c-1.818399999999201,1.680700000000797-4.300769999999829,2.950700000001234-7.441399999999703,3.811100000000806v2.519000000000233h7.681599999999889v3.120600000000195h-7.681599999999889v3.269999999999527h7.681599999999889v3.059599999999591h-7.681599999999889v3.810600000000704h31.89260000000013v-3.810600000000704h-7.322299999999814v-3h7.322299999999814v-3.509299999999712h-7.259799999999814v-3.060999999999694h7.259799999999814v-3.269500000000335h-8.490300000000389v-3.629399999999805h12.298900000000685v20.219199999999546h4.712899999999536v9.780800000000454ZM331.275575975026186,240.227999999999156l-2.10149999999976,2.579600000000937c-1.138700000001336-1.099600000000464-2.689500000001317-2.289500000000771-4.64850000000024-3.569800000001123-1.621000000000095,1.360300000000279-3.441399999999703,2.610300000000279-5.460900000000038,3.75l-2.458999999999833-2.159700000000157c1.939500000000407-.80029999999897,3.638700000000426-1.739699999999175,5.099600000000464-2.819299999999203-2.441400000000613-.920399999999972-4.412100000000464-1.561100000000806-5.910100000000057-1.921400000000176l1.531199999999444-2.760299999999916c2.218800000000556.561099999999897,4.449200000000019,1.281299999999646,6.689500000000407,2.160699999999451,1.41989999999987-1.33889999999974,2.609400000000278-2.709999999999127,3.568299999999908-4.110399999999572l2.521499999999833,2.010800000000017c-.800799999999981,1.239199999999983-1.841800000000148,2.450200000000223-3.119099999999889,3.629899999999907,1.478500000000167.838799999999537,2.908199999999852,1.910100000000057,4.28899999999976,3.209899999999834ZM331.634975975026464,251.148400000000038l-2.519500000000335,1.979999999999563c-1.619199999999182-1.240200000000186-3.300799999999981-2.270000000000437-5.040999999999258-3.091300000000047-1.08010000000013.82129999999961-3,1.85109999999986-5.759800000000723,3.091300000000047l-2.281199999999444-1.801300000000083c2.581999999999425-1.218700000000354,4.431599999999889-2.278299999999945,5.550699999999779-3.17869999999948-1.119099999999889-.700700000001234-2.820300000000316-1.480000000000473-5.099600000001374-2.340300000000752l2.25-1.89009999999962c2.060600000001614.739700000000084,3.820300000001225,1.511199999999917,5.281300000001465,2.309999999999491.560499999999593-.320299999999406,1.689400000000205-1.278800000000047,3.388699999999517-2.879899999999907l2.759700000000521,1.410700000000361c-1.019500000000335,1.318299999999908-2.158199999999852,2.409599999999955-3.417999999999665,3.269000000000233,1.658299999999144.759299999999712,3.287199999999757,1.799299999999675,4.888699999999517,3.120600000000195Z"/><path class="uuid-4235ba28-20cf-4d6f-85a7-f5e94549293b" d="M451.013631950051604,251.898400000000038c4.040999999999258,4.539599999999155,6.0625,8.969799999998941,6.0625,13.289599999999155,0,2.100600000000668-.54490000000078,3.770499999999629-1.636700000000019,5.009699999999611-1.087900000000445,1.241300000000592-2.613299999999981,1.861900000000787-4.574300000000221,1.861900000000787-1.079999999999927,0-2.380799999999908-.131400000000212-3.900400000000445-.390200000000732l-1.109300000000076-3.99119999999948c2.140600000000632.541000000000167,3.679700000000594.810599999999795,4.619099999999889.810599999999795.779300000000148,0,1.490200000000186-.300799999999981,2.130900000000111-.900399999999536.640600000000632-.599600000000464.960900000000038-1.399400000000242.960900000000038-2.400400000000445,0-1.498999999999796-.550799999999981-3.418999999999869-1.650399999999536-5.759799999999814-1.10149999999976-2.339799999999741-2.751900000000205-4.569800000000214-4.951200000000426-6.689400000000205l5.851599999999962-15.030799999999545h-8.910100000000057v47.792000000000371h-3.931700000000092v-51.601599999999962h16.83010000000013v3.809599999999591l-5.790999999999258,14.190400000000409ZM492.386629169342086,274.488799999999173c-.521499986824892,3.240200000000186-1.220699969161615,5.590799999999945-2.101499946910735,7.049800000000687-.878899977797118,1.459899999999834-2.310599941628425,2.190399999999499-4.28909989164822,2.190399999999499h-4.67969738073225c-3.121099999999387,0-4.679699999999684-1.640599999999722-4.679699999999684-4.919399999999769v-15.870600000000195h-6.332000000000335c-.119200000000092,6.439400000000205-1.375,11.264099999999416-3.763699999999517,14.474600000000464-2.390599999999722,3.210399999999936-6.824200000000019,5.90519999999924-13.306599999999889,8.08640000000014l-2.519600000000537-3.451200000000426c6.019600000000537-1.77980000000025,10.150400000000445-4.08010000000013,12.390699999999924-6.900399999999536,2.240200000001096-2.820300000001225,3.369099999999889-6.869599999999991,3.390600000000632-12.149900000000343h-8.220699999999852v-3.930200000000696h32.132797269272487v3.870700000000397h-10.023397269274028v14.940400000000409c0,.498999999999796.160100000001876.964799999999741.480400000001282,1.394999999999527s.701199999999517.644000000000233,1.140699999999924.644000000000233h3.810497385271447c.779299980313226,0,1.374999965264578-.639599999999518,1.785199954902055-1.91989999999987.408199989688001-1.279300000000148.753902659826053-2.938900000000103,1.035099973851175-4.980400000000373l3.749999905266122,1.470699999999852ZM488.93543195005077,247.277799999999843l-3.808502597312327.060599999999795v-5.280799999999545h-22.621097402687155v5.280799999999545h-3.871100000001206v-9.090400000000045h13.16990000000078v-6.8100000000004h3.931599999999889v6.75h13.199200000000019v9.08980000000065ZM483.896431950050101,253.068299999998999h-20.281299999998737v-3.930099999999584h20.281299999998737v3.930099999999584Z"/><path class="uuid-4235ba28-20cf-4d6f-85a7-f5e94549293b" d="M636.097283766494911,274.638199999999415h-24.152299389861582v4.171400000000176c0,4.458499999999731-2.371096288638,6.690400000000409-7.10939982040145,6.690400000000409h-3.990199899199069l-1.470699962846993-3.690400000000409h5.579999859037343c1.960999950460973,0,2.941399925693986-.900399999999536,2.941399925693986-2.700700000000325v-4.470699999999852h-26.34179933455016v-3.75h26.34179933455016v-2.58010000000013c4.179699894411897-1.559599999999591,7.169999818870565-3.019499999999425,8.96880360907835-4.379899999999907h-22.980503255113035v-3.450200000000223h29.640599251215463v3.270000000000437c-3.11909599610226,2.120199999999386-6.980399823660264,4.290600000000268-11.579999707464594,6.510800000000017v.629399999999805h24.152299389861582v3.75ZM633.575783830193359,263.50879999999961h-3.599599909066455v-6.210000000000036h-41.910098941261822v6.568899999999303h-3.931699900676904v-10.079099999999016h5.162099869594385v-18.300800000000891c2.837899928308616-.279300000000148,5.949199849710567-1.629399999999805,9.328199764349847-4.049799999999777l1.980399949970888,2.759699999999611c-1.820299954015354,1.680700000000797-4.298799891403178,2.950700000001234-7.439399812064948,3.811100000000806v2.519000000000233h7.67969980599446v3.120600000000195h-7.67969980599446v3.269999999999527h7.67969980599446v3.059599999999591h-7.67969980599446v3.810600000000704h31.890599194375682v-3.810600000000704h-7.320299815073668v-3h7.320299815073668v-3.509299999999712h-7.259799816602026v-3.060999999999694h7.259799816602026v-3.269500000000335h-8.490199785519508v-3.629399999999805h12.298803828100972v20.219199999999546h4.710895742197863v9.780800000000454ZM616.566084259894524,240.227999999999156l-2.101599946909118,2.579600000000937c-1.140596224990077-1.099600000000464-2.689499932057515-2.289500000000771-4.650399882521015-3.569800000001123-1.619099959098094,1.360300000000279-3.439399913113448,2.610300000000279-5.458999862094061,3.75l-2.460899937832437-2.159700000000157c1.941399950956111-.80029999999897,3.642599907980184-1.739699999999175,5.10149987112527-2.819299999999203-2.441399938325048-.920399999999972-4.410099888591503-1.561100000000806-5.910099850698316-1.921400000000176l1.529303437030649-2.760299999999916c2.220696468236383.561099999999897,4.451196411889214,1.281299999999646,6.689396355347526,2.160699999999451,1.419999964127783-1.33889999999974,2.611399934030487-2.709999999999127,3.572299909756111-4.110399999999572l2.519499936352076,2.010800000000017c-.800699979771707,1.239199999999983-1.841799953472218,2.450200000000223-3.121099921154382,3.629899999999907,1.480499962599424.838799999999537,2.910199926482164,1.910100000000057,4.291099891597696,3.209899999999834ZM616.925384250817842,251.148400000000038l-2.519496162822179,1.979999999999563c-1.621103732577467-1.240200000000186-3.300803690144676-2.270000000000437-5.039103646231524-3.091300000000047-1.081999972666381.82129999999961-2.999999924213625,1.85109999999986-5.761699854447215,3.091300000000047l-2.279299942420039-1.801300000000083c2.580103443098778-1.218700000000354,4.429699888096366-2.278299999999945,5.550799859774997-3.17869999999948-1.121099971678632-.700700000001234-2.822299928702705-1.480000000000473-5.101599871122744-2.340300000000752l2.249999943160219-1.89009999999962c2.060599947944866.739700000000084,3.820399903488578,1.511199999999917,5.279299866633664,2.309999999999491.560603644652474-.320299999999406,1.68949995731964-1.278800000000047,3.390699914343713-2.879899999999907l2.759699930284114,1.410700000000361c-1.019499974246173,1.318299999999908-2.160099945432194,2.409599999999955-3.419899913606059,3.269000000000233,1.66019995806073.759299999999712,3.290999916862347,1.799299999999675,4.890599876453052,3.120600000000195Z"/><path class="uuid-4235ba28-20cf-4d6f-85a7-f5e94549293b" d="M780.194638353877963,282.498499999999694h-54.599598620698089v-3.869099999999889h25.439399357346701v-14.07130000000052h-18.330099536942726v-3.870100000000093h18.330099536942726v-12.240300000000389h-13.589799656692776c-1.640699958552432,4.260300000000825-4.380895206362766,8.190500000000611-8.22069979232765,11.790100000000166l-3.958999899987248-2.069799999999304c6.558599834315828-6.059600000000501,10.208999742098968-13.480000000000473,10.949199723399943-22.260299999999916l4.050799897668185,1.169399999999769c-.160195135115828,2.040599999999358-.630899984062125,4.561099999999897-1.412099964327354,7.561099999999897h12.122999693747261v-13.140199999999822h4.048799897718709v13.079099999999926h21.179699464955775v3.870599999999286h-21.179699464955775v12.180700000000797h18.060599543750868v3.869599999999991h-18.060599543750868v14.070799999999508h25.169999364152318v3.929700000000594Z"/><path class="uuid-4235ba28-20cf-4d6f-85a7-f5e94549293b" d="M925.52249291017506,245.327099999999518l-2.158199945479282,3.120599999999286c-6.820292603772941-1.679599999999482-12.162099692759512-3.619599999999991-16.021499595262867-5.819299999999203v2.698699999999917h-20.281199487653794v-2.968700000000354c-5.839899852471717,3.020000000000437-11.080099720092221,4.989700000000084-15.718799602909712,5.909700000000157l-1.980499949968362-3.150400000000445c11.240299716046138-2.740299999999479,20.599706032022368-7.320299999999406,28.080099290637008-13.740299999999479l3.68949990679539,1.230999999999767c-.400399989885045.5-.749999981053406.850099999999657-1.048893165410846,1.049300000000585,6.63869302420062,5.520499999999629,15.121092809917172,9.410599999999249,25.439492549252464,11.669399999999769ZM919.133793071567197,262.518999999999323h-43.560498899568302v-14.07130000000052h43.560498899568302v14.07130000000052ZM915.563493161760562,285.558099999999286h-3.691399906747392v-2.39889999999923h-28.980499267890991v2.39889999999923h-3.689399906797917v-19.889699999999721h36.3612990814363v19.889699999999721ZM895.551793667298625,259.277799999999843v-7.5h-16.289099588502722v7.5h16.289099588502722ZM911.872093255013169,272.838399999999638v-3.869700000000194h-28.980499267890991v3.869700000000194h28.980499267890991ZM911.872093255013169,279.918399999999565v-3.929600000000391h-28.980499267890991v3.929600000000391h28.980499267890991ZM891.561593768099556,256.308099999999286l-3.089899921941651,2.160600000000159c-1.859399953028515-1.879399999999805-3.679693485234566-3.269500000000335-5.45899986209497-4.16989999999987l3.11919992120238-1.800299999999879c2.121106455657355.899900000000343,3.929699900727428,2.16989999999987,5.429699862834241,3.809599999999591ZM906.112293400517956,241.998499999999694c-2.900293039594544-1.519500000000335-5.708899855781056-3.570300000000316-8.429599787050392-6.151300000000447-2.902399926679209,2.400800000000345-6.150399844627827,4.451600000000326-9.749999753694283,6.151300000000447h18.179599540744675ZM915.442393164819805,259.277799999999843v-7.5h-16.199199590772878v7.5h16.199199590772878ZM911.81349325649353,253.548799999999574c-1.181599970150273,1.879399999999805-2.960899925201375,3.479000000000269-5.341799865054782,4.799299999999675l-3.298799916665303-1.64890000000014c2.619106886149893-1.480499999999665,4.419899888343934-2.96140000000014,5.400399863574421-4.440399999999499l3.240199918145663,1.289999999999964Z"/><path class="uuid-4235ba28-20cf-4d6f-85a7-f5e94549293b" d="M1566.422876719669148,336.839299999999639v-100.471100000000661h12.090799694560701v89.819300000001022h42.750998920018901v10.651799999999639h-54.841798614579602Z"/><path class="uuid-4235ba28-20cf-4d6f-85a7-f5e94549293b" d="M1643.142574781566509,245.148400000000038c-2.497099936917948,0-4.295899891476438-.597600000000966-5.397474781566416-1.798800000000483-1.104425054181775-1.199200000000019-1.656225040242134-2.756800000000112-1.656225040242134-4.67870000000039v-1.871100000000297c0-1.918499999999767.55179998606036-3.477499999999054,1.656225040242134-4.678199999999379,1.101574890089978-1.198800000000119,2.900374844648468-1.799299999999675,5.397474781566416-1.799299999999675,2.494125218434419,0,4.294025218434399.600499999999556,5.397525218433657,1.799299999999675,1.102500000000873,1.200700000000325,1.655200000001059,2.759699999999611,1.655200000001059,4.678199999999379v1.871100000000297c0,1.921900000000278-.552700000000186,3.479500000000371-1.655200000001059,4.67870000000039-1.103499999999258,1.201199999999517-2.903399999999237,1.798800000000483-5.397525218433657,1.798800000000483ZM1637.384774927020771,262.566399999999703h11.515625072979674v74.272899999999936h-11.515625072979674v-74.272899999999936Z"/><path class="uuid-4235ba28-20cf-4d6f-85a7-f5e94549293b" d="M1673.370100000000093,336.839299999999639v-74.272899999999936h11.515699999999924v11.953099999999722h.576100000000224c1.82129999999961-4.17869999999948,4.389699999999721-7.505799999999908,7.700200000001132-9.974600000000464,3.311599999999089-2.469699999999648,7.748099999998885-3.706499999999323,13.314499999998588-3.706499999999323,7.676800000001094,0,13.747100000000501,2.471199999999953,18.209000000000742,7.412599999999657,4.461900000000242,4.943299999999908,6.693299999998999,11.925700000000688,6.693299999998999,20.94380000000001v47.644500000000335h-11.514599999998609v-45.728500000000167c0-13.368600000000697-5.615200000000186-20.052700000000186-16.841800000000148-20.052700000000186-2.302700000000186,0-4.535200000000259.290500000000065-6.693400000000111.865700000000288-2.159100000000763.578099999999722-4.102500000000873,1.443899999999303-5.829999999999927,2.59769999999935-1.726599999999962,1.153800000000047-3.09480000000076,2.620100000000093-4.101599999999962,4.399400000000242-1.007800000001225,1.778800000000047-1.511700000000928,3.871100000000297-1.511700000000928,6.274900000000343v51.643500000000131h-11.515699999999924Z"/><path class="uuid-4235ba28-20cf-4d6f-85a7-f5e94549293b" d="M1814.144599999999627,334.39259999999922c0,10.266600000000835-2.878899999999703,18.328100000000632-8.636799999998402,24.181599999999889-5.757800000001225,5.853000000000975-13.868100000001505,8.781300000000556-24.326100000000224,8.781300000000556-6.045900000000984,0-11.253000000000611-.940500000000611-15.618200000000797-2.818400000000111-4.367200000000594-1.882300000000214-7.988299999999072-4.363299999999981-10.867200000000594-7.447299999999814l6.765600000000632-7.952100000000428c2.494200000001001,2.568299999999908,5.373100000000704,4.54490000000078,8.636800000000221,5.926300000000083,3.260700000000725,1.380799999999908,7.052700000000186,2.070800000000418,11.371100000000297,2.070800000000418,6.715799999999945,0,11.921800000000076-1.855500000000575,15.617099999999482-5.563500000000204,3.693400000000111-3.713900000000649,5.541999999999462-9.183600000000297,5.541999999999462-16.411600000000362v-10.274000000000342h-.575199999999313c-2.20889999999963,4.561100000000806-5.087799999999334,7.979500000000371-8.636699999999109,10.259800000000723-3.551699999999983,2.281200000000354-7.917000000001281,3.421400000000176-13.099600000001374,3.421400000000176-4.605499999999665,0-8.779300000000148-.91359999999986-12.522399999999834-2.73490000000038-3.742199999998775-1.822199999999611-6.909200000000055-4.413100000000668-9.5-7.772399999999834-2.590899999999237-3.358400000000074-4.606499999999869-7.435599999999795-6.045899999999165-12.235400000000482-1.439500000000407-4.79739999999947-2.158199999999852-10.170899999999165-2.158199999999852-16.122099999999591,0-5.948199999999815.718699999999444-11.32169999999951,2.158199999999852-16.121100000000297,1.439399999999296-4.797299999999268,3.454999999999927-8.8753999999999,6.045899999999165-12.23529999999937,2.590799999999945-3.357900000000882,5.757800000001225-5.948700000000827,9.5-7.772500000000946,3.743099999999686-1.822199999999611,7.916900000000169-2.734799999999268,12.522399999999834-2.734799999999268,5.182600000000093,0,9.619200000001001,1.117599999999584,13.315400000001318,3.34860000000026,3.692399999999907,2.233399999999165,6.499099999999089,5.676799999999275,8.420899999999165,10.332499999999527h.575199999999313v-11.953099999999722h11.515699999999924v71.826199999999517ZM1783.772500000000946,328.346700000000055c2.591800000000148,0,5.038099999999758-.337400000000343,7.341800000000148-1.01220000000103,2.302700000000186-.674799999999777,4.292999999999665-1.664600000000064,5.972599999999147-2.966300000000047,1.677799999999479-1.29989999999998,3.02350000000115-2.89259999999922,4.031300000000556-4.772499999999127,1.006799999999203-1.880400000000009,1.510699999998906-4.075200000000223,1.510699999998906-6.583000000000538v-27.632299999999304c0-2.024000000001251-.481399999998757-3.929200000000492-1.439399999999296-5.715400000000955-.959999999999127-1.783199999999852-2.30370000000039-3.301199999999881-4.030300000000352-4.556099999999788-1.727499999999054-1.252500000000509-3.742199999998775-2.240700000000288-6.044899999998961-2.964399999999841-2.30370000000039-.724100000000362-4.75-1.08640000000014-7.341800000000148-1.08640000000014-6.527400000000853,0-11.709000000000742,2.073199999999815-15.54490000000078,6.221199999999953-3.839899999999034,4.147400000000744-5.757799999999406,9.499500000000808-5.757799999999406,16.058100000000195v12.730000000000473c0,6.558599999999387,1.917900000000373,11.911099999999351,5.757799999999406,16.058599999999387,3.835900000000038,4.146900000000642,9.017499999999927,6.220700000000761,15.54490000000078,6.220700000000761Z"/><path class="uuid-4235ba28-20cf-4d6f-85a7-f5e94549293b" d="M1884.385800000000017,324.885699999998906h-.576199999999517c-.768599999999424,1.711500000000342-1.704099999999016,3.39850000000115-2.806599999999889,5.060600000000704-1.10360000000037,1.662099999999555-2.470699999999852,3.134699999999611-4.101599999999962,4.41649999999936-1.632799999999406,1.282200000000557-3.598599999999351,2.30370000000039-5.902299999999741,3.063900000001013-2.302800000001298.759799999999814-4.990300000001298,1.140199999999822-8.060600000000704,1.140199999999822-7.677700000000186,0-13.771499999998923-2.469700000000557-18.280300000000352-7.41359999999986-4.511699999999109-4.940900000000511-6.765599999998813-11.921900000001187-6.765599999998813-20.942900000000009v-47.644000000000233h11.515599999998813v45.727499999999054c0,13.368700000000899,5.661200000000463,20.052800000001298,16.985400000001391,20.052800000001298,2.302699999998367,0,4.534200000000055-.287100000000464,6.693299999998999-.86620000000039,2.159200000000055-.575200000000223,4.077199999999721-1.440500000000611,5.757900000000518-2.59480000000076,1.677700000000186-1.154300000000148,3.022399999999834-2.620099999999184,4.029300000000148-4.399399999999332,1.007799999999406-1.778299999999945,1.511699999999109-3.91989999999987,1.511699999999109-6.421400000000176v-51.498499999999694h11.515600000000632v74.272899999999936h-11.515600000000632v-11.953600000000733Z"/><path class="uuid-4235ba28-20cf-4d6f-85a7-f5e94549293b" d="M1926.128000000000611,245.148400000000038c-2.496100000000297,0-4.295000000000073-.597600000000966-5.397499999999127-1.798800000000483-1.104500000001281-1.199200000000019-1.655300000000352-2.756800000000112-1.655300000000352-4.67870000000039v-1.871100000000297c0-1.918499999999767.550799999999072-3.477499999999054,1.655300000000352-4.678199999999379,1.102499999999054-1.198800000000119,2.90139999999883-1.799299999999675,5.397499999999127-1.799299999999675,2.494099999999889,0,4.293900000000576.600499999999556,5.398400000000038,1.799299999999675,1.101599999999962,1.200700000000325,1.654300000000148,2.759699999999611,1.654300000000148,4.678199999999379v1.871100000000297c0,1.921900000000278-.552700000000186,3.479500000000371-1.654300000000148,4.67870000000039-1.104499999999462,1.201199999999517-2.904300000000148,1.798800000000483-5.398400000000038,1.798800000000483ZM1920.370100000000093,262.566399999999703h11.515699999999924v74.272899999999936h-11.515699999999924v-74.272899999999936Z"/><path class="uuid-4235ba28-20cf-4d6f-85a7-f5e94549293b" d="M1978.667000000001281,338.566899999999805c-6.909200000000055,0-12.691399999999703-1.319800000000214-17.344700000001467-3.95850000000064-4.655299999998533-2.638199999999415-8.661099999999351-6.165100000000166-12.019499999998516-10.58009999999922l8.204099999999016-6.621100000000297c2.878899999999703,3.647999999999229,6.093700000001263,6.45509999999922,9.644500000000335,8.41989999999987,3.548800000000483,1.968799999999646,7.676799999999275,2.951700000000528,12.378899999999703,2.951700000000528,4.894500000000335,0,8.709000000000742-1.055200000000696,11.443400000000111-3.166500000001179,2.735300000000279-2.10989999999947,4.102500000000873-5.085900000000038,4.102500000000873-8.924799999998868,0-2.878900000000613-.935500000001412-5.348200000000361-2.806600000001708-7.413100000000668-1.872099999998682-2.0625-5.253899999999703-3.476599999999962-10.147499999999127-4.246099999999387l-5.902299999999741-.863800000000992c-3.455100000001039-.47899999999936-6.621100000000297-1.223099999999249-9.5-2.230899999999565s-5.397500000000946-2.350599999999758-7.556700000001001-4.030299999999443c-2.159200000000055-1.677700000000186-3.839799999999741-3.76510000000053-5.038099999999758-6.261700000000928-1.201100000000224-2.494099999999889-1.799799999998868-5.469699999999648-1.799799999998868-8.923799999999574,0-3.646499999999833.669899999998961-6.837399999999434,2.015699999999924-9.572799999999916,1.34269999999924-2.73490000000038,3.189399999999296-5.012200000000121,5.541900000000169-6.836900000000242,2.350599999999758-1.821799999999712,5.157299999998941-3.189900000000307,8.420000000000073-4.102100000000064,3.261699999999109-.91110000000026,6.765599999998813-1.367599999999584,10.50879999999961-1.367599999999584,6.044899999998961,0,11.105400000000373,1.057099999999991,15.185499999999593,3.166500000000269,4.077100000000428,2.112299999998868,7.651400000000649,5.038099999999758,10.723599999999351,8.78019999999924l-7.629799999998795,6.909200000000055c-1.632900000000518-2.302700000000186-4.029300000000148-4.39009999999962-7.196300000001429-6.260699999999815-3.166999999999462-1.871599999999489-7.149499999999534-2.807600000000093-11.947299999999814-2.807600000000093-4.799799999998868,0-8.420899999999165,1.032200000000557-10.868199999998978,3.095200000000659-2.44629999999961,2.063899999999194-3.66990000000078,4.871599999999489-3.66990000000078,8.420399999999063,0,3.648400000000038,1.22360000000117,6.28610000000026,3.66990000000078,7.916500000000269,2.447299999999814,1.633300000000418,5.974599999999555,2.831500000000233,10.58009999999922,3.599100000000362l5.757800000001225.863299999999981c8.251999999998588,1.247999999999593,14.106499999999869,3.623499999999694,17.560599999998885,7.125,3.454999999999927,3.504899999999907,5.182600000000093,8.085399999999936,5.182600000000093,13.746099999999387,0,7.197299999999814-2.447299999999814,12.860800000000381-7.340799999999945,16.985800000000381-4.894599999999627,4.127500000000509-11.613299999999072,6.189500000000407-20.152399999999034,6.189500000000407Z"/><path class="uuid-4235ba28-20cf-4d6f-85a7-f5e94549293b" d="M2041.858400000000984,336.839299999999639c-4.029300000000148,0-7.077100000000428-1.124499999999898-9.139600000000428-3.373499999999694-2.064500000000407-2.249000000000706-3.094699999999648-5.195300000000316-3.094699999999648-8.834500000000844v-51.846199999999953h-12.235399999999572v-10.218699999999444h6.909200000000055c2.494099999999889,0,4.197199999998702-.504899999999907,5.11029999999846-1.512700000000223.911200000000463-1.006800000000112,1.367200000000594-2.756800000000112,1.367200000000594-5.252900000000409v-13.819400000000314h10.364299999999275v20.585000000000946h16.265600000000632v10.218699999999444h-16.265600000000632v53.835000000000946h15.113300000000891v10.219199999999546h-14.394599999999627Z"/><path class="uuid-4235ba28-20cf-4d6f-85a7-f5e94549293b" d="M2081.730500000001484,245.148400000000038c-2.496100000000297,0-4.295900000000984-.597600000000966-5.397500000000946-1.798800000000483-1.104499999999462-1.199200000000019-1.65519999999924-2.756800000000112-1.65519999999924-4.67870000000039v-1.871100000000297c0-1.918499999999767.550699999999779-3.477499999999054,1.65519999999924-4.678199999999379,1.101599999999962-1.198800000000119,2.901400000000649-1.799299999999675,5.397500000000946-1.799299999999675,2.495100000000093,0,4.293899999998757.600499999999556,5.397499999999127,1.799299999999675,1.102500000000873,1.200700000000325,1.656199999999444,2.759699999999611,1.656199999999444,4.678199999999379v1.871100000000297c0,1.921900000000278-.553699999998571,3.479500000000371-1.656199999999444,4.67870000000039-1.10360000000037,1.201199999999517-2.902399999999034,1.798800000000483-5.397499999999127,1.798800000000483ZM2075.972700000000259,262.566399999999703h11.515600000000632v74.272899999999936h-11.515600000000632v-74.272899999999936Z"/><path class="uuid-4235ba28-20cf-4d6f-85a7-f5e94549293b" d="M2139.59480000000076,338.566899999999805c-5.181700000001001,0-9.836999999999534-.91359999999986-13.961999999999534-2.73490000000038-4.126900000001115-1.822199999999611-7.606400000000576-4.413100000000668-10.435500000001412-7.772399999999834-2.831999999998516-3.358400000000074-4.991199999998571-7.435599999999795-6.477499999999054-12.235400000000482-1.488300000000891-4.79739999999947-2.230499999999665-10.170899999999165-2.230499999999665-16.122099999999591,0-5.948199999999815.742199999998775-11.32169999999951,2.230499999999665-16.121100000000297,1.486300000000483-4.797299999999268,3.645500000000538-8.8753999999999,6.477499999999054-12.23529999999937,2.829100000000835-3.357900000000882,6.308600000000297-5.948700000000827,10.435500000001412-7.772500000000946,4.125-1.822199999999611,8.780299999998533-2.734799999999268,13.961999999999534-2.734799999999268,7.388600000000224,0,13.315399999999499,1.607899999999972,17.777299999999741,4.82169999999951,4.461900000000242,3.216400000000249,7.79490000000078,7.413099999999758,10.003899999999703,12.59480000000076l-9.644500000000335,4.894499999999425c-1.343799999998737-3.837399999999434-3.550799999999072-6.813000000000102-6.621099999998478-8.924799999999777-3.072300000001633-2.109400000000278-6.909200000000055-3.166500000000269-11.515600000000632-3.166500000000269-3.454100000000835,0-6.476599999999962.553200000000288-9.068400000000111,1.655300000000352-2.589799999999741,1.104000000000269-4.75,2.64009999999962-6.476599999999962,4.606399999999667-1.727500000000873,1.96730000000025-3.023400000000038,4.318400000000111-3.886700000000928,7.052700000000186-.863299999999072,2.73489999999947-1.295899999999165,5.735899999999674-1.295899999999165,8.995699999999488v12.666900000000169c0,6.527900000000045,1.75,11.876000000000204,5.254899999999907,16.050300000000789,3.501000000000204,4.174399999999878,8.658199999999852,6.261300000000119,15.472700000000259,6.261300000000119,9.306599999999889,0,16.025299999999334-4.318400000000111,20.152299999999741-12.955100000001039l8.348599999999351,5.614199999999983c-2.399400000000242,5.375500000000102-5.973599999999351,9.644600000000537-10.723599999999351,12.811100000000806s-10.675800000000891,4.75-17.777299999999741,4.75Z"/><path class="uuid-4235ba28-20cf-4d6f-85a7-f5e94549293b" d="M2206.670900000000984,338.566899999999805c-6.909200000000055,0-12.691399999999703-1.319800000000214-17.344699999999648-3.95850000000064-4.655300000000352-2.638199999999415-8.66110000000117-6.165100000000166-12.019500000000335-10.58009999999922l8.204099999999016-6.621100000000297c2.878899999999703,3.647999999999229,6.093700000001263,6.45509999999922,9.644500000000335,8.41989999999987,3.548800000000483,1.968799999999646,7.675800000000891,2.951700000000528,12.378899999999703,2.951700000000528,4.894500000000335,0,8.709000000000742-1.055200000000696,11.443400000000111-3.166500000001179,2.735300000000279-2.10989999999947,4.102500000000873-5.085900000000038,4.102500000000873-8.924799999998868,0-2.878900000000613-.935500000001412-5.348200000000361-2.806599999999889-7.413100000000668-1.872100000000501-2.0625-5.253900000001522-3.476599999999962-10.147500000000946-4.246099999999387l-5.902299999999741-.863800000000992c-3.45509999999922-.47899999999936-6.621100000000297-1.223099999999249-9.5-2.230899999999565s-5.397499999999127-2.350599999999758-7.556699999999182-4.030299999999443c-2.159200000000055-1.677700000000186-3.83980000000156-3.76510000000053-5.038100000001577-6.261700000000928-1.201099999998405-2.494099999999889-1.799799999998868-5.469699999999648-1.799799999998868-8.923799999999574,0-3.646499999999833.670000000000073-6.837399999999434,2.015699999999924-9.572799999999916,1.34269999999924-2.73490000000038,3.189399999999296-5.012200000000121,5.541900000000169-6.836900000000242,2.350599999999758-1.821799999999712,5.157299999998941-3.189900000000307,8.420000000000073-4.102100000000064,3.260699999998906-.91110000000026,6.765599999998813-1.367599999999584,10.50879999999961-1.367599999999584,6.04490000000078,0,11.105400000000373,1.057099999999991,15.185499999999593,3.166500000000269,4.077199999999721,2.112299999998868,7.651400000000649,5.038099999999758,10.72360000000117,8.78019999999924l-7.629800000000614,6.909200000000055c-1.632900000000518-2.302700000000186-4.029300000000148-4.39009999999962-7.197299999999814-6.260699999999815-3.166000000001077-1.871599999999489-7.148400000000038-2.807600000000093-11.94629999999961-2.807600000000093-4.799800000000687,0-8.420900000000984,1.032200000000557-10.868200000000797,3.095200000000659-2.44629999999961,2.063899999999194-3.66990000000078,4.871599999999489-3.66990000000078,8.420399999999063,0,3.648400000000038,1.22360000000117,6.28610000000026,3.66990000000078,7.916500000000269,2.447299999999814,1.633300000000418,5.974599999999555,2.831500000000233,10.58009999999922,3.599100000000362l5.757800000001225.863299999999981c8.252000000000407,1.247999999999593,14.106499999999869,3.623499999999694,17.560599999998885,7.125,3.455100000001039,3.504899999999907,5.181599999999889,8.085399999999936,5.181599999999889,13.746099999999387,0,7.197299999999814-2.44629999999961,12.860800000000381-7.339799999999741,16.985800000000381-4.894599999999627,4.127500000000509-11.613299999999072,6.189500000000407-20.152399999999034,6.189500000000407Z"/><path class="uuid-4235ba28-20cf-4d6f-85a7-f5e94549293b" d="M2317.793000000001484,338.566899999999805c-8.157200000001467,0-15.114300000001094-1.561100000000806-20.872100000000501-4.678200000000288-5.757800000001225-3.117200000000594-10.651300000001356-7.413099999999758-14.681599999999889-12.882900000000518l8.923799999998664-7.48529999999937c3.549800000000687,4.703099999999722,7.485400000001391,8.276899999999841,11.80370000000039,10.72360000000026,4.318400000000111,2.447299999999814,9.403299999999945,3.670899999999165,15.257800000001225,3.670899999999165,7.197299999999814,0,12.689499999998588-1.727499999999054,16.481499999999869-5.181599999999889,3.78899999999885-3.45509999999922,5.685499999999593-8.061499999999796,5.685499999999593-13.818900000000212,0-4.796800000000076-1.439400000001115-8.492099999999482-4.318300000000818-11.082499999999527-2.878899999999703-2.591800000000148-7.628899999999703-4.654300000000148-14.25-6.190400000000409l-8.20509999999922-1.871099999999387c-9.211900000000242-2.110400000000482-16.242200000000594-5.301300000000083-21.086900000000242-9.57130000000052-4.846700000000055-4.269500000000335-7.269599999999627-10.292999999999665-7.269599999999627-18.065899999999601,0-4.412599999999657.814500000000407-8.348200000000361,2.447299999999814-11.802700000000186,1.630900000000111-3.454600000000028,3.909200000000055-6.333499999999731,6.836900000000242-8.636300000000119,2.925799999999072-2.30370000000039,6.427799999999479-4.05370000000039,10.507799999999406-5.253899999999703,4.078199999999924-1.199200000000019,8.564500000000407-1.799800000000687,13.459000000000742-1.799800000000687,7.579099999999016,0,14.081099999999424,1.392600000001039,19.503899999999703,4.174800000000687,5.420000000000073,2.784200000000055,10.003899999999703,6.861300000000483,13.746100000000297,12.235399999999572l-9.068300000000818,6.620600000000195c-2.784200000000055-3.837400000000343-6.14259999999922-6.85989999999947-10.075199999999313-9.068400000000111-3.936600000000908-2.206500000000233-8.830100000001039-3.310499999999593-14.682600000000093-3.310499999999593-6.429700000000594,0-11.492200000000594,1.367199999999684-15.185600000000704,4.101999999999862-3.695299999999406,2.735400000000482-5.541999999999462,6.837899999999536-5.541999999999462,12.307200000000194,0,4.800199999999677,1.558600000000297,8.420799999999872,4.67870000000039,10.867599999999584,3.117199999998775,2.446799999999712,7.843799999998737,4.390699999999924,14.177799999999479,5.83010000000013l8.204999999999927,1.871100000000297c9.882900000000518,2.208499999999731,17.03230000000076,5.566399999999703,21.447299999999814,10.075700000000325,4.412099999999555,4.511199999999008,6.621100000000297,10.507799999999406,6.621100000000297,17.992699999998877,0,4.606400000000576-.790999999999258,8.780200000001059-2.375,12.523400000000038-1.584000000000742,3.742200000000594-3.864299999999275,6.909200000000055-6.836900000000242,9.5-2.975599999999758,2.590799999999945-6.598599999999351,4.606400000000576-10.868200000000797,6.045400000000882-4.270499999998719,1.439499999999498-9.092799999998533,2.159200000000055-14.465799999998126,2.159200000000055Z"/><path class="uuid-4235ba28-20cf-4d6f-85a7-f5e94549293b" d="M2400.127000000000407,338.566899999999805c-4.99120000000039,0-9.549800000000687-.91359999999986-13.674800000000687-2.73490000000038-4.126999999998588-1.822199999999611-7.654299999998329-4.438000000000102-10.58009999999922-7.845200000000659-2.927700000000186-3.404799999999341-5.206099999999424-7.484399999999368-6.836900000000242-12.23489999999947-1.632799999999406-4.75-2.44629999999961-10.098599999999351-2.44629999999961-16.049799999999777,0-5.85149999999976.813500000000204-11.177700000000186,2.44629999999961-15.977499999999964,1.630800000000818-4.796900000000278,3.909200000000055-8.899400000000242,6.836900000000242-12.306599999999889,2.925800000000891-3.405300000000352,6.453100000000632-6.02100000000064,10.58009999999922-7.84480000000076,4.125-1.822199999999611,8.683600000000297-2.734799999999268,13.674800000000687-2.734799999999268,4.988300000000891,0,9.522399999999834.912599999999657,13.602500000000873,2.734799999999268,4.077199999999721,1.823800000000119,7.603499999999258,4.439500000000407,10.579099999999016,7.84480000000076,2.973700000000463,3.407199999999648,5.276400000000649,7.509699999999611,6.909200000000055,12.306599999999889,1.630900000000111,4.799799999999777,2.447299999999814,10.126000000000204,2.447299999999814,15.977499999999964,0,5.951200000000426-.816399999999703,11.299799999999777-2.447299999999814,16.049799999999777-1.632799999999406,4.750500000000102-3.935499999999593,8.83010000000013-6.909200000000055,12.23489999999947-2.975599999999758,3.407200000000557-6.501899999999296,6.023000000001048-10.579099999999016,7.845200000000659-4.080100000001039,1.82130000000052-8.614199999999983,2.73490000000038-13.602500000000873,2.73490000000038ZM2400.127000000000407,328.346700000000055c6.236300000000483,0,11.32129999999961-1.918000000000575,15.257799999999406-5.757800000001225,3.933600000000297-3.836499999999432,5.901400000000649-9.690499999998792,5.901400000000649-17.560599999998885v-10.651800000000549c0-7.867199999999684-1.967800000000352-13.721700000000055-5.901400000000649-17.561099999999897-3.936499999999796-3.83640000000014-9.021499999998923-5.757300000000214-15.257799999999406-5.757300000000214-6.239299999999275,0-11.324199999999109,1.920900000000074-15.257799999999406,5.757300000000214-3.936600000000908,3.839399999999841-5.901400000000649,9.693900000000212-5.901400000000649,17.561099999999897v10.651800000000549c0,7.870100000000093,1.964799999999741,13.724099999999453,5.901400000000649,17.560599999998885,3.933600000000297,3.83980000000065,9.018500000000131,5.757800000001225,15.257799999999406,5.757800000001225Z"/><path class="uuid-4235ba28-20cf-4d6f-85a7-f5e94549293b" d="M2480.301800000001094,338.566899999999805c-5.181700000001001,0-9.836900000000242-.91359999999986-13.961900000000242-2.73490000000038-4.127000000000407-1.822199999999611-7.606499999999869-4.413100000000668-10.436499999999796-7.772399999999834-2.831100000001243-3.358400000000074-4.990300000001298-7.435599999999795-6.476599999999962-12.235400000000482-1.489300000001094-4.79739999999947-2.231499999999869-10.170899999999165-2.231499999999869-16.122099999999591,0-5.948199999999815.742199999998775-11.32169999999951,2.231499999999869-16.121100000000297,1.486299999998664-4.797299999999268,3.645499999998719-8.8753999999999,6.476599999999962-12.23529999999937,2.829999999999927-3.357900000000882,6.309499999999389-5.948700000000827,10.436499999999796-7.772500000000946,4.125-1.822199999999611,8.78019999999924-2.734799999999268,13.961900000000242-2.734799999999268,7.388699999999517,0,13.314399999999296,1.607899999999972,17.777299999999741,4.82169999999951,4.461900000000242,3.216400000000249,7.795000000000073,7.413099999999758,10.003899999999703,12.59480000000076l-9.644500000000335,4.894499999999425c-1.344699999999648-3.837399999999434-3.550799999999072-6.813000000000102-6.621100000000297-8.924799999999777-3.072299999999814-2.109400000000278-6.909200000000055-3.166500000000269-11.515599999998813-3.166500000000269-3.455100000001039,0-6.476599999999962.553200000000288-9.068400000000111,1.655300000000352-2.590799999999945,1.104000000000269-4.75,2.64009999999962-6.476500000000669,4.606399999999667-1.727600000000166,1.96730000000025-3.023499999999331,4.318400000000111-3.886800000000221,7.052700000000186-.863199999999779,2.73489999999947-1.295899999999165,5.735899999999674-1.295899999999165,8.995699999999488v12.666900000000169c0,6.527900000000045,1.75,11.876000000000204,5.253999999998996,16.050300000000789,3.501900000001115,4.174399999999878,8.659100000000763,6.261300000000119,15.47360000000117,6.261300000000119,9.306599999999889,0,16.025399999998626-4.318400000000111,20.152299999999741-12.955100000001039l8.348700000000463,5.614199999999983c-2.399400000000242,5.375500000000102-5.973700000000463,9.644600000000537-10.723700000000463,12.811100000000806s-10.676699999999983,4.75-17.777299999999741,4.75Z"/><path class="uuid-4235ba28-20cf-4d6f-85a7-f5e94549293b" d="M2530.824200000000928,245.148400000000038c-2.497000000001208,0-4.295799999999872-.597600000000966-5.397399999999834-1.798800000000483-1.104500000001281-1.199200000000019-1.655300000000352-2.756800000000112-1.655300000000352-4.67870000000039v-1.871100000000297c0-1.918499999999767.550799999999072-3.477499999999054,1.655300000000352-4.678199999999379,1.101599999999962-1.198800000000119,2.900399999998626-1.799299999999675,5.397399999999834-1.799299999999675,2.494199999999182,0,4.293999999999869.600499999999556,5.397499999999127,1.799299999999675,1.102500000000873,1.200700000000325,1.656300000000556,2.759699999999611,1.656300000000556,4.678199999999379v1.871100000000297c0,1.921900000000278-.553799999999683,3.479500000000371-1.656300000000556,4.67870000000039-1.103499999999258,1.201199999999517-2.903299999999945,1.798800000000483-5.397499999999127,1.798800000000483ZM2525.066399999999703,262.566399999999703h11.515699999999924v74.272899999999936h-11.515699999999924v-74.272899999999936Z"/><path class="uuid-4235ba28-20cf-4d6f-85a7-f5e94549293b" d="M2588.976599999999962,338.566899999999805c-5.086900000000242,0-9.668999999999869-.91359999999986-13.746099999998478-2.73490000000038-4.080100000001039-1.822199999999611-7.582000000000335-4.438000000000102-10.507800000001225-7.845200000000659-2.92870000000039-3.404799999999341-5.181699999999182-7.484399999999368-6.765600000000632-12.23489999999947-1.582999999998719-4.75-2.374099999999089-10.098599999999351-2.374099999999089-16.049799999999777,0-5.85149999999976.79110000000037-11.177700000000186,2.374099999999089-15.977499999999964,1.583900000001449-4.796900000000278,3.836900000000242-8.899400000000242,6.765600000000632-12.306599999999889,2.925800000000891-3.405300000000352,6.427700000000186-6.02100000000064,10.507800000001225-7.84480000000076,4.077099999998609-1.822199999999611,8.659199999998236-2.734799999999268,13.746099999998478-2.734799999999268,4.989300000001094,0,9.451200000001336.908199999999852,13.386700000000928,2.725599999999758,3.933600000000297,1.817299999999705,7.291999999999462,4.329499999999825,10.076199999999517,7.532200000000557,2.782199999999648,3.203099999998813,4.916999999999462,7.003899999999703,6.405300000000352,11.402799999999843,1.486300000000483,4.399400000000242,2.231400000000576,9.227999999999156,2.231400000000576,14.486299999999574v5.451700000000528h-53.403299999999945v3.45509999999922c0,3.166500000000269.503899999999703,6.117200000000594,1.511699999999109,8.852000000000771,1.007799999999406,2.73489999999947,2.447299999999814,5.110399999999572,4.318400000000111,7.125,1.871100000000297,2.015699999999924,4.173800000000483,3.598699999999553,6.909100000000763,4.751000000000204,2.735399999999572,1.15139999999883,5.83009999999922,1.726599999999962,9.284199999998236,1.726599999999962,4.701200000001336,0,8.802800000001298-1.102600000000166,12.307600000000093-3.310600000000704,3.501000000000204-2.206000000000131,6.212000000001353-5.372999999999593,8.131900000000314-9.5l8.205100000001039,5.939500000000407c-2.399500000001353,5.119099999999889-6.142600000001039,9.246100000000297-11.227600000000166,12.38379999999961-5.086900000000242,3.137700000000223-11.132799999999406,4.707500000000437-18.136700000000928,4.707500000000437ZM2588.976599999999962,270.482399999998961c-3.166999999999462,0-6.044899999998961.548800000000483-8.635699999998906,1.646500000000742-2.591800000000148,1.097700000000259-4.822299999999814,2.647499999999127-6.693400000000111,4.648400000000038-1.871100000000297,2.001999999999498-3.335900000000038,4.363299999999981-4.390600000000632,7.081099999999424-1.056699999999182,2.718700000000354-1.583999999998923,5.698200000000725-1.583999999998923,8.941399999999703v1.001000000000204h41.023399999998219v-1.574699999999211c0-6.580600000000231-1.798799999998664-11.847700000000259-5.397399999998015-15.806200000000899-3.598700000000463-3.957999999999629-8.373100000000704-5.9375-14.322300000001633-5.9375Z"/><path class="uuid-4235ba28-20cf-4d6f-85a7-f5e94549293b" d="M2656.485400000001391,336.839299999999639c-4.031300000000556,0-7.078100000000632-1.124499999999898-9.140600000000632-3.373499999999694-2.064500000000407-2.249000000000706-3.09480000000076-5.195300000000316-3.09480000000076-8.834500000000844v-51.846199999999953h-12.235300000000279v-10.218699999999444h6.909200000001874c2.494099999999889,0,4.197199999998702-.504899999999907,5.11029999999846-1.512700000000223.910200000000259-1.006800000000112,1.367200000000594-2.756800000000112,1.367200000000594-5.252900000000409v-13.819400000000314h10.363299999999072v20.585000000000946h16.265600000000632v10.218699999999444h-16.265600000000632v53.835000000000946h15.114199999999983v10.219199999999546h-14.393499999998312Z"/><path class="uuid-4235ba28-20cf-4d6f-85a7-f5e94549293b" d="M2736.372100000000501,262.566399999999703h11.372100000000501l-33.251000000000204,91.545899999999165c-.863300000000891,2.207000000000335-1.727500000000873,4.052700000000186-2.590799999999945,5.541500000001179-.864299999999275,1.486799999999675-1.920899999999165,2.66359999999986-3.166999999999462,3.526899999998932-1.248100000000704.864199999999983-2.806700000001001,1.487300000000687-4.677800000001298,1.871000000001004-1.870999999999185.382399999999507-4.152299999999741.576199999999517-6.837799999999334.576199999999517h-5.901400000000649v-10.219699999999648h11.659200000000055l5.614199999999983-15.808600000000297-27.781199999999444-77.033199999999852h11.515600000000632l17.848599999999351,50.425799999999072,3.45509999999922,12.06880000000092h.718800000000556l4.031199999999444-12.06880000000092,17.992200000000594-50.425799999999072Z"/><path class="uuid-4235ba28-20cf-4d6f-85a7-f5e94549293b" d="M1594.439482812500501,477.757803124999555l-3.6103515625-11.4755859375h-15.98828125l-3.5458984375,11.4755859375h-8.638671875l15.0859375-44.9990234375h10.5732421875l14.9560546875,44.9990234375h-8.83203125ZM1582.963896875000501,440.495107812499555h-.322265625l-5.7373046875,18.50244140625h11.8623046875l-5.802734375-18.50244140625Z"/><path class="uuid-4235ba28-20cf-4d6f-85a7-f5e94549293b" d="M1609.400420312500501,477.757803124999555v-33.65234375h8.251953125v6.96240234375h.322265625c.837890625-3.5458984375,3.5458984375-6.96240234375,8.896484375-6.96240234375h1.8056640625v7.80029296875h-2.5791015625c-5.5439453125,0-8.4453125,1.54736328125-8.4453125,5.22216796875v20.6298828125h-8.251953125Z"/><path class="uuid-4235ba28-20cf-4d6f-85a7-f5e94549293b" d="M1636.801787500000501,469.183584374999555v-18.50244140625h-4.96484375v-6.57568359375h2.5791015625c2.4501953125,0,3.2236328125-1.16064453125,3.2236328125-3.4814453125v-5.73779296875h7.4140625v9.21923828125h6.8974609375v6.57568359375h-6.8974609375v20.5009765625h6.3818359375v6.57568359375h-5.9306640625c-5.673828125,0-8.703125-3.0947265625-8.703125-8.57421875Z"/><path class="uuid-4235ba28-20cf-4d6f-85a7-f5e94549293b" d="M1656.208037500000501,472.342275781249555l5.029296875-4.8994140625c2.44921875,2.83642578125,5.4150390625,4.5771484375,9.21875,4.5771484375,3.9326171875,0,5.6083984375-1.48291015625,5.6083984375-3.8681640625,0-1.93408203125-1.16015625-3.15869140625-4.1259765625-3.54541015625l-3.3525390625-.45166015625c-7.2197265625-.90234375-11.216796875-4.0615234375-11.216796875-10.18603515625,0-6.51123046875,5.0927734375-10.63720703125,12.7646484375-10.63720703125,6.5751953125,0,9.927734375,1.93408203125,13.1513671875,5.28662109375l-4.8349609375,4.8349609375c-1.9345703125-2.06298828125-4.7705078125-3.6103515625-8.05859375-3.6103515625-3.5458984375,0-5.0927734375,1.41845703125-5.0927734375,3.4814453125,0,2.25634765625,1.224609375,3.2880859375,4.3837890625,3.8037109375l3.4169921875.451171875c7.3486328125,1.03173828125,10.89453125,4.3193359375,10.89453125,9.92822265625,0,6.51123046875-5.4794921875,11.02392578125-13.8603515625,11.02392578125-6.3828125,0-10.5732421875-2.32080078125-13.92578125-6.18896484375Z"/><path class="uuid-4235ba28-20cf-4d6f-85a7-f5e94549293b" d="M1734.864287500000501,477.757803124999555l-3.6103515625-11.4755859375h-15.98828125l-3.5458984375,11.4755859375h-8.638671875l15.0859375-44.9990234375h10.5732421875l14.9560546875,44.9990234375h-8.83203125ZM1723.388701562500501,440.495107812499555h-.322265625l-5.7373046875,18.50244140625h11.8623046875l-5.802734375-18.50244140625Z"/><path class="uuid-4235ba28-20cf-4d6f-85a7-f5e94549293b" d="M1746.923857812500501,472.342275781249555l5.029296875-4.8994140625c2.44921875,2.83642578125,5.4150390625,4.5771484375,9.21875,4.5771484375,3.9326171875,0,5.6083984375-1.48291015625,5.6083984375-3.8681640625,0-1.93408203125-1.16015625-3.15869140625-4.1259765625-3.54541015625l-3.3525390625-.45166015625c-7.2197265625-.90234375-11.216796875-4.0615234375-11.216796875-10.18603515625,0-6.51123046875,5.0927734375-10.63720703125,12.7646484375-10.63720703125,6.5751953125,0,9.927734375,1.93408203125,13.1513671875,5.28662109375l-4.8349609375,4.8349609375c-1.9345703125-2.06298828125-4.7705078125-3.6103515625-8.05859375-3.6103515625-3.5458984375,0-5.0927734375,1.41845703125-5.0927734375,3.4814453125,0,2.25634765625,1.224609375,3.2880859375,4.3837890625,3.8037109375l3.4169921875.451171875c7.3486328125,1.03173828125,10.89453125,4.3193359375,10.89453125,9.92822265625,0,6.51123046875-5.4794921875,11.02392578125-13.8603515625,11.02392578125-6.3828125,0-10.5732421875-2.32080078125-13.92578125-6.18896484375Z"/><path class="uuid-4235ba28-20cf-4d6f-85a7-f5e94549293b" d="M1778.645537500000501,472.342275781249555l5.029296875-4.8994140625c2.44921875,2.83642578125,5.4150390625,4.5771484375,9.21875,4.5771484375,3.9326171875,0,5.6083984375-1.48291015625,5.6083984375-3.8681640625,0-1.93408203125-1.16015625-3.15869140625-4.1259765625-3.54541015625l-3.3525390625-.45166015625c-7.2197265625-.90234375-11.216796875-4.0615234375-11.216796875-10.18603515625,0-6.51123046875,5.0927734375-10.63720703125,12.7646484375-10.63720703125,6.5751953125,0,9.927734375,1.93408203125,13.1513671875,5.28662109375l-4.8349609375,4.8349609375c-1.9345703125-2.06298828125-4.7705078125-3.6103515625-8.05859375-3.6103515625-3.5458984375,0-5.0927734375,1.41845703125-5.0927734375,3.4814453125,0,2.25634765625,1.224609375,3.2880859375,4.3837890625,3.8037109375l3.4169921875.451171875c7.3486328125,1.03173828125,10.89453125,4.3193359375,10.89453125,9.92822265625,0,6.51123046875-5.4794921875,11.02392578125-13.8603515625,11.02392578125-6.3828125,0-10.5732421875-2.32080078125-13.92578125-6.18896484375Z"/><path class="uuid-4235ba28-20cf-4d6f-85a7-f5e94549293b" d="M1811.462920312500501,460.867178124999555c0-10.76611328125,5.9951171875-17.53564453125,15.6005859375-17.53564453125,9.6708984375,0,15.666015625,6.76953125,15.666015625,17.53564453125,0,10.83056640625-5.9951171875,17.6640625-15.666015625,17.6640625-9.60546875,0-15.6005859375-6.83349609375-15.6005859375-17.6640625ZM1834.090850000000501,464.025869531249555v-6.25341796875c0-5.0283203125-2.7080078125-7.80029296875-7.02734375-7.80029296875-4.2548828125,0-6.9619140625,2.77197265625-6.9619140625,7.80029296875v6.25341796875c0,5.09326171875,2.70703125,7.865234375,6.9619140625,7.865234375,4.3193359375,0,7.02734375-2.77197265625,7.02734375-7.865234375Z"/><path class="uuid-4235ba28-20cf-4d6f-85a7-f5e94549293b" d="M1847.761748437500501,460.867178124999555c0-10.76611328125,5.6083984375-17.53564453125,15.5361328125-17.53564453125,6.76953125,0,11.2177734375,3.2236328125,13.216796875,8.509765625l-6.76953125,3.0302734375c-.7734375-2.83642578125-2.9013671875-4.8994140625-6.447265625-4.8994140625-4.5771484375,0-6.8974609375,3.22314453125-6.8974609375,7.92919921875v6.12451171875c0,4.70654296875,2.3203125,7.865234375,6.8974609375,7.865234375,3.9326171875,0,5.8671875-2.25634765625,7.091796875-5.2861328125l6.318359375,3.02978515625c-2.1923828125,5.93115234375-6.8984375,8.896484375-13.41015625,8.896484375-9.927734375,0-15.5361328125-6.83349609375-15.5361328125-17.6640625Z"/><path class="uuid-4235ba28-20cf-4d6f-85a7-f5e94549293b" d="M1882.382842187500501,435.079580468749555v-1.2890625c0-2.38525390625,1.41796875-4.1259765625,4.8349609375-4.1259765625,3.3525390625,0,4.8349609375,1.74072265625,4.8349609375,4.1259765625v1.2890625c0,2.38525390625-1.482421875,4.1259765625-4.8349609375,4.1259765625-3.4169921875,0-4.8349609375-1.74072265625-4.8349609375-4.1259765625ZM1883.091826562500501,444.105459374999555h8.251953125v33.65234375h-8.251953125v-33.65234375Z"/><path class="uuid-4235ba28-20cf-4d6f-85a7-f5e94549293b" d="M1898.501006250000501,468.603506249999555c0-6.8984375,5.2216796875-10.31494140625,14.3759765625-10.31494140625h5.7373046875v-2.4501953125c0-3.73876953125-1.869140625-5.93115234375-6.2529296875-5.93115234375-3.8681640625,0-6.060546875,1.93408203125-7.671875,4.25537109375l-4.8994140625-4.38427734375c2.44921875-3.86767578125,6.3818359375-6.44677734375,13.1513671875-6.44677734375,9.08984375,0,13.9248046875,4.3193359375,13.9248046875,11.9912109375v15.859375h3.3525390625v6.57568359375h-4.5771484375c-3.5458984375,0-5.7373046875-2.32080078125-6.2529296875-5.80224609375h-.38671875c-1.0966796875,4.3193359375-4.771484375,6.57568359375-9.7998046875,6.57568359375-6.8330078125,0-10.701171875-3.9326171875-10.701171875-9.927734375ZM1918.614287500000501,467.700674218749555v-4.4482421875h-5.2861328125c-4.3193359375,0-6.4462890625,1.48291015625-6.4462890625,4.1259765625v1.09619140625c0,2.70751953125,1.869140625,4.06103515625,5.0927734375,4.06103515625,3.6748046875,0,6.6396484375-1.67578125,6.6396484375-4.8349609375Z"/><path class="uuid-4235ba28-20cf-4d6f-85a7-f5e94549293b" d="M1938.474639062500501,469.183584374999555v-18.50244140625h-4.96484375v-6.57568359375h2.5791015625c2.4501953125,0,3.2236328125-1.16064453125,3.2236328125-3.4814453125v-5.73779296875h7.4140625v9.21923828125h6.8974609375v6.57568359375h-6.8974609375v20.5009765625h6.3818359375v6.57568359375h-5.9306640625c-5.673828125,0-8.703125-3.0947265625-8.703125-8.57421875Z"/><path class="uuid-4235ba28-20cf-4d6f-85a7-f5e94549293b" d="M1960.073271875000501,435.079580468749555v-1.2890625c0-2.38525390625,1.41796875-4.1259765625,4.8349609375-4.1259765625,3.3525390625,0,4.8349609375,1.74072265625,4.8349609375,4.1259765625v1.2890625c0,2.38525390625-1.482421875,4.1259765625-4.8349609375,4.1259765625-3.4169921875,0-4.8349609375-1.74072265625-4.8349609375-4.1259765625ZM1960.782256250000501,444.105459374999555h8.251953125v33.65234375h-8.251953125v-33.65234375Z"/><path class="uuid-4235ba28-20cf-4d6f-85a7-f5e94549293b" d="M1976.320342187500501,460.867178124999555c0-10.76611328125,5.9951171875-17.53564453125,15.6005859375-17.53564453125,9.6708984375,0,15.666015625,6.76953125,15.666015625,17.53564453125,0,10.83056640625-5.9951171875,17.6640625-15.666015625,17.6640625-9.60546875,0-15.6005859375-6.83349609375-15.6005859375-17.6640625ZM1998.948271875000501,464.025869531249555v-6.25341796875c0-5.0283203125-2.7080078125-7.80029296875-7.02734375-7.80029296875-4.2548828125,0-6.9619140625,2.77197265625-6.9619140625,7.80029296875v6.25341796875c0,5.09326171875,2.70703125,7.865234375,6.9619140625,7.865234375,4.3193359375,0,7.02734375-2.77197265625,7.02734375-7.865234375Z"/><path class="uuid-4235ba28-20cf-4d6f-85a7-f5e94549293b" d="M2014.875029687500501,477.757803124999555v-33.65234375h8.251953125v5.6083984375h.322265625c1.3544921875-3.60986328125,4.1904296875-6.38232421875,9.4130859375-6.38232421875,6.8974609375,0,10.765625,4.77099609375,10.765625,13.15185546875v21.2744140625h-8.251953125v-20.4365234375c0-4.7705078125-1.611328125-7.22021484375-5.5439453125-7.22021484375-3.4169921875,0-6.705078125,1.8046875-6.705078125,5.4150390625v22.24169921875h-8.251953125Z"/></g></svg>