<?xml version="1.0" encoding="utf-8"?>
<!-- Generator: Adobe Illustrator 16.0.0, SVG Export Plug-In . SVG Version: 6.00 Build 0)  -->
<!DOCTYPE svg PUBLIC "-//W3C//DTD SVG 1.0//EN" "http://www.w3.org/TR/2001/REC-SVG-20010904/DTD/svg10.dtd">
<svg version="1.0" id="Logotypes" xmlns="http://www.w3.org/2000/svg" xmlns:xlink="http://www.w3.org/1999/xlink" x="0px" y="0px"
	 width="2893.977px" height="708.662px" viewBox="0 0 2893.977 708.662" enable-background="new 0 0 2893.977 708.662"
	 xml:space="preserve">
<g>
	<defs>
		<rect id="SVGID_11_" x="0.001" y="0.005" width="2893.976" height="708.663"/>
	</defs>
	<clipPath id="SVGID_2_">
		<use xlink:href="#SVGID_11_"  overflow="visible"/>
	</clipPath>
	<g clip-path="url(#SVGID_2_)">
		<g>
			<g>
				<path fill="#FFFFFF" d="M201.224,379.624h-54.992v-9.13h54.992V379.624z M194.067,476.83h-9.422v-10.006h-21.982v10.006h-9.568
					v-49.37h40.973V476.83z M193.628,398.467l-40.387,0.145v-9.127h40.387V398.467z M193.774,417.601h-40.533v-9.129h40.533V417.601
					z M191.948,361.074l-37.1,0.146v-9.129h37.1V361.074z M184.646,457.841v-21.397h-22.129v21.397H184.646z M279.003,417.747
					l-78.947,0.146v-8.982h19.572l4.236-22.566h-18.258v-8.983h19.719l3.139-16.725h-27.971v-9.129h72.521v8.983h-34.691
					l-2.994,16.725h30.09l-3.141,31.548h16.725V417.747z M266.294,477.122h-9.42v-9.859h-36.955v9.859h-9.566v-49.516h55.941
					V477.122z M256.874,458.279v-21.691h-37.1v21.691H256.874z M255.413,386.197h-21.691l-4.234,22.713h23.662L255.413,386.197z"/>
				<path fill="#FFFFFF" d="M443.675,379.624H310.903v-9.13h132.771V379.624z M424.103,398.32h-94.943v-8.835h94.943V398.32z
					 M424.103,417.308h-94.943v-8.837h94.943V417.308z M420.669,477.122h-9.42v-10.298h-68.504v10.298h-9.422V427.46h87.346V477.122
					z M420.524,360.125l-86.471,0.219v-8.837h86.471V360.125z M411.249,457.841v-21.397h-68.504v21.397H411.249z"/>
				<path fill="#FFFFFF" d="M608.349,450.685h-58.791v10.151c0,10.857-5.77,16.286-17.311,16.286h-9.713l-3.578-8.982h13.584
					c4.771,0,7.158-2.192,7.158-6.573v-10.882h-64.123v-9.129h64.123v-6.281c10.174-3.798,17.453-7.351,21.836-10.663h-55.943
					v-8.399h72.158v7.96c-7.598,5.162-16.994,10.444-28.191,15.848v1.534h58.791V450.685z M602.214,423.588h-8.766v-15.117H491.425
					v15.994h-9.57v-24.538h12.563v-44.551c6.912-0.681,14.486-3.968,22.715-9.858l4.82,6.719c-4.434,4.09-10.471,7.182-18.113,9.275
					v6.135h18.695v7.596h-18.695v7.959h18.695v7.449h-18.695v9.276h77.633v-9.276h-17.82v-7.303h17.82v-8.544h-17.674v-7.449h17.674
					v-7.96h-20.668v-8.837h29.943v49.223h11.467V423.588z M560.804,366.917l-5.111,6.28c-2.777-2.676-6.551-5.574-11.32-8.69
					c-3.943,3.312-8.375,6.354-13.293,9.129l-5.988-5.259c4.723-1.947,8.859-4.235,12.416-6.865
					c-5.941-2.239-10.736-3.797-14.389-4.674l3.727-6.72c5.402,1.364,10.832,3.118,16.285,5.259
					c3.457-3.26,6.354-6.596,8.691-10.005l6.135,4.894c-1.949,3.019-4.48,5.964-7.596,8.837
					C553.962,361.146,557.444,363.752,560.804,366.917z M561.679,393.5l-6.133,4.82c-3.943-3.018-8.035-5.525-12.27-7.521
					c-2.629,1.996-7.303,4.503-14.021,7.521l-5.551-4.382c6.279-2.968,10.783-5.55,13.512-7.741
					c-2.729-1.704-6.865-3.603-12.416-5.697l5.477-4.6c5.014,1.802,9.299,3.676,12.854,5.622c1.361-0.778,4.113-3.114,8.252-7.01
					l6.719,3.432c-2.482,3.214-5.256,5.869-8.324,7.961C553.817,387.755,557.784,390.286,561.679,393.5z"/>
				<path fill="#FFFFFF" d="M772.874,450.685h-58.791v10.151c0,10.857-5.77,16.286-17.309,16.286h-9.713l-3.578-8.982h13.584
					c4.77,0,7.156-2.192,7.156-6.573v-10.882h-64.121v-9.129h64.121v-6.281c10.176-3.798,17.453-7.351,21.838-10.663h-55.943v-8.399
					h72.156v7.96c-7.596,5.162-16.994,10.444-28.191,15.848v1.534h58.791V450.685z M766.741,423.588h-8.768v-15.117H655.95v15.994
					h-9.566v-24.538h12.561v-44.551c6.914-0.681,14.484-3.968,22.713-9.858l4.82,6.719c-4.43,4.09-10.469,7.182-18.113,9.275v6.135
					h18.697v7.596h-18.697v7.959h18.697v7.449h-18.697v9.276h77.633v-9.276h-17.818v-7.303h17.818v-8.544h-17.674v-7.449h17.674
					v-7.96h-20.668v-8.837h29.943v49.223h11.469V423.588z M727.931,391.861l-6.654,6.084c-3.037-4.564-7.383-10.276-11.586-13.825
					c-6.533,7.28-11.906,11.913-16.105,13.894l-6.584-5.529c4.949-2.355,10.316-6.752,16.107-13.204
					c-6.584-4.1-11.275-6.637-14.076-7.605l5.744-5.941c2.334,0.922,6.719,3.316,13.166,7.19c1.916-3.136,3.406-6.569,4.48-10.302
					h-21.99v-8.639h11.789v-8.897h7.566v8.897h13.992v8.639h-2.77c-1.555,5.717-3.646,10.671-6.275,14.863
					C719.825,381.356,724.71,387.253,727.931,391.861z"/>
				<path fill="#FFFFFF" d="M939.81,379.333l-5.258,7.595c-16.604-4.09-29.602-8.813-38.998-14.168v6.573h-49.371v-7.231
					c-14.217,7.352-26.973,12.149-38.27,14.387l-4.818-7.668c27.361-6.669,50.146-17.819,68.357-33.449l8.982,2.994
					c-0.975,1.218-1.826,2.071-2.557,2.555C894.042,364.36,914.687,373.831,939.81,379.333z M924.253,421.179H818.212v-34.251
					h106.041V421.179z M915.563,477.268h-8.982v-5.843h-70.549v5.843h-8.982v-48.42h88.514V477.268z M866.851,413.292v-18.258
					h-39.656v18.258H866.851z M906.581,446.302v-9.421h-70.549v9.421H906.581z M906.581,463.538v-9.567h-70.549v9.567H906.581z
					 M857.138,406.061l-7.521,5.259c-4.527-4.576-8.959-7.959-13.293-10.151l7.596-4.383
					C849.079,398.977,853.485,402.07,857.138,406.061z M892.56,371.227c-7.061-3.7-13.902-8.691-20.523-14.973
					c-7.061,5.843-14.971,10.834-23.734,14.973H892.56z M915.272,413.292v-18.258h-39.438v18.258H915.272z M906.435,399.343
					c-2.873,4.577-7.207,8.472-13,11.685l-8.033-4.016c6.379-3.603,10.76-7.207,13.145-10.81L906.435,399.343z"/>
			</g>
			<g>
				<path fill="#FFFFFF" d="M201.911,260.238l-2.789,3.211c-8.359-2.94-16.32-8.121-23.881-15.542l0.061,11.73h14.01v25.8h-3.811
					v-3.449h-24.27v3.449H157.3v-25.8h14.07v-11.73c-4.119,6.3-11.561,11.23-22.32,14.792l-2.818-3.181
					c9.539-2.521,16.359-6.39,20.459-11.611h-17.07v-3.75h21.75v-5.79c-4.779,0.48-10.779,0.83-18,1.05l-2.58-3.631
					c17.061-0.06,30.682-1.488,40.861-4.289l2.881,2.881c-5.66,1.52-12.07,2.689-19.23,3.509v6.27h22.051v3.75l-17.191-0.06
					C186.522,253.368,193.772,257.499,201.911,260.238z M185.501,268.669v-5.281h-24.33v5.281H185.501z M185.501,278.299v-5.939
					h-24.33v5.939H185.501z"/>
				<path fill="#FFFFFF" d="M217.513,262.998c-2.521,7.821-5.82,14.232-9.9,19.231l3.51,2.221c4.539-5.721,7.881-12.13,10.021-19.23
					L217.513,262.998z M211.183,246.348l-2.521,3.15c3.98,1.701,7.131,4.139,9.453,7.32l2.637-3.57
					C218.673,250.468,215.483,248.169,211.183,246.348z M214.122,232.909l-2.82,2.879c3.84,1.379,6.871,3.7,9.092,6.959l2.818-3.03
					C221.071,236.618,218.042,234.35,214.122,232.909z"/>
				<path fill="#FFFFFF" d="M253.333,272.12v-11.313c2.379,2.241,4.939,4.081,7.682,5.522l2.461-3.332
					c-5.242-2.238-9.324-5.78-12.242-10.619h10.258v-3.69h-9.807v-7.17h7.408v-3.691h-7.408V231.5h-3.813v6.388h-11.129V231.5
					h-3.813v6.388h-7.377v3.689h7.439v7.169h-9.781v3.692h9.9c-2.219,4.159-6.23,7.621-12.029,10.378l2.818,3.331
					c1.715-0.995,3.295-2.075,4.74-3.239v16.081c0,3.439,1.721,5.159,5.16,5.159h19.65c1.602,0,2.867-0.531,3.795-1.588
					c0.932-1.061,1.656-3.15,2.176-6.27l-3.869-1.741c-0.262,2.5-0.639,4.099-1.141,4.799c-0.5,0.701-1.17,1.051-2.01,1.051h-18.301
					c-1.102,0-1.648-0.549-1.648-1.651v-6.628H253.333z M236.743,241.519h11.189v7.17h-11.189V241.519z M237.103,252.379h10.199
					c0.982,2.32,2.461,4.59,4.441,6.812h-19.051C234.853,256.81,236.323,254.537,237.103,252.379z M232.454,262.879h17.07v5.61
					h-17.07V262.879z"/>
				<path fill="#FFFFFF" d="M324.675,282.439l-2.789,3.119c-12.502-6.819-20.441-18.31-23.822-34.47
					c-4.18,16.422-12.699,27.911-25.559,34.47l-3.031-3.569c12.74-6.2,20.811-16.48,24.211-30.84h-20.4v-3.871h20.85
					c0.381-3.759,0.539-9.021,0.48-15.78l4.17,0.6c0.1,6.12-0.02,11.161-0.359,15.121h22.74v3.869h-18.93
					C304.634,264.789,312.114,275.239,324.675,282.439z"/>
				<path fill="#FFFFFF" d="M385.847,274.638h-24.15v4.171c0,4.459-2.371,6.69-7.111,6.69h-3.99l-1.469-3.69h5.58
					c1.959,0,2.939-0.9,2.939-2.7v-4.471h-26.34v-3.75h26.34v-2.58c4.18-1.56,7.17-3.02,8.971-4.38h-22.98v-3.45h29.641v3.27
					c-3.121,2.12-6.98,4.291-11.58,6.511v0.629h24.15V274.638z M383.327,263.509h-3.6v-6.21h-41.912v6.569h-3.93v-10.08h5.16
					v-18.301c2.84-0.279,5.949-1.629,9.33-4.05l1.979,2.76c-1.818,1.681-4.299,2.951-7.439,3.811v2.519h7.68v3.121h-7.68v3.271h7.68
					v3.06h-7.68v3.81h31.891v-3.81h-7.32v-3h7.32v-3.51h-7.26v-3.061h7.26v-3.27h-8.49v-3.629h12.301v20.22h4.711V263.509z
					 M366.315,240.229l-2.1,2.579c-1.141-1.1-2.689-2.289-4.65-3.57c-1.619,1.36-3.439,2.61-5.459,3.75l-2.461-2.16
					c1.939-0.8,3.641-1.74,5.1-2.819c-2.439-0.921-4.41-1.561-5.91-1.921l1.531-2.76c2.219,0.561,4.449,1.281,6.689,2.161
					c1.42-1.339,2.609-2.71,3.57-4.11l2.52,2.011c-0.801,1.239-1.84,2.45-3.119,3.63
					C363.505,237.857,364.935,238.928,366.315,240.229z M366.677,251.148l-2.521,1.98c-1.619-1.241-3.299-2.271-5.039-3.092
					c-1.08,0.821-3,1.851-5.76,3.092l-2.281-1.802c2.58-1.219,4.43-2.278,5.551-3.179c-1.121-0.701-2.82-1.479-5.1-2.34l2.248-1.89
					c2.061,0.74,3.822,1.511,5.281,2.311c0.561-0.321,1.689-1.279,3.391-2.88l2.76,1.411c-1.02,1.318-2.16,2.41-3.42,3.269
					C363.446,248.787,365.075,249.827,366.677,251.148z"/>
				<path fill="#FFFFFF" d="M447.288,274.638h-24.15v4.171c0,4.459-2.371,6.69-7.111,6.69h-3.988l-1.471-3.69h5.58
					c1.959,0,2.939-0.9,2.939-2.7v-4.471h-26.34v-3.75h26.34v-2.58c4.18-1.56,7.17-3.02,8.971-4.38h-22.98v-3.45h29.641v3.27
					c-3.121,2.12-6.98,4.291-11.58,6.511v0.629h24.15V274.638z M444.769,263.509h-3.602v-6.21h-41.91v6.569h-3.93v-10.08h5.16
					v-18.301c2.84-0.279,5.949-1.629,9.33-4.05l1.98,2.76c-1.82,1.681-4.301,2.951-7.441,3.811v2.519h7.682v3.121h-7.682v3.271
					h7.682v3.06h-7.682v3.81h31.891v-3.81h-7.32v-3h7.32v-3.51h-7.26v-3.061h7.26v-3.27h-8.49v-3.629h12.301v20.22h4.711V263.509z
					 M427.757,240.229l-2.1,2.579c-1.141-1.1-2.691-2.289-4.65-3.57c-1.619,1.36-3.439,2.61-5.459,3.75l-2.461-2.16
					c1.939-0.8,3.641-1.74,5.1-2.819c-2.439-0.921-4.41-1.561-5.91-1.921l1.531-2.76c2.219,0.561,4.449,1.281,6.689,2.161
					c1.42-1.339,2.609-2.71,3.57-4.11l2.52,2.011c-0.801,1.239-1.84,2.45-3.119,3.63
					C424.948,237.857,426.378,238.928,427.757,240.229z M428.118,251.148l-2.521,1.98c-1.619-1.241-3.299-2.271-5.039-3.092
					c-1.08,0.821-3,1.851-5.762,3.092l-2.279-1.802c2.58-1.219,4.43-2.278,5.551-3.179c-1.121-0.701-2.82-1.479-5.1-2.34l2.25-1.89
					c2.059,0.74,3.818,1.511,5.279,2.311c0.561-0.321,1.689-1.279,3.391-2.88l2.76,1.411c-1.02,1.318-2.16,2.41-3.42,3.269
					C424.888,248.787,426.517,249.827,428.118,251.148z"/>
				<path fill="#FFFFFF" d="M508.729,282.499h-54.602v-3.87h25.441v-14.071h-18.332v-3.87h18.332v-12.24h-13.592
					c-1.639,4.26-4.379,8.19-8.219,11.79l-3.961-2.07c6.561-6.06,10.209-13.48,10.951-22.26l4.049,1.169
					c-0.16,2.041-0.629,4.561-1.408,7.561h12.117v-13.14h4.053v13.079h21.18v3.871h-21.18v12.181h18.061v3.869H483.56v14.071h25.17
					V282.499z"/>
				<path fill="#FFFFFF" d="M571.161,245.327l-2.16,3.121c-6.82-1.679-12.16-3.62-16.02-5.819v2.698H532.7v-2.969
					c-5.84,3.021-11.08,4.99-15.721,5.91l-1.979-3.15c11.238-2.741,20.6-7.321,28.08-13.741l3.689,1.231
					c-0.4,0.5-0.75,0.851-1.049,1.049C552.36,239.178,560.841,243.068,571.161,245.327z M564.772,262.519H521.21v-14.071h43.563
					V262.519z M561.202,285.558h-3.691v-2.399h-28.98v2.399h-3.689v-19.889h36.361V285.558z M541.19,259.278v-7.5h-16.291v7.5
					H541.19z M557.511,272.838v-3.869h-28.98v3.869H557.511z M557.511,279.919v-3.93h-28.98v3.93H557.511z M537.2,256.308
					l-3.09,2.161c-1.859-1.88-3.68-3.27-5.461-4.17l3.121-1.8C533.89,253.398,535.7,254.669,537.2,256.308z M551.751,241.999
					c-2.9-1.52-5.711-3.57-8.432-6.151c-2.898,2.401-6.148,4.452-9.748,6.151H551.751z M561.081,259.278v-7.5h-16.199v7.5H561.081z
					 M557.45,253.549c-1.18,1.879-2.959,3.479-5.34,4.799l-3.299-1.649c2.619-1.48,4.42-2.961,5.398-4.44L557.45,253.549z"/>
				<path fill="#FFFFFF" d="M632.243,281.629l-2.641,3.51c-10.18-3-18.441-7.04-24.779-12.121
					c-5.463,4.46-14.041,8.581-25.742,12.36l-2.939-3.569c11.32-3.14,19.881-6.95,25.682-11.431c-5.82-5.5-9.732-12.19-11.73-20.071
					c-1.08,2.78-2.563,5.42-4.441,7.92l-3.178-2.909c2.52-3.001,4.547-6.292,6.088-9.872h-10.32v-3.689h24.063v-10.261h3.869v10.2
					h24.48v3.69h-10.262c-1.799,10.44-5.938,18.75-12.42,24.93C613.872,274.799,621.962,278.569,632.243,281.629z M616.372,245.388
					h-23.219c1.598,9.26,5.508,16.71,11.729,22.351C610.962,262.078,614.792,254.629,616.372,245.388z"/>
				<path fill="#FFFFFF" d="M693.056,274.638h-24.152v4.171c0,4.459-2.369,6.69-7.109,6.69h-3.99l-1.469-3.69h5.578
					c1.961,0,2.941-0.9,2.941-2.7v-4.471h-26.34v-3.75h26.34v-2.58c4.18-1.56,7.17-3.02,8.969-4.38h-22.98v-3.45h29.641v3.27
					c-3.119,2.12-6.98,4.291-11.58,6.511v0.629h24.152V274.638z M690.536,263.509h-3.602v-6.21h-41.912v6.569h-3.93v-10.08h5.16
					v-18.301c2.84-0.279,5.951-1.629,9.332-4.05l1.979,2.76c-1.818,1.681-4.301,2.951-7.441,3.811v2.519h7.682v3.121h-7.682v3.271
					h7.682v3.06h-7.682v3.81h31.893v-3.81h-7.322v-3h7.322v-3.51h-7.26v-3.061h7.26v-3.27h-8.49v-3.629h12.299v20.22h4.713V263.509z
					 M673.524,240.229l-2.102,2.579c-1.139-1.1-2.689-2.289-4.648-3.57c-1.621,1.36-3.441,2.61-5.461,3.75l-2.459-2.16
					c1.939-0.8,3.639-1.74,5.1-2.819c-2.441-0.921-4.412-1.561-5.91-1.921l1.531-2.76c2.219,0.561,4.449,1.281,6.689,2.161
					c1.42-1.339,2.609-2.71,3.568-4.11l2.521,2.011c-0.801,1.239-1.842,2.45-3.119,3.63
					C670.714,237.857,672.144,238.928,673.524,240.229z M673.884,251.148l-2.52,1.98c-1.619-1.241-3.301-2.271-5.041-3.092
					c-1.08,0.821-3,1.851-5.76,3.092l-2.281-1.802c2.582-1.219,4.432-2.278,5.551-3.179c-1.119-0.701-2.82-1.479-5.1-2.34l2.25-1.89
					c2.061,0.74,3.82,1.511,5.281,2.311c0.561-0.321,1.689-1.279,3.389-2.88l2.76,1.411c-1.02,1.318-2.158,2.41-3.418,3.269
					C670.653,248.787,672.282,249.827,673.884,251.148z"/>
				<path fill="#FFFFFF" d="M713.573,251.898c4.041,4.54,6.063,8.97,6.063,13.29c0,2.101-0.545,3.771-1.637,5.01
					c-1.088,1.241-2.613,1.862-4.574,1.862c-1.08,0-2.381-0.131-3.9-0.39l-1.109-3.991c2.141,0.542,3.68,0.811,4.619,0.811
					c0.779,0,1.49-0.301,2.131-0.901c0.641-0.599,0.961-1.399,0.961-2.4c0-1.499-0.551-3.419-1.65-5.76
					c-1.102-2.34-2.752-4.57-4.951-6.689l5.852-15.031h-8.91V285.5h-3.932v-51.602h16.83v3.81L713.573,251.898z M754.946,274.489
					c-0.521,3.24-1.221,5.591-2.102,7.05c-0.879,1.46-2.311,2.19-4.289,2.19h-4.68c-3.121,0-4.68-1.641-4.68-4.919v-15.871h-6.332
					c-0.119,6.44-1.375,11.264-3.764,14.475c-2.391,3.21-6.824,5.906-13.307,8.086l-2.52-3.451c6.02-1.78,10.15-4.08,12.391-6.9
					s3.369-6.869,3.391-12.15h-8.221v-3.93h32.133v3.871h-10.023v14.94c0,0.5,0.16,0.965,0.48,1.396s0.701,0.645,1.141,0.645h3.811
					c0.779,0,1.375-0.64,1.785-1.92c0.408-1.279,0.754-2.939,1.035-4.98L754.946,274.489z M751.495,247.278l-3.809,0.06v-5.28
					h-22.621v5.28h-3.871v-9.09h13.17v-6.81h3.932v6.75h13.199V247.278z M746.456,253.068h-20.281v-3.93h20.281V253.068z"/>
				<path fill="#FFFFFF" d="M815.938,274.638h-24.152v4.171c0,4.459-2.371,6.69-7.109,6.69h-3.99l-1.471-3.69h5.58
					c1.961,0,2.941-0.9,2.941-2.7v-4.471h-26.342v-3.75h26.342v-2.58c4.18-1.56,7.17-3.02,8.969-4.38h-22.98v-3.45h29.641v3.27
					c-3.119,2.12-6.98,4.291-11.58,6.511v0.629h24.152V274.638z M813.417,263.509h-3.6v-6.21h-41.91v6.569h-3.932v-10.08h5.162
					v-18.301c2.838-0.279,5.949-1.629,9.328-4.05l1.98,2.76c-1.82,1.681-4.299,2.951-7.439,3.811v2.519h7.68v3.121h-7.68v3.271h7.68
					v3.06h-7.68v3.81h31.891v-3.81h-7.32v-3h7.32v-3.51h-7.26v-3.061h7.26v-3.27h-8.49v-3.629h12.299v20.22h4.711V263.509z
					 M796.407,240.229l-2.102,2.579c-1.141-1.1-2.689-2.289-4.65-3.57c-1.619,1.36-3.439,2.61-5.459,3.75l-2.461-2.16
					c1.941-0.8,3.643-1.74,5.102-2.819c-2.441-0.921-4.41-1.561-5.91-1.921l1.529-2.76c2.221,0.561,4.451,1.281,6.689,2.161
					c1.42-1.339,2.611-2.71,3.572-4.11l2.52,2.011c-0.801,1.239-1.842,2.45-3.121,3.63
					C793.597,237.857,795.026,238.928,796.407,240.229z M796.767,251.148l-2.52,1.98c-1.621-1.241-3.301-2.271-5.039-3.092
					c-1.082,0.821-3,1.851-5.762,3.092l-2.279-1.802c2.58-1.219,4.43-2.278,5.551-3.179c-1.121-0.701-2.822-1.479-5.102-2.34
					l2.25-1.89c2.061,0.74,3.82,1.511,5.279,2.311c0.561-0.321,1.689-1.279,3.391-2.88l2.76,1.411c-1.02,1.318-2.16,2.41-3.42,3.269
					C793.536,248.787,795.167,249.827,796.767,251.148z"/>
				<path fill="#FFFFFF" d="M877.378,282.499h-54.6v-3.87h25.439v-14.071h-18.33v-3.87h18.33v-12.24h-13.59
					c-1.641,4.26-4.381,8.19-8.221,11.79l-3.959-2.07c6.559-6.06,10.209-13.48,10.949-22.26l4.051,1.169
					c-0.16,2.041-0.631,4.561-1.412,7.561h12.123v-13.14h4.049v13.079h21.18v3.871h-21.18v12.181h18.061v3.869h-18.061v14.071h25.17
					V282.499z"/>
				<path fill="#FFFFFF" d="M939.81,245.327l-2.158,3.121c-6.82-1.679-12.162-3.62-16.021-5.819v2.698h-20.281v-2.969
					c-5.84,3.021-11.08,4.99-15.719,5.91l-1.98-3.15c11.24-2.741,20.6-7.321,28.08-13.741l3.689,1.231
					c-0.4,0.5-0.75,0.851-1.049,1.049C921.009,239.178,929.491,243.068,939.81,245.327z M933.421,262.519H889.86v-14.071h43.561
					V262.519z M929.851,285.558h-3.691v-2.399h-28.98v2.399h-3.689v-19.889h36.361V285.558z M909.839,259.278v-7.5H893.55v7.5
					H909.839z M926.159,272.838v-3.869h-28.98v3.869H926.159z M926.159,279.919v-3.93h-28.98v3.93H926.159z M905.849,256.308
					l-3.09,2.161c-1.859-1.88-3.68-3.27-5.459-4.17l3.119-1.8C902.54,253.398,904.349,254.669,905.849,256.308z M920.399,241.999
					c-2.9-1.52-5.709-3.57-8.43-6.151c-2.902,2.401-6.15,4.452-9.75,6.151H920.399z M929.729,259.278v-7.5H913.53v7.5H929.729z
					 M926.101,253.549c-1.182,1.879-2.961,3.479-5.342,4.799l-3.299-1.649c2.619-1.48,4.42-2.961,5.4-4.44L926.101,253.549z"/>
			</g>
		</g>
		<g>
			<path fill="#FFFFFF" d="M1566.424,336.839V236.368h12.09v89.819h42.752v10.651H1566.424z"/>
			<path fill="#FFFFFF" d="M1643.143,245.148c-2.496,0-4.295-0.598-5.396-1.799c-1.105-1.199-1.656-2.757-1.656-4.679V236.8
				c0-1.919,0.551-3.478,1.656-4.678c1.102-1.199,2.9-1.799,5.396-1.799c2.494,0,4.295,0.601,5.398,1.799
				c1.102,1.201,1.654,2.759,1.654,4.678v1.871c0,1.922-0.553,3.479-1.654,4.679
				C1647.438,244.551,1645.637,245.148,1643.143,245.148z M1637.385,262.566h11.516v74.272h-11.516V262.566z"/>
			<path fill="#FFFFFF" d="M1673.371,336.839v-74.272h11.516v11.953h0.576c1.82-4.179,4.389-7.506,7.699-9.975
				c3.313-2.47,7.748-3.707,13.314-3.707c7.678,0,13.748,2.472,18.209,7.413c4.463,4.943,6.693,11.926,6.693,20.944v47.644h-11.514
				v-45.728c0-13.369-5.615-20.053-16.842-20.053c-2.303,0-4.535,0.291-6.693,0.866c-2.16,0.578-4.104,1.444-5.83,2.598
				c-1.727,1.154-3.096,2.62-4.102,4.399c-1.008,1.779-1.512,3.871-1.512,6.275v51.643H1673.371z"/>
			<path fill="#FFFFFF" d="M1814.145,334.393c0,10.267-2.879,18.328-8.637,24.182s-13.867,8.781-24.326,8.781
				c-6.045,0-11.252-0.94-15.617-2.818c-4.367-1.882-7.988-4.363-10.867-7.447l6.766-7.952c2.494,2.568,5.373,4.545,8.637,5.926
				c3.26,1.381,7.053,2.071,11.371,2.071c6.715,0,11.922-1.855,15.617-5.563c3.693-3.714,5.541-9.184,5.541-16.411v-10.274h-0.574
				c-2.209,4.561-5.088,7.979-8.637,10.26c-3.553,2.281-7.918,3.422-13.1,3.422c-4.605,0-8.779-0.914-12.523-2.735
				c-3.742-1.822-6.908-4.413-9.5-7.772c-2.59-3.358-4.605-7.436-6.045-12.235c-1.439-4.797-2.158-10.171-2.158-16.122
				c0-5.948,0.719-11.322,2.158-16.121c1.439-4.797,3.455-8.875,6.045-12.235c2.592-3.358,5.758-5.949,9.5-7.772
				c3.744-1.822,7.918-2.735,12.523-2.735c5.182,0,9.619,1.118,13.314,3.349c3.693,2.234,6.5,5.677,8.422,10.333h0.574v-11.953
				h11.516V334.393z M1783.773,328.347c2.592,0,5.037-0.337,7.342-1.012c2.303-0.675,4.293-1.665,5.973-2.967
				c1.678-1.3,3.023-2.893,4.031-4.772c1.006-1.88,1.51-4.075,1.51-6.583V285.38c0-2.023-0.48-3.929-1.439-5.715
				c-0.959-1.783-2.303-3.301-4.029-4.556c-1.729-1.253-3.742-2.241-6.045-2.965c-2.305-0.724-4.75-1.086-7.342-1.086
				c-6.527,0-11.709,2.073-15.545,6.221c-3.84,4.147-5.758,9.5-5.758,16.058v12.73c0,6.559,1.918,11.911,5.758,16.059
				C1772.064,326.273,1777.246,328.347,1783.773,328.347z"/>
			<path fill="#FFFFFF" d="M1884.387,324.886h-0.576c-0.77,1.711-1.705,3.398-2.807,5.061c-1.104,1.662-2.471,3.135-4.102,4.417
				c-1.633,1.282-3.6,2.304-5.902,3.064c-2.303,0.76-4.99,1.141-8.061,1.141c-7.678,0-13.771-2.47-18.281-7.414
				c-4.512-4.94-6.766-11.922-6.766-20.942v-47.645h11.516v45.728c0,13.369,5.662,20.053,16.986,20.053
				c2.303,0,4.533-0.287,6.693-0.866c2.158-0.575,4.076-1.44,5.758-2.595c1.678-1.154,3.021-2.62,4.029-4.399
				c1.008-1.778,1.512-3.92,1.512-6.421v-51.499h11.516v74.272h-11.516V324.886z"/>
			<path fill="#FFFFFF" d="M1926.129,245.148c-2.496,0-4.295-0.598-5.398-1.799c-1.104-1.199-1.654-2.757-1.654-4.679V236.8
				c0-1.919,0.551-3.478,1.654-4.678c1.104-1.199,2.902-1.799,5.398-1.799c2.494,0,4.293,0.601,5.398,1.799
				c1.102,1.201,1.654,2.759,1.654,4.678v1.871c0,1.922-0.553,3.479-1.654,4.679
				C1930.422,244.551,1928.623,245.148,1926.129,245.148z M1920.371,262.566h11.516v74.272h-11.516V262.566z"/>
			<path fill="#FFFFFF" d="M1978.668,338.567c-6.91,0-12.691-1.32-17.346-3.959c-4.654-2.638-8.66-6.165-12.02-10.58l8.205-6.621
				c2.879,3.648,6.094,6.455,9.645,8.42c3.549,1.969,7.676,2.952,12.379,2.952c4.895,0,8.709-1.056,11.443-3.167
				c2.734-2.109,4.102-5.086,4.102-8.925c0-2.879-0.936-5.349-2.807-7.413c-1.871-2.063-5.254-3.477-10.146-4.246l-5.902-0.864
				c-3.455-0.479-6.621-1.223-9.5-2.231s-5.398-2.351-7.557-4.03c-2.16-1.678-3.84-3.765-5.039-6.262
				c-1.201-2.494-1.799-5.47-1.799-8.924c0-3.646,0.67-6.838,2.016-9.573c1.342-2.735,3.189-5.012,5.541-6.837
				c2.352-1.822,5.158-3.19,8.42-4.102c3.262-0.911,6.766-1.368,10.51-1.368c6.045,0,11.105,1.058,15.186,3.167
				c4.076,2.112,7.65,5.038,10.723,8.78l-7.629,6.909c-1.633-2.303-4.029-4.39-7.197-6.261c-3.166-1.871-7.148-2.808-11.947-2.808
				s-8.42,1.032-10.867,3.095c-2.447,2.064-3.67,4.872-3.67,8.42c0,3.648,1.223,6.286,3.67,7.917
				c2.447,1.633,5.975,2.832,10.58,3.599l5.758,0.863c8.252,1.248,14.105,3.624,17.561,7.125c3.455,3.505,5.182,8.085,5.182,13.746
				c0,7.197-2.447,12.861-7.34,16.986C1993.926,336.505,1987.207,338.567,1978.668,338.567z"/>
			<path fill="#FFFFFF" d="M2041.859,336.839c-4.029,0-7.078-1.124-9.141-3.373c-2.064-2.249-3.094-5.195-3.094-8.835v-51.846
				h-12.236v-10.219h6.91c2.494,0,4.197-0.505,5.109-1.513c0.912-1.007,1.367-2.757,1.367-5.253v-13.819h10.365v20.585h16.266
				v10.219h-16.266v53.835h15.113v10.219H2041.859z"/>
			<path fill="#FFFFFF" d="M2081.73,245.148c-2.496,0-4.295-0.598-5.396-1.799c-1.105-1.199-1.656-2.757-1.656-4.679V236.8
				c0-1.919,0.551-3.478,1.656-4.678c1.102-1.199,2.9-1.799,5.396-1.799s4.295,0.601,5.398,1.799
				c1.102,1.201,1.656,2.759,1.656,4.678v1.871c0,1.922-0.555,3.479-1.656,4.679C2086.025,244.551,2084.227,245.148,2081.73,245.148
				z M2075.973,262.566h11.516v74.272h-11.516V262.566z"/>
			<path fill="#FFFFFF" d="M2139.596,338.567c-5.182,0-9.838-0.914-13.963-2.735c-4.127-1.822-7.605-4.413-10.436-7.772
				c-2.832-3.358-4.99-7.436-6.477-12.235c-1.488-4.797-2.23-10.171-2.23-16.122c0-5.948,0.742-11.322,2.23-16.121
				c1.486-4.797,3.645-8.875,6.477-12.235c2.83-3.358,6.309-5.949,10.436-7.772c4.125-1.822,8.781-2.735,13.963-2.735
				c7.389,0,13.314,1.608,17.777,4.822c4.461,3.217,7.795,7.413,10.004,12.595l-9.645,4.895c-1.344-3.837-3.551-6.813-6.621-8.925
				c-3.072-2.109-6.91-3.167-11.516-3.167c-3.455,0-6.477,0.553-9.068,1.655c-2.59,1.104-4.75,2.641-6.477,4.607
				c-1.729,1.967-3.023,4.318-3.887,7.053c-0.863,2.735-1.297,5.736-1.297,8.996v12.667c0,6.528,1.75,11.876,5.256,16.05
				c3.5,4.174,8.658,6.261,15.473,6.261c9.307,0,16.025-4.318,20.152-12.955l8.348,5.614c-2.398,5.375-5.973,9.645-10.723,12.812
				C2152.623,336.983,2146.697,338.567,2139.596,338.567z"/>
			<path fill="#FFFFFF" d="M2206.672,338.567c-6.91,0-12.691-1.32-17.346-3.959c-4.654-2.638-8.66-6.165-12.02-10.58l8.205-6.621
				c2.879,3.648,6.094,6.455,9.645,8.42c3.549,1.969,7.676,2.952,12.379,2.952c4.895,0,8.709-1.056,11.443-3.167
				c2.734-2.109,4.102-5.086,4.102-8.925c0-2.879-0.936-5.349-2.807-7.413c-1.871-2.063-5.254-3.477-10.146-4.246l-5.902-0.864
				c-3.455-0.479-6.621-1.223-9.5-2.231s-5.398-2.351-7.557-4.03c-2.16-1.678-3.84-3.765-5.039-6.262
				c-1.201-2.494-1.799-5.47-1.799-8.924c0-3.646,0.67-6.838,2.016-9.573c1.342-2.735,3.189-5.012,5.541-6.837
				c2.352-1.822,5.158-3.19,8.42-4.102c3.262-0.911,6.766-1.368,10.51-1.368c6.045,0,11.105,1.058,15.186,3.167
				c4.076,2.112,7.65,5.038,10.723,8.78l-7.629,6.909c-1.633-2.303-4.029-4.39-7.197-6.261c-3.166-1.871-7.148-2.808-11.947-2.808
				s-8.42,1.032-10.867,3.095c-2.447,2.064-3.67,4.872-3.67,8.42c0,3.648,1.223,6.286,3.67,7.917
				c2.447,1.633,5.975,2.832,10.58,3.599l5.758,0.863c8.252,1.248,14.105,3.624,17.561,7.125c3.455,3.505,5.182,8.085,5.182,13.746
				c0,7.197-2.447,12.861-7.34,16.986C2221.93,336.505,2215.211,338.567,2206.672,338.567z"/>
			<path fill="#FFFFFF" d="M2317.793,338.567c-8.156,0-15.113-1.562-20.871-4.679s-10.652-7.413-14.682-12.883l8.924-7.485
				c3.549,4.703,7.484,8.276,11.803,10.724s9.404,3.671,15.258,3.671c7.197,0,12.689-1.728,16.482-5.182
				c3.789-3.455,5.686-8.062,5.686-13.819c0-4.796-1.439-8.493-4.318-11.083c-2.879-2.592-7.629-4.654-14.25-6.19l-8.205-1.871
				c-9.213-2.11-16.242-5.301-21.088-9.571c-4.846-4.27-7.27-10.293-7.27-18.065c0-4.413,0.814-8.349,2.447-11.803
				c1.631-3.455,3.91-6.333,6.838-8.636c2.926-2.304,6.428-4.054,10.508-5.254c4.078-1.199,8.564-1.8,13.459-1.8
				c7.578,0,14.08,1.393,19.504,4.175c5.42,2.784,10.004,6.861,13.746,12.235l-9.068,6.62c-2.785-3.837-6.143-6.859-10.076-9.068
				c-3.936-2.207-8.83-3.31-14.682-3.31c-6.43,0-11.492,1.367-15.186,4.102c-3.695,2.735-5.543,6.838-5.543,12.308
				c0,4.8,1.559,8.42,4.68,10.867c3.117,2.447,7.844,4.391,14.178,5.83l8.205,1.871c9.883,2.208,17.031,5.566,21.447,10.076
				c4.412,4.511,6.621,10.508,6.621,17.993c0,4.606-0.791,8.78-2.375,12.523c-1.584,3.742-3.865,6.909-6.838,9.5
				c-2.975,2.591-6.598,4.606-10.867,6.045C2327.988,337.847,2323.166,338.567,2317.793,338.567z"/>
			<path fill="#FFFFFF" d="M2400.127,338.567c-4.99,0-9.549-0.914-13.674-2.735c-4.127-1.822-7.654-4.438-10.58-7.845
				c-2.928-3.405-5.207-7.484-6.838-12.235c-1.633-4.75-2.445-10.099-2.445-16.05c0-5.852,0.813-11.178,2.445-15.978
				c1.631-4.797,3.91-8.899,6.838-12.307c2.926-3.405,6.453-6.021,10.58-7.845c4.125-1.822,8.684-2.735,13.674-2.735
				c4.988,0,9.523,0.913,13.604,2.735c4.076,1.824,7.604,4.439,10.578,7.845c2.975,3.407,5.277,7.51,6.91,12.307
				c1.631,4.8,2.447,10.126,2.447,15.978c0,5.951-0.816,11.3-2.447,16.05c-1.633,4.751-3.936,8.83-6.91,12.235
				c-2.975,3.407-6.502,6.022-10.578,7.845C2409.65,337.653,2405.115,338.567,2400.127,338.567z M2400.127,328.347
				c6.236,0,11.322-1.918,15.258-5.758c3.934-3.836,5.902-9.69,5.902-17.561v-10.651c0-7.867-1.969-13.722-5.902-17.562
				c-3.936-3.836-9.021-5.757-15.258-5.757c-6.238,0-11.324,1.921-15.258,5.757c-3.936,3.839-5.9,9.694-5.9,17.562v10.651
				c0,7.87,1.965,13.725,5.9,17.561C2388.803,326.429,2393.889,328.347,2400.127,328.347z"/>
			<path fill="#FFFFFF" d="M2480.303,338.567c-5.182,0-9.838-0.914-13.963-2.735c-4.127-1.822-7.605-4.413-10.436-7.772
				c-2.832-3.358-4.99-7.436-6.477-12.235c-1.49-4.797-2.232-10.171-2.232-16.122c0-5.948,0.742-11.322,2.232-16.121
				c1.486-4.797,3.645-8.875,6.477-12.235c2.83-3.358,6.309-5.949,10.436-7.772c4.125-1.822,8.781-2.735,13.963-2.735
				c7.389,0,13.314,1.608,17.777,4.822c4.461,3.217,7.795,7.413,10.004,12.595l-9.645,4.895c-1.346-3.837-3.551-6.813-6.621-8.925
				c-3.072-2.109-6.91-3.167-11.516-3.167c-3.455,0-6.477,0.553-9.068,1.655c-2.592,1.104-4.75,2.641-6.477,4.607
				c-1.729,1.967-3.023,4.318-3.887,7.053c-0.863,2.735-1.297,5.736-1.297,8.996v12.667c0,6.528,1.75,11.876,5.254,16.05
				c3.502,4.174,8.66,6.261,15.475,6.261c9.307,0,16.025-4.318,20.152-12.955l8.348,5.614c-2.398,5.375-5.973,9.645-10.723,12.812
				C2493.33,336.983,2487.402,338.567,2480.303,338.567z"/>
			<path fill="#FFFFFF" d="M2530.824,245.148c-2.496,0-4.295-0.598-5.396-1.799c-1.105-1.199-1.656-2.757-1.656-4.679V236.8
				c0-1.919,0.551-3.478,1.656-4.678c1.102-1.199,2.9-1.799,5.396-1.799c2.494,0,4.295,0.601,5.398,1.799
				c1.102,1.201,1.656,2.759,1.656,4.678v1.871c0,1.922-0.555,3.479-1.656,4.679
				C2535.119,244.551,2533.318,245.148,2530.824,245.148z M2525.066,262.566h11.516v74.272h-11.516V262.566z"/>
			<path fill="#FFFFFF" d="M2588.977,338.567c-5.086,0-9.668-0.914-13.746-2.735c-4.08-1.822-7.582-4.438-10.508-7.845
				c-2.928-3.405-5.182-7.484-6.766-12.235c-1.582-4.75-2.373-10.099-2.373-16.05c0-5.852,0.791-11.178,2.373-15.978
				c1.584-4.797,3.838-8.899,6.766-12.307c2.926-3.405,6.428-6.021,10.508-7.845c4.078-1.822,8.66-2.735,13.746-2.735
				c4.99,0,9.451,0.909,13.387,2.726c3.934,1.817,7.293,4.33,10.076,7.532c2.783,3.203,4.918,7.004,6.406,11.403
				c1.486,4.399,2.23,9.228,2.23,14.486v5.452h-53.402v3.456c0,3.166,0.504,6.117,1.512,8.852c1.008,2.735,2.447,5.11,4.318,7.125
				c1.871,2.016,4.174,3.599,6.908,4.751c2.736,1.151,5.83,1.727,9.285,1.727c4.701,0,8.803-1.103,12.307-3.311
				c3.502-2.206,6.213-5.373,8.133-9.5l8.205,5.939c-2.4,5.119-6.143,9.246-11.229,12.384S2595.98,338.567,2588.977,338.567z
				 M2588.977,270.482c-3.166,0-6.045,0.549-8.635,1.646c-2.592,1.098-4.822,2.647-6.693,4.648
				c-1.871,2.002-3.336,4.363-4.391,7.081c-1.057,2.719-1.584,5.698-1.584,8.941v1.001h41.023v-1.574
				c0-6.581-1.799-11.848-5.398-15.807C2599.701,272.462,2594.926,270.482,2588.977,270.482z"/>
			<path fill="#FFFFFF" d="M2656.486,336.839c-4.031,0-7.078-1.124-9.141-3.373c-2.064-2.249-3.096-5.195-3.096-8.835v-51.846
				h-12.234v-10.219h6.908c2.494,0,4.197-0.505,5.111-1.513c0.91-1.007,1.367-2.757,1.367-5.253v-13.819h10.363v20.585h16.266
				v10.219h-16.266v53.835h15.113v10.219H2656.486z"/>
			<path fill="#FFFFFF" d="M2736.373,262.566h11.371l-33.25,91.546c-0.863,2.207-1.729,4.053-2.592,5.542
				c-0.863,1.487-1.92,2.664-3.166,3.527c-1.248,0.864-2.807,1.487-4.678,1.871c-1.871,0.383-4.152,0.576-6.838,0.576h-5.902v-10.22
				h11.66l5.613-15.809l-27.781-77.033h11.516l17.85,50.426l3.455,12.069h0.719l4.031-12.069L2736.373,262.566z"/>
			<g>
				<path fill="#FFFFFF" d="M1586.551,477.758l-3.609-11.477h-15.99l-3.547,11.477h-8.641l15.088-45.004h10.574l14.959,45.004
					H1586.551z M1575.074,440.492h-0.322l-5.738,18.504h11.863L1575.074,440.492z"/>
				<path fill="#FFFFFF" d="M1631.877,477.758l-3.611-11.477h-15.99l-3.545,11.477h-8.641l15.088-45.004h10.574l14.957,45.004
					H1631.877z M1620.4,440.492h-0.322l-5.738,18.504h11.863L1620.4,440.492z"/>
				<path fill="#FFFFFF" d="M1675.914,458.738h-18.764v19.02h-8.51v-45.004h8.51v18.439h18.764v-18.439h8.51v45.004h-8.51V458.738z"
					/>
				<path fill="#FFFFFF" d="M1710.795,457.385l-5.996,7.092v13.281h-8.512v-45.004h8.512v22.18h0.322l6.383-8.445l11.154-13.734
					h9.801l-15.668,18.762l16.957,26.242h-10.123L1710.795,457.385z"/>
				<path fill="#FFFFFF" d="M1749.352,432.754v27.66c0,3.525,0.676,6.168,2.031,7.932c1.354,1.762,3.643,2.643,6.865,2.643
					c3.225,0,5.514-0.881,6.867-2.643c1.354-1.764,2.031-4.406,2.031-7.932v-27.66h8.381v26.564c0,3.311-0.311,6.168-0.934,8.574
					c-0.625,2.408-1.623,4.408-2.998,5.998c-1.377,1.59-3.172,2.762-5.385,3.514c-2.215,0.75-4.891,1.127-8.027,1.127
					c-3.182,0-5.857-0.377-8.027-1.127c-2.17-0.752-3.943-1.924-5.318-3.514c-1.377-1.59-2.365-3.59-2.967-5.998
					c-0.602-2.406-0.902-5.264-0.902-8.574v-26.564H1749.352z"/>
				<path fill="#FFFFFF" d="M1801.061,478.531c-3.869,0-7.146-0.688-9.834-2.066c-2.686-1.377-4.996-3.186-6.93-5.426l5.738-5.553
					c1.547,1.791,3.277,3.156,5.189,4.094c1.912,0.939,4.029,1.408,6.352,1.408c2.621,0,4.598-0.564,5.932-1.695
					c1.332-1.131,1.998-2.654,1.998-4.574c0-1.494-0.43-2.709-1.289-3.648c-0.859-0.938-2.473-1.619-4.836-2.047l-4.256-0.639
					c-8.984-1.422-13.475-5.789-13.475-13.105c0-2.023,0.375-3.852,1.129-5.486c0.75-1.637,1.836-3.035,3.256-4.197
					c1.418-1.162,3.127-2.055,5.125-2.68c2-0.623,4.266-0.936,6.803-0.936c3.395,0,6.361,0.561,8.898,1.68
					c2.535,1.121,4.705,2.777,6.512,4.975l-5.803,5.492c-1.119-1.363-2.473-2.473-4.063-3.324c-1.592-0.852-3.59-1.279-5.996-1.279
					c-2.451,0-4.287,0.459-5.514,1.375c-1.225,0.916-1.838,2.205-1.838,3.867c0,1.703,0.494,2.961,1.484,3.771
					c0.988,0.809,2.578,1.406,4.771,1.789l4.189,0.773c4.557,0.818,7.92,2.271,10.092,4.357c2.17,2.088,3.256,5.002,3.256,8.746
					c0,2.152-0.377,4.098-1.129,5.842c-0.752,1.742-1.848,3.248-3.289,4.518c-1.439,1.27-3.201,2.248-5.285,2.938
					C1806.164,478.188,1803.768,478.531,1801.061,478.531z"/>
				<path fill="#FFFFFF" d="M1835.813,432.754v27.66c0,3.525,0.676,6.168,2.031,7.932c1.354,1.762,3.643,2.643,6.865,2.643
					c3.225,0,5.514-0.881,6.867-2.643c1.354-1.764,2.031-4.406,2.031-7.932v-27.66h8.381v26.564c0,3.311-0.311,6.168-0.934,8.574
					c-0.625,2.408-1.623,4.408-2.998,5.998c-1.377,1.59-3.172,2.762-5.385,3.514c-2.215,0.75-4.891,1.127-8.027,1.127
					c-3.182,0-5.857-0.377-8.027-1.127c-2.17-0.752-3.943-1.924-5.318-3.514c-1.377-1.59-2.365-3.59-2.967-5.998
					c-0.602-2.406-0.902-5.264-0.902-8.574v-26.564H1835.813z"/>
			</g>
		</g>
		<g>
			<g>
				<g>
					<path fill="#FFFFFF" d="M1098.199,271.573c-9.105,21.527-14.52,44.145-16.17,67.426c3.588-2.922,8.158-4.68,13.137-4.68
						c5.494,0,10.488,2.154,14.217,5.636c7.338-95.592,87.225-170.871,184.701-170.871c7.553,0,13.674-6.124,13.674-13.676
						c0-7.553-6.121-13.675-13.674-13.675c-28.689,0-56.537,5.625-82.766,16.719c-25.318,10.708-48.053,26.033-67.568,45.549
						C1124.232,223.519,1108.906,246.253,1098.199,271.573z"/>
					<path fill="#FFFFFF" d="M1278.943,538.97c-94.955-7.683-169.672-86.963-170.102-183.798c0-7.55-6.121-13.675-13.676-13.675
						c-7.553,0-13.676,6.125-13.676,13.675c0.109,28.396,5.723,55.956,16.709,81.929c10.707,25.318,26.033,48.053,45.551,67.568
						c19.516,19.518,42.25,34.843,67.568,45.552c21.256,8.991,43.572,14.387,66.539,16.112c-2.887-3.58-4.627-8.124-4.627-13.069
						C1273.23,547.731,1275.414,542.708,1278.943,538.97z"/>
					<path fill="#FFFFFF" d="M1442.285,487.413c-2.67-2.672-6.17-4.006-9.67-4.006c-3.498,0-7,1.334-9.672,4.006
						c-33.342,32.291-78.775,52.175-128.859,52.175c-7.553,0-13.676,6.124-13.676,13.676c0,7.553,6.123,13.675,13.676,13.675
						c28.689,0,56.535-5.625,82.764-16.719c24.408-10.319,46.4-24.947,65.438-43.468
						C1447.629,501.413,1447.629,492.755,1442.285,487.413z"/>
					<path fill="#FFFFFF" d="M1294.084,566.939c-7.553,0-13.676-6.122-13.676-13.675c0-7.553,6.123-13.676,13.676-13.676
						c50.084,0,95.518-19.885,128.859-52.175c2.672-2.672,6.174-4.006,9.672-4.006c3.5,0,7,1.334,9.67,4.006
						c5.344,5.342,5.344,14,0,19.34c-19.037,18.521-41.029,33.148-65.438,43.468
						C1350.619,561.314,1322.773,566.939,1294.084,566.939z M1211.318,550.221c-25.318-10.708-48.053-26.034-67.568-45.552
						c-19.518-19.516-34.844-42.25-45.551-67.568c-10.986-25.973-16.6-53.533-16.709-81.929c0-7.55,6.123-13.675,13.676-13.675
						c7.555,0,13.676,6.125,13.676,13.675c0.43,96.835,75.146,176.115,170.102,183.798c-3.529,3.738-5.713,8.761-5.713,14.294
						c0,4.945,1.74,9.489,4.627,13.069C1254.891,564.608,1232.574,559.211,1211.318,550.221z M1294.084,141.733
						c7.553,0,13.674,6.122,13.674,13.675c0,7.553-6.121,13.676-13.674,13.676c-97.477,0-177.363,75.279-184.701,170.871
						c-3.729-3.482-8.723-5.636-14.217-5.636c-4.979,0-9.549,1.757-13.137,4.68c1.65-23.281,7.064-45.898,16.17-67.426
						c10.707-25.32,26.033-48.055,45.551-67.572c19.516-19.516,42.25-34.84,67.568-45.549
						C1237.547,147.358,1265.395,141.733,1294.084,141.733z"/>
				</g>
				<g>
					<g>
						<g>
							<path fill="#FFFFFF" d="M1406.67,241.751c-30.07-30.073-70.055-46.633-112.586-46.633c-42.527,0-82.514,16.56-112.584,46.633
								c-30.072,30.072-46.637,70.057-46.637,112.585c0,42.53,16.564,82.512,46.637,112.587
								c30.07,30.07,70.057,46.634,112.584,46.634c42.531,0,82.516-16.564,112.586-46.634
								c30.072-30.075,46.633-70.057,46.633-112.587C1453.303,311.808,1436.742,271.823,1406.67,241.751z"/>
							<path fill="#333E48" d="M1181.873,405.827V302.849h22.334v7.611h-12.945v87.753h12.945v7.614H1181.873z"/>
							<path fill="#333E48" d="M1406.295,302.849v102.978h-22.328v-7.614h12.938v-87.753h-12.938v-7.611H1406.295z"/>
							<path fill="#00C2F3" d="M1233.744,375.256c0,2.057,0.031,4.485,0.096,7.272c0.063,2.79,0.15,5.624,0.26,8.496
								c0.105,2.875,0.232,5.623,0.387,8.24c0.146,2.617,0.33,4.805,0.545,6.563h-13.193v-72.73c0-6.263-0.107-11.938-0.322-17.023
								c-0.213-5.087-0.535-9.495-0.967-13.225h13.195V375.256z"/>
							<path fill="#00C2F3" d="M1291.35,340.176v8.434h-12.1v48.787h12.1v8.432h-36.041v-8.432h11.906V348.61h-11.906v-8.434
								H1291.35z"/>
							<path fill="#00C2F3" d="M1318.385,340.176c0.256,0.688,0.514,1.577,0.771,2.674c0.26,1.093,0.492,2.24,0.709,3.441
								c0.211,1.201,0.404,2.383,0.58,3.542l0.512,2.892c4.121-4.89,8.26-8.417,12.422-10.585c4.164-2.167,8.5-3.25,13.002-3.25
								c3.434,0,6.471,0.568,9.107,1.705c2.641,1.141,4.861,2.942,6.664,5.407c1.799,2.469,3.162,5.668,4.088,9.591
								c0.922,3.927,1.383,8.654,1.383,14.194v28.96c0,7.252-0.635,13.273-1.9,18.055c-1.264,4.786-3.037,8.604-5.309,11.46
								c-2.273,2.85-5.012,4.867-8.207,6.047c-3.197,1.18-6.748,1.771-10.652,1.771c-1.932,0-4.002-0.312-6.211-0.934
								c-2.209-0.625-4.215-1.492-6.018-2.607l4.184-9.656c0.986,0.73,2.305,1.341,3.959,1.836c1.65,0.492,3.336,0.738,5.049,0.738
								c2.063,0,3.908-0.33,5.539-0.996c1.631-0.665,3.012-1.833,4.15-3.506c1.137-1.676,2.006-3.97,2.607-6.888
								c0.6-2.918,0.9-6.631,0.9-11.135v-28.321c0-5.149-0.268-9.322-0.805-12.52c-0.535-3.196-1.344-5.686-2.416-7.465
								c-1.07-1.781-2.412-2.973-4.023-3.576c-1.605-0.598-3.484-0.898-5.629-0.898c-2.316,0-4.578,0.547-6.789,1.644
								c-2.209,1.092-4.24,2.508-6.086,4.247c-1.844,1.736-3.475,3.697-4.889,5.889c-1.416,2.189-2.469,4.375-3.156,6.564v37.332
								h-11.906v-39.584c0-6.35-0.365-11.725-1.096-16.123c-0.727-4.398-1.438-7.715-2.123-9.946H1318.385z"/>
						</g>
					</g>
				</g>
			</g>
		</g>
	</g>
</g>
</svg>
