<?xml version="1.0" encoding="utf-8"?>
<!-- Generator: Adobe Illustrator 16.0.0, SVG Export Plug-In . SVG Version: 6.00 Build 0)  -->
<!DOCTYPE svg PUBLIC "-//W3C//DTD SVG 1.0//EN" "http://www.w3.org/TR/2001/REC-SVG-20010904/DTD/svg10.dtd">
<svg version="1.0" id="Logotypes" xmlns="http://www.w3.org/2000/svg" xmlns:xlink="http://www.w3.org/1999/xlink" x="0px" y="0px"
	 width="1958.72px" height="708.673px" viewBox="0 0 1958.72 708.673" enable-background="new 0 0 1958.72 708.673"
	 xml:space="preserve">
<g>
	<defs>
		<rect id="SVGID_43_" width="1958.72" height="708.674"/>
	</defs>
	<clipPath id="SVGID_2_">
		<use xlink:href="#SVGID_43_"  overflow="visible"/>
	</clipPath>
	<g clip-path="url(#SVGID_2_)">
		<g>
			<g>
				<g>
					<path fill="#FFFFFF" d="M158.441,271.574c-9.105,21.527-14.52,44.145-16.171,67.426c3.589-2.922,8.16-4.68,13.138-4.68
						c5.495,0,10.487,2.152,14.217,5.637c7.338-95.594,87.225-170.873,184.701-170.873c7.553,0,13.675-6.123,13.675-13.676
						s-6.122-13.676-13.675-13.676c-28.689,0-56.536,5.625-82.767,16.719c-25.317,10.711-48.051,26.033-67.566,45.551
						C184.475,223.52,169.148,246.252,158.441,271.574z"/>
					<path fill="#FFFFFF" d="M339.186,538.971c-94.955-7.684-169.673-86.965-170.102-183.797c0-7.553-6.12-13.676-13.676-13.676
						c-7.553,0-13.676,6.123-13.676,13.676c0.109,28.395,5.722,55.953,16.709,81.926c10.707,25.32,26.033,48.055,45.552,67.57
						c19.516,19.518,42.249,34.842,67.566,45.553c21.257,8.988,43.574,14.385,66.54,16.109c-2.887-3.578-4.627-8.121-4.627-13.066
						C333.473,547.73,335.656,542.707,339.186,538.971z"/>
					<path fill="#FFFFFF" d="M502.527,487.412c-2.67-2.67-6.169-4.004-9.669-4.004c-3.499,0-7.001,1.334-9.672,4.004
						c-33.343,32.293-78.777,52.178-128.86,52.178c-7.553,0-13.676,6.123-13.676,13.676s6.123,13.676,13.676,13.676
						c28.69,0,56.534-5.625,82.764-16.719c24.407-10.322,46.401-24.949,65.438-43.469
						C507.871,501.414,507.871,492.754,502.527,487.412z"/>
					<path fill="#FFFFFF" d="M354.326,566.941c-7.553,0-13.676-6.123-13.676-13.676s6.123-13.676,13.676-13.676
						c50.083,0,95.518-19.884,128.86-52.178c2.671-2.67,6.173-4.004,9.672-4.004c3.5,0,6.999,1.334,9.669,4.004
						c5.344,5.342,5.344,14.002,0,19.342c-19.036,18.52-41.03,33.146-65.438,43.469C410.86,561.316,383.017,566.941,354.326,566.941
						z M271.56,550.223c-25.317-10.711-48.051-26.035-67.566-45.553c-19.519-19.516-34.845-42.25-45.552-67.57
						c-10.987-25.973-16.6-53.531-16.709-81.926c0-7.553,6.123-13.676,13.676-13.676c7.556,0,13.676,6.123,13.676,13.676
						c0.429,96.832,75.146,176.113,170.102,183.797c-3.529,3.736-5.713,8.76-5.713,14.295c0,4.945,1.74,9.488,4.627,13.066
						C315.134,564.607,292.816,559.211,271.56,550.223z M354.326,141.732c7.553,0,13.675,6.123,13.675,13.676
						s-6.122,13.676-13.675,13.676c-97.477,0-177.363,75.279-184.701,170.873c-3.729-3.484-8.722-5.637-14.217-5.637
						c-4.978,0-9.549,1.758-13.138,4.68c1.651-23.281,7.065-45.898,16.171-67.426c10.707-25.322,26.033-48.054,45.552-67.572
						c19.516-19.518,42.249-34.84,67.566-45.551C297.79,147.357,325.637,141.732,354.326,141.732z"/>
				</g>
				<g>
					<g>
						<g>
							<path fill="#FFFFFF" d="M466.913,241.75c-30.071-30.07-70.057-46.63-112.587-46.63c-42.528,0-82.514,16.56-112.584,46.63
								c-30.072,30.074-46.637,70.059-46.637,112.588s16.564,82.51,46.637,112.584c30.07,30.072,70.056,46.636,112.584,46.636
								c42.53,0,82.516-16.564,112.587-46.636c30.072-30.075,46.632-70.055,46.632-112.584S496.985,271.824,466.913,241.75z"/>
							<path fill="#333E48" d="M242.116,405.826V302.848h22.333v7.613h-12.945v87.754h12.945v7.611H242.116z"/>
							<path fill="#333E48" d="M466.538,302.848v102.979h-22.33v-7.611h12.939v-87.754h-12.939v-7.613H466.538z"/>
							<path fill="#00C2F3" d="M293.986,375.258c0,2.057,0.032,4.484,0.095,7.271c0.063,2.789,0.151,5.623,0.26,8.496
								c0.106,2.873,0.234,5.621,0.387,8.238c0.147,2.617,0.331,4.805,0.545,6.563h-13.193v-72.73
								c0-6.264-0.106-11.938-0.322-17.021c-0.213-5.085-0.535-9.496-0.966-13.227h13.195V375.258z"/>
							<path fill="#00C2F3" d="M351.593,340.178v8.434h-12.101v48.785h12.101v8.432h-36.042v-8.432h11.906v-48.785h-11.906v-8.434
								H351.593z"/>
							<path fill="#00C2F3" d="M378.627,340.178c0.257,0.688,0.515,1.576,0.771,2.674c0.261,1.092,0.492,2.238,0.709,3.441
								c0.212,1.201,0.405,2.381,0.58,3.539l0.512,2.895c4.121-4.891,8.26-8.418,12.423-10.586c4.162-2.166,8.499-3.25,13.002-3.25
								c3.434,0,6.47,0.568,9.107,1.705c2.639,1.139,4.86,2.941,6.663,5.406c1.8,2.469,3.161,5.666,4.087,9.592
								c0.923,3.926,1.383,8.654,1.383,14.193v28.959c0,7.252-0.634,13.273-1.9,18.055c-1.263,4.787-3.036,8.605-5.309,11.461
								c-2.272,2.85-5.011,4.869-8.207,6.047c-3.196,1.182-6.747,1.771-10.652,1.771c-1.93,0-4.001-0.313-6.21-0.934
								c-2.209-0.623-4.215-1.49-6.018-2.607l4.184-9.654c0.987,0.73,2.306,1.34,3.958,1.836c1.651,0.492,3.337,0.738,5.05,0.738
								c2.063,0,3.907-0.332,5.54-0.996c1.629-0.666,3.012-1.834,4.148-3.507c1.138-1.674,2.007-3.969,2.608-6.887
								c0.6-2.92,0.9-6.631,0.9-11.137v-28.318c0-5.15-0.269-9.324-0.805-12.52c-0.536-3.197-1.343-5.688-2.415-7.467
								c-1.071-1.779-2.413-2.971-4.024-3.574c-1.606-0.597-3.483-0.898-5.63-0.898c-2.316,0-4.577,0.547-6.788,1.643
								c-2.208,1.092-4.24,2.51-6.085,4.248c-1.845,1.734-3.475,3.697-4.89,5.889c-1.415,2.188-2.468,4.375-3.156,6.564v37.33
								h-11.905v-39.582c0-6.352-0.366-11.727-1.096-16.125c-0.728-4.398-1.438-7.713-2.124-9.943H378.627z"/>
						</g>
					</g>
				</g>
			</g>
		</g>
		<g>
			<path fill="#FFFFFF" d="M626.666,336.839V236.368h12.091v89.819h42.751v10.652H626.666z"/>
			<path fill="#FFFFFF" d="M703.386,245.148c-2.497,0-4.296-0.598-5.398-1.799c-1.104-1.199-1.655-2.757-1.655-4.678V236.8
				c0-1.918,0.551-3.478,1.655-4.678c1.102-1.199,2.901-1.799,5.398-1.799c2.494,0,4.293,0.601,5.397,1.799
				c1.103,1.201,1.655,2.76,1.655,4.678v1.871c0,1.921-0.553,3.479-1.655,4.678C707.679,244.55,705.88,245.148,703.386,245.148z
				 M697.628,262.566h11.516v74.273h-11.516V262.566z"/>
			<path fill="#FFFFFF" d="M733.613,336.839v-74.273h11.516v11.954h0.576c1.822-4.179,4.39-7.506,7.701-9.975
				c3.311-2.47,7.748-3.707,13.314-3.707c7.676,0,13.747,2.471,18.209,7.413c4.462,4.943,6.693,11.925,6.693,20.944v47.645h-11.515
				v-45.729c0-13.369-5.614-20.052-16.841-20.052c-2.303,0-4.535,0.29-6.694,0.865c-2.159,0.578-4.102,1.444-5.83,2.598
				c-1.727,1.153-3.095,2.62-4.102,4.399s-1.511,3.871-1.511,6.275v51.644H733.613z"/>
			<path fill="#FFFFFF" d="M874.388,334.393c0,10.267-2.879,18.328-8.637,24.182c-5.758,5.853-13.868,8.781-24.326,8.781
				c-6.046,0-11.252-0.94-15.618-2.818c-4.368-1.882-7.989-4.363-10.868-7.447l6.765-7.952c2.495,2.568,5.373,4.545,8.637,5.926
				c3.261,1.381,7.053,2.071,11.371,2.071c6.716,0,11.923-1.855,15.618-5.563c3.693-3.714,5.542-9.184,5.542-16.412v-10.274h-0.576
				c-2.208,4.561-5.087,7.979-8.636,10.26c-3.552,2.281-7.917,3.421-13.099,3.421c-4.606,0-8.78-0.914-12.523-2.735
				c-3.742-1.822-6.909-4.413-9.5-7.773c-2.591-3.358-4.606-7.436-6.046-12.235c-1.439-4.797-2.159-10.171-2.159-16.122
				c0-5.949,0.719-11.322,2.159-16.122c1.439-4.797,3.455-8.875,6.046-12.235c2.591-3.358,5.758-5.949,9.5-7.773
				c3.743-1.822,7.917-2.734,12.523-2.734c5.182,0,9.619,1.118,13.315,3.349c3.692,2.233,6.5,5.677,8.42,10.333h0.576v-11.954
				h11.516V334.393z M844.016,328.347c2.591,0,5.038-0.338,7.341-1.013s4.293-1.665,5.973-2.966c1.678-1.3,3.023-2.893,4.031-4.772
				c1.007-1.88,1.511-4.075,1.511-6.583V285.38c0-2.024-0.481-3.929-1.439-5.715c-0.96-1.783-2.303-3.301-4.03-4.556
				c-1.728-1.253-3.742-2.24-6.045-2.964s-4.75-1.086-7.341-1.086c-6.527,0-11.708,2.073-15.545,6.221
				c-3.839,4.147-5.758,9.5-5.758,16.058v12.73c0,6.558,1.918,11.911,5.758,16.059C832.307,326.273,837.489,328.347,844.016,328.347
				z"/>
			<path fill="#FFFFFF" d="M944.629,324.886h-0.576c-0.769,1.711-1.705,3.398-2.807,5.061c-1.104,1.662-2.472,3.135-4.102,4.417
				c-1.633,1.282-3.599,2.304-5.902,3.064s-4.991,1.14-8.061,1.14c-7.678,0-13.771-2.47-18.28-7.414
				c-4.512-4.941-6.766-11.922-6.766-20.943v-47.645h11.516v45.728c0,13.369,5.661,20.053,16.985,20.053
				c2.303,0,4.535-0.288,6.694-0.867c2.159-0.575,4.077-1.441,5.757-2.595c1.678-1.154,3.023-2.62,4.03-4.399
				c1.008-1.779,1.511-3.92,1.511-6.421v-51.499h11.516v74.273h-11.516V324.886z"/>
			<path fill="#FFFFFF" d="M986.371,245.148c-2.496,0-4.295-0.598-5.397-1.799c-1.104-1.199-1.655-2.757-1.655-4.678V236.8
				c0-1.918,0.551-3.478,1.655-4.678c1.102-1.199,2.901-1.799,5.397-1.799c2.495,0,4.294,0.601,5.398,1.799
				c1.102,1.201,1.655,2.76,1.655,4.678v1.871c0,1.921-0.553,3.479-1.655,4.678C990.665,244.55,988.866,245.148,986.371,245.148z
				 M980.614,262.566h11.515v74.273h-11.515V262.566z"/>
			<path fill="#FFFFFF" d="M1038.91,338.567c-6.909,0-12.692-1.32-17.345-3.958c-4.656-2.638-8.662-6.165-12.02-10.58l8.205-6.621
				c2.879,3.648,6.093,6.455,9.644,8.42c3.549,1.968,7.677,2.951,12.379,2.951c4.894,0,8.708-1.055,11.443-3.167
				c2.735-2.11,4.103-5.086,4.103-8.925c0-2.879-0.936-5.348-2.807-7.413c-1.872-2.063-5.254-3.477-10.148-4.246l-5.902-0.864
				c-3.455-0.479-6.621-1.223-9.5-2.231s-5.397-2.351-7.557-4.03c-2.159-1.678-3.84-3.765-5.038-6.262
				c-1.201-2.494-1.799-5.469-1.799-8.924c0-3.646,0.67-6.837,2.015-9.573c1.343-2.735,3.189-5.013,5.542-6.836
				c2.35-1.822,5.157-3.19,8.42-4.103c3.262-0.911,6.766-1.368,10.508-1.368c6.045,0,11.106,1.057,15.186,3.167
				c4.078,2.112,7.652,5.038,10.724,8.78l-7.629,6.909c-1.633-2.303-4.03-4.39-7.197-6.261c-3.167-1.871-7.15-2.807-11.947-2.807
				c-4.8,0-8.421,1.032-10.868,3.095c-2.447,2.064-3.67,4.871-3.67,8.42c0,3.648,1.224,6.286,3.67,7.917
				c2.447,1.633,5.974,2.831,10.58,3.598l5.758,0.864c8.252,1.248,14.106,3.624,17.561,7.125c3.455,3.504,5.183,8.085,5.183,13.746
				c0,7.197-2.447,12.861-7.341,16.986C1054.168,336.505,1047.45,338.567,1038.91,338.567z"/>
			<path fill="#FFFFFF" d="M1102.102,336.839c-4.03,0-7.078-1.125-9.14-3.374c-2.064-2.249-3.095-5.195-3.095-8.834v-51.846h-12.235
				v-10.219h6.91c2.494,0,4.197-0.504,5.11-1.512c0.911-1.007,1.367-2.757,1.367-5.253v-13.819h10.364v20.584h16.266v10.219h-16.266
				v53.835h15.114v10.219H1102.102z"/>
			<path fill="#FFFFFF" d="M1141.974,245.148c-2.496,0-4.296-0.598-5.397-1.799c-1.104-1.199-1.655-2.757-1.655-4.678V236.8
				c0-1.918,0.551-3.478,1.655-4.678c1.102-1.199,2.901-1.799,5.397-1.799c2.495,0,4.294,0.601,5.398,1.799
				c1.102,1.201,1.655,2.76,1.655,4.678v1.871c0,1.921-0.553,3.479-1.655,4.678C1146.268,244.55,1144.468,245.148,1141.974,245.148z
				 M1136.216,262.566h11.516v74.273h-11.516V262.566z"/>
			<path fill="#FFFFFF" d="M1199.838,338.567c-5.182,0-9.837-0.914-13.962-2.735c-4.127-1.822-7.606-4.413-10.436-7.773
				c-2.832-3.358-4.991-7.436-6.478-12.235c-1.489-4.797-2.231-10.171-2.231-16.122c0-5.949,0.742-11.322,2.231-16.122
				c1.486-4.797,3.646-8.875,6.478-12.235c2.829-3.358,6.309-5.949,10.436-7.773c4.125-1.822,8.781-2.734,13.962-2.734
				c7.388,0,13.315,1.608,17.777,4.822c4.462,3.216,7.795,7.413,10.004,12.595l-9.644,4.895c-1.345-3.837-3.551-6.813-6.621-8.925
				c-3.073-2.11-6.91-3.166-11.516-3.166c-3.455,0-6.477,0.553-9.068,1.655c-2.591,1.104-4.75,2.64-6.478,4.606
				c-1.727,1.968-3.023,4.318-3.886,7.053c-0.863,2.735-1.296,5.735-1.296,8.996v12.667c0,6.527,1.75,11.875,5.254,16.05
				c3.501,4.174,8.659,6.262,15.474,6.262c9.307,0,16.025-4.319,20.152-12.956l8.349,5.614c-2.399,5.375-5.974,9.644-10.724,12.811
				C1212.865,336.983,1206.939,338.567,1199.838,338.567z"/>
			<path fill="#FFFFFF" d="M1266.914,338.567c-6.909,0-12.692-1.32-17.345-3.958c-4.656-2.638-8.662-6.165-12.02-10.58l8.205-6.621
				c2.879,3.648,6.093,6.455,9.644,8.42c3.549,1.968,7.676,2.951,12.379,2.951c4.894,0,8.708-1.055,11.443-3.167
				c2.735-2.11,4.103-5.086,4.103-8.925c0-2.879-0.936-5.348-2.807-7.413c-1.872-2.063-5.254-3.477-10.148-4.246l-5.902-0.864
				c-3.455-0.479-6.621-1.223-9.5-2.231s-5.397-2.351-7.557-4.03c-2.159-1.678-3.84-3.765-5.038-6.262
				c-1.201-2.494-1.799-5.469-1.799-8.924c0-3.646,0.67-6.837,2.015-9.573c1.343-2.735,3.189-5.013,5.542-6.836
				c2.35-1.822,5.157-3.19,8.42-4.103c3.261-0.911,6.766-1.368,10.508-1.368c6.045,0,11.106,1.057,15.186,3.167
				c4.078,2.112,7.652,5.038,10.724,8.78l-7.629,6.909c-1.633-2.303-4.03-4.39-7.197-6.261c-3.167-1.871-7.149-2.807-11.947-2.807
				c-4.8,0-8.421,1.032-10.868,3.095c-2.447,2.064-3.67,4.871-3.67,8.42c0,3.648,1.224,6.286,3.67,7.917
				c2.447,1.633,5.974,2.831,10.58,3.598l5.758,0.864c8.252,1.248,14.106,3.624,17.561,7.125c3.455,3.504,5.182,8.085,5.182,13.746
				c0,7.197-2.447,12.861-7.341,16.986C1282.172,336.505,1275.454,338.567,1266.914,338.567z"/>
			<path fill="#FFFFFF" d="M1378.036,338.567c-8.157,0-15.114-1.561-20.872-4.678c-5.757-3.117-10.651-7.414-14.682-12.883
				l8.924-7.485c3.549,4.703,7.485,8.277,11.803,10.724c4.318,2.447,9.403,3.67,15.258,3.67c7.197,0,12.689-1.728,16.481-5.182
				c3.79-3.455,5.686-8.061,5.686-13.819c0-4.797-1.439-8.492-4.318-11.083c-2.878-2.591-7.629-4.654-14.25-6.19l-8.205-1.871
				c-9.212-2.11-16.243-5.301-21.087-9.572c-4.847-4.269-7.27-10.292-7.27-18.065c0-4.413,0.814-8.349,2.447-11.803
				c1.631-3.455,3.909-6.333,6.837-8.636c2.926-2.304,6.428-4.054,10.507-5.254c4.078-1.199,8.565-1.799,13.459-1.799
				c7.579,0,14.081,1.392,19.504,4.175c5.42,2.784,10.004,6.861,13.747,12.235l-9.068,6.621c-2.785-3.837-6.143-6.86-10.076-9.068
				c-3.936-2.207-8.83-3.311-14.683-3.311c-6.43,0-11.493,1.367-15.186,4.102c-3.695,2.736-5.542,6.837-5.542,12.307
				c0,4.8,1.559,8.421,4.678,10.868c3.117,2.447,7.845,4.391,14.178,5.83l8.204,1.871c9.883,2.208,17.033,5.566,21.448,10.076
				c4.413,4.511,6.621,10.508,6.621,17.993c0,4.606-0.792,8.78-2.375,12.523c-1.583,3.742-3.864,6.91-6.837,9.5
				c-2.976,2.591-6.599,4.606-10.868,6.045C1388.231,337.847,1383.409,338.567,1378.036,338.567z"/>
			<path fill="#FFFFFF" d="M1460.37,338.567c-4.991,0-9.55-0.914-13.675-2.735c-4.127-1.822-7.654-4.438-10.58-7.845
				c-2.928-3.405-5.207-7.484-6.837-12.235c-1.633-4.75-2.447-10.099-2.447-16.049c0-5.852,0.814-11.178,2.447-15.978
				c1.631-4.797,3.909-8.899,6.837-12.307c2.926-3.405,6.453-6.021,10.58-7.845c4.125-1.822,8.684-2.734,13.675-2.734
				c4.988,0,9.522,0.913,13.603,2.734c4.077,1.824,7.604,4.44,10.579,7.845c2.974,3.407,5.277,7.51,6.91,12.307
				c1.63,4.8,2.447,10.126,2.447,15.978c0,5.951-0.816,11.299-2.447,16.049c-1.633,4.75-3.936,8.83-6.91,12.235
				c-2.975,3.407-6.502,6.023-10.579,7.845C1469.893,337.653,1465.358,338.567,1460.37,338.567z M1460.37,328.347
				c6.236,0,11.322-1.918,15.258-5.758c3.934-3.836,5.901-9.691,5.901-17.561v-10.652c0-7.867-1.968-13.722-5.901-17.561
				c-3.936-3.836-9.021-5.757-15.258-5.757c-6.239,0-11.324,1.92-15.258,5.757c-3.937,3.839-5.902,9.694-5.902,17.561v10.652
				c0,7.87,1.965,13.724,5.902,17.561C1449.046,326.429,1454.131,328.347,1460.37,328.347z"/>
			<path fill="#FFFFFF" d="M1540.545,338.567c-5.182,0-9.837-0.914-13.962-2.735c-4.127-1.822-7.606-4.413-10.436-7.773
				c-2.832-3.358-4.991-7.436-6.477-12.235c-1.489-4.797-2.231-10.171-2.231-16.122c0-5.949,0.742-11.322,2.231-16.122
				c1.486-4.797,3.646-8.875,6.477-12.235c2.83-3.358,6.309-5.949,10.436-7.773c4.125-1.822,8.78-2.734,13.962-2.734
				c7.388,0,13.314,1.608,17.776,4.822c4.462,3.216,7.795,7.413,10.004,12.595l-9.645,4.895c-1.345-3.837-3.551-6.813-6.621-8.925
				c-3.072-2.11-6.909-3.166-11.515-3.166c-3.455,0-6.478,0.553-9.069,1.655c-2.591,1.104-4.75,2.64-6.477,4.606
				c-1.727,1.968-3.023,4.318-3.886,7.053c-0.864,2.735-1.296,5.735-1.296,8.996v12.667c0,6.527,1.75,11.875,5.254,16.05
				c3.502,4.174,8.659,6.262,15.474,6.262c9.306,0,16.025-4.319,20.152-12.956l8.349,5.614c-2.4,5.375-5.974,9.644-10.724,12.811
				C1553.572,336.983,1547.646,338.567,1540.545,338.567z"/>
			<path fill="#FFFFFF" d="M1591.067,245.148c-2.497,0-4.296-0.598-5.397-1.799c-1.104-1.199-1.655-2.757-1.655-4.678V236.8
				c0-1.918,0.551-3.478,1.655-4.678c1.102-1.199,2.9-1.799,5.397-1.799c2.494,0,4.294,0.601,5.397,1.799
				c1.103,1.201,1.656,2.76,1.656,4.678v1.871c0,1.921-0.554,3.479-1.656,4.678C1595.361,244.55,1593.562,245.148,1591.067,245.148z
				 M1585.31,262.566h11.516v74.273h-11.516V262.566z"/>
			<path fill="#FFFFFF" d="M1649.22,338.567c-5.087,0-9.669-0.914-13.746-2.735c-4.08-1.822-7.582-4.438-10.508-7.845
				c-2.929-3.405-5.182-7.484-6.766-12.235c-1.583-4.75-2.374-10.099-2.374-16.049c0-5.852,0.791-11.178,2.374-15.978
				c1.584-4.797,3.837-8.899,6.766-12.307c2.926-3.405,6.428-6.021,10.508-7.845c4.077-1.822,8.659-2.734,13.746-2.734
				c4.989,0,9.451,0.908,13.387,2.726c3.934,1.817,7.292,4.33,10.076,7.532c2.782,3.203,4.917,7.004,6.405,11.403
				c1.486,4.399,2.231,9.228,2.231,14.486v5.452h-53.403v3.455c0,3.167,0.504,6.117,1.512,8.853c1.008,2.734,2.447,5.11,4.318,7.125
				c1.871,2.016,4.174,3.599,6.909,4.751c2.735,1.152,5.83,1.727,9.284,1.727c4.701,0,8.803-1.103,12.308-3.311
				c3.501-2.206,6.212-5.373,8.132-9.5l8.205,5.939c-2.399,5.119-6.143,9.246-11.228,12.384
				C1662.27,336.997,1656.224,338.567,1649.22,338.567z M1649.22,270.482c-3.167,0-6.045,0.549-8.636,1.646
				c-2.592,1.098-4.822,2.647-6.693,4.648c-1.871,2.002-3.336,4.363-4.391,7.081c-1.057,2.719-1.584,5.699-1.584,8.942v1.001h41.023
				v-1.575c0-6.581-1.799-11.848-5.397-15.806C1659.943,272.462,1655.169,270.482,1649.22,270.482z"/>
			<path fill="#FFFFFF" d="M1716.729,336.839c-4.031,0-7.078-1.125-9.141-3.374c-2.064-2.249-3.095-5.195-3.095-8.834v-51.846
				h-12.235v-10.219h6.909c2.494,0,4.197-0.504,5.11-1.512c0.91-1.007,1.367-2.757,1.367-5.253v-13.819h10.363v20.584h16.266v10.219
				h-16.266v53.835h15.114v10.219H1716.729z"/>
			<path fill="#FFFFFF" d="M1796.615,262.566h11.372l-33.251,91.546c-0.863,2.207-1.728,4.053-2.591,5.542
				c-0.864,1.487-1.921,2.664-3.167,3.527c-1.248,0.864-2.807,1.487-4.678,1.871c-1.871,0.382-4.152,0.576-6.838,0.576h-5.901
				v-10.22h11.659l5.614-15.809l-27.781-77.033h11.516l17.849,50.426l3.455,12.069h0.719l4.031-12.069L1796.615,262.566z"/>
			<g>
				<path fill="#FFFFFF" d="M646.794,477.758l-3.61-11.477h-15.99l-3.546,11.477h-8.641l15.088-45.004h10.574l14.958,45.004H646.794
					z M635.317,440.492h-0.322l-5.738,18.504h11.863L635.317,440.492z"/>
				<path fill="#FFFFFF" d="M692.119,477.758l-3.61-11.477h-15.99l-3.546,11.477h-8.641l15.088-45.004h10.574l14.958,45.004H692.119
					z M680.643,440.492h-0.322l-5.738,18.504h11.863L680.643,440.492z"/>
				<path fill="#FFFFFF" d="M736.156,458.739h-18.763v19.019h-8.511v-45.004h8.511v18.439h18.763v-18.439h8.511v45.004h-8.511
					V458.739z"/>
				<path fill="#FFFFFF" d="M771.037,457.385l-5.996,7.092v13.281h-8.511v-45.004h8.511v22.18h0.322l6.383-8.445l11.154-13.735
					h9.801l-15.668,18.762l16.957,26.242h-10.122L771.037,457.385z"/>
				<path fill="#FFFFFF" d="M809.594,432.754v27.66c0,3.525,0.677,6.168,2.031,7.932c1.354,1.762,3.643,2.643,6.866,2.643
					s5.513-0.881,6.867-2.643c1.354-1.764,2.03-4.406,2.03-7.932v-27.66h8.382v26.564c0,3.311-0.312,6.168-0.935,8.574
					c-0.624,2.408-1.623,4.408-2.998,5.998c-1.376,1.59-3.171,2.762-5.384,3.514c-2.215,0.75-4.891,1.127-8.027,1.127
					c-3.182,0-5.857-0.377-8.027-1.127c-2.171-0.752-3.944-1.924-5.319-3.514c-1.376-1.59-2.364-3.59-2.966-5.998
					c-0.603-2.406-0.902-5.264-0.902-8.574v-26.564H809.594z"/>
				<path fill="#FFFFFF" d="M861.303,478.531c-3.868,0-7.146-0.688-9.833-2.066c-2.687-1.377-4.996-3.186-6.931-5.426l5.738-5.553
					c1.548,1.791,3.277,3.156,5.19,4.094c1.912,0.939,4.029,1.409,6.351,1.409c2.621,0,4.599-0.565,5.932-1.696
					c1.332-1.131,1.999-2.654,1.999-4.574c0-1.494-0.43-2.709-1.289-3.648c-0.86-0.938-2.473-1.619-4.836-2.047l-4.256-0.639
					c-8.984-1.422-13.476-5.789-13.476-13.105c0-2.023,0.376-3.852,1.129-5.486c0.751-1.637,1.837-3.035,3.256-4.197
					s3.127-2.055,5.126-2.68c1.999-0.623,4.266-0.936,6.802-0.936c3.396,0,6.361,0.561,8.898,1.68
					c2.535,1.121,4.706,2.777,6.512,4.975l-5.803,5.492c-1.118-1.363-2.473-2.473-4.063-3.324c-1.591-0.852-3.589-1.279-5.996-1.279
					c-2.45,0-4.287,0.459-5.513,1.375c-1.225,0.916-1.838,2.205-1.838,3.867c0,1.703,0.494,2.961,1.483,3.771
					c0.988,0.809,2.579,1.406,4.771,1.789l4.19,0.773c4.556,0.818,7.92,2.271,10.091,4.357c2.17,2.088,3.256,5.002,3.256,8.746
					c0,2.152-0.377,4.098-1.128,5.842c-0.753,1.742-1.849,3.248-3.289,4.518s-3.202,2.248-5.286,2.938
					C866.406,478.188,864.011,478.531,861.303,478.531z"/>
				<path fill="#FFFFFF" d="M896.055,432.754v27.66c0,3.525,0.677,6.168,2.031,7.932c1.354,1.762,3.643,2.643,6.866,2.643
					s5.513-0.881,6.867-2.643c1.354-1.764,2.03-4.406,2.03-7.932v-27.66h8.382v26.564c0,3.311-0.312,6.168-0.935,8.574
					c-0.624,2.408-1.623,4.408-2.998,5.998c-1.376,1.59-3.171,2.762-5.384,3.514c-2.215,0.75-4.891,1.127-8.027,1.127
					c-3.182,0-5.857-0.377-8.027-1.127c-2.171-0.752-3.944-1.924-5.319-3.514c-1.376-1.59-2.364-3.59-2.966-5.998
					c-0.603-2.406-0.902-5.264-0.902-8.574v-26.564H896.055z"/>
			</g>
		</g>
	</g>
</g>
</svg>
