<svg xmlns="http://www.w3.org/2000/svg" xmlns:xlink="http://www.w3.org/1999/xlink" viewBox="0 0 632.0234 729.4477"><defs><clipPath id="a"><rect width="632.0234" height="729.4477" fill="none"/></clipPath></defs><g clip-path="url(#a)"><path d="M77.705,170.7471a6.83649,6.83649,0,0,1,6.8379,6.8369c-.0019-.1397-.0058-.2783-.0058-.419a92.623,92.623,0,0,1,92.623-92.623,6.8379,6.8379,0,0,0,0-13.6758A106.22218,106.22218,0,0,0,70.8613,177.165c0,.1407.0039.2793.0059.419A6.83647,6.83647,0,0,1,77.705,170.7471Z" fill="#ee212e"/><path d="M170.3242,276.6269a6.8369,6.8369,0,0,1,6.8359-6.8378A92.6175,92.6175,0,0,1,84.5429,177.584a6.83785,6.83785,0,0,0-13.6757,0A106.21512,106.21512,0,0,0,177.1601,283.4648,6.83692,6.83692,0,0,1,170.3242,276.6269Z" fill="#46bc96"/><path d="M251.2597,243.7021a6.83651,6.83651,0,0,0-9.6699,0,92.31493,92.31493,0,0,1-64.4297,26.087,6.83785,6.83785,0,0,0,0,13.6757,105.94936,105.94936,0,0,0,74.0996-30.0918A6.83591,6.83591,0,0,0,251.2597,243.7021Z" fill="#00c2f3"/><path d="M233.4531,120.874a79.61376,79.61376,0,1,0,23.3144,56.291A79.08894,79.08894,0,0,0,233.4531,120.874Z" fill="#00c2f3"/><path d="M121.0566,202.9101V151.4209h11.168v3.8066h-6.4727v43.877h6.4727v3.8056Z" fill="#333e48"/><path d="M233.2656,151.4209v51.4892H222.1015v-3.8056h6.4688v-43.877h-6.4688v-3.8066Z" fill="#333e48"/><path d="M146.9922,187.625q0,1.54245.0468,3.6357.047,2.0919.1309,4.2481.079,2.15625.1934,4.1201.1083,1.9629.2714,3.2812H141.039V166.5459q0-4.6992-.1621-8.5117-.1581-3.8145-.4824-6.6133h6.5977Z" fill="#fff"/><path d="M175.7949,170.085v4.2167h-6.0508v24.3936h6.0508v4.2158H157.7734v-4.2158h5.9531V174.3017h-5.9531V170.085Z" fill="#fff"/><path d="M189.3105,170.085a11.28909,11.28909,0,0,1,.3867,1.3378q.19335.81885.3536,1.7207.1581.89955.291,1.7696l.2558,1.4472a21.20423,21.20423,0,0,1,6.211-5.2929,13.90733,13.90733,0,0,1,6.5-1.625,11.44575,11.44575,0,0,1,4.5547.8515,8.03059,8.03059,0,0,1,3.33,2.7032,13.23513,13.23513,0,0,1,2.045,4.7959,31.46811,31.46811,0,0,1,.6914,7.0966v14.4805a36.01545,36.01545,0,0,1-.9512,9.0274,15.4551,15.4551,0,0,1-2.6543,5.7304,9.33083,9.33083,0,0,1-4.1035,3.0225,15.2595,15.2595,0,0,1-5.3262.8857,11.48075,11.48075,0,0,1-3.1055-.4668,11.70267,11.70267,0,0,1-3.0078-1.3037l2.0918-4.8271a6.44441,6.44441,0,0,0,1.9785.9179,8.81108,8.81108,0,0,0,2.5254.3692,7.29088,7.29088,0,0,0,2.7696-.4981,4.61374,4.61374,0,0,0,2.0742-1.7539,9.56352,9.56352,0,0,0,1.3047-3.4433,28.376,28.376,0,0,0,.4492-5.5674V187.3027a39.34453,39.34453,0,0,0-.4004-6.2588,10.80511,10.80511,0,0,0-1.209-3.7334,4.00094,4.00094,0,0,0-2.0117-1.7871,8.05773,8.05773,0,0,0-2.8145-.4502,7.55067,7.55067,0,0,0-3.3945.8223,12.59975,12.59975,0,0,0-3.043,2.123,15.77581,15.77581,0,0,0-2.4433,2.9454,13.47467,13.47467,0,0,0-1.5782,3.2812v18.666h-5.9531v-19.792a50.2291,50.2291,0,0,0-.5488-8.0615,41.06407,41.06407,0,0,0-1.0606-4.9726Z" fill="#fff"/><path d="M107.4516,426.1631V358.4077h8.1538V418.98h28.8301v7.1831Z" fill="#333e48"/><path d="M159.1899,364.3291a4.74,4.74,0,0,1-3.6406-1.2134,4.47028,4.47028,0,0,1-1.1162-3.1548v-1.2617a4.47827,4.47827,0,0,1,1.1162-3.1553,6.06785,6.06785,0,0,1,7.2807,0,4.48465,4.48465,0,0,1,1.1163,3.1553v1.2617a4.47664,4.47664,0,0,1-1.1163,3.1548A4.74368,4.74368,0,0,1,159.1899,364.3291Zm-3.8828,11.7461h7.7656v50.0879h-7.7656Z" fill="#333e48"/><path d="M179.5747,426.1631V376.0752h7.7656v8.061h.3882a16.32616,16.32616,0,0,1,5.1933-6.7265q3.3495-2.4984,8.979-2.4996,7.7652,0,12.2798,4.9991,4.51395,5.001,4.5137,14.124v32.1299h-7.7656V395.3252q0-13.5234-11.3574-13.5235a17.45187,17.45187,0,0,0-4.5142.584,13.12726,13.12726,0,0,0-3.9312,1.752,8.64944,8.64944,0,0,0-2.7661,2.9668,8.44045,8.44045,0,0,0-1.0195,4.2314v34.8272Z" fill="#333e48"/><path d="M274.5092,424.5132q0,10.3857-5.8242,16.3076-5.8242,5.9202-16.4048,5.9224a26.543,26.543,0,0,1-10.5322-1.9014,21.50206,21.50206,0,0,1-7.3286-5.022l4.562-5.3628a17.61527,17.61527,0,0,0,5.8242,3.9961,19.53776,19.53776,0,0,0,7.6685,1.397q6.794,0,10.5322-3.752,3.736-3.7566,3.7373-11.0678V418.102h-.3882a16.48325,16.48325,0,0,1-5.8242,6.919,16.01287,16.01287,0,0,1-8.8335,2.3071,19.04774,19.04774,0,0,1-8.4453-1.8437,17.8939,17.8939,0,0,1-6.4062-5.2422,25.2199,25.2199,0,0,1-4.0772-8.251,41.31916,41.31916,0,0,1,0-21.7441,25.23774,25.23774,0,0,1,4.0772-8.251,17.919,17.919,0,0,1,6.4062-5.2422,19.041,19.041,0,0,1,8.4453-1.8438,17.05315,17.05315,0,0,1,8.979,2.2579,14.09855,14.09855,0,0,1,5.6787,6.9682h.3882v-8.061h7.7656Zm-20.4819-4.0772a17.52183,17.52183,0,0,0,4.9507-.6826,12.00583,12.00583,0,0,0,4.0283-2.0005,10.01488,10.01488,0,0,0,2.7183-3.2178,9.26936,9.26936,0,0,0,1.019-4.4399V391.4604a8.02744,8.02744,0,0,0-.9707-3.854,9.11132,9.11132,0,0,0-2.7178-3.0727,14.07956,14.07956,0,0,0-4.0771-1.9995,16.4127,16.4127,0,0,0-4.9507-.7325q-6.6021,0-10.4834,4.1954a15.30945,15.30945,0,0,0-3.8828,10.83v8.584a15.31137,15.31137,0,0,0,3.8828,10.8301Q247.425,420.4358,254.0273,420.436Z" fill="#333e48"/><path d="M321.8789,418.102h-.3882a23.89181,23.89181,0,0,1-1.8926,3.4126,12.76817,12.76817,0,0,1-2.7666,2.9786,12.94327,12.94327,0,0,1-3.98,2.0664,17.38268,17.38268,0,0,1-5.436.7685q-7.7673,0-12.3281-4.999-4.56375-4.99875-4.5625-14.124V376.0752h7.7656v30.8379q0,13.52265,11.4546,13.5229a17.36049,17.36049,0,0,0,4.5137-.584,12.47,12.47,0,0,0,3.8828-1.75,8.845,8.845,0,0,0,2.7182-2.9672,8.65041,8.65041,0,0,0,1.0191-4.3301V376.0752h7.7656v50.0879h-7.7656Z" fill="#333e48"/><path d="M350.0288,364.3291a4.739,4.739,0,0,1-3.6402-1.2134,4.47028,4.47028,0,0,1-1.1162-3.1548v-1.2617a4.47827,4.47827,0,0,1,1.1162-3.1553,6.06725,6.06725,0,0,1,7.2803,0,4.48459,4.48459,0,0,1,1.1162,3.1553v1.2617a4.47658,4.47658,0,0,1-1.1162,3.1548A4.74309,4.74309,0,0,1,350.0288,364.3291Zm-3.8828,11.7461h7.7656v50.0879H346.146Z" fill="#333e48"/><path d="M385.4599,427.3281a23.43637,23.43637,0,0,1-11.6972-2.6689,26.59161,26.59161,0,0,1-8.1055-7.1348l5.5332-4.4658a21.75466,21.75466,0,0,0,6.5039,5.6787,16.93777,16.93777,0,0,0,8.3482,1.9902q4.9503,0,7.7167-2.1357a7.7581,7.7581,0,0,0,.8741-11.0176q-1.8933-2.0859-6.8438-2.8633l-3.98-.583a33.20914,33.20914,0,0,1-6.4067-1.5039,17.81841,17.81841,0,0,1-5.0962-2.7182,11.6727,11.6727,0,0,1-3.3975-4.2232,13.7521,13.7521,0,0,1-1.2133-6.0176,14.46191,14.46191,0,0,1,1.3589-6.455,12.98794,12.98794,0,0,1,3.7373-4.6114,16.34388,16.34388,0,0,1,5.6787-2.7666,26.255,26.255,0,0,1,7.0864-.9219,22.12927,22.12927,0,0,1,10.2407,2.1353,22.97921,22.97921,0,0,1,7.232,5.9214l-5.1451,4.6592a15.45874,15.45874,0,0,0-4.8535-4.2227,15.63013,15.63013,0,0,0-8.0566-1.8926q-4.8552,0-7.3291,2.0869a7.04069,7.04069,0,0,0-2.4751,5.6788q0,3.68985,2.4751,5.3388a18.468,18.468,0,0,0,7.1347,2.4268l3.8829.582q8.34735,1.2627,11.8427,4.8052a12.63592,12.63592,0,0,1,3.4947,9.2705q0,7.28025-4.9507,11.4546Q394.09935,427.3291,385.4599,427.3281Z" fill="#333e48"/><path d="M428.0752,426.1631q-4.0767,0-6.1641-2.2749a8.46511,8.46511,0,0,1-2.0869-5.9575V382.9668h-8.251v-6.8916h4.6592q2.52315,0,3.4463-1.02a5.29244,5.29244,0,0,0,.9219-3.543v-9.3189h6.9892v13.8819h10.9693v6.8916H427.5898v36.3047h10.1924v6.8916Z" fill="#333e48"/><path d="M454.9638,364.3291a4.7388,4.7388,0,0,1-3.6401-1.2134,4.47058,4.47058,0,0,1-1.1167-3.1548v-1.2617a4.47857,4.47857,0,0,1,1.1167-3.1553,6.06725,6.06725,0,0,1,7.2803,0,4.485,4.485,0,0,1,1.1162,3.1553v1.2617a4.477,4.477,0,0,1-1.1162,3.1548A4.74334,4.74334,0,0,1,454.9638,364.3291Zm-3.8828,11.7461h7.7656v50.0879H451.081Z" fill="#333e48"/><path d="M493.9863,427.3281a23.08694,23.08694,0,0,1-9.416-1.8437,19.211,19.211,0,0,1-7.0376-5.2422,23.33281,23.33281,0,0,1-4.3682-8.251,40.03745,40.03745,0,0,1,0-21.7441,23.34835,23.34835,0,0,1,4.3682-8.251,19.23759,19.23759,0,0,1,7.0376-5.2422,23.07872,23.07872,0,0,1,9.416-1.8438q7.4736,0,11.9883,3.251a19.85052,19.85052,0,0,1,6.7466,8.4942l-6.5039,3.3007a11.79828,11.79828,0,0,0-4.4654-6.0185,13.40048,13.40048,0,0,0-7.7656-2.1358,15.53069,15.53069,0,0,0-6.1157,1.1163,11.96455,11.96455,0,0,0-4.3682,3.1064,13.07463,13.07463,0,0,0-2.6206,4.7564,20.069,20.069,0,0,0-.874,6.0668v8.542a16.25642,16.25642,0,0,0,3.5434,10.8238q3.5421,4.2231,10.4351,4.2226,9.4146,0,13.5898-8.7363l5.6304,3.7856a19.89169,19.89169,0,0,1-7.2319,8.6397A21.156,21.156,0,0,1,493.9863,427.3281Z" fill="#333e48"/><path d="M539.2207,427.3281a23.43546,23.43546,0,0,1-11.6973-2.6689,26.59394,26.59394,0,0,1-8.1055-7.1348l5.5332-4.4658a21.75466,21.75466,0,0,0,6.5039,5.6787,16.93508,16.93508,0,0,0,8.3482,1.9902q4.95045,0,7.7168-2.1357a7.758,7.758,0,0,0,.874-11.0176q-1.8933-2.0859-6.8437-2.8633l-3.98-.583a33.2102,33.2102,0,0,1-6.4068-1.5039,17.81649,17.81649,0,0,1-5.0961-2.7182,11.67167,11.67167,0,0,1-3.3975-4.2232,13.75066,13.75066,0,0,1-1.2134-6.0176,14.46326,14.46326,0,0,1,1.3589-6.455,12.99008,12.99008,0,0,1,3.7373-4.6114,16.34475,16.34475,0,0,1,5.6787-2.7666,26.255,26.255,0,0,1,7.0864-.9219,22.13,22.13,0,0,1,10.2408,2.1353,22.97885,22.97885,0,0,1,7.2319,5.9214l-5.145,4.6592a15.461,15.461,0,0,0-4.8535-4.2227,15.63051,15.63051,0,0,0-8.0567-1.8926q-4.8552,0-7.3291,2.0869a7.04069,7.04069,0,0,0-2.4751,5.6788q0,3.68985,2.4751,5.3388a18.468,18.468,0,0,0,7.1348,2.4268l3.8828.582q8.34735,1.2627,11.8428,4.8052a12.63586,12.63586,0,0,1,3.4946,9.2705q0,7.28025-4.9507,11.4546Q547.86005,427.3291,539.2207,427.3281Z" fill="#333e48"/><path d="M126.4775,543.8135a29.19935,29.19935,0,0,1-14.0752-3.1543,29.86433,29.86433,0,0,1-9.9014-8.6885l6.0186-5.0479a26.36269,26.36269,0,0,0,7.9595,7.2325,20.52909,20.52909,0,0,0,10.29,2.4751q7.28025,0,11.1143-3.4947a11.9989,11.9989,0,0,0,3.8344-9.3188q0-4.85235-2.9121-7.4741-2.9121-2.62215-9.6098-4.1748l-5.5332-1.2618q-9.31935-2.1342-14.2212-6.455-4.9029-4.31835-4.9019-12.1827a18.4107,18.4107,0,0,1,1.6499-7.9589,15.96991,15.96991,0,0,1,4.6109-5.8247,20.83641,20.83641,0,0,1,7.0864-3.5435,32.08821,32.08821,0,0,1,9.0762-1.2134,28.50472,28.50472,0,0,1,13.1533,2.8154,25.34106,25.34106,0,0,1,9.27,8.251l-6.1152,4.4654a21.126,21.126,0,0,0-6.795-6.1158,20.02062,20.02062,0,0,0-9.9013-2.2329q-6.5046,0-10.2412,2.7666-3.73755,2.7672-3.7373,8.2998,0,4.8552,3.1552,7.3286,3.15315,2.4756,9.5616,3.9322l5.5327,1.2617q9.99675,2.2338,14.4634,6.7949,4.464,4.563,4.4653,12.1338a21.47054,21.47054,0,0,1-1.6016,8.4453,17.33084,17.33084,0,0,1-4.6108,6.4063,21.44608,21.44608,0,0,1-7.3286,4.0771A30.45766,30.45766,0,0,1,126.4775,543.8135Z" fill="#333e48"/><path d="M182.0014,543.8135a22.57919,22.57919,0,0,1-9.2216-1.8443,19.849,19.849,0,0,1-7.1348-5.2905,24.88791,24.88791,0,0,1-4.6109-8.251,36.1678,36.1678,0,0,1,0-21.5986,24.83533,24.83533,0,0,1,4.6109-8.2993,19.89566,19.89566,0,0,1,7.1348-5.2906,22.579,22.579,0,0,1,9.2216-1.8437,22.25324,22.25324,0,0,1,9.1734,1.8437,20.48575,20.48575,0,0,1,7.1347,5.2906,24.42327,24.42327,0,0,1,4.6597,8.2993,36.1678,36.1678,0,0,1,0,21.5986,24.47305,24.47305,0,0,1-4.6597,8.251,20.43612,20.43612,0,0,1-7.1347,5.2905A22.25344,22.25344,0,0,1,182.0014,543.8135Zm0-6.8921a14.11306,14.11306,0,0,0,10.2896-3.8828q3.9792-3.8811,3.98-11.8423v-7.1836q0-7.95855-3.98-11.8428a15.57523,15.57523,0,0,0-20.5791,0q-3.98145,3.88335-3.98,11.8428v7.1836q0,7.9599,3.98,11.8423A14.109,14.109,0,0,0,182.0014,536.9214Z" fill="#333e48"/><path d="M236.0698,543.8135a23.078,23.078,0,0,1-9.4155-1.8443,19.19346,19.19346,0,0,1-7.0376-5.2417,23.32987,23.32987,0,0,1-4.3682-8.2509,40.025,40.025,0,0,1,0-21.7442,23.34847,23.34847,0,0,1,4.3682-8.251,19.23455,19.23455,0,0,1,7.0376-5.2422,23.078,23.078,0,0,1,9.4155-1.8437q7.4736,0,11.9888,3.2515a19.85143,19.85143,0,0,1,6.7461,8.4936l-6.5035,3.3008a11.8014,11.8014,0,0,0-4.4658-6.0186,13.4001,13.4001,0,0,0-7.7656-2.1357,15.52817,15.52817,0,0,0-6.1152,1.1162,11.96393,11.96393,0,0,0-4.3682,3.1065,13.07511,13.07511,0,0,0-2.6211,4.7563,20.08323,20.08323,0,0,0-.8735,6.0669v8.543a16.25934,16.25934,0,0,0,3.5429,10.8232q3.54285,4.2225,10.4351,4.2222,9.4146,0,13.5898-8.7364l5.6304,3.7857a19.89314,19.89314,0,0,1-7.2314,8.6396A21.15807,21.15807,0,0,1,236.0698,543.8135Z" fill="#333e48"/><path d="M270.1411,480.8144a4.74122,4.74122,0,0,1-3.6402-1.2128,4.47407,4.47407,0,0,1-1.1162-3.1553v-1.2617a4.47793,4.47793,0,0,1,1.1162-3.1553,6.06885,6.06885,0,0,1,7.2803,0,4.48425,4.48425,0,0,1,1.1162,3.1553v1.2617a4.48037,4.48037,0,0,1-1.1162,3.1553A4.74526,4.74526,0,0,1,270.1411,480.8144ZM266.2583,492.56h7.7656v50.0884h-7.7656Z" fill="#333e48"/><path d="M309.3579,543.8135a22.48863,22.48863,0,0,1-9.2705-1.8443,19.95622,19.95622,0,0,1-7.086-5.2905,24.24171,24.24171,0,0,1-4.5625-8.251,37.21172,37.21172,0,0,1,0-21.5986,24.199,24.199,0,0,1,4.5625-8.2993,20.00377,20.00377,0,0,1,7.086-5.2906,22.48851,22.48851,0,0,1,9.2705-1.8437,21.29523,21.29523,0,0,1,9.0273,1.8379,20.00953,20.00953,0,0,1,6.7949,5.0796,22.63483,22.63483,0,0,1,4.3199,7.6899,30.35765,30.35765,0,0,1,1.5049,9.7691v3.6772H294.9912v2.3291a17.13347,17.13347,0,0,0,1.0195,5.9702,14.16351,14.16351,0,0,0,2.9121,4.8047,13.30868,13.30868,0,0,0,4.6592,3.2036,16.00232,16.00232,0,0,0,6.2612,1.1646,15.23382,15.23382,0,0,0,8.2993-2.2324,14.648,14.648,0,0,0,5.4849-6.4068l5.5332,4.0054a19.33285,19.33285,0,0,1-7.5718,8.3516A22.83993,22.83993,0,0,1,309.3579,543.8135Zm0-45.9146a14.78374,14.78374,0,0,0-5.8242,1.1104,13.09056,13.09056,0,0,0-4.5137,3.1352,14.69649,14.69649,0,0,0-2.9609,4.7744,16.50265,16.50265,0,0,0-1.0679,6.0303v.6748h27.6655v-1.0615q0-6.65625-3.6401-10.6592A12.42632,12.42632,0,0,0,309.3579,497.8989Z" fill="#333e48"/><path d="M354.8838,542.6484q-4.0767,0-6.1641-2.2744a8.46722,8.46722,0,0,1-2.0869-5.958V499.4521h-8.251V492.56h4.6592q2.52315,0,3.4463-1.0195a5.29094,5.29094,0,0,0,.9218-3.5425v-9.3193h6.9893V492.56h10.9692v6.8921H354.3984v36.3047h10.1924v6.8916Z" fill="#333e48"/><path d="M408.7578,492.56h7.6689l-22.4233,61.7374a27.54061,27.54061,0,0,1-1.7476,3.7368,7.2746,7.2746,0,0,1-2.1352,2.3784,8.48681,8.48681,0,0,1-3.1548,1.2622,23.44558,23.44558,0,0,1-4.6108.3882h-3.98v-6.8921h7.8628l3.7856-10.6611L371.2885,492.56h7.7657l12.0371,34.0064,2.3296,8.1392h.4853l2.7178-8.1392Z" fill="#333e48"/><path d="M120.8584,637.5615l-2.416-7.6787H107.7431l-2.373,7.6787H99.5888l10.0957-30.1123h7.0743l10.0097,30.1123Zm-7.6797-24.9346h-.2149l-3.8398,12.3809h7.9375Z" fill="#333e48"/><path d="M151.1845,637.5615l-2.416-7.6787H138.0693l-2.3711,7.6787H129.917l10.0937-30.1123h7.0762l10.0078,30.1123Zm-7.6796-24.9346H143.29l-3.8398,12.3809h7.9375Z" fill="#333e48"/><path d="M180.6494,624.8359H168.0966v12.7256h-5.6953V607.4492h5.6953v12.3379h12.5528V607.4492h5.6953v30.1123h-5.6953Z" fill="#333e48"/><path d="M203.9892,623.9297l-4.0117,4.7461v8.8857h-5.6953V607.4492h5.6953V622.29h.2149l4.2714-5.6504,7.4629-9.1904h6.5567l-10.4825,12.5537,11.3457,17.5586h-6.7734Z" fill="#333e48"/><path d="M229.7861,607.4492V625.957a8.63591,8.63591,0,0,0,1.3594,5.3067q1.3593,1.7694,4.5937,1.7685,3.2373,0,4.5957-1.7685a8.63591,8.63591,0,0,0,1.3594-5.3067V607.4492h5.6074v17.7754a23.13314,23.13314,0,0,1-.625,5.7363,9.7882,9.7882,0,0,1-2.0058,4.0137,8.10407,8.10407,0,0,1-3.6035,2.3506,16.83263,16.83263,0,0,1-5.3711.7539,16.591,16.591,0,0,1-5.3711-.7539,8.10969,8.10969,0,0,1-3.5586-2.3506,9.57406,9.57406,0,0,1-1.9844-4.0137,23.88991,23.88991,0,0,1-.6035-5.7363V607.4492Z" fill="#333e48"/></g></svg>