<svg xmlns="http://www.w3.org/2000/svg" xmlns:xlink="http://www.w3.org/1999/xlink" viewBox="0 0 633.1934 1102.7705"><defs><clipPath id="a"><rect width="633.1934" height="1102.7705" fill="none"/></clipPath></defs><g clip-path="url(#a)"><path d="M79.2207,135.7862a105.37021,105.37021,0,0,0-8.084,33.7109,10.38113,10.38113,0,0,1,13.6758.4795A92.62906,92.62906,0,0,1,177.1611,84.542a6.8374,6.8374,0,0,0,0-13.6748,106.40186,106.40186,0,0,0-97.9404,64.919Z" fill="#fff"/><path d="M169.5908,269.4805A92.62628,92.62628,0,0,1,84.542,177.585a6.8374,6.8374,0,1,0-13.6748,0,106.21214,106.21214,0,0,0,98.1807,105.5762,10.37576,10.37576,0,0,1,.5429-13.6807Z" fill="#fff"/><path d="M251.2588,243.7022a6.83935,6.83935,0,0,0-9.6699,0,92.3136,92.3136,0,0,1-64.4278,26.0889,6.8374,6.8374,0,1,0,0,13.6748,105.95036,105.95036,0,0,0,74.0977-30.0928A6.83591,6.83591,0,0,0,251.2588,243.7022Z" fill="#fff"/><path d="M177.1611,283.4659a6.8374,6.8374,0,1,1,0-13.6748,92.3136,92.3136,0,0,0,64.4278-26.0889,6.838,6.838,0,1,1,9.6699,9.6709,105.95036,105.95036,0,0,1-74.0977,30.0928Zm-41.3828-8.3594A106.20233,106.20233,0,0,1,70.8672,177.585a6.8374,6.8374,0,1,1,13.6748,0,92.62628,92.62628,0,0,0,85.0488,91.8955,10.37576,10.37576,0,0,0-.5429,13.6807A105.39389,105.39389,0,0,1,135.7783,275.1065ZM177.1611,70.8672a6.8374,6.8374,0,0,1,0,13.6748,92.62906,92.62906,0,0,0-92.3486,85.4346,10.38113,10.38113,0,0,0-13.6758-.4795A106.21567,106.21567,0,0,1,177.1611,70.8672Z" fill="#fff"/><path d="M233.4522,120.875a79.61135,79.61135,0,1,0,23.3154,56.292A79.08213,79.08213,0,0,0,233.4522,120.875Z" fill="#fff"/><path d="M121.0567,202.9112V151.4229h11.1669v3.8066H125.751v43.875h6.4726v3.8067Z" fill="#333e48"/><path d="M233.2647,151.4229v51.4883H222.1006v-3.8067h6.4687v-43.875h-6.4687v-3.8066Z" fill="#333e48"/><path d="M146.9912,187.626q0,1.544.0489,3.6358.0468,2.09175.1289,4.249.079,2.15475.1933,4.1181.1113,1.9644.2735,3.2823h-6.5977V166.5459q0-4.6977-.1602-8.5097-.1611-3.816-.4843-6.6133h6.5976Z" fill="#333e48"/><path d="M175.794,170.087v4.2167h-6.0498v24.3917h6.0498v4.2158H157.7734v-4.2158h5.9532V174.3037h-5.9532V170.087Z" fill="#333e48"/><path d="M189.3115,170.087a11.621,11.621,0,0,1,.3848,1.3369c.1309.5459.2461,1.1191.3555,1.7197q.1581.9009.289,1.7705l.2559,1.4473a21.21709,21.21709,0,0,1,6.2109-5.293,13.91664,13.91664,0,0,1,6.502-1.626,11.41084,11.41084,0,0,1,4.5527.8535,8.02844,8.02844,0,0,1,3.332,2.7032,13.22755,13.22755,0,0,1,2.043,4.7959,31.45677,31.45677,0,0,1,.6914,7.0966v14.4786a36.01383,36.01383,0,0,1-.9492,9.0273,15.50044,15.50044,0,0,1-2.6543,5.7305,9.32524,9.32524,0,0,1-4.1035,3.0234,15.26668,15.26668,0,0,1-5.3262.8857,11.5185,11.5185,0,0,1-3.1054-.4667,11.74292,11.74292,0,0,1-3.0088-1.3038l2.0918-4.8271a6.43988,6.43988,0,0,0,1.9795.918,8.793,8.793,0,0,0,2.5244.3691,7.29754,7.29754,0,0,0,2.7705-.498,4.62024,4.62024,0,0,0,2.0742-1.754,9.59853,9.59853,0,0,0,1.3037-3.4433,28.44239,28.44239,0,0,0,.4502-5.5674V187.3037a39.20311,39.20311,0,0,0-.4023-6.2587,10.80643,10.80643,0,0,0-1.2071-3.7334,4.00905,4.00905,0,0,0-2.0127-1.7871,8.05207,8.05207,0,0,0-2.8144-.4493,7.5557,7.5557,0,0,0-3.3936.8213,12.51654,12.51654,0,0,0-3.0439,2.1231,15.80293,15.80293,0,0,0-2.4444,2.9443,13.55379,13.55379,0,0,0-1.5781,3.2822v18.6651H185.126v-19.791a50.2555,50.2555,0,0,0-.5469-8.0616,40.54063,40.54063,0,0,0-1.0625-4.9716Z" fill="#333e48"/><path d="M129.7666,426.0391H97.5586v-5.3467h32.208Zm-4.1914,56.9297h-5.5185v-5.8604H107.1826v5.8604h-5.6035V454.0547h23.9961Zm-.2578-45.8945-23.6523.0849v-5.3457h23.6523Zm.0859,11.206H101.6651v-5.3467h23.7382Zm-1.0693-33.1055-21.7285.086v-5.3477H124.334Zm-4.2773,56.6719V459.3155h-12.96v12.5312Zm55.2617-23.4814-46.2373.0859v-5.2607H140.544l2.4814-13.2168H132.333v-5.2608h11.5488l1.8379-9.7959H129.3389v-5.3457h42.4726v5.2617H151.4942l-1.753,9.795h17.6221l-1.8399,18.4765h9.795Zm-7.4424,34.7744h-5.5176v-5.7744H140.7158v5.7744h-5.6035v-29H167.876Zm-5.5176-11.0352V459.4014H140.6299v12.7031Zm-.8555-42.2158H148.7998l-2.4805,13.3018h13.8575Z" fill="#fff"/><path d="M271.7608,426.0391H194.001v-5.3467h77.7598Zm-11.4629,10.9492H204.6943v-5.1748h55.6036Zm0,11.1201H204.6943v-5.1748h55.6036Zm-2.0098,35.0313h-5.5176v-6.0313H212.6494v6.0313h-5.5176v-29.085h51.1563Zm-.0859-68.5205-50.6426.1279v-5.1758h50.6426Zm-5.4317,57.2275V459.3155H212.6494v12.5312Z" fill="#fff"/><path d="M368.2051,467.6563H333.7725v5.9453q0,9.5376-10.1377,9.5381h-5.6885l-2.0957-5.2608h7.9551q4.19235,0,4.1933-3.8496v-6.373H290.4443v-5.3467H327.999v-3.6787q8.937-3.3369,12.7881-6.2441H308.0225v-4.919h42.2617v4.6621a131.01476,131.01476,0,0,1-16.5117,9.2813v.8984h34.4326Zm-3.5928-15.8692h-5.1347v-8.8535h-59.751v9.3672h-5.6045V437.9297h7.3574V411.8379q6.07185-.5976,13.3027-5.7744l2.8233,3.9356a25.16474,25.16474,0,0,1-10.6084,5.4316v3.5938h10.9492v4.4482H306.9971v4.6621h10.9492v4.3623H306.9971v5.4326h45.4668v-5.4326H342.0274v-4.2773h10.4365v-5.0039H342.1123v-4.3623h10.3516v-4.6631H340.3594v-5.1758h17.5361v28.8291h6.7168Zm-24.2529-33.1904-2.9932,3.6778a45.68453,45.68453,0,0,0-6.6308-5.0899,51.05922,51.05922,0,0,1-7.7852,5.3467l-3.5068-3.0801a33.89857,33.89857,0,0,0,7.2724-4.0205,74.77893,74.77893,0,0,0-8.4277-2.7363l2.1826-3.9356a78.91731,78.91731,0,0,1,9.5381,3.0791,36.45794,36.45794,0,0,0,5.0898-5.8593l3.5928,2.8662a27.12217,27.12217,0,0,1-4.4482,5.1748A31.96461,31.96461,0,0,1,340.3594,418.5967Zm.5127,15.5684-3.5918,2.8232a39.62728,39.62728,0,0,0-7.1856-4.4053,46.213,46.213,0,0,1-8.2129,4.4053l-3.25-2.5664a42.43222,42.43222,0,0,0,7.9131-4.5332,43.40218,43.40218,0,0,0-7.2724-3.3369l3.208-2.6943a53.49172,53.49172,0,0,1,7.5283,3.2929,36.389,36.389,0,0,0,4.832-4.1064l3.9356,2.0107a21.45409,21.45409,0,0,1-4.875,4.6631A31.79078,31.79078,0,0,1,340.8721,434.1651Z" fill="#fff"/><path d="M464.5615,467.6563H430.1299v5.9453q0,9.5376-10.1367,9.5381h-5.6895l-2.0957-5.2608h7.9561q4.19085,0,4.1914-3.8496v-6.373H386.8018v-5.3467h37.5537v-3.6787q8.93985-3.3369,12.79-6.2441H404.3809v-4.919h42.2597v4.6621a130.92448,130.92448,0,0,1-16.5107,9.2813v.8984h34.4316Zm-3.5918-15.8692H455.835v-8.8535H396.083v9.3672h-5.6025V437.9297h7.3564V411.8379q6.07335-.5976,13.3028-5.7744l2.8222,3.9356a25.1417,25.1417,0,0,1-10.6074,5.4316v3.5938h10.9492v4.4482H403.3545v4.6621h10.9492v4.3623H403.3545v5.4326h45.4668v-5.4326H438.3858v-4.2773h10.4355v-5.0039H438.4697v-4.3623h10.3516v-4.6631H436.7158v-5.1758h17.5371v28.8291h6.7168Zm-22.7304-18.581-3.8965,3.5625a41.25906,41.25906,0,0,0-6.7852-8.0957q-5.73915,6.394-9.4326,8.1367l-3.8564-3.2383q4.3476-2.06835,9.4336-7.7324a49.61014,49.61014,0,0,0-8.2442-4.4551l3.3643-3.4785a66.38955,66.38955,0,0,1,7.7109,4.21,24.47547,24.47547,0,0,0,2.624-6.0332H416.2783v-5.0596h6.9043v-5.21h4.4317v5.21h8.1953v5.0596h-1.6231a32.19231,32.19231,0,0,1-3.6748,8.705A39.75979,39.75979,0,0,1,438.2393,433.2061Z" fill="#fff"/><path d="M562.3301,425.8682l-3.0791,4.4473q-14.5869-3.5919-22.8399-8.2969v3.8496h-28.915v-4.2353q-12.4893,6.4599-22.41308,8.4267l-2.82227-4.4912q24.03668-5.85945,40.03515-19.5898l5.2598,1.7529a7.27423,7.27423,0,0,1-1.4971,1.4971Q540.2588,421.03375,562.3301,425.8682Zm-9.1113,24.5078H491.11427V430.3155H553.2188Zm-5.0889,32.8486h-5.2607v-3.4218H501.5518v3.4218h-5.2617V454.8672h51.8398Zm-28.5293-37.4677V435.0635H496.375v10.6934Zm23.2686,19.333v-5.5176H501.5518v5.5176Zm0,10.0947v-5.6035H501.5518v5.6035Zm-28.9571-33.6621-4.4053,3.0791a30.80591,30.80591,0,0,0-7.7851-5.9453l4.4482-2.5654A21.99726,21.99726,0,0,1,513.9121,441.5225Zm20.7451-20.4023a53.92965,53.92965,0,0,1-12.0195-8.7686,65.65218,65.65218,0,0,1-13.9004,8.7686ZM547.96,445.7569V435.0635H524.8623v10.6934Zm-5.1768-8.1699a20.36973,20.36973,0,0,1-7.6133,6.8437l-4.705-2.3516q5.60445-3.16545,7.6982-6.332Z" fill="#fff"/><path d="M130.169,356.1182l-1.6338,1.8809a38.20646,38.20646,0,0,1-13.9854-9.1016l.0352,6.8691h8.2051V370.877h-2.2315v-2.0205H106.3438v2.0205H104.042V355.7666h8.2402v-6.8691q-3.61815,5.53425-13.0722,8.6621l-1.6514-1.8633q8.38035-2.2134,11.9834-6.7988H99.544v-2.1973h12.7382v-3.3906q-4.1982.42195-10.542.6152l-1.5107-2.1259q14.9868-.0543,23.9307-2.5127l1.6865,1.6875a77.89714,77.89714,0,0,1-11.2617,2.0547v3.6718h12.914v2.1973l-10.0683-.0352A37.44632,37.44632,0,0,0,130.169,356.1182Zm-9.6104,4.9375v-3.0918h-14.25v3.0918Zm0,5.6406v-3.4785h-14.25v3.4785Z" fill="#fff"/><path d="M151.30608,357.7344a34.30674,34.30674,0,0,1-5.7979,11.2637l2.0547,1.2998a33.5159,33.5159,0,0,0,5.8691-11.2617Zm-3.7081-9.751-1.4765,1.8457a12.99889,12.99889,0,0,1,5.5361,4.2862l1.5449-2.0908A13.22386,13.22386,0,0,0,147.598,347.9834Zm1.7207-7.8711-1.6503,1.6875a10.59766,10.59766,0,0,1,5.3242,4.0752l1.6504-1.7744A10.76,10.76,0,0,0,149.31868,340.1123Z" fill="#fff"/><path d="M172.28358,363.0772v-6.625a20.44558,20.44558,0,0,0,4.5,3.2344l1.4404-1.9522a15.08879,15.08879,0,0,1-7.1689-6.2187h6.0078v-2.1612h-5.7442v-4.1992h4.3389v-2.1621h-4.3389v-3.7061h-2.2324v3.7413h-6.5176v-3.7413h-2.2324v3.7413h-4.3222v2.1611h4.3574v4.1992H154.643v2.1621h5.7988q-1.9482,3.65475-7.0449,6.0781l1.6504,1.9502a22.00041,22.00041,0,0,0,2.7763-1.8964v9.4179a2.67107,2.67107,0,0,0,3.0225,3.0215h11.5078a2.804,2.804,0,0,0,2.2227-.9307,7.86657,7.86657,0,0,0,1.2744-3.6709l-2.2666-1.0205a6.91447,6.91447,0,0,1-.667,2.8106,1.37524,1.37524,0,0,1-1.1768.6152h-10.7187a.85307.85307,0,0,1-.9658-.9668v-3.8818Zm-9.7149-17.9219h6.5528v4.1992h-6.5528Zm.209,6.3604h5.9746a14.56815,14.56815,0,0,0,2.6006,3.9892h-11.1572A12.364,12.364,0,0,0,162.77768,351.5157Zm-2.7216,6.1494h9.997v3.2851h-9.997Z" fill="#fff"/><path d="M226.03341,369.1211l-1.6338,1.8262q-10.982-5.9898-13.9512-20.1875-3.6723,14.4258-14.9697,20.1875l-1.7754-2.0908q11.19285-5.44635,14.1797-18.0615h-11.9473v-2.2666h12.211a89.82416,89.82416,0,0,0,.2812-9.2422l2.4424.3515q.0864,5.376-.2109,8.8555h13.3183v2.2666h-11.0869Q214.99876,362.7964,226.03341,369.1211Z" fill="#fff"/><path d="M273.84233,364.5528h-14.1446v2.4424q0,3.91695-4.164,3.9179h-2.3369l-.8604-2.1611h3.2676q1.7211,0,1.7217-1.5811v-2.6181h-15.4268v-2.1963h15.4268v-1.5117a21.97023,21.97023,0,0,0,5.2539-2.5645h-13.459v-2.0215H266.48v1.9151a53.60591,53.60591,0,0,1-6.7823,3.8134v.3692h14.1446Zm-1.4756-6.5186h-2.1084v-3.6377h-24.5469v3.8477h-2.3008v-5.9033h3.0215V341.6231a11.62636,11.62636,0,0,0,5.4649-2.3721l1.1591,1.6172a10.3441,10.3441,0,0,1-4.3574,2.2305v1.4756h4.4981v1.8281h-4.4981v1.915h4.4981v1.792h-4.4981v2.2315h18.6777v-2.2315h-4.2871v-1.7568h4.2871v-2.0557h-4.2519v-1.792h4.2519v-1.915h-4.9726v-2.126h7.2041v11.8418h2.7588Zm-9.9629-13.6347-1.2305,1.5097a18.736,18.736,0,0,0-2.7226-2.0898,20.92308,20.92308,0,0,1-3.1983,2.1963l-1.4404-1.2647a13.91442,13.91442,0,0,0,2.9863-1.6523,31.0479,31.0479,0,0,0-3.4609-1.125l.8965-1.6153a32.51859,32.51859,0,0,1,3.9179,1.2647,14.98877,14.98877,0,0,0,2.0909-2.4072l1.4765,1.1777a11.18414,11.18414,0,0,1-1.8281,2.126A13.11654,13.11654,0,0,1,262.40383,344.3995Zm.2109,6.3955-1.4756,1.1601a16.29161,16.29161,0,0,0-2.9521-1.8105,18.97924,18.97924,0,0,1-3.374,1.8105l-1.335-1.0556a17.36014,17.36014,0,0,0,3.251-1.8614,17.9174,17.9174,0,0,0-2.9873-1.3711l1.3174-1.1074a21.94293,21.94293,0,0,1,3.0927,1.3535,15.01527,15.01527,0,0,0,1.9854-1.6865l1.6162.8262a8.81841,8.81841,0,0,1-2.0029,1.915A13.022,13.022,0,0,1,262.61473,350.795Z" fill="#fff"/><path d="M322.30111,368.6455l-1.5468,2.0567a41.96428,41.96428,0,0,1-14.5127-7.0986q-4.79895,3.91845-15.0762,7.2392l-1.7207-2.0908q9.94335-2.75835,15.04-6.6943a23.93451,23.93451,0,0,1-6.8701-11.7549,19.36361,19.36361,0,0,1-2.6016,4.6386l-1.8603-1.7041a23.21991,23.21991,0,0,0,3.5654-5.7812h-6.0449v-2.1602H304.767v-6.0097h2.2656v5.9736h14.3369v2.1621h-6.0098q-1.58055,9.17145-7.2744,14.6006Q313.26946,365.957,322.30111,368.6455Zm-9.2959-21.2236h-13.5976a22.14354,22.14354,0,0,0,6.8691,13.0889A22.45573,22.45573,0,0,0,313.00521,347.4219Z" fill="#fff"/><path d="M369.84684,364.5528h-14.1464v2.4424q0,3.91695-4.1631,3.9179h-2.3369l-.8604-2.1611h3.2666q1.7226,0,1.7227-1.5811v-2.6181h-15.4258v-2.1963h15.4258v-1.5117a21.95914,21.95914,0,0,0,5.2529-2.5645h-13.458v-2.0215h17.3594v1.9151a53.63015,53.63015,0,0,1-6.7832,3.8134v.3692h14.1464Zm-1.4765-6.5186h-2.1094v-3.6377H341.715v3.8477h-2.3018v-5.9033h3.0225V341.6231a11.62864,11.62864,0,0,0,5.4658-2.3721l1.1582,1.6172a10.34231,10.34231,0,0,1-4.3584,2.2305v1.4756h4.4991v1.8281h-4.4991v1.915h4.4991v1.792h-4.4991v2.2315H363.38v-2.2315h-4.289v-1.7568h4.289v-2.0557h-4.2519v-1.792H363.38v-1.915h-4.9726v-2.126h7.2031v11.8418h2.7598Zm-9.9629-13.6347-1.2305,1.5097a18.736,18.736,0,0,0-2.7226-2.0898,21.022,21.022,0,0,1-3.1983,2.1963l-1.4404-1.2647a13.93614,13.93614,0,0,0,2.9863-1.6523,31.18224,31.18224,0,0,0-3.4609-1.125l.8965-1.6153a32.57588,32.57588,0,0,1,3.9179,1.2647,14.88133,14.88133,0,0,0,2.0899-2.4072l1.4765,1.1777a11.20586,11.20586,0,0,1-1.8261,2.126A13.17318,13.17318,0,0,1,358.40744,344.3995Zm.2109,6.3955-1.4765,1.1601a16.22007,16.22007,0,0,0-2.9512-1.8105,19.01652,19.01652,0,0,1-3.374,1.8105l-1.336-1.0556a17.26305,17.26305,0,0,0,3.251-1.8614,17.89589,17.89589,0,0,0-2.9863-1.3711l1.3174-1.1074a22.0411,22.0411,0,0,1,3.0927,1.3535,14.831,14.831,0,0,0,1.9844-1.6865l1.6172.8262a8.85612,8.85612,0,0,1-2.002,1.915A13.0849,13.0849,0,0,1,358.61834,350.795Z" fill="#fff"/><path d="M392.99472,351.2334q3.5508,3.9903,3.5507,7.7842a4.283,4.283,0,0,1-.9589,2.9346,3.37453,3.37453,0,0,1-2.6787,1.0898,13.96632,13.96632,0,0,1-2.2842-.2285l-.6504-2.3379a12.66178,12.66178,0,0,0,2.706.4746,1.78812,1.78812,0,0,0,1.2481-.5273,1.83248,1.83248,0,0,0,.5625-1.4053,8.4308,8.4308,0,0,0-.9658-3.374,13.45014,13.45014,0,0,0-2.9004-3.917l3.4267-8.8037h-5.2177v27.9902h-2.3028V340.6924h9.8565v2.2305Zm24.2304,13.2315a12.12915,12.12915,0,0,1-1.2304,4.1279,2.70713,2.70713,0,0,1-2.5118,1.2832h-2.7402q-2.74215,0-2.7412-2.8808v-9.295h-3.708q-.10545,5.65725-2.2051,8.4776-2.1006,2.81985-7.793,4.7353l-1.4755-2.0215q5.2881-1.5615,7.2568-4.041,1.96875-2.47695,1.9853-7.1152h-4.8144v-2.3027h18.8193v2.2675h-5.8711v8.75a1.3379,1.3379,0,0,0,.2823.8164.81564.81564,0,0,0,.6679.378h2.2315q.6855,0,1.0459-1.1241a17.9246,17.9246,0,0,0,.6064-2.9169Zm-2.0205-15.9365-2.2314.0351v-3.0928h-13.2481v3.0928h-2.2666v-5.3242h7.7129V339.251h2.3028v3.9541h7.7304Zm-2.9511,3.3906h-11.878v-2.3008h11.878Z" fill="#fff"/><path d="M465.8519,364.5528H451.70639v2.4424q0,3.91695-4.16411,3.9179h-2.3359l-.8613-2.1611h3.2676q1.7226,0,1.7226-1.5811v-2.6181h-15.4277v-2.1963h15.4277v-1.5117a21.97793,21.97793,0,0,0,5.25294-2.5645H441.12928v-2.0215h17.35934v1.9151a53.67454,53.67454,0,0,1-6.78223,3.8134v.3692H465.8519Zm-1.47754-6.5186h-2.10743v-3.6377H437.722v3.8477h-2.3027v-5.9033h3.0234V341.6231a11.62407,11.62407,0,0,0,5.4629-2.3721l1.1602,1.6172a10.35078,10.35078,0,0,1-4.3574,2.2305v1.4756h4.498v1.8281h-4.498v1.915h4.498v1.792h-4.498v2.2315H459.3851v-2.2315H455.098v-1.7568h4.28711v-2.0557h-4.251v-1.792h4.251v-1.915h-4.97168v-2.126h7.20312v11.8418h2.75782Zm-9.96094-13.6347-1.23145,1.5097a18.74843,18.74843,0,0,0-2.72363-2.0898,20.90932,20.90932,0,0,1-3.19726,2.1963l-1.4414-1.2647a13.88292,13.88292,0,0,0,2.9883-1.6523,31.10868,31.10868,0,0,0-3.461-1.125l.8946-1.6153a32.41241,32.41241,0,0,1,3.91793,1.2647,15.00718,15.00718,0,0,0,2.09278-2.4072l1.47558,1.1777a11.18537,11.18537,0,0,1-1.82812,2.126A13.12224,13.12224,0,0,1,454.41342,344.3995Zm.21,6.3955-1.47559,1.1601a16.3168,16.3168,0,0,0-2.95117-1.8105,18.99783,18.99783,0,0,1-3.375,1.8105l-1.3339-1.0556a17.348,17.348,0,0,0,3.25-1.8614,17.9174,17.9174,0,0,0-2.9873-1.3711l1.3173-1.1074a21.87363,21.87363,0,0,1,3.09183,1.3535,14.93616,14.93616,0,0,0,1.98633-1.6865l1.61621.8262a8.81853,8.81853,0,0,1-2.00293,1.915A12.99813,12.99813,0,0,1,454.62338,350.795Z" fill="#fff"/><path d="M513.96747,369.1563H481.99v-2.2666h14.8994v-8.2412h-10.7363v-2.2666h10.7363v-7.168h-7.96a18.68477,18.68477,0,0,1-4.8144,6.9043l-2.3184-1.2119a19.419,19.419,0,0,0,6.4131-13.0371l2.3711.6855a26.39433,26.39433,0,0,1-.8262,4.4278h7.0996v-7.6963h2.3711v7.6601h12.4043v2.2676h-12.4043v7.1328h10.5782v2.2666h-10.5782v8.2412h14.7422Z" fill="#fff"/><path d="M562.3301,347.3858l-1.2647,1.8281a37.53819,37.53819,0,0,1-9.3828-3.4082v1.5801H539.8047v-1.7393a35.617,35.617,0,0,1-9.2061,3.4619l-1.1601-1.8457a38.961,38.961,0,0,0,16.4463-8.0468l2.1611.7207a3.02372,3.02372,0,0,1-.6152.6152A34.41075,34.41075,0,0,0,562.3301,347.3858Zm-3.7412,10.0683H533.0772v-8.2402h25.5117Zm-2.0918,13.4932H554.335V369.542H537.3623v1.4053h-2.1601V359.2989h21.2949Zm-11.7197-15.3916v-4.3926h-9.5401v4.3926Zm9.5576,7.9424v-2.2666H537.3623v2.2666Zm0,4.1465v-2.3018H537.3623v2.3018Zm-11.8946-13.8272-1.8095,1.2647a12.64943,12.64943,0,0,0-3.1973-2.4424l1.8272-1.0537A9.017,9.017,0,0,1,542.4404,353.8174Zm8.5215-8.3808a22.16488,22.16488,0,0,1-4.9365-3.6036,27.03207,27.03207,0,0,1-5.71,3.6036Zm5.4649,10.1191v-4.3926h-9.4873v4.3926Zm-2.125-3.3555a8.3793,8.3793,0,0,1-3.1289,2.8116l-1.9317-.9659a9.12259,9.12259,0,0,0,3.1621-2.6015Z" fill="#fff"/><path d="M105.4268,628.5401V560.7852h8.1543v60.5723h28.83v7.1826Z" fill="#fff"/><path d="M157.1651,566.7061a4.74016,4.74016,0,0,1-3.6407-1.2129,4.47319,4.47319,0,0,1-1.1152-3.1543v-1.2627a4.47655,4.47655,0,0,1,1.1152-3.1543,6.06635,6.06635,0,0,1,7.2813,0,4.48167,4.48167,0,0,1,1.1162,3.1543v1.2627a4.47829,4.47829,0,0,1-1.1162,3.1543A4.74287,4.74287,0,0,1,157.1651,566.7061Zm-3.8829,11.7461h7.7657v50.0879h-7.7657Z" fill="#fff"/><path d="M177.5498,628.5401V578.4522h7.7656v8.0615h.3887a16.33147,16.33147,0,0,1,5.1934-6.7266q3.3486-2.4975,8.9785-2.499,7.76655,0,12.2803,4.9981,4.5132,5.001,4.5136,14.125v32.1289h-7.7656V597.7032q0-13.52355-11.3574-13.5245a17.47844,17.47844,0,0,0-4.5147.584,13.18265,13.18265,0,0,0-3.9306,1.752,8.65473,8.65473,0,0,0-2.7666,2.9668,8.44171,8.44171,0,0,0-1.0196,4.2324v34.8262Z" fill="#fff"/><path d="M272.4854,626.8907q0,10.3857-5.8243,16.3076-5.8242,5.9208-16.4052,5.9219a26.54205,26.54205,0,0,1-10.5323-1.9004,21.50935,21.50935,0,0,1-7.3281-5.0225l4.5615-5.3623a17.64237,17.64237,0,0,0,5.8243,3.9961,19.54142,19.54142,0,0,0,7.6689,1.3965q6.79395,0,10.5313-3.752,3.7368-3.75585,3.7382-11.0683v-6.9278h-.3886a16.48415,16.48415,0,0,1-5.8243,6.919,16.009,16.009,0,0,1-8.8339,2.3076,19.04566,19.04566,0,0,1-8.4453-1.8447,17.8939,17.8939,0,0,1-6.4063-5.2412,25.224,25.224,0,0,1-4.0762-8.252,41.2918,41.2918,0,0,1,0-21.7441,25.25077,25.25077,0,0,1,4.0762-8.25,17.91545,17.91545,0,0,1,6.4063-5.2422,19.04525,19.04525,0,0,1,8.4453-1.8438,17.04925,17.04925,0,0,1,8.9795,2.2578,14.08938,14.08938,0,0,1,5.6787,6.9678h.3886v-8.0615h7.7657Zm-20.4825-4.0772a17.52535,17.52535,0,0,0,4.9512-.6826,11.99834,11.99834,0,0,0,4.0274-2.001,9.99007,9.99007,0,0,0,2.7187-3.2178,9.26308,9.26308,0,0,0,1.0195-4.4394V593.8379a8.03222,8.03222,0,0,0-.9707-3.8545,9.119,9.119,0,0,0-2.7187-3.0722,14.06737,14.06737,0,0,0-4.0762-2,16.416,16.416,0,0,0-4.9512-.7325q-6.602,0-10.4834,4.1954a15.31418,15.31418,0,0,0-3.8828,10.83v8.585a15.31026,15.31026,0,0,0,3.8828,10.8291Q245.4,622.81355,252.0029,622.8135Z" fill="#fff"/><path d="M319.8545,620.4795h-.3887a23.66538,23.66538,0,0,1-1.8925,3.4121,12.73705,12.73705,0,0,1-2.7657,2.9795,12.97193,12.97193,0,0,1-3.9804,2.0664,17.38985,17.38985,0,0,1-5.4356.7686q-7.768,0-12.3281-5-4.5645-4.998-4.5625-14.1231V578.4522h7.7656v30.8379q0,13.5234,11.4541,13.5234a17.33638,17.33638,0,0,0,4.5137-.584,12.493,12.493,0,0,0,3.8828-1.75,8.851,8.851,0,0,0,2.7178-2.9668,8.65112,8.65112,0,0,0,1.0195-4.33V578.4522h7.7656v50.0879h-7.7656Z" fill="#fff"/><path d="M348.0049,566.7061a4.73829,4.73829,0,0,1-3.6406-1.2129,4.47334,4.47334,0,0,1-1.1162-3.1543v-1.2627a4.4767,4.4767,0,0,1,1.1162-3.1543,6.0647,6.0647,0,0,1,7.2802,0,4.48128,4.48128,0,0,1,1.1163,3.1543v1.2627a4.4779,4.4779,0,0,1-1.1163,3.1543A4.74173,4.74173,0,0,1,348.0049,566.7061Zm-3.8828,11.7461h7.7656v50.0879h-7.7656Z" fill="#fff"/><path d="M383.4356,629.7061a23.43008,23.43008,0,0,1-11.6973-2.6699,26.59277,26.59277,0,0,1-8.1055-7.1348l5.5332-4.4648a21.74471,21.74471,0,0,0,6.5039,5.6777,16.92794,16.92794,0,0,0,8.3487,1.9912q4.9497,0,7.7168-2.1357a7.75893,7.75893,0,0,0,.873-11.0176q-1.89255-2.0874-6.8437-2.8633l-3.9795-.583a33.18463,33.18463,0,0,1-6.4073-1.5049,17.79989,17.79989,0,0,1-5.0957-2.7178,11.67713,11.67713,0,0,1-3.3974-4.2236,13.75461,13.75461,0,0,1-1.2139-6.0176,14.46872,14.46872,0,0,1,1.3594-6.455,12.99772,12.99772,0,0,1,3.7373-4.6114,16.3302,16.3302,0,0,1,5.6787-2.7656,26.21434,26.21434,0,0,1,7.0859-.9219,22.12875,22.12875,0,0,1,10.2412,2.1348,22.95993,22.95993,0,0,1,7.2315,5.9219l-5.1445,4.6591a15.45645,15.45645,0,0,0-4.8536-4.2236,15.63855,15.63855,0,0,0-8.0566-1.8916q-4.85445,0-7.3291,2.0869a7.04183,7.04183,0,0,0-2.4756,5.6787q0,3.69,2.4756,5.3389a18.48152,18.48152,0,0,0,7.1348,2.4268l3.8828.581q8.3481,1.2627,11.8428,4.8057a12.63313,12.63313,0,0,1,3.4941,9.2705q0,7.28025-4.9502,11.4541Q392.0757,629.7076,383.4356,629.7061Z" fill="#fff"/><path d="M426.0508,628.5401q-4.0767,0-6.1641-2.2744a8.46713,8.46713,0,0,1-2.0869-5.958V585.3448h-8.251v-6.8926h4.6592q2.52255,0,3.4463-1.0195a5.29117,5.29117,0,0,0,.9219-3.543v-9.3184h6.9892v13.8809h10.9688v6.8926H425.5654v36.3047h10.1924v6.8906Z" fill="#fff"/><path d="M452.9395,566.7061a4.73474,4.73474,0,0,1-3.6397-1.2129,4.46989,4.46989,0,0,1-1.1172-3.1543v-1.2627a4.47325,4.47325,0,0,1,1.1172-3.1543,6.06335,6.06335,0,0,1,7.2793,0,4.4773,4.4773,0,0,1,1.1172,3.1543v1.2627a4.47394,4.47394,0,0,1-1.1172,3.1543A4.73877,4.73877,0,0,1,452.9395,566.7061Zm-3.8828,11.7461h7.7656v50.0879h-7.7656Z" fill="#fff"/><path d="M491.96193,629.7061a23.079,23.079,0,0,1-9.416-1.8447,19.20125,19.20125,0,0,1-7.03711-5.2412,23.32958,23.32958,0,0,1-4.3691-8.252,40.05026,40.05026,0,0,1,0-21.7441,23.35285,23.35285,0,0,1,4.3691-8.25,19.22365,19.22365,0,0,1,7.03711-5.2422,23.07885,23.07885,0,0,1,9.416-1.8438q7.47355,0,11.98827,3.251a19.83782,19.83782,0,0,1,6.7461,8.4932l-6.5039,3.3007a11.792,11.792,0,0,0-4.4648-6.0175,13.39452,13.39452,0,0,0-7.76567-2.1368,15.52667,15.52667,0,0,0-6.11524,1.1172,11.96124,11.96124,0,0,0-4.36914,3.1055,13.08669,13.08669,0,0,0-2.62012,4.7568,20.05552,20.05552,0,0,0-.874,6.0674v8.541a16.25441,16.25441,0,0,0,3.543,10.8243q3.542,4.2231,10.43555,4.2226,9.41456,0,13.58987-8.7363l5.6308,3.7851a19.90489,19.90489,0,0,1-7.2324,8.6407A21.15879,21.15879,0,0,1,491.96193,629.7061Z" fill="#fff"/><path d="M537.1963,629.7061a23.43008,23.43008,0,0,1-11.6973-2.6699,26.59242,26.59242,0,0,1-8.1054-7.1348l5.5332-4.4648a21.75557,21.75557,0,0,0,6.5039,5.6777,16.92122,16.92122,0,0,0,8.3476,1.9912q4.9512,0,7.7168-2.1357a7.75695,7.75695,0,0,0,.875-11.0176q-1.894-2.0874-6.8437-2.8633l-3.9805-.583a33.15543,33.15543,0,0,1-6.4062-1.5049,17.80446,17.80446,0,0,1-5.0967-2.7178,11.67635,11.67635,0,0,1-3.3975-4.2236,13.742,13.742,0,0,1-1.2129-6.0176,14.45646,14.45646,0,0,1,1.3584-6.455,12.99879,12.99879,0,0,1,3.7373-4.6114,16.33886,16.33886,0,0,1,5.6787-2.7656,26.21723,26.21723,0,0,1,7.087-.9219,22.13068,22.13068,0,0,1,10.2402,2.1348,22.97422,22.97422,0,0,1,7.2324,5.9219l-5.1455,4.6591a15.44589,15.44589,0,0,0-4.8535-4.2236,15.64157,15.64157,0,0,0-8.0566-1.8916q-4.8561,0-7.3292,2.0869a7.03837,7.03837,0,0,0-2.4746,5.6787q0,3.69,2.4746,5.3389a18.48764,18.48764,0,0,0,7.1348,2.4268l3.8828.581q8.34675,1.2627,11.8428,4.8057a12.6374,12.6374,0,0,1,3.4951,9.2705q0,7.28025-4.9512,11.4541Q545.83505,629.7076,537.1963,629.7061Z" fill="#fff"/><path d="M124.4531,746.1905a29.18846,29.18846,0,0,1-14.0752-3.1543,29.85546,29.85546,0,0,1-9.9013-8.6875l6.0185-5.0489a26.34237,26.34237,0,0,0,7.959,7.2325,20.52526,20.52526,0,0,0,10.291,2.4756q7.28025,0,11.1133-3.4952a11.99453,11.99453,0,0,0,3.835-9.3183q0-4.8516-2.9121-7.4737-2.9121-2.622-9.6104-4.1748l-5.5332-1.2617q-9.31935-2.1357-14.2207-6.4551-4.9029-4.31835-4.9023-12.1836a18.40919,18.40919,0,0,1,1.6504-7.9589,15.96105,15.96105,0,0,1,4.6113-5.8243,20.813,20.813,0,0,1,7.0859-3.5429,32.08532,32.08532,0,0,1,9.0762-1.2139,28.49841,28.49841,0,0,1,13.1533,2.8154,25.33746,25.33746,0,0,1,9.2705,8.251l-6.1152,4.4658a21.13158,21.13158,0,0,0-6.7949-6.1162,20.02788,20.02788,0,0,0-9.9024-2.2324q-6.50385,0-10.2402,2.7666-3.7383,2.7657-3.7383,8.2998,0,4.85445,3.1563,7.3281,3.15225,2.4756,9.5605,3.9317l5.5332,1.2627q9.99615,2.2323,14.4629,6.7949,4.4649,4.5615,4.4658,12.1328a21.47245,21.47245,0,0,1-1.6016,8.4453,17.32713,17.32713,0,0,1-4.6103,6.4063,21.45506,21.45506,0,0,1-7.3291,4.0781A30.45362,30.45362,0,0,1,124.4531,746.1905Z" fill="#fff"/><path d="M179.9776,746.1905a22.58392,22.58392,0,0,1-9.2227-1.8438,19.8508,19.8508,0,0,1-7.1348-5.291,24.87511,24.87511,0,0,1-4.6103-8.25,36.18153,36.18153,0,0,1,0-21.5996,24.84475,24.84475,0,0,1,4.6103-8.2988,19.89633,19.89633,0,0,1,7.1348-5.2911,22.6003,22.6003,0,0,1,9.2227-1.8437,22.26849,22.26849,0,0,1,9.1728,1.8437,20.48681,20.48681,0,0,1,7.1348,5.2911,24.43235,24.43235,0,0,1,4.6591,8.2988,36.16061,36.16061,0,0,1,0,21.5996,24.46059,24.46059,0,0,1-4.6591,8.25,20.4384,20.4384,0,0,1-7.1348,5.291A22.25243,22.25243,0,0,1,179.9776,746.1905Zm0-6.8916a14.11136,14.11136,0,0,0,10.289-3.8828q3.9786-3.8805,3.9805-11.8428v-7.1836q0-7.957-3.9805-11.8418a15.57523,15.57523,0,0,0-20.5791,0q-3.98145,3.88335-3.9795,11.8418v7.1836q0,7.9599,3.9795,11.8428A14.109,14.109,0,0,0,179.9776,739.2989Z" fill="#fff"/><path d="M234.0459,746.1905a23.07872,23.07872,0,0,1-9.416-1.8438,19.193,19.193,0,0,1-7.0371-5.2412,23.33267,23.33267,0,0,1-4.3692-8.251,40.05026,40.05026,0,0,1,0-21.7441,23.34779,23.34779,0,0,1,4.3692-8.252,19.23972,19.23972,0,0,1,7.0371-5.2422,23.09519,23.09519,0,0,1,9.416-1.8437q7.4736,0,11.9883,3.252a19.8499,19.8499,0,0,1,6.7461,8.4941l-6.5039,3.3008a11.79756,11.79756,0,0,0-4.4649-6.0196,13.41118,13.41118,0,0,0-7.7656-2.1347,15.53984,15.53984,0,0,0-6.1152,1.1152,11.96593,11.96593,0,0,0-4.3692,3.1074,13.09132,13.09132,0,0,0-2.6211,4.7559,20.08012,20.08012,0,0,0-.873,6.0664v8.543a16.25951,16.25951,0,0,0,3.543,10.8242q3.542,4.2216,10.4355,4.2217,9.4131,0,13.5899-8.7364l5.6298,3.7862a19.89246,19.89246,0,0,1-7.2314,8.6396A21.16,21.16,0,0,1,234.0459,746.1905Z" fill="#fff"/><path d="M268.1162,683.1924a4.736,4.736,0,0,1-3.6396-1.2138,4.47014,4.47014,0,0,1-1.1162-3.1553v-1.2617a4.47821,4.47821,0,0,1,1.1162-3.1553,6.0687,6.0687,0,0,1,7.2802,0,4.48685,4.48685,0,0,1,1.1163,3.1553v1.2617a4.47875,4.47875,0,0,1-1.1163,3.1553A4.7414,4.7414,0,0,1,268.1162,683.1924Zm-3.8828,11.7451h7.7656v50.0889h-7.7656Z" fill="#fff"/><path d="M307.333,746.1905a22.48709,22.48709,0,0,1-9.2695-1.8438,19.93843,19.93843,0,0,1-7.0859-5.291,24.21372,24.21372,0,0,1-4.5625-8.25,37.21286,37.21286,0,0,1,0-21.5996,24.19219,24.19219,0,0,1,4.5625-8.2988,19.98471,19.98471,0,0,1,7.0859-5.2911,22.50318,22.50318,0,0,1,9.2695-1.8437,21.30732,21.30732,0,0,1,9.0274,1.8379,20.0038,20.0038,0,0,1,6.7949,5.0801,22.63132,22.63132,0,0,1,4.3203,7.6894,30.37173,30.37173,0,0,1,1.5049,9.7696v3.6767H292.9668v2.3301a17.13336,17.13336,0,0,0,1.0195,5.9697,14.14223,14.14223,0,0,0,2.9121,4.8047,13.29983,13.29983,0,0,0,4.6592,3.2031,15.984,15.984,0,0,0,6.2617,1.1651,15.23306,15.23306,0,0,0,8.2989-2.2325,14.64656,14.64656,0,0,0,5.4844-6.4072l5.5332,4.0059a19.326,19.326,0,0,1-7.5713,8.3515A22.843,22.843,0,0,1,307.333,746.1905Zm0-45.9141a14.7911,14.7911,0,0,0-5.8242,1.1104,13.08305,13.08305,0,0,0-4.5137,3.1357,14.70882,14.70882,0,0,0-2.9609,4.7734,16.508,16.508,0,0,0-1.0674,6.0313v.6738h27.665v-1.0605q0-6.65625-3.6396-10.6602A12.427,12.427,0,0,0,307.333,700.2764Z" fill="#fff"/><path d="M352.8594,745.0264q-4.0767,0-6.1641-2.2754a8.46779,8.46779,0,0,1-2.0869-5.957V701.8291h-8.251v-6.8916h4.6592q2.52255,0,3.4463-1.0195a5.2897,5.2897,0,0,0,.9219-3.542v-9.3203h6.9892v13.8818h10.9688v6.8916H352.374v36.3047h10.1924v6.8926Z" fill="#fff"/><path d="M406.7334,694.9375h7.669l-22.4229,61.7373a27.61723,27.61723,0,0,1-1.748,3.7364,7.273,7.273,0,0,1-2.1348,2.3789,8.515,8.515,0,0,1-3.1553,1.2627,23.52815,23.52815,0,0,1-4.6103.3877h-3.9805v-6.8926h7.8633l3.7851-10.6602-18.7343-51.9502h7.7656l12.0371,34.0069,2.3291,8.1386h.4853l2.7178-8.1386Z" fill="#fff"/><path d="M118.833,839.9395l-2.4155-7.6787H105.7183l-2.3726,7.6787H97.5645l10.0952-30.1123h7.0752l10.0083,30.1123Zm-7.6787-24.9346h-.2158l-3.8394,12.3809h7.9375Z" fill="#fff"/><path d="M149.1602,839.9395l-2.4156-7.6787H136.0454l-2.3725,7.6787h-5.7813l10.0952-30.1123h7.0752l10.0083,30.1123Zm-7.6792-24.9346h-.2154l-3.8393,12.3809h7.9375Z" fill="#fff"/><path d="M178.6255,827.2139H166.0713v12.7256h-5.6948V809.8272h5.6948v12.3379h12.5542V809.8272h5.6943v30.1123h-5.6943Z" fill="#fff"/><path d="M201.9639,826.3077l-4.0117,4.746v8.8858h-5.6949V809.8272h5.6949V824.668h.2153l4.271-5.6504,7.4634-9.1904h6.5576l-10.4834,12.5537,11.3457,17.5586h-6.7725Z" fill="#fff"/><path d="M227.7622,809.8272V828.335a8.6327,8.6327,0,0,0,1.3594,5.3066q1.358,1.76955,4.5937,1.7686,3.236,0,4.5953-1.7686a8.64306,8.64306,0,0,0,1.3584-5.3066V809.8272h5.6084v17.7754a23.08439,23.08439,0,0,1-.6255,5.7363,9.78406,9.78406,0,0,1-2.0059,4.0137,8.096,8.096,0,0,1-3.6025,2.3506,16.84338,16.84338,0,0,1-5.3711.7539,16.5868,16.5868,0,0,1-5.3711-.7539,8.10361,8.10361,0,0,1-3.5591-2.3506,9.56526,9.56526,0,0,1-1.9844-4.0137,23.83775,23.83775,0,0,1-.604-5.7363V809.8272Z" fill="#fff"/><text transform="translate(97.56447 1042.06351)" font-size="42" fill="#fff" font-family="FiraSans-Bold, Fira Sans" font-weight="700">Se<tspan x="47.29102" y="0" letter-spacing="-0.00699em">s</tspan><tspan x="67.15723" y="0">sion 2020–2021</tspan></text><text transform="translate(97.56447 982.65433)" font-size="42" fill="#fff" font-family="SourceHanSansHC-Medium-B5pc-H, Source Han Sans HC"><tspan letter-spacing="0.00658em">二零二零至二零二一年</tspan><tspan x="422.76465" y="0">度</tspan></text><rect x="97.5645" y="908.2129" width="464.7656" height="1.5" fill="#fff"/></g></svg>