<svg xmlns="http://www.w3.org/2000/svg" xmlns:xlink="http://www.w3.org/1999/xlink" viewBox="0 0 1958.7197 708.6728"><defs><clipPath id="a"><rect width="1958.7197" height="708.6738" fill="none"/></clipPath></defs><g clip-path="url(#a)"><path d="M158.4414,271.5742A210.71228,210.71228,0,0,0,142.2705,339a20.76317,20.76317,0,0,1,27.3545.957c7.3378-95.5938,87.2246-170.8731,184.7011-170.8731a13.67575,13.67575,0,0,0,0-27.3515A212.80853,212.80853,0,0,0,158.4414,271.5742Z" fill="#fff"/><path d="M339.1855,538.9707c-94.9551-7.6836-169.6729-86.9649-170.1016-183.7969a13.67575,13.67575,0,1,0-27.3515,0A212.43046,212.43046,0,0,0,338.0996,566.332a20.75124,20.75124,0,0,1,1.0859-27.3613Z" fill="#fff"/><path d="M502.5273,487.4121a13.68014,13.68014,0,0,0-19.3408,0,184.63076,184.63076,0,0,1-128.8604,52.1777,13.6758,13.6758,0,1,0,0,27.3516,211.90052,211.90052,0,0,0,148.2012-60.1875A13.672,13.672,0,0,0,502.5273,487.4121Z" fill="#fff"/><path d="M354.3261,566.9414a13.6758,13.6758,0,1,1,0-27.3516,184.63076,184.63076,0,0,0,128.8604-52.1777,13.67636,13.67636,0,1,1,19.3408,19.3418,211.90052,211.90052,0,0,1-148.2012,60.1875Zm-82.7666-16.7188A212.41877,212.41877,0,0,1,141.7324,355.1738a13.67575,13.67575,0,1,1,27.3515,0c.4287,96.832,75.1465,176.1133,170.1016,183.7969a20.75124,20.75124,0,0,0-1.0859,27.3613A210.77862,210.77862,0,0,1,271.5595,550.2226Zm82.7666-408.4902a13.67575,13.67575,0,0,1,0,27.3515c-97.4765,0-177.3633,75.2793-184.7011,170.8731A20.76317,20.76317,0,0,0,142.2705,339,212.43821,212.43821,0,0,1,354.3261,141.7324Z" fill="#fff"/><path d="M466.913,241.75a159.227,159.227,0,1,0,46.6319,112.5878A158.18266,158.18266,0,0,0,466.913,241.75Z" fill="#fff"/><path d="M242.1162,405.8261V302.8476h22.333v7.6133H251.5039v87.7539h12.9453v7.6113Z" fill="#333e48"/><path d="M466.538,302.8476V405.8261h-22.33v-7.6113h12.9394V310.4609H444.208v-7.6133Z" fill="#333e48"/><path d="M293.9863,375.2578q0,3.0849.0947,7.2714.09525,4.18365.2598,8.4961.1596,4.30965.3867,8.2383.22125,3.9258.5449,6.5625H282.0791V333.0957q0-9.39555-.3223-17.0215-.31935-7.629-.9658-13.2266h13.1953Z" fill="#00c2f3"/><path d="M351.5927,340.1777v8.4336H339.4921v48.7851h12.1006v8.4317h-36.042v-8.4317H327.457V348.6113H315.5507v-8.4336Z" fill="#00c2f3"/><path d="M378.6269,340.1777a22.47153,22.47153,0,0,1,.7715,2.6738c.2607,1.0918.4922,2.2383.709,3.4414q.31785,1.8018.5801,3.5391l.5117,2.8945q6.18165-7.3359,12.4228-10.5859a27.81984,27.81984,0,0,1,13.002-3.25,22.83226,22.83226,0,0,1,9.1074,1.7051,16.05456,16.05456,0,0,1,6.6631,5.4062,26.47418,26.47418,0,0,1,4.0869,9.5918,62.86853,62.86853,0,0,1,1.3828,14.1934V398.746a71.98143,71.98143,0,0,1-1.9004,18.0547,30.90916,30.90916,0,0,1-5.3086,11.461,18.638,18.638,0,0,1-8.207,6.0468,30.52386,30.52386,0,0,1-10.6524,1.7715,23.0173,23.0173,0,0,1-6.2099-.9336,23.41767,23.41767,0,0,1-6.0176-2.6074l4.1836-9.6543a12.88194,12.88194,0,0,0,3.958,1.836,17.6029,17.6029,0,0,0,5.0498.7382,14.58842,14.58842,0,0,0,5.5401-.9961,9.23832,9.23832,0,0,0,4.1484-3.5078,19.18034,19.18034,0,0,0,2.6084-6.8867,56.8917,56.8917,0,0,0,.9004-11.1367V374.6132a78.52321,78.52321,0,0,0-.8047-12.5195,21.59406,21.59406,0,0,0-2.415-7.4668,8.01375,8.01375,0,0,0-4.0245-3.5742,16.11631,16.11631,0,0,0-5.6298-.8985,15.1197,15.1197,0,0,0-6.7881,1.6426,25.01008,25.01008,0,0,0-6.085,4.2481,31.4802,31.4802,0,0,0-4.8896,5.8886,27.06608,27.06608,0,0,0-3.1563,6.5645v37.3301H370.2587V366.246a100.598,100.598,0,0,0-1.0957-16.125,81.6807,81.6807,0,0,0-2.124-9.9433Z" fill="#00c2f3"/><path d="M626.6655,336.8393V236.3681h12.0913v89.8194h42.751v10.6518Z" fill="#fff"/><path d="M703.3857,245.1484q-3.74565,0-5.398-1.7993a6.631,6.631,0,0,1-1.6552-4.6782v-1.8711a6.63919,6.63919,0,0,1,1.6552-4.6783q1.65315-1.79805,5.398-1.7993,3.74115,0,5.3975,1.7993a6.646,6.646,0,0,1,1.6552,4.6783v1.8711a6.63778,6.63778,0,0,1-1.6552,4.6782Q707.1272,245.15075,703.3857,245.1484Zm-5.7578,17.4175h11.5156v74.2734H697.6279Z" fill="#fff"/><path d="M733.6132,336.8393V262.5659h11.5157v11.9536h.5756a24.20758,24.20758,0,0,1,7.7007-9.9746q4.96665-3.7047,13.3145-3.7066,11.5143,0,18.209,7.4126,6.69285,7.4151,6.6933,20.9439v47.6445H780.1069V291.1108q0-20.053-16.8413-20.0523a25.8948,25.8948,0,0,0-6.6939.8653,19.47187,19.47187,0,0,0-5.8296,2.5976,12.83464,12.83464,0,0,0-4.102,4.3995,12.5247,12.5247,0,0,0-1.5112,6.2749v51.6435Z" fill="#fff"/><path d="M874.3876,334.3925q0,15.3999-8.6367,24.1817-8.6367,8.7795-24.3261,8.7812a39.36389,39.36389,0,0,1-15.6177-2.8183,31.88094,31.88094,0,0,1-10.8677-7.4473l6.7651-7.9522a26.13053,26.13053,0,0,0,8.6368,5.9263,28.98416,28.98416,0,0,0,11.3711,2.0708q10.07445,0,15.6176-5.5635,5.5401-5.5707,5.542-16.4116V324.8857h-.5757a24.44774,24.44774,0,0,1-8.6362,10.2598,23.74948,23.74948,0,0,1-13.0991,3.4213,28.24133,28.24133,0,0,1-12.523-2.7348,26.5296,26.5296,0,0,1-9.5-7.773,37.404,37.404,0,0,1-6.0459-12.2348,61.279,61.279,0,0,1,0-32.2432,37.44441,37.44441,0,0,1,6.0459-12.2353,26.56925,26.56925,0,0,1,9.5-7.773,28.23432,28.23432,0,0,1,12.523-2.7344,25.2907,25.2907,0,0,1,13.3149,3.3487,20.90531,20.90531,0,0,1,8.4204,10.3325h.5757V262.5659h11.5156Zm-30.372-6.0459a25.98579,25.98579,0,0,0,7.3413-1.0122,17.81309,17.81309,0,0,0,5.9731-2.9663,14.84576,14.84576,0,0,0,4.0308-4.7724,13.73777,13.73777,0,0,0,1.5112-6.5831V285.3803a11.9142,11.9142,0,0,0-1.4394-5.7153,13.51191,13.51191,0,0,0-4.0303-4.5562,20.86616,20.86616,0,0,0-6.0454-2.9643,24.33857,24.33857,0,0,0-7.3413-1.086q-9.79035,0-15.5454,6.2207-5.7591,6.2205-5.7578,16.0582v12.7299q0,9.83715,5.7578,16.0586Q834.22555,328.3464,844.0156,328.3466Z" fill="#fff"/><path d="M944.6289,324.8857h-.5757a35.47238,35.47238,0,0,1-2.8067,5.0605,18.926,18.926,0,0,1-4.102,4.4165,19.19289,19.19289,0,0,1-5.9019,3.064,25.76691,25.76691,0,0,1-8.061,1.1401q-11.5173,0-18.2803-7.4135-6.76755-7.41135-6.7656-20.9429V262.5659h11.5156v45.728q0,20.053,16.9849,20.0527a25.74839,25.74839,0,0,0,6.6938-.8662,18.47877,18.47877,0,0,0,5.7574-2.5947,13.11331,13.11331,0,0,0,4.0302-4.3994,12.83152,12.83152,0,0,0,1.5113-6.4214v-51.499h11.5156v74.2734H944.6289Z" fill="#fff"/><path d="M986.371,245.1484q-3.744,0-5.3974-1.7993a6.62885,6.62885,0,0,1-1.6553-4.6782v-1.8711a6.637,6.637,0,0,1,1.6553-4.6783q1.653-1.79805,5.3974-1.7993,3.742,0,5.398,1.7993a6.64828,6.64828,0,0,1,1.6553,4.6783v1.8711a6.6401,6.6401,0,0,1-1.6553,4.6782Q990.113,245.15075,986.371,245.1484Zm-5.7573,17.4175h11.5152v74.2734H980.6137Z" fill="#fff"/><path d="M1038.9101,338.5668q-10.3638,0-17.3447-3.9584a39.41335,39.41335,0,0,1-12.0196-10.5801l8.2046-6.6211a32.239,32.239,0,0,0,9.6441,8.4204,25.11272,25.11272,0,0,0,12.3794,2.9512q7.341,0,11.4428-3.1665a11.50393,11.50393,0,0,0,1.2959-16.3379q-2.80725-3.09375-10.1479-4.2461l-5.9019-.8638a49.16538,49.16538,0,0,1-9.5-2.231,26.39956,26.39956,0,0,1-7.5566-4.0302,17.302,17.302,0,0,1-5.0381-6.2617,20.39493,20.39493,0,0,1-1.7993-8.9239,21.445,21.445,0,0,1,2.0151-9.5727,19.25842,19.25842,0,0,1,5.542-6.8365,24.21709,24.21709,0,0,1,8.4199-4.1025,38.92425,38.92425,0,0,1,10.5084-1.3677q9.0681,0,15.1855,3.1665a34.08063,34.08063,0,0,1,10.7241,8.7803l-7.6294,6.9092a22.91062,22.91062,0,0,0-7.1968-6.2612,23.17927,23.17927,0,0,0-11.9472-2.8072q-7.1997,0-10.8677,3.0952a10.43863,10.43863,0,0,0-3.6704,8.4205q0,5.47185,3.6704,7.9169,3.6702,2.44935,10.5796,3.5982l5.7578.8638q12.378,1.872,17.5606,7.125,5.1825,5.2566,5.1826,13.7461,0,10.7958-7.3413,16.9858Q1051.72085,338.5685,1038.9101,338.5668Z" fill="#fff"/><path d="M1102.102,336.8393q-6.04545,0-9.1401-3.3735a12.5528,12.5528,0,0,1-3.0948-8.8345V272.7851h-12.2353V262.5659h6.9097q3.7404,0,5.1098-1.5122,1.366-1.51035,1.3672-5.2535V241.9814h10.3638v20.5845h16.2656v10.2192h-16.2656v53.835h15.1137v10.2192Z" fill="#fff"/><path d="M1141.9736,245.1484q-3.74415,0-5.3975-1.7993a6.62885,6.62885,0,0,1-1.6553-4.6782v-1.8711a6.637,6.637,0,0,1,1.6553-4.6783q1.6524-1.79805,5.3975-1.7993,3.7419,0,5.3979,1.7993a6.64783,6.64783,0,0,1,1.6553,4.6783v1.8711a6.63965,6.63965,0,0,1-1.6553,4.6782Q1145.7155,245.15075,1141.9736,245.1484Zm-5.7578,17.4175h11.5156v74.2734h-11.5156Z" fill="#fff"/><path d="M1199.8383,338.5668a34.22985,34.22985,0,0,1-13.9624-2.7348,28.4775,28.4775,0,0,1-10.4355-7.773,34.58541,34.58541,0,0,1-6.4776-12.2348,59.36683,59.36683,0,0,1,0-32.2432,34.62058,34.62058,0,0,1,6.4776-12.2353,28.51958,28.51958,0,0,1,10.4355-7.773,34.22156,34.22156,0,0,1,13.9624-2.7344q11.0823,0,17.7769,4.8218a29.43028,29.43028,0,0,1,10.0039,12.5947l-9.6441,4.8946a17.4978,17.4978,0,0,0-6.621-8.9248,19.87462,19.87462,0,0,0-11.5157-3.1661,23.0285,23.0285,0,0,0-9.0683,1.6548,17.72547,17.72547,0,0,0-6.4776,4.6065,19.38909,19.38909,0,0,0-3.8862,7.0527,29.76939,29.76939,0,0,0-1.2959,8.9961v12.667q0,9.791,5.2544,16.0498,5.25225,6.26145,15.4736,6.2612,13.96005,0,20.1519-12.955l8.3486,5.6142a29.495,29.495,0,0,1-10.7236,12.811Q1210.4902,338.5667,1199.8383,338.5668Z" fill="#fff"/><path d="M1266.914,338.5668q-10.3638,0-17.3447-3.9584a39.41184,39.41184,0,0,1-12.0195-10.5801l8.2045-6.6211a32.24016,32.24016,0,0,0,9.6441,8.4204,25.11164,25.11164,0,0,0,12.3794,2.9512q7.341,0,11.4429-3.1665a11.50417,11.50417,0,0,0,1.2959-16.3379q-2.8074-3.09375-10.148-4.2461l-5.9019-.8638a49.16714,49.16714,0,0,1-9.5-2.231,26.39956,26.39956,0,0,1-7.5566-4.0302,17.302,17.302,0,0,1-5.0381-6.2617,20.39493,20.39493,0,0,1-1.7993-8.9239,21.445,21.445,0,0,1,2.0151-9.5727,19.25842,19.25842,0,0,1,5.542-6.8365,24.21672,24.21672,0,0,1,8.42-4.1025,38.92033,38.92033,0,0,1,10.5083-1.3677q9.0681,0,15.1855,3.1665a34.08063,34.08063,0,0,1,10.7241,8.7803l-7.6294,6.9092a22.908,22.908,0,0,0-7.1972-6.2612,23.17648,23.17648,0,0,0-11.9468-2.8072q-7.1997,0-10.8677,3.0952a10.43863,10.43863,0,0,0-3.6704,8.4205q0,5.47185,3.6704,7.9169,3.6702,2.44935,10.5796,3.5982l5.7578.8638q12.378,1.872,17.561,7.125,5.1819,5.2566,5.1817,13.7461,0,10.7958-7.3408,16.9858Q1279.72475,338.5685,1266.914,338.5668Z" fill="#fff"/><path d="M1378.0361,338.5668q-12.2358,0-20.8721-4.6782a44.28207,44.28207,0,0,1-14.6816-12.8828l8.9243-7.4853a39.10241,39.10241,0,0,0,11.8032,10.7241,30.437,30.437,0,0,0,15.2578,3.6704q10.79595,0,16.4815-5.1816,5.68425-5.18265,5.6855-13.8189,0-7.19535-4.3183-11.083-4.31775-3.88695-14.25-6.1899l-8.2046-1.8711q-13.8186-3.16485-21.0874-9.5718-7.27005-6.40365-7.2696-18.065a27.30485,27.30485,0,0,1,2.4473-11.8032,23.67339,23.67339,0,0,1,6.8374-8.6362,30.8629,30.8629,0,0,1,10.5073-5.2544,47.59757,47.59757,0,0,1,13.459-1.7993q11.36865,0,19.5039,4.1748a37.57531,37.57531,0,0,1,13.7466,12.2348l-9.0684,6.6211a31.31534,31.31534,0,0,0-10.0756-9.0683q-5.90415-3.3099-14.6827-3.3106-9.6444,0-15.1855,4.1021-5.54295,4.10295-5.542,12.3071,0,7.1997,4.6782,10.8677,4.6758,3.6702,14.1782,5.8301l8.2041,1.8711q14.82495,3.31275,21.4483,10.0756,6.6189,6.767,6.6211,17.9927a31.83918,31.83918,0,0,1-2.375,12.5235,25.70608,25.70608,0,0,1-6.8369,9.5,31.81181,31.81181,0,0,1-10.8677,6.0454A45.16237,45.16237,0,0,1,1378.0361,338.5668Z" fill="#fff"/><path d="M1460.3701,338.5668a33.4897,33.4897,0,0,1-13.6748-2.7348,29.45172,29.45172,0,0,1-10.5796-7.8452,36.90667,36.90667,0,0,1-6.8374-12.2349,53.62568,53.62568,0,0,1,0-32.0273,36.82556,36.82556,0,0,1,6.8374-12.3067,29.49584,29.49584,0,0,1,10.5796-7.8452,33.48135,33.48135,0,0,1,13.6748-2.7344,32.99712,32.99712,0,0,1,13.6025,2.7344,30.37507,30.37507,0,0,1,10.5791,7.8452,36.21777,36.21777,0,0,1,6.9097,12.3067,53.62568,53.62568,0,0,1,0,32.0273,36.29465,36.29465,0,0,1-6.9097,12.2349,30.32814,30.32814,0,0,1-10.5791,7.8452A33.00529,33.00529,0,0,1,1460.3701,338.5668Zm0-10.2202q9.35445,0,15.2578-5.7578,5.9004-5.7546,5.9013-17.5605V294.3764q0-11.8008-5.9013-17.561-5.90415-5.7546-15.2578-5.7569-9.359,0-15.2578,5.7569-5.9049,5.75895-5.9019,17.561v10.6519q0,11.8044,5.9019,17.5605Q1451.01255,328.34865,1460.3701,328.3466Z" fill="#fff"/><path d="M1540.5454,338.5668a34.22784,34.22784,0,0,1-13.9624-2.7348,28.48293,28.48293,0,0,1-10.4361-7.773,34.59247,34.59247,0,0,1-6.477-12.2348,59.35146,59.35146,0,0,1,0-32.2432,34.62765,34.62765,0,0,1,6.477-12.2353,28.525,28.525,0,0,1,10.4361-7.773,34.21955,34.21955,0,0,1,13.9624-2.7344q11.08215,0,17.7763,4.8218a29.43136,29.43136,0,0,1,10.0044,12.5947l-9.6445,4.8946a17.49522,17.49522,0,0,0-6.6211-8.9248,19.87177,19.87177,0,0,0-11.5151-3.1661,23.02984,23.02984,0,0,0-9.0689,1.6548,17.71817,17.71817,0,0,0-6.477,4.6065,19.38781,19.38781,0,0,0-3.8863,7.0527,29.75688,29.75688,0,0,0-1.2959,8.9961v12.667q0,9.791,5.2539,16.0498,5.253,6.26145,15.4742,6.2612,13.95915,0,20.1518-12.955l8.3486,5.6142a29.49612,29.49612,0,0,1-10.7241,12.811Q1551.19745,338.5667,1540.5454,338.5668Z" fill="#fff"/><path d="M1591.0673,245.1484q-3.74475,0-5.3974-1.7993a6.62885,6.62885,0,0,1-1.6553-4.6782v-1.8711a6.637,6.637,0,0,1,1.6553-4.6783q1.65225-1.79805,5.3974-1.7993,3.7413,0,5.398,1.7993a6.64828,6.64828,0,0,1,1.6553,4.6783v1.8711a6.6401,6.6401,0,0,1-1.6553,4.6782Q1594.8093,245.15075,1591.0673,245.1484Zm-5.7578,17.4175h11.5156v74.2734h-11.5156Z" fill="#fff"/><path d="M1649.2197,338.5668a33.34884,33.34884,0,0,1-13.7461-2.7348,29.60434,29.60434,0,0,1-10.5078-7.8452,35.95851,35.95851,0,0,1-6.7657-12.2349,55.1851,55.1851,0,0,1,0-32.0273,35.89208,35.89208,0,0,1,6.7657-12.3067,29.64926,29.64926,0,0,1,10.5078-7.8452,33.34071,33.34071,0,0,1,13.7461-2.7344,31.57866,31.57866,0,0,1,13.3867,2.7256,29.68736,29.68736,0,0,1,10.0762,7.5322,33.5856,33.5856,0,0,1,6.4052,11.4029,45.01648,45.01648,0,0,1,2.2315,14.4863v5.4517h-53.4028v3.455a25.4204,25.4204,0,0,0,1.5112,8.8526,21.02322,21.02322,0,0,0,4.3183,7.1245,19.742,19.742,0,0,0,6.9092,4.751,23.73142,23.73142,0,0,0,9.2842,1.7265,22.59283,22.59283,0,0,0,12.3076-3.3105,21.72063,21.72063,0,0,0,8.1323-9.5l8.2046,5.9394a28.66322,28.66322,0,0,1-11.2275,12.3838A33.86209,33.86209,0,0,1,1649.2197,338.5668Zm0-68.0844a21.92746,21.92746,0,0,0-8.6363,1.6465,19.41465,19.41465,0,0,0-6.6933,4.6484,21.79917,21.79917,0,0,0-4.3901,7.0806,24.46747,24.46747,0,0,0-1.5835,8.9419v1.0009h41.0234V292.226q0-9.87075-5.398-15.8061Q1658.144,270.4829,1649.2197,270.4824Z" fill="#fff"/><path d="M1716.728,336.8393q-6.04545,0-9.1402-3.3735a12.55093,12.55093,0,0,1-3.0947-8.8345V272.7851h-12.2353V262.5659h6.9091q3.7413,0,5.1104-1.5122,1.3659-1.51035,1.3672-5.2535V241.9814h10.3638v20.5845h16.2656v10.2192h-16.2656v53.835h15.1137v10.2192Z" fill="#fff"/><path d="M1796.6152,262.5659h11.3721l-33.251,91.5464a40.877,40.877,0,0,1-2.5908,5.5415,10.80355,10.80355,0,0,1-3.167,3.5268,12.58038,12.58038,0,0,1-4.6778,1.8711,34.76107,34.76107,0,0,1-6.8374.5762h-5.9018V355.4082h11.6592l5.6142-15.8091-27.7812-77.0332h11.5156l17.8486,50.4262,3.4546,12.0689h.7197l4.0303-12.0689Z" fill="#fff"/><path d="M646.7939,477.7578l-3.6104-11.4766H627.1933l-3.5459,11.4766h-8.6406l15.0879-45.0039h10.5742l14.958,45.0039Zm-11.4766-37.2657h-.3222l-5.7383,18.5039h11.8633Z" fill="#fff"/><path d="M692.1191,477.7578l-3.6104-11.4766H672.5185l-3.5459,11.4766H660.332l15.0879-45.0039h10.5742l14.958,45.0039Zm-11.4766-37.2657h-.3222L674.582,458.996h11.8633Z" fill="#fff"/><path d="M736.1562,458.7382H717.3935v19.0196h-8.5107V432.7539h8.5107v18.4394h18.7627V432.7539h8.5107v45.0039h-8.5107Z" fill="#fff"/><path d="M771.0371,457.3847l-5.9961,7.0918v13.2813h-8.5108V432.7539h8.5108v22.1796h.3222l6.3828-8.4453,11.1543-13.7343h9.8008l-15.6679,18.7617,16.957,26.2422H783.8681Z" fill="#fff"/><path d="M809.5937,432.7539V460.414q0,5.2881,2.0313,7.9317,2.03025,2.64255,6.8662,2.6425,4.8354,0,6.8671-2.6425,2.0304-2.64555,2.0303-7.9317V432.7539h8.3819v26.5644a34.52324,34.52324,0,0,1-.9346,8.5742,14.61213,14.61213,0,0,1-2.9981,5.9981,12.09383,12.09383,0,0,1-5.3837,3.5136,25.175,25.175,0,0,1-8.0274,1.127,24.79109,24.79109,0,0,1-8.0273-1.127,12.11317,12.11317,0,0,1-5.3194-3.5136,14.29431,14.29431,0,0,1-2.9658-5.9981,35.65229,35.65229,0,0,1-.9023-8.5742V432.7539Z" fill="#fff"/></g></svg>