<svg xmlns="http://www.w3.org/2000/svg" xmlns:xlink="http://www.w3.org/1999/xlink" viewBox="0 0 633.1914 798.9551"><defs><clipPath id="a"><rect width="633.1914" height="798.9551" fill="none"/></clipPath></defs><g clip-path="url(#a)"><path d="M77.7109,170.747a6.83658,6.83658,0,0,1,6.8379,6.837c-.0019-.1397-.0058-.2784-.0058-.419a92.623,92.623,0,0,1,92.623-92.623,6.8379,6.8379,0,0,0,0-13.6758A106.22218,106.22218,0,0,0,70.8672,177.165c0,.1406.0039.2793.0054.419A6.837,6.837,0,0,1,77.7109,170.747Z" fill="#ee212e"/><path d="M170.3301,276.6269a6.837,6.837,0,0,1,6.8359-6.8379,92.61748,92.61748,0,0,1-92.6172-92.205,6.8381,6.8381,0,0,0-13.6762,0A106.216,106.216,0,0,0,177.166,283.4648,6.83692,6.83692,0,0,1,170.3301,276.6269Z" fill="#46bc96"/><path d="M251.2656,243.7021a6.83651,6.83651,0,0,0-9.6699,0A92.31538,92.31538,0,0,1,177.166,269.789a6.8379,6.8379,0,0,0,0,13.6758,105.95051,105.95051,0,0,0,74.0996-30.0918A6.83591,6.83591,0,0,0,251.2656,243.7021Z" fill="#00c2f3"/><path d="M233.4587,120.874a79.613,79.613,0,1,0,23.3147,56.291A79.08749,79.08749,0,0,0,233.4587,120.874Z" fill="#00c2f3"/><path d="M121.0625,202.9101V151.4209h11.168v3.8066h-6.4727v43.877h6.4727v3.8056Z" fill="#333e48"/><path d="M233.2715,151.4209v51.4892H222.1074v-3.8056h6.4688v-43.877h-6.4688v-3.8066Z" fill="#333e48"/><path d="M146.998,187.625q0,1.54245.0469,3.6357.04695,2.09175.1309,4.2481.079,2.15625.1933,4.1201.10845,1.9629.2715,3.2812h-6.5957V166.5459q0-4.6992-.1621-8.5117-.15825-3.8145-.4824-6.6133h6.5976Z" fill="#fff"/><path d="M175.8008,170.0849v4.2168H169.75v24.3936h6.0508v4.2158H157.7793v-4.2158h5.9531V174.3017h-5.9531v-4.2168Z" fill="#fff"/><path d="M189.3164,170.0849a11.29709,11.29709,0,0,1,.3867,1.3379q.19335.81885.3535,1.7207.15825.8994.2911,1.7696l.2558,1.4472a21.20271,21.20271,0,0,1,6.211-5.2929,13.90613,13.90613,0,0,1,6.5-1.625,11.4435,11.4435,0,0,1,4.5546.8515,8.03077,8.03077,0,0,1,3.3301,2.7031,13.23662,13.23662,0,0,1,2.0449,4.7959,31.46387,31.46387,0,0,1,.6914,7.0967v14.4805a36.01456,36.01456,0,0,1-.9511,9.0273,15.45485,15.45485,0,0,1-2.6543,5.7305,9.33083,9.33083,0,0,1-4.1035,3.0225,15.2595,15.2595,0,0,1-5.3262.8857,11.48019,11.48019,0,0,1-3.1055-.4668,11.70267,11.70267,0,0,1-3.0078-1.3037l2.0918-4.8271a6.44217,6.44217,0,0,0,1.9785.9179,8.81057,8.81057,0,0,0,2.5254.3692,7.29192,7.29192,0,0,0,2.7695-.4981,4.61345,4.61345,0,0,0,2.0743-1.7539,9.56157,9.56157,0,0,0,1.3046-3.4434,28.381,28.381,0,0,0,.4493-5.5673V187.3027a39.34453,39.34453,0,0,0-.4004-6.2588,10.80723,10.80723,0,0,0-1.209-3.7334,4.00173,4.00173,0,0,0-2.0117-1.7871,8.05813,8.05813,0,0,0-2.8145-.4502,7.55067,7.55067,0,0,0-3.3945.8223,12.59781,12.59781,0,0,0-3.043,2.123,15.77127,15.77127,0,0,0-2.4433,2.9453,13.47526,13.47526,0,0,0-1.5782,3.2813v18.666h-5.9531v-19.792a50.2291,50.2291,0,0,0-.5488-8.0615,41.06655,41.06655,0,0,0-1.0606-4.9727Z" fill="#fff"/><path d="M107.4575,426.1631V358.4072h8.1538v60.5723h28.8301v7.1836Z" fill="#333e48"/><path d="M159.1958,364.3291a4.7417,4.7417,0,0,1-3.6406-1.2129,4.47194,4.47194,0,0,1-1.1162-3.1553v-1.2627a4.47765,4.47765,0,0,1,1.1162-3.1543,6.06945,6.06945,0,0,1,7.2807,0,4.48442,4.48442,0,0,1,1.1162,3.1543v1.2627a4.47869,4.47869,0,0,1-1.1162,3.1553A4.74564,4.74564,0,0,1,159.1958,364.3291Zm-3.8828,11.7461h7.7656v50.0879H155.313Z" fill="#333e48"/><path d="M179.5806,426.1631V376.0752h7.7656v8.0605h.3882a16.33264,16.33264,0,0,1,5.1933-6.7265q3.34935-2.49765,8.979-2.4991,7.7652,0,12.2798,4.9991,4.51395,5.00085,4.5137,14.124v32.1299h-7.7656V395.3252q0-13.52355-11.3575-13.5235a17.43011,17.43011,0,0,0-4.5141.584,13.12477,13.12477,0,0,0-3.9312,1.752,8.64054,8.64054,0,0,0-2.7661,2.9668,8.43782,8.43782,0,0,0-1.0195,4.2314v34.8272Z" fill="#333e48"/><path d="M274.5151,424.5127q0,10.3857-5.8242,16.3086-5.8242,5.91945-16.4048,5.9218a26.54206,26.54206,0,0,1-10.5322-1.9013,21.49754,21.49754,0,0,1-7.3286-5.0225l4.562-5.3623a17.63353,17.63353,0,0,0,5.8242,3.9971,19.5574,19.5574,0,0,0,7.6685,1.3965q6.794,0,10.5322-3.752,3.736-3.75735,3.7373-11.0684v-6.9277h-.3882a16.48013,16.48013,0,0,1-5.8242,6.918,16.00989,16.00989,0,0,1-8.8335,2.3076,19.04136,19.04136,0,0,1-8.4453-1.8447,17.88592,17.88592,0,0,1-6.4062-5.2412,25.2199,25.2199,0,0,1-4.0772-8.251,41.3168,41.3168,0,0,1,0-21.7442,25.23819,25.23819,0,0,1,4.0772-8.2509,17.9179,17.9179,0,0,1,6.4062-5.2422,19.041,19.041,0,0,1,8.4453-1.8438,17.04964,17.04964,0,0,1,8.979,2.2578,14.10242,14.10242,0,0,1,5.6787,6.9678h.3882v-8.0605h7.7656Zm-20.4819-4.0762a17.52185,17.52185,0,0,0,4.9507-.6836,12.01435,12.01435,0,0,0,4.0283-2,10.01765,10.01765,0,0,0,2.7183-3.2187,9.26385,9.26385,0,0,0,1.019-4.4395V391.4599a8.02551,8.02551,0,0,0-.9707-3.8535,9.09993,9.09993,0,0,0-2.718-3.0722,14.05135,14.05135,0,0,0-4.0769-2,16.4127,16.4127,0,0,0-4.9507-.7325q-6.6021,0-10.4834,4.1953a15.30877,15.30877,0,0,0-3.8831,10.8301v8.584a15.31028,15.31028,0,0,0,3.8831,10.8301Q247.4309,420.43655,254.0332,420.4365Z" fill="#333e48"/><path d="M321.8848,418.1025h-.3882a23.91571,23.91571,0,0,1-1.8928,3.4121,12.755,12.755,0,0,1-2.7664,2.9785,12.9434,12.9434,0,0,1-3.98,2.0664,17.39426,17.39426,0,0,1-5.436.7686q-7.7673,0-12.3281-4.999-4.56375-4.99815-4.5625-14.124V376.0752h7.7656v30.8379q0,13.5234,11.4543,13.5234a17.38117,17.38117,0,0,0,4.5139-.584,12.49581,12.49581,0,0,0,3.8829-1.75,8.85837,8.85837,0,0,0,2.7182-2.9678,8.65106,8.65106,0,0,0,1.0191-4.33V376.0752h7.7656v50.0879h-7.7656Z" fill="#333e48"/><path d="M350.0347,364.3291a4.74086,4.74086,0,0,1-3.6402-1.2129,4.47239,4.47239,0,0,1-1.1162-3.1553v-1.2627a4.4781,4.4781,0,0,1,1.1162-3.1543,6.06885,6.06885,0,0,1,7.2803,0,4.48566,4.48566,0,0,1,1.116,3.1543v1.2627a4.47992,4.47992,0,0,1-1.116,3.1553A4.7449,4.7449,0,0,1,350.0347,364.3291Zm-3.8828,11.7461h7.7656v50.0879h-7.7656Z" fill="#333e48"/><path d="M385.4658,427.3281a23.4308,23.4308,0,0,1-11.6972-2.6689,26.59161,26.59161,0,0,1-8.1055-7.1348l5.5332-4.4658a21.75466,21.75466,0,0,0,6.5039,5.6787,16.93657,16.93657,0,0,0,8.3481,1.9902q4.95045,0,7.7168-2.1357a7.7581,7.7581,0,0,0,.8741-11.0176q-1.89375-2.0874-6.8438-2.8633l-3.98-.583a33.1705,33.1705,0,0,1-6.4067-1.5039,17.80482,17.80482,0,0,1-5.0962-2.7188,11.66724,11.66724,0,0,1-3.3977-4.2226,13.75072,13.75072,0,0,1-1.2131-6.0176,14.464,14.464,0,0,1,1.3588-6.4551,12.9898,12.9898,0,0,1,3.7374-4.6113,16.35264,16.35264,0,0,1,5.6787-2.7666,26.25036,26.25036,0,0,1,7.0861-.9219,22.11752,22.11752,0,0,1,10.241,2.1358,22.96246,22.96246,0,0,1,7.2319,5.9209l-5.145,4.6592a15.44621,15.44621,0,0,0-4.8535-4.2227,15.63013,15.63013,0,0,0-8.0566-1.8926q-4.8552,0-7.3291,2.0869a7.04,7.04,0,0,0-2.4751,5.6787q0,3.69,2.4751,5.3389a18.468,18.468,0,0,0,7.1347,2.4268l3.8828.582q8.3475,1.2627,11.8428,4.8047a12.63743,12.63743,0,0,1,3.4946,9.2715q0,7.28025-4.9506,11.4541Q394.10525,427.3291,385.4658,427.3281Z" fill="#333e48"/><path d="M428.0811,426.1631q-4.0767,0-6.1644-2.2754a8.46376,8.46376,0,0,1-2.0866-5.9571V382.9668h-8.251v-6.8916h4.6592q2.52315,0,3.4463-1.0196a5.2929,5.2929,0,0,0,.9218-3.5429v-9.3194h6.9893v13.8819h10.9692v6.8916H427.5957v36.3047h10.1924v6.8916Z" fill="#333e48"/><path d="M454.9697,364.3291a4.74061,4.74061,0,0,1-3.6401-1.2129,4.47134,4.47134,0,0,1-1.1167-3.1553v-1.2627a4.477,4.477,0,0,1,1.1167-3.1543,6.06885,6.06885,0,0,1,7.2803,0,4.48578,4.48578,0,0,1,1.1162,3.1543v1.2627a4.48,4.48,0,0,1-1.1162,3.1553A4.74515,4.74515,0,0,1,454.9697,364.3291Zm-3.8828,11.7461h7.7656v50.0879h-7.7656Z" fill="#333e48"/><path d="M493.9922,427.3281a23.07884,23.07884,0,0,1-9.416-1.8447,19.20051,19.20051,0,0,1-7.0376-5.2412,23.33281,23.33281,0,0,1-4.3682-8.251,40.03269,40.03269,0,0,1,0-21.7442,23.34874,23.34874,0,0,1,4.3682-8.2509,19.234,19.234,0,0,1,7.0376-5.2422,23.07872,23.07872,0,0,1,9.416-1.8438q7.4736,0,11.9883,3.251a19.85393,19.85393,0,0,1,6.7466,8.4941l-6.504,3.3008a11.79715,11.79715,0,0,0-4.4653-6.0185,13.40092,13.40092,0,0,0-7.7656-2.1358,15.53182,15.53182,0,0,0-6.1157,1.1162,11.95926,11.95926,0,0,0-4.3682,3.1065,13.07461,13.07461,0,0,0-2.6206,4.7558,20.07583,20.07583,0,0,0-.874,6.0674v8.542a16.25772,16.25772,0,0,0,3.5434,10.8242q3.5421,4.22175,10.4351,4.2227,9.4146,0,13.5896-8.7363l5.6306,3.7851a19.89169,19.89169,0,0,1-7.2319,8.6397A21.1523,21.1523,0,0,1,493.9922,427.3281Z" fill="#333e48"/><path d="M539.2266,427.3281a23.43015,23.43015,0,0,1-11.6973-2.6689,26.59277,26.59277,0,0,1-8.1055-7.1348l5.533-4.4658a21.75772,21.75772,0,0,0,6.5041,5.6787,16.93455,16.93455,0,0,0,8.3482,1.9902q4.95045,0,7.7168-2.1357a7.758,7.758,0,0,0,.874-11.0176q-1.8933-2.0874-6.8437-2.8633l-3.98-.583a33.17156,33.17156,0,0,1-6.4068-1.5039,17.80216,17.80216,0,0,1-5.0962-2.7188,11.66541,11.66541,0,0,1-3.3974-4.2226,13.75066,13.75066,0,0,1-1.2134-6.0176,14.464,14.464,0,0,1,1.3589-6.4551,12.99061,12.99061,0,0,1,3.7373-4.6113,16.35351,16.35351,0,0,1,5.6787-2.7666,26.251,26.251,0,0,1,7.0864-.9219,22.11808,22.11808,0,0,1,10.2408,2.1358,22.96357,22.96357,0,0,1,7.2319,5.9209l-5.145,4.6592a15.44845,15.44845,0,0,0-4.8535-4.2227,15.63051,15.63051,0,0,0-8.0567-1.8926q-4.8552,0-7.3291,2.0869a7.0401,7.0401,0,0,0-2.4753,5.6787q0,3.69,2.4753,5.3389a18.468,18.468,0,0,0,7.1348,2.4268l3.8828.582q8.34735,1.2627,11.8428,4.8047a12.63743,12.63743,0,0,1,3.4946,9.2715q0,7.28025-4.9507,11.4541Q547.866,427.3291,539.2266,427.3281Z" fill="#333e48"/><path d="M126.4834,543.8135a29.19935,29.19935,0,0,1-14.0752-3.1543,29.86992,29.86992,0,0,1-9.9014-8.6885l6.0186-5.0479a26.361,26.361,0,0,0,7.9595,7.2324,20.52376,20.52376,0,0,0,10.29,2.4747q7.28025,0,11.1143-3.4942a11.998,11.998,0,0,0,3.8344-9.3183q0-4.8531-2.9121-7.4747-2.9121-2.622-9.6098-4.1748l-5.5332-1.2617q-9.31935-2.1342-14.2212-6.4551-4.9029-4.31835-4.9019-12.1826a18.41084,18.41084,0,0,1,1.6499-7.959,15.96469,15.96469,0,0,1,4.6109-5.8242,20.81363,20.81363,0,0,1,7.0864-3.5439,32.0876,32.0876,0,0,1,9.0761-1.2139,28.49877,28.49877,0,0,1,13.1534,2.8164,25.339,25.339,0,0,1,9.27,8.25l-6.1152,4.4658a21.13311,21.13311,0,0,0-6.795-6.1162,20.0261,20.0261,0,0,0-9.9013-2.2324q-6.50475,0-10.2412,2.7666-3.73755,2.767-3.7373,8.2998,0,4.85445,3.1552,7.3281,3.15315,2.4756,9.5615,3.9327l5.5328,1.2617q9.99675,2.2338,14.4633,6.7949,4.46415,4.563,4.4654,12.1338a21.47054,21.47054,0,0,1-1.6016,8.4453,17.33161,17.33161,0,0,1-4.6108,6.4062,21.43629,21.43629,0,0,1-7.3286,4.0772A30.45766,30.45766,0,0,1,126.4834,543.8135Z" fill="#333e48"/><path d="M182.0073,543.8135a22.57982,22.57982,0,0,1-9.2217-1.8438,19.85687,19.85687,0,0,1-7.1347-5.291,24.88117,24.88117,0,0,1-4.6109-8.251,36.1678,36.1678,0,0,1,0-21.5986,24.82769,24.82769,0,0,1,4.6109-8.2989,19.8917,19.8917,0,0,1,7.1347-5.291,22.57979,22.57979,0,0,1,9.2217-1.8437,22.25324,22.25324,0,0,1,9.1734,1.8437,20.48191,20.48191,0,0,1,7.1347,5.291,24.42089,24.42089,0,0,1,4.6597,8.2989,36.172,36.172,0,0,1,0,21.5986,24.4716,24.4716,0,0,1-4.6597,8.251,20.44489,20.44489,0,0,1-7.1347,5.291A22.25327,22.25327,0,0,1,182.0073,543.8135Zm0-6.8926a14.111,14.111,0,0,0,10.2896-3.8828q3.9792-3.8805,3.98-11.8418v-7.1836q0-7.95855-3.98-11.8428a15.57523,15.57523,0,0,0-20.5791,0q-3.98145,3.88335-3.98,11.8428v7.1836q0,7.9599,3.98,11.8418A14.107,14.107,0,0,0,182.0073,536.9209Z" fill="#333e48"/><path d="M236.0757,543.8135a23.07764,23.07764,0,0,1-9.4155-1.8438,19.19885,19.19885,0,0,1-7.0376-5.2422,23.32948,23.32948,0,0,1-4.3682-8.251,40.02465,40.02465,0,0,1,0-21.7441,23.34674,23.34674,0,0,1,4.3682-8.251,19.23206,19.23206,0,0,1,7.0376-5.2422,23.07763,23.07763,0,0,1,9.4155-1.8437q7.4736,0,11.9888,3.2519a19.84179,19.84179,0,0,1,6.746,8.4932l-6.5034,3.3008a11.8014,11.8014,0,0,0-4.4658-6.0186,13.4001,13.4001,0,0,0-7.7656-2.1357,15.529,15.529,0,0,0-6.1153,1.1162,11.95832,11.95832,0,0,0-4.3681,3.1064,13.0722,13.0722,0,0,0-2.6211,4.7569,20.07524,20.07524,0,0,0-.8735,6.0664v8.543a16.25934,16.25934,0,0,0,3.5429,10.8232q3.5427,4.2231,10.4351,4.2217,9.4146,0,13.5898-8.7364l5.6304,3.7862a19.89314,19.89314,0,0,1-7.2314,8.6396A21.16223,21.16223,0,0,1,236.0757,543.8135Z" fill="#333e48"/><path d="M270.1467,480.8144a4.73731,4.73731,0,0,1-3.6399-1.2138,4.47154,4.47154,0,0,1-1.1162-3.1543v-1.2618a4.477,4.477,0,0,1,1.1162-3.1552,6.06485,6.06485,0,0,1,7.2803,0,4.48333,4.48333,0,0,1,1.1162,3.1552v1.2618a4.47784,4.47784,0,0,1-1.1162,3.1543A4.74194,4.74194,0,0,1,270.1467,480.8144Zm-3.8825,11.7451h7.7656v50.0889h-7.7656Z" fill="#333e48"/><path d="M309.3638,543.8135a22.48853,22.48853,0,0,1-9.2705-1.8438,19.96464,19.96464,0,0,1-7.086-5.291,24.237,24.237,0,0,1-4.5625-8.251,37.21172,37.21172,0,0,1,0-21.5986,24.19335,24.19335,0,0,1,4.5625-8.2989,20.00011,20.00011,0,0,1,7.086-5.291,22.48851,22.48851,0,0,1,9.2705-1.8437,21.29587,21.29587,0,0,1,9.0273,1.8379,20.00174,20.00174,0,0,1,6.7947,5.0801,22.62979,22.62979,0,0,1,4.3201,7.6894,30.35622,30.35622,0,0,1,1.5048,9.7695v3.6758H294.9971v2.3301a17.14073,17.14073,0,0,0,1.0195,5.9707,14.17412,14.17412,0,0,0,2.9121,4.8047,13.32074,13.32074,0,0,0,4.6592,3.2031,16.00233,16.00233,0,0,0,6.2612,1.1641,15.22623,15.22623,0,0,0,8.2993-2.2324,14.64434,14.64434,0,0,0,5.4849-6.4063l5.5332,4.0059a19.33759,19.33759,0,0,1-7.5718,8.3515A22.84334,22.84334,0,0,1,309.3638,543.8135Zm0-45.9141a14.78284,14.78284,0,0,0-5.8242,1.1094,13.07554,13.07554,0,0,0-4.5137,3.1357,14.69842,14.69842,0,0,0-2.961,4.7744,16.50854,16.50854,0,0,0-1.0678,6.0303v.6748h27.6655v-1.0615q0-6.65625-3.6401-10.6592A12.42258,12.42258,0,0,0,309.3638,497.8994Z" fill="#333e48"/><path d="M354.8896,542.6484q-4.07655,0-6.164-2.2744a8.46807,8.46807,0,0,1-2.0869-5.958V499.4521h-8.251v-6.8926h4.6592q2.52285,0,3.4463-1.0195a5.29039,5.29039,0,0,0,.9216-3.542v-9.3193h6.9895v13.8808h10.9692v6.8926H354.4043v36.3047h10.1924v6.8916Z" fill="#333e48"/><path d="M408.7637,492.5595h7.6689l-22.4233,61.7383a27.56211,27.56211,0,0,1-1.7476,3.7364,7.2775,7.2775,0,0,1-2.1352,2.3789,8.51187,8.51187,0,0,1-3.1548,1.2617,23.442,23.442,0,0,1-4.6109.3887h-3.9799v-6.8926h7.8628l3.7856-10.6612-18.7349-51.9502h7.7657l12.0371,34.0069,2.3296,8.1396h.4853l2.7178-8.1396Z" fill="#333e48"/><path d="M120.8633,637.5615l-2.4151-7.6787H107.749l-2.373,7.6787H99.5947l10.0957-30.1123h7.0742l10.0088,30.1123Zm-7.6787-24.9346h-.2159l-3.8388,12.3809h7.9375Z" fill="#333e48"/><path d="M151.1904,637.5615l-2.416-7.6787H138.0752l-2.3721,7.6787h-5.7812l10.0947-30.1123h7.0762l10.0078,30.1123Zm-7.6797-24.9346h-.2148l-3.8398,12.3809h7.9375Z" fill="#333e48"/><path d="M180.6553,624.8359H168.1016v12.7256h-5.6944V607.4492h5.6944v12.3379h12.5537V607.4492h5.6953v30.1123h-5.6953Z" fill="#333e48"/><path d="M203.9941,623.9297l-4.0117,4.7461v8.8857h-5.6943V607.4492h5.6943V622.29h.2158l4.2705-5.6504,7.4639-9.1904h6.5567l-10.4825,12.5537,11.3457,17.5586h-6.7734Z" fill="#333e48"/><path d="M229.7917,607.4492V625.957a8.63529,8.63529,0,0,0,1.3597,5.3066q1.3593,1.76955,4.5937,1.7686,3.2373,0,4.5957-1.7686a8.64239,8.64239,0,0,0,1.3584-5.3066V607.4492h5.6084v17.7754a23.1337,23.1337,0,0,1-.625,5.7363,9.79,9.79,0,0,1-2.0058,4.0137,8.10468,8.10468,0,0,1-3.6036,2.3506,16.83607,16.83607,0,0,1-5.3711.7539,16.59038,16.59038,0,0,1-5.371-.7539,8.10482,8.10482,0,0,1-3.5586-2.3506,9.56409,9.56409,0,0,1-1.9844-4.0137,23.83976,23.83976,0,0,1-.6035-5.7363V607.4492Z" fill="#333e48"/><text transform="translate(97.55859 738.24704)" font-size="42" fill="#333e48" font-family="FiraSans-Bold, Fira Sans" font-weight="700">Se<tspan x="47.29102" y="0" letter-spacing="-0.00699em">s</tspan><tspan x="67.15747" y="0">sion 2020–2021</tspan></text></g></svg>