<svg xmlns="http://www.w3.org/2000/svg" xmlns:xlink="http://www.w3.org/1999/xlink" viewBox="0 0 633.1895 708.01169"><defs><clipPath id="a"><rect y="-0.002" width="633.1895" height="708.01369" fill="none"/></clipPath></defs><g clip-path="url(#a)"><path d="M79.2227,135.7852a105.36953,105.36953,0,0,0-8.086,33.7128,10.38233,10.38233,0,0,1,13.6778.4786A92.62907,92.62907,0,0,1,177.166,84.541a6.8379,6.8379,0,0,0,0-13.6758,106.40378,106.40378,0,0,0-97.9433,64.92Z" fill="#a39b4b"/><path d="M169.5957,269.48439A92.6309,92.6309,0,0,1,84.543,177.5859a6.8379,6.8379,0,1,0-13.6758,0A106.2154,106.2154,0,0,0,169.0527,283.166a10.37408,10.37408,0,0,1,.543-13.6816Z" fill="#a39b4b"/><path d="M251.2656,243.70509a6.83935,6.83935,0,0,0-9.6699,0,92.31658,92.31658,0,0,1-64.4297,26.0898,6.8379,6.8379,0,0,0,0,13.6758,105.95026,105.95026,0,0,0,74.0996-30.0937A6.83711,6.83711,0,0,0,251.2656,243.70509Z" fill="#a39b4b"/><path d="M177.1709,70.8613A106.19374,106.19374,0,0,0,71.1406,169.502a10.38412,10.38412,0,0,1,13.6699.4697A92.6327,92.6327,0,0,1,177.1709,84.542a6.84036,6.84036,0,0,0,0-13.6807Zm-7.5801,198.62009A92.63555,92.63555,0,0,1,84.541,177.582a6.835,6.835,0,0,0-13.6699,0,106.196,106.196,0,0,0,98.1797,105.58009,10.39167,10.39167,0,0,1,.54-13.6807Zm81.6699-25.7802a6.84418,6.84418,0,0,0-9.6699,0,92.275,92.275,0,0,1-64.4199,26.0908,6.83985,6.83985,0,0,0,0,13.6797,105.93782,105.93782,0,0,0,74.0898-30.0899A6.83172,6.83172,0,0,0,251.2607,243.70119Z" fill="#a39b4b"/><path d="M233.4609,120.8721a79.63114,79.63114,0,1,0,23.3106,56.2998A79.11571,79.11571,0,0,0,233.4609,120.8721ZM132.2314,155.2314H125.751v43.87019h6.4804v3.8105H121.0605V151.4219h11.1709Zm8.8096,47.68069V166.5518c0-3.1397-.0498-5.9698-.1601-8.5206q-.1641-3.81-.4795-6.6093h6.5996v36.2099c0,1.0196.0097,2.2403.04,3.6299.0303,1.4004.0801,2.8096.1299,4.25.0605,1.4395.1201,2.80959.1904,4.12009.0801,1.3096.1699,2.3994.2793,3.2803Zm34.7598-28.61029H169.751v24.39939h6.0498v4.2109H157.7812v-4.2109h5.9502V174.3018h-5.9502v-4.21h18.0196Zm38.1299,25.07029a35.6894,35.6894,0,0,1-.9493,9.0293,15.435,15.435,0,0,1-2.6503,5.7304,9.41118,9.41118,0,0,1-4.0997,3.0196,15.33064,15.33064,0,0,1-5.33.8906,12.43568,12.43568,0,0,1-6.1104-1.7705l2.0899-4.8301a6.5258,6.5258,0,0,0,1.9804.9199,8.92136,8.92136,0,0,0,2.5196.3701,7.35217,7.35217,0,0,0,2.7705-.5,4.59537,4.59537,0,0,0,2.08-1.7597,9.67237,9.67237,0,0,0,1.2998-3.4405,28.39987,28.39987,0,0,0,.4502-5.5693V187.3018a40.14551,40.14551,0,0,0-.4003-6.25,10.79433,10.79433,0,0,0-1.21-3.74031,4.09216,4.09216,0,0,0-2.0098-1.79,8.06868,8.06868,0,0,0-2.8203-.45019,7.50338,7.50338,0,0,0-3.3896.8301,12.12947,12.12947,0,0,0-3.0401,2.12009,15.8042,15.8042,0,0,0-2.4502,2.94041,13.70043,13.70043,0,0,0-1.58,3.2901v18.66009h-5.9502v-19.79a49.68514,49.68514,0,0,0-.5498-8.06061,40.52,40.52,0,0,0-1.0596-4.96969h5.7998a13.06579,13.06579,0,0,1,.3799,1.3301c.1299.5498.25,1.1201.3593,1.7197.1006.5996.2002,1.1904.2803,1.7705l.2598,1.4492a21.25438,21.25438,0,0,1,6.2099-5.29,13.831,13.831,0,0,1,6.5-1.6299,11.40642,11.40642,0,0,1,4.5606.8604,8.0264,8.0264,0,0,1,3.3301,2.7002,13.14729,13.14729,0,0,1,2.04,4.79,31.59514,31.59514,0,0,1,.6895,7.0996Zm19.3408,3.54H222.1113v-3.8105h6.4698V155.2314h-6.4698v-3.8095h11.1602Z" fill="#a39b4b"/><path d="M107.4575,426.15819v-67.7554h8.1538v60.5723h28.8301v7.1831Z" fill="#a39b4b"/><path d="M159.1958,364.32419a4.73989,4.73989,0,0,1-3.6406-1.2134,4.47126,4.47126,0,0,1-1.1162-3.1547v-1.2623a4.477,4.477,0,0,1,1.1162-3.1547,6.06745,6.06745,0,0,1,7.2807,0,4.48375,4.48375,0,0,1,1.1162,3.1547v1.2623a4.478,4.478,0,0,1-1.1162,3.1547A4.74383,4.74383,0,0,1,159.1958,364.32419Zm-3.8828,11.7456h7.7656v50.0884H155.313Z" fill="#a39b4b"/><path d="M179.5806,426.15819v-50.0884h7.7656v8.06155h.3882a16.32327,16.32327,0,0,1,5.1933-6.72655q3.34935-2.49825,8.979-2.4995,7.7652,0,12.2798,4.9985,4.51395,5.001,4.5137,14.12452v32.12988h-7.7656V395.3203q0-13.52343-11.3575-13.52344a17.45253,17.45253,0,0,0-4.5141.584,13.12543,13.12543,0,0,0-3.9312,1.75195,8.64526,8.64526,0,0,0-2.7661,2.9668,8.43941,8.43941,0,0,0-1.0195,4.23145v34.82714Z" fill="#a39b4b"/><path d="M274.5151,424.50829q0,10.3857-5.8242,16.3076-5.8242,5.9202-16.4048,5.9219a26.54331,26.54331,0,0,1-10.5322-1.9009,21.50206,21.50206,0,0,1-7.3286-5.022l4.562-5.3628a17.62314,17.62314,0,0,0,5.8242,3.9966,19.54658,19.54658,0,0,0,7.6685,1.3965q6.794,0,10.5322-3.7519,3.736-3.7566,3.7373-11.0679v-6.9282h-.3882a16.48294,16.48294,0,0,1-5.8242,6.9189,16.0131,16.0131,0,0,1-8.8335,2.3071,19.04113,19.04113,0,0,1-8.4453-1.8442,17.8873,17.8873,0,0,1-6.4062-5.2417,25.21792,25.21792,0,0,1-4.0772-8.251,41.31646,41.31646,0,0,1,0-21.74411,25.23843,25.23843,0,0,1,4.0772-8.251,17.91991,17.91991,0,0,1,6.4062-5.24221,19.04091,19.04091,0,0,1,8.4453-1.8437,17.05337,17.05337,0,0,1,8.979,2.2578,14.09679,14.09679,0,0,1,5.6787,6.96825h.3882v-8.06155h7.7656Zm-20.4819-4.0771a17.52183,17.52183,0,0,0,4.9507-.6827,12.01142,12.01142,0,0,0,4.0283-2.0005,10.01229,10.01229,0,0,0,2.7183-3.2182,9.26635,9.26635,0,0,0,1.019-4.4395V391.45556a8.02737,8.02737,0,0,0-.9707-3.854,9.11217,9.11217,0,0,0-2.7178-3.07275,14.0783,14.0783,0,0,0-4.0771-1.99951,16.41332,16.41332,0,0,0-4.9507-.73243q-6.6021,0-10.4834,4.19532a15.30885,15.30885,0,0,0-3.8828,10.82959v8.58452a15.31068,15.31068,0,0,0,3.8828,10.83Q247.4309,420.43089,254.0332,420.43119Z" fill="#a39b4b"/><path d="M321.8848,418.09719h-.3882a23.91892,23.91892,0,0,1-1.8926,3.4126,12.76774,12.76774,0,0,1-2.7666,2.9785,12.95639,12.95639,0,0,1-3.98,2.0664,17.38268,17.38268,0,0,1-5.436.7685q-7.7673,0-12.3281-4.999-4.56375-4.99875-4.5625-14.124v-32.1304h7.7656v30.8384q0,13.52265,11.4546,13.523a17.36345,17.36345,0,0,0,4.5136-.584,12.47515,12.47515,0,0,0,3.8829-1.75,8.84622,8.84622,0,0,0,2.7182-2.9673,8.65014,8.65014,0,0,0,1.0191-4.3301v-34.73h7.7656v50.0884h-7.7656Z" fill="#a39b4b"/><path d="M350.0347,364.32419a4.739,4.739,0,0,1-3.6402-1.2134,4.47171,4.47171,0,0,1-1.1162-3.1547v-1.2623a4.47743,4.47743,0,0,1,1.1162-3.1547,6.06685,6.06685,0,0,1,7.2803,0,4.48375,4.48375,0,0,1,1.1162,3.1547v1.2623a4.478,4.478,0,0,1-1.1162,3.1547A4.74309,4.74309,0,0,1,350.0347,364.32419Zm-3.8828,11.7456h7.7656v50.0884h-7.7656Z" fill="#a39b4b"/><path d="M385.4658,427.32319a23.43076,23.43076,0,0,1-11.6972-2.6694,26.57836,26.57836,0,0,1-8.1055-7.1348l5.5332-4.4653a21.74625,21.74625,0,0,0,6.5039,5.6787,16.93634,16.93634,0,0,0,8.3481,1.9903q4.95045,0,7.7168-2.1358a7.7581,7.7581,0,0,0,.8741-11.0176q-1.8933-2.08665-6.8438-2.8632l-3.98-.5831a33.17747,33.17747,0,0,1-6.4067-1.5043,17.80509,17.80509,0,0,1-5.0962-2.71782,11.67518,11.67518,0,0,1-3.3975-4.22315,13.75209,13.75209,0,0,1-1.2133-6.01757,14.46743,14.46743,0,0,1,1.3588-6.45557,12.99249,12.99249,0,0,1,3.7374-4.61089,16.34563,16.34563,0,0,1,5.6787-2.7666,26.255,26.255,0,0,1,7.0864-.9218,22.13113,22.13113,0,0,1,10.2407,2.1352,22.97764,22.97764,0,0,1,7.2319,5.92141l-5.145,4.65918a15.45325,15.45325,0,0,0-4.8535-4.22265,15.62993,15.62993,0,0,0-8.0566-1.89258q-4.8552,0-7.3291,2.08691a7.04057,7.04057,0,0,0-2.4751,5.67871q0,3.69,2.4751,5.33887a18.46838,18.46838,0,0,0,7.1347,2.42676l3.8828.582q8.3475,1.2627,11.8428,4.80516a12.636,12.636,0,0,1,3.4946,9.2705q0,7.28025-4.9506,11.4546Q394.10525,427.32419,385.4658,427.32319Z" fill="#a39b4b"/><path d="M428.0811,426.15819q-4.0767,0-6.1641-2.2749a8.46511,8.46511,0,0,1-2.0869-5.9575V382.9619h-8.251v-6.89211h4.6592q2.52315,0,3.4463-1.0195a5.29249,5.29249,0,0,0,.9218-3.543v-9.3188h6.9893v13.8813h10.9692v6.89211H427.5957v36.30469h10.1924v6.8916Z" fill="#a39b4b"/><path d="M454.9697,364.32419a4.7388,4.7388,0,0,1-3.6401-1.2134,4.472,4.472,0,0,1-1.1167-3.1547v-1.2623a4.47773,4.47773,0,0,1,1.1167-3.1547,6.06685,6.06685,0,0,1,7.2803,0,4.4842,4.4842,0,0,1,1.1162,3.1547v1.2623a4.47846,4.47846,0,0,1-1.1162,3.1547A4.74334,4.74334,0,0,1,454.9697,364.32419Zm-3.8828,11.7456h7.7656v50.0884h-7.7656Z" fill="#a39b4b"/><path d="M493.9922,427.32319a23.07877,23.07877,0,0,1-9.416-1.8442,19.20422,19.20422,0,0,1-7.0376-5.2417,23.33109,23.33109,0,0,1-4.3682-8.251,40.03749,40.03749,0,0,1,0-21.74411,23.34894,23.34894,0,0,1,4.3682-8.251,19.23861,19.23861,0,0,1,7.0376-5.24221,23.0787,23.0787,0,0,1,9.416-1.8437q7.4736,0,11.9883,3.2514a19.8472,19.8472,0,0,1,6.7466,8.49369l-6.504,3.30078a11.79745,11.79745,0,0,0-4.4653-6.01855,13.40084,13.40084,0,0,0-7.7656-2.13575,15.53126,15.53126,0,0,0-6.1157,1.11622,11.95842,11.95842,0,0,0-4.3682,3.10644,13.073,13.073,0,0,0-2.6206,4.75635,20.06735,20.06735,0,0,0-.874,6.06689v8.542a16.25562,16.25562,0,0,0,3.5434,10.8237q3.5421,4.2231,10.4351,4.2227,9.4146,0,13.5898-8.7364l5.6304,3.7857a19.89085,19.89085,0,0,1-7.2319,8.6396A21.15545,21.15545,0,0,1,493.9922,427.32319Z" fill="#a39b4b"/><path d="M539.2266,427.32319a23.43012,23.43012,0,0,1-11.6973-2.6694,26.57952,26.57952,0,0,1-8.1055-7.1348l5.5332-4.4653a21.74625,21.74625,0,0,0,6.5039,5.6787,16.934,16.934,0,0,0,8.3482,1.9903q4.95045,0,7.7168-2.1358a7.758,7.758,0,0,0,.874-11.0176q-1.8933-2.08665-6.8437-2.8632l-3.98-.5831a33.17852,33.17852,0,0,1-6.4068-1.5043,17.80509,17.80509,0,0,1-5.0962-2.71782,11.676,11.676,0,0,1-3.3974-4.22315,13.75065,13.75065,0,0,1-1.2134-6.01757,14.46744,14.46744,0,0,1,1.3589-6.45557,12.9933,12.9933,0,0,1,3.7373-4.61089,16.3465,16.3465,0,0,1,5.6787-2.7666,26.255,26.255,0,0,1,7.0864-.9218,22.13128,22.13128,0,0,1,10.2408,2.1352,22.97875,22.97875,0,0,1,7.2319,5.92141l-5.145,4.65918a15.45549,15.45549,0,0,0-4.8535-4.22265,15.63032,15.63032,0,0,0-8.0567-1.89258q-4.8552,0-7.3291,2.08691a7.04057,7.04057,0,0,0-2.4751,5.67871q0,3.69,2.4751,5.33887a18.46832,18.46832,0,0,0,7.1348,2.42676l3.8828.582q8.34735,1.2627,11.8428,4.80516a12.636,12.636,0,0,1,3.4946,9.2705q0,7.28025-4.9507,11.4546Q547.866,427.32419,539.2266,427.32319Z" fill="#a39b4b"/><path d="M126.4834,543.80859a29.19249,29.19249,0,0,1-14.0752-3.1548,29.85607,29.85607,0,0,1-9.9014-8.688l6.0186-5.0478a26.36359,26.36359,0,0,0,7.9595,7.2324,20.52909,20.52909,0,0,0,10.29,2.4751q7.28025,0,11.1143-3.4946a11.99926,11.99926,0,0,0,3.8344-9.3189q0-4.85235-2.9121-7.4741-2.9121-2.62215-9.6098-4.1748l-5.5332-1.2617q-9.31935-2.13435-14.2212-6.4551-4.9029-4.31835-4.9019-12.1826a18.41468,18.41468,0,0,1,1.6499-7.9595,15.9713,15.9713,0,0,1,4.6109-5.8242,20.831,20.831,0,0,1,7.0864-3.5435,32.088,32.088,0,0,1,9.0761-1.2134,28.50388,28.50388,0,0,1,13.1534,2.8155,25.34006,25.34006,0,0,1,9.27,8.251l-6.1152,4.4653a21.12457,21.12457,0,0,0-6.795-6.1157,20.02067,20.02067,0,0,0-9.9013-2.2325q-6.50475,0-10.2412,2.7662-3.73755,2.767-3.7373,8.2998,0,4.8552,3.1552,7.3286,3.15315,2.4756,9.5615,3.9321l5.5328,1.2617q9.99675,2.234,14.4633,6.7949,4.46415,4.563,4.4654,12.1338a21.47019,21.47019,0,0,1-1.6016,8.4453,17.332,17.332,0,0,1-4.6108,6.4063,21.44608,21.44608,0,0,1-7.3286,4.0771A30.45766,30.45766,0,0,1,126.4834,543.80859Z" fill="#a39b4b"/><path d="M182.0073,543.80859a22.58,22.58,0,0,1-9.2217-1.8442,19.85583,19.85583,0,0,1-7.1347-5.2906,24.88566,24.88566,0,0,1-4.6109-8.2509,36.16813,36.16813,0,0,1,0-21.5987,24.83947,24.83947,0,0,1,4.6109-8.2993,19.89388,19.89388,0,0,1,7.1347-5.2905,22.57982,22.57982,0,0,1,9.2217-1.8438,22.25327,22.25327,0,0,1,9.1734,1.8438,20.48424,20.48424,0,0,1,7.1347,5.2905,24.429,24.429,0,0,1,4.6597,8.2993,36.16813,36.16813,0,0,1,0,21.5987,24.47257,24.47257,0,0,1-4.6597,8.2509,20.44378,20.44378,0,0,1-7.1347,5.2906A22.2534,22.2534,0,0,1,182.0073,543.80859Zm0-6.8921a14.11306,14.11306,0,0,0,10.2896-3.8828q3.9792-3.8811,3.98-11.8423v-7.1836q0-7.95855-3.98-11.8428a15.57523,15.57523,0,0,0-20.5791,0q-3.98145,3.88335-3.98,11.8428v7.1836q0,7.9599,3.98,11.8423A14.109,14.109,0,0,0,182.0073,536.91649Z" fill="#a39b4b"/><path d="M236.0757,543.80859a23.0777,23.0777,0,0,1-9.4155-1.8442,19.2012,19.2012,0,0,1-7.0376-5.2417,23.33121,23.33121,0,0,1-4.3682-8.251,40.025,40.025,0,0,1,0-21.7442,23.34713,23.34713,0,0,1,4.3682-8.2509,19.23233,19.23233,0,0,1,7.0376-5.2422,23.07764,23.07764,0,0,1,9.4155-1.8438q7.4736,0,11.9888,3.2515a19.84825,19.84825,0,0,1,6.746,8.4936l-6.5034,3.3008a11.80073,11.80073,0,0,0-4.4658-6.0185,13.39939,13.39939,0,0,0-7.7656-2.1358,15.53082,15.53082,0,0,0-6.1153,1.1162,11.95972,11.95972,0,0,0-4.3681,3.1065,13.07364,13.07364,0,0,0-2.6211,4.7563,20.0837,20.0837,0,0,0-.8735,6.0669v8.5425a16.25962,16.25962,0,0,0,3.5429,10.8237q3.5427,4.2225,10.4351,4.2222,9.4146,0,13.5898-8.7363l5.6304,3.7856a19.894,19.894,0,0,1-7.2314,8.6397A21.15906,21.15906,0,0,1,236.0757,543.80859Z" fill="#a39b4b"/><path d="M270.147,480.80959a4.739,4.739,0,0,1-3.6402-1.2134,4.472,4.472,0,0,1-1.1162-3.1548v-1.2617a4.4781,4.4781,0,0,1,1.1162-3.1553,6.06685,6.06685,0,0,1,7.2803,0,4.48442,4.48442,0,0,1,1.1162,3.1553v1.2617a4.47826,4.47826,0,0,1-1.1162,3.1548A4.74309,4.74309,0,0,1,270.147,480.80959Zm-3.8828,11.7456h7.7656v50.0884h-7.7656Z" fill="#a39b4b"/><path d="M309.3638,543.80859a22.48861,22.48861,0,0,1-9.2705-1.8442,19.96356,19.96356,0,0,1-7.086-5.2906,24.24123,24.24123,0,0,1-4.5625-8.2509,37.21206,37.21206,0,0,1,0-21.5987,24.20454,24.20454,0,0,1,4.5625-8.2993,20.00232,20.00232,0,0,1,7.086-5.2905,22.48853,22.48853,0,0,1,9.2705-1.8438,21.29523,21.29523,0,0,1,9.0273,1.8379,20.00953,20.00953,0,0,1,6.7949,5.0796,22.63672,22.63672,0,0,1,4.3199,7.6899,30.35767,30.35767,0,0,1,1.5048,9.7691v3.6767H294.9971v2.3296a17.13444,17.13444,0,0,0,1.0195,5.9703,14.16307,14.16307,0,0,0,2.9121,4.8046,13.31023,13.31023,0,0,0,4.6592,3.2037,16.00413,16.00413,0,0,0,6.2612,1.1645,15.23429,15.23429,0,0,0,8.2993-2.2324,14.648,14.648,0,0,0,5.4849-6.4068l5.5332,4.0054a19.33175,19.33175,0,0,1-7.5718,8.3516A22.83993,22.83993,0,0,1,309.3638,543.80859Zm0-45.9146a14.78552,14.78552,0,0,0-5.8242,1.1104,13.08516,13.08516,0,0,0-4.5137,3.1352,14.69888,14.69888,0,0,0-2.961,4.7745,16.50419,16.50419,0,0,0-1.0678,6.0302v.6748h27.6655v-1.0615q0-6.65625-3.6401-10.6592A12.42463,12.42463,0,0,0,309.3638,497.894Z" fill="#a39b4b"/><path d="M354.8896,542.64359q-4.07655,0-6.164-2.2749a8.46536,8.46536,0,0,1-2.0869-5.9576v-34.9638h-8.251v-6.8921h4.6592q2.52315,0,3.4463-1.0196a5.29154,5.29154,0,0,0,.9218-3.5424v-9.3194h6.9893v13.8814h10.9692v6.8921H354.4043V535.752h10.1924v6.8916Z" fill="#a39b4b"/><path d="M408.7637,492.55519h7.6689l-22.4233,61.7373a27.53487,27.53487,0,0,1-1.7476,3.7368,7.2746,7.2746,0,0,1-2.1352,2.3784,8.49523,8.49523,0,0,1-3.1548,1.2622,23.446,23.446,0,0,1-4.6109.3882h-3.9799V555.166h7.8628l3.7856-10.6611-18.7349-51.9497h7.7657l12.0371,34.0063,2.3296,8.1392h.4853l2.7178-8.1392Z" fill="#a39b4b"/><path d="M120.8633,637.55659l-2.4151-7.6787H107.749l-2.373,7.6787H99.5947l10.0957-30.1123h7.0742l10.0088,30.1123Zm-7.6787-24.9345h-.2159l-3.8388,12.3808h7.9375Z" fill="#a39b4b"/><path d="M151.1904,637.55659l-2.416-7.6787H138.0752l-2.3721,7.6787h-5.7812l10.0947-30.1123h7.0762l10.0078,30.1123Zm-7.6797-24.9345h-.2148l-3.8398,12.3808h7.9375Z" fill="#a39b4b"/><path d="M180.6553,624.83109H168.1016v12.7255h-5.6944v-30.1123h5.6944v12.3379h12.5537v-12.3379h5.6953v30.1123h-5.6953Z" fill="#a39b4b"/><path d="M203.9941,623.92479l-4.0117,4.7461v8.8857h-5.6943v-30.1123h5.6943v14.8409h.2158l4.2705-5.6504,7.4639-9.1905h6.5567L208.0068,619.998l11.3457,17.5586h-6.7734Z" fill="#a39b4b"/><path d="M229.792,607.44429v18.5078a8.63591,8.63591,0,0,0,1.3594,5.3067q1.3593,1.76955,4.5937,1.7685,3.2373,0,4.5957-1.7685a8.64292,8.64292,0,0,0,1.3584-5.3067v-18.5078h5.6084v17.7754a23.134,23.134,0,0,1-.625,5.7364,9.789,9.789,0,0,1-2.0058,4.0136,8.10384,8.10384,0,0,1-3.6036,2.3506,16.83325,16.83325,0,0,1-5.3711.7539,16.58764,16.58764,0,0,1-5.371-.7539,8.104,8.104,0,0,1-3.5586-2.3506,9.56308,9.56308,0,0,1-1.9844-4.0136,23.84006,23.84006,0,0,1-.6035-5.7364v-17.7754Z" fill="#a39b4b"/></g></svg>