<svg xmlns="http://www.w3.org/2000/svg" xmlns:xlink="http://www.w3.org/1999/xlink" viewBox="0 0 2899.9395 708.664"><defs><clipPath id="a"><rect width="2899.9395" height="708.664" fill="none"/></clipPath></defs><g clip-path="url(#a)"><path d="M155.418,341.4921a13.676,13.676,0,0,1,13.6758,13.6758c-.002-.2773-.0117-.5566-.0117-.8359,0-102.3106,82.9355-185.25,185.25-185.25a13.6748,13.6748,0,0,0,0-27.3496A212.4455,212.4455,0,0,0,141.7324,354.332c0,.2793.0079.5586.0098.8359A13.676,13.676,0,0,1,155.418,341.4921Z" fill="#5a5c66"/><path d="M340.6563,553.2558A13.67482,13.67482,0,0,1,354.3321,539.58c-102.0332,0-184.7872-82.4863-185.2383-184.4121a13.6758,13.6758,0,1,0-27.3516,0A212.43334,212.43334,0,0,0,354.3321,566.9316,13.67482,13.67482,0,0,1,340.6563,553.2558Z" fill="#858591"/><path d="M502.5313,487.4062a13.67543,13.67543,0,0,0-19.3418,0A184.63676,184.63676,0,0,1,354.3321,539.58a13.6758,13.6758,0,0,0,0,27.3516A211.91979,211.91979,0,0,0,502.5313,506.746,13.67664,13.67664,0,0,0,502.5313,487.4062Z" fill="#9f9ea7"/><path d="M466.9141,241.748a159.2227,159.2227,0,1,0,46.6308,112.584A158.17224,158.17224,0,0,0,466.9141,241.748Z" fill="#9f9ea7"/><path d="M242.1211,405.8212V302.8437h22.334v7.6133H251.5098v87.7519h12.9453v7.6123Z" fill="#333e48"/><path d="M466.5391,302.8437V405.8212H444.209v-7.6123h12.9395V310.457H444.209v-7.6133Z" fill="#333e48"/><path d="M293.9903,375.2519c0,2.0547.0332,4.4824.0957,7.2695q.09375,4.18365.2597,8.4971.15825,4.3125.3867,8.2402.21975,3.9258.545,6.5625H282.084V333.0918q0-9.39555-.3223-17.0235-.3192-7.62885-.9648-13.2246h13.1934Z" fill="#fff"/><path d="M351.5957,340.1718v8.4336H339.4961v48.7862h12.0996v8.4316h-36.041v-8.4316H327.461V348.6054H315.5547v-8.4336Z" fill="#fff"/><path d="M378.6289,340.1718a22.28075,22.28075,0,0,1,.7715,2.6739c.2617,1.0937.4922,2.2402.709,3.4414q.31935,1.80165.5801,3.541l.5117,2.8926q6.18165-7.33605,12.4219-10.586a27.83027,27.83027,0,0,1,13.0039-3.25,22.83742,22.83742,0,0,1,9.1074,1.7051,16.06671,16.06671,0,0,1,6.6621,5.4062,26.45805,26.45805,0,0,1,4.0879,9.5918,62.93292,62.93292,0,0,1,1.3828,14.1934v28.959a72.02378,72.02378,0,0,1-1.9004,18.0547,30.93268,30.93268,0,0,1-5.3086,11.4599,18.65706,18.65706,0,0,1-8.207,6.0469,30.52383,30.52383,0,0,1-10.6523,1.7705,22.9929,22.9929,0,0,1-6.211-.9326,23.45379,23.45379,0,0,1-6.0176-2.6074l4.1836-9.6543a12.90174,12.90174,0,0,0,3.959,1.8359,17.59161,17.59161,0,0,0,5.0508.7383,14.56585,14.56585,0,0,0,5.5391-.9961,9.2365,9.2365,0,0,0,4.1484-3.5068,19.21162,19.21162,0,0,0,2.6074-6.8877,56.87134,56.87134,0,0,0,.9004-11.1348V374.6054a78.3972,78.3972,0,0,0-.8047-12.5176,21.6228,21.6228,0,0,0-2.414-7.4668,8.02029,8.02029,0,0,0-4.0254-3.5742,16.10992,16.10992,0,0,0-5.6289-.8984,15.10937,15.10937,0,0,0-6.7871,1.6426,24.99255,24.99255,0,0,0-6.086,4.248,31.55005,31.55005,0,0,0-4.8906,5.8887,27.06724,27.06724,0,0,0-3.1563,6.5644v37.3311H370.2617v-39.583a100.61373,100.61373,0,0,0-1.0957-16.125,81.92217,81.92217,0,0,0-2.125-9.9434Z" fill="#fff"/><text transform="translate(2037.91116 381.83785)" font-size="80" fill="#333e48" font-family="FiraSans-Bold, Fira Sans" font-weight="700">Se<tspan x="90.07813" y="0" letter-spacing="-0.00699em">s</tspan><tspan x="127.91846" y="0">sion 2020–2021</tspan></text><rect x="1925.9492" y="242.8955" width="3" height="228.4453" fill="#333e48"/><path d="M626.6656,336.8339V236.3623h12.0913v89.8193h42.7509v10.6523Z" fill="#333e48"/><path d="M703.3858,245.1425q-3.74565,0-5.398-1.7988a6.6337,6.6337,0,0,1-1.6553-4.6787v-1.8711a6.63622,6.63622,0,0,1,1.6553-4.6777q1.65315-1.79895,5.398-1.7998,3.74115,0,5.3974,1.7998a6.64253,6.64253,0,0,1,1.6553,4.6777v1.8711a6.64,6.64,0,0,1-1.6553,4.6787Q707.12645,245.1455,703.3858,245.1425Zm-5.7578,17.418h11.5156v74.2734H697.628Z" fill="#333e48"/><path d="M733.6133,336.8339V262.5605h11.5156v11.9531h.5757a24.20823,24.20823,0,0,1,7.7007-9.9746q4.9665-3.70455,13.3145-3.706,11.5143,0,18.2089,7.4121,6.693,7.415,6.6934,20.9443v47.6445H780.107V291.1054q0-20.05365-16.8413-20.0527a25.89418,25.89418,0,0,0-6.6939.8652,19.44961,19.44961,0,0,0-5.8296,2.5977,12.84026,12.84026,0,0,0-4.1025,4.3994,12.52708,12.52708,0,0,0-1.5108,6.2744v51.6445Z" fill="#333e48"/><path d="M874.3877,334.3867q0,15.3999-8.6367,24.1816-8.6367,8.78025-24.3262,8.7813a39.36759,39.36759,0,0,1-15.6181-2.8184,31.87524,31.87524,0,0,1-10.8672-7.4473l6.7651-7.9521a26.13874,26.13874,0,0,0,8.6367,5.9267,28.985,28.985,0,0,0,11.3711,2.0704q10.07445,0,15.6177-5.5635,5.5401-5.57085,5.542-16.4111V324.8798h-.5757a24.444,24.444,0,0,1-8.6362,10.2598,23.74853,23.74853,0,0,1-13.0991,3.4209,28.24115,28.24115,0,0,1-12.523-2.7344,26.52464,26.52464,0,0,1-9.5-7.7734,37.39194,37.39194,0,0,1-6.0459-12.2344,61.27863,61.27863,0,0,1,0-32.2431,37.446,37.446,0,0,1,6.0459-12.2354,26.56388,26.56388,0,0,1,9.5-7.7725,28.22881,28.22881,0,0,1,12.523-2.7343,25.287,25.287,0,0,1,13.3149,3.3486,20.89788,20.89788,0,0,1,8.4204,10.332h.5757V262.5605h11.5156Zm-30.372-6.0459a25.95038,25.95038,0,0,0,7.3413-1.0127,17.79555,17.79555,0,0,0,5.9731-2.9658,14.84632,14.84632,0,0,0,4.0308-4.7725,13.739,13.739,0,0,0,1.5112-6.583V285.375a11.91548,11.91548,0,0,0-1.4395-5.7159,13.49927,13.49927,0,0,0-4.0302-4.5556,20.87854,20.87854,0,0,0-6.0454-2.9649,24.32336,24.32336,0,0,0-7.3413-1.0859q-9.79035,0-15.5459,6.2207-5.75835,6.21975-5.7574,16.0586v12.7295q0,9.8364,5.7574,16.0586Q834.22515,328.3412,844.0157,328.3408Z" fill="#333e48"/><path d="M944.6289,324.8798h-.5756a35.44079,35.44079,0,0,1-2.8067,5.0606,18.93231,18.93231,0,0,1-4.102,4.417,19.23883,19.23883,0,0,1-5.9019,3.0635,25.77056,25.77056,0,0,1-8.061,1.1396q-11.51745,0-18.2803-7.4131-6.76755-7.4106-6.7656-20.9433V262.5605h11.5156V308.288q0,20.0523,16.9849,20.0528a25.76977,25.76977,0,0,0,6.6938-.8662,18.46591,18.46591,0,0,0,5.7573-2.5948,13.11257,13.11257,0,0,0,4.0303-4.3994,12.83084,12.83084,0,0,0,1.5112-6.4219v-51.498h11.5157v74.2734H944.6289Z" fill="#333e48"/><path d="M986.3711,245.1425q-3.74415,0-5.3974-1.7988a6.63146,6.63146,0,0,1-1.6553-4.6787v-1.8711a6.634,6.634,0,0,1,1.6553-4.6777q1.653-1.79895,5.3974-1.7998,3.74205,0,5.398,1.7998a6.64518,6.64518,0,0,1,1.6552,4.6777v1.8711a6.64265,6.64265,0,0,1-1.6552,4.6787Q990.1131,245.1455,986.3711,245.1425Zm-5.7573,17.418h11.5151v74.2734H980.6138Z" fill="#333e48"/><path d="M1038.9102,338.5605q-10.3638,0-17.3447-3.958a39.40425,39.40425,0,0,1-12.0196-10.5801l8.2046-6.6211a32.23952,32.23952,0,0,0,9.6441,8.4209,25.11812,25.11812,0,0,0,12.3794,2.9512q7.341,0,11.4428-3.167a11.50393,11.50393,0,0,0,1.2959-16.3379q-2.808-3.09375-10.1479-4.2461l-5.9019-.8642a49.14205,49.14205,0,0,1-9.5-2.2305,26.39976,26.39976,0,0,1-7.5566-4.0303,17.29174,17.29174,0,0,1-5.0381-6.2617,20.39417,20.39417,0,0,1-1.7993-8.9238,21.45092,21.45092,0,0,1,2.0151-9.5733,19.26507,19.26507,0,0,1,5.542-6.8359,24.22147,24.22147,0,0,1,8.4199-4.1025,38.91867,38.91867,0,0,1,10.5078-1.3672q9.06885,0,15.1861,3.166a34.0872,34.0872,0,0,1,10.7241,8.7803l-7.6294,6.9091a22.91636,22.91636,0,0,0-7.1968-6.2607,23.1795,23.1795,0,0,0-11.9472-2.8076q-7.1997,0-10.8677,3.0957a10.43619,10.43619,0,0,0-3.6704,8.4199q0,5.4726,3.6704,7.917,3.6702,2.4492,10.5796,3.5986l5.7578.8633q12.37785,1.87215,17.5605,7.125,5.18265,5.25735,5.1826,13.7461,0,10.796-7.3413,16.9853Q1051.721,338.563,1038.9102,338.5605Z" fill="#333e48"/><path d="M1102.1021,336.8339q-6.04545,0-9.1402-3.374a12.55337,12.55337,0,0,1-3.0947-8.8349V272.7793h-12.2353V262.5605h6.9096q3.74055,0,5.1099-1.5127,1.3659-1.5102,1.3672-5.2529V241.9755h10.3638v20.585h16.2656v10.2188h-16.2656v53.8349h15.1137v10.2197Z" fill="#333e48"/><path d="M1141.9737,245.1425q-3.74415,0-5.3975-1.7988a6.63146,6.63146,0,0,1-1.6553-4.6787v-1.8711a6.634,6.634,0,0,1,1.6553-4.6777q1.6524-1.79895,5.3975-1.7998,3.7419,0,5.3979,1.7998a6.64479,6.64479,0,0,1,1.6553,4.6777v1.8711a6.64226,6.64226,0,0,1-1.6553,4.6787Q1145.7156,245.1455,1141.9737,245.1425Zm-5.7579,17.418h11.5157v74.2734h-11.5157Z" fill="#333e48"/><path d="M1199.8384,338.5605a34.2298,34.2298,0,0,1-13.9624-2.7344,28.473,28.473,0,0,1-10.4355-7.7734,34.57329,34.57329,0,0,1-6.4776-12.2344,59.36646,59.36646,0,0,1,0-32.2431,34.62031,34.62031,0,0,1,6.4776-12.2354,28.515,28.515,0,0,1,10.4355-7.7725,34.215,34.215,0,0,1,13.9624-2.7343q11.0823,0,17.7769,4.8213a29.43205,29.43205,0,0,1,10.0039,12.5947l-9.6441,4.8945a17.49742,17.49742,0,0,0-6.6211-8.9248,19.87777,19.87777,0,0,0-11.5156-3.166,23.03669,23.03669,0,0,0-9.0684,1.6543,17.7221,17.7221,0,0,0-6.4775,4.6074,19.38172,19.38172,0,0,0-3.8862,7.0527,29.76706,29.76706,0,0,0-1.2959,8.9961v12.6661q0,9.791,5.2544,16.0498,5.2521,6.2622,15.4736,6.2617,13.9599,0,20.1519-12.9551L1228.3389,321a29.49143,29.49143,0,0,1-10.7236,12.8105Q1210.4903,338.561,1199.8384,338.5605Z" fill="#333e48"/><path d="M1266.9141,338.5605q-10.3638,0-17.3447-3.958a39.40425,39.40425,0,0,1-12.0196-10.5801l8.2046-6.6211a32.23952,32.23952,0,0,0,9.6441,8.4209,25.11678,25.11678,0,0,0,12.3794,2.9512q7.341,0,11.4428-3.167a11.50393,11.50393,0,0,0,1.2959-16.3379q-2.8074-3.09375-10.1479-4.2461l-5.9019-.8642a49.13329,49.13329,0,0,1-9.5-2.2305,26.39976,26.39976,0,0,1-7.5566-4.0303,17.29174,17.29174,0,0,1-5.0381-6.2617,20.39417,20.39417,0,0,1-1.7993-8.9238,21.45092,21.45092,0,0,1,2.0151-9.5733,19.26507,19.26507,0,0,1,5.542-6.8359,24.22147,24.22147,0,0,1,8.4199-4.1025,38.91762,38.91762,0,0,1,10.5083-1.3672q9.0681,0,15.1856,3.166a34.0872,34.0872,0,0,1,10.7241,8.7803l-7.6294,6.9091a22.90743,22.90743,0,0,0-7.1973-6.2607,23.17632,23.17632,0,0,0-11.9467-2.8076q-7.1997,0-10.8677,3.0957a10.43619,10.43619,0,0,0-3.6704,8.4199q0,5.4726,3.6704,7.917,3.6702,2.4492,10.5796,3.5986l5.7578.8633q12.37785,1.87215,17.561,7.125,5.1819,5.25735,5.1817,13.7461,0,10.796-7.3409,16.9853Q1279.7249,338.563,1266.9141,338.5605Z" fill="#333e48"/><path d="M1378.0362,338.5605q-12.236,0-20.8721-4.6777A44.28338,44.28338,0,0,1,1342.4824,321l8.9244-7.4854a39.09793,39.09793,0,0,0,11.8032,10.7236,30.43168,30.43168,0,0,0,15.2578,3.6709q10.796,0,16.4814-5.1816,5.6844-5.18265,5.6856-13.8193,0-7.19535-4.3184-11.0821-4.3176-3.8877-14.25-6.1904l-8.2046-1.8711q-13.8186-3.16545-21.0874-9.5713-7.2699-6.40425-7.2695-18.0664a27.30854,27.30854,0,0,1,2.4473-11.8027,23.676,23.676,0,0,1,6.8374-8.6358,30.85316,30.85316,0,0,1,10.5073-5.2539,47.57819,47.57819,0,0,1,13.459-1.7998q11.36865,0,19.5039,4.1748a37.5731,37.5731,0,0,1,13.7466,12.2354l-9.0684,6.6211a31.30551,31.30551,0,0,0-10.0757-9.0684q-5.904-3.3105-14.6826-3.3115-9.64455,0-15.1855,4.1025-5.543,4.1031-5.542,12.3067,0,7.1997,4.6782,10.8681,4.6758,3.66945,14.1782,5.8301l8.2046,1.8711q14.8242,3.312,21.4478,10.0752,6.6189,6.76755,6.6211,17.9932a31.839,31.839,0,0,1-2.375,12.5234,25.70357,25.70357,0,0,1-6.837,9.5,31.81125,31.81125,0,0,1-10.8676,6.0459A45.16026,45.16026,0,0,1,1378.0362,338.5605Z" fill="#333e48"/><path d="M1460.3701,338.5605a33.48955,33.48955,0,0,1-13.6748-2.7344,29.43992,29.43992,0,0,1-10.5795-7.8457,36.90439,36.90439,0,0,1-6.8375-12.2344,53.62777,53.62777,0,0,1,0-32.0273,36.82525,36.82525,0,0,1,6.8375-12.3066,29.484,29.484,0,0,1,10.5795-7.8448,33.47476,33.47476,0,0,1,13.6748-2.7343,32.9908,32.9908,0,0,1,13.6026,2.7343,30.36375,30.36375,0,0,1,10.5791,7.8448,36.219,36.219,0,0,1,6.9097,12.3066,53.62777,53.62777,0,0,1,0,32.0273,36.29394,36.29394,0,0,1-6.9097,12.2344,30.31687,30.31687,0,0,1-10.5791,7.8457A33.0053,33.0053,0,0,1,1460.3701,338.5605Zm0-10.2197q9.3546,0,15.2579-5.7578,5.9004-5.7555,5.9013-17.5606V294.371q0-11.80065-5.9013-17.5615-5.90415-5.75535-15.2579-5.7568-9.3588,0-15.2578,5.7568-5.90475,5.75985-5.9018,17.5615v10.6514q0,11.80515,5.9018,17.5606Q1451.0127,328.3427,1460.3701,328.3408Z" fill="#333e48"/><path d="M1540.5454,338.5605a34.22812,34.22812,0,0,1-13.9624-2.7344,28.47886,28.47886,0,0,1-10.436-7.7734,34.5837,34.5837,0,0,1-6.4771-12.2344,59.35366,59.35366,0,0,1,0-32.2431,34.63075,34.63075,0,0,1,6.4771-12.2354,28.52093,28.52093,0,0,1,10.436-7.7725,34.21328,34.21328,0,0,1,13.9624-2.7343q11.0823,0,17.7764,4.8213a29.43314,29.43314,0,0,1,10.0044,12.5947l-9.6445,4.8945a17.49577,17.49577,0,0,0-6.6211-8.9248,19.87557,19.87557,0,0,0-11.5152-3.166,23.037,23.037,0,0,0-9.0688,1.6543,17.72142,17.72142,0,0,0-6.4771,4.6074,19.38172,19.38172,0,0,0-3.8862,7.0527,29.75141,29.75141,0,0,0-1.2959,8.9961v12.6661q0,9.791,5.2539,16.0498,5.253,6.2622,15.4741,6.2617,13.9593,0,20.1519-12.9551L1569.0459,321a29.4925,29.4925,0,0,1-10.7241,12.8105Q1551.19755,338.561,1540.5454,338.5605Z" fill="#333e48"/><path d="M1591.0674,245.1425q-3.7449,0-5.3975-1.7988a6.63184,6.63184,0,0,1-1.6552-4.6787v-1.8711a6.63436,6.63436,0,0,1,1.6552-4.6777q1.6524-1.79895,5.3975-1.7998,3.7413,0,5.398,1.7998a6.64518,6.64518,0,0,1,1.6552,4.6777v1.8711a6.64265,6.64265,0,0,1-1.6552,4.6787Q1594.8094,245.1455,1591.0674,245.1425Zm-5.7578,17.418h11.5156v74.2734h-11.5156Z" fill="#333e48"/><path d="M1649.2198,338.5605a33.34843,33.34843,0,0,1-13.7461-2.7344,29.59307,29.59307,0,0,1-10.5079-7.8457,35.95592,35.95592,0,0,1-6.7656-12.2344,55.1851,55.1851,0,0,1,0-32.0273,35.89143,35.89143,0,0,1,6.7656-12.3066,29.63789,29.63789,0,0,1,10.5079-7.8448,33.33393,33.33393,0,0,1,13.7461-2.7343,31.565,31.565,0,0,1,13.3867,2.7255,29.67842,29.67842,0,0,1,10.0761,7.5313,33.5782,33.5782,0,0,1,6.4053,11.4033,45.01747,45.01747,0,0,1,2.2315,14.4863v5.4522h-53.4029v3.4551a25.40948,25.40948,0,0,0,1.5113,8.8515,21.0229,21.0229,0,0,0,4.3183,7.125,19.7384,19.7384,0,0,0,6.9092,4.751,23.72961,23.72961,0,0,0,9.2842,1.7266,22.59716,22.59716,0,0,0,12.3076-3.3106,21.71951,21.71951,0,0,0,8.1323-9.5l8.2046,5.9395a28.66378,28.66378,0,0,1-11.2275,12.3838A33.86188,33.86188,0,0,1,1649.2198,338.5605Zm0-68.084a21.92711,21.92711,0,0,0-8.6363,1.6465,19.41059,19.41059,0,0,0-6.6933,4.6484,21.79919,21.79919,0,0,0-4.3902,7.0811,24.46343,24.46343,0,0,0-1.5835,8.9414v1.001H1668.94v-1.5742q0-9.87165-5.398-15.8067Q1658.1441,270.477,1649.2198,270.4765Z" fill="#333e48"/><path d="M1716.7281,336.8339q-6.04545,0-9.1402-3.374a12.5511,12.5511,0,0,1-3.0947-8.8349V272.7793h-12.2354V262.5605h6.9092q3.7413,0,5.1104-1.5127,1.3659-1.5102,1.3672-5.2529V241.9755h10.3637v20.585h16.2657v10.2188h-16.2657v53.8349h15.1138v10.2197Z" fill="#333e48"/><path d="M1796.6153,262.5605h11.372l-33.2509,91.5459a40.902,40.902,0,0,1-2.5909,5.542,10.806,10.806,0,0,1-3.167,3.5264,12.58927,12.58927,0,0,1-4.6777,1.8711,34.80094,34.80094,0,0,1-6.8374.5761h-5.9018V355.4023h11.6591l5.6143-15.8086-27.7813-77.0332h11.5157l17.8486,50.4258,3.4546,12.0683h.7197l4.0303-12.0683Z" fill="#333e48"/><path d="M646.794,477.7509l-3.6104-11.4765H627.1934l-3.5459,11.4765h-8.6406l15.0879-45.0039H640.669l14.958,45.0039Zm-11.4766-37.2656h-.3223l-5.7382,18.5039h11.8632Z" fill="#333e48"/><path d="M692.1192,477.7509l-3.6104-11.4765H672.5186l-3.5459,11.4765h-8.6406l15.0878-45.0039h10.5743l14.958,45.0039Zm-11.4766-37.2656h-.3223l-5.7382,18.5039h11.8632Z" fill="#333e48"/><path d="M736.1563,458.7314H717.3936v19.0195h-8.5108V432.747h8.5108v18.4395h18.7627V432.747h8.5107v45.0039h-8.5107Z" fill="#333e48"/><path d="M771.0371,457.3779l-5.9961,7.0918v13.2812h-8.5107V432.747h8.5107v22.1797h.3223l6.3828-8.4453,11.1543-13.7344h9.8008l-15.668,18.7617,16.9571,26.2422H783.8682Z" fill="#333e48"/><path d="M809.5938,432.747v27.6602q0,5.2881,2.0312,7.9316,2.03025,2.64255,6.8662,2.6426,4.83555,0,6.8672-2.6426,2.03025-2.6454,2.0303-7.9316V432.747h8.3818v26.5645a34.52473,34.52473,0,0,1-.9345,8.5742,14.6123,14.6123,0,0,1-2.9981,5.998,12.0935,12.0935,0,0,1-5.3838,3.5137,25.174,25.174,0,0,1-8.0273,1.127,24.79174,24.79174,0,0,1-8.0274-1.127,12.11217,12.11217,0,0,1-5.3193-3.5137,14.291,14.291,0,0,1-2.9658-5.998,35.648,35.648,0,0,1-.9024-8.5742V432.747Z" fill="#333e48"/></g></svg>