<svg xmlns="http://www.w3.org/2000/svg" xmlns:xlink="http://www.w3.org/1999/xlink" viewBox="0 0 655.2671 708.668"><defs><clipPath id="a"><rect width="655.2671" height="708.668" fill="none"/></clipPath></defs><g clip-path="url(#a)"><path d="M155.4067,341.498a13.67484,13.67484,0,0,1,13.6768,13.6749c-.001-.2793-.0107-.5577-.0107-.837,0-102.3105,82.9355-185.2478,185.248-185.2478a13.6754,13.6754,0,0,0,0-27.3508A212.44224,212.44224,0,0,0,141.7222,354.3359c0,.2793.0078.5577.0097.837A13.67506,13.67506,0,0,1,155.4067,341.498Z" fill="#ee212e"/><path d="M340.6448,553.2588a13.67542,13.67542,0,0,1,13.676-13.6748c-102.0312,0-184.7861-82.4863-185.2373-184.4111a13.6758,13.6758,0,0,0-27.3516,0A212.42912,212.42912,0,0,0,354.3208,566.9346,13.67627,13.67627,0,0,1,340.6448,553.2588Z" fill="#46bc96"/><path d="M502.5181,487.4082a13.67616,13.67616,0,0,0-19.3409,0A184.62417,184.62417,0,0,1,354.3208,539.584a13.6753,13.6753,0,1,0,0,27.3506A211.88932,211.88932,0,0,0,502.5181,506.75,13.6738,13.6738,0,0,0,502.5181,487.4082Z" fill="#00c2f3"/><path d="M466.9038,241.7529a159.22137,159.22137,0,1,0,46.6309,112.583A158.16984,158.16984,0,0,0,466.9038,241.7529Z" fill="#00c2f3"/><path d="M242.1128,405.8252V302.8477h22.334v7.6132H251.5015v87.752h12.9453v7.6123Z" fill="#333e48"/><path d="M466.5288,302.8477V405.8252H444.1997v-7.6123h12.9395v-87.752H444.1997v-7.6132Z" fill="#333e48"/><path d="M293.9819,375.2549q0,3.0849.0957,7.2715.09375,4.185.2588,8.4961.15975,4.3125.3867,8.2402.22125,3.9258.5457,6.5625H282.0757V333.0957q0-9.39555-.3223-17.0215-.31935-7.63035-.9658-13.2265h13.1943Z" fill="#fff"/><path d="M351.5874,340.1758v8.4336H339.4858v48.7861h12.1016v8.4307h-36.041v-8.4307h11.9062V348.6094H315.5464v-8.4336Z" fill="#fff"/><path d="M378.6206,340.1758a22.41091,22.41091,0,0,1,.7705,2.6738c.2608,1.0928.4922,2.2393.71,3.4414q.31605,1.8018.5801,3.541l.5117,2.8926q6.1812-7.3344,12.4218-10.585a27.82577,27.82577,0,0,1,13.002-3.25,22.855,22.855,0,0,1,9.1074,1.7041A16.04192,16.04192,0,0,1,422.3862,346a26.48717,26.48717,0,0,1,4.0879,9.5908,62.95391,62.95391,0,0,1,1.3828,14.1944v28.9589a72.0235,72.0235,0,0,1-1.9004,18.0547,30.93125,30.93125,0,0,1-5.3086,11.461,18.65682,18.65682,0,0,1-8.207,6.0459,30.53941,30.53941,0,0,1-10.6513,1.7714,22.98854,22.98854,0,0,1-6.211-.9335,23.49659,23.49659,0,0,1-6.0178-2.6075l4.1838-9.6543a12.9006,12.9006,0,0,0,3.959,1.836,17.62654,17.62654,0,0,0,5.0488.7383,14.56374,14.56374,0,0,0,5.5401-.9971,9.21909,9.21909,0,0,0,4.1484-3.5069,19.15072,19.15072,0,0,0,2.6084-6.8867,56.799,56.799,0,0,0,.9004-11.1347V374.6104a78.39091,78.39091,0,0,0-.8049-12.5186,21.57,21.57,0,0,0-2.4148-7.4658,8.00537,8.00537,0,0,0-4.0244-3.5742,16.11413,16.11413,0,0,0-5.6289-.8995,15.10067,15.10067,0,0,0-6.7871,1.6436,25.03953,25.03953,0,0,0-6.087,4.2461,31.5451,31.5451,0,0,0-4.8889,5.8896,27.06113,27.06113,0,0,0-3.157,6.5645v37.3301H370.2524v-39.583a100.47313,100.47313,0,0,0-1.0966-16.1231,81.99122,81.99122,0,0,0-2.1231-9.9443Z" fill="#fff"/></g></svg>