<svg xmlns="http://www.w3.org/2000/svg" xmlns:xlink="http://www.w3.org/1999/xlink" viewBox="0 0 633.1914 575.3242"><defs><clipPath id="a"><rect width="633.1914" height="575.3242" fill="none"/></clipPath></defs><g clip-path="url(#a)"><path d="M77.7089,170.748a6.8382,6.8382,0,0,1,6.8389,6.8379c-.001-.1397-.0058-.2793-.0058-.419A92.62484,92.62484,0,0,1,177.1679,84.541a6.8374,6.8374,0,0,0,0-13.6748A106.223,106.223,0,0,0,70.8672,177.1669c0,.1397.0039.2793.0048.419A6.8372,6.8372,0,0,1,77.7089,170.748Z" fill="#5a5c66"/><path d="M170.33,276.6298a6.83747,6.83747,0,0,1,6.8379-6.8379,92.62018,92.62018,0,0,1-92.6201-92.206,6.8379,6.8379,0,1,0-13.6758,0A106.21935,106.21935,0,0,0,177.1679,283.4687,6.83826,6.83826,0,0,1,170.33,276.6298Z" fill="#858591"/><path d="M251.2675,243.705a6.83772,6.83772,0,0,0-9.6709,0,92.31816,92.31816,0,0,1-64.4287,26.0869,6.8384,6.8384,0,0,0,0,13.6768,105.96065,105.96065,0,0,0,74.0996-30.0937A6.83826,6.83826,0,0,0,251.2675,243.705Z" fill="#9f9ea7"/><path d="M233.4589,120.875a79.61219,79.61219,0,1,0,23.3155,56.2919A79.08425,79.08425,0,0,0,233.4589,120.875Z" fill="#9f9ea7"/><path d="M121.0625,202.9121V151.4228h11.166v3.8066h-6.4727v43.876h6.4727v3.8067Z" fill="#333e48"/><path d="M233.2714,151.4228v51.4893h-11.164v-3.8067h6.4687v-43.876h-6.4687v-3.8066Z" fill="#333e48"/><path d="M146.9961,187.6269c0,1.0273.0166,2.2422.0488,3.6348q.0468,2.09175.1289,4.249.079,2.15625.1934,4.1201.1113,1.9629.2734,3.2813h-6.5977V166.5468q0-4.6962-.1601-8.5117-.1611-3.8145-.4834-6.6123h6.5967Z" fill="#fff"/><path d="M175.7998,170.0878v4.2168H169.75v24.3926h6.0498v4.2158H157.7793v-4.2158h5.9531V174.3046h-5.9531v-4.2168Z" fill="#fff"/><path d="M189.3164,170.0878a11.03293,11.03293,0,0,1,.3857,1.336c.1299.5469.2461,1.1201.3545,1.7207q.15825.9009.29,1.7705l.2559,1.4463a21.21709,21.21709,0,0,1,6.2109-5.293,13.92357,13.92357,0,0,1,6.501-1.625,11.40351,11.40351,0,0,1,4.5547.8535A8.02661,8.02661,0,0,1,211.2002,173a13.22425,13.22425,0,0,1,2.0439,4.7949,31.47134,31.47134,0,0,1,.6914,7.0976V199.371a36.009,36.009,0,0,1-.9502,9.0274,15.46192,15.46192,0,0,1-2.6543,5.7305,9.33158,9.33158,0,0,1-4.1035,3.0234,15.26837,15.26837,0,0,1-5.3271.8848,11.47324,11.47324,0,0,1-3.1055-.4659,11.70267,11.70267,0,0,1-3.0078-1.3037l2.0918-4.8271a6.45655,6.45655,0,0,0,1.9785.918,8.80887,8.80887,0,0,0,2.5254.3691,7.27637,7.27637,0,0,0,2.7705-.4981,4.62318,4.62318,0,0,0,2.0742-1.7529,9.61178,9.61178,0,0,0,1.3037-3.4443,28.4431,28.4431,0,0,0,.4502-5.5674V187.3046a39.21688,39.21688,0,0,0-.4023-6.2597,10.78629,10.78629,0,0,0-1.2071-3.7324,4.00049,4.00049,0,0,0-2.0127-1.7872,8.05715,8.05715,0,0,0-2.8144-.4502,7.57535,7.57535,0,0,0-3.3945.8213,12.5608,12.5608,0,0,0-3.043,2.1241,15.80948,15.80948,0,0,0-2.4444,2.9443,13.49934,13.49934,0,0,0-1.5781,3.2822v18.666h-5.9521V183.121a50.23051,50.23051,0,0,0-.5489-8.0625,40.7746,40.7746,0,0,0-1.0615-4.9707Z" fill="#fff"/><path d="M129.7666,447.2719H97.5576v-5.3467h32.209Zm-4.1914,56.9302h-5.5196v-5.8604h-12.873v5.8604h-5.6035V475.2876h23.9961Zm-.2579-45.8945-23.6523.0849v-5.3457h23.6523Zm.086,11.206H101.665v-5.3467h23.7383Zm-1.0703-33.1059-21.7285.0859v-5.3467H124.333Zm-4.2774,56.6728V480.5488h-12.959v12.5317Zm55.2617-23.4814-46.2363.0854v-5.2607h11.4629l2.4805-13.2168H132.333v-5.2608h11.5488l1.8379-9.7954H129.3388v-5.3462h42.4727v5.2613H151.4931l-1.7519,9.7949h17.6211l-1.8399,18.477h9.7949Zm-7.4414,34.7739h-5.5175v-5.7744H140.7158v5.7744h-5.6035V475.3735h32.7636Zm-5.5175-11.0356V480.6342H140.6298v12.7032Zm-.8555-42.2159H148.7998l-2.4805,13.3023h13.8574Z" fill="#333e48"/><path d="M271.7607,447.2719H194.0009v-5.3467h77.7598Zm-11.4629,10.9497H204.6943v-5.1748h55.6035Zm0,11.1206H204.6943v-5.1753h55.6035ZM258.288,504.373h-5.5175v-6.0313H212.6494v6.0313h-5.5176V475.2876H258.288Zm-.0859-68.521-50.6426.1279v-5.1753h50.6426Zm-5.4316,57.2285V480.5488H212.6494v12.5317Z" fill="#333e48"/><path d="M368.2041,488.8896H333.7724v5.9453q0,9.5376-10.1386,9.5381h-5.6875l-2.0958-5.2607h7.9551q4.19235,0,4.1934-3.8497v-6.373H290.4443v-5.3467H327.999v-3.6787q8.9355-3.33615,12.7871-6.2441H308.0224v-4.9195h42.2617v4.6626a131.07881,131.07881,0,0,1-16.5117,9.2813v.8984h34.4317Zm-3.5918-15.8691h-5.1348v-8.8536h-59.752v9.3672H294.122V459.163h7.3575V433.0712q6.0702-.59835,13.3027-5.7739l2.8223,3.9351a25.166,25.166,0,0,1-10.6075,5.4321v3.5933h10.9493v4.4482H306.997v4.6621h10.9493v4.3618H306.997v5.4331h45.4668v-5.4331H342.0263v-4.2768h10.4375v-5.0039H342.1123v-4.3628h10.3515v-4.6626H340.3584v-5.1753h17.5371v28.8286h6.7168Zm-24.2539-33.191-2.9922,3.6783a45.74155,45.74155,0,0,0-6.6309-5.0899,51.099,51.099,0,0,1-7.7851,5.3467l-3.5079-3.0801a33.89991,33.89991,0,0,0,7.2735-4.02,74.72334,74.72334,0,0,0-8.4278-2.7373l2.1817-3.9355a79.06783,79.06783,0,0,1,9.5391,3.0795,36.49918,36.49918,0,0,0,5.0898-5.8593l3.5918,2.8657a27.06407,27.06407,0,0,1-4.4473,5.1753A31.92538,31.92538,0,0,1,340.3584,439.8295Zm.5136,15.5689-3.5918,2.8232a39.66306,39.66306,0,0,0-7.1855-4.4052,46.28842,46.28842,0,0,1-8.2129,4.4052l-3.25-2.5664a42.32549,42.32549,0,0,0,7.9121-4.5337,43.42506,43.42506,0,0,0-7.2715-3.3369l3.2071-2.6938a53.404,53.404,0,0,1,7.5293,3.2929,36.41779,36.41779,0,0,0,4.832-4.1059l3.9355,2.0102a21.46573,21.46573,0,0,1-4.875,4.6626A31.83466,31.83466,0,0,1,340.872,455.3984Z" fill="#333e48"/><path d="M464.5615,488.8896H430.1298v5.9453q0,9.5376-10.1367,9.5381h-5.6894l-2.0957-5.2607h7.955q4.1925,0,4.1915-3.8497v-6.373H386.8017v-5.3467h37.5528v-3.6787q8.94135-3.33615,12.791-6.2441H404.3798v-4.9195h42.2598v4.6626a130.90722,130.90722,0,0,1-16.5098,9.2813v.8984h34.4317Zm-3.5918-15.8691h-5.1348v-8.8536H396.083v9.3672h-5.6035V459.163h7.3574V433.0712q6.0732-.59835,13.3027-5.7739l2.8223,3.9351a25.15467,25.15467,0,0,1-10.6074,5.4321v3.5933h10.9492v4.4482H403.3545v4.6621h10.9492v4.3618H403.3545v5.4331h45.4668v-5.4331H438.3857v-4.2768h10.4356v-5.0039H438.4697v-4.3628h10.3516v-4.6626H436.7158v-5.1753h17.5371v28.8286h6.7168Zm-22.7305-18.5816-3.8965,3.563a41.28538,41.28538,0,0,0-6.7851-8.0962q-5.7393,6.3948-9.4336,8.1367l-3.8555-3.2382q4.34775-2.0685,9.4336-7.7325a49.63532,49.63532,0,0,0-8.2441-4.4546l3.3633-3.479a66.50552,66.50552,0,0,1,7.7109,4.2105,24.444,24.444,0,0,0,2.625-6.0332H416.2783v-5.0596h6.9043v-5.2099h4.4316v5.2099h8.1953v5.0596h-1.623a32.16312,32.16312,0,0,1-3.6758,8.7051A39.76234,39.76234,0,0,1,438.2392,454.4389Z" fill="#333e48"/><path d="M562.3291,447.1015l-3.0782,4.4478q-14.5869-3.59265-22.8398-8.2974v3.8496h-28.916v-4.2353q-12.4893,6.45915-22.4121,8.4262l-2.8223-4.4907q24.0351-5.8593,40.0352-19.5898l5.2597,1.7534a7.26956,7.26956,0,0,1-1.498,1.4966Q540.2578,442.2678,562.3291,447.1015Zm-9.1114,24.5078H491.1142v-20.06h62.1035Zm-5.0879,32.8487h-5.2617v-3.4219H501.5517v3.4219H496.29V476.1005h51.8398Zm-28.5293-37.4678V456.2968H496.374v10.6934Zm23.2676,19.333v-5.5176H501.5517v5.5176Zm0,10.0942v-5.6035H501.5517v5.6035Zm-28.957-33.6621-4.4043,3.0796a30.816,30.816,0,0,0-7.7852-5.9453l4.4473-2.5659A21.99383,21.99383,0,0,1,513.9111,462.7553Zm20.7461-20.4018a53.92509,53.92509,0,0,1-12.0195-8.7686,65.65218,65.65218,0,0,1-13.9004,8.7686Zm13.3027,24.6367V456.2968H524.8623v10.6934Zm-5.1777-8.1699a20.36614,20.36614,0,0,1-7.6133,6.8437l-4.7051-2.352q5.6046-3.16485,7.6992-6.3311Z" fill="#333e48"/><path d="M130.1689,377.3515l-1.6348,1.8809a38.199,38.199,0,0,1-13.9843-9.1021l.0351,6.8701H122.79v15.1099h-2.2324v-2.02H106.3427v2.02H104.042V377.0004h8.2402v-6.8701q-3.61815,5.53425-13.0723,8.6626l-1.6523-1.8628q8.38185-2.214,11.9844-6.7998H99.5439V367.934h12.7383v-3.3911q-4.1982.4227-10.543.6153l-1.5097-2.126q14.9853-.05355,23.9296-2.5127l1.6875,1.6875a77.91655,77.91655,0,0,1-11.2617,2.0552v3.6718H127.499v2.1963l-10.0684-.0346A37.44773,37.44773,0,0,0,130.1689,377.3515Zm-9.6113,4.9375v-3.0923h-14.25v3.0923Zm0,5.6402v-3.4786h-14.25v3.4786Z" fill="#333e48"/><path d="M151.30493,378.9677a34.28673,34.28673,0,0,1-5.7968,11.2637l2.0546,1.3003a33.52082,33.52082,0,0,0,5.8692-11.2627Zm-3.707-9.751-1.4766,1.8453a12.99614,12.99614,0,0,1,5.5352,4.2866l1.5449-2.0903A13.22232,13.22232,0,0,0,147.59793,369.2167Zm1.7207-7.871-1.6504,1.687a10.60748,10.60748,0,0,1,5.3242,4.0757l1.6504-1.775A10.76792,10.76792,0,0,0,149.31863,361.3457Z" fill="#333e48"/><path d="M172.28343,384.3105V377.685a20.41755,20.41755,0,0,0,4.5,3.2344l1.4395-1.9517a15.08816,15.08816,0,0,1-7.168-6.2187h6.0078v-2.1612h-5.7441v-4.1997h4.3379v-2.1616h-4.3379v-3.706h-2.2324v3.7417h-6.5176v-3.7417h-2.2324v3.7417h-4.3223v2.1601h4.3574v4.1992h-5.7285v2.1626h5.7988q-1.9482,3.65415-7.0449,6.0782l1.6504,1.9506a21.99179,21.99179,0,0,0,2.7754-1.8969v9.4179a2.67135,2.67135,0,0,0,3.0234,3.0215h11.5079a2.80829,2.80829,0,0,0,2.2226-.9306,7.858,7.858,0,0,0,1.2734-3.6714l-2.2656-1.02a6.90594,6.90594,0,0,1-.6679,2.8105,1.3747,1.3747,0,0,1-1.1758.6152h-10.7188a.85353.85353,0,0,1-.9668-.9668v-3.8818Zm-9.7148-17.9224h6.5527v4.1997h-6.5527Zm.209,6.3609h5.9746a14.5904,14.5904,0,0,0,2.5996,3.9892h-11.1562A12.371,12.371,0,0,0,162.77763,372.749Zm-2.7227,6.1494h9.9981v3.2856h-9.9981Z" fill="#333e48"/><path d="M226.03281,390.354l-1.6347,1.8266q-10.98045-5.9904-13.9512-20.1875-3.671,14.4258-14.9687,20.1875l-1.7754-2.0903q11.19135-5.4471,14.1797-18.062h-11.9473v-2.2666h12.2109a89.81878,89.81878,0,0,0,.2813-9.2422l2.4414.3515q.0879,5.376-.211,8.8555h13.3184v2.2666h-11.0859Q214.99676,384.029,226.03281,390.354Z" fill="#333e48"/><path d="M273.84173,385.7856h-14.1445v2.4429q0,3.917-4.1641,3.9179h-2.3379l-.8593-2.1611h3.2675q1.71975,0,1.7207-1.5815v-2.6182h-15.4257v-2.1963h15.4257v-1.5112a21.9073,21.9073,0,0,0,5.2539-2.565h-13.4589v-2.021h17.3593v1.9151a53.58719,53.58719,0,0,1-6.7812,3.813v.3691h14.1445Zm-1.4765-6.5186h-2.1075v-3.6372h-24.5468v3.8477h-2.3008v-5.9028h3.0215V362.8564a11.64035,11.64035,0,0,0,5.4648-2.3721l1.1582,1.6167a10.32774,10.32774,0,0,1-4.3574,2.2315v1.476h4.498v1.8272h-4.498v1.915h4.498v1.792h-4.498v2.232h18.6777v-2.232h-4.2871v-1.7568h4.2871v-2.0557H263.123v-1.7925h4.2519v-1.9145h-4.9726v-2.126h7.205V373.539h2.7579Zm-9.9629-13.6342-1.2305,1.5102a18.58624,18.58624,0,0,0-2.7227-2.0903,20.88606,20.88606,0,0,1-3.1972,2.1963l-1.4414-1.2647a13.86549,13.86549,0,0,0,2.9863-1.6518,30.70685,30.70685,0,0,0-3.4609-1.125l.8964-1.6162a32.40908,32.40908,0,0,1,3.918,1.2651,14.95164,14.95164,0,0,0,2.0918-2.4072l1.4766,1.1777a11.221,11.221,0,0,1-1.8282,2.126A13.09077,13.09077,0,0,1,262.40233,365.6328Zm.2109,6.3955-1.4746,1.1596a16.29531,16.29531,0,0,0-2.9531-1.81,18.92934,18.92934,0,0,1-3.3731,1.81l-1.3359-1.0542a17.38011,17.38011,0,0,0,3.2519-1.8628,17.82092,17.82092,0,0,0-2.9882-1.3701l1.3183-1.1074a21.8794,21.8794,0,0,1,3.0918,1.353,14.93935,14.93935,0,0,0,1.9863-1.6865l1.6153.8262a8.78112,8.78112,0,0,1-2.002,1.9145A13.0397,13.0397,0,0,1,262.61323,372.0283Z" fill="#333e48"/><path d="M322.30011,389.8793l-1.5469,2.0562a41.9669,41.9669,0,0,1-14.5117-7.0986q-4.7988,3.91845-15.0762,7.2392l-1.7207-2.0908q9.94335-2.75835,15.0391-6.6943a23.935,23.935,0,0,1-6.8691-11.7549,19.36955,19.36955,0,0,1-2.6016,4.6387l-1.8613-1.7041a23.19341,23.19341,0,0,0,3.5664-5.7813h-6.0449v-2.1606h14.0937v-6.0093h2.2656v5.9736h14.336v2.1616h-6.0098q-1.579,9.1722-7.2734,14.6006Q313.26781,387.1913,322.30011,389.8793Zm-9.2949-21.2246h-13.5977a22.14063,22.14063,0,0,0,6.8692,13.0899A22.46445,22.46445,0,0,0,313.00521,368.6547Z" fill="#333e48"/><path d="M369.84634,385.7856h-14.1465v2.4429q0,3.917-4.1641,3.9179h-2.3359l-.8613-2.1611h3.2676q1.7226,0,1.7226-1.5815v-2.6182h-15.4258v-2.1963h15.4258v-1.5112a21.92753,21.92753,0,0,0,5.252-2.565h-13.4571v-2.021H362.483v1.9151a53.75989,53.75989,0,0,1-6.7832,3.813v.3691h14.1465Zm-1.4766-6.5186h-2.1093v-3.6372h-24.5469v3.8477h-2.3008v-5.9028h3.0215V362.8564a11.63852,11.63852,0,0,0,5.4668-2.3721l1.1582,1.6167a10.33628,10.33628,0,0,1-4.3594,2.2315v1.476h4.5v1.8272h-4.5v1.915h4.5v1.792h-4.5v2.232h18.6797v-2.232h-4.2891v-1.7568h4.2891v-2.0557h-4.252v-1.7925h4.252v-1.9145h-4.9727v-2.126H365.61V373.539h2.7597Zm-9.9629-13.6342-1.2304,1.5102a18.80624,18.80624,0,0,0-2.7227-2.0903,21.00561,21.00561,0,0,1-3.1992,2.1963l-1.4395-1.2647a13.96025,13.96025,0,0,0,2.9864-1.6518,30.96452,30.96452,0,0,0-3.461-1.125l.8965-1.6162a32.63795,32.63795,0,0,1,3.918,1.2651,14.93476,14.93476,0,0,0,2.0898-2.4072l1.4766,1.1777a11.20658,11.20658,0,0,1-1.8262,2.126A13.14909,13.14909,0,0,1,358.40684,365.6328Zm.211,6.3955-1.4766,1.1596a16.2814,16.2814,0,0,0-2.9512-1.81,18.96388,18.96388,0,0,1-3.375,1.81l-1.3359-1.0542a17.3178,17.3178,0,0,0,3.252-1.8628,17.86657,17.86657,0,0,0-2.9864-1.3701l1.3164-1.1074a22.01031,22.01031,0,0,1,3.0938,1.353,14.8443,14.8443,0,0,0,1.9844-1.6865l1.6171.8262a8.86094,8.86094,0,0,1-2.0019,1.9145A13.13379,13.13379,0,0,1,358.61784,372.0283Z" fill="#333e48"/><path d="M392.99407,372.4672q3.5508,3.9888,3.5508,7.7837a4.28443,4.28443,0,0,1-.959,2.9341,3.37477,3.37477,0,0,1-2.6797,1.0903,13.9575,13.9575,0,0,1-2.2832-.2285l-.6504-2.3374a12.69872,12.69872,0,0,0,2.7051.4746,1.78694,1.78694,0,0,0,1.2481-.5273,1.83433,1.83433,0,0,0,.5625-1.4058,8.43993,8.43993,0,0,0-.9649-3.3735,13.475,13.475,0,0,0-2.9004-3.9175l3.4258-8.8037H388.832v27.9902h-2.3027V361.9252h9.8554v2.231Zm24.2305,13.231a12.1353,12.1353,0,0,1-1.2305,4.1284,2.709,2.709,0,0,1-2.5117,1.2832h-2.7402q-2.7423,0-2.7422-2.8813v-9.295h-3.7071q-.10545,5.65725-2.205,8.4776-2.1006,2.81985-7.793,4.7353l-1.4766-2.021q5.2881-1.563,7.2578-4.0415,1.96875-2.477,1.9844-7.1152h-4.8144v-2.3018h18.8203v2.2666h-5.8711v8.75a1.34018,1.34018,0,0,0,.2812.8169.81647.81647,0,0,0,.668.3775h2.2324q.68565,0,1.045-1.1245a17.9083,17.9083,0,0,0,.6074-2.9165Zm-2.0215-15.9365-2.2305.0351v-3.0927h-13.248v3.0927H397.457v-5.3242h7.7129v-3.9883h2.3027v3.9536h7.7305Zm-2.9512,3.3906H400.375V370.851h11.8769Z" fill="#333e48"/><path d="M465.85089,385.7856h-14.1445v2.4429q0,3.917-4.1641,3.9179h-2.3359l-.8614-2.1611h3.2676q1.7226,0,1.7227-1.5815v-2.6182h-15.4278v-2.1963h15.4278v-1.5112a21.92643,21.92643,0,0,0,5.2519-2.565h-13.459v-2.021h17.3594v1.9151a53.59425,53.59425,0,0,1-6.7812,3.813v.3691h14.1445Zm-1.4766-6.5186h-2.1074v-3.6372H437.722v3.8477h-2.3028v-5.9028h3.0235V362.8564a11.6429,11.6429,0,0,0,5.4629-2.3721l1.1601,1.6167a10.3514,10.3514,0,0,1-4.3574,2.2315v1.476h4.4981v1.8272h-4.4981v1.915h4.4981v1.792h-4.4981v2.232h18.6758v-2.232H455.097v-1.7568h4.2871v-2.0557h-4.25v-1.7925h4.25v-1.9145h-4.9707v-2.126h7.2031V373.539h2.7578Zm-9.9609-13.6342-1.2324,1.5102a18.7011,18.7011,0,0,0-2.7227-2.0903,20.98579,20.98579,0,0,1-3.1973,2.1963l-1.4414-1.2647a13.92524,13.92524,0,0,0,2.9883-1.6518,30.9707,30.9707,0,0,0-3.4609-1.125l.8945-1.6162a32.41476,32.41476,0,0,1,3.918,1.2651,14.95164,14.95164,0,0,0,2.0918-2.4072l1.4765,1.1777a11.21663,11.21663,0,0,1-1.8281,2.126A13.10129,13.10129,0,0,1,454.41339,365.6328Zm.209,6.3955-1.4746,1.1596a16.35031,16.35031,0,0,0-2.9512-1.81,19.0384,19.0384,0,0,1-3.375,1.81l-1.334-1.0542a17.41486,17.41486,0,0,0,3.25-1.8628,17.81883,17.81883,0,0,0-2.9883-1.3701l1.3184-1.1074a21.8794,21.8794,0,0,1,3.0918,1.353,14.93935,14.93935,0,0,0,1.9863-1.6865l1.6152.8262a8.78072,8.78072,0,0,1-2.0019,1.9145A12.99781,12.99781,0,0,1,454.62239,372.0283Z" fill="#333e48"/><path d="M513.96742,390.3891h-31.9786V388.123h14.9004v-8.2412h-10.7363v-2.2666h10.7363v-7.1685h-7.9609a18.66358,18.66358,0,0,1-4.8145,6.9048l-2.3183-1.2124a19.41158,19.41158,0,0,0,6.4141-13.0366l2.371.6851a26.39813,26.39813,0,0,1-.8261,4.4282h7.0996v-7.6963h2.3711v7.6606h12.4043v2.2666h-12.4043v7.1338h10.5781v2.2661h-10.5781v8.2408h14.7422Z" fill="#333e48"/><path d="M562.3291,368.6191l-1.2637,1.8276a37.482,37.482,0,0,1-9.3828-3.4082v1.5806H539.8037v-1.7393a35.57605,35.57605,0,0,1-9.2051,3.4615l-1.1602-1.8453a38.95027,38.95027,0,0,0,16.4454-8.0468l2.1621.7207a3.03342,3.03342,0,0,1-.6153.6147A34.40116,34.40116,0,0,0,562.3291,368.6191Zm-3.7403,10.0684H533.0771v-8.2408h25.5117Zm-2.0918,13.4931h-2.1621v-1.4053H537.3623v1.4053h-2.1602V380.5322H556.497Zm-11.7207-15.3911v-4.3926h-9.539v4.3926Zm9.5586,7.9419v-2.2666H537.3623v2.2666Zm0,4.1465v-2.3013H537.3623v2.3013Zm-11.8945-13.8277-1.8106,1.2652a12.61423,12.61423,0,0,0-3.1972-2.4424l1.8281-1.0537A9.02288,9.02288,0,0,1,542.4404,375.0502Zm8.5215-8.3808a22.13019,22.13019,0,0,1-4.9375-3.6026,26.99848,26.99848,0,0,1-5.709,3.6026Zm5.4648,10.1201v-4.3926h-9.4883v4.3926Zm-2.125-3.3555a8.38942,8.38942,0,0,1-3.1289,2.8111l-1.9316-.9659a9.12656,9.12656,0,0,0,3.1621-2.601Z" fill="#333e48"/></g></svg>