<svg xmlns="http://www.w3.org/2000/svg" xmlns:xlink="http://www.w3.org/1999/xlink" viewBox="0 0 2678.5557 708.665"><defs><clipPath id="a"><rect width="2678.5557" height="708.665" fill="none"/></clipPath></defs><g clip-path="url(#a)"><text transform="translate(1761.57716 387.73435)" font-size="72" fill="#333e48" font-family="SourceHanSansHC-Medium-B5pc-H, Source Han Sans HC"><tspan letter-spacing="0.03951em">二零二零至二零二一年</tspan><tspan x="748.44727" y="0">度</tspan></text><rect x="1633.9688" y="222.2138" width="3" height="264.2373" fill="#333e48"/><path d="M155.4072,341.4931a13.67632,13.67632,0,0,1,13.6768,13.6758c-.002-.2783-.0117-.5576-.0117-.8369,0-102.3096,82.9355-185.249,185.249-185.249a13.6753,13.6753,0,0,0,0-27.3506A212.44224,212.44224,0,0,0,141.7227,354.332c0,.2793.0078.5586.0097.8369A13.67525,13.67525,0,0,1,155.4072,341.4931Z" fill="#5a5c66"/><path d="M340.6455,553.2558a13.67538,13.67538,0,0,1,13.6758-13.6757c-102.0322,0-184.7871-82.4864-185.2373-184.4112a13.6758,13.6758,0,1,0-27.3516,0A212.436,212.436,0,0,0,354.3213,566.9326,13.67568,13.67568,0,0,1,340.6455,553.2558Z" fill="#858591"/><path d="M502.5205,487.4062a13.67543,13.67543,0,0,0-19.3418,0,184.635,184.635,0,0,1-128.8574,52.1739,13.67625,13.67625,0,0,0,0,27.3525,211.92079,211.92079,0,0,0,148.1992-60.1865A13.67658,13.67658,0,0,0,502.5205,487.4062Z" fill="#9f9ea7"/><path d="M466.9043,241.749a159.22366,159.22366,0,1,0,46.6299,112.583A158.17212,158.17212,0,0,0,466.9043,241.749Z" fill="#9f9ea7"/><path d="M242.1113,405.8222V302.8447h22.334v7.6123H251.5v87.752h12.9453v7.6132Z" fill="#333e48"/><path d="M466.5293,302.8447V405.8222H444.1992V398.209h12.9395V310.457H444.1992v-7.6123Z" fill="#333e48"/><path d="M293.9805,375.2519c0,2.0557.0322,4.4834.0957,7.2705q.09375,4.18365.2588,8.4971.1581,4.3125.3867,8.2402.22125,3.9258.5459,6.5625H282.0733V333.0918q0-9.394-.3213-17.0225-.31935-7.62885-.9659-13.2246h13.1944Z" fill="#fff"/><path d="M351.5859,340.1728v8.4336H339.4854v48.7862h12.1005v8.4316h-36.041v-8.4316h11.9063V348.6064H315.5449v-8.4336Z" fill="#fff"/><path d="M378.6192,340.1728a22.4705,22.4705,0,0,1,.7714,2.6739c.2608,1.0927.4922,2.2392.709,3.4404q.31785,1.8018.5801,3.541l.5117,2.8926q6.18165-7.33455,12.4219-10.585a27.8278,27.8278,0,0,1,13.0029-3.251,22.8165,22.8165,0,0,1,9.1074,1.7061,16.06168,16.06168,0,0,1,6.6631,5.4062,26.47529,26.47529,0,0,1,4.0869,9.5909,62.93469,62.93469,0,0,1,1.3829,14.1943v28.958a72.01828,72.01828,0,0,1-1.9004,18.0547,30.92523,30.92523,0,0,1-5.3086,11.4609,18.66,18.66,0,0,1-8.2071,6.0469,30.52191,30.52191,0,0,1-10.6523,1.7695,23.02764,23.02764,0,0,1-6.2109-.9316,23.487,23.487,0,0,1-6.0176-2.6074l4.1846-9.6543a12.9162,12.9162,0,0,0,3.958,1.8359,17.60056,17.60056,0,0,0,5.0507.7383,14.57919,14.57919,0,0,0,5.5391-.9961,9.23378,9.23378,0,0,0,4.1484-3.5078,19.19593,19.19593,0,0,0,2.6084-6.8867,56.88478,56.88478,0,0,0,.9004-11.1348V374.6064a78.38179,78.38179,0,0,0-.8056-12.5176,21.58959,21.58959,0,0,0-2.4141-7.4668,8.00959,8.00959,0,0,0-4.0244-3.5742,16.11449,16.11449,0,0,0-5.6299-.8994,15.11722,15.11722,0,0,0-6.7871,1.6436,25.00707,25.00707,0,0,0-6.0859,4.247,31.51406,31.51406,0,0,0-4.8897,5.8887,27.03239,27.03239,0,0,0-3.1562,6.5645v37.332H370.251v-39.584a100.48418,100.48418,0,0,0-1.0957-16.124,81.93533,81.93533,0,0,0-2.124-9.9434Z" fill="#fff"/><path d="M731.9268,379.6347H676.9336v-9.1289h54.9932Zm-7.1573,97.2051h-9.4209V466.834H693.3652v10.0058h-9.5673V427.4707h40.9716Zm-.4384-78.3633-40.3868.1465v-9.1289h40.3868Zm.1465,19.1348H683.9443v-9.1289h40.5333Zm-1.8262-56.5273-37.0996.1464v-9.1289h37.0996Zm-7.3028,96.7675V436.4531H693.2197v21.3984Zm94.3565-40.0937-78.9473.1445v-8.9824h19.5723l4.2363-22.5664H736.3076v-8.9824h19.7198l3.1396-16.7246H731.1963v-9.1289h72.5205V360.5H769.0264l-2.9942,16.7246h30.0899l-3.1406,31.5488h16.7236Zm-12.708,59.375h-9.4199v-9.8594H750.6221v9.8594h-9.5664V427.6172h55.9414Zm-9.4199-18.8438V436.5996H750.4756V458.289Zm-1.461-72.082H764.4248l-4.2344,22.7129h23.6622Z" fill="#333e48"/><path d="M974.377,379.6347H841.6055v-9.1289H974.377Zm-19.5723,18.6954H859.8604v-8.836h94.9443Zm0,18.9882H859.8604v-8.8359h94.9443Zm-3.4336,59.8145h-9.4199V466.834H873.4473v10.2988h-9.4229V427.4707h87.3467Zm-.1445-116.9981-86.4707.2188v-8.8359h86.4707Zm-9.2754,97.7168V436.4531H873.4473v21.3984Z" fill="#333e48"/><path d="M1139.0498,450.6953h-58.791v10.1504q0,16.2861-17.3105,16.2871h-9.7129l-3.5782-8.9824h13.584q7.15725,0,7.1582-6.5743V450.6953h-64.123v-9.1289h64.123v-6.2813q15.26085-5.6982,21.836-10.6621H1036.292v-8.4004h72.1582v7.961a223.53125,223.53125,0,0,1-28.1914,15.8476v1.5352h58.791Zm-6.1347-27.0957h-8.7657V408.4824H1022.126v15.9941h-9.5693v-24.539h12.5615V355.3867q10.36815-1.01955,22.7148-9.8574l4.8203,6.7187q-6.6504,6.13485-18.1132,9.2754v6.1348h18.6953v7.5957h-18.6953v7.959h18.6953v7.4492h-18.6953v9.2754h77.6328v-9.2754h-17.8203v-7.3028h17.8203v-8.5449H1094.499v-7.4492h17.6739v-7.9609h-20.668v-8.836h29.9434V399.791h11.4668Zm-41.4102-56.6719-5.1113,6.2793a77.95647,77.95647,0,0,0-11.3203-8.6894,87.4455,87.4455,0,0,1-13.293,9.1289l-5.9883-5.2598a57.8553,57.8553,0,0,0,12.416-6.8633,127.00611,127.00611,0,0,0-14.3887-4.6738l3.7266-6.7207a134.92736,134.92736,0,0,1,16.2852,5.2578,62.23557,62.23557,0,0,0,8.6914-10.0039l6.1347,4.8926a46.30541,46.30541,0,0,1-7.5957,8.8379A54.45731,54.45731,0,0,1,1091.5049,366.9277Zm.875,26.582-6.1328,4.8204a67.66785,67.66785,0,0,0-12.2695-7.5215q-3.9435,2.99415-14.0215,7.5215l-5.5508-4.3809q9.419-4.4532,13.5117-7.7422a74.29753,74.29753,0,0,0-12.416-5.6973l5.4766-4.5996a91.20078,91.20078,0,0,1,12.8535,5.6231q2.04195-1.1661,8.2519-7.0117l6.7188,3.4336a36.64862,36.64862,0,0,1-8.3242,7.9609A54.276,54.276,0,0,1,1092.3799,393.5097Z" fill="#333e48"/><path d="M1303.5733,450.6953h-58.7901v10.1504q0,16.2861-17.3086,16.2871h-9.7138l-3.5772-8.9824h13.584q7.15425,0,7.1562-6.5743V450.6953h-64.1211v-9.1289h64.1211v-6.2813q15.2637-5.6982,21.837-10.6621h-55.9424v-8.4004h72.1562v7.961a223.46734,223.46734,0,0,1-28.1914,15.8476v1.5352h58.7901Zm-6.1329-27.0957h-8.7666V408.4824H1186.6504v15.9941h-9.5664v-24.539h12.5596V355.3867q10.3725-1.01955,22.7129-9.8574l4.8203,6.7187q-6.643,6.13485-18.1123,9.2754v6.1348h18.6963v7.5957h-18.6963v7.959h18.6963v7.4492h-18.6963v9.2754h77.6328v-9.2754h-17.8194v-7.3028h17.8194v-8.5449h-17.6739v-7.4492h17.6739v-7.9609h-20.668v-8.836h29.9434V399.791h11.4677Zm-38.8095-31.7285-6.6553,6.084c-3.0361-4.5625-7.3809-10.2754-11.585-13.8243q-9.80115,10.91895-16.1054,13.8946l-6.584-5.5293q7.4238-3.53325,16.1064-13.2032-9.876-6.15225-14.0752-7.6054l5.7432-5.9414q3.5025,1.3827,13.167,7.1894a41.81322,41.81322,0,0,0,4.4805-10.3008h-21.9903v-8.6386h11.7891v-8.8965h7.5664v8.8965h13.9922v8.6386H1251.71a54.98959,54.98959,0,0,1-6.2744,14.8633C1250.5244,381.3672,1255.4092,387.2636,1258.6309,391.8711Z" fill="#333e48"/><path d="M1470.5108,379.3437l-5.2588,7.5938q-24.9054-6.13485-38.9981-14.168v6.5742h-49.3711v-7.2324q-21.3252,11.03025-38.2695,14.3887l-4.8193-7.668q41.04345-10.00485,68.3584-33.4492l8.9834,2.9941a12.43767,12.43767,0,0,1-2.5586,2.5547Q1432.8232,371.09085,1470.5108,379.3437Zm-15.5577,41.8457h-106.042V386.9375h106.042Zm-8.6894,56.0879h-8.9824v-5.8418h-70.5489v5.8418H1357.75V428.8574h88.5137Zm-48.7119-63.9746V395.0449h-39.6582v18.2578Zm39.7295,33.0098v-9.4199h-70.5489v9.4199Zm0,17.2363v-9.5684h-70.5489v9.5684Zm-49.4434-57.4766-7.5215,5.2579a52.56763,52.56763,0,0,0-13.293-10.1504l7.5958-4.3829A37.58187,37.58187,0,0,1,1387.8379,406.0722Zm35.4229-34.8359a92.0336,92.0336,0,0,1-20.5245-14.9727,112.0567,112.0567,0,0,1-23.7343,14.9727Zm22.7119,42.0664V395.0449h-39.4375v18.2578Zm-8.8369-13.9492q-4.3125,6.8643-13,11.6855l-8.0342-4.0175q9.56835-5.4024,13.1445-10.8086Z" fill="#333e48"/><path d="M732.6143,260.248l-2.7891,3.211q-12.54045-4.40925-23.8809-15.5411l.0606,11.7305h14.0098v25.8008h-3.8106V282H691.9346v3.4492h-3.9317V259.6484h14.0704V247.9179q-6.1788,9.4512-22.3204,14.7911l-2.8193-3.1797q14.31-3.78225,20.46-11.6114H680.3233v-3.75h21.75v-5.789q-7.16895.7206-18,1.0488l-2.5801-3.6289q25.59075-.09075,40.8613-4.291l2.8799,2.8808a132.9213,132.9213,0,0,1-19.2295,3.5098v6.2695h22.0498v3.75l-17.1904-.0586A63.94343,63.94343,0,0,0,732.6143,260.248Zm-16.4102,8.4317v-5.2813H691.874v5.2813Zm0,9.6289v-5.9395H691.874v5.9395Z" fill="#333e48"/><path d="M768.70546,263.0078q-3.78225,11.73345-9.9004,19.2324l3.5098,2.2207a57.23961,57.23961,0,0,0,10.0215-19.2305Zm-6.33-16.6485-2.5215,3.1504a22.19321,22.19321,0,0,1,9.4531,7.3184l2.6367-3.5684Q768.82661,249.0879,762.37546,246.3593Zm2.9384-13.4394-2.8193,2.8789a18.11839,18.11839,0,0,1,9.0918,6.959l2.8184-3.0293A18.38635,18.38635,0,0,0,765.31386,232.9199Z" fill="#333e48"/><path d="M804.52576,272.1308V260.8183a34.81534,34.81534,0,0,0,7.6817,5.5215l2.459-3.332a25.75592,25.75592,0,0,1-12.2403-10.6192H812.684v-3.6894h-9.8076v-7.1699h7.4092v-3.6914h-7.4092v-6.3282h-3.8115v6.3887H787.936v-6.3887h-3.8125v6.3887h-7.3779v3.6895h7.4404v7.1699h-9.7812v3.6914h9.9003q-3.328,6.24015-12.0293,10.3789l2.8184,3.3301a37.6256,37.6256,0,0,0,4.7402-3.2383V279q0,5.1591,5.1602,5.1601H804.645a4.78986,4.78986,0,0,0,3.7949-1.5898q1.3974-1.5909,2.1758-6.2695l-3.8692-1.7403q-.39255,3.75-1.1406,4.7988a2.3471,2.3471,0,0,1-2.0097,1.0508h-18.3008a1.45774,1.45774,0,0,1-1.6485-1.6523v-6.627ZM787.936,241.5293h11.1895v7.1699H787.936Zm.3584,10.8593h10.2002a24.92435,24.92435,0,0,0,4.4404,6.8125h-19.0498A21.14105,21.14105,0,0,0,788.29436,252.3886Zm-4.6475,10.5h17.0694V268.5h-17.0694Z" fill="#333e48"/><path d="M896.29816,282.4492l-2.7891,3.1191q-18.753-10.22745-23.8223-34.4687-6.26955,24.62985-25.5595,34.4687L841.097,282q19.1103-9.3018,24.2109-30.8418h-20.4004V247.289h20.8496a153.84438,153.84438,0,0,0,.4805-15.7812l4.1699.6015q.1494,9.1788-.3603,15.1192h22.7412v3.8711h-18.9297Q877.45626,271.6484,896.29816,282.4492Z" fill="#333e48"/><path d="M977.92987,274.6484h-24.1504v4.1719q0,6.6885-7.1113,6.6894H942.678l-1.4697-3.6894h5.581q2.9385,0,2.9395-2.7012v-4.4707h-26.3399v-3.75h26.3399v-2.5801a37.51881,37.51881,0,0,0,8.9707-4.3789H935.719v-3.4511h29.6397v3.2695a91.80708,91.80708,0,0,1-11.5792,6.5117v.6289h24.1504Zm-2.5195-11.1289h-3.5996v-6.2109h-41.9121v6.5703H925.969V253.7988h5.1602V235.498q4.2597-.41895,9.3291-4.0488l1.9795,2.7598a17.65719,17.65719,0,0,1-7.4395,3.8105v2.5195h7.6797v3.1192h-7.6797v3.2715h7.6797v3.0586h-7.6797v3.8105h31.8906v-3.8105h-7.3203v-3h7.3203v-3.5098h-7.2597v-3.0606h7.2597v-3.2695h-8.4902v-3.6289h12.3008v20.2188h4.7109Zm-17.0117-23.2812-2.0996,2.58a32.10531,32.10531,0,0,0-4.6504-3.5703,35.71277,35.71277,0,0,1-5.46,3.75l-2.4599-2.1582a23.79393,23.79393,0,0,0,5.0996-2.8203,52.67406,52.67406,0,0,0-5.9102-1.9219l1.5313-2.7597a55.62045,55.62045,0,0,1,6.6894,2.1601,25.52691,25.52691,0,0,0,3.5694-4.1094l2.5205,2.0098a18.99805,18.99805,0,0,1-3.1201,3.6309A22.43683,22.43683,0,0,1,958.39867,240.2383Zm.3613,10.9199-2.5224,1.9804a27.68129,27.68129,0,0,0-5.0381-3.0898,32.42561,32.42561,0,0,1-5.7598,3.0898l-2.2822-1.8007a29.62657,29.62657,0,0,0,5.5508-3.1797,30.599,30.599,0,0,0-5.0996-2.3399l2.248-1.8906a37.40771,37.40771,0,0,1,5.2822,2.3106,25.60169,25.60169,0,0,0,3.3906-2.879l2.7598,1.4102a15.0721,15.0721,0,0,1-3.4199,3.2695A22.34473,22.34473,0,0,1,958.76,251.1582Z" fill="#333e48"/><path d="M1060.67192,281.6386l-2.6406,3.5118q-15.26955-4.5-24.7793-12.1211-8.19435,6.69135-25.7422,12.3613l-2.9394-3.5703q16.98045-4.7109,25.6816-11.4317a40.862,40.862,0,0,1-11.7304-20.0703,33.09388,33.09388,0,0,1-4.4414,7.92l-3.1778-2.9082a39.6704,39.6704,0,0,0,6.0879-9.8711H1006.67v-3.6895h24.0625V231.5078h3.8691V241.709h24.4805v3.6894h-10.2617q-2.6982,15.6621-12.4199,24.9297Q1045.25112,277.04885,1060.67192,281.6386Zm-15.871-36.2402h-23.2188q2.39655,13.8897,11.7285,22.3516Q1042.43077,259.2597,1044.80092,245.3984Z" fill="#333e48"/><path d="M1141.853,274.6484h-24.1524v4.1719q0,6.6885-7.1103,6.6894h-3.9893l-1.4687-3.6894h5.5781q2.94,0,2.9414-2.7012v-4.4707h-26.3389v-3.75h26.3389v-2.5801a37.47694,37.47694,0,0,0,8.9687-4.3789h-22.9814v-3.4511h29.6416v3.2695a91.68953,91.68953,0,0,1-11.5801,6.5117v.6289h24.1524Zm-2.5196-11.1289h-3.6005v-6.2109h-41.9131v6.5703h-3.9297V253.7988h5.1601V235.498q4.25985-.41895,9.3321-4.0488l1.9785,2.7598a17.67138,17.67138,0,0,1-7.4414,3.8105v2.5195h7.6816v3.1192h-7.6816v3.2715h7.6816v3.0586h-7.6816v3.8105h31.8926v-3.8105h-7.3233v-3h7.3233v-3.5098h-7.2598v-3.0606h7.2598v-3.2695h-8.4913v-3.6289h12.2998v20.2188h4.7129Zm-17.0127-23.2812-2.1005,2.58a31.97005,31.97005,0,0,0-4.6485-3.5703,35.82087,35.82087,0,0,1-5.4609,3.75l-2.459-2.1582a23.88609,23.88609,0,0,0,5.0996-2.8203,52.99907,52.99907,0,0,0-5.9101-1.9219l1.5312-2.7597a55.73691,55.73691,0,0,1,6.6895,2.1601,25.41883,25.41883,0,0,0,3.5683-4.1094l2.5215,2.0098a19.09478,19.09478,0,0,1-3.1191,3.6309A22.36379,22.36379,0,0,1,1122.32073,240.2383Zm.3604,10.9199-2.5195,1.9804a27.768,27.768,0,0,0-5.0411-3.0898,32.42379,32.42379,0,0,1-5.7597,3.0898l-2.2813-1.8007a29.49264,29.49264,0,0,0,5.5508-3.1797,30.55619,30.55619,0,0,0-5.0996-2.3399l2.25-1.8906a37.54194,37.54194,0,0,1,5.2813,2.3106,25.58151,25.58151,0,0,0,3.3886-2.879l2.7598,1.4102a15.02954,15.02954,0,0,1-3.419,3.2695A22.33983,22.33983,0,0,1,1122.68113,251.1582Z" fill="#333e48"/><path d="M1181.37683,251.9082q6.063,6.8115,6.0634,13.291a7.31523,7.31523,0,0,1-1.6367,5.0098,5.766,5.766,0,0,1-4.5742,1.8613,23.731,23.731,0,0,1-3.9014-.3906l-1.1084-3.9903a21.65925,21.65925,0,0,0,4.6192.8106,3.05415,3.05415,0,0,0,2.1308-.9004,3.13144,3.13144,0,0,0,.96-2.4004,14.38107,14.38107,0,0,0-1.6484-5.7598,22.95288,22.95288,0,0,0-4.9532-6.6894l5.8526-15.0313h-8.9102v47.791h-3.9316V233.9082h16.8301v3.8105Zm41.374,22.5918a20.6907,20.6907,0,0,1-2.1025,7.0488,4.61946,4.61946,0,0,1-4.2881,2.1914h-4.6797q-4.68165,0-4.6797-4.9199V262.9492h-6.332q-.1803,9.6591-3.7627,14.4746-3.5889,4.81635-13.3086,8.0859l-2.5186-3.4511q9.0279-2.669,12.3906-6.9004,3.36045-4.2276,3.3907-12.1485h-8.2207v-3.9316h32.1328v3.8711h-10.0244v14.9414a2.29188,2.29188,0,0,0,.4814,1.3945,1.39635,1.39635,0,0,0,1.1406.6446h3.8106q1.16895,0,1.7842-1.92a30.48561,30.48561,0,0,0,1.0361-4.9804Zm-3.4522-27.211-3.8076.0606v-5.2813h-22.6211v5.2813h-3.872v-9.0918h13.1709v-6.8086h3.9316v6.75h13.1982Zm-5.038,5.7891h-20.2823v-3.9297h20.2823Z" fill="#333e48"/><path d="M1305.77859,274.6484h-24.1524v4.1719q0,6.6885-7.1093,6.6894h-3.9903l-1.4707-3.6894h5.5801q2.94135,0,2.9414-2.7012v-4.4707h-26.3428v-3.75h26.3428v-2.5801a37.46034,37.46034,0,0,0,8.9688-4.3789h-22.9795v-3.4511h29.6396v3.2695a91.68953,91.68953,0,0,1-11.5801,6.5117v.6289h24.1524Zm-2.5215-11.1289h-3.5996v-6.2109h-41.9102v6.5703h-3.9306V253.7988h5.1611V235.498q4.25835-.41895,9.3281-4.0488l1.9805,2.7598a17.67258,17.67258,0,0,1-7.4404,3.8105v2.5195h7.6806v3.1192h-7.6806v3.2715h7.6806v3.0586h-7.6806v3.8105h31.8916v-3.8105h-7.3213v-3h7.3213v-3.5098h-7.2598v-3.0606h7.2598v-3.2695h-8.4903v-3.6289h12.2989v20.2188h4.7109Zm-17.0098-23.2812-2.1015,2.58a32.00555,32.00555,0,0,0-4.6504-3.5703,35.70731,35.70731,0,0,1-5.459,3.75l-2.4609-2.1582a23.78313,23.78313,0,0,0,5.1015-2.8203,52.87047,52.87047,0,0,0-5.9111-1.9219l1.5303-2.7597a55.3265,55.3265,0,0,1,6.6884,2.1601,25.5152,25.5152,0,0,0,3.5733-4.1094l2.5195,2.0098a19.07313,19.07313,0,0,1-3.1211,3.6309A22.37732,22.37732,0,0,1,1286.24729,240.2383Zm.3594,10.9199-2.5195,1.9804a27.88742,27.88742,0,0,0-5.0391-3.0898,32.49765,32.49765,0,0,1-5.7617,3.0898l-2.2793-1.8007a29.62657,29.62657,0,0,0,5.5508-3.1797,30.70857,30.70857,0,0,0-5.1016-2.3399l2.25-1.8906a37.38929,37.38929,0,0,1,5.2783,2.3106,25.51748,25.51748,0,0,0,3.3916-2.879l2.7598,1.4102a15.09478,15.09478,0,0,1-3.4199,3.2695A22.27679,22.27679,0,0,1,1286.60669,251.1582Z" fill="#333e48"/><path d="M1387.93279,282.5097h-54.5996v-3.8691h25.4404V264.5683h-18.3301v-3.8691h18.3301V248.459h-13.5908a31.91408,31.91408,0,0,1-8.2198,11.789l-3.959-2.0703a33.15,33.15,0,0,0,10.9493-22.2598l4.0507,1.17a44.976,44.976,0,0,1-1.4121,7.5605h12.1231V231.5078h4.0488v13.0801h21.1797v3.8711h-21.1797v12.1796h18.0606v3.8692h-18.0606v14.0723h25.169Z" fill="#333e48"/><path d="M1470.5108,245.3379l-2.1592,3.1211q-10.23045-2.51955-16.0215-5.8204v2.6993h-20.2813v-2.9688a60.8146,60.8146,0,0,1-15.7187,5.9102l-1.9805-3.1504q16.86045-4.11045,28.0801-13.7403l3.6895,1.2305a5.12346,5.12346,0,0,1-1.0489,1.0488Q1455.02835,241.95015,1470.5108,245.3379Zm-6.3897,17.1914h-43.5615V248.459h43.5615Zm-3.5693,23.039h-3.6924v-2.3984h-28.9815v2.3984h-3.6884V265.6797h36.3623Zm-20.0127-26.2793v-7.5H1424.25v7.5Zm16.3203,13.5606v-3.8711h-28.9815v3.8711Zm0,7.0801V276h-28.9815v3.9297Zm-20.3106-23.6114-3.0908,2.1602a21.58374,21.58374,0,0,0-5.458-4.1699l3.1192-1.7989A15.41215,15.41215,0,0,1,1436.5488,256.3183Zm14.5508-14.3086a37.78874,37.78874,0,0,1-8.4297-6.1523,46.1537,46.1537,0,0,1-9.75,6.1523Zm9.3301,17.2793v-7.5h-16.1992v7.5Zm-3.6279-5.7304a14.30577,14.30577,0,0,1-5.3438,4.8007l-3.2978-1.6503a15.57693,15.57693,0,0,0,5.3994-4.4395Z" fill="#333e48"/></g></svg>