<?xml version="1.0" encoding="UTF-8"?><svg id="uuid-fe6b20e4-6e0c-48e9-bbaa-f5413cb66064" xmlns="http://www.w3.org/2000/svg" width="568.769376992912498mm" height="250.00126013424628mm" xmlns:xlink="http://www.w3.org/1999/xlink" viewBox="0 0 1612.259675532202891 708.664999999999054"><defs><style>.uuid-88bf700f-416e-4675-8d70-a12dc5103ba4{fill:#fff;}.uuid-29e8a5d4-f604-4eb6-8f5d-de226c0487e2{fill:none;}.uuid-b72ad5d3-ba7a-46a5-87f6-6df9f92367fc{fill:#333e48;}.uuid-ea50de10-f169-4ef9-b28a-13328cc7ebb6{fill:#9f9ea7;}.uuid-d40d5e37-c706-43c9-b738-a4304b71def3{clip-path:url(#uuid-dd252f80-650b-4d33-99d3-be968c19c636);}.uuid-a589c042-5cc9-4771-9d0b-d1750bf7428d{fill:#5a5c66;}.uuid-67f04f9f-5852-4887-87d0-344c46d125ea{fill:#858591;}</style><clipPath id="uuid-dd252f80-650b-4d33-99d3-be968c19c636"><rect class="uuid-29e8a5d4-f604-4eb6-8f5d-de226c0487e2" x=".001000000000204" width="1612.258675532202687" height="708.664999999999054"/></clipPath></defs><g class="uuid-d40d5e37-c706-43c9-b738-a4304b71def3"><path class="uuid-a589c042-5cc9-4771-9d0b-d1750bf7428d" d="M155.408200000000761,341.493099999999686c7.554699999999684,0,13.676699999999983,6.123999999999796,13.676699999999983,13.675799999999981-.001900000000205-.278299999999945-.011700000000019-.557600000000093-.011700000000019-.836900000000242,0-102.310599999999795,82.935600000000704-185.248999999999796,185.248999999999796-185.248999999999796,7.551800000001094,0,13.674800000000687-6.122099999999591,13.674800000000687-13.674799999999777,0-7.552800000000389-6.122999999999593-13.675800000000891-13.674800000000687-13.675800000000891-28.688399999999092,0-56.534100000000763,5.625-82.762699999999313,16.718700000000354-25.319300000001022,10.708999999999833-48.052700000000186,26.033199999999852-67.567300000000614,45.548900000000685-19.51760000000013,19.517499999999927-34.843799999999646,42.25-45.550799999999981,67.570299999999406-11.093799999999646,26.228500000000167-16.717800000000352,54.073199999999815-16.717800000000352,82.761700000000019,0,.279300000000148.007800000000316.558600000000297.009800000000723.836900000000242,0-7.551800000000185,6.121099999999387-13.675799999999981,13.674799999999777-13.675799999999981Z"/><path class="uuid-67f04f9f-5852-4887-87d0-344c46d125ea" d="M340.646500000000742,553.255799999998999c0-7.552699999999277,6.121999999999389-13.675799999999072,13.675699999999779-13.675799999999072-102.032199999999648,0-184.787099999999555-82.486300000000483-185.237299999999777-184.41110000000026,0-7.551800000000185-6.122000000000298-13.675799999999981-13.676699999999983-13.675799999999981-7.55370000000039,0-13.674799999999777,6.123999999999796-13.674799999999777,13.675799999999981.108399999998255,28.393600000000333,5.722599999998238,55.952099999999518,16.707999999999629,81.924799999999777,10.707000000000335,25.318400000000111,26.033199999999852,48.052700000000186,45.550799999999981,67.568400000000111,19.514600000000428,19.517499999999927,42.247999999999593,34.841800000000148,67.567300000000614,45.550699999999779,26.228599999998551,11.09479999999985,54.074300000000221,16.71979999999985,82.762699999999313,16.71979999999985-7.55370000000039,0-13.675699999999779-6.123099999999795-13.675699999999779-13.676800000000185Z"/><path class="uuid-ea50de10-f169-4ef9-b28a-13328cc7ebb6" d="M502.521500000000742,487.406199999999444c-5.342800000000352-5.341800000000148-14-5.341800000000148-19.341800000000148,0-33.340900000001056,32.289099999999962-78.775400000000445,52.173800000000483-128.857500000000073,52.173800000000483-7.55370000000039,0-13.675699999999779,6.123099999999795-13.675699999999779,13.675799999999072,0,7.55370000000039,6.121999999999389,13.676800000000185,13.675699999999779,13.676800000000185,28.689500000000407,0,56.533199999999852-5.625,82.760800000000017-16.71979999999985,24.407199999999648-10.322199999999611,46.400400000000445-24.947199999999611,65.438500000000204-43.466800000000148,5.340799999999945-5.339799999999741,5.340799999999945-14,0-19.339799999999741Z"/><path class="uuid-ea50de10-f169-4ef9-b28a-13328cc7ebb6" d="M466.905200000001059,241.747999999999593c-30.071200000000317-30.070300000000316-70.055600000001505-46.629899999999907-112.584899999999834-46.629899999999907-42.526400000000649,0-82.510800000000017,16.559599999999591-112.582000000000335,46.629899999999907-30.071300000001429,30.072299999999814-46.634799999999814,70.056599999999889-46.634799999999814,112.583999999999833,0,42.529300000000148,16.563499999998385,82.507800000000316,46.634799999999814,112.582000000000335,30.071200000000317,30.07129999999961,70.055599999999686,46.635800000000017,112.582000000000335,46.635800000000017,42.529299999998329,0,82.513699999999517-16.564500000000407,112.584899999999834-46.635800000000017,30.070399999998699-30.074200000000019,46.629899999999907-70.052700000000186,46.629899999999907-112.582000000000335,0-42.527399999999943-16.559500000001208-82.511700000000019-46.629899999999907-112.583999999999833Z"/><path class="uuid-b72ad5d3-ba7a-46a5-87f6-6df9f92367fc" d="M242.112300000000687,405.822199999999611v-102.977499999999964h22.334000000000742v7.612299999999777h-12.945300000001225v87.751900000000205h12.945300000001225v7.613299999999981h-22.334000000000742Z"/><path class="uuid-b72ad5d3-ba7a-46a5-87f6-6df9f92367fc" d="M466.530200000001059,302.844699999999648v102.977499999999964h-22.329999999999927v-7.613299999999981h12.939399999999296v-87.751900000000205h-12.939399999999296v-7.612299999999777h22.329999999999927Z"/><path class="uuid-88bf700f-416e-4675-8d70-a12dc5103ba4" d="M293.981400000000576,375.251899999999296c0,2.055699999999888.032199999999648,4.483400000000074.095699999999852,7.270500000000538.0625,2.789099999999962.151400000000649,5.623999999999796.25879999999961,8.497099999999591.106500000001688,2.875.234400000001187,5.623000000000502.386700000000928,8.240200000000186.147500000000946,2.617199999999684.331099999999424,4.804699999999684.545899999999165,6.5625h-13.193299999998999v-72.730500000000575c0-6.26260000000002-.106500000001688-11.9375-.322299999999814-17.022399999999834-.212900000000445-5.085900000000038-.535200000000259-9.495100000000093-.965800000001764-13.224599999999555h13.194300000001022v72.407199999999648Z"/><path class="uuid-88bf700f-416e-4675-8d70-a12dc5103ba4" d="M351.586900000000242,340.17279999999937v8.433600000000297h-12.100599999999758v48.78610000000026h12.100599999999758v8.431699999999182h-36.040999999999258v-8.431699999999182h11.906199999999444v-48.78610000000026h-11.906199999999444v-8.433600000000297h36.040999999999258Z"/><path class="uuid-88bf700f-416e-4675-8d70-a12dc5103ba4" d="M378.620100000001912,340.17279999999937c.256799999999203.6875.514599999998609,1.576200000000426.771499999998923,2.673799999999574.260699999998906,1.092800000000352.492200000000594,2.239300000001094.708999999998923,3.440500000000611.211900000002061,1.201100000000224.405200000001059,2.381800000000112.580000000001746,3.541000000000167l.511800000000221,2.89260000000013c4.121099999998478-4.88970000000063,8.258699999998498-8.417000000000371,12.421800000000076-10.585000000000036,4.163099999997939-2.166000000000167,8.5-3.251000000000204,13.002999999998792-3.251000000000204,3.433600000000297,0,6.469699999999648.568400000000111,9.107399999998961,1.706100000000333,2.638700000001336,1.139599999999518,4.860300000000279,2.941399999999703,6.663100000001577,5.406199999999444,1.799800000000687,2.468800000000556,3.161099999999351,5.666000000000167,4.086899999998423,9.590799999999945.921900000001187,3.927800000000389,1.382800000001225,8.654300000000148,1.382800000001225,14.194400000000314v28.957999999999629c0,7.253900000000613-.634799999999814,13.273400000000038-1.900400000000445,18.054699999999684-1.263699999999517,4.787100000000464-3.036099999999351,8.605400000000373-5.308600000000297,11.460900000000038-2.272399999999834,2.849600000000464-5.010699999998906,4.867200000000594-8.206999999998516,6.046900000000278-3.19629999999961,1.181600000000799-6.746100000000297,1.769500000000335-10.652400000000853,1.769500000000335-1.929699999998775,0-4-.310500000000502-6.210900000000038-.931599999999889-2.208999999998923-.625-4.214799999999741-1.490300000000389-6.01759999999922-2.60739999999987l4.184600000000501-9.654300000000148c.986299999998664.728499999999258,2.305699999998978,1.339799999999741,3.957999999998719,1.835900000000038,1.65139999999883.492199999999684,3.336900000000242.738299999999981,5.050800000000891.738299999999981,2.0625,0,3.907199999997829-.332100000000537,5.53899999999885-.996100000000297,1.629899999999907-.666000000000167,3.011800000000221-1.833999999999833,4.14850000000115-3.507800000000316,1.137699999999313-1.673899999999776,2.006799999999203-3.968799999999646,2.608399999999165-6.886699999999109.599599999999555-2.920000000000073.900400000000445-6.630900000000111.900400000000445-11.134800000000723v-28.32129999999961c0-5.148400000000038-.268599999999424-9.322300000000723-.804700000000594-12.51760000000013-.536199999998644-3.19629999999961-1.342800000000352-5.686499999999796-2.415100000000166-7.466800000000148-1.071200000000317-1.780300000000352-2.412999999998647-2.971700000000055-4.024400000000242-3.574200000000019-1.605400000000373-.59769999999935-3.483399999999165-.899399999999332-5.629899999999907-.899399999999332-2.315399999999499,0-4.577099999998609.54779999999937-6.787099999999555,1.643499999999221-2.209899999999834,1.092800000000352-4.24120000000039,2.509800000000723-6.085900000000038,4.247100000000501-1.844699999999648,1.736299999999574-3.474599999999555,3.697299999999814-4.889600000000428,5.888699999999517-1.415100000000166,2.1875-2.468800000000556,4.375-3.156300000000556,6.564400000000205v37.332099999999627h-11.905299999998533v-39.583999999999833c0-6.350599999999758-.365200000000186-11.724599999999555-1.095700000001671-16.123999999999796-.727499999999054-4.397500000000036-1.438499999998385-7.712899999999536-2.123999999999796-9.943400000000111h11.587900000002264Z"/><path class="uuid-b72ad5d3-ba7a-46a5-87f6-6df9f92367fc" d="M731.926199999999881,379.628899999999703h-54.992599999999584v-9.128899999999703h54.992599999999584v9.128899999999703ZM724.769500000000335,476.834899999999834h-9.421399999999267v-10.005800000000818h-21.982900000000882v10.005800000000818h-9.566899999999805v-49.370100000000093h40.971199999999953v49.370100000000093ZM724.331000000000131,398.471599999998944l-40.386699999999109.145500000000538v-9.127899999999499h40.386699999999109v8.982399999998961ZM724.477000000000771,417.605399999999463h-40.53269999999975v-9.128899999999703h40.53269999999975v9.128899999999703ZM722.651299999999537,361.079099999999016l-37.100099999999657.14640000000054v-9.128900000000613h37.100099999999657v8.982500000000073ZM715.348100000001068,457.845699999999852v-21.397500000000036h-22.12840000000142v21.397500000000036h22.12840000000142ZM809.70549580642728,417.751899999999296l-78.947695806426054.145500000000538v-8.98240000000078h19.572299999999814l4.236297199357068-22.566399999999703h-18.25779719935781v-8.983400000000074h19.718697162452372l3.140199920671876-16.724599999999555h-27.971197083123116v-9.128900000000613h72.520495957713138v8.983400000000074h-34.690499123644258l-2.994099924362672,16.724600000000464h30.089399239877821l-3.140699920659245,31.548799999999574h16.724599577501067v8.983400000000074ZM796.997496127458362,477.126899999999296h-9.420899762008048v-9.859399999999368h-36.954099066460913v9.859399999999368h-9.567297298988706v-49.515599999999722h55.942296127457666v49.515599999999722ZM787.576596365450314,458.284099999999853v-21.690400000000409h-37.100099062772642v21.690400000000409h37.100099062772642ZM786.115696402355752,386.202099999999518h-21.690399452054407l-4.235399893004796,22.712899999999536h23.662099402245076l2.263699942814128-22.712899999999536Z"/><path class="uuid-b72ad5d3-ba7a-46a5-87f6-6df9f92367fc" d="M974.376891646477816,379.628899999999703h-132.770996645922423v-9.128899999999703h132.770996645922423v9.128899999999703ZM954.804692140913176,398.32510000000002h-94.94189760156587v-8.835900000000038h94.94189760156587v8.835900000000038ZM954.804692140913176,417.313399999999092h-94.94189760156587v-8.836899999999332h94.94189760156587v8.836899999999332ZM951.37249222761784,477.126899999999296h-9.420899762008048v-10.297800000000279h-68.504398269433295v10.297800000000279h-9.420899762008048v-49.662099999999555h87.346197793449392v49.662099999999555ZM951.226492231306111,360.129799999999705l-86.470197815579013.218799999999646v-8.836900000000242h86.470197815579013v8.618100000000595ZM941.951592465609792,457.845699999999852v-21.397500000000036h-68.504398269433295v21.397500000000036h68.504398269433295Z"/><path class="uuid-b72ad5d3-ba7a-46a5-87f6-6df9f92367fc" d="M1139.050787486465197,450.689399999999296h-58.791098514811893v10.151400000000649c0,10.856399999999667-5.769499854250171,16.286099999999351-17.310499562699988,16.286099999999351h-9.712899754631508l-3.578099909609591-8.98239999999987h13.583999656839296c4.771399879464298,0,7.158199819168658-2.192399999999907,7.158199819168658-6.573300000000017v-10.881800000000112h-64.123098380114243v-9.128899999999703h64.123098380114243v-6.281300000000556c10.173799742988194-3.79779999999937,17.453099559097609-7.350499999999556,21.835899448378768-10.662099999999555h-55.943398586750845v-8.399400000000242h72.15820991765213v7.96100000000024c-7.597611548590066,5.16110000000026-16.99411131121451,10.443299999999908-28.19141102834692,15.847600000000057v1.534200000000055h58.791098514811893v9.128899999999703ZM1132.91598764144328,423.593699999999444h-8.765599778562319v-15.117199999999684h-102.023497422669607v15.994200000000092h-9.56879044021116v-24.538100000000668h12.561000000001513v-44.550799999999981c6.912090190005983-.680699999999888,14.486289998665598-3.967799999999443,22.714889790793677-9.858399999999165l4.82029987822898,6.718699999999444c-4.433599887997843,4.089899999999943-10.470699735487869,7.182700000000295-18.113299542419554,9.275400000000445v6.134799999999814h18.695299527716998v7.595699999999852h-18.695299527716998v7.960000000000036h18.695299527716998v7.448199999999815h-18.695299527716998v9.27639999999974h77.632798038830515v-9.27639999999974h-17.820299549821357v-7.302700000000186h17.820299549821357v-8.543999999999869h-17.673799553522258v-7.449200000000019h17.673799553522258v-7.960900000000038h-20.667999477882404v-8.836899999999332h29.943399243566091v49.223599999999351h11.466799710324267v23.807600000000093ZM1091.505788687552922,366.921800000000076l-5.111299870877701,6.280299999999443c-2.777299929839501-2.676800000000185-6.550799834512873-5.574200000000019-11.320299714025168-8.690400000000409-3.943399900381337,3.311500000000706-8.374999788429704,6.353500000000167-13.292999664190575,9.128900000000613l-5.988299848722818-5.25880000000052c4.722699880694563-1.94629999999961,8.859399776192731-4.235399999999572,12.416099686342932-6.864299999999275-5.941399849907611-2.239199999999983-10.736399728775723-3.797800000000279-14.388699636510864-4.673800000000483l3.726599905858166-6.719699999999648c5.402299863526423,1.363299999999981,10.831999726360664,3.117199999999684,16.285099588603771,5.257799999999406,3.456999912668834-3.259799999999814,6.35349983949709-6.595699999999852,8.691399780436768-10.004899999999907l6.134799845021917,4.893600000000333c-1.949199950759066,3.018500000000131-4.48049988681305,5.964799999999741-7.595699808116478,8.836899999999332,3.601499909018457,2.043900000000576,7.083999821043108,4.649400000000242,10.443299736180052,7.814400000001115ZM1092.380788665448563,393.504799999999705l-6.132799845072441,4.820300000000316c-3.943299900383863-3.018500000000131-8.035099797016301-5.525300000000243-12.269499690046359-7.52140000000054-2.6288999335884,1.996100000000297-7.302699815518281,4.502900000000409-14.021499645787117,7.52140000000054l-5.550799859774997-4.381800000001022c6.27929984137154-2.968699999999444,10.783199727593455-5.550799999999072,13.511699658665748-7.74119999999948-2.728499931072292-1.703099999999722-6.865199826570461-3.602499999999964-12.415999686345458-5.697299999999814l5.476599861649447-4.599600000000464c5.013699873343285,1.801800000000185,9.298799765092554,3.675799999999981,12.853499675293278,5.622100000000501,1.361299965610669-.777299999999741,4.113299896089302-3.114300000000185,8.251999791536946-7.010700000000725l6.718699830271362,3.432600000000093c-2.482399937289301,3.213800000000447-5.255799867227324,5.868100000000595-8.32419978971302,7.960900000000038,4.040999897915754,1.850600000000668,8.007799797705957,4.381800000000112,11.902299699322612,7.594700000000557Z"/><path class="uuid-b72ad5d3-ba7a-46a5-87f6-6df9f92367fc" d="M1303.576100000000224,450.689399999999296h-58.790999999999258v10.151400000000649c0,10.856399999999667-5.769515038859026,16.286099999999351-17.308614747356842,16.286099999999351h-9.712899754631508l-3.578099909609591-8.98239999999987h13.583999656839296c4.769499879512296,0,7.156299819216656-2.192399999999907,7.156299819216656-6.573300000000017v-10.881800000000112h-64.121098380164767v-9.128899999999703h64.121098380164767v-6.281300000000556c10.175699742940196-3.79779999999937,17.453099559097609-7.350499999999556,21.83779944833077-10.662099999999555h-55.943298586753372v-8.399400000000242h72.156198177181068v7.96100000000024c-7.595699808116478,5.16110000000026-16.994099570692924,10.443299999999908-28.191384103216478,15.847600000000057v1.534200000000055h58.790999999999258v9.128899999999703ZM1297.443283485134089,423.593699999999444h-8.76749977851432v-15.117199999999684h-102.023497422669607v15.994200000000092h-9.566399758332409v-24.538100000000668h12.560599682692555v-44.550799999999981c6.913999825337669-.680699999999888,14.484299634095805-3.967799999999443,22.712899426223885-9.858399999999165l4.82029987822898,6.718699999999444c-4.429699888096366,4.089899999999943-10.468799735535868,7.182700000000295-18.113299542419554,9.275400000000445v6.134799999999814h18.697199527669v7.595699999999852h-18.697199527669v7.960000000000036h18.697199527669v7.448199999999815h-18.697199527669v9.27639999999974h77.632798038830515v-9.27639999999974h-17.818399549869355v-7.302700000000186h17.818399549869355v-8.543999999999869h-17.673799553522258v-7.449200000000019h17.673799553522258v-7.960900000000038h-20.667999477882404v-8.836899999999332h29.943399243566091v49.223599999999351h11.468699710276269v23.807600000000093ZM1258.632784465569785,391.86619999999948l-6.654299831898243,6.08390000000054c-3.037099923276401-4.563400000000911-7.382799813494785-10.276300000000447-11.585899707315548-13.824200000000928-6.533199834957486,7.279300000000148-11.906299699221563,11.912100000000464-16.10548492635462,13.893600000000333l-6.584000000000742-5.529300000000148c4.949185374513036-2.354499999999462,10.316385238926159-6.751999999999498,16.107385092633194-13.203099999999722-6.58399983367417-4.100599999999758-11.27538509263286-6.636800000000221-14.076099644407805-7.605499999999665l5.744099854891829-5.940400000000409c2.333999941038201.921800000000076,6.718699830271362,3.315400000000409,13.165999667398864,7.189400000000205,1.915999951597769-3.135700000000725,3.406299913949624-6.568299999999908,4.48049988681305-10.301699999999983h-21.990299444478296v-8.638700000000426h11.789099702182284v-8.896499999999833h7.566399808856659v8.896499999999833h13.992199646527297v8.638700000000426h-2.769499930036545c-1.554699960724975,5.71769999999924-3.646499907881662,10.670900000000074-6.275399841470062,14.863199999999779,5.089799871420837,3.869200000000092,9.974615201090273,9.766599999999926,13.195299666658684,14.374099999999999Z"/><path class="uuid-b72ad5d3-ba7a-46a5-87f6-6df9f92367fc" d="M1470.511679113058563,379.337799999999334l-5.2577998671768,7.59479999999985c-16.60349958056031-4.089899999999943-29.601599252200685-8.8125-38.998099014825129-14.167999999999665v6.573199999999815h-49.371098752781108v-7.231399999999667c-14.216799640853424,7.352499999999964-26.972581478274151,12.149399999999332-38.269499033231114,14.387700000000223l-4.818299878279504-7.668000000000575c27.361299308795424-6.66989999999987,50.146398733195383-17.819300000000112,68.357398273146828-33.449200000000019l8.98239977308549,2.994099999999889c-.974580612995851,1.217800000000352-1.826199953866308,2.070400000000518-2.556580612996186,2.555700000000797,16.16399999999885,13.438499999999294,36.808479747720412,22.909200000000055,61.931579113057524,28.411099999999351ZM1454.955100000001039,421.184499999999389h-106.041117815126199v-34.251900000000205h106.041117815126199v34.251900000000205ZM1446.265579725566568,477.272399999999834h-8.98239977308549v-5.842800000000352h-70.548798217787407v5.842800000000352h-8.982499773082964v-48.41990000000078h88.513697763955861v48.41990000000078ZM1397.552680956157928,413.296800000000076v-18.257800000000316h-39.656198998200125v18.257800000000316h39.656198998200125ZM1437.283179952481078,446.307599999999184v-9.420900000000074h-70.548798217787407v9.420900000000074h70.548798217787407ZM1437.283179952481078,463.542899999999463v-9.567399999999907h-70.548798217787407v9.567399999999907h70.548798217787407ZM1387.839781201526421,406.066399999999703l-7.521499809990928,5.258700000000317c-4.527299885630782-4.57510000000002-8.95889977367915-7.959900000000744-13.292899664193101-10.151300000000447l7.595718272657905-4.381900000000314c5.160081405103483,2.190499999999702,9.566381293790982,5.283200000000761,13.218681201526124,9.274500000000444ZM1423.261680306693961,371.231399999999667c-7.060580306693737-3.700200000000223-13.902299648798362-8.691400000000613-20.523399481535307-14.972700000000259-7.060599821634241,5.842800000000352-14.970699621808308,10.833999999999833-23.734399400418624,14.972700000000259h44.257798881953931ZM1445.974579732917846,413.296800000000076v-18.257800000000316h-39.437479732916472v18.257800000000316h39.437479732916472ZM1437.136679956181979,399.347599999999147c-2.873099927419389,4.57720000000063-7.206999817935866,8.472700000000259-12.999999671592377,11.685600000000704l-8.033199797064299-4.016600000000835c6.378899838855432-3.602599999999256,10.759799728184589-7.206099999999424,13.144499667942-10.809599999999591l7.888699800714676,3.140599999999722Z"/><path class="uuid-b72ad5d3-ba7a-46a5-87f6-6df9f92367fc" d="M732.614700000000084,260.243099999999686l-2.789999999999054,3.210999999999331c-8.359900000001289-2.940499999999702-16.320300000001225-8.120199999999386-23.880400000000009-15.54109999999946l.060099999998783,11.730499999999665h14.010200000000623v25.799799999999777h-3.809999999999491v-3.449199999999109h-24.270500000000538v3.449199999999109h-3.930700000000797v-25.799799999999777h14.070300000001225v-11.730499999999665c-4.119599999999991,6.299799999999777-11.560500000001412,11.230499999999665-22.320300000001225,14.79109999999946l-2.819799999999304-3.180699999998978c9.539500000000771-2.520500000000538,16.360300000000279-6.38970000000063,20.460399999999936-11.610400000000482h-17.070799999999508v-3.75h21.750500000000102v-5.789999999999964c-4.77980000000025.480499999999665-10.780300000000352.83010000000013-18,1.049799999999777l-2.580100000001039-3.629899999999907c17.060100000000602-.060500000000502,30.680200000000696-1.489199999999983,40.860899999999674-4.289999999999964l2.879899999999907,2.880799999999908c-5.66019999999844,1.519600000000537-12.070399999998699,2.689500000000407-19.229999999999563,3.509799999999814v6.269500000000335h22.050300000000789v3.75l-17.190499999998792-.059500000000298c6.360399999997753,5.520500000000538,13.610399999997753,9.650400000000445,21.750499999998283,12.389600000000428ZM716.204600000000937,268.673799999999574v-5.280300000000352h-24.330599999999322v5.280300000000352h24.330599999999322ZM716.204600000000937,278.30369999999948v-5.939499999999498h-24.330599999999322v5.939499999999498h24.330599999999322Z"/><path class="uuid-b72ad5d3-ba7a-46a5-87f6-6df9f92367fc" d="M768.705585907364366,263.002899999999499c-2.521999936288921,7.82129999999961-5.821797359774791,14.23239999999987-9.900397359773706,19.231399999999667l3.508800000001429,2.220700000000761c4.539497406560258-5.721600000000763,7.881797322126658-12.129899999999907,10.02149726807329-19.230400000000373l-3.629899908301013-2.221700000000055ZM762.374488547591682,246.353499999999258l-2.521500000000742,3.150400000000445c3.980999999999767,1.700199999999313,7.130897403267227,4.138600000000224,9.453197344600994,7.319300000000112l2.637699933366093-3.569300000000112c-2.079099947477516-2.781300000000556-5.268599866903969-5.08010000000013-9.569397277966345-6.900400000000445ZM765.31348599305602,232.91399999999976l-2.819297445465054,2.879899999999907c3.839797419685056,1.378899999999703,6.870097343133239,3.700200000000223,9.091297287021007,6.958999999999833l2.818799928791123-3.030300000000352c-2.140599945923896-3.099599999999555-5.170897215812147-5.368199999999888-9.090799770347076-6.808599999999387Z"/><path class="uuid-b72ad5d3-ba7a-46a5-87f6-6df9f92367fc" d="M804.524885002492738,272.125v-11.3125c2.379899939878669,2.24119999999948,4.940399875194998,4.080999999999221,7.681699805943936,5.522399999999834l2.460399937845068-3.332000000000335c-5.240699867608782-2.238299999999981-9.322699764488789-5.780300000000352-12.241199690761277-10.619200000000092h10.258299740853545v-3.689400000000205h-9.808099752226553v-7.170899999999165h7.409199812827865v-3.691400000000613h-7.409199812827865v-6.327199999999721h-3.811499903713411v6.388699999999517h-11.128899718860339v-6.388699999999517h-3.81199990370078v6.388699999999517h-7.378499813603412v3.688500000000204h7.439999812049791v7.16989999999987h-9.780799752916209v3.692399999999907h9.900399749894859c-2.218699943950924,4.159200000000055-6.229999842616962,7.620100000000093-12.029799696099872,10.377900000000409l2.818899928786777,3.331100000000333c1.715299956667877-.995100000000093,3.294399916776456-2.074200000000928,4.740699880239845-3.239300000000185v16.081099999999424c0,3.439400000000205,1.720699956531462,5.159099999999853,5.159699869655014,5.159099999999853h19.650299503591668c1.601599959540181,0,2.866299927591172-.531199999999444,3.794499904144686-1.588799999999537.931599976463986-1.060599999999795,1.657199958133788-3.150400000000445,2.176699945010114-6.269500000000335l-3.870099902233051-1.741299999999683c-.260699993414164,2.5-.639099983854976,4.098700000000463-1.139599971211283,4.798899999999776-.500499987356307.701100000000224-1.170399970433209,1.050699999999779-2.009799949228182,1.050699999999779h-18.30169953766017c-1.101096940703428,0-1.648499958355387-.549799999999777-1.648499958355387-1.651299999999537v-6.627899999999499h20.878899472554622ZM787.935585421573705,241.523400000000038h11.189899717319349v7.170899999999165h-11.189899717319349v-7.170899999999165ZM788.29398541251976,252.383699999999408h10.200599742311169c.981499975205224,2.320399999999609,2.460499937842542,4.589899999999943,4.439999887836166,6.811599999999999h-19.049799518761574c2.160099945431284-2.380900000000111,3.630799908278277-4.652399999999943,4.409199888614239-6.811599999999999ZM783.645985529938116,262.883699999999408h17.069799568780581v5.610400000000482h-17.069799568780581v-5.610400000000482Z"/><path class="uuid-b72ad5d3-ba7a-46a5-87f6-6df9f92367fc" d="M896.298872596615183,282.444299999999203l-2.789999929518672,3.119099999999889c-12.500999684198177-6.819299999999203-20.440499483629537-18.309499999999389-23.820794723123981-34.469699999999648-4.18070456949863,16.420900000000074-12.700704354265326,27.910200000000259-25.560104029409558,34.469699999999648l-3.030799923435552-3.569299999999203c12.740299678152951-6.200200000000223,20.810099474292656-16.480500000000575,24.210999388378696-30.840799999999945h-20.400899484629917v-3.870100000000093h20.85059947326954c.380399990390288-3.759799999999814.539499986371084-9.020599999999831.480499987861549-15.780300000000352l4.169899894659466.600599999999758c.099599997483892,6.119099999999889-.019999999494758,11.160100000000057-.360399990893711,15.120100000000093h22.740799425517253v3.870100000000093h-18.930199521782924c2.399399939386058,13.700200000000223,9.880299750402628,24.150400000000445,22.440399433107814,31.350599999999758Z"/><path class="uuid-b72ad5d3-ba7a-46a5-87f6-6df9f92367fc" d="M977.930459251896536,274.643499999999221h-24.150899389896949v4.170900000000074c0,4.459000000000742-2.369599940138869,6.690400000000409-7.109899820388819,6.690400000000409h-3.990199899199069l-1.469699962872255-3.690400000000409h5.580099859034817c1.959406105996095,0,2.939899925733698-.900399999999536,2.939899925733698-2.700199999999313v-4.470700000000761h-26.340299334589872v-3.75h26.340299334589872v-2.58010000000013c4.180199894397447-1.559499999999389,7.170399818858641-3.019499999999425,8.970199773391869-4.379899999999907h-22.980399419466266v-3.45010000000002h29.640099251228094v3.269500000000335c-3.119599921192275,2.121100000000297-6.979999823670369,4.291000000000167-11.580099707462068,6.510699999999815v.629899999999907h24.150899389896949v3.75ZM975.41095931554446,263.513599999999315h-3.600099909053824v-6.209899999999834h-41.911698941221402v6.569300000000112h-3.929599900729954v-10.079099999999926h5.16009986964491v-18.300799999999981c2.839399928270723-.279300000000148,5.949699849699755-1.629899999999907,9.329605710387114-4.049800000000687l1.979999999999563,2.759800000000723c-1.819805950119189,1.680599999999686-4.29980588746912,2.950200000000223-7.440000000000509,3.810499999999593v2.519600000000537h7.680193997841343v3.120100000000093h-7.680193997841343v3.270499999999629h7.680193997841343v3.059599999999591h-7.680193997841343v3.810500000000502h31.891193386220039v-3.810500000000502h-7.320399815071141v-3h7.320399815071141v-3.509799999999814h-7.260299816589395v-3.060599999999795h7.260299816589395v-3.269500000000335h-8.490299785516982v-3.629899999999907h12.299799689280917v20.21979999999985h4.71099988099013v9.78020000000015ZM958.400159745273413,240.233399999999165l-2.100599946934381,2.579100000000835c-1.139599971211283-1.099700000000666-2.68989993204741-2.289099999999962-4.649399882546277-3.569400000000314-1.620099959072832,1.360399999999572-3.440399913088186,2.610399999999572-5.460399862058694,3.75l-2.459999937855173-2.159200000000055c1.939506028693359-.800699999999779,3.639699908053444-1.740200000000186,5.099599871173268-2.820300000000316-2.439899938362942-.91989999999987-4.41009384247991-1.560499999999593-5.909699850708421-1.920900000000074l1.530299961343189-2.759699999999611c2.219699943923843.560499999999593,4.449699887589304,1.28020000000015,6.689999830994566,2.160100000000057,1.41939996414294-1.338900000000649,2.609799934070907-2.709899999999834,3.569799909819267-4.110300000000279l2.520506306069365,2.010699999999815c-.800806349512641,1.239300000000185-1.840306323252662,2.450200000000223-3.120106290922195,3.629900000000816,1.479499962624686.83889999999974,2.909199926507426,1.910099999999147,4.289999891625484,3.209999999999127ZM958.760059736181574,251.153299999999945l-2.519999936337626,1.980399999999463c-1.620199959072124-1.240200000000186-3.300299916629228-2.270499999999629-5.040099872678184-3.090799999999945-1.080499972704274.820300000000316-3.000499924200994,1.850599999999758-5.760199854485109,3.090799999999945l-2.280299942394777-1.800699999999779c2.580599934808561-1.21979999999985,4.429699888096366-2.279300000000148,5.550806014285627-3.179699999999684-1.121106126189261-.700200000000223-2.820306083263858-1.479500000000371-5.100606025658635-2.339900000000853l2.24949994317285-1.890599999999722c2.060106082486527.740200000000186,3.820799903478473,1.511700000000019,5.280799866595771,2.310599999999795.559499985865841-.320399999999609,1.689399957322166-1.279300000000148,3.390099914358871-2.879899999999907l2.759799930281588,1.410100000000057c-1.019593628750954,1.319400000000314-2.160199945428758,2.410200000000259-3.419999913603533,3.269600000000537,1.659699958072451.759699999999611,3.290099916885083,1.799799999999777,4.890199876463157,3.120100000000093Z"/><path class="uuid-b72ad5d3-ba7a-46a5-87f6-6df9f92367fc" d="M1060.672695879120511,281.633699999999408l-2.640599933292833,3.510800000000017c-10.179699742839148-3-18.441399534131051-7.040100000000166-24.77929937402223-12.121099999999387-5.462899861995538,4.460899999999128-14.040999645294505,8.580999999999221-25.74219934969733,12.361299999999574l-2.939499925741984-3.570300000000316c11.320299714025168-3.139599999999518,19.880899497766222-6.950199999999313,25.681699351225689-11.430699999999888-5.820287651309627-5.5-9.73249975413637-12.189400000000205-11.730499703662645-20.070300000000316-1.080099972714379,2.780300000000352-2.562499935265805,5.420000000000073-4.441399887800799,7.920000000000073l-3.177699919724546-2.909200000000055c2.519499936352076-3.000999999999294,4.546799885138171-6.290999999999258,6.087799846209236-9.871099999999387h-10.320299739287293v-3.689500000000407h24.062499392130121v-10.260699999999815h3.869199902255787v10.200200000000223h24.480399381573079v3.690399999999499h-10.261699740767654c-1.79879995455849,10.440400000000409-5.937499850006134,18.75-12.419899686246936,24.929700000000594,5.900399850943359,4.480499999999665,13.990199646577821,8.250999999999294,24.271499386850337,11.310499999999593ZM1044.80159628005822,245.393499999999221h-23.218799413443776c1.597712129667343,9.259800000000723,5.507899860858743,16.710000000000036,11.728599703710643,22.350600000000668,6.079999846406281-5.660200000000259,9.910112425955958-13.110400000000482,11.490199709733133-22.350600000000668Z"/><path class="uuid-b72ad5d3-ba7a-46a5-87f6-6df9f92367fc" d="M1141.854332545768557,274.643499999999221h-24.152399389859056v4.170900000000074c0,4.459000000000742-2.3690999401515,6.690400000000409-7.109285956727035,6.690400000000409h-3.990313762873484l-1.468686237125439-3.690400000000409h5.578086133313263c1.960913866685587,0,2.941399925693986-.900399999999536,2.941399925693986-2.700199999999313v-4.470700000000761h-26.339799334600684v-3.75h26.339799334600684v-2.58010000000013c4.179699894411897-1.559499999999389,7.169899818873091-3.019499999999425,8.968799773429055-4.379899999999907h-22.98049941946374v-3.45010000000002h29.640599251215463v3.269500000000335c-3.119099921204906,2.121100000000297-6.980385664188361,4.291000000000167-11.580099707462068,6.510699999999815v.629899999999907h24.152399389859056v3.75ZM1139.33483260941648,263.513599999999315h-3.601599909015931v-6.209899999999834h-41.912098941211298v6.569300000000112h-3.929699900727428v-10.079099999999926h5.160213340721384v-18.300799999999981c2.839786457181617-.279300000000148,5.951086378583568-1.629899999999907,9.332000000000335-4.049800000000687l1.978486243193402,2.759800000000723c-1.818399954063352,1.680599999999686-4.300799891352654,2.950200000000223-7.441399812014424,3.810499999999593v2.519600000000537h7.681599805946462v3.120100000000093h-7.681599805946462v3.270499999999629h7.681599805946462v3.059599999999591h-7.681599805946462v3.810500000000502h31.892599194325157v-3.810500000000502h-7.322299815023143v-3h7.322299815023143v-3.509799999999814h-7.259799816602026v-3.060599999999795h7.259799816602026v-3.269500000000335h-8.490299785516982v-3.629899999999907h12.298899689303653v20.21979999999985h4.712899880942132v9.78020000000015ZM1122.323033039170696,240.233399999999165l-2.101499946911645,2.579100000000835c-1.138699971234018-1.099700000000666-2.689499932057515-2.289099999999962-4.648499882569013-3.569400000000314-1.621099959047569,1.360399999999572-3.441386010506903,2.610399999999572-5.460899862046062,3.75l-2.458999937880435-2.159200000000055c1.939513789418925-.800699999999779,3.638699908078706-1.740200000000186,5.099599871173268-2.820300000000316-2.441399938325048-.91989999999987-4.412086081754751-1.560499999999593-5.910086081754343-1.920900000000074l1.531186192374662-2.759699999999611c2.218813807625338.560499999999593,4.449199887603754,1.28020000000015,6.689499831009016,2.160100000000057,1.419899964130309-1.338900000000649,2.609313976616249-2.709899999999834,3.568313976616992-4.110300000000279l2.521485869541721,2.010699999999815c-.80079997977009,1.239300000000185-1.841799953472218,2.450200000000223-3.119099921204906,3.629900000000816,1.478499962649948.83889999999974,2.908199926532689,1.910099999999147,4.288999891650747,3.209999999999127ZM1122.682433030091488,251.153299999999945l-2.519499936352076,1.980399999999463c-1.619199959095567-1.240200000000186-3.300799916614778-2.270499999999629-5.040999872653629-3.090799999999945-1.080099972714379.820300000000316-2.999999924213625,1.850599999999758-5.759799854495213,3.090799999999945l-2.281199942372041-1.800699999999779c2.581999934773194-1.21979999999985,4.431599888048368-2.279300000000148,5.550713774964606-3.179699999999684-1.119113886916239-.700200000000223-2.820313843940312-1.479500000000371-5.099613786360351-2.339900000000853l2.249999943160219-1.890599999999722c2.060613843199462.740200000000186,3.820299903491104,1.511700000000019,5.28129986658314,2.310599999999795.560499985840579-.320399999999609,1.689399957322166-1.279300000000148,3.388599914396764-2.879899999999907l2.759799930281588,1.410100000000057c-1.019499974245264,1.319400000000314-2.158199945479282,2.410200000000259-3.417999913654057,3.269600000000537,1.658199958110345.759699999999611,3.287199916958343,1.799799999999777,4.88869987650105,3.120100000000093Z"/><path class="uuid-b72ad5d3-ba7a-46a5-87f6-6df9f92367fc" d="M1181.378820264764727,251.903299999999945c4.040999897915754,4.539999999999054,6.062499846848368,8.970699999999852,6.062499846848368,13.289999999999054,0,2.100600000000668-.544999986232142,3.770500000000538-1.63678467511636,5.009800000000723-1.087815256054455,1.24119999999948-2.61321521751961,1.861299999999574-4.574215167980583,1.861299999999574-1.079999972716905,0-2.380784832019344-.130900000000111-3.900399901467608-.389599999999518l-1.109299971976725-3.991300000000592c2.140599945923896.54110000000037,3.679699907042959.810600000000704,4.619099883311719.810600000000704.779299980313226,0,1.490199962354382-.300800000000891,2.130899946168938-.900400000000445.640599983817083-.599599999999555.960915211944666-1.399400000000242.960915211944666-2.400400000000445,0-1.498999999999796-.550815222304664-3.418899999999667-1.650415194526431-5.759799999999814-1.101584805473976-2.339799999999741-2.751899930481159-4.570299999999406-4.951199874922168-6.689399999999296l5.851615069448599-15.031300000000556h-8.910214992181864v47.792000000000371h-3.93159990067943v-51.60149999999976h16.830099574835913v3.809499999999389l-5.790999853707035,14.190500000000611ZM1222.751819219594836,274.494099999999889c-.521499986825802,3.240199999999277-1.220699969162524,5.590799999999945-2.101499946911645,7.049799999999777-.878999977794592,1.460000000000036-2.310599941629334,2.190399999999499-4.28909989164822,2.190399999999499h-4.679683944537828c-3.121115858397388,0-4.679715819023841-1.640599999999722-4.679715819023841-4.91989999999987v-15.870100000000093h-6.331999840040226c-.119199996988755,6.439400000000205-1.374999965264578,11.264600000000428-3.763699904920941,14.474600000000464-2.390584436014251,3.210000000000036-6.824199827606208,5.905299999999443-13.306584436015328,8.085900000000038l-2.519615164181232-3.451100000000224c6.019615164181232-1.779300000000148,10.150399743579328-4.08010000000013,12.39069968698459-6.900399999999536,2.240199943407788-2.819400000000314,3.369099914889375-6.869200000001001,3.39059991434624-12.149400000000242h-8.22068443714852v-3.930699999999888h32.132783833078065v3.871099999999387h-10.023399746787618v14.940400000000409c0,.498999999999796.160099995955534.964899999999943.480399987864075,1.394499999999425.320299991908541.430700000000797.701215925844735.644600000000537,1.140699971183494.644600000000537h3.810515954661241c.779283929390658,0,1.375-.63970000000063,1.785183903979487-1.91989999999987.408199989688001-1.279300000000148.753899980954884-2.939500000000407,1.035099973851175-4.980499999999665l3.749999905267032,1.470699999999852ZM1219.300619306779481,247.283199999999852l-3.808599903786671.060499999999593v-5.281199999999444h-22.620999428545474v5.281199999999444h-3.871099902207789v-9.090799999999945h13.169899667300342v-6.809600000000501h3.93159990067943v6.75h13.199199666560162v9.089900000000853ZM1214.261619434075328,253.073199999999815h-20.281299487651268v-3.929700000000594h20.281299487651268v3.929700000000594Z"/><path class="uuid-b72ad5d3-ba7a-46a5-87f6-6df9f92367fc" d="M1305.779205839613496,274.643499999999221h-24.152299389861582v4.170900000000074c0,4.459000000000742-2.371099940100976,6.690400000000409-7.10939982040145,6.690400000000409h-3.990299899196543l-1.470699962846993-3.690400000000409h5.580099859034817c1.960999950460973,0,2.941399925693986-.900399999999536,2.941399925693986-2.700199999999313v-4.470700000000761h-26.34179933455016v-3.75h26.34179933455016v-2.58010000000013c4.1797170452719-1.559499999999389,7.169999818870565-3.019499999999425,8.968799773429055-4.379899999999907h-22.98049941946374v-3.45010000000002h29.640599251215463v3.269500000000335c-3.119099921204906,2.121100000000297-6.980399823660264,4.291000000000167-11.579999707464594,6.510699999999815v.629899999999907h24.152299389861582v3.75ZM1303.257723597307631,263.513599999999315h-3.599617603062143v-6.209899999999834h-41.910098941261822v6.569300000000112h-3.931699900676904v-10.079099999999926h5.162099869594385v-18.300799999999981c2.837899928308616-.279300000000148,5.949199849710567-1.629899999999907,9.328099764352373-4.049800000000687l1.980499949968362,2.759800000000723c-1.82028313891351,1.680599999999686-4.298799891403178,2.950200000000223-7.439399812064948,3.810499999999593v2.519600000000537h7.679599805996986v3.120100000000093h-7.679599805996986v3.270499999999629h7.679599805996986v3.059599999999591h-7.679599805996986v3.810500000000502h31.890599194375682v-3.810500000000502h-7.320299815073668v-3h7.320299815073668v-3.509799999999814h-7.259799816602026v-3.060599999999795h7.259799816602026v-3.269500000000335h-8.490199785519508v-3.629899999999907h12.298799689306179v20.21979999999985h4.710917574988343v9.78020000000015ZM1286.248006333013109,240.233399999999165l-2.101599946909118,2.579100000000835c-1.14059997118602-1.099700000000666-2.689499932057515-2.289099999999962-4.650399882521015-3.569400000000314-1.619099959098094,1.360399999999572-3.439499913110922,2.610399999999572-5.458999862094061,3.75l-2.460899937832437-2.159200000000055c1.941399950956111-.800699999999779,3.642616893652303-1.740200000000186,5.10149987112527-2.820300000000316-2.441399938325048-.91989999999987-4.410099888591503-1.560499999999593-5.910099850698316-1.920900000000074l1.529299961366632-2.759699999999611c2.220699943900399.560499999999593,4.45119988755323,1.28020000000015,6.689399831011542,2.160100000000057,1.419999964127783-1.338900000000649,2.611399934030487-2.709899999999834,3.572299909756111-4.110300000000279l2.519499936352076,2.010699999999815c-.80079997977009,1.239300000000185-1.841799953472218,2.450200000000223-3.121099921154382,3.629900000000816,1.480499962599424.83889999999974,2.910199926482164,1.910099999999147,4.291099891597696,3.209999999999127ZM1286.607306323936427,251.153299999999945l-2.519499936352076,1.980399999999463c-1.621082790275977-1.240200000000186-3.300799916614778-2.270499999999629-5.039082790275643-3.090799999999945-1.082000000000335.820300000000316-3,1.850599999999758-5.761716936873199,3.090799999999945l-2.279283063127878-1.800699999999779c2.58008305552903-1.21979999999985,4.429683008804204-2.279300000000148,5.550782980482836-3.179699999999684-1.121099971678632-.700200000000223-2.822299928702705-1.479500000000371-5.101599871122744-2.339900000000853l2.249999943160219-1.890599999999722c2.060599947944866.740200000000186,3.820299903491104,1.511700000000019,5.279299866633664,2.310599999999795.560599985838053-.320399999999609,1.689517080847509-1.279300000000148,3.390699914343713-2.879899999999907l2.759699930284114,1.410100000000057c-1.019499974245264,1.319400000000314-2.160099945431284,2.410200000000259-3.419882763781061,3.269600000000537,1.660182808234822.759699999999611,3.290999999999258,1.799799999999777,4.890582726628054,3.120100000000093Z"/><path class="uuid-b72ad5d3-ba7a-46a5-87f6-6df9f92367fc" d="M1387.934502136558876,282.503899999999703h-54.599717930483166v-3.869200000000092h25.439499357344175v-14.07130000000052h-18.330099536942726v-3.870100000000093h18.330099536942726v-12.240199999999277h-13.589781426861009c-1.640718188384199,4.259699999999611-4.380918119160924,8.190399999999499-8.220718022159417,11.789999999999964l-3.958999899987248-2.070300000000316c6.558599834315828-6.059599999999591,10.208999742098968-13.479500000000371,10.949199723399943-22.259799999999814l4.050799897668185,1.170000000000073c-.160199995953008,2.039999999999964-.630899984062125,4.560499999999593-1.412099964327354,7.560499999999593h12.122999693747261v-13.140599999999722h4.048818571658558v13.08010000000013h21.179680791015926v3.870100000000093h-21.179680791015926v12.180599999999686h18.06058086981102v3.869200000000092h-18.06058086981102v14.07129999999961h25.170000000000073v3.929700000000594Z"/><path class="uuid-b72ad5d3-ba7a-46a5-87f6-6df9f92367fc" d="M1470.511679113058563,245.332999999999629l-2.158199945479282,3.120100000000093c-6.82029982770473-1.679699999999684-12.162099692759512-3.619200000000092-16.021499595262867-5.819400000000314v2.699300000000221h-20.281199487653794v-2.96979999999985c-5.839899852471717,3.020499999999629-11.080099720093131,4.990299999999479-15.718799602909712,5.910200000000259l-1.980499949968362-3.150400000000445c11.240299716046138-2.740200000000186,20.599619468215678-7.320300000000316,28.080099290637008-13.740200000000186l3.689520177578743,1.230400000000373c-.400420260668398.5-.75.850599999999758-1.04892024428591,1.049799999999777,6.638699832292332,5.520499999999629,15.121099618008884,9.410200000000259,25.439499357344175,11.670000000000073ZM1464.122979274450699,262.524399999999332h-43.560498899569211v-14.07129999999961h43.560498899569211v14.07129999999961ZM1460.552679364644064,285.563399999999092h-3.691399906747392v-2.399399999999332h-28.980499267890991v2.399399999999332h-3.689399906797917v-19.889599999999518h36.3612990814363v19.889599999999518ZM1440.540979870182127,259.283199999999852v-7.5h-16.289099588502722v7.5h16.289099588502722ZM1456.861279457896671,272.843699999999444v-3.870100000000093h-28.980499267890991v3.870100000000093h28.980499267890991ZM1456.861279457896671,279.923799999999574v-3.929699999999684h-28.980499267890991v3.929699999999684h28.980499267890991ZM1436.550779970983058,256.313399999999092l-3.08989992194256,2.160200000000259c-1.859399953027605-1.878899999999703-3.679699907042959-3.269500000000335-5.458999862094061-4.16989999999987l3.11921981305386-1.799799999999777c2.121080054565027.899400000000242,3.929680008875948,2.16989999999987,5.429679970982761,3.809499999999389ZM1451.101479603401458,242.003899999999703c-2.900379603401234-1.519600000000537-5.708899855781056-3.570400000000518-8.429599787050392-6.151400000000649-2.902399926679209,2.400400000000445-6.150399844627827,4.451200000000426-9.749999753694283,6.151400000000649h18.179599540744675ZM1460.431579367703307,259.283199999999852v-7.5h-16.199199590773787v7.5h16.199199590773787ZM1456.802679459377032,253.55369999999948c-1.181579459376735,1.879799999999705-2.960899925201375,3.479500000000371-5.341799865054782,4.799799999999777l-3.298779594320877-1.649400000000242c2.619079611491543-1.480499999999665,4.419879565999508-2.960999999999331,5.400379541229995-4.440499999999702l3.240199918145663,1.290100000000166Z"/></g></svg>