<svg xmlns="http://www.w3.org/2000/svg" xmlns:xlink="http://www.w3.org/1999/xlink" viewBox="0 0 1612.2588 708.6728"><defs><clipPath id="a"><rect y="0.001" width="1612.2588" height="708.6718" fill="none"/></clipPath></defs><g clip-path="url(#a)"><path d="M158.4414,271.5732a210.68838,210.68838,0,0,0-16.1699,67.4258,20.76184,20.76184,0,0,1,27.3535.957c7.3379-95.5918,87.2246-170.871,184.7012-170.871a13.6758,13.6758,0,0,0,0-27.3516A212.80468,212.80468,0,0,0,158.4414,271.5732Z" fill="#fff"/><path d="M339.1855,538.9697c-94.955-7.6816-169.6718-86.9629-170.1015-183.7969a13.6758,13.6758,0,0,0-27.3516,0A212.4393,212.4393,0,0,0,338.0996,566.333a20.75389,20.75389,0,0,1,1.0859-27.3633Z" fill="#fff"/><path d="M502.5273,487.4131a13.67652,13.67652,0,0,0-19.3418,0,184.63134,184.63134,0,0,1-128.8593,52.1758,13.67575,13.67575,0,1,0,0,27.3515,211.89936,211.89936,0,0,0,148.2011-60.1875A13.6694,13.6694,0,0,0,502.5273,487.4131Z" fill="#fff"/><path d="M354.3262,566.9404a13.67575,13.67575,0,1,1,0-27.3515,184.63134,184.63134,0,0,0,128.8593-52.1758,13.676,13.676,0,1,1,19.3418,19.3398,211.89936,211.89936,0,0,1-148.2011,60.1875Zm-82.7657-16.7187A212.4137,212.4137,0,0,1,141.7324,355.1728a13.6758,13.6758,0,0,1,27.3516,0c.4297,96.834,75.1465,176.1153,170.1015,183.7969a20.75389,20.75389,0,0,0-1.0859,27.3633A210.71809,210.71809,0,0,1,271.5605,550.2217Zm82.7657-408.4883a13.6758,13.6758,0,0,1,0,27.3516c-97.4766,0-177.3633,75.2792-184.7012,170.871a20.76184,20.76184,0,0,0-27.3535-.957A212.4384,212.4384,0,0,1,354.3262,141.7334Z" fill="#fff"/><path d="M466.9121,241.751a159.22487,159.22487,0,1,0,46.6328,112.5859A158.171,158.171,0,0,0,466.9121,241.751Z" fill="#fff"/><path d="M242.1152,405.8271V302.8486h22.334V310.46H251.5049v87.7539h12.9443v7.6132Z" fill="#333e48"/><path d="M466.5371,302.8486V405.8271H444.209v-7.6132h12.9385V310.46H444.209v-7.6114Z" fill="#333e48"/><path d="M293.9863,375.2568q0,3.085.0957,7.2715.09375,4.18365.2598,8.4961.15825,4.3125.3867,8.2402.21975,3.9258.5449,6.5625H282.0801V333.0967q0-9.39555-.3223-17.0235-.31935-7.62885-.9668-13.2246h13.1953Z" fill="#00c2f3"/><path d="M351.5928,340.1767v8.4336H339.4922v48.7872h12.1006v8.4316h-36.042v-8.4316H327.457V348.6103H315.5508v-8.4336Z" fill="#00c2f3"/><path d="M378.6269,340.1767a22.83345,22.83345,0,0,1,.7715,2.6739c.2598,1.0937.4922,2.2402.709,3.4414q.31635,1.8018.5801,3.541l.5117,2.8926q6.18165-7.3359,12.4219-10.586a27.82931,27.82931,0,0,1,13.0029-3.25,22.834,22.834,0,0,1,9.1074,1.7051,16.06267,16.06267,0,0,1,6.6631,5.4063,26.4883,26.4883,0,0,1,4.0879,9.5918,62.932,62.932,0,0,1,1.3828,14.1933v28.961a72.02319,72.02319,0,0,1-1.9004,18.0546,30.95288,30.95288,0,0,1-5.3086,11.461,18.66472,18.66472,0,0,1-8.207,6.0469,30.57988,30.57988,0,0,1-10.6523,1.7714,23.02791,23.02791,0,0,1-6.211-.9335,23.55493,23.55493,0,0,1-6.0176-2.6075l4.1836-9.6562a12.82347,12.82347,0,0,0,3.959,1.8359,17.58836,17.58836,0,0,0,5.0489.7383,14.54739,14.54739,0,0,0,5.54-.9961,9.22408,9.22408,0,0,0,4.1494-3.5059,19.22355,19.22355,0,0,0,2.6074-6.8886,56.87134,56.87134,0,0,0,.9004-11.1348V374.6123a78.439,78.439,0,0,0-.8047-12.5195,21.5735,21.5735,0,0,0-2.415-7.4649,8.01008,8.01008,0,0,0-4.0244-3.5762,16.11346,16.11346,0,0,0-5.6289-.8984,15.09412,15.09412,0,0,0-6.7881,1.6445,24.99559,24.99559,0,0,0-6.0869,4.2461,31.57894,31.57894,0,0,0-4.8887,5.8887,27.06748,27.06748,0,0,0-3.1562,6.5645v37.332H370.2578v-39.584a100.47078,100.47078,0,0,0-1.0957-16.123,81.61089,81.61089,0,0,0-2.123-9.9454Z" fill="#00c2f3"/><path d="M731.9365,379.6333H676.9433v-9.1289h54.9932Zm-7.1572,97.206h-9.4209V466.834H693.375v10.0053h-9.5674V427.4692h40.9717Zm-.4385-78.3632-40.3867.1455v-9.1284h40.3867Zm.1465,19.1342H683.9541v-9.1294h40.5332Zm-1.8262-56.5263-37.0996.146v-9.1284h37.0996Zm-7.3027,96.7661v-21.398H693.2295v21.398Zm94.3574-40.0933-78.9482.145v-8.9824h19.5722l4.2364-22.5664H736.3183v-8.9834h19.7188l3.1396-16.7246H731.206v-9.1289h72.5206V360.5H769.0361l-2.9941,16.7241h30.0898l-3.1406,31.5488h16.7246Zm-12.709,59.3745h-9.4199V467.272H750.6318v9.8593h-9.5664V427.6157h55.9414Zm-9.4199-18.8427V436.5981H750.4863v21.6905Zm-1.4609-72.0821H764.4346l-4.2344,22.7129h23.6621Z" fill="#fff"/><path d="M974.3867,379.6333H841.6162v-9.1289H974.3867Zm-19.5723,18.6963H859.8721v-8.8364h94.9423Zm0,18.9887H859.8721v-8.8374h94.9423Zm-3.4326,59.813h-9.4199V466.834H873.457v10.2973h-9.4209V427.4692h87.3457Zm-.1455-116.9965-86.4697.2182v-8.8369h86.4697Zm-9.2744,97.7153v-21.398H873.457v21.398Z" fill="#fff"/><path d="M1139.0596,450.6938h-58.7901v10.1514q0,16.28475-17.3115,16.2861h-9.7119l-3.5781-8.9824h13.5839q7.15725,0,7.1573-6.5732V450.6938h-64.1221v-9.1289h64.1221v-6.2812q15.2622-5.69685,21.8369-10.6621h-55.9434v-8.3994h72.1582v7.9614a223.72088,223.72088,0,0,1-28.1914,15.8472v1.5341h58.7901Zm-6.1338-27.0957h-8.7666V408.4809H1022.1367v15.9947h-9.5693V399.937h12.5615V355.3862q10.36815-1.0209,22.7139-9.8584l4.8213,6.7188q-6.6504,6.1347-18.1133,9.2754v6.1352h18.6953v7.5952h-18.6953v7.96h18.6953v7.4477h-18.6953v9.2769h77.6328v-9.2769h-17.8203v-7.3017h17.8203V374.814h-17.6738v-7.4488h17.6738v-7.9614h-20.668v-8.8369h29.9424v49.2236h11.4678Zm-41.4102-56.6714-5.1113,6.2798a78.04631,78.04631,0,0,0-11.3203-8.6904,87.41988,87.41988,0,0,1-13.294,9.1289l-5.9873-5.2588a57.90265,57.90265,0,0,0,12.416-6.8642,127.50875,127.50875,0,0,0-14.3886-4.6739l3.7256-6.7197a134.85154,134.85154,0,0,1,16.2861,5.2578,62.19349,62.19349,0,0,0,8.6914-10.0049l6.1348,4.8936a46.30823,46.30823,0,0,1-7.5957,8.8369A54.52967,54.52967,0,0,1,1091.5156,366.9267Zm.875,26.5826-6.1328,4.8203a67.61177,67.61177,0,0,0-12.2695-7.5215q-3.94335,2.99415-14.0215,7.5215l-5.5508-4.3819q9.419-4.45305,13.5117-7.7412a74.21733,74.21733,0,0,0-12.416-5.6972l5.4766-4.5996a91.19505,91.19505,0,0,1,12.8535,5.622q2.042-1.166,8.251-7.0107l6.7197,3.4321a36.59842,36.59842,0,0,1-8.3242,7.9614A54.3379,54.3379,0,0,1,1092.3906,393.5093Z" fill="#fff"/><path d="M1303.5859,450.6938h-58.791v10.1514q0,16.28475-17.3086,16.2861h-9.7138l-3.5772-8.9824h13.584q7.15425,0,7.1562-6.5732V450.6938h-64.1211v-9.1289h64.1211v-6.2812q15.2637-5.69685,21.837-10.6621h-55.9424v-8.3994h72.1562v7.9614a223.58576,223.58576,0,0,1-28.1914,15.8472v1.5341h58.791Zm-6.1328-27.0957h-8.7676V408.4809H1186.6621v15.9947h-9.5664V399.937h12.5605V355.3862q10.37115-1.0209,22.7129-9.8584l4.8194,6.7188q-6.64455,6.1347-18.1114,9.2754v6.1352h18.6954v7.5952h-18.6954v7.96h18.6954v7.4477h-18.6954v9.2769h77.6319v-9.2769h-17.8184v-7.3017h17.8184V374.814h-17.6739v-7.4488h17.6739v-7.9614h-20.668v-8.8369h29.9434v49.2236h11.4687Zm-38.8105-31.728-6.6543,6.0845c-3.0371-4.563-7.3828-10.2764-11.586-13.8242q-9.7998,10.91895-16.1054,13.894l-6.584-5.5303q7.4238-3.531,16.1074-13.2021-9.876-6.15165-14.0762-7.606l5.7442-5.9409q3.501,1.38435,13.166,7.1899a41.84689,41.84689,0,0,0,4.4805-10.3017h-21.9903v-8.6392h11.7891v-8.896H1240.5v8.896h13.9922v8.6392h-2.7696a54.95768,54.95768,0,0,1-6.2753,14.8633C1250.5371,381.3657,1255.4219,387.2632,1258.6426,391.8701Z" fill="#fff"/><path d="M1470.5215,379.3428l-5.2578,7.5942q-24.90675-6.1347-38.9981-14.168v6.5738h-49.3711v-7.232q-21.3252,11.0289-38.2695,14.3877l-4.8184-7.6679q41.0421-10.00575,68.3575-33.4493l8.9824,2.9947a12.4421,12.4421,0,0,1-2.5567,2.5556Q1432.836,371.0886,1470.5215,379.3428Zm-15.5567,41.8462h-106.042V386.937h106.042Zm-8.6894,56.0878h-8.9824v-5.8427h-70.5498v5.8427h-8.9815V428.8569h88.5137Zm-48.7129-63.9755V395.0434h-39.6563v18.2579Zm39.7305,33.0107v-9.4204h-70.5498v9.4204Zm0,17.2354V453.98h-70.5498v9.5674Zm-49.4434-57.4766-7.5215,5.2588a52.53685,52.53685,0,0,0-13.293-10.1514l7.5957-4.3818A37.58534,37.58534,0,0,1,1387.8496,406.0708Zm35.4219-34.835a92.12194,92.12194,0,0,1-20.5235-14.9726,112.12443,112.12443,0,0,1-23.7343,14.9726Zm22.7129,42.0655V395.0434h-39.4375v18.2579Zm-8.8379-13.9493q-4.311,6.8658-13,11.6856l-8.0332-4.0166q9.56835-5.4039,13.1445-10.8096Z" fill="#fff"/><path d="M732.624,260.248l-2.789,3.2105q-12.5406-4.4106-23.8809-15.5405l.0605,11.7304h14.0098v25.7993h-3.8105v-3.4492H691.9443v3.4492h-3.9316V259.6484H702.083V247.918q-6.17865,9.44895-22.3203,14.7905l-2.8194-3.1807q14.31015-3.78075,20.46-11.6098H680.333v-3.75h21.75v-5.7906q-7.16895.7215-18,1.0498l-2.5801-3.6298q25.5909-.0909,40.8613-4.2901l2.8799,2.8809a133.043,133.043,0,0,1-19.2295,3.5102v6.2696h22.0498v3.75l-17.1904-.0596A63.96516,63.96516,0,0,0,732.624,260.248Zm-16.4101,8.4302v-5.2798H691.8838v5.2798Zm0,9.6299v-5.9399H691.8838v5.9399Z" fill="#fff"/><path d="M768.71487,263.0073q-3.78225,11.7312-9.9004,19.2315l3.5098,2.2212a57.23129,57.23129,0,0,0,10.0214-19.231Zm-6.3301-16.6489-2.5215,3.1504a22.19181,22.19181,0,0,1,9.4531,7.3183l2.6368-3.5683Q768.83587,249.0861,762.38477,246.3584Zm2.9385-13.44-2.8194,2.8804a18.10416,18.10416,0,0,1,9.0918,6.9585l2.8184-3.0303A18.39247,18.39247,0,0,0,765.32327,232.9184Z" fill="#fff"/><path d="M804.53517,272.1294V260.8169a34.77127,34.77127,0,0,0,7.6816,5.5224l2.46-3.332a25.75906,25.75906,0,0,1-12.2412-10.6191h10.2578v-3.689h-9.8076v-7.1714h7.4092v-3.6914h-7.4092v-6.3271h-3.8115v6.3891h-11.129v-6.3891h-3.8125v6.3891h-7.3779v3.688h7.4404v7.1704h-9.7812v3.6924h9.9004q-3.3282,6.2388-12.0293,10.3779l2.8183,3.3306a37.61406,37.61406,0,0,0,4.7403-3.2393V279q0,5.1585,5.1601,5.1592h19.6504a4.793,4.793,0,0,0,3.795-1.5894q1.3974-1.59075,2.1757-6.269l-3.8691-1.7412q-.39255,3.75-1.1406,4.7988a2.34727,2.34727,0,0,1-2.0098,1.0508h-18.3008a1.45739,1.45739,0,0,1-1.6484-1.6519v-6.6279Zm-16.5899-30.6016h11.1895v7.1714h-11.1895Zm.3584,10.8604h10.2002a24.91093,24.91093,0,0,0,4.4405,6.8115h-19.0498A21.15076,21.15076,0,0,0,788.30367,252.3882Zm-4.6474,10.5h17.0693v5.6103h-17.0693Z" fill="#fff"/><path d="M896.30819,282.4492l-2.7901,3.1191q-18.75135-10.2297-23.8212-34.4702-6.26955,24.63135-25.5596,34.4702l-3.0303-3.5698q19.1103-9.29955,24.211-30.8408h-20.4014v-3.8706h20.8506a153.5494,153.5494,0,0,0,.4804-15.7798l4.17.6011q.1494,9.1779-.3604,15.1196h22.7412v3.8701h-18.9306Q877.46689,271.64915,896.30819,282.4492Z" fill="#fff"/><path d="M977.94012,274.6484h-24.1514v4.1704q0,6.6885-7.1104,6.6905h-3.9902l-1.4687-3.6905h5.58q2.9385,0,2.9395-2.7006v-4.4698H923.399v-3.75h26.3399v-2.5801a37.49249,37.49249,0,0,0,8.9707-4.3803h-22.9805v-3.4502h29.6397v3.2695a91.52086,91.52086,0,0,1-11.5801,6.5108v.6303h24.1514Zm-2.5196-11.1303h-3.6006v-6.21h-41.9111v6.5693h-3.9297V253.7988h5.1602V235.498q4.2582-.41895,9.3291-4.0503l1.9795,2.7603a17.64587,17.64587,0,0,1-7.4395,3.8101v2.519h7.6797v3.1206h-7.6797v3.2705h7.6797v3.0596h-7.6797v3.811H966.899v-3.811h-7.3203v-3h7.3203V243.478h-7.2597v-3.06h7.2597v-3.2696h-8.4902v-3.6303h12.3008v20.2197h4.7109Zm-17.0117-23.2803-2.0996,2.5791a31.94734,31.94734,0,0,0-4.6504-3.5689,35.7872,35.7872,0,0,1-5.46,3.75l-2.4599-2.1596a23.84413,23.84413,0,0,0,5.0996-2.8203,52.48794,52.48794,0,0,0-5.9102-1.9209l1.5313-2.7598a55.46438,55.46438,0,0,1,6.6894,2.1606,25.6025,25.6025,0,0,0,3.5704-4.1108l2.5195,2.0112a19.05988,19.05988,0,0,1-3.1192,3.6294A22.45727,22.45727,0,0,1,958.40882,240.2378Zm.3604,10.9199-2.5205,1.9805a27.78524,27.78524,0,0,0-5.0391-3.0908,32.44232,32.44232,0,0,1-5.7608,3.0908l-2.2802-1.8008a29.67736,29.67736,0,0,0,5.5508-3.1797,30.45937,30.45937,0,0,0-5.1006-2.3394l2.249-1.8911a37.5701,37.5701,0,0,1,5.2812,2.3106,25.60633,25.60633,0,0,0,3.3907-2.8794l2.7597,1.4097a15.04146,15.04146,0,0,1-3.4199,3.269A22.34294,22.34294,0,0,1,958.76922,251.1577Z" fill="#fff"/><path d="M1060.68234,281.6382l-2.6407,3.5107q-15.2694-4.5-24.7793-12.1211-8.1942,6.6915-25.7421,12.3614l-2.9395-3.5704q16.98045-4.7094,25.6816-11.4306a40.8608,40.8608,0,0,1-11.7304-20.0699,33.154,33.154,0,0,1-4.4414,7.9195l-3.1778-2.9097a39.6302,39.6302,0,0,0,6.087-9.8701h-10.3194v-3.6899h24.0625V231.5073h3.8692V241.708h24.4804v3.6904h-10.2617q-2.6982,15.66-12.4199,24.9287Q1045.26144,277.0486,1060.68234,281.6382Zm-15.8711-36.2398h-23.2188q2.39655,13.88895,11.7276,22.3501Q1042.44154,259.25835,1044.81124,245.3984Z" fill="#fff"/><path d="M1141.864,274.6484h-24.1524v4.1704q0,6.6885-7.1094,6.6905h-3.9902l-1.4687-3.6905h5.5781q2.94135,0,2.9414-2.7006v-4.4698H1087.323v-3.75h26.3398v-2.5801a37.431,37.431,0,0,0,8.9687-4.3803h-22.9804v-3.4502h29.6406v3.2695a91.45738,91.45738,0,0,1-11.5801,6.5108v.6303h24.1524Zm-2.5196-11.1303h-3.6015v-6.21h-41.9121v6.5693h-3.9297V253.7988h5.1601V235.498q4.25985-.41895,9.3321-4.0503l1.9785,2.7603a17.64793,17.64793,0,0,1-7.4414,3.8101v2.519h7.6816v3.1206h-7.6816v3.2705h7.6816v3.0596h-7.6816v3.811h31.8926v-3.811h-7.3223v-3h7.3223V243.478h-7.2598v-3.06h7.2598v-3.2696h-8.4903v-3.6303h12.2988v20.2197h4.7129Zm-17.0117-23.2803-2.1015,2.5791a31.86805,31.86805,0,0,0-4.6485-3.5689,35.91117,35.91117,0,0,1-5.4619,3.75l-2.458-2.1596a23.866,23.866,0,0,0,5.0996-2.8203,52.749,52.749,0,0,0-5.9111-1.9209l1.5322-2.7598a55.40041,55.40041,0,0,1,6.6885,2.1606,25.44941,25.44941,0,0,0,3.5693-4.1108l2.5215,2.0112a19.16744,19.16744,0,0,1-3.1191,3.6294A22.45982,22.45982,0,0,1,1122.33271,240.2378Zm.3594,10.9199-2.5186,1.9805a27.79961,27.79961,0,0,0-5.042-3.0908,32.385,32.385,0,0,1-5.7597,3.0908l-2.2813-1.8008a29.51289,29.51289,0,0,0,5.5508-3.1797,30.438,30.438,0,0,0-5.0996-2.3394l2.25-1.8911a37.60689,37.60689,0,0,1,5.2803,2.3106,25.36353,25.36353,0,0,0,3.3896-2.8794l2.7598,1.4097a15.01744,15.01744,0,0,1-3.419,3.269A22.36647,22.36647,0,0,1,1122.69211,251.1577Z" fill="#fff"/><path d="M1181.38843,251.9077q6.063,6.81,6.0625,13.29a7.30778,7.30778,0,0,1-1.6367,5.0103,5.76245,5.76245,0,0,1-4.5742,1.8608,23.78461,23.78461,0,0,1-3.9004-.3896l-1.1103-3.9912a21.68105,21.68105,0,0,0,4.6201.8105,3.05052,3.05052,0,0,0,2.1299-.9004,3.12735,3.12735,0,0,0,.9619-2.4004,14.38291,14.38291,0,0,0-1.6504-5.7597,22.92852,22.92852,0,0,0-4.9512-6.6895l5.8516-15.0312h-8.9102v47.792h-3.9316V233.9077h16.831v3.8096Zm41.3731,22.5908a20.72677,20.72677,0,0,1-2.1025,7.0503,4.62021,4.62021,0,0,1-4.2881,2.19h-4.6797q-4.68165,0-4.6797-4.92V262.9492h-6.3311q-.18015,9.6585-3.7646,14.4741-3.5859,4.815-13.3067,8.086l-2.5195-3.4512q9.02925-2.669,12.3897-6.9004,3.3618-4.22895,3.3916-12.1489h-8.2207v-3.9317h32.1328v3.8721h-10.0235v14.94a2.28872,2.28872,0,0,0,.4805,1.3945,1.39508,1.39508,0,0,0,1.1397.6445h3.8115q1.169,0,1.7851-1.9194a30.70961,30.70961,0,0,0,1.0352-4.981Zm-3.4522-27.2114-3.8076.061v-5.2812h-22.622v5.2812h-3.8702v-9.0908h13.1709v-6.8096h3.9297v6.75h13.1992Zm-5.038,5.79H1193.99v-3.9287h20.2813Z" fill="#fff"/><path d="M1305.789,274.6484h-24.1524v4.1704q0,6.6885-7.1093,6.6905h-3.9903l-1.4707-3.6905h5.5791q2.94285,0,2.9424-2.7006v-4.4698H1251.246v-3.75h26.3418v-2.5801a37.43409,37.43409,0,0,0,8.9688-4.3803h-22.9805v-3.4502h29.6406v3.2695a91.59149,91.59149,0,0,1-11.5801,6.5108v.6303h24.1524Zm-2.5215-11.1303h-3.5996v-6.21h-41.9102v6.5693h-3.9316V253.7988h5.1621V235.498q4.25685-.41895,9.3281-4.0503l1.9805,2.7603a17.65072,17.65072,0,0,1-7.4395,3.8101v2.519h7.6797v3.1206h-7.6797v3.2705h7.6797v3.0596h-7.6797v3.811h31.8897v-3.811h-7.3193v-3h7.3193V243.478h-7.2588v-3.06h7.2588v-3.2696h-8.4893v-3.6303h12.2989v20.2197h4.7109Zm-17.0098-23.2803-2.1015,2.5791a31.95285,31.95285,0,0,0-4.6504-3.5689,35.8362,35.8362,0,0,1-5.459,3.75l-2.4609-2.1596a23.78733,23.78733,0,0,0,5.1015-2.8203,52.61223,52.61223,0,0,0-5.9101-1.9209l1.5293-2.7598a55.172,55.172,0,0,1,6.6884,2.1606,25.62708,25.62708,0,0,0,3.5733-4.1108l2.5195,2.0112a19.07349,19.07349,0,0,1-3.1211,3.6294A22.43982,22.43982,0,0,1,1286.25766,240.2378Zm.3594,10.9199-2.5205,1.9805a27.83976,27.83976,0,0,0-5.0381-3.0908,32.42148,32.42148,0,0,1-5.7617,3.0908l-2.2793-1.8008a29.745,29.745,0,0,0,5.5508-3.1797,30.5504,30.5504,0,0,0-5.1016-2.3394l2.25-1.8911a37.41887,37.41887,0,0,1,5.2783,2.3106,25.45011,25.45011,0,0,0,3.3916-2.8794l2.7588,1.4097a15.01909,15.01909,0,0,1-3.4189,3.269A22.30327,22.30327,0,0,1,1286.61706,251.1577Z" fill="#fff"/><path d="M1387.94473,282.5088h-54.5996v-3.8696h25.4395V264.5683h-18.3301v-3.8706h18.3301V248.458h-13.5908a31.93227,31.93227,0,0,1-8.2198,11.79l-3.9599-2.0708a33.13787,33.13787,0,0,0,10.9492-22.2592l4.0508,1.1694a44.89283,44.89283,0,0,1-1.4112,7.561h12.1231V231.5073h4.0488v13.0801h21.1797v3.8706h-21.1797v12.1802h18.0606v3.8691h-18.0606v14.0708h25.1699Z" fill="#fff"/><path d="M1470.5215,245.3374l-2.1582,3.1206q-10.232-2.5203-16.0215-5.8198v2.6992h-20.2822v-2.9697a60.73856,60.73856,0,0,1-15.7178,5.9101l-1.9805-3.1504q16.86045-4.1103,28.0791-13.7402l3.6904,1.2305a5.14075,5.14075,0,0,1-1.0488,1.0503Q1455.04005,241.948,1470.5215,245.3374Zm-6.3887,17.1914h-43.5605V248.458h43.5605Zm-3.5703,23.0395h-3.6914v-2.3999h-28.9805v2.3999h-3.6894V265.6782h36.3613Zm-20.0117-26.2812v-7.5h-16.2891v7.5Zm16.3203,13.561V268.978h-28.9805v3.8701Zm0,7.0801v-3.9297h-28.9805v3.9297Zm-20.3115-23.6099-3.0889,2.1597a21.6338,21.6338,0,0,0-5.459-4.1699l3.1191-1.7993A15.39634,15.39634,0,0,1,1436.5596,256.3183Zm14.5517-14.3095a37.83056,37.83056,0,0,1-8.4297-6.1519,46.13624,46.13624,0,0,1-9.75,6.1519Zm9.3291,17.2783v-7.5h-16.1982v7.5Zm-3.6279-5.729a14.31469,14.31469,0,0,1-5.3418,4.8003l-3.2988-1.6499a15.59626,15.59626,0,0,0,5.4004-4.4404Z" fill="#fff"/></g></svg>