<svg xmlns="http://www.w3.org/2000/svg" xmlns:xlink="http://www.w3.org/1999/xlink" viewBox="0 0 628.4355 799.0234"><defs><clipPath id="a"><rect width="628.4355" height="799.0234" fill="none"/></clipPath></defs><g clip-path="url(#a)"><path d="M74.4697,135.7861a105.38368,105.38368,0,0,0-8.084,33.7119,10.38277,10.38277,0,0,1,13.6768.4795,92.6282,92.6282,0,0,1,92.3457-85.4336,6.8374,6.8374,0,1,0,0-13.6748,106.4097,106.4097,0,0,0-97.9385,64.917Z" fill="#a39b4b"/><path d="M164.8398,269.4814A92.62754,92.62754,0,0,1,79.792,177.5859a6.8379,6.8379,0,1,0-13.6758,0,106.21536,106.21536,0,0,0,98.1807,105.5762,10.37272,10.37272,0,0,1,.5429-13.6807Z" fill="#a39b4b"/><path d="M246.5059,243.7031a6.83609,6.83609,0,0,0-9.669,0,92.31545,92.31545,0,0,1-64.4287,26.0879,6.8374,6.8374,0,0,0,0,13.6748,105.92954,105.92954,0,0,0,74.0977-30.0928A6.83488,6.83488,0,0,0,246.5059,243.7031Z" fill="#a39b4b"/><path d="M172.4082,70.8672A106.21322,106.21322,0,0,0,66.3848,169.4961a10.39168,10.39168,0,0,1,13.6748.4795A92.63231,92.63231,0,0,1,172.4082,84.542a6.8374,6.8374,0,1,0,0-13.6748Zm-7.5703,198.6133a92.61893,92.61893,0,0,1-85.043-91.8946,6.83985,6.83985,0,0,0-13.6797,0,106.21614,106.21614,0,0,0,98.1836,105.5743,10.377,10.377,0,0,1,.5391-13.6797Zm81.6689-25.7754a6.83235,6.83235,0,0,0-9.6699,0A92.31467,92.31467,0,0,1,172.4082,269.79a6.8374,6.8374,0,0,0,0,13.6748,105.95121,105.95121,0,0,0,74.0986-30.0888A6.83935,6.83935,0,0,0,246.5068,243.7051Z" fill="#a39b4b"/><path d="M228.6973,120.877a79.61485,79.61485,0,1,0,23.3144,56.289A79.07174,79.07174,0,0,0,228.6973,120.877ZM127.4746,155.2314H120.999v43.875h6.4756v3.8047H116.3047V151.4219h11.1699Zm8.8145,47.6797V166.5459q0-4.69335-.1651-8.5098-.15675-3.81735-.4795-6.6142h6.5948V187.626q0,1.5453.0498,3.6347.0453,2.09325.1298,4.25.0747,2.1534.1905,4.1202c.0742,1.3046.164,2.4003.2734,3.2802Zm34.7539-28.6045h-6.0489v24.3897h6.0489v4.2148H153.0234v-4.2148h5.9493V174.3066h-5.9493v-4.2207H171.043Zm38.1347,25.0645a36.26076,36.26076,0,0,1-.9492,9.0303,15.52244,15.52244,0,0,1-2.6562,5.7246,9.242,9.242,0,0,1-4.1036,3.0254,15.27,15.27,0,0,1-5.3261.8838,12.3417,12.3417,0,0,1-6.1153-1.7696l2.0957-4.8242a6.3324,6.3324,0,0,0,1.9747.915,8.69387,8.69387,0,0,0,2.5244.3692,7.33692,7.33692,0,0,0,2.7705-.4942,4.6758,4.6758,0,0,0,2.0761-1.7558,9.58091,9.58091,0,0,0,1.3047-3.4444,28.51262,28.51262,0,0,0,.4493-5.5654v-14.165a39.545,39.545,0,0,0-.4004-6.2549,10.86252,10.86252,0,0,0-1.209-3.7354,3.9948,3.9948,0,0,0-2.0108-1.7841,8.03216,8.03216,0,0,0-2.8154-.4502,7.58,7.58,0,0,0-3.3945.8203,12.5054,12.5054,0,0,0-3.0449,2.125,15.86853,15.86853,0,0,0-2.4454,2.9443,13.6,13.6,0,0,0-1.5742,3.2803v18.665H180.373v-19.79a50.38019,50.38019,0,0,0-.5449-8.0606,41.14691,41.14691,0,0,0-1.0644-4.9746h5.7939a11.33033,11.33033,0,0,1,.3848,1.3399c.1308.5449.2451,1.1201.3555,1.7207.1044.5996.205,1.1894.29,1.7695l.2549,1.4453a21.09169,21.09169,0,0,1,6.2148-5.29,13.88936,13.88936,0,0,1,6.5-1.6299,11.35588,11.35588,0,0,1,4.5498.8545,8.01862,8.01862,0,0,1,3.336,2.7051,13.14885,13.14885,0,0,1,2.039,4.7949,31.20642,31.20642,0,0,1,.6953,7.0947Zm19.335,3.54h-11.165v-3.8047h6.4697v-43.875h-6.4697v-3.8095h11.165Z" fill="#a39b4b"/><path d="M102.7051,426.1641V358.4082h8.1543v60.5723h28.8301v7.1836Z" fill="#a39b4b"/><path d="M154.4434,364.3301a4.74357,4.74357,0,0,1-3.6407-1.2129,4.474,4.474,0,0,1-1.1152-3.1553v-1.2627a4.47975,4.47975,0,0,1,1.1152-3.1543,6.07035,6.07035,0,0,1,7.2813,0,4.48488,4.48488,0,0,1,1.1162,3.1543v1.2627a4.47914,4.47914,0,0,1-1.1162,3.1553A4.74629,4.74629,0,0,1,154.4434,364.3301Zm-3.8829,11.7461h7.7657v50.0879h-7.7657Z" fill="#a39b4b"/><path d="M174.8281,426.1641V376.0762h7.7656v8.0605h.3887a16.337,16.337,0,0,1,5.1934-6.7265q3.3486-2.49765,8.9785-2.4991,7.76625,0,12.2803,4.9991,4.5132,5.00085,4.5136,14.124v32.1299h-7.7656V395.3262q0-13.52355-11.3574-13.5235a17.43525,17.43525,0,0,0-4.5147.584,13.1325,13.1325,0,0,0-3.9306,1.752,8.64582,8.64582,0,0,0-2.7666,2.9668,8.43785,8.43785,0,0,0-1.0196,4.2314v34.8272Z" fill="#a39b4b"/><path d="M269.7637,424.5137q0,10.3857-5.8242,16.3086-5.82435,5.91945-16.4053,5.9218a26.54257,26.54257,0,0,1-10.5325-1.9013,21.49644,21.49644,0,0,1-7.3279-5.0225l4.5616-5.3623a17.64071,17.64071,0,0,0,5.8242,3.9971,19.55945,19.55945,0,0,0,7.6689,1.3965q6.79395,0,10.5313-3.752,3.73635-3.75735,3.738-11.0684v-6.9277h-.3884a16.48156,16.48156,0,0,1-5.8242,6.918,16.00954,16.00954,0,0,1-8.834,2.3076,19.04566,19.04566,0,0,1-8.4453-1.8447,17.89475,17.89475,0,0,1-6.4063-5.2412,25.22843,25.22843,0,0,1-4.0762-8.251,41.29218,41.29218,0,0,1,0-21.7442,25.26659,25.26659,0,0,1,4.0762-8.2509,17.92676,17.92676,0,0,1,6.4063-5.2422,19.04525,19.04525,0,0,1,8.4453-1.8438,17.049,17.049,0,0,1,8.9795,2.2578,14.09718,14.09718,0,0,1,5.6787,6.9678h.3884v-8.0605h7.7659Zm-20.4825-4.0762a17.52537,17.52537,0,0,0,4.9512-.6836,12.0163,12.0163,0,0,0,4.0274-2,10.00385,10.00385,0,0,0,2.7187-3.2187,9.25816,9.25816,0,0,0,1.0193-4.4395V391.4609a8.02532,8.02532,0,0,0-.9705-3.8535,9.10957,9.10957,0,0,0-2.7187-3.0722,14.04085,14.04085,0,0,0-4.0762-2,16.416,16.416,0,0,0-4.9512-.7325q-6.602,0-10.4833,4.1953a15.30966,15.30966,0,0,0-3.8831,10.8301v8.584a15.31117,15.31117,0,0,0,3.8831,10.8301Q242.67825,420.43755,249.2812,420.4375Z" fill="#a39b4b"/><path d="M317.1328,418.1035h-.3887a23.71864,23.71864,0,0,1-1.8925,3.4121,12.73275,12.73275,0,0,1-2.7657,2.9785,12.95024,12.95024,0,0,1-3.9804,2.0664,17.38985,17.38985,0,0,1-5.4356.7686q-7.76805,0-12.3281-4.999-4.5645-4.99815-4.5625-14.124V376.0762h7.7656v30.8379q0,13.5234,11.4539,13.5234a17.37949,17.37949,0,0,0,4.5139-.584,12.49525,12.49525,0,0,0,3.8828-1.75,8.85514,8.85514,0,0,0,2.7178-2.9678,8.65312,8.65312,0,0,0,1.0195-4.3291V376.0762h7.7656v50.0879h-7.7656Z" fill="#a39b4b"/><path d="M345.2832,364.3301a4.7417,4.7417,0,0,1-3.6406-1.2129,4.47418,4.47418,0,0,1-1.1162-3.1553v-1.2627a4.4799,4.4799,0,0,1,1.1162-3.1543,6.06885,6.06885,0,0,1,7.2803,0,4.48578,4.48578,0,0,1,1.1162,3.1543v1.2627a4.48,4.48,0,0,1-1.1162,3.1553A4.74554,4.74554,0,0,1,345.2832,364.3301Zm-3.8828,11.7461h7.7654v50.0879h-7.7654Z" fill="#a39b4b"/><path d="M380.7139,427.3291a23.43015,23.43015,0,0,1-11.6973-2.6689,26.59045,26.59045,0,0,1-8.1055-7.1348l5.5332-4.4658a21.74863,21.74863,0,0,0,6.5039,5.6787,16.93785,16.93785,0,0,0,8.3487,1.9902q4.9497,0,7.7168-2.1357a7.759,7.759,0,0,0,.873-11.0176q-1.89285-2.0874-6.844-2.8633l-3.9792-.583a33.12115,33.12115,0,0,1-6.4073-1.5039,17.80187,17.80187,0,0,1-5.0957-2.7188,11.66541,11.66541,0,0,1-3.3974-4.2226,13.75767,13.75767,0,0,1-1.2139-6.0176,14.46946,14.46946,0,0,1,1.3594-6.4551,12.98632,12.98632,0,0,1,3.7373-4.6113,16.34917,16.34917,0,0,1,5.6787-2.7666,26.24993,26.24993,0,0,1,7.0859-.9219,22.11655,22.11655,0,0,1,10.2413,2.1358,22.95625,22.95625,0,0,1,7.2314,5.9209l-5.1445,4.6592a15.45406,15.45406,0,0,0-4.8535-4.2227,15.62926,15.62926,0,0,0-8.0567-1.8926q-4.85445,0-7.3291,2.0869a7.04183,7.04183,0,0,0-2.4756,5.6787q0,3.69,2.4756,5.3389a18.4649,18.4649,0,0,0,7.1348,2.4268l3.8825.582q8.34855,1.2627,11.8431,4.8047a12.6355,12.6355,0,0,1,3.4941,9.2715q0,7.28025-4.9502,11.4541Q389.354,427.3301,380.7139,427.3291Z" fill="#a39b4b"/><path d="M423.3291,426.1641q-4.0767,0-6.1643-2.2754a8.46563,8.46563,0,0,1-2.0867-5.9571V382.9678h-8.251v-6.8916h4.6592q2.5221,0,3.4463-1.0196a5.2923,5.2923,0,0,0,.9219-3.5429v-9.3194h6.9892v13.8819h10.9688v6.8916H422.8437v36.3047h10.1924v6.8916Z" fill="#a39b4b"/><path d="M450.2178,364.3301a4.73814,4.73814,0,0,1-3.6397-1.2129,4.46984,4.46984,0,0,1-1.1172-3.1553v-1.2627a4.47555,4.47555,0,0,1,1.1172-3.1543,6.06735,6.06735,0,0,1,7.2793,0,4.48051,4.48051,0,0,1,1.1172,3.1543v1.2627a4.47478,4.47478,0,0,1-1.1172,3.1553A4.74219,4.74219,0,0,1,450.2178,364.3301Zm-3.8831,11.7461h7.7659v50.0879h-7.7659Z" fill="#a39b4b"/><path d="M489.2402,427.3291a23.07917,23.07917,0,0,1-9.416-1.8447,19.19956,19.19956,0,0,1-7.0371-5.2412,23.33471,23.33471,0,0,1-4.3694-8.251,40.05832,40.05832,0,0,1,0-21.7442,23.36793,23.36793,0,0,1,4.3694-8.2509,19.233,19.233,0,0,1,7.0371-5.2422,23.07905,23.07905,0,0,1,9.416-1.8438q7.47375,0,11.9883,3.251a19.841,19.841,0,0,1,6.7461,8.4941l-6.5039,3.3008a11.79358,11.79358,0,0,0-4.4648-6.0185,13.40168,13.40168,0,0,0-7.7657-2.1358,15.52891,15.52891,0,0,0-6.1154,1.1162,11.96192,11.96192,0,0,0-4.3689,3.1065,13.0827,13.0827,0,0,0-2.6202,4.7558,20.06019,20.06019,0,0,0-.874,6.0674v8.542a16.25751,16.25751,0,0,0,3.543,10.8242q3.54165,4.22175,10.4355,4.2227,9.4146,0,13.5899-8.7363l5.6308,3.7851a19.90218,19.90218,0,0,1-7.2324,8.6397A21.151,21.151,0,0,1,489.2402,427.3291Z" fill="#a39b4b"/><path d="M534.4746,427.3291a23.42989,23.42989,0,0,1-11.6973-2.6689,26.59242,26.59242,0,0,1-8.1054-7.1348l5.5332-4.4658a21.76337,21.76337,0,0,0,6.5036,5.6787,16.93364,16.93364,0,0,0,8.3479,1.9902q4.9512,0,7.7168-2.1357a7.75745,7.75745,0,0,0,.875-11.0176q-1.894-2.0874-6.8437-2.8633l-3.9805-.583a33.09871,33.09871,0,0,1-6.4065-1.5039,17.80865,17.80865,0,0,1-5.0964-2.7188,11.66464,11.66464,0,0,1-3.3975-4.2226,13.74508,13.74508,0,0,1-1.2129-6.0176,14.4572,14.4572,0,0,1,1.3584-6.4551,12.99061,12.99061,0,0,1,3.7373-4.6113,16.35835,16.35835,0,0,1,5.6788-2.7666,26.25207,26.25207,0,0,1,7.0869-.9219,22.11775,22.11775,0,0,1,10.2402,2.1358,22.96978,22.96978,0,0,1,7.2324,5.9209l-5.1455,4.6592a15.44284,15.44284,0,0,0-4.8535-4.2227,15.63139,15.63139,0,0,0-8.0566-1.8926q-4.8564,0-7.3291,2.0869a7.03814,7.03814,0,0,0-2.4747,5.6787q0,3.69,2.4747,5.3389a18.47045,18.47045,0,0,0,7.1347,2.4268l3.8828.582q8.34675,1.2627,11.8428,4.8047a12.63977,12.63977,0,0,1,3.4951,9.2715q0,7.28025-4.9511,11.4541Q543.1133,427.3301,534.4746,427.3291Z" fill="#a39b4b"/><path d="M121.7314,543.8145a29.1999,29.1999,0,0,1-14.0752-3.1543,29.8777,29.8777,0,0,1-9.9013-8.6875l6.0185-5.0489a26.3537,26.3537,0,0,0,7.959,7.2324,20.525,20.525,0,0,0,10.291,2.4747q7.2804,0,11.1133-3.4942a11.99467,11.99467,0,0,0,3.835-9.3183q0-4.8531-2.9121-7.4747-2.9121-2.622-9.6104-4.1748l-5.5332-1.2617q-9.31935-2.1342-14.2207-6.4551-4.90275-4.31835-4.9023-12.1826a18.40369,18.40369,0,0,1,1.6504-7.959,15.96154,15.96154,0,0,1,4.6113-5.8242,20.79831,20.79831,0,0,1,7.0859-3.5439,32.08532,32.08532,0,0,1,9.0762-1.2139,28.49834,28.49834,0,0,1,13.1533,2.8164,25.34352,25.34352,0,0,1,9.2705,8.25l-6.1152,4.4658a21.14311,21.14311,0,0,0-6.7949-6.1162,20.02788,20.02788,0,0,0-9.9024-2.2324q-6.50385,0-10.2402,2.7666-3.7383,2.767-3.7383,8.2998,0,4.85445,3.1563,7.3281,3.15225,2.4756,9.5605,3.9327l5.5332,1.2617q9.99615,2.2338,14.4629,6.7949,4.4649,4.563,4.4658,12.1338a21.48123,21.48123,0,0,1-1.6015,8.4453,17.33628,17.33628,0,0,1-4.6104,6.4062,21.43525,21.43525,0,0,1-7.3291,4.0772A30.45288,30.45288,0,0,1,121.7314,543.8145Z" fill="#a39b4b"/><path d="M177.2559,543.8145a22.58392,22.58392,0,0,1-9.2227-1.8438,19.86239,19.86239,0,0,1-7.1348-5.291,24.88,24.88,0,0,1-4.6103-8.251,36.17826,36.17826,0,0,1,0-21.5986,24.82661,24.82661,0,0,1,4.6103-8.2989,19.89723,19.89723,0,0,1,7.1348-5.291,22.58389,22.58389,0,0,1,9.2227-1.8437,22.2524,22.2524,0,0,1,9.1728,1.8437,20.48777,20.48777,0,0,1,7.1348,5.291,24.41663,24.41663,0,0,1,4.6592,8.2989,36.16362,36.16362,0,0,1,0,21.5986,24.46727,24.46727,0,0,1-4.6592,8.251,20.45072,20.45072,0,0,1-7.1348,5.291A22.25243,22.25243,0,0,1,177.2559,543.8145Zm0-6.8926a14.11136,14.11136,0,0,0,10.289-3.8828q3.9786-3.8805,3.9805-11.8418v-7.1836q0-7.95855-3.9805-11.8428a15.57523,15.57523,0,0,0-20.5791,0q-3.98145,3.88335-3.9795,11.8428v7.1836q0,7.9599,3.9795,11.8418A14.109,14.109,0,0,0,177.2559,536.9219Z" fill="#a39b4b"/><path d="M231.3242,543.8145a23.07905,23.07905,0,0,1-9.416-1.8438,19.19378,19.19378,0,0,1-7.0371-5.2422,23.33619,23.33619,0,0,1-4.3694-8.251,40.05026,40.05026,0,0,1,0-21.7441,23.35346,23.35346,0,0,1,4.3694-8.251,19.227,19.227,0,0,1,7.0371-5.2422,23.079,23.079,0,0,1,9.416-1.8437q7.4736,0,11.9883,3.2519a19.842,19.842,0,0,1,6.7461,8.4932l-6.5039,3.3008a11.79442,11.79442,0,0,0-4.4649-6.0186,13.404,13.404,0,0,0-7.7656-2.1357,15.52417,15.52417,0,0,0-6.1155,1.1162,11.96388,11.96388,0,0,0-4.3689,3.1064,13.09723,13.09723,0,0,0-2.6211,4.7569,20.07545,20.07545,0,0,0-.873,6.0664v8.543a16.25677,16.25677,0,0,0,3.543,10.8232q3.542,4.2231,10.4355,4.2217,9.4131,0,13.5899-8.7364l5.6298,3.7872a19.88975,19.88975,0,0,1-7.2314,8.6386A21.16031,21.16031,0,0,1,231.3242,543.8145Z" fill="#a39b4b"/><path d="M265.3945,480.8154a4.73568,4.73568,0,0,1-3.6396-1.2138,4.46929,4.46929,0,0,1-1.1162-3.1543v-1.2618a4.47476,4.47476,0,0,1,1.1162-3.1552,6.06485,6.06485,0,0,1,7.2803,0,4.48378,4.48378,0,0,1,1.1162,3.1552v1.2618a4.47829,4.47829,0,0,1-1.1162,3.1543A4.74209,4.74209,0,0,1,265.3945,480.8154Zm-3.8828,11.7451h7.7656v50.0889h-7.7656Z" fill="#a39b4b"/><path d="M304.6113,543.8145a22.48709,22.48709,0,0,1-9.2695-1.8438,19.9502,19.9502,0,0,1-7.0859-5.291,24.21852,24.21852,0,0,1-4.5625-8.251,37.2095,37.2095,0,0,1,0-21.5986,24.17508,24.17508,0,0,1,4.5625-8.2989,19.98562,19.98562,0,0,1,7.0859-5.291,22.48707,22.48707,0,0,1,9.2695-1.8437,21.29216,21.29216,0,0,1,9.0274,1.8379,19.99381,19.99381,0,0,1,6.7949,5.0801,22.62184,22.62184,0,0,1,4.3203,7.6894,30.36717,30.36717,0,0,1,1.5049,9.7695v3.6758H290.2451v2.3301a17.13611,17.13611,0,0,0,1.0195,5.9707,14.16013,14.16013,0,0,0,2.9122,4.8047,13.32492,13.32492,0,0,0,4.6591,3.2031,16.00222,16.00222,0,0,0,6.2618,1.1641,15.22522,15.22522,0,0,0,8.2988-2.2324,14.64463,14.64463,0,0,0,5.4844-6.4063l5.5332,4.0059a19.337,19.337,0,0,1-7.5713,8.3515A22.84377,22.84377,0,0,1,304.6113,543.8145Zm0-45.9141a14.79123,14.79123,0,0,0-5.8242,1.1094,13.084,13.084,0,0,0-4.5137,3.1357,14.71345,14.71345,0,0,0-2.9609,4.7744,16.50637,16.50637,0,0,0-1.0674,6.0303v.6748h27.6651v-1.0615q0-6.65625-3.6397-10.6592A12.42394,12.42394,0,0,0,304.6113,497.9004Z" fill="#a39b4b"/><path d="M350.1377,542.6494q-4.0767,0-6.1641-2.2744a8.46943,8.46943,0,0,1-2.0869-5.958V499.4531h-8.251v-6.8926h4.6592q2.52255,0,3.4463-1.0195a5.2897,5.2897,0,0,0,.9219-3.542v-9.3193h6.9892v13.8808h10.9688v6.8926H349.6523v36.3047h10.1924v6.8916Z" fill="#a39b4b"/><path d="M404.0117,492.5605h7.669l-22.4229,61.7383a27.681,27.681,0,0,1-1.748,3.7364,7.28143,7.28143,0,0,1-2.135,2.3789,8.512,8.512,0,0,1-3.1551,1.2617,23.44477,23.44477,0,0,1-4.6103.3887h-3.9805v-6.8926h7.8633l3.7851-10.6612-18.7346-51.9502h7.7659l12.0371,34.0069,2.3291,8.1396h.4854l2.7177-8.1396Z" fill="#a39b4b"/><path d="M116.1113,637.5625l-2.4155-7.6787H102.9966l-2.3726,7.6787H94.8428l10.0952-30.1123h7.0752l10.0083,30.1123Zm-7.6787-24.9346h-.2158l-3.8394,12.3809h7.9375Z" fill="#a39b4b"/><path d="M146.4385,637.5625l-2.4156-7.6787H133.3237l-2.3725,7.6787h-5.7813l10.0952-30.1123h7.0752l10.0083,30.1123Zm-7.6792-24.9346h-.2154l-3.8393,12.3809h7.9375Z" fill="#a39b4b"/><path d="M175.9038,624.8369H163.3496v12.7256h-5.6948V607.4502h5.6948v12.3379h12.5542V607.4502h5.6943v30.1123h-5.6943Z" fill="#a39b4b"/><path d="M199.2422,623.9307l-4.0117,4.7461v8.8857h-5.6949V607.4502h5.6949V622.291h.2153l4.271-5.6504,7.4634-9.1904h6.5576l-10.4834,12.5537,11.3457,17.5586h-6.7725Z" fill="#a39b4b"/><path d="M225.0405,607.4502V625.958a8.6327,8.6327,0,0,0,1.3594,5.3066q1.358,1.76955,4.5938,1.7686,3.2358,0,4.5952-1.7686a8.64306,8.64306,0,0,0,1.3584-5.3066V607.4502h5.6084v17.7754a23.08439,23.08439,0,0,1-.6255,5.7363,9.78406,9.78406,0,0,1-2.0059,4.0137,8.096,8.096,0,0,1-3.6025,2.3506,16.84338,16.84338,0,0,1-5.3711.7539,16.5868,16.5868,0,0,1-5.3711-.7539,8.10247,8.10247,0,0,1-3.5591-2.3506,9.56526,9.56526,0,0,1-1.9844-4.0137,23.83775,23.83775,0,0,1-.604-5.7363V607.4502Z" fill="#a39b4b"/><text transform="translate(92.80664 738.24707)" font-size="42" fill="#a39b4b" font-family="FiraSans-Bold, Fira Sans" font-weight="700">Se<tspan x="47.29102" y="0" letter-spacing="-0.00699em">s</tspan><tspan x="67.15747" y="0">sion 2020–2021</tspan></text></g></svg>