<svg xmlns="http://www.w3.org/2000/svg" xmlns:xlink="http://www.w3.org/1999/xlink" viewBox="0 0 633.1895 1102.7686"><defs><clipPath id="a"><rect width="633.1895" height="1102.7686" fill="none"/></clipPath></defs><g clip-path="url(#a)"><path d="M79.2217,135.7842a105.38241,105.38241,0,0,0-8.084,33.7119,10.38246,10.38246,0,0,1,13.6768.4795A92.62843,92.62843,0,0,1,177.1612,84.542a6.8374,6.8374,0,1,0,0-13.6748,106.4093,106.4093,0,0,0-97.9395,64.917Z" fill="#a39b4b"/><path d="M169.5918,269.4795A92.62762,92.62762,0,0,1,84.544,177.584a6.8379,6.8379,0,1,0-13.6758,0,106.21507,106.21507,0,0,0,98.1817,105.5762,10.37412,10.37412,0,0,1,.5419-13.6807Z" fill="#a39b4b"/><path d="M251.2588,243.7012a6.83572,6.83572,0,0,0-9.6689,0,92.31073,92.31073,0,0,1-64.4287,26.0879,6.8374,6.8374,0,0,0,0,13.6748,105.92905,105.92905,0,0,0,74.0976-30.0928A6.8347,6.8347,0,0,0,251.2588,243.7012Z" fill="#a39b4b"/><path d="M177.1612,70.8652A106.21338,106.21338,0,0,0,71.1368,169.4941a10.392,10.392,0,0,1,13.6748.4795A92.63262,92.63262,0,0,1,177.1612,84.54a6.8374,6.8374,0,1,0,0-13.6748Zm-7.5703,198.6133a92.61893,92.61893,0,0,1-85.044-91.8945,6.83985,6.83985,0,1,0-13.6797,0,106.21614,106.21614,0,0,0,98.1836,105.5742,10.37561,10.37561,0,0,1,.5401-13.6797Zm81.6689-25.7754a6.83235,6.83235,0,0,0-9.6699,0,92.3144,92.3144,0,0,1-64.4287,26.085,6.8374,6.8374,0,0,0,0,13.6748,105.95089,105.95089,0,0,0,74.0986-30.0889A6.83953,6.83953,0,0,0,251.2598,243.7031Z" fill="#a39b4b"/><path d="M233.4502,120.875a79.61473,79.61473,0,1,0,23.3145,56.2891A79.07107,79.07107,0,0,0,233.4502,120.875ZM132.2266,155.2295H125.751v43.875h6.4756v3.8047H121.0567V151.4199h11.1699Zm8.8145,47.6797V166.5439q0-4.69335-.1651-8.5097-.15675-3.81735-.4795-6.6143h6.5948V187.624q0,1.54545.0498,3.6348.0453,2.09325.1298,4.25.0747,2.15325.1905,4.1201c.0752,1.3047.165,2.4004.2744,3.2803Zm34.7548-28.6055h-6.0498v24.3906h6.0498v4.2149H157.7764v-4.2149h5.9492V174.3037h-5.9492V170.084h18.0195Zm38.1348,25.0654a36.20829,36.20829,0,0,1-.9502,9.0303,15.51652,15.51652,0,0,1-2.6553,5.7246,9.24994,9.24994,0,0,1-4.1045,3.0254,15.25875,15.25875,0,0,1-5.3251.8838,12.34294,12.34294,0,0,1-6.1153-1.7695l2.0957-4.8242a6.35438,6.35438,0,0,0,1.9746.915,8.69475,8.69475,0,0,0,2.5244.3691,7.33711,7.33711,0,0,0,2.7706-.4941,4.66727,4.66727,0,0,0,2.0751-1.7559,9.54458,9.54458,0,0,0,1.3047-3.4443,28.43436,28.43436,0,0,0,.4502-5.5654V187.2988a39.53477,39.53477,0,0,0-.4004-6.2549,10.85766,10.85766,0,0,0-1.2099-3.7353,3.98873,3.98873,0,0,0-2.0098-1.7842,8.03255,8.03255,0,0,0-2.8154-.4502,7.57966,7.57966,0,0,0-3.3945.8203,12.50868,12.50868,0,0,0-3.045,2.125,15.87264,15.87264,0,0,0-2.4453,2.9444,13.578,13.578,0,0,0-1.5742,3.2802v18.6651H185.126V183.1191a50.37884,50.37884,0,0,0-.5449-8.0605,40.91087,40.91087,0,0,0-1.0654-4.9746h5.7949a11.32233,11.32233,0,0,1,.3848,1.3398c.1308.5449.2451,1.1201.3554,1.7207.1045.5996.2051,1.1895.2901,1.7696l.2548,1.4453a21.09244,21.09244,0,0,1,6.2149-5.2901,13.89044,13.89044,0,0,1,6.5-1.6298,11.35556,11.35556,0,0,1,4.5498.8544,8.01,8.01,0,0,1,3.335,2.7051,13.167,13.167,0,0,1,2.04,4.7949,31.21305,31.21305,0,0,1,.6953,7.0948Zm19.335,3.5401H222.1006v-3.8047h6.4698v-43.875h-6.4698v-3.8096h11.1651Z" fill="#a39b4b"/><path d="M129.7618,426.0371H97.5538v-5.3467h32.208Zm-4.1914,56.9297h-5.5186v-5.8604h-12.874v5.8604h-5.6035V454.0527h23.9961Zm-.2579-45.8945-23.6523.0849v-5.3457h23.6523Zm.086,11.206H101.6602v-5.3467h23.7383Zm-1.0694-33.1055-21.7285.086v-5.3477h21.7285Zm-4.2773,56.6719V459.3135h-12.96v12.5312Zm55.2617-23.4814-46.2373.0859v-5.2607h11.4629l2.4815-13.2158H132.3282v-5.2618H143.877l1.8379-9.7959H129.334v-5.3457h42.4727v5.2618H151.4893l-1.7529,9.7949h17.622l-1.8398,18.4765h9.7949Zm-7.4424,34.7754h-5.5175v-5.7754H140.711v5.7754h-5.6035v-29h32.7636Zm-5.5175-11.0362V459.3994H140.625v12.7031Zm-.8555-42.2158H148.795l-2.4805,13.3018h13.8574Z" fill="#a39b4b"/><path d="M271.7559,426.0371H193.9961v-5.3467h77.7598ZM260.293,436.9863H204.6895v-5.1748H260.293Zm0,11.1201H204.6895v-5.1748H260.293Zm-2.0098,35.0323h-5.5175v-6.0323H212.6446v6.0323H207.127v-29.086h51.1562Zm-.0859-68.5215-50.6426.1279v-5.1758h50.6426Zm-5.4316,57.2275V459.3135H212.6446v12.5312Z" fill="#a39b4b"/><path d="M368.2002,467.6543H333.7676v5.9453q0,9.5376-10.1377,9.5391h-5.6884l-2.0958-5.2617h7.9551q4.19235,0,4.1934-3.8497v-6.373H290.4395v-5.3467h37.5547v-3.6787q8.937-3.3369,12.7881-6.2441H308.0176v-4.919h42.2617v4.6621a131.01476,131.01476,0,0,1-16.5117,9.2813v.8984h34.4326Zm-3.5927-15.8691h-5.1348v-8.8536h-59.751v9.3672h-5.6045V437.9277h7.3575V411.8359q6.0717-.5976,13.3027-5.7744l2.8232,3.9356a25.16353,25.16353,0,0,1-10.6084,5.4316v3.5938h10.9493v4.4482H306.9922v4.6621h10.9493v4.3623H306.9922v5.4326H352.459v-5.4326H342.0225v-4.2773H352.459v-5.0039H342.1075v-4.3623H352.459v-4.6631H340.3545v-5.1748h17.5362v28.8281h6.7168Zm-24.253-33.1905-2.9931,3.6778a45.68611,45.68611,0,0,0-6.6309-5.0899,51.06312,51.06312,0,0,1-7.7851,5.3467l-3.5069-3.0801a33.8994,33.8994,0,0,0,7.2725-4.0205,74.786,74.786,0,0,0-8.4278-2.7363l2.1827-3.9356a78.92868,78.92868,0,0,1,9.5381,3.0791,36.44936,36.44936,0,0,0,5.0898-5.8593l3.5928,2.8662a27.12289,27.12289,0,0,1-4.4483,5.1748A31.96151,31.96151,0,0,1,340.3545,418.5947Zm.5127,15.5684-3.5918,2.8232a39.61691,39.61691,0,0,0-7.1855-4.4052,46.22456,46.22456,0,0,1-8.2129,4.4052l-3.25-2.5664a42.43561,42.43561,0,0,0,7.9131-4.5332,43.40007,43.40007,0,0,0-7.2725-3.3369l3.208-2.6943a53.49338,53.49338,0,0,1,7.5284,3.2929,36.3957,36.3957,0,0,0,4.832-4.1064l3.9355,2.0107a21.45193,21.45193,0,0,1-4.875,4.6631A31.78844,31.78844,0,0,1,340.8672,434.1631Z" fill="#a39b4b"/><path d="M464.5567,467.6543H430.125v5.9453q0,9.5376-10.1367,9.5391h-5.6894l-2.0957-5.2617h7.956q4.191,0,4.1914-3.8497v-6.373H386.7969v-5.3467h37.5537v-3.6787q8.94-3.3369,12.7901-6.2441H404.376v-4.919h42.2598v4.6621a130.9264,130.9264,0,0,1-16.5108,9.2813v.8984h34.4317Zm-3.5918-15.8691h-5.1348v-8.8536H396.0782v9.3672h-5.6026V437.9277h7.3565V411.8359q6.0732-.5976,13.3027-5.7744l2.8223,3.9356a25.14291,25.14291,0,0,1-10.6074,5.4316v3.5938h10.9492v4.4482H403.3497v4.6621h10.9492v4.3623H403.3497v5.4326h45.4668v-5.4326H438.3809v-4.2773h10.4356v-5.0039H438.4649v-4.3623h10.3516v-4.6631H436.711v-5.1748h17.5371v28.8281h6.7168Zm-22.7305-18.5811-3.8965,3.5625a41.262,41.262,0,0,0-6.7851-8.0957q-5.7393,6.394-9.4326,8.1367l-3.8565-3.2383q4.34775-2.06835,9.4336-7.7324a49.61041,49.61041,0,0,0-8.2441-4.4551l3.3642-3.4785a66.388,66.388,0,0,1,7.711,4.21,24.47922,24.47922,0,0,0,2.624-6.0332H416.2735v-5.0596h6.9043v-5.21h4.4316v5.21h8.1953v5.0596h-1.623a32.20068,32.20068,0,0,1-3.6748,8.7051A39.7588,39.7588,0,0,1,438.2344,433.2041Z" fill="#a39b4b"/><path d="M562.3252,425.8662l-3.0791,4.4473q-14.5869-3.5919-22.8398-8.2969v3.8496h-28.915v-4.2353q-12.4893,6.4599-22.41313,8.4267l-2.82226-4.4912q24.03659-5.8593,40.03519-19.5898l5.2597,1.7529a7.27421,7.27421,0,0,1-1.497,1.4971Q540.254,421.03325,562.3252,425.8662Zm-9.1113,24.5078H491.10942V430.3135H553.2139Zm-5.0889,32.8487h-5.2607v-3.4219H501.5469v3.4219h-5.2617V454.8652H548.125Zm-28.5292-37.4678V435.0615H496.37016v10.6934Zm23.2685,19.333v-5.5176H501.5469v5.5176Zm0,10.0947v-5.6035H501.5469v5.6035Zm-28.957-33.6621-4.4053,3.0791a30.808,30.808,0,0,0-7.7852-5.9453l4.4483-2.5654A21.99907,21.99907,0,0,1,513.9073,441.5205Zm20.7451-20.4023a53.92509,53.92509,0,0,1-12.0195-8.7686,65.65218,65.65218,0,0,1-13.9004,8.7686Zm13.3027,24.6367V435.0615H524.8575v10.6934Zm-5.1767-8.1699a20.36973,20.36973,0,0,1-7.6133,6.8437l-4.7051-2.3516q5.60445-3.16545,7.6983-6.332Z" fill="#a39b4b"/><path d="M130.1641,356.1162l-1.6338,1.8809a38.20532,38.20532,0,0,1-13.9853-9.1016l.0351,6.8691h8.2051V370.875h-2.2314v-2.0205H106.3389v2.0205h-2.3017V355.7646h8.2402v-6.8691q-3.61815,5.53425-13.0723,8.6621l-1.6513-1.8633q8.38035-2.2134,11.9834-6.7988H99.5391v-2.1973h12.7383v-3.3906q-4.1982.422-10.542.6152l-1.5107-2.1259q14.9868-.0543,23.9306-2.5127l1.6865,1.6885a78.03818,78.03818,0,0,1-11.2617,2.0537v3.6718h12.9141v2.1973l-10.0684-.0352A37.44632,37.44632,0,0,0,130.1641,356.1162Zm-9.6103,4.9375v-3.0918h-14.25v3.0918Zm0,5.6406v-3.4785h-14.25v3.4785Z" fill="#a39b4b"/><path d="M151.30112,357.7324a34.30665,34.30665,0,0,1-5.7978,11.2637l2.0546,1.2998a33.51613,33.51613,0,0,0,5.8692-11.2617Zm-3.708-9.751-1.4766,1.8457a12.9992,12.9992,0,0,1,5.5362,4.2862l1.5449-2.0908A13.22533,13.22533,0,0,0,147.59312,347.9814Zm1.7207-7.8711-1.6504,1.6875a10.59724,10.59724,0,0,1,5.3242,4.0752l1.6504-1.7744A10.75929,10.75929,0,0,0,149.31382,340.1103Z" fill="#a39b4b"/><path d="M172.27862,363.0752v-6.625a20.45027,20.45027,0,0,0,4.5,3.2344l1.4405-1.9522a15.08327,15.08327,0,0,1-7.169-6.2187h6.0078v-2.1612h-5.7441v-4.1992h4.3389v-2.1621h-4.3389v-3.706h-2.2324v3.7412h-6.5176v-3.7412h-2.2324v3.7412h-4.3223v2.1611h4.3574v4.1992H154.638v2.1621h5.7988q-1.9482,3.65475-7.0449,6.0782l1.6504,1.9501a22.00165,22.00165,0,0,0,2.7764-1.8964v9.4179a2.671,2.671,0,0,0,3.0224,3.0215H172.349a2.804,2.804,0,0,0,2.2226-.9306,7.86749,7.86749,0,0,0,1.2744-3.6709l-2.2666-1.0206a6.91106,6.91106,0,0,1-.667,2.8106,1.37495,1.37495,0,0,1-1.1767.6152h-10.7188a.85307.85307,0,0,1-.9658-.9668v-3.8818Zm-9.7148-17.9219h6.5527v4.1992h-6.5527Zm.209,6.3604h5.9746a14.56583,14.56583,0,0,0,2.6006,3.9892h-11.1572A12.36571,12.36571,0,0,0,162.77282,351.5137Zm-2.7217,6.1494h9.9971v3.2851h-9.9971Z" fill="#a39b4b"/><path d="M226.02849,369.1191l-1.6337,1.8262q-10.982-5.9898-13.9512-20.1875-3.67245,14.4258-14.9697,20.1875l-1.7754-2.0908q11.19285-5.44635,14.1797-18.0615h-11.9473v-2.2666h12.2109a89.81878,89.81878,0,0,0,.2813-9.2422l2.4424.3515q.0864,5.376-.211,8.8555h13.3184v2.2666H212.886Q214.99379,362.7944,226.02849,369.1191Z" fill="#a39b4b"/><path d="M273.83742,364.5508h-14.1445v2.4424q0,3.91695-4.1641,3.9179h-2.3369l-.8603-2.1611h3.2675q1.72125,0,1.7217-1.5811v-2.6181h-15.4267v-2.1963h15.4267v-1.5117a21.96826,21.96826,0,0,0,5.2539-2.5645h-13.459v-2.0215h17.3594v1.9151a53.604,53.604,0,0,1-6.7822,3.8134v.3692h14.1445Zm-1.4756-6.5186h-2.1084v-3.6377h-24.5468v3.8477h-2.3008v-5.9033h3.0215V341.6211a11.62647,11.62647,0,0,0,5.4648-2.3721l1.1592,1.6172a10.35694,10.35694,0,0,1-4.3574,2.2315v1.4746h4.498v1.8281h-4.498v1.915h4.498v1.792h-4.498v2.2315h18.6777v-2.2315h-4.2871v-1.7568h4.2871v-2.0557h-4.252v-1.792h4.252v-1.915h-4.9727v-2.126h7.2041v11.8418h2.7588Zm-9.9629-13.6347-1.2304,1.5097a18.73208,18.73208,0,0,0-2.7227-2.0898,20.83892,20.83892,0,0,1-3.1982,2.1963l-1.4405-1.2647a13.95422,13.95422,0,0,0,2.9864-1.6513,30.62528,30.62528,0,0,0-3.461-1.125l.8965-1.6163a32.52,32.52,0,0,1,3.918,1.2647,14.99291,14.99291,0,0,0,2.0908-2.4072l1.4766,1.1777a11.18846,11.18846,0,0,1-1.8282,2.126A13.11654,13.11654,0,0,1,262.39892,344.3975Zm.211,6.3955-1.4756,1.1601a16.28891,16.28891,0,0,0-2.9522-1.8105,18.97924,18.97924,0,0,1-3.374,1.8105l-1.3349-1.0556a17.35859,17.35859,0,0,0,3.2509-1.8614,17.90962,17.90962,0,0,0-2.9873-1.3711l1.3174-1.1074a21.94459,21.94459,0,0,1,3.0928,1.3535,15.02376,15.02376,0,0,0,1.9853-1.6865l1.6163.8262a8.81881,8.81881,0,0,1-2.003,1.915A13.02385,13.02385,0,0,1,262.60992,350.793Z" fill="#a39b4b"/><path d="M322.29629,368.6436l-1.5469,2.0566a41.96517,41.96517,0,0,1-14.5127-7.0986q-4.7988,3.91845-15.0762,7.2392l-1.7207-2.0908q9.94335-2.75835,15.0401-6.6934a23.94117,23.94117,0,0,1-6.8701-11.7558,19.36955,19.36955,0,0,1-2.6016,4.6387l-1.8604-1.7042a23.22321,23.22321,0,0,0,3.5655-5.7812h-6.0449v-2.1602h14.0937v-6.0097h2.2656v5.9736h14.3369v2.1621h-6.0097q-1.58055,9.17145-7.2744,14.6006Q313.26449,365.95515,322.29629,368.6436Zm-9.2959-21.2237h-13.5977a22.14337,22.14337,0,0,0,6.8692,13.0889A22.456,22.456,0,0,0,313.00039,347.4199Z" fill="#a39b4b"/><path d="M369.842,364.5508h-14.1465v2.4424q0,3.91695-4.1631,3.9179h-2.3369l-.8603-2.1611h3.2666q1.7226,0,1.7226-1.5811v-2.6181h-15.4258v-2.1963h15.4258v-1.5117a21.95717,21.95717,0,0,0,5.2529-2.5645h-13.458v-2.0215h17.3594v1.9151a53.62309,53.62309,0,0,1-6.7832,3.8134v.3692H369.842Zm-1.4766-6.5186h-2.1093v-3.6377h-24.5459v3.8477h-2.3018v-5.9033h3.0225V341.6211a11.62946,11.62946,0,0,0,5.4658-2.3721l1.1582,1.6172a10.35513,10.35513,0,0,1-4.3584,2.2315v1.4746h4.499v1.8281h-4.499v1.915h4.499v1.792h-4.499v2.2315h18.6787v-2.2315h-4.2891v-1.7568h4.2891v-2.0557h-4.252v-1.792h4.252v-1.915h-4.9727v-2.126h7.2032v11.8418h2.7597Zm-9.9629-13.6347-1.2304,1.5097a18.73208,18.73208,0,0,0-2.7227-2.0898,20.9371,20.9371,0,0,1-3.1982,2.1963l-1.4405-1.2647a13.97849,13.97849,0,0,0,2.9864-1.6513,30.75592,30.75592,0,0,0-3.461-1.125l.8965-1.6163a32.57729,32.57729,0,0,1,3.918,1.2647,14.8854,14.8854,0,0,0,2.0898-2.4072l1.4766,1.1777a11.20658,11.20658,0,0,1-1.8262,2.126A13.17006,13.17006,0,0,1,358.40251,344.3975Zm.211,6.3955-1.4766,1.1601a16.21666,16.21666,0,0,0-2.9512-1.8105,19.01652,19.01652,0,0,1-3.374,1.8105l-1.3359-1.0556a17.26305,17.26305,0,0,0,3.251-1.8614,17.89765,17.89765,0,0,0-2.9864-1.3711l1.3174-1.1074a22.04277,22.04277,0,0,1,3.0928,1.3535,14.8443,14.8443,0,0,0,1.9844-1.6865l1.6171.8262a8.85365,8.85365,0,0,1-2.0019,1.915A13.08862,13.08862,0,0,1,358.61351,350.793Z" fill="#a39b4b"/><path d="M392.98973,351.2314q3.5508,3.9903,3.5508,7.7842a4.2826,4.2826,0,0,1-.959,2.9346,3.37407,3.37407,0,0,1-2.6787,1.0898,13.96838,13.96838,0,0,1-2.2842-.2285l-.6504-2.3379a12.66242,12.66242,0,0,0,2.7061.4746,1.7879,1.7879,0,0,0,1.248-.5273,1.83248,1.83248,0,0,0,.5625-1.4053,8.42915,8.42915,0,0,0-.9658-3.374,13.45014,13.45014,0,0,0-2.9004-3.917l3.4268-8.8037h-5.2178v27.9902h-2.3027V340.6904h9.8564v2.2305Zm24.2305,13.2315a12.12882,12.12882,0,0,1-1.2305,4.1279,2.707,2.707,0,0,1-2.5117,1.2832h-2.7402q-2.7423,0-2.7412-2.8808v-9.295h-3.7081q-.10545,5.65725-2.205,8.4776-2.1006,2.8212-7.793,4.7353l-1.4756-2.0215q5.2881-1.5615,7.2568-4.041,1.96875-2.47695,1.9854-7.1152h-4.8145v-2.3027H416.062v2.2675h-5.8711v8.75a1.33779,1.33779,0,0,0,.2822.8164.81581.81581,0,0,0,.668.378h2.2314q.68565,0,1.0459-1.124a17.92716,17.92716,0,0,0,.6065-2.917Zm-2.0205-15.9365-2.2315.0351v-3.0928h-13.248v3.0928h-2.2666v-5.3242h7.7129V339.249h2.3027v3.9541h7.7305Zm-2.9512,3.3906h-11.8779v-2.3008h11.8779Z" fill="#a39b4b"/><path d="M465.847,364.5508H451.70157v2.4424q0,3.91695-4.1641,3.9179h-2.3359l-.8614-2.1611h3.2676q1.7226,0,1.7227-1.5811v-2.6181h-15.4278v-2.1963h15.4278v-1.5117a21.97887,21.97887,0,0,0,5.2529-2.5645h-13.459v-2.0215h17.35939v1.9151a53.67661,53.67661,0,0,1-6.78219,3.8134v.3692H465.847Zm-1.47754-6.5186h-2.10742v-3.6377H437.71717v3.8477h-2.3028v-5.9033h3.0235V341.6211a11.62448,11.62448,0,0,0,5.4629-2.3721l1.1601,1.6172a10.36242,10.36242,0,0,1-4.3574,2.2315v1.4746h4.4981v1.8281h-4.4981v1.915h4.4981v1.792h-4.4981v2.2315h18.67677v-2.2315h-4.28711v-1.7568h4.28711v-2.0557h-4.251v-1.792h4.251v-1.915h-4.97168v-2.126h7.20313v11.8418h2.75781Zm-9.96094-13.6347-1.23149,1.5097a18.74629,18.74629,0,0,0-2.7236-2.0898,20.82962,20.82962,0,0,1-3.1973,2.1963l-1.4414-1.2647a13.92409,13.92409,0,0,0,2.9883-1.6513,30.69651,30.69651,0,0,0-3.4609-1.125l.8945-1.6163a32.41169,32.41169,0,0,1,3.918,1.2647,15.00985,15.00985,0,0,0,2.0928-2.4072l1.4755,1.1777a11.18414,11.18414,0,0,1-1.8281,2.126A13.12173,13.12173,0,0,1,454.40856,344.3975Zm.21,6.3955-1.47555,1.1601a16.31944,16.31944,0,0,0-2.9512-1.8105,18.99748,18.99748,0,0,1-3.375,1.8105l-1.334-1.0556a17.34131,17.34131,0,0,0,3.25-1.8614,17.90962,17.90962,0,0,0-2.9873-1.3711l1.3174-1.1074a21.87671,21.87671,0,0,1,3.0918,1.3535,14.93935,14.93935,0,0,0,1.9863-1.6865l1.6162.8262a8.81841,8.81841,0,0,1-2.0029,1.915A13.00383,13.00383,0,0,1,454.61852,350.793Z" fill="#a39b4b"/><path d="M513.96259,369.1543H481.985v-2.2666h14.89937v-8.2412H486.1481v-2.2666h10.73629v-7.168h-7.9599a18.68453,18.68453,0,0,1-4.81447,6.9043l-2.31836-1.2119a19.419,19.419,0,0,0,6.41313-13.0371l2.371.6855a26.39272,26.39272,0,0,1-.8261,4.4278h7.0996v-7.6963h2.3711v7.6601h12.4043v2.2676h-12.4043v7.1328h10.5781v2.2666h-10.5781v8.2412h14.7422Z" fill="#a39b4b"/><path d="M562.3252,347.3838l-1.2646,1.8281a37.53668,37.53668,0,0,1-9.3828-3.4082v1.5801H539.7999v-1.7393a35.61829,35.61829,0,0,1-9.2061,3.4619l-1.1602-1.8457a38.96037,38.96037,0,0,0,16.4463-8.0468l2.1612.7207a3.02626,3.02626,0,0,1-.6153.6152A34.41183,34.41183,0,0,0,562.3252,347.3838Zm-3.7412,10.0683H533.0723v-8.2402H558.584Zm-2.0918,13.4932h-2.1621V369.54H537.3575v1.4053h-2.1602V359.2969h21.2949Zm-11.7197-15.3916v-4.3926h-9.54v4.3926Zm9.5576,7.9424v-2.2666H537.3575v2.2666Zm0,4.1465v-2.3018H537.3575v2.3018Zm-11.8945-13.8272-1.8096,1.2647a12.64735,12.64735,0,0,0-3.1972-2.4424l1.8271-1.0537A9.01646,9.01646,0,0,1,542.4356,353.8154Zm8.5215-8.3808a22.16291,22.16291,0,0,1-4.9365-3.6035,27.03828,27.03828,0,0,1-5.71,3.6035Zm5.4648,10.1191v-4.3926h-9.4873v4.3926Zm-2.125-3.3555a8.3793,8.3793,0,0,1-3.1289,2.8116l-1.9316-.9659a9.12149,9.12149,0,0,0,3.1621-2.6015Z" fill="#a39b4b"/><path d="M105.4219,628.5381V560.7832h8.1543v60.5723h28.8301v7.1826Z" fill="#a39b4b"/><path d="M157.1602,566.7041a4.73939,4.73939,0,0,1-3.6406-1.2129,4.4728,4.4728,0,0,1-1.1153-3.1543v-1.2627a4.47616,4.47616,0,0,1,1.1153-3.1543,6.0666,6.0666,0,0,1,7.2812,0,4.48122,4.48122,0,0,1,1.1162,3.1543v1.2627a4.47784,4.47784,0,0,1-1.1162,3.1543A4.74234,4.74234,0,0,1,157.1602,566.7041Zm-3.8828,11.7461h7.7656v50.0879h-7.7656Z" fill="#a39b4b"/><path d="M177.545,628.5381V578.4502h7.7656v8.0615h.3887a16.3303,16.3303,0,0,1,5.1933-6.7265q3.3486-2.49765,8.9785-2.4991,7.7667,0,12.2803,4.9981,4.5132,5.001,4.5137,14.125v32.1289h-7.7656V597.7012q0-13.52355-11.3575-13.5244a17.477,17.477,0,0,0-4.5146.5839,13.16,13.16,0,0,0-3.9307,1.753,8.64375,8.64375,0,0,0-2.7666,2.9658,8.44168,8.44168,0,0,0-1.0195,4.2324v34.8262Z" fill="#a39b4b"/><path d="M272.4805,626.8887q0,10.3857-5.8242,16.3076-5.8242,5.921-16.4053,5.9219a26.54188,26.54188,0,0,1-10.5322-1.9004,21.50935,21.50935,0,0,1-7.3281-5.0225l4.5615-5.3623a17.63944,17.63944,0,0,0,5.8242,3.9961,19.54159,19.54159,0,0,0,7.669,1.3965q6.79395,0,10.5312-3.752,3.7368-3.75585,3.7383-11.0683v-6.9278h-.3887a16.48325,16.48325,0,0,1-5.8242,6.919,16.00931,16.00931,0,0,1-8.834,2.3076,19.04566,19.04566,0,0,1-8.4453-1.8447,17.89442,17.89442,0,0,1-6.4062-5.2412,25.224,25.224,0,0,1-4.0762-8.252,41.28907,41.28907,0,0,1,0-21.7441,25.27064,25.27064,0,0,1,4.0762-8.25,17.916,17.916,0,0,1,6.4062-5.2422,19.04525,19.04525,0,0,1,8.4453-1.8438,17.049,17.049,0,0,1,8.9795,2.2578,14.08886,14.08886,0,0,1,5.6787,6.9678h.3887v-8.0615h7.7656Zm-20.4824-4.0772a17.52585,17.52585,0,0,0,4.9512-.6826,11.9969,11.9969,0,0,0,4.0273-2.001,9.99,9.99,0,0,0,2.7188-3.2177,9.26492,9.26492,0,0,0,1.0195-4.4395V593.8359a8.03222,8.03222,0,0,0-.9707-3.8545,9.11928,9.11928,0,0,0-2.7188-3.0722,14.068,14.068,0,0,0-4.0761-2,16.41644,16.41644,0,0,0-4.9512-.7324q-6.6021,0-10.4834,4.1953a15.31374,15.31374,0,0,0-3.8828,10.83v8.585a15.30981,15.30981,0,0,0,3.8828,10.8291Q245.395,622.81155,251.9981,622.8115Z" fill="#a39b4b"/><path d="M319.8497,620.4775h-.3887a23.67577,23.67577,0,0,1-1.8926,3.4121,12.73448,12.73448,0,0,1-2.7656,2.9795,12.97365,12.97365,0,0,1-3.9805,2.0664,17.38875,17.38875,0,0,1-5.4355.7686q-7.76805,0-12.3282-5-4.56435-4.998-4.5625-14.123V578.4502h7.7657v30.8379q0,13.5234,11.4541,13.5234a17.33506,17.33506,0,0,0,4.5136-.584,12.49351,12.49351,0,0,0,3.8829-1.75,8.85069,8.85069,0,0,0,2.7177-2.9668,8.65114,8.65114,0,0,0,1.0196-4.33V578.4502h7.7656v50.0879h-7.7656Z" fill="#a39b4b"/><path d="M348,566.7041a4.7382,4.7382,0,0,1-3.6406-1.2129,4.47379,4.47379,0,0,1-1.1162-3.1543v-1.2627a4.47715,4.47715,0,0,1,1.1162-3.1543,6.06525,6.06525,0,0,1,7.2803,0,4.48122,4.48122,0,0,1,1.1162,3.1543v1.2627a4.47784,4.47784,0,0,1-1.1162,3.1543A4.74145,4.74145,0,0,1,348,566.7041Zm-3.8828,11.7461h7.7657v50.0879h-7.7657Z" fill="#a39b4b"/><path d="M383.4307,629.7041a23.43008,23.43008,0,0,1-11.6973-2.6699,26.59242,26.59242,0,0,1-8.1054-7.1348l5.5332-4.4648a21.74331,21.74331,0,0,0,6.5039,5.6777,16.92728,16.92728,0,0,0,8.3486,1.9912q4.9497,0,7.7168-2.1357a7.75907,7.75907,0,0,0,.8731-11.0176q-1.8927-2.0874-6.8438-2.8633l-3.9795-.583a33.18357,33.18357,0,0,1-6.4072-1.5049,17.79857,17.79857,0,0,1-5.0957-2.7178,11.67635,11.67635,0,0,1-3.3975-4.2236,13.75606,13.75606,0,0,1-1.2138-6.0176,14.47037,14.47037,0,0,1,1.3593-6.455,12.99879,12.99879,0,0,1,3.7373-4.6114,16.3307,16.3307,0,0,1,5.6788-2.7656,26.21434,26.21434,0,0,1,7.0859-.9219,22.12932,22.12932,0,0,1,10.2412,2.1348A22.95847,22.95847,0,0,1,401,585.3428l-5.1445,4.6592a15.45493,15.45493,0,0,0-4.8535-4.2237,15.63905,15.63905,0,0,0-8.0566-1.8916q-4.8546,0-7.3291,2.0869a7.04153,7.04153,0,0,0-2.4756,5.6787q0,3.69,2.4756,5.3389a18.481,18.481,0,0,0,7.1347,2.4268l3.8828.581q8.34825,1.2627,11.8428,4.8057a12.63273,12.63273,0,0,1,3.4941,9.2705q0,7.28025-4.9501,11.4541Q392.07075,629.7056,383.4307,629.7041Z" fill="#a39b4b"/><path d="M426.0459,628.5381q-4.07655,0-6.164-2.2744a8.46636,8.46636,0,0,1-2.0869-5.9571V585.3428h-8.251v-6.8926h4.6592q2.5224,0,3.4463-1.0195a5.2903,5.2903,0,0,0,.9218-3.542v-9.3194h6.9893v13.8809h10.9687v6.8926H425.5606v36.3047H435.753v6.8906Z" fill="#a39b4b"/><path d="M452.9346,566.7041a4.73411,4.73411,0,0,1-3.6396-1.2129,4.46989,4.46989,0,0,1-1.1172-3.1543v-1.2627a4.47325,4.47325,0,0,1,1.1172-3.1543,6.06375,6.06375,0,0,1,7.2793,0,4.47776,4.47776,0,0,1,1.1172,3.1543v1.2627a4.47439,4.47439,0,0,1-1.1172,3.1543A4.73879,4.73879,0,0,1,452.9346,566.7041Zm-3.8828,11.7461h7.7656v50.0879h-7.7656Z" fill="#a39b4b"/><path d="M491.95708,629.7041a23.079,23.079,0,0,1-9.416-1.8447,19.20107,19.20107,0,0,1-7.03706-5.2412,23.32894,23.32894,0,0,1-4.3692-8.252,40.05026,40.05026,0,0,1,0-21.7441,23.3695,23.3695,0,0,1,4.3692-8.25,19.22348,19.22348,0,0,1,7.03706-5.2422,23.07885,23.07885,0,0,1,9.416-1.8438q7.47363,0,11.98832,3.251a19.83916,19.83916,0,0,1,6.7461,8.4932l-6.504,3.3008a11.79125,11.79125,0,0,0-4.4648-6.0176,13.3943,13.3943,0,0,0-7.76562-2.1367,15.5267,15.5267,0,0,0-6.11524,1.1171,11.96124,11.96124,0,0,0-4.36914,3.1055,13.08652,13.08652,0,0,0-2.62011,4.7568,20.05522,20.05522,0,0,0-.874,6.0674v8.541a16.25439,16.25439,0,0,0,3.54293,10.8243q3.542,4.2231,10.43555,4.2226,9.41448,0,13.58982-8.7363l5.6309,3.7851a19.905,19.905,0,0,1-7.2324,8.6407A21.1592,21.1592,0,0,1,491.95708,629.7041Z" fill="#a39b4b"/><path d="M537.1915,629.7041a23.43008,23.43008,0,0,1-11.6973-2.6699,26.59277,26.59277,0,0,1-8.1055-7.1348l5.5332-4.4648a21.75537,21.75537,0,0,0,6.5039,5.6777,16.92134,16.92134,0,0,0,8.3477,1.9912q4.9512,0,7.7168-2.1357a7.75695,7.75695,0,0,0,.875-11.0176q-1.894-2.0874-6.8438-2.8633l-3.9804-.583a33.15649,33.15649,0,0,1-6.4063-1.5049,17.80578,17.80578,0,0,1-5.0967-2.7178,11.67713,11.67713,0,0,1-3.3974-4.2236,13.74061,13.74061,0,0,1-1.2129-6.0176,14.45676,14.45676,0,0,1,1.3584-6.455,12.99772,12.99772,0,0,1,3.7373-4.6114,16.338,16.338,0,0,1,5.6787-2.7656,26.21649,26.21649,0,0,1,7.0869-.9219,22.13011,22.13011,0,0,1,10.2402,2.1348,22.97458,22.97458,0,0,1,7.2325,5.9219l-5.1455,4.6592a15.44418,15.44418,0,0,0-4.8536-4.2237,15.64106,15.64106,0,0,0-8.0566-1.8916q-4.856,0-7.3291,2.0869a7.03807,7.03807,0,0,0-2.4746,5.6787q0,3.69,2.4746,5.3389a18.48764,18.48764,0,0,0,7.1348,2.4268l3.8828.581q8.3466,1.2627,11.8428,4.8057a12.6374,12.6374,0,0,1,3.4951,9.2705q0,7.28025-4.9512,11.4541Q545.8301,629.7056,537.1915,629.7041Z" fill="#a39b4b"/><path d="M124.4483,746.1885a29.18791,29.18791,0,0,1-14.0752-3.1543,29.86373,29.86373,0,0,1-9.9014-8.6865l6.0186-5.0499a26.34237,26.34237,0,0,0,7.959,7.2325,20.52526,20.52526,0,0,0,10.291,2.4756q7.28025,0,11.1133-3.4952a11.99479,11.99479,0,0,0,3.8349-9.3183q0-4.8516-2.9121-7.4737-2.9121-2.622-9.6103-4.1748l-5.5332-1.2617q-9.31935-2.1357-14.2207-6.4551-4.9029-4.31835-4.9024-12.1835a18.40933,18.40933,0,0,1,1.6504-7.959,15.96105,15.96105,0,0,1,4.6113-5.8243,20.81527,20.81527,0,0,1,7.086-3.5429,32.0851,32.0851,0,0,1,9.0761-1.2139,28.49883,28.49883,0,0,1,13.1534,2.8154,25.33825,25.33825,0,0,1,9.2705,8.251l-6.1153,4.4658a21.13055,21.13055,0,0,0-6.7949-6.1162,20.02774,20.02774,0,0,0-9.9023-2.2324q-6.504,0-10.2403,2.7666-3.7383,2.7657-3.7382,8.2998,0,4.85445,3.1562,7.3281,3.1524,2.4756,9.5605,3.9317l5.5333,1.2627q9.996,2.23245,14.4628,6.7949,4.4649,4.5615,4.4659,12.1338a21.47094,21.47094,0,0,1-1.6016,8.4443,17.32737,17.32737,0,0,1-4.6104,6.4063,21.43752,21.43752,0,0,1-7.3291,4.0781A30.453,30.453,0,0,1,124.4483,746.1885Z" fill="#a39b4b"/><path d="M179.9727,746.1885a22.5846,22.5846,0,0,1-9.2227-1.8438,19.85856,19.85856,0,0,1-7.1347-5.29,24.89525,24.89525,0,0,1-4.6104-8.25,36.1848,36.1848,0,0,1,0-21.6006,24.84493,24.84493,0,0,1,4.6104-8.2988,19.89368,19.89368,0,0,1,7.1347-5.291,22.59937,22.59937,0,0,1,9.2227-1.8438,22.267,22.267,0,0,1,9.1729,1.8438,20.484,20.484,0,0,1,7.1347,5.291,24.43421,24.43421,0,0,1,4.6592,8.2988,36.16387,36.16387,0,0,1,0,21.6006,24.48179,24.48179,0,0,1-4.6592,8.25,20.44668,20.44668,0,0,1-7.1347,5.29A22.25257,22.25257,0,0,1,179.9727,746.1885Zm0-6.8916a14.11144,14.11144,0,0,0,10.2891-3.8828q3.97845-3.8805,3.9804-11.8428v-7.1826q0-7.95855-3.9804-11.8428a15.57523,15.57523,0,0,0-20.5791,0q-3.98145,3.88335-3.9795,11.8428v7.1826q0,7.9599,3.9795,11.8428A14.10894,14.10894,0,0,0,179.9727,739.2969Z" fill="#a39b4b"/><path d="M234.0411,746.1885a23.0792,23.0792,0,0,1-9.4161-1.8438,19.19378,19.19378,0,0,1-7.0371-5.2412,23.33251,23.33251,0,0,1-4.3691-8.251,40.05026,40.05026,0,0,1,0-21.7441,23.34764,23.34764,0,0,1,4.3691-8.252,19.2392,19.2392,0,0,1,7.0371-5.2421,23.094,23.094,0,0,1,9.4161-1.8438q7.4736,0,11.9882,3.252a19.84916,19.84916,0,0,1,6.7461,8.4941l-6.5039,3.3008a11.801,11.801,0,0,0-4.4648-6.0196,13.41162,13.41162,0,0,0-7.7656-2.1347,15.54035,15.54035,0,0,0-6.1153,1.1152,11.96555,11.96555,0,0,0-4.3691,3.1074,13.08985,13.08985,0,0,0-2.6211,4.7559,20.08008,20.08008,0,0,0-.8731,6.0664v8.543a16.25951,16.25951,0,0,0,3.543,10.8242q3.54195,4.2216,10.4356,4.2217,9.4131,0,13.5898-8.7364l5.6299,3.7872a19.89,19.89,0,0,1-7.2315,8.6386A21.15993,21.15993,0,0,1,234.0411,746.1885Z" fill="#a39b4b"/><path d="M268.1114,683.1904a4.73637,4.73637,0,0,1-3.6397-1.2138,4.47014,4.47014,0,0,1-1.1162-3.1553v-1.2617a4.47821,4.47821,0,0,1,1.1162-3.1553,6.06885,6.06885,0,0,1,7.2803,0,4.48679,4.48679,0,0,1,1.1162,3.1553v1.2617a4.47869,4.47869,0,0,1-1.1162,3.1553A4.7414,4.7414,0,0,1,268.1114,683.1904Zm-3.8828,11.7451h7.7656v50.0889h-7.7656Z" fill="#a39b4b"/><path d="M307.3282,746.1885a22.48756,22.48756,0,0,1-9.2696-1.8438,19.94928,19.94928,0,0,1-7.0859-5.29,24.23422,24.23422,0,0,1-4.5625-8.25,37.21622,37.21622,0,0,1,0-21.6006,24.19385,24.19385,0,0,1,4.5625-8.2988,19.985,19.985,0,0,1,7.0859-5.291,22.50206,22.50206,0,0,1,9.2696-1.8438,21.30718,21.30718,0,0,1,9.0273,1.8379,20.00283,20.00283,0,0,1,6.7949,5.0801,22.62965,22.62965,0,0,1,4.3203,7.6894,30.37173,30.37173,0,0,1,1.5049,9.7696v3.6767H292.962v2.3301a17.131,17.131,0,0,0,1.0195,5.9697,14.15315,14.15315,0,0,0,2.9121,4.8057,13.3089,13.3089,0,0,0,4.6592,3.2021,15.98329,15.98329,0,0,0,6.2617,1.1651,15.22522,15.22522,0,0,0,8.2988-2.2324,14.64611,14.64611,0,0,0,5.4844-6.4073l5.5332,4.0059a19.326,19.326,0,0,1-7.5713,8.3515A22.84269,22.84269,0,0,1,307.3282,746.1885Zm0-45.9141a14.79075,14.79075,0,0,0-5.8242,1.1104,13.08305,13.08305,0,0,0-4.5137,3.1357,14.71075,14.71075,0,0,0-2.961,4.7734,16.51384,16.51384,0,0,0-1.0673,6.0313v.6738h27.665v-1.0605q0-6.65625-3.6396-10.6602A12.427,12.427,0,0,0,307.3282,700.2744Z" fill="#a39b4b"/><path d="M352.8545,745.0244q-4.07655,0-6.164-2.2754a8.46779,8.46779,0,0,1-2.0869-5.957V701.8271h-8.251v-6.8916h4.6592q2.5224,0,3.4463-1.0195a5.2903,5.2903,0,0,0,.9218-3.542v-9.3203h6.9893v13.8818h10.9687v6.8916H352.3692v36.3047h10.1924v6.8926Z" fill="#a39b4b"/><path d="M406.7286,694.9355h7.6689l-22.4228,61.7373a27.62868,27.62868,0,0,1-1.7481,3.7364,7.26982,7.26982,0,0,1-2.1348,2.3789,8.51445,8.51445,0,0,1-3.1552,1.2627,23.52853,23.52853,0,0,1-4.6104.3877h-3.9805v-6.8926h7.8633l3.7852-10.6602-18.7344-51.9502h7.7656l12.0371,34.0069,2.3291,8.1387h.4854l2.7178-8.1387Z" fill="#a39b4b"/><path d="M118.8282,839.9375l-2.4156-7.6787H105.7134l-2.3725,7.6787H97.5596l10.0952-30.1123H114.73l10.0083,30.1123Zm-7.6787-24.9346h-.2159l-3.8393,12.3809h7.9375Z" fill="#a39b4b"/><path d="M149.1553,839.9375l-2.4155-7.6787H136.0406l-2.3726,7.6787h-5.7812l10.0952-30.1123h7.0752l10.0083,30.1123Zm-7.6792-24.9346h-.2153l-3.8394,12.3809h7.9375Z" fill="#a39b4b"/><path d="M178.6207,827.2119H166.0665v12.7256h-5.6949V809.8252h5.6949v12.3379h12.5542V809.8252h5.6943v30.1123h-5.6943Z" fill="#a39b4b"/><path d="M201.959,826.3066l-4.0117,4.7452v8.8857h-5.6948V809.8252h5.6948V824.666h.2153l4.271-5.6504,7.4634-9.1904h6.5576l-10.4834,12.5537,11.3457,17.5586h-6.7724Z" fill="#a39b4b"/><path d="M227.7574,809.8252V828.333a8.63273,8.63273,0,0,0,1.3593,5.3066q1.35795,1.76955,4.5938,1.7686,3.2358,0,4.5952-1.7686a8.64239,8.64239,0,0,0,1.3584-5.3066V809.8252h5.6084v17.7754a23.08439,23.08439,0,0,1-.6255,5.7363,9.78394,9.78394,0,0,1-2.0058,4.0137,8.09581,8.09581,0,0,1-3.6026,2.3506,16.84252,16.84252,0,0,1-5.3711.7539,16.58722,16.58722,0,0,1-5.3711-.7539,8.10385,8.10385,0,0,1-3.559-2.3506,9.56409,9.56409,0,0,1-1.9844-4.0137,23.83775,23.83775,0,0,1-.604-5.7363V809.8252Z" fill="#a39b4b"/><text transform="translate(97.55913 1042.05957)" font-size="42" fill="#a39b4b" font-family="FiraSans-Bold, Fira Sans" font-weight="700">Se<tspan x="47.29102" y="0" letter-spacing="-0.00699em">s</tspan><tspan x="67.15723" y="0">sion 2020–2021</tspan></text><text transform="translate(97.55962 982.65234)" font-size="42" fill="#a39b4b" font-family="SourceHanSansHC-Medium-B5pc-H, Source Han Sans HC"><tspan letter-spacing="0.00658em">二零二零至二零二一年</tspan><tspan x="422.76465" y="0">度</tspan></text><rect x="97.5596" y="908.2109" width="464.7656" height="1.5" fill="#a39b4b"/></g></svg>