<svg xmlns="http://www.w3.org/2000/svg" xmlns:xlink="http://www.w3.org/1999/xlink" viewBox="0 0 633.1905 927.727"><defs><clipPath id="a"><rect width="633.1905" height="927.727" fill="none"/></clipPath></defs><g clip-path="url(#a)"><path d="M77.711,170.7471a6.83656,6.83656,0,0,1,6.8379,6.8369c-.002-.1397-.0059-.2783-.0059-.419a92.623,92.623,0,0,1,92.6231-92.623,6.8379,6.8379,0,0,0,0-13.6758A106.22218,106.22218,0,0,0,70.8672,177.165c0,.1407.0039.2793.0059.419A6.83649,6.83649,0,0,1,77.711,170.7471Z" fill="#ee212e"/><path d="M170.3301,276.6269a6.837,6.837,0,0,1,6.836-6.8378A92.61743,92.61743,0,0,1,84.5489,177.584a6.8379,6.8379,0,0,0-13.6758,0,106.21512,106.21512,0,0,0,106.293,105.8808A6.837,6.837,0,0,1,170.3301,276.6269Z" fill="#46bc96"/><path d="M251.2657,243.7021a6.83663,6.83663,0,0,0-9.67,0,92.31469,92.31469,0,0,1-64.4296,26.087,6.83785,6.83785,0,0,0,0,13.6757,105.94936,105.94936,0,0,0,74.0996-30.0918A6.83609,6.83609,0,0,0,251.2657,243.7021Z" fill="#00c2f3"/><path d="M233.459,120.874a79.61352,79.61352,0,1,0,23.3145,56.291A79.08871,79.08871,0,0,0,233.459,120.874Z" fill="#00c2f3"/><path d="M121.0625,202.9101V151.4209h11.168v3.8066h-6.4726v43.877h6.4726v3.8056Z" fill="#333e48"/><path d="M233.2715,151.4209v51.4892h-11.164v-3.8056h6.4687v-43.877h-6.4687v-3.8066Z" fill="#333e48"/><path d="M146.9981,187.625q0,1.54245.0469,3.6357.0468,2.0919.1308,4.2481.0792,2.15625.1934,4.1201.1083,1.9629.2715,3.2812H141.045V166.5459q0-4.6992-.1621-8.5117-.15825-3.8145-.4825-6.6133h6.5977Z" fill="#fff"/><path d="M175.8008,170.085v4.2167H169.75v24.3936h6.0508v4.2158H157.7793v-4.2158h5.9532V174.3017h-5.9532V170.085Z" fill="#fff"/><path d="M189.3164,170.085a11.26784,11.26784,0,0,1,.3868,1.3378q.19335.81885.3535,1.7207.1581.89955.291,1.7696l.2559,1.4472a21.204,21.204,0,0,1,6.2109-5.2929,13.90762,13.90762,0,0,1,6.5-1.625,11.4454,11.4454,0,0,1,4.5547.8515,8.03086,8.03086,0,0,1,3.3301,2.7032,13.23682,13.23682,0,0,1,2.0449,4.7959,31.46811,31.46811,0,0,1,.6914,7.0966v14.4805a36.01545,36.01545,0,0,1-.9512,9.0274,15.45352,15.45352,0,0,1-2.6543,5.7304,9.33027,9.33027,0,0,1-4.1035,3.0225,15.25911,15.25911,0,0,1-5.3262.8857,11.4795,11.4795,0,0,1-3.1054-.4668,11.70185,11.70185,0,0,1-3.0079-1.3037l2.0918-4.8271a6.444,6.444,0,0,0,1.9786.9179,8.81006,8.81006,0,0,0,2.5254.3692,7.29035,7.29035,0,0,0,2.7695-.4981,4.61374,4.61374,0,0,0,2.0742-1.7539,9.56352,9.56352,0,0,0,1.3047-3.4433,28.36828,28.36828,0,0,0,.4492-5.5674V187.3027a39.34453,39.34453,0,0,0-.4004-6.2588,10.80511,10.80511,0,0,0-1.209-3.7334,4.00015,4.00015,0,0,0-2.0117-1.7871,8.05754,8.05754,0,0,0-2.8144-.4502,7.55108,7.55108,0,0,0-3.3946.8223,12.59727,12.59727,0,0,0-3.0429,2.123,15.77242,15.77242,0,0,0-2.4434,2.9454,13.47054,13.47054,0,0,0-1.5781,3.2812v18.666h-5.9531v-19.792a50.21623,50.21623,0,0,0-.5489-8.0615,41.06781,41.06781,0,0,0-1.0605-4.9726Z" fill="#fff"/><path d="M129.7608,442.96H97.5528v-5.3472h32.208Zm-4.1914,56.9296h-5.5186v-5.8603h-12.874v5.8603h-5.6035v-28.914h23.9961Zm-.2578-45.8945-23.6524.085v-5.3457h23.6524Zm.0859,11.2061H101.6592v-5.3467h23.7383Zm-1.0693-33.106-21.7286.0864v-5.3471h21.7286Zm-4.2774,56.6729V476.2363H107.0909v12.5318Zm55.2617-23.482-46.2373.086v-5.2608h11.4629l2.4815-13.2168H132.3272v-5.2607H143.876l1.8379-9.7954H129.333v-5.3462h42.4727v5.2612H151.4883l-1.7529,9.7954h17.6221l-1.8399,18.4766h9.7949Zm-7.4423,34.7744h-5.5176v-5.7744H140.71v5.7744h-5.6035V471.061h32.7637Zm-5.5176-11.0356V476.3218H140.6241v12.7031Zm-.8555-42.2153H148.794l-2.4805,13.3017h13.8574Z" fill="#333e48"/><path d="M271.7549,442.96H193.9952v-5.3472h77.7597ZM260.292,453.9092H204.6885v-5.1748H260.292Zm0,11.1206H204.6885v-5.1753H260.292Zm-2.0097,35.0307h-5.5176v-6.0312H212.6436v6.0312H207.126V470.9756h51.1563Zm-.086-68.5205-50.6426.128v-5.1758h50.6426Zm-5.4316,57.2281V476.2363H212.6436v12.5318Z" fill="#333e48"/><path d="M368.1993,484.5771H333.7666v5.9454q0,9.53745-10.1377,9.538h-5.6884l-2.0957-5.2607h7.955q4.1925,0,4.1934-3.8496v-6.3731H290.4385v-5.3466h37.5547v-3.6788q8.937-3.3369,12.7881-6.2441H308.0166v-4.9194h42.2618v4.6626a131.01726,131.01726,0,0,1-16.5118,9.2812v.8985h34.4327Zm-3.5928-15.8691h-5.1348v-8.8535h-59.751v9.3672h-5.6045V454.8506h7.3575V428.7588q6.0717-.59775,13.3027-5.7739l2.8232,3.935a25.17417,25.17417,0,0,1-10.6084,5.4321v3.5933h10.9493v4.4482H306.9912v4.6622h10.9493v4.3623H306.9912v5.4326H352.458V449.418H342.0215v-4.2774H352.458v-5.0039H342.1065v-4.3623H352.458v-4.6631H340.3536V425.936h17.5361v28.8286h6.7168Zm-24.2529-33.1904-2.9932,3.6777a45.68636,45.68636,0,0,0-6.6309-5.0898,51.06991,51.06991,0,0,1-7.7851,5.3466l-3.5069-3.08a33.92025,33.92025,0,0,0,7.2725-4.0201,74.60612,74.60612,0,0,0-8.4277-2.7368l2.1826-3.936a79.00328,79.00328,0,0,1,9.5381,3.0796,36.45416,36.45416,0,0,0,5.0898-5.8594l3.5928,2.8662a27.11324,27.11324,0,0,1-4.4483,5.1748A31.94913,31.94913,0,0,1,340.3536,435.5176Zm.5126,15.5683-3.5917,2.8233a39.62167,39.62167,0,0,0-7.1856-4.4053,46.21961,46.21961,0,0,1-8.2129,4.4053l-3.25-2.5664a42.41287,42.41287,0,0,0,7.9131-4.5332,43.41858,43.41858,0,0,0-7.2725-3.3374l3.208-2.6939a53.49284,53.49284,0,0,1,7.5284,3.293,36.42171,36.42171,0,0,0,4.832-4.106l3.9355,2.0103a21.44078,21.44078,0,0,1-4.875,4.6626A31.81062,31.81062,0,0,1,340.8662,451.0859Z" fill="#333e48"/><path d="M464.5557,484.5771H430.1241v5.9454q0,9.53745-10.1368,9.538h-5.6894l-2.0957-5.2607h7.956q4.191,0,4.1914-3.8496v-6.3731H386.7959v-5.3466h37.5537v-3.6788q8.94-3.3369,12.7901-6.2441H404.375v-4.9194h42.2598v4.6626a130.92506,130.92506,0,0,1-16.5107,9.2812v.8985h34.4316Zm-3.5918-15.8691h-5.1348v-8.8535H396.0772v9.3672h-5.6026V454.8506h7.3565V428.7588q6.0732-.59775,13.3027-5.7739l2.8223,3.935a25.15354,25.15354,0,0,1-10.6074,5.4321v3.5933h10.9492v4.4482H403.3487v4.6622h10.9492v4.3623H403.3487v5.4326h45.4668V449.418H438.3799v-4.2774h10.4356v-5.0039H438.4639v-4.3623h10.3516v-4.6631H436.71V425.936h17.5371v28.8286h6.7168Zm-22.7305-18.5815-3.8964,3.5629a41.28237,41.28237,0,0,0-6.7852-8.0961q-5.7393,6.39465-9.4326,8.1367l-3.8565-3.2383q4.34775-2.06835,9.4336-7.7324a49.62347,49.62347,0,0,0-8.2441-4.4546l3.3642-3.479a66.57441,66.57441,0,0,1,7.711,4.2104,24.47383,24.47383,0,0,0,2.624-6.0332H416.2725v-5.0596h6.9043v-5.2099h4.4316v5.2099h8.1953v5.0596h-1.623a32.19254,32.19254,0,0,1-3.6748,8.7051A39.75471,39.75471,0,0,1,438.2334,450.1265Z" fill="#333e48"/><path d="M562.3243,442.7891l-3.0791,4.4477q-14.587-3.5925-22.8399-8.2974v3.8497h-28.915v-4.2354q-12.4893,6.4599-22.4131,8.4263l-2.8223-4.4908q24.0366-5.8593,40.0352-19.5898l5.2597,1.7534a7.26937,7.26937,0,0,1-1.497,1.4966Q540.253,437.9553,562.3243,442.7891Zm-9.1114,24.5078H491.1084V447.2368h62.1045Zm-5.0888,32.8486h-5.2608v-3.4219H501.5459v3.4219h-5.2617V471.7881h51.8399Zm-28.5293-37.4678V451.9844H496.3692v10.6933Zm23.2685,19.333v-5.5175H501.5459v5.5175Zm0,10.0943v-5.6031H501.5459v5.6031Zm-28.957-33.6621-4.4053,3.0796a30.78657,30.78657,0,0,0-7.7851-5.9454l4.4482-2.5659A22.01123,22.01123,0,0,1,513.9063,458.4429Zm20.7451-20.4019a53.92452,53.92452,0,0,1-12.0195-8.7685,65.65183,65.65183,0,0,1-13.9004,8.7685Zm13.3027,24.6367V451.9844H524.8565v10.6933Zm-5.1767-8.1699a20.37327,20.37327,0,0,1-7.6133,6.8438L530.459,459q5.6046-3.1656,7.6983-6.3316Z" fill="#333e48"/><path d="M130.1631,373.0391l-1.6338,1.8808a38.19763,38.19763,0,0,1-13.9853-9.1016l.0351,6.8697h8.2051v15.1098h-2.2314v-2.02H106.3379v2.02h-2.3017V372.688h8.2402v-6.8697q-3.61815,5.5335-13.0723,8.6622l-1.6513-1.8628q8.38035-2.21415,11.9834-6.7994H99.5381v-2.1967h12.7383v-3.3911q-4.1982.42255-10.542.6152l-1.5107-2.126q14.9868-.0534,23.9306-2.5127l1.6866,1.6875a77.88154,77.88154,0,0,1-11.2618,2.0552v3.6719h12.9141v2.1967l-10.0684-.0351A37.45056,37.45056,0,0,0,130.1631,373.0391Zm-9.6103,4.9375v-3.0918h-14.25v3.0918Zm0,5.6406v-3.479h-14.25v3.479Z" fill="#333e48"/><path d="M151.30013,374.6553a34.30709,34.30709,0,0,1-5.7978,11.2636l2.0547,1.3003a33.51964,33.51964,0,0,0,5.8691-11.2627Zm-3.708-9.751-1.4766,1.8457a12.99439,12.99439,0,0,1,5.5362,4.2861l1.5449-2.0903A13.22587,13.22587,0,0,0,147.59213,364.9043Zm1.7207-7.8711-1.6504,1.687a10.60486,10.60486,0,0,1,5.3242,4.0757l1.6504-1.7749A10.76367,10.76367,0,0,0,149.31283,357.0332Z" fill="#333e48"/><path d="M172.27773,379.998v-6.6255a20.40962,20.40962,0,0,0,4.5,3.2344l1.4404-1.9516a15.0871,15.0871,0,0,1-7.169-6.2188h6.0079v-2.1611h-5.7442v-4.1997h4.3389v-2.1616h-4.3389V356.208h-2.2324v3.7417h-6.5176V356.208h-2.2324v3.7417h-4.3223v2.1606h4.3574v4.1993H154.637v2.1621h5.7989q-1.94835,3.654-7.045,6.0781l1.6504,1.9507a22.05758,22.05758,0,0,0,2.7764-1.897v9.418a2.67111,2.67111,0,0,0,3.0225,3.0215H172.348a2.80408,2.80408,0,0,0,2.2226-.9307,7.86722,7.86722,0,0,0,1.2744-3.6714l-2.2666-1.02a6.90791,6.90791,0,0,1-.667,2.8105,1.376,1.376,0,0,1-1.1767.6153h-10.7188a.85326.85326,0,0,1-.9658-.9668V379.998Zm-9.7149-17.9223h6.5527v4.1997h-6.5527Zm.209,6.3608h5.9746a14.5737,14.5737,0,0,0,2.6006,3.9893h-11.1572A12.366,12.366,0,0,0,162.77183,368.4365Zm-2.7217,6.1494h9.9971v3.2857h-9.9971Z" fill="#333e48"/><path d="M226.02757,386.042l-1.6338,1.8262q-10.98195-5.99055-13.9512-20.1875-3.6723,14.42565-14.9697,20.1875l-1.7754-2.0904q11.19285-5.447,14.1797-18.062h-11.9473v-2.2666h12.2109a89.81769,89.81769,0,0,0,.2813-9.2422l2.4424.3516q.0864,5.376-.211,8.8555h13.3184v2.2666H212.885Q214.99292,379.71655,226.02757,386.042Z" fill="#333e48"/><path d="M273.83645,381.4736H259.692v2.4424q0,3.917-4.1641,3.918H253.191l-.8603-2.1612h3.2676q1.7211,0,1.7216-1.5815v-2.6177h-15.4267v-2.1968h15.4267v-1.5112a21.96877,21.96877,0,0,0,5.2539-2.5644h-13.4589v-2.0215h17.3593v1.915a53.54437,53.54437,0,0,1-6.7822,3.813v.3691h14.1445Zm-1.4756-6.519h-2.1084v-3.6372h-24.5468v3.8476h-2.3008v-5.9028h3.0215V358.5439a11.63554,11.63554,0,0,0,5.4648-2.372l1.1592,1.6167a10.33977,10.33977,0,0,1-4.3574,2.2314v1.4751h4.498v1.8281h-4.498v1.9151h4.498v1.792h-4.498v2.2319h18.6777v-2.2319h-4.2871v-1.7569h4.2871v-2.0556h-4.2519v-1.7925h4.2519v-1.9146h-4.9726v-2.1259h7.2041v11.8418h2.7587Zm-9.9628-13.6343-1.2305,1.5103a18.68832,18.68832,0,0,0-2.7227-2.0904,20.9457,20.9457,0,0,1-3.1982,2.1963l-1.4404-1.2646a13.918,13.918,0,0,0,2.9863-1.6519,30.8382,30.8382,0,0,0-3.4609-1.125l.8964-1.6162a32.52311,32.52311,0,0,1,3.918,1.2651,14.98362,14.98362,0,0,0,2.0908-2.4072l1.4766,1.1777a11.18414,11.18414,0,0,1-1.8281,2.126A13.12381,13.12381,0,0,1,262.39805,361.3203Zm.2109,6.3955-1.4756,1.1602a16.29222,16.29222,0,0,0-2.9521-1.8106,18.98356,18.98356,0,0,1-3.3741,1.8106l-1.3349-1.0552a17.39029,17.39029,0,0,0,3.251-1.8623,17.91882,17.91882,0,0,0-2.9874-1.3701l1.3174-1.1075a21.93,21.93,0,0,1,3.0928,1.3531,15.01527,15.01527,0,0,0,1.9854-1.6865l1.6162.8261a8.80384,8.80384,0,0,1-2.003,1.9146A13.04457,13.04457,0,0,1,262.609,367.7158Z" fill="#333e48"/><path d="M322.29528,385.5669l-1.5469,2.0561a41.96341,41.96341,0,0,1-14.5127-7.0986q-4.7988,3.91845-15.0761,7.2393l-1.7207-2.0909q9.94335-2.7582,15.04-6.6943a23.93671,23.93671,0,0,1-6.8701-11.7549,19.35656,19.35656,0,0,1-2.6016,4.6387l-1.8603-1.7041a23.21731,23.21731,0,0,0,3.5654-5.7813h-6.0449v-2.1601h14.0937V356.207h2.2656v5.9737h14.337v2.1621h-6.0098q-1.58055,9.1713-7.2744,14.6001Q313.26348,382.8789,322.29528,385.5669Zm-9.2959-21.2241h-13.5977a22.1462,22.1462,0,0,0,6.8692,13.0893A22.45861,22.45861,0,0,0,312.99938,364.3428Z" fill="#333e48"/><path d="M369.84107,381.4736h-14.1465v2.4424q0,3.917-4.1631,3.918h-2.3369l-.8603-2.1612h3.2666q1.7226,0,1.7226-1.5815v-2.6177h-15.4258v-2.1968h15.4258v-1.5112a21.96077,21.96077,0,0,0,5.253-2.5644h-13.458v-2.0215h17.3593v1.915a53.55639,53.55639,0,0,1-6.7832,3.813v.3691h14.1465Zm-1.4766-6.519h-2.1093v-3.6372h-24.5459v3.8476h-2.3018v-5.9028H342.43V358.5439a11.639,11.639,0,0,0,5.4658-2.372l1.1582,1.6167a10.338,10.338,0,0,1-4.3584,2.2314v1.4751h4.499v1.8281h-4.499v1.9151h4.499v1.792h-4.499v2.2319h18.6787v-2.2319h-4.2891v-1.7569h4.2891v-2.0556h-4.2519v-1.7925h4.2519v-1.9146h-4.9726v-2.1259h7.2031v11.8418h2.7597Zm-9.9628-13.6343-1.2305,1.5103a18.68832,18.68832,0,0,0-2.7227-2.0904,21.04489,21.04489,0,0,1-3.1982,2.1963l-1.4404-1.2646a13.94214,13.94214,0,0,0,2.9863-1.6519,30.96452,30.96452,0,0,0-3.461-1.125l.8965-1.6162a32.58043,32.58043,0,0,1,3.918,1.2651,14.88117,14.88117,0,0,0,2.0898-2.4072l1.4766,1.1777a11.203,11.203,0,0,1-1.8262,2.126A13.17482,13.17482,0,0,1,358.40167,361.3203Zm.2109,6.3955-1.4766,1.1602a16.21653,16.21653,0,0,0-2.9511-1.8106,19.02085,19.02085,0,0,1-3.3741,1.8106l-1.3359-1.0552a17.28951,17.28951,0,0,0,3.251-1.8623,17.9012,17.9012,0,0,0-2.9864-1.3701l1.3174-1.1075a22.03324,22.03324,0,0,1,3.0928,1.3531,14.8443,14.8443,0,0,0,1.9844-1.6865l1.6172.8261a8.841,8.841,0,0,1-2.002,1.9146A13.10956,13.10956,0,0,1,358.61257,367.7158Z" fill="#333e48"/><path d="M392.9888,368.1548q3.5508,3.9888,3.5508,7.7837a4.27924,4.27924,0,0,1-.959,2.934,3.37238,3.37238,0,0,1-2.6787,1.0899,13.97233,13.97233,0,0,1-2.2842-.228l-.6504-2.3374a12.69608,12.69608,0,0,0,2.7061.4746,1.7904,1.7904,0,0,0,1.2481-.5274,1.83411,1.83411,0,0,0,.5625-1.4057,8.42764,8.42764,0,0,0-.9659-3.3736,13.43847,13.43847,0,0,0-2.9004-3.9174l3.4268-8.8038h-5.2178V387.834H386.524V357.6128h9.8564v2.2309Zm24.2305,13.2309a12.13447,12.13447,0,0,1-1.2305,4.1285,2.70812,2.70812,0,0,1-2.5117,1.2832h-2.7402q-2.74215,0-2.7412-2.8814v-9.2949h-3.708q-.1056,5.65725-2.2051,8.4775-2.1006,2.81985-7.793,4.7354l-1.4756-2.021q5.2881-1.563,7.2569-4.0415,1.96875-2.4771,1.9853-7.1153h-4.8144V372.354h18.8193v2.2671H410.19v8.75a1.34153,1.34153,0,0,0,.2822.8169.81661.81661,0,0,0,.668.3774h2.2314q.68565,0,1.0459-1.1245a17.8951,17.8951,0,0,0,.6065-2.9165Zm-2.0205-15.9365-2.2315.0352v-3.0928h-13.248v3.0928h-2.2666v-5.3243h7.7129v-3.9882h2.3027v3.9541h7.7305Zm-2.9512,3.3906H400.3697v-2.3012h11.8779Z" fill="#333e48"/><path d="M465.84613,381.4736h-14.1455v2.4424q0,3.917-4.1641,3.918h-2.3359l-.8614-2.1612h3.2676q1.72275,0,1.7227-1.5815v-2.6177h-15.4278v-2.1968h15.4278v-1.5112a21.97938,21.97938,0,0,0,5.2529-2.5644h-13.459v-2.0215h17.3594v1.915a53.61489,53.61489,0,0,1-6.7822,3.813v.3691h14.1455Zm-1.4776-6.519h-2.1074v-3.6372h-24.5449v3.8476h-2.3027v-5.9028h3.0234V358.5439a11.63438,11.63438,0,0,0,5.4629-2.372l1.1601,1.6167a10.34524,10.34524,0,0,1-4.3574,2.2314v1.4751h4.4981v1.8281h-4.4981v1.9151h4.4981v1.792h-4.4981v2.2319h18.6768v-2.2319h-4.2871v-1.7569h4.2871v-2.0556h-4.251v-1.7925h4.251v-1.9146h-4.9717v-2.1259h7.2031v11.8418h2.7578Zm-9.9609-13.6343-1.2314,1.5103a18.70405,18.70405,0,0,0-2.7237-2.0904,20.93529,20.93529,0,0,1-3.1972,2.1963l-1.4414-1.2646a13.88565,13.88565,0,0,0,2.9882-1.6519,30.9043,30.9043,0,0,0-3.4609-1.125l.8945-1.6162a32.40908,32.40908,0,0,1,3.918,1.2651,15.00554,15.00554,0,0,0,2.0928-2.4072l1.4756,1.1777a11.18486,11.18486,0,0,1-1.8282,2.126A13.12626,13.12626,0,0,1,454.40763,361.3203Zm.21,6.3955-1.4756,1.1602a16.31659,16.31659,0,0,0-2.9512-1.8106,18.99625,18.99625,0,0,1-3.375,1.8106l-1.334-1.0552a17.368,17.368,0,0,0,3.25-1.8623,17.91317,17.91317,0,0,0-2.9873-1.3701l1.3174-1.1075a21.86734,21.86734,0,0,1,3.0918,1.3531,14.93935,14.93935,0,0,0,1.9863-1.6865l1.6162.8261a8.8014,8.8014,0,0,1-2.0029,1.9146A13.02359,13.02359,0,0,1,454.61763,367.7158Z" fill="#333e48"/><path d="M513.96167,386.0771h-31.9776v-2.2666h14.8995v-8.2412h-10.7364v-2.2666h10.7364v-7.1679h-7.96a18.68588,18.68588,0,0,1-4.8145,6.9043l-2.3183-1.212a19.41692,19.41692,0,0,0,6.4131-13.0371l2.3711.6856a26.41269,26.41269,0,0,1-.8262,4.4277h7.0996V356.207h2.3711v7.6607h12.4043v2.2671h-12.4043v7.1333h10.5781v2.2661h-10.5781v8.2407h14.7422Z" fill="#333e48"/><path d="M562.3243,364.3066l-1.2647,1.8282a37.51912,37.51912,0,0,1-9.3828-3.4087v1.5805H539.7989v-1.7392a35.58567,35.58567,0,0,1-9.2061,3.4614l-1.1601-1.8452a38.9595,38.9595,0,0,0,16.4462-8.0469l2.1612.7207a3.00663,3.00663,0,0,1-.6153.6148A34.4052,34.4052,0,0,0,562.3243,364.3066ZM558.583,374.375H533.0713v-8.2402H558.583Zm-2.0918,13.4932h-2.1621v-1.4053H537.3565v1.4053h-2.1602V376.2197h21.2949ZM544.7715,372.477v-4.3925h-9.54v4.3925Zm9.5576,7.9419v-2.2666H537.3565v2.2666Zm0,4.1465v-2.3012H537.3565v2.3012Zm-11.8945-13.8276-1.8096,1.2651a12.64969,12.64969,0,0,0-3.1972-2.4424l1.8271-1.0537A9.02185,9.02185,0,0,1,542.4346,370.7378Zm8.5215-8.3809a22.12484,22.12484,0,0,1-4.9365-3.6025,27.03476,27.03476,0,0,1-5.71,3.6025Zm5.4648,10.1201v-4.3925h-9.4873v4.3925Zm-2.125-3.3554a8.38072,8.38072,0,0,1-3.1289,2.811l-1.9316-.9658a9.12774,9.12774,0,0,0,3.1621-2.6011Z" fill="#333e48"/><path d="M105.4209,645.4614V577.706h8.1543v60.5723h28.8301v7.1831Z" fill="#333e48"/><path d="M157.1592,583.6274a4.74173,4.74173,0,0,1-3.6406-1.2133,4.47361,4.47361,0,0,1-1.1152-3.1548v-1.2622a4.47622,4.47622,0,0,1,1.1152-3.1543,6.0662,6.0662,0,0,1,7.2812,0,4.48094,4.48094,0,0,1,1.1163,3.1543v1.2622a4.47832,4.47832,0,0,1-1.1163,3.1548A4.74454,4.74454,0,0,1,157.1592,583.6274Zm-3.8828,11.7456h7.7656v50.0884h-7.7656Z" fill="#333e48"/><path d="M177.544,645.4614V595.373h7.7656v8.0616h.3887a16.33062,16.33062,0,0,1,5.1933-6.7266q3.34875-2.49825,8.9786-2.4995,7.76655,0,12.2802,4.9985,4.5132,5.001,4.5137,14.125v32.1294h-7.7656V614.624q0-13.5234-11.3574-13.5239a17.45569,17.45569,0,0,0-4.5147.584,13.1329,13.1329,0,0,0-3.9307,1.7519,8.64767,8.64767,0,0,0-2.7666,2.9668,8.44118,8.44118,0,0,0-1.0195,4.232v34.8266Z" fill="#333e48"/><path d="M272.4795,643.8115q0,10.3857-5.8242,16.3076-5.8242,5.921-16.4053,5.9219a26.53279,26.53279,0,0,1-10.5322-1.9009,21.50107,21.50107,0,0,1-7.3281-5.0219l4.5615-5.3628a17.6346,17.6346,0,0,0,5.8242,3.9965,19.54013,19.54013,0,0,0,7.669,1.3965q6.794,0,10.5312-3.7519,3.7368-3.7566,3.7383-11.0684v-6.9277h-.3887a16.48294,16.48294,0,0,1-5.8242,6.9189,16.00836,16.00836,0,0,1-8.834,2.3072,19.04579,19.04579,0,0,1-8.4453-1.8443,17.89581,17.89581,0,0,1-6.4062-5.2417,25.21655,25.21655,0,0,1-4.0762-8.251,41.29181,41.29181,0,0,1,0-21.7441,25.24628,25.24628,0,0,1,4.0762-8.251,17.93376,17.93376,0,0,1,6.4062-5.2422,19.04551,19.04551,0,0,1,8.4453-1.8437,17.04822,17.04822,0,0,1,8.9795,2.2583,14.088,14.088,0,0,1,5.6787,6.9678h.3887V595.373h7.7656Zm-20.4824-4.0771a17.52535,17.52535,0,0,0,4.9512-.6827,12.01269,12.01269,0,0,0,4.0273-2.0004,9.99744,9.99744,0,0,0,2.7188-3.2183,9.26071,9.26071,0,0,0,1.0195-4.4395V610.7588a8.02716,8.02716,0,0,0-.9707-3.854,9.1199,9.1199,0,0,0-2.7187-3.0728,14.06907,14.06907,0,0,0-4.0762-1.9995,16.416,16.416,0,0,0-4.9512-.7324q-6.6021,0-10.4834,4.1953a15.3119,15.3119,0,0,0-3.8828,10.8296v8.585a15.31165,15.31165,0,0,0,3.8828,10.8295Q245.39405,639.7341,251.9971,639.7344Z" fill="#333e48"/><path d="M319.8487,637.4004H319.46a23.69752,23.69752,0,0,1-1.8926,3.4126,12.75394,12.75394,0,0,1-2.7656,2.979,12.98556,12.98556,0,0,1-3.9805,2.0664,17.39241,17.39241,0,0,1-5.4355.7681q-7.76805,0-12.3281-4.9991-4.5645-4.99875-4.5625-14.124V595.373h7.7656v30.8384q0,13.5228,11.4541,13.523a17.362,17.362,0,0,0,4.5137-.584,12.47459,12.47459,0,0,0,3.8828-1.75,8.8459,8.8459,0,0,0,2.7177-2.9668,8.65217,8.65217,0,0,0,1.0196-4.3306v-34.73h7.7656v50.0884h-7.7656Z" fill="#333e48"/><path d="M347.9991,583.6274a4.74064,4.74064,0,0,1-3.6407-1.2133,4.47421,4.47421,0,0,1-1.1162-3.1548v-1.2622a4.47682,4.47682,0,0,1,1.1162-3.1543,6.06485,6.06485,0,0,1,7.2803,0,4.48088,4.48088,0,0,1,1.1162,3.1543v1.2622a4.47826,4.47826,0,0,1-1.1162,3.1548A4.7437,4.7437,0,0,1,347.9991,583.6274Zm-3.8829,11.7456h7.7657v50.0884h-7.7657Z" fill="#333e48"/><path d="M383.4297,646.6265a23.42971,23.42971,0,0,1-11.6972-2.6695,26.57935,26.57935,0,0,1-8.1055-7.1347l5.5332-4.4654a21.72987,21.72987,0,0,0,6.5039,5.6782,16.93217,16.93217,0,0,0,8.3486,1.9913q4.9497,0,7.7168-2.1363a7.75886,7.75886,0,0,0,.8731-11.0176q-1.89255-2.08665-6.8438-2.8632l-3.9795-.5826a33.22057,33.22057,0,0,1-6.4072-1.5048,17.80235,17.80235,0,0,1-5.0957-2.7178,11.67606,11.67606,0,0,1-3.3975-4.2232,13.75866,13.75866,0,0,1-1.2138-6.0175,14.47288,14.47288,0,0,1,1.3594-6.4556,12.99024,12.99024,0,0,1,3.7373-4.6108,16.3378,16.3378,0,0,1,5.6787-2.7666,26.24993,26.24993,0,0,1,7.0859-.9219,22.13017,22.13017,0,0,1,10.2412,2.1352,22.9681,22.9681,0,0,1,7.2315,5.9219l-5.1446,4.6592a15.45387,15.45387,0,0,0-4.8535-4.2231,15.6331,15.6331,0,0,0-8.0566-1.8921q-4.8546,0-7.3291,2.0864a7.0427,7.0427,0,0,0-2.4756,5.6792q0,3.68985,2.4756,5.3384a18.46622,18.46622,0,0,0,7.1347,2.4272l3.8829.5816q8.3481,1.2627,11.8427,4.8051a12.63374,12.63374,0,0,1,3.4942,9.2705q0,7.2804-4.9502,11.4541Q392.0699,646.62765,383.4297,646.6265Z" fill="#333e48"/><path d="M426.045,645.4614q-4.0767,0-6.1641-2.2749a8.46653,8.46653,0,0,1-2.0869-5.9575V602.2656h-8.251V595.373h4.6592q2.5224,0,3.4463-1.0195a5.29154,5.29154,0,0,0,.9219-3.543v-9.3188h6.9892V595.373h10.9688v6.8926H425.5596v36.3042H435.752v6.8916Z" fill="#333e48"/><path d="M452.9336,583.6274a4.73645,4.73645,0,0,1-3.6396-1.2133,4.47031,4.47031,0,0,1-1.1172-3.1548v-1.2622a4.47292,4.47292,0,0,1,1.1172-3.1543,6.06335,6.06335,0,0,1,7.2793,0,4.47742,4.47742,0,0,1,1.1172,3.1543v1.2622a4.47481,4.47481,0,0,1-1.1172,3.1548A4.74113,4.74113,0,0,1,452.9336,583.6274Zm-3.8828,11.7456h7.7656v50.0884h-7.7656Z" fill="#333e48"/><path d="M491.9561,646.6265a23.07878,23.07878,0,0,1-9.416-1.8443,19.20245,19.20245,0,0,1-7.0371-5.2417,23.324,23.324,0,0,1-4.3692-8.251,40.05026,40.05026,0,0,1,0-21.7441,23.34994,23.34994,0,0,1,4.3692-8.251,19.24247,19.24247,0,0,1,7.0371-5.2422,23.0787,23.0787,0,0,1,9.416-1.8437q7.4736,0,11.9883,3.2515a19.83887,19.83887,0,0,1,6.7461,8.4931l-6.5039,3.3013a11.795,11.795,0,0,0-4.4649-6.0186,13.40207,13.40207,0,0,0-7.7656-2.1357,15.52454,15.52454,0,0,0-6.1152,1.1167,11.95587,11.95587,0,0,0-4.3692,3.1059,13.086,13.086,0,0,0-2.6201,4.7564,20.05174,20.05174,0,0,0-.874,6.0669v8.542a16.255,16.255,0,0,0,3.5429,10.8237q3.5421,4.2231,10.4356,4.2227,9.4146,0,13.5898-8.7364l5.6309,3.7857a19.89851,19.89851,0,0,1-7.2324,8.6396A21.15435,21.15435,0,0,1,491.9561,646.6265Z" fill="#333e48"/><path d="M537.1905,646.6265a23.43011,23.43011,0,0,1-11.6973-2.6695,26.58167,26.58167,0,0,1-8.1055-7.1347l5.5332-4.4654a21.74192,21.74192,0,0,0,6.5039,5.6782,16.92569,16.92569,0,0,0,8.3477,1.9913q4.9512,0,7.7168-2.1363a7.757,7.757,0,0,0,.875-11.0176q-1.894-2.08665-6.8438-2.8632l-3.9804-.5826a33.19344,33.19344,0,0,1-6.4063-1.5048,17.80825,17.80825,0,0,1-5.0967-2.7178,11.67579,11.67579,0,0,1-3.3974-4.2232,13.7432,13.7432,0,0,1-1.2129-6.0175,14.46061,14.46061,0,0,1,1.3584-6.4556,12.99238,12.99238,0,0,1,3.7373-4.6108,16.34733,16.34733,0,0,1,5.6787-2.7666,26.25207,26.25207,0,0,1,7.0869-.9219,22.132,22.132,0,0,1,10.2403,2.1352,22.98239,22.98239,0,0,1,7.2324,5.9219l-5.1455,4.6592a15.44489,15.44489,0,0,0-4.8535-4.2231,15.63575,15.63575,0,0,0-8.0567-1.8921q-4.856,0-7.3291,2.0864a7.03894,7.03894,0,0,0-2.4746,5.6792q0,3.68985,2.4746,5.3384a18.47226,18.47226,0,0,0,7.1348,2.4272l3.8828.5816q8.3466,1.2627,11.8428,4.8051a12.63835,12.63835,0,0,1,3.4951,9.2705q0,7.2804-4.9512,11.4541Q545.8291,646.62765,537.1905,646.6265Z" fill="#333e48"/><path d="M124.4473,763.1118a29.18677,29.18677,0,0,1-14.0752-3.1548,29.85607,29.85607,0,0,1-9.9014-8.688l6.0186-5.0478a26.34979,26.34979,0,0,0,7.959,7.2324,20.53032,20.53032,0,0,0,10.291,2.4751q7.28025,0,11.1133-3.4946a11.99624,11.99624,0,0,0,3.8349-9.3189q0-4.8522-2.9121-7.4736-2.9121-2.62215-9.6103-4.1748l-5.5332-1.2622q-9.31935-2.13435-14.2207-6.4546-4.9029-4.3191-4.9024-12.1831a18.409,18.409,0,0,1,1.6504-7.9595,15.96815,15.96815,0,0,1,4.6113-5.8242,20.81618,20.81618,0,0,1,7.086-3.5435,32.08579,32.08579,0,0,1,9.0762-1.2133,28.50374,28.50374,0,0,1,13.1533,2.8154,25.34541,25.34541,0,0,1,9.2705,8.251l-6.1153,4.4653a21.13353,21.13353,0,0,0-6.7949-6.1157,20.02232,20.02232,0,0,0-9.9023-2.2324q-6.504,0-10.2403,2.7661-3.73815,2.76705-3.7382,8.3003,0,4.85445,3.1562,7.3281,3.1524,2.4756,9.5606,3.9316l5.5332,1.2627q9.996,2.2332,14.4629,6.7945,4.46475,4.56285,4.4658,12.1337a21.47821,21.47821,0,0,1-1.6016,8.4454,17.33278,17.33278,0,0,1-4.6103,6.4062,21.46183,21.46183,0,0,1-7.3291,4.0772A30.45339,30.45339,0,0,1,124.4473,763.1118Z" fill="#333e48"/><path d="M179.9717,763.1118a22.58393,22.58393,0,0,1-9.2226-1.8442,19.85932,19.85932,0,0,1-7.1348-5.2906,24.88648,24.88648,0,0,1-4.6104-8.2509,36.17859,36.17859,0,0,1,0-21.5987,24.84522,24.84522,0,0,1,4.6104-8.2993,19.89971,19.89971,0,0,1,7.1348-5.2905,22.592,22.592,0,0,1,9.2226-1.8438,22.26061,22.26061,0,0,1,9.1729,1.8438,20.49006,20.49006,0,0,1,7.1347,5.2905,24.4328,24.4328,0,0,1,4.6592,8.2993,36.15767,36.15767,0,0,1,0,21.5987,24.47162,24.47162,0,0,1-4.6592,8.2509,20.44711,20.44711,0,0,1-7.1347,5.2906A22.2527,22.2527,0,0,1,179.9717,763.1118Zm0-6.8921a14.11144,14.11144,0,0,0,10.2891-3.8828q3.97845-3.88035,3.9804-11.8428V733.311q0-7.9584-3.9804-11.8423a15.57372,15.57372,0,0,0-20.5791,0q-3.98145,3.88335-3.9795,11.8423v7.1831q0,7.9608,3.9795,11.8428A14.10894,14.10894,0,0,0,179.9717,756.2197Z" fill="#333e48"/><path d="M234.0401,763.1118a23.07843,23.07843,0,0,1-9.416-1.8442,19.193,19.193,0,0,1-7.0371-5.2412,23.33949,23.33949,0,0,1-4.3692-8.2515,40.05026,40.05026,0,0,1,0-21.7441,23.34833,23.34833,0,0,1,4.3692-8.251,19.23307,19.23307,0,0,1,7.0371-5.2422,23.08662,23.08662,0,0,1,9.416-1.8438q7.4736,0,11.9883,3.2515a19.84891,19.84891,0,0,1,6.7461,8.4937l-6.504,3.3007a11.79358,11.79358,0,0,0-4.4648-6.0185,13.40749,13.40749,0,0,0-7.7656-2.1358,15.52208,15.52208,0,0,0-6.1153,1.1163,11.96212,11.96212,0,0,0-4.3691,3.1064,13.09573,13.09573,0,0,0-2.6211,4.7563,20.08391,20.08391,0,0,0-.873,6.0669v8.5425a16.257,16.257,0,0,0,3.5429,10.8237q3.5421,4.2225,10.4356,4.2222,9.4131,0,13.5898-8.7363l5.6299,3.7856a19.89816,19.89816,0,0,1-7.2314,8.6402A21.16116,21.16116,0,0,1,234.0401,763.1118Z" fill="#333e48"/><path d="M268.1104,700.1128a4.73592,4.73592,0,0,1-3.6397-1.2134,4.47014,4.47014,0,0,1-1.1162-3.1553v-1.2612a4.47812,4.47812,0,0,1,1.1162-3.1558,6.06885,6.06885,0,0,1,7.2803,0,4.4867,4.4867,0,0,1,1.1162,3.1558v1.2612a4.47869,4.47869,0,0,1-1.1162,3.1553A4.741,4.741,0,0,1,268.1104,700.1128Zm-3.8828,11.7456h7.7656v50.0884h-7.7656Z" fill="#333e48"/><path d="M307.3272,763.1118a22.48717,22.48717,0,0,1-9.2695-1.8442,19.94919,19.94919,0,0,1-7.086-5.2906,24.22442,24.22442,0,0,1-4.5625-8.2509,37.21206,37.21206,0,0,1,0-21.5987,24.19255,24.19255,0,0,1,4.5625-8.2993,19.99025,19.99025,0,0,1,7.086-5.2905,22.49514,22.49514,0,0,1,9.2695-1.8438,21.292,21.292,0,0,1,9.0273,1.8379,19.99768,19.99768,0,0,1,6.795,5.0796,22.63036,22.63036,0,0,1,4.3203,7.69,30.37076,30.37076,0,0,1,1.5048,9.769v3.6768H292.961v2.33a17.13363,17.13363,0,0,0,1.0195,5.9698,14.13908,14.13908,0,0,0,2.9121,4.8047,13.315,13.315,0,0,0,4.6592,3.2036,15.99413,15.99413,0,0,0,6.2617,1.1645,15.23266,15.23266,0,0,0,8.2988-2.2324,14.64389,14.64389,0,0,0,5.4844-6.4067l5.5332,4.0053a19.33056,19.33056,0,0,1-7.5713,8.3516A22.83928,22.83928,0,0,1,307.3272,763.1118Zm0-45.9145a14.7925,14.7925,0,0,0-5.8242,1.1103,13.08877,13.08877,0,0,0-4.5137,3.1353,14.71239,14.71239,0,0,0-2.9609,4.7744,16.502,16.502,0,0,0-1.0674,6.0302v.6749h27.665v-1.0616q0-6.65625-3.6396-10.6591A12.42537,12.42537,0,0,0,307.3272,717.1973Z" fill="#333e48"/><path d="M352.8536,761.9468q-4.0767,0-6.1641-2.2749a8.46763,8.46763,0,0,1-2.0869-5.9576V718.7505h-8.251v-6.8921h4.6592q2.5224,0,3.4463-1.0195a5.29185,5.29185,0,0,0,.9218-3.5425V697.977h6.9893v13.8814H363.337v6.8921H352.3682v36.3047h10.1924v6.8916Z" fill="#333e48"/><path d="M406.7276,711.8584h7.6689l-22.4228,61.7373a27.61163,27.61163,0,0,1-1.7481,3.7368,7.27888,7.27888,0,0,1-2.1347,2.3784,8.50482,8.50482,0,0,1-3.1553,1.2627,23.49,23.49,0,0,1-4.6104.3877h-3.9804v-6.8921h7.8632l3.7852-10.6611-18.7344-51.9497h7.7657l12.0371,34.0068,2.3291,8.1387h.4853l2.7178-8.1387Z" fill="#333e48"/><path d="M118.8282,856.8603l-2.4161-7.6792H105.7129l-2.373,7.6792H97.5586l10.0957-30.1128h7.0743l10.0097,30.1128Zm-7.6797-24.935h-.2149l-3.8398,12.3808h7.9375Z" fill="#333e48"/><path d="M149.1543,856.8603l-2.416-7.6792H136.0391l-2.3711,7.6792h-5.7812l10.0937-30.1128h7.0762l10.0078,30.1128Zm-7.6797-24.935h-.2148L137.42,844.3061h7.9375Z" fill="#333e48"/><path d="M178.6192,844.1348H166.0664v12.7255h-5.6953V826.7475h5.6953v12.3379h12.5528V826.7475h5.6953v30.1128h-5.6953Z" fill="#333e48"/><path d="M201.959,843.228l-4.0117,4.7461v8.8862H192.252V826.7475h5.6953v14.8409h.2148l4.2715-5.6504,7.4629-9.1905h6.5567l-10.4825,12.5538,11.3457,17.559H210.543Z" fill="#333e48"/><path d="M227.7559,826.7475v18.5079a8.63478,8.63478,0,0,0,1.3594,5.3066q1.3593,1.76955,4.5937,1.7686,3.2373,0,4.5957-1.7686a8.63478,8.63478,0,0,0,1.3594-5.3066V826.7475h5.6074v17.7754a23.13118,23.13118,0,0,1-.625,5.7364,9.78778,9.78778,0,0,1-2.0058,4.0136,8.10891,8.10891,0,0,1-3.6036,2.3511,16.82969,16.82969,0,0,1-5.371.7534,16.58893,16.58893,0,0,1-5.3711-.7534,8.11486,8.11486,0,0,1-3.5586-2.3511,9.57365,9.57365,0,0,1-1.9844-4.0136,23.88281,23.88281,0,0,1-.6035-5.7364V826.7475Z" fill="#333e48"/><path d="M262.3555,857.3774a14.29273,14.29273,0,0,1-6.5801-1.3818,15.27709,15.27709,0,0,1-4.6367-3.6309l3.8399-3.7143a10.97143,10.97143,0,0,0,3.4726,2.7378,9.49016,9.49016,0,0,0,4.2481.9424,6.01383,6.01383,0,0,0,3.9707-1.1338,3.80822,3.80822,0,0,0,1.3359-3.0606,3.47784,3.47784,0,0,0-.8613-2.4414,5.804,5.804,0,0,0-3.2364-1.3696l-2.8476-.4273q-9.01755-1.42665-9.0156-8.7695a8.66582,8.66582,0,0,1,.7539-3.6699,7.79758,7.79758,0,0,1,2.1797-2.8081,10.08774,10.08774,0,0,1,3.4296-1.7935,15.28937,15.28937,0,0,1,4.5508-.626,14.63746,14.63746,0,0,1,5.9531,1.1241,11.67373,11.67373,0,0,1,4.3575,3.3286l-3.8828,3.6748a8.94543,8.94543,0,0,0-2.7168-2.2251,8.448,8.448,0,0,0-4.0137-.8555,6.1259,6.1259,0,0,0-3.6875.9199,3.50316,3.50316,0,0,0-.2383,5.1104,7.00646,7.00646,0,0,0,3.1934,1.1973l2.8047.5175q4.5702.82185,6.75,2.9161a7.732,7.732,0,0,1,2.1796,5.8515,9.75781,9.75781,0,0,1-.7558,3.9092,8.44815,8.44815,0,0,1-2.1992,3.0225,10.05942,10.05942,0,0,1-3.5371,1.9658A15.36129,15.36129,0,0,1,262.3555,857.3774Z" fill="#333e48"/><path d="M285.6075,826.7475v18.5079a8.63548,8.63548,0,0,0,1.3593,5.3066q1.35945,1.76955,4.5938,1.7686,3.2373,0,4.5957-1.7686a8.64882,8.64882,0,0,0,1.3574-5.3066V826.7475h5.6094v17.7754a23.13118,23.13118,0,0,1-.625,5.7364,9.76827,9.76827,0,0,1-2.0078,4.0136,8.09116,8.09116,0,0,1-3.6016,2.3511,16.83894,16.83894,0,0,1-5.3711.7534,16.58134,16.58134,0,0,1-5.3711-.7534,8.10456,8.10456,0,0,1-3.5586-2.3511,9.55242,9.55242,0,0,1-1.9843-4.0136A23.78626,23.78626,0,0,1,280,844.5229V826.7475Z" fill="#333e48"/></g></svg>