<svg xmlns="http://www.w3.org/2000/svg" xmlns:xlink="http://www.w3.org/1999/xlink" viewBox="0 0 655.2676 708.668"><defs><clipPath id="a"><rect width="655.2676" height="708.668" fill="none"/></clipPath></defs><g clip-path="url(#a)"><path d="M158.4317,271.5723a210.6873,210.6873,0,0,0-16.17,67.4257,20.76271,20.76271,0,0,1,27.3535.9566c7.3379-95.5918,87.2247-170.8709,184.7012-170.8709a13.67575,13.67575,0,0,0,0-27.3515A212.80457,212.80457,0,0,0,158.4317,271.5723Z" fill="#fff"/><path d="M339.1758,538.9687c-94.9551-7.6826-169.6719-86.9628-170.1016-183.7973a13.67575,13.67575,0,1,0-27.3515,0A212.4431,212.4431,0,0,0,338.0899,566.332a20.75389,20.75389,0,0,1,1.0859-27.3633Z" fill="#fff"/><path d="M502.5176,487.4116a13.67676,13.67676,0,0,0-19.3418,0,184.63359,184.63359,0,0,1-128.8594,52.1758,13.67555,13.67555,0,1,0,0,27.3511A211.90553,211.90553,0,0,0,502.5176,506.752,13.67031,13.67031,0,0,0,502.5176,487.4116Z" fill="#fff"/><path d="M354.3164,566.9385a13.67555,13.67555,0,1,1,0-27.3511,184.63359,184.63359,0,0,0,128.8594-52.1758,13.67622,13.67622,0,0,1,19.3418,19.3404,211.90553,211.90553,0,0,1-148.2012,60.1865Zm-82.7656-16.7188A212.41152,212.41152,0,0,1,141.7227,355.1714a13.67575,13.67575,0,1,1,27.3515,0c.4297,96.8345,75.1465,176.1147,170.1016,183.7973a20.75389,20.75389,0,0,0-1.0859,27.3633A210.71889,210.71889,0,0,1,271.5508,550.2197Zm82.7656-408.4875a13.67575,13.67575,0,0,1,0,27.3515c-97.4765,0-177.3633,75.2791-184.7012,170.8709a20.76271,20.76271,0,0,0-27.3535-.9566A212.43852,212.43852,0,0,1,354.3164,141.7322Z" fill="#fff"/><path d="M466.9024,241.75a159.225,159.225,0,1,0,46.6328,112.585A158.16919,158.16919,0,0,0,466.9024,241.75Z" fill="#fff"/><path d="M242.105,405.8257V302.8477h22.3345v7.6108H251.4951v87.7539h12.9444v7.6133Z" fill="#333e48"/><path d="M466.5274,302.8477v102.978H444.1992v-7.6133h12.9385V310.4585H444.1992v-7.6108Z" fill="#333e48"/><path d="M293.9766,375.2554c0,2.0561.0322,4.4843.0957,7.2715q.09375,4.18425.2597,8.496.1575,4.31325.3868,8.2403.2196,3.9258.5449,6.5625H282.0703V333.0952q0-9.3948-.3222-17.0229-.31935-7.63035-.9668-13.2246h13.1953Z" fill="#00c2f3"/><path d="M351.583,340.1753v8.4336H339.4824v48.7866H351.583v8.4321H315.541v-8.4321h11.9063V348.6089H315.541v-8.4336Z" fill="#00c2f3"/><path d="M378.6172,340.1753a22.8488,22.8488,0,0,1,.7715,2.6743c.2597,1.0933.4922,2.2402.709,3.4409q.31635,1.8018.58,3.5415l.5118,2.8921q6.18165-7.33515,12.4218-10.5854a27.82428,27.82428,0,0,1,13.003-3.2505,22.83226,22.83226,0,0,1,9.1074,1.7051A16.06957,16.06957,0,0,1,422.3848,346a26.49022,26.49022,0,0,1,4.0879,9.5913,62.963,62.963,0,0,1,1.3823,14.1939v28.9604a72.03831,72.03831,0,0,1-1.8999,18.0552,30.94442,30.94442,0,0,1-5.3091,11.4604,18.66055,18.66055,0,0,1-8.2065,6.0469,30.56654,30.56654,0,0,1-10.6524,1.7715,22.986,22.986,0,0,1-6.2109-.9341,23.55576,23.55576,0,0,1-6.0176-2.6069l4.1836-9.6558a12.83753,12.83753,0,0,0,3.959,1.8359,17.60453,17.60453,0,0,0,5.0488.7378,14.54816,14.54816,0,0,0,5.5401-.9961,9.22435,9.22435,0,0,0,4.1494-3.5058,19.2231,19.2231,0,0,0,2.6074-6.8882,56.91021,56.91021,0,0,0,.9004-11.1348V374.6108a78.44416,78.44416,0,0,0-.8047-12.5195,21.57344,21.57344,0,0,0-2.415-7.4648,8.00552,8.00552,0,0,0-4.0245-3.5757,16.11067,16.11067,0,0,0-5.6289-.8985,15.09915,15.09915,0,0,0-6.7881,1.6441,24.99476,24.99476,0,0,0-6.0869,4.2461,31.54624,31.54624,0,0,0-4.8886,5.8891,27.05162,27.05162,0,0,0-3.1563,6.564v37.332H370.2481V366.2437a100.46482,100.46482,0,0,0-1.0957-16.1226,81.60212,81.60212,0,0,0-2.1231-9.9458Z" fill="#00c2f3"/></g></svg>