<svg xmlns="http://www.w3.org/2000/svg" xmlns:xlink="http://www.w3.org/1999/xlink" viewBox="0 0 1958.7207 708.664"><defs><clipPath id="a"><rect width="1958.7207" height="708.664" fill="none"/></clipPath></defs><g clip-path="url(#a)"><path d="M155.418,341.4921a13.676,13.676,0,0,1,13.6757,13.6758c-.0019-.2773-.0117-.5566-.0117-.8359,0-102.3106,82.9356-185.25,185.25-185.25a13.6748,13.6748,0,0,0,0-27.3496A212.4455,212.4455,0,0,0,141.7324,354.332c0,.2793.0078.5586.0098.8359A13.676,13.676,0,0,1,155.418,341.4921Z" fill="#5a5c66"/><path d="M340.6562,553.2558A13.67482,13.67482,0,0,1,354.332,539.58c-102.0332,0-184.7871-82.4863-185.2383-184.4121a13.67575,13.67575,0,1,0-27.3515,0A212.43334,212.43334,0,0,0,354.332,566.9316,13.67482,13.67482,0,0,1,340.6562,553.2558Z" fill="#858591"/><path d="M502.5312,487.4062a13.67543,13.67543,0,0,0-19.3418,0A184.63658,184.63658,0,0,1,354.332,539.58a13.6758,13.6758,0,0,0,0,27.3516A211.9193,211.9193,0,0,0,502.5312,506.746,13.67646,13.67646,0,0,0,502.5312,487.4062Z" fill="#9f9ea7"/><path d="M466.9141,241.748a159.2227,159.2227,0,1,0,46.6308,112.584A158.17241,158.17241,0,0,0,466.9141,241.748Z" fill="#9f9ea7"/><path d="M242.1211,405.8212V302.8437h22.334v7.6133H251.5098v87.7519h12.9453v7.6123Z" fill="#333e48"/><path d="M466.5391,302.8437V405.8212H444.209v-7.6123h12.9394V310.457H444.209v-7.6133Z" fill="#333e48"/><path d="M293.9902,375.2519c0,2.0547.0332,4.4824.0957,7.2695q.09375,4.18365.2598,8.4971.15825,4.3125.3867,8.2402.21975,3.9258.5449,6.5625H282.084V333.0917q0-9.3954-.3223-17.0234-.31935-7.62885-.9648-13.2246h13.1933Z" fill="#fff"/><path d="M351.5957,340.1718v8.4336H339.4961v48.7862h12.0996v8.4316h-36.041v-8.4316h11.9062V348.6054H315.5547v-8.4336Z" fill="#fff"/><path d="M378.6289,340.1718a22.29936,22.29936,0,0,1,.7715,2.6739c.2617,1.0937.4922,2.2402.709,3.4414q.31935,1.80165.58,3.541l.5118,2.8926q6.18165-7.33605,12.4218-10.586a27.83056,27.83056,0,0,1,13.0039-3.25,22.83792,22.83792,0,0,1,9.1075,1.7051,16.068,16.068,0,0,1,6.6621,5.4062,26.45805,26.45805,0,0,1,4.0879,9.5918,62.93871,62.93871,0,0,1,1.3828,14.1934v28.959a72.02378,72.02378,0,0,1-1.9004,18.0547,30.93426,30.93426,0,0,1-5.3086,11.4599,18.65706,18.65706,0,0,1-8.207,6.0469,30.524,30.524,0,0,1-10.6524,1.7705,22.99165,22.99165,0,0,1-6.2109-.9326,23.45227,23.45227,0,0,1-6.0176-2.6074l4.1836-9.6543a12.89949,12.89949,0,0,0,3.959,1.8359,17.5911,17.5911,0,0,0,5.0508.7383,14.565,14.565,0,0,0,5.539-.9961,9.23724,9.23724,0,0,0,4.1485-3.5068,19.21348,19.21348,0,0,0,2.6074-6.8877,56.87134,56.87134,0,0,0,.9004-11.1348V374.6054a78.3972,78.3972,0,0,0-.8047-12.5176,21.62478,21.62478,0,0,0-2.4141-7.4668,8.019,8.019,0,0,0-4.0254-3.5742,16.10913,16.10913,0,0,0-5.6289-.8984,15.10968,15.10968,0,0,0-6.7871,1.6426,24.992,24.992,0,0,0-6.0859,4.248,31.55005,31.55005,0,0,0-4.8906,5.8887,27.06724,27.06724,0,0,0-3.1563,6.5644v37.3311H370.2617v-39.583a100.61373,100.61373,0,0,0-1.0957-16.125,81.92217,81.92217,0,0,0-2.125-9.9434Z" fill="#fff"/><path d="M626.666,336.8344V236.3632h12.0908v89.8194h42.751v10.6518Z" fill="#333e48"/><path d="M703.3857,245.1435q-3.7455,0-5.3974-1.7993a6.62911,6.62911,0,0,1-1.6563-4.6782v-1.8711a6.63718,6.63718,0,0,1,1.6563-4.6782q1.65225-1.7982,5.3974-1.7994,3.7413,0,5.3975,1.7994a6.6456,6.6456,0,0,1,1.6553,4.6782v1.8711a6.63751,6.63751,0,0,1-1.6553,4.6782Q707.128,245.146,703.3857,245.1435Zm-5.7578,17.4175h11.5156v74.2734H697.6279Z" fill="#333e48"/><path d="M733.6133,336.8344V262.561h11.5156v11.9536h.5762a24.20161,24.20161,0,0,1,7.7002-9.9746q4.96725-3.70455,13.3144-3.7066,11.5152,0,18.209,7.4126,6.69285,7.4151,6.6934,20.9439v47.6445H780.1074V291.1059q0-20.0529-16.8418-20.0527a25.88762,25.88762,0,0,0-6.6933.8657,19.46573,19.46573,0,0,0-5.8301,2.5977,12.83316,12.83316,0,0,0-4.1016,4.3994,12.5186,12.5186,0,0,0-1.5117,6.2749v51.6435Z" fill="#333e48"/><path d="M874.3877,334.3876q0,15.3999-8.6367,24.1817-8.6367,8.7795-24.3262,8.7812a39.36679,39.36679,0,0,1-15.6182-2.8183,31.88319,31.88319,0,0,1-10.8672-7.4473l6.7657-7.9521a26.1252,26.1252,0,0,0,8.6367,5.9262,28.98069,28.98069,0,0,0,11.3711,2.0708q10.0737,0,15.6172-5.5634,5.53995-5.57085,5.542-16.4117V324.8808h-.5752a24.45171,24.45171,0,0,1-8.6368,10.2598,23.74962,23.74962,0,0,1-13.0996,3.4214,28.24184,28.24184,0,0,1-12.5224-2.7349,26.52951,26.52951,0,0,1-9.5-7.7729,37.40358,37.40358,0,0,1-6.0459-12.2349,61.2927,61.2927,0,0,1,0-32.2432,37.44343,37.44343,0,0,1,6.0459-12.2353,26.56944,26.56944,0,0,1,9.5-7.773,28.23478,28.23478,0,0,1,12.5224-2.7344,25.29141,25.29141,0,0,1,13.3155,3.3487,20.91137,20.91137,0,0,1,8.4209,10.3325h.5752V262.561h11.5156Zm-30.3721-6.0459a25.98931,25.98931,0,0,0,7.3418-1.0122,17.81573,17.81573,0,0,0,5.9727-2.9663,14.84716,14.84716,0,0,0,4.0312-4.7724,13.74215,13.74215,0,0,0,1.5108-6.583V285.3754a11.9143,11.9143,0,0,0-1.4395-5.7153,13.51494,13.51494,0,0,0-4.0303-4.5561,20.86705,20.86705,0,0,0-6.0449-2.9644,24.34194,24.34194,0,0,0-7.3418-1.0864q-9.79095,0-15.5449,6.2212-5.7597,6.22035-5.7578,16.0581v12.73q0,9.83715,5.7578,16.0585Q834.22455,328.3415,844.0156,328.3417Z" fill="#333e48"/><path d="M944.6289,324.8808h-.5762a35.38,35.38,0,0,1-2.8066,5.0606,18.89629,18.89629,0,0,1-4.1016,4.4165,19.20012,19.20012,0,0,1-5.9023,3.0639,25.76237,25.76237,0,0,1-8.0606,1.1402q-11.51655,0-18.2802-7.4136-6.7677-7.41135-6.7657-20.9429V262.561h11.5157v45.728q0,20.053,16.9853,20.0527a25.74387,25.74387,0,0,0,6.6934-.8662,18.48727,18.48727,0,0,0,5.7578-2.5947,13.11171,13.11171,0,0,0,4.0293-4.3994,12.83158,12.83158,0,0,0,1.5117-6.4214V262.561h11.5156v74.2734H944.6289Z" fill="#333e48"/><path d="M986.3711,245.1435q-3.74415,0-5.3975-1.7993a6.62845,6.62845,0,0,1-1.6552-4.6782v-1.8711a6.63652,6.63652,0,0,1,1.6552-4.6782q1.6539-1.7982,5.3975-1.7994,3.74115,0,5.3984,1.7994a6.64906,6.64906,0,0,1,1.6543,4.6782v1.8711a6.641,6.641,0,0,1-1.6543,4.6782Q990.11275,245.146,986.3711,245.1435Zm-5.7578,17.4175h11.5156v74.2734H980.6133Z" fill="#333e48"/><path d="M1038.9101,338.562q-10.36365,0-17.3447-3.9585a39.42345,39.42345,0,0,1-12.0195-10.5801l8.2041-6.6211a32.24627,32.24627,0,0,0,9.6445,8.4204,25.1113,25.1113,0,0,0,12.3789,2.9512q7.3419,0,11.4434-3.1665a11.50417,11.50417,0,0,0,1.2959-16.3379q-2.80815-3.09375-10.1475-4.2461l-5.9023-.8638a49.16231,49.16231,0,0,1-9.5-2.2309,26.40035,26.40035,0,0,1-7.5567-4.0303,17.29754,17.29754,0,0,1-5.038-6.2617,20.39483,20.39483,0,0,1-1.7998-8.9239,21.43852,21.43852,0,0,1,2.0156-9.5727,19.26649,19.26649,0,0,1,5.542-6.8369,24.2313,24.2313,0,0,1,8.4199-4.1021,38.924,38.924,0,0,1,10.5088-1.3677q9.06735,0,15.1855,3.1666a34.08306,34.08306,0,0,1,10.7237,8.7802l-7.6299,6.9092a22.90384,22.90384,0,0,0-7.1963-6.2612,23.1784,23.1784,0,0,0-11.9473-2.8072q-7.1997,0-10.8681,3.0953a10.43963,10.43963,0,0,0-3.67,8.4204q0,5.47185,3.67,7.9165,3.6708,2.45,10.58,3.5986l5.7578.8638q12.378,1.872,17.5606,7.125,5.18265,5.2566,5.1826,13.7461,0,10.7958-7.3408,16.9858Q1051.72075,338.56375,1038.9101,338.562Z" fill="#333e48"/><path d="M1102.1016,336.8344q-6.04395,0-9.1397-3.3735a12.553,12.553,0,0,1-3.0947-8.8345V272.7802h-12.2354V262.561h6.9092q3.74115,0,5.1104-1.5122,1.36665-1.51035,1.3671-5.2534V241.9765h10.3643V262.561h16.2656v10.2192h-16.2656v53.835h15.1133v10.2192Z" fill="#333e48"/><path d="M1141.9736,245.1435q-3.74415,0-5.3974-1.7993a6.62851,6.62851,0,0,1-1.6553-4.6782v-1.8711a6.63658,6.63658,0,0,1,1.6553-4.6782q1.65225-1.7982,5.3974-1.7994,3.74265,0,5.3975,1.7994a6.64614,6.64614,0,0,1,1.6562,4.6782v1.8711a6.638,6.638,0,0,1-1.6562,4.6782Q1145.71585,245.146,1141.9736,245.1435Zm-5.7578,17.4175h11.5156v74.2734h-11.5156Z" fill="#333e48"/><path d="M1199.8379,338.562a34.22712,34.22712,0,0,1-13.9619-2.7349,28.47788,28.47788,0,0,1-10.4356-7.7729,34.58659,34.58659,0,0,1-6.4775-12.2349,59.37707,59.37707,0,0,1,0-32.2432,34.62128,34.62128,0,0,1,6.4775-12.2353,28.52022,28.52022,0,0,1,10.4356-7.773,34.21881,34.21881,0,0,1,13.9619-2.7344q11.083,0,17.7773,4.8218a29.43368,29.43368,0,0,1,10.0039,12.5948l-9.6445,4.8945a17.48973,17.48973,0,0,0-6.6211-8.9248,19.87245,19.87245,0,0,0-11.5156-3.1665,23.03233,23.03233,0,0,0-9.0684,1.6552,17.72162,17.72162,0,0,0-6.4765,4.6065,19.38548,19.38548,0,0,0-3.8868,7.0527,29.77252,29.77252,0,0,0-1.2959,8.9961v12.667q0,9.7917,5.2549,16.0498,5.2515,6.26145,15.4727,6.2612,13.9599,0,20.1523-12.955l8.3487,5.6142a29.49677,29.49677,0,0,1-10.7237,12.8111Q1210.4902,338.56175,1199.8379,338.562Z" fill="#333e48"/><path d="M1266.9141,338.562q-10.3638,0-17.3448-3.9585a39.42462,39.42462,0,0,1-12.0195-10.5801l8.2041-6.6211a32.24627,32.24627,0,0,0,9.6445,8.4204,25.10861,25.10861,0,0,0,12.3789,2.9512q7.3419,0,11.4434-3.1665a11.50417,11.50417,0,0,0,1.2959-16.3379q-2.80815-3.09375-10.1475-4.2461l-5.9023-.8638a49.16231,49.16231,0,0,1-9.5-2.2309,26.40035,26.40035,0,0,1-7.5567-4.0303,17.29754,17.29754,0,0,1-5.038-6.2617,20.39483,20.39483,0,0,1-1.7998-8.9239,21.43852,21.43852,0,0,1,2.0156-9.5727,19.26756,19.26756,0,0,1,5.542-6.8369,24.2313,24.2313,0,0,1,8.4199-4.1021,38.91875,38.91875,0,0,1,10.5088-1.3677q9.06735,0,15.1855,3.1666a34.08306,34.08306,0,0,1,10.7237,8.7802l-7.6299,6.9092a22.89722,22.89722,0,0,0-7.1973-6.2612,23.172,23.172,0,0,0-11.9463-2.8072q-7.1997,0-10.8681,3.0953a10.43963,10.43963,0,0,0-3.67,8.4204q0,5.47185,3.67,7.9165,3.6708,2.45,10.58,3.5986l5.7579.8638q12.37785,1.872,17.5605,7.125,5.18265,5.2566,5.1816,13.7461,0,10.7958-7.3398,16.9858Q1279.72465,338.56375,1266.9141,338.562Z" fill="#333e48"/><path d="M1378.0361,338.562q-12.2358,0-20.872-4.6783a44.27527,44.27527,0,0,1-14.6817-12.8828l8.9238-7.4853a39.10882,39.10882,0,0,0,11.8038,10.7241,30.43673,30.43673,0,0,0,15.2578,3.6704q10.7958,0,16.4814-5.1816,5.68365-5.18265,5.6856-13.8189,0-7.19535-4.3184-11.083-4.31835-3.88695-14.25-6.1899l-8.2051-1.8711q-13.81785-3.16485-21.0869-9.5718-7.27005-6.4035-7.2695-18.0654a27.30427,27.30427,0,0,1,2.4472-11.8028,23.67654,23.67654,0,0,1,6.837-8.6362,30.86,30.86,0,0,1,10.5078-5.2544,47.59407,47.59407,0,0,1,13.459-1.7993q11.36865,0,19.5039,4.1748a37.56935,37.56935,0,0,1,13.7461,12.2349l-9.0684,6.6215a31.31211,31.31211,0,0,0-10.0752-9.0688q-5.90475-3.30975-14.6826-3.3105-9.64455,0-15.1856,4.102-5.54295,4.1031-5.542,12.3071,0,7.1997,4.6788,10.8677,4.67565,3.6702,14.1777,5.8301l8.2051,1.8711q14.8242,3.31275,21.4472,10.0761,6.61815,6.7662,6.6211,17.9922a31.83027,31.83027,0,0,1-2.375,12.5235,25.709,25.709,0,0,1-6.8369,9.5,31.79922,31.79922,0,0,1-10.8682,6.0454A45.15652,45.15652,0,0,1,1378.0361,338.562Z" fill="#333e48"/><path d="M1460.3701,338.562a33.48974,33.48974,0,0,1-13.6748-2.7349,29.45436,29.45436,0,0,1-10.5801-7.8452,36.91631,36.91631,0,0,1-6.8369-12.2349,53.63614,53.63614,0,0,1,0-32.0273,36.83609,36.83609,0,0,1,6.8369-12.3067,29.49965,29.49965,0,0,1,10.5801-7.8452,33.48135,33.48135,0,0,1,13.6748-2.7344,32.99645,32.99645,0,0,1,13.6025,2.7344,30.38,30.38,0,0,1,10.5791,7.8452,36.21613,36.21613,0,0,1,6.9092,12.3067,53.61522,53.61522,0,0,1,0,32.0273,36.292,36.292,0,0,1-6.9092,12.2349,30.33179,30.33179,0,0,1-10.5791,7.8452A33.00466,33.00466,0,0,1,1460.3701,338.562Zm0-10.2203q9.35445,0,15.2578-5.7578,5.9004-5.7546,5.9014-17.5605V294.3715q0-11.8008-5.9014-17.561-5.90475-5.7546-15.2578-5.7573-9.3588,0-15.2578,5.7573-5.90475,5.7591-5.9014,17.561v10.6519q0,11.8044,5.9014,17.5605Q1451.0127,328.34375,1460.3701,328.3417Z" fill="#333e48"/><path d="M1540.5449,338.562a34.22745,34.22745,0,0,1-13.9619-2.7349,28.48934,28.48934,0,0,1-10.4365-7.7729,34.59958,34.59958,0,0,1-6.4766-12.2349,59.354,59.354,0,0,1,0-32.2432,34.6343,34.6343,0,0,1,6.4766-12.2353,28.5317,28.5317,0,0,1,10.4365-7.773,34.21914,34.21914,0,0,1,13.9619-2.7344q11.083,0,17.7774,4.8218a29.43368,29.43368,0,0,1,10.0039,12.5948l-9.6446,4.8945a17.49467,17.49467,0,0,0-6.6211-8.9248,19.872,19.872,0,0,0-11.5156-3.1665,23.02836,23.02836,0,0,0-9.0683,1.6552A17.71363,17.71363,0,0,0,1525,277.3149a19.38676,19.38676,0,0,0-3.8867,7.0527,29.76939,29.76939,0,0,0-1.2959,8.9961v12.667q0,9.7917,5.2539,16.0498,5.25285,6.26145,15.4736,6.2612,13.96,0,20.1524-12.955l8.3486,5.6142a29.49588,29.49588,0,0,1-10.7236,12.8111Q1551.1973,338.56175,1540.5449,338.562Z" fill="#333e48"/><path d="M1591.0674,245.1435q-3.74565,0-5.3975-1.7993a6.62851,6.62851,0,0,1-1.6553-4.6782v-1.8711a6.63658,6.63658,0,0,1,1.6553-4.6782q1.6524-1.7982,5.3975-1.7994,3.74115,0,5.3974,1.7994a6.64575,6.64575,0,0,1,1.6563,4.6782v1.8711a6.63765,6.63765,0,0,1-1.6563,4.6782Q1594.80955,245.146,1591.0674,245.1435Zm-5.7578,17.4175h11.5156v74.2734h-11.5156Z" fill="#333e48"/><path d="M1649.2197,338.562a33.3492,33.3492,0,0,1-13.7461-2.7349,29.60434,29.60434,0,0,1-10.5078-7.8452,35.95833,35.95833,0,0,1-6.7656-12.2349,55.19622,55.19622,0,0,1,0-32.0273,35.89283,35.89283,0,0,1,6.7656-12.3067,29.65045,29.65045,0,0,1,10.5078-7.8452,33.341,33.341,0,0,1,13.7461-2.7344,31.584,31.584,0,0,1,13.3867,2.7256,29.67742,29.67742,0,0,1,10.0762,7.5327,33.56821,33.56821,0,0,1,6.4053,11.4024,45.01924,45.01924,0,0,1,2.2314,14.4863v5.4517H1627.916v3.4551a25.40843,25.40843,0,0,0,1.5117,8.8525,21.02089,21.02089,0,0,0,4.3184,7.1245,19.73188,19.73188,0,0,0,6.9092,4.751,23.72876,23.72876,0,0,0,9.2841,1.7265,22.59318,22.59318,0,0,0,12.3077-3.3105,21.71971,21.71971,0,0,0,8.1318-9.5l8.2051,5.9395a28.66623,28.66623,0,0,1-11.2276,12.3837A33.86213,33.86213,0,0,1,1649.2197,338.562Zm0-68.0845a21.92062,21.92062,0,0,0-8.6357,1.6465,19.40564,19.40564,0,0,0-6.6934,4.6484,21.80311,21.80311,0,0,0-4.3906,7.0806,24.4801,24.4801,0,0,0-1.584,8.9419v1.001h41.0234v-1.5748q0-9.87075-5.3974-15.8061Q1658.1441,270.478,1649.2197,270.4775Z" fill="#333e48"/><path d="M1716.7285,336.8344q-6.0468,0-9.1406-3.3735a12.55257,12.55257,0,0,1-3.0947-8.8345V272.7802h-12.2354V262.561h6.9092q3.74115,0,5.1103-1.5122,1.3653-1.51035,1.3672-5.2534V241.9765h10.3633V262.561h16.2656v10.2192h-16.2656v53.835h15.1143v10.2192Z" fill="#333e48"/><path d="M1796.6152,262.561h11.3721l-33.251,91.5464a40.80434,40.80434,0,0,1-2.5908,5.5415,10.8081,10.8081,0,0,1-3.167,3.5268,12.57749,12.57749,0,0,1-4.6777,1.8711,34.75671,34.75671,0,0,1-6.8379.5762h-5.9014V355.4033h11.6592l5.6143-15.8091-27.7813-77.0332h11.5156l17.8487,50.4263,3.455,12.0688h.7188l4.0312-12.0688Z" fill="#333e48"/><path d="M646.7939,477.7529l-3.6103-11.4766H627.1934l-3.5459,11.4766h-8.6407l15.0879-45.0039h10.5742l14.958,45.0039Zm-11.4765-37.2656h-.3223l-5.7383,18.5039h11.8633Z" fill="#333e48"/><path d="M692.1191,477.7529l-3.6103-11.4766H672.5185l-3.5459,11.4766H660.332l15.0879-45.0039h10.5742l14.958,45.0039Zm-11.4765-37.2656h-.3223l-5.7383,18.5039h11.8633Z" fill="#333e48"/><path d="M736.1562,458.7334H717.3935v19.0195h-8.5107V432.749h8.5107v18.4394h18.7627V432.749h8.5108v45.0039h-8.5108Z" fill="#333e48"/><path d="M771.0371,457.3798l-5.9961,7.0918v13.2813h-8.5107V432.749h8.5107v22.1797h.3223l6.3828-8.4453,11.1543-13.7344h9.8008l-15.668,18.7617,16.957,26.2422h-10.122Z" fill="#333e48"/><path d="M809.5937,432.749v27.6601q0,5.2881,2.0313,7.9317,2.03025,2.64255,6.8662,2.6426,4.8354,0,6.8672-2.6426,2.03025-2.64555,2.0303-7.9317V432.749h8.3818v26.5644a34.5185,34.5185,0,0,1-.9346,8.5742,14.61075,14.61075,0,0,1-2.998,5.9981,12.09517,12.09517,0,0,1-5.3838,3.5137,25.1748,25.1748,0,0,1-8.0274,1.1269,24.7913,24.7913,0,0,1-8.0273-1.1269,12.11387,12.11387,0,0,1-5.3193-3.5137,14.29206,14.29206,0,0,1-2.9659-5.9981,35.65229,35.65229,0,0,1-.9023-8.5742V432.749Z" fill="#333e48"/></g></svg>