<svg xmlns="http://www.w3.org/2000/svg" xmlns:xlink="http://www.w3.org/1999/xlink" viewBox="0 0 655.2676 708.668"><defs><clipPath id="a"><rect width="655.2676" height="708.668" fill="none"/></clipPath></defs><g clip-path="url(#a)"><path d="M158.4409,271.5752A210.71756,210.71756,0,0,0,142.27,339.001a20.76317,20.76317,0,0,1,27.3545.957c7.3379-95.5937,87.2246-170.8733,184.7012-170.8733a13.67555,13.67555,0,0,0,0-27.3511A212.80846,212.80846,0,0,0,158.4409,271.5752Z" fill="#a39b4b"/><path d="M339.1851,538.9717c-94.9551-7.6836-169.6729-86.9649-170.1016-183.7969a13.67575,13.67575,0,1,0-27.3515,0A212.43049,212.43049,0,0,0,338.0991,566.333a20.7514,20.7514,0,0,1,1.086-27.3613Z" fill="#a39b4b"/><path d="M502.5269,487.4131a13.68014,13.68014,0,0,0-19.3408,0,184.63033,184.63033,0,0,1-128.8604,52.1777,13.6758,13.6758,0,1,0,0,27.3516,211.90052,211.90052,0,0,0,148.2012-60.1875A13.672,13.672,0,0,0,502.5269,487.4131Z" fill="#a39b4b"/><path d="M354.3272,141.7297A212.442,212.442,0,0,0,142.2671,338.999a20.76469,20.76469,0,0,1,27.3599.961A185.25276,185.25276,0,0,1,354.3272,169.0896a13.68,13.68,0,0,0,0-27.3599Zm-15.1402,397.24a185.24816,185.24816,0,0,1-170.1001-183.79,13.67505,13.67505,0,1,0-27.3501,0A212.4217,212.4217,0,0,0,338.0972,566.3291a20.76422,20.76422,0,0,1,1.0898-27.3594Zm163.3399-51.5605a13.68849,13.68849,0,0,0-19.3399,0,184.59806,184.59806,0,0,1-128.8598,52.1806,13.67485,13.67485,0,1,0,0,27.3497,211.96339,211.96339,0,0,0,148.1997-60.1797A13.68968,13.68968,0,0,0,502.5269,487.4092Z" fill="#a39b4b"/><path d="M466.917,241.749a159.23078,159.23078,0,1,0,46.6299,112.5908A158.20891,158.20891,0,0,0,466.917,241.749ZM264.4468,310.46H251.5069v87.7597h12.9399v7.6094H242.1167V302.8496h22.3301Zm17.6304,95.3691V333.0996q0-9.40575-.3203-17.0205-.315-7.6347-.9698-13.2295h13.1997v72.4102q0,3.08925.0904,7.2695.1047,4.185.2597,8.5.16485,4.30515.3902,8.2402.22485,3.9156.5498,6.5596Zm69.52-57.2197H339.4868v48.79h12.1104v8.4297H315.5469v-8.4297h11.9102v-48.79H315.5469v-8.4297h36.0503Zm76.2695,50.1396a72.25209,72.25209,0,0,1-1.8999,18.0508,30.99993,30.99993,0,0,1-5.31,11.46,18.63392,18.63392,0,0,1-8.21,6.0498,30.59129,30.59129,0,0,1-10.6499,1.7695,23.04655,23.04655,0,0,1-6.21-.9297,23.521,23.521,0,0,1-6.02-2.6103l4.1802-9.6495a12.83607,12.83607,0,0,0,3.96,1.8301,17.67511,17.67511,0,0,0,5.0498.7403,14.47476,14.47476,0,0,0,5.54-1,9.22121,9.22121,0,0,0,4.1499-3.5,19.16646,19.16646,0,0,0,2.6104-6.8907,56.90119,56.90119,0,0,0,.8999-11.1396V374.6094a77.79918,77.79918,0,0,0-.8101-12.5098,21.51359,21.51359,0,0,0-2.4102-7.4697,8.0391,8.0391,0,0,0-4.02-3.5801,16.34771,16.34771,0,0,0-5.6299-.8906,15.0475,15.0475,0,0,0-6.79,1.6406,25.00124,25.00124,0,0,0-6.0898,4.25,31.409,31.409,0,0,0-4.8902,5.8897,27.10935,27.10935,0,0,0-3.1499,6.5595v37.3301H370.2569V366.249a100.7128,100.7128,0,0,0-1.0899-16.1299,80.919,80.919,0,0,0-2.1299-9.9394H378.627a23.08739,23.08739,0,0,1,.77,2.6699c.2598,1.0899.4897,2.2402.71,3.4395.2099,1.2099.4101,2.3906.58,3.54l.5098,2.9004q6.18015-7.33455,12.4199-10.5899a27.92651,27.92651,0,0,1,13.0103-3.25,22.73165,22.73165,0,0,1,9.1001,1.71,16.14307,16.14307,0,0,1,6.6699,5.3994,26.402,26.402,0,0,1,4.0801,9.6006,62.35875,62.35875,0,0,1,1.3896,14.1895Zm38.6704,7.0801h-22.33v-7.6094H457.147V310.46H444.2071v-7.6104h22.33Z" fill="#a39b4b"/></g></svg>