<svg xmlns="http://www.w3.org/2000/svg" xmlns:xlink="http://www.w3.org/1999/xlink" viewBox="0 0 633.1914 698.5117"><defs><clipPath id="a"><rect width="633.1914" height="698.5117" fill="none"/></clipPath></defs><g clip-path="url(#a)"><text transform="translate(97.55859 624.70845)" font-size="42" fill="#333e48" font-family="SourceHanSansHC-Medium-B5pc-H, Source Han Sans HC"><tspan letter-spacing="0.00658em">二零二零至二零二一年</tspan><tspan x="422.76465" y="0">度</tspan></text><path d="M77.709,170.747a6.8389,6.8389,0,0,1,6.8389,6.8379c-.001-.1387-.0059-.2783-.0059-.418a92.62416,92.62416,0,0,1,92.626-92.625,6.83785,6.83785,0,0,0,0-13.6757A106.22456,106.22456,0,0,0,70.8672,177.1669c0,.1397.0039.2793.0049.418A6.83777,6.83777,0,0,1,77.709,170.747Z" fill="#5a5c66"/><path d="M170.3301,276.6298a6.83741,6.83741,0,0,1,6.8379-6.8379,92.6209,92.6209,0,0,1-92.6201-92.207,6.8379,6.8379,0,1,0-13.6758,0A106.21637,106.21637,0,0,0,177.168,283.4677,6.83671,6.83671,0,0,1,170.3301,276.6298Z" fill="#858591"/><path d="M251.2676,243.705a6.83772,6.83772,0,0,0-9.6709,0,92.3187,92.3187,0,0,1-64.4287,26.0869,6.8379,6.8379,0,0,0,0,13.6758,105.9546,105.9546,0,0,0,74.0996-30.0927A6.83844,6.83844,0,0,0,251.2676,243.705Z" fill="#9f9ea7"/><path d="M233.4587,120.874a79.61292,79.61292,0,1,0,23.3157,56.2929A79.08663,79.08663,0,0,0,233.4587,120.874Z" fill="#9f9ea7"/><path d="M121.0625,202.9121V151.4228h11.166v3.8066h-6.4726v43.877h6.4726v3.8057Z" fill="#333e48"/><path d="M233.2715,151.4228v51.4893H222.1074v-3.8057h6.4688v-43.877h-6.4688v-3.8066Z" fill="#333e48"/><path d="M146.9961,187.6269q0,1.54245.0488,3.6358.04695,2.09175.1289,4.248.0792,2.15625.1934,4.1201.1113,1.9629.2734,3.2813H141.043V166.5468q0-4.6977-.1602-8.5117-.1611-3.8145-.4834-6.6123h6.5967Z" fill="#fff"/><path d="M175.7998,170.0869v4.2168H169.75v24.3935h6.0498v4.2158H157.7793v-4.2158h5.9531V174.3037h-5.9531v-4.2168Z" fill="#fff"/><path d="M189.3164,170.0869a11.06558,11.06558,0,0,1,.3857,1.3379c.1299.5459.2461,1.1191.3545,1.7197q.15825.9009.2901,1.7705l.2558,1.4463a21.22619,21.22619,0,0,1,6.211-5.292,13.90042,13.90042,0,0,1,6.501-1.626,11.41909,11.41909,0,0,1,4.5546.8526,8.03349,8.03349,0,0,1,3.3311,2.7031,13.23626,13.23626,0,0,1,2.0439,4.7959,31.46264,31.46264,0,0,1,.6914,7.0967V199.372a36.01558,36.01558,0,0,1-.9501,9.0274,15.47515,15.47515,0,0,1-2.6543,5.7295,9.32552,9.32552,0,0,1-4.1036,3.0234,15.26824,15.26824,0,0,1-5.3271.8857,11.51558,11.51558,0,0,1-3.1055-.4668,11.7373,11.7373,0,0,1-3.0078-1.3037l2.0918-4.8271a6.43441,6.43441,0,0,0,1.9785.918,8.80937,8.80937,0,0,0,2.5254.3691,7.29524,7.29524,0,0,0,2.7705-.4981,4.61208,4.61208,0,0,0,2.0742-1.7539,9.59667,9.59667,0,0,0,1.3037-3.4433,28.42119,28.42119,0,0,0,.4502-5.5674V187.3037a39.17806,39.17806,0,0,0-.4023-6.2578,10.80111,10.80111,0,0,0-1.207-3.7344,4.01064,4.01064,0,0,0-2.0127-1.7871,8.05668,8.05668,0,0,0-2.8145-.4492,7.55054,7.55054,0,0,0-3.3945.8222,12.50338,12.50338,0,0,0-3.043,2.1231,15.8051,15.8051,0,0,0-2.4443,2.9443,13.49567,13.49567,0,0,0-1.5781,3.2822v18.666h-5.9522V183.121a50.2291,50.2291,0,0,0-.5488-8.0615,40.81262,40.81262,0,0,0-1.0615-4.9726Z" fill="#fff"/><path d="M129.7671,447.2685H97.5581v-5.3457h32.209Zm-4.1914,56.9317h-5.5195v-5.8614H107.1831v5.8614h-5.6035V475.2841h23.9961Zm-.2578-45.8946-23.6524.084v-5.3457h23.6524Zm.0859,11.2051H101.6655V464.165h23.7383Zm-1.0703-33.1055-21.7285.086v-5.3477h21.7285Zm-4.2773,56.6719V480.5459h-12.959v12.5312Zm55.2617-23.4805-46.2364.086v-5.2617h11.4629l2.4805-13.2168H132.3335v-5.2598h11.5488l1.8379-9.7969H129.3394v-5.3457H171.812v5.2617H151.4937l-1.752,9.795h17.6211l-1.8399,18.4765h9.795Zm-7.4414,34.7735h-5.5176v-5.7735H140.7163v5.7735h-5.6035v-29h32.7637Zm-5.5176-11.0352V480.6318H140.6304v12.7031Zm-.8555-42.2168H148.8003l-2.4805,13.3028h13.8574Z" fill="#333e48"/><path d="M271.7612,447.2685H194.0015v-5.3457h77.7597Zm-11.4629,10.9512H204.6948v-5.1758h55.6035Zm0,11.1191H204.6948V464.165h55.6035Zm-2.0097,35.0313h-5.5178v-6.0313H212.6499v6.0313h-5.5176v-29.086h51.1563Zm-.086-68.5215-50.6425.1289v-5.1758h50.6425Zm-5.4318,57.2285V480.5459H212.6499v12.5312Z" fill="#333e48"/><path d="M368.2046,488.8877H333.7729v5.9453q0,9.5361-10.1386,9.5371h-5.6875l-2.0957-5.2598h7.9551q4.19235,0,4.1933-3.8496v-6.373H290.4448V483.54h37.5547v-3.6777q8.9355-3.3369,12.7871-6.2442H308.0229v-4.9199h42.2618v4.6621a130.85061,130.85061,0,0,1-16.5118,9.2813v.8984h34.4317Zm-3.5918-15.8692h-5.135V464.165H299.7261v9.3672h-5.6035V459.1611H301.48V433.0693q6.07035-.6006,13.3027-5.7754l2.822,3.9355a25.14005,25.14005,0,0,1-10.6071,5.4317v3.5937h10.9492v4.4493H306.9976v4.6621h10.9492v4.3613H306.9976v5.4336h45.4668v-5.4336H342.0269v-4.2773h10.4375v-5.004H342.1128V440.083h10.3516v-4.6621H340.3589v-5.1758h17.5369v28.8301h6.717Zm-24.2539-33.1914-2.9922,3.6777a45.88424,45.88424,0,0,0-6.6309-5.0898,51.21815,51.21815,0,0,1-7.7851,5.3477l-3.5078-3.0801a33.89132,33.89132,0,0,0,7.2734-4.0215,74.95772,74.95772,0,0,0-8.4277-2.7363l2.1816-3.9356a79.17266,79.17266,0,0,1,9.5391,3.0801,36.54706,36.54706,0,0,0,5.0898-5.8594l3.5918,2.8653a27.08022,27.08022,0,0,1-4.4472,5.1757A31.93568,31.93568,0,0,1,340.3589,439.8271Zm.5137,15.5684-3.5918,2.8242a39.65138,39.65138,0,0,0-7.1856-4.4063,46.29774,46.29774,0,0,1-8.2129,4.4063l-3.25-2.5664a42.3725,42.3725,0,0,0,7.9121-4.5352,43.50174,43.50174,0,0,0-7.2715-3.3359l3.2071-2.6934a53.24175,53.24175,0,0,1,7.5293,3.293,36.35322,36.35322,0,0,0,4.832-4.1074l3.9356,2.0117a21.515,21.515,0,0,1-4.875,4.6621A31.8886,31.8886,0,0,1,340.8726,455.3955Z" fill="#333e48"/><path d="M464.5618,488.8877H430.1304v5.9453q0,9.5361-10.1367,9.5371h-5.6895l-2.0957-5.2598h7.9551q4.19235,0,4.1911-3.8496v-6.373H386.8022V483.54h37.5525v-3.6777q8.9418-3.3369,12.7911-6.2442H404.3804v-4.9199h42.2597v4.6621a130.68284,130.68284,0,0,1-16.5097,9.2813v.8984h34.4314Zm-3.5916-15.8692h-5.1348V464.165H396.0835v9.3672H390.48V459.1611h7.3574V433.0693q6.0732-.6006,13.3027-5.7754l2.8223,3.9355a25.13052,25.13052,0,0,1-10.6077,5.4317v3.5937h10.9495v4.4493H403.3547v4.6621h10.9495v4.3613H403.3547v5.4336h45.4671v-5.4336H438.3862v-4.2773h10.4356v-5.004H438.4702V440.083h10.3516v-4.6621H436.7163v-5.1758h17.5371v28.8301h6.7168Zm-22.7305-18.582-3.8964,3.5625a41.33809,41.33809,0,0,0-6.7852-8.0957q-5.7393,6.3954-9.4336,8.1367l-3.8557-3.2383q4.34805-2.06835,9.4338-7.7324a49.67694,49.67694,0,0,0-8.2441-4.4551l3.3633-3.4785a66.24046,66.24046,0,0,1,7.7109,4.2109,24.45334,24.45334,0,0,0,2.625-6.0332H416.2788v-5.0605h6.9043v-5.209h4.4316v5.209h8.1954v5.0605h-1.6233a32.18469,32.18469,0,0,1-3.6756,8.7051A39.73922,39.73922,0,0,1,438.2397,454.4365Z" fill="#333e48"/><path d="M562.3296,447.0986l-3.0781,4.4473q-14.5869-3.5919-22.8399-8.2969v3.8496h-28.916v-4.2344q-12.4893,6.45705-22.4121,8.4258l-2.8223-4.4902q24.03525-5.85945,40.0352-19.5899l5.2598,1.752a7.30882,7.30882,0,0,1-1.4981,1.498Q540.2583,442.2637,562.3296,447.0986Zm-9.1113,24.5078H491.1147V451.5459h62.1036Zm-5.0879,32.8496h-5.2617v-3.4219H501.5522v3.4219h-5.2617V476.0986h51.8399Zm-28.5293-37.4687V456.2939H496.3745v10.6934Zm23.2676,19.3339v-5.5175H501.5522v5.5175Zm0,10.0938v-5.6035H501.5522v5.6035Zm-28.9571-33.6621-4.4043,3.0801a30.79923,30.79923,0,0,0-7.7851-5.9453l4.4472-2.5665A21.99318,21.99318,0,0,1,513.9116,462.7529Zm20.7461-20.4024a53.91884,53.91884,0,0,1-12.0195-8.7675,65.64834,65.64834,0,0,1-13.9004,8.7675Zm13.3027,24.6368V456.2939H524.8628v10.6934Zm-5.1777-8.17a20.35462,20.35462,0,0,1-7.6133,6.8438l-4.705-2.3516q5.60445-3.164,7.6992-6.332Z" fill="#333e48"/><path d="M130.1694,377.3486l-1.6347,1.8808a38.20809,38.20809,0,0,1-13.9844-9.1015l.0351,6.8691h8.2051v15.1114h-2.2324v-2.0215H106.3433v2.0215h-2.3008V376.997h8.2402v-6.8691q-3.61815,5.5341-13.0723,8.6621l-1.6523-1.8633q8.38185-2.2119,11.9844-6.7988H99.5444v-2.1973h12.7383V364.54q-4.1982.4218-10.543.6152l-1.5097-2.125q14.9853-.05565,23.9297-2.5136l1.6875,1.6875a77.77242,77.77242,0,0,1-11.2618,2.0546v3.6719h12.9141v2.1973l-10.0683-.0352A37.44682,37.44682,0,0,0,130.1694,377.3486Zm-9.6113,4.9375v-3.0918h-14.25v3.0918Zm0,5.6406v-3.4785h-14.25v3.4785Z" fill="#333e48"/><path d="M151.30552,378.9658a34.29822,34.29822,0,0,1-5.7969,11.2636l2.0547,1.2989a33.50649,33.50649,0,0,0,5.8691-11.2617Zm-3.7071-9.752-1.4765,1.8457a12.9982,12.9982,0,0,1,5.5351,4.2871l1.5449-2.0918A13.22151,13.22151,0,0,0,147.59842,369.2138Zm1.7207-7.8711-1.6504,1.6875a10.59326,10.59326,0,0,1,5.3243,4.0762l1.6503-1.7754A10.76371,10.76371,0,0,0,149.31912,361.3427Z" fill="#333e48"/><path d="M172.284,384.3076v-6.625a20.40913,20.40913,0,0,0,4.5,3.2343l1.4394-1.9511a15.09608,15.09608,0,0,1-7.1679-6.2188h6.0078v-2.1621h-5.7442v-4.1992h4.3379v-2.1621h-4.3379v-3.7051h-2.2324v3.7402h-6.5176v-3.7402h-2.2324v3.7402h-4.3223v2.1602h4.3575v4.1992h-5.7286v2.1641h5.7989q-1.94835,3.65325-7.045,6.0781l1.6504,1.9492a21.97923,21.97923,0,0,0,2.7754-1.8965v9.418q0,3.0234,3.0235,3.0215h11.5078a2.80926,2.80926,0,0,0,2.2226-.9297,7.8622,7.8622,0,0,0,1.2735-3.6719l-2.2657-1.0195a6.91249,6.91249,0,0,1-.6679,2.8105,1.37574,1.37574,0,0,1-1.1758.6153h-10.7188a.85374.85374,0,0,1-.9667-.9668v-3.8828Zm-9.7149-17.9219h6.5528v4.1992h-6.5528Zm.209,6.3613h5.9746a14.59553,14.59553,0,0,0,2.5996,3.9883h-11.1562A12.37238,12.37238,0,0,0,162.77812,372.747Zm-2.7226,6.1485h9.998v3.2851h-9.998Z" fill="#333e48"/><path d="M226.03333,390.3505l-1.6348,1.8282q-10.98045-5.9913-13.9512-20.1875-3.6708,14.4258-14.9687,20.1875l-1.7754-2.0918q11.19135-5.44635,14.1797-18.0606h-11.9473v-2.2676h12.211a89.81114,89.81114,0,0,0,.2812-9.2421l2.4414.3515q.0879,5.376-.2109,8.8555h13.3183v2.2676h-11.0859Q214.99718,384.0263,226.03333,390.3505Z" fill="#333e48"/><path d="M273.8421,385.7822H259.6978v2.4433q0,3.9171-4.1641,3.918h-2.3378l-.8594-2.1601h3.2676q1.7196,0,1.7207-1.5821v-2.6191H241.899v-2.1953h15.4258v-1.5117a21.86071,21.86071,0,0,0,5.2539-2.5645h-13.459v-2.0215h17.3594v1.916a53.71618,53.71618,0,0,1-6.7813,3.8125v.3692h14.1443Zm-1.4763-6.5176h-2.1074v-3.6367H245.7115v3.8476h-2.3008v-5.9043h3.0215V362.8544a11.6423,11.6423,0,0,0,5.4648-2.373l1.1582,1.6172a10.32063,10.32063,0,0,1-4.3574,2.2305v1.4765h4.4981v1.8281h-4.4981v1.9141h4.4981v1.793h-4.4981v2.2304h18.6777v-2.2304h-4.2871V369.583h4.2871v-2.0547h-4.2519v-1.793h4.2519v-1.9141h-4.9726v-2.1269h7.2051v11.8418h2.7578Zm-9.9629-13.6348-1.2305,1.5098a18.68924,18.68924,0,0,0-2.7226-2.0898,20.93115,20.93115,0,0,1-3.1973,2.1972l-1.4414-1.2656a13.8664,13.8664,0,0,0,2.9863-1.6523,31.29613,31.29613,0,0,0-3.4609-1.125l.8965-1.6153a32.24165,32.24165,0,0,1,3.9179,1.2656,14.986,14.986,0,0,0,2.0918-2.4082l1.4764,1.1778a11.18785,11.18785,0,0,1-1.8279,2.1269A13.03614,13.03614,0,0,1,262.4029,365.6298Zm.2109,6.3965-1.4746,1.1582a16.36594,16.36594,0,0,0-2.9531-1.8086,18.86543,18.86543,0,0,1-3.3731,1.8086l-1.3359-1.0547a17.29,17.29,0,0,0,3.252-1.8613,17.81493,17.81493,0,0,0-2.9883-1.3711l1.3183-1.1074a21.97575,21.97575,0,0,1,3.0918,1.3535,14.87708,14.87708,0,0,0,1.9861-1.6855l1.6155.8261a8.80927,8.80927,0,0,1-2.002,1.9141A13.06516,13.06516,0,0,1,262.6138,372.0263Z" fill="#333e48"/><path d="M322.30052,389.8759l-1.5468,2.0567a41.96593,41.96593,0,0,1-14.5118-7.0977q-4.7988,3.91695-15.0764,7.2383l-1.7204-2.0898q9.94335-2.75985,15.039-6.6954a23.92938,23.92938,0,0,1-6.8691-11.7539,19.40061,19.40061,0,0,1-2.6016,4.6387l-1.8613-1.7051a23.178,23.178,0,0,0,3.5664-5.7812h-6.0449v-2.1602h14.0937v-6.0097h2.2657v5.9746h14.3359v2.1601h-6.0098q-1.579,9.173-7.2734,14.6016Q313.26792,387.1874,322.30052,389.8759Zm-9.2949-21.2246H299.408a22.13788,22.13788,0,0,0,6.8691,13.0899A22.46289,22.46289,0,0,0,313.00562,368.6513Z" fill="#333e48"/><path d="M369.84673,385.7822h-14.1465v2.4433q0,3.9171-4.164,3.918h-2.336l-.8613-2.1601h3.2676q1.7226,0,1.7226-1.5821v-2.6191h-15.4257v-2.1953h15.4257v-1.5117a21.875,21.875,0,0,0,5.252-2.5645h-13.457v-2.0215h17.3593v1.916a53.88773,53.88773,0,0,1-6.7832,3.8125v.3692h14.1465Zm-1.4765-6.5176h-2.1094v-3.6367h-24.5469v3.8476h-2.3008v-5.9043h3.0215V362.8544a11.63965,11.63965,0,0,0,5.4668-2.373l1.1582,1.6172a10.32917,10.32917,0,0,1-4.3594,2.2305v1.4765h4.5v1.8281h-4.5v1.9141h4.5v1.793h-4.5v2.2304h18.6797v-2.2304h-4.289V369.583h4.289v-2.0547H359.128v-1.793h4.2519v-1.9141h-4.9726v-2.1269h7.2031v11.8418h2.7598Zm-9.9629-13.6348-1.2307,1.5098a18.90451,18.90451,0,0,0-2.7225-2.0898,21.04515,21.04515,0,0,1-3.1992,2.1972l-1.4394-1.2656a13.95627,13.95627,0,0,0,2.9861-1.6523,31.56947,31.56947,0,0,0-3.4607-1.125l.8964-1.6153a32.46962,32.46962,0,0,1,3.918,1.2656,14.97488,14.97488,0,0,0,2.0899-2.4082l1.4765,1.1778a11.17928,11.17928,0,0,1-1.8262,2.1269A13.0889,13.0889,0,0,1,358.40733,365.6298Zm.2109,6.3965-1.4766,1.1582a16.35121,16.35121,0,0,0-2.9511-1.8086,18.88873,18.88873,0,0,1-3.375,1.8086l-1.336-1.0547a17.22353,17.22353,0,0,0,3.252-1.8613,17.85706,17.85706,0,0,0-2.9863-1.3711l1.3164-1.1074a22.127,22.127,0,0,1,3.0937,1.3535,14.8058,14.8058,0,0,0,1.9844-1.6855l1.6172.8261a8.89212,8.89212,0,0,1-2.002,1.9141A13.15487,13.15487,0,0,1,358.61823,372.0263Z" fill="#333e48"/><path d="M392.9946,372.4638q3.5508,3.9903,3.5508,7.7852a4.28757,4.28757,0,0,1-.959,2.9336,3.37632,3.37632,0,0,1-2.6796,1.0898,13.85853,13.85853,0,0,1-2.2833-.2285l-.6503-2.3379a12.59751,12.59751,0,0,0,2.705.4746,1.785,1.785,0,0,0,1.2481-.5273,1.82893,1.82893,0,0,0,.5625-1.4043,8.44141,8.44141,0,0,0-.9649-3.375,13.46452,13.46452,0,0,0-2.9004-3.916l3.4258-8.8047h-5.2168v27.9902h-2.3027V361.9228h9.8555v2.2305Zm24.2303,13.2324a12.12314,12.12314,0,0,1-1.2303,4.127,2.70822,2.70822,0,0,1-2.5117,1.2832h-2.7402q-2.74215,0-2.7422-2.8809v-9.2949h-3.707q-.10545,5.65725-2.2051,8.4785-2.1006,2.81835-7.793,4.7344l-1.4765-2.0215q5.2881-1.5615,7.2578-4.041,1.96875-2.4756,1.9843-7.1152h-4.8144V376.663h18.8203v2.2676h-5.8711v8.75a1.33641,1.33641,0,0,0,.281.8164.81534.81534,0,0,0,.6682.3789h2.2325q.6855,0,1.0449-1.125a17.92167,17.92167,0,0,0,.6074-2.916Zm-2.0213-15.9375-2.2304.0352v-3.0918H399.7249v3.0918h-2.2674v-5.3242h7.7129v-3.9883h2.3028v3.9531h7.7304Zm-2.9511,3.3907h-11.877v-2.3008h11.877Z" fill="#333e48"/><path d="M465.85127,385.7822h-14.1445v2.4433q0,3.9171-4.1641,3.918h-2.3359l-.8613-2.1601h3.2675q1.72275,0,1.7227-1.5821v-2.6191H433.908v-2.1953h15.4277v-1.5117a21.86773,21.86773,0,0,0,5.2517-2.5645h-13.4587v-2.0215H458.488v1.916a53.71427,53.71427,0,0,1-6.7812,3.8125v.3692h14.1445Zm-1.4765-6.5176h-2.1075v-3.6367h-24.5449v3.8476h-2.3027v-5.9043h3.0234V362.8544a11.644,11.644,0,0,0,5.4629-2.373l1.1602,1.6172a10.3465,10.3465,0,0,1-4.3575,2.2305v1.4765h4.4981v1.8281h-4.4981v1.9141h4.4981v1.793h-4.4981v2.2304h18.6758v-2.2304h-4.2871V369.583h4.2871v-2.0547h-4.25v-1.793h4.25v-1.9141h-4.9707v-2.1269h7.2031v11.8418h2.7579Zm-9.961-13.6348-1.2324,1.5098a18.79586,18.79586,0,0,0-2.7227-2.0898,21.02424,21.02424,0,0,1-3.1972,2.1972l-1.4414-1.2656a13.92774,13.92774,0,0,0,2.9882-1.6523,31.55657,31.55657,0,0,0-3.4609-1.125l.8945-1.6153a32.23742,32.23742,0,0,1,3.918,1.2656,14.991,14.991,0,0,0,2.0918-2.4082l1.4766,1.1778a11.19721,11.19721,0,0,1-1.8282,2.1269A13.04105,13.04105,0,0,1,454.41377,365.6298Zm.209,6.3965-1.4746,1.1582a16.425,16.425,0,0,0-2.9512-1.8086,18.95893,18.95893,0,0,1-3.375,1.8086l-1.334-1.0547a17.31943,17.31943,0,0,0,3.25-1.8613,17.80934,17.80934,0,0,0-2.9882-1.3711l1.3183-1.1074a21.98091,21.98091,0,0,1,3.0918,1.3535,14.9004,14.9004,0,0,0,1.9863-1.6855l1.6153.8261a8.80927,8.80927,0,0,1-2.002,1.9141A13.01379,13.01379,0,0,1,454.62277,372.0263Z" fill="#333e48"/><path d="M513.96783,390.3857h-31.9785v-2.2656h14.9001v-8.2403h-10.7361v-2.2675h10.7361v-7.168h-7.9609a18.66186,18.66186,0,0,1-4.8142,6.9043l-2.3184-1.2129a19.41217,19.41217,0,0,0,6.4141-13.0352l2.3711.6836a26.42167,26.42167,0,0,1-.8262,4.4297h7.0996v-7.6972h2.3711v7.6601h12.4043v2.2676h-12.4043v7.1328h10.5779v2.2676h-10.5779v8.2402h14.7422Z" fill="#333e48"/><path d="M562.3296,368.6162l-1.2637,1.8281a37.48355,37.48355,0,0,1-9.3828-3.4082v1.5801H539.8042v-1.7383a35.64184,35.64184,0,0,1-9.2051,3.4609l-1.1604-1.8457a38.93839,38.93839,0,0,0,16.4456-8.0469l2.1621.7207a3.05,3.05,0,0,1-.6152.6153A34.39515,34.39515,0,0,0,562.3296,368.6162Zm-3.7402,10.0683H533.0776v-8.2402h25.5118Zm-2.0918,13.4942h-2.1622v-1.4063H537.3628v1.4063h-2.1602V380.5302h21.295Zm-11.7207-15.3926v-4.3926h-9.5391v4.3926Zm9.5585,7.9433v-2.2675H537.3628v2.2675Zm0,4.1465v-2.3027H537.3628v2.3027Zm-11.8945-13.8281-1.8105,1.2656a12.599,12.599,0,0,0-3.1973-2.4433l1.8281-1.0528A9.00456,9.00456,0,0,1,542.4409,375.0478Zm8.5215-8.3809a22.166,22.166,0,0,1-4.9375-3.6035,26.99763,26.99763,0,0,1-5.709,3.6035Zm5.4648,10.1192v-4.3926h-9.4885v4.3926Zm-2.125-3.3555a8.38648,8.38648,0,0,1-3.1289,2.8125l-1.9316-.9668a9.12369,9.12369,0,0,0,3.1621-2.6015Z" fill="#333e48"/></g></svg>