<svg xmlns="http://www.w3.org/2000/svg" xmlns:xlink="http://www.w3.org/1999/xlink" viewBox="0 0 1612.2588 708.67291"><defs><clipPath id="a"><rect y="0.001" width="1612.2588" height="708.67191" fill="none"/></clipPath></defs><g clip-path="url(#a)"><path d="M158.4414,271.57332a210.68967,210.68967,0,0,0-16.1699,67.4257,20.762,20.762,0,0,1,27.3535.9571C176.9629,244.36433,256.8496,169.085,354.3262,169.085a13.6758,13.6758,0,0,0,0-27.3516A212.80448,212.80448,0,0,0,158.4414,271.57332Z" fill="#fff"/><path d="M339.1856,538.9698c-94.9551-7.68168-169.6719-86.96288-170.1016-183.79688a13.6758,13.6758,0,0,0-27.3516,0A212.43946,212.43946,0,0,0,338.0996,566.333a20.754,20.754,0,0,1,1.086-27.36322Z" fill="#fff"/><path d="M502.5274,487.41312a13.67676,13.67676,0,0,0-19.3418,0,184.6314,184.6314,0,0,1-128.8594,52.1758,13.6758,13.6758,0,0,0,0,27.3516A211.90052,211.90052,0,0,0,502.5274,506.753,13.6697,13.6697,0,0,0,502.5274,487.41312Z" fill="#fff"/><path d="M354.3262,566.94052a13.6758,13.6758,0,0,1,0-27.3516,184.6314,184.6314,0,0,0,128.8594-52.1758,13.676,13.676,0,0,1,19.3418,19.3399,211.90052,211.90052,0,0,1-148.2012,60.1875Zm-82.7656-16.7188a212.41361,212.41361,0,0,1-129.8282-195.0488,13.6758,13.6758,0,0,1,27.3516,0c.4297,96.834,75.1465,176.1152,170.1016,183.79688a20.754,20.754,0,0,0-1.086,27.36322A210.71684,210.71684,0,0,1,271.5606,550.22172ZM354.3262,141.7334a13.6758,13.6758,0,0,1,0,27.3516c-97.4766,0-177.3633,75.27933-184.7012,170.87112a20.762,20.762,0,0,0-27.3535-.9571A212.43886,212.43886,0,0,1,354.3262,141.7334Z" fill="#fff"/><path d="M466.9121,241.751a159.225,159.225,0,1,0,46.6328,112.58589A158.17094,158.17094,0,0,0,466.9121,241.751Z" fill="#fff"/><path d="M242.1153,405.82722V302.84872h22.3339V310.46H251.5049v87.7539h12.9443v7.6133Z" fill="#333e48"/><path d="M466.5371,302.84872v102.9785H444.209v-7.6133h12.9385V310.46H444.209v-7.6113Z" fill="#333e48"/><path d="M293.9864,375.25692q0,3.0849.0957,7.2714.09375,4.18365.2597,8.4961.15825,4.3125.3867,8.2403.21975,3.9258.545,6.5625H282.0801v-72.7305q0-9.39555-.3223-17.0234-.31935-7.629-.9668-13.2246h13.1954Z" fill="#333e48"/><path d="M351.5928,340.1768v8.43362H339.4922v48.7871h12.1006v8.4316h-36.042v-8.4316h11.9063v-48.7871H315.5508V340.1768Z" fill="#333e48"/><path d="M378.627,340.1768a22.858,22.858,0,0,1,.7715,2.67382c.2597,1.0938.4922,2.24018.7089,3.4414q.3165,1.8018.5801,3.541l.5117,2.8926q6.18165-7.3359,12.4219-10.5859a27.8297,27.8297,0,0,1,13.003-3.25,22.833,22.833,0,0,1,9.1074,1.70508,16.06465,16.06465,0,0,1,6.6631,5.40622,26.488,26.488,0,0,1,4.0878,9.59178,62.93209,62.93209,0,0,1,1.3829,14.19342v28.9609a72.029,72.029,0,0,1-1.9004,18.05468,30.95466,30.95466,0,0,1-5.3086,11.46092,18.665,18.665,0,0,1-8.2071,6.0469,30.57715,30.57715,0,0,1-10.6523,1.7715,23.023,23.023,0,0,1-6.2109-.9336,23.55671,23.55671,0,0,1-6.0176-2.6074l4.1836-9.65632a12.82031,12.82031,0,0,0,3.959,1.836,17.59038,17.59038,0,0,0,5.0488.73822,14.54547,14.54547,0,0,0,5.54-.9961,9.22332,9.22332,0,0,0,4.1494-3.5058,19.22408,19.22408,0,0,0,2.6075-6.8887,56.87134,56.87134,0,0,0,.9004-11.1348v-28.3203a78.44028,78.44028,0,0,0-.8047-12.51952,21.57487,21.57487,0,0,0-2.4151-7.46478,8.00929,8.00929,0,0,0-4.0244-3.57622,16.11154,16.11154,0,0,0-5.6289-.89848,15.09325,15.09325,0,0,0-6.7881,1.6446,24.99476,24.99476,0,0,0-6.0869,4.2461,31.58282,31.58282,0,0,0-4.8887,5.8886,27.06748,27.06748,0,0,0-3.1562,6.5645v37.332H370.2578v-39.584a100.47078,100.47078,0,0,0-1.0957-16.123,81.59482,81.59482,0,0,0-2.123-9.94532Z" fill="#333e48"/><path d="M731.9351,379.63332H676.9424v-9.1289h54.9927Zm-7.1568,97.2061H715.357v-10.0059H693.3741v10.0059h-9.5669v-49.3701h40.9711Zm-.4384-78.3633-40.3867.1455v-9.1279h40.3867Zm.146,19.1338H683.9532V408.481h40.5327Zm-1.8257-56.5264-37.1001.1465v-9.1289h37.1001Zm-7.3032,96.7666v-21.3974H693.2285v21.3974Zm94.3574-40.0937-78.9478.1455v-8.9824h19.5723l4.2363-22.5664H736.3174v-8.9834h19.7188l3.1401-16.7247H731.2051v-9.1289h72.5205v8.9834H769.0352l-2.9942,16.7246h30.0894l-3.1406,31.5489h16.7246Zm-12.708,59.375h-9.4209V467.272H750.6314v9.8594H741.064v-49.5157h55.9424Zm-9.4209-18.8428v-21.6904H750.4854v21.6904Zm-1.461-72.082H764.4341l-4.2353,22.7129h23.6621Z" fill="#fff"/><path d="M974.3858,379.63332H841.6148v-9.1289h132.771Zm-19.5723,18.6963H859.8716v-8.8359h94.9419Zm0,18.9883H859.8716V408.481h94.9419Zm-3.4321,59.8135h-9.4209v-10.2979H873.4561v10.2979h-9.4209v-49.6621h87.3462Zm-.146-116.9971-86.4702.2188v-8.837h86.4702Zm-9.2749,97.7158v-21.3974H873.4561v21.3974Z" fill="#fff"/><path d="M1139.0596,450.69392h-58.791v10.1513q0,16.28475-17.3106,16.2862h-9.7129l-3.5781-8.9824h13.584q7.15725,0,7.1582-6.5733v-10.8818h-64.123V441.565h64.123v-6.2813q15.2607-5.6967,21.8359-10.6621h-55.9433v-8.3994H1108.46v7.9609a223.65486,223.65486,0,0,1-28.1914,15.84768V441.565h58.791Zm-6.1348-27.0957h-8.7656V408.481H1022.1358v15.9941h-9.5689V399.937h12.5611v-44.5507q10.36815-1.02105,22.7148-9.8584l4.8203,6.7187q-6.6504,6.13485-18.1133,9.2754v6.13478h18.6953v7.59572h-18.6953v7.9599h18.6953v7.4483h-18.6953v9.2763h77.6328v-9.2763h-17.8203v-7.3028h17.8203V374.814h-17.6738V367.3648h17.6738v-7.961h-20.6679v-8.83688h29.9433v49.2237h11.4668Zm-41.4101-56.6719-5.1114,6.2803a77.94833,77.94833,0,0,0-11.3203-8.6905,87.35792,87.35792,0,0,1-13.2929,9.1289l-5.9883-5.2587a57.90272,57.90272,0,0,0,12.416-6.8643,127.37517,127.37517,0,0,0-14.3887-4.6738l3.7266-6.7198a134.909,134.909,0,0,1,16.2851,5.2579,62.19365,62.19365,0,0,0,8.6915-10.0049l6.1347,4.8935a46.29493,46.29493,0,0,1-7.5957,8.83688A54.54549,54.54549,0,0,1,1091.5147,366.92632Zm.875,26.583-6.1328,4.8203a67.61468,67.61468,0,0,0-12.2696-7.5215q-3.94335,2.99415-14.0215,7.5215l-5.5507-4.38182q9.419-4.45317,13.5117-7.74118a74.208,74.208,0,0,0-12.416-5.6973l5.4765-4.5996a91.19825,91.19825,0,0,1,12.8535,5.62208q2.0421-1.16607,8.252-7.01078l6.7188,3.4326a36.60254,36.60254,0,0,1-8.3243,7.961A54.32167,54.32167,0,0,1,1092.3897,393.50932Z" fill="#fff"/><path d="M1303.585,450.69392h-58.791v10.1513q0,16.28475-17.3086,16.2862h-9.7129l-3.5781-8.9824h13.5839q7.1544,0,7.1563-6.5733v-10.8818h-64.1211V441.565h64.1211v-6.2813q15.2637-5.6967,21.8379-10.6621h-55.9434v-8.3994h72.1563v7.9609a223.51272,223.51272,0,0,1-28.1914,15.84768V441.565h58.791Zm-6.1328-27.0957h-8.7676V408.481H1186.6612v15.9941h-9.5664V399.937h12.5605v-44.5507q10.37115-1.02105,22.7129-9.8584l4.8203,6.7187q-6.64455,6.13485-18.1133,9.2754v6.13478h18.6973v7.59572h-18.6973v7.9599h18.6973v7.4483h-18.6973v9.2763h77.6328v-9.2763h-17.8183v-7.3028h17.8183V374.814h-17.6738V367.3648h17.6738v-7.961h-20.6679v-8.83688h29.9433v49.2237h11.4688Zm-38.8106-31.7276-6.6543,6.084c-3.0371-4.5635-7.3828-10.2764-11.5859-13.8242q-9.7998,10.91895-16.1055,13.8936l-6.584-5.5293q7.424-3.53175,16.1075-13.2032-9.876-6.1509-14.0762-7.6054l5.7441-5.9405q3.501,1.38285,13.166,7.1895a41.8161,41.8161,0,0,0,4.4805-10.3018h-21.9902v-8.6386h11.789v-8.8965h7.5665v8.8965h13.9921v8.6386h-2.7695a54.99609,54.99609,0,0,1-6.2754,14.8633C1250.5362,381.36572,1255.4209,387.26322,1258.6416,391.87062Z" fill="#fff"/><path d="M1470.5205,379.34232l-5.2578,7.5947q-24.90525-6.1347-38.998-14.1679v6.5732h-49.3711v-7.2314q-21.3252,11.02875-38.2695,14.3877l-4.8184-7.668q41.042-10.00485,68.3574-33.4492l8.9824,2.9941a12.42042,12.42042,0,0,1-2.5566,2.5557Q1432.83505,371.089,1470.5205,379.34232Zm-15.5566,41.8467h-106.041V386.937h106.041Zm-8.6895,56.0879h-8.9824v-5.8428h-70.5488v5.8428h-8.9824V428.857h88.5136Zm-48.7128-63.9756v-18.2578h-39.6563v18.2578Zm39.7304,33.0107v-9.4209h-70.5488v9.4209Zm0,17.2354V453.98h-70.5488v9.5674Zm-49.4433-57.47662-7.5215,5.25882a52.54094,52.54094,0,0,0-13.293-10.1514l7.5957-4.3818A37.57716,37.57716,0,0,1,1387.8487,406.0708Zm35.4218-34.83488a92.10538,92.10538,0,0,1-20.5234-14.9727,112.12017,112.12017,0,0,1-23.7344,14.9727Zm22.7129,42.0654v-18.2578h-39.4375v18.2578Zm-8.8379-13.9492q-4.3095,6.86565-13,11.6855l-8.0332-4.0166q9.56835-5.40375,13.1446-10.8095Z" fill="#fff"/><path d="M732.6236,260.24762l-2.7901,3.2109q-12.5397-4.4106-23.8803-15.541l.0595,11.73049h14.0108V285.4478h-3.8101v-3.44918H691.9429v3.44918h-3.9312V259.648h14.0708V247.91753q-6.1794,9.44968-22.3208,14.791l-2.8193-3.1806q14.3094-3.78075,20.4605-11.61039H680.3321v-3.75h21.7504v-5.79q-7.16955.7206-18,1.0498l-2.58-3.6299q25.59-.0909,40.8608-4.29l2.8799,2.8808a132.90179,132.90179,0,0,1-19.2305,3.5098v6.26953h22.0508v3.75l-17.1904-.0596A63.95456,63.95456,0,0,0,732.6236,260.24762Zm-16.4102,8.4306V263.398H691.8828v5.2802Zm0,9.6299v-5.9394H691.8828v5.9394Z" fill="#fff"/><path d="M768.71439,263.00742q-3.78285,11.7318-9.9004,19.23138l3.5088,2.22072a57.19584,57.19584,0,0,0,10.0215-19.2305Zm-6.331-16.64949-2.5215,3.1504a22.19138,22.19138,0,0,1,9.4531,7.31939l2.6377-3.5694Q768.834,249.08653,762.38339,246.35793Zm2.9389-13.43943-2.8193,2.8799a18.10518,18.10518,0,0,1,9.0913,6.959l2.8189-3.03033A18.39215,18.39215,0,0,0,765.32229,232.9185Z" fill="#fff"/><path d="M804.53379,272.12942v-11.3125a34.83233,34.83233,0,0,0,7.6816,5.5225l2.4605-3.332a25.76357,25.76357,0,0,1-12.2413-10.6192h10.2583V248.6988h-9.8081v-7.1709h7.4092v-3.6914h-7.4092v-6.3272h-3.8115v6.3887h-11.1289v-6.3887h-3.812v6.3887H776.754v3.6885h7.4399v7.16993h-9.7807v3.69237h9.9003q-3.32805,6.23868-12.0297,10.37792l2.8188,3.331a37.67266,37.67266,0,0,0,4.7407-3.2392v16.081q0,5.15925,5.1597,5.1592h19.6504a4.79046,4.79046,0,0,0,3.7944-1.5888q1.39755-1.5909,2.1768-6.2696l-3.8701-1.7412q-.3912,3.75-1.1397,4.7988a2.34832,2.34832,0,0,1-2.0097,1.0508h-18.3018a1.45716,1.45716,0,0,1-1.6484-1.6513v-6.628Zm-16.5894-30.60152h11.1899v7.1709h-11.1899Zm.3584,10.86032h10.2007a24.8811,24.8811,0,0,0,4.4399,6.8115h-19.0498A21.14848,21.14848,0,0,0,788.30279,252.38822Zm-4.6479,10.5h17.0698v5.6104h-17.0698Z" fill="#fff"/><path d="M896.30768,282.4488l-2.79,3.11912q-18.7515-10.22895-23.8208-34.46969-6.27165,24.63133-25.5601,34.46969l-3.0307-3.5693q19.1103-9.3003,24.2109-30.84089h-20.4009v-3.8701h20.8506a153.53527,153.53527,0,0,0,.4805-15.78023l4.1699.6005q.1494,9.1788-.3603,15.12023h22.7407v3.8701h-18.9302Q877.46638,271.64852,896.30768,282.4488Z" fill="#fff"/><path d="M977.93932,274.648h-24.1508v4.1709q0,6.6885-7.1099,6.6904h-3.9902l-1.4698-3.6904h5.5801q2.93925,0,2.9399-2.7002V274.648h-26.3403v-3.75h26.3403v-2.5801a37.47966,37.47966,0,0,0,8.9703-4.3799h-22.9805V260.4878h29.6401v3.26962a91.58153,91.58153,0,0,1-11.58,6.5107v.6299h24.1508Zm-2.5195-11.1299h-3.6001v-6.21h-41.9116v6.5694h-3.9302v-10.0791h5.1607V235.4976q4.259-.419,9.3295-4.0498l1.98,2.7597a17.64778,17.64778,0,0,1-7.4399,3.8106v2.5195h7.6802v3.12013h-7.6802v3.2705h7.6802v3.05957h-7.6802v3.81062h31.8911V249.9878H959.579v-3h7.3203v-3.50967H959.639V240.4175h7.2603V237.148h-8.4902v-3.6299h12.2998v20.2197h4.7109Zm-17.0107-23.28032-2.1006,2.57913a31.94713,31.94713,0,0,0-4.6494-3.56933,35.8912,35.8912,0,0,1-5.4605,3.75l-2.46-2.15923a23.81652,23.81652,0,0,0,5.0997-2.8203,52.46828,52.46828,0,0,0-5.9097-1.9209l1.5303-2.7598a55.41124,55.41124,0,0,1,6.6899,2.1602,25.55334,25.55334,0,0,0,3.5698-4.1104l2.5205,2.0108a19.0348,19.0348,0,0,1-3.1201,3.6299A22.41222,22.41222,0,0,1,958.40912,240.2378Zm.3598,10.91993-2.52,1.98049a27.78361,27.78361,0,0,0-5.04-3.09079,32.44056,32.44056,0,0,1-5.7603,3.09079l-2.2803-1.80079a29.6605,29.6605,0,0,0,5.5508-3.1797,30.44276,30.44276,0,0,0-5.1006-2.3398l2.2495-1.8906a37.52365,37.52365,0,0,1,5.2808,2.31047,25.59191,25.59191,0,0,0,3.3901-2.87987l2.7598,1.4102a15.05478,15.05478,0,0,1-3.4199,3.2695A22.30024,22.30024,0,0,1,958.76892,251.15773Z" fill="#fff"/><path d="M1060.68151,281.63822l-2.6406,3.5108q-15.26955-4.5-24.7793-12.1211-8.19435,6.69132-25.7422,12.3613l-2.9394-3.5703q16.98045-4.70955,25.6816-11.4307a40.863,40.863,0,0,1-11.7305-20.07029,33.109,33.109,0,0,1-4.4414,7.91987l-3.1777-2.90918a39.64861,39.64861,0,0,0,6.0879-9.87109h-10.3203v-3.6894h24.0625V231.5074h3.8691v10.2001h24.4805V245.398H1048.83q-2.69835,15.66059-12.42,24.92969Q1045.26061,277.04832,1060.68151,281.63822Zm-15.8711-36.24019h-23.2187q2.3964,13.88954,11.7285,22.35059Q1042.44036,259.25832,1044.81041,245.398Z" fill="#fff"/><path d="M1141.86319,274.648h-24.1523v4.1709q0,6.6885-7.1094,6.6904h-3.9902l-1.4688-3.6904h5.5782q2.94135,0,2.9414-2.7002V274.648h-26.3399v-3.75h26.3399v-2.5801a37.45408,37.45408,0,0,0,8.9687-4.3799h-22.9805V260.4878h29.6407v3.26962a91.59051,91.59051,0,0,1-11.5801,6.5107v.6299h24.1523Zm-2.5195-11.1299h-3.6016v-6.21H1093.83v6.5694h-3.9297v-10.0791h5.1602V235.4976q4.2597-.419,9.332-4.0498l1.9785,2.7597a17.64146,17.64146,0,0,1-7.4414,3.8106v2.5195h7.6817v3.12013h-7.6817v3.2705h7.6817v3.05957h-7.6817v3.81062h31.8926V249.9878h-7.3223v-3h7.3223v-3.50967h-7.2598V240.4175h7.2598V237.148h-8.4902v-3.6299h12.2988v20.2197h4.7129ZM1122.332,240.2378l-2.1016,2.57913a31.8984,31.8984,0,0,0-4.6484-3.56933,35.96118,35.96118,0,0,1-5.461,3.75l-2.4589-2.15923a23.84235,23.84235,0,0,0,5.0996-2.8203,52.65465,52.65465,0,0,0-5.9102-1.9209l1.5313-2.7598a55.46125,55.46125,0,0,1,6.6894,2.1602,25.47215,25.47215,0,0,0,3.5684-4.1104l2.5215,2.0108a19.1182,19.1182,0,0,1-3.1192,3.6299A22.43772,22.43772,0,0,1,1122.332,240.2378Zm.3594,10.91993-2.5196,1.98049a27.73962,27.73962,0,0,0-5.041-3.09079,32.41281,32.41281,0,0,1-5.7598,3.09079l-2.2812-1.80079a29.54966,29.54966,0,0,0,5.5508-3.1797,30.39064,30.39064,0,0,0-5.0996-2.3398l2.25-1.8906a37.5561,37.5561,0,0,1,5.2812,2.31047,25.45417,25.45417,0,0,0,3.3887-2.87987l2.7598,1.4102a15.05138,15.05138,0,0,1-3.418,3.2695A22.36308,22.36308,0,0,1,1122.69139,251.15773Z" fill="#fff"/><path d="M1181.38763,251.90773q6.0615,6.8101,6.0625,13.29007a7.30688,7.30688,0,0,1-1.6367,5.00972,5.76131,5.76131,0,0,1-4.5742,1.8614,23.80442,23.80442,0,0,1-3.9004-.3897l-1.1094-3.9912a21.66761,21.66761,0,0,0,4.6191.8106,3.0527,3.0527,0,0,0,2.1309-.9004,3.131,3.131,0,0,0,.9609-2.40042,14.38058,14.38058,0,0,0-1.6503-5.75978,22.92815,22.92815,0,0,0-4.9512-6.6894l5.8515-15.03132h-8.9101v47.792h-3.9317V233.9077h16.8301v3.8096Zm41.3731,22.59089a20.74381,20.74381,0,0,1-2.1016,7.0498,4.62326,4.62326,0,0,1-4.2891,2.19038h-4.6797q-4.68165,0-4.6796-4.91988V262.9488h-6.3321q-.17865,9.65913-3.7636,14.47462-3.586,4.81485-13.3067,8.0859l-2.5195-3.4512q9.02925-2.669,12.3906-6.9004,3.3603-4.22895,3.3906-12.1494h-8.2207v-3.9306h32.1328v3.87108h-10.0234v14.94042a2.28872,2.28872,0,0,0,.4805,1.3945,1.39624,1.39624,0,0,0,1.1406.6445h3.8105q1.169,0,1.7852-1.9199a30.59258,30.59258,0,0,0,1.0352-4.9804Zm-3.4512-27.211-3.8086.0606v-5.2813h-22.6211v5.2813h-3.8711V238.2574h13.1699v-6.8096h3.9317v6.75h13.1992Zm-5.0391,5.79009h-20.2812V249.148h20.2812Z" fill="#fff"/><path d="M1305.788,274.648h-24.1523v4.1709q0,6.6885-7.1094,6.6904h-3.9902l-1.4707-3.6904h5.5801q2.94135,0,2.9414-2.7002V274.648h-26.3418v-3.75h26.3418v-2.5801a37.45211,37.45211,0,0,0,8.9687-4.3799h-22.9804V260.4878h29.6406v3.26962a91.59051,91.59051,0,0,1-11.5801,6.5107v.6299h24.1523Zm-2.5214-11.1299h-3.5997v-6.21h-41.9101v6.5694h-3.9316v-10.0791h5.1621V235.4976q4.25685-.419,9.3281-4.0498l1.9805,2.7597a17.64668,17.64668,0,0,1-7.4395,3.8106v2.5195h7.6797v3.12013h-7.6797v3.2705h7.6797v3.05957h-7.6797v3.81062h31.8906V249.9878h-7.3203v-3h7.3203v-3.50967h-7.2597V240.4175h7.2597V237.148h-8.4902v-3.6299h12.2988v20.2197h4.711Zm-17.0098-23.28032-2.1016,2.57913a31.92435,31.92435,0,0,0-4.6504-3.56933,35.84469,35.84469,0,0,1-5.4589,3.75l-2.461-2.15923a23.76228,23.76228,0,0,0,5.1016-2.8203,52.52967,52.52967,0,0,0-5.9102-1.9209l1.5293-2.7598a55.24092,55.24092,0,0,1,6.6895,2.1602,25.59852,25.59852,0,0,0,3.5722-4.1104l2.5196,2.0108a19.06344,19.06344,0,0,1-3.1211,3.6299A22.38935,22.38935,0,0,1,1286.25682,240.2378Zm.3594,10.91993-2.5196,1.98049a27.85875,27.85875,0,0,0-5.039-3.09079,32.45119,32.45119,0,0,1-5.7617,3.09079l-2.2793-1.80079a29.67919,29.67919,0,0,0,5.5507-3.1797,30.49713,30.49713,0,0,0-5.1015-2.3398l2.25-1.8906a37.4267,37.4267,0,0,1,5.2793,2.31047,25.56321,25.56321,0,0,0,3.3906-2.87987l2.7598,1.4102a15.05723,15.05723,0,0,1-3.42,3.2695A22.28012,22.28012,0,0,1,1286.61622,251.15773Z" fill="#fff"/><path d="M1387.94336,282.50832h-54.5996v-3.8691h25.4394v-14.0713h-18.33V260.6978h18.33V248.45753h-13.5898a31.93138,31.93138,0,0,1-8.2207,11.79009l-3.959-2.0703a33.146,33.146,0,0,0,10.9492-22.25982l4.0508,1.1699a45.00407,45.00407,0,0,1-1.4121,7.56063h12.123V231.5074h4.0489v13.08h21.1797v3.8701h-21.1797v12.18069h18.0605v3.8692h-18.0605v14.0712h25.1699Z" fill="#fff"/><path d="M1470.5205,245.33743l-2.1582,3.1201q-10.23045-2.5194-16.0215-5.8193v2.6992h-20.2812v-2.9697a60.77845,60.77845,0,0,1-15.7188,5.9102l-1.9804-3.1504q16.8603-4.11045,28.0801-13.74033l3.6894,1.2305a5.13574,5.13574,0,0,1-1.0488,1.0498Q1455.03915,241.94825,1470.5205,245.33743Zm-6.3886,17.19137h-43.5606V248.45753h43.5606Zm-3.5703,23.03912h-3.6915v-2.3994h-28.9804v2.3994h-3.6895v-19.8897h36.3614Zm-20.0118-26.2803v-7.5h-16.289v7.5Zm16.3203,13.5606v-3.8701h-28.9804v3.8701Zm0,7.08v-3.9296h-28.9804v3.9296Zm-20.3105-23.6103-3.0898,2.1602a21.60279,21.60279,0,0,0-5.459-4.17l3.1191-1.7998A15.41156,15.41156,0,0,1,1436.5596,256.31792Zm14.5508-14.30959a37.81566,37.81566,0,0,1-8.4297-6.15133,46.11793,46.11793,0,0,1-9.75,6.15133Zm9.3301,17.27929v-7.5h-16.1993v7.5Zm-3.6289-5.7295a14.30609,14.30609,0,0,1-5.3418,4.7998l-3.2989-1.6494a15.57936,15.57936,0,0,0,5.4004-4.4404Z" fill="#fff"/></g></svg>