<svg xmlns="http://www.w3.org/2000/svg" xmlns:xlink="http://www.w3.org/1999/xlink" viewBox="0 0 633.1895 693.87699"><defs><clipPath id="a"><rect x="0.001" width="633.1894" height="693.87699" fill="none"/></clipPath></defs><g clip-path="url(#a)"><text transform="translate(97.55959 624.708)" font-size="42" fill="#333e48" font-family="SourceHanSansHC-Medium-B5pc-H, Source Han Sans HC"><tspan letter-spacing="0.00358em">二零二零至二零二一年</tspan><tspan x="421.50586" y="0">度</tspan></text><path d="M77.71,170.7471a6.83656,6.83656,0,0,1,6.8379,6.8369c-.002-.1397-.0059-.2783-.0059-.419a92.623,92.623,0,0,1,92.6231-92.623,6.8379,6.8379,0,0,0,0-13.6758A106.22218,106.22218,0,0,0,70.8662,177.165c0,.1407.0039.2793.0059.419A6.83649,6.83649,0,0,1,77.71,170.7471Z" fill="#ee212e"/><path d="M170.3291,276.627a6.837,6.837,0,0,1,6.836-6.8379A92.61743,92.61743,0,0,1,84.5479,177.584a6.8379,6.8379,0,0,0-13.6758,0,106.21512,106.21512,0,0,0,106.293,105.88079A6.837,6.837,0,0,1,170.3291,276.627Z" fill="#46bc96"/><path d="M251.2647,243.70209a6.83663,6.83663,0,0,0-9.67,0,92.31425,92.31425,0,0,1-64.4296,26.087,6.83785,6.83785,0,0,0,0,13.6757,105.94936,105.94936,0,0,0,74.0996-30.0918A6.83609,6.83609,0,0,0,251.2647,243.70209Z" fill="#00c2f3"/><path d="M233.458,120.874a79.61351,79.61351,0,1,0,23.3145,56.291A79.08871,79.08871,0,0,0,233.458,120.874Z" fill="#00c2f3"/><path d="M121.0615,202.91019V151.4209h11.168v3.80659h-6.4726v43.877h6.4726v3.8057Z" fill="#333e48"/><path d="M233.2705,151.4209v51.48929h-11.164v-3.8057h6.4687v-43.877h-6.4687V151.4209Z" fill="#333e48"/><path d="M146.9971,187.625q0,1.54245.0469,3.6357.0468,2.0919.1308,4.2481.0792,2.15625.1934,4.12009.1083,1.9629.2715,3.2813H141.044V166.5459q0-4.6992-.1621-8.5117-.15825-3.8145-.4825-6.6133h6.5977Z" fill="#fff"/><path d="M175.7998,170.085v4.2168H169.749v24.39349h6.0508v4.2158H157.7783v-4.2158h5.9532V174.3018h-5.9532V170.085Z" fill="#fff"/><path d="M189.3154,170.085a11.26456,11.26456,0,0,1,.3868,1.3379q.19335.8187.3535,1.7207.15825.8994.291,1.7695l.2559,1.4473a21.20294,21.20294,0,0,1,6.2109-5.293,13.90762,13.90762,0,0,1,6.5-1.625,11.4454,11.4454,0,0,1,4.5547.8515,8.03164,8.03164,0,0,1,3.3301,2.7032,13.23586,13.23586,0,0,1,2.0449,4.7959,31.46811,31.46811,0,0,1,.6914,7.0966v14.48049a36.0149,36.0149,0,0,1-.9512,9.0274,15.45352,15.45352,0,0,1-2.6543,5.7304,9.3295,9.3295,0,0,1-4.1035,3.0225,15.25911,15.25911,0,0,1-5.3262.8857,11.47558,11.47558,0,0,1-3.1054-.4668,11.69965,11.69965,0,0,1-3.0078-1.3037l2.0917-4.8271a6.444,6.444,0,0,0,1.9786.9179,8.81006,8.81006,0,0,0,2.5254.3692,7.29035,7.29035,0,0,0,2.7695-.4981,4.61374,4.61374,0,0,0,2.0742-1.7539,9.56278,9.56278,0,0,0,1.3047-3.4433,28.36828,28.36828,0,0,0,.4492-5.5674V187.3027a39.34444,39.34444,0,0,0-.4004-6.2588,10.80525,10.80525,0,0,0-1.209-3.73341,4.00017,4.00017,0,0,0-2.0117-1.78709,8.05754,8.05754,0,0,0-2.8144-.4502,7.5512,7.5512,0,0,0-3.3946.82229,12.59522,12.59522,0,0,0-3.0429,2.12311,15.76854,15.76854,0,0,0-2.4434,2.9453,13.47054,13.47054,0,0,0-1.5781,3.2812v18.666h-5.9531v-19.792a50.21623,50.21623,0,0,0-.5489-8.0615,41.06781,41.06781,0,0,0-1.0605-4.9726Z" fill="#fff"/><path d="M129.7666,447.272H97.5576v-5.3467h32.209Zm-4.1914,56.9301h-5.5195v-5.8603H107.1826v5.8603h-5.6035v-28.9145h23.9961Zm-.2578-45.8945-23.6523.085v-5.3457h23.6523Zm.0859,11.2061H101.6651V464.167h23.7382Zm-1.0703-33.106-21.7285.086V431.147H124.333Zm-4.2773,56.6729v-12.5318h-12.959v12.5318Zm55.2617-23.4815-46.2363.0855v-5.2608H140.544l2.4804-13.2168H132.333v-5.2607h11.5489l1.8378-9.7954H129.3389v-5.3462h42.4726v5.2612H151.4932l-1.752,9.7949h17.6211l-1.8398,18.4771h9.7949ZM167.876,504.373h-5.5176v-5.7744H140.7158v5.7744h-5.6035v-28.9995H167.876Zm-5.5176-11.0356v-12.7031H140.6299v12.7031Zm-.8555-42.2158H148.7998l-2.4804,13.3022h13.8574Z" fill="#333e48"/><path d="M271.7608,447.272H194.001v-5.3467h77.7598Zm-11.4629,10.9497H204.6944v-5.1748h55.6035Zm0,11.1206H204.6944V464.167h55.6035Zm-2.0098,35.0307h-5.5176v-6.0312H212.6494v6.0312h-5.5175v-29.0854h51.1562Zm-.0859-68.5209-50.6426.1279v-5.1753h50.6426Zm-5.4317,57.2285v-12.5318H212.6494v12.5318Z" fill="#333e48"/><path d="M368.2041,488.88959H333.7725v5.9454q0,9.5376-10.1387,9.538h-5.6875l-2.0957-5.2607h7.9551q4.19235,0,4.1933-3.8496v-6.3731H290.4444V483.543H327.999v-3.6787q8.93565-3.3363,12.7872-6.2442H308.0225v-4.9194h42.2617v4.6626a131.08651,131.08651,0,0,1-16.5117,9.2812v.8985h34.4316Zm-3.5918-15.8691h-5.1347V464.167h-59.752v9.3672h-5.6035v-14.3711h7.3574v-26.0918q6.07035-.59835,13.3027-5.7739l2.8223,3.935a25.16566,25.16566,0,0,1-10.6074,5.4322v3.5932h10.9492v4.4483H306.9971v4.6621h10.9492V453.73H306.9971v5.4331h45.4668V453.73H342.0264v-4.2769h10.4375v-5.0039H342.1123v-4.3628h10.3516v-4.6626H340.3584v-5.1753h17.5371v28.8286h6.7168Zm-24.2539-33.1909-2.9922,3.6782a45.74022,45.74022,0,0,0-6.6308-5.0898,51.09473,51.09473,0,0,1-7.7852,5.3466l-3.5078-3.08a33.9053,33.9053,0,0,0,7.2734-4.02,74.69977,74.69977,0,0,0-8.4277-2.7374l2.1816-3.9355a79.06291,79.06291,0,0,1,9.5391,3.0796,36.50983,36.50983,0,0,0,5.0899-5.8594l3.5917,2.8657a27.06033,27.06033,0,0,1-4.4472,5.1753A31.92964,31.92964,0,0,1,340.3584,439.82959Zm.5137,15.5688-3.5918,2.8233a39.6644,39.6644,0,0,0-7.1856-4.4053,46.28536,46.28536,0,0,1-8.2128,4.4053l-3.25-2.5664a42.33453,42.33453,0,0,0,7.9121-4.5337,43.41656,43.41656,0,0,0-7.2715-3.3369l3.207-2.6939a53.40986,53.40986,0,0,1,7.5293,3.293,36.415,36.415,0,0,0,4.832-4.106l3.9356,2.0103a21.47211,21.47211,0,0,1-4.875,4.6626A31.83879,31.83879,0,0,1,340.8721,455.39839Z" fill="#333e48"/><path d="M464.5615,488.88959H430.1299v5.9454q0,9.5376-10.1367,9.538h-5.6895l-2.0957-5.2607h7.9551q4.19235,0,4.1914-3.8496v-6.3731H386.8018V483.543h37.5527v-3.6787q8.94135-3.3363,12.791-6.2442H404.3799v-4.9194h42.2598v4.6626a130.91491,130.91491,0,0,1-16.5098,9.2812v.8985h34.4316Zm-3.5918-15.8691H455.835V464.167H396.083v9.3672h-5.6035v-14.3711h7.3574v-26.0918q6.07335-.59835,13.3028-5.7739l2.8222,3.935a25.15354,25.15354,0,0,1-10.6074,5.4322v3.5932h10.9492v4.4483H403.3545v4.6621h10.9492V453.73H403.3545v5.4331h45.4668V453.73H438.3858v-4.2769h10.4355v-5.0039H438.4697v-4.3628h10.3516v-4.6626H436.7158v-5.1753h17.5371v28.8286h6.7168ZM438.2393,454.439l-3.8965,3.563a41.2766,41.2766,0,0,0-6.7852-8.0962q-5.73915,6.39465-9.4336,8.1367l-3.8554-3.2383q4.3476-2.06835,9.4336-7.7324a49.62319,49.62319,0,0,0-8.2442-4.4546l3.3633-3.479a66.4824,66.4824,0,0,1,7.7109,4.2104,24.437,24.437,0,0,0,2.625-6.0332H416.2783v-5.0595h6.9043v-5.21h4.4317v5.21h8.1953v5.0595h-1.6231a32.15854,32.15854,0,0,1-3.6757,8.7051A39.76035,39.76035,0,0,1,438.2393,454.439Z" fill="#333e48"/><path d="M562.3291,447.10159l-3.0781,4.4477q-14.5869-3.5925-22.8398-8.2973v3.8496H507.4951v-4.2354q-12.48915,6.4593-22.4121,8.4263l-2.8222-4.4907q24.0351-5.85945,40.0351-19.5899l5.2598,1.7534a7.26712,7.26712,0,0,1-1.4981,1.4966Q540.2578,442.26779,562.3291,447.10159Zm-9.1113,24.5078H491.1143v-20.0601h62.1035Zm-5.0879,32.8486h-5.2617v-3.4219H501.5518v3.4219h-5.2617v-28.3574h51.8398Zm-28.5293-37.4678v-10.6933H496.374v10.6933Zm23.2676,19.333v-5.5175H501.5518v5.5175Zm0,10.0943V490.814H501.5518v5.6035Zm-28.957-33.6621-4.4043,3.0796a30.82013,30.82013,0,0,0-7.7852-5.9454l4.4473-2.5659A21.99408,21.99408,0,0,1,513.9112,462.75539Zm20.746-20.4019a53.92908,53.92908,0,0,1-12.0195-8.7685,65.65183,65.65183,0,0,1-13.9004,8.7685Zm13.3028,24.6367v-10.6933H524.8623v10.6933Zm-5.1778-8.1699a20.366,20.366,0,0,1-7.6132,6.8438l-4.7051-2.3521q5.60445-3.16485,7.6992-6.331Z" fill="#333e48"/><path d="M130.169,377.35159l-1.6348,1.8808a38.19852,38.19852,0,0,1-13.9844-9.102l.0352,6.8701h8.2051v15.10985h-2.2325v-2.02H106.3428v2.02H104.042V377.00049h8.2402v-6.8701q-3.61815,5.5341-13.0722,8.6626l-1.6524-1.8628q8.38185-2.21415,11.9844-6.7998H99.544v-2.1963h12.7382V364.543q-4.1982.42255-10.5429.6152l-1.5098-2.126q14.9853-.0534,23.9297-2.5127l1.6875,1.6875a77.90545,77.90545,0,0,1-11.2617,2.0552v3.6719h12.914v2.1963l-10.0683-.0347A37.448,37.448,0,0,0,130.169,377.35159Zm-9.6114,4.93746v-3.09226h-14.25V382.289Zm0,5.64014v-3.47852h-14.25v3.47852Z" fill="#333e48"/><path d="M151.305,378.96779a34.28765,34.28765,0,0,1-5.7969,11.26365l2.0547,1.30029a33.5203,33.5203,0,0,0,5.8691-11.26274Zm-3.707-9.751-1.4766,1.8452a12.99523,12.99523,0,0,1,5.5351,4.2866l1.545-2.0903A13.22281,13.22281,0,0,0,147.598,369.21679Zm1.7207-7.8711-1.6504,1.687a10.60571,10.60571,0,0,1,5.3242,4.0757l1.6504-1.7749A10.76911,10.76911,0,0,0,149.31873,361.34569Z" fill="#333e48"/><path d="M172.28353,384.31054v-6.62545a20.41239,20.41239,0,0,0,4.5,3.2343l1.4395-1.9516a15.08889,15.08889,0,0,1-7.168-6.2188h6.0078v-2.1611h-5.7441v-4.1997h4.3378v-2.1616h-4.3378v-3.7061h-2.2325v3.7417h-6.5175v-3.7417h-2.2325v3.7417H156.014v2.1602h4.3574v4.1992h-5.7285v2.1626h5.7988q-1.9482,3.654-7.0449,6.0781l1.6504,1.9507a21.99229,21.99229,0,0,0,2.7754-1.897v9.418a2.67136,2.67136,0,0,0,3.0234,3.02149h11.5078a2.80862,2.80862,0,0,0,2.2227-.93066,7.85772,7.85772,0,0,0,1.2734-3.67139l-2.2656-1.02a6.90534,6.90534,0,0,1-.668,2.81055,1.37452,1.37452,0,0,1-1.1758.61523h-10.7187a.85357.85357,0,0,1-.9668-.9668v-3.88183Zm-9.7148-17.92235h6.5527v4.1997h-6.5527Zm.2089,6.3608h5.9746a14.59511,14.59511,0,0,0,2.5997,3.9893h-11.1563A12.36961,12.36961,0,0,0,162.77763,372.749Zm-2.7226,6.1494h9.998v3.28568h-9.998Z" fill="#333e48"/><path d="M226.03291,390.354l-1.6348,1.82666q-10.98045-5.99048-13.9511-20.18746-3.671,14.42572-14.9688,20.18746l-1.7754-2.09033q11.1915-5.447,14.1797-18.062h-11.9473v-2.2666h12.211a89.82307,89.82307,0,0,0,.2812-9.2422l2.4414.3516q.0879,5.376-.2109,8.8555h13.3184v2.2666h-11.086Q214.99676,384.029,226.03291,390.354Z" fill="#333e48"/><path d="M273.84183,385.78563h-14.1446v2.44288q0,3.917-4.164,3.918h-2.3379l-.8594-2.16113h3.2676q1.71975,0,1.7207-1.58154v-2.61817h-15.4258v-2.19628h15.4258v-1.51124a21.91044,21.91044,0,0,0,5.2539-2.56492h-13.459v-2.021h17.3594v1.915a53.589,53.589,0,0,1-6.7813,3.813v.36915h14.1446Zm-1.4766-6.51854h-2.1074v-3.6372h-24.5469v3.8476h-2.3008v-5.9028h3.0215v-10.7183a11.63935,11.63935,0,0,0,5.4649-2.372l1.1582,1.6167a10.32808,10.32808,0,0,1-4.3575,2.2314v1.4756h4.4981v1.8276h-4.4981v1.9151h4.4981v1.792h-4.4981v2.2319H267.375v-2.2319h-4.2871v-1.7569h4.2871v-2.0556h-4.252v-1.7925h4.252v-1.9146h-4.9727v-2.1259h7.2051v11.8418h2.7578Zm-9.9629-13.6343-1.2304,1.5103a18.58992,18.58992,0,0,0-2.7227-2.0904,20.892,20.892,0,0,1-3.1973,2.1963l-1.4414-1.2646a13.87317,13.87317,0,0,0,2.9864-1.6519,30.71387,30.71387,0,0,0-3.461-1.125l.8965-1.6162a32.41476,32.41476,0,0,1,3.918,1.2651,14.94736,14.94736,0,0,0,2.0918-2.4072l1.4765,1.1778a11.2229,11.2229,0,0,1-1.8281,2.1259A13.09437,13.09437,0,0,1,262.40233,365.63279Zm.211,6.3955-1.4747,1.1597a16.28686,16.28686,0,0,0-2.9531-1.8101,18.9329,18.9329,0,0,1-3.373,1.8101l-1.336-1.0547a17.36869,17.36869,0,0,0,3.252-1.8623,17.81843,17.81843,0,0,0-2.9883-1.3701l1.3184-1.1074a21.86788,21.86788,0,0,1,3.0918,1.353,14.93935,14.93935,0,0,0,1.9863-1.6865l1.6152.8261a8.77907,8.77907,0,0,1-2.0019,1.9146A13.04147,13.04147,0,0,1,262.61333,372.02829Z" fill="#333e48"/><path d="M322.30016,389.87938l-1.5469,2.05616a41.96692,41.96692,0,0,1-14.5117-7.09864q-4.79895,3.91846-15.0762,7.23926l-1.7207-2.09082q9.94335-2.75831,15.0391-6.69433a23.93489,23.93489,0,0,1-6.8692-11.75492,19.36722,19.36722,0,0,1-2.6015,4.6387l-1.8614-1.7041a23.187,23.187,0,0,0,3.5664-5.7812h-6.0449v-2.1607H304.767v-6.0093h2.2656v5.9737h14.3359v2.1616h-6.0097q-1.5792,9.17205-7.2735,14.60057Q313.26791,387.19139,322.30016,389.87938Zm-9.295-21.22459h-13.5976a22.1407,22.1407,0,0,0,6.8691,13.08983A22.46321,22.46321,0,0,0,313.00516,368.65479Z" fill="#333e48"/><path d="M369.84634,385.78563h-14.1464v2.44288q0,3.917-4.1641,3.918h-2.3359l-.8614-2.16113h3.2676q1.72275,0,1.7227-1.58154v-2.61817H337.903v-2.19628h15.4258v-1.51124a21.9276,21.9276,0,0,0,5.2519-2.56492h-13.457v-2.021h17.3594v1.915a53.774,53.774,0,0,1-6.7832,3.813v.36915h14.1464Zm-1.4765-6.51854h-2.1094v-3.6372h-24.5469v3.8476h-2.3007v-5.9028h3.0214v-10.7183a11.6364,11.6364,0,0,0,5.4668-2.372l1.1582,1.6167a10.33577,10.33577,0,0,1-4.3593,2.2314v1.4756h4.5v1.8276h-4.5v1.9151h4.5v1.792h-4.5v2.2319h18.6797v-2.2319h-4.2891v-1.7569h4.2891v-2.0556h-4.252v-1.7925h4.252v-1.9146h-4.9727v-2.1259H365.61v11.8418h2.7598Zm-9.9629-13.6343-1.2305,1.5103a18.79173,18.79173,0,0,0-2.7226-2.0904,21.01057,21.01057,0,0,1-3.1992,2.1963l-1.4395-1.2646a13.96152,13.96152,0,0,0,2.9863-1.6519,30.9707,30.9707,0,0,0-3.4609-1.125l.8965-1.6162a32.63654,32.63654,0,0,1,3.9179,1.2651,14.92639,14.92639,0,0,0,2.0899-2.4072l1.4765,1.1778a11.2085,11.2085,0,0,1-1.8261,2.1259A13.15639,13.15639,0,0,1,358.40694,365.63279Zm.2109,6.3955-1.4765,1.1597a16.27638,16.27638,0,0,0-2.9512-1.8101,18.96927,18.96927,0,0,1-3.375,1.8101l-1.3359-1.0547a17.30338,17.30338,0,0,0,3.2519-1.8623,17.85281,17.85281,0,0,0-2.9863-1.3701l1.3164-1.1074a21.997,21.997,0,0,1,3.0937,1.353,14.831,14.831,0,0,0,1.9844-1.6865l1.6172.8261a8.86134,8.86134,0,0,1-2.0019,1.9146A13.13029,13.13029,0,0,1,358.61784,372.02829Z" fill="#333e48"/><path d="M392.99422,372.46729q3.5508,3.9888,3.5508,7.7837a4.28485,4.28485,0,0,1-.959,2.93406,3.37478,3.37478,0,0,1-2.6797,1.08984,13.95309,13.95309,0,0,1-2.2832-.228l-.6504-2.3374a12.69791,12.69791,0,0,0,2.7051.47461,1.78689,1.78689,0,0,0,1.248-.52734,1.83425,1.83425,0,0,0,.5625-1.40574,8.44111,8.44111,0,0,0-.9648-3.3736,13.47459,13.47459,0,0,0-2.9004-3.9174l3.4258-8.8038h-5.2168v27.99028h-2.3028V361.92529h9.8555v2.2309Zm24.2304,13.23094a12.13379,12.13379,0,0,1-1.2304,4.12842,2.70912,2.70912,0,0,1-2.5117,1.2832h-2.7403q-2.74215,0-2.7422-2.88134v-9.29492h-3.707q-.10545,5.65722-2.2051,8.47753-2.1006,2.81984-7.7929,4.73535l-1.4766-2.021q5.2881-1.563,7.2578-4.04151,1.96875-2.477,1.9844-7.11528h-4.8145v-2.3022h18.8203v2.2671h-5.8711v8.75a1.34049,1.34049,0,0,0,.2813.8169.81655.81655,0,0,0,.668.37744h2.2324q.6855,0,1.0449-1.12451a17.90637,17.90637,0,0,0,.6074-2.91651Zm-2.0214-15.93654-2.2305.0352v-3.0928h-13.2481v3.0928h-2.2675v-5.3242H405.17v-3.9883h2.3027v3.9536h7.7305Zm-2.9512,3.3906H400.375v-2.3012h11.877Z" fill="#333e48"/><path d="M465.85089,385.78563h-14.1445v2.44288q0,3.917-4.164,3.918h-2.336l-.8613-2.16113h3.2676q1.7226,0,1.7226-1.58154v-2.61817h-15.4277v-2.19628h15.4277v-1.51124a21.92871,21.92871,0,0,0,5.252-2.56492h-13.459v-2.021h17.3594v1.915a53.589,53.589,0,0,1-6.7813,3.813v.36915h14.1445Zm-1.4765-6.51854H462.267v-3.6372H437.722v3.8476h-2.3027v-5.9028h3.0234v-10.7183a11.64077,11.64077,0,0,0,5.4629-2.372l1.1602,1.6167a10.35131,10.35131,0,0,1-4.3574,2.2314v1.4756h4.498v1.8276h-4.498v1.9151h4.498v1.792h-4.498v2.2319h18.6757v-2.2319H455.097v-1.7569h4.2871v-2.0556h-4.25v-1.7925h4.25v-1.9146h-4.9707v-2.1259h7.2032v11.8418h2.7578Zm-9.961-13.6343-1.2324,1.5103a18.68675,18.68675,0,0,0-2.7226-2.0904,20.99075,20.99075,0,0,1-3.1973,2.1963l-1.4414-1.2646a13.93456,13.93456,0,0,0,2.9883-1.6519,30.96452,30.96452,0,0,0-3.461-1.125l.8946-1.6162a32.40767,32.40767,0,0,1,3.9179,1.2651,14.94241,14.94241,0,0,0,2.0918-2.4072l1.4766,1.1778a11.22652,11.22652,0,0,1-1.8281,2.1259A13.10181,13.10181,0,0,1,454.41339,365.63279Zm.209,6.3955-1.4746,1.1597a16.3418,16.3418,0,0,0-2.9512-1.8101,19.04009,19.04009,0,0,1-3.375,1.8101l-1.3339-1.0547a17.40859,17.40859,0,0,0,3.25-1.8623,17.81843,17.81843,0,0,0-2.9883-1.3701l1.3183-1.1074a21.86276,21.86276,0,0,1,3.0918,1.353,14.931,14.931,0,0,0,1.9864-1.6865l1.6152.8261a8.77947,8.77947,0,0,1-2.002,1.9146A12.9926,12.9926,0,0,1,454.62239,372.02829Z" fill="#333e48"/><path d="M513.96747,390.38915H481.989V388.123h14.9004v-8.24125h-10.7363v-2.2666h10.7363v-7.1684h-7.9609a18.66438,18.66438,0,0,1-4.8145,6.9048l-2.3184-1.2124a19.412,19.412,0,0,0,6.4141-13.0367l2.3711.6851a26.38774,26.38774,0,0,1-.8262,4.4282h7.0996v-7.6963h2.3711v7.6607h12.4043v2.2666h-12.4043v7.1338h10.5782v2.2661h-10.5782v8.2407h14.7422Z" fill="#333e48"/><path d="M562.3291,368.61909l-1.2637,1.8277a37.4875,37.4875,0,0,1-9.3828-3.4082v1.5805H539.8037v-1.7392a35.57986,35.57986,0,0,1-9.205,3.4614l-1.1602-1.8452a38.95,38.95,0,0,0,16.4453-8.0469l2.1621.7207a3.02923,3.02923,0,0,1-.6152.6148A34.40119,34.40119,0,0,0,562.3291,368.61909Zm-3.7402,10.0684H533.0772v-8.2407h25.5117Zm-2.0918,13.49316H554.335v-1.40527H537.3623v1.40527h-2.1601V380.53219h21.2949Zm-11.7207-15.39106V372.397h-9.5391v4.3926Zm9.5586,7.94185v-2.26661H537.3623v2.26661Zm0,4.14648v-2.30127H537.3623v2.30127Zm-11.8946-13.82763-1.8105,1.2651a12.61689,12.61689,0,0,0-3.1973-2.4424l1.8282-1.0537A9.02236,9.02236,0,0,1,542.4404,375.05029Zm8.5215-8.3809a22.1319,22.1319,0,0,1-4.9375-3.6025,26.99559,26.99559,0,0,1-5.709,3.6025Zm5.4649,10.1202V372.397h-9.4883v4.3926Zm-2.125-3.3555a8.38915,8.38915,0,0,1-3.1289,2.811l-1.9317-.9658a9.12774,9.12774,0,0,0,3.1621-2.6011Z" fill="#333e48"/></g></svg>