<svg xmlns="http://www.w3.org/2000/svg" xmlns:xlink="http://www.w3.org/1999/xlink" viewBox="0 0 633.1934 1102.7764"><defs><clipPath id="a"><rect width="633.1934" height="1102.7764" fill="none"/></clipPath></defs><g clip-path="url(#a)"><path d="M77.7109,170.7481a6.83649,6.83649,0,0,1,6.8379,6.8369c-.0019-.1396-.0058-.2783-.0058-.4189A92.623,92.623,0,0,1,177.166,84.543a6.8379,6.8379,0,0,0,0-13.6758A106.22218,106.22218,0,0,0,70.8672,177.1661c0,.1406.0039.2793.0054.4189A6.8369,6.8369,0,0,1,77.7109,170.7481Z" fill="#5a5c66"/><path d="M170.3301,276.628a6.83692,6.83692,0,0,1,6.8359-6.8379A92.6175,92.6175,0,0,1,84.5488,177.585a6.8381,6.8381,0,0,0-13.6762,0A106.216,106.216,0,0,0,177.166,283.4659,6.837,6.837,0,0,1,170.3301,276.628Z" fill="#858591"/><path d="M251.2656,243.7032a6.83651,6.83651,0,0,0-9.6699,0,92.31538,92.31538,0,0,1-64.4297,26.0869,6.8379,6.8379,0,0,0,0,13.6758,105.95051,105.95051,0,0,0,74.0996-30.0918A6.83591,6.83591,0,0,0,251.2656,243.7032Z" fill="#9f9ea7"/><path d="M233.4587,120.875a79.613,79.613,0,1,0,23.3147,56.2911A79.08791,79.08791,0,0,0,233.4587,120.875Z" fill="#9f9ea7"/><path d="M121.0625,202.9112V151.4219h11.168v3.8067h-6.4727v43.8769h6.4727v3.8057Z" fill="#333e48"/><path d="M233.2715,151.4219v51.4893H222.1074v-3.8057h6.4688V155.2286h-6.4688v-3.8067Z" fill="#333e48"/><path d="M146.998,187.626q0,1.54245.0469,3.6358.04695,2.09175.1309,4.248.079,2.15625.1933,4.1201.10845,1.9629.2715,3.2813h-6.5957V166.5469q0-4.6992-.1621-8.5117-.15825-3.8145-.4824-6.6133h6.5976Z" fill="#fff"/><path d="M175.8008,170.086v4.2168H169.75v24.3935h6.0508v4.2158H157.7793v-4.2158h5.9531V174.3028h-5.9531V170.086Z" fill="#fff"/><path d="M189.3164,170.086a11.2858,11.2858,0,0,1,.3867,1.3379q.19335.81885.3535,1.7207.15825.8994.2911,1.7695l.2558,1.4473a21.20473,21.20473,0,0,1,6.211-5.293,13.90733,13.90733,0,0,1,6.5-1.625,11.44349,11.44349,0,0,1,4.5546.8516,8.03077,8.03077,0,0,1,3.3301,2.7031,13.23662,13.23662,0,0,1,2.0449,4.7959,31.46326,31.46326,0,0,1,.6914,7.0967v14.4804a36.01541,36.01541,0,0,1-.9511,9.0274,15.45434,15.45434,0,0,1-2.6543,5.7304,9.33006,9.33006,0,0,1-4.1035,3.0225,15.2595,15.2595,0,0,1-5.3262.8857,11.47985,11.47985,0,0,1-3.1055-.4667,11.70631,11.70631,0,0,1-3.0078-1.3038l2.0918-4.8271a6.44448,6.44448,0,0,0,1.9785.918,8.81046,8.81046,0,0,0,2.5254.3691,7.29193,7.29193,0,0,0,2.7695-.498,4.61432,4.61432,0,0,0,2.0743-1.754,9.561,9.561,0,0,0,1.3046-3.4433,28.38207,28.38207,0,0,0,.4493-5.5674V187.3037a39.34228,39.34228,0,0,0-.4004-6.2587,10.80576,10.80576,0,0,0-1.209-3.7334,4.00081,4.00081,0,0,0-2.0117-1.7871,8.05581,8.05581,0,0,0-2.8145-.4502,7.55054,7.55054,0,0,0-3.3945.8222,12.59543,12.59543,0,0,0-3.043,2.1231,15.76805,15.76805,0,0,0-2.4433,2.9453,13.47467,13.47467,0,0,0-1.5782,3.2812v18.666h-5.9531V183.1202a50.23131,50.23131,0,0,0-.5488-8.0616,41.06407,41.06407,0,0,0-1.0606-4.9726Z" fill="#fff"/><path d="M129.7666,426.045H97.5586v-5.3467h32.208Zm-4.1914,56.9296h-5.5186v-5.8603h-12.874v5.8603h-5.6035v-28.914h23.9961Zm-.2578-45.8945-23.6524.085v-5.3457h23.6524Zm.0859,11.2061H101.665v-5.3467h23.7383Zm-1.0693-33.1055-21.7285.0859V409.919H124.334Zm-4.2774,56.6719V459.3213H107.0967v12.5313Zm55.2618-23.4815-46.2373.086v-5.2608h11.4628l2.4815-13.2168H132.333v-5.2607h11.5488l1.8379-9.7959H129.3389v-5.3457h42.4726v5.2617H151.4941l-1.7529,9.7949h17.6221l-1.8399,18.4766h9.795Zm-7.4424,34.7744h-5.5176v-5.7744H140.7158v5.7744h-5.6035v-29H167.876Zm-5.5176-11.0351V459.4073H140.6299v12.7031Zm-.8555-42.2158H148.7998l-2.4805,13.3017h13.8575Z" fill="#333e48"/><path d="M271.7607,426.045H194.001v-5.3467h77.7597Zm-11.4628,10.9492H204.6943v-5.1748h55.6036Zm0,11.1201H204.6943v-5.1748h55.6036Zm-2.0098,35.0312h-5.5176v-6.0312H212.6494v6.0312h-5.5176V454.0606h51.1563Zm-.086-68.5205-50.6425.128v-5.1758h50.6425Zm-5.4316,57.2276V459.3213H212.6494v12.5313Z" fill="#333e48"/><path d="M368.2051,467.6621H333.7725v5.9454q0,9.5376-10.1377,9.538h-5.6885l-2.0957-5.2607h7.9551q4.19235,0,4.1931-3.8496v-6.3731H290.4443v-5.3466h37.5545v-3.6787q8.937-3.337,12.7883-6.2442H308.0225v-4.9189h42.2617v4.6621a131.03668,131.03668,0,0,1-16.5117,9.2812v.8985h34.4326Zm-3.5928-15.8691h-5.1348v-8.8535H299.7266v9.3672h-5.6045V437.9356h7.3574V411.8438q6.0717-.5976,13.3027-5.7744l2.8233,3.9355a25.16482,25.16482,0,0,1-10.6084,5.4317v3.5937h10.9492v4.4483H306.9971v4.6621h10.9492v4.3623H306.9971v5.4326h45.4668V432.503H342.0273v-4.2774h10.4366v-5.0039H342.1123v-4.3623h10.3516v-4.6631H340.3594v-5.1758h17.5361v28.8291h6.7168Zm-24.2529-33.1904-2.9932,3.6777a45.68478,45.68478,0,0,0-6.6308-5.0898,51.066,51.066,0,0,1-7.7852,5.3466l-3.5068-3.08a33.89806,33.89806,0,0,0,7.2724-4.0205,74.76234,74.76234,0,0,0-8.4277-2.7364l2.1826-3.9355a78.89966,78.89966,0,0,1,9.5381,3.0791,36.45416,36.45416,0,0,0,5.0898-5.8594l3.5928,2.8662a27.11609,27.11609,0,0,1-4.4482,5.1748A31.97254,31.97254,0,0,1,340.3594,418.6026Zm.5127,15.5683-3.5918,2.8233a39.62728,39.62728,0,0,0-7.1856-4.4053,46.213,46.213,0,0,1-8.2129,4.4053l-3.25-2.5664a42.4379,42.4379,0,0,0,7.9131-4.5332,43.386,43.386,0,0,0-7.2724-3.3369l3.208-2.6944a53.50666,53.50666,0,0,1,7.5283,3.293,36.41307,36.41307,0,0,0,4.832-4.1065l3.9356,2.0108a21.45614,21.45614,0,0,1-4.875,4.6631A31.79392,31.79392,0,0,1,340.8721,434.1709Z" fill="#333e48"/><path d="M464.5615,467.6621H430.1299v5.9454q0,9.5376-10.1367,9.538h-5.6895l-2.0959-5.2607h7.9563q4.19055,0,4.1914-3.8496v-6.3731H386.8018v-5.3466h37.5537v-3.6787q8.93985-3.337,12.79-6.2442H404.3809v-4.9189h42.2597v4.6621a130.92506,130.92506,0,0,1-16.5107,9.2812v.8985h34.4316Zm-3.5918-15.8691h-5.135v-8.8535H396.0828v9.3672h-5.6023V437.9356h7.3564V411.8438q6.0732-.5976,13.3027-5.7744l2.8223,3.9355a25.14178,25.14178,0,0,1-10.6074,5.4317v3.5937h10.9492v4.4483H403.3545v4.6621h10.9492v4.3623H403.3545v5.4326h45.4668V432.503H438.3857v-4.2774h10.4356v-5.0039H438.4697v-4.3623h10.3516v-4.6631H436.7158v-5.1758h17.5371v28.8291h6.7168Zm-22.7304-18.581-3.8965,3.5625a41.26257,41.26257,0,0,0-6.7852-8.0958q-5.7393,6.394-9.4328,8.1368l-3.8562-3.2383q4.34715-2.06835,9.4335-7.7324a49.59,49.59,0,0,0-8.2443-4.4551l3.3645-3.4785a66.38343,66.38343,0,0,1,7.7109,4.2099,24.47219,24.47219,0,0,0,2.624-6.0332H416.2783v-5.0595h6.9043v-5.21h4.4317v5.21h8.1953v5.0595h-1.6231a32.19166,32.19166,0,0,1-3.6748,8.7051A39.75738,39.75738,0,0,1,438.2393,433.212Z" fill="#333e48"/><path d="M562.3301,425.8741l-3.0794,4.4472q-14.58645-3.59175-22.8396-8.2968v3.8496h-28.915v-4.2354q-12.4893,6.46005-22.4133,8.4268l-2.8221-4.4912q24.03675-5.85945,40.0352-19.5899l5.2598,1.7529a7.27423,7.27423,0,0,1-1.4971,1.4971Q540.2588,421.03955,562.3301,425.8741Zm-9.1114,24.5078H491.1143V430.3213h62.1044Zm-5.0888,32.8486h-5.2608v-3.4219H501.5518v3.4219H496.29V454.8731h51.8399Zm-28.5293-37.4678V435.0694H496.3748v10.6933Zm23.2685,19.333v-5.5175H501.5518v5.5175Zm0,10.0948V469.587H501.5518v5.6035Zm-28.957-33.6621-4.4053,3.0791a30.80417,30.80417,0,0,0-7.7851-5.9454l4.4482-2.5654A21.99751,21.99751,0,0,1,513.9121,441.5284Zm20.7451-20.4024a53.9268,53.9268,0,0,1-12.0195-8.7685,65.65183,65.65183,0,0,1-13.9004,8.7685Zm13.303,24.6367V435.0694H524.8623v10.6933Zm-5.177-8.1699a20.3691,20.3691,0,0,1-7.6133,6.8438l-4.7051-2.3516q5.6046-3.1656,7.6983-6.332Z" fill="#333e48"/><path d="M130.1689,356.1241l-1.6337,1.8808a38.20323,38.20323,0,0,1-13.9854-9.1015l.0352,6.8691h8.205v15.1104h-2.2314v-2.0206H106.3437v2.0206H104.042V355.7725h8.2402v-6.8691q-3.61815,5.5341-13.0722,8.6621l-1.6514-1.8633q8.38035-2.2134,11.9834-6.7988H99.5439v-2.1973h12.7383v-3.3906q-4.1982.4218-10.542.6152l-1.5107-2.126q14.9868-.05415,23.9307-2.5127l1.6865,1.6875a77.886,77.886,0,0,1-11.2617,2.0547v3.6719h12.914v2.1973l-10.0683-.0352A37.45012,37.45012,0,0,0,130.1689,356.1241Zm-9.6103,4.9375v-3.0918h-14.25v3.0918Zm0,5.6406v-3.4785h-14.25v3.4785Z" fill="#333e48"/><path d="M151.30593,357.7403a34.30519,34.30519,0,0,1-5.7978,11.2636l2.0547,1.2998a33.515,33.515,0,0,0,5.8691-11.2617Zm-3.708-9.751-1.4765,1.8457a12.99792,12.99792,0,0,1,5.5361,4.2861l1.5449-2.0908A13.22457,13.22457,0,0,0,147.59793,347.9893Zm1.7207-7.8711-1.6504,1.6875a10.59639,10.59639,0,0,1,5.3243,4.0752l1.6504-1.7744A10.76,10.76,0,0,0,149.31863,340.1182Z" fill="#333e48"/><path d="M172.28353,363.083v-6.625a20.4423,20.4423,0,0,0,4.5,3.2344l1.4404-1.9521a15.08906,15.08906,0,0,1-7.1689-6.2188h6.0078v-2.1611h-5.7442v-4.1992h4.3389v-2.1621h-4.3389V339.293h-2.2324v3.7412h-6.5176V339.293h-2.2324v3.7412h-4.3223v2.1612h4.3575v4.1992h-5.7285v2.1621h5.7988q-1.9482,3.65475-7.0449,6.0781l1.6504,1.9502a21.99759,21.99759,0,0,0,2.7763-1.8965v9.418a2.67111,2.67111,0,0,0,3.0225,3.0215h11.5078a2.80394,2.80394,0,0,0,2.2226-.9307,7.86572,7.86572,0,0,0,1.2745-3.6709l-2.2666-1.0205a6.91334,6.91334,0,0,1-.667,2.8105,1.3751,1.3751,0,0,1-1.1768.6153h-10.7187a.85314.85314,0,0,1-.9659-.9668V363.083Zm-9.7149-17.9218h6.5528v4.1992h-6.5528Zm.209,6.3603h5.9746a14.56626,14.56626,0,0,0,2.6006,3.9893h-11.1572A12.366,12.366,0,0,0,162.77763,351.5215Zm-2.7217,6.1494h9.9971v3.2852h-9.9971Z" fill="#333e48"/><path d="M226.03337,369.127l-1.6338,1.8262q-10.982-5.9898-13.9512-20.1875-3.6723,14.4258-14.9697,20.1875l-1.7754-2.0909q11.19285-5.4462,14.1797-18.0615h-11.9473v-2.2666h12.211a89.82307,89.82307,0,0,0,.2812-9.2422l2.4424.3516q.0864,5.376-.2109,8.8555h13.3183v2.2666h-11.0869Q214.99872,362.8023,226.03337,369.127Z" fill="#333e48"/><path d="M273.8423,364.5586H259.6975v2.4424q0,3.917-4.1641,3.918h-2.3369l-.8601-2.1611h3.2676q1.7211,0,1.7214-1.5811v-2.6182H241.8989v-2.1963h15.4265v-1.5117a21.97013,21.97013,0,0,0,5.2542-2.5644h-13.459v-2.0215h17.3593v1.915a53.58607,53.58607,0,0,1-6.7824,3.8135v.3691h14.1448Zm-1.4759-6.5185h-2.1081v-3.6377H245.7114V358.25h-2.3008v-5.9033h3.0215V341.6289a11.62536,11.62536,0,0,0,5.4648-2.372l1.1592,1.6172a10.34584,10.34584,0,0,1-4.3574,2.2304v1.4756h4.4978v1.8281h-4.4978v1.9151h4.4978v1.792h-4.4978v2.2314h18.6777v-2.2314h-4.2871v-1.7569h4.2871v-2.0556h-4.2519v-1.792h4.2519v-1.9151h-4.9726v-2.1259h7.2041v11.8418h2.7585Zm-9.9626-13.6348-1.2305,1.5098a18.7169,18.7169,0,0,0-2.7229-2.0899,20.89807,20.89807,0,0,1-3.198,2.1963l-1.4404-1.2646a13.92374,13.92374,0,0,0,2.9863-1.6524,31.0479,31.0479,0,0,0-3.4609-1.125l.8965-1.6152a32.535,32.535,0,0,1,3.9179,1.2646,14.98362,14.98362,0,0,0,2.0908-2.4072l1.4766,1.1778a11.18677,11.18677,0,0,1-1.8281,2.1259A13.12071,13.12071,0,0,1,262.4038,344.4053Zm.2107,6.3955-1.4754,1.1602a16.29222,16.29222,0,0,0-2.9521-1.8106,18.98174,18.98174,0,0,1-3.374,1.8106l-1.335-1.0557a17.37669,17.37669,0,0,0,3.251-1.8613,17.91062,17.91062,0,0,0-2.9876-1.3711l1.3177-1.1074a21.93135,21.93135,0,0,1,3.0927,1.3535,15.01527,15.01527,0,0,0,1.9854-1.6865l1.6162.8261a8.82291,8.82291,0,0,1-2.0029,1.9151A13.01933,13.01933,0,0,1,262.6145,350.8008Z" fill="#333e48"/><path d="M322.30108,368.6514l-1.5469,2.0566a41.96341,41.96341,0,0,1-14.5127-7.0986q-4.7988,3.91845-15.0761,7.2393l-1.7207-2.0908q9.94335-2.75835,15.04-6.6944a23.93451,23.93451,0,0,1-6.8701-11.7549,19.36421,19.36421,0,0,1-2.6016,4.6387l-1.8603-1.7041a23.22172,23.22172,0,0,0,3.5654-5.7812h-6.0449v-2.1602h14.0935V339.292h2.2659v5.9737h14.3369v2.1621h-6.0098q-1.58055,9.1713-7.2744,14.6006Q313.26943,365.9629,322.30108,368.6514Zm-9.2959-21.2236h-13.5976a22.14273,22.14273,0,0,0,6.8691,13.0888A22.45516,22.45516,0,0,0,313.00518,347.4278Z" fill="#333e48"/><path d="M369.84682,364.5586h-14.1465v2.4424q0,3.917-4.163,3.918h-2.337l-.8603-2.1611h3.2666q1.7226,0,1.7227-1.5811v-2.6182h-15.4258v-2.1963h15.4258v-1.5117a21.95966,21.95966,0,0,0,5.2529-2.5644h-13.458v-2.0215h17.3593v1.915a53.62958,53.62958,0,0,1-6.7832,3.8135v.3691h14.1465Zm-1.4765-6.5185h-2.1094v-3.6377H341.715V358.25h-2.3018v-5.9033h3.0225V341.6289a11.62877,11.62877,0,0,0,5.4658-2.372l1.1582,1.6172a10.34222,10.34222,0,0,1-4.3584,2.2304v1.4756h4.499v1.8281h-4.499v1.9151h4.499v1.792h-4.499v2.2314H363.38v-2.2314h-4.289v-1.7569h4.289v-2.0556h-4.2519v-1.792H363.38v-1.9151h-4.9729v-2.1259h7.2034v11.8418h2.7598Zm-9.9632-13.6348-1.2302,1.5098a18.72871,18.72871,0,0,0-2.7226-2.0899,21.01484,21.01484,0,0,1-3.1983,2.1963l-1.4404-1.2646a13.94791,13.94791,0,0,0,2.9863-1.6524,31.18224,31.18224,0,0,0-3.4609-1.125l.8965-1.6152a32.56081,32.56081,0,0,1,3.9177,1.2646,14.87386,14.87386,0,0,0,2.0901-2.4072l1.4765,1.1778a11.2085,11.2085,0,0,1-1.8261,2.1259A13.16635,13.16635,0,0,1,358.40712,344.4053Zm.2112,6.3955-1.4765,1.1602a16.22067,16.22067,0,0,0-2.9512-1.8106,19.01529,19.01529,0,0,1-3.374,1.8106l-1.336-1.0557a17.26941,17.26941,0,0,0,3.251-1.8613,17.88773,17.88773,0,0,0-2.9863-1.3711l1.3173-1.1074a22.01221,22.01221,0,0,1,3.0926,1.3535,14.82114,14.82114,0,0,0,1.9846-1.6865l1.6172.8261a8.85444,8.85444,0,0,1-2.002,1.9151A13.088,13.088,0,0,1,358.61832,350.8008Z" fill="#333e48"/><path d="M392.9947,351.2393q3.55065,3.9903,3.5507,7.7842a4.2826,4.2826,0,0,1-.9589,2.9345,3.37434,3.37434,0,0,1-2.6788,1.0899,13.97312,13.97312,0,0,1-2.2839-.2285l-.6506-2.3379a12.66178,12.66178,0,0,0,2.706.4746,1.78824,1.78824,0,0,0,1.2481-.5274,1.83226,1.83226,0,0,0,.5625-1.4052,8.43,8.43,0,0,0-.9658-3.374,13.45881,13.45881,0,0,0-2.9002-3.917l3.4265-8.8038h-5.2178V370.919h-2.3027V340.6983h9.8565v2.2304Zm24.2304,13.2314a12.1291,12.1291,0,0,1-1.2304,4.128,2.70742,2.70742,0,0,1-2.5118,1.2832h-2.7402q-2.7426,0-2.7412-2.8809v-9.2949h-3.708q-.10545,5.65725-2.2051,8.4775-2.1006,2.81985-7.793,4.7354l-1.4756-2.0215q5.2881-1.5615,7.2569-4.041,1.96875-2.4771,1.9853-7.1153h-4.8147v-2.3027h18.8196v2.2676h-5.8711v8.75a1.33623,1.33623,0,0,0,.2823.8164.81538.81538,0,0,0,.6679.3779h2.2315q.6855,0,1.0459-1.124a17.94749,17.94749,0,0,0,.6064-2.917Zm-2.0207-15.9365-2.2312.0352v-3.0928H399.7251v3.0928h-2.2666v-5.3242h7.7129v-3.9883h2.3027v3.9541h7.7303Zm-2.951,3.3906H400.3755v-2.3007h11.8779Z" fill="#333e48"/><path d="M465.85188,364.5586h-14.1455v2.4424q0,3.917-4.1641,3.918h-2.3359l-.8613-2.1611h3.2675q1.72275,0,1.7227-1.5811v-2.6182h-15.4277v-2.1963h15.4277v-1.5117a21.97741,21.97741,0,0,0,5.2529-2.5644h-13.459v-2.0215h17.3594v1.915a53.667,53.667,0,0,1-6.7822,3.8135v.3691h14.1455Zm-1.4775-6.5185h-2.1075v-3.6377H437.722V358.25h-2.3027v-5.9033h3.0232V341.6289a11.62356,11.62356,0,0,0,5.4631-2.372l1.1602,1.6172a10.35052,10.35052,0,0,1-4.3575,2.2304v1.4756h4.4981v1.8281h-4.4981v1.9151h4.4981v1.792h-4.4981v2.2314h18.6768v-2.2314H455.098v-1.7569h4.2871v-2.0556h-4.251v-1.792h4.251v-1.9151h-4.9717v-2.1259h7.2032v11.8418h2.7578Zm-9.961-13.6348-1.2314,1.5098a18.74055,18.74055,0,0,0-2.7237-2.0899,20.91436,20.91436,0,0,1-3.1972,2.1963l-1.4417-1.2646a13.88268,13.88268,0,0,0,2.9886-1.6524,31.1154,31.1154,0,0,0-3.461-1.125l.8946-1.6152a32.40951,32.40951,0,0,1,3.9179,1.2646,15.00055,15.00055,0,0,0,2.0928-2.4072l1.4756,1.1778a11.19038,11.19038,0,0,1-1.8281,2.1259A13.1288,13.1288,0,0,1,454.41338,344.4053Zm.21,6.3955-1.4756,1.1602a16.31659,16.31659,0,0,0-2.9512-1.8106,18.99625,18.99625,0,0,1-3.375,1.8106l-1.334-1.0557a17.34773,17.34773,0,0,0,3.25-1.8613,17.90145,17.90145,0,0,0-2.9873-1.3711l1.3172-1.1074a21.85318,21.85318,0,0,1,3.092,1.3535,14.93264,14.93264,0,0,0,1.9863-1.6865l1.6163.8261a8.81715,8.81715,0,0,1-2.003,1.9151A13.00006,13.00006,0,0,1,454.62338,350.8008Z" fill="#333e48"/><path d="M513.96747,369.1621H481.99v-2.2666h14.8994v-8.2412H486.153v-2.2666h10.7364v-7.1679h-7.96a18.68557,18.68557,0,0,1-4.8144,6.9043l-2.3184-1.212a19.419,19.419,0,0,0,6.4131-13.0371l2.3711.6856a26.40363,26.40363,0,0,1-.8262,4.4277h7.0996V339.292h2.3711v7.6602h12.4043v2.2676h-12.4043v7.1328h10.5781v2.2666h-10.5781v8.2412h14.7422Z" fill="#333e48"/><path d="M562.3301,347.3916l-1.2647,1.8282a37.54216,37.54216,0,0,1-9.3828-3.4082v1.58H539.8047v-1.7392a35.6243,35.6243,0,0,1-9.2061,3.4619l-1.1601-1.8457a38.95991,38.95991,0,0,0,16.4463-8.0469l2.1611.7207a3.02713,3.02713,0,0,1-.6152.6153A34.40951,34.40951,0,0,0,562.3301,347.3916ZM558.5889,357.46H533.0771v-8.2402h25.5118Zm-2.0918,13.4932h-2.1624v-1.4053H537.3623v1.4053h-2.1602V359.3047h21.295Zm-11.7198-15.3916V351.169h-9.54v4.3926Zm9.5574,7.9423v-2.2666H537.3623v2.2666Zm0,4.1465v-2.3017H537.3623v2.3017Zm-11.8943-13.8271-1.8095,1.2646a12.657,12.657,0,0,0-3.1973-2.4424l1.8271-1.0537A9.01671,9.01671,0,0,1,542.4404,353.8233Zm8.5215-8.3809a22.16431,22.16431,0,0,1-4.9365-3.6035,27.03172,27.03172,0,0,1-5.71,3.6035Zm5.4649,10.1192V351.169h-9.4873v4.3926Zm-2.125-3.3555a8.37826,8.37826,0,0,1-3.1289,2.8115l-1.9317-.9658a9.12268,9.12268,0,0,0,3.1621-2.6016Z" fill="#333e48"/><path d="M105.4268,628.5459V560.7911h8.1543v60.5722h28.83v7.1826Z" fill="#333e48"/><path d="M157.165,566.712a4.73991,4.73991,0,0,1-3.6406-1.2129,4.47319,4.47319,0,0,1-1.1152-3.1543v-1.2627a4.47622,4.47622,0,0,1,1.1152-3.1543,6.06635,6.06635,0,0,1,7.2813,0,4.48133,4.48133,0,0,1,1.1162,3.1543v1.2627a4.47829,4.47829,0,0,1-1.1162,3.1543A4.743,4.743,0,0,1,157.165,566.712Zm-3.8828,11.746h7.7657v50.0879h-7.7657Z" fill="#333e48"/><path d="M177.5498,628.5459V578.458h7.7656v8.0616h.3887a16.33,16.33,0,0,1,5.1934-6.7266q3.3486-2.4975,8.9782-2.499,7.767,0,12.2805,4.998,4.5129,5.001,4.5137,14.125v32.1289h-7.7656V597.709q0-13.5234-11.3574-13.5244a17.47844,17.47844,0,0,0-4.5147.584,13.18133,13.18133,0,0,0-3.9306,1.7519,8.65467,8.65467,0,0,0-2.7666,2.9668,8.44236,8.44236,0,0,0-1.0196,4.2325v34.8261Z" fill="#333e48"/><path d="M272.4854,626.8965q0,10.38585-5.8243,16.3076-5.8242,5.92095-16.4052,5.9219a26.541,26.541,0,0,1-10.5323-1.9004,21.50774,21.50774,0,0,1-7.3281-5.0224l4.5613-5.3623a17.64632,17.64632,0,0,0,5.8244,3.9961,19.54231,19.54231,0,0,0,7.669,1.3964q6.79395,0,10.5312-3.7519,3.73695-3.75585,3.7383-11.0684v-6.9277h-.3886a16.48384,16.48384,0,0,1-5.8243,6.9189,16.00885,16.00885,0,0,1-8.8339,2.3077,19.04553,19.04553,0,0,1-8.4454-1.8448,17.89442,17.89442,0,0,1-6.4062-5.2412,25.22243,25.22243,0,0,1-4.0762-8.2519,41.29218,41.29218,0,0,1,0-21.7442,25.25077,25.25077,0,0,1,4.0762-8.25,17.91807,17.91807,0,0,1,6.4062-5.2422,19.045,19.045,0,0,1,8.4454-1.8437,17.04845,17.04845,0,0,1,8.9794,2.2578,14.08859,14.08859,0,0,1,5.6788,6.9678h.3886V578.458h7.7657Zm-20.4825-4.0771a17.53047,17.53047,0,0,0,4.9512-.6826,11.9969,11.9969,0,0,0,4.0273-2.001,9.98913,9.98913,0,0,0,2.7188-3.2178,9.26308,9.26308,0,0,0,1.0195-4.4394V593.8438a8.03015,8.03015,0,0,0-.9709-3.8545,9.11558,9.11558,0,0,0-2.7185-3.0723,14.0699,14.0699,0,0,0-4.0762-2,16.41738,16.41738,0,0,0-4.9512-.7324q-6.602,0-10.4834,4.1953a15.31443,15.31443,0,0,0-3.8828,10.8301v8.585a15.31042,15.31042,0,0,0,3.8828,10.8291Q245.39985,622.8193,252.0029,622.8194Z" fill="#333e48"/><path d="M319.8545,620.4854h-.3887a23.66616,23.66616,0,0,1-1.8926,3.4121,12.73644,12.73644,0,0,1-2.7656,2.9795,12.97353,12.97353,0,0,1-3.9805,2.0664,17.39168,17.39168,0,0,1-5.4355.7686q-7.768,0-12.3281-5-4.5645-4.99815-4.5628-14.1231V578.458h7.7659v30.8379q0,13.52355,11.4541,13.5235a17.34064,17.34064,0,0,0,4.5137-.584,12.49755,12.49755,0,0,0,3.8828-1.75,8.85,8.85,0,0,0,2.7175-2.9668,8.64946,8.64946,0,0,0,1.0198-4.3301V578.458h7.7656v50.0879h-7.7656Z" fill="#333e48"/><path d="M348.0049,566.712a4.73829,4.73829,0,0,1-3.6406-1.2129,4.47352,4.47352,0,0,1-1.1165-3.1543v-1.2627a4.47655,4.47655,0,0,1,1.1165-3.1543,6.0647,6.0647,0,0,1,7.2802,0,4.48088,4.48088,0,0,1,1.1162,3.1543v1.2627a4.47784,4.47784,0,0,1-1.1162,3.1543A4.74173,4.74173,0,0,1,348.0049,566.712Zm-3.8828,11.746h7.7656v50.0879h-7.7656Z" fill="#333e48"/><path d="M383.4355,629.712a23.42915,23.42915,0,0,1-11.6972-2.67,26.59376,26.59376,0,0,1-8.1055-7.1347l5.533-4.4649a21.74675,21.74675,0,0,0,6.5041,5.6778,16.92794,16.92794,0,0,0,8.3487,1.9912q4.9497,0,7.7168-2.1358a7.75965,7.75965,0,0,0,.873-11.0176q-1.89255-2.0874-6.8438-2.8632l-3.9794-.583a33.192,33.192,0,0,1-6.4073-1.5049,17.80235,17.80235,0,0,1-5.0957-2.7178,11.67713,11.67713,0,0,1-3.3974-4.2236,13.75492,13.75492,0,0,1-1.2139-6.0176,14.46675,14.46675,0,0,1,1.3594-6.4551,12.99825,12.99825,0,0,1,3.7373-4.6113,16.32933,16.32933,0,0,1,5.6787-2.7656,26.21039,26.21039,0,0,1,7.0859-.9219,22.13,22.13,0,0,1,10.2412,2.1347,22.96129,22.96129,0,0,1,7.2315,5.9219l-5.1445,4.6592a15.45645,15.45645,0,0,0-4.8536-4.2236,15.63781,15.63781,0,0,0-8.0566-1.8916q-4.85445,0-7.3291,2.0869a7.04169,7.04169,0,0,0-2.4756,5.6787q0,3.69,2.4756,5.3389a18.48162,18.48162,0,0,0,7.1348,2.4267l3.8828.5811q8.3481,1.2627,11.8427,4.8056a12.633,12.633,0,0,1,3.4942,9.2705q0,7.2804-4.9502,11.4541Q392.0757,629.7134,383.4355,629.712Z" fill="#333e48"/><path d="M426.0508,628.5459q-4.077,0-6.1641-2.2744a8.467,8.467,0,0,1-2.0869-5.958V585.3506h-8.251V578.458h4.659q2.5227,0,3.4465-1.0195a5.291,5.291,0,0,0,.9219-3.543v-9.3183h6.9892V578.458h10.9688v6.8926H425.5654v36.3047h10.1924v6.8906Z" fill="#333e48"/><path d="M452.9395,566.712a4.7343,4.7343,0,0,1-3.6397-1.2129,4.46989,4.46989,0,0,1-1.1172-3.1543v-1.2627a4.47292,4.47292,0,0,1,1.1172-3.1543,6.06335,6.06335,0,0,1,7.2793,0,4.47742,4.47742,0,0,1,1.1172,3.1543v1.2627a4.47439,4.47439,0,0,1-1.1172,3.1543A4.73922,4.73922,0,0,1,452.9395,566.712Zm-3.8829,11.746h7.7657v50.0879h-7.7657Z" fill="#333e48"/><path d="M491.9619,629.712a23.07885,23.07885,0,0,1-9.416-1.8448,19.19874,19.19874,0,0,1-7.0371-5.2412,23.3292,23.3292,0,0,1-4.3692-8.2519,40.05063,40.05063,0,0,1,0-21.7442,23.35381,23.35381,0,0,1,4.3692-8.25,19.22335,19.22335,0,0,1,7.0371-5.2422,23.0787,23.0787,0,0,1,9.416-1.8437q7.4736,0,11.9883,3.251a19.83813,19.83813,0,0,1,6.7461,8.4931l-6.5039,3.3008a11.79183,11.79183,0,0,0-4.4649-6.0176,13.39472,13.39472,0,0,0-7.7656-2.1367,15.52436,15.52436,0,0,0-6.1152,1.1172,11.96047,11.96047,0,0,0-4.3692,3.1055,13.08842,13.08842,0,0,0-2.6201,4.7568,20.05506,20.05506,0,0,0-.874,6.0674v8.541a16.254,16.254,0,0,0,3.543,10.8242q3.54195,4.2231,10.4355,4.2227,9.4146,0,13.5899-8.7364l5.6308,3.7852a19.90405,19.90405,0,0,1-7.2324,8.6406A21.15874,21.15874,0,0,1,491.9619,629.712Z" fill="#333e48"/><path d="M537.1963,629.712a23.43139,23.43139,0,0,1-11.6975-2.67,26.595,26.595,0,0,1-8.1052-7.1347l5.5332-4.4649a21.75456,21.75456,0,0,0,6.5039,5.6778,16.92068,16.92068,0,0,0,8.3476,1.9912q4.9512,0,7.7168-2.1358a7.75695,7.75695,0,0,0,.875-11.0176q-1.894-2.0874-6.8437-2.8632l-3.9805-.583a33.1656,33.1656,0,0,1-6.4063-1.5049,17.80942,17.80942,0,0,1-5.0969-2.7178,11.67869,11.67869,0,0,1-3.3972-4.2236,13.73808,13.73808,0,0,1-1.2129-6.0176,14.4599,14.4599,0,0,1,1.3582-6.4551,13.002,13.002,0,0,1,3.7375-4.6113,16.33959,16.33959,0,0,1,5.6785-2.7656,26.21508,26.21508,0,0,1,7.0871-.9219,22.13212,22.13212,0,0,1,10.2403,2.1347,22.97558,22.97558,0,0,1,7.2324,5.9219l-5.1455,4.6592a15.44589,15.44589,0,0,0-4.8535-4.2236,15.64071,15.64071,0,0,0-8.0567-1.8916q-4.856,0-7.3291,2.0869a7.03793,7.03793,0,0,0-2.4746,5.6787q0,3.69,2.4746,5.3389a18.48774,18.48774,0,0,0,7.1348,2.4267l3.8828.5811q8.34675,1.2627,11.8428,4.8056a12.63756,12.63756,0,0,1,3.4951,9.2705q0,7.2804-4.9512,11.4541Q545.83505,629.7134,537.1963,629.712Z" fill="#333e48"/><path d="M124.4531,746.1963a29.18677,29.18677,0,0,1-14.0752-3.1543,29.85322,29.85322,0,0,1-9.9013-8.6875l6.0185-5.0488a26.342,26.342,0,0,0,7.959,7.2324,20.52526,20.52526,0,0,0,10.291,2.4756q7.28025,0,11.1133-3.4951a11.99523,11.99523,0,0,0,3.835-9.3184q0-4.85145-2.9122-7.4736-2.9121-2.622-9.6103-4.1748l-5.5332-1.2617q-9.31935-2.13585-14.2207-6.4551-4.9029-4.31835-4.9024-12.1836a18.4114,18.4114,0,0,1,1.6504-7.959,15.96014,15.96014,0,0,1,4.6114-5.8242,20.81491,20.81491,0,0,1,7.0859-3.543,32.0854,32.0854,0,0,1,9.0762-1.2138,28.49714,28.49714,0,0,1,13.1533,2.8154,25.33566,25.33566,0,0,1,9.2705,8.251l-6.1152,4.4658a21.12972,21.12972,0,0,0-6.795-6.1162,20.02721,20.02721,0,0,0-9.9023-2.2324q-6.50385,0-10.2402,2.7666-3.7383,2.76555-3.7383,8.2998,0,4.85445,3.1562,7.3281,3.1524,2.4756,9.5606,3.9316l5.5332,1.2627q9.99615,2.23245,14.4629,6.7949,4.46475,4.56165,4.4658,12.1329a21.4728,21.4728,0,0,1-1.6016,8.4453,17.32758,17.32758,0,0,1-4.6103,6.4062,21.4534,21.4534,0,0,1-7.3291,4.0781A30.45128,30.45128,0,0,1,124.4531,746.1963Z" fill="#333e48"/><path d="M179.9775,746.1963a22.58375,22.58375,0,0,1-9.2226-1.8437,19.84994,19.84994,0,0,1-7.1348-5.291,24.8761,24.8761,0,0,1-4.6103-8.25,36.18153,36.18153,0,0,1,0-21.5996,24.84623,24.84623,0,0,1,4.6103-8.2989,19.8952,19.8952,0,0,1,7.1348-5.291,22.60016,22.60016,0,0,1,9.2226-1.8437,22.26863,22.26863,0,0,1,9.1729,1.8437,20.48653,20.48653,0,0,1,7.1348,5.291,24.43712,24.43712,0,0,1,4.6591,8.2989,36.16061,36.16061,0,0,1,0,21.5996,24.46493,24.46493,0,0,1-4.6591,8.25,20.4384,20.4384,0,0,1-7.1348,5.291A22.25254,22.25254,0,0,1,179.9775,746.1963Zm0-6.8916a14.111,14.111,0,0,0,10.2891-3.8828q3.97845-3.88035,3.9805-11.8428v-7.1836q0-7.9569-3.9805-11.8418a15.57523,15.57523,0,0,0-20.5791,0q-3.98145,3.88335-3.9795,11.8418v7.1836q0,7.96005,3.9795,11.8428A14.10853,14.10853,0,0,0,179.9775,739.3047Z" fill="#333e48"/><path d="M234.0459,746.1963a23.0787,23.0787,0,0,1-9.416-1.8437,19.193,19.193,0,0,1-7.0371-5.2412,23.3344,23.3344,0,0,1-4.3692-8.251,40.05063,40.05063,0,0,1,0-21.7442,23.34645,23.34645,0,0,1,4.3692-8.2519,19.23861,19.23861,0,0,1,7.0371-5.2422,23.09519,23.09519,0,0,1,9.416-1.8437q7.4736,0,11.9883,3.2519a19.85389,19.85389,0,0,1,6.7461,8.4942l-6.5039,3.3007a11.79688,11.79688,0,0,0-4.4649-6.0195,13.41047,13.41047,0,0,0-7.7656-2.1348,15.53981,15.53981,0,0,0-6.1152,1.1153,11.96393,11.96393,0,0,0-4.3692,3.1074,13.09132,13.09132,0,0,0-2.6211,4.7559,20.07965,20.07965,0,0,0-.873,6.0664v8.5429a16.25933,16.25933,0,0,0,3.543,10.8242q3.542,4.22175,10.4355,4.2217,9.4131,0,13.5898-8.7363l5.6299,3.7861a19.8933,19.8933,0,0,1-7.2314,8.6397A21.16148,21.16148,0,0,1,234.0459,746.1963Z" fill="#333e48"/><path d="M268.1162,683.1983a4.73562,4.73562,0,0,1-3.6396-1.2139,4.46969,4.46969,0,0,1-1.1162-3.1553v-1.2617a4.47809,4.47809,0,0,1,1.1162-3.1553,6.0691,6.0691,0,0,1,7.2802,0,4.487,4.487,0,0,1,1.116,3.1553v1.2617a4.47857,4.47857,0,0,1-1.116,3.1553A4.741,4.741,0,0,1,268.1162,683.1983Zm-3.8828,11.7451h7.7654v50.0889h-7.7654Z" fill="#333e48"/><path d="M307.3328,746.1963a22.48678,22.48678,0,0,1-9.2693-1.8437,19.93966,19.93966,0,0,1-7.086-5.291,24.21671,24.21671,0,0,1-4.5627-8.25,37.21953,37.21953,0,0,1,0-21.5996,24.19562,24.19562,0,0,1,4.5627-8.2989,19.98568,19.98568,0,0,1,7.086-5.291,22.50289,22.50289,0,0,1,9.2693-1.8437,21.30791,21.30791,0,0,1,9.0276,1.8378,20.00606,20.00606,0,0,1,6.7949,5.0801,22.63274,22.63274,0,0,1,4.3203,7.6895,30.37385,30.37385,0,0,1,1.5049,9.7695v3.6768H292.9668v2.33a17.13161,17.13161,0,0,0,1.0195,5.9698,14.13594,14.13594,0,0,0,2.9121,4.8047,13.30247,13.30247,0,0,0,4.6592,3.2031,15.9858,15.9858,0,0,0,6.2617,1.165,15.233,15.233,0,0,0,8.2989-2.2324,14.64572,14.64572,0,0,0,5.4843-6.4072l5.5332,4.0058a19.32481,19.32481,0,0,1-7.5712,8.3516A22.84437,22.84437,0,0,1,307.3328,746.1963Zm0-45.914a14.79221,14.79221,0,0,0-5.824,1.1103,13.08466,13.08466,0,0,0-4.5137,3.1358,14.70882,14.70882,0,0,0-2.9609,4.7734,16.50742,16.50742,0,0,0-1.0674,6.0312v.6739h27.665v-1.0606q0-6.65625-3.6396-10.6601A12.42683,12.42683,0,0,0,307.3328,700.2823Z" fill="#333e48"/><path d="M352.8594,745.0323q-4.0767,0-6.1641-2.2754a8.46788,8.46788,0,0,1-2.0869-5.9571V701.835h-8.251v-6.8916h4.6592q2.5224,0,3.4463-1.0195a5.29025,5.29025,0,0,0,.9219-3.542v-9.3203h6.989v13.8818h10.969v6.8916h-10.969v36.3047h10.1926v6.8926Z" fill="#333e48"/><path d="M406.7334,694.9434h7.6689l-22.4228,61.7373a27.60251,27.60251,0,0,1-1.7481,3.7363,7.27068,7.27068,0,0,1-2.1347,2.3789,8.51158,8.51158,0,0,1-3.1553,1.2627,23.52043,23.52043,0,0,1-4.6103.3877h-3.9805v-6.8926h7.8633l3.7849-10.6601-18.7342-51.9502h7.7657l12.0371,34.0068,2.3291,8.1387h.4853l2.7178-8.1387Z" fill="#333e48"/><path d="M118.833,839.9454l-2.4155-7.6788H105.7183l-2.3726,7.6788H97.5645l10.0952-30.1124h7.0752l10.0083,30.1124Zm-7.6787-24.9346h-.2158l-3.8394,12.3808h7.9375Z" fill="#333e48"/><path d="M149.1602,839.9454l-2.4156-7.6788H136.0454l-2.3725,7.6788h-5.7813l10.0952-30.1124h7.0752l10.0083,30.1124Zm-7.6792-24.9346h-.2154l-3.8393,12.3808h7.9375Z" fill="#333e48"/><path d="M178.6255,827.2198H166.0713v12.7256h-5.6948V809.833h5.6948v12.3379h12.5542V809.833h5.6943v30.1124h-5.6943Z" fill="#333e48"/><path d="M201.9639,826.3135l-4.0118,4.7461v8.8858h-5.6948V809.833h5.6948v14.8409h.2154l4.271-5.6504,7.4634-9.1905h6.5576l-10.4834,12.5538,11.3457,17.5586h-6.7725Z" fill="#333e48"/><path d="M227.7622,809.833v18.5079a8.63243,8.63243,0,0,0,1.3594,5.3066q1.358,1.76955,4.5937,1.7686,3.236,0,4.5952-1.7686a8.64279,8.64279,0,0,0,1.3584-5.3066V809.833h5.6084v17.7754a23.08978,23.08978,0,0,1-.6254,5.7364,9.78082,9.78082,0,0,1-2.0061,4.0136,8.09343,8.09343,0,0,1-3.6023,2.3506,16.84142,16.84142,0,0,1-5.3711.7539,16.58407,16.58407,0,0,1-5.3711-.7539,8.10276,8.10276,0,0,1-3.5591-2.3506,9.56425,9.56425,0,0,1-1.9844-4.0136,23.838,23.838,0,0,1-.604-5.7364V809.833Z" fill="#333e48"/><text transform="translate(97.56445 1042.0684)" font-size="42" fill="#333e48" font-family="FiraSans-Bold, Fira Sans" font-weight="700">Se<tspan x="47.29102" y="0" letter-spacing="-0.00699em">s</tspan><tspan x="67.15747" y="0">sion 2020–2021</tspan></text><text transform="translate(97.56445 982.66019)" font-size="42" fill="#333e48" font-family="SourceHanSansHC-Medium-B5pc-H, Source Han Sans HC"><tspan letter-spacing="0.00658em">二零二零至二零二一年</tspan><tspan x="422.76465" y="0">度</tspan></text><rect x="97.5645" y="908.2188" width="464.7656" height="1.5" fill="#333e48"/></g></svg>