<svg xmlns="http://www.w3.org/2000/svg" xmlns:xlink="http://www.w3.org/1999/xlink" viewBox="0 0 633.1924 799.1728"><defs><clipPath id="a"><rect width="633.1924" height="799.1728" fill="none"/></clipPath></defs><g clip-path="url(#a)"><path d="M79.2236,135.7871A105.372,105.372,0,0,0,71.1377,169.5a10.382,10.382,0,0,1,13.6777.4785A92.63088,92.63088,0,0,1,177.167,84.541a6.8379,6.8379,0,0,0,0-13.6758,106.40095,106.40095,0,0,0-97.9434,64.9219Z" fill="#fff"/><path d="M169.5967,269.4863a92.631,92.631,0,0,1-85.0528-91.8984,6.83785,6.83785,0,1,0-13.6757,0,106.22264,106.22264,0,0,0,98.1855,105.58,10.37408,10.37408,0,0,1,.543-13.6816Z" fill="#fff"/><path d="M251.2666,243.707a6.83935,6.83935,0,0,0-9.6699,0,92.3153,92.3153,0,0,1-64.4297,26.0879,6.8379,6.8379,0,1,0,0,13.6758,105.94976,105.94976,0,0,0,74.0996-30.0938A6.8347,6.8347,0,0,0,251.2666,243.707Z" fill="#fff"/><path d="M177.167,283.4707a6.8379,6.8379,0,1,1,0-13.6758,92.3153,92.3153,0,0,0,64.4297-26.0879,6.83765,6.83765,0,0,1,9.6699,9.6699,105.94976,105.94976,0,0,1-74.0996,30.0938Zm-41.3848-8.3594a106.21168,106.21168,0,0,1-64.914-97.5234,6.83785,6.83785,0,1,1,13.6757,0,92.631,92.631,0,0,0,85.0528,91.8984,10.37408,10.37408,0,0,0-.543,13.6816A105.42259,105.42259,0,0,1,135.7822,275.1113ZM177.167,70.8652a6.8379,6.8379,0,0,1,0,13.6758,92.63088,92.63088,0,0,0-92.3516,85.4375A10.382,10.382,0,0,0,71.1377,169.5,106.21917,106.21917,0,0,1,177.167,70.8652Z" fill="#fff"/><path d="M233.4602,120.875a79.61292,79.61292,0,1,0,23.3162,56.2929A79.09372,79.09372,0,0,0,233.4602,120.875Z" fill="#fff"/><path d="M121.0615,202.914V151.4238h11.166v3.8066h-6.4726v43.877h6.4726v3.8066Z" fill="#333e48"/><path d="M233.2725,151.4238V202.914H222.1084v-3.8066h6.4687v-43.877h-6.4687v-3.8066Z" fill="#333e48"/><path d="M146.9971,187.6289q0,1.54395.0468,3.6347.04695,2.0919.129,4.2481.0819,2.15625.1933,4.1211.1113,1.9629.2734,3.2812H141.042V166.5488q0-4.6992-.1602-8.5117-.1611-3.8145-.4843-6.6133h6.5996Z" fill="#333e48"/><path d="M175.7998,170.0879v4.2167H169.749v24.3946h6.0508v4.2148H157.7783v-4.2148h5.9531V174.3046h-5.9531v-4.2167Z" fill="#333e48"/><path d="M189.3174,170.0879a11.67189,11.67189,0,0,1,.3847,1.3378c.1309.5469.2461,1.1192.3555,1.7207.1055.5997.2012,1.1915.2891,1.7696l.2558,1.4472a21.2295,21.2295,0,0,1,6.211-5.2929,13.90309,13.90309,0,0,1,6.5019-1.625,11.412,11.412,0,0,1,4.5528.8515A8.02358,8.02358,0,0,1,211.2002,173a13.23235,13.23235,0,0,1,2.043,4.7968,31.35751,31.35751,0,0,1,.6914,7.0977V199.373a36.01469,36.01469,0,0,1-.9492,9.0274,15.43229,15.43229,0,0,1-2.6543,5.7304,9.31046,9.31046,0,0,1-4.1036,3.0235,15.23534,15.23534,0,0,1-5.3261.8867,11.51953,11.51953,0,0,1-3.1055-.4668,11.73921,11.73921,0,0,1-3.0078-1.3047l2.0918-4.8262a6.42094,6.42094,0,0,0,1.9785.918,8.80082,8.80082,0,0,0,2.5254.3691,7.293,7.293,0,0,0,2.7695-.498,4.63151,4.63151,0,0,0,2.0742-1.7539,9.606,9.606,0,0,0,1.3047-3.4434,28.53947,28.53947,0,0,0,.4492-5.5683V187.3066a39.32556,39.32556,0,0,0-.4023-6.2598,10.80388,10.80388,0,0,0-1.207-3.7324,4.00041,4.00041,0,0,0-2.0117-1.7871,8.06855,8.06855,0,0,0-2.8165-.4512,7.56714,7.56714,0,0,0-3.3925.8223,12.49494,12.49494,0,0,0-3.043,2.123,15.814,15.814,0,0,0-2.4453,2.9454,13.54417,13.54417,0,0,0-1.5781,3.2812v18.666h-5.9532V183.123a50.25927,50.25927,0,0,0-.5468-8.0625,40.58418,40.58418,0,0,0-1.0625-4.9726Z" fill="#333e48"/><path d="M107.4585,426.1621V358.4062h8.1538v60.5723h28.8301v7.1836Z" fill="#fff"/><path d="M159.1968,364.3281a4.7417,4.7417,0,0,1-3.6406-1.2129,4.472,4.472,0,0,1-1.1163-3.1553v-1.2627a4.47788,4.47788,0,0,1,1.1163-3.1543,6.06945,6.06945,0,0,1,7.2807,0,4.48459,4.48459,0,0,1,1.1162,3.1543v1.2627a4.47869,4.47869,0,0,1-1.1162,3.1553A4.74564,4.74564,0,0,1,159.1968,364.3281Zm-3.8828,11.7461h7.7656v50.0879H155.314Z" fill="#fff"/><path d="M179.5815,426.1621V376.0742h7.7657v8.0605h.3882a16.33264,16.33264,0,0,1,5.1933-6.7265q3.34935-2.49765,8.979-2.4991,7.7652,0,12.2798,4.9991,4.51395,5.00085,4.5137,14.124v32.1299h-7.7657V395.3242q0-13.5234-11.3574-13.5235a17.43442,17.43442,0,0,0-4.5141.584,13.12726,13.12726,0,0,0-3.9312,1.752,8.64054,8.64054,0,0,0-2.7661,2.9668,8.43809,8.43809,0,0,0-1.0195,4.2314v34.8272Z" fill="#fff"/><path d="M274.5161,424.5117q0,10.3857-5.8242,16.3086-5.8242,5.91945-16.4048,5.9218a26.54342,26.54342,0,0,1-10.5322-1.9013,21.49754,21.49754,0,0,1-7.3286-5.0225l4.562-5.3623a17.63353,17.63353,0,0,0,5.8242,3.9971,19.55656,19.55656,0,0,0,7.6682,1.3965q6.7944,0,10.5325-3.752,3.736-3.75735,3.7373-11.0683v-6.9278h-.3882a16.483,16.483,0,0,1-5.8242,6.918,16.00906,16.00906,0,0,1-8.8335,2.3076,19.04106,19.04106,0,0,1-8.4453-1.8447,17.88859,17.88859,0,0,1-6.4065-5.2412,25.22541,25.22541,0,0,1-4.0769-8.251,41.31643,41.31643,0,0,1,0-21.7441,25.24325,25.24325,0,0,1,4.0769-8.251,17.92163,17.92163,0,0,1,6.4065-5.2422,19.04065,19.04065,0,0,1,8.4453-1.8438,17.04874,17.04874,0,0,1,8.979,2.2579,14.10215,14.10215,0,0,1,5.6787,6.9677h.3882v-8.0605h7.7656Zm-20.4819-4.0762a17.52286,17.52286,0,0,0,4.9507-.6836,12.01435,12.01435,0,0,0,4.0283-2,10.0161,10.0161,0,0,0,2.7182-3.2187,9.26387,9.26387,0,0,0,1.0191-4.4395V391.4589a8.02551,8.02551,0,0,0-.9707-3.8535,9.09993,9.09993,0,0,0-2.718-3.0722,14.0526,14.0526,0,0,0-4.0769-2,16.41365,16.41365,0,0,0-4.9507-.7325q-6.6021,0-10.4834,4.1954a15.30835,15.30835,0,0,0-3.8831,10.83v8.584a15.31028,15.31028,0,0,0,3.8831,10.8301Q247.4319,420.43555,254.0342,420.4355Z" fill="#fff"/><path d="M321.8857,418.1015h-.3881a23.9165,23.9165,0,0,1-1.8929,3.4121,12.75456,12.75456,0,0,1-2.7663,2.9785,12.94355,12.94355,0,0,1-3.98,2.0665,17.39734,17.39734,0,0,1-5.436.7685q-7.76745,0-12.3282-4.999-4.5636-4.998-4.5625-14.124V376.0742h7.7657v30.8379q0,13.5234,11.4543,13.5234a17.38117,17.38117,0,0,0,4.5139-.584,12.4919,12.4919,0,0,0,3.8828-1.75,8.85763,8.85763,0,0,0,2.7183-2.9678,8.651,8.651,0,0,0,1.019-4.33V376.0742h7.7657v50.0879h-7.7657Z" fill="#fff"/><path d="M350.0356,364.3281a4.74076,4.74076,0,0,1-3.6401-1.2129,4.47239,4.47239,0,0,1-1.1162-3.1553v-1.2627a4.47827,4.47827,0,0,1,1.1162-3.1543,6.06885,6.06885,0,0,1,7.2803,0,4.48486,4.48486,0,0,1,1.1159,3.1543v1.2627a4.479,4.479,0,0,1-1.1159,3.1553A4.745,4.745,0,0,1,350.0356,364.3281Zm-3.8828,11.7461h7.7657v50.0879h-7.7657Z" fill="#fff"/><path d="M385.4668,427.3271a23.43146,23.43146,0,0,1-11.6973-2.6689,26.59242,26.59242,0,0,1-8.1054-7.1348l5.5332-4.4658a21.75466,21.75466,0,0,0,6.5039,5.6787,16.93711,16.93711,0,0,0,8.3481,1.9902q4.95045,0,7.7168-2.1357a7.758,7.758,0,0,0,.874-11.0176q-1.8933-2.0874-6.8437-2.8633l-3.98-.583a33.1705,33.1705,0,0,1-6.4067-1.5039,17.80575,17.80575,0,0,1-5.0962-2.7187,11.66841,11.66841,0,0,1-3.3977-4.2227,13.7507,13.7507,0,0,1-1.2132-6.0176,14.464,14.464,0,0,1,1.3589-6.4551,12.99061,12.99061,0,0,1,3.7373-4.6113,16.35438,16.35438,0,0,1,5.6787-2.7666,26.25506,26.25506,0,0,1,7.0862-.9219,22.11878,22.11878,0,0,1,10.241,2.1358,22.96357,22.96357,0,0,1,7.2319,5.9209l-5.145,4.6592a15.44845,15.44845,0,0,0-4.8535-4.2227,15.63051,15.63051,0,0,0-8.0567-1.8926q-4.8552,0-7.3291,2.0869a7.04,7.04,0,0,0-2.4751,5.6788q0,3.68985,2.4751,5.3388a18.46856,18.46856,0,0,0,7.1348,2.4268l3.8828.582q8.3475,1.2627,11.8428,4.8047a12.63743,12.63743,0,0,1,3.4946,9.2715q0,7.28025-4.9507,11.4541Q394.10615,427.3281,385.4668,427.3271Z" fill="#fff"/><path d="M428.0818,426.1621q-4.07625,0-6.1641-2.2754a8.46359,8.46359,0,0,1-2.0866-5.9571V382.9658h-8.251v-6.8916h4.6592q2.52315,0,3.4462-1.0196a5.2923,5.2923,0,0,0,.9219-3.5429v-9.3194h6.9893v13.8819h10.9692v6.8916H427.5967v36.3047h10.1924v6.8916Z" fill="#fff"/><path d="M454.9707,364.3281a4.74046,4.74046,0,0,1-3.6401-1.2129,4.47223,4.47223,0,0,1-1.1167-3.1553v-1.2627a4.47812,4.47812,0,0,1,1.1167-3.1543,6.0687,6.0687,0,0,1,7.2802,0,4.48556,4.48556,0,0,1,1.1163,3.1543v1.2627a4.47965,4.47965,0,0,1-1.1163,3.1553A4.7449,4.7449,0,0,1,454.9707,364.3281Zm-3.8828,11.7461h7.7656v50.0879h-7.7656Z" fill="#fff"/><path d="M493.9932,427.3271a23.07932,23.07932,0,0,1-9.4161-1.8447,19.20263,19.20263,0,0,1-7.0375-5.2412,23.33121,23.33121,0,0,1-4.3682-8.251,40.02977,40.02977,0,0,1,0-21.7441,23.34674,23.34674,0,0,1,4.3682-8.251,19.23723,19.23723,0,0,1,7.0375-5.2422,23.0792,23.0792,0,0,1,9.4161-1.8438q7.4736,0,11.9882,3.251a19.85023,19.85023,0,0,1,6.7464,8.4942l-6.5037,3.3007a11.79715,11.79715,0,0,0-4.4653-6.0185,13.40092,13.40092,0,0,0-7.7656-2.1358,15.53086,15.53086,0,0,0-6.1158,1.1163,11.95832,11.95832,0,0,0-4.3681,3.1064,13.07423,13.07423,0,0,0-2.6206,4.7559,20.07465,20.07465,0,0,0-.8741,6.0673v8.542a16.25823,16.25823,0,0,0,3.5435,10.8243q3.54195,4.2216,10.4351,4.2226,9.41445,0,13.5896-8.7363l5.6306,3.7851a19.89123,19.89123,0,0,1-7.232,8.6397A21.152,21.152,0,0,1,493.9932,427.3271Z" fill="#fff"/><path d="M539.2275,427.3271a23.43,23.43,0,0,1-11.6972-2.6689,26.59277,26.59277,0,0,1-8.1055-7.1348l5.533-4.4658a21.75772,21.75772,0,0,0,6.5041,5.6787,16.93428,16.93428,0,0,0,8.3482,1.9902q4.95045,0,7.7168-2.1357a7.758,7.758,0,0,0,.874-11.0176q-1.8933-2.0874-6.8438-2.8633l-3.98-.583a33.17225,33.17225,0,0,1-6.4067-1.5039,17.80442,17.80442,0,0,1-5.0962-2.7187,11.66658,11.66658,0,0,1-3.3974-4.2227,13.75066,13.75066,0,0,1-1.2134-6.0176,14.46265,14.46265,0,0,1,1.3589-6.4551,12.98632,12.98632,0,0,1,3.7373-4.6113,16.35264,16.35264,0,0,1,5.6787-2.7666,26.255,26.255,0,0,1,7.0864-.9219,22.11862,22.11862,0,0,1,10.2407,2.1358,22.96393,22.96393,0,0,1,7.232,5.9209l-5.1451,4.6592a15.44621,15.44621,0,0,0-4.8535-4.2227,15.63013,15.63013,0,0,0-8.0566-1.8926q-4.8552,0-7.3291,2.0869a7.04024,7.04024,0,0,0-2.4754,5.6788q0,3.68985,2.4754,5.3388a18.468,18.468,0,0,0,7.1348,2.4268l3.8828.582q8.34735,1.2627,11.8427,4.8047a12.6383,12.6383,0,0,1,3.4947,9.2715q0,7.28025-4.9507,11.4541Q547.867,427.3281,539.2275,427.3271Z" fill="#fff"/><path d="M126.4844,543.8125a29.19935,29.19935,0,0,1-14.0752-3.1543,29.86992,29.86992,0,0,1-9.9014-8.6885l6.0186-5.0479a26.36123,26.36123,0,0,0,7.9594,7.2325,20.5249,20.5249,0,0,0,10.2901,2.4746q7.28025,0,11.1142-3.4942a11.9977,11.9977,0,0,0,3.8345-9.3183q0-4.8531-2.9121-7.4746-2.9121-2.62215-9.6099-4.1748l-5.5332-1.2618q-9.31935-2.1342-14.2212-6.455-4.90275-4.3185-4.9018-12.1827a18.4107,18.4107,0,0,1,1.6499-7.9589,15.965,15.965,0,0,1,4.6108-5.8243,20.815,20.815,0,0,1,7.0865-3.5439,32.0871,32.0871,0,0,1,9.0761-1.2139,28.49518,28.49518,0,0,1,13.1529,2.8164,25.3372,25.3372,0,0,1,9.2705,8.25l-6.1153,4.4658a21.13291,21.13291,0,0,0-6.7949-6.1162,20.0265,20.0265,0,0,0-9.9014-2.2324q-6.5046,0-10.2412,2.7666-3.73755,2.76705-3.7373,8.2998,0,4.8546,3.1553,7.3281,3.15315,2.4756,9.5615,3.9327l5.5327,1.2617q9.9969,2.2338,14.4634,6.7949,4.46415,4.563,4.4653,12.1338a21.47052,21.47052,0,0,1-1.6015,8.4453,17.333,17.333,0,0,1-4.6109,6.4063,21.43591,21.43591,0,0,1-7.3286,4.0771A30.4566,30.4566,0,0,1,126.4844,543.8125Z" fill="#fff"/><path d="M182.0083,543.8125a22.57982,22.57982,0,0,1-9.2217-1.8438,19.85687,19.85687,0,0,1-7.1347-5.291,24.8794,24.8794,0,0,1-4.6109-8.251,36.1678,36.1678,0,0,1,0-21.5986,24.82448,24.82448,0,0,1,4.6109-8.2988,19.89079,19.89079,0,0,1,7.1347-5.2911,22.57979,22.57979,0,0,1,9.2217-1.8437,22.25243,22.25243,0,0,1,9.1733,1.8437,20.48131,20.48131,0,0,1,7.1348,5.2911,24.41946,24.41946,0,0,1,4.6597,8.2988,36.17408,36.17408,0,0,1,0,21.5986,24.4716,24.4716,0,0,1-4.6597,8.251,20.44525,20.44525,0,0,1-7.1348,5.291A22.25247,22.25247,0,0,1,182.0083,543.8125Zm0-6.8926a14.111,14.111,0,0,0,10.2896-3.8828q3.9792-3.88035,3.9799-11.8418v-7.1836q0-7.95855-3.9799-11.8428a15.57536,15.57536,0,0,0-20.5792,0q-3.9813,3.88335-3.9799,11.8428v7.1836q0,7.9599,3.9799,11.8418A14.10734,14.10734,0,0,0,182.0083,536.9199Z" fill="#fff"/><path d="M236.0767,543.8125a23.07846,23.07846,0,0,1-9.4156-1.8438,19.20133,19.20133,0,0,1-7.0376-5.2422,23.33093,23.33093,0,0,1-4.3681-8.251,40.02465,40.02465,0,0,1,0-21.7441,23.34992,23.34992,0,0,1,4.3681-8.251,19.23455,19.23455,0,0,1,7.0376-5.2422,23.07845,23.07845,0,0,1,9.4156-1.8437q7.4736,0,11.9887,3.2519a19.84127,19.84127,0,0,1,6.7461,8.4932l-6.5034,3.3008a11.8014,11.8014,0,0,0-4.4658-6.0186,13.40054,13.40054,0,0,0-7.7656-2.1357,15.529,15.529,0,0,0-6.1153,1.1162,11.95949,11.95949,0,0,0-4.3681,3.1064,13.073,13.073,0,0,0-2.6211,4.7569,20.07207,20.07207,0,0,0-.8736,6.0664v8.543a16.2594,16.2594,0,0,0,3.543,10.8232q3.5427,4.2231,10.4351,4.2217,9.41415,0,13.5898-8.7363l5.6304,3.7861a19.89268,19.89268,0,0,1-7.2315,8.6396A21.16189,21.16189,0,0,1,236.0767,543.8125Z" fill="#fff"/><path d="M270.1479,480.8134a4.73706,4.73706,0,0,1-3.6401-1.2138,4.47154,4.47154,0,0,1-1.1162-3.1543v-1.2617a4.47726,4.47726,0,0,1,1.1162-3.1553,6.06485,6.06485,0,0,1,7.2803,0,4.484,4.484,0,0,1,1.1162,3.1553v1.2617a4.47829,4.47829,0,0,1-1.1162,3.1543A4.74174,4.74174,0,0,1,270.1479,480.8134Zm-3.8828,11.7452h7.7657v50.0888h-7.7657Z" fill="#fff"/><path d="M309.3647,543.8125a22.48886,22.48886,0,0,1-9.2705-1.8438,19.96428,19.96428,0,0,1-7.0859-5.291,24.237,24.237,0,0,1-4.5625-8.251,37.2095,37.2095,0,0,1,0-21.5986,24.19194,24.19194,0,0,1,4.5625-8.2988,19.99884,19.99884,0,0,1,7.0859-5.2911,22.48884,22.48884,0,0,1,9.2705-1.8437,21.296,21.296,0,0,1,9.0274,1.8379,20.00174,20.00174,0,0,1,6.7947,5.0801,22.62459,22.62459,0,0,1,4.32,7.6894,30.35346,30.35346,0,0,1,1.5049,9.7695v3.6758H294.9978v2.3301a17.14082,17.14082,0,0,0,1.0198,5.9707,14.17316,14.17316,0,0,0,2.9121,4.8047,13.31982,13.31982,0,0,0,4.6592,3.2031,16.00233,16.00233,0,0,0,6.2612,1.1641,15.22575,15.22575,0,0,0,8.2993-2.2324,14.64443,14.64443,0,0,0,5.4849-6.4063l5.5332,4.0059a19.3382,19.3382,0,0,1-7.5718,8.3515A22.84345,22.84345,0,0,1,309.3647,543.8125Zm0-45.9141a14.78353,14.78353,0,0,0-5.8242,1.1094,13.07608,13.07608,0,0,0-4.5136,3.1357,14.695,14.695,0,0,0-2.961,4.7744,16.50232,16.50232,0,0,0-1.0681,6.0303v.6748h27.6658v-1.0615q0-6.65625-3.6402-10.6592A12.42229,12.42229,0,0,0,309.3647,497.8984Z" fill="#fff"/><path d="M354.8906,542.6474q-4.07655,0-6.164-2.2744a8.46812,8.46812,0,0,1-2.087-5.958V499.4511h-8.2509v-6.8925h4.6592q2.52315,0,3.4462-1.0196a5.28979,5.28979,0,0,0,.9217-3.542v-9.3193h6.9895v13.8809h10.9692v6.8925H354.4053v36.3047h10.1924v6.8916Z" fill="#fff"/><path d="M408.7646,492.5586h7.669l-22.4233,61.7382a27.56848,27.56848,0,0,1-1.7476,3.7364,7.27664,7.27664,0,0,1-2.1353,2.3789,8.51135,8.51135,0,0,1-3.1547,1.2617,23.44276,23.44276,0,0,1-4.6109.3887h-3.98v-6.8926h7.8628l3.7857-10.6612-18.7349-51.9501h7.7654l12.0373,34.0068,2.3296,8.1396h.4854l2.7178-8.1396Z" fill="#fff"/><path d="M120.8643,637.5605l-2.4151-7.6787H107.75l-2.373,7.6787H99.5957l10.0957-30.1123h7.0742l10.0088,30.1123Zm-7.6788-24.9346h-.2158l-3.8388,12.3809h7.9375Z" fill="#fff"/><path d="M151.1914,637.5605l-2.416-7.6787H138.0762l-2.3721,7.6787h-5.7812l10.0947-30.1123h7.0761l10.0079,30.1123Zm-7.6797-24.9346h-.2148l-3.8399,12.3809h7.9375Z" fill="#fff"/><path d="M180.6562,624.8349H168.1025v12.7256h-5.6943V607.4482h5.6943v12.3379h12.5537V607.4482h5.6954v30.1123h-5.6954Z" fill="#fff"/><path d="M203.9951,623.9287l-4.0117,4.7461v8.8857h-5.6943V607.4482h5.6943V622.289h.2158l4.2705-5.6504,7.4639-9.1904h6.5566l-10.4824,12.5537,11.3457,17.5586h-6.7734Z" fill="#fff"/><path d="M229.7927,607.4482V625.956a8.63652,8.63652,0,0,0,1.3596,5.3067q1.35945,1.7694,4.5938,1.7685,3.2373,0,4.5957-1.7685a8.64292,8.64292,0,0,0,1.3584-5.3067V607.4482h5.6084v17.7754a23.1337,23.1337,0,0,1-.625,5.7363,9.789,9.789,0,0,1-2.0059,4.0137,8.1038,8.1038,0,0,1-3.6035,2.3506,16.8365,16.8365,0,0,1-5.3711.7539,16.59359,16.59359,0,0,1-5.3713-.7539,8.10645,8.10645,0,0,1-3.5584-2.3506,9.564,9.564,0,0,1-1.9843-4.0137,23.8343,23.8343,0,0,1-.6036-5.7363V607.4482Z" fill="#fff"/><text transform="translate(97.55957 738.24605)" font-size="42" fill="#fff" font-family="FiraSans-Bold, Fira Sans" font-weight="700">Se<tspan x="47.29102" y="0" letter-spacing="-0.00699em">s</tspan><tspan x="67.15747" y="0">sion 2020–2021</tspan></text></g></svg>