<svg xmlns="http://www.w3.org/2000/svg" xmlns:xlink="http://www.w3.org/1999/xlink" viewBox="0 0 2893.9756 708.6621"><defs><clipPath id="a"><rect x="0.001" y="0.0054" width="2893.9746" height="708.6626" fill="none"/></clipPath></defs><g clip-path="url(#a)"><path d="M1095.17479,341.4975a13.6745,13.6745,0,0,1,13.6758,13.6758c0-.2793-.0097-.5581-.0097-.8379,0-102.3105,82.9355-185.248,185.248-185.248a13.6748,13.6748,0,0,0,0-27.3496,212.44395,212.44395,0,0,0-212.59959,212.5976c0,.2798.00981.5586.00981.8379A13.67569,13.67569,0,0,1,1095.17479,341.4975Z" fill="#ee212e"/><path d="M1280.4131,553.2593a13.67559,13.67559,0,0,1,13.67578-13.6753c-102.03129,0-184.78519-82.4868-185.23829-184.4107a13.67575,13.67575,0,1,0-27.35149,0A212.43143,212.43143,0,0,0,1294.08888,566.935,13.676,13.676,0,0,1,1280.4131,553.2593Z" fill="#46bc96"/><path d="M1442.28618,487.4077a13.67749,13.67749,0,0,0-19.3399,0,184.62843,184.62843,0,0,1-128.8574,52.1763,13.6755,13.6755,0,1,0,0,27.351,211.89682,211.89682,0,0,0,148.1973-60.185A13.6726,13.6726,0,0,0,1442.28618,487.4077Z" fill="#00c2f3"/><path d="M1406.67088,241.7534a159.22076,159.22076,0,1,0,46.6309,112.582A158.16213,158.16213,0,0,0,1406.67088,241.7534Z" fill="#00c2f3"/><path d="M1181.88189,405.8257V302.8472h22.332v7.6132h-12.9434v87.752h12.9434v7.6133Z" fill="#333e48"/><path d="M1406.29788,302.8472V405.8257h-22.3301v-7.6133h12.9395v-87.752h-12.9395v-7.6132Z" fill="#333e48"/><path d="M1233.751,375.2554q0,3.0849.0938,7.2714.0966,4.1844.2597,8.4961.1611,4.31325.3867,8.2383.22275,3.9288.545,6.5645h-13.1914V333.0952q0-9.3948-.3223-17.0215-.32235-7.62885-.9668-13.2265h13.1953Z" fill="#fff"/><path d="M1291.35448,340.1753v8.4336h-12.0996V397.396h12.0996v8.4297h-36.041V397.396h11.9063V348.6089h-11.9063v-8.4336Z" fill="#fff"/><path d="M1318.38768,340.1753a22.31851,22.31851,0,0,1,.7715,2.6743c.2617,1.0933.4922,2.2397.709,3.4409q.31938,1.8018.5801,3.5415l.5117,2.8921q6.18168-7.33305,12.4219-10.584a27.83027,27.83027,0,0,1,13.0039-3.25,22.826,22.826,0,0,1,9.1054,1.7032,16.064,16.064,0,0,1,6.6641,5.4067,26.47189,26.47189,0,0,1,4.0859,9.5913,62.80332,62.80332,0,0,1,1.3848,14.1938v28.9581a71.9248,71.9248,0,0,1-1.9023,18.0556,30.92641,30.92641,0,0,1-5.3067,11.4605,18.66373,18.66373,0,0,1-8.207,6.0468,30.53191,30.53191,0,0,1-10.6524,1.771,23.01358,23.01358,0,0,1-6.2109-.9331,23.54127,23.54127,0,0,1-6.01758-2.6079l4.18358-9.6533a12.94637,12.94637,0,0,0,3.959,1.8359,17.671,17.671,0,0,0,5.0488.7378,14.53922,14.53922,0,0,0,5.5391-.998,9.21418,9.21418,0,0,0,4.1504-3.5064,19.203,19.203,0,0,0,2.6074-6.8857,56.89185,56.89185,0,0,0,.9004-11.1348V374.6108a78.44253,78.44253,0,0,0-.80468-12.5195,21.57226,21.57226,0,0,0-2.416-7.4648,7.99965,7.99965,0,0,0-4.02342-3.5743,16.10817,16.10817,0,0,0-5.6289-.9004,15.09924,15.09924,0,0,0-6.7872,1.6446,24.98618,24.98618,0,0,0-6.0859,4.2461,31.5365,31.5365,0,0,0-4.89058,5.8891,27.16009,27.16009,0,0,0-3.15632,6.5635v37.3306h-11.9043V366.2432a100.48,100.48,0,0,0-1.0957-16.1231,81.9787,81.9787,0,0,0-2.125-9.9448Z" fill="#fff"/><path d="M201.2242,379.624H146.2315v-9.1299h54.9927Zm-7.1568,97.2056H184.646V466.8237H162.6631v10.0059h-9.5669V427.46h40.9712Zm-.4385-78.3628-40.3867.145v-9.1274h40.3867Zm.146,19.1333H153.2422v-9.1289h40.5327Zm-1.8257-56.5264-37.1.1465v-9.1289h37.1Zm-7.3032,96.7671V436.4429H162.5176v21.3979Zm94.3574-40.0942-78.9477.1455v-8.9824H219.628l4.2363-22.5664H205.6065v-8.983h19.7187l3.1402-16.7251H200.4942v-9.1284h72.5205v8.9829H238.3242l-2.9941,16.7251h30.0894l-3.1407,31.5484h16.7246Zm-12.708,59.375h-9.4209v-9.8594H219.9204v9.8594h-9.5673V427.6059h55.9423Zm-9.4209-18.8428V436.5884H219.7744v21.6904Zm-1.4609-72.082H233.7232l-4.2354,22.7129h23.6621Z" fill="#333e48"/><path d="M443.6748,379.624H310.9038v-9.1299h132.771Zm-19.5722,18.6958H329.1607v-8.8354h94.9419Zm0,18.9883H329.1607v-8.8369h94.9419Zm-3.4322,59.8135h-9.4209V466.8237H342.7451v10.2979h-9.4209V427.46h87.3462Zm-.146-116.9971-86.4702.2188v-8.8365h86.4702Zm-9.2749,97.7163V436.4429H342.7451v21.3979Z" fill="#333e48"/><path d="M608.3487,450.6841H549.5576v10.1513q0,16.2855-17.3105,16.2862h-9.7129l-3.5781-8.9824h13.584q7.15725,0,7.1582-6.5728V450.6841H475.5752v-9.1289h64.1231v-6.2808q15.2607-5.69745,21.8359-10.6626H505.5908v-8.3994h72.1583v7.9609a223.58962,223.58962,0,0,1-28.1915,15.8477v1.5342h58.7911Zm-6.1348-27.0957h-8.7656V408.4712H491.4248v15.9941H481.856V399.9272h12.561V355.3765q10.36815-1.02105,22.7149-9.8584l4.8203,6.7187q-6.6504,6.13545-18.1133,9.2754v6.1348h18.6953v7.5962H503.8389v7.9589h18.6953v7.4488H503.8389v9.2763h77.6328v-9.2763H563.6514v-7.3028h17.8203v-8.5439H563.7979V367.355h17.6738v-7.961h-20.668v-8.8364h29.9434v49.2232h11.4668Zm-41.4102-56.6719-5.1113,6.2803a77.9141,77.9141,0,0,0-11.3203-8.69,87.33541,87.33541,0,0,1-13.293,9.1284l-5.9883-5.2587a57.882,57.882,0,0,0,12.4161-6.8643,127.48458,127.48458,0,0,0-14.3887-4.6738l3.7266-6.7202a135.07163,135.07163,0,0,1,16.2851,5.2583,62.17637,62.17637,0,0,0,8.6914-10.0049l6.1348,4.894a46.31161,46.31161,0,0,1-7.5957,8.8364A54.56149,54.56149,0,0,1,560.8037,366.9165Zm.875,26.5835-6.1328,4.8198a67.57952,67.57952,0,0,0-12.2695-7.521q-3.94335,2.9934-14.0215,7.521l-5.5508-4.3818q9.41895-4.4532,13.5117-7.7412a74.14079,74.14079,0,0,0-12.416-5.6968l5.4766-4.5996a91.14571,91.14571,0,0,1,12.8535,5.6216q2.042-1.16685,8.252-7.0108l6.7187,3.4326a36.59966,36.59966,0,0,1-8.3242,7.961A54.28456,54.28456,0,0,1,561.6787,393.5Z" fill="#333e48"/><path d="M772.8741,450.6841H714.083v10.1513q0,16.2855-17.3086,16.2862h-9.7128l-3.5782-8.9824h13.584q7.15425,0,7.1563-6.5728V450.6841H640.10257v-9.1289H704.2237v-6.2808q15.26355-5.69745,21.8379-10.6626H670.1182v-8.3994h72.1562v7.9609A223.44564,223.44564,0,0,1,714.083,440.021v1.5342h58.7911Zm-6.1329-27.0957h-8.7675V408.4712H655.9502v15.9941h-9.56638V399.9272H658.9444V355.3765q10.371-1.02105,22.7129-9.8584l4.8203,6.7187q-6.64455,6.13545-18.1133,9.2754v6.1348h18.6973v7.5962H668.3643v7.9589h18.6973v7.4488H668.3643v9.2763h77.6328v-9.2763H728.1787v-7.3028h17.8184v-8.5439H728.3233V367.355h17.6738v-7.961h-20.668v-8.8364h29.9434v49.2232h11.4687Zm-38.8105-31.7276-6.6543,6.084c-3.0371-4.5635-7.3828-10.2764-11.5859-13.8247q-9.7998,10.92045-16.1055,13.8941l-6.584-5.5293q7.4238-3.53175,16.1074-13.2032-9.876-6.15015-14.0761-7.605l5.7441-5.9409q3.501,1.38285,13.166,7.1895a41.8163,41.8163,0,0,0,4.4805-10.3013H690.4326v-8.6391h11.7891v-8.8965h7.5664v8.8965h13.9922v8.6391h-2.7695a54.99934,54.99934,0,0,1-6.2754,14.8628C719.8252,381.3559,724.71,387.2534,727.9307,391.8608Z" fill="#333e48"/><path d="M939.80959,379.3325l-5.2578,7.5947q-24.90525-6.1347-38.9981-14.1679v6.5732h-49.3711v-7.2309q-21.325,11.02725-38.26949,14.3872l-4.8183-7.668q41.042-10.00485,68.35739-33.4492l8.9824,2.9941a12.40953,12.40953,0,0,1-2.5566,2.5557Q902.124,371.07975,939.80959,379.3325ZM924.253,421.1792H818.2119v-34.252H924.253Zm-8.6895,56.0884H906.5811v-5.8428H836.0323v5.8428h-8.9825V428.8472h88.51369Zm-48.7129-63.9756V395.0337H827.1944V413.292Zm39.73051,33.0102v-9.4209H836.0323v9.4209Zm0,17.2354v-9.5674H836.0323v9.5674ZM857.13769,406.061l-7.5215,5.2588a52.53649,52.53649,0,0,0-13.29289-10.1514l7.59569-4.3823A37.58439,37.58439,0,0,1,857.13769,406.061Zm35.4219-34.8349a92.07722,92.07722,0,0,1-20.5234-14.9727,112.1227,112.1227,0,0,1-23.7344,14.9727Zm22.7129,42.0659V395.0337H875.835V413.292Zm-8.8379-13.9492q-4.3095,6.8649-13,11.685l-8.0332-4.0166q9.56835-5.403,13.1445-10.8095Z" fill="#333e48"/><path d="M201.9126,260.2378l-2.79,3.2114q-12.53985-4.4106-23.8804-15.5415l.0601,11.7305h14.0102V285.438h-3.81v-3.4492H161.232v3.4492h-3.9307V259.6382h14.0703V247.9077q-6.1794,9.45045-22.3203,14.7915l-2.8198-3.1811q14.30925-3.78015,20.4604-11.6104H149.6211v-3.75h21.7505v-5.79q-7.1697.7206-18,1.0503l-2.5801-3.6309q25.59015-.09015,40.8609-4.2891l2.8799,2.8804a132.787,132.787,0,0,1-19.23,3.5098v6.2695h22.0503v3.75l-17.1905-.0596A63.96291,63.96291,0,0,0,201.9126,260.2378Zm-16.4101,8.4306v-5.2802H161.1719v5.2802Zm0,9.6304v-5.9399H161.1719v5.9399Z" fill="#333e48"/><path d="M238.00349,262.998q-3.783,11.7312-9.9004,19.231l3.5088,2.2207a57.19925,57.19925,0,0,0,10.0215-19.2305Zm-6.3311-16.6499-2.5214,3.1504a22.193,22.193,0,0,1,9.4531,7.3198l2.6377-3.5698Q238.12314,249.0767,231.67239,246.3481Zm2.939-13.4389-2.8193,2.8794a18.10656,18.10656,0,0,1,9.0913,6.9594l2.8188-3.0307A18.391,18.391,0,0,0,234.61139,232.9092Z" fill="#333e48"/><path d="M273.82279,272.1196v-11.312a34.83278,34.83278,0,0,0,7.6817,5.522l2.4604-3.3316a25.76672,25.76672,0,0,1-12.2412-10.6196H281.982V248.689h-9.8081v-7.1709h7.4092v-3.691h-7.4092V231.5h-3.8115v6.3882h-11.1289V231.5h-3.812v6.3882H246.043v3.6889h7.44v7.1695h-9.7808v3.6924h9.9004q-3.328,6.23865-12.0298,10.3779l2.8189,3.3315a37.77907,37.77907,0,0,0,4.7407-3.2392v16.0805q0,5.15925,5.1597,5.1592h19.6504a4.79035,4.79035,0,0,0,3.7944-1.5889q1.3974-1.59,2.1767-6.2695l-3.8701-1.7412q-.39105,3.75-1.1396,4.7988a2.34837,2.34837,0,0,1-2.0098,1.0508h-18.3017a1.45691,1.45691,0,0,1-1.6485-1.6509v-6.6284Zm-16.5893-30.6015h11.1899v7.1709h-11.1899Zm.3584,10.8603h10.2007a24.87727,24.87727,0,0,0,4.4399,6.812h-19.0498A21.15872,21.15872,0,0,0,257.59189,252.3784Zm-4.648,10.5h17.0698v5.6104h-17.0698Z" fill="#333e48"/><path d="M365.59673,282.439l-2.79,3.1191q-18.7515-10.22895-23.8208-34.4697-6.27105,24.63135-25.5601,34.4697l-3.0307-3.5693q19.1103-9.3003,24.2109-30.8404h-20.4009v-3.8706h20.8506a153.55927,153.55927,0,0,0,.4805-15.7798l4.1699.6001q.1494,9.1788-.3604,15.1206h22.7408v3.8697h-18.9302Q346.75543,271.6387,365.59673,282.439Z" fill="#333e48"/><path d="M447.22836,274.6382h-24.1509v4.1714q0,6.68775-7.1098,6.6904h-3.9903l-1.4697-3.6904h5.5801q2.9391,0,2.9399-2.7007v-4.4707h-26.3403v-3.75h26.3403v-2.5801a37.47855,37.47855,0,0,0,8.9702-4.3799h-22.9804V260.478h29.6401v3.27a91.7445,91.7445,0,0,1-11.5801,6.5108v.6294h24.1509Zm-2.5195-11.1294h-3.6001v-6.21h-41.9117v6.5689h-3.9296V253.7886h5.1601V235.4878q4.2591-.41895,9.3296-4.0498l1.98,2.7597a17.648,17.648,0,0,1-7.44,3.8111v2.519h7.6802v3.1206h-7.6802v3.27h7.6802v3.0596h-7.6802v3.8106h31.8912V249.978H428.868v-3h7.3204v-3.5093h-7.2603v-3.061h7.2603v-3.2695h-8.4903v-3.6294h12.2998V253.728h4.711Zm-17.0108-23.2808-2.1006,2.5796a31.93707,31.93707,0,0,0-4.6494-3.5698,35.88506,35.88506,0,0,1-5.4604,3.75l-2.46-2.1597a23.81143,23.81143,0,0,0,5.0996-2.8193,52.37835,52.37835,0,0,0-5.9096-1.9214l1.5302-2.7603a55.594,55.594,0,0,1,6.69,2.1607,25.55831,25.55831,0,0,0,3.5698-4.1104l2.5205,2.0108a19.03838,19.03838,0,0,1-3.1201,3.6299A22.40857,22.40857,0,0,1,427.69806,240.228Zm.3599,10.9204-2.52,1.98a27.83958,27.83958,0,0,0-5.0401-3.0913,32.36694,32.36694,0,0,1-5.7602,3.0913l-2.2803-1.8013a29.612,29.612,0,0,0,5.5508-3.1787,30.39652,30.39652,0,0,0-5.1006-2.3403l2.2495-1.8901a37.46465,37.46465,0,0,1,5.2808,2.31,25.5673,25.5673,0,0,0,3.3901-2.8799l2.7598,1.4107a15.078,15.078,0,0,1-3.4199,3.269A22.25,22.25,0,0,1,428.058,251.1484Z" fill="#333e48"/><path d="M529.9706,281.6284l-2.6406,3.5108q-15.26955-4.5-24.7793-12.1211-8.19435,6.69135-25.7422,12.3613l-2.9395-3.5698q16.98045-4.7103,25.6817-11.4312a40.86217,40.86217,0,0,1-11.7305-20.0703,33.11245,33.11245,0,0,1-4.4414,7.9199l-3.1777-2.9092a39.64436,39.64436,0,0,0,6.0879-9.8711H475.9686v-3.6889h24.0625V231.498h3.8692v10.1997h24.4804v3.6905H518.119q-2.6982,15.65985-12.4199,24.9301Q514.5497,277.03905,529.9706,281.6284Zm-15.8711-36.2402H490.8807q2.39655,13.8903,11.7286,22.3506Q511.7293,259.24775,514.0995,245.3882Z" fill="#333e48"/><path d="M611.15225,274.6382H587v4.1714q0,6.68775-7.1094,6.6904h-3.9903l-1.4687-3.6904h5.5781q2.9415,0,2.9414-2.7007v-4.4707H556.61123v-3.75h26.33982v-2.5801a37.45519,37.45519,0,0,0,8.9688-4.3799h-22.9805V260.478H598.58v3.27A91.74258,91.74258,0,0,1,587,270.2588v.6294h24.1523Zm-2.5195-11.1294h-3.6016v-6.21H563.119v6.5689h-3.92969V253.7886h5.16016V235.4878q4.25976-.41895,9.332-4.0498l1.9785,2.7597a17.64291,17.64291,0,0,1-7.4414,3.8111v2.519h7.6816v3.1206h-7.6816v3.27h7.6816v3.0596h-7.6816v3.8106h31.8926V249.978H592.789v-3h7.3223v-3.5093h-7.2598v-3.061h7.2598v-3.2695H591.621v-3.6294h12.2989V253.728h4.7129ZM591.621,240.228l-2.1015,2.5796a31.90092,31.90092,0,0,0-4.6485-3.5698,35.96,35.96,0,0,1-5.4609,3.75l-2.459-2.1597a23.83565,23.83565,0,0,0,5.0996-2.8193,52.57727,52.57727,0,0,0-5.9101-1.9214l1.5312-2.7603a55.6444,55.6444,0,0,1,6.6895,2.1607,25.46637,25.46637,0,0,0,3.5683-4.1104l2.5215,2.0108a19.12109,19.12109,0,0,1-3.1191,3.6299A22.43406,22.43406,0,0,1,591.621,240.228Zm.3594,10.9204-2.5195,1.98a27.80153,27.80153,0,0,0-5.041-3.0913,32.34112,32.34112,0,0,1-5.7598,3.0913l-2.2812-1.8013a29.49667,29.49667,0,0,0,5.5507-3.1787,30.34071,30.34071,0,0,0-5.0996-2.3403l2.25-1.8901a37.49867,37.49867,0,0,1,5.2813,2.31,25.42982,25.42982,0,0,0,3.3887-2.8799l2.7597,1.4107a15.0664,15.0664,0,0,1-3.418,3.269A22.30549,22.30549,0,0,1,591.98035,251.1484Z" fill="#333e48"/><path d="M650.67673,251.8984q6.0615,6.8094,6.0625,13.2896a7.30686,7.30686,0,0,1-1.6367,5.0097,5.76164,5.76164,0,0,1-4.5743,1.8619,23.81357,23.81357,0,0,1-3.9004-.3902l-1.1093-3.9912a21.66761,21.66761,0,0,0,4.6191.8106,3.05279,3.05279,0,0,0,2.1309-.9004,3.13093,3.13093,0,0,0,.9609-2.4004,14.38118,14.38118,0,0,0-1.6504-5.7598,22.9311,22.9311,0,0,0-4.9512-6.6894l5.8516-15.0308h-8.9101V285.5h-3.9317V233.8984h16.8301v3.8096Zm41.373,22.5904a20.74626,20.74626,0,0,1-2.1015,7.0498,4.62327,4.62327,0,0,1-4.2891,2.1904h-4.6797q-4.68165,0-4.6797-4.9194V262.939h-6.332q-.1788,9.6591-3.7637,14.4746-3.5859,4.8156-13.3066,8.0864l-2.5196-3.4512q9.0294-2.6697,12.3907-6.9004,3.3603-4.23045,3.3906-12.1499h-8.2207v-3.9302h32.1328v3.8707h-10.0234v14.9404a2.29107,2.29107,0,0,0,.4804,1.395,1.39708,1.39708,0,0,0,1.1407.644h3.8105q1.169,0,1.7852-1.9199a30.57161,30.57161,0,0,0,1.0351-4.9804Zm-3.4512-27.211-3.8085.0606v-5.2808h-22.6211v5.2808h-3.8711V238.248h13.1699v-6.81h3.9316v6.75h13.1992Zm-5.039,5.7905h-20.2813v-3.9301h20.2813Z" fill="#333e48"/><path d="M775.07712,274.6382h-24.1523v4.1714q0,6.68775-7.1094,6.6904h-3.9902l-1.4707-3.6904h5.58q2.9415,0,2.9414-2.7007v-4.4707h-26.3418v-3.75h26.3418v-2.5801a37.45322,37.45322,0,0,0,8.9688-4.3799h-22.9805V260.478h29.6406v3.27a91.74258,91.74258,0,0,1-11.58,6.5108v.6294h24.1523Zm-2.5215-11.1294H768.956v-6.21h-41.9101v6.5689h-3.9317V253.7886h5.1621V235.4878q4.25685-.41895,9.3282-4.0498l1.9804,2.7597a17.64607,17.64607,0,0,1-7.4394,3.8111v2.519h7.6797v3.1206h-7.6797v3.27h7.6797v3.0596h-7.6797v3.8106h31.8906V249.978h-7.3203v-3h7.3203v-3.5093h-7.2598v-3.061h7.2598v-3.2695h-8.4902v-3.6294h12.2988V253.728h4.7109Zm-17.0097-23.2808-2.1016,2.5796a31.93079,31.93079,0,0,0-4.6504-3.5698,35.84066,35.84066,0,0,1-5.459,3.75l-2.4609-2.1597a23.75722,23.75722,0,0,0,5.1015-2.8193,52.4461,52.4461,0,0,0-5.9101-1.9214l1.5293-2.7603a55.41407,55.41407,0,0,1,6.6894,2.1607,25.59438,25.59438,0,0,0,3.5723-4.1104l2.5195,2.0108a19.05985,19.05985,0,0,1-3.1211,3.6299A22.38681,22.38681,0,0,1,755.54592,240.228Zm.3593,10.9204-2.5195,1.98a27.91851,27.91851,0,0,0-5.0391-3.0913,32.37566,32.37566,0,0,1-5.7617,3.0913l-2.2793-1.8013a29.62882,29.62882,0,0,0,5.5508-3.1787,30.45249,30.45249,0,0,0-5.1016-2.3403l2.25-1.8901a37.35776,37.35776,0,0,1,5.2793,2.31,25.51681,25.51681,0,0,0,3.3907-2.8799l2.7597,1.4107a15.07393,15.07393,0,0,1-3.4199,3.269A22.22711,22.22711,0,0,1,755.90522,251.1484Z" fill="#333e48"/><path d="M857.2324,282.4985H802.63281v-3.8691h25.4394V264.5581h-18.3301V260.688h18.3301V248.4477h-13.5898a31.92848,31.92848,0,0,1-8.2207,11.7901l-3.959-2.0698a33.14708,33.14708,0,0,0,10.9492-22.2603l4.0508,1.1694a45.0089,45.0089,0,0,1-1.4121,7.5611h12.123V231.498h4.0488v13.0791H853.2421v3.8706H832.06241v12.1807H850.123v3.8696H832.06241v14.0708h25.17Z" fill="#333e48"/><path d="M939.80959,245.3271l-2.1582,3.1206q-10.23043-2.5194-16.0215-5.8193v2.6987h-20.2812v-2.9687a60.79483,60.79483,0,0,1-15.7188,5.9097l-1.9805-3.1504q16.86045-4.11045,28.0801-13.7403l3.6895,1.231a5.1286,5.1286,0,0,1-1.04889,1.0493Q924.32814,241.93845,939.80959,245.3271Zm-6.3887,17.1919h-43.5605V248.4477h43.5605Zm-3.5703,23.0391h-3.6914v-2.3989h-28.9805v2.3989h-3.6894V265.6684h36.3613Zm-20.0117-26.2803v-7.5h-16.2891v7.5Zm16.3203,13.5606v-3.8697h-28.9805v3.8697Zm0,7.08v-3.9296h-28.9805v3.9296Zm-20.3105-23.6103-3.0899,2.1606a21.59264,21.59264,0,0,0-5.459-4.1699l3.1192-1.8003A15.41786,15.41786,0,0,1,905.84869,256.3081Zm14.5507-14.3096a37.81657,37.81657,0,0,1-8.4296-6.1513,46.08057,46.08057,0,0,1-9.75,6.1513Zm9.3301,17.2793v-7.5h-16.1992v7.5Zm-3.6289-5.729a14.3077,14.3077,0,0,1-5.3418,4.7993l-3.2988-1.6489a15.58682,15.58682,0,0,0,5.4004-4.4404Z" fill="#333e48"/><path d="M1566.42288,336.8393V236.3682h12.0908v89.8193h42.751v10.6518Z" fill="#333e48"/><path d="M1643.14257,245.1484q-3.74565,0-5.39747-1.7988a6.63064,6.63064,0,0,1-1.65623-4.6787v-1.8711a6.63762,6.63762,0,0,1,1.65623-4.6782q1.65235-1.7982,5.39747-1.7993,3.7412,0,5.39753,1.7993a6.64571,6.64571,0,0,1,1.6552,4.6782v1.8711a6.63871,6.63871,0,0,1-1.6552,4.6787Q1646.88485,245.1514,1643.14257,245.1484Zm-5.7578,17.418h11.51563v74.2729h-11.51563Z" fill="#333e48"/><path d="M1673.3701,336.8393V262.5664h11.5157v11.9531h.5761a24.20308,24.20308,0,0,1,7.7002-9.9746q4.9674-3.70455,13.3145-3.7065,11.5152,0,18.209,7.4126,6.69285,7.415,6.6933,20.9438v47.6445h-11.5146V291.1108q0-20.0529-16.8418-20.0527a25.88838,25.88838,0,0,0-6.6934.8657,19.48125,19.48125,0,0,0-5.83,2.5977,12.83221,12.83221,0,0,0-4.1016,4.3994,12.51991,12.51991,0,0,0-1.5117,6.2749v51.6435Z" fill="#333e48"/><path d="M1814.1446,334.3926q0,15.3999-8.6368,24.1816-8.6367,8.7795-24.3261,8.7813a39.36639,39.36639,0,0,1-15.6182-2.8184,31.88222,31.88222,0,0,1-10.8672-7.4473l6.7656-7.9521a26.1284,26.1284,0,0,0,8.6368,5.9263,28.98249,28.98249,0,0,0,11.3711,2.0708q10.0737,0,15.6171-5.5635,5.5401-5.57085,5.542-16.4116v-10.274h-.5752a24.45019,24.45019,0,0,1-8.6367,10.2598,23.74985,23.74985,0,0,1-13.0996,3.4214,28.24153,28.24153,0,0,1-12.5224-2.7349,26.53229,26.53229,0,0,1-9.5-7.7724,37.40334,37.40334,0,0,1-6.0459-12.2354,61.2927,61.2927,0,0,1,0-32.2432,37.44246,37.44246,0,0,1,6.0459-12.2353,26.56388,26.56388,0,0,1,9.5-7.7725,28.22919,28.22919,0,0,1,12.5224-2.7348,25.291,25.291,0,0,1,13.3154,3.3486,20.91129,20.91129,0,0,1,8.4209,10.3325h.5752V262.5664h11.5157Zm-30.3721-6.0459a25.98931,25.98931,0,0,0,7.3418-1.0122,17.81614,17.81614,0,0,0,5.9726-2.9663,14.84763,14.84763,0,0,0,4.0313-4.7725,13.74328,13.74328,0,0,0,1.5107-6.583V285.3804a11.916,11.916,0,0,0-1.4394-5.7154,13.51588,13.51588,0,0,0-4.0303-4.5561,20.86959,20.86959,0,0,0-6.0449-2.9644,24.34194,24.34194,0,0,0-7.3418-1.0864q-9.7911,0-15.5449,6.2212-5.75985,6.2211-5.7578,16.0581v12.73q0,9.8379,5.7578,16.0586Q1773.98145,328.34635,1783.7725,328.3467Z" fill="#333e48"/><path d="M1884.3858,324.8857h-.5762a35.379,35.379,0,0,1-2.8066,5.0606,18.88859,18.88859,0,0,1-4.1016,4.4165,19.20012,19.20012,0,0,1-5.9023,3.0639,25.76237,25.76237,0,0,1-8.0606,1.1402q-11.51655,0-18.2803-7.4136-6.76755-7.41135-6.7656-20.9429v-47.644h11.5156v45.7275q0,20.053,16.9854,20.0528a25.72547,25.72547,0,0,0,6.6933-.8662,18.47552,18.47552,0,0,0,5.7579-2.5948,13.11171,13.11171,0,0,0,4.0293-4.3994,12.83027,12.83027,0,0,0,1.5117-6.4214V262.5664h11.5156v74.2729h-11.5156Z" fill="#333e48"/><path d="M1926.128,245.1484q-3.74415,0-5.3975-1.7988a6.62978,6.62978,0,0,1-1.6553-4.6787v-1.8711a6.63675,6.63675,0,0,1,1.6553-4.6782q1.65375-1.7982,5.3975-1.7993,3.74115,0,5.3984,1.7993a6.64923,6.64923,0,0,1,1.6543,4.6782v1.8711a6.64223,6.64223,0,0,1-1.6543,4.6787Q1929.86965,245.1514,1926.128,245.1484Zm-5.7579,17.418h11.5157v74.2729h-11.5157Z" fill="#333e48"/><path d="M1978.667,338.5669q-10.3638,0-17.3447-3.9585a39.42345,39.42345,0,0,1-12.0195-10.5801l8.2041-6.6211a32.2359,32.2359,0,0,0,9.6445,8.4199,25.10581,25.10581,0,0,0,12.3789,2.9517q7.34175,0,11.4434-3.1665a11.50417,11.50417,0,0,0,1.2959-16.3379q-2.80815-3.09375-10.1475-4.2461l-5.9023-.8638a49.16231,49.16231,0,0,1-9.5-2.2309,26.40035,26.40035,0,0,1-7.5567-4.0303,17.297,17.297,0,0,1-5.0381-6.2617,20.39549,20.39549,0,0,1-1.7998-8.9238,21.43761,21.43761,0,0,1,2.0157-9.5728,19.27165,19.27165,0,0,1,5.5419-6.8369,24.2248,24.2248,0,0,1,8.42-4.1021,38.92408,38.92408,0,0,1,10.5088-1.3676q9.06735,0,15.1855,3.1665a34.09089,34.09089,0,0,1,10.7236,8.7802l-7.6298,6.9092a22.8977,22.8977,0,0,0-7.1963-6.2607,23.17369,23.17369,0,0,0-11.9473-2.8076q-7.1997,0-10.8682,3.0952a10.44024,10.44024,0,0,0-3.6699,8.4204q0,5.4726,3.6699,7.9165,3.671,2.44995,10.5801,3.5991l5.7578.8633q12.378,1.872,17.5606,7.125,5.1825,5.25735,5.1826,13.7461,0,10.796-7.3408,16.9858Q1991.4775,338.56865,1978.667,338.5669Z" fill="#333e48"/><path d="M2041.8584,336.8393q-6.044,0-9.1396-3.3735a12.55257,12.55257,0,0,1-3.0947-8.8345V272.7851h-12.2354V262.5664h6.9092q3.74115,0,5.1103-1.5127,1.3668-1.5102,1.3672-5.2529V241.9814h10.3643v20.585h16.2656v10.2187h-16.2656v53.835h15.1133v10.2192Z" fill="#333e48"/><path d="M2081.7305,245.1484q-3.74415,0-5.3975-1.7988a6.62972,6.62972,0,0,1-1.6552-4.6787v-1.8711a6.63669,6.63669,0,0,1,1.6552-4.6782q1.6524-1.7982,5.3975-1.7993,3.74265,0,5.3975,1.7993a6.64631,6.64631,0,0,1,1.6562,4.6782v1.8711a6.63931,6.63931,0,0,1-1.6562,4.6787Q2085.4726,245.1514,2081.7305,245.1484Zm-5.7578,17.418h11.5156v74.2729h-11.5156Z" fill="#333e48"/><path d="M2139.5948,338.5669a34.2276,34.2276,0,0,1-13.962-2.7349,28.48154,28.48154,0,0,1-10.4355-7.7724,34.58811,34.58811,0,0,1-6.4775-12.2354,59.37707,59.37707,0,0,1,0-32.2432,34.62215,34.62215,0,0,1,6.4775-12.2353,28.515,28.515,0,0,1,10.4355-7.7725,34.21276,34.21276,0,0,1,13.962-2.7348q11.0829,0,17.7773,4.8217a29.43427,29.43427,0,0,1,10.0039,12.5948l-9.6445,4.8945a17.49028,17.49028,0,0,0-6.6211-8.9248,19.87617,19.87617,0,0,0-11.5156-3.1665,23.03051,23.03051,0,0,0-9.0684,1.6553,17.72144,17.72144,0,0,0-6.4766,4.6064,19.37939,19.37939,0,0,0-3.8867,7.0527,29.77094,29.77094,0,0,0-1.2959,8.9957v12.6669q0,9.79185,5.2549,16.0503,5.2515,6.2616,15.4727,6.2613,13.9599,0,20.1523-12.9551l8.3486,5.6142a29.49305,29.49305,0,0,1-10.7236,12.8111Q2150.2471,338.56665,2139.5948,338.5669Z" fill="#333e48"/><path d="M2206.6709,338.5669q-10.3638,0-17.3447-3.9585a39.42345,39.42345,0,0,1-12.0195-10.5801l8.2041-6.6211a32.2359,32.2359,0,0,0,9.6445,8.4199,25.10312,25.10312,0,0,0,12.3789,2.9517q7.34175,0,11.4434-3.1665a11.50417,11.50417,0,0,0,1.2959-16.3379q-2.80815-3.09375-10.1475-4.2461l-5.9023-.8638a49.16231,49.16231,0,0,1-9.5-2.2309,26.40035,26.40035,0,0,1-7.5567-4.0303,17.297,17.297,0,0,1-5.0381-6.2617,20.39549,20.39549,0,0,1-1.7998-8.9238,21.439,21.439,0,0,1,2.0157-9.5728,19.27165,19.27165,0,0,1,5.5419-6.8369,24.2248,24.2248,0,0,1,8.42-4.1021,38.91879,38.91879,0,0,1,10.5088-1.3676q9.06735,0,15.1855,3.1665a34.08977,34.08977,0,0,1,10.7236,8.7802l-7.6298,6.9092a22.89109,22.89109,0,0,0-7.1973-6.2607,23.16709,23.16709,0,0,0-11.9463-2.8076q-7.1997,0-10.8682,3.0952a10.44024,10.44024,0,0,0-3.6699,8.4204q0,5.4726,3.6699,7.9165,3.67095,2.44995,10.5801,3.5991l5.7578.8633q12.378,1.872,17.5606,7.125,5.18265,5.25735,5.1816,13.7461,0,10.796-7.3398,16.9858Q2219.4814,338.56865,2206.6709,338.5669Z" fill="#333e48"/><path d="M2317.793,338.5669q-12.2358,0-20.8721-4.6782a44.27736,44.27736,0,0,1-14.6816-12.8829l8.9238-7.4853a39.09984,39.09984,0,0,0,11.8037,10.7236,30.43194,30.43194,0,0,0,15.2578,3.6709q10.79595,0,16.4815-5.1816,5.6835-5.18265,5.6855-13.8189,0-7.1952-4.3183-11.0825-4.31835-3.8877-14.25-6.1904l-8.2051-1.8711q-13.81785-3.1656-21.0869-9.5713-7.27005-6.40425-7.2696-18.0659a27.30509,27.30509,0,0,1,2.4473-11.8027,23.67849,23.67849,0,0,1,6.8369-8.6363,30.852,30.852,0,0,1,10.5078-5.2539,47.57669,47.57669,0,0,1,13.459-1.7998q11.36865,0,19.5039,4.1748a37.57,37.57,0,0,1,13.7461,12.2354l-9.0683,6.6206a31.31541,31.31541,0,0,0-10.0752-9.0684q-5.9049-3.30975-14.6826-3.3105-9.64455,0-15.1856,4.102-5.543,4.1031-5.542,12.3072,0,7.2003,4.6787,10.8676,4.6758,3.6702,14.1778,5.8301l8.205,1.8711q14.82435,3.31275,21.4473,10.0757,6.61815,6.7668,6.6211,17.9927a31.83012,31.83012,0,0,1-2.375,12.5234,25.71009,25.71009,0,0,1-6.8369,9.5,31.79092,31.79092,0,0,1-10.8682,6.0454A45.15418,45.15418,0,0,1,2317.793,338.5669Z" fill="#333e48"/><path d="M2400.127,338.5669a33.48974,33.48974,0,0,1-13.6748-2.7349,29.45234,29.45234,0,0,1-10.5801-7.8452,36.91455,36.91455,0,0,1-6.8369-12.2349,53.63613,53.63613,0,0,1,0-32.0273,36.83287,36.83287,0,0,1,6.8369-12.3066,29.49193,29.49193,0,0,1,10.5801-7.8448,33.47494,33.47494,0,0,1,13.6748-2.7348,32.99049,32.99049,0,0,1,13.6025,2.7348,30.37359,30.37359,0,0,1,10.5791,7.8448,36.2147,36.2147,0,0,1,6.9092,12.3066,53.61521,53.61521,0,0,1,0,32.0273,36.292,36.292,0,0,1-6.9092,12.2349,30.33147,30.33147,0,0,1-10.5791,7.8452A33.005,33.005,0,0,1,2400.127,338.5669Zm0-10.2202q9.35445,0,15.2578-5.7578,5.9004-5.75475,5.9014-17.5606V294.3765q0-11.8008-5.9014-17.5611-5.90475-5.7546-15.2578-5.7573-9.35895,0-15.2578,5.7573-5.9049,5.7591-5.9014,17.5611v10.6518q0,11.80515,5.9014,17.5606Q2390.7696,328.3486,2400.127,328.3467Z" fill="#333e48"/><path d="M2480.3018,338.5669a34.22712,34.22712,0,0,1-13.9619-2.7349,28.4917,28.4917,0,0,1-10.4365-7.7724,34.6011,34.6011,0,0,1-6.4766-12.2354,59.35146,59.35146,0,0,1,0-32.2432,34.63516,34.63516,0,0,1,6.4766-12.2353,28.52519,28.52519,0,0,1,10.4365-7.7725,34.21228,34.21228,0,0,1,13.9619-2.7348q11.08305,0,17.7773,4.8217a29.43353,29.43353,0,0,1,10.0039,12.5948l-9.6445,4.8945a17.49522,17.49522,0,0,0-6.6211-8.9248,19.87617,19.87617,0,0,0-11.5156-3.1665,23.02705,23.02705,0,0,0-9.0684,1.6553,17.71186,17.71186,0,0,0-6.4765,4.6064,19.3781,19.3781,0,0,0-3.8868,7.0527,29.77407,29.77407,0,0,0-1.2959,8.9957v12.6669q0,9.79185,5.254,16.0503,5.25285,6.2616,15.4736,6.2613,13.9599,0,20.1523-12.9551l8.3487,5.6142a29.49327,29.49327,0,0,1-10.7237,12.8111Q2490.9541,338.56665,2480.3018,338.5669Z" fill="#333e48"/><path d="M2530.8242,245.1484q-3.7455,0-5.3974-1.7988a6.62978,6.62978,0,0,1-1.6553-4.6787v-1.8711a6.63675,6.63675,0,0,1,1.6553-4.6782q1.6524-1.7982,5.3974-1.7993,3.7413,0,5.3975,1.7993a6.64637,6.64637,0,0,1,1.6563,4.6782v1.8711a6.63937,6.63937,0,0,1-1.6563,4.6787Q2534.56645,245.1514,2530.8242,245.1484Zm-5.7578,17.418h11.5157v74.2729h-11.5157Z" fill="#333e48"/><path d="M2588.9766,338.5669a33.34886,33.34886,0,0,1-13.7461-2.7349,29.60316,29.60316,0,0,1-10.5078-7.8452,35.95664,35.95664,0,0,1-6.7656-12.2349,55.194,55.194,0,0,1,0-32.0273,35.88976,35.88976,0,0,1,6.7656-12.3066,29.64345,29.64345,0,0,1,10.5078-7.8448,33.33436,33.33436,0,0,1,13.7461-2.7348,31.57642,31.57642,0,0,1,13.3867,2.7256,29.67994,29.67994,0,0,1,10.0762,7.5322,33.57389,33.57389,0,0,1,6.4053,11.4028,45.01924,45.01924,0,0,1,2.2314,14.4863v5.4517h-53.4033v3.4551a25.40318,25.40318,0,0,0,1.5117,8.852,21.0183,21.0183,0,0,0,4.3184,7.125,19.72975,19.72975,0,0,0,6.9091,4.751,23.72961,23.72961,0,0,0,9.2842,1.7266,22.59692,22.59692,0,0,0,12.3076-3.3106,21.71871,21.71871,0,0,0,8.1319-9.5l8.2051,5.9395a28.66708,28.66708,0,0,1-11.2276,12.3838A33.86209,33.86209,0,0,1,2588.9766,338.5669Zm0-68.0845a21.92062,21.92062,0,0,0-8.6357,1.6465,19.41509,19.41509,0,0,0-6.6934,4.6484,21.80014,21.80014,0,0,0-4.3906,7.0811,24.47531,24.47531,0,0,0-1.584,8.9414v1.001h41.0234v-1.5747q0-9.8709-5.3974-15.8062Q2597.90085,270.4829,2588.9766,270.4824Z" fill="#333e48"/><path d="M2656.4854,336.8393q-6.047,0-9.1406-3.3735a12.55263,12.55263,0,0,1-3.0948-8.8345V272.7851h-12.2353V262.5664h6.9092q3.74115,0,5.1103-1.5127,1.3653-1.5102,1.3672-5.2529V241.9814h10.3633v20.585h16.2656v10.2187h-16.2656v53.835h15.1142v10.2192Z" fill="#333e48"/><path d="M2736.3721,262.5664h11.3721l-33.251,91.5459a40.80434,40.80434,0,0,1-2.5908,5.5415,10.80949,10.80949,0,0,1-3.167,3.5269,12.57193,12.57193,0,0,1-4.6778,1.871,34.75491,34.75491,0,0,1-6.8378.5762h-5.9014V355.4082h11.6592l5.6142-15.8086-27.7812-77.0332h11.5156l17.8486,50.4258,3.4551,12.0688h.7188l4.0312-12.0688Z" fill="#333e48"/><path d="M1586.55078,477.7578l-3.6103-11.4766h-15.9903l-3.5459,11.4766h-8.6406l15.0879-45.0039h10.5742l14.958,45.0039Zm-11.4766-37.2656h-.3222l-5.7383,18.5039h11.8633Z" fill="#333e48"/><path d="M1631.876,477.7578l-3.6103-11.4766h-15.9903l-3.5459,11.4766h-8.6406l15.0879-45.0039h10.5742l14.958,45.0039Zm-11.4766-37.2656h-.3222l-5.7383,18.5039h11.8633Z" fill="#333e48"/><path d="M1675.9131,458.7383h-18.7627v19.0195h-8.5107V432.7539h8.5107v18.4394h18.7627V432.7539h8.5108v45.0039h-8.5108Z" fill="#333e48"/><path d="M1710.794,457.3848l-5.9961,7.0918v13.2812h-8.5108V432.7539h8.5108v22.1797h.3222l6.3829-8.4453,11.1543-13.7344h9.8007l-15.6679,18.7617,16.957,26.2422H1723.625Z" fill="#333e48"/><path d="M1749.3506,432.7539v27.6602q0,5.28795,2.0313,7.9316,2.03025,2.64255,6.8662,2.6426,4.8354,0,6.8672-2.6426,2.03025-2.64555,2.0302-7.9316V432.7539h8.3819v26.5644a34.51991,34.51991,0,0,1-.9346,8.5743,14.611,14.611,0,0,1-2.998,5.998,12.09434,12.09434,0,0,1-5.3838,3.5137,25.17523,25.17523,0,0,1-8.0274,1.1269,24.7913,24.7913,0,0,1-8.0273-1.1269,12.11335,12.11335,0,0,1-5.3194-3.5137,14.2933,14.2933,0,0,1-2.9658-5.998,35.65375,35.65375,0,0,1-.9023-8.5743V432.7539Z" fill="#333e48"/></g></svg>