<svg xmlns="http://www.w3.org/2000/svg" xmlns:xlink="http://www.w3.org/1999/xlink" viewBox="0 0 633.1914 708.67291"><defs><clipPath id="a"><rect width="633.1914" height="708.67291" fill="none"/></clipPath></defs><g clip-path="url(#a)"><path d="M77.709,170.7481a6.83826,6.83826,0,0,1,6.8389,6.8379c-.001-.1397-.0059-.2784-.0059-.419a92.62473,92.62473,0,0,1,92.626-92.625,6.8379,6.8379,0,0,0,0-13.6758A106.22469,106.22469,0,0,0,70.8672,177.167c0,.1406.0039.2793.0049.419A6.83713,6.83713,0,0,1,77.709,170.7481Z" fill="#5a5c66"/><path d="M170.3301,276.62992a6.838,6.838,0,0,1,6.8379-6.8379,92.62007,92.62007,0,0,1-92.6201-92.206,6.8379,6.8379,0,1,0-13.6758,0A106.21959,106.21959,0,0,0,177.168,283.4688,6.83754,6.83754,0,0,1,170.3301,276.62992Z" fill="#858591"/><path d="M251.2676,243.70613a6.83585,6.83585,0,0,0-9.6709,0A92.31831,92.31831,0,0,1,177.168,269.792a6.83839,6.83839,0,0,0,0,13.67678A105.96668,105.96668,0,0,0,251.2676,253.376,6.83831,6.83831,0,0,0,251.2676,243.70613Z" fill="#9f9ea7"/><path d="M233.4587,120.875a79.613,79.613,0,1,0,23.3157,56.292A79.08376,79.08376,0,0,0,233.4587,120.875Z" fill="#9f9ea7"/><path d="M121.0625,202.9131V151.4229h11.166v3.8066h-6.4726v43.877h6.4726v3.8066Z" fill="#333e48"/><path d="M233.2715,151.4229v51.4902H222.1074v-3.8066h6.4688v-43.877h-6.4688v-3.8066Z" fill="#333e48"/><path d="M146.9961,187.628c0,1.0273.0166,2.2412.0488,3.6347q.04695,2.0919.1289,4.2481.0792,2.15625.1934,4.1211.1113,1.9629.2734,3.2812H141.043V166.5479q0-4.69785-.1602-8.5117-.1611-3.8145-.4834-6.6133h6.5967Z" fill="#fff"/><path d="M175.7998,170.0879v4.2168H169.75v24.3936h6.0498v4.2148H157.7793v-4.2148h5.9531V174.3047h-5.9531v-4.2168Z" fill="#fff"/><path d="M189.3164,170.0879a11.05351,11.05351,0,0,1,.3857,1.3369c.1299.5469.2461,1.1192.3545,1.7207q.15825.8994.2901,1.7696l.2558,1.4472a21.21533,21.21533,0,0,1,6.211-5.2929,13.91125,13.91125,0,0,1,6.501-1.625,11.4035,11.4035,0,0,1,4.5546.8525A8.02574,8.02574,0,0,1,211.2002,173a13.22863,13.22863,0,0,1,2.0439,4.7959,31.45154,31.45154,0,0,1,.6914,7.0967v14.4795a36.00922,36.00922,0,0,1-.9501,9.0273,15.47118,15.47118,0,0,1-2.6543,5.7305,9.3401,9.3401,0,0,1-4.1036,3.0234,15.28919,15.28919,0,0,1-5.3271.8848,11.48019,11.48019,0,0,1-3.1055-.4668,11.70076,11.70076,0,0,1-3.0078-1.3027l2.0918-4.8281a6.43211,6.43211,0,0,0,1.9785.9179,8.806,8.806,0,0,0,2.5254.3692,7.27793,7.27793,0,0,0,2.7705-.4981,4.61026,4.61026,0,0,0,2.0742-1.7529,9.60321,9.60321,0,0,0,1.3037-3.4443,28.41757,28.41757,0,0,0,.4502-5.5665V187.3047a39.19357,39.19357,0,0,0-.4023-6.2588,10.7963,10.7963,0,0,0-1.207-3.7334,4.01157,4.01157,0,0,0-2.0127-1.7871,8.05813,8.05813,0,0,0-2.8145-.4502,7.56248,7.56248,0,0,0-3.3945.8223,12.561,12.561,0,0,0-3.043,2.123,15.84745,15.84745,0,0,0-2.4443,2.9453,13.50784,13.50784,0,0,0-1.5781,3.2813v18.666h-5.9522v-19.791a50.23378,50.23378,0,0,0-.5488-8.0625,40.7947,40.7947,0,0,0-1.0615-4.9717Z" fill="#fff"/><path d="M107.4575,426.16312v-67.7554h8.1538V418.98h28.8301v7.1831Z" fill="#333e48"/><path d="M159.1958,364.32912a4.74,4.74,0,0,1-3.6406-1.2134,4.47109,4.47109,0,0,1-1.1162-3.1547V358.6988a4.477,4.477,0,0,1,1.1162-3.15478,6.06745,6.06745,0,0,1,7.2807,0,4.48382,4.48382,0,0,1,1.1162,3.15478V359.961a4.47784,4.47784,0,0,1-1.1162,3.1547A4.74391,4.74391,0,0,1,159.1958,364.32912Zm-3.8828,11.7456h7.7656v50.0884H155.313Z" fill="#333e48"/><path d="M179.5806,426.16312v-50.0884h7.7656v8.0616h.3882a16.32324,16.32324,0,0,1,5.1933-6.7266q3.34935-2.49825,8.979-2.4995,7.7652,0,12.2798,4.9985,4.51395,5.001,4.5137,14.1245v32.1299h-7.7656v-30.8379q0-13.5234-11.3575-13.52342a17.45254,17.45254,0,0,0-4.5141.584,13.12512,13.12512,0,0,0-3.9312,1.75192,8.64588,8.64588,0,0,0-2.7661,2.9668,8.43952,8.43952,0,0,0-1.0195,4.2315v34.8271Z" fill="#333e48"/><path d="M274.5151,424.51322q0,10.3857-5.8242,16.30758-5.8242,5.92023-16.4048,5.92192a26.54192,26.54192,0,0,1-10.5322-1.90092,21.50292,21.50292,0,0,1-7.3286-5.02188l4.562-5.3628a17.62435,17.62435,0,0,0,5.8242,3.9965,19.54694,19.54694,0,0,0,7.6685,1.3965q6.794,0,10.5322-3.7519,3.736-3.75663,3.7373-11.0679v-6.9282h-.3882a16.48307,16.48307,0,0,1-5.8242,6.9189,16.01313,16.01313,0,0,1-8.8335,2.3072,19.04118,19.04118,0,0,1-8.4453-1.8443,17.88751,17.88751,0,0,1-6.4062-5.2417,25.21792,25.21792,0,0,1-4.0772-8.251,41.31643,41.31643,0,0,1,0-21.7441,25.23774,25.23774,0,0,1,4.0772-8.251,17.92,17.92,0,0,1,6.4062-5.2422,19.04091,19.04091,0,0,1,8.4453-1.8437,17.05337,17.05337,0,0,1,8.979,2.2578,14.0967,14.0967,0,0,1,5.6787,6.9683h.3882v-8.0616h7.7656Zm-20.4819-4.0771a17.52183,17.52183,0,0,0,4.9507-.6827,12.01312,12.01312,0,0,0,4.0283-2.0004,10.01621,10.01621,0,0,0,2.7183-3.2183,9.26635,9.26635,0,0,0,1.019-4.4395v-18.6347a8.02716,8.02716,0,0,0-.9707-3.854,9.11006,9.11006,0,0,0-2.718-3.0728,14.07834,14.07834,0,0,0-4.0769-1.9995,16.41269,16.41269,0,0,0-4.9507-.73242q-6.6021,0-10.4834,4.19532a15.309,15.309,0,0,0-3.8831,10.8296v8.5845a15.31087,15.31087,0,0,0,3.8831,10.83Q247.4309,420.43582,254.0332,420.43612Z" fill="#333e48"/><path d="M321.8848,418.10212h-.3882a23.9205,23.9205,0,0,1-1.8928,3.4126,12.76683,12.76683,0,0,1-2.7664,2.9785,12.95639,12.95639,0,0,1-3.98,2.0664,17.38312,17.38312,0,0,1-5.436.7686q-7.7673,0-12.3281-4.9991-4.56375-4.99875-4.5625-14.124v-32.1304h7.7656v30.8384q0,13.52265,11.4543,13.523a17.36405,17.36405,0,0,0,4.5139-.584,12.47515,12.47515,0,0,0,3.8829-1.75,8.8474,8.8474,0,0,0,2.7182-2.96732,8.65,8.65,0,0,0,1.0191-4.33008v-34.73h7.7656v50.0884h-7.7656Z" fill="#333e48"/><path d="M350.0347,364.32912a4.73912,4.73912,0,0,1-3.6402-1.2134,4.47154,4.47154,0,0,1-1.1162-3.1547V358.6988a4.4775,4.4775,0,0,1,1.1162-3.15478,6.06685,6.06685,0,0,1,7.2803,0,4.48505,4.48505,0,0,1,1.116,3.15478V359.961a4.47908,4.47908,0,0,1-1.116,3.1547A4.74317,4.74317,0,0,1,350.0347,364.32912Zm-3.8828,11.7456h7.7656v50.0884h-7.7656Z" fill="#333e48"/><path d="M385.4658,427.32822a23.43076,23.43076,0,0,1-11.6972-2.6695,26.57935,26.57935,0,0,1-8.1055-7.1347l5.5332-4.4654a21.74625,21.74625,0,0,0,6.5039,5.6787,16.93553,16.93553,0,0,0,8.3481,1.9903q4.95045,0,7.7168-2.13582a7.75808,7.75808,0,0,0,.8741-11.01758q-1.89375-2.08665-6.8438-2.8632l-3.98-.583a33.18474,33.18474,0,0,1-6.4067-1.5044,17.80485,17.80485,0,0,1-5.0962-2.71782,11.67739,11.67739,0,0,1-3.3977-4.22318,13.75027,13.75027,0,0,1-1.2131-6.0175,14.46741,14.46741,0,0,1,1.3588-6.4556,12.9914,12.9914,0,0,1,3.7374-4.6108,16.34178,16.34178,0,0,1,5.6787-2.7666,26.24957,26.24957,0,0,1,7.0861-.9219,22.13158,22.13158,0,0,1,10.241,2.1352,22.979,22.979,0,0,1,7.2319,5.92138l-5.145,4.65922a15.455,15.455,0,0,0-4.8535-4.2227,15.63013,15.63013,0,0,0-8.0566-1.89252q-4.8552,0-7.3291,2.08692a7.04044,7.04044,0,0,0-2.4751,5.6787q0,3.69,2.4751,5.3389a18.4701,18.4701,0,0,0,7.1347,2.4267l3.8828.582q8.3475,1.26267,11.8428,4.8052a12.636,12.636,0,0,1,3.4946,9.2705q0,7.28025-4.9506,11.4546Q394.10525,427.32912,385.4658,427.32822Z" fill="#333e48"/><path d="M428.0811,426.16312q-4.0767,0-6.1644-2.2749a8.46633,8.46633,0,0,1-2.0866-5.9575V382.9668h-8.251v-6.89208h4.6592q2.52315,0,3.4463-1.0195a5.29253,5.29253,0,0,0,.9218-3.543v-9.3188h6.9893v13.8813h10.9692v6.89208H427.5957v36.30472h10.1924v6.8916Z" fill="#333e48"/><path d="M454.9697,364.32912a4.73888,4.73888,0,0,1-3.6401-1.2134,4.47049,4.47049,0,0,1-1.1167-3.1547V358.6988a4.47644,4.47644,0,0,1,1.1167-3.15478,6.06685,6.06685,0,0,1,7.2803,0,4.48517,4.48517,0,0,1,1.1162,3.15478V359.961a4.4792,4.4792,0,0,1-1.1162,3.1547A4.74341,4.74341,0,0,1,454.9697,364.32912Zm-3.8828,11.7456h7.7656v50.0884h-7.7656Z" fill="#333e48"/><path d="M493.9922,427.32822a23.07878,23.07878,0,0,1-9.416-1.8443,19.202,19.202,0,0,1-7.0376-5.2417,23.33109,23.33109,0,0,1-4.3682-8.251,40.03233,40.03233,0,0,1,0-21.7441,23.34835,23.34835,0,0,1,4.3682-8.251,19.23621,19.23621,0,0,1,7.0376-5.2422,23.0787,23.0787,0,0,1,9.416-1.8437q7.4736,0,11.9883,3.2514a19.84747,19.84747,0,0,1,6.7466,8.4937l-6.504,3.3008a11.79783,11.79783,0,0,0-4.4653-6.0186,13.40164,13.40164,0,0,0-7.7656-2.13572,15.52967,15.52967,0,0,0-6.1157,1.11622,11.9588,11.9588,0,0,0-4.3682,3.1064,13.07324,13.07324,0,0,0-2.6206,4.75638,20.0676,20.0676,0,0,0-.874,6.06692v8.542a16.25562,16.25562,0,0,0,3.5434,10.8237q3.5421,4.22307,10.4351,4.2227,9.4146,0,13.5896-8.7364l5.6306,3.7857a19.89085,19.89085,0,0,1-7.2319,8.6396A21.15548,21.15548,0,0,1,493.9922,427.32822Z" fill="#333e48"/><path d="M539.2266,427.32822a23.43011,23.43011,0,0,1-11.6973-2.6695,26.58051,26.58051,0,0,1-8.1055-7.1347l5.533-4.4654a21.74931,21.74931,0,0,0,6.5041,5.6787,16.9335,16.9335,0,0,0,8.3482,1.9903q4.95045,0,7.7168-2.13582a7.75794,7.75794,0,0,0,.874-11.01758q-1.8933-2.08665-6.8437-2.8632l-3.98-.583a33.1858,33.1858,0,0,1-6.4068-1.5044,17.80219,17.80219,0,0,1-5.0962-2.71782,11.67556,11.67556,0,0,1-3.3974-4.22318,13.75021,13.75021,0,0,1-1.2134-6.0175,14.46742,14.46742,0,0,1,1.3589-6.4556,12.9922,12.9922,0,0,1,3.7373-4.6108,16.34265,16.34265,0,0,1,5.6787-2.7666,26.25021,26.25021,0,0,1,7.0864-.9219,22.13214,22.13214,0,0,1,10.2408,2.1352,22.98015,22.98015,0,0,1,7.2319,5.92138l-5.145,4.65922a15.45722,15.45722,0,0,0-4.8535-4.2227,15.63052,15.63052,0,0,0-8.0567-1.89252q-4.8552,0-7.3291,2.08692a7.04059,7.04059,0,0,0-2.4753,5.6787q0,3.69,2.4753,5.3389a18.47,18.47,0,0,0,7.1348,2.4267l3.8828.582q8.34735,1.26267,11.8428,4.8052a12.636,12.636,0,0,1,3.4946,9.2705q0,7.28025-4.9507,11.4546Q547.866,427.32912,539.2266,427.32822Z" fill="#333e48"/><path d="M126.4834,543.81352a29.19272,29.19272,0,0,1-14.0752-3.1548,29.85607,29.85607,0,0,1-9.9014-8.688l6.0186-5.0478a26.36255,26.36255,0,0,0,7.9595,7.2324,20.52909,20.52909,0,0,0,10.29,2.4751q7.28025,0,11.1143-3.49462a11.99919,11.99919,0,0,0,3.8344-9.31888q0-4.8522-2.9121-7.47412-2.9121-2.622-9.6098-4.17478l-5.5332-1.2617q-9.31935-2.13435-14.2212-6.4551-4.9029-4.31835-4.9019-12.1826a18.41468,18.41468,0,0,1,1.6499-7.9595,15.9713,15.9713,0,0,1,4.6109-5.8242,20.831,20.831,0,0,1,7.0864-3.5435,32.08735,32.08735,0,0,1,9.0761-1.2133,28.50388,28.50388,0,0,1,13.1534,2.8154,25.34006,25.34006,0,0,1,9.27,8.251l-6.1152,4.46528a21.12451,21.12451,0,0,0-6.795-6.11568,20.02067,20.02067,0,0,0-9.9013-2.2325q-6.50475,0-10.2412,2.76618-3.73755,2.76708-3.7373,8.29982,0,4.8552,3.1552,7.3286,3.15315,2.4756,9.5615,3.9321l5.5328,1.2617q9.99675,2.23395,14.4633,6.7949,4.46415,4.563,4.4654,12.1338a21.47019,21.47019,0,0,1-1.6016,8.4453,17.332,17.332,0,0,1-4.6108,6.4063,21.44442,21.44442,0,0,1-7.3286,4.0771A30.45489,30.45489,0,0,1,126.4834,543.81352Z" fill="#333e48"/><path d="M182.0073,543.81352a22.5803,22.5803,0,0,1-9.2217-1.8442,19.85583,19.85583,0,0,1-7.1347-5.2906,24.88576,24.88576,0,0,1-4.6109-8.25092,36.16806,36.16806,0,0,1,0-21.59868,24.84055,24.84055,0,0,1,4.6109-8.29932,19.895,19.895,0,0,1,7.1347-5.29048,22.57949,22.57949,0,0,1,9.2217-1.8438,22.253,22.253,0,0,1,9.1734,1.8438,20.48542,20.48542,0,0,1,7.1347,5.29048,24.43336,24.43336,0,0,1,4.6597,8.29932,36.17225,36.17225,0,0,1,0,21.59868,24.476,24.476,0,0,1-4.6597,8.25092,20.44378,20.44378,0,0,1-7.1347,5.2906A22.25372,22.25372,0,0,1,182.0073,543.81352Zm0-6.8921a14.11266,14.11266,0,0,0,10.2896-3.8828q3.9792-3.8811,3.98-11.8423v-7.1836q0-7.9584-3.98-11.8428a15.57523,15.57523,0,0,0-20.5791,0q-3.98145,3.88332-3.98,11.8428v7.1836q0,7.96,3.98,11.8423A14.10857,14.10857,0,0,0,182.0073,536.92142Z" fill="#333e48"/><path d="M236.0757,543.81352a23.078,23.078,0,0,1-9.4155-1.8442,19.19872,19.19872,0,0,1-7.0376-5.2417,23.33121,23.33121,0,0,1-4.3682-8.251,40.025,40.025,0,0,1,0-21.7442,23.34713,23.34713,0,0,1,4.3682-8.2509,19.23051,19.23051,0,0,1,7.0376-5.2422,23.07731,23.07731,0,0,1,9.4155-1.8438q7.4736,0,11.9888,3.2515a19.848,19.848,0,0,1,6.746,8.4937l-6.5034,3.3007a11.80073,11.80073,0,0,0-4.4658-6.0185,13.39939,13.39939,0,0,0-7.7656-2.1358,15.53082,15.53082,0,0,0-6.1153,1.1162,11.95991,11.95991,0,0,0-4.3681,3.10648,13.0739,13.0739,0,0,0-2.6211,4.75632,20.08361,20.08361,0,0,0-.8735,6.0669v8.5425a16.25966,16.25966,0,0,0,3.5429,10.8237q3.5427,4.2225,10.4351,4.2222,9.4146,0,13.5898-8.7363l5.6304,3.7856a19.894,19.894,0,0,1-7.2314,8.6397A21.15906,21.15906,0,0,1,236.0757,543.81352Z" fill="#333e48"/><path d="M270.1467,480.81452a4.73875,4.73875,0,0,1-3.6399-1.2134,4.472,4.472,0,0,1-1.1162-3.1548v-1.2617a4.47827,4.47827,0,0,1,1.1162-3.1553,6.06685,6.06685,0,0,1,7.2803,0,4.48459,4.48459,0,0,1,1.1162,3.1553v1.2617a4.47826,4.47826,0,0,1-1.1162,3.1548A4.74339,4.74339,0,0,1,270.1467,480.81452Zm-3.8825,11.7456h7.7656v50.0884h-7.7656Z" fill="#333e48"/><path d="M309.3638,543.81352a22.48893,22.48893,0,0,1-9.2705-1.8442,19.96356,19.96356,0,0,1-7.086-5.2906,24.24133,24.24133,0,0,1-4.5625-8.25092,37.212,37.212,0,0,1,0-21.59868,24.20556,24.20556,0,0,1,4.5625-8.29932,20.00345,20.00345,0,0,1,7.086-5.29048,22.48821,22.48821,0,0,1,9.2705-1.8438,21.29557,21.29557,0,0,1,9.0273,1.8379,20.00684,20.00684,0,0,1,6.7947,5.0796,22.63831,22.63831,0,0,1,4.3201,7.69,30.357,30.357,0,0,1,1.5048,9.769v3.67678H294.9971v2.32952a17.13452,17.13452,0,0,0,1.0195,5.9703,14.16326,14.16326,0,0,0,2.9121,4.8046,13.31023,13.31023,0,0,0,4.6592,3.2037,16.00413,16.00413,0,0,0,6.2612,1.1645,15.23477,15.23477,0,0,0,8.2993-2.2324,14.64768,14.64768,0,0,0,5.4849-6.4067l5.5332,4.0053a19.33175,19.33175,0,0,1-7.5718,8.3516A22.83993,22.83993,0,0,1,309.3638,543.81352Zm0-45.9145a14.7848,14.7848,0,0,0-5.8242,1.1103,13.08125,13.08125,0,0,0-4.5137,3.1353,14.69736,14.69736,0,0,0-2.961,4.7744,16.50419,16.50419,0,0,0-1.0678,6.0302v.6748h27.6655v-1.0615q0-6.65625-3.6401-10.6592A12.42456,12.42456,0,0,0,309.3638,497.899Z" fill="#333e48"/><path d="M354.8896,542.64852q-4.07655,0-6.164-2.2749a8.46536,8.46536,0,0,1-2.0869-5.9576v-34.9638h-8.251v-6.8921h4.6592q2.52285,0,3.4463-1.0195a5.29194,5.29194,0,0,0,.9216-3.5425v-9.3194h6.9895v13.8814h10.9692v6.8921H354.4043v36.3047h10.1924v6.8916Z" fill="#333e48"/><path d="M408.7637,492.56012h7.6689l-22.4233,61.7373a27.53487,27.53487,0,0,1-1.7476,3.7368,7.2746,7.2746,0,0,1-2.1352,2.3784,8.4932,8.4932,0,0,1-3.1548,1.26218,23.44427,23.44427,0,0,1-4.6109.38822h-3.9799v-6.8921h7.8628l3.7856-10.66112-18.7349-51.94968h7.7657l12.0371,34.0063,2.3296,8.1392h.4853l2.7178-8.1392Z" fill="#333e48"/><path d="M120.8643,637.56152l-2.4161-7.67872H107.749l-2.373,7.67872H99.5947l10.0957-30.1123h7.0742l10.0098,30.1123Zm-7.6797-24.9345h-.2149l-3.8398,12.38078h7.9375Z" fill="#333e48"/><path d="M151.1904,637.56152l-2.416-7.67872H138.0752l-2.3711,7.67872h-5.7812l10.0937-30.1123h7.0762l10.0078,30.1123Zm-7.6797-24.9345h-.2148l-3.8398,12.38078h7.9375Z" fill="#333e48"/><path d="M180.6553,624.836H168.1025v12.7255h-5.6953v-30.1123h5.6953v12.3379h12.5528v-12.3379h5.6953v30.1123h-5.6953Z" fill="#333e48"/><path d="M203.9951,623.92972l-4.0117,4.74608v8.88572h-5.6953v-30.1123h5.6953v14.8409h.2148l4.2715-5.6504,7.4629-9.1905h6.5567L208.0068,620.003l11.3457,17.5585h-6.7734Z" fill="#333e48"/><path d="M229.7917,607.44922v18.5079a8.63569,8.63569,0,0,0,1.3597,5.3066q1.3593,1.76955,4.5937,1.7686,3.2373,0,4.5957-1.7686a8.63578,8.63578,0,0,0,1.3594-5.3066v-18.5079h5.6074v17.7754a23.134,23.134,0,0,1-.625,5.7364,9.789,9.789,0,0,1-2.0058,4.0136,8.10384,8.10384,0,0,1-3.6036,2.3506,16.829,16.829,0,0,1-5.3711.7539,16.58764,16.58764,0,0,1-5.371-.7539,8.10969,8.10969,0,0,1-3.5586-2.3506,9.57365,9.57365,0,0,1-1.9844-4.0136,23.88571,23.88571,0,0,1-.6035-5.7364v-17.7754Z" fill="#333e48"/></g></svg>