<svg xmlns="http://www.w3.org/2000/svg" xmlns:xlink="http://www.w3.org/1999/xlink" viewBox="0 0 633.1905 581.90432"><defs><clipPath id="a"><rect y="6.5772" width="633.1905" height="575.32712" fill="none"/></clipPath></defs><g clip-path="url(#a)"><path d="M79.2217,142.3643a105.3448,105.3448,0,0,0-8.0849,33.7129,10.3807,10.3807,0,0,1,13.6767.4785,92.63185,92.63185,0,0,1,92.3506-85.4356,6.83785,6.83785,0,1,0,0-13.6757,106.408,106.408,0,0,0-97.9424,64.9199Z" fill="#fff"/><path d="M169.5938,276.06352A92.63,92.63,0,0,1,84.543,184.1651a6.8379,6.8379,0,0,0-13.6758,0,106.21573,106.21573,0,0,0,98.1836,105.58,10.37985,10.37985,0,0,1,.543-13.6816Z" fill="#fff"/><path d="M251.2657,250.28423a6.83971,6.83971,0,0,0-9.67,0A92.31741,92.31741,0,0,1,177.1641,276.374a6.83789,6.83789,0,1,0,0,13.67578,105.94948,105.94948,0,0,0,74.1016-30.09368A6.83728,6.83728,0,0,0,251.2657,250.28423Z" fill="#fff"/><path d="M177.1641,290.0498a6.83789,6.83789,0,1,1,0-13.67578,92.31741,92.31741,0,0,0,64.4316-26.08979,6.83839,6.83839,0,0,1,9.67,9.67189,105.94948,105.94948,0,0,1-74.1016,30.09368Zm-41.3828-8.35928A106.2111,106.2111,0,0,1,70.8672,184.1651a6.8379,6.8379,0,0,1,13.6758,0,92.63,92.63,0,0,0,85.0508,91.89842,10.37985,10.37985,0,0,0-.543,13.6816A105.36726,105.36726,0,0,1,135.7813,281.69052ZM177.1641,77.4444a6.83785,6.83785,0,1,1,0,13.6757,92.63185,92.63185,0,0,0-92.3506,85.4356,10.3807,10.3807,0,0,0-13.6767-.4785A106.219,106.219,0,0,1,177.1641,77.4444Z" fill="#fff"/><path d="M233.459,127.4541a79.61473,79.61473,0,1,0,23.3155,56.293A79.08771,79.08771,0,0,0,233.459,127.4541Z" fill="#fff"/><path d="M121.0586,209.4912V158.003h11.168v3.8046h-6.4727v43.8789h6.4727v3.8047Z" fill="#333e48"/><path d="M233.2715,158.003v51.4882h-11.166v-3.8047h6.4707V161.8076h-6.4707V158.003Z" fill="#333e48"/><path d="M146.9942,194.2061q0,1.54395.0478,3.6367.04845,2.09175.1299,4.248.07905,2.15625.1934,4.1192.1113,1.9629.2724,3.2812h-6.5966V173.126q0-4.69635-.1612-8.5117-.1596-3.8145-.4834-6.6113h6.5977Z" fill="#333e48"/><path d="M175.7979,176.667v4.2168h-6.0498v24.3926h6.0498v4.2168H157.7774v-4.2168h5.9531V180.8838h-5.9531V176.667Z" fill="#333e48"/><path d="M189.3145,176.667a11.19089,11.19089,0,0,1,.3867,1.336c.1299.5468.2461,1.121.3535,1.7207q.15975.90225.291,1.7714l.2559,1.4454a21.23353,21.23353,0,0,1,6.2109-5.293,13.9275,13.9275,0,0,1,6.502-1.625,11.4091,11.4091,0,0,1,4.5527.8535,8.03061,8.03061,0,0,1,3.3321,2.7031,13.23994,13.23994,0,0,1,2.0429,4.7949,31.4274,31.4274,0,0,1,.6914,7.0977v14.4805a36.02427,36.02427,0,0,1-.9492,9.0273,15.47565,15.47565,0,0,1-2.6543,5.7305,9.33926,9.33926,0,0,1-4.1035,3.0234,15.28764,15.28764,0,0,1-5.3262.8848,11.51372,11.51372,0,0,1-3.1054-.4668,11.68207,11.68207,0,0,1-3.0098-1.3027l2.0918-4.8282a6.44183,6.44183,0,0,0,1.9805.918,8.79354,8.79354,0,0,0,2.5244.3691,7.29754,7.29754,0,0,0,2.7705-.498,4.6075,4.6075,0,0,0,2.0742-1.7539,9.59167,9.59167,0,0,0,1.3037-3.4434,28.43186,28.43186,0,0,0,.4502-5.5683V193.8838a39.30979,39.30979,0,0,0-.4023-6.2578,10.8142,10.8142,0,0,0-1.2071-3.7344,4.01,4.01,0,0,0-2.0127-1.7871,8.06031,8.06031,0,0,0-2.8154-.4492,7.545,7.545,0,0,0-3.3935.8223,12.47637,12.47637,0,0,0-3.043,2.123,15.75817,15.75817,0,0,0-2.4444,2.9434,13.52275,13.52275,0,0,0-1.5781,3.2832v18.666h-5.9531v-19.793a50.34047,50.34047,0,0,0-.5479-8.0605,41.16957,41.16957,0,0,0-1.0615-4.9727Z" fill="#333e48"/><path d="M129.7671,453.85212H97.5581v-5.3467h32.209Zm-4.1914,56.9302h-5.5195v-5.8604H107.1831v5.8604h-5.6035v-28.9146h23.9961Zm-.2578-45.8946-23.6523.085V459.627h23.6523Zm.0859,11.20608H101.6656v-5.34668h23.7382Zm-1.0703-33.106-21.7285.086v-5.34668h21.7285Zm-4.2773,56.67292v-12.5318h-12.959v12.5318Zm55.2617-23.4815-46.2363.0855v-5.2608h11.4629l2.4804-13.2168H132.3335v-5.2607h11.5489l1.8379-9.7954H129.3394V437.3848h42.4727V442.646H151.4937l-1.752,9.7949h17.6211L165.523,470.918h9.7949Zm-7.4414,34.774h-5.5176v-5.7745H140.7163v5.7745h-5.6035v-28.9996h32.7637Zm-5.5176-11.0357v-12.7031H140.6304v12.7031Zm-.8554-42.2158H148.8003l-2.4804,13.3022h13.8574Z" fill="#fff"/><path d="M271.7613,453.85212H194.0015v-5.3467h77.7598ZM260.2984,464.8018H204.6949V459.627h55.6035Zm0,11.12062H204.6949v-5.1753h55.6035Zm-2.0098,35.0308H252.771v-6.0313H212.6499v6.0313h-5.5175v-29.0855h51.1562Zm-.0859-68.521-50.6426.1279V437.3848h50.6426Zm-5.4317,57.2285v-12.5318H212.6499v12.5318Z" fill="#fff"/><path d="M368.2046,495.4698H333.773v5.94532q0,9.5376-10.1387,9.5381h-5.6875l-2.0957-5.2608h7.9551q4.19235,0,4.1934-3.84962v-6.373H290.4449v-5.34668h37.5547v-3.6787q8.9355-3.3363,12.7871-6.2442H308.023V475.2808h42.2617v4.66262a131.089,131.089,0,0,1-16.5117,9.2812v.8985h34.4316Zm-3.5918-15.86918h-5.1347v-8.8535h-59.752v9.3672h-5.6035v-14.3711H301.48v-26.0918q6.07035-.59835,13.3028-5.7739l2.8222,3.935a25.16566,25.16566,0,0,1-10.6074,5.4322v3.5932h10.9492v4.4483H306.9976v4.6621h10.9492v4.3618H306.9976v5.4331h45.4668v-5.4331H342.0269v-4.2769h10.4375v-5.0039H342.1128v-4.3628h10.3516v-4.6626H340.3589v-5.1753H357.896v28.8287h6.7168Zm-24.2539-33.1909-2.9922,3.6782a45.74022,45.74022,0,0,0-6.6308-5.0898,51.10079,51.10079,0,0,1-7.7852,5.34668l-3.5078-3.08008a33.9053,33.9053,0,0,0,7.2734-4.02,74.67511,74.67511,0,0,0-8.4277-2.7373l2.1817-3.93562a79.07091,79.07091,0,0,1,9.539,3.07962,36.50484,36.50484,0,0,0,5.0899-5.8594l3.5918,2.8657a27.0652,27.0652,0,0,1-4.4473,5.1753A31.92964,31.92964,0,0,1,340.3589,446.40972Zm.5137,15.5688-3.5918,2.82328a39.66467,39.66467,0,0,0-7.1855-4.40528,46.28984,46.28984,0,0,1-8.2129,4.40528l-3.25-2.56638a42.33453,42.33453,0,0,0,7.9121-4.5337,43.41632,43.41632,0,0,0-7.2715-3.33692l3.207-2.69388a53.40754,53.40754,0,0,1,7.5293,3.293,36.41664,36.41664,0,0,0,4.832-4.106l3.9356,2.0103a21.47158,21.47158,0,0,1-4.875,4.66258A31.83964,31.83964,0,0,1,340.8726,461.97852Z" fill="#fff"/><path d="M464.5621,495.4698H430.1304v5.94532q0,9.5376-10.1367,9.5381h-5.6895l-2.0957-5.2608h7.9551q4.19235,0,4.1914-3.84962v-6.373H386.8023v-5.34668H424.355v-3.6787q8.9415-3.3363,12.791-6.2442H404.3804V475.2808h42.2598v4.66262a130.9103,130.9103,0,0,1-16.5098,9.2812v.8985h34.4317Zm-3.5918-15.86918h-5.1348v-8.8535h-59.752v9.3672H390.48v-14.3711h7.3574v-26.0918q6.07335-.59835,13.3028-5.7739l2.8222,3.935a25.15354,25.15354,0,0,1-10.6074,5.4322v3.5932h10.9492v4.4483H403.355v4.6621h10.9492v4.3618H403.355v5.4331h45.4668v-5.4331H438.3863v-4.2769h10.4355v-5.0039H438.4703v-4.3628h10.3515v-4.6626H436.7163v-5.1753h17.5372v28.8287h6.7168Zm-22.7305-18.5815-3.8965,3.563a41.2766,41.2766,0,0,0-6.7852-8.0962q-5.73915,6.39465-9.4335,8.1367l-3.8555-3.2383q4.3476-2.06835,9.4336-7.7324a49.62319,49.62319,0,0,0-8.2442-4.4546l3.3633-3.479a66.48938,66.48938,0,0,1,7.711,4.2104,24.44478,24.44478,0,0,0,2.625-6.0332h-12.879V438.836h6.9043v-5.21h4.4317v5.21h8.1953v5.0595h-1.623a32.16176,32.16176,0,0,1-3.6758,8.7051A39.76035,39.76035,0,0,1,438.2398,461.01912Z" fill="#fff"/><path d="M562.3296,453.68172l-3.0781,4.4477q-14.5869-3.5925-22.8398-8.2973v3.8496H507.4956v-4.2354q-12.48915,6.4593-22.4121,8.4263l-2.8222-4.4907q24.0351-5.85945,40.0351-19.5899l5.2598,1.7534a7.26764,7.26764,0,0,1-1.4981,1.4966Q540.2583,448.84792,562.3296,453.68172Zm-9.1113,24.5078H491.1148v-20.0601h62.1035Zm-5.0879,32.8486h-5.2617v-3.4219H501.5523v3.4219h-5.2617v-28.3574h51.8398Zm-28.5293-37.4678V462.877H496.3746v10.6933Zm23.2676,19.333V487.3858H501.5523v5.51752Zm0,10.0943v-5.6035H501.5523v5.6035Zm-28.957-33.6621-4.4043,3.0796a30.81777,30.81777,0,0,0-7.7852-5.94532l4.4473-2.566A21.99438,21.99438,0,0,1,513.9117,469.33552Zm20.7461-20.4019a53.92791,53.92791,0,0,1-12.0196-8.7685,65.6501,65.6501,0,0,1-13.9004,8.7685Zm13.3027,24.6367V462.877H524.8628v10.6933Zm-5.1777-8.1699a20.36651,20.36651,0,0,1-7.6133,6.8438l-4.7051-2.3521q5.60445-3.1647,7.6992-6.331Z" fill="#fff"/><path d="M130.1695,383.93172l-1.6348,1.8808a38.19852,38.19852,0,0,1-13.9844-9.102l.0352,6.8701h8.2051v15.1099h-2.2325v-2.0201H106.3433v2.0201h-2.3008v-15.1099h8.2403v-6.8701q-3.6183,5.5341-13.0723,8.6626l-1.6524-1.8628q8.38185-2.21415,11.9844-6.7998h-9.998v-2.1963h12.7383v-3.3911q-4.19835.42252-10.543.6152l-1.5098-2.126q14.98545-.0534,23.9297-2.5127l1.6875,1.6875a77.90837,77.90837,0,0,1-11.2617,2.0552v3.6719h12.9141v2.1963l-10.0684-.03472A37.44769,37.44769,0,0,0,130.1695,383.93172Zm-9.6114,4.9375v-3.0923h-14.25v3.0923Zm0,5.6401V391.0308h-14.25v3.47852Z" fill="#fff"/><path d="M151.30553,385.54792a34.28747,34.28747,0,0,1-5.7969,11.2636l2.0547,1.30028a33.51974,33.51974,0,0,0,5.8691-11.26268Zm-3.707-9.751-1.4766,1.8452a12.99614,12.99614,0,0,1,5.5352,4.2866l1.5449-2.0903A13.22281,13.22281,0,0,0,147.59853,375.79692Zm1.7207-7.87112-1.6504,1.687a10.60575,10.60575,0,0,1,5.3242,4.07572l1.6504-1.7749A10.76926,10.76926,0,0,0,149.31923,367.9258Z" fill="#fff"/><path d="M172.284,390.89072v-6.6255a20.40913,20.40913,0,0,0,4.5,3.2343l1.4395-1.9516a15.08889,15.08889,0,0,1-7.168-6.2188h6.0078V377.168h-5.7441v-4.1997h4.3379v-2.1616h-4.3379v-3.7061h-2.2325v3.7417h-6.5175v-3.7417h-2.2325v3.7417h-4.3222v2.1602h4.3574v4.1992h-5.7285v2.1626h5.7988q-1.9482,3.654-7.0449,6.0781l1.6504,1.9507a21.99229,21.99229,0,0,0,2.7754-1.897v9.418a2.67139,2.67139,0,0,0,3.0234,3.0215h11.5078a2.80857,2.80857,0,0,0,2.2227-.9307,7.85768,7.85768,0,0,0,1.2734-3.6714l-2.2656-1.02a6.90448,6.90448,0,0,1-.668,2.8105,1.37432,1.37432,0,0,1-1.1758.6153h-10.7187a.85357.85357,0,0,1-.9668-.9668v-3.8818Zm-9.7148-17.9224h6.5527v4.1997h-6.5527Zm.2089,6.3608h5.9747a14.59232,14.59232,0,0,0,2.5996,3.9893h-11.1563A12.36855,12.36855,0,0,0,162.77813,379.32912Zm-2.7226,6.1494h9.998v3.2857h-9.998Z" fill="#fff"/><path d="M226.03341,396.93412l-1.6348,1.82668q-10.98045-5.99052-13.9511-20.18748-3.67095,14.4258-14.9688,20.18748l-1.7754-2.09038q11.1915-5.44695,14.1797-18.062h-11.9472V376.3418h12.2109a89.82243,89.82243,0,0,0,.2812-9.24218l2.4414.3516q.0879,5.376-.2109,8.8555h13.3184v2.2666h-11.086Q214.99726,390.60917,226.03341,396.93412Z" fill="#fff"/><path d="M273.84233,392.36572h-14.1445v2.4429q0,3.91695-4.1641,3.918h-2.3379l-.8594-2.1611h3.2676q1.71975,0,1.7207-1.5816v-2.6182h-15.4258v-2.1962h15.4258v-1.5113a21.90978,21.90978,0,0,0,5.2539-2.5649h-13.459v-2.021H266.479v1.915a53.59425,53.59425,0,0,1-6.7812,3.813v.3692h14.1445Zm-1.4766-6.5185h-2.1074V382.21h-24.5469v3.8476h-2.3008V380.1548h3.0215V369.43652a11.63935,11.63935,0,0,0,5.4649-2.372l1.1582,1.6167a10.32826,10.32826,0,0,1-4.3574,2.2314v1.4756h4.498v1.82758h-4.498v1.91512h4.498v1.792h-4.498v2.23188h18.6777v-2.23188h-4.2871V376.166h4.2871v-2.0556h-4.252v-1.7925h4.252v-1.9146h-4.9727v-2.1259h7.2051v11.8418h2.7578Zm-9.9629-13.6343-1.2304,1.5103a18.58987,18.58987,0,0,0-2.7227-2.09042,20.89066,20.89066,0,0,1-3.1973,2.19632l-1.4414-1.2646a13.87078,13.87078,0,0,0,2.9864-1.6519,30.71387,30.71387,0,0,0-3.461-1.125l.8965-1.6162a32.41476,32.41476,0,0,1,3.918,1.2651,14.94736,14.94736,0,0,0,2.0918-2.4072l1.4765,1.1778a11.2229,11.2229,0,0,1-1.8281,2.1259A13.09437,13.09437,0,0,1,262.40283,372.21292Zm.211,6.3955-1.4746,1.1597a16.291,16.291,0,0,0-2.9532-1.8101,18.9329,18.9329,0,0,1-3.373,1.8101l-1.336-1.0547a17.36532,17.36532,0,0,0,3.252-1.8623,17.81074,17.81074,0,0,0-2.9883-1.3701l1.3184-1.1074a21.86557,21.86557,0,0,1,3.0918,1.353,14.93935,14.93935,0,0,0,1.9863-1.6865l1.6152.8261a8.77854,8.77854,0,0,1-2.0019,1.91458A13.04232,13.04232,0,0,1,262.61383,378.60842Z" fill="#fff"/><path d="M322.30066,396.45952l-1.5469,2.0562a41.96909,41.96909,0,0,1-14.5117-7.0987q-4.7988,3.91845-15.0762,7.2393l-1.7207-2.0908q9.94335-2.75835,15.0391-6.6944a23.93474,23.93474,0,0,1-6.8692-11.7549,19.36531,19.36531,0,0,1-2.6015,4.6387l-1.8614-1.70412a23.1865,23.1865,0,0,0,3.5664-5.78118h-6.0449v-2.1607h14.0938v-6.0093h2.2656v5.9737H321.369v2.1616h-6.0097q-1.5792,9.17205-7.2735,14.6006Q313.26841,393.77152,322.30066,396.45952Zm-9.295-21.2246h-13.5976a22.14054,22.14054,0,0,0,6.8691,13.0898A22.4631,22.4631,0,0,0,313.00566,375.23492Z" fill="#fff"/><path d="M369.84689,392.36572h-14.1465v2.4429q0,3.91695-4.1641,3.918h-2.3359l-.8614-2.1611h3.2676q1.72275,0,1.7227-1.5816v-2.6182h-15.4258v-2.1962h15.4258v-1.5113a21.92694,21.92694,0,0,0,5.2519-2.5649h-13.457v-2.021h17.3594v1.915a53.767,53.767,0,0,1-6.7832,3.813v.3692h14.1465Zm-1.4766-6.5185h-2.1094V382.21H341.714v3.8476h-2.3007V380.1548h3.0214V369.43652a11.6364,11.6364,0,0,0,5.4668-2.372l1.1582,1.6167a10.33577,10.33577,0,0,1-4.3593,2.2314v1.4756h4.5v1.82758h-4.5v1.91512h4.5v1.792h-4.5v2.23188h18.6797v-2.23188H359.091V376.166h4.2891v-2.0556h-4.252v-1.7925h4.252v-1.9146h-4.9727v-2.1259h7.2031v11.8418h2.7598Zm-9.9629-13.6343-1.2305,1.5103a18.79168,18.79168,0,0,0-2.7226-2.09042,21.00425,21.00425,0,0,1-3.1992,2.19632l-1.4395-1.2646a13.96152,13.96152,0,0,0,2.9863-1.6519,30.964,30.964,0,0,0-3.4609-1.125l.8965-1.6162a32.63795,32.63795,0,0,1,3.918,1.2651,14.93049,14.93049,0,0,0,2.0898-2.4072l1.4766,1.1778a11.21284,11.21284,0,0,1-1.8262,2.1259A13.15639,13.15639,0,0,1,358.40739,372.21292Zm.2109,6.3955-1.4765,1.1597a16.27638,16.27638,0,0,0-2.9512-1.8101,18.96927,18.96927,0,0,1-3.375,1.8101l-1.3359-1.0547a17.30338,17.30338,0,0,0,3.2519-1.8623,17.85281,17.85281,0,0,0-2.9863-1.3701l1.3164-1.1074a22.0015,22.0015,0,0,1,3.0938,1.353,14.83932,14.83932,0,0,0,1.9843-1.6865l1.6172.8261a8.85872,8.85872,0,0,1-2.0019,1.91458A13.13116,13.13116,0,0,1,358.61829,378.60842Z" fill="#fff"/><path d="M392.99467,379.04742q3.5508,3.9888,3.5508,7.7837a4.28443,4.28443,0,0,1-.959,2.9341,3.37492,3.37492,0,0,1-2.6797,1.0898,13.96042,13.96042,0,0,1-2.2832-.228l-.6504-2.3374a12.69771,12.69771,0,0,0,2.7051.4746,1.78677,1.78677,0,0,0,1.248-.52742,1.83406,1.83406,0,0,0,.5625-1.40568,8.43988,8.43988,0,0,0-.9648-3.3736,13.47459,13.47459,0,0,0-2.9004-3.9174l3.4258-8.8037h-5.2168v27.9902h-2.3028v-30.2212h9.8555v2.231Zm24.2305,13.2309a12.136,12.136,0,0,1-1.2305,4.12848A2.70914,2.70914,0,0,1,413.483,397.69h-2.7403q-2.74215,0-2.7422-2.8814v-9.2949h-3.707q-.10545,5.65725-2.2051,8.4775-2.1006,2.81985-7.7929,4.7354l-1.4766-2.021q5.2881-1.563,7.2578-4.0415,1.96875-2.4771,1.9844-7.1152h-4.8145v-2.3023h18.8203v2.2671h-5.871v8.75a1.34039,1.34039,0,0,0,.2812.8169.81661.81661,0,0,0,.668.3774h2.2324q.6855,0,1.0449-1.1245a17.89534,17.89534,0,0,0,.6074-2.9165Zm-2.0215-15.93652-2.2305.03522v-3.0928h-13.248v3.0928h-2.2676V371.0528h7.7129v-3.98828h2.3027v3.9536h7.7305Zm-2.9512,3.39062h-11.877v-2.3012h11.877Z" fill="#fff"/><path d="M465.85144,392.36572h-14.1446v2.4429q0,3.91695-4.164,3.918h-2.336l-.8613-2.1611h3.2676q1.7226,0,1.7226-1.5816v-2.6182H433.908v-2.1962h15.4277v-1.5113a21.928,21.928,0,0,0,5.252-2.5649h-13.459v-2.021h17.3594v1.915a53.5891,53.5891,0,0,1-6.7813,3.813v.3692h14.1446Zm-1.4766-6.5185h-2.1074V382.21h-24.545v3.8476h-2.3027V380.1548h3.0235V369.43652a11.64089,11.64089,0,0,0,5.4628-2.372l1.1602,1.6167a10.35131,10.35131,0,0,1-4.3574,2.2314v1.4756h4.498v1.82758h-4.498v1.91512h4.498v1.792h-4.498v2.23188h18.6758v-2.23188h-4.2872V376.166h4.2872v-2.0556h-4.25v-1.7925h4.25v-1.9146h-4.9707v-2.1259h7.2031v11.8418h2.7578Zm-9.9609-13.6343-1.2325,1.5103a18.6867,18.6867,0,0,0-2.7226-2.09042,20.98443,20.98443,0,0,1-3.1973,2.19632l-1.4414-1.2646a13.93456,13.93456,0,0,0,2.9883-1.6519,30.96452,30.96452,0,0,0-3.461-1.125l.8946-1.6162a32.40767,32.40767,0,0,1,3.9179,1.2651,14.94241,14.94241,0,0,0,2.0918-2.4072l1.4766,1.1778a11.2229,11.2229,0,0,1-1.8281,2.1259A13.10545,13.10545,0,0,1,454.41394,372.21292Zm.2089,6.3955-1.4746,1.1597a16.34453,16.34453,0,0,0-2.9511-1.8101,19.04757,19.04757,0,0,1-3.375,1.8101l-1.334-1.0547a17.40859,17.40859,0,0,0,3.25-1.8623,17.81843,17.81843,0,0,0-2.9883-1.3701l1.3184-1.1074a21.86392,21.86392,0,0,1,3.0917,1.353,14.931,14.931,0,0,0,1.9864-1.6865l1.6152.8261a8.78058,8.78058,0,0,1-2.0019,1.91458A12.99522,12.99522,0,0,1,454.62284,378.60842Z" fill="#fff"/><path d="M513.96792,396.96932h-31.9785v-2.2661h14.9004v-8.2413h-10.7363v-2.2666h10.7363v-7.1684h-7.9609a18.66454,18.66454,0,0,1-4.8145,6.9048l-2.3183-1.2124a19.4119,19.4119,0,0,0,6.414-13.0367l2.3711.6851a26.38774,26.38774,0,0,1-.8262,4.4282h7.0996v-7.6963h2.3711v7.6607H511.63v2.2666h-12.4043v7.1338h10.5782v2.26608h-10.5782v8.24072h14.7422Z" fill="#fff"/><path d="M562.3296,375.19922l-1.2636,1.8277a37.483,37.483,0,0,1-9.3829-3.4082v1.5805H539.8042V373.46a35.57927,35.57927,0,0,1-9.205,3.4614l-1.1602-1.8452a38.94939,38.94939,0,0,0,16.4453-8.0469l2.1621.7207a3.0285,3.0285,0,0,1-.6152.61478A34.401,34.401,0,0,0,562.3296,375.19922Zm-3.7402,10.0684H533.0777v-8.2407h25.5117Zm-2.0918,13.49318h-2.1621v-1.40528H537.3628v1.40528h-2.1601V387.11232h21.2949Zm-11.7207-15.39108v-4.3926h-9.5391v4.3926Zm9.5586,7.9418v-2.2666H537.3628v2.2666Zm0,4.1465V393.1568H537.3628V395.458Zm-11.8945-13.8276-1.8106,1.2651a12.614,12.614,0,0,0-3.1973-2.4423l1.8282-1.0538A9.02159,9.02159,0,0,1,542.441,381.63042Zm8.5214-8.3809a22.1319,22.1319,0,0,1-4.9375-3.6025,26.99821,26.99821,0,0,1-5.7089,3.6025Zm5.4649,10.1202v-4.3926H546.939v4.3926Zm-2.125-3.3555a8.38932,8.38932,0,0,1-3.1289,2.811l-1.9317-.9658a9.12774,9.12774,0,0,0,3.1621-2.6011Z" fill="#fff"/></g></svg>