<svg xmlns="http://www.w3.org/2000/svg" xmlns:xlink="http://www.w3.org/1999/xlink" viewBox="0 0 2900.9668 708.6573"><defs><clipPath id="a"><rect x="-0.0009" width="2900.9677" height="708.6573" fill="none"/></clipPath></defs><g clip-path="url(#a)"><text transform="translate(2037.90141 381.83207)" font-size="80" fill="#a39b4b" font-family="FiraSans-Bold, Fira Sans" font-weight="700">Se<tspan x="90.07715" y="0" letter-spacing="-0.00699em">s</tspan><tspan x="127.91699" y="0" letter-spacing="0.00001em">sion 2020–2021</tspan></text><rect x="1925.9415" y="242.8897" width="3" height="228.4453" fill="#a39b4b"/><path d="M158.4415,271.5655a210.7608,210.7608,0,0,0-16.168,67.4238,20.7651,20.7651,0,0,1,27.3535.959c7.3379-95.5899,87.2227-170.8672,184.6934-170.8672a13.6748,13.6748,0,1,0,0-27.3496,212.81779,212.81779,0,0,0-195.8789,129.834Z" fill="#a39b4b"/><path d="M339.1817,538.9561c-94.9512-7.6836-169.666-86.9629-170.0957-183.791a13.6758,13.6758,0,1,0-27.3516,0A212.43017,212.43017,0,0,0,338.0977,566.3174a20.74813,20.74813,0,0,1,1.084-27.3613Z" fill="#a39b4b"/><path d="M502.5157,487.3995a13.67181,13.67181,0,0,0-19.3379,0,184.6301,184.6301,0,0,1-128.8574,52.1757,13.6748,13.6748,0,0,0,0,27.3496,211.8591,211.8591,0,0,0,148.1953-60.1855A13.66958,13.66958,0,0,0,502.5157,487.3995Z" fill="#a39b4b"/><path d="M354.3204,141.7276A212.42734,212.42734,0,0,0,142.2715,338.9854a20.78366,20.78366,0,0,1,27.3496.959c7.3399-95.5879,87.2286-170.8672,184.6993-170.8672a13.6748,13.6748,0,1,0,0-27.3496ZM339.1797,538.9541c-94.9492-7.6816-169.6679-86.9589-170.0879-183.789a13.67965,13.67965,0,1,0-27.3593,0A212.43211,212.43211,0,0,0,338.0997,566.3135a20.75119,20.75119,0,0,1,1.08-27.3594Zm163.3379-51.5507a13.6647,13.6647,0,0,0-19.3398,0,184.62871,184.62871,0,0,1-128.8574,52.1699,13.6748,13.6748,0,0,0,0,27.3496,211.90179,211.90179,0,0,0,148.1972-60.1777A13.67887,13.67887,0,0,0,502.5176,487.4034Z" fill="#a39b4b"/><path d="M466.8985,241.7471a159.2297,159.2297,0,1,0,46.6289,112.5781A158.1427,158.1427,0,0,0,466.8985,241.7471Zm-202.4473,68.709H251.5v87.75h12.9512v7.6094H242.1114V302.837h22.3398Zm17.6289,95.3594V333.085q0-9.3867-.3301-17.0195-.31335-7.63485-.9589-13.2285h13.1894v72.4082q0,3.09075.0996,7.2695.0909,4.1865.2598,8.5.1494,4.30665.3809,8.2402c.1503,2.6094.33,4.8008.5488,6.5606Zm69.5098-57.211H339.4903v48.7813h12.0996v8.4297H315.5508v-8.4297h11.8985V348.6045H315.5508v-8.4394h36.0391Zm76.2695,50.1309a72.41573,72.41573,0,0,1-1.9004,18.0605,31.0343,31.0343,0,0,1-5.3105,11.4493,18.502,18.502,0,0,1-8.209,6.0507,30.52016,30.52016,0,0,1-10.6504,1.7676,24.68239,24.68239,0,0,1-12.2305-3.539l4.1914-9.6485a12.70711,12.70711,0,0,0,3.9493,1.8301,17.38812,17.38812,0,0,0,5.0488.7383,14.67277,14.67277,0,0,0,5.541-.9883,9.33551,9.33551,0,0,0,4.1504-3.5117,19.093,19.093,0,0,0,2.6094-6.8887,56.86912,56.86912,0,0,0,.9004-11.1309v-28.33a79.09181,79.09181,0,0,0-.8008-12.5098,21.7158,21.7158,0,0,0-2.4199-7.4707,7.97752,7.97752,0,0,0-4.0196-3.5684,16.067,16.067,0,0,0-5.6308-.9004,15.16049,15.16049,0,0,0-6.7891,1.6407,25.00805,25.00805,0,0,0-6.0898,4.25,31.74376,31.74376,0,0,0-4.8907,5.8886,27.16089,27.16089,0,0,0-3.1484,6.5606v37.3301H370.25V366.2354a100.7707,100.7707,0,0,0-1.0898-16.1211,81.818,81.818,0,0,0-2.1309-9.9492h11.5899a22.63014,22.63014,0,0,1,.7695,2.6797c.2617,1.0898.4903,2.2402.711,3.4414.2089,1.1992.4101,2.3789.58,3.539l.5098,2.8907q6.17865-7.336,12.4297-10.5801a27.77963,27.77963,0,0,1,13-3.2598,22.71041,22.71041,0,0,1,9.0996,1.709,16.01621,16.01621,0,0,1,6.6699,5.4102,26.32746,26.32746,0,0,1,4.0801,9.5898,62.41947,62.41947,0,0,1,1.3906,14.1895Zm38.6699,7.0801h-22.33v-7.6094h12.9394v-87.75H444.1993V302.837h22.33Z" fill="#a39b4b"/><path d="M626.6651,336.8291V236.3584h12.0908v89.8194h42.752v10.6513Z" fill="#a39b4b"/><path d="M703.3858,245.1387q-3.74565,0-5.3984-1.7988a6.63339,6.63339,0,0,1-1.6543-4.6787v-1.8711a6.63919,6.63919,0,0,1,1.6543-4.6778q1.65375-1.7988,5.3984-1.7998,3.74115,0,5.3975,1.7998a6.64469,6.64469,0,0,1,1.6552,4.6778v1.8711a6.63888,6.63888,0,0,1-1.6552,4.6787Q707.12655,245.1402,703.3858,245.1387Zm-5.7578,17.418h11.5156v74.2724H697.628Z" fill="#a39b4b"/><path d="M733.6133,336.8291V262.5567H745.129v11.9531h.5742a24.222,24.222,0,0,1,7.7021-9.9746q4.9659-3.70455,13.3145-3.7061,11.5137,0,18.209,7.4121,6.69285,7.4151,6.6933,20.9434v47.6445H780.1065V291.1006q0-20.05215-16.8408-20.0527a25.91387,25.91387,0,0,0-6.6953.8662,19.47713,19.47713,0,0,0-5.8282,2.5977,12.83133,12.83133,0,0,0-4.1025,4.3994,12.532,12.532,0,0,0-1.5107,6.2754v51.6425Z" fill="#a39b4b"/><path d="M874.3877,334.3829q0,15.3999-8.6367,24.1816-8.6367,8.77875-24.3271,8.7812a39.36475,39.36475,0,0,1-15.6172-2.8183,31.87663,31.87663,0,0,1-10.8672-7.4473l6.7637-7.9521a26.16484,26.16484,0,0,0,8.6367,5.9267,29.01443,29.01443,0,0,0,11.3721,2.0703q10.0752,0,15.6181-5.5634,5.5401-5.57085,5.541-16.4121V324.876h-.5752a24.44017,24.44017,0,0,1-8.6357,10.2598,23.75116,23.75116,0,0,1-13.0986,3.4219,28.24071,28.24071,0,0,1-12.5235-2.7354,26.53342,26.53342,0,0,1-9.5-7.7725,37.40673,37.40673,0,0,1-6.0459-12.2353,61.26805,61.26805,0,0,1,0-32.2432,37.45533,37.45533,0,0,1,6.0459-12.2353,26.56368,26.56368,0,0,1,9.5-7.7725,28.2266,28.2266,0,0,1,12.5235-2.7344,25.292,25.292,0,0,1,13.3144,3.3477,20.90714,20.90714,0,0,1,8.4199,10.333h.5752V262.5567h11.5166Zm-30.372-6.0459a25.98228,25.98228,0,0,0,7.3408-1.0127,17.81033,17.81033,0,0,0,5.9736-2.9659,14.8432,14.8432,0,0,0,4.0303-4.7724,13.73036,13.73036,0,0,0,1.5107-6.583V285.3711a11.91515,11.91515,0,0,0-1.4384-5.7158,13.51627,13.51627,0,0,0-4.0303-4.5566,20.87236,20.87236,0,0,0-6.0459-2.9639,24.35117,24.35117,0,0,0-7.3408-1.0869q-9.7896,0-15.5459,6.2217-5.75835,6.2211-5.7578,16.0576v12.7305q0,9.8364,5.7578,16.0585Q834.22515,328.336,844.0157,328.337Z" fill="#a39b4b"/><path d="M944.629,324.876h-.5752a35.54452,35.54452,0,0,1-2.8067,5.0606,18.96642,18.96642,0,0,1-4.1025,4.417,19.19486,19.19486,0,0,1-5.9014,3.0634,25.77155,25.77155,0,0,1-8.0615,1.1407q-11.518,0-18.2803-7.4141-6.769-7.4121-6.7656-20.9434V262.5567h11.5156v45.7275q0,20.0538,16.9844,20.0528a25.7281,25.7281,0,0,0,6.6943-.8663,18.46974,18.46974,0,0,0,5.7569-2.5947,13.11623,13.11623,0,0,0,4.0312-4.3994,12.84,12.84,0,0,0,1.5108-6.4209v-51.499h11.5156v74.2724H944.629Z" fill="#a39b4b"/><path d="M986.3711,245.1387q-3.74415,0-5.3984-1.7988a6.63384,6.63384,0,0,1-1.6543-4.6787v-1.8711a6.63964,6.63964,0,0,1,1.6543-4.6778q1.6524-1.7988,5.3984-1.7998,3.7428,0,5.3975,1.7998a6.64475,6.64475,0,0,1,1.6553,4.6778v1.8711a6.63894,6.63894,0,0,1-1.6553,4.6787Q990.11335,245.1402,986.3711,245.1387Zm-5.7568,17.418H992.129v74.2724H980.6143Z" fill="#a39b4b"/><path d="M1038.9102,338.5577q-10.3638,0-17.3437-3.959a39.38983,39.38983,0,0,1-12.0206-10.5801l8.2051-6.6211a32.20334,32.20334,0,0,0,9.6436,8.4199,25.108,25.108,0,0,0,12.3808,2.9512q7.3389,0,11.4414-3.166a11.50393,11.50393,0,0,0,1.2959-16.3379q-2.808-3.09375-10.1484-4.2461l-5.9014-.8633a49.2004,49.2004,0,0,1-9.5-2.2314,26.413,26.413,0,0,1-7.5566-4.0303,17.30115,17.30115,0,0,1-5.0381-6.2617,20.395,20.395,0,0,1-1.7988-8.9239,21.43624,21.43624,0,0,1,2.0146-9.5722,19.27378,19.27378,0,0,1,5.541-6.8379,24.22,24.22,0,0,1,8.4209-4.1016,38.92337,38.92337,0,0,1,10.5079-1.3672q9.06885,0,15.1845,3.1661a34.08555,34.08555,0,0,1,10.7256,8.7802l-7.6289,6.9092a22.899,22.899,0,0,0-7.1982-6.2607,23.16334,23.16334,0,0,0-11.9453-2.8077q-7.2012,0-10.8692,3.0958a10.4354,10.4354,0,0,0-3.6699,8.4199q0,5.4726,3.6699,7.916,3.67095,2.4507,10.5801,3.5996l5.7578.8633q12.378,1.872,17.5606,7.125,5.1825,5.25735,5.1826,13.7461,0,10.7958-7.3418,16.9853Q1051.7212,338.5592,1038.9102,338.5577Z" fill="#a39b4b"/><path d="M1102.1026,336.8291q-6.0483,0-9.1406-3.373a12.5522,12.5522,0,0,1-3.0948-8.834V272.7754h-12.2353V262.5567h6.9092q3.74115,0,5.1103-1.5127,1.3653-1.51035,1.3672-5.2539V241.9717h10.3633v20.585h16.2656v10.2187h-16.2656v53.835h15.1142v10.2187Z" fill="#a39b4b"/><path d="M1141.9727,245.1387q-3.74265,0-5.3965-1.7988a6.63048,6.63048,0,0,1-1.6562-4.6787v-1.8711a6.63628,6.63628,0,0,1,1.6562-4.6778q1.6524-1.7988,5.3965-1.7998,3.74265,0,5.3984,1.7998a6.64882,6.64882,0,0,1,1.6553,4.6778v1.8711a6.643,6.643,0,0,1-1.6553,4.6787Q1145.71585,245.1402,1141.9727,245.1387Zm-5.7568,17.418h11.5166v74.2724h-11.5166Z" fill="#a39b4b"/><path d="M1199.8389,338.5577a34.24054,34.24054,0,0,1-13.9639-2.7354,28.47471,28.47471,0,0,1-10.4335-7.7725,34.559,34.559,0,0,1-6.4786-12.2353,59.37963,59.37963,0,0,1,0-32.2432,34.6012,34.6012,0,0,1,6.4786-12.2353,28.50681,28.50681,0,0,1,10.4335-7.7725,34.22392,34.22392,0,0,1,13.9639-2.7344q11.08155,0,17.7764,4.8213a29.42332,29.42332,0,0,1,10.0039,12.5948l-9.6445,4.8945a17.49922,17.49922,0,0,0-6.6202-8.9248,19.88027,19.88027,0,0,0-11.5156-3.167,23.01562,23.01562,0,0,0-9.0683,1.6562,17.73913,17.73913,0,0,0-6.4795,4.6055,19.43093,19.43093,0,0,0-3.8848,7.0527,29.7764,29.7764,0,0,0-1.2959,8.9961v12.668q0,9.79095,5.2539,16.0488,5.253,6.2622,15.4746,6.2618,13.96005,0,20.1514-12.9551l8.3486,5.6142a29.49441,29.49441,0,0,1-10.7236,12.8116Q1210.4903,338.5567,1199.8389,338.5577Z" fill="#a39b4b"/><path d="M1266.9141,338.5577q-10.36515,0-17.3447-3.959a39.39525,39.39525,0,0,1-12.0195-10.5801l8.205-6.6211a32.21538,32.21538,0,0,0,9.6436,8.4199,25.10685,25.10685,0,0,0,12.3799,2.9512q7.34025,0,11.4424-3.166a11.50642,11.50642,0,0,0,1.2958-16.3379q-2.8065-3.09375-10.1484-4.2461l-5.9014-.8633a49.218,49.218,0,0,1-9.5-2.2314,26.39976,26.39976,0,0,1-7.5566-4.0303,17.31416,17.31416,0,0,1-5.0391-6.2617,20.40946,20.40946,0,0,1-1.7978-8.9239,21.4498,21.4498,0,0,1,2.0146-9.5722,19.26569,19.26569,0,0,1,5.542-6.8379,24.21373,24.21373,0,0,1,8.42-4.1016,38.92525,38.92525,0,0,1,10.5068-1.3672q9.07035,0,15.1865,3.1661a34.082,34.082,0,0,1,10.7246,8.7802l-7.6289,6.9092a22.899,22.899,0,0,0-7.1982-6.2607,23.16718,23.16718,0,0,0-11.9463-2.8077q-7.1997,0-10.8672,3.0958a10.43615,10.43615,0,0,0-3.6709,8.4199q0,5.4726,3.6709,7.916,3.66945,2.4507,10.5791,3.5996l5.7578.8633q12.378,1.872,17.5606,7.125,5.1825,5.25735,5.1816,13.7461,0,10.7958-7.3398,16.9853Q1279.7246,338.5592,1266.9141,338.5577Z" fill="#a39b4b"/><path d="M1378.0362,338.5577q-12.2358,0-20.8721-4.6788a44.275,44.275,0,0,1-14.6816-12.8828l8.9238-7.4853a39.0884,39.0884,0,0,0,11.8037,10.7246,30.44205,30.44205,0,0,0,15.2578,3.6699q10.796,0,16.4815-5.1816,5.6835-5.18265,5.6855-13.8184,0-7.19535-4.3183-11.083-4.317-3.8877-14.25-6.1904l-8.2041-1.8711q-13.81935-3.1641-21.087-9.5713-7.2714-6.40425-7.2714-18.0654a27.30008,27.30008,0,0,1,2.4482-11.8028,23.667,23.667,0,0,1,6.8379-8.6367,30.85519,30.85519,0,0,1,10.5068-5.2539,47.58119,47.58119,0,0,1,13.459-1.7998q11.36865,0,19.5039,4.1748a37.57968,37.57968,0,0,1,13.7471,12.2344l-9.0684,6.6211a31.32982,31.32982,0,0,0-10.0761-9.0684q-5.9034-3.309-14.6827-3.3105-9.64455,0-15.1855,4.1025-5.543,4.1031-5.542,12.3076,0,7.1982,4.6777,10.8672,4.6758,3.671,14.1787,5.8301l8.2041,1.8711q14.82435,3.3135,21.4483,10.0762,6.61965,6.766,6.6211,17.9921a31.8481,31.8481,0,0,1-2.375,12.5235,25.72138,25.72138,0,0,1-6.8369,9.5,31.82168,31.82168,0,0,1-10.8672,6.0449A45.13872,45.13872,0,0,1,1378.0362,338.5577Z" fill="#a39b4b"/><path d="M1460.3702,338.5577a33.48992,33.48992,0,0,1-13.6748-2.7354,29.45162,29.45162,0,0,1-10.5791-7.8447,36.89362,36.89362,0,0,1-6.8379-12.2354,53.61521,53.61521,0,0,1,0-32.0273,36.80135,36.80135,0,0,1,6.8379-12.3067,29.48529,29.48529,0,0,1,10.5791-7.8447,33.47316,33.47316,0,0,1,13.6748-2.7344,32.99208,32.99208,0,0,1,13.6025,2.7344,30.37034,30.37034,0,0,1,10.5791,7.8447,36.22132,36.22132,0,0,1,6.9102,12.3067,53.63613,53.63613,0,0,1,0,32.0273,36.30936,36.30936,0,0,1-6.9102,12.2354,30.33452,30.33452,0,0,1-10.5791,7.8447A33.00849,33.00849,0,0,1,1460.3702,338.5577Zm0-10.2207q9.35595,0,15.2578-5.7579,5.9004-5.75535,5.9013-17.5605V294.3662q0-11.80065-5.9013-17.5605-5.90475-5.75385-15.2578-5.7578-9.359,0-15.2578,5.7578-5.9049,5.7597-5.9024,17.5605v10.6524q0,11.80515,5.9024,17.5605Q1451.01265,328.33895,1460.3702,328.337Z" fill="#a39b4b"/><path d="M1540.5459,338.5577a34.22515,34.22515,0,0,1-13.9628-2.7354,28.46125,28.46125,0,0,1-10.4346-7.7725,34.58922,34.58922,0,0,1-6.4785-12.2353,59.35146,59.35146,0,0,1,0-32.2432,34.63151,34.63151,0,0,1,6.4785-12.2353,28.49332,28.49332,0,0,1,10.4346-7.7725,34.20855,34.20855,0,0,1,13.9628-2.7344q11.08155,0,17.7754,4.8213a29.42549,29.42549,0,0,1,10.0049,12.5948l-9.6445,4.8945a17.49522,17.49522,0,0,0-6.6211-8.9248,19.87534,19.87534,0,0,0-11.5147-3.167,23.02107,23.02107,0,0,0-9.0693,1.6562,17.72316,17.72316,0,0,0-6.4775,4.6055,19.418,19.418,0,0,0-3.8858,7.0527,29.74824,29.74824,0,0,0-1.2959,8.9961v12.668q0,9.79095,5.253,16.0488,5.25435,6.2622,15.4755,6.2618,13.95855,0,20.1514-12.9551l8.3486,5.6142a29.49589,29.49589,0,0,1-10.7246,12.8116Q1551.1978,338.5567,1540.5459,338.5577Z" fill="#a39b4b"/><path d="M1591.0674,245.1387q-3.7455,0-5.3974-1.7988a6.63444,6.63444,0,0,1-1.6553-4.6787v-1.8711a6.64024,6.64024,0,0,1,1.6553-4.6778q1.65225-1.7988,5.3974-1.7998,3.7413,0,5.3985,1.7998a6.64867,6.64867,0,0,1,1.6543,4.6778v1.8711a6.64285,6.64285,0,0,1-1.6543,4.6787Q1594.80915,245.1402,1591.0674,245.1387Zm-5.7588,17.418h11.5157v74.2724h-11.5157Z" fill="#a39b4b"/><path d="M1649.2198,338.5577a33.35705,33.35705,0,0,1-13.7471-2.7354,29.61125,29.61125,0,0,1-10.5068-7.8447,35.97035,35.97035,0,0,1-6.7657-12.2354,55.154,55.154,0,0,1,0-32.0273,35.893,35.893,0,0,1,6.7657-12.3067,29.64554,29.64554,0,0,1,10.5068-7.8447,33.34075,33.34075,0,0,1,13.7471-2.7344,31.591,31.591,0,0,1,13.3877,2.7256,29.6906,29.6906,0,0,1,10.0752,7.5323,33.59113,33.59113,0,0,1,6.4052,11.4023,45.01866,45.01866,0,0,1,2.2315,14.4863v5.4512H1627.917v3.4551a25.41542,25.41542,0,0,0,1.5108,8.8535,21.01843,21.01843,0,0,0,4.3183,7.124,19.747,19.747,0,0,0,6.9082,4.751,23.73819,23.73819,0,0,0,9.2852,1.7266,22.591,22.591,0,0,0,12.3076-3.3106,21.72051,21.72051,0,0,0,8.1328-9.5l8.2041,5.9395a28.66922,28.66922,0,0,1-11.2265,12.3837A33.86832,33.86832,0,0,1,1649.2198,338.5577Zm0-68.085a21.93261,21.93261,0,0,0-8.6367,1.6465,19.43424,19.43424,0,0,0-6.6944,4.6484,21.81258,21.81258,0,0,0-4.3887,7.0811,24.43756,24.43756,0,0,0-1.583,8.9414v1.001h41.0245v-1.5752q0-9.87015-5.4004-15.8057Q1658.14455,270.4732,1649.2198,270.4727Z" fill="#a39b4b"/><path d="M1716.7276,336.8291q-6.04395,0-9.1397-3.373a12.55317,12.55317,0,0,1-3.0957-8.834V272.7754h-12.2343V262.5567h6.9091q3.7413,0,5.1104-1.5127,1.36665-1.51035,1.3672-5.2539V241.9717h10.3633v20.585h16.2675v10.2187h-16.2675v53.835h15.1142v10.2187Z" fill="#a39b4b"/><path d="M1796.6153,262.5567h11.3721l-33.251,91.5459a41.13175,41.13175,0,0,1-2.5908,5.541,10.79382,10.79382,0,0,1-3.167,3.5273,12.58712,12.58712,0,0,1-4.6778,1.8711,34.7209,34.7209,0,0,1-6.8369.5762h-5.9023V355.3985h11.6592l5.6142-15.8086-27.7812-77.0332h11.5156l17.8486,50.4258,3.4531,12.0693h.7207l4.0303-12.0693Z" fill="#a39b4b"/><path d="M646.795,477.7481l-3.6114-11.4766H627.1934l-3.5449,11.4766h-8.6406l15.0879-45.0039H640.67l14.957,45.0039Zm-11.4766-37.2656h-.3223l-5.7382,18.5039h11.8632Z" fill="#a39b4b"/><path d="M692.1192,477.7481l-3.6094-11.4766H672.5196l-3.5469,11.4766h-8.6406L675.42,432.7442h10.5742l14.959,45.0039Zm-11.4766-37.2656h-.3222l-5.7383,18.5039h11.8633Z" fill="#a39b4b"/><path d="M736.1563,458.7286H717.3946v19.0195h-8.5117V432.7442h8.5117v18.4394h18.7617V432.7442h8.5117v45.0039h-8.5117Z" fill="#a39b4b"/><path d="M771.0372,457.375l-5.9961,7.0918v13.2813h-8.5098V432.7442h8.5098v22.1797h.3222l6.3828-8.4453,11.1543-13.7344h9.8008l-15.6679,18.7617,16.957,26.2422H783.8692Z" fill="#a39b4b"/><path d="M809.5938,432.7442v27.6601q0,5.2881,2.0312,7.9317,2.0304,2.64255,6.8672,2.6426,4.834,0,6.8672-2.6426,2.03025-2.64555,2.0293-7.9317V432.7442h8.3828v26.5644a34.52135,34.52135,0,0,1-.9355,8.5743,14.60011,14.60011,0,0,1-2.9981,5.998,12.08632,12.08632,0,0,1-5.3828,3.5137,25.17415,25.17415,0,0,1-8.0273,1.1269,24.792,24.792,0,0,1-8.0274-1.1269,12.112,12.112,0,0,1-5.3203-3.5137,14.30149,14.30149,0,0,1-2.9648-5.998,35.60274,35.60274,0,0,1-.9024-8.5743V432.7442Z" fill="#a39b4b"/></g></svg>