<svg xmlns="http://www.w3.org/2000/svg" xmlns:xlink="http://www.w3.org/1999/xlink" viewBox="0 0 2900.1699 708.66209"><defs><clipPath id="a"><rect width="2900.1699" height="708.66209" fill="none"/></clipPath></defs><g clip-path="url(#a)"><path d="M155.418,341.49219a13.67467,13.67467,0,0,1,13.6757,13.6758c-.0009-.2793-.0107-.5586-.0107-.8379,0-102.3096,82.9365-185.24809,185.248-185.24809a13.6748,13.6748,0,1,0,0-27.3496A212.44436,212.44436,0,0,0,141.7324,354.33009c0,.2793.0088.5586.0098.8379A13.676,13.676,0,0,1,155.418,341.49219Z" fill="#ee212e"/><path d="M340.6562,553.25389a13.67525,13.67525,0,0,1,13.6748-13.6758c-102.0312,0-184.7851-82.4863-185.2373-184.4101a13.67575,13.67575,0,1,0-27.3515,0A212.43335,212.43335,0,0,0,354.331,566.92969,13.67525,13.67525,0,0,1,340.6562,553.25389Z" fill="#46bc96"/><path d="M502.5283,487.40329a13.67483,13.67483,0,0,0-19.3398,0,184.63151,184.63151,0,0,1-128.8575,52.1748,13.6758,13.6758,0,0,0,0,27.3516,211.89586,211.89586,0,0,0,148.1973-60.1856A13.67061,13.67061,0,0,0,502.5283,487.40329Z" fill="#00c2f3"/><path d="M466.9141,241.748a159.22161,159.22161,0,1,0,46.6308,112.5821A158.16479,158.16479,0,0,0,466.9141,241.748Z" fill="#00c2f3"/><path d="M242.124,405.82029V302.84279h22.333v7.6123H251.5127V398.207H264.457v7.61327Z" fill="#333e48"/><path d="M466.54,302.84279v102.9775H444.2109V398.207h12.9385V310.45509H444.2109v-7.6123Z" fill="#333e48"/><path d="M293.9932,375.25q0,3.0849.0947,7.27148.09525,4.1836.2598,8.4961.1596,4.3125.3867,8.23926.2211,3.92724.5449,6.56346H282.0869v-72.7305q0-9.3954-.3223-17.0214-.3207-7.629-.9658-13.2256h13.1944Z" fill="#fff"/><path d="M351.5977,340.17089v8.4336H339.4971v48.78613h12.1006v8.43067H315.5566v-8.43067h11.9063V348.60449H315.5566v-8.4336Z" fill="#fff"/><path d="M378.6309,340.17089a22.61356,22.61356,0,0,1,.7714,2.6728c.2608,1.0938.4922,2.2403.709,3.4415q.31785,1.80165.5801,3.541l.5117,2.8925q6.18165-7.3329,12.4219-10.5839a27.82544,27.82544,0,0,1,13.0029-3.25,22.83133,22.83133,0,0,1,9.1065,1.7041,16.05047,16.05047,0,0,1,6.6631,5.4062,26.46687,26.46687,0,0,1,4.0869,9.5908,62.885,62.885,0,0,1,1.3838,14.1944v28.959a71.9635,71.9635,0,0,1-1.9014,18.05374,30.93086,30.93086,0,0,1-5.3076,11.4609,18.665,18.665,0,0,1-8.2071,6.0469,30.5252,30.5252,0,0,1-10.6523,1.7715,23.03442,23.03442,0,0,1-6.2109-.9336,23.52179,23.52179,0,0,1-6.0176-2.6074l4.1846-9.6543a12.89521,12.89521,0,0,0,3.958,1.8359,17.63384,17.63384,0,0,0,5.0498.7383,14.56123,14.56123,0,0,0,5.539-.9971,9.22737,9.22737,0,0,0,4.1494-3.5068,19.18724,19.18724,0,0,0,2.6084-6.8868,56.87763,56.87763,0,0,0,.8995-11.1347v-28.3203a78.53962,78.53962,0,0,0-.8038-12.5186,21.59154,21.59154,0,0,0-2.416-7.4658,7.99885,7.99885,0,0,0-4.0234-3.5742,16.11525,16.11525,0,0,0-5.6299-.9004,15.10807,15.10807,0,0,0-6.7871,1.6445,25.02338,25.02338,0,0,0-6.0859,4.2461,31.57794,31.57794,0,0,0-4.8897,5.8887,27.10018,27.10018,0,0,0-3.1562,6.5644v37.3311H370.2627v-39.583a100.473,100.473,0,0,0-1.0957-16.1231,81.78308,81.78308,0,0,0-2.124-9.9443Z" fill="#fff"/><text transform="translate(2028.91113 381.83642)" font-size="80" fill="#333e48" font-family="FiraSans-Bold, Fira Sans" font-weight="700">Se<tspan x="90.07715" y="0" letter-spacing="-0.00699em">s</tspan><tspan x="127.91699" y="0" letter-spacing="0.00001em">sion 2020–2021</tspan></text><rect x="1916.9502" y="242.89449" width="3" height="228.4453" fill="#333e48"/><path d="M626.665,336.834V236.36279h12.0918v89.8193h42.751V336.834Z" fill="#333e48"/><path d="M703.3857,245.14309q-3.74415,0-5.3984-1.7989a6.63451,6.63451,0,0,1-1.6543-4.6787v-1.8711a6.63871,6.63871,0,0,1,1.6543-4.6777q1.65375-1.7988,5.3984-1.7998,3.7413,0,5.3975,1.7998a6.64383,6.64383,0,0,1,1.6553,4.6777v1.8711a6.63961,6.63961,0,0,1-1.6553,4.6787Q707.12645,245.14524,703.3857,245.14309Zm-5.7578,17.4179h11.5156v74.273H697.6279Z" fill="#333e48"/><path d="M733.6133,336.834V262.561h11.5156v11.9532h.5752a24.21126,24.21126,0,0,1,7.7012-9.9746q4.96575-3.7047,13.3144-3.7061,11.5137,0,18.209,7.4121,6.69285,7.4151,6.6934,20.9439V336.834H780.1064v-45.7285q0-20.053-16.8408-20.0528a25.90038,25.90038,0,0,0-6.6943.8658,19.461,19.461,0,0,0-5.8291,2.5976,12.83609,12.83609,0,0,0-4.1026,4.3994,12.53,12.53,0,0,0-1.5107,6.2749V336.834Z" fill="#333e48"/><path d="M874.3877,334.38719q0,15.3999-8.6367,24.1816-8.6367,8.77965-24.3262,8.7813a39.368,39.368,0,0,1-15.6182-2.8184,31.876,31.876,0,0,1-10.8672-7.4472l6.7647-7.9522a26.14462,26.14462,0,0,0,8.6367,5.9268,28.99681,28.99681,0,0,0,11.3711,2.0703q10.0752,0,15.6182-5.5635,5.53995-5.5707,5.542-16.4116v-10.2739h-.5762a24.43924,24.43924,0,0,1-8.6357,10.2597,23.7482,23.7482,0,0,1-13.0987,3.4214,28.24168,28.24168,0,0,1-12.5234-2.7348,26.52875,26.52875,0,0,1-9.5-7.773,37.39665,37.39665,0,0,1-6.0459-12.2349,61.26494,61.26494,0,0,1,0-32.2431,37.44894,37.44894,0,0,1,6.0459-12.2354,26.56255,26.56255,0,0,1,9.5-7.7724,28.22647,28.22647,0,0,1,12.5234-2.7344,25.2885,25.2885,0,0,1,13.3145,3.3481,20.89952,20.89952,0,0,1,8.4199,10.3326h.5762V262.561h11.5156Zm-30.3721-6.0459a25.9643,25.9643,0,0,0,7.3408-1.0127,17.80044,17.80044,0,0,0,5.9737-2.9658,14.84451,14.84451,0,0,0,4.0302-4.7725,13.7306,13.7306,0,0,0,1.5118-6.583v-27.6318a11.91622,11.91622,0,0,0-1.4395-5.7158,13.50443,13.50443,0,0,0-4.0303-4.5562,20.8743,20.8743,0,0,0-6.0459-2.9643,24.33226,24.33226,0,0,0-7.3408-1.0865q-9.78945,0-15.5459,6.2212-5.7582,6.2205-5.7578,16.0581v12.73q0,9.8364,5.7578,16.0586Q834.22505,328.34109,844.0156,328.34129Z" fill="#333e48"/><path d="M944.6289,324.88039h-.5752a35.54276,35.54276,0,0,1-2.8066,5.0605,18.9649,18.9649,0,0,1-4.1026,4.417,19.21828,19.21828,0,0,1-5.9013,3.0635,25.77352,25.77352,0,0,1-8.0616,1.1401q-11.51805,0-18.2802-7.4136-6.7677-7.41135-6.7657-20.9433V262.561h11.5157v45.7276q0,20.0529,16.9843,20.0527a25.75016,25.75016,0,0,0,6.6944-.8662,18.45877,18.45877,0,0,0,5.7568-2.5947,13.11755,13.11755,0,0,0,4.0313-4.3994,12.83064,12.83064,0,0,0,1.5107-6.4214V262.561h11.5156v74.273H944.6289Z" fill="#333e48"/><path d="M986.3711,245.14309q-3.74415,0-5.3975-1.7989a6.63056,6.63056,0,0,1-1.6552-4.6787v-1.8711a6.63475,6.63475,0,0,1,1.6552-4.6777q1.6524-1.7988,5.3975-1.7998,3.74265,0,5.3974,1.7998a6.644,6.644,0,0,1,1.6563,4.6777v1.8711a6.63976,6.63976,0,0,1-1.6563,4.6787Q990.11325,245.14524,986.3711,245.14309Zm-5.7568,17.4179h11.5146v74.273H980.6143Z" fill="#333e48"/><path d="M1038.9102,338.56149q-10.3638,0-17.3448-3.9585a39.40007,39.40007,0,0,1-12.0195-10.5801l8.2051-6.621a32.22661,32.22661,0,0,0,9.6435,8.4204,25.116,25.116,0,0,0,12.3799,2.9511q7.3404,0,11.4424-3.1665a11.50417,11.50417,0,0,0,1.2959-16.3379q-2.80815-3.09375-10.1484-4.2461l-5.9014-.8637a49.17977,49.17977,0,0,1-9.5-2.231,26.40035,26.40035,0,0,1-7.5567-4.0303,17.2967,17.2967,0,0,1-5.038-6.2617,20.39425,20.39425,0,0,1-1.7989-8.9238,21.454,21.454,0,0,1,2.0147-9.5728,19.26314,19.26314,0,0,1,5.542-6.8369,24.21557,24.21557,0,0,1,8.4199-4.102,38.9221,38.9221,0,0,1,10.5078-1.3672q9.06885,0,15.1856,3.166a34.08343,34.08343,0,0,1,10.7246,8.7803l-7.6289,6.9092a22.91245,22.91245,0,0,0-7.1973-6.2608,23.176,23.176,0,0,0-11.9473-2.8076q-7.1997,0-10.8672,3.0957a10.436,10.436,0,0,0-3.6709,8.4199q0,5.47275,3.6709,7.9165,3.66945,2.45,10.5791,3.5992l5.7579.8632q12.37785,1.87215,17.5615,7.125,5.18115,5.25735,5.1816,13.7461,0,10.796-7.3418,16.9854Q1051.72125,338.56344,1038.9102,338.56149Z" fill="#333e48"/><path d="M1102.1025,336.834q-6.0468,0-9.1406-3.3736a12.55294,12.55294,0,0,1-3.0947-8.8344v-51.8462h-12.2354V262.561h6.9102q3.7398,0,5.1094-1.5127,1.36515-1.5102,1.3671-5.2534v-13.8188h10.3633V262.561h16.2657v10.2188h-16.2657v53.8349h15.1143V336.834Z" fill="#333e48"/><path d="M1141.9736,245.14309q-3.74415,0-5.3974-1.7989a6.63062,6.63062,0,0,1-1.6553-4.6787v-1.8711a6.63481,6.63481,0,0,1,1.6553-4.6777q1.65225-1.7988,5.3974-1.7998,3.7413,0,5.3985,1.7998a6.64774,6.64774,0,0,1,1.6543,4.6777v1.8711a6.64353,6.64353,0,0,1-1.6543,4.6787Q1145.71535,245.14524,1141.9736,245.14309Zm-5.7578,17.4179h11.5156v74.273h-11.5156Z" fill="#333e48"/><path d="M1199.8389,338.56149a34.23022,34.23022,0,0,1-13.9629-2.7348,28.477,28.477,0,0,1-10.4356-7.773,34.58056,34.58056,0,0,1-6.4775-12.2349,59.3511,59.3511,0,0,1,0-32.2431,34.62608,34.62608,0,0,1,6.4775-12.2354,28.51318,28.51318,0,0,1,10.4356-7.7724,34.212,34.212,0,0,1,13.9629-2.7344q11.08155,0,17.7763,4.8213a29.43324,29.43324,0,0,1,10.0039,12.5947l-9.6445,4.8945a17.49946,17.49946,0,0,0-6.6201-8.9248,19.8813,19.8813,0,0,0-11.5156-3.1665,23.02538,23.02538,0,0,0-9.0684,1.6553,17.72688,17.72688,0,0,0-6.4785,4.6065,19.39342,19.39342,0,0,0-3.8858,7.0527,29.774,29.774,0,0,0-1.2968,8.9961v12.667q0,9.791,5.2549,16.0493,5.25285,6.2622,15.4746,6.2617,13.9599,0,20.1513-12.9551l8.3487,5.6143a29.49367,29.49367,0,0,1-10.7237,12.811Q1210.4902,338.56124,1199.8389,338.56149Z" fill="#333e48"/><path d="M1266.9141,338.56149q-10.3638,0-17.3448-3.9585a39.40007,39.40007,0,0,1-12.0195-10.5801l8.2051-6.621a32.22661,32.22661,0,0,0,9.6435,8.4204,25.116,25.116,0,0,0,12.3799,2.9511q7.3404,0,11.4424-3.1665a11.50417,11.50417,0,0,0,1.2959-16.3379q-2.80665-3.09375-10.1484-4.2461l-5.9014-.8637a49.17977,49.17977,0,0,1-9.5-2.231,26.39843,26.39843,0,0,1-7.5566-4.0303,17.29592,17.29592,0,0,1-5.0381-6.2617,20.39407,20.39407,0,0,1-1.7998-8.9238,21.454,21.454,0,0,1,2.0156-9.5728,19.26314,19.26314,0,0,1,5.542-6.8369,24.21557,24.21557,0,0,1,8.4199-4.102,38.9221,38.9221,0,0,1,10.5078-1.3672q9.06885,0,15.1856,3.166a34.08343,34.08343,0,0,1,10.7246,8.7803l-7.6289,6.9092a22.93379,22.93379,0,0,0-7.1973-6.2608,23.176,23.176,0,0,0-11.9473-2.8076q-7.1997,0-10.8681,3.0957a10.43808,10.43808,0,0,0-3.67,8.4199q0,5.47275,3.67,7.9165,3.6708,2.45,10.58,3.5992l5.7579.8632q12.37785,1.87215,17.5615,7.125,5.18115,5.25735,5.1816,13.7461,0,10.796-7.3418,16.9854Q1279.72515,338.56344,1266.9141,338.56149Z" fill="#333e48"/><path d="M1378.0361,338.56149q-12.2358,0-20.872-4.6782a44.28729,44.28729,0,0,1-14.6817-12.8828l8.9248-7.4854a39.09044,39.09044,0,0,0,11.8018,10.7242,30.44426,30.44426,0,0,0,15.2588,3.6704q10.7958,0,16.4814-5.1817,5.68515-5.18265,5.6856-13.8188,0-7.19535-4.3184-11.0825-4.31685-3.8877-14.25-6.1905l-8.2041-1.8711q-13.81935-3.1647-21.0879-9.5713-7.27005-6.40425-7.2695-18.0659a27.30382,27.30382,0,0,1,2.4472-11.8027,23.67654,23.67654,0,0,1,6.837-8.6362,30.86848,30.86848,0,0,1,10.5078-5.2539,47.57709,47.57709,0,0,1,13.459-1.7998q11.36865,0,19.5039,4.1748a37.56565,37.56565,0,0,1,13.7461,12.2348l-9.0674,6.6211a31.3183,31.3183,0,0,0-10.0762-9.0683q-5.90475-3.3099-14.6826-3.3111-9.64455,0-15.1856,4.1026-5.54295,4.10295-5.542,12.3071,0,7.199,4.6778,10.8677,4.6758,3.67005,14.1787,5.83l8.2041,1.8711q14.8242,3.31275,21.4482,10.0757,6.61815,6.76695,6.6211,17.9927a31.86367,31.86367,0,0,1-2.375,12.5234,25.709,25.709,0,0,1-6.8369,9.5,31.82767,31.82767,0,0,1-10.8672,6.0454A45.15489,45.15489,0,0,1,1378.0361,338.56149Z" fill="#333e48"/><path d="M1460.3701,338.56149a33.49134,33.49134,0,0,1-13.6748-2.7348,29.4413,29.4413,0,0,1-10.5791-7.8453,36.88645,36.88645,0,0,1-6.8379-12.2348,53.61555,53.61555,0,0,1,0-32.0274,36.8026,36.8026,0,0,1,6.8379-12.3066,29.47918,29.47918,0,0,1,10.5791-7.8447,33.47316,33.47316,0,0,1,13.6748-2.7344,32.98923,32.98923,0,0,1,13.6026,2.7344,30.373,30.373,0,0,1,10.5791,7.8447,36.219,36.219,0,0,1,6.9101,12.3066,53.63646,53.63646,0,0,1,0,32.0274,36.2988,36.2988,0,0,1-6.9101,12.2348,30.33266,30.33266,0,0,1-10.5791,7.8453A33.007,33.007,0,0,1,1460.3701,338.56149Zm0-10.2202q9.35445,0,15.2578-5.7578,5.9004-5.75535,5.9014-17.5606v-10.6518q0-11.8008-5.9014-17.561-5.90325-5.75475-15.2578-5.7574-9.3588,0-15.2578,5.7574-5.90475,5.7597-5.9033,17.561v10.6518q0,11.8053,5.9033,17.5606Q1451.0127,328.34319,1460.3701,328.34129Z" fill="#333e48"/><path d="M1540.5459,338.56149a34.23056,34.23056,0,0,1-13.9629-2.7348,28.47667,28.47667,0,0,1-10.4355-7.773,34.57912,34.57912,0,0,1-6.4776-12.2349,59.35366,59.35366,0,0,1,0-32.2431,34.62463,34.62463,0,0,1,6.4776-12.2354,28.51283,28.51283,0,0,1,10.4355-7.7724,34.21238,34.21238,0,0,1,13.9629-2.7344q11.08155,0,17.7754,4.8213a29.42874,29.42874,0,0,1,10.0049,12.5947l-9.6446,4.8945a17.49509,17.49509,0,0,0-6.6211-8.9248,19.87538,19.87538,0,0,0-11.5146-3.1665,23.02652,23.02652,0,0,0-9.0693,1.6553,17.72346,17.72346,0,0,0-6.4776,4.6065,19.39471,19.39471,0,0,0-3.8857,7.0527,29.74,29.74,0,0,0-1.2959,8.9961v12.667q0,9.791,5.2539,16.0493,5.2515,6.2622,15.4746,6.2617,13.95855,0,20.1514-12.9551l8.3486,5.6143a29.49493,29.49493,0,0,1-10.7246,12.811Q1551.1978,338.56124,1540.5459,338.56149Z" fill="#333e48"/><path d="M1591.0674,245.14309q-3.74415,0-5.3975-1.7989a6.63062,6.63062,0,0,1-1.6553-4.6787v-1.8711a6.63481,6.63481,0,0,1,1.6553-4.6777q1.6524-1.7988,5.3975-1.7998,3.74115,0,5.3984,1.7998a6.64729,6.64729,0,0,1,1.6543,4.6777v1.8711a6.64308,6.64308,0,0,1-1.6543,4.6787Q1594.80905,245.14524,1591.0674,245.14309Zm-5.7578,17.4179h11.5146v74.273h-11.5146Z" fill="#333e48"/><path d="M1649.2197,338.56149a33.35079,33.35079,0,0,1-13.7461-2.7348,29.58671,29.58671,0,0,1-10.5078-7.8453,35.96162,35.96162,0,0,1-6.7656-12.2348,55.15209,55.15209,0,0,1,0-32.0274,35.89235,35.89235,0,0,1,6.7656-12.3066,29.62523,29.62523,0,0,1,10.5078-7.8447,33.333,33.333,0,0,1,13.7461-2.7344,31.57205,31.57205,0,0,1,13.3867,2.7256,29.68342,29.68342,0,0,1,10.0762,7.5317,33.59014,33.59014,0,0,1,6.4053,11.4029,45.01924,45.01924,0,0,1,2.2314,14.4863v5.4516H1627.917v3.4551a25.43183,25.43183,0,0,0,1.5107,8.8526,21.02283,21.02283,0,0,0,4.3184,7.1245,19.74865,19.74865,0,0,0,6.9092,4.7509,23.72876,23.72876,0,0,0,9.2841,1.7266,22.59533,22.59533,0,0,0,12.3077-3.3105,21.72227,21.72227,0,0,0,8.1328-9.5l8.2041,5.9394a28.65978,28.65978,0,0,1-11.2276,12.3838A33.86427,33.86427,0,0,1,1649.2197,338.56149Zm0-68.0844a21.93086,21.93086,0,0,0-8.6367,1.6464,19.40818,19.40818,0,0,0-6.6934,4.6485,21.7973,21.7973,0,0,0-4.3896,7.081,24.45519,24.45519,0,0,0-1.583,8.9414v1.001h41.0234v-1.5747q0-9.8709-5.3994-15.8061Q1658.1446,270.47744,1649.2197,270.47709Z" fill="#333e48"/><path d="M1716.7266,336.834q-6.0426,0-9.1387-3.3736a12.549,12.549,0,0,1-3.0957-8.8344v-51.8462h-12.2344V262.561h6.9092q3.74115,0,5.1103-1.5127,1.3668-1.5102,1.3672-5.2534v-13.8188h10.3643V262.561h16.2656v10.2188h-16.2656v53.8349h15.1133V336.834Z" fill="#333e48"/><path d="M1796.6152,262.561h11.3721l-33.251,91.5459a40.90185,40.90185,0,0,1-2.5908,5.5415,10.79736,10.79736,0,0,1-3.167,3.5269,12.58759,12.58759,0,0,1-4.6777,1.8711,34.76061,34.76061,0,0,1-6.8369.5762h-5.9024v-10.2198h11.6592l5.6143-15.8086-27.7813-77.0332h11.5156l17.8487,50.4258,3.4541,12.0689h.7207l4.0293-12.0689Z" fill="#333e48"/><path d="M646.7939,477.752l-3.6103-11.4766H627.1934l-3.5459,11.4766h-8.6407l15.0879-45.004h10.5742l14.958,45.004Zm-11.4765-37.2657h-.3223l-5.7383,18.5039h11.8633Z" fill="#333e48"/><path d="M692.1191,477.752l-3.6103-11.4766H672.5185l-3.5458,11.4766H660.332l15.0879-45.004h10.5742l14.958,45.004Zm-11.4765-37.2657h-.3223l-5.7383,18.5039h11.8633Z" fill="#333e48"/><path d="M736.1562,458.73239H717.3935V477.752h-8.5107V432.748h8.5107v18.4395h18.7627V432.748h8.5108v45.004h-8.5108Z" fill="#333e48"/><path d="M771.0371,457.37889l-5.9961,7.0918V477.752h-8.5107V432.748h8.5107v22.1797h.3223l6.3828-8.4453,11.1543-13.7344h9.8008l-15.668,18.7618,16.957,26.2422h-10.122Z" fill="#333e48"/><path d="M809.5937,432.748v27.6602q0,5.2881,2.0313,7.9316,2.03025,2.6427,6.8662,2.6426,4.8354,0,6.8672-2.6426,2.03025-2.6454,2.0303-7.9316V432.748h8.3818v26.5645a34.51906,34.51906,0,0,1-.9346,8.5742,14.612,14.612,0,0,1-2.998,5.9981,12.09416,12.09416,0,0,1-5.3838,3.5136,25.174,25.174,0,0,1-8.0273,1.127,24.79132,24.79132,0,0,1-8.0274-1.127,12.11284,12.11284,0,0,1-5.3193-3.5136,14.292,14.292,0,0,1-2.9658-5.9981,35.6474,35.6474,0,0,1-.9024-8.5742V432.748Z" fill="#333e48"/></g></svg>