<svg xmlns="http://www.w3.org/2000/svg" xmlns:xlink="http://www.w3.org/1999/xlink" viewBox="0 0 2893.9726 711.5586"><defs><clipPath id="a"><rect width="2893.9726" height="711.5586" fill="none"/></clipPath></defs><g clip-path="url(#a)"><text transform="translate(1812.59177 573.78222)" font-size="59.99992" fill="#a39b4b" font-family="FiraSans-Bold, Fira Sans" font-weight="700">Se<tspan x="67.55859" y="0" letter-spacing="-0.00699em">s</tspan><tspan x="95.93896" y="0">sion 2020–2021</tspan></text><text transform="translate(214.8945 584.53125)" font-size="60" fill="#a39b4b" font-family="SourceHanSansHC-Medium-B5pc-H, Source Han Sans HC"><tspan letter-spacing="0.1007em">二零二零至二零二一年</tspan><tspan x="660.41895" y="0">度</tspan></text><path d="M1093.705,271.5713a210.73908,210.73908,0,0,0-16.1679,67.4248,20.76518,20.76518,0,0,1,27.3525.958c7.3379-95.5908,87.2236-170.8691,184.6953-170.8691a13.67485,13.67485,0,1,0,0-27.3497,212.81559,212.81559,0,0,0-195.8799,129.836Z" fill="#a39b4b"/><path d="M1274.4463,538.9648c-94.9522-7.6845-169.668-86.9638-170.0967-183.7939a13.6758,13.6758,0,1,0-27.3516,0,212.42987,212.42987,0,0,0,196.3643,211.1543,20.74966,20.74966,0,0,1,1.084-27.3604Z" fill="#a39b4b"/><path d="M1437.7832,487.4072a13.67447,13.67447,0,0,0-19.3399,0,184.63292,184.63292,0,0,1-128.8584,52.1758,13.6748,13.6748,0,0,0,0,27.3496,211.86351,211.86351,0,0,0,148.1983-60.1855A13.6697,13.6697,0,0,0,1437.7832,487.4072Z" fill="#a39b4b"/><path d="M1289.5849,141.7314a212.43,212.43,0,0,0-212.0508,197.2598,20.78357,20.78357,0,0,1,27.3506.96c7.3399-95.5899,87.2295-170.8692,184.7002-170.8692a13.6753,13.6753,0,1,0,0-27.3506Zm-15.1406,397.2305c-94.9502-7.6807-169.6699-86.9599-170.0898-183.79a13.6802,13.6802,0,1,0-27.3604,0,212.43448,212.43448,0,0,0,196.3701,211.1494,20.748,20.748,0,0,1,1.0801-27.3594Zm163.3398-51.5508a13.66495,13.66495,0,0,0-19.3398,0,184.63454,184.63454,0,0,1-128.8594,52.1709,13.6748,13.6748,0,0,0,0,27.3496,211.91195,211.91195,0,0,0,148.1992-60.1796A13.676,13.676,0,0,0,1437.7841,487.4111Z" fill="#a39b4b"/><path d="M1402.165,241.752a159.22958,159.22958,0,1,0,46.6299,112.58A158.15016,158.15016,0,0,0,1402.165,241.752Zm-202.4502,68.7099h-12.9502v87.75h12.9502v7.6094H1177.375V302.8418h22.3398Zm17.6299,95.3594V333.0918q0-9.3897-.3301-17.0205-.31485-7.63485-.9599-13.2295h13.1894V375.252q0,3.08925.1006,7.2695.0894,4.185.2598,8.5.1494,4.30515.3798,8.2402.2256,3.9141.5498,6.5596Zm69.5098-57.21h-12.0996v48.7803h12.0996v8.4297h-36.0401v-8.4297h11.9004V348.6113h-11.9004v-8.4394h36.0401Zm76.2705,50.1299a72.41632,72.41632,0,0,1-1.9004,18.0606,31.03992,31.03992,0,0,1-5.3096,11.4502,18.49164,18.49164,0,0,1-8.2109,6.0498,30.50925,30.50925,0,0,1-10.6494,1.7695,24.716,24.716,0,0,1-12.2305-3.5401l4.1904-9.6494a12.63251,12.63251,0,0,0,3.9502,1.8301,17.392,17.392,0,0,0,5.0498.7393,14.64508,14.64508,0,0,0,5.5401-.9893,9.30851,9.30851,0,0,0,4.1494-3.5107,19.06419,19.06419,0,0,0,2.6103-6.8897,56.78042,56.78042,0,0,0,.9004-11.1299v-28.33a79.32855,79.32855,0,0,0-.7998-12.5098,21.71947,21.71947,0,0,0-2.4209-7.4707,7.97185,7.97185,0,0,0-4.0195-3.5693,16.09073,16.09073,0,0,0-5.6299-.9004,15.17413,15.17413,0,0,0-6.79,1.6406,24.99222,24.99222,0,0,0-6.0899,4.25,31.75,31.75,0,0,0-4.8906,5.8896,27.12049,27.12049,0,0,0-3.1494,6.5596v37.3301h-11.9102V366.2412a100.64071,100.64071,0,0,0-1.0898-16.1201,81.83086,81.83086,0,0,0-2.1299-9.9492h11.5898a22.647,22.647,0,0,1,.7696,2.6797c.2607,1.0898.4902,2.2402.7099,3.4404.21,1.1992.4102,2.3799.5801,3.54l.5098,2.8907q6.18015-7.336,12.4306-10.5811a27.79189,27.79189,0,0,1,13-3.2598,22.71332,22.71332,0,0,1,9.0996,1.71,16.01359,16.01359,0,0,1,6.67,5.4102,26.337,26.337,0,0,1,4.08,9.5898,62.35562,62.35562,0,0,1,1.3907,14.1894Zm38.6699,7.0801h-22.3301v-7.6094h12.9395v-87.75h-12.9395v-7.6201h22.3301Z" fill="#a39b4b"/><path d="M196.7275,379.6279H141.7343V370.499h54.9932Zm-7.1572,97.2051h-9.4209V466.8271H158.166V476.833h-9.5674V427.4639h40.9717Zm-.4385-78.3633-40.3867.1465v-9.1289h40.3867Zm.1465,19.1348H148.7451v-9.1289h40.5332Zm-1.8262-56.5274-37.0996.1465v-9.1289h37.0996Zm-7.3027,96.7676V436.4463H158.0205v21.3984Zm94.3564-40.0937-78.9472.1445v-8.9824h19.5722l4.2364-22.5654H201.1093v-8.9834h19.7188l3.1396-16.7247H195.997v-9.1289h72.5205v8.9825H233.8271l-2.9941,16.7246h30.0898l-3.1406,31.5488h16.7236Zm-12.708,59.375h-9.4199v-9.8594H215.4228v9.8594h-9.5664V427.6103h55.9414Zm-9.4199-18.8438V436.5928H215.2773v21.6894Zm-1.4609-72.082H229.2256l-4.2344,22.7129h23.6621Z" fill="#a39b4b"/><path d="M439.1777,379.6279H306.4062V370.499H439.1777Zm-19.5723,18.6953H324.6621v-8.8359h94.9433Zm0,18.9883H324.6621v-8.8359h94.9433Zm-3.4336,59.8145h-9.4199V466.8271H338.248V477.126h-9.4219V427.4639h87.3457Zm-.1445-116.9981-86.4707.2198v-8.837h86.4707Zm-9.2754,97.7168V436.4463H338.248v21.3984Z" fill="#a39b4b"/><path d="M603.8506,450.6885H545.0595v10.1504q0,16.2861-17.3105,16.2871h-9.7129l-3.5781-8.9824h13.584q7.1571,0,7.1582-6.5743V450.6885H471.0771v-9.1289h64.1231v-6.2813q15.2607-5.6982,21.8359-10.6621H501.0927v-8.4004h72.1582v7.961a223.53125,223.53125,0,0,1-28.1914,15.8476v1.5352h58.7911Zm-6.1348-27.0957h-8.7656V408.4756H486.9267v15.9941h-9.5693v-24.539h12.5615V355.3799q10.36815-1.01955,22.7149-9.8574l4.8203,6.7187q-6.6504,6.13485-18.1133,9.2754v6.1348h18.6953v7.5957H499.3408v7.959h18.6953v7.4492H499.3408v9.2754h77.6328v-9.2754H559.1533v-7.3028h17.8203v-8.5449H559.2998v-7.4492h17.6738v-7.9609h-20.668v-8.836H586.249v49.2227h11.4668Zm-41.4102-56.6719-5.1113,6.2793a77.95776,77.95776,0,0,0-11.3203-8.6895,87.43107,87.43107,0,0,1-13.293,9.1289l-5.9883-5.2597a57.85854,57.85854,0,0,0,12.4161-6.8633,127.01258,127.01258,0,0,0-14.3887-4.6738l3.7265-6.7207a134.904,134.904,0,0,1,16.2852,5.2578,62.23557,62.23557,0,0,0,8.6914-10.0039l6.1348,4.8926a46.30552,46.30552,0,0,1-7.5957,8.8378A54.46156,54.46156,0,0,1,556.3056,366.9209Zm.875,26.582-6.1328,4.8203a67.71094,67.71094,0,0,0-12.2695-7.5214q-3.94335,2.994-14.0215,7.5214l-5.5508-4.3808q9.419-4.4532,13.5117-7.7422a74.29753,74.29753,0,0,0-12.416-5.6973l5.4766-4.5996a91.19563,91.19563,0,0,1,12.8535,5.6231q2.042-1.1661,8.252-7.0118l6.7187,3.4336a36.6449,36.6449,0,0,1-8.3242,7.961A54.276,54.276,0,0,1,557.1806,393.5029Z" fill="#a39b4b"/><path d="M768.375,450.6885H709.584v10.1504q0,16.2861-17.3086,16.2871h-9.7129l-3.5782-8.9824h13.584q7.1544,0,7.1563-6.5743V450.6885H635.6035v-9.1289h64.1211v-6.2813q15.2637-5.6982,21.8379-10.6621H665.6191v-8.4004h72.1563v7.961a223.40346,223.40346,0,0,1-28.1914,15.8476v1.5352h58.791Zm-6.1328-27.0957h-8.7676V408.4756H651.4511v15.9941h-9.5664v-24.539h12.5606V355.3799q10.371-1.01955,22.7129-9.8574l4.8203,6.7187q-6.64455,6.13485-18.1133,9.2754v6.1348h18.6973v7.5957H663.8652v7.959h18.6973v7.4492H663.8652v9.2754H741.498v-9.2754H723.6797v-7.3028H741.498v-8.5449H723.8242v-7.4492H741.498v-7.9609H720.83v-8.836h29.9434v49.2227h11.4688Zm-38.8106-31.7285-6.6543,6.0839c-3.0371-4.5625-7.3828-10.2754-11.5859-13.8242q-9.7998,10.91895-16.1055,13.8946l-6.584-5.5293q7.4238-3.53325,16.1074-13.2032-9.87585-6.15225-14.0761-7.6054l5.7441-5.9414q3.501,1.3827,13.166,7.1894a41.81275,41.81275,0,0,0,4.4805-10.3008H685.9336v-8.6386h11.789v-8.8965h7.5664v8.8965h13.9922v8.6386h-2.7695a55.02326,55.02326,0,0,1-6.2754,14.8633C715.3261,381.3603,720.2109,387.2568,723.4316,391.8643Z" fill="#a39b4b"/><path d="M935.3105,379.3369l-5.2578,7.5938q-24.90525-6.13485-38.998-14.168v6.5742H841.6836v-7.2324q-21.3252,11.03025-38.2696,14.3887l-4.8183-7.668q41.042-10.00485,68.3574-33.4492l8.9824,2.9941a12.41268,12.41268,0,0,1-2.5566,2.5547Q897.6249,371.08405,935.3105,379.3369Zm-15.5566,41.8457H813.7129V386.9307h106.041Zm-8.6895,56.0879H902.082v-5.8418H831.5332v5.8418h-8.9825V428.8506h88.5137Zm-48.7129-63.9746V395.0381H822.6953v18.2578Zm39.7305,33.0107v-9.4209H831.5332v9.4209Zm0,17.2354v-9.5684H831.5332v9.5684Zm-49.4434-57.4766-7.5214,5.2578a52.55834,52.55834,0,0,0-13.293-10.1504l7.5957-4.3828A37.57931,37.57931,0,0,1,852.6386,406.0654Zm35.4219-34.8359a92.07384,92.07384,0,0,1-20.5234-14.9727,112.08272,112.08272,0,0,1-23.7344,14.9727Zm22.7129,42.0664V395.0381H871.3359v18.2578Zm-8.8379-13.9482q-4.3095,6.86265-13,11.6845l-8.0332-4.0176q9.56835-5.40225,13.1445-10.8085Z" fill="#a39b4b"/><path d="M197.415,260.2412l-2.7891,3.2109q-12.54045-4.4091-23.8808-15.541l.0605,11.7305h14.0098v25.8008h-3.8105v-3.4492H156.7353v3.4492h-3.9316V259.6416H166.874V247.9111q-6.17865,9.4512-22.3203,14.791l-2.8194-3.1796q14.31015-3.78225,20.46-11.6114H145.124v-3.75h21.75v-5.789q-7.169.7206-18,1.0488l-2.5801-3.6289q25.5909-.0909,40.8613-4.291l2.8799,2.8808a132.89591,132.89591,0,0,1-19.2295,3.5098v6.2695h22.0498v3.75l-17.1904-.0586A63.95474,63.95474,0,0,0,197.415,260.2412Zm-16.4101,8.4316v-5.2812H156.6748v5.2812Zm0,9.629v-5.9395H156.6748v5.9395Z" fill="#a39b4b"/><path d="M233.50566,263.001q-3.78225,11.7333-9.9004,19.2324l3.5097,2.2207a57.24149,57.24149,0,0,0,10.0215-19.2305Zm-6.3301-16.6485-2.5215,3.1504a22.19123,22.19123,0,0,1,9.4531,7.3184l2.6368-3.5684Q233.62666,249.0826,227.17556,246.3525Zm2.9385-13.4394-2.8194,2.8789a18.11373,18.11373,0,0,1,9.0918,6.959l2.8184-3.0283A18.382,18.382,0,0,0,230.11406,232.9131Z" fill="#a39b4b"/><path d="M269.326,272.124V260.8115a34.81245,34.81245,0,0,0,7.6816,5.5215l2.46-3.332a25.74815,25.74815,0,0,1-12.2412-10.6192h10.2578v-3.6894h-9.8076v-7.1699h7.4091v-3.6914h-7.4091v-6.3282H263.865v6.3887h-11.1289v-6.3887h-3.8125v6.3887h-7.3779v3.6895h7.4404v7.1699h-9.7812v3.6914h9.9004q-3.3282,6.24015-12.0293,10.3789l2.8183,3.3301a37.63018,37.63018,0,0,0,4.7403-3.2383v16.0801q0,5.1591,5.1601,5.1601h19.6504a4.78972,4.78972,0,0,0,3.7949-1.5898q1.39755-1.5909,2.1758-6.2696l-3.8691-1.7402q-.39255,3.75-1.1406,4.7988a2.34727,2.34727,0,0,1-2.0098,1.0508h-18.3008a1.45771,1.45771,0,0,1-1.6484-1.6523v-6.627Zm-16.5899-30.6015h11.1895v7.1699h-11.1895Zm.3584,10.8593h10.2002a24.9137,24.9137,0,0,0,4.4405,6.8125h-19.0498A21.14227,21.14227,0,0,0,253.09446,252.3818Zm-4.6474,10.5h17.0693v5.6114h-17.0693Z" fill="#a39b4b"/><path d="M361.09876,282.4424l-2.7891,3.1191q-18.75285-10.22745-23.8222-34.4687-6.26955,24.62985-25.5586,34.4687l-3.0313-3.5683q19.11045-9.3018,24.211-30.8418h-20.4004v-3.8692h20.8496a153.61389,153.61389,0,0,0,.4805-15.7812l4.1699.6015q.1494,9.1803-.3594,15.1202H357.589v3.8701h-18.9297Q342.257,271.6416,361.09876,282.4424Z" fill="#a39b4b"/><path d="M442.73042,274.6416H418.58v4.1719q0,6.6885-7.1113,6.6894h-3.9903l-1.4687-3.6894h5.5801q2.93835,0,2.9394-2.7012v-4.4707h-26.3398v-3.75h26.3398v-2.5801a37.51881,37.51881,0,0,0,8.9707-4.3789h-22.9805v-3.4512h29.6407v3.2696a91.83144,91.83144,0,0,1-11.5801,6.5117v.6289h24.1504Zm-2.5196-11.1289h-3.5996v-6.2109h-41.9121v6.5703h-3.9297V253.792h5.1602V235.4912q4.2597-.41895,9.3301-4.0488l1.9785,2.7597a17.65553,17.65553,0,0,1-7.4395,3.8106v2.5195h7.6797v3.1192h-7.6797v3.2714h7.6797v3.0586h-7.6797v3.8106h31.8907v-3.8106H424.369v-3h7.3204v-3.5087h-7.2598v-3.0616h7.2598v-3.2695h-8.4903v-3.6289h12.3008v20.2187h4.7109Zm-17.0117-23.2813-2.0996,2.5801a31.99451,31.99451,0,0,0-4.6504-3.5703,35.69747,35.69747,0,0,1-5.459,3.75l-2.4609-2.1582a23.79152,23.79152,0,0,0,5.0996-2.8203,52.64616,52.64616,0,0,0-5.9101-1.9219l1.5312-2.7597a55.62185,55.62185,0,0,1,6.6895,2.1601,25.53946,25.53946,0,0,0,3.5703-4.1094l2.5195,2.0098a19.023,19.023,0,0,1-3.1191,3.6309A22.42753,22.42753,0,0,1,423.19912,240.2314Zm.3614,10.92-2.5215,1.9804a27.72267,27.72267,0,0,0-5.0391-3.0898,32.42561,32.42561,0,0,1-5.7598,3.0898l-2.2812-1.8007a29.62657,29.62657,0,0,0,5.5508-3.1797,30.61767,30.61767,0,0,0-5.0996-2.3399l2.248-1.8906a37.45108,37.45108,0,0,1,5.2813,2.3105,25.61129,25.61129,0,0,0,3.3906-2.8789l2.7598,1.4102a15.07673,15.07673,0,0,1-3.42,3.2695A22.3218,22.3218,0,0,1,423.56052,251.1514Z" fill="#a39b4b"/><path d="M525.47247,281.6318l-2.6406,3.5118q-15.26955-4.5-24.7793-12.1211-8.19435,6.69135-25.7422,12.3613l-2.9395-3.5703q16.98045-4.711,25.6817-11.4317a40.86217,40.86217,0,0,1-11.7305-20.0703,33.09328,33.09328,0,0,1-4.4414,7.9199l-3.1777-2.9082a39.66642,39.66642,0,0,0,6.0878-9.8711h-10.3203v-3.6894H495.533V231.501h3.8692v10.2011h24.4804v3.6895h-10.2617q-2.6982,15.6621-12.4199,24.9297Q510.05157,277.04205,525.47247,281.6318Zm-15.8711-36.2402h-23.2188q2.39655,13.8897,11.7286,22.3516Q507.23117,259.2529,509.60137,245.3916Z" fill="#a39b4b"/><path d="M606.65343,274.6416h-24.1523v4.1719q0,6.6885-7.1094,6.6894h-3.9902l-1.4688-3.6894h5.5781q2.9415,0,2.9414-2.7012v-4.4707h-26.3388v-3.75h26.3388v-2.5801a37.45837,37.45837,0,0,0,8.9688-4.3789h-22.9805v-3.4512h29.6406v3.2696a91.68761,91.68761,0,0,1-11.58,6.5117v.6289h24.1523Zm-2.5195-11.1289h-3.6016v-6.2109h-41.9121v6.5703h-3.9297V253.792h5.1602V235.4912q4.2597-.41895,9.332-4.0488l1.9785,2.7597a17.66365,17.66365,0,0,1-7.4414,3.8106v2.5195h7.6817v3.1192h-7.6817v3.2714h7.6817v3.0586h-7.6817v3.8106h31.8926v-3.8106h-7.3223v-3h7.3223v-3.5087h-7.2598v-3.0616h7.2598v-3.2695h-8.4902v-3.6289H599.421v20.2187h4.7129Zm-17.0117-23.2813-2.1016,2.5801a31.974,31.974,0,0,0-4.6484-3.5703,35.817,35.817,0,0,1-5.461,3.75l-2.459-2.1582a23.8375,23.8375,0,0,0,5.0996-2.8203,52.91127,52.91127,0,0,0-5.9101-1.9219l1.5312-2.7597a55.61611,55.61611,0,0,1,6.6895,2.1601,25.4246,25.4246,0,0,0,3.5684-4.1094l2.5214,2.0098a19.09118,19.09118,0,0,1-3.1191,3.6309A22.43119,22.43119,0,0,1,587.12223,240.2314Zm.3593,10.92-2.5195,1.9804a27.73314,27.73314,0,0,0-5.041-3.0898,32.42561,32.42561,0,0,1-5.7598,3.0898l-2.2812-1.8007a29.4993,29.4993,0,0,0,5.5508-3.1797,30.54551,30.54551,0,0,0-5.0997-2.3399l2.25-1.8906a37.549,37.549,0,0,1,5.2813,2.3105,25.51527,25.51527,0,0,0,3.3887-2.8789l2.7597,1.4102a15.06841,15.06841,0,0,1-3.4179,3.2695A22.355,22.355,0,0,1,587.48153,251.1514Z" fill="#a39b4b"/><path d="M646.17823,251.9014q6.0615,6.8115,6.0625,13.291a7.31035,7.31035,0,0,1-1.6367,5.0097,5.76455,5.76455,0,0,1-4.5743,1.8614,23.70849,23.70849,0,0,1-3.9003-.3907l-1.1094-3.9902a21.66761,21.66761,0,0,0,4.6191.8106,3.05261,3.05261,0,0,0,2.1309-.9004,3.13241,3.13241,0,0,0,.9609-2.4004,14.37317,14.37317,0,0,0-1.6504-5.7598,22.92593,22.92593,0,0,0-4.9511-6.6894l5.8515-15.0313h-8.9101v47.791h-3.9317V233.9014h16.8301v3.8105Zm41.373,22.5918a20.73929,20.73929,0,0,1-2.1015,7.0488,4.622,4.622,0,0,1-4.2891,2.1914h-4.6797q-4.68165,0-4.6797-4.9199V262.9424h-6.332q-.17865,9.6591-3.7637,14.4746-3.5859,4.81635-13.3066,8.0859l-2.5195-3.4511q9.02925-2.669,12.3906-6.9004,3.3603-4.2276,3.3906-12.1485h-8.2207v-3.9316h32.1328v3.8711h-10.0234v14.9414a2.29074,2.29074,0,0,0,.4804,1.3945,1.39906,1.39906,0,0,0,1.1407.6445h3.8105q1.16895,0,1.7852-1.9199a30.58318,30.58318,0,0,0,1.0351-4.9804Zm-3.4511-27.211-3.8086.0606v-5.2813h-22.6211v5.2813h-3.8711V238.251h13.1699v-6.8086h3.9316v6.75h13.1993Zm-5.0391,5.7891h-20.2813v-3.9297H679.061Z" fill="#a39b4b"/><path d="M770.57839,274.6416h-24.1523v4.1719q0,6.6885-7.1094,6.6894h-3.9902l-1.4707-3.6894h5.58q2.9415,0,2.9414-2.7012v-4.4707h-26.3417v-3.75h26.3417v-2.5801a37.45837,37.45837,0,0,0,8.9688-4.3789h-22.9805v-3.4512h29.6407v3.2696a91.69661,91.69661,0,0,1-11.5801,6.5117v.6289h24.1523Zm-2.5215-11.1289h-3.5996v-6.2109h-41.9101v6.5703h-3.9317V253.792h5.1621V235.4912q4.25685-.41895,9.3282-4.0488l1.9804,2.7597a17.66724,17.66724,0,0,1-7.4394,3.8106v2.5195h7.6797v3.1192h-7.6797v3.2714h7.6797v3.0586h-7.6797v3.8106h31.8906v-3.8106h-7.3203v-3h7.3203v-3.5087h-7.2598v-3.0616h7.2598v-3.2695h-8.4902v-3.6289H763.346v20.2187h4.7109Zm-17.0097-23.2813-2.1016,2.5801a31.99451,31.99451,0,0,0-4.6504-3.5703,35.69747,35.69747,0,0,1-5.459,3.75l-2.4609-2.1582a23.76228,23.76228,0,0,0,5.1016-2.8203,52.77886,52.77886,0,0,0-5.9102-1.9219l1.5293-2.7597a55.39885,55.39885,0,0,1,6.6895,2.1601,25.55053,25.55053,0,0,0,3.5722-4.1094l2.5195,2.0098a19.033,19.033,0,0,1-3.121,3.6309A22.38285,22.38285,0,0,1,751.04719,240.2314Zm.3593,10.92-2.5195,1.9804a27.85565,27.85565,0,0,0-5.039-3.0898,32.46212,32.46212,0,0,1-5.7618,3.0898l-2.2793-1.8007a29.62657,29.62657,0,0,0,5.5508-3.1797,30.65123,30.65123,0,0,0-5.1015-2.3399l2.25-1.8906a37.42307,37.42307,0,0,1,5.2793,2.3105,25.61129,25.61129,0,0,0,3.3906-2.8789l2.7597,1.4102a15.07427,15.07427,0,0,1-3.4199,3.2695A22.27445,22.27445,0,0,1,751.40649,251.1514Z" fill="#a39b4b"/><path d="M852.73354,282.5029h-54.5996v-3.8691h25.4394V264.5615h-18.3301v-3.8691h18.3301V248.4521h-13.5898a31.9293,31.9293,0,0,1-8.2207,11.7891l-3.959-2.0703a33.14172,33.14172,0,0,0,10.9492-22.2598l4.0508,1.17a44.99627,44.99627,0,0,1-1.4121,7.5605h12.123V231.501h4.0489v13.0801h21.1796v3.871h-21.1796v12.1797h18.0605v3.8692h-18.0605v14.0722h25.1699Z" fill="#a39b4b"/><path d="M935.3105,245.3311l-2.1582,3.121q-10.23045-2.5194-16.0215-5.8203v2.6993H896.8496v-2.9688a60.81646,60.81646,0,0,1-15.7188,5.9102l-1.9804-3.1504q16.8603-4.11045,28.08-13.7403l3.6895,1.2305a5.12593,5.12593,0,0,1-1.0488,1.0488Q919.829,241.94335,935.3105,245.3311Zm-6.3887,17.1914H885.3613V248.4521h43.5605Zm-3.5703,23.039h-3.6914v-2.3984H892.6797v2.3984h-3.6895V265.6728h36.3613Zm-20.0117-26.2793v-7.5H889.0507v7.5Zm16.3203,13.5606v-3.8701H892.6797v3.8701Zm0,7.08v-3.9296H892.6797v3.9296Zm-20.3105-23.6113-3.0899,2.1612a21.583,21.583,0,0,0-5.459-4.1709l3.1192-1.7989A15.41036,15.41036,0,0,1,901.3496,256.3115Zm14.5508-14.3086a37.78874,37.78874,0,0,1-8.4297-6.1523,46.15624,46.15624,0,0,1-9.75,6.1523Zm9.33,17.2793v-7.5H909.0312v7.5Zm-3.6289-5.7304a14.29886,14.29886,0,0,1-5.3418,4.8007l-3.2988-1.6504a15.57947,15.57947,0,0,0,5.4004-4.4394Z" fill="#a39b4b"/><path d="M1561.9277,336.833V236.3613h12.0908v89.8194h42.751V336.833Z" fill="#a39b4b"/><path d="M1638.6474,245.1416q-3.7455,0-5.3974-1.7988a6.63054,6.63054,0,0,1-1.6563-4.6787V236.793a6.63844,6.63844,0,0,1,1.6563-4.6787q1.65225-1.79745,5.3974-1.7989,3.7413,0,5.3975,1.7989a6.64686,6.64686,0,0,1,1.6553,4.6787v1.8711a6.63894,6.63894,0,0,1-1.6553,4.6787Q1642.38965,245.14445,1638.6474,245.1416Zm-5.7578,17.418h11.5156V336.833h-11.5156Z" fill="#a39b4b"/><path d="M1668.875,336.833V262.5596h11.5156v11.9531h.5762a24.20161,24.20161,0,0,1,7.7002-9.9746q4.96725-3.70455,13.3144-3.707,11.5152,0,18.209,7.413,6.69285,7.4151,6.6934,20.9444V336.833h-11.5147V291.1045q0-20.0538-16.8418-20.0527a25.88735,25.88735,0,0,0-6.6933.8652,19.468,19.468,0,0,0-5.8301,2.5976,12.837,12.837,0,0,0-4.1016,4.3995,12.518,12.518,0,0,0-1.5117,6.2744V336.833Z" fill="#a39b4b"/><path d="M1809.6494,334.3857q0,15.3999-8.6367,24.1817-8.6367,8.78025-24.3262,8.7812a39.36679,39.36679,0,0,1-15.6182-2.8183,31.88921,31.88921,0,0,1-10.8672-7.4473l6.7657-7.9521a26.13409,26.13409,0,0,0,8.6367,5.9267,28.98085,28.98085,0,0,0,11.3711,2.0703q10.0737,0,15.6172-5.5634,5.54-5.57085,5.542-16.4112V324.8789h-.5752a24.44862,24.44862,0,0,1-8.6368,10.2598,23.74948,23.74948,0,0,1-13.0996,3.4209,28.24161,28.24161,0,0,1-12.5224-2.7344,26.53257,26.53257,0,0,1-9.5-7.7725,37.40476,37.40476,0,0,1-6.0459-12.2353,61.2927,61.2927,0,0,1,0-32.2432,37.43351,37.43351,0,0,1,6.0459-12.2353,26.56179,26.56179,0,0,1,9.5-7.7725,28.22836,28.22836,0,0,1,12.5224-2.7353,25.287,25.287,0,0,1,13.3155,3.3496,20.904,20.904,0,0,1,8.4209,10.332h.5752V262.5596h11.5156Zm-30.3721-6.0459a25.95339,25.95339,0,0,0,7.3418-1.0127,17.79632,17.79632,0,0,0,5.9727-2.9658,14.84822,14.84822,0,0,0,4.0312-4.7724,13.74354,13.74354,0,0,0,1.5108-6.583V285.374a11.91622,11.91622,0,0,0-1.4395-5.7158,13.50523,13.50523,0,0,0-4.0303-4.5557,20.85759,20.85759,0,0,0-6.0449-2.9648,24.32616,24.32616,0,0,0-7.3418-1.0859q-9.79095,0-15.5449,6.2207-5.75985,6.2211-5.7578,16.0586v12.7294q0,9.8379,5.7578,16.0586Q1769.48625,328.34035,1779.2773,328.3398Z" fill="#a39b4b"/><path d="M1879.8906,324.8789h-.5762a35.35305,35.35305,0,0,1-2.8066,5.0606,18.896,18.896,0,0,1-4.1016,4.4169,19.22988,19.22988,0,0,1-5.9023,3.0635,25.76309,25.76309,0,0,1-8.0606,1.1397q-11.51655,0-18.2802-7.4131-6.7677-7.4106-6.7657-20.9424V262.5596h11.5157v45.7275q0,20.0523,16.9853,20.0527a25.72679,25.72679,0,0,0,6.6934-.8662,18.47583,18.47583,0,0,0,5.7578-2.5947,13.11171,13.11171,0,0,0,4.0293-4.3994,12.83091,12.83091,0,0,0,1.5117-6.4219v-51.498h11.5156V336.833h-11.5156Z" fill="#a39b4b"/><path d="M1921.6328,245.1416q-3.74415,0-5.3975-1.7988a6.62994,6.62994,0,0,1-1.6553-4.6787V236.793a6.63784,6.63784,0,0,1,1.6553-4.6787q1.6539-1.79745,5.3975-1.7989,3.74115,0,5.3984,1.7989a6.65033,6.65033,0,0,1,1.6543,4.6787v1.8711a6.6424,6.6424,0,0,1-1.6543,4.6787Q1925.37445,245.14445,1921.6328,245.1416Zm-5.7578,17.418h11.5156V336.833H1915.875Z" fill="#a39b4b"/><path d="M1974.1718,338.5596q-10.36365,0-17.3447-3.958a39.41683,39.41683,0,0,1-12.0195-10.5801l8.2041-6.6211a32.24431,32.24431,0,0,0,9.6445,8.4199,25.106,25.106,0,0,0,12.3789,2.9522q7.3419,0,11.4434-3.167a11.50417,11.50417,0,0,0,1.2959-16.3379q-2.80815-3.09375-10.1475-4.2461l-5.9023-.8643a49.126,49.126,0,0,1-9.5-2.2304,26.40281,26.40281,0,0,1-7.5567-4.0303,17.29419,17.29419,0,0,1-5.038-6.2617,20.39481,20.39481,0,0,1-1.7999-8.9239,21.44373,21.44373,0,0,1,2.0157-9.5732,19.26742,19.26742,0,0,1,5.542-6.8359,24.21367,24.21367,0,0,1,8.4199-4.1026,38.92389,38.92389,0,0,1,10.5088-1.3681q9.06735,0,15.1855,3.1669a34.09021,34.09021,0,0,1,10.7237,8.7803l-7.6299,6.9092a22.90159,22.90159,0,0,0-7.1963-6.2607,23.18726,23.18726,0,0,0-11.9473-2.8077q-7.1997,0-10.8681,3.0948a10.44188,10.44188,0,0,0-3.67,8.4209q0,5.4726,3.67,7.917,3.6708,2.4492,10.58,3.5986l5.7578.8633q12.378,1.872,17.5606,7.125,5.18265,5.25735,5.1826,13.7461,0,10.7958-7.3408,16.9853Q1986.98245,338.562,1974.1718,338.5596Z" fill="#a39b4b"/><path d="M2037.3632,336.833q-6.0438,0-9.1396-3.374a12.553,12.553,0,0,1-3.0947-8.835V272.7783h-12.2354V262.5596h6.9092q3.74115,0,5.1104-1.5127,1.36665-1.51035,1.3671-5.253V241.9746h10.3643v20.585h16.2656v10.2187h-16.2656v53.835h15.1133V336.833Z" fill="#a39b4b"/><path d="M2077.2353,245.1416q-3.74415,0-5.3974-1.7988a6.62994,6.62994,0,0,1-1.6553-4.6787V236.793a6.63784,6.63784,0,0,1,1.6553-4.6787q1.65225-1.79745,5.3974-1.7989,3.74265,0,5.3975,1.7989a6.6474,6.6474,0,0,1,1.6562,4.6787v1.8711a6.63948,6.63948,0,0,1-1.6562,4.6787Q2080.97755,245.14445,2077.2353,245.1416Zm-5.7578,17.418h11.5156V336.833h-11.5156Z" fill="#a39b4b"/><path d="M2135.0996,338.5596a34.227,34.227,0,0,1-13.9619-2.7344,28.48132,28.48132,0,0,1-10.4356-7.7725,34.58763,34.58763,0,0,1-6.4775-12.2353,59.37707,59.37707,0,0,1,0-32.2432,34.61265,34.61265,0,0,1,6.4775-12.2353,28.51232,28.51232,0,0,1,10.4356-7.7725,34.2107,34.2107,0,0,1,13.9619-2.7353q11.0829,0,17.7773,4.8222a29.43694,29.43694,0,0,1,10.0039,12.5947l-9.6445,4.8946a17.494,17.494,0,0,0-6.6211-8.9248,19.876,19.876,0,0,0-11.5156-3.166,23.0398,23.0398,0,0,0-9.0684,1.6543,17.733,17.733,0,0,0-6.4765,4.6074,19.37319,19.37319,0,0,0-3.8868,7.0527,29.76821,29.76821,0,0,0-1.2959,8.9951v12.667q0,9.79245,5.2549,16.0508,5.2515,6.2607,15.4727,6.2607,13.9599,0,20.1523-12.955l8.3487,5.6142a29.49259,29.49259,0,0,1-10.7237,12.8106Q2145.7519,338.5601,2135.0996,338.5596Z" fill="#a39b4b"/><path d="M2202.1757,338.5596q-10.36365,0-17.3447-3.958a39.41683,39.41683,0,0,1-12.0195-10.5801l8.2041-6.6211a32.24431,32.24431,0,0,0,9.6445,8.4199,25.10356,25.10356,0,0,0,12.3789,2.9522q7.3419,0,11.4434-3.167a11.50417,11.50417,0,0,0,1.2959-16.3379q-2.80815-3.09375-10.1475-4.2461l-5.9023-.8643a49.126,49.126,0,0,1-9.5-2.2304,26.40281,26.40281,0,0,1-7.5567-4.0303,17.29419,17.29419,0,0,1-5.038-6.2617,20.39483,20.39483,0,0,1-1.7998-8.9239,21.44373,21.44373,0,0,1,2.0156-9.5732,19.26849,19.26849,0,0,1,5.542-6.8359,24.21454,24.21454,0,0,1,8.4199-4.1026,38.91859,38.91859,0,0,1,10.5088-1.3681q9.06735,0,15.1855,3.1669a34.09021,34.09021,0,0,1,10.7237,8.7803l-7.6299,6.9092a22.895,22.895,0,0,0-7.1973-6.2607,23.1809,23.1809,0,0,0-11.9463-2.8077q-7.1997,0-10.8681,3.0948a10.44188,10.44188,0,0,0-3.67,8.4209q0,5.4726,3.67,7.917,3.6708,2.4492,10.58,3.5986l5.7578.8633q12.378,1.872,17.5606,7.125,5.18265,5.25735,5.1816,13.7461,0,10.7958-7.3398,16.9853Q2214.98635,338.562,2202.1757,338.5596Z" fill="#a39b4b"/><path d="M2313.2978,338.5596q-12.2358,0-20.8721-4.6778a44.27816,44.27816,0,0,1-14.6816-12.8828l8.9238-7.4853a39.10768,39.10768,0,0,0,11.8037,10.7236,30.43233,30.43233,0,0,0,15.2579,3.6709q10.7958,0,16.4814-5.1816,5.68365-5.18265,5.6856-13.8194,0-7.19535-4.3184-11.082-4.31835-3.8877-14.25-6.1904l-8.2051-1.8711q-13.81785-3.1656-21.0869-9.5713-7.27-6.4044-7.2695-18.0664a27.309,27.309,0,0,1,2.4472-11.8028,23.67977,23.67977,0,0,1,6.8369-8.6357,30.85163,30.85163,0,0,1,10.5079-5.2539,47.57547,47.57547,0,0,1,13.4589-1.7998q11.36865,0,19.504,4.1748a37.57034,37.57034,0,0,1,13.746,12.2353l-9.0683,6.6211a31.28883,31.28883,0,0,0-10.0752-9.0673q-5.90475-3.31215-14.6826-3.3116-9.64455,0-15.1856,4.1016-5.543,4.10295-5.542,12.3066,0,7.2012,4.6787,10.8682,4.6758,3.66945,14.1778,5.8301l8.2051,1.8711q14.8242,3.3135,21.4472,10.0752,6.61815,6.76755,6.6211,17.9931a31.83027,31.83027,0,0,1-2.375,12.5235,25.70978,25.70978,0,0,1-6.8369,9.5,31.80007,31.80007,0,0,1-10.8682,6.0459A45.15726,45.15726,0,0,1,2313.2978,338.5596Z" fill="#a39b4b"/><path d="M2395.6318,338.5596a33.48955,33.48955,0,0,1-13.6748-2.7344,29.44321,29.44321,0,0,1-10.5801-7.8457,36.91385,36.91385,0,0,1-6.8369-12.2344,53.63613,53.63613,0,0,1,0-32.0273,36.83609,36.83609,0,0,1,6.8369-12.3067,29.48585,29.48585,0,0,1,10.5801-7.8447,33.47349,33.47349,0,0,1,13.6748-2.7353,32.98871,32.98871,0,0,1,13.6025,2.7353,30.36622,30.36622,0,0,1,10.5791,7.8447,36.21613,36.21613,0,0,1,6.9092,12.3067,53.61521,53.61521,0,0,1,0,32.0273,36.28961,36.28961,0,0,1-6.9092,12.2344,30.32084,30.32084,0,0,1-10.5791,7.8457A33.00449,33.00449,0,0,1,2395.6318,338.5596Zm0-10.2198q9.35445,0,15.2578-5.7578,5.9004-5.75535,5.9014-17.5605V294.3701q0-11.8008-5.9014-17.5615-5.90475-5.75385-15.2578-5.7568-9.359,0-15.2578,5.7568-5.90475,5.75835-5.9014,17.5615v10.6514q0,11.80515,5.9014,17.5605Q2386.2744,328.34185,2395.6318,328.3398Z" fill="#a39b4b"/><path d="M2475.8066,338.5596a34.22738,34.22738,0,0,1-13.9619-2.7344,28.49194,28.49194,0,0,1-10.4365-7.7725,34.60062,34.60062,0,0,1-6.4766-12.2353,59.354,59.354,0,0,1,0-32.2432,34.62566,34.62566,0,0,1,6.4766-12.2353,28.523,28.523,0,0,1,10.4365-7.7725,34.211,34.211,0,0,1,13.9619-2.7353q11.08305,0,17.7774,4.8222a29.43694,29.43694,0,0,1,10.0039,12.5947l-9.6446,4.8946a17.49894,17.49894,0,0,0-6.6211-8.9248,19.87558,19.87558,0,0,0-11.5156-3.166,23.03634,23.03634,0,0,0-9.0684,1.6543,17.72461,17.72461,0,0,0-6.4765,4.6074,19.37154,19.37154,0,0,0-3.8867,7.0527,29.76508,29.76508,0,0,0-1.2959,8.9951v12.667q0,9.79245,5.2539,16.0508,5.25285,6.2607,15.4736,6.2607,13.9599,0,20.1524-12.955l8.3486,5.6142a29.4917,29.4917,0,0,1-10.7236,12.8106Q2486.459,338.5601,2475.8066,338.5596Z" fill="#a39b4b"/><path d="M2526.3291,245.1416q-3.74565,0-5.3975-1.7988a6.62994,6.62994,0,0,1-1.6553-4.6787V236.793a6.63784,6.63784,0,0,1,1.6553-4.6787q1.6524-1.79745,5.3975-1.7989,3.74115,0,5.3974,1.7989a6.647,6.647,0,0,1,1.6563,4.6787v1.8711a6.63909,6.63909,0,0,1-1.6563,4.6787Q2530.07125,245.14445,2526.3291,245.1416Zm-5.7578,17.418h11.5156V336.833h-11.5156Z" fill="#a39b4b"/><path d="M2584.4814,338.5596a33.34909,33.34909,0,0,1-13.7461-2.7344,29.59389,29.59389,0,0,1-10.5078-7.8457,35.95592,35.95592,0,0,1-6.7656-12.2344,55.19621,55.19621,0,0,1,0-32.0273,35.89283,35.89283,0,0,1,6.7656-12.3067,29.63727,29.63727,0,0,1,10.5078-7.8447,33.33319,33.33319,0,0,1,13.7461-2.7353,31.563,31.563,0,0,1,13.3867,2.7265,29.67235,29.67235,0,0,1,10.0762,7.5313,33.57151,33.57151,0,0,1,6.4053,11.4033,45.01706,45.01706,0,0,1,2.2314,14.4863v5.4522h-53.4033v3.455a25.40092,25.40092,0,0,0,1.5117,8.8516,21.01347,21.01347,0,0,0,4.3184,7.125,19.73188,19.73188,0,0,0,6.9092,4.751,23.73057,23.73057,0,0,0,9.2841,1.7265,22.59745,22.59745,0,0,0,12.3077-3.3105,21.72027,21.72027,0,0,0,8.1318-9.5l8.2051,5.9394a28.66592,28.66592,0,0,1-11.2276,12.3838A33.86192,33.86192,0,0,1,2584.4814,338.5596Zm0-68.084a21.92062,21.92062,0,0,0-8.6357,1.6465,19.41239,19.41239,0,0,0-6.6934,4.6484,21.80014,21.80014,0,0,0-4.3906,7.0811,24.47531,24.47531,0,0,0-1.584,8.9414v1.0009h41.0234v-1.5742q0-9.8715-5.3974-15.8066Q2593.40565,270.4761,2584.4814,270.4756Z" fill="#a39b4b"/><path d="M2651.9902,336.833q-6.0468,0-9.1406-3.374a12.553,12.553,0,0,1-3.0947-8.835V272.7783h-12.2354V262.5596h6.9092q3.74115,0,5.1103-1.5127,1.3653-1.51035,1.3672-5.253V241.9746h10.3633v20.585h16.2656v10.2187h-16.2656v53.835h15.1143V336.833Z" fill="#a39b4b"/><path d="M2731.8769,262.5596h11.3721l-33.251,91.5459a40.84213,40.84213,0,0,1-2.5908,5.542,10.81229,10.81229,0,0,1-3.167,3.5263,12.57077,12.57077,0,0,1-4.6777,1.8711,34.79507,34.79507,0,0,1-6.8379.5762h-5.9014V355.4014h11.6592l5.6142-15.8086-27.7812-77.0332h11.5156l17.8487,50.4257,3.455,12.0684h.7188l4.0312-12.0684Z" fill="#a39b4b"/><path d="M1582.0556,477.75l-3.6103-11.4766H1562.455l-3.5459,11.4766h-8.6406l15.0879-45.0039h10.5742l14.958,45.0039Zm-11.4765-37.2656h-.3223l-5.7383,18.5039h11.8633Z" fill="#a39b4b"/><path d="M1627.3808,477.75l-3.6103-11.4766h-15.9903l-3.5459,11.4766h-8.6406l15.0879-45.0039h10.5742l14.958,45.0039Zm-11.4765-37.2656h-.3223l-5.7383,18.5039h11.8633Z" fill="#a39b4b"/><path d="M1671.4179,458.7305h-18.7627V477.75h-8.5107V432.7461h8.5107v18.4394h18.7627V432.7461h8.5108V477.75h-8.5108Z" fill="#a39b4b"/><path d="M1706.2988,457.377l-5.9961,7.0917V477.75h-8.5107V432.7461h8.5107v22.1797h.3223l6.3828-8.4453,11.1543-13.7344h9.8008l-15.668,18.7617,16.957,26.2422h-10.122Z" fill="#a39b4b"/><path d="M1744.8554,432.7461v27.6601q0,5.2881,2.0313,7.9317,2.03025,2.64255,6.8662,2.6426,4.8354,0,6.8672-2.6426,2.03025-2.64555,2.0303-7.9317V432.7461h8.3818v26.5644a34.51991,34.51991,0,0,1-.9346,8.5743,14.611,14.611,0,0,1-2.998,5.998,12.09434,12.09434,0,0,1-5.3838,3.5137,25.1748,25.1748,0,0,1-8.0274,1.1269,24.7913,24.7913,0,0,1-8.0273-1.1269,12.113,12.113,0,0,1-5.3193-3.5137,14.29225,14.29225,0,0,1-2.9659-5.998,35.65375,35.65375,0,0,1-.9023-8.5743V432.7461Z" fill="#a39b4b"/></g></svg>