<svg xmlns="http://www.w3.org/2000/svg" xmlns:xlink="http://www.w3.org/1999/xlink" viewBox="0 0 633.1914 692.6796"><defs><clipPath id="a"><rect width="633.1914" height="692.6796" fill="none"/></clipPath></defs><g clip-path="url(#a)"><text transform="translate(97.55904 624.7104)" font-size="42" fill="#fff" font-family="SourceHanSansHC-Medium-B5pc-H, Source Han Sans HC"><tspan letter-spacing="0.00658em">二零二零至二零二一年</tspan><tspan x="422.76465" y="0">度</tspan></text><path d="M79.2226,135.7871A105.36935,105.36935,0,0,0,71.1367,169.5a10.382,10.382,0,0,1,13.6777.4785A92.63034,92.63034,0,0,1,177.164,84.541a6.8379,6.8379,0,1,0,0-13.6758,106.401,106.401,0,0,0-97.9414,64.9219Z" fill="#fff"/><path d="M169.5937,269.4863a92.63079,92.63079,0,0,1-85.0508-91.8985,6.8379,6.8379,0,1,0-13.6758,0,106.22335,106.22335,0,0,0,98.1836,105.5801,10.37984,10.37984,0,0,1,.543-13.6816Z" fill="#fff"/><path d="M251.2656,243.707a6.83935,6.83935,0,0,0-9.6699,0,92.31616,92.31616,0,0,1-64.4317,26.0879,6.8379,6.8379,0,1,0,0,13.6758,105.95026,105.95026,0,0,0,74.1016-30.0938A6.8347,6.8347,0,0,0,251.2656,243.707Z" fill="#fff"/><path d="M177.164,283.4707a6.8379,6.8379,0,1,1,0-13.6758,92.31616,92.31616,0,0,0,64.4317-26.0879,6.83765,6.83765,0,1,1,9.6699,9.6699,105.95026,105.95026,0,0,1-74.1016,30.0938Zm-41.3828-8.3594a106.21211,106.21211,0,0,1-64.9141-97.5235,6.8379,6.8379,0,1,1,13.6758,0,92.63079,92.63079,0,0,0,85.0508,91.8985,10.37984,10.37984,0,0,0-.543,13.6816A105.36964,105.36964,0,0,1,135.7812,275.1113ZM177.164,70.8652a6.8379,6.8379,0,1,1,0,13.6758,92.63034,92.63034,0,0,0-92.3496,85.4375A10.382,10.382,0,0,0,71.1367,169.5,106.21917,106.21917,0,0,1,177.164,70.8652Z" fill="#fff"/><path d="M233.4589,120.875a79.61243,79.61243,0,1,0,23.3164,56.2929A79.094,79.094,0,0,0,233.4589,120.875Z" fill="#fff"/><path d="M121.0585,202.914V151.4238h11.168v3.8066h-6.4726v43.877h6.4726v3.8066Z" fill="#333e48"/><path d="M233.2714,151.4238V202.914h-11.166v-3.8066h6.4707v-43.877h-6.4707v-3.8066Z" fill="#333e48"/><path d="M146.9941,187.6289q0,1.54395.0488,3.6347.04695,2.0919.1289,4.25.0792,2.1534.1934,4.1192.1113,1.9629.2734,3.2812H141.041V166.5488q0-4.6992-.1602-8.5117-.1611-3.8145-.4844-6.6133h6.5977Z" fill="#333e48"/><path d="M175.7988,170.0878v4.2168H169.748v24.3946h6.0508v4.2148H157.7773v-4.2148h5.9531V174.3046h-5.9531v-4.2168Z" fill="#333e48"/><path d="M189.3144,170.0878a11.24085,11.24085,0,0,1,.3867,1.3379c.1309.5469.2461,1.1192.3535,1.7207.1075.5996.2032,1.1914.2911,1.7696l.2558,1.4472a21.20423,21.20423,0,0,1,6.211-5.2929,13.90309,13.90309,0,0,1,6.5019-1.625,11.41115,11.41115,0,0,1,4.5527.8515A8.02323,8.02323,0,0,1,211.1992,173a13.23059,13.23059,0,0,1,2.0429,4.7968,31.35751,31.35751,0,0,1,.6914,7.0977V199.373a36.01328,36.01328,0,0,1-.9492,9.0273,15.4289,15.4289,0,0,1-2.6543,5.7305,9.30963,9.30963,0,0,1-4.1035,3.0235,15.23782,15.23782,0,0,1-5.3262.8867,11.51884,11.51884,0,0,1-3.1054-.4668,11.7531,11.7531,0,0,1-3.0098-1.3047l2.0918-4.8262a6.45768,6.45768,0,0,0,1.9805.918,8.79981,8.79981,0,0,0,2.5254.3691,7.29229,7.29229,0,0,0,2.7695-.498,4.63151,4.63151,0,0,0,2.0742-1.7539,9.606,9.606,0,0,0,1.3047-3.4434,28.54729,28.54729,0,0,0,.4492-5.5683V187.3066a39.32556,39.32556,0,0,0-.4023-6.2598,10.80161,10.80161,0,0,0-1.2071-3.7324,3.99883,3.99883,0,0,0-2.0117-1.7871,8.06836,8.06836,0,0,0-2.8164-.4512,7.56786,7.56786,0,0,0-3.3926.8223,12.49632,12.49632,0,0,0-3.0429,2.123,15.7333,15.7333,0,0,0-2.4453,2.9454,13.54465,13.54465,0,0,0-1.5782,3.2812v18.666h-5.9531V183.123a50.47947,50.47947,0,0,0-.5469-8.0625,41.32875,41.32875,0,0,0-1.0625-4.9727Z" fill="#333e48"/><path d="M129.7666,447.2714H97.5576v-5.3457h32.209Zm-4.1915,56.9317h-5.5195v-5.8613h-12.873v5.8613h-5.6035v-28.916h23.996Zm-.2578-45.8946-23.6523.084v-5.3457h23.6523Zm.086,11.2051H101.665v-5.3457h23.7383Zm-1.0703-33.1054-21.7286.0859v-5.3477H124.333ZM120.0556,493.08V480.5488h-12.959V493.08Zm55.2617-23.4804-46.2363.0859v-5.2617h11.4629l2.4805-13.2168H132.333v-5.2598h11.5488l1.8379-9.7969H129.3388v-5.3457h42.4727v5.2618H151.4931l-1.7519,9.7949h17.6211l-1.8399,18.4765h9.7949Zm-7.4414,34.7734h-5.5175v-5.7734H140.7158v5.7734h-5.6035v-29h32.7636Zm-5.5175-11.0352V480.6347H140.6298v12.7031Zm-.8555-42.2168H148.7998l-2.4805,13.3028h13.8574Z" fill="#fff"/><path d="M271.7607,447.2714H194.0009v-5.3457h77.7598Zm-11.4629,10.9512H204.6943v-5.1758h55.6035Zm0,11.1192H204.6943v-5.1739h55.6035ZM258.288,504.373h-5.5175v-6.0312H212.6494v6.0312h-5.5176V475.2871H258.288Zm-.0859-68.5215-50.6426.1289v-5.1758h50.6426ZM252.7705,493.08V480.5488H212.6494V493.08Z" fill="#fff"/><path d="M368.2041,488.8906H333.7724v5.9453q0,9.5361-10.1387,9.5371h-5.6875l-2.0957-5.2598h7.9551q4.19235,0,4.1934-3.8496v-6.373H290.4443v-5.3477H327.999v-3.6777q8.9355-3.3369,12.7871-6.2442H308.0224v-4.9199h42.2617v4.6621a130.82914,130.82914,0,0,1-16.5117,9.2813v.8984h34.4317Zm-3.5918-15.8692h-5.1348v-8.8535h-59.752v9.3672H294.122V459.164h7.3574V433.0722q6.07035-.6006,13.3028-5.7754l2.8222,3.9356a25.14246,25.14246,0,0,1-10.6074,5.4316v3.5938h10.9492v4.4492H306.997v4.6621h10.9492v4.3613H306.997v5.4336h45.4668v-5.4336H342.0263v-4.2773h10.4375v-5.0039H342.1123v-4.3633h10.3515v-4.6621H340.3584V430.248h17.5371v28.8301h6.7168ZM340.3584,439.83l-2.9922,3.6778a45.884,45.884,0,0,0-6.6309-5.0899,51.207,51.207,0,0,1-7.7852,5.3477l-3.5078-3.0801a33.88543,33.88543,0,0,0,7.2735-4.0215,74.99317,74.99317,0,0,0-8.4278-2.7363l2.1817-3.9356a79.17758,79.17758,0,0,1,9.539,3.0801,36.54359,36.54359,0,0,0,5.0899-5.8594l3.5918,2.8653a27.08136,27.08136,0,0,1-4.4473,5.1758A31.92213,31.92213,0,0,1,340.3584,439.83Zm.5136,15.5684-3.5918,2.8242a39.641,39.641,0,0,0-7.1855-4.4062,46.30937,46.30937,0,0,1-8.2129,4.4062l-3.25-2.5664a42.36793,42.36793,0,0,0,7.9121-4.5352,43.52191,43.52191,0,0,0-7.2715-3.3359l3.207-2.6933a53.22566,53.22566,0,0,1,7.5293,3.2929,36.35825,36.35825,0,0,0,4.8321-4.1074l3.9355,2.0117a21.50862,21.50862,0,0,1-4.875,4.6621A31.88389,31.88389,0,0,1,340.872,455.3984Z" fill="#fff"/><path d="M464.5615,488.8906H430.1298v5.9453q0,9.5361-10.1367,9.5371h-5.6894l-2.0957-5.2598h7.955q4.1925,0,4.1914-3.8496v-6.373H386.8017v-5.3477h37.5527v-3.6777q8.9415-3.3369,12.7911-6.2442H404.3798v-4.9199h42.2598v4.6621a130.65817,130.65817,0,0,1-16.5098,9.2813v.8984h34.4317Zm-3.5918-15.8692h-5.1348v-8.8535H396.083v9.3672h-5.6036V459.164h7.3575V433.0722q6.0732-.6006,13.3027-5.7754l2.8223,3.9356a25.13139,25.13139,0,0,1-10.6075,5.4316v3.5938h10.9493v4.4492H403.3544v4.6621h10.9493v4.3613H403.3544v5.4336h45.4668v-5.4336H438.3857v-4.2773h10.4355v-5.0039H438.4697v-4.3633h10.3515v-4.6621H436.7158V430.248h17.5371v28.8301h6.7168Zm-22.7305-18.582-3.8965,3.5625a41.32021,41.32021,0,0,0-6.7851-8.0957q-5.7393,6.39555-9.4336,8.1367l-3.8555-3.2383q4.3476-2.06835,9.4336-7.7324a49.68882,49.68882,0,0,0-8.2441-4.4551l3.3632-3.4785a66.20373,66.20373,0,0,1,7.711,4.211,24.46036,24.46036,0,0,0,2.625-6.0332H416.2783v-5.0606h6.9043v-5.209h4.4316v5.209h8.1953v5.0606h-1.623a32.19494,32.19494,0,0,1-3.6758,8.705A39.739,39.739,0,0,1,438.2392,454.4394Z" fill="#fff"/><path d="M562.3291,447.1015l-3.0782,4.4473q-14.5869-3.59175-22.8398-8.2969v3.8496h-28.916v-4.2344q-12.4893,6.45705-22.4121,8.4258l-2.8223-4.4902q24.0351-5.85945,40.0352-19.5899l5.2597,1.752a7.30632,7.30632,0,0,1-1.498,1.498Q540.2578,442.2666,562.3291,447.1015Zm-9.1114,24.5078H491.1142V451.5488h62.1035Zm-5.0879,32.8496h-5.2617v-3.4218H501.5517v3.4218H496.29V476.1015h51.8398Zm-28.5293-37.4687V456.2968H496.374v10.6934Zm23.2676,19.334v-5.5176H501.5517v5.5176Zm0,10.0937v-5.6035H501.5517v5.6035Zm-28.957-33.6621-4.4043,3.0801a30.79607,30.79607,0,0,0-7.7852-5.9453l4.4473-2.5664A21.99383,21.99383,0,0,1,513.9111,462.7558Zm20.7461-20.4023a53.92216,53.92216,0,0,1-12.0196-8.7676,65.64543,65.64543,0,0,1-13.9003,8.7676Zm13.3027,24.6367V456.2968H524.8623v10.6934Zm-5.1777-8.1699a20.35365,20.35365,0,0,1-7.6133,6.8437l-4.7051-2.3515q5.60445-3.1641,7.6992-6.3321Z" fill="#fff"/><path d="M130.1689,377.3515l-1.6348,1.8809a38.21018,38.21018,0,0,1-13.9843-9.1016L114.5849,377H122.79v15.1113h-2.2324v-2.0215H106.3427v2.0215h-2.3008V377h8.2403v-6.8692q-3.61815,5.53425-13.0723,8.6621l-1.6523-1.8633q8.38185-2.2119,11.9843-6.7988h-9.998v-2.1973h12.7383v-3.3906q-4.1982.422-10.543.6153l-1.5098-2.125q14.98545-.0558,23.9297-2.5137l1.6875,1.6875a77.78381,77.78381,0,0,1-11.2617,2.0547v3.6718H127.499v2.1973l-10.0684-.0351A37.44773,37.44773,0,0,0,130.1689,377.3515Zm-9.6113,4.9375v-3.0918h-14.25v3.0918Zm0,5.6406v-3.4785h-14.25v3.4785Z" fill="#fff"/><path d="M151.305,378.9687a34.296,34.296,0,0,1-5.7969,11.2637l2.0547,1.2988a33.50672,33.50672,0,0,0,5.8692-11.2617Zm-3.707-9.7519-1.4766,1.8457a12.99636,12.99636,0,0,1,5.5352,4.2871l1.5449-2.0918A13.22151,13.22151,0,0,0,147.598,369.2168Zm1.7207-7.8711-1.6504,1.6875a10.59326,10.59326,0,0,1,5.3242,4.0761l1.6504-1.7754A10.763,10.763,0,0,0,149.31868,361.3457Z" fill="#fff"/><path d="M172.28348,384.3105v-6.625a20.41755,20.41755,0,0,0,4.5,3.2344l1.4395-1.9512a15.09611,15.09611,0,0,1-7.168-6.2187h6.0078v-2.1622h-5.7441v-4.1992h4.3379v-2.1621h-4.3379v-3.7051h-2.2324v3.7403h-6.5176v-3.7403h-2.2324v3.7403H156.014v2.1601h4.3574v4.1992h-5.7285v2.1641h5.7988q-1.9482,3.6534-7.0449,6.0781l1.6504,1.9493a22.00032,22.00032,0,0,0,2.7754-1.8965v9.4179q0,3.02355,3.0234,3.0215h11.5078a2.80915,2.80915,0,0,0,2.2227-.9297,7.86232,7.86232,0,0,0,1.2734-3.6718l-2.2656-1.0196a6.91145,6.91145,0,0,1-.668,2.8106,1.37559,1.37559,0,0,1-1.1757.6152h-10.7188a.85377.85377,0,0,1-.9668-.9668v-3.8828Zm-9.7148-17.9219h6.5527v4.1992h-6.5527Zm.209,6.3614h5.9746a14.59361,14.59361,0,0,0,2.5996,3.9882h-11.1563A12.37191,12.37191,0,0,0,162.77768,372.75Zm-2.7227,6.1484h9.9981v3.2851H160.055Z" fill="#fff"/><path d="M226.03281,390.3535l-1.6347,1.8281q-10.98045-5.99115-13.9512-20.1875-3.671,14.4258-14.9688,20.1875l-1.7753-2.0918q11.19135-5.44635,14.1796-18.0605h-11.9472v-2.2676h12.2109a89.80791,89.80791,0,0,0,.2813-9.2422l2.4414.3515q.0879,5.376-.211,8.8555h13.3184v2.2676h-11.0859Q214.99676,384.0292,226.03281,390.3535Z" fill="#fff"/><path d="M273.84178,385.7851h-14.1445v2.4434q0,3.917-4.1641,3.9179h-2.3379l-.8594-2.1601h3.2676q1.71975,0,1.7207-1.582v-2.6192h-15.4258v-2.1953h15.4258v-1.5117a21.855,21.855,0,0,0,5.2539-2.5645h-13.4589v-2.0215h17.3593v1.9161a53.72672,53.72672,0,0,1-6.7812,3.8125v.3691h14.1445Zm-1.4766-6.5176h-2.1074v-3.6367h-24.5469v3.8477h-2.3007v-5.9043h3.0215V362.8574a11.64319,11.64319,0,0,0,5.4648-2.3731l1.1582,1.6172a10.32184,10.32184,0,0,1-4.3574,2.2305v1.4765h4.498v1.8282h-4.498v1.914h4.498v1.793h-4.498v2.2305H267.375v-2.2305h-4.2871v-1.7578h4.2871v-2.0547h-4.2519v-1.793h4.2519v-1.914h-4.9726v-2.127h7.205V373.539h2.7578Zm-9.9628-13.6347-1.2305,1.5097a18.69235,18.69235,0,0,0-2.7227-2.0898,20.92556,20.92556,0,0,1-3.1972,2.1973l-1.4414-1.2657a13.8664,13.8664,0,0,0,2.9863-1.6523,31.33275,31.33275,0,0,0-3.461-1.125l.8965-1.6152a32.23742,32.23742,0,0,1,3.918,1.2656,14.99958,14.99958,0,0,0,2.0918-2.4082l1.4766,1.1777a11.19458,11.19458,0,0,1-1.8282,2.127A13.02236,13.02236,0,0,1,262.40238,365.6328Zm.2109,6.3965-1.4746,1.1582a16.3546,16.3546,0,0,0-2.9531-1.8086,18.87118,18.87118,0,0,1-3.3731,1.8086l-1.3359-1.0547a17.28437,17.28437,0,0,0,3.2519-1.8614,17.81533,17.81533,0,0,0-2.9883-1.3711l1.3184-1.1074a21.98091,21.98091,0,0,1,3.0918,1.3535,14.9004,14.9004,0,0,0,1.9863-1.6855l1.6153.8262a8.81093,8.81093,0,0,1-2.002,1.914A13.05734,13.05734,0,0,1,262.61328,372.0293Z" fill="#fff"/><path d="M322.30011,389.8789l-1.5469,2.0566a41.9663,41.9663,0,0,1-14.5117-7.0977q-4.7988,3.9171-15.0762,7.2383l-1.7207-2.0898q9.94335-2.75985,15.0391-6.6953a23.93074,23.93074,0,0,1-6.8692-11.7539,19.405,19.405,0,0,1-2.6015,4.6386l-1.8613-1.705a23.18438,23.18438,0,0,0,3.5664-5.7813h-6.045v-2.1601h14.0938v-6.0098h2.2656v5.9746h14.336v2.1602h-6.0098q-1.579,9.1728-7.2734,14.6015Q313.26781,387.19045,322.30011,389.8789Zm-9.2949-21.2246h-13.5977a22.13773,22.13773,0,0,0,6.8692,13.0898A22.46147,22.46147,0,0,0,313.00521,368.6543Z" fill="#fff"/><path d="M369.84634,385.7851h-14.1465v2.4434q0,3.917-4.1641,3.9179h-2.3359l-.8613-2.1601h3.2675q1.72275,0,1.7227-1.582v-2.6192h-15.4258v-2.1953h15.4258v-1.5117a21.87312,21.87312,0,0,0,5.252-2.5645h-13.4571v-2.0215H362.483v1.9161a53.90026,53.90026,0,0,1-6.7832,3.8125v.3691h14.1465Zm-1.4766-6.5176h-2.1094v-3.6367h-24.5468v3.8477h-2.3008v-5.9043h3.0215V362.8574a11.64136,11.64136,0,0,0,5.4668-2.3731l1.1582,1.6172a10.33038,10.33038,0,0,1-4.3594,2.2305v1.4765h4.5v1.8282h-4.5v1.914h4.5v1.793h-4.5v2.2305h18.6797v-2.2305h-4.2891v-1.7578h4.2891v-2.0547h-4.252v-1.793h4.252v-1.914h-4.9727v-2.127H365.61V373.539h2.7597Zm-9.9629-13.6347-1.2304,1.5097a18.9149,18.9149,0,0,0-2.7227-2.0898,21.04554,21.04554,0,0,1-3.1992,2.1973l-1.4395-1.2657a13.96118,13.96118,0,0,0,2.9864-1.6523,31.60764,31.60764,0,0,0-3.461-1.125l.8965-1.6152a32.46392,32.46392,0,0,1,3.918,1.2656,14.98262,14.98262,0,0,0,2.0898-2.4082l1.4766,1.1777a11.18026,11.18026,0,0,1-1.8262,2.127A13.08314,13.08314,0,0,1,358.40684,365.6328Zm.211,6.3965-1.4766,1.1582a16.34062,16.34062,0,0,0-2.9512-1.8086,18.90185,18.90185,0,0,1-3.375,1.8086l-1.3359-1.0547a17.21791,17.21791,0,0,0,3.2519-1.8614,17.85745,17.85745,0,0,0-2.9863-1.3711l1.3164-1.1074a22.113,22.113,0,0,1,3.0938,1.3535,14.8058,14.8058,0,0,0,1.9844-1.6855l1.6171.8262a8.89132,8.89132,0,0,1-2.0019,1.914A13.15169,13.15169,0,0,1,358.61784,372.0293Z" fill="#fff"/><path d="M392.99407,372.4668q3.5508,3.99015,3.5508,7.7851a4.28658,4.28658,0,0,1-.959,2.9336,3.37607,3.37607,0,0,1-2.6797,1.0898,13.84754,13.84754,0,0,1-2.2832-.2285l-.6504-2.3379a12.6011,12.6011,0,0,0,2.7051.4746,1.78456,1.78456,0,0,0,1.248-.5273,1.82893,1.82893,0,0,0,.5625-1.4043,8.441,8.441,0,0,0-.9648-3.375,13.46946,13.46946,0,0,0-2.9004-3.916l3.4258-8.8047H388.832v27.9902h-2.3027V361.9257h9.8554v2.2305Zm24.2305,13.2324a12.12859,12.12859,0,0,1-1.2305,4.1269,2.708,2.708,0,0,1-2.5117,1.2832h-2.7402q-2.7423,0-2.7422-2.8808v-9.295h-3.7071q-.10545,5.65725-2.205,8.4786-2.1006,2.81835-7.793,4.7343l-1.4766-2.0214q5.2881-1.56165,7.2578-4.0411,1.96875-2.4756,1.9844-7.1152h-4.8144V376.666h18.8203v2.2675h-5.8711v8.75a1.335,1.335,0,0,0,.2812.8165.81462.81462,0,0,0,.668.3789h2.2324q.68565,0,1.0449-1.125a17.9196,17.9196,0,0,0,.6075-2.9161Zm-2.0215-15.9375-2.2305.0351V366.705h-13.248v3.0918H397.457v-5.3242h7.7129v-3.9883h2.3027v3.9532h7.7305Zm-2.9512,3.3906H400.375v-2.3008h11.8769Z" fill="#fff"/><path d="M465.85089,385.7851h-14.1446v2.4434q0,3.917-4.164,3.9179h-2.336l-.8613-2.1601h3.2676q1.7226,0,1.7227-1.582v-2.6192h-15.4278v-2.1953h15.4278v-1.5117a21.872,21.872,0,0,0,5.2519-2.5645h-13.459v-2.0215h17.3594v1.9161a53.72864,53.72864,0,0,1-6.7813,3.8125v.3691h14.1446Zm-1.4766-6.5176h-2.1074v-3.6367H437.722v3.8477h-2.3028v-5.9043h3.0235V362.8574a11.64575,11.64575,0,0,0,5.4629-2.3731l1.1601,1.6172a10.34486,10.34486,0,0,1-4.3574,2.2305v1.4765h4.498v1.8282h-4.498v1.914h4.498v1.793h-4.498v2.2305h18.6758v-2.2305H455.097v-1.7578h4.2871v-2.0547h-4.25v-1.793h4.25v-1.914h-4.9707v-2.127h7.2031V373.539h2.7578Zm-9.9609-13.6347-1.2324,1.5097a18.80854,18.80854,0,0,0-2.7227-2.0898,21.02568,21.02568,0,0,1-3.1973,2.1973l-1.4414-1.2657a13.931,13.931,0,0,0,2.9883-1.6523,31.61412,31.61412,0,0,0-3.4609-1.125l.8945-1.6152a32.243,32.243,0,0,1,3.918,1.2656,14.99958,14.99958,0,0,0,2.0918-2.4082l1.4765,1.1777a11.19026,11.19026,0,0,1-1.8281,2.127A13.03282,13.03282,0,0,1,454.41339,365.6328Zm.209,6.3965-1.4746,1.1582a16.41,16.41,0,0,0-2.9512-1.8086,18.97587,18.97587,0,0,1-3.375,1.8086l-1.334-1.0547a17.322,17.322,0,0,0,3.25-1.8614,17.81917,17.81917,0,0,0-2.9883-1.3711l1.3184-1.1074a21.98091,21.98091,0,0,1,3.0918,1.3535,14.9004,14.9004,0,0,0,1.9863-1.6855l1.6152.8262a8.81053,8.81053,0,0,1-2.0019,1.914A13.01533,13.01533,0,0,1,454.62239,372.0293Z" fill="#fff"/><path d="M513.96742,390.3886h-31.9786V388.123h14.9004v-8.2402h-10.7363v-2.2676h10.7363v-7.168h-7.9609a18.662,18.662,0,0,1-4.8145,6.9043l-2.3183-1.2129a19.41117,19.41117,0,0,0,6.414-13.0351l2.3711.6836a26.41167,26.41167,0,0,1-.8261,4.4297h7.0996v-7.6973h2.3711v7.6601h12.4043v2.2676h-12.4043V377.58h10.5781v2.2676h-10.5781v8.2402h14.7422Z" fill="#fff"/><path d="M562.3291,368.6191l-1.2637,1.8281a37.48054,37.48054,0,0,1-9.3828-3.4082v1.5801H539.8037v-1.7383a35.6475,35.6475,0,0,1-9.2051,3.461l-1.1602-1.8458a38.93879,38.93879,0,0,0,16.4453-8.0468l2.1622.7207a3.05173,3.05173,0,0,1-.6153.6152A34.39611,34.39611,0,0,0,562.3291,368.6191Zm-3.7403,10.0684H533.0771v-8.2403h25.5117Zm-2.0918,13.4941h-2.1621v-1.4063H537.3623v1.4063h-2.1602V380.5332H556.497ZM544.7763,376.789v-4.3926h-9.539v4.3926Zm9.5586,7.9434v-2.2676H537.3623v2.2676Zm0,4.1465v-2.3028H537.3623v2.3028Zm-11.8945-13.8282-1.8106,1.2657a12.59867,12.59867,0,0,0-3.1972-2.4434l1.8281-1.0527A9.00252,9.00252,0,0,1,542.4404,375.0507Zm8.5215-8.3808a22.16454,22.16454,0,0,1-4.9375-3.6035,27.00818,27.00818,0,0,1-5.709,3.6035Zm5.4648,10.1191v-4.3926h-9.4883v4.3926Zm-2.125-3.3555a8.38725,8.38725,0,0,1-3.1289,2.8125l-1.9316-.9667a9.12268,9.12268,0,0,0,3.1621-2.6016Z" fill="#fff"/></g></svg>