<svg xmlns="http://www.w3.org/2000/svg" xmlns:xlink="http://www.w3.org/1999/xlink" viewBox="0 0 633.1895 708.42921"><defs><clipPath id="a"><rect y="-0.0019" width="633.1895" height="708.43111" fill="none"/></clipPath></defs><g clip-path="url(#a)"><path d="M79.2227,135.7852a105.37012,105.37012,0,0,0-8.086,33.7129,10.38216,10.38216,0,0,1,13.6778.4785A92.62907,92.62907,0,0,1,177.166,84.541a6.83785,6.83785,0,0,0,0-13.6757,106.404,106.404,0,0,0-97.9433,64.9199Z" fill="#fff"/><path d="M169.5957,269.48442A92.6309,92.6309,0,0,1,84.543,177.586a6.8379,6.8379,0,0,0-13.6758,0,106.21515,106.21515,0,0,0,98.1856,105.58,10.37392,10.37392,0,0,1,.5429-13.6816Z" fill="#fff"/><path d="M251.2656,243.70513a6.83952,6.83952,0,0,0-9.6699,0,92.31661,92.31661,0,0,1-64.4297,26.08979,6.8379,6.8379,0,1,0,0,13.6758,105.9491,105.9491,0,0,0,74.0996-30.0937A6.8371,6.8371,0,0,0,251.2656,243.70513Z" fill="#fff"/><path d="M177.166,283.47072a6.8379,6.8379,0,1,1,0-13.6758,92.31661,92.31661,0,0,0,64.4297-26.08979,6.83836,6.83836,0,1,1,9.6699,9.67189,105.9491,105.9491,0,0,1-74.0996,30.0937Zm-41.3847-8.3593A106.21629,106.21629,0,0,1,70.8672,177.586a6.8379,6.8379,0,0,1,13.6758,0,92.6309,92.6309,0,0,0,85.0527,91.89842,10.37392,10.37392,0,0,0-.5429,13.6816A105.36549,105.36549,0,0,1,135.7813,275.11142ZM177.166,70.8653a6.83785,6.83785,0,0,1,0,13.6757,92.62907,92.62907,0,0,0-92.3515,85.4356,10.38216,10.38216,0,0,0-13.6778-.4785A106.21918,106.21918,0,0,1,177.166,70.8653Z" fill="#fff"/><path d="M233.459,120.8731a79.61485,79.61485,0,1,0,23.3164,56.2949A79.0911,79.0911,0,0,0,233.459,120.8731Z" fill="#fff"/><path d="M121.0606,202.9121V151.4239h11.166v3.8046h-6.4727v43.877h6.4727v3.8066Z" fill="#333e48"/><path d="M233.2715,151.4239v51.4882H222.1074v-3.8066h6.4688v-43.877h-6.4688v-3.8046Z" fill="#333e48"/><path d="M146.9961,187.627q0,1.54395.0469,3.6367.0468,2.09175.1289,4.248.082,2.15625.1934,4.1192t.2734,3.2812H141.041V166.5469q0-4.69635-.1601-8.5117-.1611-3.8145-.4844-6.6113h6.5996Z" fill="#333e48"/><path d="M175.7988,170.0879v4.2168h-6.0507v24.3926h6.0507v4.2168H157.7774v-4.2168h5.9531V174.3047h-5.9531v-4.2168Z" fill="#333e48"/><path d="M189.3164,170.0879a11.605,11.605,0,0,1,.3848,1.336c.1308.5468.2461,1.121.3555,1.7207q.1581.90225.289,1.7714l.2559,1.4454a21.25761,21.25761,0,0,1,6.2109-5.293,13.9272,13.9272,0,0,1,6.502-1.625,11.40945,11.40945,0,0,1,4.5527.8535A8.02411,8.02411,0,0,1,211.1992,173a13.23825,13.23825,0,0,1,2.043,4.7949,31.36976,31.36976,0,0,1,.6914,7.0977v14.4805a36.02427,36.02427,0,0,1-.9492,9.0273,15.44725,15.44725,0,0,1-2.6543,5.7305,9.33982,9.33982,0,0,1-4.1035,3.0234,15.28045,15.28045,0,0,1-5.3262.8848,11.5201,11.5201,0,0,1-3.1055-.4668,11.66977,11.66977,0,0,1-3.0078-1.3027l2.0918-4.8282a6.41974,6.41974,0,0,0,1.9785.918,8.80082,8.80082,0,0,0,2.5254.3691,7.29246,7.29246,0,0,0,2.7696-.498,4.6075,4.6075,0,0,0,2.0742-1.7539,9.59294,9.59294,0,0,0,1.3047-3.4434,28.51959,28.51959,0,0,0,.4492-5.5683V187.3047a39.29621,39.29621,0,0,0-.4024-6.2578,10.81222,10.81222,0,0,0-1.207-3.7344,4.00808,4.00808,0,0,0-2.0117-1.7871,8.07009,8.07009,0,0,0-2.8164-.4492,7.54162,7.54162,0,0,0-3.3926.8223,12.44027,12.44027,0,0,0-3.043,2.123,15.80524,15.80524,0,0,0-2.4453,2.9434,13.55972,13.55972,0,0,0-1.5781,3.2832v18.666h-5.9531v-19.793a50.24858,50.24858,0,0,0-.5469-8.0605,40.57184,40.57184,0,0,0-1.0625-4.9727Z" fill="#333e48"/><path d="M107.457,426.16362v-67.7554h8.1543v60.5723h28.8301v7.1831Z" fill="#fff"/><path d="M159.1953,364.32962a4.74137,4.74137,0,0,1-3.6406-1.2134,4.47336,4.47336,0,0,1-1.1152-3.1547v-1.2623a4.479,4.479,0,0,1,1.1152-3.1547,6.06835,6.06835,0,0,1,7.2813,0,4.48417,4.48417,0,0,1,1.1162,3.1547v1.2623a4.47846,4.47846,0,0,1-1.1162,3.1547A4.74457,4.74457,0,0,1,159.1953,364.32962Zm-3.8828,11.7456h7.7656v50.0884h-7.7656Z" fill="#fff"/><path d="M179.5801,426.16362v-50.0884h7.7656v8.0615h.3887a16.32708,16.32708,0,0,1,5.1934-6.7265q3.3486-2.49825,8.9785-2.4995,7.76655,0,12.2802,4.9985,4.5132,5.001,4.5137,14.1245v32.1299h-7.7656v-30.8379q0-13.5234-11.3574-13.5234a17.45625,17.45625,0,0,0-4.5147.584,13.13119,13.13119,0,0,0-3.9306,1.7519,8.64914,8.64914,0,0,0-2.7666,2.9668,8.43956,8.43956,0,0,0-1.0196,4.2315v34.8271Z" fill="#fff"/><path d="M274.5156,424.51372q0,10.3857-5.8242,16.3076-5.8242,5.9202-16.4053,5.9219a26.5416,26.5416,0,0,1-10.5322-1.9009,21.50017,21.50017,0,0,1-7.3281-5.022l4.5615-5.3628a17.63338,17.63338,0,0,0,5.8242,3.9966,19.54949,19.54949,0,0,0,7.669,1.3965q6.79395,0,10.5312-3.7519,3.7368-3.7566,3.7383-11.06792v-6.92818h-.3887a16.48356,16.48356,0,0,1-5.8242,6.9189,16.01229,16.01229,0,0,1-8.834,2.3071,19.04574,19.04574,0,0,1-8.4453-1.8442,17.89581,17.89581,0,0,1-6.4062-5.2417,25.22645,25.22645,0,0,1-4.0762-8.251,41.29181,41.29181,0,0,1,0-21.7441,25.24628,25.24628,0,0,1,4.0762-8.251,17.92853,17.92853,0,0,1,6.4062-5.2422,19.04551,19.04551,0,0,1,8.4453-1.8437,17.05248,17.05248,0,0,1,8.9795,2.2578,14.09157,14.09157,0,0,1,5.6787,6.9682h.3887v-8.0615h7.7656Zm-20.4824-4.0772a17.52535,17.52535,0,0,0,4.9512-.6826,12.011,12.011,0,0,0,4.0273-2.0005,10.00151,10.00151,0,0,0,2.7188-3.2182,9.261,9.261,0,0,0,1.0195-4.4395V391.461a8.02716,8.02716,0,0,0-.9707-3.854,9.1199,9.1199,0,0,0-2.7187-3.0728,14.06907,14.06907,0,0,0-4.0762-1.9995,16.416,16.416,0,0,0-4.9512-.7324q-6.60195,0-10.4834,4.1953a15.31151,15.31151,0,0,0-3.8828,10.8296v8.5844a15.31343,15.31343,0,0,0,3.8828,10.8301Q247.43015,420.43632,254.0332,420.43652Z" fill="#fff"/><path d="M321.8848,418.10262h-.3887a23.72419,23.72419,0,0,1-1.8926,3.4126,12.74235,12.74235,0,0,1-2.7656,2.9785,12.96382,12.96382,0,0,1-3.9805,2.0664,17.37718,17.37718,0,0,1-5.4355.7685q-7.768,0-12.3281-4.999-4.5645-4.99875-4.5625-14.124v-32.1304h7.7656v30.8384q0,13.52265,11.4541,13.5229a17.36192,17.36192,0,0,0,4.5137-.5839,12.47459,12.47459,0,0,0,3.8828-1.75,8.84506,8.84506,0,0,0,2.7178-2.9673,8.65125,8.65125,0,0,0,1.0195-4.3301v-34.73h7.7656v50.0884h-7.7656Z" fill="#fff"/><path d="M350.0352,364.32962a4.74028,4.74028,0,0,1-3.6407-1.2134,4.474,4.474,0,0,1-1.1162-3.1547v-1.2623a4.47965,4.47965,0,0,1,1.1162-3.1547,6.06685,6.06685,0,0,1,7.2803,0,4.48371,4.48371,0,0,1,1.1162,3.1547v1.2623a4.478,4.478,0,0,1-1.1162,3.1547A4.74334,4.74334,0,0,1,350.0352,364.32962Zm-3.8828,11.7456h7.7656v50.0884h-7.7656Z" fill="#fff"/><path d="M385.4658,427.32862a23.43,23.43,0,0,1-11.6972-2.6694,26.57952,26.57952,0,0,1-8.1055-7.1348l5.5332-4.4653a21.73987,21.73987,0,0,0,6.5039,5.67868,16.937,16.937,0,0,0,8.3486,1.99032q4.9497,0,7.7168-2.1358a7.75886,7.75886,0,0,0,.8731-11.0176q-1.89255-2.08665-6.8438-2.8632l-3.9795-.5831a33.18407,33.18407,0,0,1-6.4072-1.5044,17.79969,17.79969,0,0,1-5.0957-2.7177,11.67559,11.67559,0,0,1-3.3974-4.2232,13.75722,13.75722,0,0,1-1.2139-6.0175,14.47288,14.47288,0,0,1,1.3594-6.4556,12.99252,12.99252,0,0,1,3.7373-4.6109,16.3413,16.3413,0,0,1,5.6787-2.7666,26.25393,26.25393,0,0,1,7.0859-.9218,22.12988,22.12988,0,0,1,10.2412,2.1352,22.97188,22.97188,0,0,1,7.2315,5.9214l-5.1446,4.6592a15.45938,15.45938,0,0,0-4.8535-4.22272,15.62907,15.62907,0,0,0-8.0566-1.89248q-4.85445,0-7.3291,2.0869a7.04237,7.04237,0,0,0-2.4756,5.6787q0,3.68982,2.4756,5.3388a18.465,18.465,0,0,0,7.1347,2.4268l3.8829.582q8.3481,1.2627,11.8427,4.8052a12.63374,12.63374,0,0,1,3.4942,9.2705q0,7.28025-4.9502,11.45458Q394.106,427.32963,385.4658,427.32862Z" fill="#fff"/><path d="M428.0811,426.16362q-4.0767,0-6.1641-2.2749a8.46738,8.46738,0,0,1-2.0869-5.9575v-34.9639h-8.251v-6.8921h4.6592q2.5224,0,3.4463-1.0195a5.29244,5.29244,0,0,0,.9219-3.543v-9.3188h6.9892v13.8813h10.9688v6.8921H427.5957V419.272h10.1924v6.8916Z" fill="#fff"/><path d="M454.9697,364.32962a4.73609,4.73609,0,0,1-3.6396-1.2134,4.47006,4.47006,0,0,1-1.1172-3.1547v-1.2623a4.47574,4.47574,0,0,1,1.1172-3.1547,6.06535,6.06535,0,0,1,7.2793,0,4.48025,4.48025,0,0,1,1.1172,3.1547v1.2623a4.47456,4.47456,0,0,1-1.1172,3.1547A4.74048,4.74048,0,0,1,454.9697,364.32962Zm-3.8828,11.7456h7.7657v50.0884h-7.7657Z" fill="#fff"/><path d="M493.9922,427.32862a23.07877,23.07877,0,0,1-9.416-1.8442,19.20245,19.20245,0,0,1-7.0371-5.2417,23.33267,23.33267,0,0,1-4.3692-8.251,40.05026,40.05026,0,0,1,0-21.7441,23.34994,23.34994,0,0,1,4.3692-8.251,19.23692,19.23692,0,0,1,7.0371-5.2422,23.0787,23.0787,0,0,1,9.416-1.8437q7.4736,0,11.9883,3.2514a19.834,19.834,0,0,1,6.7461,8.49368l-6.5039,3.30082a11.79447,11.79447,0,0,0-4.4649-6.0186,13.40207,13.40207,0,0,0-7.7656-2.1357,15.52472,15.52472,0,0,0-6.1152,1.1162,11.96167,11.96167,0,0,0-4.3692,3.1064,13.08107,13.08107,0,0,0-2.6201,4.7564,20.05174,20.05174,0,0,0-.874,6.0669v8.542a16.25541,16.25541,0,0,0,3.543,10.8237q3.542,4.2231,10.4355,4.2226,9.4146,0,13.5898-8.7363l5.6309,3.7857a19.90145,19.90145,0,0,1-7.2324,8.6396A21.15426,21.15426,0,0,1,493.9922,427.32862Z" fill="#fff"/><path d="M539.2266,427.32862a23.43012,23.43012,0,0,1-11.6973-2.6694,26.58069,26.58069,0,0,1-8.1055-7.1348l5.5332-4.4653a21.75225,21.75225,0,0,0,6.504,5.67868,16.92987,16.92987,0,0,0,8.3476,1.99032q4.9512,0,7.7168-2.1358a7.757,7.757,0,0,0,.875-11.0176q-1.894-2.08665-6.8437-2.8632l-3.9805-.5831a33.157,33.157,0,0,1-6.4063-1.5044,17.80367,17.80367,0,0,1-5.0966-2.7177,11.67585,11.67585,0,0,1-3.3975-4.2232,13.74462,13.74462,0,0,1-1.2129-6.0175,14.46061,14.46061,0,0,1,1.3584-6.4556,12.99359,12.99359,0,0,1,3.7373-4.6109,16.35084,16.35084,0,0,1,5.6787-2.7666,26.25607,26.25607,0,0,1,7.0869-.9218,22.132,22.132,0,0,1,10.2403,2.1352,22.98618,22.98618,0,0,1,7.2324,5.9214l-5.1455,4.6592a15.4504,15.4504,0,0,0-4.8535-4.22272,15.632,15.632,0,0,0-8.0567-1.89248q-4.856,0-7.3291,2.0869a7.03861,7.03861,0,0,0-2.4746,5.6787q0,3.68982,2.4746,5.3388a18.471,18.471,0,0,0,7.1348,2.4268l3.8828.582q8.34675,1.2627,11.8428,4.8052a12.63835,12.63835,0,0,1,3.4951,9.2705q0,7.28025-4.9512,11.45458Q547.8652,427.32963,539.2266,427.32862Z" fill="#fff"/><path d="M126.4834,543.814a29.19249,29.19249,0,0,1-14.0752-3.1548,29.85477,29.85477,0,0,1-9.9013-8.688l6.0185-5.0478a26.356,26.356,0,0,0,7.959,7.23238,20.53011,20.53011,0,0,0,10.291,2.47512q7.28025,0,11.1133-3.4946a11.99624,11.99624,0,0,0,3.8349-9.3189q0-4.85235-2.9121-7.4741-2.9121-2.62215-9.6103-4.1748l-5.5332-1.26172q-9.31935-2.13432-14.2207-6.45508-4.9029-4.31838-4.9024-12.1826a18.409,18.409,0,0,1,1.6504-7.9595,15.96737,15.96737,0,0,1,4.6114-5.8242,20.81476,20.81476,0,0,1,7.0859-3.5435,32.08571,32.08571,0,0,1,9.0762-1.2134,28.50345,28.50345,0,0,1,13.1533,2.8155,25.34523,25.34523,0,0,1,9.2705,8.2509l-6.1152,4.4654a21.13385,21.13385,0,0,0-6.795-6.1157,20.02183,20.02183,0,0,0-9.9023-2.2325q-6.50385,0-10.2402,2.7661-3.7383,2.7672-3.7383,8.2999,0,4.8552,3.1562,7.3286,3.1524,2.4756,9.5606,3.93208l5.5332,1.26172q9.996,2.23392,14.4629,6.7949,4.46475,4.563,4.4658,12.1338a21.47911,21.47911,0,0,1-1.6016,8.4453,17.33616,17.33616,0,0,1-4.6103,6.40628,21.46136,21.46136,0,0,1-7.3291,4.07712A30.45331,30.45331,0,0,1,126.4834,543.814Z" fill="#fff"/><path d="M182.0078,543.814a22.58361,22.58361,0,0,1-9.2226-1.84422,19.8602,19.8602,0,0,1-7.1348-5.29058,24.884,24.884,0,0,1-4.6103-8.251,36.17617,36.17617,0,0,1,0-21.5986,24.83839,24.83839,0,0,1,4.6103-8.2993,19.89884,19.89884,0,0,1,7.1348-5.29052,22.5841,22.5841,0,0,1,9.2226-1.84378,22.25289,22.25289,0,0,1,9.1729,1.84378,20.48912,20.48912,0,0,1,7.1347,5.29052,24.42805,24.42805,0,0,1,4.6592,8.2993,36.15734,36.15734,0,0,1,0,21.5986,24.47113,24.47113,0,0,1-4.6592,8.251,20.448,20.448,0,0,1-7.1347,5.29058A22.25239,22.25239,0,0,1,182.0078,543.814Zm0-6.8921a14.11348,14.11348,0,0,0,10.2891-3.8828q3.97845-3.8811,3.9805-11.84232v-7.18358q0-7.95855-3.9805-11.8428a15.57523,15.57523,0,0,0-20.5791,0q-3.98145,3.88335-3.9795,11.8428v7.18358q0,7.95993,3.9795,11.84232A14.111,14.111,0,0,0,182.0078,536.92192Z" fill="#fff"/><path d="M236.0762,543.814a23.07811,23.07811,0,0,1-9.416-1.84422,19.195,19.195,0,0,1-7.0371-5.24168,23.3344,23.3344,0,0,1-4.3692-8.251,40.05063,40.05063,0,0,1,0-21.7442,23.35032,23.35032,0,0,1,4.3692-8.2509,19.22669,19.22669,0,0,1,7.0371-5.24222,23.07871,23.07871,0,0,1,9.416-1.84378q7.4736,0,11.9883,3.2515a19.84847,19.84847,0,0,1,6.7461,8.4936l-6.5039,3.3008a11.7943,11.7943,0,0,0-4.4649-6.0185,13.40354,13.40354,0,0,0-7.7656-2.1358,15.52341,15.52341,0,0,0-6.1152,1.11618,11.96334,11.96334,0,0,0-4.3692,3.10652,13.09721,13.09721,0,0,0-2.6211,4.7563,20.08391,20.08391,0,0,0-.873,6.0669v8.5425a16.25752,16.25752,0,0,0,3.5429,10.8237q3.5421,4.2225,10.4356,4.2222,9.4131,0,13.5898-8.7363l5.6299,3.7856a19.8933,19.8933,0,0,1-7.2314,8.6397A21.15736,21.15736,0,0,1,236.0762,543.814Z" fill="#fff"/><path d="M270.1465,480.815a4.7378,4.7378,0,0,1-3.6396-1.2134,4.46934,4.46934,0,0,1-1.1163-3.15482v-1.26168a4.47554,4.47554,0,0,1,1.1163-3.15532,6.06678,6.06678,0,0,1,7.2802,0,4.48451,4.48451,0,0,1,1.1162,3.15532v1.26168a4.47828,4.47828,0,0,1-1.1162,3.15482A4.74323,4.74323,0,0,1,270.1465,480.815Zm-3.8828,11.7456h7.7656V542.649h-7.7656Z" fill="#fff"/><path d="M309.3633,543.814a22.48685,22.48685,0,0,1-9.2695-1.84422,19.95008,19.95008,0,0,1-7.086-5.29058,24.224,24.224,0,0,1-4.5625-8.251,37.21172,37.21172,0,0,1,0-21.5986,24.18791,24.18791,0,0,1,4.5625-8.2993,19.98936,19.98936,0,0,1,7.086-5.29052,22.48741,22.48741,0,0,1,9.2695-1.84378,21.292,21.292,0,0,1,9.0273,1.8379,19.99613,19.99613,0,0,1,6.795,5.0796,22.62989,22.62989,0,0,1,4.3203,7.6899,30.37136,30.37136,0,0,1,1.5049,9.7691v3.6767H294.9971v2.32958a17.1335,17.1335,0,0,0,1.0195,5.97022,14.14677,14.14677,0,0,0,2.9121,4.8047,13.31481,13.31481,0,0,0,4.6592,3.2037,16.00351,16.00351,0,0,0,6.2617,1.1645,15.2341,15.2341,0,0,0,8.2989-2.2324,14.64739,14.64739,0,0,0,5.4843-6.4068l5.5332,4.0054a19.3305,19.3305,0,0,1-7.5713,8.3516A22.83928,22.83928,0,0,1,309.3633,543.814Zm0-45.9146a14.79288,14.79288,0,0,0-5.8242,1.11038,13.08884,13.08884,0,0,0-4.5137,3.13522,14.71391,14.71391,0,0,0-2.9609,4.7745,16.502,16.502,0,0,0-1.0674,6.0302v.6748h27.665V512.563q0-6.65625-3.6396-10.65922A12.42576,12.42576,0,0,0,309.3633,497.89942Z" fill="#fff"/><path d="M354.8897,542.649q-4.0767,0-6.1641-2.275a8.46738,8.46738,0,0,1-2.0869-5.9575v-34.9638h-8.251v-6.8921h4.6592q2.5224,0,3.4463-1.0196a5.29153,5.29153,0,0,0,.9219-3.5424v-9.3194h6.9892v13.8814h10.9688v6.8921H354.4043v36.3047h10.1924v6.8916Z" fill="#fff"/><path d="M408.7637,492.56062h7.6689l-22.4228,61.7373a27.64172,27.64172,0,0,1-1.7481,3.7368,7.27888,7.27888,0,0,1-2.1347,2.3784,8.4978,8.4978,0,0,1-3.1553,1.2622,23.44763,23.44763,0,0,1-4.6104.3882h-3.9804v-6.8921h7.8633l3.7851-10.6611-18.7344-51.9497h7.7657l12.0371,34.0063,2.3291,8.1392h.4853l2.7178-8.1392Z" fill="#fff"/><path d="M120.8633,637.562l-2.416-7.6787H107.7481l-2.3731,7.6787H99.5938l10.0957-30.1123h7.0742l10.0098,30.1123Zm-7.6797-24.9345h-.2148l-3.8399,12.3808h7.9375Z" fill="#fff"/><path d="M151.1895,637.562l-2.416-7.6787H138.0742l-2.3711,7.6787h-5.7812l10.0937-30.1123h7.0762l10.0078,30.1123Zm-7.6797-24.9345h-.2149l-3.8398,12.3808h7.9375Z" fill="#fff"/><path d="M180.6543,624.83652H168.1016V637.562h-5.6953v-30.1123h5.6953v12.3379h12.5527v-12.3379h5.6953V637.562h-5.6953Z" fill="#fff"/><path d="M203.9942,623.93022l-4.0118,4.7461v8.8857h-5.6953v-30.1123h5.6953v14.8409h.2149l4.2715-5.6504,7.4629-9.1905h6.5566l-10.4824,12.5537,11.3457,17.5586h-6.7735Z" fill="#fff"/><path d="M229.791,607.44972v18.5078a8.63658,8.63658,0,0,0,1.3594,5.3067q1.35945,1.76955,4.5938,1.7685,3.2373,0,4.5957-1.7685a8.63661,8.63661,0,0,0,1.3593-5.3067v-18.5078h5.6075v17.7754a23.134,23.134,0,0,1-.625,5.7364,9.78925,9.78925,0,0,1-2.0059,4.0136,8.10368,8.10368,0,0,1-3.6035,2.3506,16.82981,16.82981,0,0,1-5.3711.7539,16.58829,16.58829,0,0,1-5.3711-.7539,8.10986,8.10986,0,0,1-3.5586-2.3506,9.57612,9.57612,0,0,1-1.9844-4.0136,23.89079,23.89079,0,0,1-.6035-5.7364v-17.7754Z" fill="#fff"/></g></svg>