<?xml version="1.0" encoding="UTF-8"?><svg id="uuid-a3165e7b-a49d-4850-902b-f5d15c5dae45" xmlns="http://www.w3.org/2000/svg" width="223.375851645231137mm" height="202.961589729600178mm" xmlns:xlink="http://www.w3.org/1999/xlink" viewBox="0 0 633.191399999999703 575.324199999999109"><defs><style>.uuid-e74d2db5-a8c7-418d-a3ab-041f0393c930{fill:#fff;}.uuid-7fb7402a-828d-4ea5-990c-7451baef0d26{clip-path:url(#uuid-57884c16-8ba9-462a-b1f9-d900e7d9ea95);}.uuid-d2d7fd62-38f5-45db-8093-4ecca6247342{fill:none;}.uuid-78c8c799-3abf-439b-833a-b9e4d902b0bf{fill:#333e48;}.uuid-55e42f7c-59fc-498b-bd3c-90c619b90bf8{fill:#9f9ea7;}.uuid-47d494fc-9dc9-4536-a32a-06c8cb416d08{fill:#5a5c66;}.uuid-63a32699-9f7e-40c3-8840-574b8602024f{fill:#858591;}</style><clipPath id="uuid-57884c16-8ba9-462a-b1f9-d900e7d9ea95"><rect class="uuid-d2d7fd62-38f5-45db-8093-4ecca6247342" width="633.191399999999703" height="575.324199999999109"/></clipPath></defs><g class="uuid-7fb7402a-828d-4ea5-990c-7451baef0d26"><path class="uuid-47d494fc-9dc9-4536-a32a-06c8cb416d08" d="M77.70889999999963,170.747999999999593c3.777400000000853,0,6.838900000000649,3.061499999999796,6.838900000000649,6.837900000000445-.001000000000204-.13970000000063-.005800000000818-.279300000000148-.005800000000818-.419000000000779,0-51.15520000000015,41.467700000001059-92.625900000000001,92.625900000000911-92.625900000000001,3.775400000000445,0,6.836900000000242-3.060599999999795,6.836900000000242-6.836900000000242,0-3.77639999999974-3.061499999999796-6.837899999999536-6.836900000000242-6.837899999999536-14.344699999999648,0-28.267499999999927,2.8125-41.382800000001225,8.359300000000076-12.659199999998236,5.354500000000371-24.025399999998626,13.016599999999926-33.783199999999852,22.774500000000444-9.759699999998702,9.758699999999408-17.421899999999368,21.125899999999092-22.775399999998626,33.785099999999147-5.546800000000076,13.115200000000186-8.359300000000076,27.037100000000464-8.359300000000076,41.381800000000112,0,.13970000000063.003899999999703.279300000000148.004799999998795.419000000000779,0-3.776400000000649,3.060600000000704-6.837900000000445,6.836900000000242-6.837900000000445Z"/><path class="uuid-63a32699-9f7e-40c3-8840-574b8602024f" d="M170.329999999999927,276.629799999999705c0-3.776300000000447,3.060600000000704-6.837900000000445,6.837900000000445-6.837900000000445-51.017499999999927,0-92.394500000000335-41.243099999999686-92.620100000000093-92.205999999999221,0-3.776400000000649-3.061499999999796-6.837900000000445-6.838900000000649-6.837900000000445-3.776299999999537,0-6.836900000000242,3.061499999999796-6.836900000000242,6.837900000000445.05370000000039,14.19629999999961,2.861399999999776,27.975599999999758,8.354500000001281,40.962899999999536,5.353499999999258,12.658199999999852,13.015699999999924,24.026300000000447,22.775399999998626,33.784200000000055,9.757800000001225,9.758699999999408,21.124000000001615,17.420900000000074,33.783199999999852,22.775399999999536,13.115300000001298,5.547800000000279,27.038100000001577,8.360300000000279,41.382800000001225,8.360300000000279-3.777299999999741,0-6.837900000000445-3.0625-6.837900000000445-6.83889999999974Z"/><path class="uuid-55e42f7c-59fc-498b-bd3c-90c619b90bf8" d="M251.267499999999927,243.704999999999927c-2.671800000000076-2.670900000000984-7-2.670900000000984-9.670899999999165,0-16.670900000000984,16.144599999999627-39.387700000001132,26.086899999999332-64.42870000000039,26.086899999999332-3.777299999999741,0-6.837900000000445,3.061599999999999-6.837900000000445,6.837900000000445,0,3.77639999999974,3.060600000000704,6.83889999999974,6.837900000000445,6.83889999999974,14.343800000000556,0,28.266599999999016-2.8125,41.380900000000111-8.360300000000279,12.203099999998813-5.161199999999553,23.199199999999109-12.473699999999553,32.718699999999444-21.733399999999165,2.670000000000073-2.670000000000073,2.670000000000073-7,0-9.670000000000073Z"/><path class="uuid-55e42f7c-59fc-498b-bd3c-90c619b90bf8" d="M233.45889999999963,120.875c-15.035099999999147-15.036200000000463-35.027299999999741-23.315500000000611-56.292900000000373-23.315500000000611-21.262699999999313,0-41.255900000000111,8.279300000000148-56.290999999999258,23.315500000000611-15.035200000000259,15.036099999999351-23.317399999999907,35.028299999999945-23.317399999999907,56.291899999999259,0,21.26470000000063,8.282199999999648,41.254899999999907,23.317399999999907,56.292000000000371,15.035099999999147,15.035200000000259,35.028299999999945,23.317399999999907,56.290999999999258,23.317399999999907,21.265600000000632,0,41.257800000001225-8.282199999999648,56.292900000000373-23.317399999999907,15.035200000000259-15.037100000000464,23.315500000000611-35.027299999999741,23.315500000000611-56.292000000000371,0-21.263599999999315-8.280300000000352-41.255799999999908-23.315500000000611-56.291899999999259Z"/><path class="uuid-78c8c799-3abf-439b-833a-b9e4d902b0bf" d="M121.0625,202.912099999999555v-51.489300000000185h11.165999999999258v3.806599999999889h-6.47269999999844v43.876000000000204h6.47269999999844v3.806700000000092h-11.165999999999258Z"/><path class="uuid-78c8c799-3abf-439b-833a-b9e4d902b0bf" d="M233.27139999999963,151.42279999999937v51.489300000000185h-11.16399999999885v-3.806700000000092h6.468699999999444v-43.876000000000204h-6.468699999999444v-3.806599999999889h11.16399999999885Z"/><path class="uuid-e74d2db5-a8c7-418d-a3ab-041f0393c930" d="M146.996100000000297,187.626899999999296c0,1.027299999999741.016599999999016,2.242200000000594.048800000000483,3.634799999999814.031199999999444,1.394500000000335.075199999999313,2.8125.128899999999703,4.249000000000706.052700000000186,1.4375.117199999998775,2.811499999999796.193400000000111,4.120099999999184.074199999999109,1.308600000000297.165999999999258,2.402400000000853.273400000000038,3.281300000000556h-6.597700000000259v-36.365300000000389c0-3.130799999999908-.052700000000186-5.968699999999444-.160100000000966-8.511700000000019-.107399999998961-2.542999999999665-.26759999999922-4.747099999999591-.483399999999165-6.612299999999777h6.596700000000055v36.204099999999926Z"/><path class="uuid-e74d2db5-a8c7-418d-a3ab-041f0393c930" d="M175.799800000000687,170.087799999999334v4.216800000000148h-6.049800000000687v24.39260000000013h6.049800000000687v4.215799999999945h-18.020500000000538v-4.215799999999945h5.953100000000632v-24.39260000000013h-5.953100000000632v-4.216800000000148h18.020500000000538Z"/><path class="uuid-e74d2db5-a8c7-418d-a3ab-041f0393c930" d="M189.316399999999703,170.087799999999334c.128899999999703.343800000000556.257800000001225.787200000000666.385700000000725,1.33600000000024.129899999999907.546900000000278.246100000000297,1.120100000000093.354499999999462,1.720699999999852.105499999999665.600599999999758.203100000000632,1.191400000000613.290000000000873,1.770499999999629l.255900000000111,1.44630000000052c2.060499999999593-2.445300000000316,4.129899999999907-4.208999999999833,6.210900000000038-5.293000000000575,2.081099999999424-1.081999999999425,4.25-1.625,6.501000000000204-1.625,1.717799999998533,0,3.235399999999572.284200000000055,4.554699999998775.853500000000167,1.319300000001022.569400000000314,2.429700000000594,1.470700000000761,3.331099999999424,2.703200000000834.900300000001153,1.234299999999166,1.581000000000131,2.831999999999425,2.043900000000576,4.794899999998961.460900000000038,1.963800000000447.691399999999703,4.327100000000428.691399999999703,7.097600000000966v14.478499999999258c0,3.627000000000407-.317399999999907,6.636800000000221-.950199999999313,9.027400000000853-.631800000001022,2.394499999999425-1.518500000000131,4.302699999999277-2.654300000000148,5.730499999999665-1.136699999999109,1.424799999999777-2.505800000000818,2.433600000000297-4.103499999999258,3.023400000000038-1.59860000000117.590799999999945-3.374000000001615.884799999999814-5.327100000000428.884799999999814-.964900000000853,0-2-.154300000000148-3.105499999999665-.465900000000147-1.103500000001077-.311499999999796-2.10740000000078-.745100000000093-3.007800000001225-1.30369999999948l2.091800000000148-4.827100000000428c.493099999999686.364199999999983,1.152299999999741.66989999999987,1.978500000001077.917999999999665.826199999999517.246000000000095,1.668899999998757.369099999999889,2.525399999998626.369099999999889,1.031200000001263,0,1.954100000000835-.164999999999054,2.770500000000538-.498099999999795.814399999999296-.332999999999629,1.505800000000818-.916899999999259,2.074200000000928-1.752899999999499.568399999998292-.837900000000445,1.002899999999499-1.985300000000279,1.303699999998571-3.444300000000112.299800000000687-1.460000000000036.450200000001132-3.315500000000611.450200000001132-5.567399999999907v-14.160200000000259c0-2.574200000000019-.133800000001429-4.662099999999555-.402299999999741-6.259700000000521-.267600000001039-1.59769999999935-.670900000000984-2.842799999999443-1.207100000001446-3.732399999998961-.536099999999351-.890700000000834-1.206999999998516-1.486400000000685-2.012699999999313-1.787200000000666-.802700000000186-.298799999999574-1.742099999999482-.450199999999313-2.814399999999296-.450199999999313-1.158199999999852,0-2.289099999999962.274499999999534-3.394500000000335.82129999999961-1.104500000001281.546899999999368-2.120200000001205,1.255900000000111-3.042999999999665,2.124099999999999-.921900000001187.868099999999686-1.736300000000483,1.84860000000026-2.444400000000314,2.944300000000112-.708000000000538,1.093699999999444-1.234300000000076,2.1875-1.578100000000632,3.282199999999648v18.666000000000167h-5.952100000000428v-19.792000000000371c0-3.175699999999779-.183599999998478-5.862299999999777-.548899999999776-8.0625-.363199999999779-2.198199999999815-.718699999999444-3.855399999999463-1.061499999999796-4.970699999999852h5.793999999999869Z"/><path class="uuid-78c8c799-3abf-439b-833a-b9e4d902b0bf" d="M129.76510000000053,447.271899999999732h-32.207500000000437v-5.346600000000763h32.207500000000437v5.346600000000763ZM125.573700000000827,504.202099999999518h-5.518100000001141v-5.860300000000279h-12.874499999999898v5.860300000000279h-5.602999999999156v-28.914499999999862h23.995600000000195v28.914499999999862ZM125.316899999999805,458.307599999999184l-23.653399999999237.085000000000036v-5.345799999999144h23.653399999999237v5.260799999999108ZM125.402299999999741,469.513599999999315h-23.738799999999173v-5.346599999999853h23.738799999999173v5.346599999999853ZM124.333000000000538,436.40769999999975l-21.728500000001077.085399999999936v-5.346199999999953h21.728500000001077v5.260800000000017ZM120.055599999999686,493.080500000000029v-12.531700000000455h-12.959899999999834v12.531700000000455h12.959899999999834ZM175.317399999999907,469.599599999999555l-46.236899999999878.084899999999834v-5.260699999999815h11.462900000000445l2.480999999999767-13.216800000000148h-10.692900000000009v-5.260699999999815h11.548800000000483l1.83889999999883-9.795399999999972h-16.381799999999203v-5.346199999999953h42.473099999999249v5.261700000000019h-20.317399999999907l-1.753399999999601,9.794399999999769h17.622600000000602l-1.839900000000853,18.477100000000064h9.795000000000073v5.261700000000019ZM167.875,504.372999999999593h-5.51759999999922v-5.774400000000242h-21.642600000001039v5.774400000000242h-5.603499999999258v-28.998999999999796h32.763699999999517v28.998999999999796ZM162.35740000000078,493.337399999999434v-12.702699999999822h-21.728000000000975v12.702699999999822h21.728000000000975ZM161.501899999999296,451.121599999999489h-12.703099999998813l-2.480499999999665,13.302200000000084h13.857899999999063l1.325699999999415-13.302200000000084Z"/><path class="uuid-78c8c799-3abf-439b-833a-b9e4d902b0bf" d="M271.759700000000521,447.271899999999732h-77.759200000000419v-5.346600000000763h77.759200000000419v5.346600000000763ZM260.297300000000178,458.221700000000055h-55.604499999999462v-5.17489999999998h55.604499999999462v5.17489999999998ZM260.297300000000178,469.34269999999924h-55.604499999999462v-5.175699999999779h55.604499999999462v5.175699999999779ZM258.287099999999555,504.372999999999593h-5.51759999999922v-6.031200000000354h-40.1208000000006v6.031200000000354h-5.517400000000634v-29.085399999999936h51.155800000000454v29.085399999999936ZM258.201600000000326,435.851999999999862l-50.642499999999927.127999999999702v-5.175299999999879h50.642499999999927v5.047300000000178ZM252.769500000000335,493.080500000000029v-12.531700000000455h-40.1208000000006v12.531700000000455h40.1208000000006Z"/><path class="uuid-78c8c799-3abf-439b-833a-b9e4d902b0bf" d="M368.204100000000835,488.889599999999518h-34.432400000001508v5.945300000000316c0,6.358399999999165-3.378699999999299,9.538099999999758-10.137899999999718,9.538099999999758h-5.688500000000204l-2.095699999999852-5.260699999999815h7.955500000000029c2.794499999999971,0,4.192399999999907-1.284200000000055,4.192399999999907-3.849600000000464v-6.373099999999795h-37.554699999998775v-5.346700000000055h37.554699999998775v-3.67869999999948c5.95850000000064-2.224100000000362,10.221700000000055-4.304700000000594,12.78859999999986-6.244100000000799h-32.764400000000023v-4.918999999999869h42.261000000000422v4.662199999999757c-4.449699999999211,3.022400000000744-9.952699999999822,6.11620000000039-16.511000000000422,9.281200000000354v.898400000000038h34.432400000001508v5.346700000000055ZM364.610800000000381,473.020499999999629h-5.13379999999961v-8.853500000000167h-59.751400000001013v9.367200000000594h-5.60399999999936v-14.371100000000297h7.356400000000576v-26.091800000000148c4.048299999998562-.39850000000024,8.483599999999569-2.324300000000221,13.303199999998469-5.774000000000342l2.823300000000017,3.935099999999693c-2.596700000000055,2.395500000000538-6.132399999998597,4.206500000000233-10.608399999999165,5.432099999999991v3.593300000000454h10.949199999999109v4.448199999999815h-10.949199999999109v4.662100000000464h10.949199999999109v4.361899999999878h-10.949199999999109v5.433100000000195h45.467000000000553v-5.433100000000195h-10.436800000001313v-4.276899999999841h10.436800000001313v-5.003900000000613h-10.351300000000265v-4.362799999999879h10.351300000000265v-4.662599999999657h-12.104700000001685v-5.175299999999879h17.536600000001272v28.828599999999824h6.715799999999945v13.943400000000111ZM340.358399999999165,439.829599999999118l-2.99369999999908,3.678200000000288c-1.626399999999194-1.567399999999907-3.83640000000014-3.264699999999721-6.629899999999907-5.089899999999943-2.309499999999389,1.939499999999498-4.90480000000025,3.721700000000055-7.785100000000966,5.346700000000055l-3.507299999999304-3.08010000000013c2.766100000000733-1.139600000000428,5.188899999999194-2.480400000000373,7.271899999999732-4.020000000000437-3.479999999999563-1.311499999999796-6.288099999999758-2.224099999999453-8.427200000000084-2.737299999999777l2.182600000000093-3.935499999999593c3.164099999999962.798299999999472,6.343700000001263,1.825700000000325,9.537599999999657,3.079600000000028,2.024900000000343-1.909200000000055,3.721199999999953-3.863299999999981,5.090299999999843-5.859400000000278l3.592800000000352,2.865200000000186c-1.141599999999016,1.768600000000333-2.623999999999796,3.494200000000092-4.448199999998906,5.175799999999981,2.109300000000076,1.197299999999814,4.148400000000038,2.723100000000159,6.116199999998571,4.576699999999619ZM340.871100000000297,455.398400000000038l-3.591800000000148,2.823300000000017c-2.309600000000501-1.768100000000231-4.706099999999424-3.236400000000685-7.186100000000806-4.405300000000352-1.539499999998952,1.168899999999667-4.276799999999639,2.637200000000121-8.211900000000242,4.405300000000352l-3.250999999998385-2.566500000000815c3.677799999999479-1.738699999999881,6.315499999998792-3.250900000000001,7.913399999999456-4.533599999999751-1.597900000000664-.997599999999693-4.020800000000236-2.10990000000038-7.272000000000844-3.337399999999434l3.207800000000134-2.693400000000111c2.936499999999796,1.055699999999888,5.446300000001429,2.152299999999741,7.527799999999843,3.292999999999665.797400000001289-.45510000000013,2.409200000000055-1.824300000000221,4.833000000000538-4.105999999999767l3.935100000000602,2.010299999999916c-1.454100000000835,1.882299999999304-3.078199999999924,3.436499999999796-4.875799999999799,4.662999999999556,2.367000000000189,1.083100000000741,4.690199999999095,2.565499999999702,6.971499999999651,4.447300000000723Z"/><path class="uuid-78c8c799-3abf-439b-833a-b9e4d902b0bf" d="M464.560499999999593,488.889599999999518h-34.431899999999587v5.945300000000316c0,6.358399999999165-3.378600000000006,9.538099999999758-10.136899999999514,9.538099999999758h-5.688500000000204l-2.095699999999852-5.260699999999815h7.955599999999322c2.793400000000474,0,4.191399999999703-1.284200000000055,4.191399999999703-3.849600000000464v-6.373099999999795h-37.553699999998571v-5.346700000000055h37.553699999998571v-3.67869999999948c5.959200000001147-2.224100000000362,10.221600000000763-4.304700000000594,12.789500000000771-6.244100000000799h-32.764400000000023v-4.918999999999869h42.260000000000218v4.662199999999757c-4.449000000000524,3.022400000000744-9.953100000000632,6.11620000000039-16.511000000000422,9.281200000000354v.898400000000038h34.431899999999587v5.346700000000055ZM460.968699999999444,473.020499999999629h-5.134699999998702v-8.853500000000167h-59.751500000000306v9.367200000000594h-5.603000000000975v-14.371100000000297h7.356200000000172v-26.091800000000148c4.04950000000099-.39850000000024,8.483099999999467-2.324300000000221,13.302499999999782-5.774000000000342l2.822500000000218,3.935099999999693c-2.59349999999904,2.395500000000538-6.130699999999706,4.206500000000233-10.607699999998658,5.432099999999991v3.593300000000454h10.950199999999313v4.448199999999815h-10.950199999999313v4.662100000000464h10.950199999999313v4.361899999999878h-10.950199999999313v5.433100000000195h45.466799999998329v-5.433100000000195h-10.435599999998885v-4.276899999999841h10.435599999998885v-5.003900000000613h-10.35109999999986v-4.362799999999879h10.35109999999986v-4.662599999999657h-12.104499999999462v-5.175299999999879h17.536400000000867v28.828599999999824h6.716999999998734v13.943400000000111ZM438.238699999999881,454.438899999999194l-3.896899999999732,3.563000000000102c-1.778800000000047-2.672800000000279-4.324300000000221-6.018500000000131-6.785700000000361-8.096199999999953-3.826100000000224,4.263200000000325-6.973099999999249,6.97609999999986-9.432099999999991,8.136800000000221l-3.856499999999869-3.238299999999981c2.898999999999432-1.378900000000613,6.041999999999462-3.954600000000028,9.433600000000297-7.73239999999987-3.855900000000474-2.401900000000751-6.603500000001077-3.887300000000323-8.243599999999788-4.454600000000028l3.363799999999173-3.479000000000269c1.367100000001301.539999999999964,3.934999999999491,1.941899999999805,7.710900000000038,4.210399999999936,1.122100000000501-1.835900000000038,1.995100000000093-3.846700000000055,2.623999999999796-6.033199999999852h-12.878899999999703v-5.059600000000501h6.90480000000025v-5.209899999999834h4.431200000000899v5.209899999999834h8.194799999999304v5.059600000000501h-1.622100000000501c-.910599999999249,3.34860000000026-2.135199999998804,6.249499999999898-3.67529999999897,8.70510000000013,2.980999999999767,2.265599999999722,5.841800000000148,5.719699999999648,7.727999999999156,8.418399999999565Z"/><path class="uuid-78c8c799-3abf-439b-833a-b9e4d902b0bf" d="M562.329100000000835,447.10149999999976l-3.079100000000835,4.447799999999916c-9.724599999999555-2.395000000000437-17.336900000000242-5.16110000000026-22.839900000000853-8.29740000000038v3.849600000000464h-28.914999999999054v-4.235300000000279c-8.326399999999921,4.306599999999889-15.796899999999368,7.115200000000186-22.413099999999758,8.426300000000083l-2.822299999999814-4.490799999999581c16.024400000000242-3.906200000000354,29.368899999999485-10.436500000000706,40.034700000000157-19.58980000000065l5.260699999998906,1.753400000000511c-.570799999999508.712899999999536-1.069799999999304,1.212399999999434-1.497499999999491,1.496599999999489,9.466800000000148,7.870600000000195,21.557600000000093,13.417000000000371,36.271500000000742,16.639600000000428ZM553.21769999999924,471.609300000000076h-62.10439999999835v-20.0600000000004h62.10439999999835v20.0600000000004ZM548.128600000000006,504.457999999999629h-5.26050000000032v-3.421900000000278h-41.317799999998897v3.421900000000278h-5.260800000000017v-28.35739999999987h51.839099999999235v28.35739999999987ZM519.599599999999555,466.990199999999277v-10.693399999999201h-23.225599999999758v10.693399999999201h23.225599999999758ZM542.868099999999686,486.323199999999815v-5.51760000000013h-41.317799999998897v5.51760000000013h41.317799999998897ZM542.868099999999686,496.417899999999463v-5.603500000000167h-41.317799999998897v5.603500000000167h41.317799999998897ZM513.911099999999351,462.755299999999806l-4.405299999998533,3.079600000000028c-2.651300000001356-2.679200000000492-5.247000000001208-4.661600000000362-7.785100000000966-5.945300000000316l4.44800000000032-2.565900000000511c3.022699999999531,1.282700000000659,5.602999999999156,3.094200000000455,7.742399999999179,5.431600000000799ZM534.656199999999444,442.353499999999258c-4.134699999998702-2.166999999999462-8.142099999999118-5.089899999999943-12.019499999998516-8.768599999999424-4.135300000001735,3.421899999999368-8.768100000001141,6.34479999999985-13.900400000000445,8.768599999999424h25.919899999998961ZM547.95850000000064,466.990199999999277v-10.693399999999201h-23.097200000000157v10.693399999999201h23.097200000000157ZM542.782199999999648,458.820299999999406c-1.682600000000093,2.680699999999888-4.220699999999852,4.962900000000445-7.613499999999476,6.843700000000354l-4.704900000000634-2.351999999999862c3.736400000001595-2.10990000000038,6.301800000001094-4.220200000000659,7.698300000000017-6.331100000000333l4.620100000000093,1.839399999999841Z"/><path class="uuid-78c8c799-3abf-439b-833a-b9e4d902b0bf" d="M133.205046062990732,389.879399999999805l-1.546900000001187,2.056099999999788c-5.961900000000242-1.756800000000112-10.80029999999897-4.122999999999593-14.512199999999211-7.09860000000026-3.19970000000103,2.612299999999777-8.223100000001068,5.025400000000445-15.076600000000326,7.239199999999983l-1.721199999999953-2.090799999999945c6.629899999999907-1.838799999999537,11.643500000000131-4.070300000000316,15.040499999999156-6.694300000000112-3.408199999999852-3.221700000000055-5.699699999999211-7.139199999999619-6.870100000000093-11.754899999999907-.632299999999304,1.628399999999601-1.500499999998283,3.174300000000585-2.60109999999986,4.638700000000426l-1.860799999998562-1.704099999999926c1.475599999999758-1.757300000000214,2.663300000000163-3.684600000000501,3.565399999999499-5.781300000000556h-6.044400000000678v-2.160599999999249h14.092700000001059v-6.009300000000621h2.266200000000026v5.97360000000026h14.336899999998423v2.161699999999655h-6.009799999999814c-1.053199999998469,6.114700000000084-3.477499999999054,10.980900000000474-7.27390000000014,14.600500000000466,3.455500000000029,2.624099999999999,8.19380000000092,4.832099999999627,14.215300000001662,6.624099999999999ZM123.90964606298985,368.654799999999341h-13.598099999999249c.935499999999593,5.423300000000381,3.225499999998647,9.786600000000362,6.868599999999788,13.089300000000549,3.560999999999694-3.314400000000205,5.804200000000492-7.677700000000186,6.729499999999462-13.089300000000549Z"/><path class="uuid-78c8c799-3abf-439b-833a-b9e4d902b0bf" d="M217.369866062990695,385.785599999999249h-14.145300000000134v2.442900000000009c0,2.611300000000483-1.387199999990116,3.918000000000575-4.163800000000265,3.918000000000575h-2.336900000000242l-.860099999999875-2.161200000000463h3.267099999999118c1.148400000000038,0,1.722600000000966-.527299999999741,1.722600000000966-1.581499999999323v-2.618200000000797h-15.426199999999881v-2.19629999999961h15.426199999999881v-1.511199999999917c2.447799999999916-.913100000000668,4.199300000000221-1.768600000000333,5.252500000000509-2.564900000000307h-13.45850000000064v-2.020999999999731h17.359399999999368v1.914999999999964c-1.826699999999619,1.242199999999684-4.088399999998728,2.513199999999415-6.782299999998941,3.813000000000102v.369099999999889h14.145300000000134v2.19629999999961ZM215.894466062989522,379.26759999999922h-2.109300000000076v-3.637699999999313h-24.546399999999267v3.847599999999147h-2.301799999999275v-5.902299999999741h3.022499999999127v-10.718799999999646c1.663099999999758-.16359999999986,3.485300000000279-.954600000000028,5.465299999999843-2.372099999999591l1.158699999999953,1.616699999999582c-1.064899999999398.983900000000176-2.519000000000233,1.727600000000166-4.358599999999569,2.231499999999869v1.475599999999758h4.498999999999796v1.82760000000053h-4.498999999999796v1.915099999999256h4.498999999999796v1.791900000000169h-4.498999999999796v2.232500000000073h18.678899999998976v-2.232500000000073h-4.288499999998749v-1.756799999999203h4.288499999998749v-2.055700000000797h-4.251899999999296v-1.792400000000271h4.251899999999296v-1.914599999999155h-4.972599999999147v-2.126000000000204h7.203100000000632v11.841800000000148h2.760199999998804v5.72859999999946ZM205.931166062990087,365.632799999999406l-1.230999999999767,1.510200000000623c-.666500000001179-.644000000000233-1.57470000000103-1.340300000000752-2.722200000000157-2.090300000000752-.949200000000928.796900000000278-2.015600000000632,1.529300000000148-3.198200000000725,2.19630000000052l-1.440399999999499-1.264699999999721c1.13550000000032-.468700000000354,2.13130000000092-1.019000000000233,2.986800000000585-1.651800000000549-1.429700000000594-.53859999999986-2.584000000000742-.91359999999986-3.46140000000014-1.124499999999898l.896899999999732-1.616699999999582c1.29910000000018.328599999998914,2.605499999999665.75,3.917499999999563,1.26509999999962.832000000000335-.784200000000055,1.528299999999945-1.586900000000242,2.090099999999438-2.407200000000557l1.476600000001781,1.177700000000186c-.46900000000096.725599999999758-1.078400000000329,1.434600000000501-1.82640000000174,2.126000000000204.865700000000288.49120000000039,1.703100000000632,1.11869999999999,2.511700000000928,1.879899999999907ZM206.141566062990023,372.028299999999945l-1.475599999999758,1.159700000000157c-.948200000000725-.72610000000077-1.933100000000195-1.329600000000937-2.952100000000428-1.810100000000602-.633099999999104.480499999999665-1.757299999999304,1.083999999999833-3.373600000000806,1.810100000000602l-1.335899999998219-1.054700000000594c1.512199999999211-.714399999999841,2.595499999999447-1.334499999999935,3.251000000000204-1.862299999999777-.655500000000757-.410200000000259-1.651900000000751-.86620000000039-2.986800000000585-1.370100000000093l1.317799999998897-1.107500000000073c1.206600000001345.433600000000297,2.237300000000687.885299999999916,3.092800000000352,1.353100000000268.328600000000733-.1875.989800000001196-.749099999999999,1.984599999999773-1.686599999999999l1.616500000000087.826199999999517c-.597399999998743.772500000000036-1.264400000000023,1.41110000000026-2.001500000000306,1.914999999999964.970700000001671.444400000000314,1.924800000000687,1.053800000000592,2.862800000000789,1.82720000000063Z"/><path class="uuid-78c8c799-3abf-439b-833a-b9e4d902b0bf" d="M276.056886062990088,372.467299999999341c2.366700000000492,2.659099999999853,3.550799999999072,5.253900000000613,3.550799999999072,7.783699999999953,0,1.229900000000271-.319299999999203,2.208000000000538-.958499999998821,2.934000000000196-.63720000000103.727100000000064-1.530700000001161,1.089899999999943-2.679200000000492,1.089899999999943-.632299999999304,0-1.394500000000335-.076699999999619-2.284100000000763-.228099999999358l-.649899999998524-2.337400000000343c1.253899999999703.316899999999805,2.15519999999924.474699999999757,2.705500000000029.474699999999757.456099999999424,0,.872599999998783-.176300000000083,1.248099999998885-.526899999999841.375-.351599999999962.5625-.820300000000316.5625-1.406200000000354,0-.877999999999702-.322299999999814-2.0024999999996-.966599999999744-3.373599999999897-.644800000000032-1.370100000000093-1.61160000000018-2.676300000000083-2.899600000000646-3.917499999999563l3.426699999999983-8.80370000000039h-5.217999999998938v27.990300000000389h-2.302499999999782v-30.221200000000863h9.856400000000576v2.230900000000474l-3.391600000000835,8.311099999999897ZM300.287886062989855,385.698199999999815c-.305200000000696,1.897500000000036-.714799999999741,3.274399999999332-1.230999999999767,4.127899999999499-.514600000000428.855500000000575-1.353000000000975,1.283699999999953-2.511700000000928,1.283699999999953h-2.740699999998469c-1.828100000000632,0-2.740999999999985-.960900000000038-2.740999999999985-2.88130000000001v-9.29489999999987h-3.708200000000943c-.069799999999304,3.771499999999833-.805200000000696,6.597600000000057-2.204599999999118,8.477499999999964-1.400100000000748,1.879899999999907-3.996600000000399,3.458000000000538-7.793000000001484,4.735400000000482l-1.475599999999758-2.020500000000538c3.525400000000445-1.041999999999462,5.944900000000416-2.390199999999822,7.256900000000314-4.041999999999462,1.311999999999898-1.651400000000649,1.973100000001068-4.023000000000138,1.985300000000279-7.115300000000389h-4.814399999999296v-2.302200000000084h18.819299999999203v2.267100000000028h-5.870600000000195v8.75c0,.292400000000271.09400000000096.565400000000409.281699999999546.816899999999805.187300000001414.252400000000307.410200000000259.377400000000307.668000000001484.377400000000307h2.231700000000274c.456299999998009,0,.805399999999281-.374499999999898,1.04569999999876-1.124499999999898.238699999999881-.748999999999796.441399999999703-1.721199999999953.605900000000474-2.916500000000269l2.19629999999961.861300000000483ZM298.266886062991034,369.761699999999109l-2.230900000000474.035100000000966v-3.092700000001059h-13.248600000000806v3.092700000001059h-2.266799999999421v-5.324200000000928h7.713099999999031v-3.988299999999072h2.302700000000186v3.953700000000026h7.730500000001484v5.323699999999008ZM295.315686062989698,373.152299999999741h-11.878399999999601v-2.301300000000083h11.878399999999601v2.301300000000083Z"/><path class="uuid-78c8c799-3abf-439b-833a-b9e4d902b0bf" d="M384.454706062990226,385.785599999999249h-14.145500000000538v2.442900000000009c0,2.611300000000483-1.388699999999517,3.918000000000575-4.16359999999986,3.918000000000575h-2.336900000000242l-.86160000000018-2.161200000000463h3.268299999999726c1.14850000000115,0,1.722700000000259-.527299999999741,1.722700000000259-1.581499999999323v-2.618200000000797h-15.427999999999884v-2.19629999999961h15.427999999999884v-1.511199999999917c2.447700000000623-.913100000000668,4.199200000000928-1.768600000000333,5.252900000001318-2.564900000000307h-13.459000000000742v-2.020999999999731h17.359200000000783v1.914999999999964c-1.826399999999921,1.242199999999684-4.088200000000143,2.513199999999415-6.782000000001062,3.813000000000102v.369099999999889h14.145500000000538v2.19629999999961ZM382.977606062990162,379.26759999999922h-2.107900000000882v-3.637699999999313h-24.545399999999063v3.847599999999147h-2.302700000000186v-5.902299999999741h3.023400000000038v-10.718799999999646c1.661599999999453-.16359999999986,3.483899999999267-.954600000000028,5.462900000000445-2.372099999999591l1.160200000000259,1.616699999999582c-1.06590000000142.983900000000176-2.518100000001141,1.727600000000166-4.356999999999971,2.231499999999869v1.475599999999758h4.497599999998783v1.82760000000053h-4.497599999998783v1.915099999999256h4.497599999998783v1.791900000000169h-4.497599999998783v2.232500000000073h18.676799999999275v-2.232500000000073h-4.287099999999555v-1.756799999999203h4.287099999999555v-2.055700000000797h-4.25170000000071v-1.792400000000271h4.25170000000071v-1.914599999999155h-4.972200000000157v-2.126000000000204h7.203199999999924v11.841800000000148h2.758700000000317v5.72859999999946ZM373.015706062989921,365.632799999999406l-1.230900000000474,1.510200000000623c-.667999999999665-.644000000000233-1.575199999999313-1.340300000000752-2.723699999998644-2.090300000000752-.948200000000725.796900000000278-2.014100000000326,1.529300000000148-3.197000000000116,2.19630000000052l-1.441100000000006-1.264699999999721c1.137199999999211-.468700000000354,2.133299999999508-1.019000000000233,2.98779999999897-1.651800000000549-1.429700000000594-.53859999999986-2.583099999999831-.91359999999986-3.461499999999432-1.124499999999898l.895500000000538-1.616699999999582c1.300799999999072.328599999998914,2.606999999999971.75,3.917999999999665,1.26509999999962.831500000000233-.784200000000055,1.529300000000148-1.586900000000242,2.09230000000025-2.407200000000557l1.475599999999758,1.177700000000186c-.469500000001062.725599999999758-1.079100000000835,1.434600000000501-1.828199999999924,2.126000000000204.867199999998775.49120000000039,1.704599999999118,1.11869999999999,2.513199999999415,1.879899999999907ZM373.226206062989149,372.028299999999945l-1.475599999999758,1.159700000000157c-.949499999998807-.72610000000077-1.933100000000195-1.329600000000937-2.951399999999921-1.810100000000602-.633599999999205.480499999999665-1.756599999998798,1.083999999999833-3.374299999999494,1.810100000000602l-1.334899999999834-1.054700000000594c1.511199999999008-.714399999999841,2.594199999999546-1.334499999999935,3.250900000000911-1.862299999999777-.656700000001365-.410200000000259-1.652800000001662-.86620000000039-2.987800000000789-1.370100000000093l1.317900000000009-1.107500000000073c1.206500000000233.433600000000297,2.237300000000687.885299999999916,3.091800000000148,1.353100000000268.328100000000632-.1875.989299999999275-.749099999999999,1.985800000000381-1.686599999999999l1.616299999999683.826199999999517c-.597200000000157.772500000000036-1.265199999999822,1.41110000000026-2.003000000000611,1.914999999999964.972200000000157.444400000000314,1.927799999999479,1.053800000000592,2.864299999999275,1.82720000000063Z"/><path class="uuid-78c8c799-3abf-439b-833a-b9e4d902b0bf" d="M468.84732606299076,390.389599999999518h-31.977000000000771v-2.266599999999926h14.89890000000014v-8.24120000000039h-10.735399999999572v-2.266599999999926h10.735399999999572v-7.168399999999565h-7.959500000000844c-.960399999999936,2.494599999999991-2.565399999999499,4.796299999999974-4.814399999999296,6.904700000000048l-2.318400000000111-1.211900000000242c3.840799999999945-3.548799999999574,5.97899999999936-7.895499999999629,6.412599999999657-13.037100000000464l2.372100000000501.685100000000602c-.093800000000556,1.194799999999304-.369200000001001,2.670900000000074-.826699999999619,4.428200000000288h7.099599999999555v-7.69630000000052h2.371399999999994v7.660700000000361h12.404500000000553v2.266599999999926h-12.404500000000553v7.133700000000317h10.577799999999115v2.266200000000026h-10.577799999999115v8.240699999999379h14.741400000000795v2.302200000000084Z"/><path class="uuid-78c8c799-3abf-439b-833a-b9e4d902b0bf" d="M553.960646062989326,368.619099999999889l-1.264400000000023,1.827699999999822c-3.993899999999485-.983900000000176-7.122299999999086-2.119700000000194-9.383099999999104-3.408300000000054v1.580600000000231h-11.877899999999499v-1.739199999999983c-3.41990000000078,1.768999999999323-6.489300000001094,2.92279999999937-9.206100000001243,3.46140000000014l-1.159599999999045-1.845200000000659c6.583000000000538-1.604500000000371,12.064399999999296-4.287099999999555,16.445799999999508-8.046900000000278l2.160599999999249.720699999999852c-.23489999999947.293000000000575-.439399999999296.498000000000502-.614299999999275.614300000001094,3.888199999999415,3.233399999999165,8.855999999999767,5.511699999999109,14.898999999999432,6.834899999999834ZM550.218946062990653,378.6875h-25.511700000000928v-8.240700000000288h25.511700000000928v8.240700000000288ZM548.128146062990709,392.180599999999686h-2.162200000000666v-1.40520000000015h-16.973099999999249v1.40520000000015h-2.160600000001068v-11.648400000000038h21.295900000000984v11.648400000000038ZM536.407846062989847,376.789999999999054v-4.393099999999322h-9.539999999999054v4.393099999999322h9.539999999999054ZM545.965946062990042,384.731399999999667v-2.266599999999926h-16.973099999999249v2.266599999999926h16.973099999999249ZM545.965946062990042,388.877899999999499v-2.301800000000185h-16.973099999999249v2.301800000000185h16.973099999999249ZM534.070946062989606,375.050799999999072l-1.809799999999086,1.264600000000428c-1.088600000000952-1.100599999999758-2.155000000000655-1.914999999999964-3.197000000000116-2.442399999999907l1.826600000000326-1.05370000000039c1.242199999998775.526400000000649,2.301299999999173,1.270500000000538,3.180199999998877,2.231499999999869ZM542.592246062989943,366.669399999999769c-1.69800000000032-.889600000000428-3.343100000000049-2.090799999999945-4.936299999999392-3.602499999999964-1.700200000001132,1.405699999999342-3.602600000000166,2.606899999999769-5.710700000001452,3.602499999999964h10.647000000000844ZM548.057346062989382,376.789999999999054v-4.393099999999322h-9.48739999999998v4.393099999999322h9.48739999999998ZM545.93184606298928,373.434099999999489c-.691899999999805,1.100999999999658-1.734699999999066,2.037600000000566-3.128499999998894,2.810999999999694l-1.932099999999991-.965799999999945c1.533699999999953-.867199999999684,2.588399999998728-1.734400000000278,3.162599999999657-2.60109999999986l1.897999999999229.755900000000111Z"/></g></svg>