<?xml version="1.0" encoding="UTF-8"?><svg id="uuid-2e5559a7-62d2-4431-8bfd-6468e67a17fb" xmlns="http://www.w3.org/2000/svg" width="223.375851645231137mm" height="244.361966330051899mm" xmlns:xlink="http://www.w3.org/1999/xlink" viewBox="0 0 633.191399999999703 692.679600000001301"><defs><style>.uuid-d9ff1dec-f8af-4385-a8b8-5db04946b3b7{clip-path:url(#uuid-66225813-565e-4675-844d-8e3081baec1d);}.uuid-68ae5178-0f5e-490e-b799-25802b3c3d93{fill:#fff;}.uuid-478aecb5-b48f-4e74-9a74-5370d8b25486{fill:none;}.uuid-75a94023-f28a-4365-92c5-e0f82d5ec5b9{fill:#333e48;}</style><clipPath id="uuid-66225813-565e-4675-844d-8e3081baec1d"><rect class="uuid-478aecb5-b48f-4e74-9a74-5370d8b25486" width="633.191399999999703" height="692.679600000001301"/></clipPath></defs><g class="uuid-d9ff1dec-f8af-4385-a8b8-5db04946b3b7"><rect class="uuid-478aecb5-b48f-4e74-9a74-5370d8b25486" x="97.559035156249593" y="587.750442968750576" width="462" height="46.3251953125"/><path class="uuid-68ae5178-0f5e-490e-b799-25802b3c3d93" d="M137.298781249999593,619.836868750000576v4.537109375h-37.38671875v-4.537109375h37.38671875ZM133.769484374999593,595.178665625000576v4.328125h-30.330078125v-4.328125h30.330078125Z"/><path class="uuid-68ae5178-0f5e-490e-b799-25802b3c3d93" d="M158.546828124999593,595.682571875000576v-1.974609375h-13.484375v-2.8984375h30.91796875v2.8984375h-13.52734375v1.974609375h16.298828125v7.5625h-3.73828125v-4.95703125h-12.560546875v6.63671875h-1.17578125l2.6875,1.302734375-.880859375.671875c3.947265625,1.974609375,10.921875,3.94921875,17.263671875,4.7890625-.796875.755859375-1.84765625,2.267578125-2.3515625,3.19140625-2.8984375-.50390625-5.880859375-1.30078125-8.6953125-2.267578125v1.51171875h-17.474609375v-1.595703125c-2.60546875,1.0078125-5.251953125,1.84765625-7.6875,2.5625-.7578125-.798828125-2.185546875-2.142578125-3.109375-2.7734375,6.888671875-1.51171875,14.408203125-4.158203125,18.9453125-7.392578125h-1.427734375v-6.63671875h-12.51953125v4.95703125h-3.5703125v-7.5625h16.08984375ZM148.548781249999593,598.623978125000576c2.603515625.419921875,6.216796875,1.302734375,8.1484375,1.974609375l-.96484375,2.099609375,1.048828125-.251953125.294921875,2.353515625c-3.5703125,1.0078125-7.099609375,1.97265625-10.123046875,2.814453125l-1.09375-2.857421875c2.478515625-.419921875,5.83984375-1.21875,9.41015625-1.974609375-1.974609375-.712890625-5.29296875-1.595703125-7.8125-2.099609375l1.091796875-2.05859375ZM170.308546874999593,615.805618750000576l.587890625-.2109375,2.521484375,1.595703125c-1.974609375,2.60546875-5.208984375,5.125-8.234375,7.015625l3.4453125,1.51171875-1.72265625,2.814453125c-3.27734375-1.6796875-9.873046875-4.451171875-14.66015625-6.2578125l1.6796875-2.39453125c2.142578125.755859375,4.7890625,1.763671875,7.30859375,2.73046875,1.974609375-.966796875,4.244140625-2.39453125,6.0078125-3.822265625h-20.919921875v-2.982421875h23.986328125ZM166.863234374999593,611.688431250000576c-2.51953125-1.0078125-4.74609375-2.1015625-6.46875-3.109375-1.974609375,1.134765625-4.158203125,2.185546875-6.427734375,3.109375h12.896484375ZM164.847609374999593,602.194290625000576l.419921875.083984375-1.05078125-1.595703125c2.39453125-.37890625,5.96484375-1.513671875,8.0234375-2.185546875l1.59765625,2.142578125c-2.185546875.83984375-5.16796875,1.470703125-7.51953125,1.890625,3.107421875.671875,6.76171875,1.72265625,8.86328125,2.521484375l-.966796875,2.478515625c-2.39453125-1.009765625-6.931640625-2.353515625-10.375-3.193359375l1.0078125-2.142578125Z"/><path class="uuid-68ae5178-0f5e-490e-b799-25802b3c3d93" d="M221.298781249999593,619.836868750000576v4.537109375h-37.38671875v-4.537109375h37.38671875ZM217.769484374999593,595.178665625000576v4.328125h-30.330078125v-4.328125h30.330078125Z"/><path class="uuid-68ae5178-0f5e-490e-b799-25802b3c3d93" d="M242.546828124999593,595.682571875000576v-1.974609375h-13.484375v-2.8984375h30.91796875v2.8984375h-13.52734375v1.974609375h16.298828125v7.5625h-3.73828125v-4.95703125h-12.560546875v6.63671875h-1.17578125l2.6875,1.302734375-.880859375.671875c3.947265625,1.974609375,10.921875,3.94921875,17.263671875,4.7890625-.796875.755859375-1.84765625,2.267578125-2.3515625,3.19140625-2.8984375-.50390625-5.880859375-1.30078125-8.6953125-2.267578125v1.51171875h-17.474609375v-1.595703125c-2.60546875,1.0078125-5.251953125,1.84765625-7.6875,2.5625-.7578125-.798828125-2.185546875-2.142578125-3.109375-2.7734375,6.888671875-1.51171875,14.408203125-4.158203125,18.9453125-7.392578125h-1.427734375v-6.63671875h-12.51953125v4.95703125h-3.5703125v-7.5625h16.08984375ZM232.548781249999593,598.623978125000576c2.603515625.419921875,6.216796875,1.302734375,8.1484375,1.974609375l-.96484375,2.099609375,1.048828125-.251953125.294921875,2.353515625c-3.5703125,1.0078125-7.099609375,1.97265625-10.123046875,2.814453125l-1.09375-2.857421875c2.478515625-.419921875,5.83984375-1.21875,9.41015625-1.974609375-1.974609375-.712890625-5.29296875-1.595703125-7.8125-2.099609375l1.091796875-2.05859375ZM254.308546874999593,615.805618750000576l.587890625-.2109375,2.521484375,1.595703125c-1.974609375,2.60546875-5.208984375,5.125-8.234375,7.015625l3.4453125,1.51171875-1.72265625,2.814453125c-3.27734375-1.6796875-9.873046875-4.451171875-14.66015625-6.2578125l1.6796875-2.39453125c2.142578125.755859375,4.7890625,1.763671875,7.30859375,2.73046875,1.974609375-.966796875,4.244140625-2.39453125,6.0078125-3.822265625h-20.919921875v-2.982421875h23.986328125ZM250.863234374999593,611.688431250000576c-2.51953125-1.0078125-4.74609375-2.1015625-6.46875-3.109375-1.974609375,1.134765625-4.158203125,2.185546875-6.427734375,3.109375h12.896484375ZM248.847609374999593,602.194290625000576l.419921875.083984375-1.05078125-1.595703125c2.39453125-.37890625,5.96484375-1.513671875,8.0234375-2.185546875l1.59765625,2.142578125c-2.185546875.83984375-5.16796875,1.470703125-7.51953125,1.890625,3.107421875.671875,6.76171875,1.72265625,8.86328125,2.521484375l-.966796875,2.478515625c-2.39453125-1.009765625-6.931640625-2.353515625-10.375-3.193359375l1.0078125-2.142578125Z"/><path class="uuid-68ae5178-0f5e-490e-b799-25802b3c3d93" d="M288.537062499999593,607.487259375000576v4.9140625h13.31640625v3.65625h-13.31640625v6.97265625h17.013671875v3.697265625h-37.849609375v-3.697265625h16.677734375v-6.97265625h-12.896484375v-3.65625h12.896484375v-4.9140625h4.158203125ZM270.474562499999593,603.413040625000576c.880859375-.16796875,1.8046875-.83984375,2.939453125-1.93359375.923828125-.796875,3.361328125-3.359375,5.62890625-6.341796875h-10.333984375v-3.697265625h35.455078125v3.697265625h-19.912109375c-2.2265625,2.8984375-4.62109375,5.5859375-6.97265625,7.8125l17.642578125-.62890625c-1.5546875-1.38671875-3.150390625-2.7734375-4.662109375-3.94921875l3.150390625-2.142578125c3.78125,2.85546875,8.5703125,6.97265625,10.87890625,9.87109375l-3.486328125,2.4375c-.62890625-.83984375-1.46875-1.849609375-2.478515625-2.8984375-22.263671875.96484375-24.783203125,1.048828125-26.548828125,1.638671875-.208984375-.841796875-.83984375-2.81640625-1.30078125-3.865234375Z"/><path class="uuid-68ae5178-0f5e-490e-b799-25802b3c3d93" d="M347.298781249999593,619.836868750000576v4.537109375h-37.38671875v-4.537109375h37.38671875ZM343.769484374999593,595.178665625000576v4.328125h-30.330078125v-4.328125h30.330078125Z"/><path class="uuid-68ae5178-0f5e-490e-b799-25802b3c3d93" d="M368.546828124999593,595.682571875000576v-1.974609375h-13.484375v-2.8984375h30.91796875v2.8984375h-13.52734375v1.974609375h16.298828125v7.5625h-3.73828125v-4.95703125h-12.560546875v6.63671875h-1.17578125l2.6875,1.302734375-.880859375.671875c3.947265625,1.974609375,10.921875,3.94921875,17.263671875,4.7890625-.796875.755859375-1.84765625,2.267578125-2.3515625,3.19140625-2.8984375-.50390625-5.880859375-1.30078125-8.6953125-2.267578125v1.51171875h-17.474609375v-1.595703125c-2.60546875,1.0078125-5.251953125,1.84765625-7.6875,2.5625-.7578125-.798828125-2.185546875-2.142578125-3.109375-2.7734375,6.888671875-1.51171875,14.408203125-4.158203125,18.9453125-7.392578125h-1.427734375v-6.63671875h-12.51953125v4.95703125h-3.5703125v-7.5625h16.08984375ZM358.548781249999593,598.623978125000576c2.603515625.419921875,6.216796875,1.302734375,8.1484375,1.974609375l-.96484375,2.099609375,1.048828125-.251953125.294921875,2.353515625c-3.5703125,1.0078125-7.099609375,1.97265625-10.123046875,2.814453125l-1.09375-2.857421875c2.478515625-.419921875,5.83984375-1.21875,9.41015625-1.974609375-1.974609375-.712890625-5.29296875-1.595703125-7.8125-2.099609375l1.091796875-2.05859375ZM380.308546874999593,615.805618750000576l.587890625-.2109375,2.521484375,1.595703125c-1.974609375,2.60546875-5.208984375,5.125-8.234375,7.015625l3.4453125,1.51171875-1.72265625,2.814453125c-3.27734375-1.6796875-9.873046875-4.451171875-14.66015625-6.2578125l1.6796875-2.39453125c2.142578125.755859375,4.7890625,1.763671875,7.30859375,2.73046875,1.974609375-.966796875,4.244140625-2.39453125,6.0078125-3.822265625h-20.919921875v-2.982421875h23.986328125ZM376.863234374999593,611.688431250000576c-2.51953125-1.0078125-4.74609375-2.1015625-6.46875-3.109375-1.974609375,1.134765625-4.158203125,2.185546875-6.427734375,3.109375h12.896484375ZM374.847609374999593,602.194290625000576l.419921875.083984375-1.05078125-1.595703125c2.39453125-.37890625,5.96484375-1.513671875,8.0234375-2.185546875l1.59765625,2.142578125c-2.185546875.83984375-5.16796875,1.470703125-7.51953125,1.890625,3.107421875.671875,6.76171875,1.72265625,8.86328125,2.521484375l-.966796875,2.478515625c-2.39453125-1.009765625-6.931640625-2.353515625-10.375-3.193359375l1.0078125-2.142578125Z"/><path class="uuid-68ae5178-0f5e-490e-b799-25802b3c3d93" d="M431.298781249999593,619.836868750000576v4.537109375h-37.38671875v-4.537109375h37.38671875ZM427.769484374999593,595.178665625000576v4.328125h-30.330078125v-4.328125h30.330078125Z"/><path class="uuid-68ae5178-0f5e-490e-b799-25802b3c3d93" d="M473.970656249999593,606.143509375000576v4.369140625h-38.646484375v-4.369140625h38.646484375Z"/><path class="uuid-68ae5178-0f5e-490e-b799-25802b3c3d93" d="M484.253859374999593,615.006790625000576v-11.173828125h12.4765625v-5.880859375h-9.703125c-1.890625,3.150390625-3.990234375,5.96484375-6.17578125,8.107421875-.755859375-.71484375-2.435546875-2.017578125-3.40234375-2.5625,3.90625-3.40234375,7.267578125-8.822265625,9.2421875-14.408203125l4.033203125,1.048828125c-.505859375,1.345703125-1.05078125,2.689453125-1.681640625,3.9921875h24.57421875v3.822265625h-12.8125v5.880859375h11.84765625v3.697265625h-11.84765625v7.4765625h14.955078125v3.865234375h-14.955078125v9.3671875h-4.07421875v-9.3671875h-19.322265625v-3.865234375h6.845703125ZM496.730421874999593,615.006790625000576v-7.4765625h-8.52734375v7.4765625h8.52734375Z"/><path class="uuid-68ae5178-0f5e-490e-b799-25802b3c3d93" d="M541.251906249999593,589.004837500000576c.671875,1.259765625,1.384765625,2.85546875,1.890625,4.19921875h14.365234375v3.697265625h-30.958984375v7.603515625c0,6.888671875-.546875,16.970703125-4.07421875,23.69140625-.798828125-.587890625-2.60546875-1.427734375-3.61328125-1.763671875,3.4453125-6.384765625,3.73828125-15.54296875,3.73828125-21.88671875v-11.341796875h16.046875c-.419921875-1.091796875-.880859375-2.310546875-1.38671875-3.275390625l3.9921875-.923828125ZM551.333937499999593,613.452103125000576l.712890625-.16796875,2.478515625,1.302734375c-1.890625,3.486328125-4.705078125,6.1328125-8.19140625,8.107421875,3.486328125,1.05078125,7.51953125,1.72265625,11.8046875,2.099609375-.83984375.83984375-1.806640625,2.4375-2.310546875,3.4453125-5.251953125-.587890625-9.998046875-1.72265625-14.072265625-3.40234375-4.28515625,1.595703125-9.158203125,2.5625-14.19921875,3.150390625-.29296875-.966796875-1.0078125-2.478515625-1.638671875-3.361328125,4.033203125-.3359375,8.0234375-.96484375,11.59375-1.974609375-2.392578125-1.46875-4.451171875-3.275390625-6.08984375-5.376953125l1.595703125-.62890625h-5.08203125v-3.193359375h23.3984375ZM537.554640624999593,597.952103125000576v3.275390625h9.115234375v-3.275390625h3.90625v3.275390625h6.470703125v3.193359375h-6.470703125v6.8046875h-16.802734375v-6.8046875h-6.30078125v-3.193359375h6.30078125v-3.275390625h3.78125ZM535.496046874999593,616.645462500000576c1.595703125,1.763671875,3.822265625,3.234375,6.427734375,4.41015625,2.6875-1.134765625,4.95703125-2.603515625,6.6796875-4.41015625h-13.107421875ZM537.554640624999593,604.420853125000576v3.73828125h9.115234375v-3.73828125h-9.115234375Z"/><path class="uuid-68ae5178-0f5e-490e-b799-25802b3c3d93" d="M79.222599999999147,135.787100000001374c-4.552699999998367,10.763599999998405-7.259799999999814,22.072199999998702-8.085900000000038,33.712899999998626,1.79490000000078-1.460999999999331,4.080100000001039-2.339899999999034,6.568300000000818-2.339899999999034,2.748099999998885,0,5.244199999999182,1.076199999999517,7.109399999999368,2.818400000000111,3.668000000001484-47.796900000001187,43.611300000000483-85.4375,92.349600000001374-85.4375,3.777399999999034,0,6.837899999998626-3.060600000000704,6.837899999998626-6.837900000000445,0-3.775400000000445-3.060499999999593-6.837900000000445-6.837899999998626-6.837900000000445-14.343700000001263,0-28.267600000001039,2.8125-41.382800000001225,8.359400000001187-12.658199999999852,5.355399999998554-24.025400000000445,13.017499999999927-33.783199999999852,22.775399999998626-9.759799999999814,9.759700000000521-17.421899999999368,21.126900000001115-22.775400000000445,33.787100000001374Z"/><path class="uuid-68ae5178-0f5e-490e-b799-25802b3c3d93" d="M169.593699999999444,269.486300000000483c-47.476599999999962-3.841800000000148-84.835900000000038-43.48240000000078-85.050799999999072-91.898499999999331,0-3.77730000000156-3.060499999999593-6.83980000000156-6.837900000000445-6.83980000000156-3.775400000000445,0-6.837900000000445,3.0625-6.837900000000445,6.83980000000156.054700000000594,14.195399999998699,2.861399999999776,27.976599999999962,8.355499999999665,40.962899999998626,5.353500000001077,12.660200000000259,13.015600000000632,24.027400000000853,22.775400000000445,33.785200000000259,9.757799999999406,9.757800000001225,21.125,17.421900000001187,33.783199999999852,22.775400000000445,10.628899999999703,4.496100000000297,21.787099999999555,7.193300000000818,33.269500000000335,8.056599999999889-1.443299999998999-1.790999999999258-2.3125-4.0625-2.3125-6.535099999999147,0-2.765699999999924,1.091800000000148-5.277400000000853,2.855499999999665-7.146500000000742Z"/><path class="uuid-68ae5178-0f5e-490e-b799-25802b3c3d93" d="M251.265599999998813,243.707000000000335c-1.333999999998923-1.335999999999331-3.083999999998923-2.002000000000407-4.833999999998923-2.002000000000407s-3.5.666000000001077-4.835900000000038,2.002000000000407c-16.671899999999368,16.146500000000742-39.388699999999517,26.087900000000445-64.431699999999182,26.087900000000445-3.775400000000445,0-6.837900000000445,3.0625-6.837900000000445,6.837900000000445,0,3.777299999999741,3.0625,6.837899999998626,6.837900000000445,6.837899999998626,14.345699999998033,0,28.26759999999922-2.8125,41.382799999999406-8.359399999999368,12.203199999999924-5.160200000000259,23.201199999999517-12.474599999999555,32.718799999998737-21.734399999999368,2.671900000001187-2.66990000000078,2.671900000001187-7,0-9.66990000000078Z"/><path class="uuid-68ae5178-0f5e-490e-b799-25802b3c3d93" d="M177.164000000000669,283.470699999999852c-3.775400000000445,0-6.837900000000445-3.060599999998885-6.837900000000445-6.837899999998626,0-3.775400000000445,3.0625-6.837900000000445,6.837900000000445-6.837900000000445,25.042999999999665,0,47.759799999999814-9.941399999999703,64.431699999999182-26.087900000000445,1.335900000000038-1.335999999999331,3.085900000000038-2.002000000000407,4.835900000000038-2.002000000000407s3.5.666000000001077,4.833999999998923,2.002000000000407c2.671900000001187,2.66990000000078,2.671900000001187,7,0,9.66990000000078-9.51759999999922,9.259799999999814-20.515599999998813,16.574199999999109-32.718799999998737,21.734399999999368-13.115200000000186,5.546899999999368-27.037100000001374,8.359399999999368-41.382799999999406,8.359399999999368ZM135.781199999999444,275.111300000000483c-12.658199999999852-5.353499999999258-24.025400000000445-13.01759999999922-33.783199999999852-22.775400000000445-9.759799999999814-9.757799999999406-17.421899999999368-21.125-22.775400000000445-33.785200000000259-5.494099999999889-12.986299999998664-8.300799999999072-26.767499999999927-8.355499999999665-40.962899999998626,0-3.77730000000156,3.0625-6.83980000000156,6.837900000000445-6.83980000000156,3.777400000000853,0,6.837900000000445,3.0625,6.837900000000445,6.83980000000156.214899999999034,48.416099999998551,37.574199999999109,88.056699999999182,85.050799999999072,91.898499999999331-1.763699999999517,1.869099999999889-2.855499999999665,4.380800000000818-2.855499999999665,7.146500000000742,0,2.472599999999147.869200000001001,4.744099999999889,2.3125,6.535099999999147-11.48240000000078-.863299999999072-22.640600000000632-3.560499999999593-33.269500000000335-8.056599999999889ZM177.164000000000669,70.865200000000186c3.777399999999034,0,6.837899999998626,3.0625,6.837899999998626,6.837900000000445,0,3.777299999999741-3.060499999999593,6.837900000000445-6.837899999998626,6.837900000000445-48.738300000000891,0-88.681599999999889,37.640599999998813-92.349600000001374,85.4375-1.865200000000186-1.742200000000594-4.361300000000483-2.818400000000111-7.109399999999368-2.818400000000111-2.488199999999779,0-4.773400000000038.878899999999703-6.568300000000818,2.339899999999034.826100000000224-11.640699999999924,3.533200000001671-22.949300000000221,8.085900000000038-33.712899999998626,5.353500000001077-12.660200000000259,13.015600000000632-24.027400000000853,22.775400000000445-33.787100000001374,9.757799999999406-9.757899999998699,21.125-17.420000000000073,33.783199999999852-22.775399999998626,13.115200000000186-5.546900000001187,27.039099999999962-8.359400000001187,41.382800000001225-8.359400000001187Z"/><path class="uuid-68ae5178-0f5e-490e-b799-25802b3c3d93" d="M233.45889999999963,120.875c-15.035099999999147-15.03519999999844-35.029300000000148-23.316499999998996-56.294899999998961-23.316499999998996-21.263700000001336,0-41.255800000000818,8.281300000000556-56.291000000001077,23.316499999998996-15.037099999999555,15.037100000001374-23.318400000000111,35.029300000000148-23.318400000000111,56.292900000000373,0,21.265600000000632,8.281300000000556,41.255900000000111,23.318400000000111,56.292999999999665,15.035200000000259,15.037099999999555,35.027299999999741,23.318400000000111,56.291000000001077,23.318400000000111,21.265599999998813,0,41.259799999999814-8.281300000000556,56.294899999998961-23.318400000000111,15.035200000000259-15.037099999999555,23.316399999999703-35.027399999999034,23.316399999999703-56.292999999999665,0-21.263600000000224-8.281199999999444-41.255799999998999-23.316399999999703-56.292900000000373Z"/><path class="uuid-75a94023-f28a-4365-92c5-e0f82d5ec5b9" d="M121.058499999999185,202.914000000000669v-51.490200000000186h11.168000000001484v3.806599999999889h-6.472600000000966v43.877000000000407h6.472600000000966v3.806599999999889h-11.168000000001484Z"/><path class="uuid-75a94023-f28a-4365-92c5-e0f82d5ec5b9" d="M233.27139999999963,151.423800000000483v51.490200000000186h-11.165999999999258v-3.806599999999889h6.470699999999852v-43.877000000000407h-6.470699999999852v-3.806599999999889h11.165999999999258Z"/><path class="uuid-75a94023-f28a-4365-92c5-e0f82d5ec5b9" d="M146.994099999999889,187.628899999999703c0,1.029300000000148.01759999999922,2.242100000001301.048800000000483,3.634700000000521.031299999998737,1.394599999999627.074199999999109,2.8125.128899999999703,4.25.052799999999479,1.435600000000704.117200000000594,2.810600000000704.193400000000111,4.119200000001001.074199999999109,1.308599999998478.165999999999258,2.402299999999741.273400000000038,3.281199999999444h-6.597600000000966v-36.365200000000186c0-3.132799999999406-.052799999999479-5.968800000000556-.160200000000259-8.511699999999109-.107399999998961-2.543000000001484-.26759999999922-4.748100000000704-.484399999999368-6.613300000000891h6.597700000000259v36.20509999999922Z"/><path class="uuid-75a94023-f28a-4365-92c5-e0f82d5ec5b9" d="M175.798800000000483,170.087800000001153v4.216800000000148h-6.050800000000891v24.394599999999627h6.050800000000891v4.214799999999741h-18.021500000000742v-4.214799999999741h5.953100000000632v-24.394599999999627h-5.953100000000632v-4.216800000000148h18.021500000000742Z"/><path class="uuid-75a94023-f28a-4365-92c5-e0f82d5ec5b9" d="M189.314399999999296,170.087800000001153c.128899999999703.343799999998737.257799999999406.789099999999962.386700000000928,1.337899999998626.130900000000111.546900000001187.246099999998478,1.119200000001001.353499999999258,1.720700000001671.107500000000073.599599999999555.203199999999924,1.191399999999703.29110000000037,1.769599999999627l.255800000000818,1.447199999998702c2.060599999998885-2.445299999999406,4.128899999999703-4.20889999999963,6.210999999999331-5.292899999998554,2.082000000000335-1.084000000000742,4.25-1.625,6.501899999999296-1.625,1.716800000000148,0,3.234400000001187.283199999999852,4.552700000000186.85149999999885,1.320400000000518.570300000001225,2.431700000001001,1.470699999999852,3.332099999999627,2.703199999999924.900400000000445,1.234300000000076,1.580100000001039,2.833900000001449,2.042900000000373,4.796800000000076.462900000000445,1.962900000000445.691399999999703,4.328199999999924.691399999999703,7.097700000000259v14.478499999999258c0,3.627000000000407-.316399999999703,6.636700000000928-.949199999999109,9.02730000000156-.630800000000818,2.394599999999627-1.517499999999927,4.302799999999479-2.654300000000148,5.730499999999665-1.136700000000928,1.425799999999072-2.505800000000818,2.435599999998885-4.103499999999258,3.023499999999331-1.597600000000966.591700000000856-3.373000000001412.886700000000928-5.326200000001336.886700000000928-.964799999999741,0-2-.156300000000556-3.105399999998554-.466800000000148-1.105500000001484-.3125-2.10740000000078-.746100000000297-3.009800000001633-1.304700000000594l2.091800000000148-4.826199999999517c.494099999999889.365200000000186,1.154300000000148.669899999998961,1.980500000001484.917999999999665.826099999998405.246100000000297,1.667899999998554.369099999999889,2.525399999998626.369099999999889,1.031200000001263,0,1.953100000000632-.165999999999258,2.769500000000335-.497999999999593.814500000000407-.334000000000742,1.505900000000111-.917999999999665,2.074200000000928-1.753899999999703.568400000000111-.837900000000445,1.003899999999703-1.984400000001187,1.304699999998775-3.443400000000111.298800000000483-1.460900000000038.449200000000928-3.316399999999703.449200000000928-5.568300000000818v-14.160200000000259c0-2.574199999999109-.134700000000521-4.662099999999555-.40230000000156-6.259799999999814-.26759999999922-1.597599999999147-.671899999999368-2.843699999999444-1.207099999999627-3.732399999998961-.535099999999147-.890600000000632-1.206999999998516-1.486300000000483-2.011699999999109-1.787099999999555-.804700000000594-.298800000000483-1.742200000000594-.451200000001336-2.816399999999703-.451200000001336-1.158200000001671,0-2.287100000001374.275400000000445-3.392600000001039.822299999999814-1.105399999998554.546900000001187-2.120999999999185,1.253900000001522-3.042899999998554,2.123000000001412-.923900000001595.869199999999182-1.738300000000891,1.849599999999555-2.445300000001225,2.945399999998699-.707099999999627,1.093699999999444-1.234399999999368,2.1875-1.578199999999924,3.281199999999444v18.666000000001077h-5.953100000000632v-19.791000000001077c0-3.175799999999072-.183600000000297-5.863299999999072-.546899999999368-8.0625-.365200000000186-2.199199999999109-.720699999999852-3.857399999998961-1.0625-4.97269999999844h5.792999999999665Z"/><path class="uuid-68ae5178-0f5e-490e-b799-25802b3c3d93" d="M129.76510000000053,447.272800000000643h-32.207500000000437v-5.346600000000763h32.207500000000437v5.346600000000763ZM125.573700000000827,504.203000000001339h-5.518100000001141v-5.860300000000279h-12.874499999999898v5.860300000000279h-5.603000000000975v-28.914500000000771h23.995600000002014v28.914500000000771ZM125.316899999999805,458.308500000001004l-23.653400000001056.084999999999127v-5.345799999999144h23.653400000001056v5.260800000000017ZM125.402299999999741,469.514500000001135h-23.738800000000992v-5.346600000000763h23.738800000000992v5.346600000000763ZM124.332999999998719,436.408600000000661l-21.728499999999258.085399999999936v-5.346199999999953h21.728499999999258v5.260800000000017ZM120.055599999999686,493.08140000000094v-12.531700000001365h-12.959899999999834v12.531700000001365h12.959899999999834ZM175.317399999999907,469.600500000000466l-46.236899999999878.084899999999834v-5.260700000000725h11.462899999998626l2.481000000001586-13.216799999998329h-10.692900000000009v-5.260700000000725h11.548800000000483l1.83889999999883-9.795400000000882h-16.381799999999203v-5.346199999999953h42.473099999999249v5.261700000000928h-20.317399999999907l-1.753399999999601,9.794400000000678h17.622600000000602l-1.839900000000853,18.477100000000064h9.795000000000073v5.261699999999109ZM167.875,504.373900000000503h-5.51759999999922v-5.774400000000242h-21.642600000001039v5.774400000000242h-5.603499999999258v-28.998999999999796h32.763699999999517v28.998999999999796ZM162.35740000000078,493.338300000001254v-12.702699999999822h-21.728000000000975v12.702699999999822h21.728000000000975ZM161.501899999999296,451.12250000000131h-12.703099999998813l-2.480500000001484,13.302199999998265h13.857900000000882l1.325699999999415-13.302199999998265Z"/><path class="uuid-68ae5178-0f5e-490e-b799-25802b3c3d93" d="M271.759699999998702,447.272800000000643h-77.7591999999986v-5.346600000000763h77.7591999999986v5.346600000000763ZM260.297300000000178,458.222600000000966h-55.604499999999462v-5.17489999999998h55.604499999999462v5.17489999999998ZM260.297300000000178,469.343600000000151h-55.604499999999462v-5.175699999999779h55.604499999999462v5.175699999999779ZM258.287099999999555,504.373900000000503h-5.51759999999922v-6.031199999999444h-40.1208000000006v6.031199999999444h-5.517400000000634v-29.085399999999936h51.155800000000454v29.085399999999936ZM258.201600000000326,435.852899999999863l-50.642499999999927.128000000000611v-5.175300000000789h50.642499999999927v5.047300000000178ZM252.769500000000335,493.08140000000094v-12.531700000001365h-40.1208000000006v12.531700000001365h40.1208000000006Z"/><path class="uuid-68ae5178-0f5e-490e-b799-25802b3c3d93" d="M368.204099999999016,488.890500000001339h-34.432399999999689v5.945299999999406c0,6.358399999999165-3.378699999999299,9.538099999999758-10.137899999999718,9.538099999999758h-5.688500000000204l-2.095699999999852-5.260700000000725h7.955500000000029c2.794499999999971,0,4.192399999999907-1.284199999998236,4.192399999999907-3.849599999999555v-6.373099999998885h-37.554699999998775v-5.346700000000055h37.554699999998775v-3.67870000000039c5.95850000000064-2.224100000001272,10.221700000000055-4.304700000000594,12.78859999999986-6.244099999999889h-32.764400000000023v-4.918999999999869h42.261000000000422v4.662199999998847c-4.44970000000103,3.022399999999834-9.952699999999822,6.11620000000039-16.511000000000422,9.281200000001263v.898400000000038h34.432399999999689v5.346700000000055ZM364.610800000000381,473.021400000001449h-5.133800000001429v-8.853500000001077h-59.751399999999194v9.367200000000594h-5.60399999999936v-14.371100000000297h7.356399999998757v-26.091800000000148c4.048300000000381-.398499999999331,8.483599999999569-2.324300000000221,13.303200000000288-5.773999999999432l2.823300000000017,3.935099999998783c-2.596700000000055,2.395500000000538-6.132400000000416,4.206500000000233-10.608399999999165,5.432099999999991v3.593300000000454h10.949199999999109v4.448200000000725h-10.949199999999109v4.662099999999555h10.949199999999109v4.361899999999878h-10.949199999999109v5.433100000000195h45.467000000000553v-5.433100000000195h-10.436800000001313v-4.276899999998932h10.436800000001313v-5.003900000001522h-10.351300000002084v-4.36279999999897h10.351300000002084v-4.662600000001476h-12.104700000001685v-5.17529999999897h17.536600000001272v28.828600000000733h6.715799999999945v13.943400000000111ZM340.358399999999165,439.830500000000029l-2.99369999999908,3.678200000000288c-1.626399999999194-1.567399999999907-3.83640000000014-3.264699999999721-6.629899999999907-5.089899999999034-2.309500000001208,1.939499999998588-4.90480000000025,3.721700000000055-7.785100000000966,5.346700000000055l-3.507299999999304-3.080100000001039c2.766100000000733-1.139600000000428,5.188899999999194-2.480400000000373,7.271899999999732-4.020000000000437-3.479999999999563-1.311499999999796-6.288099999999758-2.224099999999453-8.427200000000084-2.737299999998868l2.182600000000093-3.935499999999593c3.164099999999962.798299999998562,6.343699999999444,1.825699999999415,9.537599999999657,3.079599999999118,2.024900000000343-1.909200000000055,3.721199999999953-3.863299999999072,5.090299999999843-5.859399999999368l3.592800000000352,2.865200000000186c-1.141599999999016,1.768599999999424-2.623999999999796,3.494199999999182-4.448199999998906,5.175799999999072,2.109300000000076,1.197299999999814,4.148399999998219,2.723100000001068,6.116199999998571,4.576699999999619ZM340.871100000000297,455.399300000000949l-3.591800000000148,2.823300000000017c-2.309600000000501-1.768100000001141-4.706100000001243-3.236399999999776-7.186100000000806-4.405300000000352-1.539499999998952,1.168900000000576-4.276799999999639,2.637199999999211-8.211900000000242,4.405300000000352l-3.250999999998385-2.566500000000815c3.677799999999479-1.738699999999881,6.315499999998792-3.250899999999092,7.913399999999456-4.533599999998842-1.597900000000664-.997600000000602-4.020800000000236-2.109900000001289-7.272000000000844-3.337400000000343l3.207800000000134-2.693400000000111c2.936499999999796,1.055699999998978,5.446300000001429,2.152299999999741,7.527799999999843,3.292999999999665.797400000001289-.45509999999922,2.409200000000055-1.824300000000221,4.833000000000538-4.105999999999767l3.935099999998783,2.010299999999916c-1.454099999999016,1.882299999999304-3.078199999999924,3.436499999999796-4.87579999999798,4.663000000000466,2.36699999999837,1.083099999999831,4.690199999999095,2.565499999998792,6.971499999999651,4.447299999999814Z"/><path class="uuid-68ae5178-0f5e-490e-b799-25802b3c3d93" d="M464.560499999999593,488.890500000001339h-34.431899999999587v5.945299999999406c0,6.358399999999165-3.378600000000006,9.538099999999758-10.136900000001333,9.538099999999758h-5.688499999998385l-2.095699999999852-5.260700000000725h7.955599999999322c2.793400000000474,0,4.191399999999703-1.284199999998236,4.191399999999703-3.849599999999555v-6.373099999998885h-37.553699999998571v-5.346700000000055h37.553699999998571v-3.67870000000039c5.959199999999328-2.224100000001272,10.221600000000763-4.304700000000594,12.789500000000771-6.244099999999889h-32.764400000000023v-4.918999999999869h42.260000000000218v4.662199999998847c-4.449000000000524,3.022399999999834-9.953100000000632,6.11620000000039-16.511000000000422,9.281200000001263v.898400000000038h34.431899999999587v5.346700000000055ZM460.968699999999444,473.021400000001449h-5.134700000000521v-8.853500000001077h-59.751499999998487v9.367200000000594h-5.603000000000975v-14.371100000000297h7.356200000000172v-26.091800000000148c4.04950000000099-.398499999999331,8.483099999999467-2.324300000000221,13.302499999999782-5.773999999999432l2.822500000000218,3.935099999998783c-2.59349999999904,2.395500000000538-6.130699999999706,4.206500000000233-10.607700000000477,5.432099999999991v3.593300000000454h10.950200000001132v4.448200000000725h-10.950200000001132v4.662099999999555h10.950200000001132v4.361899999999878h-10.950200000001132v5.433100000000195h45.466800000000148v-5.433100000000195h-10.435599999998885v-4.276899999998932h10.435599999998885v-5.003900000001522h-10.35109999999986v-4.36279999999897h10.35109999999986v-4.662600000001476h-12.104499999999462v-5.17529999999897h17.536400000000867v28.828600000000733h6.716999999998734v13.943400000000111ZM438.238699999999881,454.439800000000105l-3.896899999999732,3.563000000000102c-1.778800000000047-2.672800000000279-4.324300000000221-6.018500000000131-6.785700000000361-8.096199999999953-3.826100000000224,4.263199999999415-6.973100000001068,6.97609999999986-9.432099999999991,8.136800000000221l-3.856499999999869-3.238299999999072c2.898999999999432-1.378900000001522,6.041999999999462-3.954600000000937,9.433600000000297-7.73240000000078-3.855900000000474-2.401900000000751-6.603500000001077-3.887300000000323-8.243599999999788-4.454600000000937l3.363799999999173-3.47899999999936c1.367099999999482.540000000000873,3.934999999999491,1.941899999999805,7.710900000000038,4.210399999999936,1.122100000000501-1.835900000000038,1.995100000000093-3.846700000000055,2.623999999999796-6.033199999999852h-12.878899999999703v-5.059600000000501h6.90480000000025v-5.209899999999834h4.431200000000899v5.209899999999834h8.194799999999304v5.059600000000501h-1.622100000000501c-.910600000001068,3.348599999999351-2.135199999998804,6.249499999999898-3.675300000000789,8.705100000001039,2.980999999999767,2.265599999998813,5.841800000000148,5.719699999999648,7.728000000000975,8.418399999998655Z"/><path class="uuid-68ae5178-0f5e-490e-b799-25802b3c3d93" d="M562.329099999999016,447.102399999999761l-3.079099999999016,4.447800000001735c-9.724599999999555-2.395000000000437-17.336900000000242-5.16110000000117-22.839900000000853-8.297400000001289v3.849599999999555h-28.914999999999054v-4.23529999999846c-8.326399999999921,4.306599999999889-15.796900000001187,7.115199999998367-22.413099999999758,8.426299999999173l-2.822300000001633-4.490799999999581c16.024400000002061-3.906199999999444,29.368900000001304-10.436499999999796,40.034700000000157-19.589799999999741l5.260700000000725,1.753399999999601c-.570799999999508.712900000000445-1.069799999999304,1.212400000000343-1.497499999999491,1.496600000000399,9.466800000000148,7.870600000000195,21.557600000000093,13.416999999999462,36.271499999998923,16.639599999998609ZM553.21769999999924,471.610200000000987h-62.10439999999835v-20.059999999999491h62.10439999999835v20.059999999999491ZM548.128600000000006,504.458900000001449h-5.26050000000032v-3.421900000001187h-41.317800000000716v3.421900000001187h-5.260800000000017v-28.35740000000078h51.839100000001054v28.35740000000078ZM519.599599999999555,466.991100000001097v-10.693400000000111h-23.225599999999758v10.693400000000111h23.225599999999758ZM542.868099999999686,486.324099999999817v-5.51759999999922h-41.317800000000716v5.51759999999922h41.317800000000716ZM542.868099999999686,496.418800000001283v-5.603500000001077h-41.317800000000716v5.603500000001077h41.317800000000716ZM513.911099999999351,462.756199999999808l-4.405300000000352,3.079600000000937c-2.651299999999537-2.679200000000492-5.246999999999389-4.661599999999453-7.785099999999147-5.945299999999406l4.44800000000032-2.56590000000142c3.022699999999531,1.28269999999975,5.602999999999156,3.094200000001365,7.742399999999179,5.431599999999889ZM534.656199999999444,442.354400000000169c-4.134700000000521-2.166999999999462-8.142099999999118-5.089899999999034-12.019500000000335-8.768599999999424-4.135299999999916,3.421899999999368-8.768099999999322,6.344799999998941-13.900399999998626,8.768599999999424h25.919899999998961ZM547.95850000000064,466.991100000001097v-10.693400000000111h-23.097200000000157v10.693400000000111h23.097200000000157ZM542.782199999999648,458.821200000000317c-1.682600000000093,2.680700000000797-4.220699999999852,4.962900000000445-7.613499999999476,6.843699999999444l-4.704900000000634-2.351999999998952c3.736399999999776-2.10989999999947,6.301799999999275-4.22019999999975,7.698300000000017-6.331099999999424l4.620100000000093,1.839399999998932Z"/><path class="uuid-68ae5178-0f5e-490e-b799-25802b3c3d93" d="M133.205046062988913,389.880300000000716l-1.546899999999368,2.056099999999788c-5.961900000000242-1.756799999999203-10.80029999999897-4.122999999999593-14.51220000000103-7.098599999999351-3.199699999999211,2.612299999998868-8.223099999999249,5.025399999998626-15.076599999998507,7.239199999999983l-1.721199999999953-2.090799999999945c6.629899999999907-1.838800000001356,11.643500000000131-4.070300000001225,15.040499999999156-6.694300000001022-3.408199999999852-3.221700000000055-5.699699999999211-7.139199999999619-6.870100000000093-11.754899999999907-.632299999999304,1.628399999999601-1.500500000000102,3.174300000000585-2.60109999999986,4.638699999999517l-1.860800000000381-1.704099999999016c1.475600000001577-1.757300000001123,2.663300000000163-3.684600000000501,3.565400000001318-5.781300000000556h-6.044400000000678v-2.160599999999249h14.092700000001059v-6.009299999999712h2.266199999998207v5.973599999999351h14.336900000000242v2.161700000000565h-6.009799999999814c-1.053200000000288,6.114700000000084-3.477499999999054,10.980899999998655-7.27390000000014,14.600499999998647,3.455500000000029,2.624100000000908,8.19380000000092,4.832100000001446,14.215299999999843,6.624100000000908ZM123.90964606298985,368.655700000001161h-13.598100000001068c.935500000001412,5.423300000000381,3.225500000000466,9.786599999999453,6.868600000001607,13.089299999999639,3.560999999999694-3.314400000001115,5.804199999998673-7.677700000000186,6.729499999999462-13.089299999999639Z"/><path class="uuid-68ae5178-0f5e-490e-b799-25802b3c3d93" d="M217.369866062988876,385.78650000000016h-14.145300000000134v2.442900000000009c0,2.611300000000483-1.387199999999211,3.917999999999665-4.163799999998446,3.917999999999665h-2.336900000000242l-.860099999999875-2.161199999998644h3.267099999999118c1.148400000000038,0,1.722600000000966-.527299999999741,1.722600000000966-1.581500000000233v-2.618200000000797h-15.426199999999881v-2.19629999999961h15.426199999999881v-1.511199999999008c2.447799999999916-.913100000001577,4.199299999998402-1.768600000001243,5.25249999999869-2.564900000001217h-13.458499999998821v-2.02100000000064h17.359399999999368v1.915000000000873c-1.826699999999619,1.242200000000594-4.088400000000547,2.513199999999415-6.78230000000076,3.813000000000102v.369099999999889h14.145300000000134v2.19629999999961ZM215.894466062989522,379.268500000000131h-2.109300000000076v-3.637699999999313h-24.546399999999267v3.847599999999147h-2.301800000001094v-5.902299999999741h3.022500000000946v-10.718800000000556c1.663099999999758-.16359999999986,3.48529999999846-.954599999999118,5.465299999999843-2.372099999998682l1.158699999999953,1.616700000000492c-1.064899999999398.983899999999267-2.519000000000233,1.727599999998347-4.358599999999569,2.231499999999869v1.475599999999758h4.498999999999796v1.827599999998711h-4.498999999999796v1.915100000000166h4.498999999999796v1.791900000000169h-4.498999999999796v2.232500000000073h18.678899999998976v-2.232500000000073h-4.288500000000568v-1.756799999999203h4.288500000000568v-2.055700000000797h-4.251899999999296v-1.792400000000271h4.251899999999296v-1.914600000000064h-4.972599999999147v-2.125999999998385h7.203099999998813v11.841799999998329h2.760200000000623v5.72860000000037ZM205.931166062990087,365.633700000000317l-1.230999999999767,1.510200000000623c-.666500000001179-.644000000000233-1.57470000000103-1.340299999999843-2.722200000000157-2.090299999999843-.949200000000928.796899999999368-2.015600000000632,1.529300000000148-3.198200000000725,2.19629999999961l-1.440399999999499-1.264699999999721c1.13550000000032-.468699999999444,2.131299999999101-1.019000000000233,2.986800000000585-1.651799999999639-1.429700000000594-.538600000001679-2.584000000000742-.913600000001679-3.46140000000014-1.124499999999898l.896899999999732-1.616700000000492c1.29910000000018.328599999998914,2.605499999999665.75,3.917499999999563,1.265099999998711.832000000000335-.784199999998236,1.528299999999945-1.586899999998423,2.090099999999438-2.407199999999648l1.476599999999962,1.177700000000186c-.468999999999141.725599999999758-1.07839999999851,1.434600000000501-1.826399999999921,2.126000000000204.865700000000288.49120000000039,1.703100000000632,1.118700000000899,2.511700000000928,1.879899999999907ZM206.141566062990023,372.029200000000856l-1.475599999999758,1.159700000000157c-.948200000000725-.72609999999986-1.933100000000195-1.329600000000937-2.952100000000428-1.810100000000602-.633100000000923.480499999999665-1.757300000001123,1.084000000000742-3.373600000000806,1.810100000000602l-1.335900000000038-1.054700000000594c1.51220000000103-.714400000000751,2.595500000001266-1.334500000000844,3.251000000000204-1.862300000000687-.655499999998938-.41019999999844-1.651899999998932-.866199999998571-2.986799999998766-1.370100000000093l1.317799999998897-1.107499999998254c1.206599999999526.433599999998478,2.237300000000687.885299999999916,3.092800000000352,1.353099999998449.328600000000733-.1875.989799999999377-.749099999999089,1.984599999999773-1.686599999999089l1.616500000000087.826199999999517c-.597400000000562.772500000000946-1.264400000000023,1.41110000000117-2.001500000000306,1.915000000000873.970699999999852.444400000000314,1.924800000000687,1.053799999999683,2.862800000000789,1.827199999999721Z"/><path class="uuid-68ae5178-0f5e-490e-b799-25802b3c3d93" d="M276.056886062990088,372.468200000001161c2.366699999998673,2.659099999998944,3.550799999999072,5.253899999999703,3.550799999999072,7.783699999999953,0,1.229900000000271-.319299999999203,2.207999999998719-.958499999998821,2.933999999999287-.63720000000103.727100000000064-1.530700000001161,1.089900000000853-2.679200000000492,1.089900000000853-.632299999999304,0-1.394500000000335-.076700000001438-2.284100000000763-.228100000000268l-.649899999998524-2.337400000000343c1.253899999999703.316899999999805,2.15519999999924.474700000000666,2.705500000000029.474700000000666.456099999999424,0,.872599999998783-.176300000000992,1.248099999998885-.526900000000751.375-.351599999999962.5625-.820299999999406.5625-1.406199999999444,0-.878000000000611-.322299999999814-2.002500000000509-.966599999999744-3.373600000000806-.644800000000032-1.370100000000093-1.61160000000018-2.676299999999173-2.899600000000646-3.917499999999563l3.426699999999983-8.80370000000039h-5.217999999998938v27.990299999999479h-2.302500000001601v-30.221199999999953h9.856400000000576v2.230900000000474l-3.391599999999016,8.311100000000806ZM300.287886062989855,385.699099999999817c-.305200000000696,1.897500000000946-.714799999999741,3.274400000000242-1.230999999999767,4.127900000001318-.514600000000428.855499999999665-1.353000000000975,1.283699999999953-2.511700000000928,1.283699999999953h-2.740700000000288c-1.828099999998813,0-2.740999999998166-.960900000000038-2.740999999998166-2.88130000000092v-9.294899999998961h-3.708200000000943c-.069800000001123,3.771499999998923-.805200000000696,6.597599999999147-2.204600000000937,8.477499999999054-1.400099999998929,1.879899999999907-3.99659999999858,3.458000000000538-7.792999999999665,4.735399999999572l-1.475599999999758-2.020499999998719c3.525400000000445-1.042000000001281,5.944900000000416-2.390199999999822,7.256900000000314-4.042000000001281,1.311999999999898-1.65139999999883,1.973099999999249-4.022999999999229,1.985300000000279-7.115299999999479h-4.814399999999296v-2.302200000000084h18.819299999999203v2.267100000000937h-5.870600000000195v8.75c0,.292400000000271.093999999999141.565399999999499.281699999999546.816899999999805.187299999999595.252399999999398.410200000000259.377399999999398.667999999999665.377399999999398h2.231700000000274c.456299999999828,0,.8054000000011-.374499999999898,1.045700000000579-1.124499999999898.238699999999881-.748999999999796.441399999999703-1.721199999999953.605900000000474-2.91649999999936l2.19629999999961.861299999998664ZM298.266886062989215,369.76260000000002l-2.230899999998655.035100000000966v-3.092700000001059h-13.248600000000806v3.092700000001059h-2.266799999999421v-5.324200000000928h7.713099999999031v-3.988299999999072h2.302700000000186v3.953700000000026h7.730499999999665v5.323699999999008ZM295.315686062989698,373.153200000000652h-11.878399999999601v-2.301299999999173h11.878399999999601v2.301299999999173Z"/><path class="uuid-68ae5178-0f5e-490e-b799-25802b3c3d93" d="M384.454706062990226,385.78650000000016h-14.145500000000538v2.442900000000009c0,2.611300000000483-1.388699999999517,3.917999999999665-4.16359999999986,3.917999999999665h-2.336900000000242l-.86160000000018-2.161199999998644h3.268299999999726c1.14850000000115,0,1.722700000000259-.527299999999741,1.722700000000259-1.581500000000233v-2.618200000000797h-15.427999999999884v-2.19629999999961h15.427999999999884v-1.511199999999008c2.447700000000623-.913100000001577,4.199199999999109-1.768600000001243,5.252899999999499-2.564900000001217h-13.458999999998923v-2.02100000000064h17.359199999998964v1.915000000000873c-1.826399999999921,1.242200000000594-4.088199999998324,2.513199999999415-6.781999999999243,3.813000000000102v.369099999999889h14.145500000000538v2.19629999999961ZM382.977606062990162,379.268500000000131h-2.107900000000882v-3.637699999999313h-24.545399999999063v3.847599999999147h-2.302700000000186v-5.902299999999741h3.023400000000038v-10.718800000000556c1.661599999999453-.16359999999986,3.483899999999267-.954599999999118,5.462900000000445-2.372099999998682l1.16019999999844,1.616700000000492c-1.065899999999601.983899999999267-2.518099999999322,1.727599999998347-4.356999999999971,2.231499999999869v1.475599999999758h4.497600000000602v1.827599999998711h-4.497600000000602v1.915100000000166h4.497600000000602v1.791900000000169h-4.497600000000602v2.232500000000073h18.676800000001094v-2.232500000000073h-4.287100000001374v-1.756799999999203h4.287100000001374v-2.055700000000797h-4.25170000000071v-1.792400000000271h4.25170000000071v-1.914600000000064h-4.972200000000157v-2.125999999998385h7.203199999999924v11.841799999998329h2.758700000000317v5.72860000000037ZM373.015706062989921,365.633700000000317l-1.230900000000474,1.510200000000623c-.667999999999665-.644000000000233-1.575199999999313-1.340299999999843-2.723700000000463-2.090299999999843-.948199999998906.796899999999368-2.014100000000326,1.529300000000148-3.197000000000116,2.19629999999961l-1.441100000000006-1.264699999999721c1.13720000000103-.468699999999444,2.133300000001327-1.019000000000233,2.987800000000789-1.651799999999639-1.429700000000594-.538600000001679-2.583099999999831-.913600000001679-3.461499999999432-1.124499999999898l.895499999998719-1.616700000000492c1.300800000000891.328599999998914,2.606999999999971.75,3.918000000001484,1.265099999998711.831500000000233-.784199999998236,1.529299999998329-1.586899999998423,2.09230000000025-2.407199999999648l1.475599999997939,1.177700000000186c-.469499999999243.725599999999758-1.079099999999016,1.434600000000501-1.828199999999924,2.126000000000204.867200000000594.49120000000039,1.704600000000937,1.118700000000899,2.513200000001234,1.879899999999907ZM373.226206062989149,372.029200000000856l-1.475599999999758,1.159700000000157c-.949499999998807-.72609999999986-1.933100000000195-1.329600000000937-2.951399999999921-1.810100000000602-.633599999999205.480499999999665-1.756599999998798,1.084000000000742-3.374299999999494,1.810100000000602l-1.334899999999834-1.054700000000594c1.511199999999008-.714400000000751,2.594199999999546-1.334500000000844,3.250899999999092-1.862300000000687-.656699999999546-.41019999999844-1.652799999999843-.866199999998571-2.98779999999897-1.370100000000093l1.317900000000009-1.107499999998254c1.206499999998414.433599999998478,2.237299999998868.885299999999916,3.091800000000148,1.353099999998449.328099999998813-.1875.989299999999275-.749099999999089,1.985799999998562-1.686599999999089l1.616300000001502.826199999999517c-.597200000000157.772500000000946-1.265200000001641,1.41110000000117-2.003000000000611,1.915000000000873.972200000000157.444400000000314,1.927799999999479,1.053799999999683,2.864299999999275,1.827199999999721Z"/><path class="uuid-68ae5178-0f5e-490e-b799-25802b3c3d93" d="M468.847326062988941,390.390500000001339h-31.976999999998952v-2.266600000000835h14.89890000000014v-8.24120000000039h-10.735399999999572v-2.266599999999016h10.735399999999572v-7.168400000000474h-7.959500000000844c-.960399999999936,2.494599999999991-2.565399999999499,4.796299999999974-4.814399999999296,6.904699999999139l-2.318400000000111-1.211899999998423c3.840799999999945-3.548800000000483,5.97899999999936-7.895500000000538,6.412599999999657-13.037100000001374l2.372100000000501.685100000000602c-.093800000000556,1.194799999999304-.369200000001001,2.670899999999165-.826699999999619,4.428200000000288h7.099599999999555v-7.69629999999961h2.371399999999994v7.660699999998542h12.404499999998734v2.266600000000835h-12.404499999998734v7.133700000000317h10.577799999999115v2.266200000000026h-10.577799999999115v8.240700000000288h14.741399999998976v2.302200000000084Z"/><path class="uuid-68ae5178-0f5e-490e-b799-25802b3c3d93" d="M553.960646062989326,368.6200000000008l-1.264400000000023,1.827699999999822c-3.993899999999485-.983899999999267-7.122299999999086-2.119699999999284-9.383099999999104-3.408299999999144v1.580599999999322h-11.877900000001318v-1.739199999999983c-3.419899999998961,1.769000000000233-6.489299999999275,2.922800000000279-9.206099999999424,3.46140000000014l-1.159599999999045-1.84519999999975c6.582999999998719-1.604500000001281,12.064399999999296-4.287100000001374,16.445799999999508-8.046900000001187l2.160599999999249.720699999999852c-.23489999999947.293000000001484-.439399999999296.498000000001412-.614299999999275.614300000001094,3.888199999999415,3.233399999999165,8.855999999999767,5.511699999999109,14.898999999999432,6.834899999999834ZM550.218946062988834,378.688400000000911h-25.511699999999109v-8.240700000000288h25.511699999999109v8.240700000000288ZM548.128146062990709,392.181500000000597h-2.162200000000666v-1.40519999999924h-16.973100000001068v1.40519999999924h-2.160599999999249v-11.648400000000038h21.295900000000984v11.648400000000038ZM536.407846062989847,376.790899999999965v-4.393099999999322h-9.540000000000873v4.393099999999322h9.540000000000873ZM545.965946062990042,384.732299999999668v-2.266599999999016h-16.973100000001068v2.266599999999016h16.973100000001068ZM545.965946062990042,388.87880000000041v-2.301799999999275h-16.973100000001068v2.301799999999275h16.973100000001068ZM534.070946062989606,375.051699999999983l-1.809800000000905,1.264600000000428c-1.088599999999133-1.100599999999758-2.154999999998836-1.914999999999054-3.197000000000116-2.442399999999907l1.826600000000326-1.05370000000039c1.242200000000594.526400000000649,2.301300000000992,1.270500000000538,3.180200000000696,2.231499999999869ZM542.592246062989943,366.670300000001589c-1.69800000000032-.889600000000428-3.343100000000049-2.090800000001764-4.936299999999392-3.602500000000873-1.700200000001132,1.405699999999342-3.602600000001985,2.606899999998859-5.710700000001452,3.602500000000873h10.647000000000844ZM548.057346062989382,376.790899999999965v-4.393099999999322h-9.48739999999998v4.393099999999322h9.48739999999998ZM545.93184606298928,373.43500000000131c-.691899999999805,1.100999999998749-1.734699999999066,2.037599999999657-3.128500000000713,2.810999999999694l-1.932099999998172-.965799999999945c1.533699999999953-.867200000000594,2.588399999998728-1.734400000001187,3.162599999999657-2.60109999999986l1.897999999999229.755900000000111Z"/></g></svg>