<?xml version="1.0" encoding="UTF-8"?><svg id="uuid-a575cba0-4661-4776-90e3-404023a44771" xmlns="http://www.w3.org/2000/svg" width="221.698075837095445mm" height="281.877695211066168mm" xmlns:xlink="http://www.w3.org/1999/xlink" viewBox="0 0 628.435499999999593 799.023400000000038"><defs><style>.uuid-7f31a47f-8412-4162-a8ce-20554d7b0015{fill:none;}.uuid-d172960d-c2cb-4268-9df8-8d0c8b2cf9ee{clip-path:url(#uuid-1dbe47f4-fe16-49fa-8709-a500de6049ae);}.uuid-d0c2c2fd-cb41-481b-92ad-556e3b609f29{fill:#a39b4b;}</style><clipPath id="uuid-1dbe47f4-fe16-49fa-8709-a500de6049ae"><rect class="uuid-7f31a47f-8412-4162-a8ce-20554d7b0015" width="628.435499999999593" height="799.023400000000038"/></clipPath></defs><g class="uuid-d172960d-c2cb-4268-9df8-8d0c8b2cf9ee"><path class="uuid-d0c2c2fd-cb41-481b-92ad-556e3b609f29" d="M74.469699999999648,135.786099999999351c-4.551699999999983,10.764699999999721-7.25879999999961,22.073300000000017-8.083999999999833,33.711900000000242,1.795000000000073-1.459899999999834,4.08010000000013-2.338799999999537,6.568400000000111-2.338799999999537,2.748000000000502,0,5.244099999999889,1.076100000000224,7.108400000000074,2.818299999998999,3.668899999999667-47.794899999998961,43.611299999999574-85.433600000000297,92.345699999999852-85.433600000000297,3.777299999999741,0,6.837900000000445-3.060499999999593,6.837900000000445-6.837799999999334,0-3.776400000000649-3.060600000000704-6.836999999999534-6.837900000000445-6.836999999999534-14.343699999999444,0-28.265599999999722,2.8125-41.378899999999703,8.358399999999165-12.659200000000055,5.355500000001484-24.02639999999974,13.016600000000835-33.782200000000557,22.774499999999534-9.75879999999961,9.758700000002136-17.422899999999572,21.125-22.777399999999943,33.784100000000763Z"/><path class="uuid-d0c2c2fd-cb41-481b-92ad-556e3b609f29" d="M164.839799999999741,269.481399999998757c-47.475499999999556-3.841799999998329-84.832999999999629-43.481399999998757-85.047800000000279-91.895499999998719,0-3.776300000001356-3.060599999999795-6.838800000001356-6.837899999999536-6.838800000001356-3.77639999999974,0-6.837899999999536,3.0625-6.837899999999536,6.838800000001356.054699999999684,14.19629999999961,2.862299999999777,27.975599999999758,8.353499999999258,40.961900000000242,5.354500000000371,12.658299999999144,13.018600000000333,24.026400000000649,22.777399999999943,33.783299999999144,9.755800000000818,9.758700000000317,21.123000000000502,17.420899999999165,33.782200000000557,22.776299999999537,10.626900000000205,4.494200000001001,21.785200000000259,7.192399999999907,33.26760000000013,8.054700000000594-1.443400000000111-1.789099999999962-2.314500000000407-4.060499999999593-2.314500000000407-6.534200000000055,0-2.766600000000835,1.091800000000148-5.278299999999945,2.85739999999987-7.146500000000742Z"/><path class="uuid-d0c2c2fd-cb41-481b-92ad-556e3b609f29" d="M246.505900000000111,243.703100000000632c-1.335000000000036-1.334900000001653-3.084000000000287-2.002899999999499-4.833000000000084-2.002899999999499-1.75,0-3.5.667999999997846-4.83600000000024,2.002899999999499-16.671099999999569,16.145499999998719-39.387699999999768,26.087899999998626-64.428699999999935,26.087899999998626-3.775399999999536,0-6.835900000000038,3.060600000000704-6.835900000000038,6.836900000000242,0,3.776400000000649,3.060500000000502,6.837900000000445,6.835900000000038,6.837900000000445,14.345699999999852,0,28.26760000000013-2.8125,41.381800000000112-8.358400000000984,12.204099999999926-5.161099999999351,23.199300000000221-12.474599999999555,32.715900000000147-21.734399999999368,2.671800000000076-2.668899999998757,2.671800000000076-6.998999999999796,0-9.669899999998961Z"/><path class="uuid-d0c2c2fd-cb41-481b-92ad-556e3b609f29" d="M172.408199999999852,70.867199999998775c-14.343699999999444,0-28.263699999999517,2.814400000001115-41.378899999999703,8.359400000001187-12.660200000000259,5.355400000000373-24.024400000000242,13.015599999998813-33.784200000000055,22.775399999998626-9.755799999999908,9.75970000000234-17.41989999999987,21.125-22.775400000000445,33.784100000000763-4.549799999999777,10.765699999999924-7.259699999999611,22.075199999999313-8.084899999999834,33.710000000000946,1.79489999999987-1.460000000000946,4.079999999999927-2.335000000000946,6.570300000000316-2.335000000000946,2.745100000000093,0,5.245100000000093,1.075199999999313,7.104499999999462,2.814500000000407,3.66990000000078-47.793999999999869,43.614199999999983-85.433600000000297,92.34860000000026-85.433600000000297,3.775400000000445,0,6.839799999999741-3.059600000000501,6.839799999999741-6.834999999999127,0-3.775400000000445-3.064399999999296-6.83980000000156-6.839799999999741-6.83980000000156ZM164.837900000000445,269.480499999999665c-47.47360000000026-3.840899999999237-84.833000000000538-43.479499999999462-85.043000000000575-91.894599999999627,0-3.775400000000445-3.065399999999499-6.839799999999741-6.839799999999741-6.839799999999741-3.775400000000445,0-6.839899999999943,3.064399999999296-6.839899999999943,6.839799999999741.054699999999684,14.195299999999406,2.864300000000185,27.974599999999555,8.354499999999462,40.964899999999034,5.355500000000575,12.654300000001967,13.019600000000537,24.024400000002061,22.775400000000445,33.779300000001967,9.759799999999814,9.760699999998906,21.123999999999796,17.419899999998961,33.784200000000055,22.775399999998626,10.625,4.494099999999889,21.785200000000259,7.194299999999203,33.269499999999425,8.054700000000594-1.445299999999406-1.785200000000259-2.314399999999296-4.060600000000704-2.314399999999296-6.530300000000352,0-2.769599999999627,1.089799999999741-5.280300000000352,2.853500000000167-7.149400000000242ZM246.506800000000112,243.705100000001039c-1.334900000000289-1.339900000000853-3.084900000000289-2.004899999999907-4.834900000000289-2.004899999999907s-3.5.664999999999054-4.835000000000036,2.004899999999907c-16.670199999999568,16.145499999998719-39.389599999999973,26.084899999998015-64.428699999999935,26.084899999998015-3.775399999999536,0-6.833999999999833,3.059600000000501-6.833999999999833,6.839900000000853,0,3.775400000000445,3.058600000000297,6.834899999999834,6.833999999999833,6.834899999999834,14.344700000000557,0,28.269500000000335-2.809499999999389,41.384500000000116-8.359300000000076,12.199500000000171-5.160200000000259,23.194599999999809-12.469799999998941,32.714100000000144-21.729499999999462,2.670000000000073-2.670899999999165,2.670000000000073-7,0-9.670899999999165Z"/><path class="uuid-d0c2c2fd-cb41-481b-92ad-556e3b609f29" d="M228.697299999999814,120.876999999998588c-15.029599999999846-15.03519999999844-35.024400000000242-23.315499999998792-56.289099999999962-23.315499999998792-21.265599999999722,0-41.253899999999703,8.280300000000352-56.289099999999962,23.315499999998792-15.035100000000057,15.034100000000763-23.319300000000112,35.029200000000856-23.319300000000112,56.289000000000669,0,21.264699999999721,8.284200000000055,41.254899999999907,23.319300000000112,56.29490000000078,15.035200000000259,15.034200000000055,35.02350000000024,23.314500000000407,56.289099999999962,23.314500000000407,21.264699999999721,0,41.259500000000116-8.280300000000352,56.289099999999962-23.314500000000407,15.039999999999964-15.040000000000873,23.314400000000205-35.030200000001059,23.314400000000205-56.29490000000078,0-21.259799999999814-8.274400000000242-41.254899999999907-23.314400000000205-56.289000000000669ZM127.474599999999555,155.231399999998757h-6.475599999999758v43.875h6.475599999999758v3.804700000000594h-11.16989999999987v-51.489199999999983h11.16989999999987v3.809499999999389ZM136.289099999999962,202.911099999999351v-36.365200000000186c0-3.128899999999703-.054699999999684-5.964799999999741-.165100000000166-8.509799999999814-.104499999999462-2.54490000000078-.264599999999518-4.75-.479499999999462-6.614199999999983h6.59479999999985v36.204100000000835c0,1.03019999999924.014599999999518,2.240199999998367.049799999999777,3.634700000000521.03020000000015,1.395499999998719.075200000000223,2.810599999998885.129799999999705,4.25.049800000000687,1.435599999998885.114300000000185,2.810599999998885.190500000000611,4.120199999999386.074200000000019,1.304599999999482.16399999999976,2.400299999999334.273400000000038,3.28019999999924h-6.593700000000354ZM171.042999999999665,174.306599999999889h-6.048899999999776v24.389699999999721h6.048899999999776v4.214799999999741h-18.019599999999627v-4.214799999999741h5.949300000000221v-24.389699999999721h-5.949300000000221v-4.220699999999852h18.019599999999627v4.220699999999852ZM209.177700000000186,199.371100000000297c0,3.625-.320300000000316,6.634799999999814-.949200000000019,9.030300000000352-.634800000000268,2.389599999998609-1.521700000000237,4.298800000000483-2.656200000000354,5.724599999999555-1.134799999999814,1.430599999999686-2.503899999999703,2.439399999999296-4.103599999999915,3.025400000000445-1.596599999999853.589799999997922-3.371000000000095.88379999999961-5.326099999999769.88379999999961-.964899999999943,0-2-.154300000000148-3.104500000000371-.463900000000649-1.105499999999665-.310599999998885-2.110399999999572-.746099999998478-3.010800000000017-1.305699999998978l2.095699999999852-4.824200000000928c.489300000000185.365200000000186,1.149500000000444.668900000000576,1.974700000000666.914999999999054.829999999999927.25,1.66989999999987.369200000001001,2.524399999999332.369200000001001,1.035100000000057,0,1.955000000000382-.165100000000166,2.770500000000538-.494200000001001.814199999999801-.335899999998219,1.504899999999907-.920899999999165,2.076099999999769-1.755799999998999.568400000000111-.834999999999127,1.003999999999905-1.984400000001187,1.304700000000139-3.444400000000314.298899999999776-1.459899999999834.449299999999766-3.315399999999499.449299999999766-5.565399999999499v-14.165000000000873c0-2.569400000000314-.134799999999814-4.66019999999844-.400399999999991-6.254899999999907-.269599999999627-1.599599999999555-.673899999999776-2.844699999999648-1.208999999999833-3.735399999999572-.536200000000008-.889600000000428-1.206099999999878-1.484300000000076-2.010800000000017-1.784099999998944-.804599999999937-.300800000000891-1.745100000000093-.450200000001132-2.815400000000409-.450200000001132-1.159199999999146,0-2.289999999999964.274400000000242-3.394499999999425.820300000001225-1.104500000000371.544899999998961-2.120100000000093,1.254899999999907-3.04489999999987,2.125-.920000000000073.864199999999983-1.735400000000482,1.849599999999555-2.445400000000518,2.944299999999203-.704099999999926,1.090799999999945-1.229400000000169,2.185600000000704-1.574200000000019,3.280300000000352v18.664999999999054h-5.95510000000013v-19.789999999999054c0-3.174800000000687-.180599999999686-5.860399999999572-.54489999999987-8.060600000000704-.365199999999277-2.199200000000928-.720699999999852-3.854400000000169-1.064399999999296-4.974599999999555h5.793899999999667c.129899999999907.344799999998941.254899999999907.790100000000166.384799999999814,1.339899999999034.130799999999908.54490000000078.245100000000093,1.120100000000093.355499999999665,1.720700000001671.104400000000169.599599999999555.205000000000837,1.189399999999296.290000000000873,1.769499999998516l.254899999999907,1.445299999999406c2.059499999999389-2.445299999999406,4.129899999999907-4.209899999998015,6.214799999999741-5.289999999999054,2.08010000000013-1.085000000000946,4.25-1.629899999999907,6.5-1.629899999999907,1.714899999999943,0,3.235099999999875.284200000000055,4.549799999999777.854499999999462,1.320300000000316.570299999999406,2.435300000000097,1.469700000001467,3.33600000000024,2.705100000001039.900299999999788,1.23529999999846,1.579999999999927,2.83009999999922,2.03899999999976,4.794899999998961.464899999999943,1.96480000000156.695300000000316,4.325200000001132.695300000000316,7.094700000001467v14.480499999999665ZM228.512700000000223,202.911099999999351h-11.165000000000418v-3.804700000000594h6.469700000000103v-43.875h-6.469700000000103v-3.809499999999389h11.165000000000418v51.489199999999983Z"/><rect class="uuid-7f31a47f-8412-4162-a8ce-20554d7b0015" x="92.806640624999773" y="702.694332812499852" width="368.126220703119998" height="46.6611328125"/><path class="uuid-d0c2c2fd-cb41-481b-92ad-556e3b609f29" d="M114.5244140625,712.138668749999852l-2.9404296875,3.4033203125c-2.058349609375-1.6806640625-4.07470703125-2.4365234375-6.42724609375-2.4365234375-2.520263671875,0-4.24267578125,1.091796875-4.24267578125,3.150390625,0,2.0166015625,1.09228515625,2.8564453125,5.839111328125,4.326171875,5.2509765625,1.6806640625,8.611572265625,3.865234375,8.611572265625,9.2421875,0,5.3349609375-4.200927734375,9.0732421875-11.258056640625,9.0732421875-4.830810546875,0-8.359619140625-1.7216796875-10.75390625-4.07421875l3.192626953125-3.4873046875c2.100341796875,1.806640625,4.41064453125,2.8994140625,7.393310546875,2.8994140625,2.982421875,0,4.998779296875-1.4287109375,4.998779296875-3.9912109375,0-2.310546875-1.13427734375-3.318359375-5.544921875-4.6630859375-6.30126953125-1.9736328125-8.821533203125-4.494140625-8.821533203125-8.9052734375,0-4.95703125,4.28466796875-8.19140625,10.165771484375-8.19140625,4.32666015625,0,7.267333984375,1.3017578125,9.78759765625,3.654296875Z"/><path class="uuid-d0c2c2fd-cb41-481b-92ad-556e3b609f29" d="M138.169921875,728.900387499999852h-13.904296875c.419921875,4.2841796875,2.436279296875,5.544921875,5.292724609375,5.544921875,1.890380859375,0,3.48681640625-.5888671875,5.4189453125-1.9326171875l2.478515625,3.3603515625c-2.184326171875,1.7646484375-4.956787109375,3.0244140625-8.443359375,3.0244140625-7.141357421875,0-10.880126953125-4.7041015625-10.880126953125-11.677734375,0-6.7216796875,3.61279296875-11.9306640625,10.123779296875-11.9306640625,6.30126953125,0,10.039794921875,4.201171875,10.039794921875,11.30078125,0,.755859375-.083984375,1.6796875-.1259765625,2.310546875ZM132.373046875,724.909176562499852c0-3.3603515625-1.13427734375-5.544921875-3.99072265625-5.544921875-2.3525390625,0-3.78076171875,1.5546875-4.11669921875,5.796875h8.107421875v-.251953125Z"/><path class="uuid-d0c2c2fd-cb41-481b-92ad-556e3b609f29" d="M158.1611328125,717.977535937499852l-2.268310546875,3.4033203125c-1.806396484375-1.134765625-3.612548828125-1.7646484375-5.544921875-1.7646484375-1.974365234375,0-3.066650390625.7978515625-3.066650390625,2.0166015625,0,1.3017578125.756103515625,1.890625,4.662841796875,3.0244140625,4.452880859375,1.2177734375,6.973388671875,3.06640625,6.973388671875,7.015625,0,4.6201171875-4.326904296875,7.224609375-9.619873046875,7.224609375-3.86474609375,0-6.97314453125-1.3017578125-9.073486328125-3.234375l2.9404296875-3.2763671875c1.680419921875,1.3017578125,3.73876953125,2.1845703125,5.965087890625,2.1845703125s3.654541015625-.9248046875,3.654541015625-2.4365234375c0-1.6806640625-.798095703125-2.2265625-4.914794921875-3.361328125-4.494873046875-1.259765625-6.59521484375-3.486328125-6.59521484375-6.8466796875,0-3.7802734375,3.444580078125-6.6376953125,8.821533203125-6.6376953125,3.234619140625,0,5.965087890625,1.0087890625,8.0654296875,2.6884765625Z"/><path class="uuid-d0c2c2fd-cb41-481b-92ad-556e3b609f29" d="M178.278564453125,717.977535937499852l-2.268310546875,3.4033203125c-1.806396484375-1.134765625-3.612548828125-1.7646484375-5.544921875-1.7646484375-1.974365234375,0-3.066650390625.7978515625-3.066650390625,2.0166015625,0,1.3017578125.756103515625,1.890625,4.662841796875,3.0244140625,4.452880859375,1.2177734375,6.97314453125,3.06640625,6.97314453125,7.015625,0,4.6201171875-4.32666015625,7.224609375-9.61962890625,7.224609375-3.86474609375,0-6.97314453125-1.3017578125-9.073486328125-3.234375l2.9404296875-3.2763671875c1.680419921875,1.3017578125,3.73876953125,2.1845703125,5.965087890625,2.1845703125s3.654541015625-.9248046875,3.654541015625-2.4365234375c0-1.6806640625-.798095703125-2.2265625-4.914794921875-3.361328125-4.494873046875-1.259765625-6.59521484375-3.486328125-6.59521484375-6.8466796875,0-3.7802734375,3.444580078125-6.6376953125,8.821533203125-6.6376953125,3.234619140625,0,5.965087890625,1.0087890625,8.0654296875,2.6884765625Z"/><path class="uuid-d0c2c2fd-cb41-481b-92ad-556e3b609f29" d="M189.532470703125,707.980465624999852c0,1.9736328125-1.51220703125,3.486328125-3.654541015625,3.486328125s-3.61279296875-1.5126953125-3.61279296875-3.486328125c0-1.974609375,1.470458984375-3.4873046875,3.61279296875-3.4873046875s3.654541015625,1.5126953125,3.654541015625,3.4873046875ZM188.90234375,738.225582812499852h-5.965087890625v-22.263671875h5.965087890625v22.263671875Z"/><path class="uuid-d0c2c2fd-cb41-481b-92ad-556e3b609f29" d="M214.77685546875,727.093746874999852c0,7.056640625-3.99072265625,11.8037109375-10.669921875,11.8037109375-6.63720703125,0-10.669921875-4.41015625-10.669921875-11.8037109375,0-7.099609375,3.99072265625-11.8046875,10.7119140625-11.8046875,6.63720703125,0,10.6279296875,4.4111328125,10.6279296875,11.8046875ZM199.654296875,727.093746874999852c0,5.125,1.51220703125,7.3515625,4.45263671875,7.3515625,2.940673828125,0,4.452880859375-2.2685546875,4.452880859375-7.3515625,0-5.125-1.51220703125-7.3515625-4.410888671875-7.3515625-2.982421875,0-4.49462890625,2.2685546875-4.49462890625,7.3515625Z"/><path class="uuid-d0c2c2fd-cb41-481b-92ad-556e3b609f29" d="M237.960693359375,722.010739062499852v16.21484375h-5.965087890625v-15.20703125c0-2.5625-.924072265625-3.2763671875-2.436279296875-3.2763671875-1.722412109375,0-3.066650390625,1.134765625-4.284912109375,3.1083984375v15.375h-5.965087890625v-22.263671875h5.1669921875l.462158203125,2.814453125c1.80615234375-2.2265625,3.99072265625-3.4873046875,6.80517578125-3.4873046875,3.90673828125,0,6.217041015625,2.5205078125,6.217041015625,6.7216796875Z"/><path class="uuid-d0c2c2fd-cb41-481b-92ad-556e3b609f29" d="M271.60205078125,716.801754687499852c0,4.62109375-2.8564453125,8.5693359375-12.09814453125,16.802734375h12.770263671875l-.630126953125,4.62109375h-18.9453125v-4.3271484375c10.039794921875-9.619140625,12.770263671875-12.8115234375,12.770263671875-16.5927734375,0-2.5625-1.554443359375-4.2001953125-4.200927734375-4.2001953125-2.310302734375,0-3.822509765625.923828125-5.544921875,2.982421875l-3.696533203125-2.8984375c2.310302734375-2.982421875,5.376953125-4.705078125,9.82958984375-4.705078125,6.42724609375,0,9.745849609375,3.7802734375,9.745849609375,8.3173828125Z"/><path class="uuid-d0c2c2fd-cb41-481b-92ad-556e3b609f29" d="M296.424072265625,723.649410937499852c0,9.9130859375-3.57080078125,15.248046875-10.207763671875,15.248046875-6.63720703125,0-10.2080078125-5.3349609375-10.2080078125-15.248046875,0-9.9140625,3.57080078125-15.1650390625,10.2080078125-15.1650390625,6.636962890625,0,10.207763671875,5.2509765625,10.207763671875,15.1650390625ZM282.141357421875,723.649410937499852c0,8.1494140625,1.30224609375,10.75390625,4.074951171875,10.75390625,2.73046875,0,4.07470703125-2.478515625,4.07470703125-10.75390625,0-8.2763671875-1.34423828125-10.7119140625-4.07470703125-10.7119140625-2.772705078125,0-4.074951171875,2.6044921875-4.074951171875,10.7119140625Z"/><path class="uuid-d0c2c2fd-cb41-481b-92ad-556e3b609f29" d="M318.641845703125,716.801754687499852c0,4.62109375-2.856689453125,8.5693359375-12.09814453125,16.802734375h12.770263671875l-.630126953125,4.62109375h-18.9453125v-4.3271484375c10.039794921875-9.619140625,12.770263671875-12.8115234375,12.770263671875-16.5927734375,0-2.5625-1.554443359375-4.2001953125-4.200927734375-4.2001953125-2.310302734375,0-3.822509765625.923828125-5.544921875,2.982421875l-3.696533203125-2.8984375c2.310302734375-2.982421875,5.376953125-4.705078125,9.82958984375-4.705078125,6.42724609375,0,9.745849609375,3.7802734375,9.745849609375,8.3173828125Z"/><path class="uuid-d0c2c2fd-cb41-481b-92ad-556e3b609f29" d="M343.464111328125,723.649410937499852c0,9.9130859375-3.57080078125,15.248046875-10.207763671875,15.248046875-6.63720703125,0-10.2080078125-5.3349609375-10.2080078125-15.248046875,0-9.9140625,3.57080078125-15.1650390625,10.2080078125-15.1650390625,6.636962890625,0,10.207763671875,5.2509765625,10.207763671875,15.1650390625ZM329.181396484375,723.649410937499852c0,8.1494140625,1.30224609375,10.75390625,4.074951171875,10.75390625,2.73046875,0,4.07470703125-2.478515625,4.07470703125-10.75390625,0-8.2763671875-1.34423828125-10.7119140625-4.07470703125-10.7119140625-2.772705078125,0-4.074951171875,2.6044921875-4.074951171875,10.7119140625Z"/><path class="uuid-d0c2c2fd-cb41-481b-92ad-556e3b609f29" d="M346.0224609375,722.724606249999852h19.827392578125v4.705078125h-19.827392578125v-4.705078125Z"/><path class="uuid-d0c2c2fd-cb41-481b-92ad-556e3b609f29" d="M387.521484375,716.801754687499852c0,4.62109375-2.8564453125,8.5693359375-12.09814453125,16.802734375h12.770263671875l-.630126953125,4.62109375h-18.9453125v-4.3271484375c10.039794921875-9.619140625,12.770263671875-12.8115234375,12.770263671875-16.5927734375,0-2.5625-1.554443359375-4.2001953125-4.200927734375-4.2001953125-2.310302734375,0-3.822509765625.923828125-5.544921875,2.982421875l-3.696533203125-2.8984375c2.310302734375-2.982421875,5.376953125-4.705078125,9.82958984375-4.705078125,6.42724609375,0,9.745849609375,3.7802734375,9.745849609375,8.3173828125Z"/><path class="uuid-d0c2c2fd-cb41-481b-92ad-556e3b609f29" d="M412.343505859375,723.649410937499852c0,9.9130859375-3.57080078125,15.248046875-10.207763671875,15.248046875-6.63720703125,0-10.2080078125-5.3349609375-10.2080078125-15.248046875,0-9.9140625,3.57080078125-15.1650390625,10.2080078125-15.1650390625,6.636962890625,0,10.207763671875,5.2509765625,10.207763671875,15.1650390625ZM398.060791015625,723.649410937499852c0,8.1494140625,1.30224609375,10.75390625,4.074951171875,10.75390625,2.73046875,0,4.07470703125-2.478515625,4.07470703125-10.75390625,0-8.2763671875-1.34423828125-10.7119140625-4.07470703125-10.7119140625-2.772705078125,0-4.074951171875,2.6044921875-4.074951171875,10.7119140625Z"/><path class="uuid-d0c2c2fd-cb41-481b-92ad-556e3b609f29" d="M434.561279296875,716.801754687499852c0,4.62109375-2.856689453125,8.5693359375-12.09814453125,16.802734375h12.770263671875l-.630126953125,4.62109375h-18.9453125v-4.3271484375c10.039794921875-9.619140625,12.770263671875-12.8115234375,12.770263671875-16.5927734375,0-2.5625-1.554443359375-4.2001953125-4.200927734375-4.2001953125-2.310302734375,0-3.822509765625.923828125-5.544921875,2.982421875l-3.696533203125-2.8984375c2.310302734375-2.982421875,5.376953125-4.705078125,9.82958984375-4.705078125,6.42724609375,0,9.745849609375,3.7802734375,9.745849609375,8.3173828125Z"/><path class="uuid-d0c2c2fd-cb41-481b-92ad-556e3b609f29" d="M459.551513671875,733.646481249999852v4.5791015625h-18.273193359375v-4.5791015625h6.80517578125v-18.5673828125l-6.217041015625,3.7392578125-2.5625-3.9912109375,9.36767578125-5.6708984375h5.2509765625v24.490234375h5.62890625Z"/><path class="uuid-d0c2c2fd-cb41-481b-92ad-556e3b609f29" d="M102.706000000000131,426.164500000000771v-67.755400000001828h8.153800000000047v60.572299999999814h28.83010000000013v7.183100000002014h-36.983900000000176Z"/><path class="uuid-d0c2c2fd-cb41-481b-92ad-556e3b609f29" d="M154.444300000000112,364.330500000000029c-1.683600000000297,0-2.897399999999834-.403299999999945-3.640599999999722-1.213400000000547-.744599999999991-.808100000000195-1.11620000000039-1.858899999999267-1.11620000000039-3.154799999998431v-1.261700000000928c0-1.293900000000576.371600000000399-2.345200000001569,1.11620000000039-3.155300000000352.743199999999888-.808600000000297,1.956999999999425-1.213299999999435,3.640599999999722-1.213299999999435,1.681700000000092,0,2.895499999999629.404699999999139,3.64009999999962,1.213299999999435.743199999999888.810099999998783,1.116300000000592,1.861399999999776,1.116300000000592,3.155300000000352v1.261700000000928c0,1.295899999999165-.373100000000704,2.346699999998236-1.116300000000592,3.154799999998431-.744599999999991.810100000000602-1.958399999999529,1.213400000000547-3.64009999999962,1.213400000000547ZM150.561499999999796,376.076599999998507h7.765600000000632v50.087900000002264h-7.765600000000632v-50.087900000002264Z"/><path class="uuid-d0c2c2fd-cb41-481b-92ad-556e3b609f29" d="M174.829099999999926,426.164500000000771v-50.087900000002264h7.765599999999722v8.061000000001513h.388200000000325c1.228500000000167-2.817900000000009,2.960399999999936-5.061000000001513,5.193299999999908-6.726500000000669,2.233000000000175-1.665600000000268,5.225100000000566-2.499599999999191,8.979000000000269-2.499599999999191,5.17679999999973,0,9.270599999999831,1.666999999999462,12.279799999999796,4.999100000000908,3.009300000000167,3.333999999998923,4.513699999999972,8.041999999997643,4.513699999999972,14.123999999999796v32.129899999999907h-7.765599999999722v-30.837900000002264c0-9.015599999998813-3.785700000000361-13.523499999999331-11.35739999999987-13.523499999999331-1.55330000000049,0-3.057700000000295.195800000001327-4.514200000000528.584000000000742-1.456099999999424.389699999999721-2.766099999999824.973700000000463-3.93119999999999,1.751999999998588-1.164999999999964.778300000001764-2.086900000000242,1.766600000002654-2.766099999999824,2.966800000001967-.679699999999684,1.199199999999109-1.019500000000335,2.610300000000279-1.019500000000335,4.231400000000576v34.827199999999721h-7.765599999999722Z"/><path class="uuid-d0c2c2fd-cb41-481b-92ad-556e3b609f29" d="M269.763600000000224,424.514600000000428c0,6.923800000000483-1.941400000000158,12.359799999998359-5.824200000000019,16.307600000000093-3.882800000000316,3.946799999999712-9.352000000000317,5.92239999999947-16.40480000000025,5.92239999999947-4.077099999999973,0-7.58829999999989-.634799999999814-10.532200000000103-1.90139999999883-2.945299999999861-1.269500000002154-5.387199999999666-2.942400000001726-7.328599999999824-5.022000000000844l4.561999999999898-5.362800000000789c1.682099999999991,1.731999999999971,3.623599999999897,3.065000000000509,5.824200000000019,3.996100000000297,2.199300000000221.931699999999182,4.756400000000212,1.396999999999025,7.668500000000222,1.396999999999025,4.529299999999694,0,8.040499999999611-1.251499999998487,10.532199999999648-3.751999999998588,2.490700000000288-2.504399999999805,3.737300000000232-6.192800000000716,3.737300000000232-11.067800000000716v-6.928299999999581h-.38819999999987c-1.489199999999983,3.075699999999415-3.43060000000014,5.381400000000212-5.824200000000019,6.918999999999869-2.394999999999982,1.53859999999986-5.338799999999992,2.307099999999991-8.833500000000186,2.307099999999991-3.106400000000122,0-5.921400000000176-.615700000000288-8.445299999999861-1.843699999999444-2.523400000000038-1.22899999999936-4.659200000000055-2.976600000001781-6.406199999999899-5.242200000000594-1.747600000000148-2.264699999999721-3.106500000000324-5.014699999999721-4.077200000000175-8.251000000000204-.970699999999852-3.235399999999572-1.456000000000131-6.859399999999368-1.456000000000131-10.872100000000501,0-4.011699999999109.485300000000279-7.635699999998906,1.456000000000131-10.871999999999389.970699999999852-3.235399999999572,2.329600000000028-5.985399999999572,4.077200000000175-8.251000000000204,1.746999999999844-2.264699999999721,3.882799999999861-4.011699999999109,6.406199999999899-5.242200000000594,2.523899999999685-1.228499999999258,5.33889999999974-1.843799999998737,8.445299999999861-1.843799999998737,3.494700000000194,0,6.487300000000232.753499999998894,8.978999999999814,2.257900000000518,2.490800000000036,1.506799999999203,4.383300000000418,3.828599999998914,5.67870000000039,6.968199999999342h.38819999999987v-8.061000000001513h7.765600000000177v48.438000000001921ZM249.281700000000001,420.437400000000707c1.747600000000148,0,3.397500000000036-.227500000000873,4.95069999999987-.682600000000093,1.553200000000288-.454600000000937,2.895500000000084-1.122600000000602,4.028299999999945-2.000500000001921,1.131900000000314-.876899999999296,2.038600000000315-1.950699999997596,2.718299999999999-3.217799999998533.679200000000037-1.268500000000131,1.019000000000233-2.748999999999796,1.019000000000233-4.439900000001217v-18.634799999999814c0-1.365200000000186-.324200000000019-2.649900000000343-.970699999999852-3.85399999999936-.647400000000289-1.20260000000053-1.553200000000288-2.226500000000669-2.717800000000352-3.072700000000623-1.164999999999964-.844699999999648-2.523899999999685-1.511199999999008-4.077099999999973-1.999499999998079-1.553199999999833-.488300000000891-3.203099999999722-.732500000001892-4.95069999999987-.732500000001892-4.401400000000194,0-7.896000000000186,1.398499999999331-10.483400000000074,4.195400000000518-2.589300000000094,2.796800000000076-3.882799999999861,6.406699999999546-3.882799999999861,10.829999999999927v8.584000000000742c0,4.422899999999572,1.293499999999767,8.03269999999975,3.882799999999861,10.83009999999922,2.587399999999889,2.796399999999267,6.08199999999988,4.194800000001123,10.483400000000074,4.194800000001123Z"/><path class="uuid-d0c2c2fd-cb41-481b-92ad-556e3b609f29" d="M317.133299999999963,418.103399999999965h-.38819999999987c-.518599999999878,1.15480000000025-1.149400000000242,2.291500000001179-1.89260000000013,3.412599999999657-.745100000000093,1.120600000000195-1.666999999999916,2.114299999999275-2.766599999999926,2.97860000000037-1.101500000000215.865200000000186-2.426699999999983,1.55370000000039-3.980000000000018,2.066399999999703-1.553199999999833.51220000000103-3.365699999999833.768500000000131-5.436000000000149.768500000000131-5.178199999999833,0-9.287100000000009-1.664999999999054-12.328099999999722-4.998999999999796-3.042500000000018-3.332500000000437-4.5625-8.039999999999054-4.5625-14.123999999999796v-32.129900000001726h7.765599999999722v30.837900000002264c0,9.015099999998711,3.817900000000009,13.522899999999936,11.454600000000028,13.522899999999936,1.553200000000288,0,3.057600000000093-.19380000000092,4.513699999999972-.584000000000742,1.456000000000131-.388100000000122,2.75-.972100000000864,3.882799999999861-1.75,1.131800000000112-.778299999999945,2.038500000000113-1.766999999999825,2.718200000000252-2.967200000000958.679700000000139-1.199300000000221,1.01909999999998-2.643099999999322,1.01909999999998-4.33009999999922v-34.729500000001281h7.765600000000177v50.087900000002264h-7.765600000000177v-8.061100000000806Z"/><path class="uuid-d0c2c2fd-cb41-481b-92ad-556e3b609f29" d="M345.283199999999852,364.330500000000029c-1.683599999999842,0-2.896999999999935-.403299999999945-3.640199999999822-1.213400000000547-.744599999999991-.808100000000195-1.116199999999935-1.858899999999267-1.116199999999935-3.154799999998431v-1.261700000000928c0-1.293900000000576.371599999999944-2.345200000001569,1.116199999999935-3.155300000000352.743199999999888-.808600000000297,1.95659999999998-1.213299999999435,3.640199999999822-1.213299999999435,1.682099999999991,0,2.895500000000084.404699999999139,3.640100000000075,1.213299999999435.743199999999888.810099999998783,1.116199999999935,1.861399999999776,1.116199999999935,3.155300000000352v1.261700000000928c0,1.295899999999165-.373000000000047,2.346699999998236-1.116199999999935,3.154799999998431-.744599999999991.810100000000602-1.958000000000084,1.213400000000547-3.640100000000075,1.213400000000547ZM341.400399999999991,376.076599999998507h7.765599999999722v50.087900000002264h-7.765599999999722v-50.087900000002264Z"/><path class="uuid-d0c2c2fd-cb41-481b-92ad-556e3b609f29" d="M380.714300000000094,427.329499999999825c-4.659100000000308,0-8.559099999999944-.890099999998711-11.697200000000066-2.668899999998757-3.139700000000175-1.779300000001967-5.840900000000147-4.158200000001671-8.10550000000012-7.134800000001633l5.533200000000306-4.465799999999945c1.941399999999703,2.459900000001653,4.108899999999721,4.352500000000873,6.503899999999703,5.67870000000039,2.393599999999878,1.327099999998609,5.176800000000185,1.990200000000186,8.348199999999906,1.990200000000186,3.300200000000132,0,5.8725000000004-.711900000000242,7.716700000000401-2.135699999998906,1.84479999999985-1.422900000001391,2.766599999999926-3.429700000000594,2.766599999999926-6.018600000001243,0-1.941399999999703-.630800000000363-3.606399999998757-1.892499999999927-4.998999999999796-1.262200000000121-1.390600000000632-3.543500000000222-2.344699999999648-6.843800000000101-2.863299999999072l-3.980000000000018-.583000000002357c-2.32950000000028-.323199999998906-4.465300000000298-.824699999999211-6.406700000000001-1.503899999999703-1.941400000000158-.680199999998877-3.640100000000075-1.585399999999936-5.096200000000408-2.718199999999342-1.455999999999676-1.131400000000212-2.58889999999974-2.539600000000064-3.397499999999582-4.223200000000361-.809999999999945-1.681599999999889-1.21329999999989-3.688500000000204-1.21329999999989-6.01759999999922,0-2.458999999998923.452099999999973-4.611300000000483,1.358899999999721-6.454999999999927.905700000000252-1.84480000000076,2.15079999999989-3.381900000000314,3.737300000000232-4.611399999999776,1.584899999999834-1.228500000001077,3.477999999999611-2.150900000000547,5.678699999999935-2.766600000000835,2.199200000000019-.614199999999983,4.5625-.921899999999368,7.086399999999685-.921899999999368,4.076700000000073,0,7.489300000000185.712400000000343,10.240700000000288,2.135299999999916,2.75,1.424300000000585,5.160199999999804,3.397500000000946,7.231999999999971,5.921400000001086l-5.145100000000184,4.659199999998236c-1.100999999999658-1.552799999999479-2.717699999999695-2.959999999999127-4.853499999999713-4.22269999999844-2.135200000000168-1.261700000000928-4.821300000000065-1.892600000001039-8.056600000000344-1.892600000001039-3.236799999999675,0-5.678699999999935.695799999999508-7.329099999999926,2.086900000000242-1.649899999999889,1.392100000000937-2.475100000000111,3.28519999999844-2.475100000000111,5.678799999999683,0,2.459899999999834.825200000000223,4.239199999999983,2.475100000000111,5.338799999999537,1.650399999999991,1.101600000001781,4.028800000000047,1.909200000000055,7.134700000000066,2.426800000001094l3.882900000000063.581999999998516c5.564899999999852.841800000001967,9.513100000000122,2.444300000001022,11.84270000000015,4.805200000000696,2.329600000000028,2.363299999999072,3.494699999999739,5.45260000000053,3.494699999999739,9.270500000000538,0,4.853499999999258-1.650399999999991,8.67239999999947-4.95069999999987,11.454600000000937-3.300299999999879,2.783199999998033-7.831099999999878,4.173799999998664-13.589899999999943,4.173799999998664Z"/><path class="uuid-d0c2c2fd-cb41-481b-92ad-556e3b609f29" d="M423.329600000000028,426.164500000000771c-2.717799999999897,0-4.773000000000138-.757800000001225-6.164099999999962-2.274900000000343-1.392100000000028-1.516600000000835-2.086900000000242-3.50340000000142-2.086900000000242-5.957500000000437v-34.96389999999883h-8.250999999999749v-6.891600000002654h4.659200000000055c1.682099999999991,0,2.830599999999777-.340299999999843,3.446300000000065-1.019999999998618.614199999999983-.679200000000492.921899999999823-1.859399999999368.921899999999823-3.542999999999665v-9.318900000000212h6.989199999999983v13.881899999998495h10.969300000000203v6.891600000002654h-10.969300000000203v36.304699999998775h10.192399999999907v6.891600000000835h-9.70699999999988Z"/><path class="uuid-d0c2c2fd-cb41-481b-92ad-556e3b609f29" d="M450.218199999999797,364.330500000000029c-1.683599999999842,0-2.896899999999732-.403299999999945-3.64009999999962-1.213400000000547-.744599999999991-.808100000000195-1.116700000000037-1.858899999999267-1.116700000000037-3.154799999998431v-1.261700000000928c0-1.293900000000576.372100000000046-2.345200000001569,1.116700000000037-3.155300000000352.743199999999888-.808600000000297,1.956499999999778-1.213299999999435,3.64009999999962-1.213299999999435,1.682200000000194,0,2.895500000000084.404699999999139,3.640200000000277,1.213299999999435.74310000000014.810099999998783,1.116199999999935,1.861399999999776,1.116199999999935,3.155300000000352v1.261700000000928c0,1.295899999999165-.373099999999795,2.346699999998236-1.116199999999935,3.154799999998431-.744700000000194.810100000000602-1.958000000000084,1.213400000000547-3.640200000000277,1.213400000000547ZM446.335399999999936,376.076599999998507h7.765600000000177v50.087900000002264h-7.765600000000177v-50.087900000002264Z"/><path class="uuid-d0c2c2fd-cb41-481b-92ad-556e3b609f29" d="M489.240699999999833,427.329499999999825c-3.494599999999991,0-6.634299999999712-.615700000000288-9.415999999999713-1.843699999999444-2.783200000000306-1.22899999999936-5.12940000000026-2.976600000001781-7.037600000000111-5.242200000000594-1.909700000000157-2.264699999999721-3.365699999999833-5.014699999999721-4.368199999999888-8.251000000000204-1.003900000000158-3.235399999999572-1.50440000000026-6.859399999999368-1.50440000000026-10.872100000000501,0-4.011699999999109.500500000000102-7.635699999998906,1.50440000000026-10.871999999999389,1.002500000000055-3.235399999999572,2.458499999999731-5.985399999999572,4.368199999999888-8.251000000000204,1.908199999999852-2.264699999999721,4.254399999999805-4.011699999999109,7.037600000000111-5.242200000000594,2.781700000000001-1.228499999999258,5.921399999999721-1.843799999998737,9.415999999999713-1.843799999998737,4.982400000000325,0,8.979000000000269,1.083999999998923,11.988299999999981,3.251000000000204,3.009300000000167,2.169499999999971,5.257300000000214,5,6.746600000000399,8.494199999999182l-6.503900000000158,3.300700000001598c-.906800000000203-2.587800000001153-2.395100000000184-4.594700000001467-4.465400000000045-6.01850000000195-2.071800000000167-1.422899999999572-4.659200000000055-2.135800000000017-7.765600000000177-2.135800000000017-2.329600000000028,0-4.368199999999888.373100000000704-6.115699999999833,1.116300000001502-1.747100000000046.744599999998172-3.203100000000177,1.781199999999444-4.368199999999888,3.106399999998757-1.164500000000317,1.32720000000154-2.038600000000315,2.912099999999555-2.620600000000195,4.756400000000212-.582499999999982,1.84519999999975-.873999999999796,3.867600000001403-.873999999999796,6.066800000000512v8.541999999999462c0,4.402400000000853,1.180199999999786,8.008800000001429,3.54340000000002,10.823800000000119,2.361399999999776,2.815399999999499,5.839399999999841,4.222600000000966,10.435099999999693,4.222600000000966,6.276400000000194,0,10.806600000000344-2.911600000001272,13.589800000000196-8.736300000000483l5.630400000000009,3.785599999999249c-1.618199999999888,3.625-4.028299999999945,6.503899999999703-7.231900000000223,8.639699999999721-3.203099999999722,2.135200000000623-7.199699999999666,3.203100000000632-11.988299999999981,3.203100000000632Z"/><path class="uuid-d0c2c2fd-cb41-481b-92ad-556e3b609f29" d="M534.475100000000111,427.329499999999825c-4.659700000000157,0-8.559100000000399-.890099999998711-11.697300000000268-2.668899999998757-3.139599999999973-1.779300000001967-5.840799999999945-4.158200000001671-8.105499999999665-7.134800000001633l5.533199999999852-4.465799999999945c1.941400000000158,2.459900000001653,4.108900000000176,4.352500000000873,6.503900000000158,5.67870000000039,2.393099999999777,1.327099999998609,5.176299999999628,1.990200000000186,8.348199999999906,1.990200000000186,3.300299999999879,0,5.872599999999693-.711900000000242,7.716799999999694-2.135699999998906,1.844700000000103-1.422900000001391,2.766599999999926-3.429700000000594,2.766599999999926-6.018600000001243,0-1.941399999999703-.630899999999656-3.606399999998757-1.892599999999675-4.998999999999796-1.262200000000121-1.390600000000632-3.54340000000002-2.344699999999648-6.843699999999899-2.863299999999072l-3.980000000000018-.583000000002357c-2.329600000000028-.323199999998906-4.465300000000298-.824699999999211-6.406800000000203-1.503899999999703-1.941399999999703-.680199999998877-3.640100000000075-1.585399999999936-5.096099999999751-2.718199999999342-1.456100000000333-1.131400000000212-2.588900000000194-2.539600000000064-3.397500000000036-4.223200000000361-.810100000000148-1.681599999999889-1.213400000000092-3.688500000000204-1.213400000000092-6.01759999999922,0-2.458999999998923.452200000000175-4.611300000000483,1.358900000000176-6.454999999999927.905799999999999-1.84480000000076,2.150899999999638-3.381900000000314,3.737299999999777-4.611399999999776,1.585000000000036-1.228500000001077,3.478000000000065-2.150900000000547,5.678699999999935-2.766600000000835,2.199200000000019-.614199999999983,4.5625-.921899999999368,7.08640000000014-.921899999999368,4.076700000000073,0,7.48929999999973.712400000000343,10.240800000000036,2.135299999999916,2.75,1.424300000000585,5.160100000000057,3.397500000000946,7.231899999999769,5.921400000001086l-5.144999999999982,4.659199999998236c-1.10109999999986-1.552799999999479-2.717799999999897-2.959999999999127-4.853499999999713-4.22269999999844-2.13530000000037-1.261700000000928-4.821300000000065-1.892600000001039-8.056700000000092-1.892600000001039-3.23680000000013,0-5.67870000000039.695799999999508-7.329099999999926,2.086900000000242-1.649900000000343,1.392100000000937-2.475100000000111,3.28519999999844-2.475100000000111,5.678799999999683,0,2.459899999999834.825199999999768,4.239199999999983,2.475100000000111,5.338799999999537,1.650399999999536,1.101600000001781,4.028800000000047,1.909200000000055,7.134799999999814,2.426800000001094l3.882799999999861.581999999998516c5.564900000000307.841800000001967,9.513200000000325,2.444300000001022,11.842799999999897,4.805200000000696,2.329600000000482,2.363299999999072,3.494600000000446,5.45260000000053,3.494600000000446,9.270500000000538,0,4.853499999999258-1.650399999999991,8.67239999999947-4.950700000000325,11.454600000000937-3.300299999999879,2.783199999998033-7.830999999999676,4.173799999998664-13.589799999999741,4.173799999998664Z"/><path class="uuid-d0c2c2fd-cb41-481b-92ad-556e3b609f29" d="M121.731899999999769,543.814899999999398c-5.501000000000204,0-10.192399999999907-1.052799999999479-14.075200000000223-3.154299999998329-3.882799999999406-2.102600000001985-7.183599999999387-4.999500000001717-9.90139999999974-8.688500000000204l6.018600000000333-5.047900000001391c2.393099999999322,3.171900000001187,5.04739999999947,5.582099999999627,7.959499999999935,7.232500000000073,2.912099999999555,1.649900000000343,6.341800000000148,2.475100000001476,10.289999999999964,2.475100000001476,4.853500000000167,0,8.557099999999991-1.165100000001985,11.114300000000185-3.494700000001103,2.555599999999686-2.329999999999927,3.834399999999732-5.435999999999694,3.834399999999732-9.318799999999101,0-3.234900000001289-.970699999999852-5.727100000000064-2.912100000000464-7.474100000001272-1.941399999999703-1.748099999998885-5.144999999999527-3.138699999999517-9.609799999999268-4.174799999998868l-5.533200000000761-1.261800000000221c-6.212899999999536-1.422800000000279-10.954099999999016-3.574200000000928-14.221199999999044-6.455000000001746-3.268600000000333-2.878899999999703-4.901900000000751-6.940499999998792-4.901900000000751-12.182699999997567,0-2.975500000000466.548800000000483-5.629800000002433,1.649900000000343-7.958900000001449,1.100099999999657-2.33009999999922,2.636300000000119-4.271499999998923,4.610899999999674-5.82470000000103,1.97360000000026-1.553299999999581,4.334900000000744-2.733000000000175,7.08640000000014-3.543499999999767,2.75-.808600000000297,5.775899999999638-1.213399999998728,9.076200000000426-1.213399999998728,5.111299999999574,0,9.496099999999387.939000000000306,13.153299999999945,2.815399999999499,3.655299999999443,1.877500000000509,6.746099999999387,4.627500000000509,9.269999999999527,8.251000000000204l-6.115199999999277,4.465399999999136c-1.878000000000611-2.587899999998626-4.14260000000013-4.626000000000204-6.795000000000073-6.115799999999581-2.654300000000148-1.48779999999897-5.954999999999927-2.232899999999063-9.901300000000447-2.232899999999063-4.33640000000014,0-7.750500000000102.922899999999572-10.24119999999948,2.766599999999016-2.491700000000492,1.84480000000076-3.737300000000687,4.611400000001595-3.737300000000687,8.299800000000687,0,3.236799999998766,1.051199999999881,5.67870000000039,3.15520000000015,7.328600000000733,2.102100000000064,1.650399999998626,5.290100000000166,2.961499999999432,9.561599999999999,3.932199999999284l5.53269999999975,1.261699999999109c6.664500000000771,1.489199999999983,11.486300000000483,3.753899999999703,14.463400000000547,6.79490000000078,2.975999999999658,3.041999999999462,4.465299999999843,7.085900000000038,4.465299999999843,12.13379999999961,0,3.106400000000576-.533699999999953,5.920900000000984-1.601599999999962,8.445299999999406-1.067799999999806,2.52350000000115-2.605900000000474,4.659200000001874-4.610800000000381,6.406300000000556-2.006899999999405,1.747499999999491-4.450199999999313,3.106400000000576-7.328599999999824,4.077100000000428-2.880400000000009.970699999999852-6.132399999999507,1.456099999999424-9.755900000000111,1.456099999999424Z"/><path class="uuid-d0c2c2fd-cb41-481b-92ad-556e3b609f29" d="M177.255799999999908,543.814899999999398c-3.365700000000288,0-6.439900000000307-.615799999999581-9.221599999999853-1.844300000000658-2.783199999999852-1.227999999999156-5.161699999999655-2.992599999997765-7.134799999999814-5.290499999999156-1.974600000000464-2.295900000000984-3.511199999999917-5.04739999999947-4.610900000000584-8.251000000000204-1.100999999999658-3.203099999998813-1.649899999999434-6.810499999999593-1.649899999999434-10.823199999998906,0-3.94629999999961.548899999999776-7.538100000001577,1.649899999999434-10.775400000000445,1.099700000000666-3.234399999999368,2.636300000000119-6.002000000000407,4.610900000000584-8.299300000000585,1.973100000000159-2.296399999999267,4.351599999999962-4.060099999998783,7.134799999999814-5.290600000000268,2.781699999999546-1.228499999999258,5.855899999999565-1.843699999999444,9.221599999999853-1.843699999999444,3.364300000000185,0,6.421900000000278.615200000000186,9.173399999999674,1.843699999999444,2.75,1.230500000001484,5.128400000000511,2.994200000001001,7.134700000000521,5.290600000000268,2.005400000000009,2.297300000000178,3.558600000000297,5.064900000001217,4.659699999999702,8.299300000000585,1.099600000000009,3.237299999998868,1.649900000000343,6.829100000000835,1.649900000000343,10.775400000000445,0,4.012699999999313-.550300000000334,7.620100000000093-1.649900000000343,10.823199999998906-1.101099999999406,3.203600000000733-2.654299999999694,5.95509999999922-4.659699999999702,8.251000000000204-2.00630000000001,2.297900000001391-4.384700000000521,4.0625-7.134700000000521,5.290499999999156-2.751499999999396,1.228500000001077-5.809099999999489,1.844300000000658-9.173399999999674,1.844300000000658ZM177.255799999999908,536.922800000000279c4.206100000000333,0,7.635299999999916-1.293500000001586,10.289600000000064-3.882800000001225,2.652799999999843-2.587400000000343,3.980000000000473-6.535700000000361,3.980000000000473-11.84230000000025v-7.183600000000297c0-5.305699999998978-1.32720000000063-9.253899999999703-3.980000000000473-11.842799999998533-2.654300000000148-2.587400000000343-6.083499999999731-3.882799999999406-10.289600000000064-3.882799999999406-4.207000000000335,0-7.636700000000019,1.295399999999063-10.289499999999862,3.882799999999406-2.654300000000148,2.58889999999883-3.980000000000473,6.537099999999555-3.980000000000473,11.842799999998533v7.183600000000297c0,5.306599999999889,1.325700000000325,9.254899999999907,3.980000000000473,11.84230000000025,2.652799999999843,2.589299999999639,6.082499999999527,3.882800000001225,10.289499999999862,3.882800000001225Z"/><path class="uuid-d0c2c2fd-cb41-481b-92ad-556e3b609f29" d="M231.324200000000019,543.814899999999398c-3.494099999999889,0-6.633800000000065-.615799999999581-9.415500000000065-1.844300000000658-2.783199999999852-1.227999999999156-5.129899999999907-2.975999999998749-7.037600000000111-5.241699999998673-1.909699999999702-2.264600000000428-3.365800000000036-5.014600000000428-4.368199999999888-8.250899999999092-1.004399999999805-3.235400000001391-1.504899999999907-6.859400000001187-1.504899999999907-10.872100000000501,0-4.011700000000928.500500000000102-7.635800000000017,1.504899999999907-10.872100000000501,1.002399999999852-3.235300000000279,2.458500000000186-5.985300000000279,4.368199999999888-8.251000000000204,1.907700000000204-2.264599999998609,4.25440000000026-4.011699999999109,7.037600000000111-5.242200000000594,2.781700000000001-1.228499999999258,5.921400000000176-1.843699999999444,9.415500000000065-1.843699999999444,4.98239999999987,0,8.978999999999814,1.084000000000742,11.988800000000083,3.251500000000306,3.008800000000065,2.169399999998859,5.256800000000112,4.999499999999898,6.746099999999842,8.493599999999788l-6.503499999999804,3.300799999999072c-.907200000000103-2.587899999998626-2.395500000000084-4.594699999997829-4.465799999999945-6.018599999999424-2.071300000000065-1.422800000000279-4.659200000000055-2.135699999998906-7.765600000000177-2.135699999998906-2.329099999999926,0-4.368199999999888.372999999999593-6.115200000000186,1.11620000000039-1.747100000000046.745100000000093-3.203199999999924,1.780799999998635-4.368199999999888,3.10649999999805-1.164999999999964,1.327100000000428-2.03859999999986,2.912100000001374-2.621099999999842,4.75630000000092-.58199999999988,1.844699999999648-.873500000000149,3.867699999998877-.873500000000149,6.066899999999805v8.542999999999665c0,4.401300000001356,1.180100000000039,8.007799999999406,3.542899999999918,10.823200000000725,2.361899999999878,2.815000000000509,5.839400000000296,4.222200000000157,10.435100000000148,4.222200000000157,6.276400000000194,0,10.806599999999889-2.912099999999555,13.589799999999741-8.736399999999776l5.630400000000463,3.785700000000361c-1.618200000000343,3.625-4.028300000000399,6.503899999999703-7.231400000000122,8.639599999998609-3.203600000000279,2.135300000001735-7.200200000000223,3.203199999999924-11.988800000000083,3.203199999999924Z"/><path class="uuid-d0c2c2fd-cb41-481b-92ad-556e3b609f29" d="M265.395500000000084,480.81579999999849c-1.683600000000297,0-2.896999999999935-.403299999998126-3.640200000000277-1.212799999997515-.744599999999991-.809100000002218-1.116199999999935-1.859900000001289-1.116199999999935-3.155300000002171v-1.261699999999109c0-1.293999999999869.371599999999944-2.345300000000861,1.116199999999935-3.155299999998533.743200000000343-.808600000000297,1.95659999999998-1.212900000002264,3.640200000000277-1.212900000002264,1.682099999999991,0,2.895499999999629.404300000001967,3.640100000000075,1.212900000002264.743199999999888.809999999997672,1.116199999999935,1.861299999998664,1.116199999999935,3.155299999998533v1.261699999999109c0,1.295400000000882-.373000000000047,2.346199999999953-1.116199999999935,3.155300000002171-.744600000000446.809499999999389-1.958000000000084,1.212799999997515-3.640100000000075,1.212799999997515ZM261.512700000000223,492.561400000000503h7.765599999999722v50.088400000000547h-7.765599999999722v-50.088400000000547Z"/><path class="uuid-d0c2c2fd-cb41-481b-92ad-556e3b609f29" d="M304.612299999999777,543.814899999999398c-3.430699999999888,0-6.520499999999629-.615799999999581-9.270499999999629-1.844300000000658-2.751000000000204-1.227999999999156-5.112800000000334-2.992599999997765-7.08600000000024-5.290499999999156-1.975100000000111-2.295900000000984-3.494599999999991-5.04739999999947-4.5625-8.251000000000204-1.067799999999806-3.203099999998813-1.60149999999976-6.810499999999593-1.60149999999976-10.823199999998906,0-3.94629999999961.533699999999953-7.538100000001577,1.60149999999976-10.775400000000445,1.067900000000009-3.234399999999368,2.587399999999889-6.002000000000407,4.5625-8.299300000000585,1.973199999999906-2.296399999999267,4.335000000000036-4.060099999998783,7.08600000000024-5.290600000000268,2.75-1.228499999999258,5.839799999999741-1.843699999999444,9.270499999999629-1.843699999999444,3.364200000000437,0,6.373000000000047.612299999998868,9.027300000000196,1.837900000000445,2.653299999999945,1.225599999999758,4.917500000000018,2.91990000000078,6.79489999999987,5.079600000000937,1.876499999999851,2.159599999999045,3.316000000000258,4.723099999999249,4.319899999999961,7.689899999997579,1.002400000000307,2.966800000001967,1.504900000000362,6.223200000000361,1.504900000000362,9.769100000001345v3.677200000000084h-36.013699999999972v2.329100000000835c0,2.135800000000017.339799999999741,4.125499999998283,1.01949999999988,5.97019999999975.679200000000037,1.844299999998839,1.649899999999889,3.445799999999508,2.912100000000009,4.804699999998775,1.261700000000019,1.358900000001086,2.815000000000055,2.426799999999275,4.659200000000055,3.203600000000733,1.844200000000001.776400000000649,3.931599999999889,1.164600000000064,6.261199999999917,1.164600000000064,3.170000000000073,0,5.936599999999999-.743200000000797,8.29930000000013-2.23240000000078,2.361899999999878-1.487800000000789,4.189499999999953-3.623600000000806,5.484899999999925-6.406799999998839l5.533199999999852,4.00539999999819c-1.618599999999788,3.45260000000053-4.14260000000013,6.2358000000022-7.571800000000167,8.351600000001781-3.431099999999788,2.115699999998469-7.507799999999861,3.174299999998766-12.23090000000002,3.174299999998766ZM304.612299999999777,497.900299999999334c-2.135799999999563,0-4.077199999999721.370100000000093-5.824199999999564,1.110400000001391-1.747600000000148.740699999998469-3.252000000000407,1.785099999999147-4.513700000000426,3.135199999998804-1.262199999999666,1.349599999999555-2.249499999999898,2.942399999999907-2.960899999999583,4.774400000000242-.712899999999991,1.83350000000064-1.067900000000009,3.843300000000454-1.067900000000009,6.030300000000352v.674799999998868h27.665499999999611v-1.061499999999796c0-4.4375-1.213399999999638-7.989799999999377-3.640100000000075-10.659199999998236-2.42679999999973-2.668900000000576-5.646999999999935-4.004400000001624-9.658699999999953-4.004400000001624Z"/><path class="uuid-d0c2c2fd-cb41-481b-92ad-556e3b609f29" d="M350.13819999999987,542.649800000001051c-2.717799999999897,0-4.772999999999683-.757800000001225-6.164099999999962-2.274400000002061-1.392100000000028-1.517099999999118-2.086899999999787-3.503899999999703-2.086899999999787-5.957999999998719v-34.963900000000649h-8.251000000000204v-6.892099999999118h4.659200000000055c1.682099999999991,0,2.830599999999777-.33980000000156,3.446300000000065-1.019500000000335.614199999999983-.679200000000492.921800000000076-1.858900000001086.921800000000076-3.542500000001382v-9.319299999999203h6.98929999999973v13.88130000000092h10.969200000000001v6.892099999999118h-10.969200000000001v36.304700000000594h10.192400000000362v6.891600000000835h-9.707000000000335Z"/><path class="uuid-d0c2c2fd-cb41-481b-92ad-556e3b609f29" d="M404.012200000000121,492.561400000000503h7.668899999999667l-22.423299999999927,61.737399999998161c-.582499999999982,1.487700000001496-1.165099999999711,2.732900000000882-1.747599999999693,3.736800000002404-.582000000000335,1.002899999999499-1.294900000000325,1.796399999999267-2.135200000000168,2.378399999997782-.841800000000148.582500000000437-1.893099999999777,1.00340000000142-3.154799999999796,1.26220000000103-1.262200000000121.257799999999406-2.799800000000232.388200000001234-4.610800000000381.388200000001234h-3.980000000000018v-6.892100000000937h7.862800000000334l3.785599999999704-10.66110000000117-18.734899999999925-51.949799999998504h7.765699999999924l12.037100000000009,34.006399999998393,2.329600000000028,8.139200000001438h.485300000000279l2.717799999999897-8.139200000001438,12.133800000000065-34.006399999998393Z"/><path class="uuid-d0c2c2fd-cb41-481b-92ad-556e3b609f29" d="M119.751953125,637.562496874999852l-2.416015625-7.677734375h-10.69775390625l-2.37255859375,7.677734375h-5.7802734375l10.09423828125-30.109375h7.07421875l10.0078125,30.109375h-5.90966796875ZM112.07373046875,612.629879687499852h-.2158203125l-3.83935546875,12.3798828125h7.93701171875l-3.8818359375-12.3798828125Z"/><path class="uuid-d0c2c2fd-cb41-481b-92ad-556e3b609f29" d="M149.21337890625,637.562496874999852l-2.416015625-7.677734375h-10.69775390625l-2.37255859375,7.677734375h-5.7802734375l10.09423828125-30.109375h7.07421875l10.0078125,30.109375h-5.90966796875ZM141.53466796875,612.629879687499852h-.21533203125l-3.83935546875,12.3798828125h7.93701171875l-3.88232421875-12.3798828125Z"/></g></svg>