<?xml version="1.0" encoding="UTF-8"?><svg id="uuid-2ed1e489-65d7-442b-92a3-9d540661139c" xmlns="http://www.w3.org/2000/svg" width="1020.929913000504371mm" height="249.999919578711371mm" xmlns:xlink="http://www.w3.org/1999/xlink" viewBox="0 0 2893.974600000000464 708.661200000000463"><defs><style>.uuid-c647b2bc-7c0e-47e1-bf9c-bf0b1a797ca3{clip-path:url(#uuid-924e1cd6-6f58-4da1-8712-ede13c310718);}.uuid-c37d8f60-829d-4b1b-a6ce-e9c12b3d0182{fill:#fff;}.uuid-9f244076-e177-47ac-96d0-37e49f291d0f{fill:none;}.uuid-2ab85841-5b44-4823-a85c-cfea37c5b1d5{fill:#333e48;}</style><clipPath id="uuid-924e1cd6-6f58-4da1-8712-ede13c310718"><rect class="uuid-9f244076-e177-47ac-96d0-37e49f291d0f" width="2893.974600000000464" height="708.661200000000463"/></clipPath></defs><g class="uuid-c647b2bc-7c0e-47e1-bf9c-bf0b1a797ca3"><rect class="uuid-9f244076-e177-47ac-96d0-37e49f291d0f" x="1556.807354296869562" y="522.991248437499962" width="528.369384765630457" height="66.66015625"/><path class="uuid-c37d8f60-829d-4b1b-a6ce-e9c12b3d0182" d="M1587.826153125000019,536.492224999999962l-4.19970703125,4.8603515625c-2.93994140625-2.400390625-5.81982421875-3.48046875-9.1796875-3.48046875-3.599609375,0-6.0595703125,1.560546875-6.0595703125,4.5,0,2.8798828125,1.56005859375,4.080078125,8.33935546875,6.1796875,7.5,2.400390625,12.2998046875,5.5205078125,12.2998046875,13.2001953125,0,7.619140625-6,12.958984375-16.07958984375,12.958984375-6.8994140625,0-11.939453125-2.4599609375-15.359375-5.8193359375l4.56005859375-4.98046875c3,2.580078125,6.2998046875,4.1396484375,10.5595703125,4.1396484375s7.1396484375-2.0390625,7.1396484375-5.69921875c0-3.2998046875-1.6201171875-4.740234375-7.919921875-6.66015625-8.99951171875-2.8193359375-12.59912109375-6.419921875-12.59912109375-12.71875,0-7.080078125,6.11962890625-11.7001953125,14.51904296875-11.7001953125,6.18017578125,0,10.3798828125,1.8603515625,13.9794921875,5.2197265625Z"/><path class="uuid-c37d8f60-829d-4b1b-a6ce-e9c12b3d0182" d="M1621.605938281250019,560.431678124999962h-19.859375c.60009765625,6.119140625,3.47998046875,7.919921875,7.5595703125,7.919921875,2.7001953125,0,4.97998046875-.83984375,7.73974609375-2.759765625l3.5400390625,4.798828125c-3.1201171875,2.5205078125-7.080078125,4.3203125-12.0595703125,4.3203125-10.19970703125,0-15.53955078125-6.7197265625-15.53955078125-16.6796875,0-9.599609375,5.15966796875-17.0390625,14.45947265625-17.0390625,8.99951171875,0,14.33935546875,6,14.33935546875,16.1396484375,0,1.080078125-.11962890625,2.3994140625-.1796875,3.2998046875ZM1613.326153125000019,554.731482812499962c0-4.7998046875-1.6201171875-7.9189453125-5.69970703125-7.9189453125-3.35986328125,0-5.39990234375,2.2197265625-5.8798828125,8.279296875h11.57958984375v-.3603515625Z"/><path class="uuid-c37d8f60-829d-4b1b-a6ce-e9c12b3d0182" d="M1650.165508593750019,544.832068749999962l-3.23974609375,4.8603515625c-2.580078125-1.6201171875-5.15966796875-2.5205078125-7.919921875-2.5205078125-2.81982421875,0-4.37939453125,1.140625-4.37939453125,2.8798828125,0,1.8603515625,1.07958984375,2.7001953125,6.65966796875,4.3203125,6.359375,1.7392578125,9.95947265625,4.3798828125,9.95947265625,10.01953125,0,6.599609375-6.1796875,10.3193359375-13.7392578125,10.3193359375-5.52001953125,0-9.9599609375-1.8603515625-12.95947265625-4.6201171875l4.19970703125-4.6796875c2.39990234375,1.8603515625,5.33984375,3.1201171875,8.51953125,3.1201171875,3.18017578125,0,5.2197265625-1.3203125,5.2197265625-3.4794921875,0-2.400390625-1.1396484375-3.1806640625-7.01953125-4.7998046875-6.419921875-1.80078125-9.41943359375-4.98046875-9.41943359375-9.7802734375,0-5.3994140625,4.91943359375-9.4794921875,12.59912109375-9.4794921875,4.6201171875,0,8.52001953125,1.4404296875,11.51953125,3.83984375Z"/><path class="uuid-c37d8f60-829d-4b1b-a6ce-e9c12b3d0182" d="M1678.904766406250019,544.832068749999962l-3.23974609375,4.8603515625c-2.580078125-1.6201171875-5.15966796875-2.5205078125-7.919921875-2.5205078125-2.81982421875,0-4.37939453125,1.140625-4.37939453125,2.8798828125,0,1.8603515625,1.07958984375,2.7001953125,6.65966796875,4.3203125,6.359375,1.7392578125,9.95947265625,4.3798828125,9.95947265625,10.01953125,0,6.599609375-6.1796875,10.3193359375-13.7392578125,10.3193359375-5.52001953125,0-9.9599609375-1.8603515625-12.95947265625-4.6201171875l4.19970703125-4.6796875c2.39990234375,1.8603515625,5.33984375,3.1201171875,8.51953125,3.1201171875,3.18017578125,0,5.2197265625-1.3203125,5.2197265625-3.4794921875,0-2.400390625-1.1396484375-3.1806640625-7.01953125-4.7998046875-6.419921875-1.80078125-9.41943359375-4.98046875-9.41943359375-9.7802734375,0-5.3994140625,4.91943359375-9.4794921875,12.59912109375-9.4794921875,4.6201171875,0,8.52001953125,1.4404296875,11.51953125,3.83984375Z"/><path class="uuid-c37d8f60-829d-4b1b-a6ce-e9c12b3d0182" d="M1694.984844531250019,530.552771874999962c0,2.8203125-2.16015625,4.9794921875-5.22021484375,4.9794921875-3.0595703125,0-5.15966796875-2.1591796875-5.15966796875-4.9794921875s2.10009765625-4.9794921875,5.15966796875-4.9794921875c3.06005859375,0,5.22021484375,2.1591796875,5.22021484375,4.9794921875ZM1694.084942187500019,573.751014062499962h-8.52001953125v-31.798828125h8.52001953125v31.798828125Z"/><path class="uuid-c37d8f60-829d-4b1b-a6ce-e9c12b3d0182" d="M1731.043926562500019,557.851599999999962c0,10.080078125-5.69970703125,16.859375-15.2392578125,16.859375-9.47998046875,0-15.23974609375-6.2998046875-15.23974609375-16.859375,0-10.1396484375,5.69970703125-16.859375,15.29931640625-16.859375,9.47998046875,0,15.1796875,6.2998046875,15.1796875,16.859375ZM1709.444805468750019,557.851599999999962c0,7.3193359375,2.15966796875,10.5,6.35986328125,10.5,4.19970703125,0,6.359375-3.240234375,6.359375-10.5,0-7.3193359375-2.15966796875-10.5-6.2998046875-10.5-4.259765625,0-6.41943359375,3.240234375-6.41943359375,10.5Z"/><path class="uuid-c37d8f60-829d-4b1b-a6ce-e9c12b3d0182" d="M1764.164043750000019,550.591834374999962v23.1591796875h-8.51953125v-21.71875c0-3.66015625-1.3203125-4.6806640625-3.47998046875-4.6806640625-2.4599609375,0-4.3798828125,1.6201171875-6.11962890625,4.4404296875v21.958984375h-8.52001953125v-31.798828125h7.3798828125l.65966796875,4.01953125c2.580078125-3.1796875,5.7001953125-4.9794921875,9.7197265625-4.9794921875,5.580078125,0,8.8798828125,3.599609375,8.8798828125,9.599609375Z"/><path class="uuid-c37d8f60-829d-4b1b-a6ce-e9c12b3d0182" d="M1812.222637500000019,543.152381249999962c0,6.599609375-4.07958984375,12.2392578125-17.279296875,23.9990234375h18.2392578125l-.89990234375,6.599609375h-27.05859375v-6.1796875c14.33935546875-13.7392578125,18.2392578125-18.2998046875,18.2392578125-23.69921875,0-3.66015625-2.22021484375-6-6-6-3.2998046875,0-5.45947265625,1.3203125-7.91943359375,4.259765625l-5.27978515625-4.1396484375c3.2998046875-4.259765625,7.6796875-6.7197265625,14.03955078125-6.7197265625,9.17919921875,0,13.9189453125,5.400390625,13.9189453125,11.8798828125Z"/><path class="uuid-c37d8f60-829d-4b1b-a6ce-e9c12b3d0182" d="M1847.682598437500019,552.931678124999962c0,14.1591796875-5.10009765625,21.779296875-14.57958984375,21.779296875s-14.57958984375-7.6201171875-14.57958984375-21.779296875,5.10009765625-21.6591796875,14.57958984375-21.6591796875,14.57958984375,7.5,14.57958984375,21.6591796875ZM1827.283184375000019,552.931678124999962c0,11.6396484375,1.85986328125,15.359375,5.81982421875,15.359375,3.89990234375,0,5.81982421875-3.5400390625,5.81982421875-15.359375s-1.919921875-15.298828125-5.81982421875-15.298828125c-3.9599609375,0-5.81982421875,3.7197265625-5.81982421875,15.298828125Z"/><path class="uuid-c37d8f60-829d-4b1b-a6ce-e9c12b3d0182" d="M1879.421856250000019,543.152381249999962c0,6.599609375-4.07958984375,12.2392578125-17.279296875,23.9990234375h18.2392578125l-.89990234375,6.599609375h-27.05859375v-6.1796875c14.33935546875-13.7392578125,18.2392578125-18.2998046875,18.2392578125-23.69921875,0-3.66015625-2.22021484375-6-6-6-3.2998046875,0-5.45947265625,1.3203125-7.91943359375,4.259765625l-5.27978515625-4.1396484375c3.2998046875-4.259765625,7.6796875-6.7197265625,14.03955078125-6.7197265625,9.17919921875,0,13.9189453125,5.400390625,13.9189453125,11.8798828125Z"/><path class="uuid-c37d8f60-829d-4b1b-a6ce-e9c12b3d0182" d="M1914.881817187500019,552.931678124999962c0,14.1591796875-5.10009765625,21.779296875-14.57958984375,21.779296875s-14.57958984375-7.6201171875-14.57958984375-21.779296875,5.10009765625-21.6591796875,14.57958984375-21.6591796875,14.57958984375,7.5,14.57958984375,21.6591796875ZM1894.482403125000019,552.931678124999962c0,11.6396484375,1.85986328125,15.359375,5.81982421875,15.359375,3.89990234375,0,5.81982421875-3.5400390625,5.81982421875-15.359375s-1.919921875-15.298828125-5.81982421875-15.298828125c-3.9599609375,0-5.81982421875,3.7197265625-5.81982421875,15.298828125Z"/><path class="uuid-c37d8f60-829d-4b1b-a6ce-e9c12b3d0182" d="M1918.542461718750019,551.612342187499962h28.31884765625v6.7197265625h-28.31884765625v-6.7197265625Z"/><path class="uuid-c37d8f60-829d-4b1b-a6ce-e9c12b3d0182" d="M1977.820293750000019,543.152381249999962c0,6.599609375-4.07958984375,12.2392578125-17.279296875,23.9990234375h18.2392578125l-.89990234375,6.599609375h-27.05859375v-6.1796875c14.33935546875-13.7392578125,18.2392578125-18.2998046875,18.2392578125-23.69921875,0-3.66015625-2.22021484375-6-6-6-3.2998046875,0-5.45947265625,1.3203125-7.91943359375,4.259765625l-5.27978515625-4.1396484375c3.2998046875-4.259765625,7.6796875-6.7197265625,14.03955078125-6.7197265625,9.17919921875,0,13.9189453125,5.400390625,13.9189453125,11.8798828125Z"/><path class="uuid-c37d8f60-829d-4b1b-a6ce-e9c12b3d0182" d="M2013.280254687500019,552.931678124999962c0,14.1591796875-5.10009765625,21.779296875-14.57958984375,21.779296875s-14.57958984375-7.6201171875-14.57958984375-21.779296875,5.10009765625-21.6591796875,14.57958984375-21.6591796875,14.57958984375,7.5,14.57958984375,21.6591796875ZM1992.880840625000019,552.931678124999962c0,11.6396484375,1.85986328125,15.359375,5.81982421875,15.359375,3.89990234375,0,5.81982421875-3.5400390625,5.81982421875-15.359375s-1.919921875-15.298828125-5.81982421875-15.298828125c-3.9599609375,0-5.81982421875,3.7197265625-5.81982421875,15.298828125Z"/><path class="uuid-c37d8f60-829d-4b1b-a6ce-e9c12b3d0182" d="M2045.019512500000019,543.152381249999962c0,6.599609375-4.07958984375,12.2392578125-17.279296875,23.9990234375h18.2392578125l-.89990234375,6.599609375h-27.05859375v-6.1796875c14.33935546875-13.7392578125,18.2392578125-18.2998046875,18.2392578125-23.69921875,0-3.66015625-2.22021484375-6-6-6-3.2998046875,0-5.45947265625,1.3203125-7.91943359375,4.259765625l-5.27978515625-4.1396484375c3.2998046875-4.259765625,7.6796875-6.7197265625,14.03955078125-6.7197265625,9.17919921875,0,13.9189453125,5.400390625,13.9189453125,11.8798828125Z"/><path class="uuid-c37d8f60-829d-4b1b-a6ce-e9c12b3d0182" d="M2080.719219531250019,567.210974999999962v6.5400390625h-26.09912109375v-6.5400390625h9.7197265625v-26.5185546875l-8.87939453125,5.33984375-3.66015625-5.7001953125,13.37939453125-8.099609375h7.5v34.978515625h8.03955078125Z"/><rect class="uuid-9f244076-e177-47ac-96d0-37e49f291d0f" x="275.314434375000019" y="531.730506249999962" width="660" height="66.1806640625"/><path class="uuid-c37d8f60-829d-4b1b-a6ce-e9c12b3d0182" d="M332.072246875000019,577.571326562499962v6.4794921875h-53.39794921875v-6.4794921875h53.39794921875ZM327.032207812500019,542.352576562499962v6.1806640625h-43.318359375v-6.1806640625h43.318359375Z"/><path class="uuid-c37d8f60-829d-4b1b-a6ce-e9c12b3d0182" d="M362.433575000000019,543.073279687499962v-2.8203125h-19.25927734375v-4.1396484375h44.158203125v4.1396484375h-19.3193359375v2.8203125h23.27880859375v10.798828125h-5.33984375v-7.0791015625h-17.93896484375v9.4794921875h-1.68017578125l3.83984375,1.8603515625-1.259765625.958984375c5.6396484375,2.8203125,15.599609375,5.640625,24.6591796875,6.83984375-1.14013671875,1.080078125-2.64013671875,3.240234375-3.35986328125,4.560546875-4.14013671875-.720703125-8.39990234375-1.8603515625-12.41943359375-3.240234375v2.16015625h-24.958984375v-2.2802734375c-3.72021484375,1.4404296875-7.5,2.6396484375-10.97998046875,3.66015625-1.07958984375-1.1396484375-3.11962890625-3.0595703125-4.439453125-3.9599609375,9.83935546875-2.16015625,20.5791015625-5.939453125,27.05859375-10.5595703125h-2.03955078125v-9.4794921875h-17.87939453125v7.0791015625h-5.10009765625v-10.798828125h22.9794921875ZM348.153789843750019,547.272498437499962c3.72021484375.6005859375,8.8798828125,1.8603515625,11.6396484375,2.8203125l-1.3798828125,3,1.5-.3603515625.419921875,3.3603515625c-5.10009765625,1.439453125-10.1396484375,2.8193359375-14.45947265625,4.01953125l-1.56005859375-4.080078125c3.5400390625-.599609375,8.33984375-1.7392578125,13.439453125-2.8193359375-2.81982421875-1.0205078125-7.5595703125-2.2802734375-11.15966796875-3l1.56005859375-2.9404296875ZM379.232403125000019,571.811560937499962l.84033203125-.2998046875,3.599609375,2.2802734375c-2.81982421875,3.7197265625-7.439453125,7.3193359375-11.75927734375,10.01953125l4.919921875,2.1591796875-2.4599609375,4.0205078125c-4.68017578125-2.400390625-14.099609375-6.3603515625-20.939453125-8.939453125l2.39990234375-3.419921875c3.06005859375,1.080078125,6.83984375,2.51953125,10.43994140625,3.8994140625,2.81982421875-1.3798828125,6.0595703125-3.419921875,8.57958984375-5.4599609375h-29.87890625v-4.259765625h34.25830078125ZM374.312969531250019,565.931678124999962c-3.60009765625-1.439453125-6.77978515625-3-9.23974609375-4.439453125-2.81982421875,1.6201171875-5.93994140625,3.1201171875-9.1796875,4.439453125h18.41943359375ZM371.433086718750019,552.373084374999962l.60009765625.119140625-1.5-2.279296875c3.419921875-.5400390625,8.51953125-2.16015625,11.45947265625-3.1201171875l2.27978515625,3.0595703125c-3.1201171875,1.2001953125-7.3798828125,2.1005859375-10.73974609375,2.7001953125,4.43994140625.9599609375,9.65966796875,2.4599609375,12.65966796875,3.599609375l-1.3798828125,3.5400390625c-3.419921875-1.439453125-9.8994140625-3.359375-14.8193359375-4.5595703125l1.43994140625-3.0595703125Z"/><path class="uuid-c37d8f60-829d-4b1b-a6ce-e9c12b3d0182" d="M452.072246875000019,577.571326562499962v6.4794921875h-53.39794921875v-6.4794921875h53.39794921875ZM447.032207812500019,542.352576562499962v6.1806640625h-43.318359375v-6.1806640625h43.318359375Z"/><path class="uuid-c37d8f60-829d-4b1b-a6ce-e9c12b3d0182" d="M482.433575000000019,543.073279687499962v-2.8203125h-19.25927734375v-4.1396484375h44.158203125v4.1396484375h-19.3193359375v2.8203125h23.27880859375v10.798828125h-5.33984375v-7.0791015625h-17.93896484375v9.4794921875h-1.68017578125l3.83984375,1.8603515625-1.259765625.958984375c5.6396484375,2.8203125,15.599609375,5.640625,24.6591796875,6.83984375-1.14013671875,1.080078125-2.64013671875,3.240234375-3.35986328125,4.560546875-4.14013671875-.720703125-8.39990234375-1.8603515625-12.41943359375-3.240234375v2.16015625h-24.958984375v-2.2802734375c-3.72021484375,1.4404296875-7.5,2.6396484375-10.97998046875,3.66015625-1.07958984375-1.1396484375-3.11962890625-3.0595703125-4.439453125-3.9599609375,9.83935546875-2.16015625,20.5791015625-5.939453125,27.05859375-10.5595703125h-2.03955078125v-9.4794921875h-17.87939453125v7.0791015625h-5.10009765625v-10.798828125h22.9794921875ZM468.153789843750019,547.272498437499962c3.72021484375.6005859375,8.8798828125,1.8603515625,11.6396484375,2.8203125l-1.3798828125,3,1.5-.3603515625.419921875,3.3603515625c-5.10009765625,1.439453125-10.1396484375,2.8193359375-14.45947265625,4.01953125l-1.56005859375-4.080078125c3.5400390625-.599609375,8.33984375-1.7392578125,13.439453125-2.8193359375-2.81982421875-1.0205078125-7.5595703125-2.2802734375-11.15966796875-3l1.56005859375-2.9404296875ZM499.232403125000019,571.811560937499962l.84033203125-.2998046875,3.599609375,2.2802734375c-2.81982421875,3.7197265625-7.439453125,7.3193359375-11.75927734375,10.01953125l4.919921875,2.1591796875-2.4599609375,4.0205078125c-4.68017578125-2.400390625-14.099609375-6.3603515625-20.939453125-8.939453125l2.39990234375-3.419921875c3.06005859375,1.080078125,6.83984375,2.51953125,10.43994140625,3.8994140625,2.81982421875-1.3798828125,6.0595703125-3.419921875,8.57958984375-5.4599609375h-29.87890625v-4.259765625h34.25830078125ZM494.312969531250019,565.931678124999962c-3.60009765625-1.439453125-6.77978515625-3-9.23974609375-4.439453125-2.81982421875,1.6201171875-5.93994140625,3.1201171875-9.1796875,4.439453125h18.41943359375ZM491.433086718750019,552.373084374999962l.60009765625.119140625-1.5-2.279296875c3.419921875-.5400390625,8.51953125-2.16015625,11.45947265625-3.1201171875l2.27978515625,3.0595703125c-3.1201171875,1.2001953125-7.3798828125,2.1005859375-10.73974609375,2.7001953125,4.43994140625.9599609375,9.65966796875,2.4599609375,12.65966796875,3.599609375l-1.3798828125,3.5400390625c-3.419921875-1.439453125-9.8994140625-3.359375-14.8193359375-4.5595703125l1.43994140625-3.0595703125Z"/><path class="uuid-c37d8f60-829d-4b1b-a6ce-e9c12b3d0182" d="M548.133282031250019,559.932654687499962v7.01953125h19.01904296875v5.2197265625h-19.01904296875v9.958984375h24.298828125v5.2802734375h-54.0576171875v-5.2802734375h23.81884765625v-9.958984375h-18.41943359375v-5.2197265625h18.41943359375v-7.01953125h5.93994140625ZM522.333965625000019,554.112342187499962c1.26025390625-.240234375,2.580078125-1.2001953125,4.2001953125-2.759765625,1.31982421875-1.1396484375,4.7998046875-4.7998046875,8.03955078125-9.0595703125h-14.75927734375v-5.279296875h50.6376953125v5.279296875h-28.43896484375c-3.1796875,4.1396484375-6.599609375,7.9794921875-9.95947265625,11.1591796875l25.19921875-.8994140625c-2.22021484375-1.98046875-4.5-3.9599609375-6.66015625-5.6396484375l4.5-3.060546875c5.39990234375,4.080078125,12.23974609375,9.9599609375,15.53955078125,14.099609375l-4.97998046875,3.48046875c-.89990234375-1.2001953125-2.099609375-2.640625-3.5400390625-4.140625-31.79833984375,1.3798828125-35.3984375,1.5-37.91796875,2.33984375-.30029296875-1.19921875-1.2001953125-4.01953125-1.8603515625-5.51953125Z"/><path class="uuid-c37d8f60-829d-4b1b-a6ce-e9c12b3d0182" d="M632.072246875000019,577.571326562499962v6.4794921875h-53.39794921875v-6.4794921875h53.39794921875ZM627.032207812500019,542.352576562499962v6.1806640625h-43.318359375v-6.1806640625h43.318359375Z"/><path class="uuid-c37d8f60-829d-4b1b-a6ce-e9c12b3d0182" d="M662.433575000000019,543.073279687499962v-2.8203125h-19.25927734375v-4.1396484375h44.158203125v4.1396484375h-19.3193359375v2.8203125h23.27880859375v10.798828125h-5.33984375v-7.0791015625h-17.93896484375v9.4794921875h-1.68017578125l3.83984375,1.8603515625-1.259765625.958984375c5.6396484375,2.8203125,15.599609375,5.640625,24.6591796875,6.83984375-1.14013671875,1.080078125-2.64013671875,3.240234375-3.35986328125,4.560546875-4.14013671875-.720703125-8.39990234375-1.8603515625-12.41943359375-3.240234375v2.16015625h-24.958984375v-2.2802734375c-3.72021484375,1.4404296875-7.5,2.6396484375-10.97998046875,3.66015625-1.07958984375-1.1396484375-3.11962890625-3.0595703125-4.439453125-3.9599609375,9.83935546875-2.16015625,20.5791015625-5.939453125,27.05859375-10.5595703125h-2.03955078125v-9.4794921875h-17.87939453125v7.0791015625h-5.10009765625v-10.798828125h22.9794921875ZM648.153789843750019,547.272498437499962c3.72021484375.6005859375,8.8798828125,1.8603515625,11.6396484375,2.8203125l-1.3798828125,3,1.5-.3603515625.419921875,3.3603515625c-5.10009765625,1.439453125-10.1396484375,2.8193359375-14.45947265625,4.01953125l-1.56005859375-4.080078125c3.5400390625-.599609375,8.33984375-1.7392578125,13.439453125-2.8193359375-2.81982421875-1.0205078125-7.5595703125-2.2802734375-11.15966796875-3l1.56005859375-2.9404296875ZM679.232403125000019,571.811560937499962l.84033203125-.2998046875,3.599609375,2.2802734375c-2.81982421875,3.7197265625-7.439453125,7.3193359375-11.75927734375,10.01953125l4.919921875,2.1591796875-2.4599609375,4.0205078125c-4.68017578125-2.400390625-14.099609375-6.3603515625-20.939453125-8.939453125l2.39990234375-3.419921875c3.06005859375,1.080078125,6.83984375,2.51953125,10.43994140625,3.8994140625,2.81982421875-1.3798828125,6.0595703125-3.419921875,8.57958984375-5.4599609375h-29.87890625v-4.259765625h34.25830078125ZM674.312969531250019,565.931678124999962c-3.60009765625-1.439453125-6.77978515625-3-9.23974609375-4.439453125-2.81982421875,1.6201171875-5.93994140625,3.1201171875-9.1796875,4.439453125h18.41943359375ZM671.433086718750019,552.373084374999962l.60009765625.119140625-1.5-2.279296875c3.419921875-.5400390625,8.51953125-2.16015625,11.45947265625-3.1201171875l2.27978515625,3.0595703125c-3.1201171875,1.2001953125-7.3798828125,2.1005859375-10.73974609375,2.7001953125,4.43994140625.9599609375,9.65966796875,2.4599609375,12.65966796875,3.599609375l-1.3798828125,3.5400390625c-3.419921875-1.439453125-9.8994140625-3.359375-14.8193359375-4.5595703125l1.43994140625-3.0595703125Z"/><path class="uuid-c37d8f60-829d-4b1b-a6ce-e9c12b3d0182" d="M752.072246875000019,577.571326562499962v6.4794921875h-53.39794921875v-6.4794921875h53.39794921875ZM747.032207812500019,542.352576562499962v6.1806640625h-43.318359375v-6.1806640625h43.318359375Z"/><path class="uuid-c37d8f60-829d-4b1b-a6ce-e9c12b3d0182" d="M813.032207812500019,558.012732812499962v6.2392578125h-55.19775390625v-6.2392578125h55.19775390625Z"/><path class="uuid-c37d8f60-829d-4b1b-a6ce-e9c12b3d0182" d="M827.733867968750019,570.671912499999962v-15.958984375h17.8193359375v-8.400390625h-13.859375c-2.69970703125,4.5-5.69970703125,8.51953125-8.81982421875,11.580078125-1.080078125-1.0205078125-3.4794921875-2.8798828125-4.85986328125-3.66015625,5.580078125-4.859375,10.3798828125-12.599609375,13.19970703125-20.5791015625l5.759765625,1.5c-.72021484375,1.919921875-1.5,3.83984375-2.39990234375,5.7001953125h35.0986328125v5.458984375h-18.29931640625v8.400390625h16.91943359375v5.279296875h-16.91943359375v10.6796875h21.35888671875v5.51953125h-21.35888671875v13.3798828125h-5.81982421875v-13.3798828125h-27.59912109375v-5.51953125h9.77978515625ZM845.553203906250019,570.671912499999962v-10.6796875h-12.1796875v10.6796875h12.1796875Z"/><path class="uuid-c37d8f60-829d-4b1b-a6ce-e9c12b3d0182" d="M909.153301562500019,533.533240624999962c.9599609375,1.7998046875,1.9794921875,4.080078125,2.69970703125,6h20.51904296875v5.279296875h-44.21826171875v10.8603515625c0,9.8388671875-.77978515625,24.23828125-5.81982421875,33.837890625-1.1396484375-.83984375-3.7197265625-2.0400390625-5.15966796875-2.51953125,4.919921875-9.1201171875,5.33984375-22.19921875,5.33984375-31.2587890625v-16.19921875h22.9189453125c-.60009765625-1.560546875-1.259765625-3.2998046875-1.97998046875-4.6796875l5.7001953125-1.3203125ZM923.552715625000019,568.452185937499962l1.01953125-.240234375,3.5400390625,1.8603515625c-2.69970703125,4.9794921875-6.7197265625,8.7587890625-11.69970703125,11.5791015625,4.97998046875,1.5,10.73974609375,2.4599609375,16.859375,3-1.19970703125,1.2001953125-2.57958984375,3.4794921875-3.2998046875,4.919921875-7.49951171875-.83984375-14.279296875-2.4599609375-20.09912109375-4.8603515625-6.11962890625,2.2802734375-13.07958984375,3.66015625-20.279296875,4.5-.419921875-1.3798828125-1.43994140625-3.5400390625-2.33984375-4.7998046875,5.759765625-.4794921875,11.45947265625-1.3798828125,16.5595703125-2.8193359375-3.419921875-2.1005859375-6.35986328125-4.6806640625-8.69970703125-7.6796875l2.27978515625-.900390625h-7.259765625v-4.5595703125h33.4189453125ZM903.873028125000019,546.312537499999962v4.6796875h13.01953125v-4.6796875h5.580078125v4.6796875h9.2392578125v4.560546875h-9.2392578125v9.7197265625h-23.9990234375v-9.7197265625h-9v-4.560546875h9v-4.6796875h5.3994140625ZM900.933575000000019,573.011756249999962c2.27978515625,2.51953125,5.45947265625,4.6201171875,9.1796875,6.2998046875,3.83984375-1.6201171875,7.07958984375-3.7197265625,9.53955078125-6.2998046875h-18.71923828125ZM903.873028125000019,555.552771874999962v5.33984375h13.01953125v-5.33984375h-13.01953125Z"/><path class="uuid-c37d8f60-829d-4b1b-a6ce-e9c12b3d0182" d="M1093.703099999999722,271.570400000000518c-9.105499999999665,21.527299999999741-14.519500000000335,44.144500000000335-16.16989999999987,67.42279999999846,3.587899999999536-2.919899999998961,8.158200000000761-4.677699999998367,13.136700000000019-4.677699999998367,5.494099999999889,0,10.488299999999981,2.152299999999741,14.216800000000148,5.635699999998906,7.337900000000445-95.590799999999945,87.222700000000259-170.868199999998978,184.695299999999406-170.868199999998978,7.552700000000186,0,13.675800000000891-6.122999999999593,13.675800000000891-13.674800000000687,0-7.552700000000186-6.123100000000704-13.675699999999779-13.675800000000891-13.675699999999779-28.6875,0-56.533199999999852,5.625-82.763699999999517,16.718699999999444-25.316399999999703,10.709000000000742-48.050699999999779,26.032199999999648-67.564399999999296,45.548800000000483-19.519500000000335,19.515699999999924-34.843800000000556,42.25-45.550800000000891,67.570400000000518Z"/><path class="uuid-c37d8f60-829d-4b1b-a6ce-e9c12b3d0182" d="M1274.443299999999908,538.960000000000946c-94.953099999999722-7.682600000000093-169.667900000000373-86.961900000002061-170.097600000000057-183.791000000001077,0-7.552799999999479-6.121099999999387-13.677799999999479-13.675799999999981-13.677799999999479-7.552700000000186,0-13.675799999999981,6.125-13.675799999999981,13.677799999999479.109400000000278,28.39259999999922,5.722700000000259,55.951199999999517,16.708999999999833,81.922800000000279,10.707000000000335,25.319400000000314,26.031300000000556,48.05370000000039,45.550800000000891,67.568400000000111,19.513699999999517,19.51759999999922,42.247999999999593,34.841800000000148,67.564399999999296,45.550799999999072,21.255900000000111,8.989199999999983,43.572299999999814,14.385700000000725,66.539099999999962,16.110300000000279-2.886700000000019-3.578100000000632-4.627000000000407-8.121100000000297-4.627000000000407-13.067399999999907,0-5.533199999999852,2.183600000000297-10.556599999999889,5.712900000000445-14.293899999998757Z"/><path class="uuid-c37d8f60-829d-4b1b-a6ce-e9c12b3d0182" d="M1437.779300000000148,487.403400000001056c-2.66989999999987-2.670000000001892-6.16989999999987-4.004900000001726-9.668000000000575-4.004900000001726-3.497999999999593,0-7,1.334899999999834-9.671899999999368,4.004900000001726-33.341800000000148,32.290999999999258-78.773400000000038,52.176699999999983-128.85740000000078,52.176699999999983-7.552699999999277,0-13.675799999999072,6.123099999998885-13.675799999999072,13.673799999998664,0,7.552799999999479,6.123099999999795,13.675800000000891,13.675799999999072,13.675800000000891,28.689500000000407,0,56.535200000000259-5.625,82.761700000000928-16.718700000001263,24.408199999999852-10.320299999999406,46.400399999999536-24.947299999999814,65.435599999999795-43.465799999999945,5.343700000000354-5.341799999998329,5.343700000000354-14,0-19.341799999998329Z"/><path class="uuid-c37d8f60-829d-4b1b-a6ce-e9c12b3d0182" d="M1289.581999999999425,566.929700000000594c-7.552699999999277,0-13.675799999999072-6.123000000001412-13.675799999999072-13.675800000000891,0-7.550699999999779,6.123099999999795-13.673799999998664,13.675799999999072-13.673799999998664,50.084000000000742,0,95.515600000000632-19.885700000000725,128.85740000000078-52.176699999999983,2.671899999999368-2.670000000001892,6.173899999999776-4.004900000001726,9.671899999999368-4.004900000001726,3.498100000000704,0,6.998100000000704,1.334899999999834,9.668000000000575,4.004900000001726,5.343700000000354,5.341799999998329,5.343700000000354,14,0,19.341799999998329-19.035200000000259,18.518500000000131-41.027399999999943,33.145500000000538-65.435599999999795,43.465799999999945-26.226500000000669,11.093700000001263-54.072200000000521,16.718700000001263-82.761700000000928,16.718700000001263ZM1206.818299999999908,550.210999999999331c-25.316399999999703-10.708999999998923-48.050699999999779-26.033199999999852-67.564399999999296-45.550799999999072-19.519500000000335-19.514699999999721-34.843800000000556-42.248999999999796-45.550800000000891-67.568400000000111-10.986299999999574-25.971600000000763-16.599599999999555-53.530200000001059-16.708999999999833-81.922800000000279,0-7.552799999999479,6.123099999999795-13.677799999999479,13.675799999999981-13.677799999999479,7.554700000000594,0,13.675799999999981,6.125,13.675799999999981,13.677799999999479.429699999999684,96.829099999999016,75.144500000000335,176.108400000000984,170.097600000000057,183.791000000001077-3.529300000000148,3.737299999998868-5.712900000000445,8.760699999998906-5.712900000000445,14.293899999998757,0,4.94629999999961,1.740300000000389,9.489299999999275,4.627000000000407,13.067399999999907-22.966800000000148-1.724599999999555-45.283199999999852-7.121100000000297-66.539099999999962-16.110300000000279ZM1289.581999999999425,141.732500000000073c7.552700000000186,0,13.675800000000891,6.122999999999593,13.675800000000891,13.675699999999779,0,7.551800000001094-6.123100000000704,13.674800000000687-13.675800000000891,13.674800000000687-97.472599999999147,0-177.357399999998961,75.277399999999034-184.695299999999406,170.868199999998978-3.728500000000167-3.483399999999165-8.722700000000259-5.635699999998906-14.216800000000148-5.635699999998906-4.978499999999258,0-9.548800000000483,1.757799999999406-13.136700000000019,4.677699999998367,1.650399999999536-23.278299999998126,7.064400000000205-45.895499999998719,16.16989999999987-67.42279999999846,10.707000000000335-25.320400000000518,26.031300000000556-48.054700000000594,45.550800000000891-67.570400000000518,19.513699999999517-19.516600000000835,42.247999999999593-34.839799999999741,67.564399999999296-45.548800000000483,26.230499999999665-11.093699999999444,54.076199999999517-16.718699999999444,82.763699999999517-16.718699999999444Z"/><path class="uuid-c37d8f60-829d-4b1b-a6ce-e9c12b3d0182" d="M1402.166000000000167,241.748099999998885c-30.070300000000316-30.07129999999961-70.052700000000186-46.629899999999907-112.584000000000742-46.629899999999907-42.525399999999536,0-82.509799999999814,16.558600000000297-112.58009999999922,46.629899999999907-30.072200000000521,30.073200000000725-46.636700000000019,70.056600000001708-46.636700000000019,112.584000000000742,0,42.528299999999945,16.564499999999498,82.507800000001225,46.636700000000019,112.582000000000335,30.070299999999406,30.070299999999406,70.054699999999684,46.63379999999961,112.58009999999922,46.63379999999961,42.531300000000556,0,82.513700000000426-16.563500000000204,112.584000000000742-46.63379999999961,30.072299999999814-30.074199999999109,46.630900000000111-70.05370000000039,46.630900000000111-112.582000000000335,0-42.527399999999034-16.558600000000297-82.510800000000017-46.630900000000111-112.584000000000742Z"/><path class="uuid-2ab85841-5b44-4823-a85c-cfea37c5b1d5" d="M1177.375,405.820400000000518v-102.976599999999962h22.331999999999425v7.613299999999072h-12.943299999998999v87.750900000000911h12.943299999998999v7.61239999999998h-22.331999999999425Z"/><path class="uuid-2ab85841-5b44-4823-a85c-cfea37c5b1d5" d="M1401.791000000000167,302.843800000000556v102.976599999999962h-22.328100000000632v-7.61239999999998h12.9375v-87.750900000000911h-12.9375v-7.613299999999072h22.328100000000632Z"/><path class="uuid-2ab85841-5b44-4823-a85c-cfea37c5b1d5" d="M1229.244099999999889,375.25c0,2.058600000000297.033200000000761,4.484399999999368.095700000000761,7.271500000000742.0625,2.790099999998347.150399999999536,5.625.259799999999814,8.498099999998885.105499999999665,2.873000000001412.234399999999368,5.620100000000093.386699999999109,8.237300000000687.146500000000742,2.618099999999686.330100000001039,4.805599999999686.54490000000078,6.563500000000204h-13.193300000000818v-72.729499999999462c0-6.263700000001336-.107500000000073-11.9375-.322299999999814-17.020500000000538-.212899999999536-5.087000000001353-.535200000000259-9.496100000000297-.966800000000148-13.226599999999962h13.195300000000316v72.406199999999444Z"/><path class="uuid-2ab85841-5b44-4823-a85c-cfea37c5b1d5" d="M1286.849600000000464,340.171899999999368v8.433600000000297h-12.099600000000464v48.784200000000055h12.099600000000464v8.431599999999889h-36.041000000001077v-8.431599999999889h11.906200000001263v-48.784200000000055h-11.906200000001263v-8.433600000000297h36.041000000001077Z"/><path class="uuid-2ab85841-5b44-4823-a85c-cfea37c5b1d5" d="M1313.882800000000316,340.171899999999368c.255900000000111.6875.513699999999517,1.576199999999517.771499999999833,2.673800000000483.259699999999611,1.092800000000352.492199999999684,2.239300000001094.708999999999833,3.440500000000611.210900000000038,1.201099999998405.404300000000148,2.382799999999406.579999999999927,3.540999999999258l.511800000000221,2.893500000000131c4.121100000000297-4.889600000000428,8.259700000000521-8.417900000000373,12.421800000000076-10.584899999999834,4.164099999999962-2.166999999999462,8.5-3.252000000000407,13.002000000000407-3.252000000000407,3.433599999999387,0,6.470699999999852.569400000000314,9.107399999998961,1.706100000001243,2.638700000000426,1.139599999998609,4.859400000000278,2.941399999999703,6.662100000000464,5.406199999999444,1.800799999999981,2.468800000000556,3.162100000000464,5.666999999999462,4.087899999999536,9.591800000000148.921900000000278,3.925799999999072,1.382800000000316,8.654300000000148,1.382800000000316,14.193400000000111v28.957999999998719c0,7.252900000001318-.634699999999611,13.273400000000038-1.900399999999536,18.054700000000594-1.263600000000224,4.787099999999555-3.037100000000464,8.604499999999462-5.308600000000297,11.460900000000038-2.273400000000038,2.849599999999555-5.009700000000521,4.868199999998978-8.204999999999927,6.045899999999165-3.197299999999814,1.181700000001001-6.748100000000704,1.771500000000742-10.652399999999943,1.771500000000742-1.931600000000799,0-4.001900000000205-.3125-6.210900000000038-.933600000000297-2.208999999999833-.623999999999796-4.214899999999943-1.490200000000186-6.01760000000013-2.606399999998757l4.183600000000297-9.654300000000148c.986299999999574.729499999999462,2.304699999999684,1.339799999999741,3.958999999999833,1.835900000000038,1.650399999999536.49120000000039,3.335900000000038.737299999998868,5.048799999999574.737299999998868,2.0625,0,3.908199999999852-.331000000000131,5.539099999999962-.996099999998478,1.630800000000818-.665000000000873,3.011700000000928-1.833000000000538,4.150400000000445-3.506800000001022,1.136700000000019-1.674800000000687,2.005799999999908-3.969699999999648,2.60739999999987-6.887699999999313.599600000000464-2.918999999999869.900399999999536-6.629900000001726.900399999999536-11.134800000001633v-28.319299999999203c0-5.149400000000242-.26759999999922-9.323300000000017-.804699999999684-12.518599999999424-.53519999999935-3.197200000000521-1.343799999999646-5.6875-2.416000000000167-7.465799999999945-1.070299999999406-1.780300000000352-2.412099999999555-2.970699999999852-4.023499999999331-3.574200000000928-1.605400000000373-.597700000000259-3.484300000000076-.899400000000242-5.628899999999703-.899400000000242-2.316400000000613,0-4.578100000000632.547800000000279-6.789000000000669,1.643500000000131-2.208999999999833,1.091800000000148-4.240299999999479,2.50879999999961-6.085999999999331,4.246100000000297-1.843700000001263,1.735399999999572-3.474600000000464,3.698300000000017-4.888600000000224,5.887699999999313-1.41610000000037,2.189500000000407-2.468800000000556,4.376000000000204-3.156300000000556,6.564500000000407v37.331000000000131h-11.906199999999444v-39.583000000000538c0-6.349599999999555-.365300000000389-11.723599999999351-1.095800000000963-16.122099999998682-.72649999999885-4.398400000000038-1.4375-7.712799999999334-2.122999999999593-9.944300000001022h11.587900000000445Z"/><path class="uuid-c37d8f60-829d-4b1b-a6ce-e9c12b3d0182" d="M1561.927676719669762,336.833399999999529v-100.471100000000661h12.090799694559792v89.819300000001022h42.75099892002072v10.651799999999639h-54.841798614580512Z"/><path class="uuid-c37d8f60-829d-4b1b-a6ce-e9c12b3d0182" d="M1638.647374781569852,245.142499999999927c-2.497099936919767,0-4.295899891480076-.597600000000966-5.397474781570054-1.798800000000483-1.104425054179956-1.199199999999109-1.656225040240315-2.756799999999203-1.656225040240315-4.67870000000039v-1.871099999998478c0-1.918500000001586.55179998606036-3.477500000000873,1.656225040240315-4.678200000000288,1.101574890089978-1.198800000000119,2.900374844650287-1.799300000000585,5.397474781570054-1.799300000000585,2.494125218429872,0,4.294025218429852.600500000000466,5.397525218430019,1.799300000000585,1.102499999999964,1.200699999999415,1.65520000000015,2.759699999998702,1.65520000000015,4.678200000000288v1.871099999998478c0,1.921900000001187-.552700000000186,3.479500000001281-1.65520000000015,4.67870000000039-1.103500000000167,1.201199999999517-2.903400000000147,1.798800000000483-5.397525218430019,1.798800000000483ZM1632.889574927020476,262.560499999999593h11.515625072979674v74.272899999999936h-11.515625072979674v-74.272899999999936Z"/><path class="uuid-c37d8f60-829d-4b1b-a6ce-e9c12b3d0182" d="M1668.874899999999798,336.833399999999529v-74.272899999999936h11.515699999999924v11.953100000000632h.576100000000224c1.82129999999961-4.17870000000039,4.389699999999721-7.505800000000818,7.700200000000223-9.974600000001374,3.311599999999999-2.469699999997829,7.748099999999795-3.706499999998414,13.314499999999498-3.706499999998414,7.676800000000185,0,13.747100000000501,2.471199999999953,18.209000000000742,7.412599999999657,4.461899999999332,4.943300000000818,6.693299999999908,11.925699999999779,6.693299999999908,20.943799999999101v47.644500000000335h-11.514600000000428v-45.728499999999258c0-13.368599999999788-5.615200000000186-20.052700000000186-16.841800000000148-20.052700000000186-2.302699999999277,0-4.53519999999935.290499999999156-6.693399999999201.865700000000288-2.159100000000763.578100000000632-4.102500000000873,1.443900000000212-5.830000000000837,2.597700000000259-1.726599999999962,1.153800000000047-3.09479999999985,2.620100000000093-4.101599999999962,4.399399999998423-1.007799999999406,1.778800000000047-1.511700000000019,3.871100000000297-1.511700000000019,6.274900000000343v51.643500000000131h-11.515699999999924Z"/><path class="uuid-c37d8f60-829d-4b1b-a6ce-e9c12b3d0182" d="M1809.649400000000242,334.386700000000928c0,10.266599999999016-2.878900000000613,18.328099999998813-8.636800000000221,24.181599999999889-5.757800000000316,5.852999999999156-13.868099999999686,8.781299999998737-24.326100000000224,8.781299999998737-6.045900000000074,0-11.252999999999702-.940500000000611-15.618199999999888-2.818400000000111-4.367199999999684-1.882299999999304-7.988299999999981-4.363299999999072-10.867199999999684-7.447299999999814l6.765599999999722-7.952099999998609c2.494200000000092,2.568299999998999,5.373099999999795,4.544899999998961,8.636800000000221,5.926299999999173,3.260699999999815,1.380799999998999,7.052700000000186,2.070799999999508,11.371100000000297,2.070799999999508,6.715799999999945,0,11.921800000000076-1.855499999999665,15.617099999999482-5.563500000000204,3.693400000000111-3.713900000000649,5.542000000000371-9.183599999998478,5.542000000000371-16.411599999999453v-10.273999999999432h-.575200000000223c-2.20889999999963,4.561099999998987-5.087800000000243,7.979499999999462-8.636700000000019,10.259799999999814-3.551699999999983,2.281199999999444-7.917000000000371,3.421399999999267-13.099600000000464,3.421399999999267-4.605499999999665,0-8.779300000000148-.91359999999986-12.522399999999834-2.73489999999947-3.742199999999684-1.822200000000521-6.909200000000055-4.413099999999758-9.5-7.772399999999834-2.590899999999237-3.358400000000984-4.606499999999869-7.435600000000704-6.045900000000074-12.235399999999572-1.439499999999498-4.797400000001289-2.158199999999852-10.170900000000984-2.158199999999852-16.122100000000501,0-5.948200000000725.718700000000354-11.321700000000419,2.158199999999852-16.121100000000297,1.439400000000205-4.797300000000178,3.455000000000837-8.875400000000809,6.045900000000074-12.235300000000279,2.590799999999945-3.357899999999063,5.757800000000316-5.948700000000827,9.5-7.772499999999127,3.743099999999686-1.822200000000521,7.916900000000169-2.734800000000178,12.522399999999834-2.734800000000178,5.182600000000093,0,9.619200000000092,1.117599999999584,13.315400000000409,3.348599999999351,3.692399999999907,2.233400000000984,6.499099999999999,5.676800000001094,8.420900000000074,10.332500000000437h.575200000000223v-11.953100000000632h11.515699999999924v71.826200000001336ZM1779.277299999999741,328.340799999999945c2.591800000000148,0,5.038100000000668-.337400000000343,7.341800000000148-1.01220000000103,2.302700000000186-.674799999998868,4.293000000000575-1.664600000000064,5.972600000000057-2.966300000000047,1.677800000000389-1.299899999998161,3.02350000000024-2.89259999999922,4.031300000000556-4.772499999999127,1.006799999999203-1.880400000000009,1.510699999999815-4.075199999999313,1.510699999999815-6.582999999998719v-27.632300000001123c0-2.023999999999432-.481400000000576-3.929200000000492-1.439400000000205-5.715400000000955-.960000000000036-1.783199999998033-2.30370000000039-3.301199999998062-4.030300000000352-4.556099999997969-1.727499999999964-1.252500000000509-3.742199999999684-2.240700000002107-6.04489999999987-2.964400000000751-2.30369999999948-.724099999999453-4.75-1.08640000000014-7.341800000000148-1.08640000000014-6.527399999999943,0-11.708999999999833,2.073199999998906-15.54489999999987,6.221199999999953-3.839899999999943,4.147399999999834-5.757799999999406,9.499499999999898-5.757799999999406,16.058100000000195v12.729999999999563c0,6.558600000000297,1.917899999999463,11.911099999999351,5.757799999999406,16.058600000000297,3.835900000000038,4.146899999999732,9.017499999999927,6.220699999999852,15.54489999999987,6.220699999999852Z"/><path class="uuid-c37d8f60-829d-4b1b-a6ce-e9c12b3d0182" d="M1879.890599999999722,324.879800000000614h-.576199999999517c-.768600000000333,1.711499999999432-1.704099999999926,3.398499999999331-2.806599999999889,5.060599999998885-1.10360000000037,1.662099999999555-2.470699999999852,3.134700000000521-4.101599999999962,4.416500000001179-1.632800000000316,1.282199999999648-3.59860000000026,2.30370000000039-5.90230000000065,3.063899999999194-2.302799999999479.759799999999814-4.990299999999479,1.140199999999822-8.060599999999795,1.140199999999822-7.677700000000186,0-13.771499999999833-2.469699999999648-18.280300000000352-7.41359999999986-4.511699999999109-4.940899999999601-6.765599999999722-11.921899999999368-6.765599999999722-20.942900000000009v-47.644000000000233h11.515599999999722v45.727500000000873c0,13.36869999999908,5.661200000000463,20.052799999999479,16.985400000000482,20.052799999999479,2.302700000000186,0,4.534200000000055-.287099999999555,6.693299999999908-.86620000000039,2.159200000000055-.575199999999313,4.077199999999721-1.440500000000611,5.757900000000518-2.594799999998941,1.677699999999277-1.154300000000148,3.022399999999834-2.620100000000093,4.029299999999239-4.399400000000242,1.007800000000316-1.778299999999945,1.511700000000019-3.91990000000078,1.511700000000019-6.421400000001086v-51.498499999999694h11.515600000000632v74.272899999999936h-11.515600000000632v-11.953599999998914Z"/><path class="uuid-c37d8f60-829d-4b1b-a6ce-e9c12b3d0182" d="M1921.632800000000316,245.142499999999927c-2.496100000000297,0-4.295000000000073-.597600000000966-5.397500000000036-1.798800000000483-1.104500000000371-1.199199999999109-1.655300000000352-2.756799999999203-1.655300000000352-4.67870000000039v-1.871099999998478c0-1.918500000001586.550799999999981-3.477500000000873,1.655300000000352-4.678200000000288,1.102499999999964-1.198800000000119,2.90139999999974-1.799300000000585,5.397500000000036-1.799300000000585,2.494099999999889,0,4.293899999999667.600500000000466,5.398400000000038,1.799300000000585,1.101599999999962,1.200699999999415,1.654300000000148,2.759699999998702,1.654300000000148,4.678200000000288v1.871099999998478c0,1.921900000001187-.552700000000186,3.479500000001281-1.654300000000148,4.67870000000039-1.104500000000371,1.201199999999517-2.904300000000148,1.798800000000483-5.398400000000038,1.798800000000483ZM1915.874899999999798,262.560499999999593h11.515699999999924v74.272899999999936h-11.515699999999924v-74.272899999999936Z"/><path class="uuid-c37d8f60-829d-4b1b-a6ce-e9c12b3d0182" d="M1974.171800000000076,338.560999999999694c-6.909200000000055,0-12.691400000000613-1.319799999999304-17.344700000000557-3.95850000000064-4.655299999999443-2.638199999999415-8.661099999999351-6.165099999998347-12.019499999999425-10.58009999999922l8.204099999999926-6.621100000000297c2.878899999999703,3.648000000001048,6.093699999999444,6.455100000001039,9.644500000000335,8.41990000000078,3.548799999999574,1.968799999998737,7.676799999999275,2.951699999999619,12.378899999999703,2.951699999999619,4.894500000000335,0,8.708999999999833-1.055200000000696,11.443400000000111-3.16649999999936,2.735300000000279-2.109900000001289,4.102499999999964-5.085900000000038,4.102499999999964-8.924800000000687,0-2.878899999999703-.935500000000502-5.348200000000361-2.806599999999889-7.413099999999758-1.872100000000501-2.0625-5.253900000000613-3.476599999999962-10.147500000000036-4.246100000000297l-5.902299999999741-.863799999999173c-3.45510000000013-.479000000001179-6.621100000000297-1.223100000001068-9.5-2.230900000000474-2.878900000000613-1.007800000001225-5.397500000000946-2.350599999999758-7.556700000001001-4.030300000000352-2.159199999999146-1.677700000000186-3.839799999999741-3.76510000000053-5.038099999999758-6.261699999999109-1.201100000000224-2.494099999999889-1.799799999999777-5.469700000001467-1.799799999999777-8.923800000000483,0-3.646500000000742.66989999999987-6.837400000000343,2.015699999999924-9.572799999999916,1.34270000000015-2.734900000001289,3.189400000000205-5.01220000000103,5.541900000000169-6.836900000000242,2.350599999999758-1.821799999999712,5.15729999999985-3.189900000001217,8.420000000000073-4.102100000000064,3.261700000000019-.91110000000117,6.765599999999722-1.367599999999584,10.50879999999961-1.367599999999584,6.04489999999987,0,11.105400000000373,1.057099999999991,15.185500000000502,3.16649999999936,4.077099999999518,2.112300000000687,7.65139999999974,5.038099999999758,10.723599999999351,8.78019999999924l-7.629799999999705,6.909200000001874c-1.632899999999609-2.302700000000186-4.029300000000148-4.39010000000053-7.19629999999961-6.260700000000725-3.167000000000371-1.871600000000399-7.149500000000444-2.807600000000093-11.947300000000723-2.807600000000093-4.799799999999777,0-8.420899999999165,1.032199999999648-10.868199999998978,3.09519999999975-2.44630000000052,2.063899999999194-3.66990000000078,4.871600000000399-3.66990000000078,8.420400000000882,0,3.648399999998219,1.22360000000026,6.286099999999351,3.66990000000078,7.91649999999936,2.447299999999814,1.633299999999508,5.974599999999555,2.831500000000233,10.58009999999922,3.599099999999453l5.757800000000316.863300000000891c8.251999999999498,1.247999999999593,14.106499999999869,3.623499999999694,17.560599999999795,7.125,3.454999999999927,3.504899999999907,5.182600000000093,8.085399999999936,5.182600000000093,13.746100000000297,0,7.197299999999814-2.447299999999814,12.860799999998562-7.340799999999945,16.985799999998562-4.894599999999627,4.127500000000509-11.613299999999981,6.189500000000407-20.152399999999943,6.189500000000407Z"/><path class="uuid-c37d8f60-829d-4b1b-a6ce-e9c12b3d0182" d="M2037.363199999999779,336.833399999999529c-4.029299999999239,0-7.077099999999518-1.124499999999898-9.139599999999518-3.373499999999694-2.064500000000407-2.248999999999796-3.094700000000557-5.195299999999406-3.094700000000557-8.834500000000844v-51.846199999999953h-12.235399999999572v-10.218699999999444h6.909200000000055c2.494099999999889,0,4.197199999999611-.504899999999907,5.11029999999937-1.512699999999313.911200000000463-1.006800000001022,1.367200000000594-2.756800000001022,1.367200000000594-5.252900000001318v-13.819399999998495h10.364300000000185v20.584999999999127h16.265599999999722v10.218699999999444h-16.265599999999722v53.835000000000946h15.113299999999981v10.219199999999546h-14.394600000000537Z"/><path class="uuid-c37d8f60-829d-4b1b-a6ce-e9c12b3d0182" d="M2077.235300000000279,245.142499999999927c-2.496100000000297,0-4.295900000000074-.597600000000966-5.397500000000036-1.798800000000483-1.104500000000371-1.199199999999109-1.65520000000015-2.756799999999203-1.65520000000015-4.67870000000039v-1.871099999998478c0-1.918500000001586.550699999999779-3.477500000000873,1.65520000000015-4.678200000000288,1.101599999999962-1.198800000000119,2.90139999999974-1.799300000000585,5.397500000000036-1.799300000000585,2.495099999999184,0,4.293899999999667.600500000000466,5.397500000000036,1.799300000000585,1.102499999999964,1.200699999999415,1.656199999999444,2.759699999998702,1.656199999999444,4.678200000000288v1.871099999998478c0,1.921900000001187-.55369999999948,3.479500000001281-1.656199999999444,4.67870000000039-1.10360000000037,1.201199999999517-2.902400000000853,1.798800000000483-5.397500000000036,1.798800000000483ZM2071.477499999999964,262.560499999999593h11.515599999999722v74.272899999999936h-11.515599999999722v-74.272899999999936Z"/><path class="uuid-c37d8f60-829d-4b1b-a6ce-e9c12b3d0182" d="M2135.099600000000464,338.560999999999694c-5.181700000001001,0-9.837000000000444-.91359999999986-13.962000000000444-2.73489999999947-4.126900000000205-1.822200000000521-7.606399999999667-4.413099999999758-10.435500000000502-7.772399999999834-2.831999999999425-3.358400000000984-4.99119999999948-7.435600000000704-6.477499999999054-12.235399999999572-1.488300000000891-4.797400000001289-2.230500000000575-10.170900000000984-2.230500000000575-16.122100000000501,0-5.948200000000725.742199999999684-11.321700000000419,2.230500000000575-16.121100000000297,1.486299999999574-4.797300000000178,3.645499999999629-8.875400000000809,6.477499999999054-12.235300000000279,2.829100000000835-3.357899999999063,6.308600000000297-5.948700000000827,10.435500000000502-7.772499999999127,4.125-1.822200000000521,8.780299999999443-2.734800000000178,13.962000000000444-2.734800000000178,7.388599999999315,0,13.315399999999499,1.607899999999063,17.777299999999741,4.8216999999986,4.461900000000242,3.216400000001158,7.79489999999987,7.413100000001577,10.003899999999703,12.59480000000076l-9.644500000000335,4.894500000000335c-1.343799999999646-3.837400000000343-3.550799999999072-6.813000000000102-6.621099999999387-8.924800000000687-3.072300000000723-2.109399999999368-6.909200000000055-3.16649999999936-11.515599999999722-3.16649999999936-3.454100000000835,0-6.476599999999962.553200000000288-9.068400000000111,1.655300000000352-2.58980000000065,1.10399999999936-4.75,2.640099999998711-6.476599999999962,4.606399999998757-1.727500000000873,1.96730000000025-3.023400000000038,4.318400000000111-3.886700000000928,7.052700000000186-.863299999999072,2.73489999999947-1.295899999999165,5.735899999999674-1.295899999999165,8.995699999999488v12.666900000000169c0,6.527900000000955,1.75,11.876000000000204,5.254899999999907,16.050300000000789,3.501000000000204,4.174399999999878,8.658199999999852,6.261300000000119,15.472700000000259,6.261300000000119,9.306599999999889,0,16.025299999999334-4.318400000000111,20.152299999999741-12.95509999999922l8.348599999999351,5.614199999999983c-2.399399999999332,5.375499999998283-5.973599999999351,9.644599999999627-10.723599999999351,12.811099999998987s-10.675799999999981,4.75-17.777299999999741,4.75Z"/><path class="uuid-c37d8f60-829d-4b1b-a6ce-e9c12b3d0182" d="M2202.175699999999779,338.560999999999694c-6.909200000000055,0-12.691399999999703-1.319799999999304-17.344699999999648-3.95850000000064-4.655300000000352-2.638199999999415-8.66110000000026-6.165099999998347-12.019500000000335-10.58009999999922l8.204099999999926-6.621100000000297c2.878900000000613,3.648000000001048,6.093700000000354,6.455100000001039,9.644500000000335,8.41990000000078,3.548800000000483,1.968799999998737,7.675799999999981,2.951699999999619,12.378899999999703,2.951699999999619,4.894500000000335,0,8.709000000000742-1.055200000000696,11.443400000000111-3.16649999999936,2.735300000000279-2.109900000001289,4.102499999999964-5.085900000000038,4.102499999999964-8.924800000000687,0-2.878899999999703-.935499999999593-5.348200000000361-2.806599999999889-7.413099999999758-1.872099999999591-2.0625-5.253899999999703-3.476599999999962-10.147500000000036-4.246100000000297l-5.902299999999741-.863799999999173c-3.45510000000013-.479000000001179-6.621100000000297-1.223100000001068-9.5-2.230900000000474s-5.397500000000036-2.350599999999758-7.556700000000092-4.030300000000352c-2.159200000000055-1.677700000000186-3.839799999999741-3.76510000000053-5.038099999999758-6.261699999999109-1.201100000000224-2.494099999999889-1.799799999999777-5.469700000001467-1.799799999999777-8.923800000000483,0-3.646500000000742.669999999999163-6.837400000000343,2.015699999999924-9.572799999999916,1.34269999999924-2.734900000001289,3.189399999999296-5.01220000000103,5.541899999999259-6.836900000000242,2.350600000000668-1.821799999999712,5.15729999999985-3.189900000001217,8.420000000000073-4.102100000000064,3.260699999999815-.91110000000117,6.765599999999722-1.367599999999584,10.50880000000052-1.367599999999584,6.04489999999987,0,11.105399999999463,1.057099999999991,15.185499999999593,3.16649999999936,4.077199999999721,2.112300000000687,7.651400000000649,5.038099999999758,10.72360000000026,8.78019999999924l-7.629799999999705,6.909200000001874c-1.632900000000518-2.302700000000186-4.029300000000148-4.39010000000053-7.197300000000723-6.260700000000725-3.166000000000167-1.871600000000399-7.148400000000038-2.807600000000093-11.94629999999961-2.807600000000093-4.799799999999777,0-8.420900000000074,1.032199999999648-10.868199999999888,3.09519999999975-2.44630000000052,2.063899999999194-3.66990000000078,4.871600000000399-3.66990000000078,8.420400000000882,0,3.648399999998219,1.22360000000026,6.286099999999351,3.66990000000078,7.91649999999936,2.447299999999814,1.633299999999508,5.974599999999555,2.831500000000233,10.58009999999922,3.599099999999453l5.757800000000316.863300000000891c8.252000000000407,1.247999999999593,14.106500000000779,3.623499999999694,17.560599999999795,7.125,3.45510000000013,3.504899999999907,5.181599999999889,8.085399999999936,5.181599999999889,13.746100000000297,0,7.197299999999814-2.44629999999961,12.860799999998562-7.339799999999741,16.985799999998562-4.894599999999627,4.127500000000509-11.613299999999981,6.189500000000407-20.152399999999943,6.189500000000407Z"/><path class="uuid-c37d8f60-829d-4b1b-a6ce-e9c12b3d0182" d="M2313.297800000000279,338.560999999999694c-8.157200000000557,0-15.114300000000185-1.561099999998987-20.872100000000501-4.678200000000288-5.757800000000316-3.117199999998775-10.651299999999537-7.413099999999758-14.681599999999889-12.882899999998699l8.923799999999574-7.485300000000279c3.549800000000687,4.703099999998813,7.485400000000482,8.276899999998932,11.80370000000039,10.723599999999351,4.318400000000111,2.447299999999814,9.403299999999945,3.670899999999165,15.257800000000316,3.670899999999165,7.197299999999814,0,12.689499999999498-1.727499999999054,16.481499999999869-5.181599999999889,3.78899999999976-3.45509999999922,5.685500000000502-8.061499999999796,5.685500000000502-13.818899999998393,0-4.796800000000076-1.439400000000205-8.492100000001301-4.318300000000818-11.082500000000437-2.878899999999703-2.591800000000148-7.628899999999703-4.654300000000148-14.25-6.190399999999499l-8.20509999999922-1.871100000000297c-9.211900000000242-2.110400000001391-16.242200000000594-5.301300000000992-21.086900000000242-9.57129999999961-4.846700000000055-4.269500000000335-7.269600000000537-10.293000000001484-7.269600000000537-18.06590000000142,0-4.412599999999657.814500000000407-8.348200000000361,2.447300000000723-11.802700000000186,1.630900000000111-3.454599999999118,3.909200000000055-6.333499999998821,6.836899999999332-8.6362999999983,2.925799999999981-2.30370000000039,6.427800000000389-4.05370000000039,10.507800000000316-5.253900000001522,4.078199999999924-1.199199999999109,8.564500000000407-1.799799999998868,13.458999999999833-1.799799999998868,7.579099999999926,0,14.081100000000333,1.39259999999922,19.503900000000613,4.174799999998868,5.419999999999163,2.784200000000055,10.003899999999703,6.861300000000483,13.746099999999387,12.235399999999572l-9.068299999999908,6.620600000002014c-2.784200000000055-3.837400000000343-6.14260000000013-6.859900000001289-10.075200000000223-9.068400000000111-3.936599999999999-2.206500000000233-8.83010000000013-3.310500000001412-14.682600000000093-3.310500000001412-6.429699999999684,0-11.492199999999684,1.367200000000594-15.185599999999795,4.102000000000771-3.695299999999406,2.735399999999572-5.541999999999462,6.837899999998626-5.541999999999462,12.307199999999284,0,4.800200000001496,1.558599999999387,8.420799999999872,4.67869999999948,10.867600000001403,3.117199999999684,2.446799999999712,7.843799999999646,4.390699999999924,14.177800000000389,5.83009999999922l8.204999999999927,1.871100000000297c9.882899999999609,2.20850000000064,17.03229999999985,5.566399999999703,21.447299999999814,10.075699999999415,4.412099999999555,4.511199999999008,6.621100000000297,10.507800000001225,6.621100000000297,17.992700000000696,0,4.606399999998757-.791000000000167,8.78019999999924-2.375,12.523400000000038-1.584000000000742,3.742199999998775-3.864300000000185,6.909200000000055-6.836900000000242,9.5-2.975599999999758,2.590799999999945-6.59860000000026,4.606399999998757-10.868199999999888,6.045399999999063-4.270500000000538,1.439500000000407-9.092800000000352,2.159200000000055-14.465799999999945,2.159200000000055Z"/><path class="uuid-c37d8f60-829d-4b1b-a6ce-e9c12b3d0182" d="M2395.631800000000112,338.560999999999694c-4.99120000000039,0-9.549799999999777-.91359999999986-13.674799999999777-2.73489999999947-4.127000000000407-1.822200000000521-7.654300000000148-4.438000000000102-10.58010000000013-7.84519999999975-2.927700000000186-3.40480000000025-5.206100000000333-7.484400000001187-6.836900000000242-12.23489999999947-1.632799999999406-4.75-2.44629999999961-10.09860000000117-2.44629999999961-16.049800000000687,0-5.851500000000669.813500000000204-11.177700000000186,2.44629999999961-15.977500000000873,1.630799999999908-4.796899999999368,3.909200000000055-8.899399999998423,6.836900000000242-12.306599999999889,2.925799999999981-3.405299999998533,6.453099999999722-6.02100000000064,10.58010000000013-7.844799999998941,4.125-1.822200000000521,8.683599999999387-2.734800000000178,13.674799999999777-2.734800000000178,4.988299999999981,0,9.522399999999834.912599999999657,13.602499999999964,2.734800000000178,4.077199999999721,1.8237999999983,7.603500000000167,4.439500000000407,10.579099999999926,7.844799999998941,2.973700000000463,3.407200000001467,5.27639999999974,7.509700000000521,6.909200000000055,12.306599999999889,1.630900000000111,4.799800000000687,2.447299999999814,10.126000000000204,2.447299999999814,15.977500000000873,0,5.951199999999517-.816399999999703,11.299800000000687-2.447299999999814,16.049800000000687-1.632800000000316,4.750499999998283-3.935499999999593,8.83009999999922-6.909200000000055,12.23489999999947-2.975599999999758,3.407199999999648-6.501900000000205,6.022999999999229-10.579099999999926,7.84519999999975-4.08010000000013,1.82129999999961-8.614199999999983,2.73489999999947-13.602499999999964,2.73489999999947ZM2395.631800000000112,328.340799999999945c6.236299999999574,0,11.32129999999961-1.917999999999665,15.257799999999406-5.757799999999406,3.933600000000297-3.836500000001251,5.901400000000649-9.690500000000611,5.901400000000649-17.560600000000704v-10.651799999999639c0-7.867200000000594-1.967800000000352-13.721700000000055-5.901400000000649-17.561100000000806-3.936499999999796-3.836399999998321-9.021499999999833-5.757299999999304-15.257799999999406-5.757299999999304-6.239300000000185,0-11.324200000000019,1.920900000000984-15.257800000000316,5.757299999999304-3.936599999999999,3.839400000000751-5.90139999999974,9.693900000000212-5.90139999999974,17.561100000000806v10.651799999999639c0,7.870100000000093,1.964799999999741,13.724099999999453,5.90139999999974,17.560600000000704,3.933600000000297,3.839799999999741,9.018500000000131,5.757799999999406,15.257800000000316,5.757799999999406Z"/><path class="uuid-c37d8f60-829d-4b1b-a6ce-e9c12b3d0182" d="M2475.806599999999889,338.560999999999694c-5.181700000000092,0-9.836899999999332-.91359999999986-13.961899999999332-2.73489999999947-4.127000000000407-1.822200000000521-7.606500000000779-4.413099999999758-10.436500000000706-7.772399999999834-2.831100000000333-3.358400000000984-4.990300000000389-7.435600000000704-6.476599999999962-12.235399999999572-1.489300000000185-4.797400000001289-2.231499999999869-10.170900000000984-2.231499999999869-16.122100000000501,0-5.948200000000725.742199999999684-11.321700000000419,2.231499999999869-16.121100000000297,1.486299999999574-4.797300000000178,3.645499999999629-8.875400000000809,6.476599999999962-12.235300000000279,2.829999999999927-3.357899999999063,6.309500000000298-5.948700000000827,10.436500000000706-7.772499999999127,4.125-1.822200000000521,8.78019999999924-2.734800000000178,13.961899999999332-2.734800000000178,7.388700000000426,0,13.314400000000205,1.607899999999063,17.77730000000065,4.8216999999986,4.461899999999332,3.216400000001158,7.794999999999163,7.413100000001577,10.003899999999703,12.59480000000076l-9.644500000000335,4.894500000000335c-1.344699999999648-3.837400000000343-3.550799999999981-6.813000000000102-6.621100000000297-8.924800000000687-3.072299999999814-2.109399999999368-6.909200000000055-3.16649999999936-11.515599999999722-3.16649999999936-3.45510000000013,0-6.476599999999962.553200000000288-9.068400000000111,1.655300000000352-2.590799999999945,1.10399999999936-4.75,2.640099999998711-6.47649999999976,4.606399999998757-1.727600000000166,1.96730000000025-3.02350000000024,4.318400000000111-3.886800000000221,7.052700000000186-.863199999999779,2.73489999999947-1.295900000000074,5.735899999999674-1.295900000000074,8.995699999999488v12.666900000000169c0,6.527900000000955,1.75,11.876000000000204,5.253999999999905,16.050300000000789,3.501900000000205,4.174399999999878,8.659100000000763,6.261300000000119,15.47360000000026,6.261300000000119,9.306599999999889,0,16.025400000000445-4.318400000000111,20.152299999999741-12.95509999999922l8.348700000000463,5.614199999999983c-2.399400000000242,5.375499999998283-5.973700000000463,9.644599999999627-10.723699999999553,12.811099999998987-4.75,3.16649999999936-10.676699999999983,4.75-17.77730000000065,4.75Z"/><path class="uuid-c37d8f60-829d-4b1b-a6ce-e9c12b3d0182" d="M2526.329000000000633,245.142499999999927c-2.497000000003027,0-4.295799999998962-.597600000000966-5.397400000000744-1.798800000000483-1.104500000000371-1.199199999999109-1.655299999998533-2.756799999999203-1.655299999998533-4.67870000000039v-1.871099999998478c0-1.918500000001586.550799999998162-3.477500000000873,1.655299999998533-4.678200000000288,1.101600000001781-1.198800000000119,2.900399999997717-1.799300000000585,5.397400000000744-1.799300000000585,2.494199999998273,0,4.29399999999896.600500000000466,5.397500000000036,1.799300000000585,1.102499999999964,1.200699999999415,1.656299999998737,2.759699999998702,1.656299999998737,4.678200000000288v1.871099999998478c0,1.921900000001187-.553799999998773,3.479500000001281-1.656299999998737,4.67870000000039-1.103500000001077,1.201199999999517-2.903300000001764,1.798800000000483-5.397500000000036,1.798800000000483ZM2520.571199999997589,262.560499999999593h11.515699999999924v74.272899999999936h-11.515699999999924v-74.272899999999936Z"/><path class="uuid-c37d8f60-829d-4b1b-a6ce-e9c12b3d0182" d="M2584.481399999999667,338.560999999999694c-5.086900000002061,0-9.669000000000779-.91359999999986-13.746099999999387-2.73489999999947-4.08009999999922-1.822200000000521-7.581999999998516-4.438000000000102-10.507799999999406-7.84519999999975-2.928700000002209-3.40480000000025-5.181700000001001-7.484400000001187-6.76560000000336-12.23489999999947-1.58299999999781-4.75-2.374099999996361-10.09860000000117-2.374099999996361-16.049800000000687,0-5.851500000000669.791099999998551-11.177700000000186,2.374099999996361-15.977500000000873,1.583900000002359-4.796899999999368,3.836900000001151-8.899399999998423,6.76560000000336-12.306599999999889,2.925800000000891-3.405299999998533,6.427700000000186-6.02100000000064,10.507799999999406-7.844799999998941,4.077099999998609-1.822200000000521,8.659199999997327-2.734800000000178,13.746099999999387-2.734800000000178,4.989300000002004,0,9.451200000000426.908199999999852,13.386700000000019,2.725599999999758,3.933600000000297,1.817299999998795,7.292000000001281,4.329499999999825,10.076199999999517,7.532199999999648,2.782200000001467,3.203100000000632,4.916999999999462,7.003899999999703,6.405300000002171,11.402799999999843,1.486300000000483,4.399400000000242,2.231400000000576,9.228000000000975,2.231400000000576,14.486300000000483v5.451699999999619h-53.403300000001764v3.45509999999922c0,3.166500000001179.503899999999703,6.117200000000594,1.511699999999109,8.852000000000771,1.007799999999406,2.734900000001289,2.447299999999814,5.110399999999572,4.318400000000111,7.125,1.871100000000297,2.015699999999924,4.173800000000483,3.598700000000463,6.909100000000763,4.751000000000204,2.735400000000482,1.151400000000649,5.83009999999922,1.726599999999962,9.284199999998236,1.726599999999962,4.701200000002245,0,8.802800000001298-1.102600000000166,12.307599999999184-3.310600000000704,3.501000000001113-2.205999999998312,6.212000000004082-5.372999999999593,8.131900000001224-9.5l8.205100000002858,5.939500000000407c-2.399500000004082,5.119099999999889-6.142600000002858,9.246100000000297-11.227600000001985,12.38379999999961-5.086899999998423,3.137700000001132-11.132799999999406,4.707500000000437-18.136700000000019,4.707500000000437ZM2584.481399999999667,270.47649999999885c-3.167000000000371,0-6.04489999999987.548800000000483-8.635699999997996,1.646500000000742-2.591800000001967,1.097700000000259-4.822299999999814,2.647500000000946-6.69340000000102,4.648400000000038-1.871099999999387,2.002000000000407-3.335900000000947,4.363300000000891-4.390600000001541,7.081099999999424-1.056699999997363,2.718700000001263-1.583999999998923,5.698200000000725-1.583999999998923,8.941400000001522v1.000999999998385h41.023399999998219v-1.574699999999211c0-6.580599999999322-1.798799999997755-11.847700000000259-5.397399999998925-15.806200000000899-3.598699999997734-3.957999999998719-8.373099999999795-5.9375-14.322299999999814-5.9375Z"/><path class="uuid-c37d8f60-829d-4b1b-a6ce-e9c12b3d0182" d="M2651.990200000000186,336.833399999999529c-4.031300000000556,0-7.078099999998813-1.124499999999898-9.140599999998813-3.373499999999694-2.064500000000407-2.248999999999796-3.094800000002579-5.195299999999406-3.094800000002579-8.834500000000844v-51.846199999999953h-12.235300000001189v-10.218699999999444h6.909200000001874c2.494100000000799,0,4.197199999999611-.504899999999907,5.110300000001189-1.512699999999313.91019999999844-1.006800000001022,1.367200000000594-2.756800000001022,1.367200000000594-5.252900000001318v-13.819399999998495h10.363299999996343v20.584999999999127h16.26560000000336v10.218699999999444h-16.26560000000336v53.835000000000946h15.114199999999983v10.219199999999546h-14.393499999997402Z"/><path class="uuid-c37d8f60-829d-4b1b-a6ce-e9c12b3d0182" d="M2731.876899999999296,262.560499999999593h11.372100000000501l-33.251000000000204,91.545900000000984c-.863300000000891,2.207000000000335-1.727500000000873,4.052699999998367-2.590799999999945,5.54149999999936-.864299999999275,1.486800000000585-1.920900000000984,2.66359999999986-3.166999999999462,3.526899999998932-1.248100000002523.864199999999983-2.806700000001001,1.487300000000687-4.677800000001298,1.871000000001004-1.870999999999185.382400000000416-4.152299999997922.576199999999517-6.837799999997515.576199999999517h-5.901400000002468v-10.219699999999648h11.659200000001874l5.614199999999983-15.808600000000297-27.781200000002173-77.033199999999852h11.51560000000336l17.848599999995713,50.425800000000891,3.455100000001039,12.068799999999101h.718800000002375l4.031199999997625-12.068799999999101,17.992200000000594-50.425800000000891Z"/><path class="uuid-c37d8f60-829d-4b1b-a6ce-e9c12b3d0182" d="M1589.944317187500019,477.751990624999962l-3.6103515625-11.4755859375h-15.98828125l-3.5458984375,11.4755859375h-8.638671875l15.0859375-44.9990234375h10.5732421875l14.9560546875,44.9990234375h-8.83203125ZM1578.468731250000019,440.489295312499962h-.322265625l-5.7373046875,18.5029296875h11.8623046875l-5.802734375-18.5029296875Z"/><path class="uuid-c37d8f60-829d-4b1b-a6ce-e9c12b3d0182" d="M1633.979473437500019,477.751990624999962l-3.6103515625-11.4755859375h-15.98828125l-3.5458984375,11.4755859375h-8.638671875l15.0859375-44.9990234375h10.5732421875l14.9560546875,44.9990234375h-8.83203125ZM1622.503887500000019,440.489295312499962h-.322265625l-5.7373046875,18.5029296875h11.8623046875l-5.802734375-18.5029296875Z"/><path class="uuid-c37d8f60-829d-4b1b-a6ce-e9c12b3d0182" d="M196.722689315799471,379.626000000000204h-54.992198610779269v-9.128899999999703h54.992198610779269v9.128899999999703ZM189.566389496580086,476.832599999999729h-9.421289496579448v-10.005900000000111h-21.983000000000175v10.005900000000111h-9.566809468400606v-49.370600000000195h40.971098964980229v49.370600000000195ZM189.127989507659549,398.468800000000556l-40.386798979749074.145499999998719v-9.127899999999499h40.386798979749074v8.98240000000078ZM189.27398950396946,417.603100000000268h-40.532798976058984v-9.129899999999907h40.532798976058984v9.129899999999907ZM187.448289550090522,361.076699999999619l-37.100099062770823.145500000000538v-9.127900000001318h37.100099062770823v8.98240000000078ZM180.145100000000639,457.842800000000352v-21.396899999999732h-22.128509706401019v21.396899999999732h22.128509706401019ZM274.501987350929994,417.749099999999089l-78.947298005629818.14600000000064v-8.98240000000078h19.57229950556939l4.236299892980242-22.566399999999703h-18.257799538769177v-8.983899999999267h19.718799501859394l3.140599920659952-16.724099999999453h-27.971699293369966v-9.129000000000815h72.52049816796989v8.983400000000984h-34.690399123640418l-2.994188378559556,16.724699999998847h30.088887694089863l-3.140599920659952,31.547800000000279h16.724599577500157v8.983899999999267ZM261.794987671929448,477.12460000000101h-9.421887671929653v-9.859900000001289h-36.953111156539308v9.859900000001289h-9.568399758280066v-49.516100000000733h55.943398586749026v49.516100000000733ZM252.373099999999795,458.280800000000454v-21.689899999999398h-37.099611152840225v21.689899999999398h37.099611152840225ZM250.912100000000464,386.199800000000323h-21.68941150522005l-4.236299892980242,22.712899999998626h23.662099402239619l2.263611995960673-22.712899999998626Z"/><path class="uuid-c37d8f60-829d-4b1b-a6ce-e9c12b3d0182" d="M439.173883190959714,379.626000000000204h-132.771496645899788v-9.128899999999703h132.771496645899788v9.128899999999703ZM419.601583685399419,398.322299999999814h-94.941397601579411v-8.835900000000038h94.941397601579411v8.835900000000038ZM419.601583685399419,417.311100000000806h-94.941397601579411v-8.837900000000445h94.941397601579411v8.837900000000445ZM416.169983772089836,477.12460000000101h-9.421883772090041v-10.297900000001391h-68.503914259339581v10.297900000001391h-9.420899762000772v-49.662600000001476h87.346697793430394v49.662600000001476ZM416.023483775789828,360.127500000000509l-86.470697815560015.218799999998737v-8.836999999999534h86.470697815560015v8.618200000000797ZM406.748099999999795,457.842800000000352v-21.396899999999732h-68.503914259339581v21.396899999999732h68.503914259339581Z"/><path class="uuid-c37d8f60-829d-4b1b-a6ce-e9c12b3d0182" d="M603.847679030949621,450.68710000000101h-58.790998514808962v10.150899999998728c0,10.856400000000576-5.769580516140195,16.286600000001272-17.310580516141272,16.286600000001272h-9.712918801189517l-3.578081198809741-8.983400000000984h13.583999999999833c4.771480825499566,0,7.158180765210091-2.191899999999805,7.158180765210091-6.572799999999916v-10.881299999999101h-64.122998380120407v-9.129900000001726h64.122998380120407v-6.280799999998635c10.173819234789335-3.797300000000178,17.453099559099428-7.350099999999657,21.835899448380587-10.662100000001374h-55.943298586750643v-8.399900000000343h72.158218373159798v7.961900000002061c-7.597720004099756,5.161199999998644-16.994219766719652,10.44289999999819-28.191419483859136,15.847199999998338v1.533699999999953h58.790998514808962v9.129900000001726ZM597.712879185929523,423.590900000001056h-8.76559977855959v-15.117700000000696h-102.023397422669404v15.995100000000093h-9.568399758280066v-24.538099999999758h12.560617773578997v-44.550699999999779c6.91208173449013-.681200000000899,14.486281543150653-3.968300000000454,22.71478133528035-9.858400000000984l4.820299878230799,6.718699999999444c-4.433599887990567,4.089400000000751-10.470699735480594,7.182099999999991-18.113299542420464,9.274900000000343v6.134799999999814h18.695299527719726v7.595699999999852h-18.695299527719726v7.959900000001653h18.695299527719726v7.4487999999983h-18.695299527719726v9.276300000001356h77.632798038829606v-9.276300000001356h-17.820299549819538v-7.30370000000039h17.820299549819538v-8.54399999999805h-17.67379955351953v-7.448700000000827h17.67379955351953v-7.960500000001048h-20.667899477879473v-8.837399999998524h29.94331976795911v49.224199999998746h11.466779185930136v23.80710000000181ZM556.302780232040277,366.919499999999971l-5.111399870880632,6.280300000000352c-2.777280361159683-2.676800000001094-6.550699834509942-5.57470000000103-11.320280361160258-8.690500000000611-3.943319253239679,3.311100000000806-8.375,6.353100000000268-13.292919017048916,9.129000000000815l-5.988299848730094-5.25879999999961c4.722599880699818-1.947300000001633,8.859399776200007-4.235900000001493,12.415999686349096-6.864800000001196-5.94139984990943-2.238799999999173-10.736299728780068-3.797300000000178-14.388699636509045-4.673300000000381l3.726599905859985-6.72019999999975c5.402318910078975,1.363199999999779,10.831999726359754,3.117200000000594,16.285099588600133,5.258300000001327,3.457099912669946-3.260300000001735,6.353599839489107-6.595700000001671,8.691499780429695-10.005400000001828l6.13471954104989,4.89350000000195c-1.949219646779966,3.019099999999526-4.480519582830311,5.964899999999034-7.595719504140106,8.837499999997817,3.601599909020479,2.043400000000474,7.083999821049474,4.64890000000014,10.443399736180254,7.814400000001115ZM557.177780209939556,393.502000000000407l-6.132799845079717,4.820299999999406c-3.943399900379518-3.018000000000029-8.035199797010137-5.524900000000343-12.269599690040195-7.520999999998821-2.628899933590219,1.996099999998478-7.3026998155201,4.502999999998792-14.021499645789845,7.520999999998821l-5.550699859780252-4.381799999999203c6.279299841380634-2.968300000000454,10.783199727600731-5.551300000000992,13.511699658670295-7.740700000000288-2.728499931069564-1.703100000000632-6.865299826569753-3.603000000000975-12.415999686350006-5.697799999999916l5.476499861660159-4.599599999999555c5.013718996769967,1.802299999999377,9.298899765090027,3.676299999999173,12.85349967529055,5.622099999998682,1.361399965609962-.777399999999034,4.113299896089302-3.113799999999173,8.251999791539674-7.011199999999008l6.718699830270452,3.433099999998376c-2.48239993729112,3.214300000001458-5.255799867230962,5.868600000001607-8.324199789711201,7.96140000000014,4.040999897910297,1.850100000001476,8.0077997977005,4.38130000000092,11.902399699320085,7.594200000001365Z"/><path class="uuid-c37d8f60-829d-4b1b-a6ce-e9c12b3d0182" d="M768.373099999999795,450.68710000000101h-58.790999999999258v10.150899999998728c0,10.856400000000576-5.769623494370535,16.286600000001272-17.308623202870876,16.286600000001272h-9.712899754629689l-3.578099909609591-8.983400000000984h13.583899656840003c4.769599879509769,0,7.156299819220294-2.191899999999805,7.156299819220294-6.572799999999916v-10.881299999999101h-64.121098380170224v-9.129900000001726h64.121098380170224v-6.280799999998635c10.175799742939489-3.797300000000178,17.453099559099428-7.350099999999657,21.837899448329154-10.662100000001374h-55.943398586749936v-8.399900000000343h72.156298177169447v7.961900000002061c-7.595699808109202,5.161199999998644-16.994199570689489,10.44289999999819-28.191375647698806,15.847199999998338v1.533699999999953h58.790999999999258v9.129900000001726ZM762.240275029619625,423.590900000001056h-8.767599778509975v-15.117700000000696h-102.023397422669404v15.995100000000093h-9.566399758340594v-24.538099999999758h12.560499682700538v-44.550699999999779c6.914099825329686-.681200000000899,14.484399634089641-3.968300000000454,22.712899426220247-9.858400000000984l4.82029987822898,6.718699999999444c-4.42969988808909,4.089400000000751-10.468699735539303,7.182099999999991-18.113299542419554,9.274900000000343v6.134799999999814h18.697299527670111v7.595699999999852h-18.697299527670111v7.959900000001653h18.697299527670111v7.4487999999983h-18.697299527670111v9.276300000001356h77.632822485169527v-9.276300000001356h-17.818323996209074v-7.30370000000039h17.818323996209074v-8.54399999999805h-17.673823999859451v-7.448700000000827h17.673823999859451v-7.960500000001048h-20.667923924219394v-8.837399999998524h29.943299243569527v49.224199999998746h11.468799710270105v23.80710000000181ZM723.429676010059666,391.863800000000992l-6.654299831900062,6.083999999998923c-3.037099923280039-4.563500000000204-7.382799813489328-10.276299999999537-11.585899707310091-13.82470000000103-6.533199834959305,7.279300000001967-11.906299699228839,11.912100000001374-16.105499593149943,13.893100000001141l-6.583999833669623-5.528299999999945c4.949299874970166-2.354499999999462,10.316399739390363-6.752000000000407,16.107499593089415-13.203199999999924-6.583999833668713-4.101500000000669-11.275376637118825-6.637199999999211-14.076199644399821-7.605900000000474l5.74409985489001-5.940399999999499c2.33399994104002.922300000000178,6.718799830270655,3.315899999999601,13.165999667400683,7.189899999999398,1.916099951589786-3.135699999998906,3.406299913949624-6.568400000000111,4.480499886809412-10.302299999999377h-21.990199444479003v-8.638100000000122h11.788999702179353v-8.896999999999025h7.566423340480469v8.896999999999025h13.992176114908943v8.638100000000122h-2.769499930039274c-1.554676184870004,5.718299999998635-3.646499907880752,10.671399999999267-6.275399841470062,14.862800000000789,5.08989987142013,3.870199999999386,9.9745997480195,9.767099999999118,13.195299666659594,14.375Z"/><path class="uuid-c37d8f60-829d-4b1b-a6ce-e9c12b3d0182" d="M935.308599999999387,379.335499999999229l-5.257799999999406,7.594700000001467c-16.603500000000167-4.090299999999843-29.60149999999976-8.812900000000809-38.997999999999593-14.167900000000373v6.573199999998906h-49.371100000000297v-7.231899999998859c-14.216800000000148,7.352999999999156-26.972700000000259,12.149900000000343-38.269599999999627,14.388199999999415l-4.818300000000818-7.667999999999665c27.361300000000483-6.66990000000078,50.146500000000742-17.819800000001123,68.35740000000078-33.44970000000103l8.982399999998961,2.99460000000181c-.974599999999555,1.217299999998431-1.826099999999315,2.070299999999406-2.556599999999889,2.555199999998877,16.164099999999962,13.438500000000204,36.808600000000297,22.909200000000055,61.931599999999889,28.411599999999453ZM919.751999999999498,421.181200000000899h-106.040999999999258v-34.251000000000204h106.040999999999258v34.251000000000204ZM911.0625,477.269599999999627h-8.98239999999987v-5.842800000000352h-70.548800000000483v5.842800000000352h-8.982399999998961v-48.420399999999063h88.513599999999315v48.420399999999063ZM862.349600000000464,413.293999999999869v-18.257299999999304h-39.656200000000354v18.257299999999304h39.656200000000354ZM902.08010000000013,446.304799999999886v-9.420500000000175h-70.548800000000483v9.420500000000175h70.548800000000483ZM902.08010000000013,463.540600000000268v-9.568400000000111h-70.548800000000483v9.568400000000111h70.548800000000483ZM852.636800000000221,406.063500000000204l-7.521499999999833,5.25879999999961c-4.527400000000853-4.575199999999313-8.959000000000742-7.959899999999834-13.293000000000575-10.150799999999435l7.595700000000761-4.382400000000416c5.16019999999935,2.190500000000611,9.566399999999703,5.283199999999852,13.218799999999646,9.274400000000242ZM888.058599999999387,371.229100000000471c-7.060499999999593-3.700699999999415-13.902299999999741-8.691899999999805-20.523400000000038-14.973200000000361-7.060599999998885,5.84230000000025-14.970699999999852,10.834000000000742-23.734399999999368,14.973200000000361h44.257799999999406ZM910.771499999999833,413.293999999999869v-18.257299999999304h-39.4375v18.257299999999304h39.4375ZM901.933599999999387,399.34480000000076c-2.872999999999593,4.577099999998609-7.206999999999425,8.473099999999249-13,11.685499999999593l-8.033199999999852-4.016999999999825c6.378900000000613-3.602100000000064,10.759799999999814-7.206100000001243,13.144600000000537-10.808600000000297l7.888599999999315,3.14010000000053Z"/><path class="uuid-c37d8f60-829d-4b1b-a6ce-e9c12b3d0182" d="M197.621771613320561,281.630400000000009l-2.640599933291014,3.510800000000017c-10.179699742839148-3-18.441399534129232-7.039600000000064-24.779299374019502-12.120100000000093-5.462899862000086,4.460399999999936-14.040999645299962,8.580500000000029-25.74217912002041,12.360800000000381l-2.939420155419612-3.570300000001225c11.320299714020621-3.139699999999721,19.880799497760563-6.949699999999211,25.681599351220029-11.430199999998877-5.820299852959579-5.5-9.732399754140715-12.189900000001217-11.730499703659916-20.070299999999406-1.079999972719634,2.77980000000025-2.562499935270353,5.419899999998961-4.441399887799889,7.919899999998961l-3.177699919730003-2.909200000000055c2.519499936359352-3.001399999999194,4.546899885139283-6.29149999999936,6.087899846210348-9.870999999999185h-10.320299739290931v-3.690000000000509h24.062499392130121v-10.260200000000623h3.869099902260132v10.200200000001132h24.480499381570553v3.689399999999296h-10.261699740760378c-1.798899954559602,10.440899999999601-5.937499850009772,18.75-12.419999686249866,24.930200000000696,5.900420959519579,4.480900000000474,13.990299646579842,8.251399999999194,24.271499386850337,11.309999999999491ZM181.750693185989803,245.390199999999822h-23.218720585179653c1.59759995963941,9.260700000000725,5.50779986085945,16.709999999999127,11.728499703720445,22.35109999999986,6.080099846399207-5.660200000000259,9.910220881459281-13.110899999999674,11.490220881459209-22.35109999999986Z"/><path class="uuid-c37d8f60-829d-4b1b-a6ce-e9c12b3d0182" d="M341.642892562530506,274.640199999999822h-24.152299389860673v4.171399999999267c0,4.459500000000844-2.369199940149883,6.690400000001318-7.109399820399631,6.690400000001318h-3.990199899199979l-1.468799962900448-3.690400000001318h5.578122181280378c1.96100000000024,0,2.941477603500061-.900399999998626,2.941477603500061-2.699699999999211v-4.471700000000055h-26.339899334599977v-3.75h26.339899334599977v-2.579099999999016c4.179599894409876-1.559600000000501,7.169899818869453-3.020000000000437,8.968699773429762-4.380900000000111h-22.980499419460102v-3.450100000001839h29.640699251210208v3.270000000000437c-3.119199921199652,2.121100000000297-6.980499823660466,4.291000000001077-11.580099707460249,6.510700000000725v.629399999999805h24.152299389860673v3.75ZM339.123392626180248,263.510800000000017h-3.601599909019569v-6.209499999999025h-41.912098941211298v6.569399999998495h-3.929699900729247v-10.079599999999118h5.160199869649659v-18.300800000000891c2.839799928260618-.278800000000047,5.951199849660043-1.629899999999907,9.331999764250213-4.049799999998868l1.978499950019796,2.760299999999916c-1.818299954070426,1.680599999999686-4.300699891359727,2.95010000000002-7.441377787689817,3.809999999999491v2.519500000000335h7.681677781620238v3.120600000000195h-7.681677781620238v3.270599999999831h7.681677781620238v3.058599999998478h-7.681677781620238v3.811000000001513h31.89257716999964v-3.811000000001513h-7.322299815019505v-3h7.322299815019505v-3.509299999997893h-7.259799816600207v-3.060100000000602h7.259799816600207v-3.270500000000538h-8.490199785519508v-3.629399999999805h12.298799689309817v20.22019999999975h4.712899880940313v9.77980000000025ZM322.111693055930118,240.230999999999767l-2.101599946910028,2.578600000000733c-1.138699971229471-1.099599999999555-2.689399932060041-2.288500000000568-4.648399882570629-3.569300000001022-1.621099959049388,1.35989999999947-3.441377554999235,2.60989999999947-5.460999862039898,3.75l-2.458899937889328-2.159200000000055c1.939399951009364-.800799999999072,3.638599908080323-1.740199999998367,5.099599871179635-2.820299999999406-2.441399938330505-.919899999998961-4.412077626249811-1.559999999999491-5.910199850699428-1.920899999999165l1.531299961319746-2.760200000000623c2.218699943950014.560499999999593,4.449199887600116,1.280699999999342,6.689399831009723,2.160599999999249,1.419899964130309-1.338400000000547,2.609422432120482-2.709999999999127,3.568422432120315-4.110300000000279l2.521477414030414,2.010200000000623c-.80079997977009,1.239799999999377-1.841799953470399,2.451199999999517-3.119199921200561,3.630900000000111,1.478499962649948.838799999999537,2.90819992652996,1.909100000000763,4.289099891650039,3.209899999999834ZM322.471093046850001,251.150900000000547l-2.51959993635046,1.979499999999462c-1.619099959099913-1.240200000000186-3.300799916609321-2.270000000000437-5.040999872649991-3.089799999999741-1.080099972719836.819799999999304-2.999999924219082,1.849599999999555-5.759799854498851,3.089799999999741l-2.281199942370222-1.800699999999779c2.581999934769556-1.219300000000658,4.431599888050187-2.278800000000047,5.550822230469748-3.178799999999683-1.119222342419562-.70010000000002-2.820322299449799-1.479400000000169-5.099622241869838-2.339799999999741l2.249999943160219-1.891100000000733c2.060499947949211.740700000000288,3.820299903489285,1.511200000000827,5.281199866589304,2.310999999999694.560599985839872-.320299999999406,1.68949995731964-1.27980000000025,3.3886999143906-2.880800000000818l2.759722517729642,1.410600000001068c-1.019522561690792,1.319799999999304-2.158222532920263,2.410700000000361-3.417922501100293,3.269500000000335,1.658199958110345.759799999999814,3.28709991695996,1.799399999999878,4.888699876500141,3.120600000000195Z"/><path class="uuid-c37d8f60-829d-4b1b-a6ce-e9c12b3d0182" d="M444.00676456409019,251.900499999999738c4.040999897909387,4.540000000000873,6.062499846849278,8.970699999999852,6.062499846849278,13.290500000000975,0,2.100099999999657-.544899986240125,3.770499999998719-1.636676219609399,5.009799999999814-1.087923711559597,1.240699999998469-2.613323673030209,1.860799999998562-4.57422362349007,1.860799999998562-1.080099972719836,0-2.380899939859773-.131399999998393-3.900399901469427-.389699999999721l-1.109376475040335-3.991699999998673c2.140576448990032.541999999999462,3.679676410110005.811599999999089,4.619076386379675.811599999999089.779299980309588,0,1.490299962350036-.300799999999072,2.130923613620325-.900899999998728.640576316360239-.599100000001272.96087630826969-1.399400000002061.96087630826969-2.399900000000343,0-1.499500000001717-.550699986089967-3.419400000000678-1.650399958310118-5.760800000000017-1.101476349959739-2.339299999999639-2.75189993047934-4.569800000001123-4.951099874919237-6.688900000001013l5.851499852179586-15.031299999998737h-8.910099774910123v47.791999999999462h-3.931699900679632v-51.601500000000669h16.830099574839551v3.809500000001208l-5.790999853709764,14.190499999998792ZM485.379863518920502,274.491799999999785c-.521499986830349,3.239700000000084-1.220799969159998,5.590299999999843-2.101599946910937,7.049300000000585-.878899977798937,1.460399999999936-2.310599941629334,2.190399999999499-4.289099891650039,2.190399999999499h-4.679699881779015c-3.121099921159839,0-4.679599881790637-1.640599999998813-4.679599881790637-4.91990000000078v-15.870100000000093h-6.332099840030423c-.119099996989462,6.439900000001217-1.374999965270035,11.264100000000326-3.763699904919122,14.475100000001476-2.390599939610183,3.209399999999732-6.824199827609846,5.90519999999924-13.306599663850648,8.085399999999936l-2.519499936350257-3.451100000000224c6.019499847931002-1.779300000000148,10.150399743581147-4.08009999999922,12.390623619690814-6.899999999999636,2.240176010700452-2.819800000001123,3.36907598218022-6.870100000000093,3.390575981639813-12.149400000000242h-8.220699792330379v-3.931099999999788h32.132799188260833v3.871099999998478h-10.023399746790346v14.940400000001318c0,.499499999999898.160199995959374.964899999999034.48049998785973,1.394500000000335.320299991909451.430699999998978.701099982289634.645099999999729,1.140599971190568.645099999999729h3.810499903739583c.779299980310498,0,1.374999965260031-.640699999999924,1.785199954899326-1.920000000000073.408199989690729-1.279300000000148.753924551530872-2.939900000001217,1.035199973850467-4.980400000000373l3.74999990527067,1.470699999999852ZM481.92866360609969,247.280300000000352l-3.808599903790309.061099999998987v-5.281799999998839h-22.62109942853931v5.281799999998839h-3.871099902209608v-9.091300000000047h13.169899667299433v-6.809599999998682h3.931699900679632v6.750500000000102h13.199199666560162v9.089299999999639ZM476.889588191329494,253.070400000000518h-20.281223945579768v-3.930200000000696h20.281223945579768v3.930200000000696Z"/><path class="uuid-c37d8f60-829d-4b1b-a6ce-e9c12b3d0182" d="M631.24659752810021,274.640199999999822h-24.152299999999741v4.171399999999267c0,4.459500000000844-2.371100000000297,6.690400000001318-7.109400000000278,6.690400000001318h-3.990200000000186l-1.470699999999852-3.690400000001318h5.58010000000013c1.960900000000038,0,2.941399999999703-.900399999998626,2.941399999999703-2.699699999999211v-4.471700000000055h-26.341824835330044v-3.75h26.341824835330044v-2.579099999999016c4.179700000000594-1.559600000000501,7.16989999999987-3.020000000000437,8.968699999999444-4.380900000000111h-22.980525146809669v-3.450100000001839h29.640725146809928v3.270000000000437c-3.119199999999182,2.121100000000297-6.980499999999665,4.291000000001077-11.58009999999922,6.510700000000725v.629399999999805h24.152299999999741v3.75ZM628.72519752810058,263.510800000000017h-3.599700000000666v-6.209499999999025h-41.91012499982935v6.569399999998495h-3.931699900680542v-10.079599999999118h5.16219986959004v-18.300800000000891c2.837799928309323-.278800000000047,5.949199849710567-1.629899999999907,9.328125030920091-4.049799999998868l1.980499999999665,2.760299999999916c-1.820399999999609,1.680599999999686-4.298925207999673,2.95010000000002-7.439525128659625,3.809999999999491v2.519500000000335h7.679725128659811v3.120600000000195h-7.679725128659811v3.270599999999831h7.679725128659811v3.058599999998478h-7.679725128659811v3.811000000001513h31.890625128659849v-3.811000000001513h-7.320300000000316v-3h7.320300000000316v-3.509299999997893h-7.259699999999611v-3.060100000000602h7.259699999999611v-3.270500000000538h-8.490200000000186v-3.629399999999805h12.298799999999574v20.22019999999975h4.71100000000115v9.77980000000025ZM611.715397528099857,240.230999999999767l-2.101599999999962,2.578600000000733c-1.140599999999722-1.099599999999555-2.689400000000205-2.288500000000568-4.650399999999536-3.569300000001022-1.619099999999889,1.35989999999947-3.439400000000205,2.60989999999947-5.45890000000054,3.75l-2.46100000000024-2.159200000000055c1.941400000000613-.800799999999072,3.642600000001039-1.740199999998367,5.101599999999962-2.820299999999406-2.441399999999703-.919899999998961-4.41019999999935-1.559999999999491-5.91019999999935-1.920899999999165l1.529299999999239-2.760200000000623c2.220700000000761.560499999999593,4.451200000000426,1.280699999999342,6.689500000000407,2.160599999999249,1.41990000000078-1.338400000000547,2.611300000000483-2.709999999999127,3.572200000000521-4.110300000000279l2.519599999999627,2.010200000000623c-.800799999999981,1.239799999999377-1.841800000000148,2.451199999999517-3.121100000000297,3.630900000000111,1.480400000000373.838799999999537,2.910100000000966,1.909100000000763,4.291000000000167,3.209899999999834ZM612.074797528100135,251.150900000000547l-2.519599999999627,1.979499999999462c-1.621100000000297-1.240200000000186-3.300700000000688-2.270000000000437-5.039000000000669-3.089799999999741-1.082099999999627.819799999999304-3,1.849599999999555-5.761700000000019,3.089799999999741l-2.279299999999239-1.800699999999779c2.579999999999927-1.219300000000658,4.429599999999482-2.278800000000047,5.550699999999779-3.178799999999683-1.121100000000297-.70010000000002-2.822200000000521-1.479400000000169-5.101500000000669-2.339799999999741l2.25-1.891100000000733c2.060500000000502.740700000000288,3.820300000000316,1.511200000000827,5.279300000000148,2.310999999999694.560499999999593-.320299999999406,1.689400000000205-1.27980000000025,3.390600000000632-2.880800000000818l2.759799999999814,1.410600000001068c-1.019599999999627,1.319799999999304-2.160200000000259,2.410700000000361-3.420000000000073,3.269500000000335,1.660200000000259.759799999999814,3.29110000000037,1.799399999999878,4.890699999999924,3.120600000000195Z"/><path class="uuid-c37d8f60-829d-4b1b-a6ce-e9c12b3d0182" d="M776.241356039929997,282.501500000000306h-54.599599999999555v-3.869599999999991h25.43940000001021v-14.070799999999508h-18.330000000010841v-3.870100000000093h18.330000000010841v-12.240200000000186h-13.589800000010655c-1.640600000000632,4.259200000000419-4.380900000000111,8.189399999999296-8.220699999999852,11.789499999998952l-3.959000000000742-2.070299999999406c6.558600000000297-6.059600000000501,10.209000000000742-13.47899999999936,10.949200000000928-22.259299999999712l4.050799999999072,1.169899999998961c-.160200000009354,2.040100000000166-.630900000009206,4.559600000000501-1.41209999998955,7.559600000000501h12.122999999989588v-13.139600000000428h4.048899999990681v13.079999999999927h21.179700000009689v3.870200000001205h-21.179700000009689v12.179599999999482h18.060499999999593v3.870199999999386h-18.060499999999593v14.071200000000317h25.169900000009875v3.929700000000594Z"/><path class="uuid-c37d8f60-829d-4b1b-a6ce-e9c12b3d0182" d="M921.657926969429354,245.32970000000023l-2.158199999999852,3.121100000000297c-6.820299999999406-1.679700000000594-12.162099999999555-3.619700000001103-16.021499999998923-5.820400000000518v2.699300000000221h-20.281200000000354v-2.969300000000658c-5.83980000000065,3.02100000000064-11.08010000000013,4.989799999999377-15.718799999999646,5.910700000000361l-1.980400000000373-3.150400000000445c11.240200000000186-2.740700000000288,20.599599999999555-7.320799999999508,28.08009999999922-13.740700000000288l3.689400000001115,1.230400000000373c-.400400000000445.5-.75.85109999999986-1.048800000000483,1.050300000000789,6.638699999999517,5.519500000000335,15.121100000000297,9.409700000000157,25.439399999999296,11.668999999999869ZM915.26932696943004,262.521600000000035h-43.560599999999795v-14.070799999999508h43.560599999999795v14.070799999999508ZM911.698926969430431,285.561100000000806h-3.691400000000613v-2.399900000000343h-28.980399999999463v2.399900000000343h-3.689500000000407v-19.889600000000428h36.361300000000483v19.889600000000428ZM891.687226969429503,259.280300000000352v-7.5h-16.28899999999885v7.5h16.28899999999885ZM908.007526969429819,272.841399999999339v-3.870599999998376h-28.980399999999463v3.870599999998376h28.980399999999463ZM908.007526969429819,279.921500000000378v-3.929700000000594h-28.980399999999463v3.929700000000594h28.980399999999463ZM887.697026969430226,256.311100000000806l-3.08980000000065,2.159700000000157c-1.859399999999368-1.87840000000142-3.679699999999684-3.269600000001446-5.458999999998923-4.169499999999971l3.119099999999889-1.799800000000687c2.121099999999387.898999999999432,3.929699999999684,2.170000000000073,5.429699999999684,3.809600000000501ZM902.247826969430207,242.001500000000306c-2.900400000000445-1.520000000000437-5.709000000000742-3.57129999999961-8.429700000000594-6.152299999999741-2.902399999999034,2.400899999998728-6.150399999999536,4.452100000000428-9.75,6.152299999999741h18.179700000000594ZM911.577926969429427,259.280300000000352v-7.5h-16.199299999999312v7.5h16.199299999999312ZM907.948926969430431,253.550900000000183c-1.181599999999889,1.879300000000512-2.960900000000038,3.479400000000169-5.341700000000856,4.799299999998766l-3.298899999999776-1.648999999999432c2.619200000000092-1.480399999998554,4.41990000000078-2.960900000000038,5.400400000000445-4.440399999999499l3.240200000000186,1.290100000000166Z"/></g></svg>