<?xml version="1.0" encoding="UTF-8"?><svg id="uuid-0414cc98-499d-4948-a016-839c95fb1497" xmlns="http://www.w3.org/2000/svg" width="223.376167810014664mm" height="389.032920546200728mm" xmlns:xlink="http://www.w3.org/1999/xlink" viewBox="0 0 633.192296215147508 1102.770500000000538"><defs><style>.uuid-0fdbe92b-673e-421f-ae23-4ea11e722507{clip-path:url(#uuid-266b1651-ce9b-46ed-8805-3445c17a15eb);}.uuid-6353e38f-b8cc-4c7d-afdb-5bbda65c8473{fill:#00c2f3;}.uuid-6227e9a2-d722-445e-9c05-ec92a7f09497{fill:#fff;}.uuid-4626f916-033a-4822-8a26-9fa2784d999f{fill:#ee212e;}.uuid-3f6529ea-d8a6-4a41-8cde-4f6a172525ab{fill:none;}.uuid-bfd36b99-c688-4a86-8646-9a9ea2e8f202{fill:#333e48;}.uuid-6420b1e4-4d9e-4aa5-b498-2228ef9d78f2{fill:#46bc96;}</style><clipPath id="uuid-266b1651-ce9b-46ed-8805-3445c17a15eb"><rect class="uuid-3f6529ea-d8a6-4a41-8cde-4f6a172525ab" width="633.192296215147508" height="1102.770500000000538"/></clipPath></defs><g class="uuid-0fdbe92b-673e-421f-ae23-4ea11e722507"><path class="uuid-4626f916-033a-4822-8a26-9fa2784d999f" d="M77.711900000000242,170.747999999999593c3.777299999999741,0,6.837899999999536,3.060600000000704,6.837899999999536,6.836900000000242-.001999999999498-.139600000000428-.005900000000111-.278299999999945-.005900000000111-.418900000000576,0-51.154300000000148,41.468800000000556-92.623099999998885,92.623099999999795-92.623099999998885,3.77730000000065,0,6.837800000000243-3.060499999999593,6.837800000000243-6.837900000000445,0-3.776299999999537-3.060499999999593-6.837900000000445-6.837800000000243-6.837900000000445-14.343799999999646,0-28.265699999999924,2.8125-41.380899999999201,8.359400000001187-12.658200000000761,5.354499999999462-24.025400000000445,13.016599999999016-33.783200000000761,22.774399999998423-9.757799999999406,9.758800000001429-17.421899999999368,21.125-22.775399999999536,33.784200000001874-5.546900000000278,13.115299999999479-8.359400000000278,27.037099999999555-8.359400000000278,41.380899999998292,0,.140600000000632.003899999998794.279300000000148.005900000000111.418900000000576,0-3.776299999999537,3.060499999998683-6.836900000000242,6.837900000000445-6.836900000000242Z"/><path class="uuid-6420b1e4-4d9e-4aa5-b498-2228ef9d78f2" d="M170.331000000000131,276.627899999999499c0-3.77639999999883,3.060599999999795-6.837899999998626,6.835999999999331-6.837899999998626-51.015699999999924,0-92.39259999999922-41.242200000000594-92.617199999999684-92.205100000001039,0-3.776299999999537-3.060599999999795-6.836900000000242-6.837899999999536-6.836900000000242-3.777400000001762,0-6.837900000000445,3.060600000000704-6.837900000000445,6.836900000000242.054699999999684,14.19629999999961,2.861300000000483,27.975599999999758,8.353500000000167,40.962900000000445,5.353500000000167,12.659200000000055,13.01760000000013,24.025399999998626,22.775399999999536,33.783199999999852,9.757800000000316,9.75879999999961,21.125,17.420899999999165,33.783200000000761,22.775400000000445,13.115199999999277,5.546899999999368,27.037099999999555,8.359399999999368,41.380899999999201,8.359399999999368-3.775399999999536,0-6.835999999999331-3.061499999999796-6.835999999999331-6.837900000000445Z"/><path class="uuid-6353e38f-b8cc-4c7d-afdb-5bbda65c8473" d="M251.266599999999926,243.703099999998813c-2.670000000000073-2.670899999999165-6.998099999999795-2.670899999999165-9.670000000000073,0-16.671800000000076,16.145500000000538-39.386700000000019,26.086900000002061-64.429600000000391,26.086900000002061-3.775399999999536,0-6.835999999999331,3.061499999999796-6.835999999999331,6.837899999998626,0,3.776400000000649,3.060599999999795,6.837900000000445,6.835999999999331,6.837900000000445,14.345700000000761,0,28.267500000000837-2.8125,41.382800000000316-8.359399999999368,12.203099999999722-5.160200000000259,23.199200000000019-12.47360000000117,32.716800000000148-21.73240000000078,2.671800000000076-2.670900000000984,2.671800000000076-7,0-9.670900000000984Z"/><path class="uuid-6353e38f-b8cc-4c7d-afdb-5bbda65c8473" d="M233.459899999999834,120.875c-15.035100000000057-15.035200000000259-35.027299999999741-23.315500000000611-56.292900000000373-23.315500000000611-21.261799999999312,0-41.253999999999905,8.280300000000352-56.29109999999946,23.315500000000611-15.035100000000057,15.036099999999351-23.316400000001522,35.027299999999741-23.316400000001522,56.290999999999258,0,21.265600000000632,8.281300000001465,41.254900000001726,23.316400000001522,56.292000000001281,15.037099999999555,15.035099999999147,35.029300000000148,23.317399999999907,56.29109999999946,23.317399999999907,21.265600000000632,0,41.257800000000316-8.28230000000076,56.292900000000373-23.317399999999907,15.035200000000259-15.037099999999555,23.314500000000407-35.026400000000649,23.314500000000407-56.292000000001281,0-21.263699999999517-8.279300000000148-41.254899999999907-23.314500000000407-56.290999999999258Z"/><path class="uuid-bfd36b99-c688-4a86-8646-9a9ea2e8f202" d="M121.063400000000001,202.911099999999351v-51.489299999999275h11.167999999999665v3.806699999999182h-6.47269999999935v43.876900000001115h6.47269999999935v3.805699999998978h-11.167999999999665Z"/><path class="uuid-bfd36b99-c688-4a86-8646-9a9ea2e8f202" d="M233.272399999999834,151.421800000000076v51.489299999999275h-11.16399999999976v-3.805699999998978h6.468699999999444v-43.876900000001115h-6.468699999999444v-3.806699999999182h11.16399999999976Z"/><path class="uuid-6227e9a2-d722-445e-9c05-ec92a7f09497" d="M146.998999999999796,187.625899999999092c0,1.028400000001056.015599999999722,2.242200000000594.046900000000278,3.635800000000017.031199999999444,1.394500000000335.076100000000224,2.8125.130799999999908,4.248000000001412.052799999999479,1.4375.115299999999479,2.811499999999796.193400000000111,4.120099999998274.072199999999611,1.308600000000297.16399999999976,2.402400000000853.271499999999833,3.281300000000556h-6.595699999999852v-36.364299999999275c0-3.132799999999406-.052800000000389-5.968700000001263-.162199999999757-8.511699999999109-.105400000000373-2.543000000001484-.267500000000837-4.748000000001412-.48240000000078-6.613300000000891h6.597700000000259v36.204099999999016Z"/><path class="uuid-6227e9a2-d722-445e-9c05-ec92a7f09497" d="M175.801699999999983,170.085900000000038v4.216800000000148h-6.050799999999981v24.393500000000131h6.050799999999981v4.215899999999237h-18.021499999999833v-4.215899999999237h5.953199999999924v-24.393500000000131h-5.953199999999924v-4.216800000000148h18.021499999999833Z"/><path class="uuid-6227e9a2-d722-445e-9c05-ec92a7f09497" d="M189.317299999999705,170.085900000000038c.128900000000613.344699999999648.257900000000518.789099999999962.386800000000221,1.337900000000445.128899999999703.545899999999165.246100000000297,1.119099999999889.353500000000167,1.720699999999852.105399999999463.599599999999555.203099999999722,1.190399999999499.291000000000167,1.769500000000335l.255899999999201,1.447299999999814c2.060500000000502-2.445300000001225,4.128900000000613-4.209000000000742,6.210900000000038-5.293000000001484,2.08010000000013-1.082999999998719,4.25-1.625,6.5-1.625,1.716800000000148,0,3.234400000000278.284200000001874,4.554700000000594.851600000001781,1.318299999999908.570299999999406,2.429699999999684,1.470699999998033,3.33010000000013,2.703099999998813.900299999999334,1.234400000001187,1.581999999999425,2.834000000000742,2.04489999999987,4.795900000000984.460900000000038,1.96389999999883.691399999999703,4.327199999999721.691399999999703,7.096699999998236v14.480500000001484c0,3.625899999999092-.318400000000111,6.635699999998906-.951199999999517,9.027299999999741-.630800000000818,2.39259999999922-1.51760000000013,4.301799999999275-2.654300000000148,5.730499999999665-1.136700000000019,1.423800000000483-2.505799999999908,2.433600000000297-4.103500000000167,3.022399999999834-1.597700000000259.590799999999945-3.373000000000502.885800000000017-5.326200000000426.885800000000017-.964799999999741,0-2-.155300000000352-3.105399999999463-.466800000000148-1.10360000000037-.311599999999089-2.107500000000073-.745100000000093-3.007900000000518-1.30370000000039l2.091800000000148-4.827199999999721c.494200000000092.365200000000186,1.152399999999943.66990000000078,1.97860000000037.918000000001484.826100000000224.246099999998478,1.66989999999987.369099999999889,2.525300000000243.369099999999889,1.031299999999646,0,1.953199999999924-.166000000001077,2.769599999999627-.498000000001412.814400000000205-.332999999998719,1.505799999999908-.915999999999258,2.074200000000019-1.753899999999703.570300000000316-.836900000000242,1.003899999999703-1.984399999999368,1.304699999999684-3.443400000000111s.449200000000019-3.315399999999499.449200000000019-5.567399999999907v-14.160099999999147c0-2.574200000000928-.132799999999406-4.661200000000463-.400399999999536-6.25879999999961-.269500000000335-1.598700000000463-.671900000000278-2.843800000000556-1.208999999999833-3.733400000000984-.535100000000057-.889699999999721-1.205000000000837-1.485399999999572-2.011700000000019-1.787099999999555-.802700000000186-.298899999999776-1.742200000000594-.450200000001132-2.814400000000205-.450200000001132-1.158199999999852,0-2.289099999999962.273400000001857-3.394600000000537.822200000000521-1.103499999999258.546899999999368-2.119099999999889,1.254899999999907-3.042899999999463,2.123100000000704-.921900000000278.868199999998978-1.736399999999776,1.849599999999555-2.443400000000111,2.945299999999406-.708999999999833,1.093800000000556-1.234400000000278,2.1875-1.578099999999722,3.281300000000556v18.665999999999258h-5.953199999999924v-19.791999999999462c0-3.174800000000687-.183500000000095-5.862300000000687-.548800000000483-8.061499999999796-.363299999999981-2.199300000000221-.718700000000354-3.856499999999869-1.060499999999593-4.972700000000259h5.792899999999463Z"/><rect class="uuid-3f6529ea-d8a6-4a41-8cde-4f6a172525ab" x="100.296346093749889" y="1006.509724999999889" width="368.1259765625" height="46.6611328125"/><path class="uuid-bfd36b99-c688-4a86-8646-9a9ea2e8f202" d="M122.014119531249889,1015.954060937499889l-2.9404296875,3.4033203125c-2.05859375-1.6806640625-4.07470703125-2.4365234375-6.42724609375-2.4365234375-2.5205078125,0-4.24267578125,1.091796875-4.24267578125,3.150390625,0,2.0166015625,1.09228515625,2.8564453125,5.8388671875,4.326171875,5.2509765625,1.6806640625,8.61181640625,3.865234375,8.61181640625,9.2421875,0,5.3349609375-4.20068359375,9.0732421875-11.25830078125,9.0732421875-4.83056640625,0-8.359375-1.7216796875-10.75390625-4.07421875l3.19287109375-3.4873046875c2.10009765625,1.806640625,4.41064453125,2.8994140625,7.39306640625,2.8994140625,2.98291015625,0,4.9990234375-1.4287109375,4.9990234375-3.9912109375,0-2.310546875-1.13427734375-3.318359375-5.544921875-4.6630859375-6.30126953125-1.9736328125-8.82177734375-4.494140625-8.82177734375-8.9052734375,0-4.95703125,4.28515625-8.19140625,10.166015625-8.19140625,4.32666015625,0,7.26708984375,1.3017578125,9.78759765625,3.654296875Z"/><path class="uuid-bfd36b99-c688-4a86-8646-9a9ea2e8f202" d="M145.659627343749889,1032.715779687499889h-13.904296875c.419921875,4.2841796875,2.4365234375,5.544921875,5.29296875,5.544921875,1.89013671875,0,3.486328125-.5888671875,5.4189453125-1.9326171875l2.478515625,3.3603515625c-2.1845703125,1.7646484375-4.95703125,3.0244140625-8.44384765625,3.0244140625-7.14111328125,0-10.8798828125-4.705078125-10.8798828125-11.677734375,0-6.7216796875,3.61279296875-11.9306640625,10.1240234375-11.9306640625,6.30078125,0,10.03955078125,4.201171875,10.03955078125,11.30078125,0,.755859375-.083984375,1.6796875-.1259765625,2.310546875ZM139.862752343749889,1028.724568749999889c0-3.3603515625-1.13427734375-5.544921875-3.99072265625-5.544921875-2.3525390625,0-3.78076171875,1.5546875-4.11669921875,5.796875h8.107421875v-.251953125Z"/><path class="uuid-bfd36b99-c688-4a86-8646-9a9ea2e8f202" d="M165.650838281249889,1021.792928124999889l-2.2685546875,3.4033203125c-1.80615234375-1.134765625-3.61279296875-1.7646484375-5.544921875-1.7646484375-1.974609375,0-3.06640625.7978515625-3.06640625,2.0166015625,0,1.3017578125.755859375,1.890625,4.66259765625,3.0244140625,4.45263671875,1.2177734375,6.97314453125,3.06640625,6.97314453125,7.015625,0,4.6201171875-4.32666015625,7.224609375-9.61962890625,7.224609375-3.86474609375,0-6.97314453125-1.3017578125-9.07373046875-3.234375l2.94091796875-3.2763671875c1.68017578125,1.3017578125,3.73828125,2.1845703125,5.96484375,2.1845703125s3.65478515625-.9248046875,3.65478515625-2.4365234375c0-1.6806640625-.79833984375-2.2265625-4.9150390625-3.361328125-4.49462890625-1.259765625-6.59521484375-3.486328125-6.59521484375-6.8466796875,0-3.7802734375,3.44482421875-6.6376953125,8.82177734375-6.6376953125,3.234375,0,5.96484375,1.0087890625,8.0654296875,2.6884765625Z"/><path class="uuid-bfd36b99-c688-4a86-8646-9a9ea2e8f202" d="M185.768514062499889,1021.792928124999889l-2.2685546875,3.4033203125c-1.80615234375-1.134765625-3.61279296875-1.7646484375-5.544921875-1.7646484375-1.974609375,0-3.06640625.7978515625-3.06640625,2.0166015625,0,1.3017578125.755859375,1.890625,4.66259765625,3.0244140625,4.45263671875,1.2177734375,6.97314453125,3.06640625,6.97314453125,7.015625,0,4.6201171875-4.32666015625,7.224609375-9.61962890625,7.224609375-3.86474609375,0-6.97314453125-1.3017578125-9.07373046875-3.234375l2.94091796875-3.2763671875c1.68017578125,1.3017578125,3.73828125,2.1845703125,5.96484375,2.1845703125s3.65478515625-.9248046875,3.65478515625-2.4365234375c0-1.6806640625-.79833984375-2.2265625-4.9150390625-3.361328125-4.49462890625-1.259765625-6.59521484375-3.486328125-6.59521484375-6.8466796875,0-3.7802734375,3.44482421875-6.6376953125,8.82177734375-6.6376953125,3.234375,0,5.96484375,1.0087890625,8.0654296875,2.6884765625Z"/><path class="uuid-bfd36b99-c688-4a86-8646-9a9ea2e8f202" d="M197.022420312499889,1011.795857812499889c0,1.9736328125-1.51220703125,3.486328125-3.65478515625,3.486328125-2.14208984375,0-3.6123046875-1.5126953125-3.6123046875-3.486328125,0-1.974609375,1.47021484375-3.4873046875,3.6123046875-3.4873046875,2.142578125,0,3.65478515625,1.5126953125,3.65478515625,3.4873046875ZM196.392537499999889,1042.040974999999889h-5.96533203125v-22.263671875h5.96533203125v22.263671875Z"/><path class="uuid-bfd36b99-c688-4a86-8646-9a9ea2e8f202" d="M222.266560937499889,1030.909139062499889c0,7.056640625-3.99072265625,11.8037109375-10.669921875,11.8037109375-6.63720703125,0-10.669921875-4.41015625-10.669921875-11.8037109375,0-7.099609375,3.99072265625-11.8046875,10.7119140625-11.8046875,6.63720703125,0,10.6279296875,4.4111328125,10.6279296875,11.8046875ZM207.144002343749889,1030.909139062499889c0,5.125,1.51220703125,7.3515625,4.45263671875,7.3515625s4.45263671875-2.2685546875,4.45263671875-7.3515625c0-5.125-1.51220703125-7.3515625-4.41064453125-7.3515625-2.982421875,0-4.49462890625,2.2685546875-4.49462890625,7.3515625Z"/><path class="uuid-bfd36b99-c688-4a86-8646-9a9ea2e8f202" d="M245.450154687499889,1025.826131249999889v16.21484375h-5.96484375v-15.20703125c0-2.5625-.92431640625-3.2763671875-2.4365234375-3.2763671875-1.72216796875,0-3.06640625,1.134765625-4.28466796875,3.1083984375v15.375h-5.96533203125v-22.263671875h5.1669921875l.4619140625,2.814453125c1.806640625-2.2265625,3.99072265625-3.4873046875,6.80517578125-3.4873046875,3.90673828125,0,6.21728515625,2.5205078125,6.21728515625,6.7216796875Z"/><path class="uuid-bfd36b99-c688-4a86-8646-9a9ea2e8f202" d="M279.091267968749889,1020.617146874999889c0,4.62109375-2.8564453125,8.5693359375-12.09814453125,16.802734375h12.7705078125l-.63037109375,4.62109375h-18.9453125v-4.3271484375c10.0400390625-9.619140625,12.7705078125-12.8115234375,12.7705078125-16.5927734375,0-2.5625-1.55419921875-4.2001953125-4.20068359375-4.2001953125-2.310546875,0-3.82275390625.923828125-5.544921875,2.982421875l-3.69677734375-2.8984375c2.310546875-2.982421875,5.376953125-4.705078125,9.82958984375-4.705078125,6.42724609375,0,9.74560546875,3.7802734375,9.74560546875,8.3173828125Z"/><path class="uuid-bfd36b99-c688-4a86-8646-9a9ea2e8f202" d="M303.913533593749889,1027.464803124999889c0,9.9130859375-3.5703125,15.248046875-10.20751953125,15.248046875s-10.2080078125-5.3349609375-10.2080078125-15.248046875c0-9.9140625,3.57080078125-15.1650390625,10.2080078125-15.1650390625s10.20751953125,5.2509765625,10.20751953125,15.1650390625ZM289.631307031249889,1027.464803124999889c0,8.1494140625,1.30224609375,10.75390625,4.07470703125,10.75390625,2.73046875,0,4.07470703125-2.478515625,4.07470703125-10.75390625s-1.34423828125-10.7119140625-4.07470703125-10.7119140625c-2.7724609375,0-4.07470703125,2.6044921875-4.07470703125,10.7119140625Z"/><path class="uuid-bfd36b99-c688-4a86-8646-9a9ea2e8f202" d="M326.131307031249889,1020.617146874999889c0,4.62109375-2.8564453125,8.5693359375-12.09814453125,16.802734375h12.7705078125l-.63037109375,4.62109375h-18.9453125v-4.3271484375c10.0400390625-9.619140625,12.7705078125-12.8115234375,12.7705078125-16.5927734375,0-2.5625-1.55419921875-4.2001953125-4.20068359375-4.2001953125-2.310546875,0-3.82275390625.923828125-5.544921875,2.982421875l-3.69677734375-2.8984375c2.310546875-2.982421875,5.376953125-4.705078125,9.82958984375-4.705078125,6.42724609375,0,9.74560546875,3.7802734375,9.74560546875,8.3173828125Z"/><path class="uuid-bfd36b99-c688-4a86-8646-9a9ea2e8f202" d="M350.953572656249889,1027.464803124999889c0,9.9130859375-3.5703125,15.248046875-10.20751953125,15.248046875s-10.2080078125-5.3349609375-10.2080078125-15.248046875c0-9.9140625,3.57080078125-15.1650390625,10.2080078125-15.1650390625s10.20751953125,5.2509765625,10.20751953125,15.1650390625ZM336.671346093749889,1027.464803124999889c0,8.1494140625,1.30224609375,10.75390625,4.07470703125,10.75390625,2.73046875,0,4.07470703125-2.478515625,4.07470703125-10.75390625s-1.34423828125-10.7119140625-4.07470703125-10.7119140625c-2.7724609375,0-4.07470703125,2.6044921875-4.07470703125,10.7119140625Z"/><path class="uuid-bfd36b99-c688-4a86-8646-9a9ea2e8f202" d="M353.512166406249889,1026.539998437499889h19.82763671875v4.705078125h-19.82763671875v-4.705078125Z"/><path class="uuid-bfd36b99-c688-4a86-8646-9a9ea2e8f202" d="M395.010701562499889,1020.617146874999889c0,4.62109375-2.8564453125,8.5693359375-12.09814453125,16.802734375h12.7705078125l-.63037109375,4.62109375h-18.9453125v-4.3271484375c10.0400390625-9.619140625,12.7705078125-12.8115234375,12.7705078125-16.5927734375,0-2.5625-1.55419921875-4.2001953125-4.20068359375-4.2001953125-2.310546875,0-3.82275390625.923828125-5.544921875,2.982421875l-3.69677734375-2.8984375c2.310546875-2.982421875,5.376953125-4.705078125,9.82958984375-4.705078125,6.42724609375,0,9.74560546875,3.7802734375,9.74560546875,8.3173828125Z"/><path class="uuid-bfd36b99-c688-4a86-8646-9a9ea2e8f202" d="M419.832967187499889,1027.464803124999889c0,9.9130859375-3.5703125,15.248046875-10.20751953125,15.248046875s-10.2080078125-5.3349609375-10.2080078125-15.248046875c0-9.9140625,3.57080078125-15.1650390625,10.2080078125-15.1650390625s10.20751953125,5.2509765625,10.20751953125,15.1650390625ZM405.550740624999889,1027.464803124999889c0,8.1494140625,1.30224609375,10.75390625,4.07470703125,10.75390625,2.73046875,0,4.07470703125-2.478515625,4.07470703125-10.75390625s-1.34423828125-10.7119140625-4.07470703125-10.7119140625c-2.7724609375,0-4.07470703125,2.6044921875-4.07470703125,10.7119140625Z"/><path class="uuid-bfd36b99-c688-4a86-8646-9a9ea2e8f202" d="M442.050740624999889,1020.617146874999889c0,4.62109375-2.8564453125,8.5693359375-12.09814453125,16.802734375h12.7705078125l-.63037109375,4.62109375h-18.9453125v-4.3271484375c10.0400390625-9.619140625,12.7705078125-12.8115234375,12.7705078125-16.5927734375,0-2.5625-1.55419921875-4.2001953125-4.20068359375-4.2001953125-2.310546875,0-3.82275390625.923828125-5.544921875,2.982421875l-3.69677734375-2.8984375c2.310546875-2.982421875,5.376953125-4.705078125,9.82958984375-4.705078125,6.42724609375,0,9.74560546875,3.7802734375,9.74560546875,8.3173828125Z"/><path class="uuid-bfd36b99-c688-4a86-8646-9a9ea2e8f202" d="M467.040974999999889,1037.461873437499889v4.5791015625h-18.27294921875v-4.5791015625h6.80517578125v-18.5673828125l-6.21728515625,3.7392578125-2.5625-3.9912109375,9.36767578125-5.6708984375h5.2509765625v24.490234375h5.62890625Z"/><rect class="uuid-3f6529ea-d8a6-4a41-8cde-4f6a172525ab" x="100.296834374999889" y="945.694295312499889" width="462" height="46.3251953125"/><path class="uuid-bfd36b99-c688-4a86-8646-9a9ea2e8f202" d="M140.036092187499889,977.781209374999889v4.537109375h-37.38671875v-4.537109375h37.38671875ZM136.506795312499889,953.123006249999889v4.3271484375h-30.3291015625v-4.3271484375h30.3291015625Z"/><path class="uuid-bfd36b99-c688-4a86-8646-9a9ea2e8f202" d="M161.284139062499889,953.626912499999889v-1.974609375h-13.484375v-2.8984375h30.91796875v2.8984375h-13.5263671875v1.974609375h16.298828125v7.5615234375h-3.7392578125v-4.95703125h-12.5595703125v6.6376953125h-1.1767578125l2.6884765625,1.3017578125-.8818359375.671875c3.9482421875,1.974609375,10.921875,3.94921875,17.2646484375,4.7890625-.7978515625.755859375-1.8486328125,2.2685546875-2.3525390625,3.1923828125-2.8984375-.50390625-5.880859375-1.3017578125-8.6953125-2.267578125v1.51171875h-17.474609375v-1.5966796875c-2.6044921875,1.0087890625-5.2509765625,1.8486328125-7.6875,2.5625-.7568359375-.7978515625-2.1845703125-2.1416015625-3.1083984375-2.7724609375,6.888671875-1.51171875,14.408203125-4.158203125,18.9453125-7.392578125h-1.4287109375v-6.6376953125h-12.5185546875v4.95703125h-3.5703125v-7.5615234375h16.0888671875ZM151.286092187499889,956.567342187499889c2.6044921875.419921875,6.2177734375,1.302734375,8.1494140625,1.974609375l-.9658203125,2.1005859375,1.0498046875-.251953125.294921875,2.3525390625c-3.5712890625,1.0078125-7.099609375,1.9736328125-10.1240234375,2.814453125l-1.0927734375-2.8564453125c2.478515625-.4208984375,5.83984375-1.21875,9.41015625-1.974609375-1.974609375-.7138671875-5.29296875-1.5966796875-7.8134765625-2.1005859375l1.091796875-2.05859375ZM173.045857812499889,973.748982812499889l.5888671875-.2099609375,2.5205078125,1.595703125c-1.974609375,2.6044921875-5.208984375,5.125-8.2333984375,7.015625l3.4443359375,1.51171875-1.72265625,2.814453125c-3.2763671875-1.6796875-9.87109375-4.4521484375-14.66015625-6.2587890625l1.6796875-2.39453125c2.142578125.755859375,4.7890625,1.7646484375,7.3095703125,2.73046875,1.974609375-.9658203125,4.2431640625-2.39453125,6.0068359375-3.822265625h-20.9189453125v-2.982421875h23.9853515625ZM169.601521874999889,969.631795312499889c-2.5205078125-1.0078125-4.7470703125-2.1005859375-6.46875-3.1083984375-1.974609375,1.1337890625-4.1591796875,2.1845703125-6.427734375,3.1083984375h12.896484375ZM167.584920312499889,960.138631249999889l.4208984375.083984375-1.05078125-1.5966796875c2.39453125-.3779296875,5.96484375-1.5126953125,8.0234375-2.1845703125l1.5966796875,2.142578125c-2.1845703125.83984375-5.1669921875,1.470703125-7.51953125,1.890625,3.1083984375.671875,6.7626953125,1.7216796875,8.86328125,2.5205078125l-.9658203125,2.478515625c-2.39453125-1.0087890625-6.931640625-2.3525390625-10.3759765625-3.193359375l1.0078125-2.1416015625Z"/><path class="uuid-bfd36b99-c688-4a86-8646-9a9ea2e8f202" d="M224.036092187499889,977.781209374999889v4.537109375h-37.38671875v-4.537109375h37.38671875ZM220.506795312499889,953.123006249999889v4.3271484375h-30.3291015625v-4.3271484375h30.3291015625Z"/><path class="uuid-bfd36b99-c688-4a86-8646-9a9ea2e8f202" d="M245.284139062499889,953.626912499999889v-1.974609375h-13.484375v-2.8984375h30.91796875v2.8984375h-13.5263671875v1.974609375h16.298828125v7.5615234375h-3.7392578125v-4.95703125h-12.5595703125v6.6376953125h-1.1767578125l2.6884765625,1.3017578125-.8818359375.671875c3.9482421875,1.974609375,10.921875,3.94921875,17.2646484375,4.7890625-.7978515625.755859375-1.8486328125,2.2685546875-2.3525390625,3.1923828125-2.8984375-.50390625-5.880859375-1.3017578125-8.6953125-2.267578125v1.51171875h-17.474609375v-1.5966796875c-2.6044921875,1.0087890625-5.2509765625,1.8486328125-7.6875,2.5625-.7568359375-.7978515625-2.1845703125-2.1416015625-3.1083984375-2.7724609375,6.888671875-1.51171875,14.408203125-4.158203125,18.9453125-7.392578125h-1.4287109375v-6.6376953125h-12.5185546875v4.95703125h-3.5703125v-7.5615234375h16.0888671875ZM235.286092187499889,956.567342187499889c2.6044921875.419921875,6.2177734375,1.302734375,8.1494140625,1.974609375l-.9658203125,2.1005859375,1.0498046875-.251953125.294921875,2.3525390625c-3.5712890625,1.0078125-7.099609375,1.9736328125-10.1240234375,2.814453125l-1.0927734375-2.8564453125c2.478515625-.4208984375,5.83984375-1.21875,9.41015625-1.974609375-1.974609375-.7138671875-5.29296875-1.5966796875-7.8134765625-2.1005859375l1.091796875-2.05859375ZM257.045857812499889,973.748982812499889l.5888671875-.2099609375,2.5205078125,1.595703125c-1.974609375,2.6044921875-5.208984375,5.125-8.2333984375,7.015625l3.4443359375,1.51171875-1.72265625,2.814453125c-3.2763671875-1.6796875-9.87109375-4.4521484375-14.66015625-6.2587890625l1.6796875-2.39453125c2.142578125.755859375,4.7890625,1.7646484375,7.3095703125,2.73046875,1.974609375-.9658203125,4.2431640625-2.39453125,6.0068359375-3.822265625h-20.9189453125v-2.982421875h23.9853515625ZM253.601521874999889,969.631795312499889c-2.5205078125-1.0078125-4.7470703125-2.1005859375-6.46875-3.1083984375-1.974609375,1.1337890625-4.1591796875,2.1845703125-6.427734375,3.1083984375h12.896484375ZM251.584920312499889,960.138631249999889l.4208984375.083984375-1.05078125-1.5966796875c2.39453125-.3779296875,5.96484375-1.5126953125,8.0234375-2.1845703125l1.5966796875,2.142578125c-2.1845703125.83984375-5.1669921875,1.470703125-7.51953125,1.890625,3.1083984375.671875,6.7626953125,1.7216796875,8.86328125,2.5205078125l-.9658203125,2.478515625c-2.39453125-1.0087890625-6.931640625-2.3525390625-10.3759765625-3.193359375l1.0078125-2.1416015625Z"/><path class="uuid-bfd36b99-c688-4a86-8646-9a9ea2e8f202" d="M291.275349999999889,965.431599999999889v4.9140625h13.3154296875v3.6552734375h-13.3154296875v6.97265625h17.0126953125v3.697265625h-37.8486328125v-3.697265625h16.6767578125v-6.97265625h-12.896484375v-3.6552734375h12.896484375v-4.9140625h4.1591796875ZM273.211873437499889,961.356404687499889c.8818359375-.16796875,1.806640625-.83984375,2.9404296875-1.9326171875.923828125-.7978515625,3.3603515625-3.3603515625,5.62890625-6.3427734375h-10.333984375v-3.6962890625h35.4541015625v3.6962890625h-19.9111328125c-2.2265625,2.8984375-4.62109375,5.5869140625-6.9736328125,7.8134765625l17.6435546875-.6298828125c-1.5546875-1.38671875-3.150390625-2.7724609375-4.6630859375-3.94921875l3.150390625-2.142578125c3.78125,2.8564453125,8.5703125,6.9736328125,10.8798828125,9.8720703125l-3.486328125,2.4365234375c-.6298828125-.83984375-1.4697265625-1.8486328125-2.478515625-2.8984375-22.263671875.9658203125-24.7841796875,1.0498046875-26.548828125,1.638671875-.2099609375-.8408203125-.83984375-2.8154296875-1.3017578125-3.865234375Z"/><path class="uuid-bfd36b99-c688-4a86-8646-9a9ea2e8f202" d="M350.036092187499889,977.781209374999889v4.537109375h-37.38671875v-4.537109375h37.38671875ZM346.506795312499889,953.123006249999889v4.3271484375h-30.3291015625v-4.3271484375h30.3291015625Z"/><path class="uuid-bfd36b99-c688-4a86-8646-9a9ea2e8f202" d="M371.284139062499889,953.626912499999889v-1.974609375h-13.484375v-2.8984375h30.91796875v2.8984375h-13.5263671875v1.974609375h16.298828125v7.5615234375h-3.7392578125v-4.95703125h-12.5595703125v6.6376953125h-1.1767578125l2.6884765625,1.3017578125-.8818359375.671875c3.9482421875,1.974609375,10.921875,3.94921875,17.2646484375,4.7890625-.7978515625.755859375-1.8486328125,2.2685546875-2.3525390625,3.1923828125-2.8984375-.50390625-5.880859375-1.3017578125-8.6953125-2.267578125v1.51171875h-17.474609375v-1.5966796875c-2.6044921875,1.0087890625-5.2509765625,1.8486328125-7.6875,2.5625-.7568359375-.7978515625-2.1845703125-2.1416015625-3.1083984375-2.7724609375,6.888671875-1.51171875,14.408203125-4.158203125,18.9453125-7.392578125h-1.4287109375v-6.6376953125h-12.5185546875v4.95703125h-3.5703125v-7.5615234375h16.0888671875ZM361.286092187499889,956.567342187499889c2.6044921875.419921875,6.2177734375,1.302734375,8.1494140625,1.974609375l-.9658203125,2.1005859375,1.0498046875-.251953125.294921875,2.3525390625c-3.5712890625,1.0078125-7.099609375,1.9736328125-10.1240234375,2.814453125l-1.0927734375-2.8564453125c2.478515625-.4208984375,5.83984375-1.21875,9.41015625-1.974609375-1.974609375-.7138671875-5.29296875-1.5966796875-7.8134765625-2.1005859375l1.091796875-2.05859375ZM383.045857812499889,973.748982812499889l.5888671875-.2099609375,2.5205078125,1.595703125c-1.974609375,2.6044921875-5.208984375,5.125-8.2333984375,7.015625l3.4443359375,1.51171875-1.72265625,2.814453125c-3.2763671875-1.6796875-9.87109375-4.4521484375-14.66015625-6.2587890625l1.6796875-2.39453125c2.142578125.755859375,4.7890625,1.7646484375,7.3095703125,2.73046875,1.974609375-.9658203125,4.2431640625-2.39453125,6.0068359375-3.822265625h-20.9189453125v-2.982421875h23.9853515625ZM379.601521874999889,969.631795312499889c-2.5205078125-1.0078125-4.7470703125-2.1005859375-6.46875-3.1083984375-1.974609375,1.1337890625-4.1591796875,2.1845703125-6.427734375,3.1083984375h12.896484375ZM377.584920312499889,960.138631249999889l.4208984375.083984375-1.05078125-1.5966796875c2.39453125-.3779296875,5.96484375-1.5126953125,8.0234375-2.1845703125l1.5966796875,2.142578125c-2.1845703125.83984375-5.1669921875,1.470703125-7.51953125,1.890625,3.1083984375.671875,6.7626953125,1.7216796875,8.86328125,2.5205078125l-.9658203125,2.478515625c-2.39453125-1.0087890625-6.931640625-2.3525390625-10.3759765625-3.193359375l1.0078125-2.1416015625Z"/><path class="uuid-bfd36b99-c688-4a86-8646-9a9ea2e8f202" d="M434.036092187499889,977.781209374999889v4.537109375h-37.38671875v-4.537109375h37.38671875ZM430.506795312499889,953.123006249999889v4.3271484375h-30.3291015625v-4.3271484375h30.3291015625Z"/><path class="uuid-bfd36b99-c688-4a86-8646-9a9ea2e8f202" d="M476.707967187499889,964.086873437499889v4.369140625h-38.646484375v-4.369140625h38.646484375Z"/><path class="uuid-bfd36b99-c688-4a86-8646-9a9ea2e8f202" d="M486.992146874999889,972.950154687499889v-11.173828125h12.4765625v-5.880859375h-9.7041015625c-1.8896484375,3.150390625-3.990234375,5.96484375-6.1748046875,8.107421875-.755859375-.7138671875-2.4365234375-2.0166015625-3.40234375-2.5625,3.90625-3.40234375,7.2666015625-8.8212890625,9.2412109375-14.408203125l4.033203125,1.0498046875c-.5048828125,1.3447265625-1.05078125,2.6884765625-1.6806640625,3.9912109375h24.57421875v3.822265625h-12.8125v5.880859375h11.8466796875v3.697265625h-11.8466796875v7.4765625h14.955078125v3.865234375h-14.955078125v9.3671875h-4.07421875v-9.3671875h-19.3232421875v-3.865234375h6.8466796875ZM499.468709374999889,972.950154687499889v-7.4765625h-8.52734375v7.4765625h8.52734375Z"/><path class="uuid-bfd36b99-c688-4a86-8646-9a9ea2e8f202" d="M543.989217187499889,946.948201562499889c.671875,1.259765625,1.3857421875,2.8564453125,1.890625,4.2001953125h14.3662109375v3.697265625h-30.9599609375v7.6025390625c0,6.8896484375-.5458984375,16.9716796875-4.07421875,23.6923828125-.7978515625-.587890625-2.6044921875-1.427734375-3.61328125-1.763671875,3.4453125-6.3857421875,3.7392578125-15.54296875,3.7392578125-21.88671875v-11.341796875h16.046875c-.419921875-1.091796875-.8818359375-2.310546875-1.38671875-3.2763671875l3.9912109375-.923828125ZM554.071248437499889,971.396443749999889l.7138671875-.16796875,2.478515625,1.3017578125c-1.890625,3.4873046875-4.705078125,6.1337890625-8.19140625,8.107421875,3.486328125,1.05078125,7.5185546875,1.72265625,11.8037109375,2.1005859375-.83984375.83984375-1.806640625,2.4365234375-2.310546875,3.4443359375-5.2509765625-.587890625-9.9970703125-1.7216796875-14.072265625-3.40234375-4.28515625,1.5966796875-9.1572265625,2.5625-14.1982421875,3.150390625-.2939453125-.9658203125-1.0087890625-2.478515625-1.638671875-3.3603515625,4.033203125-.3359375,8.0234375-.9658203125,11.59375-1.974609375-2.3935546875-1.4697265625-4.4521484375-3.2763671875-6.0908203125-5.376953125l1.5966796875-.6298828125h-5.0830078125v-3.1923828125h23.3984375ZM540.291951562499889,955.895467187499889v3.2763671875h9.1162109375v-3.2763671875h3.90625v3.2763671875h6.4697265625v3.1923828125h-6.4697265625v6.8056640625h-16.802734375v-6.8056640625h-6.30078125v-3.1923828125h6.30078125v-3.2763671875h3.7802734375ZM538.234334374999889,974.588826562499889c1.595703125,1.7646484375,3.822265625,3.234375,6.4267578125,4.4111328125,2.6884765625-1.134765625,4.95703125-2.6044921875,6.6796875-4.4111328125h-13.1064453125ZM540.291951562499889,962.364217187499889v3.7392578125h9.1162109375v-3.7392578125h-9.1162109375Z"/><rect class="uuid-bfd36b99-c688-4a86-8646-9a9ea2e8f202" x="97.559499999998479" y="908.212900000000445" width="464.765700000001743" height="1.5"/><path class="uuid-bfd36b99-c688-4a86-8646-9a9ea2e8f202" d="M129.761199999999917,426.038500000000568h-32.207500000000437v-5.346600000000763h32.207500000000437v5.346600000000763ZM125.569800000000214,482.968699999999444h-5.518099999999322v-5.86029999999846h-12.874499999999898v5.86029999999846h-5.602999999999156v-28.914499999998952h23.995599999998376v28.914499999998952ZM125.313000000001011,437.074199999999109l-23.653399999999237.085000000000946v-5.345800000000963h23.653399999999237v5.260800000000017ZM125.398400000000947,448.28019999999924h-23.738799999999173v-5.346599999998944h23.738799999999173v5.346599999998944ZM124.329100000001745,415.174299999998766l-21.728500000001077.085400000001755v-5.346199999999953h21.728500000001077v5.260799999998198ZM120.051700000000892,471.847099999999045v-12.531699999999546h-12.959899999999834v12.531699999999546h12.959899999999834ZM175.313500000001113,448.36620000000039l-46.236900000002606.084899999999834v-5.260700000000725h11.462900000003174l2.481000000000677-13.216800000000148h-10.692900000002737v-5.260699999998906h11.548800000000483l1.838900000000649-9.795400000000882h-16.381800000001022v-5.346199999999953h42.473100000001068v5.261700000000928h-20.317399999999907l-1.753399999999601,9.794399999998859h17.622599999998783l-1.839899999999034,18.477100000000064h9.795000000000073v5.261700000000928ZM167.871099999998478,483.139600000000428h-5.517599999998311v-5.774400000000242h-21.64259999999922v5.774400000000242h-5.603500000001077v-28.999000000001615h32.763699999998607v28.999000000001615ZM162.353500000000167,472.10399999999936v-12.702699999999822h-21.727999999999156v12.702699999999822h21.727999999999156ZM161.498000000000502,429.888199999999415h-12.703100000000632l-2.480499999997846,13.302200000000084h13.857899999999063l1.325699999999415-13.302200000000084Z"/><path class="uuid-bfd36b99-c688-4a86-8646-9a9ea2e8f202" d="M271.755800000001727,426.038500000000568h-77.759200000000419v-5.346600000000763h77.759200000000419v5.346600000000763ZM260.293400000000474,436.988300000000891h-55.604500000000371v-5.174900000001799h55.604500000000371v5.174900000001799ZM260.293400000000474,448.109300000000076h-55.604500000000371v-5.175699999999779h55.604500000000371v5.175699999999779ZM258.283200000000761,483.139600000000428h-5.51759999999922v-6.031199999999444h-40.1208000000006v6.031199999999444h-5.517400000002453v-29.085399999999936h51.155800000002273v29.085399999999936ZM258.197699999999713,414.618599999999788l-50.642499999998108.128000000000611v-5.175300000000789h50.642499999998108v5.047300000000178ZM252.765600000001541,471.847099999999045v-12.531699999999546h-40.1208000000006v12.531699999999546h40.1208000000006Z"/><path class="uuid-bfd36b99-c688-4a86-8646-9a9ea2e8f202" d="M368.200200000000223,467.656199999999444h-34.432399999999689v5.945300000001225c0,6.358399999999165-3.378699999999299,9.538099999999758-10.137899999999718,9.538099999999758h-5.688500000000204l-2.095699999999852-5.260700000000725h7.955500000000029c2.794499999999971,0,4.192399999999907-1.284200000000055,4.192399999999907-3.849599999999555v-6.373100000000704h-37.554700000000594v-5.346700000000055h37.554700000000594v-3.67870000000039c5.958499999999731-2.224099999999453,10.221700000000055-4.304699999998775,12.78859999999986-6.244099999999889h-32.764400000000023v-4.918999999999869h42.261000000000422v4.662200000000666c-4.449699999999211,3.022399999999834-9.952699999999822,6.11620000000039-16.511000000000422,9.281199999999444v.898400000000038h34.432399999999689v5.346700000000055ZM364.606900000001588,451.787099999999555h-5.133800000001429v-8.853499999999258h-59.751399999999194v9.367200000000594h-5.60399999999936v-14.371100000000297h7.356399999997848v-26.091800000000148c4.048300000001291-.39850000000115,8.483600000002298-2.324300000000221,13.303200000001198-5.773999999999432l2.823300000000017,3.935099999998783c-2.596700000000055,2.395500000000538-6.132400000000416,4.206500000000233-10.608400000000984,5.432099999999991v3.593300000000454h10.949200000000928v4.448200000000725h-10.949200000000928v4.662099999999555h10.949200000000928v4.361899999999878h-10.949200000000928v5.433100000000195h45.467000000000553v-5.433100000000195h-10.436799999999494v-4.276900000000751h10.436799999999494v-5.003899999999703h-10.351299999998446v-4.362800000000789h10.351299999998446v-4.662599999999657h-12.104700000000776v-5.17529999999897h17.536600000000362v28.828599999998914h6.715800000001764v13.943400000000111ZM340.354499999999462,418.596199999999953l-2.993699999998171,3.678200000000288c-1.626400000001013-1.567399999999907-3.83640000000014-3.264699999999721-6.629900000000816-5.089900000000853-2.309500000000298,1.939500000000407-4.904799999999341,3.721700000000055-7.785099999999147,5.346700000000055l-3.507300000000214-3.08009999999922c2.766099999998914-1.139600000000428,5.188899999999194-2.480400000000373,7.271899999999732-4.020000000000437-3.479999999999563-1.311499999999796-6.288099999999758-2.224099999999453-8.427200000000084-2.737299999998868l2.182600000000093-3.935500000001412c3.164099999999962.798300000000381,6.343699999999444,1.825699999999415,9.537599999999657,3.079600000000937,2.024900000000343-1.909200000000055,3.721199999999953-3.863300000000891,5.090299999998933-5.859400000001187l3.592800000001262,2.865200000000186c-1.141600000000835,1.768600000001243-2.623999999999796,3.494200000001001-4.448200000000725,5.175800000000891,2.109300000000076,1.197299999999814,4.148400000001857,2.723099999999249,6.11619999999948,4.576699999999619ZM340.867199999999684,434.165000000000873l-3.591799999999239,2.823300000000017c-2.309599999999591-1.768100000001141-4.706100000000333-3.236400000001595-7.186099999999897-4.405300000000352-1.539500000000771,1.168899999998757-4.276799999999639,2.637199999999211-8.211900000000242,4.405300000000352l-3.251000000000204-2.566500000000815c3.677800000000389-1.738699999999881,6.315500000000611-3.250899999999092,7.913400000000365-4.533600000000661-1.597899999999754-.997600000000602-4.020799999999326-2.10989999999947-7.271999999999935-3.337399999998524l3.207800000000134-2.693400000000111c2.936499999999796,1.055699999998978,5.44629999999961,2.152299999999741,7.527799999999843,3.292999999999665.79739999999947-.455100000001039,2.409200000000055-1.824300000000221,4.833000000000538-4.106000000001586l3.935100000000602,2.010300000001735c-1.454100000000835,1.882299999999304-3.078199999999924,3.436499999999796-4.875800000001618,4.662999999998647,2.367000000000189,1.08310000000165,4.690200000000914,2.565500000000611,6.971499999999651,4.447300000001633Z"/><path class="uuid-bfd36b99-c688-4a86-8646-9a9ea2e8f202" d="M464.556600000000799,467.656199999999444h-34.431899999999587v5.945300000001225c0,6.358399999999165-3.378600000000006,9.538099999999758-10.136899999999514,9.538099999999758h-5.688500000000204l-2.095700000001671-5.260700000000725h7.955600000001141c2.793399999998655,0,4.191399999999703-1.284200000000055,4.191399999999703-3.849599999999555v-6.373100000000704h-37.55370000000039v-5.346700000000055h37.55370000000039v-3.67870000000039c5.959200000001147-2.224099999999453,10.221600000000763-4.304699999998775,12.789499999998952-6.244099999999889h-32.764400000000023v-4.918999999999869h42.260000000002037v4.662200000000666c-4.449000000000524,3.022399999999834-9.953100000000632,6.11620000000039-16.511000000000422,9.281199999999444v.898400000000038h34.431899999999587v5.346700000000055ZM460.96480000000065,451.787099999999555h-5.134700000000521v-8.853499999999258h-59.751500000000306v9.367200000000594h-5.602999999999156v-14.371100000000297h7.356200000000172v-26.091800000000148c4.049499999999171-.39850000000115,8.483099999999467-2.324300000000221,13.302499999999782-5.773999999999432l2.822500000000218,3.935099999998783c-2.593500000000859,2.395500000000538-6.130699999999706,4.206500000000233-10.607700000000477,5.432099999999991v3.593300000000454h10.950200000001132v4.448200000000725h-10.950200000001132v4.662099999999555h10.950200000001132v4.361899999999878h-10.950200000001132v5.433100000000195h45.466800000000148v-5.433100000000195h-10.435600000000704v-4.276900000000751h10.435600000000704v-5.003899999999703h-10.35109999999986v-4.362800000000789h10.35109999999986v-4.662599999999657h-12.104499999999462v-5.17529999999897h17.536399999999048v28.828599999998914h6.717000000000553v13.943400000000111ZM438.234800000001087,433.205500000000029l-3.896899999999732,3.563000000000102c-1.778800000000047-2.672800000000279-4.324300000000221-6.018500000000131-6.785700000000361-8.096199999999953-3.826100000000224,4.263199999999415-6.973099999999249,6.97609999999986-9.432099999999991,8.136800000000221l-3.856499999999869-3.238300000000891c2.898999999999432-1.378899999999703,6.041999999999462-3.954599999999118,9.433600000000297-7.732399999998961-3.855900000000474-2.401900000000751-6.603500000001077-3.887300000000323-8.243600000001607-4.454600000000937l3.363800000000992-3.47899999999936c1.367099999999482.539999999999054,3.934999999999491,1.941899999999805,7.710900000000038,4.210399999999936,1.122100000000501-1.835900000000038,1.995100000000093-3.846700000000055,2.623999999999796-6.033199999999852h-12.878899999999703v-5.059600000000501h6.90480000000025v-5.209899999999834h4.43119999999908v5.209899999999834h8.194800000001123v5.059600000000501h-1.622100000000501c-.910599999999249,3.348599999999351-2.135200000000623,6.249499999999898-3.675300000000789,8.70509999999922,2.981000000001586,2.265600000000632,5.841800000000148,5.719699999999648,7.728000000000975,8.418400000000474Z"/><path class="uuid-bfd36b99-c688-4a86-8646-9a9ea2e8f202" d="M562.325200000000223,425.868099999999686l-3.079099999999016,4.447799999999916c-9.724599999999555-2.394999999998618-17.336900000000242-5.161099999999351-22.839900000000853-8.29739999999947v3.849599999999555h-28.914999999999054v-4.235300000000279c-8.326399999999921,4.306599999999889-15.796900000001187,7.115200000000186-22.413099999999758,8.426300000000992l-2.822299999999814-4.4908000000014c16.024399999998423-3.906199999999444,29.368899999999485-10.436499999999796,40.034699999998338-19.589799999999741l5.260700000000725,1.753399999999601c-.570799999999508.712900000000445-1.069800000001123,1.212400000000343-1.497499999999491,1.496600000000399,9.466800000000148,7.870600000000195,21.557599999998274,13.417000000001281,36.271499999998923,16.639600000000428ZM553.213800000000447,450.375899999999092h-62.104400000000169v-20.059999999999491h62.104400000000169v20.059999999999491ZM548.124700000001212,483.224599999999555h-5.26050000000032v-3.421899999999368h-41.317800000000716v3.421899999999368h-5.260800000000017v-28.357399999998961h51.839100000001054v28.357399999998961ZM519.595700000000761,445.756799999999203v-10.693400000000111h-23.225599999999758v10.693400000000111h23.225599999999758ZM542.864200000000892,465.089799999999741v-5.51759999999922h-41.317800000000716v5.51759999999922h41.317800000000716ZM542.864200000000892,475.184499999999389v-5.603499999999258h-41.317800000000716v5.603499999999258h41.317800000000716ZM513.907200000000557,441.521899999999732l-4.405300000000352,3.079600000000937c-2.651299999999537-2.679200000000492-5.246999999999389-4.661600000001272-7.785099999999147-5.945300000001225l4.44800000000032-2.565899999999601c3.022699999999531,1.28269999999975,5.602999999999156,3.094199999999546,7.742399999999179,5.431599999999889ZM534.65230000000065,421.120100000000093c-4.134700000000521-2.167000000001281-8.142100000000937-5.089900000000853-12.019500000000335-8.768599999999424-4.135299999999916,3.421899999999368-8.768099999999322,6.344799999998941-13.900400000000445,8.768599999999424h25.91990000000078ZM547.954600000000028,445.756799999999203v-10.693400000000111h-23.097200000000157v10.693400000000111h23.097200000000157ZM542.778300000000854,437.586900000000242c-1.682600000000093,2.680699999998978-4.220699999999852,4.962900000000445-7.613499999999476,6.843699999999444l-4.704900000000634-2.351999999998952c3.736399999999776-2.109900000001289,6.301800000001094-4.22019999999975,7.698300000000017-6.331100000001243l4.620100000000093,1.839400000000751Z"/><path class="uuid-bfd36b99-c688-4a86-8646-9a9ea2e8f202" d="M133.201146062993757,368.64600000000064l-1.546900000001187,2.056099999999788c-5.961900000002061-1.756800000001022-10.80029999999897-4.123000000001412-14.512200000000121-7.09860000000117-3.19970000000194,2.612300000000687-8.223100000000159,5.025400000000445-15.076599999999416,7.239199999999983l-1.721199999999953-2.090799999999945c6.629899999999907-1.838799999999537,11.643500000000131-4.070299999999406,15.040499999999156-6.694299999999203-3.408200000000761-3.221700000000055-5.699699999999211-7.139199999999619-6.870099999998274-11.754899999999907-.632300000001123,1.628399999999601-1.500500000000102,3.174299999998766-2.601100000001679,4.638699999999517l-1.860799999998562-1.704099999999016c1.475599999999758-1.757300000001123,2.663300000000163-3.684600000000501,3.565399999999499-5.781300000000556h-6.044400000000678v-2.160600000001068h14.092700000001059v-6.009299999999712h2.266200000000026v5.97360000000117h14.336900000000242v2.161699999998746h-6.009800000001633c-1.053199999998469,6.114700000000084-3.477499999999054,10.980900000000474-7.273899999998321,14.600500000000466,3.455500000000029,2.624100000000908,8.193799999999101,4.832099999999627,14.215299999999843,6.624100000000908ZM123.905746062992876,347.421399999999267h-13.598099999999249c.935499999999593,5.423300000000381,3.225499999998647,9.786600000001272,6.868599999998878,13.089299999999639,3.561000000000604-3.314399999999296,5.804200000001401-7.677699999998367,6.729500000000371-13.089299999999639Z"/><path class="uuid-bfd36b99-c688-4a86-8646-9a9ea2e8f202" d="M217.365966062993721,364.552200000000084h-14.145300000000134v2.442900000000009c0,2.611300000000483-1.387200000000121,3.917999999999665-4.163800000002084,3.917999999999665h-2.336899999998423l-.860099999999875-2.161200000000463h3.267100000000937c1.148400000000038,0,1.722599999999147-.527299999999741,1.722599999999147-1.581500000000233v-2.618199999998978h-15.42620000000079v-2.19629999999961h15.42620000000079v-1.511200000000827c2.447799999999916-.913099999999758,4.199300000000221-1.768599999999424,5.252500000000509-2.564899999999398h-13.45850000000064v-2.02100000000064h17.359400000000278v1.915000000000873c-1.826700000000528,1.242199999998775-4.088399999999638,2.513199999999415-6.78229999999985,3.812999999998283v.369100000001708h14.145300000000134v2.19629999999961ZM215.890566062992548,358.034200000000055h-2.109300000000076v-3.637700000001132h-24.546399999999267v3.847600000000966h-2.301799999999275v-5.902299999999741h3.022499999999127v-10.718800000000556c1.663099999999758-.16359999999986,3.48529999999937-.954599999999118,5.465299999999843-2.372100000000501l1.158699999999953,1.616700000000492c-1.064899999998488.983900000001086-2.519000000000233,1.727600000000166-4.358599999999569,2.231499999999869v1.475599999999758h4.498999999999796v1.82760000000053h-4.498999999999796v1.915100000000166h4.498999999999796v1.791900000000169h-4.498999999999796v2.232500000000073h18.678900000000795v-2.232500000000073h-4.288500000000568v-1.756799999999203h4.288500000000568v-2.055700000000797h-4.251900000001115v-1.792400000000271h4.251900000001115v-1.914600000000064h-4.972600000000966v-2.126000000000204h7.203100000000632v11.841800000000148h2.760199999998804v5.72860000000037ZM205.927266062993112,344.399400000000242l-1.231000000000677,1.510199999998804c-.66649999999845-.644000000000233-1.574700000000121-1.340299999999843-2.722199999999248-2.090299999999843-.949199999999109.796900000001187-2.015600000000632,1.529300000000148-3.198200000000725,2.19629999999961l-1.440399999999499-1.264699999999721c1.13550000000032-.468699999999444,2.13130000000092-1.019000000000233,2.986800000000585-1.651799999999639-1.429700000000594-.53859999999986-2.584000000000742-.91359999999986-3.461400000001049-1.124499999999898l.896900000000642-1.616700000000492c1.299099999998361.328600000000733,2.605499999999665.75,3.917499999999563,1.26510000000053.832000000000335-.784200000000055,1.528299999999945-1.586900000000242,2.090100000001257-2.407199999999648l1.476599999999962,1.177700000000186c-.46900000000096.725599999999758-1.078400000000329,1.434599999998682-1.826399999999921,2.126000000000204.865699999998469.491199999998571,1.703099999998813,1.11869999999908,2.511699999999109,1.879899999999907ZM206.137666062993048,350.79490000000078l-1.475599999999758,1.159700000000157c-.948200000000725-.726100000001679-1.933100000000195-1.329600000000937-2.952100000000428-1.810100000000602-.633099999999104.480499999999665-1.757299999999304,1.083999999998923-3.373599999998987,1.810100000000602l-1.335900000000038-1.054700000000594c1.512199999999211-.714400000000751,2.595499999999447-1.334500000000844,3.251000000000204-1.862300000000687-.655500000000757-.410200000000259-1.651900000000751-.86620000000039-2.986799999999675-1.370100000000093l1.317799999999806-1.107500000000073c1.206599999999526.433600000000297,2.237299999998868.885299999999916,3.092799999998533,1.353100000000268.328600000001643-.1875.989800000001196-.749099999999089,1.984599999999773-1.686599999999089l1.616500000000087.826199999999517c-.597399999998743.772499999999127-1.264400000000023,1.411099999999351-2.001499999998487,1.914999999999054.970699999999852.444400000000314,1.924799999998868,1.053799999999683,2.86279999999897,1.82720000000154Z"/><path class="uuid-bfd36b99-c688-4a86-8646-9a9ea2e8f202" d="M276.052986062993114,351.233899999999267c2.366699999998673,2.659100000000763,3.550800000000891,5.253899999999703,3.550800000000891,7.783699999999953,0,1.229900000000271-.319300000001022,2.208000000000538-.95850000000155,2.934000000001106-.63720000000103.727100000000064-1.530699999998433,1.089899999999034-2.679199999999582,1.089899999999034-.632299999999304,0-1.394500000000335-.076699999999619-2.284099999998944-.228100000000268l-.649900000000343-2.337399999998524c1.253899999999703.316899999999805,2.15519999999924.474699999998847,2.705500000000029.474699999998847.456099999999424,0,.872599999997874-.176299999999173,1.248099999998885-.526899999998932.375-.351599999999962.5625-.820300000001225.5625-1.406200000001263,0-.877999999998792-.322299999999814-2.00249999999869-.966599999999744-3.373599999998987-.644800000000032-1.370100000000093-1.61160000000018-2.676300000000992-2.899599999998827-3.917499999999563l3.426699999999983-8.80370000000039h-5.218000000000757v27.990299999999479h-2.302500000000691v-30.221199999999953h9.856399999999667v2.230900000000474l-3.391599999999016,8.311099999998987ZM300.283986062992881,364.464799999999741c-.305199999998877,1.897500000000946-.714799999999741,3.274400000000242-1.230999999999767,4.127899999999499-.514600000000428.855499999999665-1.352999999999156,1.283700000001772-2.511699999999109,1.283700000001772h-2.740700000002107c-1.828099999998813,0-2.740999999998166-.960900000001857-2.740999999998166-2.88130000000092v-9.29490000000078h-3.708200000000943c-.069799999999304,3.771500000000742-.805199999998877,6.597600000000966-2.204600000000937,8.477500000000873-1.400099999998929,1.879899999999907-3.99659999999858,3.457999999998719-7.792999999997846,4.735399999999572l-1.475600000000668-2.020500000000538c3.525399999999536-1.041999999999462,5.944899999999507-2.390199999999822,7.256899999999405-4.041999999999462,1.311999999999898-1.651400000000649,1.973099999999249-4.022999999999229,1.985300000000279-7.115299999999479h-4.814399999999296v-2.302200000000084h18.819299999999203v2.267099999999118h-5.870600000000195v8.75c0,.292400000000271.093999999999141.565399999999499.281699999999546.816900000001624.187299999999595.252399999999398.410200000000259.377399999999398.667999999999665.377399999999398h2.231700000000274c.456300000001647,0,.8054000000011-.374499999999898,1.045700000000579-1.124499999999898.238699999999881-.748999999999796.441399999999703-1.721199999999953.605900000000474-2.916500000001179l2.19629999999961.861300000000483ZM298.26298606299224,348.528299999999945l-2.230899999998655.035099999999147v-3.09269999999924h-13.248600000000806v3.09269999999924h-2.26680000000033v-5.324199999999109h7.713099999999031v-3.988300000000891h2.302700000001096v3.953700000001845h7.730499999999665v5.323699999999008ZM295.311786062992724,351.918900000000576h-11.878399999999601v-2.301300000000992h11.878399999999601v2.301300000000992Z"/><path class="uuid-bfd36b99-c688-4a86-8646-9a9ea2e8f202" d="M384.450806062993252,364.552200000000084h-14.145500000000538v2.442900000000009c0,2.611300000000483-1.388699999999517,3.917999999999665-4.16359999999986,3.917999999999665h-2.336900000000242l-.861599999999271-2.161200000000463h3.268299999998817c1.14850000000115,0,1.722700000001169-.527299999999741,1.722700000001169-1.581500000000233v-2.618199999998978h-15.428000000000793v-2.19629999999961h15.428000000000793v-1.511200000000827c2.447699999999713-.913099999999758,4.199199999999109-1.768599999999424,5.25289999999859-2.564899999999398h-13.458999999998923v-2.02100000000064h17.359199999998964v1.915000000000873c-1.826399999999921,1.242199999998775-4.088199999998324,2.513199999999415-6.781999999999243,3.812999999998283v.369100000001708h14.145500000000538v2.19629999999961ZM382.973706062993188,358.034200000000055h-2.107900000000882v-3.637700000001132h-24.545399999999063v3.847600000000966h-2.302700000000186v-5.902299999999741h3.023400000000038v-10.718800000000556c1.661599999999453-.16359999999986,3.483899999998357-.954599999999118,5.462900000000445-2.372100000000501l1.16019999999844,1.616700000000492c-1.065900000000511.983900000001086-2.518099999999322,1.727600000000166-4.356999999999971,2.231499999999869v1.475599999999758h4.497600000000602v1.82760000000053h-4.497600000000602v1.915100000000166h4.497600000000602v1.791900000000169h-4.497600000000602v2.232500000000073h18.676800000001094v-2.232500000000073h-4.287100000001374v-1.756799999999203h4.287100000001374v-2.055700000000797h-4.25170000000162v-1.792400000000271h4.25170000000162v-1.914600000000064h-4.972200000000157v-2.126000000000204h7.203199999999924v11.841800000000148h2.758700000000317v5.72860000000037ZM373.011806062992946,344.399400000000242l-1.230900000000474,1.510199999998804c-.667999999999665-.644000000000233-1.575199999999313-1.340299999999843-2.723700000000463-2.090299999999843-.948199999998906.796900000001187-2.014100000000326,1.529300000000148-3.197000000000116,2.19629999999961l-1.441100000000006-1.264699999999721c1.13720000000103-.468699999999444,2.133300000001327-1.019000000000233,2.987800000000789-1.651799999999639-1.429700000000594-.53859999999986-2.583099999999831-.91359999999986-3.461499999999432-1.124499999999898l.895499999998719-1.616700000000492c1.300800000000891.328600000000733,2.606999999999971.75,3.918000000001484,1.26510000000053.831500000000233-.784200000000055,1.529299999998329-1.586900000000242,2.09230000000025-2.407199999999648l1.475599999997939,1.177700000000186c-.469500000000153.725599999999758-1.079099999999016,1.434599999998682-1.828199999999924,2.126000000000204.867200000000594.491199999998571,1.704600000000937,1.11869999999908,2.513200000001234,1.879899999999907ZM373.222306062992175,350.79490000000078l-1.475599999998849,1.159700000000157c-.949499999999716-.726100000001679-1.933100000001104-1.329600000000937-2.951400000000831-1.810100000000602-.633599999999205.480499999999665-1.756599999998798,1.083999999998923-3.374299999999494,1.810100000000602l-1.334899999999834-1.054700000000594c1.511199999999008-.714400000000751,2.594199999999546-1.334500000000844,3.250899999999092-1.862300000000687-.656699999999546-.410200000000259-1.652799999998933-.86620000000039-2.98779999999897-1.370100000000093l1.317900000000009-1.107500000000073c1.206499999998414.433600000000297,2.237299999998868.885299999999916,3.091800000000148,1.353100000000268.328099999998813-.1875.989299999999275-.749099999999089,1.985799999998562-1.686599999999089l1.616300000001502.826199999999517c-.597200000001067.772499999999127-1.265200000001641,1.411099999999351-2.003000000000611,1.914999999999054.972200000000157.444400000000314,1.92779999999857,1.053799999999683,2.864299999999275,1.82720000000154Z"/><path class="uuid-bfd36b99-c688-4a86-8646-9a9ea2e8f202" d="M468.843426062991966,369.156199999999444h-31.977000000000771v-2.266599999999016h14.89890000000014v-8.24120000000039h-10.735399999999572v-2.266600000000835h10.735399999999572v-7.168399999998655h-7.959499999999025c-.960399999999936,2.494599999999991-2.565399999999499,4.796299999999974-4.814400000001115,6.904699999999139l-2.318399999998292-1.211900000000242c3.840799999999945-3.548799999998664,5.97899999999936-7.895500000000538,6.412599999999657-13.037099999999555l2.372099999998682.685100000000602c-.093799999998737,1.194799999999304-.369199999999182,2.670899999999165-.826699999999619,4.428200000000288h7.099599999999555v-7.696300000001429h2.371399999999994v7.660700000000361h12.404500000000553v2.266600000000835h-12.404500000000553v7.133699999998498h10.577800000000934v2.266200000001845h-10.577800000000934v8.240699999998469h14.741400000000795v2.302200000000084Z"/><path class="uuid-bfd36b99-c688-4a86-8646-9a9ea2e8f202" d="M553.956746062992352,347.385699999998906l-1.264400000000023,1.827700000001641c-3.993899999999485-.983900000001086-7.122300000000905-2.119700000001103-9.383100000000923-3.408300000000963v1.580599999999322h-11.877899999999499v-1.739199999999983c-3.41990000000078,1.769000000000233-6.489300000001094,2.922800000000279-9.206099999999424,3.46140000000014l-1.159600000000864-1.84519999999975c6.583000000000538-1.604499999999462,12.064400000001115-4.287099999999555,16.445799999999508-8.046899999999368l2.160600000001068.720699999999852c-.234900000001289.292999999999665-.439400000001115.497999999999593-.614299999999275.614300000001094,3.888199999999415,3.233399999999165,8.855999999999767,5.511699999999109,14.898999999999432,6.834899999998015ZM550.21504606299186,357.454099999999016h-25.511699999999109v-8.240699999998469h25.511699999999109v8.240699999998469ZM548.124246062991915,370.947200000000521h-2.162200000000666v-1.405200000001059h-16.973099999999249v1.405200000001059h-2.160599999999249v-11.648400000000038h21.295899999999165v11.648400000000038ZM536.403946062992873,355.556599999999889v-4.393099999999322h-9.540000000000873v4.393099999999322h9.540000000000873ZM545.962046062991249,363.497999999999593v-2.266599999999016h-16.973099999999249v2.266599999999016h16.973099999999249ZM545.962046062991249,367.644500000000335v-2.301800000001094h-16.973099999999249v2.301800000001094h16.973099999999249ZM534.067046062990812,353.817399999999907l-1.809799999999086,1.264600000000428c-1.088599999999133-1.100599999999758-2.154999999998836-1.915000000000873-3.197000000000116-2.442399999999907l1.826600000000326-1.05370000000039c1.242200000000594.526400000000649,2.301299999999173,1.270500000000538,3.180199999998877,2.231499999999869ZM542.58834606299115,345.435999999999694c-1.69800000000032-.889600000000428-3.34309999999823-2.090799999999945-4.936299999999392-3.602499999999054-1.700199999999313,1.405699999999342-3.602600000000166,2.606899999998859-5.710699999999633,3.602499999999054h10.646999999999025ZM548.053446062992407,355.556599999999889v-4.393099999999322h-9.48739999999998v4.393099999999322h9.48739999999998ZM545.927946062992305,352.200699999999415c-.691899999999805,1.101000000000568-1.734700000000885,2.037600000001476-3.128500000000713,2.810999999999694l-1.932099999999991-.965799999998126c1.533699999999953-.867200000000594,2.588400000000547-1.734400000001187,3.162599999999657-2.601100000001679l1.898000000001048.755900000000111Z"/><path class="uuid-bfd36b99-c688-4a86-8646-9a9ea2e8f202" d="M105.422800000001189,628.540501632520318v-67.755400000000009h8.153800000000047v60.572299999999814h28.830100000001039v7.183100000000195h-36.983900000001086Z"/><path class="uuid-bfd36b99-c688-4a86-8646-9a9ea2e8f202" d="M157.16110000000026,566.706501632519576c-1.683600000000297,0-2.897399999998015-.403299999999945-3.640599999997903-1.213399999998728-.744599999999991-.808100000002014-1.116200000001299-1.858900000001086-1.116200000001299-3.15480000000025v-1.261700000000928c0-1.293899999998757.371600000001308-2.34519999999975,1.116200000001299-3.155300000000352.743199999999888-.808600000000297,1.956999999997606-1.213299999999435,3.640599999997903-1.213299999999435,1.681700000001001,0,2.895500000002357.404699999999139,3.64010000000053,1.213299999999435.743200000000797.810100000000602,1.116300000001502,1.861400000001595,1.116300000001502,3.155300000000352v1.261700000000928c0,1.295899999999165-.373100000000704,2.346699999998236-1.116300000001502,3.15480000000025-.744599999998172.810099999998783-1.958399999999529,1.213399999998728-3.64010000000053,1.213399999998728ZM153.278300000000854,578.452601632519873h7.765600000000632v50.087900000000445h-7.765600000000632v-50.087900000000445Z"/><path class="uuid-bfd36b99-c688-4a86-8646-9a9ea2e8f202" d="M177.545900000000074,628.540501632520318v-50.087900000000445h7.765600000002451v8.060999999999694h.388199999997596c1.228500000001077-2.817900000000009,2.960399999999936-5.060999999999694,5.193300000000818-6.726500000000669,2.233000000000175-1.665599999998449,5.225100000000566-2.499599999999191,8.979000000001179-2.499599999999191,5.176799999998366,0,9.270599999999831,1.667000000001281,12.279799999999341,4.999100000000908,3.009299999998802,3.333999999998923,4.513700000000426,8.041999999999462,4.513700000000426,14.123999999999796v32.129899999999907h-7.765600000000632v-30.837900000000445c0-9.015600000000632-3.785699999998542-13.523499999999331-11.357399999998961-13.523499999999331-1.553299999999581,0-3.057700000001205.195799999999508-4.514200000001438.583999999998923-1.456099999998514.38970000000154-2.766100000000733.973700000000463-3.93119999999908,1.752000000000407-1.165000000000873.778299999999945-2.086900000000242,1.766600000000835-2.766100000000733,2.966800000000148-.679699999999684,1.199199999999109-1.019499999998516,2.610300000000279-1.019499999998516,4.231400000000576v34.827199999999721h-7.765600000002451Z"/><path class="uuid-bfd36b99-c688-4a86-8646-9a9ea2e8f202" d="M272.480400000001282,626.890601632519974c0,6.923800000000483-1.941399999999703,12.359800000000178-5.824200000001838,16.307600000000093-3.882799999998497,3.946799999999712-9.351999999998952,5.92239999999947-16.404799999999341,5.92239999999947-4.077099999998609,0-7.588299999999435-.634799999999814-10.532199999997829-1.90139999999883-2.945300000001225-1.269500000000335-5.38720000000103-2.942399999999907-7.328600000000733-5.022000000000844l4.562000000000808-5.36279999999897c1.682099999999991,1.731999999999971,3.623599999999897,3.06499999999869,5.824199999999109,3.996099999998478,2.199300000001131.931700000001001,4.756399999999303,1.397000000000844,7.668500000000677,1.397000000000844,4.529299999998329,0,8.040499999999156-1.251500000000306,10.532199999997829-3.752000000000407,2.490700000002107-2.504399999999805,3.737300000000687-6.192799999998897,3.737300000000687-11.067799999998897v-6.9283000000014h-.388199999999415c-1.489199999999983,3.075699999999415-3.430599999999686,5.381400000000212-5.824200000000928,6.918999999999869-2.395000000000437,1.53859999999986-5.338799999997718,2.307099999999991-8.833499999998821,2.307099999999991-3.106399999998757,0-5.921400000001995-.615700000000288-8.445300000001225-1.843699999999444-2.523399999998219-1.22899999999936-4.659199999998236-2.976599999999962-6.406199999997625-5.242200000000594-1.747600000002421-2.264699999999721-3.106500000001688-5.014699999999721-4.07720000000154-8.251000000000204-.970699999999852-3.235399999999572-1.456000000000131-6.859399999999368-1.456000000000131-10.872099999998682,0-4.011700000000928.485300000000279-7.635700000000725,1.456000000000131-10.872000000001208.970699999999852-3.235399999999572,2.329599999999118-5.985399999999572,4.07720000000154-8.251000000000204,1.746999999999389-2.264699999999721,3.882799999999406-4.011699999999109,6.406199999997625-5.242199999998775,2.52389999999923-1.228499999999258,5.338900000002468-1.843800000000556,8.445300000001225-1.843800000000556,3.494700000001103,0,6.487299999997958.753500000000713,8.979000000001179,2.257900000000518,2.490799999999581,1.506799999999203,4.38329999999678,3.828600000000733,5.678699999998571,6.968199999999342h.388199999999415v-8.060999999999694h7.765600000000632v48.438000000000102ZM251.998500000000604,622.813401632520254c1.747600000000602,0,3.397500000000946-.227500000000873,4.950700000001234-.682600000000093,1.553199999998469-.454600000000937,2.895499999998719-1.122600000000602,4.028299999998126-2.000500000000102,1.131900000000314-.876900000001115,2.03859999999986-1.950699999999415,2.718300000001364-3.217800000000352.679200000001401-1.268500000000131,1.018999999999323-2.748999999999796,1.018999999999323-4.439899999999398v-18.634799999999814c0-1.365200000000186-.324199999999109-2.649900000000343-.970699999998033-3.854000000001179-.647400000001653-1.20260000000053-1.553200000002107-2.22649999999885-2.717800000001262-3.072699999998804-1.165000000000873-.844699999999648-2.523900000001049-1.511200000000827-4.077099999999518-1.999499999999898-1.553200000000288-.488300000000891-3.203100000000632-.732500000000073-4.950700000001234-.732500000000073-4.40139999999883,0-7.89600000000064,1.398499999999331-10.483399999998255,4.195399999998699-2.589300000002368,2.796800000000076-3.882800000002135,6.406699999999546-3.882800000002135,10.830000000001746v8.583999999998923c0,4.422899999999572,1.293499999999767,8.03269999999975,3.882800000002135,10.83009999999922,2.587399999997615,2.796400000001086,6.081999999999425,4.194800000001123,10.483399999998255,4.194800000001123Z"/><path class="uuid-bfd36b99-c688-4a86-8646-9a9ea2e8f202" d="M319.850100000001476,620.479401632519512h-.388200000000325c-.518599999999424,1.15480000000025-1.149399999998423,2.291500000001179-1.89259999999922,3.412600000001476-.745100000000093,1.120599999998376-1.667000000001281,2.114299999999275-2.766600000000835,2.978599999998551-1.10149999999885.865200000000186-2.426699999999983,1.55370000000039-3.979999999999563,2.066399999999703-1.553200000000288.51220000000103-3.365700000000288.768500000000131-5.435999999999694.768500000000131-5.178200000000288,0-9.287100000001374-1.664999999999054-12.328100000000632-4.998999999999796-3.042500000001382-3.332499999998618-4.5625-8.039999999999054-4.5625-14.123999999999796v-32.129899999999907h7.765600000000632v30.837900000000445c0,9.01510000000053,3.81789999999819,13.522899999999936,11.454599999999118,13.522899999999936,1.553200000000288,0,3.057600000000093-.19380000000092,4.513700000001336-.584000000000742,1.455999999998312-.388100000000122,2.75-.972099999999045,3.882799999999406-1.75,1.131799999999203-.778299999999945,2.038499999999658-1.766999999999825,2.718199999999342-2.967199999999139.679700000000594-1.199300000000221,1.019100000000435-2.643100000001141,1.019100000000435-4.330100000001039v-34.729499999999462h7.765599999999722v50.087900000000445h-7.765599999999722v-8.061100000000806Z"/><path class="uuid-bfd36b99-c688-4a86-8646-9a9ea2e8f202" d="M348.000000000002728,566.706501632519576c-1.683599999999387,0-2.897000000000844-.403299999999945-3.640200000001641-1.213399999998728-.744599999999991-.808100000002014-1.11620000000039-1.858900000001086-1.11620000000039-3.15480000000025v-1.261700000000928c0-1.293899999998757.371600000000399-2.34519999999975,1.11620000000039-3.155300000000352.743200000000797-.808600000000297,1.956600000002254-1.213299999999435,3.640200000001641-1.213299999999435,1.682099999998172,0,2.895499999999629.404699999999139,3.64009999999962,1.213299999999435.743199999998978.810100000000602,1.116199999997662,1.861400000001595,1.116199999997662,3.155300000000352v1.261700000000928c0,1.295899999999165-.372999999998683,2.346699999998236-1.116199999997662,3.15480000000025-.744599999999991.810099999998783-1.958000000001448,1.213399999998728-3.64009999999962,1.213399999998728ZM344.117200000001503,578.452601632519873h7.765600000000632v50.087900000000445h-7.765600000000632v-50.087900000000445Z"/><path class="uuid-bfd36b99-c688-4a86-8646-9a9ea2e8f202" d="M383.431100000000697,629.705501632519372c-4.659100000000763,0-8.55909999999858-.890099999998711-11.697199999998702-2.668899999998757-3.139699999999721-1.779300000000148-5.840900000001056-4.158200000001671-8.105500000001484-7.134799999999814l5.533200000001671-4.465800000001764c1.941399999999703,2.459900000001653,4.108899999999267,4.352500000000873,6.503899999999703,5.67870000000039,2.393599999999424,1.327100000000428,5.176799999999275,1.990200000000186,8.348200000000361,1.990200000000186,3.300199999997858,0,5.872499999997672-.711900000000242,7.716699999999037-2.135699999998906,1.84480000000076-1.422900000001391,2.766600000000835-3.429700000000594,2.766600000000835-6.018600000001243,0-1.941399999999703-.630800000000818-3.606399999998757-1.892500000001746-4.998999999999796-1.262199999999211-1.390600000000632-3.543499999999767-2.344699999999648-6.843799999998737-2.863299999999072l-3.979999999999563-.583000000000538c-2.329499999999825-.323200000000725-4.465299999999843-.824699999999211-6.406699999999546-1.503899999999703-1.941400000001522-.680200000000696-3.64010000000053-1.585399999999936-5.096199999999953-2.718200000001161-1.45600000000195-1.131399999998393-2.588900000002468-2.539600000000064-3.397500000002765-4.223200000000361-.809999999997672-1.681599999999889-1.213300000000345-3.688499999998385-1.213300000000345-6.01759999999922,0-2.458999999998923.452100000003156-4.611300000000483,1.358900000001995-6.454999999999927.905700000001161-1.84480000000076,2.150800000001254-3.381900000000314,3.737299999998868-4.611399999999776,1.584900000001653-1.228500000001077,3.478000000000975-2.150900000000547,5.67870000000039-2.766599999999016,2.199199999999109-.614199999999983,4.5625-.921900000001187,7.08640000000014-.921900000001187,4.076700000001438,0,7.489300000001094.712400000000343,10.240700000000288,2.135299999999916,2.75,1.424300000000585,5.160200000000259,3.397500000000946,7.231999999999971,5.921400000001086l-5.145099999999729,4.659199999998236c-1.100999999998749-1.552799999999479-2.717700000001059-2.959999999999127-4.853500000001077-4.22269999999844-2.135199999998804-1.261700000000928-4.82129999999961-1.892600000001039-8.05659999999898-1.892600000001039-3.236799999999675,0-5.678700000001299.695799999999508-7.329099999999016,2.086900000000242-1.649900000001253,1.392100000000937-2.475100000000566,3.285200000000259-2.475100000000566,5.678799999999683,0,2.459899999999834.825199999999313,4.239199999999983,2.475100000000566,5.338799999999537,1.650399999997717,1.101600000001781,4.028799999999137,1.909200000001874,7.134699999997792,2.426800000001094l3.882900000000518.582000000000335c5.564900000001217.841800000000148,9.513100000000122,2.444299999999203,11.842700000001059,4.805199999998877,2.329600000000937,2.363300000000891,3.494699999999284,5.45260000000053,3.494699999999284,9.270500000000538,0,4.853500000001077-1.650399999998626,8.67239999999947-4.950699999999415,11.454600000000937-3.300300000000789,2.783199999999852-7.831100000001243,4.173799999998664-13.589900000000853,4.173799999998664Z"/><path class="uuid-bfd36b99-c688-4a86-8646-9a9ea2e8f202" d="M426.046400000001995,628.540501632520318c-2.717800000002171,0-4.773000000001048-.757799999999406-6.164100000001781-2.274900000000343-1.392099999999118-1.516599999999016-2.086899999998423-3.503399999999601-2.086899999998423-5.957500000000437v-34.96389999999883h-8.251000000000204v-6.891600000000835h4.659200000000055c1.682099999999991,0,2.830599999999322-.340299999999843,3.44629999999961-1.020000000000437.614199999999983-.679200000000492.921899999999368-1.859399999999368.921899999999368-3.542999999999665v-9.318900000000212h6.989199999999983v13.881900000000314h10.969300000000658v6.891600000000835h-10.969300000000658v36.304699999998775h10.192399999999907v6.891600000000835h-9.706999999998516Z"/><path class="uuid-bfd36b99-c688-4a86-8646-9a9ea2e8f202" d="M452.9350000000004,566.706501632519576c-1.683600000000297,0-2.896899999999732-.403299999999945-3.64010000000053-1.213399999998728-.744599999999991-.808100000002014-1.116699999998673-1.858900000001086-1.116699999998673-3.15480000000025v-1.261700000000928c0-1.293899999998757.372099999998682-2.34519999999975,1.116699999998673-3.155300000000352.743200000000797-.808600000000297,1.956500000000233-1.213299999999435,3.64010000000053-1.213299999999435,1.682200000001103,0,2.895500000000538.404699999999139,3.640200000001641,1.213299999999435.743099999997867.810100000000602,1.11620000000039,1.861400000001595,1.11620000000039,3.155300000000352v1.261700000000928c0,1.295899999999165-.373100000002523,2.346699999998236-1.11620000000039,3.15480000000025-.744700000001103.810099999998783-1.958000000000538,1.213399999998728-3.640200000001641,1.213399999998728ZM449.052200000000994,578.452601632519873h7.765599999998813v50.087900000000445h-7.765599999998813v-50.087900000000445Z"/><path class="uuid-bfd36b99-c688-4a86-8646-9a9ea2e8f202" d="M491.957500000001346,629.705501632519372c-3.494599999999991,0-6.634299999999712-.615700000000288-9.415999999999258-1.843699999999444-2.783200000001671-1.22899999999936-5.129400000001624-2.976599999999962-7.037599999999657-5.242200000000594-1.909700000000157-2.264699999999721-3.365700000002107-5.014699999999721-4.368200000000797-8.251000000000204-1.003899999999703-3.235399999999572-1.504400000001624-6.859399999999368-1.504400000001624-10.872099999998682,0-4.011700000000928.500500000001921-7.635700000000725,1.504400000001624-10.872000000001208,1.00249999999869-3.235399999999572,2.45850000000064-5.985399999999572,4.368200000000797-8.251000000000204,1.908199999998033-2.264699999999721,4.254399999997986-4.011699999999109,7.037599999999657-5.242199999998775,2.781699999999546-1.228499999999258,5.921399999999267-1.843800000000556,9.415999999999258-1.843800000000556,4.982399999998961,0,8.979000000001179,1.084000000000742,11.988299999999072,3.251000000000204,3.009300000001531,2.169499999999971,5.257300000001123,5,6.746600000002218,8.494200000001001l-6.503900000001522,3.300699999999779c-.906799999998839-2.587800000001153-2.395099999999729-4.594700000001467-4.465399999999136-6.018500000000131-2.071800000001531-1.422899999999572-4.659200000001874-2.135800000000017-7.765600000000632-2.135800000000017-2.329599999999118,0-4.368199999998978.373099999998885-6.115700000000288,1.116299999999683-1.747100000000501.744599999999991-3.203099999998813,1.781199999999444-4.368200000000797,3.106400000000576-1.164499999998952,1.327199999999721-2.03859999999986,2.912099999999555-2.620599999998376,4.756399999998393-.582500000000437,1.84519999999975-.873999999999796,3.867600000001403-.873999999999796,6.066800000000512v8.542000000001281c0,4.402399999999034,1.180199999998877,8.00879999999961,3.543399999998655,10.8237999999983,2.361400000001595,2.815399999999499,5.839400000000751,4.222600000000966,10.435100000000602,4.222600000000966,6.276400000000649,0,10.806599999999889-2.911599999999453,13.589799999999741-8.736300000000483l5.630400000000009,3.785599999999249c-1.618199999998978,3.625-4.028299999999945,6.503900000001522-7.231900000000678,8.63970000000154-3.203099999998813,2.135199999998804-7.199699999999211,3.203099999998813-11.988299999999072,3.203099999998813Z"/><path class="uuid-bfd36b99-c688-4a86-8646-9a9ea2e8f202" d="M537.191900000000714,629.705501632519372c-4.659700000000157,0-8.55909999999858-.890099999998711-11.697299999999814-2.668899999998757-3.139599999998609-1.779300000000148-5.840799999999945-4.158200000001671-8.105499999999665-7.134799999999814l5.533199999999852-4.465800000001764c1.941399999999703,2.459900000001653,4.108899999999267,4.352500000000873,6.503899999999703,5.67870000000039,2.393100000001141,1.327100000000428,5.176299999999173,1.990200000000186,8.348200000000361,1.990200000000186,3.30029999999897,0,5.872599999998783-.711900000000242,7.716800000000148-2.135699999998906,1.844699999999648-1.422900000001391,2.766600000000835-3.429700000000594,2.766600000000835-6.018600000001243,0-1.941399999999703-.630900000000111-3.606399999998757-1.892600000001039-4.998999999999796-1.262199999999211-1.390600000000632-3.543400000000474-2.344699999999648-6.843699999999444-2.863299999999072l-3.979999999999563-.583000000000538c-2.329600000000937-.323200000000725-4.465299999999843-.824699999999211-6.406800000000658-1.503899999999703-1.941400000001522-.680200000000696-3.64010000000053-1.585399999999936-5.096099999998842-2.718200000001161-1.456100000001243-1.131399999998393-2.588900000002468-2.539600000000064-3.397500000000946-4.223200000000361-.810100000000602-1.681599999999889-1.213400000000547-3.688499999998385-1.213400000000547-6.01759999999922,0-2.458999999998923.45220000000154-4.611300000000483,1.358900000001086-6.454999999999927.905800000000454-1.84480000000076,2.150899999998728-3.381900000000314,3.737299999998868-4.611399999999776,1.585000000000946-1.228500000001077,3.478000000000975-2.150900000000547,5.67870000000039-2.766599999999016,2.199200000000928-.614199999999983,4.5625-.921900000001187,7.08640000000014-.921900000001187,4.076699999999619,0,7.489299999999275.712400000000343,10.240799999999581,2.135299999999916,2.75,1.424300000000585,5.160099999999147,3.397500000000946,7.231900000000678,5.921400000001086l-5.145000000000437,4.659199999998236c-1.10109999999986-1.552799999999479-2.717800000000352-2.959999999999127-4.853500000001077-4.22269999999844-2.135299999998097-1.261700000000928-4.82129999999961-1.892600000001039-8.056699999999182-1.892600000001039-3.236800000000585,0-5.678699999998571.695799999999508-7.329100000000835,2.086900000000242-1.649900000000343,1.392100000000937-2.475099999999657,3.285200000000259-2.475099999999657,5.678799999999683,0,2.459899999999834.825199999999313,4.239199999999983,2.475099999999657,5.338799999999537,1.650400000002264,1.101600000001781,4.028800000000047,1.909200000001874,7.134799999999814,2.426800000001094l3.882800000001225.582000000000335c5.564899999999398.841800000000148,9.513199999999415,2.444299999999203,11.842799999998533,4.805199999998877,2.329600000002756,2.363300000000891,3.494599999999991,5.45260000000053,3.494599999999991,9.270500000000538,0,4.853500000001077-1.650399999998626,8.67239999999947-4.950699999997596,11.454600000000937-3.300300000000789,2.783199999999852-7.83100000000195,4.173799999998664-13.58980000000156,4.173799999998664Z"/><path class="uuid-bfd36b99-c688-4a86-8646-9a9ea2e8f202" d="M124.448699999999917,746.190901632518944c-5.500999999998385,0-10.192399999999907-1.052799999999479-14.075199999999313-3.154299999998329-3.882799999999406-2.102600000000166-7.183600000002116-4.999500000001717-9.90139999999883-8.688500000000204l6.018599999999424-5.047900000001391c2.393100000000231,3.171900000001187,5.04739999999947,5.582100000001446,7.959500000000844,7.232500000001892,2.912099999999555,1.649899999998524,6.34179999999742,2.475099999999657,10.289999999999054,2.475099999999657,4.853499999998348,0,8.557099999999991-1.165100000000166,11.114299999998366-3.494700000001103,2.555600000000595-2.329999999999927,3.834400000000642-5.435999999999694,3.834400000000642-9.318799999999101,0-3.23489999999947-.970699999998033-5.727100000000064-2.912099999998645-7.474099999999453-1.941399999998794-1.748100000000704-5.144999999999527-3.138700000001336-9.609800000001997-4.174800000000687l-5.533199999998033-1.261800000000221c-6.212900000001355-1.422800000000279-10.954099999999926-3.574199999999109-14.221199999999953-6.454999999999927-3.268600000000333-2.878899999999703-4.901899999999841-6.940500000000611-4.901899999999841-12.182699999999386,0-2.975500000000466.548800000000483-5.629800000000614,1.649900000000343-7.958900000001449,1.100099999999657-2.33009999999922,2.6362999999983-4.271499999998923,4.610899999999674-5.824699999999211,1.973599999999351-1.553299999999581,4.334899999999834-2.733000000000175,7.08640000000014-3.543499999999767,2.75-.808600000000297,5.775899999999638-1.213400000000547,9.076199999999517-1.213400000000547,5.111300000000483,0,9.496100000000297.939000000000306,13.153299999999945,2.815399999999499,3.655300000000352,1.877500000000509,6.746100000000297,4.627500000000509,9.269999999998618,8.251000000000204l-6.115199999998367,4.465400000000955c-1.877999999998792-2.587900000000445-4.142600000001039-4.626000000000204-6.794999999999163-6.1158000000014-2.654300000001058-1.48779999999897-5.955000000000837-2.232899999999063-9.901300000002266-2.232899999999063-4.33640000000014,0-7.750499999998283.922899999999572-10.241199999998571,2.766599999999016-2.491700000000492,1.84480000000076-3.737299999998868,4.611400000001595-3.737299999998868,8.299800000000687,0,3.236800000000585,1.051199999998062,5.67870000000039,3.155199999997421,7.328600000000733,2.102100000000064,1.650399999998626,5.290100000001985,2.961499999999432,9.561600000000908,3.932199999999284l5.53269999999975,1.261700000000928c6.664500000000771,1.489199999999983,11.486300000000483,3.753899999999703,14.463400000000547,6.794899999998961,2.975999999998749,3.042000000001281,4.465299999999843,7.085900000000038,4.465299999999843,12.13379999999961,0,3.106400000000576-.533699999999953,5.920900000000984-1.601599999999962,8.445300000001225-1.067799999998897,2.523499999999331-2.605900000000474,4.659200000000055-4.610800000000381,6.406300000000556-2.006899999999405,1.747499999999491-4.450199999998404,3.106399999998757-7.328600000000733,4.077099999998609-2.88039999999819.970699999999852-6.132399999997688,1.456099999999424-9.755900000000111,1.456099999999424Z"/><path class="uuid-bfd36b99-c688-4a86-8646-9a9ea2e8f202" d="M179.972600000000057,746.190901632518944c-3.365699999998469,0-6.439899999997579-.615799999999581-9.221599999998944-1.844299999998839-2.783199999999852-1.228000000000975-5.161699999999655-2.992599999999584-7.134799999999814-5.290500000000975-1.974599999999555-2.295899999999165-3.511199999999008-5.04739999999947-4.610900000001493-8.251000000000204-1.100999999998749-3.203099999998813-1.649899999998524-6.810499999999593-1.649899999998524-10.823199999998906,0-3.94629999999961.548899999999776-7.538099999999758,1.649899999998524-10.775400000000445,1.099700000002485-3.234399999999368,2.636300000001938-6.001999999998588,4.610900000001493-8.299300000000585,1.973100000000159-2.296399999999267,4.351599999999962-4.060099999998783,7.134799999999814-5.290599999998449,2.781700000001365-1.228500000001077,5.855900000000474-1.843700000001263,9.221599999998944-1.843700000001263,3.364300000001094,0,6.421900000001187.615200000000186,9.173400000001493,1.843700000001263,2.75,1.230499999999665,5.128399999999601,2.994199999999182,7.134700000000521,5.290599999998449,2.00539999999819,2.297300000001997,3.558599999999387,5.064900000001217,4.659700000000157,8.299300000000585,1.099599999997736,3.237300000000687,1.649900000000343,6.829100000000835,1.649900000000343,10.775400000000445,0,4.012699999999313-.550300000002608,7.620100000000093-1.649900000000343,10.823199999998906-1.10110000000077,3.203600000000733-2.654300000001967,5.955100000001039-4.659700000000157,8.251000000000204-2.00630000000092,2.297900000001391-4.384700000000521,4.0625-7.134700000000521,5.290500000000975-2.751500000000306,1.228499999999258-5.809100000000399,1.844299999998839-9.173400000001493,1.844299999998839ZM179.972600000000057,739.298801632519826c4.206100000001243,0,7.635300000001735-1.293499999999767,10.289600000000064-3.882799999999406,2.652799999999843-2.587400000000343,3.980000000001382-6.535700000000361,3.980000000001382-11.84230000000025v-7.183600000000297c0-5.305699999998978-1.32720000000154-9.253899999999703-3.980000000001382-11.842800000000352-2.654299999998329-2.587400000000343-6.083499999998821-3.882799999999406-10.289600000000064-3.882799999999406-4.206999999998516,0-7.636699999999109,1.295399999999063-10.289499999998952,3.882799999999406-2.654300000000148,2.588900000000649-3.979999999999563,6.537100000001374-3.979999999999563,11.842800000000352v7.183600000000297c0,5.306599999999889,1.325699999999415,9.254899999999907,3.979999999999563,11.84230000000025,2.652799999999843,2.589299999999639,6.082500000000437,3.882799999999406,10.289499999998952,3.882799999999406Z"/><path class="uuid-bfd36b99-c688-4a86-8646-9a9ea2e8f202" d="M234.041000000000167,746.190901632518944c-3.494099999999889,0-6.63379999999961-.615799999999581-9.415499999999156-1.844299999998839-2.783199999999852-1.228000000000975-5.129899999999907-2.976000000000568-7.037600000000566-5.241700000000492-1.909699999999248-2.264599999998609-3.365799999998671-5.014599999998609-4.368199999999888-8.250899999999092-1.004399999997986-3.235400000001391-1.504899999999907-6.859400000001187-1.504899999999907-10.872100000000501,0-4.011699999999109.500500000001921-7.635800000000017,1.504899999999907-10.872100000000501,1.002400000001217-3.235300000000279,2.45850000000064-5.985300000000279,4.368199999999888-8.251000000000204,1.907700000000659-2.264599999998609,4.254400000000714-4.011699999999109,7.037600000000566-5.242199999998775,2.781699999999546-1.228500000001077,5.921399999999267-1.843700000001263,9.415499999999156-1.843700000001263,4.98240000000078,0,8.979000000000269,1.084000000000742,11.988800000000992,3.251500000000306,3.008800000001429,2.169400000000678,5.256800000001022,4.999499999999898,6.746100000000297,8.493599999999788l-6.503500000000713,3.300800000000891c-.907199999999648-2.587900000000445-2.395499999998719-4.594699999999648-4.465799999998126-6.018600000001243-2.071300000001429-1.42279999999846-4.659200000001874-2.135699999998906-7.765600000002451-2.135699999998906-2.329099999999016,0-4.368199999998978.372999999999593-6.115200000000186,1.11620000000039-1.747099999998682.745100000000093-3.203199999999924,1.780800000000454-4.368199999998978,3.106499999999869-1.164999999999054,1.327100000000428-2.03859999999986,2.912099999999555-2.621099999998478,4.756299999999101-.582000000003063,1.844700000001467-.873500000001513,3.867700000000696-.873500000001513,6.066899999999805v8.542999999999665c0,4.401300000001356,1.180100000002312,8.007800000001225,3.542899999999463,10.823200000000725,2.361900000000787,2.815000000000509,5.83940000000166,4.222200000000157,10.435099999999693,4.222200000000157,6.276400000002468,0,10.806599999999889-2.912099999999555,13.58980000000156-8.736399999999776l5.63039999999819,3.785700000000361c-1.618199999998978,3.625-4.028299999998126,6.503899999999703-7.231399999998757,8.639599999998609-3.203599999998914,2.135300000001735-7.200200000001132,3.203199999999924-11.988800000000992,3.203199999999924Z"/><path class="uuid-bfd36b99-c688-4a86-8646-9a9ea2e8f202" d="M268.112300000001596,683.191801632519855c-1.683600000000297,0-2.896999999999025-.403299999999945-3.640199999999822-1.212799999999334-.74460000000181-.809100000000399-1.116200000001299-1.859900000001289-1.116200000001299-3.155300000000352v-1.261700000000928c0-1.293999999999869.371599999999489-2.345299999999042,1.116200000001299-3.155299999998533.743200000000797-.808600000000297,1.956599999999526-1.212900000000445,3.640199999999822-1.212900000000445,1.682099999999991,0,2.895500000000538.404300000000148,3.640099999998711,1.212900000000445.743200000000797.809999999999491,1.11620000000039,1.861299999998664,1.11620000000039,3.155299999998533v1.261700000000928c0,1.295399999999063-.372999999999593,2.346199999999953-1.11620000000039,3.155300000000352-.744599999998172.809499999999389-1.957999999998719,1.212799999999334-3.640099999998711,1.212799999999334ZM264.229499999999462,694.93740163252005h7.765600000001541v50.088400000000547h-7.765600000001541v-50.088400000000547Z"/><path class="uuid-bfd36b99-c688-4a86-8646-9a9ea2e8f202" d="M307.329100000001745,746.190901632518944c-3.430700000000797,0-6.520500000000538-.615799999999581-9.270500000000538-1.844299999998839-2.751000000000204-1.228000000000975-5.112799999999879-2.992599999999584-7.08600000000115-5.290500000000975-1.975100000000566-2.295899999999165-3.494599999998172-5.04739999999947-4.5625-8.251000000000204-1.067799999998897-3.203099999998813-1.60149999999885-6.810499999999593-1.60149999999885-10.823199999998906,0-3.94629999999961.533699999999953-7.538099999999758,1.60149999999885-10.775400000000445,1.067900000001828-3.234399999999368,2.587399999999434-6.001999999998588,4.5625-8.299300000000585,1.97320000000127-2.296399999999267,4.335000000000946-4.060099999998783,7.08600000000115-5.290599999998449,2.75-1.228500000001077,5.839799999999741-1.843700000001263,9.270500000000538-1.843700000001263,3.364199999999983,0,6.372999999998683.612300000000687,9.027299999999741,1.837900000000445,2.653300000000854,1.225599999999758,4.917499999999563,2.91990000000078,6.79489999999987,5.079600000000937,1.876500000001215,2.159599999999045,3.315999999999804,4.723099999999249,4.319900000001326,7.689899999999398,1.002399999997579,2.966800000000148,1.504899999999907,6.223200000000361,1.504899999999907,9.769099999999526v3.677200000000084h-36.013700000001336v2.329100000000835c0,2.135800000000017.339799999999741,4.125499999998283,1.019500000000335,5.97019999999975.679199999998673,1.844300000000658,1.649900000000343,3.445799999999508,2.912099999999555,4.804700000000594,1.261700000000928,1.358899999999267,2.815000000000509,2.426799999999275,4.659200000000055,3.203599999998914,1.844199999999546.776400000000649,3.931599999999889,1.164600000000064,6.261200000000827,1.164600000000064,3.169999999998254,0,5.936599999999089-.743199999998978,8.299299999998766-2.232399999998961,2.361899999999878-1.487800000000789,4.189500000000407-3.623600000000806,5.48489999999947-6.406800000000658l5.533200000001671,4.005400000000009c-1.618600000002516,3.452599999998711-4.14259999999922,6.235800000000381-7.57180000000244,8.351599999999962-3.43109999999615,2.115700000000288-7.507799999998497,3.174299999998766-12.230899999997746,3.174299999998766ZM307.329100000001745,700.27630163251888c-2.135800000000017,0-4.077199999999721.370100000000093-5.824199999999109,1.110400000001391-1.747600000002421.740700000000288-3.252000000000407,1.785099999999147-4.513700000001336,3.135200000000623-1.262199999999211,1.349599999999555-2.249500000000808,2.942399999999907-2.960900000000038,4.774399999998423-.712899999998626,1.83350000000064-1.067900000000009,3.843300000000454-1.067900000000009,6.030300000000352v.674800000000687h27.665500000000975v-1.061499999999796c0-4.4375-1.213400000000547-7.989800000001196-3.64010000000053-10.659200000000055-2.426800000001094-2.668900000000576-5.647000000000844-4.004400000001624-9.658699999999953-4.004400000001624Z"/><path class="uuid-bfd36b99-c688-4a86-8646-9a9ea2e8f202" d="M352.855000000002292,745.025801632520597c-2.717800000002171,0-4.773000000001048-.757800000001225-6.164100000001781-2.274400000000242-1.392100000000028-1.517100000000937-2.086899999998423-3.503900000001522-2.086899999998423-5.958000000000538v-34.96389999999883h-8.251000000000204v-6.892100000000937h4.659199999998236c1.68210000000181,0,2.830600000001141-.339799999999741,3.446300000001429-1.019500000000335.614199999999983-.679200000000492.921799999998257-1.858899999999267.921799999998257-3.542499999999563v-9.319300000001022h6.989300000001094v13.88130000000092h10.969199999999546v6.892100000000937h-10.969199999999546v36.304699999998775h10.192399999999907v6.891600000000835h-9.706999999998516Z"/><path class="uuid-bfd36b99-c688-4a86-8646-9a9ea2e8f202" d="M406.729000000002088,694.93740163252005h7.668900000000576l-22.4233000000022,61.73739999999998c-.582500000000437,1.487699999999677-1.165099999998347,2.732900000000882-1.747599999998783,3.736800000000585-.582000000000335,1.002899999999499-1.29490000000078,1.796399999999267-2.135200000000623,2.378399999999601-.841799999998329.582499999998618-1.893100000001141,1.003399999999601-3.15480000000025,1.262199999999211-1.262199999999211.257799999999406-2.799800000000687.388200000001234-4.610799999998562.388200000001234h-3.979999999999563v-6.892100000000937h7.86279999999897l3.785599999999249-10.661099999999351-18.734899999998561-51.949800000000323h7.765699999998105l12.037100000002283,34.006400000000212,2.329599999997299,8.139199999999619h.485300000000279l2.717800000002171-8.139199999999619,12.13379999999961-34.006400000000212Z"/><path class="uuid-bfd36b99-c688-4a86-8646-9a9ea2e8f202" d="M122.468709374999889,839.939412499999889l-2.416015625-7.6787109375h-10.69775390625l-2.37255859375,7.6787109375h-5.7802734375l10.09423828125-30.109375h7.07421875l10.0078125,30.109375h-5.90966796875ZM114.790486718749889,815.005818749999889h-.2158203125l-3.83935546875,12.380859375h7.93701171875l-3.8818359375-12.380859375Z"/><path class="uuid-bfd36b99-c688-4a86-8646-9a9ea2e8f202" d="M151.930135156249889,839.939412499999889l-2.416015625-7.6787109375h-10.69775390625l-2.37255859375,7.6787109375h-5.7802734375l10.09423828125-30.109375h7.07421875l10.0078125,30.109375h-5.90966796875ZM144.251424218749889,815.005818749999889h-.21533203125l-3.83935546875,12.380859375h7.93701171875l-3.88232421875-12.380859375Z"/></g></svg>