<?xml version="1.0" encoding="UTF-8"?><svg id="uuid-c8858c8e-e086-4cf9-a7c4-1694f721c453" xmlns="http://www.w3.org/2000/svg" width="223.376204423003685mm" height="281.930400210274684mm" xmlns:xlink="http://www.w3.org/1999/xlink" viewBox="0 0 633.192399999999907 799.172800000000279"><defs><style>.uuid-a6d20542-7057-406f-bc1b-507dafc4552c{fill:#fff;}.uuid-f8c1009a-fdb4-4b12-9e5b-9438131846b2{fill:none;}.uuid-65ee41e8-0a1c-4437-ab92-5f2c9a8de48b{fill:#333e48;}.uuid-f3ce0d60-7130-46cd-b681-0f907f638756{clip-path:url(#uuid-0801a389-523d-4f3c-beba-760baef7af0d);}</style><clipPath id="uuid-0801a389-523d-4f3c-beba-760baef7af0d"><rect class="uuid-f8c1009a-fdb4-4b12-9e5b-9438131846b2" width="633.192399999999907" height="799.172800000000279"/></clipPath></defs><g class="uuid-f3ce0d60-7130-46cd-b681-0f907f638756"><path class="uuid-a6d20542-7057-406f-bc1b-507dafc4552c" d="M79.22360000000026,135.787099999999555c-4.552700000000186,10.763600000000224-7.259700000000521,22.072200000000521-8.085900000000038,33.712900000000445,1.79489999999987-1.460999999999331,4.08010000000013-2.339899999999034,6.568400000000111-2.339899999999034,2.747999999999593,0,5.244099999999889,1.076199999999517,7.109300000000076,2.818399999998292,3.667999999999665-47.796899999999368,43.611399999999776-85.4375,92.351599999999053-85.4375,3.775400000000445,0,6.835900000000947-3.060599999998885,6.835900000000947-6.837900000000445,0-3.775399999998626-3.060500000000502-6.837899999998626-6.835900000000947-6.837899999998626-14.345699999999852,0-28.269499999999425,2.8125-41.384799999999814,8.359399999999368-12.658199999999852,5.355400000000373-24.025399999999536,13.017499999999927-33.783199999999852,22.775400000000445-9.759699999999611,9.759700000000521-17.421899999999368,21.125-22.775399999999536,33.787099999999555Z"/><path class="uuid-a6d20542-7057-406f-bc1b-507dafc4552c" d="M169.596700000000055,269.486300000000483c-47.478500000000167-3.841800000000148-84.837900000000445-43.48240000000078-85.052800000000389-91.898400000000038,0-3.777400000000853-3.060499999999593-6.839900000000853-6.837799999999334-6.839900000000853-3.775400000000445,0-6.837900000000445,3.0625-6.837900000000445,6.839900000000853.054699999999684,14.195299999999406,2.861300000000483,27.97649999999885,8.355400000000373,40.962799999999334,5.353500000000167,12.660200000000259,13.015699999999924,24.027399999999034,22.775399999999536,33.785200000000259,9.757800000000316,9.757799999999406,21.125,17.419899999998961,33.783199999999852,22.775400000000445,10.628900000000613,4.494099999999889,21.787100000000464,7.193299999998999,33.271500000000742,8.056599999999889-1.443300000000818-1.791000000001077-2.314400000000205-4.0625-2.314400000000205-6.535100000000966,0-2.76759999999922,1.091800000000148-5.279300000000148,2.85739999999987-7.146499999998923Z"/><path class="uuid-a6d20542-7057-406f-bc1b-507dafc4552c" d="M251.266599999999926,243.707000000000335c-1.333999999999833-1.335900000000038-3.083999999999833-2.002000000000407-4.833999999999833-2.002000000000407s-3.5.66610000000037-4.835900000000038,2.002000000000407c-16.671900000000278,16.146499999998923-39.388899999999921,26.087900000000445-64.429700000000594,26.087900000000445-3.777399999999034,0-6.837899999999536,3.0625-6.837899999999536,6.837899999998626,0,3.77730000000156,3.060500000000502,6.837900000000445,6.837899999999536,6.837900000000445,14.343700000000354,0,28.265600000000632-2.8125,41.380900000000565-8.359399999999368,12.204999999999927-5.160200000000259,23.20089999999982-12.474600000001374,32.718699999999899-21.734400000001187,2.671900000000278-2.669899999998961,2.671900000000278-7,0-9.669899999998961Z"/><path class="uuid-a6d20542-7057-406f-bc1b-507dafc4552c" d="M177.166999999999462,283.470699999999852c-3.777399999999034,0-6.837899999999536-3.060599999998885-6.837899999999536-6.837900000000445,0-3.775399999998626,3.060500000000502-6.837899999998626,6.837899999999536-6.837899999998626,25.040800000000672,0,47.757800000000316-9.941400000001522,64.429700000000594-26.087900000000445,1.335900000000038-1.335900000000038,3.085900000000038-2.002000000000407,4.835900000000038-2.002000000000407s3.5.66610000000037,4.833999999999833,2.002000000000407c2.671900000000278,2.669899999998961,2.671900000000278,7,0,9.669899999998961-9.517800000000079,9.259799999999814-20.513699999999972,16.574200000000928-32.718699999999899,21.734400000001187-13.115299999999934,5.546899999999368-27.037200000000212,8.359399999999368-41.380900000000565,8.359399999999368ZM135.782199999999648,275.111300000000483c-12.658199999999852-5.355500000001484-24.025399999999536-13.017600000001039-33.783199999999852-22.775400000000445-9.759699999999611-9.757800000001225-17.421899999999368-21.125-22.775399999999536-33.785200000000259-5.494099999999889-12.986300000000483-8.300700000000688-26.767499999999927-8.355400000000373-40.962799999999334,0-3.777400000000853,3.0625-6.839900000000853,6.837900000000445-6.839900000000853,3.777299999999741,0,6.837799999999334,3.0625,6.837799999999334,6.839900000000853.214899999999943,48.415999999999258,37.574300000000221,88.056599999999889,85.052800000000389,91.898400000000038-1.765599999999722,1.867199999998775-2.85739999999987,4.378899999999703-2.85739999999987,7.146499999998923,0,2.472600000000966.871099999999387,4.744099999999889,2.314400000000205,6.535100000000966-11.484400000000278-.863300000000891-22.64260000000013-3.5625-33.271500000000742-8.056599999999889ZM177.166999999999462,70.865200000000186c3.775400000000445,0,6.835900000000947,3.0625,6.835900000000947,6.837899999998626,0,3.77730000000156-3.060500000000502,6.837900000000445-6.835900000000947,6.837900000000445-48.740199999999277,0-88.683599999999387,37.640600000000632-92.351599999999053,85.4375-1.865200000000186-1.742199999998775-4.361300000000483-2.818399999998292-7.109300000000076-2.818399999998292-2.488299999999981,0-4.77350000000024.878899999999703-6.568400000000111,2.339899999999034.826199999999517-11.640699999999924,3.533199999999852-22.949300000000221,8.085900000000038-33.712900000000445,5.353500000000167-12.662099999999555,13.015699999999924-24.027399999999034,22.775399999999536-33.787099999999555,9.757800000000316-9.757900000000518,21.125-17.420000000000073,33.783199999999852-22.775400000000445,13.115300000000389-5.546899999999368,27.039099999999962-8.359399999999368,41.384799999999814-8.359399999999368Z"/><path class="uuid-a6d20542-7057-406f-bc1b-507dafc4552c" d="M233.460199999999986,120.875c-15.035400000000209-15.035200000000259-35.029500000000098-23.316399999999703-56.293200000000525-23.316399999999703-21.265599999999722,0-41.257799999999406,8.281199999999444-56.292999999999665,23.316399999999703-15.037099999999555,15.037099999999555-23.318299999999908,35.029300000000148-23.318299999999908,56.292900000000373,0,21.265699999999924,8.281200000000354,41.255900000000111,23.318299999999908,56.292999999999665,15.035200000000259,15.037099999999555,35.027399999999943,23.318400000000111,56.292999999999665,23.318400000000111,21.263700000000426,0,41.257800000000316-8.281300000000556,56.293200000000525-23.318400000000111,15.03690000000006-15.037099999999555,23.316200000000208-35.027299999999741,23.316200000000208-56.292999999999665,0-21.263600000000224-8.279300000000148-41.255800000000818-23.316200000000208-56.292900000000373Z"/><path class="uuid-65ee41e8-0a1c-4437-ab92-5f2c9a8de48b" d="M121.061499999999796,202.914000000000669v-51.490200000000186h11.166000000000167v3.806599999999889h-6.472600000000057v43.877000000000407h6.472600000000057v3.806599999999889h-11.166000000000167Z"/><path class="uuid-65ee41e8-0a1c-4437-ab92-5f2c9a8de48b" d="M233.272500000000036,151.423800000000483v51.490200000000186h-11.164099999999962v-3.806599999999889h6.468699999999899v-43.877000000000407h-6.468699999999899v-3.806599999999889h11.164099999999962Z"/><path class="uuid-65ee41e8-0a1c-4437-ab92-5f2c9a8de48b" d="M146.997099999999591,187.628899999999703c0,1.029300000000148.015600000000632,2.242200000000594.046800000000076,3.634700000000521.031300000000556,1.394599999999627.076200000000426,2.8125.128999999999905,4.248099999998885.054600000000391,1.4375.117100000000391,2.8125.193300000000818,4.121100000000297.074200000000019,1.308600000000297.165999999999258,2.40230000000156.273400000000038,3.281200000001263h-6.597600000000966v-36.365200000000186c0-3.132800000001225-.052699999999277-5.968800000000556-.16019999999935-8.511700000000928-.10739999999987-2.542999999999665-.267499999999927-4.748099999998885-.484300000000076-6.613299999999072h6.599599999999555v36.20509999999922Z"/><path class="uuid-65ee41e8-0a1c-4437-ab92-5f2c9a8de48b" d="M175.799799999999777,170.087900000000445v4.216699999999037h-6.050799999999981v24.394599999999627h6.050799999999981v4.21480000000156h-18.021499999999833v-4.21480000000156h5.953099999999722v-24.394599999999627h-5.953099999999722v-4.216699999999037h18.021499999999833Z"/><path class="uuid-65ee41e8-0a1c-4437-ab92-5f2c9a8de48b" d="M189.317399999999907,170.087900000000445c.126900000000205.343699999999444.255799999999908.78899999999885.384700000000521,1.337799999999334.130899999999201.546900000001187.246099999999387,1.119200000001001.355499999999665,1.720699999999852.105499999999665.599700000000666.201199999999517,1.191500000000815.289099999999962,1.769599999999627l.255799999999908,1.447200000000521c2.060599999999795-2.445299999999406,4.130900000000111-4.20889999999963,6.21100000000024-5.292900000000373,2.08199999999988-1.083999999998923,4.25-1.625,6.50189999999975-1.625,1.716800000000148,0,3.234399999999823.283199999999852,4.552799999999934.851500000000669,1.320300000000316.570299999999406,2.431599999999889,1.470699999999852,3.332000000000335,2.703199999999924.900399999999991,1.234300000000076,1.580099999999675,2.83389999999963,2.042999999999665,4.796800000000076s.691400000000158,4.328199999999924.691400000000158,7.097700000000259v14.478499999999258c0,3.627000000000407-.316400000000158,6.636700000000928-.949200000000019,9.027400000000853-.630900000000111,2.394500000000335-1.51760000000013,4.302699999998367-2.654300000000148,5.730399999998554-1.136799999999766,1.425800000000891-2.505899999999656,2.435600000000704-4.103599999999915,3.02350000000115-1.597600000000057.591800000000148-3.373000000000047.886699999999109-5.326099999999769.886699999999109-.964900000000398,0-2-.156299999998737-3.10550000000012-.466800000000148-1.103500000000167-.3125-2.10739999999987-.746100000000297-3.007800000000316-1.304699999998775l2.091800000000148-4.826200000001336c.492199999999684.365300000001298,1.152300000000196.66990000000078,1.978500000000167.918000000001484.826199999999972.246100000000297,1.66800000000012.369099999999889,2.525399999999991.369099999999889,1.030999999999949,0,1.953099999999722-.166000000001077,2.76949999999988-.497999999999593.814499999999953-.334000000000742,1.505900000000111-.918000000001484,2.074200000000019-1.753900000001522.568400000000111-.837900000000445,1.003900000000158-1.984399999999368,1.304700000000139-3.443399999998292.298899999999776-1.460900000001857.449200000000019-3.316400000001522.449200000000019-5.568300000000818v-14.160200000000259c0-2.574199999999109-.134700000000066-4.662099999999555-.402300000000196-6.259799999999814-.26760000000013-1.597600000000966-.671899999999823-2.843700000001263-1.20699999999988-3.73240000000078-.535200000000259-.890599999998813-1.207300000000032-1.486300000000483-2.011700000000019-1.787099999999555-.804700000000139-.298800000000483-1.742200000000139-.451199999999517-2.816499999999905-.451199999999517-1.158200000000306,0-2.287100000000009.275400000000445-3.392499999999927.822299999999814-1.10550000000012.546899999999368-2.121099999999842,1.253899999999703-3.04300000000012,2.122999999999593-.921900000000278.869199999999182-1.738299999999981,1.849700000000666-2.445300000000316,2.945400000000518-.706999999999425,1.093699999999444-1.234399999999368,2.1875-1.578099999999722,3.281199999999444v18.666000000001077h-5.953199999999924v-19.791000000001077c0-3.175799999999072-.181599999999889-5.863299999999072-.546800000000076-8.0625-.363299999999981-2.199199999999109-.718799999999646-3.85740000000078-1.0625-4.972599999999147h5.79489999999987Z"/><rect class="uuid-f8c1009a-fdb4-4b12-9e5b-9438131846b2" x="102.332275390620907" y="702.693318749999889" width="368.126220703129547" height="46.6611328125"/><path class="uuid-a6d20542-7057-406f-bc1b-507dafc4552c" d="M124.050048828125,712.137654687499889l-2.9404296875,3.4033203125c-2.058349609375-1.6806640625-4.07470703125-2.4365234375-6.42724609375-2.4365234375-2.520263671875,0-4.24267578125,1.091796875-4.24267578125,3.150390625,0,2.0166015625,1.09228515625,2.8564453125,5.839111328125,4.326171875,5.2509765625,1.6806640625,8.611572265625,3.865234375,8.611572265625,9.2421875,0,5.3349609375-4.200927734375,9.0732421875-11.258056640625,9.0732421875-4.830810546875,0-8.359619140625-1.7216796875-10.75390625-4.07421875l3.192626953125-3.4873046875c2.100341796875,1.806640625,4.41064453125,2.8994140625,7.393310546875,2.8994140625,2.982421875,0,4.998779296875-1.4287109375,4.998779296875-3.9912109375,0-2.310546875-1.13427734375-3.318359375-5.544921875-4.6630859375-6.30126953125-1.9736328125-8.821533203125-4.494140625-8.821533203125-8.9052734375,0-4.95703125,4.28466796875-8.19140625,10.165771484375-8.19140625,4.32666015625,0,7.267333984375,1.3017578125,9.78759765625,3.654296875Z"/><path class="uuid-a6d20542-7057-406f-bc1b-507dafc4552c" d="M147.695556640625,728.899373437499889h-13.904541015625c.420166015625,4.2841796875,2.4365234375,5.544921875,5.29296875,5.544921875,1.890380859375,0,3.48681640625-.5888671875,5.4189453125-1.9326171875l2.478515625,3.3603515625c-2.184326171875,1.7646484375-4.956787109375,3.0244140625-8.443359375,3.0244140625-7.141357421875,0-10.880126953125-4.705078125-10.880126953125-11.677734375,0-6.7216796875,3.61279296875-11.9306640625,10.123779296875-11.9306640625,6.30126953125,0,10.039794921875,4.201171875,10.039794921875,11.30078125,0,.755859375-.083984375,1.6796875-.1259765625,2.310546875ZM141.898681640625,724.908162499999889c0-3.3603515625-1.13427734375-5.544921875-3.99072265625-5.544921875-2.3525390625,0-3.78076171875,1.5546875-4.116943359375,5.796875h8.107666015625v-.251953125Z"/><path class="uuid-a6d20542-7057-406f-bc1b-507dafc4552c" d="M167.686767578125,717.976521874999889l-2.268310546875,3.4033203125c-1.806396484375-1.134765625-3.612548828125-1.7646484375-5.544921875-1.7646484375-1.974365234375,0-3.066650390625.7978515625-3.066650390625,2.0166015625,0,1.3017578125.756103515625,1.890625,4.662841796875,3.0244140625,4.452880859375,1.2177734375,6.97314453125,3.06640625,6.97314453125,7.015625,0,4.6201171875-4.32666015625,7.224609375-9.61962890625,7.224609375-3.86474609375,0-6.97314453125-1.3017578125-9.073486328125-3.234375l2.9404296875-3.2763671875c1.680419921875,1.3017578125,3.73876953125,2.1845703125,5.965087890625,2.1845703125s3.654541015625-.9248046875,3.654541015625-2.4365234375c0-1.6806640625-.798095703125-2.2265625-4.914794921875-3.361328125-4.494873046875-1.259765625-6.59521484375-3.486328125-6.59521484375-6.8466796875,0-3.7802734375,3.444580078125-6.6376953125,8.821533203125-6.6376953125,3.234619140625,0,5.965087890625,1.0087890625,8.0654296875,2.6884765625Z"/><path class="uuid-a6d20542-7057-406f-bc1b-507dafc4552c" d="M187.80419921875,717.976521874999889l-2.268310546875,3.4033203125c-1.806396484375-1.134765625-3.612548828125-1.7646484375-5.544921875-1.7646484375-1.974365234375,0-3.066650390625.7978515625-3.066650390625,2.0166015625,0,1.3017578125.756103515625,1.890625,4.662841796875,3.0244140625,4.452880859375,1.2177734375,6.973388671875,3.06640625,6.973388671875,7.015625,0,4.6201171875-4.326904296875,7.224609375-9.619873046875,7.224609375-3.86474609375,0-6.97314453125-1.3017578125-9.073486328125-3.234375l2.9404296875-3.2763671875c1.680419921875,1.3017578125,3.73876953125,2.1845703125,5.965087890625,2.1845703125s3.654541015625-.9248046875,3.654541015625-2.4365234375c0-1.6806640625-.798095703125-2.2265625-4.914794921875-3.361328125-4.494873046875-1.259765625-6.59521484375-3.486328125-6.59521484375-6.8466796875,0-3.7802734375,3.444580078125-6.6376953125,8.821533203125-6.6376953125,3.234619140625,0,5.965087890625,1.0087890625,8.0654296875,2.6884765625Z"/><path class="uuid-a6d20542-7057-406f-bc1b-507dafc4552c" d="M199.05810546875,707.979451562499889c0,1.9736328125-1.51220703125,3.486328125-3.654541015625,3.486328125s-3.61279296875-1.5126953125-3.61279296875-3.486328125c0-1.974609375,1.470458984375-3.4873046875,3.61279296875-3.4873046875s3.654541015625,1.5126953125,3.654541015625,3.4873046875ZM198.427978515625,738.224568749999889h-5.965087890625v-22.263671875h5.965087890625v22.263671875Z"/><path class="uuid-a6d20542-7057-406f-bc1b-507dafc4552c" d="M224.302490234375,727.092732812499889c0,7.056640625-3.99072265625,11.8037109375-10.669921875,11.8037109375-6.63720703125,0-10.669921875-4.41015625-10.669921875-11.8037109375,0-7.099609375,3.99072265625-11.8046875,10.7119140625-11.8046875,6.63720703125,0,10.6279296875,4.4111328125,10.6279296875,11.8046875ZM209.179931640625,727.092732812499889c0,5.125,1.51220703125,7.3515625,4.45263671875,7.3515625,2.940673828125,0,4.452880859375-2.2685546875,4.452880859375-7.3515625,0-5.125-1.51220703125-7.3515625-4.410888671875-7.3515625-2.982421875,0-4.49462890625,2.2685546875-4.49462890625,7.3515625Z"/><path class="uuid-a6d20542-7057-406f-bc1b-507dafc4552c" d="M247.486328125,722.009724999999889v16.21484375h-5.965087890625v-15.20703125c0-2.5625-.924072265625-3.2763671875-2.436279296875-3.2763671875-1.722412109375,0-3.066650390625,1.134765625-4.284912109375,3.1083984375v15.375h-5.965087890625v-22.263671875h5.1669921875l.462158203125,2.814453125c1.80615234375-2.2265625,3.99072265625-3.4873046875,6.80517578125-3.4873046875,3.90673828125,0,6.217041015625,2.5205078125,6.217041015625,6.7216796875Z"/><path class="uuid-a6d20542-7057-406f-bc1b-507dafc4552c" d="M281.127685546875,716.800740624999889c0,4.62109375-2.856689453125,8.5693359375-12.09814453125,16.802734375h12.770263671875l-.630126953125,4.62109375h-18.9453125v-4.3271484375c10.039794921875-9.619140625,12.770263671875-12.8115234375,12.770263671875-16.5927734375,0-2.5625-1.554443359375-4.2001953125-4.200927734375-4.2001953125-2.310302734375,0-3.822509765625.923828125-5.544921875,2.982421875l-3.696533203125-2.8984375c2.310302734375-2.982421875,5.376953125-4.705078125,9.82958984375-4.705078125,6.42724609375,0,9.745849609375,3.7802734375,9.745849609375,8.3173828125Z"/><path class="uuid-a6d20542-7057-406f-bc1b-507dafc4552c" d="M305.949951171875,723.648396874999889c0,9.9130859375-3.57080078125,15.248046875-10.207763671875,15.248046875-6.63720703125,0-10.2080078125-5.3349609375-10.2080078125-15.248046875,0-9.9140625,3.57080078125-15.1650390625,10.2080078125-15.1650390625,6.636962890625,0,10.207763671875,5.2509765625,10.207763671875,15.1650390625ZM291.667236328125,723.648396874999889c0,8.1494140625,1.30224609375,10.75390625,4.074951171875,10.75390625,2.73046875,0,4.07470703125-2.478515625,4.07470703125-10.75390625s-1.34423828125-10.7119140625-4.07470703125-10.7119140625c-2.772705078125,0-4.074951171875,2.6044921875-4.074951171875,10.7119140625Z"/><path class="uuid-a6d20542-7057-406f-bc1b-507dafc4552c" d="M328.167724609375,716.800740624999889c0,4.62109375-2.856689453125,8.5693359375-12.09814453125,16.802734375h12.770263671875l-.630126953125,4.62109375h-18.9453125v-4.3271484375c10.039794921875-9.619140625,12.770263671875-12.8115234375,12.770263671875-16.5927734375,0-2.5625-1.554443359375-4.2001953125-4.200927734375-4.2001953125-2.310302734375,0-3.822509765625.923828125-5.544921875,2.982421875l-3.696533203125-2.8984375c2.310302734375-2.982421875,5.376953125-4.705078125,9.82958984375-4.705078125,6.42724609375,0,9.745849609375,3.7802734375,9.745849609375,8.3173828125Z"/><path class="uuid-a6d20542-7057-406f-bc1b-507dafc4552c" d="M352.989990234375,723.648396874999889c0,9.9130859375-3.57080078125,15.248046875-10.207763671875,15.248046875-6.63720703125,0-10.2080078125-5.3349609375-10.2080078125-15.248046875,0-9.9140625,3.57080078125-15.1650390625,10.2080078125-15.1650390625,6.636962890625,0,10.207763671875,5.2509765625,10.207763671875,15.1650390625ZM338.707275390625,723.648396874999889c0,8.1494140625,1.30224609375,10.75390625,4.074951171875,10.75390625,2.73046875,0,4.07470703125-2.478515625,4.07470703125-10.75390625s-1.34423828125-10.7119140625-4.07470703125-10.7119140625c-2.772705078125,0-4.074951171875,2.6044921875-4.074951171875,10.7119140625Z"/><path class="uuid-a6d20542-7057-406f-bc1b-507dafc4552c" d="M355.54833984375,722.723592187499889h19.827392578125v4.705078125h-19.827392578125v-4.705078125Z"/><path class="uuid-a6d20542-7057-406f-bc1b-507dafc4552c" d="M397.04736328125,716.800740624999889c0,4.62109375-2.8564453125,8.5693359375-12.09814453125,16.802734375h12.770263671875l-.630126953125,4.62109375h-18.9453125v-4.3271484375c10.039794921875-9.619140625,12.770263671875-12.8115234375,12.770263671875-16.5927734375,0-2.5625-1.554443359375-4.2001953125-4.200927734375-4.2001953125-2.310302734375,0-3.822509765625.923828125-5.544921875,2.982421875l-3.696533203125-2.8984375c2.310302734375-2.982421875,5.376953125-4.705078125,9.82958984375-4.705078125,6.42724609375,0,9.745849609375,3.7802734375,9.745849609375,8.3173828125Z"/><path class="uuid-a6d20542-7057-406f-bc1b-507dafc4552c" d="M421.869384765625,723.648396874999889c0,9.9130859375-3.57080078125,15.248046875-10.207763671875,15.248046875-6.63720703125,0-10.2080078125-5.3349609375-10.2080078125-15.248046875,0-9.9140625,3.57080078125-15.1650390625,10.2080078125-15.1650390625,6.636962890625,0,10.207763671875,5.2509765625,10.207763671875,15.1650390625ZM407.586669921875,723.648396874999889c0,8.1494140625,1.30224609375,10.75390625,4.074951171875,10.75390625,2.73046875,0,4.07470703125-2.478515625,4.07470703125-10.75390625s-1.34423828125-10.7119140625-4.07470703125-10.7119140625c-2.772705078125,0-4.074951171875,2.6044921875-4.074951171875,10.7119140625Z"/><path class="uuid-a6d20542-7057-406f-bc1b-507dafc4552c" d="M444.087158203125,716.800740624999889c0,4.62109375-2.856689453125,8.5693359375-12.09814453125,16.802734375h12.770263671875l-.630126953125,4.62109375h-18.9453125v-4.3271484375c10.039794921875-9.619140625,12.770263671875-12.8115234375,12.770263671875-16.5927734375,0-2.5625-1.554443359375-4.2001953125-4.200927734375-4.2001953125-2.310302734375,0-3.822509765625.923828125-5.544921875,2.982421875l-3.696533203125-2.8984375c2.310302734375-2.982421875,5.376953125-4.705078125,9.82958984375-4.705078125,6.42724609375,0,9.745849609375,3.7802734375,9.745849609375,8.3173828125Z"/><path class="uuid-a6d20542-7057-406f-bc1b-507dafc4552c" d="M469.077392578125,733.645467187499889v4.5791015625h-18.273193359375v-4.5791015625h6.80517578125v-18.5673828125l-6.217041015625,3.7392578125-2.5625-3.9912109375,9.36767578125-5.6708984375h5.2509765625v24.490234375h5.62890625Z"/><path class="uuid-a6d20542-7057-406f-bc1b-507dafc4552c" d="M107.458499999999731,426.162500000000364v-67.755400000000009h8.153800000000047v60.572299999999814h28.83010000000013v7.183100000000195h-36.983900000000176Z"/><path class="uuid-a6d20542-7057-406f-bc1b-507dafc4552c" d="M159.196799999999712,364.328499999999622c-1.683599999999387,0-2.897399999999834-.403299999999945-3.640599999999722-1.213400000000547-.744599999999991-.808099999998376-1.11620000000039-1.858899999999267-1.11620000000039-3.15480000000025v-1.261699999999109c0-1.293900000000576.371600000000399-2.34519999999975,1.11620000000039-3.155300000000352.743199999999888-.808599999998478,1.957000000000335-1.213299999999435,3.640599999999722-1.213299999999435,1.681700000000092,0,2.895500000000538.404700000000958,3.64010000000053,1.213299999999435.743199999999888.810100000000602,1.116299999999683,1.861399999999776,1.116299999999683,3.155300000000352v1.261699999999109c0,1.295900000000984-.373099999999795,2.346700000001874-1.116299999999683,3.15480000000025-.744599999999991.810100000000602-1.958400000000438,1.213400000000547-3.64010000000053,1.213400000000547ZM155.314000000000306,376.074599999999919h7.765599999999722v50.087900000000445h-7.765599999999722v-50.087900000000445Z"/><path class="uuid-a6d20542-7057-406f-bc1b-507dafc4552c" d="M179.581600000000435,426.162500000000364v-50.087900000000445h7.765599999999722v8.060999999999694h.388199999999415c1.228500000000167-2.817900000000009,2.960400000000845-5.060999999999694,5.193300000000818-6.72649999999885,2.232999999999265-1.665600000000268,5.225099999999657-2.49960000000101,8.978999999999814-2.49960000000101,5.17679999999973,0,9.270599999999831,1.666999999999462,12.279799999999796,4.999099999999089,3.009300000000167,3.334000000000742,4.513699999999972,8.042000000001281,4.513699999999972,14.124000000001615v32.129899999999907h-7.765600000000177v-30.837900000000445c0-9.015600000000632-3.785699999999906-13.523499999999331-11.35739999999987-13.523499999999331-1.553300000000036,0-3.057700000000295.195799999999508-4.514199999999619.583999999998923-1.456100000000333.389699999999721-2.766100000000733.973700000000463-3.93119999999999,1.752000000000407-1.164999999999964.778299999999945-2.086900000000242,1.766599999999016-2.766100000000733,2.966800000000148-.679699999999684,1.199200000000928-1.019499999999425,2.610300000000279-1.019499999999425,4.231399999998757v34.82720000000154h-7.765599999999722Z"/><path class="uuid-a6d20542-7057-406f-bc1b-507dafc4552c" d="M274.516099999999824,424.51260000000002c0,6.923800000000483-1.941399999999703,12.359800000000178-5.824200000000019,16.307600000000093-3.882799999999861,3.946799999999712-9.351999999999862,5.92239999999947-16.404799999999796,5.92239999999947-4.077099999999973,0-7.58829999999989-.634799999999814-10.532200000000103-1.901400000000649-2.945299999999861-1.269499999998516-5.387200000000121-2.942399999999907-7.328599999999824-5.021999999999025l4.561999999999898-5.362800000000789c1.682099999999991,1.731999999999971,3.623599999999897,3.065000000000509,5.824200000000019,3.996100000000297,2.199300000000221.931700000001001,4.756400000000212,1.397000000000844,7.668499999999767,1.397000000000844,4.529300000000148,0,8.040500000000065-1.251500000000306,10.532200000000103-3.752000000000407,2.490700000000288-2.504399999999805,3.737300000000232-6.192800000000716,3.737300000000232-11.067800000000716v-6.928299999999581h-.388200000000325c-1.489199999999983,3.075700000001234-3.430599999999686,5.381400000000212-5.824199999999564,6.918999999999869-2.395000000000437,1.53859999999986-5.338799999999992,2.307099999999991-8.833500000000186,2.307099999999991-3.106400000000122,0-5.921400000000176-.615699999998469-8.445299999999861-1.843699999999444-2.523400000000038-1.229000000001179-4.659200000000055-2.976599999999962-6.406200000000354-5.242200000000594-1.747599999999693-2.264699999999721-3.106499999999869-5.014699999999721-4.077199999999721-8.250999999998385-.970700000000306-3.235400000001391-1.456000000000131-6.859400000001187-1.456000000000131-10.872100000000501,0-4.011700000000928.485299999999825-7.635700000000725,1.456000000000131-10.872000000001208.970699999999852-3.235399999999572,2.329600000000028-5.985399999999572,4.077199999999721-8.250999999998385,1.747000000000298-2.26470000000154,3.882800000000316-4.011700000000928,6.406200000000354-5.242200000000594,2.523899999999685-1.228500000001077,5.33889999999974-1.843800000000556,8.445299999999861-1.843800000000556,3.494700000000194,0,6.487299999999777.753500000000713,8.978999999999814,2.257900000000518,2.490800000000036,1.506799999999203,4.383299999999963,3.828599999998914,5.678699999999935,6.968199999999342h.388200000000325v-8.060999999999694h7.765599999999722v48.438000000000102ZM254.034200000000055,420.4354000000003c1.747600000000148,0,3.397500000000036-.227500000000873,4.95069999999987-.682600000000093,1.553200000000288-.454600000000937,2.895500000000084-1.122600000000602,4.028299999999945-2.000500000000102,1.131900000000314-.876899999999296,2.038600000000315-1.950700000001234,2.718299999999999-3.217800000000352.679200000000037-1.268500000000131,1.019000000000233-2.748999999999796,1.019000000000233-4.439899999999398v-18.634799999999814c0-1.365200000000186-.324200000000019-2.649900000000343-.970700000000306-3.854000000001179-.647399999999834-1.202599999998711-1.553199999999833-2.22649999999885-2.717799999999897-3.072699999998804-1.164999999999964-.844700000001467-2.523899999999685-1.511200000000827-4.077099999999973-1.999500000001717-1.553199999999833-.488299999999072-3.203099999999722-.732499999998254-4.95069999999987-.732499999998254-4.401400000000194,0-7.896000000000186,1.398499999999331-10.483400000000074,4.195399999998699-2.589300000000094,2.796800000000076-3.882799999999861,6.406700000001365-3.882799999999861,10.829999999999927v8.584000000000742c0,4.422899999999572,1.293499999999767,8.03269999999975,3.882799999999861,10.830100000001039,2.587399999999889,2.796399999999267,6.08199999999988,4.194799999999304,10.483400000000074,4.194799999999304Z"/><path class="uuid-a6d20542-7057-406f-bc1b-507dafc4552c" d="M321.885800000000017,418.101399999999558h-.38819999999987c-.518600000000333,1.15480000000025-1.149400000000242,2.29149999999936-1.89260000000013,3.412599999999657-.745100000000093,1.120600000000195-1.666999999999916,2.114300000001094-2.766599999999926,2.97860000000037-1.101500000000215.865200000000186-2.426699999999983,1.55370000000039-3.980000000000018,2.066399999999703-1.553200000000288.51220000000103-3.365700000000288.768500000000131-5.436000000000149.768500000000131-5.178199999999833,0-9.287100000000009-1.664999999999054-12.328099999999722-4.998999999999796-3.042500000000018-3.332500000000437-4.5625-8.039999999999054-4.5625-14.123999999999796v-32.129899999999907h7.765599999999722v30.837900000000445c0,9.015099999998711,3.817900000000009,13.522899999999936,11.454600000000028,13.522899999999936,1.553199999999833,0,3.057600000000093-.19380000000092,4.513699999999972-.584000000000742,1.456000000000131-.388100000000122,2.75-.972099999999045,3.882799999999861-1.75,1.131800000000112-.778299999999945,2.038500000000113-1.766999999999825,2.718200000000252-2.967199999999139.679700000000139-1.199300000000221,1.01909999999998-2.643100000001141,1.01909999999998-4.330100000001039v-34.729499999999462h7.765600000000177v50.087900000000445h-7.765600000000177v-8.061100000000806Z"/><path class="uuid-a6d20542-7057-406f-bc1b-507dafc4552c" d="M350.035699999999906,364.328499999999622c-1.683599999999842,0-2.896999999999935-.403299999999945-3.640199999999822-1.213400000000547-.744599999999991-.808099999998376-1.116199999999935-1.858899999999267-1.116199999999935-3.15480000000025v-1.261699999999109c0-1.293900000000576.371599999999944-2.34519999999975,1.116199999999935-3.155300000000352.743199999999888-.808599999998478,1.95659999999998-1.213299999999435,3.640199999999822-1.213299999999435,1.682099999999991,0,2.895500000000084.404700000000958,3.640100000000075,1.213299999999435.743199999999888.810100000000602,1.116199999999935,1.861399999999776,1.116199999999935,3.155300000000352v1.261699999999109c0,1.295900000000984-.373000000000047,2.346700000001874-1.116199999999935,3.15480000000025-.744599999999991.810100000000602-1.958000000000084,1.213400000000547-3.640100000000075,1.213400000000547ZM346.152900000000045,376.074599999999919h7.765600000000177v50.087900000000445h-7.765600000000177v-50.087900000000445Z"/><path class="uuid-a6d20542-7057-406f-bc1b-507dafc4552c" d="M385.466800000000148,427.327499999999418c-4.659100000000308,0-8.559099999999944-.89010000000053-11.697200000000066-2.668900000000576-3.139700000000175-1.779299999998329-5.840900000000147-4.158199999998033-8.10550000000012-7.134799999999814l5.533199999999852-4.465799999998126c1.941400000000158,2.459899999998015,4.108900000000176,4.352499999999054,6.503900000000158,5.678699999998571,2.393599999999878,1.327100000000428,5.17679999999973,1.990200000000186,8.348199999999906,1.990200000000186,3.300200000000132,0,5.872499999999945-.711900000000242,7.716699999999946-2.135700000000725,1.844800000000305-1.422899999999572,2.766600000000381-3.429699999998775,2.766600000000381-6.018599999999424,0-1.941399999999703-.630800000000363-3.606400000000576-1.892500000000382-4.998999999999796-1.262200000000121-1.390599999998813-3.543499999999767-2.344699999999648-6.843799999999646-2.863300000000891l-3.980000000000018-.582999999998719c-2.32950000000028-.323200000000725-4.465300000000298-.82470000000103-6.406700000000001-1.503899999999703-1.941400000000158-.680200000000696-3.640100000000075-1.585399999999936-5.096199999999953-2.718200000001161-1.456000000000131-1.131400000000212-2.588900000000194-2.539599999998245-3.397500000000491-4.223199999998542-.809999999999945-1.681599999999889-1.21329999999989-3.688500000000204-1.21329999999989-6.017600000001039,0-2.459000000000742.452099999999973-4.611299999998664,1.358900000000176-6.454999999999927.905699999999797-1.844799999998941,2.15079999999989-3.381900000000314,3.737299999999777-4.611399999999776,1.584900000000289-1.228499999999258,3.478000000000065-2.150900000000547,5.67870000000039-2.766600000000835,2.199200000000019-.614199999999983,4.5625-.921899999999368,7.086399999999685-.921899999999368,4.076700000000073,0,7.489300000000185.712400000000343,10.240700000000288,2.135299999999916,2.75,1.424300000000585,5.160199999999804,3.397499999999127,7.231999999999971,5.921399999999267l-5.145100000000184,4.659200000001874c-1.101000000000113-1.552800000001298-2.71770000000015-2.960000000000946-4.853499999999713-4.222700000000259-2.135200000000168-1.261700000000928-4.821300000000065-1.892600000001039-8.056600000000344-1.892600000001039-3.236799999999675,0-5.678699999999935.695800000001327-7.329099999999926,2.086900000000242-1.649899999999889,1.392099999999118-2.475100000000111,3.285200000000259-2.475100000000111,5.678799999999683,0,2.459899999999834.825200000000223,4.239199999999983,2.475100000000111,5.338800000001356,1.650399999999991,1.101599999998143,4.028800000000047,1.909199999998236,7.134700000000066,2.426799999999275l3.882900000000063.582000000000335c5.564899999999852.841800000000148,9.513100000000122,2.444299999999203,11.84270000000015,4.805199999998877,2.329599999999573,2.363300000000891,3.494699999999739,5.45260000000053,3.494699999999739,9.270500000000538,0,4.853499999999258-1.650399999999991,8.67239999999947-4.95069999999987,11.454599999999118-3.300299999999879,2.783200000001671-7.831099999999878,4.173800000000483-13.589899999999943,4.173800000000483Z"/><path class="uuid-a6d20542-7057-406f-bc1b-507dafc4552c" d="M428.082100000000082,426.162500000000364c-2.717799999999897,0-4.773000000000138-.757800000001225-6.164099999999962-2.274900000000343-1.392100000000028-1.516600000000835-2.086900000000242-3.503399999999601-2.086900000000242-5.957500000000437v-34.963900000000649h-8.250999999999749v-6.891599999999016h4.659200000000055c1.682099999999991,0,2.830599999999777-.340299999999843,3.44629999999961-1.020000000000437.614199999999983-.679199999998673.921900000000278-1.859399999999368.921900000000278-3.542999999999665v-9.318900000000212h6.989199999999983v13.881900000000314h10.969299999999748v6.891599999999016h-10.969299999999748v36.304700000000594h10.192399999999907v6.891600000000835h-9.70699999999988Z"/><path class="uuid-a6d20542-7057-406f-bc1b-507dafc4552c" d="M454.970699999999852,364.328499999999622c-1.683599999999842,0-2.896899999999732-.403299999999945-3.640100000000075-1.213400000000547-.744599999999991-.808099999998376-1.116699999999582-1.858899999999267-1.116699999999582-3.15480000000025v-1.261699999999109c0-1.293900000000576.372099999999591-2.34519999999975,1.116699999999582-3.155300000000352.743200000000343-.808599999998478,1.956500000000233-1.213299999999435,3.640100000000075-1.213299999999435,1.682200000000194,0,2.895500000000084.404700000000958,3.640200000000277,1.213299999999435.743099999999686.810100000000602,1.116199999999935,1.861399999999776,1.116199999999935,3.155300000000352v1.261699999999109c0,1.295900000000984-.37310000000025,2.346700000001874-1.116199999999935,3.15480000000025-.744700000000194.810100000000602-1.958000000000084,1.213400000000547-3.640200000000277,1.213400000000547ZM451.087899999999991,376.074599999999919h7.765600000000177v50.087900000000445h-7.765600000000177v-50.087900000000445Z"/><path class="uuid-a6d20542-7057-406f-bc1b-507dafc4552c" d="M493.993199999999888,427.327499999999418c-3.494599999999991,0-6.634299999999712-.615699999998469-9.415999999999713-1.843699999999444-2.783200000000306-1.229000000001179-5.12940000000026-2.976599999999962-7.037600000000111-5.242200000000594-1.909700000000157-2.264699999999721-3.365700000000288-5.014699999999721-4.368199999999888-8.250999999998385-1.003900000000158-3.235400000001391-1.50440000000026-6.859400000001187-1.50440000000026-10.872100000000501,0-4.011700000000928.500500000000102-7.635700000000725,1.50440000000026-10.872000000001208,1.0024999999996-3.235399999999572,2.458499999999731-5.985399999999572,4.368199999999888-8.250999999998385,1.908199999999852-2.26470000000154,4.254399999999805-4.011700000000928,7.037600000000111-5.242200000000594,2.781700000000001-1.228500000001077,5.921399999999721-1.843800000000556,9.415999999999713-1.843800000000556,4.982400000000325,0,8.979000000000269,1.084000000000742,11.988299999999981,3.251000000000204,3.009300000000167,2.169499999999971,5.257300000000214,5,6.746599999999944,8.494199999999182l-6.503899999999703,3.300699999999779c-.906800000000203-2.587799999999334-2.395100000000184-4.594699999999648-4.465400000000045-6.018499999998312-2.071800000000167-1.422900000001391-4.659200000000055-2.135800000000017-7.765600000000177-2.135800000000017-2.329600000000028,0-4.368199999999888.373099999998885-6.115699999999833,1.116299999999683-1.747100000000046.744599999999991-3.203100000000177,1.781199999999444-4.368199999999888,3.106399999998757-1.164500000000317,1.32720000000154-2.038600000000315,2.912100000001374-2.620600000000195,4.756400000000212-.582499999999982,1.845200000001569-.873999999999796,3.867599999999584-.873999999999796,6.066800000000512v8.541999999999462c0,4.402400000000853,1.180199999999786,8.00879999999961,3.54340000000002,10.823800000000119,2.361399999999776,2.815400000001318,5.839399999999841,4.222600000000966,10.435099999999693,4.222600000000966,6.276400000000194,0,10.806599999999889-2.911600000001272,13.589800000000196-8.736300000000483l5.630400000000009,3.785600000001068c-1.618199999999888,3.625-4.028299999999945,6.503899999999703-7.231900000000223,8.639699999999721-3.203099999999722,2.135199999998804-7.199699999999666,3.203099999998813-11.988299999999981,3.203099999998813Z"/><path class="uuid-a6d20542-7057-406f-bc1b-507dafc4552c" d="M539.227600000000166,427.327499999999418c-4.659700000000157,0-8.559099999999944-.89010000000053-11.697300000000268-2.668900000000576-3.139599999999973-1.779299999998329-5.840799999999945-4.158199999998033-8.10550000000012-7.134799999999814l5.533200000000306-4.465799999998126c1.941399999999703,2.459899999998015,4.108899999999721,4.352499999999054,6.503899999999703,5.678699999998571,2.393100000000231,1.327100000000428,5.176300000000083,1.990200000000186,8.348200000000361,1.990200000000186,3.300299999999879,0,5.872599999999693-.711900000000242,7.716799999999694-2.135700000000725,1.844700000000103-1.422899999999572,2.766600000000381-3.429699999998775,2.766600000000381-6.018599999999424,0-1.941399999999703-.630900000000111-3.606400000000576-1.89260000000013-4.998999999999796-1.262200000000121-1.390599999998813-3.54340000000002-2.344699999999648-6.843699999999899-2.863300000000891l-3.980000000000018-.582999999998719c-2.329600000000028-.323200000000725-4.465300000000298-.82470000000103-6.406800000000203-1.503899999999703-1.941400000000158-.680200000000696-3.640100000000075-1.585399999999936-5.096099999999751-2.718200000001161-1.456100000000333-1.131400000000212-2.588900000000194-2.539599999998245-3.397500000000036-4.223199999998542-.810100000000148-1.681599999999889-1.213400000000092-3.688500000000204-1.213400000000092-6.017600000001039,0-2.459000000000742.452199999999721-4.611299999998664,1.358899999999721-6.454999999999927.905799999999999-1.844799999998941,2.150900000000092-3.381900000000314,3.737300000000232-4.611399999999776,1.585000000000036-1.228499999999258,3.478000000000065-2.150900000000547,5.678699999999935-2.766600000000835,2.199200000000019-.614199999999983,4.5625-.921899999999368,7.08640000000014-.921899999999368,4.076700000000073,0,7.48929999999973.712400000000343,10.240800000000036,2.135299999999916,2.75,1.424300000000585,5.160100000000057,3.397499999999127,7.231899999999769,5.921399999999267l-5.144999999999982,4.659200000001874c-1.10109999999986-1.552800000001298-2.717799999999897-2.960000000000946-4.853500000000167-4.222700000000259-2.135299999999916-1.261700000000928-4.82129999999961-1.892600000001039-8.056699999999637-1.892600000001039-3.23680000000013,0-5.678699999999935.695800000001327-7.329099999999926,2.086900000000242-1.649900000000343,1.392099999999118-2.475100000000111,3.285200000000259-2.475100000000111,5.678799999999683,0,2.459899999999834.825199999999768,4.239199999999983,2.475100000000111,5.338800000001356,1.650399999999991,1.101599999998143,4.028799999999592,1.909199999998236,7.134799999999814,2.426799999999275l3.882799999999861.582000000000335c5.564900000000307.841800000000148,9.513200000000325,2.444299999999203,11.842799999999897,4.805199999998877,2.329600000000028,2.363300000000891,3.494599999999991,5.45260000000053,3.494599999999991,9.270500000000538,0,4.853499999999258-1.650399999999991,8.67239999999947-4.95069999999987,11.454599999999118-3.300299999999879,2.783200000001671-7.831000000000131,4.173800000000483-13.589799999999741,4.173800000000483Z"/><path class="uuid-a6d20542-7057-406f-bc1b-507dafc4552c" d="M126.484400000000278,543.812900000000809c-5.501000000000204,0-10.192400000000816-1.052800000001298-14.075200000000223-3.154300000001967-3.882800000000316-2.102599999998347-7.183600000000297-4.999499999998079-9.90139999999974-8.688499999998385l6.018599999999424-5.047899999999572c2.393100000000231,3.171899999999368,5.04740000000038,5.582099999999627,7.959499999999935,7.232499999998254,2.912100000000464,1.649900000000343,6.341800000000148,2.475099999999657,10.289999999999964,2.475099999999657,4.853500000000167,0,8.557099999999991-1.165099999998347,11.114300000000185-3.494699999999284,2.555600000000595-2.329999999999927,3.834399999999732-5.435999999999694,3.834399999999732-9.318799999999101,0-3.234900000001289-.970699999999852-5.727100000000064-2.912099999999555-7.474100000001272-1.941399999999703-1.748099999998885-5.145000000000437-3.138699999999517-9.609800000000178-4.174799999998868l-5.533199999999852-1.261800000000221c-6.212899999999536-1.422800000000279-10.954099999999926-3.574200000000928-14.221199999999953-6.454999999999927-3.268600000000333-2.878899999999703-4.901899999999841-6.940500000000611-4.901899999999841-12.182700000001205,0-2.975499999998647.548799999999574-5.629799999998795,1.649899999999434-7.95889999999963,1.100100000000566-2.33009999999922,2.636300000000119-4.271499999998923,4.610900000000584-5.824699999999211,1.97360000000026-1.553299999999581,4.334899999999834-2.733000000000175,7.08640000000014-3.543499999999767,2.75-.808600000000297,5.775899999999638-1.213400000000547,9.076199999999517-1.213400000000547,5.111300000000483,0,9.496100000000297.939000000000306,13.153299999999945,2.815399999999499,3.655300000000352,1.877500000000509,6.746100000000297,4.627500000000509,9.270000000000437,8.251000000000204l-6.115200000000186,4.465400000000955c-1.877999999999702-2.587900000000445-4.14260000000013-4.626000000000204-6.795000000000073-6.115799999999581-2.654300000000148-1.487800000000789-5.954999999999927-2.232900000000882-9.901299999999537-2.232900000000882-4.33640000000014,0-7.750500000000102.922899999999572-10.24120000000039,2.766600000000835-2.491700000000492,1.844799999998941-3.737299999999777,4.611399999999776-3.737299999999777,8.299799999998868,0,3.236800000000585,1.051199999999881,5.67870000000039,3.15520000000015,7.328600000000733,2.102099999999155,1.650400000000445,5.290099999999256,2.961499999999432,9.561599999999999,3.932199999999284l5.53269999999975,1.261700000000928c6.664499999999862,1.489199999999983,11.486299999999574,3.753899999999703,14.463399999999638,6.794899999998961,2.975999999999658,3.041999999999462,4.465299999999843,7.085900000000038,4.465299999999843,12.133800000001429,0,3.106399999998757-.533699999999953,5.920899999999165-1.601599999999962,8.445299999999406-1.067799999999806,2.523499999999331-2.605899999999565,4.659200000000055-4.610799999999472,6.406299999998737-2.006900000000314,1.74750000000131-4.450200000000223,3.106400000000576-7.328599999999824,4.077100000000428-2.880400000000009.970699999999852-6.132400000000416,1.456100000001243-9.755900000000111,1.456100000001243Z"/><path class="uuid-a6d20542-7057-406f-bc1b-507dafc4552c" d="M182.008300000000418,543.812900000000809c-3.365700000000288,0-6.439900000000307-.6158000000014-9.221600000000763-1.844300000000658-2.783199999999852-1.227999999999156-5.161699999999655-2.992599999999584-7.134799999999814-5.290499999999156-1.974599999999555-2.295900000000984-3.511199999999917-5.047400000001289-4.610899999999674-8.251000000000204-1.101000000000568-3.203100000000632-1.649900000000343-6.810500000001412-1.649900000000343-10.823200000000725,0-3.94629999999961.548899999999776-7.538099999999758,1.649900000000343-10.775400000000445,1.099699999999757-3.234399999999368,2.636300000000119-6.002000000000407,4.610899999999674-8.299299999998766,1.973100000000159-2.296400000001086,4.351599999999962-4.060100000000602,7.134799999999814-5.290600000000268,2.781700000000455-1.228500000001077,5.855900000000474-1.843700000001263,9.221600000000763-1.843700000001263,3.364299999999275,0,6.421899999999368.615200000000186,9.173399999999674,1.843700000001263,2.75,1.230499999999665,5.128399999999601,2.994199999999182,7.134700000000066,5.290600000000268,2.005400000000009,2.297299999998359,3.558599999999842,5.064899999999398,4.659699999999702,8.299299999998766,1.099600000000009,3.237300000000687,1.649899999999889,6.829100000000835,1.649899999999889,10.775400000000445,0,4.012699999999313-.550299999999879,7.620100000000093-1.649899999999889,10.823200000000725-1.10109999999986,3.203599999998914-2.654299999999694,5.95509999999922-4.659699999999702,8.251000000000204-2.006300000000465,2.297899999999572-4.384700000000066,4.0625-7.134700000000066,5.290499999999156-2.751500000000306,1.228499999999258-5.809100000000399,1.844300000000658-9.173399999999674,1.844300000000658ZM182.008300000000418,536.920799999999872c4.206099999999424,0,7.635299999999916-1.293499999999767,10.289599999999155-3.882799999999406,2.652800000000752-2.587400000000343,3.980000000000473-6.535700000000361,3.980000000000473-11.84230000000025v-7.183600000000297c0-5.305700000000797-1.327199999999721-9.253899999999703-3.980000000000473-11.842800000000352-2.654299999999239-2.587400000000343-6.083499999999731-3.882799999999406-10.289599999999155-3.882799999999406-4.207000000000335,0-7.636700000000019,1.295399999999063-10.289500000000771,3.882799999999406-2.654299999999239,2.588900000000649-3.979999999999563,6.537099999999555-3.979999999999563,11.842800000000352v7.183600000000297c0,5.306599999999889,1.325700000000325,9.254899999999907,3.979999999999563,11.84230000000025,2.652800000000752,2.589299999999639,6.082500000000437,3.882799999999406,10.289500000000771,3.882799999999406Z"/><path class="uuid-a6d20542-7057-406f-bc1b-507dafc4552c" d="M236.076700000000073,543.812900000000809c-3.494099999999889,0-6.633800000000065-.6158000000014-9.415500000000065-1.844300000000658-2.783200000000306-1.227999999999156-5.129899999999907-2.976000000000568-7.037600000000111-5.241700000000492-1.909699999999702-2.264600000000428-3.365800000000036-5.014600000000428-4.368199999999888-8.250899999999092-1.00440000000026-3.235399999999572-1.504899999999907-6.859400000001187-1.504899999999907-10.872100000000501,0-4.011700000000928.500499999999647-7.635800000000017,1.504899999999907-10.872100000000501,1.002399999999852-3.235300000000279,2.458500000000186-5.985300000000279,4.368199999999888-8.251000000000204,1.907700000000204-2.264600000000428,4.254399999999805-4.011699999999109,7.037600000000111-5.242199999998775,2.781700000000001-1.228500000001077,5.921400000000176-1.843700000001263,9.415500000000065-1.843700000001263,4.98239999999987,0,8.978999999999814,1.084000000000742,11.988800000000083,3.251500000000306,3.008800000000065,2.169400000000678,5.256799999999657,4.999499999999898,6.746099999999842,8.493599999999788l-6.503499999999804,3.300800000000891c-.907200000000103-2.587900000000445-2.395500000000084-4.594700000001467-4.465800000000399-6.018599999999424-2.071300000000065-1.422800000000279-4.659199999999601-2.135700000000725-7.765599999999722-2.135700000000725-2.329099999999926,0-4.368199999999888.372999999999593-6.115200000000186,1.11620000000039-1.747100000000046.745099999998274-3.203199999999924,1.780799999998635-4.368199999999888,3.106499999999869-1.164999999999964,1.327099999998609-2.03859999999986,2.912099999999555-2.621099999999842,4.756299999999101-.582000000000335,1.844699999999648-.873500000000149,3.867700000000696-.873500000000149,6.066899999999805v8.543000000001484c0,4.401299999999537,1.180100000000039,8.007799999999406,3.542899999999918,10.823199999998906,2.361899999999878,2.815000000000509,5.839399999999841,4.222200000000157,10.435100000000148,4.222200000000157,6.27639999999974,0,10.806599999999889-2.912099999999555,13.589799999999741-8.736399999999776l5.630400000000009,3.785700000000361c-1.618199999999888,3.625-4.028299999999945,6.503899999999703-7.231399999999667,8.639600000000428-3.203600000000279,2.135299999998097-7.200200000000223,3.203199999999924-11.988800000000083,3.203199999999924Z"/><path class="uuid-a6d20542-7057-406f-bc1b-507dafc4552c" d="M270.148000000000138,480.813799999999901c-1.683600000000297,0-2.897000000000389-.403299999999945-3.640200000000277-1.212799999999334-.744599999999991-.809100000000399-1.116199999999935-1.859900000001289-1.116199999999935-3.155300000000352v-1.261700000000928c0-1.293999999999869.371599999999944-2.345299999999042,1.116199999999935-3.155300000000352.743199999999888-.808599999998478,1.95659999999998-1.212899999998626,3.640200000000277-1.212899999998626,1.682099999999991,0,2.895500000000084.404300000000148,3.640100000000075,1.212899999998626.743199999999888.81000000000131,1.116199999999935,1.861300000000483,1.116199999999935,3.155300000000352v1.261700000000928c0,1.295399999999063-.373000000000047,2.346199999999953-1.116199999999935,3.155300000000352-.744599999999991.809499999999389-1.958000000000084,1.212799999999334-3.640100000000075,1.212799999999334ZM266.265199999999822,492.559400000000096h7.765600000000177v50.088399999998728h-7.765600000000177v-50.088399999998728Z"/><path class="uuid-a6d20542-7057-406f-bc1b-507dafc4552c" d="M309.364799999999832,543.812900000000809c-3.430699999999888,0-6.520499999999629-.6158000000014-9.270499999999629-1.844300000000658-2.751000000000204-1.227999999999156-5.112800000000334-2.992599999999584-7.08600000000024-5.290499999999156-1.975100000000111-2.295900000000984-3.494599999999991-5.047400000001289-4.5625-8.251000000000204-1.067800000000261-3.203100000000632-1.60149999999976-6.810500000001412-1.60149999999976-10.823200000000725,0-3.94629999999961.533699999999499-7.538099999999758,1.60149999999976-10.775400000000445,1.067900000000009-3.234399999999368,2.587399999999889-6.002000000000407,4.5625-8.299299999998766,1.973199999999906-2.296400000001086,4.335000000000036-4.060100000000602,7.08600000000024-5.290600000000268,2.75-1.228500000001077,5.839799999999741-1.843700000001263,9.270499999999629-1.843700000001263,3.364199999999983,0,6.373000000000047.612300000000687,9.027300000000196,1.837900000000445,2.653299999999945,1.225599999999758,4.917500000000018,2.91990000000078,6.79489999999987,5.079599999999118,1.876500000000306,2.159600000000864,3.315999999999804,4.723100000001068,4.319899999999961,7.689900000001217,1.002400000000307,2.966800000000148,1.504900000000362,6.223200000000361,1.504900000000362,9.769099999999526v3.677200000000084h-36.013700000000426v2.329100000000835c0,2.135800000000017.339800000000196,4.125500000000102,1.019500000000335,5.97019999999975.679200000000037,1.844299999998839,1.649899999999889,3.445799999999508,2.912100000000009,4.804699999998775,1.261700000000019,1.358900000001086,2.815000000000055,2.426800000001094,4.659200000000055,3.203600000000733,1.844200000000001.776400000000649,3.931599999999889,1.164600000000064,6.261199999999917,1.164600000000064,3.170000000000073,0,5.936599999999999-.743200000000797,8.299299999999675-2.23240000000078,2.361900000000333-1.48779999999897,4.189500000000407-3.623599999998987,5.48490000000038-6.406799999998839l5.533199999999852,4.005400000000009c-1.618600000000242,3.45260000000053-4.14260000000013,6.235799999998562-7.571800000000167,8.351599999999962-3.431099999999788,2.115700000000288-7.507799999999861,3.174300000000585-12.23090000000002,3.174300000000585ZM309.364799999999832,497.898300000000745c-2.135800000000017,0-4.077199999999721.370100000000093-5.824200000000019,1.110399999999572-1.747599999999693.740700000000288-3.251999999999953,1.785099999999147-4.513699999999972,3.135199999998804-1.262199999999666,1.349600000001374-2.249499999999898,2.942399999999907-2.960900000000038,4.774400000000242-.712899999999991,1.83350000000064-1.067900000000009,3.843300000000454-1.067900000000009,6.030300000000352v.674800000000687h27.665500000000065v-1.061499999999796c0-4.4375-1.213399999999638-7.989800000001196-3.640100000000075-10.659200000000055-2.42679999999973-2.668900000000576-5.646999999999935-4.004399999999805-9.658699999999953-4.004399999999805Z"/><path class="uuid-a6d20542-7057-406f-bc1b-507dafc4552c" d="M354.890699999999924,542.647799999998824c-2.717799999999897,0-4.773000000000138-.757799999999406-6.164099999999962-2.274399999998423-1.392100000000028-1.517100000000937-2.086899999999787-3.503899999999703-2.086899999999787-5.958000000000538v-34.963900000000649h-8.251000000000204v-6.892099999999118h4.659200000000055c1.682099999999991,0,2.830599999999777-.339799999999741,3.446300000000065-1.019500000000335.614199999999983-.679200000000492.921799999999621-1.858899999999267.921799999999621-3.542499999999563v-9.319299999999203h6.989300000000185v13.881299999999101h10.969200000000001v6.892099999999118h-10.969200000000001v36.304700000000594h10.192399999999907v6.891599999999016h-9.70699999999988Z"/><path class="uuid-a6d20542-7057-406f-bc1b-507dafc4552c" d="M408.764700000000175,492.559400000000096h7.668899999999667l-22.423299999999927,61.73739999999998c-.582499999999982,1.487699999999677-1.165099999999711,2.732899999999063-1.747599999999693,3.736799999998766-.582000000000335,1.002900000001318-1.294900000000325,1.796400000001086-2.135200000000168,2.37840000000142-.841800000000148.582500000000437-1.893100000000231,1.003399999999601-3.15480000000025,1.262199999999211-1.262199999999666.257800000001225-2.799799999999777.388199999999415-4.610799999999927.388199999999415h-3.980000000000018v-6.892099999999118h7.862800000000334l3.785599999999704-10.661099999999351-18.734899999999925-51.949800000000323h7.765699999999924l12.037100000000009,34.006400000000212,2.329600000000028,8.139199999999619h.485300000000279l2.717799999999897-8.139199999999619,12.133800000000065-34.006400000000212Z"/><path class="uuid-a6d20542-7057-406f-bc1b-507dafc4552c" d="M124.504638671870453,637.560506249999889l-2.416015625-7.677734375h-10.69775390625l-2.37255859375,7.677734375h-5.7802734375l10.09423828125-30.109375h7.07421875l10.0078125,30.109375h-5.90966796875ZM116.826416015620453,612.627889062499889h-.2158203125l-3.83935546875,12.3798828125h7.93701171875l-3.8818359375-12.3798828125Z"/><path class="uuid-a6d20542-7057-406f-bc1b-507dafc4552c" d="M153.966064453120453,637.560506249999889l-2.416015625-7.677734375h-10.69775390625l-2.37255859375,7.677734375h-5.7802734375l10.09423828125-30.109375h7.07421875l10.0078125,30.109375h-5.90966796875ZM146.287353515620453,612.627889062499889h-.21533203125l-3.83935546875,12.3798828125h7.93701171875l-3.88232421875-12.3798828125Z"/></g></svg>