<?xml version="1.0" encoding="UTF-8"?><svg id="uuid-bb86339c-4942-46cb-9688-aa91736cb200" xmlns="http://www.w3.org/2000/svg" width="690.993116823944433mm" height="250.004051829100774mm" xmlns:xlink="http://www.w3.org/1999/xlink" viewBox="0 0 1958.72067553215129 708.672913465847159"><defs><style>.uuid-793a9697-f827-4497-b725-6c4493122c9e{fill:#fff;}.uuid-97a3cb7a-fff6-4a21-b5d8-bd6c03d74b1f{fill:none;}.uuid-023806b4-907a-4ffa-90f4-caea1a39f5f5{fill:#333e48;}.uuid-f2721544-e43a-4775-ba7c-f9d40a54dedc{clip-path:url(#uuid-42378524-c550-4f9e-98bd-2d90a9a18fea);}</style><clipPath id="uuid-42378524-c550-4f9e-98bd-2d90a9a18fea"><rect class="uuid-97a3cb7a-fff6-4a21-b5d8-bd6c03d74b1f" x=".000999999999294" y=".001000000000204" width="1958.719675532151996" height="708.673800000000483"/></clipPath></defs><g class="uuid-f2721544-e43a-4775-ba7c-f9d40a54dedc"><path class="uuid-793a9697-f827-4497-b725-6c4493122c9e" d="M158.442399999999907,271.575224507863823c-9.105500000000575,21.527399456172134-14.519600000000537,44.144575492136937-16.170900000000074,67.425798296681023,3.588799999999537-2.921899926186597,8.160100000000057-4.679699881780834,13.137699999999313-4.679699881780834,5.495100000000093,0,10.487300000000687,2.152399945625803,14.216800000000148,5.636699857604981,7.337900000000445-95.593697585100017,87.224600000000464-170.873022780368956,184.701100000000224-170.873022780368956,7.552800000000389,0,13.674799999999777-6.123099999999795,13.674799999999777-13.675799999999981s-6.121999999999389-13.675799999999981-13.674799999999777-13.675799999999981c-28.689400000000205,0-56.53610000000026,5.625-82.766599999999926,16.718800000000556-25.317299999999705,10.710899999999128-48.050699999999779,26.033199999999852-67.566399999999703,45.550799999999981-19.518500000000131,19.517499999999927-34.844700000000557,42.250025147555789-45.551699999999983,67.572224507863211Z"/><path class="uuid-793a9697-f827-4497-b725-6c4493122c9e" d="M339.186499999999796,538.971717752860059c-94.95510000000013-7.683599805895938-169.672800000000279-86.964797803084366-170.101500000000669-183.796917752859372,0-7.552677413243146-6.120199999999386-13.675777258560629-13.675799999999981-13.675777258560629-7.552799999999479,0-13.675799999999981,6.123099845317483-13.675799999999981,13.675777258560629.109400000000278,28.394621678651674,5.721700000000055,55.953220982462881,16.709000000000742,81.925820326339817,10.706999999999425,25.320299360355421,26.033199999999852,48.05469878603617,45.551699999999983,67.570298293030646,19.515699999999924,19.517599506943952,42.249099999999999,34.841799119822099,67.566399999999703,45.55279884923948,21.256900000000314,8.98819977293897,43.574300000000221,14.384699636611913,66.540100000000166,16.109299593044852-2.886700000000019-3.578099909610501-4.627000000000407-8.121099794843758-4.627000000000407-13.066399669914972,0-5.535099860172522,2.183600000000297-10.558599733267329,5.712900000000445-14.294899638880452Z"/><path class="uuid-793a9697-f827-4497-b725-6c4493122c9e" d="M502.528299999999945,487.413119055339848c-2.66990000000078-2.669899932552653-6.168900000000576-4.003899898853888-9.668900000000576-4.003899898853888-3.499099999999999,0-7.001000000000204,1.333999966301235-9.671899999999368,4.003899898853888-33.342800000000352,32.292999184210203-78.777400000000853,52.177680944660096-128.860400000000482,52.177680944660096-7.552700000000186,0-13.675699999999779,6.123117582537816-13.675699999999779,13.675817391740566,0,7.552799809200224,6.122999999999593,13.675799654520233,13.675699999999779,13.675799654520233,28.690499999999702,0,56.534200000000055-5.624999857900548,82.763700000000426-16.718699577650113,24.407199999999648-10.322299739236769,46.40139999999974-24.949299369727669,65.4375-43.468798901886657,5.343799999999646-5.339799865104396,5.343799999999646-13.999999646329343,0-19.341799511384124Z"/><path class="uuid-793a9697-f827-4497-b725-6c4493122c9e" d="M354.327099999999518,566.942417046260744c-7.552700000000186,0-13.675699999999779-6.12299984532001-13.675699999999779-13.675799654520233,0-7.55269980920275,6.122999999999593-13.675817391740566,13.675699999999779-13.675817391740566,50.082999999999629,0,95.51760000000013-19.884681760449894,128.860400000000482-52.177680944660096,2.670899999999165-2.669899932552653,6.17279999999937-4.003899898853888,9.671899999999368-4.003899898853888,3.5,0,6.998999999999796,1.333999966301235,9.668900000000576,4.003899898853888,5.343799999999646,5.341799865054782,5.343799999999646,14.001999646279728,0,19.341799511384124-19.03610000000026,18.519499532158989-41.030300000000352,33.146499162649889-65.4375,43.468798901886657-26.229500000000371,11.093699719749566-54.073200000000725,16.718699577650113-82.763700000000426,16.718699577650113ZM271.560499999999593,550.22371746861063c-25.317299999999705-10.710999729417381-48.050699999999779-26.035199342295527-67.566399999999703-45.55279884923948-19.518500000000131-19.515599506994477-34.844700000000557-42.249998932675226-45.551699999999983-67.570298293030646-10.987300000000687-25.972599343876936-16.599600000000464-53.531198647688143-16.709000000000742-81.925820326339817,0-7.552677413243146,6.123000000000502-13.675777258560629,13.675799999999981-13.675777258560629,7.555600000000595,0,13.675799999999981,6.123099845317483,13.675799999999981,13.675777258560629.42870000000039,96.832119949775006,75.14640000000054,176.113317946963434,170.101500000000669,183.796917752859372-3.529300000000148,3.736299905613123-5.712900000000445,8.759799778707929-5.712900000000445,14.294899638880452,0,4.945299875071214,1.740300000000389,9.488299760304471,4.627000000000407,13.066399669914972-22.965799999999945-1.72459995643294-45.283199999999852-7.121099820105883-66.540100000000166-16.109299593044852ZM354.327099999999518,141.733400000000074c7.552800000000389,0,13.674799999999777,6.123099999999795,13.674799999999777,13.675799999999981s-6.121999999999389,13.675799999999981-13.674799999999777,13.675799999999981c-97.47649999999976,0-177.363199999999779,75.279325195268939-184.701100000000224,170.873022780368956-3.729499999999462-3.484299911979178-8.721700000000055-5.636699857604981-14.216800000000148-5.636699857604981-4.977599999999256,0-9.548899999999776,1.757799955594237-13.137699999999313,4.679699881780834,1.651299999999537-23.281222804544086,7.065399999999499-45.898398840508889,16.170900000000074-67.425798296681023,10.706999999999425-25.322199360307422,26.033199999999852-48.054724507863284,45.551699999999983-67.572224507863211,19.515699999999924-19.51760000000013,42.249099999999999-34.839900000000853,67.566399999999703-45.550799999999981,26.230499999999665-11.093800000000556,54.077199999999721-16.718800000000556,82.766599999999926-16.718800000000556Z"/><path class="uuid-793a9697-f827-4497-b725-6c4493122c9e" d="M466.914099999999962,241.751025261286486c-30.07130000000052-30.070325261285689-70.056700000000092-46.630925261286393-112.587000000000444-46.630925261286393-42.528299999999945,0-82.513600000000224,16.560600000000704-112.58389999999963,46.630925261286393-30.072300000000723,30.074199240261805-46.636800000000221,70.058598230170901-46.636800000000221,112.587897155789506,0,42.529298925620424,16.564499999999498,82.509797915628042,46.636800000000221,112.583997155889847,30.070299999999406,30.072199240312329,70.055599999999686,46.636698821857863,112.58389999999963,46.636698821857863,42.530300000000352,0,82.515699999999924-16.564499581545533,112.587000000000444-46.636698821857863,30.072199999999611-30.074199240261805,46.631799999999203-70.054698230269423,46.631799999999203-112.583997155889847,0-42.529298925618605-16.559599999999591-82.5136979155277-46.631799999999203-112.587897155789506Z"/><path class="uuid-023806b4-907a-4ffa-90f4-caea1a39f5f5" d="M242.117199999999684,405.827221116373039v-102.978497398544278h22.332999999999629v7.613199807674391h-12.945299999999406v87.753876474496792h12.945299999999406v7.611421116373094h-22.332999999999629Z"/><path class="uuid-023806b4-907a-4ffa-90f4-caea1a39f5f5" d="M466.539099999999962,302.848723717828761v102.978497398544278h-22.33010000000013v-7.611421116373094h12.939400000000205v-87.753876474496792h-12.939400000000205v-7.613199807674391h22.33010000000013Z"/><path class="uuid-023806b4-907a-4ffa-90f4-caea1a39f5f5" d="M293.987299999999777,375.25880000000052c0,2.056721836638644.032199999999648,4.484421775309784.094699999999648,7.271521704901716.063500000000204,2.789099929541408.15139999999974,5.622999857951072.259799999999814,8.496099785370461.106400000000576,2.872999927421915.234400000000278,5.62109985799907.386700000000019,8.238299791883037.147500000000036,2.617199933883967.331100000000333,4.804699878623069.54489999999987,6.562499834217306h-13.193299999999908v-72.73049816267303c0-6.263699841765629-.106499999999869-11.937499698433385-.322299999999814-17.021499570000742-.212899999999536-5.085899871520269-.535200000000259-9.496099760108336-.965799999999945-13.226499665870506h13.195300000000316v72.410076282171758Z"/><path class="uuid-023806b4-907a-4ffa-90f4-caea1a39f5f5" d="M351.593699999999444,340.178722774793641v8.433599786949344h-12.100499999999556v48.785198767582187h12.100499999999556v8.431599786999868h-36.041999999999462v-8.431599786999868h11.906299999999646v-48.785198767582187h-11.906299999999646v-8.433599786949344h36.041999999999462Z"/><path class="uuid-023806b4-907a-4ffa-90f4-caea1a39f5f5" d="M378.627899999999499,340.178722774793641c.256900000000314.687499982632289.514699999999721,1.576199960181839.771499999999833,2.673899932451604.260699999999815,1.091799972418812.492199999999684,2.238177292754699.708999999999833,3.441399913062924.211900000000242,1.201099969657662.405300000000352,2.380777379692518.58010000000013,3.53899991059734l.511700000000019,2.894599926876253c4.121100000000297-4.890699876450526,8.259799999999814-8.417999787343433,12.422800000000279-10.585999732575146,4.162099999999555-2.165999945282238,8.499099999999999-3.249999917898094,13.002000000000407-3.249999917898094,3.433599999999387,0,6.469699999999648.568399985641008,9.10739999999987,1.705099956925551,2.638699999999517,1.138699971234018,4.860399999999572,2.941399925693986,6.663099999999758,5.406299863425374,1.799799999999777,2.468699937635392,3.16110000000026,5.665999856864801,4.086900000000242,9.591777372341312.922899999999572,3.925722286177916,1.382799999999406,8.654222166725958,1.382799999999406,14.193322026796523v28.958999268434127c0,7.251899816801597-.63379999999961,13.273399664685712-1.900399999999536,18.054678704768776-1.262700000000223,4.787120718198821-3.03610000000026,8.605520621737924-5.308600000000297,11.460920549604452-2.272399999999834,2.849599928013049-5.010699999999815,4.869199876993662-8.207000000001244,6.046899847242457-3.196299999998701,1.181599970150273-6.747099999998682,1.771499955248146-10.652299999998831,1.771499955248146-1.929699999999684,0-4.001000000000204-.312499992105586-6.210000000000036-.93359997641528-2.208999999999833-.62309998425917-4.214799999999741-1.490199962354382-6.01760000000013-2.607399934131536l4.183600000000297-9.654320441548407c.987299999999777.730420666985083,2.305699999999888,1.339820651590344,3.958000000000538,1.835920639057804,1.65139999999974.492199987565982,3.336899999999332.738299981348973,5.049799999999777.738299981348973,2.0625,0,3.90729999999985-.331999991612975,5.540099999998347-.996099974836397,1.628900000001522-.665999983175425,3.011700000001838-1.833999953669263,4.148400000000038-3.507799911386428,1.137700000001132-1.673799957715346,2.006800000001022-3.968799899738769,2.608400000000984-6.886699826026415.599600000000464-2.919999926234595.900400000000445-6.630899832489376.900400000000445-11.136799718660768v-28.31829928461957c0-5.150399869889952-.268600000000333-9.324199764450896-.804699999999684-12.519521904876456-.53610000000026-3.197277698083781-1.342800000000352-5.687477635176037-2.415000000001783-7.466777590227139-1.071299999998701-1.779299955051101-2.413099999998849-2.970699924953806-4.024399999998423-3.574299909705587-1.606499999999869-.597599984903354-3.483400000000074-.898399977304507-5.629899999999907-.898399977304507-2.316400000000613,0-4.57720000000063.546899986184144-6.788100000000668,1.642599958504434-2.207999999999629,1.091799972418812-4.240199999999277,2.509699936599645-6.085000000000036,4.247999892686494-1.844699999999648,1.734399956185371-3.474599999999555,3.697299906598346-4.889599999999518,5.888699851238925-1.415100000000166,2.187499944739102-2.467800000000352,4.374999889478204-3.156300000000556,6.564399834169308v37.330099056962354h-11.90519999999924v-39.581999000074575c0-6.351599839545088-.366300000000592-11.726599703761167-1.095699999999852-16.124999592648237-.727600000000166-4.39839988888707-1.438500000000204-7.712899805155757-2.124100000000908-9.943399748808588h11.587900000000445Z"/><path class="uuid-793a9697-f827-4497-b725-6c4493122c9e" d="M626.666956059640142,336.834899999999834v-100.471099999999751h12.090799694560701v89.819323128352153h42.750998920018901v10.651776871647598h-54.841798614579602Z"/><path class="uuid-793a9697-f827-4497-b725-6c4493122c9e" d="M703.386654121537504,245.143999999998414c-2.497099936917948,0-4.295899891477347-.597600000000966-5.397474781566416-1.798800000000483-1.104425054181775-1.199199999999109-1.656225040242134-2.756799999997384-1.656225040242134-4.678699999997662v-1.871100000000297c0-1.918499999999767.55179998606036-3.477499999999964,1.656225040242134-4.678199999999379,1.101574890089069-1.198800000000119,2.900374844648468-1.799300000000585,5.397474781566416-1.799300000000585,2.494125218436238,0,4.294025218434399.600500000000466,5.397525218435476,1.799300000000585,1.102500000000873,1.200699999999415,1.65520000000015,2.759699999999611,1.65520000000015,4.678199999999379v1.871100000000297c0,1.921900000000278-.552699999999277,3.479499999998552-1.65520000000015,4.678699999997662-1.103500000001077,1.201199999999517-2.903399999999237,1.798800000000483-5.397525218435476,1.798800000000483ZM697.628854266991766,262.561999999998989h11.515625072981493v74.272900000000845h-11.515625072981493v-74.272900000000845Z"/><path class="uuid-793a9697-f827-4497-b725-6c4493122c9e" d="M733.614179339971088,336.834899999999834v-74.272900000000845h11.515699999999924v11.953099999999722h.576100000001134c1.82130000000052-4.17870000000039,4.38970000000063-7.505799999998999,7.700200000000223-9.974600000001374,3.311600000000908-2.469699999997829,7.748100000001614-3.706500000000233,13.314500000000407-3.706500000000233,7.676800000001094,0,13.747100000000501,2.471199999999953,18.208999999998923,7.412599999999657,4.461900000002061,4.943300000002637,6.693299999998999,11.925724290686048,6.693299999998999,20.94380000000092v47.644500000002154h-11.514599999998609v-45.728500000001077c0-13.368600000001607-5.615200000000186-20.052700000000186-16.841799999998329-20.052700000000186-2.302700000000186,0-4.535200000002078.290499999999156-6.693400000000111.865699999998469-2.159100000000763.578100000002451-4.102500000000873,1.443900000002031-5.830000000001746,2.597700000002078-1.726599999998143,1.153800000000047-3.094799999998941,2.620100000000093-4.101599999998143,4.399399999998423-1.007800000003044,1.778800000000047-1.511700000002747,3.871100000000297-1.511700000002747,6.274899999999434v51.643500000002859h-11.515699999999924Z"/><path class="uuid-793a9697-f827-4497-b725-6c4493122c9e" d="M874.388679339970622,334.388199999999415c0,10.266599999999016-2.878899999999703,18.328099999998813-8.636799999997493,24.181599999999889-5.757800000002135,5.852999999999156-13.868100000002414,8.781299999998737-24.326100000001134,8.781299999998737-6.045900000000984,0-11.253000000000611-.940500000000611-15.618200000000797-2.818400000000111-4.367200000000594-1.882300000001123-7.988299999997253-4.363300000000891-10.867200000000594-7.447299999999814l6.765600000001541-7.952099999998609c2.494200000001001,2.568299999998999,5.373100000001614,4.544922433768079,8.636800000001131,5.926299999999173,3.260699999998906,1.380799999998999,7.052700000000186,2.070822346558998,11.371100000000297,2.070822346558998,6.715799999998126,0,11.921800000000076-1.855522346559155,15.617099999998572-5.563522346557875,3.69340000000102-3.713900000002468,5.541999999998552-9.183600000000297,5.541999999998552-16.411600000003091v-10.273999999997613h-.575199999999313c-2.208899999997811,4.561099999998987-5.087799999997515,7.979499999997643-8.636699999999109,10.259799999998904-3.551699999999983,2.281222844428157-7.917000000001281,3.421400000000176-13.099600000001374,3.421400000000176-4.605499999998756,0-8.779299999998329-.91359999999986-12.522399999998015-2.73489999999947-3.742200000000594-1.822177069254394-6.909200000001874-4.413100000001577-9.5-7.772400000001653-2.590899999999237-3.358399999997346-4.606500000001688-7.43557673109899-6.045900000000984-12.235399999997753-1.439500000000407-4.79739999999947-2.158199999998033-10.170900000000984-2.158199999998033-16.122100000000501,0-5.948199999999815.718699999997625-11.321700000000419,2.158199999998033-16.121100000000297,1.439399999999296-4.797275674125558,3.455000000001746-8.875400000000809,6.045900000000984-12.235300000000279,2.590799999998126-3.357899999999063,5.757799999999406-5.948700000000827,9.5-7.772499999999127,3.743099999999686-1.82220000000234,7.916899999999259-2.734800000001997,12.522399999998015-2.734800000001997,5.182600000000093,0,9.619200000001001,1.117600000001403,13.315400000002228,3.34860000000117,3.692400000000816,2.233400000000984,6.49909999999818,5.676800000001094,8.420899999998255,10.332500000000437h.575199999999313v-11.953099999999722h11.515699999999924v71.826200000000426ZM844.016579339973759,328.342299999998431c2.591799999998329,0,5.038099999997939-.337400000000343,7.341799999998329-1.01220000000103,2.302700000000186-.674800000000687,4.293000000001484-1.664600000000064,5.972600000000057-2.966300000000047,1.67779999999857-1.299899999998161,3.02350000000024-2.89259999999922,4.031299999999646-4.772499999999127,1.006799999999203-1.880376657620218,1.510699999998906-4.075200000000223,1.510699999998906-6.582999999998719v-27.632300000001123c0-2.024000000001251-.481399999996938-3.929199999998673-1.439399999999296-5.715400000000955-.959999999999127-1.783199999998033-2.30370000000039-3.301199999998062-4.030299999998533-4.556099999997969-1.727500000000873-1.252500000002328-3.742200000000594-2.240700000002107-6.04490000000078-2.964400000000751-2.30370000000039-.724099999999453-4.75-1.08640000000014-7.341799999998329-1.08640000000014-6.527400000002672,0-11.709000000002561,2.073199999998906-15.54490000000078,6.221199999999953-3.839899999999034,4.147424259106629-5.757799999999406,9.49952412390121-5.757799999999406,16.058099999997467v12.730023636632723c0,6.558576363368047,1.917900000000373,11.91107636336892,5.757799999999406,16.058576363368047,3.835899999998219,4.146923126198089,9.017499999998108,6.220700000001671,15.54490000000078,6.220700000001671Z"/><path class="uuid-793a9697-f827-4497-b725-6c4493122c9e" d="M944.629879339971012,324.881299999999101h-.576199999999517c-.768599999999424,1.711499999997613-1.704099999999016,3.398499999999331-2.806599999999889,5.060600000000704-1.103599999998551,1.662099999997736-2.470699999998033,3.134699999998702-4.101599999998143,4.41649999999936-1.632799999999406,1.282199999997829-3.59860000000117,2.30370000000039-5.90230000000156,3.063922844426997-2.302800000001298.759799980805838-4.990300000001298,1.140177155572019-8.060600000000704,1.140177155572019-7.677700000000186,0-13.771499999998923-2.469700000001467-18.280299999998533-7.41359999999986-4.511699999999109-4.94090000000233-6.765599999998813-11.921900000001187-6.765599999998813-20.94287646803059v-47.644023531968742h11.515599999998813v45.727499999998145c0,13.368700000002718,5.661199999998644,20.052800000001298,16.985400000001391,20.052800000001298,2.302699999996548,0,4.534199999998236-.287100000001374,6.693299999998999-.86620000000039,2.159199999998236-.575199999999313,4.077199999999721-1.440500000000611,5.757900000000518-2.594799999998941,1.677700000000186-1.154300000001967,3.022399999998015-2.620100000000093,4.029299999998329-4.399400000002061,1.007799999999406-1.778299999999035,1.511699999999109-3.919899999998051,1.511699999999109-6.421399999999267v-51.498499999998785h11.515600000002451v74.272900000000845h-11.515600000002451v-11.953600000000733Z"/><path class="uuid-793a9697-f827-4497-b725-6c4493122c9e" d="M986.372079339971606,245.143999999998414c-2.496100000000297,0-4.294999999998254-.597600000000966-5.397499999999127-1.798800000000483-1.104500000001281-1.199199999999109-1.655299999998533-2.756799999997384-1.655299999998533-4.678699999997662v-1.871100000000297c0-1.918499999999767.550799999997253-3.477499999999964,1.655299999998533-4.678199999999379,1.102500000000873-1.198800000000119,2.90139999999883-1.799300000000585,5.397499999999127-1.799300000000585,2.494099999999889,0,4.293900000000576.600500000000466,5.398400000001857,1.799300000000585,1.101599999998143,1.200699999999415,1.654299999998329,2.759699999999611,1.654299999998329,4.678199999999379v1.871100000000297c0,1.921900000000278-.552700000000186,3.479499999998552-1.654299999998329,4.678699999997662-1.104500000001281,1.201199999999517-2.904300000001967,1.798800000000483-5.398400000001857,1.798800000000483ZM980.614179339971088,262.561999999998989h11.515699999999924v74.272900000000845h-11.515699999999924v-74.272900000000845Z"/><path class="uuid-793a9697-f827-4497-b725-6c4493122c9e" d="M1038.911079339972275,338.562499999998181c-6.909199999998236,0-12.691399999999703-1.319800000001123-17.344700000001467-3.95850000000064-4.655299999998533-2.638199999997596-8.661099999997532-6.165099999998347-12.019499999998516-10.58009999999922l8.204099999999016-6.621100000000297c2.878899999999703,3.648000000001048,6.093700000001263,6.45509999999922,9.644500000002154,8.41990000000078,3.548800000000483,1.968799999998737,7.676799999997456,2.951723062891688,12.378899999999703,2.951723062891688,4.894499999998516,0,8.708999999998923-1.055223062892765,11.443400000000111-3.166523062893248,2.735300000000279-2.10989999999947,4.102500000000873-5.085899999998219,4.102500000000873-8.924776631654822,0-2.878923368345568-.935500000003231-5.348223368342587-2.806600000003527-7.413123368343804-1.872099999996863-2.0625-5.253899999999703-3.476600000001781-10.147499999999127-4.246100000000297l-5.902299999997922-.863799999999173c-3.455100000002858-.47899999999936-6.621100000000297-1.223100000000159-9.5-2.230900000002293s-5.397500000002765-2.350599999998849-7.556700000001001-4.030299999998533c-2.159200000001874-1.677700000000186-3.83980000000156-3.76510000000053-5.038100000001577-6.261699999999109-1.201099999998405-2.494099999999889-1.799799999997049-5.469700000001467-1.799799999997049-8.923800000000483,0-3.646499999998923.669899999997142-6.837400000000343,2.015699999999924-9.572800000001735,1.342699999997421-2.73489999999947,3.189399999999296-5.012199999997392,5.541900000000169-6.836899999998423,2.350599999997939-1.821800000001531,5.157299999998941-3.189900000001217,8.419999999998254-4.102100000000064,3.261699999999109-.91110000000117,6.765599999998813-1.367600000001403,10.50879999999961-1.367600000001403,6.04490000000078,0,11.105400000000373,1.057100000000901,15.185499999999593,3.166524699219735,4.077100000002247,2.112275300780311,7.651400000002468,5.038075300781202,10.72360000000117,8.780175300780684l-7.629799999998795,6.909200000001874c-1.632900000000518-2.302700000000186-4.029300000001967-4.390100000001439-7.196300000003248-6.260700000002544-3.166999999997643-1.87159999999858-7.149499999999534-2.807600000000093-11.947299999999814-2.807600000000093-4.799799999997049,0-8.420899999997346,1.032200000001467-10.868199999997159,3.095200000003388-2.44629999999961,2.063899999997375-3.66990000000078,4.87159999999858-3.66990000000078,8.420399999999063,0,3.648399999998219,1.22360000000117,6.286099999997532,3.66990000000078,7.91649999999936,2.447299999999814,1.633300000000418,5.974599999997736,2.831500000000233,10.58009999999922,3.599099999999453l5.757799999999406.863299999999981c8.252000000000407,1.248000000000502,14.106500000001688,3.623499999998785,17.560600000000704,7.125,3.454999999998108,3.504900000000816,5.182600000000093,8.085400000000845,5.182600000000093,13.746100000001206,0,7.197299999999814-2.447299999999814,12.860799999998562-7.340800000001764,16.985799999998562-4.894599999999627,4.127522867715015-11.613299999997253,6.189500000000407-20.152399999999034,6.189500000000407Z"/><path class="uuid-793a9697-f827-4497-b725-6c4493122c9e" d="M1102.102479339971978,336.834899999999834c-4.029299999998329,0-7.077099999998609-1.124500000001717-9.139599999998609-3.373500000001513-2.064500000000407-2.248999999999796-3.094700000001467-5.195300000000316-3.094700000001467-8.834500000000844v-51.846199999999953h-12.235399999997753v-10.218699999998535h6.909199999998236c2.494099999999889,0,4.197199999998702-.504875251687736,5.110300000000279-1.512700000002042.911199999998644-1.006799999999203,1.367200000000594-2.756799999999203,1.367200000000594-5.252899999999499v-13.819400000000314h10.364299999997456v20.585000000001855h16.265600000002451v10.218699999998535h-16.265600000002451v53.835023117426317h15.113300000000891v10.219176882575994h-14.394599999999627Z"/><path class="uuid-793a9697-f827-4497-b725-6c4493122c9e" d="M1141.974579339972479,245.143999999998414c-2.496100000000297,0-4.295900000000984-.597600000000966-5.397499999999127-1.798800000000483-1.104500000000371-1.199199999999109-1.655200000001059-2.756799999997384-1.655200000001059-4.678699999997662v-1.871100000000297c0-1.918499999999767.550700000000688-3.477499999999964,1.655200000001059-4.678199999999379,1.101599999998143-1.198800000000119,2.90139999999883-1.799300000000585,5.397499999999127-1.799300000000585,2.495100000000093,0,4.293900000001486.600500000000466,5.397499999999127,1.799300000000585,1.102500000000873,1.200699999999415,1.656200000001263,2.759699999999611,1.656200000001263,4.678199999999379v1.871100000000297c0,1.921900000000278-.55370000000039,3.479499999998552-1.656200000001263,4.678699999997662-1.103599999997641,1.201199999999517-2.902399999999034,1.798800000000483-5.397499999999127,1.798800000000483ZM1136.216779339973982,262.561999999998989h11.515599999997903v74.272900000000845h-11.515599999997903v-74.272900000000845Z"/><path class="uuid-793a9697-f827-4497-b725-6c4493122c9e" d="M1199.838879339973573,338.562499999998181c-5.181700000001001,0-9.837000000000444-.91359999999986-13.962000000000444-2.73489999999947-4.126900000002024-1.822177069254394-7.606399999999667-4.413100000001577-10.435500000002321-7.772400000001653-2.831999999998516-3.358399999997346-4.991199999995843-7.43557673109899-6.477499999997235-12.235399999997753-1.488300000000891-4.79739999999947-2.230500000001484-10.170900000000984-2.230500000001484-16.122100000000501,0-5.948199999999815.742200000000594-11.321700000000419,2.230500000001484-16.121100000000297,1.486300000001393-4.797275674125558,3.645499999998719-8.875400000000809,6.477499999997235-12.235300000000279,2.829100000002654-3.357899999999063,6.308600000000297-5.948700000000827,10.435500000002321-7.772499999999127,4.125-1.82220000000234,8.780299999999443-2.734800000001997,13.962000000000444-2.734800000001997,7.388599999998405,0,13.315400000000409,1.607900000002701,17.777299999997922,4.821700000000419,4.461900000002061,3.216400000001158,7.79490000000078,7.413100000001577,10.003899999999703,12.594824339234037l-9.644499999998516,4.894475660767057c-1.343799999998737-3.837400000000343-3.550800000000891-6.813000000001921-6.621100000000297-8.924800000000687-3.072299999999814-2.109400000001187-6.909199999998236-3.16649999999936-11.515599999998813-3.16649999999936-3.454100000002654,0-6.476600000001781.553199999998469-9.068400000000111,1.655299999998533-2.58980000000156,1.104024451335135-4.75,2.64010000000053-6.476600000001781,4.606400000000576-1.727500000000873,1.96730000000025-3.023399999998219,4.318400000000111-3.886699999999109,7.052699999999277-.863300000000891,2.73490000000038-1.295900000000984,5.735900000000584-1.295900000000984,8.995700000000397v12.666900000000169c0,6.527900000000955,1.75,11.876000000000204,5.254899999999907,16.050323231982475,3.501000000000204,4.174399894545786,8.658200000001671,6.261276768018433,15.472700000002078,6.261276768018433,9.306599999999889,0,16.025299999997515-4.318400000000111,20.152299999997922-12.95509999999922l8.34860000000117,5.614199999999983c-2.399400000002061,5.375499999998283-5.97360000000117,9.644599999999627-10.72360000000117,12.811099999998987s-10.675800000000891,4.75-17.777299999997922,4.75Z"/><path class="uuid-793a9697-f827-4497-b725-6c4493122c9e" d="M1266.914979339971978,338.562499999998181c-6.909199999998236,0-12.691399999999703-1.319800000001123-17.344699999997829-3.95850000000064-4.655300000002171-2.638199999997596-8.66110000000117-6.165099999998347-12.019500000002154-10.58009999999922l8.204099999999016-6.621100000000297c2.878899999999703,3.648000000001048,6.093700000001263,6.45509999999922,9.644500000002154,8.41990000000078,3.548800000000483,1.968799999998737,7.6758000000018,2.951723062891688,12.378899999999703,2.951723062891688,4.894499999998516,0,8.708999999998923-1.055223062892765,11.443400000000111-3.166523062893248,2.735300000000279-2.10989999999947,4.102500000000873-5.085899999998219,4.102500000000873-8.924776631654822,0-2.878923368345568-.935500000003231-5.348223368342587-2.806599999999889-7.413123368343804-1.872100000000501-2.0625-5.253900000003341-3.476600000001781-10.147500000002765-4.246100000000297l-5.902299999997922-.863799999999173c-3.455099999998311-.47899999999936-6.621100000000297-1.223100000000159-9.5-2.230900000002293s-5.397499999999127-2.350599999998849-7.556700000001001-4.030299999998533c-2.159199999999146-1.677700000000186-3.83980000000156-3.76510000000053-5.038100000001577-6.261699999999109-1.201099999998405-2.494099999999889-1.799799999997049-5.469700000001467-1.799799999997049-8.923800000000483,0-3.646499999998923.669999999998254-6.837400000000343,2.015699999999924-9.572800000001735,1.342699999997421-2.73489999999947,3.189399999999296-5.012199999997392,5.541900000000169-6.836899999998423,2.350599999997939-1.821800000001531,5.157299999998941-3.189900000001217,8.419999999998254-4.102100000000064,3.260699999998906-.91110000000117,6.765599999998813-1.367600000001403,10.50879999999961-1.367600000001403,6.04490000000078,0,11.105400000000373,1.057100000000901,15.185499999999593,3.166524699219735,4.077199999999721,2.112275300780311,7.651400000002468,5.038075300781202,10.72360000000117,8.780175300780684l-7.629799999998795,6.909200000001874c-1.632899999999609-2.302700000000186-4.029300000001967-4.390100000001439-7.197299999999814-6.260700000002544-3.166000000001077-1.87159999999858-7.148400000001857-2.807600000000093-11.94629999999961-2.807600000000093-4.799800000000687,0-8.420900000000984,1.032200000001467-10.868200000000797,3.095200000003388-2.44629999999961,2.063899999997375-3.66990000000078,4.87159999999858-3.66990000000078,8.420399999999063,0,3.648399999998219,1.22360000000117,6.286099999997532,3.66990000000078,7.91649999999936,2.447299999999814,1.633300000000418,5.974599999997736,2.831500000000233,10.58009999999922,3.599099999999453l5.757799999999406.863299999999981c8.252000000000407,1.248000000000502,14.106500000001688,3.623499999998785,17.560600000000704,7.125,3.45509999999922,3.504900000000816,5.181599999999889,8.085400000000845,5.181599999999889,13.746100000001206,0,7.197299999999814-2.44629999999961,12.860799999998562-7.33980000000156,16.985799999998562-4.894599999999627,4.127522867715015-11.613299999997253,6.189500000000407-20.152399999999034,6.189500000000407Z"/><path class="uuid-793a9697-f827-4497-b725-6c4493122c9e" d="M1378.037079339972479,338.562499999998181c-8.157200000001467,0-15.114300000001094-1.561099999998987-20.872100000000501-4.678199999998469-5.757799999999406-3.117200000000594-10.651300000001356-7.413100000001577-14.681599999999889-12.882900000000518l8.923800000000483-7.485300000001189c3.549800000000687,4.703099999999722,7.485400000001391,8.27690000000166,11.80370000000039,10.723623177448644,4.318400000000111,2.44727682255234,9.403299999998126,3.670876822550781,15.257799999999406,3.670876822550781,7.197299999999814,0,12.689500000000407-1.727476871645194,16.481500000002598-5.181599999999889,3.788999999996122-3.45509999999922,5.685499999998683-8.061499999999796,5.685499999998683-13.818899999998393,0-4.796800000000076-1.439400000002934-8.492099999999482-4.318300000002637-11.082500000000437-2.878899999999703-2.591800000001967-7.628899999999703-4.654300000001967-14.25-6.190399999999499l-8.20509999999922-1.871100000001206c-9.211899999998423-2.110400000000482-16.242200000000594-5.301299999998264-21.086899999998423-9.571299999998701-4.846700000001874-4.269500000002154-7.269599999999627-10.293000000001484-7.269599999999627-18.06590000000233,0-4.412599999998747.814500000000407-8.348199999999451,2.447299999999814-11.802699999999277,1.630900000000111-3.454600000000937,3.909199999998236-6.33350000000064,6.836899999998423-8.636299999997391,2.925800000000891-2.30370000000039,6.427800000001298-4.05370000000039,10.507799999999406-5.253899999999703,4.078199999999924-1.199200000000019,8.564500000000407-1.799800000000687,13.459000000002561-1.799800000000687,7.579099999999016,0,14.081099999999424,1.39260000000013,19.503899999999703,4.174800000000687,5.419999999998254,2.784200000000055,10.003899999999703,6.861325162225512,13.746100000000297,12.235399999996844l-9.068300000002637,6.620600000002014c-2.784199999998236-3.837400000000343-6.14259999999922-6.859874967489304-10.075199999999313-9.068400000000111-3.936600000000908-2.206500000000233-8.83009999999922-3.310499999999593-14.682600000000093-3.310499999999593-6.429700000000594,0-11.492200000000594,1.367199999996956-15.185600000000704,4.101999999998952-3.695299999999406,2.735424999205861-5.541999999997643,6.837899999998626-5.541999999997643,12.307199999999284,0,4.800200000001496,1.558600000000297,8.420799999998962,4.67870000000039,10.867600000001403,3.117199999996956,2.446799999997893,7.843799999998737,4.390699999999924,14.17779999999766,5.83009999999922l8.205000000001746,1.871099999999387c9.882900000000518,2.20850000000155,17.032299999998941,5.566400000000613,21.447299999999814,10.075700000002143,4.412099999997736,4.511199999997189,6.621100000000297,10.507799999999406,6.621100000000297,17.992699999998877,0,4.606400000000576-.791000000001077,8.780223357440263-2.375,12.523399999998219-1.584000000002561,3.742200000000594-3.864300000001094,6.909200000001874-6.836900000002061,9.5-2.975599999997939,2.590800000001764-6.598599999997532,4.606400000000576-10.868200000000797,6.045422870171024-4.270499999998719,1.439477129828447-9.092799999997624,2.159177129829914-14.465799999998126,2.159177129829914Z"/><path class="uuid-793a9697-f827-4497-b725-6c4493122c9e" d="M1460.371079339971402,338.562499999998181c-4.99120000000039,0-9.549800000000687-.91359999999986-13.674800000000687-2.73489999999947-4.126999999996769-1.822177069254394-7.654299999998329-4.438000000001921-10.58009999999922-7.84519999999975-2.927700000000186-3.40480000000025-5.206099999999424-7.484400000001187-6.836899999998423-12.23489999999947-1.632799999999406-4.75-2.44629999999961-10.09860000000117-2.44629999999961-16.049800000000687,0-5.851500000000669.813500000000204-11.177700000000186,2.44629999999961-15.977500000000873,1.630799999998999-4.796900000001187,3.909199999998236-8.899399999998423,6.836899999998423-12.306599999999889,2.925800000000891-3.405299999998533,6.453100000002451-6.02100000000064,10.58009999999922-7.844799999998941,4.125-1.82220000000234,8.683600000000297-2.734800000001997,13.674800000000687-2.734800000001997,4.988300000000891,0,9.522400000001653.912599999999657,13.602500000000873,2.734800000001997,4.077199999999721,1.8237999999983,7.603500000001077,4.439500000000407,10.579099999999016,7.844799999998941,2.973700000002282,3.407200000001467,5.276400000002468,7.509699999998702,6.909200000001874,12.306599999999889,1.630900000000111,4.799800000000687,2.447299999999814,10.126000000000204,2.447299999999814,15.977500000000873,0,5.951199999999517-.816399999999703,11.299800000000687-2.447299999999814,16.049800000000687-1.632799999999406,4.750499999998283-3.935499999999593,8.83009999999922-6.909200000001874,12.23489999999947-2.975599999997939,3.407199999997829-6.501899999999296,6.023022930745356-10.579099999999016,7.84519999999975-4.08009999999922,1.82129999999961-8.614199999999983,2.73489999999947-13.602500000000873,2.73489999999947ZM1460.371079339971402,328.342299999998431c6.236300000000483,0,11.32129999999961-1.918000000001484,15.257799999999406-5.757799999999406,3.933600000000297-3.836500000001251,5.901400000002468-9.690500000000611,5.901400000002468-17.560600000000704v-10.651799999999639c0-7.867200000000594-1.967800000002171-13.721700000001874-5.901400000002468-17.561099999998987-3.936499999999796-3.83640000000014-9.021499999998923-5.757300000001123-15.257799999999406-5.757300000001123-6.239299999997456,0-11.324199999999109,1.920900000000984-15.257799999999406,5.757300000001123-3.936600000000908,3.839399999997113-5.90139999999883,9.693899999998393-5.90139999999883,17.561099999998987v10.651799999999639c0,7.870100000000093,1.964799999997922,13.724099999999453,5.90139999999883,17.560600000000704,3.933600000000297,3.839799999997922,9.01850000000195,5.757799999999406,15.257799999999406,5.757799999999406Z"/><path class="uuid-793a9697-f827-4497-b725-6c4493122c9e" d="M1540.545879339972089,338.562499999998181c-5.181700000001001,0-9.836899999998423-.91359999999986-13.961899999998423-2.73489999999947-4.127000000000407-1.822177069254394-7.606500000001688-4.413100000001577-10.436499999999796-7.772400000001653-2.831100000003062-3.358399999997346-4.990300000001298-7.43557673109899-6.476600000001781-12.235399999997753-1.489300000001094-4.79739999999947-2.23149999999805-10.170900000000984-2.23149999999805-16.122100000000501,0-5.948199999999815.742199999996956-11.321700000000419,2.23149999999805-16.121100000000297,1.486300000000483-4.797275674125558,3.645499999998719-8.875400000000809,6.476600000001781-12.235300000000279,2.829999999998108-3.357899999999063,6.309499999999389-5.948700000000827,10.436499999999796-7.772499999999127,4.125-1.82220000000234,8.780199999997421-2.734800000001997,13.961899999998423-2.734800000001997,7.388699999999517,0,13.314399999999296,1.607900000002701,17.77730000000156,4.821700000000419,4.461899999998423,3.216400000001158,7.794999999998254,7.413100000001577,10.003899999999703,12.594824339234037l-9.644500000002154,4.894475660767057c-1.344699999997829-3.837400000000343-3.550799999997253-6.813000000001921-6.621100000000297-8.924800000000687-3.072299999999814-2.109400000001187-6.909199999998236-3.16649999999936-11.515599999998813-3.16649999999936-3.45509999999922,0-6.476599999998143.553199999998469-9.068400000000111,1.655299999998533-2.590799999998126,1.104024451335135-4.75,2.64010000000053-6.476500000000669,4.606400000000576-1.727599999998347,1.96730000000025-3.023499999999331,4.318400000000111-3.886800000000221,7.052699999999277-.863199999999779,2.73490000000038-1.295899999997346,5.735900000000584-1.295899999997346,8.995700000000397v12.666900000000169c0,6.527900000000955,1.75,11.876000000000204,5.253999999997177,16.050323231982475,3.501900000002934,4.174399894545786,8.659100000000763,6.261276768018433,15.47360000000117,6.261276768018433,9.306599999999889,0,16.025399999998626-4.318400000000111,20.15230000000156-12.95509999999922l8.348699999998644,5.614199999999983c-2.399399999998423,5.375499999998283-5.973699999998644,9.644599999999627-10.723699999998644,12.811099999998987s-10.676699999999983,4.75-17.77730000000156,4.75Z"/><path class="uuid-793a9697-f827-4497-b725-6c4493122c9e" d="M1591.068279339973742,245.143999999998414c-2.497000000003027,0-4.295799999999872-.597600000000966-5.397400000001653-1.798800000000483-1.104500000001281-1.199199999999109-1.655299999998533-2.756799999997384-1.655299999998533-4.678699999997662v-1.871100000000297c0-1.918499999999767.550799999997253-3.477499999999964,1.655299999998533-4.678199999999379,1.101600000001781-1.198800000000119,2.900399999998626-1.799300000000585,5.397400000001653-1.799300000000585,2.494199999997363,0,4.29399999999805.600500000000466,5.397499999999127,1.799300000000585,1.102500000000873,1.200699999999415,1.656299999998737,2.759699999999611,1.656299999998737,4.678199999999379v1.871100000000297c0,1.921900000000278-.553799999997864,3.479499999998552-1.656299999998737,4.678699999997662-1.103500000001077,1.201199999999517-2.903300000001764,1.798800000000483-5.397499999999127,1.798800000000483ZM1585.310479339970698,262.561999999998989h11.515699999999924v74.272900000000845h-11.515699999999924v-74.272900000000845Z"/><path class="uuid-793a9697-f827-4497-b725-6c4493122c9e" d="M1649.220679339972776,338.562499999998181c-5.086900000002061,0-9.669000000001688-.91359999999986-13.746100000000297-2.73489999999947-4.08009999999922-1.822177069254394-7.581999999998516-4.438000000001921-10.507799999999406-7.84519999999975-2.92870000000039-3.40480000000025-5.181700000001001-7.484400000001187-6.765600000002451-12.23489999999947-1.582999999998719-4.75-2.37409999999727-10.09860000000117-2.37409999999727-16.049800000000687,0-5.851500000000669.791099999998551-11.177700000000186,2.37409999999727-15.977500000000873,1.583900000001449-4.796900000001187,3.836900000002061-8.899399999998423,6.765600000002451-12.306599999999889,2.925800000000891-3.405299999998533,6.427700000000186-6.02100000000064,10.507799999999406-7.844799999998941,4.077099999998609-1.82220000000234,8.659199999998236-2.734800000001997,13.746100000000297-2.734800000001997,4.989300000001094,0,9.451199999999517.908200000001671,13.386699999999109,2.725600000001577,3.933600000000297,1.817299999998795,7.292000000001281,4.329499999999825,10.076199999999517,7.532200000001467,2.782200000001467,3.203099999998813,4.917000000001281,7.003899999999703,6.405300000002171,11.402824232016428,1.486300000000483,4.399375767981837,2.231400000000576,9.227975767982571,2.231400000000576,14.48627576798026v5.451700000001438h-53.403300000001764v3.45509999999922c0,3.16649999999936.503899999999703,6.117200000000594,1.511699999999109,8.852023417439341,1.007799999999406,2.73487658256272,2.447299999999814,5.110376582561003,4.318400000000111,7.124999820007361,1.871100000000297,2.015699949079135,4.173800000000483,3.598676762554533,6.909100000000763,4.750999879979645,2.735400000001391,1.151376882575278,5.83009999999922,1.726576882574591,9.284199999998236,1.726576882574591,4.701200000003155,0,8.802800000001298-1.102576898338157,12.307600000000093-3.310600000000704,3.501000000000204-2.205999999998312,6.212000000003172-5.372999999999593,8.131900000000314-9.5l8.205100000002858,5.939500000000407c-2.399500000003172,5.119099999999889-6.142600000002858,9.246100000000297-11.227600000001985,12.38379999999961-5.086899999998423,3.137699999999313-11.132799999999406,4.707500000000437-18.136699999999109,4.707500000000437ZM1649.220679339972776,270.477999999997337c-3.167000000001281,0-6.04490000000078.548800000000483-8.635699999998906,1.646500000001652-2.591800000001967,1.09769999999935-4.822299999999814,2.647500000000036-6.693400000000111,4.648399999999128-1.871100000000297,2.002000000000407-3.335900000001857,4.363300000000891-4.390600000002451,7.081099999999424-1.056699999997363,2.718700000001263-1.583999999998923,5.698224053729064-1.583999999998923,8.941399999999703v1.001000000000204h41.023399999998219v-1.574676013708086c0-6.580623986291357-1.798799999996845-11.847723986291385-5.397399999998015-15.806223986292025-3.598699999998644-3.957999999998719-8.373100000000704-5.9375-14.322299999999814-5.9375Z"/><path class="uuid-793a9697-f827-4497-b725-6c4493122c9e" d="M1716.729479339972386,336.834899999999834c-4.031299999998737,0-7.078099999998813-1.124500000001717-9.140599999998813-3.373500000001513-2.064500000000407-2.248999999999796-3.094800000002579-5.195300000000316-3.094800000002579-8.834500000000844v-51.846199999999953h-12.235300000000279v-10.218699999998535h6.909200000001874c2.494099999999889,0,4.197199999998702-.504875251687736,5.110300000000279-1.512700000002042.91019999999844-1.006799999999203,1.367200000000594-2.756799999999203,1.367200000000594-5.252899999999499v-13.819400000000314h10.363299999997253v20.585000000001855h16.265600000002451v10.218699999998535h-16.265600000002451v53.835023117426317h15.114199999999983v10.219176882575994h-14.393499999998312Z"/><path class="uuid-793a9697-f827-4497-b725-6c4493122c9e" d="M1796.616179339971495,262.561999999998989h11.372100000000501l-33.251000000000204,91.545899999998255c-.863300000000891,2.207000000002154-1.727500000000873,4.052700000000186-2.590799999998126,5.541522282925143-.864300000001094,1.48677771707662-1.920900000000984,2.663599932711804-3.167000000001281,3.526877717074967-1.248100000000704.864199999999983-2.806700000001001,1.487300000000687-4.677800000001298,1.871022146562609-1.870999999999185.382377853438811-4.152299999997922.576177853439731-6.837799999997515.576177853439731h-5.901400000002468v-10.219700000001467h11.659200000001874l5.614199999999983-15.808600000000297-27.781200000001263-77.033199999998942h11.515600000002451l17.848599999997532,50.425799999998162,3.45509999999922,12.06880000000092h.718800000002375l4.031199999997625-12.06880000000092,17.992200000000594-50.425799999998162Z"/><path class="uuid-793a9697-f827-4497-b725-6c4493122c9e" d="M654.683584374999555,477.753444531250352l-3.6103515625-11.4755859375h-15.98828125l-3.5458984375,11.4755859375h-8.638671875l15.0859375-44.9990234375h10.5732421875l14.9560546875,44.9990234375h-8.83203125ZM643.207998437499555,440.490749218750352h-.322265625l-5.7373046875,18.50244140625h11.8623046875l-5.802734375-18.50244140625Z"/><path class="uuid-793a9697-f827-4497-b725-6c4493122c9e" d="M698.718740624999555,477.753444531250352l-3.6103515625-11.4755859375h-15.98828125l-3.5458984375,11.4755859375h-8.638671875l15.0859375-44.9990234375h10.5732421875l14.9560546875,44.9990234375h-8.83203125ZM687.243154687499555,440.490749218750352h-.322265625l-5.7373046875,18.50244140625h11.8623046875l-5.802734375-18.50244140625Z"/></g></svg>