<?xml version="1.0" encoding="UTF-8"?><svg id="uuid-631ab14d-877a-49bc-a8aa-7bd8b5763e2b" xmlns="http://www.w3.org/2000/svg" width="223.375181367463682mm" height="202.96123695182763mm" xmlns:xlink="http://www.w3.org/1999/xlink" viewBox="0 0 633.189500000000407 575.323199999998906"><defs><style>.uuid-3f4073bc-f6c7-41df-8fdd-e0d59de78a42{fill:#00c2f3;}.uuid-59f89300-6cea-45e8-a716-7e154dde4a81{clip-path:url(#uuid-fa3f02e3-efc1-43f1-9a51-48ee6340666e);}.uuid-5c094091-16aa-4d54-8c14-90f46d25a456{fill:#fff;}.uuid-8b0a6b78-3c6f-4ab6-9e19-2485d8846fff{fill:#ee212e;}.uuid-2e4d1042-2228-4028-9d34-416bd58e178a{fill:none;}.uuid-fe74d172-6fe8-4ba3-94b9-9aabb8ff1fb4{fill:#333e48;}.uuid-549ef0dc-85b2-4ddf-b5a0-df2d137b255e{fill:#46bc96;}</style><clipPath id="uuid-fa3f02e3-efc1-43f1-9a51-48ee6340666e"><rect class="uuid-2e4d1042-2228-4028-9d34-416bd58e178a" width="633.189500000000407" height="575.323199999998906"/></clipPath></defs><g class="uuid-59f89300-6cea-45e8-a716-7e154dde4a81"><path class="uuid-8b0a6b78-3c6f-4ab6-9e19-2485d8846fff" d="M77.708999999999833,170.747099999999591c3.777299999999741,0,6.837900000000445,3.060500000000502,6.837900000000445,6.836899999999332-.001000000000204-.139699999999721-.005900000000111-.278299999999945-.005900000000111-.418999999999869,0-51.154300000000148,41.468799999999646-92.622999999999593,92.623999999999796-92.622999999999593,3.77639999999974,0,6.837900000000445-3.060600000000704,6.837900000000445-6.837900000000445,0-3.77639999999974-3.061500000000706-6.837899999999536-6.837900000000445-6.837899999999536-14.343700000000354,0-28.266599999999926,2.8125-41.380799999999908,8.359400000000278-12.659200000000055,5.354499999999462-24.025400000000445,13.016599999999016-33.783199999999852,22.774400000000242-9.75880000000052,9.75879999999961-17.421900000000278,21.125-22.775400000000445,33.784200000000055-5.546899999999368,13.115199999999277-8.359399999999368,27.037099999999555-8.359399999999368,41.380799999998999,0,.140699999999924.003899999999703.279300000000148.004899999999907.418999999999869,0-3.77639999999883,3.061499999999796-6.836899999999332,6.837899999999536-6.836899999999332Z"/><path class="uuid-549ef0dc-85b2-4ddf-b5a0-df2d137b255e" d="M170.328099999999722,276.626899999999296c0-3.776299999999537,3.060600000000704-6.837799999999334,6.836900000000242-6.837799999999334-51.015599999999722,0-92.392499999999927-41.242200000000594-92.618099999999686-92.205100000001039,0-3.77639999999883-3.060600000000704-6.836899999999332-6.837900000000445-6.836899999999332-3.77639999999974,0-6.837899999999536,3.060500000000502-6.837899999999536,6.836899999999332.054699999999684,14.19630000000052,2.861299999999574,27.975600000000668,8.354499999999462,40.962900000000445,5.353500000000167,12.659099999999853,13.016599999999926,24.025400000000445,22.775400000000445,33.783199999999852,9.757799999999406,9.75879999999961,21.123999999999796,17.420900000000074,33.783199999999852,22.775400000000445,13.114199999999983,5.546800000000076,27.037099999999555,8.359300000000076,41.380799999999908,8.359300000000076-3.776299999999537,0-6.836900000000242-3.061499999999796-6.836900000000242-6.837900000000445Z"/><path class="uuid-3f4073bc-f6c7-41df-8fdd-e0d59de78a42" d="M251.263699999999972,243.702099999999518c-2.668999999999869-2.670900000000074-6.998099999999795-2.670900000000074-9.670000000000073,0-16.670799999999872,16.145499999999629-39.386899999999969,26.087000000000444-64.428699999999935,26.087000000000444-3.776299999999537,0-6.836900000000242,3.061499999999796-6.836900000000242,6.837799999999334,0,3.776400000000649,3.060600000000704,6.837900000000445,6.836900000000242,6.837900000000445,14.345699999999852,0,28.26760000000013-2.8125,41.38189999999986-8.359300000000076,12.203100000000177-5.160200000000259,23.200200000000223-12.473700000000463,32.716800000000148-21.732500000000073,2.671800000000076-2.670900000000074,2.671800000000076-7,0-9.670900000000074Z"/><path class="uuid-3f4073bc-f6c7-41df-8fdd-e0d59de78a42" d="M233.45679999999993,120.873999999999796c-15.034900000000107-15.035100000000966-35.027099999999791-23.315400000000409-56.291799999999967-23.315400000000409-21.262700000000223,0-41.254799999999705,8.280299999999443-56.291000000000167,23.315400000000409-15.035100000000057,15.036099999999351-23.316399999999703,35.027399999999034-23.316399999999703,56.290999999999258,0,21.265699999999924,8.281299999999646,41.254899999999907,23.316399999999703,56.292000000000371,15.036200000000463,15.03519999999935,35.028299999999945,23.317399999999907,56.291000000000167,23.317399999999907,21.264700000000175,0,41.25689999999986-8.282200000000557,56.291799999999967-23.317399999999907,15.036399999999958-15.037100000000464,23.315700000000106-35.026300000000447,23.315700000000106-56.292000000000371,0-21.263600000000224-8.279300000000148-41.254899999999907-23.315700000000106-56.290999999999258Z"/><path class="uuid-fe74d172-6fe8-4ba3-94b9-9aabb8ff1fb4" d="M121.061499999999796,202.910099999999147v-51.489199999999983h11.167000000000371v3.806599999999889h-6.472600000000057v43.877000000000407h6.472600000000057v3.805599999999686h-11.167000000000371Z"/><path class="uuid-fe74d172-6fe8-4ba3-94b9-9aabb8ff1fb4" d="M233.26949999999988,151.420899999999165v51.489199999999983h-11.16399999999976v-3.805599999999686h6.468699999999899v-43.877000000000407h-6.468699999999899v-3.806599999999889h11.16399999999976Z"/><path class="uuid-5c094091-16aa-4d54-8c14-90f46d25a456" d="M146.996100000000297,187.625c0,1.028299999999945.016599999999926,2.242199999998775.04779999999937,3.635699999998906.031300000000556,1.394600000000537.075200000000223,2.8125.129899999999907,4.248100000000704.052800000000389,1.4375.11620000000039,2.811499999999796.193400000000111,4.120100000000093.073200000000725,1.308600000000297.164999999999964,2.402299999999741.272400000000744,3.281199999999444h-6.596600000000763v-36.364199999999983c0-3.132799999999406-.052799999999479-5.968799999999646-.161199999999553-8.511699999999109-.106399999999667-2.543000000000575-.267499999999927-4.748100000000704-.48239999999987-6.613300000000891h6.596700000000055v36.204100000000835Z"/><path class="uuid-5c094091-16aa-4d54-8c14-90f46d25a456" d="M175.798799999999574,170.084999999999127v4.216700000000856h-6.050799999999981v24.393599999999424h6.050799999999981v4.215799999999945h-18.020499999999629v-4.215799999999945h5.953099999999722v-24.393599999999424h-5.953099999999722v-4.216700000000856h18.020499999999629Z"/><path class="uuid-5c094091-16aa-4d54-8c14-90f46d25a456" d="M189.315400000000409,170.084999999999127c.127999999999702.344699999999648.256899999999405.789000000000669.385800000000017,1.337800000000243.129899999999907.545900000000074.246099999999387,1.119200000000092.354499999999462,1.720699999999852.105400000000373.599699999999757.202100000000428,1.190499999999702.289999999999964,1.769600000000537l.255900000000111,1.447199999999611c2.060499999999593-2.445300000000316,4.128899999999703-4.20890000000054,6.210900000000038-5.292899999999463,2.081099999999878-1.083000000000538,4.25-1.625,6.501000000000204-1.625,1.716799999999694,0,3.234399999999823.284200000000055,4.553699999999935.85149999999885,1.319299999999657.570300000001225,2.430699999999888,1.470700000000761,3.330999999999676,2.703200000000834.900399999999991,1.234299999999166,1.581100000000333,2.83389999999963,2.044000000000324,4.795900000000074.460900000000038,1.963799999999537.691399999999703,4.327100000000428.691399999999703,7.096599999999853v14.480500000000575c0,3.625999999999294-.317399999999907,6.635699999998906-.950199999999768,9.027399999999034-.631800000000112,2.392499999999927-1.518599999999878,4.301699999999983-2.654300000000148,5.730400000000373-1.136700000000019,1.423800000000483-2.505900000000111,2.433600000000297-4.103499999999713,3.022500000000036-1.597700000000259.590799999999945-3.37310000000025.885699999999815-5.326200000000426.885699999999815-.964799999999741,0-2-.155300000000352-3.10550000000012-.466800000000148-1.104399999999259-.311499999999796-2.10739999999987-.745100000000093-3.008699999999408-1.30370000000039l2.09270000000015-4.827099999999518c.493199999999888.365200000000186,1.152399999999489.66989999999987,1.978499999999713.917899999999463.826199999999972.246100000000297,1.668999999999869.369200000001001,2.525399999999991.369200000001001,1.031300000000101,0,1.952899999999772-.166000000000167,2.769600000000082-.498100000000704.81439999999975-.332999999999629,1.505799999999908-.915999999999258,2.074200000000019-1.753899999999703.569299999999657-.836900000000242,1.003899999999703-1.984399999999368,1.304699999999684-3.443299999999908.299800000000232-1.458999999999833.449200000000019-3.315499999999702.449200000000019-5.567399999999907v-14.160200000000259c0-2.574200000000019-.133800000000065-4.66110000000026-.40139999999974-6.25880000000052-.268500000000131-1.598599999999351-.671900000000278-2.843699999999444-1.208000000000084-3.733399999999165-.535400000000209-.889600000000428-1.206000000000131-1.485300000000279-2.011700000000019-1.787099999999555-.803699999999935-.298800000000483-1.742200000000139-.450200000001132-2.815700000000106-.450200000001132-1.157000000000153,0-2.287800000000061.27350000000115-3.393300000000181.822300000000723-1.104499999999916.546900000000278-2.120099999999638,1.254899999999907-3.04300000000012,2.122999999999593-.921800000000076.868199999999888-1.737299999999777,1.849699999999757-2.444300000000112,2.945399999999609-.707999999999629,1.093700000001263-1.234399999999368,2.1875-1.578099999999722,3.281200000001263v18.665999999999258h-5.953099999999722v-19.791999999999462c0-3.174800000000687-.182700000000295-5.862300000000687-.547900000000482-8.061499999999796-.363299999999981-2.199200000000928-.718699999999444-3.856400000000576-1.061499999999796-4.972600000000966h5.793900000000576Z"/><path class="uuid-fe74d172-6fe8-4ba3-94b9-9aabb8ff1fb4" d="M129.762200000000121,443.855899999999565h-32.207500000000437v-5.346599999999853h32.207500000000437v5.346599999999853ZM125.570800000000418,500.786099999999351h-5.518100000000231v-5.860300000000279h-12.874499999999898v5.860300000000279h-5.603000000000065v-28.914499999999862h23.995600000000195v28.914499999999862ZM125.314000000000306,454.891599999999016l-23.653400000000147.085000000000946v-5.345800000000963h23.653400000000147v5.260800000000017ZM125.399400000000242,466.097599999999147h-23.738800000000083v-5.346599999999853h23.738800000000083v5.346599999999853ZM124.33010000000013,432.991699999999582l-21.728500000000167.085399999999936v-5.346199999999953h21.728500000000167v5.260800000000017ZM120.052700000000186,489.664499999998952v-12.531699999999546h-12.959899999999834v12.531699999999546h12.959899999999834ZM175.314500000000407,466.183599999999387l-46.236900000000787.084899999999834v-5.260699999999815h11.462900000000445l2.480999999999767-13.216800000000148h-10.692900000000009v-5.260699999999815h11.548800000000483l1.83889999999974-9.795399999999972h-16.381800000000112v-5.346199999999953h42.473100000000159v5.261700000000019h-20.317399999999907l-1.753400000000511,9.794399999999769h17.622600000000602l-1.839899999999943,18.477100000000064h9.795000000000073v5.261700000000019ZM167.872099999999591,500.956999999999425h-5.51759999999922v-5.774399999999332h-21.64260000000013v5.774399999999332h-5.603500000000167v-28.998999999999796h32.763699999999517v28.998999999999796ZM162.354500000000371,489.921399999999267v-12.702699999999822h-21.728000000000065v12.702699999999822h21.728000000000065ZM161.498999999999796,447.705599999999322h-12.703099999999722l-2.480499999999665,13.302200000000084h13.857899999999972l1.325699999999415-13.302200000000084Z"/><path class="uuid-fe74d172-6fe8-4ba3-94b9-9aabb8ff1fb4" d="M271.756800000000112,443.855899999999565h-77.759200000000419v-5.346599999999853h77.759200000000419v5.346599999999853ZM260.294400000000223,454.805699999998978h-55.604500000000371v-5.17489999999998h55.604500000000371v5.17489999999998ZM260.294400000000223,465.926699999999983h-55.604500000000371v-5.175700000000688h55.604500000000371v5.175700000000688ZM258.284200000000055,500.956999999999425h-5.51760000000013v-6.031200000000354h-40.120800000000145v6.031200000000354h-5.517399999999725v-29.085399999999936h51.155799999999999v29.085399999999936ZM258.198699999999917,432.435999999999694l-50.642499999999927.127999999999702v-5.175299999999879h50.642499999999927v5.047300000000178ZM252.766599999999926,489.664499999998952v-12.531699999999546h-40.120800000000145v12.531699999999546h40.120800000000145Z"/><path class="uuid-fe74d172-6fe8-4ba3-94b9-9aabb8ff1fb4" d="M368.201199999999972,485.473599999999351h-34.432400000000143v5.945299999999406c0,6.358400000000984-3.378699999999753,9.538100000000668-10.137899999999718,9.538100000000668h-5.688500000000204l-2.095699999999852-5.260699999999815h7.955500000000029c2.794499999999971,0,4.192399999999907-1.284200000000055,4.192399999999907-3.849599999999555v-6.373100000000704h-37.554700000000139v-5.346700000000055h37.554700000000139v-3.67870000000039c5.958500000000186-2.224099999999453,10.221700000000055-4.304699999999684,12.78859999999986-6.244099999999889h-32.764400000000023v-4.918999999999869h42.260999999999967v4.662200000000666c-4.449699999999666,3.022399999999834-9.952699999999822,6.11619999999948-16.510999999999967,9.281199999999444v.898400000000038h34.432400000000143v5.346700000000055ZM364.607899999999972,469.604499999999462h-5.133800000000065v-8.853500000000167h-59.751400000000103v9.367199999999684h-5.603999999999814v-14.371099999999387h7.356400000000122v-26.091800000000148c4.048299999999927-.39850000000024,8.483600000000024-2.324300000000221,13.303199999999833-5.774000000000342l2.823300000000017,3.935100000000602c-2.596700000000055,2.395499999999629-6.132399999999961,4.206500000000233-10.608400000000074,5.432099999999991v3.593299999999545h10.949200000000019v4.448199999999815h-10.949200000000019v4.662100000000464h10.949200000000019v4.361899999999878h-10.949200000000019v5.433100000000195h45.467000000000098v-5.433100000000195h-10.436799999999948v-4.276899999999841h10.436799999999948v-5.003899999999703h-10.35129999999981v-4.362800000000789h10.35129999999981v-4.662599999999657h-12.104699999999866v-5.175299999999879h17.536599999999908v28.828599999999824h6.715799999999945v13.943400000000111ZM340.35550000000012,436.41359999999986l-2.99369999999999,3.678199999999379c-1.626400000000103-1.567399999999907-3.83640000000014-3.264699999999721-6.629899999999907-5.089899999999943-2.309500000000298,1.939500000000407-4.90480000000025,3.721700000000055-7.785100000000057,5.346700000000055l-3.507300000000214-3.08010000000013c2.766099999999824-1.139599999999518,5.188900000000103-2.480399999999463,7.271900000000187-4.019999999999527-3.480000000000018-1.311499999999796-6.288100000000213-2.224100000000362-8.427200000000084-2.737300000000687l2.182600000000093-3.935499999999593c3.164099999999962.798300000000381,6.343699999999899,1.825699999999415,9.537599999999657,3.079600000000028,2.024900000000343-1.909200000000055,3.721200000000408-3.863299999999981,5.090300000000298-5.859400000000278l3.592799999999897,2.865200000000186c-1.141599999999926,1.768599999999424-2.623999999999796,3.494200000000092-4.448199999999815,5.175799999999981,2.109299999999621,1.197300000000723,4.148400000000038,2.723100000000159,6.116199999999935,4.576700000000528ZM340.868199999999888,451.982399999998961l-3.591799999999694,2.823300000000017c-2.309600000000046-1.768099999999322-4.706100000000333-3.236399999999776-7.186100000000351-4.405299999999443-1.539499999999862,1.168899999999667-4.276799999999639,2.637200000000121-8.211899999999787,4.405299999999443l-3.251000000000204-2.566499999998996c3.677799999999934-1.738699999999881,6.315500000000156-3.250900000000911,7.913400000000365-4.533600000000661-1.597900000000209-.997599999999693-4.020800000000236-2.10989999999947-7.272000000000389-3.337400000000343l3.207800000000134-2.693400000000111c2.936500000000251,1.055700000000797,5.446300000000065,2.15230000000065,7.527799999999843,3.293000000000575.79740000000038-.45510000000013,2.409200000000055-1.824300000000221,4.833000000000084-4.106000000000677l3.935100000000148,2.010300000000825c-1.454099999999926,1.882300000000214-3.078199999999924,3.436499999999796-4.875800000000254,4.662999999999556,2.367000000000189,1.083099999999831,4.690200000000004,2.565500000000611,6.971500000000106,4.447299999999814Z"/><path class="uuid-fe74d172-6fe8-4ba3-94b9-9aabb8ff1fb4" d="M464.557600000000093,485.473599999999351h-34.431900000000041v5.945299999999406c0,6.358400000000984-3.378600000000006,9.538100000000668-10.136899999999969,9.538100000000668h-5.688500000000204l-2.095699999999852-5.260699999999815h7.955599999999777c2.79340000000002,0,4.191400000000158-1.284200000000055,4.191400000000158-3.849599999999555v-6.373100000000704h-37.553699999999935v-5.346700000000055h37.553699999999935v-3.67870000000039c5.959200000000237-2.224099999999453,10.221599999999853-4.304699999999684,12.789499999999862-6.244099999999889h-32.764400000000023v-4.918999999999869h42.260000000000218v4.662200000000666c-4.449000000000069,3.022399999999834-9.953100000000177,6.11619999999948-16.510999999999967,9.281199999999444v.898400000000038h34.431900000000041v5.346700000000055ZM460.965799999999945,469.604499999999462h-5.134700000000066v-8.853500000000167h-59.751499999999851v9.367199999999684h-5.603000000000065v-14.371099999999387h7.356200000000172v-26.091800000000148c4.04950000000008-.39850000000024,8.483099999999922-2.324300000000221,13.302499999999782-5.774000000000342l2.822500000000218,3.935100000000602c-2.593499999999949,2.395499999999629-6.130700000000161,4.206500000000233-10.607700000000023,5.432099999999991v3.593299999999545h10.950199999999768v4.448199999999815h-10.950199999999768v4.662100000000464h10.950199999999768v4.361899999999878h-10.950199999999768v5.433100000000195h45.466799999999694v-5.433100000000195h-10.435599999999795v-4.276899999999841h10.435599999999795v-5.003899999999703h-10.35109999999986v-4.362800000000789h10.35109999999986v-4.662599999999657h-12.104499999999916v-5.175299999999879h17.536399999999958v28.828599999999824h6.717000000000098v13.943400000000111ZM438.235799999999927,451.022899999999936l-3.896899999999732,3.563000000000102c-1.778800000000047-2.672800000000279-4.324300000000221-6.018500000000131-6.785700000000361-8.096199999999953-3.826099999999769,4.263199999999415-6.973099999999704,6.97609999999986-9.432099999999991,8.136799999999312l-3.856499999999869-3.238299999999981c2.898999999999887-1.378899999999703,6.041999999999916-3.954600000000028,9.433599999999842-7.73239999999987-3.85590000000002-2.401899999999841-6.603499999999713-3.887300000000323-8.243599999999788-4.454600000000028l3.363800000000083-3.479000000000269c1.367099999999937.539999999999964,3.934999999999945,1.941900000000714,7.710900000000038,4.210400000000845,1.122100000000046-1.835900000000038,1.995099999999638-3.846700000000055,2.623999999999796-6.033200000000761h-12.878900000000158v-5.059599999999591h6.90480000000025v-5.209899999999834h4.43119999999999v5.209899999999834h8.194799999999759v5.059599999999591h-1.622099999999591c-.910600000000159,3.34860000000026-2.135200000000168,6.249499999999898-3.675300000000334,8.70510000000013,2.981000000000222,2.265600000000632,5.841800000000148,5.719699999999648,7.728000000000065,8.418400000000474Z"/><path class="uuid-fe74d172-6fe8-4ba3-94b9-9aabb8ff1fb4" d="M562.326199999999972,443.685499999999593l-3.079099999999926,4.447799999999916c-9.724600000000009-2.395000000000437-17.336900000000242-5.16110000000026-22.839899999999943-8.29739999999947v3.849599999999555h-28.914999999999964v-4.235300000000279c-8.326399999999921,4.306599999999889-15.796900000000278,7.115200000000186-22.413100000000213,8.426300000000083l-2.822299999999814-4.49080000000049c16.024399999999787-3.906199999999444,29.36889999999994-10.436499999999796,40.034699999999702-19.589799999999741l5.26070000000027,1.753399999999601c-.570799999999963.712900000000445-1.069800000000214,1.212400000000343-1.497499999999945,1.496600000000399,9.466799999999694,7.870600000000195,21.557599999999638,13.417000000000371,36.271499999999833,16.639600000000428ZM553.214800000000196,468.193299999998999h-62.104400000000169v-20.059999999999491h62.104400000000169v20.059999999999491ZM548.125700000000052,501.041999999999462h-5.260499999999865v-3.421899999999368h-41.317800000000261v3.421899999999368h-5.260800000000017v-28.35739999999987h51.839100000000144v28.35739999999987ZM519.596700000000055,463.574199999999109v-10.693400000000111h-23.225600000000213v10.693400000000111h23.225600000000213ZM542.865200000000186,482.907199999999648v-5.51760000000013h-41.317800000000261v5.51760000000013h41.317800000000261ZM542.865200000000186,493.001899999999296v-5.603499999999258h-41.317800000000261v5.603499999999258h41.317800000000261ZM513.908199999999852,459.339299999999639l-4.405299999999897,3.079599999999118c-2.651299999999992-2.679199999998673-5.246999999999844-4.661599999999453-7.785100000000057-5.945299999999406l4.44800000000032-2.565899999999601c3.022699999999986,1.28269999999975,5.602999999999611,3.094199999999546,7.742399999999634,5.431599999999889ZM534.653299999999945,438.9375c-4.134700000000066-2.167000000000371-8.142100000000028-5.089900000000853-12.01949999999988-8.768600000001243-4.135299999999916,3.421900000001187-8.768100000000231,6.34480000000076-13.900399999999991,8.768600000001243h25.91989999999987ZM547.955599999999777,463.574199999999109v-10.693400000000111h-23.097199999999702v10.693400000000111h23.097199999999702ZM542.779300000000148,455.404299999999239c-1.682600000000093,2.680699999999888-4.220700000000306,4.962899999999536-7.613499999999931,6.843700000000354l-4.70490000000018-2.352000000000771c3.736399999999776-2.10989999999947,6.301800000000185-4.22019999999975,7.698300000000017-6.331099999999424l4.620100000000093,1.839399999999841Z"/><path class="uuid-fe74d172-6fe8-4ba3-94b9-9aabb8ff1fb4" d="M133.202146062990323,386.463399999999638l-1.546900000000278,2.056099999999788c-5.961900000000242-1.756800000000112-10.800299999999879-4.123000000000502-14.512200000000121-7.09860000000026-3.199700000000121,2.612300000000687-8.223100000000159,5.025400000000445-15.076600000000326,7.239199999999983l-1.721199999999953-2.090799999999945c6.629899999999907-1.838799999999537,11.643500000000131-4.070299999999406,15.040500000000065-6.694299999999203-3.408199999999852-3.221700000000055-5.699700000000121-7.139200000000528-6.870100000000093-11.754899999999907-.632299999999304,1.628399999999601-1.500499999999192,3.174299999998766-2.60109999999986,4.638699999999517l-1.860799999999472-1.704100000000835c1.475599999999758-1.757299999999304,2.663300000000163-3.684599999998682,3.565399999999499-5.781299999998737h-6.044399999999769v-2.160600000001068h14.09270000000015v-6.009299999999712h2.266200000000026v5.97360000000026h14.336900000000242v2.161699999999655h-6.009800000000723c-1.053199999999379,6.114700000000084-3.477499999999964,10.980900000000474-7.27390000000014,14.600500000000466,3.455500000000029,2.624099999999999,8.19380000000001,4.832099999999627,14.215300000000752,6.624099999999999ZM123.906746062990351,365.238799999999173h-13.598100000000159c.935499999999593,5.423300000000381,3.225499999999556,9.786600000000362,6.868599999999788,13.089299999999639,3.560999999999694-3.314399999999296,5.804199999999582-7.677699999999277,6.729500000000371-13.089299999999639Z"/><path class="uuid-fe74d172-6fe8-4ba3-94b9-9aabb8ff1fb4" d="M217.366966062989832,382.369599999999991h-14.145299999999679v2.442900000000009c0,2.611299999999574-1.387200000000121,3.917999999999665-4.163800000000265,3.917999999999665h-2.336900000000242l-.860099999999875-2.161200000000463h3.267100000000028c1.148400000000038,0,1.722600000000057-.527299999999741,1.722600000000057-1.581500000000233v-2.618199999998978h-15.426199999999881v-2.19630000000052h15.426199999999881v-1.511199999999917c2.44780000000037-.913099999999758,4.199300000000221-1.768600000000333,5.252500000000055-2.564900000000307h-13.458500000000186v-2.020999999999731h17.359400000000278v1.914999999999964c-1.826700000000073,1.242199999999684-4.088400000000092,2.513200000000325-6.78229999999985,3.813000000000102v.369099999999889h14.145299999999679v2.19630000000052ZM215.891566062990023,375.851599999999962h-2.109300000000076v-3.637700000001132h-24.546400000000176v3.847600000000966h-2.301800000000185v-5.902299999999741h3.022500000000036v-10.718800000000556c1.663100000000668-.16359999999986,3.485300000000279-.954600000000028,5.465300000000752-2.372100000000501l1.158699999999953,1.616700000000492c-1.064900000000307.983899999999267-2.519000000000233,1.727600000000166-4.358600000000479,2.231499999999869v1.475599999999758h4.498999999999796v1.82760000000053h-4.498999999999796v1.915100000000166h4.498999999999796v1.791900000000169h-4.498999999999796v2.232500000000073h18.67890000000034v-2.232500000000073h-4.288500000000113v-1.756800000001022h4.288500000000113v-2.055699999998978h-4.251900000000205v-1.792400000000271h4.251900000000205v-1.914600000000064h-4.972600000000057v-2.126000000000204h7.203099999999722v11.841800000000148h2.760200000000168v5.72860000000037ZM205.928266062990133,362.216799999999239l-1.231000000000222,1.510199999999713c-.666499999999814-.643999999999323-1.574700000000121-1.340299999999843-2.722199999999702-2.090299999999843-.949200000000019.796900000000278-2.015600000000177,1.529300000000148-3.19820000000027,2.19630000000052l-1.440399999999499-1.26470000000063c1.135499999999411-.468699999999444,2.131299999999555-1.019000000000233,2.986799999999675-1.651799999999639-1.429700000000139-.53859999999986-2.583999999999833-.91359999999986-3.46140000000014-1.124499999999898l.896899999999732-1.616700000000492c1.29910000000018.328600000000733,2.60550000000012.75,3.917500000000473,1.26510000000053.83199999999988-.784200000000055,1.528299999999945-1.586900000000242,2.090099999999893-2.407199999999648l1.476599999999962,1.177700000000186c-.469000000000051.725599999999758-1.078399999999874,1.434599999999591-1.826399999999921,2.125999999999294.865699999999833.49119999999948,1.703099999999722,1.11869999999999,2.511700000000019,1.879899999999907ZM206.138666062990069,368.612299999998868l-1.475600000000213,1.159700000000157c-.948199999999815-.72609999999986-1.93309999999974-1.329599999999118-2.952099999999973-1.810099999999693-.633100000000013.480500000000575-1.757299999999759,1.083999999999833-3.373599999999897,1.810099999999693l-1.335899999999583-1.054699999999684c1.512199999999666-.714399999999841,2.595499999999447-1.334499999999935,3.250999999999749-1.862299999999777-.655500000000302-.410200000000259-1.651900000000296-.86620000000039-2.98680000000013-1.370100000000093l1.317799999999806-1.107500000000073c1.20659999999998.433600000000297,2.237300000000232.885299999999916,3.092800000000352,1.353100000000268.328599999999824-.1875.989799999999832-.749100000000908,1.984599999999773-1.686600000000908l1.616500000000087.826200000001336c-.597400000000107.772499999999127-1.264400000000023,1.411099999999351-2.001499999999851,1.914999999999054.970699999999852.444400000000314,1.924799999999777,1.053799999999683,2.862799999999879,1.827199999999721Z"/><path class="uuid-fe74d172-6fe8-4ba3-94b9-9aabb8ff1fb4" d="M276.053986062990134,369.051299999999173c2.366700000000037,2.659100000000763,3.550799999999981,5.253899999999703,3.550799999999981,7.783699999999953,0,1.229900000000271-.319300000000112,2.208000000000538-.958500000000186,2.934000000000196-.637200000000121.727100000000064-1.530699999999797,1.089899999999943-2.679200000000037,1.089899999999943-.632299999999759,0-1.39449999999988-.076699999999619-2.284099999999853-.228100000000268l-.649899999999889-2.337399999999434c1.253899999999703.316899999999805,2.155199999999695.474699999999757,2.705500000000029.474699999999757.456099999999878,0,.872599999999693-.176300000000083,1.248099999999795-.526899999999841.375-.351599999999962.5625-.820300000000316.5625-1.406200000000354,0-.877999999999702-.322299999999814-2.0024999999996-.966600000000199-3.373599999999897-.644799999999577-1.370099999999184-1.611599999999726-2.676300000000083-2.899599999999737-3.917500000000473l3.426699999999983-8.80369999999948h-5.217999999999847v27.990300000000389h-2.302500000000236v-30.221199999999953h9.856400000000122v2.230899999999565l-3.391599999999926,8.311099999999897ZM300.284986062989901,382.282199999999648c-.305199999999786,1.897499999999127-.714799999999741,3.274400000000242-1.230999999999767,4.127899999999499-.514599999999973.855500000000575-1.353000000000065,1.283699999999953-2.511700000000019,1.283699999999953h-2.740700000000288c-1.828099999999722,0-2.740999999999985-.960900000000038-2.740999999999985-2.881299999999101v-9.29490000000078h-3.708200000000033c-.069799999999759,3.771500000000742-.805199999999786,6.597600000000057-2.204600000000028,8.477500000000873-1.400099999999838,1.879899999999907-3.996599999999944,3.457999999998719-7.792999999999665,4.735399999999572l-1.475600000000213-2.020500000000538c3.525399999999991-1.041999999999462,5.944899999999961-2.390199999999822,7.256900000000314-4.041999999999462,1.311999999999898-1.651400000000649,1.973099999999704-4.023000000000138,1.985299999999825-7.115300000000389h-4.814400000000205v-2.302199999999175h18.819300000000112v2.267099999999118h-5.87059999999974v8.75c0,.292400000000271.093999999999596.565400000000409.281700000000001.816899999999805.187299999999595.252400000000307.410199999999804.377400000000307.667999999999665.377400000000307h2.231700000000274c.456299999999828,0,.805399999999736-.374499999999898,1.04569999999967-1.124499999999898.238700000000335-.748999999999796.441400000000158-1.721199999999953.60590000000002-2.916500000000269l2.196300000000065.861300000000483ZM298.26398606299017,366.345699999999852l-2.23090000000002.035099999999147v-3.09269999999924h-13.248600000000351v3.09269999999924h-2.266799999999876v-5.324199999999109h7.71309999999994v-3.988300000000891h2.302700000000186v3.953700000000026h7.73050000000012v5.323700000000827ZM295.312786062990199,369.736299999999574h-11.878400000000056v-2.301300000000083h11.878400000000056v2.301300000000083Z"/><path class="uuid-fe74d172-6fe8-4ba3-94b9-9aabb8ff1fb4" d="M384.451806062989817,382.369599999999991h-14.145499999999629v2.442900000000009c0,2.611299999999574-1.388699999999972,3.917999999999665-4.163600000000315,3.917999999999665h-2.336899999999787l-.86160000000018-2.161200000000463h3.268300000000181c1.148499999999785,0,1.722699999999804-.527299999999741,1.722699999999804-1.581500000000233v-2.618199999998978h-15.427999999999884v-2.19630000000052h15.427999999999884v-1.511199999999917c2.447700000000168-.913099999999758,4.199200000000019-1.768600000000333,5.252899999999954-2.564900000000307h-13.458999999999833v-2.020999999999731h17.359199999999873v1.914999999999964c-1.826399999999921,1.242199999999684-4.088199999999688,2.513200000000325-6.781999999999698,3.813000000000102v.369099999999889h14.145499999999629v2.19630000000052ZM382.974706062990208,375.851599999999962h-2.107900000000427v-3.637700000001132h-24.545399999999972v3.847600000000966h-2.302699999999732v-5.902299999999741h3.023400000000038v-10.718800000000556c1.661599999999908-.16359999999986,3.483899999999721-.954600000000028,5.462899999999991-2.372100000000501l1.160199999999804,1.616700000000492c-1.065900000000056.983899999999267-2.518099999999777,1.727600000000166-4.356999999999971,2.231499999999869v1.475599999999758h4.497600000000148v1.82760000000053h-4.497600000000148v1.915100000000166h4.497600000000148v1.791900000000169h-4.497600000000148v2.232500000000073h18.676800000000185v-2.232500000000073h-4.287100000000009v-1.756800000001022h4.287100000000009v-2.055699999998978h-4.251700000000255v-1.792400000000271h4.251700000000255v-1.914600000000064h-4.972200000000157v-2.126000000000204h7.203199999999924v11.841800000000148h2.758700000000317v5.72860000000037ZM373.012806062989966,362.216799999999239l-1.23090000000002,1.510199999999713c-.66800000000012-.643999999999323-1.575199999999768-1.340299999999843-2.723700000000008-2.090299999999843-.948199999999815.796900000000278-2.014099999999871,1.529300000000148-3.197000000000116,2.19630000000052l-1.441100000000006-1.26470000000063c1.137200000000121-.468699999999444,2.133299999999963-1.019000000000233,2.987800000000334-1.651799999999639-1.429700000000139-.53859999999986-2.583100000000286-.91359999999986-3.461500000000342-1.124499999999898l.895500000000084-1.616700000000492c1.300799999999981.328600000000733,2.606999999999971.75,3.91800000000012,1.26510000000053.831499999999778-.784200000000055,1.529300000000148-1.586900000000242,2.092299999999796-2.407199999999648l1.475600000000213,1.177700000000186c-.469500000000153.725599999999758-1.079099999999926,1.434599999999591-1.828199999999924,2.125999999999294.867199999999684.49119999999948,1.704600000000028,1.11869999999999,2.51319999999987,1.879899999999907ZM373.223306062990105,368.612299999998868l-1.475600000000213,1.159700000000157c-.949499999999716-.72609999999986-1.93309999999974-1.329599999999118-2.951399999999921-1.810099999999693-.633600000000115.480500000000575-1.756600000000162,1.083999999999833-3.374299999999948,1.810099999999693l-1.334899999999834-1.054699999999684c1.511199999999917-.714399999999841,2.594200000000001-1.334499999999935,3.250900000000001-1.862299999999777-.656700000000001-.410200000000259-1.652800000000298-.86620000000039-2.987800000000334-1.370100000000093l1.317900000000009-1.107500000000073c1.206500000000233.433600000000297,2.237300000000232.885299999999916,3.091800000000148,1.353100000000268.328100000000177-.1875.989300000000185-.749100000000908,1.985799999999927-1.686600000000908l1.616300000000138.826200000001336c-.597200000000157.772499999999127-1.265200000000277,1.411099999999351-2.003000000000156,1.914999999999054.972200000000157.444400000000314,1.927799999999934,1.053799999999683,2.864300000000185,1.827199999999721Z"/><path class="uuid-fe74d172-6fe8-4ba3-94b9-9aabb8ff1fb4" d="M468.844426062989896,386.973599999999351h-31.976999999999862v-2.266599999999926h14.89890000000014v-8.24119999999948h-10.735400000000027v-2.266600000000835h10.735400000000027v-7.168399999999565h-7.959500000000389c-.960399999999936,2.494599999999991-2.565399999999954,4.796299999999974-4.81439999999975,6.904700000000048l-2.318400000000111-1.211900000000242c3.840799999999945-3.548800000000483,5.979000000000269-7.895500000000538,6.412600000000111-13.037099999999555l2.372100000000046.685099999999693c-.093800000000101,1.194800000000214-.369200000000092,2.670900000000074-.826700000000073,4.428199999999379h7.099600000000009v-7.69629999999961h2.371399999999994v7.660700000000361h12.404500000000098v2.266599999999926h-12.404500000000098v7.133699999999408h10.577800000000025v2.266200000000026h-10.577800000000025v8.240700000000288h14.741399999999885v2.302200000000084Z"/><path class="uuid-fe74d172-6fe8-4ba3-94b9-9aabb8ff1fb4" d="M553.957746062989827,365.203099999998813l-1.264400000000023,1.827700000000732c-3.99389999999994-.983900000000176-7.122299999999996-2.119700000000194-9.383100000000013-3.408300000000054v1.580599999999322h-11.877899999999954v-1.739199999999983c-3.41989999999987,1.769000000000233-6.48929999999973,2.922800000000279-9.206099999999878,3.46140000000014l-1.159599999999955-1.84519999999975c6.583000000000084-1.604499999999462,12.064400000000205-4.287099999999555,16.445799999999963-8.046899999999368l2.160600000000159.720699999999852c-.234899999999925.292999999999665-.439400000000205.497999999999593-.614300000000185.614299999999275,3.88819999999987,3.233400000000984,8.856000000000222,5.511700000000928,14.898999999999887,6.834899999999834ZM550.21604606298979,375.271499999998923h-25.511699999999564v-8.240699999999379h25.511699999999564v8.240699999999379ZM548.125246062989845,388.764599999999518h-2.162199999999757v-1.40520000000015h-16.973100000000159v1.40520000000015h-2.160599999999704v-11.648400000000038h21.295899999999619v11.648400000000038ZM536.404946062989893,373.373999999999796v-4.393100000000231h-9.539999999999964v4.393100000000231h9.539999999999964ZM545.963046062990088,381.315399999999499v-2.266599999999926h-16.973100000000159v2.266599999999926h16.973100000000159ZM545.963046062990088,385.461899999999332v-2.301800000000185h-16.973100000000159v2.301800000000185h16.973100000000159ZM534.068046062990106,371.634799999999814l-1.809799999999996,1.264599999999518c-1.088600000000042-1.100599999999758-2.1550000000002-1.914999999999964-3.197000000000116-2.442399999999907l1.826599999999871-1.05369999999948c1.242200000000139.52639999999883,2.301300000000083,1.270499999999629,3.180200000000241,2.231499999999869ZM542.589346062989989,363.253399999999601c-1.697999999999865-.889600000000428-3.343100000000049-2.090799999999945-4.936299999999846-3.602499999999964-1.700200000000223,1.405700000000252-3.602600000000166,2.606899999999769-5.710700000000088,3.602499999999964h10.646999999999935ZM548.054446062989882,373.373999999999796v-4.393100000000231h-9.48739999999998v4.393100000000231h9.48739999999998ZM545.92894606298978,370.018099999999322c-.691899999999805,1.101000000000568-1.734699999999975,2.037599999999657-3.128499999999804,2.810999999999694l-1.932099999999991-.965799999999945c1.533699999999953-.867199999999684,2.588400000000092-1.734399999999368,3.162600000000111-2.60109999999986l1.897999999999683.755900000000111Z"/><rect class="uuid-2e4d1042-2228-4028-9d34-416bd58e178a" x="-12.430699999999888" y="-12.464900000000853" width="658.050799999999981" height="600.218800000000556"/></g></svg>