<?xml version="1.0" encoding="UTF-8"?><svg id="uuid-17672ae0-f9a0-47ec-be86-c40937c00c74" xmlns="http://www.w3.org/2000/svg" width="223.375851645231137mm" height="281.853600489205519mm" xmlns:xlink="http://www.w3.org/1999/xlink" viewBox="0 0 633.191399999999703 798.95509999999922"><defs><style>.uuid-f37e021a-e9d6-427b-9d0c-80c56007b3b8{fill:#00c2f3;}.uuid-bbd459fa-e7ba-45d5-9a4d-8fbf92d696c1{fill:#fff;}.uuid-06a380de-faf4-47b1-8cf3-c74945d76331{fill:#ee212e;}.uuid-f72fd7bc-d8f0-40c1-9f90-81930b033fb9{fill:none;}.uuid-75c46809-7185-4d84-89f6-b69142393357{fill:#333e48;}.uuid-e6f97d15-eb7c-4cad-ada0-a95b0ed826de{fill:#46bc96;}.uuid-0a2066c6-763a-4760-bd52-6e866e446d40{clip-path:url(#uuid-8ed4bfed-208d-4ac1-9b9c-f3291bb4d568);}</style><clipPath id="uuid-8ed4bfed-208d-4ac1-9b9c-f3291bb4d568"><rect class="uuid-f72fd7bc-d8f0-40c1-9f90-81930b033fb9" width="633.191399999999703" height="798.95509999999922"/></clipPath></defs><g class="uuid-0a2066c6-763a-4760-bd52-6e866e446d40"><path class="uuid-06a380de-faf4-47b1-8cf3-c74945d76331" d="M77.710900000000038,170.746999999999389c3.777399999999943,0,6.837899999999536,3.060600000000704,6.837899999999536,6.836999999999534-.001899999999296-.139699999999721-.005799999999908-.278399999999237-.005799999999908-.418999999999869,0-51.154300000000148,41.468700000000354-92.622999999999593,92.623000000000502-92.622999999999593,3.777399999999943,0,6.837899999999536-3.060600000000704,6.837899999999536-6.837900000000445,0-3.77639999999883-3.060499999999593-6.837899999998626-6.837899999999536-6.837899999998626-14.343700000000354,0-28.265599999999722,2.8125-41.380799999999908,8.359399999999368-12.658200000000761,5.354499999999462-24.025400000000445,13.016599999999016-33.783200000000761,22.774400000000242-9.757899999999609,9.75879999999961-17.421899999999368,21.125-22.775399999999536,33.784200000000055-5.546900000000278,13.115200000000186-8.359400000000278,27.037099999999555-8.359400000000278,41.380799999998999,0,.140600000000632.003900000000613.279300000000148.005400000000009.418999999999869,0-3.77639999999883,3.061000000000604-6.836999999999534,6.838300000000345-6.836999999999534Z"/><path class="uuid-e6f97d15-eb7c-4cad-ada0-a95b0ed826de" d="M170.33010000000013,276.626899999999296c0-3.776299999999537,3.060499999999593-6.837900000000445,6.835900000000038-6.837900000000445-51.015599999999722,0-92.39260000000013-41.242199999998775-92.617200000000594-92.204999999999927,0-3.77639999999883-3.060499999999593-6.836999999999534-6.837899999999536-6.836999999999534-3.777299999999741,0-6.838300000000345,3.060600000000704-6.838300000000345,6.836999999999534.055100000000493,14.196200000000317,2.861800000000585,27.975500000000466,8.354000000000269,40.962800000001153,5.353500000000167,12.659200000000055,13.017499999999927,24.025400000000445,22.775399999999536,33.783299999999144,9.757800000000316,9.758700000000317,21.125,17.420900000000984,33.783200000000761,22.775300000001153,13.115200000000186,5.546899999999368,27.037099999999555,8.359399999999368,41.380799999999908,8.359399999999368-3.775400000000445,0-6.835900000000038-3.061499999999796-6.835900000000038-6.837900000000445Z"/><path class="uuid-f37e021a-e9d6-427b-9d0c-80c56007b3b8" d="M251.265600000000177,243.702100000000428c-2.669900000000325-2.670900000000984-6.998000000000047-2.670900000000984-9.669900000000325,0-16.671899999999823,16.145499999998719-39.386999999999716,26.086899999998423-64.429699999999684,26.086899999998423-3.775400000000445,0-6.835900000000038,3.061600000000908-6.835900000000038,6.837900000000445,0,3.776400000000649,3.060499999999593,6.837900000000445,6.835900000000038,6.837900000000445,14.345699999999852,0,28.267599999999675-2.8125,41.382799999999861-8.359399999999368,12.202899999999772-5.160100000000966,23.199000000000069-12.47360000000117,32.716800000000148-21.73240000000078,2.671899999999823-2.670899999999165,2.671899999999823-7,0-9.670899999999165Z"/><path class="uuid-f37e021a-e9d6-427b-9d0c-80c56007b3b8" d="M233.458700000000135,120.873999999999796c-15.034900000000107-15.035200000000259-35.027100000000246-23.315399999999499-56.292699999999968-23.315399999999499-21.261700000000019,0-41.253900000000613,8.28019999999924-56.291000000000167,23.315399999999499-15.035200000000259,15.036099999999351-23.316399999999703,35.027299999999741-23.316399999999703,56.290999999999258,0,21.265600000000632,8.281199999999444,41.254899999999907,23.316399999999703,56.292000000001281,15.037099999999555,15.03519999999844,35.029300000000148,23.317399999999907,56.291000000000167,23.317399999999907,21.265599999999722,0,41.257799999999861-8.282200000001467,56.292699999999968-23.317399999999907,15.035399999999754-15.037100000001374,23.314699999999903-35.026400000000649,23.314699999999903-56.292000000001281,0-21.263699999999517-8.279300000000148-41.254899999999907-23.314699999999903-56.290999999999258Z"/><path class="uuid-75c46809-7185-4d84-89f6-b69142393357" d="M121.0625,202.910099999999147v-51.489199999999983h11.167999999999665v3.806599999999889h-6.47269999999935v43.877000000000407h6.47269999999935v3.805599999999686h-11.167999999999665Z"/><path class="uuid-75c46809-7185-4d84-89f6-b69142393357" d="M233.271499999999833,151.420899999999165v51.489199999999983h-11.164099999999962v-3.805599999999686h6.468800000000101v-43.877000000000407h-6.468800000000101v-3.806599999999889h11.164099999999962Z"/><path class="uuid-bbd459fa-e7ba-45d5-9a4d-8fbf92d696c1" d="M146.997999999999593,187.625c0,1.028299999999945.015700000000834,2.242199999998775.046900000000278,3.635699999998906.031300000000556,1.394500000000335.076200000000426,2.8125.130900000000111,4.248100000000704.052700000000186,1.4375.115200000000186,2.811499999999796.193299999999908,4.120100000000093.072299999999814,1.308600000000297.164099999999962,2.402299999999741.271499999999833,3.281199999999444h-6.595699999999852v-36.364199999999983c0-3.132799999999406-.052700000000186-5.968799999998737-.162099999999555-8.511699999999109-.105500000000575-2.542999999999665-.26760000000013-4.748100000000704-.48239999999987-6.613300000000891h6.597599999999147v36.204100000000835Z"/><path class="uuid-bbd459fa-e7ba-45d5-9a4d-8fbf92d696c1" d="M175.800799999999981,170.084899999999834v4.216800000000148h-6.050799999999981v24.393599999999424h6.050799999999981v4.215799999999945h-18.021499999999833v-4.215799999999945h5.953099999999722v-24.393599999999424h-5.953099999999722v-4.216800000000148h18.021499999999833Z"/><path class="uuid-bbd459fa-e7ba-45d5-9a4d-8fbf92d696c1" d="M189.316399999999703,170.084899999999834c.128900000000613.344799999998941.257800000000316.789099999999962.386700000000019,1.337900000000445.128900000000613.545899999999165.246100000000297,1.119199999999182.353500000000167,1.720699999999852.105499999999665.599599999999555.203199999999924,1.190499999998792.29110000000037,1.769599999999627l.255799999999908,1.447200000000521c2.060599999999795-2.445300000001225,4.128899999999703-4.209000000000742,6.21100000000024-5.292900000000373,2.079999999999472-1.083099999999831,4.249999999999545-1.625,6.499999999999545-1.625,1.716699999999946,0,3.234300000000076.284099999998944,4.554599999999937.85149999999885,1.318400000000111.570300000001225,2.429700000000139,1.470700000001671,3.33010000000013,2.703100000000632.900399999999991,1.234399999999368,1.58199999999988,2.834000000000742,2.04489999999987,4.795900000000984.46100000000024,1.96389999999883.691400000000158,4.327199999999721.691400000000158,7.096700000000055v14.480499999999665c0,3.626000000000204-.318299999999908,6.635699999998906-.951100000000224,9.027299999999741-.630899999999656,2.39259999999922-1.517599999999675,4.301799999999275-2.654299999999694,5.730499999999665-1.136700000000019,1.423800000000483-2.505900000000111,2.433600000000297-4.103500000000167,3.022500000000946-1.597699999999804.590799999999945-3.373099999999795.885699999998906-5.326199999999972.885699999998906-.964899999999943,0-2-.155300000000352-3.10550000000012-.466800000000148-1.103500000000167-.311499999999796-2.10739999999987-.745100000000093-3.007800000000316-1.303699999998571l2.091800000000148-4.827100000000428c.494099999999889.365200000000186,1.152300000000196.669899999998961,1.978500000000167.917899999998554.826199999999972.246100000000297,1.669900000000325.369200000001001,2.525399999999991.369200000001001,1.031300000000101,0,1.953100000000177-.16610000000037,2.769500000000335-.498100000000704.814499999999953-.332999999998719,1.505899999999656-.915999999999258,2.074299999999766-1.753899999999703.570299999999861-.836900000000242,1.003900000000158-1.984399999999368,1.304599999999937-3.443400000000111.300600000000031-1.45889999999963.449300000000221-3.315399999999499.449300000000221-5.567299999998795v-14.160200000000259c0-2.574200000000928-.132800000000316-4.66110000000117-.400399999999991-6.258800000001429-.269600000000082-1.598599999999351-.671900000000278-2.843699999999444-1.209000000000287-3.733399999999165-.535199999999804-.889600000000428-1.205299999999625-1.485300000000279-2.011700000000019-1.787099999999555-.802799999999934-.298800000000483-1.742199999999684-.450200000001132-2.814499999999953-.450200000001132-1.158199999999852,0-2.28899999999976.27350000000115-3.39449999999988.822300000001633-1.103499999999713.546899999999368-2.119199999999637,1.254899999999907-3.04300000000012,2.122999999999593-.921900000000278.868199999998978-1.736299999999574,1.849599999999555-2.443299999999908,2.945299999999406-.708999999999833,1.093800000000556-1.234400000000278,2.1875-1.578199999999924,3.281300000000556v18.665999999999258h-5.953099999999722v-19.791999999999462c0-3.174800000000687-.183600000000297-5.862300000000687-.548800000000483-8.061499999999796-.363299999999981-2.199200000000928-.718799999999646-3.856499999999869-1.060599999999795-4.972700000000259h5.792999999999665Z"/><rect class="uuid-f72fd7bc-d8f0-40c1-9f90-81930b033fb9" x="110.193847656249773" y="702.694309374999648" width="368.126220703119998" height="46.6611328125"/><path class="uuid-75c46809-7185-4d84-89f6-b69142393357" d="M131.91162109375,712.138645312499648l-2.9404296875,3.4033203125c-2.058349609375-1.6806640625-4.07470703125-2.4365234375-6.42724609375-2.4365234375-2.520263671875,0-4.24267578125,1.091796875-4.24267578125,3.150390625,0,2.0166015625,1.09228515625,2.8564453125,5.839111328125,4.326171875,5.2509765625,1.6806640625,8.611572265625,3.865234375,8.611572265625,9.2421875,0,5.3349609375-4.200927734375,9.0732421875-11.258056640625,9.0732421875-4.830810546875,0-8.359619140625-1.7216796875-10.75390625-4.07421875l3.192626953125-3.4873046875c2.100341796875,1.806640625,4.41064453125,2.8994140625,7.393310546875,2.8994140625,2.982421875,0,4.998779296875-1.4287109375,4.998779296875-3.9912109375,0-2.310546875-1.13427734375-3.318359375-5.544921875-4.6630859375-6.30126953125-1.9736328125-8.821533203125-4.494140625-8.821533203125-8.9052734375,0-4.95703125,4.28466796875-8.19140625,10.165771484375-8.19140625,4.32666015625,0,7.267333984375,1.3017578125,9.78759765625,3.654296875Z"/><path class="uuid-75c46809-7185-4d84-89f6-b69142393357" d="M155.55712890625,728.900364062499648h-13.904296875c.419921875,4.2841796875,2.436279296875,5.544921875,5.292724609375,5.544921875,1.890380859375,0,3.48681640625-.5888671875,5.4189453125-1.9326171875l2.478515625,3.3603515625c-2.184326171875,1.7646484375-4.956787109375,3.0244140625-8.443359375,3.0244140625-7.141357421875,0-10.880126953125-4.705078125-10.880126953125-11.677734375,0-6.7216796875,3.61279296875-11.9306640625,10.123779296875-11.9306640625,6.30126953125,0,10.039794921875,4.201171875,10.039794921875,11.30078125,0,.755859375-.083984375,1.6796875-.1259765625,2.310546875ZM149.76025390625,724.909153124999648c0-3.3603515625-1.13427734375-5.544921875-3.99072265625-5.544921875-2.3525390625,0-3.78076171875,1.5546875-4.11669921875,5.796875h8.107421875v-.251953125Z"/><path class="uuid-75c46809-7185-4d84-89f6-b69142393357" d="M175.54833984375,717.977512499999648l-2.268310546875,3.4033203125c-1.806396484375-1.134765625-3.612548828125-1.7646484375-5.544921875-1.7646484375-1.974365234375,0-3.066650390625.7978515625-3.066650390625,2.0166015625,0,1.3017578125.756103515625,1.890625,4.662841796875,3.0244140625,4.452880859375,1.2177734375,6.973388671875,3.06640625,6.973388671875,7.015625,0,4.6201171875-4.326904296875,7.224609375-9.619873046875,7.224609375-3.86474609375,0-6.97314453125-1.3017578125-9.073486328125-3.234375l2.9404296875-3.2763671875c1.680419921875,1.3017578125,3.73876953125,2.1845703125,5.965087890625,2.1845703125s3.654541015625-.9248046875,3.654541015625-2.4365234375c0-1.6806640625-.798095703125-2.2265625-4.914794921875-3.361328125-4.494873046875-1.259765625-6.59521484375-3.486328125-6.59521484375-6.8466796875,0-3.7802734375,3.444580078125-6.6376953125,8.821533203125-6.6376953125,3.234619140625,0,5.965087890625,1.0087890625,8.0654296875,2.6884765625Z"/><path class="uuid-75c46809-7185-4d84-89f6-b69142393357" d="M195.665771484375,717.977512499999648l-2.268310546875,3.4033203125c-1.806396484375-1.134765625-3.612548828125-1.7646484375-5.544921875-1.7646484375-1.974365234375,0-3.066650390625.7978515625-3.066650390625,2.0166015625,0,1.3017578125.756103515625,1.890625,4.662841796875,3.0244140625,4.452880859375,1.2177734375,6.97314453125,3.06640625,6.97314453125,7.015625,0,4.6201171875-4.32666015625,7.224609375-9.61962890625,7.224609375-3.86474609375,0-6.97314453125-1.3017578125-9.073486328125-3.234375l2.9404296875-3.2763671875c1.680419921875,1.3017578125,3.73876953125,2.1845703125,5.965087890625,2.1845703125s3.654541015625-.9248046875,3.654541015625-2.4365234375c0-1.6806640625-.798095703125-2.2265625-4.914794921875-3.361328125-4.494873046875-1.259765625-6.59521484375-3.486328125-6.59521484375-6.8466796875,0-3.7802734375,3.444580078125-6.6376953125,8.821533203125-6.6376953125,3.234619140625,0,5.965087890625,1.0087890625,8.0654296875,2.6884765625Z"/><path class="uuid-75c46809-7185-4d84-89f6-b69142393357" d="M206.919677734375,707.980442187499648c0,1.9736328125-1.51220703125,3.486328125-3.654541015625,3.486328125s-3.61279296875-1.5126953125-3.61279296875-3.486328125c0-1.974609375,1.470458984375-3.4873046875,3.61279296875-3.4873046875s3.654541015625,1.5126953125,3.654541015625,3.4873046875ZM206.28955078125,738.225559374999648h-5.965087890625v-22.263671875h5.965087890625v22.263671875Z"/><path class="uuid-75c46809-7185-4d84-89f6-b69142393357" d="M232.1640625,727.093723437499648c0,7.056640625-3.99072265625,11.8037109375-10.669921875,11.8037109375-6.63720703125,0-10.669921875-4.41015625-10.669921875-11.8037109375,0-7.099609375,3.99072265625-11.8046875,10.7119140625-11.8046875,6.63720703125,0,10.6279296875,4.4111328125,10.6279296875,11.8046875ZM217.04150390625,727.093723437499648c0,5.125,1.51220703125,7.3515625,4.45263671875,7.3515625,2.940673828125,0,4.452880859375-2.2685546875,4.452880859375-7.3515625,0-5.125-1.51220703125-7.3515625-4.410888671875-7.3515625-2.982421875,0-4.49462890625,2.2685546875-4.49462890625,7.3515625Z"/><path class="uuid-75c46809-7185-4d84-89f6-b69142393357" d="M255.347900390625,722.010715624999648v16.21484375h-5.965087890625v-15.20703125c0-2.5625-.924072265625-3.2763671875-2.436279296875-3.2763671875-1.722412109375,0-3.066650390625,1.134765625-4.284912109375,3.1083984375v15.375h-5.965087890625v-22.263671875h5.1669921875l.462158203125,2.814453125c1.80615234375-2.2265625,3.99072265625-3.4873046875,6.80517578125-3.4873046875,3.90673828125,0,6.217041015625,2.5205078125,6.217041015625,6.7216796875Z"/><path class="uuid-75c46809-7185-4d84-89f6-b69142393357" d="M288.9892578125,716.801731249999648c0,4.62109375-2.8564453125,8.5693359375-12.09814453125,16.802734375h12.770263671875l-.630126953125,4.62109375h-18.9453125v-4.3271484375c10.039794921875-9.619140625,12.770263671875-12.8115234375,12.770263671875-16.5927734375,0-2.5625-1.554443359375-4.2001953125-4.200927734375-4.2001953125-2.310302734375,0-3.822509765625.923828125-5.544921875,2.982421875l-3.696533203125-2.8984375c2.310302734375-2.982421875,5.376953125-4.705078125,9.82958984375-4.705078125,6.42724609375,0,9.745849609375,3.7802734375,9.745849609375,8.3173828125Z"/><path class="uuid-75c46809-7185-4d84-89f6-b69142393357" d="M313.811279296875,723.649387499999648c0,9.9130859375-3.57080078125,15.248046875-10.207763671875,15.248046875-6.63720703125,0-10.2080078125-5.3349609375-10.2080078125-15.248046875,0-9.9140625,3.57080078125-15.1650390625,10.2080078125-15.1650390625,6.636962890625,0,10.207763671875,5.2509765625,10.207763671875,15.1650390625ZM299.528564453125,723.649387499999648c0,8.1494140625,1.30224609375,10.75390625,4.074951171875,10.75390625,2.73046875,0,4.07470703125-2.478515625,4.07470703125-10.75390625s-1.34423828125-10.7119140625-4.07470703125-10.7119140625c-2.772705078125,0-4.074951171875,2.6044921875-4.074951171875,10.7119140625Z"/><path class="uuid-75c46809-7185-4d84-89f6-b69142393357" d="M336.029052734375,716.801731249999648c0,4.62109375-2.856689453125,8.5693359375-12.09814453125,16.802734375h12.770263671875l-.630126953125,4.62109375h-18.9453125v-4.3271484375c10.039794921875-9.619140625,12.770263671875-12.8115234375,12.770263671875-16.5927734375,0-2.5625-1.554443359375-4.2001953125-4.200927734375-4.2001953125-2.310302734375,0-3.822509765625.923828125-5.544921875,2.982421875l-3.696533203125-2.8984375c2.310302734375-2.982421875,5.376953125-4.705078125,9.82958984375-4.705078125,6.42724609375,0,9.745849609375,3.7802734375,9.745849609375,8.3173828125Z"/><path class="uuid-75c46809-7185-4d84-89f6-b69142393357" d="M360.851318359375,723.649387499999648c0,9.9130859375-3.57080078125,15.248046875-10.207763671875,15.248046875-6.63720703125,0-10.2080078125-5.3349609375-10.2080078125-15.248046875,0-9.9140625,3.57080078125-15.1650390625,10.2080078125-15.1650390625,6.636962890625,0,10.207763671875,5.2509765625,10.207763671875,15.1650390625ZM346.568603515625,723.649387499999648c0,8.1494140625,1.30224609375,10.75390625,4.074951171875,10.75390625,2.73046875,0,4.07470703125-2.478515625,4.07470703125-10.75390625s-1.34423828125-10.7119140625-4.07470703125-10.7119140625c-2.772705078125,0-4.074951171875,2.6044921875-4.074951171875,10.7119140625Z"/><path class="uuid-75c46809-7185-4d84-89f6-b69142393357" d="M363.40966796875,722.724582812499648h19.827392578125v4.705078125h-19.827392578125v-4.705078125Z"/><path class="uuid-75c46809-7185-4d84-89f6-b69142393357" d="M404.90869140625,716.801731249999648c0,4.62109375-2.8564453125,8.5693359375-12.09814453125,16.802734375h12.770263671875l-.630126953125,4.62109375h-18.9453125v-4.3271484375c10.039794921875-9.619140625,12.770263671875-12.8115234375,12.770263671875-16.5927734375,0-2.5625-1.554443359375-4.2001953125-4.200927734375-4.2001953125-2.310302734375,0-3.822509765625.923828125-5.544921875,2.982421875l-3.696533203125-2.8984375c2.310302734375-2.982421875,5.376953125-4.705078125,9.82958984375-4.705078125,6.42724609375,0,9.745849609375,3.7802734375,9.745849609375,8.3173828125Z"/><path class="uuid-75c46809-7185-4d84-89f6-b69142393357" d="M429.730712890625,723.649387499999648c0,9.9130859375-3.57080078125,15.248046875-10.207763671875,15.248046875-6.63720703125,0-10.2080078125-5.3349609375-10.2080078125-15.248046875,0-9.9140625,3.57080078125-15.1650390625,10.2080078125-15.1650390625,6.636962890625,0,10.207763671875,5.2509765625,10.207763671875,15.1650390625ZM415.447998046875,723.649387499999648c0,8.1494140625,1.30224609375,10.75390625,4.074951171875,10.75390625,2.73046875,0,4.07470703125-2.478515625,4.07470703125-10.75390625s-1.34423828125-10.7119140625-4.07470703125-10.7119140625c-2.772705078125,0-4.074951171875,2.6044921875-4.074951171875,10.7119140625Z"/><path class="uuid-75c46809-7185-4d84-89f6-b69142393357" d="M451.948486328125,716.801731249999648c0,4.62109375-2.856689453125,8.5693359375-12.09814453125,16.802734375h12.770263671875l-.630126953125,4.62109375h-18.9453125v-4.3271484375c10.039794921875-9.619140625,12.770263671875-12.8115234375,12.770263671875-16.5927734375,0-2.5625-1.554443359375-4.2001953125-4.200927734375-4.2001953125-2.310302734375,0-3.822509765625.923828125-5.544921875,2.982421875l-3.696533203125-2.8984375c2.310302734375-2.982421875,5.376953125-4.705078125,9.82958984375-4.705078125,6.42724609375,0,9.745849609375,3.7802734375,9.745849609375,8.3173828125Z"/><path class="uuid-75c46809-7185-4d84-89f6-b69142393357" d="M476.938720703125,733.646457812499648v4.5791015625h-18.273193359375v-4.5791015625h6.80517578125v-18.5673828125l-6.217041015625,3.7392578125-2.5625-3.9912109375,9.36767578125-5.6708984375h5.2509765625v24.490234375h5.62890625Z"/><path class="uuid-75c46809-7185-4d84-89f6-b69142393357" d="M115.320259566689856,413.347661018571671v-67.755400000001828h8.153800000000047v60.572299999999814h28.83010000000013v7.183100000002014h-36.983900000000176Z"/><path class="uuid-75c46809-7185-4d84-89f6-b69142393357" d="M167.058559566679833,351.51366101856911c-1.683599999999387,0-2.89739999998983-.403299999998126-3.640599999989718-1.213399999998728-.744599999999991-.808100000000195-1.11620000000039-1.858900000001086-1.11620000000039-3.154799999998431v-1.261700000002747c0-1.293899999998757.371600000000399-2.34519999999975,1.11620000000039-3.155299999998533.743199999999888-.808600000000297,1.95699999999033-1.213299999999435,3.640599999989718-1.213299999999435,1.681700000010096,0,2.895500000010543.404699999999139,3.640100000010534,1.213299999999435.743199999999888.810099999998783,1.116299999999683,1.861399999999776,1.116299999999683,3.155299999998533v1.261700000002747c0,1.295899999997346-.373099999999795,2.346699999998236-1.116299999999683,3.154799999998431-.744599999999991.810100000000602-1.958400000000438,1.213399999998728-3.640100000010534,1.213399999998728ZM163.175759566690431,363.259761018569407h7.765599999999722v50.087900000002264h-7.765599999999722v-50.087900000002264Z"/><path class="uuid-75c46809-7185-4d84-89f6-b69142393357" d="M187.443359566679646,413.347661018571671v-50.087900000002264h7.765600000010636v8.061000000001513h.388199999989411c1.228500000010172-2.817900000001828,2.960400000000391-5.061000000001513,5.193300000010368-6.726500000000669,2.23299999999972-1.665600000000268,5.225100000000111-2.499599999999191,8.978999999999814-2.499599999999191,5.176800000000185,0,9.270600000000286,1.666999999999462,12.27980000000025,4.999100000000908,3.009299999989707,3.333999999998923,4.513699999999972,8.041999999997643,4.513699999999972,14.123999999999796v32.129899999999907h-7.765600000000177v-30.837900000002264c0-9.015599999998813-3.785699999999906-13.523499999999331-11.35739999999987-13.523499999999331-1.553300000000036,0-3.057699999999841.195800000001327-4.514200000000073.583999999998923-1.456099999999878.38970000000154-2.766100000009828.973700000002282-3.93119999999999,1.752000000000407-1.165000000000418.778300000001764-2.086899999999787,1.766600000000835-2.766100000000279,2.966800000001967-.679699999999684,1.199199999999109-1.019499999999425,2.610300000000279-1.019499999999425,4.231400000000576v34.827199999999721h-7.765600000010636Z"/><path class="uuid-75c46809-7185-4d84-89f6-b69142393357" d="M282.377859566689949,411.697761018571327c0,6.923800000000483-1.941400000000158,12.359799999998359-5.824200000010023,16.307600000000093-3.882799999989857,3.946799999997893-9.351999999989857,5.92239999999947-16.404799999999796,5.92239999999947-4.077099999989969,0-7.588300000000345-.634799999999814-10.532199999990098-1.901400000000649-2.945299999999861-1.269500000000335-5.387200000000121-2.942399999999907-7.328599999999824-5.021999999999025l4.561999999999898-5.362800000000789c1.682099999999991,1.731999999999971,3.623599999999897,3.065000000000509,5.824200000000019,3.996099999998478,2.199299999999766.931700000001001,4.756399999999758,1.397000000000844,7.668499999999767,1.397000000000844,4.529299999990144,0,8.040500000000065-1.251499999998487,10.532199999990098-3.752000000000407,2.490700000009838-2.504399999997986,3.737300000000232-6.192799999998897,3.737300000000232-11.067799999998897v-6.9283000000014h-.38819999999032c-1.489199999999983,3.075700000001234-3.430599999999686,5.381400000002031-5.824200000010023,6.919000000001688-2.394999999999982,1.53859999999986-5.338799999989988,2.307099999998172-8.833499999989726,2.307099999998172-3.106400000000122,0-5.921400000010181-.615699999998469-8.44530000001032-1.843699999997625-2.523399999990033-1.22899999999936-4.659199999990051-2.976600000001781-6.406199999989894-5.242200000000594-1.747600000010152-2.264699999999721-3.106499999999869-5.014699999999721-4.077199999999721-8.251000000000204-.970700000000306-3.235400000001391-1.456000000000131-6.859400000001187-1.456000000000131-10.872100000000501,0-4.011699999999109.485299999999825-7.635699999998906,1.456000000000131-10.871999999999389.970699999999852-3.235400000001391,2.329599999989568-5.985400000001391,4.077199999999721-8.251000000000204,1.746999999999844-2.264699999999721,3.882799999999861-4.011699999999109,6.406199999989894-5.242200000000594,2.52390000000014-1.228499999999258,5.338900000010199-1.843799999998737,8.44530000001032-1.843799999998737,3.494699999999739,0,6.487299999989773.753499999998894,8.978999999999814,2.257900000000518,2.490800000000036,1.506799999999203,4.383299999989958,3.828599999998914,5.678699999999935,6.968199999999342h.38819999999032v-8.061000000001513h7.765600000009727v48.438000000001921ZM261.895959566680176,407.620561018571607c1.747600000009697,0,3.397500000010041-.227500000000873,4.950700000009874-.682600000000093,1.553199999989829-.454600000000937,2.895499999990079-1.122600000002421,4.02829999998994-2.000500000001921,1.13189999999986-.876899999999296,2.03859999999986-1.950699999997596,2.718299999999999-3.217799999998533.679200000010042-1.26850000000195,1.019000000000233-2.748999999999796,1.019000000000233-4.439900000001217v-18.634799999999814c0-1.365200000000186-.324199999990014-2.649900000000343-.970699999990302-3.85399999999936-.647399999999834-1.20260000000053-1.553200000009838-2.226500000000669-2.717800000009902-3.072700000000623-1.164999999989959-.844699999999648-2.52390000000014-1.511200000000827-4.077099999989969-1.999499999998079-1.553199999999833-.488300000000891-3.203100000000177-.732500000001892-4.950700000009874-.732500000001892-4.40139999999019,0-7.896000000000186,1.398499999999331-10.48339999999007,4.195400000000518-2.589300000010098,2.796800000000076-3.88280000001032,6.406699999999546-3.88280000001032,10.829999999999927v8.584000000000742c0,4.422899999997753,1.293500000000222,8.03269999999975,3.88280000001032,10.83009999999922,2.587399999989884,2.796399999999267,6.08199999999988,4.194800000001123,10.48339999999007,4.194800000001123Z"/><path class="uuid-75c46809-7185-4d84-89f6-b69142393357" d="M329.747559566690143,405.286561018569046h-.388200000000325c-.518599999999878,1.15480000000025-1.149399999999787,2.291500000001179-1.892599999999675,3.412600000001476-.745100000000093,1.120600000000195-1.667000000009921,2.114299999999275-2.766599999999926,2.97860000000037-1.101500000000215.865200000000186-2.426700000000437,1.55370000000039-3.980000000000018,2.066399999999703-1.553200000000288.51220000000103-3.365700000000288.768499999998312-5.436000000000149.768499999998312-5.178199999999833,0-9.287100000010014-1.664999999997235-12.328100000000177-4.998999999999796-3.042500000010023-3.332499999998618-4.5625-8.039999999997235-4.5625-14.123999999999796v-32.129899999999907h7.765600000000177v30.837900000002264c0,9.015099999998711,3.817899999990004,13.522899999999936,11.454600000000028,13.522899999999936,1.553199999999833,0,3.057600000000093-.19380000000092,4.513699999999972-.584000000002561,1.455999999990127-.388100000000122,2.75-.972099999999045,3.882799999999861-1.75,1.131800000000112-.778299999998126,2.038499999990108-1.766999999999825,2.718200000000252-2.967199999999139.679699999999684-1.199300000000221,1.01909999999998-2.643099999999322,1.01909999999998-4.33009999999922v-34.729500000001281h7.765599999999722v50.087900000002264h-7.765599999999722v-8.061100000002625Z"/><path class="uuid-75c46809-7185-4d84-89f6-b69142393357" d="M357.897459566690031,351.51366101856911c-1.683599999999842,0-2.896999999999935-.403299999998126-3.640199999999822-1.213399999998728-.744599999999991-.808100000000195-1.116200000010394-1.858900000001086-1.116200000010394-3.154799999998431v-1.261700000002747c0-1.293899999998757.371600000010403-2.34519999999975,1.116200000010394-3.155299999998533.743199999999888-.808600000000297,1.95659999999998-1.213299999999435,3.640199999999822-1.213299999999435,1.682099999999991,0,2.895500000000084.404699999999139,3.640100000000075,1.213299999999435.743199999989884.810099999998783,1.116199999989931,1.861399999999776,1.116199999989931,3.155299999998533v1.261700000002747c0,1.295899999997346-.373000000000047,2.346699999998236-1.116199999989931,3.154799999998431-.744599999999991.810100000000602-1.958000000000084,1.213399999998728-3.640100000000075,1.213399999998728ZM354.01465956669017,363.259761018569407h7.765599999999722v50.087900000002264h-7.765599999999722v-50.087900000002264Z"/><path class="uuid-75c46809-7185-4d84-89f6-b69142393357" d="M393.328559566679814,414.512661018568906c-4.659099999999853,0-8.55909999998994-.890099999996892-11.697199999989607-2.668899999996938-3.139700000000175-1.779300000001967-5.840900000000147-4.158200000001671-8.105500000010124-7.134800000001633l5.533200000009856-4.465799999999945c1.941400000000158,2.459899999999834,4.108900000000176,4.352500000000873,6.503900000000158,5.67870000000039,2.393599999999878,1.327099999998609,5.17679999999973,1.990200000000186,8.348199999999906,1.990200000000186,3.300199999990127,0,5.872499999989941-.711900000000242,7.716699999999946-2.135700000000725,1.84479999999985-1.422899999999572,2.766599999999926-3.429699999998775,2.766599999999926-6.018600000001243,0-1.941399999999703-.630799999999908-3.606399999998757-1.892500000009932-4.998999999999796-1.262199999990116-1.390599999998813-3.543499999999767-2.344699999997829-6.843799999990097-2.863299999997253l-3.980000000000018-.583000000002357c-2.329499999999825-.323199999998906-4.465299999999843-.824699999999211-6.406700000000001-1.503899999999703-1.941399999999703-.680199999998877-3.64009999999962-1.585399999999936-5.096199999999953-2.718199999999342-1.456000000009681-1.131400000000212-2.588900000009744-2.539600000000064-3.397500000010041-4.223200000000361-.809999999989941-1.681599999999889-1.21329999999989-3.688500000000204-1.21329999999989-6.01759999999922,0-2.459000000000742.452100000009978-4.611300000000483,1.358900000010181-6.455000000001746.905699999999797-1.844799999998941,2.15079999999989-3.381900000000314,3.737299999989773-4.611399999997957,1.584900000010293-1.228500000001077,3.47800000001007-2.150900000000547,5.678699999999935-2.766600000000835,2.199200000000019-.614199999999983,4.5625-.921899999999368,7.086400000010144-.921899999999368,4.076700000000073,0,7.489300000000185.712400000000343,10.240699999999833,2.135299999998097,2.75,1.424300000002404,5.160200000000259,3.397500000002765,7.231999999999971,5.921400000001086l-5.145099999999729,4.659200000000055c-1.101000000000113-1.552800000001298-2.717700000010154-2.959999999999127-4.853500000010172-4.22269999999844-2.135199999989709-1.261700000002747-4.821300000000065-1.892600000002858-8.056599999999889-1.892600000002858-3.236799999990126,0-5.678699999999935.695800000001327-7.329099999989921,2.086900000002061-1.649899999999889,1.392100000000937-2.475100000000111,3.28519999999844-2.475100000000111,5.678799999997864,0,2.459900000001653.825200000000223,4.239200000001802,2.475100000000111,5.338800000001356,1.650399999989986,1.101599999999962,4.028800000000047,1.909200000000055,7.134699999990062,2.426800000001094l3.882900000000063.581999999998516c5.564900000009857.841800000001967,9.513100000009672,2.444299999999203,11.8427000000097,4.805200000000696,2.329600000000028,2.363299999999072,3.494700000000194,5.452599999998711,3.494700000000194,9.270500000000538,0,4.853499999999258-1.650399999999991,8.67239999999947-4.95069999999987,11.454599999999118-3.300300000000334,2.783199999999852-7.831100000010338,4.173799999998664-13.589900000010402,4.173799999998664Z"/><path class="uuid-75c46809-7185-4d84-89f6-b69142393357" d="M435.943859566690207,413.347661018571671c-2.717800000010357,0-4.773000000000138-.757800000001225-6.164100000010421-2.274900000000343-1.392099999989568-1.516600000000835-2.086899999989782-3.50340000000142-2.086899999989782-5.957500000000437v-34.963900000000649h-8.251000000000204v-6.891600000000835h4.659200000000055c1.682099999999991,0,2.830600000000231-.340299999999843,3.446300000000065-1.020000000000437.614199999999983-.679199999998673.921899999990273-1.859399999997549.921899999990273-3.542999999997846v-9.318900000002031h6.989199999999983v13.881900000000314h10.969300000009753v6.891600000000835h-10.969300000009753v36.304699999998775h10.192399999999907v6.891600000002654h-9.706999999989876Z"/><path class="uuid-75c46809-7185-4d84-89f6-b69142393357" d="M462.832459566679972,351.51366101856911c-1.683599999999842,0-2.896900000000187-.403299999998126-3.640100000000075-1.213399999998728-.744599999999991-.808100000000195-1.116699999990033-1.858900000001086-1.116699999990033-3.154799999998431v-1.261700000002747c0-1.293899999998757.372099999990041-2.34519999999975,1.116699999990033-3.155299999998533.743199999999888-.808600000000297,1.956500000000233-1.213299999999435,3.640100000000075-1.213299999999435,1.682200000010198,0,2.895500000010088.404699999999139,3.640200000009827,1.213299999999435.743099999990136.810099999998783,1.11620000000039,1.861399999999776,1.11620000000039,3.155299999998533v1.261700000002747c0,1.295899999997346-.373100000010254,2.346699999998236-1.11620000000039,3.154799999998431-.744699999999739.810100000000602-1.957999999999629,1.213399999998728-3.640200000009827,1.213399999998728ZM458.949659566690116,363.259761018569407h7.765599999989718v50.087900000002264h-7.765599999989718v-50.087900000002264Z"/><path class="uuid-75c46809-7185-4d84-89f6-b69142393357" d="M501.854959566690013,414.512661018568906c-3.494599999999991,0-6.634300000000167-.615699999998469-9.416000000000167-1.843699999997625-2.783200000009856-1.22899999999936-5.129400000009809-2.976600000001781-7.037599999999657-5.242200000000594-1.909700000000157-2.264699999999721-3.365700000010293-5.014699999999721-4.368200000000343-8.251000000000204-1.003899999999703-3.235400000001391-1.504400000009809-6.859400000001187-1.504400000009809-10.872100000000501,0-4.011699999999109.500500000010106-7.635699999998906,1.504400000009809-10.871999999999389,1.00249999999005-3.235400000001391,2.458500000000186-5.985400000001391,4.368200000000343-8.251000000000204,1.908199999989847-2.264699999999721,4.254399999989801-4.011699999999109,7.037599999999657-5.242200000000594,2.781700000000001-1.228499999999258,5.921400000000176-1.843799999998737,9.416000000000167-1.843799999998737,4.982399999989866,0,8.978999999999814,1.083999999998923,11.988299999989977,3.251000000000204,3.009300000010171,2.169499999999971,5.257300000010218,5,6.746600000009948,8.494199999999182l-6.503900000000158,3.300699999999779c-.906799999999748-2.587799999999334-2.395099999999729-4.594699999999648-4.46539999999959-6.018500000000131-2.071800000010171-1.422899999999572-4.65920000001006-2.135800000000017-7.765600000000177-2.135800000000017-2.329600000000028,0-4.368199999999888.373100000000704-6.115699999999833,1.116300000001502-1.74710000001005.744599999998172-3.203100000000177,1.781199999997625-4.368200000010347,3.106399999998757-1.164499999989857,1.32720000000154-2.03859999999986,2.912099999999555-2.620599999989736,4.756400000000212-.582499999999982,1.84519999999975-.874000000000251,3.867600000001403-.874000000000251,6.066800000000512v8.541999999999462c0,4.402400000000853,1.180200000000241,8.008800000001429,3.54340000000002,10.823800000000119,2.361400000000231,2.815399999999499,5.839400000000296,4.222600000000966,10.435100000000148,4.222600000000966,6.276400000000194,0,10.806599999999889-2.911600000001272,13.589800000000196-8.736300000000483l5.630400000000009,3.785599999999249c-1.618200000000343,3.625-4.028300000000399,6.503899999999703-7.231900000010228,8.639699999999721-3.203099999990172,2.135200000000623-7.199699999990116,3.203099999998813-11.988299999989977,3.203099999998813Z"/><path class="uuid-75c46809-7185-4d84-89f6-b69142393357" d="M547.089359566679832,414.512661018568906c-4.659699999999702,0-8.55909999998994-.890099999996892-11.697299999989809-2.668899999996938-3.139599999999973-1.779300000001967-5.840799999999945-4.158200000001671-8.10550000000012-7.134800000001633l5.533200000000306-4.465799999999945c1.941399999999703,2.459899999999834,4.108899999989717,4.352500000000873,6.503899999999703,5.67870000000039,2.393100000000231,1.327099999998609,5.176299999990079,1.990200000000186,8.348199999999906,1.990200000000186,3.30029999999033,0,5.872599999990143-.711900000000242,7.716800000000148-2.135700000000725,1.844700000000103-1.422899999999572,2.766599999999926-3.429699999998775,2.766599999999926-6.018600000001243,0-1.941399999999703-.630900000000111-3.606399999998757-1.892599999999675-4.998999999999796-1.262200000000121-1.390599999998813-3.543400000010024-2.344699999997829-6.843700000000354-2.863299999997253l-3.980000000000018-.583000000002357c-2.329600000000028-.323199999998906-4.465299999999843-.824699999999211-6.406799999999748-1.503899999999703-1.941400000010162-.680199999998877-3.640100000000075-1.585399999999936-5.096100000000206-2.718199999999342-1.456099999999878-1.131400000000212-2.588900000009744-2.539600000000064-3.397500000000036-4.223200000000361-.810099999999693-1.681599999999889-1.213399999999638-3.688500000000204-1.213399999999638-6.01759999999922,0-2.459000000000742.452199999999721-4.611300000000483,1.358899999999721-6.455000000001746.905799999999999-1.844799999998941,2.150900000000092-3.381900000000314,3.737300000000232-4.611399999997957,1.585000000000036-1.228500000001077,3.477999999999611-2.150900000000547,5.678699999999935-2.766600000000835,2.199200000000019-.614199999999983,4.5625-.921899999999368,7.086399999999685-.921899999999368,4.076700000000073,0,7.489300000000185.712400000000343,10.240800000000036,2.135299999998097,2.75,1.424300000002404,5.160099999990052,3.397500000002765,7.231900000000223,5.921400000001086l-5.144999999999982,4.659200000000055c-1.10109999999986-1.552800000001298-2.717799999999897-2.959999999999127-4.853500000010172-4.22269999999844-2.135299999989911-1.261700000002747-4.821300000000065-1.892600000002858-8.056699999990087-1.892600000002858-3.23680000000968,0-5.678699999999935.695800000001327-7.32910000000993,2.086900000002061-1.649899999999889,1.392100000000937-2.475099999999657,3.28519999999844-2.475099999999657,5.678799999997864,0,2.459900000001653.825199999999768,4.239200000001802,2.475099999999657,5.338800000001356,1.650400000009995,1.101599999999962,4.028800000000047,1.909200000000055,7.134800000000268,2.426800000001094l3.882800000009865.581999999998516c5.564899999999852.841800000001967,9.51319999999987,2.444299999999203,11.842799999989893,4.805200000000696,2.329600000010032,2.363299999999072,3.494599999999991,5.452599999998711,3.494599999999991,9.270500000000538,0,4.853499999999258-1.650399999989986,8.67239999999947-4.950699999989865,11.454599999999118-3.300299999999879,2.783199999999852-7.831000000010135,4.173799999998664-13.5898000000102,4.173799999998664Z"/><path class="uuid-75c46809-7185-4d84-89f6-b69142393357" d="M134.346159566680399,530.998061018570297c-5.500999999990199,0-10.192400000000816-1.052800000001298-14.075199999990218-3.154299999998329-3.882800000000316-2.102600000001985-7.183600000000297-4.999500000001717-9.90139999999974-8.688500000000204l6.018599999999424-5.047900000001391c2.393100000000231,3.171900000001187,5.04740000000038,5.582099999999627,7.959499999999935,7.232500000000073,2.912100000000464,1.649899999998524,6.341800000000148,2.475100000001476,10.289999999999964,2.475100000001476,4.853500000000167,0,8.557099999999991-1.165100000001985,11.114300000000185-3.494700000002922,2.555599999989681-2.329999999998108,3.834399999989728-5.435999999997875,3.834399999989728-9.318799999997282,0-3.234900000001289-.970699999989847-5.727100000000064-2.91209999998955-7.474100000001272-1.941399999999703-1.748099999998885-5.145000000000437-3.138700000001336-9.609800000000178-4.174799999998868l-5.533199999999852-1.261800000000221c-6.21290000001045-1.422800000000279-10.954099999999926-3.574200000000928-14.221199999999953-6.455000000001746-3.268600000000333-2.878899999999703-4.901899999999841-6.940500000000611-4.901899999999841-12.182699999999386,0-2.975499999998647.548799999999574-5.629800000000614,1.649899999999434-7.95889999999963,1.100100000000566-2.33009999999922,2.636299999990115-4.271499999998923,4.610900000000584-5.82470000000103,1.973599999999351-1.553299999999581,4.334899999999834-2.733000000000175,7.08639999999923-3.543499999999767,2.75-.808600000000297,5.775900000000547-1.213400000000547,9.076200000000426-1.213400000000547,5.111299999999574,0,9.496100000000297.939000000002125,13.153299999999945,2.815400000001318,3.655300000000352,1.877500000000509,6.746100000000297,4.627500000000509,9.269999999990432,8.250999999998385l-6.115199999990182,4.465400000000955c-1.878000000000611-2.587899999998626-4.14260000000013-4.626000000000204-6.795000000000073-6.115799999999581-2.654300000000148-1.48779999999897-5.954999999999927-2.232899999999063-9.901300000010451-2.232899999999063-4.33639999999923,0-7.750499999990097.922899999997753-10.241199999989476,2.766599999999016-2.491700000000492,1.844799999998941-3.737299999999777,4.611400000001595-3.737299999999777,8.299800000000687,0,3.236799999998766,1.051199999999881,5.67870000000039,3.155199999989236,7.328600000000733,2.102100000000064,1.650399999998626,5.29010000001017,2.961499999997613,9.561600000010003,3.932199999999284l5.532700000000659,1.261699999999109c6.664499999999862,1.489199999999983,11.486299999999574,3.753899999999703,14.463399999999638,6.79490000000078,2.975999999989654,3.041999999999462,4.465299999999843,7.085899999998219,4.465299999999843,12.13379999999961,0,3.106400000000576-.533699999999953,5.920900000000984-1.601599999999962,8.445299999999406-1.067799999999806,2.523499999999331-2.605899999999565,4.659200000001874-4.610799999999472,6.406300000000556-2.006900000000314,1.747499999999491-4.450200000000223,3.106399999998757-7.328600000010738,4.077100000000428-2.880399999990004.970699999998033-6.132399999989502,1.456099999999424-9.755899999999201,1.456099999999424Z"/><path class="uuid-75c46809-7185-4d84-89f6-b69142393357" d="M189.870059566679629,530.998061018570297c-3.365699999989374,0-6.439899999989393-.615799999999581-9.221599999989849-1.844300000000658-2.783199999999852-1.227999999999156-5.161699999999655-2.992599999997765-7.134799999999814-5.290499999999156-1.974599999999555-2.295900000000984-3.511199999999917-5.04739999999947-4.610900000009678-8.251000000000204-1.100999999990563-3.203099999998813-1.649899999990339-6.810499999999593-1.649899999990339-10.823199999998906,0-3.94629999999961.548899999999776-7.538100000001577,1.649899999990339-10.775400000002264,1.099700000009761-3.234399999997549,2.636300000010124-6.001999999998588,4.610900000009678-8.299299999998766,1.973100000000159-2.296399999999267,4.351599999999962-4.060099999998783,7.134799999999814-5.290600000000268,2.781700000000455-1.228500000001077,5.855900000000474-1.843699999999444,9.221599999989849-1.843699999999444,3.364300000010189,0,6.421900000010282.615199999998367,9.173400000010588,1.843699999999444,2.75,1.230500000001484,5.128399999999601,2.994200000001001,7.134699999999611,5.290600000000268,2.005399999990004,2.297300000000178,3.558600000000297,5.064900000001217,4.659700000000157,8.299299999998766,1.099599999990005,3.237300000000687,1.649899999999889,6.829100000002654,1.649899999999889,10.775400000002264,0,4.012699999999313-.550300000009884,7.620100000000093-1.649899999999889,10.823199999998906-1.10109999999986,3.203600000000733-2.654300000010153,5.95509999999922-4.659700000000157,8.251000000000204-2.00630000000001,2.297900000001391-4.384699999999611,4.0625-7.134699999999611,5.290499999999156-2.751500000000306,1.228500000001077-5.809100000000399,1.844300000000658-9.173400000010588,1.844300000000658ZM189.870059566679629,524.10596101856936c4.206100000010338,0,7.63530000000992-1.293499999999767,10.289600000000519-3.882799999999406,2.652799999999843-2.587400000000343,3.980000000010023-6.535700000000361,3.980000000010023-11.84230000000025v-7.183600000000297c0-5.305699999998978-1.32720000001018-9.253899999999703-3.980000000010023-11.842799999998533-2.654299999990599-2.587400000000343-6.083499999990181-3.882799999999406-10.289600000000519-3.882799999999406-4.206999999989421,0-7.636699999990014,1.295399999999063-10.289499999989857,3.882799999999406-2.654300000000148,2.58889999999883-3.979999999999563,6.537099999999555-3.979999999999563,11.842799999998533v7.183600000000297c0,5.306599999999889,1.325699999999415,9.254899999999907,3.979999999999563,11.84230000000025,2.652799999999843,2.589299999999639,6.082500000000437,3.882799999999406,10.289499999989857,3.882799999999406Z"/><path class="uuid-75c46809-7185-4d84-89f6-b69142393357" d="M243.938459566680194,530.998061018570297c-3.494100000000344,0-6.633800000000065-.615799999999581-9.415499999990061-1.844300000000658-2.783200000000306-1.227999999999156-5.129899999999907-2.975999999998749-7.037600000000111-5.241699999998673-1.909700000000157-2.264600000000428-3.365800000000036-5.014600000000428-4.368200000009892-8.250899999999092-1.004399999990255-3.235400000001391-1.504899999999907-6.859400000001187-1.504899999999907-10.872100000000501,0-4.011700000000928.500500000009652-7.635800000000017,1.504899999999907-10.872100000000501,1.002400000009857-3.235300000000279,2.458500000009735-5.985300000000279,4.368200000009892-8.251000000000204,1.907700000000204-2.264600000000428,4.254399999999805-4.011699999999109,7.037600000000111-5.242200000000594,2.781699999989996-1.228500000001077,5.921399999989717-1.843699999999444,9.415499999990061-1.843699999999444,4.982400000009875,0,8.979000000009819,1.084000000000742,11.988800000009633,3.251500000000306,3.008800000000065,2.169399999998859,5.256800000000112,4.999499999998079,6.746100000000297,8.493599999999788l-6.503500000000258,3.300799999999072c-.907199999999648-2.587899999998626-2.395500000000084-4.594699999997829-4.465799999999945-6.018599999999424-2.071300000000065-1.422800000000279-4.659200000000055-2.135699999998906-7.765600000009727-2.135699999998906-2.329099999990376,0-4.368199999990338.372999999999593-6.115200000000186,1.11620000000039-1.747099999990041.745100000000093-3.203199999999924,1.780799999998635-4.368199999989884,3.10649999999805-1.164999999999964,1.327100000000428-2.038600000000315,2.912100000001374-2.621100000000297,4.75630000000092-.582000000009884,1.844699999999648-.873499999999694,3.867699999998877-.873499999999694,6.066899999999805v8.542999999999665c0,4.401300000001356,1.180100000000039,8.007799999999406,3.542899999999918,10.823199999998906,2.361899999999878,2.815000000002328,5.839399999999841,4.222200000000157,10.435099999990143,4.222200000000157,6.276400000009744,0,10.806599999999889-2.912099999997736,13.589800000009745-8.736399999997957l5.630399999990004,3.785700000000361c-1.618199999989884,3.625-4.02829999998994,6.503899999999703-7.231399999990117,8.639599999998609-3.203599999999824,2.135299999999916-7.200200000009772,3.203199999999924-11.988800000009633,3.203199999999924Z"/><path class="uuid-75c46809-7185-4d84-89f6-b69142393357" d="M278.009759566689809,467.998961018569389c-1.683599999999842,0-2.896999999999935-.403299999998126-3.640199999999822-1.212799999997515-.744600000009996-.809100000002218-1.116199999999935-1.859900000001289-1.116199999999935-3.155300000002171v-1.261699999999109c0-1.293999999999869.37159999998994-2.345300000000861,1.116199999999935-3.155300000000352.743199999999888-.808599999998478,1.95659999999998-1.212900000000445,3.640199999999822-1.212900000000445,1.682099999999991,0,2.895500000000084.404300000001967,3.640099999990071,1.212900000000445.743200000010347.809999999999491,1.116199999999935,1.861300000000483,1.116199999999935,3.155300000000352v1.261699999999109c0,1.295400000000882-.372999999989588,2.346199999999953-1.116199999999935,3.155300000002171-.744599999989987.809499999999389-1.957999999990079,1.212799999997515-3.640099999990071,1.212799999997515ZM274.126959566679943,479.744561018571403h7.765600000010181v50.088400000000547h-7.765600000010181v-50.088400000000547Z"/><path class="uuid-75c46809-7185-4d84-89f6-b69142393357" d="M317.226559566689957,530.998061018570297c-3.430699999999888,0-6.520500000000084-.615799999999581-9.270500000000084-1.844300000000658-2.750999999999749-1.227999999999156-5.112800000009884-2.992599999997765-7.08600000000979-5.290499999999156-1.975100000000111-2.295900000000984-3.494599999989987-5.04739999999947-4.5625-8.251000000000204-1.067799999990257-3.203099999998813-1.60149999999021-6.810499999999593-1.60149999999021-10.823199999998906,0-3.94629999999961.533699999999953-7.538100000001577,1.60149999999021-10.775400000002264,1.067900000010013-3.234399999997549,2.587399999999889-6.001999999998588,4.5625-8.299299999998766,1.973199999999906-2.296399999999267,4.335000000010041-4.060099999998783,7.08600000000979-5.290600000000268,2.75-1.228500000001077,5.839800000000196-1.843699999999444,9.270500000000084-1.843699999999444,3.364199999999983,0,6.373000000000047.612299999998868,9.027300000000196,1.837900000000445,2.653299999999945,1.225599999997939,4.917500000000018,2.91990000000078,6.794899999989866,5.079600000000937,1.876500000009855,2.159599999999045,3.316000000009808,4.723099999999249,4.319900000009966,7.689899999997579,1.002399999989848,2.966800000001967,1.504899999999907,6.223200000000361,1.504899999999907,9.769100000001345v3.677199999998265h-36.013699999999972v2.329100000002654c0,2.135800000000017.339800000000196,4.125499999998283,1.01949999999988,5.97019999999975.679199999990033,1.844299999998839,1.649900000000343,3.445799999997689,2.912100000000009,4.804699999998775,1.261700000000019,1.358900000001086,2.815000000000055,2.426799999999275,4.659200000000055,3.203599999998914,1.844200000000001.776400000002468,3.931600000000344,1.164600000000064,6.261199999999917,1.164600000000064,3.169999999990068,0,5.936599999999999-.743199999998978,8.29930000000013-2.232399999998961,2.361899999989873-1.487800000000789,4.189499999999953-3.623600000000806,5.484899999989921-6.406799999998839l5.533200000010311,4.00539999999819c-1.618600000010247,3.45260000000053-4.14260000000013,6.2358000000022-7.571800000010171,8.351600000001781-3.431099999989783,2.115699999998469-7.507799999989857,3.174299999998766-12.230899999990015,3.174299999998766ZM317.226559566689957,485.083461018570233c-2.135800000000017,0-4.077200000000175.370100000000093-5.824200000000019,1.110400000001391-1.747600000010152.740699999998469-3.251999999999953,1.785099999997328-4.513699999999972,3.135199999998804-1.262200000000121,1.349599999999555-2.249499999999898,2.942399999999907-2.960900000000038,4.774400000000242-.712899999999991,1.83350000000064-1.067900000000009,3.843300000000454-1.067900000000009,6.030299999998533v.674800000000687h27.665500000000065v-1.061499999999796c0-4.4375-1.213400000000092-7.989799999999377-3.640100000000075-10.659199999998236-2.426800000009735-2.668900000000576-5.646999999999935-4.004400000001624-9.658699999999953-4.004400000001624Z"/><path class="uuid-75c46809-7185-4d84-89f6-b69142393357" d="M362.75245956669005,529.83296101857195c-2.717800000009902,0-4.773000000000138-.757800000001225-6.164100000009967-2.274400000002061-1.392099999990023-1.517100000000937-2.086899999990237-3.503899999999703-2.086899999990237-5.957999999998719v-34.963900000000649h-8.250999999999749v-6.892099999999118h4.659199999990051c1.682100000009996,0,2.830600000009781-.33980000000156,3.446300000010069-1.019500000002154.614199999999983-.679199999998673.921799999989616-1.858899999999267.921799999989616-3.542499999999563v-9.319299999999203h6.989300000010189v13.88130000000092h10.969199999989996v6.892099999999118h-10.969199999989996v36.304699999998775h10.192399999999907v6.891600000002654h-9.70699999999988Z"/><path class="uuid-75c46809-7185-4d84-89f6-b69142393357" d="M416.626459566689846,479.744561018571403h7.668900000000122l-22.423300000009931,61.737399999998161c-.582499999999982,1.487699999999677-1.165099999990161,2.732900000000882-1.747599999990143,3.736800000000585-.58199999999988,1.002899999999499-1.29489999999987,1.796399999999267-2.135199999999713,2.378399999999601-.841800000000148.582500000000437-1.893100000010236,1.003399999999601-3.15480000000025,1.262199999999211-1.262200000000121.257800000001225-2.799800000009782.388200000001234-4.610799999999927.388200000001234h-3.980000000000018v-6.892100000000937h7.862799999999879l3.785600000000159-10.661099999999351-18.734899999999925-51.949799999998504h7.765699999999924l12.037100000000009,34.006399999998393,2.329599999990023,8.139200000001438h.485299999999825l2.717800000009902-8.139200000001438,12.133800000000065-34.006399999998393Z"/><path class="uuid-75c46809-7185-4d84-89f6-b69142393357" d="M132.3662109375,624.746067187499648l-2.416015625-7.6787109375h-10.69775390625l-2.37255859375,7.6787109375h-5.7802734375l10.09423828125-30.109375h7.07421875l10.0078125,30.109375h-5.90966796875ZM124.68798828125,599.812473437499648h-.2158203125l-3.83935546875,12.380859375h7.93701171875l-3.8818359375-12.380859375Z"/><path class="uuid-75c46809-7185-4d84-89f6-b69142393357" d="M161.82763671875,624.746067187499648l-2.416015625-7.6787109375h-10.69775390625l-2.37255859375,7.6787109375h-5.7802734375l10.09423828125-30.109375h7.07421875l10.0078125,30.109375h-5.90966796875ZM154.14892578125,599.812473437499648h-.21533203125l-3.83935546875,12.380859375h7.93701171875l-3.88232421875-12.380859375Z"/></g></svg>