<?xml version="1.0" encoding="UTF-8"?><svg id="uuid-a69b9a1d-e452-4c65-8889-94041805fe44" xmlns="http://www.w3.org/2000/svg" width="223.375181367463682mm" height="249.770786928141206mm" xmlns:xlink="http://www.w3.org/1999/xlink" viewBox="0 0 633.189500000000407 708.011690114613884"><defs><style>.uuid-1d800fa5-66cb-4512-a73f-0c57db2f63cd{clip-path:url(#uuid-7922e6c0-e956-4e7a-b292-12b75c104cfb);}.uuid-d90f696b-ddcb-43b9-a22d-0bdcd05df1cf{fill:none;}.uuid-27421f1a-d75d-44ca-8dfd-ab61d75d5649{fill:#a39b4b;}</style><clipPath id="uuid-7922e6c0-e956-4e7a-b292-12b75c104cfb"><rect class="uuid-d90f696b-ddcb-43b9-a22d-0bdcd05df1cf" y="-.001999999949476" width="633.189500000000407" height="708.01369011456336"/></clipPath></defs><g class="uuid-1d800fa5-66cb-4512-a73f-0c57db2f63cd"><path class="uuid-27421f1a-d75d-44ca-8dfd-ab61d75d5649" d="M79.222700000000259,135.785196569777327c-4.552800000000389,10.763599728088593-7.259799999999814,22.072199442409328-8.08600000000024,33.712799148343038,1.79489999999987-1.460899963094562,4.08010000000013-2.33979994089168,6.568400000000111-2.33979994089168,2.747999999999593,0,5.244099999999889,1.078099972764903,7.109400000000278,2.818399928801227,3.667899999999463-47.796898792548745,43.611299999999574-85.435597841715207,92.35149999999976-85.435597841715207,3.775399999999536,0,6.83600000000024-3.062507749699762,6.83600000000024-6.837899827260117,0-3.777299904577376-3.060600000000704-6.837899827260117-6.83600000000024-6.837899827260117-14.345699999999852,0-28.269500000000335,2.812499928950274-41.384800000000723,8.359399788822884-12.658199999999852,5.3554998647096-24.025299999999334,13.015599671199197-33.783199999999852,22.775399424645002-9.759699999999611,9.757799753498148-17.421800000000076,21.124999466338522-22.775299999999334,33.785199146514969Z"/><path class="uuid-27421f1a-d75d-44ca-8dfd-ab61d75d5649" d="M169.595699999999852,269.484393192251446c-47.478500000000167-3.841799902947969-84.837899999999536-43.482398901543093-85.052700000000186-91.898497678448621,0-3.775405399188458-3.060599999999795-6.837899827260117-6.837899999999536-6.837899827260117-3.775400000000445,0-6.837900000000445,3.062494428071659-6.837900000000445,6.837899827260117.054700000000594,14.197299641346035,2.861300000000483,27.97659460081195,8.355500000000575,40.962898965190107,5.353499999999258,12.660199680176447,13.015599999999722,24.027399393016822,22.775299999999334,33.78519914651406,9.757900000000518,9.75969975344924,21.125,17.421899559885787,33.783199999999852,22.777299424597004,10.629000000000815,4.494197064510445,21.787200000000666,7.193399818279431,33.271500000000742,8.054699796521163-1.443299999999908-1.788999954806059-2.314400000000205-4.060502732010718-2.314400000000205-6.533199834957486,0-2.767599930084543,1.091800000000148-5.27930289705273,2.85739999999987-7.148399819416227Z"/><path class="uuid-27421f1a-d75d-44ca-8dfd-ab61d75d5649" d="M251.265599999999722,243.705093843491341c-1.333999999999833-1.333999966300325-3.083999999999833-2.001999949425226-4.833999999999833-2.001999949425226s-3.5.667999983124901-4.835900000000038,2.001999949425226c-16.671899999999368,16.146499592105101-39.388699999999517,26.089799340916215-64.429699999999684,26.089799340916215-3.77730000000065,0-6.837900000000445,3.060596930206884-6.837900000000445,6.837899827260117,0,3.775399904625374,3.060599999999795,6.837899827260117,6.837900000000445,6.837899827260117,14.343799999999646,0,28.265599999999722-2.812499928950274,41.380900000000111-8.359399788823794,12.20510000000013-5.162099869594385,23.201099999999315-12.474599684865098,32.718699999999444-21.7342994509454,2.671900000000278-2.669999932550127,2.671900000000278-6.999999823165126,0-9.671899755667255Z"/><path class="uuid-27421f1a-d75d-44ca-8dfd-ab61d75d5649" d="M177.170900000000074,70.861298209892993c-14.349600000000464,0-28.269500000000335,2.820299928753229-41.38970000000063,8.360399788798532-12.660099999999147,5.360299864587432-24.03019999999924,13.019499671098856-33.78019999999924,22.780299424521218-9.759799999999814,9.75969975344924-17.41989999999987,21.120099466461397-22.780300000000352,33.779199146665633-4.549799999999777,10.770599727911758-7.259799999999814,22.080099442209757-8.08010000000013,33.720799148140941,1.790100000000166-1.459999963117298,4.08010000000013-2.339899940889154,6.560599999999795-2.339899940889154,2.75,0,5.25,1.06929997298721,7.109300000000076,2.809599929023534,3.670900000000074-47.790098792720528,43.610400000000482-85.429697841864254,92.360400000000482-85.429697841864254,3.770499999999629,0,6.83010000000013-3.060599922682741,6.83010000000013-6.840799827186856,0-3.779299904526852-3.059600000000501-6.839899827209592-6.83010000000013-6.839899827209592ZM169.590799999999945,269.481393192327232c-47.469699999999648-3.839799902998493-84.83010000000013-43.479398901618879-85.049799999999777-91.899397678425885,0-3.770505399286776-3.059600000000501-6.829999827459687-6.83980000000065-6.829999827459687-3.770499999999629,0-6.83009999999922,3.059494428172911-6.83009999999922,6.829999827459687.049799999999777,14.199199641298037,2.86029999999937,27.979494600713224,8.349599999999555,40.969798965015798,5.360400000000482,12.660099680178973,13.020500000000538,24.019499393216392,22.780300000000352,33.780199146640371,9.75,9.759799753446714,21.120100000000093,17.419999559934695,33.78019999999924,22.77929942454648,10.629900000000816,4.490299886565481,21.790100000000166,7.190499818352691,33.269600000000537,8.050799796619685-1.439499999999498-1.780299955025839-2.309599999999591-4.060499897423142-2.309599999999591-6.530299835030746,0-2.770499930011283,1.089899999999943-5.280199866610928,2.849599999999555-7.150399819365703ZM251.260699999999815,243.701193843589863c-1.329999999999927-1.32909996642411-3.079999999999927-1.99999994947575-4.829999999999927-1.99999994947575s-3.5.67089998305164-4.839899999999943,1.99999994947575c-16.66989999999987,16.150399592006579-39.379899999999907,26.090799340890953-64.41989999999987,26.090799340890953-3.780300000000352,0-6.839799999999741,3.059599922708003-6.839799999999741,6.839799827212119,0,3.780299904501589,3.059499999999389,6.839899827209592,6.839799999999741,6.839899827209592,14.339799999999741,0,28.259799999999814-2.809599929023534,41.379899999999907-8.360399788798532,12.200200000000223-5.16009986964491,23.200200000000223-12.469699684988882,32.709899999999834-21.729499451066658,2.680699999999888-2.669899932552653,2.680699999999888-6.999999823165126,0-9.680599755447474Z"/><path class="uuid-27421f1a-d75d-44ca-8dfd-ab61d75d5649" d="M233.460900000000038,120.872096946513921c-15.039999999999964-15.030299620302685-35.03020000000015-23.310606831899349-56.289999999999964-23.310606831899349-21.269500000000335,0-41.259799999999814,8.280307211596664-56.299799999999777,23.310606831899349-15.039999999999964,15.039999620057642-23.320300000000316,35.02929911508545-23.320300000000316,56.299798577747424,0,21.259699462934805,8.280300000000352,41.24999895793735,23.320300000000316,56.289998577994993,15.039999999999964,15.029299620327038,35.030299999999443,23.319299410904023,56.299799999999777,23.319299410904023,21.259799999999814,0,41.25-8.289999790576985,56.289999999999964-23.319299410904023,15.040100000000166-15.039999620057642,23.310599999999795-35.030299115060188,23.310599999999795-56.289998577994993,0-21.270499462661974-8.270499999999629-41.259798957689782-23.310599999999795-56.299798577747424ZM132.231399999999667,155.231396078524995h-6.480399999999463v43.870198891745531h6.480399999999463v3.810499903738673h-11.170900000000074v-51.49019869924814h11.170900000000074v3.809499903763935ZM141.041000000000167,202.912094874009199v-36.360299081461562c0-3.139699920684507-.049799999999777-5.969799849190167-.160100000000057-8.520599784751539-.109400000000278-2.539999935834203-.269599999999627-4.739199880277738-.479500000000371-6.609299833035038h6.599600000000464v36.209899085260986c0,1.019599974242738.009699999999611,2.240299943405262.039999999999964,3.629899908301013.030299999999443,1.40039996462292.08010000000013,2.809599929023534.129899999999907,4.249999892635969.060499999999593,1.439499963635171.120100000000093,2.809599929023534.190400000000409,4.120099895917519.08009999999922,1.309599966915812.169899999998961,2.399399939386058.279299999999239,3.280299917132652h-6.599599999999555ZM175.800799999999981,174.301795596766169h-6.049799999999777v24.399399383619311h6.049799999999777v4.210899893623719h-18.019600000000537v-4.210899893623719h5.950200000000223v-24.399399383619311h-5.950200000000223v-4.209999893646454h18.019600000000537v4.209999893646454ZM213.930699999999888,199.372094963437121c0,3.629899908301013-.309599999999591,6.639599832269596-.949300000000221,9.029299771900696-.630799999999908,2.390599939608364-1.510699999999815,4.299799891377916-2.650299999999334,5.73039985523792-1.13970000000063,1.419999964127783-2.509800000000723,2.429695524038834-4.099700000000666,3.019599923718488-1.600499999999556.589799985100399-3.380799999999908.890599977501552-5.329999999999927.890599977501552-.970699999999852,0-2-.160199995953008-3.110399999999572-.470699988109118-1.099600000000464-.309599992178846-2.099600000000464-.739299981323711-3-1.299804389072051l2.089899999999943-4.83009545607365c.490200000000186.36039999089553,1.150299999999334.669899983076903,1.980400000000373.919899976761371.819399999999405.240299993929511,1.66019999999935.370099990650488,2.519599999999627.370099990650488,1.03020000000015,0,1.950200000000223-.169904511338245,2.770499999999629-.499999987368938.819300000000112-.329999991663499,1.509700000000521-.919904523969308,2.079999999999927-1.759699955546239.559600000000501-.83009997902991,1-1.980499949969271,1.299799999999777-3.44049991308566.299900000000889-1.459899963119824.450200000000223-3.309499916394998.450200000000223-5.569299859307648v-14.160099642285786c0-2.570399935066234-.140599999999722-4.660199882273446-.400299999999334-6.24999984211172-.270600000000741-1.600599959565443-.670000000000073-2.850599927987787-1.210000000000036-3.740305311632255-.539999999999964-.889594571406633-1.210000000000036-1.479494556504505-2.009799999999814-1.789999999999964-.810500000000502-.299794541087067-1.740200000000186-.450194537287643-2.820300000000316-.450194537287643-1.160100000000057,0-2.289999999999964.280299992919026-3.389600000000428.83009997902991-1.110399999999572.539999986358453-2.120200000000295,1.249999968422344-3.040099999999256,2.120094558257733-.930600000000595.870105366203461-1.740200000000186,1.850605341433948-2.450200000000223,2.940405313903284-.709900000000744,1.09959468609668-1.230400000000373,2.189499944688578-1.579999999999927,3.290099916885083v18.660099528606224h-5.950200000000223v-19.789999500062549c0-3.170899919896328-.179700000000594-5.860399851953844-.549799999999777-8.060605259332078-.360400000000482-2.200194481459221-.71979999999985-3.860294439520658-1.059600000000501-4.969694411494856h5.799799999999777c.120100000000093.33979999141593.25.780299980287964.379899999999907,1.330099966398848.129900000000816.549799986110884.25,1.120099971703894.359300000000076,1.719699956555814.100600000000668.599599984853739.200200000000223,1.190399969927967.280300000000352,1.770499955274317l.259799999999814,1.449199963390129c2.060500000000502-2.439399938376482,4.130799999999908-4.209899893648981,6.209899999999834-5.28999986636336,2.08010000000013-1.08989997246681,4.25-1.629899958825263,6.5-1.629899958825263,1.720699999999852,0,3.240300000000389.289999992673984,4.560600000000704.860399978264468,1.320299999999406.57029998559301,2.429699999999684,1.469694416799939,3.33009999999922,2.700199931787211.899400000000242,1.229399968942744,1.579999999999927,2.829999928508187,2.040000000000873,4.789999878995332.459999999999127,1.969699950240283.689499999999498,4.330099890611564.689499999999498,7.099599820648109v14.480499634191801ZM233.271499999999833,202.912094874009199h-11.16019999999935v-3.810499903738673h6.46979999999985v-43.870198891745531h-6.46979999999985v-3.809499903763935h11.16019999999935v51.49019869924814Z"/><path class="uuid-27421f1a-d75d-44ca-8dfd-ab61d75d5649" d="M107.457316347290543,426.158190114615536v-67.755400000000009h8.153799999999137v60.572299999999814h28.83010000000013v7.183100000000195h-36.983899999999267Z"/><path class="uuid-27421f1a-d75d-44ca-8dfd-ab61d75d5649" d="M159.195616347289615,364.324190114614794c-1.683599999999387,0-2.897399999999834-.403299999999945-3.640599999999722-1.213399999999638-.744599999999991-.808099999999286-1.11619999999948-1.858900000000176-1.11619999999948-3.154799999999341v-1.261700000000928c0-1.293899999999667.371599999999489-2.34519999999975,1.11619999999948-3.155300000000352.743199999999888-.808599999999387,1.957000000000335-1.213299999999435,3.640599999999722-1.213299999999435,1.681700000000092,0,2.895500000000538.404700000000048,3.64010000000053,1.213299999999435.743199999999888.810100000000602,1.116299999999683,1.861400000000685,1.116299999999683,3.155300000000352v1.261700000000928c0,1.295899999999165-.373099999999795,2.346700000000055-1.116299999999683,3.154799999999341-.744599999999991.810099999999693-1.958400000000438,1.213399999999638-3.64010000000053,1.213399999999638ZM155.312816347290209,376.070290114615091h7.765599999999722v50.087900000000445h-7.765599999999722v-50.087900000000445Z"/><path class="uuid-27421f1a-d75d-44ca-8dfd-ab61d75d5649" d="M179.580416347290338,426.158190114615536v-50.087900000000445h7.765599999999722v8.060999999999694h.388199999999415c1.228500000001077-2.817900000000009,2.960400000000845-5.060999999999694,5.193300000000818-6.72649999999976,2.233000000000175-1.665599999999358,5.225099999999657-2.4996000000001,8.97899999999936-2.4996000000001,5.176800000000185,0,9.270599999999831,1.667000000000371,12.27980000000025,4.999100000000908,3.009299999999712,3.333999999998923,4.513700000000426,8.041999999999462,4.513700000000426,14.123999999999796v32.129899999999907h-7.765600000000632v-30.837900000000445c0-9.015599999999722-3.785699999999451-13.523499999999331-11.35739999999987-13.523499999999331-1.553299999999581,0-3.057699999999386.195799999999508-4.514199999999619.583999999998923-1.456100000000333.38970000000063-2.766100000000733.973700000000463-3.93119999999999,1.752000000000407-1.164999999999964.778299999999945-2.086900000000242,1.766599999999926-2.766099999999824,2.966800000000148-.679700000000594,1.199200000000019-1.019500000000335,2.610300000000279-1.019500000000335,4.231400000000576v34.827199999999721h-7.765599999999722Z"/><path class="uuid-27421f1a-d75d-44ca-8dfd-ab61d75d5649" d="M274.514916347289727,424.508290114615193c0,6.923800000000483-1.941399999999703,12.359800000000178-5.824200000000019,16.307600000000093-3.882799999999406,3.946799999999712-9.351999999999862,5.92239999999947-16.40480000000025,5.92239999999947-4.077099999999518,0-7.588299999999435-.634799999999814-10.532199999999648-1.90139999999974-2.945299999999406-1.269499999999425-5.387200000000121-2.942399999999907-7.328599999999824-5.021999999999935l4.561999999999898-5.362799999999879c1.682099999999991,1.731999999999971,3.623599999999897,3.0649999999996,5.824200000000019,3.996099999999387,2.199300000000221.931700000001001,4.756400000000212,1.397000000000844,7.668499999999767,1.397000000000844,4.529300000000148,0,8.040500000000065-1.251500000000306,10.532200000000557-3.752000000000407,2.490699999999379-2.504399999999805,3.737299999999777-6.192799999999806,3.737299999999777-11.067799999999806v-6.92830000000049h-.388200000000325c-1.489199999999983,3.075700000000325-3.430599999999686,5.381400000000212-5.824200000000019,6.918999999999869-2.394999999999527,1.53860000000077-5.338799999999537,2.307099999999991-8.833499999999731,2.307099999999991-3.106399999999667,0-5.921400000000176-.615699999999379-8.445300000000316-1.843699999999444-2.523400000000038-1.22899999999936-4.659200000000055-2.976599999999962-6.406199999999444-5.242200000000594-1.747600000000602-2.264699999999721-3.106499999999869-5.014699999999721-4.077199999999721-8.250999999999294-.970700000000761-3.235400000000482-1.456000000000131-6.859400000000278-1.456000000000131-10.872099999999591,0-4.011700000000928.48529999999937-7.635700000000725,1.456000000000131-10.872000000000298.970699999999852-3.235400000000482,2.329599999999118-5.985400000000482,4.077199999999721-8.251000000000204,1.746999999999389-2.26470000000063,3.882799999999406-4.011700000000019,6.406199999999444-5.242199999999684,2.52390000000014-1.228500000000167,5.338900000000649-1.843800000000556,8.445300000000316-1.843800000000556,3.494700000000194,0,6.487299999999777.753500000000713,8.979000000000269,2.257900000000518,2.490799999999581,1.506799999999203,4.383299999999508,3.828599999999824,5.67869999999948,6.968199999999342h.388200000000325v-8.060999999999694h7.765599999999722v48.438000000000102ZM254.033016347289959,420.431090114615472c1.747600000000602,0,3.397500000000036-.227500000000873,4.950700000000325-.682600000000093,1.553199999999379-.454600000000028,2.895499999999629-1.122600000000602,4.028299999999945-2.000500000000102,1.131899999999405-.876900000000205,2.03859999999986-1.950699999999415,2.718299999999545-3.217800000000352.679200000000492-1.268500000000131,1.019000000000233-2.748999999999796,1.019000000000233-4.439899999999398v-18.634799999999814c0-1.365200000000186-.324200000000019-2.649900000000343-.970699999999852-3.854000000001179-.647399999999834-1.202599999998711-1.553200000000288-2.22649999999885-2.717800000000352-3.072699999998804-1.164999999999964-.844700000000557-2.52390000000014-1.511200000000827-4.077099999999518-1.999499999999898-1.553200000000288-.488300000000891-3.203099999999722-.732500000000073-4.950700000000325-.732500000000073-4.40139999999974,0-7.895999999999731,1.398499999999331-10.483400000000074,4.195399999999609-2.589299999999639,2.796799999999166-3.882800000000316,6.406700000000455-3.882800000000316,10.829999999999927v8.583999999999833c0,4.422899999999572,1.293500000000677,8.03269999999975,3.882800000000316,10.83010000000013,2.587400000000343,2.796400000000176,6.082000000000335,4.194800000000214,10.483400000000074,4.194800000000214Z"/><path class="uuid-27421f1a-d75d-44ca-8dfd-ab61d75d5649" d="M321.884616347289921,418.09709011461473h-.388199999999415c-.518600000000333,1.15480000000025-1.149400000000242,2.291500000000269-1.892600000001039,3.412600000000566-.745099999999184,1.120599999999286-1.666999999999462,2.114300000000185-2.766599999999016,2.97859999999946-1.101500000000669.865200000000186-2.426699999999983,1.55370000000039-3.980000000000473,2.066400000000613-1.553200000000288.512200000000121-3.365700000000288.768499999999221-5.435999999999694.768499999999221-5.178200000000288,0-9.287100000000464-1.664999999999054-12.328099999999722-4.998999999999796-3.042500000000473-3.332499999999527-4.5625-8.039999999999054-4.5625-14.123999999999796v-32.129899999999907h7.765599999999722v30.837900000000445c0,9.01509999999962,3.817900000000009,13.522899999999936,11.454600000000028,13.522899999999936,1.553199999999379,0,3.057600000000093-.19380000000092,4.513699999999517-.584000000000742,1.456000000000131-.388100000000122,2.75-.972099999999045,3.882800000000316-1.75,1.131800000000112-.778299999999945,2.038499999999658-1.766999999999825,2.718200000000252-2.967199999999139.679699999999684-1.199300000000221,1.019099999999526-2.643100000000231,1.019099999999526-4.330100000001039v-34.729499999999462h7.765600000000632v50.087900000000445h-7.765600000000632v-8.061100000000806Z"/><path class="uuid-27421f1a-d75d-44ca-8dfd-ab61d75d5649" d="M350.034516347290264,364.324190114614794c-1.683600000000297,0-2.896999999999935-.403299999999945-3.640199999999822-1.213399999999638-.744599999999991-.808099999999286-1.11620000000039-1.858900000000176-1.11620000000039-3.154799999999341v-1.261700000000928c0-1.293899999999667.371600000000399-2.34519999999975,1.11620000000039-3.155300000000352.743199999999888-.808599999999387,1.956599999999526-1.213299999999435,3.640199999999822-1.213299999999435,1.682099999999991,0,2.895499999999629.404700000000048,3.64009999999962,1.213299999999435.743199999999888.810100000000602,1.11620000000039,1.861400000000685,1.11620000000039,3.155300000000352v1.261700000000928c0,1.295899999999165-.373000000000502,2.346700000000055-1.11620000000039,3.154799999999341-.744599999999991.810099999999693-1.957999999999629,1.213399999999638-3.64009999999962,1.213399999999638ZM346.151716347289948,376.070290114615091h7.765599999999722v50.087900000000445h-7.765599999999722v-50.087900000000445Z"/><path class="uuid-27421f1a-d75d-44ca-8dfd-ab61d75d5649" d="M385.465616347290052,427.32319011461459c-4.659099999999853,0-8.559100000000399-.890099999998711-11.697200000000521-2.668899999998757-3.139699999999721-1.779300000000148-5.840899999999237-4.158200000000761-8.105499999999665-7.134800000000723l5.533199999999852-4.465799999999945c1.941400000000613,2.459899999999834,4.108900000000176,4.352499999999964,6.503900000000613,5.67869999999948,2.393599999999424,1.327100000000428,5.176800000000185,1.990200000000186,8.348199999999451,1.990200000000186,3.300199999999677,0,5.8725000000004-.711899999999332,7.716699999999946-2.135699999999815,1.84479999999985-1.422900000000482,2.766599999999926-3.429699999999684,2.766599999999926-6.018600000000333,0-1.941399999999703-.630799999999908-3.606399999999667-1.892499999999927-4.998999999999796-1.262199999999211-1.390599999999722-3.543499999999767-2.344699999999648-6.843799999999646-2.863299999999072l-3.980000000000473-.583000000000538c-2.329499999999825-.323200000000725-4.465299999999843-.824700000000121-6.406699999999546-1.503899999999703-1.941399999999703-.680200000000696-3.64010000000053-1.585399999999936-5.096199999999953-2.718200000000252-1.456000000000131-1.131400000000212-2.588900000000649-2.539600000000064-3.397500000000036-4.223199999999451-.8100000000004-1.681600000000799-1.213300000000345-3.688500000000204-1.213300000000345-6.017600000001039,0-2.458999999999833.452100000000428-4.611299999999574,1.358900000000176-6.454999999999927.905700000000252-1.84479999999985,2.150800000000345-3.381900000000314,3.737299999999777-4.611399999999776,1.584899999999834-1.228499999999258,3.478000000000065-2.150900000000547,5.67870000000039-2.766599999999926,2.199200000000019-.614199999999983,4.5625-.921900000000278,7.08640000000014-.921900000000278,4.076699999999619,0,7.489299999999275.712400000000343,10.240700000000288,2.135299999999916,2.75,1.424300000000585,5.16019999999935,3.397500000000946,7.231999999999971,5.921400000000176l-5.145100000000639,4.659200000000055c-1.100999999999658-1.552800000000389-2.71770000000015-2.960000000000036-4.853500000000167-4.22269999999935-2.135199999999713-1.261700000000928-4.82129999999961-1.892600000001039-8.056599999999889-1.892600000001039-3.236799999999675,0-5.67869999999948.695800000000418-7.329099999999926,2.086900000000242-1.649899999999434,1.392100000000937-2.475099999999657,3.285200000000259-2.475099999999657,5.678799999999683,0,2.459900000000744.825200000000223,4.239200000000892,2.475099999999657,5.338800000000447,1.650400000000445,1.101599999999962,4.028800000000047,1.909200000000055,7.134699999999611,2.426800000000185l3.882900000000518.582000000000335c5.564900000000307.841800000000148,9.513100000000122,2.444299999999203,11.84270000000015,4.805199999999786,2.329600000000028,2.363299999999981,3.494700000000194,5.45259999999962,3.494700000000194,9.270499999999629,0,4.853500000000167-1.650400000000445,8.67240000000038-4.950700000000325,11.454600000000028-3.300299999999879,2.783200000000761-7.831100000000333,4.173799999999574-13.589899999999943,4.173799999999574Z"/><path class="uuid-27421f1a-d75d-44ca-8dfd-ab61d75d5649" d="M428.08091634729135,426.158190114615536c-2.717800000002171,0-4.773000000001048-.757800000000316-6.164100000001781-2.274900000000343-1.392099999999118-1.516599999999926-2.086899999998423-3.503399999999601-2.086899999998423-5.957500000000437v-34.96389999999974h-8.251000000001113v-6.891599999999926h4.659200000000055c1.682099999999991,0,2.830600000000231-.340299999999843,3.44630000000052-1.020000000000437.614199999999983-.679199999999582.921899999999368-1.859399999999368.921899999999368-3.542999999999665v-9.318900000000212h6.989199999999983v13.881900000000314h10.969300000000658v6.891599999999926h-10.969300000000658v36.304699999999684h10.192399999999907v6.891600000000835h-9.706999999998516Z"/><path class="uuid-27421f1a-d75d-44ca-8dfd-ab61d75d5649" d="M454.969516347289755,364.324190114614794c-1.683600000000297,0-2.896899999999732-.403299999999945-3.64010000000053-1.213399999999638-.744599999999991-.808099999999286-1.116699999999582-1.858900000000176-1.116699999999582-3.154799999999341v-1.261700000000928c0-1.293899999999667.372099999999591-2.34519999999975,1.116699999999582-3.155300000000352.743200000000797-.808599999999387,1.956500000000233-1.213299999999435,3.64010000000053-1.213299999999435,1.682200000001103,0,2.895500000000538.404700000000048,3.640200000001641,1.213299999999435.743099999997867.810100000000602,1.11620000000039,1.861400000000685,1.11620000000039,3.155300000000352v1.261700000000928c0,1.295899999999165-.373100000002523,2.346700000000055-1.11620000000039,3.154799999999341-.744700000001103.810099999999693-1.958000000000538,1.213399999999638-3.640200000001641,1.213399999999638ZM451.086716347290348,376.070290114615091h7.765599999998813v50.087900000000445h-7.765599999998813v-50.087900000000445Z"/><path class="uuid-27421f1a-d75d-44ca-8dfd-ab61d75d5649" d="M493.992016347290701,427.32319011461459c-3.494599999999991,0-6.634299999999712-.615699999999379-9.415999999999258-1.843699999999444-2.783200000001671-1.22899999999936-5.129400000001624-2.976599999999962-7.037599999999657-5.242200000000594-1.909700000000157-2.264699999999721-3.365700000002107-5.014699999999721-4.368200000000797-8.250999999999294-1.003899999999703-3.235400000000482-1.504400000001624-6.859400000000278-1.504400000001624-10.872099999999591,0-4.011700000000928.500500000001921-7.635700000000725,1.504400000001624-10.872000000000298,1.00249999999869-3.235400000000482,2.45850000000064-5.985400000000482,4.368200000000797-8.251000000000204,1.908199999998033-2.26470000000063,4.254399999997986-4.011700000000019,7.037599999999657-5.242199999999684,2.781699999999546-1.228500000000167,5.921399999999267-1.843800000000556,9.415999999999258-1.843800000000556,4.982399999998961,0,8.979000000001179,1.084000000000742,11.988299999999072,3.251000000000204,3.009300000001531,2.169499999999971,5.257300000001123,5,6.746600000002218,8.494200000000092l-6.503900000001522,3.300699999999779c-.906799999998839-2.587800000000243-2.395099999999729-4.594699999999648-4.465399999999136-6.018499999999221-2.071800000001531-1.422900000000482-4.659200000001874-2.135800000000017-7.765600000000632-2.135800000000017-2.329599999999118,0-4.368199999998978.373099999998885-6.115700000000288,1.116299999999683-1.747100000000501.744599999999991-3.203099999998813,1.781199999999444-4.368200000000797,3.106399999999667-1.164499999998952,1.32720000000063-2.03859999999986,2.912100000000464-2.620599999998376,4.756400000000212-.582500000000437,1.84519999999975-.873999999999796,3.867600000000493-.873999999999796,6.066799999999603v8.542000000000371c0,4.402399999999943,1.180199999998877,8.00880000000052,3.543399999998655,10.823800000000119,2.361400000001595,2.815400000000409,5.839400000000751,4.222600000000057,10.435100000000602,4.222600000000057,6.276400000000649,0,10.806599999999889-2.911600000000362,13.589799999999741-8.736300000000483l5.630400000000009,3.785600000000159c-1.618199999998978,3.625-4.028299999999945,6.503900000000613-7.231900000000678,8.63970000000063-3.203099999998813,2.135199999998804-7.199700000000121,3.203099999998813-11.988299999999072,3.203099999998813Z"/><path class="uuid-27421f1a-d75d-44ca-8dfd-ab61d75d5649" d="M539.226416347290069,427.32319011461459c-4.659700000000157,0-8.55909999999858-.890099999998711-11.697299999999814-2.668899999998757-3.139599999998609-1.779300000000148-5.840799999999945-4.158200000000761-8.105499999999665-7.134800000000723l5.533199999999852-4.465799999999945c1.941399999999703,2.459899999999834,4.108899999999267,4.352499999999964,6.503899999999703,5.67869999999948,2.393100000001141,1.327100000000428,5.176299999999173,1.990200000000186,8.348200000000361,1.990200000000186,3.30029999999897,0,5.872599999998783-.711899999999332,7.716800000000148-2.135699999999815,1.844699999999648-1.422900000000482,2.766600000000835-3.429699999999684,2.766600000000835-6.018600000000333,0-1.941399999999703-.630900000000111-3.606399999999667-1.892600000001039-4.998999999999796-1.262199999999211-1.390599999999722-3.543400000000474-2.344699999999648-6.843699999999444-2.863299999999072l-3.979999999999563-.583000000000538c-2.329600000000937-.323200000000725-4.465299999999843-.824700000000121-6.406800000000658-1.503899999999703-1.941400000001522-.680200000000696-3.64010000000053-1.585399999999936-5.096099999998842-2.718200000000252-1.456100000001243-1.131400000000212-2.588900000002468-2.539600000000064-3.397500000000946-4.223199999999451-.810100000000602-1.681600000000799-1.213400000000547-3.688500000000204-1.213400000000547-6.017600000001039,0-2.458999999999833.45220000000154-4.611299999999574,1.358900000000176-6.454999999999927.905800000001364-1.84479999999985,2.150899999999638-3.381900000000314,3.737299999999777-4.611399999999776,1.585000000000946-1.228499999999258,3.478000000000975-2.150900000000547,5.67870000000039-2.766599999999926,2.199200000000928-.614199999999983,4.5625-.921900000000278,7.08640000000014-.921900000000278,4.076699999998709,0,7.489299999999275.712400000000343,10.240799999998671,2.135299999999916,2.75,1.424300000000585,5.160100000000057,3.397500000000946,7.231900000001588,5.921400000000176l-5.145000000000437,4.659200000000055c-1.10109999999986-1.552800000000389-2.717800000000352-2.960000000000036-4.853500000001077-4.22269999999935-2.135299999998097-1.261700000000928-4.82129999999961-1.892600000001039-8.056699999999182-1.892600000001039-3.236800000000585,0-5.678699999998571.695800000000418-7.329100000000835,2.086900000000242-1.649900000000343,1.392100000000937-2.475099999999657,3.285200000000259-2.475099999999657,5.678799999999683,0,2.459900000000744.825199999999313,4.239200000000892,2.475099999999657,5.338800000000447,1.650400000002264,1.101599999999962,4.028800000000047,1.909200000000055,7.134799999999814,2.426800000000185l3.882800000001225.582000000000335c5.564899999999398.841800000000148,9.513199999999415,2.444299999999203,11.842799999998533,4.805199999999786,2.329600000002756,2.363299999999981,3.494599999999991,5.45259999999962,3.494599999999991,9.270499999999629,0,4.853500000000167-1.650399999998626,8.67240000000038-4.950699999997596,11.454600000000028-3.300300000000789,2.783200000000761-7.83100000000195,4.173799999999574-13.58980000000156,4.173799999999574Z"/><path class="uuid-27421f1a-d75d-44ca-8dfd-ab61d75d5649" d="M126.483216347290181,543.808590114615072c-5.501000000000204,0-10.192399999999907-1.052800000000389-14.075200000000223-3.154299999999239-3.882799999999406-2.102600000000166-7.183600000000297-4.999500000000808-9.90139999999974-8.688500000000204l6.018600000000333-5.047900000000482c2.393099999999322,3.171900000000278,5.04739999999947,5.582100000000537,7.959499999999025,7.232500000000073,2.912100000000464,1.649899999999434,6.341800000000148,2.475100000000566,10.290000000000873,2.475100000000566,4.853499999999258,0,8.557099999999991-1.165100000000166,11.114299999999275-3.494700000001103,2.555600000000595-2.329999999999927,3.834399999999732-5.435999999999694,3.834399999999732-9.318799999999101,0-3.23490000000038-.970699999999852-5.727100000000064-2.912099999999555-7.474100000000362-1.941399999999703-1.748099999999795-5.145000000000437-3.138700000000426-9.609800000000178-4.174799999999777l-5.533199999999852-1.261800000000221c-6.212899999999536-1.422800000000279-10.954099999999926-3.574200000000019-14.221199999999953-6.454999999999018-3.268599999999424-2.878900000000613-4.901899999999841-6.940500000001521-4.901899999999841-12.182700000001205,0-2.975499999999556.548799999999574-5.629799999999705,1.649899999999434-7.95889999999963,1.100100000000566-2.33010000000013,2.636300000000119-4.271499999999833,4.610900000000584-5.824700000000121,1.97360000000026-1.553299999999581,4.334899999999834-2.733000000000175,7.08640000000014-3.543499999999767,2.75-.808600000000297,5.775899999999638-1.213400000000547,9.076199999999517-1.213400000000547,5.111300000000483,0,9.496100000000297.939000000000306,13.153299999999945,2.815400000000409,3.655300000000352,1.8774999999996,6.746100000000297,4.6274999999996,9.270000000000437,8.250999999999294l-6.115200000000186,4.465400000000955c-1.877999999999702-2.587900000000445-4.14260000000013-4.626000000000204-6.795000000000073-6.11580000000049-2.654300000000148-1.487799999999879-5.954999999999927-2.232899999999972-9.901299999999537-2.232899999999972-4.33640000000014,0-7.750500000000102.922899999999572-10.24120000000039,2.766599999999926-2.491699999999582,1.84479999999985-3.737299999999777,4.611400000000685-3.737299999999777,8.299799999999777,0,3.236800000000585,1.051199999999881,5.67870000000039,3.15520000000015,7.328600000000733,2.102099999999155,1.650399999999536,5.290099999999256,2.961499999999432,9.561599999999999,3.932199999999284l5.53269999999975,1.261700000000928c6.664499999999862,1.489199999999983,11.486300000000483,3.753899999999703,14.463399999999638,6.794899999998961,2.976000000000568,3.042000000000371,4.465300000000752,7.085900000000038,4.465300000000752,12.13379999999961,0,3.106400000000576-.533699999999953,5.920900000001893-1.601599999999962,8.445300000001225-1.067800000000716,2.523499999999331-2.605900000000474,4.659200000000055-4.610800000000381,6.406299999999646-2.006900000000314,1.7475000000004-4.450200000000223,3.106399999999667-7.328599999999824,4.077099999999518-2.880400000000009.970699999999852-6.132400000000416,1.456100000000333-9.755900000000111,1.456100000000333Z"/><path class="uuid-27421f1a-d75d-44ca-8dfd-ab61d75d5649" d="M182.007116347290321,543.808590114615072c-3.365700000000288,0-6.439900000000307-.61580000000049-9.221599999999853-1.844299999998839-2.783200000000761-1.228000000001884-5.161700000000565-2.992600000000493-7.134800000000723-5.290500000001884-1.974599999999555-2.295899999999165-3.511199999999917-5.04739999999947-4.610899999999674-8.250999999999294-1.100999999999658-3.203099999998813-1.649900000000343-6.810500000000502-1.649900000000343-10.823200000000725,0-3.946299999998701.548900000000685-7.538099999998849,1.649900000000343-10.775399999999536,1.099699999999757-3.234399999999368,2.636300000000119-6.001999999998588,4.610899999999674-8.299299999999675,1.973100000000159-2.296400000000176,4.351599999999962-4.060099999999693,7.134800000000723-5.290599999999358,2.781699999999546-1.228500000001077,5.855899999999565-1.843700000000354,9.221599999999853-1.843700000000354,3.364300000000185,0,6.421899999999368.615199999999277,9.173399999999674,1.843700000000354,2.75,1.230499999999665,5.128400000000511,2.994199999999182,7.134699999999611,5.290599999999358,2.005400000000009,2.297300000001087,3.558600000000297,5.064900000000307,4.659700000000157,8.299299999999675,1.099600000000464,3.237300000000687,1.649900000000343,6.829100000000835,1.649900000000343,10.775399999999536,0,4.012700000000223-.550299999999879,7.620100000001912-1.649900000000343,10.823200000000725-1.10109999999986,3.203599999999824-2.654300000000148,5.95510000000013-4.659700000000157,8.250999999999294-2.006299999999101,2.297900000001391-4.384699999999611,4.0625-7.134699999999611,5.290500000001884-2.751500000000306,1.228499999998348-5.809099999999489,1.844299999998839-9.173399999999674,1.844299999998839ZM182.007116347290321,536.916490114615044c4.206099999999424,0,7.635299999999916-1.293499999998858,10.289599999999155-3.882799999999406,2.652800000000752-2.587399999999434,3.980000000000473-6.535699999999451,3.980000000000473-11.84230000000025v-7.183600000000297c0-5.305699999999888-1.327199999999721-9.253899999999703-3.980000000000473-11.842800000000352-2.654299999999239-2.587399999998524-6.083499999999731-3.882799999999406-10.289599999999155-3.882799999999406-4.207000000000335,0-7.636700000000019,1.295400000000882-10.289499999999862,3.882799999999406-2.654300000000148,2.588900000000649-3.980000000000473,6.537100000000464-3.980000000000473,11.842800000000352v7.183600000000297c0,5.306600000000799,1.325700000000325,9.254900000000816,3.980000000000473,11.84230000000025,2.652799999999843,2.589300000000549,6.082499999999527,3.882799999999406,10.289499999999862,3.882799999999406Z"/><path class="uuid-27421f1a-d75d-44ca-8dfd-ab61d75d5649" d="M236.075516347289522,543.808590114615072c-3.494099999999889,0-6.63379999999961-.61580000000049-9.415499999999156-1.844299999998839-2.783199999999852-1.228000000001884-5.129899999999907-2.976000000001477-7.037600000000566-5.241700000001401-1.909699999999248-2.264599999999518-3.365799999999581-5.014599999999518-4.368199999999888-8.250899999999092-1.004399999999805-3.235400000001391-1.504899999999907-6.859400000001187-1.504899999999907-10.87210000000141,0-4.011699999999109.500500000000102-7.635799999999108,1.504899999999907-10.872099999999591,1.002400000000307-3.23529999999937,2.45850000000064-5.98529999999937,4.368199999999888-8.251000000000204,1.907700000000659-2.264599999999518,4.254400000000714-4.011699999999109,7.037600000000566-5.242199999998775,2.781699999999546-1.228500000001077,5.921399999999267-1.843700000000354,9.415499999999156-1.843700000000354,4.98240000000078,0,8.979000000000269,1.083999999998923,11.988800000000992,3.251499999999396,3.00879999999961,2.169400000000678,5.256799999999203,4.999499999999898,6.746099999999387,8.493600000000697l-6.503499999999804,3.300799999999981c-.907199999999648-2.587900000000445-2.395500000000538-4.594699999999648-4.465799999999945-6.018600000000333-2.07129999999961-1.42279999999937-4.659200000000055-2.135699999999815-7.765600000000632-2.135699999999815-2.329099999999016,0-4.368199999998978.372999999999593-6.115199999999277,1.11620000000039-1.747100000000501.745100000000093-3.203199999999924,1.780799999998635-4.368199999999888,3.106499999999869-1.165000000000873,1.327099999999518-2.03859999999986,2.912099999999555-2.621100000000297,4.756299999999101-.582000000000335,1.844699999999648-.873499999999694,3.867700000000696-.873499999999694,6.066900000000714v8.542999999999665c0,4.401300000000447,1.180099999999584,8.007800000000316,3.542899999999463,10.823199999999815,2.361899999999878,2.815000000000509,5.839399999999841,4.222200000000157,10.435099999999693,4.222200000000157,6.276400000000649,0,10.806600000000799-2.912099999999555,13.58980000000065-8.736399999998866l5.630400000000009,3.785699999999451c-1.618199999999888,3.625-4.028299999999945,6.503900000000613-7.231399999999667,8.639599999999518-3.203600000000733,2.135299999999916-7.200200000000223,3.203199999999924-11.988800000000992,3.203199999999924Z"/><path class="uuid-27421f1a-d75d-44ca-8dfd-ab61d75d5649" d="M270.146816347290041,480.809490114615073c-1.683600000000297,0-2.896999999999935-.403299999999945-3.640199999999822-1.212799999999334-.744599999999991-.809100000000399-1.11620000000039-1.85990000000038-1.11620000000039-3.155300000000352v-1.261700000000019c0-1.293999999999869.371600000000399-2.345299999999952,1.11620000000039-3.155300000000352.743199999999888-.808599999999387,1.956599999999526-1.212899999999536,3.640199999999822-1.212899999999536,1.682099999999991,0,2.895499999999629.404300000000148,3.64009999999962,1.212899999999536.743200000000797.8100000000004,1.11620000000039,1.861300000000483,1.11620000000039,3.155300000000352v1.261700000000019c0,1.295399999999972-.372999999999593,2.346199999999953-1.11620000000039,3.155300000000352-.744599999999991.809499999999389-1.957999999999629,1.212799999999334-3.64009999999962,1.212799999999334ZM266.264016347289726,492.555090114616178h7.765600000000632v50.088399999999638h-7.765600000000632v-50.088399999999638Z"/><path class="uuid-27421f1a-d75d-44ca-8dfd-ab61d75d5649" d="M309.36361634729019,543.808590114615072c-3.430699999999888,0-6.520499999999629-.61580000000049-9.270499999999629-1.844299999998839-2.751000000000204-1.228000000001884-5.112800000000789-2.992600000000493-7.08600000000024-5.290500000001884-1.975100000000566-2.295899999999165-3.494599999999991-5.04739999999947-4.5625-8.250999999999294-1.067799999999806-3.203099999998813-1.60149999999976-6.810500000000502-1.60149999999976-10.823200000000725,0-3.946299999998701.533699999999953-7.538099999998849,1.60149999999976-10.775399999999536,1.067900000000009-3.234399999999368,2.587399999999434-6.001999999998588,4.5625-8.299299999999675,1.973199999999451-2.296400000000176,4.335000000000036-4.060099999999693,7.08600000000024-5.290599999999358,2.75-1.228500000001077,5.839799999999741-1.843700000000354,9.270499999999629-1.843700000000354,3.364199999999983,0,6.372999999999593.612299999999777,9.027299999999741,1.837899999999536,2.653299999999945,1.225599999999758,4.917500000000473,2.91990000000078,6.79489999999987,5.079600000000937,1.876500000000306,2.159599999999045,3.316000000000713,4.723099999999249,4.319900000000416,7.689900000000307,1.002399999999398,2.966799999999239,1.504899999999907,6.223199999999451,1.504899999999907,9.769099999998616v3.677200000000084h-36.013700000000426v2.329100000000835c0,2.135800000000017.33980000000065,4.125500000000102,1.019500000000335,5.97019999999975.679199999999582,1.844299999999748,1.649899999999434,3.445799999999508,2.912100000000464,4.804699999999684,1.261699999999109,1.358900000001086,2.8149999999996,2.426800000000185,4.659200000000055,3.203599999999824,1.844199999999546.776400000000649,3.931599999999889,1.164600000000064,6.261199999999008,1.164600000000064,3.170000000000073,0,5.936600000000908-.743199999999888,8.299300000000585-2.23239999999987,2.361899999999878-1.48779999999897,4.189500000000407-3.623599999998987,5.48489999999947-6.406799999999748l5.533199999999852,4.005400000000009c-1.618599999999788,3.45259999999962-4.14259999999922,6.235800000000381-7.571799999999712,8.351599999999962-3.431099999999788,2.115700000000288-7.507799999999406,3.174299999999675-12.230899999999565,3.174299999999675ZM309.36361634729019,497.893990114615008c-2.135800000000017,0-4.07720000000063.370100000000093-5.824200000000019,1.110400000000482-1.747600000000602.740700000000288-3.252000000000407,1.785099999999147-4.513700000000426,3.135199999999713-1.262200000000121,1.349600000000464-2.249499999999898,2.942399999999907-2.960900000000038,4.774399999999332-.712899999999536,1.83350000000064-1.067900000000009,3.843300000000454-1.067900000000009,6.030300000000352v.674800000000687h27.665500000000065v-1.061499999999796c0-4.4375-1.213399999999638-7.989800000001196-3.64009999999962-10.659200000000055-2.426800000000185-2.668900000000576-5.646999999999935-4.004400000000714-9.658699999999953-4.004400000000714Z"/><path class="uuid-27421f1a-d75d-44ca-8dfd-ab61d75d5649" d="M354.889516347289828,542.643490114615815c-2.717800000000352,0-4.773000000000138-.757800000000316-6.164099999999962-2.274400000000242-1.392100000000028-1.517100000000937-2.086900000000242-3.503899999999703-2.086900000000242-5.958000000000538v-34.96389999999883h-8.250999999999294v-6.892100000000028h4.659199999999146c1.682099999999991,0,2.830600000000231-.33980000000065,3.44630000000052-1.019500000001244.614199999999983-.679199999999582.921800000000076-1.858899999999267.921800000000076-3.542499999999563v-9.319300000000112h6.989300000000185v13.88130000000092h10.969199999999546v6.892100000000028h-10.969199999999546v36.304699999998775h10.192399999999907v6.891600000000835h-9.707000000000335Z"/><path class="uuid-27421f1a-d75d-44ca-8dfd-ab61d75d5649" d="M408.763516347289624,492.555090114616178h7.668900000000576l-22.423300000000381,61.737399999998161c-.582499999999527,1.487700000000586-1.165100000000166,2.732900000000882-1.747599999999693,3.736800000001494-.582000000000335,1.002900000000409-1.29489999999987,1.796399999999267-2.135199999999713,2.378399999999601-.841800000000148.582500000000437-1.893100000000231,1.003399999999601-3.15480000000025,1.262199999999211-1.262200000000121.257800000001225-2.799800000000687.388200000001234-4.610800000000381.388200000001234h-3.979999999999563v-6.892100000000937h7.862799999999879l3.785600000000159-10.661099999999351-18.73490000000038-51.949799999999414h7.765699999999924l12.037100000000464,34.006399999999303,2.329600000000028,8.139199999999619h.48529999999937l2.717800000000352-8.139199999999619,12.13379999999961-34.006399999999303Z"/><path class="uuid-27421f1a-d75d-44ca-8dfd-ab61d75d5649" d="M124.50341796875,637.556630739614775l-2.416015625-7.67822265625h-10.69775390625l-2.37255859375,7.67822265625h-5.7802734375l10.09423828125-30.109375h7.07421875l10.0078125,30.109375h-5.90966796875ZM116.8251953125,612.623525270864775h-.2158203125l-3.83935546875,12.38037109375h7.93701171875l-3.8818359375-12.38037109375Z"/><path class="uuid-27421f1a-d75d-44ca-8dfd-ab61d75d5649" d="M153.96484375,637.556630739614775l-2.416015625-7.67822265625h-10.69775390625l-2.37255859375,7.67822265625h-5.7802734375l10.09423828125-30.109375h7.07421875l10.0078125,30.109375h-5.90966796875ZM146.2861328125,612.623525270864775h-.21533203125l-3.83935546875,12.38037109375h7.93701171875l-3.88232421875-12.38037109375Z"/></g></svg>