<?xml version="1.0" encoding="UTF-8"?><svg id="uuid-aaa6dc28-ee43-41c7-93a7-6e4549735b53" xmlns="http://www.w3.org/2000/svg" width="1020.929207444958251mm" height="251.022057896693667mm" xmlns:xlink="http://www.w3.org/1999/xlink" viewBox="0 0 2893.972599999997328 711.558600000000297"><defs><style>.uuid-72ba20b9-c399-436b-9d8e-41f4aa4cd819{font-family:FiraSans-SemiBold, 'Fira Sans';font-size:59.999919891357422px;font-weight:600;}.uuid-72ba20b9-c399-436b-9d8e-41f4aa4cd819,.uuid-83bb00aa-8c2a-4021-89c5-42b0a23dc489,.uuid-7b21e4c5-ccc2-4da2-9b05-8b83577c86bd{fill:#a39b4b;}.uuid-83bb00aa-8c2a-4021-89c5-42b0a23dc489{font-family:SourceHanSansHC-Medium-B5pc-H, 'Source Han Sans HC';font-size:60px;font-weight:500;}.uuid-59819bda-a140-4c0f-b2bb-464c5efce4ea{fill:none;}.uuid-86caf52d-35c9-4814-9867-842b5476746a{clip-path:url(#uuid-da1fed42-fe8f-4279-aa7a-f6e87c2d5654);}</style><clipPath id="uuid-da1fed42-fe8f-4279-aa7a-f6e87c2d5654"><rect class="uuid-59819bda-a140-4c0f-b2bb-464c5efce4ea" x=".000000000001819" width="2893.972599999995509" height="711.558600000000297"/></clipPath></defs><g class="uuid-86caf52d-35c9-4814-9867-842b5476746a"><path class="uuid-7b21e4c5-ccc2-4da2-9b05-8b83577c86bd" d="M1093.704999999998108,271.57129999999961c-9.104400000000169,21.529300000001967-14.517499999999927,44.146500000002561-16.167900000000373,67.424800000000687,3.587900000000445-2.91990000000078,8.159200000000055-4.677700000000186,13.135700000000725-4.677700000000186,5.496099999998478,0,10.488299999999072,2.15230000000156,14.216799999998329,5.635700000000725,7.337900000000445-95.590799999999945,87.22360000000117-170.869099999999889,184.695300000001225-170.869099999999889,7.553699999998571,0,13.676800000010189-6.121100000000297,13.676800000010189-13.674799999998868,0-7.552800000001298-6.123100000011618-13.674900000001799-13.676800000010189-13.674900000001799-28.686499999999796,0-56.532199999999648,5.625-82.760699999989811,16.717800000000352-25.318400000000111,10.710000000000946-48.053700000011304,26.033199999999852-67.565400000010413,45.548899999999776-19.51759999999922,19.517500000001746-34.84480000000076,42.250899999999092-45.553799999999683,67.569299999999203Z"/><path class="uuid-7b21e4c5-ccc2-4da2-9b05-8b83577c86bd" d="M1274.446299999997791,538.96480000000156c-94.952199999999721-7.684499999999389-169.667999999999665-86.963800000001356-170.096700000000055-183.793900000000576,0-7.551800000001094-6.122100000000501-13.676800000001094-13.676799999999275-13.676800000001094-7.552700000000186,0-13.674800000000687,6.125-13.674800000000687,13.676800000001094.109399999999368,28.39259999999922,5.722700000000259,55.952099999998609,16.707000000000335,81.926800000001094,10.708999999998923,25.315399999999499,26.036200000000463,48.050699999999779,45.553799999999683,67.564399999999296,19.511699999999109,19.518599999999424,42.247000000010303,34.842800000009447,67.565400000010413,45.55370000000039,21.254899999999907,8.988299999999072,43.571299999988696,14.384800000008909,66.538099999988845,16.109400000008463-2.888699999999517-3.578100000009727-4.627999999998792-8.121100000009392-4.627999999998792-13.067400000009002,0-5.534200000000055,2.181699999999182-10.557600000000093,5.711999999999534-14.292999999999665Z"/><path class="uuid-7b21e4c5-ccc2-4da2-9b05-8b83577c86bd" d="M1437.783199999998033,487.407200000001467c-2.670900000000984-2.670900000000984-6.167999999999665-4.005800000000818-9.667999999999665-4.005800000000818s-7,1.334899999999834-9.671899999990273,4.005800000000818c-33.341800000011062,32.290100000009261-78.774400000011155,52.175799999999072-128.858400000010079,52.175799999999072-7.551699999999983,0-13.673800000000483,6.122100000000501-13.673800000000483,13.674800000000687,0,7.552699999998367,6.122100000000501,13.674800000009782,13.673800000000483,13.674800000009782,28.692399999999907,0,56.536200000000463-5.62400000001071,82.765699999999924-16.716800000009243,24.407199999999648-10.322200000000521,46.398400000000038-24.949200000000928,65.432600000000093-43.468700000001263,5.343699999999444-5.33889999999883,5.343699999999444-13.999100000000908,0-19.339899999999034Z"/><path class="uuid-7b21e4c5-ccc2-4da2-9b05-8b83577c86bd" d="M1289.584899999998015,141.731400000000576c-28.690400000001318,0-56.530200000001059,5.629899999999907-82.760699999989811,16.719799999998941-25.319300000010116,10.709900000001653-48.049800000011601,26.030200000001059-67.569300000010116,45.550800000000891-19.510800000000017,19.519500000000335-34.839900000000853,42.25-45.550799999989977,67.569299999999203-9.099600000010469,21.530300000002171-14.519600000010541,44.151400000002468-16.170000000010987,67.41990000000078,3.590900000001056-2.91990000000078,8.160200000000259-4.66990000000078,13.140699999999924-4.66990000000078,5.490200000000186,0,10.490200000000186,2.151400000002468,14.209899999999834,5.629899999999907,7.339900000000853-95.589899999999034,87.229500000001281-170.869199999997363,184.700200000001132-170.869199999997363,7.549799999998868,0,13.679699999998775-6.120100000000093,13.679699999998775-13.670900000000984,0-7.549800000000687-6.129899999999907-13.679700000000594-13.679699999998775-13.679700000000594ZM1274.444299999997384,538.961900000002061c-94.950199999999313-7.680700000000797-169.66990000000078-86.959900000001653-170.089799999999741-183.790000000000873,0-7.550800000000891-6.129899999999907-13.680700000000797-13.679700000000594-13.680700000000797-7.549799999998868,0-13.680699999998978,6.129899999999907-13.680699999998978,13.680700000000797.110399999999572,28.389599999998609,5.730499999999665,55.949199999999109,16.710000000010041,81.929700000000594,10.710899999989124,25.309499999999389,26.039999999989959,48.049799999998868,45.550799999989977,67.559499999999389,19.519499999998516,19.520499999998719,42.25,34.840899999999237,67.569300000010116,45.550800000000891,21.25,8.989299999997456,43.570299999988492,14.389699999999721,66.539999999989959,16.109399999997549-2.889600000000428-3.569299999999203-4.629899999999907-8.120100000000093-4.629899999999907-13.059599999998682,0-5.53899999999885,2.180699999998978-10.560500000001412,5.709999999999127-14.299799999998868ZM1437.784099999997125,487.41110000000117c-2.669899999998961-2.679700000000594-6.169899999998961-4.009700000000521-9.669899999998961-4.009700000000521s-7,1.329999999999927-9.66990000000078,4.009700000000521c-33.339799999999741,32.290099999998347-78.779300000000148,52.170900000000984-128.859399999999368,52.170900000000984-7.550800000000891,0-13.66990000000078,6.119199999997363-13.66990000000078,13.679699999998775,0,7.549799999998868,6.119099999999889,13.669899999998961,13.66990000000078,13.669899999998961,28.689499999998588,0,56.540100000000166-5.620100000000093,82.769599999999627-16.719699999997829,24.400400000000445-10.320300000001225,46.389600000000428-24.940400000001318,65.429599999999482-43.459900000001653,5.340900000001056-5.340899999999237,5.340900000001056-14,0-19.340899999999237Z"/><path class="uuid-7b21e4c5-ccc2-4da2-9b05-8b83577c86bd" d="M1402.164999999997235,241.752000000000407c-30.060499999999593-30.070400000000518-70.050799999999072-46.630900000000111-112.58009999999922-46.630900000000111-42.530200000001059,0-82.510699999989811,16.560499999999593-112.579999999999927,46.630900000000111-30.070400000000518,30.069299999999203-46.640699999999924,70.059499999999389-46.640699999999924,112.580000000001746,0,42.529299999998329,16.570299999999406,82.509799999999814,46.640699999999924,112.589899999999034,30.069300000010116,30.069299999999203,70.049799999998868,46.629899999999907,112.579999999999927,46.629899999999907,42.529300000000148,0,82.519599999999627-16.560600000000704,112.58009999999922-46.629899999999907,30.079100000000835-30.08009999999922,46.629899999999907-70.060600000000704,46.629899999999907-112.589899999999034,0-42.520500000002357-16.550799999999072-82.510700000002544-46.629899999999907-112.580000000001746ZM1199.714799999997922,310.461900000002061h-12.950200000001132v87.75h12.950200000001132v7.609399999997549h-22.339799999999741v-102.979499999997643h22.339799999999741v7.620100000000093ZM1217.344699999997829,405.82129999999961v-72.729499999997643c0-6.259799999999814-.110399999999572-11.930700000000797-.330100000001039-17.020500000002357-.209899999999834-5.089899999999034-.530299999998533-9.5-.959899999999834-13.229499999997643h13.189400000001115v72.41019999999844c0,2.059499999999389.030299999998533,4.479400000000169.100599999999758,7.269500000000335.059599999998682,2.789999999999054.149400000000242,5.620100000000093.259799999999814,8.5.099600000010469,2.870100000000093.230400000000373,5.620100000000093.379800000000614,8.240200000000186.150399999998626,2.609399999999368.33009999999922,4.799799999998868.549799999998868,6.559599999998682h-13.189399999999296ZM1286.854499999997643,348.611300000000483h-12.099599999999555v48.780300000000352h12.099599999999555v8.429699999998775h-36.040100000000166v-8.429699999998775h11.900400000000445v-48.780300000000352h-11.900400000000445v-8.439399999999296h36.040100000000166v8.439399999999296ZM1363.124999999998181,398.74120000000039c0,7.25-.640699999999924,13.270500000000538-1.900400000000445,18.060600000000704-1.270499999989624,4.780200000001059-3.040100000000166,8.599599999999555-5.309600000000501,11.450199999999313-2.270500000000538,2.859300000000076-5.010700000000725,4.879800000000614-8.210899999989124,6.049800000000687-3.189500000011321,1.179599999999482-6.739300000010189,1.769499999998516-10.649400000011155,1.769499999998516-1.929699999998775,0-4-.309599999998682-6.209999999999127-.929699999998775-2.210000000000946-.620100000000093-4.219699999999648-1.490200000000186-6.020499999989624-2.610399999999572l4.190399999988585-9.649400000000242c.979500000001281.729499999999462,2.299800000000687,1.340900000001056,3.950200000001132,1.830100000001039,1.660200000000259.5,3.339899999999034.739299999997456,5.049799999998868.739299999997456,2.070300000001225,0,3.910200000000259-.33009999999922,5.540100000000166-.989299999997456,1.629800000000614-.66990000000078,3.009700000000521-1.840800000001764,4.149400000011155-3.510700000002544,1.140599999989718-1.669999999998254,2.010699999989811-3.969799999998941,2.610299999989365-6.889699999999721.600599999999758-2.919899999998961.900400000000445-6.629899999999907.900400000000445-11.129899999999907v-28.329999999998108c0-5.139699999999721-.270500000000538-9.320400000000518-.799800000000687-12.509799999999814-.539999999999054-3.200200000001132-1.350599999999758-5.690400000001318-2.420899999999165-7.470700000001671-1.069300000001022-1.779299999998329-2.409200000000055-2.969699999999648-4.019500000000335-3.569299999999203-1.610399999999572-.600600000001577-3.490299999999479-.900400000000445-5.629899999999907-.900400000000445-2.320300000001225,0-4.580100000001039.549799999998868-6.790000000000873,1.640600000000632-2.209999999999127,1.089799999999741-4.240299999999479,2.509799999999814-6.089899999999034,4.25-1.839799999999741,1.729499999999462-3.470699999999852,3.699199999999109-4.890599999989718,5.889599999998609-1.409200000010969,2.179700000000594-2.460000000010041,4.370200000001205-3.149400000011155,6.559600000000501v37.33009999999922h-11.910200000000259v-39.58009999999922c0-6.349599999999555-.360300000000279-11.719699999999648-1.089799999999741-16.120100000000093-.730499999999665-4.398399999998219-1.440499999998792-7.709999999999127-2.129899999999907-9.949199999999109h11.589799999999741c.259799999999814.689399999999296.509799999999814,1.58009999999922.769599999999627,2.679700000000594.260700000000725,1.089799999997922.490200000000186,2.240200000000186.709900000001653,3.440399999999499.210000000010041,1.199199999999109.41019999999844,2.379899999999907.58009999999922,3.540000000000873l.509800000010728,2.890699999999924c4.120100000000093-4.890699999999924,8.260699999989811-8.420900000000984,12.430599999988772-10.581100000001243,4.160200000000259-2.168899999998757,8.5-3.259799999999814,13-3.259799999999814,3.429700000000594,0,6.46980000000076.569399999998495,9.099600000001374,1.710000000000946,2.640699999999924,1.139599999998609,4.870199999999386,2.939399999999296,6.669999999998254,5.41019999999844,1.799800000011601,2.470700000001671,3.160100000000966,5.659100000000763,4.080000000001746,9.58980000000156.930699999998978,3.929699999998775,1.390699999999924,8.649399999998423,1.390699999999924,14.189399999999296v28.959999999999127ZM1401.794899999997142,405.82129999999961h-22.33009999999922v-7.609399999997549h12.939499999998588v-87.75h-12.939499999998588v-7.620100000000093h22.33009999999922v102.979499999997643Z"/><path class="uuid-7b21e4c5-ccc2-4da2-9b05-8b83577c86bd" d="M1561.927676719667943,336.832400000001144v-100.471100000000661h12.090799694558882v89.819299999999203h42.75099892002072v10.651800000001458h-54.841798614579602Z"/><path class="uuid-7b21e4c5-ccc2-4da2-9b05-8b83577c86bd" d="M1638.647374781578037,245.141500000001543c-2.497099936930681,0-4.295899891480076-.597600000000966-5.397474781570054-1.798800000000483-1.10442505419087-1.199199999999109-1.65622504024941-2.756799999999203-1.65622504024941-4.67870000000039v-1.871100000000297c0-1.918499999999767.551799986058541-3.477500000000873,1.65622504024941-4.678199999998469,1.101574890089978-1.198800000001938,2.900374844639373-1.799300000002404,5.397474781570054-1.799300000002404,2.494125218419867,0,4.294025218419847.600500000000466,5.397525218419105,1.799300000002404,1.102500000000873,1.200699999997596,1.655200000001059,2.759699999998702,1.655200000001059,4.678199999998469v1.871100000000297c0,1.921900000001187-.552700000000186,3.479500000001281-1.655200000001059,4.67870000000039-1.103499999999258,1.201199999999517-2.903399999999237,1.798800000000483-5.397525218419105,1.798800000000483ZM1632.889574927017748,262.559500000001208h11.515625072979674v74.272899999999936h-11.515625072979674v-74.272899999999936Z"/><path class="uuid-7b21e4c5-ccc2-4da2-9b05-8b83577c86bd" d="M1668.874900000007983,336.832400000001144v-74.272899999999936h11.51569999998901v11.953100000000632h.576100000000224c1.821300000001429-4.17870000000039,4.389699999999721-7.505800000000818,7.700200000001132-9.974600000001374,3.311599999999089-2.469699999999648,7.748099999998885-3.706500000000233,13.314499999998588-3.706500000000233,7.676800000001094,0,13.747100000000501,2.471199999999953,18.209000000000742,7.412599999999657,4.461900000000242,4.943300000000818,6.693299999998999,11.925699999999779,6.693299999998999,20.94380000000092v47.644500000000335h-11.514599999998609v-45.728499999999258c0-13.368600000001607-5.615200000000186-20.052700000000186-16.841800000000148-20.052700000000186-2.302700000000186,0-4.535200000000259.290499999999156-6.693400000000111.865699999998469-2.159100000000763.578100000000632-4.102500000000873,1.443900000000212-5.829999999999927,2.597700000000259-1.726599999999962,1.153800000000047-3.09480000000076,2.620100000000093-4.101599999999962,4.399400000000242-1.007800000001225,1.778800000000047-1.511700000000928,3.871100000000297-1.511700000000928,6.274900000000343v51.643500000000131h-11.51569999998901Z"/><path class="uuid-7b21e4c5-ccc2-4da2-9b05-8b83577c86bd" d="M1809.649399999996604,334.385700000000725c0,10.266600000000835-2.878899999999703,18.328100000000632-8.636799999998402,24.181599999999889-5.757800000001225,5.853000000000975-13.868100000001505,8.781300000000556-24.326100000000224,8.781300000000556-6.045900000000984,0-11.253000000000611-.940500000000611-15.618199999989884-2.818400000000111-4.367200000011508-1.882300000001123-7.988300000009986-4.363300000000891-10.867200000011508-7.447299999999814l6.765600000000632-7.952100000000428c2.494200000001001,2.568300000000818,5.373100000000704,4.544899999998961,8.636800000000221,5.926300000000992,3.260700000000725,1.380799999998999,7.052700000000186,2.070799999997689,11.371100000000297,2.070799999997689,6.715799999999945,0,11.921800000000076-1.855499999997846,15.617099999999482-5.563499999998385,3.693400000000111-3.713900000000649,5.541999999999462-9.183600000000297,5.541999999999462-16.411600000001272v-10.273999999999432h-.575199999999313c-2.20889999999963,4.561100000000806-5.087799999999334,7.979499999999462-8.636699999999109,10.259800000001633-3.551699999999983,2.281199999997625-7.917000000001281,3.421399999999267-13.099600000001374,3.421399999999267-4.605499999999665,0-8.779299999998329-.91359999999986-12.522399999999834-2.73489999999947-3.742199999998775-1.82220000000234-6.909200000000055-4.413100000001577-9.5-7.772400000001653-2.590899999999237-3.358399999999165-4.606499999988955-7.435600000000704-6.045899999999165-12.235399999999572-1.439500000000407-4.79739999999947-2.158199999999852-10.170899999999165-2.158199999999852-16.122099999998682,0-5.948200000000725.718699999999444-11.321700000000419,2.158199999999852-16.121100000000297,1.43940000001021-4.797300000001997,3.454999999999927-8.875400000000809,6.045899999999165-12.235300000000279,2.590799999999945-3.357900000000882,5.757800000001225-5.948700000000827,9.5-7.772500000000946,3.743100000001505-1.822200000000521,7.916900000000169-2.734800000000178,12.522399999999834-2.734800000000178,5.182600000000093,0,9.619200000001001,1.117600000001403,13.315400000001318,3.34860000000117,3.692399999999907,2.233399999999165,6.499099999999089,5.676799999999275,8.420899999999165,10.332500000000437h.575199999999313v-11.953100000000632h11.515699999999924v71.826199999999517ZM1779.277299999997922,328.33980000000156c2.591800000000148,0,5.038099999999758-.337400000000343,7.341800000000148-1.01220000000103,2.302700000000186-.674800000000687,4.292999999999665-1.664600000000064,5.972599999999147-2.966300000000047,1.677799999999479-1.29989999999998,3.02350000000115-2.89259999999922,4.031300000000556-4.772499999999127,1.006799999999203-1.880400000001828,1.510699999998906-4.075199999999313,1.510699999998906-6.583000000000538v-27.632299999999304c0-2.024000000001251-.481399999998757-3.929200000000492-1.439399999999296-5.715400000000955-.959999999999127-1.783199999999852-2.30370000000039-3.301199999999881-4.030300000000352-4.556099999999788-1.727499999999054-1.252500000000509-3.742199999998775-2.240700000000288-6.044899999998961-2.964399999998932-2.30370000000039-.724100000001272-4.75-1.08640000000014-7.341800000000148-1.08640000000014-6.527399999989939,0-11.708999999989828,2.073199999998906-15.54490000000078,6.221199999999953-3.839899999999034,4.147399999998015-5.757799999999406,9.499499999998079-5.757799999999406,16.058099999998376v12.729999999999563c0,6.558600000000297,1.917900000000373,11.91110000000117,5.757799999999406,16.058600000000297,3.835900000010952,4.146899999999732,9.017500000010841,6.220700000001671,15.54490000000078,6.220700000001671Z"/><path class="uuid-7b21e4c5-ccc2-4da2-9b05-8b83577c86bd" d="M1879.890599999996994,324.87880000000041h-.576199999999517c-.768599999999424,1.711499999999432-1.704099999999016,3.39850000000115-2.806599999999889,5.060600000000704-1.10360000000037,1.662099999999555-2.470699999999852,3.134700000000521-4.101599999999962,4.41649999999936-1.632799999999406,1.282199999999648-3.598599999999351,2.30370000000039-5.902299999999741,3.063899999999194-2.302800000001298.759799999999814-4.990300000001298,1.140200000001641-8.06059999998979,1.140200000001641-7.6777000000111,0-13.771500000009837-2.469700000001467-18.280300000009447-7.41359999999986-4.511700000000928-4.94090000000142-6.765600000000632-11.921900000001187-6.765600000000632-20.942900000001828v-47.643999999998414h11.515600000000632v45.727499999999054c0,13.368700000000899,5.661199999998644,20.052800000001298,16.985399999999572,20.052800000001298,2.302699999998367,0,4.534200000000055-.287100000001374,6.693299999998999-.86620000000039,2.159200000000055-.575199999999313,4.077199999999721-1.440500000000611,5.757900000000518-2.59480000000076,1.677700000000186-1.154300000000148,3.022399999999834-2.620099999998274,4.029300000000148-4.399400000000242,1.007799999999406-1.778299999998126,1.511699999999109-3.919899999998961,1.511699999999109-6.421399999999267v-51.498499999999694h11.515600000000632v74.272899999999936h-11.515600000000632v-11.953600000000733Z"/><path class="uuid-7b21e4c5-ccc2-4da2-9b05-8b83577c86bd" d="M1921.632799999997587,245.141500000001543c-2.496100000000297,0-4.295000000000073-.597600000000966-5.397499999999127-1.798800000000483-1.104499999990367-1.199199999999109-1.655300000000352-2.756799999999203-1.655300000000352-4.67870000000039v-1.871100000000297c0-1.918499999999767.550800000009986-3.477500000000873,1.655300000000352-4.678199999998469,1.102499999999054-1.198800000001938,2.90139999999883-1.799300000002404,5.397499999999127-1.799300000002404,2.494099999999889,0,4.293900000000576.600500000000466,5.398400000000038,1.799300000002404,1.101599999999962,1.200699999997596,1.654300000000148,2.759699999998702,1.654300000000148,4.678199999998469v1.871100000000297c0,1.921900000001187-.552700000000186,3.479500000001281-1.654300000000148,4.67870000000039-1.104499999999462,1.201199999999517-2.904300000000148,1.798800000000483-5.398400000000038,1.798800000000483ZM1915.874900000007983,262.559500000001208h11.515699999999924v74.272899999999936h-11.515699999999924v-74.272899999999936Z"/><path class="uuid-7b21e4c5-ccc2-4da2-9b05-8b83577c86bd" d="M1974.171799999998257,338.56000000000131c-6.909200000000055,0-12.691399999999703-1.319800000001123-17.344700000001467-3.95850000000064-4.655299999998533-2.638199999999415-8.661099999999351-6.165100000000166-12.019499999998516-10.58009999999922l8.204099999999016-6.621100000000297c2.878900000010617,3.647999999999229,6.093700000001263,6.45509999999922,9.644500000000335,8.41990000000078,3.548800000000483,1.968799999998737,7.676800000010189,2.9516999999978,12.378899999999703,2.9516999999978,4.894500000000335,0,8.709000000000742-1.055199999998877,11.443400000000111-3.16649999999936,2.735300000000279-2.10989999999947,4.102499999999054-5.085899999998219,4.102499999999054-8.924800000000687,0-2.878899999999703-.935499999988679-5.348199999998542-2.806599999999889-7.413099999997939-1.872099999998682-2.0625-5.253899999988789-3.476600000001781-10.147499999999127-4.246100000000297l-5.902299999999741-.863800000000992c-3.455100000001039-.47899999999936-6.621100000000297-1.223099999999249-9.5-2.230900000000474s-5.397500000000946-2.350599999997939-7.556699999999182-4.030299999998533c-2.159200000001874-1.677700000000186-3.839799999990646-3.76510000000053-5.038099999990663-6.261700000000928-1.201100000009319-2.494099999999889-1.799800000009782-5.469699999999648-1.799800000009782-8.923799999998664,0-3.646500000000742.669900000009875-6.837400000000343,2.015699999999924-9.572800000001735,1.34269999999924-2.73489999999947,3.189399999999296-5.012199999999211,5.541900000000169-6.836899999998423,2.350599999999758-1.821800000001531,5.157299999998941-3.189900000001217,8.420000000000073-4.102100000000064,3.261699999999109-.91110000000117,6.765600000009727-1.367600000001403,10.50879999999961-1.367600000001403,6.04490000000078,0,11.105400000000373,1.05710000000181,15.185499999999593,3.16649999999936,4.077100000000428,2.112300000000687,7.651400000000649,5.038100000001577,10.72360000000117,8.780200000001059l-7.629800000000614,6.909200000000055c-1.632900000000518-2.302700000000186-4.029300000000148-4.390099999998711-7.196300000001429-6.260700000000725-3.166999999999462-1.87159999999858-7.14949999998862-2.807600000000093-11.947299999999814-2.807600000000093-4.799799999998868,0-8.420899999999165,1.032200000001467-10.868199999998978,3.09519999999975-2.44629999999961,2.063900000001013-3.66990000000078,4.871600000002218-3.66990000000078,8.420400000000882,0,3.648400000000038,1.22360000000117,6.286099999999351,3.66990000000078,7.916500000001179,2.447299999999814,1.633299999999508,5.974599999999555,2.831500000000233,10.58009999999922,3.599099999999453l5.757800000001225.863300000000891c8.252000000000407,1.247999999999593,14.106499999999869,3.623499999997875,17.560599999998885,7.125,3.455000000010841,3.504899999999907,5.182600000000093,8.085399999999936,5.182600000000093,13.746099999998478,0,7.197300000001633-2.447299999999814,12.860800000000381-7.340799999999945,16.985800000000381-4.894599999999627,4.12749999999869-11.613299999999072,6.189500000000407-20.152399999999034,6.189500000000407Z"/><path class="uuid-7b21e4c5-ccc2-4da2-9b05-8b83577c86bd" d="M2037.36319999999796,336.832400000001144c-4.029300000000148,0-7.077100000000428-1.124499999999898-9.139600000000428-3.373499999999694-2.064500000000407-2.248999999999796-3.094699999999648-5.195299999999406-3.094699999999648-8.834500000000844v-51.846199999999953h-12.235400000001391v-10.218699999999444h6.909200000001874c2.494099999999889,0,4.197200000009616-.504900000001726,5.110300000000279-1.512700000001132.911199999998644-1.006799999999203,1.367199999998775-2.756799999999203,1.367199999998775-5.252899999999499v-13.819400000000314h10.364299999999275v20.585000000000946h16.265600000000632v10.218699999999444h-16.265600000000632v53.834999999999127h15.113300000000891v10.219200000001365h-14.394599999999627Z"/><path class="uuid-7b21e4c5-ccc2-4da2-9b05-8b83577c86bd" d="M2077.23529999999846,245.141500000001543c-2.496100000000297,0-4.295900000000984-.597600000000966-5.397500000000946-1.798800000000483-1.104499999999462-1.199199999999109-1.65519999999924-2.756799999999203-1.65519999999924-4.67870000000039v-1.871100000000297c0-1.918499999999767.550699999999779-3.477500000000873,1.65519999999924-4.678199999998469,1.101599999999962-1.198800000001938,2.901400000000649-1.799300000002404,5.397500000000946-1.799300000002404,2.495100000000093,0,4.293899999998757.600500000000466,5.397499999999127,1.799300000002404,1.102500000000873,1.200699999997596,1.656199999999444,2.759699999998702,1.656199999999444,4.678199999998469v1.871100000000297c0,1.921900000001187-.553699999998571,3.479500000001281-1.656199999999444,4.67870000000039-1.10360000000037,1.201199999999517-2.902399999999034,1.798800000000483-5.397499999999127,1.798800000000483ZM2071.477499999997235,262.559500000001208h11.515600000000632v74.272899999999936h-11.515600000000632v-74.272899999999936Z"/><path class="uuid-7b21e4c5-ccc2-4da2-9b05-8b83577c86bd" d="M2135.099599999997736,338.56000000000131c-5.181699999999182,0-9.836999999999534-.91359999999986-13.961999999999534-2.73489999999947-4.126899999990201-1.82220000000234-7.606400000000576-4.413100000001577-10.435500000001412-7.772400000001653-2.831999999998516-3.358399999999165-4.991199999998571-7.435600000000704-6.477499999999054-12.235399999999572-1.488299999999072-4.79739999999947-2.230499999999665-10.170899999999165-2.230499999999665-16.122099999998682,0-5.948200000000725.742200000000594-11.321700000000419,2.230499999999665-16.121100000000297,1.486300000000483-4.797300000001997,3.645500000000538-8.875400000000809,6.477499999999054-12.235300000000279,2.829100000000835-3.357900000000882,6.308600000011211-5.948700000000827,10.435500000001412-7.772500000000946,4.125-1.822200000000521,8.780300000000352-2.734800000000178,13.961999999999534-2.734800000000178,7.388600000000224,0,13.315399999999499,1.607900000000882,17.777299999999741,4.821700000000419,4.461900000000242,3.216400000001158,7.79490000000078,7.413099999999758,10.003900000010617,12.594799999998941l-9.64450000000943,4.894500000002154c-1.343800000000556-3.837400000000343-3.550800000000891-6.813000000001921-6.621100000000297-8.924800000000687-3.072299999999814-2.109400000001187-6.909200000001874-3.16649999999936-11.515600000000632-3.16649999999936-3.454099999989921,0-6.476599999999962.553199999998469-9.068400000000111,1.655299999998533-2.589799999999741,1.10399999999936-4.75,2.64010000000053-6.476599999999962,4.606400000000576-1.727500000000873,1.96730000000025-3.023400000000038,4.318400000000111-3.886699999999109,7.052700000000186-.863300000000891,2.73489999999947-1.295900000000984,5.735899999999674-1.295900000000984,8.995699999999488v12.666900000000169c0,6.527900000000955,1.75,11.876000000000204,5.254899999999907,16.05029999999897,3.501000000000204,4.174399999999878,8.658199999999852,6.261300000001938,15.472700000000259,6.261300000001938,9.306599999999889,0,16.025300000010247-4.318400000000111,20.152299999999741-12.955100000001039l8.34860000000117,5.614199999999983c-2.399400000002061,5.375500000000102-5.97360000000117,9.644600000001446-10.72360000000117,12.811100000000806s-10.675800000000891,4.75-17.777299999999741,4.75Z"/><path class="uuid-7b21e4c5-ccc2-4da2-9b05-8b83577c86bd" d="M2202.17569999999796,338.56000000000131c-6.909200000000055,0-12.691399999999703-1.319800000001123-17.344700000001467-3.95850000000064-4.655299999998533-2.638199999999415-8.661099999999351-6.165100000000166-12.019499999998516-10.58009999999922l8.20410000000993-6.621100000000297c2.878899999988789,3.647999999999229,6.093699999990349,6.45509999999922,9.644499999989421,8.41990000000078,3.548800000000483,1.968799999998737,7.675800000000891,2.9516999999978,12.378899999999703,2.9516999999978,4.894500000000335,0,8.709000000000742-1.055199999998877,11.443400000000111-3.16649999999936,2.735300000000279-2.10989999999947,4.102500000000873-5.085899999998219,4.102500000000873-8.924800000000687,0-2.878899999999703-.935500000001412-5.348199999998542-2.806599999999889-7.413099999997939-1.872100000000501-2.0625-5.253900000001522-3.476600000001781-10.147499999990032-4.246100000000297l-5.902300000010655-.863800000000992c-3.45509999999922-.47899999999936-6.621100000000297-1.223099999999249-9.5-2.230900000000474s-5.397500000000946-2.350599999997939-7.556699999999182-4.030299999998533c-2.159200000000055-1.677700000000186-3.83980000000156-3.76510000000053-5.038100000001577-6.261700000000928-1.201099999998405-2.494099999999889-1.799799999998868-5.469699999999648-1.799799999998868-8.923799999998664,0-3.646500000000742.670000000000073-6.837400000000343,2.015699999999924-9.572800000001735,1.342700000010154-2.73489999999947,3.189399999999296-5.012199999999211,5.541900000000169-6.836899999998423,2.350599999999758-1.821800000001531,5.15730000000076-3.189900000001217,8.420000000000073-4.102100000000064,3.26070000000982-.91110000000117,6.765599999998813-1.367600000001403,10.50879999999961-1.367600000001403,6.04490000000078,0,11.105400000000373,1.05710000000181,15.185500000010506,3.16649999999936,4.077199999999721,2.112300000000687,7.651399999989735,5.038100000001577,10.723599999990256,8.780200000001059l-7.629800000000614,6.909200000000055c-1.632900000000518-2.302700000000186-4.029300000000148-4.390099999998711-7.197299999999814-6.260700000000725-3.165999999999258-1.87159999999858-7.148400000000038-2.807600000000093-11.946300000001429-2.807600000000093-4.799799999998868,0-8.420899999999165,1.032200000001467-10.868199999998978,3.09519999999975-2.44629999999961,2.063900000001013-3.669899999998961,4.871600000002218-3.669899999998961,8.420400000000882,0,3.648400000000038,1.223599999999351,6.286099999999351,3.669899999998961,7.916500000001179,2.447299999999814,1.633299999999508,5.974600000010469,2.831500000000233,10.580100000001039,3.599099999999453l5.757799999999406.863300000000891c8.252000000000407,1.247999999999593,14.106499999999869,3.623499999997875,17.560600000000704,7.125,3.455100000008315,3.504899999999907,5.181599999999889,8.085399999999936,5.181599999999889,13.746099999998478,0,7.197300000001633-2.446300000001429,12.860800000000381-7.339799999990646,16.985800000000381-4.894600000010541,4.12749999999869-11.613300000009986,6.189500000000407-20.152400000009948,6.189500000000407Z"/><path class="uuid-7b21e4c5-ccc2-4da2-9b05-8b83577c86bd" d="M2313.29779999999846,338.56000000000131c-8.157199999990553,0-15.11429999999018-1.561100000000806-20.872100000000501-4.678200000000288-5.757799999999406-3.117200000000594-10.651300000001356-7.413099999999758-14.681599999999889-12.882900000000518l8.923800000000483-7.48529999999846c3.549799999998868,4.703099999998813,7.485399999999572,8.276899999998932,11.803699999998571,10.723599999997532,4.318400000000111,2.447300000001633,9.403300000010859,3.670900000000984,15.257800000001225,3.670900000000984,7.197299999999814,0,12.689499999998588-1.727500000000873,16.481499999999869-5.181599999999889,3.789000000009764-3.45509999999922,5.685499999999593-8.061499999999796,5.685499999999593-13.818900000000212,0-4.796800000000076-1.439400000001115-8.492099999999482-4.318299999989904-11.082499999998618-2.878899999999703-2.591800000001967-7.628899999999703-4.654300000001967-14.25-6.190400000001318l-8.20509999999922-1.871099999998478c-9.211900000011155-2.110400000001391-16.242200000000594-5.301300000000992-21.086900000011155-9.571300000001429-4.846699999989141-4.269500000000335-7.269599999999627-10.292999999999665-7.269599999999627-18.065899999999601,0-4.412599999999657.814499999998588-8.348200000000361,2.447299999999814-11.802700000000186,1.630900000000111-3.454600000000937,3.909200000010969-6.33350000000064,6.836900000000242-8.636300000000119,2.925799999999072-2.303699999998571,6.427799999999479-4.053699999998571,10.50780000001032-5.253899999999703,4.078199999999924-1.199200000000928,8.564500000000407-1.799799999998868,13.458999999989828-1.799799999998868,7.579099999999016,0,14.081099999999424,1.39259999999922,19.503899999999703,4.174799999998868,5.420000000009168,2.784200000000055,10.003899999999703,6.861299999998664,13.746100000000297,12.235399999999572l-9.068299999989904,6.620600000000195c-2.784200000010969-3.837400000000343-6.142600000010134-6.859900000001289-10.075200000010227-9.068400000000111-3.936599999989994-2.206500000000233-8.830100000001039-3.310499999999593-14.682599999990998-3.310499999999593-6.429699999998775,0-11.492199999998775,1.367199999998775-15.185599999998885,4.102000000000771-3.695299999999406,2.735399999997753-5.542000000010376,6.837899999998626-5.542000000010376,12.307199999999284,0,4.800199999999677,1.558600000000297,8.420799999999872,4.67870000000039,10.867599999999584,3.117200000009689,2.446799999999712,7.843800000000556,4.390699999999924,14.177800000010393,5.830100000001039l8.204999999989013,1.871100000000297c9.882900000000518,2.208499999998821,17.03230000000076,5.566399999999703,21.447299999999814,10.075699999997596,4.412100000010469,4.511200000000827,6.621100000000297,10.507800000001225,6.621100000000297,17.992700000002515,0,4.606399999998757-.790999999999258,8.780199999997421-2.375,12.523399999998219-1.583999999989828,3.742200000000594-3.864299999999275,6.909200000000055-6.836899999989328,9.5-2.975600000010672,2.590800000001764-6.598600000010265,4.606400000000576-10.868200000011711,6.045400000000882-4.270499999989624,1.439499999998588-9.092799999998533,2.159200000000055-14.465799999998126,2.159200000000055Z"/><path class="uuid-7b21e4c5-ccc2-4da2-9b05-8b83577c86bd" d="M2395.631800000008298,338.56000000000131c-4.99120000000039,0-9.549800000011601-.91359999999986-13.674800000011601-2.73489999999947-4.126999999998588-1.82220000000234-7.654299999998329-4.438000000001921-10.580099999988306-7.84519999999975-2.927700000000186-3.40480000000025-5.206100000010338-7.484400000001187-6.836900000011155-12.234900000001289-1.632799999999406-4.75-2.44629999999961-10.098599999999351-2.44629999999961-16.049799999998868,0-5.851500000000669.813500000000204-11.177700000000186,2.44629999999961-15.977500000000873,1.630800000000818-4.796900000001187,3.909200000010969-8.899400000000242,6.836900000011155-12.306599999999889,2.925799999989977-3.405300000000352,6.453099999989718-6.02100000000064,10.580099999988306-7.84480000000076,4.125-1.822200000000521,8.683600000011211-2.734800000000178,13.674800000011601-2.734800000000178,4.988299999989977,0,9.52239999998892.912599999999657,13.602499999989959,2.734800000000178,4.077199999999721,1.823800000000119,7.603499999999258,4.439500000000407,10.57910000000993,7.84480000000076,2.973699999989549,3.407199999999648,5.276399999989735,7.509699999998702,6.909199999989141,12.306599999999889,1.630900000000111,4.799800000000687,2.447299999999814,10.126000000000204,2.447299999999814,15.977500000000873,0,5.951199999999517-.816399999999703,11.299799999998868-2.447299999999814,16.049799999998868-1.632799999999406,4.750500000000102-3.935499999999593,8.830100000001039-6.909199999989141,12.234900000001289-2.975600000010672,3.407199999997829-6.50190000001021,6.02299999999741-10.57910000000993,7.84519999999975-4.080100000001039,1.82129999999961-8.614199999999983,2.73489999999947-13.602499999989959,2.73489999999947ZM2395.631800000008298,328.33980000000156c6.236299999998664,0,11.32129999999961-1.918000000001484,15.257799999988492-5.757799999999406,3.933600000011211-3.836500000001251,5.901400000000649-9.690500000000611,5.901400000000649-17.560600000000704v-10.651799999999639c0-7.867200000000594-1.967799999989438-13.721700000001874-5.901400000000649-17.561100000000806-3.936499999988882-3.83640000000014-9.021499999989828-5.757299999999304-15.257799999988492-5.757299999999304-6.239300000010189,0-11.324200000010023,1.920899999999165-15.25780000001032,5.757299999999304-3.936599999989994,3.839399999998932-5.901400000000649,9.693900000000212-5.901400000000649,17.561100000000806v10.651799999999639c0,7.870100000000093,1.964800000010655,13.724099999999453,5.901400000000649,17.560600000000704,3.933600000000297,3.839799999997922,9.018500000000131,5.757799999999406,15.25780000001032,5.757799999999406Z"/><path class="uuid-7b21e4c5-ccc2-4da2-9b05-8b83577c86bd" d="M2475.80659999999807,338.56000000000131c-5.181699999990087,0-9.836900000000242-.91359999999986-13.961900000000242-2.73489999999947-4.127000000000407-1.82220000000234-7.606499999999869-4.413100000001577-10.436499999999796-7.772400000001653-2.831100000001243-3.358399999999165-4.990299999999479-7.435600000000704-6.476599999999962-12.235399999999572-1.48929999999018-4.79739999999947-2.231499999999869-10.170899999999165-2.231499999999869-16.122099999998682,0-5.948200000000725.742200000009689-11.321700000000419,2.231499999999869-16.121100000000297,1.486300000000483-4.797300000001997,3.645499999998719-8.875400000000809,6.476599999999962-12.235300000000279,2.829999999999927-3.357900000000882,6.309499999999389-5.948700000000827,10.436499999999796-7.772500000000946,4.125-1.822200000000521,8.780200000010154-2.734800000000178,13.961900000000242-2.734800000000178,7.388699999999517,0,13.314399999999296,1.607900000000882,17.777299999999741,4.821700000000419,4.461900000000242,3.216400000001158,7.795000000000073,7.413099999999758,10.003899999999703,12.594799999998941l-9.644499999989421,4.894500000002154c-1.344700000010562-3.837400000000343-3.550800000009986-6.813000000001921-6.621100000000297-8.924800000000687-3.072299999999814-2.109400000001187-6.90920000000915-3.16649999999936-11.515600000009727-3.16649999999936-3.455100000001039,0-6.476599999999962.553199999998469-9.068400000000111,1.655299999998533-2.590799999999945,1.10399999999936-4.75,2.64010000000053-6.476500000000669,4.606400000000576-1.727600000000166,1.96730000000025-3.023499999999331,4.318400000000111-3.886799999989307,7.052700000000186-.863200000010693,2.73489999999947-1.295900000010079,5.735899999999674-1.295900000010079,8.995699999999488v12.666900000000169c0,6.527900000000955,1.75,11.876000000000204,5.25400000000991,16.05029999999897,3.501899999990201,4.174399999999878,8.659099999989849,6.261300000001938,15.473599999990256,6.261300000001938,9.306599999999889,0,16.025399999998626-4.318400000000111,20.152299999999741-12.955100000001039l8.348700000000463,5.614199999999983c-2.399400000000242,5.375500000000102-5.973700000000463,9.644600000001446-10.723700000000463,12.811100000000806s-10.676699999999983,4.75-17.777299999999741,4.75Z"/><path class="uuid-7b21e4c5-ccc2-4da2-9b05-8b83577c86bd" d="M2526.328999999997905,245.141500000001543c-2.497000000001208,0-4.295799999999872-.597600000000966-5.397399999999834-1.798800000000483-1.104500000001281-1.199199999999109-1.655300000000352-2.756799999999203-1.655300000000352-4.67870000000039v-1.871100000000297c0-1.918499999999767.550799999999072-3.477500000000873,1.655300000000352-4.678199999998469,1.101599999999962-1.198800000001938,2.900399999998626-1.799300000002404,5.397399999999834-1.799300000002404,2.494199999999182,0,4.293999999999869.600500000000466,5.397499999999127,1.799300000002404,1.102500000000873,1.200699999997596,1.656300000000556,2.759699999998702,1.656300000000556,4.678199999998469v1.871100000000297c0,1.921900000001187-.553799999999683,3.479500000001281-1.656300000000556,4.67870000000039-1.103499999999258,1.201199999999517-2.903299999999945,1.798800000000483-5.397499999999127,1.798800000000483ZM2520.571199999996679,262.559500000001208h11.515699999999924v74.272899999999936h-11.515699999999924v-74.272899999999936Z"/><path class="uuid-7b21e4c5-ccc2-4da2-9b05-8b83577c86bd" d="M2584.481399999996938,338.56000000000131c-5.086900000000242,0-9.668999999999869-.91359999999986-13.746099999998478-2.73489999999947-4.080100000001039-1.82220000000234-7.582000000000335-4.438000000001921-10.507800000001225-7.84519999999975-2.928699999998571-3.40480000000025-5.181699999999182-7.484400000001187-6.765600000000632-12.234900000001289-1.582999999998719-4.75-2.374099999999089-10.098599999999351-2.374099999999089-16.049799999998868,0-5.851500000000669.79110000000037-11.177700000000186,2.374099999999089-15.977500000000873,1.583900000001449-4.796900000001187,3.836900000002061-8.899400000000242,6.765600000000632-12.306599999999889,2.925800000000891-3.405300000000352,6.427700000000186-6.02100000000064,10.507800000001225-7.84480000000076,4.077099999998609-1.822200000000521,8.659199999998236-2.734800000000178,13.746099999998478-2.734800000000178,4.989300000001094,0,9.451200000001336.908200000001671,13.386700000000928,2.725600000001577,3.933600000000297,1.817299999998795,7.291999999999462,4.329499999999825,10.076199999999517,7.532199999997829,2.782199999999648,3.203100000002451,4.917000000001281,7.003900000001522,6.405300000000352,11.402799999999843,1.486300000000483,4.399400000002061,2.231399999998757,9.228000000000975,2.231399999998757,14.486300000000483v5.451700000001438h-53.403299999998126v3.45509999999922c0,3.16649999999936.503899999999703,6.117200000000594,1.511699999999109,8.851999999998952,1.007799999999406,2.734900000001289,2.447299999999814,5.110400000001391,4.318400000000111,7.125,1.871100000000297,2.015699999999924,4.173800000000483,3.598700000002282,6.909100000000763,4.751000000000204,2.735399999999572,1.151400000000649,5.83009999999922,1.726600000001781,9.284199999998236,1.726600000001781,4.701200000001336,0,8.802800000001298-1.102600000001985,12.307600000000093-3.310600000000704,3.501000000000204-2.206000000000131,6.212000000001353-5.372999999999593,8.131900000000314-9.5l8.205100000001039,5.939500000000407c-2.399500000001353,5.119099999999889-6.142600000001039,9.246100000000297-11.227600000000166,12.38379999999961-5.086900000000242,3.137699999999313-11.132799999999406,4.707500000000437-18.136700000000928,4.707500000000437ZM2584.481399999996938,270.475500000000466c-3.166999999999462,0-6.044899999998961.548800000000483-8.635699999998906,1.646500000000742-2.591800000000148,1.097700000000259-4.822299999999814,2.647500000000946-6.693400000000111,4.648400000000038-1.871100000000297,2.002000000000407-3.335900000000038,4.363300000000891-4.390600000000632,7.081099999999424-1.056699999999182,2.718700000001263-1.583999999998923,5.698199999998906-1.583999999998923,8.941399999999703v1.001000000000204h41.023399999998219v-1.57470000000103c0-6.580599999997503-1.798799999998664-11.84769999999844-5.397399999998015-15.80619999999908-3.598700000000463-3.957999999998719-8.373100000000704-5.9375-14.322300000001633-5.9375Z"/><path class="uuid-7b21e4c5-ccc2-4da2-9b05-8b83577c86bd" d="M2651.990199999998367,336.832400000001144c-4.031300000000556,0-7.078100000000632-1.124499999999898-9.140600000000632-3.373499999999694-2.064500000000407-2.248999999999796-3.09480000000076-5.195299999999406-3.09480000000076-8.834500000000844v-51.846199999999953h-12.235300000000279v-10.218699999999444h6.909200000001874c2.494099999999889,0,4.197199999998702-.504900000001726,5.11029999999846-1.512700000001132.910200000000259-1.006799999999203,1.367200000000594-2.756799999999203,1.367200000000594-5.252899999999499v-13.819400000000314h10.363299999999072v20.585000000000946h16.265600000000632v10.218699999999444h-16.265600000000632v53.834999999999127h15.114199999999983v10.219200000001365h-14.393499999998312Z"/><path class="uuid-7b21e4c5-ccc2-4da2-9b05-8b83577c86bd" d="M2731.876900000008391,262.559500000001208h11.372099999998682l-33.250999999998385,91.545899999999165c-.863300000000891,2.207000000000335-1.727500000000873,4.052700000000186-2.590800000001764,5.54149999999936-.864299999999275,1.486800000002404-1.920899999999165,2.66359999999986-3.166999999999462,3.526900000000751-1.248099999998885.864199999999983-2.806699999999182,1.487300000000687-4.677800000010393,1.870999999999185-1.87099999999009.382400000002235-4.152299999999741.576200000001336-6.837799999990239.576200000001336h-5.901400000009744v-10.219699999999648h11.659200000010969l5.614199999999983-15.808600000000297-27.781199999999444-77.033199999999852h11.515599999987899l17.848600000012084,50.425799999999072,3.45509999999922,12.06880000000092h.718799999998737l4.031200000001263-12.06880000000092,17.992200000000594-50.425799999999072Z"/><path class="uuid-7b21e4c5-ccc2-4da2-9b05-8b83577c86bd" d="M1589.944304687496697,477.750973437501671l-3.6103515625-11.4755859375h-15.98828125l-3.5458984375,11.4755859375h-8.638671875l15.0859375-44.9990234375h10.5732421875l14.9560546875,44.9990234375h-8.83203125ZM1578.468718749996697,440.488278125001671h-.322265625l-5.7373046875,18.501953125h11.8623046875l-5.802734375-18.501953125Z"/><path class="uuid-7b21e4c5-ccc2-4da2-9b05-8b83577c86bd" d="M1633.979460937496697,477.750973437501671l-3.6103515625-11.4755859375h-15.98828125l-3.5458984375,11.4755859375h-8.638671875l15.0859375-44.9990234375h10.5732421875l14.9560546875,44.9990234375h-8.83203125ZM1622.503874999996697,440.488278125001671h-.322265625l-5.7373046875,18.501953125h11.8623046875l-5.802734375-18.501953125Z"/><path class="uuid-7b21e4c5-ccc2-4da2-9b05-8b83577c86bd" d="M196.724589315797857,379.626900000001115h-54.992198610780179v-9.128900000001522h54.992198610780179v9.128900000001522ZM189.568289496577563,476.83350000000064h-9.421289496569443v-10.005900000000111h-21.983000000011089v10.005900000000111h-9.566809468398787v-49.370600000000195h40.971098964979319v49.370600000000195ZM189.129889507647022,398.469700000001467l-40.386798979739979.145499999998719v-9.127899999999499h40.386798979739979v8.98240000000078ZM189.275889503967846,417.604000000001179h-40.532798976060803v-9.129899999999907h40.532798976060803v9.129899999999907ZM187.450189550098003,361.07760000000053l-37.100099062779918.145500000000538v-9.127900000001318h37.100099062779918v8.98240000000078ZM180.14700000000812,457.843700000001263v-21.396899999999732h-22.128509706410114v21.396899999999732h22.128509706410114ZM274.503887350927471,417.75l-78.947298005630728.14600000000064v-8.98240000000078h19.572299505560295l4.236299892991156-22.566399999999703h-18.257799538760082v-8.983899999999267h19.71879950184848l3.140599920661771-16.724099999999453h-27.971699293369966v-9.129000000000815h72.520498167979895v8.983400000000984h-34.690399123650423l-2.994188378559556,16.724699999998847h30.088887694089863l-3.140599920659952,31.547800000000279h16.724599577499248v8.983899999999267ZM261.796887671927834,477.125500000001921h-9.421887671929653v-9.859900000001289h-36.953111156541127v9.859900000001289h-9.568399758280066v-49.516100000000733h55.943398586750845v49.516100000000733ZM252.374999999998181,458.281699999999546v-21.689899999997579h-37.099611152840225v21.689899999997579h37.099611152840225ZM250.913999999997031,386.200700000001234h-21.68941150522005l-4.236299892980242,22.712899999998626h23.662099402241438l2.263611995958854-22.712899999998626Z"/><path class="uuid-7b21e4c5-ccc2-4da2-9b05-8b83577c86bd" d="M439.1757831909581,379.626900000001115h-132.771496645909792v-9.128900000001522h132.771496645909792v9.128900000001522ZM419.603483685397805,398.323200000000725h-94.94139760158032v-8.835900000000038h94.94139760158032v8.835900000000038ZM419.603483685397805,417.312000000001717h-94.94139760158032v-8.837900000000445h94.94139760158032v8.837900000000445ZM416.171883772087313,477.125500000001921h-9.421883772089132v-10.297900000001391h-68.5039142593414v10.297900000001391h-9.420899762009867v-49.662600000001476h87.346697793440399v49.662600000001476ZM416.025383775788214,360.12840000000142l-86.470697815550011.218799999998737v-8.836999999999534h86.470697815550011v8.618200000000797ZM406.749999999998181,457.843700000001263v-21.396899999999732h-68.5039142593414v21.396899999999732h68.5039142593414Z"/><path class="uuid-7b21e4c5-ccc2-4da2-9b05-8b83577c86bd" d="M603.849579030948007,450.688000000001921h-58.790998514799867v10.150899999998728c0,10.856400000000576-5.769580516151109,16.286600000001272-17.310580516150367,16.286600000001272h-9.712918801189517l-3.57808119881156-8.983400000000984h13.584000000000742c4.771480825500475,0,7.158180765209181-2.191899999999805,7.158180765209181-6.572799999999916v-10.881299999999101h-64.122998380118588v-9.129899999999907h64.122998380118588v-6.280800000000454c10.173819234791154-3.797300000001997,17.453099559101247-7.350099999999657,21.835899448380587-10.662100000001374h-55.943298586758829v-8.399900000000343h72.158218373169802v7.961900000002061c-7.597720004101575,5.161199999998644-16.994219766729657,10.44289999999819-28.191419483850041,15.847200000000157v1.533699999999953h58.790998514799867v9.129899999999907ZM597.71477918592791,423.591800000001967h-8.7655997785605v-15.117700000000696h-102.023397422670314v15.995099999998274h-9.568399758280066v-24.538099999997939h12.560617773580816v-44.550699999999779c6.91208173449013-.681200000000899,14.486281543149744-3.968300000000454,22.71478133528035-9.858400000000984l4.820299878239894,6.718700000001263c-4.433599888001481,4.089399999998932-10.470699735489688,7.182099999998172-18.113299542430468,9.274899999998524v6.134799999999814h18.695299527720636v7.595699999999852h-18.695299527720636v7.959900000001653h18.695299527720636v7.4487999999983h-18.695299527720636v9.276300000001356h77.632798038830515v-9.276300000001356h-17.820299549821357v-7.30370000000039h17.820299549821357v-8.54399999999805h-17.673799553520439v-7.448700000000827h17.673799553520439v-7.960500000001048h-20.667899477881292v-8.837400000000343h29.943319767960929v49.224200000000565h11.466779185930136v23.80710000000181ZM556.304680232036844,366.920400000000882l-5.111399870878813,6.280300000000352c-2.777280361160592-2.676800000001094-6.550699834509942-5.57470000000103-11.320280361160258-8.690500000000611-3.943319253250593,3.311099999998987-8.375,6.353100000000268-13.292919017039821,9.129000000000815l-5.988299848741008-5.25879999999961c4.722599880700727-1.947299999999814,8.859399776200007-4.235899999999674,12.415999686350915-6.864800000001196-5.94139984990943-2.238800000000992-10.736299728780068-3.797300000000178-14.388699636510864-4.673300000000381l3.726599905859985-6.72019999999975c5.402318910080794,1.363199999999779,10.831999726360664,3.117200000000594,16.285099588611047,5.258300000001327,3.457099912669946-3.260300000001735,6.353599839480012-6.595700000001671,8.69149978041969-10.005400000001828l6.13471954104898,4.89350000000195c-1.949219646779966,3.019099999997707-4.480519582839406,5.964899999999034-7.595719504139197,8.837499999997817,3.601599909019569,2.043400000002293,7.08399982103947,4.64890000000014,10.443399736179344,7.814400000001115ZM557.179680209927028,393.502899999999499l-6.132799845068803,4.820300000001225c-3.943399900381337-3.018000000000029-8.035199797010137-5.524900000000343-12.269599690040195-7.520999999998821-2.628899933590219,1.996099999998478-7.3026998155201,4.502999999998792-14.021499645790755,7.520999999998821l-5.550699859779343-4.381800000001022c6.279299841378815-2.968299999998635,10.783199727598912-5.551299999999173,13.5116996586803-7.740699999998469-2.728499931081387-1.703100000000632-6.865299826580667-3.602999999999156-12.41599968636001-5.697800000001735l5.476499861659249-4.599599999997736c5.013718996769967,1.802299999999377,9.298899765090027,3.676299999999173,12.853499675300554,5.622099999998682,1.361399965599048-.777400000000853,4.113299896080207-3.113799999999173,8.25199979152967-7.011199999999008l6.718699830269543,3.433099999998376c-2.482399937289301,3.214300000001458-5.255799867229143,5.868600000001607-8.324199789720296,7.96140000000014,4.040999897921211,1.850099999999657,8.007799797711414,4.38130000000092,11.902399699320085,7.594199999999546Z"/><path class="uuid-7b21e4c5-ccc2-4da2-9b05-8b83577c86bd" d="M768.374999999998181,450.688000000001921h-58.790999999990163v10.150899999998728c0,10.856400000000576-5.76962349437963,16.286600000001272-17.308623202879971,16.286600000001272h-9.712899754629689l-3.57809990961141-8.983400000000984h13.583899656840003c4.769599879511588,0,7.156299819220294-2.191899999999805,7.156299819220294-6.572799999999916v-10.881299999999101h-64.12109838015931v-9.129899999999907h64.12109838015931v-6.280800000000454c10.175799742939489-3.797300000001997,17.453099559099428-7.350099999999657,21.837899448340977-10.662100000001374h-55.943398586770854v-8.399900000000343h72.156298177180361v7.961900000002061c-7.595699808109202,5.161199999998644-16.994199570679484,10.44289999999819-28.191375647689711,15.847200000000157v1.533699999999953h58.790999999990163v9.129899999999907ZM762.242175029618011,423.591800000001967h-8.767599778509975v-15.117700000000696h-102.023397422670314v15.995099999998274h-9.566399758339685v-24.538099999997939h12.560499682698719v-44.550699999999779c6.914099825331505-.681200000000899,14.48439963409146-3.968300000000454,22.712899426231161-9.858400000000984l4.820299878219885,6.718700000001263c-4.429699888090909,4.089399999998932-10.468699735540213,7.182099999998172-18.113299542419554,9.274899999998524v6.134799999999814h18.697299527670111v7.595699999999852h-18.697299527670111v7.959900000001653h18.697299527670111v7.4487999999983h-18.697299527670111v9.276300000001356h77.632822485169527v-9.276300000001356h-17.818323996210893v-7.30370000000039h17.818323996210893v-8.54399999999805h-17.673823999859451v-7.448700000000827h17.673823999859451v-7.960500000001048h-20.667923924220304v-8.837400000000343h29.943299243570436v49.224200000000565h11.468799710270105v23.80710000000181ZM723.431576010058052,391.864700000001903l-6.654299831900062,6.083999999998923c-3.037099923280039-4.563500000000204-7.382799813491147-10.276300000001356-11.585899707321005-13.82470000000103-6.533199834948391,7.279300000001967-11.90629969920883,11.912100000001374-16.105499593139029,13.893100000001141l-6.583999833670532-5.528299999999945c4.949299874970166-2.354499999999462,10.316399739389453-6.752000000000407,16.107499593090324-13.203199999999924-6.583999833659618-4.101500000000669-11.27537663710973-6.637199999999211-14.076199644410735-7.605900000000474l5.744099854900924-5.940399999999499c2.333999941029106.922300000000178,6.718799830268836,3.315899999999601,13.165999667398864,7.189899999999398,1.916099951591605-3.135700000000725,3.406299913940529-6.568400000000111,4.480499886811231-10.302299999999377h-21.990199444480822v-8.638100000000122h11.788999702181172v-8.896999999999025h7.56642334047865v8.896999999999025h13.992176114910762v8.638100000000122h-2.769499930040183c-1.554676184870914,5.718299999998635-3.646499907879843,10.671399999999267-6.275399841470062,14.862800000000789,5.08989987142013,3.870199999997567,9.97459974802041,9.767099999999118,13.195299666660503,14.375Z"/><path class="uuid-7b21e4c5-ccc2-4da2-9b05-8b83577c86bd" d="M935.310499999997774,379.33640000000014l-5.257799999999406,7.594700000001467c-16.603499999990163-4.090299999999843-29.601500000000669-8.812900000000809-38.998000000001412-14.167900000000373v6.573199999998906h-49.371099999998478v-7.231899999998859c-14.216800000000148,7.352999999999156-26.972700000000259,12.149900000000343-38.269600000001446,14.388199999999415l-4.818299999998999-7.667999999999665c27.361299999998664-6.66990000000078,50.146499999998923-17.819800000001123,68.357399999998961-33.44970000000103l8.98240000000078,2.99460000000181c-.974599999999555,1.21730000000025-1.826100000000224,2.070299999999406-2.556599999999889,2.555199999998877,16.164099999999962,13.438500000000204,36.808600000000297,22.909200000000055,61.931599999999889,28.411599999999453ZM919.753899999997884,421.18210000000181h-106.041000000001077v-34.251000000000204h106.041000000001077v34.251000000000204ZM911.064399999997477,477.270500000000538h-8.98240000000078v-5.842800000000352h-70.548799999998664v5.842800000000352h-8.98240000000078v-48.420400000000882h88.513600000000224v48.420400000000882ZM862.351499999997031,413.29490000000078v-18.257300000001123h-39.656199999999444v18.257300000001123h39.656199999999444ZM902.081999999996697,446.305700000000797v-9.420500000000175h-70.548799999998664v9.420500000000175h70.548799999998664ZM902.081999999996697,463.541500000001179v-9.568400000000111h-70.548799999998664v9.568400000000111h70.548799999998664ZM852.638699999997698,406.064400000001115l-7.521500000000742,5.25879999999961c-4.527399999999034-4.575200000001132-8.958999999998923-7.959899999999834-13.292999999988751-10.150800000001254l7.595699999988938-4.382399999998597c5.160200000000259,2.190500000000611,9.566399999999703,5.283199999999852,13.218800000000556,9.274400000000242ZM888.060499999997774,371.229999999999563c-7.060499999999593-3.700699999997596-13.902299999999741-8.691899999997986-20.523400000000038-14.973199999998542-7.060600000000704,5.84230000000025-14.970699999999852,10.834000000000742-23.734399999999368,14.973199999998542h44.257799999999406ZM910.773399999998219,413.29490000000078v-18.257300000001123h-39.4375v18.257300000001123h39.4375ZM901.935499999997774,399.345700000001671c-2.872999999999593,4.577099999998609-7.207000000000335,8.473099999999249-13,11.685499999999593l-8.033199999999852-4.016999999999825c6.378899999999703-3.602100000000064,10.759799999999814-7.206099999999424,13.144599999999627-10.808600000000297l7.888600000000224,3.14010000000053Z"/><path class="uuid-7b21e4c5-ccc2-4da2-9b05-8b83577c86bd" d="M197.623671613328042,281.63130000000092l-2.640599933300109,3.510800000000017c-10.179699742840967-3-18.441399534131051-7.039600000000064-24.779299374020411-12.120100000000093-5.462899861999176,4.460399999999936-14.040999645299962,8.580500000000029-25.7421791200195,12.360800000000381l-2.939420155429616-3.570300000001225c11.320299714028806-3.139699999999721,19.880799497768749-6.949699999999211,25.681599351228215-11.430199999998877-5.820299852959579-5.5-9.732399754138896-12.189900000001217-11.730499703659007-20.070299999999406-1.079999972720543,2.77980000000025-2.562499935269443,5.419899999998961-4.441399887800799,7.919899999998961l-3.177699919728184-2.909200000000055c2.519499936359352-3.001400000001013,4.546899885139283-6.29149999999936,6.087899846219443-9.870999999999185h-10.320299739300026v-3.690000000000509h24.062499392130121v-10.260199999998804h3.869099902260132v10.200199999999313h24.480499381568734v3.689399999999296h-10.261699740760378c-1.798899954559602,10.44090000000142-5.937499850009772,18.75-12.419999686248048,24.930199999998877,5.900420959518669,4.480900000002293,13.990299646578933,8.251400000001013,24.271499386859432,11.31000000000131ZM181.75259318598728,245.391100000000733h-23.218720585180563c1.597599959641229,9.260699999998906,5.507799860861269,16.709999999999127,11.728499703720445,22.35109999999986,6.080099846400117-5.66019999999844,9.910220881471105-13.110899999999674,11.490220881460118-22.35109999999986Z"/><path class="uuid-7b21e4c5-ccc2-4da2-9b05-8b83577c86bd" d="M341.644792562527073,274.641100000000733h-24.152299389859763v4.171399999999267c0,4.459500000000844-2.369199940148974,6.690399999999499-7.109399820399631,6.690399999999499h-3.990199899199069l-1.468799962900448-3.690399999999499h5.578122181279468c1.960999999999331,0,2.941477603499152-.900399999998626,2.941477603499152-2.699699999999211v-4.471700000000055h-26.339899334598158v-3.75h26.339899334598158v-2.579099999999016c4.179599894410785-1.559600000000501,7.169899818871272-3.020000000000437,8.968699773431581-4.380900000000111h-22.980499419460102v-3.450100000001839h29.640699251209298v3.270000000000437c-3.119199921200561,2.121100000000297-6.980499823659557,4.291000000001077-11.580099707460249,6.510700000000725v.629399999999805h24.152299389859763v3.75ZM339.125292626176815,263.511700000000928h-3.601599909019569v-6.209499999999025h-41.912098941209479v6.569399999998495h-3.929699900731066v-10.079599999999118h5.160199869640564v-18.300800000000891c2.839799928269713-.278800000000047,5.951199849660043-1.629899999999907,9.331999764261127-4.049800000000687l1.978499950018886,2.760300000001735c-1.818299954069516,1.680599999999686-4.300699891360637,2.950099999998201-7.441377787688907,3.809999999999491v2.519500000000335h7.681677781620238v3.120599999998376h-7.681677781620238v3.270599999999831h7.681677781620238v3.058600000000297h-7.681677781620238v3.811000000001513h31.89257716999964v-3.811000000001513h-7.322299815021324v-3h7.322299815021324v-3.509299999997893h-7.259799816600207v-3.060100000000602h7.259799816600207v-3.270500000000538h-8.490199785521327v-3.629399999999805h12.298799689300722v20.22019999999975h4.712899880949408v9.77980000000025ZM322.113593055926685,240.231900000000678l-2.101599946909118,2.578599999998914c-1.138699971219467-1.099599999997736-2.689399932060041-2.288499999998749-4.64839988256972-3.569299999999203-1.621099959049388,1.35989999999947-3.441377555000145,2.60989999999947-5.460999862050812,3.75l-2.458899937879323-2.159199999998236c1.939399951010273-.800800000000891,3.638599908090328-1.740200000000186,5.09959987116963-2.820300000001225-2.441399938319591-.919899999998961-4.412077626240716-1.559999999999491-5.910199850690333-1.920899999999165l1.531299961319746-2.760200000000623c2.218699943950924.560499999999593,4.449199887600116,1.280699999999342,6.689399831011542,2.160599999999249,1.419899964130309-1.338400000000547,2.609422432118663-2.709999999999127,3.568422432119405-4.110300000000279l2.521477414040419,2.010200000000623c-.80079997977009,1.239799999999377-1.841799953479494,2.451199999999517-3.119199921209656,3.630900000000111,1.478499962649948.838799999999537,2.908199926529051,1.909100000000763,4.28909989164822,3.209899999999834ZM322.472993046847478,251.151799999999639l-2.51959993634955,1.979500000001281c-1.619099959099913-1.240200000000186-3.30079991661114-2.270000000000437-5.040999872649991-3.089799999999741-1.080099972719836.819799999999304-2.999999924220901,1.849599999999555-5.75979985450067,3.089799999999741l-2.281199942370222-1.800699999999779c2.581999934769556-1.219300000000658,4.431599888050187-2.278800000000047,5.550822230470658-3.178800000001502-1.119222342420471-.700099999998201-2.820322299450709-1.479400000000169-5.099622241870748-2.339799999997922l2.249999943160219-1.891100000000733c2.06049994795103.740700000000288,3.820299903491104,1.511200000000827,5.281199866591123,2.310999999999694.560599985828958-.320299999999406,1.68949995731964-1.27980000000025,3.388699914388781-2.880800000000818l2.759722517730552,1.410600000001068c-1.019522561689882,1.319799999999304-2.158222532909349,2.410699999998542-3.417922501099383,3.269500000000335,1.658199958108526.759799999999814,3.287099916969964,1.799399999999878,4.888699876499231,3.120599999998376Z"/><path class="uuid-7b21e4c5-ccc2-4da2-9b05-8b83577c86bd" d="M444.008664564087667,251.901400000000649c4.040999897910297,4.539999999999054,6.062499846850187,8.970699999999852,6.062499846850187,13.290500000000975,0,2.100099999999657-.544899986240125,3.770499999998719-1.636676219610308,5.009799999999814-1.087923711560506,1.240699999998469-2.613323673029299,1.860799999998562-4.574223623489161,1.860799999998562-1.080099972721655,0-2.380899939860683-.131399999998393-3.900399901460332-.389699999999721l-1.109376475051249-3.991699999998673c2.140576448990032.541999999999462,3.679676410110915.811599999999089,4.619076386381494.811599999999089.779299980309588,0,1.490299962350036-.300799999999072,2.130923613618506-.900899999998728.640576316360239-.599100000001272.960876308270599-1.399400000002061.960876308270599-2.399900000000343,0-1.499500000001717-.550699986089967-3.419400000000678-1.650399958309208-5.760800000000017-1.101476349960649-2.339299999999639-2.751899930481159-4.569800000001123-4.951099874910142-6.688900000001013l5.851499852169582-15.031299999998737h-8.910099774910123v47.791999999997643h-3.931699900680542v-51.60149999999885h16.830099574830456v3.809500000001208l-5.790999853699759,14.190499999998792ZM485.381763518917069,274.492700000000696c-.52149998682944,3.239700000000084-1.220799969159998,5.590299999999843-2.101599946909118,7.049300000000585-.878899977789843,1.460399999999936-2.310599941629334,2.190399999999499-4.289099891650039,2.190399999999499h-4.679699881780834c-3.121099921148925,0-4.679599881788818-1.640599999998813-4.679599881788818-4.91990000000078v-15.870100000000093h-6.332099840030423c-.119099997000376,6.439900000001217-1.374999965270035,11.264100000000326-3.763699904920941,14.475099999999657-2.390599939608364,3.209400000001551-6.824199827609846,5.905200000001059-13.306599663848829,8.085399999999936l-2.519499936350257-3.451099999998405c6.019499847929183-1.779300000000148,10.150399743590242-4.08009999999922,12.390623619688995-6.900000000001455,2.240176010700452-2.819799999997485,3.36907598218022-6.870100000000093,3.390575981640723-12.149399999998423h-8.220699792329469v-3.931100000001607h32.132799188259014v3.871100000000297h-10.023399746789437v14.940400000001318c0,.499499999999898.16019999594937.964900000000853.480499987870644,1.394500000000335.320299991899446.430699999998978.701099982279629.64509999999791,1.140599971178744.64509999999791h3.810499903740492c.779299980309588,0,1.374999965259121-.640699999999924,1.785199954900236-1.919999999998254.40819998968982-1.279300000000148.753924551529053-2.939900000001217,1.035199973850467-4.980400000000373l3.749999905268851,1.470699999999852ZM481.930563606098076,247.281200000001263l-3.808599903790309.061099999998987v-5.281800000000658h-22.62109942853931v5.281800000000658h-3.871099902211427v-9.091300000000047h13.169899667311256v-6.809600000000501h3.931699900669628v6.750500000001921h13.199199666560162v9.089299999999639ZM476.89148819132788,253.07129999999961h-20.281223945590682v-3.930199999998877h20.281223945590682v3.930199999998877Z"/><path class="uuid-7b21e4c5-ccc2-4da2-9b05-8b83577c86bd" d="M631.248497528098596,274.641100000000733h-24.152299999990646v4.171399999999267c0,4.459500000000844-2.371100000011211,6.690399999999499-7.109400000010282,6.690399999999499h-3.990199999989272l-1.470700000010766-3.690399999999499h5.58009999999922c1.960900000000038,0,2.941400000001522-.900399999998626,2.941400000001522-2.699699999999211v-4.471700000000055h-26.341824835330044v-3.75h26.341824835330044v-2.579099999999016c4.179700000009689-1.559600000000501,7.169900000009875-3.020000000000437,8.968699999999444-4.380900000000111h-22.980525146809669v-3.450100000001839h29.640725146809928v3.270000000000437c-3.119200000001001,2.121100000000297-6.980499999999665,4.291000000001077-11.580099999990125,6.510700000000725v.629399999999805h24.152299999990646v3.75ZM628.727097528108061,263.511700000000928h-3.599700000009761v-6.209499999999025h-41.910124999820255v6.569399999998495h-3.931699900691456v-10.079599999999118h5.162199869591859v-18.300800000000891c2.837799928318418-.278800000000047,5.949199849708748-1.629899999999907,9.328125030919182-4.049800000000687l1.980499999999665,2.760300000001735c-1.820399999998699,1.680599999999686-4.298925207998764,2.950099999998201-7.439525128660534,3.809999999999491v2.519500000000335h7.679725128671635v3.120599999998376h-7.679725128671635v3.270599999999831h7.679725128671635v3.058600000000297h-7.679725128671635v3.811000000001513h31.890625128660758v-3.811000000001513h-7.320299999999406v-3h7.320299999999406v-3.509299999997893h-7.259700000000521v-3.060100000000602h7.259700000000521v-3.270500000000538h-8.490199999989272v-3.629399999999805h12.298799999989569v20.22019999999975h4.711000000010245v9.77980000000025ZM611.717297528108247,240.231900000000678l-2.101600000010876,2.578599999998914c-1.140600000000632-1.099599999997736-2.689399999999296-2.288499999998749-4.650400000000445-3.569299999999203-1.619099999988975,1.35989999999947-3.439399999999296,2.60989999999947-5.45889999999963,3.75l-2.460999999999331-2.159199999998236c1.941399999999703-.800800000000891,3.64259999999922-1.740200000000186,5.101599999999962-2.820300000001225-2.441399999999703-.919899999998961-4.410200000000259-1.559999999999491-5.910200000000259-1.920899999999165l1.529300000000148-2.760200000000623c2.220699999999852.560499999999593,4.451200000010431,1.280699999999342,6.689500000000407,2.160599999999249,1.419899999998961-1.338400000000547,2.611299999998664-2.709999999999127,3.572199999998702-4.110300000000279l2.519600000001446,2.010200000000623c-.800799999989977,1.239799999999377-1.841800000000148,2.451199999999517-3.121100000000297,3.630900000000111,1.480399999998554.838799999999537,2.910100000010061,1.909100000000763,4.291000000010172,3.209899999999834ZM612.076697528098521,251.151799999999639l-2.519600000001446,1.979500000001281c-1.621099999998478-1.240200000000186-3.300699999999779-2.270000000000437-5.03899999999885-3.089799999999741-1.082099999999627.819799999999304-3,1.849599999999555-5.761700000000928,3.089799999999741l-2.279299999989234-1.800699999999779c2.579999999989013-1.219300000000658,4.429599999988568-2.278800000000047,5.550699999988865-3.178800000001502-1.121100000000297-.700099999998201-2.822199999998702-1.479400000000169-5.10149999999885-2.339799999997922l2.25-1.891100000000733c2.060499999999593.740700000000288,3.82030000001032,1.511200000000827,5.279300000000148,2.310999999999694.560499999999593-.320299999999406,1.689399999999296-1.27980000000025,3.390600000009727-2.880800000000818l2.7597999999889,1.410600000001068c-1.019599999988714,1.319799999999304-2.16019999999844,2.410699999998542-3.419999999998254,3.269500000000335,1.660200000009354.759799999999814,3.291100000009465,1.799399999999878,4.890699999999924,3.120599999998376Z"/><path class="uuid-7b21e4c5-ccc2-4da2-9b05-8b83577c86bd" d="M776.243256039928383,282.502400000001217h-54.599600000001374v-3.869599999999991h25.439400000001115v-14.070799999999508h-18.329999999999927v-3.870100000000093h18.329999999999927v-12.240200000000186h-13.589799999999741c-1.640600000000632,4.259200000000419-4.380900000000111,8.189399999999296-8.220699999999852,11.789499999998952l-3.958999999991647-2.070299999999406c6.558600000011211-6.059600000000501,10.208999999991647-13.47899999999936,10.949199999990014-22.259299999999712l4.050800000009986,1.169899999998961c-.160200000020268,2.040100000000166-.6309000000183,4.559600000000501-1.41210000000865,7.559600000000501h12.122999999999593v-13.139599999998609h4.048899999990681v13.079999999998108h21.179700000009689v3.870200000001205h-21.179700000009689v12.179599999999482h18.060499999999593v3.870200000001205h-18.060499999999593v14.071199999998498h25.169900000009875v3.929700000000594Z"/><path class="uuid-7b21e4c5-ccc2-4da2-9b05-8b83577c86bd" d="M921.659826969427741,245.330600000001141l-2.158199999999852,3.121100000000297c-6.820300000001225-1.679700000000594-12.162099999999555-3.619699999999284-16.021499999989828-5.820400000000518v2.699300000000221h-20.281200000010358v-2.969300000000658c-5.839799999999741,3.02100000000064-11.080100000001039,4.989799999999377-15.718799999989642,5.910700000000361l-1.980400000011286-3.150400000000445c11.240200000000186-2.740700000000288,20.599600000001374-7.320799999999508,28.080100000001039-13.740700000000288l3.689399999999296,1.230400000000373c-.400400000000445.5-.75.85109999999986-1.048799999998664,1.050300000000789,6.638699999999517,5.519500000000335,15.121099999998478,9.409699999998338,25.439399999999296,11.668999999999869ZM915.271226969427516,262.522500000000946h-43.560599999998885v-14.070799999999508h43.560599999998885v14.070799999999508ZM911.700826969426998,285.562000000001717h-3.691399999999703v-2.399900000000343h-28.980400000000373v2.399900000000343h-3.689499999998588v-19.889600000002247h36.361299999998664v19.889600000002247ZM891.689126969427889,259.281200000001263v-7.5h-16.289000000000669v7.5h16.289000000000669ZM908.009426969427295,272.84230000000025v-3.870599999998376h-28.980400000000373v3.870599999998376h28.980400000000373ZM908.009426969427295,279.92239999999947v-3.929699999998775h-28.980400000000373v3.929699999998775h28.980400000000373ZM887.698926969427703,256.312000000001717l-3.089799999999741,2.159700000000157c-1.859400000001187-1.87840000000142-3.67969999998968-3.269600000001446-5.459000000000742-4.169499999999971l3.119099999999889-1.799800000000687c2.121100000000297.898999999999432,3.929700000000594,2.169999999998254,5.429700000000594,3.809600000000501ZM902.249726969426774,242.002400000001217c-2.900399999998626-1.520000000000437-5.708999999998923-3.57129999999961-8.429699999998775-6.15230000000156-2.902399999989939,2.400900000000547-6.150400000000445,4.452100000002247-9.75,6.15230000000156h18.179699999998775ZM911.579826969427813,259.281200000001263v-7.5h-16.199300000000221v7.5h16.199300000000221ZM907.950826969426998,253.551800000001094c-1.181599999999889,1.879300000000512-2.960900000000038,3.479400000000169-5.341699999999037,4.799299999998766l-3.298899999999776-1.648999999999432c2.619200000010096-1.480399999998554,4.419900000009875-2.960900000000038,5.400400000000445-4.440399999999499l3.240199999998367,1.290100000000166Z"/><text class="uuid-72ba20b9-c399-436b-9d8e-41f4aa4cd819" transform="translate(1556.809306483757609 573.752031013165833)"><tspan x="0" y="0" xml:space="preserve">Session 20  –20  </tspan></text><text class="uuid-83bb00aa-8c2a-4021-89c5-42b0a23dc489" transform="translate(275.316630702507609 584.532304450665833)"><tspan x="0" y="0">二零　　至二零　　年度</tspan></text></g></svg>