<?xml version="1.0" encoding="UTF-8"?><svg id="uuid-91e1b31b-e031-4720-bcc5-1e4508613017" xmlns="http://www.w3.org/2000/svg" width="944.934913308501564mm" height="250.00126013424628mm" xmlns:xlink="http://www.w3.org/1999/xlink" viewBox="0 0 2678.555700000000797 708.664999999999054"><defs><style>.uuid-19c9cd6f-47ef-4a5a-9e0a-e66841d1ee7e{fill:#fff;}.uuid-e2ec1f07-8cfe-466b-89c2-53737b55c407{fill:none;}.uuid-0dfd570d-9bf5-477d-8905-945def3996ef{fill:#333e48;}.uuid-7d1176c2-756f-4730-b8d2-3efffdd416b3{fill:#9f9ea7;}.uuid-e4b85653-666c-49ea-83b2-cd451c07a45c{clip-path:url(#uuid-8e6096b0-49d7-4e00-95ad-e5704b902eb6);}.uuid-915ad908-bc02-414c-903e-697ab5d07458{fill:#5a5c66;}.uuid-bd60562b-ff61-4462-9e7b-48ed03f33386{fill:#858591;}</style><clipPath id="uuid-8e6096b0-49d7-4e00-95ad-e5704b902eb6"><rect class="uuid-e2ec1f07-8cfe-466b-89c2-53737b55c407" width="2678.555700000000797" height="708.664999999999054"/></clipPath></defs><g class="uuid-e4b85653-666c-49ea-83b2-cd451c07a45c"><rect class="uuid-e2ec1f07-8cfe-466b-89c2-53737b55c407" x="1761.57618281249961" y="324.373996874999648" width="792" height="79.416015625"/><path class="uuid-0dfd570d-9bf5-477d-8905-945def3996ef" d="M1829.69434687499961,379.381809374999648v7.7763671875h-64.0859375v-7.7763671875h64.0859375ZM1823.64551874999961,337.114231249999648v7.416015625h-51.98828125v-7.416015625h51.98828125Z"/><path class="uuid-0dfd570d-9bf5-477d-8905-945def3996ef" d="M1866.12305781249961,337.978489062499648v-3.384765625h-23.1142578125v-4.96875h52.9970703125v4.96875h-23.1865234375v3.384765625h27.9384765625v12.9609375h-6.408203125v-8.4970703125h-21.5302734375v11.376953125h-2.015625l4.6083984375,2.232421875-1.5126953125,1.15234375c6.7685546875,3.3837890625,18.7216796875,6.7685546875,29.5947265625,8.2080078125-1.3681640625,1.296875-3.16796875,3.888671875-4.0322265625,5.47265625-4.96875-.8642578125-10.0810546875-2.232421875-14.9052734375-3.8876953125v2.591796875h-29.955078125v-2.736328125c-4.4638671875,1.728515625-9,3.16796875-13.1767578125,4.392578125-1.2958984375-1.3681640625-3.744140625-3.6728515625-5.328125-4.7529296875,11.80859375-2.591796875,24.6982421875-7.1279296875,32.474609375-12.6728515625h-2.4482421875v-11.376953125h-21.4580078125v8.4970703125h-6.1201171875v-12.9609375h27.578125ZM1848.98536249999961,343.018528124999648c4.46484375.7197265625,10.6572265625,2.232421875,13.9697265625,3.3837890625l-1.65625,3.6005859375,1.7998046875-.431640625.50390625,4.0322265625c-6.1201171875,1.728515625-12.1689453125,3.3837890625-17.353515625,4.82421875l-1.8720703125-4.896484375c4.248046875-.7197265625,10.0087890625-2.087890625,16.1298828125-3.3837890625-3.384765625-1.224609375-9.0732421875-2.736328125-13.3935546875-3.6005859375l1.8720703125-3.5283203125ZM1886.28516718749961,372.468723437499648l1.0078125-.359375,4.3203125,2.736328125c-3.384765625,4.4638671875-8.9287109375,8.7841796875-14.11328125,12.0244140625l5.904296875,2.5927734375-2.9521484375,4.82421875c-5.6162109375-2.880859375-16.921875-7.6328125-25.1298828125-10.7294921875l2.8798828125-4.103515625c3.6728515625,1.2958984375,8.208984375,3.0234375,12.529296875,4.6796875,3.3837890625-1.65625,7.2724609375-4.1044921875,10.296875-6.552734375h-35.859375v-5.1123046875h41.1162109375ZM1880.37989374999961,365.412082812499648c-4.3203125-1.7275390625-8.13671875-3.599609375-11.0888671875-5.328125-3.3837890625,1.9443359375-7.1279296875,3.744140625-11.0166015625,5.328125h22.10546875ZM1876.92383906249961,349.138645312499648l.7197265625.14453125-1.7998046875-2.736328125c4.1044921875-.6484375,10.224609375-2.5927734375,13.7529296875-3.744140625l2.736328125,3.671875c-3.744140625,1.4404296875-8.8564453125,2.5205078125-12.888671875,3.240234375,5.328125,1.15234375,11.5927734375,2.9521484375,15.193359375,4.3203125l-1.65625,4.2490234375c-4.1044921875-1.728515625-11.880859375-4.0322265625-17.7861328125-5.47265625l1.728515625-3.6728515625Z"/><path class="uuid-0dfd570d-9bf5-477d-8905-945def3996ef" d="M1973.69434687499961,379.381809374999648v7.7763671875h-64.0859375v-7.7763671875h64.0859375ZM1967.64551874999961,337.114231249999648v7.416015625h-51.98828125v-7.416015625h51.98828125Z"/><path class="uuid-0dfd570d-9bf5-477d-8905-945def3996ef" d="M2010.12305781249961,337.978489062499648v-3.384765625h-23.1142578125v-4.96875h52.9970703125v4.96875h-23.1865234375v3.384765625h27.9384765625v12.9609375h-6.408203125v-8.4970703125h-21.5302734375v11.376953125h-2.015625l4.6083984375,2.232421875-1.5126953125,1.15234375c6.7685546875,3.3837890625,18.7216796875,6.7685546875,29.5947265625,8.2080078125-1.3681640625,1.296875-3.16796875,3.888671875-4.0322265625,5.47265625-4.96875-.8642578125-10.0810546875-2.232421875-14.9052734375-3.8876953125v2.591796875h-29.955078125v-2.736328125c-4.4638671875,1.728515625-9,3.16796875-13.1767578125,4.392578125-1.2958984375-1.3681640625-3.744140625-3.6728515625-5.328125-4.7529296875,11.80859375-2.591796875,24.6982421875-7.1279296875,32.474609375-12.6728515625h-2.4482421875v-11.376953125h-21.4580078125v8.4970703125h-6.1201171875v-12.9609375h27.578125ZM1992.98536249999961,343.018528124999648c4.46484375.7197265625,10.6572265625,2.232421875,13.9697265625,3.3837890625l-1.65625,3.6005859375,1.7998046875-.431640625.50390625,4.0322265625c-6.1201171875,1.728515625-12.1689453125,3.3837890625-17.353515625,4.82421875l-1.8720703125-4.896484375c4.248046875-.7197265625,10.0087890625-2.087890625,16.1298828125-3.3837890625-3.384765625-1.224609375-9.0732421875-2.736328125-13.3935546875-3.6005859375l1.8720703125-3.5283203125ZM2030.28516718749961,372.468723437499648l1.0078125-.359375,4.3203125,2.736328125c-3.384765625,4.4638671875-8.9287109375,8.7841796875-14.11328125,12.0244140625l5.904296875,2.5927734375-2.9521484375,4.82421875c-5.6162109375-2.880859375-16.921875-7.6328125-25.1298828125-10.7294921875l2.8798828125-4.103515625c3.6728515625,1.2958984375,8.208984375,3.0234375,12.529296875,4.6796875,3.3837890625-1.65625,7.2724609375-4.1044921875,10.296875-6.552734375h-35.859375v-5.1123046875h41.1162109375ZM2024.37989374999961,365.412082812499648c-4.3203125-1.7275390625-8.13671875-3.599609375-11.0888671875-5.328125-3.3837890625,1.9443359375-7.1279296875,3.744140625-11.0166015625,5.328125h22.10546875ZM2020.92383906249961,349.138645312499648l.7197265625.14453125-1.7998046875-2.736328125c4.1044921875-.6484375,10.224609375-2.5927734375,13.7529296875-3.744140625l2.736328125,3.671875c-3.744140625,1.4404296875-8.8564453125,2.5205078125-12.888671875,3.240234375,5.328125,1.15234375,11.5927734375,2.9521484375,15.193359375,4.3203125l-1.65625,4.2490234375c-4.1044921875-1.728515625-11.880859375-4.0322265625-17.7861328125-5.47265625l1.728515625-3.6728515625Z"/><path class="uuid-0dfd570d-9bf5-477d-8905-945def3996ef" d="M2088.96387812499961,358.211887499999648v8.4248046875h22.826171875v6.2646484375h-22.826171875v11.953125h29.162109375v6.3359375h-64.8779296875v-6.3359375h28.5869140625v-11.953125h-22.10546875v-6.2646484375h22.10546875v-8.4248046875h7.12890625ZM2058.00098749999961,351.227512499999648c1.51171875-.2880859375,3.095703125-1.4404296875,5.0400390625-3.3125,1.583984375-1.3681640625,5.7607421875-5.7607421875,9.6494140625-10.873046875h-17.7138671875v-6.3369140625h60.7734375v6.3369140625h-34.130859375c-3.81640625,4.96875-7.9208984375,9.5771484375-11.953125,13.3935546875l30.2421875-1.080078125c-2.6640625-2.376953125-5.400390625-4.7529296875-7.9921875-6.7685546875l5.400390625-3.6728515625c6.48046875,4.896484375,14.689453125,11.953125,18.6494140625,16.921875l-5.9765625,4.17578125c-1.080078125-1.439453125-2.5205078125-3.16796875-4.248046875-4.9677734375-38.1630859375,1.6552734375-42.4833984375,1.7998046875-45.5078125,2.8076171875-.3603515625-1.439453125-1.4404296875-4.82421875-2.232421875-6.6240234375Z"/><path class="uuid-0dfd570d-9bf5-477d-8905-945def3996ef" d="M2189.69434687499961,379.381809374999648v7.7763671875h-64.0859375v-7.7763671875h64.0859375ZM2183.64551874999961,337.114231249999648v7.416015625h-51.98828125v-7.416015625h51.98828125Z"/><path class="uuid-0dfd570d-9bf5-477d-8905-945def3996ef" d="M2226.12305781249961,337.978489062499648v-3.384765625h-23.1142578125v-4.96875h52.9970703125v4.96875h-23.1865234375v3.384765625h27.9384765625v12.9609375h-6.408203125v-8.4970703125h-21.5302734375v11.376953125h-2.015625l4.6083984375,2.232421875-1.5126953125,1.15234375c6.7685546875,3.3837890625,18.7216796875,6.7685546875,29.5947265625,8.2080078125-1.3681640625,1.296875-3.16796875,3.888671875-4.0322265625,5.47265625-4.96875-.8642578125-10.0810546875-2.232421875-14.9052734375-3.8876953125v2.591796875h-29.955078125v-2.736328125c-4.4638671875,1.728515625-9,3.16796875-13.1767578125,4.392578125-1.2958984375-1.3681640625-3.744140625-3.6728515625-5.328125-4.7529296875,11.80859375-2.591796875,24.6982421875-7.1279296875,32.474609375-12.6728515625h-2.4482421875v-11.376953125h-21.4580078125v8.4970703125h-6.1201171875v-12.9609375h27.578125ZM2208.98536249999961,343.018528124999648c4.46484375.7197265625,10.6572265625,2.232421875,13.9697265625,3.3837890625l-1.65625,3.6005859375,1.7998046875-.431640625.50390625,4.0322265625c-6.1201171875,1.728515625-12.1689453125,3.3837890625-17.353515625,4.82421875l-1.8720703125-4.896484375c4.248046875-.7197265625,10.0087890625-2.087890625,16.1298828125-3.3837890625-3.384765625-1.224609375-9.0732421875-2.736328125-13.3935546875-3.6005859375l1.8720703125-3.5283203125ZM2246.28516718749961,372.468723437499648l1.0078125-.359375,4.3203125,2.736328125c-3.384765625,4.4638671875-8.9287109375,8.7841796875-14.11328125,12.0244140625l5.904296875,2.5927734375-2.9521484375,4.82421875c-5.6162109375-2.880859375-16.921875-7.6328125-25.1298828125-10.7294921875l2.8798828125-4.103515625c3.6728515625,1.2958984375,8.208984375,3.0234375,12.529296875,4.6796875,3.3837890625-1.65625,7.2724609375-4.1044921875,10.296875-6.552734375h-35.859375v-5.1123046875h41.1162109375ZM2240.37989374999961,365.412082812499648c-4.3203125-1.7275390625-8.13671875-3.599609375-11.0888671875-5.328125-3.3837890625,1.9443359375-7.1279296875,3.744140625-11.0166015625,5.328125h22.10546875ZM2236.92383906249961,349.138645312499648l.7197265625.14453125-1.7998046875-2.736328125c4.1044921875-.6484375,10.224609375-2.5927734375,13.7529296875-3.744140625l2.736328125,3.671875c-3.744140625,1.4404296875-8.8564453125,2.5205078125-12.888671875,3.240234375,5.328125,1.15234375,11.5927734375,2.9521484375,15.193359375,4.3203125l-1.65625,4.2490234375c-4.1044921875-1.728515625-11.880859375-4.0322265625-17.7861328125-5.47265625l1.728515625-3.6728515625Z"/><path class="uuid-0dfd570d-9bf5-477d-8905-945def3996ef" d="M2333.69434687499961,379.381809374999648v7.7763671875h-64.0859375v-7.7763671875h64.0859375ZM2327.64551874999961,337.114231249999648v7.416015625h-51.98828125v-7.416015625h51.98828125Z"/><path class="uuid-0dfd570d-9bf5-477d-8905-945def3996ef" d="M2406.84571406249961,355.907199999999648v7.4892578125h-66.2451171875v-7.4892578125h66.2451171875Z"/><path class="uuid-0dfd570d-9bf5-477d-8905-945def3996ef" d="M2424.48145624999961,371.100559374999648v-19.1533203125h21.3857421875v-10.0810546875h-16.6337890625c-3.240234375,5.400390625-6.83984375,10.224609375-10.583984375,13.8974609375-1.296875-1.224609375-4.1767578125-3.4560546875-5.8330078125-4.392578125,6.6962890625-5.83203125,12.45703125-15.12109375,15.841796875-24.6982421875l6.912109375,1.80078125c-.8642578125,2.3037109375-1.7998046875,4.6083984375-2.8798828125,6.83984375h42.123046875v6.552734375h-21.9619140625v10.0810546875h20.3056640625v6.3369140625h-20.3056640625v12.81640625h25.634765625v6.625h-25.634765625v16.0576171875h-6.984375v-16.0576171875h-33.123046875v-6.625h11.7373046875ZM2445.86719843749961,371.100559374999648v-12.81640625h-14.6171875v12.81640625h14.6171875Z"/><path class="uuid-0dfd570d-9bf5-477d-8905-945def3996ef" d="M2522.18751093749961,326.529270312499648c1.15234375,2.16015625,2.3759765625,4.896484375,3.240234375,7.2001953125h24.6259765625v6.3369140625h-53.068359375v13.033203125c0,11.80859375-.935546875,29.08984375-6.984375,40.611328125-1.3681640625-1.0078125-4.46484375-2.4482421875-6.1923828125-3.0244140625,5.904296875-10.9453125,6.408203125-26.642578125,6.408203125-37.515625v-19.44140625h27.5068359375c-.720703125-1.8720703125-1.5126953125-3.9599609375-2.376953125-5.6162109375l6.8408203125-1.583984375ZM2539.46876093749961,368.436496874999648l1.224609375-.2880859375,4.248046875,2.232421875c-3.240234375,5.9765625-8.064453125,10.5126953125-14.041015625,13.8974609375,5.9765625,1.7998046875,12.8896484375,2.9521484375,20.2333984375,3.599609375-1.439453125,1.4404296875-3.095703125,4.1767578125-3.9599609375,5.9052734375-9.0009765625-1.0087890625-17.1376953125-2.9521484375-24.1220703125-5.8330078125-7.3447265625,2.736328125-15.697265625,4.392578125-24.337890625,5.400390625-.50390625-1.65625-1.728515625-4.248046875-2.80859375-5.759765625,6.9130859375-.576171875,13.7529296875-1.65625,19.8740234375-3.384765625-4.1044921875-2.5205078125-7.6328125-5.6162109375-10.44140625-9.216796875l2.736328125-1.080078125h-8.712890625v-5.47265625h40.107421875ZM2515.85157343749961,341.866184374999648v5.6162109375h15.625v-5.6162109375h6.6962890625v5.6162109375h11.0888671875v5.47265625h-11.0888671875v11.6650390625h-28.802734375v-11.6650390625h-10.80078125v-5.47265625h10.80078125v-5.6162109375h6.4814453125ZM2512.32325312499961,373.909153124999648c2.7353515625,3.0244140625,6.5517578125,5.544921875,11.0166015625,7.560546875,4.6083984375-1.9443359375,8.4970703125-4.4638671875,11.44921875-7.560546875h-22.4658203125ZM2515.85157343749961,352.955051562499648v6.4091796875h15.625v-6.4091796875h-15.625Z"/><rect class="uuid-0dfd570d-9bf5-477d-8905-945def3996ef" x="1633.968799999998737" y="222.213799999999537" width="3" height="264.237300000000687"/><path class="uuid-915ad908-bc02-414c-903e-697ab5d07458" d="M155.407199999999648,341.493099999999686c7.554700000000594,0,13.676799999999275,6.124099999999089,13.676799999999275,13.675799999999072-.001999999998588-.278299999998126-.011699999999109-.557599999998274-.011699999999109-.836899999998423,0-102.309600000000501,82.935499999999593-185.248999999999796,185.248999999999796-185.248999999999796,7.551800000001094,0,13.674800000000687-6.122100000000501,13.674800000000687-13.674800000000687,0-7.552799999999479-6.122999999999593-13.675800000000891-13.674800000000687-13.675800000000891-28.688500000000204,0-56.534200000000055,5.625-82.762699999999313,16.718700000001263-25.319299999999203,10.708999999998923-48.052700000000186,26.033199999999852-67.567399999999907,45.54989999999998-19.517600000001039,19.515599999998813-34.843700000001263,42.25-45.550800000000891,67.568299999998999-11.093699999999444,26.229500000001281-16.71769999999924,54.074200000000928-16.71769999999924,82.762700000001132,0,.279300000000148.007799999999406.558600000000297.009700000000521.836899999998423,0-7.551699999999983,6.121099999998478-13.675799999999072,13.674799999998868-13.675799999999072Z"/><path class="uuid-bd60562b-ff61-4462-9e7b-48ed03f33386" d="M340.645499999998719,553.255799999998999c0-7.552700000000186,6.122100000000501-13.675699999999779,13.675800000000891-13.675699999999779-102.032199999999648,0-184.787099999999555-82.486399999999776-185.237300000000687-184.411200000000463,0-7.551699999999983-6.122099999998682-13.675799999999072-13.676799999999275-13.675799999999072-7.55370000000039,0-13.674799999998868,6.124099999999089-13.674799999998868,13.675799999999072.108399999999165,28.393600000001243,5.72269999999844,55.95220000000154,16.707999999998719,81.924800000000687,10.707099999999627,25.318400000000111,26.033199999999852,48.052799999999479,45.550800000000891,67.568400000000111,19.514699999999721,19.51759999999922,42.248100000000704,34.841800000000148,67.567399999999907,45.550800000000891,26.228499999999258,11.094699999999648,54.074199999999109,16.719699999999648,82.762699999999313,16.719699999999648-7.55370000000039,0-13.675800000000891-6.123100000000704-13.675800000000891-13.676800000001094Z"/><path class="uuid-7d1176c2-756f-4730-b8d2-3efffdd416b3" d="M502.520499999998719,487.406199999999444c-5.343699999999444-5.341800000000148-14-5.341800000000148-19.341799999998329,0-33.340800000001764,32.289099999999962-78.775400000000445,52.173899999999776-128.85740000000078,52.173899999999776-7.55370000000039,0-13.675800000000891,6.122999999999593-13.675800000000891,13.675699999999779,0,7.55370000000039,6.122100000000501,13.676800000001094,13.675800000000891,13.676800000001094,28.689500000000407,0,56.533199999999852-5.625,82.760699999998906-16.719699999999648,24.407300000002579-10.322299999999814,46.400400000002264-24.947299999999814,65.438500000000204-43.466800000000148,5.339900000000853-5.339900000000853,5.339900000000853-14,0-19.339900000000853Z"/><path class="uuid-7d1176c2-756f-4730-b8d2-3efffdd416b3" d="M466.904300000000148,241.748999999999796c-30.071300000001429-30.072299999999814-70.055699999998978-46.630900000000111-112.585000000000946-46.630900000000111-42.526299999999537,0-82.511699999999109,16.558600000000297-112.581999999998516,46.630900000000111-30.07129999999961,30.072299999999814-46.634700000000521,70.055699999998978-46.634700000000521,112.583000000000538,0,42.529300000000148,16.563400000000911,82.507799999999406,46.634700000000521,112.581999999998516,30.070299999999406,30.071300000001429,70.055699999998978,46.635800000000017,112.581999999998516,46.635800000000017,42.529300000001967,0,82.513699999999517-16.564499999998588,112.585000000000946-46.635800000000017,30.070299999999406-30.074199999999109,46.629899999999907-70.052699999998367,46.629899999999907-112.581999999998516,0-42.52730000000156-16.559600000000501-82.510700000000725-46.629899999999907-112.583000000000538Z"/><path class="uuid-0dfd570d-9bf5-477d-8905-945def3996ef" d="M242.111300000000483,405.822200000000521v-102.977500000000873h22.333999999998923v7.612300000000687h-12.945299999999406v87.751999999998588h12.945299999999406v7.613200000001598h-22.333999999998923Z"/><path class="uuid-0dfd570d-9bf5-477d-8905-945def3996ef" d="M466.529300000000148,302.844699999999648v102.977500000000873h-22.330100000001039v-7.613200000001598h12.939500000000407v-87.751999999998588h-12.939500000000407v-7.612300000000687h22.330100000001039Z"/><path class="uuid-19c9cd6f-47ef-4a5a-9e0a-e66841d1ee7e" d="M293.980499999999665,375.251899999999296c0,2.055700000000797.032199999999648,4.483400000000984.095699999999852,7.270500000000538.0625,2.789099999999962.151400000000649,5.624099999999089.25879999999961,8.497100000000501.105400000000373,2.875.234300000000076,5.623099999998885.386700000000928,8.240200000000186.147500000000946,2.617199999998775.331000000000131,4.804699999998775.545899999999165,6.5625h-13.194299999999203v-72.730400000000373c0-6.262700000001132-.105500000001484-11.9375-.32129999999961-17.022500000000946-.212900000000445-5.085900000000038-.535200000000259-9.495100000000093-.965899999999237-13.224599999999555h13.194399999998495v72.407199999999648Z"/><path class="uuid-19c9cd6f-47ef-4a5a-9e0a-e66841d1ee7e" d="M351.585900000000038,340.172800000000279v8.433599999998478h-12.100500000000466v48.786200000000463h12.100500000000466v8.431599999999889h-36.040999999999258v-8.431599999999889h11.906299999998737v-48.786200000000463h-11.906299999998737v-8.433599999998478h36.040999999999258Z"/><path class="uuid-19c9cd6f-47ef-4a5a-9e0a-e66841d1ee7e" d="M378.619200000001001,340.172800000000279c.256799999999203.6875.514599999998609,1.576199999999517.771399999997811,2.673899999999776.260800000000017,1.09269999999924.492200000000594,2.239199999999983.709000000000742,3.440399999999499.211900000000242,1.201199999999517.405300000000352,2.381799999999203.580100000001039,3.541000000001077l.511699999999109,2.89259999999922c4.121100000000297-4.889699999999721,8.25879999999961-8.416999999999462,12.421900000001187-10.585000000000946,4.163099999997939-2.165999999999258,8.5-3.250999999998385,13.002899999999499-3.250999999998385,3.433600000000297,0,6.469699999999648.568400000000111,9.10740000000078,1.706099999999424,2.638699999999517,1.139600000000428,4.860399999997753,2.941399999999703,6.663099999997939,5.406199999999444,1.799800000000687,2.468800000000556,3.161200000000463,5.66610000000037,4.086900000002061,9.590900000001056.921899999997549,3.927700000000186,1.382899999998699,8.654299999998329,1.382899999998699,14.194299999999203v28.958000000000538c0,7.253899999999703-.634799999999814,13.273400000000038-1.900400000000445,18.054699999998775-1.263699999999517,4.787100000001374-3.036199999998644,8.605500000001484-5.308600000000297,11.460900000000038-2.273499999999331,2.849600000001374-5.010800000000017,4.867200000000594-8.207099999999627,6.046900000001187-3.196199999998498,1.181599999999889-6.746100000000297,1.769500000000335-10.652299999999741,1.769500000000335-1.929699999998775,0-4-.310500000001412-6.210900000000038-.931599999999889-2.208999999998923-.625-4.214899999999034-1.490200000000186-6.01759999999922-2.60740000000078l4.184600000000501-9.654300000000148c.986299999998664.728499999999258,2.305599999999686,1.339799999999741,3.957999999998719,1.835900000000038,1.651300000001356.492200000000594,3.336900000000242.738300000000891,5.050699999999779.738300000000891,2.0625,0,3.90730000000076-.332000000000335,5.539099999999962-.996100000000297,1.629899999999907-.666000000001077,3.011700000000928-1.834000000000742,4.148400000000038-3.507800000001225,1.136800000000221-1.673799999998664,2.006900000000314-3.968799999998737,2.608400000000984-6.886699999999109.599599999999555-2.91990000000078.900399999998626-6.630900000000111.900399999998626-11.134799999999814v-28.321300000001429c0-5.148399999998219-.268499999998312-9.322199999998702-.805599999999686-12.51759999999922-.53519999999844-3.196200000000317-1.341800000000148-5.686499999999796-2.414099999999962-7.466800000000148-1.072299999999814-1.78019999999924-2.413099999999758-2.971599999998944-4.024400000000242-3.574199999999109-1.605499999999665-.597600000000966-3.483399999999165-.899400000000242-5.629899999999907-.899400000000242-2.315399999999499,0-4.577099999998609.547899999999572-6.787099999999555,1.643599999999424-2.210900000000038,1.092700000001059-4.24120000000039,2.509700000000521-6.085900000000038,4.246999999999389-1.845699999999852,1.736400000001595-3.474599999999555,3.697300000001633-4.889699999999721,5.888700000001336-1.415000000000873,2.1875-2.468700000001263,4.375-3.156200000001263,6.564499999998588v37.332000000000335h-11.905299999998533v-39.583999999998923c0-6.350599999999758-.365200000000186-11.724599999999555-1.095700000001671-16.123999999999796-.728499999999258-4.397500000000946-1.438499999998385-7.712900000000445-2.123999999999796-9.943400000000111h11.587900000002264Z"/><path class="uuid-0dfd570d-9bf5-477d-8905-945def3996ef" d="M731.924889315800101,379.633699999998498h-54.992198610780179v-9.128900000001522h54.992198610780179v9.128900000001522ZM724.768589496579807,476.840299999998024h-9.421289496580357v-10.005900000000111h-21.982999999998356v10.005900000000111h-9.566809468400606v-49.370599999998376h40.971098964979319v49.370599999998376ZM724.330189507658361,398.47649999999885l-40.386798979749074.145499999998719v-9.127899999999499h40.386798979749074v8.98240000000078ZM724.47618950397009,417.610799999996743h-40.532798976060803v-9.129899999999907h40.532798976060803v9.129899999999907ZM722.650489550089333,361.084399999997913l-37.100099062770823.145500000000538v-9.127900000001318h37.100099062770823v8.98240000000078ZM715.34729999999945,457.850499999998647v-21.396899999999732h-22.128509706401019v21.396899999999732h22.128509706401019ZM809.704187350929715,417.756799999997384l-78.947298005619814.14600000000064v-8.98240000000078h19.572299505558476l4.236299892982061-22.566399999999703h-18.257799538770996v-8.983899999999267h19.718799501859394l3.140599920661771-16.724099999999453h-27.971699293371785v-9.129000000000815h72.520498167981714v8.983400000000984h-34.690399123650423l-2.994188378561375,16.724699999998847h30.088887694091682l-3.140599920661771,31.547800000000279h16.724599577501067v8.983899999999267ZM796.997187671928259,477.132299999999304h-9.421887671927834v-9.85989999999947h-36.953111156530213v9.85989999999947h-9.56839975829098v-49.516100000000733h55.943398586749026v49.516100000000733ZM787.575300000000425,458.28849999999693v-21.689899999997579h-37.09961115283113v21.689899999997579h37.09961115283113ZM786.114300000001094,386.207499999998618h-21.689411505221869l-4.236299892980242,22.712899999998626h23.662099402241438l2.263611995960673-22.712899999998626Z"/><path class="uuid-0dfd570d-9bf5-477d-8905-945def3996ef" d="M974.376083190969439,379.633699999998498h-132.771496645909792v-9.128900000001522h132.771496645909792v9.128900000001522ZM954.803783685400049,398.329999999998108h-94.941397601569406v-8.835900000000038h94.941397601569406v8.835900000000038ZM954.803783685400049,417.318799999999101h-94.941397601569406v-8.837900000002264h94.941397601569406v8.837900000002264ZM951.372183772089556,477.132299999999304h-9.421883772089132v-10.297900000001391h-68.503914259330486v10.297900000001391h-9.420899762011686v-49.662599999999657h87.346697793431304v49.662599999999657ZM951.225683775788639,360.135199999998804l-86.470697815559106.218799999998737v-8.836999999999534h86.470697815559106v8.618200000000797ZM941.950300000000425,457.850499999998647v-21.396899999999732h-68.503914259330486v21.396899999999732h68.503914259330486Z"/><path class="uuid-0dfd570d-9bf5-477d-8905-945def3996ef" d="M1139.049879030959346,450.694799999999304h-58.790998514819876v10.150900000000547c0,10.856399999996938-5.769580516138376,16.286599999999453-17.310580516139453,16.286599999999453h-9.712918801189517l-3.57808119881156-8.983400000000984h13.584000000000742c4.771480825498656,0,7.158180765209181-2.191899999999805,7.158180765209181-6.572799999999916v-10.881299999999101h-64.122998380120407v-9.129899999999907h64.122998380120407v-6.280800000000454c10.173819234791154-3.797300000001997,17.453099559101247-7.350099999999657,21.835899448380587-10.662100000001374h-55.943298586749734v-8.399900000000343h72.158218373160707v7.961900000002061c-7.597720004101575,5.161199999998644-16.994219766720562,10.44289999999819-28.191419483860955,15.847200000000157v1.533699999999953h58.790998514819876v9.129899999999907ZM1132.915079185928334,423.598599999999351h-8.765599778558681v-15.117700000002515h-102.023397422670314v15.995100000000093h-9.568399758280066v-24.538099999997939h12.560617773580816v-44.550699999999779c6.912081734499225-.681200000000899,14.486281543160658-3.968300000000454,22.714781335289445-9.858400000000984l4.820299878230799,6.718700000001263c-4.433599888001481,4.089399999998932-10.470699735491507,7.182099999998172-18.113299542419554,9.274900000000343v6.134799999999814h18.695299527709722v7.595699999998033h-18.695299527709722v7.959900000001653h18.695299527709722v7.4487999999983h-18.695299527709722v9.276300000001356h77.632798038828696v-9.276300000001356h-17.820299549819538v-7.30370000000039h17.820299549819538v-8.54399999999805h-17.673799553529534v-7.448700000000827h17.673799553529534v-7.960500000001048h-20.667899477890387v-8.837400000000343h29.943319767960929v49.224200000000565h11.466779185928317v23.80710000000181ZM1091.504980232039088,366.927199999998265l-5.111399870869718,6.280300000000352c-2.777280361169687-2.676800000001094-6.550699834520856-5.57470000000103-11.320280361169353-8.690500000000611-3.943319253241498,3.311099999998987-8.375,6.353100000000268-13.292919017050735,9.129000000000815l-5.98829984871918-5.25879999999961c4.722599880689813-1.947299999999814,8.859399776189093-4.235899999999674,12.415999686338182-6.864799999999377-5.941399849907611-2.238800000002811-10.736299728778249-3.797300000001997-14.388699636509045-4.6733000000022l3.726599905859985-6.72019999999975c5.402318910080794,1.363199999999779,10.831999726360664,3.117200000000594,16.285099588600133,5.258300000001327,3.457099912669946-3.260300000001735,6.353599839500021-6.595700000001671,8.691499780441518-10.005400000001828l6.134719541038066,4.89350000000195c-1.949219646779966,3.019099999997707-4.480519582830311,5.964899999999034-7.595719504139197,8.837499999997817,3.601599909019569,2.043400000002293,7.083999821048565,4.64890000000014,10.443399736179344,7.814400000001115ZM1092.379980209938367,393.509699999996883l-6.132799845079717,4.820300000001225c-3.943399900377699-3.01799999999821-8.035199797010137-5.524899999998524-12.269599690040195-7.520999999998821-2.6288999335884,1.996100000000297-7.302699815518281,4.503000000000611-14.021499645788936,7.520999999998821l-5.550699859770248-4.381800000001022c6.279299841369721-2.968299999998635,10.783199727591636-5.551299999999173,13.511699658660291-7.740699999998469-2.728499931068654-1.703099999998813-6.865299826569753-3.602999999999156-12.415999686340001-5.697800000001735l5.476499861650154-4.599599999997736c5.013718996769967,1.802299999999377,9.298899765090027,3.676299999999173,12.85349967528964,5.622100000000501,1.361399965609962-.777400000002672,4.113299896089302-3.113800000002811,8.251999791540584-7.011200000000827l6.718699830269543,3.433099999998376c-2.48239993729112,3.214299999999639-5.255799867229143,5.868600000001607-8.324199789711201,7.96140000000014,4.040999897912116,1.850099999999657,8.007799797702319,4.38130000000092,11.902399699320085,7.594199999999546Z"/><path class="uuid-0dfd570d-9bf5-477d-8905-945def3996ef" d="M1303.575300000000425,450.694799999999304h-58.791000000001077v10.150900000000547c0,10.856399999996938-5.769623494368716,16.286599999999453-17.308623202869057,16.286599999999453h-9.712899754631508l-3.578099909609591-8.983400000000984h13.583899656840003c4.769599879511588,0,7.156299819220294-2.191899999999805,7.156299819220294-6.572799999999916v-10.881299999999101h-64.12109838015931v-9.129899999999907h64.12109838015931v-6.280800000000454c10.175799742939489-3.797300000001997,17.453099559099428-7.350099999999657,21.837899448330063-10.662100000001374h-55.943398586750845v-8.399900000000343h72.15629817718218v7.961900000002061c-7.595699808120116,5.161199999998644-16.994199570690398,10.44289999999819-28.191375647711538,15.847200000000157v1.533699999999953h58.791000000001077v9.129899999999907ZM1297.442475029620255,423.598599999999351h-8.767599778511794v-15.117700000002515h-102.023397422668495v15.995100000000093h-9.56639975833059v-24.538099999997939h12.560499682689624v-44.550699999999779c6.9140998253406-.681200000000899,14.484399634089641-3.968300000000454,22.712899426231161-9.858400000000984l4.820299878219885,6.718700000001263c-4.429699888090909,4.089399999998932-10.468699735529299,7.182099999998172-18.113299542421373,9.274900000000343v6.134799999999814h18.697299527670111v7.595699999998033h-18.697299527670111v7.959900000001653h18.697299527670111v7.4487999999983h-18.697299527670111v9.276300000001356h77.632822485171346v-9.276300000001356h-17.818323996209074v-7.30370000000039h17.818323996209074v-8.54399999999805h-17.673823999859451v-7.448700000000827h17.673823999859451v-7.960500000001048h-20.667923924220304v-8.837400000000343h29.943299243570436v49.224200000000565h11.468799710270105v23.80710000000181ZM1258.631876010058477,391.871499999999287l-6.654299831898243,6.083999999998923c-3.037099923270944-4.563500000000204-7.382799813491147-10.276300000001356-11.58589970731191-13.82470000000103-6.533199834957486,7.279300000001967-11.906299699217925,11.912100000001374-16.105499593139029,13.893100000001141l-6.583999833679627-5.528299999999945c4.949299874970166-2.354499999999462,10.316399739389453-6.751999999998588,16.107499593090324-13.203199999999924-6.583999833670532-4.10149999999885-11.275376637120644-6.637199999999211-14.07619964440164-7.605900000000474l5.744099854891829-5.940399999999499c2.333999941038201.922299999998359,6.718799830268836,3.31590000000142,13.165999667398864,7.189900000001217,1.916099951591605-3.135700000002544,3.406299913949624-6.568400000000111,4.480499886809412-10.302300000001196h-21.990199444479003v-8.638100000000122h11.788999702179353v-8.896999999999025h7.566423340482288v8.896999999999025h13.992176114908943v8.638100000000122h-2.769499930040183c-1.554676184870914,5.718299999998635-3.646499907879843,10.671400000001086-6.275399841470062,14.862800000000789,5.08989987142013,3.870199999997567,9.97459974802041,9.767099999999118,13.195299666658684,14.375Z"/><path class="uuid-0dfd570d-9bf5-477d-8905-945def3996ef" d="M1470.510800000000017,379.343199999997523l-5.257799999999406,7.594700000001467c-16.603500000001077-4.090299999999843-29.601500000000669-8.812900000000809-38.997999999999593-14.167900000000373v6.573199999998906h-49.371100000000297v-7.231899999998859c-14.216800000001967,7.352999999999156-26.972700000002078,12.149900000000343-38.269599999999627,14.388200000001234l-4.818300000000818-7.668000000001484c27.361299999998664-6.66990000000078,50.146500000000742-17.819800000001123,68.357399999998961-33.44970000000103l8.98240000000078,2.99460000000181c-.974600000001374,1.21730000000025-1.826100000000224,2.070299999999406-2.556599999999889,2.555199999998877,16.164099999999962,13.438500000000204,36.808600000000297,22.909200000000055,61.931599999999889,28.411599999999453ZM1454.954200000000128,421.188899999999194h-106.041000000001077v-34.251000000000204h106.041000000001077v34.251000000000204ZM1446.264699999999721,477.277299999999741h-8.98240000000078v-5.842800000002171h-70.548799999998664v5.842800000002171h-8.98240000000078v-48.420400000002701h88.513600000000224v48.420400000002701ZM1397.551799999999275,413.301699999998164v-18.257300000001123h-39.656199999999444v18.257300000001123h39.656199999999444ZM1437.282299999998941,446.312499999998181v-9.420500000000175h-70.548799999998664v9.420500000000175h70.548799999998664ZM1437.282299999998941,463.548299999996743v-9.568399999998292h-70.548799999998664v9.568399999998292h70.548799999998664ZM1387.838999999999942,406.071199999998498l-7.521499999998923,5.25879999999961c-4.527400000000853-4.575200000001132-8.959000000000742-7.959899999999834-13.293000000001484-10.150800000001254l7.595700000001671-4.382399999998597c5.16019999999844,2.190500000000611,9.566399999999703,5.283199999999852,13.218799999998737,9.274400000000242ZM1423.260800000000017,371.236799999996947c-7.060499999999593-3.700699999997596-13.902299999999741-8.691899999997986-20.523400000000038-14.973199999998542-7.060600000000704,5.842299999998431-14.970699999999852,10.834000000000742-23.734399999999368,14.973199999998542h44.257799999999406ZM1445.973699999998644,413.301699999998164v-18.257300000001123h-39.4375v18.257300000001123h39.4375ZM1437.135800000000017,399.352499999999054c-2.872999999999593,4.577099999998609-7.207000000000335,8.473099999999249-13,11.685499999999593l-8.033199999999852-4.016999999999825c6.378899999999703-3.602100000000064,10.759799999999814-7.206099999999424,13.144599999999627-10.808600000000297l7.888600000000224,3.14010000000053Z"/><path class="uuid-0dfd570d-9bf5-477d-8905-945def3996ef" d="M732.823971613319372,281.638099999998303l-2.640599933291014,3.510800000000017c-10.179699742839148-3-18.441399534127413-7.039600000000064-24.779299374018592-12.120100000000093-5.462899861999176,4.460399999999936-14.040999645299962,8.580500000000029-25.742179120021319,12.360799999998562l-2.939420155418702-3.570299999999406c11.320299714019711-3.139699999999721,19.880799497759654-6.949699999999211,25.68159935121912-11.430199999998877-5.820299852959579-5.5-9.732399754138896-12.189900000001217-11.730499703659007-20.070299999999406-1.079999972720543,2.77980000000025-2.562499935269443,5.41990000000078-4.441399887800799,7.91990000000078l-3.177699919719089-2.909200000001874c2.519499936350257-3.001400000001013,4.546899885130188-6.29149999999936,6.087899846199434-9.870999999999185h-10.320299739289112v-3.690000000000509h24.062499392130121v-10.260199999998804h3.869099902258313v10.200199999999313h24.480499381570553v3.689399999999296h-10.261699740760378c-1.798899954559602,10.44090000000142-5.937499850009772,18.75-12.419999686248048,24.930199999998877,5.900420959518669,4.480900000002293,13.990299646578933,8.251400000001013,24.271499386848518,11.31000000000131ZM716.952893185989524,245.397899999998117h-23.218720585180563c1.597599959641229,9.260699999998906,5.507799860861269,16.709999999999127,11.728499703720445,22.35109999999986,6.080099846400117-5.66019999999844,9.910220881460191-13.110899999999674,11.490220881460118-22.35109999999986Z"/><path class="uuid-0dfd570d-9bf5-477d-8905-945def3996ef" d="M876.845092562529317,274.647899999998117h-24.152299389859763v4.171399999999267c0,4.459500000000844-2.369199940150793,6.690399999999499-7.109399820399631,6.690399999999499h-3.990199899199069l-1.468799962902267-3.690399999999499h5.578122181281287c1.961000000008426,0,2.941477603499152-.900399999998626,2.941477603499152-2.699699999999211v-4.471700000000055h-26.339899334598158v-3.75h26.339899334598158v-2.579099999999016c4.179599894421699-1.559600000000501,7.169899818869453-3.020000000000437,8.968699773431581-4.380900000000111h-22.980499419460102v-3.450100000001839h29.640699251209298v3.270000000000437c-3.119199921200561,2.121100000000297-6.980499823661376,4.291000000001077-11.580099707460249,6.510700000000725v.629399999999805h24.152299389859763v3.75ZM874.325592626180878,263.518499999998312h-3.601599909021388v-6.209499999999025h-41.912098941209479v6.569400000000314h-3.929699900720152v-10.079600000000937h5.160199869638745v-18.300800000000891c2.839799928260618-.278800000000047,5.951199849660043-1.629899999999907,9.331999764250213-4.049800000000687l1.978499950020705,2.760300000001735c-1.818299954069516,1.680599999999686-4.300699891349723,2.950099999998201-7.441377787688907,3.809999999999491v2.519500000000335h7.681677781620238v3.120599999998376h-7.681677781620238v3.270599999999831h7.681677781620238v3.058600000000297h-7.681677781620238v3.811000000001513h31.892577169997821v-3.811000000001513h-7.322299815019505v-3h7.322299815019505v-3.509299999997893h-7.259799816598388v-3.060100000002421h7.259799816598388v-3.270499999998719h-8.490199785519508v-3.629399999999805h12.298799689309817v20.220200000001569h4.712899880942132v9.779799999998431ZM857.313893055928929,240.238699999999881l-2.101599946909118,2.578599999997095c-1.13869997123038-1.099599999997736-2.689399932060041-2.288499999998749-4.648399882571539-3.569299999999203-1.621099959047569,1.35989999999947-3.441377554998326,2.60989999999947-5.460999862039898,3.75l-2.458899937888418-2.159199999998236c1.939399951008454-.800800000000891,3.638599908090328-1.740200000000186,5.099599871178725-2.820300000001225-2.441399938328686-.919899999998961-4.412077626238897-1.559999999999491-5.910199850699428-1.920899999999165l1.531299961319746-2.760200000000623c2.218699943950924.560499999999593,4.449199887600116,1.280699999999342,6.689399831011542,2.160599999999249,1.419899964130309-1.338400000000547,2.609422432127758-2.709999999999127,3.568422432119405-4.110300000000279l2.521477414040419,2.010200000000623c-.80079997977009,1.239799999999377-1.841799953479494,2.451199999999517-3.119199921209656,3.630900000000111,1.478499962649948.838800000001356,2.908199926539965,1.909100000000763,4.28909989164822,3.209900000001653ZM857.673293046849722,251.158599999997023l-2.51959993634955,1.979500000001281c-1.619099959101732-1.240200000000186-3.30079991661114-2.270000000000437-5.040999872649991-3.08980000000156-1.080099972721655.819800000001123-2.999999924209988,1.849600000001374-5.75979985450067,3.08980000000156l-2.281199942370222-1.800699999999779c2.58199993478047-1.219300000000658,4.431599888050187-2.278800000000047,5.550822230470658-3.178800000001502-1.119222342420471-.700099999998201-2.820322299450709-1.479400000000169-5.099622241870748-2.339799999997922l2.249999943160219-1.891100000000733c2.060499947949211.740699999998469,3.820299903489285,1.511200000000827,5.281199866591123,2.311000000001513.560599985838053-.320300000003044,1.68949995731964-1.27980000000025,3.388699914388781-2.880800000002637l2.759722517730552,1.410600000001068c-1.019522561689882,1.319799999999304-2.158222532920263,2.410699999998542-3.417922501101202,3.269500000000335,1.658199958110345.759799999999814,3.287099916960869,1.799399999999878,4.88869987650105,3.120599999998376Z"/><path class="uuid-0dfd570d-9bf5-477d-8905-945def3996ef" d="M979.208964564089911,251.908199999999852c4.040999897919392,4.539999999997235,6.062499846850187,8.970699999998033,6.062499846850187,13.290499999999156,0,2.100099999999657-.544899986240125,3.770499999998719-1.636676219610308,5.009799999999814-1.087923711560506,1.240699999998469-2.613323673029299,1.860799999998562-4.574223623489161,1.860799999998562-1.080099972710741,0-2.380899939849769-.131399999998393-3.900399901471246-.389699999999721l-1.109376475040335-3.991699999998673c2.140576448990032.541999999999462,3.679676410110915.811600000000908,4.619076386381494.811600000000908.779299980309588,0,1.490299962348217-.300800000000891,2.130923613618506-.900900000000547.640576316371153-.599099999999453.960876308270599-1.399400000002061.960876308270599-2.399900000000343,0-1.499500000001717-.550699986079053-3.419400000000678-1.650399958300113-5.760800000000017-1.101476349969744-2.339299999999639-2.75189993047934-4.569800000001123-4.951099874930151-6.688900000001013l5.851499852180496-15.031299999998737h-8.910099774910123v47.791999999997643h-3.931699900680542v-51.601499999997031h16.830099574839551v3.809499999999389l-5.790999853708854,14.190500000000611ZM1020.582063518919313,274.499499999999898c-.52149998682944,3.239699999998265-1.220799969159998,5.590299999999843-2.101599946909118,7.049299999998766-.878899977800756,1.460399999999936-2.310599941629334,2.190399999999499-4.289099891651858,2.190399999999499h-4.679699881779015c-3.121099921148925,0-4.679599881779723-1.640599999998813-4.679599881779723-4.91990000000078v-15.870100000000093h-6.332099840039518c-.119099996991281,6.439900000001217-1.374999965270035,11.264100000000326-3.763699904920941,14.475099999999657-2.390599939608364,3.209400000001551-6.824199827609846,5.905200000001059-13.306599663850648,8.085399999999936l-2.519499936348438-3.451099999998405c6.019499847929183-1.779300000000148,10.150399743579328-4.08009999999922,12.390623619688995-6.900000000001455,2.240176010700452-2.819799999997485,3.369075982191134-6.870100000000093,3.390575981640723-12.149399999998423h-8.220699792331288v-3.931100000001607h32.132799188260833v3.871100000000297h-10.023399746789437v14.940399999999499c0,.499500000001717.160199995958465.964900000002672.480499987870644,1.394500000002154.320299991899446.430700000000797.70109998227781.64509999999791,1.140599971178744.64509999999791h3.810499903740492c.779299980309588,0,1.374999965270035-.640699999999924,1.785199954900236-1.919999999998254.40819998968982-1.279300000000148.753924551529053-2.939900000001217,1.035199973848648-4.980400000000373l3.74999990527067,1.470700000001671ZM1017.13086360610032,247.287999999998647l-3.808599903779395.061099999998987v-5.281800000000658h-22.621099428550224v5.281800000000658h-3.871099902200513v-9.091300000000047h13.169899667300342v-6.809600000000501h3.931699900669628v6.750500000001921h13.199199666560162v9.089299999999639ZM1012.091788191330124,253.078099999996994h-20.281223945581587v-3.930199999998877h20.281223945581587v3.930199999998877Z"/><path class="uuid-0dfd570d-9bf5-477d-8905-945def3996ef" d="M1166.448797528109935,274.647899999998117h-24.152300000010655v4.171399999999267c0,4.459500000000844-2.371100000000297,6.690399999999499-7.109399999999368,6.690399999999499h-3.990199999991091l-1.470700000008947-3.690399999999499h5.58009999999922c1.960900000010952,0,2.941399999999703-.900399999998626,2.941399999999703-2.699699999999211v-4.471700000000055h-26.341824835330044v-3.75h26.341824835330044v-2.579099999999016c4.179700000000594-1.559600000000501,7.16990000000078-3.020000000000437,8.968700000001263-4.380900000000111h-22.980525146809669v-3.450100000001839h29.640725146808109v3.270000000000437c-3.119199999990087,2.121100000000297-6.980499999997846,4.291000000001077-11.58009999999922,6.510700000000725v.629399999999805h24.152300000010655v3.75ZM1163.927397528099391,263.518499999998312h-3.599699999998847v-6.209499999999025h-41.910124999831169v6.569400000000314h-3.931699900680542v-10.079600000000937h5.162199869600954v-18.300800000000891c2.837799928309323-.278800000000047,5.949199849708748-1.629899999999907,9.328125030910087-4.049800000000687l1.98050000000876,2.760300000001735c-1.820399999998699,1.680599999999686-4.298925207998764,2.950099999998201-7.439525128669629,3.809999999999491v2.519500000000335h7.679725128669816v3.120599999998376h-7.679725128669816v3.270599999999831h7.679725128669816v3.058600000000297h-7.679725128669816v3.811000000001513h31.890625128660758v-3.811000000001513h-7.320299999999406v-3h7.320299999999406v-3.509299999997893h-7.259699999991426v-3.060100000002421h7.259699999991426v-3.270499999998719h-8.490200000000186v-3.629399999999805h12.298800000000483v20.220200000001569h4.710999999999331v9.779799999998431ZM1146.917597528099577,240.238699999999881l-2.101599999990867,2.578599999997095c-1.140600000009727-1.099599999997736-2.68940000001021-2.288499999998749-4.65040000000954-3.569299999999203-1.619099999999889,1.35989999999947-3.439399999999296,2.60989999999947-5.458899999990535,3.75l-2.461000000010245-2.159199999998236c1.941400000001522-.800800000000891,3.642600000010134-1.740200000000186,5.101600000001781-2.820300000001225-2.441399999999703-.919899999998961-4.410200000000259-1.559999999999491-5.910200000000259-1.920899999999165l1.529300000000148-2.760200000000623c2.220699999999852.560499999999593,4.451199999999517,1.280699999999342,6.689500000000407,2.160599999999249,1.419900000008056-1.338400000000547,2.611300000009578-2.709999999999127,3.572199999998702-4.110300000000279l2.519599999999627,2.010200000000623c-.800799999989977,1.239799999999377-1.841799999998329,2.451199999999517-3.121100000000297,3.630900000000111,1.480400000000373.838800000001356,2.910100000000966,1.909100000000763,4.291000000001077,3.209900000001653ZM1147.27699752810986,251.158599999997023l-2.519600000001446,1.979500000001281c-1.621099999998478-1.240200000000186-3.300699999999779-2.270000000000437-5.039000000007945-3.08980000000156-1.082099999990533.819800000001123-3,1.849600000001374-5.761699999991833,3.08980000000156l-2.279300000009243-1.800699999999779c2.580000000009022-1.219300000000658,4.429599999999482-2.278800000000047,5.550699999999779-3.178800000001502-1.121100000000297-.700099999998201-2.822199999998702-1.479400000000169-5.101500000000669-2.339799999997922l2.25-1.891100000000733c2.060500000001412.740699999998469,3.82030000001032,1.511200000000827,5.279300000001967,2.311000000001513.560499999999593-.320300000003044,1.689399999999296-1.27980000000025,3.390599999998813-2.880800000002637l2.759799999999814,1.410600000001068c-1.019599999999627,1.319799999999304-2.16019999999844,2.410699999998542-3.419999999989159,3.269500000000335,1.660199999989345.759799999999814,3.291099999989456,1.799399999999878,4.890699999999924,3.120599999998376Z"/><path class="uuid-0dfd570d-9bf5-477d-8905-945def3996ef" d="M1311.443556039928808,282.5091999999986h-54.59959999999046v-3.86960000000181h25.439400000001115v-14.070799999997689h-18.330000000010841v-3.870100000000093h18.330000000010841v-12.240200000000186h-13.589800000010655c-1.640599999987899,4.259200000000419-4.380900000000111,8.189399999999296-8.220699999988938,11.789499999998952l-3.959000000000742-2.070299999999406c6.558600000000297-6.059600000000501,10.209000000000742-13.47899999999936,10.949200000000928-22.259300000001531l4.050799999999072,1.16990000000078c-.160200000009354,2.040100000001985-.630900000009206,4.559600000000501-1.412099999999555,7.559600000000501h12.122999999999593v-13.139599999998609h4.048899999990681v13.079999999998108h21.179699999998775v3.870200000001205h-21.179699999998775v12.179599999999482h18.060499999999593v3.870200000001205h-18.060499999999593v14.071199999998498h25.169899999998961v3.929700000000594Z"/><path class="uuid-0dfd570d-9bf5-477d-8905-945def3996ef" d="M1456.860126969429984,245.337399999998524l-2.158200000001671,3.121100000000297c-6.820299999999406-1.679700000000594-12.162099999997736-3.619699999999284-16.021499999998923-5.820400000000518v2.699300000000221h-20.281199999999444v-2.969300000000658c-5.839799999999741,3.02100000000064-11.080100000001039,4.989799999999377-15.718800000000556,5.910700000000361l-1.980400000000373-3.150399999998626c11.240200000000186-2.740700000002107,20.599600000001374-7.320800000001327,28.080100000001039-13.740700000002107l3.689399999999296,1.230400000000373c-.400400000000445.5-.75.85109999999986-1.048799999998664,1.05029999999897,6.638699999999517,5.519500000002154,15.121099999998478,9.409700000000157,25.439399999999296,11.669000000001688ZM1450.47152696942976,262.529299999998329h-43.560599999998885v-14.070799999999508h43.560599999998885v14.070799999999508ZM1446.901126969429242,285.568799999999101h-3.691399999999703v-2.399900000000343h-28.980400000000373v2.399900000000343h-3.689499999998588v-19.889600000002247h36.361299999998664v19.889600000002247ZM1426.889426969428314,259.287999999998647v-7.5h-16.28899999999885v7.5h16.28899999999885ZM1443.209726969429539,272.849099999997634v-3.870599999998376h-28.980400000000373v3.870599999998376h28.980400000000373ZM1443.209726969429539,279.929199999996854v-3.929699999996956h-28.980400000000373v3.929699999996956h28.980400000000373ZM1422.899226969429947,256.318799999999101l-3.089799999999741,2.159700000000157c-1.859400000001187-1.87840000000142-3.679700000000594-3.269599999999627-5.459000000000742-4.169499999999971l3.119099999999889-1.799800000000687c2.121100000000297.899000000001251,3.929700000000594,2.169999999998254,5.429700000000594,3.809600000000501ZM1437.450026969429018,242.0091999999986c-2.900399999998626-1.520000000000437-5.708999999998923-3.57129999999961-8.429700000000594-6.15230000000156-2.902399999999034,2.400900000000547-6.150399999998626,4.452100000002247-9.75,6.15230000000156h18.179700000000594ZM1446.780126969430057,259.287999999998647v-7.5h-16.199300000000221v7.5h16.199300000000221ZM1443.151126969429242,253.558599999998478c-1.181599999999889,1.879300000000512-2.960900000000038,3.479400000000169-5.341699999999037,4.799299999998766l-3.298900000001595-1.648999999997613c2.619200000001001-1.480400000000373,4.41990000000078-2.960900000001857,5.400400000002264-4.440400000001318l3.240199999998367,1.290100000000166Z"/></g></svg>