<?xml version="1.0" encoding="UTF-8"?><svg id="uuid-3c1bc3fc-88a3-4bf7-a93e-9affd1f2a861" xmlns="http://www.w3.org/2000/svg" width="231.163667917158875mm" height="250.002318467563953mm" xmlns:xlink="http://www.w3.org/1999/xlink" viewBox="0 0 655.267100000000028 708.667999999999665"><defs><style>.uuid-1062f959-f342-43db-923a-4a86b1d69ad4{fill:#00c2f3;}.uuid-ef8d5431-91f6-4234-a3c2-b24ce54b5476{fill:#fff;}.uuid-e15c74d7-58b7-4780-829a-76b0e730b14e{fill:#ee212e;}.uuid-83a1d6be-7b1e-45f7-a081-377d4de884d5{fill:none;}.uuid-57b17932-46e8-41f4-9773-d9b64c537fd0{clip-path:url(#uuid-da24accd-bf8c-4e3b-a507-25a732c2278d);}.uuid-aca13aab-81b1-4394-a928-b6f032d28ebc{fill:#333e48;}.uuid-ca419d19-a5c0-41df-ab18-dc759ebb308d{fill:#46bc96;}</style><clipPath id="uuid-da24accd-bf8c-4e3b-a507-25a732c2278d"><rect class="uuid-83a1d6be-7b1e-45f7-a081-377d4de884d5" x=".000000000000455" width="655.267100000000028" height="708.667999999999665"/></clipPath></defs><g class="uuid-57b17932-46e8-41f4-9773-d9b64c537fd0"><path class="uuid-e15c74d7-58b7-4780-829a-76b0e730b14e" d="M155.406699999999546,341.497999999999593c7.555700000000797,0,13.676800000000185,6.123100000000704,13.676800000000185,13.67489999999998-.000999999999294-.279300000000148-.010699999999815-.557699999999386-.010699999999815-.836999999999534,0-102.310499999999593,82.935500000000047-185.247800000000097,185.248000000000047-185.247800000000097,7.551800000000185,0,13.674800000000232-6.121300000000247,13.674800000000232-13.675999999999931,0-7.551300000000083-6.123000000000047-13.674800000000232-13.674800000000232-13.674800000000232-28.688499999999749,0-56.534200000000055,5.626000000000204-82.763699999999972,16.718800000000101-25.317399999999907,10.708700000000135-48.050799999999981,26.033199999999852-67.565399999999954,45.548800000000028-19.517599999999675,19.51760000000013-34.843800000000101,42.25-45.55179999999973,67.569300000000112-11.09270000000015,26.228500000000167-16.71770000000015,54.072299999999814-16.71770000000015,82.761700000000019,0,.279300000000148.007799999999406.557699999999386.009699999999611.836999999999534,0-7.551799999999275,6.122100000000501-13.67489999999998,13.674799999999777-13.67489999999998Z"/><path class="uuid-ca419d19-a5c0-41df-ab18-dc759ebb308d" d="M340.644800000000032,553.25879999999961c0-7.552700000000186,6.123299999999745-13.674799999999777,13.675999999999931-13.674799999999777-102.031199999999899,0-184.786099999999806-82.486299999999574-185.237300000000232-184.41110000000026,0-7.551799999999275-6.121099999999387-13.67489999999998-13.676800000000185-13.67489999999998-7.552699999999277,0-13.674799999999777,6.123100000000704-13.674799999999777,13.67489999999998.108400000000074,28.393500000000131,5.722700000000259,55.952100000000428,16.708000000000538,81.924800000000687,10.707999999999629,25.318299999998999,26.034200000000055,48.051699999999983,45.55179999999973,67.566399999999703,19.514599999999973,19.518500000000131,42.248000000000047,34.84269999999924,67.565399999999954,45.552700000000186,26.229499999999916,11.093699999999444,54.075200000000223,16.717800000000352,82.763699999999972,16.717800000000352-7.552700000000186,0-13.675999999999931-6.123100000000704-13.675999999999931-13.675800000000891Z"/><path class="uuid-1062f959-f342-43db-923a-4a86b1d69ad4" d="M502.518099999999777,487.408199999999852c-5.339899999999943-5.340799999999945-13.997299999999996-5.340799999999945-19.340899999999692,0-33.340799999999945,32.291000000000167-78.773400000000038,52.175799999999981-128.856400000000122,52.175799999999981-7.552700000000186,0-13.675999999999931,6.122099999999591-13.675999999999931,13.674799999999777s6.123299999999745,13.675800000000891,13.675999999999931,13.675800000000891c28.689499999999953,0,56.532999999999902-5.624100000000908,82.762700000000223-16.717800000000352,24.406199999999899-10.322299999999814,46.399399999999787-24.948200000000725,65.434599999999591-43.466800000000148,5.34270000000015-5.340799999999945,5.34270000000015-14,0-19.341800000000148Z"/><path class="uuid-1062f959-f342-43db-923a-4a86b1d69ad4" d="M466.903800000000047,241.752899999999499c-30.070299999999861-30.07129999999961-70.053699999999935-46.630799999999908-112.583000000000084-46.630799999999908-42.527299999999741,0-82.510699999999815,16.559500000000298-112.58199999999988,46.630799999999908-30.071300000000065,30.072299999999814-46.63380000000052,70.055700000000797-46.63380000000052,112.583000000000538,0,42.529300000000148,16.562500000000455,82.50879999999961,46.63380000000052,112.582099999999627,30.071300000000065,30.07129999999961,70.054700000000139,46.634700000000521,112.58199999999988,46.634700000000521,42.529300000000148,0,82.512700000000223-16.563400000000911,112.583000000000084-46.634700000000521,30.072299999999814-30.073300000000017,46.630900000000111-70.052799999999479,46.630900000000111-112.582099999999627,0-42.527299999999741-16.558600000000297-82.510700000000725-46.630900000000111-112.583000000000538Z"/><path class="uuid-aca13aab-81b1-4394-a928-b6f032d28ebc" d="M242.112799999999879,405.825199999999313v-102.977499999999054h22.334000000000287v7.613199999999779h-12.945300000000316v87.752000000000407h12.945300000000316v7.612299999998868h-22.334000000000287Z"/><path class="uuid-aca13aab-81b1-4394-a928-b6f032d28ebc" d="M466.528800000000047,302.847700000000259v102.977499999999054h-22.329099999999926v-7.612299999998868h12.939499999999953v-87.752000000000407h-12.939499999999953v-7.613199999999779h22.329099999999926Z"/><path class="uuid-ef8d5431-91f6-4234-a3c2-b24ce54b5476" d="M293.981900000000223,375.254899999999907c0,2.056599999999889.03229999999985,4.484399999999368.095699999999852,7.271499999999833.0625,2.789999999999964.15119999999979,5.624000000000706.258800000000065,8.496100000000297.106499999999869,2.875.234399999999823,5.622999999999593.386700000000019,8.240199999999277.147500000000036,2.617200000000594.331099999999878,4.804700000000594.54569999999967,6.5625h-13.193099999999959v-72.729499999999462c0-6.263699999999517-.106499999999869-11.9375-.322299999999814-17.021499999999833-.212899999999991-5.086900000000242-.53610000000026-9.496100000000297-.965799999999945-13.22649999999976h13.194300000000112v72.407199999999648Z"/><path class="uuid-ef8d5431-91f6-4234-a3c2-b24ce54b5476" d="M351.587399999999889,340.175799999999981v8.433599999999387h-12.101599999999962v48.78610000000026h12.101599999999962v8.430699999999888h-36.040999999999713v-8.430699999999888h11.906199999999899v-48.78610000000026h-11.906199999999899v-8.433599999999387h36.040999999999713Z"/><path class="uuid-ef8d5431-91f6-4234-a3c2-b24ce54b5476" d="M378.620600000000195,340.175799999999981c.256799999999657.688499999999294.514699999999721,1.577099999999518.770499999999629,2.673799999999574.260800000000017,1.092800000000352.492200000000139,2.239300000000185.710000000000036,3.441399999999703.210700000000088,1.201200000000426.404300000000148,2.381900000000314.58010000000013,3.541000000001077l.511700000000019,2.89259999999922c4.120800000000145-4.889599999999518,8.258800000000065-8.416999999999462,12.421800000000076-10.584999999999127,4.163099999999758-2.166000000001077,8.5-3.25,13.001999999999953-3.25,3.432600000000093,0,6.469700000000103.568400000000111,9.10739999999987,1.704099999999016,2.639700000000175,1.139699999999721,4.861300000000028,2.941500000000815,6.662100000000009,5.406300000000556,1.799600000000282,2.468699999999444,3.162100000000009,5.666999999999462,4.087899999999991,9.590799999999945.921699999999873,3.927799999999479,1.382800000000316,8.655300000000352,1.382800000000316,14.194400000000314v28.95889999999963c0,7.253000000000611-.634700000000066,13.272500000000036-1.900400000000445,18.054700000000594-1.262699999999768,4.786199999999553-3.036099999999806,8.603499999999258-5.308599999999842,11.460999999999331-2.273400000000038,2.848599999999351-5.010699999999815,4.867200000000594-8.20699999999988,6.045900000000074-3.195299999999861,1.180600000000595-6.746099999999842,1.77140000000054-10.651299999999992,1.77140000000054-1.930699999999888,0-4.001000000000204-.311500000000706-6.21100000000024-.933500000001004-2.208999999999833-.624099999999089-4.214799999999741-1.491299999999683-6.017799999999625-2.607500000000073l4.183799999999792-9.654300000000148c.987300000000232.729500000001281,2.305699999999888,1.339900000000853,3.958999999999833,1.83600000000115,1.651100000000042.49119999999948,3.33600000000024.738299999999072,5.048800000000028.738299999999072,2.063500000000204,0,3.908200000000306-.332099999999627,5.540100000000166-.997099999999591,1.629899999999907-.665100000000166,3.011700000000019-1.831999999999425,4.148400000000038-3.506899999999405,1.138699999999972-1.673800000000483,2.007799999999861-3.969700000000557,2.608400000000074-6.886700000000928.600599999999758-2.918899999999667.900399999999991-6.630799999998999.900399999999991-11.134699999999611v-28.320300000000316c0-5.148499999999331-.26760000000013-9.322299999999814-.804900000000089-12.518599999999424-.534900000000107-3.19630000000052-1.342599999999948-5.686499999999796-2.414800000000014-7.465799999999945-1.071300000000065-1.780300000000352-2.412100000000009-2.970699999999852-4.024400000000242-3.574200000000928-1.606499999999869-.59769999999935-3.483399999999619-.899499999999534-5.628899999999703-.899499999999534-2.316400000000158,0-4.577200000000175.546900000000278-6.787100000000009,1.643599999999424-2.21100000000024,1.092800000000352-4.242200000000139,2.509800000000723-6.086999999999989,4.246100000000297-1.844700000000103,1.736300000000483-3.474799999999959,3.699200000000928-4.888899999999921,5.889600000000428-1.415800000000218,2.188500000000204-2.468499999999949,4.375-3.157000000000153,6.564500000000407v37.33009999999922h-11.904300000000148v-39.582999999999629c0-6.349600000000464-.366199999999935-11.724600000000464-1.096599999999853-16.123099999999795-.727600000000166-4.398400000000038-1.438500000000204-7.712900000000445-2.123099999999795-9.944300000000112h11.587899999999991Z"/></g></svg>