<?xml version="1.0" encoding="UTF-8"?><svg id="uuid-dd2d8f5d-7e57-4a88-abc8-b6b6df4f25e2" xmlns="http://www.w3.org/2000/svg" width="223.375181367463682mm" height="249.770614026599446mm" xmlns:xlink="http://www.w3.org/1999/xlink" viewBox="0 0 633.189500000000407 708.011199999999917"><defs><style>.uuid-974f1ed2-472e-4b02-af93-b6300f3d1cd9{fill:#00c2f3;}.uuid-86a10cfd-7165-4542-a750-fe600f5156b9{clip-path:url(#uuid-c39222f7-5f45-450f-b4b8-a50ee3a346a1);}.uuid-ce36e737-7721-43a9-a192-ed1088b4ef4d{fill:#fff;}.uuid-252ce586-5458-4109-81d7-50fdb7cdc4a0{fill:none;}.uuid-0ace294a-39f4-4829-9e65-591aaf443cf3{fill:#333e48;}</style><clipPath id="uuid-c39222f7-5f45-450f-b4b8-a50ee3a346a1"><rect class="uuid-252ce586-5458-4109-81d7-50fdb7cdc4a0" y="-.001000000000204" width="633.189500000000407" height="708.012200000000121"/></clipPath></defs><g class="uuid-86a10cfd-7165-4542-a750-fe600f5156b9"><path class="uuid-ce36e737-7721-43a9-a192-ed1088b4ef4d" d="M79.222700000000259,135.78610000000026c-4.552800000000389,10.763699999999517-7.259799999999814,22.072299999999814-8.08600000000024,33.712899999999536,1.79489999999987-1.460900000000038,4.08010000000013-2.339799999999741,6.568400000000111-2.339799999999741,2.747999999999593,0,5.244099999999889,1.078099999999722,7.109400000000278,2.818299999999908,3.667899999999463-47.796899999999368,43.611299999999574-85.435499999999593,92.35149999999976-85.435499999999593,3.775399999999536,0,6.83600000000024-3.0625,6.83600000000024-6.837900000000445,0-3.777399999999943-3.060600000000704-6.837900000000445-6.83600000000024-6.837900000000445-14.345699999999852,0-28.269500000000335,2.8125-41.384800000000723,8.359400000000278-12.658199999999852,5.355400000000373-24.025299999999334,13.015599999999722-33.783199999999852,22.775399999999536-9.759699999999611,9.757800000001225-17.421800000000076,21.125-22.775299999999334,33.785100000000966Z"/><path class="uuid-ce36e737-7721-43a9-a192-ed1088b4ef4d" d="M169.595699999999852,269.48529999999937c-47.478500000000167-3.841799999999239-84.837899999999536-43.482399999998961-85.052700000000186-91.898400000000038,0-3.775399999999536-3.060599999999795-6.837899999999536-6.837899999999536-6.837899999999536-3.775400000000445,0-6.837900000000445,3.0625-6.837900000000445,6.837899999999536.054700000000594,14.197300000000723,2.861300000000483,27.976600000000872,8.355500000000575,40.962900000000445,5.353499999999258,12.660100000000057,13.015599999999722,24.027299999999741,22.775299999999334,33.785100000000057,9.757900000000518,9.759799999999814,21.125,17.421900000000278,33.783199999999852,22.777399999999943,10.629000000000815,4.494099999999889,21.787200000000666,7.193299999999908,33.271500000000742,8.054700000000594-1.443299999999908-1.789099999999962-2.314400000000205-4.060600000000704-2.314400000000205-6.533200000000761,0-2.76760000000013,1.091800000000148-5.279299999999239,2.85739999999987-7.14850000000024Z"/><path class="uuid-ce36e737-7721-43a9-a192-ed1088b4ef4d" d="M251.265599999999722,243.706000000000131c-1.333999999999833-1.33390000000054-3.083999999999833-2.001900000000205-4.833999999999833-2.001900000000205s-3.5.667999999999665-4.835900000000038,2.001900000000205c-16.671899999999368,16.146499999999833-39.388699999999517,26.089899999999943-64.429699999999684,26.089899999999943-3.77730000000065,0-6.837900000000445,3.060499999999593-6.837900000000445,6.837899999999536,0,3.775400000000445,3.060599999999795,6.837900000000445,6.837900000000445,6.837900000000445,14.343799999999646,0,28.265599999999722-2.8125,41.380900000000111-8.359400000000278,12.20510000000013-5.162099999999555,23.201099999999315-12.474599999999555,32.718699999999444-21.734399999999368,2.671900000000278-2.66990000000078,2.671900000000278-7,0-9.671900000000278Z"/><path class="uuid-ce36e737-7721-43a9-a192-ed1088b4ef4d" d="M177.166000000000167,283.471700000000055c-3.77730000000065,0-6.837900000000445-3.0625-6.837900000000445-6.837900000000445,0-3.777399999999943,3.060599999999795-6.837899999999536,6.837900000000445-6.837899999999536,25.041000000000167,0,47.757800000000316-9.943400000000111,64.429699999999684-26.089899999999943,1.335900000000038-1.33390000000054,3.085900000000038-2.001900000000205,4.835900000000038-2.001900000000205s3.5.667999999999665,4.833999999999833,2.001900000000205c2.671900000000278,2.671900000000278,2.671900000000278,7.001999999999498,0,9.671900000000278-9.51760000000013,9.259799999999814-20.513599999999315,16.572299999999814-32.718699999999444,21.734399999999368-13.115300000000389,5.546900000000278-27.037100000000464,8.359400000000278-41.380900000000111,8.359400000000278ZM135.781199999999444,275.112299999999777c-12.658199999999852-5.355499999999665-24.025299999999334-13.01760000000013-33.783199999999852-22.777399999999943-9.759699999999611-9.757800000000316-17.421800000000076-21.125-22.775299999999334-33.785100000000057-5.494200000000092-12.986299999999574-8.300799999999981-26.765599999999722-8.355500000000575-40.962900000000445,0-3.775399999999536,3.0625-6.837899999999536,6.837900000000445-6.837899999999536,3.777299999999741,0,6.837899999999536,3.0625,6.837899999999536,6.837899999999536.21480000000065,48.416000000001077,37.574200000000019,88.056600000000799,85.052700000000186,91.898400000000038-1.765599999999722,1.869200000001001-2.85739999999987,4.380900000000111-2.85739999999987,7.14850000000024,0,2.472600000000057.871100000000297,4.744100000000799,2.314400000000205,6.533200000000761-11.484300000000076-.861400000000685-22.642499999999927-3.560600000000704-33.271500000000742-8.054700000000594ZM177.166000000000167,70.86619999999948c3.775399999999536,0,6.83600000000024,3.060500000000502,6.83600000000024,6.837900000000445,0,3.775400000000445-3.060600000000704,6.837900000000445-6.83600000000024,6.837900000000445-48.740200000000186,0-88.683600000000297,37.638600000000224-92.35149999999976,85.435499999999593-1.865300000000389-1.740200000000186-4.361400000000685-2.818299999999908-7.109400000000278-2.818299999999908-2.488299999999981,0-4.77350000000024.878899999999703-6.568400000000111,2.339799999999741.826200000000426-11.640599999999722,3.533199999999852-22.949200000000019,8.08600000000024-33.712899999999536,5.353499999999258-12.660100000000966,13.015599999999722-24.027299999999741,22.775299999999334-33.785100000000966,9.757900000000518-9.759799999999814,21.125-17.419999999999163,33.783199999999852-22.775399999999536,13.115300000000389-5.546900000000278,27.039100000000872-8.359400000000278,41.384800000000723-8.359400000000278Z"/><path class="uuid-ce36e737-7721-43a9-a192-ed1088b4ef4d" d="M233.458999999999833,120.873999999999796c-15.03519999999935-15.03519999999935-35.029300000000148-23.314400000000205-56.292999999999665-23.314400000000205-21.265599999999722,0-41.257800000000316,8.279200000000856-56.293000000000575,23.314400000000205-15.037099999999555,15.037100000000464-23.318299999999908,35.029300000000148-23.318299999999908,56.29489999999987,0,21.263700000000426,8.281200000000354,41.255900000000111,23.318299999999908,56.293000000000575,15.035200000000259,15.03519999999935,35.027400000000853,23.318399999999201,56.293000000000575,23.318399999999201,21.263699999999517,0,41.257800000000316-8.283199999999852,56.292999999999665-23.318399999999201,15.037100000000464-15.037100000000464,23.316400000000613-35.029300000000148,23.316400000000613-56.293000000000575,0-21.265599999999722-8.279300000000148-41.257799999999406-23.316400000000613-56.29489999999987Z"/><path class="uuid-0ace294a-39f4-4829-9e65-591aaf443cf3" d="M121.060499999999593,202.913099999999758v-51.488299999999981h11.16610000000037v3.804700000000594h-6.472700000000259v43.876899999999296h6.472700000000259v3.806700000000092h-11.16610000000037Z"/><path class="uuid-0ace294a-39f4-4829-9e65-591aaf443cf3" d="M233.271499999999833,151.424799999999777v51.488299999999981h-11.164099999999962v-3.806700000000092h6.468799999999646v-43.876899999999296h-6.468799999999646v-3.804700000000594h11.164099999999962Z"/><path class="uuid-974f1ed2-472e-4b02-af93-b6300f3d1cd9" d="M146.996100000000297,187.627900000000409c0,1.029299999999239.015599999999722,2.242199999999684.046899999999368,3.636699999999109.031200000000354,1.394600000000537.076100000000224,2.810600000000704.128900000000613,4.248100000000704.054699999999684,1.4375.117199999999684,2.810499999999593.193299999999908,4.119099999999889.074300000000221,1.308600000000297.165999999999258,2.402399999999943.273499999999331,3.281299999999646h-6.59769999999935v-36.365300000000389c0-3.130799999998999-.052700000000186-5.968699999999444-.160100000000057-8.511699999999109-.107500000000073-2.542999999999665-.26760000000013-4.746100000000297-.484400000000278-6.611300000000483h6.599600000000464v36.203100000000632Z"/><path class="uuid-974f1ed2-472e-4b02-af93-b6300f3d1cd9" d="M175.798800000000483,170.088800000000447v4.216800000000148h-6.050800000000891v24.39259999999922h6.050800000000891v4.216800000000148h-18.021500000000742v-4.216800000000148h5.953199999999924v-24.39259999999922h-5.953199999999924v-4.216800000000148h18.021500000000742Z"/><path class="uuid-974f1ed2-472e-4b02-af93-b6300f3d1cd9" d="M189.316399999999703,170.088800000000447c.127000000000407.343799999999646.255900000000111.787199999998847.384799999999814,1.335999999999331.130800000000818.546900000000278.246100000000297,1.121100000000297.355400000000373,1.720699999999852.105499999999665.601599999999962.201200000000426,1.191399999999703.289099999999962,1.771500000000742l.255900000000111,1.445299999999406c2.060499999999593-2.443400000000111,4.130799999999908-4.208999999999833,6.210900000000038-5.292999999999665,2.082000000000335-1.082000000000335,4.25-1.625,6.502000000000407-1.625,1.716699999999037,0,3.234300000000076.285200000000259,4.552699999999277.853499999999258,1.320300000000316.570300000001225,2.431600000000799,1.470700000000761,3.332000000000335,2.703199999999924.900399999999536,1.234300000000076,1.58010000000013,2.83390000000054,2.042999999999665,4.79490000000078.462900000000445,1.964799999999741.691400000000613,4.328099999999722.691400000000613,7.097600000000057v14.480499999999665c0,3.625-.316400000000613,6.636700000000019-.949200000000019,9.02730000000065-.630900000000111,2.39259999999922-1.51760000000013,4.302799999999479-2.654300000000148,5.730499999999665-1.136700000000019,1.423799999999574-2.505900000000111,2.433600000000297-4.103500000000167,3.023499999999331-1.597700000000259.58980000000065-3.373099999999795.884700000000521-5.326199999999517.884700000000521-.964900000000853,0-2-.156200000000354-3.105500000000575-.466800000000148-1.103500000000167-.310499999999593-2.10739999999987-.744099999999889-3.007800000000316-1.302700000000186l2.091800000000148-4.828099999999722c.492200000000594.365200000000186,1.152299999999741.66989999999987,1.978500000000167.917899999999463.826200000000426.246100000000297,1.668000000000575.369200000001001,2.525400000000445.369200000001001,1.031299999999646,0,1.953099999999722-.166000000000167,2.769499999999425-.498100000000704.814500000000407-.331999999999425,1.505900000000111-.915999999999258,2.074300000000221-1.753899999999703.568299999999908-.835900000000038,1.003899999999703-1.984400000000278,1.304599999999482-3.443299999999908.298900000000685-1.458999999999833.449300000000221-3.314500000000407.449300000000221-5.568400000000111v-14.160200000000259c0-2.574200000000019-.134799999999814-4.660100000000057-.402399999999943-6.257800000000316-.26760000000013-1.599599999999555-.671900000000278-2.843699999999444-1.206999999999425-3.734300000000076-.535200000000259-.890699999999924-1.207000000000335-1.484399999999368-2.011700000000019-1.787199999998847-.804700000000594-.298800000000483-1.742200000000594-.449200000000928-2.816400000000613-.449200000000928-1.158199999999852,0-2.287099999999555.27350000000024-3.39259999999922.822299999999814-1.105500000000575.54490000000078-2.121100000000297,1.253900000000613-3.043000000000575,2.123000000000502-.921900000000278.867199999999684-1.738299999999981,1.849699999999757-2.445300000000316,2.943400000000111-.706999999999425,1.095699999999852-1.234399999999368,2.1875-1.578099999999722,3.283199999999852v18.666000000000167h-5.953099999999722v-19.792900000000373c0-3.173899999999776-.181700000000092-5.861399999999776-.546900000000278-8.060599999999795-.363299999999981-2.199200000000019-.718799999999646-3.85739999999987-1.0625-4.97269999999935h5.79489999999987Z"/><path class="uuid-ce36e737-7721-43a9-a192-ed1088b4ef4d" d="M107.457500000000437,426.162999999999556v-67.755400000000009h8.153800000000047v60.572300000000723h28.83009999999922v7.183099999999286h-36.983899999999267Z"/><path class="uuid-ce36e737-7721-43a9-a192-ed1088b4ef4d" d="M159.195799999999508,364.328999999999724c-1.683599999999387,0-2.897399999999834-.403299999999945-3.640599999999722-1.213399999999638-.744599999999991-.808100000000195-1.11619999999948-1.858900000000176-1.11619999999948-3.15480000000025v-1.261700000000019c0-1.293899999999667.371599999999489-2.34519999999975,1.11619999999948-3.155299999999443.743199999999888-.808600000000297,1.957000000000335-1.213300000000345,3.640599999999722-1.213300000000345,1.681700000001001,0,2.895500000000538.404700000000048,3.64010000000053,1.213300000000345.743199999999888.810099999999693,1.116299999999683,1.861399999999776,1.116299999999683,3.155299999999443v1.261700000000019c0,1.295900000000074-.373099999999795,2.346700000000055-1.116299999999683,3.15480000000025-.744599999999991.810099999999693-1.958399999999529,1.213399999999638-3.64010000000053,1.213399999999638ZM155.313000000000102,376.07510000000002h7.765599999999722v50.087899999999536h-7.765599999999722v-50.087899999999536Z"/><path class="uuid-ce36e737-7721-43a9-a192-ed1088b4ef4d" d="M179.580600000000231,426.162999999999556v-50.087899999999536h7.765599999999722v8.060999999999694h.388200000000325c1.228500000000167-2.817900000000009,2.960399999999936-5.060999999999694,5.193299999999908-6.72649999999976,2.233000000000175-1.665600000000268,5.225099999999657-2.4996000000001,8.97899999999936-2.4996000000001,5.176800000000185,0,9.270600000000741,1.667000000000371,12.27980000000025,4.999099999999999,3.009299999999712,3.333999999999833,4.513700000000426,8.042000000000371,4.513700000000426,14.123999999999796v32.129899999999907h-7.765599999999722v-30.837899999999536c0-9.015599999999722-3.785700000000361-13.52350000000024-11.35740000000078-13.52350000000024-1.553299999999581,0-3.057699999999386.195800000000418-4.514199999999619.583999999999833-1.456100000000333.38970000000063-2.766099999999824.973700000000463-3.93119999999999,1.752000000000407-1.164999999999964.778299999999945-2.086900000000242,1.766599999999926-2.766099999999824,2.966800000000148-.679700000000594,1.199200000000019-1.019500000000335,2.61029999999937-1.019500000000335,4.231399999999667v34.827199999999721h-7.765599999999722Z"/><path class="uuid-ce36e737-7721-43a9-a192-ed1088b4ef4d" d="M274.51510000000053,424.513100000000122c0,6.923799999999574-1.941400000000613,12.359799999999268-5.824200000000928,16.307600000000093-3.882799999999406,3.946799999999712-9.351999999999862,5.92239999999947-16.404799999999341,5.92239999999947-4.077100000000428,0-7.588300000000345-.634799999999814-10.532200000000557-1.90139999999974-2.945299999999406-1.269500000000335-5.387199999999211-2.942399999999907-7.328599999999824-5.021999999999935l4.561999999999898-5.362799999999879c1.682099999999991,1.731999999999971,3.623599999999897,3.0649999999996,5.824200000000019,3.996100000000297,2.199300000000221.931699999999182,4.756400000000212,1.396999999999025,7.668499999999767,1.396999999999025,4.529300000000148,0,8.040500000000975-1.251499999999396,10.532200000000557-3.751999999999498,2.490699999999379-2.504399999999805,3.737299999999777-6.192799999999806,3.737299999999777-11.067799999999806v-6.92830000000049h-.388199999999415c-1.489199999999983,3.075700000000325-3.430600000000595,5.381400000000212-5.824200000000928,6.919000000000779-2.394999999999527,1.53859999999986-5.338799999999537,2.307099999999991-8.833499999999731,2.307099999999991-3.106399999999667,0-5.921400000000176-.615700000000288-8.445300000000316-1.843700000000354-2.523400000000038-1.229000000000269-4.659200000000055-2.976599999999962-6.406199999999444-5.242199999999684-1.747600000000602-2.26470000000063-3.106499999999869-5.01470000000063-4.077199999999721-8.251000000000204-.970699999999852-3.235400000000482-1.456000000000131-6.859400000000278-1.456000000000131-10.872100000000501,0-4.011700000000019.485300000000279-7.635699999999815,1.456000000000131-10.871999999999389.970699999999852-3.235400000000482,2.329599999999118-5.985400000000482,4.077199999999721-8.251000000000204,1.746999999999389-2.264699999999721,3.882799999999406-4.011700000000019,6.406199999999444-5.242200000000594,2.52390000000014-1.228499999999258,5.338900000000649-1.843799999999646,8.445300000000316-1.843799999999646,3.494700000000194,0,6.487299999999777.753499999999804,8.979000000000269,2.257899999999609,2.490799999999581,1.506800000001022,4.383299999999508,3.828600000000733,5.67870000000039,6.968200000000252h.388199999999415v-8.060999999999694h7.765600000000632v48.438000000000102ZM254.033199999999852,420.435899999999492c1.747600000000602,0,3.397500000000036-.227499999999054,4.950700000000325-.682600000000093,1.553199999999379-.454599999999118,2.895499999999629-1.122599999999693,4.028299999999945-2.000499999999192,1.131899999999405-.876900000000205,2.03859999999986-1.950700000000325,2.718299999999545-3.217800000000352.679200000000492-1.268500000000131,1.019000000000233-2.748999999999796,1.019000000000233-4.439900000000307v-18.634799999999814c0-1.365200000000186-.324200000000019-2.649900000000343-.970699999999852-3.85399999999936-.647399999999834-1.20260000000053-1.553200000000288-2.226500000000669-2.717800000000352-3.072700000000623-1.164999999999964-.844699999999648-2.52390000000014-1.511199999999917-4.077099999999518-1.999499999999898-1.553200000000288-.488299999999981-3.203099999999722-.732500000000073-4.950700000000325-.732500000000073-4.40139999999974,0-7.895999999999731,1.39850000000024-10.483400000000074,4.195400000000518-2.589299999999639,2.796800000000076-3.882800000000316,6.406699999999546-3.882800000000316,10.829999999999927v8.583999999999833c0,4.422899999999572,1.293500000000677,8.03269999999975,3.882800000000316,10.83010000000013,2.587400000000343,2.796399999999267,6.082000000000335,4.194799999999304,10.483400000000074,4.194799999999304Z"/><path class="uuid-ce36e737-7721-43a9-a192-ed1088b4ef4d" d="M321.884799999999814,418.101899999999659h-.388199999999415c-.518600000000333,1.15480000000025-1.149400000000242,2.291500000000269-1.89260000000013,3.412600000000566-.745100000000093,1.120600000000195-1.667000000000371,2.114299999999275-2.766599999999926,2.97859999999946-1.101500000000669.865200000000186-2.426699999999983,1.55370000000039-3.980000000000473,2.066400000000613-1.553199999999379.512199999999211-3.365699999999379.768500000000131-5.435999999999694.768500000000131-5.178200000000288,0-9.287100000000464-1.665000000000873-12.328099999999722-4.999000000000706-3.042500000000473-3.332499999999527-4.5625-8.039999999999964-4.5625-14.123999999999796v-32.129899999999907h7.765599999999722v30.837899999999536c0,9.01510000000053,3.817900000000009,13.522899999999936,11.454600000000028,13.522899999999936,1.553200000000288,0,3.057600000000093-.193799999999101,4.513699999999517-.583999999999833,1.456000000000131-.388099999999213,2.75-.972099999999955,3.882800000000316-1.75,1.131800000000112-.778299999999945,2.038499999999658-1.766999999999825,2.718200000000252-2.967200000000048.679699999999684-1.199300000000221,1.019099999999526-2.643099999999322,1.019099999999526-4.33009999999922v-34.729500000000371h7.765600000000632v50.087899999999536h-7.765600000000632v-8.061099999999897Z"/><path class="uuid-ce36e737-7721-43a9-a192-ed1088b4ef4d" d="M350.034700000000157,364.328999999999724c-1.683600000000297,0-2.896999999999935-.403299999999945-3.640199999999822-1.213399999999638-.744599999999991-.808100000000195-1.11620000000039-1.858900000000176-1.11620000000039-3.15480000000025v-1.261700000000019c0-1.293899999999667.371600000000399-2.34519999999975,1.11620000000039-3.155299999999443.743199999999888-.808600000000297,1.956599999999526-1.213300000000345,3.640199999999822-1.213300000000345,1.682099999999991,0,2.895499999999629.404700000000048,3.64009999999962,1.213300000000345.743199999999888.810099999999693,1.11620000000039,1.861399999999776,1.11620000000039,3.155299999999443v1.261700000000019c0,1.295900000000074-.373000000000502,2.346700000000055-1.11620000000039,3.15480000000025-.744599999999991.810099999999693-1.957999999999629,1.213399999999638-3.64009999999962,1.213399999999638ZM346.151899999999841,376.07510000000002h7.765599999999722v50.087899999999536h-7.765599999999722v-50.087899999999536Z"/><path class="uuid-ce36e737-7721-43a9-a192-ed1088b4ef4d" d="M385.465799999999945,427.328000000000429c-4.659099999999853,0-8.559100000000399-.89010000000053-11.697199999999611-2.668900000000576-3.13970000000063-1.779300000000148-5.840900000000147-4.158199999999852-8.105500000000575-7.134799999999814l5.533199999999852-4.465799999999945c1.941400000000613,2.459899999999834,4.108900000000176,4.352499999999964,6.503900000000613,5.67870000000039,2.393600000000333,1.327099999999518,5.176800000000185,1.990199999999277,8.348199999999451,1.990199999999277,3.300200000000586,0,5.8725000000004-.711899999999332,7.716700000000856-2.135699999999815,1.84479999999985-1.422899999999572,2.766599999999016-3.429699999999684,2.766599999999016-6.018600000000333,0-1.941399999999703-.630799999999908-3.606399999999667-1.892499999999927-4.998999999999796-1.262199999999211-1.390599999999722-3.543499999999767-2.344699999999648-6.843799999999646-2.863299999999981l-3.980000000000473-.582999999999629c-2.329499999999825-.323199999999815-4.465299999999843-.824700000000121-6.406699999999546-1.503900000000613-1.941399999999703-.680199999999786-3.64009999999962-1.585399999999936-5.096199999999953-2.718199999999342-1.456000000000131-1.131400000000212-2.58889999999974-2.539600000000064-3.397500000000036-4.223200000000361-.8100000000004-1.681599999999889-1.213300000000345-3.688500000000204-1.213300000000345-6.01760000000013,0-2.458999999999833.452100000000428-4.611299999999574,1.358900000000176-6.454999999999927.905700000000252-1.84479999999985,2.150800000000345-3.381899999999405,3.737299999999777-4.611399999999776,1.584900000000744-1.228500000000167,3.478000000000975-2.150899999999638,5.67870000000039-2.766599999999926,2.199200000000019-.614199999999983,4.5625-.921900000000278,7.08640000000014-.921900000000278,4.076699999999619,0,7.489300000000185.712400000000343,10.240700000000288,2.135299999999916,2.75,1.424299999999675,5.16019999999935,3.397500000000036,7.231999999999971,5.921400000000176l-5.145100000000639,4.659200000000055c-1.100999999999658-1.552800000000389-2.71770000000015-2.960000000000036-4.853500000000167-4.222700000000259-2.135199999999713-1.261700000000019-4.82129999999961-1.89260000000013-8.056599999999889-1.89260000000013-3.236799999999675,0-5.67869999999948.695800000000418-7.329099999999926,2.086900000000242-1.649899999999434,1.392100000000028-2.475099999999657,3.285200000000259-2.475099999999657,5.678800000000592,0,2.459899999999834.825200000000223,4.239199999999983,2.475099999999657,5.338799999999537,1.650400000000445,1.101599999999962,4.028800000000047,1.909200000000055,7.134700000000521,2.426800000000185l3.882899999999609.581999999999425c5.564900000000307.841800000000148,9.513100000000122,2.444300000000112,11.84270000000015,4.805200000000696,2.329600000000028,2.363299999999981,3.494700000000194,5.45259999999962,3.494700000000194,9.270499999999629,0,4.853500000000167-1.650400000000445,8.67240000000038-4.950700000000325,11.454600000000028-3.300299999999879,2.783199999999852-7.831100000000333,4.173800000000483-13.589899999999943,4.173800000000483Z"/><path class="uuid-ce36e737-7721-43a9-a192-ed1088b4ef4d" d="M428.081100000002152,426.162999999999556c-2.717800000002171,0-4.773000000001048-.757799999999406-6.164100000001781-2.274899999999434-1.392099999999118-1.516599999999926-2.086899999998423-3.503400000000511-2.086899999998423-5.957500000000437v-34.96389999999974h-8.251000000002023v-6.891599999999926h4.659200000000055c1.682099999999991,0,2.830600000001141-.340299999999843,3.44629999999961-1.019999999999527.614200000001802-.679200000000492.921900000001187-1.859400000000278.921900000001187-3.543000000000575v-9.318900000000212h6.989199999999983v13.881900000000314h10.969299999998839v6.891599999999926h-10.969299999998839v36.304699999999684h10.192399999999907v6.891599999999926h-9.706999999998516Z"/><path class="uuid-ce36e737-7721-43a9-a192-ed1088b4ef4d" d="M454.969699999999648,364.328999999999724c-1.683599999999387,0-2.896899999998823-.403299999999945-3.64009999999962-1.213399999999638-.744599999999991-.808100000000195-1.116699999998673-1.858900000000176-1.116699999998673-3.15480000000025v-1.261700000000019c0-1.293899999999667.372099999998682-2.34519999999975,1.116699999998673-3.155299999999443.743200000000797-.808600000000297,1.956500000000233-1.213300000000345,3.64009999999962-1.213300000000345,1.682200000002013,0,2.895500000001448.404700000000048,3.640200000002551,1.213300000000345.743099999997867.810099999999693,1.116200000001299,1.861399999999776,1.116200000001299,3.155299999999443v1.261700000000019c0,1.295900000000074-.373100000003433,2.346700000000055-1.116200000001299,3.15480000000025-.744700000001103.810099999999693-1.958000000000538,1.213399999999638-3.640200000002551,1.213399999999638ZM451.086900000001151,376.07510000000002h7.765599999998813v50.087899999999536h-7.765599999998813v-50.087899999999536Z"/><path class="uuid-ce36e737-7721-43a9-a192-ed1088b4ef4d" d="M493.992200000000594,427.328000000000429c-3.494599999999991,0-6.634299999998802-.615700000000288-9.415999999998348-1.843700000000354-2.783200000000761-1.229000000000269-5.129400000001624-2.976599999999962-7.037599999998747-5.242199999999684-1.909700000002886-2.26470000000063-3.365700000003926-5.01470000000063-4.368200000001707-8.251000000000204-1.003899999999703-3.235400000000482-1.504400000001624-6.859400000000278-1.504400000001624-10.872100000000501,0-4.011700000000019.500500000001921-7.635699999999815,1.504400000001624-10.871999999999389,1.002499999997781-3.235400000000482,2.458499999998821-5.985400000000482,4.368200000001707-8.251000000000204,1.908199999997123-2.264699999999721,4.254399999997986-4.011700000000019,7.037599999998747-5.242200000000594,2.781699999999546-1.228499999999258,5.921399999998357-1.843799999999646,9.415999999998348-1.843799999999646,4.982399999998051,0,8.979000000002088,1.083999999999833,11.988300000000891,3.251000000000204,3.009300000000621,2.169499999999971,5.257300000000214,5,6.746600000001308,8.494200000000092l-6.503900000001522,3.300699999999779c-.906800000000658-2.587800000000243-2.395100000000639-4.594699999999648-4.465399999999136-6.018500000000131-2.071800000001531-1.422899999999572-4.659200000001874-2.135800000000017-7.765600000001541-2.135800000000017-2.329599999998209,0-4.368199999998978.373100000000704-6.115699999999379,1.116299999999683-1.747100000000501.744599999999991-3.203099999999722,1.781200000000354-4.368200000001707,3.106400000000576-1.164499999999862,1.327199999999721-2.03859999999986,2.912099999999555-2.620599999997467,4.756400000000212-.582500000000437,1.84519999999975-.873999999999796,3.867599999999584-.873999999999796,6.066799999999603v8.542000000000371c0,4.402399999999943,1.180199999998877,8.00879999999961,3.543399999998655,10.823800000000119,2.361400000000685,2.815399999999499,5.839400000000751,4.222599999999147,10.435099999999693,4.222599999999147,6.276400000001559,0,10.806600000000799-2.911599999999453,13.58980000000065-8.736299999999574l5.630400000000009,3.785600000000159c-1.618199999998978,3.625-4.028299999999945,6.503899999999703-7.231899999999769,8.639699999999721-3.203099999999722,2.135200000000623-7.199700000000121,3.203100000000632-11.988300000000891,3.203100000000632Z"/><path class="uuid-ce36e737-7721-43a9-a192-ed1088b4ef4d" d="M539.226600000000872,427.328000000000429c-4.659700000000157,0-8.55909999999858-.89010000000053-11.697299999999814-2.668900000000576-3.139600000000428-1.779300000000148-5.840799999999945-4.158199999999852-8.105499999999665-7.134799999999814l5.533199999999852-4.465799999999945c1.941399999999703,2.459899999999834,4.108899999998357,4.352499999999964,6.503899999999703,5.67870000000039,2.393100000001141,1.327099999999518,5.176299999999173,1.990199999999277,8.348200000000361,1.990199999999277,3.30029999999897,0,5.872599999998783-.711899999999332,7.716799999998329-2.135699999999815,1.844700000001467-1.422899999999572,2.766600000002654-3.429699999999684,2.766600000002654-6.018600000000333,0-1.941399999999703-.630900000000111-3.606399999999667-1.892600000001039-4.998999999999796-1.262199999999211-1.390599999999722-3.543400000000474-2.344699999999648-6.843699999999444-2.863299999999981l-3.979999999999563-.582999999999629c-2.329600000000937-.323199999999815-4.465300000000752-.824700000000121-6.406799999999748-1.503900000000613-1.941400000002432-.680199999999786-3.640100000001439-1.585399999999936-5.096099999999751-2.718199999999342-1.456100000002152-1.131400000000212-2.588900000002468-2.539600000000064-3.397500000000946-4.223200000000361-.810100000000602-1.681599999999889-1.213400000000547-3.688500000000204-1.213400000000547-6.01760000000013,0-2.458999999999833.45220000000154-4.611299999999574,1.358900000001086-6.454999999999927.905800000000454-1.84479999999985,2.150899999998728-3.381899999999405,3.737299999998868-4.611399999999776,1.585000000000946-1.228500000000167,3.478000000000975-2.150899999999638,5.678700000001299-2.766599999999926,2.199199999999109-.614199999999983,4.5625-.921900000000278,7.08639999999923-.921900000000278,4.076699999999619,0,7.489299999999275.712400000000343,10.240799999999581,2.135299999999916,2.75,1.424299999999675,5.160099999997328,3.397500000000036,7.231900000000678,5.921400000000176l-5.145000000001346,4.659200000000055c-1.101099999998951-1.552800000000389-2.717799999999443-2.960000000000036-4.853500000001077-4.222700000000259-2.135299999997187-1.261700000000019-4.821299999998701-1.89260000000013-8.056699999998273-1.89260000000013-3.236800000000585,0-5.678699999998571.695800000000418-7.329100000002654,2.086900000000242-1.649899999998524,1.392100000000028-2.475099999997838,3.285200000000259-2.475099999997838,5.678800000000592,0,2.459899999999834.825199999999313,4.239199999999983,2.475099999997838,5.338799999999537,1.650400000004083,1.101599999999962,4.028800000000956,1.909200000000055,7.134800000001633,2.426800000000185l3.882800000000316.581999999999425c5.564900000000307.841800000000148,9.513200000000325,2.444300000000112,11.842799999999443,4.805200000000696,2.329600000002756,2.363299999999981,3.494599999999991,5.45259999999962,3.494599999999991,9.270499999999629,0,4.853500000000167-1.650400000000445,8.67240000000038-4.950699999999415,11.454600000000028-3.30029999999897,2.783199999999852-7.83100000000104,4.173800000000483-13.589799999999741,4.173800000000483Z"/><path class="uuid-ce36e737-7721-43a9-a192-ed1088b4ef4d" d="M126.483400000000074,543.813400000000001c-5.501000000000204,0-10.192399999999907-1.052800000000389-14.075200000000223-3.154300000000148-3.882799999999406-2.102600000000166-7.183600000000297-4.999499999999898-9.90139999999974-8.688500000000204l6.018600000000333-5.047899999999572c2.393099999999322,3.171899999999368,5.04739999999947,5.582099999999627,7.959499999999025,7.232500000000073,2.912100000000464,1.649900000000343,6.341800000000148,2.475099999999657,10.290000000000873,2.475099999999657,4.853499999999258,0,8.557099999999991-1.165100000000166,11.114299999999275-3.494700000000194,2.555600000000595-2.329999999999927,3.834400000000642-5.435999999999694,3.834400000000642-9.31880000000001,0-3.23489999999947-.970700000000761-5.727100000000064-2.912100000000464-7.474099999999453-1.941399999999703-1.748100000000704-5.144999999999527-3.138700000000426-9.609800000000178-4.174800000000687l-5.533199999999852-1.261799999999312c-6.212899999999536-1.422800000000279-10.954099999999926-3.574200000000019-14.221199999999953-6.454999999999927-3.268599999999424-2.878900000000613-4.901899999999841-6.940500000000611-4.901899999999841-12.182700000000295,0-2.975500000000466.548799999999574-5.629799999999705,1.649900000000343-7.95889999999963,1.100099999999657-2.33010000000013,2.63629999999921-4.271500000000742,4.610899999999674-5.824700000000121,1.97360000000026-1.55330000000049,4.334899999999834-2.733000000000175,7.08640000000014-3.543500000000677,2.75-.808599999999387,5.775899999999638-1.213399999999638,9.076200000000426-1.213399999999638,5.111299999999574,0,9.496099999999387.939000000000306,13.153299999999945,2.815400000000409,3.655299999999443,1.8774999999996,6.746099999999387,4.6274999999996,9.269999999999527,8.251000000000204l-6.115200000000186,4.465399999999136c-1.877999999999702-2.587899999999536-4.14260000000013-4.625999999999294-6.795000000000073-6.115799999999581-2.654299999999239-1.487799999999879-5.954999999999927-2.232899999999972-9.901299999999537-2.232899999999972-4.33640000000014,0-7.750500000000102.922899999999572-10.24120000000039,2.766599999999926-2.491699999999582,1.84479999999985-3.737299999999777,4.611399999999776-3.737299999999777,8.299799999999777,0,3.236799999999675,1.051199999999881,5.67870000000039,3.15520000000015,7.328599999999824,2.102100000000064,1.650400000000445,5.290099999999256,2.961500000000342,9.561599999999999,3.932200000000194l5.53269999999975,1.261700000000019c6.664499999999862,1.489199999999983,11.486300000000483,3.753899999999703,14.463400000000547,6.79489999999987,2.975999999999658,3.042000000000371,4.465299999999843,7.085900000000038,4.465299999999843,12.13380000000052,0,3.106399999999667-.533699999999953,5.920900000000074-1.601599999999962,8.445299999999406-1.067800000000716,2.52350000000024-2.605900000000474,4.659200000000055-4.610800000000381,6.406300000000556-2.006900000000314,1.747499999999491-4.450200000000223,3.106399999999667-7.328599999999824,4.077099999999518-2.880400000000009.970700000000761-6.132400000000416,1.456100000000333-9.755900000000111,1.456100000000333Z"/><path class="uuid-ce36e737-7721-43a9-a192-ed1088b4ef4d" d="M182.007300000000214,543.813400000000001c-3.365700000000288,0-6.439900000000307-.615799999999581-9.221599999999853-1.844299999999748-2.783199999999852-1.228000000000065-5.161700000000565-2.992600000000493-7.134799999999814-5.290500000000065-1.974600000000464-2.295900000000074-3.511200000000827-5.04740000000038-4.610900000000584-8.251000000000204-1.100999999999658-3.203099999999722-1.649899999999434-6.810499999999593-1.649899999999434-10.823199999999815,0-3.94630000000052.548899999999776-7.538100000000668,1.649899999999434-10.775400000000445,1.099699999999757-3.234400000000278,2.636300000000119-6.001999999999498,4.610900000000584-8.299299999999675,1.973099999999249-2.296400000000176,4.351599999999962-4.060100000000602,7.134799999999814-5.290600000000268,2.781699999999546-1.228500000000167,5.855899999999565-1.843699999999444,9.221599999999853-1.843699999999444,3.364300000000185,0,6.421900000000278.615199999999277,9.173399999999674,1.843699999999444,2.75,1.230499999999665,5.128400000000511,2.994200000000092,7.134699999999611,5.290600000000268,2.005400000000009,2.297300000000178,3.558600000000297,5.064899999999398,4.659700000000157,8.299299999999675,1.099600000000464,3.237299999999777,1.649900000000343,6.829099999999926,1.649900000000343,10.775400000000445,0,4.012700000000223-.550299999999879,7.620100000000093-1.649900000000343,10.823199999999815-1.10109999999986,3.203599999999824-2.654300000000148,5.95510000000013-4.659700000000157,8.251000000000204-2.006299999999101,2.297899999999572-4.384699999999611,4.0625-7.134699999999611,5.290500000000065-2.751499999999396,1.228500000000167-5.809099999999489,1.844299999999748-9.173399999999674,1.844299999999748ZM182.007300000000214,536.921299999999974c4.206100000000333,0,7.635299999999916-1.293499999999767,10.289600000000064-3.882800000000316,2.652799999999843-2.587399999999434,3.979999999999563-6.535699999999451,3.979999999999563-11.84230000000025v-7.183599999999387c0-5.305699999999888-1.327199999999721-9.253899999999703-3.979999999999563-11.842800000000352-2.654300000000148-2.587399999999434-6.083499999999731-3.882799999999406-10.289600000000064-3.882799999999406-4.207000000000335,0-7.636700000000019,1.295399999999972-10.289499999999862,3.882799999999406-2.654300000000148,2.588900000000649-3.980000000000473,6.537100000000464-3.980000000000473,11.842800000000352v7.183599999999387c0,5.306600000000799,1.325700000000325,9.254900000000816,3.980000000000473,11.84230000000025,2.652799999999843,2.589300000000549,6.082499999999527,3.882800000000316,10.289499999999862,3.882800000000316Z"/><path class="uuid-ce36e737-7721-43a9-a192-ed1088b4ef4d" d="M236.075700000000325,543.813400000000001c-3.494100000000799,0-6.63380000000052-.615799999999581-9.415500000000065-1.844299999999748-2.783199999999852-1.228000000000065-5.129899999999907-2.976000000000568-7.037600000000566-5.241700000000492-1.909699999999248-2.264599999999518-3.365799999999581-5.014599999999518-4.368199999999888-8.250900000000001-1.004399999999805-3.235399999999572-1.504899999999907-6.859399999999368-1.504899999999907-10.872099999999591,0-4.011700000000019.500500000000102-7.635800000000017,1.504899999999907-10.872100000000501,1.002400000000307-3.23529999999937,2.45850000000064-5.98529999999937,4.368199999999888-8.250999999999294,1.907700000000659-2.264600000000428,4.254400000000714-4.011700000000928,7.037600000000566-5.242200000000594,2.781699999999546-1.228500000000167,5.921399999999267-1.843699999999444,9.415500000000065-1.843699999999444,4.98239999999987,0,8.97899999999936,1.083999999999833,11.988800000000083,3.251499999999396,3.00879999999961,2.169399999999769,5.256799999999203,4.999499999999898,6.746099999999387,8.493600000000697l-6.503499999999804,3.300799999999072c-.907199999999648-2.587899999999536-2.395500000000538-4.594699999999648-4.465799999999945-6.018599999999424-2.07129999999961-1.422800000000279-4.659200000000055-2.135699999999815-7.765599999999722-2.135699999999815-2.329099999999926,0-4.368199999999888.372999999999593-6.115200000000186,1.11619999999948-1.747099999999591.745100000000093-3.203199999999924,1.780800000000454-4.368199999999888,3.106499999999869-1.164999999999964,1.327100000000428-2.03859999999986,2.912100000000464-2.621100000000297,4.75630000000001-.582000000000335,1.844700000000557-.873499999999694,3.867700000000696-.873499999999694,6.066900000000714v8.542999999999665c0,4.401299999999537,1.180099999999584,8.007800000000316,3.542899999999463,10.823199999999815,2.361900000000787,2.8149999999996,5.839399999999841,4.222200000000157,10.435100000000602,4.222200000000157,6.27639999999974,0,10.806599999999889-2.912100000000464,13.589799999999741-8.736399999999776l5.630400000000009,3.785699999999451c-1.618199999999888,3.625-4.028299999999945,6.503900000000613-7.231399999999667,8.639600000000428-3.203600000000733,2.135299999999916-7.200200000000223,3.203199999999924-11.988800000000083,3.203199999999924Z"/><path class="uuid-ce36e737-7721-43a9-a192-ed1088b4ef4d" d="M270.146999999999935,480.814300000000003c-1.683599999999387,0-2.896999999999935-.403299999999945-3.640199999999822-1.212800000000243-.744599999999991-.809099999999489-1.11620000000039-1.85989999999947-1.11620000000039-3.155300000000352v-1.261699999999109c0-1.293999999999869.371600000000399-2.345300000000861,1.11620000000039-3.155300000000352.743199999999888-.808600000000297,1.956600000000435-1.212900000000445,3.640199999999822-1.212900000000445,1.682099999999991,0,2.895499999999629.404300000000148,3.64009999999962,1.212900000000445.743200000000797.809999999999491,1.11620000000039,1.861300000000483,1.11620000000039,3.155300000000352v1.261699999999109c0,1.295400000000882-.372999999999593,2.346200000000863-1.11620000000039,3.155300000000352-.744599999999991.809500000000298-1.957999999999629,1.212800000000243-3.64009999999962,1.212800000000243ZM266.264199999999619,492.559900000000198h7.765600000000632v50.088399999999638h-7.765600000000632v-50.088399999999638Z"/><path class="uuid-ce36e737-7721-43a9-a192-ed1088b4ef4d" d="M309.363800000000083,543.813400000000001c-3.430699999999888,0-6.520499999999629-.615799999999581-9.270499999999629-1.844299999999748-2.751000000000204-1.228000000000065-5.112800000000789-2.992600000000493-7.08600000000024-5.290500000000065-1.975100000000566-2.295900000000074-3.494599999999991-5.04740000000038-4.5625-8.251000000000204-1.067799999999806-3.203099999999722-1.60149999999976-6.810499999999593-1.60149999999976-10.823199999999815,0-3.94630000000052.533699999999953-7.538100000000668,1.60149999999976-10.775400000000445,1.067900000000009-3.234400000000278,2.587399999999434-6.001999999999498,4.5625-8.299299999999675,1.973199999999451-2.296400000000176,4.335000000000036-4.060100000000602,7.08600000000024-5.290600000000268,2.75-1.228500000000167,5.839799999999741-1.843699999999444,9.270499999999629-1.843699999999444,3.364199999999983,0,6.372999999999593.612299999999777,9.027299999999741,1.837899999999536,2.653299999999945,1.225599999999758,4.917500000000473,2.91989999999987,6.79489999999987,5.079600000000028,1.876500000000306,2.159599999999955,3.316000000000713,4.723100000000159,4.319900000000416,7.689900000000307,1.002399999999398,2.966799999999239,1.504899999999907,6.223199999999451,1.504899999999907,9.769099999999526v3.677200000000084h-36.013699999999517v2.329099999999926c0,2.135800000000017.339799999999741,4.125500000000102,1.019499999999425,5.97019999999975.679199999999582,1.844300000000658,1.649900000000343,3.445800000000418,2.912100000000464,4.804700000000594,1.261699999999109,1.358900000000176,2.8149999999996,2.426800000000185,4.659200000000055,3.203599999999824,1.844199999999546.77639999999974,3.931599999999889,1.164600000000064,6.261199999999008,1.164600000000064,3.170000000000073,0,5.936600000000908-.743199999999888,8.299300000000585-2.23239999999987,2.361899999999878-1.487799999999879,4.189500000000407-3.623599999999897,5.48489999999947-6.406800000000658l5.533200000000761,4.005400000000009c-1.618600000000697,3.45260000000053-4.14260000000013,6.235800000000381-7.571800000000621,8.351599999999962-3.431099999999788,2.115700000000288-7.507799999999406,3.174300000000585-12.230899999999565,3.174300000000585ZM309.363800000000083,497.898799999999937c-2.135800000000017,0-4.07720000000063.370100000000093-5.824200000000019,1.110399999999572-1.747600000000602.740700000000288-3.252000000000407,1.785100000000966-4.513699999999517,3.135200000000623-1.26220000000103,1.349599999999555-2.249500000000808,2.942399999999907-2.960900000000038,4.774400000000242-.712900000000445,1.833499999999731-1.067900000000009,3.843299999999545-1.067900000000009,6.030299999999443v.674799999999777h27.665499999999156v-1.061499999999796c0-4.4375-1.213399999999638-7.989799999999377-3.64009999999962-10.659200000000055-2.426800000000185-2.668899999999667-5.646999999999935-4.004399999999805-9.658699999999953-4.004399999999805Z"/><path class="uuid-ce36e737-7721-43a9-a192-ed1088b4ef4d" d="M354.889699999999721,542.648299999999836c-2.717799999999443,0-4.772999999999229-.757799999999406-6.164099999999962-2.274400000000242-1.392100000000028-1.517099999999118-2.086900000000242-3.503899999999703-2.086900000000242-5.957999999999629v-34.96389999999974h-8.250999999999294v-6.892100000000028h4.659200000000055c1.682099999999991,0,2.830600000000231-.33980000000065,3.44629999999961-1.019500000000335.614199999999983-.679199999999582.921800000000076-1.858900000000176.921800000000076-3.542500000000473v-9.319299999999203h6.989300000000185v13.88130000000001h10.969199999999546v6.892100000000028h-10.969199999999546v36.304699999999684h10.192399999999907v6.891599999999926h-9.707000000000335Z"/><path class="uuid-ce36e737-7721-43a9-a192-ed1088b4ef4d" d="M408.763699999999517,492.559900000000198h7.668900000000576l-22.423300000000381,61.73739999999998c-.582499999999527,1.487699999999677-1.165100000000166,2.732899999999972-1.747599999999693,3.736799999999675-.582000000000335,1.002900000000409-1.29489999999987,1.796400000000176-2.135199999999713,2.378399999999601-.841800000000148.582500000000437-1.893100000000231,1.003400000000511-3.15480000000025,1.26220000000103-1.262200000000121.257799999999406-2.799799999999777.388199999999415-4.610800000000381.388199999999415h-3.979999999999563v-6.892100000000028h7.862799999999879l3.785600000000159-10.66110000000026-18.73490000000038-51.949799999999414h7.765699999999924l12.037100000000464,34.006399999999303,2.329600000000028,8.139200000000528h.48529999999937l2.717800000000352-8.139200000000528,12.13379999999961-34.006399999999303Z"/><path class="uuid-ce36e737-7721-43a9-a192-ed1088b4ef4d" d="M124.50341796875,637.561504687500019l-2.416015625-7.67822265625h-10.69775390625l-2.37255859375,7.67822265625h-5.7802734375l10.09423828125-30.109375h7.07421875l10.0078125,30.109375h-5.90966796875ZM116.8251953125,612.628399218750019h-.2158203125l-3.83935546875,12.38037109375h7.93701171875l-3.8818359375-12.38037109375Z"/><path class="uuid-ce36e737-7721-43a9-a192-ed1088b4ef4d" d="M153.96484375,637.561504687500019l-2.416015625-7.67822265625h-10.69775390625l-2.37255859375,7.67822265625h-5.7802734375l10.09423828125-30.109375h7.07421875l10.0078125,30.109375h-5.90966796875ZM146.2861328125,612.628399218750019h-.21533203125l-3.83935546875,12.38037109375h7.93701171875l-3.88232421875-12.38037109375Z"/></g></svg>