<?xml version="1.0" encoding="UTF-8"?><svg id="uuid-136d7fd2-4090-4e84-9bd4-261891265610" xmlns="http://www.w3.org/2000/svg" width="231.163844306045149mm" height="250.002318467563953mm" xmlns:xlink="http://www.w3.org/1999/xlink" viewBox="0 0 655.26760000000013 708.667999999999665"><defs><style>.uuid-ecf19dba-f3e4-40be-b617-a99e26d5f6a9{fill:#fff;}.uuid-88a30219-31f6-45a2-9eac-c9333907f62d{fill:none;}.uuid-0b1f4e72-e4ce-45fd-b23c-bafd14c2753f{fill:#333e48;}.uuid-b15224e4-08ab-49e8-9547-edc0f1094c33{clip-path:url(#uuid-de64057e-26cb-4ae8-bec4-f7d26b16a99c);}</style><clipPath id="uuid-de64057e-26cb-4ae8-bec4-f7d26b16a99c"><rect class="uuid-88a30219-31f6-45a2-9eac-c9333907f62d" width="655.26760000000013" height="708.667999999999665"/></clipPath></defs><g class="uuid-b15224e4-08ab-49e8-9547-edc0f1094c33"><path class="uuid-ecf19dba-f3e4-40be-b617-a99e26d5f6a9" d="M158.440900000000511,271.572299999999814c-9.105400000000373,21.527299999999741-14.519500000000335,44.144500000000335-16.16989999999987,67.425699999999779,3.587899999999536-2.921800000000076,8.159200000000055-4.679599999999482,13.136699999999109-4.679599999999482,5.495200000000295,0,10.488300000000891,2.154300000000148,14.216800000000148,5.636699999999109,7.337900000000445-95.591799999999239,87.224600000000464-170.871399999999539,184.701200000000426-170.871399999999539,7.552700000000186,0,13.674799999999777-6.122799999999643,13.674799999999777-13.675499999999829,0-7.552500000000236-6.122099999999591-13.675799999999981-13.674799999999777-13.675799999999981-28.689400000000205,0-56.53610000000026,5.625300000000152-82.765599999999722,16.719000000000051-25.318400000000111,10.708799999999883-48.052800000000389,26.032999999999902-67.567399999999907,45.548600000000079-19.518600000000333,19.51759999999922-34.844700000000557,42.252000000000407-45.551800000000185,67.572299999999814Z"/><path class="uuid-ecf19dba-f3e4-40be-b617-a99e26d5f6a9" d="M339.185100000000602,538.968699999999444c-94.95510000000013-7.681599999999889-169.671900000000278-86.962799999999334-170.101599999999962-183.796800000000076,0-7.550799999999072-6.120100000000093-13.675799999999072-13.675800000000891-13.675799999999072-7.552699999999277,0-13.675699999999779,6.125-13.675699999999779,13.675799999999072.109300000000076,28.394500000000335,5.722600000000057,55.955100000001039,16.70890000000054,81.927700000000186,10.707099999999627,25.318400000000111,26.033199999999852,48.052700000000186,45.551800000000185,67.568400000000111,19.514599999999518,19.517499999999927,42.248999999999796,34.843700000000354,67.567399999999907,45.552700000000186,21.255799999999908,8.990200000000186,43.573199999999815,14.386700000000019,66.53899999999976,16.111300000000483-2.886700000000019-3.579999999999927-4.626900000000205-8.123000000000502-4.626900000000205-13.068300000000818,0-5.533199999999852,2.183600000000297-10.556699999999182,5.712900000000445-14.295000000000073Z"/><path class="uuid-ecf19dba-f3e4-40be-b617-a99e26d5f6a9" d="M502.526900000000751,487.412099999999555c-2.66990000000078-2.671899999999368-6.16990000000078-4.005900000000111-9.66990000000078-4.005900000000111-3.498099999999795,0-7,1.334000000000742-9.671899999999368,4.005900000000111-33.341800000000148,32.291000000000167-78.775400000000445,52.175800000000891-128.859400000000278,52.175800000000891-7.552700000000186,0-13.675799999999981,6.122999999999593-13.675799999999981,13.675799999999072,0,7.552700000000186,6.123099999999795,13.675800000000891,13.675799999999981,13.675800000000891,28.690400000000409,0,56.53519999999935-5.625,82.763700000000426-16.718800000000556,24.408199999999852-10.320299999999406,46.401299999999537-24.947299999999814,65.4375-43.468699999999444,5.343699999999444-5.339900000000853,5.343699999999444-13.998100000000704,0-19.339900000000853Z"/><path class="uuid-ecf19dba-f3e4-40be-b617-a99e26d5f6a9" d="M354.325700000000325,566.939500000000407c-7.552700000000186,0-13.675799999999981-6.123100000000704-13.675799999999981-13.675800000000891,0-7.552799999999479,6.123099999999795-13.675799999999072,13.675799999999981-13.675799999999072,50.083999999999833,0,95.51760000000013-19.884800000000723,128.859400000000278-52.175800000000891,2.671899999999368-2.671899999999368,6.173799999999574-4.005900000000111,9.671899999999368-4.005900000000111,3.5,0,7,1.334000000000742,9.66990000000078,4.005900000000111,5.343699999999444,5.341800000000148,5.343699999999444,14,0,19.339900000000853-19.036200000000463,18.52139999999963-41.029300000000148,33.148400000000038-65.4375,43.468699999999444-26.228500000001077,11.093800000000556-54.073300000000017,16.718800000000556-82.763700000000426,16.718800000000556ZM271.560100000000602,550.220699999999852c-25.318400000000111-10.708999999999833-48.052800000000389-26.035200000000259-67.567399999999907-45.552700000000186-19.518600000000333-19.515699999999924-34.844700000000557-42.25-45.551800000000185-67.568400000000111-10.986300000000483-25.972599999999147-16.599600000000464-53.533199999999852-16.70890000000054-81.927700000000186,0-7.550799999999072,6.123000000000502-13.675799999999072,13.675699999999779-13.675799999999072,7.555700000000797,0,13.675800000000891,6.125,13.675800000000891,13.675799999999072.429699999999684,96.834000000000742,75.146499999999833,176.115200000000186,170.101599999999962,183.796800000000076-3.529300000000148,3.738300000000891-5.712900000000445,8.761800000000221-5.712900000000445,14.295000000000073,0,4.945300000000316,1.740200000000186,9.488300000000891,4.626900000000205,13.068300000000818-22.965799999999945-1.724600000000464-45.283199999999852-7.121100000000297-66.53899999999976-16.111300000000483ZM354.325700000000325,141.73239999999987c7.552700000000186,0,13.674799999999777,6.123299999999745,13.674799999999777,13.675799999999981,0,7.552700000000186-6.122099999999591,13.675499999999829-13.674799999999777,13.675499999999829-97.476599999999962,0-177.363299999999981,75.2796000000003-184.701200000000426,170.871399999999539-3.728499999999258-3.482399999998961-8.721599999999853-5.636699999999109-14.216800000000148-5.636699999999109-4.977499999999054,0-9.548799999999574,1.757799999999406-13.136699999999109,4.679599999999482,1.650399999999536-23.281199999999444,7.064499999999498-45.898400000000038,16.16989999999987-67.425699999999779,10.707099999999627-25.320299999999406,26.033199999999852-48.054700000000594,45.551800000000185-67.572299999999814,19.514599999999518-19.515600000000177,42.248999999999796-34.839800000000196,67.567399999999907-45.548600000000079,26.229499999999462-11.093699999999899,54.076199999999517-16.719000000000051,82.765599999999722-16.719000000000051Z"/><path class="uuid-ecf19dba-f3e4-40be-b617-a99e26d5f6a9" d="M466.911600000000362,241.75c-30.070300000000316-30.072299999999814-70.054600000000391-46.632800000000316-112.585900000000038-46.632800000000316-42.52730000000065,0-82.512700000000223,16.560500000000502-112.583999999999833,46.632800000000316-30.072200000000521,30.072299999999814-46.636700000000019,70.056599999999889-46.636700000000019,112.585900000000038s16.564499999999498,82.511800000000221,46.636700000000019,112.585999999999331c30.07129999999961,30.070300000000316,70.056699999999182,46.634700000000521,112.583999999999833,46.634700000000521,42.531299999999646,0,82.515599999999722-16.564400000000205,112.585900000000038-46.634700000000521,30.073300000000017-30.074199999999109,46.632899999999609-70.056699999999182,46.632899999999609-112.585999999999331s-16.559599999999591-82.513600000000224-46.632899999999609-112.585900000000038Z"/><path class="uuid-0b1f4e72-e4ce-45fd-b23c-bafd14c2753f" d="M242.114800000000287,405.826199999999517v-102.978499999999258h22.333999999999833v7.611299999999574h-12.944400000000314v87.753900000000613h12.944400000000314v7.613299999999072h-22.333999999999833Z"/><path class="uuid-0b1f4e72-e4ce-45fd-b23c-bafd14c2753f" d="M466.536600000000362,302.847700000000259v102.978499999999258h-22.328099999999722v-7.613299999999072h12.938499999999294v-87.753900000000613h-12.938499999999294v-7.611299999999574h22.328099999999722Z"/><path class="uuid-0b1f4e72-e4ce-45fd-b23c-bafd14c2753f" d="M293.985899999999674,375.255900000000111c0,2.056599999999889.032200000000557,4.484300000000076.095700000000761,7.27139999999963.0625,2.789099999999962.150399999999536,5.623100000000704.259699999999611,8.496100000000297.105499999999665,2.875.233400000000074,5.623099999999795.386800000000221,8.240299999999479.14639999999963,2.617200000000594.329999999999927,4.804700000000594.54489999999987,6.5625h-13.193400000000111v-72.730499999999665c0-6.263699999999517-.10739999999987-11.9375-.322299999999814-17.023400000000038-.212800000000243-5.085999999999331-.535100000000057-9.494200000000092-.966699999999946-13.224599999999555h13.195299999999406v72.408199999999852Z"/><path class="uuid-0b1f4e72-e4ce-45fd-b23c-bafd14c2753f" d="M351.59230000000025,340.175799999999981v8.433599999999387h-12.100599999999758v48.787100000000464h12.100599999999758v8.431599999999889h-36.042000000000371v-8.431599999999889h11.906300000000556v-48.787100000000464h-11.906300000000556v-8.433599999999387h36.042000000000371Z"/><path class="uuid-0b1f4e72-e4ce-45fd-b23c-bafd14c2753f" d="M378.626500000000306,340.175799999999981c.255799999999908.6875.513699999999517,1.576200000000426.771499999999833,2.673799999999574.259699999999611,1.093800000000556.492199999999684,2.240200000000186.708999999999833,3.441399999999703.210900000000038,1.201200000000426.404300000000148,2.382800000001225.579999999999927,3.541000000001077l.511800000000221,2.89259999999922c4.121000000000095-4.890599999999722,8.259700000000521-8.417999999999665,12.421800000000076-10.585900000000038,4.164099999999962-2.165999999999258,8.5-3.25,13.002999999999702-3.25,3.433600000000297,0,6.469700000000557.568300000000818,9.10739999999987,1.704999999999927,2.639600000000428,1.140699999999924,4.860300000000279,2.941500000000815,6.663100000000668,5.406300000000556,1.799799999999777,2.468699999999444,3.162099999999555,5.667999999999665,4.087899999999536,9.591800000000148.921800000000076,3.927700000000186,1.382800000000316,8.654300000000148,1.382800000000316,14.193400000000111v28.960900000000038c0,7.251899999999296-.634799999999814,13.273400000000038-1.900399999999536,18.054699999999684-1.263700000000426,4.787100000000464-3.037100000000464,8.603500000000167-5.308600000000297,11.460900000000038-2.27350000000024,2.849600000000464-5.011700000000019,4.867199999999684-8.207000000000335,6.046900000000278-3.197299999999814,1.179699999999684-6.748099999999795,1.771499999998923-10.652399999999943,1.771499999998923-1.930699999999888,0-4.001000000000204-.3125-6.210900000000038-.933599999999387-2.208999999999833-.625-4.214899999999943-1.492199999999684-6.01760000000013-2.60739999999987l4.183600000000297-9.656300000000556c.986299999999574.730500000000575,2.305699999999888,1.341800000000148,3.958999999999833,1.835900000000038,1.650399999999536.492200000000594,3.335900000000038.738300000000891,5.048799999999574.738300000000891,2.0625,0,3.908200000000761-.329999999999927,5.540000000000873-.996100000000297,1.629899999999907-.664000000000669,3.011799999999312-1.832000000000335,4.149499999999534-3.505800000000818,1.136700000000019-1.675799999999072,2.005799999999908-3.970699999999852,2.60739999999987-6.888699999999517.599600000000464-2.917999999999665.900400000000445-6.630900000000111.900400000000445-11.134799999999814v-28.320299999999406c0-5.148400000000038-.26760000000013-9.322200000000521-.804699999999684-12.519500000000335-.535200000000259-3.195300000000316-1.342800000000352-5.685600000000704-2.415100000000166-7.464799999999741-1.071200000000317-1.781300000000556-2.413000000000466-2.972700000000259-4.024400000000242-3.576200000000426-1.605400000000373-.597700000000259-3.483400000000074-.89850000000024-5.628899999999703-.89850000000024-2.316400000000613,0-4.578100000000632.546900000000278-6.788100000000668,1.644599999999627-2.209899999999834,1.091800000000148-4.24119999999948,2.507800000000316-6.086899999999332,4.246100000000297-1.843700000000354,1.736300000000483-3.47360000000026,3.697200000000521-4.888700000000426,5.888600000000224-1.414999999999964,2.189500000000407-2.468700000000354,4.375-3.156200000000354,6.564500000000407v37.331999999999425h-11.906299999999646v-39.583999999999833c0-6.349599999999555-.365200000000186-11.724599999999555-1.095699999999852-16.122999999999593-.72649999999976-4.398400000000038-1.4375-7.714900000000853-2.123000000000502-9.945300000000316h11.587900000000445Z"/></g></svg>