<?xml version="1.0" encoding="UTF-8"?><svg id="uuid-48d272b1-f2f4-48af-b67f-1672a0280c01" xmlns="http://www.w3.org/2000/svg" width="690.992067122340586mm" height="249.999214023166246mm" xmlns:xlink="http://www.w3.org/1999/xlink" viewBox="0 0 1958.717700000001059 708.659200000000055"><defs><style>.uuid-d901f55d-38d9-4e58-acc3-0d3110366675{fill:#00c2f3;}.uuid-fafdf654-983b-4afd-940a-e3c54bdef288{fill:#fff;}.uuid-2020dfc4-10c2-4ead-85e7-986cee7e8c1a{fill:#ee212e;}.uuid-67e8f4a0-b5dd-4fa5-973e-d6c50c07dd1c{fill:none;}.uuid-13d1f866-4605-4bde-90f3-a9076f3c5d30{fill:#333e48;}.uuid-aaaa27e5-f0ce-4bcc-bd2d-54e909199c89{fill:#46bc96;}.uuid-d2888b31-b833-406c-8ff5-9423197d7f2a{clip-path:url(#uuid-e7c79c85-30e3-4262-8b96-ec5092377676);}</style><clipPath id="uuid-e7c79c85-30e3-4262-8b96-ec5092377676"><rect class="uuid-67e8f4a0-b5dd-4fa5-973e-d6c50c07dd1c" width="1958.717700000001059" height="708.659200000000055"/></clipPath></defs><g class="uuid-d2888b31-b833-406c-8ff5-9423197d7f2a"><path class="uuid-2020dfc4-10c2-4ead-85e7-986cee7e8c1a" d="M155.417000000001281,341.49119999999948c7.554699999998775,0,13.675699999999779,6.122599999999693,13.675699999999779,13.675299999999879-.001900000000205-.279300000000148-.011700000000928-.558100000000195-.011700000000928-.838400000000547,0-102.309099999999489,82.936600000000908-185.247499999999491,185.247100000000501-185.247499999999491,7.552700000000186,0,13.675799999999981-6.120600000000195,13.675799999999981-13.674399999999878,0-7.552200000000084-6.123099999999795-13.675299999999879-13.675799999999981-13.675299999999879-28.6875,0-56.533199999999852,5.625499999999192-82.761700000000019,16.718799999999646-25.318400000000111,10.709500000000844-48.050799999999981,26.033199999999852-67.566400000000613,45.548800000000483-19.51759999999922,19.51759999999922-34.842799999999443,42.25-45.549799999998868,67.568400000000111-11.093800000000556,26.228499999999258-16.718800000000556,54.073199999999815-16.718800000000556,82.761199999999008,0,.280300000000352.007799999999406.559100000000399.009799999999814.838400000000547,0-7.552700000000186,6.122999999999593-13.675299999999879,13.675800000000891-13.675299999999879Z"/><path class="uuid-aaaa27e5-f0ce-4bcc-bd2d-54e909199c89" d="M340.654300000000148,553.252399999999398c0-7.552700000000186,6.121100000000297-13.675299999999879,13.673800000000483-13.675299999999879-102.031300000000556,0-184.784200000000055-82.486299999999574-185.235399999999572-184.410600000000159,0-7.552700000000186-6.121000000001004-13.675299999999879-13.675699999999779-13.675299999999879-7.552800000001298,0-13.675800000000891,6.122599999999693-13.675800000000891,13.675299999999879.109400000000278,28.393100000000231,5.722600000000057,55.951199999999517,16.709000000000742,81.924300000000585,10.706999999999425,25.318400000000111,26.032199999999648,48.052699999999277,45.549799999998868,67.566899999999805,19.515600000000632,19.519000000000233,42.248000000000502,34.842800000000352,67.566400000000613,45.552299999999377,26.228500000000167,11.093200000000252,54.074200000000019,16.718200000000252,82.761700000000019,16.718200000000252-7.552700000000186,0-13.673800000000483-6.123000000000502-13.673800000000483-13.675799999999981Z"/><path class="uuid-d901f55d-38d9-4e58-acc3-0d3110366675" d="M502.525400000000445,487.401799999999639c-5.337900000000445-5.340799999999945-13.996100000000297-5.340799999999945-19.339899999999943,0-33.341799999999239,32.290600000000268-78.773400000000038,52.175299999999879-128.85739999999987,52.175299999999879-7.552700000000186,0-13.673800000000483,6.122599999999693-13.673800000000483,13.675299999999879,0,7.552799999999479,6.121100000000297,13.675799999999981,13.673800000000483,13.675799999999981,28.691399999999703,0,56.535200000000259-5.625,82.763699999999517-16.718200000000252,24.406200000000354-10.321799999999712,46.400400000000445-24.947799999999916,65.433600000000297-43.466800000000148,5.343699999999444-5.340399999999136,5.343699999999444-14,0-19.341399999999339Z"/><path class="uuid-d901f55d-38d9-4e58-acc3-0d3110366675" d="M466.912100000000464,241.746599999999489c-30.070300000000316-30.071800000000621-70.054699999999684-46.630900000000111-112.583999999999833-46.630900000000111-42.525400000000445,0-82.509799999999814,16.559099999999489-112.582000000000335,46.630900000000111-30.070299999999406,30.072199999999611-46.632799999999406,70.054699999999684-46.632799999999406,112.581499999999323,0,42.530300000000352,16.5625,82.510300000000825,46.632799999999406,112.583000000000538,30.072200000000521,30.071799999999712,70.056599999999889,46.634299999999712,112.582000000000335,46.634299999999712,42.529300000000148,0,82.513699999999517-16.5625,112.583999999999833-46.634299999999712,30.072199999999611-30.072699999999713,46.630799999999908-70.052700000000186,46.630799999999908-112.583000000000538,0-42.526799999999639-16.558600000000297-82.509299999999712-46.630799999999908-112.581499999999323Z"/><path class="uuid-13d1f866-4605-4bde-90f3-a9076f3c5d30" d="M242.121100000000297,405.818799999999101v-102.977499999999054h22.334000000000742v7.611799999998766h-12.945400000000518v87.752500000000509h12.945400000000518v7.613199999999779h-22.334000000000742Z"/><path class="uuid-13d1f866-4605-4bde-90f3-a9076f3c5d30" d="M466.537100000000464,302.841300000000047v102.977499999999054h-22.328099999999722v-7.613199999999779h12.9375v-87.752500000000509h-12.9375v-7.611799999998766h22.328099999999722Z"/><path class="uuid-fafdf654-983b-4afd-940a-e3c54bdef288" d="M293.990200000000186,375.248499999999694c0,2.056699999999182.033199999999852,4.484399999999368.095699999999852,7.271499999999833.0625,2.789600000000064.150400000000445,5.623499999999694.259800000000723,8.496099999999387.105399999999463,2.875500000000102.23239999999987,5.623100000000704.386700000000019,8.239300000001094.146499999999833,2.618599999999788.33009999999922,4.805599999999686.54489999999987,6.563399999999092h-13.193299999999908v-72.730399999999463c0-6.263200000000325-.105499999999665-11.936599999999999-.322299999999814-17.021499999999833-.212900000000445-5.08600000000024-.535200000000259-9.495100000000093-.964900000000853-13.225599999999758h13.193400000000111v72.407199999999648Z"/><path class="uuid-fafdf654-983b-4afd-940a-e3c54bdef288" d="M351.595700000000761,340.169399999998859v8.433600000000297h-12.101600000000872v48.786200000000463h12.101600000000872v8.430599999999686h-36.041000000000167v-8.430599999999686h11.906199999999444v-48.786200000000463h-11.906199999999444v-8.433600000000297h36.041000000000167Z"/><path class="uuid-fafdf654-983b-4afd-940a-e3c54bdef288" d="M378.628900000000613,340.169399999998859c.255799999999908.689000000000306.513700000000426,1.57720000000063.771499999999833,2.673400000000584.259700000000521,1.093200000000252.492200000000594,2.239700000000084.70889999999963,3.440900000000511.21100000000115,1.201199999999517.404300000000148,2.382799999999406.580100000001039,3.54149999999936l.511699999999109,2.892100000000028c4.121100000000297-4.889200000000528,8.257900000000518-8.418000000000575,12.421900000000278-10.583999999999833,4.162100000000464-2.166000000000167,8.5-3.25,13.001999999999498-3.25,3.433600000000297,0,6.468700000001263.567900000000009,9.10740000000078,1.704099999999926,2.638699999999517,1.139599999999518,4.861300000000483,2.941400000000613,6.662099999999555,5.405799999999545,1.800800000000891,2.469200000000455,3.162100000000464,5.666900000000169,4.087900000000445,9.591300000000047.921899999999368,3.927700000000186,1.382799999999406,8.655200000001059,1.382799999999406,14.194300000001022v28.958999999998923c0,7.253400000000511-.634799999999814,13.272399999999834-1.900399999999536,18.054200000000492-1.263700000000426,4.786099999999351-3.037100000000464,8.60399999999936-5.308599999999387,11.460399999999936-2.273400000000038,2.849599999999555-5.011700000000928,4.867200000000594-8.207000000000335,6.046899999999368-3.195300000000316,1.181600000000799-6.746100000000297,1.771500000000742-10.652400000000853,1.771500000000742-1.929599999999482,0-4-.311999999999898-6.210900000000038-.933600000000297-2.208999999998923-.625-4.214799999999741-1.49120000000039-6.01759999999922-2.60739999999987l4.185599999999795-9.653800000000047c.986299999999574.729000000000269,2.304699999999684,1.339300000000549,3.956999999999425,1.835399999999936,1.652400000000853.490700000000288,3.337900000000445.738299999999981,5.050800000000891.738299999999981,2.0625,0,3.906199999999444-.332000000000335,5.539099999999962-.997599999999693,1.628899999999703-.664499999999862,3.011699999999109-1.832499999999527,4.148400000000038-3.50630000000001,1.138699999999517-1.673800000000483,2.007799999999406-3.969699999999648,2.609399999999368-6.886199999999917.599600000000464-2.919499999999971.898400000000038-6.631400000000212.898400000000038-11.134800000000723v-28.320799999999508c0-5.148400000000038-.26759999999922-9.322299999999814-.802700000000186-12.518599999999424-.537099999999555-3.196200000000317-1.343799999999646-5.686500000000706-2.415999999999258-7.465799999999945-1.070400000000518-1.781200000000354-2.412200000000666-2.970700000000761-4.02350000000024-3.574200000000928-1.60739999999987-.597700000000259-3.484400000000278-.900399999999536-5.630799999999908-.900399999999536-2.314500000000407,0-4.576199999999517.547900000000482-6.787200000000666,1.644999999999527-2.20889999999963,1.091300000000047-4.240199999999277,2.509299999999712-6.085900000000038,4.245100000000093-1.843699999999444,1.736899999999878-3.474599999999555,3.699300000000221-4.888699999999517,5.889699999999721-1.415999999999258,2.189000000000306-2.468699999999444,4.374499999999898-3.156199999999444,6.564000000000306v37.331000000000131h-11.906300000000556v-39.583000000000538c0-6.349599999999555-.365200000000186-11.724599999999555-1.095699999999852-16.122999999999593-.726500000000669-4.398499999999331-1.4375-7.712899999999536-2.122999999999593-9.944400000000314h11.587899999999536Z"/><path class="uuid-13d1f866-4605-4bde-90f3-a9076f3c5d30" d="M626.664976719670449,336.832399999999325v-100.471099999999751h12.090799694560701v89.819300000000112h42.750998920018901v10.651799999999639h-54.841798614579602Z"/><path class="uuid-13d1f866-4605-4bde-90f3-a9076f3c5d30" d="M703.384674781570538,245.141499999999724c-2.497099936919767,0-4.295899891480076-.597600000000966-5.397474781570054-1.798800000000483-1.104425054179956-1.199200000000019-1.656225040239406-2.756799999999203-1.656225040239406-4.67870000000039v-1.871099999999387c0-1.918500000000677.55179998605945-3.477499999999964,1.656225040239406-4.678199999999379,1.101574890089978-1.198800000000119,2.900374844650287-1.799300000000585,5.397474781570054-1.799300000000585,2.494125218429872,0,4.294025218429852.600500000000466,5.397525218430019,1.799300000000585,1.102499999999964,1.200699999999415,1.65520000000015,2.759699999998702,1.65520000000015,4.678199999999379v1.871099999999387c0,1.921900000001187-.552700000000186,3.479500000000371-1.65520000000015,4.67870000000039-1.103500000000167,1.201199999999517-2.903400000000147,1.798800000000483-5.397525218430019,1.798800000000483ZM697.626874927020253,262.559499999999389h11.515625072980583v74.272899999999936h-11.515625072980583v-74.272899999999936Z"/><path class="uuid-13d1f866-4605-4bde-90f3-a9076f3c5d30" d="M733.612200000000485,336.832399999999325v-74.272899999999936h11.515699999999924v11.953100000000632h.576100000000224c1.82130000000052-4.17870000000039,4.38970000000063-7.505800000000818,7.700200000000223-9.974600000000464,3.311599999999999-2.469700000000557,7.748099999999795-3.706500000000233,13.314500000000407-3.706500000000233,7.676799999999275,0,13.747099999999591,2.471199999999953,18.208999999998923,7.412600000000566,4.461900000000242,4.943299999998999,6.693300000000818,11.925699999999779,6.693300000000818,20.943799999999101v47.644500000000335h-11.514600000000428v-45.728499999999258c0-13.368600000000697-5.615200000000186-20.052700000000186-16.841800000000148-20.052700000000186-2.302700000000186,0-4.535200000000259.290499999999156-6.693400000000111.865699999999379-2.159099999999853.578099999999722-4.102499999999054,1.443900000000212-5.829999999999927,2.597700000000259-1.726599999999962,1.153800000000047-3.09479999999985,2.620100000000093-4.101599999999962,4.399399999999332-1.007799999999406,1.778800000000047-1.511700000000019,3.871100000000297-1.511700000000019,6.274900000000343v51.643500000000131h-11.515699999999924Z"/><path class="uuid-13d1f866-4605-4bde-90f3-a9076f3c5d30" d="M874.386700000000928,334.385699999998906c0,10.266600000000835-2.878899999999703,18.328100000000632-8.636800000000221,24.181599999999889-5.757800000000316,5.853000000000975-13.868099999999686,8.781300000000556-24.326100000000224,8.781300000000556-6.045900000000074,0-11.252999999999702-.940500000000611-15.618199999999888-2.818400000000111-4.367199999999684-1.882299999999304-7.988299999999981-4.363299999999981-10.867199999999684-7.447299999999814l6.765599999999722-7.952100000000428c2.494200000000092,2.568300000000818,5.373099999999795,4.54490000000078,8.636800000000221,5.926300000000992,3.260699999999815,1.380799999998999,7.052699999999277,2.070799999999508,11.371099999999387,2.070799999999508,6.715799999999945,0,11.921800000000076-1.855499999999665,15.617100000000391-5.563500000000204,3.693400000000111-3.71389999999974,5.542000000000371-9.183600000000297,5.542000000000371-16.411599999999453v-10.274000000000342h-.575200000000223c-2.20890000000054,4.561099999999897-5.087800000000243,7.979500000000371-8.636700000000019,10.259799999999814-3.551699999999983,2.281200000000354-7.917000000000371,3.421400000000176-13.099599999999555,3.421400000000176-4.605500000000575,0-8.779300000000148-.91359999999986-12.522400000000744-2.73489999999947-3.742199999999684-1.822200000000521-6.909200000000055-4.413100000000668-9.5-7.772400000000744-2.590900000000147-3.358400000000074-4.606499999999869-7.435599999999795-6.045900000000074-12.235400000000482-1.439500000000407-4.79739999999947-2.158199999999852-10.170899999999165-2.158199999999852-16.122099999999591,0-5.948199999999815.718699999999444-11.32169999999951,2.158199999999852-16.121099999999387,1.439400000000205-4.797300000000178,3.454999999999927-8.875400000000809,6.045900000000074-12.235300000000279,2.590799999999945-3.357899999999972,5.757800000000316-5.948699999999917,9.5-7.772500000000036,3.743100000000595-1.822199999999611,7.916900000000169-2.734800000000178,12.522400000000744-2.734800000000178,5.182599999999184,0,9.619199999999182,1.117600000000493,13.315399999999499,3.34860000000026,3.692399999999907,2.233399999999165,6.499099999999999,5.676799999999275,8.420900000000074,10.332500000000437h.575200000000223v-11.953100000000632h11.515699999999924v71.826199999999517ZM844.014600000000428,328.339799999999741c2.591800000000148,0,5.038099999999758-.337400000000343,7.341800000000148-1.012200000000121,2.302700000000186-.674799999999777,4.292999999999665-1.664600000000064,5.972600000000057-2.966300000000047,1.677800000000389-1.29989999999998,3.02350000000024-2.89260000000013,4.031299999999646-4.772500000000036,1.006800000000112-1.880400000000009,1.510700000000725-4.075200000000223,1.510700000000725-6.583000000000538v-27.632299999999304c0-2.024000000000342-.481400000000576-3.929200000000492-1.439400000000205-5.715400000000955-.960000000000036-1.783199999999852-2.30370000000039-3.301199999999881-4.030300000000352-4.556099999999788-1.727499999999964-1.2524999999996-3.742199999999684-2.240699999999379-6.04489999999987-2.964399999998932-2.30370000000039-.724100000001272-4.75-1.08640000000014-7.341800000000148-1.08640000000014-6.527399999999943,0-11.708999999999833,2.073199999998906-15.54489999999987,6.221199999999953-3.839899999999943,4.147399999999834-5.757800000000316,9.499499999999898-5.757800000000316,16.058100000000195v12.729999999999563c0,6.558600000000297,1.917900000000373,11.911099999999351,5.757800000000316,16.058600000000297,3.835900000000038,4.146899999999732,9.017499999999927,6.220699999999852,15.54489999999987,6.220699999999852Z"/><path class="uuid-13d1f866-4605-4bde-90f3-a9076f3c5d30" d="M944.627900000000409,324.878799999999501h-.576200000000426c-.768599999999424,1.711500000000342-1.704099999999016,3.39850000000024-2.806599999999889,5.060599999999795-1.10359999999946,1.662099999999555-2.470699999999852,3.134700000000521-4.101599999999962,4.416500000000269-1.632799999999406,1.282199999999648-3.598599999999351,2.30369999999948-5.902299999999741,3.063900000000103-2.302799999999479.759799999999814-4.990299999999479,1.140199999999822-8.060599999999795,1.140199999999822-7.677700000000186,0-13.771499999999833-2.469699999999648-18.280299999999443-7.41359999999986-4.511700000000928-4.940899999999601-6.765600000000632-11.921900000000278-6.765600000000632-20.942900000000009v-47.644000000000233h11.515600000000632v45.727499999999964c0,13.36869999999999,5.661199999999553,20.052800000000389,16.985399999999572,20.052800000000389,2.302700000000186,0,4.534200000000055-.287100000000464,6.693299999999908-.86620000000039,2.159200000000055-.575199999999313,4.07720000000063-1.440500000000611,5.757899999999609-2.59479999999985,1.677700000000186-1.154300000000148,3.022399999999834-2.620100000000093,4.029300000000148-4.399400000000242,1.007800000000316-1.778299999999945,1.511700000000019-3.91989999999987,1.511700000000019-6.421400000000176v-51.498499999999694h11.515599999999722v74.272899999999936h-11.515599999999722v-11.953599999999824Z"/><path class="uuid-13d1f866-4605-4bde-90f3-a9076f3c5d30" d="M986.370100000000093,245.141499999999724c-2.496099999999387,0-4.295000000000073-.597600000000966-5.397499999999127-1.798800000000483-1.104500000000371-1.199200000000019-1.655300000000352-2.756799999999203-1.655300000000352-4.67870000000039v-1.871099999999387c0-1.918500000000677.550799999999981-3.477499999999964,1.655300000000352-4.678199999999379,1.102499999999054-1.198800000000119,2.90139999999974-1.799300000000585,5.397499999999127-1.799300000000585,2.494099999999889,0,4.293900000000576.600500000000466,5.398400000000038,1.799300000000585,1.101599999999962,1.200699999999415,1.654300000000148,2.759699999998702,1.654300000000148,4.678199999999379v1.871099999999387c0,1.921900000001187-.552700000000186,3.479500000000371-1.654300000000148,4.67870000000039-1.104499999999462,1.201199999999517-2.904300000000148,1.798800000000483-5.398400000000038,1.798800000000483ZM980.612200000000485,262.559499999999389h11.515699999999924v74.272899999999936h-11.515699999999924v-74.272899999999936Z"/><path class="uuid-13d1f866-4605-4bde-90f3-a9076f3c5d30" d="M1038.909100000000763,338.559999999999491c-6.909200000000055,0-12.691399999999703-1.319800000000214-17.344699999999648-3.95850000000064-4.655300000000352-2.638199999999415-8.66110000000026-6.165099999999256-12.019500000000335-10.58009999999922l8.204099999999926-6.621100000000297c2.878899999999703,3.648000000000138,6.093700000000354,6.45510000000013,9.644499999999425,8.41989999999987,3.548800000000483,1.968799999999646,7.676800000001094,2.951700000000528,12.378900000000613,2.951700000000528,4.894499999999425,0,8.708999999999833-1.055200000000696,11.443400000000111-3.166500000000269,2.73529999999937-2.10990000000038,4.102499999999964-5.085900000000038,4.102499999999964-8.924799999999777,0-2.878899999999703-.935499999999593-5.348200000000361-2.806599999999889-7.413099999999758-1.872100000000501-2.0625-5.253899999999703-3.476599999999962-10.147500000000946-4.246100000000297l-5.902299999999741-.863800000000083c-3.45509999999922-.479000000000269-6.621099999999387-1.223100000000159-9.5-2.230899999999565-2.878899999999703-1.007800000001225-5.397499999999127-2.350600000000668-7.556699999999182-4.030300000000352-2.159200000000055-1.677700000000186-3.83980000000065-3.76510000000053-5.038100000000668-6.261700000000019-1.201099999999315-2.494099999999889-1.799799999999777-5.469700000000557-1.799799999999777-8.923799999999574,0-3.646500000000742.66989999999987-6.837400000000343,2.015699999999924-9.572800000000825,1.34270000000015-2.73490000000038,3.189400000000205-5.012200000000121,5.541900000000169-6.836899999999332,2.350599999999758-1.821800000000621,5.15729999999985-3.189900000000307,8.420000000000073-4.102100000000064,3.261700000000019-.91110000000026,6.765599999999722-1.367600000000493,10.50879999999961-1.367600000000493,6.04490000000078,0,11.105400000000373,1.057099999999991,15.185499999999593,3.166500000000269,4.077100000000428,2.112299999999777,7.651400000000649,5.038099999999758,10.72360000000117,8.78019999999924l-7.629800000000614,6.909200000000055c-1.632900000000518-2.302699999999277-4.029300000000148-4.39009999999962-7.19629999999961-6.260699999998906-3.167000000000371-1.871600000000399-7.149500000000444-2.807600000000093-11.947299999999814-2.807600000000093-4.799800000000687,0-8.420900000000984,1.032199999999648-10.868200000000797,3.09519999999975-2.44629999999961,2.063899999999194-3.66989999999987,4.871600000000399-3.66989999999987,8.420399999999972,0,3.648399999999128,1.22360000000026,6.28610000000026,3.66989999999987,7.916500000000269,2.447299999999814,1.633299999999508,5.974600000000464,2.831499999999323,10.58010000000013,3.599099999999453l5.757800000000316.863299999999981c8.252000000000407,1.248000000000502,14.106499999999869,3.623500000000604,17.560599999999795,7.125,3.454999999999927,3.504899999999907,5.182600000000093,8.085399999999936,5.182600000000093,13.746100000000297,0,7.197299999999814-2.447299999999814,12.860799999999472-7.340799999999945,16.985799999999472-4.894600000000537,4.127500000000509-11.613299999999981,6.189500000000407-20.152399999999943,6.189500000000407Z"/><path class="uuid-13d1f866-4605-4bde-90f3-a9076f3c5d30" d="M1102.100500000000466,336.832399999999325c-4.029300000000148,0-7.077100000000428-1.124499999999898-9.139600000000428-3.373499999999694-2.064499999999498-2.248999999999796-3.094699999999648-5.195300000000316-3.094699999999648-8.834500000000844v-51.846199999999953h-12.235399999999572v-10.218699999999444h6.909200000000055c2.494099999999889,0,4.197199999999611-.504899999999907,5.110300000000279-1.512699999999313.911199999999553-1.006800000001022,1.367199999999684-2.756800000001022,1.367199999999684-5.252900000001318v-13.819399999999405h10.364300000000185v20.585000000000036h16.265599999999722v10.218699999999444h-16.265599999999722v53.835000000000946h15.113299999999072v10.219199999999546h-14.394599999999627Z"/><path class="uuid-13d1f866-4605-4bde-90f3-a9076f3c5d30" d="M1141.972600000000966,245.141499999999724c-2.496100000000297,0-4.295900000000984-.597600000000966-5.397500000000946-1.798800000000483-1.104499999999462-1.199200000000019-1.65519999999924-2.756799999999203-1.65519999999924-4.67870000000039v-1.871099999999387c0-1.918500000000677.550699999999779-3.477499999999964,1.65519999999924-4.678199999999379,1.101599999999962-1.198800000000119,2.901400000000649-1.799300000000585,5.397500000000946-1.799300000000585,2.495100000000093,0,4.293899999999667.600500000000466,5.397499999999127,1.799300000000585,1.102500000000873,1.200699999999415,1.656200000000354,2.759699999998702,1.656200000000354,4.678199999999379v1.871099999999387c0,1.921900000001187-.55369999999948,3.479500000000371-1.656200000000354,4.67870000000039-1.10359999999946,1.201199999999517-2.902399999999034,1.798800000000483-5.397499999999127,1.798800000000483ZM1136.21480000000065,262.559499999999389h11.515599999999722v74.272899999999936h-11.515599999999722v-74.272899999999936Z"/><path class="uuid-13d1f866-4605-4bde-90f3-a9076f3c5d30" d="M1199.836900000000242,338.559999999999491c-5.181699999999182,0-9.836999999999534-.91359999999986-13.961999999999534-2.73489999999947-4.126900000000205-1.822200000000521-7.606400000000576-4.413100000000668-10.435499999999593-7.772400000000744-2.832000000000335-3.358400000000074-4.99120000000039-7.435599999999795-6.477500000000873-12.235400000000482-1.488299999999072-4.79739999999947-2.230499999999665-10.170899999999165-2.230499999999665-16.122099999999591,0-5.948199999999815.742200000000594-11.32169999999951,2.230499999999665-16.121099999999387,1.486300000000483-4.797300000000178,3.645500000000538-8.875400000000809,6.477500000000873-12.235300000000279,2.829099999999016-3.357899999999972,6.308599999999387-5.948699999999917,10.435499999999593-7.772500000000036,4.125-1.822199999999611,8.780300000000352-2.734800000000178,13.961999999999534-2.734800000000178,7.388600000000224,0,13.315400000000409,1.607899999999972,17.777299999999741,4.82169999999951,4.461900000000242,3.216400000001158,7.79490000000078,7.413100000000668,10.003900000000613,12.59480000000076l-9.644499999999425,4.894500000000335c-1.343800000000556-3.837400000000343-3.550800000000891-6.813000000000102-6.621100000000297-8.924800000000687-3.072299999999814-2.109399999999368-6.909200000000055-3.16649999999936-11.515600000000632-3.16649999999936-3.454099999999016,0-6.476599999999962.553199999999379-9.068400000000111,1.655299999999443-2.589799999999741,1.104000000000269-4.75,2.64009999999962-6.476599999999962,4.606399999999667-1.727499999999054,1.96730000000025-3.023400000000038,4.318400000000111-3.886699999999109,7.052700000000186-.863300000000891,2.73490000000038-1.295900000000984,5.735899999999674-1.295900000000984,8.995700000000397v12.666899999999259c0,6.527900000000955,1.75,11.876000000000204,5.254899999999907,16.050300000000789,3.501000000000204,4.174399999999878,8.658200000000761,6.261300000000119,15.472700000000259,6.261300000000119,9.306599999999889,0,16.025300000000243-4.318400000000111,20.152299999999741-12.95510000000013l8.34860000000117,5.614199999999983c-2.399400000000242,5.375499999999192-5.97360000000117,9.644599999999627-10.72360000000117,12.811099999999897s-10.675799999999072,4.75-17.777299999999741,4.75Z"/><path class="uuid-13d1f866-4605-4bde-90f3-a9076f3c5d30" d="M1266.913000000000466,338.559999999999491c-6.909200000000055,0-12.691399999999703-1.319800000000214-17.344699999999648-3.95850000000064-4.655300000000352-2.638199999999415-8.66110000000026-6.165099999999256-12.019500000000335-10.58009999999922l8.204099999999926-6.621100000000297c2.878900000000613,3.648000000000138,6.093700000000354,6.45510000000013,9.644500000000335,8.41989999999987,3.548799999999574,1.968799999999646,7.675799999999981,2.951700000000528,12.378899999999703,2.951700000000528,4.894500000000335,0,8.708999999999833-1.055200000000696,11.443400000000111-3.166500000000269,2.735300000000279-2.10990000000038,4.102499999999964-5.085900000000038,4.102499999999964-8.924799999999777,0-2.878899999999703-.935499999999593-5.348200000000361-2.806599999999889-7.413099999999758-1.872100000000501-2.0625-5.253899999999703-3.476599999999962-10.147500000000036-4.246100000000297l-5.902299999999741-.863800000000083c-3.45510000000013-.479000000000269-6.621100000000297-1.223100000000159-9.5-2.230899999999565-2.878900000000613-1.007800000001225-5.397500000000036-2.350600000000668-7.556700000000092-4.030300000000352-2.159200000000055-1.677700000000186-3.839799999999741-3.76510000000053-5.038099999999758-6.261700000000019-1.201100000000224-2.494099999999889-1.799800000000687-5.469700000000557-1.799800000000687-8.923799999999574,0-3.646500000000742.670000000000073-6.837400000000343,2.015699999999924-9.572800000000825,1.342700000001059-2.73490000000038,3.189400000000205-5.012200000000121,5.541900000000169-6.836899999999332,2.350599999999758-1.821800000000621,5.15730000000076-3.189900000000307,8.420000000000073-4.102100000000064,3.260700000000725-.91110000000026,6.765600000000632-1.367600000000493,10.50879999999961-1.367600000000493,6.04490000000078,0,11.105400000000373,1.057099999999991,15.185500000000502,3.166500000000269,4.07720000000063,2.112299999999777,7.65139999999974,5.038099999999758,10.72360000000026,8.78019999999924l-7.629800000000614,6.909200000000055c-1.632899999999609-2.302699999999277-4.029300000000148-4.39009999999962-7.197299999999814-6.260699999998906-3.165999999999258-1.871600000000399-7.148400000000038-2.807600000000093-11.94629999999961-2.807600000000093-4.799800000000687,0-8.420900000000074,1.032199999999648-10.868200000000797,3.09519999999975-2.44629999999961,2.063899999999194-3.669899999998961,4.871600000000399-3.669899999998961,8.420399999999972,0,3.648399999999128,1.223599999999351,6.28610000000026,3.669899999998961,7.916500000000269,2.447300000000723,1.633299999999508,5.974600000000464,2.831499999999323,10.580100000001039,3.599099999999453l5.757799999999406.863299999999981c8.252000000000407,1.248000000000502,14.106499999999869,3.623500000000604,17.560600000000704,7.125,3.45509999999922,3.504899999999907,5.181599999999889,8.085399999999936,5.181599999999889,13.746100000000297,0,7.197299999999814-2.44630000000052,12.860799999999472-7.33980000000065,16.985799999999472-4.894599999999627,4.127500000000509-11.613299999999981,6.189500000000407-20.152399999999943,6.189500000000407Z"/><path class="uuid-13d1f866-4605-4bde-90f3-a9076f3c5d30" d="M1378.035100000000966,338.559999999999491c-8.157200000000557,0-15.114300000000185-1.561099999999897-20.872100000000501-4.678200000000288-5.757799999999406-3.117199999999684-10.651299999999537-7.413099999999758-14.681599999999889-12.882899999999609l8.923800000000483-7.485300000000279c3.549799999999777,4.703099999999722,7.485399999999572,8.276899999999841,11.80369999999948,10.72360000000026,4.318400000000111,2.447299999999814,9.403299999999945,3.670899999999165,15.257800000000316,3.670899999999165,7.197299999999814,0,12.689500000000407-1.727499999999054,16.481499999999869-5.181599999999889,3.78899999999976-3.45509999999922,5.685499999999593-8.061499999999796,5.685499999999593-13.818899999999303,0-4.796800000000076-1.439399999999296-8.492100000000391-4.318299999999908-11.082499999999527-2.878899999999703-2.591800000000148-7.628899999999703-4.654300000000148-14.25-6.190400000000409l-8.20510000000013-1.871100000000297c-9.211900000000242-2.110400000000482-16.242199999999684-5.301300000000083-21.086900000000242-9.57130000000052-4.846700000000055-4.269499999999425-7.269599999999627-10.292999999999665-7.269599999999627-18.065899999999601,0-4.412599999999657.814500000000407-8.348200000000361,2.447299999999814-11.802700000000186,1.630900000000111-3.454599999999118,3.909200000000055-6.333499999999731,6.836900000000242-8.636300000000119,2.925799999999981-2.30369999999948,6.427800000000389-4.05369999999948,10.507800000000316-5.253899999999703,4.078199999999924-1.199199999999109,8.564499999999498-1.799799999999777,13.458999999999833-1.799799999999777,7.579099999999926,0,14.081099999999424,1.39260000000013,19.503899999999703,4.174799999999777,5.420000000000073,2.784200000000055,10.003899999999703,6.861300000000483,13.746100000000297,12.235399999999572l-9.068299999999908,6.620600000000195c-2.784200000000055-3.837399999999434-6.14260000000013-6.85989999999947-10.075200000000223-9.068400000000111-3.936599999999999-2.206499999999323-8.83009999999922-3.310499999999593-14.682600000000093-3.310499999999593-6.429699999999684,0-11.492199999999684,1.367200000000594-15.185599999999795,4.102000000000771-3.695300000000316,2.735399999999572-5.542000000000371,6.837899999999536-5.542000000000371,12.307199999999284,0,4.800199999999677,1.558600000000297,8.420799999999872,4.67870000000039,10.867599999999584,3.117200000000594,2.446800000000621,7.843800000000556,4.390699999999924,14.177799999999479,5.830100000001039l8.204999999999927,1.871099999999387c9.882900000000518,2.208499999999731,17.03230000000076,5.566400000000613,21.447300000000723,10.075700000000325,4.412100000000464,4.511199999999917,6.621099999999387,10.507799999999406,6.621099999999387,17.992699999999786,0,4.606399999999667-.790999999999258,8.78020000000015-2.375,12.523400000000038-1.583999999998923,3.742199999999684-3.864299999999275,6.909200000000055-6.836899999999332,9.5-2.975600000000668,2.590799999999945-6.59860000000026,4.606399999999667-10.868199999999888,6.045399999999972-4.270500000000538,1.439500000000407-9.092800000000352,2.159200000000055-14.465799999999945,2.159200000000055Z"/><path class="uuid-13d1f866-4605-4bde-90f3-a9076f3c5d30" d="M1460.369100000000799,338.559999999999491c-4.99120000000039,0-9.549799999999777-.91359999999986-13.674799999999777-2.73489999999947-4.127000000000407-1.822200000000521-7.654300000000148-4.438000000000102-10.580100000001039-7.845200000000659-2.927699999999277-3.404799999999341-5.206099999999424-7.484400000000278-6.836899999999332-12.23490000000038-1.632800000000316-4.75-2.44630000000052-10.098599999999351-2.44630000000052-16.049799999999777,0-5.85149999999976.813500000000204-11.177699999999277,2.44630000000052-15.977499999999964,1.630799999999908-4.796899999999368,3.909200000000055-8.899400000000242,6.836899999999332-12.306599999999889,2.925800000000891-3.405300000000352,6.453100000000632-6.020999999999731,10.580100000001039-7.84479999999985,4.125-1.822199999999611,8.683599999999387-2.734800000000178,13.674799999999777-2.734800000000178,4.988299999999981,0,9.522399999999834.912600000000566,13.602499999999964,2.734800000000178,4.077199999999721,1.823800000000119,7.603500000000167,4.439499999999498,10.579099999999926,7.84479999999985,2.973699999999553,3.407199999999648,5.27639999999974,7.509700000000521,6.909200000000055,12.306599999999889,1.630900000000111,4.799800000000687,2.447299999999814,10.126000000000204,2.447299999999814,15.977499999999964,0,5.951200000000426-.816399999999703,11.299799999999777-2.447299999999814,16.049799999999777-1.632800000000316,4.750500000000102-3.935500000000502,8.830100000001039-6.909200000000055,12.23490000000038-2.975599999999758,3.407200000000557-6.501900000000205,6.023000000000138-10.579099999999926,7.845200000000659-4.08010000000013,1.82129999999961-8.614199999999983,2.73489999999947-13.602499999999964,2.73489999999947ZM1460.369100000000799,328.339799999999741c6.236299999999574,0,11.32129999999961-1.917999999999665,15.257800000000316-5.757800000000316,3.933599999999387-3.836500000000342,5.90139999999974-9.690499999999702,5.90139999999974-17.560599999999795v-10.651799999999639c0-7.867200000000594-1.967800000000352-13.721700000000055-5.90139999999974-17.561100000000806-3.936500000000706-3.83640000000014-9.021500000000742-5.757299999999304-15.257800000000316-5.757299999999304-6.239300000000185,0-11.324200000000019,1.920899999999165-15.257800000000316,5.757299999999304-3.936599999999999,3.839400000000751-5.90139999999974,9.693900000000212-5.90139999999974,17.561100000000806v10.651799999999639c0,7.870100000000093,1.964799999999741,13.724099999999453,5.90139999999974,17.560599999999795,3.933600000000297,3.83980000000065,9.018500000000131,5.757800000000316,15.257800000000316,5.757800000000316Z"/><path class="uuid-13d1f866-4605-4bde-90f3-a9076f3c5d30" d="M1540.543900000000576,338.559999999999491c-5.181700000000092,0-9.836900000000242-.91359999999986-13.961900000000242-2.73489999999947-4.126999999999498-1.822200000000521-7.606499999999869-4.413100000000668-10.436499999999796-7.772400000000744-2.831099999999424-3.358400000000074-4.990299999999479-7.435599999999795-6.476599999999962-12.235400000000482-1.489300000000185-4.79739999999947-2.231499999999869-10.170899999999165-2.231499999999869-16.122099999999591,0-5.948199999999815.742199999999684-11.32169999999951,2.231499999999869-16.121099999999387,1.486300000000483-4.797300000000178,3.645500000000538-8.875400000000809,6.476599999999962-12.235300000000279,2.829999999999927-3.357899999999972,6.309500000000298-5.948699999999917,10.436499999999796-7.772500000000036,4.125-1.822199999999611,8.78020000000015-2.734800000000178,13.961900000000242-2.734800000000178,7.388699999999517,0,13.314400000000205,1.607899999999972,17.777299999999741,4.82169999999951,4.461900000000242,3.216400000001158,7.795000000000073,7.413100000000668,10.003900000000613,12.59480000000076l-9.644500000000335,4.894500000000335c-1.344699999999648-3.837400000000343-3.550799999999981-6.813000000000102-6.621100000000297-8.924800000000687-3.072299999999814-2.109399999999368-6.909199999999146-3.16649999999936-11.515599999999722-3.16649999999936-3.45510000000013,0-6.476599999999962.553199999999379-9.068400000000111,1.655299999999443-2.590799999999945,1.104000000000269-4.75,2.64009999999962-6.47649999999976,4.606399999999667-1.727600000000166,1.96730000000025-3.02350000000024,4.318400000000111-3.886800000000221,7.052700000000186-.863199999999779,2.73490000000038-1.295900000000074,5.735899999999674-1.295900000000074,8.995700000000397v12.666899999999259c0,6.527900000000955,1.75,11.876000000000204,5.253999999999905,16.050300000000789,3.501900000000205,4.174399999999878,8.659099999999853,6.261300000000119,15.47360000000026,6.261300000000119,9.306599999999889,0,16.025400000000445-4.318400000000111,20.152299999999741-12.95510000000013l8.348700000000463,5.614199999999983c-2.399400000000242,5.375499999999192-5.973700000000463,9.644599999999627-10.723700000000463,12.811099999999897s-10.676699999999983,4.75-17.777299999999741,4.75Z"/><path class="uuid-13d1f866-4605-4bde-90f3-a9076f3c5d30" d="M1591.06630000000041,245.141499999999724c-2.496999999999389,0-4.295799999999872-.597600000000966-5.397399999999834-1.798800000000483-1.104499999999462-1.199200000000019-1.655300000000352-2.756799999999203-1.655300000000352-4.67870000000039v-1.871099999999387c0-1.918500000000677.550800000000891-3.477499999999964,1.655300000000352-4.678199999999379,1.101599999999962-1.198800000000119,2.900400000000445-1.799300000000585,5.397399999999834-1.799300000000585,2.494200000000092,0,4.293999999999869.600500000000466,5.397500000000036,1.799300000000585,1.102499999999964,1.200699999999415,1.656299999999646,2.759699999998702,1.656299999999646,4.678199999999379v1.871099999999387c0,1.921900000001187-.553799999999683,3.479500000000371-1.656299999999646,4.67870000000039-1.103500000000167,1.201199999999517-2.903299999999945,1.798800000000483-5.397500000000036,1.798800000000483ZM1585.308500000001004,262.559499999999389h11.515699999999924v74.272899999999936h-11.515699999999924v-74.272899999999936Z"/><path class="uuid-13d1f866-4605-4bde-90f3-a9076f3c5d30" d="M1649.218700000000354,338.559999999999491c-5.086899999999332,0-9.668999999999869-.91359999999986-13.746099999999387-2.73489999999947-4.08010000000013-1.822200000000521-7.582000000000335-4.438000000000102-10.507800000000316-7.845200000000659-2.92870000000039-3.404799999999341-5.181700000000092-7.484400000000278-6.765599999999722-12.23490000000038-1.583000000000538-4.75-2.374099999999999-10.098599999999351-2.374099999999999-16.049799999999777,0-5.85149999999976.79109999999946-11.177699999999277,2.374099999999999-15.977499999999964,1.58389999999963-4.796899999999368,3.836899999999332-8.899400000000242,6.765599999999722-12.306599999999889,2.925799999999981-3.405300000000352,6.427700000000186-6.020999999999731,10.507800000000316-7.84479999999985,4.077099999999518-1.822199999999611,8.659200000000055-2.734800000000178,13.746099999999387-2.734800000000178,4.989300000000185,0,9.451200000000426.908200000000761,13.386700000000019,2.725600000000668,3.933600000000297,1.817299999998795,7.292000000000371,4.329499999999825,10.076200000000426,7.532199999999648,2.782199999999648,3.203099999999722,4.917000000000371,7.003899999999703,6.405299999999443,11.402799999999843,1.486300000000483,4.399400000000242,2.231400000000576,9.228000000000065,2.231400000000576,14.486300000000483v5.451699999999619h-53.403299999999945v3.45509999999922c0,3.166500000001179.503899999999703,6.117200000000594,1.511700000000019,8.852000000000771,1.007799999999406,2.73489999999947,2.447299999999814,5.110399999999572,4.318399999999201,7.125,1.871100000000297,2.015699999999924,4.173800000000483,3.598700000000463,6.909100000000763,4.751000000000204,2.735399999999572,1.15139999999974,5.83009999999922,1.726599999999962,9.284200000000055,1.726599999999962,4.701199999999517,0,8.802799999999479-1.102600000000166,12.307600000000093-3.310600000000704,3.500999999999294-2.206000000000131,6.211999999999534-5.372999999999593,8.131899999999405-9.5l8.20510000000013,5.939500000000407c-2.399499999999534,5.119099999999889-6.14260000000013,9.246100000000297-11.227600000000166,12.38379999999961-5.086900000000242,3.137700000000223-11.132799999999406,4.707500000000437-18.136700000000019,4.707500000000437ZM1649.218700000000354,270.475499999999556c-3.166999999999462,0-6.04489999999987.548799999999574-8.635699999999815,1.646499999999833-2.591800000000148,1.097700000000259-4.822299999999814,2.647500000000036-6.693400000000111,4.648400000000038-1.871100000000297,2.002000000000407-3.335900000000038,4.363299999999981-4.390599999999722,7.081099999999424-1.056700000000092,2.718700000000354-1.583999999999833,5.698200000000725-1.583999999999833,8.941400000000613v1.000999999999294h41.023400000000038v-1.574699999999211c0-6.580600000000231-1.798800000000483-11.847700000000259-5.397399999999834-15.80619999999999-3.598700000000463-3.957999999999629-8.373100000000704-5.9375-14.322300000000723-5.9375Z"/><path class="uuid-13d1f866-4605-4bde-90f3-a9076f3c5d30" d="M1716.727500000000873,336.832399999999325c-4.031300000000556,0-7.078100000000632-1.124499999999898-9.140600000000632-3.373499999999694-2.064499999999498-2.248999999999796-3.09479999999985-5.195300000000316-3.09479999999985-8.834500000000844v-51.846199999999953h-12.23529999999937v-10.218699999999444h6.909200000000055c2.494099999999889,0,4.197199999999611-.504899999999907,5.11029999999937-1.512699999999313.910200000000259-1.006800000001022,1.367199999999684-2.756800000001022,1.367199999999684-5.252900000001318v-13.819399999999405h10.363300000000891v20.585000000000036h16.265599999999722v10.218699999999444h-16.265599999999722v53.835000000000946h15.114199999999983v10.219199999999546h-14.393500000000131Z"/><path class="uuid-13d1f866-4605-4bde-90f3-a9076f3c5d30" d="M1796.614200000000892,262.559499999999389h11.372099999999591l-33.251000000000204,91.545900000000074c-.863299999999981,2.206999999999425-1.727499999999964,4.052699999999277-2.590799999999945,5.541500000000269-.864299999999275,1.486799999999675-1.920899999999165,2.66359999999986-3.166999999999462,3.526899999999841-1.248100000000704.864199999999983-2.806700000000092,1.487299999999777-4.677800000000389,1.871000000000095-1.871000000000095.382400000000416-4.152299999999741.576199999999517-6.837800000000243.576199999999517h-5.90139999999974v-10.219699999999648h11.659200000000055l5.614199999999983-15.808600000000297-27.781200000000354-77.033199999999852h11.515600000000632l17.848599999999351,50.425799999999981,3.45510000000013,12.06880000000001h.718800000000556l4.031199999999444-12.06880000000001,17.992200000000594-50.425799999999981Z"/><path class="uuid-13d1f866-4605-4bde-90f3-a9076f3c5d30" d="M654.681615625000632,477.750967187499555l-3.6103515625-11.4755859375h-15.98828125l-3.5458984375,11.4755859375h-8.638671875l15.0859375-44.9990234375h10.5732421875l14.9560546875,44.9990234375h-8.83203125ZM643.206029687500632,440.488271874999555h-.322265625l-5.7373046875,18.50244140625h11.8623046875l-5.802734375-18.50244140625Z"/><path class="uuid-13d1f866-4605-4bde-90f3-a9076f3c5d30" d="M698.716771875000632,477.750967187499555l-3.6103515625-11.4755859375h-15.98828125l-3.5458984375,11.4755859375h-8.638671875l15.0859375-44.9990234375h10.5732421875l14.9560546875,44.9990234375h-8.83203125ZM687.241185937500632,440.488271874999555h-.322265625l-5.7373046875,18.50244140625h11.8623046875l-5.802734375-18.50244140625Z"/></g></svg>