<?xml version="1.0" encoding="UTF-8"?><svg id="uuid-77d3bc94-5280-47c4-b2b2-fb9b129fb548" xmlns="http://www.w3.org/2000/svg" width="1020.929207444959275mm" height="251.022057896693667mm" xmlns:xlink="http://www.w3.org/1999/xlink" viewBox="0 0 2893.972600000000057 711.558600000000297"><defs><style>.uuid-b34ae61f-7ae6-4ac6-aab8-4621f9161ce8{fill:none;}.uuid-8cd77d78-d13b-4668-bae1-a37f9313c3df{fill:#a39b4b;}.uuid-d89ddbb2-089e-46fd-a525-cc5d8bb15538{clip-path:url(#uuid-837a86cf-0bae-4a8a-a7f8-84a909c66530);}</style><clipPath id="uuid-837a86cf-0bae-4a8a-a7f8-84a909c66530"><rect class="uuid-b34ae61f-7ae6-4ac6-aab8-4621f9161ce8" width="2893.972600000000057" height="711.558600000000297"/></clipPath></defs><g class="uuid-d89ddbb2-089e-46fd-a525-cc5d8bb15538"><rect class="uuid-b34ae61f-7ae6-4ac6-aab8-4621f9161ce8" x="1556.807341796869878" y="522.992184374999852" width="528.369384765630457" height="66.66015625"/><path class="uuid-8cd77d78-d13b-4668-bae1-a37f9313c3df" d="M1587.826140625000335,536.493160937499852l-4.19970703125,4.8603515625c-2.93994140625-2.400390625-5.81982421875-3.48046875-9.1796875-3.48046875-3.599609375,0-6.0595703125,1.560546875-6.0595703125,4.5,0,2.8798828125,1.56005859375,4.080078125,8.33935546875,6.1796875,7.5,2.400390625,12.2998046875,5.51953125,12.2998046875,13.19921875,0,7.6201171875-6,12.9599609375-16.07958984375,12.9599609375-6.8994140625,0-11.939453125-2.4599609375-15.359375-5.8193359375l4.56005859375-4.98046875c3,2.580078125,6.2998046875,4.1396484375,10.5595703125,4.1396484375s7.1396484375-2.0390625,7.1396484375-5.69921875c0-3.2998046875-1.6201171875-4.740234375-7.919921875-6.66015625-8.99951171875-2.8193359375-12.59912109375-6.4189453125-12.59912109375-12.71875,0-7.080078125,6.11962890625-11.7001953125,14.51904296875-11.7001953125,6.18017578125,0,10.3798828125,1.8603515625,13.9794921875,5.2197265625Z"/><path class="uuid-8cd77d78-d13b-4668-bae1-a37f9313c3df" d="M1621.605925781250335,560.432614062499852h-19.859375c.60009765625,6.1201171875,3.47998046875,7.919921875,7.5595703125,7.919921875,2.7001953125,0,4.97998046875-.8408203125,7.73974609375-2.7607421875l3.5400390625,4.80078125c-3.1201171875,2.51953125-7.080078125,4.3193359375-12.0595703125,4.3193359375-10.19970703125,0-15.53955078125-6.7197265625-15.53955078125-16.6796875,0-9.599609375,5.15966796875-17.0390625,14.45947265625-17.0390625,8.99951171875,0,14.33935546875,6,14.33935546875,16.1396484375,0,1.080078125-.11962890625,2.3994140625-.1796875,3.2998046875ZM1613.326140625000335,554.732418749999852c0-4.7998046875-1.6201171875-7.9189453125-5.69970703125-7.9189453125-3.35986328125,0-5.39990234375,2.2197265625-5.8798828125,8.279296875h11.57958984375v-.3603515625Z"/><path class="uuid-8cd77d78-d13b-4668-bae1-a37f9313c3df" d="M1650.165496093750335,544.833004687499852l-3.23974609375,4.8603515625c-2.580078125-1.6201171875-5.15966796875-2.5205078125-7.919921875-2.5205078125-2.81982421875,0-4.37939453125,1.1396484375-4.37939453125,2.8798828125,0,1.8603515625,1.07958984375,2.7001953125,6.65966796875,4.3203125,6.359375,1.7392578125,9.95947265625,4.3798828125,9.95947265625,10.01953125,0,6.599609375-6.1796875,10.3193359375-13.7392578125,10.3193359375-5.52001953125,0-9.9599609375-1.8603515625-12.95947265625-4.6201171875l4.19970703125-4.6796875c2.39990234375,1.8603515625,5.33984375,3.1201171875,8.51953125,3.1201171875,3.18017578125,0,5.2197265625-1.3203125,5.2197265625-3.4794921875,0-2.400390625-1.1396484375-3.1806640625-7.01953125-4.7998046875-6.419921875-1.80078125-9.41943359375-4.98046875-9.41943359375-9.7802734375,0-5.3994140625,4.91943359375-9.4794921875,12.59912109375-9.4794921875,4.6201171875,0,8.52001953125,1.4404296875,11.51953125,3.83984375Z"/><path class="uuid-8cd77d78-d13b-4668-bae1-a37f9313c3df" d="M1678.904753906250335,544.833004687499852l-3.23974609375,4.8603515625c-2.580078125-1.6201171875-5.15966796875-2.5205078125-7.919921875-2.5205078125-2.81982421875,0-4.37939453125,1.1396484375-4.37939453125,2.8798828125,0,1.8603515625,1.07958984375,2.7001953125,6.65966796875,4.3203125,6.359375,1.7392578125,9.95947265625,4.3798828125,9.95947265625,10.01953125,0,6.599609375-6.1796875,10.3193359375-13.7392578125,10.3193359375-5.52001953125,0-9.9599609375-1.8603515625-12.95947265625-4.6201171875l4.19970703125-4.6796875c2.39990234375,1.8603515625,5.33984375,3.1201171875,8.51953125,3.1201171875,3.18017578125,0,5.2197265625-1.3203125,5.2197265625-3.4794921875,0-2.400390625-1.1396484375-3.1806640625-7.01953125-4.7998046875-6.419921875-1.80078125-9.41943359375-4.98046875-9.41943359375-9.7802734375,0-5.3994140625,4.91943359375-9.4794921875,12.59912109375-9.4794921875,4.6201171875,0,8.52001953125,1.4404296875,11.51953125,3.83984375Z"/><path class="uuid-8cd77d78-d13b-4668-bae1-a37f9313c3df" d="M1694.984832031250335,530.553707812499852c0,2.8203125-2.16015625,4.9794921875-5.22021484375,4.9794921875-3.0595703125,0-5.15966796875-2.1591796875-5.15966796875-4.9794921875s2.10009765625-4.9794921875,5.15966796875-4.9794921875c3.06005859375,0,5.22021484375,2.1591796875,5.22021484375,4.9794921875ZM1694.084929687500335,573.751949999999852h-8.52001953125v-31.798828125h8.52001953125v31.798828125Z"/><path class="uuid-8cd77d78-d13b-4668-bae1-a37f9313c3df" d="M1731.043914062500335,557.852535937499852c0,10.080078125-5.69970703125,16.859375-15.2392578125,16.859375-9.47998046875,0-15.23974609375-6.2998046875-15.23974609375-16.859375,0-10.1396484375,5.69970703125-16.859375,15.29931640625-16.859375,9.47998046875,0,15.1796875,6.2998046875,15.1796875,16.859375ZM1709.444792968750335,557.852535937499852c0,7.3193359375,2.15966796875,10.5,6.35986328125,10.5,4.19970703125,0,6.359375-3.240234375,6.359375-10.5,0-7.3193359375-2.15966796875-10.4990234375-6.2998046875-10.4990234375-4.259765625,0-6.41943359375,3.2392578125-6.41943359375,10.4990234375Z"/><path class="uuid-8cd77d78-d13b-4668-bae1-a37f9313c3df" d="M1764.164031250000335,550.592770312499852v23.1591796875h-8.51953125v-21.71875c0-3.66015625-1.3203125-4.6796875-3.47998046875-4.6796875-2.4599609375,0-4.3798828125,1.619140625-6.11962890625,4.439453125v21.958984375h-8.52001953125v-31.798828125h7.3798828125l.65966796875,4.01953125c2.580078125-3.1796875,5.7001953125-4.9794921875,9.7197265625-4.9794921875,5.580078125,0,8.8798828125,3.599609375,8.8798828125,9.599609375Z"/><path class="uuid-8cd77d78-d13b-4668-bae1-a37f9313c3df" d="M1812.222625000000335,543.153317187499852c0,6.599609375-4.07958984375,12.2392578125-17.279296875,23.9990234375h18.2392578125l-.89990234375,6.599609375h-27.05859375v-6.1796875c14.33935546875-13.7392578125,18.2392578125-18.298828125,18.2392578125-23.69921875,0-3.66015625-2.22021484375-6-6-6-3.2998046875,0-5.45947265625,1.3203125-7.91943359375,4.259765625l-5.27978515625-4.1396484375c3.2998046875-4.259765625,7.6796875-6.7197265625,14.03955078125-6.7197265625,9.17919921875,0,13.9189453125,5.400390625,13.9189453125,11.8798828125Z"/><path class="uuid-8cd77d78-d13b-4668-bae1-a37f9313c3df" d="M1847.682585937500335,552.932614062499852c0,14.1591796875-5.10009765625,21.779296875-14.57958984375,21.779296875s-14.57958984375-7.6201171875-14.57958984375-21.779296875,5.10009765625-21.6591796875,14.57958984375-21.6591796875,14.57958984375,7.5,14.57958984375,21.6591796875ZM1827.283171875000335,552.932614062499852c0,11.6396484375,1.85986328125,15.359375,5.81982421875,15.359375,3.89990234375,0,5.81982421875-3.5400390625,5.81982421875-15.359375s-1.919921875-15.298828125-5.81982421875-15.298828125c-3.9599609375,0-5.81982421875,3.7197265625-5.81982421875,15.298828125Z"/><path class="uuid-8cd77d78-d13b-4668-bae1-a37f9313c3df" d="M1879.421843750000335,543.153317187499852c0,6.599609375-4.07958984375,12.2392578125-17.279296875,23.9990234375h18.2392578125l-.89990234375,6.599609375h-27.05859375v-6.1796875c14.33935546875-13.7392578125,18.2392578125-18.298828125,18.2392578125-23.69921875,0-3.66015625-2.22021484375-6-6-6-3.2998046875,0-5.45947265625,1.3203125-7.91943359375,4.259765625l-5.27978515625-4.1396484375c3.2998046875-4.259765625,7.6796875-6.7197265625,14.03955078125-6.7197265625,9.17919921875,0,13.9189453125,5.400390625,13.9189453125,11.8798828125Z"/><path class="uuid-8cd77d78-d13b-4668-bae1-a37f9313c3df" d="M1914.881804687500335,552.932614062499852c0,14.1591796875-5.10009765625,21.779296875-14.57958984375,21.779296875s-14.57958984375-7.6201171875-14.57958984375-21.779296875,5.10009765625-21.6591796875,14.57958984375-21.6591796875,14.57958984375,7.5,14.57958984375,21.6591796875ZM1894.482390625000335,552.932614062499852c0,11.6396484375,1.85986328125,15.359375,5.81982421875,15.359375,3.89990234375,0,5.81982421875-3.5400390625,5.81982421875-15.359375s-1.919921875-15.298828125-5.81982421875-15.298828125c-3.9599609375,0-5.81982421875,3.7197265625-5.81982421875,15.298828125Z"/><path class="uuid-8cd77d78-d13b-4668-bae1-a37f9313c3df" d="M1918.542449218750335,551.613278124999852h28.31884765625v6.7197265625h-28.31884765625v-6.7197265625Z"/><path class="uuid-8cd77d78-d13b-4668-bae1-a37f9313c3df" d="M1977.820281250000335,543.153317187499852c0,6.599609375-4.07958984375,12.2392578125-17.279296875,23.9990234375h18.2392578125l-.89990234375,6.599609375h-27.05859375v-6.1796875c14.33935546875-13.7392578125,18.2392578125-18.298828125,18.2392578125-23.69921875,0-3.66015625-2.22021484375-6-6-6-3.2998046875,0-5.45947265625,1.3203125-7.91943359375,4.259765625l-5.27978515625-4.1396484375c3.2998046875-4.259765625,7.6796875-6.7197265625,14.03955078125-6.7197265625,9.17919921875,0,13.9189453125,5.400390625,13.9189453125,11.8798828125Z"/><path class="uuid-8cd77d78-d13b-4668-bae1-a37f9313c3df" d="M2013.280242187500335,552.932614062499852c0,14.1591796875-5.10009765625,21.779296875-14.57958984375,21.779296875s-14.57958984375-7.6201171875-14.57958984375-21.779296875,5.10009765625-21.6591796875,14.57958984375-21.6591796875,14.57958984375,7.5,14.57958984375,21.6591796875ZM1992.880828125000335,552.932614062499852c0,11.6396484375,1.85986328125,15.359375,5.81982421875,15.359375,3.89990234375,0,5.81982421875-3.5400390625,5.81982421875-15.359375s-1.919921875-15.298828125-5.81982421875-15.298828125c-3.9599609375,0-5.81982421875,3.7197265625-5.81982421875,15.298828125Z"/><path class="uuid-8cd77d78-d13b-4668-bae1-a37f9313c3df" d="M2045.019500000000335,543.153317187499852c0,6.599609375-4.07958984375,12.2392578125-17.279296875,23.9990234375h18.2392578125l-.89990234375,6.599609375h-27.05859375v-6.1796875c14.33935546875-13.7392578125,18.2392578125-18.298828125,18.2392578125-23.69921875,0-3.66015625-2.22021484375-6-6-6-3.2998046875,0-5.45947265625,1.3203125-7.91943359375,4.259765625l-5.27978515625-4.1396484375c3.2998046875-4.259765625,7.6796875-6.7197265625,14.03955078125-6.7197265625,9.17919921875,0,13.9189453125,5.400390625,13.9189453125,11.8798828125Z"/><path class="uuid-8cd77d78-d13b-4668-bae1-a37f9313c3df" d="M2080.719207031250335,567.211910937499852v6.5400390625h-26.09912109375v-6.5400390625h9.7197265625v-26.5185546875l-8.87939453125,5.33984375-3.66015625-5.7001953125,13.37939453125-8.099609375h7.5v34.978515625h8.03955078125Z"/><rect class="uuid-b34ae61f-7ae6-4ac6-aab8-4621f9161ce8" x="275.312957031250335" y="531.730465624999852" width="660" height="66.1806640625"/><path class="uuid-8cd77d78-d13b-4668-bae1-a37f9313c3df" d="M332.070769531250335,577.571285937499852v6.4794921875h-53.39794921875v-6.4794921875h53.39794921875ZM327.030730468750335,542.352535937499852v6.1806640625h-43.31787109375v-6.1806640625h43.31787109375Z"/><path class="uuid-8cd77d78-d13b-4668-bae1-a37f9313c3df" d="M362.431609375000335,543.073239062499852v-2.8203125h-19.2587890625v-4.1396484375h44.158203125v4.1396484375h-19.3193359375v2.8203125h23.27880859375v10.798828125h-5.33935546875v-7.0791015625h-17.939453125v9.4794921875h-1.68017578125l3.83984375,1.8603515625-1.259765625.958984375c5.6396484375,2.8203125,15.59912109375,5.640625,24.6591796875,6.83984375-1.14013671875,1.080078125-2.64013671875,3.240234375-3.35986328125,4.560546875-4.14013671875-.720703125-8.39990234375-1.8603515625-12.419921875-3.240234375v2.16015625h-24.958984375v-2.2802734375c-3.7197265625,1.4404296875-7.49951171875,2.6396484375-10.9794921875,3.66015625-1.07958984375-1.1396484375-3.11962890625-3.0595703125-4.439453125-3.9599609375,9.83935546875-2.16015625,20.5791015625-5.939453125,27.05859375-10.5595703125h-2.0400390625v-9.4794921875h-17.87890625v7.0791015625h-5.10009765625v-10.798828125h22.97900390625ZM348.152312500000335,547.272457812499852c3.7197265625.6005859375,8.8798828125,1.8603515625,11.6396484375,2.8203125l-1.3798828125,3,1.5-.3603515625.419921875,3.3603515625c-5.099609375,1.439453125-10.1396484375,2.8193359375-14.45947265625,4.01953125l-1.56005859375-4.080078125c3.5400390625-.599609375,8.33984375-1.7392578125,13.439453125-2.8193359375-2.81982421875-1.0205078125-7.5595703125-2.2802734375-11.1591796875-3l1.5595703125-2.9404296875ZM379.231414062500335,571.811520312499852l.83984375-.2998046875,3.599609375,2.2802734375c-2.81982421875,3.7197265625-7.439453125,7.3193359375-11.75927734375,10.01953125l4.91943359375,2.1591796875-2.45947265625,4.0205078125c-4.68017578125-2.400390625-14.099609375-6.3603515625-20.939453125-8.939453125l2.39990234375-3.419921875c3.06005859375,1.080078125,6.83984375,2.51953125,10.439453125,3.8994140625,2.8203125-1.3798828125,6.06005859375-3.419921875,8.580078125-5.4599609375h-29.87890625v-4.259765625h34.2587890625ZM374.311492187500335,565.931637499999852c-3.60009765625-1.439453125-6.77978515625-3-9.23974609375-4.439453125-2.81982421875,1.6201171875-5.93994140625,3.1201171875-9.1796875,4.439453125h18.41943359375ZM371.431609375000335,552.373043749999852l.599609375.119140625-1.49951171875-2.279296875c3.41943359375-.5400390625,8.51953125-2.16015625,11.45947265625-3.1201171875l2.27978515625,3.0595703125c-3.11962890625,1.2001953125-7.3798828125,2.1005859375-10.73974609375,2.7001953125,4.43994140625.9599609375,9.65966796875,2.4599609375,12.65966796875,3.599609375l-1.3798828125,3.5400390625c-3.419921875-1.439453125-9.89990234375-3.359375-14.8193359375-4.5595703125l1.43994140625-3.0595703125Z"/><path class="uuid-8cd77d78-d13b-4668-bae1-a37f9313c3df" d="M452.070769531250335,577.571285937499852v6.4794921875h-53.39794921875v-6.4794921875h53.39794921875ZM447.030730468750335,542.352535937499852v6.1806640625h-43.31787109375v-6.1806640625h43.31787109375Z"/><path class="uuid-8cd77d78-d13b-4668-bae1-a37f9313c3df" d="M482.431609375000335,543.073239062499852v-2.8203125h-19.2587890625v-4.1396484375h44.158203125v4.1396484375h-19.3193359375v2.8203125h23.27880859375v10.798828125h-5.33935546875v-7.0791015625h-17.939453125v9.4794921875h-1.68017578125l3.83984375,1.8603515625-1.259765625.958984375c5.6396484375,2.8203125,15.59912109375,5.640625,24.6591796875,6.83984375-1.14013671875,1.080078125-2.64013671875,3.240234375-3.35986328125,4.560546875-4.14013671875-.720703125-8.39990234375-1.8603515625-12.419921875-3.240234375v2.16015625h-24.958984375v-2.2802734375c-3.7197265625,1.4404296875-7.49951171875,2.6396484375-10.9794921875,3.66015625-1.07958984375-1.1396484375-3.11962890625-3.0595703125-4.439453125-3.9599609375,9.83935546875-2.16015625,20.5791015625-5.939453125,27.05859375-10.5595703125h-2.0400390625v-9.4794921875h-17.87890625v7.0791015625h-5.10009765625v-10.798828125h22.97900390625ZM468.152312500000335,547.272457812499852c3.7197265625.6005859375,8.8798828125,1.8603515625,11.6396484375,2.8203125l-1.3798828125,3,1.5-.3603515625.419921875,3.3603515625c-5.099609375,1.439453125-10.1396484375,2.8193359375-14.45947265625,4.01953125l-1.56005859375-4.080078125c3.5400390625-.599609375,8.33984375-1.7392578125,13.439453125-2.8193359375-2.81982421875-1.0205078125-7.5595703125-2.2802734375-11.1591796875-3l1.5595703125-2.9404296875ZM499.231414062500335,571.811520312499852l.83984375-.2998046875,3.599609375,2.2802734375c-2.81982421875,3.7197265625-7.439453125,7.3193359375-11.75927734375,10.01953125l4.91943359375,2.1591796875-2.45947265625,4.0205078125c-4.68017578125-2.400390625-14.099609375-6.3603515625-20.939453125-8.939453125l2.39990234375-3.419921875c3.06005859375,1.080078125,6.83984375,2.51953125,10.439453125,3.8994140625,2.8203125-1.3798828125,6.06005859375-3.419921875,8.580078125-5.4599609375h-29.87890625v-4.259765625h34.2587890625ZM494.311492187500335,565.931637499999852c-3.60009765625-1.439453125-6.77978515625-3-9.23974609375-4.439453125-2.81982421875,1.6201171875-5.93994140625,3.1201171875-9.1796875,4.439453125h18.41943359375ZM491.431609375000335,552.373043749999852l.599609375.119140625-1.49951171875-2.279296875c3.41943359375-.5400390625,8.51953125-2.16015625,11.45947265625-3.1201171875l2.27978515625,3.0595703125c-3.11962890625,1.2001953125-7.3798828125,2.1005859375-10.73974609375,2.7001953125,4.43994140625.9599609375,9.65966796875,2.4599609375,12.65966796875,3.599609375l-1.3798828125,3.5400390625c-3.419921875-1.439453125-9.89990234375-3.359375-14.8193359375-4.5595703125l1.43994140625-3.0595703125Z"/><path class="uuid-8cd77d78-d13b-4668-bae1-a37f9313c3df" d="M548.131804687500335,559.932614062499852v7.01953125h19.01904296875v5.2197265625h-19.01904296875v9.958984375h24.298828125v5.2802734375h-54.0576171875v-5.2802734375h23.81884765625v-9.958984375h-18.41943359375v-5.2197265625h18.41943359375v-7.01953125h5.93994140625ZM522.332488281250335,554.112301562499852c1.26025390625-.240234375,2.580078125-1.2001953125,4.2001953125-2.759765625,1.31982421875-1.1396484375,4.7998046875-4.7998046875,8.03955078125-9.0595703125h-14.75927734375v-5.279296875h50.6376953125v5.279296875h-28.43896484375c-3.1796875,4.1396484375-6.599609375,7.9794921875-9.95947265625,11.1591796875l25.19921875-.8994140625c-2.22021484375-1.98046875-4.5-3.9599609375-6.65966796875-5.6396484375l4.49951171875-3.060546875c5.39990234375,4.080078125,12.23974609375,9.9599609375,15.53955078125,14.099609375l-4.97998046875,3.48046875c-.89990234375-1.2001953125-2.10009765625-2.640625-3.53955078125-4.140625-31.798828125,1.3798828125-35.39892578125,1.5-37.9189453125,2.33984375-.2998046875-1.19921875-1.19970703125-4.01953125-1.85986328125-5.51953125Z"/><path class="uuid-8cd77d78-d13b-4668-bae1-a37f9313c3df" d="M632.070769531250335,577.571285937499852v6.4794921875h-53.39794921875v-6.4794921875h53.39794921875ZM627.030730468750335,542.352535937499852v6.1806640625h-43.31787109375v-6.1806640625h43.31787109375Z"/><path class="uuid-8cd77d78-d13b-4668-bae1-a37f9313c3df" d="M662.431609375000335,543.073239062499852v-2.8203125h-19.2587890625v-4.1396484375h44.158203125v4.1396484375h-19.3193359375v2.8203125h23.27880859375v10.798828125h-5.33935546875v-7.0791015625h-17.939453125v9.4794921875h-1.68017578125l3.83984375,1.8603515625-1.259765625.958984375c5.6396484375,2.8203125,15.59912109375,5.640625,24.6591796875,6.83984375-1.14013671875,1.080078125-2.64013671875,3.240234375-3.35986328125,4.560546875-4.14013671875-.720703125-8.39990234375-1.8603515625-12.419921875-3.240234375v2.16015625h-24.958984375v-2.2802734375c-3.7197265625,1.4404296875-7.49951171875,2.6396484375-10.9794921875,3.66015625-1.07958984375-1.1396484375-3.11962890625-3.0595703125-4.439453125-3.9599609375,9.83935546875-2.16015625,20.5791015625-5.939453125,27.05859375-10.5595703125h-2.0400390625v-9.4794921875h-17.87890625v7.0791015625h-5.10009765625v-10.798828125h22.97900390625ZM648.152312500000335,547.272457812499852c3.7197265625.6005859375,8.8798828125,1.8603515625,11.6396484375,2.8203125l-1.3798828125,3,1.5-.3603515625.419921875,3.3603515625c-5.099609375,1.439453125-10.1396484375,2.8193359375-14.45947265625,4.01953125l-1.56005859375-4.080078125c3.5400390625-.599609375,8.33984375-1.7392578125,13.439453125-2.8193359375-2.81982421875-1.0205078125-7.5595703125-2.2802734375-11.1591796875-3l1.5595703125-2.9404296875ZM679.231414062500335,571.811520312499852l.83984375-.2998046875,3.599609375,2.2802734375c-2.81982421875,3.7197265625-7.439453125,7.3193359375-11.75927734375,10.01953125l4.91943359375,2.1591796875-2.45947265625,4.0205078125c-4.68017578125-2.400390625-14.099609375-6.3603515625-20.939453125-8.939453125l2.39990234375-3.419921875c3.06005859375,1.080078125,6.83984375,2.51953125,10.439453125,3.8994140625,2.8203125-1.3798828125,6.06005859375-3.419921875,8.580078125-5.4599609375h-29.87890625v-4.259765625h34.2587890625ZM674.311492187500335,565.931637499999852c-3.60009765625-1.439453125-6.77978515625-3-9.23974609375-4.439453125-2.81982421875,1.6201171875-5.93994140625,3.1201171875-9.1796875,4.439453125h18.41943359375ZM671.431609375000335,552.373043749999852l.599609375.119140625-1.49951171875-2.279296875c3.41943359375-.5400390625,8.51953125-2.16015625,11.45947265625-3.1201171875l2.27978515625,3.0595703125c-3.11962890625,1.2001953125-7.3798828125,2.1005859375-10.73974609375,2.7001953125,4.43994140625.9599609375,9.65966796875,2.4599609375,12.65966796875,3.599609375l-1.3798828125,3.5400390625c-3.419921875-1.439453125-9.89990234375-3.359375-14.8193359375-4.5595703125l1.43994140625-3.0595703125Z"/><path class="uuid-8cd77d78-d13b-4668-bae1-a37f9313c3df" d="M752.070769531250335,577.571285937499852v6.4794921875h-53.39794921875v-6.4794921875h53.39794921875ZM747.030730468750335,542.352535937499852v6.1806640625h-43.31787109375v-6.1806640625h43.31787109375Z"/><path class="uuid-8cd77d78-d13b-4668-bae1-a37f9313c3df" d="M813.030730468750335,558.012692187499852v6.2392578125h-55.19775390625v-6.2392578125h55.19775390625Z"/><path class="uuid-8cd77d78-d13b-4668-bae1-a37f9313c3df" d="M827.732390625000335,570.671871874999852v-15.958984375h17.8193359375v-8.400390625h-13.859375c-2.7001953125,4.5-5.69970703125,8.51953125-8.81982421875,11.580078125-1.07958984375-1.0205078125-3.47998046875-2.8798828125-4.85986328125-3.66015625,5.580078125-4.859375,10.3798828125-12.599609375,13.19970703125-20.5791015625l5.759765625,1.5c-.72021484375,1.919921875-1.5,3.83984375-2.39990234375,5.7001953125h35.0986328125v5.458984375h-18.29931640625v8.400390625h16.91943359375v5.279296875h-16.91943359375v10.6796875h21.35888671875v5.51953125h-21.35888671875v13.3798828125h-5.81982421875v-13.3798828125h-27.5986328125v-5.51953125h9.779296875ZM845.551726562500335,570.671871874999852v-10.6796875h-12.1796875v10.6796875h12.1796875Z"/><path class="uuid-8cd77d78-d13b-4668-bae1-a37f9313c3df" d="M909.151335937500335,533.533199999999852c.9599609375,1.7998046875,1.97998046875,4.080078125,2.7001953125,6h20.51904296875v5.279296875h-44.21826171875v10.8603515625c0,9.8388671875-.77978515625,24.23828125-5.81982421875,33.837890625-1.1396484375-.83984375-3.7197265625-2.0400390625-5.15966796875-2.51953125,4.919921875-9.1201171875,5.33984375-22.19921875,5.33984375-31.2587890625v-16.19921875h22.9189453125c-.599609375-1.560546875-1.259765625-3.2998046875-1.97998046875-4.6796875l5.69970703125-1.3203125ZM923.550750000000335,568.452145312499852l1.02001953125-.240234375,3.5400390625,1.8603515625c-2.69970703125,4.9794921875-6.7197265625,8.7587890625-11.69970703125,11.5791015625,4.97998046875,1.5,10.73974609375,2.4599609375,16.859375,3-1.19970703125,1.2001953125-2.57958984375,3.4794921875-3.2998046875,4.919921875-7.49951171875-.83984375-14.279296875-2.4599609375-20.09912109375-4.8603515625-6.11962890625,2.2802734375-13.07958984375,3.66015625-20.279296875,4.5-.419921875-1.3798828125-1.43994140625-3.5400390625-2.33984375-4.7998046875,5.759765625-.4794921875,11.45947265625-1.3798828125,16.5595703125-2.8193359375-3.419921875-2.1005859375-6.35986328125-4.6806640625-8.69970703125-7.6796875l2.27978515625-.900390625h-7.259765625v-4.5595703125h33.41845703125ZM903.872039062500335,546.312496874999852v4.6796875h13.01904296875v-4.6796875h5.580078125v4.6796875h9.23974609375v4.560546875h-9.23974609375v9.7197265625h-23.9990234375v-9.7197265625h-8.99951171875v-4.560546875h8.99951171875v-4.6796875h5.39990234375ZM900.932097656250335,573.011715624999852c2.27978515625,2.51953125,5.45947265625,4.6201171875,9.17919921875,6.2998046875,3.83984375-1.6201171875,7.080078125-3.7197265625,9.5400390625-6.2998046875h-18.71923828125ZM903.872039062500335,555.552731249999852v5.33984375h13.01904296875v-5.33984375h-13.01904296875Z"/><path class="uuid-8cd77d78-d13b-4668-bae1-a37f9313c3df" d="M1093.704999999999927,271.57129999999961c-9.104400000000169,21.529300000000148-14.517499999999927,44.146500000000742-16.167899999999463,67.424800000000687,3.587899999999536-2.91990000000078,8.159200000000055-4.677700000000186,13.135699999999815-4.677700000000186,5.496100000000297,0,10.488299999999981,2.152299999999741,14.216800000000148,5.635700000000725,7.337900000000445-95.590800000001764,87.223599999999351-170.869099999999889,184.695299999999406-170.869099999999889,7.55370000000039,0,13.676800000001094-6.121100000000297,13.676800000001094-13.674800000000687,0-7.552800000001298-6.123100000000704-13.67489999999998-13.676800000001094-13.67489999999998-28.686499999999796,0-56.532199999999648,5.625-82.760699999998906,16.717800000000352-25.318400000000111,10.709999999999127-48.05370000000039,26.033199999998033-67.565400000000409,45.548899999997957-19.51760000000013,19.517500000001746-34.84479999999985,42.250900000000911-45.553800000000592,67.569300000001022Z"/><path class="uuid-8cd77d78-d13b-4668-bae1-a37f9313c3df" d="M1274.44630000000052,538.964799999999741c-94.95220000000063-7.684499999999389-169.668000000000575-86.963799999999537-170.096700000000055-183.793900000000576,0-7.551799999999275-6.122099999999591-13.676799999999275-13.676800000000185-13.676799999999275-7.552700000000186,0-13.674799999999777,6.125-13.674799999999777,13.676799999999275.109400000000278,28.392600000001039,5.72269999999935,55.952100000000428,16.706999999999425,81.926800000001094,10.709000000000742,25.315399999999499,26.036200000000463,48.050699999999779,45.553800000000592,67.564399999999296,19.511700000000019,19.518599999999424,42.247000000000298,34.842800000000352,67.565400000000409,45.55370000000039,21.254899999999907,8.988300000000891,43.57129999999961,14.384799999999814,66.538099999999758,16.109400000001187-2.888700000000426-3.578100000002451-4.628000000000611-8.121100000000297-4.628000000000611-13.067400000001726,0-5.534200000000055,2.181700000000092-10.557599999998274,5.712000000000444-14.292999999999665Z"/><path class="uuid-8cd77d78-d13b-4668-bae1-a37f9313c3df" d="M1437.783199999999852,487.407199999999648c-2.670899999999165-2.670900000000984-6.167999999999665-4.005799999998999-9.667999999999665-4.005799999998999s-7,1.334899999998015-9.671899999999368,4.005799999998999c-33.341800000000148,32.290100000000166-78.774400000000242,52.175800000000891-128.858400000000984,52.175800000000891-7.551699999999983,0-13.673799999999574,6.122100000000501-13.673799999999574,13.674799999998868,0,7.552700000000186,6.122099999999591,13.674800000000687,13.673799999999574,13.674800000000687,28.692399999999907,0,56.536200000000463-5.623999999999796,82.765699999999924-16.716800000000148,24.407200000000557-10.322200000000521,46.398400000000038-24.949199999999109,65.432600000000093-43.468700000001263,5.343700000000354-5.33889999999883,5.343700000000354-13.999099999999089,0-19.339899999999034Z"/><path class="uuid-8cd77d78-d13b-4668-bae1-a37f9313c3df" d="M1289.584899999999834,141.731399999998757c-28.690399999999499,0-56.53019999999924,5.629899999999907-82.760699999998906,16.71980000000076-25.319300000001022,10.709899999999834-48.049800000000687,26.03019999999924-67.569300000001022,45.550799999999072-19.510800000000017,19.519500000002154-34.839899999999034,42.25-45.550799999999072,67.569300000001022-9.099600000000464,21.530300000000352-14.519600000000537,44.151400000000649-16.170000000000073,67.419899999998961,3.590899999999237-2.919899999998961,8.16019999999935-4.669899999998961,13.140699999999924-4.669899999998961,5.490200000000186,0,10.490200000000186,2.151400000000649,14.209899999999834,5.629899999999907,7.339899999999943-95.589900000000853,87.229499999999462-170.869199999999182,184.700199999999313-170.869199999999182,7.549800000000687,0,13.679700000000594-6.120100000000093,13.679700000000594-13.670900000000984,0-7.549800000000687-6.129899999999907-13.679700000000594-13.679700000000594-13.679700000000594ZM1274.444300000000112,538.961900000000242c-94.950200000000223-7.680700000000797-169.66989999999987-86.959900000001653-170.089799999999741-183.790000000000873,0-7.550799999999072-6.129899999999907-13.680700000000797-13.679699999999684-13.680700000000797-7.549800000000687,0-13.680700000000797,6.129900000001726-13.680700000000797,13.680700000000797.110400000000482,28.389600000000428,5.730500000000575,55.949200000000928,16.710000000000946,81.929700000000594,10.710900000000038,25.309499999999389,26.039999999999054,48.049800000000687,45.550799999999072,67.559499999999389,19.519500000000335,19.520500000000538,42.25,34.840899999999237,67.569300000001022,45.550800000000891,21.25,8.989299999999275,43.570299999999406,14.389699999999721,66.539999999999054,16.109399999999368-2.889599999999518-3.569300000001022-4.629899999999907-8.120100000000093-4.629899999999907-13.059599999998682,0-5.539000000000669,2.180700000000797-10.560500000001412,5.710000000000036-14.299800000000687ZM1437.784100000000763,487.411099999999351c-2.66990000000078-2.679700000000594-6.16990000000078-4.009699999998702-9.66990000000078-4.009699999998702s-7,1.329999999998108-9.66989999999987,4.009699999998702c-33.339799999999741,32.290100000000166-78.779299999999239,52.170900000000984-128.859400000000278,52.170900000000984-7.550799999999072,0-13.669899999998961,6.119199999999182-13.669899999998961,13.679700000000594,0,7.549799999998868,6.119099999999889,13.669899999998961,13.669899999998961,13.669899999998961,28.689500000000407,0,56.540100000000166-5.620100000000093,82.769600000000537-16.719699999999648,24.400399999999536-10.320299999999406,46.389599999999518-24.940399999999499,65.429600000000391-43.459900000001653,5.340899999999237-5.340899999999237,5.340899999999237-14,0-19.340899999999237Z"/><path class="uuid-8cd77d78-d13b-4668-bae1-a37f9313c3df" d="M1402.165000000000873,241.751999999998588c-30.060500000000502-30.070399999998699-70.050800000000891-46.630899999998292-112.580100000001039-46.630899999998292-42.53019999999924,0-82.510699999998906,16.560499999999593-112.579999999999927,46.630899999998292-30.070399999999609,30.069300000001022-46.640699999999924,70.059500000001208-46.640699999999924,112.580000000001746,0,42.529299999998329,16.570300000000316,82.509799999999814,46.640699999999924,112.589899999999034,30.069300000001022,30.069299999999203,70.049800000000687,46.629899999999907,112.579999999999927,46.629899999999907,42.529300000000148,0,82.519600000000537-16.560600000000704,112.580100000001039-46.629899999999907,30.079099999999016-30.08009999999922,46.629899999999907-70.060600000000704,46.629899999999907-112.589899999999034,0-42.520500000000538-16.550800000000891-82.510700000000725-46.629899999999907-112.580000000001746ZM1199.714799999999741,310.461900000000242h-12.950199999999313v87.75h12.950199999999313v7.609399999999368h-22.339799999999741v-102.979499999999462h22.339799999999741v7.620100000000093ZM1217.344700000000557,405.82129999999961v-72.729499999999462c0-6.259799999999814-.110400000000482-11.930700000000797-.33010000000013-17.020500000000538-.209899999999834-5.089900000000853-.530300000000352-9.5-.959899999999834-13.229499999999462h13.189399999999296v72.41019999999844c0,2.059500000001208.030300000000352,4.479400000000169.100600000000668,7.269500000002154.059599999999591,2.789999999999054.149399999999332,5.620100000000093.259799999999814,8.5.099600000000464,2.870100000000093.230399999999463,5.620100000000093.379799999999705,8.240200000000186.150400000000445,2.609399999999368.33010000000013,4.799799999998868.549800000000687,6.559599999998682h-13.189400000000205ZM1286.854500000000371,348.611299999998664h-12.099600000000464v48.780300000002171h12.099600000000464v8.429699999998775h-36.040100000000166v-8.429699999998775h11.900399999999536v-48.780300000002171h-11.900399999999536v-8.439399999999296h36.040100000000166v8.439399999999296ZM1363.125,398.741199999998571c0,7.25-.640699999999924,13.270500000002357-1.900399999999536,18.060600000000704-1.270499999999629,4.780200000001059-3.040100000000166,8.599600000001374-5.309599999999591,11.450199999999313-2.270500000000538,2.859300000000076-5.010700000000725,4.879800000002433-8.210900000000038,6.049800000000687-3.189500000000407,1.179599999999482-6.739300000001094,1.769500000000335-10.649400000000242,1.769500000000335-1.929700000000594,0-4-.309599999998682-6.210000000000036-.929699999998775s-4.219700000000557-1.490200000000186-6.020499999999629-2.610400000001391l4.190399999999499-9.649399999998423c.979499999999462.729499999997643,2.299799999999777,1.340899999999237,3.950199999999313,1.83009999999922,1.660200000000259.5,3.339900000000853.739299999999275,5.049800000000687.739299999999275,2.070299999999406,0,3.910200000000259-.33009999999922,5.540100000000166-.989299999999275,1.629799999999705-.66990000000078,3.009699999999611-1.840799999999945,4.149400000000242-3.510700000000725,1.140599999999722-1.670000000000073,2.010699999998906-3.96980000000076,2.61029999999937-6.889699999999721.600600000000668-2.919899999998961.900399999999536-6.629899999999907.900399999999536-11.129899999999907v-28.329999999999927c0-5.139699999999721-.270499999999629-9.320400000000518-.799799999998868-12.509799999999814-.540000000000873-3.200199999999313-1.350600000000668-5.690399999999499-2.420900000000984-7.470699999999852-1.069299999999203-1.779300000000148-2.409200000000055-2.969699999999648-4.019499999999425-3.569300000001022-1.610400000000482-.600599999999758-3.490300000000389-.900399999998626-5.629899999999907-.900399999998626-2.320300000000316,0-4.58010000000013.549799999998868-6.789999999999964,1.640599999998813-2.210000000000036,1.08980000000156-4.240300000000389,2.509799999999814-6.089900000000853,4.25-1.839799999999741,1.729500000001281-3.470699999999852,3.699199999999109-4.890599999998813,5.889600000000428-1.409200000000055,2.179699999998775-2.460000000000946,4.370199999999386-3.149400000000242,6.559599999998682v37.330100000001039h-11.910200000000259v-39.580100000001039c0-6.349599999997736-.360300000000279-11.719699999997829-1.089799999999741-16.120099999998274-.730500000000575-4.398400000000038-1.440500000000611-7.710000000000946-2.129899999999907-9.949200000000928h11.589799999999741c.259799999999814.689399999999296.509799999999814,1.58009999999922.769599999999627,2.679700000000594.260700000000725,1.089799999999741.490200000000186,2.240200000000186.709899999999834,3.440399999999499.210000000000946,1.199199999999109.410200000000259,2.379899999999907.58010000000013,3.540000000000873l.509800000000723,2.890699999999924c4.120100000000093-4.890699999999924,8.260699999998906-8.420900000000984,12.430599999999686-10.581099999999424,4.160200000000259-2.168900000000576,8.5-3.259799999999814,13-3.259799999999814,3.429699999999684,0,6.46979999999985.569399999998495,9.099599999999555,1.709999999999127,2.640699999999924,1.139599999998609,4.870200000000295,2.939399999999296,6.670000000000073,5.41019999999844,1.799800000000687,2.470700000001671,3.160100000000057,5.659100000000763,4.079999999999927,9.58980000000156.930700000000797,3.929700000000594,1.390699999999924,8.649399999998423,1.390699999999924,14.189399999999296v28.959999999999127ZM1401.79490000000078,405.82129999999961h-22.330100000001039v-7.609399999999368h12.939500000000407v-87.75h-12.939500000000407v-7.620100000000093h22.330100000001039v102.979499999999462Z"/><path class="uuid-8cd77d78-d13b-4668-bae1-a37f9313c3df" d="M1561.927676719670671,336.832400000001144v-100.47110000000248h12.090799694559792v89.819300000001022h42.750998920019811v10.651800000001458h-54.841798614579602Z"/><path class="uuid-8cd77d78-d13b-4668-bae1-a37f9313c3df" d="M1638.647374781570761,245.141499999999724c-2.497099936920677,0-4.295899891480076-.597600000000966-5.397474781570054-1.798800000000483-1.104425054179956-1.199199999999109-1.656225040240315-2.756799999999203-1.656225040240315-4.67870000000039v-1.871100000000297c0-1.918499999999767.55179998606036-3.477499999999054,1.656225040240315-4.678199999998469,1.101574890089978-1.198800000000119,2.900374844649377-1.799300000000585,5.397474781570054-1.799300000000585,2.494125218429872,0,4.294025218429852.600500000000466,5.397525218430019,1.799300000000585,1.102499999999054,1.200699999999415,1.65519999999924,2.759699999998702,1.65519999999924,4.678199999998469v1.871100000000297c0,1.921900000001187-.552700000000186,3.479500000001281-1.65519999999924,4.67870000000039-1.103500000000167,1.201199999999517-2.903400000000147,1.798800000000483-5.397525218430019,1.798800000000483ZM1632.889574927020476,262.559500000001208h11.515625072979674v74.272899999999936h-11.515625072979674v-74.272899999999936Z"/><path class="uuid-8cd77d78-d13b-4668-bae1-a37f9313c3df" d="M1668.874900000000707,336.832400000001144v-74.272899999999936h11.515699999999924v11.953099999998813h.576100000000224c1.82129999999961-4.17870000000039,4.389699999999721-7.505799999998999,7.700199999999313-9.974600000001374,3.311599999999999-2.469699999997829,7.748099999999795-3.706499999998414,13.314500000000407-3.706499999998414,7.676799999999275,0,13.747099999999591,2.471199999999953,18.208999999999833,7.412599999999657,4.461900000000242,4.943300000000818,6.693299999999908,11.925699999999779,6.693299999999908,20.943799999999101v47.644500000002154h-11.514600000000428v-45.728500000001077c0-13.368599999999788-5.615199999999277-20.052700000000186-16.841799999999239-20.052700000000186-2.302700000000186,0-4.535200000000259.290499999999156-6.693400000000111.865700000000288-2.159099999999853.578100000000632-4.102499999999964,1.443900000000212-5.829999999999927,2.597700000000259-1.726599999999962,1.153800000000047-3.09479999999985,2.620100000000093-4.101599999999962,4.399399999998423-1.007800000000316,1.778800000000047-1.511700000000019,3.871100000000297-1.511700000000019,6.274900000000343v51.64350000000195h-11.515699999999924Z"/><path class="uuid-8cd77d78-d13b-4668-bae1-a37f9313c3df" d="M1809.649400000000242,334.385700000000725c0,10.266599999999016-2.878899999999703,18.328099999998813-8.636800000000221,24.181599999999889-5.757799999999406,5.852999999999156-13.868099999999686,8.781299999998737-24.326100000000224,8.781299999998737-6.045899999999165,0-11.252999999999702-.940500000000611-15.618199999998978-2.818400000000111-4.367200000000594-1.882299999999304-7.988300000000891-4.363299999999072-10.867200000000594-7.447299999999814l6.765600000000632-7.952099999998609c2.494199999999182,2.568299999998999,5.373099999999795,4.544899999998961,8.636799999999312,5.926299999999173,3.260699999999815,1.380799999998999,7.052700000000186,2.070799999999508,11.371100000000297,2.070799999999508,6.715799999999945,0,11.921800000000076-1.855499999999665,15.617100000000391-5.563499999998385,3.693399999999201-3.713900000002468,5.541999999999462-9.183600000000297,5.541999999999462-16.411600000001272v-10.273999999999432h-.575200000000223c-2.20889999999963,4.561099999998987-5.087800000000243,7.979499999999462-8.636700000000019,10.259799999999814-3.551699999999983,2.281199999999444-7.916999999999462,3.421399999999267-13.099599999999555,3.421399999999267-4.605499999999665,0-8.779300000000148-.91359999999986-12.522399999999834-2.73489999999947-3.742200000000594-1.822200000000521-6.909200000000055-4.413099999999758-9.5-7.772399999999834-2.590900000000147-3.358399999999165-4.606499999999869-7.435600000000704-6.045900000000074-12.235399999999572-1.439500000000407-4.79739999999947-2.158200000000761-10.170900000000984-2.158200000000761-16.122100000000501,0-5.948199999998906.718700000000354-11.321700000000419,2.158200000000761-16.121100000000297,1.439400000000205-4.797300000000178,3.454999999999927-8.875400000000809,6.045900000000074-12.235300000000279,2.590799999999945-3.357899999999063,5.757799999999406-5.948700000000827,9.5-7.772499999999127,3.743099999999686-1.822200000000521,7.916900000000169-2.734800000000178,12.522399999999834-2.734800000000178,5.182600000000093,0,9.619200000000092,1.117599999999584,13.315399999999499,3.348599999999351,3.692399999999907,2.233400000000984,6.499099999999999,5.676800000001094,8.420900000000074,10.332500000000437h.575200000000223v-11.953099999998813h11.515699999999924v71.826199999999517ZM1779.27730000000065,328.339799999999741c2.591799999999239,0,5.038099999999758-.337400000000343,7.341799999999239-1.01220000000103,2.302700000000186-.674799999998868,4.293000000000575-1.664600000000064,5.972600000000966-2.966300000000047,1.677799999999479-1.299899999998161,3.023499999999331-2.89259999999922,4.031299999999646-4.772499999999127,1.006800000000112-1.880400000000009,1.510699999999815-4.075199999999313,1.510699999999815-6.582999999998719v-27.632300000001123c0-2.023999999999432-.481399999999667-3.929199999998673-1.439400000000205-5.715400000000955-.960000000000036-1.783199999998033-2.30369999999948-3.301199999998062-4.030299999999443-4.556099999997969-1.727500000000873-1.252500000000509-3.742200000000594-2.240700000002107-6.04490000000078-2.964400000000751-2.30369999999948-.724099999999453-4.75-1.08640000000014-7.341799999999239-1.08640000000014-6.527399999999943,0-11.708999999999833,2.073199999998906-15.54489999999987,6.221199999999953-3.839900000000853,4.147399999999834-5.757800000000316,9.499499999999898-5.757800000000316,16.058100000000195v12.729999999999563c0,6.558600000000297,1.917899999999463,11.911099999999351,5.757800000000316,16.058600000000297,3.835900000000038,4.146899999999732,9.017499999999927,6.220699999999852,15.54489999999987,6.220699999999852Z"/><path class="uuid-8cd77d78-d13b-4668-bae1-a37f9313c3df" d="M1879.890600000000632,324.87880000000041h-.576200000000426c-.768600000000333,1.711499999999432-1.704099999999926,3.398499999999331-2.806599999999889,5.060600000000704-1.10359999999946,1.662099999997736-2.470699999999852,3.134699999998702-4.101599999999962,4.41649999999936-1.632800000000316,1.282199999999648-3.59860000000026,2.30370000000039-5.902299999999741,3.063899999999194-2.302800000000389.759799999999814-4.990300000000389,1.140199999999822-8.060599999999795,1.140199999999822-7.677700000000186,0-13.771500000000742-2.469699999999648-18.280300000000352-7.41359999999986-4.511700000000019-4.940899999999601-6.765600000000632-11.921899999999368-6.765600000000632-20.942900000000009v-47.643999999998414h11.515600000000632v45.727499999999054c0,13.368700000000899,5.661199999999553,20.052799999999479,16.985399999999572,20.052799999999479,2.302700000000186,0,4.534200000000055-.287099999999555,6.693300000000818-.86620000000039,2.159199999999146-.575199999999313,4.077199999999721-1.440500000000611,5.757899999999609-2.594799999998941,1.677700000000186-1.154300000000148,3.022399999999834-2.620100000000093,4.029300000000148-4.399400000000242,1.007799999999406-1.778299999999945,1.511700000000019-3.919899999998961,1.511700000000019-6.421400000001086v-51.498499999997875h11.515599999999722v74.272899999999936h-11.515599999999722v-11.953600000000733Z"/><path class="uuid-8cd77d78-d13b-4668-bae1-a37f9313c3df" d="M1921.632800000000316,245.141499999999724c-2.496100000000297,0-4.295000000000073-.597600000000966-5.397500000000036-1.798800000000483-1.104499999999462-1.199199999999109-1.655300000000352-2.756799999999203-1.655300000000352-4.67870000000039v-1.871100000000297c0-1.918499999999767.550800000000891-3.477499999999054,1.655300000000352-4.678199999998469,1.102499999999964-1.198800000000119,2.90139999999974-1.799300000000585,5.397500000000036-1.799300000000585,2.494099999999889,0,4.293899999999667.600500000000466,5.398400000000038,1.799300000000585,1.101599999999962,1.200699999999415,1.654300000000148,2.759699999998702,1.654300000000148,4.678199999998469v1.871100000000297c0,1.921900000001187-.552700000000186,3.479500000001281-1.654300000000148,4.67870000000039-1.104500000000371,1.201199999999517-2.904300000000148,1.798800000000483-5.398400000000038,1.798800000000483ZM1915.874900000000707,262.559500000001208h11.515699999999924v74.272899999999936h-11.515699999999924v-74.272899999999936Z"/><path class="uuid-8cd77d78-d13b-4668-bae1-a37f9313c3df" d="M1974.171800000000076,338.559999999999491c-6.909200000000055,0-12.691399999999703-1.319799999999304-17.344699999999648-3.95850000000064-4.655300000000352-2.638199999999415-8.66110000000026-6.165099999998347-12.019500000000335-10.58009999999922l8.204099999999926-6.621100000000297c2.878900000000613,3.648000000001048,6.093700000000354,6.45509999999922,9.644500000000335,8.41990000000078,3.548799999999574,1.968799999998737,7.676800000000185,2.951699999999619,12.378899999999703,2.951699999999619,4.894500000000335,0,8.708999999999833-1.055200000000696,11.443400000000111-3.166500000001179,2.735300000000279-2.10989999999947,4.102499999999964-5.085899999998219,4.102499999999964-8.924799999998868,0-2.878899999999703-.935499999999593-5.348199999998542-2.806599999999889-7.413099999999758-1.872099999999591-2.0625-5.253899999999703-3.476599999999962-10.147500000000036-4.246100000000297l-5.902299999999741-.863799999999173c-3.45510000000013-.47899999999936-6.621100000000297-1.223099999999249-9.5-2.230900000000474-2.878900000000613-1.007800000001225-5.397500000000036-2.350599999999758-7.556700000000092-4.030300000000352-2.159200000000055-1.677700000000186-3.839799999999741-3.76510000000053-5.038099999999758-6.261699999999109-1.201100000000224-2.494099999999889-1.799800000000687-5.469700000001467-1.799800000000687-8.923800000000483,0-3.646499999998923.66990000000078-6.837400000000343,2.015699999999924-9.572799999999916,1.34270000000015-2.734900000001289,3.189400000000205-5.012199999999211,5.541900000000169-6.836900000000242,2.350599999999758-1.821799999999712,5.15730000000076-3.189900000001217,8.420000000000073-4.102100000000064,3.261700000000019-.91110000000117,6.765600000000632-1.367599999999584,10.50880000000052-1.367599999999584,6.04489999999987,0,11.105399999999463,1.057099999999991,15.185499999999593,3.16649999999936,4.077100000000428,2.112300000000687,7.65139999999974,5.038099999999758,10.72360000000026,8.78019999999924l-7.629800000000614,6.909200000001874c-1.632899999999609-2.302700000000186-4.029299999999239-4.39010000000053-7.19629999999961-6.260700000000725-3.166999999999462-1.871600000000399-7.149499999999534-2.807600000000093-11.947299999999814-2.807600000000093-4.799799999999777,0-8.420900000000074,1.032199999999648-10.868199999999888,3.09519999999975-2.44630000000052,2.063899999999194-3.66989999999987,4.871600000000399-3.66989999999987,8.420400000000882,0,3.648399999998219,1.223599999999351,6.286099999999351,3.66989999999987,7.91649999999936,2.447299999999814,1.633300000001327,5.974599999999555,2.831500000000233,10.58010000000013,3.599099999999453l5.757799999999406.863300000000891c8.252000000000407,1.247999999999593,14.106499999999869,3.623499999999694,17.560600000000704,7.125,3.454999999999927,3.504899999999907,5.182599999999184,8.085399999999936,5.182599999999184,13.746100000000297,0,7.197299999999814-2.447299999999814,12.860799999998562-7.340799999999945,16.985799999998562-4.894599999999627,4.127500000000509-11.613299999999981,6.189500000000407-20.152399999999943,6.189500000000407Z"/><path class="uuid-8cd77d78-d13b-4668-bae1-a37f9313c3df" d="M2037.363199999999779,336.832400000001144c-4.029299999999239,0-7.077099999999518-1.124500000001717-9.139599999999518-3.373500000001513-2.064499999999498-2.248999999999796-3.094699999999648-5.195299999999406-3.094699999999648-8.834500000000844v-51.846199999999953h-12.235400000000482v-10.218699999997625h6.909200000000055c2.494099999999889,0,4.197200000000521-.504900000001726,5.110300000000279-1.512700000001132.911199999999553-1.006800000001022,1.367199999999684-2.756800000001022,1.367199999999684-5.252900000001318v-13.819399999998495h10.364300000000185v20.585000000000946h16.265599999999722v10.218699999997625h-16.265599999999722v53.835000000000946h15.113299999999981v10.219200000001365h-14.394600000000537Z"/><path class="uuid-8cd77d78-d13b-4668-bae1-a37f9313c3df" d="M2077.235300000000279,245.141499999999724c-2.496100000000297,0-4.295900000000074-.597600000000966-5.397500000000036-1.798800000000483-1.104500000000371-1.199199999999109-1.65520000000015-2.756799999999203-1.65520000000015-4.67870000000039v-1.871100000000297c0-1.918499999999767.550699999999779-3.477499999999054,1.65520000000015-4.678199999998469,1.101599999999962-1.198800000000119,2.90139999999974-1.799300000000585,5.397500000000036-1.799300000000585,2.495100000000093,0,4.293900000000576.600500000000466,5.397500000000036,1.799300000000585,1.102499999999964,1.200699999999415,1.656200000000354,2.759699999998702,1.656200000000354,4.678199999998469v1.871100000000297c0,1.921900000001187-.55370000000039,3.479500000001281-1.656200000000354,4.67870000000039-1.10359999999946,1.201199999999517-2.902399999999943,1.798800000000483-5.397500000000036,1.798800000000483ZM2071.477500000000873,262.559500000001208h11.515599999999722v74.272899999999936h-11.515599999999722v-74.272899999999936Z"/><path class="uuid-8cd77d78-d13b-4668-bae1-a37f9313c3df" d="M2135.099600000000464,338.559999999999491c-5.181700000000092,0-9.837000000000444-.91359999999986-13.962000000000444-2.73489999999947-4.126899999999296-1.822200000000521-7.606399999999667-4.413099999999758-10.435499999999593-7.772399999999834-2.832000000000335-3.358399999999165-4.99120000000039-7.435600000000704-6.477499999999964-12.235399999999572-1.488299999999981-4.79739999999947-2.230500000000575-10.170900000000984-2.230500000000575-16.122100000000501,0-5.948199999998906.742200000000594-11.321700000000419,2.230500000000575-16.121100000000297,1.486299999999574-4.797300000000178,3.645499999999629-8.875400000000809,6.477499999999964-12.235300000000279,2.829099999999926-3.357899999999063,6.308600000000297-5.948700000000827,10.435499999999593-7.772499999999127,4.125-1.822200000000521,8.780300000000352-2.734800000000178,13.962000000000444-2.734800000000178,7.388599999999315,0,13.315400000000409,1.607900000000882,17.777299999999741,4.8216999999986,4.461900000000242,3.216400000001158,7.79489999999987,7.413100000001577,10.003900000000613,12.59480000000076l-9.644500000000335,4.894500000000335c-1.343800000000556-3.837400000000343-3.550799999999981-6.813000000000102-6.621100000000297-8.924800000000687-3.072299999999814-2.109399999999368-6.909200000000055-3.16649999999936-11.515599999999722-3.16649999999936-3.454099999999926,0-6.476599999999962.553200000000288-9.068400000000111,1.655300000000352-2.589799999999741,1.10399999999936-4.75,2.640099999998711-6.476599999999962,4.606399999998757-1.727499999999964,1.96730000000025-3.023400000000038,4.318400000000111-3.886700000000019,7.052700000000186-.863299999999981,2.73489999999947-1.295900000000074,5.735899999999674-1.295900000000074,8.995699999999488v12.666900000000169c0,6.527900000000955,1.75,11.876000000000204,5.254899999999907,16.050300000000789,3.501000000000204,4.174399999999878,8.658199999999852,6.261300000000119,15.472700000000259,6.261300000000119,9.306599999999889,0,16.025300000000243-4.318400000000111,20.152299999999741-12.95509999999922l8.34860000000026,5.614199999999983c-2.399400000000242,5.375499999998283-5.97360000000026,9.644599999999627-10.72360000000026,12.811099999998987s-10.675799999999981,4.75-17.777299999999741,4.75Z"/><path class="uuid-8cd77d78-d13b-4668-bae1-a37f9313c3df" d="M2202.175699999999779,338.559999999999491c-6.909199999999146,0-12.691399999999703-1.319799999999304-17.344699999999648-3.95850000000064-4.655300000000352-2.638199999999415-8.661099999999351-6.165099999998347-12.019500000000335-10.58009999999922l8.204100000000835-6.621100000000297c2.878899999999703,3.648000000001048,6.093699999999444,6.45509999999922,9.644499999999425,8.41990000000078,3.548800000000483,1.968799999998737,7.675799999999981,2.951699999999619,12.378900000000613,2.951699999999619,4.894499999999425,0,8.708999999999833-1.055200000000696,11.443400000000111-3.166500000001179,2.73529999999937-2.10989999999947,4.102499999999054-5.085899999998219,4.102499999999054-8.924799999998868,0-2.878899999999703-.935499999999593-5.348199999998542-2.806599999999889-7.413099999999758-1.872099999999591-2.0625-5.253899999999703-3.476599999999962-10.147499999999127-4.246100000000297l-5.90230000000065-.863799999999173c-3.45510000000013-.47899999999936-6.621099999999387-1.223099999999249-9.5-2.230900000000474-2.878899999999703-1.007800000001225-5.397500000000036-2.350599999999758-7.556700000000092-4.030300000000352-2.159200000000055-1.677700000000186-3.839799999999741-3.76510000000053-5.038099999999758-6.261699999999109-1.201100000000224-2.494099999999889-1.799799999999777-5.469700000001467-1.799799999999777-8.923800000000483,0-3.646499999998923.670000000000073-6.837400000000343,2.015699999999924-9.572799999999916,1.34270000000015-2.734900000001289,3.189400000000205-5.012199999999211,5.541900000000169-6.836900000000242,2.350599999999758-1.821799999999712,5.15729999999985-3.189900000001217,8.419999999999163-4.102100000000064,3.260700000000725-.91110000000117,6.765600000000632-1.367599999999584,10.50880000000052-1.367599999999584,6.04489999999987,0,11.105399999999463,1.057099999999991,15.185500000000502,3.16649999999936,4.077199999999721,2.112300000000687,7.65139999999974,5.038099999999758,10.723599999999351,8.78019999999924l-7.629799999999705,6.909200000001874c-1.632899999999609-2.302700000000186-4.029300000000148-4.39010000000053-7.197299999999814-6.260700000000725-3.166000000000167-1.871600000000399-7.148400000000038-2.807600000000093-11.94630000000052-2.807600000000093-4.799799999999777,0-8.420900000000074,1.032199999999648-10.868199999999888,3.09519999999975-2.44629999999961,2.063899999999194-3.66989999999987,4.871600000000399-3.66989999999987,8.420400000000882,0,3.648399999998219,1.22360000000026,6.286099999999351,3.66989999999987,7.91649999999936,2.447299999999814,1.633300000001327,5.974600000000464,2.831500000000233,10.58010000000013,3.599099999999453l5.757799999999406.863300000000891c8.252000000000407,1.247999999999593,14.106500000000779,3.623499999999694,17.560600000000704,7.125,3.45510000000013,3.504899999999907,5.181599999999889,8.085399999999936,5.181599999999889,13.746100000000297,0,7.197299999999814-2.44629999999961,12.860799999998562-7.339799999999741,16.985799999998562-4.894600000000537,4.127500000000509-11.613299999999981,6.189500000000407-20.152400000000853,6.189500000000407Z"/><path class="uuid-8cd77d78-d13b-4668-bae1-a37f9313c3df" d="M2313.297800000000279,338.559999999999491c-8.157199999999648,0-15.114300000000185-1.561099999998987-20.872100000000501-4.678199999998469-5.757799999999406-3.117200000000594-10.651299999999537-7.413100000001577-14.681599999999889-12.882900000000518l8.923800000000483-7.485300000000279c3.549799999999777,4.703099999998813,7.485399999999572,8.276900000000751,11.80370000000039,10.723599999999351,4.318400000000111,2.447300000001633,9.403299999999945,3.670899999999165,15.257799999999406,3.670899999999165,7.197299999999814,0,12.689500000000407-1.727499999999054,16.481499999999869-5.181599999999889,3.789000000000669-3.45509999999922,5.685500000000502-8.061499999999796,5.685500000000502-13.818899999998393,0-4.796800000000076-1.439400000000205-8.492099999999482-4.318299999999908-11.082500000000437-2.878900000000613-2.591800000000148-7.628900000000613-4.654300000000148-14.25-6.190399999999499l-8.20510000000013-1.871100000000297c-9.211900000000242-2.110400000001391-16.242199999999684-5.301299999999173-21.086900000000242-9.57129999999961-4.846700000000055-4.269500000000335-7.269599999999627-10.293000000001484-7.269599999999627-18.06590000000142,0-4.412599999999657.814499999999498-8.348200000000361,2.447299999999814-11.802700000000186,1.630900000000111-3.454599999999118,3.909200000000055-6.333499999998821,6.836899999999332-8.6362999999983,2.925800000000891-2.30370000000039,6.427800000000389-4.05370000000039,10.507800000000316-5.253899999999703,4.078199999999924-1.199200000000928,8.564500000000407-1.799800000000687,13.458999999999833-1.799800000000687,7.579100000000835,0,14.081100000000333,1.39259999999922,19.503900000000613,4.174800000000687,5.420000000000073,2.784199999998236,10.003899999999703,6.861299999998664,13.746099999999387,12.235399999997753l-9.068299999999908,6.620600000002014c-2.784199999999146-3.837400000000343-6.14260000000013-6.859900000001289-10.075200000000223-9.068400000000111-3.936599999999089-2.206500000000233-8.83009999999922-3.310499999999593-14.682599999999184-3.310499999999593-6.429700000000594,0-11.492200000000594,1.367199999998775-15.185599999999795,4.101999999998952-3.695300000000316,2.735399999999572-5.542000000000371,6.837899999998626-5.542000000000371,12.307199999999284,0,4.800200000001496,1.558599999999387,8.420799999999872,4.67869999999948,10.867600000001403,3.117200000000594,2.446799999997893,7.843800000000556,4.390699999999924,14.177800000000389,5.83009999999922l8.204999999999927,1.871100000000297c9.882899999999609,2.20850000000064,17.03229999999985,5.566399999999703,21.447299999999814,10.075699999999415,4.412100000000464,4.511199999999008,6.621100000000297,10.507800000001225,6.621100000000297,17.992700000000696,0,4.606400000000576-.791000000000167,8.78019999999924-2.375,12.523399999998219-1.583999999999833,3.742200000000594-3.864300000000185,6.909200000001874-6.836900000000242,9.5-2.975599999999758,2.590800000001764-6.59860000000026,4.606400000000576-10.868199999999888,6.045400000000882-4.270499999999629,1.439500000000407-9.092800000000352,2.159200000000055-14.465799999999945,2.159200000000055Z"/><path class="uuid-8cd77d78-d13b-4668-bae1-a37f9313c3df" d="M2395.631800000000112,338.559999999999491c-4.99119999999948,0-9.549799999999777-.91359999999986-13.674799999999777-2.73489999999947-4.127000000000407-1.822200000000521-7.654300000000148-4.438000000000102-10.58010000000013-7.84519999999975-2.927700000000186-3.40480000000025-5.206100000000333-7.484400000001187-6.836899999999332-12.23489999999947-1.632800000000316-4.75-2.44630000000052-10.09860000000117-2.44630000000052-16.049800000000687,0-5.851500000000669.813500000000204-11.177700000000186,2.44630000000052-15.977500000000873,1.630799999998999-4.796899999999368,3.909199999999146-8.899399999998423,6.836899999999332-12.306599999999889,2.925799999999981-3.405299999998533,6.453099999999722-6.02100000000064,10.58010000000013-7.844799999998941,4.125-1.822200000000521,8.683600000000297-2.734800000000178,13.674799999999777-2.734800000000178,4.988299999999981,0,9.522400000000744.912599999999657,13.602499999999964,2.734800000000178,4.077199999999721,1.8237999999983,7.603500000000167,4.439500000000407,10.579099999999926,7.844799999998941,2.973700000000463,3.407200000001467,5.276400000000649,7.509700000000521,6.909200000000055,12.306599999999889,1.630900000000111,4.799800000000687,2.447300000000723,10.126000000000204,2.447300000000723,15.977500000000873,0,5.951199999999517-.816400000000613,11.299800000000687-2.447300000000723,16.049800000000687-1.632799999999406,4.750499999998283-3.935499999999593,8.83009999999922-6.909200000000055,12.23489999999947-2.975599999999758,3.407199999999648-6.501900000000205,6.022999999999229-10.579099999999926,7.84519999999975-4.08009999999922,1.82129999999961-8.614199999999983,2.73489999999947-13.602499999999964,2.73489999999947ZM2395.631800000000112,328.339799999999741c6.236300000000483,0,11.32130000000052-1.917999999999665,15.257800000000316-5.757799999999406,3.933600000000297-3.836500000001251,5.90139999999974-9.690500000000611,5.90139999999974-17.560600000000704v-10.651799999999639c0-7.867200000000594-1.967799999999443-13.721700000000055-5.90139999999974-17.561099999998987-3.936499999999796-3.83640000000014-9.021499999999833-5.757300000001123-15.257800000000316-5.757300000001123-6.239300000000185,0-11.324200000000019,1.920900000000984-15.257800000000316,5.757300000001123-3.936599999999089,3.839399999998932-5.90139999999974,9.693899999998393-5.90139999999974,17.561099999998987v10.651799999999639c0,7.870100000000093,1.96480000000065,13.724099999999453,5.90139999999974,17.560600000000704,3.933600000000297,3.839799999999741,9.018500000000131,5.757799999999406,15.257800000000316,5.757799999999406Z"/><path class="uuid-8cd77d78-d13b-4668-bae1-a37f9313c3df" d="M2475.806599999999889,338.559999999999491c-5.181699999999182,0-9.836899999999332-.91359999999986-13.961899999999332-2.73489999999947-4.127000000000407-1.822200000000521-7.606500000000779-4.413099999999758-10.436500000000706-7.772399999999834-2.831099999999424-3.358399999999165-4.990299999999479-7.435600000000704-6.476599999999962-12.235399999999572-1.489299999999275-4.79739999999947-2.231499999999869-10.170900000000984-2.231499999999869-16.122100000000501,0-5.948199999998906.742200000000594-11.321700000000419,2.231499999999869-16.121100000000297,1.486300000000483-4.797300000000178,3.645500000000538-8.875400000000809,6.476599999999962-12.235300000000279,2.829999999999927-3.357899999999063,6.309500000000298-5.948700000000827,10.436500000000706-7.772499999999127,4.125-1.822200000000521,8.78020000000015-2.734800000000178,13.961899999999332-2.734800000000178,7.388700000000426,0,13.314400000000205,1.607900000000882,17.77730000000065,4.8216999999986,4.461899999999332,3.216400000001158,7.795000000000073,7.413100000001577,10.003899999999703,12.59480000000076l-9.644499999999425,4.894500000000335c-1.344700000000557-3.837400000000343-3.550800000000891-6.813000000000102-6.621100000000297-8.924800000000687-3.072299999999814-2.109399999999368-6.909200000000055-3.16649999999936-11.515600000000632-3.16649999999936-3.45509999999922,0-6.476599999999962.553200000000288-9.068400000000111,1.655300000000352-2.590799999999945,1.10399999999936-4.75,2.640099999998711-6.47649999999976,4.606399999998757-1.727599999999256,1.96730000000025-3.02350000000024,4.318400000000111-3.886799999999312,7.052700000000186-.863200000000688,2.73489999999947-1.295900000000074,5.735899999999674-1.295900000000074,8.995699999999488v12.666900000000169c0,6.527900000000955,1.75,11.876000000000204,5.253999999999905,16.050300000000789,3.501899999999296,4.174399999999878,8.659099999999853,6.261300000000119,15.473599999999351,6.261300000000119,9.306599999999889,0,16.025400000000445-4.318400000000111,20.15230000000065-12.95509999999922l8.348699999999553,5.614199999999983c-2.399400000000242,5.375499999998283-5.973699999999553,9.644599999999627-10.723699999999553,12.811099999998987s-10.676699999999983,4.75-17.77730000000065,4.75Z"/><path class="uuid-8cd77d78-d13b-4668-bae1-a37f9313c3df" d="M2526.329000000002452,245.141499999999724c-2.497000000002117,0-4.2958000000026-.597600000000966-5.397400000002563-1.798800000000483-1.104499999999462-1.199199999999109-1.655299999999443-2.756799999999203-1.655299999999443-4.67870000000039v-1.871100000000297c0-1.918499999999767.550799999999981-3.477499999999054,1.655299999999443-4.678199999998469,1.101599999999962-1.198800000000119,2.900400000000445-1.799300000000585,5.397400000002563-1.799300000000585,2.494199999996454,0,4.29399999999805.600500000000466,5.397499999999127,1.799300000000585,1.102500000000873,1.200699999999415,1.656299999998737,2.759699999998702,1.656299999998737,4.678199999998469v1.871100000000297c0,1.921900000001187-.553799999997864,3.479500000001281-1.656299999998737,4.67870000000039-1.103500000001077,1.201199999999517-2.903300000002673,1.798800000000483-5.397499999999127,1.798800000000483ZM2520.571200000000317,262.559500000001208h11.515699999999015v74.272899999999936h-11.515699999999015v-74.272899999999936Z"/><path class="uuid-8cd77d78-d13b-4668-bae1-a37f9313c3df" d="M2584.481400000001486,338.559999999999491c-5.086900000002061,0-9.669000000003507-.91359999999986-13.746100000000297-2.73489999999947-4.08009999999922-1.822200000000521-7.581999999998516-4.438000000000102-10.507800000001225-7.84519999999975-2.928699999998571-3.40480000000025-5.181700000001001-7.484400000001187-6.765600000000632-12.23489999999947-1.582999999998719-4.75-2.37409999999727-10.09860000000117-2.37409999999727-16.049800000000687,0-5.851500000000669.791099999998551-11.177700000000186,2.37409999999727-15.977500000000873,1.58389999999963-4.796899999999368,3.836900000002061-8.899399999998423,6.765600000000632-12.306599999999889,2.92580000000271-3.405299999998533,6.427700000002005-6.02100000000064,10.507800000001225-7.844799999998941,4.07709999999679-1.822200000000521,8.659199999998236-2.734800000000178,13.746100000000297-2.734800000000178,4.989300000001094,0,9.451199999999517.908199999999852,13.386699999999109,2.725599999999758,3.933599999999387,1.817299999998795,7.292000000000371,4.329499999999825,10.076199999999517,7.532199999999648,2.782200000001467,3.203100000000632,4.917000000001281,7.003900000001522,6.405300000002171,11.402799999999843,1.486299999998664,4.399400000000242,2.231399999999667,9.228000000000975,2.231399999999667,14.486300000000483v5.451699999999619h-53.403300000000854v3.45509999999922c0,3.166500000001179.503899999997884,6.117200000000594,1.511699999999109,8.852000000000771,1.007799999999406,2.734900000001289,2.447299999999814,5.110399999999572,4.318400000000111,7.125,1.871100000000297,2.015699999999924,4.173799999998664,3.598700000000463,6.909100000000763,4.751000000000204,2.735400000001391,1.151400000000649,5.83009999999922,1.726599999999962,9.284199999998236,1.726599999999962,4.701200000003155,0,8.802800000001298-1.102600000000166,12.307600000000093-3.310600000000704,3.501000000000204-2.205999999998312,6.212000000003172-5.372999999999593,8.131900000000314-9.5l8.205100000002858,5.939500000000407c-2.399500000003172,5.119099999999889-6.142600000002858,9.246100000000297-11.227600000001985,12.38379999999961-5.086899999998423,3.137700000001132-11.132799999999406,4.707500000000437-18.136699999999109,4.707500000000437ZM2584.481400000001486,270.475499999998647c-3.167000000001281,0-6.044900000001689.548800000000483-8.635699999998906,1.646500000002561-2.591800000001967,1.09769999999844-4.822300000001633,2.647499999999127-6.693400000000111,4.648399999998219-1.871100000000297,2.002000000000407-3.335900000001857,4.363300000000891-4.390600000002451,7.081099999999424-1.056699999997363,2.718700000001263-1.583999999998923,5.698200000000725-1.583999999998923,8.941399999999703v1.001000000000204h41.023399999998219v-1.574699999999211c0-6.580599999999322-1.798799999996845-11.847700000000259-5.397399999998015-15.806200000000899-3.598699999998644-3.957999999998719-8.373100000000704-5.9375-14.322299999999814-5.9375Z"/><path class="uuid-8cd77d78-d13b-4668-bae1-a37f9313c3df" d="M2651.990200000001096,336.832400000001144c-4.031299999998737,0-7.078099999998813-1.124500000001717-9.140599999998813-3.373500000001513-2.064500000001317-2.248999999999796-3.094800000002579-5.195299999999406-3.094800000002579-8.834500000000844v-51.846199999999953h-12.235300000000279v-10.218699999997625h6.909200000001874c2.494099999999889,0,4.197199999998702-.504900000001726,5.110300000000279-1.512700000001132.91019999999844-1.006800000001022,1.367200000000594-2.756800000001022,1.367200000000594-5.252900000001318v-13.819399999998495h10.363299999997253v20.585000000000946h16.265600000001541v10.218699999997625h-16.265600000001541v53.835000000000946h15.114199999999983v10.219200000001365h-14.393499999998312Z"/><path class="uuid-8cd77d78-d13b-4668-bae1-a37f9313c3df" d="M2731.876900000000205,262.559500000001208h11.372100000000501l-33.251000000000204,91.545899999997346c-.863300000000891,2.207000000002154-1.727500000000873,4.052700000000186-2.590799999998126,5.541500000001179-.864300000001094,1.486800000000585-1.920900000000984,2.66359999999986-3.167000000001281,3.526899999998932-1.248100000000704.864199999999983-2.806700000001001,1.487300000000687-4.677800000003117,1.871000000001004-1.870999999997366.382400000000416-4.152299999997012.576200000001336-6.837799999995696.576200000001336h-5.901400000003377v-10.219700000001467h11.659200000002784l5.614199999999983-15.808600000000297-27.781200000001263-77.033199999998033h11.515600000001541l17.848599999998441,50.425799999999072,3.45509999999922,12.068799999999101h.718800000002375l4.031199999997625-12.068799999999101,17.992200000000594-50.425799999999072Z"/><path class="uuid-8cd77d78-d13b-4668-bae1-a37f9313c3df" d="M1589.944304687500335,477.750973437499852l-3.6103515625-11.4755859375h-15.98828125l-3.5458984375,11.4755859375h-8.638671875l15.0859375-44.9990234375h10.5732421875l14.9560546875,44.9990234375h-8.83203125ZM1578.468718750000335,440.488278124999852h-.322265625l-5.7373046875,18.501953125h11.8623046875l-5.802734375-18.501953125Z"/><path class="uuid-8cd77d78-d13b-4668-bae1-a37f9313c3df" d="M1633.979460937500335,477.750973437499852l-3.6103515625-11.4755859375h-15.98828125l-3.5458984375,11.4755859375h-8.638671875l15.0859375-44.9990234375h10.5732421875l14.9560546875,44.9990234375h-8.83203125ZM1622.503875000000335,440.488278124999852h-.322265625l-5.7373046875,18.501953125h11.8623046875l-5.802734375-18.501953125Z"/><path class="uuid-8cd77d78-d13b-4668-bae1-a37f9313c3df" d="M196.724589315799676,379.626900000001115h-54.992198610779269v-9.128900000001522h54.992198610779269v9.128900000001522ZM189.568289496580292,476.833499999998821h-9.421289496579448v-10.005900000000111h-21.983000000000175v10.005900000000111h-9.566809468400606v-49.370599999998376h40.971098964980229v49.370599999998376ZM189.12988950765066,398.469699999999648l-40.386798979739979.145500000000538v-9.127900000001318h40.386798979739979v8.98240000000078ZM189.275889503969665,417.604000000001179h-40.532798976058984v-9.129900000001726h40.532798976058984v9.129900000001726ZM187.450189550090727,361.077599999998711l-37.100099062779918.145500000002357v-9.127900000001318h37.100099062779918v8.982399999998961ZM180.147000000000844,457.843699999999444v-21.396899999999732h-22.128509706410114v21.396899999999732h22.128509706410114ZM274.503887350930199,417.75l-78.947298005629818.145999999998821v-8.982399999998961h19.572299505560295l4.236299892989337-22.566399999999703h-18.257799538769177v-8.983900000001086h19.718799501859394l3.140599920659952-16.724099999999453h-27.971699293369966v-9.129000000000815h72.5204981679708v8.983400000000984h-34.690399123641328l-2.994188378559556,16.724699999998847h30.088887694089863l-3.140599920669047,31.547800000000279h16.724599577509252v8.983900000001086ZM261.796887671929653,477.125500000000102h-9.421887671929653v-9.85989999999947h-36.953111156539308v9.85989999999947h-9.568399758280066v-49.516100000000733h55.943398586749026v49.516100000000733ZM252.375,458.281699999999546v-21.689899999999398h-37.099611152840225v21.689899999999398h37.099611152840225ZM250.914000000000669,386.200699999999415h-21.68941150522005l-4.236299892980242,22.712900000000445h23.662099402239619l2.263611995960673-22.712900000000445Z"/><path class="uuid-8cd77d78-d13b-4668-bae1-a37f9313c3df" d="M439.175783190959919,379.626900000001115h-132.771496645909792v-9.128900000001522h132.771496645909792v9.128900000001522ZM419.603483685400533,398.323200000000725h-94.94139760158032v-8.835900000001857h94.94139760158032v8.835900000001857ZM419.603483685400533,417.311999999999898h-94.94139760158032v-8.837900000000445h94.94139760158032v8.837900000000445ZM416.171883772090951,477.125500000000102h-9.421883772090951v-10.297900000001391h-68.503914259339581v10.297900000001391h-9.420899762009867v-49.662599999999657h87.346697793440399v49.662599999999657ZM416.025383775790033,360.128399999999601l-86.470697815559106.218800000000556v-8.837000000001353h86.470697815559106v8.618200000000797ZM406.75,457.843699999999444v-21.396899999999732h-68.503914259339581v21.396899999999732h68.503914259339581Z"/><path class="uuid-8cd77d78-d13b-4668-bae1-a37f9313c3df" d="M603.849579030949826,450.688000000000102h-58.790998514808962v10.150900000000547c0,10.856399999998757-5.769580516140195,16.286599999999453-17.310580516141272,16.286599999999453h-9.712918801189517l-3.578081198809741-8.983400000000984h13.583999999999833c4.771480825499566,0,7.158180765210091-2.191899999997986,7.158180765210091-6.572799999998097v-10.88130000000092h-64.122998380120407v-9.129899999999907h64.122998380120407v-6.280800000000454c10.173819234789335-3.797300000000178,17.453099559099428-7.350099999999657,21.835899448380587-10.662099999999555h-55.943298586760648v-8.399900000000343h72.158218373169802v7.961900000000242c-7.597720004099756,5.161199999998644-16.994219766729657,10.442900000000009-28.191419483859136,15.847200000000157v1.533699999999953h58.790998514808962v9.129899999999907ZM597.714779185929729,423.591800000000148h-8.76559977855959v-15.117700000000696h-102.023397422669404v15.995100000000093h-9.568399758280066v-24.538099999999758h12.560617773578997v-44.550699999999779c6.91208173449013-.68119999999908,14.486281543150653-3.968300000000454,22.71478133528035-9.858400000000984l4.820299878230799,6.718700000001263c-4.433599887990567,4.089400000000751-10.470699735480594,7.182099999999991-18.113299542420464,9.274900000000343v6.134799999999814h18.695299527719726v7.595699999999852h-18.695299527719726v7.959899999999834h18.695299527719726v7.448800000000119h-18.695299527719726v9.276299999999537h77.632798038829606v-9.276299999999537h-17.820299549819538v-7.30370000000039h17.820299549819538v-8.543999999999869h-17.67379955351953v-7.448700000000827h17.67379955351953v-7.960499999999229h-20.667899477879473v-8.837400000000343h29.94331976795911v49.224200000000565h11.466779185930136v23.807099999999991ZM556.304680232040482,366.920400000000882l-5.111399870880632,6.280299999998533c-2.777280361159683-2.676799999999275-6.550699834509942-5.574699999999211-11.320280361160258-8.690500000000611-3.943319253248774,3.311100000000806-8.375,6.353100000000268-13.292919017048916,9.129000000000815l-5.988299848730094-5.25879999999961c4.722599880699818-1.947299999999814,8.859399776200007-4.235899999999674,12.415999686349096-6.864799999999377-5.94139984990943-2.238800000000992-10.736299728779159-3.797300000001997-14.388699636509045-4.673300000000381l3.726599905859985-6.720200000001569c5.402318910078975,1.363200000001598,10.831999726359754,3.117200000000594,16.285099588600133,5.258300000001327,3.457099912669946-3.260299999999916,6.353599839489107-6.595699999999852,8.691499780429695-10.005400000000009l6.13471954104989,4.893500000000131c-1.949219646779966,3.019099999999526-4.480519582839406,5.964899999999034-7.595719504140106,8.837499999999636,3.601599909020479,2.043400000000474,7.083999821040379,4.64890000000014,10.443399736180254,7.814400000001115ZM557.179680209930666,393.502899999999499l-6.132799845070622,4.820300000001225c-3.943399900379518-3.018000000000029-8.035199797010137-5.524900000000343-12.269599690040195-7.52100000000064-2.62889993358931,1.996100000000297-7.3026998155201,4.503000000000611-14.021499645788936,7.52100000000064l-5.550699859781162-4.381800000001022c6.279299841380634-2.968299999998635,10.783199727600731-5.551300000000992,13.511699658671205-7.740700000000288-2.728499931070473-1.703099999998813-6.865299826570663-3.602999999999156-12.415999686350915-5.697799999999916l5.476499861660159-4.599599999999555c5.013718996769967,1.802299999999377,9.298899765090027,3.676299999999173,12.85349967529055,5.622100000000501,1.361399965609962-.777400000000853,4.113299896089302-3.113800000000992,8.251999791539674-7.011200000000827l6.718699830270452,3.433100000000195c-2.48239993729112,3.214299999999639-5.255799867230962,5.868599999999788-8.324199789720296,7.96140000000014,4.040999897919392,1.850099999999657,8.007799797709595,4.381299999999101,11.902399699320085,7.594199999999546Z"/><path class="uuid-8cd77d78-d13b-4668-bae1-a37f9313c3df" d="M768.375,450.688000000000102h-58.790999999999258v10.150900000000547c0,10.856399999998757-5.769623494370535,16.286599999999453-17.308623202870876,16.286599999999453h-9.712899754629689l-3.578099909609591-8.983400000000984h13.583899656840003c4.769599879509769,0,7.156299819220294-2.191899999997986,7.156299819220294-6.572799999998097v-10.88130000000092h-64.121098380170224v-9.129899999999907h64.121098380170224v-6.280800000000454c10.175799742939489-3.797300000000178,17.453099559099428-7.350099999999657,21.837899448330063-10.662099999999555h-55.94339858675994v-8.399900000000343h72.156298177179451v7.961900000000242c-7.595699808110112,5.161199999998644-16.994199570689489,10.442900000000009-28.191375647699715,15.847200000000157v1.533699999999953h58.790999999999258v9.129899999999907ZM762.24217502961983,423.591800000000148h-8.767599778509975v-15.117700000000696h-102.023397422669404v15.995100000000093h-9.566399758340594v-24.538099999999758h12.560499682700538v-44.550699999999779c6.914099825329686-.68119999999908,14.484399634089641-3.968300000000454,22.712899426220247-9.858400000000984l4.820299878229889,6.718700000001263c-4.429699888089999,4.089400000000751-10.468699735540213,7.182099999999991-18.113299542420464,9.274900000000343v6.134799999999814h18.697299527670111v7.595699999999852h-18.697299527670111v7.959899999999834h18.697299527670111v7.448800000000119h-18.697299527670111v9.276299999999537h77.632822485170436v-9.276299999999537h-17.818323996209983v-7.30370000000039h17.818323996209983v-8.543999999999869h-17.67382399986036v-7.448700000000827h17.67382399986036v-7.960499999999229h-20.667923924220304v-8.837400000000343h29.943299243569527v49.224200000000565h11.468799710270105v23.807099999999991ZM723.431576010059871,391.864700000000084l-6.654299831900062,6.083999999998923c-3.037099923280039-4.563500000000204-7.382799813489328-10.276299999999537-11.585899707319186-13.824699999999211-6.53319983495021,7.279300000000148-11.906299699219744,11.912099999999555-16.105499593140848,13.893099999999322l-6.583999833669623-5.528299999998126c4.949299874970166-2.354500000001281,10.316399739390363-6.752000000000407,16.107499593090324-13.203199999999924-6.583999833669623-4.101500000000669-11.275376637119734-6.63720000000103-14.076199644409826-7.605900000002293l5.744099854899105-5.940399999999499c2.333999941030925.922300000000178,6.718799830270655,3.31590000000142,13.165999667400683,7.189900000001217,1.916099951589786-3.135700000000725,3.406299913940529-6.568400000000111,4.480499886809412-10.302299999999377h-21.990199444479003v-8.638100000000122h11.788999702179353v-8.897000000000844h7.566423340480469v8.897000000000844h13.992176114909853v8.638100000000122h-2.769499930040183c-1.554676184870004,5.718299999998635-3.646499907879843,10.671399999999267-6.275399841470062,14.86279999999897,5.08989987142013,3.870199999999386,9.9745997480195,9.767100000000937,13.195299666659594,14.375Z"/><path class="uuid-8cd77d78-d13b-4668-bae1-a37f9313c3df" d="M935.310500000000502,379.33640000000014l-5.257800000000316,7.594699999999648c-16.603499999999258-4.090299999999843-29.60149999999976-8.812900000000809-38.997999999999593-14.167900000000373v6.573200000000725h-49.371100000000297v-7.231900000000678c-14.216800000000148,7.352999999999156-26.972700000000259,12.149900000000343-38.269599999999627,14.388200000001234l-4.818300000000818-7.668000000001484c27.361300000000483-6.669899999998961,50.146500000000742-17.819799999999304,68.35740000000078-33.449699999999211l8.98239999999987,2.994599999999991c-.974600000000464,1.21730000000025-1.826100000000224,2.070299999999406-2.556600000000799,2.555199999998877,16.164099999999962,13.438500000000204,36.808600000000297,22.909200000001874,61.931600000000799,28.411600000001272ZM919.753899999999703,421.182099999999991h-106.040999999999258v-34.251000000000204h106.040999999999258v34.251000000000204ZM911.064400000000205,477.270500000000538h-8.98239999999987v-5.842800000000352h-70.548800000000483v5.842800000000352h-8.982399999998961v-48.420400000000882h88.513599999999315v48.420400000000882ZM862.351500000000669,413.294899999998961v-18.257299999999304h-39.656200000000354v18.257299999999304h39.656200000000354ZM902.082000000000335,446.305699999998978v-9.420500000000175h-70.548800000000483v9.420500000000175h70.548800000000483ZM902.082000000000335,463.541500000001179v-9.568400000000111h-70.548800000000483v9.568400000000111h70.548800000000483ZM852.638700000000426,406.064400000001115l-7.521499999999833,5.25879999999961c-4.527400000000853-4.575200000001132-8.959000000000742-7.959900000001653-13.292999999999665-10.150800000001254l7.595699999999852-4.382400000000416c5.16019999999935,2.190500000000611,9.566399999999703,5.283200000001671,13.218799999999646,9.274400000002061ZM888.060500000000502,371.229999999999563c-7.060500000000502-3.700699999999415-13.90230000000065-8.691899999999805-20.523400000000038-14.973199999998542-7.060599999999795,5.842299999998431-14.970700000000761,10.833999999998923-23.734400000000278,14.973199999998542h44.257800000000316ZM910.773400000000038,413.294899999998961v-18.257299999999304h-39.4375v18.257299999999304h39.4375ZM901.935500000000502,399.345699999999852c-2.873000000000502,4.577100000000428-7.207000000000335,8.473099999999249-13,11.685499999999593l-8.033200000000761-4.016999999999825c6.378900000000613-3.602100000000064,10.759800000000723-7.206099999999424,13.144600000000537-10.808600000000297l7.888600000000224,3.14010000000053Z"/><path class="uuid-8cd77d78-d13b-4668-bae1-a37f9313c3df" d="M197.623671613320766,281.631299999999101l-2.640599933291014,3.510800000000017c-10.179699742839148-3-18.441399534129232-7.039600000000064-24.779299374019502-12.120100000000093-5.462899862000086,4.460399999999936-14.040999645299962,8.580500000000029-25.74217912002041,12.360800000000381l-2.939420155429616-3.570299999999406c11.320299714030625-3.139699999999721,19.880799497770568-6.949699999999211,25.681599351230034-11.430200000000696-5.820299852959579-5.5-9.732399754139806-12.189899999999398-11.730499703659916-20.070299999999406-1.079999972719634,2.77980000000025-2.562499935270353,5.41990000000078-4.441399887799889,7.91990000000078l-3.177699919730003-2.909200000001874c2.519499936359352-3.001399999999194,4.546899885139283-6.29149999999936,6.087899846210348-9.870999999999185h-10.320299739290931v-3.68999999999869h24.062499392130121v-10.260200000000623h3.869099902260132v10.200199999999313h24.480499381570553v3.689399999999296h-10.261699740760378c-1.798899954559602,10.44090000000142-5.937499850009772,18.75-12.419999686249866,24.930200000000696,5.900420959520488,4.480900000000474,13.990299646579842,8.251399999999194,24.271499386850337,11.309999999999491ZM181.752593185990918,245.391099999998914h-23.218720585180563c1.59759995963941,9.260700000000725,5.50779986085945,16.710000000000946,11.728499703720445,22.35109999999986,6.080099846400117-5.66019999999844,9.910220881460191-13.110899999999674,11.490220881460118-22.35109999999986Z"/><path class="uuid-8cd77d78-d13b-4668-bae1-a37f9313c3df" d="M341.644792562530711,274.641099999998914h-24.152299389859763v4.171400000001086c0,4.459499999999025-2.369199940150793,6.690399999999499-7.10939982040054,6.690399999999499h-3.990199899199979l-1.468799962900448-3.690399999999499h5.578122181280378c1.96100000000024,0,2.941477603500061-.900400000000445,2.941477603500061-2.699699999999211v-4.471700000001874h-26.339899334599977v-3.75h26.339899334599977v-2.579099999999016c4.179599894409876-1.559600000000501,7.169899818869453-3.020000000000437,8.968699773429762-4.380900000000111h-22.980499419460102v-3.45010000000002h29.640699251210208v3.270000000000437c-3.119199921199652,2.121099999998478-6.980499823660466,4.290999999999258-11.58009970745934,6.510700000000725v.629399999997986h24.152299389859763v3.75ZM339.125292626180453,263.511700000000928h-3.601599909019569v-6.209500000000844h-41.912098941210388v6.569400000000314h-3.929699900730157v-10.079600000000937h5.160199869640564v-18.300800000000891c2.839799928269713-.278800000000047,5.951199849660043-1.629899999999907,9.331999764259308-4.049799999998868l1.978499950020705,2.760299999999916c-1.818299954070426,1.680599999999686-4.300699891360637,2.95010000000002-7.441377787690726,3.81000000000131v2.519499999998516h7.681677781620238v3.120600000000195h-7.681677781620238v3.270599999999831h7.681677781620238v3.058600000000297h-7.681677781620238v3.810999999999694h31.89257716999964v-3.810999999999694h-7.322299815019505v-3h7.322299815019505v-3.509299999999712h-7.259799816599298v-3.060100000000602h7.259799816599298v-3.270500000000538h-8.490199785519508v-3.629399999997986h12.298799689299813v20.22019999999975h4.712899880950317v9.77980000000025ZM322.113593055930323,240.231900000000678l-2.101599946910028,2.578599999998914c-1.138699971229471-1.099599999999555-2.689399932060041-2.288500000000568-4.648399882570629-3.569300000001022-1.621099959049388,1.359900000001289-3.441377554999235,2.609900000001289-5.460999862048993,3.75l-2.458899937880233-2.159199999998236c1.939399951009364-.800800000000891,3.638599908080323-1.740200000000186,5.09959987117054-2.820299999999406-2.441399938320501-.91990000000078-4.412077626240716-1.56000000000131-5.910199850690333-1.920900000000984l1.531299961319746-2.760200000000623c2.218699943950014.560499999999593,4.449199887600116,1.280699999999342,6.689399831009723,2.160599999999249,1.419899964130309-1.338399999998728,2.609422432120482-2.709999999999127,3.568422432120315-4.11029999999846l2.521477414030414,2.010199999998804c-.80079997977009,1.239800000001196-1.841799953470399,2.451200000001336-3.119199921200561,3.630900000000111,1.478499962649948.838800000001356,2.90819992652996,1.909100000000763,4.289099891650039,3.209900000001653ZM322.472993046850206,251.151799999999639l-2.51959993635046,1.979499999999462c-1.619099959099913-1.240200000000186-3.300799916609321-2.270000000000437-5.040999872649991-3.089799999997922-1.080099972719836.819799999997485-2.999999924219082,1.849599999997736-5.759799854498851,3.089799999997922l-2.281199942370222-1.800699999999779c2.581999934769556-1.219300000000658,4.431599888050187-2.278800000000047,5.550822230469748-3.178799999999683-1.119222342419562-.70010000000002-2.820322299449799-1.479400000000169-5.099622241869838-2.339799999999741l2.249999943160219-1.891100000000733c2.060499947949211.740700000000288,3.820299903489285,1.511200000000827,5.281199866589304,2.311000000001513.560599985830777-.320300000001225,1.68949995731964-1.27980000000025,3.3886999143906-2.880800000000818l2.759722517729642,1.410600000001068c-1.019522561689882,1.319799999999304-2.158222532919353,2.410699999998542-3.417922501100293,3.269499999998516,1.658199958110345.759799999999814,3.287099916960869,1.799399999999878,4.888699876500141,3.120600000000195Z"/><path class="uuid-8cd77d78-d13b-4668-bae1-a37f9313c3df" d="M444.008664564090395,251.901400000000649c4.040999897909387,4.539999999999054,6.062499846849278,8.970699999998033,6.062499846849278,13.290499999999156,0,2.100099999999657-.544899986239216,3.770499999998719-1.636676219609399,5.009799999999814-1.087923711559597,1.240700000000288-2.613323673030209,1.860800000000381-4.57422362349007,1.860800000000381-1.080099972719836,0-2.380899939859773-.131400000000212-3.900399901469427-.389699999999721l-1.109376475040335-3.991700000000492c2.140576448990032.542000000001281,3.679676410110005.811600000000908,4.619076386379675.811600000000908.779299980309588,0,1.490299962350036-.300800000000891,2.130923613620325-.900900000000547.640576316360239-.599099999999453.96087630826969-1.399400000000242.96087630826969-2.399900000000343,0-1.499499999999898-.550699986089967-3.419399999998859-1.650399958310118-5.760800000000017-1.101476349959739-2.339299999999639-2.75189993047934-4.569800000001123-4.951099874919237-6.688900000001013l5.851499852179586-15.031299999998737h-8.910099774910123v47.791999999999462h-3.931699900679632v-51.60149999999885h16.830099574829546v3.809499999999389l-5.790999853699759,14.190500000000611ZM485.381763518920707,274.492700000000696c-.521499986830349,3.239699999998265-1.220799969159998,5.590299999999843-2.101599946910937,7.049299999998766-.878899977798937,1.460399999999936-2.310599941629334,2.190399999999499-4.289099891650039,2.190399999999499h-4.679699881779015c-3.121099921159839,0-4.679599881790637-1.640599999998813-4.679599881790637-4.919899999998961v-15.870100000000093h-6.332099840030423c-.119099996999466,6.439899999999398-1.374999965269126,11.264100000000326-3.763699904919122,14.475099999999657-2.390599939610183,3.209400000001551-6.824199827609846,5.90519999999924-13.306599663850648,8.085399999999936l-2.519499936349348-3.451100000000224c6.019499847930092-1.779299999998329,10.150399743580238-4.08009999999922,12.390623619689904-6.899999999999636,2.240176010700452-2.819799999999304,3.36907598218022-6.870100000000093,3.390575981639813-12.149400000000242h-8.220699792330379v-3.931099999999788h32.132799188260833v3.871100000000297h-10.023399746790346v14.940399999999499c0,.499499999999898.160199995950279.964900000000853.48049998786064,1.394500000000335.320299991909451.430700000000797.701099982288724.645099999999729,1.140599971189658.645099999999729h3.810499903739583c.779299980310498,0,1.374999965260031-.640699999999924,1.785199954900236-1.920000000000073.40819998968982-1.279299999998329.753924551529963-2.939899999999398,1.035199973849558-4.980400000000373l3.74999990527067,1.470700000001671ZM481.930563606099895,247.281199999999444l-3.8085999037894.061100000000806v-5.281800000000658h-22.621099428540219v5.281800000000658h-3.871099902209608v-9.091300000000047h13.169899667300342v-6.809600000000501h3.931699900678723v6.750500000000102h13.199199666560162v9.089299999999639ZM476.891488191329699,253.07129999999961h-20.281223945588863v-3.930200000000696h20.281223945588863v3.930200000000696Z"/><path class="uuid-8cd77d78-d13b-4668-bae1-a37f9313c3df" d="M631.248497528100415,274.641099999998914h-24.152299999999741v4.171400000001086c0,4.459499999999025-2.371100000000297,6.690399999999499-7.109400000000278,6.690399999999499h-3.990199999990182l-1.470700000009856-3.690399999999499h5.58010000000013c1.960900000000038,0,2.941399999999703-.900400000000445,2.941399999999703-2.699699999999211v-4.471700000001874h-26.341824835330044v-3.75h26.341824835330044v-2.579099999999016c4.179700000000594-1.559600000000501,7.16990000000078-3.020000000000437,8.968700000000354-4.380900000000111h-22.980525146810578v-3.45010000000002h29.640725146809928v3.270000000000437c-3.119199999999182,2.121099999998478-6.980499999999665,4.290999999999258-11.58009999999922,6.510700000000725v.629399999997986h24.152299999999741v3.75ZM628.727097528100785,263.511700000000928h-3.599700000000666v-6.209500000000844h-41.91012499982935v6.569400000000314h-3.931699900680542v-10.079600000000937h5.16219986959004v-18.300800000000891c2.837799928320237-.278800000000047,5.949199849710567-1.629899999999907,9.328125030920091-4.049799999998868l1.980500000000575,2.760299999999916c-1.820400000000518,1.680599999999686-4.298925208000583,2.95010000000002-7.439525128660534,3.81000000000131v2.519499999998516h7.679725128669816v3.120600000000195h-7.679725128669816v3.270599999999831h7.679725128669816v3.058600000000297h-7.679725128669816v3.810999999999694h31.890625128659849v-3.810999999999694h-7.320300000000316v-3h7.320300000000316v-3.509299999999712h-7.259699999999611v-3.060100000000602h7.259699999999611v-3.270500000000538h-8.490199999999277v-3.629399999997986h12.298799999999574v20.22019999999975h4.71100000000024v9.77980000000025ZM611.717297528100971,240.231900000000678l-2.101599999999962,2.578599999998914c-1.140600000000632-1.099599999999555-2.689400000001115-2.288500000000568-4.650400000000445-3.569300000001022-1.619099999999889,1.359900000001289-3.439400000000205,2.609900000001289-5.45889999999963,3.75l-2.46100000000115-2.159199999998236c1.941400000000613-.800800000000891,3.642600000001039-1.740200000000186,5.101599999999962-2.820299999999406-2.441399999999703-.91990000000078-4.41019999999935-1.56000000000131-5.91019999999935-1.920900000000984l1.529300000000148-2.760200000000623c2.220699999999852.560499999999593,4.451200000000426,1.280699999999342,6.689499999999498,2.160599999999249,1.41990000000078-1.338399999998728,2.611300000000483-2.709999999999127,3.572200000000521-4.11029999999846l2.519599999999627,2.010199999998804c-.800799999989977,1.239800000001196-1.841800000000148,2.451200000001336-3.121100000000297,3.630900000000111,1.480400000000373.838800000001356,2.910100000000966,1.909100000000763,4.291000000001077,3.209900000001653ZM612.07669752810034,251.151799999999639l-2.519599999999627,1.979499999999462c-1.621100000000297-1.240200000000186-3.300699999999779-2.270000000000437-5.039000000000669-3.089799999997922-1.082099999999627.819799999997485-3,1.849599999997736-5.761699999999109,3.089799999997922l-2.279300000000148-1.800699999999779c2.579999999999927-1.219300000000658,4.429599999999482-2.278800000000047,5.550699999999779-3.178799999999683-1.121100000000297-.70010000000002-2.822200000000521-1.479400000000169-5.101500000000669-2.339799999999741l2.25-1.891100000000733c2.060500000000502.740700000000288,3.82030000001032,1.511200000000827,5.279300000000148,2.311000000001513.560500000000502-.320300000001225,1.689400000000205-1.27980000000025,3.390600000000632-2.880800000000818l2.759799999999814,1.410600000001068c-1.019599999999627,1.319799999999304-2.160200000000259,2.410699999998542-3.420000000000073,3.269499999998516,1.660200000000259.759799999999814,3.29110000000037,1.799399999999878,4.890699999999924,3.120600000000195Z"/><path class="uuid-8cd77d78-d13b-4668-bae1-a37f9313c3df" d="M776.243256039930202,282.502399999999398h-54.599599999999555v-3.869599999999991h25.439399999999296v-14.070799999999508h-18.329999999999927v-3.870100000000093h18.329999999999927v-12.240200000000186h-13.589799999999741c-1.640599999999722,4.259200000000419-4.380900000000111,8.189399999999296-8.220699999999852,11.789499999998952l-3.958999999989828-2.070299999999406c6.558600000000297-6.059600000000501,10.208999999989828-13.47899999999936,10.949199999990014-22.259299999999712l4.050800000009986,1.16990000000078c-.160200000020268,2.040100000000166-.630900000020119,4.559599999998682-1.412100000010469,7.559599999998682h12.123000000000502v-13.139599999998609h4.048899999989771v13.079999999999927h21.179700000009689v3.870199999999386h-21.179700000009689v12.179599999999482h18.060499999999593v3.870200000001205h-18.060499999999593v14.071199999998498h25.169900000009875v3.929700000000594Z"/><path class="uuid-8cd77d78-d13b-4668-bae1-a37f9313c3df" d="M921.659826969430469,245.330599999999322l-2.158200000000761,3.121100000000297c-6.820299999999406-1.679700000000594-12.162099999999555-3.619699999999284-16.021499999998923-5.820400000000518v2.699300000000221h-20.281200000000354v-2.969300000000658c-5.83980000000065,3.02100000000064-11.08010000000013,4.989800000001196-15.718799999999646,5.910700000000361l-1.980400000000373-3.150399999998626c11.240200000000186-2.740700000000288,20.599599999999555-7.320800000001327,28.08010000000013-13.740700000000288l3.689400000000205,1.230399999998554c-.400400000000445.5-.75.85109999999986-1.048800000000483,1.050300000000789,6.638699999999517,5.519500000000335,15.121100000000297,9.409700000000157,25.439400000000205,11.668999999999869ZM915.271226969430245,262.522500000000946h-43.560599999999795v-14.070800000001327h43.560599999999795v14.070800000001327ZM911.700826969430636,285.561999999999898h-3.691399999999703v-2.399900000000343h-28.980400000000373v2.399900000000343h-3.689500000000407v-19.889600000000428h36.361300000000483v19.889600000000428ZM891.689126969429708,259.281199999999444v-7.5h-16.28899999999885v7.5h16.28899999999885ZM908.009426969430933,272.84230000000025v-3.870600000000195h-28.980400000000373v3.870600000000195h28.980400000000373ZM908.009426969430933,279.92239999999947v-3.929699999998775h-28.980400000000373v3.929699999998775h28.980400000000373ZM887.698926969430431,256.311999999999898l-3.08980000000065,2.159700000000157c-1.859399999999368-1.87840000000142-3.679699999998775-3.269599999999627-5.458999999998923-4.169499999999971l3.119099999999889-1.799800000000687c2.121099999999387.899000000001251,3.929699999999684,2.170000000000073,5.429699999999684,3.809600000000501ZM902.249726969430412,242.002399999999398c-2.900400000000445-1.520000000000437-5.709000000000742-3.57129999999961-8.429700000000594-6.152299999999741-2.902399999999034,2.400900000000547-6.150399999999536,4.452100000000428-9.75,6.152299999999741h18.179700000000594ZM911.579826969430542,259.281199999999444v-7.5h-16.199300000000221v7.5h16.199300000000221ZM907.950826969430636,253.551799999999275c-1.181599999999889,1.879300000000512-2.960900000000038,3.479400000000169-5.341700000000856,4.799300000000585l-3.298899999999776-1.648999999999432c2.619200000001001-1.480400000000373,4.41990000000078-2.960900000001857,5.400400000000445-4.440399999999499l3.240200000000186,1.290099999998347Z"/></g></svg>