<?xml version="1.0" encoding="UTF-8"?><svg id="uuid-130601b1-1260-42cf-8eca-3d551f1f730a" xmlns="http://www.w3.org/2000/svg" width="568.76906812461209mm" height="250.004011800871723mm" xmlns:xlink="http://www.w3.org/1999/xlink" viewBox="0 0 1612.25879999999961 708.67279999999937"><defs><style>.uuid-46ef6273-b4e6-4dd8-bbe1-57dfc1a07e5c{fill:#00c2f3;}.uuid-5167cb8e-d962-41e9-aaf0-54d86d235ed8{clip-path:url(#uuid-23cc6b83-3892-4556-bc79-4c1c57f2cbb6);}.uuid-815d3b55-8df4-418b-a450-954d36b16326{fill:#fff;}.uuid-62c4bec1-bfdf-4670-8f9c-ada0318d9a4e{fill:none;}.uuid-7776d513-a874-4dc7-87d2-4db41a6beb07{fill:#333e48;}</style><clipPath id="uuid-23cc6b83-3892-4556-bc79-4c1c57f2cbb6"><rect class="uuid-62c4bec1-bfdf-4670-8f9c-ada0318d9a4e" y=".000999999999294" width="1612.25879999999961" height="708.671800000000076"/></clipPath></defs><g class="uuid-5167cb8e-d962-41e9-aaf0-54d86d235ed8"><path class="uuid-815d3b55-8df4-418b-a450-954d36b16326" d="M158.441399999999703,271.573199999998906c-9.105499999999665,21.527400000000853-14.519499999998516,44.144600000000537-16.169899999998961,67.425800000000891,3.587900000000445-2.921900000000278,8.159200000000055-4.679700000000594,13.136699999999109-4.679700000000594,5.495100000000093,0,10.488300000000891,2.154300000000148,14.216800000000148,5.636700000000019,7.337900000000445-95.591799999999239,87.224600000001374-170.871000000000095,184.701199999999517-170.871000000000095,7.552700000000186,0,13.674800000000687-6.123099999999795,13.674800000000687-13.675799999999072,0-7.552800000001298-6.122100000000501-13.675800000000891-13.674800000000687-13.675800000000891-28.689499999998588,0-56.536199999998644,5.625-82.765699999999924,16.718700000000354-25.318299999998999,10.708999999999833-48.052699999998367,26.033199999999852-67.567299999998795,45.548899999999776-19.518599999999424,19.517499999999927-34.84480000000076,42.251900000000205-45.551800000001094,67.572199999999611Z"/><path class="uuid-815d3b55-8df4-418b-a450-954d36b16326" d="M339.185499999999593,538.969699999999648c-94.954999999998108-7.681599999999889-169.671800000000076-86.962900000000445-170.10149999999885-183.796900000000278,0-7.550699999999779-6.120100000000093-13.675699999999779-13.675800000000891-13.675699999999779-7.552699999998367,0-13.675799999999072,6.125-13.675799999999072,13.675699999999779.109399999999368,28.394600000000537,5.722700000000259,55.95510000000013,16.708999999998923,81.927800000000389,10.707000000000335,25.318299999998999,26.033200000001671,48.052700000000186,45.551800000001094,67.568299999998999,19.514600000000428,19.517600000001039,42.248999999999796,34.843800000000556,67.567299999998795,45.552800000001298,21.255900000000111,8.990199999999277,43.573300000000017,14.386699999999109,66.539100000001781,16.111299999999574-2.886700000000928-3.58010000000013-4.627000000000407-8.123000000000502-4.627000000000407-13.068400000000111,0-5.533200000000761,2.183600000000297-10.556599999999889,5.712899999998626-14.29489999999987Z"/><path class="uuid-815d3b55-8df4-418b-a450-954d36b16326" d="M502.52730000000156,487.413099999999758c-2.66990000000078-2.671900000000278-6.16990000000078-4.005900000000111-9.66990000000078-4.005900000000111-3.497999999999593,0-7,1.333999999999833-9.671900000001187,4.005900000000111-33.341799999998329,32.290999999999258-78.775399999998626,52.175799999999072-128.859300000000076,52.175799999999072-7.552799999999479,0-13.675799999999072,6.123000000000502-13.675799999999072,13.675700000000688,0,7.552800000000389,6.122999999999593,13.675799999999981,13.675799999999072,13.675799999999981,28.690400000001318,0,56.535100000000966-5.625,82.763600000002043-16.718699999999444,24.408199999998033-10.320300000001225,46.40139999999883-24.947300000000723,65.4375-43.468800000000556,5.343799999998737-5.339799999999741,5.343799999998737-13.997999999999593,0-19.339799999999741Z"/><path class="uuid-815d3b55-8df4-418b-a450-954d36b16326" d="M354.326199999999517,566.940399999999499c-7.552799999999479,0-13.675799999999072-6.122999999999593-13.675799999999072-13.675799999999981,0-7.552700000000186,6.122999999999593-13.675700000000688,13.675799999999072-13.675700000000688,50.083900000001449,0,95.517500000001746-19.884799999999814,128.859300000000076-52.175799999999072,2.671900000001187-2.671900000000278,6.173900000001595-4.005900000000111,9.671900000001187-4.005900000000111,3.5,0,7,1.333999999999833,9.66990000000078,4.005900000000111,5.343799999998737,5.341800000000148,5.343799999998737,14,0,19.339799999999741-19.03610000000117,18.521499999999833-41.029300000001967,33.148499999999331-65.4375,43.468800000000556-26.228500000001077,11.093699999999444-54.073200000000725,16.718699999999444-82.763600000002043,16.718699999999444ZM271.560499999999593,550.221700000000055c-25.318299999998999-10.709000000000742-48.052699999998367-26.035200000000259-67.567299999998795-45.552800000001298-19.518599999999424-19.515599999998813-34.84480000000076-42.25-45.551800000001094-67.568299999998999-10.986299999998664-25.972700000000259-16.599599999999555-53.533199999999852-16.708999999998923-81.927800000000389,0-7.550699999999779,6.123100000000704-13.675699999999779,13.675799999999072-13.675699999999779,7.555700000000797,0,13.675800000000891,6.125,13.675800000000891,13.675699999999779.429699999998775,96.833999999999833,75.146500000000742,176.115300000000389,170.10149999999885,183.796900000000278-3.529299999998329,3.738299999999981-5.712899999998626,8.761699999999109-5.712899999998626,14.29489999999987,0,4.945399999999609,1.740299999999479,9.488299999999981,4.627000000000407,13.068400000000111-22.965800000001764-1.724600000000464-45.283200000001671-7.121100000000297-66.539100000001781-16.111299999999574ZM354.326199999999517,141.733399999999165c7.552700000000186,0,13.674800000000687,6.122999999999593,13.674800000000687,13.675800000000891,0,7.552699999999277-6.122100000000501,13.675799999999072-13.674800000000687,13.675799999999072-97.476599999998143,0-177.363299999999072,75.279200000000856-184.701199999999517,170.871000000000095-3.728499999999258-3.48239999999987-8.721700000000055-5.636700000000019-14.216800000000148-5.636700000000019-4.977499999999054,0-9.548799999998664,1.757800000000316-13.136699999999109,4.679700000000594,1.650400000000445-23.281200000000354,7.064399999999296-45.898400000000038,16.169899999998961-67.425800000000891,10.707000000000335-25.320299999999406,26.033200000001671-48.054699999999684,45.551800000001094-67.572199999999611,19.514600000000428-19.515699999999924,42.248999999999796-34.839899999999943,67.567299999998795-45.548899999999776,26.229500000001281-11.093700000000354,54.076200000001336-16.718700000000354,82.765699999999924-16.718700000000354Z"/><path class="uuid-815d3b55-8df4-418b-a450-954d36b16326" d="M466.912100000001374,241.750999999999294c-30.070300000001225-30.072299999999814-70.054700000000594-46.632800000000316-112.585900000001857-46.632800000000316-42.527399999999034,0-82.512699999999313,16.560500000000502-112.583999999998923,46.632800000000316-30.072299999999814,30.072199999999611-46.636699999999109,70.056600000000799-46.636699999999109,112.585900000000038,0,42.529300000000148,16.564399999999296,82.511700000000019,46.636699999999109,112.585900000000038,30.07129999999961,30.070399999999609,70.056599999999889,46.634800000000723,112.583999999998923,46.634800000000723,42.531200000001263,0,82.515600000000632-16.564400000001115,112.585900000001857-46.634800000000723,30.073199999998906-30.074200000000019,46.632799999999406-70.056599999999889,46.632799999999406-112.585900000000038,0-42.529299999999239-16.559600000000501-82.513700000000426-46.632799999999406-112.585900000000038Z"/><path class="uuid-7776d513-a874-4dc7-87d2-4db41a6beb07" d="M242.115200000000186,405.827099999999518v-102.978500000000167h22.334000000000742v7.611399999999776h-12.944300000001022v87.753899999999703h12.944300000001022v7.613200000000688h-22.334000000000742Z"/><path class="uuid-7776d513-a874-4dc7-87d2-4db41a6beb07" d="M466.537100000001374,302.848599999999351v102.978500000000167h-22.328100000000632v-7.613200000000688h12.938500000000204v-87.753899999999703h-12.938500000000204v-7.611399999999776h22.328100000000632Z"/><path class="uuid-46ef6273-b4e6-4dd8-bbe1-57dfc1a07e5c" d="M293.986300000000483,375.256799999999203c0,2.056700000000092.032199999999648,4.484400000000278.095699999999852,7.271500000000742.0625,2.789099999999962.150400000000445,5.623099999998885.259799999999814,8.496099999999387.105499999999665,2.875.233400000000984,5.623099999999795.386700000000928,8.240200000000186.146499999998923,2.617199999999684.33009999999922,4.804699999999684.544899999998961,6.5625h-13.193299999998999v-72.730399999999463c0-6.263700000000426-.107500000000073-11.9375-.322299999999814-17.02350000000115-.212900000000445-5.085900000000038-.535200000000259-9.494099999999889-.966800000000148-13.224599999999555h13.195299999999406v72.408199999999852Z"/><path class="uuid-46ef6273-b4e6-4dd8-bbe1-57dfc1a07e5c" d="M351.592800000000352,340.176699999999983v8.433599999999387h-12.100599999999758v48.787199999999757h12.100599999999758v8.431599999999889h-36.041999999999462v-8.431599999999889h11.906199999999444v-48.787199999999757h-11.906199999999444v-8.433599999999387h36.041999999999462Z"/><path class="uuid-46ef6273-b4e6-4dd8-bbe1-57dfc1a07e5c" d="M378.626900000001115,340.176699999999983c.255900000000111.6875.513699999999517,1.576199999999517.771499999998923,2.673899999999776.259799999999814,1.093699999999444.492200000000594,2.240200000000186.709000000000742,3.441399999999703.210900000000038,1.201199999999517.404300000000148,2.382799999999406.58009999999922,3.541000000000167l.511700000000928,2.89260000000013c4.121100000000297-4.890600000000632,8.259799999999814-8.417999999999665,12.421899999999368-10.58600000000024,4.164000000000669-2.166000000000167,8.5-3.25,13.002899999999499-3.25,3.433600000000297,0,6.469700000001467.568400000000111,9.10740000000078,1.70510000000013,2.639699999999721,1.140599999999722,4.860399999999572,2.941399999999703,6.663099999999758,5.406299999999646,1.799800000000687,2.468700000000354,3.162099999999555,5.667899999999463,4.087900000000445,9.591800000000148.921899999999368,3.927700000000186,1.382799999999406,8.654300000000148,1.382799999999406,14.193299999999908v28.96100000000024c0,7.251900000000205-.634699999998702,13.273400000000038-1.900399999998626,18.054600000000391-1.263600000002043,4.787199999998847-3.037100000001374,8.60359999999946-5.308600000000297,11.460999999999331-2.273400000000038,2.849599999999555-5.011700000000928,4.867200000000594-8.207000000000335,6.046900000000278-3.197299999999814,1.179600000000391-6.748000000001412,1.77139999999963-10.652299999999741,1.77139999999963-1.930700000000797,0-4.001000000000204-.3125-6.21100000000115-.933500000000095-2.208999999998923-.625-4.214799999999741-1.492199999999684-6.01759999999922-2.607500000000073l4.183600000000297-9.656199999999444c.986399999999776.730400000000373,2.305699999998978,1.341800000000148,3.958999999998923,1.835900000000038,1.650400000000445.492199999999684,3.33600000000115.738299999999981,5.048899999999776.738299999999981,2.0625,0,3.908200000001671-.33010000000013,5.540000000000873-.996100000000297,1.629899999999907-.664099999999962,3.011699999999109-1.831999999999425,4.149400000000242-3.505900000000111,1.136699999999109-1.675699999999779,2.005900000000111-3.970699999999852,2.607399999998961-6.888599999999315.599600000001374-2.918000000000575.900400000000445-6.630900000000111.900400000000445-11.134799999999814v-28.320300000001225c0-5.148400000000038-.26759999999922-9.322299999999814-.804699999998775-12.519499999999425-.535100000000966-3.195300000000316-1.342700000001059-5.685599999999795-2.415000000000873-7.464899999999943-1.07129999999961-1.781199999999444-2.413099999999758-2.972600000000057-4.024400000000242-3.576199999999517-1.605499999999665-.597600000000966-3.483399999999165-.898400000000038-5.628899999999703-.898400000000038-2.316399999999703,0-4.578199999999924.546899999999368-6.788099999999758,1.644499999999425-2.210000000000946,1.091800000000148-4.24120000000039,2.507899999999609-6.086900000000242,4.246099999999387-1.843800000000556,1.736400000000685-3.473700000000463,3.697300000000723-4.888699999999517,5.888700000001336-1.415000000000873,2.189499999999498-2.468700000001263,4.375-3.156200000001263,6.564499999999498v37.331999999999425h-11.906299999998737v-39.583999999998923c0-6.349600000000464-.365200000000186-11.724600000000464-1.095699999999852-16.123000000000502-.726600000001781-4.39850000000024-1.4375-7.714899999999943-2.123000000001412-9.945399999999609h11.587800000001153Z"/><path class="uuid-815d3b55-8df4-418b-a450-954d36b16326" d="M732.145716285231174,379.633199999999306h-54.992198610780179v-9.128899999999703h54.992198610780179v9.128899999999703ZM724.989416466019975,476.839799999999741h-9.421289496589452v-10.005900000000111h-21.983000000000175v10.005900000000111h-9.566809468400606v-49.370600000000195h40.971098964990233v49.370600000000195ZM724.551016477089433,398.475999999998749l-40.386798979739979.145500000000538v-9.127899999999499h40.386798979739979v8.982399999998961ZM724.697016473401163,417.61029999999937h-40.532798976051708v-9.129899999999907h40.532798976051708v9.129899999999907ZM722.871316519520406,361.08389999999963l-37.100099062770823.145499999999629v-9.127900000000409h37.100099062770823v8.98240000000078ZM715.568126969430523,457.849999999999454v-21.396900000000642h-22.128509706401019v21.396900000000642h22.128509706401019ZM809.925014320360788,417.756299999999101l-78.947298005619814.14600000000064v-8.98240000000078h19.572299505558476l4.236299892982061-22.566399999999703h-18.257799538770996v-8.983899999999267h19.718799501870308l3.140599920659952-16.724100000000362h-27.97169929338088v-9.128999999999905h72.520498167979895v8.983399999999165h-34.690399123648604l-2.994188378550461,16.724700000000666h30.088887694080768l-3.140599920661771,31.547800000000279h16.724599577501067v8.983899999999267ZM797.218014641370246,477.131799999999203h-9.421887671929653v-9.85989999999947h-36.953111156539308v9.85989999999947h-9.568399758281885v-49.516099999999824h55.943398586750845v49.516099999999824ZM787.796126969440593,458.287999999999556v-21.689900000000307h-37.099611152840225v21.689900000000307h37.099611152840225ZM786.335126969430348,386.206999999999425h-21.68941150522005l-4.236299892980242,22.712899999999536h23.662099402250533l2.263611995949759-22.712899999999536Z"/><path class="uuid-815d3b55-8df4-418b-a450-954d36b16326" d="M974.596910160400512,379.633199999999306h-132.771496645909792v-9.128899999999703h132.771496645909792v9.128899999999703ZM955.024610654840217,398.329499999999825h-94.94139760158032v-8.835900000000038h94.94139760158032v8.835900000000038ZM955.024610654840217,417.318299999998999h-94.94139760158032v-8.837899999999536h94.94139760158032v8.837899999999536ZM951.593010741529724,477.131799999999203h-9.421883772089132v-10.297899999999572h-68.503914259339581v10.297899999999572h-9.420899762011686v-49.662599999999657h87.346697793440399v49.662599999999657ZM951.446510745230626,360.134699999999611l-86.47069781557002.218799999999646v-8.836999999999534h86.47069781557002v8.618199999999888ZM942.171126969440593,457.849999999999454v-21.396900000000642h-68.503914259339581v21.396900000000642h68.503914259339581Z"/><path class="uuid-815d3b55-8df4-418b-a450-954d36b16326" d="M1139.270706000390419,450.694299999999203h-58.790998514808962v10.150900000000547c0,10.856399999999667-5.769580516151109,16.286599999999453-17.310580516150367,16.286599999999453h-9.712918801180422l-3.578081198820655-8.983399999999165h13.584000000000742c4.77148082550957,0,7.158180765220095-2.191900000000714,7.158180765220095-6.572799999999916v-10.88130000000092h-64.122998380120407v-9.129899999999907h64.122998380120407v-6.280800000000454c10.17381923478024-3.797299999999268,17.453099559090333-7.350099999999657,21.835899448369673-10.662099999999555h-55.943298586749734v-8.399900000000343h72.158218373169802v7.961900000000242c-7.597720004099756,5.161200000000463-16.994219766731476,10.442900000000009-28.191419483859136,15.847200000000157v1.533699999999953h58.790998514808962v9.129899999999907ZM1133.135906155370321,423.598099999999249h-8.765599778558681v-15.117699999999786h-102.023397422681228v15.995100000000093h-9.568399758280066v-24.538100000000668h12.560617773578997v-44.550699999999779c6.912081734501044-.68119999999908,14.486281543160658-3.968299999999545,22.714781335291264-9.858399999999165l4.820299878230799,6.718699999999444c-4.433599888001481,4.089399999999841-10.470699735491507,7.182099999999991-18.113299542421373,9.274900000000343v6.134799999999814h18.695299527720636v7.595699999999852h-18.695299527720636v7.959899999999834h18.695299527720636v7.448800000000119h-18.695299527720636v9.276299999999537h77.632798038830515v-9.276299999999537h-17.820299549819538v-7.30370000000039h17.820299549819538v-8.543999999999869h-17.673799553520439v-7.448699999999008h17.673799553520439v-7.960500000001048h-20.667899477879473v-8.837399999999434h29.943319767950015v49.224199999999655h11.466779185939231v23.807099999999991ZM1091.725807201481075,366.926699999999983l-5.111399870880632,6.280299999999443c-2.777280361169687-2.676800000000185-6.550699834520856-5.574700000000121-11.320280361169353-8.690499999999702-3.943319253241498,3.311099999999897-8.375,6.353100000000268-13.292919017050735,9.128999999999905l-5.98829984871918-5.25880000000052c4.722599880698908-1.947299999999814,8.859399776189093-4.235899999999674,12.415999686338182-6.864799999999377-5.941399849898517-2.238800000000992-10.736299728769154-3.797300000000178-14.388699636509045-4.673300000000381l3.726599905859985-6.72019999999975c5.402318910080794,1.363199999999779,10.831999726360664,3.117199999999684,16.285099588611047,5.258299999999508,3.457099912659032-3.260299999999916,6.353599839489107-6.595699999999852,8.691499780428785-10.005400000000009l6.134719541039885,4.893500000000131c-1.949219646769052,3.019099999999526-4.480519582830311,5.964900000000853-7.595719504130102,8.837499999999636,3.601599909010474,2.043400000000474,7.08399982103947,4.64890000000014,10.443399736181163,7.814400000001115ZM1092.60080717936944,393.50919999999951l-6.132799845068803,4.820300000000316c-3.943399900381337-3.018000000000029-8.03519979702105-5.524900000000343-12.269599690051109-7.52100000000064-2.628899933579305,1.996100000000297-7.302699815509186,4.503000000000611-14.021499645779841,7.52100000000064l-5.550699859779343-4.381800000001022c6.279299841369721-2.968299999999545,10.783199727589817-5.551299999999173,13.511699658671205-7.740699999999379-2.728499931081387-1.703099999999722-6.865299826571572-3.603000000000065-12.415999686350915-5.697799999999916l5.476499861650154-4.599600000000464c5.013718996769967,1.802300000000287,9.298899765090027,3.676300000000992,12.853499675300554,5.622100000000501,1.361399965599048-.777399999999943,4.113299896089302-3.113800000000083,8.25199979152967-7.011199999999917l6.718699830269543,3.433099999999286c-2.48239993729112,3.214300000000549-5.255799867220048,5.868600000000697-8.324199789711201,7.96140000000014,4.040999897921211,1.850100000000566,8.007799797711414,4.38130000000092,11.902399699320085,7.594200000000455Z"/><path class="uuid-815d3b55-8df4-418b-a450-954d36b16326" d="M1303.796126969440593,450.694299999999203h-58.791000000010172v10.150900000000547c0,10.856399999999667-5.769623494359621,16.286599999999453-17.308623202859962,16.286599999999453h-9.712899754629689l-3.578099909609591-8.983399999999165h13.583899656838184c4.769599879509769,0,7.156299819211199-2.191900000000714,7.156299819211199-6.572799999999916v-10.88130000000092h-64.12109838015931v-9.129899999999907h64.12109838015931v-6.280800000000454c10.175799742939489-3.797299999999268,17.453099559099428-7.350099999999657,21.837899448330063-10.662099999999555h-55.943398586750845v-8.399900000000343h72.156298177180361v7.961900000000242c-7.595699808120116,5.161200000000463-16.994199570688579,10.442900000000009-28.191375647709719,15.847200000000157v1.533699999999953h58.791000000010172v9.129899999999907ZM1297.663301999060423,423.598099999999249h-8.767599778520889v-15.117699999999786h-102.023397422668495v15.995100000000093h-9.56639975833059v-24.538100000000668h12.560499682700538v-44.550699999999779c6.914099825329686-.68119999999908,14.484399634089641-3.968299999999545,22.712899426220247-9.858399999999165l4.82029987822898,6.718699999999444c-4.429699888100004,4.089399999999841-10.468699735540213,7.182099999999991-18.113299542419554,9.274900000000343v6.134799999999814h18.697299527670111v7.595699999999852h-18.697299527670111v7.959899999999834h18.697299527670111v7.448800000000119h-18.697299527670111v9.276299999999537h77.632822485160432v-9.276299999999537h-17.818323996201798v-7.30370000000039h17.818323996201798v-8.543999999999869h-17.673823999850356v-7.448699999999008h17.673823999850356v-7.960500000001048h-20.667923924220304v-8.837399999999434h29.943299243570436v49.224199999999655h11.4687997102792v23.807099999999991ZM1258.85270297948955,391.870999999999185l-6.654299831889148,6.084000000000742c-3.037099923280039-4.563500000000204-7.382799813500242-10.276300000000447-11.585899707321005-13.82470000000103-6.533199834959305,7.279300000000148-11.906299699217925,11.912100000000464-16.105499593139029,13.893100000001141l-6.583999833668713-5.528299999999945c4.949299874968347-2.354500000000371,10.316399739378539-6.752000000000407,16.107499593088505-13.203200000000834-6.583999833679627-4.10149999999976-11.275376637129739-6.637200000000121-14.076199644410735-7.605899999999565l5.744099854891829-5.940400000000409c2.333999941038201.922300000000178,6.718799830268836,3.315900000000511,13.165999667398864,7.189900000000307,1.9160999516007-3.135700000000725,3.406299913949624-6.568400000000111,4.480499886809412-10.302300000000287h-21.990199444479003v-8.638099999999213h11.788999702190267v-8.897000000000844h7.566423340469555v8.897000000000844h13.992176114910762v8.638099999999213h-2.769499930031088c-1.554676184880009,5.718299999999545-3.646499907890757,10.671400000000176-6.275399841470062,14.862799999999879,5.089899871409216,3.870200000000295,9.97459974802041,9.767100000000028,13.195299666649589,14.375Z"/><path class="uuid-815d3b55-8df4-418b-a450-954d36b16326" d="M1470.73162696943109,379.34269999999924l-5.257799999999406,7.594699999999648c-16.603500000001077-4.090299999999843-29.601500000000669-8.81289999999899-38.998000000001412-14.167899999999463v6.573199999999815h-49.371100000000297v-7.231899999999769c-14.216799999989234,7.353000000000065-26.972699999989345,12.149899999999434-38.269599999999627,14.388200000000325l-4.818300000000818-7.668000000000575c27.361300000000483-6.66989999999987,50.146500000000742-17.819800000000214,68.35740000000078-33.449700000000121l8.98240000000078,2.994599999999991c-.97459999999046,1.21730000000025-1.826100000002043,2.070300000000316-2.556599999999889,2.555200000000696,16.164099999998143,13.438500000000204,36.808600000009392,22.909200000000055,61.931599999999889,28.411599999999453ZM1455.175026969431201,421.188399999999092h-106.041000000001077v-34.251000000000204h106.041000000001077v34.251000000000204ZM1446.485526969430794,477.276799999999639h-8.98240000000078v-5.842800000000352h-70.548800000000483v5.842800000000352h-8.982399999998961v-48.420400000000882h88.513600000000224v48.420400000000882ZM1397.772626969430348,413.301199999999881v-18.257300000001123h-39.656199999999444v18.257300000001123h39.656199999999444ZM1437.503126969430014,446.311999999999898v-9.420500000000175h-70.548800000000483v9.420500000000175h70.548800000000483ZM1437.503126969430014,463.54779999999937v-9.568400000000111h-70.548800000000483v9.568400000000111h70.548800000000483ZM1388.059826969431015,406.070699999999306l-7.521500000000742,5.25880000000052c-4.527400000000853-4.575200000000223-8.959000000000742-7.959899999999834-13.292999999999665-10.150800000000345l7.595699999999852-4.382399999999507c5.160200000000259,2.190499999998792,9.566399999999703,5.283199999999852,13.218800000000556,9.274399999999332ZM1423.48162696943109,371.236299999999574c-7.060499999990498-3.700700000000325-13.90230000000156-8.691900000000714-20.523400000001857-14.973200000000361-7.060599999998885,5.84230000000025-14.970699999998033,10.833999999999833-23.734399999997549,14.973200000000361h44.257799999999406ZM1446.194526969440631,413.301199999999881v-18.257300000001123h-39.4375v18.257300000001123h39.4375ZM1437.35662696943109,399.351999999998952c-2.872999999990498,4.577100000000428-7.207000000000335,8.473100000001068-13,11.685500000000502l-8.033200000001671-4.016999999999825c6.378899999999703-3.602100000000064,10.759799999999814-7.206100000000333,13.144599999999627-10.808600000000297l7.888600000002043,3.14009999999962Z"/><path class="uuid-815d3b55-8df4-418b-a450-954d36b16326" d="M733.04479858275954,281.63760000000002l-2.640599933300109,3.510800000000017c-10.179699742839148-3-18.441399534129232-7.039600000000064-24.779299374018592-12.120100000000093-5.462899861990081,4.460399999999936-14.040999645290867,8.580500000000029-25.742179120010405,12.360799999999472l-2.939420155429616-3.570300000000316c11.320299714019711-3.139699999999721,19.880799497770568-6.949699999999211,25.681599351230034-11.430199999999786-5.820299852970493-5.5-9.732399754140715-12.189900000000307-11.730499703669921-20.070300000000316-1.079999972709629,2.77980000000025-2.562499935260348,5.41990000000078-4.441399887800799,7.91990000000078l-3.177699919719089-2.909200000000055c2.519499936350257-3.001400000000103,4.546899885130188-6.291500000000269,6.087899846208529-9.871000000000095h-10.320299739289112v-3.6899999999996h24.062499392130121v-10.260200000000623h3.869099902260132v10.200200000000223h24.480499381570553v3.689400000000205h-10.261699740771292c-1.798899954548688,10.440899999999601-5.937499850009772,18.75-12.419999686238953,24.930199999999786,5.900420959520488,4.480899999999565,13.990299646569838,8.251400000000103,24.271499386848518,11.3100000000004ZM717.173720155431511,245.397399999999834h-23.218720585180563c1.59759995963941,9.260699999998906,5.50779986085945,16.709999999999127,11.728499703709531,22.35109999999986,6.080099846400117-5.660200000000259,9.910220881469286-13.110899999999674,11.490220881471032-22.35109999999986Z"/><path class="uuid-815d3b55-8df4-418b-a450-954d36b16326" d="M877.065919531971304,274.647399999999834h-24.152299389870677v4.171399999999267c0,4.459500000000844-2.369199940139879,6.690400000000409-7.109399820399631,6.690400000000409h-3.990199899200888l-1.468799962889534-3.690400000000409h5.578122181279468c1.960999999999331,0,2.941477603500971-.900399999999536,2.941477603500971-2.699699999999211v-4.471700000000055h-26.339899334599977v-3.75h26.339899334599977v-2.579100000000835c4.179599894408966-1.559599999999591,7.169899818869453-3.019999999999527,8.968699773429762-4.380900000000111h-22.980499419471016v-3.45010000000002h29.640699251220212v3.270000000000437c-3.119199921209656,2.121100000000297-6.980499823659557,4.291000000000167-11.580099707469344,6.510700000000725v.629399999999805h24.152299389870677v3.75ZM874.546419595610132,263.518000000000029h-3.601599909010474v-6.209500000000844h-41.912098941209479v6.569400000000314h-3.929699900729247v-10.079600000000028h5.160199869638745v-18.300799999999981c2.839799928260618-.278800000000047,5.951199849660043-1.629899999999907,9.331999764261127-4.049800000000687l1.978499950009791,2.760300000000825c-1.818299954060421,1.680599999999686-4.300699891349723,2.950099999999111-7.441377787679812,3.8100000000004v2.519499999999425h7.681677781609324v3.120599999999286h-7.681677781609324v3.270600000000741h7.681677781609324v3.058599999999387h-7.681677781609324v3.811000000000604h31.892577169988726v-3.811000000000604h-7.322299815019505v-3h7.322299815019505v-3.509299999999712h-7.259799816598388v-3.060099999999693h7.259799816598388v-3.270499999999629h-8.490199785508594v-3.629399999999805h12.298799689298903v20.22019999999975h4.712899880940313v9.77980000000025ZM857.534720025370916,240.238199999999779l-2.101599946910937,2.578599999999824c-1.138699971239475-1.099600000000464-2.689399932060041-2.288499999999658-4.648399882580634-3.569300000000112-1.621099959038474,1.35989999999947-3.441377554989231,2.60989999999947-5.460999862039898,3.75l-2.458899937879323-2.159200000000055c1.939399950999359-.800799999999981,3.638599908081233-1.740200000000186,5.09959987116963-2.820299999999406-2.441399938319591-.91990000000078-4.412077626238897-1.5600000000004-5.910199850688514-1.920900000000984l1.531299961308832-2.760199999999713c2.218699943950924.560500000000502,4.44919988761103,1.280700000000252,6.689399831009723,2.160600000000159,1.419899964130309-1.338400000000547,2.609422432129577-2.710000000000036,3.568422432130319-4.110300000000279l2.521477414031324,2.010200000000623c-.80079997977009,1.239799999999377-1.841799953470399,2.451199999999517-3.119199921200561,3.630900000000111,1.478499962649948.838799999999537,2.908199926529051,1.909099999998944,4.289099891650039,3.209899999999834ZM857.894120016289889,251.15809999999874l-2.51959993634955,1.979500000001281c-1.619099959099913-1.240200000000186-3.300799916620235-2.270000000000437-5.040999872659086-3.08980000000065-1.080099972710741.819800000000214-2.999999924209988,1.849600000000464-5.759799854491575,3.08980000000065l-2.281199942368403-1.800700000000688c2.581999934769556-1.219299999999748,4.431599888039273-2.278800000000047,5.550822230468839-3.178800000000592-1.119222342429566-.700099999999111-2.820322299450709-1.479399999999259-5.099622241870748-2.339799999999741l2.249999943160219-1.891099999998914c2.06049994795103.740699999999379,3.820299903491104,1.511199999999008,5.281199866580209,2.310999999999694.560599985839872-.320300000000316,1.689499957321459-1.27980000000025,3.388699914399695-2.880800000000818l2.759722517730552,1.410600000001068c-1.019522561689882,1.319799999999304-2.158222532929358,2.410699999999451-3.417922501099383,3.269499999999425,1.658199958110345.759799999999814,3.28709991695905,1.799399999999878,4.888699876499231,3.120599999999286Z"/><path class="uuid-815d3b55-8df4-418b-a450-954d36b16326" d="M979.429791533519165,251.90769999999975c4.040999897921211,4.539999999999054,6.062499846852006,8.970699999999852,6.062499846852006,13.290499999999156,0,2.100100000000566-.54489998623103,3.770500000000538-1.636676219601213,5.009800000000723-1.087923711569601,1.240699999999379-2.613323673029299,1.860799999999472-4.574223623498256,1.860799999999472-1.080099972710741,0-2.380899939851588-.131400000000212-3.900399901460332-.389699999999721l-1.109376475040335-3.991700000000492c2.140576448990032.542000000000371,3.679676410098182.811600000000908,4.61907638637058.811600000000908.779299980318683,0,1.490299962359131-.300800000000891,2.13092361362942-.900900000000547.640576316360239-.599099999999453.96087630826878-1.399400000000242.96087630826878-2.399900000000343,0-1.499499999999898-.550699986088148-3.419399999998859-1.650399958309208-5.760800000000017-1.101476349960649-2.339299999999639-2.75189993047934-4.569799999999304-4.951099874919237-6.688899999999194l5.851499852167763-15.031300000000556h-8.910099774908304v47.792000000000371h-3.931699900669628v-51.60149999999976h16.830099574828637v3.809499999999389l-5.790999853710673,14.190500000000611ZM1020.802890488350386,274.498999999999796c-.521499986820345,3.239700000000084-1.220799969159998,5.590299999999843-2.101599946909118,7.049299999999675-.878899977789843,1.460399999999936-2.310599941631153,2.190400000000409-4.289099891651858,2.190400000000409h-4.679699881779015c-3.121099921148925,0-4.679599881779723-1.640600000000632-4.679599881779723-4.91990000000078v-15.870100000000093h-6.332099840039518c-.119099996991281,6.439900000000307-1.37499996526094,11.264100000000326-3.763699904920941,14.475100000000566-2.390599939610183,3.209399999999732-6.824199827598932,5.90520000000015-13.306599663850648,8.085399999999936l-2.519499936348438-3.451100000000224c6.019499847938278-1.779299999999239,10.150399743579328-4.08010000000013,12.390623619699909-6.900000000000546,2.240176010698633-2.819799999999304,3.36907598218022-6.870099999999184,3.390575981638904-12.149399999999332h-8.220699792329469v-3.931099999999788h32.132799188260833v3.871099999999387h-10.023399746791256v14.940400000000409c0,.499499999999898.16019999594937.964899999999943.480499987861549,1.394499999999425.320299991908541.430700000000797.701099982288724.645100000000639,1.140599971189658.645100000000639h3.810499903729578c.779299980318683,0,1.374999965270035-.640699999999924,1.785199954909331-1.920000000000073.408199989678906-1.279300000000148.753924551530872-2.939900000000307,1.035199973850467-4.980399999999463l3.749999905259756,1.470699999999852ZM1017.351690575540488,247.287499999999454l-3.808599903790309.061099999999897v-5.281799999999748h-22.621099428541129v5.281799999999748h-3.871099902207789v-9.091300000000047h13.169899667300342v-6.809600000000501h3.931699900678723v6.750500000000102h13.199199666560162v9.089300000000549ZM1012.312615160761197,253.07759999999962h-20.281223945581587v-3.930199999999786h20.281223945581587v3.930199999999786Z"/><path class="uuid-815d3b55-8df4-418b-a450-954d36b16326" d="M1166.669624497539189,274.647399999999834h-24.152299999997922v4.171399999999267c0,4.459500000000844-2.371100000000297,6.690400000000409-7.109400000001187,6.690400000000409h-3.990200000000186l-1.470699999999852-3.690400000000409h5.580100000001039c1.960899999998219,0,2.941399999999703-.900399999999536,2.941399999999703-2.699699999999211v-4.471700000000055h-26.341824835340958v-3.75h26.341824835340958v-2.579100000000835c4.179700000000594-1.559599999999591,7.16990000000078-3.019999999999527,8.968699999999444-4.380900000000111h-22.980525146818763v-3.45010000000002h29.640725146819022v3.270000000000437c-3.119200000001001,2.121100000000297-6.980499999999665,4.291000000000167-11.58009999999922,6.510700000000725v.629399999999805h24.152299999997922v3.75ZM1164.148224497541378,263.518000000000029h-3.599700000000666v-6.209500000000844h-41.910124999840264v6.569400000000314h-3.931699900669628v-10.079600000000028h5.162199869588221v-18.300799999999981c2.837799928311142-.278800000000047,5.949199849710567-1.629899999999907,9.328125030921001-4.049800000000687l1.980499999999665,2.760300000000825c-1.820400000000518,1.680599999999686-4.298925208000583,2.950099999999111-7.439525128658715,3.8100000000004v2.519499999999425h7.679725128658902v3.120599999999286h-7.679725128658902v3.270600000000741h7.679725128658902v3.058599999999387h-7.679725128658902v3.811000000000604h31.890625128660758v-3.811000000000604h-7.320300000001225v-3h7.320300000001225v-3.509299999999712h-7.25970000000234v-3.060099999999693h7.25970000000234v-3.270499999999629h-8.490200000000186v-3.629399999999805h12.298799999998664v20.22019999999975h4.71100000000115v9.77980000000025ZM1147.138424497541564,240.238199999999779l-2.101600000001781,2.578599999999824c-1.140599999998813-1.099600000000464-2.689399999999296-2.288499999999658-4.650399999998626-3.569300000000112-1.619099999999889,1.35989999999947-3.439400000001115,2.60989999999947-5.458900000001449,3.75l-2.460999999999331-2.159200000000055c1.941399999999703-.800799999999981,3.64259999999922-1.740200000000186,5.101599999999962-2.820299999999406-2.441399999999703-.91990000000078-4.410200000000259-1.5600000000004-5.910200000000259-1.920900000000984l1.529300000000148-2.760199999999713c2.220699999999852.560500000000502,4.451200000001336,1.280700000000252,6.689500000000407,2.160600000000159,1.419899999998961-1.338400000000547,2.611299999998664-2.710000000000036,3.572200000000521-4.110300000000279l2.519599999999627,2.010200000000623c-.800800000000891,1.239799999999377-1.841800000000148,2.451199999999517-3.121100000000297,3.630900000000111,1.480400000000373.838799999999537,2.910100000000966,1.909099999998944,4.291000000001077,3.209899999999834ZM1147.497824497539114,251.15809999999874l-2.519599999999627,1.979500000001281c-1.621100000000297-1.240200000000186-3.300699999999779-2.270000000000437-5.03899999999885-3.08980000000065-1.082100000001446.819800000000214-3,1.849600000000464-5.761700000000928,3.08980000000065l-2.279299999998329-1.800700000000688c2.579999999998108-1.219299999999748,4.429599999999482-2.278800000000047,5.550699999999779-3.178800000000592-1.121100000000297-.700099999999111-2.822200000000521-1.479399999999259-5.101500000000669-2.339799999999741l2.25-1.891099999998914c2.060499999999593.740699999999379,3.820299999999406,1.511199999999008,5.279300000000148,2.310999999999694.560499999999593-.320300000000316,1.689400000001115-1.27980000000025,3.390600000000632-2.880800000000818l2.759799999999814,1.410600000001068c-1.019599999999627,1.319799999999304-2.160200000000259,2.410699999999451-3.420000000001892,3.269499999999425,1.660200000002078.759799999999814,3.291100000002189,1.799399999999878,4.890699999999924,3.120599999999286Z"/><path class="uuid-815d3b55-8df4-418b-a450-954d36b16326" d="M1311.664383009370795,282.508699999999408h-54.599600000001374v-3.869599999999991h25.439400000001115v-14.070800000000418h-18.329999999999927v-3.870100000000093h18.329999999999927v-12.240199999999277h-13.589799999999741c-1.640600000000632,4.25919999999951-4.380900000000111,8.189400000000205-8.220700000001671,11.789499999999862l-3.958999999998923-2.070299999999406c6.558600000000297-6.059600000000501,10.208999999998923-13.479000000001179,10.949199999999109-22.259300000000621l4.050800000000891,1.16989999999987c-.160200000009354,2.040100000000166-.630900000011025,4.559600000000501-1.412099999999555,7.559600000000501h12.122999999999593v-13.139600000000428h4.048899999988862v13.079999999999927h21.179700000011508v3.870200000000295h-21.179700000011508v12.179600000000391h18.060500000001412v3.870199999999386h-18.060500000001412v14.071200000000317h25.169900000011694v3.929699999999684Z"/><path class="uuid-815d3b55-8df4-418b-a450-954d36b16326" d="M1457.080953938861057,245.336899999999332l-2.158200000001671,3.121100000000297c-6.820299999999406-1.679699999999684-12.162099999997736-3.619700000000194-16.021499999998923-5.820399999999609v2.699299999999312h-20.281200000001263v-2.969299999999748c-5.839799999997922,3.020999999999731-11.08009999999922,4.989799999999377-15.718799999998737,5.910700000000361l-1.980400000000373-3.150400000000445c11.240200000000186-2.740700000000288,20.599600000010469-7.320799999999508,28.08009999999922-13.740700000000288l3.689400000001115,1.230400000000373c-.400400000000445.5-.75.85109999999986-1.048800000000483,1.050299999999879,6.638700000001336,5.519499999999425,15.121100000000297,9.409700000000157,25.439400000001115,11.668999999999869ZM1450.692353938860833,262.528800000000047h-43.560600000000704v-14.070800000000418h43.560600000000704v14.070800000000418ZM1447.121953938860315,285.568299999998999h-3.691399999999703v-2.399899999999434h-28.980400000000373v2.399899999999434h-3.689499999998588v-19.889599999999518h36.361299999998664v19.889599999999518ZM1427.110253938859387,259.287499999999454v-7.5h-16.28899999999885v7.5h16.28899999999885ZM1443.430553938860612,272.848599999999351v-3.870600000000195h-28.980400000000373v3.870600000000195h28.980400000000373ZM1443.430553938860612,279.92869999999948v-3.929699999999684h-28.980400000000373v3.929699999999684h28.980400000000373ZM1423.120053938859201,256.318299999998999l-3.089799999997922,2.159700000000157c-1.859400000001187-1.878399999999601-3.679700000000594-3.269599999999627-5.459000000000742-4.169499999999971l3.119099999999889-1.799799999999777c2.121100000000297.899000000000342,3.929699999998775,2.170000000000073,5.429699999998775,3.809599999999591ZM1437.670853938860091,242.008699999999408c-2.900399999989531-1.519999999999527-5.708999999998923-3.57130000000052-8.429700000000594-6.15230000000065-2.902399999999034,2.400900000000547-6.150399999998626,4.452100000000428-9.75,6.15230000000065h18.179700000000594ZM1447.000953938859311,259.287499999999454v-7.5h-16.199300000000221v7.5h16.199300000000221ZM1443.371953938860315,253.558099999999286c-1.181599999999889,1.879299999999603-2.960900000000038,3.479400000000169-5.341699999999037,4.799299999999675l-3.298899999990681-1.648999999999432c2.619199999990087-1.480400000000373,4.419899999989866-2.960900000000038,5.400399999989531-4.440399999999499l3.240200000000186,1.290099999999256Z"/></g></svg>