<?xml version="1.0" encoding="UTF-8"?><svg id="uuid-0b895a44-80da-4599-8848-7fad6f8b8cb8" xmlns="http://www.w3.org/2000/svg" width="223.375850256869739mm" height="281.831869378421118mm" xmlns:xlink="http://www.w3.org/1999/xlink" viewBox="0 0 633.19139606448698 798.893500000000131"><defs><style>.uuid-7a7c45ab-e5ed-4e81-9645-5de39852c9a1{fill:#fff;}.uuid-8ac4f53c-517e-44ec-a85e-f186c69a3473{fill:none;}.uuid-50b5d6ef-1251-4ae7-bcfe-7afffd5191e3{fill:#333e48;}.uuid-7a6d3200-88a9-4733-9403-59dc0a20ba77{fill:#9f9ea7;}.uuid-8b673540-6e9d-4023-9c79-d2713add7487{clip-path:url(#uuid-66a96e88-271e-4c18-960e-32d564d7dfb2);}.uuid-4903d8ab-33ea-4b5d-bb59-0882500b5385{fill:#5a5c66;}.uuid-2df8c30c-b3ae-4fd5-9ea3-90454b6b4c0e{fill:#858591;}</style><clipPath id="uuid-66a96e88-271e-4c18-960e-32d564d7dfb2"><rect class="uuid-8ac4f53c-517e-44ec-a85e-f186c69a3473" width="633.19139606448698" height="798.893500000000131"/></clipPath></defs><g class="uuid-8b673540-6e9d-4023-9c79-d2713add7487"><path class="uuid-4903d8ab-33ea-4b5d-bb59-0882500b5385" d="M77.708999999999833,170.747999999999593c3.77730000000065,0,6.838900000000649,3.061500000001615,6.838900000000649,6.837900000000445-.001000000000204-.139699999999721-.005900000000111-.278299999999945-.005900000000111-.418999999999869,0-51.154199999999037,41.467799999999443-92.625,92.625999999998385-92.625,3.775400000001355,0,6.836900000001151-3.060499999999593,6.836900000001151-6.837799999999334,0-3.775400000000445-3.061499999999796-6.837900000000445-6.836900000001151-6.837900000000445-14.344799999998941,0-28.267599999998311,2.8125-41.382799999998497,8.359300000000076-12.659200000000055,5.355499999999665-24.025400000000445,13.01759999999922-33.783199999999852,22.775400000000445-9.759799999999814,9.757799999999406-17.421900000000278,21.125-22.775400000000445,33.785200000000259-5.546899999999368,13.115200000000186-8.359399999999368,27.037099999999555-8.359399999999368,41.380799999998999,0,.140699999999924.003899999999703.279300000000148.004899999999907.418999999999869,0-3.77639999999883,3.060499999999593-6.837900000000445,6.836899999999332-6.837900000000445Z"/><path class="uuid-2df8c30c-b3ae-4fd5-9ea3-90454b6b4c0e" d="M170.33010000000013,276.629800000000614c0-3.775400000000445,3.060499999999593-6.837900000000445,6.837899999998626-6.837900000000445-51.017599999998311,0-92.394599999998718-41.243099999999686-92.620099999998274-92.206000000000131,0-3.77639999999883-3.061599999999999-6.837900000000445-6.838900000000649-6.837900000000445-3.77639999999974,0-6.836899999999332,3.061500000001615-6.836899999999332,6.837900000000445.05369999999948,14.196300000001429,2.861299999999574,27.975599999999758,8.354499999999462,40.962900000000445,5.353500000000167,12.659200000000055,13.015600000000632,24.026400000000649,22.775400000000445,33.784200000000055,9.757799999999406,9.759700000000521,21.123999999999796,17.421800000000076,33.783199999999852,22.775400000000445,13.115200000000186,5.547800000000279,27.037999999999556,8.360300000000279,41.382799999998497,8.360300000000279-3.777399999999034,0-6.837899999998626-3.061499999999796-6.837899999998626-6.838900000000649Z"/><path class="uuid-7a6d3200-88a9-4733-9403-59dc0a20ba77" d="M251.26760000000013,243.706000000000131c-2.671900000000278-2.671899999999368-7-2.671899999999368-9.670900000000074,0-16.670900000000074,16.144500000000335-39.387700000000223,26.085900000000038-64.428700000001299,26.085900000000038-3.777399999999034,0-6.837899999998626,3.0625-6.837899999998626,6.837900000000445,0,3.777400000000853,3.060499999999593,6.838900000000649,6.837899999998626,6.838900000000649,14.343700000001263,0,28.266600000001745-2.8125,41.380800000001727-8.360300000000279,12.203199999999924-5.160200000000259,23.199200000000019-12.472700000000259,32.718799999999646-21.732500000000073,2.66989999999987-2.66990000000078,2.66989999999987-7,0-9.66990000000078Z"/><path class="uuid-7a6d3200-88a9-4733-9403-59dc0a20ba77" d="M233.458999999999833,120.875c-15.03519999999935-15.036199999998644-35.027399999999943-23.315499999998792-56.292999999999665-23.315499999998792-21.262700000000223,0-41.255799999999908,8.279300000000148-56.291000000000167,23.315499999998792-15.035200000000259,15.03610000000117-23.317399999999907,35.028299999999945-23.317399999999907,56.291900000000169,0,21.265699999999924,8.282199999999648,41.254899999999907,23.317399999999907,56.292999999999665,15.035200000000259,15.035200000000259,35.028299999999945,23.316400000001522,56.291000000000167,23.316400000001522,21.265599999999722,0,41.257800000000316-8.281200000001263,56.292999999999665-23.316400000001522,15.035100000000057-15.038099999999758,23.315400000000409-35.027299999999741,23.315400000000409-56.292999999999665,0-21.263600000000224-8.280300000000352-41.255799999998999-23.315400000000409-56.291900000000169Z"/><path class="uuid-50b5d6ef-1251-4ae7-bcfe-7afffd5191e3" d="M121.0625,202.913000000000466v-51.490200000000186h11.166000000000167v3.806599999999889h-6.472600000000057v43.877000000000407h6.472600000000057v3.806599999999889h-11.166000000000167Z"/><path class="uuid-50b5d6ef-1251-4ae7-bcfe-7afffd5191e3" d="M233.271499999999833,151.422800000000279v51.490200000000186h-11.164099999999962v-3.806599999999889h6.468800000000556v-43.877000000000407h-6.468800000000556v-3.806599999999889h11.164099999999962Z"/><path class="uuid-7a7c45ab-e5ed-4e81-9645-5de39852c9a1" d="M146.996100000000297,187.627900000001318c0,1.027299999999741.016599999999926,2.241199999998571.048799999999574,3.634799999999814.031300000000556,1.394500000000335.075200000000223,2.8125.128900000000613,4.247999999999593.052799999999479,1.4375.117199999999684,2.8125.193400000000111,4.121100000000297.074199999999109,1.308600000000297.165999999999258,2.402299999999741.273399999999128,3.281199999999444h-6.597600000000966v-36.365200000000186c0-3.131799999999203-.05279999999857-5.968699999999444-.16019999999844-8.511699999999109s-.26760000000013-4.748100000000704-.483400000000074-6.613300000000891h6.596700000000055v36.205100000001039Z"/><path class="uuid-7a7c45ab-e5ed-4e81-9645-5de39852c9a1" d="M175.799799999999777,170.087800000001153v4.216800000000148h-6.049799999999777v24.393599999999424h6.049799999999777v4.214799999999741h-18.020499999999629v-4.214799999999741h5.953099999999722v-24.393599999999424h-5.953099999999722v-4.216800000000148h18.020499999999629Z"/><path class="uuid-7a7c45ab-e5ed-4e81-9645-5de39852c9a1" d="M189.316399999999703,170.087800000001153c.128900000000613.343799999998737.257800000000316.788099999999758.385800000000017,1.336999999999534.129800000000614.546800000000076.246000000000095,1.119099999999889.354400000000169,1.720699999999852.105500000000575.599599999999555.203199999999924,1.190399999999499.290100000000166,1.769500000000335l.255799999999908,1.447299999999814c2.060599999999795-2.445400000000518,4.129899999999907-4.209000000000742,6.21100000000024-5.292999999999665,2.081000000000131-1.083000000000538,4.25-1.625,6.501000000000204-1.625,1.71770000000015,0,3.23529999999937.283199999999852,4.554599999999482.852499999999054,1.319400000000314.569400000000314,2.429700000000594,1.470699999999852,3.331100000000333,2.703199999999924.900399999999536,1.234300000000076,1.581100000000333,2.833000000000538,2.043899999999667,4.795900000000984.46100000000024,1.962799999999334.691400000000613,4.326100000000224.691400000000613,7.096599999998944v14.479500000001281c0,3.626999999998588-.317300000000614,6.636699999999109-.95010000000002,9.027399999999034-.631900000000314,2.393500000000131-1.518600000000333,4.302700000000186-2.654300000000148,5.730400000000373-1.136800000000221,1.423899999999776-2.505900000000111,2.433600000000297-4.10360000000037,3.023499999999331-1.59860000000026.589799999999741-3.373999999999796.884700000000521-5.327099999999518.884700000000521-.964899999999943,0-2-.15519999999924-3.105500000000575-.466800000000148-1.103500000000167-.311499999999796-2.10739999999987-.744099999999889-3.007799999999406-1.302700000000186l2.091799999999239-4.828099999998813c.493200000000797.365199999998367,1.152400000000853.669899999998961,1.978500000000167.917999999999665.826200000000426.245999999999185,1.668999999999869.369099999999889,2.525400000000445.369099999999889,1.031299999999646,0,1.954099999999926-.165000000000873,2.770499999999629-.498100000000704.814500000000407-.332000000000335,1.505900000000111-.915999999999258,2.074200000000019-1.752899999999499.568400000000111-.836900000000242,1.002999999999702-1.985300000000279,1.303800000000592-3.444299999999203.299799999999777-1.459000000000742.45010000000002-3.314500000000407.45010000000002-5.566400000001522v-14.161199999998644c0-2.574200000000928-.133700000000317-4.66110000000117-.40230000000065-6.258700000000317-.26760000000013-1.597700000000259-.670900000000074-2.843800000000556-1.206999999999425-3.733400000000984-.536200000000463-.889699999999721-1.207100000000537-1.485399999999572-2.012700000000223-1.787199999998847-.802800000000389-.298800000000483-1.742199999999684-.45010000000002-2.814500000000407-.45010000000002-1.158199999999852,0-2.28899999999976.274400000000242-3.394499999999425.822199999998702-1.104500000000371.546900000001187-2.120100000000093,1.254900000001726-3.043000000000575,2.123100000000704-.921899999999368.869099999999889-1.736299999999574,1.849599999999555-2.444300000000112,2.945299999999406-.707999999999629,1.093700000001263-1.234399999999368,2.1875-1.578099999999722,3.281200000001263v18.665999999999258h-5.952199999999721v-19.790999999999258c0-3.175800000000891-.183600000000297-5.863300000000891-.548800000000483-8.0625-.363299999999981-2.199200000000928-.718799999999646-3.856400000000576-1.061499999999796-4.971700000000055h5.793899999999667Z"/><rect class="uuid-8ac4f53c-517e-44ec-a85e-f186c69a3473" x="102.331057812500148" y="702.694290625000576" width="368.1259765625" height="46.6611328125"/><path class="uuid-50b5d6ef-1251-4ae7-bcfe-7afffd5191e3" d="M124.048831250000148,712.138626562500576l-2.9404296875,3.4033203125c-2.05859375-1.6806640625-4.07470703125-2.4365234375-6.42724609375-2.4365234375-2.5205078125,0-4.24267578125,1.091796875-4.24267578125,3.150390625,0,2.0166015625,1.09228515625,2.8564453125,5.8388671875,4.326171875,5.2509765625,1.6806640625,8.61181640625,3.865234375,8.61181640625,9.2421875,0,5.3349609375-4.20068359375,9.0732421875-11.25830078125,9.0732421875-4.83056640625,0-8.359375-1.7216796875-10.75390625-4.07421875l3.19287109375-3.4873046875c2.10009765625,1.806640625,4.41064453125,2.8994140625,7.39306640625,2.8994140625s4.9990234375-1.4287109375,4.9990234375-3.9912109375c0-2.310546875-1.13427734375-3.318359375-5.544921875-4.6630859375-6.30126953125-1.9736328125-8.82177734375-4.494140625-8.82177734375-8.9052734375,0-4.95703125,4.28466796875-8.19140625,10.166015625-8.19140625,4.32666015625,0,7.26708984375,1.3017578125,9.78759765625,3.654296875Z"/><path class="uuid-50b5d6ef-1251-4ae7-bcfe-7afffd5191e3" d="M147.694339062500148,728.900345312500576h-13.904296875c.419921875,4.2841796875,2.4365234375,5.544921875,5.29296875,5.544921875,1.89013671875,0,3.486328125-.5888671875,5.4189453125-1.9326171875l2.478515625,3.3603515625c-2.1845703125,1.7646484375-4.95703125,3.0244140625-8.44384765625,3.0244140625-7.14111328125,0-10.8798828125-4.705078125-10.8798828125-11.677734375,0-6.7216796875,3.61279296875-11.9306640625,10.1240234375-11.9306640625,6.30078125,0,10.03955078125,4.201171875,10.03955078125,11.30078125,0,.755859375-.083984375,1.6796875-.1259765625,2.310546875ZM141.897464062500148,724.909134375000576c0-3.3603515625-1.13427734375-5.544921875-3.99072265625-5.544921875-2.3525390625,0-3.78076171875,1.5546875-4.11669921875,5.796875h8.107421875v-.251953125Z"/><path class="uuid-50b5d6ef-1251-4ae7-bcfe-7afffd5191e3" d="M167.685550000000148,717.977493750000576l-2.2685546875,3.4033203125c-1.80615234375-1.134765625-3.61279296875-1.7646484375-5.544921875-1.7646484375-1.974609375,0-3.06640625.7978515625-3.06640625,2.0166015625,0,1.3017578125.755859375,1.890625,4.66259765625,3.0244140625,4.45263671875,1.2177734375,6.97314453125,3.06640625,6.97314453125,7.015625,0,4.6201171875-4.32666015625,7.224609375-9.61962890625,7.224609375-3.86474609375,0-6.97314453125-1.3017578125-9.07373046875-3.234375l2.94091796875-3.2763671875c1.68017578125,1.3017578125,3.73828125,2.1845703125,5.96484375,2.1845703125s3.65478515625-.9248046875,3.65478515625-2.4365234375c0-1.6806640625-.79833984375-2.2265625-4.9150390625-3.361328125-4.49462890625-1.259765625-6.59521484375-3.486328125-6.59521484375-6.8466796875,0-3.7802734375,3.44482421875-6.6376953125,8.82177734375-6.6376953125,3.234375,0,5.96484375,1.0087890625,8.0654296875,2.6884765625Z"/><path class="uuid-50b5d6ef-1251-4ae7-bcfe-7afffd5191e3" d="M187.803225781250148,717.977493750000576l-2.2685546875,3.4033203125c-1.80615234375-1.134765625-3.61279296875-1.7646484375-5.544921875-1.7646484375-1.974609375,0-3.06640625.7978515625-3.06640625,2.0166015625,0,1.3017578125.755859375,1.890625,4.66259765625,3.0244140625,4.45263671875,1.2177734375,6.97314453125,3.06640625,6.97314453125,7.015625,0,4.6201171875-4.32666015625,7.224609375-9.61962890625,7.224609375-3.86474609375,0-6.97314453125-1.3017578125-9.07373046875-3.234375l2.94091796875-3.2763671875c1.68017578125,1.3017578125,3.73828125,2.1845703125,5.96484375,2.1845703125s3.65478515625-.9248046875,3.65478515625-2.4365234375c0-1.6806640625-.79833984375-2.2265625-4.9150390625-3.361328125-4.49462890625-1.259765625-6.59521484375-3.486328125-6.59521484375-6.8466796875,0-3.7802734375,3.44482421875-6.6376953125,8.82177734375-6.6376953125,3.234375,0,5.96484375,1.0087890625,8.0654296875,2.6884765625Z"/><path class="uuid-50b5d6ef-1251-4ae7-bcfe-7afffd5191e3" d="M199.057132031250148,707.980423437500576c0,1.9736328125-1.51220703125,3.486328125-3.65478515625,3.486328125-2.14208984375,0-3.6123046875-1.5126953125-3.6123046875-3.486328125,0-1.974609375,1.47021484375-3.4873046875,3.6123046875-3.4873046875,2.142578125,0,3.65478515625,1.5126953125,3.65478515625,3.4873046875ZM198.427249218750148,738.225540625000576h-5.96533203125v-22.263671875h5.96533203125v22.263671875Z"/><path class="uuid-50b5d6ef-1251-4ae7-bcfe-7afffd5191e3" d="M224.301272656250148,727.093704687500576c0,7.056640625-3.99072265625,11.8037109375-10.669921875,11.8037109375-6.63720703125,0-10.669921875-4.41015625-10.669921875-11.8037109375,0-7.099609375,3.99072265625-11.8046875,10.7119140625-11.8046875,6.63720703125,0,10.6279296875,4.4111328125,10.6279296875,11.8046875ZM209.178714062500148,727.093704687500576c0,5.125,1.51220703125,7.3515625,4.45263671875,7.3515625s4.45263671875-2.2685546875,4.45263671875-7.3515625c0-5.125-1.51220703125-7.3515625-4.41064453125-7.3515625-2.982421875,0-4.49462890625,2.2685546875-4.49462890625,7.3515625Z"/><path class="uuid-50b5d6ef-1251-4ae7-bcfe-7afffd5191e3" d="M247.484866406250148,722.010696875000576v16.21484375h-5.96484375v-15.20703125c0-2.5625-.92431640625-3.2763671875-2.4365234375-3.2763671875-1.72216796875,0-3.06640625,1.134765625-4.28466796875,3.1083984375v15.375h-5.96533203125v-22.263671875h5.1669921875l.4619140625,2.814453125c1.806640625-2.2265625,3.99072265625-3.4873046875,6.80517578125-3.4873046875,3.90673828125,0,6.21728515625,2.5205078125,6.21728515625,6.7216796875Z"/><path class="uuid-50b5d6ef-1251-4ae7-bcfe-7afffd5191e3" d="M281.125979687500148,716.801712500000576c0,4.62109375-2.8564453125,8.5693359375-12.09814453125,16.802734375h12.7705078125l-.63037109375,4.62109375h-18.9453125v-4.3271484375c10.0400390625-9.619140625,12.7705078125-12.8115234375,12.7705078125-16.5927734375,0-2.5625-1.55419921875-4.2001953125-4.20068359375-4.2001953125-2.310546875,0-3.82275390625.923828125-5.544921875,2.982421875l-3.69677734375-2.8984375c2.310546875-2.982421875,5.376953125-4.705078125,9.82958984375-4.705078125,6.42724609375,0,9.74560546875,3.7802734375,9.74560546875,8.3173828125Z"/><path class="uuid-50b5d6ef-1251-4ae7-bcfe-7afffd5191e3" d="M305.948245312500148,723.649368750000576c0,9.9130859375-3.5703125,15.248046875-10.20751953125,15.248046875s-10.2080078125-5.3349609375-10.2080078125-15.248046875c0-9.9140625,3.57080078125-15.1650390625,10.2080078125-15.1650390625s10.20751953125,5.2509765625,10.20751953125,15.1650390625ZM291.666018750000148,723.649368750000576c0,8.1494140625,1.30224609375,10.75390625,4.07470703125,10.75390625,2.73046875,0,4.07470703125-2.478515625,4.07470703125-10.75390625s-1.34423828125-10.7119140625-4.07470703125-10.7119140625c-2.7724609375,0-4.07470703125,2.6044921875-4.07470703125,10.7119140625Z"/><path class="uuid-50b5d6ef-1251-4ae7-bcfe-7afffd5191e3" d="M328.166018750000148,716.801712500000576c0,4.62109375-2.8564453125,8.5693359375-12.09814453125,16.802734375h12.7705078125l-.63037109375,4.62109375h-18.9453125v-4.3271484375c10.0400390625-9.619140625,12.7705078125-12.8115234375,12.7705078125-16.5927734375,0-2.5625-1.55419921875-4.2001953125-4.20068359375-4.2001953125-2.310546875,0-3.82275390625.923828125-5.544921875,2.982421875l-3.69677734375-2.8984375c2.310546875-2.982421875,5.376953125-4.705078125,9.82958984375-4.705078125,6.42724609375,0,9.74560546875,3.7802734375,9.74560546875,8.3173828125Z"/><path class="uuid-50b5d6ef-1251-4ae7-bcfe-7afffd5191e3" d="M352.988284375000148,723.649368750000576c0,9.9130859375-3.5703125,15.248046875-10.20751953125,15.248046875s-10.2080078125-5.3349609375-10.2080078125-15.248046875c0-9.9140625,3.57080078125-15.1650390625,10.2080078125-15.1650390625s10.20751953125,5.2509765625,10.20751953125,15.1650390625ZM338.706057812500148,723.649368750000576c0,8.1494140625,1.30224609375,10.75390625,4.07470703125,10.75390625,2.73046875,0,4.07470703125-2.478515625,4.07470703125-10.75390625s-1.34423828125-10.7119140625-4.07470703125-10.7119140625c-2.7724609375,0-4.07470703125,2.6044921875-4.07470703125,10.7119140625Z"/><path class="uuid-50b5d6ef-1251-4ae7-bcfe-7afffd5191e3" d="M355.546878125000148,722.724564062500576h19.8271484375v4.705078125h-19.8271484375v-4.705078125Z"/><path class="uuid-50b5d6ef-1251-4ae7-bcfe-7afffd5191e3" d="M397.045413281250148,716.801712500000576c0,4.62109375-2.8564453125,8.5693359375-12.09814453125,16.802734375h12.7705078125l-.63037109375,4.62109375h-18.9453125v-4.3271484375c10.0400390625-9.619140625,12.7705078125-12.8115234375,12.7705078125-16.5927734375,0-2.5625-1.55419921875-4.2001953125-4.20068359375-4.2001953125-2.310546875,0-3.82275390625.923828125-5.544921875,2.982421875l-3.69677734375-2.8984375c2.310546875-2.982421875,5.376953125-4.705078125,9.82958984375-4.705078125,6.42724609375,0,9.74560546875,3.7802734375,9.74560546875,8.3173828125Z"/><path class="uuid-50b5d6ef-1251-4ae7-bcfe-7afffd5191e3" d="M421.867678906250148,723.649368750000576c0,9.9130859375-3.5703125,15.248046875-10.20751953125,15.248046875s-10.2080078125-5.3349609375-10.2080078125-15.248046875c0-9.9140625,3.57080078125-15.1650390625,10.2080078125-15.1650390625s10.20751953125,5.2509765625,10.20751953125,15.1650390625ZM407.585452343750148,723.649368750000576c0,8.1494140625,1.30224609375,10.75390625,4.07470703125,10.75390625,2.73046875,0,4.07470703125-2.478515625,4.07470703125-10.75390625s-1.34423828125-10.7119140625-4.07470703125-10.7119140625c-2.7724609375,0-4.07470703125,2.6044921875-4.07470703125,10.7119140625Z"/><path class="uuid-50b5d6ef-1251-4ae7-bcfe-7afffd5191e3" d="M444.085452343750148,716.801712500000576c0,4.62109375-2.8564453125,8.5693359375-12.09814453125,16.802734375h12.7705078125l-.63037109375,4.62109375h-18.9453125v-4.3271484375c10.0400390625-9.619140625,12.7705078125-12.8115234375,12.7705078125-16.5927734375,0-2.5625-1.55419921875-4.2001953125-4.20068359375-4.2001953125-2.310546875,0-3.82275390625.923828125-5.544921875,2.982421875l-3.69677734375-2.8984375c2.310546875-2.982421875,5.376953125-4.705078125,9.82958984375-4.705078125,6.42724609375,0,9.74560546875,3.7802734375,9.74560546875,8.3173828125Z"/><path class="uuid-50b5d6ef-1251-4ae7-bcfe-7afffd5191e3" d="M469.075686718750148,733.646439062500576v4.5791015625h-18.27294921875v-4.5791015625h6.80517578125v-18.5673828125l-6.21728515625,3.7392578125-2.5625-3.9912109375,9.36767578125-5.6708984375h5.2509765625v24.490234375h5.62890625Z"/><path class="uuid-50b5d6ef-1251-4ae7-bcfe-7afffd5191e3" d="M107.457432646684538,426.163500000000568v-67.755400000000009h8.153800000000047v60.572299999999814h28.830100000001039v7.183100000000195h-36.983900000001086Z"/><path class="uuid-50b5d6ef-1251-4ae7-bcfe-7afffd5191e3" d="M159.195732646683609,364.329499999999825c-1.683600000000297,0-2.897399999998015-.403299999999945-3.640599999998813-1.213399999998728-.744599999999991-.808100000000195-1.11620000000039-1.858900000001086-1.11620000000039-3.15480000000025v-1.261700000000928c0-1.293899999998757.371600000000399-2.34519999999975,1.11620000000039-3.155299999998533.743200000000797-.808600000000297,1.956999999998516-1.213300000001254,3.640599999998813-1.213300000001254,1.681700000001001,0,2.895500000002357.404700000000958,3.64010000000053,1.213300000001254.743200000000797.810099999998783,1.116300000000592,1.861399999999776,1.116300000000592,3.155299999998533v1.261700000000928c0,1.295899999999165-.373099999999795,2.346700000000055-1.116300000000592,3.15480000000025-.744599999998172.810099999998783-1.958399999999529,1.213399999998728-3.64010000000053,1.213399999998728ZM155.312932646684203,376.075600000000122h7.765600000000632v50.087900000000445h-7.765600000000632v-50.087900000000445Z"/><path class="uuid-50b5d6ef-1251-4ae7-bcfe-7afffd5191e3" d="M179.580532646683423,426.163500000000568v-50.087900000000445h7.765600000002451v8.060999999999694h.388199999997596c1.228500000001077-2.817900000000009,2.960399999999936-5.060999999999694,5.193300000000818-6.72649999999885,2.233000000000175-1.665600000000268,5.225100000001476-2.49960000000101,8.979000000001179-2.49960000000101,5.176799999999275,0,9.270599999999831,1.667000000001281,12.27980000000025,4.999100000000908,3.009299999997893,3.333999999998923,4.513699999999517,8.041999999999462,4.513699999999517,14.123999999999796v32.129899999999907h-7.765600000000632v-30.837900000000445c0-9.015599999998813-3.785699999998542-13.523499999999331-11.35739999999987-13.523499999999331-1.553299999998671,0-3.057700000000295.195799999999508-4.514200000000528.583999999998923-1.456099999999424.38970000000154-2.766100000000733.973700000000463-3.93119999999908,1.752000000000407-1.165000000000873.778299999999945-2.086900000000242,1.766600000000835-2.766100000000733,2.966800000000148-.679700000000594,1.199200000000928-1.019499999998516,2.610300000000279-1.019499999998516,4.231400000000576v34.827199999999721h-7.765600000002451Z"/><path class="uuid-50b5d6ef-1251-4ae7-bcfe-7afffd5191e3" d="M274.515032646683721,424.513600000000224c0,6.923800000000483-1.941399999998794,12.359800000000178-5.824200000000019,16.307600000000093-3.882799999999406,3.946799999999712-9.351999999998952,5.92239999999947-16.40480000000025,5.92239999999947-4.077099999998609,0-7.588299999999435-.634799999999814-10.532199999998738-1.90139999999883-2.945300000000316-1.269500000000335-5.387200000000121-2.942399999999907-7.328599999999824-5.022000000000844l4.561999999999898-5.36279999999897c1.682099999999991,1.731999999999971,3.623600000000806,3.06499999999869,5.824200000000928,3.996099999998478,2.199300000000221.931700000001001,4.756399999998393,1.397000000000844,7.668499999999767,1.397000000000844,4.529299999998329,0,8.040499999998246-1.251500000000306,10.532199999997829-3.752000000000407,2.490700000002107-2.504399999999805,3.737300000000687-6.192799999998897,3.737300000000687-11.067799999998897v-6.9283000000014h-.388199999999415c-1.489199999999983,3.075700000001234-3.430599999999686,5.381400000000212-5.824200000001838,6.919000000001688-2.394999999999527,1.53859999999986-5.338799999996809,2.307099999998172-8.833499999997912,2.307099999998172-3.106399999998757,0-5.921400000001086-.615699999998469-8.445300000001225-1.843699999999444-2.523399999998219-1.22899999999936-4.659199999998236-2.976599999999962-6.406199999997625-5.242199999998775-1.747600000002421-2.26470000000154-3.106500000001688-5.01470000000154-4.07720000000154-8.251000000000204-.970699999999852-3.235400000001391-1.456000000000131-6.859400000001187-1.456000000000131-10.872100000000501,0-4.011699999999109.485300000000279-7.635700000000725,1.456000000000131-10.871999999999389.970699999999852-3.235400000001391,2.329599999999118-5.985400000001391,4.07720000000154-8.251000000000204,1.746999999999389-2.264699999999721,3.882799999999406-4.011700000000928,6.406199999997625-5.242200000000594,2.52390000000014-1.228499999999258,5.338900000002468-1.843800000000556,8.445300000001225-1.843800000000556,3.494700000001103,0,6.487299999998868.753500000000713,8.979000000001179,2.257900000000518,2.490799999999581,1.506800000001022,4.383299999997689,3.828600000000733,5.678699999998571,6.968199999999342h.388199999999415v-8.060999999999694h7.765599999999722v48.438000000000102ZM254.033132646683953,420.436400000000503c1.747600000000602,0,3.397500000000946-.227499999999054,4.950700000001234-.682600000000093,1.55319999999756-.454599999999118,2.895499999998719-1.122600000000602,4.028299999998126-2.000500000000102,1.131899999999405-.876899999999296,2.03859999999986-1.950699999999415,2.718300000000454-3.217800000000352.679200000002311-1.268500000000131,1.019000000000233-2.748999999999796,1.019000000000233-4.439899999999398v-18.634799999999814c0-1.365200000000186-.324199999999109-2.649900000000343-.970699999998033-3.85399999999936-.647400000001653-1.20260000000053-1.553200000002107-2.226500000000669-2.717800000002171-3.072700000000623-1.164999999999054-.844699999999648-2.523900000001049-1.511200000000827-4.077099999998609-1.999499999999898-1.553200000000288-.488300000000891-3.203100000000632-.732500000000073-4.950700000001234-.732500000000073-4.40139999999883,0-7.89600000000064,1.398499999999331-10.483399999999165,4.195400000000518-2.589300000001458,2.796800000000076-3.882800000001225,6.406699999999546-3.882800000001225,10.829999999999927v8.583999999998923c0,4.422899999999572,1.293499999999767,8.03269999999975,3.882800000001225,10.830100000001039,2.587399999998524,2.796399999999267,6.082000000000335,4.194799999999304,10.483399999999165,4.194799999999304Z"/><path class="uuid-50b5d6ef-1251-4ae7-bcfe-7afffd5191e3" d="M321.884732646685734,418.102399999999761h-.388200000001234c-.518599999999424,1.15480000000025-1.149399999998423,2.291500000001179-1.89259999999922,3.412600000001476-.745100000000093,1.120600000000195-1.667000000001281,2.114299999999275-2.766600000000835,2.978599999998551-1.10149999999885.865200000000186-2.426699999999983,1.55370000000039-3.979999999999563,2.066400000001522-1.553200000000288.512199999999211-3.365700000000288.768499999998312-5.435999999999694.768499999998312-5.178200000000288,0-9.287100000001374-1.664999999999054-12.328100000000632-4.998999999999796-3.042500000001382-3.332499999998618-4.5625-8.039999999999054-4.5625-14.123999999999796v-32.129899999999907h7.765600000000632v30.837900000000445c0,9.01510000000053,3.81789999999819,13.522899999999936,11.454599999999118,13.522899999999936,1.553200000000288,0,3.057600000000093-.193799999999101,4.513700000000426-.584000000000742,1.455999999999221-.388100000000122,2.75-.972099999999045,3.882800000000316-1.75,1.131799999999203-.778299999999945,2.038499999998749-1.766999999999825,2.718199999999342-2.967199999999139.679700000000594-1.199300000000221,1.019100000001345-2.643099999999322,1.019100000001345-4.33009999999922v-34.729500000001281h7.765599999998813v50.087900000000445h-7.765599999998813v-8.061100000000806Z"/><path class="uuid-50b5d6ef-1251-4ae7-bcfe-7afffd5191e3" d="M350.034632646686077,364.329499999999825c-1.683600000000297,0-2.897000000000844-.403299999999945-3.640200000001641-1.213399999998728-.744599999999991-.808100000000195-1.11620000000039-1.858900000001086-1.11620000000039-3.15480000000025v-1.261700000000928c0-1.293899999998757.371600000000399-2.34519999999975,1.11620000000039-3.155299999998533.743200000000797-.808600000000297,1.956600000001345-1.213300000001254,3.640200000001641-1.213300000001254,1.682099999998172,0,2.895499999998719.404700000000958,3.640099999998711,1.213300000001254.743199999998978.810099999998783,1.116199999998571,1.861399999999776,1.116199999998571,3.155299999998533v1.261700000000928c0,1.295899999999165-.372999999999593,2.346700000000055-1.116199999998571,3.15480000000025-.744599999999991.810099999998783-1.958000000000538,1.213399999998728-3.640099999998711,1.213399999998728ZM346.151832646684852,376.075600000000122h7.765600000000632v50.087900000000445h-7.765600000000632v-50.087900000000445Z"/><path class="uuid-50b5d6ef-1251-4ae7-bcfe-7afffd5191e3" d="M385.465732646684046,427.328499999999622c-4.659100000000763,0-8.55909999999858-.890099999998711-11.697199999998702-2.668899999998757-3.13970000000063-1.779300000000148-5.840900000001056-4.158199999999852-8.105500000001484-7.134799999999814l5.533200000001671-4.465799999999945c1.941399999999703,2.459899999999834,4.108899999999267,4.352499999999054,6.503899999999703,5.67870000000039,2.393599999999424,1.327099999998609,5.176799999999275,1.990199999998367,8.348200000000361,1.990199999998367,3.300199999997858,0,5.872499999997672-.711900000000242,7.716699999999037-2.135699999998906,1.84480000000076-1.422899999999572,2.766600000000835-3.429700000000594,2.766600000000835-6.018600000001243,0-1.941399999999703-.630800000000818-3.606399999998757-1.892500000001746-4.998999999999796-1.262199999999211-1.390599999998813-3.543499999999767-2.344699999999648-6.843799999998737-2.863299999999072l-3.979999999999563-.583000000000538c-2.329499999999825-.323199999998906-4.465299999999843-.824699999999211-6.406699999999546-1.503899999999703-1.941400000001522-.680200000000696-3.64010000000053-1.585399999999936-5.096199999999953-2.718199999999342-1.45600000000195-1.131400000000212-2.588900000002468-2.539600000000064-3.397500000002765-4.223200000000361-.809999999997672-1.681599999999889-1.213299999999435-3.688500000000204-1.213299999999435-6.017600000001039,0-2.458999999998923.452100000002247-4.611299999998664,1.358900000001086-6.454999999999927.905700000001161-1.844799999998941,2.150800000001254-3.381900000000314,3.737299999999777-4.611399999999776,1.584900000000744-1.228499999999258,3.477999999999156-2.150899999998728,5.67869999999948-2.766599999999016,2.199199999999109-.614199999999983,4.5625-.921900000001187,7.08640000000014-.921900000001187,4.076700000001438,0,7.489300000001094.712400000000343,10.240700000000288,2.135299999999916,2.75,1.424300000000585,5.160200000000259,3.397500000000946,7.231999999999971,5.921400000001086l-5.145099999999729,4.659200000000055c-1.100999999998749-1.552800000001298-2.717700000001059-2.960000000000946-4.853500000001077-4.222700000000259-2.135199999998804-1.261700000000928-4.82129999999961-1.892600000001039-8.056599999999889-1.892600000001039-3.236799999998766,0-5.67870000000039.695800000001327-7.329099999999016,2.086900000000242-1.649900000000343,1.392100000000937-2.475099999999657,3.285200000000259-2.475099999999657,5.678799999999683,0,2.459900000001653.825199999999313,4.239199999999983,2.475099999999657,5.338800000001356,1.650399999998626,1.101599999999962,4.028800000000047,1.909200000000055,7.134699999998702,2.426799999999275l3.882900000000518.582000000000335c5.564900000001217.841800000000148,9.513100000000122,2.444299999999203,11.842700000001059,4.805200000000696,2.329600000000937,2.363299999999072,3.494699999999284,5.452599999998711,3.494699999999284,9.270499999998719,0,4.853500000001077-1.650399999998626,8.672400000001289-4.950699999999415,11.454600000000937-3.300300000000789,2.783199999999852-7.831100000001243,4.173799999998664-13.589900000000853,4.173799999998664Z"/><path class="uuid-50b5d6ef-1251-4ae7-bcfe-7afffd5191e3" d="M428.081032646685344,426.163500000000568c-2.717800000002171,0-4.773000000001048-.757799999999406-6.164100000001781-2.274900000000343-1.392099999999118-1.516599999999016-2.086899999998423-3.503399999999601-2.086899999998423-5.957500000000437v-34.96389999999883h-8.251000000000204v-6.891600000000835h4.659200000000055c1.682099999999991,0,2.830599999999322-.340299999999843,3.44629999999961-1.020000000000437.614199999999983-.679199999998673.921899999999368-1.859399999999368.921899999999368-3.542999999999665v-9.318900000000212h6.989199999999983v13.881900000000314h10.969300000000658v6.891600000000835h-10.969300000000658v36.304699999998775h10.192399999999907v6.891600000000835h-9.706999999998516Z"/><path class="uuid-50b5d6ef-1251-4ae7-bcfe-7afffd5191e3" d="M454.969632646683749,364.329499999999825c-1.683600000000297,0-2.896899999999732-.403299999999945-3.64010000000053-1.213399999998728-.744599999999991-.808100000000195-1.116699999998673-1.858900000001086-1.116699999998673-3.15480000000025v-1.261700000000928c0-1.293899999998757.372099999998682-2.34519999999975,1.116699999998673-3.155299999998533.743200000000797-.808600000000297,1.956500000000233-1.213300000001254,3.64010000000053-1.213300000001254,1.682200000001103,0,2.895500000000538.404700000000958,3.640200000001641,1.213300000001254.743099999997867.810099999998783,1.11620000000039,1.861399999999776,1.11620000000039,3.155299999998533v1.261700000000928c0,1.295899999999165-.373100000002523,2.346700000000055-1.11620000000039,3.15480000000025-.744700000001103.810099999998783-1.958000000000538,1.213399999998728-3.640200000001641,1.213399999998728ZM451.086832646684343,376.075600000000122h7.765599999998813v50.087900000000445h-7.765599999998813v-50.087900000000445Z"/><path class="uuid-50b5d6ef-1251-4ae7-bcfe-7afffd5191e3" d="M493.992132646684695,427.328499999999622c-3.494599999999991,0-6.634299999999712-.615699999998469-9.415999999999258-1.843699999999444-2.783200000001671-1.22899999999936-5.129400000001624-2.976599999999962-7.037599999999657-5.242199999998775-1.909700000000157-2.26470000000154-3.365700000002107-5.01470000000154-4.368200000000797-8.251000000000204-1.003899999999703-3.235400000001391-1.504400000001624-6.859400000001187-1.504400000001624-10.872100000000501,0-4.011699999999109.500500000001921-7.635700000000725,1.504400000001624-10.871999999999389,1.00249999999869-3.235400000001391,2.45850000000064-5.985400000001391,4.368200000000797-8.251000000000204,1.908199999998033-2.264699999999721,4.254399999997986-4.011700000000928,7.037599999999657-5.242200000000594,2.781699999999546-1.228499999999258,5.921399999999267-1.843800000000556,9.415999999999258-1.843800000000556,4.982399999998961,0,8.979000000001179,1.084000000000742,11.988299999999072,3.251000000000204,3.009300000001531,2.169499999999971,5.257300000001123,5,6.746600000002218,8.494200000001001l-6.503900000001522,3.300699999999779c-.906799999998839-2.587800000001153-2.395099999999729-4.594699999999648-4.465399999999136-6.018500000000131-2.071800000001531-1.422899999999572-4.659200000001874-2.135800000000017-7.765600000000632-2.135800000000017-2.329599999999118,0-4.368199999998978.373100000000704-6.115700000000288,1.116299999999683-1.747100000000501.744599999999991-3.203099999998813,1.781199999999444-4.368200000000797,3.106400000000576-1.164499999998952,1.327199999999721-2.03859999999986,2.912099999999555-2.620599999998376,4.756400000000212-.582500000000437,1.84519999999975-.873999999999796,3.867599999999584-.873999999999796,6.066799999998693v8.542000000001281c0,4.402399999999034,1.180199999998877,8.00879999999961,3.543399999998655,10.823800000000119,2.361400000001595,2.815399999999499,5.839400000000751,4.222599999999147,10.435100000000602,4.222599999999147,6.276400000000649,0,10.806599999999889-2.911599999999453,13.589799999999741-8.736300000000483l5.630400000000009,3.785600000001068c-1.618199999998978,3.625-4.028299999999945,6.503899999999703-7.231900000000678,8.639699999999721-3.203099999998813,2.135200000000623-7.199699999999211,3.203099999998813-11.988299999999072,3.203099999998813Z"/><path class="uuid-50b5d6ef-1251-4ae7-bcfe-7afffd5191e3" d="M539.226532646684063,427.328499999999622c-4.659700000000157,0-8.55909999999858-.890099999998711-11.697299999999814-2.668899999998757-3.139599999998609-1.779300000000148-5.840799999999945-4.158199999999852-8.105499999999665-7.134799999999814l5.533199999999852-4.465799999999945c1.941399999999703,2.459899999999834,4.108899999999267,4.352499999999054,6.503899999999703,5.67870000000039,2.393100000001141,1.327099999998609,5.176299999999173,1.990199999998367,8.348200000000361,1.990199999998367,3.30029999999897,0,5.872599999998783-.711900000000242,7.716800000000148-2.135699999998906,1.844699999999648-1.422899999999572,2.766600000000835-3.429700000000594,2.766600000000835-6.018600000001243,0-1.941399999999703-.630900000000111-3.606399999998757-1.892600000001039-4.998999999999796-1.262199999999211-1.390599999998813-3.543400000000474-2.344699999999648-6.843699999999444-2.863299999999072l-3.979999999999563-.583000000000538c-2.329600000000937-.323199999998906-4.465299999999843-.824699999999211-6.406800000000658-1.503899999999703-1.941400000001522-.680200000000696-3.64010000000053-1.585399999999936-5.096099999998842-2.718199999999342-1.456100000001243-1.131400000000212-2.588900000002468-2.539600000000064-3.397500000000946-4.223200000000361-.810100000000602-1.681599999999889-1.213400000000547-3.688500000000204-1.213400000000547-6.017600000001039,0-2.458999999998923.45220000000154-4.611299999998664,1.358900000001086-6.454999999999927.905800000000454-1.844799999998941,2.150899999998728-3.381900000000314,3.737299999998868-4.611399999999776,1.585000000000946-1.228499999999258,3.478000000000975-2.150899999998728,5.67870000000039-2.766599999999016,2.199200000000928-.614199999999983,4.5625-.921900000001187,7.08640000000014-.921900000001187,4.076699999999619,0,7.489299999999275.712400000000343,10.240799999999581,2.135299999999916,2.75,1.424300000000585,5.160099999999147,3.397500000000946,7.231900000000678,5.921400000001086l-5.145000000000437,4.659200000000055c-1.10109999999986-1.552800000001298-2.717800000000352-2.960000000000946-4.853500000001077-4.222700000000259-2.135299999998097-1.261700000000928-4.82129999999961-1.892600000001039-8.056699999999182-1.892600000001039-3.236800000000585,0-5.678699999998571.695800000001327-7.329100000000835,2.086900000000242-1.649900000000343,1.392100000000937-2.475099999999657,3.285200000000259-2.475099999999657,5.678799999999683,0,2.459900000001653.825199999999313,4.239199999999983,2.475099999999657,5.338800000001356,1.650400000002264,1.101599999999962,4.028800000000047,1.909200000000055,7.134799999999814,2.426799999999275l3.882800000001225.582000000000335c5.564899999999398.841800000000148,9.513199999999415,2.444299999999203,11.842799999998533,4.805200000000696,2.329600000002756,2.363299999999072,3.494599999999991,5.452599999998711,3.494599999999991,9.270499999998719,0,4.853500000001077-1.650399999998626,8.672400000001289-4.950699999997596,11.454600000000937-3.300300000000789,2.783199999999852-7.83100000000195,4.173799999998664-13.58980000000156,4.173799999998664Z"/><path class="uuid-50b5d6ef-1251-4ae7-bcfe-7afffd5191e3" d="M126.483332646683266,543.813900000001013c-5.500999999998385,0-10.192399999999907-1.052800000001298-14.075199999999313-3.154300000000148-3.882799999999406-2.102600000000166-7.183600000001206-4.999499999999898-9.90139999999883-8.688500000000204l6.018599999999424-5.047899999999572c2.393100000001141,3.171899999999368,5.04739999999947,5.582099999999627,7.959500000000844,7.232500000000073,2.912099999999555,1.649899999998524,6.341799999998329,2.475099999999657,10.289999999999054,2.475099999999657,4.853499999999258,0,8.557099999999991-1.165100000000166,11.114299999999275-3.494700000001103,2.555599999999686-2.329999999999927,3.834399999999732-5.435999999999694,3.834399999999732-9.318799999999101,0-3.23489999999947-.970699999998033-5.727100000000064-2.912099999997736-7.474099999999453-1.941399999999703-1.748100000000704-5.145000000000437-3.138700000001336-9.609800000001997-4.174800000000687l-5.533199999998033-1.261800000000221c-6.212900000002264-1.422800000000279-10.954100000000835-3.574199999999109-14.221199999999953-6.454999999999927-3.268600000001243-2.878899999999703-4.901900000000751-6.940500000000611-4.901900000000751-12.182699999999386,0-2.975500000000466.548800000000483-5.629800000000614,1.649900000000343-7.95889999999963,1.100099999999657-2.330100000001039,2.6362999999983-4.271500000000742,4.610899999999674-5.82470000000103,1.973599999999351-1.553299999999581,4.334899999999834-2.733000000000175,7.08640000000014-3.543499999999767,2.75-.808600000000297,5.775900000000547-1.213400000000547,9.076199999998607-1.213400000000547,5.111300000001393,0,9.496100000001206.939000000000306,13.153300000000854,2.815400000001318,3.655300000000352,1.87749999999869,6.746100000000297,4.62749999999869,9.269999999998618,8.250999999998385l-6.115199999998367,4.465400000000955c-1.877999999998792-2.587900000000445-4.142600000001039-4.626000000000204-6.795000000000073-6.115799999999581-2.654300000000148-1.487800000000789-5.954999999999927-2.232900000000882-9.901300000001356-2.232900000000882-4.33640000000014,0-7.750499999998283.922899999999572-10.241199999998571,2.766600000000835-2.491700000000492,1.844799999998941-3.737299999998868,4.611399999999776-3.737299999998868,8.299799999998868,0,3.236800000000585,1.051199999998062,5.67870000000039,3.155199999997421,7.328600000000733,2.102100000000064,1.650400000000445,5.290100000001985,2.961499999999432,9.561600000000908,3.932199999999284l5.53269999999975,1.261700000000928c6.664500000000771,1.489199999999983,11.486300000000483,3.753899999999703,14.463400000000547,6.79490000000078,2.975999999998749,3.041999999999462,4.465299999999843,7.085899999998219,4.465299999999843,12.13379999999961,0,3.106399999998757-.533699999999953,5.920899999999165-1.601599999999962,8.445299999999406-1.067799999998897,2.523499999999331-2.605900000000474,4.659200000000055-4.610800000000381,6.406300000000556-2.006900000000314,1.747499999999491-4.450199999999313,3.106399999998757-7.328600000000733,4.077100000000428-2.88039999999819.970699999998033-6.132399999998597,1.456099999999424-9.755900000000111,1.456099999999424Z"/><path class="uuid-50b5d6ef-1251-4ae7-bcfe-7afffd5191e3" d="M182.007232646683406,543.813900000001013c-3.365699999998469,0-6.439899999997579-.615799999999581-9.221599999998944-1.844300000000658-2.783199999999852-1.227999999999156-5.161699999998746-2.992599999999584-7.134800000000723-5.290499999999156-1.974599999998645-2.295900000000984-3.511199999999008-5.047400000001289-4.610900000000584-8.251000000000204-1.100999999998749-3.203100000000632-1.649899999998524-6.810499999999593-1.649899999998524-10.823200000000725,0-3.94629999999961.548899999999776-7.538099999999758,1.649899999998524-10.775400000000445,1.099700000001576-3.234399999999368,2.636300000001938-6.001999999998588,4.610900000000584-8.299299999998766,1.973100000001978-2.296400000001086,4.351600000000872-4.060100000000602,7.134800000000723-5.290600000000268,2.781700000001365-1.228500000001077,5.855900000000474-1.843699999999444,9.221599999998944-1.843699999999444,3.364300000001094,0,6.421900000001187.615199999998367,9.173400000001493,1.843699999999444,2.75,1.230499999999665,5.128399999999601,2.994199999999182,7.134700000000521,5.290600000000268,2.00539999999819,2.297300000000178,3.558600000000297,5.064899999999398,4.659700000000157,8.299299999998766,1.099599999997736,3.237300000000687,1.649900000000343,6.829100000000835,1.649900000000343,10.775400000000445,0,4.012700000001132-.550300000002608,7.620100000000093-1.649900000000343,10.823200000000725-1.10109999999986,3.203599999998914-2.654300000001967,5.95509999999922-4.659700000000157,8.251000000000204-2.00630000000092,2.297899999999572-4.384700000000521,4.0625-7.134700000000521,5.290499999999156-2.751500000000306,1.228500000001077-5.809100000000399,1.844300000000658-9.173400000001493,1.844300000000658ZM182.007232646683406,536.921800000000076c4.206100000000333,0,7.635300000001735-1.293499999999767,10.289600000000064-3.882799999999406,2.652799999999843-2.587400000000343,3.980000000001382-6.535700000000361,3.980000000001382-11.84230000000025v-7.183600000000297c0-5.305699999998978-1.32720000000154-9.253899999999703-3.980000000001382-11.842799999998533-2.654299999998329-2.587400000000343-6.083499999999731-3.882800000001225-10.289600000000064-3.882800000001225-4.206999999998516,0-7.636699999999109,1.295400000000882-10.289499999998952,3.882800000001225-2.654300000000148,2.58889999999883-3.979999999999563,6.537099999999555-3.979999999999563,11.842799999998533v7.183600000000297c0,5.306599999999889,1.325699999999415,9.254899999999907,3.979999999999563,11.84230000000025,2.652799999999843,2.589299999999639,6.082500000000437,3.882799999999406,10.289499999998952,3.882799999999406Z"/><path class="uuid-50b5d6ef-1251-4ae7-bcfe-7afffd5191e3" d="M236.075632646683516,543.813900000001013c-3.494100000000799,0-6.63379999999961-.615799999999581-9.415499999999156-1.844300000000658-2.783199999999852-1.227999999999156-5.129899999999907-2.976000000000568-7.037599999999657-5.241700000000492-1.909700000000157-2.264599999998609-3.365799999999581-5.014599999998609-4.368200000000797-8.250899999999092-1.004399999997986-3.235399999999572-1.504899999999907-6.859399999999368-1.504899999999907-10.872100000000501,0-4.011699999999109.500500000001921-7.635800000000017,1.504899999999907-10.872099999998682,1.002400000001217-3.235300000000279,2.45850000000064-5.985300000000279,4.368200000000797-8.251000000000204,1.90769999999975-2.264600000000428,4.254399999999805-4.011700000000928,7.037599999999657-5.242200000000594,2.781699999999546-1.228500000001077,5.921399999998357-1.843699999999444,9.415499999999156-1.843699999999444,4.98240000000078,0,8.979000000001179,1.083999999998923,11.988800000000992,3.251499999998487,3.008800000001429,2.169400000000678,5.256800000001022,4.999499999999898,6.746100000000297,8.493599999999788l-6.503500000000713,3.300800000000891c-.907199999999648-2.587900000000445-2.395499999998719-4.594699999999648-4.465799999998126-6.018599999999424-2.071300000001429-1.422800000000279-4.659200000001874-2.135700000000725-7.765600000002451-2.135700000000725-2.329099999999016,0-4.368199999998978.372999999999593-6.115200000000186,1.11620000000039-1.747099999999591.745100000000093-3.203199999999924,1.780800000000454-4.368199999998978,3.106499999999869-1.164999999999054,1.327100000000428-2.03859999999986,2.912099999999555-2.621099999998478,4.75630000000092-.582000000002154,1.844699999999648-.873500000001513,3.867699999998877-.873500000001513,6.066899999999805v8.542999999999665c0,4.401299999999537,1.180100000001403,8.007799999999406,3.542900000000373,10.823199999998906,2.361899999999878,2.815000000000509,5.839400000000751,4.222200000000157,10.435099999998783,4.222200000000157,6.276400000002468,0,10.806599999999889-2.912099999999555,13.58980000000156-8.736399999999776l5.63039999999819,3.785700000000361c-1.618199999998978,3.625-4.028299999998126,6.503899999999703-7.231399999998757,8.639600000000428-3.203599999998914,2.135299999999916-7.200200000001132,3.203199999999924-11.988800000000992,3.203199999999924Z"/><path class="uuid-50b5d6ef-1251-4ae7-bcfe-7afffd5191e3" d="M270.146932646684945,480.814800000000105c-1.683600000001206,0-2.896999999999025-.403299999999945-3.640199999999822-1.212799999999334-.74460000000181-.809100000000399-1.11620000000039-1.85989999999947-1.11620000000039-3.155300000000352v-1.261699999999109c0-1.294000000001688.37159999999858-2.345300000000861,1.11620000000039-3.155300000000352.743200000000797-.808600000000297,1.956599999998616-1.212900000000445,3.640199999999822-1.212900000000445,1.682099999999991,0,2.895500000000538.404300000000148,3.640099999997801,1.212900000000445.743200000001707.809999999999491,1.116200000001299,1.861299999998664,1.116200000001299,3.155300000000352v1.261699999999109c0,1.295400000000882-.372999999999593,2.346199999999953-1.116200000001299,3.155300000000352-.744599999997263.809499999999389-1.95799999999781,1.212799999999334-3.640099999997801,1.212799999999334ZM266.26413264668372,492.5604000000003h7.765600000000632v50.088400000000547h-7.765600000000632v-50.088400000000547Z"/><path class="uuid-50b5d6ef-1251-4ae7-bcfe-7afffd5191e3" d="M309.363732646685094,543.813900000001013c-3.430700000000797,0-6.520500000000538-.615799999999581-9.270500000000538-1.844300000000658-2.751000000000204-1.227999999999156-5.112800000000789-2.992599999999584-7.08600000000115-5.290499999999156-1.975099999999657-2.295900000000984-3.494599999998172-5.047400000001289-4.5625-8.251000000000204-1.067799999998897-3.203100000000632-1.60149999999885-6.810499999999593-1.60149999999885-10.823200000000725,0-3.94629999999961.533699999999953-7.538099999999758,1.60149999999885-10.775400000000445,1.067900000001828-3.234399999999368,2.587400000000343-6.001999999998588,4.5625-8.299299999998766,1.973200000000361-2.296400000001086,4.335000000000946-4.060100000000602,7.08600000000115-5.290600000000268,2.75-1.228500000001077,5.839799999999741-1.843699999999444,9.270500000000538-1.843699999999444,3.364199999999983,0,6.372999999999593.612299999998868,9.027299999999741,1.837899999998626,2.653299999999945,1.225599999999758,4.917499999999563,2.91990000000078,6.794899999998961,5.079600000000937,1.876500000002125,2.159599999999045,3.316000000000713,4.723099999999249,4.319900000002235,7.689899999999398,1.002399999997579,2.966800000000148,1.504899999999907,6.223200000000361,1.504899999999907,9.769099999999526v3.677200000000084h-36.013700000001336v2.329100000000835c0,2.135800000000017.339799999999741,4.125500000000102,1.019500000000335,5.97019999999975.679199999998673,1.844300000000658,1.649900000000343,3.445799999999508,2.912099999999555,4.804700000000594,1.261700000000928,1.358899999999267,2.815000000000509,2.426799999999275,4.659200000000055,3.203599999998914,1.844199999999546.776400000000649,3.931599999999889,1.164600000000064,6.261200000000827,1.164600000000064,3.169999999997344,0,5.936599999999089-.743199999998978,8.299299999998766-2.232399999998961,2.361899999999878-1.487800000000789,4.189500000000407-3.623600000000806,5.48489999999947-6.406800000000658l5.533200000001671,4.005400000000009c-1.618600000000697,3.45260000000053-4.14259999999922,6.235800000000381-7.571800000001531,8.351599999999962-3.431099999997969,2.115700000000288-7.507799999999406,3.174300000000585-12.230899999998655,3.174300000000585ZM309.363732646685094,497.899300000000949c-2.135800000000017,0-4.077199999999721.370100000000093-5.824199999999109,1.110399999999572-1.747600000002421.740700000000288-3.252000000000407,1.785099999999147-4.513700000002245,3.135200000000623-1.262199999998302,1.349599999999555-2.249499999998989,2.942399999999907-2.960899999999128,4.774400000000242-.712899999998626,1.833499999998821-1.067900000000009,3.843299999998635-1.067900000000009,6.030299999998533v.674800000000687h27.665500000000975v-1.061499999999796c0-4.4375-1.213400000000547-7.989799999999377-3.64010000000053-10.659200000000055-2.426800000001094-2.668900000000576-5.647000000000844-4.004399999999805-9.658699999999953-4.004399999999805Z"/><path class="uuid-50b5d6ef-1251-4ae7-bcfe-7afffd5191e3" d="M354.889632646684731,542.648800000000847c-2.717800000001262,0-4.773000000000138-.757800000001225-6.164100000000872-2.274400000000242-1.392099999999118-1.517100000000937-2.086899999998423-3.503899999999703-2.086899999998423-5.958000000000538v-34.96389999999883h-8.251000000000204v-6.892100000000937h4.659199999998236c1.68210000000181,0,2.830600000001141-.339799999999741,3.446300000001429-1.019500000000335.614199999999983-.679199999998673.921799999998257-1.858899999999267.921799999998257-3.542499999999563v-9.319299999999203h6.989300000001094v13.881299999999101h10.969199999999546v6.892100000000937h-10.969199999999546v36.304699999998775h10.192399999999907v6.891600000000835h-9.706999999999425Z"/><path class="uuid-50b5d6ef-1251-4ae7-bcfe-7afffd5191e3" d="M408.763632646685437,492.5604000000003h7.668900000000576l-22.4233000000022,61.73739999999998c-.582500000000437,1.487699999999677-1.165099999998347,2.732900000000882-1.747599999998783,3.736800000000585-.582000000000335,1.002899999999499-1.29490000000078,1.796399999999267-2.135200000000623,2.378399999999601-.841799999998329.582500000000437-1.893100000001141,1.003399999999601-3.15480000000025,1.26220000000103-1.262199999999211.257799999999406-2.799800000000687.388199999999415-4.610799999998562.388199999999415h-3.979999999999563v-6.892100000000937h7.86279999999897l3.785599999999249-10.661099999999351-18.73489999999947-51.949800000000323h7.765699999999924l12.037100000001374,34.006400000000212,2.329599999997299,8.139199999999619h.485300000000279l2.717800000002171-8.139199999999619,12.13379999999961-34.006400000000212Z"/><path class="uuid-50b5d6ef-1251-4ae7-bcfe-7afffd5191e3" d="M124.503421093750148,637.561478125000576l-2.416015625-7.677734375h-10.69775390625l-2.37255859375,7.677734375h-5.7802734375l10.09423828125-30.109375h7.07421875l10.0078125,30.109375h-5.90966796875ZM116.825198437500148,612.628860937500576h-.2158203125l-3.83935546875,12.3798828125h7.93701171875l-3.8818359375-12.3798828125Z"/><path class="uuid-50b5d6ef-1251-4ae7-bcfe-7afffd5191e3" d="M153.964846875000148,637.561478125000576l-2.416015625-7.677734375h-10.69775390625l-2.37255859375,7.677734375h-5.7802734375l10.09423828125-30.109375h7.07421875l10.0078125,30.109375h-5.90966796875ZM146.286135937500148,612.628860937500576h-.21533203125l-3.83935546875,12.3798828125h7.93701171875l-3.88232421875-12.3798828125Z"/></g></svg>