<?xml version="1.0" encoding="UTF-8"?><svg id="uuid-1c159442-3ac6-4a35-b731-df9af0657bc3" xmlns="http://www.w3.org/2000/svg" width="690.992772677885341mm" height="250.004011800871723mm" xmlns:xlink="http://www.w3.org/1999/xlink" viewBox="0 0 1958.719700000000557 708.67279999999937"><defs><style>.uuid-c8886832-bb85-49e7-99ad-e60a37258646{fill:#00c2f3;}.uuid-1b160398-c52a-4049-9ef3-8016a5f98722{fill:#fff;}.uuid-1f733105-ad35-4c9d-bde1-187e6e51c00d{clip-path:url(#uuid-c8e745cb-9812-4084-8ebc-16d68beae500);}.uuid-8602520e-d70b-4282-948f-886d1142ce85{fill:none;}.uuid-fab94b2c-69cc-4fe0-92e9-3b948c5adf6a{fill:#333e48;}</style><clipPath id="uuid-c8e745cb-9812-4084-8ebc-16d68beae500"><rect class="uuid-8602520e-d70b-4282-948f-886d1142ce85" x="-.000000000000455" width="1958.719700000000557" height="708.673799999999574"/></clipPath></defs><g class="uuid-1f733105-ad35-4c9d-bde1-187e6e51c00d"><path class="uuid-1b160398-c52a-4049-9ef3-8016a5f98722" d="M158.441400000000613,271.574199999999109c-9.105500000000575,21.52730000000065-14.519600000000537,44.144500000000335-16.170900000000074,67.425800000000891,3.588799999999537-2.921900000000278,8.160100000000057-4.679700000000594,13.137699999999313-4.679700000000594,5.495100000000093,0,10.487300000000687,2.152299999999741,14.216800000000148,5.636700000000019,7.337800000000243-95.593799999999646,87.224600000000464-170.873099999999795,184.701100000000224-170.873099999999795,7.552800000000389,0,13.674800000000687-6.122999999999593,13.674800000000687-13.675699999999779,0-7.552800000000389-6.122000000000298-13.675800000000891-13.674800000000687-13.675800000000891-28.689399999999296,0-56.536099999999351,5.625-82.766599999999926,16.718700000000354-25.317399999999907,10.71100000000024-48.050799999999981,26.033199999999852-67.566400000000613,45.550799999999981-19.518499999999221,19.51760000000013-34.844699999999648,42.25-45.551699999999073,67.572299999999814Z"/><path class="uuid-1b160398-c52a-4049-9ef3-8016a5f98722" d="M339.185500000000502,538.970699999999852c-94.95510000000013-7.683600000000297-169.672900000000482-86.964900000000853-170.101599999999962-183.796900000000278,0-7.552800000000389-6.120100000000093-13.675799999999981-13.675700000000688-13.675799999999981-7.552799999999479,0-13.675799999999072,6.122999999999593-13.675799999999072,13.675799999999981.109300000000076,28.394499999999425,5.721700000000055,55.953099999999722,16.708999999999833,81.925799999999981,10.706999999999425,25.320299999999406,26.033199999999852,48.054599999999482,45.551699999999073,67.570299999999406,19.515600000000632,19.517600000001039,42.249000000000706,34.841800000000148,67.566400000000613,45.552700000000186,21.256900000000314,8.988300000000891,43.574200000000019,14.384799999999814,66.540100000000166,16.109400000000278-2.886800000000221-3.578099999999722-4.626999999999498-8.121099999999387-4.626999999999498-13.066399999999703,0-5.535200000000259,2.183599999999387-10.558600000000297,5.712899999999536-14.29489999999987Z"/><path class="uuid-1b160398-c52a-4049-9ef3-8016a5f98722" d="M502.52730000000065,487.412099999999555c-2.66989999999987-2.670000000000073-6.169000000000779-4.003899999999703-9.669000000000779-4.003899999999703-3.498999999999796,0-7.000899999999092,1.33389999999963-9.671800000000076,4.003899999999703-33.342799999999443,32.292900000000373-78.777399999999034,52.177700000000186-128.860399999999572,52.177700000000186-7.552700000000186,0-13.675799999999981,6.122999999999593-13.675799999999981,13.675799999999981,0,7.552699999999277,6.123099999999795,13.675799999999981,13.675799999999981,13.675799999999981,28.690500000000611,0,56.534200000000055-5.625,82.763700000000426-16.718800000000556,24.407199999999648-10.322299999999814,46.40139999999974-24.949199999999109,65.4375-43.468699999999444,5.343700000000354-5.339899999999943,5.343700000000354-14,0-19.341800000000148Z"/><path class="uuid-1b160398-c52a-4049-9ef3-8016a5f98722" d="M354.326100000000224,566.941399999999703c-7.552700000000186,0-13.675799999999981-6.123100000000704-13.675799999999981-13.675799999999981,0-7.552800000000389,6.123099999999795-13.675799999999981,13.675799999999981-13.675799999999981,50.083000000000538,0,95.51760000000013-19.884799999999814,128.860399999999572-52.177700000000186,2.670900000000984-2.670000000000073,6.172800000000279-4.003899999999703,9.671800000000076-4.003899999999703,3.5,0,6.999100000000908,1.33389999999963,9.669000000000779,4.003899999999703,5.343700000000354,5.341800000000148,5.343700000000354,14.001900000000205,0,19.341800000000148-19.03610000000026,18.519500000000335-41.030300000000352,33.14639999999963-65.4375,43.468699999999444-26.229500000000371,11.093800000000556-54.073199999999815,16.718800000000556-82.763700000000426,16.718800000000556ZM271.559500000000298,550.222599999999147c-25.317399999999907-10.710900000000038-48.050799999999981-26.035099999999147-67.566400000000613-45.552700000000186-19.518499999999221-19.515699999999924-34.844699999999648-42.25-45.551699999999073-67.570299999999406-10.987299999999777-25.972700000000259-16.599699999999757-53.531300000000556-16.708999999999833-81.925799999999981,0-7.552800000000389,6.122999999999593-13.675799999999981,13.675799999999072-13.675799999999981,7.555600000000595,0,13.675700000000688,6.122999999999593,13.675700000000688,13.675799999999981.42869999999948,96.831999999999425,75.146499999999833,176.113299999999981,170.101599999999962,183.796900000000278-3.529300000000148,3.736299999999574-5.712899999999536,8.759699999999611-5.712899999999536,14.29489999999987,0,4.945300000000316,1.740199999999277,9.488299999999981,4.626999999999498,13.066399999999703-22.965900000000147-1.724600000000464-45.283199999999852-7.121099999999387-66.540100000000166-16.109400000000278ZM354.326100000000224,141.732399999998961c7.552800000000389,0,13.674800000000687,6.123000000000502,13.674800000000687,13.675800000000891,0,7.552700000000186-6.122000000000298,13.675699999999779-13.674800000000687,13.675699999999779-97.47649999999976,0-177.363299999999981,75.279300000000148-184.701100000000224,170.873099999999795-3.729499999999462-3.484400000000278-8.721700000000055-5.636700000000019-14.216800000000148-5.636700000000019-4.977599999999256,0-9.548899999999776,1.757800000000316-13.137699999999313,4.679700000000594,1.651299999999537-23.281300000000556,7.065399999999499-45.89850000000024,16.170900000000074-67.425800000000891,10.706999999999425-25.322299999999814,26.033199999999852-48.054699999999684,45.551699999999073-67.572299999999814,19.515600000000632-19.51760000000013,42.249000000000706-34.839799999999741,67.566400000000613-45.550799999999981,26.230500000000575-11.093700000000354,54.07720000000063-16.718700000000354,82.766599999999926-16.718700000000354Z"/><path class="uuid-1b160398-c52a-4049-9ef3-8016a5f98722" d="M466.913000000000466,241.75c-30.07129999999961-30.070400000000518-70.056599999999889-46.630900000000111-112.586900000000242-46.630900000000111-42.528299999999945,0-82.513600000000224,16.560499999999593-112.583999999999833,46.630900000000111-30.072199999999611,30.074199999999109-46.636700000000019,70.058499999999185-46.636700000000019,112.587799999999334s16.564500000000407,82.509799999999814,46.636700000000019,112.584000000000742c30.070399999999609,30.072299999999814,70.055699999999888,46.636699999999109,112.583999999999833,46.636699999999109,42.530300000000352,0,82.515600000000632-16.564399999999296,112.586900000000242-46.636699999999109,30.072299999999814-30.074200000000928,46.631900000000314-70.054700000000594,46.631900000000314-112.584000000000742s-16.559600000000501-82.513600000000224-46.631900000000314-112.587799999999334Z"/><path class="uuid-fab94b2c-69cc-4fe0-92e9-3b948c5adf6a" d="M242.11620000000039,405.826099999999315v-102.978500000000167h22.333000000000538v7.613300000000891h-12.945300000000316v87.753899999999703h12.945300000000316v7.611299999999574h-22.333000000000538Z"/><path class="uuid-fab94b2c-69cc-4fe0-92e9-3b948c5adf6a" d="M466.538000000000466,302.847599999999147v102.978500000000167h-22.329999999999927v-7.611299999999574h12.939399999999296v-87.753899999999703h-12.939399999999296v-7.613300000000891h22.329999999999927Z"/><path class="uuid-c8886832-bb85-49e7-99ad-e60a37258646" d="M293.986300000000483,375.257799999999406c0,2.056599999999889.032199999999648,4.484300000000076.094699999999648,7.27139999999963.063500000000204,2.789099999999962.151400000000649,5.623100000000704.259799999999814,8.496100000000297.106400000000576,2.873100000000704.234300000000076,5.621100000000297.386700000000928,8.238299999999981.147499999999127,2.617199999999684.331000000000131,4.804699999999684.544899999998961,6.5625h-13.193299999998999v-72.730399999999463c0-6.263700000000426-.106499999999869-11.9375-.322299999999814-17.021500000000742-.212900000000445-5.085999999999331-.535200000000259-9.496099999999387-.965799999999945-13.226599999999962h13.195299999999406v72.410200000000259Z"/><path class="uuid-c8886832-bb85-49e7-99ad-e60a37258646" d="M351.592700000001059,340.177699999999277v8.433600000000297h-12.100600000000668v48.785100000000057h12.100600000000668v8.431700000000092h-36.042000000001281v-8.431700000000092h11.906300000000556v-48.785100000000057h-11.906300000000556v-8.433600000000297h36.042000000001281Z"/><path class="uuid-c8886832-bb85-49e7-99ad-e60a37258646" d="M378.626900000000205,340.177699999999277c.256800000000112.6875.51470000000063,1.576200000000426.771499999999833,2.673800000000483.260700000000725,1.091799999999239.492200000000594,2.238299999999981.709000000000742,3.441399999999703.211900000000242,1.201200000000426.40519999999924,2.380900000000111.58009999999922,3.539099999999962l.511700000000928,2.894500000000335c4.121099999999387-4.890599999999722,8.259699999999611-8.418000000000575,12.42279999999937-10.585900000000038,4.162100000000464-2.166000000000167,8.499000000000706-3.25,13.001999999999498-3.25,3.433600000000297,0,6.469700000000557.568299999999908,9.10740000000078,1.70510000000013,2.638699999999517,1.138600000000224,4.860300000000279,2.941399999999703,6.663099999999758,5.406199999999444,1.799800000000687,2.468800000000556,3.16110000000026,5.666000000000167,4.086900000000242,9.591800000000148.922800000000279,3.925799999999981,1.382799999999406,8.654300000000148,1.382799999999406,14.193400000000111v28.95889999999963c0,7.252000000000407-.63379999999961,13.27350000000024-1.900399999999536,18.054700000000594-1.262700000000223,4.787099999999555-3.03610000000026,8.605499999999665-5.308599999999387,11.460999999999331-2.272400000000744,2.849600000000464-5.010700000000725,4.869099999999889-8.207000000000335,6.046800000000076-3.19630000000052,1.181700000000092-6.747100000000501,1.771500000000742-10.652400000000853,1.771500000000742-1.929599999999482,0-4.000899999999092-.3125-6.209899999999834-.933600000000297-2.208999999999833-.622999999999593-4.214899999999034-1.490200000000186-6.01759999999922-2.60739999999987l4.183599999999387-9.654300000000148c.987299999999777.730499999999665,2.305699999999888,1.339899999999943,3.957999999999629,1.83600000000024,1.651400000000649.492099999999482,3.336900000000242.738199999999779,5.049800000000687.738199999999779,2.0625,0,3.907199999999648-.332000000000335,5.540100000000166-.996100000000297,1.628899999999703-.665999999999258,3.011699999999109-1.83389999999963,4.148400000000038-3.507799999999406,1.137699999999313-1.673800000000483,2.006799999999203-3.968700000000354,2.608399999999165-6.886700000000928.599600000000464-2.919899999998961.900400000000445-6.630799999998999.900400000000445-11.136699999999109v-28.318400000000111c0-5.150400000000445-.268599999999424-9.324200000000019-.804699999999684-12.519500000000335-.53610000000026-3.197299999999814-1.342800000000352-5.6875-2.414999999999964-7.466800000000148-1.07129999999961-1.779300000000148-2.413099999999758-2.970699999999852-4.024500000000444-3.574200000000019-1.606399999999667-.59769999999935-3.483400000000074-.89850000000024-5.629799999999705-.89850000000024-2.316399999999703,0-4.577199999999721.546900000000278-6.788099999999758,1.642600000001039-2.208000000000538,1.091799999999239-4.240300000000389,2.509799999999814-6.085000000000946,4.248099999998885-1.844699999999648,1.734300000000076-3.474599999999555,3.697200000000521-4.889599999999518,5.888600000000224-1.415099999999256,2.1875-2.467799999999443,4.375-3.156299999999646,6.564500000000407v37.33010000000013h-11.905300000000352v-39.582100000000537c0-6.35149999999976-.36620000000039-11.72649999999976-1.095699999999852-16.125-.727499999999964-4.398400000000038-1.438400000000001-7.712799999999334-2.123999999999796-9.943299999999908h11.587899999999536Z"/><path class="uuid-1b160398-c52a-4049-9ef3-8016a5f98722" d="M626.665976719670653,336.839199999999437v-100.471099999999751h12.090799694559792v89.819300000000112h42.750998920019811v10.651799999999639h-54.841798614579602Z"/><path class="uuid-1b160398-c52a-4049-9ef3-8016a5f98722" d="M703.385674781569833,245.148299999999836c-2.497099936919767,0-4.295899891480076-.597600000000057-5.397474781570054-1.798800000000483-1.104425054179956-1.199200000000019-1.656225040239406-2.756800000000112-1.656225040239406-4.67869999999948v-1.871100000000297c0-1.918499999999767.55179998605945-3.477499999999964,1.656225040239406-4.678200000000288,1.101574890089978-1.198800000000119,2.900374844650287-1.799299999999675,5.397474781570054-1.799299999999675,2.494125218430781,0,4.294025218430761.600499999999556,5.397525218430019,1.799299999999675,1.102500000000873,1.200700000000325,1.655200000001059,2.759700000000521,1.655200000001059,4.678200000000288v1.871100000000297c0,1.921899999999368-.552700000000186,3.479499999999462-1.655200000001059,4.67869999999948-1.103499999999258,1.201200000000426-2.903399999999237,1.798800000000483-5.397525218430019,1.798800000000483ZM697.627874927020457,262.566299999999501h11.515625072979674v74.272899999999936h-11.515625072979674v-74.272899999999936Z"/><path class="uuid-1b160398-c52a-4049-9ef3-8016a5f98722" d="M733.613199999999779,336.839199999999437v-74.272899999999936h11.515700000000834v11.953099999999722h.576099999999315c1.82130000000052-4.17869999999948,4.38970000000063-7.505799999999908,7.700200000001132-9.974599999999555,3.311599999999089-2.469699999999648,7.748099999998885-3.706500000000233,13.314499999999498-3.706500000000233,7.676800000000185,0,13.747099999999591,2.471199999999953,18.208999999999833,7.412599999999657,4.461900000000242,4.943300000000818,6.693299999999908,11.925700000000688,6.693299999999908,20.94380000000092v47.644499999999425h-11.514599999999518v-45.728500000000167c0-13.368599999999788-5.615200000000186-20.052700000000186-16.841800000000148-20.052700000000186-2.302700000000186,0-4.535200000000259.290500000000975-6.693400000000111.865700000000288-2.159100000000763.578100000000632-4.102499999999964,1.443900000000212-5.829999999999927,2.597700000000259-1.726599999999962,1.153800000000047-3.09480000000076,2.620100000000093-4.101599999999962,4.399400000000242-1.007800000000316,1.778800000000047-1.511700000000019,3.871099999999387-1.511700000000019,6.274899999999434v51.643500000000131h-11.515700000000834Z"/><path class="uuid-1b160398-c52a-4049-9ef3-8016a5f98722" d="M874.387700000000223,334.392499999999927c0,10.266599999999016-2.878899999999703,18.328099999999722-8.636799999999312,24.181599999999889-5.757800000000316,5.852999999999156-13.868100000000595,8.781299999999646-24.326100000000224,8.781299999999646-6.045900000000074,0-11.253000000000611-.940499999999702-15.618200000000797-2.818400000000111-4.367199999999684-1.882300000000214-7.988299999999072-4.363299999999981-10.867199999999684-7.447299999999814l6.765599999999722-7.952099999999518c2.494200000001001,2.568299999998999,5.373100000000704,4.544899999998961,8.636800000000221,5.926299999999173,3.260700000000725,1.380800000000818,7.052700000000186,2.070800000000418,11.371100000000297,2.070800000000418,6.715799999999945,0,11.921800000000076-1.855500000000575,15.617099999999482-5.563500000000204,3.693400000000111-3.71389999999974,5.542000000000371-9.183599999999387,5.542000000000371-16.411600000000362v-10.273999999999432h-.575200000000223c-2.20889999999963,4.561099999999897-5.087799999999334,7.979499999999462-8.636699999999109,10.259799999999814-3.551699999999983,2.281200000000354-7.917000000000371,3.421400000000176-13.099600000000464,3.421400000000176-4.605500000000575,0-8.779300000000148-.91359999999986-12.522400000000744-2.73490000000038-3.742199999998775-1.822199999999611-6.909199999999146-4.413099999999758-9.5-7.772399999999834-2.590899999999237-3.358400000000074-4.606499999999869-7.435599999999795-6.045899999999165-12.235399999999572-1.439500000000407-4.79740000000038-2.158199999999852-10.170900000000074-2.158199999999852-16.122100000000501,0-5.948199999999815.718699999999444-11.32169999999951,2.158199999999852-16.121100000000297,1.439399999999296-4.797299999999268,3.454999999999927-8.87539999999899,6.045899999999165-12.23529999999937,2.590800000000854-3.357899999999972,5.757800000001225-5.948699999999917,9.5-7.772500000000036,3.743100000000595-1.822200000000521,7.916900000000169-2.734800000000178,12.522400000000744-2.734800000000178,5.182600000000093,0,9.619200000000092,1.117599999999584,13.315400000000409,3.34860000000026,3.692399999999907,2.233400000000074,6.499099999999089,5.676800000000185,8.420899999999165,10.332499999999527h.575200000000223v-11.953099999999722h11.515699999999924v71.826200000000426ZM844.015600000000632,328.346599999998944c2.591800000000148,0,5.038099999999758-.337399999999434,7.341800000000148-1.012199999999211,2.302700000000186-.674800000000687,4.292999999999665-1.664600000000064,5.972599999999147-2.966300000000047,1.677800000000389-1.29989999999998,3.02350000000115-2.89260000000013,4.031300000000556-4.772500000000036,1.006800000000112-1.880400000000009,1.510699999999815-4.075200000000223,1.510699999999815-6.582999999999629v-27.632300000000214c0-2.024000000000342-.481399999999667-3.929200000000492-1.439400000000205-5.715400000000045-.959999999999127-1.783199999999852-2.30369999999948-3.301199999999881-4.030299999999443-4.556099999999788-1.727499999999964-1.252500000000509-3.742199999999684-2.240700000000288-6.04489999999987-2.964400000000751-2.30370000000039-.724099999999453-4.75-1.08640000000014-7.341800000000148-1.08640000000014-6.527400000000853,0-11.709000000000742,2.073200000000725-15.54490000000078,6.221199999999953-3.839899999999034,4.147400000000744-5.757799999999406,9.499500000000808-5.757799999999406,16.058100000000195v12.730000000000473c0,6.558599999999387,1.917900000000373,11.91110000000026,5.757799999999406,16.058599999999387,3.835900000000038,4.146900000000642,9.017499999999927,6.220699999999852,15.54490000000078,6.220699999999852Z"/><path class="uuid-1b160398-c52a-4049-9ef3-8016a5f98722" d="M944.628900000000613,324.885599999999613h-.576200000000426c-.768599999999424,1.711499999999432-1.704099999999926,3.398499999999331-2.806599999999889,5.060599999999795-1.10360000000037,1.662100000000464-2.470699999999852,3.134699999999611-4.101599999999962,4.416500000000269-1.632799999999406,1.282199999999648-3.598599999999351,2.30370000000039-5.902299999999741,3.063900000000103-2.302800000000389.759799999999814-4.990300000000389,1.140199999999822-8.060600000000704,1.140199999999822-7.677699999999277,0-13.771499999998923-2.469700000000557-18.280299999999443-7.41359999999986-4.511700000000019-4.940900000000511-6.765599999999722-11.921900000000278-6.765599999999722-20.942900000000009v-47.644000000000233h11.515599999999722v45.727499999999964c0,13.36869999999999,5.661199999999553,20.052799999999479,16.985400000000482,20.052799999999479,2.302699999999277,0,4.534200000000055-.287099999999555,6.693299999998999-.86619999999948,2.159200000000055-.575200000000223,4.07720000000063-1.440499999999702,5.757900000000518-2.59479999999985,1.677700000000186-1.154300000000148,3.022399999999834-2.620100000000093,4.029300000000148-4.399400000000242,1.007799999999406-1.778299999999945,1.511700000000019-3.91989999999987,1.511700000000019-6.421400000000176v-51.498499999999694h11.515599999999722v74.272899999999936h-11.515599999999722v-11.953599999999824Z"/><path class="uuid-1b160398-c52a-4049-9ef3-8016a5f98722" d="M986.371100000000297,245.148299999999836c-2.496100000000297,0-4.295000000000073-.597600000000057-5.397500000000036-1.798800000000483-1.104500000000371-1.199200000000019-1.655299999999443-2.756800000000112-1.655299999999443-4.67869999999948v-1.871100000000297c0-1.918499999999767.550799999999072-3.477499999999964,1.655299999999443-4.678200000000288,1.102499999999964-1.198800000000119,2.90139999999974-1.799299999999675,5.397500000000036-1.799299999999675,2.494099999999889,0,4.293900000000576.600499999999556,5.398400000000038,1.799299999999675,1.101599999999962,1.200700000000325,1.654300000000148,2.759700000000521,1.654300000000148,4.678200000000288v1.871100000000297c0,1.921899999999368-.552700000000186,3.479499999999462-1.654300000000148,4.67869999999948-1.104499999999462,1.201200000000426-2.904300000000148,1.798800000000483-5.398400000000038,1.798800000000483ZM980.613199999999779,262.566299999999501h11.515700000000834v74.272899999999936h-11.515700000000834v-74.272899999999936Z"/><path class="uuid-1b160398-c52a-4049-9ef3-8016a5f98722" d="M1038.910100000000966,338.566799999999603c-6.909200000000055,0-12.691400000000613-1.319800000000214-17.344700000000557-3.958499999999731-4.655299999999443-2.638200000000325-8.66110000000026-6.165100000000166-12.019499999999425-10.58010000000013l8.204099999999016-6.621100000000297c2.878900000000613,3.648000000000138,6.093700000000354,6.45510000000013,9.644500000000335,8.41989999999987,3.548800000000483,1.968800000000556,7.676800000000185,2.951700000000528,12.378899999999703,2.951700000000528,4.894500000000335,0,8.709000000000742-1.055199999999786,11.443400000000111-3.166500000000269,2.735300000000279-2.10990000000038,4.102500000000873-5.085900000000038,4.102500000000873-8.924799999999777,0-2.878900000000613-.935500000000502-5.348200000000361-2.806600000000799-7.413100000000668-1.872099999999591-2.0625-5.253899999999703-3.476599999999962-10.147500000000036-4.246099999999387l-5.902299999999741-.863800000000083c-3.45510000000013-.479000000000269-6.621100000000297-1.223100000000159-9.5-2.230900000000474s-5.397500000000036-2.350599999999758-7.556700000000092-4.030299999999443c-2.159200000000055-1.677700000000186-3.839799999999741-3.76510000000053-5.038099999999758-6.261700000000019-1.201100000000224-2.494099999999889-1.799799999999777-5.469700000000557-1.799799999999777-8.923800000000483,0-3.646499999999833.669899999998961-6.837399999999434,2.015699999999924-9.572799999999916,1.34269999999924-2.73489999999947,3.189399999999296-5.012200000000121,5.541900000000169-6.836900000000242,2.350599999999758-1.821799999999712,5.157299999998941-3.189899999999398,8.420000000000073-4.102100000000064,3.261699999999109-.911099999999351,6.765599999998813-1.367599999999584,10.50879999999961-1.367599999999584,6.04489999999987,0,11.105400000000373,1.057099999999991,15.185499999999593,3.166500000000269,4.077100000000428,2.112299999999777,7.651400000000649,5.038099999999758,10.72360000000026,8.78020000000015l-7.629799999999705,6.909200000000055c-1.632900000000518-2.302700000000186-4.029300000000148-4.39010000000053-7.19630000000052-6.260700000000725-3.167000000000371-1.871599999999489-7.149500000000444-2.807600000000093-11.947299999999814-2.807600000000093-4.799799999999777,0-8.420900000000074,1.032200000000557-10.868199999999888,3.095200000000659-2.44629999999961,2.063900000000103-3.66989999999987,4.871599999999489-3.66989999999987,8.420399999999972,0,3.648400000000038,1.22360000000026,6.286099999999351,3.66989999999987,7.91649999999936,2.447299999999814,1.633300000000418,5.974599999999555,2.831500000000233,10.58010000000013,3.599100000000362l5.757800000000316.863299999999981c8.251999999999498,1.247999999999593,14.106499999999869,3.623499999999694,17.560599999998885,7.125,3.454999999999927,3.504899999999907,5.182600000000093,8.085399999999936,5.182600000000093,13.746100000000297,0,7.197299999999814-2.447299999999814,12.860799999999472-7.340799999999945,16.985799999999472-4.894599999999627,4.127500000000509-11.613299999999072,6.189500000000407-20.152399999999034,6.189500000000407Z"/><path class="uuid-1b160398-c52a-4049-9ef3-8016a5f98722" d="M1102.101500000000669,336.839199999999437c-4.029300000000148,0-7.077100000000428-1.124499999999898-9.139600000000428-3.373499999999694-2.064500000000407-2.249000000000706-3.094699999999648-5.195300000000316-3.094699999999648-8.834499999999935v-51.846199999999953h-12.235399999999572v-10.218700000000354h6.909200000000055c2.494099999999889,0,4.197199999998702-.504899999999907,5.11029999999937-1.512700000000223.911199999999553-1.006800000000112,1.367199999999684-2.756800000000112,1.367199999999684-5.252899999999499v-13.819400000000314h10.364300000000185v20.585000000000036h16.265599999999722v10.218700000000354h-16.265599999999722v53.835000000000036h15.113299999999981v10.219199999999546h-14.394599999999627Z"/><path class="uuid-1b160398-c52a-4049-9ef3-8016a5f98722" d="M1141.97360000000026,245.148299999999836c-2.496099999999387,0-4.295900000000074-.597600000000057-5.397500000000036-1.798800000000483-1.104499999999462-1.199200000000019-1.65519999999924-2.756800000000112-1.65519999999924-4.67869999999948v-1.871100000000297c0-1.918499999999767.550699999999779-3.477499999999964,1.65519999999924-4.678200000000288,1.101599999999962-1.198800000000119,2.901400000000649-1.799299999999675,5.397500000000036-1.799299999999675,2.495100000000093,0,4.293899999999667.600499999999556,5.397500000000036,1.799299999999675,1.102499999999964,1.200700000000325,1.656200000000354,2.759700000000521,1.656200000000354,4.678200000000288v1.871100000000297c0,1.921899999999368-.55370000000039,3.479499999999462-1.656200000000354,4.67869999999948-1.10360000000037,1.201200000000426-2.902399999999943,1.798800000000483-5.397500000000036,1.798800000000483ZM1136.215799999999945,262.566299999999501h11.515600000000632v74.272899999999936h-11.515600000000632v-74.272899999999936Z"/><path class="uuid-1b160398-c52a-4049-9ef3-8016a5f98722" d="M1199.837900000000445,338.566799999999603c-5.181700000000092,0-9.836999999999534-.91359999999986-13.961999999999534-2.73490000000038-4.126900000001115-1.822199999999611-7.606400000000576-4.413099999999758-10.435500000000502-7.772399999999834-2.831999999999425-3.358400000000074-4.99119999999948-7.435599999999795-6.477499999999964-12.235399999999572-1.488299999999981-4.79740000000038-2.230499999999665-10.170900000000074-2.230499999999665-16.122100000000501,0-5.948199999999815.742199999999684-11.32169999999951,2.230499999999665-16.121100000000297,1.486300000000483-4.797299999999268,3.645500000000538-8.87539999999899,6.477499999999964-12.23529999999937,2.829099999999926-3.357899999999972,6.308599999999387-5.948699999999917,10.435500000000502-7.772500000000036,4.125-1.822200000000521,8.780299999999443-2.734800000000178,13.961999999999534-2.734800000000178,7.388600000000224,0,13.315399999999499,1.607899999999972,17.777299999999741,4.821700000000419,4.461900000000242,3.216399999999339,7.79490000000078,7.413099999999758,10.003899999999703,12.59479999999985l-9.644499999999425,4.894499999999425c-1.343799999999646-3.837399999999434-3.550799999999981-6.813000000000102-6.621099999999387-8.924799999999777-3.072300000000723-2.109400000000278-6.909200000000055-3.166500000000269-11.515600000000632-3.166500000000269-3.454099999999926,0-6.476599999999962.553200000000288-9.068400000000111,1.655300000000352-2.589799999999741,1.104000000000269-4.75,2.64010000000053-6.476599999999962,4.606400000000576-1.727499999999964,1.967299999999341-3.023400000000038,4.318399999999201-3.886700000000019,7.052699999999277-.863299999999981,2.73490000000038-1.295900000000074,5.735900000000584-1.295900000000074,8.995700000000397v12.666900000000169c0,6.527899999999136,1.75,11.876000000000204,5.254899999999907,16.050299999999879,3.501000000000204,4.174399999999878,8.658199999999852,6.26129999999921,15.472700000000259,6.26129999999921,9.306599999999889,0,16.025299999999334-4.318399999999201,20.152299999999741-12.95509999999922l8.34860000000026,5.614199999999983c-2.399400000000242,5.375500000000102-5.97360000000026,9.644599999999627-10.72360000000026,12.811099999999897s-10.675799999999981,4.75-17.777299999999741,4.75Z"/><path class="uuid-1b160398-c52a-4049-9ef3-8016a5f98722" d="M1266.914000000000669,338.566799999999603c-6.909200000000055,0-12.691399999999703-1.319800000000214-17.344699999999648-3.958499999999731-4.655300000000352-2.638200000000325-8.66110000000117-6.165100000000166-12.019500000000335-10.58010000000013l8.204099999999926-6.621100000000297c2.878899999999703,3.648000000000138,6.093700000000354,6.45510000000013,9.644499999999425,8.41989999999987,3.548800000000483,1.968800000000556,7.675800000000891,2.951700000000528,12.378900000000613,2.951700000000528,4.894499999999425,0,8.708999999999833-1.055199999999786,11.443399999999201-3.166500000000269,2.735300000000279-2.10990000000038,4.102500000000873-5.085900000000038,4.102500000000873-8.924799999999777,0-2.878900000000613-.935500000000502-5.348200000000361-2.806599999999889-7.413100000000668-1.872100000000501-2.0625-5.253900000000613-3.476599999999962-10.147500000000946-4.246099999999387l-5.902299999999741-.863800000000083c-3.45509999999922-.479000000000269-6.621100000000297-1.223100000000159-9.5-2.230900000000474s-5.397499999999127-2.350599999999758-7.556699999999182-4.030299999999443c-2.159200000000055-1.677700000000186-3.83980000000065-3.76510000000053-5.038100000000668-6.261700000000019-1.201099999999315-2.494099999999889-1.799799999999777-5.469700000000557-1.799799999999777-8.923800000000483,0-3.646499999999833.670000000000073-6.837399999999434,2.015699999999924-9.572799999999916,1.34270000000015-2.73489999999947,3.189400000000205-5.012200000000121,5.541900000000169-6.836900000000242,2.350599999999758-1.821799999999712,5.15729999999985-3.189899999999398,8.420000000000073-4.102100000000064,3.260699999999815-.911099999999351,6.765599999999722-1.367599999999584,10.50879999999961-1.367599999999584,6.04490000000078,0,11.105400000000373,1.057099999999991,15.185499999999593,3.166500000000269,4.07720000000063,2.112299999999777,7.651400000000649,5.038099999999758,10.72360000000117,8.78020000000015l-7.629800000000614,6.909200000000055c-1.632900000000518-2.302700000000186-4.029300000000148-4.39010000000053-7.197299999999814-6.260700000000725-3.166000000000167-1.871599999999489-7.148400000000038-2.807600000000093-11.94629999999961-2.807600000000093-4.799800000000687,0-8.420900000000984,1.032200000000557-10.868200000000797,3.095200000000659-2.44629999999961,2.063900000000103-3.66989999999987,4.871599999999489-3.66989999999987,8.420399999999972,0,3.648400000000038,1.22360000000026,6.286099999999351,3.66989999999987,7.91649999999936,2.447299999999814,1.633300000000418,5.974599999999555,2.831500000000233,10.58010000000013,3.599100000000362l5.757800000000316.863299999999981c8.252000000000407,1.247999999999593,14.106499999999869,3.623499999999694,17.560599999999795,7.125,3.45510000000013,3.504899999999907,5.181599999999889,8.085399999999936,5.181599999999889,13.746100000000297,0,7.197299999999814-2.44630000000052,12.860799999999472-7.339799999999741,16.985799999999472-4.894600000000537,4.127500000000509-11.613299999999981,6.189500000000407-20.152399999999943,6.189500000000407Z"/><path class="uuid-1b160398-c52a-4049-9ef3-8016a5f98722" d="M1378.03610000000026,338.566799999999603c-8.157199999999648,0-15.114300000000185-1.561099999999897-20.872099999999591-4.678200000000288-5.757800000000316-3.117199999999684-10.651300000000447-7.413099999999758-14.681599999999889-12.882899999999609l8.923799999999574-7.485300000000279c3.549799999999777,4.703100000000632,7.485400000000482,8.276899999999841,11.80369999999948,10.72360000000026,4.318400000000111,2.447299999999814,9.403299999999945,3.670900000000074,15.257800000001225,3.670900000000074,7.197299999999814,0,12.689499999999498-1.727499999999964,16.481499999999869-5.181599999999889,3.78899999999885-3.45510000000013,5.685499999999593-8.061499999999796,5.685499999999593-13.818900000000212,0-4.796800000000076-1.439400000000205-8.492100000000391-4.318299999999908-11.082500000000437-2.878900000000613-2.591800000000148-7.628900000000613-4.654300000000148-14.25-6.190399999999499l-8.20510000000013-1.871100000000297c-9.211900000000242-2.110399999999572-16.242200000000594-5.301300000000083-21.086900000000242-9.57129999999961-4.846700000000055-4.269500000000335-7.269599999999627-10.293000000000575-7.269599999999627-18.065900000000511,0-4.412599999999657.814500000000407-8.348199999999451,2.447299999999814-11.802699999999277,1.630900000000111-3.454600000000937,3.909200000000055-6.33350000000064,6.836900000000242-8.636300000000119,2.925799999999981-2.30370000000039,6.427799999999479-4.05370000000039,10.507799999999406-5.253900000000613,4.078199999999924-1.199200000000019,8.564500000000407-1.799799999999777,13.459000000000742-1.799799999999777,7.579099999999016,0,14.081099999999424,1.39260000000013,19.503899999999703,4.174799999999777,5.420000000000073,2.784200000000055,10.003899999999703,6.861300000000483,13.746100000000297,12.235400000000482l-9.068300000000818,6.620600000000195c-2.784200000000055-3.837400000000343-6.14259999999922-6.85990000000038-10.075199999999313-9.068400000000111-3.936600000000908-2.206500000000233-8.83010000000013-3.310500000000502-14.682600000000093-3.310500000000502-6.429700000000594,0-11.492200000000594,1.367199999999684-15.185600000000704,4.101999999999862-3.695299999999406,2.735400000000482-5.541999999999462,6.837900000000445-5.541999999999462,12.307200000000194,0,4.800200000000586,1.558600000000297,8.420799999999872,4.67870000000039,10.867600000000493,3.117199999999684,2.446799999999712,7.843799999999646,4.390699999999924,14.177799999999479,5.83009999999922l8.204999999999927,1.871100000000297c9.882900000000518,2.20850000000064,17.03230000000076,5.566399999999703,21.447299999999814,10.075700000000325,4.412100000000464,4.511199999999917,6.621100000000297,10.507800000000316,6.621100000000297,17.992699999999786,0,4.606399999999667-.790999999999258,8.78020000000015-2.375,12.523400000000038-1.583999999999833,3.742199999999684-3.864299999999275,6.909200000000055-6.836900000000242,9.5-2.975599999999758,2.590799999999945-6.598599999999351,4.606399999999667-10.868199999999888,6.045399999999972-4.270499999999629,1.439499999999498-9.092799999999443,2.159200000000055-14.465799999999945,2.159200000000055Z"/><path class="uuid-1b160398-c52a-4049-9ef3-8016a5f98722" d="M1460.370100000000093,338.566799999999603c-4.99119999999948,0-9.549799999999777-.91359999999986-13.674799999999777-2.73490000000038-4.126999999999498-1.822199999999611-7.654299999999239-4.438000000000102-10.58010000000013-7.84519999999975-2.927700000000186-3.40480000000025-5.206099999999424-7.484400000000278-6.836900000000242-12.23489999999947-1.632799999999406-4.75-2.44629999999961-10.09860000000026-2.44629999999961-16.049800000000687,0-5.85149999999976.813500000000204-11.177700000000186,2.44629999999961-15.977499999999964,1.630800000000818-4.796900000000278,3.909200000000055-8.899399999999332,6.836900000000242-12.306599999999889,2.925800000000891-3.405299999999443,6.453100000000632-6.020999999999731,10.58010000000013-7.84479999999985,4.125-1.822200000000521,8.683600000000297-2.734800000000178,13.674799999999777-2.734800000000178,4.988300000000891,0,9.522399999999834.912599999999657,13.602500000000873,2.734800000000178,4.077199999999721,1.823800000000119,7.603499999999258,4.439500000000407,10.579099999999016,7.84479999999985,2.973700000000463,3.407200000000557,5.276400000000649,7.509699999999611,6.909200000000055,12.306599999999889,1.630900000000111,4.799799999999777,2.447300000000723,10.126000000000204,2.447300000000723,15.977499999999964,0,5.951200000000426-.816400000000613,11.299800000000687-2.447300000000723,16.049800000000687-1.632799999999406,4.750499999999192-3.935499999999593,8.83009999999922-6.909200000000055,12.23489999999947-2.975599999999758,3.407199999999648-6.501899999999296,6.023000000000138-10.579099999999016,7.84519999999975-4.080100000001039,1.82130000000052-8.614199999999983,2.73490000000038-13.602500000000873,2.73490000000038ZM1460.370100000000093,328.346599999998944c6.236300000000483,0,11.32130000000052-1.917999999999665,15.257800000000316-5.757799999999406,3.933600000000297-3.836500000000342,5.90139999999974-9.690499999999702,5.90139999999974-17.560599999999795v-10.651800000000549c0-7.867199999999684-1.967799999999443-13.721700000000055-5.90139999999974-17.561099999999897-3.936499999999796-3.83639999999923-9.021499999999833-5.757300000000214-15.257800000000316-5.757300000000214-6.239299999999275,0-11.324199999999109,1.920900000000984-15.257799999999406,5.757300000000214-3.936600000000908,3.839399999999841-5.901400000000649,9.693900000000212-5.901400000000649,17.561099999999897v10.651800000000549c0,7.870100000000093,1.964799999999741,13.724099999999453,5.901400000000649,17.560599999999795,3.933600000000297,3.839799999999741,9.018500000000131,5.757799999999406,15.257799999999406,5.757799999999406Z"/><path class="uuid-1b160398-c52a-4049-9ef3-8016a5f98722" d="M1540.54490000000078,338.566799999999603c-5.181700000000092,0-9.836900000000242-.91359999999986-13.961900000000242-2.73490000000038-4.127000000000407-1.822199999999611-7.606499999999869-4.413099999999758-10.436499999999796-7.772399999999834-2.831100000000333-3.358400000000074-4.990300000000389-7.435599999999795-6.476599999999962-12.235399999999572-1.489300000000185-4.79740000000038-2.231499999999869-10.170900000000074-2.231499999999869-16.122100000000501,0-5.948199999999815.742199999999684-11.32169999999951,2.231499999999869-16.121100000000297,1.486299999999574-4.797299999999268,3.645499999999629-8.87539999999899,6.476599999999962-12.23529999999937,2.829999999999927-3.357899999999972,6.309499999999389-5.948699999999917,10.436499999999796-7.772500000000036,4.125-1.822200000000521,8.78020000000015-2.734800000000178,13.961900000000242-2.734800000000178,7.388699999999517,0,13.314399999999296,1.607899999999972,17.777299999999741,4.821700000000419,4.461900000000242,3.216399999999339,7.795000000000073,7.413099999999758,10.003899999999703,12.59479999999985l-9.644500000000335,4.894499999999425c-1.344699999999648-3.837399999999434-3.550799999999072-6.813000000000102-6.621099999999387-8.924799999999777-3.072299999999814-2.109400000000278-6.909200000000055-3.166500000000269-11.515599999999722-3.166500000000269-3.45510000000013,0-6.476599999999962.553200000000288-9.068400000000111,1.655300000000352-2.590799999999945,1.104000000000269-4.75,2.64010000000053-6.476500000000669,4.606400000000576-1.727599999999256,1.967299999999341-3.023499999999331,4.318399999999201-3.886799999999312,7.052699999999277-.863200000000688,2.73490000000038-1.295900000000074,5.735900000000584-1.295900000000074,8.995700000000397v12.666900000000169c0,6.527899999999136,1.75,11.876000000000204,5.253999999999905,16.050299999999879,3.501900000000205,4.174399999999878,8.659099999999853,6.26129999999921,15.47360000000026,6.26129999999921,9.306599999999889,0,16.025399999999536-4.318399999999201,20.152299999999741-12.95509999999922l8.348700000000463,5.614199999999983c-2.399400000000242,5.375500000000102-5.973700000000463,9.644599999999627-10.723700000000463,12.811099999999897s-10.676699999999983,4.75-17.777299999999741,4.75Z"/><path class="uuid-1b160398-c52a-4049-9ef3-8016a5f98722" d="M1591.067300000000614,245.148299999999836c-2.497000000000298,0-4.295799999999872-.597600000000057-5.397399999999834-1.798800000000483-1.104500000000371-1.199200000000019-1.655300000000352-2.756800000000112-1.655300000000352-4.67869999999948v-1.871100000000297c0-1.918499999999767.550799999999981-3.477499999999964,1.655300000000352-4.678200000000288,1.101599999999962-1.198800000000119,2.900399999999536-1.799299999999675,5.397399999999834-1.799299999999675,2.494200000000092,0,4.293999999999869.600499999999556,5.397500000000036,1.799299999999675,1.102499999999964,1.200700000000325,1.656299999999646,2.759700000000521,1.656299999999646,4.678200000000288v1.871100000000297c0,1.921899999999368-.553799999999683,3.479499999999462-1.656299999999646,4.67869999999948-1.103500000000167,1.201200000000426-2.903299999999945,1.798800000000483-5.397500000000036,1.798800000000483ZM1585.309500000000298,262.566299999999501h11.515699999999924v74.272899999999936h-11.515699999999924v-74.272899999999936Z"/><path class="uuid-1b160398-c52a-4049-9ef3-8016a5f98722" d="M1649.219700000000557,338.566799999999603c-5.086900000000242,0-9.668999999999869-.91359999999986-13.746100000000297-2.73490000000038-4.08010000000013-1.822199999999611-7.581999999999425-4.438000000000102-10.507800000000316-7.84519999999975-2.92869999999948-3.40480000000025-5.181699999999182-7.484400000000278-6.765599999999722-12.23489999999947-1.582999999999629-4.75-2.374099999999999-10.09860000000026-2.374099999999999-16.049800000000687,0-5.85149999999976.79110000000037-11.177700000000186,2.374099999999999-15.977499999999964,1.58390000000054-4.796900000000278,3.836900000000242-8.899399999999332,6.765599999999722-12.306599999999889,2.925800000000891-3.405299999999443,6.427700000000186-6.020999999999731,10.507800000000316-7.84479999999985,4.077100000000428-1.822200000000521,8.659200000000055-2.734800000000178,13.746100000000297-2.734800000000178,4.989300000000185,0,9.451200000000426.908199999999852,13.386700000000019,2.725599999999758,3.933600000000297,1.817300000000614,7.291999999999462,4.329499999999825,10.076199999999517,7.532200000000557,2.782200000000557,3.203099999999722,4.917000000000371,7.003899999999703,6.405300000000352,11.402799999999843,1.486300000000483,4.399400000000242,2.231399999999667,9.228000000000065,2.231399999999667,14.486299999999574v5.451700000000528h-53.403299999999945v3.45510000000013c0,3.16649999999936.503900000000613,6.117199999999684,1.511700000000019,8.851999999999862,1.007800000000316,2.73490000000038,2.447299999999814,5.110399999999572,4.318400000000111,7.125,1.871100000000297,2.015699999999924,4.173800000000483,3.598699999999553,6.909099999999853,4.751000000000204,2.735400000000482,1.15139999999974,5.83010000000013,1.726599999999053,9.284200000000055,1.726599999999053,4.701200000000426,0,8.802800000000389-1.102599999999256,12.307600000000093-3.310599999998885,3.501000000000204-2.206000000000131,6.212000000000444-5.373000000000502,8.131900000000314-9.5l8.20510000000013,5.939499999999498c-2.399500000000444,5.119099999999889-6.14260000000013,9.246099999999387-11.227600000000166,12.38380000000052-5.086900000000242,3.137699999999313-11.132800000000316,4.707499999999527-18.136700000000019,4.707499999999527ZM1649.219700000000557,270.482299999999668c-3.167000000000371,0-6.04489999999987.548799999999574-8.635699999999815,1.646499999999833-2.591800000000148,1.097700000000259-4.822299999999814,2.647500000000036-6.693400000000111,4.648400000000038-1.871100000000297,2.001999999999498-3.335900000000038,4.363299999999981-4.390600000000632,7.081100000000333-1.056699999999182,2.718699999999444-1.583999999999833,5.698199999999815-1.583999999999833,8.941399999999703v1.001000000000204h41.023400000000038v-1.574700000000121c0-6.580600000000231-1.798799999999574-11.847700000000259-5.397399999999834-15.80619999999999-3.598699999999553-3.958000000000538-8.373099999999795-5.9375-14.322299999999814-5.9375Z"/><path class="uuid-1b160398-c52a-4049-9ef3-8016a5f98722" d="M1716.728500000000167,336.839199999999437c-4.031299999999646,0-7.078099999999722-1.124499999999898-9.140599999999722-3.373499999999694-2.064500000000407-2.249000000000706-3.09479999999985-5.195300000000316-3.09479999999985-8.834499999999935v-51.846199999999953h-12.235300000000279v-10.218700000000354h6.909200000000055c2.494099999999889,0,4.197199999999611-.504899999999907,5.110300000000279-1.512700000000223.91019999999935-1.006800000000112,1.367199999999684-2.756800000000112,1.367199999999684-5.252899999999499v-13.819400000000314h10.363299999999981v20.585000000000036h16.265599999999722v10.218700000000354h-16.265599999999722v53.835000000000036h15.114199999999983v10.219199999999546h-14.393500000000131Z"/><path class="uuid-1b160398-c52a-4049-9ef3-8016a5f98722" d="M1796.615200000000186,262.566299999999501h11.372100000000501l-33.251000000000204,91.545900000000074c-.863299999999981,2.207000000000335-1.727499999999964,4.052700000000186-2.590799999999945,5.541500000000269-.864300000000185,1.486799999999675-1.920900000000074,2.66359999999986-3.167000000000371,3.526899999999841-1.248099999999795.864199999999983-2.806700000000092,1.487299999999777-4.677799999999479,1.871000000000095-1.871000000000095.382399999999507-4.15230000000065.576199999999517-6.837800000000243.576199999999517h-5.90139999999974v-10.219699999999648h11.659200000000055l5.614199999999983-15.808600000000297-27.781200000000354-77.033199999999852h11.515599999999722l17.84860000000026,50.425799999999981,3.45510000000013,12.06880000000001h.718799999999646l4.031200000000354-12.06880000000001,17.992199999999684-50.425799999999981Z"/><path class="uuid-1b160398-c52a-4049-9ef3-8016a5f98722" d="M654.682568750000428,477.757765624999593l-3.6103515625-11.4755859375h-15.98828125l-3.5458984375,11.4755859375h-8.638671875l15.0859375-44.9990234375h10.5732421875l14.9560546875,44.9990234375h-8.83203125ZM643.206982812500428,440.495070312499593h-.322265625l-5.7373046875,18.50244140625h11.8623046875l-5.802734375-18.50244140625Z"/><path class="uuid-1b160398-c52a-4049-9ef3-8016a5f98722" d="M698.717725000000428,477.757765624999593l-3.6103515625-11.4755859375h-15.98828125l-3.5458984375,11.4755859375h-8.638671875l15.0859375-44.9990234375h10.5732421875l14.9560546875,44.9990234375h-8.83203125ZM687.242139062500428,440.495070312499593h-.322265625l-5.7373046875,18.50244140625h11.8623046875l-5.802734375-18.50244140625Z"/></g></svg>