<?xml version="1.0" encoding="UTF-8"?><svg id="uuid-9923e460-a8ed-4832-980c-e34123f1472d" xmlns="http://www.w3.org/2000/svg" width="231.163844306045149mm" height="250.002318467563953mm" xmlns:xlink="http://www.w3.org/1999/xlink" viewBox="0 0 655.26760000000013 708.667999999999665"><defs><style>.uuid-2289d2b0-44cf-41e9-a5ca-05ce74bcbe80{fill:#00c2f3;}.uuid-f3dd9ad2-b458-4923-8186-5eeb79aeb6b4{fill:#fff;}.uuid-9feb0d65-d81a-4fed-acf6-efdb3d559eb9{fill:none;}.uuid-fe1c6a74-cad6-4f2a-89f5-c684ed83c9f9{clip-path:url(#uuid-debf89f7-6676-4daf-b521-c80e0ffb6df5);}.uuid-8a8f019f-e697-4e90-a945-69c034a497d0{fill:#333e48;}</style><clipPath id="uuid-debf89f7-6676-4daf-b521-c80e0ffb6df5"><rect class="uuid-9feb0d65-d81a-4fed-acf6-efdb3d559eb9" x=".000000000000455" width="655.26760000000013" height="708.667999999999665"/></clipPath></defs><g class="uuid-fe1c6a74-cad6-4f2a-89f5-c684ed83c9f9"><path class="uuid-f3dd9ad2-b458-4923-8186-5eeb79aeb6b4" d="M158.431700000000092,271.572299999999814c-9.105500000000575,21.527299999999741-14.519600000000537,44.144500000000335-16.170000000000073,67.425699999999779,3.587899999999536-2.922300000000178,8.159200000000055-4.679599999999482,13.136700000000019-4.679599999999482,5.495199999999386,0,10.488299999999981,2.153800000000047,14.216800000000148,5.636199999999917,7.337900000000445-95.591800000000148,87.224699999999757-170.870900000000347,184.701199999999517-170.870900000000347,7.552800000000389,0,13.674800000000687-6.123299999999745,13.674800000000687-13.675999999999931,0-7.552999999999884-6.122000000000298-13.675499999999829-13.674800000000687-13.675499999999829-28.689399999999296,0-56.536099999999351,5.624699999999848-82.765599999999722,16.718699999999899-25.318399999999201,10.708799999999883-48.052699999999277,26.033199999999852-67.567399999999907,45.54910000000018-19.518500000000131,19.51759999999922-34.844700000000557,42.252000000000407-45.551699999999983,67.572299999999814Z"/><path class="uuid-f3dd9ad2-b458-4923-8186-5eeb79aeb6b4" d="M339.175799999999981,538.968699999999444c-94.95510000000013-7.682600000000093-169.671900000000278-86.962799999999334-170.101599999999962-183.797300000000178,0-7.55029999999897-6.120100000000093-13.675799999999072-13.675799999999981-13.675799999999072-7.552700000000186,0-13.675699999999779,6.125500000000102-13.675699999999779,13.675799999999072.109300000000076,28.395000000000437,5.722600000000057,55.955100000001039,16.708999999999833,81.928200000000288,10.706999999999425,25.318400000000111,26.033199999999852,48.052700000000186,45.551699999999983,67.568400000000111,19.51470000000063,19.517499999999927,42.249000000000706,34.843200000000252,67.567399999999907,45.551699999999983,21.255900000000111,8.990700000000288,43.573199999999815,14.387200000000121,66.539099999999962,16.112300000000687-2.886799999999312-3.579999999999927-4.626999999999498-8.123500000000604-4.626999999999498-13.06880000000092,0-5.533199999999852,2.183100000000195-10.556699999999182,5.712899999999536-14.294499999999971Z"/><path class="uuid-f3dd9ad2-b458-4923-8186-5eeb79aeb6b4" d="M502.51760000000013,487.411599999999453c-2.66989999999987-2.671899999999368-6.16989999999987-4.005799999998999-9.66989999999987-4.005799999998999-3.498100000000704,0-7,1.33389999999963-9.671900000000278,4.005799999998999-33.341799999999239,32.290500000000975-78.775399999999536,52.175800000000891-128.859400000000278,52.175800000000891-7.552700000000186,0-13.675799999999072,6.122999999999593-13.675799999999072,13.675799999999072,0,7.553200000000288,6.123099999998885,13.675300000000789,13.675799999999072,13.675300000000789,28.690400000000409,0,56.535200000000259-5.625,82.763700000000426-16.718800000000556,24.408199999999852-10.319299999999203,46.40139999999974-24.946799999999712,65.4375-43.46769999999924,5.343700000000354-5.340400000000955,5.343700000000354-13.998100000000704,0-19.340400000000955Z"/><path class="uuid-f3dd9ad2-b458-4923-8186-5eeb79aeb6b4" d="M354.316399999999703,566.938500000000204c-7.552700000000186,0-13.675799999999072-6.122100000000501-13.675799999999072-13.675300000000789,0-7.552799999999479,6.123099999998885-13.675799999999072,13.675799999999072-13.675799999999072,50.084000000000742,0,95.517600000001039-19.885299999999916,128.859400000000278-52.175800000000891,2.671900000000278-2.671899999999368,6.173799999999574-4.005799999998999,9.671900000000278-4.005799999998999,3.5,0,7,1.33389999999963,9.66989999999987,4.005799999998999,5.343700000000354,5.34230000000025,5.343700000000354,14,0,19.340400000000955-19.03610000000026,18.520899999999529-41.029300000000148,33.148400000000038-65.4375,43.46769999999924-26.228500000000167,11.093800000000556-54.073300000000017,16.718800000000556-82.763700000000426,16.718800000000556ZM271.550799999999981,550.219699999999648c-25.318399999999201-10.708499999999731-48.052699999999277-26.034200000000055-67.567399999999907-45.551699999999983-19.518500000000131-19.515699999999924-34.844700000000557-42.25-45.551699999999983-67.568400000000111-10.986399999999776-25.973099999999249-16.599699999999757-53.533199999999852-16.708999999999833-81.928200000000288,0-7.55029999999897,6.122999999999593-13.675799999999072,13.675699999999779-13.675799999999072,7.555699999999888,0,13.675799999999981,6.125500000000102,13.675799999999981,13.675799999999072.429699999999684,96.834500000000844,75.146499999999833,176.114700000000084,170.101599999999962,183.797300000000178-3.529799999999341,3.737800000000789-5.712899999999536,8.761300000000119-5.712899999999536,14.294499999999971,0,4.945300000000316,1.740200000000186,9.488800000000992,4.626999999999498,13.06880000000092-22.965900000000147-1.725100000000566-45.283199999999852-7.121600000000399-66.539099999999962-16.112300000000687ZM354.316399999999703,141.732199999999921c7.552800000000389,0,13.674800000000687,6.122499999999945,13.674800000000687,13.675499999999829,0,7.552700000000186-6.122000000000298,13.675999999999931-13.674800000000687,13.675999999999931-97.47649999999976,0-177.363299999999072,75.279100000000199-184.701199999999517,170.870900000000347-3.728500000000167-3.48239999999987-8.721600000000763-5.636199999999917-14.216800000000148-5.636199999999917-4.977499999999964,0-9.548800000000483,1.757299999999304-13.136700000000019,4.679599999999482,1.650399999999536-23.281199999999444,7.064499999999498-45.898400000000038,16.170000000000073-67.425699999999779,10.706999999999425-25.320299999999406,26.033199999999852-48.054700000000594,45.551699999999983-67.572299999999814,19.51470000000063-19.515900000000329,42.249000000000706-34.840300000000298,67.567399999999907-45.54910000000018,26.229500000000371-11.094000000000051,54.076200000000426-16.718699999999899,82.765599999999722-16.718699999999899Z"/><path class="uuid-f3dd9ad2-b458-4923-8186-5eeb79aeb6b4" d="M466.902399999999943,241.75c-30.070399999999609-30.072799999999916-70.054699999999684-46.632800000000316-112.58600000000024-46.632800000000316-42.527299999999741,0-82.512699999999313,16.5600000000004-112.583999999998923,46.632800000000316-30.072200000000521,30.071799999999712-46.636700000000928,70.056599999999889-46.636700000000928,112.585000000000036,0,42.53020000000015,16.564500000000407,82.512200000000121,46.636700000000928,112.586899999999332,30.07129999999961,30.069800000001123,70.056699999999182,46.634300000000621,112.583999999998923,46.634300000000621,42.531300000000556,0,82.515600000000632-16.564499999999498,112.58600000000024-46.634300000000621,30.073199999999815-30.074699999999211,46.632800000000316-70.056699999999182,46.632800000000316-112.586899999999332,0-42.528400000000147-16.559600000000501-82.513200000000325-46.632800000000316-112.585000000000036Z"/><path class="uuid-8a8f019f-e697-4e90-a945-69c034a497d0" d="M242.104999999999563,405.825699999999415v-102.977999999999156h22.334500000000844v7.610799999999472h-12.944400000000314v87.753900000000613h12.944400000000314v7.613299999999072h-22.334500000000844Z"/><path class="uuid-8a8f019f-e697-4e90-a945-69c034a497d0" d="M466.527399999999943,302.847700000000259v102.977999999999156h-22.328199999999924v-7.613299999999072h12.938500000000204v-87.753900000000613h-12.938500000000204v-7.610799999999472h22.328199999999924Z"/><path class="uuid-2289d2b0-44cf-41e9-a5ca-05ce74bcbe80" d="M293.976599999999962,375.255400000000009c0,2.056099999999788.032199999999648,4.484300000000076.095699999999852,7.271499999999833.0625,2.789499999999862.150400000000445,5.623500000000604.259700000000521,8.496000000000095.104999999999563,2.875500000000102.233399999999165,5.622599999999693.386800000000221,8.240299999999479.14639999999963,2.617200000000594.329999999999927,4.805200000000696.544899999998961,6.5625h-13.193399999999201v-72.730499999999665c0-6.263199999999415-.10739999999987-11.9375-.322199999999611-17.022899999999936-.212900000000445-5.086900000000242-.535200000000259-9.494700000000194-.966800000000148-13.224599999999555h13.195299999999406v72.40769999999975Z"/><path class="uuid-2289d2b0-44cf-41e9-a5ca-05ce74bcbe80" d="M351.583000000000538,340.175299999999879v8.433599999999387h-12.100599999999758v48.786600000000362h12.100599999999758v8.432099999999991h-36.042000000000371v-8.432099999999991h11.906299999999646v-48.786600000000362h-11.906299999999646v-8.433599999999387h36.042000000000371Z"/><path class="uuid-2289d2b0-44cf-41e9-a5ca-05ce74bcbe80" d="M378.617200000000594,340.175299999999879c.255900000000111.6875.513699999999517,1.576700000000528.771499999998923,2.674299999999675.259700000000521,1.093300000000454.492200000000594,2.240200000000186.709000000000742,3.440899999999601.210900000000038,1.201200000001336.404300000000148,2.382800000001225.579999999999927,3.541500000001179l.511800000000221,2.892099999999118c4.121100000000297-4.89009999999962,8.259699999999611-8.417499999999563,12.421800000000076-10.585399999999936,4.164099999999962-2.16649999999936,8.5-3.250500000000102,13.002999999999702-3.250500000000102,3.433599999999387,0,6.469700000000557.568300000000818,9.10739999999987,1.705100000001039,2.639600000000428,1.141099999998914,4.860300000000279,2.941899999999805,6.663099999999758,5.406699999999546,1.799800000000687,2.468699999999444,3.162100000000464,5.667999999999665,4.087900000000445,9.591300000000047.921399999999267,3.927299999999377,1.382299999999304,8.654300000000148,1.382299999999304,14.193900000000212v28.960399999999936c0,7.252399999999398-.634299999999712,13.272999999999229-1.899899999999434,18.055199999999786-1.263700000000426,4.786600000000362-3.037100000000464,8.603500000000167-5.309099999999489,11.460399999999936-2.272899999999936,2.849600000000464-5.011200000000827,4.867199999999684-8.206500000000233,6.046900000000278-3.197299999999814,1.180199999999786-6.748100000000704,1.771499999999833-10.652400000000853,1.771499999999833-1.930599999999686,0-4.000999999999294-.312000000000808-6.210900000000038-.934100000000399-2.208999999998923-.625-4.214899999999034-1.491699999999582-6.01759999999922-2.606899999999769l4.183600000000297-9.655800000000454c.985799999999472.730000000000473,2.305699999998978,1.341300000000047,3.958999999998923,1.835900000000038,1.650400000000445.491700000000492,3.335900000000038.737800000000789,5.048800000000483.737800000000789,2.061999999999898,0,3.908199999999852-.329999999999927,5.540100000000166-.996100000000297,1.629800000000614-.664000000000669,3.011700000000019-1.832000000000335,4.149400000000242-3.505799999999908,1.136699999999109-1.675799999999981,2.005799999999908-3.970200000000659,2.60739999999987-6.888200000000325.599100000000362-2.917999999999665.900399999999536-6.630900000000111.900399999999536-11.134799999999814v-28.320799999999508c0-5.148400000000038-.26759999999922-9.321700000000419-.804699999999684-12.519500000000335-.53519999999935-3.195800000000418-1.342799999999443-5.685499999999593-2.414999999999964-7.464799999999741-1.07129999999961-1.781300000000556-2.413099999999758-2.972700000000259-4.024499999999534-3.575700000000325-1.605400000000373-.597700000000259-3.483400000000984-.89850000000024-5.628900000000613-.89850000000024-2.316399999999703,0-4.578099999999722.546900000000278-6.788099999999758,1.644099999999526-2.209900000000744,1.091800000000148-4.24119999999948,2.507800000001225-6.086900000000242,4.246100000000297-1.844200000000455,1.736300000000483-3.47360000000026,3.697200000000521-4.888599999999315,5.889100000000326-1.415600000000268,2.189500000000407-2.468800000000556,4.375-3.156300000000556,6.564000000000306v37.331999999999425h-11.906199999999444v-39.58389999999963c0-6.350100000000566-.365300000000389-11.725100000000566-1.095700000000761-16.122599999999693-.726599999999962-4.398400000000038-1.4375-7.715299999999843-2.123099999999795-9.945800000000418h11.587900000000445Z"/></g></svg>