<?xml version="1.0" encoding="UTF-8"?><svg id="uuid-9c0787a7-3c5a-43f6-879b-9203aebcc2e8" xmlns="http://www.w3.org/2000/svg" width="1022.841262971798301mm" height="250.003659023099516mm" xmlns:xlink="http://www.w3.org/1999/xlink" viewBox="0 0 2899.39259999999922 708.671800000000076"><defs><style>.uuid-5cc5bcda-8ad4-437d-ba69-1bb939c28bca{fill:#fff;}.uuid-24c78ed5-016d-48e7-9ec7-6050a5817061{clip-path:url(#uuid-1038cb76-17ee-4b77-b822-176556ce09fe);}.uuid-8de1591c-0f3e-4b39-a8cc-ad9c5ffa7f16{fill:none;}.uuid-6377d364-f847-4713-b3a5-5b53704379b4{fill:#333e48;}</style><clipPath id="uuid-1038cb76-17ee-4b77-b822-176556ce09fe"><rect class="uuid-8de1591c-0f3e-4b39-a8cc-ad9c5ffa7f16" width="2899.39259999999922" height="708.671800000000076"/></clipPath></defs><g class="uuid-24c78ed5-016d-48e7-9ec7-6050a5817061"><path class="uuid-5cc5bcda-8ad4-437d-ba69-1bb939c28bca" d="M158.441399999999703,271.572200000000521c-9.105500000001484,21.527400000000853-14.519500000000335,44.144599999999627-16.16990000000078,67.425799999999072,3.587900000000445-2.921899999999368,8.160100000000966-4.679699999998775,13.136700000000928-4.679699999998775,5.496099999998478,0,10.488299999999072,2.154300000000148,14.216800000000148,5.636699999999109,7.337899999998626-95.591800000000148,87.224599999999555-170.871099999998478,184.701199999999517-170.871099999998478,7.552700000000186,0,13.675699999999779-6.123000000001412,13.675699999999779-13.675700000001598,0-7.552799999999479-6.122999999999593-13.675799999999072-13.675699999999779-13.675799999999072-28.689500000000407,0-56.535200000000259,5.625-82.765699999999924,16.718699999999444-25.318299999998999,10.709000000000742-48.050800000000891,26.033199999999852-67.566399999999703,45.550800000000891-19.519500000000335,19.515599999998813-34.845700000001671,42.25-45.552700000000186,67.570299999999406Z"/><path class="uuid-5cc5bcda-8ad4-437d-ba69-1bb939c28bca" d="M339.185499999999593,538.968700000001263c-94.954999999999927-7.681599999999889-169.671800000000076-86.962900000000445-170.101500000000669-183.79490000000078,0-7.552799999999479-6.119199999999182-13.677799999999479-13.675799999999072-13.677799999999479-7.552700000000186,0-13.675800000000891,6.125-13.675800000000891,13.677799999999479.109399999999368,28.39259999999922,5.722700000000259,55.953100000000632,16.709000000000742,81.925800000000891,10.706999999998516,25.318299999998999,26.033199999999852,48.054699999998775,45.552700000000186,67.568299999998999,19.515599999998813,19.519599999999627,42.248100000000704,34.843800000000556,67.566399999999703,45.552799999999479,21.255900000000111,8.990200000000186,43.574199999999109,14.386700000000928,66.539099999999962,16.111300000000483-2.886700000000928-3.58009999999922-4.627000000000407-8.123099999998885-4.627000000000407-13.068400000000111,0-5.533199999999852,2.183600000000297-10.556599999999889,5.712900000000445-14.294899999998961Z"/><path class="uuid-5cc5bcda-8ad4-437d-ba69-1bb939c28bca" d="M502.527299999999741,487.412100000001374c-2.66990000000078-2.670000000000073-6.167900000000373-4.005900000000111-9.667900000000373-4.005900000000111s-7.002000000000407,1.335900000000038-9.671899999999368,4.005900000000111c-33.343800000000556,32.290999999999258-78.777400000000853,52.175699999999779-128.861300000000483,52.175699999999779-7.552800000001298,0-13.675800000000891,6.123099999998885-13.675800000000891,13.675799999999072,0,7.552799999999479,6.122999999999593,13.675800000000891,13.675800000000891,13.675800000000891,28.691399999999703,0,56.535100000000966-5.625,82.763600000000224-16.718700000001263,24.408199999999852-10.322299999999814,46.402400000000853-24.947299999999814,65.4375-43.466800000000148,5.343800000000556-5.341799999998329,5.343800000000556-14,0-19.341799999998329Z"/><path class="uuid-5cc5bcda-8ad4-437d-ba69-1bb939c28bca" d="M354.326199999999517,566.939400000001115c-7.552800000001298,0-13.675800000000891-6.123000000001412-13.675800000000891-13.675800000000891,0-7.552700000000186,6.122999999999593-13.675799999999072,13.675800000000891-13.675799999999072,50.08389999999963,0,95.517499999999927-19.884700000000521,128.861300000000483-52.175699999999779,2.669899999998961-2.670000000000073,6.171899999999368-4.005900000000111,9.671899999999368-4.005900000000111s6.997999999999593,1.335900000000038,9.667900000000373,4.005900000000111c5.343800000000556,5.341799999998329,5.343800000000556,14,0,19.341799999998329-19.035099999999147,18.519500000000335-41.029300000000148,33.144500000000335-65.4375,43.466800000000148-26.228499999999258,11.093700000001263-54.072200000000521,16.718700000001263-82.763600000000224,16.718700000001263ZM271.560499999999593,550.220699999999852c-25.318299999998999-10.708999999998923-48.050800000000891-26.033199999999852-67.566399999999703-45.552799999999479-19.519500000000335-19.513600000000224-34.845700000001671-42.25-45.552700000000186-67.568299999998999-10.986300000000483-25.972700000000259-16.599600000001374-53.533200000001671-16.709000000000742-81.925800000000891,0-7.552799999999479,6.123100000000704-13.677799999999479,13.675800000000891-13.677799999999479,7.556599999999889,0,13.675799999999072,6.125,13.675799999999072,13.677799999999479.429700000000594,96.832000000000335,75.146500000000742,176.113300000000891,170.101500000000669,183.79490000000078-3.529300000000148,3.738299999999072-5.712900000000445,8.761699999999109-5.712900000000445,14.294899999998961,0,4.945300000001225,1.740299999999479,9.488300000000891,4.627000000000407,13.068400000000111-22.964900000000853-1.724599999999555-45.283199999999852-7.121100000000297-66.539099999999962-16.111300000000483ZM354.326199999999517,141.73240000000078c7.552700000000186,0,13.675699999999779,6.122999999999593,13.675699999999779,13.675799999999072,0,7.552700000000186-6.122999999999593,13.675700000001598-13.675699999999779,13.675700000001598-97.476599999999962,0-177.363300000000891,75.279299999998329-184.701199999999517,170.871099999998478-3.728500000001077-3.482399999998961-8.720700000001671-5.636699999999109-14.216800000000148-5.636699999999109-4.976599999999962,0-9.548800000000483,1.757799999999406-13.136700000000928,4.679699999998775,1.650400000000445-23.281199999999444,7.064399999999296-45.898399999998219,16.16990000000078-67.425799999999072,10.706999999998516-25.320299999999406,26.033199999999852-48.054700000000594,45.552700000000186-67.570299999999406,19.515599999998813-19.517600000001039,42.248100000000704-34.841800000000148,67.566399999999703-45.550800000000891,26.230499999999665-11.093699999999444,54.076199999999517-16.718699999999444,82.765699999999924-16.718699999999444Z"/><path class="uuid-5cc5bcda-8ad4-437d-ba69-1bb939c28bca" d="M466.914000000000669,241.75c-30.07220000000234-30.072299999999814-70.056600000001708-46.632899999998699-112.587800000001153-46.632899999998699-42.527399999999034,0-82.513699999999517,16.560599999998885-112.583999999998923,46.632899999998699-30.072300000001633,30.072200000000521-46.636700000000928,70.056599999999889-46.636700000000928,112.585900000000038s16.564399999999296,82.511700000000928,46.636700000000928,112.585900000000038c30.070299999999406,30.070300000001225,70.056599999999889,46.634799999999814,112.583999999998923,46.634799999999814,42.531199999999444,0,82.515599999998813-16.564499999998588,112.587800000001153-46.634799999999814,30.072299999999814-30.074199999999109,46.630899999998292-70.056599999999889,46.630899999998292-112.585900000000038s-16.558599999998478-82.513699999999517-46.630899999998292-112.585900000000038Z"/><path class="uuid-6377d364-f847-4713-b3a5-5b53704379b4" d="M242.117200000000594,405.826100000000224v-102.978499999999258h22.331999999998516v7.611300000000483h-12.945299999999406v87.753899999999703h12.945299999999406v7.613299999999072h-22.331999999998516Z"/><path class="uuid-6377d364-f847-4713-b3a5-5b53704379b4" d="M466.539000000000669,302.847600000000966v102.978499999999258h-22.330000000001746v-7.613299999999072h12.939399999999296v-87.753899999999703h-12.939399999999296v-7.611300000000483h22.330000000001746Z"/><path class="uuid-6377d364-f847-4713-b3a5-5b53704379b4" d="M293.986300000000483,375.255800000000818c0,2.058600000000297.033199999998033,4.484399999999368.095699999998033,7.271500000000742.0625,2.789099999998143.150400000000445,5.622999999999593.259799999999814,8.496099999998478.105400000000373,2.875.234400000001187,5.623000000001412.386700000000928,8.240200000000186.146500000000742,2.617200000000594.330100000001039,4.804700000000594.544899999998961,6.5625h-13.193299999998999v-72.730400000000373c0-6.263699999999517-.107500000000073-11.9375-.322299999999814-17.023499999999331-.212900000000445-5.085900000000038-.535200000000259-9.494099999999889-.966800000000148-13.224599999999555h13.195300000001225v72.408199999999852Z"/><path class="uuid-6377d364-f847-4713-b3a5-5b53704379b4" d="M351.593699999999444,340.175699999999779v8.433600000000297h-12.10149999999885v48.787100000001374h12.10149999999885v8.431699999999182h-36.042900000000373v-8.431699999999182h11.906199999999444v-48.787100000001374h-11.906199999999444v-8.433600000000297h36.042900000000373Z"/><path class="uuid-6377d364-f847-4713-b3a5-5b53704379b4" d="M378.626899999999296,340.175699999999779c.257799999999406.6875.515699999999924,1.576200000001336.771499999998923,2.673900000001595.261700000000928,1.093699999999444.492200000000594,2.240200000000186.709000000000742,3.441399999999703.212900000000445,1.201100000000224.406300000000556,2.382799999999406.580100000001039,3.540999999999258l.511699999999109,2.892600000001039c4.121100000000297-4.888700000001336,8.259799999999814-8.418000000001484,12.423800000000483-10.58600000000115,4.162099999999555-2.165999999999258,8.498100000000704-3.25,13.002000000000407-3.25,3.433600000000297,0,6.468699999999444.568400000000111,9.107399999998961,1.705100000001039,2.638700000001336,1.140599999998813,4.859399999999368,2.941399999999703,6.662099999999555,5.406299999998737,1.800800000000891,2.468700000001263,3.162100000001374,5.667900000000373,4.087900000000445,9.591800000000148.921899999999368,3.927700000000186,1.382800000001225,8.656199999999444,1.382800000001225,14.195300000001225v28.95889999999963c0,7.251999999998588-.634700000000521,13.273499999999331-1.900400000000445,18.054699999998775-1.263600000000224,4.787100000001374-3.037099999999555,8.60360000000037-5.308600000000297,11.46100000000115-2.273400000000038,2.849599999999555-5.011700000000928,4.867199999998775-8.207000000000335,6.046800000000076-3.197299999999814,1.179699999998775-6.747999999999593,1.771499999998923-10.652299999999741,1.771499999998923-1.929699999998775,0-4.002000000000407-.3125-6.21100000000115-.933599999998478-2.208999999998923-.625-4.214799999997922-1.492100000001301-6.01759999999922-2.60740000000078l4.183600000000297-9.656199999999444c.988300000000891.730399999998554,2.306700000001001,1.341800000000148,3.958999999998923,1.835900000000038,1.650400000002264.492199999998775,3.33600000000115.738299999999072,5.048800000000483.738299999999072,2.0625,0,3.908300000000963-.33009999999922,5.54110000000037-.996100000000297,1.628899999999703-.664099999999962,3.011700000000928-1.832000000000335,4.148400000000038-3.505900000000111,1.136699999999109-1.675699999999779,2.005900000000111-3.970699999999852,2.60740000000078-6.888600000000224.599599999999555-2.917999999999665.900399999998626-6.630900000000111.900399999998626-11.134799999999814v-28.320299999999406c0-5.148499999999331-.26759999999922-9.322299999999814-.804699999998775-12.51759999999922-.535099999999147-3.197299999999814-1.341800000000148-5.6875-2.414000000000669-7.466800000000148-1.072299999999814-1.781200000001263-2.414099999999962-2.970699999999852-4.025400000000445-3.574200000000928-1.605499999999665-.597700000000259-3.482399999998961-.900399999998626-5.628899999999703-.900399999998626-2.316399999999703,0-4.578199999999924.548799999998664-6.789099999999962,1.644499999998516-2.207000000000335,1.091800000000148-4.240200000000186,2.507800000001225-6.084000000000742,4.246100000000297-1.845699999998033,1.736399999999776-3.474599999997736,3.699200000000928-4.890599999998813,5.888699999999517-1.414099999999962,2.189400000001115-2.466800000000148,4.375-3.156299999998737,6.564400000001115v37.332099999999627h-11.904300000001967v-39.584000000000742c0-6.349599999999555-.367099999999482-11.724599999999555-1.095699999998033-16.123099999998885-.728500000001077-4.398400000000038-1.439400000001115-7.714799999999741-2.125-9.945300000001225h11.587899999998626Z"/><rect class="uuid-8de1591c-0f3e-4b39-a8cc-ad9c5ffa7f16" x="2037.911114062499109" y="314.122025000000576" width="701.1923828125" height="88.8798828125"/><path class="uuid-5cc5bcda-8ad4-437d-ba69-1bb939c28bca" d="M2079.272442187499109,332.121048437500576l-5.6005859375,6.4794921875c-3.919921875-3.2001953125-7.759765625-4.6396484375-12.240234375-4.6396484375-4.7998046875,0-8.080078125,2.080078125-8.080078125,6,0,3.83984375,2.080078125,5.4404296875,11.1201171875,8.240234375,10,3.2001953125,16.400390625,7.3603515625,16.400390625,17.6005859375,0,10.16015625-8,17.2802734375-21.4404296875,17.2802734375-9.2001953125,0-15.919921875-3.2802734375-20.48046875-7.7607421875l6.080078125-6.6396484375c4,3.439453125,8.400390625,5.51953125,14.080078125,5.51953125,5.6806640625,0,9.5205078125-2.7197265625,9.5205078125-7.599609375,0-4.400390625-2.16015625-6.3203125-10.560546875-8.8798828125-12-3.7607421875-16.7998046875-8.560546875-16.7998046875-16.9609375,0-9.4404296875,8.16015625-15.6005859375,19.3603515625-15.6005859375,8.240234375,0,13.83984375,2.48046875,18.640625,6.9609375Z"/><path class="uuid-5cc5bcda-8ad4-437d-ba69-1bb939c28bca" d="M2124.311504687499109,364.040970312500576h-26.48046875c.7998046875,8.16015625,4.6396484375,10.560546875,10.080078125,10.560546875,3.599609375,0,6.6396484375-1.1201171875,10.3203125-3.6796875l4.7197265625,6.3994140625c-4.16015625,3.3603515625-9.4404296875,5.7607421875-16.080078125,5.7607421875-13.6005859375,0-20.720703125-8.9599609375-20.720703125-22.2412109375,0-12.7998046875,6.8798828125-22.7197265625,19.2802734375-22.7197265625,12,0,19.12109375,8,19.12109375,21.5205078125,0,1.439453125-.16015625,3.2001953125-.240234375,4.3994140625ZM2113.271465624999109,356.441360937500576c0-6.400390625-2.16015625-10.560546875-7.6005859375-10.560546875-4.48046875,0-7.2001953125,2.9599609375-7.83984375,11.0400390625h15.4404296875v-.4794921875Z"/><path class="uuid-5cc5bcda-8ad4-437d-ba69-1bb939c28bca" d="M2162.390606249999109,343.241165625000576l-4.3203125,6.4794921875c-3.4404296875-2.16015625-6.8798828125-3.359375-10.560546875-3.359375-3.759765625,0-5.83984375,1.51953125-5.83984375,3.83984375,0,2.4794921875,1.4404296875,3.599609375,8.8798828125,5.759765625,8.48046875,2.3203125,13.2802734375,5.8408203125,13.2802734375,13.3603515625,0,8.80078125-8.240234375,13.7607421875-18.3203125,13.7607421875-7.3603515625,0-13.2802734375-2.48046875-17.2802734375-6.16015625l5.6005859375-6.240234375c3.2001953125,2.4794921875,7.1201171875,4.16015625,11.3603515625,4.16015625,4.2392578125,0,6.9599609375-1.759765625,6.9599609375-4.640625,0-3.2001953125-1.5205078125-4.240234375-9.3603515625-6.3994140625-8.560546875-2.400390625-12.560546875-6.640625-12.560546875-13.041015625,0-7.2001953125,6.560546875-12.6396484375,16.80078125-12.6396484375,6.16015625,0,11.3603515625,1.919921875,15.3603515625,5.1201171875Z"/><path class="uuid-5cc5bcda-8ad4-437d-ba69-1bb939c28bca" d="M2200.709942187499109,343.241165625000576l-4.3203125,6.4794921875c-3.4404296875-2.16015625-6.8798828125-3.359375-10.560546875-3.359375-3.759765625,0-5.83984375,1.51953125-5.83984375,3.83984375,0,2.4794921875,1.4404296875,3.599609375,8.8798828125,5.759765625,8.48046875,2.3203125,13.2802734375,5.8408203125,13.2802734375,13.3603515625,0,8.80078125-8.240234375,13.7607421875-18.3203125,13.7607421875-7.3603515625,0-13.2802734375-2.48046875-17.2802734375-6.16015625l5.6005859375-6.240234375c3.2001953125,2.4794921875,7.1201171875,4.16015625,11.3603515625,4.16015625,4.2392578125,0,6.9599609375-1.759765625,6.9599609375-4.640625,0-3.2001953125-1.5205078125-4.240234375-9.3603515625-6.3994140625-8.560546875-2.400390625-12.560546875-6.640625-12.560546875-13.041015625,0-7.2001953125,6.560546875-12.6396484375,16.80078125-12.6396484375,6.16015625,0,11.3603515625,1.919921875,15.3603515625,5.1201171875Z"/><path class="uuid-5cc5bcda-8ad4-437d-ba69-1bb939c28bca" d="M2222.148418749999109,324.200150000000576c0,3.7607421875-2.8798828125,6.640625-6.9599609375,6.640625s-6.8798828125-2.8798828125-6.8798828125-6.640625c0-3.759765625,2.7998046875-6.6396484375,6.8798828125-6.6396484375s6.9599609375,2.8798828125,6.9599609375,6.6396484375ZM2220.948223437499109,381.801712500000576h-11.359375v-42.4013671875h11.359375v42.4013671875Z"/><path class="uuid-5cc5bcda-8ad4-437d-ba69-1bb939c28bca" d="M2270.228496874999109,360.601517187500576c0,13.4404296875-7.599609375,22.48046875-20.3203125,22.48046875-12.6396484375,0-20.3203125-8.400390625-20.3203125-22.48046875,0-13.5205078125,7.6005859375-22.48046875,20.400390625-22.48046875,12.640625,0,20.240234375,8.3994140625,20.240234375,22.48046875ZM2241.427715624999109,360.601517187500576c0,9.759765625,2.880859375,14,8.48046875,14,5.6005859375,0,8.48046875-4.3203125,8.48046875-14,0-9.7607421875-2.8798828125-14.0009765625-8.400390625-14.0009765625-5.6796875,0-8.560546875,4.3203125-8.560546875,14.0009765625Z"/><path class="uuid-5cc5bcda-8ad4-437d-ba69-1bb939c28bca" d="M2314.388653124999109,350.920853125000576v30.880859375h-11.3603515625v-28.9609375c0-4.8798828125-1.759765625-6.240234375-4.640625-6.240234375-3.279296875,0-5.83984375,2.16015625-8.16015625,5.9208984375v29.2802734375h-11.359375v-42.4013671875h9.83984375l.8798828125,5.3603515625c3.4404296875-4.240234375,7.6005859375-6.6396484375,12.9599609375-6.6396484375,7.4404296875,0,11.8408203125,4.7998046875,11.8408203125,12.7998046875Z"/><path class="uuid-5cc5bcda-8ad4-437d-ba69-1bb939c28bca" d="M2378.466778124999109,341.000931250000576c0,8.7998046875-5.4404296875,16.3203125-23.041015625,32.0009765625h24.3203125l-1.2001953125,8.7998046875h-36.080078125v-8.240234375c19.1201171875-18.3203125,24.3203125-24.400390625,24.3203125-31.6005859375,0-4.8798828125-2.9599609375-8-8-8-4.400390625,0-7.2802734375,1.759765625-10.560546875,5.6796875l-7.0400390625-5.51953125c4.400390625-5.6806640625,10.240234375-8.9609375,18.720703125-8.9609375,12.240234375,0,18.560546875,7.2001953125,18.560546875,15.8408203125Z"/><path class="uuid-5cc5bcda-8ad4-437d-ba69-1bb939c28bca" d="M2425.746074999999109,354.040970312500576c0,18.880859375-6.7998046875,29.041015625-19.4404296875,29.041015625s-19.4404296875-10.16015625-19.4404296875-29.041015625c0-18.8798828125,6.7998046875-28.880859375,19.4404296875-28.880859375s19.4404296875,10.0009765625,19.4404296875,28.880859375ZM2398.545879687499109,354.040970312500576c0,15.5205078125,2.4794921875,20.48046875,7.759765625,20.48046875,5.2001953125,0,7.7607421875-4.7197265625,7.7607421875-20.48046875s-2.560546875-20.400390625-7.7607421875-20.400390625c-5.2802734375,0-7.759765625,4.9599609375-7.759765625,20.400390625Z"/><path class="uuid-5cc5bcda-8ad4-437d-ba69-1bb939c28bca" d="M2468.066387499999109,341.000931250000576c0,8.7998046875-5.4404296875,16.3203125-23.041015625,32.0009765625h24.3203125l-1.2001953125,8.7998046875h-36.080078125v-8.240234375c19.1201171875-18.3203125,24.3203125-24.400390625,24.3203125-31.6005859375,0-4.8798828125-2.9599609375-8-8-8-4.400390625,0-7.2802734375,1.759765625-10.560546875,5.6796875l-7.0400390625-5.51953125c4.400390625-5.6806640625,10.240234375-8.9609375,18.720703125-8.9609375,12.240234375,0,18.560546875,7.2001953125,18.560546875,15.8408203125Z"/><path class="uuid-5cc5bcda-8ad4-437d-ba69-1bb939c28bca" d="M2515.345684374999109,354.040970312500576c0,18.880859375-6.7998046875,29.041015625-19.4404296875,29.041015625s-19.4404296875-10.16015625-19.4404296875-29.041015625c0-18.8798828125,6.7998046875-28.880859375,19.4404296875-28.880859375s19.4404296875,10.0009765625,19.4404296875,28.880859375ZM2488.145489062499109,354.040970312500576c0,15.5205078125,2.4794921875,20.48046875,7.759765625,20.48046875,5.2001953125,0,7.7607421875-4.7197265625,7.7607421875-20.48046875s-2.560546875-20.400390625-7.7607421875-20.400390625c-5.2802734375,0-7.759765625,4.9599609375-7.759765625,20.400390625Z"/><path class="uuid-5cc5bcda-8ad4-437d-ba69-1bb939c28bca" d="M2520.224590624999109,352.281204687500576h37.7607421875v8.9599609375h-37.7607421875v-8.9599609375Z"/><path class="uuid-5cc5bcda-8ad4-437d-ba69-1bb939c28bca" d="M2599.265606249999109,341.000931250000576c0,8.7998046875-5.4404296875,16.3203125-23.041015625,32.0009765625h24.3203125l-1.2001953125,8.7998046875h-36.080078125v-8.240234375c19.1201171875-18.3203125,24.3203125-24.400390625,24.3203125-31.6005859375,0-4.8798828125-2.9599609375-8-8-8-4.400390625,0-7.2802734375,1.759765625-10.560546875,5.6796875l-7.0400390625-5.51953125c4.400390625-5.6806640625,10.240234375-8.9609375,18.720703125-8.9609375,12.240234375,0,18.560546875,7.2001953125,18.560546875,15.8408203125Z"/><path class="uuid-5cc5bcda-8ad4-437d-ba69-1bb939c28bca" d="M2646.544903124999109,354.040970312500576c0,18.880859375-6.7998046875,29.041015625-19.4404296875,29.041015625s-19.4404296875-10.16015625-19.4404296875-29.041015625c0-18.8798828125,6.7998046875-28.880859375,19.4404296875-28.880859375s19.4404296875,10.0009765625,19.4404296875,28.880859375ZM2619.344707812499109,354.040970312500576c0,15.5205078125,2.4794921875,20.48046875,7.759765625,20.48046875,5.2001953125,0,7.7607421875-4.7197265625,7.7607421875-20.48046875s-2.560546875-20.400390625-7.7607421875-20.400390625c-5.2802734375,0-7.759765625,4.9599609375-7.759765625,20.400390625Z"/><path class="uuid-5cc5bcda-8ad4-437d-ba69-1bb939c28bca" d="M2688.865215624999109,341.000931250000576c0,8.7998046875-5.4404296875,16.3203125-23.041015625,32.0009765625h24.3203125l-1.2001953125,8.7998046875h-36.080078125v-8.240234375c19.1201171875-18.3203125,24.3203125-24.400390625,24.3203125-31.6005859375,0-4.8798828125-2.9599609375-8-8-8-4.400390625,0-7.2802734375,1.759765625-10.560546875,5.6796875l-7.0400390625-5.51953125c4.400390625-5.6806640625,10.240234375-8.9609375,18.720703125-8.9609375,12.240234375,0,18.560546875,7.2001953125,18.560546875,15.8408203125Z"/><path class="uuid-5cc5bcda-8ad4-437d-ba69-1bb939c28bca" d="M2736.464824999999109,373.081985937500576v8.7197265625h-34.80078125v-8.7197265625h12.9599609375v-35.361328125l-11.83984375,7.1201171875-4.880859375-7.599609375,17.8408203125-10.80078125h10v46.6416015625h10.720703125Z"/><rect class="uuid-5cc5bcda-8ad4-437d-ba69-1bb939c28bca" x="1925.947199999998702" y="242.900300000001153" width="3" height="228.445399999998699"/><path class="uuid-5cc5bcda-8ad4-437d-ba69-1bb939c28bca" d="M626.665976719668834,336.833400000001348v-100.471100000000661h12.090799694560701v89.819299999999203h42.750998920018901v10.651800000001458h-54.841798614579602Z"/><path class="uuid-5cc5bcda-8ad4-437d-ba69-1bb939c28bca" d="M703.385674781569833,245.142499999999927c-2.497099936921586,0-4.295899891480076-.597599999999147-5.397474781570054-1.798799999998664-1.104425054181775-1.199200000000928-1.656225040240315-2.756800000001022-1.656225040240315-4.67870000000039v-1.871100000000297c0-1.918499999999767.551799986058541-3.477500000000873,1.656225040240315-4.678200000000288,1.101574890089978-1.198800000000119,2.900374844648468-1.799300000000585,5.397474781570054-1.799300000000585,2.494125218428962,0,4.294025218428942.600500000000466,5.3975252184282,1.799300000000585,1.102500000000873,1.200699999999415,1.655200000001059,2.759700000000521,1.655200000001059,4.678200000000288v1.871100000000297c0,1.921899999999368-.552700000000186,3.479499999999462-1.655200000001059,4.67870000000039-1.103499999999258,1.201199999999517-2.903399999999237,1.798799999998664-5.3975252184282,1.798799999998664ZM697.627874927020457,262.560499999999593h11.515625072977855v74.272900000001755h-11.515625072977855v-74.272900000001755Z"/><path class="uuid-5cc5bcda-8ad4-437d-ba69-1bb939c28bca" d="M733.613199999999779,336.833400000001348v-74.272900000001755h11.515699999999924v11.953100000000632h.576099999998405c1.821300000001429-4.17870000000039,4.38970000000154-7.505799999998999,7.700200000001132-9.974599999999555,3.311599999999089-2.469699999999648,7.748099999998885-3.706500000000233,13.314500000000407-3.706500000000233,7.676799999999275,0,13.747099999998682,2.471199999999953,18.209000000000742,7.412599999999657,4.461899999998423,4.943300000000818,6.693299999998999,11.925699999999779,6.693299999998999,20.94380000000092v47.644500000000335h-11.514600000000428v-45.728500000001077c0-13.368599999999788-5.615199999998367-20.052700000000186-16.841800000000148-20.052700000000186-2.302700000000186,0-4.53519999999844.290500000000975-6.693400000000111.865700000000288-2.159099999998944.578100000000632-4.102499999999054,1.443900000000212-5.829999999998108,2.597700000000259-1.726600000001781,1.153800000000047-3.094800000002579,2.620100000000093-4.101600000001781,4.399400000000242-1.007799999999406,1.778800000000047-1.511699999999109,3.871100000000297-1.511699999999109,6.274900000000343v51.643500000000131h-11.515699999999924Z"/><path class="uuid-5cc5bcda-8ad4-437d-ba69-1bb939c28bca" d="M874.387699999999313,334.386700000000928c0,10.266599999999016-2.878899999999703,18.328100000000632-8.636800000000221,24.181599999999889-5.757799999999406,5.852999999999156-13.868099999999686,8.781300000000556-24.326099999998405,8.781300000000556-6.045900000000984,0-11.253000000000611-.940500000000611-15.618200000000797-2.818400000000111-4.367200000000594-1.882300000001123-7.988300000000891-4.363300000000891-10.867200000000594-7.447299999999814l6.765599999998813-7.952100000000428c2.494200000001001,2.568299999998999,5.373100000000704,4.544899999998961,8.636800000000221,5.926299999999173,3.260700000000725,1.380800000000818,7.052700000000186,2.070799999999508,11.371100000000297,2.070799999999508,6.715800000001764,0,11.921800000000076-1.855499999999665,15.617099999999482-5.563499999998385,3.693400000000111-3.713900000000649,5.542000000001281-9.183600000000297,5.542000000001281-16.411600000001272v-10.273999999999432h-.575199999999313c-2.208900000001449,4.561100000000806-5.087800000001153,7.979499999999462-8.636700000000928,10.259799999999814-3.551699999999983,2.281199999999444-7.916999999999462,3.421400000001086-13.099599999999555,3.421400000001086-4.605500000001484,0-8.779300000000148-.913600000001679-12.522399999999834-2.734900000001289-3.742200000000594-1.822200000000521-6.909200000000055-4.413099999999758-9.5-7.772399999999834-2.590900000001056-3.358399999999165-4.606499999999869-7.435600000000704-6.045899999999165-12.235399999999572-1.439500000000407-4.79739999999947-2.158200000001671-10.170900000000984-2.158200000001671-16.122100000000501,0-5.948200000000725.718700000001263-11.321700000000419,2.158200000001671-16.121100000000297,1.439399999999296-4.797300000000178,3.454999999998108-8.87539999999899,6.045899999999165-12.23529999999846,2.590799999999945-3.357900000000882,5.757799999999406-5.948700000000827,9.5-7.772500000000946,3.743099999999686-1.822200000000521,7.91689999999835-2.734800000000178,12.522399999999834-2.734800000000178,5.182600000000093,0,9.619199999999182,1.117599999999584,13.315399999999499,3.348599999999351,3.692399999999907,2.233400000000984,6.499100000000908,5.676800000001094,8.420900000000984,10.332500000000437h.575199999999313v-11.953100000000632h11.515699999999924v71.826200000001336ZM844.015599999998813,328.340799999999945c2.591800000000148,0,5.038100000001577-.337399999998524,7.341800000000148-1.012199999999211,2.302700000000186-.674800000000687,4.292999999999665-1.664600000000064,5.972599999999147-2.966300000000047,1.677800000001298-1.29989999999998,3.02350000000115-2.89259999999922,4.031300000002375-4.772499999999127,1.006799999999203-1.880400000001828,1.510699999998906-4.075200000001132,1.510699999998906-6.583000000000538v-27.632300000001123c0-2.023999999999432-.481400000000576-3.929199999998673-1.439399999999296-5.715399999999136-.960000000000946-1.783199999999852-2.30370000000039-3.301199999999881-4.030300000000352-4.556099999999788-1.727499999999054-1.252500000000509-3.742200000000594-2.240700000000288-6.04490000000078-2.964400000000751-2.303699999998571-.724099999999453-4.75-1.08640000000014-7.341800000000148-1.08640000000014-6.527399999999034,0-11.708999999998923,2.073200000000725-15.54490000000078,6.221199999999953-3.839899999999034,4.147399999999834-5.757799999999406,9.499499999999898-5.757799999999406,16.058100000000195v12.729999999999563c0,6.558600000000297,1.917900000000373,11.91110000000117,5.757799999999406,16.058600000000297,3.835900000001857,4.146899999999732,9.017500000001746,6.220699999999852,15.54490000000078,6.220699999999852Z"/><path class="uuid-5cc5bcda-8ad4-437d-ba69-1bb939c28bca" d="M944.628899999999703,324.879800000000614h-.576199999999517c-.768600000001243,1.711499999999432-1.704100000000835,3.398499999999331-2.806599999999889,5.060600000000704-1.103600000002189,1.662099999999555-2.470700000001671,3.134699999998702-4.101600000001781,4.41649999999936-1.632799999999406,1.282199999999648-3.598599999999351,2.30370000000039-5.902299999997922,3.063899999999194-2.302800000001298.759799999999814-4.990300000001298,1.140200000001641-8.060600000000704,1.140200000001641-7.677700000000186,0-13.771500000000742-2.469700000001467-18.280300000000352-7.413600000001679-4.511700000000928-4.940899999999601-6.765600000000632-11.921899999999368-6.765600000000632-20.942900000000009v-47.644000000000233h11.515600000000632v45.727500000000873c0,13.368700000000899,5.661200000000463,20.052799999999479,16.985399999999572,20.052799999999479,2.302700000000186,0,4.534200000000055-.287099999999555,6.693299999998999-.866199999998571,2.159200000001874-.575200000001132,4.07720000000154-1.440500000000611,5.757900000000518-2.59480000000076,1.677700000000186-1.154300000000148,3.022400000001653-2.620100000000093,4.029300000001967-4.399400000000242,1.007799999999406-1.778299999999945,1.511699999999109-3.91990000000078,1.511699999999109-6.421399999999267v-51.498500000001513h11.515599999998813v74.272900000001755h-11.515599999998813v-11.953600000000733Z"/><path class="uuid-5cc5bcda-8ad4-437d-ba69-1bb939c28bca" d="M986.371100000000297,245.142499999999927c-2.496100000000297,0-4.295000000001892-.597599999999147-5.397500000000946-1.798799999998664-1.104499999999462-1.199200000000928-1.655300000000352-2.756800000001022-1.655300000000352-4.67870000000039v-1.871100000000297c0-1.918499999999767.550800000000891-3.477500000000873,1.655300000000352-4.678200000000288,1.102499999999054-1.198800000000119,2.901400000000649-1.799300000000585,5.397500000000946-1.799300000000585,2.494099999999889,0,4.293899999998757.600500000000466,5.398399999998219,1.799300000000585,1.101600000001781,1.200699999999415,1.654300000001967,2.759700000000521,1.654300000001967,4.678200000000288v1.871100000000297c0,1.921899999999368-.552700000000186,3.479499999999462-1.654300000001967,4.67870000000039-1.104499999999462,1.201199999999517-2.904299999998329,1.798799999998664-5.398399999998219,1.798799999998664ZM980.613199999999779,262.560499999999593h11.515699999999924v74.272900000001755h-11.515699999999924v-74.272900000001755Z"/><path class="uuid-5cc5bcda-8ad4-437d-ba69-1bb939c28bca" d="M1038.910099999999147,338.561000000001513c-6.909200000000055,0-12.691399999999703-1.319800000001123-17.344699999999648-3.95850000000064-4.655300000000352-2.638200000001234-8.66110000000117-6.165100000000166-12.019500000000335-10.580100000001039l8.204100000000835-6.621099999998478c2.878899999999703,3.647999999999229,6.093699999999444,6.45509999999922,9.644499999998516,8.419899999998961,3.548800000000483,1.968800000000556,7.676800000001094,2.951699999999619,12.378899999999703,2.951699999999619,4.894500000002154,0,8.709000000000742-1.055199999998877,11.443400000000111-3.16649999999936,2.735300000000279-2.10989999999947,4.102500000000873-5.085900000000038,4.102500000000873-8.924800000000687,0-2.878899999999703-.935499999999593-5.348199999998542-2.806599999999889-7.413099999999758-1.872100000000501-2.0625-5.253899999999703-3.476599999999962-10.147499999999127-4.246100000000297l-5.90230000000156-.863799999999173c-3.45509999999922-.47899999999936-6.621100000000297-1.223100000001068-9.5-2.230900000000474s-5.397499999999127-2.350599999999758-7.556699999999182-4.030300000000352c-2.159200000000055-1.677699999998367-3.839799999999741-3.765099999998711-5.038099999999758-6.261699999999109-1.201100000000224-2.494099999999889-1.799800000000687-5.469699999999648-1.799800000000687-8.923800000000483,0-3.646499999998923.66990000000078-6.837400000000343,2.015699999999924-9.572799999999916,1.342700000001059-2.73489999999947,3.189399999999296-5.012199999999211,5.541900000000169-6.836900000000242,2.350600000001577-1.821799999999712,5.157299999998941-3.189899999999398,8.420000000000073-4.102100000000064,3.261700000000928-.911099999999351,6.765600000000632-1.367599999999584,10.50879999999961-1.367599999999584,6.04490000000078,0,11.105400000000373,1.057099999999991,15.185500000001412,3.16649999999936,4.077099999998609,2.112300000000687,7.65139999999883,5.038100000001577,10.723599999999351,8.780200000001059l-7.629800000000614,6.909200000000055c-1.632900000000518-2.302700000000186-4.029300000000148-4.39010000000053-7.19629999999961-6.260700000000725-3.167000000001281-1.871600000000399-7.149499999999534-2.807600000000093-11.947299999999814-2.807600000000093-4.799800000000687,0-8.420900000000984,1.032200000001467-10.868200000000797,3.09519999999975-2.44629999999961,2.063900000001013-3.669899999998961,4.871600000000399-3.669899999998961,8.420400000000882,0,3.648400000000038,1.223599999999351,6.286099999999351,3.669899999998961,7.91649999999936,2.447299999999814,1.633299999999508,5.974600000001374,2.831500000000233,10.580100000001039,3.599100000001272l5.757799999999406.863299999999072c8.252000000000407,1.247999999999593,14.106499999999869,3.623499999999694,17.560599999998885,7.125,3.455000000001746,3.504899999999907,5.182600000000093,8.085399999999936,5.182600000000093,13.746100000000297,0,7.197299999999814-2.447299999999814,12.860800000000381-7.340799999998126,16.985800000000381-4.894599999999627,4.12749999999869-11.613300000000891,6.189500000000407-20.152400000000853,6.189500000000407Z"/><path class="uuid-5cc5bcda-8ad4-437d-ba69-1bb939c28bca" d="M1102.101500000000669,336.833400000001348c-4.029300000001967,0-7.077100000002247-1.124499999999898-9.139600000002247-3.373500000001513-2.064500000000407-2.248999999999796-3.094699999997829-5.195299999999406-3.094699999997829-8.834499999999025v-51.846199999999953h-12.235400000001391v-10.218700000001263h6.909200000000055c2.494099999999889,0,4.197200000000521-.504899999999907,5.110300000000279-1.512699999999313.911200000000463-1.006799999999203,1.367199999998775-2.756799999999203,1.367199999998775-5.252899999999499v-13.819400000000314h10.364300000001094v20.584999999999127h16.265599999998813v10.218700000001263h-16.265599999998813v53.834999999999127h15.113300000000891v10.219200000001365h-14.394599999999627Z"/><path class="uuid-5cc5bcda-8ad4-437d-ba69-1bb939c28bca" d="M1141.973599999999351,245.142499999999927c-2.496100000000297,0-4.295899999999165-.597599999999147-5.397500000000946-1.798799999998664-1.104499999999462-1.199200000000928-1.65519999999924-2.756800000001022-1.65519999999924-4.67870000000039v-1.871100000000297c0-1.918499999999767.550699999999779-3.477500000000873,1.65519999999924-4.678200000000288,1.101600000001781-1.198800000000119,2.901400000000649-1.799300000000585,5.397500000000946-1.799300000000585,2.495100000000093,0,4.293899999998757.600500000000466,5.397500000000946,1.799300000000585,1.102499999999054,1.200699999999415,1.656199999999444,2.759700000000521,1.656199999999444,4.678200000000288v1.871100000000297c0,1.921899999999368-.55370000000039,3.479499999999462-1.656199999999444,4.67870000000039-1.103600000002189,1.201199999999517-2.902400000000853,1.798799999998664-5.397500000000946,1.798799999998664ZM1136.215799999998126,262.560499999999593h11.515600000002451v74.272900000001755h-11.515600000002451v-74.272900000001755Z"/><path class="uuid-5cc5bcda-8ad4-437d-ba69-1bb939c28bca" d="M1199.837899999998626,338.561000000001513c-5.181699999999182,0-9.836999999999534-.913600000001679-13.961999999999534-2.734900000001289-4.126899999999296-1.822200000000521-7.606400000000576-4.413099999999758-10.435499999999593-7.772399999999834-2.832000000000335-3.358399999999165-4.99120000000039-7.435600000000704-6.477500000000873-12.235399999999572-1.488299999999072-4.79739999999947-2.230499999999665-10.170900000000984-2.230499999999665-16.122100000000501,0-5.948200000000725.742200000000594-11.321700000000419,2.230499999999665-16.121100000000297,1.486300000000483-4.797300000000178,3.645500000000538-8.87539999999899,6.477500000000873-12.23529999999846,2.829099999999016-3.357900000000882,6.308600000000297-5.948700000000827,10.435499999999593-7.772500000000946,4.125-1.822200000000521,8.780300000000352-2.734800000000178,13.961999999999534-2.734800000000178,7.388600000002043,0,13.315399999999499,1.607900000000882,17.77730000000156,4.821700000000419,4.461899999998423,3.216399999999339,7.794899999998961,7.413099999999758,10.003899999999703,12.594799999998941l-9.644500000000335,4.894500000000335c-1.343800000000556-3.837400000000343-3.550799999999072-6.813000000000102-6.621100000000297-8.924799999998868-3.072299999999814-2.109400000001187-6.909200000000055-3.166500000001179-11.515600000000632-3.166500000001179-3.454099999999016,0-6.476599999998143.553200000000288-9.068400000000111,1.655300000000352-2.589799999999741,1.10399999999936-4.75,2.64010000000053-6.476599999998143,4.606400000000576-1.727500000000873,1.96730000000025-3.023400000001857,4.318400000000111-3.886700000000928,7.052700000000186-.863299999999072,2.73489999999947-1.295899999999165,5.735899999999674-1.295899999999165,8.995699999999488v12.666900000000169c0,6.527899999999136,1.75,11.876000000000204,5.254899999999907,16.05029999999897,3.501000000000204,4.174399999999878,8.658199999998033,6.261300000000119,15.47269999999844,6.261300000000119,9.306599999999889,0,16.025300000001153-4.318400000000111,20.15230000000156-12.95509999999922l8.348599999999351,5.614199999999983c-2.399400000000242,5.375500000000102-5.973599999999351,9.644599999999627-10.723599999999351,12.811100000000806s-10.675800000000891,4.75-17.77730000000156,4.75Z"/><path class="uuid-5cc5bcda-8ad4-437d-ba69-1bb939c28bca" d="M1266.914000000000669,338.561000000001513c-6.909200000001874,0-12.691400000001522-1.319800000001123-17.344700000001467-3.95850000000064-4.655299999998533-2.638200000001234-8.66110000000117-6.165100000000166-12.019499999998516-10.580100000001039l8.204099999999016-6.621099999998478c2.878899999999703,3.647999999999229,6.093699999999444,6.45509999999922,9.644499999998516,8.419899999998961,3.548800000000483,1.968800000000556,7.675800000000891,2.951699999999619,12.378900000001522,2.951699999999619,4.894500000000335,0,8.709000000000742-1.055199999998877,11.443399999998292-3.16649999999936,2.735300000000279-2.10989999999947,4.102500000000873-5.085900000000038,4.102500000000873-8.924800000000687,0-2.878899999999703-.935499999999593-5.348199999998542-2.806599999999889-7.413099999999758-1.872100000000501-2.0625-5.253899999999703-3.476599999999962-10.147499999999127-4.246100000000297l-5.90230000000156-.863799999999173c-3.45509999999922-.47899999999936-6.621100000000297-1.223100000001068-9.5-2.230900000000474s-5.397499999999127-2.350599999999758-7.556699999999182-4.030300000000352c-2.159200000000055-1.677699999998367-3.839799999999741-3.765099999998711-5.038099999999758-6.261699999999109-1.201100000000224-2.494099999999889-1.799800000000687-5.469699999999648-1.799800000000687-8.923800000000483,0-3.646499999998923.670000000001892-6.837400000000343,2.015699999999924-9.572799999999916,1.342700000001059-2.73489999999947,3.189400000001115-5.012199999999211,5.541900000000169-6.836900000000242,2.350600000001577-1.821799999999712,5.15730000000076-3.189899999999398,8.420000000001892-4.102100000000064,3.260699999998906-.911099999999351,6.765599999998813-1.367599999999584,10.50879999999961-1.367599999999584,6.044899999998961,0,11.105400000000373,1.057099999999991,15.185499999999593,3.16649999999936,4.077199999999721,2.112300000000687,7.65139999999883,5.038100000001577,10.723599999999351,8.780200000001059l-7.629800000000614,6.909200000000055c-1.632900000000518-2.302700000000186-4.029299999998329-4.39010000000053-7.197299999999814-6.260700000000725-3.165999999999258-1.871600000000399-7.148399999998219-2.807600000000093-11.94629999999961-2.807600000000093-4.799800000000687,0-8.420900000000984,1.032200000001467-10.868200000000797,3.09519999999975-2.44629999999961,2.063900000001013-3.669899999998961,4.871600000000399-3.669899999998961,8.420400000000882,0,3.648400000000038,1.223599999999351,6.286099999999351,3.669899999998961,7.91649999999936,2.447299999999814,1.633299999999508,5.974600000001374,2.831500000000233,10.580100000001039,3.599100000001272l5.757800000001225.863299999999072c8.251999999998588,1.247999999999593,14.10649999999805,3.623499999999694,17.560599999998885,7.125,3.45509999999922,3.504899999999907,5.181599999999889,8.085399999999936,5.181599999999889,13.746100000000297,0,7.197299999999814-2.446300000001429,12.860800000000381-7.339799999999741,16.985800000000381-4.894599999999627,4.12749999999869-11.613300000000891,6.189500000000407-20.152399999999034,6.189500000000407Z"/><path class="uuid-5cc5bcda-8ad4-437d-ba69-1bb939c28bca" d="M1378.036099999999351,338.561000000001513c-8.157199999999648,0-15.114299999999275-1.561100000000806-20.872099999998682-4.678200000000288-5.757800000001225-3.117200000000594-10.651300000001356-7.413099999999758-14.681600000001708-12.882900000000518l8.923800000000483-7.485300000000279c3.549799999998868,4.703100000000632,7.485399999999572,8.276900000000751,11.803699999998571,10.723599999999351,4.318400000000111,2.447299999999814,9.403300000001764,3.670900000000984,15.257800000001225,3.670900000000984,7.197299999999814,0,12.689500000000407-1.727500000000873,16.481499999999869-5.181599999999889,3.789000000000669-3.455100000001039,5.685499999999593-8.061499999999796,5.685499999999593-13.818900000000212,0-4.796800000000076-1.439399999999296-8.492099999999482-4.318299999998999-11.082500000000437-2.878899999999703-2.591800000000148-7.628899999999703-4.654300000000148-14.25-6.190399999999499l-8.20509999999922-1.871100000000297c-9.211900000002061-2.110399999999572-16.242200000000594-5.301299999999173-21.086900000002061-9.57129999999961-4.846699999998236-4.269500000000335-7.269599999999627-10.292999999999665-7.269599999999627-18.065899999999601,0-4.412599999999657.814500000000407-8.348200000000361,2.447299999999814-11.802700000000186,1.630900000000111-3.454600000000937,3.909200000001874-6.33350000000064,6.836900000002061-8.636300000000119,2.925799999999072-2.30370000000039,6.42779999999766-4.05370000000039,10.507799999999406-5.253899999999703,4.078199999999924-1.199200000000928,8.564500000000407-1.799800000000687,13.458999999998923-1.799800000000687,7.579099999999016,0,14.081099999999424,1.392600000001039,19.503899999999703,4.174800000000687,5.420000000000073,2.784200000000055,10.003899999999703,6.861299999998664,13.746100000000297,12.235399999999572l-9.068299999998999,6.620600000000195c-2.784200000001874-3.837400000000343-6.142600000001039-6.859900000001289-10.075199999999313-9.068400000000111-3.936600000000908-2.206500000000233-8.830100000001039-3.310499999999593-14.682600000001912-3.310499999999593-6.429699999998775,0-11.492199999998775,1.367199999998775-15.185599999998885,4.101999999998952-3.695299999999406,2.735399999999572-5.542000000001281,6.837900000000445-5.542000000001281,12.307200000001103,0,4.800199999999677,1.558600000000297,8.420799999999872,4.67870000000039,10.867599999999584,3.117200000000594,2.446799999999712,7.843800000000556,4.390699999999924,14.177800000001298,5.83009999999922l8.204999999998108,1.871100000000297c9.882900000000518,2.20850000000064,17.03230000000076,5.566399999999703,21.447299999999814,10.075699999999415,4.412100000001374,4.511200000000827,6.621100000000297,10.507800000001225,6.621100000000297,17.992700000000696,0,4.606400000000576-.790999999999258,8.78019999999924-2.375,12.523400000000038-1.583999999998923,3.742200000000594-3.864299999999275,6.909200000000055-6.836899999998423,9.5-2.975600000001577,2.590799999999945-6.59860000000117,4.606400000000576-10.868200000000797,6.045399999999063-4.270499999998719,1.439500000000407-9.092800000000352,2.159200000001874-14.465799999999945,2.159200000001874Z"/><path class="uuid-5cc5bcda-8ad4-437d-ba69-1bb939c28bca" d="M1460.370100000000093,338.561000000001513c-4.99120000000039,0-9.549800000000687-.913600000001679-13.674800000000687-2.734900000001289-4.127000000000407-1.822200000000521-7.654300000000148-4.438000000000102-10.58009999999922-7.84519999999975-2.927700000000186-3.40480000000025-5.206100000001243-7.484399999999368-6.836900000002061-12.23489999999947-1.632799999999406-4.75-2.44629999999961-10.09860000000117-2.44629999999961-16.049800000000687,0-5.85149999999885.813500000000204-11.177700000000186,2.44629999999961-15.977499999999054,1.630800000000818-4.796900000001187,3.909200000001874-8.899400000000242,6.836900000002061-12.306599999999889,2.925799999999072-3.405300000000352,6.453099999998813-6.02100000000064,10.58009999999922-7.84480000000076,4.125-1.822200000000521,8.683600000000297-2.734800000000178,13.674800000000687-2.734800000000178,4.988299999999072,0,9.522399999998015.912599999999657,13.602499999999054,2.734800000000178,4.07720000000154,1.823800000000119,7.603499999999258,4.439500000000407,10.579100000000835,7.84480000000076,2.973699999998644,3.407199999999648,5.27639999999883,7.509699999998702,6.909199999998236,12.306599999999889,1.630900000000111,4.799799999998868,2.447299999999814,10.126000000000204,2.447299999999814,15.977499999999054,0,5.951199999999517-.816399999999703,11.299800000000687-2.447299999999814,16.049800000000687-1.632799999999406,4.750500000000102-3.935499999999593,8.83009999999922-6.909199999998236,12.23489999999947-2.975600000001577,3.407199999999648-6.501899999999296,6.022999999999229-10.579100000000835,7.84519999999975-4.080100000001039,1.82129999999961-8.614199999999983,2.734900000001289-13.602499999999054,2.734900000001289ZM1460.370100000000093,328.340799999999945c6.236300000000483,0,11.32129999999961-1.917999999999665,15.257799999999406-5.757799999999406,3.933600000000297-3.836499999999432,5.90139999999883-9.690500000000611,5.90139999999883-17.560600000000704v-10.651799999999639c0-7.867199999998775-1.967799999998533-13.721700000000055-5.90139999999883-17.561099999998987-3.936499999999796-3.83640000000014-9.021499999998923-5.757300000001123-15.257799999999406-5.757300000001123-6.239300000001094,0-11.324200000000928,1.920900000000984-15.257799999999406,5.757300000001123-3.936600000000908,3.839399999998932-5.901400000002468,9.693900000000212-5.901400000002468,17.561099999998987v10.651799999999639c0,7.870100000000093,1.96480000000156,13.724100000001272,5.901400000002468,17.560600000000704,3.933599999998478,3.839799999999741,9.018499999998312,5.757799999999406,15.257799999999406,5.757799999999406Z"/><path class="uuid-5cc5bcda-8ad4-437d-ba69-1bb939c28bca" d="M1540.544899999998961,338.561000000001513c-5.181699999999182,0-9.836900000000242-.913600000001679-13.961900000000242-2.734900000001289-4.127000000000407-1.822200000000521-7.60649999999805-4.413099999999758-10.436499999999796-7.772399999999834-2.831099999999424-3.358399999999165-4.990299999999479-7.435600000000704-6.476599999999962-12.235399999999572-1.489299999999275-4.79739999999947-2.231499999999869-10.170900000000984-2.231499999999869-16.122100000000501,0-5.948200000000725.742200000000594-11.321700000000419,2.231499999999869-16.121100000000297,1.486300000000483-4.797300000000178,3.645500000000538-8.87539999999899,6.476599999999962-12.23529999999846,2.830000000001746-3.357900000000882,6.309499999999389-5.948700000000827,10.436499999999796-7.772500000000946,4.125-1.822200000000521,8.780200000001059-2.734800000000178,13.961900000000242-2.734800000000178,7.388700000001336,0,13.314400000001115,1.607900000000882,17.777299999999741,4.821700000000419,4.461900000000242,3.216399999999339,7.795000000001892,7.413099999999758,10.003899999999703,12.594799999998941l-9.644499999998516,4.894500000000335c-1.344700000001467-3.837400000000343-3.550800000000891-6.813000000000102-6.621100000000297-8.924799999998868-3.072299999999814-2.109400000001187-6.909200000000055-3.166500000001179-11.515600000000632-3.166500000001179-3.45509999999922,0-6.476599999999962.553200000000288-9.068399999998292,1.655300000000352-2.590800000001764,1.10399999999936-4.75,2.64010000000053-6.476500000000669,4.606400000000576-1.727600000001985,1.96730000000025-3.023499999999331,4.318400000000111-3.886800000000221,7.052700000000186-.863199999999779,2.73489999999947-1.295900000000984,5.735899999999674-1.295900000000984,8.995699999999488v12.666900000000169c0,6.527899999999136,1.75,11.876000000000204,5.254000000000815,16.05029999999897,3.501899999999296,4.174399999999878,8.659100000000763,6.261300000000119,15.473599999999351,6.261300000000119,9.306600000001708,0,16.025400000000445-4.318400000000111,20.152299999999741-12.95509999999922l8.348700000000463,5.614199999999983c-2.399400000000242,5.375500000000102-5.973700000000463,9.644599999999627-10.723700000000463,12.811100000000806s-10.676699999999983,4.75-17.777299999999741,4.75Z"/><path class="uuid-5cc5bcda-8ad4-437d-ba69-1bb939c28bca" d="M1591.067299999998795,245.142499999999927c-2.496999999999389,0-4.295799999999872-.597599999999147-5.397399999999834-1.798799999998664-1.104499999999462-1.199200000000928-1.655300000000352-2.756800000001022-1.655300000000352-4.67870000000039v-1.871100000000297c0-1.918499999999767.550800000000891-3.477500000000873,1.655300000000352-4.678200000000288,1.101599999999962-1.198800000000119,2.900400000000445-1.799300000000585,5.397399999999834-1.799300000000585,2.494200000001001,0,4.294000000001688.600500000000466,5.397500000000946,1.799300000000585,1.102499999999054,1.200699999999415,1.656300000000556,2.759700000000521,1.656300000000556,4.678200000000288v1.871100000000297c0,1.921899999999368-.553800000001502,3.479499999999462-1.656300000000556,4.67870000000039-1.103499999999258,1.201199999999517-2.903299999999945,1.798799999998664-5.397500000000946,1.798799999998664ZM1585.309499999999389,262.560499999999593h11.515699999999924v74.272900000001755h-11.515699999999924v-74.272900000001755Z"/><path class="uuid-5cc5bcda-8ad4-437d-ba69-1bb939c28bca" d="M1649.219699999999648,338.561000000001513c-5.086900000000242,0-9.668999999999869-.913600000001679-13.746100000000297-2.734900000001289-4.080100000001039-1.822200000000521-7.582000000000335-4.438000000000102-10.507800000001225-7.84519999999975-2.928699999998571-3.40480000000025-5.181699999999182-7.484399999999368-6.765599999998813-12.23489999999947-1.582999999998719-4.75-2.374100000000908-10.09860000000117-2.374100000000908-16.049800000000687,0-5.85149999999885.791100000002189-11.177700000000186,2.374100000000908-15.977499999999054,1.58389999999963-4.796900000001187,3.836900000000242-8.899400000000242,6.765599999998813-12.306599999999889,2.925800000000891-3.405300000000352,6.427700000000186-6.02100000000064,10.507800000001225-7.84480000000076,4.077100000000428-1.822200000000521,8.659200000000055-2.734800000000178,13.746100000000297-2.734800000000178,4.989299999999275,0,9.451199999999517.908199999999852,13.386700000000928,2.725599999999758,3.933599999998478,1.817300000000614,7.291999999997643,4.329499999999825,10.076199999999517,7.532199999999648,2.782199999999648,3.203100000000632,4.916999999999462,7.003900000001522,6.405299999998533,11.402799999999843,1.486300000000483,4.399400000000242,2.231400000000576,9.228000000000975,2.231400000000576,14.486300000000483v5.451699999999619h-53.403299999999945v3.455100000001039c0,3.16649999999936.503899999999703,6.117200000000594,1.511700000000928,8.851999999998952,1.007799999999406,2.734900000001289,2.447299999999814,5.110400000001391,4.318400000000111,7.125,1.871100000000297,2.015699999999924,4.173799999998664,3.598700000000463,6.909099999998944,4.751000000000204,2.735399999999572,1.151400000000649,5.830100000001039,1.726599999999962,9.284200000000055,1.726599999999962,4.701199999999517,0,8.802800000001298-1.102600000000166,12.307600000000093-3.310599999998885,3.501000000000204-2.206000000000131,6.211999999999534-5.372999999999593,8.131900000000314-9.5l8.20509999999922,5.939500000000407c-2.399499999999534,5.119099999999889-6.14259999999922,9.246099999998478-11.227599999998347,12.38379999999961-5.086900000002061,3.137699999999313-11.132800000001225,4.707500000000437-18.136700000000928,4.707500000000437ZM1649.219699999999648,270.476500000000669c-3.166999999999462,0-6.044899999998961.548800000000483-8.635700000000725,1.646499999998923-2.591799999998329,1.097700000000259-4.822299999999814,2.647500000000946-6.693400000000111,4.648400000001857-1.871100000000297,2.001999999998588-3.335900000000038,4.363299999999072-4.390599999998813,7.081099999999424-1.056700000001001,2.718699999999444-1.584000000000742,5.698199999998906-1.584000000000742,8.941399999999703v1.001000000000204h41.023400000000038v-1.57470000000103c0-6.580599999999322-1.798800000000483-11.84769999999844-5.397399999999834-15.80619999999908-3.598700000000463-3.958000000000538-8.373099999998885-5.9375-14.322299999999814-5.9375Z"/><path class="uuid-5cc5bcda-8ad4-437d-ba69-1bb939c28bca" d="M1716.728499999999258,336.833400000001348c-4.031300000000556,0-7.078100000000632-1.124499999999898-9.140600000000632-3.373500000001513-2.064500000000407-2.248999999999796-3.094799999998941-5.195299999999406-3.094799999998941-8.834499999999025v-51.846199999999953h-12.235300000000279v-10.218700000001263h6.909200000000055c2.494099999999889,0,4.197200000000521-.504899999999907,5.110300000000279-1.512699999999313.910200000000259-1.006799999999203,1.367199999998775-2.756799999999203,1.367199999998775-5.252899999999499v-13.819400000000314h10.363300000000891v20.584999999999127h16.265599999998813v10.218700000001263h-16.265599999998813v53.834999999999127h15.114199999999983v10.219200000001365h-14.393500000000131Z"/><path class="uuid-5cc5bcda-8ad4-437d-ba69-1bb939c28bca" d="M1796.615200000000186,262.560499999999593h11.372100000000501l-33.251000000000204,91.545900000000984c-.863300000000891,2.207000000000335-1.727500000000873,4.052700000000186-2.590800000001764,5.54149999999936-.864299999999275,1.486800000000585-1.920899999999165,2.66359999999986-3.166999999999462,3.526900000000751-1.248099999998885.864199999999983-2.806699999999182,1.487300000000687-4.677799999999479,1.870999999999185-1.871000000001004.382400000000416-4.15230000000156.576200000001336-6.837800000001153.576200000001336h-5.90139999999883v-10.219699999999648h11.659199999998236l5.614200000001802-15.808600000000297-27.781199999999444-77.033200000001671h11.515599999998813l17.84860000000117,50.425800000000891,3.45509999999922,12.06880000000092h.718799999998737l4.031200000001263-12.06880000000092,17.992200000000594-50.425800000000891Z"/><path class="uuid-5cc5bcda-8ad4-437d-ba69-1bb939c28bca" d="M654.682598437499109,477.751907812500576l-3.6103515625-11.4755859375h-15.98828125l-3.5458984375,11.4755859375h-8.638671875l15.0859375-44.9990234375h10.5732421875l14.9560546875,44.9990234375h-8.83203125ZM643.207012499999109,440.489212500000576h-.322265625l-5.7373046875,18.501953125h11.8623046875l-5.802734375-18.501953125Z"/><path class="uuid-5cc5bcda-8ad4-437d-ba69-1bb939c28bca" d="M698.717754687499109,477.751907812500576l-3.6103515625-11.4755859375h-15.98828125l-3.5458984375,11.4755859375h-8.638671875l15.0859375-44.9990234375h10.5732421875l14.9560546875,44.9990234375h-8.83203125ZM687.242168749999109,440.489212500000576h-.322265625l-5.7373046875,18.501953125h11.8623046875l-5.802734375-18.501953125Z"/></g></svg>