<?xml version="1.0" encoding="UTF-8"?><svg id="uuid-3578a7f5-f2e4-4f55-9f51-b7fc87fc34b5" xmlns="http://www.w3.org/2000/svg" width="223.375851645231137mm" height="250.004051829100774mm" xmlns:xlink="http://www.w3.org/1999/xlink" viewBox="0 0 633.191399999999703 708.672913465847159"><defs><style>.uuid-49234ed2-b598-46c4-b75b-08456a664023{fill:#fff;}.uuid-bef1420c-9946-4a51-9233-3144f7d6099a{clip-path:url(#uuid-a7556674-e5f5-4542-9f42-0b3fe3b005c7);}.uuid-40e43a25-290e-4644-a053-23156629c8be{fill:none;}.uuid-25f87875-2dc1-40d0-98a3-b994ccc17b48{fill:#333e48;}.uuid-c1239a99-9734-4650-9b83-b60078e3bb92{fill:#9f9ea7;}.uuid-79f0388f-eb20-4244-901d-f3438cc664a6{fill:#5a5c66;}.uuid-de8292e7-a8e1-40f3-a67d-d49f94a13286{fill:#858591;}</style><clipPath id="uuid-a7556674-e5f5-4542-9f42-0b3fe3b005c7"><rect class="uuid-40e43a25-290e-4644-a053-23156629c8be" width="633.191399999999703" height="708.672913465847159"/></clipPath></defs><g class="uuid-bef1420c-9946-4a51-9233-3144f7d6099a"><path class="uuid-79f0388f-eb20-4244-901d-f3438cc664a6" d="M77.708999999999833,170.748100000000704c3.777299999999741,0,6.83889999999974,3.061499999999796,6.83889999999974,6.837899999999536-.000999999999294-.139699999999721-.005900000000111-.278400000000147-.005900000000111-.418999999999869,0-51.154300000000148,41.467800000000352-92.625,92.626000000000204-92.625,3.775400000000445,0,6.836900000000242-3.060500000000502,6.836900000000242-6.837899999999536,0-3.775400000000445-3.061499999999796-6.837900000000445-6.836900000000242-6.837900000000445-14.34479999999985,0-28.26759999999922,2.8125-41.382799999999406,8.359399999999368-12.659200000000055,5.355500000000575-24.025400000000445,13.017600000001039-33.783200000000761,22.775400000000445-9.759799999999814,9.757800000000316-17.421899999999368,21.125-22.775399999999536,33.785200000000259-5.546900000000278,13.115200000000186-8.359400000000278,27.037099999999555-8.359400000000278,41.380799999999908,0,.140599999999722.003900000000613.279300000000148.004899999999907.418999999999869,0-3.77639999999974,3.060500000000502-6.837899999999536,6.836900000000242-6.837899999999536Z"/><path class="uuid-de8292e7-a8e1-40f3-a67d-d49f94a13286" d="M170.33010000000013,276.62992438017136c0-3.775399904625374,3.060499999999593-6.837899827260117,6.837899999999536-6.837899827260117-51.01759999999922,0-92.394599999999627-41.243124552910558-92.620100000000093-92.206024552911003,0-3.77639999999974-3.061599999999999-6.837899999999536-6.83889999999974-6.837899999999536-3.77639999999974,0-6.836900000000242,3.061499999999796-6.836900000000242,6.837899999999536.05370000000039,14.19630000000052,2.861300000000483,27.975499999999556,8.354500000000371,40.962900000000445,5.353500000000167,12.659099999999853,13.015599999999722,24.026325240464757,22.775399999999536,33.784124993961996,9.757800000000316,9.759775006037671,21.124000000000706,17.421899559885787,33.783200000000761,22.775399424645002,13.115200000000186,5.547899859848258,27.037999999999556,8.360375581392873,41.382799999999406,8.360375581392873-3.777399999999943,0-6.837899999999536-3.061475715254346-6.837899999999536-6.838875619829196Z"/><path class="uuid-c1239a99-9734-4650-9b83-b60078e3bb92" d="M251.26760000000013,243.706125211896506c-2.671900000000278-2.67192521189645-7-2.67192521189645-9.670900000000074,0-16.670900000000074,16.144499592155626-39.38799999999992,26.085899341014738-64.42870000000039,26.085899341014738-3.777399999999943,0-6.837899999999536,3.062499922634743-6.837899999999536,6.837899827260117,0,3.77739990457485,3.060499999999593,6.838875619829196,6.837899999999536,6.838875619829196,14.343700000000354,0,28.266600000000381-2.812475721544615,41.380800000000363-8.360375581392873,12.202899999999772-5.16009986964491,23.199000000000069-12.472624418607666,32.718800000000101-21.732399450993398,2.66989999999987-2.669899932552653,2.66989999999987-6.999999823165126,0-9.669899755717779Z"/><path class="uuid-c1239a99-9734-4650-9b83-b60078e3bb92" d="M233.458700000000135,120.875c-15.034900000000107-15.036099999999351-35.027100000000246-23.315399999999499-56.292699999999968-23.315399999999499-21.262700000000223,0-41.255799999999908,8.279300000000148-56.291000000000167,23.315399999999499-15.035200000000259,15.036200000000463-23.317399999999907,35.028299999999945-23.317399999999907,56.292000000000371,0,21.265599999999722,8.282199999999648,41.254899999999907,23.317399999999907,56.292999999999665,15.035200000000259,15.035125090916154,35.028299999999945,23.316424881712919,56.291000000000167,23.316424881712919,21.265599999999722,0,41.257799999999861-8.281299790796766,56.292699999999968-23.316424881712919,15.035399999999754-15.038099999999758,23.315699999999651-35.027399999999943,23.315699999999651-56.292999999999665,0-21.263700000000426-8.280299999999897-41.255799999999908-23.315699999999651-56.292000000000371Z"/><path class="uuid-25f87875-2dc1-40d0-98a3-b994ccc17b48" d="M121.0625,202.913099999999758v-51.490199999999277h11.166000000000167v3.806599999999889h-6.472600000000057v43.876999999999498h6.472600000000057v3.806599999999889h-11.166000000000167Z"/><path class="uuid-25f87875-2dc1-40d0-98a3-b994ccc17b48" d="M233.271499999999833,151.422900000000482v51.490199999999277h-11.164099999999962v-3.806599999999889h6.468800000000101v-43.876999999999498h-6.468800000000101v-3.806599999999889h11.164099999999962Z"/><path class="uuid-49234ed2-b598-46c4-b75b-08456a664023" d="M146.996100000000297,187.628000000000611c0,1.027299999999741.016599999999926,2.24119999999948.048799999999574,3.634699999999611.031300000000556,1.394600000000537.075200000000223,2.8125.128899999999703,4.248099999999795.052800000000389,1.4375.117200000000594,2.8125.193400000000111,4.121100000000297.074200000000019,1.308600000000297.166000000000167,2.402299999999741.273400000000038,3.281199999999444h-6.597600000000057v-36.365199999999277c0-3.131900000000314-.052799999999479-5.968799999999646-.16019999999935-8.511700000000019-.10739999999987-2.542999999999665-.26760000000013-4.748100000000704-.483400000000074-6.613299999999981h6.596700000000055v36.20510000000013Z"/><path class="uuid-49234ed2-b598-46c4-b75b-08456a664023" d="M175.799799999999777,170.087900000000445v4.216800000000148h-6.049799999999777v24.393599999999424h6.049799999999777v4.214799999999741h-18.020499999999629v-4.214799999999741h5.953099999999722v-24.393599999999424h-5.953099999999722v-4.216800000000148h18.020499999999629Z"/><path class="uuid-49234ed2-b598-46c4-b75b-08456a664023" d="M189.316399999999703,170.087900000000445c.128900000000613.343799999999646.257800000000316.788099999999758.385700000000725,1.336900000000242.129899999999907.546899999999368.246099999999387,1.119199999999182.354499999999462,1.720699999999852.105499999999665.599599999999555.203199999999924,1.190499999999702.290100000000166,1.769599999999627l.255799999999908,1.447200000000521c2.060599999999795-2.445300000000316,4.129899999999907-4.209000000000742,6.21100000000024-5.292900000000373,2.080999999999676-1.083000000000538,4.25-1.625,6.500999999999749-1.625,1.71770000000015,0,3.235299999999825.283199999999852,4.554599999999937.852499999999964,1.319400000000314.569300000000112,2.429700000000139,1.470699999999852,3.331100000000333,2.703099999999722.900399999999991,1.234400000000278,1.580999999999676,2.833000000000538,2.043899999999667,4.795900000000074.46100000000024,1.962900000000445.691400000000158,4.326200000000426.691400000000158,7.096700000000055v14.479500000000371c0,3.626899999999296-.317300000000159,6.636700000000019-.95010000000002,9.027299999999741-.63189999999986,2.393600000000333-1.518599999999878,4.302800000000389-2.654300000000148,5.730499999999665-1.136799999999766,1.423800000000483-2.505899999999656,2.433600000000297-4.103599999999915,3.023400000000038-1.598599999999806.589900000000853-3.373999999999796.884800000000723-5.327099999999973.884800000000723-.964899999999943,0-2-.155300000000352-3.10550000000012-.466800000000148-1.103500000000167-.311500000000706-2.10739999999987-.744099999999889-3.007800000000316-1.302700000000186l2.091800000000148-4.828099999999722c.493199999999888.365200000000186,1.152300000000196.66989999999987,1.978500000000167.917899999999463.826199999999972.246100000000297,1.669000000000324.369200000000092,2.525399999999991.369200000000092,1.031300000000101,0,1.954099999999926-.165100000000166,2.770500000000084-.498099999999795.814499999999953-.332000000000335,1.505900000000111-.916000000000167,2.074200000000019-1.752900000000409.568400000000111-.836899999999332,1.003000000000156-1.985399999999572,1.303699999999935-3.444299999999203.29989999999998-1.459000000000742.450200000000223-3.314500000000407.450200000000223-5.566500000000815v-14.161099999999351c0-2.574200000000019-.133700000000317-4.66110000000026-.402300000000196-6.25880000000052-.26760000000013-1.597600000000057-.670900000000074-2.843699999999444-1.20699999999988-3.733400000000074-.536200000000008-.889599999999518-1.207300000000032-1.48529999999937-2.012700000000223-1.787099999999555-.802799999999934-.298800000000483-1.742199999999684-.450200000000223-2.814499999999953-.450200000000223-1.158199999999852,0-2.28899999999976.274400000000242-3.39449999999988.822299999999814-1.104499999999916.546900000000278-2.120099999999638,1.254900000000816-3.04300000000012,2.123000000000502-.921900000000278.869200000000092-1.736299999999574,1.849599999999555-2.444300000000112,2.945299999999406-.707999999999629,1.093800000000556-1.234399999999368,2.1875-1.578099999999722,3.281300000000556v18.665999999999258h-5.952199999999721v-19.790999999999258c0-3.175799999999981-.183600000000297-5.863299999999981-.548800000000483-8.0625-.363299999999981-2.199200000000019-.718799999999646-3.856400000000576-1.061499999999796-4.971700000000055h5.793899999999667Z"/><path class="uuid-25f87875-2dc1-40d0-98a3-b994ccc17b48" d="M107.457500000000437,426.163122417287013v-67.755400000000009h8.153799999999137v60.572299999999814h28.83010000000013v7.183100000000195h-36.983899999999267Z"/><path class="uuid-25f87875-2dc1-40d0-98a3-b994ccc17b48" d="M159.195800000000418,364.329122417286271c-1.683600000000297,0-2.897400000000744-.403299999999945-3.640600000000632-1.213399999999638-.744599999999991-.808099999999286-1.11619999999948-1.858900000000176-1.11619999999948-3.154799999999341v-1.261700000000928c0-1.293899999999667.371599999999489-2.34519999999975,1.11619999999948-3.155300000000352.743199999999888-.808599999999387,1.957000000000335-1.213299999999435,3.640600000000632-1.213299999999435,1.681699999999182,0,2.895499999999629.404700000000048,3.64009999999962,1.213299999999435.743199999999888.810100000000602,1.116299999999683,1.861400000000685,1.116299999999683,3.155300000000352v1.261700000000928c0,1.295899999999165-.373099999999795,2.346700000000055-1.116299999999683,3.154799999999341-.744599999999991.810099999999693-1.958400000000438,1.213399999999638-3.64009999999962,1.213399999999638ZM155.313000000000102,376.075222417286568h7.765599999999722v50.087900000000445h-7.765599999999722v-50.087900000000445Z"/><path class="uuid-25f87875-2dc1-40d0-98a3-b994ccc17b48" d="M179.580600000000231,426.163122417287013v-50.087900000000445h7.765599999999722v8.060999999999694h.388200000000325c1.228500000000167-2.817900000000009,2.960399999999936-5.060999999999694,5.193299999999908-6.72649999999976,2.233000000000175-1.665599999999358,5.225099999999657-2.4996000000001,8.978999999999814-2.4996000000001,5.176800000000185,0,9.270599999999831,1.666999999998552,12.279799999999796,4.999100000000908,3.009300000000167,3.333999999998923,4.513700000000426,8.041999999999462,4.513700000000426,14.123999999999796v32.129899999999907h-7.765600000000177v-30.837900000000445c0-9.015600000000632-3.785699999999906-13.523499999999331-11.35739999999987-13.523499999999331-1.553300000000036,0-3.057699999999841.195799999999508-4.514200000000073.583999999998923-1.456100000000333.389699999998811-2.766099999999824.973700000000463-3.93119999999999,1.752000000000407-1.164999999999964.778299999999945-2.086900000000242,1.766599999999926-2.766099999999824,2.966800000000148-.679700000000594,1.199200000000019-1.019500000000335,2.610300000000279-1.019500000000335,4.231400000000576v34.827199999999721h-7.765599999999722Z"/><path class="uuid-25f87875-2dc1-40d0-98a3-b994ccc17b48" d="M274.515100000000075,424.51322241728667c0,6.923800000000483-1.941400000000158,12.359800000000178-5.824200000000019,16.307600000000093-3.882799999999861,3.946799999999712-9.351999999999862,5.92239999999947-16.40480000000025,5.92239999999947-4.077099999999973,0-7.58829999999989-.634799999999814-10.532199999999648-1.90139999999974-2.945300000000316-1.269499999999425-5.387200000000121-2.942399999999907-7.328600000000279-5.021999999999935l4.561999999999898-5.362799999999879c1.682100000000446,1.731999999999971,3.623600000000351,3.0649999999996,5.824200000000019,3.996099999999387,2.199300000000221.931700000001001,4.756400000000212,1.396999999999935,7.668500000000222,1.396999999999935,4.529300000000148,0,8.040500000000065-1.251499999999396,10.532200000000103-3.751999999999498,2.490699999999833-2.504399999999805,3.737299999999777-6.192799999999806,3.737299999999777-11.067799999999806v-6.92830000000049h-.38819999999987c-1.489199999999983,3.075700000000325-3.43060000000014,5.381400000000212-5.824200000000019,6.918999999999869-2.394999999999982,1.53859999999986-5.338799999999992,2.307099999999991-8.833500000000186,2.307099999999991-3.106399999999667,0-5.921399999999721-.615699999999379-8.445299999999861-1.843699999999444-2.523400000000038-1.22899999999936-4.659200000000055-2.976599999999962-6.406199999999899-5.242200000000594-1.747600000000148-2.264699999999721-3.106499999999869-5.014699999999721-4.077200000000175-8.250999999999294-.970699999999852-3.235400000000482-1.455999999999676-6.859400000000278-1.455999999999676-10.872099999999591,0-4.011700000000928.485299999999825-7.635700000000725,1.455999999999676-10.872000000001208.970700000000306-3.235399999999572,2.329600000000028-5.985399999999572,4.077200000000175-8.250999999999294,1.746999999999844-2.26470000000063,3.882799999999861-4.011700000000019,6.406199999999899-5.242199999999684,2.52390000000014-1.228500000001986,5.338900000000194-1.843800000000556,8.445299999999861-1.843800000000556,3.494700000000194,0,6.487300000000232.753500000000713,8.979000000000269,2.257900000000518,2.490800000000036,1.506799999999203,4.383299999999963,3.828599999999824,5.678699999999935,6.968199999999342h.38819999999987v-8.060999999999694h7.765600000000177v48.438000000000102ZM254.033199999999852,420.436022417286949c1.747600000000148,0,3.397500000000036-.227500000000873,4.950700000000325-.682600000000093,1.553199999999833-.454600000000937,2.895499999999629-1.122600000000602,4.028299999999945-2.000500000000102,1.13189999999986-.876900000000205,2.03859999999986-1.950699999999415,2.718299999999999-3.217800000000352.679200000000037-1.268500000000131,1.018999999999778-2.748999999999796,1.018999999999778-4.439899999999398v-18.634799999999814c0-1.365200000000186-.324200000000019-2.649900000000343-.970699999999852-3.854000000001179-.647399999999834-1.202599999998711-1.553199999999833-2.22649999999885-2.717800000000352-3.072699999998804-1.164999999999964-.844700000000557-2.523899999999685-1.511200000000827-4.077099999999518-1.999499999999898-1.553200000000288-.488300000000891-3.203100000000177-.732500000000073-4.950700000000325-.732500000000073-4.40139999999974,0-7.895999999999731,1.398499999999331-10.483400000000074,4.195399999998699-2.589299999999639,2.796800000000076-3.882799999999861,6.406700000001365-3.882799999999861,10.829999999999018v8.584000000001652c0,4.422899999999572,1.293500000000222,8.03269999999975,3.882799999999861,10.83010000000013,2.587400000000343,2.796399999999267,6.082000000000335,4.194800000000214,10.483400000000074,4.194800000000214Z"/><path class="uuid-25f87875-2dc1-40d0-98a3-b994ccc17b48" d="M321.884799999999814,418.102022417286207h-.38819999999987c-.518599999999878,1.15480000000025-1.149399999999787,2.291500000000269-1.89260000000013,3.412599999998747-.745099999999638,1.120600000001104-1.666999999999916,2.114300000002004-2.766599999999926,2.978600000001279-1.10149999999976.865200000000186-2.426699999999983,1.55370000000039-3.980000000000018,2.066399999999703-1.553199999999833.51220000000103-3.365699999999833.768500000000131-5.435999999999694.768500000000131-5.178200000000288,0-9.287100000000009-1.664999999999054-12.328100000000177-4.998999999999796-3.042500000000018-3.332499999999527-4.5625-8.039999999999054-4.5625-14.123999999999796v-32.129899999999907h7.765600000000177v30.837900000000445c0,9.01509999999962,3.817900000000009,13.522899999999936,11.454599999999573,13.522899999999936,1.553200000000288,0,3.057600000000093-.19380000000092,4.513700000000426-.584000000000742,1.455999999999676-.388100000000122,2.75-.972099999999045,3.882799999999861-1.75,1.131800000000112-.778299999999945,2.038499999999658-1.766999999999825,2.718199999999797-2.967199999999139.679700000000139-1.199300000000221,1.01909999999998-2.643100000001141,1.01909999999998-4.330100000001039v-34.729499999999462h7.765600000000177v50.087900000000445h-7.765600000000177v-8.061100000000806Z"/><path class="uuid-25f87875-2dc1-40d0-98a3-b994ccc17b48" d="M350.034700000000157,364.329122417286271c-1.683600000000297,0-2.896999999999935-.403299999999945-3.640200000000277-1.213399999999638-.744599999999991-.808099999999286-1.116199999999935-1.858900000000176-1.116199999999935-3.154799999999341v-1.261700000000928c0-1.293899999999667.371599999999944-2.34519999999975,1.116199999999935-3.155300000000352.743200000000343-.808599999999387,1.95659999999998-1.213299999999435,3.640200000000277-1.213299999999435,1.682099999999991,0,2.895499999999629.404700000000048,3.64009999999962,1.213299999999435.743200000000343.810100000000602,1.116199999999935,1.861400000000685,1.116199999999935,3.155300000000352v1.261700000000928c0,1.295899999999165-.372999999999593,2.346700000000055-1.116199999999935,3.154799999999341-.744599999999991.810099999999693-1.957999999999629,1.213399999999638-3.64009999999962,1.213399999999638ZM346.151899999999841,376.075222417286568h7.765600000000177v50.087900000000445h-7.765600000000177v-50.087900000000445Z"/><path class="uuid-25f87875-2dc1-40d0-98a3-b994ccc17b48" d="M385.465799999999945,427.328122417286068c-4.659099999999853,0-8.559099999999944-.890099999998711-11.697200000000066-2.668899999998757-3.139699999999721-1.779300000000148-5.840899999999692-4.158200000000761-8.105499999999665-7.134800000000723l5.533199999999852-4.465799999999945c1.941400000000158,2.459899999999834,4.108899999999721,4.352499999999964,6.503900000000158,5.67869999999948,2.393599999999878,1.327100000000428,5.17679999999973,1.990200000000186,8.348199999999906,1.990200000000186,3.300199999999677,0,5.872499999999945-.711899999999332,7.716699999999946-2.135699999999815,1.84479999999985-1.422900000000482,2.766599999999926-3.429699999999684,2.766599999999926-6.018600000000333,0-1.941399999999703-.630799999999908-3.606399999999667-1.892499999999927-4.998999999999796-1.262200000000121-1.390599999999722-3.543500000000222-2.344699999999648-6.843800000000101-2.863299999999072l-3.980000000000018-.583000000000538c-2.329499999999825-.323200000000725-4.465299999999843-.824700000000121-6.406700000000001-1.503899999999703-1.941400000000158-.680200000000696-3.640100000000075-1.585399999999936-5.096199999999953-2.718200000002071-1.456000000000131-1.131399999998393-2.588900000000194-2.539599999998245-3.397500000000036-4.223199999997632-.809999999999945-1.681600000000799-1.21329999999989-3.688500000000204-1.21329999999989-6.017600000001039,0-2.458999999999833.452099999999973-4.611299999999574,1.358899999999721-6.454999999999927.905700000000252-1.84479999999985,2.150800000000345-3.381900000000314,3.737300000000232-4.611399999999776,1.584899999999834-1.228499999999258,3.478000000000065-2.150900000000547,5.678699999999935-2.766599999999926,2.199200000000019-.614199999999983,4.5625-.921900000000278,7.08640000000014-.921900000000278,4.076700000000073,0,7.48929999999973.712400000000343,10.240699999999833,2.135299999999916,2.75,1.424299999999675,5.160200000000259,3.397500000000946,7.231999999999971,5.921400000000176l-5.145099999999729,4.659200000000055c-1.101000000000113-1.552800000000389-2.71770000000015-2.960000000000036-4.853500000000167-4.22269999999935-2.135200000000168-1.261700000000928-4.821300000000065-1.892600000001039-8.056599999999889-1.892600000001039-3.23680000000013,0-5.678699999999935.695800000000418-7.329099999999926,2.086900000000242-1.649900000000343,1.392100000000937-2.475100000000111,3.285200000000259-2.475100000000111,5.678799999999683,0,2.459899999999834.825199999999768,4.239200000000892,2.475100000000111,5.338800000000447,1.650399999999991,1.101599999999962,4.028799999999592,1.909200000000055,7.134699999999611,2.426800000000185l3.882900000000063.582000000000335c5.564900000000307.841800000000148,9.513100000000122,2.444299999999203,11.84270000000015,4.805199999998877,2.329600000000028,2.363300000000891,3.494700000000194,5.45260000000053,3.494700000000194,9.270500000000538,0,4.853500000000167-1.650400000000445,8.67239999999947-4.950700000000325,11.454600000000028-3.300299999999879,2.783200000000761-7.831099999999878,4.173799999999574-13.589899999999943,4.173799999999574Z"/><path class="uuid-25f87875-2dc1-40d0-98a3-b994ccc17b48" d="M428.081099999999878,426.163122417287013c-2.717799999999897,0-4.772999999999683-.757800000000316-6.164099999999962-2.274900000000343-1.392100000000028-1.516599999999926-2.086899999999787-3.503399999999601-2.086899999999787-5.957500000000437v-34.96389999999974h-8.251000000000204v-6.891599999999926h4.659200000000055c1.682099999999991,0,2.830600000000231-.340299999999843,3.446300000000065-1.020000000000437.614199999999983-.679199999999582.921899999999823-1.859399999999368.921899999999823-3.542999999999665v-9.318900000000212h6.989199999999983v13.881900000000314h10.969300000000203v6.891599999999926h-10.969300000000203v36.304699999999684h10.192400000000362v6.891600000000835h-9.707000000000335Z"/><path class="uuid-25f87875-2dc1-40d0-98a3-b994ccc17b48" d="M454.969700000000103,364.329122417286271c-1.683600000000297,0-2.896900000000187-.403299999999945-3.640100000000075-1.213399999999638-.744599999999991-.808099999999286-1.116700000000037-1.858900000000176-1.116700000000037-3.154799999999341v-1.261700000000928c0-1.293899999999667.372100000000046-2.34519999999975,1.116700000000037-3.155300000000352.743199999999888-.808599999999387,1.956499999999778-1.213299999999435,3.640100000000075-1.213299999999435,1.682199999999739,0,2.895500000000084.404700000000048,3.640199999999822,1.213299999999435.74310000000014.810100000000602,1.116199999999935,1.861400000000685,1.116199999999935,3.155300000000352v1.261700000000928c0,1.295899999999165-.373099999999795,2.346700000000055-1.116199999999935,3.154799999999341-.744699999999739.810099999999693-1.958000000000084,1.213399999999638-3.640199999999822,1.213399999999638ZM451.086899999999787,376.075222417286568h7.765600000000177v50.087900000000445h-7.765600000000177v-50.087900000000445Z"/><path class="uuid-25f87875-2dc1-40d0-98a3-b994ccc17b48" d="M493.992200000000139,427.328122417286068c-3.494599999999991,0-6.634300000000167-.615699999999379-9.416000000000167-1.843699999999444-2.783199999999852-1.22899999999936-5.129399999999805-2.976599999999962-7.037600000000111-5.242200000000594-1.909699999999702-2.264699999999721-3.365699999999833-5.014699999999721-4.368199999999888-8.250999999999294-1.003900000000158-3.235400000000482-1.50440000000026-6.859400000000278-1.50440000000026-10.872099999999591,0-4.011700000000928.500500000000102-7.635700000000725,1.50440000000026-10.872000000001208,1.002500000000055-3.235399999999572,2.458500000000186-5.985399999999572,4.368199999999888-8.250999999999294,1.908200000000306-2.26470000000063,4.25440000000026-4.011700000000019,7.037600000000111-5.242199999999684,2.781700000000001-1.228500000001986,5.921400000000176-1.843800000000556,9.416000000000167-1.843800000000556,4.98239999999987,0,8.978999999999814,1.084000000000742,11.988299999999981,3.251000000000204,3.009299999999712,2.169499999999971,5.257299999999759,5,6.746599999999944,8.494200000000092l-6.503900000000158,3.300699999999779c-.906799999999748-2.587800000000243-2.395099999999729-4.594700000000557-4.465400000000045-6.018499999999221-2.071800000000167-1.422900000002301-4.659200000000055-2.135800000000017-7.765599999999722-2.135800000000017-2.329600000000028,0-4.368200000000343.373099999998885-6.115700000000288,1.116299999999683-1.747100000000046.744599999999082-3.203099999999722,1.781199999999444-4.368199999999888,3.106399999999667-1.164499999999862,1.32720000000063-2.03859999999986,2.912100000000464-2.62059999999974,4.756399999998393-.582500000000437,1.845200000001569-.874000000000251,3.867600000002312-.874000000000251,6.066800000001422v8.541999999998552c0,4.402400000001762,1.180200000000241,8.008800000002338,3.54340000000002,10.823800000001029,2.361400000000231,2.815400000001318,5.839399999999841,4.222600000000966,10.435100000000148,4.222600000000966,6.27639999999974,0,10.806599999999889-2.911600000000362,13.589799999999741-8.736300000000483l5.630400000000009,3.785600000000159c-1.618199999999888,3.625-4.028299999999945,6.503900000000613-7.231899999999769,8.63970000000063-3.203100000000177,2.135199999998804-7.199700000000121,3.203099999998813-11.988299999999981,3.203099999998813Z"/><path class="uuid-25f87875-2dc1-40d0-98a3-b994ccc17b48" d="M539.226599999999962,427.328122417286068c-4.659700000000157,0-8.559099999999944-.890099999998711-11.697299999999814-2.668899999998757-3.139599999999973-1.779300000000148-5.840799999999945-4.158200000000761-8.10550000000012-7.134800000000723l5.533199999999852-4.465799999999945c1.941400000000158,2.459899999999834,4.108900000000176,4.352499999999964,6.503900000000158,5.67869999999948,2.393099999999777,1.327100000000428,5.176300000000083,1.990200000000186,8.348199999999906,1.990200000000186,3.300299999999879,0,5.872600000000148-.711899999999332,7.716800000000148-2.135699999999815,1.844700000000103-1.422900000000482,2.766599999999926-3.429699999999684,2.766599999999926-6.018600000000333,0-1.941399999999703-.630900000000111-3.606399999999667-1.89260000000013-4.998999999999796-1.262199999999666-1.390599999999722-3.54340000000002-2.344699999999648-6.843699999999899-2.863299999999072l-3.980000000000018-.583000000000538c-2.329600000000028-.323200000000725-4.465299999999843-.824700000000121-6.406799999999748-1.503899999999703-1.941400000000158-.680200000000696-3.640100000000075-1.585399999999936-5.096100000000206-2.718200000002071-1.456099999999878-1.131399999998393-2.588900000000194-2.539599999998245-3.397500000000036-4.223199999997632-.810100000000148-1.681600000000799-1.213400000000092-3.688500000000204-1.213400000000092-6.017600000001039,0-2.458999999999833.452200000000175-4.611299999999574,1.358900000000176-6.454999999999927.905799999999999-1.84479999999985,2.150900000000092-3.381900000000314,3.737299999999777-4.611399999999776,1.585000000000036-1.228499999999258,3.478000000000065-2.150900000000547,5.678699999999935-2.766599999999926,2.199200000000019-.614199999999983,4.5625-.921900000000278,7.08640000000014-.921900000000278,4.076700000000073,0,7.489300000000185.712400000000343,10.240800000000036,2.135299999999916,2.75,1.424299999999675,5.160100000000057,3.397500000000946,7.231900000000223,5.921400000000176l-5.144999999999982,4.659200000000055c-1.101100000000315-1.552800000000389-2.717800000000352-2.960000000000036-4.853500000000167-4.22269999999935-2.135299999999916-1.261700000000928-4.821300000000065-1.892600000001039-8.056700000000092-1.892600000001039-3.23680000000013,0-5.678699999999935.695800000000418-7.329099999999926,2.086900000000242-1.649899999999889,1.392100000000937-2.475100000000111,3.285200000000259-2.475100000000111,5.678799999999683,0,2.459899999999834.825200000000223,4.239200000000892,2.475100000000111,5.338800000000447,1.650399999999991,1.101599999999962,4.028800000000047,1.909200000000055,7.134799999999814,2.426800000000185l3.882800000000316.582000000000335c5.564899999999852.841800000000148,9.51319999999987,2.444299999999203,11.842799999999897,4.805199999998877,2.329600000000028,2.363300000000891,3.494599999999991,5.45260000000053,3.494599999999991,9.270500000000538,0,4.853500000000167-1.650399999999991,8.67239999999947-4.95069999999987,11.454600000000028-3.300300000000334,2.783200000000761-7.831000000000131,4.173799999999574-13.589800000000196,4.173799999999574Z"/><path class="uuid-25f87875-2dc1-40d0-98a3-b994ccc17b48" d="M126.483400000000074,543.813522417286549c-5.501000000000204,0-10.192399999999907-1.052800000000389-14.075200000000223-3.154299999999239-3.882799999999406-2.102600000000166-7.183600000000297-4.999500000000808-9.90139999999974-8.688500000000204l6.018600000000333-5.047900000000482c2.393099999999322,3.171899999999368,5.04739999999947,5.582100000000537,7.959499999999935,7.232500000000073,2.912099999999555,1.649899999999434,6.341799999999239,2.475100000000566,10.289999999999964,2.475100000000566,4.853499999999258,0,8.557099999999991-1.165100000000166,11.114299999999275-3.494700000001103,2.555600000000595-2.329999999999927,3.834400000000642-5.435999999999694,3.834400000000642-9.318799999999101,0-3.23490000000038-.970699999999852-5.727100000000064-2.912100000000464-7.474100000000362-1.941399999999703-1.748100000000704-5.144999999999527-3.138700000000426-9.609800000000178-4.174799999999777l-5.533199999999852-1.261800000000221c-6.212899999999536-1.422800000000279-10.954099999999926-3.574200000000019-14.221199999999953-6.454999999999927-3.268599999999424-2.878899999999703-4.901899999999841-6.940500000000611-4.901899999999841-12.182700000000295,0-2.975499999999556.548799999999574-5.629799999999705,1.649900000000343-7.95890000000054,1.100099999999657-2.33009999999922,2.636300000000119-4.271499999998923,4.610899999999674-5.824699999999211,1.97360000000026-1.553299999999581,4.334899999999834-2.733000000000175,7.08640000000014-3.543499999999767,2.75-.808600000000297,5.775899999999638-1.213400000000547,9.076199999999517-1.213400000000547,5.111300000000483,0,9.496100000000297.939000000000306,13.153299999999945,2.81539999999859,3.655300000000352,1.877500000001419,6.746100000000297,4.627500000001419,9.270000000000437,8.251000000001113l-6.115200000000186,4.465400000000955c-1.877999999999702-2.587900000000445-4.14260000000013-4.626000000001113-6.795000000000073-6.11580000000049-2.654300000000148-1.487799999999879-5.954999999999927-2.232899999999972-9.901299999999537-2.232899999999972-4.33640000000014,0-7.750500000000102.922899999999572-10.24120000000039,2.766599999999926-2.491699999999582,1.84479999999985-3.737299999999777,4.611400000000685-3.737299999999777,8.299799999999777,0,3.236799999999675,1.051199999999881,5.67870000000039,3.15520000000015,7.328600000000733,2.102100000000064,1.650399999999536,5.290100000000166,2.961499999999432,9.561599999999999,3.932199999999284l5.53269999999975,1.261700000000928c6.664499999999862,1.489199999999983,11.486300000000483,3.753899999999703,14.463399999999638,6.794899999998961,2.976000000000568,3.042000000000371,4.465300000000752,7.085900000000038,4.465300000000752,12.13380000000052,0,3.106399999999667-.533699999999953,5.920900000000074-1.601599999999962,8.445300000000316-1.067800000000716,2.523499999999331-2.605900000000474,4.659200000000055-4.610800000000381,6.406299999999646-2.006900000000314,1.7475000000004-4.450200000000223,3.106399999999667-7.328599999999824,4.077099999999518-2.880400000000009.970699999999852-6.132400000000416,1.456100000000333-9.755900000000111,1.456100000000333Z"/><path class="uuid-25f87875-2dc1-40d0-98a3-b994ccc17b48" d="M182.007300000000214,543.813522417286549c-3.365700000000288,0-6.439900000000307-.61580000000049-9.221599999999853-1.844299999999748-2.783200000000761-1.228000000000065-5.161700000000565-2.992599999999584-7.134800000000723-5.290500000000065-1.974599999999555-2.295900000000074-3.511199999999917-5.04740000000038-4.610899999999674-8.251000000000204-1.100999999999658-3.203099999999722-1.649900000000343-6.810500000000502-1.649900000000343-10.823199999999815,0-3.94629999999961.548900000000685-7.538099999999758,1.649900000000343-10.775400000000445,1.099699999999757-3.234400000000278,2.636300000000119-6.002000000001317,4.610899999999674-8.299299999999675,1.973100000000159-2.296400000000176,4.351599999999962-4.060100000000602,7.134800000000723-5.290599999999358,2.781699999999546-1.228500000001077,5.855899999999565-1.843700000001263,9.221599999999853-1.843700000001263,3.364300000000185,0,6.421899999999368.615200000000186,9.173399999999674,1.843700000001263,2.75,1.230499999998756,5.128400000000511,2.994199999999182,7.134700000000066,5.290599999999358,2.005400000000009,2.297299999998359,3.558599999999842,5.064899999999398,4.659700000000157,8.299299999999675,1.099600000000009,3.237300000000687,1.649899999999889,6.829100000000835,1.649899999999889,10.775400000000445,0,4.012699999999313-.550299999999879,7.620100000000093-1.649899999999889,10.823199999999815-1.101100000000315,3.203599999999824-2.654300000000148,5.95510000000013-4.659700000000157,8.251000000000204-2.006299999999555,2.297900000000482-4.384700000000066,4.0625-7.134700000000066,5.290500000000065-2.751500000000306,1.228499999999258-5.809099999999489,1.844299999999748-9.173399999999674,1.844299999999748ZM182.007300000000214,536.921422417286522c4.206099999999424,0,7.635299999999916-1.293499999999767,10.289600000000064-3.882799999999406,2.652799999999843-2.587400000000343,3.979999999999563-6.535700000000361,3.979999999999563-11.84230000000116v-7.183599999999387c0-5.305699999999888-1.327199999999721-9.253900000000613-3.979999999999563-11.842800000000352-2.654300000000148-2.587400000001253-6.08350000000064-3.882799999999406-10.289600000000064-3.882799999999406-4.207000000000335,0-7.636700000000019,1.295399999998153-10.289499999999862,3.882799999999406-2.654300000000148,2.58889999999974-3.980000000000473,6.537100000000464-3.980000000000473,11.842800000000352v7.183599999999387c0,5.306600000000799,1.325700000000325,9.254900000000816,3.980000000000473,11.84230000000116,2.652799999999843,2.589299999999639,6.082499999999527,3.882799999999406,10.289499999999862,3.882799999999406Z"/><path class="uuid-25f87875-2dc1-40d0-98a3-b994ccc17b48" d="M236.07569999999987,543.813522417286549c-3.494099999999889,0-6.633800000000065-.61580000000049-9.415500000000065-1.844299999999748-2.783199999999852-1.228000000000065-5.129899999999907-2.976000000000568-7.037599999999657-5.241700000000492-1.909700000000157-2.264600000001337-3.365800000000036-5.014600000001337-4.368200000000343-8.250899999999092-1.004399999999805-3.235400000000482-1.504899999999907-6.859400000001187-1.504899999999907-10.872100000000501,0-4.011700000000019.500500000000102-7.635800000000017,1.504899999999907-10.872100000000501,1.002400000000307-3.235300000000279,2.458500000000186-5.985300000000279,4.368200000000343-8.251000000000204,1.90769999999975-2.264599999999518,4.254399999999805-4.011700000000019,7.037599999999657-5.242199999998775,2.781700000000001-1.228500000001077,5.921400000000176-1.843700000001263,9.415500000000065-1.843700000001263,4.982400000000325,0,8.979000000000269,1.084000000000742,11.988800000000083,3.251500000000306,3.008800000000065,2.169400000000678,5.256800000000112,4.999499999999898,6.746099999999842,8.493600000000697l-6.503499999999804,3.300799999999981c-.907200000000103-2.587900000000445-2.395500000000084-4.594699999999648-4.465799999999945-6.018600000000333-2.071300000000065-1.42279999999937-4.659200000000055-2.135699999999815-7.765600000000177-2.135699999999815-2.329099999999926,0-4.368199999999888.372999999999593-6.115199999999732,1.11620000000039-1.747100000000046.745100000000093-3.203199999999924,1.780799999999545-4.368200000000343,3.106499999999869-1.164999999999964,1.327099999999518-2.03859999999986,2.912099999999555-2.621099999999842,4.756299999999101-.58199999999988,1.844700000000557-.873500000000149,3.867699999999786-.873500000000149,6.066899999999805v8.543000000000575c0,4.401300000000447,1.180100000000039,8.007799999999406,3.542900000000373,10.823199999999815,2.361899999999878,2.8149999999996,5.839399999999841,4.222200000000157,10.435099999999693,4.222200000000157,6.276400000000194,0,10.806600000000344-2.912099999999555,13.589800000000196-8.736399999999776l5.630400000000009,3.785700000000361c-1.618199999999888,3.625-4.028299999999945,6.503899999999703-7.231400000000122,8.639599999999518-3.203599999999824,2.135299999999916-7.200199999999768,3.203199999999924-11.988800000000083,3.203199999999924Z"/><path class="uuid-25f87875-2dc1-40d0-98a3-b994ccc17b48" d="M270.146999999999935,480.814422417286551c-1.683599999999842,0-2.896999999999935-.403299999999945-3.640199999999822-1.212799999999334-.744599999999991-.809100000000399-1.116199999999935-1.859900000001289-1.116199999999935-3.155300000001262v-1.261700000000019c0-1.29399999999896.371599999999944-2.345299999999952,1.116199999999935-3.155299999999443.743199999999888-.808599999999387,1.95659999999998-1.212899999999536,3.640199999999822-1.212899999999536,1.682099999999991,0,2.895500000000084.404300000000148,3.640100000000075,1.212899999999536.743199999999888.809999999999491,1.116199999999935,1.861300000000483,1.116199999999935,3.155299999999443v1.261700000000019c0,1.295399999999972-.373000000000047,2.346200000000863-1.116199999999935,3.155300000001262-.744599999999991.809499999999389-1.958000000000084,1.212799999999334-3.640100000000075,1.212799999999334ZM266.264200000000073,492.560022417286746h7.765599999999722v50.088400000000547h-7.765599999999722v-50.088400000000547Z"/><path class="uuid-25f87875-2dc1-40d0-98a3-b994ccc17b48" d="M309.363800000000083,543.813522417286549c-3.430699999999888,0-6.520500000000084-.61580000000049-9.270500000000084-1.844299999999748-2.751000000000204-1.228000000000065-5.112799999999879-2.992599999999584-7.085999999999785-5.290500000000065-1.975100000000111-2.295900000000074-3.494599999999991-5.04740000000038-4.5625-8.251000000000204-1.067800000000261-3.203099999999722-1.601500000000215-6.810500000000502-1.601500000000215-10.823199999999815,0-3.94629999999961.533699999999953-7.538099999999758,1.601500000000215-10.775400000000445,1.067900000000009-3.234400000000278,2.587399999999889-6.002000000001317,4.5625-8.299299999999675,1.973199999999906-2.296400000000176,4.334999999999582-4.060100000000602,7.085999999999785-5.290599999999358,2.75-1.228500000001077,5.839800000000196-1.843700000001263,9.270500000000084-1.843700000001263,3.364199999999983,0,6.373000000000047.612300000000687,9.027299999999741,1.837900000000445,2.653300000000399,1.225599999999758,4.917500000000018,2.91990000000078,6.79489999999987,5.079600000000937,1.876500000000306,2.159599999999045,3.316000000000258,4.723099999999249,4.319900000000416,7.689899999999398,1.002399999999852,2.966799999999239,1.504899999999907,6.223200000000361,1.504899999999907,9.769099999999526v3.677200000000084h-36.013699999999972v2.329100000000835c0,2.135800000000017.339799999999741,4.125500000000102,1.01949999999988,5.97019999999975.679200000000037,1.844299999999748,1.649899999999889,3.445799999999508,2.912100000000009,4.804699999999684,1.261700000000019,1.358900000000176,2.815000000000055,2.426800000000185,4.659200000000055,3.203599999999824,1.844200000000001.776400000000649,3.931599999999889,1.164600000000064,6.261199999999917,1.164600000000064,3.170000000000073,0,5.936599999999999-.743199999999888,8.29930000000013-2.23239999999987,2.361899999999878-1.487799999999879,4.189499999999953-3.623599999999897,5.484899999999925-6.406800000000658l5.533199999999852,4.005400000000009c-1.618599999999788,3.45260000000053-4.142599999999675,6.235800000001291-7.571799999999712,8.351599999999962-3.431100000000242,2.115700000001198-7.507800000000316,3.174300000000585-12.23090000000002,3.174300000000585ZM309.363800000000083,497.898922417286485c-2.135800000000017,0-4.077200000000175.370100000000093-5.824200000000019,1.110400000000482-1.747600000000148.740700000000288-3.251999999999953,1.785099999999147-4.513699999999972,3.135199999999713-1.262200000000121,1.349600000000464-2.249499999999898,2.942399999999907-2.960900000000038,4.774399999999332-.712899999999991,1.83350000000064-1.067900000000009,3.843300000000454-1.067900000000009,6.030300000000352v.674800000000687h27.665500000000065v-1.061499999999796c0-4.4375-1.213400000000092-7.989800000001196-3.640100000000075-10.659200000000055-2.426800000000185-2.668900000000576-5.646999999999935-4.004400000000714-9.658699999999953-4.004400000000714Z"/><path class="uuid-25f87875-2dc1-40d0-98a3-b994ccc17b48" d="M354.889700000000175,542.648422417287293c-2.717800000000352,0-4.773000000000138-.757800000000316-6.164099999999962-2.274400000000242-1.392100000000028-1.517100000000937-2.086900000000242-3.503899999999703-2.086900000000242-5.958000000000538v-34.963900000001559h-8.250999999999749v-6.892099999998209h4.659199999999601c1.682099999999991,0,2.830600000000231-.339799999999741,3.446300000000065-1.019500000000335.614199999999983-.679200000000492.921800000000076-1.858899999999267.921800000000076-3.542499999999563v-9.319300000000112h6.989300000000185v13.88130000000001h10.969200000000001v6.892099999998209h-10.969200000000001v36.304700000001503h10.192399999999907v6.891600000000835h-9.70699999999988Z"/><path class="uuid-25f87875-2dc1-40d0-98a3-b994ccc17b48" d="M408.763699999999972,492.560022417286746h7.668900000000122l-22.423299999999927,61.73739999999998c-.582499999999982,1.487699999999677-1.165100000000166,2.732899999999972-1.747600000000148,3.736800000000585-.58199999999988,1.002899999999499-1.29489999999987,1.796399999999267-2.135200000000168,2.378399999998692-.841799999999694.582500000001346-1.893099999999777,1.003400000000511-3.154799999999796,1.262200000000121-1.262200000000121.257800000001225-2.799800000000232.388200000001234-4.610799999999927.388200000001234h-3.980000000000018v-6.892100000000937h7.862799999999879l3.785600000000159-10.661099999999351-18.734899999999925-51.949800000000323h7.765699999999924l12.037100000000009,34.006400000000212,2.329600000000028,8.139199999999619h.485299999999825l2.717799999999897-8.139199999999619,12.133800000000065-34.006400000000212Z"/><path class="uuid-25f87875-2dc1-40d0-98a3-b994ccc17b48" d="M124.503662109370453,637.561550000000352l-2.416015625-7.67822265625h-10.69775390625l-2.37255859375,7.67822265625h-5.7802734375l10.09423828125-30.109375h7.07421875l10.0078125,30.109375h-5.90966796875ZM116.825439453120453,612.628444531250352h-.2158203125l-3.83935546875,12.38037109375h7.93701171875l-3.8818359375-12.38037109375Z"/><path class="uuid-25f87875-2dc1-40d0-98a3-b994ccc17b48" d="M153.965087890620453,637.561550000000352l-2.416015625-7.67822265625h-10.69775390625l-2.37255859375,7.67822265625h-5.7802734375l10.09423828125-30.109375h7.07421875l10.0078125,30.109375h-5.90966796875ZM146.286376953120453,612.628444531250352h-.21533203125l-3.83935546875,12.38037109375h7.93701171875l-3.88232421875-12.38037109375Z"/></g></svg>