<?xml version="1.0" encoding="UTF-8"?><svg id="uuid-14f18b4d-baff-4f3f-9696-230b7690c3d0" xmlns="http://www.w3.org/2000/svg" width="223.375534145235918mm" height="205.282908630496109mm" xmlns:xlink="http://www.w3.org/1999/xlink" viewBox="0 0 633.190499999999702 581.904316668291358"><defs><style>.uuid-541f1905-b434-4e4c-b8ad-febf4525e45b{fill:#fff;}.uuid-d7c62928-b6f3-4de5-942d-6f2cdcbb1049{fill:none;}.uuid-22cbb044-f775-4423-80ad-8d021ca55255{fill:#333e48;}.uuid-855b482b-b224-400d-9c03-f7232631e500{clip-path:url(#uuid-8b52878b-f450-45a1-a5cc-97fbe0adb6ca);}</style><clipPath id="uuid-8b52878b-f450-45a1-a5cc-97fbe0adb6ca"><rect class="uuid-d7c62928-b6f3-4de5-942d-6f2cdcbb1049" y="6.57720000000063" width="633.190499999999702" height="575.327116668290728"/></clipPath></defs><g class="uuid-855b482b-b224-400d-9c03-f7232631e500"><path class="uuid-541f1905-b434-4e4c-b8ad-febf4525e45b" d="M79.221700000000055,142.364300000000185c-4.552700000000186,10.763700000000426-7.259699999999611,22.072199999999611-8.084899999999834,33.712900000000445,1.793899999999667-1.46100000000024,4.079999999999927-2.339899999999943,6.568299999999908-2.339899999999943,2.748099999999795,0,5.244200000000092,1.078199999999924,7.108400000000074,2.818400000000111,3.668999999999869-47.79490000000078,43.612299999999777-85.435600000000704,92.350599999999758-85.435600000000704,3.777299999999741,0,6.837899999999536-3.0625,6.837899999999536-6.837799999999334,0-3.777400000000853-3.060599999999795-6.837900000000445-6.837899999999536-6.837900000000445-14.343700000000354,0-28.26760000000013,2.8125-41.382800000000316,8.359300000000076-12.659200000000055,5.355499999999665-24.025399999999536,13.015699999999924-33.783199999999852,22.775400000000445-9.759799999999814,9.757799999999406-17.422899999999572,21.125-22.77639999999974,33.78519999999935Z"/><path class="uuid-541f1905-b434-4e4c-b8ad-febf4525e45b" d="M169.593799999999646,276.063524394479828c-47.477600000000166-3.841799902947969-84.835900000000038-43.482424394479494-85.050799999999981-91.898424394479662,0-3.775399999999536-3.060499999999593-6.837899999999536-6.837899999999536-6.837899999999536-3.776400000000649,0-6.837900000000445,3.0625-6.837900000000445,6.837899999999536.054700000000594,14.197200000000521,2.861400000000685,27.976500000000669,8.354500000000371,40.962900000000445,5.353500000000167,12.660100000000057,13.016599999999926,24.027325074237524,22.77639999999974,33.785124827734762,9.757800000000316,9.759799753446714,21.123999999999796,17.421899559885787,33.783199999999852,22.777399424594478,10.628900000000613,4.494099886469485,21.787100000000464,7.193275747670668,33.269500000000335,8.054599796523689-1.443299999999908-1.788999954806059-2.3125-4.060499897423142-2.3125-6.533199834957486,0-2.76749993008707,1.091800000000148-5.279299866633664,2.855499999999665-7.148399819416227Z"/><path class="uuid-541f1905-b434-4e4c-b8ad-febf4525e45b" d="M251.265699999999924,250.284225045719722c-1.335000000000036-1.333999966300325-3.083999999999833-2.001899949427752-4.833999999999833-2.001899949427752s-3.501000000000204.667899983127427-4.83600000000024,2.001899949427752c-16.671800000000076,16.146499592105101-39.388599999999315,26.089799340916215-64.431599999999889,26.089799340916215-3.775399999999536,0-6.837899999999536,3.060599922682741-6.837899999999536,6.837899827260117,0,3.775399904625374,3.0625,6.837875786104632,6.837899999999536,6.837875786104632,14.345699999999852,0,28.26760000000013-2.812475887795699,41.382800000000316-8.359275747670836,12.203099999999722-5.162199869591859,23.201199999999517-12.474724252329906,32.718799999999646-21.734399450942874,2.671800000000076-2.669899932552653,2.671800000000076-6.999999823165126,0-9.671899755667255Z"/><path class="uuid-541f1905-b434-4e4c-b8ad-febf4525e45b" d="M177.164099999999962,290.049800000000687c-3.775399999999536,0-6.837899999999536-3.062475881479259-6.837899999999536-6.837875786104632,0-3.777299904577376,3.0625-6.837899827260117,6.837899999999536-6.837899827260117,25.043000000000575,0,47.759799999999814-9.943299748811114,64.431599999999889-26.089799340916215,1.335000000000036-1.333999966300325,3.08600000000024-2.001899949427752,4.83600000000024-2.001899949427752s3.498999999999796.667899983127427,4.833999999999833,2.001899949427752c2.671800000000076,2.671899932502129,2.671800000000076,7.001999823114602,0,9.671899755667255-9.51760000000013,9.259675198612968-20.515699999999924,16.572199581351015-32.718799999999646,21.734399450942874-13.115200000000186,5.546799859875136-27.037100000000464,8.359275747670836-41.382800000000316,8.359275747670836ZM135.781299999999646,281.690524252329851c-12.659200000000055-5.35549986470869-24.025399999999536-13.017599671147764-33.783199999999852-22.777399424594478-9.759799999999814-9.757799753497238-17.422899999999572-21.125024827734705-22.77639999999974-33.785124827734762-5.493099999999686-12.986399999999776-8.299799999999777-26.765699999999924-8.354500000000371-40.962900000000445,0-3.775399999999536,3.061499999999796-6.837899999999536,6.837900000000445-6.837899999999536,3.777399999999943,0,6.837899999999536,3.0625,6.837899999999536,6.837899999999536.214899999999943,48.416000000000167,37.573199999999815,88.056624491531693,85.050799999999981,91.898424394479662-1.763699999999517,1.869099952782562-2.855499999999665,4.380899889329157-2.855499999999665,7.148399819416227,0,2.472699937534344.869200000000092,4.744199880151427,2.3125,6.533199834957486-11.48239999999987-.861324048853021-22.640599999999722-3.560499910054205-33.269500000000335-8.054599796523689ZM177.164099999999962,77.444400000000314c3.777299999999741,0,6.837899999999536,3.060499999999593,6.837899999999536,6.837900000000445,0,3.775299999999334-3.060599999999795,6.837799999999334-6.837899999999536,6.837799999999334-48.738299999999981,0-88.681599999999889,37.640699999999924-92.350599999999758,85.435600000000704-1.864199999999983-1.740200000000186-4.360300000000279-2.818400000000111-7.108400000000074-2.818400000000111-2.488299999999981,0-4.774400000000242.878899999999703-6.568299999999908,2.339899999999943.825200000000223-11.640700000000834,3.532199999999648-22.949200000000019,8.084899999999834-33.712900000000445,5.353500000000167-12.66019999999935,13.016599999999926-24.027399999999943,22.77639999999974-33.78519999999935,9.757800000000316-9.759700000000521,21.123999999999796-17.41990000000078,33.783199999999852-22.775400000000445,13.115200000000186-5.546800000000076,27.039099999999962-8.359300000000076,41.382800000000316-8.359300000000076Z"/><path class="uuid-541f1905-b434-4e4c-b8ad-febf4525e45b" d="M233.458999999999833,127.454100000000835c-15.036099999999351-15.037100000000464-35.029300000000148-23.316400000000613-56.29489999999987-23.316400000000613-21.263700000000426,0-41.255900000000111,8.279300000000148-56.292000000000371,23.316400000000613-15.036099999999351,15.03519999999935-23.318400000000111,35.027399999999034-23.318400000000111,56.292999999999665,0,21.265599999999722,8.28230000000076,41.255900000000111,23.318400000000111,56.292999999999665,15.03610000000026,15.035124924687807,35.028299999999945,23.318324715437484,56.292000000000371,23.318324715437484,21.265599999999722,0,41.25880000000052-8.283199790749677,56.29489999999987-23.318324715437484,15.035200000000259-15.037099999999555,23.315500000000611-35.027399999999943,23.315500000000611-56.292999999999665,0-21.265600000000632-8.280300000000352-41.257800000000316-23.315500000000611-56.292999999999665Z"/><path class="uuid-22cbb044-f775-4423-80ad-8d021ca55255" d="M121.058600000000297,209.49120000000039v-51.488199999999779h11.167999999999665v3.804599999999482h-6.472700000000259v43.878899999999703h6.472700000000259v3.804700000000594h-11.167999999999665Z"/><path class="uuid-22cbb044-f775-4423-80ad-8d021ca55255" d="M233.271499999999833,158.003000000000611v51.488199999999779h-11.165999999999258v-3.804700000000594h6.470699999999852v-43.878899999999703h-6.470699999999852v-3.804599999999482h11.165999999999258Z"/><path class="uuid-22cbb044-f775-4423-80ad-8d021ca55255" d="M146.994200000000092,194.206100000000333c0,1.029300000000148.016599999999926,2.242199999999684.047800000000279,3.636700000000019.03229999999985,1.394500000000335.075199999999313,2.8125.129899999999907,4.247999999999593.052700000000186,1.4375.117199999999684,2.810600000000704.193400000000111,4.119200000000092.074199999999109,1.308600000000297.165999999999258,2.40230000000065.272399999999834,3.281200000000354h-6.596599999999853v-36.365200000000186c0-3.130900000000111-.052800000000389-5.968699999999444-.161200000000463-8.511700000000019-.106399999999667-2.542999999999665-.26760000000013-4.746099999999387-.483400000000074-6.611299999999574h6.597700000000259v36.203099999999722Z"/><path class="uuid-22cbb044-f775-4423-80ad-8d021ca55255" d="M175.797900000000482,176.667000000000371v4.216800000000148h-6.049800000000687v24.39260000000013h6.049800000000687v4.216800000000148h-18.020500000000538v-4.216800000000148h5.953100000000632v-24.39260000000013h-5.953100000000632v-4.216800000000148h18.020500000000538Z"/><path class="uuid-22cbb044-f775-4423-80ad-8d021ca55255" d="M189.314499999999498,176.667000000000371c.128900000000613.343799999999646.257800000000316.787100000000464.386700000000928,1.33600000000024.129899999999907.546800000000076.246099999999387,1.120999999999185.353499999999258,1.720699999999852.106499999999869.60149999999976.203199999999924,1.191399999999703.291000000000167,1.77139999999963l.255900000000111,1.445400000000518c2.060500000000502-2.443400000000111,4.128900000000613-4.209000000000742,6.210900000000038-5.293000000000575,2.082100000000537-1.081999999999425,4.25-1.625,6.501999999999498-1.625,1.716800000000148,0,3.234400000000278.285100000000057,4.552700000000186.853500000000167,1.320300000000316.570300000000316,2.430700000000797,1.470699999999852,3.332100000000537,2.703100000000632.900300000000243,1.234399999999368,1.579999999999927,2.833999999998923,2.042899999999463,4.794899999998961.461900000000242,1.964900000000853.691400000000613,4.328200000000834.691400000000613,7.097700000000259v14.480500000000575c0,3.625-.316400000000613,6.636700000000019-.949200000000019,9.027299999999741-.631800000000112,2.39260000000013-1.518500000000131,4.302800000000389-2.654300000000148,5.730499999999665-1.136700000000019,1.423800000000483-2.505799999999908,2.433600000000297-4.103500000000167,3.023400000000038-1.59860000000026.589899999999943-3.373999999999796.884800000000723-5.326200000000426.884800000000723-.964799999999741,0-2.000899999999092-.156300000000556-3.105399999999463-.466800000000148-1.105500000000575-.310600000000704-2.107500000000073-.744099999999889-3.009799999999814-1.302700000000186l2.091799999999239-4.828199999999924c.494100000000799.365299999999479,1.153300000000854.670000000000073,1.980500000000575.917999999999665.825200000000223.246100000000297,1.667899999999463.369099999999889,2.524400000000242.369099999999889,1.031199999999444,0,1.954099999999926-.166000000000167,2.770499999999629-.497999999999593.814400000000205-.332000000000335,1.505799999999908-.916000000000167,2.074200000000019-1.753899999999703.568400000000111-.835900000000038,1.002900000000409-1.984400000000278,1.30370000000039-3.443400000000111.299799999999777-1.459000000000742.450200000000223-3.314400000000205.450200000000223-5.568300000000818v-14.16019999999935c0-2.574200000000019-.134800000000723-4.660100000000057-.40230000000065-6.257800000000316-.26760000000013-1.599599999999555-.671900000000278-2.843699999999444-1.207099999999627-3.734399999999368-.53610000000026-.890600000000632-1.207000000000335-1.484300000000076-2.012700000000223-1.787100000000464-.80370000000039-.298799999999574-1.74120000000039-.449200000000019-2.815400000000409-.449200000000019-1.158199999999852,0-2.288099999999758.273400000000038-3.393499999999221.822299999999814-1.104500000000371.54489999999987-2.120200000000295,1.253899999999703-3.043000000000575,2.122999999999593-.922899999999572.867200000000594-1.737299999999777,1.849600000000464-2.444399999999405,2.943400000000111-.708000000000538,1.095700000000761-1.234300000000076,2.1875-1.578100000000632,3.283200000000761v18.666000000000167h-5.953099999999722v-19.793000000000575c0-3.173799999999574-.183600000000297-5.861299999999574-.547900000000482-8.060499999999593-.364199999999983-2.199200000000019-.719699999999648-3.85739999999987-1.061499999999796-4.972700000000259h5.792999999999665Z"/><path class="uuid-541f1905-b434-4e4c-b8ad-febf4525e45b" d="M129.765599999999722,453.852018458522252h-32.207499999999527v-5.346599999999853h32.207499999999527v5.346599999999853ZM125.574200000000019,510.782218458522038h-5.518100000000231v-5.860300000000279h-12.874499999999898v5.860300000000279h-5.603000000000065v-28.914499999999862h23.995600000000195v28.914499999999862ZM125.317399999999907,464.887718458521704l-23.653400000000147.085000000000946v-5.345800000000963h23.653400000000147v5.260800000000017ZM125.402799999999843,476.093718458521835h-23.738800000000083v-5.346599999999853h23.738800000000083v5.346599999999853ZM124.333499999999731,442.98781845852227l-21.728499999999258.085399999999936v-5.346199999999953h21.728499999999258v5.260800000000017ZM120.056099999999788,499.66061845852164v-12.531699999999546h-12.959899999999834v12.531699999999546h12.959899999999834ZM175.317900000000009,476.179718458522075l-46.236899999999878.084899999998925v-5.260699999998906h11.462899999999536l2.481000000000677-13.216800000000148h-10.692900000000009v-5.260699999999815h11.548799999999574l1.838900000000649-9.795399999999972h-16.381800000001022v-5.346199999999953h42.473100000000159v5.261700000000019h-20.317399999999907l-1.753399999999601,9.794399999999769h17.622599999999693l-1.839899999999943,18.477100000000064h9.795000000000073v5.261700000000019ZM167.875500000000102,510.953118458522113h-5.51760000000013v-5.774399999999332h-21.64260000000013v5.774399999999332h-5.603500000000167v-28.998999999999796h32.763700000000426v28.998999999999796ZM162.357899999999972,499.917518458521954v-12.702699999999822h-21.728000000000065v12.702699999999822h21.728000000000065ZM161.502400000000307,457.701718458522009h-12.703100000000632l-2.480499999999665,13.302200000000084h13.857899999999972l1.325700000000325-13.302200000000084Z"/><path class="uuid-541f1905-b434-4e4c-b8ad-febf4525e45b" d="M271.760199999999713,453.852018458522252h-77.75919999999951v-5.346599999999853h77.75919999999951v5.346599999999853ZM260.297800000000279,464.801818458521666h-55.604500000000371v-5.17489999999998h55.604500000000371v5.17489999999998ZM260.297800000000279,475.92281845852267h-55.604500000000371v-5.175700000000688h55.604500000000371v5.175700000000688ZM258.287600000000566,510.953118458522113h-5.517600000001039v-6.031200000000354h-40.12079999999969v6.031200000000354h-5.517399999999725v-29.085399999999936h51.155800000000454v29.085399999999936ZM258.202099999999518,442.432118458522382l-50.642499999999927.127999999999702v-5.175299999999879h50.642499999999927v5.047300000000178ZM252.769999999999527,499.66061845852164v-12.531699999999546h-40.12079999999969v12.531699999999546h40.12079999999969Z"/><path class="uuid-541f1905-b434-4e4c-b8ad-febf4525e45b" d="M368.204600000000028,495.469718458522038h-34.432399999999689v5.945299999999406c0,6.358400000000984-3.378700000000208,9.538100000000668-10.137900000000627,9.538100000000668h-5.688499999999294l-2.095699999999852-5.260699999999815h7.955500000000029c2.794499999999971,0,4.192399999999907-1.284200000000055,4.192399999999907-3.849599999999555v-6.373100000000704h-37.554700000000594v-5.346700000000055h37.554700000000594v-3.67870000000039c5.958499999999731-2.224099999999453,10.221700000000055-4.304700000000594,12.78859999999986-6.244099999999889h-32.764400000000023v-4.918999999999869h42.260999999999513v4.662200000000666c-4.449700000000121,3.022399999999834-9.952699999999822,6.11619999999948-16.510999999999513,9.281199999999444v.898400000000038h34.432399999999689v5.346700000000055ZM364.611299999999574,479.600618458522149h-5.13379999999961v-8.853500000000167h-59.751400000000103v9.367199999999684h-5.604000000000269v-14.371099999999387h7.356400000000576v-26.091800000000148c4.048300000000381-.39850000000115,8.483599999999569-2.324300000001131,13.303200000000288-5.774000000000342l2.823300000000017,3.935100000000602c-2.596700000000055,2.395499999999629-6.132400000000416,4.206500000000233-10.608400000000984,5.432099999999991v3.593300000000454h10.949200000000928v4.448199999998906h-10.949200000000928v4.662100000000464h10.949200000000928v4.361899999999878h-10.949200000000928v5.433100000000195h45.467000000000553v-5.433100000000195h-10.436799999999494v-4.276899999999841h10.436799999999494v-5.003899999999703h-10.351300000000265v-4.362800000000789h10.351300000000265v-4.662599999999657h-12.104699999999866v-5.175299999999879h17.536599999999453v28.828599999999824h6.715799999999945v13.943400000000111ZM340.358900000000176,446.409718458522548l-2.99369999999999,3.678200000000288c-1.626400000000103-1.567400000000816-3.83640000000014-3.26470000000063-6.629899999999907-5.089900000000853-2.309500000000298,1.939500000000407-4.90480000000025,3.721700000000055-7.785100000000057,5.346700000000055l-3.507300000000214-3.080100000001039c2.766099999999824-1.139599999998609,5.188900000000103-2.480399999998554,7.271899999999732-4.019999999998618-3.479999999999563-1.311499999999796-6.288099999999758-2.224100000000362-8.427199999999175-2.737300000000687l2.182599999999184-3.935499999999593c3.164099999999962.798300000000381,6.343700000000354,1.825699999999415,9.537600000000566,3.079600000000028,2.024899999999434-1.909200000000055,3.721199999999953-3.863299999999981,5.090299999999843-5.859400000000278l3.592800000000352,2.865200000000186c-1.141600000000835,1.768599999999424-2.624000000000706,3.494200000000092-4.448200000000725,5.175799999999981,2.109300000000076,1.197300000000723,4.148400000000038,2.723100000000159,6.11620000000039,4.576700000000528ZM340.871599999999489,461.978518458521648l-3.591799999999239,2.823300000000017c-2.309600000000501-1.768099999999322-4.706100000000333-3.236400000000685-7.186099999999897-4.405299999999443-1.539500000000771,1.168899999998757-4.276800000000549,2.637200000000121-8.211900000000242,4.405299999999443l-3.251000000000204-2.566499999998996c3.677800000000389-1.738699999999881,6.315500000000611-3.250900000000911,7.913400000000365-4.533600000000661-1.597899999999754-.997599999999693-4.020800000000236-2.10989999999947-7.271999999999935-3.337400000000343l3.207800000000134-2.693400000000111c2.936499999999796,1.055700000000797,5.44629999999961,2.15230000000065,7.527799999999843,3.293000000000575.79739999999947-.45510000000013,2.409200000000055-1.824300000001131,4.832999999999629-4.106000000000677l3.935099999999693,2.010300000000825c-1.454099999999926,1.882300000000214-3.078199999999924,3.436499999999796-4.875799999999799,4.662999999999556,2.367000000000189,1.083099999999831,4.690200000000004,2.565500000000611,6.971499999999651,4.447299999999814Z"/><path class="uuid-541f1905-b434-4e4c-b8ad-febf4525e45b" d="M464.560999999999694,495.469718458522038h-34.431899999999587v5.945299999999406c0,6.358400000000984-3.378600000000006,9.538100000000668-10.136900000000423,9.538100000000668h-5.688500000000204l-2.095699999999852-5.260699999999815h7.955600000000231c2.793400000000474,0,4.191400000000613-1.284200000000055,4.191400000000613-3.849599999999555v-6.373100000000704h-37.55370000000039v-5.346700000000055h37.55370000000039v-3.67870000000039c5.959199999999328-2.224099999999453,10.221599999999853-4.304700000000594,12.789499999999862-6.244099999999889h-32.764400000000023v-4.918999999999869h42.259999999999309v4.662200000000666c-4.448999999999614,3.022399999999834-9.953099999999722,6.11619999999948-16.510999999999513,9.281199999999444v.898400000000038h34.431899999999587v5.346700000000055ZM460.969200000000455,479.600618458522149h-5.134700000000521v-8.853500000000167h-59.751500000000306v9.367199999999684h-5.602999999999156v-14.371099999999387h7.356199999999262v-26.091800000000148c4.04950000000008-.39850000000115,8.483100000000377-2.324300000001131,13.302500000000691-5.774000000000342l2.822499999999309,3.935100000000602c-2.593499999999949,2.395499999999629-6.130699999999706,4.206500000000233-10.607699999999568,5.432099999999991v3.593300000000454h10.950199999999313v4.448199999998906h-10.950199999999313v4.662100000000464h10.950199999999313v4.361899999999878h-10.950199999999313v5.433100000000195h45.466800000000148v-5.433100000000195h-10.435600000000704v-4.276899999999841h10.435600000000704v-5.003899999999703h-10.35109999999986v-4.362800000000789h10.35109999999986v-4.662599999999657h-12.104500000000371v-5.175299999999879h17.536399999999958v28.828599999999824h6.717000000000553v13.943400000000111ZM438.239199999999983,461.019018458522623l-3.896899999999732,3.563000000000102c-1.778800000000047-2.672800000000279-4.324300000000221-6.018500000000131-6.785700000000361-8.096199999999953-3.826099999999315,4.263199999999415-6.973100000000159,6.97609999999986-9.432099999999991,8.136799999999312l-3.856499999999869-3.238299999999981c2.899000000000342-1.378899999999703,6.042000000000371-3.954600000000028,9.433600000000297-7.73239999999987-3.855900000000474-2.401899999999841-6.603500000000167-3.887300000001233-8.243600000000697-4.454600000000028l3.363800000000083-3.47899999999936c1.367100000000391.539999999998145,3.9350000000004,1.941899999999805,7.710900000000038,4.210399999999936,1.122100000000501-1.835900000000038,1.995100000000093-3.846700000000055,2.624000000000706-6.033200000000761h-12.878900000000613v-5.059599999999591h6.90480000000025v-5.209899999999834h4.43119999999999v5.209899999999834h8.194800000000214v5.059599999999591h-1.622100000000501c-.910600000000159,3.34860000000026-2.135199999999713,6.249500000000808-3.675299999999879,8.70510000000013,2.980999999999767,2.265600000000632,5.841800000000148,5.719699999999648,7.728000000000065,8.418400000000474Z"/><path class="uuid-541f1905-b434-4e4c-b8ad-febf4525e45b" d="M562.329600000000028,453.68161845852228l-3.079099999999926,4.447799999999916c-9.724600000000464-2.395000000000437-17.336900000000242-5.161099999999351-22.839899999999943-8.29739999999947v3.849599999999555h-28.914999999999964v-4.235300000000279c-8.326399999999921,4.30659999999898-15.796900000000278,7.115200000000186-22.413100000000668,8.426300000000083l-2.822299999999814-4.49080000000049c16.024400000000242-3.906199999999444,29.368900000000394-10.436499999999796,40.034700000000157-19.589799999999741l5.260700000000725,1.753399999999601c-.570800000000418.712899999999536-1.069800000001123,1.212400000000343-1.4975000000004,1.496600000000399,9.466800000000148,7.870600000000195,21.557600000000093,13.417000000000371,36.271499999999833,16.639600000000428ZM553.218200000000252,478.189418458521686h-62.104400000000169v-20.059999999999491h62.104400000000169v20.059999999999491ZM548.129100000000108,511.038118458522149h-5.26050000000032v-3.421899999999368h-41.317799999999806v3.421899999999368h-5.260800000000017v-28.35739999999987h51.839100000000144v28.35739999999987ZM519.600100000000566,473.570318458521797v-10.693400000000111h-23.225600000000668v10.693400000000111h23.225600000000668ZM542.868599999999788,492.903318458522335v-5.51760000000013h-41.317799999999806v5.51760000000013h41.317799999999806ZM542.868599999999788,502.998018458521983v-5.603499999999258h-41.317799999999806v5.603499999999258h41.317799999999806ZM513.911600000000362,469.335418458522327l-4.405300000000352,3.079599999999118c-2.651299999999537-2.679199999998673-5.247000000000298-4.661599999999453-7.785100000000057-5.945299999999406l4.44800000000032-2.565899999999601c3.022699999999531,1.28269999999975,5.603000000000065,3.094199999999546,7.742400000000089,5.431599999999889ZM534.656700000000455,448.933618458522687c-4.134700000000521-2.167000000000371-8.142100000000937-5.089900000000853-12.019500000000335-8.768600000001243-4.135299999999916,3.421900000001187-8.768100000000231,6.34480000000076-13.900400000000445,8.768600000001243h25.91990000000078ZM547.958999999999833,473.570318458521797v-10.693400000000111h-23.097200000000157v10.693400000000111h23.097200000000157ZM542.78269999999975,465.400418458522836c-1.682599999999184,2.680699999998978-4.220699999999852,4.962899999998626-7.613499999999476,6.843699999999444l-4.704899999999725-2.352000000000771c3.736399999999776-2.10989999999947,6.301799999999275-4.22019999999975,7.698300000000017-6.331099999999424l4.620099999999184,1.839400000000751Z"/><path class="uuid-541f1905-b434-4e4c-b8ad-febf4525e45b" d="M133.205546062989924,396.459518458522325l-1.546899999999368,2.056099999999788c-5.961900000000242-1.756800000000112-10.800300000000789-4.123000000000502-14.51220000000103-7.09860000000026-3.199699999999211,2.612300000000687-8.223099999999249,5.025400000000445-15.076599999999416,7.239199999999983l-1.721199999999953-2.090800000000854c6.629899999999907-1.838799999998628,11.643500000000131-4.070299999998497,15.040500000000065-6.694299999998293-3.408199999999852-3.221700000000055-5.699700000000121-7.139200000000528-6.870100000000093-11.754899999999907-.632300000000214,1.628399999999601-1.500500000000102,3.174299999998766-2.60109999999986,4.638699999999517l-1.860800000000381-1.704100000000835c1.475599999999758-1.757299999999304,2.663300000000163-3.684599999998682,3.565400000000409-5.781299999998737h-6.044399999999769v-2.160600000001068h14.09269999999924v-6.009299999999712h2.266200000000026v5.97360000000026h14.336900000000242v2.161699999999655h-6.009799999999814c-1.053200000000288,6.114700000000084-3.477499999999964,10.980900000000474-7.27390000000014,14.600500000000466,3.455500000000029,2.624099999999999,8.19380000000001,4.832099999999627,14.215299999999843,6.624099999999999ZM123.910146062989952,375.234918458521861h-13.598100000000159c.935500000000502,5.423300000000381,3.225500000000466,9.786600000000362,6.868599999999788,13.089299999999639,3.561000000000604-3.314399999999296,5.804200000000492-7.677699999999277,6.729500000000371-13.089299999999639Z"/><path class="uuid-541f1905-b434-4e4c-b8ad-febf4525e45b" d="M217.370366062989888,392.365718458522679h-14.145300000000134v2.442900000000009c0,2.611299999999574-1.387199999999211,3.917999999999665-4.163800000000265,3.917999999999665h-2.336899999999332l-.860099999999875-2.161200000001372h3.267100000000028c1.148400000000038,0,1.722600000000057-.527299999998831,1.722600000000057-1.581499999999323v-2.618199999998978h-15.42620000000079v-2.19630000000052h15.42620000000079v-1.511199999999917c2.447799999999916-.913099999999758,4.199299999999312-1.768600000001243,5.2524999999996-2.564899999999398h-13.458499999999731v-2.02100000000064h17.359400000000278v1.914999999999964c-1.826700000000528,1.242199999999684-4.088400000000547,2.513200000000325-6.78230000000076,3.813000000000102v.369099999999889h14.145300000000134v2.19630000000052ZM215.894966062990534,385.84771845852265h-2.109300000000076v-3.637700000001132h-24.546400000000176v3.847600000000966h-2.301800000000185v-5.902299999999741h3.022500000000036v-10.718800000000556c1.663099999999758-.16359999999986,3.48529999999937-.954600000000028,5.465299999999843-2.372100000000501l1.158699999999953,1.616700000000492c-1.064900000000307.983899999999267-2.519000000000233,1.727600000000166-4.358599999999569,2.231499999999869v1.475599999999758h4.498999999999796v1.82760000000053h-4.498999999999796v1.915100000000166h4.498999999999796v1.791900000000169h-4.498999999999796v2.232500000000073h18.678899999999885v-2.232500000000073h-4.288500000000568v-1.756800000001022h4.288500000000568v-2.055699999998978h-4.251900000000205v-1.792400000000271h4.251900000000205v-1.914600000000064h-4.972600000000057v-2.126000000000204h7.203099999999722v11.841800000000148h2.760200000000623v5.72860000000037ZM205.931666062990189,372.212918458522836l-1.231000000000677,1.510199999998804c-.66649999999936-.643999999999323-1.574699999999211-1.340299999999843-2.722199999999248-2.090299999999843-.949200000000019.796900000000278-2.015599999999722,1.529300000000148-3.198199999999815,2.19630000000052l-1.440400000000409-1.26470000000063c1.13550000000032-.468699999999444,2.13130000000001-1.019000000000233,2.986799999999675-1.651799999999639-1.429699999999684-.53859999999986-2.583999999999833-.91359999999986-3.46140000000014-1.124499999999898l.896900000000642-1.616700000000492c1.299099999999271.328600000000733,2.605499999999665.75,3.917499999999563,1.26510000000053.832000000000335-.784200000000055,1.528299999999945-1.586900000000242,2.090100000000348-2.407199999999648l1.476599999999962,1.177700000000186c-.469000000000051.725599999999758-1.078400000000329,1.434599999999591-1.826399999999921,2.125999999999294.865700000000288.49119999999948,1.703099999999722,1.11869999999999,2.511700000000019,1.879900000000816ZM206.142066062990125,378.608418458521555l-1.475599999999758,1.159700000000157c-.948199999999815-.72609999999986-1.933100000000195-1.329599999999118-2.952100000000428-1.810099999999693-.633100000000013.480500000000575-1.757300000000214,1.083999999999833-3.373599999999897,1.810099999999693l-1.335900000000038-1.054699999999684c1.512200000000121-.714399999999841,2.595500000000357-1.334499999999935,3.251000000000204-1.862299999999777-.655499999999847-.410200000000259-1.651899999999841-.86620000000039-2.986800000000585-1.370100000000093l1.317800000000716-1.107500000000073c1.206599999999526.433600000000297,2.237299999999777.885299999999916,3.092799999999443,1.353100000000268.328599999999824-.1875.989800000000287-.749100000000908,1.984600000000682-1.686600000000908l1.616500000000087.826200000001336c-.597400000000562.772499999998217-1.264400000000023,1.411099999999351-2.001500000000306,1.914999999999054.970699999999852.444400000000314,1.924799999999777,1.053799999999683,2.862799999999879,1.827199999999721Z"/><path class="uuid-541f1905-b434-4e4c-b8ad-febf4525e45b" d="M276.05738606299019,379.047418458521861c2.366699999999582,2.659100000000763,3.550799999999981,5.253899999999703,3.550799999999981,7.783699999999953,0,1.229900000000271-.319300000000112,2.208000000000538-.95850000000064,2.934000000000196-.637199999999211.727100000000064-1.530699999999342,1.089899999999943-2.679199999999582,1.089899999999943-.632300000000214,0-1.394499999999425-.076699999999619-2.284099999999853-.228100000000268l-.649900000000343-2.337399999999434c1.253900000000613.316899999999805,2.15520000000015.474699999999757,2.705500000000029.474699999999757.456100000000333,0,.872600000000602-.176299999999173,1.248100000000704-.526899999999841.375-.351599999999962.5625-.820300000000316.5625-1.406200000000354,0-.877999999999702-.322300000000723-2.0024999999996-.966600000000653-3.373599999998987-.644800000000032-1.370100000000093-1.611599999999271-2.676300000000992-2.899599999999737-3.917500000001382l3.426699999999983-8.80369999999948h-5.217999999999847v27.990300000000389h-2.302500000000691v-30.221199999999953h9.856400000000576v2.230899999999565l-3.391599999999926,8.311099999999897ZM300.288386062989957,392.278318458522335c-.305199999999786,1.897499999999127-.714799999999741,3.274400000000242-1.230999999999767,4.127899999999499-.514600000000428.855500000000575-1.353000000000065,1.283699999999953-2.511700000000019,1.283699999999953h-2.740700000000288c-1.828099999999722,0-2.740999999999985-.960900000000038-2.740999999999985-2.881299999999101v-9.294900000001689h-3.708200000000033c-.069800000000214,3.771500000001652-.805199999999786,6.597600000000966-2.204600000000028,8.477500000001783-1.400099999999838,1.879899999999907-3.996599999999489,3.457999999998719-7.792999999999665,4.735399999999572l-1.475599999999758-2.020500000000538c3.525399999999536-1.041999999999462,5.944899999999507-2.390199999999822,7.256899999999405-4.041999999999462,1.311999999999898-1.651400000000649,1.973100000000159-4.023000000000138,1.985300000000279-7.115300000000389h-4.814400000000205v-2.302199999999175h18.819300000000112v2.267099999998209h-5.870600000000195v8.75c0,.29240000000118.094000000000051.565400000001318.281700000000455.816900000000714.187299999999595.252400000000307.410200000000259.377400000000307.667999999999665.377400000000307h2.231700000000274c.456299999999828,0,.805399999999281-.374499999999898,1.04569999999967-1.124499999999898.238699999999881-.748999999999796.441400000000613-1.721199999999953.605900000000474-2.916500000000269l2.19629999999961.861300000000483ZM298.267386062990226,376.341818458522539l-2.230900000000474.035099999999147v-3.09269999999924h-13.248599999999897v3.09269999999924h-2.26680000000033v-5.324199999999109h7.71310000000085v-3.988300000000891h2.302700000000186v3.953700000000026h7.730499999999665v5.323700000000827ZM295.3161860629898,379.732418458522261h-11.878399999999601v-2.301300000000083h11.878399999999601v2.301300000000083Z"/><path class="uuid-541f1905-b434-4e4c-b8ad-febf4525e45b" d="M384.455206062990328,392.365718458522679h-14.145500000000538v2.442900000000009c0,2.611299999999574-1.388699999999517,3.917999999999665-4.16359999999986,3.917999999999665h-2.336899999999332l-.86160000000018-2.161200000001372h3.268299999999726c1.148499999999331,0,1.722700000000259-.527299999998831,1.722700000000259-1.581499999999323v-2.618199999998978h-15.427999999999884v-2.19630000000052h15.427999999999884v-1.511199999999917c2.447699999999713-.913099999999758,4.199199999999109-1.768600000001243,5.252899999999499-2.564899999999398h-13.458999999999833v-2.02100000000064h17.359199999999873v1.914999999999964c-1.826399999999921,1.242199999999684-4.088200000000143,2.513200000000325-6.782000000000153,3.813000000000102v.369099999999889h14.145500000000538v2.19630000000052ZM382.978106062990264,385.84771845852265h-2.107899999999972v-3.637700000001132h-24.545399999999972v3.847600000000966h-2.302700000000186v-5.902299999999741h3.023400000000038v-10.718800000000556c1.661600000000362-.16359999999986,3.483900000000176-.954600000000028,5.462899999999536-2.372100000000501l1.160200000000259,1.616700000000492c-1.065899999999601.983899999999267-2.518100000000231,1.727600000000166-4.356999999999971,2.231499999999869v1.475599999999758h4.497600000000602v1.82760000000053h-4.497600000000602v1.915100000000166h4.497600000000602v1.791900000000169h-4.497600000000602v2.232500000000073h18.676800000000185v-2.232500000000073h-4.287100000000464v-1.756800000001022h4.287100000000464v-2.055699999998978h-4.251699999999801v-1.792400000000271h4.251699999999801v-1.914600000000064h-4.972200000000157v-2.126000000000204h7.203199999999924v11.841800000000148h2.758700000000317v5.72860000000037ZM373.016206062990022,372.212918458522836l-1.230899999999565,1.510199999998804c-.668000000000575-.643999999999323-1.575200000000223-1.340299999999843-2.723700000000463-2.090299999999843-.948199999999815.796900000000278-2.014100000000326,1.529300000000148-3.197000000000116,2.19630000000052l-1.441100000000006-1.26470000000063c1.137200000000121-.468699999999444,2.133300000000418-1.019000000000233,2.987799999999879-1.651799999999639-1.429699999999684-.53859999999986-2.583099999999831-.91359999999986-3.461499999999432-1.124499999999898l.895499999999629-1.616700000000492c1.300799999999981.328600000000733,2.606999999999971.75,3.917999999999665,1.26510000000053.831500000000233-.784200000000055,1.529300000000148-1.586900000000242,2.09230000000025-2.407199999999648l1.475599999999758,1.177700000000186c-.469499999999243.725599999999758-1.079099999999926,1.434599999999591-1.828199999999924,2.125999999999294.867200000000594.49119999999948,1.704600000000028,1.11869999999999,2.513200000000325,1.879900000000816ZM373.226706062990161,378.608418458521555l-1.475599999999758,1.159700000000157c-.949500000000626-.72609999999986-1.933100000000195-1.329599999999118-2.951399999999921-1.810099999999693-.633600000000115.480500000000575-1.756600000000617,1.083999999999833-3.374300000000403,1.810099999999693l-1.334899999999834-1.054699999999684c1.511199999999917-.714399999999841,2.594199999999546-1.334499999999935,3.250900000000001-1.862299999999777-.656700000000455-.410200000000259-1.652799999999843-.86620000000039-2.987799999999879-1.370100000000093l1.317900000000009-1.107500000000073c1.206499999999323.433600000000297,2.237299999999777.885299999999916,3.091799999999239,1.353100000000268.328100000000632-.1875.989300000000185-.749100000000908,1.985800000000381-1.686600000000908l1.616299999999683.826200000001336c-.597200000000157.772499999998217-1.265199999999822,1.411099999999351-2.002999999999702,1.914999999999054.972200000000157.444400000000314,1.927800000000389,1.053799999999683,2.864300000000185,1.827199999999721Z"/><path class="uuid-541f1905-b434-4e4c-b8ad-febf4525e45b" d="M468.847826062989952,396.969718458522038h-31.976999999999862v-2.266599999999926h14.89890000000014v-8.24119999999948h-10.735400000000482v-2.266600000000835h10.735400000000482v-7.168399999999565h-7.959499999999935c-.960399999999936,2.494599999999991-2.565400000000409,4.796299999999974-4.814400000000205,6.904700000000048l-2.318400000000111-1.211900000000242c3.840799999999945-3.548800000000483,5.979000000000269-7.895500000000538,6.412600000000566-13.037099999999555l2.372099999999591.685099999999693c-.093799999999646,1.194800000000214-.369200000000092,2.670900000000074-.826700000000528,4.428199999999379h7.099600000000464v-7.69629999999961h2.371399999999994v7.660700000000361h12.404499999999643v2.266599999999926h-12.404499999999643v7.133699999999408h10.577800000000025v2.266200000000026h-10.577800000000025v8.240700000000288h14.741399999999885v2.302200000000084Z"/><path class="uuid-541f1905-b434-4e4c-b8ad-febf4525e45b" d="M553.961146062990338,375.1992184585215l-1.264400000000023,1.827700000000732c-3.993900000000394-.983900000000176-7.122299999999996-2.119700000000194-9.383100000000013-3.408300000000054v1.580599999999322h-11.877900000000409v-1.739199999999983c-3.41989999999987,1.769000000000233-6.489300000000185,2.922800000000279-9.206099999999424,3.46140000000014l-1.159600000000864-1.845200000000659c6.583000000000538-1.604499999998552,12.064400000000205-4.287099999998645,16.445800000000418-8.046899999998459l2.160600000000159.720699999999852c-.23490000000038.292999999999665-.439400000000205.497999999999593-.614300000000185.614299999999275,3.888200000000325,3.233400000000984,8.855999999999767,5.511700000000928,14.899000000000342,6.834899999999834ZM550.219446062989846,385.267618458521611h-25.511700000000019v-8.240699999999379h25.511700000000019v8.240699999999379ZM548.128646062989901,398.760718458522206h-2.162199999999757v-1.40520000000015h-16.973100000000159v1.40520000000015h-2.160600000000159v-11.648400000000038h21.295900000000074v11.648400000000038ZM536.408346062989949,383.370118458522484v-4.393100000000231h-9.539999999999964v4.393100000000231h9.539999999999964ZM545.966446062990144,391.311518458522187v-2.266599999999926h-16.973100000000159v2.266599999999926h16.973100000000159ZM545.966446062990144,395.45801845852202v-2.301800000000185h-16.973100000000159v2.301800000000185h16.973100000000159ZM534.071446062989708,381.630918458522501l-1.809799999999996,1.264599999999518c-1.088599999999133-1.100599999999758-2.154999999999745-1.914999999999964-3.197000000000116-2.442399999999907l1.826600000000326-1.05369999999948c1.242200000000594.52639999999883,2.301300000000083,1.270499999999629,3.180199999999786,2.231499999999869ZM542.592746062990045,373.249518458522289c-1.69800000000032-.889600000000428-3.343100000000049-2.090799999999945-4.936300000000301-3.602499999999964-1.700199999999313,1.405700000000252-3.602600000000166,2.606899999999769-5.710699999999633,3.602499999999964h10.646999999999935ZM548.057846062990393,383.370118458522484v-4.393100000000231h-9.48739999999998v4.393100000000231h9.48739999999998ZM545.932346062990291,380.014218458522009c-.691899999999805,1.101000000000568-1.734699999999975,2.037599999999657-3.128500000000713,2.810999999999694l-1.932099999999991-.965799999999945c1.533699999999953-.867199999999684,2.588400000000547-1.734399999999368,3.162600000000566-2.60110000000077l1.898000000000138.75590000000102Z"/></g></svg>