<?xml version="1.0" encoding="UTF-8"?><svg id="uuid-b3eb803c-4c60-4b18-a982-3d92a71278f0" xmlns="http://www.w3.org/2000/svg" width="223.37553414523623mm" height="327.281464529169568mm" xmlns:xlink="http://www.w3.org/1999/xlink" viewBox="0 0 633.190500000000611 927.726999999998952"><defs><style>.uuid-72306987-e949-4fe3-b9d1-be55afc71ff9{fill:#00c2f3;}.uuid-e5048c0f-a47a-4609-8e0d-8a31fe8ac995{fill:#fff;}.uuid-5eabffe0-e5ce-44ba-8f84-133ab6206af4{fill:#ee212e;}.uuid-2ec43a6c-38cf-44f9-83bf-90fc2d40a582{fill:none;}.uuid-14d6ae29-1819-4756-ac49-62eb5c5a2ff2{fill:#333e48;}.uuid-591edd64-d509-4845-9d0e-3dfb97e1c7b6{fill:#46bc96;}.uuid-a3f1faa6-e153-49f6-af41-87e89499b32e{clip-path:url(#uuid-4e49d72e-bb69-4bd5-a13e-a9c3d21ccab7);}</style><clipPath id="uuid-4e49d72e-bb69-4bd5-a13e-a9c3d21ccab7"><rect class="uuid-2ec43a6c-38cf-44f9-83bf-90fc2d40a582" width="633.190500000000611" height="927.726999999998952"/></clipPath></defs><g class="uuid-a3f1faa6-e153-49f6-af41-87e89499b32e"><path class="uuid-5eabffe0-e5ce-44ba-8f84-133ab6206af4" d="M77.71100000000115,170.747099999999591c3.777299999997922,0,6.837899999998626,3.060500000000502,6.837899999998626,6.836899999999332-.002000000000407-.139699999999721-.005900000000111-.278299999999945-.005900000000111-.418999999999869,0-51.154300000000148,41.468800000000556-92.622999999999593,92.623100000000704-92.622999999999593,3.777299999999741,0,6.837799999999334-3.060600000000704,6.837799999999334-6.837900000000445,0-3.77639999999974-3.060499999999593-6.837899999999536-6.837799999999334-6.837899999999536-14.343800000000556,0-28.265699999999924,2.8125-41.380900000000111,8.359400000000278-12.658199999999852,5.354499999999462-24.025400000000445,13.016599999999016-33.783199999999852,22.774400000000242-9.757800000001225,9.75879999999961-17.421899999999368,21.125-22.775400000000445,33.784200000000055-5.546899999999368,13.115199999999277-8.359399999999368,27.037099999999555-8.359399999999368,41.380799999998999,0,.140699999999924.003899999999703.279300000000148.005899999998292.418999999999869,0-3.77639999999883,3.060500000001412-6.836899999999332,6.837900000002264-6.836899999999332Z"/><path class="uuid-591edd64-d509-4845-9d0e-3dfb97e1c7b6" d="M170.330100000001039,276.626899999999296c0-3.776299999999537,3.060599999998885-6.837799999999334,6.835999999999331-6.837799999999334-51.015699999999924,0-92.39259999999922-41.242200000000594-92.617200000000594-92.205100000001039,0-3.77639999999883-3.060600000000704-6.836899999999332-6.837899999998626-6.836899999999332-3.777400000000853,0-6.837900000002264,3.060500000000502-6.837900000002264,6.836899999999332.054700000000594,14.19630000000052,2.861300000000483,27.975600000000668,8.353500000001077,40.962900000000445,5.353500000001077,12.659099999999853,13.01759999999922,24.025400000000445,22.775400000000445,33.783199999999852,9.757799999999406,9.75879999999961,21.125,17.420900000000074,33.783199999999852,22.775400000000445,13.115200000000186,5.546800000000076,27.037099999999555,8.359300000000076,41.380900000000111,8.359300000000076-3.775400000000445,0-6.835999999999331-3.061499999999796-6.835999999999331-6.837900000000445Z"/><path class="uuid-72306987-e949-4fe3-b9d1-be55afc71ff9" d="M251.265699999999924,243.702099999999518c-2.670000000000073-2.670900000000074-6.998099999998885-2.670900000000074-9.670000000000073,0-16.671800000000076,16.145499999999629-39.386699999999109,26.087000000000444-64.429599999999482,26.087000000000444-3.775400000000445,0-6.835999999999331,3.061499999999796-6.835999999999331,6.837799999999334,0,3.776400000000649,3.060599999998885,6.837900000000445,6.835999999999331,6.837900000000445,14.345699999999852,0,28.267499999999927-2.8125,41.382799999999406-8.359300000000076,12.203100000000632-5.160200000000259,23.199199999999109-12.473700000000463,32.716800000000148-21.732500000000073,2.671800000000076-2.670900000000074,2.671800000000076-7,0-9.670900000000074Z"/><path class="uuid-72306987-e949-4fe3-b9d1-be55afc71ff9" d="M233.459000000000742,120.873999999999796c-15.035100000000966-15.035100000000966-35.02730000000156-23.315400000000409-56.292900000000373-23.315400000000409-21.261800000000221,0-41.254000000000815,8.280299999999443-56.29110000000037,23.315400000000409-15.035099999999147,15.036099999999351-23.316399999999703,35.027399999999034-23.316399999999703,56.290999999999258,0,21.265699999999924,8.281300000000556,41.254899999999907,23.316399999999703,56.292000000000371,15.037099999999555,15.03519999999935,35.029300000000148,23.317399999999907,56.29110000000037,23.317399999999907,21.265599999998813,0,41.257799999999406-8.282200000000557,56.292900000000373-23.317399999999907,15.03519999999844-15.037100000000464,23.314500000000407-35.026300000000447,23.314500000000407-56.292000000000371,0-21.263600000000224-8.279300000001967-41.254899999999907-23.314500000000407-56.290999999999258Z"/><path class="uuid-14d6ae29-1819-4756-ac49-62eb5c5a2ff2" d="M121.0625,202.910099999999147v-51.489199999999983h11.167999999999665v3.806599999999889h-6.472599999999147v43.877000000000407h6.472599999999147v3.805599999999686h-11.167999999999665Z"/><path class="uuid-14d6ae29-1819-4756-ac49-62eb5c5a2ff2" d="M233.271500000000742,151.420899999999165v51.489199999999983h-11.164000000000669v-3.805599999999686h6.468699999999444v-43.877000000000407h-6.468699999999444v-3.806599999999889h11.164000000000669Z"/><path class="uuid-e5048c0f-a47a-4609-8e0d-8a31fe8ac995" d="M146.998099999998885,187.625c0,1.028299999999945.015600000000632,2.242199999998775.046900000001187,3.635699999998906.031199999999444,1.394600000000537.076100000000224,2.8125.130799999998999,4.248100000000704.052800000001298,1.4375.115300000001298,2.811499999999796.193400000000111,4.120100000000093.072200000000521,1.308600000000297.164000000000669,2.402299999999741.271500000000742,3.281199999999444h-6.595699999999852v-36.364199999999983c0-3.132799999999406-.052799999999479-5.968799999999646-.162099999999555-8.511699999999109-.105499999999665-2.543000000000575-.267600000001039-4.748100000000704-.482500000000073-6.613300000000891h6.59769999999844v36.204100000000835Z"/><path class="uuid-e5048c0f-a47a-4609-8e0d-8a31fe8ac995" d="M175.800799999999072,170.084999999999127v4.216700000000856h-6.050799999999072v24.393599999999424h6.050799999999072v4.215799999999945h-18.021499999998923v-4.215799999999945h5.953199999999924v-24.393599999999424h-5.953199999999924v-4.216700000000856h18.021499999998923Z"/><path class="uuid-e5048c0f-a47a-4609-8e0d-8a31fe8ac995" d="M189.316399999999703,170.084999999999127c.129000000000815.344699999999648.257900000000518.789000000000669.386800000000221,1.337800000000243.128899999999703.545900000000074.246100000000297,1.119200000000092.353499999999258,1.720699999999852.105400000000373.599699999999757.203100000000632,1.190499999999702.291000000001077,1.769600000000537l.255900000000111,1.447199999999611c2.060499999999593-2.445300000000316,4.128899999999703-4.20890000000054,6.210900000000038-5.292899999999463,2.08009999999922-1.083000000000538,4.25-1.625,6.5-1.625,1.716800000000148,0,3.234399999999368.284200000000055,4.554699999998775.85149999999885,1.318300000000818.570300000001225,2.429700000000594,1.470700000000761,3.330100000001039,2.703200000000834.900299999999334,1.234299999999166,1.582000000000335,2.83389999999963,2.044899999998961,4.795900000000074.460900000001857,1.963799999999537.691400000001522,4.327100000000428.691400000001522,7.096599999999853v14.480500000000575c0,3.625999999999294-.318400000000111,6.635699999998906-.951200000001336,9.027399999999034-.630799999998999,2.392499999999927-1.51759999999922,4.301699999999983-2.654299999998329,5.730400000000373-1.136700000000928,1.423800000000483-2.505800000000818,2.433600000000297-4.103500000001077,3.022500000000036-1.597700000000259.590799999999945-3.372999999999593.885699999999815-5.326199999999517.885699999999815-.964799999999741,0-2-.155300000000352-3.105400000000373-.466800000000148-1.10360000000037-.311499999999796-2.107500000000073-.745100000000093-3.007900000000518-1.30370000000039l2.091800000000148-4.827099999999518c.494199999999182.365200000000186,1.152400000000853.66989999999987,1.97860000000037.917899999999463.826100000000224.246100000000297,1.66990000000078.369200000001001,2.525400000000445.369200000001001,1.031199999999444,0,1.953100000000632-.166000000000167,2.769500000000335-.498100000000704.814399999999296-.332999999999629,1.505799999998999-.915999999999258,2.074199999999109-1.753899999999703.570299999999406-.836900000000242,1.003899999999703-1.984399999999368,1.304700000000594-3.443299999999908.300799999999072-1.458999999999833.449199999999109-3.315499999999702.449199999999109-5.567399999999907v-14.160200000000259c0-2.574200000000019-.132799999999406-4.66110000000026-.400399999998626-6.25880000000052-.269500000000335-1.598599999999351-.671900000001187-2.843699999999444-1.209000000000742-3.733399999999165-.535099999999147-.889600000000428-1.204999999999927-1.485300000000279-2.011700000000928-1.787099999999555-.802700000000186-.298800000000483-1.742199999998775-.450200000001132-2.814399999999296-.450200000001132-1.158199999999852,0-2.289099999999962.27350000000115-3.394599999999627.822300000000723-1.103500000001077.546900000000278-2.119099999999889,1.254899999999907-3.042900000000373,2.122999999999593-.921899999999368.868199999999888-1.736399999999776,1.849699999999757-2.443400000000111,2.945399999999609-.708999999998923,1.093700000001263-1.234399999999368,2.1875-1.578099999998813,3.281200000001263v18.665999999999258h-5.953100000000632v-19.791999999999462c0-3.174800000000687-.183600000000297-5.862300000000687-.548899999999776-8.061499999999796-.363300000000891-2.199200000000928-.718700000001263-3.856400000000576-1.060499999999593-4.972600000000966h5.792899999998554Z"/><path class="uuid-14d6ae29-1819-4756-ac49-62eb5c5a2ff2" d="M129.760800000000017,442.959999999999127h-32.208000000000538v-5.347200000000157h32.208000000000538v5.347200000000157ZM125.569400000000314,499.889599999999518h-5.518600000001243v-5.860300000000279h-12.873999999999796v5.860300000000279h-5.603499999999258v-28.91399999999976h23.996100000000297v28.91399999999976ZM125.311599999999089,453.995100000000093l-23.652399999999034.084999999999127v-5.345699999999852h23.652399999999034v5.260700000000725ZM125.397500000000946,465.201199999999517h-23.738300000000891v-5.346700000000055h23.738300000000891v5.346700000000055ZM124.328199999999924,432.09519999999975l-21.72860000000037.08640000000014v-5.347100000000864h21.72860000000037v5.260700000000725ZM120.050799999999072,488.768099999999322v-12.531799999999748h-12.959899999998015v12.531799999999748h12.959899999998015ZM175.3125,465.286099999999351l-46.237299999998868.08600000000024v-5.260800000000017h11.462899999998626l2.481499999999869-13.216800000000148h-10.692399999999907v-5.260699999999815h11.548800000000483l1.837900000000445-9.795399999999972h-16.380900000000111v-5.346200000000863h42.47269999999844v5.261200000000827h-20.317399999999907l-1.752899999999499,9.795399999999972h17.622100000000501l-1.839899999999034,18.476599999999962h9.794899999998961v5.260699999999815ZM167.870199999999386,500.060499999999593h-5.51759999999922v-5.774400000000242h-21.64259999999922v5.774400000000242h-5.603500000001077v-28.999499999999898h32.763699999999517v28.999499999999898ZM162.352600000000166,489.024899999999434v-12.703099999999722h-21.728500000001077v12.703099999999722h21.728500000001077ZM161.497100000000501,446.809599999999591h-12.703100000000632l-2.480499999999665,13.301699999999983h13.857399999998961l1.326200000001336-13.301699999999983Z"/><path class="uuid-14d6ae29-1819-4756-ac49-62eb5c5a2ff2" d="M271.754899999999907,442.959999999999127h-77.759700000000521v-5.347200000000157h77.759700000000521v5.347200000000157ZM260.291999999999462,453.909200000000055h-55.603499999999258v-5.174800000000687h55.603499999999258v5.174800000000687ZM260.291999999999462,465.029799999999341h-55.603499999999258v-5.175299999999879h55.603499999999258v5.175299999999879ZM258.28230000000076,500.060499999999593h-5.517600000001039v-6.031200000000354h-40.121100000000297v6.031200000000354h-5.51759999999922v-29.084899999999834h51.156300000000556v29.084899999999834ZM258.19629999999961,431.539999999999054l-50.64259999999922.128000000000611v-5.175800000000891h50.64259999999922v5.047800000000279ZM252.764699999999721,488.768099999999322v-12.531799999999748h-40.121100000000297v12.531799999999748h40.121100000000297Z"/><path class="uuid-14d6ae29-1819-4756-ac49-62eb5c5a2ff2" d="M368.199300000000221,484.577099999999518h-34.432699999999386v5.945399999999609c0,6.358299999999872-3.378899999999703,9.538000000000466-10.137700000001132,9.538000000000466h-5.688399999999092l-2.095699999999852-5.260700000000725h7.954999999999927c2.795000000000073,0,4.193399999998292-1.284199999999146,4.193399999998292-3.849599999999555v-6.373099999999795h-37.554699999998775v-5.346599999999853h37.554699999998775v-3.678799999999683c5.958000000000538-2.224600000000464,10.220700000001671-4.304600000000391,12.788100000001577-6.244099999999889h-32.764699999999721v-4.919400000000678h42.261800000000221v4.662599999999657c-4.450200000001132,3.022399999999834-9.953199999999924,6.11620000000039-16.511800000000221,9.281200000000354v.89850000000024h34.432699999999386v5.346599999999853ZM364.606499999999869,468.707999999999629h-5.134799999999814v-8.853500000000167h-59.751000000000204v9.367200000000594h-5.604499999999462v-14.371100000000297h7.357500000000073v-26.091800000000148c4.047800000000279-.39850000000024,8.483399999999165-2.324200000000019,13.302700000000186-5.77390000000014l2.823199999998906,3.934999999999491c-2.596599999998944,2.395500000000538-6.131799999999203,4.206600000000435-10.608399999999165,5.432099999999991v3.593300000000454h10.949300000000221v4.448199999999815h-10.949300000000221v4.662199999999757h10.949300000000221v4.362300000000687h-10.949300000000221v5.432600000000093h45.466800000000148v-5.432600000000093h-10.436499999999796v-4.277399999999943h10.436499999999796v-5.003900000000613h-10.351500000000669v-4.362299999999777h10.351500000000669v-4.663099999999758h-12.104400000000169v-5.175299999999879h17.536099999999351v28.828599999999824h6.716800000000148v13.943400000000111ZM340.35360000000037,435.51759999999922l-2.993200000000797,3.677700000000186c-1.627000000000407-1.567399999999907-3.836899999998423-3.264600000000428-6.630900000000111-5.089799999999741-2.308600000000297,1.939399999999296-4.904299999998329,3.721599999999853-7.785099999999147,5.346599999999853l-3.506900000000314-3.079999999999927c2.766600000000835-1.13970000000063,5.188500000000204-2.480500000000575,7.272500000000946-4.020100000000639-3.480500000001484-1.311499999999796-6.289100000001781-2.224099999999453-8.427700000000186-2.736799999999675l2.182600000000093-3.935999999999694c3.16399999999885.798299999999472,6.343699999999444,1.825700000000325,9.538099999999758,3.079600000000028,2.024400000000242-1.909200000000055,3.720699999999852-3.863299999999981,5.089799999999741-5.859400000000278l3.592800000000352,2.86620000000039c-1.141600000000835,1.76760000000013-2.624000000001615,3.493199999999888-4.448300000000017,5.174799999999777,2.109399999999368,1.197299999999814,4.148499999999331,2.723200000000361,6.116299999999683,4.577199999999721ZM340.86620000000039,451.085900000000038l-3.591700000000856,2.823300000000017c-2.309599999998682-1.767600000001039-4.706099999999424-3.236400000000685-7.185599999998885-4.405300000000352-1.540000000000873,1.168899999999667-4.27730000000156,2.637699999999313-8.212900000000445,4.405300000000352l-3.25-2.566400000000613c3.677700000000186-1.738800000000083,6.314500000000407-3.251000000000204,7.913099999999758-4.533199999999852-1.598599999999351-.998099999999795-4.020500000000538-2.110400000000482-7.272499999999127-3.337400000000343l3.207999999998719-2.693899999999303c2.936600000000908,1.055699999998978,5.44629999999961,2.153299999999945,7.528400000001056,3.292999999999665.796800000000076-.45510000000013,2.408199999999852-1.824200000000019,4.832000000000335-4.105999999999767l3.935499999999593,2.010299999999916c-1.454100000000835,1.882799999999406-3.078100000000632,3.436499999999796-4.875,4.662599999999657,2.366299999999683,1.08350000000064,4.689500000000407,2.565899999999601,6.970699999999852,4.447700000000623Z"/><path class="uuid-14d6ae29-1819-4756-ac49-62eb5c5a2ff2" d="M464.555699999998978,484.577099999999518h-34.431599999999889v5.945399999999609c0,6.358299999999872-3.378899999999703,9.538000000000466-10.136799999998402,9.538000000000466h-5.689400000001115l-2.095699999999852-5.260700000000725h7.956000000000131c2.793999999999869,0,4.191399999999703-1.284199999999146,4.191399999999703-3.849599999999555v-6.373099999999795h-37.55370000000039v-5.346599999999853h37.55370000000039v-3.678799999999683c5.960000000000946-2.224600000000464,10.221700000000055-4.304600000000391,12.790100000000166-6.244099999999889h-32.764699999999721v-4.919400000000678h42.259799999999814v4.662599999999657c-4.448200000000725,3.022399999999834-9.953100000000632,6.11620000000039-16.510700000000725,9.281200000000354v.89850000000024h34.431599999999889v5.346599999999853ZM460.963900000000649,468.707999999999629h-5.134799999999814v-8.853500000000167h-59.751900000001115v9.367200000000594h-5.602600000000166v-14.371100000000297h7.356499999999869v-26.091800000000148c4.048800000000483-.39850000000024,8.48240000000078-2.324200000000019,13.302700000000186-5.77390000000014l2.822299999999814,3.934999999999491c-2.593799999998737,2.395500000000538-6.130899999998292,4.206600000000435-10.607399999998961,5.432099999999991v3.593300000000454h10.949199999999109v4.448199999999815h-10.949199999999109v4.662199999999757h10.949199999999109v4.362300000000687h-10.949199999999109v5.432600000000093h45.466800000000148v-5.432600000000093h-10.435600000000704v-4.277399999999943h10.435600000000704v-5.003900000000613h-10.351599999999962v-4.362299999999777h10.351599999999962v-4.663099999999758h-12.105499999999665v-5.175299999999879h17.537099999999555v28.828599999999824h6.716800000000148v13.943400000000111ZM438.233399999999165,450.126499999999396l-3.89639999999963,3.5628999999999c-1.779300000000148-2.672800000000279-4.324299999998402-6.018500000000131-6.785200000000259-8.096099999999751-3.826199999999517,4.263099999999213-6.973599999999351,6.975999999999658-9.432600000000093,8.136700000000019l-3.85649999999805-3.238299999999981c2.898499999999331-1.378900000000613,6.041999999999462-3.954600000000028,9.433599999998478-7.73239999999987-3.855399999998554-2.401900000000751-6.603499999999258-3.887200000000121-8.244099999999889-4.454600000000937l3.364199999999983-3.47899999999936c1.367200000000594.539999999999964,3.934600000000501,1.941899999999805,7.71100000000115,4.210399999999936,1.122099999998682-1.835900000000038,1.995100000000093-3.846700000000055,2.623999999999796-6.033199999999852h-12.878899999999703v-5.059600000000501h6.904299999998329v-5.209899999999834h4.431599999999889v5.209899999999834h8.195300000001225v5.059600000000501h-1.623000000001412c-.91019999999844,3.348700000000463-2.134799999999814,6.249499999999898-3.674799999998868,8.70510000000013,2.981400000000576,2.266099999999824,5.841800000000148,5.719699999999648,7.727499999999054,8.418499999999767Z"/><path class="uuid-14d6ae29-1819-4756-ac49-62eb5c5a2ff2" d="M562.324300000000221,442.789099999999962l-3.079100000000835,4.447699999998804c-9.724699999998847-2.394999999999527-17.336999999999534-5.161099999999351-22.839899999999034-8.29739999999947v3.849700000000666h-28.915000000000873v-4.235400000000482c-8.326199999999517,4.306599999999889-15.796899999999368,7.115199999999277-22.413099999999758,8.426300000000083l-2.822299999999814-4.490799999999581c16.024400000000242-3.906200000000354,29.369199999999182-10.436500000000706,40.035200000000259-19.58980000000065l5.259700000000521,1.753400000000511c-.570300000001225.712899999999536-1.069300000001022,1.212399999999434-1.497000000001208,1.496599999999489,9.466800000000148,7.870600000000195,21.557600000000093,13.417000000000371,36.271500000000742,16.63970000000063ZM553.212900000000445,467.296899999999368h-62.104500000001281v-20.060100000000602h62.104500000001281v20.060100000000602ZM548.124099999999089,500.145499999999629h-5.260800000000017v-3.421900000000278h-41.317399999999907v3.421900000000278h-5.261699999999109v-28.35739999999987h51.839899999999034v28.35739999999987ZM519.59480000000076,462.677699999999277v-10.693299999999908h-23.225600000001577v10.693299999999908h23.225600000001577ZM542.863299999999072,482.010699999998906v-5.517499999999927h-41.317399999999907v5.517499999999927h41.317399999999907ZM542.863299999999072,492.104999999999563v-5.603100000000268h-41.317399999999907v5.603100000000268h41.317399999999907ZM513.906300000000556,458.442900000000009l-4.405300000000352,3.079599999999118c-2.651400000000649-2.679199999999582-5.247100000000501-4.661699999999655-7.785099999999147-5.945399999999609l4.448199999998906-2.565900000000511c3.022499999999127,1.28269999999975,5.602500000000873,3.094300000000658,7.742200000000594,5.431700000001001ZM534.651400000000649,438.040999999999258c-4.134799999999814-2.166999999999462-8.142600000001039-5.089799999999741-12.019500000000335-8.768500000000131-4.134799999999814,3.421800000000076-8.767600000001039,6.344699999999648-13.900400000000445,8.768500000000131h25.91990000000078ZM547.954100000000835,462.677699999999277v-10.693299999999908h-23.097600000000966v10.693299999999908h23.097600000000966ZM542.777400000000853,454.507799999999406c-1.682600000000093,2.680699999999888-4.220700000001671,4.962400000000343-7.613300000000891,6.843800000000556l-4.70509999999922-2.351599999999962c3.736399999999776-2.110400000000482,6.301799999999275-4.220700000000761,7.698300000000017-6.331600000000435l4.620100000000093,1.839399999999841Z"/><path class="uuid-14d6ae29-1819-4756-ac49-62eb5c5a2ff2" d="M133.199783661419133,385.566899999999805l-1.546899999999368,2.056099999999788c-5.961900000000242-1.756800000000112-10.799799999998868-4.122999999999593-14.512699999999313-7.09860000000026-3.199200000000928,2.612299999999777-8.222600000000966,5.025399999999536-15.076100000000224,7.239300000000185l-1.720699999999852-2.090900000000147c6.628899999999703-1.838800000000447,11.642499999999927-4.070300000000316,15.039999999999054-6.694300000000112-3.408199999999852-3.221700000000055-5.700199999999313-7.139199999999619-6.870100000000093-11.754899999999907-.632799999999406,1.628399999999601-1.5,3.174800000000687-2.601599999999962,4.638699999999517l-1.86029999999846-1.704099999999016c1.475499999998647-1.757300000000214,2.662999999998647-3.684600000000501,3.565399999999499-5.781300000000556h-6.04490000000078v-2.160100000000057h14.093700000001263v-6.009799999999814h2.265599999998813v5.973699999999553h14.336999999999534v2.162100000000464h-6.009799999999814c-1.05370000000039,6.114199999999983-3.477499999999054,10.980399999999463-7.274399999998423,14.600100000000566,3.455999999998312,2.623999999999796,8.194299999999203,4.831999999999425,14.215799999998126,6.623999999999796ZM123.903883661419968,364.342799999999443h-13.597700000000259c.935600000000704,5.422800000000279,3.225599999999758,9.78610000000026,6.869200000001001,13.089300000000549,3.560499999999593-3.314900000001217,5.803699999998571-7.678200000000288,6.728499999999258-13.089300000000549Z"/><path class="uuid-14d6ae29-1819-4756-ac49-62eb5c5a2ff2" d="M217.365400905509887,381.473599999999351h-14.146500000000742v2.442399999999907c0,2.611300000000483-1.386699999999109,3.917999999999665-4.163099999999758,3.917999999999665h-2.336900000000242l-.860300000000279-2.161199999999553h3.266600000000835c1.148400000000038,0,1.722599999999147-.527299999999741,1.722599999999147-1.581499999999323v-2.617700000000696h-15.425799999999072v-2.196799999999712h15.425799999999072v-1.511199999999917c2.448300000000017-.913100000000668,4.199200000000928-1.768500000000131,5.253000000000611-2.564400000000205h-13.457999999998719v-2.021500000000742h17.359300000000076v1.915000000000873c-1.827100000011342,1.242199999999684-4.088800000001356,2.513699999999517-6.783200000001671,3.813000000000102v.369099999999889h14.146500000000742v2.196799999999712ZM215.888800905509925,374.954599999999118h-2.109300000000076v-3.637199999999211h-24.545900000000984v3.847599999999147h-2.301799999999275v-5.902799999999843h3.022500000000946v-10.718300000000454c1.663099999988845-.163499999998749,3.485300000000279-.954599999999118,5.465799999989031-2.371999999999389l1.158200000010766,1.616700000000492c-1.064500000000407.983899999999267-2.519500000000335,1.727499999999054-4.358400000000984,2.231399999999667v1.475100000000566h4.498999999999796v1.828099999998813h-4.498999999999796v1.915100000000166h4.498999999999796v1.792000000000371h-4.498999999999796v2.231899999999769h18.67870000000039v-2.231899999999769h-4.289099999999962v-1.756899999999405h4.289099999999962v-2.055600000000595h-4.251899999999296v-1.792500000000473h4.251899999999296v-1.914600000000064h-4.972599999999147v-2.125899999999092h7.203099999998813v11.841800000000148h2.759700000000521v5.727999999999156ZM205.926000905510591,361.320299999999406l-1.230499999999665,1.510299999999916c-.667000000001281-.644099999999526-1.575200000001132-1.340400000000045-2.722700000002078-2.090400000000045-.949199999999109.796900000000278-2.015599999998813,1.528800000000047-3.198199999998906,2.19630000000052l-1.440399999999499-1.264600000000428c1.135699999998906-.468800000000556,2.130799999998999-1.019099999999526,2.986300000000483-1.651899999999841-1.429700000000594-.53860000000077-2.584000000009837-.91360000000077-3.46100000000115-1.125l.896500000000742-1.61619999999948c1.299799999998868.328599999998914,2.60549999999057.75,3.91799999999057,1.265099999998711.83200000000943-.784099999998944,1.52830000000904-1.586899999999332,2.089800000008836-2.407199999999648l1.476599999999962,1.177700000000186c-.468699999999444.725599999999758-1.078100000000632,1.434600000000501-1.826200000010431,2.126000000000204.865300000010393.49120000000039,1.703199999999924,1.119200000000092,2.511800000011135,1.879899999999907ZM206.136900905510629,367.715799999999945l-1.476600000001781,1.16019999999935c-.947199999998702-.726599999999962-1.932599999998274-1.33010000000013-2.951099999998405-1.810599999999795-.632900000000518.480499999999665-1.757900000000518,1.083999999999833-3.374100000000908,1.810599999999795l-1.335900000000038-1.055199999999786c1.512700000001132-.714400000000751,2.595699999999852-1.335000000000036,3.251000000000204-1.862300000000687-.655300000000352-.409699999999248-1.652400000000853-.865699999999379-2.986399999999776-1.370099999999184l1.317399999999907-1.107500000000073c1.206099999999424.433599999999387,2.237300000000687.885299999999916,3.092799999991257,1.353099999999358.328100000009727-.1875.990199999998367-.748999999999796,1.984400000008463-1.686499999999796l1.617200000000594.826100000000224c-.597700000000259.772500000000036-1.264699999999721,1.411200000000463-2.002000000000407,1.914600000000064.970699999999852.444800000000214,1.924800000000687,1.054200000000492,2.863300000000891,1.82760000000053Z"/><path class="uuid-14d6ae29-1819-4756-ac49-62eb5c5a2ff2" d="M276.052418149609366,368.154799999999341c2.36719999998968,2.659200000000055,3.550799999989977,5.254400000000714,3.550799999989977,7.783699999999953,0,1.229900000000271-.319299999999203,2.207999999999629-.958999999998923,2.934000000000196-.636699999990014.727100000000064-1.530200000001059,1.089899999999943-2.67870000000039,1.089899999999943-.631799999999203,0-1.394499999989421-.076700000000528-2.28419999999096-.228000000000065l-.65040000000954-2.337400000000343c1.254000000000815.316899999999805,2.156300000009651.474600000000464,2.706099999999424.474600000000464.456100000010338,0,.872100000000501-.176300000000083,1.248100000000704-.527399999999943.375-.351000000000568.5625-.819800000000214.5625-1.405700000000252,0-.877999999999702-.322299999999814-2.0024999999996-.965899999999237-3.373599999999897-.645499999991443-1.370100000000093-1.612300000000687-2.676199999999881-2.90039999999135-3.917400000000271l3.42679999999018-8.803799999999683h-5.217799999998533v27.990299999999479h-2.302700000000186v-30.221199999999953h9.856399999998757v2.230900000000474l-3.391599999989921,8.311099999999897ZM300.282918149599936,381.385699999998906c-.304700000000594,1.897500000000946-.714799999990646,3.274400000000242-1.23049999999057,4.128500000000713-.514600000009523.854900000000271-1.353500000008353,1.283199999999852-2.511700000010023,1.283199999999852h-2.740200000000186c-1.828099999998813,0-2.741199999998571-.96100000000024-2.741199999998571-2.881400000000212v-9.29489999999987h-3.708000000000538c-.070400000000518,3.771499999999833-.805700000000797,6.597600000000057-2.20509999999922,8.477499999999964-1.40039999999135,1.879899999999907-3.996100000000297,3.459000000000742-7.793000000001484,4.735399999999572l-1.475599999988845-2.020999999998821c3.525399999989531-1.042000000001281,5.944399999998495-2.38970000000063,7.256899999998495-4.041500000001179,1.3125-1.65139999999883,1.972599999990052-4.022999999999229,1.985300000000279-7.115299999999479h-4.81440000001021v-2.302200000000084h18.819300000010116v2.267100000000028h-5.871100000000297v8.75c0,.292500000000473.094699999990553.565400000000409.282199999990553.816900000000714.1875.252399999999398.410200000011173.377399999999398.668000000001484.377399999999398h2.231400000009671c.457099999988714,0,.805699999998978-.374499999999898,1.045899999988251-1.124499999999898.239300000001094-.748499999999694.441500000000815-1.721199999999953.606500000001688-2.916500000000269l2.195299999999406.861299999999574ZM298.262418149610312,365.449199999999109l-2.231500000010783.035200000000259v-3.092800000000352h-13.247999999999593v3.092800000000352h-2.266599999999016v-5.324300000000221h7.712899999998626v-3.988199999999779h2.302700000000186v3.954099999999926h7.730500000010579v5.323199999999815ZM295.311218149608976,368.839799999999741h-11.877899999999499v-2.301199999999881h11.877899999999499v2.301199999999881Z"/><path class="uuid-14d6ae29-1819-4756-ac49-62eb5c5a2ff2" d="M384.449535393699989,381.473599999999351h-14.145500000000538v2.442399999999907c0,2.611300000000483-1.388699999999517,3.917999999999665-4.164099999999962,3.917999999999665h-2.335900000000038l-.861399999999776-2.161199999999553h3.26759999999922c1.14850000000115,0,1.722700000002078-.527299999999741,1.722700000002078-1.581499999999323v-2.617700000000696h-15.427800000001298v-2.196799999999712h15.427800000001298v-1.511199999999917c2.447199999998702-.913100000000668,4.199199999999109-1.768500000000131,5.252899999999499-2.564400000000205h-13.459000000000742v-2.021500000000742h17.359399999999368v1.915000000000873c-1.827099999998609,1.242199999999684-4.08889999999883,2.513699999999517-6.782199999999648,3.813000000000102v.369099999999889h14.145500000000538v2.196799999999712ZM382.971935393699823,374.954599999999118h-2.107399999998961v-3.637199999999211h-24.54490000000078v3.847599999999147h-2.302700000000186v-5.902799999999843h3.023400000000038v-10.718300000000454c1.661099999999351-.163499999998749,3.483399999999165-.954599999999118,5.462900000000445-2.371999999999389l1.160099999999147,1.616700000000492c-1.066399999999703.983899999999267-2.518500000000131,1.727499999999054-4.357399999998961,2.231399999999667v1.475100000000566h4.498099999998885v1.828099999998813h-4.498099999998885v1.915100000000166h4.498099999998885v1.792000000000371h-4.498099999998885v2.231899999999769h18.676799999999275v-2.231899999999769h-4.28709999999046v-1.756899999999405h4.28709999999046v-2.055600000000595h-4.251000000000204v-1.792500000000473h4.251000000000204v-1.914600000000064h-4.971700000000055v-2.125899999999092h7.203100000000632v11.841800000000148h2.757799999999406v5.727999999999156ZM373.011035393699785,361.320299999999406l-1.231400000000576,1.510299999999916c-.667999999999665-.644099999999526-1.575199999999313-1.340400000000045-2.723699999998644-2.090400000000045-.948200000000725.796900000000278-2.013600000000224,1.528800000000047-3.197200000000521,2.19630000000052l-1.441399999999703-1.264600000000428c1.137699999999313-.468800000000556,2.133700000000317-1.019099999999526,2.988199999999779-1.651899999999841-1.429700000000594-.53860000000077-2.583000000000538-.91360000000077-3.460900000000038-1.125l.894500000000335-1.61619999999948c1.300799999999072.328599999998914,2.607500000000073.75,3.917999999999665,1.265099999998711.832000000000335-.784099999998944,1.529300000000148-1.586899999999332,2.092800000000352-2.407199999999648l1.475599999999758,1.177700000000186c-.468800000000556.725599999999758-1.079100000000835,1.434600000000501-1.828199999999924,2.126000000000204.867200000000594.49120000000039,1.70509999999922,1.119200000000092,2.513699999999517,1.879899999999907ZM373.221035393698912,367.715799999999945l-1.475599999997939,1.16019999999935c-.949200000000928-.726599999999962-1.933600000000297-1.33010000000013-2.951200000001336-1.810599999999795-.63379999999961.480499999999665-1.756799999999203,1.083999999999833-3.375,1.810599999999795l-1.334000000000742-1.055199999999786c1.510800000000017-.714400000000751,2.593800000000556-1.335000000000036,3.25-1.862300000000687-.656199999999444-.409699999999248-1.652299999997922-.865699999999379-2.987299999998868-1.370099999999184l1.317399999999907-1.107500000000073c1.207000000000335.433599999999387,2.238299999999072.885299999999916,3.091800000000148,1.353099999999358.328099999998813-.1875.990200000000186-.748999999999796,1.986300000000483-1.686499999999796l1.61620000000039.826100000000224c-.596600000000763.772500000000036-1.264600000000428,1.411200000000463-2.002900000001318,1.914600000000064.972700000000259.444800000000214,1.927700000000186,1.054200000000492,2.864299999999275,1.82760000000053Z"/><path class="uuid-14d6ae29-1819-4756-ac49-62eb5c5a2ff2" d="M468.842652637789797,386.077099999999518h-31.977600000000166v-2.266599999999926h14.899500000001353v-8.24120000000039h-10.736400000001595v-2.266599999999926h10.736400000001595v-7.167899999999463h-7.960000000000946c-.960000000000946,2.494099999999889-2.565399999999499,4.796800000000076-4.814500000000407,6.904300000000148l-2.318299999998999-1.212000000000444c3.840799999999945-3.549299999999675,5.979499999999462-7.894999999999527,6.413099999999758-13.037100000000464l2.371100000000297.685600000000704c-.093800000000556,1.194299999999203-.369200000001001,2.670399999999063-.826200000001336,4.427700000000186h7.099599999999555v-7.69630000000052h2.371100000011211v7.660699999999451h12.404299999989234v2.267100000000937h-12.404299999989234v7.133299999999508h10.578099999989718v2.266100000000733h-10.578099999989718v8.240699999999379h14.74219999998968v2.302200000000084Z"/><path class="uuid-14d6ae29-1819-4756-ac49-62eb5c5a2ff2" d="M553.956469881890371,364.306599999999889l-1.26470000000154,1.828199999999924c-3.994099999999889-.984400000000278-7.122099999998682-2.120200000000295-9.382799999999406-3.408699999999953v1.580500000000029h-11.877899999999499v-1.739199999999983c-3.420000000000073,1.768999999999323-6.489300000001094,2.92279999999937-9.206099999999424,3.46140000000014l-1.160100000000966-1.845200000000659c6.583900000001449-1.604500000000371,12.064399999999296-4.287100000000464,16.446200000000317-8.046900000000278l2.161200000000463.720699999999852c-.235400000001391.293000000000575-.439500000000407.498100000000704-.615300000001298.614800000000287,3.888700000001336,3.232899999999972,8.856500000001688,5.511199999999917,14.899500000001353,6.834400000000642ZM550.215169881890688,374.375h-25.511700000000928v-8.240200000000186h25.511700000000928v8.240200000000186ZM548.12336988189054,387.868199999998978h-2.162099999999555v-1.405299999999443h-16.972600000000966v1.405299999999443h-2.160200000000259v-11.648499999999331h21.29490000000078v11.648499999999331ZM536.403669881890892,372.476999999998952v-4.392499999999927h-9.540000000000873v4.392499999999927h9.540000000000873ZM545.961269881890985,380.418899999998757v-2.266599999999016h-16.972600000000966v2.266599999999016h16.972600000000966ZM545.961269881890985,384.565399999999499v-2.301199999999881h-16.972600000000966v2.301199999999881h16.972600000000966ZM534.066769881888831,370.73779999999897l-1.809599999998682,1.26510000000053c-1.088799999999537-1.100599999999758-2.15519999999924-1.914999999999964-3.197200000000521-2.442399999999907l1.827100000000428-1.05370000000039c1.242199999998775.526400000000649,2.300799999999072,1.270500000000538,3.179699999998775,2.230999999999767ZM542.588269881889573,362.356899999998859c-1.698200000000725-.889599999999518-3.343800000000556-2.090799999999945-4.936499999999796-3.602499999999054-1.700199999999313,1.405699999999342-3.602600000000166,2.606899999999769-5.710000000000946,3.602499999999054h10.646500000000742ZM548.053069881889314,372.476999999998952v-4.392499999999927h-9.487299999998868v4.392499999999927h9.487299999998868ZM545.928069881889314,369.121599999999489c-.692299999998795,1.100999999999658-1.734300000000076,2.037600000000566-3.128899999999703,2.811000000000604l-1.931599999999889-.965800000000854c1.533199999999852-.867199999999684,2.587900000000445-1.734400000000278,3.162100000001374-2.60109999999986l1.898399999998219.755900000000111Z"/><path class="uuid-14d6ae29-1819-4756-ac49-62eb5c5a2ff2" d="M105.421899999999368,645.46139999999923v-67.755400000000009h8.153800000000047v60.572300000000723h28.830100000001039v7.183099999999286h-36.983900000001086Z"/><path class="uuid-14d6ae29-1819-4756-ac49-62eb5c5a2ff2" d="M157.160200000000259,583.627399999999398c-1.683600000000297,0-2.897399999999834-.403299999999945-3.640600000000632-1.213400000000547-.744599999999991-.808099999999286-1.116199999998571-1.858899999999267-1.116199999998571-3.154799999999341v-1.261700000000019c0-1.293900000000576.37159999999858-2.34519999999975,1.116199999998571-3.155300000000352.743200000000797-.808600000000297,1.957000000000335-1.213299999999435,3.640600000000632-1.213299999999435,1.681699999999182,0,2.895499999998719.404699999999139,3.64010000000053,1.213299999999435.743199999998978.810100000000602,1.116299999999683,1.861399999999776,1.116299999999683,3.155300000000352v1.261700000000019c0,1.295900000000074-.373100000000704,2.346700000000055-1.116299999999683,3.154799999999341-.74460000000181.810100000000602-1.958400000001348,1.213400000000547-3.64010000000053,1.213400000000547ZM153.277400000000853,595.373499999999694h7.765599999998813v50.087899999999536h-7.765599999998813v-50.087899999999536Z"/><path class="uuid-14d6ae29-1819-4756-ac49-62eb5c5a2ff2" d="M177.545000000000073,645.46139999999923v-50.087899999999536h7.765600000000632v8.060999999999694h.388199999999415c1.228500000001077-2.817900000000009,2.960399999999936-5.060999999999694,5.193299999998999-6.72649999999976,2.233000000000175-1.665600000000268,5.225100000001476-2.4996000000001,8.979000000001179-2.4996000000001,5.176799999999275,0,9.270599999999831,1.666999999999462,12.27980000000025,4.999099999999999,3.009299999999712,3.333999999999833,4.513699999999517,8.042000000000371,4.513699999999517,14.123999999999796v32.129899999999907h-7.765600000000632v-30.837899999999536c0-9.015600000000632-3.785700000000361-13.52350000000024-11.357399999998961-13.52350000000024-1.5533000000014,0-3.057699999999386.195800000000418-4.514199999999619.583999999999833-1.456100000001243.389699999999721-2.766100000000733.973700000000463-3.931200000000899,1.752000000000407-1.164999999999054.778299999999945-2.086900000000242,1.766599999999926-2.766099999998914,2.966800000000148-.679700000000594,1.199199999999109-1.019500000000335,2.61029999999937-1.019500000000335,4.231399999999667v34.827199999999721h-7.765600000000632Z"/><path class="uuid-14d6ae29-1819-4756-ac49-62eb5c5a2ff2" d="M272.479499999999462,643.811499999999796c0,6.923799999999574-1.941399999999703,12.359800000000178-5.824199999999109,16.307600000000093-3.882799999999406,3.946799999999712-9.352000000000771,5.92239999999947-16.40480000000025,5.92239999999947-4.077100000000428,0-7.588299999999435-.634799999999814-10.532199999999648-1.90139999999974-2.945300000001225-1.269500000000335-5.38720000000103-2.942400000000816-7.328600000000733-5.021999999999935l4.561999999999898-5.362800000000789c1.682099999999991,1.731999999999971,3.623600000000806,3.065000000000509,5.824200000000928,3.996100000000297,2.199300000000221.931700000000092,4.756400000000212,1.397000000000844,7.668499999999767,1.397000000000844,4.529300000000148,0,8.040499999999156-1.251500000000306,10.532199999999648-3.752000000000407,2.490700000000288-2.504399999999805,3.737300000000687-6.192800000000716,3.737300000000687-11.067800000000716v-6.928299999999581h-.388200000001234c-1.489199999999983,3.075700000000325-3.430599999999686,5.381400000000212-5.824199999999109,6.918999999999869-2.395000000000437,1.53859999999986-5.338799999999537,2.307099999999991-8.83350000000064,2.307099999999991-3.106400000000576,0-5.921399999999267-.615700000000288-8.445299999999406-1.843699999999444-2.523400000000038-1.229000000000269-4.659200000000055-2.976599999999962-6.406200000001263-5.242200000000594-1.747599999998783-2.264699999999721-3.10649999999805-5.014699999999721-4.077199999999721-8.251000000000204-.970699999999852-3.235399999999572-1.455999999998312-6.859399999999368-1.455999999998312-10.872099999999591,0-4.011700000000019.48529999999846-7.635699999999815,1.455999999998312-10.872000000000298.970700000001671-3.235399999999572,2.329600000000937-5.985399999999572,4.077199999999721-8.251000000000204,1.747000000001208-2.264699999999721,3.882800000001225-4.011699999999109,6.406200000001263-5.242199999998775,2.52390000000014-1.228500000001077,5.33889999999883-1.843800000000556,8.445299999999406-1.843800000000556,3.494700000001103,0,6.487300000000687.753499999999804,8.97899999999936,2.257900000000518,2.4908000000014,1.506799999999203,4.383300000001327,3.828599999998914,5.67870000000039,6.968199999999342h.388200000001234v-8.060999999999694h7.765599999998813v48.438000000000102ZM251.997600000000602,639.734300000000076c1.747599999998783,0,3.397499999999127-.227500000000873,4.950699999999415-.682600000000093,1.553200000000288-.454600000000937,2.895500000000538-1.122600000000602,4.028299999999945-2.000500000000102,1.131900000000314-.876900000001115,2.03859999999986-1.950700000000325,2.718300000000454-3.217800000000352.679199999998673-1.268500000000131,1.019000000000233-2.748999999999796,1.019000000000233-4.439900000000307v-18.634799999999814c0-1.365200000000186-.324200000000928-2.649899999999434-.970700000001671-3.854000000000269-.647399999998015-1.20259999999962-1.553199999998469-2.22649999999976-2.717799999998533-3.072699999999713-1.165000000000873-.844700000000557-2.52390000000014-1.511199999999917-4.077100000000428-1.999499999999898s-3.203100000000632-.732500000000073-4.950699999999415-.732500000000073c-4.401400000000649,0-7.89600000000064,1.39850000000024-10.483400000000984,4.195399999999609-2.589299999999639,2.796800000000076-3.882799999999406,6.406700000000455-3.882799999999406,10.829999999999927v8.584000000000742c0,4.422899999999572,1.293499999999767,8.03269999999975,3.882799999999406,10.83009999999922,2.587400000000343,2.796400000001086,6.082000000000335,4.194800000001123,10.483400000000984,4.194800000001123Z"/><path class="uuid-14d6ae29-1819-4756-ac49-62eb5c5a2ff2" d="M319.849200000000565,637.400299999999334h-.388199999999415c-.518600000001243,1.15480000000025-1.149400000002061,2.291500000000269-1.892600000001039,3.412599999999657-.745100000000093,1.120600000000195-1.666999999999462,2.114300000001094-2.766600000000835,2.97860000000037-1.10149999999885.865200000000186-2.426699999999983,1.55370000000039-3.979999999999563,2.066399999999703-1.553200000000288.51220000000103-3.365700000000288.768500000000131-5.435999999999694.768500000000131-5.178200000000288,0-9.287099999999555-1.664999999999964-12.328100000000632-4.998999999999796-3.042499999999563-3.332500000000437-4.5625-8.039999999999964-4.5625-14.123999999999796v-32.129899999999907h7.765600000000632v30.837899999999536c0,9.01509999999962,3.817900000000009,13.522900000000845,11.454599999999118,13.522900000000845,1.553200000000288,0,3.057600000000093-.19380000000092,4.513700000001336-.584000000000742,1.456000000000131-.388100000000122,2.75-.972099999999955,3.882799999999406-1.75,1.131800000001022-.778299999999945,2.038500000000568-1.766999999999825,2.718200000001161-2.967200000000048.679699999998775-1.199299999999312,1.019099999999526-2.643100000000231,1.019099999999526-4.33010000000013v-34.729499999999462h7.765600000000632v50.087899999999536h-7.765600000000632v-8.061099999999897Z"/><path class="uuid-14d6ae29-1819-4756-ac49-62eb5c5a2ff2" d="M347.999099999999089,583.627399999999398c-1.683599999998478,0-2.896999999999025-.403299999999945-3.640199999998003-1.213400000000547-.74460000000181-.808099999999286-1.11620000000039-1.858899999999267-1.11620000000039-3.154799999999341v-1.261700000000019c0-1.293900000000576.37159999999858-2.34519999999975,1.11620000000039-3.155300000000352.743199999998978-.808600000000297,1.956599999999526-1.213299999999435,3.640199999998003-1.213299999999435,1.68210000000181,0,2.895500000000538.404699999999139,3.64010000000053,1.213299999999435.743200000000797.810100000000602,1.11620000000039,1.861399999999776,1.11620000000039,3.155300000000352v1.261700000000019c0,1.295900000000074-.372999999999593,2.346700000000055-1.11620000000039,3.154799999999341-.744599999999991.810100000000602-1.957999999998719,1.213400000000547-3.64010000000053,1.213400000000547ZM344.116299999999683,595.373499999999694h7.765600000000632v50.087899999999536h-7.765600000000632v-50.087899999999536Z"/><path class="uuid-14d6ae29-1819-4756-ac49-62eb5c5a2ff2" d="M383.430200000000696,646.626399999999194c-4.659100000000763,0-8.559100000000399-.89009999999962-11.697200000000521-2.668899999999667-3.139699999999721-1.779300000000148-5.840900000001056-4.158200000000761-8.105499999999665-7.134800000000723l5.533199999999852-4.465799999999945c1.941399999999703,2.459900000000744,4.108899999999267,4.352500000000873,6.503899999999703,5.67870000000039,2.393599999999424,1.327100000000428,5.176799999999275,1.990200000000186,8.348200000000361,1.990200000000186,3.300199999999677,0,5.872499999999491-.711900000000242,7.716699999999037-2.135699999999815,1.84480000000076-1.422900000000482,2.766600000000835-3.429699999999684,2.766600000000835-6.018600000000333,0-1.941399999999703-.630800000000818-3.606399999999667-1.892499999999927-4.998999999999796-1.26220000000103-1.390600000000632-3.543499999999767-2.344699999999648-6.843800000000556-2.863299999999981l-3.979999999999563-.582999999999629c-2.329499999999825-.323200000000725-4.465299999999843-.82470000000103-6.406700000001365-1.503900000000613-1.941399999999703-.680199999999786-3.640099999998711-1.585399999999936-5.096199999998134-2.718200000000252-1.456000000000131-1.131400000000212-2.588900000000649-2.539600000000064-3.397500000000946-4.223199999999451-.809999999999491-1.681600000000799-1.213299999999435-3.688500000000204-1.213299999999435-6.01760000000013,0-2.458999999999833.452099999998609-4.611300000000483,1.358899999999267-6.454999999999927.905699999999342-1.84479999999985,2.150799999999435-3.381900000000314,3.737300000000687-4.611399999999776,1.584899999999834-1.228500000000167,3.477999999999156-2.150900000000547,5.67870000000039-2.766600000000835,2.199199999999109-.614199999999983,4.5625-.921899999999368,7.08640000000014-.921899999999368,4.076699999999619,0,7.489299999999275.712400000000343,10.240699999998469,2.135299999999916,2.75,1.424300000000585,5.160200000000259,3.397500000000036,7.231999999999971,5.921400000000176l-5.145099999999729,4.659199999999146c-1.101000000000568-1.552799999999479-2.71769999999924-2.959999999999127-4.853499999999258-4.22269999999935-2.135200000000623-1.261700000000019-4.82129999999961-1.89260000000013-8.056599999999889-1.89260000000013-3.236800000000585,0-5.67870000000039.695799999999508-7.329100000000835,2.086900000000242-1.649899999998524,1.392100000000028-2.475099999999657,3.285200000000259-2.475099999999657,5.678799999999683,0,2.459899999999834.825200000001132,4.239199999999983,2.475099999999657,5.338800000000447,1.650400000000445,1.101599999999962,4.028800000000047,1.909199999999146,7.134700000000521,2.426800000000185l3.882900000000518.581999999999425c5.564899999999398.841800000000148,9.513100000000122,2.444300000000112,11.84269999999924,4.805199999999786,2.329599999999118,2.363300000000891,3.494700000001103,5.45260000000053,3.494700000001103,9.270500000000538,0,4.853499999999258-1.650400000000445,8.67239999999947-4.950700000001234,11.454600000000028-3.30029999999897,2.783199999999852-7.831099999999424,4.173799999999574-13.589899999999034,4.173799999999574Z"/><path class="uuid-14d6ae29-1819-4756-ac49-62eb5c5a2ff2" d="M426.045500000000175,645.46139999999923c-2.717800000000352,0-4.772999999999229-.757800000000316-6.164099999999962-2.274899999999434-1.392100000000937-1.516600000000835-2.086900000000242-3.503400000000511-2.086900000000242-5.957500000000437v-34.96389999999974h-8.251000000000204v-6.891599999999926h4.659200000000055c1.682099999999991,0,2.830600000001141-.340299999999843,3.44629999999961-1.020000000000437.614199999999983-.679200000000492.921900000001187-1.859399999999368.921900000001187-3.542999999999665v-9.318900000000212h6.989199999999983v13.881900000000314h10.969299999998839v6.891599999999926h-10.969299999998839v36.304699999999684h10.192399999999907v6.891599999999926h-9.707000000000335Z"/><path class="uuid-14d6ae29-1819-4756-ac49-62eb5c5a2ff2" d="M452.934100000000399,583.627399999999398c-1.683600000000297,0-2.896899999999732-.403299999999945-3.64010000000053-1.213400000000547-.744599999999991-.808099999999286-1.116699999998673-1.858899999999267-1.116699999998673-3.154799999999341v-1.261700000000019c0-1.293900000000576.372099999998682-2.34519999999975,1.116699999998673-3.155300000000352.743200000000797-.808600000000297,1.956500000000233-1.213299999999435,3.64010000000053-1.213299999999435,1.682199999999284,0,2.895499999998719.404699999999139,3.640199999999822,1.213299999999435.743099999999686.810100000000602,1.11620000000039,1.861399999999776,1.11620000000039,3.155300000000352v1.261700000000019c0,1.295900000000074-.373100000000704,2.346700000000055-1.11620000000039,3.154799999999341-.744700000001103.810100000000602-1.958000000000538,1.213400000000547-3.640199999999822,1.213400000000547ZM449.051300000000992,595.373499999999694h7.765599999998813v50.087899999999536h-7.765599999998813v-50.087899999999536Z"/><path class="uuid-14d6ae29-1819-4756-ac49-62eb5c5a2ff2" d="M491.956599999999526,646.626399999999194c-3.494599999999991,0-6.634299999999712-.615700000000288-9.415999999999258-1.843699999999444-2.783199999999852-1.229000000000269-5.129399999999805-2.976599999999962-7.037599999999657-5.242200000000594-1.909700000000157-2.264699999999721-3.365700000000288-5.014699999999721-4.368200000000797-8.251000000000204-1.003899999999703-3.235399999999572-1.504399999999805-6.859399999999368-1.504399999999805-10.872099999999591,0-4.011700000000019.500500000000102-7.635699999999815,1.504399999999805-10.872000000000298,1.002500000000509-3.235399999999572,2.45850000000064-5.985399999999572,4.368200000000797-8.251000000000204,1.908199999999852-2.264699999999721,4.254399999999805-4.011699999999109,7.037599999999657-5.242199999998775,2.781699999999546-1.228500000001077,5.921399999999267-1.843800000000556,9.415999999999258-1.843800000000556,4.98240000000078,0,8.979000000001179,1.083999999999833,11.988300000000891,3.251000000000204,3.009299999999712,2.169499999999971,5.257299999999304,5,6.74659999999858,8.494199999999182l-6.503899999999703,3.300700000000688c-.906799999998839-2.587800000000243-2.395099999999729-4.594700000000557-4.465399999999136-6.018500000000131-2.071799999999712-1.422900000000482-4.659200000000055-2.135800000000017-7.765600000000632-2.135800000000017-2.329599999999118,0-4.368199999998978.373099999999795-6.115699999998469,1.116300000000592-1.747100000000501.744599999999991-3.203100000000632,1.781199999999444-4.368200000000797,3.106399999998757-1.164500000000771,1.32720000000063-2.03859999999986,2.912100000000464-2.620600000000195,4.756400000000212-.582500000000437,1.84519999999975-.873999999999796,3.867600000000493-.873999999999796,6.066800000000512v8.541999999999462c0,4.402400000000853,1.180200000000696,8.00880000000052,3.543400000000474,10.823800000000119,2.361399999999776,2.815400000000409,5.839399999998932,4.222600000000966,10.435099999998783,4.222600000000966,6.276400000000649,0,10.806599999999889-2.911600000001272,13.58980000000156-8.736300000000483l5.63039999999819,3.785599999999249c-1.618199999998978,3.625-4.028299999998126,6.503900000000613-7.231899999998859,8.63970000000063-3.203100000000632,2.135199999999713-7.19970000000103,3.203099999999722-11.988300000000891,3.203099999999722Z"/><path class="uuid-14d6ae29-1819-4756-ac49-62eb5c5a2ff2" d="M537.191000000000713,646.626399999999194c-4.659700000000157,0-8.559100000000399-.89009999999962-11.697299999999814-2.668899999999667-3.139600000000428-1.779300000000148-5.840800000001764-4.158200000000761-8.105500000001484-7.134800000000723l5.533200000001671-4.465799999999945c1.941399999999703,2.459900000000744,4.108899999999267,4.352500000000873,6.503899999999703,5.67870000000039,2.393099999999322,1.327100000000428,5.176299999999173,1.990200000000186,8.348200000000361,1.990200000000186,3.30029999999897,0,5.872599999998783-.711900000000242,7.716799999998329-2.135699999999815,1.844700000001467-1.422900000000482,2.766600000000835-3.429699999999684,2.766600000000835-6.018600000000333,0-1.941399999999703-.630900000000111-3.606399999999667-1.892600000001039-4.998999999999796-1.262199999999211-1.390600000000632-3.543399999998655-2.344699999999648-6.843699999999444-2.863299999999981l-3.979999999999563-.582999999999629c-2.329599999999118-.323200000000725-4.465299999999843-.82470000000103-6.406800000000658-1.503900000000613-1.941399999999703-.680199999999786-3.640099999998711-1.585399999999936-5.096099999998842-2.718200000000252-1.456100000001243-1.131400000000212-2.588900000000649-2.539600000000064-3.397500000000946-4.223199999999451-.810099999998783-1.681600000000799-1.213400000000547-3.688500000000204-1.213400000000547-6.01760000000013,0-2.458999999999833.452199999999721-4.611300000000483,1.358900000001086-6.454999999999927.905799999998635-1.84479999999985,2.150899999998728-3.381900000000314,3.737299999998868-4.611399999999776,1.585000000000946-1.228500000000167,3.478000000000975-2.150900000000547,5.67870000000039-2.766600000000835,2.199200000000928-.614199999999983,4.5625-.921899999999368,7.08640000000014-.921899999999368,4.076700000001438,0,7.489300000001094.712400000000343,10.240799999999581,2.135299999999916,2.75,1.424300000000585,5.160100000000966,3.397500000000036,7.231900000000678,5.921400000000176l-5.145000000000437,4.659199999999146c-1.10109999999986-1.552799999999479-2.717800000000352-2.959999999999127-4.853499999999258-4.22269999999935-2.135299999999916-1.261700000000019-4.82129999999961-1.89260000000013-8.056700000001001-1.89260000000013-3.236799999998766,0-5.678699999998571.695799999999508-7.329099999999016,2.086900000000242-1.649900000000343,1.392100000000028-2.475099999999657,3.285200000000259-2.475099999999657,5.678799999999683,0,2.459899999999834.825199999999313,4.239199999999983,2.475099999999657,5.338800000000447,1.650400000000445,1.101599999999962,4.028800000000047,1.909199999999146,7.134799999999814,2.426800000000185l3.882799999999406.581999999999425c5.564900000001217.841800000000148,9.513200000001234,2.444300000000112,11.842800000000352,4.805199999999786,2.329599999999118,2.363300000000891,3.494599999999991,5.45260000000053,3.494599999999991,9.270500000000538,0,4.853499999999258-1.650400000000445,8.67239999999947-4.950699999999415,11.454600000000028-3.300300000000789,2.783199999999852-7.831000000000131,4.173799999999574-13.589799999999741,4.173799999999574Z"/><path class="uuid-14d6ae29-1819-4756-ac49-62eb5c5a2ff2" d="M124.447799999999916,763.111799999998766c-5.501000000000204,0-10.192399999999907-1.052799999999479-14.075199999999313-3.154299999999239-3.882799999999406-2.102600000000166-7.183600000000297-4.999499999999898-9.901400000000649-8.688500000000204l6.018600000001243-5.047900000000482c2.393099999999322,3.171900000001187,5.04739999999947,5.582100000000537,7.959499999999025,7.232500000000073,2.912099999999555,1.649900000000343,6.341800000000148,2.475100000000566,10.289999999999054,2.475100000000566,4.853500000001077,0,8.55710000000181-1.165100000000166,11.114300000001094-3.494700000000194,2.555599999999686-2.329999999999927,3.834399999999732-5.435999999999694,3.834399999999732-9.31880000000001,0-3.23490000000038-.970699999999852-5.727100000000064-2.912099999999555-7.474100000000362-1.941400000001522-1.748099999998885-5.145000000000437-3.138699999999517-9.609800000000178-4.174799999998868l-5.533199999999852-1.261800000000221c-6.212900000000445-1.422800000000279-10.954100000000835-3.574200000000928-14.221199999999953-6.454999999999927-3.268600000001243-2.878900000000613-4.901900000000751-6.940500000000611-4.901900000000751-12.182700000000295,0-2.975499999999556.548800000000483-5.629799999999705,1.649900000000343-7.95890000000054,1.100099999999657-2.33009999999922,2.636300000000119-4.271499999999833,4.610899999999674-5.824699999999211,1.973599999999351-1.55330000000049,4.334899999999834-2.733000000000175,7.08640000000014-3.543499999999767,2.75-.808600000000297,5.775900000000547-1.213400000000547,9.076199999999517-1.213400000000547,5.111300000000483,0,9.496100000000297.939000000000306,13.153299999999945,2.815399999999499,3.655300000000352,1.877500000000509,6.746100000000297,4.627500000000509,9.270000000000437,8.251000000000204l-6.115200000000186,4.465400000000045c-1.878000000000611-2.587899999999536-4.14259999999922-4.625999999999294-6.795000000000073-6.11580000000049-2.654300000000148-1.48779999999897-5.954999999999927-2.232899999999063-9.901299999999537-2.232899999999063-4.33640000000014,0-7.750500000000102.922899999999572-10.24120000000039,2.766599999999926-2.491699999998673,1.84479999999985-3.737300000000687,4.611399999999776-3.737300000000687,8.299799999999777,0,3.236800000000585,1.0512000000017,5.67870000000039,3.155200000001059,7.328599999999824,2.102100000000064,1.650399999999536,5.290100000000166,2.961500000000342,9.561600000000908,3.932200000000194l5.53269999999975,1.261700000000019c6.664499999998952,1.489199999999983,11.486300000000483,3.753900000000613,14.463399999998728,6.79489999999987,2.976000000000568,3.041999999999462,4.465300000001662,7.085900000000038,4.465300000001662,12.13379999999961,0,3.106400000000576-.533699999999953,5.920900000000984-1.601600000001781,8.445300000000316-1.067799999998897,2.52350000000024-2.605899999998655,4.659200000000055-4.610799999998562,6.406299999999646-2.006900000000314,1.7475000000004-4.450200000001132,3.106400000000576-7.328600000000733,4.077100000000428-2.880400000000009.970699999999852-6.132400000000416,1.456099999999424-9.755900000000111,1.456099999999424Z"/><path class="uuid-14d6ae29-1819-4756-ac49-62eb5c5a2ff2" d="M179.971700000000055,763.111799999998766c-3.365700000000288,0-6.439899999999398-.615799999999581-9.221600000000763-1.844299999998839-2.783199999999852-1.228000000000975-5.161699999998746-2.992600000000493-7.134799999999814-5.290500000000975-1.974599999999555-2.295899999999165-3.511199999999008-5.04739999999947-4.610899999999674-8.250999999999294-1.100999999998749-3.203099999999722-1.649900000000343-6.810500000000502-1.649900000000343-10.823199999999815,0-3.94630000000052.548900000001595-7.538099999999758,1.649900000000343-10.775400000000445,1.099700000000666-3.234399999999368,2.636300000000119-6.002000000000407,4.610899999999674-8.299300000000585,1.973100000001068-2.296399999999267,4.351599999999962-4.060099999998783,7.134799999999814-5.290599999999358,2.781700000001365-1.228500000000167,5.855900000000474-1.843700000000354,9.221600000000763-1.843700000000354,3.364300000001094,0,6.421899999999368.615200000000186,9.173399999999674,1.843700000000354,2.75,1.230500000000575,5.12840000000142,2.994200000000092,7.134700000000521,5.290599999999358,2.005400000000009,2.297300000000178,3.558600000000297,5.064900000001217,4.659700000000157,8.299300000000585,1.099599999999555,3.237300000000687,1.649900000000343,6.829099999999926,1.649900000000343,10.775400000000445,0,4.012699999999313-.550300000000789,7.620100000000093-1.649900000000343,10.823199999999815-1.10109999999986,3.203599999999824-2.654300000000148,5.95510000000013-4.659700000000157,8.250999999999294-2.006299999999101,2.297900000000482-4.384700000000521,4.0625-7.134700000000521,5.290500000000975-2.751500000000306,1.228499999999258-5.80909999999858,1.844299999998839-9.173399999999674,1.844299999998839ZM179.971700000000055,756.219699999999648c4.206099999999424,0,7.635299999999916-1.293499999999767,10.289600000000064-3.882800000000316,2.652799999999843-2.587399999999434,3.979999999999563-6.535699999999451,3.979999999999563-11.842299999999341v-7.183600000000297c0-5.305700000000797-1.327199999999721-9.253899999999703-3.979999999999563-11.842800000000352-2.654300000000148-2.587400000000343-6.08350000000064-3.882799999999406-10.289600000000064-3.882799999999406-4.207000000000335,0-7.636699999999109,1.295399999999063-10.289499999998952,3.882799999999406-2.654300000001967,2.588900000000649-3.980000000001382,6.537099999999555-3.980000000001382,11.842800000000352v7.183600000000297c0,5.306599999999889,1.325699999999415,9.254899999999907,3.980000000001382,11.842299999999341,2.652799999999843,2.589300000000549,6.082499999998618,3.882800000000316,10.289499999998952,3.882800000000316Z"/><path class="uuid-14d6ae29-1819-4756-ac49-62eb5c5a2ff2" d="M234.040100000000166,763.111799999998766c-3.494099999999889,0-6.63379999999961-.615799999999581-9.415499999999156-1.844299999998839-2.783200000001671-1.228000000000975-5.129899999999907-2.976000000000568-7.037600000001476-5.241700000000492-1.909699999998338-2.264600000000428-3.365799999999581-5.014600000000428-4.368199999998978-8.250900000000001-1.004399999999805-3.235400000000482-1.504899999999907-6.859400000000278-1.504899999999907-10.872099999999591,0-4.011700000000928.500500000000102-7.635800000000017,1.504899999999907-10.872100000000501,1.002399999999398-3.235300000000279,2.45850000000064-5.985300000000279,4.368199999998978-8.251000000000204,1.907700000001569-2.264599999999518,4.254399999999805-4.011699999999109,7.037600000001476-5.242199999999684,2.781699999999546-1.228500000000167,5.921399999999267-1.843700000000354,9.415499999999156-1.843700000000354,4.98240000000078,0,8.97899999999936,1.084000000000742,11.988799999999173,3.251500000000306,3.008800000001429,2.169400000000678,5.256800000001022,4.999499999999898,6.746100000000297,8.493599999999788l-6.503499999998894,3.300800000000891c-.907200000001467-2.587900000000445-2.395500000000538-4.594700000000557-4.465800000001764-6.018600000001243-2.07129999999961-1.42279999999937-4.659199999998236-2.135699999998906-7.765599999998813-2.135699999998906-2.329099999999016,0-4.368200000000797.372999999999593-6.115200000000186,1.11619999999948-1.747100000000501.745100000000093-3.203199999999924,1.780799999999545-4.368200000000797,3.106499999999869-1.164999999999054,1.327099999999518-2.03859999999986,2.912100000000464-2.621099999998478,4.75630000000001-.582000000000335,1.844699999999648-.873499999999694,3.867700000000696-.873499999999694,6.066899999999805v8.542999999999665c0,4.401300000001356,1.180099999999584,8.007800000001225,3.542899999998554,10.823200000000725,2.361899999999878,2.815000000000509,5.839400000000751,4.222200000000157,10.435100000000602,4.222200000000157,6.27639999999883,0,10.806599999999889-2.912099999999555,13.589799999999741-8.736399999999776l5.630400000000009,3.785699999999451c-1.618200000000797,3.625-4.028299999999945,6.503900000000613-7.231400000000576,8.639599999999518-3.203599999998914,2.135300000000825-7.200199999999313,3.203199999999924-11.988799999999173,3.203199999999924Z"/><path class="uuid-14d6ae29-1819-4756-ac49-62eb5c5a2ff2" d="M268.111399999999776,700.112699999999677c-1.683600000000297,0-2.896999999999025-.403299999999945-3.640199999999822-1.212800000000243-.744599999999991-.809099999999489-1.11620000000039-1.85990000000038-1.11620000000039-3.155299999999443v-1.261700000000928c0-1.293999999999869.371600000000399-2.345299999999042,1.11620000000039-3.155299999999443.743200000000797-.808600000000297,1.956599999999526-1.212899999999536,3.640199999999822-1.212899999999536,1.682099999999991,0,2.895500000000538.404299999999239,3.64010000000053,1.212899999999536.743200000000797.8100000000004,1.11620000000039,1.861299999999574,1.11620000000039,3.155299999999443v1.261700000000928c0,1.295399999999063-.372999999999593,2.346199999999953-1.11620000000039,3.155299999999443-.744599999999991.809500000000298-1.958000000000538,1.212800000000243-3.64010000000053,1.212800000000243ZM264.22860000000037,711.858299999999872h7.765599999998813v50.088399999999638h-7.765599999998813v-50.088399999999638Z"/><path class="uuid-14d6ae29-1819-4756-ac49-62eb5c5a2ff2" d="M307.328199999999924,763.111799999998766c-3.430699999998978,0-6.520500000000538-.615799999999581-9.270500000000538-1.844299999998839-2.751000000000204-1.228000000000975-5.11279999999897-2.992600000000493-7.085999999999331-5.290500000000975-1.975099999999657-2.295899999999165-3.494599999999991-5.04739999999947-4.5625-8.250999999999294-1.067800000000716-3.203099999999722-1.601500000000669-6.810500000000502-1.601500000000669-10.823199999999815,0-3.94630000000052.533699999999953-7.538099999999758,1.601500000000669-10.775400000000445,1.067900000000009-3.234399999999368,2.587400000000343-6.002000000000407,4.5625-8.299300000000585,1.973200000000361-2.296399999999267,4.334999999999127-4.060099999998783,7.085999999999331-5.290599999999358,2.75-1.228500000000167,5.83980000000156-1.843700000000354,9.270500000000538-1.843700000000354,3.364199999999983,0,6.372999999999593.612300000000687,9.027299999999741,1.837900000000445,2.653299999999945,1.225599999999758,4.917499999999563,2.91989999999987,6.79490000000078,5.079600000000028,1.876500000000306,2.159599999999955,3.315999999998894,4.723100000000159,4.319899999998597,7.689900000000307,1.002400000001217,2.966800000000148,1.504900000001726,6.223199999999451,1.504900000001726,9.769099999999526v3.677200000000084h-36.013700000001336v2.329099999999926c0,2.135800000000017.33980000000156,4.125500000000102,1.019500000000335,5.970200000000659.679200000000492,1.844299999998839,1.649900000000343,3.445799999999508,2.912099999999555,4.804699999998775,1.261700000000928,1.358900000001086,2.815000000000509,2.426800000001094,4.659200000001874,3.203600000000733,1.844199999999546.77639999999974,3.931599999999889,1.164600000000064,6.261199999999008,1.164600000000064,3.170000000000073,0,5.936599999999089-.743200000000797,8.299300000000585-2.23240000000078,2.361899999999878-1.48779999999897,4.189500000000407-3.623599999998987,5.48489999999947-6.406799999998839l5.533199999999852,4.005400000000009c-1.618599999999788,3.45259999999962-4.142600000001039,6.235799999999472-7.571799999999712,8.351599999999962-3.431099999999788,2.115699999999379-7.507799999999406,3.174299999998766-12.230900000000474,3.174299999998766ZM307.328199999999924,717.197199999999611c-2.135800000000017,0-4.077199999999721.370099999999184-5.824200000000928,1.110400000000482-1.747599999998783.740699999999379-3.251999999998588,1.785099999999147-4.513699999999517,3.135199999998804-1.262199999999211,1.349600000000464-2.249499999999898,2.942399999999907-2.960900000000038,4.774400000000242-.712900000000445,1.83350000000064-1.067900000000009,3.843300000000454-1.067900000000009,6.030300000000352v.674799999999777h27.665500000000975v-1.061499999999796c0-4.4375-1.213400000000547-7.989800000000287-3.64010000000053-10.659200000000055-2.426799999999275-2.668899999999667-5.646999999999025-4.004399999999805-9.658699999999953-4.004399999999805Z"/><path class="uuid-14d6ae29-1819-4756-ac49-62eb5c5a2ff2" d="M352.854100000000471,761.94669999999951c-2.717800000000352,0-4.773000000001048-.757800000000316-6.164099999999962-2.274400000000242-1.392100000000937-1.517100000000028-2.086900000000242-3.503899999999703-2.086900000000242-5.957999999999629v-34.963900000000649h-8.251000000000204v-6.892099999999118h4.659200000000055c1.682099999999991,0,2.830599999999322-.33980000000065,3.44629999999961-1.019500000000335.614199999999983-.679200000000492.921800000000076-1.858900000000176.921800000000076-3.542499999999563v-9.319300000001022h6.989300000001094v13.88130000000092h10.969199999999546v6.892099999999118h-10.969199999999546v36.304700000000594h10.192399999999907v6.891599999999926h-9.707000000000335Z"/><path class="uuid-14d6ae29-1819-4756-ac49-62eb5c5a2ff2" d="M406.728100000000268,711.858299999999872h7.668899999998757l-22.423299999998562,61.73739999999998c-.582500000000437,1.487699999999677-1.165100000000166,2.732899999999063-1.747600000000602,3.736799999999675-.582000000000335,1.002900000000409-1.294899999998961,1.796400000000176-2.135199999998804,2.378400000000511-.841800000001967.582499999999527-1.893100000001141,1.003399999999601-3.15480000000025,1.262199999999211-1.26220000000103.257800000000316-2.799800000000687.388200000000325-4.610800000000381.388200000000325h-3.980000000001382v-6.892100000000028h7.862800000000789l3.785600000001068-10.66110000000026-18.734900000001289-51.949799999999414h7.765699999999924l12.037099999999555,34.006400000000212,2.329600000000937,8.139199999999619h.485300000000279l2.717800000000352-8.139199999999619,12.13379999999961-34.006400000000212Z"/><path class="uuid-14d6ae29-1819-4756-ac49-62eb5c5a2ff2" d="M122.467810937499962,856.859853906249555l-2.416015625-7.67822265625h-10.6982421875l-2.3720703125,7.67822265625h-5.7802734375l10.09375-30.109375h7.07421875l10.0078125,30.109375h-5.9091796875ZM114.789099999999962,831.926748437499555h-.21484375l-3.83984375,12.38037109375h7.9375l-3.8828125-12.38037109375Z"/><path class="uuid-14d6ae29-1819-4756-ac49-62eb5c5a2ff2" d="M151.929724999999962,856.859853906249555l-2.416015625-7.67822265625h-10.6982421875l-2.3720703125,7.67822265625h-5.78125l10.0947265625-30.109375h7.07421875l10.0078125,30.109375h-5.9091796875ZM144.250037499999962,831.926748437499555h-.21484375l-3.83984375,12.38037109375h7.9375l-3.8828125-12.38037109375Z"/></g></svg>