<?xml version="1.0" encoding="UTF-8"?><svg id="uuid-60d6cb6a-ca76-410f-aa22-32417c0b2512" xmlns="http://www.w3.org/2000/svg" width="223.376555865537568mm" height="389.032920546200728mm" xmlns:xlink="http://www.w3.org/1999/xlink" viewBox="0 0 633.193396215071516 1102.770500000000538"><defs><style>.uuid-de03eb64-5910-4201-b930-ce13d3713070{fill:#fff;}.uuid-3b79fcbd-93ef-44cc-96e1-7f0be1602ed5{fill:none;}.uuid-d32c3887-ad10-498b-8cbd-a4830f149e42{fill:#333e48;}.uuid-036b42ad-6af2-4ebd-a68b-27c2d21bffbe{clip-path:url(#uuid-05a10b52-8767-446b-a19a-1fc3116ebce6);}</style><clipPath id="uuid-05a10b52-8767-446b-a19a-1fc3116ebce6"><rect class="uuid-3b79fcbd-93ef-44cc-96e1-7f0be1602ed5" width="633.193396215071516" height="1102.770500000000538"/></clipPath></defs><g class="uuid-036b42ad-6af2-4ebd-a68b-27c2d21bffbe"><path class="uuid-de03eb64-5910-4201-b930-ce13d3713070" d="M79.220699999999852,135.786200000000463c-4.551699999999983,10.763599999998405-7.25880000000052,22.072199999998702-8.083999999999833,33.710900000000038,1.793999999999869-1.460000000000946,4.079099999999926-2.338900000000649,6.567399999999907-2.338900000000649,2.748099999999795,0,5.244200000000092,1.076199999999517,7.108400000000074,2.818400000000111,3.668999999999869-47.795900000000984,43.611299999999574-85.434600000000501,92.348599999999351-85.434600000000501,3.775400000000445,0,6.837000000000444-3.061499999999796,6.837000000000444-6.836899999998423,0-3.776400000000649-3.061599999999999-6.837900000000445-6.837000000000444-6.837900000000445-14.344699999999648,0-28.267499999999927,2.8125-41.382799999999406,8.359399999999368-12.658199999999852,5.354499999999462-24.024400000000242,13.015600000000632-33.782200000000557,22.774400000000242-9.75879999999961,9.757799999999406-17.421899999999368,21.125-22.775399999999536,33.785200000000259Z"/><path class="uuid-de03eb64-5910-4201-b930-ce13d3713070" d="M169.590799999999945,269.480499999999665c-47.476500000000669-3.840799999999945-84.833999999999833-43.480499999999665-85.048800000000483-91.895499999998719,0-3.776400000000649-3.059599999999591-6.838900000000649-6.837899999999536-6.838900000000649-3.775400000000445,0-6.836900000000242,3.0625-6.836900000000242,6.838900000000649.054699999999684,14.19629999999961,2.861299999999574,27.975599999999758,8.353500000000167,40.961899999998423,5.353500000000167,12.659200000000055,13.016599999999926,24.026400000000649,22.775399999999536,33.784200000000055,9.757800000000316,9.758800000001429,21.124000000000706,17.420900000000984,33.782200000000557,22.775400000000445,10.628899999999703,4.494099999999889,21.787099999999555,7.192399999999907,33.269599999999627,8.054700000000594-1.443400000000111-1.789099999999962-2.313500000000204-4.060600000000704-2.313500000000204-6.533199999999852,0-2.766600000000835,1.091800000000148-5.278400000001056,2.856400000000576-7.147500000000946Z"/><path class="uuid-de03eb64-5910-4201-b930-ce13d3713070" d="M251.25879999999961,243.702199999999721c-1.335000000000036-1.334999999999127-3.085000000000036-2.002000000000407-4.833999999999833-2.002000000000407s-3.5.667000000001281-4.835900000000038,2.002000000000407c-16.670900000000074,16.145500000000538-39.386700000000019,26.088900000000649-64.427800000000389,26.088900000000649-3.777299999999741,0-6.837799999999334,3.061499999999796-6.837799999999334,6.836900000000242,0,3.776299999999537,3.060499999999593,6.837900000000445,6.837799999999334,6.837900000000445,14.343800000000556,0,28.266599999999926-2.8125,41.379899999999907-8.359400000001187,12.204100000000835-5.160200000000259,23.200200000000223-12.473599999999351,32.717800000000352-21.733400000000984,2.671900000000278-2.670899999999165,2.671900000000278-7,0-9.670899999999165Z"/><path class="uuid-de03eb64-5910-4201-b930-ce13d3713070" d="M177.161099999999351,283.465900000001056c-3.777299999999741,0-6.837799999999334-3.061600000000908-6.837799999999334-6.837900000000445,0-3.775400000000445,3.060499999999593-6.836900000000242,6.837799999999334-6.836900000000242,25.04110000000037,0,47.756900000000314-9.943400000000111,64.427800000000389-26.088900000000649,1.335900000000038-1.334999999999127,3.086900000000242-2.002000000000407,4.835900000000038-2.002000000000407s3.498999999999796.667000000001281,4.833999999999833,2.002000000000407c2.671900000000278,2.670899999999165,2.671900000000278,7,0,9.670899999999165-9.51760000000013,9.259800000001633-20.513699999999517,16.573200000000725-32.717800000000352,21.733400000000984-13.113299999999981,5.546900000001187-27.036099999999351,8.359400000001187-41.379899999999907,8.359400000001187ZM135.778299999999945,275.106499999999869c-12.658199999999852-5.354499999999462-24.024400000000242-13.016599999999016-33.782200000000557-22.775400000000445-9.75879999999961-9.757799999999406-17.421899999999368-21.125-22.775399999999536-33.784200000000055-5.492200000000594-12.986299999998664-8.298800000000483-26.765599999998813-8.353500000000167-40.961899999998423,0-3.776400000000649,3.061499999999796-6.838900000000649,6.836900000000242-6.838900000000649,3.778299999999945,0,6.837899999999536,3.0625,6.837899999999536,6.838900000000649.21480000000065,48.414999999999054,37.572299999999814,88.054699999998775,85.048800000000483,91.895499999998719-1.764600000000428,1.869099999999889-2.856400000000576,4.380900000000111-2.856400000000576,7.147500000000946,0,2.472599999999147.870100000000093,4.744099999999889,2.313500000000204,6.533199999999852-11.482500000000073-.862300000000687-22.640699999999924-3.560600000000704-33.269599999999627-8.054700000000594ZM177.161099999999351,70.867200000000594c3.775400000000445,0,6.837000000000444,3.061499999999796,6.837000000000444,6.837900000000445,0,3.775399999998626-3.061599999999999,6.836899999998423-6.837000000000444,6.836899999998423-48.737299999999777,0-88.679599999999482,37.638699999999517-92.348599999999351,85.434600000000501-1.864199999999983-1.742200000000594-4.360300000000279-2.818400000000111-7.108400000000074-2.818400000000111-2.488299999999981,0-4.773400000000038.878899999999703-6.567399999999907,2.338900000000649.825199999999313-11.638700000001336,3.53229999999985-22.947300000001633,8.083999999999833-33.710900000000038,5.353500000000167-12.660200000000259,13.016599999999926-24.027400000000853,22.775399999999536-33.785200000000259,9.757800000000316-9.75879999999961,21.124000000000706-17.41990000000078,33.782200000000557-22.774400000000242,13.115299999999479-5.546899999999368,27.038099999999758-8.359399999999368,41.382799999999406-8.359399999999368Z"/><path class="uuid-de03eb64-5910-4201-b930-ce13d3713070" d="M233.452199999999721,120.875c-15.035200000000259-15.036099999999351-35.02639999999974-23.315399999999499-56.29110000000037-23.315399999999499-21.263599999999315,0-41.255799999999908,8.279300000000148-56.290999999999258,23.315399999999499-15.035100000000057,15.036200000000463-23.317400000000816,35.028400000001056-23.317400000000816,56.291999999999462,0,21.263699999999517,8.28230000000076,41.253899999999703,23.317400000000816,56.291000000001077,15.03519999999935,15.03519999999844,35.027399999999943,23.316499999998996,56.290999999999258,23.316499999998996,21.26470000000063,0,41.255900000000111-8.281300000000556,56.29110000000037-23.316499999998996,15.03610000000026-15.037100000001374,23.315400000000409-35.02730000000156,23.315400000000409-56.291000000001077,0-21.263599999998405-8.279300000000148-41.255799999998999-23.315400000000409-56.291999999999462Z"/><path class="uuid-d32c3887-ad10-498b-8cbd-a4830f149e42" d="M121.056700000000092,202.911200000000463v-51.488300000000891h11.166899999999259v3.806599999999889h-6.472600000000057v43.875h6.472600000000057v3.806700000001001h-11.166899999999259Z"/><path class="uuid-d32c3887-ad10-498b-8cbd-a4830f149e42" d="M233.264699999999721,151.422899999999572v51.488300000000891h-11.164099999999962v-3.806700000001001h6.468700000000354v-43.875h-6.468700000000354v-3.806599999999889h11.164099999999962Z"/><path class="uuid-d32c3887-ad10-498b-8cbd-a4830f149e42" d="M146.99119999999948,187.626000000000204c0,1.029300000000148.016599999999926,2.242199999998775.048899999999776,3.635800000000017.031200000000354,1.394500000000335.074200000000019,2.8125.128900000000613,4.248999999999796.052700000000186,1.436499999999796.117099999999482,2.809600000000501.193299999999908,4.118099999999686.074200000000019,1.309600000000501.166000000000167,2.403400000001056.27350000000024,3.28230000000076h-6.597700000000259v-36.365300000001298c0-3.131799999999203-.052700000000186-5.968699999999444-.160200000000259-8.509699999998702-.10739999999987-2.543999999999869-.267499999999927-4.748100000000704-.484300000000076-6.613300000000891h6.597600000000057v36.203100000000632Z"/><path class="uuid-d32c3887-ad10-498b-8cbd-a4830f149e42" d="M175.793999999999869,170.086999999999534v4.216700000000856h-6.049799999999777v24.391700000000128h6.049799999999777v4.215799999999945h-18.020599999999831v-4.215799999999945h5.953199999999924v-24.391700000000128h-5.953199999999924v-4.216700000000856h18.020599999999831Z"/><path class="uuid-d32c3887-ad10-498b-8cbd-a4830f149e42" d="M189.311499999999796,170.086999999999534c.126999999999498.343699999999444.255900000000111.788000000000466.384799999999814,1.336900000000242.130900000000111.545900000000984.246100000000297,1.119099999999889.355499999999665,1.719699999999648.105400000000373.600599999999758.201100000000224,1.191400000001522.289000000000669,1.770500000000538l.255900000000111,1.447299999999814c2.060499999999593-2.445299999999406,4.129899999999907-4.208999999998923,6.210900000000038-5.292999999999665,2.082099999999627-1.083000000000538,4.25-1.626000000000204,6.501999999999498-1.626000000000204,1.716800000000148,0,3.234400000000278.285200000000259,4.552700000000186.853499999999258,1.320300000000316.569400000000314,2.429699999999684,1.470700000001671,3.332000000000335,2.703199999999924.900399999999536,1.234300000000076,1.58009999999922,2.833000000000538,2.042999999999665,4.795900000000984.46100000000024,1.962900000000445.691399999999703,4.327100000000428.691399999999703,7.096600000000763v14.478599999998551c0,3.626900000001115-.316399999999703,6.636700000000928-.949200000000019,9.02730000000156-.632799999999406,2.393599999999424-1.519499999999425,4.302699999998367-2.654300000000148,5.730499999999665-1.136700000000019,1.424799999998868-2.505899999999201,2.434499999999389-4.103499999999258,3.023400000000038-1.59860000000026.590799999999945-3.374000000000706.885699999998906-5.326200000000426.885699999998906-.964799999999741,0-2-.156199999999444-3.105400000000373-.466699999999037-1.104499999999462-.3125-2.107499999999163-.745200000001205-3.00879999999961-1.303799999999683l2.091800000000148-4.827100000000428c.493099999999686.365200000000186,1.153299999999945.669899999998961,1.979499999999462.917999999999665.82510000000002.246100000000297,1.667900000000373.369099999999889,2.524400000000242.369099999999889,1.031200000000354,0,1.954099999999926-.165999999999258,2.770500000000538-.497999999999593.814399999999296-.333099999999831,1.505799999999908-.917000000001281,2.074200000000019-1.754000000000815.568399999999201-.836900000000242,1.002899999999499-1.984300000000076,1.30369999999948-3.443299999998999.299799999999777-1.460000000000946.450200000000223-3.315399999999499.450200000000223-5.567399999999907v-14.160200000000259c0-2.574200000000928-.13380000000052-4.661099999999351-.402299999999741-6.258700000000317-.26760000000013-1.598700000000463-.671900000000278-2.843800000000556-1.207100000000537-3.733400000000984-.536099999999351-.889699999999721-1.206999999999425-1.485399999999572-2.012700000000223-1.787099999999555-.802699999999277-.298899999999776-1.74119999999948-.449300000000221-2.814399999999296-.449300000000221-1.158200000001671,0-2.289099999999962.27350000000115-3.393600000000333.821300000001429-1.105400000000373.545899999999165-2.121100000000297,1.254899999999907-3.043899999999667,2.123099999998885-.921900000000278.868099999999686-1.737300000000687,1.849599999999555-2.444400000000314,2.944300000001022-.707000000000335,1.094699999999648-1.234300000000076,2.1875-1.578099999999722,3.282199999999648v18.665100000000166h-5.953100000000632v-19.791000000001077c0-3.174799999998868-.181699999999182-5.862299999998868-.546899999999368-8.061599999999089-.363299999999981-2.199200000000928-.718700000000354-3.856400000000576-1.0625-4.971600000000763h5.79489999999987Z"/><rect class="uuid-3b79fcbd-93ef-44cc-96e1-7f0be1602ed5" x="100.301282031249684" y="1006.509803124999962" width="368.1259765625" height="46.6611328125"/><path class="uuid-de03eb64-5910-4201-b930-ce13d3713070" d="M122.019055468749684,1015.954139062499962l-2.9404296875,3.4033203125c-2.05859375-1.6806640625-4.07470703125-2.4365234375-6.42724609375-2.4365234375-2.5205078125,0-4.24267578125,1.091796875-4.24267578125,3.150390625,0,2.0166015625,1.09228515625,2.8564453125,5.8388671875,4.326171875,5.2509765625,1.6806640625,8.61181640625,3.865234375,8.61181640625,9.2421875,0,5.3349609375-4.20068359375,9.0732421875-11.25830078125,9.0732421875-4.83056640625,0-8.359375-1.7216796875-10.75390625-4.07421875l3.19287109375-3.4873046875c2.10009765625,1.806640625,4.41064453125,2.8994140625,7.39306640625,2.8994140625,2.98291015625,0,4.9990234375-1.4287109375,4.9990234375-3.9912109375,0-2.310546875-1.13427734375-3.318359375-5.544921875-4.6630859375-6.30126953125-1.9736328125-8.82177734375-4.494140625-8.82177734375-8.9052734375,0-4.95703125,4.28515625-8.19140625,10.166015625-8.19140625,4.32666015625,0,7.26708984375,1.3017578125,9.78759765625,3.654296875Z"/><path class="uuid-de03eb64-5910-4201-b930-ce13d3713070" d="M145.664563281249684,1032.715857812499962h-13.904296875c.419921875,4.2841796875,2.4365234375,5.544921875,5.29296875,5.544921875,1.89013671875,0,3.486328125-.5888671875,5.4189453125-1.9326171875l2.478515625,3.3603515625c-2.1845703125,1.7646484375-4.95703125,3.0244140625-8.44384765625,3.0244140625-7.14111328125,0-10.8798828125-4.705078125-10.8798828125-11.677734375,0-6.7216796875,3.61279296875-11.9306640625,10.1240234375-11.9306640625,6.30078125,0,10.03955078125,4.201171875,10.03955078125,11.30078125,0,.755859375-.083984375,1.6796875-.1259765625,2.310546875ZM139.867688281249684,1028.724646874999962c0-3.3603515625-1.13427734375-5.544921875-3.99072265625-5.544921875-2.3525390625,0-3.78076171875,1.5546875-4.11669921875,5.796875h8.107421875v-.251953125Z"/><path class="uuid-de03eb64-5910-4201-b930-ce13d3713070" d="M165.655774218749684,1021.793006249999962l-2.2685546875,3.4033203125c-1.80615234375-1.134765625-3.61279296875-1.7646484375-5.544921875-1.7646484375-1.974609375,0-3.06640625.7978515625-3.06640625,2.0166015625,0,1.3017578125.755859375,1.890625,4.66259765625,3.0244140625,4.45263671875,1.2177734375,6.97314453125,3.06640625,6.97314453125,7.015625,0,4.6201171875-4.32666015625,7.224609375-9.61962890625,7.224609375-3.86474609375,0-6.97314453125-1.3017578125-9.07373046875-3.234375l2.94091796875-3.2763671875c1.68017578125,1.3017578125,3.73828125,2.1845703125,5.96484375,2.1845703125s3.65478515625-.9248046875,3.65478515625-2.4365234375c0-1.6806640625-.79833984375-2.2265625-4.9150390625-3.361328125-4.49462890625-1.259765625-6.59521484375-3.486328125-6.59521484375-6.8466796875,0-3.7802734375,3.44482421875-6.6376953125,8.82177734375-6.6376953125,3.234375,0,5.96484375,1.0087890625,8.0654296875,2.6884765625Z"/><path class="uuid-de03eb64-5910-4201-b930-ce13d3713070" d="M185.773449999999684,1021.793006249999962l-2.2685546875,3.4033203125c-1.80615234375-1.134765625-3.61279296875-1.7646484375-5.544921875-1.7646484375-1.974609375,0-3.06640625.7978515625-3.06640625,2.0166015625,0,1.3017578125.755859375,1.890625,4.66259765625,3.0244140625,4.45263671875,1.2177734375,6.97314453125,3.06640625,6.97314453125,7.015625,0,4.6201171875-4.32666015625,7.224609375-9.61962890625,7.224609375-3.86474609375,0-6.97314453125-1.3017578125-9.07373046875-3.234375l2.94091796875-3.2763671875c1.68017578125,1.3017578125,3.73828125,2.1845703125,5.96484375,2.1845703125s3.65478515625-.9248046875,3.65478515625-2.4365234375c0-1.6806640625-.79833984375-2.2265625-4.9150390625-3.361328125-4.49462890625-1.259765625-6.59521484375-3.486328125-6.59521484375-6.8466796875,0-3.7802734375,3.44482421875-6.6376953125,8.82177734375-6.6376953125,3.234375,0,5.96484375,1.0087890625,8.0654296875,2.6884765625Z"/><path class="uuid-de03eb64-5910-4201-b930-ce13d3713070" d="M197.027356249999684,1011.795935937499962c0,1.9736328125-1.51220703125,3.486328125-3.65478515625,3.486328125-2.14208984375,0-3.6123046875-1.5126953125-3.6123046875-3.486328125,0-1.974609375,1.47021484375-3.4873046875,3.6123046875-3.4873046875,2.142578125,0,3.65478515625,1.5126953125,3.65478515625,3.4873046875ZM196.397473437499684,1042.041053124999962h-5.96533203125v-22.263671875h5.96533203125v22.263671875Z"/><path class="uuid-de03eb64-5910-4201-b930-ce13d3713070" d="M222.271496874999684,1030.909217187499962c0,7.056640625-3.99072265625,11.8037109375-10.669921875,11.8037109375-6.63720703125,0-10.669921875-4.41015625-10.669921875-11.8037109375,0-7.099609375,3.99072265625-11.8046875,10.7119140625-11.8046875,6.63720703125,0,10.6279296875,4.4111328125,10.6279296875,11.8046875ZM207.148938281249684,1030.909217187499962c0,5.125,1.51220703125,7.3515625,4.45263671875,7.3515625s4.45263671875-2.2685546875,4.45263671875-7.3515625c0-5.125-1.51220703125-7.3515625-4.41064453125-7.3515625-2.982421875,0-4.49462890625,2.2685546875-4.49462890625,7.3515625Z"/><path class="uuid-de03eb64-5910-4201-b930-ce13d3713070" d="M245.455090624999684,1025.826209374999962v16.21484375h-5.96484375v-15.20703125c0-2.5625-.92431640625-3.2763671875-2.4365234375-3.2763671875-1.72216796875,0-3.06640625,1.134765625-4.28466796875,3.1083984375v15.375h-5.96533203125v-22.263671875h5.1669921875l.4619140625,2.814453125c1.806640625-2.2265625,3.99072265625-3.4873046875,6.80517578125-3.4873046875,3.90673828125,0,6.21728515625,2.5205078125,6.21728515625,6.7216796875Z"/><path class="uuid-de03eb64-5910-4201-b930-ce13d3713070" d="M279.096203906249684,1020.617224999999962c0,4.62109375-2.8564453125,8.5693359375-12.09814453125,16.802734375h12.7705078125l-.63037109375,4.62109375h-18.9453125v-4.3271484375c10.0400390625-9.619140625,12.7705078125-12.8115234375,12.7705078125-16.5927734375,0-2.5625-1.55419921875-4.2001953125-4.20068359375-4.2001953125-2.310546875,0-3.82275390625.923828125-5.544921875,2.982421875l-3.69677734375-2.8984375c2.310546875-2.982421875,5.376953125-4.705078125,9.82958984375-4.705078125,6.42724609375,0,9.74560546875,3.7802734375,9.74560546875,8.3173828125Z"/><path class="uuid-de03eb64-5910-4201-b930-ce13d3713070" d="M303.918469531249684,1027.464881249999962c0,9.9130859375-3.5703125,15.248046875-10.20751953125,15.248046875s-10.2080078125-5.3349609375-10.2080078125-15.248046875c0-9.9140625,3.57080078125-15.1650390625,10.2080078125-15.1650390625s10.20751953125,5.2509765625,10.20751953125,15.1650390625ZM289.636242968749684,1027.464881249999962c0,8.1494140625,1.30224609375,10.75390625,4.07470703125,10.75390625,2.73046875,0,4.07470703125-2.478515625,4.07470703125-10.75390625s-1.34423828125-10.7119140625-4.07470703125-10.7119140625c-2.7724609375,0-4.07470703125,2.6044921875-4.07470703125,10.7119140625Z"/><path class="uuid-de03eb64-5910-4201-b930-ce13d3713070" d="M326.136242968749684,1020.617224999999962c0,4.62109375-2.8564453125,8.5693359375-12.09814453125,16.802734375h12.7705078125l-.63037109375,4.62109375h-18.9453125v-4.3271484375c10.0400390625-9.619140625,12.7705078125-12.8115234375,12.7705078125-16.5927734375,0-2.5625-1.55419921875-4.2001953125-4.20068359375-4.2001953125-2.310546875,0-3.82275390625.923828125-5.544921875,2.982421875l-3.69677734375-2.8984375c2.310546875-2.982421875,5.376953125-4.705078125,9.82958984375-4.705078125,6.42724609375,0,9.74560546875,3.7802734375,9.74560546875,8.3173828125Z"/><path class="uuid-de03eb64-5910-4201-b930-ce13d3713070" d="M350.958508593749684,1027.464881249999962c0,9.9130859375-3.5703125,15.248046875-10.20751953125,15.248046875s-10.2080078125-5.3349609375-10.2080078125-15.248046875c0-9.9140625,3.57080078125-15.1650390625,10.2080078125-15.1650390625s10.20751953125,5.2509765625,10.20751953125,15.1650390625ZM336.676282031249684,1027.464881249999962c0,8.1494140625,1.30224609375,10.75390625,4.07470703125,10.75390625,2.73046875,0,4.07470703125-2.478515625,4.07470703125-10.75390625s-1.34423828125-10.7119140625-4.07470703125-10.7119140625c-2.7724609375,0-4.07470703125,2.6044921875-4.07470703125,10.7119140625Z"/><path class="uuid-de03eb64-5910-4201-b930-ce13d3713070" d="M353.517102343749684,1026.540076562499962h19.82763671875v4.705078125h-19.82763671875v-4.705078125Z"/><path class="uuid-de03eb64-5910-4201-b930-ce13d3713070" d="M395.015637499999684,1020.617224999999962c0,4.62109375-2.8564453125,8.5693359375-12.09814453125,16.802734375h12.7705078125l-.63037109375,4.62109375h-18.9453125v-4.3271484375c10.0400390625-9.619140625,12.7705078125-12.8115234375,12.7705078125-16.5927734375,0-2.5625-1.55419921875-4.2001953125-4.20068359375-4.2001953125-2.310546875,0-3.82275390625.923828125-5.544921875,2.982421875l-3.69677734375-2.8984375c2.310546875-2.982421875,5.376953125-4.705078125,9.82958984375-4.705078125,6.42724609375,0,9.74560546875,3.7802734375,9.74560546875,8.3173828125Z"/><path class="uuid-de03eb64-5910-4201-b930-ce13d3713070" d="M419.837903124999684,1027.464881249999962c0,9.9130859375-3.5703125,15.248046875-10.20751953125,15.248046875s-10.2080078125-5.3349609375-10.2080078125-15.248046875c0-9.9140625,3.57080078125-15.1650390625,10.2080078125-15.1650390625s10.20751953125,5.2509765625,10.20751953125,15.1650390625ZM405.555676562499684,1027.464881249999962c0,8.1494140625,1.30224609375,10.75390625,4.07470703125,10.75390625,2.73046875,0,4.07470703125-2.478515625,4.07470703125-10.75390625s-1.34423828125-10.7119140625-4.07470703125-10.7119140625c-2.7724609375,0-4.07470703125,2.6044921875-4.07470703125,10.7119140625Z"/><path class="uuid-de03eb64-5910-4201-b930-ce13d3713070" d="M442.055676562499684,1020.617224999999962c0,4.62109375-2.8564453125,8.5693359375-12.09814453125,16.802734375h12.7705078125l-.63037109375,4.62109375h-18.9453125v-4.3271484375c10.0400390625-9.619140625,12.7705078125-12.8115234375,12.7705078125-16.5927734375,0-2.5625-1.55419921875-4.2001953125-4.20068359375-4.2001953125-2.310546875,0-3.82275390625.923828125-5.544921875,2.982421875l-3.69677734375-2.8984375c2.310546875-2.982421875,5.376953125-4.705078125,9.82958984375-4.705078125,6.42724609375,0,9.74560546875,3.7802734375,9.74560546875,8.3173828125Z"/><path class="uuid-de03eb64-5910-4201-b930-ce13d3713070" d="M467.045910937499684,1037.461951562499962v4.5791015625h-18.27294921875v-4.5791015625h6.80517578125v-18.5673828125l-6.21728515625,3.7392578125-2.5625-3.9912109375,9.36767578125-5.6708984375h5.2509765625v24.490234375h5.62890625Z"/><rect class="uuid-3b79fcbd-93ef-44cc-96e1-7f0be1602ed5" x="100.301770312499684" y="945.694373437499962" width="462" height="46.3251953125"/><path class="uuid-de03eb64-5910-4201-b930-ce13d3713070" d="M140.041028124999684,977.781287499999962v4.537109375h-37.38671875v-4.537109375h37.38671875ZM136.511731249999684,953.123084374999962v4.3271484375h-30.3291015625v-4.3271484375h30.3291015625Z"/><path class="uuid-de03eb64-5910-4201-b930-ce13d3713070" d="M161.289074999999684,953.626990624999962v-1.974609375h-13.484375v-2.8984375h30.91796875v2.8984375h-13.5263671875v1.974609375h16.298828125v7.5615234375h-3.7392578125v-4.95703125h-12.5595703125v6.6376953125h-1.1767578125l2.6884765625,1.3017578125-.8818359375.671875c3.9482421875,1.974609375,10.921875,3.94921875,17.2646484375,4.7890625-.7978515625.755859375-1.8486328125,2.2685546875-2.3525390625,3.1923828125-2.8984375-.50390625-5.880859375-1.3017578125-8.6953125-2.267578125v1.51171875h-17.474609375v-1.5966796875c-2.6044921875,1.0087890625-5.2509765625,1.8486328125-7.6875,2.5625-.7568359375-.7978515625-2.1845703125-2.1416015625-3.1083984375-2.7724609375,6.888671875-1.51171875,14.408203125-4.158203125,18.9453125-7.392578125h-1.4287109375v-6.6376953125h-12.5185546875v4.95703125h-3.5703125v-7.5615234375h16.0888671875ZM151.291028124999684,956.567420312499962c2.6044921875.419921875,6.2177734375,1.302734375,8.1494140625,1.974609375l-.9658203125,2.1005859375,1.0498046875-.251953125.294921875,2.3525390625c-3.5712890625,1.0078125-7.099609375,1.9736328125-10.1240234375,2.814453125l-1.0927734375-2.8564453125c2.478515625-.4208984375,5.83984375-1.21875,9.41015625-1.974609375-1.974609375-.7138671875-5.29296875-1.5966796875-7.8134765625-2.1005859375l1.091796875-2.05859375ZM173.050793749999684,973.749060937499962l.5888671875-.2099609375,2.5205078125,1.595703125c-1.974609375,2.6044921875-5.208984375,5.125-8.2333984375,7.015625l3.4443359375,1.51171875-1.72265625,2.814453125c-3.2763671875-1.6796875-9.87109375-4.4521484375-14.66015625-6.2587890625l1.6796875-2.39453125c2.142578125.755859375,4.7890625,1.7646484375,7.3095703125,2.73046875,1.974609375-.9658203125,4.2431640625-2.39453125,6.0068359375-3.822265625h-20.9189453125v-2.982421875h23.9853515625ZM169.606457812499684,969.631873437499962c-2.5205078125-1.0078125-4.7470703125-2.1005859375-6.46875-3.1083984375-1.974609375,1.1337890625-4.1591796875,2.1845703125-6.427734375,3.1083984375h12.896484375ZM167.589856249999684,960.138709374999962l.4208984375.083984375-1.05078125-1.5966796875c2.39453125-.3779296875,5.96484375-1.5126953125,8.0234375-2.1845703125l1.5966796875,2.142578125c-2.1845703125.83984375-5.1669921875,1.470703125-7.51953125,1.890625,3.1083984375.671875,6.7626953125,1.7216796875,8.86328125,2.5205078125l-.9658203125,2.478515625c-2.39453125-1.0087890625-6.931640625-2.3525390625-10.3759765625-3.193359375l1.0078125-2.1416015625Z"/><path class="uuid-de03eb64-5910-4201-b930-ce13d3713070" d="M224.041028124999684,977.781287499999962v4.537109375h-37.38671875v-4.537109375h37.38671875ZM220.511731249999684,953.123084374999962v4.3271484375h-30.3291015625v-4.3271484375h30.3291015625Z"/><path class="uuid-de03eb64-5910-4201-b930-ce13d3713070" d="M245.289074999999684,953.626990624999962v-1.974609375h-13.484375v-2.8984375h30.91796875v2.8984375h-13.5263671875v1.974609375h16.298828125v7.5615234375h-3.7392578125v-4.95703125h-12.5595703125v6.6376953125h-1.1767578125l2.6884765625,1.3017578125-.8818359375.671875c3.9482421875,1.974609375,10.921875,3.94921875,17.2646484375,4.7890625-.7978515625.755859375-1.8486328125,2.2685546875-2.3525390625,3.1923828125-2.8984375-.50390625-5.880859375-1.3017578125-8.6953125-2.267578125v1.51171875h-17.474609375v-1.5966796875c-2.6044921875,1.0087890625-5.2509765625,1.8486328125-7.6875,2.5625-.7568359375-.7978515625-2.1845703125-2.1416015625-3.1083984375-2.7724609375,6.888671875-1.51171875,14.408203125-4.158203125,18.9453125-7.392578125h-1.4287109375v-6.6376953125h-12.5185546875v4.95703125h-3.5703125v-7.5615234375h16.0888671875ZM235.291028124999684,956.567420312499962c2.6044921875.419921875,6.2177734375,1.302734375,8.1494140625,1.974609375l-.9658203125,2.1005859375,1.0498046875-.251953125.294921875,2.3525390625c-3.5712890625,1.0078125-7.099609375,1.9736328125-10.1240234375,2.814453125l-1.0927734375-2.8564453125c2.478515625-.4208984375,5.83984375-1.21875,9.41015625-1.974609375-1.974609375-.7138671875-5.29296875-1.5966796875-7.8134765625-2.1005859375l1.091796875-2.05859375ZM257.050793749999684,973.749060937499962l.5888671875-.2099609375,2.5205078125,1.595703125c-1.974609375,2.6044921875-5.208984375,5.125-8.2333984375,7.015625l3.4443359375,1.51171875-1.72265625,2.814453125c-3.2763671875-1.6796875-9.87109375-4.4521484375-14.66015625-6.2587890625l1.6796875-2.39453125c2.142578125.755859375,4.7890625,1.7646484375,7.3095703125,2.73046875,1.974609375-.9658203125,4.2431640625-2.39453125,6.0068359375-3.822265625h-20.9189453125v-2.982421875h23.9853515625ZM253.606457812499684,969.631873437499962c-2.5205078125-1.0078125-4.7470703125-2.1005859375-6.46875-3.1083984375-1.974609375,1.1337890625-4.1591796875,2.1845703125-6.427734375,3.1083984375h12.896484375ZM251.589856249999684,960.138709374999962l.4208984375.083984375-1.05078125-1.5966796875c2.39453125-.3779296875,5.96484375-1.5126953125,8.0234375-2.1845703125l1.5966796875,2.142578125c-2.1845703125.83984375-5.1669921875,1.470703125-7.51953125,1.890625,3.1083984375.671875,6.7626953125,1.7216796875,8.86328125,2.5205078125l-.9658203125,2.478515625c-2.39453125-1.0087890625-6.931640625-2.3525390625-10.3759765625-3.193359375l1.0078125-2.1416015625Z"/><path class="uuid-de03eb64-5910-4201-b930-ce13d3713070" d="M291.280285937499684,965.431678124999962v4.9140625h13.3154296875v3.6552734375h-13.3154296875v6.97265625h17.0126953125v3.697265625h-37.8486328125v-3.697265625h16.6767578125v-6.97265625h-12.896484375v-3.6552734375h12.896484375v-4.9140625h4.1591796875ZM273.216809374999684,961.356482812499962c.8818359375-.16796875,1.806640625-.83984375,2.9404296875-1.9326171875.923828125-.7978515625,3.3603515625-3.3603515625,5.62890625-6.3427734375h-10.333984375v-3.6962890625h35.4541015625v3.6962890625h-19.9111328125c-2.2265625,2.8984375-4.62109375,5.5869140625-6.9736328125,7.8134765625l17.6435546875-.6298828125c-1.5546875-1.38671875-3.150390625-2.7724609375-4.6630859375-3.94921875l3.150390625-2.142578125c3.78125,2.8564453125,8.5703125,6.9736328125,10.8798828125,9.8720703125l-3.486328125,2.4365234375c-.6298828125-.83984375-1.4697265625-1.8486328125-2.478515625-2.8984375-22.263671875.9658203125-24.7841796875,1.0498046875-26.548828125,1.638671875-.2099609375-.8408203125-.83984375-2.8154296875-1.3017578125-3.865234375Z"/><path class="uuid-de03eb64-5910-4201-b930-ce13d3713070" d="M350.041028124999684,977.781287499999962v4.537109375h-37.38671875v-4.537109375h37.38671875ZM346.511731249999684,953.123084374999962v4.3271484375h-30.3291015625v-4.3271484375h30.3291015625Z"/><path class="uuid-de03eb64-5910-4201-b930-ce13d3713070" d="M371.289074999999684,953.626990624999962v-1.974609375h-13.484375v-2.8984375h30.91796875v2.8984375h-13.5263671875v1.974609375h16.298828125v7.5615234375h-3.7392578125v-4.95703125h-12.5595703125v6.6376953125h-1.1767578125l2.6884765625,1.3017578125-.8818359375.671875c3.9482421875,1.974609375,10.921875,3.94921875,17.2646484375,4.7890625-.7978515625.755859375-1.8486328125,2.2685546875-2.3525390625,3.1923828125-2.8984375-.50390625-5.880859375-1.3017578125-8.6953125-2.267578125v1.51171875h-17.474609375v-1.5966796875c-2.6044921875,1.0087890625-5.2509765625,1.8486328125-7.6875,2.5625-.7568359375-.7978515625-2.1845703125-2.1416015625-3.1083984375-2.7724609375,6.888671875-1.51171875,14.408203125-4.158203125,18.9453125-7.392578125h-1.4287109375v-6.6376953125h-12.5185546875v4.95703125h-3.5703125v-7.5615234375h16.0888671875ZM361.291028124999684,956.567420312499962c2.6044921875.419921875,6.2177734375,1.302734375,8.1494140625,1.974609375l-.9658203125,2.1005859375,1.0498046875-.251953125.294921875,2.3525390625c-3.5712890625,1.0078125-7.099609375,1.9736328125-10.1240234375,2.814453125l-1.0927734375-2.8564453125c2.478515625-.4208984375,5.83984375-1.21875,9.41015625-1.974609375-1.974609375-.7138671875-5.29296875-1.5966796875-7.8134765625-2.1005859375l1.091796875-2.05859375ZM383.050793749999684,973.749060937499962l.5888671875-.2099609375,2.5205078125,1.595703125c-1.974609375,2.6044921875-5.208984375,5.125-8.2333984375,7.015625l3.4443359375,1.51171875-1.72265625,2.814453125c-3.2763671875-1.6796875-9.87109375-4.4521484375-14.66015625-6.2587890625l1.6796875-2.39453125c2.142578125.755859375,4.7890625,1.7646484375,7.3095703125,2.73046875,1.974609375-.9658203125,4.2431640625-2.39453125,6.0068359375-3.822265625h-20.9189453125v-2.982421875h23.9853515625ZM379.606457812499684,969.631873437499962c-2.5205078125-1.0078125-4.7470703125-2.1005859375-6.46875-3.1083984375-1.974609375,1.1337890625-4.1591796875,2.1845703125-6.427734375,3.1083984375h12.896484375ZM377.589856249999684,960.138709374999962l.4208984375.083984375-1.05078125-1.5966796875c2.39453125-.3779296875,5.96484375-1.5126953125,8.0234375-2.1845703125l1.5966796875,2.142578125c-2.1845703125.83984375-5.1669921875,1.470703125-7.51953125,1.890625,3.1083984375.671875,6.7626953125,1.7216796875,8.86328125,2.5205078125l-.9658203125,2.478515625c-2.39453125-1.0087890625-6.931640625-2.3525390625-10.3759765625-3.193359375l1.0078125-2.1416015625Z"/><path class="uuid-de03eb64-5910-4201-b930-ce13d3713070" d="M434.041028124999684,977.781287499999962v4.537109375h-37.38671875v-4.537109375h37.38671875ZM430.511731249999684,953.123084374999962v4.3271484375h-30.3291015625v-4.3271484375h30.3291015625Z"/><path class="uuid-de03eb64-5910-4201-b930-ce13d3713070" d="M476.712903124999684,964.086951562499962v4.369140625h-38.646484375v-4.369140625h38.646484375Z"/><path class="uuid-de03eb64-5910-4201-b930-ce13d3713070" d="M486.997082812499684,972.950232812499962v-11.173828125h12.4765625v-5.880859375h-9.7041015625c-1.8896484375,3.150390625-3.990234375,5.96484375-6.1748046875,8.107421875-.755859375-.7138671875-2.4365234375-2.0166015625-3.40234375-2.5625,3.90625-3.40234375,7.2666015625-8.8212890625,9.2412109375-14.408203125l4.033203125,1.0498046875c-.5048828125,1.3447265625-1.05078125,2.6884765625-1.6806640625,3.9912109375h24.57421875v3.822265625h-12.8125v5.880859375h11.8466796875v3.697265625h-11.8466796875v7.4765625h14.955078125v3.865234375h-14.955078125v9.3671875h-4.07421875v-9.3671875h-19.3232421875v-3.865234375h6.8466796875ZM499.473645312499684,972.950232812499962v-7.4765625h-8.52734375v7.4765625h8.52734375Z"/><path class="uuid-de03eb64-5910-4201-b930-ce13d3713070" d="M543.994153124999684,946.948279687499962c.671875,1.259765625,1.3857421875,2.8564453125,1.890625,4.2001953125h14.3662109375v3.697265625h-30.9599609375v7.6025390625c0,6.8896484375-.5458984375,16.9716796875-4.07421875,23.6923828125-.7978515625-.587890625-2.6044921875-1.427734375-3.61328125-1.763671875,3.4453125-6.3857421875,3.7392578125-15.54296875,3.7392578125-21.88671875v-11.341796875h16.046875c-.419921875-1.091796875-.8818359375-2.310546875-1.38671875-3.2763671875l3.9912109375-.923828125ZM554.076184374999684,971.396521874999962l.7138671875-.16796875,2.478515625,1.3017578125c-1.890625,3.4873046875-4.705078125,6.1337890625-8.19140625,8.107421875,3.486328125,1.05078125,7.5185546875,1.72265625,11.8037109375,2.1005859375-.83984375.83984375-1.806640625,2.4365234375-2.310546875,3.4443359375-5.2509765625-.587890625-9.9970703125-1.7216796875-14.072265625-3.40234375-4.28515625,1.5966796875-9.1572265625,2.5625-14.1982421875,3.150390625-.2939453125-.9658203125-1.0087890625-2.478515625-1.638671875-3.3603515625,4.033203125-.3359375,8.0234375-.9658203125,11.59375-1.974609375-2.3935546875-1.4697265625-4.4521484375-3.2763671875-6.0908203125-5.376953125l1.5966796875-.6298828125h-5.0830078125v-3.1923828125h23.3984375ZM540.296887499999684,955.895545312499962v3.2763671875h9.1162109375v-3.2763671875h3.90625v3.2763671875h6.4697265625v3.1923828125h-6.4697265625v6.8056640625h-16.802734375v-6.8056640625h-6.30078125v-3.1923828125h6.30078125v-3.2763671875h3.7802734375ZM538.239270312499684,974.588904687499962c1.595703125,1.7646484375,3.822265625,3.234375,6.4267578125,4.4111328125,2.6884765625-1.134765625,4.95703125-2.6044921875,6.6796875-4.4111328125h-13.1064453125ZM540.296887499999684,962.364295312499962v3.7392578125h9.1162109375v-3.7392578125h-9.1162109375Z"/><rect class="uuid-de03eb64-5910-4201-b930-ce13d3713070" x="97.564499999999498" y="908.212900000000445" width="464.765600000000632" height="1.5"/><path class="uuid-de03eb64-5910-4201-b930-ce13d3713070" d="M105.427700000001096,628.540500000000975v-67.755400000001828h8.153800000000047v60.572299999999814h28.83010000000013v7.183100000002014h-36.983900000000176Z"/><path class="uuid-de03eb64-5910-4201-b930-ce13d3713070" d="M157.165999999999258,566.706500000000233c-1.683599999999387,0-2.897399999997106-.403299999999945-3.640599999997903-1.213400000000547-.744599999999991-.808100000000195-1.11620000000039-1.858899999999267-1.11620000000039-3.15480000000025v-1.261699999999109c0-1.293900000000576.371600000000399-2.34519999999975,1.11620000000039-3.155300000000352.743200000000797-.808600000000297,1.956999999998516-1.213299999999435,3.640599999997903-1.213299999999435,1.681700000001001,0,2.895500000003267.404699999999139,3.640100000001439,1.213299999999435.743200000000797.810100000000602,1.116300000000592,1.861399999999776,1.116300000000592,3.155300000000352v1.261699999999109c0,1.295900000000984-.373099999999795,2.346700000000055-1.116300000000592,3.15480000000025-.744599999998172.810100000000602-1.958400000000438,1.213400000000547-3.640100000001439,1.213400000000547ZM153.283200000000761,578.45260000000053h7.765600000000632v50.087900000000445h-7.765600000000632v-50.087900000000445Z"/><path class="uuid-de03eb64-5910-4201-b930-ce13d3713070" d="M177.550799999999981,628.540500000000975v-50.087900000000445h7.765600000002451v8.060999999999694h.388199999997596c1.228500000001077-2.817900000000009,2.960399999999936-5.060999999999694,5.193300000000818-6.726500000000669,2.233000000000175-1.665600000000268,5.225100000001476-2.499599999999191,8.979000000001179-2.499599999999191,5.176799999999275,0,9.270599999999831,1.666999999999462,12.27980000000025,4.999099999999089,3.009299999996983,3.334000000000742,4.513699999999517,8.041999999999462,4.513699999999517,14.124000000001615v32.129899999999907h-7.765600000000632v-30.837900000000445c0-9.015600000000632-3.785699999998542-13.52350000000115-11.35739999999987-13.52350000000115-1.553299999998671,0-3.057700000000295.195800000001327-4.514200000000528.584000000000742-1.456099999999424.389699999999721-2.766100000000733.973700000000463-3.93119999999908,1.752000000000407-1.165000000000873.778299999999945-2.086900000000242,1.766599999999016-2.766100000000733,2.966800000000148-.679700000000594,1.199199999999109-1.019499999998516,2.610300000000279-1.019499999998516,4.231399999998757v34.82720000000154h-7.765600000002451Z"/><path class="uuid-de03eb64-5910-4201-b930-ce13d3713070" d="M272.485300000000279,626.890600000000632c0,6.923799999998664-1.941399999998794,12.359799999998359-5.824200000000019,16.307600000000093-3.882799999999406,3.946799999999712-9.351999999998952,5.92239999999947-16.40480000000025,5.92239999999947-4.077099999998609,0-7.588299999999435-.634799999999814-10.532199999998738-1.901400000000649-2.945300000000316-1.269500000000335-5.387200000000121-2.942399999999907-7.328599999999824-5.021999999999025l4.561999999999898-5.362800000000789c1.682099999999991,1.731999999999971,3.623600000000806,3.065000000000509,5.824200000000928,3.996100000000297,2.199300000000221.931699999999182,4.756399999998393,1.396999999999025,7.668499999999767,1.396999999999025,4.529299999998329,0,8.040499999998246-1.251499999998487,10.532199999997829-3.751999999998588,2.490700000002107-2.504399999999805,3.737300000000687-6.192800000000716,3.737300000000687-11.067800000000716v-6.928299999999581h-.388199999999415c-1.489200000000892,3.075699999999415-3.430599999999686,5.381400000000212-5.824200000000019,6.918999999999869-2.395000000001346,1.53859999999986-5.338799999998628,2.307099999999991-8.833499999999731,2.307099999999991-3.106399999998757,0-5.921400000001086-.615700000000288-8.445300000002135-1.843699999999444-2.523399999997309-1.229000000001179-4.659199999997327-2.976599999999962-6.406199999996716-5.242200000000594-1.747600000002421-2.264699999999721-3.106500000001688-5.014699999999721-4.07720000000154-8.251000000000204-.970699999999852-3.235399999999572-1.456000000000131-6.859399999999368-1.456000000000131-10.872100000000501,0-4.011699999999109.485300000000279-7.635699999998906,1.456000000000131-10.871999999999389.970699999999852-3.235399999999572,2.329599999999118-5.985399999999572,4.07720000000154-8.251000000000204,1.746999999999389-2.264699999999721,3.882799999999406-4.011699999999109,6.406199999996716-5.242200000000594,2.523900000001049-1.228499999999258,5.338900000003377-1.843799999998737,8.445300000002135-1.843799999998737,3.494700000001103,0,6.487299999998868.753499999998894,8.979000000001179,2.257900000000518,2.490799999999581,1.506799999999203,4.383299999997689,3.828599999998914,5.678699999998571,6.968199999999342h.388199999999415v-8.060999999999694h7.765599999999722v48.438000000000102ZM252.003400000000511,622.813400000000911c1.747600000000602,0,3.397500000000946-.227500000000873,4.950700000001234-.682600000000093,1.553199999999379-.454600000000937,2.895499999998719-1.122600000000602,4.028299999998126-2.000500000001921,1.131899999999405-.876899999999296,2.03859999999986-1.950699999999415,2.718300000000454-3.217799999998533.679200000002311-1.268500000000131,1.019000000000233-2.748999999999796,1.019000000000233-4.439900000001217v-18.634799999999814c0-1.365200000000186-.324199999999109-2.649900000000343-.970699999998033-3.85399999999936-.647400000001653-1.20260000000053-1.553200000002107-2.226500000000669-2.717800000002171-3.072700000000623-1.164999999999054-.844699999999648-2.52389999999923-1.511199999999008-4.077099999998609-1.999499999999898-1.553200000000288-.488299999999072-3.203100000000632-.732500000000073-4.950700000001234-.732500000000073-4.40139999999883,0-7.89600000000064,1.39850000000115-10.483399999999165,4.195400000000518-2.589300000001458,2.796800000000076-3.882800000001225,6.406699999999546-3.882800000001225,10.829999999999927v8.584000000000742c0,4.422899999999572,1.293499999999767,8.03269999999975,3.882800000001225,10.83009999999922,2.587399999998524,2.796399999999267,6.082000000000335,4.194800000001123,10.483399999999165,4.194800000001123Z"/><path class="uuid-de03eb64-5910-4201-b930-ce13d3713070" d="M319.855000000002292,620.479400000000169h-.388200000001234c-.518599999999424,1.15480000000025-1.149399999998423,2.29149999999936-1.89259999999922,3.412599999999657-.745100000000093,1.120600000000195-1.667000000001281,2.114299999999275-2.766600000000835,2.97860000000037-1.10149999999885.865200000000186-2.426699999999983,1.55370000000039-3.979999999999563,2.066399999999703-1.553200000000288.51220000000103-3.365700000000288.768500000000131-5.435999999999694.768500000000131-5.178200000000288,0-9.287100000001374-1.664999999999054-12.328100000000632-4.998999999999796-3.042500000001382-3.332500000000437-4.5625-8.040000000000873-4.5625-14.123999999999796v-32.129899999999907h7.765600000000632v30.837900000000445c0,9.015099999998711,3.81789999999819,13.522899999999936,11.454599999999118,13.522899999999936,1.553200000000288,0,3.057600000000093-.19380000000092,4.513700000000426-.584000000000742,1.455999999999221-.388100000000122,2.75-.972100000000864,3.882800000000316-1.75,1.131799999999203-.778299999999945,2.038499999998749-1.766999999999825,2.718199999999342-2.967200000000958.679700000000594-1.199300000000221,1.019100000001345-2.643099999999322,1.019100000001345-4.33009999999922v-34.729499999999462h7.765599999998813v50.087900000000445h-7.765599999998813v-8.061100000000806Z"/><path class="uuid-de03eb64-5910-4201-b930-ce13d3713070" d="M348.004900000002635,566.706500000000233c-1.683600000000297,0-2.897000000000844-.403299999999945-3.640200000001641-1.213400000000547-.744599999999991-.808100000000195-1.11620000000039-1.858899999999267-1.11620000000039-3.15480000000025v-1.261699999999109c0-1.293900000000576.371600000000399-2.34519999999975,1.11620000000039-3.155300000000352.743200000000797-.808600000000297,1.956600000001345-1.213299999999435,3.640200000001641-1.213299999999435,1.682099999998172,0,2.895499999998719.404699999999139,3.640099999998711,1.213299999999435.743199999998978.810100000000602,1.116199999998571,1.861399999999776,1.116199999998571,3.155300000000352v1.261699999999109c0,1.295900000000984-.372999999999593,2.346700000000055-1.116199999998571,3.15480000000025-.744599999999991.810100000000602-1.958000000000538,1.213400000000547-3.640099999998711,1.213400000000547ZM344.12210000000141,578.45260000000053h7.765600000000632v50.087900000000445h-7.765600000000632v-50.087900000000445Z"/><path class="uuid-de03eb64-5910-4201-b930-ce13d3713070" d="M383.436000000000604,629.705500000000029c-4.659100000000763,0-8.55909999999858-.89010000000053-11.697199999998702-2.668900000000576-3.13970000000063-1.779300000000148-5.840900000001056-4.158199999999852-8.105500000001484-7.134799999999814l5.533200000001671-4.465799999999945c1.941399999999703,2.459899999999834,4.108899999999267,4.352500000000873,6.503899999999703,5.67870000000039,2.393600000000333,1.327100000000428,5.176799999999275,1.990200000000186,8.348200000000361,1.990200000000186,3.300199999997858,0,5.872499999997672-.711900000000242,7.716699999999037-2.135700000000725,1.84480000000076-1.422899999999572,2.766600000000835-3.429699999998775,2.766600000000835-6.018599999999424,0-1.941399999999703-.630800000000818-3.606400000000576-1.892500000001746-4.998999999999796-1.262199999999211-1.390600000000632-3.543499999999767-2.344699999999648-6.843799999998737-2.863300000000891l-3.979999999999563-.583000000000538c-2.329500000000735-.323199999998906-4.465299999999843-.824699999999211-6.406699999999546-1.503899999999703-1.941400000001522-.680199999998877-3.64010000000053-1.585399999999936-5.096199999999953-2.718199999999342-1.45600000000195-1.131400000000212-2.588900000002468-2.539600000000064-3.397500000002765-4.223200000000361-.809999999997672-1.681599999999889-1.213299999999435-3.688500000000204-1.213299999999435-6.01759999999922,0-2.459000000000742.452100000002247-4.611300000000483,1.358900000001086-6.454999999999927.905700000001161-1.84480000000076,2.150800000001254-3.381900000000314,3.737299999998868-4.611399999999776,1.584900000001653-1.228500000001077,3.478000000001884-2.150900000000547,5.67870000000039-2.766600000000835,2.199199999999109-.614199999999983,4.5625-.921899999999368,7.08640000000014-.921899999999368,4.076700000001438,0,7.489300000001094.712400000000343,10.240700000000288,2.135299999999916,2.75,1.424300000000585,5.160200000000259,3.397499999999127,7.231999999999971,5.921399999999267l-5.145099999999729,4.659200000000055c-1.100999999998749-1.552799999999479-2.717700000001059-2.959999999999127-4.853500000001077-4.222700000000259-2.135199999998804-1.261699999999109-4.82129999999961-1.89259999999922-8.056599999999889-1.89259999999922-3.236799999998766,0-5.67870000000039.695799999999508-7.329099999999016,2.086900000000242-1.649900000000343,1.392099999999118-2.475099999999657,3.285200000000259-2.475099999999657,5.678799999999683,0,2.459899999999834.825199999999313,4.239199999999983,2.475099999999657,5.338799999999537,1.650399999998626,1.101599999999962,4.028800000000047,1.909200000000055,7.134699999998702,2.426800000001094l3.882900000000518.581999999998516c5.564900000001217.841800000000148,9.513100000000122,2.444300000001022,11.842700000001059,4.805200000000696,2.329600000000937,2.363299999999072,3.494699999999284,5.45260000000053,3.494699999999284,9.270500000000538,0,4.853499999999258-1.650399999998626,8.67239999999947-4.950699999999415,11.454599999999118-3.300300000000789,2.783199999999852-7.831100000001243,4.173800000000483-13.589900000000853,4.173800000000483Z"/><path class="uuid-de03eb64-5910-4201-b930-ce13d3713070" d="M426.051300000001902,628.540500000000975c-2.717800000002171,0-4.773000000001048-.757800000001225-6.164100000001781-2.274900000000343-1.392099999999118-1.516600000000835-2.086899999998423-3.50340000000142-2.086899999998423-5.957500000000437v-34.963900000000649h-8.251000000000204v-6.891599999999016h4.659200000000055c1.682099999999991,0,2.830599999999322-.340300000001662,3.44629999999961-1.020000000000437.614199999999983-.679200000000492.921899999999368-1.859399999999368.921899999999368-3.542999999999665v-9.318900000000212h6.989199999999983v13.881900000000314h10.969300000000658v6.891599999999016h-10.969300000000658v36.304700000000594h10.192399999999907v6.891600000000835h-9.706999999998516Z"/><path class="uuid-de03eb64-5910-4201-b930-ce13d3713070" d="M452.939900000000307,566.706500000000233c-1.683600000000297,0-2.896899999999732-.403299999999945-3.64010000000053-1.213400000000547-.744599999999991-.808100000000195-1.116699999998673-1.858899999999267-1.116699999998673-3.15480000000025v-1.261699999999109c0-1.293900000000576.372099999998682-2.34519999999975,1.116699999998673-3.155300000000352.743200000000797-.808600000000297,1.956500000000233-1.213299999999435,3.64010000000053-1.213299999999435,1.682200000001103,0,2.895500000000538.404699999999139,3.640200000001641,1.213299999999435.743099999997867.810100000000602,1.11620000000039,1.861399999999776,1.11620000000039,3.155300000000352v1.261699999999109c0,1.295900000000984-.373100000002523,2.346700000000055-1.11620000000039,3.15480000000025-.744700000001103.810100000000602-1.958000000000538,1.213400000000547-3.640200000001641,1.213400000000547ZM449.057100000000901,578.45260000000053h7.765599999998813v50.087900000000445h-7.765599999998813v-50.087900000000445Z"/><path class="uuid-de03eb64-5910-4201-b930-ce13d3713070" d="M491.962400000001253,629.705500000000029c-3.494599999999991,0-6.634299999999712-.615700000000288-9.415999999999258-1.843699999999444-2.783200000001671-1.229000000001179-5.129400000001624-2.976599999999962-7.037599999999657-5.242200000000594-1.909700000000157-2.264699999999721-3.365700000002107-5.014699999999721-4.368200000000797-8.251000000000204-1.003899999999703-3.235399999999572-1.504400000001624-6.859399999999368-1.504400000001624-10.872100000000501,0-4.011699999999109.500500000001921-7.635699999998906,1.504400000001624-10.871999999999389,1.00249999999869-3.235399999999572,2.45850000000064-5.985399999999572,4.368200000000797-8.251000000000204,1.908199999998033-2.264699999999721,4.254399999997986-4.011699999999109,7.037599999999657-5.242200000000594,2.781699999999546-1.228499999999258,5.921399999999267-1.843799999998737,9.415999999999258-1.843799999998737,4.982399999998961,0,8.979000000001179,1.083999999998923,11.988299999999072,3.251000000000204,3.009300000001531,2.169499999999971,5.257300000001123,5,6.746600000002218,8.494199999999182l-6.503900000001522,3.300699999999779c-.906799999998839-2.587799999999334-2.395099999999729-4.594699999999648-4.465399999999136-6.018500000000131-2.071800000001531-1.422899999999572-4.659200000001874-2.135800000000017-7.765600000000632-2.135800000000017-2.329599999999118,0-4.368199999998978.373100000000704-6.115700000000288,1.116300000001502-1.747100000000501.744599999998172-3.203099999998813,1.781199999999444-4.368200000000797,3.106399999998757-1.164499999998952,1.327199999999721-2.03859999999986,2.912099999999555-2.620599999998376,4.756400000000212-.582500000000437,1.84519999999975-.873999999999796,3.867599999999584-.873999999999796,6.066800000000512v8.541999999999462c0,4.402400000000853,1.180199999998877,8.00879999999961,3.543399999998655,10.823800000000119,2.361400000001595,2.815399999999499,5.839400000000751,4.222600000000966,10.435100000000602,4.222600000000966,6.276400000000649,0,10.806599999999889-2.911600000001272,13.589799999999741-8.736300000000483l5.630400000000009,3.785599999999249c-1.618199999998978,3.625-4.028299999999945,6.503899999999703-7.231900000000678,8.639699999999721-3.203099999998813,2.135200000000623-7.199699999999211,3.203100000000632-11.988299999999072,3.203100000000632Z"/><path class="uuid-de03eb64-5910-4201-b930-ce13d3713070" d="M537.196800000000621,629.705500000000029c-4.659700000000157,0-8.55909999999858-.89010000000053-11.697299999999814-2.668900000000576-3.139599999998609-1.779300000000148-5.840799999999945-4.158199999999852-8.105499999999665-7.134799999999814l5.533199999999852-4.465799999999945c1.941399999999703,2.459899999999834,4.108899999999267,4.352500000000873,6.503899999999703,5.67870000000039,2.393100000001141,1.327100000000428,5.176299999999173,1.990200000000186,8.348200000000361,1.990200000000186,3.30029999999897,0,5.872599999998783-.711900000000242,7.716800000000148-2.135700000000725,1.844699999999648-1.422899999999572,2.766600000000835-3.429699999998775,2.766600000000835-6.018599999999424,0-1.941399999999703-.630900000000111-3.606400000000576-1.892600000001039-4.998999999999796-1.262199999999211-1.390600000000632-3.543400000000474-2.344699999999648-6.843699999999444-2.863300000000891l-3.979999999999563-.583000000000538c-2.329600000000937-.323199999998906-4.465299999999843-.824699999999211-6.406800000000658-1.503899999999703-1.941400000001522-.680199999998877-3.64010000000053-1.585399999999936-5.096099999998842-2.718199999999342-1.456100000001243-1.131400000000212-2.588900000002468-2.539600000000064-3.397500000000946-4.223200000000361-.810100000000602-1.681599999999889-1.213400000000547-3.688500000000204-1.213400000000547-6.01759999999922,0-2.459000000000742.45220000000154-4.611300000000483,1.358900000001086-6.454999999999927.905800000000454-1.84480000000076,2.150899999998728-3.381900000000314,3.737299999998868-4.611399999999776,1.585000000000946-1.228500000001077,3.478000000000975-2.150900000000547,5.67870000000039-2.766600000000835,2.199200000000928-.614199999999983,4.5625-.921899999999368,7.08640000000014-.921899999999368,4.076699999999619,0,7.489299999999275.712400000000343,10.240799999999581,2.135299999999916,2.75,1.424300000000585,5.160099999999147,3.397499999999127,7.231900000000678,5.921399999999267l-5.145000000000437,4.659200000000055c-1.10109999999986-1.552799999999479-2.717800000000352-2.959999999999127-4.853500000001077-4.222700000000259-2.135299999998097-1.261699999999109-4.82129999999961-1.89259999999922-8.056699999999182-1.89259999999922-3.236800000000585,0-5.678699999998571.695799999999508-7.329100000000835,2.086900000000242-1.649900000000343,1.392099999999118-2.475099999999657,3.285200000000259-2.475099999999657,5.678799999999683,0,2.459899999999834.825199999999313,4.239199999999983,2.475099999999657,5.338799999999537,1.650400000002264,1.101599999999962,4.028800000000047,1.909200000000055,7.134799999999814,2.426800000001094l3.882800000001225.581999999998516c5.564899999999398.841800000000148,9.513199999999415,2.444300000001022,11.842799999998533,4.805200000000696,2.329600000002756,2.363299999999072,3.494599999999991,5.45260000000053,3.494599999999991,9.270500000000538,0,4.853499999999258-1.650399999998626,8.67239999999947-4.950699999997596,11.454599999999118-3.300300000000789,2.783199999999852-7.83100000000195,4.173800000000483-13.58980000000156,4.173800000000483Z"/><path class="uuid-de03eb64-5910-4201-b930-ce13d3713070" d="M124.453599999999824,746.190899999999601c-5.500999999998385,0-10.192399999999907-1.052799999999479-14.075199999999313-3.154299999998329-3.882799999999406-2.102600000001985-7.183600000001206-4.999500000001717-9.90139999999883-8.688500000000204l6.018599999999424-5.047900000001391c2.393100000001141,3.171900000001187,5.04739999999947,5.582099999999627,7.959500000000844,7.232500000000073,2.912099999999555,1.649900000000343,6.341799999998329,2.475100000001476,10.289999999999054,2.475100000001476,4.853499999999258,0,8.557099999999991-1.165100000001985,11.114299999999275-3.494700000001103,2.555599999999686-2.329999999999927,3.834399999999732-5.435999999999694,3.834399999999732-9.318799999999101,0-3.234900000001289-.970699999998033-5.727100000000064-2.912099999997736-7.474100000001272-1.941399999999703-1.748099999998885-5.145000000000437-3.138699999999517-9.609800000001997-4.174799999998868l-5.533199999998033-1.261800000000221c-6.212900000002264-1.422800000000279-10.954100000000835-3.574200000000928-14.221199999999953-6.455000000001746-3.268600000001243-2.878899999999703-4.901900000000751-6.940499999998792-4.901900000000751-12.182699999999386,0-2.975499999998647.548800000000483-5.629800000000614,1.649900000000343-7.95889999999963,1.100099999999657-2.33009999999922,2.636299999997391-4.271499999998923,4.610899999999674-5.82470000000103,1.973599999999351-1.553299999999581,4.334899999999834-2.732999999998356,7.08640000000014-3.543499999999767,2.75-.808599999998478,5.775900000000547-1.213399999998728,9.076199999998607-1.213399999998728,5.111300000001393,0,9.496100000001206.939000000000306,13.153300000000854,2.815399999999499,3.655300000000352,1.877500000000509,6.746100000000297,4.627500000000509,9.269999999998618,8.251000000000204l-6.115199999998367,4.465399999999136c-1.877999999998792-2.587899999998626-4.142600000001039-4.626000000000204-6.795000000000073-6.115799999999581-2.654300000001058-1.48779999999897-5.954999999999927-2.232899999999063-9.901300000001356-2.232899999999063-4.33640000000014,0-7.750499999998283.922899999999572-10.241199999998571,2.766599999999016-2.491700000000492,1.84480000000076-3.737299999998868,4.611400000001595-3.737299999998868,8.299800000000687,0,3.236799999998766,1.051199999998062,5.67870000000039,3.155199999997421,7.328600000000733,2.102100000000064,1.650399999998626,5.290100000001985,2.961499999997613,9.561600000000908,3.932199999999284l5.53269999999975,1.261699999999109c6.664500000000771,1.489199999999983,11.486300000000483,3.753899999999703,14.463399999999638,6.79490000000078,2.975999999999658,3.041999999999462,4.465300000000752,7.085900000000038,4.465300000000752,12.13379999999961,0,3.106400000000576-.533699999999953,5.920900000000984-1.601599999999962,8.445299999999406-1.067799999998897,2.52350000000115-2.605900000000474,4.659200000001874-4.610800000000381,6.406300000000556-2.006900000000314,1.747499999999491-4.450199999999313,3.106400000000576-7.328600000000733,4.077100000000428-2.88039999999819.970699999999852-6.132399999998597,1.456099999999424-9.755900000000111,1.456099999999424Z"/><path class="uuid-de03eb64-5910-4201-b930-ce13d3713070" d="M179.977499999999964,746.190899999999601c-3.365699999998469,0-6.439899999997579-.615799999999581-9.221599999998944-1.844300000000658-2.783200000000761-1.227999999999156-5.161699999998746-2.992599999997765-7.134800000000723-5.290499999999156-1.974599999998645-2.295900000000984-3.511199999999008-5.04739999999947-4.610900000000584-8.251000000000204-1.100999999998749-3.203099999998813-1.649899999999434-6.810499999999593-1.649899999999434-10.823199999998906,0-3.94629999999961.548900000000685-7.538100000001577,1.649899999999434-10.775400000000445,1.099700000001576-3.234399999999368,2.636300000001938-6.002000000000407,4.610900000000584-8.299300000000585,1.973100000001978-2.296399999999267,4.351599999999962-4.060099999998783,7.134800000000723-5.290600000000268,2.781700000001365-1.228499999999258,5.855900000000474-1.843699999999444,9.221599999998944-1.843699999999444,3.364300000001094,0,6.421900000001187.615200000000186,9.173400000001493,1.843699999999444,2.75,1.230500000001484,5.128399999999601,2.994200000001001,7.134700000000521,5.290600000000268,2.00539999999728,2.297300000000178,3.558600000000297,5.064900000001217,4.659700000000157,8.299300000000585,1.099599999997736,3.237299999998868,1.649900000000343,6.829100000000835,1.649900000000343,10.775400000000445,0,4.012699999999313-.550300000002608,7.620100000000093-1.649900000000343,10.823199999998906-1.10109999999986,3.203600000000733-2.654300000002877,5.95509999999922-4.659700000000157,8.251000000000204-2.00630000000092,2.297900000001391-4.384700000000521,4.0625-7.134700000000521,5.290499999999156-2.751500000000306,1.228500000001077-5.809100000000399,1.844300000000658-9.173400000001493,1.844300000000658ZM179.977499999999964,739.298799999998664c4.206100000000333,0,7.635300000001735-1.293499999999767,10.289600000000064-3.882799999999406,2.652799999999843-2.587400000000343,3.980000000001382-6.535700000000361,3.980000000001382-11.84230000000025v-7.183600000000297c0-5.305699999998978-1.32720000000154-9.253899999999703-3.980000000001382-11.842799999998533-2.654299999998329-2.587400000000343-6.083499999999731-3.882799999999406-10.289600000000064-3.882799999999406-4.206999999998516,0-7.636699999999109,1.295399999999063-10.289499999998952,3.882799999999406-2.654300000000148,2.58889999999883-3.979999999999563,6.537099999999555-3.979999999999563,11.842799999998533v7.183600000000297c0,5.306599999999889,1.325699999999415,9.254899999999907,3.979999999999563,11.84230000000025,2.652799999999843,2.589299999999639,6.082500000000437,3.882799999999406,10.289499999998952,3.882799999999406Z"/><path class="uuid-de03eb64-5910-4201-b930-ce13d3713070" d="M234.045900000000074,746.190899999999601c-3.494100000000799,0-6.63379999999961-.615799999999581-9.415499999999156-1.844300000000658-2.783199999999852-1.227999999999156-5.129899999999907-2.975999999998749-7.037599999999657-5.241699999998673-1.909700000000157-2.264600000000428-3.365799999999581-5.014600000000428-4.368200000000797-8.250899999999092-1.004399999997986-3.235400000001391-1.504899999999907-6.859400000001187-1.504899999999907-10.872100000000501,0-4.011700000000928.500500000001921-7.635800000000017,1.504899999999907-10.872100000000501,1.002400000001217-3.235300000000279,2.45850000000064-5.985300000000279,4.368200000000797-8.251000000000204,1.90769999999975-2.264600000000428,4.254399999999805-4.011699999999109,7.037599999999657-5.242200000000594,2.781699999999546-1.228499999999258,5.921399999998357-1.843699999999444,9.415499999999156-1.843699999999444,4.98240000000078,0,8.979000000001179,1.084000000000742,11.988800000000992,3.251500000000306,3.008800000001429,2.169399999998859,5.256800000001022,4.999499999999898,6.746100000000297,8.493599999999788l-6.503500000000713,3.300799999999072c-.907199999999648-2.587899999998626-2.395499999998719-4.594699999997829-4.465799999998126-6.018599999999424-2.071300000001429-1.422800000000279-4.659200000001874-2.135699999998906-7.765600000002451-2.135699999998906-2.329099999999016,0-4.368199999998978.372999999999593-6.115200000000186,1.11620000000039-1.747099999998682.745100000000093-3.203199999999924,1.780799999998635-4.368199999998978,3.10649999999805-1.164999999999054,1.327100000000428-2.03859999999986,2.912100000001374-2.621099999998478,4.75630000000092-.582000000002154,1.844699999999648-.873500000001513,3.867699999998877-.873500000001513,6.066899999999805v8.542999999999665c0,4.401300000001356,1.180100000001403,8.007799999999406,3.542900000000373,10.823200000000725,2.361899999998968,2.815000000000509,5.839400000000751,4.222199999998338,10.435099999998783,4.222199999998338,6.276400000002468,0,10.806599999999889-2.912099999997736,13.58980000000156-8.736399999997957l5.63039999999819,3.785700000000361c-1.618199999998978,3.625-4.028299999998126,6.503899999999703-7.231399999998757,8.639599999998609-3.203599999998914,2.135299999999916-7.200200000001132,3.203199999999924-11.988800000000992,3.203199999999924Z"/><path class="uuid-de03eb64-5910-4201-b930-ce13d3713070" d="M268.117200000001503,683.191799999998693c-1.683599999999387,0-2.896999999999025-.403299999998126-3.640199999999822-1.212799999999334-.74460000000181-.809100000000399-1.11620000000039-1.85989999999947-1.11620000000039-3.155300000000352v-1.261699999999109c0-1.293999999999869.37159999999858-2.345300000000861,1.11620000000039-3.155300000000352.743200000000797-.808599999998478,1.956600000000435-1.212900000000445,3.640199999999822-1.212900000000445,1.682099999999991,0,2.895500000000538.404300000001967,3.64009999999962,1.212900000000445.743199999999888.809999999999491,1.11619999999948,1.861300000000483,1.11619999999948,3.155300000000352v1.261699999999109c0,1.295400000000882-.372999999999593,2.346199999999953-1.11619999999948,3.155300000000352-.744599999999082.809500000001208-1.957999999999629,1.212799999999334-3.64009999999962,1.212799999999334ZM264.234400000000278,694.937400000000707h7.765600000000632v50.088400000000547h-7.765600000000632v-50.088400000000547Z"/><path class="uuid-de03eb64-5910-4201-b930-ce13d3713070" d="M307.334000000001652,746.190899999999601c-3.430700000000797,0-6.520500000000538-.615799999999581-9.270500000000538-1.844300000000658-2.751000000000204-1.227999999999156-5.112800000000789-2.992599999997765-7.08600000000115-5.290499999999156-1.975099999999657-2.295900000000984-3.494599999998172-5.04739999999947-4.5625-8.251000000000204-1.067799999998897-3.203099999998813-1.60149999999885-6.810499999999593-1.60149999999885-10.823199999998906,0-3.94629999999961.533699999999953-7.538100000001577,1.60149999999885-10.775400000000445,1.067900000001828-3.234399999999368,2.587400000000343-6.002000000000407,4.5625-8.299300000000585,1.973200000000361-2.296399999999267,4.335000000000946-4.060099999998783,7.08600000000115-5.290600000000268,2.75-1.228499999999258,5.839799999999741-1.843699999999444,9.270500000000538-1.843699999999444,3.364199999999983,0,6.372999999999593.612299999998868,9.027299999999741,1.837900000000445,2.653299999999945,1.225599999999758,4.917499999999563,2.91990000000078,6.794899999998961,5.079600000000937,1.876500000002125,2.159599999999045,3.316000000000713,4.723099999999249,4.319900000002235,7.689899999997579,1.002399999996669,2.966800000001967,1.504899999999907,6.223200000000361,1.504899999999907,9.769100000001345v3.677200000000084h-36.013700000002245v2.329100000000835c0,2.135800000000017.33980000000065,4.125499999998283,1.019500000001244,5.97019999999975.679199999997763,1.844299999998839,1.649900000000343,3.445799999997689,2.912099999999555,4.804699999998775,1.261700000000928,1.358900000001086,2.815000000000509,2.426799999999275,4.659200000000055,3.203599999998914,1.844199999999546.776400000002468,3.931599999999889,1.164600000000064,6.261200000000827,1.164600000000064,3.169999999997344,0,5.936599999999089-.743199999998978,8.299299999998766-2.232399999998961,2.361899999999878-1.487800000000789,4.189500000000407-3.623600000000806,5.484899999998561-6.406799999998839l5.53320000000258,4.00539999999819c-1.618600000001607,3.45260000000053-4.14259999999922,6.2358000000022-7.571800000001531,8.351600000001781-3.431099999997969,2.115699999998469-7.507799999999406,3.174299999998766-12.230899999998655,3.174299999998766ZM307.334000000001652,700.276299999999537c-2.135800000000017,0-4.077199999999721.370100000000093-5.824199999999109,1.110400000001391-1.747600000002421.740699999998469-3.252000000000407,1.785099999999147-4.513700000000426,3.135199999998804-1.262200000000121,1.349599999999555-2.249500000000808,2.942399999999907-2.960900000001857,4.774400000000242-.712899999997717,1.83350000000064-1.067900000000009,3.843300000000454-1.067900000000009,6.030300000000352v.674799999998868h27.665500000001884v-1.061499999999796c0-4.4375-1.213400000000547-7.989799999999377-3.64010000000053-10.659199999998236-2.426800000001094-2.668900000000576-5.647000000000844-4.004400000001624-9.658699999999953-4.004400000001624Z"/><path class="uuid-de03eb64-5910-4201-b930-ce13d3713070" d="M352.859900000003108,745.025800000001254c-2.717800000003081,0-4.773000000001957-.757800000001225-6.164100000002691-2.274400000002061-1.392099999999118-1.517099999999118-2.086899999998423-3.503899999999703-2.086899999998423-5.957999999998719v-34.963900000000649h-8.251000000000204v-6.892099999999118h4.659199999998236c1.68210000000181,0,2.830600000000231-.33980000000156,3.446300000001429-1.019500000000335.614199999999983-.679200000000492.921799999998257-1.858900000001086.921799999998257-3.542500000001382v-9.319299999999203h6.989300000001094v13.88130000000092h10.969199999999546v6.892099999999118h-10.969199999999546v36.304699999998775h10.192399999999907v6.891600000002654h-9.706999999997606Z"/><path class="uuid-de03eb64-5910-4201-b930-ce13d3713070" d="M406.733900000001995,694.937400000000707h7.668900000000576l-22.4233000000022,61.737399999998161c-.582500000000437,1.487700000001496-1.165099999998347,2.732900000000882-1.747599999998783,3.736800000002404-.582000000000335,1.002899999999499-1.29490000000078,1.796399999999267-2.135200000000623,2.378399999997782-.841799999998329.582500000000437-1.893100000001141,1.00340000000142-3.15480000000025,1.26220000000103-1.262199999999211.257799999999406-2.799800000000687.388200000001234-4.610799999999472.388200000001234h-3.979999999998654v-6.892100000000937h7.86279999999897l3.785599999999249-10.66110000000117-18.73489999999947-51.949799999998504h7.765699999999924l12.037100000001374,34.006399999998393,2.329599999997299,8.139200000001438h.485300000000279l2.717800000002171-8.139200000001438,12.13379999999961-34.006399999998393Z"/><path class="uuid-de03eb64-5910-4201-b930-ce13d3713070" d="M122.473645312499684,839.939490624999962l-2.416015625-7.6787109375h-10.69775390625l-2.37255859375,7.6787109375h-5.7802734375l10.09423828125-30.109375h7.07421875l10.0078125,30.109375h-5.90966796875ZM114.795422656249684,815.005896874999962h-.2158203125l-3.83935546875,12.380859375h7.93701171875l-3.8818359375-12.380859375Z"/><path class="uuid-de03eb64-5910-4201-b930-ce13d3713070" d="M151.935071093749684,839.939490624999962l-2.416015625-7.6787109375h-10.69775390625l-2.37255859375,7.6787109375h-5.7802734375l10.09423828125-30.109375h7.07421875l10.0078125,30.109375h-5.90966796875ZM144.256360156249684,815.005896874999962h-.21533203125l-3.83935546875,12.380859375h7.93701171875l-3.88232421875-12.380859375Z"/><path class="uuid-de03eb64-5910-4201-b930-ce13d3713070" d="M129.766099999999824,426.038500000000568h-32.207500000000437v-5.346600000000763h32.207500000000437v5.346600000000763ZM125.574700000000121,482.968699999999444h-5.518099999999322v-5.860300000000279h-12.874499999999898v5.860300000000279h-5.602999999999156v-28.914499999998952h23.995599999998376v28.914499999998952ZM125.317900000000918,437.074200000000928l-23.653399999999237.084999999999127v-5.345799999999144h23.653399999999237v5.260800000000017ZM125.403300000000854,448.28019999999924h-23.738799999999173v-5.346599999998944h23.738799999999173v5.346599999998944ZM124.334000000001652,415.174300000000585l-21.728500000001077.085399999999936v-5.346199999999953h21.728500000001077v5.260800000000017ZM120.056600000000799,471.847100000000864v-12.531700000001365h-12.959899999999834v12.531700000001365h12.959899999999834ZM175.31840000000102,448.36620000000039l-46.236900000001697.084899999999834v-5.260700000000725h11.462900000002264l2.480999999999767-13.216800000000148h-10.692900000001828v-5.260699999998906h11.548800000000483l1.838900000000649-9.795400000000882h-16.381800000001022v-5.346199999999953h42.473100000001068v5.261700000000928h-20.317399999999907l-1.753400000000511,9.794399999998859h17.622599999999693l-1.839899999999034,18.477100000000064h9.795000000000073v5.261700000000928ZM167.875999999999294,483.139600000000428h-5.51759999999922v-5.774400000000242h-21.64259999999922v5.774400000000242h-5.603500000001077v-28.998999999999796h32.763699999999517v28.998999999999796ZM162.358400000000074,472.10399999999936v-12.702699999999822h-21.727999999999156v12.702699999999822h21.727999999999156ZM161.502900000000409,429.888199999999415h-12.703100000000632l-2.480499999997846,13.302200000000084h13.857899999999063l1.325699999999415-13.302200000000084Z"/><path class="uuid-de03eb64-5910-4201-b930-ce13d3713070" d="M271.760700000001634,426.038500000000568h-77.759200000001329v-5.346600000000763h77.759200000001329v5.346600000000763ZM260.298300000001291,436.988299999999072h-55.604500000001281v-5.174899999998161h55.604500000001281v5.174899999998161ZM260.298300000001291,448.109300000000076h-55.604500000001281v-5.175699999999779h55.604500000001281v5.175699999999779ZM258.288100000000668,483.139600000000428h-5.51759999999922v-6.031200000001263h-40.1208000000006v6.031200000001263h-5.517400000000634v-29.085399999999936h51.155800000000454v29.085399999999936ZM258.20259999999962,414.618599999999788l-50.642499999998108.128000000000611v-5.175300000000789h50.642499999998108v5.047300000000178ZM252.770500000001448,471.847100000000864v-12.531700000001365h-40.1208000000006v12.531700000001365h40.1208000000006Z"/><path class="uuid-de03eb64-5910-4201-b930-ce13d3713070" d="M368.20510000000013,467.656199999999444h-34.432399999999689v5.945299999999406c0,6.358400000000984-3.378699999999299,9.538100000001577-10.137899999999718,9.538100000001577h-5.688500000000204l-2.095699999999852-5.260700000000725h7.955500000000029c2.794499999999971,0,4.192399999999907-1.284200000000055,4.192399999999907-3.849599999999555v-6.373100000000704h-37.554700000000594v-5.346700000000055h37.554700000000594v-3.678699999998571c5.95850000000064-2.224100000001272,10.221700000000055-4.304700000000594,12.78859999999986-6.244099999999889h-32.764400000000023v-4.919000000001688h42.261000000000422v4.662200000000666c-4.449699999999211,3.022399999999834-9.952699999999822,6.11620000000039-16.511000000000422,9.281199999999444v.898400000000038h34.432399999999689v5.346700000000055ZM364.611800000001494,451.787099999999555h-5.133800000001429v-8.853499999999258h-59.751399999999194v9.367199999998775h-5.60399999999936v-14.371099999998478h7.356399999998757v-26.091800000000148c4.048300000000381-.39850000000115,8.483600000001388-2.324300000000221,13.303200000000288-5.774000000001251l2.823300000000017,3.935100000000602c-2.596700000000055,2.395500000000538-6.132400000001326,4.206500000000233-10.608400000000984,5.432099999999991v3.593300000000454h10.949200000000928v4.448199999998906h-10.949200000000928v4.662100000001374h10.949200000000928v4.361899999999878h-10.949200000000928v5.433100000000195h45.467000000000553v-5.433100000000195h-10.436799999999494v-4.276900000000751h10.436799999999494v-5.003899999999703h-10.351299999998446v-4.36279999999897h10.351299999998446v-4.662600000001476h-12.104699999999866v-5.17529999999897h17.536599999999453v28.828599999998914h6.715800000001764v13.943400000000111ZM340.359400000000278,418.596199999999953l-2.99369999999999,3.678200000000288c-1.626400000001013-1.567399999999907-3.83639999999923-3.264699999999721-6.629899999998997-5.089900000000853-2.309500000001208,1.939500000000407-4.90480000000025,3.721700000000055-7.785100000000966,5.346700000000055l-3.507299999999304-3.08009999999922c2.766099999998914-1.139600000000428,5.188900000000103-2.480400000000373,7.271899999999732-4.020000000000437-3.480000000000473-1.311499999999796-6.288099999999758-2.224099999999453-8.427200000000084-2.737300000000687l2.182600000000093-3.935499999999593c3.164099999999962.798300000000381,6.343700000000354,1.825700000001234,9.537599999999657,3.079600000000937,2.024900000000343-1.909200000000055,3.721199999999953-3.863300000000891,5.090299999999843-5.859400000001187l3.592800000000352,2.865200000000186c-1.141600000000835,1.768599999999424-2.623999999999796,3.494200000001001-4.448200000000725,5.175800000000891,2.109300000000076,1.197299999999814,4.148400000001857,2.723099999999249,6.11620000000039,4.576699999999619ZM340.872099999999591,434.164999999999054l-3.591799999998329,2.823300000000017c-2.309600000000501-1.768099999999322-4.706100000001243-3.236399999999776-7.186100000000806-4.405299999998533-1.539500000000771,1.168899999998757-4.276799999999639,2.637199999999211-8.211899999999332,4.405299999998533l-3.251000000001113-2.566499999998996c3.677800000001298-1.738699999999881,6.315500000000611-3.250900000000911,7.913400000001275-4.533600000000661-1.597900000000664-.997599999998783-4.020800000000236-2.10989999999947-7.272000000000844-3.337400000000343l3.207800000000134-2.693400000000111c2.936499999999796,1.055700000000797,5.446299999998701,2.15230000000156,7.527799999999843,3.293000000001484.79739999999947-.455100000001039,2.409200000000055-1.824300000000221,4.833000000000538-4.105999999999767l3.935100000000602,2.010299999999916c-1.454100000000835,1.882299999999304-3.078199999999924,3.436499999999796-4.875800000001618,4.662999999998647,2.367000000000189,1.083099999999831,4.690200000000914,2.565500000000611,6.971499999999651,4.447299999999814Z"/><path class="uuid-de03eb64-5910-4201-b930-ce13d3713070" d="M464.561500000000706,467.656199999999444h-34.431899999999587v5.945299999999406c0,6.358400000000984-3.378600000000006,9.538100000001577-10.136899999999514,9.538100000001577h-5.688500000000204l-2.095700000001671-5.260700000000725h7.955600000001141c2.793399999998655,0,4.191399999999703-1.284200000000055,4.191399999999703-3.849599999999555v-6.373100000000704h-37.55370000000039v-5.346700000000055h37.55370000000039v-3.678699999998571c5.959200000001147-2.224100000001272,10.221600000000763-4.304700000000594,12.789499999998952-6.244099999999889h-32.764400000000023v-4.919000000001688h42.260000000002037v4.662200000000666c-4.449000000000524,3.022399999999834-9.953100000000632,6.11620000000039-16.511000000000422,9.281199999999444v.898400000000038h34.431899999999587v5.346700000000055ZM460.969700000000557,451.787099999999555h-5.134700000000521v-8.853499999999258h-59.751500000000306v9.367199999998775h-5.602999999999156v-14.371099999998478h7.356200000000172v-26.091800000000148c4.049499999999171-.39850000000115,8.483099999999467-2.324300000000221,13.302499999999782-5.774000000001251l2.822500000000218,3.935100000000602c-2.593500000000859,2.395500000000538-6.130699999999706,4.206500000000233-10.607700000000477,5.432099999999991v3.593300000000454h10.950200000001132v4.448199999998906h-10.950200000001132v4.662100000001374h10.950200000001132v4.361899999999878h-10.950200000001132v5.433100000000195h45.466800000000148v-5.433100000000195h-10.435600000000704v-4.276900000000751h10.435600000000704v-5.003899999999703h-10.35109999999986v-4.36279999999897h10.35109999999986v-4.662600000001476h-12.104499999999462v-5.17529999999897h17.536399999999048v28.828599999998914h6.717000000000553v13.943400000000111ZM438.239700000000994,433.205500000000029l-3.896899999999732,3.563000000000102c-1.778800000000047-2.672800000000279-4.324300000000221-6.018500000000131-6.785700000000361-8.096199999999953-3.826100000000224,4.263199999999415-6.973099999999249,6.97609999999986-9.432099999999991,8.136800000000221l-3.856499999999869-3.238300000000891c2.898999999999432-1.378899999999703,6.041999999999462-3.954599999999118,9.433600000000297-7.732399999998961-3.855900000000474-2.401900000000751-6.603500000001077-3.887300000000323-8.243600000001607-4.454600000000937l3.363800000000992-3.47899999999936c1.367099999999482.539999999999054,3.934999999999491,1.941899999999805,7.710900000000038,4.210399999999936,1.122100000000501-1.835900000000038,1.995100000000093-3.846700000000055,2.623999999999796-6.033199999999852h-12.878899999999703v-5.059600000000501h6.90480000000025v-5.209899999999834h4.43119999999908v5.209899999999834h8.194800000001123v5.059600000000501h-1.622100000000501c-.910599999999249,3.348599999999351-2.135200000000623,6.249499999999898-3.675300000000789,8.70509999999922,2.981000000001586,2.265600000000632,5.841800000000148,5.719700000001467,7.728000000000975,8.418400000000474Z"/><path class="uuid-de03eb64-5910-4201-b930-ce13d3713070" d="M562.33010000000013,425.868099999999686l-3.079099999999016,4.447799999999916c-9.724599999999555-2.395000000000437-17.336900000000242-5.161099999999351-22.839900000000853-8.29739999999947v3.849599999999555h-28.914999999999054v-4.235300000000279c-8.326399999999921,4.306599999999889-15.796900000001187,7.115200000000186-22.413099999999758,8.426300000000992l-2.822299999999814-4.490799999999581c16.024399999998423-3.906200000001263,29.368899999999485-10.436499999999796,40.034699999998338-19.58980000000156l5.260700000000725,1.75340000000142c-.570799999999508.712899999998626-1.069800000001123,1.212400000000343-1.497499999999491,1.49659999999858,9.466800000000148,7.870600000000195,21.557599999998274,13.417000000001281,36.271499999998923,16.639600000000428ZM553.218700000000354,450.375900000000911h-62.104400000000169v-20.06000000000131h62.104400000000169v20.06000000000131ZM548.129600000001119,483.224599999999555h-5.26050000000032v-3.421899999999368h-41.317800000000716v3.421899999999368h-5.260800000000017v-28.357399999998961h51.839100000001054v28.357399999998961ZM519.600600000000668,445.756800000001022v-10.693400000000111h-23.225599999999758v10.693400000000111h23.225599999999758ZM542.869100000000799,465.089799999999741v-5.51759999999922h-41.317800000000716v5.51759999999922h41.317800000000716ZM542.869100000000799,475.184499999999389v-5.603499999999258h-41.317800000000716v5.603499999999258h41.317800000000716ZM513.912100000000464,441.521899999999732l-4.405300000000352,3.079599999999118c-2.651299999999537-2.679199999998673-5.246999999999389-4.661599999999453-7.785099999999147-5.945299999999406l4.44800000000032-2.565899999999601c3.022699999999531,1.28269999999975,5.602999999999156,3.094199999999546,7.742399999999179,5.431599999999889ZM534.657200000000557,421.120100000000093c-4.134700000000521-2.166999999999462-8.142100000000937-5.089900000000853-12.019500000000335-8.768600000001243-4.135299999999916,3.421900000001187-8.768099999999322,6.34480000000076-13.900400000000445,8.768600000001243h25.91990000000078ZM547.959499999999935,445.756800000001022v-10.693400000000111h-23.097200000000157v10.693400000000111h23.097200000000157ZM542.783200000000761,437.586900000000242c-1.682600000000093,2.680700000000797-4.220699999999852,4.962899999998626-7.613499999999476,6.843699999999444l-4.704900000000634-2.352000000000771c3.736399999999776-2.10989999999947,6.301800000001094-4.22019999999975,7.698300000000017-6.331099999999424l4.620100000000093,1.839400000000751Z"/><path class="uuid-de03eb64-5910-4201-b930-ce13d3713070" d="M133.206046062993664,368.64600000000064l-1.546900000001187,2.056099999999788c-5.961900000000242-1.756800000001022-10.80029999999897-4.122999999999593-14.512199999999211-7.09860000000117-3.19970000000103,2.612300000000687-8.223100000001978,5.025400000000445-15.076600000000326,7.239199999999983l-1.721199999999953-2.090799999999945c6.629899999999907-1.838799999999537,11.643500000000131-4.070299999999406,15.040499999999156-6.694299999999203-3.408199999999852-3.221700000000055-5.699699999999211-7.139199999999619-6.870099999998274-11.754899999999907-.632300000001123,1.628399999999601-1.500500000000102,3.174300000000585-2.601100000002589,4.638699999999517l-1.860799999997653-1.704100000000835c1.475599999999758-1.757299999999304,2.663300000000163-3.684599999998682,3.565399999999499-5.781299999998737h-6.044400000000678v-2.160599999999249h14.092700000001059v-6.009300000001531h2.266200000000026v5.97360000000117h14.336900000000242v2.161700000000565h-6.009800000001633c-1.053199999998469,6.114699999998265-3.477499999999054,10.980899999998655-7.273899999998321,14.600499999998647,3.455500000000029,2.624100000000908,8.193799999999101,4.832099999999627,14.215299999999843,6.624100000000908ZM123.910646062992782,347.421400000001086h-13.598099999999249c.935499999999593,5.423299999998562,3.225499999997737,9.786599999999453,6.868599999999788,13.089299999999639,3.560999999999694-3.314400000001115,5.804200000000492-7.677700000000186,6.729499999999462-13.089299999999639Z"/><path class="uuid-de03eb64-5910-4201-b930-ce13d3713070" d="M217.370866062993628,364.552200000000084h-14.145300000000134v2.442900000000009c0,2.611300000000483-1.387199999999211,3.917999999999665-4.163800000000265,3.917999999999665h-2.336900000000242l-.860099999999875-2.161200000000463h3.267100000000937c1.148400000000038,0,1.722599999998238-.527299999999741,1.722599999998238-1.581499999998414v-2.618200000000797h-15.426199999998971v-2.19629999999961h15.426199999998971v-1.511200000000827c2.447800000000825-.913099999999758,4.199300000001131-1.768599999999424,5.252500000001419-2.564899999999398h-13.45850000000064v-2.02100000000064h17.359400000001187v1.915000000000873c-1.826700000001438,1.242199999998775-4.088400000000547,2.513199999999415-6.78230000000076,3.813000000000102v.369099999999889h14.145300000000134v2.19629999999961ZM215.895466062992455,358.034200000000055h-2.109300000000076v-3.637699999999313h-24.546399999999267v3.847599999999147h-2.301799999999275v-5.902299999999741h3.022499999999127v-10.718800000000556c1.663099999999758-.16359999999986,3.485300000000279-.954599999999118,5.465299999999843-2.372099999998682l1.158699999999953,1.616699999998673c-1.064899999999398.983899999999267-2.519000000000233,1.727600000000166-4.358600000000479,2.231499999999869v1.475599999999758h4.499000000000706v1.82760000000053h-4.499000000000706v1.915100000000166h4.499000000000706v1.791900000000169h-4.499000000000706v2.232500000000073h18.678900000001704v-2.232500000000073h-4.288500000000568v-1.756800000001022h4.288500000000568v-2.055699999998978h-4.251900000001115v-1.792400000000271h4.251900000001115v-1.914600000000064h-4.972600000000966v-2.126000000000204h7.203100000000632v11.841800000000148h2.760199999998804v5.72860000000037ZM205.932166062993019,344.399400000000242l-1.230999999999767,1.510200000000623c-.66649999999936-.644000000000233-1.57470000000103-1.340299999999843-2.722200000000157-2.090299999999843-.949199999999109.796899999999368-2.015600000000632,1.529299999998329-3.198200000000725,2.19629999999961l-1.440399999999499-1.264699999999721c1.135499999999411-.468700000001263,2.13130000000092-1.019000000000233,2.986800000000585-1.651800000001458-1.429700000000594-.53859999999986-2.584000000000742-.91359999999986-3.46140000000014-1.124499999999898l.896899999999732-1.616699999998673c1.29910000000018.328599999998914,2.605499999999665.75,3.917499999999563,1.265099999998711.832000000000335-.784200000000055,1.528299999999945-1.586900000000242,2.090100000001257-2.407199999999648l1.476599999999962,1.177700000000186c-.46900000000096.725599999999758-1.078400000000329,1.434600000000501-1.826399999999921,2.126000000000204.865699999998469.49120000000039,1.703099999998813,1.11869999999908,2.511699999999109,1.879899999999907ZM206.142566062992955,350.794899999998961l-1.475600000000668,1.159700000000157c-.948199999999815-.72609999999986-1.933099999999286-1.329599999999118-2.952099999999518-1.810099999998783-.633099999999104.480499999999665-1.757299999999304,1.083999999998923-3.373599999998987,1.810099999998783l-1.335900000000038-1.054699999998775c1.512199999999211-.714400000000751,2.595499999998538-1.334500000000844,3.251000000000204-1.862300000000687-.655500000001666-.410200000000259-1.65190000000166-.866199999998571-2.986800000000585-1.370100000000093l1.317800000000716-1.107500000000073c1.206599999999526.433600000000297,2.237299999998868.885299999999916,3.092799999998533,1.353100000000268.328600000000733-.1875.989800000001196-.749100000000908,1.984599999999773-1.686600000000908l1.616500000000087.826200000001336c-.597399999998743.772499999999127-1.264400000000023,1.411099999999351-2.001499999998487,1.914999999999054.970699999999852.444400000000314,1.924799999998868,1.053800000001502,2.86279999999897,1.827199999999721Z"/><path class="uuid-de03eb64-5910-4201-b930-ce13d3713070" d="M276.05788606299302,351.233900000001086c2.366699999998673,2.659099999998944,3.550800000000891,5.253899999999703,3.550800000000891,7.783699999999953,0,1.229899999998452-.319300000001022,2.207999999998719-.95850000000064,2.933999999999287-.63720000000103.727100000000064-1.530699999999342,1.089899999999034-2.679200000000492,1.089899999999034-.632299999999304,0-1.394500000000335-.076699999999619-2.284099999998944-.228099999998449l-.649900000000343-2.337400000000343c1.253899999998794.316899999999805,2.15519999999924.474699999998847,2.705500000000029.474699999998847.456099999999424,0,.872599999998783-.176299999999173,1.248099999998885-.526899999998932.375-.351599999999962.5625-.820300000001225.5625-1.406199999999444,0-.878000000000611-.322299999999814-2.002500000000509-.966599999999744-3.373600000000806-.644800000000032-1.370100000000093-1.61160000000018-2.676300000000992-2.899599999998827-3.917500000001382l3.426699999999983-8.803699999998571h-5.218000000000757v27.990299999999479h-2.302499999999782v-30.221199999999953h9.856399999998757v2.230900000000474l-3.391599999999016,8.311100000000806ZM300.288886062992788,364.464799999999741c-.305199999998877,1.897499999999127-.714799999999741,3.274400000000242-1.230999999999767,4.127899999999499-.514600000000428.855500000001484-1.352999999999156,1.283699999999953-2.511699999999109,1.283699999999953h-2.740700000002107c-1.828099999998813,0-2.740999999998166-.960899999998219-2.740999999998166-2.881299999999101v-9.29490000000078h-3.708200000000943c-.069799999999304,3.771500000000742-.805199999998877,6.597600000000966-2.204600000000937,8.477500000000873-1.400099999998929,1.879899999999907-3.996599999999489,3.458000000000538-7.792999999997846,4.735399999999572l-1.475600000001577-2.020499999998719c3.525400000000445-1.042000000001281,5.944900000000416-2.390200000001641,7.256900000000314-4.042000000001281,1.311999999999898-1.65139999999883,1.973099999999249-4.022999999999229,1.985300000000279-7.115299999999479h-4.814399999999296v-2.302200000000084h18.819299999999203v2.267099999999118h-5.870600000000195v8.75c0,.292400000000271.093999999999141.565400000001318.281699999998636.816899999999805.187300000000505.252400000001217.410200000001169.377400000001217.668000000000575.377400000001217h2.231700000000274c.456300000001647,0,.8054000000011-.374499999999898,1.045700000000579-1.124499999999898.238699999999881-.748999999999796.441399999999703-1.721199999999953.605899999999565-2.916500000001179l2.19630000000052.861300000000483ZM298.267886062992147,348.528299999999945l-2.230899999998655.035100000000966v-3.092700000001059h-13.248600000000806v3.092700000001059h-2.266799999999421v-5.324200000000928h7.713099999999031v-3.988299999999072h2.302700000000186v3.953699999998207h7.730499999999665v5.323700000000827ZM295.31668606299263,351.918900000000576h-11.878399999999601v-2.301300000000992h11.878399999999601v2.301300000000992Z"/><path class="uuid-de03eb64-5910-4201-b930-ce13d3713070" d="M384.455706062993158,364.552200000000084h-14.145500000000538v2.442900000000009c0,2.611300000000483-1.388699999999517,3.917999999999665-4.16359999999986,3.917999999999665h-2.336900000000242l-.86160000000018-2.161200000000463h3.268299999999726c1.148500000002059,0,1.722700000000259-.527299999999741,1.722700000000259-1.581499999998414v-2.618200000000797h-15.427999999999884v-2.19629999999961h15.427999999999884v-1.511200000000827c2.447700000000623-.913099999999758,4.199200000000928-1.768599999999424,5.252899999999499-2.564899999999398h-13.458999999998923v-2.02100000000064h17.359199999998964v1.915000000000873c-1.826399999999921,1.242199999998775-4.088199999998324,2.513199999999415-6.781999999999243,3.813000000000102v.369099999999889h14.145500000000538v2.19629999999961ZM382.978606062993094,358.034200000000055h-2.107899999999972v-3.637699999999313h-24.545400000000882v3.847599999999147h-2.302699999999277v-5.902299999999741h3.023400000000038v-10.718800000000556c1.661599999999453-.16359999999986,3.483899999999267-.954599999999118,5.462900000000445-2.372099999998682l1.16019999999844,1.616699999998673c-1.065899999999601.983899999999267-2.518099999999322,1.727600000000166-4.356999999999971,2.231499999999869v1.475599999999758h4.497600000000602v1.82760000000053h-4.497600000000602v1.915100000000166h4.497600000000602v1.791900000000169h-4.497600000000602v2.232500000000073h18.676800000001094v-2.232500000000073h-4.287100000001374v-1.756800000001022h4.287100000001374v-2.055699999998978h-4.25170000000071v-1.792400000000271h4.25170000000071v-1.914600000000064h-4.972200000000157v-2.126000000000204h7.203199999999924v11.841800000000148h2.758700000000317v5.72860000000037ZM373.016706062992853,344.399400000000242l-1.230900000000474,1.510200000000623c-.667999999999665-.644000000000233-1.575199999999313-1.340299999999843-2.723700000000463-2.090299999999843-.948199999998906.796899999999368-2.014100000000326,1.529299999998329-3.197000000000116,2.19629999999961l-1.441100000000006-1.264699999999721c1.13720000000103-.468700000001263,2.133300000001327-1.019000000000233,2.987800000000789-1.651800000001458-1.429700000000594-.53859999999986-2.583099999999831-.91359999999986-3.461500000000342-1.124499999999898l.895499999999629-1.616699999998673c1.300800000000891.328599999998914,2.606999999999971.75,3.918000000001484,1.265099999998711.831500000000233-.784200000000055,1.529299999998329-1.586900000000242,2.09230000000025-2.407199999999648l1.475599999997939,1.177700000000186c-.469499999999243.725599999999758-1.079099999999016,1.434600000000501-1.828199999999924,2.126000000000204.867200000001503.49120000000039,1.704600000000937,1.11869999999908,2.513200000001234,1.879899999999907ZM373.227206062992082,350.794899999998961l-1.475599999999758,1.159700000000157c-.949499999998807-.72609999999986-1.933100000000195-1.329599999999118-2.951399999999921-1.810099999998783-.633599999998296.480499999999665-1.756599999998798,1.083999999998923-3.374299999999494,1.810099999998783l-1.334899999999834-1.054699999998775c1.511199999999008-.714400000000751,2.594199999999546-1.334500000000844,3.250899999998182-1.862300000000687-.656699999998636-.410200000000259-1.652799999998933-.866199999998571-2.987799999997151-1.370100000000093l1.317900000000009-1.107500000000073c1.206499999997504.433600000000297,2.237299999997958.885299999999916,3.091799999999239,1.353100000000268.328099999997903-.1875.989299999999275-.749100000000908,1.985799999998562-1.686600000000908l1.616300000001502.826200000001336c-.597200000000157.772499999999127-1.265200000001641,1.411099999999351-2.003000000000611,1.914999999999054.972200000000157.444400000000314,1.927799999999479,1.053800000001502,2.864299999999275,1.827199999999721Z"/><path class="uuid-de03eb64-5910-4201-b930-ce13d3713070" d="M468.848326062991873,369.156199999999444h-31.977000000000771v-2.266599999999016h14.89890000000014v-8.24120000000039h-10.735399999999572v-2.266599999999016h10.735399999999572v-7.168400000000474h-7.959499999999025c-.960399999999936,2.494599999999991-2.565399999999499,4.796299999999974-4.814400000001115,6.904699999999139l-2.318399999998292-1.211900000000242c3.840799999999945-3.548800000000483,5.97899999999936-7.895499999998719,6.412599999999657-13.037099999999555l2.372099999998682.685100000000602c-.093799999998737,1.194799999999304-.369199999999182,2.670899999999165-.826699999999619,4.428199999998469h7.099599999999555v-7.69629999999961h2.371399999999994v7.660700000000361h12.404500000000553v2.266600000000835h-12.404500000000553v7.133700000000317h10.577800000000934v2.266199999998207h-10.577800000000934v8.240700000000288h14.741400000000795v2.302200000000084Z"/><path class="uuid-de03eb64-5910-4201-b930-ce13d3713070" d="M553.961646062992259,347.385700000000725l-1.264400000000023,1.827699999999822c-3.993899999999485-.983900000001086-7.122300000000905-2.119700000001103-9.383100000000923-3.408300000000963v1.580600000001141h-11.877899999999499v-1.739199999999983c-3.41990000000078,1.769000000000233-6.489300000001094,2.922800000000279-9.206099999999424,3.46140000000014l-1.159600000000864-1.845200000001569c6.583000000000538-1.604499999999462,12.064400000001115-4.287099999999555,16.445799999999508-8.046899999999368l2.160600000001068.720699999999852c-.234900000001289.292999999999665-.439400000001115.497999999999593-.614299999999275.614299999999275,3.888199999999415,3.233400000000984,8.855999999999767,5.511700000000928,14.898999999999432,6.834900000001653ZM550.219946062991767,357.454100000000835h-25.511699999999109v-8.240700000000288h25.511699999999109v8.240700000000288ZM548.129146062991822,370.947200000000521h-2.162200000000666v-1.405200000001059h-16.973099999999249v1.405200000001059h-2.160599999999249v-11.648400000000038h21.295899999999165v11.648400000000038ZM536.408846062992779,355.556599999999889v-4.393099999999322h-9.540000000000873v4.393099999999322h9.540000000000873ZM545.966946062991155,363.497999999999593v-2.266599999999016h-16.973099999999249v2.266599999999016h16.973099999999249ZM545.966946062991155,367.644500000000335v-2.301800000001094h-16.973099999999249v2.301800000001094h16.973099999999249ZM534.071946062990719,353.817399999999907l-1.809799999999086,1.264600000000428c-1.088599999999133-1.100599999999758-2.154999999998836-1.915000000000873-3.197000000000116-2.442399999999907l1.826600000000326-1.05370000000039c1.242200000000594.52639999999883,2.301299999999173,1.270500000000538,3.180199999998877,2.231499999999869ZM542.593246062991057,345.435999999999694c-1.69800000000032-.889599999998609-3.34309999999823-2.090799999999945-4.936299999999392-3.602499999999054-1.700199999999313,1.405699999999342-3.602600000000166,2.606899999998859-5.710699999999633,3.602499999999054h10.646999999999025ZM548.058346062992314,355.556599999999889v-4.393099999999322h-9.48739999999998v4.393099999999322h9.48739999999998ZM545.932846062992212,352.200699999999415c-.691899999999805,1.101000000000568-1.734700000000885,2.037599999999657-3.128500000000713,2.811000000001513l-1.932099999999991-.965800000001764c1.533699999999953-.867199999998775,2.588400000000547-1.734399999999368,3.162599999999657-2.60109999999986l1.898000000001048.755900000000111Z"/></g></svg>