<?xml version="1.0" encoding="UTF-8"?><svg id="uuid-ba85fde0-32b3-462a-8b4c-2b23739d8dbf" xmlns="http://www.w3.org/2000/svg" width="690.992772677885341mm" height="250.004043591304878mm" xmlns:xlink="http://www.w3.org/1999/xlink" viewBox="0 0 1958.719700000000557 708.672890114614347"><defs><style>.uuid-552d9fab-6d0f-4467-a723-9404e35daabb{fill:none;}.uuid-8642a835-4dfb-4f10-99aa-7b49e590edd0{clip-path:url(#uuid-765bbf1b-0b86-4db9-bcc8-db4e3091cb81);}.uuid-7c0caaed-ea2f-459a-b9e0-01085dc0f224{fill:#a39b4b;}</style><clipPath id="uuid-765bbf1b-0b86-4db9-bcc8-db4e3091cb81"><rect class="uuid-552d9fab-6d0f-4467-a723-9404e35daabb" x="-.000000000000455" y=".000999999974738" width="1958.719700000000557" height="708.673790114640724"/></clipPath></defs><g class="uuid-8642a835-4dfb-4f10-99aa-7b49e590edd0"><path class="uuid-7c0caaed-ea2f-459a-b9e0-01085dc0f224" d="M158.441400000000613,271.575193139433395c-9.105500000000575,21.527296975181343-14.519600000000537,44.144496975181028-16.170900000000074,67.425796975181584,3.588799999999537-2.921900000000278,8.160100000000057-4.679700000000594,13.137699999999313-4.679700000000594,5.495100000000093,0,10.487300000000687,2.15230000000065,14.216800000000148,5.636700000000019,7.337800000000243-95.593696287775856,87.224600000000464-170.872994386060782,184.701100000000224-170.872994386060782,7.552800000000389,0,13.674800000000687-6.123099845317483,13.674800000000687-13.675799654520233,0-7.552799809200224-6.122000000000298-13.675799654520233-13.674800000000687-13.675799654520233-28.689399999999296,0-56.536099999999351,5.624999857900548-82.766599999999926,16.718699577649204-25.317399999999907,10.71099972941829-48.050799999999981,26.033299342344435-67.566400000000613,45.550798849290004-19.518499999999221,19.51759526816204-34.844699999999648,42.249998932676135-45.551699999999073,67.572298292981031Z"/><path class="uuid-7c0caaed-ea2f-459a-b9e0-01085dc0f224" d="M339.185500000000502,538.97169011461483c-94.95510000000013-7.683600000000297-169.672900000000482-86.964899999999943-170.101599999999962-183.796900000000278,0-7.552700000000186-6.120100000000093-13.675799999999981-13.675700000000688-13.675799999999981-7.552799999999479,0-13.675799999999072,6.123099999999795-13.675799999999072,13.675799999999981.109300000000076,28.394540000000234,5.721700000000055,55.953100000000632,16.708999999999833,81.925799999999981,10.706999999999425,25.320300000000316,26.033199999999852,48.054700000000594,45.551699999999073,67.570300000000316,19.515600000000632,19.51760000000013,42.249000000000706,34.841800000000148,67.566400000000613,45.552700000000186,21.256900000000314,8.988299999999981,43.574200000000019,14.384799999999814,66.540100000000166,16.109399999999368-2.886800000000221-3.578099999999722-4.626999999999498-8.121099999999387-4.626999999999498-13.066399999999703,0-5.535200000000259,2.183599999999387-10.558600000000297,5.712899999999536-14.29489999999987Z"/><path class="uuid-7c0caaed-ea2f-459a-b9e0-01085dc0f224" d="M502.52730000000065,487.413090114614533c-2.66989999999987-2.66989999999987-6.169000000000779-4.003899999999703-9.669000000000779-4.003899999999703-3.498999999999796,0-7.000899999999092,1.333999999999833-9.671800000000076,4.003899999999703-33.342799999999443,32.293000000000575-78.777399999999034,52.177700000000186-128.860399999999572,52.177700000000186-7.552700000000186,0-13.675799999999981,6.123099999999795-13.675799999999981,13.675799999999981s6.123099999999795,13.675799999999981,13.675799999999981,13.675799999999981c28.690500000000611,0,56.534200000000055-5.625,82.763700000000426-16.718799999999646,24.407199999999648-10.322200000000521,46.40139999999974-24.949200000000019,65.4375-43.468700000000354,5.343700000000354-5.339899999999943,5.343700000000354-14,0-19.341800000000148Z"/><path class="uuid-7c0caaed-ea2f-459a-b9e0-01085dc0f224" d="M354.32760000000053,141.729490114615146c-28.690399999999499,0-56.540100000000166,5.629906162773295-82.770000000000437,16.719705882621383-25.320299999999406,10.709999729442643-48.050299999999879,26.040099342170834-67.560099999999693,45.549798849315266-19.519999999999527,19.520495268063314-34.850100000000566,42.249998932675226-45.5600000000004,67.580098292783077-9.100099999999657,21.520496975279457-14.520099999999729,44.14059697527955-16.170000000000073,67.419896975279698,3.589900000000853-2.91989999999987,8.159700000000157-4.679699999999684,13.13970000000063-4.679699999999684,5.5,0,10.490199999999277,2.150399999999536,14.22019999999975,5.640699999999924,7.33980000000065-95.600596287652479,87.220200000000659-170.870194386182447,184.700200000000223-170.870194386182447,7.549799999999777,0,13.66989999999987-6.129799845148227,13.66989999999987-13.680599654398975,0-7.54979980927601-6.120100000000093-13.679705959418243-13.66989999999987-13.679705959418243ZM339.1875,538.969690114614423c-94.959999999999127-7.680599999999686-169.670000000000073-86.959899999999834-170.100099999999657-183.789999999999964,0-7.560599999999795-6.120199999999386-13.680699999999888-13.680199999999786-13.680699999999888-7.549799999999777,0-13.66989999999987,6.120100000000093-13.66989999999987,13.680699999999888.100099999999657,28.389640000000327,5.72019999999975,55.950200000000223,16.700199999999313,81.91989999999987,10.709899999999834,25.320300000000316,26.040000000000873,48.059600000000501,45.5600000000004,67.570300000000316,19.509799999999814,19.519600000000537,42.239800000000287,34.839899999999943,67.560099999999693,45.549799999999777,21.259700000000521,8.990300000000389,43.579600000000937,14.38970000000063,66.540000000000873,16.109400000000278-2.880400000000009-3.569300000000112-4.620100000000093-8.119099999999889-4.620100000000093-13.059599999999591,0-5.539999999999964,2.179699999999684-10.559500000000298,5.709999999999127-14.299800000000687ZM502.52730000000065,487.40919011461483c-2.66989999999987-2.66989999999987-6.16989999999987-4-9.66989999999987-4s-7,1.33010000000013-9.66990000000078,4c-33.339899999999034,32.300799999999981-78.780299999999443,52.180599999999686-128.85989999999947,52.180599999999686-7.550299999999879,0-13.680200000000696,6.120200000000295-13.680200000000696,13.679700000000594,0,7.549799999999777,6.129900000000816,13.670000000000073,13.680200000000696,13.670000000000073,28.689899999999398,0,56.52980000000025-5.620200000000295,82.759799999999814-16.71980000000076,24.410100000000057-10.320299999999406,46.399900000000343-24.950199999999313,65.439900000000307-43.459899999999834,5.339799999999741-5.339899999999943,5.339799999999741-14,0-19.350599999999758Z"/><path class="uuid-7c0caaed-ea2f-459a-b9e0-01085dc0f224" d="M466.917400000000271,241.748993892906583c-30.079999999999927-30.06929924038559-70.059999999999491-46.629898822029645-112.589799999999741-46.629898822029645-42.530300000000352,0-82.510299999999916,16.560599581644055-112.590299999999843,46.629898822029645-30.069900000000416,30.080099240112759-46.629899999999907,70.060596221707783-46.629899999999907,112.590796221707933,0,42.529340000000047,16.559999999999491,82.509799999999814,46.629899999999907,112.58010000000013,30.079999999999927,30.079099999999926,70.059999999999491,46.639699999999721,112.590299999999843,46.639699999999721,42.52980000000025,0,82.509799999999814-16.560599999999795,112.589799999999741-46.639699999999721,30.069900000000416-30.070300000000316,46.629899999999907-70.050760000000082,46.629899999999907-112.58010000000013,0-42.53020000000015-16.559999999999491-82.510696981595174-46.629899999999907-112.590796221707933ZM264.447200000000521,310.459990114614811h-12.939900000000307v87.759729999999763h12.939900000000307v7.609370000000126h-22.33010000000013v-102.979500000000371h22.33010000000013v7.610400000000482ZM282.07760000000053,405.829090114614701v-72.729500000000371c0-6.270499999999629-.100099999999657-11.940399999999499-.320300000000316-17.020499999999629-.210000000000036-5.089799999999741-.540099999999256-9.5-.96979999999985-13.229500000000371h13.199800000000323v72.410200000000259c0,2.059500000000298.03019999999924,4.479500000000371.090299999999843,7.269500000000335.069799999999304,2.790039999999863.159700000000157,5.620109999999841.259799999999814,8.499996999999894.109800000000178,2.870112999999947.240200000000186,5.620112999999947.39010000000053,8.240232999999535.149899999999434,2.61037000000033.33009999999922,4.799770000000535.549799999999777,6.559570000000349h-13.199700000000121ZM351.597600000000966,348.609390114615053h-12.110300000000279v48.790009999999711h12.110300000000279v8.429689999999937h-36.050300000000789v-8.429689999999937h11.910200000000259v-48.790009999999711h-11.910200000000259v-8.429700000000594h36.050300000000789v8.429700000000594ZM427.867100000000391,398.749010114614975c0,7.249979999999596-.639599999999518,13.270480000000134-1.899899999999434,18.050779999999577-1.270000000000437,4.789999999999964-3.040000000000873,8.609400000000278-5.3100000000004,11.460000000000036-2.269999999999527,2.849600000000464-5.009800000000723,4.870100000000093-8.210000000000036,6.049799999999777-3.199700000000121,1.179700000000594-6.75,1.769500000000335-10.649900000000343,1.769500000000335-1.930199999999786,0-4-.309599999999591-6.209899999999834-.929699999999684-2.210000000000036-.629899999999907-4.220299999999952-1.490200000000186-6.020099999999729-2.610300000000279l4.180199999999786-9.649499999999534c.989800000000287.729499999999462,2.310099999999693,1.339899999999943,3.960000000000036,1.83009999999922,1.649900000000343.490300000000389,3.339799999999741.740300000000389,5.049799999999777.740300000000389,2.0600000000004,0,3.910100000000057-.33010000000013,5.539999999999964-1,1.629899999999907-.660200000000259,3.010299999999916-1.83010000000013,4.149900000000343-3.5,1.140199999999822-1.680699999999888,2.010299999999916-3.970699999999852,2.610399999999572-6.890699999999924.599600000000464-2.91989999999987.899900000000343-6.629799999999705.899900000000343-11.139600000000428v-28.320299999999406c0-5.149400000000242-.270000000000437-9.320300000000316-.810100000000602-12.509800000000723-.530299999999443-3.200199999999313-1.339799999999741-5.690399999999499-2.410099999999147-7.469699999999648-1.069900000000416-1.780300000000352-2.409700000000157-2.970699999999852-4.020099999999729-3.58010000000013-1.609800000000178-.589799999999741-3.489700000000084-.890599999999722-5.629800000000614-.890599999999722-2.319900000000416,0-4.58010000000013.539999999999964-6.790100000000166,1.640599999999722-2.209899999999834,1.08980000000065-4.239700000000084,2.509799999999814-6.089799999999741,4.25-1.840400000000045,1.729500000000371-3.47019999999975,3.689500000000407-4.890199999999822,5.88970000000063-1.410100000000057,2.179599999999482-2.459899999999834,4.370099999999184-3.149900000000343,6.559499999999389v37.33010000000013h-11.910100000000057v-39.58010000000013c0-6.349599999999555-.35990000000038-11.729499999999462-1.089899999999943-16.129899999999907-.729900000000271-4.399400000000242-1.439899999999398-7.709899999999834-2.129899999999907-9.939400000000205h11.589899999999943c.259800000000723.689400000000205.509800000000723,1.58010000000013.769999999999527,2.66989999999987.259800000000723,1.089900000000853.489800000001196,2.240200000000186.710000000000946,3.439500000000407.209899999999834,1.209899999999834.410099999999147,2.390599999999722.58009999999922,3.539999999999964l.509700000000521,2.900400000000445c4.120100000000093-4.88970000000063,8.260299999999916-8.41990000000078,12.41989999999987-10.589899999999943,4.170399999999972-2.160100000000057,8.5-3.25,13.010299999999916-3.25,3.430199999999786,0,6.470200000000659.570399999999609,9.100100000000566,1.709999999999127,2.639599999999518,1.13970000000063,4.85989999999947,2.939500000000407,6.669899999998961,5.399400000000242,1.799800000000687,2.470699999999852,3.160200000000259,5.670900000000074,4.080100000001039,9.600599999999758.929699999999684,3.91990000000078,1.389599999999518,8.649400000000242,1.389599999999518,14.189500000000407v28.959920000000238ZM466.537500000000364,405.829090114614701h-22.329999999999927v-7.609370000000126h12.939899999999398v-87.759729999999763h-12.939899999999398v-7.610400000000482h22.329999999999927v102.979500000000371Z"/><path class="uuid-7c0caaed-ea2f-459a-b9e0-01085dc0f224" d="M626.665976719670653,336.830994181778806v-100.47110000000248h12.090799694559792v89.819300000002841h42.750998920019811v10.651799999999639h-54.841798614579602Z"/><path class="uuid-7c0caaed-ea2f-459a-b9e0-01085dc0f224" d="M703.385674781569833,245.140094181777386c-2.497099936919767,0-4.295899891480076-.597600000000966-5.397474781570054-1.798800000000483-1.104425054179956-1.199199999999109-1.656225040239406-2.756799999999203-1.656225040239406-4.67870000000039v-1.871100000000297c0-1.918499999999767.55179998605945-3.477499999997235,1.656225040239406-4.678199999998469,1.101574890089978-1.198800000001938,2.900374844650287-1.799299999998766,5.397474781570054-1.799299999998766,2.494125218430781,0,4.294025218430761.600499999996828,5.397525218430019,1.799299999998766,1.102500000000873,1.200700000001234,1.655200000001059,2.759699999998702,1.655200000001059,4.678199999998469v1.871100000000297c0,1.921900000001187-.552700000000186,3.479500000001281-1.655200000001059,4.67870000000039-1.103499999999258,1.201199999999517-2.903399999999237,1.798800000000483-5.397525218430019,1.798800000000483ZM697.627874927020457,262.55809418177887h11.515625072979674v74.272899999999936h-11.515625072979674v-74.272899999999936Z"/><path class="uuid-7c0caaed-ea2f-459a-b9e0-01085dc0f224" d="M733.613199999999779,336.830994181778806v-74.272899999999936h11.515700000000834v11.953099999998813h.576099999999315c1.82130000000052-4.17869999999948,4.38970000000063-7.505799999998999,7.700200000001132-9.974600000000464,3.311599999999089-2.469699999998738,7.748099999998885-3.706500000001142,13.314499999999498-3.706500000001142,7.676800000000185,0,13.747099999999591,2.471199999999953,18.208999999999833,7.412599999999657,4.461900000000242,4.943300000002637,6.693299999999908,11.925700000003417,6.693299999999908,20.94380000000092v47.644500000002154h-11.514599999999518v-45.728500000001077c0-13.368600000001607-5.615200000000186-20.052700000000186-16.841800000000148-20.052700000000186-2.302700000000186,0-4.535200000000259.290499999999156-6.693400000000111.865699999998469-2.159100000000763.578100000002451-4.102499999999964,1.443900000002031-5.829999999999927,2.597700000002078-1.726599999999962,1.153800000000047-3.09480000000076,2.620100000000093-4.101599999999962,4.399399999998423-1.007800000000316,1.778800000000047-1.511700000000019,3.871100000000297-1.511700000000019,6.274900000000343v51.64350000000195h-11.515700000000834Z"/><path class="uuid-7c0caaed-ea2f-459a-b9e0-01085dc0f224" d="M874.387700000000223,334.384294181778387c0,10.266599999999016-2.878899999999703,18.328099999998813-8.636799999999312,24.181599999999889-5.757800000000316,5.852999999999156-13.868100000000595,8.781299999998737-24.326100000000224,8.781299999998737-6.045900000000074,0-11.253000000000611-.940500000000611-15.618200000000797-2.818400000000111-4.367199999999684-1.882300000001123-7.988299999999072-4.363300000000891-10.867199999999684-7.447299999999814l6.765599999999722-7.952099999998609c2.494200000001001,2.568299999998999,5.373100000000704,4.54490000000078,8.636800000000221,5.926299999999173,3.260700000000725,1.380799999998999,7.052700000000186,2.070800000001327,11.371100000000297,2.070800000001327,6.715799999999945,0,11.921800000000076-1.855500000001484,15.617099999999482-5.563500000000204,3.693400000000111-3.713900000002468,5.542000000000371-9.183600000000297,5.542000000000371-16.411600000003091v-10.273999999997613h-.575200000000223c-2.20889999999963,4.561099999998987-5.087799999999334,7.979499999997643-8.636699999999109,10.259799999999814-3.551699999999983,2.281200000001263-7.917000000000371,3.421399999999267-13.099600000000464,3.421399999999267-4.605500000000575,0-8.779300000000148-.91359999999986-12.522400000000744-2.73489999999947-3.742199999998775-1.822199999998702-6.909199999999146-4.413100000001577-9.5-7.772400000001653-2.590899999999237-3.358399999997346-4.606499999999869-7.435599999997066-6.045899999999165-12.235399999997753-1.439500000000407-4.79739999999947-2.158199999999852-10.170900000000984-2.158199999999852-16.122100000000501,0-5.948199999998906.718699999999444-11.321700000000419,2.158199999999852-16.121100000000297,1.439399999999296-4.797299999998359,3.454999999999927-8.875400000000809,6.045899999999165-12.235300000000279,2.590800000000854-3.357899999999063,5.757800000001225-5.948700000000827,9.5-7.772499999999127,3.743100000000595-1.82220000000234,7.916900000000169-2.734800000001997,12.522400000000744-2.734800000001997,5.182600000000093,0,9.619200000000092,1.117600000001403,13.315400000000409,3.34860000000026,3.692399999999907,2.233400000001893,6.499099999999089,5.676800000002004,8.420899999999165,10.332500000001346h.575200000000223v-11.953099999998813h11.515699999999924v71.826199999999517ZM844.015600000000632,328.338394181777403c2.591800000000148,0,5.038099999999758-.337400000000343,7.341800000000148-1.01220000000103,2.302700000000186-.674800000000687,4.292999999999665-1.664600000000064,5.972599999999147-2.966300000000047,1.677800000000389-1.299899999998161,3.02350000000115-2.89259999999922,4.031300000000556-4.772499999999127,1.006800000000112-1.88039999999819,1.510699999999815-4.075199999999313,1.510699999999815-6.582999999998719v-27.632300000001123c0-2.024000000001251-.481399999999667-3.929199999998673-1.439400000000205-5.715400000000955-.959999999999127-1.783199999998033-2.30369999999948-3.301199999998062-4.030299999999443-4.556099999997969-1.727499999999964-1.252500000002328-3.742199999999684-2.240700000002107-6.04489999999987-2.964400000000751-2.30370000000039-.724099999999453-4.75-1.08640000000014-7.341800000000148-1.08640000000014-6.527400000000853,0-11.709000000000742,2.073199999998906-15.54490000000078,6.221199999999953-3.839899999999034,4.147400000001653-5.757799999999406,9.499500000001717-5.757799999999406,16.058099999998376v12.730000000003201c0,6.558599999996659,1.917900000000373,11.911099999997532,5.757799999999406,16.058599999996659,3.835900000000038,4.14690000000337,9.017499999999927,6.220700000001671,15.54490000000078,6.220700000001671Z"/><path class="uuid-7c0caaed-ea2f-459a-b9e0-01085dc0f224" d="M944.628900000000613,324.877394181778072h-.576200000000426c-.768599999999424,1.711499999997613-1.704099999999926,3.398499999999331-2.806599999999889,5.060600000000704-1.10360000000037,1.662099999997736-2.470699999999852,3.134699999998702-4.101599999999962,4.41649999999936-1.632799999999406,1.282199999997829-3.598599999999351,2.30370000000039-5.902299999999741,3.063900000001013-2.302800000000389.759799999999814-4.990300000000389,1.140199999998003-8.060600000000704,1.140199999998003-7.677699999999277,0-13.771499999998923-2.469700000001467-18.280299999999443-7.41359999999986-4.511700000000019-4.94090000000142-6.765599999999722-11.921900000001187-6.765599999999722-20.94289999999819v-47.644000000000233h11.515599999999722v45.727499999997235c0,13.368700000002718,5.661199999999553,20.052800000001298,16.985400000000482,20.052800000001298,2.302699999999277,0,4.534200000000055-.287100000001374,6.693299999998999-.86620000000039,2.159200000000055-.575199999999313,4.07720000000063-1.440500000000611,5.757900000000518-2.594799999998941,1.677700000000186-1.154300000001967,3.022399999999834-2.620100000000093,4.029300000000148-4.399400000002061,1.007799999999406-1.778299999998126,1.511700000000019-3.919899999997142,1.511700000000019-6.421399999999267v-51.498499999997875h11.515599999999722v74.272899999999936h-11.515599999999722v-11.953600000000733Z"/><path class="uuid-7c0caaed-ea2f-459a-b9e0-01085dc0f224" d="M986.371100000000297,245.140094181777386c-2.496100000000297,0-4.295000000000073-.597600000000966-5.397500000000036-1.798800000000483-1.104500000000371-1.199199999999109-1.655299999999443-2.756799999999203-1.655299999999443-4.67870000000039v-1.871100000000297c0-1.918499999999767.550799999999072-3.477499999997235,1.655299999999443-4.678199999998469,1.102499999999964-1.198800000001938,2.90139999999974-1.799299999998766,5.397500000000036-1.799299999998766,2.494099999999889,0,4.293900000000576.600499999996828,5.398400000000038,1.799299999998766,1.101599999999962,1.200700000001234,1.654300000000148,2.759699999998702,1.654300000000148,4.678199999998469v1.871100000000297c0,1.921900000001187-.552700000000186,3.479500000001281-1.654300000000148,4.67870000000039-1.104499999999462,1.201199999999517-2.904300000000148,1.798800000000483-5.398400000000038,1.798800000000483ZM980.613199999999779,262.55809418177887h11.515700000000834v74.272899999999936h-11.515700000000834v-74.272899999999936Z"/><path class="uuid-7c0caaed-ea2f-459a-b9e0-01085dc0f224" d="M1038.910100000000966,338.558594181777153c-6.909200000000055,0-12.691400000000613-1.319800000001123-17.344700000000557-3.95850000000064-4.655299999999443-2.638199999997596-8.66110000000026-6.165099999998347-12.019499999999425-10.58009999999922l8.204099999999016-6.621100000000297c2.878900000000613,3.648000000001048,6.093700000000354,6.45509999999922,9.644500000000335,8.41990000000078,3.548800000000483,1.968799999998737,7.676800000000185,2.951700000001438,12.378899999999703,2.951700000001438,4.894500000000335,0,8.709000000000742-1.055200000002515,11.443400000000111-3.166500000002998,2.735300000000279-2.10989999999947,4.102500000000873-5.085899999998219,4.102500000000873-8.924799999997049,0-2.878900000003341-.935500000000502-5.348200000000361-2.806600000000799-7.413100000001577-1.872099999999591-2.0625-5.253899999999703-3.476600000001781-10.147500000000036-4.246100000000297l-5.902299999999741-.863799999999173c-3.45510000000013-.47899999999936-6.621100000000297-1.223099999999249-9.5-2.230900000002293-2.878899999999703-1.007799999999406-5.397500000000036-2.350599999997939-7.556700000000092-4.030299999998533-2.159200000000055-1.677700000000186-3.839799999999741-3.76510000000053-5.038099999999758-6.261699999999109-1.201100000000224-2.49409999999898-1.799799999999777-5.469700000001467-1.799799999999777-8.923800000000483,0-3.646499999998923.669899999998961-6.837400000000343,2.015699999999924-9.572800000001735,1.34269999999924-2.73489999999947,3.189399999999296-5.012199999997392,5.541900000000169-6.836899999998423,2.350599999999758-1.821800000001531,5.157299999998941-3.189900000001217,8.420000000000073-4.102100000000064,3.261699999999109-.91110000000117,6.765599999998813-1.367600000001403,10.50879999999961-1.367600000001403,6.04489999999987,0,11.105400000000373,1.05710000000181,15.185499999999593,3.166500000002998,4.077100000000428,2.112299999997049,7.651400000000649,5.038099999997939,10.72360000000026,8.780199999997421l-7.629799999999705,6.909200000001874c-1.632900000000518-2.302700000000186-4.029300000000148-4.39010000000053-7.19630000000052-6.260700000002544-3.167000000000371-1.871599999999489-7.149500000000444-2.807600000000093-11.947299999999814-2.807600000000093-4.799799999999777,0-8.420900000000074,1.032200000001467-10.868199999999888,3.095200000003388-2.44629999999961,2.063899999997375-3.66989999999987,4.87159999999858-3.66989999999987,8.420399999999063,0,3.648399999998219,1.22360000000026,6.286099999997532,3.66989999999987,7.91649999999936,2.447299999999814,1.633300000001327,5.974599999999555,2.831500000000233,10.58010000000013,3.599099999999453l5.757800000000316.863300000000891c8.251999999999498,1.247999999999593,14.106499999999869,3.623499999997875,17.560599999998885,7.125,3.454999999999927,3.504899999999907,5.182600000000093,8.085399999999936,5.182600000000093,13.746100000000297,0,7.197299999999814-2.447299999999814,12.860799999998562-7.340799999999945,16.985799999998562-4.894599999999627,4.127500000002328-11.613299999999072,6.189500000000407-20.152399999999034,6.189500000000407Z"/><path class="uuid-7c0caaed-ea2f-459a-b9e0-01085dc0f224" d="M1102.101500000000669,336.830994181778806c-4.029300000000148,0-7.077100000000428-1.124500000001717-9.139600000000428-3.373500000001513-2.064500000000407-2.248999999999796-3.094699999999648-5.195299999999406-3.094699999999648-8.834500000000844v-51.846199999999953h-12.235399999999572v-10.218699999997625h6.909200000000055c2.494099999999889,0,4.197199999998702-.504899999999907,5.11029999999937-1.512700000002951.911199999999553-1.006799999999203,1.367199999999684-2.756799999999203,1.367199999999684-5.252899999999499v-13.819400000000314h10.364300000000185v20.585000000002765h16.265599999999722v10.218699999997625h-16.265599999999722v53.835000000002765h15.113299999999981v10.219199999999546h-14.394599999999627Z"/><path class="uuid-7c0caaed-ea2f-459a-b9e0-01085dc0f224" d="M1141.97360000000026,245.140094181777386c-2.496099999999387,0-4.295900000000074-.597600000000966-5.397500000000036-1.798800000000483-1.104499999999462-1.199199999999109-1.65519999999924-2.756799999999203-1.65519999999924-4.67870000000039v-1.871100000000297c0-1.918499999999767.550699999999779-3.477499999997235,1.65519999999924-4.678199999998469,1.101599999999962-1.198800000001938,2.901400000000649-1.799299999998766,5.397500000000036-1.799299999998766,2.495100000000093,0,4.293899999999667.600499999996828,5.397500000000036,1.799299999998766,1.102499999999964,1.200700000001234,1.656200000000354,2.759699999998702,1.656200000000354,4.678199999998469v1.871100000000297c0,1.921900000001187-.55370000000039,3.479500000001281-1.656200000000354,4.67870000000039-1.10360000000037,1.201199999999517-2.902399999999943,1.798800000000483-5.397500000000036,1.798800000000483ZM1136.215799999999945,262.55809418177887h11.515600000000632v74.272899999999936h-11.515600000000632v-74.272899999999936Z"/><path class="uuid-7c0caaed-ea2f-459a-b9e0-01085dc0f224" d="M1199.837900000000445,338.558594181777153c-5.181700000000092,0-9.836999999999534-.91359999999986-13.961999999999534-2.73489999999947-4.126900000001115-1.822199999998702-7.606400000000576-4.413100000001577-10.435500000000502-7.772400000001653-2.831999999999425-3.358399999997346-4.99119999999948-7.435599999997066-6.477499999999964-12.235399999997753-1.488299999999981-4.79739999999947-2.230499999999665-10.170900000000984-2.230499999999665-16.122100000000501,0-5.948199999998906.742199999999684-11.321700000000419,2.230499999999665-16.121100000000297,1.486300000000483-4.797299999998359,3.645500000000538-8.875400000000809,6.477499999999964-12.235300000000279,2.829099999999926-3.357899999999063,6.308599999999387-5.948700000000827,10.435500000000502-7.772499999999127,4.125-1.82220000000234,8.780299999999443-2.734800000001997,13.961999999999534-2.734800000001997,7.388600000000224,0,13.315399999999499,1.607900000002701,17.777299999999741,4.821700000000419,4.461900000000242,3.216400000001158,7.79490000000078,7.413100000001577,10.003899999999703,12.594800000002579l-9.644499999999425,4.894499999998516c-1.343799999999646-3.837400000001253-3.550799999999981-6.813000000001921-6.621099999999387-8.924800000000687-3.072300000000723-2.109400000001187-6.909200000000055-3.16649999999936-11.515600000000632-3.16649999999936-3.454099999999926,0-6.476599999999962.553199999998469-9.068400000000111,1.655299999998533-2.589799999999741,1.104000000002998-4.75,2.64010000000053-6.476599999999962,4.606400000000576-1.727499999999964,1.96730000000025-3.023400000000038,4.318400000000111-3.886700000000019,7.052700000000186-.863299999999981,2.73490000000038-1.295900000000074,5.735899999999674-1.295900000000074,8.995699999999488v12.666900000000169c0,6.527900000000955,1.75,11.876000000000204,5.254899999999907,16.050300000002608,3.501000000000204,4.174399999999878,8.658199999999852,6.2612999999983,15.472700000000259,6.2612999999983,9.306599999999889,0,16.025299999999334-4.318400000000111,20.152299999999741-12.95509999999922l8.34860000000026,5.614199999999983c-2.399400000000242,5.375499999998283-5.97360000000026,9.644599999999627-10.72360000000026,12.811099999998987s-10.675799999999981,4.75-17.777299999999741,4.75Z"/><path class="uuid-7c0caaed-ea2f-459a-b9e0-01085dc0f224" d="M1266.914000000000669,338.558594181777153c-6.909200000000055,0-12.691399999999703-1.319800000001123-17.344699999999648-3.95850000000064-4.655300000000352-2.638199999997596-8.66110000000117-6.165099999998347-12.019500000000335-10.58009999999922l8.204099999999926-6.621100000000297c2.878899999999703,3.648000000001048,6.093700000000354,6.45509999999922,9.644499999999425,8.41990000000078,3.548800000000483,1.968799999998737,7.675800000000891,2.951700000001438,12.378900000000613,2.951700000001438,4.894499999999425,0,8.708999999999833-1.055200000002515,11.443399999999201-3.166500000002998,2.735300000000279-2.10989999999947,4.102500000000873-5.085899999998219,4.102500000000873-8.924799999997049,0-2.878900000003341-.935500000000502-5.348200000000361-2.806599999999889-7.413100000001577-1.872100000000501-2.0625-5.253900000000613-3.476600000001781-10.147500000000946-4.246100000000297l-5.902299999999741-.863799999999173c-3.45509999999922-.47899999999936-6.621100000000297-1.223099999999249-9.5-2.230900000002293-2.878899999999703-1.007799999999406-5.397499999999127-2.350599999997939-7.556699999999182-4.030299999998533-2.159200000000055-1.677700000000186-3.83980000000065-3.76510000000053-5.038100000000668-6.261699999999109-1.201099999999315-2.49409999999898-1.799799999999777-5.469700000001467-1.799799999999777-8.923800000000483,0-3.646499999998923.670000000000073-6.837400000000343,2.015699999999924-9.572800000001735,1.34270000000015-2.73489999999947,3.189400000000205-5.012199999997392,5.541900000000169-6.836899999998423,2.350599999999758-1.821800000001531,5.15729999999985-3.189900000001217,8.420000000000073-4.102100000000064,3.260699999999815-.91110000000117,6.765599999999722-1.367600000001403,10.50879999999961-1.367600000001403,6.04490000000078,0,11.105400000000373,1.05710000000181,15.185499999999593,3.166500000002998,4.07720000000063,2.112299999997049,7.651400000000649,5.038099999997939,10.72360000000117,8.780199999997421l-7.629800000000614,6.909200000001874c-1.632900000000518-2.302700000000186-4.029300000000148-4.39010000000053-7.197299999999814-6.260700000002544-3.166000000000167-1.871599999999489-7.148400000000038-2.807600000000093-11.94629999999961-2.807600000000093-4.799800000000687,0-8.420900000000984,1.032200000001467-10.868200000000797,3.095200000003388-2.44629999999961,2.063899999997375-3.66989999999987,4.87159999999858-3.66989999999987,8.420399999999063,0,3.648399999998219,1.22360000000026,6.286099999997532,3.66989999999987,7.91649999999936,2.447299999999814,1.633300000001327,5.974599999999555,2.831500000000233,10.58010000000013,3.599099999999453l5.757800000000316.863300000000891c8.252000000000407,1.247999999999593,14.106499999999869,3.623499999997875,17.560599999999795,7.125,3.45510000000013,3.504899999999907,5.181599999999889,8.085399999999936,5.181599999999889,13.746100000000297,0,7.197299999999814-2.44630000000052,12.860799999998562-7.339799999999741,16.985799999998562-4.894600000000537,4.127500000002328-11.613299999999981,6.189500000000407-20.152399999999943,6.189500000000407Z"/><path class="uuid-7c0caaed-ea2f-459a-b9e0-01085dc0f224" d="M1378.03610000000026,338.558594181777153c-8.157199999999648,0-15.114300000000185-1.561099999998987-20.872099999999591-4.678199999998469-5.757800000000316-3.117200000000594-10.651300000000447-7.413100000001577-14.681599999999889-12.882900000000518l8.923799999999574-7.485300000000279c3.549799999999777,4.703099999998813,7.485400000000482,8.276900000000751,11.80369999999948,10.72360000000117,4.318400000000111,2.447299999999814,9.403299999999945,3.670899999997346,15.257800000001225,3.670899999997346,7.197299999999814,0,12.689499999999498-1.727499999997235,16.481499999999869-5.181599999999889,3.78899999999885-3.45509999999922,5.685499999999593-8.061499999999796,5.685499999999593-13.818899999998393,0-4.796800000000076-1.439400000000205-8.492099999999482-4.318299999999908-11.082500000000437-2.878900000000613-2.591800000001967-7.628900000000613-4.654300000001967-14.25-6.190399999999499l-8.20510000000013-1.871100000000297c-9.211900000000242-2.110400000001391-16.242200000000594-5.301299999999173-21.086900000000242-9.57130000000052-4.846700000000055-4.269500000001244-7.269599999999627-10.293000000000575-7.269599999999627-18.065900000000511,0-4.412599999999657.814500000000407-8.348200000000361,2.447299999999814-11.802700000000186,1.630900000000111-3.454600000000937,3.909200000000055-6.33350000000064,6.836900000000242-8.6362999999983,2.925799999999981-2.30370000000039,6.427799999999479-4.05370000000039,10.507799999999406-5.253899999999703,4.078199999999924-1.199200000002747,8.564500000000407-1.799800000000687,13.459000000000742-1.799800000000687,7.579099999999016,0,14.081099999999424,1.39259999999922,19.503899999999703,4.174800000000687,5.420000000000073,2.784199999998236,10.003899999999703,6.861300000000483,13.746100000000297,12.235399999997753l-9.068300000000818,6.620600000002014c-2.784200000000055-3.837400000000343-6.14259999999922-6.85989999999947-10.075199999999313-9.068400000000111-3.936600000000908-2.206500000000233-8.83010000000013-3.310499999999593-14.682600000000093-3.310499999999593-6.429700000000594,0-11.492200000000594,1.367199999996956-15.185600000000704,4.101999999998952-3.695299999999406,2.735400000001391-5.541999999999462,6.837899999998626-5.541999999999462,12.307199999999284,0,4.800200000001496,1.558600000000297,8.420799999999872,4.67870000000039,10.867600000001403,3.117199999999684,2.446799999996983,7.843799999999646,4.390700000000834,14.177799999999479,5.83009999999922l8.204999999999927,1.871100000000297c9.882900000000518,2.20850000000064,17.03230000000076,5.566399999999703,21.447299999999814,10.075700000001234,4.412100000000464,4.511199999997189,6.621100000000297,10.507799999999406,6.621100000000297,17.992699999998877,0,4.606400000000576-.790999999999258,8.780200000001059-2.375,12.523399999998219-1.583999999999833,3.742200000000594-3.864299999999275,6.909200000001874-6.836900000000242,9.5-2.975599999999758,2.590800000001764-6.598599999999351,4.606400000000576-10.868199999999888,6.045400000002701-4.270499999999629,1.439499999996769-9.092799999999443,2.159199999998236-14.465799999999945,2.159199999998236Z"/><path class="uuid-7c0caaed-ea2f-459a-b9e0-01085dc0f224" d="M1460.370100000000093,338.558594181777153c-4.99119999999948,0-9.549799999999777-.91359999999986-13.674799999999777-2.73489999999947-4.126999999999498-1.822199999998702-7.654299999999239-4.438000000001921-10.58010000000013-7.84519999999975-2.927700000000186-3.40480000000025-5.206099999999424-7.484400000001187-6.836900000000242-12.23489999999947-1.632799999999406-4.75-2.44629999999961-10.09860000000117-2.44629999999961-16.049800000000687,0-5.851500000000669.813500000000204-11.177700000000186,2.44629999999961-15.977500000000873,1.630800000000818-4.796900000001187,3.909200000000055-8.899399999998423,6.836900000000242-12.306599999999889,2.925800000000891-3.405299999998533,6.453100000000632-6.02100000000064,10.58010000000013-7.844799999998941,4.125-1.82220000000234,8.683600000000297-2.734800000001997,13.674799999999777-2.734800000001997,4.988300000000891,0,9.522399999999834.912599999999657,13.602500000000873,2.734800000001997,4.077199999999721,1.8237999999983,7.603499999999258,4.439500000000407,10.579099999999016,7.844799999998941,2.973700000000463,3.407200000001467,5.276400000000649,7.509699999998702,6.909200000000055,12.306599999999889,1.630900000000111,4.799800000000687,2.447300000000723,10.126000000000204,2.447300000000723,15.977500000000873,0,5.951199999999517-.816400000000613,11.299800000000687-2.447300000000723,16.049800000000687-1.632799999999406,4.750499999998283-3.935499999999593,8.83009999999922-6.909200000000055,12.23489999999947-2.975599999999758,3.407199999997829-6.501899999999296,6.023000000001048-10.579099999999016,7.84519999999975-4.080100000001039,1.82129999999961-8.614199999999983,2.73489999999947-13.602500000000873,2.73489999999947ZM1460.370100000000093,328.338394181777403c6.236300000000483,0,11.32130000000052-1.918000000001484,15.257800000000316-5.757799999999406,3.933600000000297-3.836500000001251,5.90139999999974-9.690500000000611,5.90139999999974-17.560600000000704v-10.651799999999639c0-7.867200000000594-1.967799999999443-13.721700000001874-5.90139999999974-17.561099999998987-3.936499999999796-3.83640000000014-9.021499999999833-5.757300000001123-15.257800000000316-5.757300000001123-6.239299999999275,0-11.324199999999109,1.920900000000984-15.257799999999406,5.757300000001123-3.936600000000908,3.839399999997113-5.901400000000649,9.693899999998393-5.901400000000649,17.561099999998987v10.651799999999639c0,7.870100000000093,1.964799999999741,13.724099999999453,5.901400000000649,17.560600000000704,3.933600000000297,3.839799999997922,9.018500000000131,5.757799999999406,15.257799999999406,5.757799999999406Z"/><path class="uuid-7c0caaed-ea2f-459a-b9e0-01085dc0f224" d="M1540.54490000000078,338.558594181777153c-5.181700000000092,0-9.836900000000242-.91359999999986-13.961900000000242-2.73489999999947-4.127000000000407-1.822199999998702-7.606499999999869-4.413100000001577-10.436499999999796-7.772400000001653-2.831100000000333-3.358399999997346-4.990300000000389-7.435599999997066-6.476599999999962-12.235399999997753-1.489300000000185-4.79739999999947-2.231499999999869-10.170900000000984-2.231499999999869-16.122100000000501,0-5.948199999998906.742199999999684-11.321700000000419,2.231499999999869-16.121100000000297,1.486299999999574-4.797299999998359,3.645499999999629-8.875400000000809,6.476599999999962-12.235300000000279,2.829999999999927-3.357899999999063,6.309499999999389-5.948700000000827,10.436499999999796-7.772499999999127,4.125-1.82220000000234,8.78020000000015-2.734800000001997,13.961900000000242-2.734800000001997,7.388699999999517,0,13.314399999999296,1.607900000002701,17.777299999999741,4.821700000000419,4.461900000000242,3.216400000001158,7.795000000000073,7.413100000001577,10.003899999999703,12.594800000002579l-9.644500000000335,4.894499999998516c-1.344699999999648-3.837400000001253-3.550799999999072-6.813000000001921-6.621099999999387-8.924800000000687-3.072299999999814-2.109400000001187-6.909200000000055-3.16649999999936-11.515599999999722-3.16649999999936-3.45510000000013,0-6.476599999999962.553199999998469-9.068400000000111,1.655299999998533-2.590799999999945,1.104000000002998-4.75,2.64010000000053-6.476500000000669,4.606400000000576-1.727599999999256,1.96730000000025-3.023499999999331,4.318400000000111-3.886799999999312,7.052700000000186-.863200000000688,2.73490000000038-1.295900000000074,5.735899999999674-1.295900000000074,8.995699999999488v12.666900000000169c0,6.527900000000955,1.75,11.876000000000204,5.253999999999905,16.050300000002608,3.501900000000205,4.174399999999878,8.659099999999853,6.2612999999983,15.47360000000026,6.2612999999983,9.306599999999889,0,16.025399999999536-4.318400000000111,20.152299999999741-12.95509999999922l8.348700000000463,5.614199999999983c-2.399400000000242,5.375499999998283-5.973700000000463,9.644599999999627-10.723700000000463,12.811099999998987s-10.676699999999983,4.75-17.777299999999741,4.75Z"/><path class="uuid-7c0caaed-ea2f-459a-b9e0-01085dc0f224" d="M1591.067300000000614,245.140094181777386c-2.497000000000298,0-4.295799999999872-.597600000000966-5.397399999999834-1.798800000000483-1.104500000000371-1.199199999999109-1.655300000000352-2.756799999999203-1.655300000000352-4.67870000000039v-1.871100000000297c0-1.918499999999767.550799999999981-3.477499999997235,1.655300000000352-4.678199999998469,1.101599999999962-1.198800000001938,2.900399999999536-1.799299999998766,5.397399999999834-1.799299999998766,2.494200000000092,0,4.293999999999869.600499999996828,5.397500000000036,1.799299999998766,1.102499999999964,1.200700000001234,1.656299999999646,2.759699999998702,1.656299999999646,4.678199999998469v1.871100000000297c0,1.921900000001187-.553799999999683,3.479500000001281-1.656299999999646,4.67870000000039-1.103500000000167,1.201199999999517-2.903299999999945,1.798800000000483-5.397500000000036,1.798800000000483ZM1585.309500000000298,262.55809418177887h11.515699999999924v74.272899999999936h-11.515699999999924v-74.272899999999936Z"/><path class="uuid-7c0caaed-ea2f-459a-b9e0-01085dc0f224" d="M1649.219700000000557,338.558594181777153c-5.086900000000242,0-9.668999999999869-.91359999999986-13.746100000000297-2.73489999999947-4.08010000000013-1.822199999998702-7.581999999999425-4.438000000001921-10.507800000000316-7.84519999999975-2.92869999999948-3.40480000000025-5.181699999999182-7.484400000001187-6.765599999999722-12.23489999999947-1.582999999999629-4.75-2.374099999999999-10.09860000000117-2.374099999999999-16.049800000000687,0-5.851500000000669.79110000000037-11.177700000000186,2.374099999999999-15.977500000000873,1.58390000000054-4.796900000001187,3.836900000000242-8.899399999998423,6.765599999999722-12.306599999999889,2.925800000000891-3.405299999998533,6.427700000000186-6.02100000000064,10.507800000000316-7.844799999998941,4.077100000000428-1.82220000000234,8.659200000000055-2.734800000001997,13.746100000000297-2.734800000001997,4.989300000000185,0,9.451200000000426.908200000001671,13.386700000000019,2.725600000001577,3.933600000000297,1.817299999998795,7.291999999999462,4.329499999999825,10.076199999999517,7.532200000001467,2.782200000000557,3.203099999998813,4.917000000000371,7.003899999999703,6.405300000000352,11.402799999999843,1.486300000000483,4.399399999998423,2.231399999999667,9.227999999999156,2.231399999999667,14.486299999996845v5.451700000001438h-53.403299999999945v3.45509999999922c0,3.16649999999936.503900000000613,6.117200000000594,1.511700000000019,8.85200000000259,1.007800000000316,2.73489999999947,2.447299999999814,5.110399999997753,4.318400000000111,7.125,1.871100000000297,2.015699999999924,4.173800000000483,3.598699999998644,6.909099999999853,4.751000000000204,2.735400000000482,1.15139999999883,5.83010000000013,1.726599999998143,9.284200000000055,1.726599999998143,4.701200000000426,0,8.802800000000389-1.102599999998347,12.307600000000093-3.310600000000704,3.501000000000204-2.205999999998312,6.212000000000444-5.372999999999593,8.131900000000314-9.5l8.20510000000013,5.939500000000407c-2.399500000000444,5.119099999999889-6.14260000000013,9.246100000000297-11.227600000000166,12.38379999999961-5.086900000000242,3.137699999999313-11.132800000000316,4.707500000000437-18.136700000000019,4.707500000000437ZM1649.219700000000557,270.474094181777218c-3.167000000000371,0-6.04489999999987.548799999999574-8.635699999999815,1.646500000001652-2.591800000000148,1.09769999999935-4.822299999999814,2.647499999999127-6.693400000000111,4.648399999998219-1.871100000000297,2.002000000000407-3.335900000000038,4.363300000000891-4.390600000000632,7.081099999999424-1.056699999999182,2.718700000001263-1.583999999999833,5.698200000002544-1.583999999999833,8.941399999999703v1.001000000000204h41.023400000000038v-1.574699999997392c0-6.580600000001141-1.798799999999574-11.847700000002078-5.397399999999834-15.806200000001809-3.598699999999553-3.957999999999629-8.373099999999795-5.9375-14.322299999999814-5.9375Z"/><path class="uuid-7c0caaed-ea2f-459a-b9e0-01085dc0f224" d="M1716.728500000000167,336.830994181778806c-4.031299999999646,0-7.078099999999722-1.124500000001717-9.140599999999722-3.373500000001513-2.064500000000407-2.248999999999796-3.09479999999985-5.195299999999406-3.09479999999985-8.834500000000844v-51.846199999999953h-12.235300000000279v-10.218699999997625h6.909200000000055c2.494099999999889,0,4.197199999999611-.504899999999907,5.110300000000279-1.512700000002951.91019999999935-1.006799999999203,1.367199999999684-2.756799999999203,1.367199999999684-5.252899999999499v-13.819400000000314h10.363299999999981v20.585000000002765h16.265599999999722v10.218699999997625h-16.265599999999722v53.835000000002765h15.114199999999983v10.219199999999546h-14.393500000000131Z"/><path class="uuid-7c0caaed-ea2f-459a-b9e0-01085dc0f224" d="M1796.615200000000186,262.55809418177887h11.372100000000501l-33.251000000000204,91.545899999997346c-.863299999999981,2.207000000002154-1.727499999999964,4.052700000000186-2.590799999999945,5.541500000002998-.864300000000185,1.486799999998766-1.920900000000074,2.66359999999986-3.167000000000371,3.526899999997113-1.248099999999795.864199999999983-2.806700000000092,1.487300000000687-4.677799999999479,1.871000000002823-1.871000000000095.382399999998597-4.15230000000065.576199999999517-6.837800000000243.576199999999517h-5.90139999999974v-10.219700000001467h11.659200000000055l5.614199999999983-15.808600000000297-27.781200000000354-77.033199999998033h11.515599999999722l17.84860000000026,50.425799999997253,3.45510000000013,12.06880000000092h.718799999999646l4.031200000000354-12.06880000000092,17.992199999999684-50.425799999997253Z"/><path class="uuid-7c0caaed-ea2f-459a-b9e0-01085dc0f224" d="M654.682568750000428,477.749501833364775l-3.6103515625-11.4755859375h-15.98828125l-3.5458984375,11.4755859375h-8.638671875l15.0859375-44.9990234375h10.5732421875l14.9560546875,44.9990234375h-8.83203125ZM643.206982812500428,440.486806520864775h-.322265625l-5.7373046875,18.50244140625h11.8623046875l-5.802734375-18.50244140625Z"/><path class="uuid-7c0caaed-ea2f-459a-b9e0-01085dc0f224" d="M698.717725000000428,477.749501833364775l-3.6103515625-11.4755859375h-15.98828125l-3.5458984375,11.4755859375h-8.638671875l15.0859375-44.9990234375h10.5732421875l14.9560546875,44.9990234375h-8.83203125ZM687.242139062500428,440.486806520864775h-.322265625l-5.7373046875,18.50244140625h11.8623046875l-5.802734375-18.50244140625Z"/></g></svg>