<?xml version="1.0" encoding="utf-8"?>
<!-- Generator: Adobe Illustrator 16.0.0, SVG Export Plug-In . SVG Version: 6.00 Build 0)  -->
<!DOCTYPE svg PUBLIC "-//W3C//DTD SVG 1.0//EN" "http://www.w3.org/TR/2001/REC-SVG-20010904/DTD/svg10.dtd">
<svg version="1.0" id="Logotypes" xmlns="http://www.w3.org/2000/svg" xmlns:xlink="http://www.w3.org/1999/xlink" x="0px" y="0px"
	 width="633.189px" height="1102.769px" viewBox="0 0 633.189 1102.769" enable-background="new 0 0 633.189 1102.769"
	 xml:space="preserve">
<g>
	<defs>
		<rect id="SVGID_117_" width="633.189" height="1102.769"/>
	</defs>
	<clipPath id="SVGID_2_">
		<use xlink:href="#SVGID_117_"  overflow="visible"/>
	</clipPath>
	<g clip-path="url(#SVGID_2_)">
		<g>
			<g>
				<g>
					<path fill="#A49B4B" d="M79.222,135.784c-4.552,10.765-7.259,22.073-8.084,33.712c1.795-1.46,4.08-2.339,6.568-2.339
						c2.748,0,5.244,1.076,7.108,2.818c3.669-47.795,43.611-85.434,92.347-85.434c3.776,0,6.838-3.061,6.838-6.838
						c0-3.776-3.062-6.837-6.838-6.837c-14.344,0-28.266,2.813-41.38,8.358c-12.659,5.355-24.026,13.017-33.782,22.774
						C92.24,111.759,84.576,123.125,79.222,135.784z"/>
					<path fill="#A49B4B" d="M169.592,269.479c-47.476-3.842-84.833-43.481-85.048-91.896c0-3.776-3.061-6.839-6.838-6.839
						c-3.776,0-6.838,3.063-6.838,6.839c0.055,14.196,2.862,27.976,8.354,40.962c5.354,12.658,13.019,24.026,22.777,33.783
						c9.756,9.759,21.123,17.421,33.782,22.776c10.627,4.494,21.785,7.192,33.269,8.055c-1.444-1.789-2.314-4.061-2.314-6.534
						C166.735,273.859,167.826,271.348,169.592,269.479z"/>
					<path fill="#A49B4B" d="M251.259,243.701c-1.335-1.335-3.084-2.003-4.833-2.003c-1.75,0-3.5,0.668-4.836,2.003
						c-16.671,16.146-39.388,26.088-64.429,26.088c-3.775,0-6.837,3.061-6.837,6.837s3.062,6.838,6.837,6.838
						c14.346,0,28.268-2.813,41.382-8.358c12.204-5.161,23.199-12.475,32.716-21.734
						C253.931,250.702,253.931,246.372,251.259,243.701z"/>
					<path fill="#A49B4B" d="M177.161,70.865c-14.345,0-28.265,2.814-41.38,8.359C123.121,84.58,111.757,92.24,101.997,102
						c-9.756,9.76-17.42,21.125-22.775,33.784c-4.55,10.766-7.26,22.075-8.085,33.71c1.795-1.46,4.08-2.335,6.57-2.335
						c2.745,0,5.245,1.075,7.104,2.814c3.67-47.794,43.614-85.434,92.35-85.434c3.774,0,6.84-3.06,6.84-6.835
						S180.936,70.865,177.161,70.865z M169.591,269.479c-47.475-3.841-84.834-43.479-85.044-91.895c0-3.775-3.065-6.84-6.84-6.84
						c-3.775,0-6.84,3.064-6.84,6.84c0.055,14.195,2.864,27.975,8.354,40.965c5.355,12.654,13.02,24.024,22.775,33.779
						c9.76,9.761,21.124,17.42,33.784,22.775c10.625,4.494,21.785,7.194,33.27,8.055c-1.445-1.785-2.314-4.061-2.314-6.53
						C166.736,273.858,167.826,271.348,169.591,269.479z M251.26,243.703c-1.335-1.34-3.085-2.005-4.835-2.005
						s-3.5,0.665-4.835,2.005c-16.67,16.146-39.39,26.085-64.429,26.085c-3.775,0-6.835,3.06-6.835,6.84
						c0,3.775,3.06,6.835,6.835,6.835c14.345,0,28.27-2.81,41.385-8.359c12.199-5.16,23.194-12.47,32.714-21.729
						C253.93,250.703,253.93,246.374,251.26,243.703z"/>
				</g>
				<g>
					<g>
						<g>
							<path fill="#A49B4B" d="M233.45,120.875c-15.029-15.035-35.024-23.315-56.289-23.315c-21.266,0-41.255,8.28-56.29,23.315
								c-15.035,15.034-23.319,35.029-23.319,56.289c0,21.265,8.284,41.255,23.319,56.295c15.035,15.034,35.024,23.314,56.29,23.314
								c21.265,0,41.26-8.28,56.289-23.314c15.04-15.04,23.314-35.03,23.314-56.295C256.765,155.904,248.49,135.909,233.45,120.875z
								 M132.227,155.229h-6.476v43.875h6.476v3.805h-11.17V151.42h11.17V155.229z M141.041,202.909v-36.365
								c0-3.129-0.055-5.965-0.165-8.51c-0.104-2.545-0.265-4.75-0.479-6.614h6.595v36.204c0,1.03,0.015,2.24,0.05,3.635
								c0.03,1.396,0.075,2.811,0.13,4.25c0.05,1.436,0.115,2.811,0.19,4.12c0.075,1.305,0.165,2.4,0.274,3.28H141.041z
								 M175.796,174.304h-6.05v24.391h6.05v4.215h-18.02v-4.215h5.949v-24.391h-5.949v-4.22h18.02V174.304z M213.931,199.369
								c0,3.625-0.32,6.635-0.95,9.03c-0.635,2.39-1.521,4.299-2.655,5.725c-1.135,1.43-2.505,2.439-4.104,3.025
								c-1.596,0.59-3.37,0.884-5.325,0.884c-0.965,0-2-0.154-3.104-0.464c-1.105-0.311-2.11-0.746-3.011-1.306l2.096-4.824
								c0.489,0.364,1.149,0.669,1.975,0.915c0.83,0.25,1.67,0.369,2.524,0.369c1.035,0,1.955-0.165,2.771-0.494
								c0.814-0.336,1.505-0.921,2.075-1.756c0.569-0.835,1.005-1.984,1.305-3.444s0.45-3.315,0.45-5.565v-14.165
								c0-2.569-0.135-4.66-0.4-6.255c-0.27-1.6-0.675-2.845-1.21-3.735c-0.535-0.89-1.205-1.484-2.01-1.784
								c-0.805-0.301-1.745-0.45-2.815-0.45c-1.159,0-2.29,0.274-3.395,0.82c-1.104,0.545-2.12,1.255-3.045,2.125
								c-0.92,0.864-1.735,1.85-2.445,2.944c-0.704,1.09-1.229,2.186-1.574,3.28v18.665h-5.955v-19.79
								c0-3.175-0.181-5.86-0.545-8.061c-0.365-2.199-0.721-3.854-1.065-4.975h5.795c0.13,0.345,0.255,0.79,0.385,1.34
								c0.131,0.545,0.245,1.12,0.355,1.721c0.104,0.6,0.205,1.189,0.29,1.77l0.255,1.445c2.06-2.445,4.13-4.21,6.215-5.29
								c2.08-1.085,4.25-1.63,6.5-1.63c1.715,0,3.235,0.284,4.55,0.854c1.32,0.57,2.436,1.47,3.335,2.705
								c0.9,1.235,1.58,2.83,2.04,4.795c0.465,1.965,0.695,4.325,0.695,7.095V199.369z M233.266,202.909h-11.165v-3.805h6.47
								v-43.875h-6.47v-3.81h11.165V202.909z"/>
						</g>
					</g>
				</g>
			</g>
		</g>
		<g>
			<g>
				<g>
					<path fill="#A49B4B" d="M129.762,426.037H97.554v-5.347h32.208V426.037z M125.57,482.967h-5.519v-5.86h-12.874v5.86h-5.604
						v-28.914h23.996V482.967z M125.313,437.072l-23.652,0.085v-5.346h23.652V437.072z M125.398,448.278H101.66v-5.347h23.738
						V448.278z M124.329,415.173l-21.729,0.087v-5.349h21.729V415.173z M120.052,471.846v-12.532h-12.96v12.532H120.052z
						 M175.313,448.363l-46.237,0.086v-5.261h11.463l2.481-13.216h-10.692v-5.262h11.549l1.838-9.796h-16.381v-5.346h42.473v5.262
						h-20.317l-1.753,9.795h17.622l-1.84,18.477h9.795V448.363z M167.871,483.139h-5.518v-5.775h-21.643v5.775h-5.604v-29h32.764
						V483.139z M162.354,472.103v-12.703h-21.729v12.703H162.354z M161.498,429.887h-12.703l-2.48,13.302h13.857L161.498,429.887z"
						/>
					<path fill="#A49B4B" d="M271.756,426.037h-77.76v-5.347h77.76V426.037z M260.293,436.986h-55.604v-5.175h55.604V436.986z
						 M260.293,448.106h-55.604v-5.175h55.604V448.106z M258.283,483.139h-5.518v-6.032h-40.121v6.032h-5.518v-29.086h51.156
						V483.139z M258.197,414.617l-50.643,0.128v-5.176h50.643V414.617z M252.766,471.846v-12.532h-40.121v12.532H252.766z"/>
					<path fill="#A49B4B" d="M368.2,467.654h-34.433v5.945c0,6.358-3.379,9.539-10.138,9.539h-5.688l-2.096-5.262h7.955
						c2.795,0,4.193-1.283,4.193-3.85v-6.373h-37.555v-5.347h37.555v-3.679c5.958-2.225,10.221-4.305,12.788-6.244h-32.765v-4.919
						h42.262v4.662c-4.45,3.022-9.953,6.116-16.512,9.281v0.898H368.2V467.654z M364.607,451.785h-5.135v-8.854h-59.751v9.367
						h-5.604v-14.371h7.357v-26.092c4.048-0.398,8.483-2.324,13.303-5.774l2.823,3.936c-2.597,2.396-6.132,4.207-10.608,5.432v3.594
						h10.949v4.448h-10.949v4.662h10.949v4.362h-10.949v5.433h45.467v-5.433h-10.437v-4.276h10.437v-5.005h-10.352v-4.362h10.352
						v-4.663h-12.104v-5.175h17.536v28.828h6.717V451.785z M340.354,418.596l-2.993,3.677c-1.627-1.567-3.837-3.265-6.631-5.09
						c-2.309,1.939-4.904,3.722-7.785,5.347l-3.507-3.08c2.767-1.14,5.188-2.48,7.272-4.021c-3.48-1.311-6.289-2.224-8.428-2.736
						l2.183-3.936c3.164,0.798,6.344,1.825,9.538,3.079c2.024-1.908,3.721-3.863,5.09-5.859l3.593,2.867
						c-1.142,1.767-2.624,3.492-4.448,5.174C336.348,415.215,338.387,416.741,340.354,418.596z M340.867,434.163l-3.592,2.823
						c-2.31-1.768-4.706-3.236-7.186-4.405c-1.54,1.169-4.277,2.638-8.213,4.405l-3.25-2.566c3.678-1.739,6.314-3.251,7.913-4.533
						c-1.599-0.998-4.021-2.11-7.272-3.337l3.208-2.694c2.937,1.056,5.446,2.154,7.528,3.293c0.797-0.455,2.408-1.824,4.832-4.106
						l3.936,2.011c-1.454,1.883-3.078,3.437-4.875,4.663C336.263,430.799,338.586,432.281,340.867,434.163z"/>
					<path fill="#A49B4B" d="M464.557,467.654h-34.432v5.945c0,6.358-3.379,9.539-10.137,9.539h-5.689l-2.096-5.262h7.956
						c2.794,0,4.191-1.283,4.191-3.85v-6.373h-37.554v-5.347h37.554v-3.679c5.96-2.225,10.222-4.305,12.79-6.244h-32.765v-4.919
						h42.26v4.662c-4.448,3.022-9.953,6.116-16.511,9.281v0.898h34.432V467.654z M460.965,451.785h-5.135v-8.854h-59.752v9.367
						h-5.603v-14.371h7.356v-26.092c4.049-0.398,8.482-2.324,13.303-5.774l2.822,3.936c-2.594,2.396-6.131,4.207-10.607,5.432v3.594
						h10.949v4.448H403.35v4.662h10.949v4.362H403.35v5.433h45.467v-5.433h-10.436v-4.276h10.436v-5.005h-10.352v-4.362h10.352
						v-4.663h-12.105v-5.175h17.537v28.828h6.717V451.785z M438.234,433.204l-3.896,3.563c-1.779-2.673-4.324-6.019-6.785-8.096
						c-3.826,4.263-6.974,6.976-9.433,8.137l-3.856-3.238c2.898-1.379,6.042-3.955,9.434-7.732
						c-3.855-2.402-6.604-3.888-8.244-4.455l3.364-3.479c1.367,0.539,3.935,1.942,7.711,4.21c1.122-1.836,1.995-3.847,2.624-6.033
						h-12.879v-5.06h6.904v-5.21h4.432v5.21h8.195v5.06h-1.623c-0.91,3.349-2.135,6.249-3.675,8.705
						C433.488,427.053,436.349,430.505,438.234,433.204z"/>
					<path fill="#A49B4B" d="M562.325,425.866l-3.079,4.447c-9.725-2.395-17.337-5.16-22.84-8.297v3.85h-28.915v-4.235
						c-8.326,4.307-15.797,7.115-22.413,8.427l-2.822-4.491c16.024-3.906,29.369-10.437,40.035-19.59l5.26,1.753
						c-0.57,0.713-1.069,1.213-1.497,1.497C535.521,417.098,547.611,422.644,562.325,425.866z M553.214,450.374h-62.104v-20.061
						h62.104V450.374z M548.125,483.223h-5.261v-3.422h-41.317v3.422h-5.262v-28.357h51.84V483.223z M519.596,445.755v-10.693
						H496.37v10.693H519.596z M542.864,465.088v-5.518h-41.317v5.518H542.864z M542.864,475.183v-5.604h-41.317v5.604H542.864z
						 M513.907,441.521l-4.405,3.079c-2.651-2.679-5.247-4.661-7.785-5.945l4.448-2.565
						C509.188,437.371,511.768,439.183,513.907,441.521z M534.652,421.118c-4.135-2.167-8.143-5.09-12.02-8.769
						c-4.135,3.422-8.768,6.345-13.9,8.769H534.652z M547.955,445.755v-10.693h-23.098v10.693H547.955z M542.778,437.585
						c-1.683,2.681-4.221,4.963-7.613,6.844l-4.705-2.352c3.736-2.11,6.302-4.221,7.698-6.332L542.778,437.585z"/>
				</g>
				<g>
					<path fill="#A49B4B" d="M130.164,356.116l-1.634,1.881c-4.896-1.723-9.558-4.756-13.985-9.102l0.035,6.869h8.205v15.11h-2.231
						v-2.021h-14.215v2.021h-2.302v-15.11h8.24v-6.869c-2.412,3.689-6.771,6.577-13.072,8.662l-1.651-1.863
						c5.587-1.476,9.582-3.741,11.983-6.799h-9.998v-2.197h12.738v-3.391c-2.799,0.281-6.313,0.486-10.542,0.615l-1.511-2.126
						c9.991-0.035,17.969-0.872,23.931-2.513l1.687,1.688c-3.314,0.889-7.069,1.573-11.262,2.054v3.672h12.914v2.197l-10.068-0.035
						C121.15,352.094,125.396,354.513,130.164,356.116z M120.554,361.054v-3.092h-14.25v3.092H120.554z M120.554,366.694v-3.479
						h-14.25v3.479H120.554z"/>
					<path fill="#A49B4B" d="M139.302,357.732c-1.478,4.581-3.409,8.336-5.798,11.264l2.055,1.3
						c2.658-3.351,4.615-7.104,5.869-11.262L139.302,357.732z M135.594,347.981l-1.477,1.846c2.331,0.995,4.176,2.424,5.536,4.286
						l1.545-2.091C139.98,350.394,138.112,349.048,135.594,347.981z M137.314,340.11l-1.65,1.688
						c2.248,0.807,4.023,2.166,5.324,4.075l1.65-1.774C141.386,342.282,139.611,340.954,137.314,340.11z"/>
					<path fill="#A49B4B" d="M160.279,363.075v-6.625c1.395,1.313,2.895,2.39,4.5,3.234l1.44-1.952
						c-3.069-1.311-5.46-3.385-7.169-6.219h6.008v-2.161h-5.744v-4.199h4.339v-2.162h-4.339v-3.706h-2.232v3.741h-6.518v-3.741
						h-2.232v3.741h-4.322v2.161h4.357v4.199h-5.729v2.162h5.799c-1.299,2.437-3.648,4.463-7.045,6.078l1.65,1.95
						c1.005-0.582,1.93-1.215,2.776-1.896v9.418c0,2.015,1.008,3.021,3.022,3.021h11.508c0.938,0,1.679-0.311,2.223-0.931
						c0.545-0.621,0.971-1.844,1.274-3.671l-2.267-1.021c-0.152,1.464-0.374,2.4-0.667,2.811c-0.294,0.411-0.686,0.615-1.177,0.615
						h-10.719c-0.646,0-0.966-0.321-0.966-0.967v-3.882H160.279z M150.564,345.153h6.553v4.199h-6.553V345.153z M150.773,351.514
						h5.975c0.574,1.358,1.441,2.688,2.601,3.989h-11.157C149.457,354.108,150.318,352.778,150.773,351.514z M148.052,357.663h9.997
						v3.285h-9.997V357.663z"/>
					<path fill="#A49B4B" d="M202.063,369.119l-1.634,1.826c-7.321-3.993-11.972-10.723-13.951-20.188
						c-2.448,9.617-7.438,16.347-14.97,20.188l-1.775-2.091c7.462-3.631,12.188-9.651,14.18-18.062h-11.947v-2.267h12.211
						c0.223-2.202,0.316-5.283,0.281-9.242l2.442,0.353c0.058,3.583-0.012,6.535-0.211,8.854h13.318v2.267H188.92
						C190.325,358.782,194.707,364.902,202.063,369.119z"/>
					<path fill="#A49B4B" d="M237.889,364.551h-14.145v2.442c0,2.611-1.388,3.918-4.164,3.918h-2.337l-0.86-2.161h3.268
						c1.147,0,1.722-0.527,1.722-1.581v-2.618h-15.427v-2.196h15.427v-1.511c2.448-0.914,4.2-1.77,5.254-2.565h-13.459v-2.021
						h17.359v1.915c-1.827,1.242-4.088,2.514-6.782,3.813v0.369h14.145V364.551z M236.413,358.032h-2.108v-3.638h-24.547v3.848
						h-2.301v-5.903h3.021v-10.718c1.663-0.163,3.484-0.954,5.465-2.372l1.159,1.617c-1.065,0.983-2.519,1.728-4.357,2.231v1.475
						h4.498v1.828h-4.498v1.915h4.498v1.792h-4.498v2.231h18.678v-2.231h-4.287v-1.757h4.287v-2.056h-4.252v-1.792h4.252v-1.915
						h-4.973v-2.126h7.204v11.842h2.759V358.032z M226.45,344.397l-1.23,1.51c-0.667-0.644-1.575-1.34-2.723-2.09
						c-0.948,0.797-2.015,1.53-3.198,2.196l-1.44-1.265c1.136-0.469,2.132-1.02,2.986-1.651c-1.429-0.539-2.583-0.914-3.461-1.125
						l0.896-1.616c1.3,0.328,2.606,0.75,3.918,1.265c0.831-0.784,1.528-1.587,2.091-2.407l1.477,1.178
						c-0.47,0.726-1.078,1.435-1.828,2.126C224.805,343.009,225.642,343.637,226.45,344.397z M226.661,350.793l-1.476,1.16
						c-0.949-0.727-1.934-1.33-2.952-1.811c-0.633,0.48-1.757,1.084-3.374,1.811l-1.335-1.056c1.511-0.714,2.595-1.334,3.251-1.861
						c-0.656-0.41-1.652-0.866-2.987-1.371l1.317-1.107c1.207,0.434,2.238,0.886,3.093,1.354c0.327-0.188,0.989-0.749,1.985-1.687
						l1.616,0.826c-0.597,0.772-1.265,1.411-2.003,1.915C224.77,349.41,225.724,350.02,226.661,350.793z"/>
					<path fill="#A49B4B" d="M273.873,364.551h-14.145v2.442c0,2.611-1.389,3.918-4.164,3.918h-2.337l-0.86-2.161h3.268
						c1.147,0,1.722-0.527,1.722-1.581v-2.618H241.93v-2.196h15.427v-1.511c2.448-0.914,4.199-1.77,5.253-2.565h-13.458v-2.021
						h17.359v1.915c-1.827,1.242-4.088,2.514-6.782,3.813v0.369h14.145V364.551z M272.396,358.032h-2.108v-3.638h-24.546v3.848
						h-2.302v-5.903h3.022v-10.718c1.663-0.163,3.484-0.954,5.464-2.372l1.16,1.617c-1.066,0.983-2.519,1.728-4.357,2.231v1.475
						h4.498v1.828h-4.498v1.915h4.498v1.792h-4.498v2.231h18.677v-2.231h-4.287v-1.757h4.287v-2.056h-4.252v-1.792h4.252v-1.915
						h-4.972v-2.126h7.203v11.842h2.759V358.032z M262.435,344.397l-1.229,1.51c-0.668-0.644-1.576-1.34-2.725-2.09
						c-0.948,0.797-2.015,1.53-3.197,2.196l-1.441-1.265c1.137-0.469,2.133-1.02,2.987-1.651c-1.429-0.539-2.583-0.914-3.461-1.125
						l0.896-1.616c1.301,0.328,2.606,0.75,3.918,1.265c0.832-0.784,1.529-1.587,2.092-2.407l1.476,1.178
						c-0.469,0.726-1.077,1.435-1.827,2.126C260.789,343.009,261.626,343.637,262.435,344.397z M262.646,350.793l-1.477,1.16
						c-0.948-0.727-1.933-1.33-2.952-1.811c-0.632,0.48-1.757,1.084-3.373,1.811l-1.336-1.056c1.512-0.714,2.596-1.334,3.251-1.861
						c-0.655-0.41-1.651-0.866-2.987-1.371l1.318-1.107c1.207,0.434,2.237,0.886,3.092,1.354c0.328-0.188,0.99-0.749,1.986-1.687
						l1.616,0.826c-0.598,0.772-1.265,1.411-2.003,1.915C260.754,349.41,261.708,350.02,262.646,350.793z"/>
					<path fill="#A49B4B" d="M309.856,369.154h-31.978v-2.267h14.899v-8.241h-10.735v-2.267h10.735v-7.168h-7.96
						c-0.96,2.494-2.564,4.797-4.813,6.904l-2.319-1.212c3.842-3.55,5.979-7.896,6.413-13.037l2.372,0.686
						c-0.094,1.194-0.369,2.671-0.825,4.428h7.097v-7.696h2.373v7.66h12.404v2.268h-12.404v7.134h10.578v2.266h-10.578v8.241h14.741
						V369.154z"/>
					<path fill="#A49B4B" d="M346.42,347.384l-1.265,1.828c-3.994-0.984-7.122-2.12-9.382-3.408v1.58h-11.878v-1.739
						c-3.421,1.769-6.489,2.923-9.208,3.462l-1.158-1.845c6.582-1.605,12.064-4.288,16.445-8.048l2.161,0.721
						c-0.234,0.293-0.439,0.498-0.614,0.615C335.41,343.782,340.376,346.061,346.42,347.384z M342.679,357.452h-25.513v-8.24h25.513
						V357.452z M340.588,370.945h-2.162v-1.405h-16.973v1.405h-2.161v-11.648h21.296V370.945z M328.867,355.554v-4.393h-9.541v4.393
						H328.867z M338.426,363.496v-2.267h-16.973v2.267H338.426z M338.426,367.643v-2.302h-16.973v2.302H338.426z M326.531,353.815
						l-1.811,1.265c-1.089-1.101-2.154-1.915-3.197-2.442l1.827-1.054C324.592,352.11,325.652,352.854,326.531,353.815z
						 M335.053,345.435c-1.699-0.891-3.345-2.091-4.938-3.604c-1.697,1.406-3.601,2.607-5.709,3.604H335.053z M340.518,355.554
						v-4.393h-9.488v4.393H340.518z M338.391,352.198c-0.691,1.102-1.733,2.038-3.127,2.812l-1.933-0.966
						c1.534-0.866,2.589-1.734,3.161-2.602L338.391,352.198z"/>
					<path fill="#A49B4B" d="M382.194,368.644l-1.547,2.057c-5.962-1.757-10.8-4.123-14.513-7.099
						c-3.199,2.612-8.223,5.025-15.076,7.239l-1.721-2.091c6.629-1.839,11.643-4.07,15.04-6.693c-3.408-3.223-5.7-7.14-6.87-11.756
						c-0.633,1.628-1.5,3.175-2.602,4.639l-1.86-1.704c1.476-1.758,2.663-3.685,3.565-5.781h-6.045v-2.16h14.094v-6.01h2.266v5.974
						h14.337v2.162h-6.01c-1.054,6.114-3.478,10.98-7.274,14.601C371.435,364.644,376.173,366.853,382.194,368.644z M372.898,347.42
						h-13.598c0.936,5.424,3.226,9.786,6.869,13.089C369.73,357.194,371.974,352.831,372.898,347.42z"/>
					<path fill="#A49B4B" d="M417.811,364.551h-14.146v2.442c0,2.611-1.387,3.918-4.163,3.918h-2.337l-0.86-2.161h3.267
						c1.148,0,1.723-0.527,1.723-1.581v-2.618h-15.426v-2.196h15.426v-1.511c2.448-0.914,4.199-1.77,5.253-2.565h-13.458v-2.021
						h17.359v1.915c-1.827,1.242-4.089,2.514-6.783,3.813v0.369h14.146V364.551z M416.334,358.032h-2.109v-3.638h-24.546v3.848
						h-2.302v-5.903h3.022v-10.718c1.663-0.163,3.485-0.954,5.466-2.372l1.158,1.617c-1.064,0.983-2.52,1.728-4.358,2.231v1.475
						h4.499v1.828h-4.499v1.915h4.499v1.792h-4.499v2.231h18.679v-2.231h-4.289v-1.757h4.289v-2.056h-4.252v-1.792h4.252v-1.915
						h-4.973v-2.126h7.203v11.842h2.76V358.032z M406.371,344.397l-1.23,1.51c-0.667-0.644-1.575-1.34-2.723-2.09
						c-0.949,0.797-2.016,1.53-3.198,2.196l-1.44-1.265c1.136-0.469,2.131-1.02,2.986-1.651c-1.43-0.539-2.584-0.914-3.461-1.125
						l0.896-1.616c1.3,0.328,2.605,0.75,3.918,1.265c0.832-0.784,1.528-1.587,2.09-2.407l1.477,1.178
						c-0.469,0.726-1.078,1.435-1.826,2.126C404.725,343.009,405.563,343.637,406.371,344.397z M406.582,350.793l-1.477,1.16
						c-0.947-0.727-1.933-1.33-2.951-1.811c-0.633,0.48-1.758,1.084-3.374,1.811l-1.336-1.056c1.513-0.714,2.596-1.334,3.251-1.861
						c-0.655-0.41-1.652-0.866-2.986-1.371l1.317-1.107c1.206,0.434,2.237,0.886,3.093,1.354c0.328-0.188,0.99-0.749,1.984-1.687
						l1.617,0.826c-0.598,0.772-1.265,1.411-2.002,1.915C404.689,349.41,405.644,350.02,406.582,350.793z"/>
					<path fill="#A49B4B" d="M429.826,351.231c2.367,2.66,3.551,5.255,3.551,7.784c0,1.229-0.319,2.208-0.959,2.935
						c-0.637,0.728-1.53,1.09-2.679,1.09c-0.632,0-1.395-0.077-2.284-0.229l-0.65-2.338c1.254,0.317,2.156,0.475,2.706,0.475
						c0.456,0,0.872-0.176,1.248-0.527c0.375-0.351,0.563-0.819,0.563-1.405c0-0.878-0.322-2.003-0.966-3.374
						c-0.646-1.369-1.612-2.676-2.9-3.917l3.427-8.804h-5.218v27.99h-2.303V340.69h9.856v2.23L429.826,351.231z M454.057,364.463
						c-0.305,1.897-0.715,3.274-1.23,4.128c-0.515,0.855-1.354,1.283-2.512,1.283h-2.74c-1.828,0-2.741-0.961-2.741-2.881v-9.295
						h-3.708c-0.07,3.771-0.806,6.598-2.205,8.478c-1.4,1.881-3.996,3.459-7.793,4.735l-1.476-2.021
						c3.525-1.041,5.944-2.389,7.257-4.041c1.313-1.651,1.973-4.023,1.985-7.115h-4.814v-2.303h18.819v2.268h-5.871v8.75
						c0,0.293,0.095,0.565,0.282,0.816c0.188,0.253,0.41,0.378,0.668,0.378h2.231c0.457,0,0.806-0.374,1.046-1.124
						c0.239-0.749,0.441-1.722,0.606-2.917L454.057,364.463z M452.036,348.526l-2.231,0.035v-3.093h-13.248v3.093h-2.267v-5.324
						h7.713v-3.988h2.303v3.954h7.73V348.526z M449.085,351.917h-11.878v-2.301h11.878V351.917z"/>
					<path fill="#A49B4B" d="M489.778,364.551h-14.146v2.442c0,2.611-1.389,3.918-4.164,3.918h-2.336l-0.861-2.161h3.268
						c1.148,0,1.723-0.527,1.723-1.581v-2.618h-15.428v-2.196h15.428v-1.511c2.447-0.914,4.199-1.77,5.253-2.565h-13.459v-2.021
						h17.359v1.915c-1.827,1.242-4.089,2.514-6.782,3.813v0.369h14.146V364.551z M488.301,358.032h-2.107v-3.638h-24.545v3.848
						h-2.303v-5.903h3.023v-10.718c1.661-0.163,3.483-0.954,5.463-2.372l1.16,1.617c-1.066,0.983-2.519,1.728-4.357,2.231v1.475
						h4.498v1.828h-4.498v1.915h4.498v1.792h-4.498v2.231h18.677v-2.231h-4.287v-1.757h4.287v-2.056h-4.251v-1.792h4.251v-1.915
						h-4.972v-2.126h7.203v11.842h2.758V358.032z M478.34,344.397l-1.231,1.51c-0.668-0.644-1.575-1.34-2.724-2.09
						c-0.948,0.797-2.014,1.53-3.197,2.196l-1.441-1.265c1.138-0.469,2.134-1.02,2.988-1.651c-1.43-0.539-2.583-0.914-3.461-1.125
						l0.895-1.616c1.301,0.328,2.607,0.75,3.918,1.265c0.832-0.784,1.529-1.587,2.093-2.407l1.476,1.178
						c-0.469,0.726-1.079,1.435-1.828,2.126C476.693,343.009,477.531,343.637,478.34,344.397z M478.55,350.793l-1.476,1.16
						c-0.949-0.727-1.934-1.33-2.951-1.811c-0.634,0.48-1.757,1.084-3.375,1.811l-1.334-1.056c1.511-0.714,2.594-1.334,3.25-1.861
						c-0.656-0.41-1.652-0.866-2.987-1.371l1.317-1.107c1.207,0.434,2.238,0.886,3.092,1.354c0.328-0.188,0.99-0.749,1.986-1.687
						l1.616,0.826c-0.597,0.772-1.265,1.411-2.003,1.915C476.658,349.41,477.613,350.02,478.55,350.793z"/>
					<path fill="#A49B4B" d="M525.762,369.154h-31.978v-2.267h14.899v-8.241h-10.736v-2.267h10.736v-7.168h-7.96
						c-0.96,2.494-2.565,4.797-4.814,6.904l-2.318-1.212c3.841-3.55,5.979-7.896,6.413-13.037l2.371,0.686
						c-0.094,1.194-0.369,2.671-0.826,4.428h7.1v-7.696h2.371v7.66h12.404v2.268H511.02v7.134h10.578v2.266H511.02v8.241h14.742
						V369.154z"/>
					<path fill="#A49B4B" d="M562.325,347.384l-1.265,1.828c-3.994-0.984-7.122-2.12-9.383-3.408v1.58H539.8v-1.739
						c-3.42,1.769-6.489,2.923-9.206,3.462l-1.16-1.845c6.584-1.605,12.064-4.288,16.446-8.048l2.161,0.721
						c-0.235,0.293-0.439,0.498-0.615,0.615C551.314,343.782,556.282,346.061,562.325,347.384z M558.584,357.452h-25.512v-8.24
						h25.512V357.452z M556.492,370.945h-2.162v-1.405h-16.973v1.405h-2.16v-11.648h21.295V370.945z M544.772,355.554v-4.393h-9.54
						v4.393H544.772z M554.33,363.496v-2.267h-16.973v2.267H554.33z M554.33,367.643v-2.302h-16.973v2.302H554.33z M542.436,353.815
						l-1.81,1.265c-1.089-1.101-2.155-1.915-3.197-2.442l1.827-1.054C540.498,352.11,541.557,352.854,542.436,353.815z
						 M550.957,345.435c-1.698-0.891-3.344-2.091-4.937-3.604c-1.7,1.406-3.603,2.607-5.71,3.604H550.957z M556.422,355.554v-4.393
						h-9.487v4.393H556.422z M554.297,352.198c-0.692,1.102-1.734,2.038-3.129,2.812l-1.932-0.966
						c1.533-0.866,2.588-1.734,3.162-2.602L554.297,352.198z"/>
				</g>
			</g>
			<g>
				<path fill="#A49B4B" d="M105.422,628.538v-67.755h8.154v60.572h28.83v7.183H105.422z"/>
				<path fill="#A49B4B" d="M157.16,566.704c-1.684,0-2.896-0.401-3.641-1.213c-0.744-0.809-1.115-1.859-1.115-3.154v-1.263
					c0-1.294,0.371-2.345,1.115-3.154s1.957-1.214,3.641-1.214c1.682,0,2.896,0.404,3.641,1.214c0.743,0.81,1.116,1.86,1.116,3.154
					v1.263c0,1.295-0.373,2.346-1.116,3.154C160.057,566.303,158.842,566.704,157.16,566.704z M153.277,578.45h7.766v50.088h-7.766
					V578.45z"/>
				<path fill="#A49B4B" d="M177.545,628.538V578.45h7.766v8.062h0.389c1.229-2.817,2.961-5.062,5.193-6.727
					s5.225-2.499,8.979-2.499c5.178,0,9.271,1.666,12.28,4.998c3.009,3.334,4.514,8.042,4.514,14.125v32.129h-7.766v-30.837
					c0-9.016-3.786-13.523-11.357-13.523c-1.554,0-3.058,0.195-4.515,0.584c-1.455,0.39-2.766,0.974-3.931,1.752
					c-1.165,0.777-2.087,1.766-2.767,2.966c-0.68,1.199-1.02,2.61-1.02,4.232v34.826H177.545z"/>
				<path fill="#A49B4B" d="M272.48,626.889c0,6.924-1.941,12.36-5.824,16.308s-9.353,5.922-16.405,5.922
					c-4.077,0-7.589-0.634-10.532-1.899c-2.945-1.271-5.387-2.944-7.328-5.023l4.562-5.362c1.683,1.731,3.624,3.064,5.824,3.996
					c2.199,0.933,4.757,1.396,7.669,1.396c4.529,0,8.04-1.252,10.531-3.752c2.491-2.504,3.738-6.193,3.738-11.068v-6.928h-0.389
					c-1.489,3.076-3.431,5.381-5.824,6.919c-2.395,1.539-5.339,2.308-8.834,2.308c-3.105,0-5.921-0.616-8.445-1.845
					c-2.523-1.229-4.658-2.975-6.406-5.241c-1.747-2.265-3.105-5.015-4.076-8.252c-0.971-3.234-1.457-6.859-1.457-10.871
					s0.486-7.637,1.457-10.873c0.971-3.233,2.329-5.983,4.076-8.25c1.748-2.266,3.883-4.012,6.406-5.242
					c2.524-1.229,5.34-1.844,8.445-1.844c3.495,0,6.488,0.753,8.979,2.258c2.491,1.506,4.384,3.828,5.679,6.968h0.389v-8.062h7.766
					V626.889z M251.998,622.812c1.748,0,3.397-0.228,4.951-0.683c1.553-0.455,2.895-1.122,4.027-2.001
					c1.133-0.876,2.039-1.95,2.719-3.218c0.68-1.269,1.02-2.749,1.02-4.439v-18.635c0-1.365-0.324-2.649-0.971-3.854
					c-0.648-1.202-1.554-2.227-2.719-3.072c-1.164-0.845-2.523-1.512-4.076-2c-1.554-0.488-3.203-0.731-4.951-0.731
					c-4.401,0-7.896,1.397-10.483,4.194c-2.589,2.798-3.883,6.407-3.883,10.83v8.585c0,4.423,1.294,8.032,3.883,10.829
					C244.102,621.413,247.597,622.812,251.998,622.812z"/>
				<path fill="#A49B4B" d="M319.85,620.478h-0.389c-0.518,1.154-1.148,2.292-1.893,3.412c-0.744,1.122-1.666,2.115-2.766,2.979
					c-1.102,0.864-2.428,1.554-3.98,2.066c-1.553,0.512-3.365,0.769-5.436,0.769c-5.179,0-9.287-1.666-12.328-5
					c-3.043-3.332-4.563-8.039-4.563-14.123V578.45h7.766v30.838c0,9.016,3.817,13.523,11.454,13.523
					c1.554,0,3.058-0.193,4.514-0.584c1.456-0.389,2.75-0.973,3.883-1.75c1.132-0.778,2.038-1.768,2.718-2.966
					c0.68-1.2,1.02-2.645,1.02-4.331v-34.73h7.766v50.088h-7.766V620.478z"/>
				<path fill="#A49B4B" d="M348,566.704c-1.684,0-2.897-0.401-3.641-1.213c-0.744-0.809-1.116-1.859-1.116-3.154v-1.263
					c0-1.294,0.372-2.345,1.116-3.154c0.743-0.81,1.957-1.214,3.641-1.214c1.682,0,2.895,0.404,3.64,1.214
					c0.743,0.81,1.116,1.86,1.116,3.154v1.263c0,1.295-0.373,2.346-1.116,3.154C350.895,566.303,349.682,566.704,348,566.704z
					 M344.117,578.45h7.766v50.088h-7.766V578.45z"/>
				<path fill="#A49B4B" d="M383.431,629.704c-4.659,0-8.56-0.891-11.697-2.67c-3.14-1.779-5.841-4.158-8.105-7.135l5.533-4.465
					c1.941,2.459,4.108,4.353,6.504,5.678c2.394,1.328,5.177,1.991,8.349,1.991c3.3,0,5.872-0.712,7.717-2.135
					c1.844-1.425,2.766-3.431,2.766-6.021c0-1.941-0.631-3.604-1.893-4.998c-1.262-1.392-3.543-2.346-6.844-2.863l-3.979-0.583
					c-2.329-0.323-4.466-0.825-6.407-1.505s-3.64-1.585-5.096-2.718c-1.456-1.132-2.589-2.54-3.397-4.224
					c-0.81-1.682-1.214-3.688-1.214-6.018c0-2.459,0.453-4.611,1.359-6.455c0.906-1.845,2.15-3.381,3.737-4.611
					c1.585-1.229,3.478-2.15,5.679-2.766c2.199-0.614,4.563-0.922,7.086-0.922c4.077,0,7.49,0.712,10.241,2.135
					c2.75,1.425,5.16,3.397,7.231,5.923l-5.145,4.658c-1.102-1.554-2.718-2.961-4.854-4.224c-2.135-1.261-4.821-1.892-8.057-1.892
					c-3.236,0-5.679,0.695-7.329,2.087c-1.649,1.392-2.476,3.286-2.476,5.679c0,2.46,0.826,4.239,2.476,5.339
					c1.65,1.103,4.028,1.908,7.135,2.427l3.883,0.581c5.565,0.842,9.513,2.444,11.843,4.806c2.33,2.363,3.494,5.452,3.494,9.271
					c0,4.854-1.65,8.672-4.95,11.454C393.721,628.313,389.189,629.704,383.431,629.704z"/>
				<path fill="#A49B4B" d="M426.046,628.538c-2.718,0-4.772-0.758-6.164-2.274s-2.087-3.502-2.087-5.957v-34.963h-8.251v-6.894
					h4.659c1.682,0,2.83-0.34,3.446-1.02c0.614-0.679,0.922-1.859,0.922-3.542v-9.319h6.989v13.881h10.969v6.894h-10.969v36.304
					h10.192v6.891H426.046z"/>
				<path fill="#A49B4B" d="M452.935,566.704c-1.684,0-2.897-0.401-3.64-1.213c-0.745-0.809-1.117-1.859-1.117-3.154v-1.263
					c0-1.294,0.372-2.345,1.117-3.154c0.742-0.81,1.956-1.214,3.64-1.214c1.683,0,2.896,0.404,3.64,1.214s1.117,1.86,1.117,3.154
					v1.263c0,1.295-0.373,2.346-1.117,3.154C455.83,566.303,454.617,566.704,452.935,566.704z M449.052,578.45h7.766v50.088h-7.766
					V578.45z"/>
				<path fill="#A49B4B" d="M491.957,629.704c-3.494,0-6.635-0.616-9.416-1.845c-2.783-1.229-5.129-2.975-7.037-5.241
					c-1.91-2.265-3.366-5.015-4.369-8.252c-1.004-3.234-1.504-6.859-1.504-10.871s0.5-7.637,1.504-10.873
					c1.003-3.233,2.459-5.983,4.369-8.25c1.908-2.266,4.254-4.012,7.037-5.242c2.781-1.229,5.922-1.844,9.416-1.844
					c4.982,0,8.979,1.084,11.988,3.251c3.01,2.169,5.258,5,6.746,8.493l-6.504,3.301c-0.906-2.588-2.395-4.594-4.465-6.018
					c-2.072-1.424-4.659-2.136-7.766-2.136c-2.33,0-4.368,0.373-6.115,1.116c-1.748,0.744-3.203,1.78-4.369,3.105
					c-1.164,1.328-2.038,2.912-2.62,4.757c-0.583,1.845-0.874,3.868-0.874,6.067v8.541c0,4.403,1.18,8.01,3.543,10.824
					c2.361,2.815,5.84,4.223,10.436,4.223c6.276,0,10.807-2.912,13.59-8.736l5.631,3.785c-1.619,3.626-4.029,6.504-7.232,8.641
					C500.742,628.637,496.746,629.704,491.957,629.704z"/>
				<path fill="#A49B4B" d="M537.191,629.704c-4.66,0-8.559-0.891-11.697-2.67c-3.14-1.779-5.841-4.158-8.105-7.135l5.533-4.465
					c1.941,2.459,4.109,4.353,6.504,5.678c2.393,1.328,5.176,1.991,8.348,1.991c3.301,0,5.873-0.712,7.717-2.135
					c1.846-1.425,2.768-3.431,2.768-6.021c0-1.941-0.631-3.604-1.893-4.998c-1.263-1.392-3.544-2.346-6.844-2.863l-3.98-0.583
					c-2.33-0.323-4.465-0.825-6.406-1.505s-3.641-1.585-5.097-2.718c-1.456-1.132-2.589-2.54-3.397-4.224
					c-0.811-1.682-1.213-3.688-1.213-6.018c0-2.459,0.451-4.611,1.358-6.455c0.905-1.845,2.151-3.381,3.737-4.611
					c1.585-1.229,3.479-2.15,5.679-2.766c2.199-0.614,4.563-0.922,7.087-0.922c4.076,0,7.488,0.712,10.24,2.135
					c2.75,1.425,5.16,3.397,7.232,5.923l-5.146,4.658c-1.101-1.554-2.718-2.961-4.854-4.224c-2.136-1.261-4.821-1.892-8.057-1.892
					c-3.237,0-5.679,0.695-7.329,2.087s-2.475,3.286-2.475,5.679c0,2.46,0.824,4.239,2.475,5.339
					c1.65,1.103,4.029,1.908,7.135,2.427l3.883,0.581c5.564,0.842,9.514,2.444,11.843,4.806c2.329,2.363,3.495,5.452,3.495,9.271
					c0,4.854-1.65,8.672-4.951,11.454C547.48,628.313,542.95,629.704,537.191,629.704z"/>
				<path fill="#A49B4B" d="M124.448,746.188c-5.501,0-10.192-1.052-14.075-3.154c-3.883-2.102-7.184-4.999-9.901-8.687l6.019-5.05
					c2.393,3.173,5.047,5.582,7.959,7.232s6.342,2.476,10.291,2.476c4.854,0,8.557-1.165,11.113-3.494
					c2.557-2.331,3.835-5.437,3.835-9.319c0-3.234-0.971-5.727-2.912-7.474c-1.941-1.748-5.146-3.14-9.61-4.175l-5.533-1.262
					c-6.213-1.424-10.953-3.575-14.221-6.455c-3.269-2.879-4.902-6.94-4.902-12.184c0-2.975,0.549-5.629,1.65-7.959
					c1.1-2.33,2.637-4.271,4.611-5.824c1.973-1.553,4.334-2.733,7.086-3.543c2.75-0.808,5.775-1.214,9.076-1.214
					c5.111,0,9.496,0.938,13.153,2.815c3.655,1.877,6.746,4.627,9.271,8.251l-6.115,4.467c-1.879-2.589-4.143-4.627-6.795-6.117
					c-2.654-1.487-5.955-2.232-9.902-2.232c-4.336,0-7.75,0.922-10.24,2.767c-2.492,1.844-3.738,4.611-3.738,8.3
					c0,3.236,1.052,5.679,3.156,7.328c2.102,1.65,5.289,2.962,9.561,3.932l5.533,1.263c6.664,1.488,11.486,3.754,14.463,6.795
					s4.466,7.086,4.466,12.134c0,3.106-0.534,5.921-1.602,8.444s-2.606,4.66-4.61,6.406c-2.008,1.748-4.451,3.108-7.329,4.078
					C131.324,745.704,128.072,746.188,124.448,746.188z"/>
				<path fill="#A49B4B" d="M179.973,746.188c-3.366,0-6.44-0.615-9.223-1.843c-2.783-1.229-5.161-2.993-7.135-5.291
					c-1.975-2.295-3.511-5.048-4.61-8.25c-1.101-3.204-1.649-6.812-1.649-10.825c0-3.945,0.549-7.537,1.649-10.775
					c1.1-3.233,2.636-6.001,4.61-8.299c1.974-2.297,4.352-4.06,7.135-5.291c2.782-1.228,5.856-1.844,9.223-1.844
					c3.363,0,6.422,0.616,9.173,1.844c2.75,1.231,5.128,2.994,7.135,5.291c2.005,2.298,3.559,5.065,4.659,8.299
					c1.1,3.238,1.65,6.83,1.65,10.775c0,4.014-0.551,7.621-1.65,10.825c-1.101,3.202-2.654,5.955-4.659,8.25
					c-2.007,2.298-4.385,4.062-7.135,5.291C186.395,745.573,183.336,746.188,179.973,746.188z M179.973,739.297
					c4.205,0,7.635-1.293,10.289-3.883c2.652-2.587,3.98-6.536,3.98-11.843v-7.183c0-5.306-1.328-9.254-3.98-11.843
					c-2.654-2.588-6.084-3.883-10.289-3.883c-4.207,0-7.637,1.295-10.29,3.883c-2.654,2.589-3.979,6.537-3.979,11.843v7.183
					c0,5.307,1.325,9.256,3.979,11.843C172.336,738.004,175.766,739.297,179.973,739.297z"/>
				<path fill="#A49B4B" d="M234.041,746.188c-3.494,0-6.635-0.615-9.416-1.843c-2.783-1.229-5.13-2.977-7.037-5.242
					c-1.91-2.265-3.366-5.015-4.369-8.251c-1.004-3.236-1.504-6.859-1.504-10.873c0-4.011,0.5-7.634,1.504-10.871
					c1.003-3.236,2.459-5.986,4.369-8.252c1.907-2.263,4.254-4.011,7.037-5.242c2.781-1.228,5.922-1.844,9.416-1.844
					c4.982,0,8.979,1.084,11.988,3.252c3.009,2.169,5.257,5,6.746,8.494l-6.504,3.301c-0.906-2.588-2.395-4.595-4.465-6.02
					c-2.072-1.422-4.66-2.135-7.766-2.135c-2.33,0-4.369,0.373-6.115,1.115c-1.748,0.745-3.203,1.781-4.369,3.108
					c-1.164,1.325-2.038,2.911-2.621,4.755c-0.582,1.845-0.873,3.868-0.873,6.066v8.543c0,4.402,1.18,8.009,3.543,10.824
					c2.361,2.814,5.84,4.222,10.436,4.222c6.275,0,10.807-2.912,13.59-8.736l5.63,3.787c-1.618,3.625-4.028,6.503-7.231,8.639
					C242.826,745.121,238.829,746.188,234.041,746.188z"/>
				<path fill="#A49B4B" d="M268.111,683.19c-1.684,0-2.896-0.403-3.64-1.214c-0.745-0.809-1.116-1.859-1.116-3.155v-1.262
					c0-1.293,0.371-2.345,1.116-3.155c0.743-0.807,1.956-1.213,3.64-1.213c1.683,0,2.896,0.406,3.641,1.213
					c0.743,0.811,1.116,1.862,1.116,3.155v1.262c0,1.296-0.373,2.347-1.116,3.155C271.008,682.787,269.794,683.19,268.111,683.19z
					 M264.229,694.936h7.766v50.089h-7.766V694.936z"/>
				<path fill="#A49B4B" d="M307.328,746.188c-3.43,0-6.52-0.615-9.27-1.843c-2.752-1.229-5.113-2.993-7.086-5.291
					c-1.976-2.295-3.495-5.048-4.563-8.25c-1.068-3.204-1.602-6.812-1.602-10.825c0-3.945,0.533-7.537,1.602-10.775
					c1.067-3.233,2.587-6.001,4.563-8.299c1.973-2.297,4.334-4.06,7.086-5.291c2.75-1.228,5.84-1.844,9.27-1.844
					c3.365,0,6.373,0.614,9.027,1.838c2.654,1.227,4.918,2.92,6.795,5.08s3.316,4.723,4.32,7.689
					c1.002,2.968,1.505,6.224,1.505,9.77v3.677h-36.014v2.33c0,2.136,0.34,4.125,1.02,5.97c0.679,1.845,1.649,3.446,2.912,4.806
					c1.262,1.358,2.815,2.426,4.659,3.202c1.844,0.777,3.932,1.165,6.262,1.165c3.17,0,5.936-0.742,8.299-2.232
					c2.361-1.487,4.189-3.624,5.484-6.407l5.533,4.006c-1.618,3.453-4.143,6.236-7.571,8.352
					C316.129,745.13,312.052,746.188,307.328,746.188z M307.328,700.274c-2.135,0-4.076,0.37-5.824,1.11
					c-1.747,0.74-3.252,1.785-4.514,3.136c-1.262,1.35-2.249,2.941-2.961,4.773c-0.713,1.834-1.067,3.845-1.067,6.031v0.674h27.665
					v-1.061c0-4.438-1.213-7.99-3.64-10.66C314.561,701.609,311.34,700.274,307.328,700.274z"/>
				<path fill="#A49B4B" d="M352.854,745.024c-2.718,0-4.772-0.758-6.164-2.275c-1.392-1.517-2.087-3.504-2.087-5.957v-34.965
					h-8.251v-6.892h4.659c1.682,0,2.83-0.34,3.446-1.02c0.614-0.679,0.922-1.859,0.922-3.542v-9.32h6.989v13.882h10.969v6.892
					h-10.969v36.305h10.192v6.893H352.854z"/>
				<path fill="#A49B4B" d="M406.729,694.936h7.669l-22.423,61.737c-0.583,1.488-1.166,2.732-1.748,3.736s-1.295,1.797-2.135,2.379
					c-0.842,0.582-1.894,1.003-3.155,1.263c-1.263,0.257-2.8,0.388-4.61,0.388h-3.98v-6.893h7.863l3.785-10.659l-18.734-51.951
					h7.766l12.037,34.007l2.329,8.139h0.485l2.718-8.139L406.729,694.936z"/>
				<g>
					<path fill="#A49B4B" d="M118.828,839.938l-2.416-7.678h-10.699l-2.372,7.678H97.56l10.095-30.112h7.076l10.008,30.112H118.828z
						 M111.149,815.003h-0.216l-3.84,12.382h7.938L111.149,815.003z"/>
					<path fill="#A49B4B" d="M149.155,839.938l-2.415-7.678h-10.699l-2.373,7.678h-5.781l10.096-30.112h7.074l10.009,30.112H149.155
						z M141.477,815.003h-0.216l-3.839,12.382h7.938L141.477,815.003z"/>
					<path fill="#A49B4B" d="M178.621,827.212h-12.555v12.726h-5.695v-30.112h5.695v12.338h12.555v-12.338h5.693v30.112h-5.693
						V827.212z"/>
					<path fill="#A49B4B" d="M201.959,826.307l-4.012,4.746v8.885h-5.695v-30.112h5.695v14.841h0.215l4.271-5.65l7.463-9.19h6.559
						l-10.484,12.554l11.346,17.559h-6.771L201.959,826.307z"/>
					<path fill="#A49B4B" d="M227.758,809.825v18.508c0,2.359,0.452,4.127,1.359,5.307c0.904,1.18,2.437,1.769,4.594,1.769
						c2.156,0,3.688-0.589,4.595-1.769c0.905-1.18,1.358-2.947,1.358-5.307v-18.508h5.608v17.775c0,2.215-0.208,4.127-0.626,5.736
						c-0.417,1.611-1.086,2.949-2.006,4.014c-0.92,1.063-2.121,1.848-3.602,2.351c-1.482,0.502-3.273,0.754-5.371,0.754
						c-2.129,0-3.92-0.252-5.371-0.754c-1.453-0.503-2.64-1.287-3.56-2.351c-0.921-1.064-1.582-2.402-1.984-4.014
						c-0.403-1.609-0.604-3.521-0.604-5.736v-17.775H227.758z"/>
					<path fill="#A49B4B" d="M262.355,840.455c-2.588,0-4.781-0.46-6.579-1.382s-3.343-2.132-4.638-3.631l3.84-3.715
						c1.036,1.198,2.193,2.111,3.473,2.738c1.279,0.63,2.696,0.942,4.25,0.942c1.754,0,3.076-0.378,3.969-1.134
						c0.891-0.757,1.338-1.776,1.338-3.061c0-1-0.288-1.813-0.863-2.441c-0.576-0.627-1.654-1.084-3.235-1.37l-2.848-0.427
						c-6.012-0.951-9.017-3.874-9.017-8.77c0-1.354,0.252-2.576,0.756-3.67c0.502-1.096,1.229-2.031,2.178-2.809
						s2.092-1.375,3.43-1.793c1.338-0.417,2.854-0.626,4.551-0.626c2.272,0,4.257,0.375,5.955,1.124
						c1.695,0.75,3.148,1.857,4.356,3.329l-3.883,3.674c-0.748-0.912-1.654-1.654-2.718-2.225c-1.064-0.569-2.401-0.855-4.012-0.855
						c-1.641,0-2.869,0.307-3.689,0.92c-0.818,0.613-1.229,1.476-1.229,2.587c0,1.141,0.331,1.981,0.993,2.524
						c0.66,0.541,1.725,0.94,3.192,1.196l2.804,0.518c3.048,0.548,5.299,1.52,6.752,2.916c1.451,1.396,2.178,3.347,2.178,5.852
						c0,1.44-0.252,2.742-0.754,3.909c-0.504,1.165-1.237,2.173-2.201,3.022s-2.143,1.505-3.537,1.966
						C265.771,840.226,264.168,840.455,262.355,840.455z"/>
					<path fill="#A49B4B" d="M285.608,809.825v18.508c0,2.359,0.452,4.127,1.358,5.307s2.438,1.769,4.595,1.769
						s3.688-0.589,4.595-1.769s1.358-2.947,1.358-5.307v-18.508h5.608v17.775c0,2.215-0.209,4.127-0.625,5.736
						c-0.418,1.611-1.086,2.949-2.006,4.014c-0.921,1.063-2.122,1.848-3.603,2.351c-1.481,0.502-3.272,0.754-5.371,0.754
						c-2.129,0-3.919-0.252-5.371-0.754c-1.452-0.503-2.64-1.287-3.56-2.351c-0.92-1.064-1.582-2.402-1.984-4.014
						c-0.402-1.609-0.604-3.521-0.604-5.736v-17.775H285.608z"/>
				</g>
			</g>
			<g>
				<text transform="matrix(1.0154 0 0 1 97.5596 1031.9023)" fill="#A49B4B" font-family="'FiraSans-Bold'" font-size="30">Session 2017–2018</text>
				<g>
					
						<text transform="matrix(1.0154 0 0 1 97.5596 979.7559)" fill="#A49B4B" font-family="'NotoSansCJKtc-Medium-B5pc-H'" font-size="38.7079" letter-spacing="1.97">二零一七至二零一八年度</text>
				</g>
			</g>
			<g>
				<rect x="97.56" y="908.211" fill="#A49B4B" width="464.766" height="1.5"/>
			</g>
		</g>
	</g>
</g>
</svg>
