<?xml version="1.0" encoding="utf-8"?>
<!-- Generator: Adobe Illustrator 16.0.0, SVG Export Plug-In . SVG Version: 6.00 Build 0)  -->
<!DOCTYPE svg PUBLIC "-//W3C//DTD SVG 1.0//EN" "http://www.w3.org/TR/2001/REC-SVG-20010904/DTD/svg10.dtd">
<svg version="1.0" id="Logotypes" xmlns="http://www.w3.org/2000/svg" xmlns:xlink="http://www.w3.org/1999/xlink" x="0px" y="0px"
	 width="633.189px" height="693.877px" viewBox="0 0 633.189 693.877" enable-background="new 0 0 633.189 693.877"
	 xml:space="preserve">
<g>
	<defs>
		<rect id="SVGID_19_" x="0.001" width="633.189" height="693.877"/>
	</defs>
	<clipPath id="SVGID_2_">
		<use xlink:href="#SVGID_19_"  overflow="visible"/>
	</clipPath>
	<g clip-path="url(#SVGID_2_)">
		<g>
			
				<text transform="matrix(1.0154 0 0 1 97.5576 621.8115)" fill="#333E48" font-family="'NotoSansCJKtc-Medium-B5pc-H'" font-size="38.7079" letter-spacing="1.97">二零一七至二零一八年度</text>
		</g>
		<g>
			<g>
				<g>
					<path fill="#EE202E" d="M77.71,170.747c3.777,0,6.838,3.061,6.838,6.837c-0.002-0.14-0.006-0.278-0.006-0.419
						c0-51.154,41.469-92.623,92.623-92.623c3.778,0,6.838-3.061,6.838-6.838c0-3.776-3.061-6.838-6.838-6.838
						c-14.344,0-28.265,2.813-41.381,8.359C123.126,84.58,111.759,92.242,102.001,102c-9.758,9.759-17.422,21.125-22.775,33.784
						c-5.547,13.115-8.359,27.037-8.359,41.381c0,0.141,0.004,0.279,0.006,0.419C70.872,173.808,73.933,170.747,77.71,170.747z"/>
					<path fill="#46BC96" d="M170.329,276.627c0-3.776,3.061-6.838,6.836-6.838c-51.015,0-92.392-41.242-92.617-92.205
						c0-3.776-3.061-6.837-6.838-6.837c-3.778,0-6.838,3.061-6.838,6.837c0.055,14.196,2.861,27.976,8.354,40.963
						c5.354,12.659,13.018,24.025,22.775,33.783c9.758,9.759,21.125,17.421,33.783,22.775c13.115,5.547,27.037,8.359,41.381,8.359
						C173.39,283.465,170.329,280.403,170.329,276.627z"/>
					<path fill="#00C2F3" d="M251.265,243.702c-2.67-2.671-6.998-2.671-9.67,0c-16.672,16.146-39.387,26.087-64.43,26.087
						c-3.775,0-6.836,3.062-6.836,6.838s3.061,6.838,6.836,6.838c14.346,0,28.268-2.813,41.383-8.359
						c12.203-5.16,23.199-12.474,32.717-21.732C253.937,250.702,253.937,246.373,251.265,243.702z"/>
				</g>
				<g>
					<path fill="#00C2F3" d="M233.458,120.874c-15.035-15.035-35.027-23.315-56.293-23.315c-21.261,0-41.254,8.28-56.291,23.315
						c-15.035,15.036-23.316,35.027-23.316,56.291c0,21.266,8.281,41.255,23.316,56.292c15.037,15.035,35.03,23.317,56.291,23.317
						c21.266,0,41.258-8.282,56.293-23.317c15.035-15.037,23.315-35.026,23.315-56.292
						C256.772,155.901,248.493,135.91,233.458,120.874z"/>
					<path fill="#333E48" d="M121.062,202.91v-51.489h11.168v3.807h-6.473v43.877h6.473v3.806H121.062z"/>
					<path fill="#333E48" d="M233.271,151.421v51.489h-11.164v-3.806h6.469v-43.877h-6.469v-3.807H233.271z"/>
					<path fill="#FFFFFF" d="M146.997,187.625c0,1.028,0.016,2.242,0.047,3.636c0.031,1.395,0.076,2.813,0.131,4.248
						c0.053,1.438,0.115,2.812,0.193,4.12c0.072,1.309,0.164,2.402,0.271,3.281h-6.596v-36.364c0-3.133-0.053-5.969-0.162-8.512
						c-0.105-2.543-0.268-4.748-0.482-6.613h6.598V187.625z"/>
					<path fill="#FFFFFF" d="M175.8,170.085v4.217h-6.051v24.394h6.051v4.216h-18.021v-4.216h5.953v-24.394h-5.953v-4.217H175.8z"/>
					<path fill="#FFFFFF" d="M189.315,170.085c0.129,0.345,0.258,0.789,0.387,1.338c0.129,0.546,0.246,1.119,0.354,1.721
						c0.105,0.6,0.203,1.19,0.291,1.77l0.256,1.447c2.061-2.445,4.129-4.209,6.211-5.293c2.08-1.083,4.25-1.625,6.5-1.625
						c1.717,0,3.234,0.284,4.555,0.852c1.318,0.57,2.43,1.471,3.33,2.703c0.9,1.234,1.582,2.834,2.045,4.796
						c0.461,1.964,0.691,4.327,0.691,7.097v14.48c0,3.626-0.318,6.636-0.951,9.027c-0.631,2.393-1.518,4.302-2.654,5.73
						c-1.137,1.424-2.506,2.434-4.104,3.022c-1.598,0.591-3.373,0.886-5.326,0.886c-0.965,0-2-0.155-3.105-0.467
						c-1.104-0.312-2.107-0.745-3.008-1.304l2.092-4.827c0.494,0.365,1.152,0.67,1.979,0.918c0.826,0.246,1.67,0.369,2.525,0.369
						c1.031,0,1.953-0.166,2.77-0.498c0.814-0.333,1.506-0.916,2.074-1.754c0.57-0.837,1.004-1.984,1.305-3.443
						s0.449-3.315,0.449-5.567v-14.16c0-2.574-0.133-4.661-0.4-6.259c-0.27-1.599-0.672-2.844-1.209-3.733
						c-0.535-0.89-1.205-1.485-2.012-1.787c-0.803-0.299-1.742-0.45-2.814-0.45c-1.158,0-2.289,0.273-3.395,0.822
						c-1.104,0.547-2.119,1.255-3.043,2.123c-0.922,0.868-1.736,1.85-2.443,2.945c-0.709,1.094-1.234,2.188-1.578,3.281v18.666
						h-5.953v-19.792c0-3.175-0.184-5.862-0.549-8.062c-0.363-2.199-0.719-3.856-1.06-4.973H189.315z"/>
				</g>
			</g>
		</g>
		<g>
			<g>
				<path fill="#333E48" d="M129.767,447.271H97.558v-5.346h32.209V447.271z M125.575,504.202h-5.52v-5.86h-12.873v5.86h-5.604
					v-28.915h23.996V504.202z M125.317,458.308l-23.653,0.085v-5.346h23.653V458.308z M125.403,469.514h-23.739v-5.347h23.739
					V469.514z M124.333,436.408l-21.728,0.086v-5.348h21.728V436.408z M120.056,493.08v-12.531h-12.959v12.531H120.056z
					 M175.317,469.6l-46.236,0.085v-5.261h11.463l2.48-13.217h-10.692v-5.261h11.549l1.838-9.796h-16.381v-5.346h42.473v5.262
					h-20.318l-1.752,9.795h17.621l-1.84,18.477h9.795V469.6z M167.876,504.373h-5.517v-5.774h-21.643v5.774h-5.604v-29h32.763
					V504.373z M162.358,493.338v-12.703H140.63v12.703H162.358z M161.503,451.121H148.8l-2.48,13.303h13.857L161.503,451.121z"/>
				<path fill="#333E48" d="M271.761,447.271h-77.76v-5.346h77.76V447.271z M260.298,458.222h-55.604v-5.175h55.604V458.222z
					 M260.298,469.342h-55.604v-5.175h55.604V469.342z M258.288,504.373h-5.518v-6.031h-40.121v6.031h-5.518v-29.086h51.156V504.373
					z M258.202,435.852l-50.643,0.129v-5.176h50.643V435.852z M252.771,493.08v-12.531h-40.121v12.531H252.771z"/>
				<path fill="#333E48" d="M368.204,488.89h-34.432v5.945c0,6.358-3.379,9.538-10.139,9.538h-5.688l-2.096-5.261h7.955
					c2.795,0,4.193-1.284,4.193-3.85v-6.373h-37.554v-5.347h37.554v-3.679c5.957-2.224,10.221-4.305,12.787-6.244h-32.764v-4.919
					h42.262v4.662c-4.451,3.022-9.953,6.116-16.512,9.281v0.898h34.432V488.89z M364.612,473.021h-5.135v-8.854h-59.752v9.367
					h-5.604v-14.371h7.357v-26.092c4.047-0.399,8.482-2.324,13.303-5.774l2.822,3.936c-2.596,2.396-6.131,4.207-10.607,5.432v3.594
					h10.949v4.448h-10.949v4.662h10.949v4.362h-10.949v5.433h45.467v-5.433h-10.438v-4.277h10.438v-5.004h-10.352v-4.363h10.352
					v-4.662h-12.105v-5.176h17.537v28.829h6.717V473.021z M340.358,439.83l-2.992,3.678c-1.627-1.567-3.838-3.265-6.631-5.09
					c-2.309,1.939-4.904,3.721-7.785,5.347l-3.508-3.08c2.768-1.14,5.189-2.48,7.273-4.021c-3.48-1.311-6.289-2.224-8.428-2.736
					l2.182-3.936c3.164,0.798,6.344,1.825,9.539,3.079c2.023-1.909,3.721-3.863,5.09-5.859l3.592,2.866
					c-1.141,1.768-2.623,3.493-4.447,5.175C336.353,436.45,338.392,437.977,340.358,439.83z M340.872,455.398l-3.592,2.823
					c-2.311-1.769-4.707-3.236-7.186-4.405c-1.541,1.169-4.277,2.637-8.213,4.405l-3.25-2.566c3.678-1.739,6.314-3.251,7.912-4.534
					c-1.598-0.997-4.02-2.109-7.271-3.336l3.207-2.694c2.937,1.056,5.447,2.153,7.529,3.293c0.797-0.455,2.408-1.824,4.832-4.106
					l3.936,2.011c-1.455,1.882-3.078,3.437-4.875,4.663C336.267,452.034,338.591,453.517,340.872,455.398z"/>
				<path fill="#333E48" d="M464.562,488.89H430.13v5.945c0,6.358-3.379,9.538-10.137,9.538h-5.689l-2.096-5.261h7.955
					c2.795,0,4.191-1.284,4.191-3.85v-6.373h-37.553v-5.347h37.553v-3.679c5.961-2.224,10.223-4.305,12.791-6.244H404.38v-4.919
					h42.26v4.662c-4.447,3.022-9.953,6.116-16.51,9.281v0.898h34.432V488.89z M460.97,473.021h-5.135v-8.854h-59.752v9.367h-5.603
					v-14.371h7.357v-26.092c4.049-0.399,8.482-2.324,13.303-5.774l2.822,3.936c-2.594,2.396-6.131,4.207-10.607,5.432v3.594h10.949
					v4.448h-10.949v4.662h10.949v4.362h-10.949v5.433h45.467v-5.433h-10.436v-4.277h10.436v-5.004H438.47v-4.363h10.352v-4.662
					h-12.105v-5.176h17.537v28.829h6.717V473.021z M438.239,454.439l-3.896,3.563c-1.779-2.673-4.324-6.019-6.785-8.096
					c-3.826,4.263-6.975,6.976-9.434,8.137l-3.855-3.238c2.898-1.379,6.041-3.955,9.434-7.732c-3.855-2.402-6.604-3.888-8.244-4.455
					l3.364-3.479c1.367,0.539,3.936,1.941,7.711,4.21c1.123-1.836,1.996-3.847,2.625-6.033h-12.879v-5.06h6.904v-5.21h4.432v5.21
					h8.195v5.06h-1.623c-0.91,3.349-2.135,6.249-3.676,8.705C433.493,448.287,436.353,451.74,438.239,454.439z"/>
				<path fill="#333E48" d="M562.329,447.102l-3.078,4.447c-9.725-2.395-17.338-5.16-22.84-8.297v3.85h-28.916v-4.235
					c-8.326,4.306-15.797,7.115-22.412,8.427l-2.822-4.491c16.023-3.906,29.369-10.437,40.035-19.59l5.26,1.753
					c-0.57,0.713-1.07,1.213-1.498,1.497C535.524,438.332,547.616,443.879,562.329,447.102z M553.218,471.609h-62.104v-20.061
					h62.104V471.609z M548.13,504.458h-5.262v-3.422h-41.316v3.422h-5.262v-28.357h51.84V504.458z M519.601,466.99v-10.693h-23.227
					v10.693H519.601z M542.868,486.323v-5.518h-41.316v5.518H542.868z M542.868,496.418v-5.604h-41.316v5.604H542.868z
					 M513.911,462.756l-4.404,3.079c-2.652-2.679-5.248-4.661-7.785-5.945l4.447-2.565
					C509.192,458.606,511.772,460.418,513.911,462.756z M534.657,442.354c-4.135-2.167-8.143-5.09-12.02-8.769
					c-4.135,3.422-8.768,6.345-13.9,8.769H534.657z M547.96,466.99v-10.693h-23.098v10.693H547.96z M542.782,458.82
					c-1.682,2.681-4.221,4.963-7.613,6.844l-4.705-2.352c3.736-2.11,6.303-4.221,7.699-6.332L542.782,458.82z"/>
			</g>
			<g>
				<path fill="#333E48" d="M130.169,377.352l-1.635,1.881c-4.895-1.723-9.557-4.756-13.984-9.102l0.035,6.869h8.205v15.11h-2.232
					v-2.021h-14.215v2.021h-2.301V377h8.24v-6.869c-2.412,3.689-6.771,6.577-13.072,8.662l-1.653-1.863
					c5.588-1.476,9.582-3.742,11.984-6.799h-9.998v-2.197h12.738v-3.391c-2.799,0.281-6.314,0.486-10.543,0.615l-1.51-2.126
					c9.99-0.036,17.969-0.872,23.93-2.513l1.688,1.688c-3.314,0.89-7.07,1.574-11.262,2.055v3.672h12.914v2.197l-10.068-0.035
					C121.155,373.328,125.401,375.748,130.169,377.352z M120.558,382.289v-3.092h-14.25v3.092H120.558z M120.558,387.93v-3.479
					h-14.25v3.479H120.558z"/>
				<path fill="#333E48" d="M139.306,378.968c-1.477,4.581-3.408,8.336-5.797,11.264l2.055,1.3
					c2.658-3.351,4.615-7.104,5.869-11.262L139.306,378.968z M135.599,369.217l-1.477,1.846c2.33,0.995,4.176,2.424,5.535,4.286
					l1.545-2.091C139.985,371.629,138.116,370.283,135.599,369.217z M137.319,361.346l-1.65,1.688
					c2.248,0.807,4.023,2.166,5.324,4.075l1.65-1.774C141.39,363.518,139.616,362.189,137.319,361.346z"/>
				<path fill="#333E48" d="M160.284,384.311v-6.625c1.395,1.313,2.895,2.39,4.5,3.234l1.439-1.952
					c-3.068-1.311-5.459-3.386-7.168-6.219h6.008v-2.161h-5.744v-4.199h4.338v-2.162h-4.338v-3.706h-2.232v3.741h-6.518v-3.741
					h-2.232v3.741h-4.322v2.16h4.357v4.199h-5.729v2.163h5.799c-1.299,2.437-3.648,4.463-7.045,6.078l1.65,1.95
					c1.004-0.582,1.93-1.215,2.775-1.896v9.418c0,2.015,1.008,3.021,3.023,3.021h11.508c0.937,0,1.678-0.311,2.223-0.931
					c0.545-0.621,0.971-1.845,1.273-3.671l-2.266-1.021c-0.152,1.464-0.375,2.4-0.668,2.811c-0.293,0.411-0.685,0.615-1.176,0.615
					h-10.719c-0.647,0-0.967-0.321-0.967-0.967v-3.882H160.284z M150.569,366.389h6.553v4.199h-6.553V366.389z M150.778,372.749
					h5.975c0.574,1.358,1.441,2.688,2.6,3.989h-11.156C149.462,375.344,150.323,374.014,150.778,372.749z M148.056,378.898h9.998
					v3.285h-9.998V378.898z"/>
				<path fill="#333E48" d="M202.067,390.354l-1.635,1.827c-7.32-3.993-11.971-10.724-13.951-20.188
					c-2.447,9.617-7.438,16.347-14.969,20.188l-1.775-2.091c7.461-3.631,12.188-9.651,14.179-18.062H171.97v-2.267h12.211
					c0.223-2.202,0.316-5.283,0.281-9.242l2.441,0.352c0.059,3.584-0.012,6.536-0.211,8.855h13.318v2.267h-11.086
					C190.329,380.018,194.712,386.137,202.067,390.354z"/>
				<path fill="#333E48" d="M237.894,385.785h-14.145v2.443c0,2.611-1.388,3.918-4.164,3.918h-2.338l-0.859-2.161h3.268
					c1.146,0,1.72-0.527,1.72-1.581v-2.619H205.95v-2.195h15.426v-1.512c2.449-0.913,4.201-1.769,5.254-2.564h-13.459v-2.021h17.359
					v1.915c-1.826,1.242-4.088,2.513-6.781,3.813v0.369h14.145V385.785z M236.417,379.268h-2.107v-3.638h-24.547v3.848h-2.301
					v-5.903h3.021v-10.718c1.662-0.163,3.484-0.954,5.465-2.372l1.158,1.617c-1.065,0.983-2.518,1.727-4.358,2.23v1.477h4.498v1.827
					h-4.498v1.915h4.498v1.792h-4.498v2.231h18.678v-2.231h-4.287v-1.757h4.287v-2.056h-4.252v-1.792h4.252v-1.915h-4.973v-2.126
					h7.205v11.842h2.758V379.268z M226.454,365.633l-1.23,1.51c-0.666-0.644-1.574-1.34-2.723-2.09
					c-0.947,0.797-2.013,1.529-3.197,2.196l-1.441-1.265c1.136-0.469,2.133-1.02,2.986-1.652c-1.428-0.538-2.582-0.913-3.461-1.125
					l0.896-1.615c1.301,0.328,2.607,0.75,3.918,1.265c0.832-0.784,1.529-1.587,2.092-2.407l1.477,1.178
					c-0.471,0.726-1.078,1.435-1.828,2.126C224.81,364.244,225.646,364.871,226.454,365.633z M226.665,372.028l-1.474,1.159
					c-0.949-0.726-1.934-1.329-2.953-1.81c-0.633,0.48-1.756,1.084-3.373,1.81l-1.336-1.055c1.512-0.714,2.595-1.334,3.252-1.861
					c-0.656-0.41-1.652-0.867-2.989-1.371l1.319-1.107c1.207,0.434,2.238,0.886,3.092,1.354c0.328-0.188,0.99-0.749,1.986-1.687
					l1.615,0.826c-0.596,0.772-1.264,1.411-2.002,1.915C224.774,370.646,225.728,371.255,226.665,372.028z"/>
				<path fill="#333E48" d="M273.878,385.785h-14.145v2.443c0,2.611-1.389,3.918-4.164,3.918h-2.338l-0.859-2.161h3.268
					c1.146,0,1.721-0.527,1.721-1.581v-2.619h-15.426v-2.195h15.426v-1.512c2.449-0.913,4.199-1.769,5.254-2.564h-13.459v-2.021
					h17.359v1.915c-1.826,1.242-4.088,2.513-6.781,3.813v0.369h14.145V385.785z M272.401,379.268h-2.11v-3.638h-24.545v3.848h-2.303
					v-5.903h3.023v-10.718c1.662-0.163,3.484-0.954,5.463-2.372l1.16,1.617c-1.066,0.983-2.518,1.727-4.357,2.23v1.477h4.498v1.827
					h-4.498v1.915h4.498v1.792h-4.498v2.231h18.678v-2.231h-4.287v-1.757h4.287v-2.056h-4.252v-1.792h4.252v-1.915h-4.973v-2.126
					h7.203v11.842h2.76V379.268z M262.438,365.633l-1.228,1.51c-0.668-0.644-1.576-1.34-2.725-2.09
					c-0.949,0.797-2.016,1.529-3.197,2.196l-1.441-1.265c1.137-0.469,2.133-1.02,2.986-1.652c-1.427-0.538-2.582-0.913-3.461-1.125
					l0.896-1.615c1.301,0.328,2.605,0.75,3.918,1.265c0.832-0.784,1.529-1.587,2.092-2.407l1.475,1.178
					c-0.469,0.726-1.076,1.435-1.826,2.126C260.794,364.244,261.63,364.871,262.438,365.633z M262.649,372.028l-1.477,1.159
					c-0.947-0.726-1.932-1.329-2.951-1.81c-0.633,0.48-1.758,1.084-3.373,1.81l-1.336-1.055c1.512-0.714,2.596-1.334,3.25-1.861
					c-0.654-0.41-1.65-0.867-2.986-1.371l1.318-1.107c1.207,0.434,2.236,0.886,3.092,1.354c0.328-0.188,0.99-0.749,1.986-1.687
					l1.615,0.826c-0.598,0.772-1.264,1.411-2.002,1.915C260.759,370.646,261.712,371.255,262.649,372.028z"/>
				<path fill="#333E48" d="M309.86,390.389h-31.977v-2.266h14.898v-8.241h-10.734v-2.267h10.734v-7.168h-7.959
					c-0.961,2.494-2.564,4.797-4.814,6.904l-2.318-1.213c3.842-3.549,5.979-7.895,6.412-13.036l2.373,0.685
					c-0.094,1.195-0.369,2.672-0.826,4.429h7.098v-7.696h2.373v7.66h12.404v2.268H295.12v7.133h10.578v2.267H295.12v8.241h14.74
					V390.389z"/>
				<path fill="#333E48" d="M346.425,368.619l-1.266,1.828c-3.994-0.984-7.121-2.12-9.381-3.408v1.58h-11.879v-1.739
					c-3.42,1.769-6.488,2.923-9.207,3.462l-1.158-1.846c6.582-1.604,12.064-4.287,16.445-8.047l2.16,0.721
					c-0.234,0.293-0.439,0.498-0.613,0.615C335.415,365.018,340.38,367.296,346.425,368.619z M342.683,378.688h-25.512v-8.24h25.512
					V378.688z M340.593,392.181h-2.162v-1.405h-16.973v1.405h-2.162v-11.648h21.297V392.181z M328.872,376.789v-4.393h-9.541v4.393
					H328.872z M338.431,384.731v-2.267h-16.973v2.267H338.431z M338.431,388.878v-2.302h-16.973v2.302H338.431z M326.536,375.051
					l-1.811,1.265c-1.09-1.101-2.154-1.915-3.197-2.442l1.826-1.054C324.597,373.346,325.657,374.09,326.536,375.051z
					 M335.058,366.67c-1.699-0.891-3.346-2.092-4.939-3.604c-1.697,1.406-3.6,2.607-5.709,3.604H335.058z M340.522,376.789v-4.393
					h-9.488v4.393H340.522z M338.396,373.434c-0.691,1.102-1.734,2.038-3.127,2.812l-1.934-0.966
					c1.535-0.867,2.59-1.734,3.162-2.602L338.396,373.434z"/>
				<path fill="#333E48" d="M382.198,389.879l-1.547,2.057c-5.961-1.757-10.799-4.123-14.512-7.099
					c-3.199,2.612-8.223,5.025-15.076,7.239l-1.721-2.091c6.629-1.839,11.643-4.07,15.039-6.694
					c-3.408-3.222-5.699-7.139-6.869-11.755c-0.633,1.628-1.5,3.175-2.602,4.639l-1.861-1.704c1.477-1.758,2.664-3.685,3.566-5.781
					h-6.045v-2.16h14.094v-6.01h2.266v5.974h14.336v2.161h-6.01c-1.053,6.115-3.477,10.981-7.273,14.602
					C371.438,385.879,376.177,388.088,382.198,389.879z M372.903,368.654h-13.598c0.936,5.424,3.225,9.787,6.869,13.09
					C369.735,378.43,371.978,374.066,372.903,368.654z"/>
				<path fill="#333E48" d="M417.815,385.785h-14.146v2.443c0,2.611-1.387,3.918-4.164,3.918h-2.336l-0.861-2.161h3.268
					c1.148,0,1.723-0.527,1.723-1.581v-2.619h-15.426v-2.195h15.426v-1.512c2.447-0.913,4.199-1.769,5.252-2.564h-13.457v-2.021
					h17.359v1.915c-1.828,1.242-4.09,2.513-6.783,3.813v0.369h14.146V385.785z M416.339,379.268h-2.109v-3.638h-24.547v3.848h-2.301
					v-5.903h3.021v-10.718c1.664-0.163,3.486-0.954,5.467-2.372l1.158,1.617c-1.064,0.983-2.52,1.727-4.359,2.23v1.477h4.5v1.827
					h-4.5v1.915h4.5v1.792h-4.5v2.231h18.68v-2.231h-4.289v-1.757h4.289v-2.056h-4.252v-1.792h4.252v-1.915h-4.973v-2.126h7.203
					v11.842h2.76V379.268z M406.376,365.633l-1.23,1.51c-0.668-0.644-1.576-1.34-2.723-2.09c-0.949,0.797-2.016,1.529-3.199,2.196
					l-1.439-1.265c1.135-0.469,2.131-1.02,2.986-1.652c-1.43-0.538-2.584-0.913-3.461-1.125l0.896-1.615
					c1.299,0.328,2.605,0.75,3.918,1.265c0.832-0.784,1.528-1.587,2.09-2.407l1.477,1.178c-0.469,0.726-1.078,1.435-1.826,2.126
					C404.729,364.244,405.567,364.871,406.376,365.633z M406.587,372.028l-1.477,1.159c-0.947-0.726-1.934-1.329-2.951-1.81
					c-0.633,0.48-1.758,1.084-3.375,1.81l-1.336-1.055c1.514-0.714,2.596-1.334,3.252-1.861c-0.656-0.41-1.652-0.867-2.986-1.371
					l1.316-1.107c1.207,0.434,2.238,0.886,3.094,1.354c0.328-0.188,0.99-0.749,1.985-1.687l1.617,0.826
					c-0.598,0.772-1.265,1.411-2.002,1.915C404.694,370.646,405.647,371.255,406.587,372.028z"/>
				<path fill="#333E48" d="M429.831,372.467c2.367,2.66,3.551,5.254,3.551,7.784c0,1.229-0.32,2.208-0.959,2.935
					c-0.637,0.727-1.531,1.09-2.68,1.09c-0.631,0-1.395-0.077-2.283-0.229l-0.65-2.338c1.254,0.317,2.156,0.475,2.705,0.475
					c0.457,0,0.873-0.176,1.248-0.527c0.375-0.351,0.563-0.819,0.563-1.405c0-0.878-0.322-2.003-0.965-3.374
					c-0.646-1.369-1.613-2.676-2.9-3.917l3.426-8.804h-5.217v27.99h-2.303v-30.221h9.855v2.23L429.831,372.467z M454.062,385.698
					c-0.305,1.897-0.715,3.274-1.23,4.128c-0.516,0.855-1.354,1.283-2.512,1.283h-2.74c-1.828,0-2.742-0.961-2.742-2.881v-9.295
					h-3.707c-0.07,3.771-0.807,6.598-2.205,8.478c-1.4,1.88-3.996,3.458-7.793,4.735l-1.477-2.021
					c3.525-1.041,5.945-2.389,7.258-4.041c1.313-1.651,1.973-4.023,1.984-7.115h-4.815v-2.303h18.821v2.268h-5.871v8.75
					c0,0.293,0.094,0.565,0.281,0.816c0.187,0.253,0.41,0.378,0.668,0.378h2.232c0.457,0,0.805-0.374,1.045-1.124
					s0.441-1.722,0.607-2.917L454.062,385.698z M452.04,369.762l-2.23,0.035v-3.093h-13.248v3.093h-2.268v-5.324h7.713v-3.988h2.303
					v3.953h7.73V369.762z M449.089,373.152h-11.877v-2.301h11.877V373.152z"/>
				<path fill="#333E48" d="M489.782,385.785h-14.145v2.443c0,2.611-1.389,3.918-4.164,3.918h-2.336l-0.861-2.161h3.268
					c1.148,0,1.723-0.527,1.723-1.581v-2.619h-15.428v-2.195h15.428v-1.512c2.447-0.913,4.199-1.769,5.252-2.564H465.06v-2.021
					h17.359v1.915c-1.826,1.242-4.088,2.513-6.781,3.813v0.369h14.145V385.785z M488.306,379.268h-2.107v-3.638h-24.545v3.848
					h-2.303v-5.903h3.023v-10.718c1.66-0.163,3.482-0.954,5.463-2.372l1.16,1.617c-1.066,0.983-2.52,1.727-4.357,2.23v1.477h4.498
					v1.827h-4.498v1.915h4.498v1.792h-4.498v2.231h18.676v-2.231h-4.287v-1.757h4.287v-2.056h-4.25v-1.792h4.25v-1.915h-4.971
					v-2.126h7.203v11.842h2.758V379.268z M478.345,365.633l-1.232,1.51c-0.668-0.644-1.574-1.34-2.723-2.09
					c-0.949,0.797-2.014,1.529-3.197,2.196l-1.441-1.265c1.137-0.469,2.133-1.02,2.988-1.652c-1.43-0.538-2.584-0.913-3.461-1.125
					l0.895-1.615c1.301,0.328,2.607,0.75,3.918,1.265c0.832-0.784,1.529-1.587,2.092-2.407l1.477,1.178
					c-0.469,0.726-1.08,1.435-1.828,2.126C476.698,364.244,477.536,364.871,478.345,365.633z M478.554,372.028l-1.475,1.159
					c-0.949-0.726-1.934-1.329-2.951-1.81c-0.635,0.48-1.758,1.084-3.375,1.81l-1.334-1.055c1.51-0.714,2.594-1.334,3.25-1.861
					c-0.656-0.41-1.652-0.867-2.988-1.371l1.318-1.107c1.207,0.434,2.238,0.886,3.092,1.354c0.328-0.188,0.99-0.749,1.986-1.687
					l1.615,0.826c-0.596,0.772-1.264,1.411-2.002,1.915C476.663,370.646,477.618,371.255,478.554,372.028z"/>
				<path fill="#333E48" d="M525.767,390.389h-31.979v-2.266h14.9v-8.241h-10.736v-2.267h10.736v-7.168h-7.961
					c-0.959,2.494-2.564,4.797-4.814,6.904l-2.318-1.213c3.842-3.549,5.98-7.895,6.414-13.036l2.371,0.685
					c-0.094,1.195-0.369,2.672-0.826,4.429h7.1v-7.696h2.371v7.66h12.404v2.268h-12.404v7.133h10.578v2.267h-10.578v8.241h14.742
					V390.389z"/>
				<path fill="#333E48" d="M562.329,368.619l-1.264,1.828c-3.994-0.984-7.123-2.12-9.383-3.408v1.58h-11.879v-1.739
					c-3.42,1.769-6.488,2.923-9.205,3.462l-1.16-1.846c6.584-1.604,12.064-4.287,16.445-8.047l2.162,0.721
					c-0.236,0.293-0.439,0.498-0.615,0.615C551.319,365.018,556.286,367.296,562.329,368.619z M558.589,378.688h-25.512v-8.24
					h25.512V378.688z M556.497,392.181h-2.162v-1.405h-16.973v1.405h-2.16v-11.648h21.295V392.181z M544.776,376.789v-4.393h-9.539
					v4.393H544.776z M554.335,384.731v-2.267h-16.973v2.267H554.335z M554.335,388.878v-2.302h-16.973v2.302H554.335z
					 M542.44,375.051l-1.811,1.265c-1.088-1.101-2.154-1.915-3.197-2.442l1.828-1.054
					C540.503,373.346,541.562,374.09,542.44,375.051z M550.962,366.67c-1.699-0.891-3.344-2.092-4.938-3.604
					c-1.699,1.406-3.602,2.607-5.709,3.604H550.962z M556.427,376.789v-4.393h-9.488v4.393H556.427z M554.302,373.434
					c-0.693,1.102-1.734,2.038-3.129,2.812l-1.932-0.966c1.533-0.867,2.588-1.734,3.162-2.602L554.302,373.434z"/>
			</g>
		</g>
	</g>
</g>
</svg>
