<?xml version="1.0" encoding="utf-8"?>
<!-- Generator: Adobe Illustrator 16.0.0, SVG Export Plug-In . SVG Version: 6.00 Build 0)  -->
<!DOCTYPE svg PUBLIC "-//W3C//DTD SVG 1.0//EN" "http://www.w3.org/TR/2001/REC-SVG-20010904/DTD/svg10.dtd">
<svg version="1.0" id="Logotypes" xmlns="http://www.w3.org/2000/svg" xmlns:xlink="http://www.w3.org/1999/xlink" x="0px" y="0px"
	 width="1612.26px" height="708.665px" viewBox="0 0 1612.26 708.665" enable-background="new 0 0 1612.26 708.665"
	 xml:space="preserve">
<g>
	<defs>
		<rect id="SVGID_59_" x="0.001" width="1612.259" height="708.665"/>
	</defs>
	<clipPath id="SVGID_2_">
		<use xlink:href="#SVGID_59_"  overflow="visible"/>
	</clipPath>
	<g clip-path="url(#SVGID_2_)">
		<g>
			<g>
				<path fill="#5A5C66" d="M155.408,341.493c7.555,0,13.677,6.124,13.677,13.676c-0.002-0.278-0.012-0.558-0.012-0.837
					c0-102.31,82.936-185.249,185.249-185.249c7.552,0,13.675-6.122,13.675-13.675s-6.123-13.676-13.675-13.676
					c-28.688,0-56.534,5.625-82.763,16.719C246.24,169.16,223.507,184.484,203.992,204c-19.518,19.518-34.844,42.25-45.551,67.57
					c-11.094,26.229-16.718,54.073-16.718,82.762c0,0.279,0.008,0.559,0.01,0.837C141.733,347.617,147.854,341.493,155.408,341.493z
					"/>
				<path fill="#858591" d="M340.646,553.256c0-7.553,6.122-13.676,13.676-13.676c-102.032,0-184.787-82.486-185.237-184.411
					c0-7.552-6.122-13.676-13.677-13.676c-7.554,0-13.675,6.124-13.675,13.676c0.108,28.394,5.723,55.952,16.708,81.925
					c10.707,25.318,26.033,48.053,45.551,67.568c19.515,19.518,42.248,34.842,67.567,45.551
					c26.229,11.095,54.074,16.72,82.763,16.72C346.769,566.933,340.646,560.81,340.646,553.256z"/>
				<path fill="#9F9EA7" d="M502.521,487.406c-5.343-5.342-14-5.342-19.342,0c-33.341,32.289-78.775,52.174-128.857,52.174
					c-7.554,0-13.676,6.123-13.676,13.676c0,7.554,6.122,13.677,13.676,13.677c28.689,0,56.533-5.625,82.761-16.72
					c24.407-10.322,46.4-24.947,65.438-43.467C507.862,501.406,507.862,492.746,502.521,487.406z"/>
			</g>
			<g>
				<g>
					<g>
						<path fill="#9F9EA7" d="M466.905,241.748c-30.071-30.07-70.056-46.63-112.585-46.63c-42.526,0-82.511,16.56-112.582,46.63
							c-30.071,30.072-46.635,70.057-46.635,112.584c0,42.529,16.563,82.508,46.635,112.582
							c30.071,30.071,70.056,46.636,112.582,46.636c42.529,0,82.514-16.564,112.585-46.636c30.07-30.074,46.63-70.053,46.63-112.582
							C513.535,311.805,496.976,271.82,466.905,241.748z"/>
						<path fill="#333E48" d="M242.112,405.822V302.845h22.334v7.612h-12.945v87.752h12.945v7.613H242.112z"/>
						<path fill="#333E48" d="M466.53,302.845v102.978H444.2v-7.613h12.939v-87.752H444.2v-7.612H466.53z"/>
						<path fill="#FFFFFF" d="M293.981,375.252c0,2.056,0.032,4.483,0.096,7.271c0.063,2.789,0.151,5.624,0.259,8.497
							c0.106,2.875,0.234,5.623,0.387,8.24c0.147,2.617,0.331,4.805,0.546,6.563h-13.193v-72.73c0-6.263-0.106-11.938-0.322-17.022
							c-0.213-5.086-0.535-9.495-0.966-13.225h13.194V375.252z"/>
						<path fill="#FFFFFF" d="M351.587,340.173v8.434h-12.101v48.786h12.101v8.432h-36.041v-8.432h11.906v-48.786h-11.906v-8.434
							H351.587z"/>
						<path fill="#FFFFFF" d="M378.62,340.173c0.257,0.688,0.515,1.576,0.771,2.674c0.261,1.092,0.492,2.239,0.709,3.44
							c0.212,1.202,0.405,2.382,0.58,3.541l0.512,2.893c4.121-4.89,8.259-8.417,12.422-10.585c4.163-2.166,8.5-3.251,13.003-3.251
							c3.434,0,6.47,0.568,9.107,1.706c2.639,1.14,4.86,2.941,6.663,5.406c1.8,2.469,3.161,5.667,4.087,9.591
							c0.922,3.928,1.383,8.654,1.383,14.194v28.958c0,7.254-0.635,13.273-1.9,18.055c-1.264,4.787-3.036,8.605-5.309,11.461
							c-2.272,2.85-5.011,4.867-8.207,6.047c-3.196,1.182-6.746,1.77-10.652,1.77c-1.93,0-4-0.311-6.211-0.932
							c-2.209-0.625-4.215-1.49-6.018-2.607l4.185-9.654c0.986,0.729,2.306,1.34,3.958,1.836c1.651,0.492,3.337,0.738,5.051,0.738
							c2.063,0,3.907-0.332,5.539-0.996c1.63-0.666,3.012-1.834,4.148-3.508c1.138-1.674,2.007-3.969,2.608-6.887
							c0.6-2.92,0.9-6.631,0.9-11.135v-28.321c0-5.148-0.269-9.322-0.805-12.518c-0.536-3.196-1.343-5.687-2.415-7.467
							c-1.071-1.78-2.413-2.972-4.024-3.574c-1.605-0.598-3.483-0.899-5.63-0.899c-2.315,0-4.577,0.548-6.787,1.644
							c-2.21,1.093-4.241,2.51-6.086,4.247c-1.845,1.736-3.475,3.697-4.89,5.889c-1.415,2.188-2.469,4.375-3.156,6.564v37.332
							h-11.905V366.24c0-6.351-0.365-11.725-1.096-16.124c-0.728-4.397-1.438-7.713-2.124-9.943H378.62z"/>
					</g>
				</g>
			</g>
		</g>
		<g>
			<g>
				<path fill="#333E48" d="M731.927,379.629h-54.993V370.5h54.993V379.629z M724.77,476.835h-9.421v-10.006h-21.983v10.006h-9.567
					v-49.37h40.972V476.835z M724.331,398.472l-40.387,0.146v-9.128h40.387V398.472z M724.478,417.605h-40.533v-9.129h40.533
					V417.605z M722.651,361.079l-37.1,0.146v-9.128h37.1V361.079z M715.349,457.846v-21.397H693.22v21.397H715.349z
					 M809.706,417.752l-78.948,0.146v-8.982h19.572l4.236-22.566h-18.258v-8.983h19.719l3.14-16.725h-27.971v-9.129h72.521v8.983
					h-34.69l-2.994,16.725h30.09l-3.141,31.549h16.725V417.752z M796.997,477.127h-9.42v-9.859h-36.955v9.859h-9.566v-49.516h55.941
					V477.127z M787.577,458.284v-21.69h-37.101v21.69H787.577z M786.116,386.202h-21.691l-4.234,22.713h23.662L786.116,386.202z"/>
				<path fill="#333E48" d="M974.377,379.629H841.606V370.5h132.771V379.629z M954.805,398.325h-94.942v-8.836h94.942V398.325z
					 M954.805,417.314h-94.942v-8.837h94.942V417.314z M951.372,477.127h-9.42v-10.298h-68.505v10.298h-9.421v-49.662h87.346
					V477.127z M951.227,360.13l-86.47,0.218v-8.837h86.47V360.13z M941.952,457.846v-21.397h-68.505v21.397H941.952z"/>
				<path fill="#333E48" d="M1139.051,450.689h-58.791v10.151c0,10.856-5.77,16.286-17.311,16.286h-9.713l-3.578-8.982h13.584
					c4.771,0,7.158-2.192,7.158-6.573v-10.882h-64.123v-9.129h64.123v-6.281c10.174-3.798,17.453-7.351,21.836-10.662h-55.943
					v-8.399h72.158v7.961c-7.598,5.161-16.994,10.443-28.191,15.848v1.534h58.791V450.689z M1132.916,423.594h-8.766v-15.117
					h-102.023v15.994h-9.569v-24.538h12.562v-44.551c6.912-0.681,14.486-3.968,22.715-9.858l4.82,6.719
					c-4.434,4.09-10.471,7.183-18.113,9.275v6.135h18.695v7.596h-18.695v7.96h18.695v7.448h-18.695v9.276h77.633v-9.276h-17.82
					v-7.303h17.82v-8.544H1094.5v-7.449h17.674v-7.961h-20.668v-8.837h29.943v49.224h11.467V423.594z M1091.506,366.922l-5.111,6.28
					c-2.777-2.677-6.551-5.574-11.32-8.69c-3.943,3.312-8.375,6.354-13.293,9.129l-5.988-5.259
					c4.723-1.946,8.859-4.235,12.416-6.864c-5.941-2.239-10.736-3.798-14.389-4.674l3.727-6.72
					c5.402,1.363,10.832,3.117,16.285,5.258c3.457-3.26,6.354-6.596,8.691-10.005l6.135,4.894c-1.949,3.019-4.48,5.965-7.596,8.837
					C1084.664,361.151,1088.146,363.757,1091.506,366.922z M1092.381,393.505l-6.133,4.82c-3.943-3.019-8.035-5.525-12.27-7.521
					c-2.629,1.996-7.303,4.503-14.021,7.521l-5.551-4.382c6.279-2.969,10.783-5.551,13.512-7.741
					c-2.729-1.703-6.865-3.603-12.416-5.697l5.477-4.6c5.014,1.802,9.299,3.676,12.854,5.622c1.361-0.777,4.113-3.114,8.252-7.011
					l6.719,3.433c-2.482,3.214-5.256,5.868-8.324,7.961C1084.52,387.761,1088.486,390.292,1092.381,393.505z"/>
				<path fill="#333E48" d="M1303.576,450.689h-58.791v10.151c0,10.856-5.77,16.286-17.309,16.286h-9.713l-3.578-8.982h13.584
					c4.77,0,7.156-2.192,7.156-6.573v-10.882h-64.121v-9.129h64.121v-6.281c10.176-3.798,17.453-7.351,21.838-10.662h-55.943v-8.399
					h72.156v7.961c-7.596,5.161-16.994,10.443-28.191,15.848v1.534h58.791V450.689z M1297.443,423.594h-8.768v-15.117h-102.023
					v15.994h-9.566v-24.538h12.561v-44.551c6.914-0.681,14.484-3.968,22.713-9.858l4.82,6.719c-4.43,4.09-10.469,7.183-18.113,9.275
					v6.135h18.697v7.596h-18.697v7.96h18.697v7.448h-18.697v9.276h77.633v-9.276h-17.818v-7.303h17.818v-8.544h-17.674v-7.449
					h17.674v-7.961h-20.668v-8.837h29.943v49.224h11.469V423.594z M1258.633,391.866l-6.654,6.084
					c-3.037-4.563-7.383-10.276-11.586-13.824c-6.533,7.279-11.906,11.912-16.105,13.894l-6.584-5.529
					c4.949-2.354,10.316-6.751,16.107-13.203c-6.584-4.101-11.275-6.637-14.076-7.605l5.744-5.94
					c2.334,0.922,6.719,3.315,13.166,7.189c1.916-3.136,3.406-6.568,4.48-10.302h-21.99v-8.639h11.789v-8.896h7.566v8.896h13.992
					v8.639h-2.77c-1.555,5.718-3.646,10.671-6.275,14.863C1250.527,381.361,1255.412,387.259,1258.633,391.866z"/>
				<path fill="#333E48" d="M1470.512,379.338l-5.258,7.595c-16.604-4.09-29.602-8.813-38.998-14.168v6.573h-49.371v-7.231
					c-14.217,7.353-26.973,12.149-38.27,14.388l-4.818-7.668c27.361-6.67,50.146-17.819,68.357-33.449l8.982,2.994
					c-0.975,1.218-1.826,2.07-2.557,2.556C1424.744,364.365,1445.389,373.836,1470.512,379.338z M1454.955,421.185h-106.041v-34.252
					h106.041V421.185z M1446.266,477.272h-8.982v-5.843h-70.549v5.843h-8.982v-48.42h88.514V477.272z M1397.553,413.297v-18.258
					h-39.656v18.258H1397.553z M1437.283,446.308v-9.421h-70.549v9.421H1437.283z M1437.283,463.543v-9.567h-70.549v9.567H1437.283z
					 M1387.84,406.066l-7.521,5.259c-4.527-4.575-8.959-7.96-13.293-10.151l7.596-4.382
					C1379.781,398.982,1384.188,402.075,1387.84,406.066z M1423.262,371.231c-7.061-3.7-13.902-8.691-20.523-14.973
					c-7.061,5.843-14.971,10.834-23.734,14.973H1423.262z M1445.975,413.297v-18.258h-39.438v18.258H1445.975z M1437.137,399.348
					c-2.873,4.577-7.207,8.473-13,11.686l-8.033-4.017c6.379-3.603,10.76-7.206,13.145-10.81L1437.137,399.348z"/>
			</g>
			<g>
				<path fill="#333E48" d="M732.614,260.243l-2.789,3.211c-8.36-2.94-16.32-8.12-23.881-15.541l0.061,11.73h14.01v25.8h-3.811
					v-3.449h-24.27v3.449h-3.932v-25.8h14.07v-11.73c-4.119,6.299-11.561,11.23-22.32,14.791l-2.819-3.181
					c9.54-2.521,16.36-6.39,20.46-11.61h-17.07v-3.75h21.75v-5.791c-4.779,0.481-10.779,0.83-18,1.05l-2.58-3.63
					c17.061-0.061,30.681-1.489,40.861-4.29l2.88,2.881c-5.66,1.52-12.07,2.689-19.229,3.51v6.27h22.05v3.75l-17.19-0.06
					C717.225,253.374,724.475,257.504,732.614,260.243z M716.204,268.674v-5.28h-24.33v5.28H716.204z M716.204,278.304v-5.939
					h-24.33v5.939H716.204z"/>
				<path fill="#333E48" d="M748.216,263.003c-2.521,7.821-5.821,14.232-9.9,19.231l3.51,2.221
					c4.539-5.722,7.881-12.13,10.021-19.231L748.216,263.003z M741.886,246.354l-2.521,3.15c3.98,1.7,7.131,4.139,9.453,7.319
					l2.637-3.569C749.376,250.473,746.187,248.174,741.886,246.354z M744.824,232.914l-2.819,2.88c3.84,1.378,6.87,3.7,9.092,6.958
					l2.818-3.03C751.774,236.623,748.744,234.354,744.824,232.914z"/>
				<path fill="#333E48" d="M784.036,272.125v-11.313c2.379,2.241,4.939,4.081,7.682,5.522l2.46-3.332
					c-5.241-2.238-9.323-5.78-12.241-10.619h10.258v-3.689h-9.808v-7.171h7.409v-3.691h-7.409v-6.327h-3.812v6.389h-11.129v-6.389
					h-3.813v6.389h-7.378v3.688h7.44v7.17h-9.781v3.692h9.9c-2.219,4.159-6.23,7.62-12.029,10.378l2.818,3.331
					c1.715-0.995,3.295-2.074,4.74-3.239v16.081c0,3.439,1.721,5.159,5.16,5.159h19.65c1.602,0,2.866-0.531,3.795-1.589
					c0.932-1.061,1.656-3.15,2.176-6.27l-3.869-1.741c-0.262,2.5-0.64,4.098-1.141,4.798c-0.5,0.702-1.17,1.051-2.01,1.051h-18.301
					c-1.102,0-1.648-0.55-1.648-1.651v-6.628H784.036z M767.446,241.523h11.189v7.171h-11.189V241.523z M767.805,252.384h10.2
					c0.982,2.32,2.461,4.59,4.44,6.812h-19.05C765.556,256.814,767.026,254.543,767.805,252.384z M763.157,262.884h17.069v5.61
					h-17.069V262.884z"/>
				<path fill="#333E48" d="M855.378,282.444l-2.79,3.12c-12.501-6.82-20.44-18.31-23.821-34.47
					c-4.18,16.421-12.7,27.91-25.56,34.47l-3.03-3.57c12.74-6.2,20.81-16.48,24.211-30.841h-20.401v-3.87h20.851
					c0.381-3.76,0.539-9.02,0.48-15.78l4.17,0.601c0.1,6.118-0.02,11.16-0.36,15.12h22.741v3.87h-18.931
					C835.337,264.794,842.817,275.244,855.378,282.444z"/>
				<path fill="#333E48" d="M916.55,274.644h-24.151v4.171c0,4.459-2.37,6.69-7.11,6.69h-3.99l-1.469-3.69h5.58
					c1.959,0,2.939-0.9,2.939-2.7v-4.471h-26.34v-3.75h26.34v-2.58c4.18-1.56,7.17-3.02,8.971-4.38h-22.98v-3.45h29.64v3.27
					c-3.12,2.121-6.979,4.291-11.58,6.511v0.63h24.151V274.644z M914.03,263.514h-3.601v-6.21h-41.911v6.569h-3.93v-10.079h5.16
					v-18.301c2.839-0.279,5.949-1.63,9.329-4.05l1.979,2.76c-1.819,1.68-4.299,2.95-7.439,3.81v2.52h7.68v3.12h-7.68v3.271h7.68
					v3.06h-7.68v3.811h31.891v-3.811h-7.32v-3h7.32v-3.51h-7.26v-3.06h7.26v-3.27h-8.49v-3.63h12.301v20.22h4.711V263.514z
					 M897.019,240.233l-2.1,2.579c-1.141-1.1-2.69-2.289-4.65-3.569c-1.619,1.36-3.439,2.61-5.46,3.75l-2.46-2.159
					c1.939-0.801,3.64-1.74,5.1-2.82c-2.439-0.92-4.41-1.56-5.91-1.921l1.531-2.76c2.219,0.561,4.449,1.28,6.689,2.16
					c1.42-1.338,2.609-2.71,3.57-4.11l2.52,2.011c-0.801,1.239-1.84,2.45-3.119,3.63
					C894.208,237.863,895.638,238.934,897.019,240.233z M897.379,251.153l-2.521,1.98c-1.619-1.24-3.3-2.271-5.039-3.091
					c-1.081,0.82-3.001,1.851-5.761,3.091l-2.28-1.801c2.58-1.22,4.43-2.279,5.551-3.18c-1.121-0.7-2.82-1.479-5.101-2.339
					l2.249-1.891c2.061,0.741,3.821,1.512,5.281,2.311c0.56-0.32,1.689-1.279,3.391-2.88l2.76,1.41c-1.02,1.319-2.16,2.41-3.42,3.27
					C894.148,248.793,895.778,249.833,897.379,251.153z"/>
				<path fill="#333E48" d="M977.991,274.644H953.84v4.171c0,4.459-2.37,6.69-7.11,6.69h-3.989l-1.47-3.69h5.58
					c1.959,0,2.939-0.9,2.939-2.7v-4.471h-26.34v-3.75h26.34v-2.58c4.18-1.56,7.17-3.02,8.97-4.38H935.78v-3.45h29.641v3.27
					c-3.121,2.121-6.98,4.291-11.581,6.511v0.63h24.151V274.644z M975.471,263.514h-3.601v-6.21h-41.91v6.569h-3.931v-10.079h5.161
					v-18.301c2.839-0.279,5.949-1.63,9.329-4.05l1.98,2.76c-1.82,1.68-4.301,2.95-7.44,3.81v2.52h7.681v3.12h-7.681v3.271h7.681
					v3.06h-7.681v3.811h31.891v-3.811h-7.32v-3h7.32v-3.51h-7.26v-3.06h7.26v-3.27h-8.49v-3.63h12.301v20.22h4.71V263.514z
					 M958.46,240.233l-2.1,2.579c-1.141-1.1-2.691-2.289-4.65-3.569c-1.619,1.36-3.44,2.61-5.459,3.75l-2.461-2.159
					c1.939-0.801,3.64-1.74,5.1-2.82c-2.439-0.92-4.41-1.56-5.91-1.921l1.531-2.76c2.219,0.561,4.449,1.28,6.689,2.16
					c1.42-1.338,2.609-2.71,3.57-4.11l2.52,2.011c-0.801,1.239-1.84,2.45-3.12,3.63C955.65,237.863,957.08,238.934,958.46,240.233z
					 M958.821,251.153l-2.521,1.98c-1.619-1.24-3.299-2.271-5.04-3.091c-1.079,0.82-3,1.851-5.761,3.091l-2.279-1.801
					c2.58-1.22,4.43-2.279,5.551-3.18c-1.121-0.7-2.82-1.479-5.101-2.339l2.25-1.891c2.06,0.741,3.819,1.512,5.28,2.311
					c0.56-0.32,1.689-1.279,3.391-2.88l2.76,1.41c-1.021,1.319-2.16,2.41-3.42,3.27C955.591,248.793,957.22,249.833,958.821,251.153
					z"/>
				<path fill="#333E48" d="M1039.432,282.504h-54.601v-3.869h25.441v-14.071H991.94v-3.871h18.332v-12.24h-13.592
					c-1.639,4.26-4.379,8.19-8.219,11.79l-3.961-2.07c6.561-6.06,10.209-13.479,10.95-22.259l4.05,1.169
					c-0.16,2.04-0.629,4.561-1.408,7.561h12.117v-13.141h4.053v13.08h21.179v3.87h-21.179v12.181h18.06v3.869h-18.06v14.071h25.169
					V282.504z"/>
				<path fill="#333E48" d="M1101.863,245.333l-2.16,3.12c-6.82-1.68-12.16-3.619-16.02-5.819v2.699h-20.281v-2.97
					c-5.84,3.021-11.08,4.99-15.721,5.91l-1.979-3.15c11.238-2.74,20.6-7.32,28.08-13.74l3.689,1.23c-0.4,0.5-0.75,0.851-1.049,1.05
					C1083.063,239.184,1091.543,243.073,1101.863,245.333z M1095.475,262.524h-43.563v-14.071h43.563V262.524z M1091.904,285.564
					h-3.691v-2.4h-28.98v2.4h-3.689v-19.89h36.361V285.564z M1071.893,259.283v-7.5h-16.291v7.5H1071.893z M1088.213,272.844v-3.87
					h-28.98v3.87H1088.213z M1088.213,279.924v-3.93h-28.98v3.93H1088.213z M1067.902,256.314l-3.09,2.16
					c-1.859-1.879-3.68-3.27-5.461-4.17l3.121-1.8C1064.592,253.403,1066.402,254.674,1067.902,256.314z M1082.453,242.004
					c-2.9-1.52-5.711-3.57-8.432-6.151c-2.898,2.4-6.148,4.451-9.748,6.151H1082.453z M1091.783,259.283v-7.5h-16.199v7.5H1091.783z
					 M1088.152,253.554c-1.18,1.88-2.959,3.479-5.34,4.8l-3.299-1.649c2.619-1.48,4.42-2.961,5.398-4.44L1088.152,253.554z"/>
				<path fill="#333E48" d="M1162.945,281.634l-2.641,3.511c-10.18-3-18.441-7.04-24.779-12.121
					c-5.463,4.461-14.041,8.581-25.742,12.361l-2.939-3.57c11.32-3.14,19.881-6.95,25.682-11.431
					c-5.82-5.5-9.732-12.189-11.73-20.07c-1.08,2.78-2.563,5.419-4.441,7.919l-3.178-2.909c2.52-3.001,4.547-6.291,6.088-9.871
					h-10.32v-3.689h24.063v-10.261h3.869v10.2h24.48v3.69h-10.262c-1.799,10.44-5.938,18.75-12.42,24.93
					C1144.574,274.804,1152.664,278.574,1162.945,281.634z M1147.074,245.394h-23.219c1.598,9.26,5.508,16.71,11.729,22.351
					C1141.664,262.084,1145.494,254.634,1147.074,245.394z"/>
				<path fill="#333E48" d="M1223.758,274.644h-24.152v4.171c0,4.459-2.369,6.69-7.109,6.69h-3.99l-1.469-3.69h5.578
					c1.961,0,2.941-0.9,2.941-2.7v-4.471h-26.34v-3.75h26.34v-2.58c4.18-1.56,7.17-3.02,8.969-4.38h-22.98v-3.45h29.641v3.27
					c-3.119,2.121-6.98,4.291-11.58,6.511v0.63h24.152V274.644z M1221.238,263.514h-3.602v-6.21h-41.912v6.569h-3.93v-10.079h5.16
					v-18.301c2.84-0.279,5.951-1.63,9.332-4.05l1.979,2.76c-1.818,1.68-4.301,2.95-7.441,3.81v2.52h7.682v3.12h-7.682v3.271h7.682
					v3.06h-7.682v3.811h31.893v-3.811h-7.322v-3h7.322v-3.51h-7.26v-3.06h7.26v-3.27h-8.49v-3.63h12.299v20.22h4.713V263.514z
					 M1204.227,240.233l-2.102,2.579c-1.139-1.1-2.689-2.289-4.648-3.569c-1.621,1.36-3.441,2.61-5.461,3.75l-2.459-2.159
					c1.939-0.801,3.639-1.74,5.1-2.82c-2.441-0.92-4.412-1.56-5.91-1.921l1.531-2.76c2.219,0.561,4.449,1.28,6.689,2.16
					c1.42-1.338,2.609-2.71,3.568-4.11l2.521,2.011c-0.801,1.239-1.842,2.45-3.119,3.63
					C1201.416,237.863,1202.846,238.934,1204.227,240.233z M1204.586,251.153l-2.52,1.98c-1.619-1.24-3.301-2.271-5.041-3.091
					c-1.08,0.82-3,1.851-5.76,3.091l-2.281-1.801c2.582-1.22,4.432-2.279,5.551-3.18c-1.119-0.7-2.82-1.479-5.1-2.339l2.25-1.891
					c2.061,0.741,3.82,1.512,5.281,2.311c0.561-0.32,1.689-1.279,3.389-2.88l2.76,1.41c-1.02,1.319-2.158,2.41-3.418,3.27
					C1201.355,248.793,1202.984,249.833,1204.586,251.153z"/>
				<path fill="#333E48" d="M1244.275,251.903c4.041,4.54,6.063,8.971,6.063,13.29c0,2.101-0.545,3.771-1.637,5.01
					c-1.088,1.241-2.613,1.861-4.574,1.861c-1.08,0-2.381-0.131-3.9-0.39l-1.109-3.991c2.141,0.541,3.68,0.811,4.619,0.811
					c0.779,0,1.49-0.301,2.131-0.9s0.961-1.399,0.961-2.4c0-1.499-0.551-3.419-1.65-5.76c-1.102-2.34-2.752-4.57-4.951-6.689
					l5.852-15.031h-8.91v47.792h-3.932v-51.602h16.83v3.81L1244.275,251.903z M1285.648,274.494c-0.521,3.24-1.221,5.591-2.102,7.05
					c-0.879,1.46-2.311,2.19-4.289,2.19h-4.68c-3.121,0-4.68-1.641-4.68-4.92v-15.87h-6.332c-0.119,6.439-1.375,11.265-3.764,14.475
					c-2.391,3.21-6.824,5.905-13.307,8.086l-2.52-3.451c6.02-1.779,10.15-4.08,12.391-6.9c2.24-2.819,3.369-6.869,3.391-12.149
					h-8.221v-3.931h32.133v3.871h-10.023v14.94c0,0.499,0.16,0.965,0.48,1.395c0.32,0.431,0.701,0.645,1.141,0.645h3.811
					c0.779,0,1.375-0.64,1.785-1.92c0.408-1.279,0.754-2.939,1.035-4.98L1285.648,274.494z M1282.197,247.283l-3.809,0.061v-5.281
					h-22.621v5.281h-3.871v-9.091h13.17v-6.81h3.932v6.75h13.199V247.283z M1277.158,253.073h-20.281v-3.93h20.281V253.073z"/>
				<path fill="#333E48" d="M1346.641,274.644h-24.152v4.171c0,4.459-2.371,6.69-7.109,6.69h-3.99l-1.471-3.69h5.58
					c1.961,0,2.941-0.9,2.941-2.7v-4.471h-26.342v-3.75h26.342v-2.58c4.18-1.56,7.17-3.02,8.969-4.38h-22.98v-3.45h29.641v3.27
					c-3.119,2.121-6.98,4.291-11.58,6.511v0.63h24.152V274.644z M1344.119,263.514h-3.6v-6.21h-41.91v6.569h-3.932v-10.079h5.162
					v-18.301c2.838-0.279,5.949-1.63,9.328-4.05l1.98,2.76c-1.82,1.68-4.299,2.95-7.439,3.81v2.52h7.68v3.12h-7.68v3.271h7.68v3.06
					h-7.68v3.811h31.891v-3.811h-7.32v-3h7.32v-3.51h-7.26v-3.06h7.26v-3.27h-8.49v-3.63h12.299v20.22h4.711V263.514z
					 M1327.109,240.233l-2.102,2.579c-1.141-1.1-2.689-2.289-4.65-3.569c-1.619,1.36-3.439,2.61-5.459,3.75l-2.461-2.159
					c1.941-0.801,3.643-1.74,5.102-2.82c-2.441-0.92-4.41-1.56-5.91-1.921l1.529-2.76c2.221,0.561,4.451,1.28,6.689,2.16
					c1.42-1.338,2.611-2.71,3.572-4.11l2.52,2.011c-0.801,1.239-1.842,2.45-3.121,3.63
					C1324.299,237.863,1325.729,238.934,1327.109,240.233z M1327.469,251.153l-2.52,1.98c-1.621-1.24-3.301-2.271-5.039-3.091
					c-1.082,0.82-3,1.851-5.762,3.091l-2.279-1.801c2.58-1.22,4.43-2.279,5.551-3.18c-1.121-0.7-2.822-1.479-5.102-2.339l2.25-1.891
					c2.061,0.741,3.82,1.512,5.279,2.311c0.561-0.32,1.689-1.279,3.391-2.88l2.76,1.41c-1.02,1.319-2.16,2.41-3.42,3.27
					C1324.238,248.793,1325.869,249.833,1327.469,251.153z"/>
				<path fill="#333E48" d="M1408.08,282.504h-54.6v-3.869h25.439v-14.071h-18.33v-3.871h18.33v-12.24h-13.59
					c-1.641,4.26-4.381,8.19-8.221,11.79l-3.959-2.07c6.559-6.06,10.209-13.479,10.949-22.259l4.051,1.169
					c-0.16,2.04-0.631,4.561-1.412,7.561h12.123v-13.141h4.049v13.08h21.18v3.87h-21.18v12.181h18.061v3.869h-18.061v14.071h25.17
					V282.504z"/>
				<path fill="#333E48" d="M1470.512,245.333l-2.158,3.12c-6.82-1.68-12.162-3.619-16.021-5.819v2.699h-20.281v-2.97
					c-5.84,3.021-11.08,4.99-15.719,5.91l-1.98-3.15c11.24-2.74,20.6-7.32,28.08-13.74l3.689,1.23c-0.4,0.5-0.75,0.851-1.049,1.05
					C1451.711,239.184,1460.193,243.073,1470.512,245.333z M1464.123,262.524h-43.561v-14.071h43.561V262.524z M1460.553,285.564
					h-3.691v-2.4h-28.98v2.4h-3.689v-19.89h36.361V285.564z M1440.541,259.283v-7.5h-16.289v7.5H1440.541z M1456.861,272.844v-3.87
					h-28.98v3.87H1456.861z M1456.861,279.924v-3.93h-28.98v3.93H1456.861z M1436.551,256.314l-3.09,2.16
					c-1.859-1.879-3.68-3.27-5.459-4.17l3.119-1.8C1433.242,253.403,1435.051,254.674,1436.551,256.314z M1451.102,242.004
					c-2.9-1.52-5.709-3.57-8.43-6.151c-2.902,2.4-6.15,4.451-9.75,6.151H1451.102z M1460.432,259.283v-7.5h-16.199v7.5H1460.432z
					 M1456.803,253.554c-1.182,1.88-2.961,3.479-5.342,4.8l-3.299-1.649c2.619-1.48,4.42-2.961,5.4-4.44L1456.803,253.554z"/>
			</g>
		</g>
	</g>
</g>
</svg>
