<?xml version="1.0" encoding="utf-8"?>
<!-- Generator: Adobe Illustrator 16.0.0, SVG Export Plug-In . SVG Version: 6.00 Build 0)  -->
<!DOCTYPE svg PUBLIC "-//W3C//DTD SVG 1.0//EN" "http://www.w3.org/TR/2001/REC-SVG-20010904/DTD/svg10.dtd">
<svg version="1.0" id="Logotypes" xmlns="http://www.w3.org/2000/svg" xmlns:xlink="http://www.w3.org/1999/xlink" x="0px" y="0px"
	 width="2899.393px" height="708.672px" viewBox="0 0 2899.393 708.672" enable-background="new 0 0 2899.393 708.672"
	 xml:space="preserve">
<g>
	<defs>
		<rect id="SVGID_89_" width="2899.393" height="708.672"/>
	</defs>
	<clipPath id="SVGID_2_">
		<use xlink:href="#SVGID_89_"  overflow="visible"/>
	</clipPath>
	<g clip-path="url(#SVGID_2_)">
		<g>
			<g>
				<path fill="#FFFFFF" d="M158.441,271.572c-9.105,21.527-14.52,44.145-16.17,67.426c3.588-2.922,8.16-4.68,13.137-4.68
					c5.496,0,10.488,2.154,14.217,5.637c7.338-95.592,87.225-170.871,184.701-170.871c7.553,0,13.676-6.123,13.676-13.676
					s-6.123-13.676-13.676-13.676c-28.689,0-56.535,5.625-82.766,16.719c-25.318,10.709-48.051,26.033-67.566,45.551
					C184.475,223.518,169.148,246.252,158.441,271.572z"/>
				<path fill="#FFFFFF" d="M339.186,538.969c-94.955-7.682-169.672-86.963-170.102-183.795c0-7.553-6.119-13.678-13.676-13.678
					c-7.553,0-13.676,6.125-13.676,13.678c0.109,28.393,5.723,55.953,16.709,81.926c10.707,25.318,26.033,48.055,45.553,67.568
					c19.516,19.52,42.248,34.844,67.566,45.553c21.256,8.99,43.574,14.387,66.539,16.111c-2.887-3.58-4.627-8.123-4.627-13.068
					C333.473,547.73,335.656,542.707,339.186,538.969z"/>
				<path fill="#FFFFFF" d="M502.527,487.412c-2.67-2.67-6.168-4.006-9.668-4.006s-7.002,1.336-9.672,4.006
					c-33.344,32.291-78.777,52.176-128.861,52.176c-7.553,0-13.676,6.123-13.676,13.676s6.123,13.676,13.676,13.676
					c28.691,0,56.535-5.625,82.764-16.719c24.408-10.322,46.402-24.947,65.438-43.467
					C507.871,501.412,507.871,492.754,502.527,487.412z"/>
				<path fill="#FFFFFF" d="M354.326,566.939c-7.553,0-13.676-6.123-13.676-13.676s6.123-13.676,13.676-13.676
					c50.084,0,95.518-19.885,128.861-52.176c2.67-2.67,6.172-4.006,9.672-4.006s6.998,1.336,9.668,4.006
					c5.344,5.342,5.344,14,0,19.342c-19.035,18.52-41.029,33.145-65.438,43.467C410.861,561.314,383.018,566.939,354.326,566.939z
					 M271.561,550.221c-25.318-10.709-48.051-26.033-67.566-45.553c-19.52-19.514-34.846-42.25-45.553-67.568
					c-10.986-25.973-16.6-53.533-16.709-81.926c0-7.553,6.123-13.678,13.676-13.678c7.557,0,13.676,6.125,13.676,13.678
					c0.43,96.832,75.146,176.113,170.102,183.795c-3.529,3.738-5.713,8.762-5.713,14.295c0,4.945,1.74,9.488,4.627,13.068
					C315.135,564.607,292.816,559.211,271.561,550.221z M354.326,141.732c7.553,0,13.676,6.123,13.676,13.676
					s-6.123,13.676-13.676,13.676c-97.477,0-177.363,75.279-184.701,170.871c-3.729-3.482-8.721-5.637-14.217-5.637
					c-4.977,0-9.549,1.758-13.137,4.68c1.65-23.281,7.064-45.898,16.17-67.426c10.707-25.32,26.033-48.055,45.553-67.57
					c19.516-19.518,42.248-34.842,67.566-45.551C297.791,147.357,325.637,141.732,354.326,141.732z"/>
			</g>
			<g>
				<g>
					<g>
						<path fill="#FFFFFF" d="M466.914,241.75c-30.072-30.072-70.057-46.633-112.588-46.633c-42.527,0-82.514,16.561-112.584,46.633
							c-30.072,30.072-46.637,70.057-46.637,112.586s16.564,82.512,46.637,112.586c30.07,30.07,70.057,46.635,112.584,46.635
							c42.531,0,82.516-16.564,112.588-46.635c30.072-30.074,46.631-70.057,46.631-112.586S496.986,271.822,466.914,241.75z"/>
						<path fill="#333E48" d="M242.117,405.826V302.848h22.332v7.611h-12.945v87.754h12.945v7.613H242.117z"/>
						<path fill="#333E48" d="M466.539,302.848v102.979h-22.33v-7.613h12.939v-87.754h-12.939v-7.611H466.539z"/>
						<path fill="#333E48" d="M293.986,375.256c0,2.059,0.033,4.484,0.096,7.271c0.063,2.789,0.15,5.623,0.26,8.496
							c0.105,2.875,0.234,5.623,0.387,8.24c0.146,2.617,0.33,4.805,0.545,6.563H282.08v-72.73c0-6.264-0.107-11.938-0.322-17.023
							c-0.213-5.086-0.535-9.494-0.967-13.225h13.195V375.256z"/>
						<path fill="#333E48" d="M351.594,340.176v8.434h-12.102v48.787h12.102v8.432h-36.043v-8.432h11.906v-48.787h-11.906v-8.434
							H351.594z"/>
						<path fill="#333E48" d="M378.627,340.176c0.258,0.688,0.516,1.576,0.771,2.674c0.262,1.094,0.492,2.24,0.709,3.441
							c0.213,1.201,0.406,2.383,0.58,3.541l0.512,2.893c4.121-4.889,8.26-8.418,12.424-10.586c4.162-2.166,8.498-3.25,13.002-3.25
							c3.434,0,6.469,0.568,9.107,1.705c2.639,1.141,4.859,2.941,6.662,5.406c1.801,2.469,3.162,5.668,4.088,9.592
							c0.922,3.928,1.383,8.656,1.383,14.195v28.959c0,7.252-0.635,13.273-1.9,18.055c-1.264,4.787-3.037,8.604-5.309,11.461
							c-2.273,2.85-5.012,4.867-8.207,6.047c-3.197,1.18-6.748,1.771-10.652,1.771c-1.93,0-4.002-0.313-6.211-0.934
							c-2.209-0.625-4.215-1.492-6.018-2.607l4.184-9.656c0.988,0.73,2.307,1.342,3.959,1.836c1.65,0.492,3.336,0.738,5.049,0.738
							c2.063,0,3.908-0.33,5.541-0.996c1.629-0.664,3.012-1.832,4.148-3.506c1.137-1.676,2.006-3.971,2.607-6.889
							c0.6-2.918,0.9-6.631,0.9-11.135v-28.32c0-5.148-0.268-9.322-0.805-12.518c-0.535-3.197-1.342-5.688-2.414-7.467
							c-1.072-1.781-2.414-2.971-4.025-3.574c-1.605-0.598-3.482-0.9-5.629-0.9c-2.316,0-4.578,0.549-6.789,1.645
							c-2.207,1.092-4.24,2.508-6.084,4.246c-1.846,1.736-3.475,3.699-4.891,5.889c-1.414,2.189-2.467,4.375-3.156,6.564v37.332
							H370.26v-39.584c0-6.35-0.367-11.725-1.096-16.123s-1.439-7.715-2.125-9.945H378.627z"/>
					</g>
				</g>
			</g>
		</g>
		<text transform="matrix(1.0154 0 0 1 2037.9111 381.8418)" fill="#FFFFFF" font-family="'FiraSans-Bold'" font-size="80">Session 2017–2018</text>
		<g>
			<rect x="1925.947" y="242.9" fill="#FFFFFF" width="3" height="228.445"/>
		</g>
		<g>
			<path fill="#FFFFFF" d="M626.665,336.834V236.362h12.092v89.819h42.751v10.652H626.665z"/>
			<path fill="#FFFFFF" d="M703.386,245.143c-2.496,0-4.296-0.598-5.398-1.799c-1.104-1.199-1.654-2.758-1.654-4.679v-1.871
				c0-1.919,0.551-3.478,1.654-4.678c1.103-1.199,2.902-1.8,5.398-1.8c2.494,0,4.293,0.601,5.397,1.8
				c1.103,1.2,1.655,2.759,1.655,4.678v1.871c0,1.921-0.553,3.479-1.655,4.679C707.679,244.545,705.88,245.143,703.386,245.143z
				 M697.628,262.561h11.515v74.273h-11.515V262.561z"/>
			<path fill="#FFFFFF" d="M733.613,336.834v-74.273h11.516v11.953h0.575c1.822-4.179,4.391-7.506,7.701-9.975
				c3.311-2.47,7.748-3.706,13.314-3.706c7.675,0,13.747,2.471,18.209,7.412c4.462,4.943,6.693,11.925,6.693,20.944v47.645h-11.516
				v-45.729c0-13.369-5.614-20.053-16.841-20.053c-2.305,0-4.535,0.29-6.694,0.865c-2.159,0.577-4.102,1.443-5.829,2.598
				c-1.729,1.154-3.096,2.62-4.103,4.399c-1.007,1.778-1.511,3.871-1.511,6.274v51.645H733.613z"/>
			<path fill="#FFFFFF" d="M874.389,334.387c0,10.267-2.88,18.328-8.638,24.182c-5.759,5.854-13.868,8.781-24.326,8.781
				c-6.046,0-11.252-0.94-15.618-2.818c-4.367-1.882-7.988-4.363-10.867-7.447l6.765-7.952c2.495,2.568,5.372,4.545,8.637,5.927
				c3.262,1.381,7.054,2.07,11.371,2.07c6.717,0,11.924-1.855,15.618-5.563c3.693-3.714,5.542-9.184,5.542-16.411V324.88h-0.576
				c-2.208,4.562-5.087,7.979-8.636,10.26c-3.552,2.281-7.917,3.421-13.099,3.421c-4.606,0-8.782-0.913-12.523-2.734
				c-3.742-1.822-6.909-4.413-9.5-7.773c-2.591-3.357-4.606-7.435-6.046-12.234c-1.439-4.797-2.159-10.171-2.159-16.121
				c0-5.949,0.72-11.322,2.159-16.122c1.439-4.798,3.455-8.875,6.046-12.235c2.591-3.357,5.758-5.949,9.5-7.772
				c3.741-1.822,7.917-2.734,12.523-2.734c5.182,0,9.618,1.117,13.314,3.349c3.692,2.232,6.5,5.676,8.42,10.332h0.576v-11.953
				h11.517V334.387z M844.016,328.341c2.591,0,5.038-0.337,7.341-1.013c2.304-0.674,4.294-1.664,5.974-2.966
				c1.678-1.3,3.022-2.893,4.029-4.772c1.009-1.881,1.513-4.075,1.513-6.583v-27.632c0-2.024-0.481-3.93-1.439-5.716
				c-0.96-1.783-2.304-3.302-4.03-4.556c-1.728-1.253-3.742-2.24-6.046-2.965c-2.303-0.725-4.75-1.086-7.341-1.086
				c-6.526,0-11.709,2.072-15.546,6.221c-3.839,4.146-5.758,9.5-5.758,16.059v12.729c0,6.558,1.919,11.911,5.758,16.059
				C832.307,326.268,837.489,328.341,844.016,328.341z"/>
			<path fill="#FFFFFF" d="M944.629,324.88h-0.575c-0.77,1.712-1.705,3.398-2.807,5.061c-1.105,1.662-2.473,3.135-4.103,4.417
				c-1.633,1.281-3.6,2.303-5.901,3.063c-2.304,0.76-4.991,1.14-8.062,1.14c-7.679,0-13.771-2.469-18.28-7.413
				c-4.512-4.94-6.766-11.922-6.766-20.943v-47.644h11.516v45.728c0,13.368,5.659,20.053,16.984,20.053
				c2.304,0,4.535-0.288,6.694-0.866c2.159-0.575,4.077-1.44,5.757-2.595c1.679-1.154,3.023-2.62,4.031-4.399
				c1.008-1.778,1.511-3.92,1.511-6.422v-51.498h11.516v74.273h-11.516V324.88z"/>
			<path fill="#FFFFFF" d="M986.371,245.143c-2.496,0-4.296-0.598-5.397-1.799c-1.104-1.199-1.655-2.758-1.655-4.679v-1.871
				c0-1.919,0.551-3.478,1.655-4.678c1.102-1.199,2.901-1.8,5.397-1.8c2.495,0,4.294,0.601,5.397,1.8
				c1.103,1.2,1.656,2.759,1.656,4.678v1.871c0,1.921-0.554,3.479-1.656,4.679C990.665,244.545,988.866,245.143,986.371,245.143z
				 M980.613,262.561h11.516v74.273h-11.516V262.561z"/>
			<path fill="#FFFFFF" d="M1038.91,338.561c-6.909,0-12.692-1.319-17.345-3.958c-4.656-2.638-8.662-6.165-12.021-10.58l8.206-6.621
				c2.878,3.648,6.092,6.455,9.644,8.421c3.549,1.968,7.677,2.951,12.38,2.951c4.894,0,8.708-1.056,11.442-3.167
				c2.735-2.11,4.103-5.086,4.103-8.925c0-2.879-0.936-5.348-2.806-7.413c-1.873-2.063-5.255-3.477-10.15-4.246l-5.9-0.864
				c-3.454-0.479-6.621-1.223-9.5-2.23s-5.397-2.351-7.557-4.03c-2.159-1.678-3.84-3.765-5.038-6.262
				c-1.201-2.494-1.799-5.47-1.799-8.924c0-3.646,0.67-6.837,2.015-9.573c1.343-2.734,3.188-5.012,5.542-6.836
				c2.35-1.822,5.156-3.189,8.419-4.103c3.263-0.911,6.766-1.367,10.509-1.367c6.046,0,11.106,1.057,15.186,3.166
				c4.078,2.112,7.652,5.038,10.724,8.78l-7.628,6.909c-1.633-2.303-4.031-4.39-7.196-6.261c-3.168-1.871-7.151-2.808-11.948-2.808
				c-4.8,0-8.421,1.032-10.867,3.096c-2.447,2.063-3.671,4.87-3.671,8.42c0,3.648,1.224,6.286,3.671,7.917
				c2.446,1.633,5.973,2.831,10.579,3.599l5.758,0.863c8.252,1.248,14.106,3.624,17.562,7.125c3.454,3.505,5.182,8.085,5.182,13.746
				c0,7.197-2.447,12.86-7.342,16.985C1054.168,336.499,1047.45,338.561,1038.91,338.561z"/>
			<path fill="#FFFFFF" d="M1102.103,336.834c-4.031,0-7.078-1.125-9.142-3.374c-2.064-2.249-3.094-5.195-3.094-8.835v-51.846
				h-12.235v-10.219h6.91c2.493,0,4.196-0.505,5.109-1.513c0.91-1.007,1.367-2.757,1.367-5.253v-13.819h10.363v20.585h16.265v10.219
				h-16.265v53.835h15.114v10.22H1102.103z"/>
			<path fill="#FFFFFF" d="M1141.974,245.143c-2.496,0-4.296-0.598-5.397-1.799c-1.104-1.199-1.655-2.758-1.655-4.679v-1.871
				c0-1.919,0.551-3.478,1.655-4.678c1.102-1.199,2.901-1.8,5.397-1.8c2.494,0,4.294,0.601,5.398,1.8
				c1.102,1.2,1.654,2.759,1.654,4.678v1.871c0,1.921-0.553,3.479-1.654,4.679C1146.268,244.545,1144.468,245.143,1141.974,245.143z
				 M1136.216,262.561h11.515v74.273h-11.515V262.561z"/>
			<path fill="#FFFFFF" d="M1199.839,338.561c-5.182,0-9.838-0.913-13.963-2.734c-4.127-1.822-7.606-4.413-10.436-7.773
				c-2.832-3.357-4.991-7.435-6.478-12.234c-1.489-4.797-2.232-10.171-2.232-16.121c0-5.949,0.743-11.322,2.232-16.122
				c1.486-4.798,3.646-8.875,6.478-12.235c2.829-3.357,6.309-5.949,10.436-7.772c4.125-1.822,8.781-2.734,13.963-2.734
				c7.388,0,13.314,1.607,17.776,4.821c4.461,3.217,7.796,7.413,10.004,12.595l-9.644,4.895c-1.347-3.837-3.552-6.813-6.621-8.925
				c-3.073-2.109-6.911-3.166-11.516-3.166c-3.455,0-6.478,0.553-9.068,1.654c-2.591,1.104-4.75,2.641-6.479,4.607
				c-1.727,1.967-3.022,4.318-3.886,7.053s-1.296,5.735-1.296,8.996v12.666c0,6.527,1.749,11.876,5.253,16.05
				c3.503,4.175,8.661,6.262,15.476,6.262c9.307,0,16.024-4.318,20.151-12.955l8.349,5.614c-2.399,5.375-5.974,9.645-10.724,12.811
				C1212.865,336.978,1206.938,338.561,1199.839,338.561z"/>
			<path fill="#FFFFFF" d="M1266.914,338.561c-6.909,0-12.692-1.319-17.345-3.958c-4.657-2.638-8.662-6.165-12.02-10.58l8.205-6.621
				c2.879,3.648,6.093,6.455,9.644,8.421c3.549,1.968,7.677,2.951,12.38,2.951c4.894,0,8.707-1.056,11.442-3.167
				c2.735-2.11,4.103-5.086,4.103-8.925c0-2.879-0.935-5.348-2.807-7.413c-1.871-2.063-5.253-3.477-10.148-4.246l-5.901-0.864
				c-3.453-0.479-6.621-1.223-9.5-2.23s-5.397-2.351-7.557-4.03c-2.159-1.678-3.84-3.765-5.038-6.262
				c-1.201-2.494-1.799-5.47-1.799-8.924c0-3.646,0.67-6.837,2.015-9.573c1.342-2.734,3.188-5.012,5.541-6.836
				c2.35-1.822,5.157-3.189,8.421-4.103c3.261-0.911,6.766-1.367,10.508-1.367c6.046,0,11.106,1.057,15.186,3.166
				c4.078,2.112,7.651,5.038,10.725,8.78l-7.629,6.909c-1.633-2.303-4.031-4.39-7.197-6.261c-3.167-1.871-7.15-2.808-11.947-2.808
				c-4.8,0-8.421,1.032-10.867,3.096c-2.447,2.063-3.671,4.87-3.671,8.42c0,3.648,1.224,6.286,3.671,7.917
				c2.446,1.633,5.973,2.831,10.579,3.599l5.758,0.863c8.252,1.248,14.106,3.624,17.562,7.125c3.454,3.505,5.182,8.085,5.182,13.746
				c0,7.197-2.447,12.86-7.342,16.985C1282.172,336.499,1275.454,338.561,1266.914,338.561z"/>
			<path fill="#FFFFFF" d="M1378.036,338.561c-8.157,0-15.114-1.561-20.872-4.678c-5.757-3.117-10.65-7.413-14.682-12.883
				l8.925-7.485c3.549,4.703,7.484,8.276,11.802,10.724c4.318,2.447,9.404,3.671,15.259,3.671c7.196,0,12.689-1.728,16.481-5.182
				c3.79-3.455,5.686-8.062,5.686-13.819c0-4.797-1.439-8.491-4.318-11.082c-2.878-2.592-7.629-4.654-14.25-6.19l-8.204-1.871
				c-9.213-2.11-16.243-5.302-21.088-9.571c-4.847-4.27-7.27-10.293-7.27-18.066c0-4.412,0.814-8.348,2.447-11.803
				c1.631-3.454,3.909-6.333,6.838-8.636c2.926-2.304,6.428-4.054,10.507-5.254c4.078-1.199,8.565-1.8,13.459-1.8
				c7.579,0,14.081,1.393,19.504,4.175c5.42,2.784,10.004,6.861,13.747,12.235l-9.068,6.621c-2.785-3.838-6.143-6.86-10.076-9.068
				c-3.936-2.207-8.83-3.312-14.683-3.312c-6.43,0-11.493,1.368-15.186,4.103c-3.695,2.735-5.542,6.838-5.542,12.307
				c0,4.8,1.559,8.422,4.677,10.868s7.847,4.391,14.18,5.83l8.205,1.871c9.881,2.208,17.031,5.566,21.447,10.075
				c4.413,4.512,6.621,10.508,6.621,17.993c0,4.606-0.792,8.78-2.375,12.523c-1.583,3.742-3.864,6.909-6.837,9.5
				c-2.977,2.591-6.6,4.606-10.867,6.046C1388.23,337.842,1383.409,338.561,1378.036,338.561z"/>
			<path fill="#FFFFFF" d="M1460.37,338.561c-4.991,0-9.55-0.913-13.675-2.734c-4.127-1.822-7.653-4.438-10.579-7.846
				c-2.929-3.404-5.207-7.484-6.838-12.234c-1.633-4.75-2.448-10.099-2.448-16.049c0-5.853,0.815-11.179,2.448-15.979
				c1.631-4.797,3.909-8.899,6.838-12.307c2.926-3.405,6.452-6.021,10.579-7.845c4.125-1.822,8.684-2.734,13.675-2.734
				c4.988,0,9.522,0.912,13.603,2.734c4.077,1.823,7.604,4.439,10.579,7.845c2.974,3.407,5.276,7.51,6.909,12.307
				c1.631,4.8,2.447,10.126,2.447,15.979c0,5.95-0.816,11.299-2.447,16.049c-1.633,4.75-3.936,8.83-6.909,12.234
				c-2.976,3.408-6.502,6.023-10.579,7.846C1469.893,337.647,1465.358,338.561,1460.37,338.561z M1460.37,328.341
				c6.236,0,11.322-1.918,15.258-5.758c3.934-3.837,5.901-9.69,5.901-17.561v-10.651c0-7.867-1.968-13.722-5.901-17.562
				c-3.936-3.837-9.021-5.757-15.258-5.757c-6.239,0-11.325,1.92-15.259,5.757c-3.936,3.84-5.902,9.694-5.902,17.562v10.651
				c0,7.87,1.967,13.724,5.902,17.561C1449.045,326.423,1454.131,328.341,1460.37,328.341z"/>
			<path fill="#FFFFFF" d="M1540.545,338.561c-5.182,0-9.837-0.913-13.962-2.734c-4.127-1.822-7.606-4.413-10.437-7.773
				c-2.832-3.357-4.99-7.435-6.477-12.234c-1.49-4.797-2.231-10.171-2.231-16.121c0-5.949,0.741-11.322,2.231-16.122
				c1.486-4.798,3.645-8.875,6.477-12.235c2.83-3.357,6.31-5.949,10.437-7.772c4.125-1.822,8.78-2.734,13.962-2.734
				c7.389,0,13.314,1.607,17.776,4.821c4.463,3.217,7.796,7.413,10.005,12.595l-9.645,4.895c-1.345-3.837-3.551-6.813-6.621-8.925
				c-3.072-2.109-6.909-3.166-11.516-3.166c-3.454,0-6.478,0.553-9.068,1.654c-2.591,1.104-4.75,2.641-6.478,4.607
				c-1.727,1.967-3.022,4.318-3.886,7.053c-0.864,2.734-1.296,5.735-1.296,8.996v12.666c0,6.527,1.75,11.876,5.254,16.05
				c3.502,4.175,8.659,6.262,15.474,6.262c9.307,0,16.025-4.318,20.152-12.955l8.348,5.614c-2.399,5.375-5.973,9.645-10.724,12.811
				C1553.572,336.978,1547.646,338.561,1540.545,338.561z"/>
			<path fill="#FFFFFF" d="M1591.067,245.143c-2.496,0-4.296-0.598-5.397-1.799c-1.105-1.199-1.656-2.758-1.656-4.679v-1.871
				c0-1.919,0.551-3.478,1.656-4.678c1.102-1.199,2.901-1.8,5.397-1.8c2.494,0,4.294,0.601,5.398,1.8
				c1.102,1.2,1.654,2.759,1.654,4.678v1.871c0,1.921-0.553,3.479-1.654,4.679C1595.361,244.545,1593.562,245.143,1591.067,245.143z
				 M1585.31,262.561h11.516v74.273h-11.516V262.561z"/>
			<path fill="#FFFFFF" d="M1649.221,338.561c-5.088,0-9.67-0.913-13.747-2.734c-4.08-1.822-7.582-4.438-10.508-7.846
				c-2.929-3.404-5.182-7.484-6.766-12.234c-1.583-4.75-2.375-10.099-2.375-16.049c0-5.853,0.792-11.179,2.375-15.979
				c1.584-4.797,3.837-8.899,6.766-12.307c2.926-3.405,6.428-6.021,10.508-7.845c4.077-1.822,8.659-2.734,13.747-2.734
				c4.987,0,9.45,0.907,13.386,2.726c3.934,1.816,7.29,4.329,10.076,7.531c2.782,3.203,4.915,7.004,6.405,11.403
				c1.486,4.399,2.231,9.228,2.231,14.486v5.452h-53.402v3.455c0,3.166,0.504,6.117,1.511,8.852c1.008,2.734,2.447,5.11,4.318,7.125
				c1.872,2.016,4.175,3.599,6.909,4.751c2.735,1.151,5.83,1.727,9.284,1.727c4.7,0,8.804-1.103,12.308-3.311
				c3.501-2.206,6.212-5.373,8.133-9.5l8.204,5.939c-2.399,5.119-6.142,9.246-11.228,12.384
				C1662.27,336.991,1656.224,338.561,1649.221,338.561z M1649.221,270.477c-3.166,0-6.046,0.549-8.638,1.646
				c-2.591,1.098-4.822,2.646-6.693,4.648s-3.335,4.363-4.39,7.081c-1.058,2.718-1.583,5.698-1.583,8.941v1.001h41.023v-1.574
				c0-6.581-1.8-11.848-5.398-15.807C1659.943,272.456,1655.169,270.477,1649.221,270.477z"/>
			<path fill="#FFFFFF" d="M1716.727,336.834c-4.029,0-7.076-1.125-9.139-3.374c-2.065-2.249-3.096-5.195-3.096-8.835v-51.846
				h-12.234v-10.219h6.909c2.493,0,4.196-0.505,5.11-1.513c0.911-1.007,1.367-2.757,1.367-5.253v-13.819h10.364v20.585h16.266
				v10.219h-16.266v53.835h15.113v10.22H1716.727z"/>
			<path fill="#FFFFFF" d="M1796.615,262.561h11.372l-33.251,91.546c-0.864,2.207-1.728,4.053-2.591,5.542
				c-0.864,1.486-1.921,2.663-3.167,3.526c-1.248,0.864-2.807,1.486-4.678,1.871c-1.871,0.382-4.151,0.576-6.838,0.576h-5.901
				v-10.22h11.659l5.614-15.809l-27.78-77.033h11.515l17.849,50.426l3.454,12.068h0.721l4.029-12.068L1796.615,262.561z"/>
			<g>
				<path fill="#FFFFFF" d="M646.793,477.751l-3.609-11.477h-15.99l-3.547,11.477h-8.64l15.088-45.004h10.574l14.958,45.004H646.793
					z M635.317,440.485h-0.322l-5.738,18.504h11.863L635.317,440.485z"/>
				<path fill="#FFFFFF" d="M692.119,477.751l-3.61-11.477h-15.99l-3.546,11.477h-8.641l15.088-45.004h10.574l14.958,45.004H692.119
					z M680.643,440.485h-0.322l-5.738,18.504h11.863L680.643,440.485z"/>
				<path fill="#FFFFFF" d="M736.156,458.731h-18.763v19.02h-8.511v-45.004h8.511v18.439h18.763v-18.439h8.511v45.004h-8.511
					V458.731z"/>
				<path fill="#FFFFFF" d="M771.037,457.378l-5.996,7.092v13.281h-8.511v-45.004h8.511v22.18h0.322l6.383-8.445l11.154-13.734
					h9.801l-15.668,18.762l16.957,26.242h-10.122L771.037,457.378z"/>
				<path fill="#FFFFFF" d="M809.594,432.747v27.66c0,3.525,0.677,6.168,2.031,7.932c1.354,1.762,3.643,2.643,6.866,2.643
					s5.513-0.881,6.867-2.643c1.354-1.764,2.03-4.406,2.03-7.932v-27.66h8.382v26.564c0,3.311-0.312,6.168-0.935,8.574
					c-0.624,2.408-1.623,4.408-2.998,5.998c-1.377,1.59-3.171,2.762-5.384,3.514c-2.215,0.75-4.892,1.127-8.027,1.127
					c-3.183,0-5.857-0.377-8.027-1.127c-2.171-0.752-3.944-1.924-5.319-3.514c-1.376-1.59-2.364-3.59-2.967-5.998
					c-0.602-2.406-0.901-5.264-0.901-8.574v-26.564H809.594z"/>
				<path fill="#FFFFFF" d="M861.303,478.524c-3.868,0-7.146-0.688-9.833-2.066c-2.687-1.377-4.996-3.186-6.931-5.426l5.738-5.553
					c1.548,1.791,3.277,3.156,5.19,4.094c1.912,0.939,4.028,1.408,6.351,1.408c2.621,0,4.599-0.564,5.932-1.695
					c1.332-1.131,1.999-2.654,1.999-4.574c0-1.494-0.43-2.709-1.289-3.648c-0.86-0.938-2.473-1.619-4.836-2.047l-4.256-0.639
					c-8.984-1.422-13.476-5.789-13.476-13.105c0-2.023,0.376-3.852,1.129-5.486c0.751-1.637,1.837-3.035,3.256-4.197
					c1.418-1.162,3.127-2.055,5.126-2.68c1.999-0.623,4.266-0.936,6.802-0.936c3.396,0,6.361,0.561,8.898,1.68
					c2.535,1.121,4.706,2.777,6.512,4.975l-5.803,5.492c-1.118-1.363-2.473-2.473-4.063-3.324c-1.591-0.852-3.59-1.279-5.996-1.279
					c-2.45,0-4.287,0.459-5.513,1.375c-1.225,0.916-1.838,2.205-1.838,3.867c0,1.703,0.493,2.961,1.483,3.771
					c0.988,0.809,2.579,1.406,4.771,1.789l4.19,0.773c4.556,0.818,7.92,2.271,10.091,4.357c2.17,2.088,3.256,5.002,3.256,8.746
					c0,2.152-0.377,4.098-1.128,5.842c-0.753,1.742-1.849,3.248-3.289,4.518s-3.202,2.248-5.286,2.938
					C866.406,478.181,864.011,478.524,861.303,478.524z"/>
				<path fill="#FFFFFF" d="M896.055,432.747v27.66c0,3.525,0.676,6.168,2.031,7.932c1.354,1.762,3.643,2.643,6.866,2.643
					s5.513-0.881,6.867-2.643c1.354-1.764,2.03-4.406,2.03-7.932v-27.66h8.381v26.564c0,3.311-0.311,6.168-0.934,8.574
					c-0.624,2.408-1.623,4.408-2.998,5.998c-1.376,1.59-3.171,2.762-5.384,3.514c-2.215,0.75-4.891,1.127-8.026,1.127
					c-3.183,0-5.858-0.377-8.029-1.127c-2.17-0.752-3.943-1.924-5.318-3.514c-1.376-1.59-2.364-3.59-2.966-5.998
					c-0.603-2.406-0.902-5.264-0.902-8.574v-26.564H896.055z"/>
			</g>
		</g>
	</g>
</g>
</svg>
