<?xml version="1.0" encoding="utf-8"?>
<!-- Generator: Adobe Illustrator 16.0.0, SVG Export Plug-In . SVG Version: 6.00 Build 0)  -->
<!DOCTYPE svg PUBLIC "-//W3C//DTD SVG 1.0//EN" "http://www.w3.org/TR/2001/REC-SVG-20010904/DTD/svg10.dtd">
<svg version="1.0" id="Logotypes" xmlns="http://www.w3.org/2000/svg" xmlns:xlink="http://www.w3.org/1999/xlink" x="0px" y="0px"
	 width="633.19px" height="695.518px" viewBox="0 0 633.19 695.518" enable-background="new 0 0 633.19 695.518"
	 xml:space="preserve">
<g>
	<defs>
		<rect id="SVGID_33_" width="633.19" height="695.518"/>
	</defs>
	<clipPath id="SVGID_2_">
		<use xlink:href="#SVGID_33_"  overflow="visible"/>
	</clipPath>
	<g clip-path="url(#SVGID_2_)">
		<g>
			
				<text transform="matrix(1.0154 0 0 1 97.5596 621.8145)" fill="#FFFFFF" font-family="'NotoSansCJKtc-Medium-B5pc-H'" font-size="38.7079" letter-spacing="1.97">二零一七至二零一八年度</text>
		</g>
		<g>
			<g>
				<g>
					<path fill="#FFFFFF" d="M79.222,135.787c-4.553,10.764-7.26,22.072-8.085,33.713c1.794-1.461,4.08-2.34,6.568-2.34
						c2.748,0,5.244,1.077,7.108,2.818c3.669-47.796,43.612-85.437,92.351-85.437c3.777,0,6.838-3.062,6.838-6.838
						s-3.061-6.838-6.838-6.838c-14.344,0-28.268,2.813-41.383,8.359c-12.659,5.355-24.025,13.017-33.783,22.775
						C92.238,111.759,84.575,123.126,79.222,135.787z"/>
					<path fill="#FFFFFF" d="M169.594,269.486c-47.478-3.842-84.836-43.482-85.051-91.899c0-3.775-3.061-6.838-6.838-6.838
						c-3.776,0-6.838,3.063-6.838,6.838c0.055,14.197,2.861,27.978,8.354,40.964c5.354,12.659,13.017,24.027,22.776,33.784
						c9.758,9.76,21.124,17.422,33.783,22.777c10.629,4.494,21.787,7.193,33.27,8.055c-1.443-1.789-2.313-4.061-2.313-6.533
						C166.738,273.866,167.83,271.354,169.594,269.486z"/>
					<path fill="#FFFFFF" d="M251.266,243.707c-1.335-1.335-3.084-2.003-4.834-2.003s-3.501,0.668-4.836,2.003
						c-16.672,16.146-39.389,26.089-64.432,26.089c-3.775,0-6.838,3.062-6.838,6.838s3.063,6.838,6.838,6.838
						c14.346,0,28.268-2.813,41.383-8.359c12.203-5.161,23.201-12.475,32.719-21.734
						C253.938,250.708,253.938,246.378,251.266,243.707z"/>
					<path fill="#FFFFFF" d="M177.164,283.472c-3.775,0-6.838-3.062-6.838-6.838s3.063-6.838,6.838-6.838
						c25.043,0,47.76-9.943,64.432-26.089c1.335-1.335,3.086-2.003,4.836-2.003s3.499,0.668,4.834,2.003
						c2.672,2.671,2.672,7.001,0,9.671c-9.518,9.26-20.516,16.573-32.719,21.734C205.432,280.659,191.51,283.472,177.164,283.472z
						 M135.781,275.112c-12.659-5.355-24.025-13.018-33.783-22.777c-9.76-9.757-17.423-21.125-22.776-33.784
						c-5.493-12.986-8.3-26.767-8.354-40.964c0-3.775,3.062-6.838,6.838-6.838c3.777,0,6.838,3.063,6.838,6.838
						c0.215,48.417,37.573,88.058,85.051,91.899c-1.764,1.868-2.855,4.38-2.855,7.147c0,2.473,0.869,4.744,2.313,6.533
						C157.568,282.306,146.41,279.606,135.781,275.112z M177.164,70.866c3.777,0,6.838,3.062,6.838,6.838s-3.061,6.838-6.838,6.838
						c-48.738,0-88.682,37.641-92.351,85.437c-1.864-1.741-4.36-2.818-7.108-2.818c-2.488,0-4.774,0.879-6.568,2.34
						c0.825-11.641,3.532-22.949,8.085-33.713c5.354-12.661,13.017-24.028,22.776-33.786c9.758-9.759,21.124-17.42,33.783-22.775
						C148.896,73.679,162.82,70.866,177.164,70.866z"/>
				</g>
				<g>
					<g>
						<g>
							<path fill="#FFFFFF" d="M233.459,120.876c-15.036-15.037-35.029-23.316-56.295-23.316c-21.264,0-41.256,8.279-56.292,23.316
								c-15.036,15.036-23.318,35.028-23.318,56.293c0,21.266,8.282,41.256,23.318,56.293
								c15.036,15.035,35.028,23.318,56.292,23.318c21.266,0,41.259-8.283,56.295-23.318c15.035-15.037,23.315-35.027,23.315-56.293
								C256.774,155.904,248.494,135.912,233.459,120.876z"/>
							<path fill="#333E48" d="M121.059,202.914v-51.489h11.168v3.806h-6.473v43.878h6.473v3.806H121.059z"/>
							<path fill="#333E48" d="M233.271,151.425v51.489h-11.166v-3.806h6.471V155.23h-6.471v-3.806H233.271z"/>
							<path fill="#00C2F3" d="M146.994,187.629c0,1.028,0.017,2.242,0.048,3.636c0.032,1.395,0.075,2.813,0.13,4.248
								c0.053,1.438,0.117,2.812,0.193,4.12c0.074,1.309,0.166,2.402,0.272,3.281h-6.597v-36.366c0-3.131-0.053-5.969-0.161-8.511
								c-0.106-2.543-0.268-4.747-0.483-6.612h6.598V187.629z"/>
							<path fill="#00C2F3" d="M175.798,170.089v4.217h-6.05v24.394h6.05v4.216h-18.021v-4.216h5.953v-24.394h-5.953v-4.217H175.798
								z"/>
							<path fill="#00C2F3" d="M189.314,170.089c0.129,0.344,0.258,0.788,0.387,1.337c0.13,0.546,0.246,1.12,0.354,1.721
								c0.106,0.601,0.203,1.19,0.291,1.771l0.256,1.446c2.061-2.444,4.129-4.209,6.211-5.293c2.082-1.083,4.25-1.625,6.502-1.625
								c1.717,0,3.234,0.284,4.553,0.853c1.32,0.57,2.431,1.471,3.332,2.703c0.9,1.234,1.58,2.834,2.043,4.796
								c0.462,1.964,0.691,4.327,0.691,7.097v14.48c0,3.626-0.316,6.637-0.949,9.027c-0.632,2.394-1.519,4.303-2.654,5.73
								c-1.137,1.425-2.506,2.434-4.104,3.023c-1.599,0.59-3.374,0.886-5.326,0.886c-0.965,0-2.001-0.156-3.105-0.467
								c-1.105-0.312-2.107-0.745-3.01-1.304l2.092-4.828c0.494,0.365,1.153,0.671,1.98,0.918c0.825,0.246,1.668,0.369,2.524,0.369
								c1.031,0,1.954-0.165,2.771-0.498c0.814-0.332,1.506-0.916,2.074-1.753s1.003-1.985,1.304-3.444
								c0.3-1.459,0.45-3.314,0.45-5.567v-14.16c0-2.575-0.135-4.661-0.402-6.259c-0.268-1.6-0.672-2.844-1.207-3.734
								c-0.536-0.89-1.207-1.484-2.013-1.787c-0.804-0.299-1.741-0.449-2.815-0.449c-1.158,0-2.288,0.273-3.394,0.822
								c-1.104,0.545-2.12,1.254-3.043,2.123c-0.923,0.867-1.737,1.85-2.444,2.944c-0.708,1.095-1.234,2.188-1.578,3.282v18.666
								h-5.953v-19.792c0-3.175-0.184-5.862-0.548-8.062s-0.72-3.857-1.062-4.973H189.314z"/>
						</g>
					</g>
				</g>
			</g>
		</g>
		<g>
			<g>
				<path fill="#FFFFFF" d="M129.768,447.272H97.559v-5.346h32.209V447.272z M125.576,504.204h-5.52v-5.861h-12.873v5.861h-5.604
					v-28.916h23.996V504.204z M125.318,458.31l-23.652,0.084v-5.346h23.652V458.31z M125.404,469.515h-23.738v-5.346h23.738V469.515
					z M124.334,436.409l-21.729,0.086v-5.348h21.729V436.409z M120.057,493.081V480.55h-12.959v12.531H120.057z M175.318,469.601
					l-46.236,0.086v-5.262h11.463l2.48-13.217h-10.691v-5.26h11.549l1.838-9.797H129.34v-5.346h42.473v5.262h-20.318l-1.752,9.795
					h17.621l-1.84,18.477h9.795V469.601z M167.877,504.374h-5.518v-5.773h-21.643v5.773h-5.604v-29h32.764V504.374z
					 M162.359,493.339v-12.703h-21.729v12.703H162.359z M161.504,451.122h-12.703l-2.48,13.303h13.857L161.504,451.122z"/>
				<path fill="#FFFFFF" d="M271.762,447.272h-77.76v-5.346h77.76V447.272z M260.299,458.224h-55.604v-5.176h55.604V458.224z
					 M260.299,469.343h-55.604v-5.174h55.604V469.343z M258.289,504.374h-5.518v-6.031H212.65v6.031h-5.518v-29.086h51.156V504.374z
					 M258.203,435.853l-50.643,0.129v-5.176h50.643V435.853z M252.771,493.081V480.55H212.65v12.531H252.771z"/>
				<path fill="#FFFFFF" d="M368.205,488.892h-34.432v5.945c0,6.357-3.379,9.537-10.139,9.537h-5.688l-2.096-5.26h7.955
					c2.795,0,4.193-1.285,4.193-3.85v-6.373h-37.555v-5.348H328v-3.678c5.957-2.225,10.221-4.305,12.787-6.244h-32.764v-4.92h42.262
					v4.662c-4.451,3.023-9.953,6.117-16.512,9.281v0.898h34.432V488.892z M364.613,473.022h-5.135v-8.854h-59.752v9.367h-5.604
					v-14.371h7.357v-26.092c4.047-0.4,8.482-2.324,13.303-5.775l2.822,3.936c-2.596,2.396-6.131,4.207-10.607,5.432v3.594h10.949
					v4.449h-10.949v4.662h10.949v4.361h-10.949v5.434h45.467v-5.434h-10.438v-4.277h10.438v-5.004h-10.352v-4.363h10.352v-4.662
					h-12.105v-5.176h17.537v28.83h6.717V473.022z M340.359,439.831l-2.992,3.678c-1.627-1.566-3.838-3.264-6.631-5.09
					c-2.309,1.939-4.904,3.721-7.785,5.348l-3.508-3.08c2.768-1.141,5.189-2.48,7.273-4.021c-3.48-1.311-6.289-2.223-8.428-2.736
					l2.182-3.936c3.164,0.799,6.344,1.826,9.539,3.08c2.023-1.91,3.721-3.863,5.09-5.859l3.592,2.865
					c-1.141,1.768-2.623,3.494-4.447,5.176C336.354,436.452,338.393,437.978,340.359,439.831z M340.873,455.399l-3.592,2.824
					c-2.311-1.77-4.707-3.236-7.186-4.406c-1.541,1.17-4.277,2.637-8.213,4.406l-3.25-2.566c3.678-1.74,6.314-3.252,7.912-4.535
					c-1.598-0.996-4.02-2.109-7.271-3.336l3.207-2.693c2.938,1.055,5.447,2.152,7.529,3.293c0.797-0.455,2.408-1.824,4.832-4.107
					l3.936,2.012c-1.455,1.881-3.078,3.436-4.875,4.662C336.268,452.036,338.592,453.519,340.873,455.399z"/>
				<path fill="#FFFFFF" d="M464.563,488.892h-34.432v5.945c0,6.357-3.379,9.537-10.137,9.537h-5.689l-2.096-5.26h7.955
					c2.795,0,4.191-1.285,4.191-3.85v-6.373h-37.553v-5.348h37.553v-3.678c5.961-2.225,10.223-4.305,12.791-6.244h-32.766v-4.92
					h42.26v4.662c-4.447,3.023-9.953,6.117-16.51,9.281v0.898h34.432V488.892z M460.971,473.022h-5.135v-8.854h-59.752v9.367h-5.604
					v-14.371h7.357v-26.092c4.049-0.4,8.482-2.324,13.303-5.775l2.822,3.936c-2.594,2.396-6.131,4.207-10.607,5.432v3.594h10.949
					v4.449h-10.949v4.662h10.949v4.361h-10.949v5.434h45.467v-5.434h-10.436v-4.277h10.436v-5.004h-10.352v-4.363h10.352v-4.662
					h-12.105v-5.176h17.537v28.83h6.717V473.022z M438.24,454.44l-3.896,3.563c-1.779-2.672-4.324-6.018-6.785-8.096
					c-3.826,4.264-6.975,6.977-9.434,8.137l-3.855-3.238c2.898-1.379,6.041-3.955,9.434-7.732c-3.855-2.402-6.604-3.887-8.244-4.455
					l3.363-3.479c1.367,0.539,3.936,1.941,7.711,4.211c1.123-1.836,1.996-3.848,2.625-6.033h-12.879v-5.061h6.904v-5.209h4.432
					v5.209h8.195v5.061h-1.623c-0.91,3.348-2.135,6.248-3.676,8.705C433.494,448.288,436.354,451.741,438.24,454.44z"/>
				<path fill="#FFFFFF" d="M562.33,447.103l-3.078,4.447c-9.725-2.395-17.338-5.16-22.84-8.297v3.85h-28.916v-4.234
					c-8.326,4.305-15.797,7.115-22.412,8.426l-2.822-4.49c16.023-3.906,29.369-10.438,40.035-19.59l5.26,1.752
					c-0.57,0.713-1.07,1.213-1.498,1.498C535.525,438.333,547.617,443.88,562.33,447.103z M553.219,471.61h-62.104V451.55h62.104
					V471.61z M548.131,504.46h-5.262v-3.422h-41.316v3.422h-5.262v-28.357h51.84V504.46z M519.602,466.991v-10.693h-23.227v10.693
					H519.602z M542.869,486.325v-5.518h-41.316v5.518H542.869z M542.869,496.419v-5.604h-41.316v5.604H542.869z M513.912,462.757
					l-4.404,3.08c-2.652-2.68-5.248-4.662-7.785-5.945l4.447-2.566C509.193,458.608,511.773,460.419,513.912,462.757z
					 M534.658,442.354c-4.135-2.166-8.143-5.09-12.02-8.768c-4.135,3.422-8.768,6.344-13.9,8.768H534.658z M547.961,466.991v-10.693
					h-23.098v10.693H547.961z M542.783,458.821c-1.682,2.682-4.221,4.963-7.613,6.844l-4.705-2.352
					c3.736-2.109,6.303-4.221,7.699-6.332L542.783,458.821z"/>
			</g>
			<g>
				<path fill="#FFFFFF" d="M130.17,377.353l-1.635,1.881c-4.895-1.723-9.557-4.756-13.984-9.102l0.035,6.869h8.205v15.111h-2.232
					v-2.021h-14.215v2.021h-2.301v-15.111h8.24v-6.869c-2.412,3.689-6.771,6.578-13.072,8.662l-1.652-1.863
					c5.588-1.475,9.582-3.742,11.984-6.799h-9.998v-2.197h12.738v-3.391c-2.799,0.281-6.314,0.486-10.543,0.615l-1.51-2.125
					c9.99-0.037,17.969-0.873,23.93-2.514l1.688,1.688c-3.314,0.891-7.07,1.574-11.262,2.055v3.672H127.5v2.197l-10.068-0.035
					C121.156,373.329,125.402,375.749,130.17,377.353z M120.559,382.29v-3.092h-14.25v3.092H120.559z M120.559,387.931v-3.479
					h-14.25v3.479H120.559z"/>
				<path fill="#FFFFFF" d="M139.307,378.97c-1.477,4.58-3.408,8.336-5.797,11.264l2.055,1.299c2.658-3.35,4.615-7.104,5.869-11.262
					L139.307,378.97z M135.6,369.218l-1.477,1.846c2.33,0.996,4.176,2.424,5.535,4.287l1.545-2.092
					C139.986,371.63,138.117,370.284,135.6,369.218z M137.32,361.347l-1.65,1.688c2.248,0.807,4.023,2.166,5.324,4.076l1.65-1.775
					C141.391,363.519,139.617,362.19,137.32,361.347z"/>
				<path fill="#FFFFFF" d="M160.285,384.312v-6.625c1.395,1.313,2.895,2.391,4.5,3.234l1.439-1.951
					c-3.068-1.311-5.459-3.387-7.168-6.219h6.008v-2.162h-5.744v-4.199h4.338v-2.162h-4.338v-3.705h-2.232v3.74h-6.518v-3.74h-2.232
					v3.74h-4.322v2.16h4.357v4.199h-5.729v2.164h5.799c-1.299,2.436-3.648,4.463-7.045,6.078l1.65,1.949
					c1.004-0.582,1.93-1.215,2.775-1.896v9.418c0,2.016,1.008,3.021,3.023,3.021h11.508c0.938,0,1.678-0.311,2.223-0.93
					c0.545-0.621,0.971-1.846,1.273-3.672l-2.266-1.02c-0.152,1.463-0.375,2.4-0.668,2.811s-0.686,0.615-1.176,0.615h-10.719
					c-0.646,0-0.967-0.322-0.967-0.967v-3.883H160.285z M150.57,366.39h6.553v4.199h-6.553V366.39z M150.779,372.751h5.975
					c0.574,1.357,1.441,2.688,2.6,3.988h-11.156C149.463,375.345,150.324,374.015,150.779,372.751z M148.057,378.899h9.998v3.285
					h-9.998V378.899z"/>
				<path fill="#FFFFFF" d="M202.068,390.354l-1.635,1.828c-7.32-3.994-11.971-10.725-13.951-20.188
					c-2.447,9.617-7.438,16.346-14.969,20.188l-1.775-2.092c7.461-3.631,12.188-9.65,14.18-18.061h-11.947v-2.268h12.211
					c0.223-2.201,0.316-5.283,0.281-9.242l2.441,0.352c0.059,3.584-0.012,6.537-0.211,8.855h13.318v2.268h-11.086
					C190.33,380.019,194.713,386.138,202.068,390.354z"/>
				<path fill="#FFFFFF" d="M237.895,385.786H223.75v2.443c0,2.611-1.389,3.918-4.164,3.918h-2.338l-0.859-2.16h3.268
					c1.146,0,1.721-0.527,1.721-1.582v-2.619h-15.426v-2.195h15.426v-1.512c2.449-0.912,4.201-1.768,5.254-2.564h-13.459v-2.021
					h17.359v1.916c-1.826,1.242-4.088,2.512-6.781,3.813v0.369h14.145V385.786z M236.418,379.269h-2.107v-3.637h-24.547v3.848
					h-2.301v-5.904h3.021v-10.717c1.662-0.164,3.484-0.955,5.465-2.373l1.158,1.617c-1.064,0.984-2.518,1.727-4.357,2.23v1.477
					h4.498v1.828h-4.498v1.914h4.498v1.793h-4.498v2.23h18.678v-2.23h-4.287v-1.758h4.287v-2.055h-4.252v-1.793h4.252v-1.914h-4.973
					v-2.127h7.205v11.842h2.758V379.269z M226.455,365.634l-1.23,1.51c-0.666-0.643-1.574-1.34-2.723-2.09
					c-0.947,0.797-2.014,1.529-3.197,2.197l-1.441-1.266c1.137-0.469,2.133-1.02,2.986-1.652c-1.428-0.537-2.582-0.912-3.461-1.125
					l0.896-1.615c1.301,0.328,2.607,0.75,3.918,1.266c0.832-0.785,1.529-1.588,2.092-2.408l1.477,1.178
					c-0.471,0.727-1.078,1.436-1.828,2.127C224.811,364.245,225.646,364.872,226.455,365.634z M226.666,372.03l-1.475,1.158
					c-0.949-0.725-1.934-1.328-2.953-1.809c-0.633,0.48-1.756,1.084-3.373,1.809l-1.336-1.055c1.512-0.713,2.596-1.334,3.252-1.861
					c-0.656-0.41-1.652-0.867-2.988-1.371l1.318-1.107c1.207,0.434,2.238,0.887,3.092,1.354c0.328-0.188,0.99-0.748,1.986-1.686
					l1.615,0.826c-0.596,0.771-1.264,1.41-2.002,1.914C224.775,370.647,225.729,371.257,226.666,372.03z"/>
				<path fill="#FFFFFF" d="M273.879,385.786h-14.145v2.443c0,2.611-1.389,3.918-4.164,3.918h-2.338l-0.859-2.16h3.268
					c1.146,0,1.721-0.527,1.721-1.582v-2.619h-15.426v-2.195h15.426v-1.512c2.449-0.912,4.199-1.768,5.254-2.564h-13.459v-2.021
					h17.359v1.916c-1.826,1.242-4.088,2.512-6.781,3.813v0.369h14.145V385.786z M272.402,379.269h-2.109v-3.637h-24.545v3.848
					h-2.303v-5.904h3.023v-10.717c1.662-0.164,3.484-0.955,5.463-2.373l1.16,1.617c-1.066,0.984-2.518,1.727-4.357,2.23v1.477h4.498
					v1.828h-4.498v1.914h4.498v1.793h-4.498v2.23h18.678v-2.23h-4.287v-1.758h4.287v-2.055h-4.252v-1.793h4.252v-1.914h-4.973
					v-2.127h7.203v11.842h2.76V379.269z M262.439,365.634l-1.229,1.51c-0.668-0.643-1.576-1.34-2.725-2.09
					c-0.949,0.797-2.016,1.529-3.197,2.197l-1.441-1.266c1.137-0.469,2.133-1.02,2.986-1.652c-1.428-0.537-2.582-0.912-3.461-1.125
					l0.896-1.615c1.301,0.328,2.605,0.75,3.918,1.266c0.832-0.785,1.529-1.588,2.092-2.408l1.475,1.178
					c-0.469,0.727-1.076,1.436-1.826,2.127C260.795,364.245,261.631,364.872,262.439,365.634z M262.65,372.03l-1.477,1.158
					c-0.947-0.725-1.932-1.328-2.951-1.809c-0.633,0.48-1.758,1.084-3.373,1.809l-1.336-1.055c1.512-0.713,2.596-1.334,3.25-1.861
					c-0.654-0.41-1.65-0.867-2.986-1.371l1.318-1.107c1.207,0.434,2.236,0.887,3.092,1.354c0.328-0.188,0.99-0.748,1.986-1.686
					l1.615,0.826c-0.598,0.771-1.264,1.41-2.002,1.914C260.76,370.647,261.713,371.257,262.65,372.03z"/>
				<path fill="#FFFFFF" d="M309.861,390.39h-31.977v-2.266h14.898v-8.24h-10.734v-2.268h10.734v-7.168h-7.959
					c-0.961,2.494-2.564,4.797-4.814,6.904l-2.318-1.213c3.842-3.549,5.979-7.895,6.412-13.035l2.373,0.684
					c-0.094,1.195-0.369,2.672-0.826,4.43h7.098v-7.697h2.373v7.66h12.404v2.268h-12.404v7.133h10.578v2.268h-10.578v8.24h14.74
					V390.39z"/>
				<path fill="#FFFFFF" d="M346.426,368.62l-1.266,1.828c-3.994-0.984-7.121-2.119-9.381-3.408v1.58H323.9v-1.738
					c-3.42,1.768-6.488,2.922-9.207,3.461l-1.158-1.846c6.582-1.604,12.064-4.287,16.445-8.047l2.16,0.721
					c-0.234,0.293-0.439,0.498-0.613,0.615C335.416,365.019,340.381,367.298,346.426,368.62z M342.684,378.688h-25.512v-8.24h25.512
					V378.688z M340.594,392.183h-2.162v-1.406h-16.973v1.406h-2.162v-11.648h21.297V392.183z M328.873,376.79v-4.393h-9.541v4.393
					H328.873z M338.432,384.733v-2.268h-16.973v2.268H338.432z M338.432,388.88v-2.303h-16.973v2.303H338.432z M326.537,375.052
					l-1.811,1.266c-1.09-1.102-2.154-1.916-3.197-2.443l1.826-1.053C324.598,373.347,325.658,374.091,326.537,375.052z
					 M335.059,366.671c-1.699-0.891-3.346-2.092-4.939-3.604c-1.697,1.406-3.6,2.607-5.709,3.604H335.059z M340.523,376.79v-4.393
					h-9.488v4.393H340.523z M338.396,373.435c-0.691,1.102-1.734,2.039-3.127,2.813l-1.934-0.967
					c1.535-0.867,2.59-1.734,3.162-2.602L338.396,373.435z"/>
				<path fill="#FFFFFF" d="M382.199,389.88l-1.547,2.057c-5.961-1.756-10.799-4.123-14.512-7.098
					c-3.199,2.611-8.223,5.025-15.076,7.238l-1.721-2.09c6.629-1.84,11.643-4.07,15.039-6.695
					c-3.408-3.221-5.699-7.139-6.869-11.754c-0.633,1.627-1.5,3.174-2.602,4.639l-1.861-1.705c1.477-1.758,2.664-3.684,3.566-5.781
					h-6.045v-2.16h14.094v-6.01h2.266v5.975h14.336v2.16h-6.01c-1.053,6.115-3.477,10.982-7.273,14.602
					C371.439,385.88,376.178,388.089,382.199,389.88z M372.904,368.655h-13.598c0.936,5.424,3.225,9.787,6.869,13.09
					C369.736,378.431,371.979,374.067,372.904,368.655z"/>
				<path fill="#FFFFFF" d="M417.816,385.786H403.67v2.443c0,2.611-1.387,3.918-4.164,3.918h-2.336l-0.861-2.16h3.268
					c1.148,0,1.723-0.527,1.723-1.582v-2.619h-15.426v-2.195h15.426v-1.512c2.447-0.912,4.199-1.768,5.252-2.564h-13.457v-2.021
					h17.359v1.916c-1.828,1.242-4.09,2.512-6.783,3.813v0.369h14.146V385.786z M416.34,379.269h-2.109v-3.637h-24.547v3.848h-2.301
					v-5.904h3.021v-10.717c1.664-0.164,3.486-0.955,5.467-2.373l1.158,1.617c-1.064,0.984-2.52,1.727-4.359,2.23v1.477h4.5v1.828
					h-4.5v1.914h4.5v1.793h-4.5v2.23h18.68v-2.23h-4.289v-1.758h4.289v-2.055h-4.252v-1.793h4.252v-1.914h-4.973v-2.127h7.203
					v11.842h2.76V379.269z M406.377,365.634l-1.23,1.51c-0.668-0.643-1.576-1.34-2.723-2.09c-0.949,0.797-2.016,1.529-3.199,2.197
					l-1.439-1.266c1.135-0.469,2.131-1.02,2.986-1.652c-1.43-0.537-2.584-0.912-3.461-1.125l0.896-1.615
					c1.299,0.328,2.605,0.75,3.918,1.266c0.832-0.785,1.527-1.588,2.09-2.408l1.477,1.178c-0.469,0.727-1.078,1.436-1.826,2.127
					C404.73,364.245,405.568,364.872,406.377,365.634z M406.588,372.03l-1.477,1.158c-0.947-0.725-1.934-1.328-2.951-1.809
					c-0.633,0.48-1.758,1.084-3.375,1.809l-1.336-1.055c1.514-0.713,2.596-1.334,3.252-1.861c-0.656-0.41-1.652-0.867-2.986-1.371
					l1.316-1.107c1.207,0.434,2.238,0.887,3.094,1.354c0.328-0.188,0.99-0.748,1.984-1.686l1.617,0.826
					c-0.598,0.771-1.266,1.41-2.002,1.914C404.695,370.647,405.648,371.257,406.588,372.03z"/>
				<path fill="#FFFFFF" d="M429.832,372.468c2.367,2.66,3.551,5.254,3.551,7.785c0,1.229-0.32,2.207-0.959,2.934
					c-0.637,0.727-1.531,1.09-2.68,1.09c-0.631,0-1.395-0.076-2.283-0.229l-0.65-2.338c1.254,0.318,2.156,0.475,2.705,0.475
					c0.457,0,0.873-0.176,1.248-0.527c0.375-0.35,0.563-0.818,0.563-1.404c0-0.879-0.322-2.004-0.965-3.375
					c-0.646-1.369-1.613-2.676-2.9-3.916l3.426-8.805h-5.217v27.99h-2.303v-30.221h9.855v2.23L429.832,372.468z M454.063,385.7
					c-0.305,1.896-0.715,3.273-1.23,4.127c-0.516,0.855-1.354,1.283-2.512,1.283h-2.74c-1.828,0-2.742-0.961-2.742-2.881v-9.295
					h-3.707c-0.07,3.771-0.807,6.598-2.205,8.479c-1.4,1.879-3.996,3.457-7.793,4.734l-1.477-2.021
					c3.525-1.041,5.945-2.389,7.258-4.041c1.313-1.65,1.973-4.023,1.984-7.115h-4.814v-2.303h18.82v2.268h-5.871v8.75
					c0,0.293,0.094,0.566,0.281,0.816c0.188,0.254,0.41,0.379,0.668,0.379h2.232c0.457,0,0.805-0.375,1.045-1.125
					s0.441-1.721,0.607-2.916L454.063,385.7z M452.041,369.763l-2.23,0.035v-3.092h-13.248v3.092h-2.268v-5.324h7.713v-3.988h2.303
					v3.953h7.73V369.763z M449.09,373.153h-11.877v-2.301h11.877V373.153z"/>
				<path fill="#FFFFFF" d="M489.783,385.786h-14.145v2.443c0,2.611-1.389,3.918-4.164,3.918h-2.336l-0.861-2.16h3.268
					c1.148,0,1.723-0.527,1.723-1.582v-2.619H457.84v-2.195h15.428v-1.512c2.447-0.912,4.199-1.768,5.252-2.564h-13.459v-2.021
					h17.359v1.916c-1.826,1.242-4.088,2.512-6.781,3.813v0.369h14.145V385.786z M488.307,379.269h-2.107v-3.637h-24.545v3.848
					h-2.303v-5.904h3.023v-10.717c1.66-0.164,3.482-0.955,5.463-2.373l1.16,1.617c-1.066,0.984-2.52,1.727-4.357,2.23v1.477h4.498
					v1.828h-4.498v1.914h4.498v1.793h-4.498v2.23h18.676v-2.23h-4.287v-1.758h4.287v-2.055h-4.25v-1.793h4.25v-1.914h-4.971v-2.127
					h7.203v11.842h2.758V379.269z M478.346,365.634l-1.232,1.51c-0.668-0.643-1.574-1.34-2.723-2.09
					c-0.949,0.797-2.014,1.529-3.197,2.197l-1.441-1.266c1.137-0.469,2.133-1.02,2.988-1.652c-1.43-0.537-2.584-0.912-3.461-1.125
					l0.895-1.615c1.301,0.328,2.607,0.75,3.918,1.266c0.832-0.785,1.529-1.588,2.092-2.408l1.477,1.178
					c-0.469,0.727-1.08,1.436-1.828,2.127C476.699,364.245,477.537,364.872,478.346,365.634z M478.555,372.03l-1.475,1.158
					c-0.949-0.725-1.934-1.328-2.951-1.809c-0.635,0.48-1.758,1.084-3.375,1.809l-1.334-1.055c1.51-0.713,2.594-1.334,3.25-1.861
					c-0.656-0.41-1.652-0.867-2.988-1.371l1.318-1.107c1.207,0.434,2.238,0.887,3.092,1.354c0.328-0.188,0.99-0.748,1.986-1.686
					l1.615,0.826c-0.596,0.771-1.264,1.41-2.002,1.914C476.664,370.647,477.619,371.257,478.555,372.03z"/>
				<path fill="#FFFFFF" d="M525.768,390.39h-31.979v-2.266h14.9v-8.24h-10.736v-2.268h10.736v-7.168h-7.961
					c-0.959,2.494-2.564,4.797-4.814,6.904l-2.318-1.213c3.842-3.549,5.98-7.895,6.414-13.035l2.371,0.684
					c-0.094,1.195-0.369,2.672-0.826,4.43h7.1v-7.697h2.371v7.66h12.404v2.268h-12.404v7.133h10.578v2.268h-10.578v8.24h14.742
					V390.39z"/>
				<path fill="#FFFFFF" d="M562.33,368.62l-1.264,1.828c-3.994-0.984-7.123-2.119-9.383-3.408v1.58h-11.879v-1.738
					c-3.42,1.768-6.488,2.922-9.205,3.461l-1.16-1.846c6.584-1.604,12.064-4.287,16.445-8.047l2.162,0.721
					c-0.236,0.293-0.439,0.498-0.615,0.615C551.32,365.019,556.287,367.298,562.33,368.62z M558.59,378.688h-25.512v-8.24h25.512
					V378.688z M556.498,392.183h-2.162v-1.406h-16.973v1.406h-2.16v-11.648h21.295V392.183z M544.777,376.79v-4.393h-9.539v4.393
					H544.777z M554.336,384.733v-2.268h-16.973v2.268H554.336z M554.336,388.88v-2.303h-16.973v2.303H554.336z M542.441,375.052
					l-1.811,1.266c-1.088-1.102-2.154-1.916-3.197-2.443l1.828-1.053C540.504,373.347,541.563,374.091,542.441,375.052z
					 M550.963,366.671c-1.699-0.891-3.344-2.092-4.938-3.604c-1.699,1.406-3.602,2.607-5.709,3.604H550.963z M556.428,376.79v-4.393
					h-9.488v4.393H556.428z M554.303,373.435c-0.693,1.102-1.734,2.039-3.129,2.813l-1.932-0.967
					c1.533-0.867,2.588-1.734,3.162-2.602L554.303,373.435z"/>
			</g>
		</g>
	</g>
</g>
</svg>
