<?xml version="1.0" encoding="utf-8"?>
<!-- Generator: Adobe Illustrator 16.0.0, SVG Export Plug-In . SVG Version: 6.00 Build 0)  -->
<!DOCTYPE svg PUBLIC "-//W3C//DTD SVG 1.0//EN" "http://www.w3.org/TR/2001/REC-SVG-20010904/DTD/svg10.dtd">
<svg version="1.0" id="Logotypes" xmlns="http://www.w3.org/2000/svg" xmlns:xlink="http://www.w3.org/1999/xlink" x="0px" y="0px"
	 width="1612.258px" height="708.673px" viewBox="0 0 1612.258 708.673" enable-background="new 0 0 1612.258 708.673"
	 xml:space="preserve">
<g>
	<defs>
		<rect id="SVGID_31_" y="0.001" width="1612.258" height="708.672"/>
	</defs>
	<clipPath id="SVGID_2_">
		<use xlink:href="#SVGID_31_"  overflow="visible"/>
	</clipPath>
	<g clip-path="url(#SVGID_2_)">
		<g>
			<g>
				<g>
					<path fill="#A49B4B" d="M158.441,271.573c-9.105,21.527-14.52,44.145-16.17,67.426c3.588-2.922,8.159-4.68,13.137-4.68
						c5.495,0,10.488,2.154,14.217,5.637c7.338-95.592,87.225-170.871,184.701-170.871c7.553,0,13.675-6.123,13.675-13.676
						s-6.122-13.676-13.675-13.676c-28.689,0-56.536,5.625-82.766,16.719c-25.318,10.709-48.053,26.033-67.567,45.549
						C184.475,223.519,169.148,246.253,158.441,271.573z"/>
					<path fill="#A49B4B" d="M339.186,538.97c-94.955-7.682-169.672-86.963-170.102-183.797c0-7.551-6.12-13.676-13.676-13.676
						c-7.553,0-13.676,6.125-13.676,13.676c0.109,28.395,5.723,55.955,16.709,81.928c10.707,25.318,26.033,48.053,45.552,67.568
						c19.515,19.518,42.249,34.844,67.567,45.553c21.256,8.99,43.573,14.387,66.539,16.111c-2.887-3.58-4.627-8.123-4.627-13.068
						C333.473,547.731,335.656,542.708,339.186,538.97z"/>
					<path fill="#A49B4B" d="M502.527,487.413c-2.67-2.672-6.17-4.006-9.67-4.006c-3.498,0-7,1.334-9.672,4.006
						c-33.342,32.291-78.775,52.176-128.859,52.176c-7.553,0-13.676,6.123-13.676,13.676s6.123,13.676,13.676,13.676
						c28.69,0,56.535-5.625,82.764-16.719c24.408-10.32,46.401-24.947,65.438-43.469
						C507.871,501.413,507.871,492.755,502.527,487.413z"/>
					<path fill="#A49B4B" d="M354.33,141.729c-28.689,0-56.54,5.63-82.77,16.72c-25.32,10.71-48.051,26.04-67.57,45.55
						c-19.52,19.521-34.84,42.25-45.551,67.57c-9.1,21.53-14.52,44.15-16.17,67.43c3.59-2.92,8.16-4.68,13.141-4.68
						c5.49,0,10.49,2.15,14.21,5.641c7.34-95.601,87.229-170.87,184.71-170.87c7.55,0,13.67-6.13,13.67-13.681
						C368,147.859,361.88,141.729,354.33,141.729z M339.189,538.97c-94.959-7.681-169.68-86.96-170.109-183.8
						c0-7.551-6.12-13.671-13.67-13.671c-7.551,0-13.68,6.12-13.68,13.671c0.109,28.399,5.729,55.96,16.709,81.93
						c10.711,25.32,26.031,48.05,45.551,67.57c19.52,19.52,42.25,34.84,67.57,45.55c21.26,8.99,43.569,14.39,66.539,16.109
						c-2.89-3.58-4.629-8.119-4.629-13.06C333.471,547.729,335.66,542.71,339.189,538.97z M502.529,487.409
						c-2.67-2.67-6.17-4-9.67-4s-7,1.33-9.67,4c-33.35,32.29-78.779,52.181-128.859,52.181c-7.561,0-13.68,6.12-13.68,13.68
						c0,7.55,6.119,13.67,13.68,13.67c28.689,0,56.529-5.62,82.76-16.72c24.41-10.32,46.4-24.95,65.439-43.471
						C507.87,501.409,507.87,492.76,502.529,487.409z"/>
				</g>
				<g>
					<g>
						<g>
							<path fill="#A49B4B" d="M466.91,241.749c-30.07-30.069-70.051-46.63-112.58-46.63c-42.53,0-82.52,16.561-112.59,46.63
								c-30.07,30.07-46.631,70.061-46.631,112.591c0,42.529,16.561,82.51,46.631,112.58c30.07,30.069,70.06,46.64,112.59,46.64
								c42.529,0,82.51-16.57,112.58-46.64c30.08-30.07,46.63-70.051,46.63-112.58C513.54,311.81,496.99,271.819,466.91,241.749z
								 M264.45,310.46H251.5v87.75h12.95v7.619h-22.33V302.85h22.33V310.46z M282.08,405.829V333.1c0-6.271-0.109-11.94-0.32-17.03
								c-0.22-5.08-0.539-9.49-0.97-13.22h13.2v72.41c0,2.05,0.029,4.479,0.09,7.27s0.15,5.62,0.26,8.49
								c0.11,2.88,0.24,5.63,0.391,8.25c0.149,2.61,0.33,4.8,0.539,6.56H282.08z M351.59,348.609h-12.1v48.79h12.1v8.43h-36.04
								v-8.43h11.91v-48.79h-11.91v-8.43h36.04V348.609z M427.87,398.749c0,7.25-0.64,13.271-1.91,18.051
								c-1.26,4.79-3.03,8.609-5.3,11.46c-2.281,2.85-5.02,4.87-8.21,6.05c-3.2,1.18-6.75,1.77-10.65,1.77c-1.93,0-4-0.31-6.21-0.93
								c-2.211-0.63-4.22-1.49-6.02-2.61l4.18-9.659c0.99,0.729,2.311,1.35,3.959,1.84c1.65,0.49,3.341,0.74,5.051,0.74
								c2.061,0,3.91-0.33,5.54-1c1.63-0.66,3.011-1.83,4.15-3.5c1.14-1.681,2.01-3.971,2.61-6.891c0.6-2.92,0.899-6.63,0.899-11.14
								v-28.32c0-5.149-0.271-9.32-0.81-12.52c-0.53-3.19-1.34-5.681-2.41-7.46c-1.07-1.78-2.42-2.971-4.031-3.58
								c-1.6-0.601-3.479-0.9-5.629-0.9c-2.311,0-4.57,0.55-6.78,1.65c-2.21,1.09-4.25,2.51-6.09,4.239
								c-1.84,1.74-3.47,3.7-4.89,5.891c-1.41,2.189-2.471,4.38-3.16,6.569v37.33h-11.9v-39.58c0-6.35-0.369-11.729-1.1-16.13
								c-0.721-4.399-1.439-7.71-2.12-9.939h11.59c0.25,0.68,0.511,1.569,0.771,2.67c0.26,1.09,0.49,2.24,0.709,3.439
								c0.211,1.2,0.4,2.391,0.58,3.54l0.511,2.9c4.12-4.89,8.26-8.42,12.42-10.59c4.17-2.17,8.5-3.25,13-3.25
								c3.44,0,6.47,0.57,9.11,1.71c2.64,1.14,4.859,2.939,6.66,5.399c1.799,2.471,3.17,5.671,4.09,9.591
								c0.92,3.93,1.39,8.659,1.39,14.199V398.749z M466.54,405.829h-22.331v-7.619h12.941v-87.75h-12.941v-7.61h22.331V405.829z"/>
						</g>
					</g>
				</g>
			</g>
		</g>
		<g>
			<g>
				<path fill="#A49B4B" d="M731.936,379.633h-54.993v-9.129h54.993V379.633z M724.778,476.839h-9.421v-10.006h-21.983v10.006
					h-9.567v-49.37h40.972V476.839z M724.34,398.476l-40.387,0.146v-9.128h40.387V398.476z M724.486,417.61h-40.533v-9.129h40.533
					V417.61z M722.66,361.083l-37.1,0.146v-9.129h37.1V361.083z M715.357,457.85v-21.397h-22.129v21.397H715.357z M809.715,417.756
					l-78.948,0.146v-8.982h19.572l4.236-22.566h-18.258v-8.983h19.719l3.14-16.725h-27.971v-9.129h72.521v8.983h-34.69
					l-2.994,16.725h30.09l-3.141,31.549h16.725V417.756z M797.006,477.131h-9.42v-9.859h-36.955v9.859h-9.566v-49.516h55.941
					V477.131z M787.586,458.289v-21.69h-37.101v21.69H787.586z M786.125,386.207h-21.691l-4.234,22.713h23.662L786.125,386.207z"/>
				<path fill="#A49B4B" d="M974.386,379.633H841.615v-9.129h132.771V379.633z M954.813,398.33h-94.941v-8.836h94.941V398.33z
					 M954.813,417.318h-94.941v-8.837h94.941V417.318z M951.381,477.131h-9.42v-10.298h-68.505v10.298h-9.421v-49.662h87.346
					V477.131z M951.235,360.134l-86.47,0.219v-8.837h86.47V360.134z M941.961,457.85v-21.397h-68.505v21.397H941.961z"/>
				<path fill="#A49B4B" d="M1139.059,450.694h-58.79v10.151c0,10.856-5.77,16.286-17.311,16.286h-9.712l-3.579-8.982h13.584
					c4.771,0,7.158-2.192,7.158-6.573v-10.882h-64.123v-9.129h64.123v-6.281c10.174-3.798,17.453-7.351,21.837-10.662h-55.944
					v-8.399h72.158v7.961c-7.598,5.161-16.994,10.443-28.191,15.848v1.534h58.79V450.694z M1132.925,423.598h-8.766v-15.117
					h-102.023v15.994h-9.569v-24.538h12.562v-44.551c6.912-0.681,14.486-3.968,22.714-9.858l4.82,6.719
					c-4.433,4.09-10.471,7.183-18.112,9.275v6.135h18.696v7.596h-18.696v7.96h18.696v7.448h-18.696v9.276h77.633v-9.276h-17.82
					v-7.303h17.82v-8.544h-17.674v-7.449h17.674v-7.961h-20.668v-8.837h29.943v49.224h11.467V423.598z M1091.515,366.926
					l-5.111,6.28c-2.778-2.677-6.551-5.574-11.32-8.69c-3.943,3.312-8.375,6.354-13.293,9.129l-5.988-5.259
					c4.723-1.946,8.859-4.235,12.416-6.864c-5.942-2.239-10.736-3.798-14.388-4.674l3.726-6.72
					c5.402,1.363,10.832,3.117,16.285,5.258c3.457-3.26,6.354-6.596,8.691-10.005l6.135,4.894c-1.949,3.019-4.48,5.965-7.596,8.837
					C1084.673,361.156,1088.155,363.761,1091.515,366.926z M1092.39,393.509l-6.133,4.82c-3.944-3.019-8.035-5.525-12.27-7.521
					c-2.629,1.996-7.303,4.503-14.021,7.521l-5.551-4.382c6.279-2.969,10.783-5.551,13.511-7.741
					c-2.728-1.703-6.864-3.603-12.416-5.697l5.478-4.6c5.014,1.802,9.299,3.676,12.854,5.622c1.361-0.777,4.113-3.114,8.252-7.011
					l6.718,3.433c-2.48,3.214-5.255,5.868-8.323,7.961C1084.527,387.765,1088.496,390.296,1092.39,393.509z"/>
				<path fill="#A49B4B" d="M1303.585,450.694h-58.792v10.151c0,10.856-5.769,16.286-17.308,16.286h-9.713l-3.578-8.982h13.584
					c4.77,0,7.156-2.192,7.156-6.573v-10.882h-64.122v-9.129h64.122v-6.281c10.176-3.798,17.453-7.351,21.838-10.662h-55.942v-8.399
					h72.155v7.961c-7.596,5.161-16.994,10.443-28.192,15.848v1.534h58.792V450.694z M1297.452,423.598h-8.768v-15.117h-102.023
					v15.994h-9.567v-24.538h12.562v-44.551c6.914-0.681,14.484-3.968,22.713-9.858l4.82,6.719
					c-4.431,4.09-10.469,7.183-18.113,9.275v6.135h18.697v7.596h-18.697v7.96h18.697v7.448h-18.697v9.276h77.633v-9.276h-17.818
					v-7.303h17.818v-8.544h-17.674v-7.449h17.674v-7.961h-20.668v-8.837h29.943v49.224h11.469V423.598z M1258.642,391.871
					l-6.654,6.084c-3.037-4.563-7.383-10.276-11.586-13.824c-6.533,7.279-11.905,11.912-16.105,13.894l-6.584-5.529
					c4.949-2.354,10.315-6.752,16.107-13.203c-6.584-4.101-11.275-6.637-14.076-7.605l5.744-5.94
					c2.334,0.922,6.719,3.315,13.166,7.189c1.916-3.136,3.405-6.568,4.48-10.302h-21.991v-8.639h11.79v-8.896h7.566v8.896h13.992
					v8.639h-2.77c-1.555,5.718-3.646,10.671-6.276,14.863C1250.536,381.366,1255.421,387.263,1258.642,391.871z"/>
				<path fill="#A49B4B" d="M1470.521,379.342l-5.259,7.595c-16.603-4.09-29.6-8.813-38.997-14.168v6.573h-49.371v-7.231
					c-14.217,7.353-26.973,12.149-38.27,14.388l-4.818-7.668c27.361-6.67,50.146-17.819,68.356-33.449l8.983,2.994
					c-0.975,1.218-1.826,2.07-2.557,2.556C1424.753,364.37,1445.396,373.84,1470.521,379.342z M1454.963,421.189h-106.04v-34.252
					h106.04V421.189z M1446.274,477.277h-8.982v-5.843h-70.549v5.843h-8.982v-48.42h88.514V477.277z M1397.562,413.301v-18.258
					h-39.656v18.258H1397.562z M1437.292,446.312v-9.421h-70.549v9.421H1437.292z M1437.292,463.547v-9.567h-70.549v9.567H1437.292z
					 M1387.849,406.071l-7.521,5.259c-4.527-4.575-8.959-7.96-13.293-10.151l7.595-4.382
					C1379.79,398.987,1384.195,402.08,1387.849,406.071z M1423.271,371.236c-7.062-3.7-13.902-8.691-20.524-14.973
					c-7.06,5.843-14.971,10.834-23.733,14.973H1423.271z M1445.983,413.301v-18.258h-39.438v18.258H1445.983z M1437.146,399.352
					c-2.873,4.577-7.207,8.473-13,11.686l-8.034-4.017c6.38-3.603,10.761-7.206,13.146-10.81L1437.146,399.352z"/>
			</g>
			<g>
				<path fill="#A49B4B" d="M732.623,260.248l-2.789,3.211c-8.36-2.94-16.32-8.12-23.881-15.541l0.061,11.73h14.01v25.8h-3.811
					v-3.449h-24.27v3.449h-3.932v-25.8h14.07v-11.73c-4.119,6.3-11.561,11.23-22.32,14.791l-2.819-3.181
					c9.54-2.521,16.36-6.39,20.46-11.61h-17.07v-3.75h21.75v-5.79c-4.779,0.48-10.779,0.83-18,1.05l-2.58-3.63
					c17.061-0.061,30.681-1.489,40.861-4.29l2.88,2.881c-5.66,1.52-12.07,2.689-19.229,3.51v6.27h22.049v3.75l-17.189-0.06
					C717.233,253.378,724.483,257.508,732.623,260.248z M716.213,268.678v-5.28h-24.33v5.28H716.213z M716.213,278.308v-5.939
					h-24.33v5.939H716.213z"/>
				<path fill="#A49B4B" d="M748.225,263.007c-2.521,7.821-5.821,14.232-9.9,19.231l3.51,2.221
					c4.539-5.722,7.881-12.13,10.021-19.23L748.225,263.007z M741.895,246.358l-2.521,3.15c3.98,1.7,7.131,4.139,9.453,7.319
					l2.637-3.569C749.385,250.477,746.195,248.178,741.895,246.358z M744.833,232.918l-2.819,2.88c3.84,1.379,6.87,3.7,9.092,6.959
					l2.818-3.03C751.783,236.627,748.753,234.359,744.833,232.918z"/>
				<path fill="#A49B4B" d="M784.045,272.129v-11.313c2.379,2.241,4.939,4.081,7.682,5.522l2.46-3.332
					c-5.241-2.238-9.323-5.78-12.241-10.619h10.258v-3.689h-9.809v-7.171h7.41v-3.691h-7.41v-6.327h-3.811v6.389h-11.129v-6.389
					h-3.813v6.389h-7.378v3.688h7.44v7.17h-9.781v3.692h9.9c-2.219,4.159-6.23,7.62-12.029,10.378l2.818,3.331
					c1.715-0.995,3.295-2.074,4.74-3.239V279c0,3.439,1.721,5.159,5.16,5.159h19.65c1.602,0,2.865-0.531,3.795-1.589
					c0.932-1.061,1.656-3.15,2.176-6.27l-3.869-1.741c-0.262,2.5-0.641,4.099-1.141,4.799c-0.5,0.701-1.17,1.051-2.01,1.051h-18.301
					c-1.102,0-1.648-0.55-1.648-1.651v-6.628H784.045z M767.455,241.528h11.189v7.171h-11.189V241.528z M767.813,252.388h10.201
					c0.982,2.32,2.461,4.59,4.44,6.812h-19.05C765.564,256.819,767.035,254.547,767.813,252.388z M763.166,262.888h17.069v5.61
					h-17.069V262.888z"/>
				<path fill="#A49B4B" d="M855.387,282.449l-2.791,3.119c-12.5-6.819-20.439-18.31-23.82-34.47
					c-4.18,16.421-12.7,27.91-25.56,34.47l-3.03-3.569c12.74-6.2,20.81-16.48,24.211-30.841h-20.401v-3.87h20.851
					c0.381-3.76,0.539-9.021,0.48-15.78l4.17,0.601c0.1,6.119-0.02,11.16-0.36,15.12h22.741v3.87h-18.932
					C835.346,264.798,842.826,275.249,855.387,282.449z"/>
				<path fill="#A49B4B" d="M916.559,274.648h-24.151v4.171c0,4.459-2.37,6.69-7.11,6.69h-3.99l-1.469-3.69h5.58
					c1.959,0,2.939-0.9,2.939-2.7v-4.471h-26.34v-3.75h26.34v-2.58c4.18-1.56,7.17-3.02,8.971-4.38h-22.98v-3.45h29.64v3.27
					c-3.12,2.121-6.979,4.291-11.58,6.511v0.63h24.151V274.648z M914.039,263.518h-3.601v-6.21h-41.911v6.569h-3.93v-10.079h5.16
					v-18.301c2.838-0.279,5.949-1.63,9.329-4.05l1.979,2.76c-1.82,1.681-4.299,2.95-7.439,3.811v2.52h7.68v3.12h-7.68v3.271h7.68
					v3.06h-7.68v3.811h31.891v-3.811h-7.32v-3h7.32v-3.51h-7.26v-3.061h7.26v-3.27h-8.49v-3.63h12.301v20.22h4.711V263.518z
					 M897.027,240.238l-2.1,2.579c-1.141-1.1-2.69-2.289-4.65-3.569c-1.619,1.36-3.439,2.61-5.46,3.75l-2.46-2.159
					c1.939-0.801,3.639-1.74,5.1-2.82c-2.439-0.92-4.41-1.561-5.91-1.921l1.531-2.76c2.219,0.561,4.449,1.28,6.689,2.16
					c1.42-1.339,2.609-2.71,3.57-4.11l2.52,2.011c-0.801,1.239-1.84,2.45-3.119,3.63
					C894.217,237.867,895.646,238.938,897.027,240.238z M897.388,251.158l-2.521,1.98c-1.619-1.24-3.3-2.271-5.039-3.091
					c-1.082,0.82-3.001,1.851-5.761,3.091l-2.28-1.801c2.58-1.22,4.43-2.279,5.551-3.18c-1.121-0.7-2.82-1.479-5.101-2.34
					l2.249-1.891c2.061,0.74,3.821,1.512,5.281,2.311c0.56-0.32,1.689-1.279,3.391-2.88l2.76,1.41c-1.02,1.319-2.16,2.41-3.42,3.27
					C894.157,248.797,895.787,249.837,897.388,251.158z"/>
				<path fill="#A49B4B" d="M978,274.648h-24.151v4.171c0,4.459-2.37,6.69-7.11,6.69h-3.989l-1.47-3.69h5.58
					c1.959,0,2.939-0.9,2.939-2.7v-4.471h-26.34v-3.75h26.34v-2.58c4.18-1.56,7.17-3.02,8.97-4.38h-22.979v-3.45h29.641v3.27
					c-3.121,2.121-6.98,4.291-11.581,6.511v0.63H978V274.648z M975.479,263.518h-3.6v-6.21h-41.91v6.569h-3.931v-10.079h5.161
					v-18.301c2.839-0.279,5.949-1.63,9.328-4.05l1.981,2.76c-1.82,1.681-4.301,2.95-7.44,3.811v2.52h7.681v3.12h-7.681v3.271h7.681
					v3.06h-7.681v3.811h31.891v-3.811h-7.32v-3h7.32v-3.51h-7.26v-3.061h7.26v-3.27h-8.49v-3.63h12.301v20.22h4.709V263.518z
					 M958.469,240.238l-2.1,2.579c-1.141-1.1-2.691-2.289-4.65-3.569c-1.619,1.36-3.44,2.61-5.459,3.75l-2.461-2.159
					c1.939-0.801,3.64-1.74,5.1-2.82c-2.439-0.92-4.41-1.561-5.91-1.921l1.531-2.76c2.219,0.561,4.449,1.28,6.689,2.16
					c1.42-1.339,2.609-2.71,3.57-4.11l2.52,2.011c-0.801,1.239-1.84,2.45-3.121,3.63
					C955.659,237.867,957.089,238.938,958.469,240.238z M958.83,251.158l-2.521,1.98c-1.619-1.24-3.299-2.271-5.04-3.091
					c-1.079,0.82-3,1.851-5.761,3.091l-2.279-1.801c2.58-1.22,4.43-2.279,5.551-3.18c-1.121-0.7-2.82-1.479-5.102-2.34l2.251-1.891
					c2.06,0.74,3.819,1.512,5.28,2.311c0.56-0.32,1.689-1.279,3.391-2.88l2.76,1.41c-1.021,1.319-2.16,2.41-3.42,3.27
					C955.6,248.797,957.229,249.837,958.83,251.158z"/>
				<path fill="#A49B4B" d="M1039.44,282.508H984.84v-3.869h25.441v-14.071h-18.332v-3.87h18.332v-12.24h-13.592
					c-1.639,4.26-4.379,8.19-8.219,11.79l-3.961-2.07c6.561-6.06,10.209-13.479,10.95-22.26l4.05,1.17
					c-0.16,2.04-0.629,4.561-1.408,7.561h12.117v-13.141h4.053v13.08h21.179v3.87h-21.179v12.181h18.06v3.869h-18.06v14.071h25.169
					V282.508z"/>
				<path fill="#A49B4B" d="M1101.872,245.337l-2.16,3.12c-6.82-1.68-12.16-3.619-16.021-5.819v2.699h-20.28v-2.97
					c-5.84,3.021-11.08,4.99-15.721,5.91l-1.979-3.15c11.238-2.74,20.599-7.32,28.08-13.74l3.689,1.23
					c-0.4,0.5-0.75,0.851-1.049,1.05C1083.071,239.188,1091.552,243.078,1101.872,245.337z M1095.483,262.529h-43.563v-14.071
					h43.563V262.529z M1091.912,285.568h-3.69v-2.399h-28.98v2.399h-3.689v-19.89h36.36V285.568z M1071.901,259.288v-7.5h-16.291
					v7.5H1071.901z M1088.222,272.848v-3.87h-28.98v3.87H1088.222z M1088.222,279.928v-3.93h-28.98v3.93H1088.222z
					 M1067.911,256.318l-3.09,2.16c-1.86-1.879-3.68-3.27-5.462-4.17l3.122-1.8C1064.601,253.408,1066.411,254.678,1067.911,256.318
					z M1082.461,242.008c-2.899-1.52-5.71-3.57-8.432-6.151c-2.897,2.4-6.147,4.451-9.747,6.151H1082.461z M1091.792,259.288v-7.5
					h-16.199v7.5H1091.792z M1088.161,253.558c-1.18,1.88-2.959,3.479-5.34,4.8l-3.299-1.649c2.619-1.48,4.42-2.961,5.398-4.44
					L1088.161,253.558z"/>
				<path fill="#A49B4B" d="M1162.954,281.638l-2.642,3.511c-10.179-3-18.44-7.04-24.778-12.121
					c-5.463,4.461-14.041,8.581-25.742,12.361l-2.939-3.57c11.32-3.14,19.881-6.95,25.682-11.431
					c-5.821-5.5-9.732-12.189-11.73-20.07c-1.08,2.78-2.563,5.42-4.441,7.92l-3.178-2.909c2.52-3.001,4.547-6.291,6.088-9.871
					h-10.32v-3.689h24.063v-10.261h3.869v10.2h24.48v3.69h-10.262c-1.799,10.44-5.938,18.75-12.42,24.93
					C1144.583,274.808,1152.673,278.579,1162.954,281.638z M1147.083,245.398h-23.219c1.597,9.26,5.508,16.71,11.729,22.351
					C1141.673,262.088,1145.503,254.638,1147.083,245.398z"/>
				<path fill="#A49B4B" d="M1223.767,274.648h-24.152v4.171c0,4.459-2.368,6.69-7.109,6.69h-3.99l-1.47-3.69h5.579
					c1.961,0,2.941-0.9,2.941-2.7v-4.471h-26.34v-3.75h26.34v-2.58c4.181-1.56,7.17-3.02,8.969-4.38h-22.98v-3.45h29.641v3.27
					c-3.119,2.121-6.981,4.291-11.58,6.511v0.63h24.152V274.648z M1221.246,263.518h-3.601v-6.21h-41.912v6.569h-3.93v-10.079h5.159
					v-18.301c2.841-0.279,5.952-1.63,9.333-4.05l1.979,2.76c-1.818,1.681-4.301,2.95-7.441,3.811v2.52h7.682v3.12h-7.682v3.271
					h7.682v3.06h-7.682v3.811h31.893v-3.811h-7.322v-3h7.322v-3.51h-7.26v-3.061h7.26v-3.27h-8.49v-3.63h12.299v20.22h4.712V263.518
					z M1204.235,240.238l-2.102,2.579c-1.138-1.1-2.69-2.289-4.648-3.569c-1.621,1.36-3.441,2.61-5.461,3.75l-2.459-2.159
					c1.939-0.801,3.639-1.74,5.1-2.82c-2.441-0.92-4.412-1.561-5.91-1.921l1.531-2.76c2.219,0.561,4.449,1.28,6.688,2.16
					c1.42-1.339,2.61-2.71,3.569-4.11l2.521,2.011c-0.801,1.239-1.842,2.45-3.12,3.63
					C1201.425,237.867,1202.854,238.938,1204.235,240.238z M1204.594,251.158l-2.519,1.98c-1.619-1.24-3.301-2.271-5.041-3.091
					c-1.08,0.82-3,1.851-5.76,3.091l-2.281-1.801c2.582-1.22,4.432-2.279,5.551-3.18c-1.119-0.7-2.82-1.479-5.101-2.34l2.251-1.891
					c2.061,0.74,3.82,1.512,5.28,2.311c0.562-0.32,1.69-1.279,3.39-2.88l2.76,1.41c-1.02,1.319-2.158,2.41-3.418,3.27
					C1201.364,248.797,1202.993,249.837,1204.594,251.158z"/>
				<path fill="#A49B4B" d="M1244.284,251.908c4.041,4.54,6.062,8.971,6.062,13.29c0,2.101-0.544,3.771-1.637,5.01
					c-1.087,1.241-2.613,1.861-4.573,1.861c-1.08,0-2.381-0.131-3.9-0.39l-1.11-3.991c2.142,0.541,3.681,0.811,4.621,0.811
					c0.778,0,1.489-0.301,2.13-0.9s0.961-1.399,0.961-2.4c0-1.499-0.551-3.419-1.65-5.76c-1.102-2.34-2.752-4.57-4.951-6.689
					l5.852-15.031h-8.91v47.792h-3.931v-51.602h16.829v3.81L1244.284,251.908z M1285.657,274.499
					c-0.521,3.24-1.221,5.591-2.102,7.05c-0.879,1.46-2.31,2.19-4.289,2.19h-4.68c-3.121,0-4.68-1.641-4.68-4.92v-15.87h-6.332
					c-0.119,6.439-1.375,11.265-3.765,14.475s-6.823,5.905-13.306,8.086l-2.52-3.451c6.02-1.779,10.15-4.08,12.391-6.9
					c2.24-2.819,3.37-6.869,3.391-12.149h-8.222v-3.931h32.133v3.871h-10.022v14.94c0,0.499,0.16,0.965,0.48,1.395
					c0.32,0.431,0.701,0.645,1.14,0.645h3.812c0.779,0,1.374-0.64,1.785-1.92c0.407-1.279,0.753-2.939,1.035-4.98L1285.657,274.499z
					 M1282.206,247.288l-3.81,0.061v-5.281h-22.621v5.281h-3.87v-9.091h13.17v-6.81h3.932v6.75h13.199V247.288z M1277.167,253.078
					h-20.281v-3.93h20.281V253.078z"/>
				<path fill="#A49B4B" d="M1346.649,274.648h-24.153v4.171c0,4.459-2.371,6.69-7.108,6.69h-3.991l-1.471-3.69h5.581
					c1.961,0,2.941-0.9,2.941-2.7v-4.471h-26.342v-3.75h26.342v-2.58c4.18-1.56,7.17-3.02,8.969-4.38h-22.98v-3.45h29.641v3.27
					c-3.119,2.121-6.981,4.291-11.581,6.511v0.63h24.153V274.648z M1344.128,263.518h-3.601v-6.21h-41.909v6.569h-3.932v-10.079
					h5.162v-18.301c2.838-0.279,5.949-1.63,9.328-4.05l1.98,2.76c-1.82,1.681-4.299,2.95-7.439,3.811v2.52h7.679v3.12h-7.679v3.271
					h7.679v3.06h-7.679v3.811h31.891v-3.811h-7.32v-3h7.32v-3.51h-7.26v-3.061h7.26v-3.27h-8.49v-3.63h12.299v20.22h4.711V263.518z
					 M1327.118,240.238l-2.102,2.579c-1.141-1.1-2.689-2.289-4.65-3.569c-1.62,1.36-3.44,2.61-5.459,3.75l-2.462-2.159
					c1.942-0.801,3.644-1.74,5.103-2.82c-2.441-0.92-4.41-1.561-5.91-1.921l1.529-2.76c2.221,0.561,4.451,1.28,6.689,2.16
					c1.419-1.339,2.611-2.71,3.572-4.11l2.52,2.011c-0.802,1.239-1.842,2.45-3.121,3.63
					C1324.308,237.867,1325.737,238.938,1327.118,240.238z M1327.478,251.158l-2.52,1.98c-1.621-1.24-3.301-2.271-5.039-3.091
					c-1.082,0.82-3,1.851-5.762,3.091l-2.28-1.801c2.581-1.22,4.431-2.279,5.552-3.18c-1.121-0.7-2.822-1.479-5.102-2.34l2.25-1.891
					c2.061,0.74,3.819,1.512,5.279,2.311c0.561-0.32,1.688-1.279,3.39-2.88l2.761,1.41c-1.02,1.319-2.161,2.41-3.42,3.27
					C1324.246,248.797,1325.877,249.837,1327.478,251.158z"/>
				<path fill="#A49B4B" d="M1408.089,282.508h-54.6v-3.869h25.439v-14.071h-18.33v-3.87h18.33v-12.24h-13.59
					c-1.641,4.26-4.381,8.19-8.221,11.79l-3.959-2.07c6.559-6.06,10.209-13.479,10.949-22.26l4.051,1.17
					c-0.16,2.04-0.632,4.561-1.413,7.561h12.125v-13.141h4.048v13.08h21.18v3.87h-21.18v12.181h18.06v3.869h-18.06v14.071h25.17
					V282.508z"/>
				<path fill="#A49B4B" d="M1470.521,245.337l-2.158,3.12c-6.82-1.68-12.162-3.619-16.021-5.819v2.699h-20.282v-2.97
					c-5.839,3.021-11.08,4.99-15.718,5.91l-1.981-3.15c11.241-2.74,20.601-7.32,28.081-13.74l3.688,1.23
					c-0.399,0.5-0.75,0.851-1.049,1.05C1451.72,239.188,1460.202,243.078,1470.521,245.337z M1464.132,262.529h-43.561v-14.071
					h43.561V262.529z M1460.562,285.568h-3.69v-2.399h-28.981v2.399h-3.689v-19.89h36.361V285.568z M1440.55,259.288v-7.5h-16.289
					v7.5H1440.55z M1456.871,272.848v-3.87h-28.981v3.87H1456.871z M1456.871,279.928v-3.93h-28.981v3.93H1456.871z
					 M1436.559,256.318l-3.089,2.16c-1.859-1.879-3.68-3.27-5.46-4.17l3.119-1.8
					C1433.251,253.408,1435.059,254.678,1436.559,256.318z M1451.11,242.008c-2.901-1.52-5.709-3.57-8.431-6.151
					c-2.901,2.4-6.15,4.451-9.75,6.151H1451.11z M1460.44,259.288v-7.5h-16.199v7.5H1460.44z M1456.811,253.558
					c-1.182,1.88-2.96,3.479-5.341,4.8l-3.299-1.649c2.619-1.48,4.42-2.961,5.4-4.44L1456.811,253.558z"/>
			</g>
		</g>
	</g>
</g>
</svg>
