<?xml version="1.0" encoding="utf-8"?>
<!-- Generator: Adobe Illustrator 16.0.0, SVG Export Plug-In . SVG Version: 6.00 Build 0)  -->
<!DOCTYPE svg PUBLIC "-//W3C//DTD SVG 1.0//EN" "http://www.w3.org/TR/2001/REC-SVG-20010904/DTD/svg10.dtd">
<svg version="1.0" id="Logotypes" xmlns="http://www.w3.org/2000/svg" xmlns:xlink="http://www.w3.org/1999/xlink" x="0px" y="0px"
	 width="633.189px" height="575.323px" viewBox="0 0 633.189 575.323" enable-background="new 0 0 633.189 575.323"
	 xml:space="preserve">
<g>
	<defs>
		<rect id="SVGID_61_" width="633.189" height="575.323"/>
	</defs>
	<clipPath id="SVGID_2_">
		<use xlink:href="#SVGID_61_"  overflow="visible"/>
	</clipPath>
	<g clip-path="url(#SVGID_2_)">
		<g>
			<g>
				<g>
					<path fill="#EE202E" d="M77.709,170.747c3.778,0,6.838,3.061,6.838,6.837c-0.001-0.14-0.006-0.278-0.006-0.419
						c0-51.154,41.469-92.623,92.624-92.623c3.777,0,6.838-3.061,6.838-6.838c0-3.776-3.062-6.838-6.838-6.838
						c-14.344,0-28.266,2.813-41.381,8.359C123.125,84.58,111.759,92.242,102.001,102c-9.759,9.759-17.422,21.125-22.775,33.784
						c-5.547,13.115-8.359,27.037-8.359,41.381c0,0.141,0.004,0.279,0.005,0.419C70.871,173.808,73.933,170.747,77.709,170.747z"/>
					<path fill="#46BC96" d="M170.328,276.627c0-3.776,3.061-6.838,6.837-6.838c-51.015,0-92.392-41.242-92.618-92.205
						c0-3.776-3.061-6.837-6.838-6.837c-3.776,0-6.838,3.061-6.838,6.837c0.055,14.196,2.861,27.976,8.354,40.963
						c5.354,12.659,13.017,24.025,22.775,33.783c9.758,9.759,21.124,17.421,33.783,22.775c13.114,5.547,27.037,8.359,41.381,8.359
						C173.389,283.465,170.328,280.403,170.328,276.627z"/>
					<path fill="#00C2F3" d="M251.264,243.702c-2.669-2.671-6.998-2.671-9.67,0c-16.671,16.146-39.387,26.087-64.429,26.087
						c-3.776,0-6.837,3.062-6.837,6.838s3.061,6.838,6.837,6.838c14.346,0,28.268-2.813,41.382-8.359
						c12.203-5.16,23.2-12.474,32.717-21.732C253.936,250.702,253.936,246.373,251.264,243.702z"/>
				</g>
				<g>
					<path fill="#00C2F3" d="M233.457,120.874c-15.035-15.035-35.027-23.315-56.292-23.315c-21.262,0-41.255,8.28-56.291,23.315
						c-15.035,15.036-23.316,35.027-23.316,56.291c0,21.266,8.281,41.255,23.316,56.292c15.036,15.035,35.029,23.317,56.291,23.317
						c21.265,0,41.257-8.282,56.292-23.317c15.036-15.037,23.316-35.026,23.316-56.292
						C256.772,155.901,248.493,135.91,233.457,120.874z"/>
					<path fill="#333E48" d="M121.062,202.91v-51.489h11.167v3.807h-6.473v43.877h6.473v3.806H121.062z"/>
					<path fill="#333E48" d="M233.27,151.421v51.489h-11.164v-3.806h6.469v-43.877h-6.469v-3.807H233.27z"/>
					<path fill="#FFFFFF" d="M146.996,187.625c0,1.028,0.017,2.242,0.048,3.636c0.031,1.395,0.075,2.813,0.13,4.248
						c0.053,1.438,0.116,2.812,0.193,4.12c0.073,1.309,0.165,2.402,0.272,3.281h-6.597v-36.364c0-3.133-0.052-5.969-0.161-8.512
						c-0.106-2.543-0.268-4.748-0.482-6.613h6.597V187.625z"/>
					<path fill="#FFFFFF" d="M175.799,170.085v4.217h-6.051v24.394h6.051v4.216h-18.021v-4.216h5.953v-24.394h-5.953v-4.217H175.799
						z"/>
					<path fill="#FFFFFF" d="M189.315,170.085c0.128,0.345,0.257,0.789,0.386,1.338c0.13,0.546,0.246,1.119,0.354,1.721
						c0.105,0.6,0.202,1.19,0.29,1.77l0.256,1.447c2.061-2.445,4.129-4.209,6.211-5.293c2.081-1.083,4.25-1.625,6.501-1.625
						c1.717,0,3.234,0.284,4.554,0.852c1.319,0.57,2.431,1.471,3.331,2.703c0.9,1.234,1.581,2.834,2.044,4.796
						c0.461,1.964,0.691,4.327,0.691,7.097v14.48c0,3.626-0.317,6.636-0.95,9.027c-0.632,2.393-1.519,4.302-2.654,5.73
						c-1.137,1.424-2.506,2.434-4.104,3.022c-1.598,0.591-3.373,0.886-5.326,0.886c-0.965,0-2-0.155-3.105-0.467
						c-1.104-0.312-2.107-0.745-3.009-1.304l2.093-4.827c0.493,0.365,1.152,0.67,1.979,0.918c0.826,0.246,1.669,0.369,2.525,0.369
						c1.031,0,1.953-0.166,2.77-0.498c0.814-0.333,1.506-0.916,2.074-1.754c0.569-0.837,1.004-1.984,1.305-3.443
						c0.3-1.459,0.449-3.315,0.449-5.567v-14.16c0-2.574-0.134-4.661-0.401-6.259c-0.269-1.599-0.672-2.844-1.208-3.733
						c-0.535-0.89-1.206-1.485-2.012-1.787c-0.804-0.299-1.742-0.45-2.816-0.45c-1.157,0-2.288,0.273-3.393,0.822
						c-1.104,0.547-2.12,1.255-3.043,2.123c-0.922,0.868-1.737,1.85-2.444,2.945c-0.708,1.094-1.234,2.188-1.578,3.281v18.666
						h-5.953v-19.792c0-3.175-0.183-5.862-0.548-8.062c-0.363-2.199-0.719-3.856-1.061-4.973H189.315z"/>
				</g>
			</g>
		</g>
		<g>
			<g>
				<path fill="#333E48" d="M129.762,443.856H97.555v-5.346h32.208V443.856z M125.571,500.786h-5.518v-5.86h-12.875v5.86h-5.603
					v-28.915h23.996V500.786z M125.314,454.892l-23.653,0.085v-5.346h23.653V454.892z M125.399,466.098h-23.739v-5.347h23.739
					V466.098z M124.33,432.992l-21.729,0.085v-5.346h21.729V432.992z M120.053,489.665v-12.532h-12.96v12.532H120.053z
					 M175.314,466.184l-46.237,0.085v-5.261h11.463l2.481-13.217h-10.693v-5.261h11.549l1.839-9.795h-16.382v-5.347h42.473v5.262
					H151.49l-1.753,9.795h17.623l-1.84,18.477h9.795V466.184z M167.872,500.957h-5.518v-5.774h-21.643v5.774h-5.604v-28.999h32.764
					V500.957z M162.354,489.921v-12.702h-21.728v12.702H162.354z M161.499,447.706h-12.703l-2.48,13.302h13.858L161.499,447.706z"/>
				<path fill="#333E48" d="M271.757,443.856h-77.759v-5.346h77.759V443.856z M260.294,454.806H204.69v-5.175h55.604V454.806z
					 M260.294,465.927H204.69v-5.176h55.604V465.927z M258.284,500.957h-5.518v-6.031h-40.121v6.031h-5.517v-29.085h51.156V500.957z
					 M258.199,432.437l-50.643,0.127v-5.175h50.643V432.437z M252.767,489.665v-12.532h-40.121v12.532H252.767z"/>
				<path fill="#333E48" d="M368.201,485.474h-34.432v5.945c0,6.358-3.379,9.538-10.138,9.538h-5.688l-2.096-5.261h7.956
					c2.794,0,4.192-1.284,4.192-3.85v-6.373H290.44v-5.347h37.555v-3.679c5.958-2.224,10.222-4.305,12.789-6.244h-32.764v-4.919
					h42.261v4.662c-4.45,3.022-9.953,6.116-16.511,9.281v0.898h34.432V485.474z M364.608,469.604h-5.134v-8.854h-59.751v9.367
					h-5.604v-14.371h7.356v-26.092c4.048-0.398,8.484-2.324,13.303-5.774l2.823,3.936c-2.597,2.396-6.132,4.207-10.608,5.432v3.593
					h10.949v4.448h-10.949v4.662h10.949v4.362h-10.949v5.433h45.467v-5.433h-10.437v-4.277h10.437v-5.004h-10.351v-4.362h10.351
					v-4.663h-12.105v-5.175h17.537v28.829h6.716V469.604z M340.355,436.414l-2.994,3.678c-1.626-1.567-3.836-3.265-6.63-5.09
					c-2.31,1.939-4.905,3.722-7.785,5.347l-3.507-3.08c2.766-1.14,5.189-2.48,7.272-4.02c-3.48-1.312-6.288-2.224-8.427-2.737
					l2.183-3.936c3.164,0.798,6.344,1.825,9.538,3.079c2.025-1.909,3.721-3.863,5.09-5.859l3.593,2.865
					c-1.142,1.769-2.624,3.494-4.448,5.176C336.349,433.034,338.388,434.561,340.355,436.414z M340.868,451.982l-3.592,2.823
					c-2.31-1.768-4.706-3.236-7.186-4.405c-1.54,1.169-4.277,2.637-8.212,4.405l-3.251-2.566c3.678-1.738,6.315-3.251,7.913-4.534
					c-1.598-0.998-4.021-2.11-7.272-3.337l3.208-2.693c2.937,1.056,5.446,2.152,7.528,3.293c0.797-0.455,2.409-1.824,4.833-4.106
					l3.935,2.01c-1.454,1.882-3.078,3.437-4.876,4.663C336.264,448.618,338.587,450.101,340.868,451.982z"/>
				<path fill="#333E48" d="M464.558,485.474h-34.432v5.945c0,6.358-3.379,9.538-10.137,9.538H414.3l-2.096-5.261h7.956
					c2.793,0,4.191-1.284,4.191-3.85v-6.373h-37.554v-5.347h37.554v-3.679c5.959-2.224,10.222-4.305,12.79-6.244h-32.764v-4.919
					h42.26v4.662c-4.449,3.022-9.953,6.116-16.511,9.281v0.898h34.432V485.474z M460.966,469.604h-5.135v-8.854H396.08v9.367h-5.603
					v-14.371h7.356v-26.092c4.05-0.398,8.483-2.324,13.302-5.774l2.823,3.936c-2.594,2.396-6.131,4.207-10.608,5.432v3.593h10.95
					v4.448h-10.95v4.662h10.95v4.362h-10.95v5.433h45.467v-5.433h-10.436v-4.277h10.436v-5.004h-10.351v-4.362h10.351v-4.663
					h-12.104v-5.175h17.537v28.829h6.717V469.604z M438.236,451.023l-3.897,3.563c-1.779-2.673-4.324-6.019-6.786-8.096
					c-3.826,4.263-6.973,6.976-9.432,8.137l-3.856-3.239c2.899-1.378,6.042-3.955,9.434-7.732c-3.856-2.402-6.604-3.887-8.244-4.455
					l3.364-3.479c1.367,0.54,3.935,1.942,7.711,4.21c1.122-1.836,1.995-3.847,2.624-6.033h-12.879v-5.06h6.905v-5.21h4.431v5.21
					h8.195v5.06h-1.622c-0.911,3.349-2.135,6.25-3.675,8.705C433.489,444.87,436.35,448.324,438.236,451.023z"/>
				<path fill="#333E48" d="M562.326,443.686l-3.079,4.448c-9.725-2.395-17.337-5.161-22.84-8.297v3.85h-28.915v-4.235
					c-8.326,4.307-15.797,7.115-22.413,8.427l-2.822-4.491c16.024-3.906,29.369-10.437,40.035-19.59l5.261,1.753
					c-0.571,0.713-1.07,1.212-1.498,1.497C535.521,434.917,547.612,440.463,562.326,443.686z M553.215,468.193H491.11v-20.06h62.104
					V468.193z M548.126,501.042h-5.261v-3.422h-41.318v3.422h-5.261v-28.357h51.839V501.042z M519.597,463.574v-10.693h-23.226
					v10.693H519.597z M542.865,482.907v-5.518h-41.318v5.518H542.865z M542.865,493.002v-5.604h-41.318v5.604H542.865z
					 M513.908,459.339l-4.405,3.08c-2.651-2.679-5.247-4.662-7.785-5.945l4.448-2.566
					C509.188,455.19,511.769,457.002,513.908,459.339z M534.653,438.938c-4.135-2.167-8.142-5.09-12.02-8.769
					c-4.135,3.422-8.768,6.345-13.9,8.769H534.653z M547.956,463.574v-10.693h-23.097v10.693H547.956z M542.779,455.404
					c-1.683,2.681-4.221,4.963-7.613,6.844l-4.705-2.352c3.736-2.11,6.302-4.22,7.698-6.331L542.779,455.404z"/>
			</g>
			<g>
				<path fill="#333E48" d="M130.165,373.936l-1.634,1.881c-4.896-1.722-9.558-4.756-13.986-9.102l0.035,6.87h8.206v15.109h-2.231
					v-2.02H106.34v2.02h-2.302v-15.109h8.24v-6.87c-2.413,3.689-6.771,6.577-13.072,8.662l-1.651-1.863
					c5.587-1.476,9.582-3.742,11.983-6.799H99.54v-2.196h12.738v-3.392c-2.8,0.282-6.313,0.486-10.542,0.615l-1.511-2.126
					c9.991-0.036,17.968-0.872,23.931-2.513l1.687,1.688c-3.315,0.89-7.069,1.575-11.262,2.055v3.672h12.914v2.196l-10.068-0.035
					C121.152,369.913,125.398,372.332,130.165,373.936z M120.555,378.873v-3.092h-14.25v3.092H120.555z M120.555,384.513v-3.478
					h-14.25v3.478H120.555z"/>
				<path fill="#333E48" d="M139.303,375.552c-1.477,4.581-3.41,8.336-5.798,11.264l2.055,1.3c2.658-3.351,4.616-7.104,5.869-11.263
					L139.303,375.552z M135.595,365.801l-1.477,1.845c2.331,0.996,4.176,2.424,5.536,4.287l1.545-2.09
					C139.981,368.213,138.113,366.867,135.595,365.801z M137.316,357.93l-1.651,1.688c2.249,0.808,4.024,2.167,5.324,4.075
					l1.651-1.774C141.387,360.103,139.612,358.773,137.316,357.93z"/>
				<path fill="#333E48" d="M160.281,380.895v-6.625c1.394,1.313,2.894,2.39,4.499,3.234l1.441-1.952
					c-3.069-1.311-5.46-3.385-7.169-6.219h6.008v-2.161h-5.745v-4.2h4.339v-2.162h-4.339v-3.706h-2.232v3.742h-6.518v-3.742h-2.232
					v3.742h-4.321v2.161h4.357v4.199h-5.728v2.163h5.798c-1.299,2.436-3.648,4.463-7.045,6.078l1.651,1.951
					c1.005-0.583,1.93-1.215,2.776-1.897v9.418c0,2.015,1.008,3.021,3.022,3.021h11.508c0.938,0,1.679-0.311,2.223-0.931
					c0.545-0.621,0.971-1.845,1.274-3.671l-2.267-1.02c-0.152,1.464-0.374,2.4-0.667,2.811c-0.293,0.411-0.686,0.615-1.177,0.615
					h-10.719c-0.645,0-0.965-0.322-0.965-0.967v-3.882H160.281z M150.565,362.972h6.554v4.2h-6.554V362.972z M150.775,369.333h5.974
					c0.575,1.358,1.441,2.688,2.601,3.989h-11.157C149.458,371.928,150.319,370.597,150.775,369.333z M148.053,375.482h9.997v3.286
					h-9.997V375.482z"/>
				<path fill="#333E48" d="M202.063,386.938l-1.634,1.827c-7.322-3.994-11.972-10.723-13.951-20.188
					c-2.449,9.617-7.438,16.346-14.97,20.188l-1.775-2.09c7.461-3.632,12.188-9.652,14.179-18.063h-11.948v-2.267h12.211
					c0.223-2.202,0.316-5.283,0.281-9.242l2.443,0.352c0.058,3.584-0.012,6.536-0.211,8.855h13.318v2.267h-11.087
					C190.326,376.602,194.708,382.721,202.063,386.938z"/>
				<path fill="#333E48" d="M237.89,382.37h-14.145v2.442c0,2.611-1.388,3.918-4.164,3.918h-2.337l-0.861-2.161h3.268
					c1.147,0,1.721-0.527,1.721-1.582v-2.618h-15.426v-2.197h15.426v-1.511c2.448-0.913,4.2-1.769,5.254-2.565h-13.459v-2.021h17.36
					v1.915c-1.827,1.242-4.088,2.513-6.782,3.813v0.369h14.145V382.37z M236.414,375.852h-2.108v-3.638h-24.546v3.848h-2.302v-5.902
					h3.022V359.44c1.663-0.163,3.484-0.955,5.464-2.372l1.16,1.617c-1.066,0.984-2.519,1.728-4.357,2.231v1.476h4.498v1.827h-4.498
					v1.915h4.498v1.792h-4.498v2.232h18.678v-2.232h-4.287v-1.757h4.287v-2.056h-4.252v-1.792h4.252v-1.915h-4.973v-2.126h7.204
					v11.842h2.759V375.852z M226.451,362.217l-1.23,1.51c-0.667-0.644-1.575-1.34-2.723-2.09c-0.948,0.797-2.015,1.529-3.198,2.196
					l-1.44-1.265c1.136-0.469,2.131-1.019,2.986-1.652c-1.429-0.539-2.583-0.914-3.461-1.125l0.896-1.616
					c1.3,0.328,2.606,0.75,3.918,1.265c0.831-0.784,1.528-1.587,2.091-2.407l1.476,1.178c-0.469,0.726-1.078,1.435-1.828,2.126
					C224.805,360.828,225.643,361.456,226.451,362.217z M226.662,368.612l-1.476,1.16c-0.948-0.726-1.932-1.33-2.951-1.81
					c-0.633,0.48-1.757,1.084-3.374,1.81l-1.335-1.054c1.511-0.715,2.594-1.335,3.251-1.863c-0.657-0.41-1.652-0.866-2.987-1.37
					l1.317-1.108c1.206,0.434,2.238,0.885,3.093,1.353c0.328-0.188,0.989-0.749,1.985-1.687l1.616,0.826
					c-0.597,0.772-1.265,1.411-2.003,1.915C224.77,367.229,225.725,367.839,226.662,368.612z"/>
				<path fill="#333E48" d="M273.874,382.37h-14.144v2.442c0,2.611-1.388,3.918-4.164,3.918h-2.337l-0.861-2.161h3.268
					c1.147,0,1.722-0.527,1.722-1.582v-2.618h-15.427v-2.197h15.427v-1.511c2.448-0.913,4.199-1.769,5.253-2.565h-13.458v-2.021
					h17.359v1.915c-1.828,1.242-4.088,2.513-6.782,3.813v0.369h14.144V382.37z M272.397,375.852h-2.108v-3.638h-24.545v3.848h-2.302
					v-5.902h3.022V359.44c1.663-0.163,3.484-0.955,5.464-2.372l1.16,1.617c-1.066,0.984-2.519,1.728-4.357,2.231v1.476h4.498v1.827
					h-4.498v1.915h4.498v1.792h-4.498v2.232h18.677v-2.232h-4.288v-1.757h4.288v-2.056h-4.252v-1.792h4.252v-1.915h-4.972v-2.126
					h7.203v11.842h2.759V375.852z M262.436,362.217l-1.23,1.51c-0.668-0.644-1.576-1.34-2.724-2.09
					c-0.949,0.797-2.015,1.529-3.198,2.196l-1.441-1.265c1.136-0.469,2.132-1.019,2.987-1.652c-1.429-0.539-2.583-0.914-3.461-1.125
					l0.896-1.616c1.3,0.328,2.606,0.75,3.918,1.265c0.832-0.784,1.528-1.587,2.091-2.407l1.476,1.178
					c-0.469,0.726-1.078,1.435-1.828,2.126C260.79,360.828,261.627,361.456,262.436,362.217z M262.646,368.612l-1.477,1.16
					c-0.948-0.726-1.932-1.33-2.952-1.81c-0.632,0.48-1.757,1.084-3.374,1.81l-1.335-1.054c1.511-0.715,2.594-1.335,3.25-1.863
					c-0.656-0.41-1.651-0.866-2.987-1.37l1.318-1.108c1.207,0.434,2.237,0.885,3.092,1.353c0.328-0.188,0.99-0.749,1.986-1.687
					l1.616,0.826c-0.598,0.772-1.265,1.411-2.003,1.915C260.754,367.229,261.709,367.839,262.646,368.612z"/>
				<path fill="#333E48" d="M309.857,386.974h-31.978v-2.267h14.9v-8.241h-10.735v-2.267h10.735v-7.168h-7.96
					c-0.96,2.495-2.564,4.796-4.813,6.905l-2.319-1.212c3.842-3.549,5.979-7.896,6.413-13.037l2.372,0.685
					c-0.094,1.195-0.369,2.671-0.825,4.428h7.097v-7.696h2.373v7.661h12.404v2.267h-12.404v7.134h10.577v2.266h-10.577v8.24h14.741
					V386.974z"/>
				<path fill="#333E48" d="M346.421,365.203l-1.265,1.828c-3.994-0.984-7.122-2.12-9.382-3.408v1.581h-11.878v-1.739
					c-3.42,1.769-6.489,2.923-9.208,3.462l-1.158-1.846c6.582-1.604,12.064-4.287,16.446-8.047l2.161,0.721
					c-0.234,0.293-0.439,0.498-0.614,0.614C335.411,361.602,340.377,363.88,346.421,365.203z M342.68,375.271h-25.513v-8.241h25.513
					V375.271z M340.589,388.765h-2.162v-1.405h-16.973v1.405h-2.161v-11.648h21.296V388.765z M328.869,373.374v-4.393h-9.541v4.393
					H328.869z M338.427,381.315v-2.267h-16.973v2.267H338.427z M338.427,385.462v-2.302h-16.973v2.302H338.427z M326.532,371.635
					l-1.81,1.265c-1.089-1.101-2.155-1.915-3.198-2.442l1.828-1.054C324.593,369.93,325.653,370.674,326.532,371.635z
					 M335.054,363.253c-1.699-0.89-3.345-2.091-4.938-3.602c-1.698,1.405-3.601,2.606-5.709,3.602H335.054z M340.518,373.374v-4.393
					h-9.488v4.393H340.518z M338.392,370.019c-0.691,1.101-1.733,2.037-3.127,2.811l-1.932-0.966
					c1.534-0.867,2.589-1.734,3.162-2.601L338.392,370.019z"/>
				<path fill="#333E48" d="M382.195,386.463l-1.547,2.057c-5.962-1.757-10.8-4.123-14.512-7.099
					c-3.2,2.612-8.223,5.025-15.077,7.239l-1.721-2.091c6.63-1.839,11.644-4.07,15.041-6.694c-3.408-3.222-5.7-7.139-6.87-11.755
					c-0.632,1.628-1.5,3.175-2.601,4.639l-1.861-1.704c1.476-1.758,2.663-3.685,3.565-5.781h-6.044v-2.161h14.093v-6.009h2.266
					v5.974h14.337v2.162h-6.01c-1.053,6.115-3.478,10.981-7.274,14.6C371.436,382.463,376.174,384.671,382.195,386.463z
					 M372.9,365.239h-13.598c0.936,5.423,3.226,9.787,6.869,13.089C369.731,375.014,371.975,370.65,372.9,365.239z"/>
				<path fill="#333E48" d="M417.811,382.37h-14.145v2.442c0,2.611-1.387,3.918-4.164,3.918h-2.337l-0.86-2.161h3.267
					c1.148,0,1.723-0.527,1.723-1.582v-2.618h-15.426v-2.197h15.426v-1.511c2.448-0.913,4.199-1.769,5.252-2.565h-13.458v-2.021
					h17.359v1.915c-1.827,1.242-4.088,2.513-6.782,3.813v0.369h14.145V382.37z M416.335,375.852h-2.109v-3.638H389.68v3.848h-2.302
					v-5.902h3.022V359.44c1.663-0.163,3.485-0.955,5.465-2.372l1.159,1.617c-1.065,0.984-2.519,1.728-4.359,2.231v1.476h4.499v1.827
					h-4.499v1.915h4.499v1.792h-4.499v2.232h18.679v-2.232h-4.289v-1.757h4.289v-2.056h-4.252v-1.792h4.252v-1.915h-4.973v-2.126
					h7.203v11.842h2.76V375.852z M406.372,362.217l-1.231,1.51c-0.667-0.644-1.575-1.34-2.722-2.09
					c-0.949,0.797-2.016,1.529-3.198,2.196l-1.44-1.265c1.135-0.469,2.131-1.019,2.987-1.652c-1.43-0.539-2.584-0.914-3.461-1.125
					l0.897-1.616c1.299,0.328,2.605,0.75,3.917,1.265c0.832-0.784,1.528-1.587,2.09-2.407l1.477,1.178
					c-0.469,0.726-1.078,1.435-1.826,2.126C404.726,360.828,405.563,361.456,406.372,362.217z M406.583,368.612l-1.476,1.16
					c-0.948-0.726-1.933-1.33-2.952-1.81c-0.633,0.48-1.757,1.084-3.374,1.81l-1.336-1.054c1.512-0.715,2.595-1.335,3.251-1.863
					c-0.656-0.41-1.652-0.866-2.987-1.37l1.318-1.108c1.207,0.434,2.237,0.885,3.093,1.353c0.329-0.188,0.99-0.749,1.985-1.687
					l1.616,0.826c-0.597,0.772-1.264,1.411-2.001,1.915C404.69,367.229,405.645,367.839,406.583,368.612z"/>
				<path fill="#333E48" d="M429.827,369.052c2.367,2.659,3.551,5.253,3.551,7.783c0,1.23-0.319,2.208-0.958,2.934
					c-0.637,0.727-1.531,1.09-2.679,1.09c-0.632,0-1.395-0.077-2.284-0.229l-0.65-2.337c1.254,0.317,2.155,0.475,2.706,0.475
					c0.456,0,0.873-0.177,1.248-0.527c0.375-0.352,0.563-0.82,0.563-1.406c0-0.878-0.322-2.002-0.967-3.374
					c-0.645-1.37-1.612-2.676-2.9-3.917l3.427-8.804h-5.218v27.99h-2.302V358.51h9.856v2.23L429.827,369.052z M454.058,382.282
					c-0.305,1.897-0.715,3.274-1.231,4.128c-0.515,0.855-1.353,1.284-2.512,1.284h-2.741c-1.828,0-2.741-0.961-2.741-2.881v-9.295
					h-3.708c-0.07,3.771-0.805,6.598-2.205,8.478c-1.4,1.88-3.997,3.458-7.793,4.735l-1.476-2.021
					c3.525-1.042,5.945-2.39,7.257-4.042c1.312-1.651,1.973-4.023,1.985-7.115h-4.814v-2.302h18.819v2.267h-5.871v8.75
					c0,0.293,0.094,0.565,0.282,0.817c0.187,0.252,0.41,0.377,0.668,0.377h2.232c0.456,0,0.805-0.375,1.046-1.125
					c0.239-0.75,0.441-1.721,0.606-2.917L454.058,382.282z M452.037,366.346l-2.231,0.035v-3.093h-13.249v3.093h-2.267v-5.324h7.713
					v-3.988h2.303v3.954h7.73V366.346z M449.086,369.736h-11.878v-2.301h11.878V369.736z"/>
				<path fill="#333E48" d="M489.779,382.37h-14.146v2.442c0,2.611-1.389,3.918-4.164,3.918h-2.337l-0.862-2.161h3.269
					c1.148,0,1.723-0.527,1.723-1.582v-2.618h-15.428v-2.197h15.428v-1.511c2.448-0.913,4.199-1.769,5.253-2.565h-13.459v-2.021
					h17.359v1.915c-1.827,1.242-4.088,2.513-6.782,3.813v0.369h14.146V382.37z M488.302,375.852h-2.108v-3.638h-24.545v3.848h-2.303
					v-5.902h3.023V359.44c1.662-0.163,3.484-0.955,5.463-2.372l1.16,1.617c-1.066,0.984-2.518,1.728-4.357,2.231v1.476h4.498v1.827
					h-4.498v1.915h4.498v1.792h-4.498v2.232h18.677v-2.232h-4.287v-1.757h4.287v-2.056h-4.252v-1.792h4.252v-1.915h-4.972v-2.126
					h7.203v11.842h2.759V375.852z M478.34,362.217l-1.231,1.51c-0.668-0.644-1.575-1.34-2.724-2.09
					c-0.948,0.797-2.014,1.529-3.197,2.196l-1.441-1.265c1.137-0.469,2.133-1.019,2.988-1.652c-1.43-0.539-2.583-0.914-3.461-1.125
					l0.896-1.616c1.301,0.328,2.607,0.75,3.918,1.265c0.832-0.784,1.529-1.587,2.092-2.407l1.476,1.178
					c-0.47,0.726-1.079,1.435-1.828,2.126C476.694,360.828,477.532,361.456,478.34,362.217z M478.551,368.612l-1.476,1.16
					c-0.949-0.726-1.933-1.33-2.951-1.81c-0.634,0.48-1.757,1.084-3.375,1.81l-1.335-1.054c1.511-0.715,2.594-1.335,3.251-1.863
					c-0.657-0.41-1.653-0.866-2.988-1.37l1.318-1.108c1.207,0.434,2.237,0.885,3.092,1.353c0.328-0.188,0.989-0.749,1.986-1.687
					l1.616,0.826c-0.597,0.772-1.265,1.411-2.003,1.915C476.659,367.229,477.614,367.839,478.551,368.612z"/>
				<path fill="#333E48" d="M525.762,386.974h-31.977v-2.267h14.899v-8.241h-10.735v-2.267h10.735v-7.168h-7.959
					c-0.96,2.495-2.565,4.796-4.814,6.905l-2.318-1.212c3.841-3.549,5.979-7.896,6.413-13.037l2.372,0.685
					c-0.094,1.195-0.369,2.671-0.827,4.428h7.1v-7.696h2.371v7.661h12.405v2.267h-12.405v7.134h10.578v2.266h-10.578v8.24h14.742
					V386.974z"/>
				<path fill="#333E48" d="M562.326,365.203l-1.265,1.828c-3.994-0.984-7.122-2.12-9.383-3.408v1.581h-11.878v-1.739
					c-3.42,1.769-6.489,2.923-9.206,3.462l-1.16-1.846c6.583-1.604,12.064-4.287,16.446-8.047l2.161,0.721
					c-0.235,0.293-0.439,0.498-0.614,0.614C551.315,361.602,556.283,363.88,562.326,365.203z M558.584,375.271h-25.512v-8.241
					h25.512V375.271z M556.494,388.765h-2.162v-1.405h-16.973v1.405h-2.161v-11.648h21.296V388.765z M544.773,373.374v-4.393h-9.54
					v4.393H544.773z M554.332,381.315v-2.267h-16.973v2.267H554.332z M554.332,385.462v-2.302h-16.973v2.302H554.332z
					 M542.437,371.635l-1.81,1.265c-1.089-1.101-2.155-1.915-3.197-2.442l1.827-1.054
					C540.499,369.93,541.558,370.674,542.437,371.635z M550.958,363.253c-1.698-0.89-3.343-2.091-4.937-3.602
					c-1.7,1.405-3.603,2.606-5.711,3.602H550.958z M556.423,373.374v-4.393h-9.487v4.393H556.423z M554.297,370.019
					c-0.692,1.101-1.735,2.037-3.128,2.811l-1.932-0.966c1.534-0.867,2.588-1.734,3.163-2.601L554.297,370.019z"/>
			</g>
		</g>
	</g>
	<rect x="-12.431" y="-12.465" clip-path="url(#SVGID_2_)" fill="none" width="658.051" height="600.219"/>
</g>
</svg>
