<?xml version="1.0" encoding="utf-8"?>
<!-- Generator: Adobe Illustrator 16.0.0, SVG Export Plug-In . SVG Version: 6.00 Build 0)  -->
<!DOCTYPE svg PUBLIC "-//W3C//DTD SVG 1.0//EN" "http://www.w3.org/TR/2001/REC-SVG-20010904/DTD/svg10.dtd">
<svg version="1.0" id="Logotypes" xmlns="http://www.w3.org/2000/svg" xmlns:xlink="http://www.w3.org/1999/xlink" x="0px" y="0px"
	 width="655.267px" height="708.668px" viewBox="0 0 655.267 708.668" enable-background="new 0 0 655.267 708.668"
	 xml:space="preserve">
<g>
	<defs>
		<rect id="SVGID_119_" width="655.267" height="708.668"/>
	</defs>
	<clipPath id="SVGID_2_">
		<use xlink:href="#SVGID_119_"  overflow="visible"/>
	</clipPath>
	<g clip-path="url(#SVGID_2_)">
		<g>
			<g>
				<path fill="#EE202E" d="M155.407,341.498c7.556,0,13.677,6.123,13.677,13.675c-0.001-0.279-0.011-0.558-0.011-0.837
					c0-102.311,82.936-185.248,185.248-185.248c7.552,0,13.675-6.121,13.675-13.676c0-7.551-6.123-13.675-13.675-13.675
					c-28.688,0-56.534,5.626-82.764,16.719c-25.317,10.709-48.051,26.033-67.565,45.549c-19.518,19.518-34.844,42.25-45.552,67.569
					c-11.093,26.229-16.718,54.072-16.718,82.762c0,0.279,0.008,0.558,0.01,0.837C141.732,347.621,147.854,341.498,155.407,341.498z
					"/>
				<path fill="#46BC96" d="M340.645,553.259c0-7.553,6.123-13.675,13.676-13.675c-102.031,0-184.786-82.486-185.237-184.411
					c0-7.552-6.121-13.675-13.677-13.675c-7.553,0-13.675,6.123-13.675,13.675c0.108,28.394,5.723,55.952,16.708,81.925
					c10.708,25.318,26.034,48.052,45.552,67.566c19.515,19.519,42.248,34.843,67.565,45.553
					c26.229,11.094,54.075,16.718,82.764,16.718C346.768,566.935,340.645,560.812,340.645,553.259z"/>
				<path fill="#00C2F3" d="M502.518,487.408c-5.34-5.341-13.998-5.341-19.341,0c-33.341,32.291-78.773,52.176-128.856,52.176
					c-7.553,0-13.676,6.122-13.676,13.675s6.123,13.676,13.676,13.676c28.689,0,56.533-5.624,82.763-16.718
					c24.406-10.322,46.399-24.948,65.435-43.467C507.861,501.409,507.861,492.75,502.518,487.408z"/>
			</g>
			<g>
				<path fill="#00C2F3" d="M466.904,241.753c-30.07-30.071-70.054-46.631-112.583-46.631c-42.527,0-82.511,16.56-112.582,46.631
					c-30.071,30.072-46.634,70.056-46.634,112.583c0,42.529,16.563,82.509,46.634,112.582
					c30.071,30.071,70.055,46.635,112.582,46.635c42.529,0,82.513-16.563,112.583-46.635
					c30.072-30.073,46.631-70.053,46.631-112.582C513.535,311.809,496.976,271.825,466.904,241.753z"/>
				<path fill="#333E48" d="M242.113,405.825V302.848h22.334v7.613h-12.945v87.752h12.945v7.612H242.113z"/>
				<path fill="#333E48" d="M466.529,302.848v102.978H444.2v-7.612h12.939v-87.752H444.2v-7.613H466.529z"/>
				<path fill="#FFFFFF" d="M293.982,375.255c0,2.057,0.032,4.484,0.096,7.271c0.063,2.79,0.151,5.624,0.259,8.496
					c0.106,2.875,0.234,5.623,0.387,8.24c0.147,2.617,0.331,4.805,0.546,6.563h-13.193v-72.729c0-6.264-0.106-11.938-0.322-17.021
					c-0.213-5.087-0.536-9.496-0.966-13.227h13.194V375.255z"/>
				<path fill="#FFFFFF" d="M351.587,340.176v8.434h-12.102v48.786h12.102v8.431h-36.041v-8.431h11.906v-48.786h-11.906v-8.434
					H351.587z"/>
				<path fill="#FFFFFF" d="M378.621,340.176c0.257,0.688,0.515,1.577,0.771,2.674c0.261,1.093,0.492,2.239,0.71,3.441
					c0.211,1.201,0.404,2.382,0.58,3.541l0.512,2.893c4.121-4.89,8.259-8.417,12.422-10.585c4.163-2.166,8.5-3.25,13.002-3.25
					c3.433,0,6.47,0.568,9.107,1.704c2.64,1.14,4.861,2.941,6.662,5.406c1.8,2.469,3.162,5.667,4.088,9.591
					c0.922,3.928,1.383,8.655,1.383,14.194v28.959c0,7.253-0.635,13.272-1.9,18.055c-1.263,4.786-3.036,8.604-5.309,11.461
					c-2.273,2.849-5.011,4.867-8.207,6.046c-3.195,1.181-6.746,1.771-10.651,1.771c-1.931,0-4.001-0.312-6.211-0.934
					c-2.209-0.624-4.215-1.491-6.018-2.607l4.184-9.654c0.987,0.729,2.306,1.34,3.959,1.836c1.651,0.491,3.336,0.738,5.049,0.738
					c2.063,0,3.908-0.332,5.54-0.997c1.63-0.665,3.012-1.832,4.148-3.507c1.139-1.674,2.008-3.97,2.608-6.887
					c0.601-2.919,0.9-6.631,0.9-11.135v-28.32c0-5.148-0.268-9.322-0.805-12.519c-0.535-3.196-1.343-5.687-2.415-7.466
					c-1.071-1.78-2.412-2.971-4.024-3.574c-1.606-0.598-3.483-0.899-5.629-0.899c-2.316,0-4.577,0.547-6.787,1.644
					c-2.211,1.093-4.242,2.51-6.087,4.246s-3.475,3.699-4.889,5.89c-1.416,2.188-2.469,4.375-3.157,6.564v37.33h-11.904v-39.583
					c0-6.35-0.366-11.725-1.097-16.123c-0.728-4.398-1.438-7.713-2.123-9.944H378.621z"/>
			</g>
		</g>
	</g>
</g>
</svg>
