<?xml version="1.0" encoding="utf-8"?>
<!-- Generator: Adobe Illustrator 16.0.0, SVG Export Plug-In . SVG Version: 6.00 Build 0)  -->
<!DOCTYPE svg PUBLIC "-//W3C//DTD SVG 1.0//EN" "http://www.w3.org/TR/2001/REC-SVG-20010904/DTD/svg10.dtd">
<svg version="1.0" id="Logotypes" xmlns="http://www.w3.org/2000/svg" xmlns:xlink="http://www.w3.org/1999/xlink" x="0px" y="0px"
	 width="2893.975px" height="708.661px" viewBox="0 0 2893.975 708.661" enable-background="new 0 0 2893.975 708.661"
	 xml:space="preserve">
<g>
	<defs>
		<rect id="SVGID_99_" width="2893.975" height="708.661"/>
	</defs>
	<clipPath id="SVGID_2_">
		<use xlink:href="#SVGID_99_"  overflow="visible"/>
	</clipPath>
	<g clip-path="url(#SVGID_2_)">
		<g>
			<g>
				<g>
					<path fill="#5A5C66" d="M1090.674,341.492c7.556,0,13.677,6.123,13.677,13.676c0-0.279-0.01-0.559-0.01-0.838
						c0-102.311,82.935-185.248,185.248-185.248c7.554,0,13.674-6.121,13.674-13.676c0-7.551-6.12-13.674-13.674-13.674
						c-28.688,0-56.535,5.625-82.765,16.719c-25.318,10.709-48.05,26.033-67.563,45.549c-19.519,19.518-34.844,42.25-45.553,67.568
						c-11.094,26.229-16.72,54.072-16.72,82.762c0,0.279,0.011,0.559,0.011,0.838
						C1076.999,347.615,1083.121,341.492,1090.674,341.492z"/>
					<path fill="#858591" d="M1275.913,553.254c0-7.553,6.123-13.676,13.676-13.676c-102.03,0-184.785-82.486-185.238-184.41
						c0-7.553-6.121-13.676-13.677-13.676c-7.553,0-13.675,6.123-13.675,13.676c0.108,28.393,5.726,55.951,16.709,81.924
						c10.709,25.318,26.034,48.053,45.553,67.566c19.514,19.52,42.245,34.844,67.563,45.553
						c26.229,11.094,54.077,16.719,82.765,16.719C1282.036,566.93,1275.913,560.807,1275.913,553.254z"/>
					<path fill="#9F9EA7" d="M1437.786,487.402c-5.34-5.34-13.997-5.34-19.34,0c-33.342,32.291-78.775,52.176-128.857,52.176
						c-7.553,0-13.676,6.123-13.676,13.676s6.123,13.676,13.676,13.676c28.689,0,56.532-5.625,82.762-16.719
						c24.407-10.322,46.4-24.947,65.436-43.467C1443.13,501.404,1443.13,492.744,1437.786,487.402z"/>
				</g>
				<g>
					<path fill="#9F9EA7" d="M1402.171,241.748c-30.068-30.072-70.053-46.631-112.582-46.631
						c-42.527,0-82.512,16.559-112.583,46.631c-30.069,30.072-46.634,70.055-46.634,112.582c0,42.529,16.564,82.51,46.634,112.582
						c30.071,30.072,70.056,46.635,112.583,46.635c42.529,0,82.514-16.563,112.582-46.635
						c30.071-30.072,46.631-70.053,46.631-112.582C1448.802,311.803,1432.242,271.82,1402.171,241.748z"/>
					<path fill="#333E48" d="M1177.382,405.82V302.842h22.332v7.613h-12.943v87.752h12.943v7.613H1177.382z"/>
					<path fill="#333E48" d="M1401.798,302.842V405.82h-22.33v-7.613h12.939v-87.752h-12.939v-7.613H1401.798z"/>
					<path fill="#FFFFFF" d="M1229.251,375.25c0,2.057,0.031,4.484,0.094,7.271c0.063,2.789,0.152,5.623,0.26,8.496
						c0.107,2.875,0.233,5.623,0.387,8.238c0.149,2.619,0.332,4.807,0.545,6.564h-13.191v-72.73c0-6.264-0.107-11.938-0.322-17.021
						c-0.214-5.086-0.537-9.496-0.967-13.227h13.195V375.25z"/>
					<path fill="#FFFFFF" d="M1286.854,340.17v8.434h-12.101v48.787h12.101v8.43h-36.041v-8.43h11.906v-48.787h-11.906v-8.434
						H1286.854z"/>
					<path fill="#FFFFFF" d="M1313.888,340.17c0.258,0.689,0.516,1.578,0.771,2.674c0.263,1.094,0.493,2.24,0.71,3.441
						c0.213,1.201,0.406,2.383,0.58,3.541l0.511,2.893c4.122-4.889,8.261-8.418,12.423-10.584c4.164-2.166,8.5-3.25,13.004-3.25
						c3.432,0,6.469,0.566,9.105,1.703c2.641,1.141,4.861,2.941,6.664,5.406c1.799,2.469,3.162,5.668,4.085,9.592
						c0.925,3.928,1.385,8.654,1.385,14.193v28.959c0,7.254-0.634,13.273-1.9,18.055c-1.263,4.787-3.037,8.604-5.308,11.461
						c-2.274,2.85-5.013,4.867-8.208,6.047c-3.196,1.182-6.747,1.771-10.65,1.771c-1.931,0-4-0.313-6.212-0.934
						c-2.209-0.625-4.215-1.492-6.018-2.607l4.184-9.654c0.986,0.729,2.307,1.34,3.959,1.836c1.649,0.49,3.337,0.738,5.049,0.738
						c2.063,0,3.908-0.332,5.538-0.998c1.632-0.664,3.014-1.832,4.15-3.506c1.138-1.674,2.007-3.971,2.608-6.887
						c0.6-2.92,0.9-6.631,0.9-11.135v-28.32c0-5.148-0.268-9.322-0.805-12.52c-0.535-3.195-1.344-5.686-2.416-7.465
						c-1.071-1.781-2.412-2.971-4.022-3.574c-1.606-0.598-3.483-0.9-5.63-0.9c-2.316,0-4.576,0.547-6.786,1.645
						c-2.212,1.092-4.243,2.51-6.087,4.246c-1.847,1.736-3.475,3.697-4.891,5.889c-1.414,2.189-2.467,4.375-3.156,6.564v37.33
						h-11.904v-39.582c0-6.35-0.365-11.725-1.096-16.123c-0.729-4.398-1.439-7.713-2.125-9.945H1313.888z"/>
				</g>
			</g>
		</g>
		<text transform="matrix(1.0154 0 0 1 1550.2627 556.8496)" fill="#333E48" font-family="'FiraSans-Bold'" font-size="40">Session 2017–2018</text>
		
			<text transform="matrix(1.0154 0 0 1 455.0293 566.9297)" fill="#333E48" font-family="'NotoSansCJKtc-Medium-B5pc-H'" font-size="40" letter-spacing="2.955">二零一七至二零一八年度</text>
		<g>
			<g>
				<path fill="#333E48" d="M196.725,379.627h-54.992v-9.129h54.992V379.627z M189.568,476.832h-9.421v-10.006h-21.983v10.006
					h-9.567v-49.369h40.972V476.832z M189.13,398.469l-40.387,0.146v-9.129h40.387V398.469z M189.276,417.604h-40.533v-9.129h40.533
					V417.604z M187.45,361.076l-37.1,0.146v-9.129h37.1V361.076z M180.147,457.844v-21.398h-22.129v21.398H180.147z M274.504,417.75
					l-78.947,0.145v-8.982h19.572l4.236-22.566h-18.258v-8.982h19.719l3.14-16.725h-27.971v-9.129h72.521v8.982h-34.691
					l-2.993,16.725h30.09l-3.141,31.549h16.724V417.75z M261.796,477.125h-9.421v-9.859h-36.954v9.859h-9.566v-49.516h55.941
					V477.125z M252.375,458.281v-21.689h-37.1v21.689H252.375z M250.915,386.199h-21.691l-4.235,22.713h23.663L250.915,386.199z"/>
				<path fill="#333E48" d="M439.176,379.627H306.404v-9.129h132.771V379.627z M419.604,398.322H324.66v-8.836h94.943V398.322z
					 M419.604,417.311H324.66v-8.836h94.943V417.311z M416.17,477.125h-9.42v-10.299h-68.504v10.299h-9.422v-49.662h87.346V477.125z
					 M416.025,360.127l-86.471,0.219v-8.836h86.471V360.127z M406.75,457.844v-21.398h-68.504v21.398H406.75z"/>
				<path fill="#333E48" d="M603.849,450.688h-58.79v10.15c0,10.857-5.771,16.287-17.312,16.287h-9.713l-3.578-8.982h13.584
					c4.771,0,7.158-2.193,7.158-6.574v-10.881h-64.123v-9.129h64.123v-6.281c10.174-3.799,17.453-7.352,21.836-10.662H501.09v-8.4
					h72.159v7.961c-7.598,5.162-16.995,10.443-28.19,15.848v1.535h58.79V450.688z M597.714,423.592h-8.766v-15.117H486.925v15.994
					h-9.569V399.93h12.562v-44.551c6.912-0.68,14.486-3.967,22.715-9.857l4.82,6.719c-4.434,4.09-10.471,7.182-18.114,9.275v6.135
					h18.696v7.596h-18.696v7.959h18.696v7.449h-18.696v9.275h77.634v-9.275h-17.82v-7.303h17.82v-8.545h-17.674v-7.449h17.674
					v-7.961h-20.668v-8.836h29.943v49.223h11.467V423.592z M556.304,366.92l-5.112,6.279c-2.776-2.676-6.549-5.574-11.319-8.689
					c-3.943,3.311-8.375,6.354-13.293,9.129l-5.989-5.26c4.724-1.945,8.86-4.234,12.416-6.863c-5.94-2.24-10.735-3.799-14.388-4.674
					l3.727-6.721c5.402,1.363,10.832,3.117,16.285,5.258c3.457-3.26,6.354-6.596,8.69-10.004l6.136,4.893
					c-1.95,3.02-4.481,5.965-7.596,8.838C549.462,361.148,552.944,363.754,556.304,366.92z M557.179,393.502l-6.133,4.82
					c-3.943-3.018-8.035-5.525-12.27-7.521c-2.629,1.996-7.303,4.504-14.022,7.521l-5.55-4.381
					c6.279-2.969,10.783-5.551,13.512-7.742c-2.729-1.703-6.865-3.602-12.416-5.697l5.477-4.6c5.013,1.803,9.299,3.676,12.854,5.623
					c1.361-0.777,4.113-3.115,8.252-7.012l6.719,3.434c-2.482,3.213-5.256,5.867-8.324,7.961
					C549.317,387.758,553.284,390.289,557.179,393.502z"/>
				<path fill="#333E48" d="M768.373,450.688h-58.791v10.15c0,10.857-5.77,16.287-17.309,16.287h-9.713l-3.578-8.982h13.584
					c4.77,0,7.156-2.193,7.156-6.574v-10.881h-64.121v-9.129h64.121v-6.281c10.176-3.799,17.453-7.352,21.838-10.662h-55.943v-8.4
					h72.156v7.961c-7.596,5.162-16.994,10.443-28.191,15.848v1.535h58.791V450.688z M762.24,423.592h-8.768v-15.117H651.449v15.994
					h-9.566V399.93h12.561v-44.551c6.914-0.68,14.484-3.967,22.713-9.857l4.82,6.719c-4.43,4.09-10.469,7.182-18.113,9.275v6.135
					h18.697v7.596h-18.697v7.959h18.697v7.449h-18.697v9.275h77.633v-9.275h-17.818v-7.303h17.818v-8.545h-17.674v-7.449h17.674
					v-7.961h-20.668v-8.836h29.943v49.223h11.469V423.592z M723.43,391.863l-6.654,6.084c-3.037-4.563-7.383-10.275-11.586-13.824
					c-6.533,7.279-11.906,11.912-16.105,13.895l-6.584-5.529c4.949-2.355,10.316-6.752,16.107-13.203
					c-6.584-4.102-11.275-6.637-14.076-7.605l5.744-5.941c2.334,0.922,6.719,3.316,13.166,7.189
					c1.916-3.135,3.406-6.568,4.48-10.301h-21.99v-8.639h11.789v-8.896h7.566v8.896h13.992v8.639h-2.77
					c-1.555,5.717-3.646,10.67-6.275,14.863C715.324,381.359,720.209,387.256,723.43,391.863z"/>
				<path fill="#333E48" d="M935.309,379.336l-5.258,7.594c-16.604-4.09-29.602-8.813-38.998-14.168v6.574h-49.371v-7.232
					c-14.217,7.354-26.973,12.15-38.27,14.389l-4.818-7.668c27.361-6.67,50.146-17.82,68.357-33.449l8.982,2.994
					c-0.975,1.217-1.826,2.07-2.557,2.555C889.541,364.363,910.186,373.834,935.309,379.336z M919.752,421.182H813.711V386.93
					h106.041V421.182z M911.063,477.27h-8.982v-5.842h-70.549v5.842h-8.982v-48.42h88.514V477.27z M862.35,413.295v-18.258h-39.656
					v18.258H862.35z M902.08,446.305v-9.42h-70.549v9.42H902.08z M902.08,463.541v-9.568h-70.549v9.568H902.08z M852.637,406.064
					l-7.521,5.258c-4.527-4.574-8.959-7.959-13.293-10.15l7.596-4.383C844.578,398.98,848.984,402.072,852.637,406.064z
					 M888.059,371.229c-7.061-3.699-13.902-8.691-20.523-14.973c-7.061,5.844-14.971,10.834-23.734,14.973H888.059z
					 M910.771,413.295v-18.258h-39.438v18.258H910.771z M901.934,399.346c-2.873,4.576-7.207,8.473-13,11.686l-8.033-4.018
					c6.379-3.602,10.76-7.205,13.145-10.809L901.934,399.346z"/>
			</g>
			<g>
				<path fill="#333E48" d="M197.413,260.24l-2.789,3.211c-8.36-2.939-16.32-8.119-23.881-15.541l0.061,11.73h14.01v25.801h-3.811
					v-3.449h-24.27v3.449h-3.932v-25.801h14.07v-11.73c-4.119,6.301-11.561,11.23-22.32,14.791l-2.819-3.18
					c9.539-2.521,16.36-6.391,20.459-11.611h-17.07v-3.75h21.751v-5.789c-4.779,0.48-10.779,0.83-18,1.049l-2.58-3.629
					c17.061-0.061,30.681-1.49,40.861-4.291l2.88,2.881c-5.66,1.52-12.07,2.689-19.229,3.51v6.27h22.05v3.75l-17.19-0.059
					C182.023,253.371,189.273,257.502,197.413,260.24z M181.003,268.672v-5.281h-24.33v5.281H181.003z M181.003,278.301v-5.939
					h-24.33v5.939H181.003z"/>
				<path fill="#333E48" d="M213.015,263c-2.521,7.822-5.821,14.232-9.9,19.232l3.51,2.221c4.539-5.723,7.881-12.131,10.021-19.23
					L213.015,263z M206.685,246.352l-2.521,3.15c3.98,1.699,7.131,4.139,9.453,7.318l2.637-3.568
					C214.174,250.471,210.985,248.172,206.685,246.352z M209.623,232.912l-2.819,2.879c3.84,1.379,6.87,3.701,9.092,6.959
					l2.818-3.029C216.572,236.621,213.543,234.352,209.623,232.912z"/>
				<path fill="#333E48" d="M248.835,272.123v-11.313c2.379,2.24,4.939,4.08,7.682,5.521l2.46-3.332
					c-5.241-2.238-9.323-5.779-12.241-10.619h10.258v-3.689h-9.808v-7.17h7.409v-3.691h-7.409v-6.328h-3.813v6.389h-11.128v-6.389
					h-3.813v6.389h-7.378v3.689h7.44v7.17h-9.781v3.691h9.9c-2.219,4.16-6.23,7.621-12.029,10.379l2.818,3.33
					c1.715-0.994,3.295-2.074,4.74-3.238v16.08c0,3.439,1.721,5.16,5.16,5.16h19.65c1.602,0,2.866-0.531,3.795-1.59
					c0.932-1.061,1.655-3.15,2.176-6.27l-3.869-1.74c-0.262,2.5-0.64,4.098-1.141,4.799c-0.5,0.701-1.17,1.051-2.011,1.051h-18.3
					c-1.102,0-1.648-0.551-1.648-1.652v-6.627H248.835z M232.245,241.521h11.189v7.17h-11.189V241.521z M232.604,252.381h10.2
					c0.982,2.32,2.461,4.59,4.44,6.813h-19.05C230.354,256.813,231.824,254.541,232.604,252.381z M227.956,262.881h17.069v5.611
					h-17.069V262.881z"/>
				<path fill="#333E48" d="M320.176,282.441l-2.789,3.119c-12.502-6.818-20.441-18.309-23.822-34.469
					c-4.18,16.42-12.699,27.91-25.559,34.469l-3.031-3.568c12.74-6.201,20.811-16.48,24.211-30.842h-20.4v-3.869h20.85
					c0.381-3.76,0.539-9.021,0.48-15.781l4.17,0.602c0.1,6.119-0.02,11.16-0.359,15.119h22.74v3.871h-18.93
					C300.135,264.791,307.615,275.242,320.176,282.441z"/>
				<path fill="#333E48" d="M381.348,274.641h-24.15v4.172c0,4.459-2.371,6.689-7.111,6.689h-3.99l-1.469-3.689h5.58
					c1.959,0,2.939-0.9,2.939-2.701v-4.471h-26.34v-3.75h26.34v-2.58c4.18-1.559,7.17-3.02,8.971-4.379h-22.98v-3.451h29.641v3.27
					c-3.121,2.121-6.98,4.291-11.58,6.512v0.629h24.15V274.641z M378.828,263.512h-3.6v-6.211h-41.912v6.57h-3.93v-10.08h5.16
					V235.49c2.84-0.279,5.949-1.629,9.33-4.049l1.979,2.76c-1.818,1.68-4.299,2.949-7.439,3.811v2.52h7.68v3.119h-7.68v3.271h7.68
					v3.059h-7.68v3.811h31.891v-3.811h-7.32v-3h7.32v-3.51h-7.26v-3.061h7.26v-3.27h-8.49v-3.629h12.301v20.219h4.711V263.512z
					 M361.816,240.23l-2.1,2.58c-1.141-1.1-2.689-2.289-4.65-3.57c-1.619,1.361-3.439,2.611-5.459,3.75l-2.461-2.158
					c1.939-0.801,3.641-1.74,5.1-2.82c-2.439-0.92-4.41-1.561-5.91-1.922l1.531-2.76c2.219,0.561,4.449,1.281,6.689,2.16
					c1.42-1.338,2.609-2.709,3.57-4.109l2.52,2.01c-0.801,1.24-1.84,2.451-3.119,3.631
					C359.006,237.859,360.436,238.932,361.816,240.23z M362.178,251.15l-2.521,1.98c-1.619-1.24-3.299-2.27-5.039-3.09
					c-1.08,0.82-3,1.85-5.76,3.09l-2.281-1.801c2.58-1.219,4.43-2.279,5.551-3.18c-1.121-0.699-2.82-1.479-5.1-2.34l2.248-1.891
					c2.061,0.74,3.822,1.512,5.281,2.311c0.561-0.32,1.689-1.279,3.391-2.879l2.76,1.41c-1.02,1.318-2.16,2.41-3.42,3.27
					C358.947,248.791,360.576,249.83,362.178,251.15z"/>
				<path fill="#333E48" d="M442.789,274.641h-24.15v4.172c0,4.459-2.371,6.689-7.111,6.689h-3.988l-1.471-3.689h5.58
					c1.959,0,2.939-0.9,2.939-2.701v-4.471h-26.34v-3.75h26.34v-2.58c4.18-1.559,7.17-3.02,8.971-4.379h-22.98v-3.451h29.641v3.27
					c-3.121,2.121-6.98,4.291-11.58,6.512v0.629h24.15V274.641z M440.27,263.512h-3.602v-6.211h-41.91v6.57h-3.93v-10.08h5.16
					V235.49c2.84-0.279,5.949-1.629,9.33-4.049l1.98,2.76c-1.82,1.68-4.301,2.949-7.441,3.811v2.52h7.682v3.119h-7.682v3.271h7.682
					v3.059h-7.682v3.811h31.891v-3.811h-7.32v-3h7.32v-3.51h-7.26v-3.061h7.26v-3.27h-8.49v-3.629h12.301v20.219h4.711V263.512z
					 M423.258,240.23l-2.1,2.58c-1.141-1.1-2.691-2.289-4.65-3.57c-1.619,1.361-3.439,2.611-5.459,3.75l-2.461-2.158
					c1.939-0.801,3.641-1.74,5.1-2.82c-2.439-0.92-4.41-1.561-5.91-1.922l1.531-2.76c2.219,0.561,4.449,1.281,6.689,2.16
					c1.42-1.338,2.609-2.709,3.57-4.109l2.52,2.01c-0.801,1.24-1.84,2.451-3.119,3.631
					C420.449,237.859,421.879,238.932,423.258,240.23z M423.619,251.15l-2.521,1.98c-1.619-1.24-3.299-2.27-5.039-3.09
					c-1.08,0.82-3,1.85-5.762,3.09l-2.279-1.801c2.58-1.219,4.43-2.279,5.551-3.18c-1.121-0.699-2.82-1.479-5.1-2.34l2.25-1.891
					c2.059,0.74,3.818,1.512,5.279,2.311c0.561-0.32,1.689-1.279,3.391-2.879l2.76,1.41c-1.02,1.318-2.16,2.41-3.42,3.27
					C420.389,248.791,422.018,249.83,423.619,251.15z"/>
				<path fill="#333E48" d="M504.229,282.502h-54.601v-3.869h25.441v-14.072h-18.332v-3.869h18.332v-12.24h-13.592
					c-1.639,4.26-4.379,8.189-8.219,11.789l-3.961-2.07c6.561-6.059,10.209-13.479,10.95-22.26l4.05,1.17
					c-0.16,2.041-0.629,4.561-1.408,7.561h12.117V231.5h4.053v13.08h21.179v3.871h-21.179v12.18h18.06v3.869h-18.06v14.072h25.169
					V282.502z"/>
				<path fill="#333E48" d="M566.661,245.33l-2.16,3.121c-6.82-1.68-12.16-3.619-16.02-5.82v2.699H528.2v-2.969
					c-5.84,3.02-11.08,4.99-15.721,5.91l-1.979-3.15c11.238-2.74,20.6-7.32,28.08-13.74l3.689,1.23c-0.4,0.5-0.75,0.85-1.049,1.049
					C547.86,239.182,556.341,243.07,566.661,245.33z M560.271,262.521H516.71v-14.07h43.562V262.521z M556.702,285.561h-3.691
					v-2.398h-28.98v2.398h-3.689v-19.889h36.361V285.561z M536.69,259.281v-7.5h-16.291v7.5H536.69z M553.011,272.842v-3.871h-28.98
					v3.871H553.011z M553.011,279.922v-3.93h-28.98v3.93H553.011z M532.7,256.311l-3.09,2.16c-1.859-1.879-3.68-3.27-5.461-4.17
					l3.121-1.799C529.39,253.4,531.2,254.672,532.7,256.311z M547.251,242.002c-2.9-1.52-5.711-3.57-8.432-6.152
					c-2.898,2.4-6.148,4.451-9.748,6.152H547.251z M556.581,259.281v-7.5h-16.199v7.5H556.581z M552.95,253.551
					c-1.18,1.881-2.959,3.48-5.34,4.801l-3.299-1.65c2.619-1.48,4.42-2.961,5.398-4.439L552.95,253.551z"/>
				<path fill="#333E48" d="M627.743,281.631l-2.641,3.512c-10.181-3-18.441-7.041-24.779-12.121
					c-5.463,4.461-14.041,8.58-25.742,12.361l-2.938-3.57c11.319-3.141,19.88-6.951,25.681-11.432
					c-5.82-5.5-9.733-12.189-11.731-20.07c-1.079,2.781-2.562,5.42-4.44,7.92l-3.178-2.908c2.52-3.002,4.547-6.291,6.088-9.871
					H573.74v-3.689h24.063V231.5h3.869v10.201h24.48v3.689h-10.261c-1.801,10.441-5.938,18.75-12.421,24.93
					C609.372,274.801,617.462,278.572,627.743,281.631z M611.872,245.391h-23.219c1.598,9.26,5.508,16.711,11.729,22.352
					C606.462,262.082,610.292,254.631,611.872,245.391z"/>
				<path fill="#333E48" d="M688.555,274.641h-24.152v4.172c0,4.459-2.369,6.689-7.109,6.689h-3.99l-1.469-3.689h5.578
					c1.961,0,2.941-0.9,2.941-2.701v-4.471h-26.339v-3.75h26.339v-2.58c4.18-1.559,7.17-3.02,8.969-4.379h-22.98v-3.451h29.641v3.27
					c-3.119,2.121-6.98,4.291-11.58,6.512v0.629h24.152V274.641z M686.035,263.512h-3.602v-6.211h-41.912v6.57h-3.93v-10.08h5.16
					V235.49c2.84-0.279,5.951-1.629,9.332-4.049l1.979,2.76c-1.818,1.68-4.301,2.949-7.441,3.811v2.52h7.682v3.119h-7.682v3.271
					h7.682v3.059h-7.682v3.811h31.893v-3.811h-7.322v-3h7.322v-3.51h-7.26v-3.061h7.26v-3.27h-8.49v-3.629h12.299v20.219h4.713
					V263.512z M669.023,240.23l-2.102,2.58c-1.139-1.1-2.689-2.289-4.648-3.57c-1.621,1.361-3.441,2.611-5.461,3.75l-2.459-2.158
					c1.939-0.801,3.639-1.74,5.1-2.82c-2.441-0.92-4.412-1.561-5.91-1.922l1.531-2.76c2.219,0.561,4.449,1.281,6.689,2.16
					c1.42-1.338,2.609-2.709,3.568-4.109l2.521,2.01c-0.801,1.24-1.842,2.451-3.119,3.631
					C666.213,237.859,667.643,238.932,669.023,240.23z M669.383,251.15l-2.52,1.98c-1.619-1.24-3.301-2.27-5.041-3.09
					c-1.08,0.82-3,1.85-5.76,3.09l-2.281-1.801c2.582-1.219,4.432-2.279,5.551-3.18c-1.119-0.699-2.82-1.479-5.1-2.34l2.25-1.891
					c2.061,0.74,3.82,1.512,5.281,2.311c0.561-0.32,1.689-1.279,3.389-2.879l2.76,1.41c-1.02,1.318-2.158,2.41-3.418,3.27
					C666.152,248.791,667.781,249.83,669.383,251.15z"/>
				<path fill="#333E48" d="M709.072,251.9c4.041,4.541,6.063,8.971,6.063,13.291c0,2.1-0.545,3.77-1.637,5.01
					c-1.088,1.24-2.613,1.861-4.574,1.861c-1.08,0-2.381-0.131-3.9-0.391l-1.109-3.99c2.141,0.541,3.68,0.811,4.619,0.811
					c0.779,0,1.49-0.301,2.131-0.9s0.961-1.4,0.961-2.4c0-1.5-0.551-3.42-1.65-5.76c-1.102-2.34-2.752-4.57-4.951-6.689
					l5.852-15.031h-8.91v47.791h-3.932V233.9h16.83v3.811L709.072,251.9z M750.445,274.492c-0.521,3.24-1.221,5.59-2.102,7.049
					c-0.879,1.461-2.311,2.191-4.289,2.191h-4.68c-3.121,0-4.68-1.641-4.68-4.92v-15.871h-6.332
					c-0.119,6.439-1.375,11.266-3.764,14.475c-2.391,3.211-6.824,5.906-13.307,8.086l-2.52-3.451c6.02-1.779,10.15-4.08,12.391-6.9
					c2.24-2.818,3.369-6.869,3.391-12.148h-8.221v-3.932h32.133v3.871h-10.023v14.941c0,0.498,0.16,0.965,0.48,1.395
					s0.701,0.645,1.141,0.645h3.811c0.779,0,1.375-0.641,1.785-1.92c0.408-1.279,0.754-2.939,1.035-4.98L750.445,274.492z
					 M746.994,247.281l-3.809,0.061v-5.281h-22.621v5.281h-3.871v-9.092h13.17v-6.809h3.932v6.75h13.199V247.281z M741.955,253.07
					h-20.281v-3.93h20.281V253.07z"/>
				<path fill="#333E48" d="M811.438,274.641h-24.152v4.172c0,4.459-2.371,6.689-7.109,6.689h-3.99l-1.471-3.689h5.58
					c1.961,0,2.941-0.9,2.941-2.701v-4.471h-26.342v-3.75h26.342v-2.58c4.18-1.559,7.17-3.02,8.969-4.379h-22.98v-3.451h29.641v3.27
					c-3.119,2.121-6.98,4.291-11.58,6.512v0.629h24.152V274.641z M808.916,263.512h-3.6v-6.211h-41.91v6.57h-3.932v-10.08h5.162
					V235.49c2.838-0.279,5.949-1.629,9.328-4.049l1.98,2.76c-1.82,1.68-4.299,2.949-7.439,3.811v2.52h7.68v3.119h-7.68v3.271h7.68
					v3.059h-7.68v3.811h31.891v-3.811h-7.32v-3h7.32v-3.51h-7.26v-3.061h7.26v-3.27h-8.49v-3.629h12.299v20.219h4.711V263.512z
					 M791.906,240.23l-2.102,2.58c-1.141-1.1-2.689-2.289-4.65-3.57c-1.619,1.361-3.439,2.611-5.459,3.75l-2.461-2.158
					c1.941-0.801,3.643-1.74,5.102-2.82c-2.441-0.92-4.41-1.561-5.91-1.922l1.529-2.76c2.221,0.561,4.451,1.281,6.689,2.16
					c1.42-1.338,2.611-2.709,3.572-4.109l2.52,2.01c-0.801,1.24-1.842,2.451-3.121,3.631
					C789.096,237.859,790.525,238.932,791.906,240.23z M792.266,251.15l-2.52,1.98c-1.621-1.24-3.301-2.27-5.039-3.09
					c-1.082,0.82-3,1.85-5.762,3.09l-2.279-1.801c2.58-1.219,4.43-2.279,5.551-3.18c-1.121-0.699-2.822-1.479-5.102-2.34l2.25-1.891
					c2.061,0.74,3.82,1.512,5.279,2.311c0.561-0.32,1.689-1.279,3.391-2.879l2.76,1.41c-1.02,1.318-2.16,2.41-3.42,3.27
					C789.035,248.791,790.666,249.83,792.266,251.15z"/>
				<path fill="#333E48" d="M872.877,282.502h-54.6v-3.869h25.439v-14.072h-18.33v-3.869h18.33v-12.24h-13.59
					c-1.641,4.26-4.381,8.189-8.221,11.789l-3.959-2.07c6.559-6.059,10.209-13.479,10.949-22.26l4.051,1.17
					c-0.16,2.041-0.631,4.561-1.412,7.561h12.123V231.5h4.049v13.08h21.18v3.871h-21.18v12.18h18.061v3.869h-18.061v14.072h25.17
					V282.502z"/>
				<path fill="#333E48" d="M935.309,245.33l-2.158,3.121c-6.82-1.68-12.162-3.619-16.021-5.82v2.699h-20.281v-2.969
					c-5.84,3.02-11.08,4.99-15.719,5.91l-1.98-3.15c11.24-2.74,20.6-7.32,28.08-13.74l3.689,1.23c-0.4,0.5-0.75,0.85-1.049,1.049
					C916.508,239.182,924.99,243.07,935.309,245.33z M928.92,262.521h-43.561v-14.07h43.561V262.521z M925.35,285.561h-3.691v-2.398
					h-28.98v2.398h-3.689v-19.889h36.361V285.561z M905.338,259.281v-7.5h-16.289v7.5H905.338z M921.658,272.842v-3.871h-28.98
					v3.871H921.658z M921.658,279.922v-3.93h-28.98v3.93H921.658z M901.348,256.311l-3.09,2.16c-1.859-1.879-3.68-3.27-5.459-4.17
					l3.119-1.799C898.039,253.4,899.848,254.672,901.348,256.311z M915.898,242.002c-2.9-1.52-5.709-3.57-8.43-6.152
					c-2.902,2.4-6.15,4.451-9.75,6.152H915.898z M925.229,259.281v-7.5h-16.199v7.5H925.229z M921.6,253.551
					c-1.182,1.881-2.961,3.48-5.342,4.801l-3.299-1.65c2.619-1.48,4.42-2.961,5.4-4.439L921.6,253.551z"/>
			</g>
		</g>
		<g>
			<path fill="#333E48" d="M1561.922,336.834V236.362h12.091v89.819h42.751v10.652H1561.922z"/>
			<path fill="#333E48" d="M1638.643,245.143c-2.498,0-4.297-0.598-5.398-1.799c-1.104-1.199-1.656-2.757-1.656-4.679v-1.871
				c0-1.919,0.553-3.478,1.656-4.679c1.102-1.198,2.9-1.799,5.398-1.799c2.493,0,4.293,0.601,5.396,1.799
				c1.104,1.201,1.655,2.76,1.655,4.679v1.871c0,1.922-0.552,3.479-1.655,4.679C1642.936,244.545,1641.136,245.143,1638.643,245.143
				z M1632.884,262.561h11.516v74.273h-11.516V262.561z"/>
			<path fill="#333E48" d="M1668.869,336.834v-74.273h11.516v11.953h0.576c1.821-4.179,4.39-7.506,7.7-9.975
				c3.312-2.47,7.747-3.707,13.313-3.707c7.678,0,13.748,2.472,18.21,7.413c4.462,4.943,6.693,11.926,6.693,20.944v47.645h-11.515
				v-45.729c0-13.369-5.615-20.053-16.842-20.053c-2.303,0-4.535,0.29-6.693,0.865c-2.159,0.578-4.104,1.443-5.83,2.598
				s-3.095,2.62-4.102,4.399c-1.008,1.778-1.512,3.871-1.512,6.274v51.645H1668.869z"/>
			<path fill="#333E48" d="M1809.643,334.387c0,10.267-2.877,18.328-8.637,24.182c-5.757,5.854-13.867,8.781-24.324,8.781
				c-6.047,0-11.254-0.94-15.619-2.818c-4.367-1.883-7.988-4.363-10.867-7.447l6.766-7.952c2.494,2.568,5.373,4.545,8.637,5.927
				c3.261,1.381,7.053,2.07,11.371,2.07c6.716,0,11.922-1.855,15.617-5.563c3.693-3.714,5.542-9.184,5.542-16.411V324.88h-0.575
				c-2.209,4.562-5.088,7.979-8.637,10.26c-3.552,2.281-7.917,3.421-13.1,3.421c-4.605,0-8.779-0.913-12.523-2.734
				c-3.741-1.822-6.908-4.413-9.5-7.772c-2.59-3.358-4.605-7.436-6.045-12.235c-1.439-4.797-2.158-10.171-2.158-16.122
				c0-5.948,0.719-11.321,2.158-16.121c1.439-4.798,3.455-8.876,6.045-12.235c2.592-3.357,5.759-5.949,9.5-7.772
				c3.744-1.822,7.918-2.735,12.523-2.735c5.183,0,9.619,1.118,13.315,3.35c3.692,2.232,6.499,5.676,8.421,10.332h0.575v-11.953
				h11.515V334.387z M1779.271,328.341c2.592,0,5.037-0.337,7.342-1.013c2.303-0.674,4.293-1.664,5.973-2.966
				c1.678-1.3,3.023-2.893,4.031-4.772c1.007-1.881,1.511-4.075,1.511-6.583v-27.632c0-2.024-0.481-3.93-1.44-5.716
				c-0.959-1.783-2.303-3.302-4.029-4.556c-1.727-1.253-3.742-2.241-6.045-2.965c-2.305-0.725-4.75-1.086-7.342-1.086
				c-6.527,0-11.709,2.072-15.545,6.221c-3.84,4.147-5.758,9.5-5.758,16.059v12.729c0,6.559,1.918,11.911,5.758,16.059
				C1767.563,326.268,1772.744,328.341,1779.271,328.341z"/>
			<path fill="#333E48" d="M1879.885,324.88h-0.576c-0.769,1.712-1.704,3.398-2.807,5.061c-1.104,1.662-2.471,3.135-4.102,4.417
				c-1.633,1.281-3.599,2.303-5.902,3.063c-2.303,0.76-4.99,1.14-8.061,1.14c-7.678,0-13.771-2.469-18.281-7.413
				c-4.511-4.94-6.764-11.922-6.764-20.942v-47.645h11.515v45.728c0,13.368,5.661,20.053,16.985,20.053
				c2.303,0,4.533-0.287,6.693-0.866c2.159-0.575,4.077-1.44,5.758-2.595c1.678-1.154,3.022-2.62,4.029-4.399
				c1.008-1.778,1.512-3.92,1.512-6.422v-51.498h11.516v74.273h-11.516V324.88z"/>
			<path fill="#333E48" d="M1921.627,245.143c-2.496,0-4.295-0.598-5.397-1.799c-1.104-1.199-1.655-2.757-1.655-4.679v-1.871
				c0-1.919,0.551-3.478,1.655-4.679c1.103-1.198,2.901-1.799,5.397-1.799c2.494,0,4.294,0.601,5.398,1.799
				c1.102,1.201,1.654,2.76,1.654,4.679v1.871c0,1.922-0.553,3.479-1.654,4.679C1925.921,244.545,1924.121,245.143,1921.627,245.143
				z M1915.869,262.561h11.516v74.273h-11.516V262.561z"/>
			<path fill="#333E48" d="M1974.166,338.561c-6.909,0-12.691-1.319-17.346-3.958c-4.654-2.638-8.66-6.165-12.019-10.58l8.204-6.621
				c2.879,3.647,6.094,6.455,9.645,8.42c3.549,1.969,7.676,2.952,12.379,2.952c4.895,0,8.709-1.055,11.443-3.167
				c2.735-2.11,4.103-5.086,4.103-8.925c0-2.879-0.935-5.348-2.807-7.413c-1.872-2.063-5.253-3.477-10.147-4.246l-5.902-0.864
				c-3.455-0.479-6.621-1.223-9.5-2.23s-5.398-2.351-7.557-4.03c-2.159-1.678-3.84-3.765-5.038-6.262
				c-1.202-2.494-1.8-5.47-1.8-8.924c0-3.646,0.67-6.837,2.016-9.573c1.344-2.734,3.189-5.012,5.542-6.836
				c2.351-1.822,5.157-3.19,8.42-4.103c3.262-0.911,6.766-1.368,10.509-1.368c6.045,0,11.105,1.058,15.186,3.167
				c4.076,2.112,7.651,5.038,10.724,8.78l-7.63,6.909c-1.633-2.303-4.029-4.39-7.197-6.261c-3.166-1.871-7.148-2.808-11.946-2.808
				c-4.8,0-8.421,1.032-10.868,3.095c-2.446,2.064-3.67,4.872-3.67,8.421c0,3.648,1.224,6.286,3.67,7.917
				c2.447,1.633,5.975,2.831,10.58,3.599l5.758,0.863c8.252,1.248,14.106,3.624,17.561,7.125c3.455,3.505,5.182,8.085,5.182,13.746
				c0,7.197-2.446,12.86-7.34,16.985C1989.424,336.499,1982.705,338.561,1974.166,338.561z"/>
			<path fill="#333E48" d="M2037.357,336.834c-4.029,0-7.077-1.125-9.14-3.374c-2.064-2.249-3.095-5.195-3.095-8.835v-51.846
				h-12.235v-10.219h6.909c2.494,0,4.197-0.505,5.11-1.513c0.911-1.007,1.367-2.757,1.367-5.253v-13.819h10.364v20.585h16.266
				v10.219h-16.266v53.835h15.113v10.22H2037.357z"/>
			<path fill="#333E48" d="M2077.229,245.143c-2.496,0-4.296-0.598-5.397-1.799c-1.105-1.199-1.656-2.757-1.656-4.679v-1.871
				c0-1.919,0.551-3.478,1.656-4.679c1.102-1.198,2.901-1.799,5.397-1.799c2.495,0,4.294,0.601,5.397,1.799
				c1.103,1.201,1.656,2.76,1.656,4.679v1.871c0,1.922-0.554,3.479-1.656,4.679C2081.523,244.545,2079.725,245.143,2077.229,245.143
				z M2071.473,262.561h11.515v74.273h-11.515V262.561z"/>
			<path fill="#333E48" d="M2135.094,338.561c-5.182,0-9.837-0.913-13.962-2.734c-4.127-1.822-7.606-4.413-10.436-7.772
				c-2.832-3.358-4.991-7.436-6.478-12.235c-1.488-4.797-2.23-10.171-2.23-16.122c0-5.948,0.742-11.321,2.23-16.121
				c1.486-4.798,3.646-8.876,6.478-12.235c2.829-3.357,6.309-5.949,10.436-7.772c4.125-1.822,8.78-2.735,13.962-2.735
				c7.389,0,13.314,1.608,17.777,4.822c4.462,3.217,7.795,7.413,10.004,12.595l-9.645,4.895c-1.344-3.837-3.551-6.813-6.621-8.925
				c-3.072-2.109-6.909-3.166-11.516-3.166c-3.453,0-6.477,0.553-9.068,1.654c-2.59,1.104-4.75,2.641-6.477,4.607
				c-1.729,1.967-3.023,4.318-3.887,7.053s-1.296,5.735-1.296,8.995v12.667c0,6.527,1.75,11.876,5.255,16.051
				c3.5,4.174,8.658,6.261,15.473,6.261c9.307,0,16.025-4.318,20.152-12.955l8.348,5.614c-2.398,5.375-5.973,9.645-10.723,12.811
				C2148.121,336.978,2142.195,338.561,2135.094,338.561z"/>
			<path fill="#333E48" d="M2202.17,338.561c-6.91,0-12.691-1.319-17.346-3.958c-4.654-2.638-8.66-6.165-12.018-10.58l8.203-6.621
				c2.879,3.647,6.094,6.455,9.645,8.42c3.549,1.969,7.676,2.952,12.379,2.952c4.895,0,8.709-1.055,11.443-3.167
				c2.735-2.11,4.103-5.086,4.103-8.925c0-2.879-0.937-5.348-2.808-7.413c-1.871-2.063-5.253-3.477-10.146-4.246l-5.902-0.864
				c-3.455-0.479-6.621-1.223-9.5-2.23s-5.398-2.351-7.557-4.03c-2.16-1.678-3.84-3.765-5.039-6.262
				c-1.201-2.494-1.799-5.47-1.799-8.924c0-3.646,0.67-6.837,2.016-9.573c1.343-2.734,3.189-5.012,5.542-6.836
				c2.351-1.822,5.157-3.19,8.421-4.103c3.26-0.911,6.765-1.368,10.508-1.368c6.045,0,11.105,1.058,15.186,3.167
				c4.076,2.112,7.651,5.038,10.725,8.78l-7.631,6.909c-1.633-2.303-4.029-4.39-7.197-6.261c-3.166-1.871-7.148-2.808-11.946-2.808
				c-4.8,0-8.421,1.032-10.868,3.095c-2.446,2.064-3.67,4.872-3.67,8.421c0,3.648,1.224,6.286,3.67,7.917
				c2.447,1.633,5.975,2.831,10.58,3.599l5.758,0.863c8.252,1.248,14.105,3.624,17.561,7.125c3.455,3.505,5.182,8.085,5.182,13.746
				c0,7.197-2.446,12.86-7.34,16.985C2217.428,336.499,2210.709,338.561,2202.17,338.561z"/>
			<path fill="#333E48" d="M2313.292,338.561c-8.157,0-15.114-1.561-20.872-4.678s-10.651-7.413-14.682-12.883l8.924-7.485
				c3.55,4.704,7.485,8.276,11.804,10.724s9.403,3.671,15.259,3.671c7.196,0,12.688-1.728,16.48-5.182
				c3.789-3.455,5.686-8.062,5.686-13.819c0-4.797-1.439-8.492-4.318-11.082c-2.879-2.592-7.629-4.654-14.25-6.19l-8.205-1.871
				c-9.213-2.11-16.242-5.302-21.087-9.571c-4.847-4.27-7.271-10.293-7.271-18.066c0-4.412,0.815-8.348,2.448-11.803
				c1.63-3.454,3.909-6.333,6.837-8.636c2.926-2.304,6.428-4.054,10.508-5.254c4.078-1.199,8.564-1.8,13.459-1.8
				c7.578,0,14.08,1.393,19.504,4.175c5.42,2.784,10.004,6.861,13.746,12.235l-9.068,6.621c-2.785-3.838-6.143-6.86-10.075-9.068
				c-3.937-2.207-8.83-3.311-14.683-3.311c-6.43,0-11.492,1.367-15.186,4.102c-3.695,2.735-5.542,6.838-5.542,12.307
				c0,4.801,1.559,8.422,4.679,10.868c3.117,2.446,7.844,4.391,14.178,5.83l8.205,1.871c9.883,2.208,17.032,5.566,21.447,10.075
				c4.412,4.512,6.621,10.508,6.621,17.993c0,4.606-0.791,8.78-2.375,12.523c-1.584,3.742-3.863,6.909-6.838,9.5
				s-6.598,4.606-10.867,6.046C2323.487,337.842,2318.665,338.561,2313.292,338.561z"/>
			<path fill="#333E48" d="M2395.625,338.561c-4.99,0-9.549-0.913-13.674-2.734c-4.127-1.822-7.654-4.438-10.58-7.846
				c-2.928-3.404-5.206-7.484-6.837-12.234c-1.633-4.75-2.446-10.099-2.446-16.05c0-5.852,0.813-11.178,2.446-15.978
				c1.631-4.797,3.909-8.899,6.837-12.307c2.926-3.405,6.453-6.021,10.58-7.845c4.125-1.822,8.684-2.735,13.674-2.735
				c4.989,0,9.523,0.913,13.604,2.735c4.078,1.823,7.604,4.439,10.58,7.845c2.973,3.407,5.275,7.51,6.908,12.307
				c1.631,4.8,2.447,10.126,2.447,15.978c0,5.951-0.816,11.3-2.447,16.05c-1.633,4.75-3.936,8.83-6.908,12.234
				c-2.977,3.408-6.502,6.023-10.58,7.846C2405.148,337.647,2400.614,338.561,2395.625,338.561z M2395.625,328.341
				c6.237,0,11.322-1.918,15.259-5.758c3.934-3.837,5.901-9.69,5.901-17.561v-10.651c0-7.867-1.968-13.723-5.901-17.562
				c-3.937-3.837-9.021-5.757-15.259-5.757c-6.238,0-11.323,1.92-15.257,5.757c-3.937,3.839-5.901,9.694-5.901,17.562v10.651
				c0,7.87,1.965,13.724,5.901,17.561C2384.302,326.423,2389.387,328.341,2395.625,328.341z"/>
			<path fill="#333E48" d="M2475.801,338.561c-5.182,0-9.837-0.913-13.963-2.734c-4.126-1.822-7.605-4.413-10.436-7.772
				c-2.831-3.358-4.99-7.436-6.477-12.235c-1.489-4.797-2.232-10.171-2.232-16.122c0-5.948,0.743-11.321,2.232-16.121
				c1.486-4.798,3.646-8.876,6.477-12.235c2.83-3.357,6.31-5.949,10.436-7.772c4.126-1.822,8.781-2.735,13.963-2.735
				c7.389,0,13.314,1.608,17.777,4.822c4.462,3.217,7.795,7.413,10.004,12.595l-9.645,4.895c-1.346-3.837-3.551-6.813-6.621-8.925
				c-3.072-2.109-6.909-3.166-11.516-3.166c-3.455,0-6.477,0.553-9.068,1.654c-2.59,1.104-4.75,2.641-6.477,4.607
				c-1.729,1.967-3.023,4.318-3.887,7.053s-1.297,5.735-1.297,8.995v12.667c0,6.527,1.751,11.876,5.254,16.051
				c3.503,4.174,8.66,6.261,15.475,6.261c9.307,0,16.025-4.318,20.152-12.955l8.349,5.614c-2.399,5.375-5.974,9.645-10.724,12.811
				C2488.828,336.978,2482.901,338.561,2475.801,338.561z"/>
			<path fill="#333E48" d="M2526.323,245.143c-2.497,0-4.296-0.598-5.397-1.799c-1.105-1.199-1.655-2.757-1.655-4.679v-1.871
				c0-1.919,0.55-3.478,1.655-4.679c1.102-1.198,2.9-1.799,5.397-1.799c2.494,0,4.294,0.601,5.397,1.799
				c1.103,1.201,1.656,2.76,1.656,4.679v1.871c0,1.922-0.554,3.479-1.656,4.679C2530.617,244.545,2528.817,245.143,2526.323,245.143
				z M2520.565,262.561h11.516v74.273h-11.516V262.561z"/>
			<path fill="#333E48" d="M2584.475,338.561c-5.086,0-9.668-0.913-13.745-2.734c-4.08-1.822-7.582-4.438-10.507-7.846
				c-2.93-3.404-5.183-7.484-6.767-12.234c-1.583-4.75-2.374-10.099-2.374-16.05c0-5.852,0.791-11.178,2.374-15.978
				c1.584-4.797,3.837-8.899,6.767-12.307c2.925-3.405,6.427-6.021,10.507-7.845c4.077-1.822,8.659-2.735,13.745-2.735
				c4.99,0,9.451,0.908,13.388,2.727c3.934,1.816,7.292,4.329,10.076,7.531c2.782,3.203,4.917,7.004,6.405,11.403
				c1.486,4.399,2.231,9.228,2.231,14.486v5.452h-53.403v3.455c0,3.166,0.504,6.117,1.512,8.852s2.447,5.11,4.318,7.125
				c1.871,2.016,4.174,3.599,6.908,4.751c2.736,1.151,5.83,1.727,9.285,1.727c4.701,0,8.803-1.103,12.308-3.311
				c3.501-2.206,6.212-5.373,8.132-9.5l8.205,5.939c-2.4,5.119-6.143,9.246-11.228,12.384
				C2597.525,336.991,2591.479,338.561,2584.475,338.561z M2584.475,270.477c-3.166,0-6.043,0.549-8.635,1.646
				s-4.822,2.647-6.693,4.648c-1.871,2.002-3.336,4.363-4.391,7.081c-1.057,2.719-1.584,5.698-1.584,8.941v1.001h41.023v-1.574
				c0-6.581-1.799-11.848-5.397-15.807C2595.199,272.456,2590.425,270.477,2584.475,270.477z"/>
			<path fill="#333E48" d="M2651.984,336.834c-4.031,0-7.078-1.125-9.141-3.374c-2.064-2.249-3.095-5.195-3.095-8.835v-51.846
				h-12.235v-10.219h6.908c2.495,0,4.198-0.505,5.111-1.513c0.91-1.007,1.367-2.757,1.367-5.253v-13.819h10.363v20.585h16.266
				v10.219h-16.266v53.835h15.113v10.22H2651.984z"/>
			<path fill="#333E48" d="M2731.871,262.561h11.372l-33.251,91.546c-0.863,2.207-1.727,4.053-2.592,5.542
				c-0.863,1.486-1.92,2.663-3.166,3.526c-1.248,0.864-2.807,1.487-4.678,1.871c-1.871,0.382-4.152,0.576-6.838,0.576h-5.902v-10.22
				h11.66l5.613-15.809l-27.78-77.033h11.515l17.85,50.426l3.455,12.068h0.719l4.031-12.068L2731.871,262.561z"/>
			<g>
				<path fill="#333E48" d="M1582.05,477.752l-3.61-11.477h-15.99l-3.546,11.477h-8.641l15.088-45.004h10.574l14.958,45.004H1582.05
					z M1570.572,440.486h-0.321l-5.738,18.504h11.862L1570.572,440.486z"/>
				<path fill="#333E48" d="M1627.375,477.752l-3.609-11.477h-15.991l-3.546,11.477h-8.641l15.088-45.004h10.574l14.958,45.004
					H1627.375z M1615.898,440.486h-0.322l-5.738,18.504h11.863L1615.898,440.486z"/>
				<path fill="#333E48" d="M1671.412,458.732h-18.763v19.02h-8.511v-45.004h8.511v18.439h18.763v-18.439h8.51v45.004h-8.51V458.732
					z"/>
				<path fill="#333E48" d="M1706.293,457.379l-5.996,7.092v13.281h-8.511v-45.004h8.511v22.18h0.322l6.383-8.445l11.154-13.734
					h9.801l-15.668,18.762l16.957,26.242h-10.122L1706.293,457.379z"/>
				<path fill="#333E48" d="M1744.85,432.748v27.66c0,3.525,0.676,6.168,2.031,7.932c1.354,1.762,3.643,2.643,6.866,2.643
					s5.513-0.881,6.867-2.643c1.354-1.764,2.03-4.406,2.03-7.932v-27.66h8.381v26.564c0,3.311-0.311,6.168-0.934,8.574
					c-0.624,2.408-1.623,4.408-2.998,5.998c-1.376,1.59-3.172,2.762-5.385,3.514c-2.214,0.75-4.89,1.127-8.025,1.127
					c-3.183,0-5.859-0.377-8.028-1.127c-2.171-0.752-3.944-1.924-5.319-3.514c-1.377-1.59-2.364-3.59-2.966-5.998
					c-0.603-2.406-0.902-5.264-0.902-8.574v-26.564H1744.85z"/>
				<path fill="#333E48" d="M1796.559,478.525c-3.868,0-7.146-0.688-9.834-2.066c-2.686-1.377-4.995-3.186-6.93-5.426l5.738-5.553
					c1.548,1.791,3.277,3.156,5.191,4.094c1.911,0.939,4.028,1.408,6.35,1.408c2.621,0,4.599-0.564,5.932-1.695
					c1.332-1.131,1.999-2.654,1.999-4.574c0-1.494-0.43-2.709-1.289-3.648c-0.86-0.938-2.474-1.619-4.836-2.047l-4.256-0.639
					c-8.983-1.422-13.476-5.789-13.476-13.105c0-2.023,0.375-3.852,1.129-5.486c0.751-1.637,1.837-3.035,3.256-4.197
					s3.127-2.055,5.125-2.68c2-0.623,4.267-0.936,6.803-0.936c3.395,0,6.361,0.561,8.898,1.68c2.535,1.121,4.706,2.777,6.512,4.975
					l-5.803,5.492c-1.118-1.363-2.473-2.473-4.063-3.324c-1.591-0.852-3.589-1.279-5.996-1.279c-2.451,0-4.287,0.459-5.513,1.375
					s-1.839,2.205-1.839,3.867c0,1.703,0.495,2.961,1.484,3.771c0.988,0.809,2.579,1.406,4.771,1.789l4.19,0.773
					c4.556,0.818,7.919,2.271,10.091,4.357c2.17,2.088,3.256,5.002,3.256,8.746c0,2.152-0.377,4.098-1.128,5.842
					c-0.753,1.742-1.849,3.248-3.289,4.518s-3.202,2.248-5.286,2.938C1801.662,478.182,1799.267,478.525,1796.559,478.525z"/>
				<path fill="#333E48" d="M1831.311,432.748v27.66c0,3.525,0.677,6.168,2.031,7.932c1.354,1.762,3.643,2.643,6.866,2.643
					s5.513-0.881,6.867-2.643c1.354-1.764,2.03-4.406,2.03-7.932v-27.66h8.382v26.564c0,3.311-0.312,6.168-0.935,8.574
					c-0.624,2.408-1.623,4.408-2.998,5.998c-1.376,1.59-3.171,2.762-5.384,3.514c-2.215,0.75-4.891,1.127-8.028,1.127
					c-3.181,0-5.856-0.377-8.026-1.127c-2.171-0.752-3.944-1.924-5.319-3.514c-1.376-1.59-2.363-3.59-2.966-5.998
					c-0.603-2.406-0.902-5.264-0.902-8.574v-26.564H1831.311z"/>
			</g>
		</g>
	</g>
</g>
</svg>
