<?xml version="1.0" encoding="utf-8"?>
<!-- Generator: Adobe Illustrator 16.0.0, SVG Export Plug-In . SVG Version: 6.00 Build 0)  -->
<!DOCTYPE svg PUBLIC "-//W3C//DTD SVG 1.0//EN" "http://www.w3.org/TR/2001/REC-SVG-20010904/DTD/svg10.dtd">
<svg version="1.0" id="Logotypes" xmlns="http://www.w3.org/2000/svg" xmlns:xlink="http://www.w3.org/1999/xlink" x="0px" y="0px"
	 width="633.189px" height="708.012px" viewBox="0 0 633.189 708.012" enable-background="new 0 0 633.189 708.012"
	 xml:space="preserve">
<g>
	<defs>
		<rect id="SVGID_55_" y="-0.002" width="633.189" height="708.014"/>
	</defs>
	<clipPath id="SVGID_2_">
		<use xlink:href="#SVGID_55_"  overflow="visible"/>
	</clipPath>
	<g clip-path="url(#SVGID_2_)">
		<g>
			<g>
				<g>
					<path fill="#A49B4B" d="M79.223,135.785c-4.553,10.764-7.26,22.072-8.086,33.713c1.795-1.461,4.08-2.34,6.568-2.34
						c2.748,0,5.244,1.078,7.109,2.818c3.668-47.797,43.611-85.436,92.352-85.436c3.775,0,6.836-3.063,6.836-6.838
						c0-3.777-3.061-6.838-6.836-6.838c-14.346,0-28.27,2.813-41.385,8.359C123.123,84.58,111.756,92.24,101.998,102
						C92.238,111.758,84.576,123.125,79.223,135.785z"/>
					<path fill="#A49B4B" d="M169.596,269.484c-47.479-3.842-84.838-43.482-85.053-91.898c0-3.775-3.061-6.838-6.838-6.838
						c-3.775,0-6.838,3.063-6.838,6.838c0.055,14.197,2.861,27.977,8.355,40.963c5.354,12.66,13.016,24.027,22.775,33.785
						c9.758,9.76,21.125,17.422,33.783,22.777c10.629,4.494,21.787,7.193,33.271,8.055c-1.443-1.789-2.314-4.061-2.314-6.533
						C166.738,273.865,167.83,271.354,169.596,269.484z"/>
					<path fill="#A49B4B" d="M251.266,243.705c-1.334-1.334-3.084-2.002-4.834-2.002s-3.5,0.668-4.836,2.002
						c-16.672,16.146-39.389,26.09-64.43,26.09c-3.777,0-6.838,3.061-6.838,6.838c0,3.775,3.061,6.838,6.838,6.838
						c14.344,0,28.266-2.813,41.381-8.359c12.205-5.162,23.201-12.475,32.719-21.734
						C253.938,250.707,253.938,246.377,251.266,243.705z"/>
					<path fill="#A49B4B" d="M177.171,70.861c-14.35,0-28.27,2.82-41.39,8.36c-12.66,5.36-24.03,13.02-33.78,22.78
						c-9.76,9.76-17.42,21.12-22.78,33.779c-4.55,10.771-7.26,22.08-8.08,33.721c1.79-1.46,4.08-2.34,6.561-2.34
						c2.75,0,5.25,1.069,7.109,2.81c3.671-47.79,43.61-85.43,92.36-85.43c3.771,0,6.83-3.061,6.83-6.841
						C184.001,73.922,180.941,70.861,177.171,70.861z M169.591,269.481c-47.47-3.84-84.83-43.479-85.05-91.899
						c0-3.771-3.06-6.83-6.84-6.83c-3.771,0-6.83,3.06-6.83,6.83c0.05,14.199,2.86,27.979,8.35,40.97
						c5.36,12.66,13.021,24.02,22.78,33.78c9.75,9.76,21.12,17.42,33.78,22.779c10.63,4.49,21.79,7.19,33.27,8.051
						c-1.439-1.78-2.31-4.061-2.31-6.53C166.741,273.861,167.831,271.352,169.591,269.481z M251.261,243.701
						c-1.33-1.329-3.08-2-4.83-2s-3.5,0.671-4.84,2c-16.67,16.15-39.38,26.091-64.42,26.091c-3.78,0-6.84,3.06-6.84,6.84
						s3.06,6.84,6.84,6.84c14.34,0,28.26-2.81,41.38-8.36c12.2-5.16,23.2-12.47,32.71-21.729
						C253.941,250.712,253.941,246.382,251.261,243.701z"/>
				</g>
				<g>
					<g>
						<g>
							<path fill="#A49B4B" d="M233.461,120.872c-15.04-15.03-35.03-23.311-56.29-23.311c-21.27,0-41.26,8.28-56.3,23.311
								c-15.04,15.04-23.32,35.029-23.32,56.3c0,21.26,8.28,41.25,23.32,56.29c15.04,15.029,35.03,23.319,56.3,23.319
								c21.26,0,41.25-8.29,56.29-23.319c15.04-15.04,23.311-35.03,23.311-56.29C256.771,155.901,248.501,135.912,233.461,120.872z
								 M132.231,155.231h-6.48v43.87h6.48v3.811h-11.171v-51.49h11.171V155.231z M141.041,202.912v-36.36
								c0-3.14-0.05-5.97-0.16-8.521c-0.109-2.54-0.27-4.739-0.479-6.609h6.6v36.21c0,1.02,0.01,2.24,0.04,3.63
								c0.03,1.4,0.08,2.81,0.13,4.25c0.061,1.439,0.12,2.81,0.19,4.12c0.08,1.31,0.17,2.399,0.279,3.28H141.041z M175.801,174.302
								h-6.05v24.399h6.05v4.211h-18.02v-4.211h5.95v-24.399h-5.95v-4.21h18.02V174.302z M213.931,199.372
								c0,3.63-0.31,6.64-0.949,9.029c-0.631,2.391-1.511,4.3-2.65,5.73c-1.14,1.42-2.51,2.43-4.1,3.02
								c-1.601,0.59-3.381,0.891-5.33,0.891c-0.971,0-2-0.16-3.11-0.471c-1.1-0.31-2.1-0.739-3-1.3l2.09-4.83
								c0.49,0.36,1.15,0.67,1.98,0.92c0.819,0.24,1.66,0.37,2.52,0.37c1.03,0,1.95-0.17,2.771-0.5c0.819-0.33,1.51-0.92,2.08-1.76
								c0.56-0.83,1-1.98,1.3-3.44s0.45-3.31,0.45-5.569v-14.16c0-2.57-0.141-4.66-0.4-6.25c-0.271-1.601-0.67-2.851-1.21-3.74
								s-1.21-1.479-2.01-1.79c-0.811-0.3-1.74-0.45-2.82-0.45c-1.16,0-2.29,0.28-3.39,0.83c-1.11,0.54-2.12,1.25-3.04,2.12
								c-0.931,0.87-1.74,1.851-2.45,2.94c-0.71,1.1-1.23,2.189-1.58,3.29v18.66h-5.95v-19.79c0-3.171-0.18-5.86-0.55-8.061
								c-0.36-2.2-0.72-3.86-1.06-4.97h5.8c0.12,0.34,0.25,0.78,0.38,1.33s0.25,1.12,0.359,1.72c0.101,0.6,0.2,1.19,0.28,1.771
								l0.26,1.449c2.061-2.439,4.131-4.21,6.21-5.29c2.08-1.09,4.25-1.63,6.5-1.63c1.721,0,3.24,0.29,4.561,0.86
								s2.43,1.47,3.33,2.7c0.899,1.229,1.58,2.83,2.04,4.79c0.46,1.97,0.689,4.33,0.689,7.1V199.372z M233.271,202.912h-11.16
								v-3.811h6.47v-43.87h-6.47v-3.81h11.16V202.912z"/>
						</g>
					</g>
				</g>
			</g>
		</g>
		<g>
			<path fill="#A49B4B" d="M107.458,426.158v-67.755h8.154v60.572h28.83v7.183H107.458z"/>
			<path fill="#A49B4B" d="M159.196,364.324c-1.684,0-2.897-0.403-3.641-1.214c-0.745-0.809-1.116-1.859-1.116-3.154v-1.262
				c0-1.294,0.372-2.346,1.116-3.155c0.743-0.809,1.957-1.214,3.641-1.214c1.682,0,2.896,0.405,3.64,1.214
				c0.743,0.81,1.116,1.861,1.116,3.155v1.262c0,1.295-0.373,2.346-1.116,3.154C162.091,363.921,160.877,364.324,159.196,364.324z
				 M155.313,376.069h7.766v50.089h-7.766V376.069z"/>
			<path fill="#A49B4B" d="M179.581,426.158v-50.089h7.766v8.063h0.388c1.229-2.818,2.96-5.063,5.193-6.727
				c2.233-1.666,5.225-2.5,8.979-2.5c5.177,0,9.271,1.666,12.28,4.998c3.009,3.334,4.514,8.043,4.514,14.125v32.13h-7.766V395.32
				c0-9.016-3.786-13.523-11.357-13.523c-1.553,0-3.058,0.196-4.514,0.584c-1.456,0.39-2.766,0.974-3.931,1.752
				s-2.087,1.767-2.766,2.967c-0.68,1.199-1.02,2.61-1.02,4.231v34.827H179.581z"/>
			<path fill="#A49B4B" d="M274.515,424.509c0,6.924-1.941,12.359-5.824,16.307s-9.352,5.922-16.405,5.922
				c-4.077,0-7.588-0.634-10.532-1.9c-2.945-1.27-5.387-2.942-7.329-5.021l4.562-5.363c1.682,1.732,3.624,3.064,5.824,3.996
				c2.199,0.932,4.756,1.396,7.668,1.396c4.529,0,8.041-1.251,10.532-3.752c2.491-2.504,3.737-6.192,3.737-11.067v-6.929h-0.388
				c-1.489,3.076-3.431,5.382-5.824,6.92c-2.395,1.538-5.339,2.307-8.833,2.307c-3.106,0-5.921-0.615-8.445-1.844
				c-2.523-1.229-4.659-2.977-6.406-5.242c-1.748-2.265-3.106-5.015-4.077-8.251c-0.971-3.235-1.456-6.859-1.456-10.872
				c0-4.012,0.485-7.636,1.456-10.872c0.971-3.235,2.33-5.985,4.077-8.251c1.747-2.265,3.883-4.012,6.406-5.242
				c2.524-1.229,5.339-1.844,8.445-1.844c3.495,0,6.487,0.754,8.979,2.258c2.491,1.506,4.383,3.828,5.679,6.969h0.388v-8.063h7.766
				V424.509z M254.033,420.431c1.748,0,3.397-0.227,4.951-0.682s2.896-1.123,4.028-2.001c1.132-0.877,2.039-1.95,2.718-3.218
				c0.679-1.269,1.019-2.749,1.019-4.439v-18.635c0-1.365-0.324-2.65-0.971-3.854c-0.647-1.202-1.553-2.227-2.718-3.073
				c-1.165-0.844-2.524-1.511-4.077-1.999s-3.203-0.732-4.951-0.732c-4.401,0-7.896,1.398-10.483,4.195
				c-2.589,2.797-3.883,6.407-3.883,10.829v8.585c0,4.423,1.293,8.032,3.883,10.83C246.137,419.032,249.632,420.431,254.033,420.431
				z"/>
			<path fill="#A49B4B" d="M321.885,418.097h-0.388c-0.519,1.154-1.149,2.292-1.893,3.413c-0.745,1.12-1.667,2.114-2.767,2.979
				c-1.102,0.864-2.427,1.554-3.98,2.066s-3.366,0.769-5.436,0.769c-5.178,0-9.287-1.665-12.328-4.999
				c-3.042-3.333-4.563-8.04-4.563-14.124v-32.131h7.766v30.839c0,9.015,3.818,13.522,11.455,13.522
				c1.553,0,3.058-0.193,4.514-0.584c1.456-0.388,2.75-0.972,3.883-1.75c1.132-0.777,2.039-1.767,2.718-2.967
				c0.68-1.199,1.019-2.643,1.019-4.33v-34.73h7.766v50.089h-7.766V418.097z"/>
			<path fill="#A49B4B" d="M350.035,364.324c-1.684,0-2.897-0.403-3.64-1.214c-0.745-0.809-1.116-1.859-1.116-3.154v-1.262
				c0-1.294,0.372-2.346,1.116-3.155c0.743-0.809,1.957-1.214,3.64-1.214c1.682,0,2.896,0.405,3.64,1.214
				c0.743,0.81,1.116,1.861,1.116,3.155v1.262c0,1.295-0.373,2.346-1.116,3.154C352.93,363.921,351.717,364.324,350.035,364.324z
				 M346.152,376.069h7.766v50.089h-7.766V376.069z"/>
			<path fill="#A49B4B" d="M385.466,427.323c-4.659,0-8.559-0.891-11.697-2.67c-3.14-1.778-5.841-4.157-8.105-7.135l5.533-4.465
				c1.941,2.46,4.109,4.354,6.504,5.679c2.394,1.327,5.177,1.99,8.348,1.99c3.3,0,5.873-0.712,7.717-2.136
				c1.845-1.423,2.767-3.43,2.767-6.019c0-1.941-0.631-3.606-1.893-4.999c-1.262-1.391-3.543-2.345-6.844-2.863l-3.98-0.583
				c-2.33-0.323-4.465-0.825-6.407-1.505s-3.64-1.584-5.096-2.717s-2.589-2.54-3.397-4.224c-0.81-1.682-1.213-3.688-1.213-6.018
				c0-2.459,0.452-4.611,1.359-6.456c0.906-1.844,2.151-3.381,3.737-4.61c1.585-1.229,3.478-2.151,5.679-2.767
				c2.199-0.614,4.563-0.922,7.086-0.922c4.077,0,7.489,0.713,10.241,2.135c2.75,1.425,5.16,3.398,7.232,5.922l-5.145,4.659
				c-1.101-1.553-2.718-2.96-4.854-4.223c-2.135-1.262-4.821-1.893-8.057-1.893c-3.237,0-5.679,0.696-7.329,2.087
				c-1.65,1.393-2.475,3.285-2.475,5.679c0,2.46,0.825,4.239,2.475,5.339c1.65,1.102,4.029,1.909,7.135,2.427l3.883,0.582
				c5.565,0.842,9.513,2.444,11.843,4.806c2.33,2.363,3.495,5.452,3.495,9.27c0,4.854-1.65,8.673-4.951,11.455
				C395.755,425.933,391.225,427.323,385.466,427.323z"/>
			<path fill="#A49B4B" d="M428.081,426.158c-2.718,0-4.773-0.758-6.164-2.274c-1.392-1.518-2.087-3.504-2.087-5.958v-34.964h-8.251
				v-6.893h4.659c1.682,0,2.831-0.34,3.446-1.02c0.614-0.679,0.922-1.859,0.922-3.543v-9.318h6.989v13.881h10.969v6.893h-10.969
				v36.305h10.192v6.892H428.081z"/>
			<path fill="#A49B4B" d="M454.97,364.324c-1.684,0-2.897-0.403-3.64-1.214c-0.745-0.809-1.117-1.859-1.117-3.154v-1.262
				c0-1.294,0.372-2.346,1.117-3.155c0.743-0.809,1.957-1.214,3.64-1.214c1.682,0,2.896,0.405,3.64,1.214
				c0.743,0.81,1.116,1.861,1.116,3.155v1.262c0,1.295-0.373,2.346-1.116,3.154C457.865,363.921,456.652,364.324,454.97,364.324z
				 M451.087,376.069h7.766v50.089h-7.766V376.069z"/>
			<path fill="#A49B4B" d="M493.992,427.323c-3.495,0-6.634-0.615-9.416-1.844c-2.783-1.229-5.129-2.977-7.038-5.242
				c-1.91-2.265-3.366-5.015-4.368-8.251c-1.004-3.235-1.504-6.859-1.504-10.872c0-4.012,0.5-7.636,1.504-10.872
				c1.002-3.235,2.458-5.985,4.368-8.251c1.908-2.265,4.254-4.012,7.038-5.242c2.782-1.229,5.921-1.844,9.416-1.844
				c4.982,0,8.979,1.084,11.988,3.252s5.257,4.999,6.747,8.493l-6.504,3.301c-0.907-2.588-2.395-4.595-4.465-6.019
				c-2.072-1.423-4.659-2.136-7.766-2.136c-2.33,0-4.368,0.373-6.116,1.116c-1.747,0.744-3.203,1.781-4.368,3.106
				c-1.165,1.327-2.039,2.912-2.621,4.757c-0.583,1.844-0.874,3.867-0.874,6.066v8.542c0,4.402,1.18,8.009,3.543,10.823
				c2.361,2.816,5.839,4.223,10.435,4.223c6.276,0,10.807-2.912,13.59-8.736l5.63,3.786c-1.618,3.625-4.028,6.504-7.232,8.64
				C502.777,426.255,498.781,427.323,493.992,427.323z"/>
			<path fill="#A49B4B" d="M539.227,427.323c-4.66,0-8.559-0.891-11.697-2.67c-3.14-1.778-5.841-4.157-8.105-7.135l5.533-4.465
				c1.941,2.46,4.109,4.354,6.504,5.679c2.393,1.327,5.176,1.99,8.348,1.99c3.3,0,5.873-0.712,7.717-2.136
				c1.845-1.423,2.767-3.43,2.767-6.019c0-1.941-0.631-3.606-1.893-4.999c-1.262-1.391-3.543-2.345-6.844-2.863l-3.98-0.583
				c-2.33-0.323-4.465-0.825-6.407-1.505s-3.64-1.584-5.096-2.717s-2.589-2.54-3.397-4.224c-0.81-1.682-1.213-3.688-1.213-6.018
				c0-2.459,0.452-4.611,1.359-6.456c0.906-1.844,2.151-3.381,3.737-4.61c1.585-1.229,3.478-2.151,5.679-2.767
				c2.199-0.614,4.563-0.922,7.086-0.922c4.077,0,7.489,0.713,10.241,2.135c2.75,1.425,5.16,3.398,7.232,5.922l-5.145,4.659
				c-1.101-1.553-2.718-2.96-4.854-4.223c-2.135-1.262-4.821-1.893-8.057-1.893c-3.237,0-5.679,0.696-7.329,2.087
				c-1.65,1.393-2.475,3.285-2.475,5.679c0,2.46,0.825,4.239,2.475,5.339c1.65,1.102,4.029,1.909,7.135,2.427l3.883,0.582
				c5.565,0.842,9.513,2.444,11.843,4.806c2.33,2.363,3.495,5.452,3.495,9.27c0,4.854-1.65,8.673-4.951,11.455
				C549.516,425.933,544.985,427.323,539.227,427.323z"/>
			<path fill="#A49B4B" d="M126.483,543.809c-5.501,0-10.192-1.053-14.075-3.155c-3.883-2.102-7.184-4.998-9.901-8.688l6.019-5.048
				c2.393,3.172,5.047,5.582,7.959,7.232c2.912,1.649,6.342,2.476,10.29,2.476c4.854,0,8.557-1.166,11.114-3.495
				c2.556-2.33,3.834-5.437,3.834-9.319c0-3.234-0.971-5.727-2.912-7.474c-1.941-1.748-5.145-3.139-9.61-4.175l-5.533-1.262
				c-6.213-1.423-10.954-3.574-14.221-6.455c-3.269-2.879-4.902-6.94-4.902-12.183c0-2.976,0.549-5.63,1.65-7.96
				c1.1-2.329,2.636-4.271,4.611-5.824c1.974-1.553,4.335-2.732,7.086-3.543c2.75-0.809,5.776-1.213,9.076-1.213
				c5.111,0,9.496,0.938,13.153,2.814c3.655,1.878,6.746,4.628,9.27,8.252l-6.115,4.465c-1.878-2.588-4.143-4.626-6.795-6.115
				c-2.654-1.488-5.955-2.232-9.901-2.232c-4.336,0-7.75,0.922-10.241,2.766c-2.492,1.845-3.737,4.611-3.737,8.3
				c0,3.237,1.051,5.679,3.155,7.329c2.102,1.65,5.29,2.961,9.562,3.932l5.533,1.262c6.665,1.489,11.486,3.754,14.463,6.795
				c2.976,3.042,4.465,7.086,4.465,12.134c0,3.106-0.534,5.921-1.602,8.445c-1.068,2.523-2.606,4.659-4.611,6.406
				c-2.007,1.747-4.45,3.106-7.329,4.077C133.359,543.323,130.107,543.809,126.483,543.809z"/>
			<path fill="#A49B4B" d="M182.007,543.809c-3.366,0-6.44-0.616-9.222-1.845c-2.783-1.229-5.162-2.992-7.135-5.29
				c-1.975-2.296-3.511-5.048-4.611-8.251c-1.101-3.203-1.65-6.811-1.65-10.823c0-3.946,0.549-7.538,1.65-10.775
				c1.1-3.234,2.636-6.001,4.611-8.3c1.973-2.296,4.352-4.06,7.135-5.29c2.782-1.229,5.856-1.844,9.222-1.844
				c3.364,0,6.422,0.615,9.173,1.844c2.75,1.23,5.128,2.994,7.135,5.29c2.005,2.299,3.559,5.065,4.66,8.3
				c1.1,3.237,1.65,6.829,1.65,10.775c0,4.013-0.55,7.62-1.65,10.823c-1.101,3.203-2.654,5.955-4.66,8.251
				c-2.006,2.298-4.385,4.062-7.135,5.29C188.429,543.192,185.372,543.809,182.007,543.809z M182.007,536.917
				c4.206,0,7.635-1.294,10.29-3.883c2.653-2.588,3.98-6.536,3.98-11.843v-7.184c0-5.306-1.327-9.254-3.98-11.843
				c-2.654-2.588-6.083-3.883-10.29-3.883c-4.207,0-7.637,1.295-10.29,3.883c-2.654,2.589-3.98,6.537-3.98,11.843v7.184
				c0,5.307,1.326,9.255,3.98,11.843C174.371,535.623,177.8,536.917,182.007,536.917z"/>
			<path fill="#A49B4B" d="M236.076,543.809c-3.494,0-6.634-0.616-9.416-1.845c-2.783-1.229-5.13-2.976-7.038-5.241
				c-1.91-2.265-3.366-5.015-4.368-8.251c-1.004-3.235-1.505-6.859-1.505-10.872c0-4.012,0.5-7.636,1.505-10.872
				c1.002-3.235,2.458-5.985,4.368-8.251c1.908-2.265,4.254-4.012,7.038-5.242c2.782-1.229,5.921-1.844,9.416-1.844
				c4.982,0,8.979,1.084,11.989,3.251c3.009,2.17,5.257,5,6.746,8.494l-6.503,3.301c-0.907-2.588-2.396-4.595-4.466-6.019
				c-2.071-1.423-4.659-2.136-7.766-2.136c-2.329,0-4.368,0.373-6.115,1.116c-1.747,0.745-3.203,1.78-4.368,3.106
				c-1.165,1.327-2.039,2.912-2.621,4.756c-0.582,1.846-0.874,3.868-0.874,6.067v8.542c0,4.402,1.18,8.009,3.543,10.824
				c2.362,2.814,5.839,4.223,10.435,4.223c6.276,0,10.807-2.912,13.59-8.736l5.63,3.785c-1.618,3.625-4.028,6.504-7.231,8.64
				C244.861,542.741,240.864,543.809,236.076,543.809z"/>
			<path fill="#A49B4B" d="M270.147,480.81c-1.684,0-2.897-0.403-3.64-1.213c-0.745-0.809-1.116-1.859-1.116-3.155v-1.262
				c0-1.294,0.372-2.345,1.116-3.155c0.743-0.809,1.957-1.213,3.64-1.213c1.682,0,2.896,0.404,3.64,1.213
				c0.743,0.811,1.116,1.861,1.116,3.155v1.262c0,1.296-0.373,2.347-1.116,3.155C273.042,480.406,271.829,480.81,270.147,480.81z
				 M266.264,492.556h7.766v50.088h-7.766V492.556z"/>
			<path fill="#A49B4B" d="M309.364,543.809c-3.431,0-6.521-0.616-9.271-1.845c-2.751-1.229-5.113-2.992-7.086-5.29
				c-1.975-2.296-3.495-5.048-4.563-8.251s-1.602-6.811-1.602-10.823c0-3.946,0.534-7.538,1.602-10.775
				c1.068-3.234,2.587-6.001,4.563-8.3c1.973-2.296,4.335-4.06,7.086-5.29c2.75-1.229,5.84-1.844,9.271-1.844
				c3.364,0,6.373,0.612,9.027,1.838c2.653,1.226,4.917,2.92,6.795,5.079c1.876,2.16,3.316,4.724,4.32,7.69
				c1.002,2.967,1.505,6.224,1.505,9.769v3.678h-36.014v2.329c0,2.136,0.34,4.126,1.02,5.97c0.679,1.845,1.65,3.446,2.912,4.805
				c1.262,1.359,2.815,2.428,4.659,3.204s3.932,1.165,6.261,1.165c3.17,0,5.937-0.744,8.299-2.232
				c2.362-1.488,4.189-3.624,5.485-6.407l5.533,4.005c-1.619,3.453-4.143,6.236-7.572,8.352
				C318.164,542.75,314.087,543.809,309.364,543.809z M309.364,497.894c-2.136,0-4.077,0.371-5.824,1.111
				c-1.748,0.74-3.252,1.785-4.514,3.135c-1.262,1.35-2.25,2.942-2.961,4.774c-0.713,1.833-1.068,3.843-1.068,6.03v0.675h27.666
				v-1.062c0-4.438-1.213-7.99-3.64-10.659S313.375,497.894,309.364,497.894z"/>
			<path fill="#A49B4B" d="M354.89,542.644c-2.718,0-4.773-0.758-6.164-2.275c-1.392-1.516-2.087-3.503-2.087-5.957v-34.964h-8.251
				v-6.892h4.659c1.682,0,2.831-0.34,3.446-1.02c0.614-0.68,0.922-1.859,0.922-3.543v-9.319h6.989v13.882h10.969v6.892h-10.969
				v36.305h10.192v6.892H354.89z"/>
			<path fill="#A49B4B" d="M408.764,492.556h7.669l-22.423,61.736c-0.583,1.488-1.165,2.733-1.748,3.737
				c-0.582,1.003-1.295,1.796-2.135,2.378c-0.842,0.583-1.893,1.004-3.155,1.263c-1.262,0.258-2.8,0.388-4.611,0.388h-3.98v-6.892
				h7.863l3.786-10.661l-18.735-51.949h7.766l12.037,34.006l2.33,8.139h0.485l2.718-8.139L408.764,492.556z"/>
			<g>
				<path fill="#A49B4B" d="M120.863,637.557l-2.415-7.679h-10.699l-2.373,7.679h-5.781l10.096-30.112h7.074l10.009,30.112H120.863z
					 M113.185,612.622h-0.216l-3.839,12.381h7.938L113.185,612.622z"/>
				<path fill="#A49B4B" d="M151.19,637.557l-2.416-7.679h-10.699l-2.372,7.679h-5.781l10.095-30.112h7.076l10.008,30.112H151.19z
					 M143.511,612.622h-0.215l-3.84,12.381h7.938L143.511,612.622z"/>
				<path fill="#A49B4B" d="M180.655,624.831h-12.554v12.726h-5.694v-30.112h5.694v12.338h12.554v-12.338h5.695v30.112h-5.695
					V624.831z"/>
				<path fill="#A49B4B" d="M203.994,623.925l-4.012,4.746v8.886h-5.694v-30.112h5.694v14.841h0.216l4.271-5.65l7.464-9.19h6.557
					l-10.482,12.554l11.346,17.559h-6.773L203.994,623.925z"/>
				<path fill="#A49B4B" d="M229.792,607.444v18.508c0,2.359,0.453,4.127,1.359,5.307s2.438,1.769,4.594,1.769
					c2.158,0,3.689-0.589,4.596-1.769c0.905-1.18,1.358-2.947,1.358-5.307v-18.508h5.608v17.775c0,2.215-0.209,4.127-0.625,5.736
					c-0.418,1.611-1.086,2.949-2.006,4.014c-0.922,1.063-2.123,1.848-3.604,2.351c-1.481,0.502-3.271,0.754-5.371,0.754
					c-2.129,0-3.918-0.252-5.371-0.754c-1.452-0.503-2.639-1.287-3.559-2.351c-0.921-1.064-1.582-2.402-1.984-4.014
					c-0.403-1.609-0.604-3.521-0.604-5.736v-17.775H229.792z"/>
				<path fill="#A49B4B" d="M264.392,638.074c-2.589,0-4.782-0.46-6.58-1.382c-1.797-0.922-3.343-2.132-4.637-3.631l3.839-3.715
					c1.036,1.197,2.192,2.111,3.474,2.738c1.279,0.629,2.695,0.942,4.248,0.942c1.754,0,3.078-0.378,3.97-1.134
					c0.892-0.757,1.337-1.776,1.337-3.061c0-1-0.287-1.813-0.862-2.441c-0.575-0.627-1.654-1.084-3.235-1.37l-2.848-0.427
					c-6.012-0.951-9.017-3.874-9.017-8.77c0-1.354,0.251-2.576,0.755-3.67c0.503-1.096,1.229-2.031,2.179-2.809
					c0.95-0.777,2.093-1.375,3.431-1.793c1.337-0.417,2.854-0.626,4.551-0.626c2.271,0,4.256,0.375,5.953,1.124
					c1.697,0.75,3.149,1.857,4.357,3.328l-3.883,3.675c-0.748-0.912-1.654-1.654-2.718-2.225c-1.064-0.569-2.401-0.855-4.013-0.855
					c-1.639,0-2.868,0.307-3.688,0.92c-0.82,0.612-1.23,1.476-1.23,2.587c0,1.141,0.33,1.981,0.992,2.523
					c0.662,0.541,1.727,0.941,3.193,1.197l2.804,0.518c3.048,0.548,5.299,1.52,6.751,2.916c1.453,1.396,2.18,3.347,2.18,5.852
					c0,1.44-0.253,2.742-0.756,3.909c-0.503,1.165-1.236,2.173-2.2,3.022s-2.143,1.504-3.536,1.966
					C267.806,637.845,266.203,638.074,264.392,638.074z"/>
				<path fill="#A49B4B" d="M287.644,607.444v18.508c0,2.359,0.453,4.127,1.359,5.307c0.905,1.18,2.438,1.769,4.594,1.769
					c2.157,0,3.688-0.589,4.595-1.769c0.905-1.18,1.358-2.947,1.358-5.307v-18.508h5.608v17.775c0,2.215-0.208,4.127-0.625,5.736
					c-0.418,1.611-1.086,2.949-2.007,4.014c-0.92,1.063-2.121,1.848-3.602,2.351c-1.482,0.502-3.272,0.754-5.371,0.754
					c-2.129,0-3.92-0.252-5.371-0.754c-1.453-0.503-2.639-1.287-3.559-2.351c-0.922-1.064-1.582-2.402-1.984-4.014
					c-0.404-1.609-0.604-3.521-0.604-5.736v-17.775H287.644z"/>
			</g>
		</g>
	</g>
</g>
</svg>
