<?xml version="1.0" encoding="utf-8"?>
<!-- Generator: Adobe Illustrator 16.0.0, SVG Export Plug-In . SVG Version: 6.00 Build 0)  -->
<!DOCTYPE svg PUBLIC "-//W3C//DTD SVG 1.0//EN" "http://www.w3.org/TR/2001/REC-SVG-20010904/DTD/svg10.dtd">
<svg version="1.0" id="Logotypes" xmlns="http://www.w3.org/2000/svg" xmlns:xlink="http://www.w3.org/1999/xlink" x="0px" y="0px"
	 width="633.19px" height="581.904px" viewBox="0 0 633.19 581.904" enable-background="new 0 0 633.19 581.904"
	 xml:space="preserve">
<g>
	<defs>
		<rect id="SVGID_35_" y="6.578" width="633.19" height="575.327"/>
	</defs>
	<clipPath id="SVGID_2_">
		<use xlink:href="#SVGID_35_"  overflow="visible"/>
	</clipPath>
	<g clip-path="url(#SVGID_2_)">
		<g>
			<g>
				<g>
					<path fill="#FFFFFF" d="M79.222,142.364c-4.553,10.764-7.26,22.072-8.085,33.713c1.794-1.461,4.08-2.34,6.568-2.34
						c2.748,0,5.244,1.078,7.108,2.818c3.669-47.794,43.612-85.435,92.351-85.435c3.777,0,6.838-3.063,6.838-6.838
						c0-3.777-3.061-6.837-6.838-6.837c-14.344,0-28.268,2.812-41.383,8.359c-12.659,5.355-24.025,13.016-33.784,22.776
						C92.238,118.337,84.575,129.704,79.222,142.364z"/>
					<path fill="#FFFFFF" d="M169.594,276.064c-47.478-3.842-84.836-43.483-85.051-91.899c0-3.776-3.061-6.837-6.838-6.837
						c-3.776,0-6.838,3.062-6.838,6.837c0.055,14.198,2.861,27.977,8.354,40.963c5.354,12.66,13.017,24.027,22.776,33.785
						c9.758,9.759,21.125,17.421,33.784,22.777c10.629,4.494,21.787,7.193,33.27,8.055c-1.443-1.789-2.313-4.061-2.313-6.533
						C166.738,280.444,167.83,277.933,169.594,276.064z"/>
					<path fill="#FFFFFF" d="M251.266,250.284c-1.335-1.334-3.084-2.002-4.834-2.002s-3.501,0.668-4.836,2.002
						c-16.672,16.146-39.389,26.09-64.432,26.09c-3.775,0-6.838,3.061-6.838,6.838c0,3.775,3.063,6.838,6.838,6.838
						c14.346,0,28.268-2.813,41.383-8.359c12.203-5.162,23.201-12.475,32.719-21.734
						C253.938,257.286,253.938,252.956,251.266,250.284z"/>
					<path fill="#FFFFFF" d="M177.164,290.05c-3.775,0-6.838-3.063-6.838-6.838c0-3.777,3.063-6.838,6.838-6.838
						c25.043,0,47.76-9.943,64.432-26.09c1.335-1.334,3.086-2.002,4.836-2.002s3.499,0.668,4.834,2.002
						c2.672,2.672,2.672,7.002,0,9.672c-9.518,9.26-20.516,16.572-32.719,21.734C205.432,287.237,191.51,290.05,177.164,290.05z
						 M135.781,281.69c-12.659-5.355-24.025-13.018-33.784-22.777c-9.759-9.758-17.422-21.125-22.776-33.785
						c-5.493-12.987-8.3-26.766-8.354-40.963c0-3.776,3.062-6.837,6.838-6.837c3.777,0,6.838,3.062,6.838,6.837
						c0.215,48.416,37.573,88.057,85.051,91.899c-1.764,1.869-2.855,4.38-2.855,7.148c0,2.473,0.869,4.744,2.313,6.533
						C157.568,288.884,146.41,286.185,135.781,281.69z M177.164,77.445c3.777,0,6.838,3.06,6.838,6.837
						c0,3.775-3.061,6.838-6.838,6.838c-48.738,0-88.682,37.641-92.351,85.435c-1.864-1.74-4.36-2.818-7.108-2.818
						c-2.488,0-4.774,0.879-6.568,2.34c0.825-11.641,3.532-22.949,8.085-33.713c5.354-12.66,13.017-24.027,22.776-33.785
						c9.758-9.76,21.125-17.42,33.784-22.776C148.896,80.257,162.82,77.445,177.164,77.445z"/>
				</g>
				<g>
					<g>
						<g>
							<path fill="#FFFFFF" d="M233.459,127.454c-15.036-15.037-35.029-23.316-56.295-23.316c-21.264,0-41.256,8.279-56.292,23.316
								c-15.036,15.035-23.318,35.027-23.318,56.293c0,21.266,8.282,41.256,23.318,56.293
								c15.036,15.035,35.028,23.318,56.292,23.318c21.266,0,41.259-8.283,56.295-23.318c15.035-15.037,23.315-35.027,23.315-56.293
								C256.774,162.481,248.494,142.489,233.459,127.454z"/>
							<path fill="#333E48" d="M121.059,209.491v-51.488h11.168v3.805h-6.473v43.879h6.473v3.805H121.059z"/>
							<path fill="#333E48" d="M233.271,158.003v51.488h-11.166v-3.805h6.471v-43.879h-6.471v-3.805H233.271z"/>
							<path fill="#00C2F3" d="M146.994,194.206c0,1.029,0.017,2.242,0.048,3.637c0.032,1.395,0.075,2.813,0.13,4.248
								c0.053,1.438,0.117,2.811,0.193,4.119c0.074,1.309,0.166,2.403,0.272,3.281h-6.597v-36.365c0-3.13-0.053-5.969-0.161-8.512
								c-0.106-2.543-0.268-4.746-0.483-6.611h6.598V194.206z"/>
							<path fill="#00C2F3" d="M175.798,176.667v4.217h-6.05v24.393h6.05v4.217h-18.021v-4.217h5.953v-24.393h-5.953v-4.217H175.798
								z"/>
							<path fill="#00C2F3" d="M189.314,176.667c0.129,0.344,0.258,0.787,0.387,1.336c0.13,0.547,0.246,1.121,0.354,1.721
								c0.106,0.602,0.203,1.191,0.291,1.772l0.256,1.445c2.061-2.443,4.129-4.209,6.211-5.293c2.082-1.082,4.25-1.625,6.502-1.625
								c1.717,0,3.234,0.285,4.553,0.854c1.32,0.571,2.431,1.471,3.332,2.704c0.9,1.234,1.58,2.834,2.043,4.794
								c0.462,1.965,0.691,4.328,0.691,7.098v14.48c0,3.625-0.316,6.637-0.949,9.028c-0.632,2.392-1.519,4.302-2.654,5.73
								c-1.137,1.424-2.506,2.434-4.104,3.023c-1.599,0.59-3.374,0.885-5.326,0.885c-0.965,0-2.001-0.156-3.105-0.467
								c-1.105-0.311-2.107-0.744-3.01-1.303l2.092-4.828c0.494,0.365,1.153,0.67,1.98,0.918c0.825,0.246,1.668,0.369,2.524,0.369
								c1.031,0,1.954-0.166,2.771-0.498c0.814-0.332,1.506-0.916,2.074-1.754c0.568-0.835,1.003-1.984,1.304-3.442
								c0.3-1.459,0.45-3.315,0.45-5.568v-14.161c0-2.574-0.135-4.66-0.402-6.258c-0.268-1.6-0.672-2.844-1.207-3.734
								c-0.536-0.891-1.207-1.484-2.013-1.787c-0.804-0.299-1.741-0.449-2.815-0.449c-1.158,0-2.288,0.274-3.394,0.823
								c-1.104,0.544-2.12,1.253-3.043,2.123c-0.923,0.867-1.737,1.85-2.444,2.944c-0.708,1.095-1.234,2.187-1.578,3.283v18.666
								h-5.953V189.7c0-3.174-0.184-5.861-0.548-8.061c-0.364-2.199-0.72-3.857-1.062-4.972H189.314z"/>
						</g>
					</g>
				</g>
			</g>
		</g>
		<g>
			<g>
				<path fill="#FFFFFF" d="M129.766,453.852H97.559v-5.347h32.208V453.852z M125.575,510.782h-5.518v-5.86h-12.875v5.86h-5.603
					v-28.915h23.996V510.782z M125.318,464.888l-23.653,0.085v-5.346h23.653V464.888z M125.403,476.094h-23.739v-5.347h23.739
					V476.094z M124.334,442.988l-21.729,0.086v-5.347h21.729V442.988z M120.057,499.661v-12.532h-12.96v12.532H120.057z
					 M175.318,476.179l-46.237,0.085v-5.261h11.463l2.481-13.217h-10.693v-5.261h11.549l1.839-9.795h-16.382v-5.346h42.473v5.261
					h-20.317l-1.753,9.795h17.623l-1.84,18.477h9.795V476.179z M167.876,510.953h-5.518v-5.774h-21.643v5.774h-5.604v-29h32.764
					V510.953z M162.358,499.917v-12.703H140.63v12.703H162.358z M161.503,457.702H148.8l-2.48,13.302h13.858L161.503,457.702z"/>
				<path fill="#FFFFFF" d="M271.761,453.852h-77.759v-5.347h77.759V453.852z M260.298,464.802h-55.604v-5.175h55.604V464.802z
					 M260.298,475.922h-55.604v-5.175h55.604V475.922z M258.288,510.953h-5.518v-6.031H212.65v6.031h-5.518v-29.085h51.156V510.953z
					 M258.203,442.432l-50.643,0.128v-5.175h50.643V442.432z M252.771,499.661v-12.532H212.65v12.532H252.771z"/>
				<path fill="#FFFFFF" d="M368.205,495.47h-34.432v5.945c0,6.358-3.379,9.538-10.138,9.538h-5.688l-2.096-5.261h7.956
					c2.794,0,4.192-1.284,4.192-3.85v-6.373h-37.555v-5.347h37.555v-3.679c5.958-2.224,10.222-4.305,12.789-6.244h-32.764v-4.919
					h42.261v4.663c-4.45,3.022-9.953,6.116-16.511,9.281v0.898h34.432V495.47z M364.612,479.601h-5.134v-8.854h-59.751v9.367h-5.604
					v-14.371h7.356v-26.092c4.049-0.399,8.484-2.324,13.304-5.774l2.823,3.935c-2.597,2.396-6.132,4.207-10.608,5.432v3.593h10.949
					v4.448h-10.949v4.662h10.949v4.362h-10.949v5.433h45.467v-5.433h-10.437v-4.277h10.437v-5.004h-10.351v-4.363h10.351v-4.663
					h-12.104v-5.175h17.536v28.829h6.716V479.601z M340.359,446.41l-2.994,3.678c-1.626-1.567-3.836-3.265-6.63-5.09
					c-2.31,1.939-4.905,3.721-7.785,5.347l-3.507-3.08c2.766-1.14,5.189-2.48,7.272-4.02c-3.48-1.312-6.288-2.224-8.427-2.737
					l2.183-3.936c3.164,0.798,6.344,1.826,9.538,3.08c2.025-1.909,3.721-3.863,5.09-5.859l3.593,2.866
					c-1.142,1.768-2.624,3.494-4.448,5.175C336.353,443.031,338.392,444.556,340.359,446.41z M340.872,461.979l-3.592,2.823
					c-2.31-1.768-4.706-3.236-7.186-4.405c-1.54,1.169-4.277,2.637-8.212,4.405l-3.251-2.566c3.678-1.739,6.315-3.251,7.914-4.534
					c-1.598-0.998-4.021-2.11-7.272-3.337l3.208-2.694c2.937,1.056,5.446,2.153,7.528,3.293c0.797-0.455,2.409-1.824,4.833-4.106
					l3.935,2.01c-1.454,1.882-3.078,3.437-4.875,4.663C336.268,458.614,338.591,460.097,340.872,461.979z"/>
				<path fill="#FFFFFF" d="M464.562,495.47H430.13v5.945c0,6.358-3.379,9.538-10.137,9.538h-5.688l-2.096-5.261h7.956
					c2.793,0,4.191-1.284,4.191-3.85v-6.373h-37.554v-5.347h37.554v-3.679c5.959-2.224,10.222-4.305,12.789-6.244h-32.764v-4.919
					h42.26v4.663c-4.449,3.022-9.953,6.116-16.511,9.281v0.898h34.432V495.47z M460.97,479.601h-5.135v-8.854h-59.751v9.367h-5.603
					v-14.371h7.356v-26.092c4.049-0.399,8.483-2.324,13.302-5.774l2.823,3.935c-2.594,2.396-6.131,4.207-10.608,5.432v3.593h10.951
					v4.448h-10.951v4.662h10.951v4.362h-10.951v5.433h45.467v-5.433h-10.436v-4.277h10.436v-5.004H438.47v-4.363h10.351v-4.663
					h-12.104v-5.175h17.537v28.829h6.717V479.601z M438.24,461.019l-3.897,3.563c-1.779-2.673-4.324-6.018-6.786-8.096
					c-3.827,4.263-6.973,6.976-9.432,8.137l-3.856-3.238c2.899-1.379,6.042-3.955,9.434-7.732c-3.856-2.402-6.604-3.887-8.244-4.455
					l3.364-3.479c1.367,0.54,3.935,1.942,7.711,4.21c1.122-1.836,1.995-3.847,2.624-6.033h-12.879v-5.06h6.905v-5.21h4.431v5.21
					h8.195v5.06h-1.623c-0.91,3.349-2.135,6.25-3.675,8.705C433.493,454.867,436.354,458.32,438.24,461.019z"/>
				<path fill="#FFFFFF" d="M562.33,453.682l-3.079,4.448c-9.725-2.395-17.337-5.161-22.84-8.297v3.85h-28.915v-4.235
					c-8.326,4.306-15.797,7.115-22.413,8.426l-2.822-4.491c16.024-3.906,29.369-10.437,40.035-19.59l5.261,1.753
					c-0.571,0.713-1.07,1.212-1.498,1.497C535.525,444.913,547.616,450.459,562.33,453.682z M553.219,478.189h-62.104v-20.06h62.104
					V478.189z M548.13,511.038h-5.261v-3.422h-41.318v3.422h-5.261v-28.357h51.839V511.038z M519.601,473.57v-10.693h-23.226v10.693
					H519.601z M542.869,492.903v-5.518h-41.318v5.518H542.869z M542.869,502.998v-5.604h-41.318v5.604H542.869z M513.912,469.335
					l-4.405,3.08c-2.651-2.679-5.247-4.662-7.785-5.945l4.448-2.566C509.192,465.187,511.773,466.998,513.912,469.335z
					 M534.657,448.934c-4.135-2.167-8.142-5.09-12.02-8.769c-4.135,3.422-8.768,6.345-13.9,8.769H534.657z M547.959,473.57v-10.693
					h-23.097v10.693H547.959z M542.783,465.4c-1.683,2.681-4.221,4.962-7.613,6.844l-4.705-2.352c3.736-2.11,6.302-4.22,7.698-6.331
					L542.783,465.4z"/>
			</g>
			<g>
				<path fill="#FFFFFF" d="M130.169,383.932l-1.634,1.881c-4.896-1.722-9.558-4.756-13.986-9.102l0.035,6.87h8.206v15.11h-2.231
					v-2.02h-14.215v2.02h-2.302v-15.11h8.24v-6.87c-2.413,3.689-6.771,6.578-13.072,8.663l-1.651-1.863
					c5.587-1.476,9.582-3.742,11.983-6.8h-9.998v-2.196h12.738v-3.391c-2.799,0.282-6.313,0.486-10.542,0.616l-1.511-2.126
					c9.991-0.036,17.968-0.872,23.931-2.513l1.687,1.688c-3.315,0.89-7.069,1.575-11.262,2.055v3.672h12.914v2.196l-10.068-0.035
					C121.156,379.909,125.402,382.328,130.169,383.932z M120.559,388.869v-3.092h-14.25v3.092H120.559z M120.559,394.509v-3.479
					h-14.25v3.479H120.559z"/>
				<path fill="#FFFFFF" d="M139.307,385.548c-1.477,4.581-3.41,8.336-5.798,11.264l2.055,1.3c2.658-3.351,4.616-7.104,5.869-11.263
					L139.307,385.548z M135.599,375.797l-1.477,1.845c2.331,0.996,4.176,2.424,5.536,4.287l1.545-2.09
					C139.985,378.209,138.117,376.863,135.599,375.797z M137.32,367.926l-1.651,1.687c2.249,0.808,4.023,2.167,5.324,4.076
					l1.651-1.775C141.391,370.098,139.616,368.77,137.32,367.926z"/>
				<path fill="#FFFFFF" d="M160.285,390.891v-6.625c1.394,1.313,2.894,2.39,4.499,3.234l1.441-1.952
					c-3.069-1.311-5.46-3.385-7.169-6.219h6.008v-2.161h-5.745v-4.2h4.339v-2.162h-4.339v-3.706h-2.232v3.742h-6.518v-3.742h-2.232
					v3.742h-4.321v2.16h4.357v4.199h-5.728v2.163h5.798c-1.299,2.436-3.648,4.463-7.045,6.078l1.651,1.951
					c1.005-0.583,1.93-1.215,2.776-1.897v9.418c0,2.015,1.008,3.021,3.022,3.021h11.508c0.938,0,1.679-0.311,2.223-0.931
					c0.545-0.621,0.971-1.845,1.274-3.671l-2.267-1.02c-0.152,1.464-0.374,2.4-0.667,2.81c-0.293,0.411-0.686,0.615-1.177,0.615
					h-10.719c-0.645,0-0.965-0.322-0.965-0.967v-3.882H160.285z M150.569,372.968h6.554v4.2h-6.554V372.968z M150.779,379.329h5.974
					c0.575,1.358,1.441,2.688,2.601,3.989h-11.157C149.461,381.924,150.323,380.593,150.779,379.329z M148.057,385.479h9.997v3.286
					h-9.997V385.479z"/>
				<path fill="#FFFFFF" d="M202.067,396.934l-1.634,1.827c-7.322-3.994-11.972-10.723-13.951-20.188
					c-2.449,9.617-7.438,16.346-14.97,20.188l-1.775-2.09c7.461-3.631,12.188-9.652,14.179-18.062h-11.948v-2.267h12.211
					c0.223-2.202,0.316-5.283,0.281-9.242l2.442,0.352c0.058,3.584-0.012,6.536-0.211,8.855h13.318v2.267h-11.087
					C190.33,386.597,194.711,392.717,202.067,396.934z"/>
				<path fill="#FFFFFF" d="M237.894,392.366h-14.145v2.443c0,2.611-1.388,3.918-4.164,3.918h-2.337l-0.861-2.161h3.268
					c1.147,0,1.722-0.527,1.722-1.582v-2.618h-15.426v-2.196h15.426v-1.511c2.448-0.913,4.2-1.769,5.254-2.565h-13.459v-2.021
					h17.359v1.915c-1.827,1.242-4.088,2.513-6.782,3.813v0.369h14.145V392.366z M236.418,385.847h-2.108v-3.637h-24.546v3.848
					h-2.301v-5.903h3.022v-10.718c1.663-0.164,3.484-0.955,5.464-2.372l1.16,1.617c-1.066,0.984-2.519,1.728-4.357,2.231v1.476
					h4.498v1.828h-4.498v1.915h4.498v1.792h-4.498v2.232h18.678v-2.232h-4.287v-1.757h4.287v-2.056h-4.252v-1.792h4.252v-1.915
					h-4.973v-2.126h7.204v11.842h2.759V385.847z M226.455,372.213l-1.23,1.51c-0.667-0.644-1.575-1.34-2.723-2.09
					c-0.949,0.797-2.015,1.529-3.198,2.196l-1.44-1.265c1.136-0.469,2.131-1.019,2.986-1.652c-1.429-0.539-2.583-0.914-3.461-1.125
					l0.896-1.616c1.3,0.329,2.606,0.75,3.918,1.265c0.831-0.784,1.528-1.587,2.091-2.407l1.476,1.178
					c-0.469,0.726-1.078,1.435-1.828,2.126C224.809,370.824,225.646,371.452,226.455,372.213z M226.666,378.608l-1.476,1.16
					c-0.949-0.726-1.933-1.33-2.952-1.81c-0.633,0.48-1.758,1.084-3.374,1.81l-1.335-1.055c1.511-0.714,2.594-1.335,3.251-1.862
					c-0.657-0.41-1.652-0.866-2.987-1.37l1.317-1.107c1.207,0.434,2.238,0.885,3.093,1.353c0.328-0.188,0.989-0.749,1.985-1.687
					l1.616,0.826c-0.597,0.773-1.265,1.411-2.003,1.915C224.774,377.226,225.729,377.835,226.666,378.608z"/>
				<path fill="#FFFFFF" d="M273.877,392.366h-14.144v2.443c0,2.611-1.388,3.918-4.164,3.918h-2.337l-0.861-2.161h3.268
					c1.147,0,1.722-0.527,1.722-1.582v-2.618h-15.427v-2.196h15.427v-1.511c2.448-0.913,4.199-1.769,5.253-2.565h-13.458v-2.021
					h17.359v1.915c-1.828,1.242-4.088,2.513-6.782,3.813v0.369h14.144V392.366z M272.401,385.847h-2.108v-3.637h-24.545v3.848
					h-2.302v-5.903h3.022v-10.718c1.663-0.164,3.484-0.955,5.464-2.372l1.16,1.617c-1.066,0.984-2.519,1.728-4.357,2.231v1.476
					h4.498v1.828h-4.498v1.915h4.498v1.792h-4.498v2.232h18.677v-2.232h-4.288v-1.757h4.288v-2.056h-4.252v-1.792h4.252v-1.915
					h-4.972v-2.126h7.203v11.842h2.759V385.847z M262.439,372.213l-1.23,1.51c-0.668-0.644-1.576-1.34-2.724-2.09
					c-0.949,0.797-2.015,1.529-3.198,2.196l-1.441-1.265c1.136-0.469,2.131-1.019,2.987-1.652c-1.429-0.539-2.583-0.914-3.461-1.125
					l0.896-1.616c1.301,0.329,2.606,0.75,3.918,1.265c0.832-0.784,1.529-1.587,2.092-2.407l1.476,1.178
					c-0.469,0.726-1.078,1.435-1.828,2.126C260.793,370.824,261.631,371.452,262.439,372.213z M262.65,378.608l-1.477,1.16
					c-0.948-0.726-1.932-1.33-2.952-1.81c-0.632,0.48-1.757,1.084-3.374,1.81l-1.335-1.055c1.511-0.714,2.595-1.335,3.25-1.862
					c-0.656-0.41-1.651-0.866-2.987-1.37l1.318-1.107c1.207,0.434,2.237,0.885,3.092,1.353c0.328-0.188,0.99-0.749,1.986-1.687
					l1.616,0.826c-0.598,0.773-1.265,1.411-2.003,1.915C260.758,377.226,261.713,377.835,262.65,378.608z"/>
				<path fill="#FFFFFF" d="M309.861,396.969h-31.978v-2.266h14.9v-8.241h-10.735v-2.267h10.735v-7.168h-7.96
					c-0.96,2.495-2.564,4.797-4.813,6.905l-2.319-1.212c3.842-3.549,5.979-7.895,6.413-13.037l2.372,0.685
					c-0.094,1.195-0.369,2.671-0.825,4.428h7.097V367.1h2.373v7.661h12.404v2.267h-12.404v7.134h10.577v2.266h-10.577v8.241h14.741
					V396.969z"/>
				<path fill="#FFFFFF" d="M346.425,375.199l-1.265,1.828c-3.994-0.984-7.122-2.12-9.382-3.408v1.581H323.9v-1.739
					c-3.42,1.769-6.489,2.923-9.208,3.461l-1.159-1.845c6.582-1.604,12.064-4.287,16.446-8.047l2.161,0.721
					c-0.234,0.293-0.439,0.498-0.614,0.615C335.415,371.598,340.381,373.876,346.425,375.199z M342.684,385.268h-25.513v-8.241
					h25.513V385.268z M340.593,398.761h-2.162v-1.405h-16.973v1.405h-2.161v-11.648h21.296V398.761z M328.873,383.37v-4.393h-9.541
					v4.393H328.873z M338.431,391.312v-2.267h-16.973v2.267H338.431z M338.431,395.458v-2.301h-16.973v2.301H338.431z
					 M326.536,381.63l-1.81,1.265c-1.089-1.101-2.155-1.915-3.198-2.442l1.828-1.054C324.597,379.926,325.657,380.67,326.536,381.63
					z M335.058,373.25c-1.699-0.89-3.345-2.091-4.938-3.603c-1.697,1.406-3.601,2.607-5.709,3.603H335.058z M340.521,383.37v-4.393
					h-9.487v4.393H340.521z M338.396,380.014c-0.691,1.101-1.733,2.038-3.127,2.811l-1.932-0.966
					c1.534-0.867,2.589-1.734,3.162-2.601L338.396,380.014z"/>
				<path fill="#FFFFFF" d="M382.199,396.459l-1.547,2.056c-5.962-1.757-10.8-4.123-14.512-7.099
					c-3.2,2.612-8.223,5.025-15.077,7.239l-1.721-2.091c6.63-1.839,11.644-4.07,15.041-6.694c-3.408-3.222-5.7-7.139-6.87-11.755
					c-0.632,1.628-1.5,3.174-2.601,4.639l-1.861-1.704c1.476-1.757,2.663-3.685,3.565-5.781h-6.044v-2.161h14.093V367.1h2.266v5.974
					h14.337v2.162h-6.01c-1.053,6.115-3.478,10.981-7.274,14.601C371.439,392.459,376.178,394.667,382.199,396.459z
					 M372.904,375.235h-13.598c0.936,5.423,3.226,9.787,6.869,13.09C369.735,385.01,371.979,380.646,372.904,375.235z"/>
				<path fill="#FFFFFF" d="M417.815,392.366h-14.146v2.443c0,2.611-1.387,3.918-4.164,3.918h-2.337l-0.86-2.161h3.267
					c1.148,0,1.723-0.527,1.723-1.582v-2.618h-15.426v-2.196h15.426v-1.511c2.448-0.913,4.199-1.769,5.252-2.565h-13.458v-2.021
					h17.359v1.915c-1.827,1.242-4.088,2.513-6.782,3.813v0.369h14.146V392.366z M416.339,385.847h-2.109v-3.637h-24.546v3.848
					h-2.302v-5.903h3.022v-10.718c1.663-0.164,3.485-0.955,5.465-2.372l1.159,1.617c-1.065,0.984-2.519,1.728-4.358,2.231v1.476
					h4.499v1.828h-4.499v1.915h4.499v1.792h-4.499v2.232h18.679v-2.232h-4.289v-1.757h4.289v-2.056h-4.252v-1.792h4.252v-1.915
					h-4.973v-2.126h7.203v11.842h2.76V385.847z M406.376,372.213l-1.231,1.51c-0.666-0.644-1.574-1.34-2.722-2.09
					c-0.949,0.797-2.016,1.529-3.198,2.196l-1.44-1.265c1.136-0.469,2.131-1.019,2.986-1.652c-1.429-0.539-2.584-0.914-3.461-1.125
					l0.897-1.616c1.299,0.329,2.605,0.75,3.917,1.265c0.832-0.784,1.528-1.587,2.09-2.407l1.477,1.178
					c-0.469,0.726-1.079,1.435-1.827,2.126C404.73,370.824,405.567,371.452,406.376,372.213z M406.586,378.608l-1.476,1.16
					c-0.948-0.726-1.933-1.33-2.952-1.81c-0.633,0.48-1.757,1.084-3.374,1.81l-1.336-1.055c1.512-0.714,2.596-1.335,3.251-1.862
					c-0.655-0.41-1.652-0.866-2.987-1.37l1.318-1.107c1.207,0.434,2.237,0.885,3.093,1.353c0.329-0.188,0.99-0.749,1.985-1.687
					l1.616,0.826c-0.597,0.773-1.264,1.411-2.001,1.915C404.694,377.226,405.648,377.835,406.586,378.608z"/>
				<path fill="#FFFFFF" d="M429.831,379.047c2.367,2.659,3.551,5.254,3.551,7.784c0,1.23-0.319,2.208-0.958,2.934
					c-0.637,0.727-1.531,1.09-2.679,1.09c-0.632,0-1.395-0.077-2.284-0.228l-0.65-2.337c1.253,0.317,2.155,0.475,2.706,0.475
					c0.456,0,0.873-0.176,1.248-0.527c0.375-0.351,0.563-0.82,0.563-1.406c0-0.878-0.322-2.002-0.966-3.374
					c-0.645-1.37-1.612-2.676-2.9-3.917l3.427-8.804h-5.218v27.99h-2.303v-30.221h9.856v2.231L429.831,379.047z M454.062,392.278
					c-0.305,1.897-0.714,3.274-1.23,4.128c-0.515,0.855-1.354,1.283-2.512,1.283h-2.741c-1.828,0-2.741-0.961-2.741-2.881v-9.295
					h-3.708c-0.07,3.771-0.805,6.598-2.205,8.478c-1.4,1.88-3.997,3.458-7.793,4.735l-1.476-2.021
					c3.525-1.042,5.945-2.39,7.257-4.042c1.312-1.651,1.973-4.023,1.985-7.115h-4.814v-2.302h18.819v2.267h-5.871v8.75
					c0,0.292,0.094,0.565,0.282,0.817c0.188,0.252,0.41,0.377,0.668,0.377h2.231c0.457,0,0.806-0.375,1.046-1.125
					c0.239-0.749,0.441-1.721,0.606-2.917L454.062,392.278z M452.041,376.342l-2.231,0.035v-3.093h-13.249v3.093h-2.267v-5.324
					h7.713v-3.988h2.303v3.954h7.73V376.342z M449.09,379.732h-11.878v-2.301h11.878V379.732z"/>
				<path fill="#FFFFFF" d="M489.783,392.366h-14.146v2.443c0,2.611-1.389,3.918-4.164,3.918h-2.337l-0.861-2.161h3.268
					c1.148,0,1.723-0.527,1.723-1.582v-2.618h-15.428v-2.196h15.428v-1.511c2.448-0.913,4.199-1.769,5.253-2.565h-13.459v-2.021
					h17.359v1.915c-1.827,1.242-4.088,2.513-6.782,3.813v0.369h14.146V392.366z M488.306,385.847h-2.108v-3.637h-24.545v3.848
					h-2.303v-5.903h3.023v-10.718c1.662-0.164,3.484-0.955,5.463-2.372l1.16,1.617c-1.066,0.984-2.518,1.728-4.357,2.231v1.476
					h4.498v1.828h-4.498v1.915h4.498v1.792h-4.498v2.232h18.677v-2.232h-4.287v-1.757h4.287v-2.056h-4.251v-1.792h4.251v-1.915
					h-4.972v-2.126h7.203v11.842h2.759V385.847z M478.344,372.213l-1.231,1.51c-0.668-0.644-1.575-1.34-2.724-2.09
					c-0.948,0.797-2.014,1.529-3.197,2.196l-1.441-1.265c1.137-0.469,2.133-1.019,2.988-1.652c-1.43-0.539-2.583-0.914-3.461-1.125
					l0.896-1.616c1.301,0.329,2.607,0.75,3.918,1.265c0.832-0.784,1.529-1.587,2.092-2.407l1.476,1.178
					c-0.469,0.726-1.079,1.435-1.828,2.126C476.698,370.824,477.536,371.452,478.344,372.213z M478.555,378.608l-1.476,1.16
					c-0.949-0.726-1.934-1.33-2.951-1.81c-0.634,0.48-1.757,1.084-3.375,1.81l-1.335-1.055c1.511-0.714,2.594-1.335,3.251-1.862
					c-0.657-0.41-1.653-0.866-2.988-1.37l1.318-1.107c1.207,0.434,2.237,0.885,3.092,1.353c0.328-0.188,0.989-0.749,1.986-1.687
					l1.616,0.826c-0.597,0.773-1.265,1.411-2.003,1.915C476.663,377.226,477.618,377.835,478.555,378.608z"/>
				<path fill="#FFFFFF" d="M525.766,396.969h-31.977v-2.266h14.898v-8.241h-10.735v-2.267h10.735v-7.168h-7.959
					c-0.96,2.495-2.565,4.797-4.814,6.905l-2.318-1.212c3.841-3.549,5.979-7.895,6.413-13.037l2.372,0.685
					c-0.094,1.195-0.369,2.671-0.827,4.428h7.1V367.1h2.372v7.661h12.404v2.267h-12.404v7.134h10.578v2.266h-10.578v8.241h14.741
					V396.969z"/>
				<path fill="#FFFFFF" d="M562.33,375.199l-1.264,1.828c-3.994-0.984-7.123-2.12-9.383-3.408v1.581h-11.878v-1.739
					c-3.42,1.769-6.489,2.923-9.206,3.461l-1.16-1.845c6.583-1.604,12.065-4.287,16.446-8.047l2.161,0.721
					c-0.235,0.293-0.44,0.498-0.614,0.615C551.319,371.598,556.287,373.876,562.33,375.199z M558.588,385.268h-25.512v-8.241h25.512
					V385.268z M556.498,398.761h-2.162v-1.405h-16.973v1.405h-2.161v-11.648h21.296V398.761z M544.777,383.37v-4.393h-9.54v4.393
					H544.777z M554.335,391.312v-2.267h-16.973v2.267H554.335z M554.335,395.458v-2.301h-16.973v2.301H554.335z M542.44,381.63
					l-1.81,1.265c-1.089-1.101-2.155-1.915-3.197-2.442l1.827-1.054C540.502,379.926,541.562,380.67,542.44,381.63z M550.962,373.25
					c-1.698-0.89-3.343-2.091-4.937-3.603c-1.7,1.406-3.603,2.607-5.71,3.603H550.962z M556.427,383.37v-4.393h-9.487v4.393H556.427
					z M554.301,380.014c-0.692,1.101-1.734,2.038-3.128,2.811l-1.932-0.966c1.534-0.867,2.588-1.734,3.163-2.601L554.301,380.014z"
					/>
			</g>
		</g>
	</g>
</g>
</svg>
