<?xml version="1.0" encoding="utf-8"?>
<!-- Generator: Adobe Illustrator 16.0.0, SVG Export Plug-In . SVG Version: 6.00 Build 0)  -->
<!DOCTYPE svg PUBLIC "-//W3C//DTD SVG 1.0//EN" "http://www.w3.org/TR/2001/REC-SVG-20010904/DTD/svg10.dtd">
<svg version="1.0" id="Logotypes" xmlns="http://www.w3.org/2000/svg" xmlns:xlink="http://www.w3.org/1999/xlink" x="0px" y="0px"
	 width="1612.259px" height="708.673px" viewBox="0 0 1612.259 708.673" enable-background="new 0 0 1612.259 708.673"
	 xml:space="preserve">
<g>
	<defs>
		<rect id="SVGID_29_" y="0.001" width="1612.259" height="708.672"/>
	</defs>
	<clipPath id="SVGID_2_">
		<use xlink:href="#SVGID_29_"  overflow="visible"/>
	</clipPath>
	<g clip-path="url(#SVGID_2_)">
		<g>
			<g>
				<g>
					<path fill="#FFFFFF" d="M158.441,271.573c-9.105,21.527-14.52,44.145-16.17,67.426c3.588-2.922,8.159-4.68,13.137-4.68
						c5.495,0,10.488,2.154,14.217,5.637c7.338-95.592,87.225-170.871,184.701-170.871c7.553,0,13.675-6.123,13.675-13.676
						s-6.122-13.676-13.675-13.676c-28.689,0-56.536,5.625-82.766,16.719c-25.318,10.709-48.053,26.033-67.567,45.549
						C184.475,223.519,169.148,246.253,158.441,271.573z"/>
					<path fill="#FFFFFF" d="M339.186,538.97c-94.955-7.682-169.672-86.963-170.102-183.797c0-7.551-6.12-13.676-13.676-13.676
						c-7.553,0-13.676,6.125-13.676,13.676c0.109,28.395,5.723,55.955,16.709,81.928c10.707,25.318,26.033,48.053,45.552,67.568
						c19.515,19.518,42.249,34.844,67.567,45.553c21.256,8.99,43.573,14.387,66.539,16.111c-2.887-3.58-4.627-8.123-4.627-13.068
						C333.473,547.731,335.656,542.708,339.186,538.97z"/>
					<path fill="#FFFFFF" d="M502.527,487.413c-2.67-2.672-6.17-4.006-9.67-4.006c-3.498,0-7,1.334-9.672,4.006
						c-33.342,32.291-78.775,52.176-128.859,52.176c-7.553,0-13.676,6.123-13.676,13.676s6.123,13.676,13.676,13.676
						c28.69,0,56.535-5.625,82.764-16.719c24.408-10.32,46.401-24.947,65.438-43.469
						C507.871,501.413,507.871,492.755,502.527,487.413z"/>
					<path fill="#FFFFFF" d="M354.326,566.94c-7.553,0-13.676-6.123-13.676-13.676s6.123-13.676,13.676-13.676
						c50.084,0,95.518-19.885,128.859-52.176c2.672-2.672,6.174-4.006,9.672-4.006c3.5,0,7,1.334,9.67,4.006
						c5.344,5.342,5.344,14,0,19.34c-19.036,18.521-41.029,33.148-65.438,43.469C410.861,561.315,383.017,566.94,354.326,566.94z
						 M271.561,550.222c-25.318-10.709-48.053-26.035-67.567-45.553c-19.519-19.516-34.845-42.25-45.552-67.568
						c-10.986-25.973-16.6-53.533-16.709-81.928c0-7.551,6.123-13.676,13.676-13.676c7.556,0,13.676,6.125,13.676,13.676
						c0.43,96.834,75.146,176.115,170.102,183.797c-3.529,3.738-5.713,8.762-5.713,14.295c0,4.945,1.74,9.488,4.627,13.068
						C315.134,564.608,292.816,559.212,271.561,550.222z M354.326,141.733c7.553,0,13.675,6.123,13.675,13.676
						s-6.122,13.676-13.675,13.676c-97.477,0-177.363,75.279-184.701,170.871c-3.729-3.482-8.722-5.637-14.217-5.637
						c-4.978,0-9.549,1.758-13.137,4.68c1.65-23.281,7.064-45.898,16.17-67.426c10.707-25.32,26.033-48.055,45.552-67.572
						c19.515-19.516,42.249-34.84,67.567-45.549C297.79,147.358,325.637,141.733,354.326,141.733z"/>
				</g>
				<g>
					<g>
						<g>
							<path fill="#FFFFFF" d="M466.912,241.751c-30.07-30.072-70.055-46.633-112.586-46.633
								c-42.527,0-82.513,16.561-112.584,46.633c-30.072,30.072-46.637,70.057-46.637,112.586s16.564,82.512,46.637,112.586
								c30.071,30.07,70.057,46.635,112.584,46.635c42.531,0,82.516-16.564,112.586-46.635
								c30.073-30.074,46.633-70.057,46.633-112.586S496.985,271.823,466.912,241.751z"/>
							<path fill="#333E48" d="M242.115,405.827V302.849h22.334v7.611h-12.944v87.754h12.944v7.613H242.115z"/>
							<path fill="#333E48" d="M466.537,302.849v102.979h-22.328v-7.613h12.938V310.46h-12.938v-7.611H466.537z"/>
							<path fill="#333E48" d="M293.986,375.257c0,2.057,0.032,4.484,0.096,7.271c0.063,2.789,0.15,5.623,0.26,8.496
								c0.105,2.875,0.233,5.623,0.387,8.24c0.146,2.617,0.33,4.805,0.545,6.563H282.08v-72.73c0-6.264-0.107-11.938-0.322-17.023
								c-0.213-5.086-0.535-9.494-0.967-13.225h13.195V375.257z"/>
							<path fill="#333E48" d="M351.593,340.177v8.434h-12.101v48.787h12.101v8.432h-36.042v-8.432h11.906V348.61h-11.906v-8.434
								H351.593z"/>
							<path fill="#333E48" d="M378.627,340.177c0.256,0.688,0.514,1.576,0.771,2.674c0.26,1.094,0.492,2.24,0.709,3.441
								c0.211,1.201,0.404,2.383,0.58,3.541l0.512,2.893c4.121-4.891,8.26-8.418,12.422-10.586c4.164-2.166,8.5-3.25,13.003-3.25
								c3.434,0,6.47,0.568,9.107,1.705c2.64,1.141,4.86,2.941,6.663,5.406c1.8,2.469,3.162,5.668,4.088,9.592
								c0.922,3.928,1.383,8.654,1.383,14.193v28.961c0,7.252-0.635,13.273-1.9,18.055c-1.264,4.787-3.037,8.604-5.309,11.461
								c-2.273,2.85-5.012,4.867-8.207,6.047c-3.197,1.18-6.748,1.771-10.652,1.771c-1.931,0-4.001-0.313-6.211-0.934
								c-2.209-0.625-4.215-1.492-6.018-2.607l4.184-9.656c0.986,0.73,2.306,1.342,3.959,1.836c1.65,0.492,3.336,0.738,5.049,0.738
								c2.063,0,3.908-0.33,5.54-0.996c1.63-0.664,3.012-1.832,4.149-3.506c1.137-1.676,2.006-3.971,2.607-6.889
								c0.6-2.918,0.9-6.631,0.9-11.135v-28.32c0-5.148-0.268-9.322-0.805-12.52c-0.535-3.195-1.343-5.686-2.415-7.465
								c-1.071-1.781-2.413-2.973-4.024-3.576c-1.605-0.598-3.483-0.898-5.629-0.898c-2.316,0-4.578,0.547-6.788,1.645
								c-2.21,1.092-4.241,2.508-6.087,4.246c-1.844,1.736-3.474,3.697-4.889,5.889c-1.415,2.189-2.469,4.375-3.156,6.564v37.332
								h-11.906v-39.584c0-6.35-0.365-11.725-1.096-16.123c-0.727-4.398-1.438-7.715-2.123-9.945H378.627z"/>
						</g>
					</g>
				</g>
			</g>
		</g>
		<g>
			<g>
				<path fill="#FFFFFF" d="M731.935,379.633h-54.993v-9.129h54.993V379.633z M724.778,476.839h-9.421v-10.006h-21.983v10.006
					h-9.567v-49.37h40.971V476.839z M724.34,398.476l-40.387,0.146v-9.128h40.387V398.476z M724.486,417.61h-40.533v-9.129h40.533
					V417.61z M722.66,361.083l-37.1,0.146v-9.129h37.1V361.083z M715.357,457.85v-21.397h-22.128v21.397H715.357z M809.714,417.756
					l-78.948,0.146v-8.982h19.572l4.236-22.566h-18.258v-8.983h19.719l3.14-16.725h-27.971v-9.129h72.521v8.983h-34.69
					l-2.994,16.725h30.089l-3.141,31.549h16.725V417.756z M797.006,477.131h-9.421v-9.859h-36.954v9.859h-9.567v-49.516h55.942
					V477.131z M787.585,458.289v-21.69h-37.1v21.69H787.585z M786.125,386.207h-21.69l-4.235,22.713h23.662L786.125,386.207z"/>
				<path fill="#FFFFFF" d="M974.386,379.633H841.615v-9.129h132.771V379.633z M954.813,398.33h-94.942v-8.836h94.942V398.33z
					 M954.813,417.318h-94.942v-8.837h94.942V417.318z M951.381,477.131h-9.421v-10.298h-68.504v10.298h-9.421v-49.662h87.346
					V477.131z M951.235,360.134l-86.47,0.219v-8.837h86.47V360.134z M941.96,457.85v-21.397h-68.504v21.397H941.96z"/>
				<path fill="#FFFFFF" d="M1139.06,450.694h-58.791v10.151c0,10.856-5.77,16.286-17.311,16.286h-9.713l-3.578-8.982h13.584
					c4.771,0,7.158-2.192,7.158-6.573v-10.882h-64.123v-9.129h64.123v-6.281c10.174-3.798,17.453-7.351,21.836-10.662h-55.943
					v-8.399h72.158v7.961c-7.598,5.161-16.994,10.443-28.191,15.848v1.534h58.791V450.694z M1132.925,423.598h-8.766v-15.117
					h-102.023v15.994h-9.569v-24.538h12.561v-44.551c6.912-0.681,14.486-3.968,22.715-9.858l4.82,6.719
					c-4.434,4.09-10.471,7.183-18.113,9.275v6.135h18.695v7.596h-18.695v7.96h18.695v7.448h-18.695v9.276h77.633v-9.276h-17.82
					v-7.303h17.82v-8.544h-17.674v-7.449h17.674v-7.961h-20.668v-8.837h29.943v49.224h11.467V423.598z M1091.515,366.926
					l-5.111,6.28c-2.777-2.677-6.551-5.574-11.32-8.69c-3.943,3.312-8.375,6.354-13.293,9.129l-5.988-5.259
					c4.723-1.946,8.859-4.235,12.416-6.864c-5.941-2.239-10.736-3.798-14.389-4.674l3.727-6.72
					c5.402,1.363,10.832,3.117,16.285,5.258c3.457-3.26,6.354-6.596,8.691-10.005l6.135,4.894c-1.949,3.019-4.48,5.965-7.596,8.837
					C1084.673,361.156,1088.155,363.761,1091.515,366.926z M1092.39,393.509l-6.133,4.82c-3.943-3.019-8.035-5.525-12.27-7.521
					c-2.629,1.996-7.303,4.503-14.021,7.521l-5.551-4.382c6.279-2.969,10.783-5.551,13.512-7.741
					c-2.729-1.703-6.865-3.603-12.416-5.697l5.477-4.6c5.014,1.802,9.299,3.676,12.854,5.622c1.361-0.777,4.113-3.114,8.252-7.011
					l6.719,3.433c-2.482,3.214-5.256,5.868-8.324,7.961C1084.528,387.765,1088.495,390.296,1092.39,393.509z"/>
				<path fill="#FFFFFF" d="M1303.585,450.694h-58.791v10.151c0,10.856-5.77,16.286-17.309,16.286h-9.713l-3.578-8.982h13.584
					c4.77,0,7.156-2.192,7.156-6.573v-10.882h-64.121v-9.129h64.121v-6.281c10.176-3.798,17.453-7.351,21.838-10.662h-55.943v-8.399
					h72.156v7.961c-7.596,5.161-16.994,10.443-28.191,15.848v1.534h58.791V450.694z M1297.452,423.598h-8.768v-15.117h-102.023
					v15.994h-9.566v-24.538h12.561v-44.551c6.914-0.681,14.484-3.968,22.713-9.858l4.82,6.719c-4.43,4.09-10.469,7.183-18.113,9.275
					v6.135h18.697v7.596h-18.697v7.96h18.697v7.448h-18.697v9.276h77.633v-9.276h-17.818v-7.303h17.818v-8.544h-17.674v-7.449
					h17.674v-7.961h-20.668v-8.837h29.943v49.224h11.469V423.598z M1258.642,391.871l-6.654,6.084
					c-3.037-4.563-7.383-10.276-11.586-13.824c-6.533,7.279-11.906,11.912-16.105,13.894l-6.584-5.529
					c4.949-2.354,10.316-6.752,16.107-13.203c-6.584-4.101-11.275-6.637-14.076-7.605l5.744-5.94
					c2.334,0.922,6.719,3.315,13.166,7.189c1.916-3.136,3.406-6.568,4.48-10.302h-21.99v-8.639h11.789v-8.896h7.566v8.896h13.992
					v8.639h-2.77c-1.555,5.718-3.646,10.671-6.275,14.863C1250.536,381.366,1255.421,387.263,1258.642,391.871z"/>
				<path fill="#FFFFFF" d="M1470.521,379.342l-5.258,7.595c-16.604-4.09-29.602-8.813-38.998-14.168v6.573h-49.371v-7.231
					c-14.217,7.353-26.973,12.149-38.27,14.388l-4.818-7.668c27.361-6.67,50.146-17.819,68.357-33.449l8.982,2.994
					c-0.975,1.218-1.826,2.07-2.557,2.556C1424.753,364.37,1445.397,373.84,1470.521,379.342z M1454.964,421.189h-106.041v-34.252
					h106.041V421.189z M1446.274,477.277h-8.982v-5.843h-70.549v5.843h-8.982v-48.42h88.514V477.277z M1397.562,413.301v-18.258
					h-39.656v18.258H1397.562z M1437.292,446.312v-9.421h-70.549v9.421H1437.292z M1437.292,463.547v-9.567h-70.549v9.567H1437.292z
					 M1387.849,406.071l-7.521,5.259c-4.527-4.575-8.959-7.96-13.293-10.151l7.596-4.382
					C1379.79,398.987,1384.196,402.08,1387.849,406.071z M1423.271,371.236c-7.061-3.7-13.902-8.691-20.523-14.973
					c-7.061,5.843-14.971,10.834-23.734,14.973H1423.271z M1445.983,413.301v-18.258h-39.438v18.258H1445.983z M1437.146,399.352
					c-2.873,4.577-7.207,8.473-13,11.686l-8.033-4.017c6.379-3.603,10.76-7.206,13.145-10.81L1437.146,399.352z"/>
			</g>
			<g>
				<path fill="#FFFFFF" d="M732.624,260.248l-2.79,3.211c-8.36-2.94-16.321-8.12-23.88-15.541l0.06,11.73h14.011v25.8h-3.81v-3.449
					h-24.271v3.449h-3.931v-25.8h14.071v-11.73c-4.12,6.3-11.561,11.23-22.321,14.791l-2.819-3.181
					c9.54-2.521,16.36-6.39,20.46-11.61h-17.071v-3.75h21.75v-5.79c-4.78,0.48-10.78,0.83-18,1.05l-2.58-3.63
					c17.06-0.061,30.68-1.489,40.861-4.29l2.88,2.881c-5.66,1.52-12.07,2.689-19.23,3.51v6.27h22.051v3.75l-17.19-0.06
					C717.233,253.378,724.483,257.508,732.624,260.248z M716.213,268.678v-5.28h-24.331v5.28H716.213z M716.213,278.308v-5.939
					h-24.331v5.939H716.213z"/>
				<path fill="#FFFFFF" d="M748.225,263.007c-2.522,7.821-5.822,14.232-9.9,19.231l3.509,2.221
					c4.54-5.722,7.882-12.13,10.021-19.23L748.225,263.007z M741.894,246.358l-2.521,3.15c3.981,1.7,7.131,4.139,9.453,7.319
					l2.638-3.569C749.384,250.477,746.195,248.178,741.894,246.358z M744.833,232.918l-2.819,2.88c3.84,1.379,6.87,3.7,9.091,6.959
					l2.819-3.03C751.783,236.627,748.753,234.359,744.833,232.918z"/>
				<path fill="#FFFFFF" d="M784.044,272.129v-11.313c2.38,2.241,4.94,4.081,7.682,5.522l2.46-3.332
					c-5.241-2.238-9.323-5.78-12.241-10.619h10.258v-3.689h-9.808v-7.171h7.409v-3.691h-7.409v-6.327h-3.812v6.389h-11.129v-6.389
					h-3.812v6.389h-7.378v3.688h7.44v7.17h-9.781v3.692h9.9c-2.219,4.159-6.23,7.62-12.03,10.378l2.819,3.331
					c1.715-0.995,3.294-2.074,4.741-3.239V279c0,3.439,1.721,5.159,5.16,5.159h19.65c1.602,0,2.866-0.531,3.794-1.589
					c0.932-1.061,1.657-3.15,2.177-6.27l-3.87-1.741c-0.261,2.5-0.639,4.099-1.14,4.799c-0.5,0.701-1.17,1.051-2.01,1.051h-18.302
					c-1.101,0-1.648-0.55-1.648-1.651v-6.628H784.044z M767.455,241.528h11.19v7.171h-11.19V241.528z M767.813,252.388h10.201
					c0.981,2.32,2.46,4.59,4.44,6.812h-19.05C765.564,256.819,767.035,254.547,767.813,252.388z M763.166,262.888h17.07v5.61h-17.07
					V262.888z"/>
				<path fill="#FFFFFF" d="M855.387,282.449l-2.79,3.119c-12.501-6.819-20.44-18.31-23.821-34.47
					c-4.181,16.421-12.701,27.91-25.56,34.47l-3.031-3.569c12.74-6.2,20.81-16.48,24.211-30.841h-20.401v-3.87h20.851
					c0.38-3.76,0.54-9.021,0.48-15.78l4.17,0.601c0.1,6.119-0.02,11.16-0.36,15.12h22.741v3.87h-18.93
					C835.346,264.798,842.827,275.249,855.387,282.449z"/>
				<path fill="#FFFFFF" d="M916.558,274.648h-24.151v4.171c0,4.459-2.37,6.69-7.11,6.69h-3.99l-1.47-3.69h5.58
					c1.959,0,2.94-0.9,2.94-2.7v-4.471h-26.34v-3.75h26.34v-2.58c4.18-1.56,7.17-3.02,8.97-4.38h-22.98v-3.45h29.64v3.27
					c-3.12,2.121-6.98,4.291-11.58,6.511v0.63h24.151V274.648z M914.039,263.518h-3.6v-6.21h-41.912v6.569h-3.93v-10.079h5.161
					v-18.301c2.839-0.279,5.95-1.63,9.33-4.05l1.98,2.76c-1.82,1.681-4.3,2.95-7.44,3.811v2.52h7.68v3.12h-7.68v3.271h7.68v3.06
					h-7.68v3.811h31.891v-3.811h-7.32v-3h7.32v-3.51h-7.26v-3.061h7.26v-3.27h-8.49v-3.63h12.3v20.22h4.711V263.518z
					 M897.028,240.238l-2.101,2.579c-1.14-1.1-2.69-2.289-4.649-3.569c-1.62,1.36-3.44,2.61-5.46,3.75l-2.46-2.159
					c1.939-0.801,3.64-1.74,5.1-2.82c-2.44-0.92-4.41-1.561-5.91-1.921l1.53-2.76c2.22,0.561,4.45,1.28,6.69,2.16
					c1.419-1.339,2.61-2.71,3.57-4.11l2.521,2.011c-0.801,1.239-1.84,2.45-3.12,3.63
					C894.217,237.867,895.647,238.938,897.028,240.238z M897.388,251.158l-2.52,1.98c-1.62-1.24-3.3-2.271-5.04-3.091
					c-1.081,0.82-3,1.851-5.76,3.091l-2.28-1.801c2.581-1.22,4.43-2.279,5.551-3.18c-1.121-0.7-2.82-1.479-5.101-2.34l2.25-1.891
					c2.06,0.74,3.821,1.512,5.281,2.311c0.56-0.32,1.689-1.279,3.39-2.88l2.76,1.41c-1.02,1.319-2.16,2.41-3.42,3.27
					C894.157,248.797,895.788,249.837,897.388,251.158z"/>
				<path fill="#FFFFFF" d="M978,274.648h-24.151v4.171c0,4.459-2.37,6.69-7.11,6.69h-3.99l-1.47-3.69h5.58
					c1.959,0,2.94-0.9,2.94-2.7v-4.471h-26.341v-3.75h26.341v-2.58c4.179-1.56,7.169-3.02,8.969-4.38h-22.98v-3.45h29.64v3.27
					c-3.12,2.121-6.979,4.291-11.58,6.511v0.63H978V274.648z M975.479,263.518h-3.6v-6.21h-41.911v6.569h-3.931v-10.079h5.161
					v-18.301c2.839-0.279,5.95-1.63,9.33-4.05l1.98,2.76c-1.82,1.681-4.301,2.95-7.44,3.811v2.52h7.681v3.12h-7.681v3.271h7.681
					v3.06h-7.681v3.811h31.891v-3.811h-7.321v-3h7.321v-3.51h-7.261v-3.061h7.261v-3.27h-8.49v-3.63h12.3v20.22h4.71V263.518z
					 M958.469,240.238l-2.1,2.579c-1.14-1.1-2.691-2.289-4.65-3.569c-1.62,1.36-3.441,2.61-5.46,3.75l-2.46-2.159
					c1.94-0.801,3.64-1.74,5.1-2.82c-2.44-0.92-4.41-1.561-5.91-1.921l1.53-2.76c2.22,0.561,4.449,1.28,6.689,2.16
					c1.42-1.339,2.61-2.71,3.571-4.11l2.52,2.011c-0.801,1.239-1.84,2.45-3.121,3.63
					C955.659,237.867,957.089,238.938,958.469,240.238z M958.83,251.158l-2.521,1.98c-1.62-1.24-3.3-2.271-5.041-3.091
					c-1.08,0.82-3,1.851-5.76,3.091l-2.28-1.801c2.581-1.22,4.431-2.279,5.551-3.18c-1.12-0.7-2.82-1.479-5.1-2.34l2.25-1.891
					c2.06,0.74,3.82,1.512,5.28,2.311c0.56-0.32,1.69-1.279,3.391-2.88l2.76,1.41c-1.021,1.319-2.16,2.41-3.42,3.27
					C955.599,248.797,957.229,249.837,958.83,251.158z"/>
				<path fill="#FFFFFF" d="M1039.44,282.508h-54.601v-3.869h25.441v-14.071H991.95v-3.87h18.331v-12.24h-13.592
					c-1.639,4.26-4.379,8.19-8.219,11.79l-3.96-2.07c6.561-6.06,10.209-13.479,10.95-22.26l4.05,1.17
					c-0.16,2.04-0.63,4.561-1.409,7.561h12.118v-13.141h4.052v13.08h21.179v3.87h-21.179v12.181h18.06v3.869h-18.06v14.071h25.169
					V282.508z"/>
				<path fill="#FFFFFF" d="M1101.872,245.337l-2.16,3.12c-6.82-1.68-12.16-3.619-16.02-5.819v2.699h-20.281v-2.97
					c-5.84,3.021-11.08,4.99-15.721,5.91l-1.979-3.15c11.238-2.74,20.6-7.32,28.08-13.74l3.689,1.23c-0.4,0.5-0.75,0.851-1.049,1.05
					C1083.071,239.188,1091.552,243.078,1101.872,245.337z M1095.483,262.529h-43.563v-14.071h43.563V262.529z M1091.913,285.568
					h-3.691v-2.399h-28.98v2.399h-3.689v-19.89h36.361V285.568z M1071.901,259.288v-7.5h-16.291v7.5H1071.901z M1088.222,272.848
					v-3.87h-28.98v3.87H1088.222z M1088.222,279.928v-3.93h-28.98v3.93H1088.222z M1067.911,256.318l-3.09,2.16
					c-1.859-1.879-3.68-3.27-5.461-4.17l3.121-1.8C1064.601,253.408,1066.411,254.678,1067.911,256.318z M1082.462,242.008
					c-2.9-1.52-5.711-3.57-8.432-6.151c-2.898,2.4-6.148,4.451-9.748,6.151H1082.462z M1091.792,259.288v-7.5h-16.199v7.5H1091.792z
					 M1088.161,253.558c-1.18,1.88-2.959,3.479-5.34,4.8l-3.299-1.649c2.619-1.48,4.42-2.961,5.398-4.44L1088.161,253.558z"/>
				<path fill="#FFFFFF" d="M1162.954,281.638l-2.641,3.511c-10.18-3-18.441-7.04-24.779-12.121
					c-5.463,4.461-14.041,8.581-25.742,12.361l-2.939-3.57c11.32-3.14,19.881-6.95,25.682-11.431
					c-5.82-5.5-9.732-12.189-11.73-20.07c-1.08,2.78-2.563,5.42-4.441,7.92l-3.178-2.909c2.52-3.001,4.547-6.291,6.088-9.871h-10.32
					v-3.689h24.063v-10.261h3.869v10.2h24.48v3.69h-10.262c-1.799,10.44-5.938,18.75-12.42,24.93
					C1144.583,274.808,1152.673,278.579,1162.954,281.638z M1147.083,245.398h-23.219c1.598,9.26,5.508,16.71,11.729,22.351
					C1141.673,262.088,1145.503,254.638,1147.083,245.398z"/>
				<path fill="#FFFFFF" d="M1223.767,274.648h-24.152v4.171c0,4.459-2.369,6.69-7.109,6.69h-3.99l-1.469-3.69h5.578
					c1.961,0,2.941-0.9,2.941-2.7v-4.471h-26.34v-3.75h26.34v-2.58c4.18-1.56,7.17-3.02,8.969-4.38h-22.98v-3.45h29.641v3.27
					c-3.119,2.121-6.98,4.291-11.58,6.511v0.63h24.152V274.648z M1221.247,263.518h-3.602v-6.21h-41.912v6.569h-3.93v-10.079h5.16
					v-18.301c2.84-0.279,5.951-1.63,9.332-4.05l1.979,2.76c-1.818,1.681-4.301,2.95-7.441,3.811v2.52h7.682v3.12h-7.682v3.271h7.682
					v3.06h-7.682v3.811h31.893v-3.811h-7.322v-3h7.322v-3.51h-7.26v-3.061h7.26v-3.27h-8.49v-3.63h12.299v20.22h4.713V263.518z
					 M1204.235,240.238l-2.102,2.579c-1.139-1.1-2.689-2.289-4.648-3.569c-1.621,1.36-3.441,2.61-5.461,3.75l-2.459-2.159
					c1.939-0.801,3.639-1.74,5.1-2.82c-2.441-0.92-4.412-1.561-5.91-1.921l1.531-2.76c2.219,0.561,4.449,1.28,6.689,2.16
					c1.42-1.339,2.609-2.71,3.568-4.11l2.521,2.011c-0.801,1.239-1.842,2.45-3.119,3.63
					C1201.425,237.867,1202.854,238.938,1204.235,240.238z M1204.595,251.158l-2.52,1.98c-1.619-1.24-3.301-2.271-5.041-3.091
					c-1.08,0.82-3,1.851-5.76,3.091l-2.281-1.801c2.582-1.22,4.432-2.279,5.551-3.18c-1.119-0.7-2.82-1.479-5.1-2.34l2.25-1.891
					c2.061,0.74,3.82,1.512,5.281,2.311c0.561-0.32,1.689-1.279,3.389-2.88l2.76,1.41c-1.02,1.319-2.158,2.41-3.418,3.27
					C1201.364,248.797,1202.993,249.837,1204.595,251.158z"/>
				<path fill="#FFFFFF" d="M1244.284,251.908c4.041,4.54,6.063,8.971,6.063,13.29c0,2.101-0.545,3.771-1.637,5.01
					c-1.088,1.241-2.613,1.861-4.574,1.861c-1.08,0-2.381-0.131-3.9-0.39l-1.109-3.991c2.141,0.541,3.68,0.811,4.619,0.811
					c0.779,0,1.49-0.301,2.131-0.9s0.961-1.399,0.961-2.4c0-1.499-0.551-3.419-1.65-5.76c-1.102-2.34-2.752-4.57-4.951-6.689
					l5.852-15.031h-8.91v47.792h-3.932v-51.602h16.83v3.81L1244.284,251.908z M1285.657,274.499c-0.521,3.24-1.221,5.591-2.102,7.05
					c-0.879,1.46-2.311,2.19-4.289,2.19h-4.68c-3.121,0-4.68-1.641-4.68-4.92v-15.87h-6.332c-0.119,6.439-1.375,11.265-3.764,14.475
					c-2.391,3.21-6.824,5.905-13.307,8.086l-2.52-3.451c6.02-1.779,10.15-4.08,12.391-6.9c2.24-2.819,3.369-6.869,3.391-12.149
					h-8.221v-3.931h32.133v3.871h-10.023v14.94c0,0.499,0.16,0.965,0.48,1.395c0.32,0.431,0.701,0.645,1.141,0.645h3.811
					c0.779,0,1.375-0.64,1.785-1.92c0.408-1.279,0.754-2.939,1.035-4.98L1285.657,274.499z M1282.206,247.288l-3.809,0.061v-5.281
					h-22.621v5.281h-3.871v-9.091h13.17v-6.81h3.932v6.75h13.199V247.288z M1277.167,253.078h-20.281v-3.93h20.281V253.078z"/>
				<path fill="#FFFFFF" d="M1346.649,274.648h-24.152v4.171c0,4.459-2.371,6.69-7.109,6.69h-3.99l-1.471-3.69h5.58
					c1.961,0,2.941-0.9,2.941-2.7v-4.471h-26.342v-3.75h26.342v-2.58c4.18-1.56,7.17-3.02,8.969-4.38h-22.98v-3.45h29.641v3.27
					c-3.119,2.121-6.98,4.291-11.58,6.511v0.63h24.152V274.648z M1344.128,263.518h-3.6v-6.21h-41.91v6.569h-3.932v-10.079h5.162
					v-18.301c2.838-0.279,5.949-1.63,9.328-4.05l1.98,2.76c-1.82,1.681-4.299,2.95-7.439,3.811v2.52h7.68v3.12h-7.68v3.271h7.68
					v3.06h-7.68v3.811h31.891v-3.811h-7.32v-3h7.32v-3.51h-7.26v-3.061h7.26v-3.27h-8.49v-3.63h12.299v20.22h4.711V263.518z
					 M1327.118,240.238l-2.102,2.579c-1.141-1.1-2.689-2.289-4.65-3.569c-1.619,1.36-3.439,2.61-5.459,3.75l-2.461-2.159
					c1.941-0.801,3.643-1.74,5.102-2.82c-2.441-0.92-4.41-1.561-5.91-1.921l1.529-2.76c2.221,0.561,4.451,1.28,6.689,2.16
					c1.42-1.339,2.611-2.71,3.572-4.11l2.52,2.011c-0.801,1.239-1.842,2.45-3.121,3.63
					C1324.308,237.867,1325.737,238.938,1327.118,240.238z M1327.478,251.158l-2.52,1.98c-1.621-1.24-3.301-2.271-5.039-3.091
					c-1.082,0.82-3,1.851-5.762,3.091l-2.279-1.801c2.58-1.22,4.43-2.279,5.551-3.18c-1.121-0.7-2.822-1.479-5.102-2.34l2.25-1.891
					c2.061,0.74,3.82,1.512,5.279,2.311c0.561-0.32,1.689-1.279,3.391-2.88l2.76,1.41c-1.02,1.319-2.16,2.41-3.42,3.27
					C1324.247,248.797,1325.878,249.837,1327.478,251.158z"/>
				<path fill="#FFFFFF" d="M1408.089,282.508h-54.6v-3.869h25.439v-14.071h-18.33v-3.87h18.33v-12.24h-13.59
					c-1.641,4.26-4.381,8.19-8.221,11.79l-3.959-2.07c6.559-6.06,10.209-13.479,10.949-22.26l4.051,1.17
					c-0.16,2.04-0.631,4.561-1.412,7.561h12.123v-13.141h4.049v13.08h21.18v3.87h-21.18v12.181h18.061v3.869h-18.061v14.071h25.17
					V282.508z"/>
				<path fill="#FFFFFF" d="M1470.521,245.337l-2.158,3.12c-6.82-1.68-12.162-3.619-16.021-5.819v2.699h-20.281v-2.97
					c-5.84,3.021-11.08,4.99-15.719,5.91l-1.98-3.15c11.24-2.74,20.6-7.32,28.08-13.74l3.689,1.23c-0.4,0.5-0.75,0.851-1.049,1.05
					C1451.72,239.188,1460.202,243.078,1470.521,245.337z M1464.132,262.529h-43.561v-14.071h43.561V262.529z M1460.562,285.568
					h-3.691v-2.399h-28.98v2.399h-3.689v-19.89h36.361V285.568z M1440.55,259.288v-7.5h-16.289v7.5H1440.55z M1456.87,272.848v-3.87
					h-28.98v3.87H1456.87z M1456.87,279.928v-3.93h-28.98v3.93H1456.87z M1436.56,256.318l-3.09,2.16
					c-1.859-1.879-3.68-3.27-5.459-4.17l3.119-1.8C1433.251,253.408,1435.06,254.678,1436.56,256.318z M1451.11,242.008
					c-2.9-1.52-5.709-3.57-8.43-6.151c-2.902,2.4-6.15,4.451-9.75,6.151H1451.11z M1460.44,259.288v-7.5h-16.199v7.5H1460.44z
					 M1456.812,253.558c-1.182,1.88-2.961,3.479-5.342,4.8l-3.299-1.649c2.619-1.48,4.42-2.961,5.4-4.44L1456.812,253.558z"/>
			</g>
		</g>
	</g>
</g>
</svg>
