<?xml version="1.0" encoding="utf-8"?>
<!-- Generator: Adobe Illustrator 16.0.0, SVG Export Plug-In . SVG Version: 6.00 Build 0)  -->
<!DOCTYPE svg PUBLIC "-//W3C//DTD SVG 1.0//EN" "http://www.w3.org/TR/2001/REC-SVG-20010904/DTD/svg10.dtd">
<svg version="1.0" id="Logotypes" xmlns="http://www.w3.org/2000/svg" xmlns:xlink="http://www.w3.org/1999/xlink" x="0px" y="0px"
	 width="2900.967px" height="708.657px" viewBox="0 0 2900.967 708.657" enable-background="new 0 0 2900.967 708.657"
	 xml:space="preserve">
<g>
	<defs>
		<rect id="SVGID_111_" x="-0.001" width="2900.968" height="708.657"/>
	</defs>
	<clipPath id="SVGID_2_">
		<use xlink:href="#SVGID_111_"  overflow="visible"/>
	</clipPath>
	<g clip-path="url(#SVGID_2_)">
		<text transform="matrix(1.0154 0 0 1 2037.9014 381.832)" fill="#A49B4B" font-family="'FiraSans-Bold'" font-size="80">Session 2017–2018</text>
		<g>
			<rect x="1925.941" y="242.89" fill="#A49B4B" width="3" height="228.445"/>
		</g>
		<g>
			<g>
				<g>
					<path fill="#A49B4B" d="M158.441,271.565c-9.104,21.53-14.518,44.146-16.168,67.424c3.59-2.92,8.16-4.678,13.137-4.678
						c5.496,0,10.488,2.152,14.217,5.637c7.338-95.59,87.223-170.867,184.693-170.867c7.553,0,13.676-6.121,13.676-13.676
						c0-7.553-6.123-13.674-13.676-13.674c-28.688,0-56.531,5.625-82.76,16.717c-25.318,10.711-48.053,26.033-67.564,45.549
						C184.479,223.515,169.15,246.247,158.441,271.565z"/>
					<path fill="#A49B4B" d="M339.182,538.956c-94.951-7.684-169.666-86.963-170.096-183.791c0-7.553-6.121-13.678-13.676-13.678
						c-7.553,0-13.676,6.125-13.676,13.678c0.109,28.393,5.725,55.951,16.707,81.924c10.709,25.316,26.037,48.053,45.555,67.566
						c19.512,19.518,42.246,34.842,67.564,45.553c21.254,8.988,43.57,14.386,66.537,16.109c-2.889-3.578-4.629-8.121-4.629-13.068
						C333.469,547.716,335.65,542.692,339.182,538.956z"/>
					<path fill="#A49B4B" d="M502.516,487.399c-2.67-2.67-6.168-4.006-9.666-4.006c-3.5,0-7,1.336-9.672,4.006
						c-33.342,32.291-78.775,52.176-128.857,52.176c-7.551,0-13.674,6.121-13.674,13.674c0,7.554,6.123,13.676,13.674,13.676
						c28.691,0,56.535-5.625,82.764-16.717c24.408-10.321,46.398-24.948,65.432-43.469
						C507.859,501.401,507.859,492.741,502.516,487.399z"/>
					<path fill="#A49B4B" d="M354.32,141.728c-28.689,0-56.529,5.629-82.76,16.719c-25.32,10.711-48.049,26.031-67.568,45.551
						c-19.512,19.52-34.84,42.25-45.551,67.568c-9.1,21.531-14.52,44.15-16.17,67.42c3.59-2.92,8.16-4.67,13.141-4.67
						c5.49,0,10.49,2.15,14.209,5.629c7.34-95.588,87.229-170.867,184.699-170.867c7.549,0,13.68-6.119,13.68-13.67
						S361.869,141.728,354.32,141.728z M339.18,538.954c-94.949-7.682-169.668-86.959-170.088-183.789
						c0-7.551-6.131-13.68-13.68-13.68c-7.551,0-13.68,6.129-13.68,13.68c0.109,28.391,5.729,55.949,16.709,81.931
						c10.711,25.308,26.039,48.048,45.551,67.558c19.52,19.521,42.248,34.84,67.568,45.551c21.25,8.988,43.57,14.39,66.539,16.109
						c-2.891-3.57-4.629-8.121-4.629-13.061C333.471,547.714,335.65,542.692,339.18,538.954z M502.518,487.403
						c-2.67-2.68-6.17-4.01-9.67-4.01s-7,1.33-9.67,4.01c-33.34,32.291-78.779,52.17-128.857,52.17
						c-7.551,0-13.67,6.119-13.67,13.68c0,7.551,6.119,13.67,13.67,13.67c28.689,0,56.539-5.619,82.77-16.719
						c24.398-10.319,46.389-24.939,65.428-43.459C507.857,501.403,507.857,492.745,502.518,487.403z"/>
				</g>
				<g>
					<g>
						<g>
							<path fill="#A49B4B" d="M466.898,241.747c-30.059-30.069-70.049-46.631-112.578-46.631c-42.531,0-82.51,16.562-112.58,46.631
								c-30.07,30.068-46.639,70.059-46.639,112.578c0,42.529,16.568,82.51,46.639,112.59c30.07,30.068,70.049,46.629,112.58,46.629
								c42.529,0,82.52-16.561,112.578-46.629c30.08-30.08,46.629-70.061,46.629-112.59
								C513.527,311.806,496.979,271.815,466.898,241.747z M264.451,310.456H251.5v87.75h12.951v7.609h-22.34V302.837h22.34V310.456
								z M282.08,405.815v-72.73c0-6.258-0.109-11.93-0.33-17.02c-0.209-5.09-0.529-9.5-0.959-13.229h13.189v72.408
								c0,2.061,0.029,4.48,0.1,7.27c0.061,2.791,0.15,5.622,0.26,8.5c0.1,2.872,0.23,5.622,0.381,8.24
								c0.15,2.609,0.33,4.801,0.549,6.561H282.08z M351.59,348.604h-12.1v48.782h12.1v8.429h-36.039v-8.429h11.898v-48.782h-11.898
								v-8.439h36.039V348.604z M427.859,398.735c0,7.25-0.641,13.27-1.9,18.061c-1.27,4.779-3.041,8.598-5.311,11.449
								c-2.27,2.859-5.01,4.879-8.209,6.051c-3.191,1.18-6.74,1.768-10.65,1.768c-1.93,0-4-0.309-6.209-0.927
								c-2.211-0.622-4.221-1.493-6.021-2.612l4.191-9.648c0.979,0.729,2.299,1.338,3.949,1.83c1.66,0.5,3.34,0.738,5.049,0.738
								c2.07,0,3.91-0.33,5.541-0.988c1.629-0.672,3.01-1.842,4.15-3.512c1.139-1.67,2.01-3.969,2.609-6.889
								c0.6-2.919,0.9-6.631,0.9-11.131v-28.329c0-5.14-0.27-9.321-0.801-12.511c-0.539-3.198-1.35-5.689-2.42-7.471
								c-1.07-1.779-2.41-2.969-4.02-3.568c-1.609-0.602-3.49-0.9-5.631-0.9c-2.318,0-4.58,0.549-6.789,1.641
								c-2.209,1.09-4.24,2.51-6.09,4.25c-1.84,1.729-3.471,3.699-4.891,5.889c-1.408,2.18-2.459,4.371-3.148,6.561v37.33h-11.91
								v-39.58c0-6.349-0.361-11.721-1.09-16.121c-0.73-4.398-1.441-7.709-2.131-9.949h11.59c0.26,0.689,0.51,1.58,0.77,2.681
								c0.262,1.089,0.49,2.239,0.711,3.44c0.209,1.199,0.41,2.379,0.58,3.539l0.51,2.891c4.119-4.891,8.26-8.42,12.43-10.579
								c4.16-2.171,8.5-3.261,13-3.261c3.43,0,6.471,0.568,9.1,1.709c2.641,1.141,4.871,2.939,6.67,5.41
								c1.801,2.471,3.16,5.66,4.08,9.59c0.93,3.93,1.391,8.65,1.391,14.189V398.735z M466.529,405.815h-22.33v-7.609h12.939v-87.75
								h-12.939v-7.619h22.33V405.815z"/>
						</g>
					</g>
				</g>
			</g>
		</g>
		<g>
			<path fill="#A49B4B" d="M626.665,336.829V236.358h12.091v89.819h42.752v10.651H626.665z"/>
			<path fill="#A49B4B" d="M703.386,245.139c-2.497,0-4.296-0.599-5.398-1.799c-1.104-1.199-1.654-2.757-1.654-4.679v-1.871
				c0-1.918,0.551-3.478,1.654-4.678c1.103-1.199,2.901-1.8,5.398-1.8c2.494,0,4.293,0.601,5.397,1.8
				c1.103,1.2,1.655,2.76,1.655,4.678v1.871c0,1.922-0.553,3.479-1.655,4.679C707.679,244.54,705.88,245.139,703.386,245.139z
				 M697.628,262.557h11.516v74.272h-11.516V262.557z"/>
			<path fill="#A49B4B" d="M733.613,336.829v-74.272h11.516v11.953h0.574c1.823-4.179,4.392-7.506,7.702-9.975
				c3.311-2.47,7.748-3.706,13.314-3.706c7.676,0,13.747,2.471,18.209,7.412c4.462,4.943,6.693,11.926,6.693,20.943v47.645h-11.516
				v-45.729c0-13.368-5.613-20.053-16.841-20.053c-2.304,0-4.534,0.291-6.695,0.866c-2.157,0.577-4.101,1.444-5.828,2.598
				s-3.095,2.62-4.103,4.399c-1.007,1.779-1.511,3.871-1.511,6.275v51.643H733.613z"/>
			<path fill="#A49B4B" d="M874.388,334.383c0,10.267-2.88,18.328-8.637,24.182c-5.758,5.853-13.868,8.781-24.327,8.781
				c-6.045,0-11.252-0.94-15.617-2.818c-4.367-1.882-7.988-4.363-10.867-7.447l6.764-7.952c2.496,2.568,5.374,4.545,8.637,5.927
				c3.263,1.38,7.055,2.07,11.372,2.07c6.717,0,11.924-1.855,15.618-5.563c3.693-3.714,5.541-9.184,5.541-16.412v-10.273h-0.575
				c-2.208,4.562-5.087,7.979-8.636,10.261c-3.553,2.28-7.917,3.421-13.099,3.421c-4.606,0-8.781-0.914-12.523-2.735
				c-3.742-1.822-6.909-4.413-9.5-7.772c-2.591-3.358-4.606-7.436-6.046-12.235c-1.439-4.798-2.159-10.171-2.159-16.122
				c0-5.948,0.72-11.321,2.159-16.121c1.439-4.797,3.455-8.875,6.046-12.235c2.591-3.358,5.758-5.948,9.5-7.772
				c3.742-1.822,7.917-2.734,12.523-2.734c5.182,0,9.619,1.117,13.314,3.349c3.692,2.233,6.5,5.677,8.42,10.332h0.575v-11.953
				h11.517V334.383z M844.016,328.337c2.591,0,5.038-0.338,7.341-1.013c2.304-0.675,4.294-1.664,5.974-2.966
				c1.678-1.3,3.022-2.893,4.03-4.772s1.511-4.074,1.511-6.583v-27.632c0-2.024-0.48-3.93-1.438-5.716
				c-0.96-1.783-2.303-3.301-4.03-4.557c-1.728-1.252-3.742-2.24-6.046-2.964c-2.303-0.724-4.75-1.087-7.341-1.087
				c-6.526,0-11.709,2.074-15.546,6.222c-3.839,4.147-5.758,9.499-5.758,16.058v12.73c0,6.558,1.919,11.911,5.758,16.059
				C832.307,326.263,837.489,328.337,844.016,328.337z"/>
			<path fill="#A49B4B" d="M944.629,324.876h-0.575c-0.77,1.712-1.705,3.398-2.807,5.061c-1.106,1.662-2.472,3.135-4.103,4.417
				c-1.633,1.283-3.599,2.304-5.901,3.063c-2.304,0.761-4.991,1.141-8.062,1.141c-7.679,0-13.771-2.47-18.28-7.414
				c-4.513-4.941-6.766-11.922-6.766-20.943v-47.644h11.516v45.728c0,13.369,5.66,20.053,16.984,20.053
				c2.304,0,4.535-0.287,6.694-0.866c2.159-0.575,4.076-1.44,5.757-2.595c1.679-1.154,3.023-2.62,4.031-4.399
				c1.007-1.778,1.511-3.92,1.511-6.421v-51.499h11.516v74.272h-11.516V324.876z"/>
			<path fill="#A49B4B" d="M986.371,245.139c-2.496,0-4.297-0.599-5.398-1.799c-1.104-1.199-1.654-2.757-1.654-4.679v-1.871
				c0-1.918,0.551-3.478,1.654-4.678c1.102-1.199,2.902-1.8,5.398-1.8c2.495,0,4.294,0.601,5.397,1.8
				c1.103,1.2,1.655,2.76,1.655,4.678v1.871c0,1.922-0.553,3.479-1.655,4.679C990.665,244.54,988.866,245.139,986.371,245.139z
				 M980.614,262.557h11.515v74.272h-11.515V262.557z"/>
			<path fill="#A49B4B" d="M1038.91,338.558c-6.909,0-12.692-1.32-17.344-3.959c-4.658-2.639-8.663-6.165-12.021-10.58l8.205-6.621
				c2.879,3.648,6.091,6.455,9.644,8.42c3.55,1.969,7.676,2.951,12.381,2.951c4.893,0,8.707-1.055,11.441-3.166
				c2.735-2.11,4.103-5.086,4.103-8.925c0-2.879-0.936-5.349-2.807-7.413c-1.872-2.063-5.255-3.477-10.148-4.246l-5.901-0.863
				c-3.455-0.479-6.621-1.224-9.5-2.231s-5.396-2.351-7.557-4.03c-2.159-1.678-3.84-3.766-5.038-6.262
				c-1.201-2.494-1.799-5.47-1.799-8.924c0-3.646,0.669-6.837,2.015-9.571c1.343-2.736,3.188-5.014,5.541-6.839
				c2.35-1.821,5.157-3.189,8.421-4.102c3.262-0.911,6.766-1.367,10.508-1.367c6.046,0,11.106,1.058,15.185,3.166
				c4.079,2.112,7.652,5.038,10.726,8.78l-7.629,6.909c-1.633-2.303-4.031-4.391-7.198-6.261c-3.166-1.871-7.149-2.808-11.945-2.808
				c-4.801,0-8.422,1.032-10.869,3.096s-3.67,4.871-3.67,8.42c0,3.648,1.223,6.286,3.67,7.916c2.447,1.634,5.974,2.832,10.58,3.6
				l5.758,0.864c8.252,1.247,14.106,3.622,17.561,7.125c3.455,3.504,5.183,8.085,5.183,13.745c0,7.197-2.448,12.86-7.342,16.985
				C1054.168,336.495,1047.45,338.558,1038.91,338.558z"/>
			<path fill="#A49B4B" d="M1102.103,336.829c-4.032,0-7.077-1.124-9.141-3.373c-2.064-2.249-3.095-5.194-3.095-8.834v-51.847
				h-12.235v-10.219h6.909c2.494,0,4.197-0.504,5.11-1.513c0.91-1.007,1.367-2.757,1.367-5.254v-13.818h10.363v20.585h16.266v10.219
				h-16.266v53.835h15.114v10.219H1102.103z"/>
			<path fill="#A49B4B" d="M1141.973,245.139c-2.495,0-4.295-0.599-5.396-1.799c-1.104-1.199-1.656-2.757-1.656-4.679v-1.871
				c0-1.918,0.552-3.478,1.656-4.678c1.102-1.199,2.901-1.8,5.396-1.8s4.295,0.601,5.398,1.8c1.102,1.2,1.655,2.76,1.655,4.678
				v1.871c0,1.922-0.554,3.479-1.655,4.679C1146.268,244.54,1144.468,245.139,1141.973,245.139z M1136.216,262.557h11.517v74.272
				h-11.517V262.557z"/>
			<path fill="#A49B4B" d="M1199.839,338.558c-5.182,0-9.838-0.914-13.964-2.735c-4.126-1.822-7.605-4.413-10.434-7.772
				c-2.834-3.358-4.992-7.436-6.479-12.235c-1.49-4.798-2.23-10.171-2.23-16.122c0-5.948,0.74-11.321,2.23-16.121
				c1.486-4.797,3.645-8.875,6.479-12.235c2.828-3.358,6.308-5.948,10.434-7.772c4.126-1.822,8.782-2.734,13.964-2.734
				c7.388,0,13.314,1.607,17.776,4.821c4.462,3.216,7.796,7.413,10.004,12.595l-9.645,4.895c-1.345-3.837-3.551-6.813-6.62-8.925
				c-3.073-2.109-6.91-3.167-11.516-3.167c-3.455,0-6.478,0.554-9.068,1.656c-2.592,1.104-4.75,2.64-6.479,4.605
				c-1.725,1.969-3.021,4.318-3.885,7.053c-0.863,2.735-1.296,5.736-1.296,8.996v12.668c0,6.527,1.75,11.875,5.254,16.049
				c3.502,4.175,8.661,6.262,15.475,6.262c9.307,0,16.024-4.318,20.151-12.955l8.349,5.614c-2.399,5.376-5.974,9.645-10.724,12.812
				C1212.865,336.974,1206.938,338.558,1199.839,338.558z"/>
			<path fill="#A49B4B" d="M1266.914,338.558c-6.91,0-12.693-1.32-17.345-3.959c-4.656-2.639-8.663-6.165-12.02-10.58l8.205-6.621
				c2.879,3.648,6.092,6.455,9.644,8.42c3.55,1.969,7.676,2.951,12.38,2.951c4.894,0,8.707-1.055,11.442-3.166
				c2.734-2.11,4.102-5.086,4.102-8.925c0-2.879-0.935-5.349-2.806-7.413c-1.871-2.063-5.254-3.477-10.148-4.246l-5.901-0.863
				c-3.454-0.479-6.621-1.224-9.5-2.231s-5.397-2.351-7.557-4.03c-2.159-1.678-3.84-3.766-5.039-6.262
				c-1.2-2.494-1.798-5.47-1.798-8.924c0-3.646,0.67-6.837,2.015-9.571c1.343-2.736,3.188-5.014,5.542-6.839
				c2.35-1.821,5.156-3.189,8.42-4.102c3.262-0.911,6.767-1.367,10.507-1.367c6.047,0,11.107,1.058,15.187,3.166
				c4.078,2.112,7.652,5.038,10.725,8.78l-7.629,6.909c-1.633-2.303-4.031-4.391-7.198-6.261c-3.166-1.871-7.15-2.808-11.946-2.808
				c-4.8,0-8.421,1.032-10.867,3.096c-2.447,2.063-3.671,4.871-3.671,8.42c0,3.648,1.224,6.286,3.671,7.916
				c2.446,1.634,5.973,2.832,10.579,3.6l5.758,0.864c8.252,1.247,14.106,3.622,17.561,7.125c3.455,3.504,5.182,8.085,5.182,13.745
				c0,7.197-2.446,12.86-7.34,16.985C1282.172,336.495,1275.454,338.558,1266.914,338.558z"/>
			<path fill="#A49B4B" d="M1378.036,338.558c-8.157,0-15.114-1.562-20.872-4.679s-10.651-7.413-14.682-12.883l8.924-7.484
				c3.549,4.702,7.484,8.276,11.804,10.724c4.318,2.446,9.403,3.67,15.258,3.67c7.197,0,12.689-1.728,16.481-5.182
				c3.789-3.455,5.686-8.062,5.686-13.818c0-4.797-1.439-8.492-4.318-11.083c-2.878-2.592-7.629-4.654-14.25-6.19l-8.204-1.87
				c-9.213-2.11-16.243-5.302-21.087-9.572c-4.848-4.27-7.271-10.293-7.271-18.065c0-4.413,0.815-8.35,2.448-11.803
				c1.631-3.455,3.909-6.334,6.838-8.637c2.926-2.304,6.428-4.054,10.507-5.254c4.078-1.199,8.565-1.8,13.459-1.8
				c7.579,0,14.081,1.393,19.504,4.175c5.421,2.784,10.004,6.861,13.747,12.234l-9.068,6.621c-2.785-3.837-6.143-6.858-10.076-9.067
				c-3.936-2.207-8.83-3.312-14.683-3.312c-6.43,0-11.493,1.367-15.186,4.103c-3.695,2.735-5.542,6.838-5.542,12.308
				c0,4.799,1.559,8.42,4.678,10.867c3.117,2.447,7.845,4.391,14.179,5.83l8.204,1.872c9.883,2.208,17.033,5.565,21.448,10.075
				c4.413,4.511,6.621,10.509,6.621,17.992c0,4.606-0.792,8.78-2.375,12.523c-1.584,3.743-3.865,6.909-6.837,9.5
				c-2.977,2.591-6.6,4.605-10.867,6.045C1388.232,337.838,1383.408,338.558,1378.036,338.558z"/>
			<path fill="#A49B4B" d="M1460.37,338.558c-4.991,0-9.55-0.914-13.675-2.735c-4.127-1.822-7.654-4.438-10.579-7.845
				c-2.929-3.405-5.208-7.485-6.838-12.235c-1.633-4.75-2.447-10.099-2.447-16.05c0-5.852,0.814-11.178,2.447-15.978
				c1.63-4.797,3.909-8.899,6.838-12.307c2.925-3.405,6.452-6.021,10.579-7.845c4.125-1.822,8.684-2.734,13.675-2.734
				c4.987,0,9.522,0.912,13.603,2.734c4.077,1.824,7.604,4.439,10.579,7.845c2.974,3.407,5.277,7.51,6.91,12.307
				c1.63,4.8,2.446,10.126,2.446,15.978c0,5.951-0.816,11.3-2.446,16.05c-1.633,4.75-3.937,8.83-6.91,12.235
				c-2.975,3.406-6.502,6.022-10.579,7.845C1469.893,337.644,1465.357,338.558,1460.37,338.558z M1460.37,328.337
				c6.237,0,11.321-1.918,15.258-5.758c3.934-3.837,5.901-9.69,5.901-17.561v-10.652c0-7.867-1.968-13.721-5.901-17.561
				c-3.937-3.836-9.021-5.758-15.258-5.758c-6.239,0-11.324,1.922-15.258,5.758c-3.937,3.84-5.902,9.693-5.902,17.561v10.652
				c0,7.87,1.966,13.724,5.902,17.561C1449.046,326.419,1454.131,328.337,1460.37,328.337z"/>
			<path fill="#A49B4B" d="M1540.546,338.558c-5.183,0-9.839-0.914-13.963-2.735c-4.128-1.822-7.606-4.413-10.435-7.772
				c-2.832-3.358-4.992-7.436-6.479-12.235c-1.489-4.798-2.231-10.171-2.231-16.122c0-5.948,0.742-11.321,2.231-16.121
				c1.486-4.797,3.646-8.875,6.479-12.235c2.828-3.358,6.307-5.948,10.435-7.772c4.124-1.822,8.78-2.734,13.963-2.734
				c7.388,0,13.314,1.607,17.775,4.821c4.463,3.216,7.796,7.413,10.005,12.595l-9.645,4.895c-1.345-3.837-3.551-6.813-6.621-8.925
				c-3.072-2.109-6.909-3.167-11.515-3.167c-3.455,0-6.479,0.554-9.069,1.656c-2.591,1.104-4.75,2.64-6.478,4.605
				c-1.726,1.969-3.022,4.318-3.886,7.053c-0.864,2.735-1.296,5.736-1.296,8.996v12.668c0,6.527,1.75,11.875,5.253,16.049
				c3.503,4.175,8.66,6.262,15.476,6.262c9.306,0,16.024-4.318,20.151-12.955l8.349,5.614c-2.4,5.376-5.974,9.645-10.725,12.812
				C1553.572,336.974,1547.646,338.558,1540.546,338.558z"/>
			<path fill="#A49B4B" d="M1591.067,245.139c-2.497,0-4.296-0.599-5.397-1.799c-1.104-1.199-1.655-2.757-1.655-4.679v-1.871
				c0-1.918,0.552-3.478,1.655-4.678c1.102-1.199,2.9-1.8,5.397-1.8c2.494,0,4.294,0.601,5.398,1.8
				c1.102,1.2,1.654,2.76,1.654,4.678v1.871c0,1.922-0.553,3.479-1.654,4.679C1595.361,244.54,1593.562,245.139,1591.067,245.139z
				 M1585.309,262.557h11.516v74.272h-11.516V262.557z"/>
			<path fill="#A49B4B" d="M1649.22,338.558c-5.087,0-9.669-0.914-13.747-2.735c-4.079-1.822-7.582-4.438-10.507-7.845
				c-2.929-3.405-5.182-7.485-6.766-12.235c-1.583-4.75-2.376-10.099-2.376-16.05c0-5.852,0.793-11.178,2.376-15.978
				c1.584-4.797,3.837-8.899,6.766-12.307c2.925-3.405,6.428-6.021,10.507-7.845c4.078-1.822,8.66-2.734,13.747-2.734
				c4.987,0,9.451,0.908,13.388,2.726c3.932,1.817,7.291,4.329,10.075,7.532c2.782,3.203,4.916,7.004,6.405,11.402
				c1.486,4.399,2.231,9.229,2.231,14.486v5.452h-53.402v3.454c0,3.167,0.503,6.117,1.511,8.854c1.008,2.734,2.447,5.11,4.318,7.124
				c1.872,2.016,4.174,3.599,6.908,4.751c2.736,1.151,5.831,1.727,9.285,1.727c4.7,0,8.803-1.102,12.308-3.311
				c3.502-2.206,6.212-5.373,8.133-9.5l8.204,5.939c-2.399,5.119-6.143,9.246-11.227,12.384
				C1662.27,336.987,1656.224,338.558,1649.22,338.558z M1649.22,270.473c-3.166,0-6.045,0.549-8.637,1.646
				c-2.591,1.098-4.822,2.647-6.694,4.648c-1.87,2.002-3.334,4.363-4.389,7.081c-1.059,2.719-1.583,5.698-1.583,8.941v1.001h41.024
				v-1.575c0-6.579-1.801-11.848-5.4-15.806C1659.943,272.452,1655.169,270.473,1649.22,270.473z"/>
			<path fill="#A49B4B" d="M1716.728,336.829c-4.029,0-7.077-1.124-9.14-3.373c-2.064-2.249-3.096-5.194-3.096-8.834v-51.847
				h-12.234v-10.219h6.909c2.494,0,4.197-0.504,5.11-1.513c0.911-1.007,1.367-2.757,1.367-5.254v-13.818h10.363v20.585h16.268
				v10.219h-16.268v53.835h15.114v10.219H1716.728z"/>
			<path fill="#A49B4B" d="M1796.615,262.557h11.372l-33.251,91.546c-0.865,2.207-1.729,4.053-2.591,5.541
				c-0.863,1.487-1.921,2.664-3.167,3.527c-1.248,0.864-2.807,1.486-4.678,1.871c-1.872,0.383-4.151,0.576-6.837,0.576h-5.902
				v-10.22h11.659l5.614-15.809l-27.781-77.033h11.516l17.849,50.426l3.453,12.07h0.721l4.03-12.07L1796.615,262.557z"/>
			<g>
				<path fill="#A49B4B" d="M646.795,477.748l-3.611-11.477h-15.99l-3.545,11.477h-8.641l15.088-45.004h10.574l14.957,45.004
					H646.795z M635.318,440.482h-0.322l-5.738,18.504h11.863L635.318,440.482z"/>
				<path fill="#A49B4B" d="M692.119,477.748l-3.609-11.477h-15.99l-3.547,11.477h-8.641l15.088-45.004h10.574l14.959,45.004
					H692.119z M680.643,440.482h-0.322l-5.738,18.504h11.863L680.643,440.482z"/>
				<path fill="#A49B4B" d="M736.156,458.729h-18.762v19.02h-8.512v-45.004h8.512v18.439h18.762v-18.439h8.512v45.004h-8.512
					V458.729z"/>
				<path fill="#A49B4B" d="M771.037,457.375l-5.996,7.092v13.281h-8.51v-45.004h8.51v22.18h0.322l6.383-8.445l11.154-13.734h9.801
					l-15.668,18.762l16.957,26.242h-10.121L771.037,457.375z"/>
				<path fill="#A49B4B" d="M809.594,432.744v27.66c0,3.525,0.678,6.168,2.031,7.932c1.354,1.762,3.643,2.643,6.867,2.643
					c3.223,0,5.512-0.881,6.867-2.643c1.354-1.764,2.029-4.406,2.029-7.932v-27.66h8.383v26.564c0,3.311-0.313,6.168-0.936,8.574
					c-0.623,2.408-1.623,4.408-2.998,5.998s-3.17,2.762-5.383,3.514c-2.215,0.75-4.891,1.127-8.027,1.127
					c-3.182,0-5.857-0.377-8.027-1.127c-2.172-0.752-3.945-1.924-5.32-3.514s-2.363-3.59-2.965-5.998
					c-0.604-2.406-0.902-5.264-0.902-8.574v-26.564H809.594z"/>
				<path fill="#A49B4B" d="M861.303,478.521c-3.867,0-7.146-0.688-9.832-2.066c-2.688-1.377-4.996-3.186-6.932-5.426l5.738-5.553
					c1.549,1.791,3.277,3.156,5.191,4.094c1.912,0.939,4.029,1.408,6.35,1.408c2.621,0,4.6-0.564,5.932-1.695s2-2.654,2-4.574
					c0-1.494-0.43-2.709-1.289-3.648c-0.861-0.938-2.473-1.619-4.836-2.047l-4.256-0.639c-8.984-1.422-13.477-5.789-13.477-13.105
					c0-2.023,0.377-3.852,1.129-5.486c0.752-1.637,1.838-3.035,3.256-4.197c1.42-1.162,3.127-2.055,5.127-2.68
					c1.998-0.623,4.266-0.936,6.801-0.936c3.396,0,6.361,0.561,8.898,1.68c2.535,1.121,4.707,2.777,6.512,4.975l-5.803,5.492
					c-1.117-1.363-2.473-2.473-4.063-3.324s-3.588-1.279-5.996-1.279c-2.449,0-4.287,0.459-5.512,1.375s-1.838,2.205-1.838,3.867
					c0,1.703,0.494,2.961,1.482,3.771c0.988,0.809,2.58,1.406,4.771,1.789l4.191,0.773c4.555,0.818,7.92,2.271,10.09,4.357
					c2.17,2.088,3.256,5.002,3.256,8.746c0,2.152-0.377,4.098-1.127,5.842c-0.754,1.742-1.85,3.248-3.289,4.518
					c-1.441,1.27-3.203,2.248-5.287,2.938C866.406,478.178,864.012,478.521,861.303,478.521z"/>
				<path fill="#A49B4B" d="M896.055,432.744v27.66c0,3.525,0.678,6.168,2.031,7.932c1.354,1.762,3.643,2.643,6.867,2.643
					c3.223,0,5.512-0.881,6.867-2.643c1.354-1.764,2.029-4.406,2.029-7.932v-27.66h8.383v26.564c0,3.311-0.313,6.168-0.936,8.574
					c-0.623,2.408-1.623,4.408-2.998,5.998s-3.17,2.762-5.383,3.514c-2.215,0.75-4.891,1.127-8.027,1.127
					c-3.182,0-5.857-0.377-8.027-1.127c-2.172-0.752-3.945-1.924-5.32-3.514s-2.363-3.59-2.965-5.998
					c-0.604-2.406-0.902-5.264-0.902-8.574v-26.564H896.055z"/>
			</g>
		</g>
	</g>
</g>
</svg>
