<?xml version="1.0" encoding="utf-8"?>
<!-- Generator: Adobe Illustrator 16.0.0, SVG Export Plug-In . SVG Version: 6.00 Build 0)  -->
<!DOCTYPE svg PUBLIC "-//W3C//DTD SVG 1.0//EN" "http://www.w3.org/TR/2001/REC-SVG-20010904/DTD/svg10.dtd">
<svg version="1.0" id="Logotypes" xmlns="http://www.w3.org/2000/svg" xmlns:xlink="http://www.w3.org/1999/xlink" x="0px" y="0px"
	 width="655.268px" height="708.668px" viewBox="0 0 655.268 708.668" enable-background="new 0 0 655.268 708.668"
	 xml:space="preserve">
<g>
	<defs>
		<rect id="SVGID_123_" width="655.268" height="708.668"/>
	</defs>
	<clipPath id="SVGID_2_">
		<use xlink:href="#SVGID_123_"  overflow="visible"/>
	</clipPath>
	<g clip-path="url(#SVGID_2_)">
		<g>
			<g>
				<path fill="#FFFFFF" d="M158.432,271.572c-9.105,21.527-14.52,44.145-16.17,67.426c3.588-2.922,8.159-4.68,13.137-4.68
					c5.495,0,10.488,2.154,14.216,5.636c7.338-95.592,87.225-170.871,184.702-170.871c7.553,0,13.674-6.123,13.674-13.676
					c0-7.553-6.122-13.676-13.674-13.676c-28.689,0-56.537,5.625-82.766,16.719c-25.318,10.709-48.053,26.033-67.567,45.549
					C184.465,223.518,169.139,246.252,158.432,271.572z"/>
				<path fill="#FFFFFF" d="M339.176,538.969c-94.955-7.683-169.672-86.963-170.102-183.797c0-7.55-6.12-13.676-13.675-13.676
					c-7.553,0-13.676,6.125-13.676,13.676c0.109,28.395,5.723,55.955,16.709,81.928c10.707,25.318,26.033,48.053,45.552,67.568
					c19.515,19.518,42.249,34.843,67.567,45.552c21.256,8.991,43.573,14.387,66.539,16.112c-2.887-3.58-4.627-8.124-4.627-13.069
					C333.463,547.73,335.646,542.707,339.176,538.969z"/>
				<path fill="#FFFFFF" d="M502.518,487.412c-2.67-2.672-6.17-4.006-9.67-4.006c-3.498,0-7,1.334-9.672,4.006
					c-33.342,32.291-78.775,52.176-128.859,52.176c-7.553,0-13.676,6.123-13.676,13.676c0,7.553,6.123,13.675,13.676,13.675
					c28.69,0,56.535-5.625,82.764-16.719c24.408-10.319,46.401-24.947,65.438-43.468
					C507.861,501.412,507.861,492.754,502.518,487.412z"/>
				<path fill="#FFFFFF" d="M354.316,566.938c-7.553,0-13.676-6.122-13.676-13.675c0-7.553,6.123-13.676,13.676-13.676
					c50.084,0,95.518-19.885,128.859-52.176c2.672-2.672,6.174-4.006,9.672-4.006c3.5,0,7,1.334,9.67,4.006
					c5.344,5.342,5.344,14,0,19.34c-19.036,18.521-41.029,33.148-65.438,43.468C410.852,561.313,383.007,566.938,354.316,566.938z
					 M271.551,550.22c-25.318-10.708-48.053-26.034-67.567-45.552c-19.519-19.516-34.845-42.25-45.552-67.568
					c-10.986-25.973-16.6-53.533-16.709-81.928c0-7.55,6.123-13.676,13.676-13.676c7.556,0,13.675,6.125,13.675,13.676
					c0.43,96.834,75.147,176.115,170.102,183.797c-3.53,3.738-5.713,8.761-5.713,14.294c0,4.945,1.74,9.489,4.627,13.069
					C315.124,564.607,292.807,559.21,271.551,550.22z M354.316,141.732c7.553,0,13.674,6.123,13.674,13.676
					c0,7.553-6.122,13.676-13.674,13.676c-97.477,0-177.363,75.279-184.702,170.871c-3.728-3.482-8.721-5.636-14.216-5.636
					c-4.978,0-9.549,1.757-13.137,4.68c1.65-23.281,7.064-45.898,16.17-67.426c10.707-25.32,26.033-48.055,45.552-67.572
					c19.515-19.516,42.249-34.84,67.567-45.549C297.78,147.357,325.627,141.732,354.316,141.732z"/>
			</g>
			<g>
				<g>
					<g>
						<path fill="#FFFFFF" d="M466.902,241.75c-30.07-30.073-70.055-46.633-112.586-46.633c-42.527,0-82.513,16.56-112.584,46.633
							c-30.072,30.072-46.637,70.057-46.637,112.585c0,42.53,16.564,82.512,46.637,112.587
							c30.071,30.07,70.057,46.634,112.584,46.634c42.531,0,82.516-16.564,112.586-46.634
							c30.073-30.075,46.633-70.057,46.633-112.587C513.535,311.807,496.976,271.822,466.902,241.75z"/>
						<path fill="#333E48" d="M242.105,405.826V302.848h22.334v7.611h-12.944v87.754h12.944v7.613H242.105z"/>
						<path fill="#333E48" d="M466.527,302.848v102.978h-22.329v-7.613h12.939v-87.754h-12.939v-7.611H466.527z"/>
						<path fill="#00C2F3" d="M293.977,375.255c0,2.056,0.032,4.484,0.095,7.271c0.063,2.79,0.151,5.624,0.26,8.496
							c0.105,2.875,0.233,5.623,0.387,8.24c0.146,2.617,0.33,4.805,0.545,6.563H282.07v-72.73c0-6.263-0.107-11.938-0.322-17.023
							c-0.213-5.087-0.535-9.495-0.967-13.225h13.196V375.255z"/>
						<path fill="#00C2F3" d="M351.583,340.175v8.434h-12.101v48.787h12.101v8.432h-36.042v-8.432h11.906v-48.787h-11.906v-8.434
							H351.583z"/>
						<path fill="#00C2F3" d="M378.617,340.175c0.256,0.688,0.514,1.577,0.771,2.674c0.26,1.093,0.492,2.24,0.709,3.441
							c0.211,1.201,0.404,2.383,0.58,3.542l0.512,2.892c4.121-4.89,8.259-8.417,12.422-10.585c4.164-2.167,8.5-3.25,13.002-3.25
							c3.434,0,6.47,0.568,9.108,1.705c2.64,1.141,4.86,2.942,6.663,5.407c1.8,2.469,3.162,5.668,4.088,9.591
							c0.921,3.927,1.382,8.654,1.382,14.194v28.96c0,7.252-0.634,13.273-1.9,18.055c-1.264,4.787-3.037,8.604-5.309,11.46
							c-2.273,2.85-5.011,4.867-8.207,6.047c-3.197,1.18-6.748,1.771-10.652,1.771c-1.931,0-4.001-0.312-6.211-0.934
							c-2.209-0.625-4.215-1.492-6.018-2.607l4.184-9.656c0.986,0.73,2.306,1.341,3.959,1.836c1.65,0.492,3.336,0.738,5.049,0.738
							c2.062,0,3.908-0.33,5.54-0.996c1.63-0.664,3.012-1.832,4.149-3.506c1.137-1.676,2.006-3.97,2.607-6.888
							c0.599-2.918,0.9-6.631,0.9-11.135v-28.321c0-5.148-0.267-9.322-0.804-12.52c-0.535-3.196-1.343-5.686-2.415-7.465
							c-1.071-1.781-2.413-2.973-4.024-3.576c-1.605-0.598-3.483-0.898-5.629-0.898c-2.316,0-4.578,0.547-6.788,1.644
							c-2.21,1.092-4.241,2.508-6.087,4.246c-1.844,1.736-3.473,3.697-4.888,5.889c-1.416,2.189-2.469,4.375-3.156,6.564v37.332
							h-11.906v-39.584c0-6.35-0.365-11.725-1.096-16.123c-0.727-4.398-1.438-7.715-2.123-9.946H378.617z"/>
					</g>
				</g>
			</g>
		</g>
	</g>
</g>
</svg>
