<?xml version="1.0" encoding="utf-8"?>
<!-- Generator: Adobe Illustrator 16.0.0, SVG Export Plug-In . SVG Version: 6.00 Build 0)  -->
<!DOCTYPE svg PUBLIC "-//W3C//DTD SVG 1.0//EN" "http://www.w3.org/TR/2001/REC-SVG-20010904/DTD/svg10.dtd">
<svg version="1.0" id="Logotypes" xmlns="http://www.w3.org/2000/svg" xmlns:xlink="http://www.w3.org/1999/xlink" x="0px" y="0px"
	 width="2678.556px" height="708.665px" viewBox="0 0 2678.556 708.665" enable-background="new 0 0 2678.556 708.665"
	 xml:space="preserve">
<g>
	<defs>
		<rect id="SVGID_57_" width="2678.556" height="708.665"/>
	</defs>
	<clipPath id="SVGID_2_">
		<use xlink:href="#SVGID_57_"  overflow="visible"/>
	</clipPath>
	<g clip-path="url(#SVGID_2_)">
		<g>
			
				<text transform="matrix(1.0154 0 0 1 1798.8696 379.0391)" fill="#333E48" font-family="'NotoSansCJKtc-Medium-B5pc-H'" font-size="62.1189" letter-spacing="3.939">二零一七至二零一八年度</text>
		</g>
		<g>
			<rect x="1633.969" y="222.214" fill="#333E48" width="3" height="264.237"/>
		</g>
		<g>
			<g>
				<path fill="#5A5C66" d="M155.407,341.493c7.555,0,13.677,6.124,13.677,13.676c-0.002-0.278-0.012-0.558-0.012-0.837
					c0-102.31,82.936-185.249,185.249-185.249c7.552,0,13.675-6.122,13.675-13.675s-6.123-13.676-13.675-13.676
					c-28.688,0-56.534,5.625-82.763,16.719c-25.319,10.709-48.053,26.033-67.567,45.55c-19.518,19.516-34.844,42.25-45.551,67.568
					c-11.094,26.229-16.718,54.074-16.718,82.763c0,0.279,0.008,0.559,0.01,0.837C141.732,347.617,147.854,341.493,155.407,341.493z
					"/>
				<path fill="#858591" d="M340.646,553.256c0-7.553,6.122-13.676,13.676-13.676c-102.032,0-184.787-82.486-185.237-184.411
					c0-7.552-6.122-13.676-13.677-13.676c-7.554,0-13.675,6.124-13.675,13.676c0.108,28.394,5.723,55.952,16.708,81.925
					c10.707,25.318,26.033,48.053,45.551,67.568c19.515,19.518,42.248,34.842,67.567,45.551
					c26.229,11.095,54.074,16.72,82.763,16.72C346.768,566.933,340.646,560.81,340.646,553.256z"/>
				<path fill="#9F9EA7" d="M502.521,487.406c-5.344-5.342-14-5.342-19.342,0c-33.341,32.289-78.775,52.174-128.857,52.174
					c-7.554,0-13.676,6.123-13.676,13.676c0,7.554,6.122,13.677,13.676,13.677c28.689,0,56.533-5.625,82.761-16.72
					c24.407-10.322,46.4-24.947,65.438-43.467C507.86,501.406,507.86,492.746,502.521,487.406z"/>
			</g>
			<g>
				<g>
					<g>
						<path fill="#9F9EA7" d="M466.904,241.749c-30.071-30.072-70.056-46.631-112.585-46.631
							c-42.526,0-82.512,16.559-112.582,46.631c-30.071,30.072-46.635,70.056-46.635,112.583c0,42.529,16.563,82.508,46.635,112.582
							c30.07,30.071,70.056,46.636,112.582,46.636c42.529,0,82.514-16.564,112.585-46.636c30.07-30.074,46.63-70.053,46.63-112.582
							C513.534,311.805,496.975,271.821,466.904,241.749z"/>
						<path fill="#333E48" d="M242.111,405.822V302.845h22.334v7.612H251.5v87.752h12.945v7.613H242.111z"/>
						<path fill="#333E48" d="M466.529,302.845v102.978h-22.33v-7.613h12.939v-87.752h-12.939v-7.612H466.529z"/>
						<path fill="#FFFFFF" d="M293.98,375.252c0,2.056,0.032,4.483,0.096,7.271c0.063,2.789,0.151,5.624,0.259,8.497
							c0.105,2.875,0.234,5.623,0.387,8.24c0.147,2.617,0.331,4.805,0.546,6.563h-13.194v-72.73c0-6.263-0.105-11.938-0.321-17.022
							c-0.213-5.086-0.535-9.495-0.966-13.225h13.194V375.252z"/>
						<path fill="#FFFFFF" d="M351.586,340.173v8.434h-12.101v48.786h12.101v8.432h-36.041v-8.432h11.906v-48.786h-11.906v-8.434
							H351.586z"/>
						<path fill="#FFFFFF" d="M378.619,340.173c0.257,0.688,0.515,1.576,0.771,2.674c0.261,1.093,0.492,2.239,0.709,3.44
							c0.212,1.201,0.405,2.382,0.58,3.541l0.512,2.893c4.121-4.89,8.259-8.417,12.422-10.585c4.163-2.166,8.5-3.251,13.003-3.251
							c3.434,0,6.47,0.568,9.107,1.706c2.639,1.14,4.86,2.941,6.663,5.406c1.8,2.469,3.161,5.666,4.087,9.591
							c0.922,3.928,1.383,8.654,1.383,14.194v28.958c0,7.254-0.635,13.273-1.9,18.055c-1.264,4.787-3.036,8.605-5.309,11.461
							c-2.273,2.85-5.011,4.867-8.207,6.047c-3.196,1.182-6.746,1.77-10.652,1.77c-1.93,0-4-0.311-6.211-0.932
							c-2.209-0.625-4.215-1.49-6.018-2.607l4.185-9.654c0.986,0.729,2.306,1.34,3.958,1.836c1.651,0.492,3.337,0.738,5.051,0.738
							c2.063,0,3.907-0.332,5.539-0.996c1.63-0.666,3.012-1.834,4.148-3.508s2.007-3.969,2.608-6.887c0.6-2.92,0.9-6.631,0.9-11.135
							v-28.321c0-5.148-0.269-9.322-0.806-12.518c-0.535-3.196-1.342-5.687-2.414-7.467s-2.413-2.972-4.024-3.574
							c-1.605-0.598-3.483-0.899-5.63-0.899c-2.315,0-4.577,0.548-6.787,1.644c-2.211,1.093-4.241,2.51-6.086,4.247
							c-1.846,1.736-3.475,3.697-4.89,5.889c-1.415,2.188-2.469,4.375-3.156,6.564v37.332h-11.905V366.24
							c0-6.351-0.365-11.725-1.096-16.124c-0.729-4.397-1.438-7.713-2.124-9.943H378.619z"/>
					</g>
				</g>
			</g>
		</g>
		<g>
			<g>
				<path fill="#333E48" d="M731.927,379.635h-54.993v-9.129h54.993V379.635z M724.77,476.84h-9.421v-10.006h-21.983v10.006h-9.567
					v-49.369h40.972V476.84z M724.331,398.477l-40.387,0.146v-9.129h40.387V398.477z M724.478,417.611h-40.533v-9.129h40.533
					V417.611z M722.651,361.084l-37.1,0.146v-9.129h37.1V361.084z M715.349,457.852v-21.398H693.22v21.398H715.349z
					 M809.705,417.758l-78.947,0.145v-8.982h19.572l4.236-22.566h-18.259v-8.982h19.72l3.14-16.725h-27.971v-9.129h72.521v8.982
					h-34.69l-2.994,16.725h30.09l-3.141,31.549h16.724V417.758z M796.997,477.133h-9.42v-9.859h-36.955v9.859h-9.566v-49.516h55.941
					V477.133z M787.577,458.289V436.6h-37.102v21.689H787.577z M786.116,386.207h-21.691l-4.234,22.713h23.662L786.116,386.207z"/>
				<path fill="#333E48" d="M974.377,379.635H841.605v-9.129h132.771V379.635z M954.805,398.33H859.86v-8.836h94.944V398.33z
					 M954.805,417.318H859.86v-8.836h94.944V417.318z M951.371,477.133h-9.42v-10.299h-68.504v10.299h-9.423v-49.662h87.347V477.133
					z M951.227,360.135l-86.471,0.219v-8.836h86.471V360.135z M941.951,457.852v-21.398h-68.504v21.398H941.951z"/>
				<path fill="#333E48" d="M1139.05,450.695h-58.791v10.15c0,10.857-5.77,16.287-17.311,16.287h-9.713l-3.578-8.982h13.584
					c4.771,0,7.158-2.193,7.158-6.574v-10.881h-64.123v-9.129h64.123v-6.281c10.174-3.799,17.453-7.352,21.836-10.662h-55.943v-8.4
					h72.158v7.961c-7.598,5.162-16.994,10.443-28.191,15.848v1.535h58.791V450.695z M1132.915,423.6h-8.766v-15.117h-102.023v15.994
					h-9.569v-24.539h12.562v-44.551c6.912-0.68,14.486-3.967,22.715-9.857l4.82,6.719c-4.434,4.09-10.471,7.182-18.113,9.275v6.135
					h18.695v7.596h-18.695v7.959h18.695v7.449h-18.695v9.275h77.633v-9.275h-17.82v-7.303h17.82v-8.545h-17.674v-7.449h17.674
					v-7.961h-20.668v-8.836h29.943v49.223h11.467V423.6z M1091.505,366.928l-5.111,6.279c-2.777-2.676-6.551-5.574-11.32-8.689
					c-3.943,3.311-8.375,6.354-13.293,9.129l-5.988-5.26c4.723-1.945,8.859-4.234,12.416-6.863
					c-5.941-2.24-10.736-3.799-14.389-4.674l3.727-6.721c5.402,1.363,10.832,3.117,16.285,5.258
					c3.457-3.26,6.354-6.596,8.691-10.004l6.135,4.893c-1.949,3.02-4.48,5.965-7.596,8.838
					C1084.663,361.156,1088.146,363.762,1091.505,366.928z M1092.38,393.51l-6.133,4.82c-3.943-3.018-8.035-5.525-12.27-7.521
					c-2.629,1.996-7.303,4.504-14.021,7.521l-5.551-4.381c6.279-2.969,10.783-5.551,13.512-7.742
					c-2.729-1.703-6.865-3.602-12.416-5.697l5.477-4.6c5.014,1.803,9.299,3.676,12.854,5.623c1.361-0.777,4.113-3.115,8.252-7.012
					l6.719,3.434c-2.482,3.213-5.256,5.867-8.324,7.961C1084.519,387.766,1088.485,390.297,1092.38,393.51z"/>
				<path fill="#333E48" d="M1303.573,450.695h-58.79v10.15c0,10.857-5.77,16.287-17.309,16.287h-9.714l-3.577-8.982h13.584
					c4.77,0,7.156-2.193,7.156-6.574v-10.881h-64.121v-9.129h64.121v-6.281c10.176-3.799,17.453-7.352,21.837-10.662h-55.942v-8.4
					h72.156v7.961c-7.597,5.162-16.994,10.443-28.191,15.848v1.535h58.79V450.695z M1297.44,423.6h-8.767v-15.117H1186.65v15.994
					h-9.566v-24.539h12.56v-44.551c6.915-0.68,14.484-3.967,22.713-9.857l4.82,6.719c-4.429,4.09-10.468,7.182-18.112,9.275v6.135
					h18.696v7.596h-18.696v7.959h18.696v7.449h-18.696v9.275h77.633v-9.275h-17.819v-7.303h17.819v-8.545h-17.674v-7.449h17.674
					v-7.961h-20.668v-8.836h29.943v49.223h11.468V423.6z M1258.631,391.871l-6.655,6.084c-3.036-4.563-7.381-10.275-11.585-13.824
					c-6.534,7.279-11.906,11.912-16.105,13.895l-6.584-5.529c4.949-2.355,10.316-6.752,16.106-13.203
					c-6.584-4.102-11.274-6.637-14.075-7.605l5.743-5.941c2.335,0.922,6.719,3.316,13.167,7.189
					c1.916-3.135,3.406-6.568,4.48-10.301h-21.99v-8.639h11.789V345.1h7.566v8.896h13.992v8.639h-2.771
					c-1.554,5.717-3.646,10.67-6.274,14.863C1250.524,381.367,1255.409,387.264,1258.631,391.871z"/>
				<path fill="#333E48" d="M1470.511,379.344l-5.259,7.594c-16.604-4.09-29.602-8.813-38.998-14.168v6.574h-49.371v-7.232
					c-14.217,7.354-26.974,12.15-38.27,14.389l-4.819-7.668c27.362-6.67,50.146-17.82,68.358-33.449l8.983,2.994
					c-0.976,1.217-1.828,2.07-2.559,2.555C1424.741,364.371,1445.387,373.842,1470.511,379.344z M1454.953,421.189h-106.042v-34.252
					h106.042V421.189z M1446.264,477.277h-8.982v-5.842h-70.549v5.842h-8.982v-48.42h88.514V477.277z M1397.552,413.303v-18.258
					h-39.658v18.258H1397.552z M1437.281,446.313v-9.42h-70.549v9.42H1437.281z M1437.281,463.549v-9.568h-70.549v9.568H1437.281z
					 M1387.838,406.072l-7.521,5.258c-4.527-4.574-8.96-7.959-13.293-10.15l7.596-4.383
					C1379.779,398.988,1384.186,402.08,1387.838,406.072z M1423.261,371.236c-7.062-3.699-13.904-8.691-20.524-14.973
					c-7.06,5.844-14.971,10.834-23.734,14.973H1423.261z M1445.973,413.303v-18.258h-39.438v18.258H1445.973z M1437.136,399.354
					c-2.875,4.576-7.209,8.473-13,11.686l-8.034-4.018c6.379-3.602,10.759-7.205,13.145-10.809L1437.136,399.354z"/>
			</g>
			<g>
				<path fill="#333E48" d="M732.614,260.248l-2.789,3.211c-8.36-2.939-16.32-8.119-23.881-15.541l0.061,11.73h14.01v25.801h-3.811
					V282h-24.27v3.449h-3.932v-25.801h14.07v-11.73c-4.119,6.301-11.561,11.23-22.32,14.791l-2.819-3.18
					c9.54-2.521,16.36-6.391,20.46-11.611h-17.07v-3.75h21.75v-5.789c-4.779,0.48-10.779,0.83-18,1.049l-2.58-3.629
					c17.061-0.061,30.681-1.49,40.861-4.291l2.88,2.881c-5.661,1.52-12.07,2.689-19.229,3.51v6.27h22.05v3.75l-17.19-0.059
					C717.224,253.379,724.475,257.51,732.614,260.248z M716.204,268.68v-5.281h-24.33v5.281H716.204z M716.204,278.309v-5.939
					h-24.33v5.939H716.204z"/>
				<path fill="#333E48" d="M748.216,263.008c-2.521,7.822-5.822,14.232-9.9,19.232l3.51,2.221
					c4.539-5.723,7.881-12.131,10.021-19.23L748.216,263.008z M741.886,246.359l-2.521,3.15c3.98,1.699,7.131,4.139,9.453,7.318
					l2.637-3.568C749.376,250.479,746.187,248.18,741.886,246.359z M744.824,232.92l-2.819,2.879
					c3.84,1.379,6.869,3.701,9.092,6.959l2.818-3.029C751.774,236.629,748.744,234.359,744.824,232.92z"/>
				<path fill="#333E48" d="M784.036,272.131v-11.313c2.379,2.24,4.939,4.08,7.682,5.521l2.459-3.332
					c-5.24-2.238-9.322-5.779-12.24-10.619h10.258v-3.689h-9.808v-7.17h7.409v-3.691h-7.409v-6.328h-3.812v6.389h-11.129v-6.389
					h-3.813v6.389h-7.378v3.689h7.44v7.17h-9.781v3.691h9.9c-2.219,4.16-6.23,7.621-12.029,10.379l2.818,3.33
					c1.715-0.994,3.295-2.074,4.74-3.238V279c0,3.439,1.721,5.16,5.16,5.16h19.65c1.602,0,2.866-0.531,3.795-1.59
					c0.932-1.061,1.656-3.15,2.176-6.27l-3.869-1.74c-0.262,2.5-0.64,4.098-1.141,4.799c-0.5,0.701-1.17,1.051-2.01,1.051h-18.301
					c-1.102,0-1.648-0.551-1.648-1.652v-6.627H784.036z M767.446,241.529h11.189v7.17h-11.189V241.529z M767.805,252.389h10.2
					c0.982,2.32,2.461,4.59,4.44,6.813h-19.05C765.556,256.82,767.026,254.549,767.805,252.389z M763.157,262.889h17.069v5.611
					h-17.069V262.889z"/>
				<path fill="#333E48" d="M855.377,282.449l-2.789,3.119c-12.502-6.818-20.441-18.309-23.822-34.469
					c-4.18,16.42-12.699,27.91-25.56,34.469l-3.03-3.568c12.74-6.201,20.811-16.48,24.211-30.842h-20.4v-3.869h20.85
					c0.381-3.76,0.538-9.021,0.48-15.781l4.17,0.602c0.1,6.119-0.02,11.16-0.36,15.119h22.741v3.871h-18.93
					C835.336,264.799,842.816,275.25,855.377,282.449z"/>
				<path fill="#333E48" d="M916.549,274.648h-24.15v4.172c0,4.459-2.371,6.689-7.111,6.689h-3.99l-1.47-3.689h5.581
					c1.959,0,2.939-0.9,2.939-2.701v-4.471h-26.34v-3.75h26.34v-2.58c4.18-1.559,7.17-3.02,8.971-4.379h-22.98v-3.451h29.64v3.27
					c-3.121,2.121-6.979,4.291-11.579,6.512v0.629h24.15V274.648z M914.029,263.52h-3.6v-6.211h-41.912v6.57h-3.93v-10.08h5.16
					v-18.301c2.84-0.279,5.949-1.629,9.329-4.049l1.979,2.76c-1.818,1.68-4.299,2.949-7.439,3.811v2.52h7.68v3.119h-7.68v3.271h7.68
					v3.059h-7.68v3.811h31.891v-3.811h-7.32v-3h7.32v-3.51h-7.26v-3.061h7.26v-3.27h-8.49v-3.629h12.301v20.219h4.711V263.52z
					 M897.018,240.238l-2.1,2.58c-1.142-1.1-2.69-2.289-4.65-3.57c-1.619,1.361-3.44,2.611-5.46,3.75l-2.46-2.158
					c1.939-0.801,3.641-1.74,5.1-2.82c-2.439-0.92-4.41-1.561-5.91-1.922l1.531-2.76c2.219,0.561,4.449,1.281,6.689,2.16
					c1.419-1.338,2.609-2.709,3.569-4.109l2.521,2.01c-0.801,1.24-1.84,2.451-3.12,3.631
					C894.206,237.867,895.637,238.939,897.018,240.238z M897.379,251.158l-2.522,1.98c-1.618-1.24-3.298-2.27-5.038-3.09
					c-1.08,0.82-3,1.85-5.76,3.09l-2.282-1.801c2.58-1.219,4.43-2.279,5.551-3.18c-1.121-0.699-2.819-1.479-5.1-2.34l2.248-1.891
					c2.062,0.74,3.823,1.512,5.282,2.311c0.561-0.32,1.689-1.279,3.391-2.879l2.76,1.41c-1.02,1.318-2.16,2.41-3.42,3.27
					C894.148,248.799,895.776,249.838,897.379,251.158z"/>
				<path fill="#333E48" d="M977.989,274.648H953.84v4.172c0,4.459-2.371,6.689-7.112,6.689h-3.987l-1.471-3.689h5.58
					c1.958,0,2.939-0.9,2.939-2.701v-4.471h-26.34v-3.75h26.34v-2.58c4.18-1.559,7.169-3.02,8.972-4.379h-22.981v-3.451h29.641v3.27
					c-3.121,2.121-6.98,4.291-11.58,6.512v0.629h24.149V274.648z M975.471,263.52h-3.602v-6.211h-41.911v6.57h-3.929v-10.08h5.16
					v-18.301c2.84-0.279,5.949-1.629,9.33-4.049l1.98,2.76c-1.82,1.68-4.301,2.949-7.441,3.811v2.52h7.682v3.119h-7.682v3.271h7.682
					v3.059h-7.682v3.811h31.891v-3.811h-7.32v-3h7.32v-3.51h-7.26v-3.061h7.26v-3.27h-8.491v-3.629h12.303v20.219h4.71V263.52z
					 M958.458,240.238l-2.099,2.58c-1.141-1.1-2.691-2.289-4.65-3.57c-1.619,1.361-3.439,2.611-5.459,3.75l-2.461-2.158
					c1.938-0.801,3.641-1.74,5.1-2.82c-2.439-0.92-4.411-1.561-5.911-1.922l1.533-2.76c2.217,0.561,4.447,1.281,6.688,2.16
					c1.42-1.338,2.608-2.709,3.57-4.109l2.52,2.01c-0.801,1.24-1.84,2.451-3.119,3.631
					C955.65,237.867,957.08,238.939,958.458,240.238z M958.82,251.158l-2.521,1.98c-1.619-1.24-3.299-2.27-5.038-3.09
					c-1.081,0.82-3,1.85-5.763,3.09l-2.279-1.801c2.58-1.219,4.43-2.279,5.551-3.18c-1.121-0.699-2.82-1.479-5.1-2.34l2.25-1.891
					c2.058,0.74,3.818,1.512,5.279,2.311c0.562-0.32,1.689-1.279,3.391-2.879l2.76,1.41c-1.02,1.318-2.16,2.41-3.42,3.27
					C955.59,248.799,957.219,249.838,958.82,251.158z"/>
				<path fill="#333E48" d="M1039.431,282.51H984.83v-3.869h25.441v-14.072h-18.332v-3.869h18.332v-12.24H996.68
					c-1.639,4.26-4.379,8.189-8.22,11.789l-3.96-2.07c6.56-6.059,10.209-13.479,10.95-22.26l4.05,1.17
					c-0.16,2.041-0.629,4.561-1.408,7.561h12.117v-13.141h4.052v13.08h21.18v3.871h-21.18v12.18h18.061v3.869h-18.061v14.072h25.17
					V282.51z"/>
				<path fill="#333E48" d="M1101.862,245.338l-2.16,3.121c-6.82-1.68-12.16-3.619-16.02-5.82v2.699h-20.281v-2.969
					c-5.84,3.02-11.08,4.99-15.721,5.91l-1.979-3.15c11.238-2.74,20.6-7.32,28.08-13.74l3.689,1.23c-0.4,0.5-0.75,0.85-1.049,1.049
					C1083.062,239.189,1091.542,243.078,1101.862,245.338z M1095.474,262.529h-43.563v-14.07h43.563V262.529z M1091.903,285.568
					h-3.691v-2.398h-28.98v2.398h-3.689V265.68h36.361V285.568z M1071.892,259.289v-7.5h-16.291v7.5H1071.892z M1088.212,272.85
					v-3.871h-28.98v3.871H1088.212z M1088.212,279.93V276h-28.98v3.93H1088.212z M1067.901,256.318l-3.09,2.16
					c-1.859-1.879-3.68-3.27-5.461-4.17l3.121-1.799C1064.591,253.408,1066.401,254.68,1067.901,256.318z M1082.452,242.01
					c-2.9-1.52-5.711-3.57-8.432-6.152c-2.898,2.4-6.148,4.451-9.748,6.152H1082.452z M1091.782,259.289v-7.5h-16.199v7.5H1091.782z
					 M1088.151,253.559c-1.18,1.881-2.959,3.48-5.34,4.801l-3.299-1.65c2.619-1.48,4.42-2.961,5.398-4.439L1088.151,253.559z"/>
				<path fill="#333E48" d="M1162.944,281.639l-2.641,3.512c-10.18-3-18.441-7.041-24.779-12.121
					c-5.463,4.461-14.041,8.58-25.742,12.361l-2.939-3.57c11.32-3.141,19.881-6.951,25.682-11.432
					c-5.82-5.5-9.732-12.189-11.73-20.07c-1.08,2.781-2.563,5.42-4.441,7.92l-3.178-2.908c2.52-3.002,4.547-6.291,6.088-9.871
					h-10.32v-3.689h24.063v-10.262h3.869v10.201h24.48v3.689h-10.262c-1.799,10.441-5.938,18.75-12.42,24.93
					C1144.573,274.809,1152.663,278.58,1162.944,281.639z M1147.073,245.398h-23.219c1.598,9.26,5.508,16.711,11.729,22.352
					C1141.663,262.09,1145.493,254.639,1147.073,245.398z"/>
				<path fill="#333E48" d="M1223.756,274.648h-24.152v4.172c0,4.459-2.369,6.689-7.11,6.689h-3.989l-1.469-3.689h5.578
					c1.96,0,2.941-0.9,2.941-2.701v-4.471h-26.339v-3.75h26.339v-2.58c4.18-1.559,7.169-3.02,8.969-4.379h-22.981v-3.451h29.642
					v3.27c-3.119,2.121-6.98,4.291-11.58,6.512v0.629h24.152V274.648z M1221.236,263.52h-3.601v-6.211h-41.913v6.57h-3.93v-10.08
					h5.16v-18.301c2.84-0.279,5.951-1.629,9.332-4.049l1.979,2.76c-1.819,1.68-4.301,2.949-7.441,3.811v2.52h7.682v3.119h-7.682
					v3.271h7.682v3.059h-7.682v3.811h31.893v-3.811h-7.323v-3h7.323v-3.51h-7.26v-3.061h7.26v-3.27h-8.491v-3.629h12.3v20.219h4.713
					V263.52z M1204.224,240.238l-2.101,2.58c-1.139-1.1-2.689-2.289-4.648-3.57c-1.621,1.361-3.441,2.611-5.461,3.75l-2.459-2.158
					c1.938-0.801,3.638-1.74,5.1-2.82c-2.441-0.92-4.413-1.561-5.91-1.922l1.531-2.76c2.218,0.561,4.448,1.281,6.689,2.16
					c1.421-1.338,2.608-2.709,3.568-4.109l2.521,2.01c-0.801,1.24-1.842,2.451-3.119,3.631
					C1201.414,237.867,1202.845,238.939,1204.224,240.238z M1204.584,251.158l-2.52,1.98c-1.62-1.24-3.301-2.27-5.041-3.09
					c-1.08,0.82-3,1.85-5.76,3.09l-2.281-1.801c2.582-1.219,4.432-2.279,5.551-3.18c-1.119-0.699-2.82-1.479-5.1-2.34l2.25-1.891
					c2.061,0.74,3.82,1.512,5.281,2.311c0.56-0.32,1.689-1.279,3.389-2.879l2.76,1.41c-1.019,1.318-2.158,2.41-3.419,3.27
					C1201.354,248.799,1202.982,249.838,1204.584,251.158z"/>
				<path fill="#333E48" d="M1244.272,251.908c4.042,4.541,6.063,8.971,6.063,13.291c0,2.1-0.546,3.77-1.637,5.01
					c-1.089,1.24-2.613,1.861-4.574,1.861c-1.081,0-2.381-0.131-3.901-0.391l-1.108-3.99c2.141,0.541,3.679,0.811,4.619,0.811
					c0.779,0,1.489-0.301,2.131-0.9c0.641-0.6,0.96-1.4,0.96-2.4c0-1.5-0.55-3.42-1.648-5.76c-1.104-2.34-2.753-4.57-4.953-6.689
					l5.853-15.031h-8.91v47.791h-3.932v-51.602h16.83v3.811L1244.272,251.908z M1285.646,274.5c-0.521,3.24-1.22,5.59-2.103,7.049
					c-0.878,1.461-2.31,2.191-4.288,2.191h-4.68c-3.121,0-4.68-1.641-4.68-4.92v-15.871h-6.332
					c-0.12,6.439-1.375,11.266-3.763,14.475c-2.393,3.211-6.826,5.906-13.309,8.086l-2.519-3.451c6.019-1.779,10.15-4.08,12.391-6.9
					c2.24-2.818,3.369-6.869,3.391-12.148h-8.221v-3.932h32.133v3.871h-10.024v14.941c0,0.498,0.161,0.965,0.481,1.395
					c0.319,0.43,0.7,0.645,1.141,0.645h3.811c0.779,0,1.375-0.641,1.784-1.92s0.755-2.939,1.036-4.98L1285.646,274.5z
					 M1282.194,247.289l-3.808,0.061v-5.281h-22.621v5.281h-3.872v-9.092h13.171v-6.809h3.932v6.75h13.198V247.289z
					 M1277.156,253.078h-20.282v-3.93h20.282V253.078z"/>
				<path fill="#333E48" d="M1346.639,274.648h-24.152v4.172c0,4.459-2.371,6.689-7.109,6.689h-3.99l-1.471-3.689h5.58
					c1.961,0,2.941-0.9,2.941-2.701v-4.471h-26.343v-3.75h26.343v-2.58c4.18-1.559,7.17-3.02,8.969-4.379h-22.979v-3.451h29.64v3.27
					c-3.119,2.121-6.98,4.291-11.58,6.512v0.629h24.152V274.648z M1344.117,263.52h-3.6v-6.211h-41.91v6.57h-3.931v-10.08h5.161
					v-18.301c2.839-0.279,5.949-1.629,9.328-4.049l1.98,2.76c-1.821,1.68-4.299,2.949-7.44,3.811v2.52h7.681v3.119h-7.681v3.271
					h7.681v3.059h-7.681v3.811h31.892v-3.811h-7.321v-3h7.321v-3.51h-7.26v-3.061h7.26v-3.27h-8.49v-3.629h12.299v20.219h4.711
					V263.52z M1327.107,240.238l-2.102,2.58c-1.141-1.1-2.689-2.289-4.65-3.57c-1.619,1.361-3.439,2.611-5.459,3.75l-2.461-2.158
					c1.941-0.801,3.642-1.74,5.102-2.82c-2.442-0.92-4.411-1.561-5.911-1.922l1.53-2.76c2.221,0.561,4.451,1.281,6.688,2.16
					c1.421-1.338,2.612-2.709,3.573-4.109l2.52,2.01c-0.801,1.24-1.843,2.451-3.121,3.631
					C1324.297,237.867,1325.727,238.939,1327.107,240.238z M1327.467,251.158l-2.52,1.98c-1.622-1.24-3.301-2.27-5.039-3.09
					c-1.083,0.82-3,1.85-5.762,3.09l-2.279-1.801c2.58-1.219,4.43-2.279,5.551-3.18c-1.121-0.699-2.823-1.479-5.102-2.34l2.25-1.891
					c2.06,0.74,3.82,1.512,5.278,2.311c0.562-0.32,1.69-1.279,3.392-2.879l2.76,1.41c-1.021,1.318-2.16,2.41-3.42,3.27
					C1324.236,248.799,1325.867,249.838,1327.467,251.158z"/>
				<path fill="#333E48" d="M1408.077,282.51h-54.6v-3.869h25.44v-14.072h-18.33v-3.869h18.33v-12.24h-13.591
					c-1.64,4.26-4.38,8.189-8.22,11.789l-3.959-2.07c6.558-6.059,10.208-13.479,10.949-22.26l4.051,1.17
					c-0.16,2.041-0.631,4.561-1.412,7.561h12.123v-13.141h4.049v13.08h21.18v3.871h-21.18v12.18h18.061v3.869h-18.061v14.072h25.169
					V282.51z"/>
				<path fill="#333E48" d="M1470.511,245.338l-2.159,3.121c-6.82-1.68-12.162-3.619-16.021-5.82v2.699h-20.281v-2.969
					c-5.84,3.02-11.08,4.99-15.719,5.91l-1.98-3.15c11.24-2.74,20.6-7.32,28.08-13.74l3.689,1.23c-0.4,0.5-0.75,0.85-1.049,1.049
					C1451.709,239.189,1460.191,243.078,1470.511,245.338z M1464.121,262.529h-43.562v-14.07h43.562V262.529z M1460.552,285.568
					h-3.692v-2.398h-28.981v2.398h-3.688V265.68h36.362V285.568z M1440.539,259.289v-7.5h-16.289v7.5H1440.539z M1456.859,272.85
					v-3.871h-28.981v3.871H1456.859z M1456.859,279.93V276h-28.981v3.93H1456.859z M1436.549,256.318l-3.091,2.16
					c-1.858-1.879-3.679-3.27-5.458-4.17l3.119-1.799C1433.24,253.408,1435.049,254.68,1436.549,256.318z M1451.1,242.01
					c-2.9-1.52-5.709-3.57-8.43-6.152c-2.902,2.4-6.15,4.451-9.75,6.152H1451.1z M1460.43,259.289v-7.5h-16.199v7.5H1460.43z
					 M1456.802,253.559c-1.183,1.881-2.962,3.48-5.344,4.801l-3.298-1.65c2.619-1.48,4.42-2.961,5.399-4.439L1456.802,253.559z"/>
			</g>
		</g>
	</g>
</g>
</svg>
