<?xml version="1.0" encoding="utf-8"?>
<!-- Generator: Adobe Illustrator 16.0.0, SVG Export Plug-In . SVG Version: 6.00 Build 0)  -->
<!DOCTYPE svg PUBLIC "-//W3C//DTD SVG 1.0//EN" "http://www.w3.org/TR/2001/REC-SVG-20010904/DTD/svg10.dtd">
<svg version="1.0" id="Logotypes" xmlns="http://www.w3.org/2000/svg" xmlns:xlink="http://www.w3.org/1999/xlink" x="0px" y="0px"
	 width="2900.17px" height="708.662px" viewBox="0 0 2900.17 708.662" enable-background="new 0 0 2900.17 708.662"
	 xml:space="preserve">
<g>
	<defs>
		<rect id="SVGID_21_" width="2900.17" height="708.662"/>
	</defs>
	<clipPath id="SVGID_2_">
		<use xlink:href="#SVGID_21_"  overflow="visible"/>
	</clipPath>
	<g clip-path="url(#SVGID_2_)">
		<g>
			<g>
				<g>
					<path fill="#EE202E" d="M155.418,341.492c7.555,0,13.676,6.123,13.676,13.676c-0.001-0.279-0.011-0.559-0.011-0.838
						c0-102.31,82.937-185.248,185.248-185.248c7.553,0,13.675-6.121,13.675-13.675c0-7.552-6.122-13.675-13.675-13.675
						c-28.688,0-56.534,5.625-82.763,16.719C246.25,169.16,223.518,184.484,204.003,204c-19.518,19.518-34.844,42.25-45.552,67.568
						c-11.094,26.229-16.719,54.073-16.719,82.762c0,0.279,0.009,0.559,0.01,0.838C141.742,347.615,147.865,341.492,155.418,341.492
						z"/>
					<path fill="#46BC96" d="M340.656,553.254c0-7.553,6.122-13.676,13.675-13.676c-102.031,0-184.785-82.486-185.237-184.41
						c0-7.553-6.121-13.676-13.676-13.676c-7.553,0-13.676,6.123-13.676,13.676c0.109,28.393,5.724,55.951,16.709,81.924
						c10.708,25.318,26.034,48.053,45.552,67.567c19.515,19.519,42.247,34.843,67.565,45.552
						c26.229,11.094,54.075,16.719,82.763,16.719C346.778,566.93,340.656,560.807,340.656,553.254z"/>
					<path fill="#00C2F3" d="M502.528,487.403c-5.339-5.341-13.996-5.341-19.34,0c-33.342,32.29-78.774,52.175-128.857,52.175
						c-7.553,0-13.675,6.123-13.675,13.676s6.122,13.676,13.675,13.676c28.69,0,56.534-5.625,82.763-16.719
						c24.407-10.321,46.4-24.947,65.435-43.467C507.872,501.404,507.872,492.744,502.528,487.403z"/>
				</g>
				<g>
					<path fill="#00C2F3" d="M466.914,241.748c-30.069-30.072-70.054-46.631-112.583-46.631c-42.526,0-82.511,16.559-112.582,46.631
						c-30.07,30.072-46.634,70.055-46.634,112.582c0,42.529,16.563,82.51,46.634,112.583
						c30.071,30.071,70.056,46.634,112.582,46.634c42.529,0,82.514-16.563,112.583-46.634
						c30.072-30.073,46.631-70.054,46.631-112.583C513.545,311.803,496.986,271.82,466.914,241.748z"/>
					<path fill="#333E48" d="M242.124,405.82V302.843h22.333v7.612h-12.944v87.752h12.944v7.613H242.124z"/>
					<path fill="#333E48" d="M466.54,302.843V405.82h-22.329v-7.613h12.938v-87.752h-12.938v-7.612H466.54z"/>
					<path fill="#FFFFFF" d="M293.993,375.25c0,2.057,0.032,4.484,0.095,7.271c0.063,2.789,0.151,5.623,0.26,8.496
						c0.106,2.875,0.233,5.623,0.387,8.239c0.147,2.618,0.331,4.806,0.545,6.563h-13.192v-72.73c0-6.264-0.106-11.937-0.322-17.021
						c-0.214-5.086-0.536-9.495-0.966-13.226h13.194V375.25z"/>
					<path fill="#FFFFFF" d="M351.598,340.171v8.434h-12.101v48.786h12.101v8.431h-36.041v-8.431h11.906v-48.786h-11.906v-8.434
						H351.598z"/>
					<path fill="#FFFFFF" d="M378.631,340.171c0.257,0.688,0.515,1.577,0.771,2.673c0.261,1.094,0.492,2.24,0.709,3.441
						c0.212,1.201,0.405,2.383,0.58,3.541l0.512,2.893c4.121-4.889,8.259-8.418,12.422-10.584s8.5-3.25,13.003-3.25
						c3.433,0,6.469,0.567,9.106,1.704c2.64,1.14,4.861,2.941,6.663,5.406c1.8,2.469,3.162,5.667,4.087,9.591
						c0.923,3.928,1.384,8.655,1.384,14.194v28.959c0,7.253-0.635,13.272-1.901,18.054c-1.263,4.787-3.036,8.604-5.308,11.461
						c-2.273,2.85-5.012,4.867-8.207,6.047c-3.196,1.182-6.747,1.771-10.652,1.771c-1.93,0-4-0.313-6.211-0.934
						c-2.209-0.625-4.215-1.491-6.018-2.607l4.185-9.654c0.986,0.729,2.306,1.34,3.958,1.836c1.651,0.491,3.337,0.738,5.05,0.738
						c2.063,0,3.907-0.332,5.539-0.997c1.63-0.665,3.013-1.833,4.149-3.507c1.138-1.674,2.007-3.97,2.608-6.887
						c0.6-2.919,0.899-6.631,0.899-11.135v-28.32c0-5.148-0.268-9.322-0.804-12.519s-1.344-5.687-2.416-7.466
						c-1.07-1.781-2.412-2.971-4.023-3.574c-1.606-0.598-3.483-0.9-5.63-0.9c-2.315,0-4.576,0.548-6.787,1.645
						c-2.21,1.092-4.241,2.51-6.086,4.246s-3.475,3.698-4.89,5.889c-1.415,2.189-2.468,4.375-3.156,6.564v37.331h-11.905v-39.583
						c0-6.35-0.365-11.725-1.096-16.123c-0.728-4.398-1.438-7.713-2.124-9.944H378.631z"/>
				</g>
			</g>
		</g>
		<text transform="matrix(1.0154 0 0 1 2028.9111 381.8359)" fill="#333E48" font-family="'FiraSans-Bold'" font-size="80">Session 2017–2018</text>
		<g>
			<rect x="1916.95" y="242.895" fill="#333E48" width="3" height="228.445"/>
		</g>
		<g>
			<path fill="#333E48" d="M626.665,336.834V236.363h12.092v89.818h42.751v10.652H626.665z"/>
			<path fill="#333E48" d="M703.386,245.143c-2.496,0-4.296-0.598-5.398-1.799c-1.104-1.199-1.654-2.757-1.654-4.678v-1.871
				c0-1.919,0.551-3.479,1.654-4.678c1.103-1.199,2.902-1.801,5.398-1.801c2.494,0,4.293,0.602,5.397,1.801
				c1.103,1.199,1.655,2.759,1.655,4.678v1.871c0,1.921-0.553,3.479-1.655,4.678C707.679,244.545,705.88,245.143,703.386,245.143z
				 M697.628,262.561h11.516v74.273h-11.516V262.561z"/>
			<path fill="#333E48" d="M733.613,336.834v-74.273h11.516v11.953h0.575c1.822-4.178,4.391-7.506,7.701-9.975
				s7.748-3.705,13.314-3.705c7.676,0,13.747,2.471,18.209,7.412c4.462,4.943,6.693,11.925,6.693,20.943v47.645h-11.516v-45.729
				c0-13.369-5.613-20.053-16.841-20.053c-2.304,0-4.534,0.291-6.694,0.865c-2.158,0.578-4.102,1.444-5.829,2.598
				c-1.728,1.154-3.095,2.621-4.103,4.4c-1.007,1.778-1.511,3.871-1.511,6.274v51.644H733.613z"/>
			<path fill="#333E48" d="M874.388,334.387c0,10.268-2.879,18.328-8.637,24.182s-13.868,8.781-24.326,8.781
				c-6.046,0-11.252-0.939-15.618-2.818c-4.367-1.881-7.988-4.363-10.867-7.447l6.765-7.951c2.495,2.568,5.373,4.545,8.637,5.926
				c3.262,1.381,7.054,2.07,11.371,2.07c6.717,0,11.924-1.855,15.618-5.563c3.693-3.715,5.542-9.184,5.542-16.412v-10.273h-0.576
				c-2.208,4.561-5.087,7.979-8.636,10.26c-3.552,2.281-7.917,3.421-13.099,3.421c-4.606,0-8.781-0.913-12.523-2.735
				s-6.909-4.412-9.5-7.772c-2.591-3.358-4.606-7.435-6.046-12.235c-1.439-4.797-2.159-10.17-2.159-16.121
				c0-5.949,0.72-11.322,2.159-16.121c1.439-4.798,3.455-8.875,6.046-12.236c2.591-3.357,5.758-5.948,9.5-7.771
				c3.742-1.822,7.917-2.734,12.523-2.734c5.182,0,9.619,1.117,13.314,3.348c3.692,2.233,6.5,5.677,8.42,10.332h0.576v-11.953
				h11.516V334.387z M844.016,328.342c2.591,0,5.038-0.338,7.341-1.014c2.304-0.674,4.294-1.664,5.974-2.965
				c1.678-1.301,3.022-2.893,4.03-4.773c1.008-1.88,1.512-4.074,1.512-6.582v-27.633c0-2.023-0.481-3.93-1.439-5.715
				c-0.96-1.783-2.303-3.302-4.03-4.557c-1.728-1.252-3.742-2.24-6.046-2.965c-2.303-0.724-4.75-1.086-7.341-1.086
				c-6.526,0-11.709,2.073-15.546,6.221c-3.839,4.147-5.758,9.5-5.758,16.059v12.73c0,6.557,1.919,11.91,5.758,16.059
				C832.307,326.268,837.489,328.342,844.016,328.342z"/>
			<path fill="#333E48" d="M944.629,324.881h-0.575c-0.77,1.711-1.705,3.398-2.807,5.061c-1.105,1.662-2.473,3.135-4.103,4.416
				c-1.633,1.282-3.599,2.304-5.901,3.064c-2.304,0.76-4.991,1.14-8.062,1.14c-7.679,0-13.771-2.47-18.28-7.413
				c-4.512-4.941-6.766-11.922-6.766-20.943v-47.645h11.516v45.729c0,13.368,5.66,20.053,16.984,20.053
				c2.304,0,4.535-0.288,6.694-0.867c2.159-0.574,4.077-1.439,5.757-2.594c1.679-1.154,3.023-2.621,4.031-4.4
				c1.008-1.777,1.511-3.92,1.511-6.421v-51.499h11.516v74.273h-11.516V324.881z"/>
			<path fill="#333E48" d="M986.371,245.143c-2.496,0-4.296-0.598-5.397-1.799c-1.104-1.199-1.655-2.757-1.655-4.678v-1.871
				c0-1.919,0.551-3.479,1.655-4.678c1.102-1.199,2.901-1.801,5.397-1.801c2.495,0,4.294,0.602,5.397,1.801
				c1.103,1.199,1.656,2.759,1.656,4.678v1.871c0,1.921-0.554,3.479-1.656,4.678C990.665,244.545,988.866,245.143,986.371,245.143z
				 M980.614,262.561h11.515v74.273h-11.515V262.561z"/>
			<path fill="#333E48" d="M1038.91,338.562c-6.909,0-12.692-1.319-17.345-3.958c-4.656-2.639-8.662-6.166-12.02-10.58l8.205-6.621
				c2.879,3.648,6.092,6.455,9.644,8.42c3.55,1.969,7.677,2.951,12.38,2.951c4.894,0,8.708-1.055,11.442-3.166
				c2.735-2.111,4.103-5.086,4.103-8.926c0-2.879-0.936-5.348-2.807-7.412c-1.872-2.063-5.254-3.477-10.148-4.246l-5.901-0.864
				c-3.454-0.479-6.621-1.224-9.5-2.231s-5.397-2.35-7.557-4.029c-2.159-1.678-3.84-3.766-5.038-6.262
				c-1.201-2.494-1.799-5.471-1.799-8.924c0-3.646,0.67-6.838,2.015-9.573c1.343-2.735,3.188-5.013,5.542-6.837
				c2.35-1.822,5.156-3.189,8.42-4.102c3.262-0.912,6.766-1.367,10.508-1.367c6.046,0,11.106,1.057,15.186,3.166
				c4.078,2.111,7.652,5.037,10.725,8.779l-7.629,6.91c-1.633-2.303-4.031-4.391-7.197-6.262c-3.167-1.871-7.15-2.807-11.947-2.807
				c-4.8,0-8.421,1.031-10.867,3.096c-2.447,2.063-3.671,4.87-3.671,8.42c0,3.648,1.224,6.285,3.671,7.916
				c2.446,1.633,5.973,2.832,10.579,3.6l5.758,0.863c8.252,1.248,14.106,3.623,17.562,7.125c3.454,3.504,5.182,8.085,5.182,13.746
				c0,7.197-2.447,12.859-7.342,16.984C1054.168,336.5,1047.45,338.562,1038.91,338.562z"/>
			<path fill="#333E48" d="M1102.103,336.834c-4.031,0-7.078-1.125-9.141-3.373c-2.064-2.25-3.095-5.195-3.095-8.835v-51.847
				h-12.235v-10.219h6.91c2.493,0,4.196-0.504,5.109-1.512c0.91-1.008,1.367-2.758,1.367-5.254v-13.818h10.363v20.584h16.266v10.219
				h-16.266v53.836h15.114v10.219H1102.103z"/>
			<path fill="#333E48" d="M1141.974,245.143c-2.496,0-4.296-0.598-5.397-1.799c-1.104-1.199-1.655-2.757-1.655-4.678v-1.871
				c0-1.919,0.551-3.479,1.655-4.678c1.102-1.199,2.901-1.801,5.397-1.801c2.494,0,4.294,0.602,5.398,1.801
				c1.102,1.199,1.654,2.759,1.654,4.678v1.871c0,1.921-0.553,3.479-1.654,4.678
				C1146.268,244.545,1144.468,245.143,1141.974,245.143z M1136.216,262.561h11.516v74.273h-11.516V262.561z"/>
			<path fill="#333E48" d="M1199.839,338.562c-5.183,0-9.838-0.913-13.963-2.735c-4.127-1.822-7.606-4.412-10.436-7.772
				c-2.832-3.358-4.991-7.435-6.478-12.235c-1.489-4.797-2.231-10.17-2.231-16.121c0-5.949,0.742-11.322,2.231-16.121
				c1.486-4.798,3.646-8.875,6.478-12.236c2.829-3.357,6.309-5.948,10.436-7.771c4.125-1.822,8.78-2.734,13.963-2.734
				c7.388,0,13.314,1.607,17.776,4.82c4.461,3.217,7.796,7.414,10.004,12.596l-9.645,4.895c-1.345-3.838-3.551-6.813-6.62-8.926
				c-3.073-2.109-6.91-3.166-11.516-3.166c-3.455,0-6.478,0.553-9.068,1.655c-2.592,1.104-4.75,2.64-6.479,4.606
				c-1.727,1.968-3.022,4.318-3.886,7.053s-1.297,5.736-1.297,8.996v12.667c0,6.527,1.75,11.876,5.255,16.05
				c3.502,4.174,8.66,6.262,15.475,6.262c9.307,0,16.024-4.318,20.151-12.955l8.349,5.613c-2.399,5.376-5.974,9.645-10.724,12.812
				S1206.938,338.562,1199.839,338.562z"/>
			<path fill="#333E48" d="M1266.914,338.562c-6.909,0-12.692-1.319-17.345-3.958c-4.656-2.639-8.662-6.166-12.02-10.58l8.205-6.621
				c2.879,3.648,6.092,6.455,9.644,8.42c3.55,1.969,7.677,2.951,12.38,2.951c4.894,0,8.707-1.055,11.442-3.166
				s4.103-5.086,4.103-8.926c0-2.879-0.936-5.348-2.807-7.412c-1.871-2.063-5.254-3.477-10.148-4.246l-5.901-0.864
				c-3.454-0.479-6.621-1.224-9.5-2.231s-5.397-2.35-7.557-4.029c-2.159-1.678-3.84-3.766-5.038-6.262
				c-1.201-2.494-1.8-5.471-1.8-8.924c0-3.646,0.671-6.838,2.016-9.573c1.343-2.735,3.188-5.013,5.542-6.837
				c2.35-1.822,5.156-3.189,8.42-4.102c3.262-0.912,6.766-1.367,10.508-1.367c6.046,0,11.106,1.057,15.186,3.166
				c4.078,2.111,7.652,5.037,10.725,8.779l-7.629,6.91c-1.634-2.303-4.032-4.391-7.197-6.262c-3.167-1.871-7.15-2.807-11.947-2.807
				c-4.8,0-8.421,1.031-10.868,3.096c-2.446,2.063-3.67,4.87-3.67,8.42c0,3.648,1.224,6.285,3.67,7.916
				c2.447,1.633,5.974,2.832,10.58,3.6l5.758,0.863c8.252,1.248,14.106,3.623,17.562,7.125c3.454,3.504,5.182,8.085,5.182,13.746
				c0,7.197-2.447,12.859-7.342,16.984C1282.172,336.5,1275.454,338.562,1266.914,338.562z"/>
			<path fill="#333E48" d="M1378.036,338.562c-8.157,0-15.114-1.562-20.872-4.679c-5.757-3.117-10.651-7.412-14.682-12.883
				l8.925-7.484c3.549,4.703,7.483,8.276,11.802,10.724c4.319,2.446,9.404,3.671,15.259,3.671c7.197,0,12.688-1.729,16.481-5.182
				c3.79-3.455,5.686-8.063,5.686-13.819c0-4.797-1.439-8.491-4.318-11.083c-2.878-2.592-7.629-4.654-14.25-6.189l-8.204-1.871
				c-9.213-2.11-16.243-5.302-21.088-9.572c-4.847-4.27-7.27-10.293-7.27-18.065c0-4.413,0.814-8.349,2.447-11.803
				c1.631-3.454,3.909-6.333,6.837-8.636c2.927-2.305,6.429-4.055,10.508-5.254c4.078-1.199,8.565-1.801,13.459-1.801
				c7.579,0,14.081,1.393,19.504,4.176c5.421,2.783,10.004,6.861,13.746,12.234l-9.067,6.621c-2.785-3.838-6.143-6.859-10.076-9.068
				c-3.937-2.207-8.83-3.311-14.683-3.311c-6.43,0-11.493,1.367-15.186,4.102c-3.695,2.736-5.542,6.838-5.542,12.308
				c0,4.8,1.558,8.421,4.678,10.868c3.117,2.446,7.845,4.391,14.179,5.83l8.204,1.871c9.883,2.208,17.033,5.566,21.448,10.075
				c4.412,4.511,6.621,10.508,6.621,17.993c0,4.605-0.793,8.779-2.375,12.523c-1.583,3.742-3.865,6.908-6.837,9.5
				c-2.978,2.59-6.6,4.605-10.867,6.045C1388.231,337.842,1383.408,338.562,1378.036,338.562z"/>
			<path fill="#333E48" d="M1460.37,338.562c-4.991,0-9.55-0.913-13.675-2.735c-4.127-1.822-7.654-4.438-10.579-7.845
				c-2.929-3.405-5.208-7.485-6.838-12.235c-1.633-4.75-2.447-10.098-2.447-16.049c0-5.852,0.814-11.178,2.447-15.979
				c1.63-4.797,3.909-8.898,6.838-12.307c2.925-3.404,6.452-6.021,10.579-7.844c4.125-1.822,8.684-2.734,13.675-2.734
				c4.988,0,9.522,0.912,13.603,2.734c4.077,1.823,7.604,4.439,10.579,7.844c2.974,3.408,5.277,7.51,6.91,12.307
				c1.63,4.801,2.446,10.127,2.446,15.979c0,5.951-0.816,11.299-2.446,16.049c-1.633,4.75-3.937,8.83-6.91,12.235
				c-2.976,3.407-6.502,6.022-10.579,7.845C1469.893,337.648,1465.358,338.562,1460.37,338.562z M1460.37,328.342
				c6.236,0,11.322-1.918,15.258-5.758c3.934-3.838,5.901-9.691,5.901-17.561v-10.652c0-7.867-1.968-13.721-5.901-17.561
				c-3.936-3.837-9.021-5.758-15.258-5.758c-6.239,0-11.324,1.921-15.258,5.758c-3.937,3.84-5.903,9.693-5.903,17.561v10.652
				c0,7.869,1.967,13.723,5.903,17.561C1449.046,326.424,1454.131,328.342,1460.37,328.342z"/>
			<path fill="#333E48" d="M1540.546,338.562c-5.183,0-9.838-0.913-13.963-2.735c-4.127-1.822-7.606-4.412-10.436-7.772
				c-2.832-3.358-4.991-7.435-6.478-12.235c-1.489-4.797-2.231-10.17-2.231-16.121c0-5.949,0.742-11.322,2.231-16.121
				c1.486-4.798,3.646-8.875,6.478-12.236c2.829-3.357,6.309-5.948,10.436-7.771c4.125-1.822,8.78-2.734,13.963-2.734
				c7.388,0,13.313,1.607,17.775,4.82c4.463,3.217,7.796,7.414,10.005,12.596l-9.645,4.895c-1.345-3.838-3.551-6.813-6.621-8.926
				c-3.072-2.109-6.909-3.166-11.515-3.166c-3.456,0-6.479,0.553-9.069,1.655c-2.591,1.104-4.75,2.64-6.478,4.606
				c-1.727,1.968-3.022,4.318-3.886,7.053c-0.864,2.734-1.296,5.736-1.296,8.996v12.667c0,6.527,1.75,11.876,5.254,16.05
				c3.501,4.174,8.659,6.262,15.475,6.262c9.306,0,16.024-4.318,20.151-12.955l8.349,5.613c-2.4,5.376-5.974,9.645-10.725,12.812
				C1553.572,336.979,1547.646,338.562,1540.546,338.562z"/>
			<path fill="#333E48" d="M1591.067,245.143c-2.496,0-4.296-0.598-5.397-1.799c-1.104-1.199-1.655-2.757-1.655-4.678v-1.871
				c0-1.919,0.551-3.479,1.655-4.678c1.102-1.199,2.901-1.801,5.397-1.801c2.494,0,4.294,0.602,5.398,1.801
				c1.102,1.199,1.654,2.759,1.654,4.678v1.871c0,1.921-0.553,3.479-1.654,4.678
				C1595.361,244.545,1593.562,245.143,1591.067,245.143z M1585.31,262.561h11.515v74.273h-11.515V262.561z"/>
			<path fill="#333E48" d="M1649.22,338.562c-5.087,0-9.669-0.913-13.746-2.735c-4.081-1.822-7.583-4.438-10.508-7.845
				c-2.929-3.405-5.182-7.485-6.766-12.235c-1.583-4.75-2.376-10.098-2.376-16.049c0-5.852,0.793-11.178,2.376-15.979
				c1.584-4.797,3.837-8.898,6.766-12.307c2.925-3.404,6.427-6.021,10.508-7.844c4.077-1.822,8.659-2.734,13.746-2.734
				c4.988,0,9.451,0.907,13.387,2.725c3.934,1.817,7.291,4.33,10.076,7.532c2.782,3.203,4.916,7.004,6.405,11.403
				c1.486,4.398,2.231,9.228,2.231,14.486v5.451h-53.402v3.455c0,3.166,0.504,6.117,1.511,8.853c1.008,2.734,2.447,5.11,4.318,7.124
				c1.872,2.016,4.175,3.6,6.909,4.752c2.735,1.15,5.83,1.727,9.284,1.727c4.699,0,8.804-1.103,12.308-3.311
				c3.502-2.207,6.212-5.373,8.133-9.5l8.204,5.939c-2.399,5.119-6.142,9.246-11.228,12.383
				C1662.27,336.992,1656.223,338.562,1649.22,338.562z M1649.22,270.477c-3.166,0-6.046,0.549-8.637,1.646
				s-4.823,2.647-6.693,4.648c-1.871,2.002-3.335,4.363-4.39,7.082c-1.058,2.718-1.583,5.697-1.583,8.941v1h41.023v-1.574
				c0-6.58-1.8-11.848-5.399-15.807C1659.943,272.457,1655.169,270.477,1649.22,270.477z"/>
			<path fill="#333E48" d="M1716.727,336.834c-4.028,0-7.076-1.125-9.139-3.373c-2.065-2.25-3.096-5.195-3.096-8.835v-51.847
				h-12.234v-10.219h6.909c2.494,0,4.197-0.504,5.11-1.512c0.911-1.008,1.367-2.758,1.367-5.254v-13.818h10.364v20.584h16.266
				v10.219h-16.266v53.836h15.113v10.219H1716.727z"/>
			<path fill="#333E48" d="M1796.615,262.561h11.372l-33.251,91.547c-0.864,2.207-1.728,4.053-2.591,5.541
				c-0.863,1.486-1.921,2.664-3.167,3.527c-1.248,0.863-2.807,1.486-4.678,1.871c-1.872,0.382-4.151,0.576-6.837,0.576h-5.902
				v-10.221h11.659l5.614-15.809l-27.781-77.033h11.516l17.849,50.426l3.454,12.069h0.721l4.029-12.069L1796.615,262.561z"/>
			<g>
				<path fill="#333E48" d="M646.794,477.752l-3.61-11.477h-15.99l-3.546,11.477h-8.641l15.088-45.004h10.574l14.958,45.004H646.794
					z M635.317,440.486h-0.322l-5.738,18.504h11.863L635.317,440.486z"/>
				<path fill="#333E48" d="M692.119,477.752l-3.61-11.477h-15.99l-3.546,11.477h-8.641l15.088-45.004h10.574l14.958,45.004H692.119
					z M680.643,440.486h-0.322l-5.738,18.504h11.863L680.643,440.486z"/>
				<path fill="#333E48" d="M736.156,458.732h-18.763v19.02h-8.511v-45.004h8.511v18.439h18.763v-18.439h8.511v45.004h-8.511
					V458.732z"/>
				<path fill="#333E48" d="M771.037,457.379l-5.996,7.092v13.281h-8.511v-45.004h8.511v22.18h0.322l6.383-8.445l11.154-13.734
					h9.801l-15.668,18.762l16.957,26.242h-10.122L771.037,457.379z"/>
				<path fill="#333E48" d="M809.594,432.748v27.66c0,3.525,0.677,6.168,2.031,7.932c1.354,1.762,3.643,2.643,6.866,2.643
					s5.513-0.881,6.867-2.643c1.354-1.764,2.03-4.406,2.03-7.932v-27.66h8.382v26.564c0,3.311-0.312,6.168-0.935,8.574
					c-0.624,2.408-1.623,4.408-2.998,5.998c-1.376,1.59-3.171,2.762-5.384,3.514c-2.215,0.75-4.891,1.127-8.027,1.127
					c-3.182,0-5.857-0.377-8.027-1.127c-2.171-0.752-3.944-1.924-5.319-3.514c-1.376-1.59-2.364-3.59-2.966-5.998
					c-0.603-2.406-0.902-5.264-0.902-8.574v-26.564H809.594z"/>
				<path fill="#333E48" d="M861.303,478.525c-3.868,0-7.146-0.688-9.833-2.066c-2.687-1.377-4.996-3.186-6.931-5.426l5.738-5.553
					c1.548,1.791,3.277,3.156,5.19,4.094c1.912,0.939,4.029,1.408,6.351,1.408c2.621,0,4.599-0.564,5.932-1.695
					c1.332-1.131,1.999-2.654,1.999-4.574c0-1.494-0.43-2.709-1.289-3.648c-0.86-0.938-2.473-1.619-4.836-2.047l-4.256-0.639
					c-8.984-1.422-13.476-5.789-13.476-13.105c0-2.023,0.376-3.852,1.129-5.486c0.751-1.637,1.837-3.035,3.256-4.197
					s3.127-2.055,5.126-2.68c1.999-0.623,4.266-0.936,6.802-0.936c3.396,0,6.361,0.561,8.898,1.68
					c2.535,1.121,4.706,2.777,6.512,4.975l-5.803,5.492c-1.118-1.363-2.473-2.473-4.063-3.324c-1.591-0.852-3.589-1.279-5.996-1.279
					c-2.45,0-4.287,0.459-5.513,1.375c-1.225,0.916-1.838,2.205-1.838,3.867c0,1.703,0.494,2.961,1.483,3.771
					c0.988,0.809,2.579,1.406,4.771,1.789l4.19,0.773c4.556,0.818,7.92,2.271,10.091,4.357c2.17,2.088,3.256,5.002,3.256,8.746
					c0,2.152-0.377,4.098-1.128,5.842c-0.753,1.742-1.849,3.248-3.289,4.518s-3.202,2.248-5.286,2.938
					C866.406,478.182,864.011,478.525,861.303,478.525z"/>
				<path fill="#333E48" d="M896.055,432.748v27.66c0,3.525,0.677,6.168,2.031,7.932c1.354,1.762,3.643,2.643,6.866,2.643
					s5.513-0.881,6.867-2.643c1.354-1.764,2.03-4.406,2.03-7.932v-27.66h8.382v26.564c0,3.311-0.312,6.168-0.935,8.574
					c-0.624,2.408-1.623,4.408-2.998,5.998c-1.376,1.59-3.171,2.762-5.384,3.514c-2.215,0.75-4.891,1.127-8.027,1.127
					c-3.182,0-5.857-0.377-8.027-1.127c-2.171-0.752-3.944-1.924-5.319-3.514c-1.376-1.59-2.364-3.59-2.966-5.998
					c-0.603-2.406-0.902-5.264-0.902-8.574v-26.564H896.055z"/>
			</g>
		</g>
	</g>
</g>
</svg>
