<?xml version="1.0" encoding="utf-8"?>
<!-- Generator: Adobe Illustrator 16.0.0, SVG Export Plug-In . SVG Version: 6.00 Build 0)  -->
<!DOCTYPE svg PUBLIC "-//W3C//DTD SVG 1.0//EN" "http://www.w3.org/TR/2001/REC-SVG-20010904/DTD/svg10.dtd">
<svg version="1.0" id="Logotypes" xmlns="http://www.w3.org/2000/svg" xmlns:xlink="http://www.w3.org/1999/xlink" x="0px" y="0px"
	 width="2893.978px" height="708.662px" viewBox="0 0 2893.978 708.662" enable-background="new 0 0 2893.978 708.662"
	 xml:space="preserve">
<g>
	<defs>
		<rect id="SVGID_15_" x="0.001" y="0.005" width="2893.976" height="708.663"/>
	</defs>
	<clipPath id="SVGID_2_">
		<use xlink:href="#SVGID_15_"  overflow="visible"/>
	</clipPath>
	<g clip-path="url(#SVGID_2_)">
		<g>
			<g>
				<path fill="#A49B4B" d="M201.224,379.624h-54.992v-9.13h54.992V379.624z M194.068,476.829h-9.422v-10.006h-21.982v10.006h-9.568
					V427.46h40.973V476.829z M193.628,398.467l-40.387,0.146v-9.128h40.387V398.467z M193.775,417.601h-40.533v-9.129h40.533
					V417.601z M191.949,361.073l-37.1,0.146v-9.129h37.1V361.073z M184.646,457.841v-21.398h-22.129v21.398H184.646z
					 M279.003,417.747l-78.947,0.145v-8.982h19.572l4.236-22.566h-18.258v-8.982h19.719l3.139-16.725h-27.971v-9.129h72.521v8.982
					h-34.691l-2.994,16.726h30.09l-3.141,31.548h16.725V417.747z M266.294,477.122h-9.42v-9.859h-36.955v9.859h-9.566v-49.516
					h55.941V477.122z M256.875,458.278v-21.689h-37.1v21.689H256.875z M255.414,386.196h-21.691l-4.234,22.713h23.662
					L255.414,386.196z"/>
				<path fill="#A49B4B" d="M443.675,379.624H310.904v-9.13h132.771V379.624z M424.103,398.319H329.16v-8.835h94.943V398.319z
					 M424.103,417.308H329.16v-8.836h94.943V417.308z M420.669,477.122h-9.42v-10.299h-68.504v10.299h-9.422V427.46h87.346V477.122z
					 M420.525,360.124l-86.471,0.219v-8.836h86.471V360.124z M411.25,457.841v-21.398h-68.504v21.398H411.25z"/>
				<path fill="#A49B4B" d="M608.349,450.685h-58.791v10.15c0,10.857-5.77,16.287-17.311,16.287h-9.713l-3.578-8.982h13.584
					c4.771,0,7.158-2.193,7.158-6.573v-10.882h-64.123v-9.129h64.123v-6.281c10.174-3.799,17.453-7.352,21.836-10.662h-55.943v-8.4
					h72.158v7.961c-7.598,5.162-16.994,10.444-28.191,15.848v1.535h58.791V450.685z M602.214,423.589h-8.766v-15.117H491.425v15.994
					h-9.57v-24.539h12.563v-44.551c6.912-0.68,14.486-3.967,22.715-9.857l4.82,6.719c-4.434,4.09-10.471,7.182-18.113,9.275v6.135
					h18.695v7.596h-18.695v7.959h18.695v7.449h-18.695v9.275h77.633v-9.275h-17.82v-7.303h17.82v-8.545h-17.674v-7.449h17.674
					v-7.961h-20.668v-8.836h29.943v49.223h11.467V423.589z M560.804,366.917l-5.111,6.279c-2.777-2.676-6.551-5.574-11.32-8.689
					c-3.943,3.312-8.375,6.354-13.293,9.129l-5.988-5.26c4.723-1.945,8.859-4.234,12.416-6.863
					c-5.941-2.24-10.736-3.798-14.389-4.674l3.727-6.721c5.402,1.364,10.832,3.117,16.285,5.258
					c3.457-3.259,6.354-6.596,8.691-10.004l6.135,4.894c-1.949,3.019-4.48,5.964-7.596,8.837
					C553.962,361.146,557.445,363.752,560.804,366.917z M561.679,393.5l-6.133,4.819c-3.943-3.018-8.035-5.525-12.27-7.521
					c-2.629,1.995-7.303,4.503-14.021,7.521l-5.551-4.381c6.279-2.969,10.783-5.551,13.512-7.742
					c-2.729-1.703-6.865-3.602-12.416-5.696l5.477-4.6c5.014,1.802,9.299,3.675,12.854,5.622c1.361-0.778,4.113-3.115,8.252-7.012
					l6.719,3.434c-2.482,3.213-5.256,5.867-8.324,7.961C553.818,387.755,557.785,390.286,561.679,393.5z"/>
				<path fill="#A49B4B" d="M772.875,450.685h-58.791v10.15c0,10.857-5.77,16.287-17.309,16.287h-9.713l-3.578-8.982h13.584
					c4.77,0,7.156-2.193,7.156-6.573v-10.882h-64.121v-9.129h64.121v-6.281c10.176-3.799,17.453-7.352,21.838-10.662h-55.943v-8.4
					h72.156v7.961c-7.596,5.162-16.994,10.444-28.191,15.848v1.535h58.791V450.685z M766.742,423.589h-8.768v-15.117H655.951v15.994
					h-9.566v-24.539h12.561v-44.551c6.914-0.68,14.484-3.967,22.713-9.857l4.82,6.719c-4.43,4.09-10.469,7.182-18.113,9.275v6.135
					h18.697v7.596h-18.697v7.959h18.697v7.449h-18.697v9.275h77.633v-9.275h-17.818v-7.303h17.818v-8.545h-17.674v-7.449h17.674
					v-7.961H725.33v-8.836h29.943v49.223h11.469V423.589z M727.931,391.86l-6.654,6.084c-3.037-4.563-7.383-10.275-11.586-13.824
					c-6.533,7.28-11.906,11.913-16.105,13.895l-6.584-5.529c4.949-2.355,10.316-6.752,16.107-13.203
					c-6.584-4.101-11.275-6.637-14.076-7.605l5.744-5.941c2.334,0.922,6.719,3.316,13.166,7.189
					c1.916-3.135,3.406-6.568,4.48-10.301h-21.99v-8.639h11.789v-8.896h7.566v8.896h13.992v8.639h-2.77
					c-1.555,5.717-3.646,10.67-6.275,14.863C719.826,381.356,724.71,387.253,727.931,391.86z"/>
				<path fill="#A49B4B" d="M939.81,379.333l-5.258,7.594c-16.604-4.09-29.602-8.812-38.998-14.168v6.574h-49.371v-7.231
					c-14.217,7.352-26.973,12.149-38.27,14.388l-4.818-7.668c27.361-6.67,50.146-17.819,68.357-33.449l8.982,2.994
					c-0.975,1.218-1.826,2.07-2.557,2.555C894.042,364.36,914.687,373.831,939.81,379.333z M924.253,421.179H818.212v-34.252
					h106.041V421.179z M915.564,477.268h-8.982v-5.843h-70.549v5.843h-8.982v-48.421h88.514V477.268z M866.851,413.292v-18.258
					h-39.656v18.258H866.851z M906.582,446.302v-9.42h-70.549v9.42H906.582z M906.582,463.538v-9.568h-70.549v9.568H906.582z
					 M857.138,406.062l-7.521,5.258c-4.527-4.575-8.959-7.959-13.293-10.15l7.596-4.383
					C849.08,398.978,853.486,402.069,857.138,406.062z M892.56,371.226c-7.061-3.699-13.902-8.69-20.523-14.973
					c-7.061,5.844-14.971,10.834-23.734,14.973H892.56z M915.273,413.292v-18.258h-39.438v18.258H915.273z M906.435,399.343
					c-2.873,4.576-7.207,8.473-13,11.686l-8.033-4.018c6.379-3.602,10.76-7.205,13.145-10.809L906.435,399.343z"/>
			</g>
			<g>
				<path fill="#A49B4B" d="M201.912,260.237l-2.789,3.212c-8.359-2.94-16.32-8.121-23.881-15.542l0.061,11.73h14.01v25.801h-3.811
					v-3.449h-24.27v3.449H157.3v-25.801h14.07v-11.73c-4.119,6.301-11.561,11.23-22.32,14.792l-2.818-3.181
					c9.539-2.521,16.359-6.391,20.459-11.611h-17.07v-3.75h21.75v-5.789c-4.779,0.48-10.779,0.83-18,1.05l-2.58-3.631
					c17.061-0.06,30.682-1.488,40.861-4.289l2.881,2.88c-5.66,1.521-12.07,2.69-19.23,3.51v6.27h22.051v3.75l-17.191-0.059
					C186.523,253.368,193.773,257.499,201.912,260.237z M185.501,268.669v-5.281h-24.33v5.281H185.501z M185.501,278.299v-5.94
					h-24.33v5.94H185.501z"/>
				<path fill="#A49B4B" d="M217.513,262.998c-2.521,7.821-5.82,14.231-9.9,19.231l3.51,2.221
					c4.539-5.723,7.881-12.131,10.021-19.23L217.513,262.998z M211.183,246.349l-2.521,3.15c3.98,1.7,7.131,4.139,9.453,7.319
					l2.637-3.569C218.673,250.468,215.484,248.169,211.183,246.349z M214.123,232.909l-2.82,2.879c3.84,1.38,6.871,3.701,9.092,6.96
					l2.818-3.03C221.072,236.618,218.042,234.35,214.123,232.909z"/>
				<path fill="#A49B4B" d="M253.333,272.12v-11.313c2.379,2.241,4.939,4.08,7.682,5.521l2.461-3.331
					c-5.242-2.239-9.324-5.78-12.242-10.62h10.258v-3.689h-9.807v-7.17h7.408v-3.691h-7.408V231.5h-3.813v6.388h-11.129V231.5
					h-3.813v6.388h-7.377v3.689h7.439v7.17h-9.781v3.691h9.9c-2.219,4.16-6.23,7.621-12.029,10.379l2.818,3.331
					c1.715-0.995,3.295-2.075,4.74-3.239v16.08c0,3.439,1.721,5.16,5.16,5.16h19.65c1.602,0,2.867-0.531,3.795-1.59
					c0.932-1.06,1.656-3.15,2.176-6.27l-3.869-1.74c-0.262,2.5-0.639,4.099-1.141,4.799c-0.5,0.701-1.17,1.051-2.01,1.051h-18.301
					c-1.102,0-1.648-0.55-1.648-1.651v-6.628H253.333z M236.744,241.519h11.189v7.17h-11.189V241.519z M237.103,252.378h10.199
					c0.982,2.321,2.461,4.591,4.441,6.813h-19.051C234.853,256.81,236.324,254.537,237.103,252.378z M232.455,262.878h17.07v5.611
					h-17.07V262.878z"/>
				<path fill="#A49B4B" d="M324.675,282.438l-2.789,3.119c-12.502-6.818-20.441-18.309-23.822-34.469
					c-4.18,16.42-12.699,27.91-25.559,34.469l-3.031-3.568c12.74-6.201,20.811-16.48,24.211-30.841h-20.4v-3.87h20.85
					c0.381-3.76,0.539-9.021,0.48-15.78l4.17,0.601c0.1,6.119-0.02,11.16-0.359,15.12h22.74v3.87h-18.93
					C304.634,264.788,312.115,275.239,324.675,282.438z"/>
				<path fill="#A49B4B" d="M385.847,274.638h-24.15v4.172c0,4.459-2.371,6.69-7.111,6.69h-3.99l-1.469-3.69h5.58
					c1.959,0,2.939-0.9,2.939-2.701v-4.471h-26.34v-3.75h26.34v-2.58c4.18-1.559,7.17-3.02,8.971-4.379h-22.98v-3.451h29.641v3.271
					c-3.121,2.12-6.98,4.29-11.58,6.511v0.629h24.15V274.638z M383.328,263.509h-3.6v-6.21h-41.912v6.569h-3.93v-10.08h5.16v-18.301
					c2.84-0.279,5.949-1.629,9.33-4.049l1.979,2.76c-1.818,1.68-4.299,2.95-7.439,3.811v2.52h7.68v3.12h-7.68v3.271h7.68v3.059
					h-7.68v3.811h31.891v-3.811h-7.32v-3h7.32v-3.509h-7.26v-3.062h7.26v-3.27h-8.49v-3.629h12.301v20.219h4.711V263.509z
					 M366.316,240.228l-2.1,2.58c-1.141-1.1-2.689-2.289-4.65-3.57c-1.619,1.361-3.439,2.611-5.459,3.75l-2.461-2.159
					c1.939-0.8,3.641-1.739,5.1-2.819c-2.439-0.92-4.41-1.561-5.91-1.922l1.531-2.76c2.219,0.561,4.449,1.281,6.689,2.16
					c1.42-1.338,2.609-2.709,3.57-4.109l2.52,2.01c-0.801,1.24-1.84,2.451-3.119,3.631
					C363.505,237.856,364.935,238.929,366.316,240.228z M366.677,251.148l-2.521,1.979c-1.619-1.24-3.299-2.27-5.039-3.091
					c-1.08,0.821-3,1.851-5.76,3.091l-2.281-1.801c2.58-1.219,4.43-2.278,5.551-3.179c-1.121-0.7-2.82-1.479-5.1-2.341l2.248-1.89
					c2.061,0.739,3.822,1.511,5.281,2.31c0.561-0.32,1.689-1.278,3.391-2.879l2.76,1.41c-1.02,1.318-2.16,2.41-3.42,3.27
					C363.447,248.787,365.076,249.827,366.677,251.148z"/>
				<path fill="#A49B4B" d="M447.289,274.638h-24.15v4.172c0,4.459-2.371,6.69-7.111,6.69h-3.988l-1.471-3.69h5.58
					c1.959,0,2.939-0.9,2.939-2.701v-4.471h-26.34v-3.75h26.34v-2.58c4.18-1.559,7.17-3.02,8.971-4.379h-22.98v-3.451h29.641v3.271
					c-3.121,2.12-6.98,4.29-11.58,6.511v0.629h24.15V274.638z M444.769,263.509h-3.602v-6.21h-41.91v6.569h-3.93v-10.08h5.16
					v-18.301c2.84-0.279,5.949-1.629,9.33-4.049l1.98,2.76c-1.82,1.68-4.301,2.95-7.441,3.811v2.52h7.682v3.12h-7.682v3.271h7.682
					v3.059h-7.682v3.811h31.891v-3.811h-7.32v-3h7.32v-3.509h-7.26v-3.062h7.26v-3.27h-8.49v-3.629h12.301v20.219h4.711V263.509z
					 M427.757,240.228l-2.1,2.58c-1.141-1.1-2.691-2.289-4.65-3.57c-1.619,1.361-3.439,2.611-5.459,3.75l-2.461-2.159
					c1.939-0.8,3.641-1.739,5.1-2.819c-2.439-0.92-4.41-1.561-5.91-1.922l1.531-2.76c2.219,0.561,4.449,1.281,6.689,2.16
					c1.42-1.338,2.609-2.709,3.57-4.109l2.52,2.01c-0.801,1.24-1.84,2.451-3.119,3.631
					C424.949,237.856,426.378,238.929,427.757,240.228z M428.119,251.148l-2.521,1.979c-1.619-1.24-3.299-2.27-5.039-3.091
					c-1.08,0.821-3,1.851-5.762,3.091l-2.279-1.801c2.58-1.219,4.43-2.278,5.551-3.179c-1.121-0.7-2.82-1.479-5.1-2.341l2.25-1.89
					c2.059,0.739,3.818,1.511,5.279,2.31c0.561-0.32,1.689-1.278,3.391-2.879l2.76,1.41c-1.02,1.318-2.16,2.41-3.42,3.27
					C424.888,248.787,426.517,249.827,428.119,251.148z"/>
				<path fill="#A49B4B" d="M508.73,282.499h-54.602v-3.869h25.441v-14.072h-18.332v-3.869h18.332v-12.24h-13.592
					c-1.639,4.26-4.379,8.189-8.219,11.789l-3.961-2.069c6.561-6.06,10.209-13.479,10.951-22.261l4.049,1.17
					c-0.16,2.041-0.629,4.561-1.408,7.561h12.117v-13.14h4.053v13.079h21.18v3.871h-21.18v12.18h18.061v3.87H483.56v14.071h25.17
					V282.499z"/>
				<path fill="#A49B4B" d="M571.162,245.327l-2.16,3.121c-6.82-1.68-12.16-3.62-16.02-5.82v2.699h-20.281v-2.969
					c-5.84,3.02-11.08,4.99-15.721,5.91l-1.979-3.15c11.238-2.74,20.6-7.32,28.08-13.74l3.689,1.23c-0.4,0.5-0.75,0.85-1.049,1.049
					C552.361,239.179,560.841,243.068,571.162,245.327z M564.773,262.519H521.21v-14.07h43.563V262.519z M561.203,285.558h-3.691
					v-2.398h-28.98v2.398h-3.689v-19.889h36.361V285.558z M541.191,259.278v-7.5H524.9v7.5H541.191z M557.511,272.839v-3.87h-28.98
					v3.87H557.511z M557.511,279.919v-3.93h-28.98v3.93H557.511z M537.201,256.308l-3.09,2.161c-1.859-1.88-3.68-3.27-5.461-4.17
					l3.121-1.8C533.89,253.398,535.701,254.669,537.201,256.308z M551.751,241.999c-2.9-1.52-5.711-3.57-8.432-6.152
					c-2.898,2.401-6.148,4.452-9.748,6.152H551.751z M561.082,259.278v-7.5h-16.199v7.5H561.082z M557.451,253.549
					c-1.18,1.88-2.959,3.479-5.34,4.8l-3.299-1.649c2.619-1.48,4.42-2.962,5.398-4.44L557.451,253.549z"/>
				<path fill="#A49B4B" d="M632.244,281.628l-2.641,3.512c-10.18-3-18.441-7.04-24.779-12.121
					c-5.463,4.461-14.041,8.581-25.742,12.361l-2.939-3.57c11.32-3.141,19.881-6.951,25.682-11.432
					c-5.82-5.5-9.732-12.189-11.73-20.07c-1.08,2.781-2.563,5.42-4.441,7.92l-3.178-2.908c2.52-3.001,4.547-6.291,6.088-9.871
					h-10.32v-3.689h24.063v-10.261h3.869v10.2h24.48v3.689h-10.262c-1.799,10.44-5.938,18.75-12.42,24.931
					C613.873,274.799,621.962,278.569,632.244,281.628z M616.373,245.388h-23.219c1.598,9.261,5.508,16.711,11.729,22.352
					C610.962,262.078,614.792,254.628,616.373,245.388z"/>
				<path fill="#A49B4B" d="M693.056,274.638h-24.152v4.172c0,4.459-2.369,6.69-7.109,6.69h-3.99l-1.469-3.69h5.578
					c1.961,0,2.941-0.9,2.941-2.701v-4.471h-26.34v-3.75h26.34v-2.58c4.18-1.559,7.17-3.02,8.969-4.379h-22.98v-3.451h29.641v3.271
					c-3.119,2.12-6.98,4.29-11.58,6.511v0.629h24.152V274.638z M690.537,263.509h-3.602v-6.21h-41.912v6.569h-3.93v-10.08h5.16
					v-18.301c2.84-0.279,5.951-1.629,9.332-4.049l1.979,2.76c-1.818,1.68-4.301,2.95-7.441,3.811v2.52h7.682v3.12h-7.682v3.271
					h7.682v3.059h-7.682v3.811h31.893v-3.811h-7.322v-3h7.322v-3.509h-7.26v-3.062h7.26v-3.27h-8.49v-3.629h12.299v20.219h4.713
					V263.509z M673.525,240.228l-2.102,2.58c-1.139-1.1-2.689-2.289-4.648-3.57c-1.621,1.361-3.441,2.611-5.461,3.75l-2.459-2.159
					c1.939-0.8,3.639-1.739,5.1-2.819c-2.441-0.92-4.412-1.561-5.91-1.922l1.531-2.76c2.219,0.561,4.449,1.281,6.689,2.16
					c1.42-1.338,2.609-2.709,3.568-4.109l2.521,2.01c-0.801,1.24-1.842,2.451-3.119,3.631
					C670.714,237.856,672.144,238.929,673.525,240.228z M673.884,251.148l-2.52,1.979c-1.619-1.24-3.301-2.27-5.041-3.091
					c-1.08,0.821-3,1.851-5.76,3.091l-2.281-1.801c2.582-1.219,4.432-2.278,5.551-3.179c-1.119-0.7-2.82-1.479-5.1-2.341l2.25-1.89
					c2.061,0.739,3.82,1.511,5.281,2.31c0.561-0.32,1.689-1.278,3.389-2.879l2.76,1.41c-1.02,1.318-2.158,2.41-3.418,3.27
					C670.654,248.787,672.283,249.827,673.884,251.148z"/>
				<path fill="#A49B4B" d="M713.574,251.898c4.041,4.54,6.063,8.97,6.063,13.29c0,2.1-0.545,3.77-1.637,5.01
					c-1.088,1.24-2.613,1.861-4.574,1.861c-1.08,0-2.381-0.131-3.9-0.391l-1.109-3.99c2.141,0.541,3.68,0.811,4.619,0.811
					c0.779,0,1.49-0.301,2.131-0.9s0.961-1.4,0.961-2.4c0-1.5-0.551-3.42-1.65-5.76c-1.102-2.34-2.752-4.57-4.951-6.689
					l5.852-15.031h-8.91V285.5h-3.932v-51.602h16.83v3.81L713.574,251.898z M754.947,274.489c-0.521,3.24-1.221,5.59-2.102,7.049
					c-0.879,1.461-2.311,2.191-4.289,2.191h-4.68c-3.121,0-4.68-1.641-4.68-4.92v-15.871h-6.332
					c-0.119,6.439-1.375,11.265-3.764,14.475c-2.391,3.211-6.824,5.906-13.307,8.087l-2.52-3.451c6.02-1.78,10.15-4.08,12.391-6.9
					s3.369-6.87,3.391-12.149h-8.221v-3.931h32.133v3.87h-10.023v14.941c0,0.498,0.16,0.965,0.48,1.395s0.701,0.645,1.141,0.645
					h3.811c0.779,0,1.375-0.641,1.785-1.92c0.408-1.279,0.754-2.939,1.035-4.98L754.947,274.489z M751.496,247.278l-3.809,0.061
					v-5.281h-22.621v5.281h-3.871v-9.091h13.17v-6.81h3.932v6.75h13.199V247.278z M746.457,253.068h-20.281v-3.931h20.281V253.068z"
					/>
				<path fill="#A49B4B" d="M815.939,274.638h-24.152v4.172c0,4.459-2.371,6.69-7.109,6.69h-3.99l-1.471-3.69h5.58
					c1.961,0,2.941-0.9,2.941-2.701v-4.471h-26.342v-3.75h26.342v-2.58c4.18-1.559,7.17-3.02,8.969-4.379h-22.98v-3.451h29.641
					v3.271c-3.119,2.12-6.98,4.29-11.58,6.511v0.629h24.152V274.638z M813.417,263.509h-3.6v-6.21h-41.91v6.569h-3.932v-10.08h5.162
					v-18.301c2.838-0.279,5.949-1.629,9.328-4.049l1.98,2.76c-1.82,1.68-4.299,2.95-7.439,3.811v2.52h7.68v3.12h-7.68v3.271h7.68
					v3.059h-7.68v3.811h31.891v-3.811h-7.32v-3h7.32v-3.509h-7.26v-3.062h7.26v-3.27h-8.49v-3.629h12.299v20.219h4.711V263.509z
					 M796.408,240.228l-2.102,2.58c-1.141-1.1-2.689-2.289-4.65-3.57c-1.619,1.361-3.439,2.611-5.459,3.75l-2.461-2.159
					c1.941-0.8,3.643-1.739,5.102-2.819c-2.441-0.92-4.41-1.561-5.91-1.922l1.529-2.76c2.221,0.561,4.451,1.281,6.689,2.16
					c1.42-1.338,2.611-2.709,3.572-4.109l2.52,2.01c-0.801,1.24-1.842,2.451-3.121,3.631
					C793.597,237.856,795.027,238.929,796.408,240.228z M796.767,251.148l-2.52,1.979c-1.621-1.24-3.301-2.27-5.039-3.091
					c-1.082,0.821-3,1.851-5.762,3.091l-2.279-1.801c2.58-1.219,4.43-2.278,5.551-3.179c-1.121-0.7-2.822-1.479-5.102-2.341
					l2.25-1.89c2.061,0.739,3.82,1.511,5.279,2.31c0.561-0.32,1.689-1.278,3.391-2.879l2.76,1.41c-1.02,1.318-2.16,2.41-3.42,3.27
					C793.537,248.787,795.167,249.827,796.767,251.148z"/>
				<path fill="#A49B4B" d="M877.378,282.499h-54.6v-3.869h25.439v-14.072h-18.33v-3.869h18.33v-12.24h-13.59
					c-1.641,4.26-4.381,8.189-8.221,11.789l-3.959-2.069c6.559-6.06,10.209-13.479,10.949-22.261l4.051,1.17
					c-0.16,2.041-0.631,4.561-1.412,7.561h12.123v-13.14h4.049v13.079h21.18v3.871h-21.18v12.18h18.061v3.87h-18.061v14.071h25.17
					V282.499z"/>
				<path fill="#A49B4B" d="M939.81,245.327l-2.158,3.121c-6.82-1.68-12.162-3.62-16.021-5.82v2.699h-20.281v-2.969
					c-5.84,3.02-11.08,4.99-15.719,5.91l-1.98-3.15c11.24-2.74,20.6-7.32,28.08-13.74l3.689,1.23c-0.4,0.5-0.75,0.85-1.049,1.049
					C921.009,239.179,929.492,243.068,939.81,245.327z M933.421,262.519h-43.561v-14.07h43.561V262.519z M929.851,285.558h-3.691
					v-2.398h-28.98v2.398h-3.689v-19.889h36.361V285.558z M909.839,259.278v-7.5H893.55v7.5H909.839z M926.16,272.839v-3.87h-28.98
					v3.87H926.16z M926.16,279.919v-3.93h-28.98v3.93H926.16z M905.849,256.308l-3.09,2.161c-1.859-1.88-3.68-3.27-5.459-4.17
					l3.119-1.8C902.541,253.398,904.349,254.669,905.849,256.308z M920.4,241.999c-2.9-1.52-5.709-3.57-8.43-6.152
					c-2.902,2.401-6.15,4.452-9.75,6.152H920.4z M929.73,259.278v-7.5h-16.199v7.5H929.73z M926.101,253.549
					c-1.182,1.88-2.961,3.479-5.342,4.8l-3.299-1.649c2.619-1.48,4.42-2.962,5.4-4.44L926.101,253.549z"/>
			</g>
		</g>
		<g>
			<path fill="#A49B4B" d="M1566.425,336.839V236.368h12.09v89.819h42.752v10.651H1566.425z"/>
			<path fill="#A49B4B" d="M1643.144,245.148c-2.496,0-4.295-0.598-5.396-1.799c-1.105-1.199-1.656-2.757-1.656-4.679V236.8
				c0-1.918,0.551-3.478,1.656-4.678c1.102-1.199,2.9-1.8,5.396-1.8c2.494,0,4.295,0.601,5.398,1.8
				c1.102,1.2,1.654,2.76,1.654,4.678v1.871c0,1.922-0.553,3.479-1.654,4.679C1647.438,244.551,1645.638,245.148,1643.144,245.148z
				 M1637.386,262.566h11.516v74.272h-11.516V262.566z"/>
			<path fill="#A49B4B" d="M1673.372,336.839v-74.272h11.516v11.953h0.576c1.82-4.179,4.389-7.506,7.699-9.975
				c3.313-2.47,7.748-3.706,13.314-3.706c7.678,0,13.748,2.471,18.209,7.412c4.463,4.943,6.693,11.926,6.693,20.943v47.645h-11.514
				V291.11c0-13.368-5.615-20.053-16.842-20.053c-2.303,0-4.535,0.291-6.693,0.866c-2.16,0.578-4.104,1.444-5.83,2.598
				s-3.096,2.62-4.102,4.399c-1.008,1.779-1.512,3.871-1.512,6.275v51.643H1673.372z"/>
			<path fill="#A49B4B" d="M1814.146,334.393c0,10.267-2.879,18.328-8.637,24.182c-5.758,5.853-13.867,8.781-24.326,8.781
				c-6.045,0-11.252-0.94-15.617-2.818c-4.367-1.882-7.988-4.363-10.867-7.447l6.766-7.952c2.494,2.568,5.373,4.545,8.637,5.926
				c3.26,1.381,7.053,2.071,11.371,2.071c6.715,0,11.922-1.855,15.617-5.563c3.693-3.714,5.541-9.184,5.541-16.412v-10.273h-0.574
				c-2.209,4.561-5.088,7.979-8.637,10.26c-3.553,2.281-7.918,3.422-13.1,3.422c-4.605,0-8.779-0.914-12.523-2.735
				c-3.742-1.822-6.908-4.413-9.5-7.772c-2.59-3.358-4.605-7.436-6.045-12.235c-1.439-4.798-2.158-10.171-2.158-16.122
				c0-5.948,0.719-11.322,2.158-16.121c1.439-4.797,3.455-8.875,6.045-12.235c2.592-3.358,5.758-5.948,9.5-7.772
				c3.744-1.822,7.918-2.734,12.523-2.734c5.182,0,9.619,1.117,13.314,3.348c3.693,2.234,6.5,5.678,8.422,10.333h0.574v-11.953
				h11.516V334.393z M1783.774,328.347c2.592,0,5.037-0.338,7.342-1.012c2.303-0.676,4.293-1.665,5.973-2.967
				c1.678-1.3,3.023-2.893,4.031-4.772c1.006-1.88,1.51-4.075,1.51-6.583V285.38c0-2.023-0.48-3.929-1.439-5.715
				c-0.959-1.783-2.303-3.301-4.029-4.557c-1.729-1.252-3.742-2.24-6.045-2.964c-2.305-0.724-4.75-1.087-7.342-1.087
				c-6.527,0-11.709,2.074-15.545,6.222c-3.84,4.147-5.758,9.499-5.758,16.058v12.73c0,6.559,1.918,11.911,5.758,16.059
				C1772.065,326.272,1777.247,328.347,1783.774,328.347z"/>
			<path fill="#A49B4B" d="M1884.388,324.886h-0.576c-0.77,1.711-1.705,3.398-2.807,5.061c-1.104,1.662-2.471,3.135-4.102,4.416
				c-1.633,1.283-3.6,2.305-5.902,3.064s-4.99,1.141-8.061,1.141c-7.678,0-13.771-2.471-18.281-7.414
				c-4.512-4.941-6.766-11.922-6.766-20.943v-47.644h11.516v45.728c0,13.369,5.662,20.053,16.986,20.053
				c2.303,0,4.533-0.287,6.693-0.866c2.158-0.575,4.076-1.44,5.758-2.595c1.678-1.154,3.021-2.62,4.029-4.399
				c1.008-1.778,1.512-3.92,1.512-6.421v-51.499h11.516v74.272h-11.516V324.886z"/>
			<path fill="#A49B4B" d="M1926.13,245.148c-2.496,0-4.295-0.598-5.398-1.799c-1.104-1.199-1.654-2.757-1.654-4.679V236.8
				c0-1.918,0.551-3.478,1.654-4.678c1.104-1.199,2.902-1.8,5.398-1.8c2.494,0,4.293,0.601,5.398,1.8
				c1.102,1.2,1.654,2.76,1.654,4.678v1.871c0,1.922-0.553,3.479-1.654,4.679C1930.423,244.551,1928.624,245.148,1926.13,245.148z
				 M1920.372,262.566h11.516v74.272h-11.516V262.566z"/>
			<path fill="#A49B4B" d="M1978.669,338.567c-6.91,0-12.691-1.32-17.346-3.959s-8.66-6.165-12.02-10.58l8.205-6.621
				c2.879,3.648,6.094,6.455,9.645,8.42c3.549,1.969,7.676,2.951,12.379,2.951c4.895,0,8.709-1.055,11.443-3.166
				c2.734-2.109,4.102-5.086,4.102-8.925c0-2.879-0.936-5.349-2.807-7.413c-1.871-2.063-5.254-3.477-10.146-4.246l-5.902-0.863
				c-3.455-0.479-6.621-1.224-9.5-2.231s-5.398-2.351-7.557-4.03c-2.16-1.678-3.84-3.766-5.039-6.262
				c-1.201-2.494-1.799-5.47-1.799-8.924c0-3.646,0.67-6.838,2.016-9.572c1.342-2.735,3.189-5.013,5.541-6.838
				c2.352-1.821,5.158-3.189,8.42-4.102c3.262-0.911,6.766-1.367,10.51-1.367c6.045,0,11.105,1.057,15.186,3.166
				c4.076,2.112,7.65,5.038,10.723,8.78l-7.629,6.909c-1.633-2.303-4.029-4.391-7.197-6.261c-3.166-1.872-7.148-2.808-11.947-2.808
				s-8.42,1.032-10.867,3.096s-3.67,4.871-3.67,8.42c0,3.648,1.223,6.286,3.67,7.916c2.447,1.634,5.975,2.832,10.58,3.6l5.758,0.863
				c8.252,1.248,14.105,3.623,17.561,7.125c3.455,3.505,5.182,8.086,5.182,13.746c0,7.197-2.447,12.861-7.34,16.986
				C1993.927,336.505,1987.208,338.567,1978.669,338.567z"/>
			<path fill="#A49B4B" d="M2041.86,336.839c-4.029,0-7.078-1.124-9.141-3.373c-2.064-2.249-3.094-5.195-3.094-8.834v-51.847
				h-12.236v-10.219h6.91c2.494,0,4.197-0.505,5.109-1.513c0.912-1.007,1.367-2.757,1.367-5.253v-13.819h10.365v20.585h16.266
				v10.219h-16.266v53.835h15.113v10.219H2041.86z"/>
			<path fill="#A49B4B" d="M2081.731,245.148c-2.496,0-4.295-0.598-5.396-1.799c-1.105-1.199-1.656-2.757-1.656-4.679V236.8
				c0-1.918,0.551-3.478,1.656-4.678c1.102-1.199,2.9-1.8,5.396-1.8s4.295,0.601,5.398,1.8c1.102,1.2,1.656,2.76,1.656,4.678v1.871
				c0,1.922-0.555,3.479-1.656,4.679C2086.026,244.551,2084.228,245.148,2081.731,245.148z M2075.974,262.566h11.516v74.272h-11.516
				V262.566z"/>
			<path fill="#A49B4B" d="M2139.597,338.567c-5.182,0-9.838-0.914-13.963-2.735c-4.127-1.822-7.605-4.413-10.436-7.772
				c-2.832-3.358-4.99-7.436-6.477-12.235c-1.488-4.798-2.23-10.171-2.23-16.122c0-5.948,0.742-11.322,2.23-16.121
				c1.486-4.797,3.645-8.875,6.477-12.235c2.83-3.358,6.309-5.948,10.436-7.772c4.125-1.822,8.781-2.734,13.963-2.734
				c7.389,0,13.314,1.607,17.777,4.821c4.461,3.216,7.795,7.413,10.004,12.595l-9.645,4.895c-1.344-3.838-3.551-6.813-6.621-8.925
				c-3.072-2.109-6.91-3.167-11.516-3.167c-3.455,0-6.477,0.554-9.068,1.656c-2.59,1.104-4.75,2.64-6.477,4.605
				c-1.729,1.968-3.023,4.318-3.887,7.053c-0.863,2.735-1.297,5.736-1.297,8.996v12.667c0,6.528,1.75,11.876,5.256,16.05
				c3.5,4.175,8.658,6.262,15.473,6.262c9.307,0,16.025-4.318,20.152-12.955l8.348,5.614c-2.398,5.376-5.973,9.645-10.723,12.812
				C2152.624,336.983,2146.698,338.567,2139.597,338.567z"/>
			<path fill="#A49B4B" d="M2206.673,338.567c-6.91,0-12.691-1.32-17.346-3.959s-8.66-6.165-12.02-10.58l8.205-6.621
				c2.879,3.648,6.094,6.455,9.645,8.42c3.549,1.969,7.676,2.951,12.379,2.951c4.895,0,8.709-1.055,11.443-3.166
				c2.734-2.109,4.102-5.086,4.102-8.925c0-2.879-0.936-5.349-2.807-7.413c-1.871-2.063-5.254-3.477-10.146-4.246l-5.902-0.863
				c-3.455-0.479-6.621-1.224-9.5-2.231s-5.398-2.351-7.557-4.03c-2.16-1.678-3.84-3.766-5.039-6.262
				c-1.201-2.494-1.799-5.47-1.799-8.924c0-3.646,0.67-6.838,2.016-9.572c1.342-2.735,3.189-5.013,5.541-6.838
				c2.352-1.821,5.158-3.189,8.42-4.102c3.262-0.911,6.766-1.367,10.51-1.367c6.045,0,11.105,1.057,15.186,3.166
				c4.076,2.112,7.65,5.038,10.723,8.78l-7.629,6.909c-1.633-2.303-4.029-4.391-7.197-6.261c-3.166-1.872-7.148-2.808-11.947-2.808
				s-8.42,1.032-10.867,3.096s-3.67,4.871-3.67,8.42c0,3.648,1.223,6.286,3.67,7.916c2.447,1.634,5.975,2.832,10.58,3.6l5.758,0.863
				c8.252,1.248,14.105,3.623,17.561,7.125c3.455,3.505,5.182,8.086,5.182,13.746c0,7.197-2.447,12.861-7.34,16.986
				C2221.931,336.505,2215.212,338.567,2206.673,338.567z"/>
			<path fill="#A49B4B" d="M2317.794,338.567c-8.156,0-15.113-1.562-20.871-4.679s-10.652-7.413-14.682-12.883l8.924-7.485
				c3.549,4.703,7.484,8.277,11.803,10.724c4.318,2.447,9.404,3.671,15.258,3.671c7.197,0,12.689-1.728,16.482-5.182
				c3.789-3.455,5.686-8.062,5.686-13.818c0-4.797-1.439-8.492-4.318-11.083c-2.879-2.592-7.629-4.654-14.25-6.19l-8.205-1.871
				c-9.213-2.11-16.242-5.301-21.088-9.571c-4.846-4.27-7.27-10.293-7.27-18.065c0-4.413,0.814-8.349,2.447-11.803
				c1.631-3.455,3.91-6.334,6.838-8.637c2.926-2.304,6.428-4.054,10.508-5.254c4.078-1.199,8.564-1.8,13.459-1.8
				c7.578,0,14.08,1.393,19.504,4.175c5.42,2.784,10.004,6.861,13.746,12.235l-9.068,6.62c-2.785-3.837-6.143-6.859-10.076-9.068
				c-3.936-2.206-8.83-3.311-14.682-3.311c-6.43,0-11.492,1.367-15.186,4.103c-3.695,2.735-5.543,6.838-5.543,12.308
				c0,4.8,1.559,8.42,4.68,10.867c3.117,2.447,7.844,4.391,14.178,5.83l8.205,1.871c9.883,2.209,17.031,5.566,21.447,10.076
				c4.412,4.511,6.621,10.508,6.621,17.992c0,4.606-0.791,8.78-2.375,12.523c-1.584,3.742-3.865,6.909-6.838,9.5
				c-2.975,2.591-6.598,4.606-10.867,6.045C2327.989,337.847,2323.167,338.567,2317.794,338.567z"/>
			<path fill="#A49B4B" d="M2400.128,338.567c-4.99,0-9.549-0.914-13.674-2.735c-4.127-1.822-7.654-4.438-10.58-7.845
				c-2.928-3.405-5.207-7.484-6.838-12.235c-1.633-4.75-2.445-10.099-2.445-16.05c0-5.852,0.813-11.178,2.445-15.978
				c1.631-4.797,3.91-8.899,6.838-12.307c2.926-3.405,6.453-6.021,10.58-7.845c4.125-1.822,8.684-2.734,13.674-2.734
				c4.988,0,9.523,0.912,13.604,2.734c4.076,1.824,7.604,4.439,10.578,7.845c2.975,3.407,5.277,7.51,6.91,12.307
				c1.631,4.8,2.447,10.126,2.447,15.978c0,5.951-0.816,11.3-2.447,16.05c-1.633,4.751-3.936,8.83-6.91,12.235
				c-2.975,3.406-6.502,6.022-10.578,7.845C2409.651,337.653,2405.116,338.567,2400.128,338.567z M2400.128,328.347
				c6.236,0,11.322-1.918,15.258-5.758c3.934-3.836,5.902-9.69,5.902-17.561v-10.652c0-7.867-1.969-13.721-5.902-17.561
				c-3.936-3.836-9.021-5.758-15.258-5.758c-6.238,0-11.324,1.922-15.258,5.758c-3.936,3.84-5.9,9.693-5.9,17.561v10.652
				c0,7.87,1.965,13.725,5.9,17.561C2388.804,326.429,2393.89,328.347,2400.128,328.347z"/>
			<path fill="#A49B4B" d="M2480.304,338.567c-5.182,0-9.838-0.914-13.963-2.735c-4.127-1.822-7.605-4.413-10.436-7.772
				c-2.832-3.358-4.99-7.436-6.477-12.235c-1.49-4.798-2.232-10.171-2.232-16.122c0-5.948,0.742-11.322,2.232-16.121
				c1.486-4.797,3.645-8.875,6.477-12.235c2.83-3.358,6.309-5.948,10.436-7.772c4.125-1.822,8.781-2.734,13.963-2.734
				c7.389,0,13.314,1.607,17.777,4.821c4.461,3.216,7.795,7.413,10.004,12.595l-9.645,4.895c-1.346-3.838-3.551-6.813-6.621-8.925
				c-3.072-2.109-6.91-3.167-11.516-3.167c-3.455,0-6.477,0.554-9.068,1.656c-2.592,1.104-4.75,2.64-6.477,4.605
				c-1.729,1.968-3.023,4.318-3.887,7.053c-0.863,2.735-1.297,5.736-1.297,8.996v12.667c0,6.528,1.75,11.876,5.254,16.05
				c3.502,4.175,8.66,6.262,15.475,6.262c9.307,0,16.025-4.318,20.152-12.955l8.348,5.614c-2.398,5.376-5.973,9.645-10.723,12.812
				C2493.331,336.983,2487.403,338.567,2480.304,338.567z"/>
			<path fill="#A49B4B" d="M2530.825,245.148c-2.496,0-4.295-0.598-5.396-1.799c-1.105-1.199-1.656-2.757-1.656-4.679V236.8
				c0-1.918,0.551-3.478,1.656-4.678c1.102-1.199,2.9-1.8,5.396-1.8c2.494,0,4.295,0.601,5.398,1.8
				c1.102,1.2,1.656,2.76,1.656,4.678v1.871c0,1.922-0.555,3.479-1.656,4.679C2535.12,244.551,2533.319,245.148,2530.825,245.148z
				 M2525.067,262.566h11.516v74.272h-11.516V262.566z"/>
			<path fill="#A49B4B" d="M2588.978,338.567c-5.086,0-9.668-0.914-13.746-2.735c-4.08-1.822-7.582-4.438-10.508-7.845
				c-2.928-3.405-5.182-7.484-6.766-12.235c-1.582-4.75-2.373-10.099-2.373-16.05c0-5.852,0.791-11.178,2.373-15.978
				c1.584-4.797,3.838-8.899,6.766-12.307c2.926-3.405,6.428-6.021,10.508-7.845c4.078-1.822,8.66-2.734,13.746-2.734
				c4.99,0,9.451,0.908,13.387,2.725c3.934,1.818,7.293,4.33,10.076,7.533s4.918,7.004,6.406,11.402
				c1.486,4.399,2.23,9.229,2.23,14.486v5.451h-53.402v3.455c0,3.167,0.504,6.117,1.512,8.853s2.447,5.11,4.318,7.125
				c1.871,2.016,4.174,3.599,6.908,4.751c2.736,1.151,5.83,1.727,9.285,1.727c4.701,0,8.803-1.103,12.307-3.311
				c3.502-2.206,6.213-5.373,8.133-9.5l8.205,5.939c-2.4,5.119-6.143,9.246-11.229,12.384S2595.981,338.567,2588.978,338.567z
				 M2588.978,270.482c-3.166,0-6.045,0.549-8.635,1.646c-2.592,1.098-4.822,2.647-6.693,4.648
				c-1.871,2.002-3.336,4.363-4.391,7.081c-1.057,2.719-1.584,5.698-1.584,8.941v1.001h41.023v-1.575
				c0-6.58-1.799-11.848-5.398-15.806C2599.702,272.462,2594.927,270.482,2588.978,270.482z"/>
			<path fill="#A49B4B" d="M2656.487,336.839c-4.031,0-7.078-1.124-9.141-3.373c-2.064-2.249-3.096-5.195-3.096-8.834v-51.847
				h-12.234v-10.219h6.908c2.494,0,4.197-0.505,5.111-1.513c0.91-1.007,1.367-2.757,1.367-5.253v-13.819h10.363v20.585h16.266
				v10.219h-16.266v53.835h15.113v10.219H2656.487z"/>
			<path fill="#A49B4B" d="M2736.374,262.566h11.371l-33.25,91.546c-0.863,2.207-1.729,4.053-2.592,5.541
				c-0.863,1.487-1.92,2.664-3.166,3.527c-1.248,0.864-2.807,1.487-4.678,1.871c-1.871,0.383-4.152,0.576-6.838,0.576h-5.902v-10.22
				h11.66l5.613-15.809l-27.781-77.033h11.516l17.85,50.426l3.455,12.069h0.719l4.031-12.069L2736.374,262.566z"/>
			<g>
				<path fill="#A49B4B" d="M1586.552,477.758l-3.609-11.477h-15.99l-3.547,11.477h-8.641l15.088-45.004h10.574l14.959,45.004
					H1586.552z M1575.075,440.492h-0.322l-5.738,18.504h11.863L1575.075,440.492z"/>
				<path fill="#A49B4B" d="M1631.878,477.758l-3.611-11.477h-15.99l-3.545,11.477h-8.641l15.088-45.004h10.574l14.957,45.004
					H1631.878z M1620.401,440.492h-0.322l-5.738,18.504h11.863L1620.401,440.492z"/>
				<path fill="#A49B4B" d="M1675.915,458.738h-18.764v19.02h-8.51v-45.004h8.51v18.439h18.764v-18.439h8.51v45.004h-8.51V458.738z"
					/>
				<path fill="#A49B4B" d="M1710.796,457.385l-5.996,7.092v13.281h-8.512v-45.004h8.512v22.18h0.322l6.383-8.445l11.154-13.734
					h9.801l-15.668,18.762l16.957,26.242h-10.123L1710.796,457.385z"/>
				<path fill="#A49B4B" d="M1749.353,432.754v27.66c0,3.525,0.676,6.168,2.031,7.932c1.354,1.762,3.643,2.643,6.865,2.643
					c3.225,0,5.514-0.881,6.867-2.643c1.354-1.764,2.031-4.406,2.031-7.932v-27.66h8.381v26.564c0,3.311-0.311,6.168-0.934,8.574
					c-0.625,2.408-1.623,4.408-2.998,5.998c-1.377,1.59-3.172,2.762-5.385,3.514c-2.215,0.75-4.891,1.127-8.027,1.127
					c-3.182,0-5.857-0.377-8.027-1.127c-2.17-0.752-3.943-1.924-5.318-3.514c-1.377-1.59-2.365-3.59-2.967-5.998
					c-0.602-2.406-0.902-5.264-0.902-8.574v-26.564H1749.353z"/>
				<path fill="#A49B4B" d="M1801.062,478.531c-3.869,0-7.146-0.688-9.834-2.066c-2.686-1.377-4.996-3.186-6.93-5.426l5.738-5.553
					c1.547,1.791,3.277,3.156,5.189,4.094c1.912,0.939,4.029,1.408,6.352,1.408c2.621,0,4.598-0.564,5.932-1.695
					c1.332-1.131,1.998-2.654,1.998-4.574c0-1.494-0.43-2.709-1.289-3.648c-0.859-0.938-2.473-1.619-4.836-2.047l-4.256-0.639
					c-8.984-1.422-13.475-5.789-13.475-13.105c0-2.023,0.375-3.852,1.129-5.486c0.75-1.637,1.836-3.035,3.256-4.197
					c1.418-1.162,3.127-2.055,5.125-2.68c2-0.623,4.266-0.936,6.803-0.936c3.395,0,6.361,0.561,8.898,1.68
					c2.535,1.121,4.705,2.777,6.512,4.975l-5.803,5.492c-1.119-1.363-2.473-2.473-4.063-3.324c-1.592-0.852-3.59-1.279-5.996-1.279
					c-2.451,0-4.287,0.459-5.514,1.375c-1.225,0.916-1.838,2.205-1.838,3.867c0,1.703,0.494,2.961,1.484,3.771
					c0.988,0.809,2.578,1.406,4.771,1.789l4.189,0.773c4.557,0.818,7.92,2.271,10.092,4.357c2.17,2.088,3.256,5.002,3.256,8.746
					c0,2.152-0.377,4.098-1.129,5.842c-0.752,1.742-1.848,3.248-3.289,4.518c-1.439,1.27-3.201,2.248-5.285,2.938
					C1806.165,478.188,1803.769,478.531,1801.062,478.531z"/>
				<path fill="#A49B4B" d="M1835.813,432.754v27.66c0,3.525,0.676,6.168,2.031,7.932c1.354,1.762,3.643,2.643,6.865,2.643
					c3.225,0,5.514-0.881,6.867-2.643c1.354-1.764,2.031-4.406,2.031-7.932v-27.66h8.381v26.564c0,3.311-0.311,6.168-0.934,8.574
					c-0.625,2.408-1.623,4.408-2.998,5.998c-1.377,1.59-3.172,2.762-5.385,3.514c-2.215,0.75-4.891,1.127-8.027,1.127
					c-3.182,0-5.857-0.377-8.027-1.127c-2.17-0.752-3.943-1.924-5.318-3.514c-1.377-1.59-2.365-3.59-2.967-5.998
					c-0.602-2.406-0.902-5.264-0.902-8.574v-26.564H1835.813z"/>
			</g>
		</g>
		<g>
			<g>
				<g>
					<path fill="#A49B4B" d="M1098.203,271.575c-9.105,21.527-14.52,44.145-16.17,67.426c3.588-2.922,8.158-4.68,13.137-4.68
						c5.494,0,10.488,2.154,14.217,5.637c7.338-95.592,87.225-170.871,184.701-170.871c7.553,0,13.674-6.123,13.674-13.676
						s-6.121-13.676-13.674-13.676c-28.689,0-56.537,5.625-82.765,16.719c-25.318,10.709-48.053,26.033-67.568,45.549
						C1124.236,223.521,1108.91,246.255,1098.203,271.575z"/>
					<path fill="#A49B4B" d="M1278.946,538.972c-94.955-7.682-169.671-86.963-170.101-183.797c0-7.551-6.121-13.676-13.676-13.676
						c-7.553,0-13.676,6.125-13.676,13.676c0.109,28.395,5.723,55.955,16.709,81.928c10.707,25.318,26.033,48.053,45.551,67.568
						c19.516,19.518,42.25,34.844,67.568,45.553c21.256,8.99,43.572,14.387,66.539,16.111c-2.887-3.58-4.627-8.123-4.627-13.068
						C1273.233,547.733,1275.417,542.71,1278.946,538.972z"/>
					<path fill="#A49B4B" d="M1442.288,487.415c-2.67-2.672-6.17-4.006-9.67-4.006c-3.498,0-7,1.334-9.672,4.006
						c-33.342,32.291-78.775,52.176-128.859,52.176c-7.553,0-13.676,6.123-13.676,13.676s6.123,13.676,13.676,13.676
						c28.689,0,56.535-5.625,82.764-16.719c24.408-10.32,46.4-24.947,65.438-43.469
						C1447.632,501.415,1447.632,492.757,1442.288,487.415z"/>
					<path fill="#A49B4B" d="M1294.091,141.731c-28.689,0-56.541,5.631-82.769,16.721c-25.32,10.709-48.051,26.039-67.57,45.549
						c-19.52,19.521-34.84,42.25-45.551,67.57c-9.1,21.531-14.52,44.15-16.17,67.43c3.59-2.92,8.16-4.68,13.141-4.68
						c5.49,0,10.49,2.15,14.209,5.641c7.34-95.6,87.23-170.869,184.71-170.869c7.549,0,13.67-6.131,13.67-13.682
						C1307.761,147.862,1301.64,141.731,1294.091,141.731z M1278.95,538.972c-94.958-7.68-169.679-86.959-170.109-183.799
						c0-7.551-6.121-13.672-13.67-13.672c-7.551,0-13.68,6.121-13.68,13.672c0.109,28.398,5.729,55.959,16.709,81.93
						c10.711,25.32,26.031,48.049,45.551,67.57c19.52,19.52,42.25,34.84,67.57,45.549c21.26,8.99,43.568,14.391,66.539,16.109
						c-2.891-3.58-4.629-8.119-4.629-13.059C1273.231,547.731,1275.421,542.712,1278.95,538.972z M1442.29,487.411
						c-2.67-2.67-6.17-4-9.67-4s-7,1.33-9.67,4c-33.35,32.291-78.779,52.182-128.859,52.182c-7.561,0-13.68,6.119-13.68,13.68
						c0,7.549,6.119,13.67,13.68,13.67c28.689,0,56.529-5.621,82.76-16.721c24.41-10.32,46.4-24.949,65.439-43.471
						C1447.63,501.411,1447.63,492.763,1442.29,487.411z"/>
				</g>
				<g>
					<g>
						<g>
							<path fill="#A49B4B" d="M1406.671,241.751c-30.07-30.068-70.051-46.629-112.58-46.629
								c-42.531,0-82.519,16.561-112.589,46.629c-30.07,30.07-46.631,70.061-46.631,112.592c0,42.529,16.561,82.51,46.631,112.58
								c30.07,30.068,70.058,46.639,112.589,46.639c42.529,0,82.51-16.57,112.58-46.639c30.08-30.07,46.629-70.051,46.629-112.58
								C1453.3,311.812,1436.751,271.821,1406.671,241.751z M1204.21,310.462h-12.949v87.75h12.949v7.619h-22.33V302.853h22.33
								V310.462z M1221.841,405.831v-72.729c0-6.271-0.109-11.941-0.32-17.031c-0.221-5.08-0.539-9.49-0.971-13.219h13.201v72.41
								c0,2.049,0.029,4.479,0.09,7.27c0.061,2.789,0.15,5.619,0.26,8.49c0.109,2.879,0.24,5.629,0.391,8.25
								c0.148,2.609,0.33,4.799,0.539,6.559H1221.841z M1291.351,348.612h-12.1v48.789h12.1v8.43h-36.041v-8.43h11.91v-48.789
								h-11.91v-8.43h36.041V348.612z M1367.63,398.751c0,7.25-0.639,13.271-1.91,18.051c-1.26,4.791-3.029,8.609-5.299,11.461
								c-2.281,2.85-5.02,4.869-8.211,6.049c-3.199,1.18-6.75,1.77-10.65,1.77c-1.93,0-4-0.309-6.209-0.93
								c-2.211-0.629-4.221-1.49-6.02-2.609l4.18-9.66c0.99,0.73,2.311,1.35,3.959,1.84c1.65,0.49,3.34,0.74,5.051,0.74
								c2.061,0,3.91-0.33,5.539-1c1.631-0.66,3.012-1.83,4.15-3.5c1.141-1.68,2.01-3.971,2.611-6.891
								c0.6-2.92,0.898-6.629,0.898-11.139v-28.32c0-5.15-0.27-9.32-0.809-12.52c-0.531-3.191-1.34-5.682-2.41-7.461
								s-2.42-2.971-4.031-3.58c-1.6-0.6-3.479-0.9-5.629-0.9c-2.311,0-4.57,0.551-6.781,1.65c-2.209,1.09-4.25,2.51-6.09,4.24
								c-1.84,1.74-3.469,3.699-4.889,5.891c-1.41,2.189-2.471,4.379-3.16,6.568v37.33h-11.9v-39.58c0-6.35-0.369-11.729-1.1-16.129
								c-0.721-4.4-1.439-7.711-2.121-9.939h11.59c0.25,0.68,0.512,1.568,0.771,2.67c0.26,1.09,0.49,2.24,0.709,3.439
								c0.211,1.199,0.4,2.391,0.58,3.539l0.51,2.9c4.121-4.889,8.26-8.42,12.42-10.59c4.17-2.17,8.5-3.25,13-3.25
								c3.441,0,6.471,0.57,9.111,1.711c2.639,1.139,4.859,2.939,6.66,5.398c1.799,2.471,3.17,5.672,4.09,9.592
								c0.92,3.93,1.389,8.658,1.389,14.199V398.751z M1406.3,405.831h-22.33v-7.619h12.941v-87.75h-12.941v-7.609h22.33V405.831z"
								/>
						</g>
					</g>
				</g>
			</g>
		</g>
	</g>
</g>
</svg>
