<?xml version="1.0" encoding="utf-8"?>
<!-- Generator: Adobe Illustrator 16.0.0, SVG Export Plug-In . SVG Version: 6.00 Build 0)  -->
<!DOCTYPE svg PUBLIC "-//W3C//DTD SVG 1.0//EN" "http://www.w3.org/TR/2001/REC-SVG-20010904/DTD/svg10.dtd">
<svg version="1.0" id="Logotypes" xmlns="http://www.w3.org/2000/svg" xmlns:xlink="http://www.w3.org/1999/xlink" x="0px" y="0px"
	 width="2679.1px" height="708.665px" viewBox="0 0 2679.1 708.665" enable-background="new 0 0 2679.1 708.665"
	 xml:space="preserve">
<g>
	<defs>
		<rect id="SVGID_107_" x="0.001" width="2679.099" height="708.665"/>
	</defs>
	<clipPath id="SVGID_2_">
		<use xlink:href="#SVGID_107_"  overflow="visible"/>
	</clipPath>
	<g clip-path="url(#SVGID_2_)">
		<g>
			
				<text transform="matrix(1.0154 0 0 1 1798.8799 379.042)" fill="#A49B4B" font-family="'NotoSansCJKtc-Medium-B5pc-H'" font-size="62.1189" letter-spacing="3.939">二零一七至二零一八年度</text>
		</g>
		<g>
			<rect x="1633.979" y="222.216" fill="#A49B4B" width="3" height="264.238"/>
		</g>
		<g>
			<g>
				<g>
					<path fill="#A49B4B" d="M158.444,271.572c-9.104,21.529-14.518,44.146-16.168,67.425c3.588-2.92,8.16-4.678,13.137-4.678
						c5.496,0,10.488,2.152,14.216,5.636c7.338-95.591,87.224-170.869,184.696-170.869c7.553,0,13.676-6.121,13.676-13.675
						c0-7.553-6.123-13.675-13.676-13.675c-28.688,0-56.533,5.625-82.762,16.718c-25.318,10.71-48.053,26.033-67.565,45.549
						C184.48,223.521,169.153,246.254,158.444,271.572z"/>
					<path fill="#A49B4B" d="M339.186,538.966c-94.952-7.685-169.668-86.964-170.097-183.794c0-7.552-6.121-13.677-13.676-13.677
						c-7.553,0-13.676,6.125-13.676,13.677c0.109,28.393,5.723,55.952,16.707,81.926c10.709,25.316,26.036,48.052,45.554,67.565
						c19.513,19.519,42.247,34.843,67.565,45.554c21.256,8.988,43.571,14.385,66.538,16.109c-2.889-3.578-4.628-8.121-4.628-13.066
						C333.474,547.725,335.655,542.701,339.186,538.966z"/>
					<path fill="#A49B4B" d="M502.522,487.408c-2.671-2.671-6.168-4.006-9.668-4.006s-7,1.335-9.672,4.006
						c-33.342,32.29-78.774,52.176-128.857,52.176c-7.553,0-13.675,6.122-13.675,13.676c0,7.552,6.122,13.674,13.675,13.674
						c28.691,0,56.535-5.624,82.765-16.717c24.407-10.322,46.399-24.949,65.433-43.469
						C507.866,501.409,507.866,492.749,502.522,487.408z"/>
					<path fill="#A49B4B" d="M354.324,141.732c-28.69,0-56.53,5.63-82.761,16.72c-25.319,10.71-48.049,26.03-67.569,45.551
						c-19.511,19.52-34.84,42.25-45.55,67.569c-9.1,21.53-14.521,44.15-16.17,67.42c3.59-2.92,8.16-4.67,13.14-4.67
						c5.49,0,10.49,2.15,14.21,5.63c7.34-95.59,87.23-170.869,184.7-170.869c7.55,0,13.68-6.12,13.68-13.671
						C368.004,147.862,361.874,141.732,354.324,141.732z M339.185,538.963c-94.951-7.681-169.67-86.96-170.09-183.79
						c0-7.551-6.131-13.681-13.681-13.681s-13.681,6.13-13.681,13.681c0.111,28.39,5.73,55.949,16.711,81.93
						c10.71,25.31,26.039,48.05,45.55,67.56c19.521,19.521,42.25,34.841,67.569,45.551c21.25,8.989,43.57,14.39,66.541,16.109
						c-2.891-3.569-4.631-8.12-4.631-13.06C333.474,547.723,335.654,542.702,339.185,538.963z M502.524,487.412
						c-2.67-2.68-6.17-4.01-9.67-4.01s-7,1.33-9.67,4.01c-33.34,32.29-78.78,52.171-128.86,52.171c-7.55,0-13.67,6.119-13.67,13.68
						c0,7.55,6.12,13.67,13.67,13.67c28.69,0,56.54-5.62,82.771-16.72c24.399-10.32,46.389-24.94,65.43-43.46
						C507.864,501.412,507.864,492.753,502.524,487.412z"/>
				</g>
				<g>
					<g>
						<g>
							<path fill="#A49B4B" d="M466.904,241.753c-30.06-30.07-70.05-46.631-112.58-46.631s-82.511,16.561-112.58,46.631
								c-30.07,30.069-46.64,70.06-46.64,112.58c0,42.529,16.569,82.51,46.64,112.59c30.069,30.069,70.05,46.63,112.58,46.63
								s82.521-16.561,112.58-46.63c30.079-30.08,46.63-70.061,46.63-112.59C513.534,311.813,496.983,271.822,466.904,241.753z
								 M264.454,310.463h-12.95v87.75h12.95v7.609h-22.34V302.843h22.34V310.463z M282.084,405.822v-72.729
								c0-6.26-0.11-11.931-0.33-17.021c-0.21-5.09-0.53-9.5-0.96-13.229h13.189v72.41c0,2.06,0.031,4.479,0.101,7.27
								c0.06,2.79,0.149,5.62,0.261,8.5c0.1,2.87,0.229,5.62,0.379,8.24c0.15,2.609,0.33,4.8,0.551,6.56H282.084z M351.595,348.612
								h-12.101v48.78h12.101v8.43h-36.041v-8.43h11.9v-48.78h-11.9v-8.439h36.041V348.612z M427.864,398.742
								c0,7.25-0.641,13.271-1.9,18.061c-1.27,4.78-3.04,8.6-5.31,11.45c-2.271,2.859-5.011,4.88-8.21,6.05
								c-3.19,1.18-6.74,1.77-10.65,1.77c-1.93,0-4-0.31-6.21-0.93s-4.22-1.49-6.021-2.61l4.19-9.649
								c0.979,0.729,2.3,1.34,3.95,1.83c1.66,0.5,3.34,0.739,5.05,0.739c2.07,0,3.91-0.33,5.54-0.989
								c1.63-0.67,3.01-1.841,4.15-3.511c1.14-1.67,2.01-3.97,2.609-6.89c0.601-2.92,0.9-6.63,0.9-11.13v-28.33
								c0-5.14-0.27-9.32-0.8-12.51c-0.54-3.2-1.351-5.69-2.421-7.471c-1.069-1.779-2.409-2.97-4.02-3.569
								c-1.609-0.601-3.49-0.9-5.63-0.9c-2.319,0-4.581,0.55-6.79,1.641c-2.21,1.09-4.24,2.51-6.09,4.25
								c-1.84,1.729-3.471,3.699-4.891,5.89c-1.409,2.18-2.459,4.37-3.149,6.56v37.33h-11.91v-39.58c0-6.35-0.36-11.72-1.09-16.12
								c-0.729-4.399-1.44-7.71-2.13-9.949h11.59c0.26,0.689,0.51,1.58,0.77,2.68c0.261,1.09,0.49,2.24,0.711,3.44
								c0.209,1.199,0.41,2.38,0.58,3.54l0.51,2.89c4.119-4.89,8.26-8.42,12.43-10.58c4.16-2.17,8.5-3.26,13-3.26
								c3.43,0,6.471,0.569,9.1,1.71c2.641,1.14,4.871,2.939,6.67,5.41c1.801,2.47,3.16,5.659,4.08,9.59
								c0.931,3.93,1.391,8.649,1.391,14.189V398.742z M466.534,405.822h-22.33v-7.609h12.939v-87.75h-12.939v-7.62h22.33V405.822z"
								/>
						</g>
					</g>
				</g>
			</g>
		</g>
		<g>
			<g>
				<path fill="#A49B4B" d="M731.936,379.632h-54.993v-9.129h54.993V379.632z M724.778,476.837h-9.421v-10.006h-21.983v10.006
					h-9.568v-49.368h40.973V476.837z M724.339,398.474l-40.386,0.146v-9.129h40.386V398.474z M724.486,417.608h-40.533v-9.129
					h40.533V417.608z M722.66,361.081l-37.1,0.146v-9.129h37.1V361.081z M715.357,457.849V436.45h-22.129v21.398H715.357z
					 M809.714,417.755l-78.947,0.145v-8.982h19.572l4.236-22.566h-18.258v-8.982h19.719l3.14-16.725h-27.971v-9.129h72.521v8.982
					h-34.69l-2.994,16.725h30.09l-3.141,31.549h16.724V417.755z M797.006,477.13h-9.42v-9.859h-36.955v9.859h-9.566v-49.516h55.941
					V477.13z M787.586,458.286v-21.689h-37.101v21.689H787.586z M786.125,386.204h-21.691l-4.234,22.713h23.662L786.125,386.204z"/>
				<path fill="#A49B4B" d="M974.386,379.632H841.614v-9.129h132.771V379.632z M954.813,398.327H859.87v-8.836h94.943V398.327z
					 M954.813,417.315H859.87v-8.836h94.943V417.315z M951.38,477.13h-9.42v-10.299h-68.504v10.299h-9.422v-49.661h87.346V477.13z
					 M951.235,360.132l-86.471,0.219v-8.836h86.471V360.132z M941.96,457.849V436.45h-68.504v21.398H941.96z"/>
				<path fill="#A49B4B" d="M1139.059,450.692h-58.791v10.15c0,10.857-5.77,16.287-17.312,16.287h-9.712l-3.578-8.982h13.584
					c4.771,0,7.158-2.193,7.158-6.574v-10.881h-64.123v-9.129h64.123v-6.281c10.174-3.799,17.453-7.352,21.836-10.662h-55.943v-8.4
					h72.158v7.961c-7.598,5.162-16.994,10.443-28.191,15.848v1.535h58.791V450.692z M1132.923,423.597h-8.765v-15.117h-102.023
					v15.994h-9.569v-24.539h12.562v-44.551c6.911-0.68,14.487-3.967,22.715-9.857l4.82,6.719c-4.434,4.09-10.471,7.182-18.113,9.275
					v6.135h18.695v7.596h-18.695v7.959h18.695v7.449h-18.695v9.275h77.633v-9.275h-17.82v-7.303h17.82v-8.545h-17.674v-7.449h17.674
					v-7.961h-20.668v-8.836h29.942v49.223h11.467V423.597z M1091.514,366.925l-5.111,6.279c-2.777-2.676-6.551-5.574-11.32-8.689
					c-3.943,3.311-8.376,6.354-13.293,9.129l-5.988-5.26c4.722-1.945,8.859-4.234,12.416-6.863
					c-5.941-2.24-10.736-3.799-14.389-4.674l3.727-6.721c5.401,1.363,10.832,3.117,16.284,5.258
					c3.458-3.26,6.354-6.596,8.692-10.004l6.135,4.893c-1.949,3.02-4.481,5.965-7.596,8.838
					C1084.671,361.153,1088.154,363.759,1091.514,366.925z M1092.388,393.507l-6.133,4.82c-3.942-3.018-8.035-5.525-12.269-7.521
					c-2.629,1.996-7.303,4.504-14.021,7.521l-5.551-4.381c6.279-2.969,10.783-5.551,13.512-7.742
					c-2.729-1.703-6.865-3.602-12.416-5.697l5.477-4.6c5.014,1.803,9.299,3.676,12.853,5.623c1.362-0.777,4.114-3.115,8.253-7.012
					l6.719,3.434c-2.482,3.213-5.256,5.867-8.324,7.961C1084.527,387.763,1088.494,390.294,1092.388,393.507z"/>
				<path fill="#A49B4B" d="M1303.583,450.692h-58.791v10.15c0,10.857-5.77,16.287-17.309,16.287h-9.713l-3.578-8.982h13.584
					c4.77,0,7.156-2.193,7.156-6.574v-10.881h-64.121v-9.129h64.121v-6.281c10.176-3.799,17.453-7.352,21.838-10.662h-55.943v-8.4
					h72.156v7.961c-7.596,5.162-16.994,10.443-28.191,15.848v1.535h58.791V450.692z M1297.45,423.597h-8.768v-15.117h-102.023
					v15.994h-9.566v-24.539h12.561v-44.551c6.914-0.68,14.484-3.967,22.713-9.857l4.82,6.719c-4.43,4.09-10.469,7.182-18.113,9.275
					v6.135h18.697v7.596h-18.697v7.959h18.697v7.449h-18.697v9.275h77.633v-9.275h-17.818v-7.303h17.818v-8.545h-17.674v-7.449
					h17.674v-7.961h-20.668v-8.836h29.943v49.223h11.469V423.597z M1258.64,391.868l-6.654,6.084
					c-3.037-4.563-7.383-10.275-11.586-13.824c-6.533,7.279-11.906,11.912-16.105,13.895l-6.584-5.529
					c4.949-2.355,10.316-6.752,16.107-13.203c-6.584-4.102-11.275-6.637-14.076-7.605l5.744-5.941
					c2.334,0.922,6.719,3.316,13.166,7.189c1.916-3.135,3.406-6.568,4.48-10.301h-21.99v-8.639h11.789v-8.896h7.566v8.896h13.992
					v8.639h-2.77c-1.555,5.717-3.646,10.67-6.275,14.863C1250.534,381.364,1255.419,387.261,1258.64,391.868z"/>
				<path fill="#A49B4B" d="M1470.519,379.341l-5.258,7.594c-16.604-4.09-29.602-8.813-38.998-14.168v6.574h-49.371v-7.232
					c-14.217,7.354-26.973,12.15-38.27,14.389l-4.818-7.668c27.361-6.67,50.146-17.82,68.357-33.449l8.982,2.994
					c-0.975,1.217-1.826,2.07-2.557,2.555C1424.751,364.368,1445.396,373.839,1470.519,379.341z M1454.962,421.187h-106.041v-34.252
					h106.041V421.187z M1446.272,477.274h-8.982v-5.842h-70.549v5.842h-8.982v-48.42h88.514V477.274z M1397.56,413.3v-18.258
					h-39.656V413.3H1397.56z M1437.29,446.31v-9.42h-70.549v9.42H1437.29z M1437.29,463.546v-9.568h-70.549v9.568H1437.29z
					 M1387.847,406.069l-7.521,5.258c-4.527-4.574-8.959-7.959-13.293-10.15l7.596-4.383
					C1379.788,398.985,1384.194,402.077,1387.847,406.069z M1423.269,371.233c-7.061-3.699-13.902-8.691-20.523-14.973
					c-7.061,5.844-14.971,10.834-23.734,14.973H1423.269z M1445.981,413.3v-18.258h-39.438V413.3H1445.981z M1437.144,399.351
					c-2.873,4.576-7.207,8.473-13,11.686l-8.033-4.018c6.379-3.602,10.76-7.205,13.145-10.809L1437.144,399.351z"/>
			</g>
			<g>
				<path fill="#A49B4B" d="M732.622,260.245l-2.788,3.211c-8.36-2.939-16.32-8.119-23.881-15.541l0.061,11.73h14.009v25.801h-3.81
					v-3.449h-24.27v3.449h-3.932v-25.801h14.07v-11.73c-4.119,6.301-11.562,11.23-22.32,14.791l-2.819-3.18
					c9.54-2.521,16.36-6.391,20.46-11.611h-17.07v-3.75h21.75v-5.789c-4.779,0.48-10.779,0.83-18,1.049l-2.58-3.629
					c17.061-0.061,30.681-1.49,40.861-4.291l2.88,2.881c-5.66,1.52-12.07,2.689-19.229,3.51v6.27h22.05v3.75l-17.191-0.059
					C717.233,253.376,724.483,257.507,732.622,260.245z M716.213,268.677v-5.281h-24.33v5.281H716.213z M716.213,278.306v-5.939
					h-24.33v5.939H716.213z"/>
				<path fill="#A49B4B" d="M748.225,263.005c-2.522,7.822-5.821,14.232-9.9,19.232l3.51,2.221
					c4.538-5.723,7.881-12.131,10.021-19.23L748.225,263.005z M741.895,246.356l-2.522,3.15c3.98,1.699,7.131,4.139,9.454,7.318
					l2.637-3.568C749.385,250.476,746.195,248.177,741.895,246.356z M744.833,232.917l-2.819,2.879
					c3.839,1.379,6.87,3.701,9.091,6.959l2.819-3.029C751.783,236.626,748.753,234.356,744.833,232.917z"/>
				<path fill="#A49B4B" d="M784.045,272.128v-11.313c2.379,2.24,4.939,4.08,7.682,5.521l2.46-3.332
					c-5.241-2.238-9.323-5.779-12.241-10.619h10.257v-3.689h-9.807v-7.17h7.408v-3.691h-7.408v-6.328h-3.812v6.389h-11.13v-6.389
					h-3.812v6.389h-7.378v3.689h7.44v7.17h-9.781v3.691h9.9c-2.22,4.16-6.23,7.621-12.029,10.379l2.818,3.33
					c1.715-0.994,3.295-2.074,4.739-3.238v16.08c0,3.439,1.722,5.16,5.161,5.16h19.65c1.602,0,2.866-0.531,3.795-1.59
					c0.932-1.061,1.656-3.15,2.176-6.27l-3.869-1.74c-0.263,2.5-0.64,4.098-1.141,4.799c-0.5,0.701-1.171,1.051-2.01,1.051h-18.301
					c-1.102,0-1.648-0.551-1.648-1.652v-6.627H784.045z M767.454,241.526h11.19v7.17h-11.19V241.526z M767.813,252.386h10.2
					c0.982,2.32,2.461,4.59,4.44,6.813h-19.05C765.564,256.817,767.035,254.546,767.813,252.386z M763.166,262.886h17.069v5.611
					h-17.069V262.886z"/>
				<path fill="#A49B4B" d="M855.386,282.446l-2.789,3.119c-12.502-6.818-20.441-18.309-23.822-34.469
					c-4.18,16.42-12.699,27.91-25.559,34.469l-3.031-3.568c12.74-6.201,20.811-16.48,24.211-30.842h-20.4v-3.869h20.85
					c0.381-3.76,0.539-9.021,0.48-15.781l4.17,0.602c0.1,6.119-0.02,11.16-0.359,15.119h22.74v3.871h-18.93
					C835.345,264.796,842.825,275.247,855.386,282.446z"/>
				<path fill="#A49B4B" d="M916.558,274.646h-24.15v4.172c0,4.459-2.371,6.689-7.111,6.689h-3.99l-1.469-3.689h5.58
					c1.959,0,2.939-0.9,2.939-2.701v-4.471h-26.34v-3.75h26.34v-2.58c4.18-1.559,7.17-3.02,8.971-4.379h-22.98v-3.451h29.641v3.27
					c-3.121,2.121-6.98,4.291-11.58,6.512v0.629h24.15V274.646z M914.038,263.517h-3.6v-6.211h-41.912v6.57h-3.93v-10.08h5.16
					v-18.301c2.84-0.279,5.949-1.629,9.33-4.049l1.979,2.76c-1.818,1.68-4.299,2.949-7.439,3.811v2.52h7.68v3.119h-7.68v3.271h7.68
					v3.059h-7.68v3.811h31.891v-3.811h-7.32v-3h7.32v-3.51h-7.26v-3.061h7.26v-3.27h-8.49v-3.629h12.301v20.219h4.711V263.517z
					 M897.026,240.235l-2.1,2.58c-1.141-1.1-2.689-2.289-4.65-3.57c-1.619,1.361-3.439,2.611-5.459,3.75l-2.461-2.158
					c1.939-0.801,3.641-1.74,5.1-2.82c-2.439-0.92-4.41-1.561-5.91-1.922l1.531-2.76c2.219,0.561,4.449,1.281,6.689,2.16
					c1.42-1.338,2.609-2.709,3.57-4.109l2.52,2.01c-0.801,1.24-1.84,2.451-3.119,3.631
					C894.216,237.864,895.646,238.937,897.026,240.235z M897.388,251.155l-2.521,1.98c-1.619-1.24-3.299-2.27-5.039-3.09
					c-1.08,0.82-3,1.85-5.76,3.09l-2.281-1.801c2.58-1.219,4.43-2.279,5.551-3.18c-1.121-0.699-2.82-1.479-5.1-2.34l2.248-1.891
					c2.061,0.74,3.822,1.512,5.281,2.311c0.561-0.32,1.689-1.279,3.391-2.879l2.76,1.41c-1.02,1.318-2.16,2.41-3.42,3.27
					C894.157,248.796,895.786,249.835,897.388,251.155z"/>
				<path fill="#A49B4B" d="M977.999,274.646h-24.15v4.172c0,4.459-2.371,6.689-7.111,6.689h-3.988l-1.471-3.689h5.58
					c1.959,0,2.939-0.9,2.939-2.701v-4.471h-26.34v-3.75h26.34v-2.58c4.18-1.559,7.17-3.02,8.971-4.379h-22.98v-3.451h29.641v3.27
					c-3.121,2.121-6.98,4.291-11.58,6.512v0.629h24.15V274.646z M975.479,263.517h-3.602v-6.211h-41.91v6.57h-3.93v-10.08h5.16
					v-18.301c2.84-0.279,5.949-1.629,9.33-4.049l1.98,2.76c-1.82,1.68-4.301,2.949-7.441,3.811v2.52h7.682v3.119h-7.682v3.271h7.682
					v3.059h-7.682v3.811h31.891v-3.811h-7.32v-3h7.32v-3.51h-7.26v-3.061h7.26v-3.27h-8.49v-3.629h12.301v20.219h4.711V263.517z
					 M958.468,240.235l-2.1,2.58c-1.141-1.1-2.691-2.289-4.65-3.57c-1.619,1.361-3.439,2.611-5.459,3.75l-2.461-2.158
					c1.939-0.801,3.641-1.74,5.1-2.82c-2.439-0.92-4.41-1.561-5.91-1.922l1.531-2.76c2.219,0.561,4.449,1.281,6.689,2.16
					c1.42-1.338,2.609-2.709,3.57-4.109l2.52,2.01c-0.801,1.24-1.84,2.451-3.119,3.631
					C955.659,237.864,957.089,238.937,958.468,240.235z M958.829,251.155l-2.521,1.98c-1.619-1.24-3.299-2.27-5.039-3.09
					c-1.08,0.82-3,1.85-5.762,3.09l-2.279-1.801c2.58-1.219,4.43-2.279,5.551-3.18c-1.121-0.699-2.82-1.479-5.1-2.34l2.25-1.891
					c2.059,0.74,3.818,1.512,5.279,2.311c0.561-0.32,1.689-1.279,3.391-2.879l2.76,1.41c-1.02,1.318-2.16,2.41-3.42,3.27
					C955.599,248.796,957.228,249.835,958.829,251.155z"/>
				<path fill="#A49B4B" d="M1039.438,282.507h-54.6v-3.869h25.441v-14.072h-18.332v-3.869h18.332v-12.24h-13.592
					c-1.639,4.26-4.379,8.189-8.219,11.789l-3.961-2.07c6.561-6.059,10.209-13.479,10.95-22.26l4.05,1.17
					c-0.16,2.041-0.629,4.561-1.408,7.561h12.117v-13.141h4.053v13.08h21.179v3.871h-21.179v12.18h18.06v3.869h-18.06v14.072h25.168
					V282.507z"/>
				<path fill="#A49B4B" d="M1101.87,245.335l-2.159,3.121c-6.82-1.68-12.16-3.619-16.02-5.82v2.699h-20.281v-2.969
					c-5.84,3.02-11.08,4.99-15.722,5.91l-1.978-3.15c11.238-2.74,20.6-7.32,28.08-13.74l3.689,1.23c-0.4,0.5-0.75,0.85-1.049,1.049
					C1083.07,239.187,1091.551,243.075,1101.87,245.335z M1095.482,262.526h-43.563v-14.07h43.563V262.526z M1091.912,285.565
					h-3.692v-2.398h-28.98v2.398h-3.688v-19.889h36.361V285.565z M1071.9,259.286v-7.5h-16.291v7.5H1071.9z M1088.22,272.847v-3.871
					h-28.98v3.871H1088.22z M1088.22,279.927v-3.93h-28.98v3.93H1088.22z M1067.91,256.315l-3.09,2.16
					c-1.859-1.879-3.68-3.27-5.461-4.17l3.121-1.799C1064.6,253.405,1066.41,254.677,1067.91,256.315z M1082.461,242.007
					c-2.9-1.52-5.711-3.57-8.432-6.152c-2.898,2.4-6.148,4.451-9.748,6.152H1082.461z M1091.791,259.286v-7.5h-16.199v7.5H1091.791z
					 M1088.16,253.556c-1.18,1.881-2.959,3.48-5.34,4.801l-3.3-1.65c2.62-1.48,4.421-2.961,5.398-4.439L1088.16,253.556z"/>
				<path fill="#A49B4B" d="M1162.953,281.636l-2.641,3.512c-10.18-3-18.442-7.041-24.779-12.121
					c-5.463,4.461-14.041,8.58-25.742,12.361l-2.939-3.57c11.319-3.141,19.881-6.951,25.682-11.432
					c-5.82-5.5-9.732-12.189-11.73-20.07c-1.08,2.781-2.563,5.42-4.441,7.92l-3.178-2.908c2.519-3.002,4.547-6.291,6.088-9.871
					h-10.32v-3.689h24.063v-10.262h3.869v10.201h24.481v3.689h-10.263c-1.799,10.441-5.938,18.75-12.42,24.93
					C1144.582,274.806,1152.671,278.577,1162.953,281.636z M1147.082,245.396h-23.218c1.597,9.26,5.506,16.711,11.728,22.352
					C1141.671,262.087,1145.502,254.636,1147.082,245.396z"/>
				<path fill="#A49B4B" d="M1223.765,274.646h-24.152v4.172c0,4.459-2.369,6.689-7.109,6.689h-3.99l-1.469-3.689h5.578
					c1.961,0,2.941-0.9,2.941-2.701v-4.471h-26.339v-3.75h26.339v-2.58c4.18-1.559,7.17-3.02,8.969-4.379h-22.98v-3.451h29.641v3.27
					c-3.119,2.121-6.98,4.291-11.58,6.512v0.629h24.152V274.646z M1221.245,263.517h-3.602v-6.211h-41.912v6.57h-3.93v-10.08h5.16
					v-18.301c2.84-0.279,5.951-1.629,9.332-4.049l1.979,2.76c-1.818,1.68-4.301,2.949-7.441,3.811v2.52h7.682v3.119h-7.682v3.271
					h7.682v3.059h-7.682v3.811h31.893v-3.811h-7.322v-3h7.322v-3.51h-7.26v-3.061h7.26v-3.27h-8.49v-3.629h12.299v20.219h4.713
					V263.517z M1204.233,240.235l-2.102,2.58c-1.139-1.1-2.689-2.289-4.648-3.57c-1.621,1.361-3.441,2.611-5.461,3.75l-2.459-2.158
					c1.939-0.801,3.639-1.74,5.1-2.82c-2.441-0.92-4.412-1.561-5.91-1.922l1.531-2.76c2.219,0.561,4.449,1.281,6.689,2.16
					c1.42-1.338,2.609-2.709,3.568-4.109l2.521,2.01c-0.801,1.24-1.842,2.451-3.119,3.631
					C1201.423,237.864,1202.853,238.937,1204.233,240.235z M1204.593,251.155l-2.52,1.98c-1.619-1.24-3.301-2.27-5.041-3.09
					c-1.08,0.82-3,1.85-5.76,3.09l-2.281-1.801c2.582-1.219,4.432-2.279,5.551-3.18c-1.119-0.699-2.82-1.479-5.1-2.34l2.25-1.891
					c2.061,0.74,3.82,1.512,5.281,2.311c0.561-0.32,1.689-1.279,3.389-2.879l2.76,1.41c-1.02,1.318-2.158,2.41-3.418,3.27
					C1201.362,248.796,1202.991,249.835,1204.593,251.155z"/>
				<path fill="#A49B4B" d="M1244.282,251.905c4.041,4.541,6.063,8.971,6.063,13.291c0,2.1-0.545,3.77-1.637,5.01
					c-1.088,1.24-2.613,1.861-4.574,1.861c-1.08,0-2.381-0.131-3.9-0.391l-1.109-3.99c2.141,0.541,3.68,0.811,4.619,0.811
					c0.779,0,1.49-0.301,2.131-0.9s0.961-1.4,0.961-2.4c0-1.5-0.551-3.42-1.65-5.76c-1.102-2.34-2.752-4.57-4.951-6.689
					l5.852-15.031h-8.91v47.791h-3.932v-51.602h16.83v3.811L1244.282,251.905z M1285.655,274.497
					c-0.521,3.24-1.221,5.59-2.102,7.049c-0.879,1.461-2.311,2.191-4.289,2.191h-4.68c-3.121,0-4.68-1.641-4.68-4.92v-15.871h-6.332
					c-0.119,6.439-1.375,11.266-3.764,14.475c-2.391,3.211-6.824,5.906-13.307,8.086l-2.52-3.451c6.02-1.779,10.15-4.08,12.391-6.9
					c2.24-2.818,3.369-6.869,3.391-12.148h-8.221v-3.932h32.133v3.871h-10.023v14.941c0,0.498,0.16,0.965,0.48,1.395
					s0.701,0.645,1.141,0.645h3.811c0.779,0,1.375-0.641,1.785-1.92c0.408-1.279,0.754-2.939,1.035-4.98L1285.655,274.497z
					 M1282.204,247.286l-3.809,0.061v-5.281h-22.621v5.281h-3.871v-9.092h13.17v-6.809h3.932v6.75h13.199V247.286z
					 M1277.165,253.075h-20.281v-3.93h20.281V253.075z"/>
				<path fill="#A49B4B" d="M1346.647,274.646h-24.152v4.172c0,4.459-2.371,6.689-7.109,6.689h-3.99l-1.471-3.689h5.58
					c1.961,0,2.941-0.9,2.941-2.701v-4.471h-26.342v-3.75h26.342v-2.58c4.18-1.559,7.17-3.02,8.969-4.379h-22.98v-3.451h29.641v3.27
					c-3.119,2.121-6.98,4.291-11.58,6.512v0.629h24.152V274.646z M1344.126,263.517h-3.6v-6.211h-41.91v6.57h-3.932v-10.08h5.162
					v-18.301c2.838-0.279,5.949-1.629,9.328-4.049l1.98,2.76c-1.82,1.68-4.299,2.949-7.439,3.811v2.52h7.68v3.119h-7.68v3.271h7.68
					v3.059h-7.68v3.811h31.891v-3.811h-7.32v-3h7.32v-3.51h-7.26v-3.061h7.26v-3.27h-8.49v-3.629h12.299v20.219h4.711V263.517z
					 M1327.116,240.235l-2.102,2.58c-1.141-1.1-2.689-2.289-4.65-3.57c-1.619,1.361-3.439,2.611-5.459,3.75l-2.461-2.158
					c1.941-0.801,3.643-1.74,5.102-2.82c-2.441-0.92-4.41-1.561-5.91-1.922l1.529-2.76c2.221,0.561,4.451,1.281,6.689,2.16
					c1.42-1.338,2.611-2.709,3.572-4.109l2.52,2.01c-0.801,1.24-1.842,2.451-3.121,3.631
					C1324.306,237.864,1325.735,238.937,1327.116,240.235z M1327.476,251.155l-2.52,1.98c-1.621-1.24-3.301-2.27-5.039-3.09
					c-1.082,0.82-3,1.85-5.762,3.09l-2.279-1.801c2.58-1.219,4.43-2.279,5.551-3.18c-1.121-0.699-2.822-1.479-5.102-2.34l2.25-1.891
					c2.061,0.74,3.82,1.512,5.279,2.311c0.561-0.32,1.689-1.279,3.391-2.879l2.76,1.41c-1.02,1.318-2.16,2.41-3.42,3.27
					C1324.245,248.796,1325.876,249.835,1327.476,251.155z"/>
				<path fill="#A49B4B" d="M1408.087,282.507h-54.6v-3.869h25.439v-14.072h-18.33v-3.869h18.33v-12.24h-13.59
					c-1.641,4.26-4.381,8.189-8.221,11.789l-3.959-2.07c6.559-6.059,10.209-13.479,10.949-22.26l4.051,1.17
					c-0.16,2.041-0.631,4.561-1.412,7.561h12.123v-13.141h4.049v13.08h21.18v3.871h-21.18v12.18h18.061v3.869h-18.061v14.072h25.17
					V282.507z"/>
				<path fill="#A49B4B" d="M1470.519,245.335l-2.158,3.121c-6.82-1.68-12.162-3.619-16.021-5.82v2.699h-20.281v-2.969
					c-5.84,3.02-11.08,4.99-15.719,5.91l-1.98-3.15c11.24-2.74,20.6-7.32,28.08-13.74l3.689,1.23c-0.4,0.5-0.75,0.85-1.049,1.049
					C1451.718,239.187,1460.2,243.075,1470.519,245.335z M1464.13,262.526h-43.561v-14.07h43.561V262.526z M1460.56,285.565h-3.691
					v-2.398h-28.98v2.398h-3.689v-19.889h36.361V285.565z M1440.548,259.286v-7.5h-16.289v7.5H1440.548z M1456.868,272.847v-3.871
					h-28.98v3.871H1456.868z M1456.868,279.927v-3.93h-28.98v3.93H1456.868z M1436.558,256.315l-3.09,2.16
					c-1.859-1.879-3.68-3.27-5.459-4.17l3.119-1.799C1433.249,253.405,1435.058,254.677,1436.558,256.315z M1451.108,242.007
					c-2.9-1.52-5.709-3.57-8.43-6.152c-2.902,2.4-6.15,4.451-9.75,6.152H1451.108z M1460.438,259.286v-7.5h-16.199v7.5H1460.438z
					 M1456.81,253.556c-1.182,1.881-2.961,3.48-5.342,4.801l-3.299-1.65c2.619-1.48,4.42-2.961,5.4-4.439L1456.81,253.556z"/>
			</g>
		</g>
	</g>
</g>
</svg>
