<?xml version="1.0" encoding="utf-8"?>
<!-- Generator: Adobe Illustrator 16.0.0, SVG Export Plug-In . SVG Version: 6.00 Build 0)  -->
<!DOCTYPE svg PUBLIC "-//W3C//DTD SVG 1.0//EN" "http://www.w3.org/TR/2001/REC-SVG-20010904/DTD/svg10.dtd">
<svg version="1.0" id="Logotypes" xmlns="http://www.w3.org/2000/svg" xmlns:xlink="http://www.w3.org/1999/xlink" x="0px" y="0px"
	 width="633.188px" height="799.023px" viewBox="0 0 633.188 799.023" enable-background="new 0 0 633.188 799.023"
	 xml:space="preserve">
<g>
	<defs>
		<rect id="SVGID_49_" width="633.188" height="799.023"/>
	</defs>
	<clipPath id="SVGID_2_">
		<use xlink:href="#SVGID_49_"  overflow="visible"/>
	</clipPath>
	<g clip-path="url(#SVGID_2_)">
		<g>
			<g>
				<g>
					<path fill="#FFFFFF" d="M79.222,135.787c-4.553,10.764-7.26,22.072-8.086,33.713c1.795-1.461,4.08-2.34,6.568-2.34
						c2.748,0,5.244,1.077,7.109,2.818c3.668-47.797,43.611-85.437,92.351-85.437c3.776,0,6.836-3.062,6.836-6.838
						s-3.06-6.838-6.836-6.838c-14.345,0-28.269,2.813-41.385,8.359c-12.658,5.355-24.025,13.017-33.783,22.775
						C92.237,111.759,84.575,123.126,79.222,135.787z"/>
					<path fill="#FFFFFF" d="M169.595,269.486c-47.479-3.842-84.838-43.482-85.053-91.899c0-3.775-3.06-6.838-6.838-6.838
						c-3.775,0-6.838,3.063-6.838,6.838c0.055,14.197,2.861,27.978,8.355,40.964c5.354,12.659,13.016,24.027,22.775,33.784
						c9.758,9.76,21.125,17.422,33.783,22.777c10.629,4.494,21.787,7.193,33.271,8.055c-1.443-1.789-2.314-4.061-2.314-6.533
						C166.737,273.866,167.829,271.354,169.595,269.486z"/>
					<path fill="#FFFFFF" d="M251.265,243.707c-1.334-1.335-3.084-2.003-4.834-2.003s-3.5,0.668-4.836,2.003
						c-16.672,16.146-39.389,26.089-64.43,26.089c-3.777,0-6.838,3.062-6.838,6.838s3.061,6.838,6.838,6.838
						c14.344,0,28.266-2.813,41.381-8.359c12.205-5.161,23.201-12.475,32.719-21.734
						C253.937,250.708,253.937,246.378,251.265,243.707z"/>
					<path fill="#FFFFFF" d="M177.165,283.472c-3.777,0-6.838-3.062-6.838-6.838s3.061-6.838,6.838-6.838
						c25.041,0,47.758-9.943,64.43-26.089c1.336-1.335,3.086-2.003,4.836-2.003s3.5,0.668,4.834,2.003
						c2.672,2.671,2.672,7.001,0,9.671c-9.518,9.26-20.514,16.573-32.719,21.734C205.431,280.659,191.509,283.472,177.165,283.472z
						 M135.78,275.112c-12.658-5.355-24.025-13.018-33.783-22.777c-9.76-9.757-17.422-21.125-22.775-33.784
						c-5.494-12.986-8.301-26.767-8.355-40.964c0-3.775,3.063-6.838,6.838-6.838c3.777,0,6.838,3.063,6.838,6.838
						c0.215,48.417,37.574,88.058,85.053,91.899c-1.766,1.868-2.857,4.38-2.857,7.147c0,2.473,0.871,4.744,2.314,6.533
						C157.567,282.306,146.409,279.606,135.78,275.112z M177.165,70.866c3.776,0,6.836,3.062,6.836,6.838s-3.06,6.838-6.836,6.838
						c-48.74,0-88.683,37.64-92.351,85.437c-1.865-1.741-4.361-2.818-7.109-2.818c-2.488,0-4.773,0.879-6.568,2.34
						c0.826-11.641,3.533-22.949,8.086-33.713c5.354-12.661,13.016-24.028,22.775-33.786c9.758-9.759,21.125-17.42,33.783-22.775
						C148.896,73.679,162.819,70.866,177.165,70.866z"/>
				</g>
				<g>
					<g>
						<g>
							<path fill="#FFFFFF" d="M233.458,120.875c-15.035-15.036-35.029-23.315-56.293-23.315c-21.265,0-41.258,8.279-56.293,23.315
								c-15.037,15.037-23.318,35.029-23.318,56.294s8.281,41.256,23.318,56.293c15.035,15.035,35.027,23.318,56.293,23.318
								c21.264,0,41.258-8.283,56.293-23.318c15.037-15.037,23.317-35.028,23.317-56.293S248.495,135.912,233.458,120.875z"/>
							<path fill="#333E48" d="M121.06,202.914v-51.489h11.166v3.806h-6.473v43.877h6.473v3.807H121.06z"/>
							<path fill="#333E48" d="M233.271,151.425v51.489h-11.164v-3.807h6.469V155.23h-6.469v-3.806H233.271z"/>
							<path fill="#00C2F3" d="M146.995,187.629c0,1.028,0.016,2.242,0.047,3.636c0.031,1.395,0.076,2.812,0.129,4.248
								c0.055,1.438,0.117,2.812,0.193,4.12c0.074,1.309,0.166,2.402,0.273,3.281h-6.598v-36.366c0-3.131-0.053-5.969-0.16-8.511
								c-0.107-2.543-0.268-4.747-0.484-6.612h6.6V187.629z"/>
							<path fill="#00C2F3" d="M175.798,170.089v4.217h-6.051v24.394h6.051v4.216h-18.021v-4.216h5.953v-24.394h-5.953v-4.217
								H175.798z"/>
							<path fill="#00C2F3" d="M189.315,170.089c0.127,0.344,0.256,0.788,0.385,1.337c0.131,0.546,0.246,1.12,0.355,1.721
								c0.105,0.601,0.201,1.191,0.289,1.771l0.256,1.446c2.061-2.444,4.131-4.209,6.211-5.293c2.082-1.083,4.25-1.625,6.502-1.625
								c1.717,0,3.234,0.284,4.553,0.853c1.32,0.57,2.432,1.471,3.332,2.703c0.9,1.234,1.58,2.834,2.043,4.796
								c0.463,1.964,0.691,4.327,0.691,7.097v14.48c0,3.626-0.316,6.637-0.949,9.027c-0.631,2.394-1.518,4.303-2.654,5.73
								c-1.137,1.425-2.506,2.434-4.104,3.023s-3.373,0.886-5.326,0.886c-0.965,0-2-0.156-3.105-0.467
								c-1.104-0.312-2.107-0.745-3.008-1.304l2.092-4.828c0.492,0.365,1.152,0.671,1.979,0.918
								c0.826,0.246,1.668,0.369,2.525,0.369c1.031,0,1.953-0.165,2.77-0.498c0.814-0.332,1.506-0.916,2.074-1.753
								s1.004-1.985,1.305-3.444c0.299-1.459,0.449-3.314,0.449-5.567v-14.16c0-2.575-0.135-4.661-0.402-6.259
								c-0.268-1.6-0.672-2.844-1.207-3.734c-0.535-0.89-1.207-1.484-2.012-1.787c-0.805-0.299-1.742-0.449-2.817-0.449
								c-1.158,0-2.287,0.273-3.392,0.822c-1.105,0.545-2.121,1.254-3.043,2.123c-0.922,0.867-1.738,1.85-2.445,2.944
								s-1.234,2.188-1.578,3.282v18.666h-5.953v-19.792c0-3.175-0.182-5.862-0.547-8.062c-0.363-2.199-0.719-3.857-1.062-4.973
								H189.315z"/>
						</g>
					</g>
				</g>
			</g>
		</g>
		<g>
			<path fill="#FFFFFF" d="M107.456,426.163v-67.756h8.154v60.572h28.83v7.184H107.456z"/>
			<path fill="#FFFFFF" d="M159.194,364.329c-1.684,0-2.896-0.403-3.641-1.213c-0.744-0.809-1.115-1.859-1.115-3.155v-1.263
				c0-1.293,0.371-2.344,1.115-3.154c0.744-0.809,1.957-1.213,3.641-1.213c1.681,0,2.896,0.404,3.64,1.213
				c0.743,0.811,1.116,1.861,1.116,3.154v1.263c0,1.296-0.373,2.347-1.116,3.155C162.091,363.926,160.876,364.329,159.194,364.329z
				 M155.312,376.075h7.766v50.088h-7.766V376.075z"/>
			<path fill="#FFFFFF" d="M179.579,426.163v-50.088h7.766v8.061h0.389c1.229-2.817,2.961-5.061,5.193-6.727
				c2.232-1.665,5.225-2.499,8.979-2.499c5.177,0,9.271,1.667,12.28,4.999c3.009,3.334,4.514,8.041,4.514,14.124v32.13h-7.766
				v-30.838c0-9.016-3.786-13.523-11.357-13.523c-1.554,0-3.058,0.195-4.515,0.584c-1.455,0.39-2.766,0.974-3.931,1.752
				c-1.165,0.777-2.087,1.767-2.767,2.967c-0.68,1.199-1.02,2.609-1.02,4.231v34.827H179.579z"/>
			<path fill="#FFFFFF" d="M274.515,424.513c0,6.924-1.941,12.36-5.824,16.309c-3.883,3.946-9.353,5.922-16.405,5.922
				c-4.077,0-7.589-0.635-10.532-1.901c-2.945-1.27-5.387-2.942-7.328-5.022l4.562-5.362c1.683,1.731,3.624,3.065,5.824,3.997
				c2.199,0.931,4.757,1.396,7.669,1.396c4.529,0,8.04-1.252,10.531-3.752c2.491-2.505,3.738-6.193,3.738-11.068v-6.928h-0.388
				c-1.489,3.075-3.431,5.381-5.824,6.918c-2.395,1.539-5.339,2.308-8.834,2.308c-3.105,0-5.921-0.616-8.445-1.845
				c-2.523-1.229-4.658-2.976-6.406-5.241c-1.747-2.265-3.105-5.015-4.076-8.251c-0.971-3.235-1.457-6.859-1.457-10.872
				c0-4.012,0.486-7.636,1.457-10.872c0.971-3.235,2.329-5.985,4.076-8.251c1.748-2.265,3.883-4.012,6.406-5.242
				c2.524-1.229,5.34-1.844,8.445-1.844c3.495,0,6.488,0.753,8.979,2.258c2.491,1.507,4.384,3.829,5.679,6.968h0.388v-8.061h7.766
				V424.513z M254.032,420.437c1.748,0,3.397-0.229,4.951-0.684c1.553-0.455,2.895-1.122,4.027-2
				c1.133-0.877,2.039-1.951,2.719-3.219s1.019-2.748,1.019-4.439V391.46c0-1.365-0.324-2.649-0.97-3.854
				c-0.648-1.203-1.554-2.227-2.719-3.072c-1.164-0.846-2.523-1.512-4.076-2c-1.554-0.488-3.203-0.732-4.951-0.732
				c-4.401,0-7.896,1.398-10.483,4.195c-2.589,2.797-3.883,6.406-3.883,10.83v8.584c0,4.423,1.294,8.033,3.883,10.83
				C246.136,419.038,249.631,420.437,254.032,420.437z"/>
			<path fill="#FFFFFF" d="M321.884,418.103h-0.389c-0.518,1.154-1.148,2.291-1.893,3.412s-1.666,2.114-2.766,2.979
				c-1.102,0.865-2.428,1.554-3.98,2.066c-1.553,0.512-3.365,0.769-5.436,0.769c-5.179,0-9.287-1.665-12.328-4.999
				c-3.043-3.332-4.563-8.04-4.563-14.124v-32.13h7.766v30.838c0,9.016,3.817,13.523,11.454,13.523c1.554,0,3.058-0.194,4.514-0.584
				c1.456-0.389,2.75-0.973,3.883-1.75c1.132-0.779,2.038-1.768,2.718-2.968c0.68-1.199,1.02-2.644,1.02-4.33v-34.729h7.766v50.088
				h-7.766V418.103z"/>
			<path fill="#FFFFFF" d="M350.034,364.329c-1.684,0-2.897-0.403-3.641-1.213c-0.744-0.809-1.116-1.859-1.116-3.155v-1.263
				c0-1.293,0.372-2.344,1.116-3.154c0.743-0.809,1.957-1.213,3.641-1.213c1.682,0,2.895,0.404,3.64,1.213
				c0.743,0.811,1.116,1.861,1.116,3.154v1.263c0,1.296-0.373,2.347-1.116,3.155C352.929,363.926,351.716,364.329,350.034,364.329z
				 M346.151,376.075h7.765v50.088h-7.765V376.075z"/>
			<path fill="#FFFFFF" d="M385.465,427.328c-4.659,0-8.56-0.89-11.697-2.669c-3.14-1.779-5.841-4.158-8.105-7.135l5.533-4.466
				c1.941,2.46,4.108,4.353,6.504,5.679c2.394,1.327,5.177,1.99,8.349,1.99c3.3,0,5.872-0.712,7.717-2.136
				c1.844-1.423,2.766-3.43,2.766-6.019c0-1.941-0.631-3.606-1.893-4.999c-1.262-1.392-3.543-2.345-6.844-2.863l-3.979-0.583
				c-2.329-0.323-4.466-0.824-6.407-1.504s-3.64-1.586-5.096-2.719c-1.456-1.131-2.589-2.539-3.397-4.223
				c-0.81-1.682-1.214-3.688-1.214-6.018c0-2.459,0.453-4.611,1.359-6.455c0.906-1.846,2.151-3.381,3.737-4.611
				c1.585-1.229,3.478-2.15,5.679-2.767c2.199-0.614,4.563-0.922,7.086-0.922c4.077,0,7.49,0.712,10.241,2.136
				c2.75,1.424,5.16,3.396,7.231,5.921l-5.145,4.659c-1.102-1.553-2.718-2.961-4.854-4.223c-2.135-1.262-4.821-1.893-8.057-1.893
				c-3.236,0-5.679,0.695-7.329,2.087c-1.65,1.392-2.476,3.285-2.476,5.679c0,2.46,0.826,4.239,2.476,5.339
				c1.65,1.102,4.028,1.909,7.135,2.427l3.883,0.582c5.566,0.842,9.513,2.443,11.843,4.805c2.33,2.363,3.494,5.453,3.494,9.271
				c0,4.854-1.65,8.672-4.95,11.454C395.755,425.938,391.224,427.328,385.465,427.328z"/>
			<path fill="#FFFFFF" d="M428.08,426.163c-2.718,0-4.772-0.758-6.164-2.275c-1.391-1.516-2.087-3.503-2.087-5.957v-34.964h-8.251
				v-6.892h4.659c1.682,0,2.83-0.34,3.446-1.02c0.614-0.68,0.922-1.859,0.922-3.543v-9.319h6.989v13.882h10.969v6.892h-10.969
				v36.305h10.192v6.892H428.08z"/>
			<path fill="#FFFFFF" d="M454.969,364.329c-1.684,0-2.897-0.403-3.64-1.213c-0.745-0.809-1.117-1.859-1.117-3.155v-1.263
				c0-1.293,0.372-2.344,1.117-3.154c0.742-0.809,1.956-1.213,3.64-1.213c1.683,0,2.896,0.404,3.64,1.213
				c0.744,0.811,1.117,1.861,1.117,3.154v1.263c0,1.296-0.373,2.347-1.117,3.155C457.864,363.926,456.651,364.329,454.969,364.329z
				 M451.086,376.075h7.766v50.088h-7.766V376.075z"/>
			<path fill="#FFFFFF" d="M493.991,427.328c-3.494,0-6.635-0.616-9.416-1.845c-2.783-1.229-5.129-2.976-7.037-5.241
				c-1.91-2.265-3.366-5.015-4.369-8.251c-1.004-3.235-1.504-6.859-1.504-10.872c0-4.012,0.5-7.636,1.504-10.872
				c1.003-3.235,2.459-5.985,4.369-8.251c1.908-2.265,4.254-4.012,7.037-5.242c2.781-1.229,5.922-1.844,9.416-1.844
				c4.982,0,8.979,1.084,11.988,3.251c3.01,2.17,5.258,5,6.746,8.494l-6.504,3.301c-0.906-2.588-2.395-4.595-4.465-6.019
				c-2.072-1.423-4.659-2.136-7.766-2.136c-2.33,0-4.368,0.373-6.115,1.116c-1.748,0.745-3.203,1.78-4.369,3.106
				c-1.164,1.327-2.038,2.912-2.62,4.756c-0.583,1.846-0.874,3.868-0.874,6.067v8.542c0,4.402,1.18,8.009,3.543,10.824
				c2.361,2.814,5.84,4.223,10.436,4.223c6.276,0,10.807-2.912,13.59-8.736l5.631,3.785c-1.619,3.625-4.029,6.504-7.232,8.64
				S498.78,427.328,493.991,427.328z"/>
			<path fill="#FFFFFF" d="M539.226,427.328c-4.66,0-8.559-0.89-11.697-2.669c-3.14-1.779-5.841-4.158-8.105-7.135l5.533-4.466
				c1.941,2.46,4.109,4.353,6.504,5.679c2.393,1.327,5.176,1.99,8.348,1.99c3.301,0,5.873-0.712,7.717-2.136
				c1.846-1.423,2.768-3.43,2.768-6.019c0-1.941-0.631-3.606-1.893-4.999c-1.263-1.392-3.544-2.345-6.844-2.863l-3.98-0.583
				c-2.33-0.323-4.465-0.824-6.406-1.504s-3.641-1.586-5.097-2.719c-1.456-1.131-2.589-2.539-3.397-4.223
				c-0.811-1.682-1.213-3.688-1.213-6.018c0-2.459,0.451-4.611,1.358-6.455c0.905-1.846,2.151-3.381,3.737-4.611
				c1.585-1.229,3.479-2.15,5.679-2.767c2.199-0.614,4.563-0.922,7.087-0.922c4.076,0,7.488,0.712,10.24,2.136
				c2.75,1.424,5.16,3.396,7.232,5.921l-5.146,4.659c-1.101-1.553-2.718-2.961-4.854-4.223s-4.821-1.893-8.057-1.893
				c-3.237,0-5.679,0.695-7.329,2.087s-2.475,3.285-2.475,5.679c0,2.46,0.824,4.239,2.475,5.339c1.65,1.102,4.029,1.909,7.135,2.427
				l3.883,0.582c5.564,0.842,9.514,2.443,11.843,4.805c2.329,2.363,3.495,5.453,3.495,9.271c0,4.854-1.65,8.672-4.951,11.454
				C549.515,425.938,544.984,427.328,539.226,427.328z"/>
			<path fill="#FFFFFF" d="M126.482,543.813c-5.501,0-10.192-1.053-14.075-3.154c-3.883-2.103-7.184-5-9.901-8.688l6.019-5.048
				c2.392,3.172,5.047,5.582,7.959,7.232s6.342,2.475,10.291,2.475c4.854,0,8.557-1.164,11.113-3.494s3.835-5.436,3.835-9.318
				c0-3.235-0.971-5.728-2.912-7.475c-1.941-1.748-5.146-3.139-9.61-4.175l-5.533-1.262c-6.213-1.423-10.953-3.575-14.22-6.455
				c-3.269-2.879-4.902-6.94-4.902-12.183c0-2.976,0.549-5.63,1.65-7.959c1.1-2.33,2.637-4.271,4.611-5.824
				c1.973-1.554,4.334-2.734,7.086-3.544c2.75-0.809,5.775-1.214,9.076-1.214c5.111,0,9.496,0.939,13.153,2.816
				c3.655,1.877,6.746,4.627,9.271,8.25l-6.115,4.466c-1.879-2.588-4.143-4.626-6.795-6.116c-2.654-1.487-5.955-2.232-9.902-2.232
				c-4.336,0-7.75,0.922-10.24,2.767c-2.492,1.845-3.738,4.611-3.738,8.3c0,3.236,1.052,5.679,3.156,7.328
				c2.102,1.65,5.289,2.962,9.561,3.933l5.533,1.262c6.664,1.489,11.486,3.754,14.463,6.795c2.977,3.042,4.466,7.086,4.466,12.134
				c0,3.106-0.534,5.921-1.602,8.445c-1.067,2.523-2.606,4.659-4.61,6.406c-2.008,1.748-4.451,3.106-7.329,4.077
				C133.358,543.328,130.106,543.813,126.482,543.813z"/>
			<path fill="#FFFFFF" d="M182.007,543.813c-3.366,0-6.44-0.615-9.223-1.844c-2.783-1.229-5.161-2.993-7.135-5.291
				c-1.975-2.296-3.511-5.047-4.61-8.251c-1.101-3.203-1.649-6.811-1.649-10.823c0-3.946,0.549-7.538,1.649-10.775
				c1.1-3.234,2.636-6.002,4.61-8.299c1.973-2.297,4.351-4.061,7.135-5.291c2.782-1.229,5.856-1.844,9.223-1.844
				c3.363,0,6.422,0.615,9.173,1.844c2.75,1.23,5.128,2.994,7.135,5.291c2.005,2.297,3.558,5.064,4.659,8.299
				c1.1,3.237,1.65,6.829,1.65,10.775c0,4.013-0.551,7.62-1.65,10.823c-1.101,3.204-2.654,5.955-4.659,8.251
				c-2.007,2.298-4.385,4.063-7.135,5.291C188.429,543.198,185.37,543.813,182.007,543.813z M182.007,536.921
				c4.205,0,7.635-1.293,10.289-3.883c2.652-2.587,3.98-6.535,3.98-11.842v-7.184c0-5.306-1.328-9.254-3.98-11.843
				c-2.654-2.587-6.084-3.883-10.289-3.883c-4.207,0-7.637,1.296-10.29,3.883c-2.654,2.589-3.979,6.537-3.979,11.843v7.184
				c0,5.307,1.325,9.255,3.979,11.842C174.37,535.628,177.8,536.921,182.007,536.921z"/>
			<path fill="#FFFFFF" d="M236.075,543.813c-3.494,0-6.635-0.615-9.416-1.844c-2.783-1.229-5.13-2.977-7.037-5.242
				c-1.91-2.265-3.366-5.015-4.369-8.251c-1.004-3.235-1.504-6.859-1.504-10.872c0-4.012,0.5-7.636,1.504-10.872
				c1.003-3.235,2.459-5.985,4.369-8.251c1.907-2.265,4.254-4.012,7.037-5.242c2.781-1.229,5.922-1.844,9.416-1.844
				c4.982,0,8.979,1.084,11.988,3.252c3.009,2.168,5.257,4.999,6.746,8.493l-6.504,3.301c-0.906-2.588-2.395-4.595-4.465-6.019
				c-2.072-1.423-4.66-2.136-7.766-2.136c-2.33,0-4.369,0.373-6.115,1.116c-1.748,0.744-3.203,1.781-4.369,3.106
				c-1.164,1.327-2.038,2.912-2.621,4.757c-0.582,1.844-0.873,3.867-0.873,6.066v8.543c0,4.401,1.18,8.008,3.543,10.823
				c2.361,2.815,5.84,4.222,10.436,4.222c6.275,0,10.807-2.912,13.59-8.736l5.63,3.786c-1.618,3.625-4.028,6.504-7.231,8.64
				C244.86,542.745,240.863,543.813,236.075,543.813z"/>
			<path fill="#FFFFFF" d="M270.146,480.814c-1.684,0-2.897-0.403-3.64-1.214c-0.745-0.809-1.116-1.859-1.116-3.154v-1.262
				c0-1.294,0.371-2.346,1.116-3.155c0.743-0.809,1.956-1.214,3.64-1.214c1.683,0,2.896,0.405,3.641,1.214
				c0.743,0.81,1.116,1.861,1.116,3.155v1.262c0,1.295-0.373,2.346-1.116,3.154C273.042,480.411,271.828,480.814,270.146,480.814z
				 M266.263,492.56h7.766v50.089h-7.766V492.56z"/>
			<path fill="#FFFFFF" d="M309.362,543.813c-3.43,0-6.52-0.615-9.27-1.844c-2.752-1.229-5.113-2.993-7.086-5.291
				c-1.976-2.296-3.495-5.047-4.563-8.251c-1.069-3.203-1.602-6.811-1.602-10.823c0-3.946,0.533-7.538,1.602-10.775
				c1.067-3.234,2.587-6.002,4.563-8.299c1.973-2.297,4.334-4.061,7.086-5.291c2.75-1.229,5.84-1.844,9.27-1.844
				c3.365,0,6.373,0.612,9.027,1.838s4.918,2.92,6.795,5.08c1.877,2.159,3.316,4.723,4.32,7.689c1.002,2.967,1.505,6.223,1.505,9.77
				v3.676h-36.014v2.33c0,2.136,0.34,4.125,1.02,5.971c0.679,1.844,1.649,3.445,2.912,4.805c1.262,1.358,2.815,2.426,4.659,3.203
				c1.844,0.776,3.932,1.164,6.262,1.164c3.17,0,5.936-0.742,8.299-2.232c2.361-1.487,4.189-3.623,5.484-6.406l5.533,4.006
				c-1.618,3.452-4.142,6.235-7.571,8.352C318.163,542.755,314.086,543.813,309.362,543.813z M309.362,497.899
				c-2.135,0-4.076,0.369-5.824,1.109c-1.747,0.74-3.252,1.785-4.514,3.136c-1.262,1.35-2.249,2.942-2.961,4.774
				c-0.713,1.834-1.067,3.844-1.067,6.03v0.675h27.665v-1.062c0-4.438-1.213-7.989-3.64-10.659S313.374,497.899,309.362,497.899z"/>
			<path fill="#FFFFFF" d="M354.889,542.648c-2.718,0-4.772-0.758-6.164-2.274c-1.392-1.518-2.087-3.504-2.087-5.958v-34.964h-8.251
				v-6.893h4.659c1.682,0,2.83-0.34,3.446-1.02c0.614-0.679,0.922-1.859,0.922-3.542v-9.319h6.989v13.881h10.969v6.893h-10.969
				v36.305h10.192v6.892H354.889z"/>
			<path fill="#FFFFFF" d="M408.763,492.56h7.669l-22.423,61.738c-0.583,1.487-1.166,2.732-1.748,3.736
				c-0.582,1.003-1.295,1.797-2.135,2.379c-0.842,0.582-1.893,1.002-3.155,1.262c-1.263,0.258-2.8,0.389-4.61,0.389h-3.98v-6.893
				h7.863l3.785-10.661l-18.734-51.95h7.766l12.037,34.007l2.329,8.14h0.485l2.718-8.14L408.763,492.56z"/>
			<g>
				<path fill="#FFFFFF" d="M120.862,637.562l-2.415-7.679h-10.699l-2.373,7.679h-5.781l10.096-30.112h7.074l10.009,30.112H120.862z
					 M113.184,612.627h-0.216l-3.839,12.381h7.938L113.184,612.627z"/>
				<path fill="#FFFFFF" d="M151.189,637.562l-2.416-7.679h-10.699l-2.372,7.679h-5.781l10.095-30.112h7.076l10.008,30.112H151.189z
					 M143.51,612.627h-0.215l-3.84,12.381h7.938L143.51,612.627z"/>
				<path fill="#FFFFFF" d="M180.654,624.836h-12.554v12.726h-5.694v-30.112h5.694v12.338h12.554v-12.338h5.695v30.112h-5.695
					V624.836z"/>
				<path fill="#FFFFFF" d="M203.993,623.93l-4.012,4.746v8.886h-5.694v-30.112h5.694v14.841h0.216l4.271-5.65l7.464-9.19h6.557
					l-10.482,12.554l11.346,17.559h-6.773L203.993,623.93z"/>
				<path fill="#FFFFFF" d="M229.791,607.449v18.508c0,2.359,0.453,4.127,1.36,5.307s2.438,1.769,4.594,1.769
					c2.158,0,3.689-0.589,4.596-1.769c0.905-1.18,1.358-2.947,1.358-5.307v-18.508h5.608v17.775c0,2.215-0.209,4.127-0.625,5.736
					c-0.418,1.611-1.086,2.949-2.006,4.014c-0.922,1.063-2.123,1.848-3.604,2.351c-1.481,0.502-3.271,0.754-5.371,0.754
					c-2.129,0-3.918-0.252-5.371-0.754c-1.452-0.503-2.639-1.287-3.559-2.351c-0.921-1.064-1.582-2.402-1.984-4.014
					c-0.403-1.609-0.604-3.521-0.604-5.736v-17.775H229.791z"/>
				<path fill="#FFFFFF" d="M264.391,638.079c-2.589,0-4.782-0.46-6.58-1.382c-1.797-0.922-3.343-2.132-4.637-3.631l3.839-3.715
					c1.036,1.197,2.192,2.111,3.474,2.738c1.279,0.629,2.695,0.942,4.248,0.942c1.754,0,3.078-0.378,3.97-1.134
					c0.892-0.757,1.337-1.776,1.337-3.061c0-1-0.287-1.813-0.862-2.441c-0.575-0.627-1.654-1.084-3.235-1.37l-2.848-0.427
					c-6.012-0.951-9.017-3.874-9.017-8.77c0-1.354,0.251-2.576,0.755-3.67c0.503-1.096,1.23-2.031,2.179-2.809
					c0.95-0.777,2.093-1.375,3.431-1.793c1.337-0.417,2.854-0.626,4.551-0.626c2.271,0,4.256,0.375,5.953,1.124
					c1.697,0.75,3.149,1.857,4.357,3.328l-3.883,3.675c-0.748-0.912-1.654-1.654-2.718-2.225c-1.064-0.569-2.401-0.855-4.013-0.855
					c-1.639,0-2.868,0.307-3.688,0.92c-0.82,0.612-1.23,1.476-1.23,2.587c0,1.141,0.33,1.981,0.992,2.523
					c0.662,0.541,1.727,0.941,3.193,1.197l2.804,0.518c3.048,0.548,5.299,1.52,6.751,2.916c1.453,1.396,2.18,3.347,2.18,5.852
					c0,1.44-0.253,2.742-0.756,3.909c-0.503,1.165-1.236,2.173-2.2,3.022s-2.143,1.504-3.536,1.966
					C267.805,637.85,266.202,638.079,264.391,638.079z"/>
				<path fill="#FFFFFF" d="M287.643,607.449v18.508c0,2.359,0.453,4.127,1.359,5.307c0.906,1.18,2.438,1.769,4.594,1.769
					c2.157,0,3.688-0.589,4.595-1.769c0.905-1.18,1.358-2.947,1.358-5.307v-18.508h5.608v17.775c0,2.215-0.208,4.127-0.625,5.736
					c-0.418,1.611-1.086,2.949-2.007,4.014c-0.92,1.063-2.121,1.848-3.602,2.351c-1.482,0.502-3.272,0.754-5.371,0.754
					c-2.129,0-3.92-0.252-5.371-0.754c-1.453-0.503-2.639-1.287-3.559-2.351c-0.922-1.064-1.582-2.402-1.984-4.014
					c-0.404-1.609-0.604-3.521-0.604-5.736v-17.775H287.643z"/>
			</g>
		</g>
		<text transform="matrix(1.0154 0 0 1 97.5576 728.0889)" fill="#FFFFFF" font-family="'FiraSans-Bold'" font-size="30">Session 2017–2018</text>
	</g>
</g>
</svg>
