<?xml version="1.0" encoding="utf-8"?>
<!-- Generator: Adobe Illustrator 16.0.0, SVG Export Plug-In . SVG Version: 6.00 Build 0)  -->
<!DOCTYPE svg PUBLIC "-//W3C//DTD SVG 1.0//EN" "http://www.w3.org/TR/2001/REC-SVG-20010904/DTD/svg10.dtd">
<svg version="1.0" id="Logotypes" xmlns="http://www.w3.org/2000/svg" xmlns:xlink="http://www.w3.org/1999/xlink" x="0px" y="0px"
	 width="2893.976px" height="708.662px" viewBox="0 0 2893.976 708.662" enable-background="new 0 0 2893.976 708.662"
	 xml:space="preserve">
<g>
	<defs>
		<rect id="SVGID_7_" x="-0.001" y="0.005" width="2893.975" height="708.663"/>
	</defs>
	<clipPath id="SVGID_2_">
		<use xlink:href="#SVGID_7_"  overflow="visible"/>
	</clipPath>
	<g clip-path="url(#SVGID_2_)">
		<g>
			<g>
				<g>
					<path fill="#EE202E" d="M1095.173,341.497c7.555,0,13.676,6.123,13.676,13.676c0-0.279-0.01-0.558-0.01-0.838
						c0-102.311,82.936-185.248,185.248-185.248c7.553,0,13.674-6.12,13.674-13.676c0-7.551-6.121-13.674-13.674-13.674
						c-28.688,0-56.535,5.625-82.764,16.719c-25.318,10.71-48.051,26.033-67.564,45.549c-19.518,19.518-34.844,42.25-45.553,67.568
						c-11.094,26.229-16.719,54.072-16.719,82.762c0,0.28,0.01,0.559,0.01,0.838C1081.497,347.62,1087.62,341.497,1095.173,341.497z
						"/>
					<path fill="#46BC96" d="M1280.411,553.259c0-7.553,6.123-13.675,13.676-13.675c-102.031,0-184.785-82.487-185.238-184.411
						c0-7.553-6.121-13.676-13.676-13.676c-7.553,0-13.676,6.123-13.676,13.676c0.109,28.394,5.725,55.951,16.709,81.924
						c10.709,25.319,26.035,48.054,45.553,67.566c19.514,19.521,42.246,34.844,67.564,45.554
						c26.229,11.093,54.076,16.718,82.764,16.718C1286.534,566.935,1280.411,560.812,1280.411,553.259z"/>
					<path fill="#00C2F3" d="M1442.284,487.407c-5.34-5.339-13.996-5.339-19.34,0c-33.342,32.292-78.775,52.177-128.857,52.177
						c-7.553,0-13.676,6.122-13.676,13.675s6.123,13.676,13.676,13.676c28.689,0,56.533-5.625,82.762-16.718
						c24.408-10.323,46.4-24.948,65.436-43.467C1447.628,501.409,1447.628,492.75,1442.284,487.407z"/>
				</g>
				<g>
					<path fill="#00C2F3" d="M1406.669,241.753c-30.068-30.072-70.053-46.63-112.582-46.63c-42.527,0-82.512,16.559-112.582,46.63
						c-30.07,30.072-46.635,70.055-46.635,112.582c0,42.53,16.564,82.51,46.635,112.583c30.07,30.071,70.055,46.634,112.582,46.634
						c42.529,0,82.514-16.563,112.582-46.634c30.072-30.073,46.631-70.053,46.631-112.583
						C1453.3,311.808,1436.741,271.825,1406.669,241.753z"/>
					<path fill="#333E48" d="M1181.88,405.825V302.847h22.332v7.613h-12.943v87.752h12.943v7.613H1181.88z"/>
					<path fill="#333E48" d="M1406.296,302.847v102.979h-22.33v-7.613h12.939V310.46h-12.939v-7.613H1406.296z"/>
					<path fill="#FFFFFF" d="M1233.749,375.255c0,2.057,0.031,4.484,0.094,7.271c0.064,2.79,0.152,5.624,0.26,8.496
						c0.107,2.876,0.234,5.623,0.387,8.238c0.148,2.619,0.332,4.808,0.545,6.564h-13.191v-72.73c0-6.263-0.107-11.938-0.322-17.021
						c-0.215-5.086-0.537-9.496-0.967-13.227h13.195V375.255z"/>
					<path fill="#FFFFFF" d="M1291.353,340.175v8.434h-12.1v48.787h12.1v8.43h-36.041v-8.43h11.906v-48.787h-11.906v-8.434H1291.353
						z"/>
					<path fill="#FFFFFF" d="M1318.386,340.175c0.258,0.69,0.516,1.578,0.771,2.675c0.262,1.093,0.492,2.239,0.709,3.44
						c0.213,1.201,0.406,2.383,0.58,3.542l0.512,2.892c4.121-4.889,8.26-8.418,12.422-10.584c4.164-2.166,8.5-3.25,13.004-3.25
						c3.432,0,6.469,0.566,9.105,1.703c2.641,1.142,4.861,2.942,6.664,5.407c1.799,2.469,3.162,5.668,4.086,9.591
						c0.924,3.928,1.385,8.654,1.385,14.194v28.958c0,7.254-0.635,13.274-1.902,18.056c-1.262,4.786-3.035,8.603-5.307,11.46
						c-2.273,2.85-5.012,4.867-8.207,6.047c-3.197,1.182-6.748,1.771-10.652,1.771c-1.93,0-4-0.312-6.211-0.934
						c-2.209-0.625-4.215-1.492-6.018-2.607l4.184-9.653c0.986,0.728,2.307,1.339,3.959,1.836c1.65,0.489,3.336,0.737,5.049,0.737
						c2.063,0,3.908-0.332,5.539-0.998c1.631-0.664,3.014-1.832,4.15-3.506s2.006-3.97,2.607-6.886c0.6-2.921,0.9-6.632,0.9-11.135
						V374.61c0-5.148-0.268-9.322-0.805-12.52c-0.535-3.195-1.344-5.686-2.416-7.465c-1.07-1.781-2.412-2.971-4.023-3.574
						c-1.605-0.598-3.482-0.9-5.629-0.9c-2.316,0-4.576,0.548-6.787,1.645c-2.211,1.092-4.242,2.51-6.086,4.246
						c-1.846,1.736-3.475,3.697-4.891,5.89c-1.414,2.188-2.467,4.374-3.156,6.563v37.33h-11.904v-39.582
						c0-6.35-0.365-11.725-1.096-16.123c-0.729-4.398-1.439-7.713-2.125-9.945H1318.386z"/>
				</g>
			</g>
		</g>
		<g>
			<g>
				<path fill="#333E48" d="M201.222,379.624h-54.992v-9.13h54.992V379.624z M194.065,476.829h-9.422v-10.006h-21.982v10.006h-9.568
					V427.46h40.973V476.829z M193.626,398.467l-40.387,0.145v-9.127h40.387V398.467z M193.772,417.6h-40.533v-9.129h40.533V417.6z
					 M191.946,361.073l-37.1,0.146v-9.129h37.1V361.073z M184.644,457.841v-21.398h-22.129v21.398H184.644z M279.001,417.746
					l-78.947,0.146v-8.982h19.572l4.236-22.566h-18.258v-8.982h19.719l3.139-16.726h-27.971v-9.128h72.521v8.982h-34.691
					l-2.994,16.726h30.09l-3.141,31.548h16.725V417.746z M266.292,477.121h-9.42v-9.859h-36.955v9.859h-9.566v-49.516h55.941
					V477.121z M256.872,458.278v-21.69h-37.1v21.69H256.872z M255.411,386.196H233.72l-4.234,22.713h23.662L255.411,386.196z"/>
				<path fill="#333E48" d="M443.673,379.624H310.901v-9.13h132.771V379.624z M424.101,398.319h-94.943v-8.835h94.943V398.319z
					 M424.101,417.308h-94.943v-8.837h94.943V417.308z M420.667,477.121h-9.42v-10.298h-68.504v10.298h-9.422V427.46h87.346V477.121
					z M420.522,360.124l-86.471,0.219v-8.836h86.471V360.124z M411.247,457.841v-21.398h-68.504v21.398H411.247z"/>
				<path fill="#333E48" d="M608.347,450.684h-58.791v10.151c0,10.857-5.77,16.286-17.311,16.286h-9.713l-3.578-8.982h13.584
					c4.771,0,7.158-2.192,7.158-6.572v-10.883h-64.123v-9.129h64.123v-6.28c10.174-3.799,17.453-7.352,21.836-10.663h-55.943v-8.399
					h72.158v7.961c-7.598,5.161-16.994,10.444-28.191,15.848v1.534h58.791V450.684z M602.212,423.588h-8.766v-15.117H491.423v15.994
					h-9.57v-24.538h12.563v-44.551c6.912-0.681,14.486-3.967,22.715-9.858l4.82,6.719c-4.434,4.091-10.471,7.183-18.113,9.275v6.135
					h18.695v7.597h-18.695v7.959h18.695v7.448h-18.695v9.276h77.633v-9.276h-17.82v-7.303h17.82v-8.544h-17.674v-7.449h17.674
					v-7.961h-20.668v-8.836h29.943v49.223h11.467V423.588z M560.802,366.916l-5.111,6.28c-2.777-2.677-6.551-5.574-11.32-8.689
					c-3.943,3.312-8.375,6.354-13.293,9.128l-5.988-5.259c4.723-1.946,8.859-4.234,12.416-6.864
					c-5.941-2.239-10.736-3.797-14.389-4.674l3.727-6.72c5.402,1.364,10.832,3.117,16.285,5.258
					c3.457-3.259,6.354-6.596,8.691-10.005l6.135,4.895c-1.949,3.018-4.48,5.964-7.596,8.836
					C553.96,361.146,557.442,363.752,560.802,366.916z M561.677,393.5l-6.133,4.819c-3.943-3.019-8.035-5.525-12.27-7.521
					c-2.629,1.995-7.303,4.502-14.021,7.521l-5.551-4.382c6.279-2.969,10.783-5.551,13.512-7.741
					c-2.729-1.703-6.865-3.603-12.416-5.696l5.477-4.6c5.014,1.801,9.299,3.675,12.854,5.621c1.361-0.777,4.113-3.114,8.252-7.011
					l6.719,3.433c-2.482,3.214-5.256,5.868-8.324,7.961C553.815,387.755,557.782,390.286,561.677,393.5z"/>
				<path fill="#333E48" d="M772.872,450.684h-58.791v10.151c0,10.857-5.77,16.286-17.309,16.286h-9.713l-3.578-8.982h13.584
					c4.77,0,7.156-2.192,7.156-6.572v-10.883h-64.121v-9.129h64.121v-6.28c10.176-3.799,17.453-7.352,21.838-10.663h-55.943v-8.399
					h72.156v7.961c-7.596,5.161-16.994,10.444-28.191,15.848v1.534h58.791V450.684z M766.739,423.588h-8.768v-15.117H655.948v15.994
					h-9.566v-24.538h12.561v-44.551c6.914-0.681,14.484-3.967,22.713-9.858l4.82,6.719c-4.43,4.091-10.469,7.183-18.113,9.275v6.135
					h18.697v7.597h-18.697v7.959h18.697v7.448h-18.697v9.276h77.633v-9.276h-17.818v-7.303h17.818v-8.544h-17.674v-7.449h17.674
					v-7.961h-20.668v-8.836h29.943v49.223h11.469V423.588z M727.929,391.86l-6.654,6.084c-3.037-4.563-7.383-10.276-11.586-13.824
					c-6.533,7.28-11.906,11.913-16.105,13.894l-6.584-5.529c4.949-2.354,10.316-6.752,16.107-13.203
					c-6.584-4.1-11.275-6.637-14.076-7.604l5.744-5.941c2.334,0.922,6.719,3.315,13.166,7.189c1.916-3.135,3.406-6.568,4.48-10.301
					h-21.99v-8.64h11.789v-8.896h7.566v8.896h13.992v8.64h-2.77c-1.555,5.717-3.646,10.67-6.275,14.862
					C719.823,381.355,724.708,387.253,727.929,391.86z"/>
				<path fill="#333E48" d="M939.808,379.332l-5.258,7.595c-16.604-4.09-29.602-8.812-38.998-14.168v6.573h-49.371v-7.23
					c-14.217,7.352-26.973,12.148-38.27,14.387l-4.818-7.668c27.361-6.67,50.146-17.818,68.357-33.449l8.982,2.994
					c-0.975,1.219-1.826,2.07-2.557,2.556C894.04,364.36,914.685,373.83,939.808,379.332z M924.251,421.179H818.21v-34.252h106.041
					V421.179z M915.562,477.268h-8.982v-5.843H836.03v5.843h-8.982v-48.421h88.514V477.268z M866.849,413.292v-18.259h-39.656
					v18.259H866.849z M906.579,446.302v-9.421H836.03v9.421H906.579z M906.579,463.537v-9.567H836.03v9.567H906.579z
					 M857.136,406.061l-7.521,5.259c-4.527-4.575-8.959-7.959-13.293-10.151l7.596-4.382
					C849.077,398.977,853.483,402.069,857.136,406.061z M892.558,371.226c-7.061-3.699-13.902-8.69-20.523-14.973
					c-7.061,5.843-14.971,10.834-23.734,14.973H892.558z M915.271,413.292v-18.259h-39.438v18.259H915.271z M906.433,399.343
					c-2.873,4.576-7.207,8.472-13,11.685l-8.033-4.017c6.379-3.602,10.76-7.206,13.145-10.81L906.433,399.343z"/>
			</g>
			<g>
				<path fill="#333E48" d="M201.909,260.237l-2.789,3.212c-8.359-2.94-16.32-8.121-23.881-15.542l0.061,11.73h14.01v25.8h-3.811
					v-3.449h-24.27v3.449h-3.932v-25.8h14.07v-11.73c-4.119,6.301-11.561,11.23-22.32,14.792l-2.818-3.182
					c9.539-2.52,16.359-6.39,20.459-11.61h-17.07v-3.75h21.75v-5.789c-4.779,0.48-10.779,0.83-18,1.049l-2.58-3.631
					c17.061-0.06,30.682-1.489,40.861-4.289l2.881,2.881c-5.66,1.519-12.07,2.689-19.23,3.509v6.269h22.051v3.75l-17.191-0.06
					C186.521,253.368,193.771,257.498,201.909,260.237z M185.499,268.668v-5.28h-24.33v5.28H185.499z M185.499,278.299v-5.94h-24.33
					v5.94H185.499z"/>
				<path fill="#333E48" d="M217.511,262.998c-2.521,7.82-5.82,14.231-9.9,19.23l3.51,2.221c4.539-5.722,7.881-12.13,10.021-19.23
					L217.511,262.998z M211.181,246.348l-2.521,3.15c3.98,1.701,7.131,4.139,9.453,7.32l2.637-3.57
					C218.671,250.467,215.481,248.168,211.181,246.348z M214.12,232.909l-2.82,2.88c3.84,1.379,6.871,3.7,9.092,6.959l2.818-3.03
					C221.069,236.618,218.04,234.349,214.12,232.909z"/>
				<path fill="#333E48" d="M253.331,272.119v-11.312c2.379,2.241,4.939,4.08,7.682,5.521l2.461-3.331
					c-5.242-2.239-9.324-5.781-12.242-10.62h10.258v-3.689h-9.807v-7.171h7.408v-3.691h-7.408V231.5h-3.813v6.389h-11.129V231.5
					h-3.813v6.389h-7.377v3.689h7.439v7.169h-9.781v3.692h9.9c-2.219,4.159-6.23,7.621-12.029,10.378l2.818,3.332
					c1.715-0.996,3.295-2.075,4.74-3.239v16.08c0,3.439,1.721,5.159,5.16,5.159h19.65c1.602,0,2.867-0.531,3.795-1.589
					c0.932-1.06,1.656-3.15,2.176-6.27l-3.869-1.741c-0.262,2.5-0.639,4.1-1.141,4.799c-0.5,0.701-1.17,1.051-2.01,1.051h-18.301
					c-1.102,0-1.648-0.549-1.648-1.65v-6.629H253.331z M236.741,241.518h11.189v7.171h-11.189V241.518z M237.101,252.378H247.3
					c0.982,2.321,2.461,4.591,4.441,6.813H232.69C234.851,256.81,236.321,254.537,237.101,252.378z M232.452,262.878h17.07v5.61
					h-17.07V262.878z"/>
				<path fill="#333E48" d="M324.673,282.438l-2.789,3.119c-12.502-6.819-20.441-18.31-23.822-34.47
					c-4.18,16.421-12.699,27.91-25.559,34.47l-3.031-3.569c12.74-6.2,20.811-16.479,24.211-30.84h-20.4v-3.871h20.85
					c0.381-3.76,0.539-9.02,0.48-15.78l4.17,0.601c0.1,6.12-0.02,11.161-0.359,15.121h22.74v3.869h-18.93
					C304.632,264.788,312.112,275.238,324.673,282.438z"/>
				<path fill="#333E48" d="M385.845,274.638h-24.15v4.172c0,4.458-2.371,6.69-7.111,6.69h-3.99l-1.469-3.69h5.58
					c1.959,0,2.939-0.9,2.939-2.701v-4.471h-26.34v-3.75h26.34v-2.58c4.18-1.56,7.17-3.02,8.971-4.38h-22.98v-3.45h29.641v3.271
					c-3.121,2.12-6.98,4.29-11.58,6.511v0.629h24.15V274.638z M383.325,263.509h-3.6v-6.21h-41.912v6.568h-3.93v-10.079h5.16v-18.3
					c2.84-0.279,5.949-1.63,9.33-4.05l1.979,2.76c-1.818,1.681-4.299,2.95-7.439,3.811v2.52h7.68v3.121h-7.68v3.27h7.68v3.06h-7.68
					v3.811h31.891v-3.811h-7.32v-3h7.32v-3.509h-7.26v-3.061h7.26v-3.27h-8.49v-3.63h12.301v20.219h4.711V263.509z M366.313,240.229
					l-2.1,2.579c-1.141-1.1-2.689-2.289-4.65-3.57c-1.619,1.36-3.439,2.61-5.459,3.75l-2.461-2.159c1.939-0.8,3.641-1.74,5.1-2.82
					c-2.439-0.92-4.41-1.561-5.91-1.921l1.531-2.761c2.219,0.562,4.449,1.281,6.689,2.161c1.42-1.339,2.609-2.71,3.57-4.11
					l2.52,2.011c-0.801,1.239-1.84,2.45-3.119,3.63C363.503,237.857,364.933,238.928,366.313,240.229z M366.675,251.148
					l-2.521,1.979c-1.619-1.24-3.299-2.27-5.039-3.091c-1.08,0.821-3,1.851-5.76,3.091l-2.281-1.801
					c2.58-1.219,4.43-2.278,5.551-3.179c-1.121-0.701-2.82-1.48-5.1-2.341l2.248-1.89c2.061,0.739,3.822,1.511,5.281,2.31
					c0.561-0.32,1.689-1.278,3.391-2.88l2.76,1.411c-1.02,1.318-2.16,2.409-3.42,3.269
					C363.444,248.787,365.073,249.827,366.675,251.148z"/>
				<path fill="#333E48" d="M447.286,274.638h-24.15v4.172c0,4.458-2.371,6.69-7.111,6.69h-3.988l-1.471-3.69h5.58
					c1.959,0,2.939-0.9,2.939-2.701v-4.471h-26.34v-3.75h26.34v-2.58c4.18-1.56,7.17-3.02,8.971-4.38h-22.98v-3.45h29.641v3.271
					c-3.121,2.12-6.98,4.29-11.58,6.511v0.629h24.15V274.638z M444.767,263.509h-3.602v-6.21h-41.91v6.568h-3.93v-10.079h5.16v-18.3
					c2.84-0.279,5.949-1.63,9.33-4.05l1.98,2.76c-1.82,1.681-4.301,2.95-7.441,3.811v2.52h7.682v3.121h-7.682v3.27h7.682v3.06
					h-7.682v3.811h31.891v-3.811h-7.32v-3h7.32v-3.509h-7.26v-3.061h7.26v-3.27h-8.49v-3.63h12.301v20.219h4.711V263.509z
					 M427.755,240.229l-2.1,2.579c-1.141-1.1-2.691-2.289-4.65-3.57c-1.619,1.36-3.439,2.61-5.459,3.75l-2.461-2.159
					c1.939-0.8,3.641-1.74,5.1-2.82c-2.439-0.92-4.41-1.561-5.91-1.921l1.531-2.761c2.219,0.562,4.449,1.281,6.689,2.161
					c1.42-1.339,2.609-2.71,3.57-4.11l2.52,2.011c-0.801,1.239-1.84,2.45-3.119,3.63
					C424.946,237.857,426.376,238.928,427.755,240.229z M428.116,251.148l-2.521,1.979c-1.619-1.24-3.299-2.27-5.039-3.091
					c-1.08,0.821-3,1.851-5.762,3.091l-2.279-1.801c2.58-1.219,4.43-2.278,5.551-3.179c-1.121-0.701-2.82-1.48-5.1-2.341l2.25-1.89
					c2.059,0.739,3.818,1.511,5.279,2.31c0.561-0.32,1.689-1.278,3.391-2.88l2.76,1.411c-1.02,1.318-2.16,2.409-3.42,3.269
					C424.886,248.787,426.515,249.827,428.116,251.148z"/>
				<path fill="#333E48" d="M508.728,282.498h-54.602v-3.869h25.441v-14.071h-18.332v-3.87h18.332v-12.24h-13.592
					c-1.639,4.261-4.379,8.19-8.219,11.79l-3.961-2.069c6.561-6.06,10.209-13.48,10.951-22.26l4.049,1.169
					c-0.16,2.042-0.629,4.561-1.408,7.561h12.117v-13.14h4.053v13.08h21.18v3.87h-21.18v12.181h18.061v3.87h-18.061v14.07h25.17
					V282.498z"/>
				<path fill="#333E48" d="M571.159,245.327l-2.16,3.12c-6.82-1.68-12.16-3.619-16.02-5.819v2.699h-20.281v-2.969
					c-5.84,3.02-11.08,4.989-15.721,5.909l-1.979-3.15c11.238-2.74,20.6-7.32,28.08-13.74l3.689,1.23
					c-0.4,0.5-0.75,0.851-1.049,1.05C552.358,239.178,560.839,243.068,571.159,245.327z M564.771,262.519h-43.563v-14.071h43.563
					V262.519z M561.2,285.558h-3.691v-2.398h-28.98v2.398h-3.689v-19.89H561.2V285.558z M541.188,259.277v-7.5h-16.291v7.5H541.188z
					 M557.509,272.838v-3.869h-28.98v3.869H557.509z M557.509,279.918v-3.93h-28.98v3.93H557.509z M537.198,256.308l-3.09,2.161
					c-1.859-1.88-3.68-3.27-5.461-4.17l3.121-1.801C533.888,253.398,535.698,254.668,537.198,256.308z M551.749,241.998
					c-2.9-1.519-5.711-3.57-8.432-6.151c-2.898,2.4-6.148,4.451-9.748,6.151H551.749z M561.079,259.277v-7.5H544.88v7.5H561.079z
					 M557.448,253.549c-1.18,1.879-2.959,3.479-5.34,4.799l-3.299-1.648c2.619-1.48,4.42-2.962,5.398-4.44L557.448,253.549z"/>
				<path fill="#333E48" d="M632.241,281.628l-2.641,3.511c-10.18-3-18.441-7.039-24.779-12.121
					c-5.463,4.461-14.041,8.582-25.742,12.361l-2.939-3.569c11.32-3.141,19.881-6.951,25.682-11.432
					c-5.82-5.5-9.732-12.189-11.73-20.07c-1.08,2.78-2.563,5.42-4.441,7.92l-3.178-2.909c2.52-3,4.547-6.291,6.088-9.871h-10.32
					v-3.688h24.063v-10.261h3.869v10.2h24.48v3.69H620.39c-1.799,10.44-5.938,18.75-12.42,24.931
					C613.87,274.799,621.96,278.568,632.241,281.628z M616.37,245.388h-23.219c1.598,9.261,5.508,16.71,11.729,22.351
					C610.96,262.078,614.79,254.628,616.37,245.388z"/>
				<path fill="#333E48" d="M693.054,274.638h-24.152v4.172c0,4.458-2.369,6.69-7.109,6.69h-3.99l-1.469-3.69h5.578
					c1.961,0,2.941-0.9,2.941-2.701v-4.471h-26.34v-3.75h26.34v-2.58c4.18-1.56,7.17-3.02,8.969-4.38h-22.98v-3.45h29.641v3.271
					c-3.119,2.12-6.98,4.29-11.58,6.511v0.629h24.152V274.638z M690.534,263.509h-3.602v-6.21h-41.912v6.568h-3.93v-10.079h5.16
					v-18.3c2.84-0.279,5.951-1.63,9.332-4.05l1.979,2.76c-1.818,1.681-4.301,2.95-7.441,3.811v2.52h7.682v3.121h-7.682v3.27h7.682
					v3.06h-7.682v3.811h31.893v-3.811h-7.322v-3h7.322v-3.509h-7.26v-3.061h7.26v-3.27h-8.49v-3.63h12.299v20.219h4.713V263.509z
					 M673.522,240.229l-2.102,2.579c-1.139-1.1-2.689-2.289-4.648-3.57c-1.621,1.36-3.441,2.61-5.461,3.75l-2.459-2.159
					c1.939-0.8,3.639-1.74,5.1-2.82c-2.441-0.92-4.412-1.561-5.91-1.921l1.531-2.761c2.219,0.562,4.449,1.281,6.689,2.161
					c1.42-1.339,2.609-2.71,3.568-4.11l2.521,2.011c-0.801,1.239-1.842,2.45-3.119,3.63
					C670.712,237.857,672.142,238.928,673.522,240.229z M673.882,251.148l-2.52,1.979c-1.619-1.24-3.301-2.27-5.041-3.091
					c-1.08,0.821-3,1.851-5.76,3.091l-2.281-1.801c2.582-1.219,4.432-2.278,5.551-3.179c-1.119-0.701-2.82-1.48-5.1-2.341l2.25-1.89
					c2.061,0.739,3.82,1.511,5.281,2.31c0.561-0.32,1.689-1.278,3.389-2.88l2.76,1.411c-1.02,1.318-2.158,2.409-3.418,3.269
					C670.651,248.787,672.28,249.827,673.882,251.148z"/>
				<path fill="#333E48" d="M713.571,251.898c4.041,4.539,6.063,8.97,6.063,13.289c0,2.101-0.545,3.771-1.637,5.01
					c-1.088,1.241-2.613,1.862-4.574,1.862c-1.08,0-2.381-0.132-3.9-0.391l-1.109-3.991c2.141,0.541,3.68,0.811,4.619,0.811
					c0.779,0,1.49-0.301,2.131-0.9s0.961-1.399,0.961-2.4c0-1.499-0.551-3.419-1.65-5.76c-1.102-2.34-2.752-4.569-4.951-6.689
					l5.852-15.031h-8.91V285.5h-3.932v-51.602h16.83v3.81L713.571,251.898z M754.944,274.488c-0.521,3.24-1.221,5.591-2.102,7.05
					c-0.879,1.46-2.311,2.19-4.289,2.19h-4.68c-3.121,0-4.68-1.641-4.68-4.919v-15.871h-6.332
					c-0.119,6.439-1.375,11.265-3.764,14.475c-2.391,3.211-6.824,5.905-13.307,8.087l-2.52-3.451c6.02-1.78,10.15-4.08,12.391-6.9
					s3.369-6.87,3.391-12.15h-8.221v-3.93h32.133v3.87h-10.023v14.94c0,0.499,0.16,0.965,0.48,1.396
					c0.32,0.43,0.701,0.644,1.141,0.644h3.811c0.779,0,1.375-0.64,1.785-1.92c0.408-1.279,0.754-2.938,1.035-4.98L754.944,274.488z
					 M751.493,247.277l-3.809,0.061v-5.28h-22.621v5.28h-3.871v-9.09h13.17v-6.81h3.932v6.75h13.199V247.277z M746.454,253.068
					h-20.281v-3.931h20.281V253.068z"/>
				<path fill="#333E48" d="M815.937,274.638h-24.152v4.172c0,4.458-2.371,6.69-7.109,6.69h-3.99l-1.471-3.69h5.58
					c1.961,0,2.941-0.9,2.941-2.701v-4.471h-26.342v-3.75h26.342v-2.58c4.18-1.56,7.17-3.02,8.969-4.38h-22.98v-3.45h29.641v3.271
					c-3.119,2.12-6.98,4.29-11.58,6.511v0.629h24.152V274.638z M813.415,263.509h-3.6v-6.21h-41.91v6.568h-3.932v-10.079h5.162
					v-18.3c2.838-0.279,5.949-1.63,9.328-4.05l1.98,2.76c-1.82,1.681-4.299,2.95-7.439,3.811v2.52h7.68v3.121h-7.68v3.27h7.68v3.06
					h-7.68v3.811h31.891v-3.811h-7.32v-3h7.32v-3.509h-7.26v-3.061h7.26v-3.27h-8.49v-3.63h12.299v20.219h4.711V263.509z
					 M796.405,240.229l-2.102,2.579c-1.141-1.1-2.689-2.289-4.65-3.57c-1.619,1.36-3.439,2.61-5.459,3.75l-2.461-2.159
					c1.941-0.8,3.643-1.74,5.102-2.82c-2.441-0.92-4.41-1.561-5.91-1.921l1.529-2.761c2.221,0.562,4.451,1.281,6.689,2.161
					c1.42-1.339,2.611-2.71,3.572-4.11l2.52,2.011c-0.801,1.239-1.842,2.45-3.121,3.63
					C793.595,237.857,795.024,238.928,796.405,240.229z M796.765,251.148l-2.52,1.979c-1.621-1.24-3.301-2.27-5.039-3.091
					c-1.082,0.821-3,1.851-5.762,3.091l-2.279-1.801c2.58-1.219,4.43-2.278,5.551-3.179c-1.121-0.701-2.822-1.48-5.102-2.341
					l2.25-1.89c2.061,0.739,3.82,1.511,5.279,2.31c0.561-0.32,1.689-1.278,3.391-2.88l2.76,1.411c-1.02,1.318-2.16,2.409-3.42,3.269
					C793.534,248.787,795.165,249.827,796.765,251.148z"/>
				<path fill="#333E48" d="M877.376,282.498h-54.6v-3.869h25.439v-14.071h-18.33v-3.87h18.33v-12.24h-13.59
					c-1.641,4.261-4.381,8.19-8.221,11.79l-3.959-2.069c6.559-6.06,10.209-13.48,10.949-22.26l4.051,1.169
					c-0.16,2.042-0.631,4.561-1.412,7.561h12.123v-13.14h4.049v13.08h21.18v3.87h-21.18v12.181h18.061v3.87h-18.061v14.07h25.17
					V282.498z"/>
				<path fill="#333E48" d="M939.808,245.327l-2.158,3.12c-6.82-1.68-12.162-3.619-16.021-5.819v2.699h-20.281v-2.969
					c-5.84,3.02-11.08,4.989-15.719,5.909l-1.98-3.15c11.24-2.74,20.6-7.32,28.08-13.74l3.689,1.23c-0.4,0.5-0.75,0.851-1.049,1.05
					C921.007,239.178,929.489,243.068,939.808,245.327z M933.419,262.519h-43.561v-14.071h43.561V262.519z M929.849,285.558h-3.691
					v-2.398h-28.98v2.398h-3.689v-19.89h36.361V285.558z M909.837,259.277v-7.5h-16.289v7.5H909.837z M926.157,272.838v-3.869
					h-28.98v3.869H926.157z M926.157,279.918v-3.93h-28.98v3.93H926.157z M905.847,256.308l-3.09,2.161
					c-1.859-1.88-3.68-3.27-5.459-4.17l3.119-1.801C902.538,253.398,904.347,254.668,905.847,256.308z M920.397,241.998
					c-2.9-1.519-5.709-3.57-8.43-6.151c-2.902,2.4-6.15,4.451-9.75,6.151H920.397z M929.728,259.277v-7.5h-16.199v7.5H929.728z
					 M926.099,253.549c-1.182,1.879-2.961,3.479-5.342,4.799l-3.299-1.648c2.619-1.48,4.42-2.962,5.4-4.44L926.099,253.549z"/>
			</g>
		</g>
		<g>
			<path fill="#333E48" d="M1566.421,336.839V236.368h12.09v89.819h42.752v10.651H1566.421z"/>
			<path fill="#333E48" d="M1643.14,245.148c-2.496,0-4.295-0.598-5.396-1.799c-1.105-1.199-1.656-2.757-1.656-4.679v-1.872
				c0-1.918,0.551-3.478,1.656-4.678c1.102-1.2,2.9-1.8,5.396-1.8c2.494,0,4.295,0.6,5.398,1.8c1.102,1.2,1.654,2.759,1.654,4.678
				v1.872c0,1.921-0.553,3.479-1.654,4.679C1647.435,244.551,1645.634,245.148,1643.14,245.148z M1637.382,262.566h11.516v74.272
				h-11.516V262.566z"/>
			<path fill="#333E48" d="M1673.368,336.839v-74.272h11.516v11.953h0.576c1.82-4.179,4.389-7.506,7.699-9.975
				c3.313-2.47,7.748-3.707,13.314-3.707c7.678,0,13.748,2.472,18.209,7.413c4.463,4.943,6.693,11.926,6.693,20.943v47.645h-11.514
				V291.11c0-13.368-5.615-20.053-16.842-20.053c-2.303,0-4.535,0.291-6.693,0.866c-2.16,0.578-4.104,1.443-5.83,2.598
				c-1.727,1.153-3.096,2.62-4.102,4.399c-1.008,1.778-1.512,3.871-1.512,6.274v51.644H1673.368z"/>
			<path fill="#333E48" d="M1814.142,334.393c0,10.267-2.879,18.328-8.637,24.182c-5.758,5.853-13.867,8.781-24.326,8.781
				c-6.045,0-11.252-0.94-15.617-2.818c-4.367-1.883-7.988-4.363-10.867-7.447l6.766-7.952c2.494,2.568,5.373,4.545,8.637,5.926
				c3.26,1.381,7.053,2.071,11.371,2.071c6.715,0,11.922-1.855,15.617-5.563c3.693-3.714,5.541-9.184,5.541-16.412v-10.273h-0.574
				c-2.209,4.561-5.088,7.979-8.637,10.26c-3.553,2.281-7.918,3.421-13.1,3.421c-4.605,0-8.779-0.913-12.523-2.734
				c-3.742-1.822-6.908-4.413-9.5-7.772c-2.59-3.358-4.605-7.436-6.045-12.235c-1.439-4.798-2.158-10.171-2.158-16.122
				c0-5.948,0.719-11.322,2.158-16.121c1.439-4.798,3.455-8.876,6.045-12.235c2.592-3.358,5.758-5.949,9.5-7.772
				c3.744-1.822,7.918-2.735,12.523-2.735c5.182,0,9.619,1.118,13.314,3.349c3.693,2.233,6.5,5.677,8.422,10.333h0.574v-11.953
				h11.516V334.393z M1783.771,328.347c2.592,0,5.037-0.338,7.342-1.013c2.303-0.675,4.293-1.664,5.973-2.966
				c1.678-1.3,3.023-2.893,4.031-4.772c1.006-1.881,1.51-4.075,1.51-6.583V285.38c0-2.023-0.48-3.929-1.439-5.715
				c-0.959-1.783-2.303-3.302-4.029-4.557c-1.729-1.252-3.742-2.24-6.045-2.964c-2.305-0.725-4.75-1.087-7.342-1.087
				c-6.527,0-11.709,2.073-15.545,6.222c-3.84,4.147-5.758,9.499-5.758,16.058v12.73c0,6.559,1.918,11.911,5.758,16.059
				C1772.062,326.272,1777.243,328.347,1783.771,328.347z"/>
			<path fill="#333E48" d="M1884.384,324.886h-0.576c-0.77,1.711-1.705,3.398-2.807,5.061c-1.104,1.662-2.471,3.135-4.102,4.416
				c-1.633,1.282-3.6,2.304-5.902,3.064c-2.303,0.76-4.99,1.14-8.061,1.14c-7.678,0-13.771-2.47-18.281-7.413
				c-4.512-4.941-6.766-11.922-6.766-20.943v-47.644h11.516v45.728c0,13.368,5.662,20.053,16.986,20.053
				c2.303,0,4.533-0.287,6.693-0.866c2.158-0.575,4.076-1.44,5.758-2.595c1.678-1.154,3.021-2.62,4.029-4.399
				c1.008-1.778,1.512-3.92,1.512-6.422v-51.498h11.516v74.272h-11.516V324.886z"/>
			<path fill="#333E48" d="M1926.126,245.148c-2.496,0-4.295-0.598-5.398-1.799c-1.104-1.199-1.654-2.757-1.654-4.679v-1.872
				c0-1.918,0.551-3.478,1.654-4.678c1.104-1.2,2.902-1.8,5.398-1.8c2.494,0,4.293,0.6,5.398,1.8c1.102,1.2,1.654,2.759,1.654,4.678
				v1.872c0,1.921-0.553,3.479-1.654,4.679C1930.419,244.551,1928.62,245.148,1926.126,245.148z M1920.368,262.566h11.516v74.272
				h-11.516V262.566z"/>
			<path fill="#333E48" d="M1978.665,338.566c-6.91,0-12.691-1.319-17.346-3.958s-8.66-6.165-12.02-10.58l8.205-6.621
				c2.879,3.647,6.094,6.455,9.645,8.42c3.549,1.969,7.676,2.951,12.379,2.951c4.895,0,8.709-1.055,11.443-3.166
				c2.734-2.11,4.102-5.086,4.102-8.925c0-2.879-0.936-5.349-2.807-7.413c-1.871-2.063-5.254-3.477-10.146-4.246l-5.902-0.864
				c-3.455-0.479-6.621-1.223-9.5-2.23s-5.398-2.351-7.557-4.03c-2.16-1.678-3.84-3.766-5.039-6.262
				c-1.201-2.494-1.799-5.47-1.799-8.924c0-3.646,0.67-6.838,2.016-9.573c1.342-2.734,3.189-5.012,5.541-6.837
				c2.352-1.821,5.158-3.189,8.42-4.102c3.262-0.911,6.766-1.368,10.51-1.368c6.045,0,11.105,1.058,15.186,3.167
				c4.076,2.112,7.65,5.038,10.723,8.78l-7.629,6.909c-1.633-2.303-4.029-4.391-7.197-6.261c-3.166-1.872-7.148-2.808-11.947-2.808
				s-8.42,1.032-10.867,3.095c-2.447,2.064-3.67,4.872-3.67,8.421c0,3.648,1.223,6.286,3.67,7.916
				c2.447,1.634,5.975,2.832,10.58,3.6l5.758,0.863c8.252,1.248,14.105,3.623,17.561,7.125c3.455,3.505,5.182,8.085,5.182,13.746
				c0,7.197-2.447,12.86-7.34,16.985C1993.923,336.505,1987.204,338.566,1978.665,338.566z"/>
			<path fill="#333E48" d="M2041.856,336.839c-4.029,0-7.078-1.124-9.141-3.373c-2.064-2.249-3.094-5.195-3.094-8.835v-51.846
				h-12.236v-10.219h6.91c2.494,0,4.197-0.505,5.109-1.513c0.912-1.007,1.367-2.757,1.367-5.253v-13.819h10.365v20.585h16.266
				v10.219h-16.266v53.835h15.113v10.219H2041.856z"/>
			<path fill="#333E48" d="M2081.728,245.148c-2.496,0-4.295-0.598-5.396-1.799c-1.105-1.199-1.656-2.757-1.656-4.679v-1.872
				c0-1.918,0.551-3.478,1.656-4.678c1.102-1.2,2.9-1.8,5.396-1.8s4.295,0.6,5.398,1.8c1.102,1.2,1.656,2.759,1.656,4.678v1.872
				c0,1.921-0.555,3.479-1.656,4.679C2086.022,244.551,2084.224,245.148,2081.728,245.148z M2075.97,262.566h11.516v74.272h-11.516
				V262.566z"/>
			<path fill="#333E48" d="M2139.593,338.566c-5.182,0-9.838-0.913-13.963-2.734c-4.127-1.822-7.605-4.413-10.436-7.772
				c-2.832-3.358-4.99-7.436-6.477-12.235c-1.488-4.798-2.23-10.171-2.23-16.122c0-5.948,0.742-11.322,2.23-16.121
				c1.486-4.798,3.645-8.876,6.477-12.235c2.83-3.358,6.309-5.949,10.436-7.772c4.125-1.822,8.781-2.735,13.963-2.735
				c7.389,0,13.314,1.608,17.777,4.822c4.461,3.216,7.795,7.413,10.004,12.595l-9.645,4.895c-1.344-3.838-3.551-6.813-6.621-8.925
				c-3.072-2.109-6.91-3.167-11.516-3.167c-3.455,0-6.477,0.554-9.068,1.655c-2.59,1.104-4.75,2.641-6.477,4.606
				c-1.729,1.968-3.023,4.318-3.887,7.053c-0.863,2.735-1.297,5.736-1.297,8.996v12.667c0,6.527,1.75,11.876,5.256,16.05
				c3.5,4.175,8.658,6.262,15.473,6.262c9.307,0,16.025-4.318,20.152-12.955l8.348,5.614c-2.398,5.375-5.973,9.645-10.723,12.811
				C2152.62,336.983,2146.694,338.566,2139.593,338.566z"/>
			<path fill="#333E48" d="M2206.669,338.566c-6.91,0-12.691-1.319-17.346-3.958s-8.66-6.165-12.02-10.58l8.205-6.621
				c2.879,3.647,6.094,6.455,9.645,8.42c3.549,1.969,7.676,2.951,12.379,2.951c4.895,0,8.709-1.055,11.443-3.166
				c2.734-2.11,4.102-5.086,4.102-8.925c0-2.879-0.936-5.349-2.807-7.413c-1.871-2.063-5.254-3.477-10.146-4.246l-5.902-0.864
				c-3.455-0.479-6.621-1.223-9.5-2.23s-5.398-2.351-7.557-4.03c-2.16-1.678-3.84-3.766-5.039-6.262
				c-1.201-2.494-1.799-5.47-1.799-8.924c0-3.646,0.67-6.838,2.016-9.573c1.342-2.734,3.189-5.012,5.541-6.837
				c2.352-1.821,5.158-3.189,8.42-4.102c3.262-0.911,6.766-1.368,10.51-1.368c6.045,0,11.105,1.058,15.186,3.167
				c4.076,2.112,7.65,5.038,10.723,8.78l-7.629,6.909c-1.633-2.303-4.029-4.391-7.197-6.261c-3.166-1.872-7.148-2.808-11.947-2.808
				s-8.42,1.032-10.867,3.095c-2.447,2.064-3.67,4.872-3.67,8.421c0,3.648,1.223,6.286,3.67,7.916
				c2.447,1.634,5.975,2.832,10.58,3.6l5.758,0.863c8.252,1.248,14.105,3.623,17.561,7.125c3.455,3.505,5.182,8.085,5.182,13.746
				c0,7.197-2.447,12.86-7.34,16.985C2221.927,336.505,2215.208,338.566,2206.669,338.566z"/>
			<path fill="#333E48" d="M2317.79,338.566c-8.156,0-15.113-1.561-20.871-4.678s-10.652-7.413-14.682-12.883l8.924-7.485
				c3.549,4.703,7.484,8.276,11.803,10.724s9.404,3.671,15.258,3.671c7.197,0,12.689-1.728,16.482-5.182
				c3.789-3.455,5.686-8.062,5.686-13.819c0-4.797-1.439-8.492-4.318-11.082c-2.879-2.592-7.629-4.654-14.25-6.19l-8.205-1.871
				c-9.213-2.11-16.242-5.302-21.088-9.571s-7.27-10.293-7.27-18.066c0-4.412,0.814-8.348,2.447-11.803
				c1.631-3.454,3.91-6.333,6.838-8.636c2.926-2.304,6.428-4.054,10.508-5.254c4.078-1.199,8.564-1.8,13.459-1.8
				c7.578,0,14.08,1.393,19.504,4.175c5.42,2.785,10.004,6.862,13.746,12.236l-9.068,6.62c-2.785-3.837-6.143-6.859-10.076-9.068
				c-3.936-2.206-8.83-3.311-14.682-3.311c-6.43,0-11.492,1.367-15.186,4.103c-3.695,2.735-5.543,6.838-5.543,12.307
				c0,4.801,1.559,8.421,4.68,10.868c3.117,2.446,7.844,4.391,14.178,5.83l8.205,1.871c9.883,2.208,17.031,5.566,21.447,10.075
				c4.412,4.512,6.621,10.508,6.621,17.993c0,4.606-0.791,8.78-2.375,12.523c-1.584,3.742-3.865,6.909-6.838,9.5
				c-2.975,2.591-6.598,4.606-10.867,6.045C2327.985,337.847,2323.163,338.566,2317.79,338.566z"/>
			<path fill="#333E48" d="M2400.124,338.566c-4.99,0-9.549-0.913-13.674-2.734c-4.127-1.822-7.654-4.438-10.58-7.846
				c-2.928-3.404-5.207-7.484-6.838-12.234c-1.633-4.75-2.445-10.099-2.445-16.05c0-5.852,0.813-11.178,2.445-15.978
				c1.631-4.797,3.91-8.899,6.838-12.307c2.926-3.405,6.453-6.021,10.58-7.845c4.125-1.822,8.684-2.735,13.674-2.735
				c4.988,0,9.523,0.913,13.604,2.735c4.076,1.823,7.604,4.439,10.578,7.845c2.975,3.407,5.277,7.51,6.91,12.307
				c1.631,4.8,2.447,10.126,2.447,15.978c0,5.951-0.816,11.3-2.447,16.05c-1.633,4.75-3.936,8.83-6.91,12.234
				c-2.975,3.407-6.502,6.023-10.578,7.846C2409.647,337.653,2405.112,338.566,2400.124,338.566z M2400.124,328.347
				c6.236,0,11.322-1.918,15.258-5.758c3.934-3.837,5.902-9.69,5.902-17.561v-10.652c0-7.867-1.969-13.722-5.902-17.561
				c-3.936-3.837-9.021-5.758-15.258-5.758c-6.238,0-11.324,1.921-15.258,5.758c-3.936,3.839-5.9,9.693-5.9,17.561v10.652
				c0,7.87,1.965,13.724,5.9,17.561C2388.8,326.429,2393.886,328.347,2400.124,328.347z"/>
			<path fill="#333E48" d="M2480.3,338.566c-5.182,0-9.838-0.913-13.963-2.734c-4.127-1.822-7.605-4.413-10.436-7.772
				c-2.832-3.358-4.99-7.436-6.477-12.235c-1.49-4.798-2.232-10.171-2.232-16.122c0-5.948,0.742-11.322,2.232-16.121
				c1.486-4.798,3.645-8.876,6.477-12.235c2.83-3.358,6.309-5.949,10.436-7.772c4.125-1.822,8.781-2.735,13.963-2.735
				c7.389,0,13.314,1.608,17.777,4.822c4.461,3.216,7.795,7.413,10.004,12.595l-9.645,4.895c-1.346-3.838-3.551-6.813-6.621-8.925
				c-3.072-2.109-6.91-3.167-11.516-3.167c-3.455,0-6.477,0.554-9.068,1.655c-2.592,1.104-4.75,2.641-6.477,4.606
				c-1.729,1.968-3.023,4.318-3.887,7.053c-0.863,2.735-1.297,5.736-1.297,8.996v12.667c0,6.527,1.75,11.876,5.254,16.05
				c3.502,4.175,8.66,6.262,15.475,6.262c9.307,0,16.025-4.318,20.152-12.955l8.348,5.614c-2.398,5.375-5.973,9.645-10.723,12.811
				C2493.327,336.983,2487.399,338.566,2480.3,338.566z"/>
			<path fill="#333E48" d="M2530.821,245.148c-2.496,0-4.295-0.598-5.396-1.799c-1.105-1.199-1.656-2.757-1.656-4.679v-1.872
				c0-1.918,0.551-3.478,1.656-4.678c1.102-1.2,2.9-1.8,5.396-1.8c2.494,0,4.295,0.6,5.398,1.8c1.102,1.2,1.656,2.759,1.656,4.678
				v1.872c0,1.921-0.555,3.479-1.656,4.679C2535.116,244.551,2533.315,245.148,2530.821,245.148z M2525.063,262.566h11.516v74.272
				h-11.516V262.566z"/>
			<path fill="#333E48" d="M2588.974,338.566c-5.086,0-9.668-0.913-13.746-2.734c-4.08-1.822-7.582-4.438-10.508-7.846
				c-2.928-3.404-5.182-7.484-6.766-12.234c-1.582-4.75-2.373-10.099-2.373-16.05c0-5.852,0.791-11.178,2.373-15.978
				c1.584-4.797,3.838-8.899,6.766-12.307c2.926-3.405,6.428-6.021,10.508-7.845c4.078-1.822,8.66-2.735,13.746-2.735
				c4.99,0,9.451,0.908,13.387,2.726c3.934,1.817,7.293,4.33,10.076,7.532c2.783,3.203,4.918,7.004,6.406,11.403
				c1.486,4.399,2.23,9.228,2.23,14.486v5.451h-53.402v3.455c0,3.167,0.504,6.117,1.512,8.853c1.008,2.734,2.447,5.11,4.318,7.125
				c1.871,2.016,4.174,3.599,6.908,4.751c2.736,1.151,5.83,1.727,9.285,1.727c4.701,0,8.803-1.103,12.307-3.311
				c3.502-2.206,6.213-5.373,8.133-9.5l8.205,5.939c-2.4,5.119-6.143,9.246-11.229,12.384S2595.978,338.566,2588.974,338.566z
				 M2588.974,270.482c-3.166,0-6.045,0.549-8.635,1.646c-2.592,1.098-4.822,2.647-6.693,4.648
				c-1.871,2.002-3.336,4.363-4.391,7.081c-1.057,2.719-1.584,5.698-1.584,8.941v1.001h41.023v-1.575
				c0-6.58-1.799-11.848-5.398-15.806C2599.698,272.462,2594.923,270.482,2588.974,270.482z"/>
			<path fill="#333E48" d="M2656.483,336.839c-4.031,0-7.078-1.124-9.141-3.373c-2.064-2.249-3.096-5.195-3.096-8.835v-51.846
				h-12.234v-10.219h6.908c2.494,0,4.197-0.505,5.111-1.513c0.91-1.007,1.367-2.757,1.367-5.253v-13.819h10.363v20.585h16.266
				v10.219h-16.266v53.835h15.113v10.219H2656.483z"/>
			<path fill="#333E48" d="M2736.37,262.566h11.371l-33.25,91.546c-0.863,2.207-1.729,4.053-2.592,5.541
				c-0.863,1.487-1.92,2.664-3.166,3.527c-1.248,0.864-2.807,1.487-4.678,1.871c-1.871,0.382-4.152,0.576-6.838,0.576h-5.902v-10.22
				h11.66l5.613-15.809l-27.781-77.033h11.516l17.85,50.426l3.455,12.068h0.719l4.031-12.068L2736.37,262.566z"/>
			<g>
				<path fill="#333E48" d="M1586.548,477.758l-3.609-11.477h-15.99l-3.547,11.477h-8.641l15.088-45.004h10.574l14.959,45.004
					H1586.548z M1575.071,440.492h-0.322l-5.738,18.504h11.863L1575.071,440.492z"/>
				<path fill="#333E48" d="M1631.874,477.758l-3.611-11.477h-15.99l-3.545,11.477h-8.641l15.088-45.004h10.574l14.957,45.004
					H1631.874z M1620.397,440.492h-0.322l-5.738,18.504h11.863L1620.397,440.492z"/>
				<path fill="#333E48" d="M1675.911,458.738h-18.764v19.02h-8.51v-45.004h8.51v18.439h18.764v-18.439h8.51v45.004h-8.51V458.738z"
					/>
				<path fill="#333E48" d="M1710.792,457.385l-5.996,7.092v13.281h-8.512v-45.004h8.512v22.18h0.322l6.383-8.445l11.154-13.734
					h9.801l-15.668,18.762l16.957,26.242h-10.123L1710.792,457.385z"/>
				<path fill="#333E48" d="M1749.349,432.754v27.66c0,3.525,0.676,6.168,2.031,7.932c1.354,1.762,3.643,2.643,6.865,2.643
					c3.225,0,5.514-0.881,6.867-2.643c1.354-1.764,2.031-4.406,2.031-7.932v-27.66h8.381v26.564c0,3.311-0.311,6.168-0.934,8.574
					c-0.625,2.408-1.623,4.408-2.998,5.998c-1.377,1.59-3.172,2.762-5.385,3.514c-2.215,0.75-4.891,1.127-8.027,1.127
					c-3.182,0-5.857-0.377-8.027-1.127c-2.17-0.752-3.943-1.924-5.318-3.514c-1.377-1.59-2.365-3.59-2.967-5.998
					c-0.602-2.406-0.902-5.264-0.902-8.574v-26.564H1749.349z"/>
				<path fill="#333E48" d="M1801.058,478.531c-3.869,0-7.146-0.688-9.834-2.066c-2.686-1.377-4.996-3.186-6.93-5.426l5.738-5.553
					c1.547,1.791,3.277,3.156,5.189,4.094c1.912,0.939,4.029,1.408,6.352,1.408c2.621,0,4.598-0.564,5.932-1.695
					c1.332-1.131,1.998-2.654,1.998-4.574c0-1.494-0.43-2.709-1.289-3.648c-0.859-0.938-2.473-1.619-4.836-2.047l-4.256-0.639
					c-8.984-1.422-13.475-5.789-13.475-13.105c0-2.023,0.375-3.852,1.129-5.486c0.75-1.637,1.836-3.035,3.256-4.197
					c1.418-1.162,3.127-2.055,5.125-2.68c2-0.623,4.266-0.936,6.803-0.936c3.395,0,6.361,0.561,8.898,1.68
					c2.535,1.121,4.705,2.777,6.512,4.975l-5.803,5.492c-1.119-1.363-2.473-2.473-4.063-3.324c-1.592-0.852-3.59-1.279-5.996-1.279
					c-2.451,0-4.287,0.459-5.514,1.375c-1.225,0.916-1.838,2.205-1.838,3.867c0,1.703,0.494,2.961,1.484,3.771
					c0.988,0.809,2.578,1.406,4.771,1.789l4.189,0.773c4.557,0.818,7.92,2.271,10.092,4.357c2.17,2.088,3.256,5.002,3.256,8.746
					c0,2.152-0.377,4.098-1.129,5.842c-0.752,1.742-1.848,3.248-3.289,4.518c-1.439,1.27-3.201,2.248-5.285,2.938
					C1806.161,478.188,1803.765,478.531,1801.058,478.531z"/>
				<path fill="#333E48" d="M1835.81,432.754v27.66c0,3.525,0.676,6.168,2.031,7.932c1.354,1.762,3.643,2.643,6.865,2.643
					c3.225,0,5.514-0.881,6.867-2.643c1.354-1.764,2.031-4.406,2.031-7.932v-27.66h8.381v26.564c0,3.311-0.311,6.168-0.934,8.574
					c-0.625,2.408-1.623,4.408-2.998,5.998c-1.377,1.59-3.172,2.762-5.385,3.514c-2.215,0.75-4.891,1.127-8.027,1.127
					c-3.182,0-5.857-0.377-8.027-1.127c-2.17-0.752-3.943-1.924-5.318-3.514c-1.377-1.59-2.365-3.59-2.967-5.998
					c-0.602-2.406-0.902-5.264-0.902-8.574v-26.564H1835.81z"/>
			</g>
		</g>
	</g>
</g>
</svg>
