<?xml version="1.0" encoding="utf-8"?>
<!-- Generator: Adobe Illustrator 16.0.0, SVG Export Plug-In . SVG Version: 6.00 Build 0)  -->
<!DOCTYPE svg PUBLIC "-//W3C//DTD SVG 1.0//EN" "http://www.w3.org/TR/2001/REC-SVG-20010904/DTD/svg10.dtd">
<svg version="1.0" id="Logotypes" xmlns="http://www.w3.org/2000/svg" xmlns:xlink="http://www.w3.org/1999/xlink" x="0px" y="0px"
	 width="655.268px" height="708.668px" viewBox="0 0 655.268 708.668" enable-background="new 0 0 655.268 708.668"
	 xml:space="preserve">
<g>
	<defs>
		<rect id="SVGID_127_" width="655.268" height="708.668"/>
	</defs>
	<clipPath id="SVGID_2_">
		<use xlink:href="#SVGID_127_"  overflow="visible"/>
	</clipPath>
	<g clip-path="url(#SVGID_2_)">
		<g>
			<g>
				<path fill="#A49B4B" d="M158.441,271.575c-9.105,21.527-14.52,44.145-16.171,67.426c3.589-2.922,8.16-4.68,13.138-4.68
					c5.495,0,10.487,2.152,14.217,5.637c7.338-95.594,87.225-170.873,184.701-170.873c7.553,0,13.675-6.122,13.675-13.676
					c0-7.553-6.122-13.676-13.675-13.676c-28.689,0-56.536,5.625-82.767,16.719c-25.317,10.711-48.051,26.033-67.566,45.551
					C184.474,223.521,169.148,246.253,158.441,271.575z"/>
				<path fill="#A49B4B" d="M339.185,538.972c-94.955-7.684-169.673-86.965-170.102-183.797c0-7.553-6.12-13.676-13.676-13.676
					c-7.553,0-13.676,6.123-13.676,13.676c0.109,28.395,5.722,55.953,16.709,81.926c10.707,25.32,26.033,48.055,45.552,67.57
					c19.516,19.518,42.249,34.842,67.566,45.553c21.257,8.988,43.574,14.385,66.54,16.109c-2.887-3.578-4.627-8.121-4.627-13.066
					C333.472,547.731,335.656,542.708,339.185,538.972z"/>
				<path fill="#A49B4B" d="M502.527,487.413c-2.67-2.67-6.169-4.004-9.669-4.004c-3.499,0-7.001,1.334-9.672,4.004
					c-33.343,32.293-78.777,52.178-128.86,52.178c-7.553,0-13.676,6.123-13.676,13.676s6.123,13.676,13.676,13.676
					c28.69,0,56.534-5.625,82.764-16.719c24.407-10.322,46.401-24.949,65.438-43.469
					C507.871,501.415,507.871,492.755,502.527,487.413z"/>
				<path fill="#A49B4B" d="M354.327,141.73c-28.69,0-56.54,5.63-82.77,16.719c-25.32,10.71-48.05,26.04-67.56,45.55
					c-19.52,19.521-34.85,42.25-45.56,67.58c-9.1,21.521-14.52,44.141-16.17,67.42c3.59-2.92,8.16-4.68,13.14-4.68
					c5.5,0,10.49,2.15,14.22,5.641c7.34-95.601,87.22-170.87,184.7-170.87c7.55,0,13.67-6.129,13.67-13.68
					C367.997,147.859,361.877,141.73,354.327,141.73z M339.187,538.97c-94.96-7.681-169.67-86.96-170.1-183.79
					c0-7.561-6.12-13.681-13.68-13.681c-7.55,0-13.67,6.12-13.67,13.681c0.1,28.39,5.72,55.95,16.7,81.92
					c10.71,25.32,26.04,48.06,45.56,67.57c19.51,19.52,42.24,34.84,67.56,45.55c21.26,8.99,43.58,14.39,66.54,16.109
					c-2.88-3.569-4.62-8.119-4.62-13.06C333.477,547.729,335.657,542.71,339.187,538.97z M502.527,487.409c-2.67-2.67-6.17-4-9.67-4
					s-7,1.33-9.67,4c-33.34,32.301-78.78,52.181-128.86,52.181c-7.55,0-13.68,6.12-13.68,13.68c0,7.55,6.13,13.67,13.68,13.67
					c28.69,0,56.53-5.62,82.76-16.72c24.41-10.32,46.4-24.95,65.44-43.46C507.867,501.42,507.867,492.76,502.527,487.409z"/>
			</g>
			<g>
				<g>
					<g>
						<path fill="#A49B4B" d="M466.917,241.749c-30.08-30.069-70.06-46.63-112.59-46.63c-42.53,0-82.51,16.561-112.59,46.63
							c-30.07,30.08-46.63,70.061-46.63,112.591c0,42.529,16.56,82.51,46.63,112.58c30.08,30.079,70.06,46.64,112.59,46.64
							c42.53,0,82.51-16.561,112.59-46.64c30.07-30.07,46.63-70.051,46.63-112.58C513.547,311.81,496.987,271.829,466.917,241.749z
							 M264.447,310.46h-12.94v87.76h12.94v7.609h-22.33V302.85h22.33V310.46z M282.077,405.829V333.1
							c0-6.271-0.1-11.94-0.32-17.021c-0.21-5.09-0.54-9.5-0.97-13.229h13.2v72.41c0,2.06,0.03,4.479,0.09,7.27
							c0.07,2.79,0.16,5.62,0.26,8.5c0.11,2.87,0.24,5.62,0.39,8.24c0.15,2.61,0.33,4.8,0.55,6.56H282.077z M351.597,348.609h-12.11
							v48.79h12.11v8.43h-36.05v-8.43h11.91v-48.79h-11.91v-8.43h36.05V348.609z M427.867,398.749c0,7.25-0.64,13.271-1.9,18.051
							c-1.27,4.79-3.04,8.609-5.31,11.46c-2.27,2.85-5.01,4.87-8.21,6.05c-3.2,1.18-6.75,1.77-10.65,1.77c-1.93,0-4-0.31-6.21-0.93
							c-2.21-0.63-4.22-1.49-6.02-2.61l4.18-9.649c0.99,0.729,2.31,1.34,3.96,1.83s3.34,0.74,5.05,0.74c2.06,0,3.91-0.33,5.54-1
							c1.63-0.66,3.01-1.83,4.15-3.5c1.14-1.681,2.01-3.971,2.61-6.891c0.6-2.92,0.9-6.63,0.9-11.14v-28.32
							c0-5.149-0.27-9.32-0.81-12.51c-0.53-3.2-1.34-5.69-2.41-7.47c-1.07-1.78-2.41-2.971-4.02-3.58
							c-1.61-0.59-3.49-0.891-5.63-0.891c-2.32,0-4.58,0.54-6.79,1.641c-2.21,1.09-4.24,2.51-6.09,4.25
							c-1.84,1.729-3.47,3.689-4.89,5.89c-1.41,2.18-2.46,4.37-3.15,6.56v37.33h-11.91v-39.58c0-6.35-0.36-11.729-1.09-16.13
							c-0.73-4.399-1.44-7.71-2.13-9.939h11.59c0.26,0.689,0.51,1.58,0.77,2.67c0.26,1.09,0.49,2.24,0.71,3.439
							c0.21,1.21,0.41,2.391,0.58,3.54l0.51,2.9c4.12-4.89,8.26-8.42,12.42-10.59c4.17-2.16,8.5-3.25,13.01-3.25
							c3.43,0,6.47,0.57,9.1,1.71c2.64,1.14,4.86,2.939,6.67,5.399c1.8,2.471,3.16,5.671,4.08,9.601
							c0.93,3.92,1.39,8.649,1.39,14.189V398.749z M466.537,405.829h-22.33v-7.609h12.94v-87.76h-12.94v-7.61h22.33V405.829z"/>
					</g>
				</g>
			</g>
		</g>
	</g>
</g>
</svg>
