<?xml version="1.0" encoding="utf-8"?>
<!-- Generator: Adobe Illustrator 16.0.0, SVG Export Plug-In . SVG Version: 6.00 Build 0)  -->
<!DOCTYPE svg PUBLIC "-//W3C//DTD SVG 1.0//EN" "http://www.w3.org/TR/2001/REC-SVG-20010904/DTD/svg10.dtd">
<svg version="1.0" id="Logotypes" xmlns="http://www.w3.org/2000/svg" xmlns:xlink="http://www.w3.org/1999/xlink" x="0px" y="0px"
	 width="1612.259px" height="708.673px" viewBox="0 0 1612.259 708.673" enable-background="new 0 0 1612.259 708.673"
	 xml:space="preserve">
<g>
	<defs>
		<rect id="SVGID_27_" y="0.001" width="1612.259" height="708.672"/>
	</defs>
	<clipPath id="SVGID_2_">
		<use xlink:href="#SVGID_27_"  overflow="visible"/>
	</clipPath>
	<g clip-path="url(#SVGID_2_)">
		<g>
			<g>
				<g>
					<path fill="#FFFFFF" d="M158.441,271.573c-9.105,21.527-14.52,44.145-16.17,67.426c3.588-2.922,8.159-4.68,13.137-4.68
						c5.495,0,10.488,2.154,14.217,5.637c7.338-95.592,87.225-170.871,184.701-170.871c7.553,0,13.675-6.123,13.675-13.676
						c0-7.553-6.122-13.676-13.675-13.676c-28.689,0-56.536,5.625-82.766,16.719c-25.318,10.709-48.053,26.033-67.567,45.549
						C184.475,223.519,169.148,246.253,158.441,271.573z"/>
					<path fill="#FFFFFF" d="M339.186,538.97c-94.955-7.682-169.672-86.963-170.102-183.797c0-7.551-6.12-13.676-13.676-13.676
						c-7.553,0-13.676,6.125-13.676,13.676c0.109,28.395,5.723,55.955,16.709,81.928c10.707,25.318,26.033,48.053,45.552,67.568
						c19.515,19.518,42.249,34.844,67.567,45.553c21.256,8.99,43.573,14.387,66.539,16.111c-2.887-3.58-4.627-8.123-4.627-13.068
						C333.473,547.731,335.656,542.708,339.186,538.97z"/>
					<path fill="#FFFFFF" d="M502.527,487.413c-2.67-2.672-6.17-4.006-9.67-4.006c-3.498,0-7,1.334-9.672,4.006
						c-33.342,32.291-78.775,52.176-128.859,52.176c-7.553,0-13.676,6.123-13.676,13.676s6.123,13.676,13.676,13.676
						c28.69,0,56.535-5.625,82.764-16.719c24.408-10.32,46.401-24.947,65.438-43.469
						C507.871,501.413,507.871,492.755,502.527,487.413z"/>
					<path fill="#FFFFFF" d="M354.326,566.94c-7.553,0-13.676-6.123-13.676-13.676s6.123-13.676,13.676-13.676
						c50.084,0,95.518-19.885,128.859-52.176c2.672-2.672,6.174-4.006,9.672-4.006c3.5,0,7,1.334,9.67,4.006
						c5.344,5.342,5.344,14,0,19.34c-19.036,18.521-41.029,33.148-65.438,43.469C410.861,561.315,383.017,566.94,354.326,566.94z
						 M271.561,550.222c-25.318-10.709-48.053-26.035-67.567-45.553c-19.519-19.516-34.845-42.25-45.552-67.568
						c-10.986-25.973-16.6-53.533-16.709-81.928c0-7.551,6.123-13.676,13.676-13.676c7.556,0,13.676,6.125,13.676,13.676
						c0.43,96.834,75.146,176.115,170.102,183.797c-3.529,3.738-5.713,8.762-5.713,14.295c0,4.945,1.74,9.488,4.627,13.068
						C315.134,564.608,292.816,559.212,271.561,550.222z M354.326,141.733c7.553,0,13.675,6.123,13.675,13.676
						c0,7.553-6.122,13.676-13.675,13.676c-97.477,0-177.363,75.279-184.701,170.871c-3.729-3.482-8.722-5.637-14.217-5.637
						c-4.978,0-9.549,1.758-13.137,4.68c1.65-23.281,7.064-45.898,16.17-67.426c10.707-25.32,26.033-48.055,45.552-67.572
						c19.515-19.516,42.249-34.839,67.567-45.549C297.79,147.358,325.637,141.733,354.326,141.733z"/>
				</g>
				<g>
					<g>
						<g>
							<path fill="#FFFFFF" d="M466.912,241.751c-30.07-30.072-70.055-46.633-112.586-46.633
								c-42.527,0-82.513,16.561-112.584,46.633c-30.072,30.072-46.637,70.057-46.637,112.586s16.564,82.512,46.637,112.586
								c30.071,30.07,70.057,46.635,112.584,46.635c42.531,0,82.516-16.564,112.586-46.635
								c30.073-30.074,46.633-70.057,46.633-112.586S496.985,271.823,466.912,241.751z"/>
							<path fill="#333E48" d="M242.115,405.827V302.849h22.334v7.611h-12.944v87.754h12.944v7.613H242.115z"/>
							<path fill="#333E48" d="M466.537,302.849v102.979h-22.328v-7.613h12.938V310.46h-12.938v-7.611H466.537z"/>
							<path fill="#00C2F3" d="M293.986,375.257c0,2.057,0.032,4.484,0.096,7.271c0.063,2.789,0.15,5.623,0.26,8.496
								c0.105,2.875,0.233,5.623,0.387,8.24c0.146,2.617,0.33,4.805,0.545,6.563H282.08v-72.73c0-6.264-0.107-11.938-0.322-17.024
								c-0.213-5.086-0.535-9.494-0.967-13.225h13.195V375.257z"/>
							<path fill="#00C2F3" d="M351.593,340.177v8.434h-12.101v48.787h12.101v8.432h-36.042v-8.432h11.906V348.61h-11.906v-8.434
								H351.593z"/>
							<path fill="#00C2F3" d="M378.627,340.177c0.256,0.688,0.514,1.576,0.771,2.674c0.26,1.094,0.492,2.24,0.709,3.441
								c0.211,1.201,0.404,2.383,0.58,3.541l0.512,2.893c4.121-4.891,8.26-8.418,12.422-10.586c4.164-2.166,8.5-3.25,13.003-3.25
								c3.434,0,6.47,0.568,9.107,1.705c2.64,1.141,4.86,2.941,6.663,5.406c1.8,2.469,3.162,5.668,4.088,9.592
								c0.922,3.928,1.383,8.654,1.383,14.193v28.961c0,7.252-0.635,13.273-1.9,18.055c-1.264,4.787-3.037,8.604-5.309,11.461
								c-2.273,2.85-5.012,4.868-8.207,6.047c-3.197,1.18-6.748,1.771-10.652,1.771c-1.931,0-4.001-0.313-6.211-0.934
								c-2.209-0.625-4.215-1.492-6.018-2.607l4.184-9.656c0.986,0.73,2.306,1.342,3.959,1.836c1.65,0.492,3.336,0.738,5.049,0.738
								c2.063,0,3.908-0.33,5.54-0.996c1.63-0.664,3.012-1.832,4.149-3.506c1.137-1.675,2.006-3.971,2.607-6.889
								c0.6-2.918,0.9-6.631,0.9-11.135v-28.32c0-5.148-0.268-9.322-0.805-12.52c-0.535-3.195-1.343-5.686-2.415-7.465
								c-1.071-1.781-2.413-2.973-4.024-3.576c-1.605-0.598-3.483-0.898-5.629-0.898c-2.316,0-4.578,0.547-6.788,1.645
								c-2.21,1.092-4.241,2.508-6.087,4.246c-1.844,1.737-3.474,3.697-4.889,5.889c-1.415,2.189-2.469,4.375-3.156,6.564v37.332
								h-11.906v-39.584c0-6.35-0.365-11.725-1.096-16.123c-0.727-4.398-1.438-7.715-2.123-9.945H378.627z"/>
						</g>
					</g>
				</g>
			</g>
		</g>
		<g>
			<g>
				<path fill="#FFFFFF" d="M731.937,379.633h-54.993v-9.129h54.993V379.633z M724.779,476.839h-9.421v-10.005h-21.983v10.005
					h-9.567v-49.37h40.972V476.839z M724.341,398.476l-40.387,0.146v-9.128h40.387V398.476z M724.487,417.61h-40.533v-9.129h40.533
					V417.61z M722.661,361.084l-37.1,0.146v-9.128h37.1V361.084z M715.358,457.85v-21.398h-22.129v21.398H715.358z M809.716,417.757
					l-78.948,0.145v-8.982h19.572l4.236-22.566h-18.258v-8.983h19.719l3.14-16.725h-27.971v-9.129h72.521v8.984h-34.69
					l-2.994,16.724h30.09l-3.141,31.549h16.725V417.757z M797.007,477.131h-9.42v-9.859h-36.955v9.859h-9.566v-49.516h55.941
					V477.131z M787.587,458.289v-21.69h-37.101v21.69H787.587z M786.126,386.207h-21.691l-4.234,22.713h23.662L786.126,386.207z"/>
				<path fill="#FFFFFF" d="M974.387,379.633H841.616v-9.129h132.771V379.633z M954.814,398.33h-94.942v-8.836h94.942V398.33z
					 M954.814,417.318h-94.942v-8.837h94.942V417.318z M951.382,477.131h-9.42v-10.297h-68.505v10.297h-9.421v-49.662h87.346
					V477.131z M951.236,360.135l-86.47,0.218v-8.837h86.47V360.135z M941.962,457.85v-21.398h-68.505v21.398H941.962z"/>
				<path fill="#FFFFFF" d="M1139.06,450.694h-58.79v10.151c0,10.856-5.77,16.286-17.312,16.286h-9.712l-3.578-8.982h13.584
					c4.771,0,7.157-2.192,7.157-6.573v-10.882h-64.122v-9.129h64.122v-6.281c10.175-3.798,17.454-7.35,21.837-10.662h-55.943v-8.399
					h72.158v7.961c-7.598,5.161-16.994,10.443-28.191,15.847v1.534h58.79V450.694z M1132.926,423.598h-8.767v-15.117h-102.022
					v15.995h-9.569v-24.539h12.562v-44.551c6.912-0.681,14.486-3.968,22.714-9.858l4.821,6.719
					c-4.434,4.09-10.472,7.183-18.113,9.275v6.135h18.695v7.595h-18.695v7.96h18.695v7.448h-18.695v9.277h77.633v-9.277h-17.82
					v-7.302h17.82v-8.544h-17.674v-7.449h17.674v-7.961h-20.668v-8.837h29.942v49.224h11.468V423.598z M1091.516,366.927
					l-5.111,6.28c-2.778-2.677-6.551-5.574-11.32-8.69c-3.944,3.311-8.375,6.354-13.294,9.129l-5.987-5.259
					c4.722-1.946,8.859-4.235,12.416-6.864c-5.941-2.239-10.736-3.798-14.389-4.674l3.726-6.72
					c5.402,1.363,10.833,3.117,16.286,5.258c3.457-3.26,6.354-6.596,8.691-10.005l6.135,4.894c-1.949,3.019-4.48,5.965-7.596,8.837
					C1084.674,361.156,1088.156,363.761,1091.516,366.927z M1092.391,393.509l-6.133,4.82c-3.943-3.019-8.035-5.525-12.27-7.521
					c-2.629,1.996-7.303,4.503-14.021,7.521l-5.551-4.382c6.279-2.969,10.783-5.551,13.512-7.741
					c-2.729-1.703-6.865-3.603-12.416-5.697l5.477-4.6c5.014,1.802,9.299,3.676,12.854,5.622c1.361-0.777,4.113-3.114,8.251-7.011
					l6.72,3.432c-2.482,3.215-5.257,5.869-8.324,7.961C1084.529,387.766,1088.496,390.296,1092.391,393.509z"/>
				<path fill="#FFFFFF" d="M1303.586,450.694h-58.791v10.151c0,10.856-5.771,16.286-17.309,16.286h-9.714l-3.577-8.982h13.584
					c4.77,0,7.156-2.192,7.156-6.573v-10.882h-64.121v-9.129h64.121v-6.281c10.176-3.798,17.453-7.35,21.837-10.662h-55.942v-8.399
					h72.156v7.961c-7.596,5.161-16.994,10.443-28.191,15.847v1.534h58.791V450.694z M1297.453,423.598h-8.768v-15.117h-102.023
					v15.995h-9.566v-24.539h12.561v-44.551c6.914-0.681,14.483-3.968,22.713-9.858l4.819,6.719
					c-4.43,4.09-10.468,7.183-18.111,9.275v6.135h18.695v7.595h-18.695v7.96h18.695v7.448h-18.695v9.277h77.632v-9.277h-17.818
					v-7.302h17.818v-8.544h-17.674v-7.449h17.674v-7.961h-20.668v-8.837h29.943v49.224h11.469V423.598z M1258.643,391.87
					l-6.654,6.084c-3.037-4.563-7.383-10.276-11.586-13.824c-6.533,7.279-11.906,11.912-16.105,13.894l-6.584-5.53
					c4.949-2.354,10.316-6.751,16.107-13.202c-6.584-4.101-11.275-6.637-14.076-7.606l5.744-5.941
					c2.334,0.923,6.718,3.316,13.166,7.19c1.916-3.136,3.405-6.568,4.48-10.302h-21.99v-8.639h11.789v-8.896h7.566v8.896h13.992
					v8.639h-2.77c-1.555,5.718-3.646,10.671-6.275,14.863C1250.537,381.366,1255.422,387.263,1258.643,391.87z"/>
				<path fill="#FFFFFF" d="M1470.521,379.343l-5.258,7.594c-16.604-4.09-29.602-8.813-38.998-14.168v6.574h-49.371v-7.232
					c-14.217,7.353-26.973,12.149-38.27,14.388l-4.818-7.668c27.361-6.67,50.146-17.819,68.357-33.449l8.982,2.995
					c-0.975,1.217-1.826,2.07-2.557,2.556C1424.754,364.37,1445.398,373.841,1470.521,379.343z M1454.965,421.189h-106.042v-34.252
					h106.042V421.189z M1446.275,477.277h-8.982v-5.843h-70.55v5.843h-8.981v-48.42h88.514V477.277z M1397.563,413.301v-18.258
					h-39.656v18.258H1397.563z M1437.293,446.312v-9.42h-70.55v9.42H1437.293z M1437.293,463.547v-9.567h-70.55v9.567H1437.293z
					 M1387.85,406.071l-7.521,5.259c-4.527-4.575-8.959-7.96-13.293-10.151l7.596-4.382
					C1379.79,398.987,1384.197,402.08,1387.85,406.071z M1423.271,371.236c-7.061-3.701-13.902-8.691-20.523-14.973
					c-7.061,5.843-14.972,10.834-23.734,14.973H1423.271z M1445.984,413.301v-18.258h-39.438v18.258H1445.984z M1437.146,399.352
					c-2.874,4.577-7.207,8.473-13,11.686l-8.033-4.017c6.379-3.603,10.76-7.206,13.145-10.81L1437.146,399.352z"/>
			</g>
			<g>
				<path fill="#FFFFFF" d="M732.624,260.248l-2.789,3.21c-8.36-2.94-16.32-8.12-23.881-15.541l0.061,11.73h14.01v25.799h-3.811
					v-3.449h-24.27v3.449h-3.932v-25.799h14.07v-11.73c-4.119,6.299-11.561,11.23-22.32,14.791l-2.819-3.181
					c9.54-2.521,16.36-6.39,20.46-11.61h-17.07v-3.75h21.75v-5.791c-4.779,0.481-10.779,0.831-18,1.05l-2.58-3.63
					c17.061-0.061,30.681-1.489,40.861-4.29l2.88,2.881c-5.66,1.52-12.07,2.689-19.229,3.51v6.27h22.05v3.75l-17.19-0.06
					C717.234,253.378,724.484,257.509,732.624,260.248z M716.214,268.678v-5.28h-24.33v5.28H716.214z M716.214,278.308v-5.94h-24.33
					v5.94H716.214z"/>
				<path fill="#FFFFFF" d="M748.226,263.007c-2.521,7.821-5.821,14.232-9.9,19.231l3.51,2.221
					c4.539-5.722,7.881-12.13,10.021-19.231L748.226,263.007z M741.896,246.358l-2.521,3.15c3.98,1.7,7.131,4.138,9.453,7.318
					l2.637-3.568C749.386,250.477,746.196,248.178,741.896,246.358z M744.834,232.918l-2.819,2.88c3.84,1.378,6.87,3.7,9.092,6.958
					l2.818-3.03C751.784,236.627,748.754,234.359,744.834,232.918z"/>
				<path fill="#FFFFFF" d="M784.046,272.129v-11.313c2.379,2.241,4.939,4.082,7.682,5.522l2.46-3.332
					c-5.241-2.238-9.323-5.78-12.241-10.619h10.258v-3.689h-9.808v-7.171h7.409v-3.691h-7.409v-6.327h-3.812v6.389h-11.129v-6.389
					h-3.813v6.389h-7.378v3.688h7.44v7.17h-9.781v3.692h9.9c-2.219,4.159-6.23,7.62-12.029,10.378l2.818,3.331
					c1.715-0.996,3.295-2.074,4.74-3.239V279c0,3.439,1.721,5.159,5.16,5.159h19.65c1.602,0,2.866-0.532,3.795-1.589
					c0.932-1.061,1.656-3.15,2.176-6.269l-3.869-1.741c-0.262,2.5-0.64,4.098-1.141,4.799c-0.5,0.701-1.17,1.051-2.01,1.051h-18.301
					c-1.102,0-1.648-0.55-1.648-1.652v-6.628H784.046z M767.456,241.528h11.189v7.171h-11.189V241.528z M767.814,252.388h10.2
					c0.982,2.32,2.461,4.59,4.44,6.812h-19.05C765.565,256.819,767.036,254.547,767.814,252.388z M763.167,262.888h17.069v5.61
					h-17.069V262.888z"/>
				<path fill="#FFFFFF" d="M855.388,282.449l-2.79,3.119c-12.501-6.82-20.44-18.31-23.821-34.47
					c-4.18,16.421-12.7,27.911-25.56,34.47l-3.03-3.57c12.74-6.2,20.81-16.48,24.211-30.841h-20.401v-3.871h20.851
					c0.381-3.759,0.539-9.02,0.48-15.78l4.17,0.601c0.1,6.119-0.02,11.16-0.36,15.12h22.741v3.87h-18.931
					C835.347,264.799,842.827,275.249,855.388,282.449z"/>
				<path fill="#FFFFFF" d="M916.56,274.648h-24.151v4.17c0,4.459-2.37,6.69-7.11,6.69h-3.99l-1.469-3.69h5.58
					c1.959,0,2.939-0.9,2.939-2.701v-4.47h-26.34v-3.75h26.34v-2.58c4.18-1.56,7.17-3.02,8.971-4.38h-22.98v-3.45h29.64v3.27
					c-3.12,2.121-6.979,4.292-11.58,6.511v0.63h24.151V274.648z M914.04,263.518h-3.601v-6.21h-41.911v6.569h-3.93v-10.079h5.16
					v-18.301c2.839-0.279,5.949-1.63,9.329-4.05l1.979,2.76c-1.819,1.68-4.299,2.95-7.439,3.81v2.519h7.68v3.121h-7.68v3.271h7.68
					v3.06h-7.68v3.811h31.891v-3.811h-7.32v-3h7.32v-3.51h-7.26v-3.06h7.26v-3.27h-8.49v-3.63h12.301v20.22h4.711V263.518z
					 M897.028,240.238l-2.1,2.579c-1.141-1.1-2.69-2.289-4.65-3.569c-1.619,1.36-3.439,2.61-5.46,3.75l-2.46-2.16
					c1.939-0.801,3.64-1.74,5.1-2.82c-2.439-0.92-4.41-1.56-5.91-1.921l1.531-2.76c2.219,0.561,4.449,1.28,6.689,2.161
					c1.42-1.339,2.609-2.71,3.57-4.111l2.52,2.011c-0.801,1.239-1.84,2.45-3.119,3.629
					C894.218,237.867,895.647,238.938,897.028,240.238z M897.389,251.158l-2.521,1.98c-1.619-1.24-3.3-2.271-5.039-3.091
					c-1.081,0.82-3.001,1.851-5.761,3.091l-2.28-1.801c2.58-1.22,4.43-2.279,5.551-3.18c-1.121-0.7-2.82-1.479-5.101-2.339
					l2.249-1.891c2.061,0.741,3.821,1.512,5.281,2.311c0.56-0.32,1.689-1.279,3.391-2.879l2.76,1.41
					c-1.02,1.319-2.16,2.41-3.42,3.269C894.158,248.797,895.788,249.837,897.389,251.158z"/>
				<path fill="#FFFFFF" d="M978.001,274.648H953.85v4.17c0,4.459-2.37,6.69-7.11,6.69h-3.989l-1.47-3.69h5.58
					c1.959,0,2.939-0.9,2.939-2.701v-4.47h-26.34v-3.75h26.34v-2.58c4.18-1.56,7.17-3.02,8.97-4.38H935.79v-3.45h29.641v3.27
					c-3.121,2.121-6.98,4.292-11.581,6.511v0.63h24.151V274.648z M975.48,263.518h-3.601v-6.21h-41.91v6.569h-3.931v-10.079h5.161
					v-18.301c2.839-0.279,5.949-1.63,9.329-4.05l1.98,2.76c-1.821,1.68-4.301,2.95-7.44,3.81v2.519h7.681v3.121h-7.681v3.271h7.681
					v3.06h-7.681v3.811h31.891v-3.811h-7.32v-3h7.32v-3.51h-7.26v-3.06h7.26v-3.27h-8.49v-3.63h12.301v20.22h4.71V263.518z
					 M958.47,240.238l-2.1,2.579c-1.141-1.1-2.691-2.289-4.65-3.569c-1.619,1.36-3.44,2.61-5.459,3.75l-2.461-2.16
					c1.939-0.801,3.64-1.74,5.1-2.82c-2.439-0.92-4.41-1.56-5.91-1.921l1.531-2.76c2.219,0.561,4.449,1.28,6.689,2.161
					c1.42-1.339,2.609-2.71,3.57-4.111l2.52,2.011c-0.801,1.239-1.84,2.45-3.12,3.629
					C955.659,237.867,957.09,238.938,958.47,240.238z M958.831,251.158l-2.521,1.98c-1.619-1.24-3.299-2.271-5.04-3.091
					c-1.079,0.82-3,1.851-5.761,3.091l-2.279-1.801c2.58-1.22,4.43-2.279,5.551-3.18c-1.121-0.7-2.82-1.479-5.101-2.339l2.25-1.891
					c2.06,0.741,3.819,1.512,5.28,2.311c0.56-0.32,1.689-1.279,3.391-2.879l2.76,1.41c-1.021,1.319-2.16,2.41-3.42,3.269
					C955.601,248.797,957.229,249.837,958.831,251.158z"/>
				<path fill="#FFFFFF" d="M1039.44,282.509h-54.6v-3.87h25.441v-14.071H991.95v-3.871h18.332v-12.24H996.69
					c-1.639,4.259-4.379,8.19-8.219,11.79l-3.961-2.071c6.561-6.06,10.209-13.479,10.95-22.259l4.05,1.169
					c-0.16,2.04-0.629,4.561-1.408,7.561h12.117v-13.141h4.053v13.08h21.179v3.871h-21.179v12.18h18.06v3.869h-18.06v14.071h25.168
					V282.509z"/>
				<path fill="#FFFFFF" d="M1101.873,245.337l-2.16,3.121c-6.821-1.68-12.16-3.62-16.021-5.82v2.699h-20.28v-2.97
					c-5.84,3.021-11.08,4.991-15.721,5.91l-1.979-3.15c11.238-2.74,20.6-7.32,28.08-13.74l3.689,1.23
					c-0.4,0.5-0.75,0.852-1.049,1.05C1083.072,239.188,1091.553,243.077,1101.873,245.337z M1095.484,262.529h-43.563v-14.071
					h43.563V262.529z M1091.914,285.568h-3.691v-2.4h-28.98v2.4h-3.689v-19.89h36.361V285.568z M1071.902,259.287v-7.5h-16.291v7.5
					H1071.902z M1088.223,272.848v-3.87h-28.98v3.87H1088.223z M1088.223,279.928v-3.93h-28.98v3.93H1088.223z M1067.912,256.318
					l-3.09,2.16c-1.859-1.878-3.68-3.27-5.461-4.17l3.121-1.799C1064.602,253.408,1066.412,254.678,1067.912,256.318z
					 M1082.463,242.009c-2.9-1.52-5.711-3.571-8.432-6.152c-2.898,2.4-6.148,4.451-9.748,6.152H1082.463z M1091.793,259.287v-7.5
					h-16.2v7.5H1091.793z M1088.162,253.558c-1.18,1.88-2.959,3.479-5.34,4.8l-3.299-1.65c2.619-1.48,4.419-2.96,5.398-4.44
					L1088.162,253.558z"/>
				<path fill="#FFFFFF" d="M1162.955,281.638l-2.641,3.511c-10.18-3-18.441-7.04-24.779-12.121
					c-5.463,4.461-14.041,8.581-25.742,12.361l-2.939-3.57c11.32-3.14,19.881-6.951,25.682-11.431
					c-5.82-5.5-9.732-12.189-11.73-20.07c-1.081,2.78-2.563,5.419-4.441,7.919l-3.178-2.91c2.52-3.001,4.547-6.291,6.087-9.87
					h-10.319v-3.69h24.063v-10.261h3.869v10.201h24.48v3.69h-10.262c-1.799,10.44-5.938,18.75-12.42,24.929
					C1144.584,274.808,1152.674,278.578,1162.955,281.638z M1147.084,245.398h-23.219c1.598,9.259,5.508,16.71,11.728,22.35
					C1141.674,262.088,1145.504,254.638,1147.084,245.398z"/>
				<path fill="#FFFFFF" d="M1223.768,274.648h-24.152v4.17c0,4.459-2.369,6.69-7.109,6.69h-3.99l-1.469-3.69h5.578
					c1.961,0,2.941-0.9,2.941-2.701v-4.47h-26.34v-3.75h26.34v-2.58c4.18-1.56,7.17-3.02,8.969-4.38h-22.98v-3.45h29.641v3.27
					c-3.118,2.121-6.98,4.292-11.58,6.511v0.63h24.152V274.648z M1221.248,263.518h-3.602v-6.21h-41.912v6.569h-3.93v-10.079h5.16
					v-18.301c2.84-0.279,5.951-1.63,9.332-4.05l1.979,2.76c-1.818,1.68-4.301,2.95-7.441,3.81v2.519h7.682v3.121h-7.682v3.271h7.682
					v3.06h-7.682v3.811h31.893v-3.811h-7.322v-3h7.322v-3.51h-7.26v-3.06h7.26v-3.27h-8.49v-3.63h12.299v20.22h4.713V263.518z
					 M1204.236,240.238l-2.102,2.579c-1.139-1.1-2.689-2.289-4.648-3.569c-1.621,1.36-3.441,2.61-5.462,3.75l-2.458-2.16
					c1.939-0.801,3.639-1.74,5.1-2.82c-2.442-0.92-4.412-1.56-5.911-1.921l1.532-2.76c2.219,0.561,4.449,1.28,6.688,2.161
					c1.421-1.339,2.61-2.71,3.569-4.111l2.521,2.011c-0.801,1.239-1.843,2.45-3.119,3.629
					C1201.426,237.867,1202.855,238.938,1204.236,240.238z M1204.596,251.158l-2.519,1.98c-1.62-1.24-3.302-2.271-5.042-3.091
					c-1.08,0.82-3,1.851-5.76,3.091l-2.281-1.801c2.583-1.22,4.432-2.279,5.551-3.18c-1.119-0.7-2.821-1.479-5.1-2.339l2.25-1.891
					c2.06,0.741,3.82,1.512,5.28,2.311c0.562-0.32,1.69-1.279,3.39-2.879l2.76,1.41c-1.02,1.319-2.158,2.41-3.419,3.269
					C1201.365,248.797,1202.994,249.837,1204.596,251.158z"/>
				<path fill="#FFFFFF" d="M1244.285,251.908c4.042,4.54,6.063,8.971,6.063,13.29c0,2.101-0.545,3.771-1.637,5.01
					c-1.089,1.241-2.613,1.861-4.574,1.861c-1.081,0-2.382-0.131-3.9-0.39l-1.11-3.991c2.142,0.541,3.681,0.811,4.62,0.811
					c0.778,0,1.49-0.301,2.13-0.9c0.642-0.6,0.962-1.399,0.962-2.4c0-1.499-0.551-3.419-1.65-5.76
					c-1.102-2.34-2.752-4.57-4.951-6.689l5.852-15.031h-8.91v47.792h-3.932v-51.602h16.831v3.81L1244.285,251.908z
					 M1285.658,274.499c-0.521,3.24-1.221,5.591-2.103,7.05c-0.878,1.46-2.31,2.19-4.288,2.19h-4.68c-3.121,0-4.68-1.641-4.68-4.92
					v-15.87h-6.331c-0.12,6.439-1.376,11.264-3.765,14.474c-2.391,3.21-6.824,5.905-13.307,8.086l-2.52-3.451
					c6.02-1.779,10.15-4.08,12.39-6.9c2.241-2.819,3.37-6.869,3.392-12.149h-8.221v-3.932h32.133v3.872h-10.023v14.94
					c0,0.499,0.16,0.965,0.48,1.395c0.32,0.431,0.701,0.645,1.14,0.645h3.812c0.779,0,1.375-0.64,1.785-1.919
					c0.408-1.28,0.753-2.94,1.035-4.981L1285.658,274.499z M1282.206,247.287l-3.808,0.061v-5.281h-22.622v5.281h-3.87v-9.091
					h13.171v-6.81h3.93v6.75h13.199V247.287z M1277.168,253.077h-20.281v-3.929h20.281V253.077z"/>
				<path fill="#FFFFFF" d="M1346.65,274.648h-24.152v4.17c0,4.459-2.372,6.69-7.109,6.69h-3.99l-1.471-3.69h5.579
					c1.962,0,2.942-0.9,2.942-2.701v-4.47h-26.342v-3.75h26.342v-2.58c4.18-1.56,7.17-3.02,8.969-4.38h-22.98v-3.45h29.641v3.27
					c-3.12,2.121-6.98,4.292-11.58,6.511v0.63h24.152V274.648z M1344.129,263.518h-3.6v-6.21h-41.91v6.569h-3.932v-10.079h5.162
					v-18.301c2.838-0.279,5.949-1.63,9.328-4.05l1.98,2.76c-1.82,1.68-4.299,2.95-7.439,3.81v2.519h7.68v3.121h-7.68v3.271h7.68
					v3.06h-7.68v3.811h31.89v-3.811h-7.319v-3h7.319v-3.51h-7.259v-3.06h7.259v-3.27h-8.489v-3.63h12.299v20.22h4.711V263.518z
					 M1327.119,240.238l-2.102,2.579c-1.142-1.1-2.689-2.289-4.65-3.569c-1.619,1.36-3.439,2.61-5.459,3.75l-2.461-2.16
					c1.941-0.801,3.643-1.74,5.102-2.82c-2.441-0.92-4.41-1.56-5.91-1.921l1.529-2.76c2.221,0.561,4.451,1.28,6.688,2.161
					c1.42-1.339,2.612-2.71,3.573-4.111l2.52,2.011c-0.801,1.239-1.842,2.45-3.121,3.629
					C1324.308,237.867,1325.738,238.938,1327.119,240.238z M1327.479,251.158l-2.521,1.98c-1.62-1.24-3.3-2.271-5.038-3.091
					c-1.082,0.82-3,1.851-5.762,3.091l-2.279-1.801c2.579-1.22,4.429-2.279,5.551-3.18c-1.122-0.7-2.822-1.479-5.102-2.339
					l2.25-1.891c2.061,0.741,3.82,1.512,5.278,2.311c0.562-0.32,1.69-1.279,3.392-2.879l2.759,1.41
					c-1.019,1.319-2.159,2.41-3.419,3.269C1324.248,248.797,1325.879,249.837,1327.479,251.158z"/>
				<path fill="#FFFFFF" d="M1408.09,282.509h-54.6v-3.87h25.439v-14.071h-18.33v-3.871h18.33v-12.24h-13.591
					c-1.64,4.259-4.381,8.19-8.22,11.79l-3.96-2.071c6.56-6.06,10.21-13.479,10.949-22.259l4.051,1.169
					c-0.159,2.04-0.63,4.561-1.411,7.561h12.123v-13.141h4.049v13.08h21.18v3.871h-21.18v12.18h18.061v3.869h-18.061v14.071h25.17
					V282.509z"/>
				<path fill="#FFFFFF" d="M1470.521,245.337l-2.158,3.121c-6.821-1.68-12.162-3.62-16.021-5.82v2.699h-20.282v-2.97
					c-5.839,3.021-11.079,4.991-15.718,5.91l-1.98-3.15c11.24-2.74,20.6-7.32,28.079-13.74l3.69,1.23
					c-0.4,0.5-0.75,0.852-1.049,1.05C1451.721,239.188,1460.203,243.077,1470.521,245.337z M1464.133,262.529h-43.561v-14.071
					h43.561V262.529z M1460.563,285.568h-3.691v-2.4h-28.98v2.4h-3.689v-19.89h36.361V285.568z M1440.551,259.287v-7.5h-16.289v7.5
					H1440.551z M1456.871,272.848v-3.87h-28.98v3.87H1456.871z M1456.871,279.928v-3.93h-28.98v3.93H1456.871z M1436.56,256.318
					l-3.089,2.16c-1.859-1.878-3.681-3.27-5.459-4.17l3.119-1.799C1433.252,253.408,1435.06,254.678,1436.56,256.318z
					 M1451.111,242.009c-2.9-1.52-5.709-3.571-8.43-6.152c-2.902,2.4-6.15,4.451-9.75,6.152H1451.111z M1460.44,259.287v-7.5
					h-16.198v7.5H1460.44z M1456.813,253.558c-1.182,1.88-2.961,3.479-5.342,4.8l-3.299-1.65c2.618-1.48,4.419-2.96,5.4-4.44
					L1456.813,253.558z"/>
			</g>
		</g>
	</g>
</g>
</svg>
