<?xml version="1.0" encoding="utf-8"?>
<!-- Generator: Adobe Illustrator 16.0.0, SVG Export Plug-In . SVG Version: 6.00 Build 0)  -->
<!DOCTYPE svg PUBLIC "-//W3C//DTD SVG 1.0//EN" "http://www.w3.org/TR/2001/REC-SVG-20010904/DTD/svg10.dtd">
<svg version="1.0" id="Logotypes" xmlns="http://www.w3.org/2000/svg" xmlns:xlink="http://www.w3.org/1999/xlink" x="0px" y="0px"
	 width="2683.063px" height="708.673px" viewBox="0 0 2683.063 708.673" enable-background="new 0 0 2683.063 708.673"
	 xml:space="preserve">
<g>
	<defs>
		<rect id="SVGID_85_" x="0.001" width="2683.062" height="708.673"/>
	</defs>
	<clipPath id="SVGID_2_">
		<use xlink:href="#SVGID_85_"  overflow="visible"/>
	</clipPath>
	<g clip-path="url(#SVGID_2_)">
		<g>
			
				<text transform="matrix(1.0154 0 0 1 1798.8818 379.043)" fill="#FFFFFF" font-family="'NotoSansCJKtc-Medium-B5pc-H'" font-size="62.1189" letter-spacing="3.939">二零一七至二零一八年度</text>
		</g>
		<g>
			<line fill="#FFFFFF" x1="1635.48" y1="222.218" x2="1635.48" y2="486.456"/>
			<rect x="1633.98" y="222.218" fill="#FFFFFF" width="3" height="264.238"/>
		</g>
		<g>
			<g>
				<g>
					<path fill="#FFFFFF" d="M158.442,271.573c-9.105,21.527-14.52,44.145-16.17,67.425c3.588-2.921,8.159-4.679,13.137-4.679
						c5.495,0,10.488,2.152,14.217,5.637c7.338-95.593,87.225-170.873,184.701-170.873c7.553,0,13.675-6.123,13.675-13.676
						s-6.122-13.675-13.675-13.675c-28.689,0-56.536,5.625-82.766,16.719c-25.318,10.71-48.053,26.033-67.567,45.55
						C184.476,223.518,169.149,246.253,158.442,271.573z"/>
					<path fill="#FFFFFF" d="M339.187,538.97c-94.955-7.684-169.672-86.964-170.102-183.797c0-7.553-6.12-13.677-13.676-13.677
						c-7.553,0-13.676,6.124-13.676,13.677c0.109,28.395,5.723,55.954,16.709,81.927c10.707,25.319,26.033,48.054,45.552,67.569
						c19.515,19.518,42.249,34.843,67.567,45.553c21.256,8.988,43.573,14.386,66.539,16.109c-2.887-3.578-4.627-8.121-4.627-13.066
						C333.474,547.73,335.657,542.706,339.187,538.97z"/>
					<path fill="#FFFFFF" d="M502.528,487.411c-2.67-2.67-6.17-4.004-9.67-4.004c-3.498,0-7,1.334-9.672,4.004
						c-33.342,32.293-78.775,52.178-128.859,52.178c-7.553,0-13.676,6.123-13.676,13.676s6.123,13.676,13.676,13.676
						c28.69,0,56.535-5.625,82.764-16.719c24.408-10.322,46.401-24.949,65.438-43.469
						C507.872,501.412,507.872,492.753,502.528,487.411z"/>
					<path fill="#FFFFFF" d="M354.327,566.94c-7.553,0-13.676-6.123-13.676-13.676s6.123-13.676,13.676-13.676
						c50.084,0,95.518-19.885,128.859-52.178c2.672-2.67,6.174-4.004,9.672-4.004c3.5,0,7,1.334,9.67,4.004
						c5.344,5.342,5.344,14.001,0,19.342c-19.036,18.52-41.029,33.146-65.438,43.469C410.862,561.315,383.018,566.94,354.327,566.94
						z M271.562,550.222c-25.318-10.71-48.053-26.035-67.567-45.553c-19.519-19.516-34.845-42.25-45.552-67.569
						c-10.986-25.973-16.6-53.532-16.709-81.927c0-7.553,6.123-13.677,13.676-13.677c7.556,0,13.676,6.124,13.676,13.677
						c0.43,96.833,75.146,176.113,170.102,183.797c-3.529,3.736-5.713,8.761-5.713,14.295c0,4.945,1.74,9.488,4.627,13.066
						C315.135,564.607,292.817,559.21,271.562,550.222z M354.327,141.732c7.553,0,13.675,6.122,13.675,13.675
						s-6.122,13.676-13.675,13.676c-97.477,0-177.363,75.28-184.701,170.873c-3.729-3.484-8.722-5.637-14.217-5.637
						c-4.978,0-9.549,1.758-13.137,4.679c1.65-23.28,7.064-45.897,16.17-67.425c10.707-25.32,26.033-48.056,45.552-67.572
						c19.515-19.517,42.249-34.84,67.567-45.55C297.791,147.357,325.638,141.732,354.327,141.732z"/>
				</g>
				<g>
					<g>
						<g>
							<path fill="#FFFFFF" d="M466.913,241.751c-30.07-30.072-70.055-46.633-112.586-46.633
								c-42.527,0-82.513,16.561-112.584,46.633c-30.072,30.072-46.637,70.057-46.637,112.586s16.564,82.511,46.637,112.584
								c30.071,30.072,70.057,46.637,112.584,46.637c42.531,0,82.516-16.564,112.586-46.637
								c30.073-30.073,46.633-70.055,46.633-112.584S496.986,271.823,466.913,241.751z"/>
							<path fill="#333E48" d="M242.116,405.827v-102.98h22.334v7.613h-12.944v87.754h12.944v7.613H242.116z"/>
							<path fill="#333E48" d="M466.538,302.847v102.98H444.21v-7.613h12.938V310.46H444.21v-7.613H466.538z"/>
							<path fill="#333E48" d="M293.987,375.256c0,2.058,0.032,4.484,0.096,7.271c0.063,2.79,0.15,5.624,0.26,8.497
								c0.105,2.874,0.233,5.622,0.387,8.239c0.146,2.618,0.33,4.806,0.545,6.563h-13.193v-72.732
								c0-6.264-0.107-11.937-0.322-17.021c-0.213-5.086-0.535-9.496-0.967-13.227h13.195V375.256z"/>
							<path fill="#333E48" d="M351.594,340.177v8.434h-12.101v48.786h12.101v8.432h-36.042v-8.432h11.906V348.61h-11.906v-8.434
								H351.594z"/>
							<path fill="#333E48" d="M378.628,340.177c0.256,0.688,0.514,1.576,0.771,2.674c0.26,1.092,0.492,2.238,0.709,3.44
								c0.211,1.201,0.404,2.382,0.58,3.54l0.512,2.895c4.121-4.891,8.26-8.418,12.422-10.586c4.164-2.166,8.5-3.251,13.003-3.251
								c3.434,0,6.47,0.569,9.107,1.706c2.64,1.139,4.86,2.941,6.663,5.406c1.8,2.469,3.162,5.666,4.088,9.592
								c0.922,3.926,1.383,8.654,1.383,14.193v28.959c0,7.254-0.635,13.273-1.9,18.055c-1.264,4.787-3.037,8.605-5.309,11.462
								c-2.273,2.849-5.012,4.868-8.207,6.046c-3.197,1.182-6.748,1.771-10.652,1.771c-1.931,0-4.001-0.312-6.211-0.933
								c-2.209-0.624-4.215-1.491-6.018-2.608l4.184-9.654c0.986,0.73,2.306,1.34,3.959,1.836c1.65,0.492,3.336,0.738,5.049,0.738
								c2.063,0,3.908-0.331,5.54-0.996c1.63-0.666,3.012-1.833,4.149-3.508c1.137-1.674,2.006-3.969,2.607-6.887
								c0.6-2.919,0.9-6.631,0.9-11.135v-28.32c0-5.15-0.268-9.324-0.805-12.52c-0.535-3.197-1.343-5.688-2.415-7.467
								c-1.071-1.779-2.413-2.971-4.024-3.574c-1.605-0.598-3.483-0.898-5.629-0.898c-2.316,0-4.578,0.547-6.788,1.643
								c-2.21,1.092-4.241,2.51-6.087,4.248c-1.844,1.734-3.474,3.697-4.889,5.888c-1.415,2.188-2.469,4.376-3.156,6.564v37.332
								h-11.906v-39.584c0-6.351-0.365-11.726-1.096-16.124c-0.727-4.398-1.438-7.713-2.123-9.943H378.628z"/>
						</g>
					</g>
				</g>
			</g>
		</g>
		<g>
			<g>
				<path fill="#FFFFFF" d="M731.938,379.634h-54.993v-9.129h54.993V379.634z M724.78,476.839h-9.421v-10.006h-21.983v10.006h-9.567
					V427.47h40.972V476.839z M724.342,398.476l-40.387,0.146v-9.129h40.387V398.476z M724.488,417.61h-40.533v-9.129h40.533V417.61z
					 M722.662,361.083l-37.1,0.146v-9.129h37.1V361.083z M715.359,457.851v-21.398H693.23v21.398H715.359z M809.716,417.757
					l-78.947,0.145v-8.982h19.572l4.236-22.566h-18.258v-8.982h19.719l3.14-16.725h-27.971v-9.129h72.521v8.982h-34.69
					l-2.994,16.725h30.09l-3.141,31.549h16.724V417.757z M797.008,477.132h-9.42v-9.859h-36.955v9.859h-9.566v-49.516h55.941
					V477.132z M787.588,458.288v-21.689h-37.101v21.689H787.588z M786.127,386.206h-21.692l-4.233,22.713h23.662L786.127,386.206z"
					/>
				<path fill="#FFFFFF" d="M974.388,379.634H841.616v-9.129h132.771V379.634z M954.815,398.329h-94.943v-8.836h94.943V398.329z
					 M954.815,417.317h-94.943v-8.836h94.943V417.317z M951.382,477.132h-9.42v-10.299h-68.504v10.299h-9.422V427.47h87.346V477.132
					z M951.237,360.134l-86.471,0.219v-8.836h86.471V360.134z M941.962,457.851v-21.398h-68.504v21.398H941.962z"/>
				<path fill="#FFFFFF" d="M1139.061,450.694h-58.792v10.15c0,10.857-5.769,16.287-17.31,16.287h-9.713l-3.578-8.982h13.584
					c4.771,0,7.158-2.193,7.158-6.574v-10.881h-64.123v-9.129h64.123v-6.281c10.174-3.799,17.453-7.352,21.836-10.662h-55.944v-8.4
					h72.159v7.961c-7.598,5.162-16.995,10.443-28.192,15.848v1.535h58.792V450.694z M1132.926,423.599h-8.766v-15.117h-102.023
					v15.994h-9.569v-24.539h12.562v-44.551c6.912-0.68,14.486-3.967,22.715-9.857l4.82,6.719c-4.434,4.09-10.471,7.182-18.114,9.275
					v6.135h18.696v7.596h-18.696v7.959h18.696v7.449h-18.696v9.275h77.633v-9.275h-17.819v-7.303h17.819v-8.545h-17.673v-7.449
					h17.673v-7.961h-20.668v-8.836h29.944v49.223h11.467V423.599z M1091.515,366.927l-5.11,6.279
					c-2.777-2.676-6.551-5.574-11.32-8.689c-3.943,3.311-8.375,6.354-13.293,9.129l-5.989-5.26c4.724-1.945,8.86-4.234,12.416-6.863
					c-5.94-2.24-10.735-3.799-14.388-4.674l3.727-6.721c5.402,1.363,10.832,3.117,16.285,5.258c3.456-3.26,6.354-6.596,8.691-10.004
					l6.135,4.893c-1.95,3.02-4.48,5.965-7.596,8.838C1084.674,361.155,1088.156,363.761,1091.515,366.927z M1092.391,393.509
					l-6.133,4.82c-3.943-3.018-8.035-5.525-12.27-7.521c-2.629,1.996-7.303,4.504-14.022,7.521l-5.55-4.381
					c6.279-2.969,10.783-5.551,13.512-7.742c-2.729-1.703-6.865-3.602-12.416-5.697l5.477-4.6c5.013,1.803,9.299,3.676,12.854,5.623
					c1.36-0.777,4.113-3.115,8.252-7.012l6.719,3.434c-2.482,3.213-5.256,5.867-8.324,7.961
					C1084.529,387.765,1088.496,390.296,1092.391,393.509z"/>
				<path fill="#FFFFFF" d="M1303.585,450.694h-58.791v10.15c0,10.857-5.77,16.287-17.309,16.287h-9.713l-3.578-8.982h13.584
					c4.77,0,7.156-2.193,7.156-6.574v-10.881h-64.121v-9.129h64.121v-6.281c10.176-3.799,17.453-7.352,21.838-10.662h-55.943v-8.4
					h72.156v7.961c-7.596,5.162-16.994,10.443-28.191,15.848v1.535h58.791V450.694z M1297.452,423.599h-8.768v-15.117h-102.023
					v15.994h-9.566v-24.539h12.561v-44.551c6.914-0.68,14.484-3.967,22.713-9.857l4.82,6.719c-4.43,4.09-10.469,7.182-18.113,9.275
					v6.135h18.697v7.596h-18.697v7.959h18.697v7.449h-18.697v9.275h77.633v-9.275h-17.818v-7.303h17.818v-8.545h-17.674v-7.449
					h17.674v-7.961h-20.668v-8.836h29.943v49.223h11.469V423.599z M1258.642,391.87l-6.654,6.084
					c-3.037-4.563-7.383-10.275-11.586-13.824c-6.533,7.279-11.906,11.912-16.105,13.895l-6.584-5.529
					c4.949-2.355,10.316-6.752,16.107-13.203c-6.584-4.102-11.275-6.637-14.076-7.605l5.744-5.941
					c2.334,0.922,6.719,3.316,13.166,7.189c1.916-3.135,3.406-6.568,4.48-10.301h-21.99v-8.639h11.789v-8.896h7.566v8.896h13.992
					v8.639h-2.77c-1.555,5.717-3.646,10.67-6.275,14.863C1250.536,381.366,1255.421,387.263,1258.642,391.87z"/>
				<path fill="#FFFFFF" d="M1470.521,379.343l-5.258,7.594c-16.604-4.09-29.602-8.813-38.998-14.168v6.574h-49.371v-7.232
					c-14.217,7.354-26.973,12.15-38.27,14.389l-4.818-7.668c27.361-6.67,50.146-17.82,68.357-33.449l8.982,2.994
					c-0.975,1.217-1.826,2.07-2.557,2.555C1424.753,364.37,1445.397,373.841,1470.521,379.343z M1454.964,421.188h-106.041v-34.252
					h106.041V421.188z M1446.274,477.276h-8.982v-5.842h-70.549v5.842h-8.982v-48.42h88.514V477.276z M1397.562,413.302v-18.258
					h-39.656v18.258H1397.562z M1437.292,446.312v-9.42h-70.549v9.42H1437.292z M1437.292,463.548v-9.568h-70.549v9.568H1437.292z
					 M1387.849,406.071l-7.521,5.258c-4.527-4.574-8.959-7.959-13.293-10.15l7.596-4.383
					C1379.79,398.987,1384.196,402.079,1387.849,406.071z M1423.271,371.235c-7.061-3.699-13.902-8.691-20.523-14.973
					c-7.061,5.844-14.971,10.834-23.734,14.973H1423.271z M1445.983,413.302v-18.258h-39.438v18.258H1445.983z M1437.146,399.353
					c-2.873,4.576-7.207,8.473-13,11.686l-8.033-4.018c6.379-3.602,10.76-7.205,13.145-10.809L1437.146,399.353z"/>
			</g>
			<g>
				<path fill="#FFFFFF" d="M732.625,260.247l-2.79,3.211c-8.359-2.939-16.32-8.119-23.88-15.541l0.06,11.73h14.011v25.801h-3.812
					v-3.449h-24.269v3.449h-3.932v-25.801h14.07v-11.73c-4.119,6.301-11.561,11.23-22.32,14.791l-2.819-3.18
					c9.539-2.521,16.36-6.391,20.46-11.611h-17.071v-3.75h21.751v-5.789c-4.779,0.48-10.779,0.83-18,1.049l-2.58-3.629
					c17.061-0.061,30.681-1.49,40.861-4.291l2.88,2.881c-5.66,1.52-12.07,2.689-19.23,3.51v6.27h22.051v3.75l-17.19-0.059
					C717.235,253.378,724.485,257.509,732.625,260.247z M716.214,268.679v-5.281h-24.329v5.281H716.214z M716.214,278.308v-5.939
					h-24.329v5.939H716.214z"/>
				<path fill="#FFFFFF" d="M748.227,263.007c-2.521,7.822-5.821,14.232-9.9,19.232l3.509,2.221
					c4.54-5.723,7.882-12.131,10.022-19.23L748.227,263.007z M741.896,246.358l-2.521,3.15c3.98,1.699,7.131,4.139,9.453,7.318
					l2.637-3.568C749.387,250.478,746.197,248.179,741.896,246.358z M744.835,232.919l-2.82,2.879
					c3.841,1.379,6.871,3.701,9.093,6.959l2.818-3.029C751.785,236.628,748.755,234.358,744.835,232.919z"/>
				<path fill="#FFFFFF" d="M784.047,272.13v-11.313c2.379,2.24,4.939,4.08,7.682,5.521l2.46-3.332
					c-5.241-2.238-9.323-5.779-12.241-10.619h10.258v-3.689h-9.808v-7.17h7.409v-3.691h-7.409v-6.328h-3.813v6.389h-11.128v-6.389
					h-3.813v6.389h-7.378v3.689h7.44v7.17h-9.781v3.691h9.9c-2.219,4.16-6.23,7.621-12.029,10.379l2.818,3.33
					c1.715-0.994,3.295-2.074,4.74-3.238v16.08c0,3.439,1.721,5.16,5.159,5.16h19.65c1.602,0,2.867-0.531,3.796-1.59
					c0.932-1.061,1.656-3.15,2.176-6.27l-3.87-1.74c-0.261,2.5-0.639,4.098-1.14,4.799c-0.5,0.701-1.17,1.051-2.01,1.051h-18.302
					c-1.102,0-1.647-0.551-1.647-1.652v-6.627H784.047z M767.457,241.528h11.189v7.17h-11.189V241.528z M767.815,252.388h10.199
					c0.983,2.32,2.462,4.59,4.441,6.813h-19.05C765.566,256.819,767.037,254.548,767.815,252.388z M763.168,262.888h17.069v5.611
					h-17.069V262.888z"/>
				<path fill="#FFFFFF" d="M855.388,282.448l-2.789,3.119c-12.502-6.818-20.441-18.309-23.822-34.469
					c-4.18,16.42-12.699,27.91-25.559,34.469l-3.031-3.568c12.74-6.201,20.811-16.48,24.211-30.842h-20.4v-3.869h20.85
					c0.381-3.76,0.539-9.021,0.48-15.781l4.17,0.602c0.1,6.119-0.02,11.16-0.359,15.119h22.74v3.871h-18.93
					C835.347,264.798,842.827,275.249,855.388,282.448z"/>
				<path fill="#FFFFFF" d="M916.56,274.647h-24.15v4.172c0,4.459-2.371,6.689-7.111,6.689h-3.99l-1.469-3.689h5.58
					c1.959,0,2.939-0.9,2.939-2.701v-4.471h-26.34v-3.75h26.34v-2.58c4.18-1.559,7.17-3.02,8.971-4.379h-22.98v-3.451h29.641v3.27
					c-3.121,2.121-6.98,4.291-11.58,6.512v0.629h24.15V274.647z M914.04,263.519h-3.6v-6.211h-41.912v6.57h-3.93v-10.08h5.16
					v-18.301c2.84-0.279,5.949-1.629,9.33-4.049l1.979,2.76c-1.818,1.68-4.299,2.949-7.439,3.811v2.52h7.68v3.119h-7.68v3.271h7.68
					v3.059h-7.68v3.811h31.891v-3.811h-7.32v-3h7.32v-3.51h-7.26v-3.061h7.26v-3.27h-8.49v-3.629h12.301v20.219h4.711V263.519z
					 M897.028,240.237l-2.1,2.58c-1.141-1.1-2.689-2.289-4.65-3.57c-1.619,1.361-3.439,2.611-5.459,3.75l-2.461-2.158
					c1.939-0.801,3.641-1.74,5.1-2.82c-2.439-0.92-4.41-1.561-5.91-1.922l1.531-2.76c2.219,0.561,4.449,1.281,6.689,2.16
					c1.42-1.338,2.609-2.709,3.57-4.109l2.52,2.01c-0.801,1.24-1.84,2.451-3.119,3.631
					C894.218,237.866,895.647,238.938,897.028,240.237z M897.39,251.157l-2.521,1.98c-1.619-1.24-3.299-2.27-5.039-3.09
					c-1.08,0.82-3,1.85-5.76,3.09l-2.281-1.801c2.58-1.219,4.43-2.279,5.551-3.18c-1.121-0.699-2.82-1.479-5.1-2.34l2.248-1.891
					c2.061,0.74,3.822,1.512,5.281,2.311c0.561-0.32,1.689-1.279,3.391-2.879l2.76,1.41c-1.02,1.318-2.16,2.41-3.42,3.27
					C894.159,248.798,895.788,249.837,897.39,251.157z"/>
				<path fill="#FFFFFF" d="M978.001,274.647h-24.15v4.172c0,4.459-2.371,6.689-7.111,6.689h-3.988l-1.471-3.689h5.58
					c1.959,0,2.939-0.9,2.939-2.701v-4.471h-26.34v-3.75h26.34v-2.58c4.18-1.559,7.17-3.02,8.971-4.379h-22.98v-3.451h29.641v3.27
					c-3.121,2.121-6.98,4.291-11.58,6.512v0.629h24.15V274.647z M975.481,263.519h-3.602v-6.211h-41.91v6.57h-3.93v-10.08h5.16
					v-18.301c2.84-0.279,5.949-1.629,9.33-4.049l1.98,2.76c-1.82,1.68-4.301,2.949-7.441,3.811v2.52h7.682v3.119h-7.682v3.271h7.682
					v3.059h-7.682v3.811h31.891v-3.811h-7.32v-3h7.32v-3.51h-7.26v-3.061h7.26v-3.27h-8.49v-3.629h12.301v20.219h4.711V263.519z
					 M958.47,240.237l-2.1,2.58c-1.141-1.1-2.691-2.289-4.65-3.57c-1.619,1.361-3.439,2.611-5.459,3.75l-2.461-2.158
					c1.939-0.801,3.641-1.74,5.1-2.82c-2.439-0.92-4.41-1.561-5.91-1.922l1.531-2.76c2.219,0.561,4.449,1.281,6.689,2.16
					c1.42-1.338,2.609-2.709,3.57-4.109l2.52,2.01c-0.801,1.24-1.84,2.451-3.119,3.631
					C955.661,237.866,957.091,238.938,958.47,240.237z M958.831,251.157l-2.521,1.98c-1.619-1.24-3.299-2.27-5.039-3.09
					c-1.08,0.82-3,1.85-5.762,3.09l-2.279-1.801c2.58-1.219,4.43-2.279,5.551-3.18c-1.121-0.699-2.82-1.479-5.1-2.34l2.25-1.891
					c2.059,0.74,3.818,1.512,5.279,2.311c0.561-0.32,1.689-1.279,3.391-2.879l2.76,1.41c-1.02,1.318-2.16,2.41-3.42,3.27
					C955.601,248.798,957.229,249.837,958.831,251.157z"/>
				<path fill="#FFFFFF" d="M1039.441,282.509h-54.601v-3.869h25.441v-14.072H991.95v-3.869h18.332v-12.24H996.69
					c-1.639,4.26-4.379,8.189-8.219,11.789l-3.961-2.07c6.561-6.059,10.209-13.479,10.95-22.26l4.05,1.17
					c-0.16,2.041-0.629,4.561-1.408,7.561h12.117v-13.141h4.053v13.08h21.179v3.871h-21.179v12.18h18.06v3.869h-18.06v14.072h25.169
					V282.509z"/>
				<path fill="#FFFFFF" d="M1101.873,245.337l-2.16,3.121c-6.82-1.68-12.161-3.619-16.02-5.82v2.699h-20.281v-2.969
					c-5.84,3.02-11.08,4.99-15.721,5.91l-1.979-3.15c11.238-2.74,20.6-7.32,28.08-13.74l3.689,1.23
					c-0.401,0.5-0.751,0.85-1.049,1.049C1083.072,239.188,1091.552,243.077,1101.873,245.337z M1095.483,262.528h-43.562v-14.07
					h43.562V262.528z M1091.914,285.567h-3.691v-2.398h-28.98v2.398h-3.69v-19.889h36.362V285.567z M1071.901,259.288v-7.5h-16.29
					v7.5H1071.901z M1088.223,272.849v-3.871h-28.98v3.871H1088.223z M1088.223,279.929v-3.93h-28.98v3.93H1088.223z
					 M1067.912,256.317l-3.09,2.16c-1.859-1.879-3.68-3.27-5.461-4.17l3.121-1.799
					C1064.602,253.407,1066.412,254.679,1067.912,256.317z M1082.463,242.009c-2.9-1.52-5.711-3.57-8.432-6.152
					c-2.898,2.4-6.149,4.451-9.748,6.152H1082.463z M1091.793,259.288v-7.5h-16.199v7.5H1091.793z M1088.162,253.558
					c-1.18,1.881-2.96,3.48-5.34,4.801l-3.299-1.65c2.619-1.48,4.42-2.961,5.398-4.439L1088.162,253.558z"/>
				<path fill="#FFFFFF" d="M1162.955,281.638l-2.641,3.512c-10.181-3-18.441-7.041-24.778-12.121
					c-5.464,4.461-14.042,8.58-25.743,12.361l-2.939-3.57c11.32-3.141,19.881-6.951,25.683-11.432
					c-5.822-5.5-9.734-12.189-11.731-20.07c-1.08,2.781-2.563,5.42-4.441,7.92l-3.178-2.908c2.52-3.002,4.546-6.291,6.088-9.871
					h-10.321v-3.689h24.063v-10.262h3.87v10.201h24.48v3.689h-10.262c-1.799,10.441-5.938,18.75-12.421,24.93
					C1144.584,274.808,1152.674,278.579,1162.955,281.638z M1147.084,245.397h-23.219c1.598,9.26,5.508,16.711,11.729,22.352
					C1141.674,262.089,1145.504,254.638,1147.084,245.397z"/>
				<path fill="#FFFFFF" d="M1223.767,274.647h-24.152v4.172c0,4.459-2.369,6.689-7.109,6.689h-3.99l-1.469-3.689h5.578
					c1.961,0,2.941-0.9,2.941-2.701v-4.471h-26.339v-3.75h26.339v-2.58c4.18-1.559,7.17-3.02,8.969-4.379h-22.98v-3.451h29.641v3.27
					c-3.119,2.121-6.98,4.291-11.58,6.512v0.629h24.152V274.647z M1221.247,263.519h-3.602v-6.211h-41.912v6.57h-3.93v-10.08h5.16
					v-18.301c2.84-0.279,5.951-1.629,9.332-4.049l1.979,2.76c-1.818,1.68-4.301,2.949-7.441,3.811v2.52h7.682v3.119h-7.682v3.271
					h7.682v3.059h-7.682v3.811h31.893v-3.811h-7.322v-3h7.322v-3.51h-7.26v-3.061h7.26v-3.27h-8.49v-3.629h12.299v20.219h4.713
					V263.519z M1204.235,240.237l-2.102,2.58c-1.139-1.1-2.689-2.289-4.648-3.57c-1.621,1.361-3.441,2.611-5.461,3.75l-2.459-2.158
					c1.939-0.801,3.639-1.74,5.1-2.82c-2.441-0.92-4.412-1.561-5.91-1.922l1.531-2.76c2.219,0.561,4.449,1.281,6.689,2.16
					c1.42-1.338,2.609-2.709,3.568-4.109l2.521,2.01c-0.801,1.24-1.842,2.451-3.119,3.631
					C1201.425,237.866,1202.854,238.938,1204.235,240.237z M1204.595,251.157l-2.52,1.98c-1.619-1.24-3.301-2.27-5.041-3.09
					c-1.08,0.82-3,1.85-5.76,3.09l-2.281-1.801c2.582-1.219,4.432-2.279,5.551-3.18c-1.119-0.699-2.82-1.479-5.1-2.34l2.25-1.891
					c2.061,0.74,3.82,1.512,5.281,2.311c0.561-0.32,1.689-1.279,3.389-2.879l2.76,1.41c-1.02,1.318-2.158,2.41-3.418,3.27
					C1201.364,248.798,1202.993,249.837,1204.595,251.157z"/>
				<path fill="#FFFFFF" d="M1244.284,251.907c4.041,4.541,6.063,8.971,6.063,13.291c0,2.1-0.545,3.77-1.637,5.01
					c-1.088,1.24-2.613,1.861-4.574,1.861c-1.08,0-2.381-0.131-3.9-0.391l-1.109-3.99c2.141,0.541,3.68,0.811,4.619,0.811
					c0.779,0,1.49-0.301,2.131-0.9s0.961-1.4,0.961-2.4c0-1.5-0.551-3.42-1.65-5.76c-1.102-2.34-2.752-4.57-4.951-6.689
					l5.852-15.031h-8.91v47.791h-3.932v-51.602h16.83v3.811L1244.284,251.907z M1285.657,274.499
					c-0.521,3.24-1.221,5.59-2.102,7.049c-0.879,1.461-2.311,2.191-4.289,2.191h-4.68c-3.121,0-4.68-1.641-4.68-4.92v-15.871h-6.332
					c-0.119,6.439-1.375,11.266-3.764,14.475c-2.391,3.211-6.824,5.906-13.307,8.086l-2.52-3.451c6.02-1.779,10.15-4.08,12.391-6.9
					c2.24-2.818,3.369-6.869,3.391-12.148h-8.221v-3.932h32.133v3.871h-10.023v14.941c0,0.498,0.16,0.965,0.48,1.395
					s0.701,0.645,1.141,0.645h3.811c0.779,0,1.375-0.641,1.785-1.92c0.408-1.279,0.754-2.939,1.035-4.98L1285.657,274.499z
					 M1282.206,247.288l-3.809,0.061v-5.281h-22.621v5.281h-3.871v-9.092h13.17v-6.809h3.932v6.75h13.199V247.288z
					 M1277.167,253.077h-20.281v-3.93h20.281V253.077z"/>
				<path fill="#FFFFFF" d="M1346.649,274.647h-24.152v4.172c0,4.459-2.371,6.689-7.109,6.689h-3.99l-1.471-3.689h5.58
					c1.961,0,2.941-0.9,2.941-2.701v-4.471h-26.342v-3.75h26.342v-2.58c4.18-1.559,7.17-3.02,8.969-4.379h-22.98v-3.451h29.641v3.27
					c-3.119,2.121-6.98,4.291-11.58,6.512v0.629h24.152V274.647z M1344.128,263.519h-3.6v-6.211h-41.91v6.57h-3.932v-10.08h5.162
					v-18.301c2.838-0.279,5.949-1.629,9.328-4.049l1.98,2.76c-1.82,1.68-4.299,2.949-7.439,3.811v2.52h7.68v3.119h-7.68v3.271h7.68
					v3.059h-7.68v3.811h31.891v-3.811h-7.32v-3h7.32v-3.51h-7.26v-3.061h7.26v-3.27h-8.49v-3.629h12.299v20.219h4.711V263.519z
					 M1327.118,240.237l-2.102,2.58c-1.141-1.1-2.689-2.289-4.65-3.57c-1.619,1.361-3.439,2.611-5.459,3.75l-2.461-2.158
					c1.941-0.801,3.643-1.74,5.102-2.82c-2.441-0.92-4.41-1.561-5.91-1.922l1.529-2.76c2.221,0.561,4.451,1.281,6.689,2.16
					c1.42-1.338,2.611-2.709,3.572-4.109l2.52,2.01c-0.801,1.24-1.842,2.451-3.121,3.631
					C1324.308,237.866,1325.737,238.938,1327.118,240.237z M1327.478,251.157l-2.52,1.98c-1.621-1.24-3.301-2.27-5.039-3.09
					c-1.082,0.82-3,1.85-5.762,3.09l-2.279-1.801c2.58-1.219,4.43-2.279,5.551-3.18c-1.121-0.699-2.822-1.479-5.102-2.34l2.25-1.891
					c2.061,0.74,3.82,1.512,5.279,2.311c0.561-0.32,1.689-1.279,3.391-2.879l2.76,1.41c-1.02,1.318-2.16,2.41-3.42,3.27
					C1324.247,248.798,1325.878,249.837,1327.478,251.157z"/>
				<path fill="#FFFFFF" d="M1408.089,282.509h-54.6v-3.869h25.439v-14.072h-18.33v-3.869h18.33v-12.24h-13.59
					c-1.641,4.26-4.381,8.189-8.221,11.789l-3.959-2.07c6.559-6.059,10.209-13.479,10.949-22.26l4.051,1.17
					c-0.16,2.041-0.631,4.561-1.412,7.561h12.123v-13.141h4.049v13.08h21.18v3.871h-21.18v12.18h18.061v3.869h-18.061v14.072h25.17
					V282.509z"/>
				<path fill="#FFFFFF" d="M1470.521,245.337l-2.158,3.121c-6.82-1.68-12.162-3.619-16.021-5.82v2.699h-20.281v-2.969
					c-5.84,3.02-11.08,4.99-15.719,5.91l-1.98-3.15c11.24-2.74,20.6-7.32,28.08-13.74l3.689,1.23c-0.4,0.5-0.75,0.85-1.049,1.049
					C1451.72,239.188,1460.202,243.077,1470.521,245.337z M1464.132,262.528h-43.561v-14.07h43.561V262.528z M1460.562,285.567
					h-3.691v-2.398h-28.98v2.398h-3.689v-19.889h36.361V285.567z M1440.55,259.288v-7.5h-16.289v7.5H1440.55z M1456.87,272.849
					v-3.871h-28.98v3.871H1456.87z M1456.87,279.929v-3.93h-28.98v3.93H1456.87z M1436.56,256.317l-3.09,2.16
					c-1.859-1.879-3.68-3.27-5.459-4.17l3.119-1.799C1433.251,253.407,1435.06,254.679,1436.56,256.317z M1451.11,242.009
					c-2.9-1.52-5.709-3.57-8.43-6.152c-2.902,2.4-6.15,4.451-9.75,6.152H1451.11z M1460.44,259.288v-7.5h-16.199v7.5H1460.44z
					 M1456.812,253.558c-1.182,1.881-2.961,3.48-5.342,4.801l-3.299-1.65c2.619-1.48,4.42-2.961,5.4-4.439L1456.812,253.558z"/>
			</g>
		</g>
	</g>
</g>
</svg>
