<?xml version="1.0" encoding="utf-8"?>
<!-- Generator: Adobe Illustrator 16.0.0, SVG Export Plug-In . SVG Version: 6.00 Build 0)  -->
<!DOCTYPE svg PUBLIC "-//W3C//DTD SVG 1.0//EN" "http://www.w3.org/TR/2001/REC-SVG-20010904/DTD/svg10.dtd">
<svg version="1.0" id="Logotypes" xmlns="http://www.w3.org/2000/svg" xmlns:xlink="http://www.w3.org/1999/xlink" x="0px" y="0px"
	 width="628.436px" height="799.023px" viewBox="0 0 628.436 799.023" enable-background="new 0 0 628.436 799.023"
	 xml:space="preserve">
<g>
	<defs>
		<rect id="SVGID_113_" width="628.436" height="799.023"/>
	</defs>
	<clipPath id="SVGID_2_">
		<use xlink:href="#SVGID_113_"  overflow="visible"/>
	</clipPath>
	<g clip-path="url(#SVGID_2_)">
		<g>
			<g>
				<path fill="#A49B4B" d="M74.47,135.786c-4.552,10.765-7.259,22.073-8.084,33.712c1.795-1.46,4.08-2.339,6.568-2.339
					c2.748,0,5.244,1.076,7.108,2.818c3.669-47.795,43.611-85.434,92.346-85.434c3.777,0,6.838-3.061,6.838-6.838
					c0-3.776-3.061-6.837-6.838-6.837c-14.344,0-28.266,2.813-41.379,8.358c-12.659,5.355-24.026,13.017-33.782,22.774
					C87.488,111.762,79.824,123.127,74.47,135.786z"/>
				<path fill="#A49B4B" d="M164.84,269.481C117.364,265.64,80.007,226,79.792,177.586c0-3.776-3.061-6.839-6.838-6.839
					c-3.776,0-6.838,3.063-6.838,6.839c0.055,14.196,2.862,27.976,8.354,40.962c5.354,12.658,13.019,24.026,22.777,33.783
					c9.756,9.759,21.123,17.421,33.782,22.776c10.627,4.494,21.785,7.192,33.268,8.055c-1.443-1.789-2.314-4.061-2.314-6.534
					C161.982,273.861,163.074,271.35,164.84,269.481z"/>
				<path fill="#A49B4B" d="M246.506,243.703c-1.335-1.335-3.084-2.003-4.833-2.003c-1.75,0-3.5,0.668-4.836,2.003
					c-16.671,16.146-39.388,26.088-64.429,26.088c-3.775,0-6.836,3.061-6.836,6.837s3.061,6.838,6.836,6.838
					c14.346,0,28.268-2.813,41.382-8.358c12.204-5.161,23.199-12.475,32.716-21.734
					C249.178,250.704,249.178,246.374,246.506,243.703z"/>
				<path fill="#A49B4B" d="M172.408,70.867c-14.344,0-28.264,2.814-41.379,8.359c-12.66,5.355-24.024,13.016-33.784,22.775
					c-9.756,9.76-17.42,21.125-22.775,33.784c-4.55,10.767-7.26,22.075-8.085,33.71c1.795-1.46,4.08-2.335,6.57-2.335
					c2.745,0,5.245,1.075,7.104,2.814c3.67-47.794,43.614-85.434,92.349-85.434c3.775,0,6.84-3.06,6.84-6.835
					S176.184,70.867,172.408,70.867z M164.838,269.48c-47.474-3.841-84.833-43.479-85.043-91.895c0-3.775-3.065-6.84-6.84-6.84
					c-3.775,0-6.84,3.064-6.84,6.84c0.055,14.195,2.864,27.975,8.354,40.965c5.355,12.654,13.02,24.024,22.775,33.779
					c9.76,9.761,21.124,17.42,33.784,22.775c10.625,4.494,21.785,7.194,33.27,8.055c-1.445-1.785-2.314-4.061-2.314-6.53
					C161.984,273.86,163.074,271.35,164.838,269.48z M246.507,243.705c-1.335-1.34-3.085-2.005-4.835-2.005s-3.5,0.665-4.835,2.005
					c-16.67,16.146-39.39,26.085-64.429,26.085c-3.775,0-6.834,3.06-6.834,6.84c0,3.775,3.059,6.835,6.834,6.835
					c14.345,0,28.27-2.81,41.385-8.359c12.199-5.16,23.194-12.469,32.714-21.729C249.177,250.705,249.177,246.376,246.507,243.705z"
					/>
			</g>
			<g>
				<g>
					<g>
						<path fill="#A49B4B" d="M228.697,120.877c-15.029-15.035-35.024-23.315-56.289-23.315c-21.266,0-41.254,8.28-56.289,23.315
							C101.084,135.911,92.8,155.906,92.8,177.166c0,21.265,8.284,41.255,23.319,56.295c15.035,15.034,35.023,23.314,56.289,23.314
							c21.265,0,41.26-8.28,56.289-23.314c15.04-15.04,23.314-35.03,23.314-56.295C252.012,155.906,243.737,135.911,228.697,120.877
							z M127.475,155.231h-6.476v43.875h6.476v3.805h-11.17v-51.489h11.17V155.231z M136.289,202.911v-36.365
							c0-3.129-0.055-5.965-0.165-8.51c-0.104-2.545-0.265-4.75-0.479-6.614h6.595v36.204c0,1.03,0.015,2.24,0.05,3.636
							c0.03,1.395,0.075,2.81,0.13,4.25c0.05,1.435,0.114,2.81,0.19,4.119c0.074,1.305,0.164,2.4,0.273,3.28H136.289z
							 M171.043,174.307h-6.049v24.39h6.049v4.215h-18.02v-4.215h5.949v-24.39h-5.949v-4.221h18.02V174.307z M209.178,199.371
							c0,3.625-0.32,6.635-0.949,9.03c-0.635,2.39-1.521,4.299-2.656,5.725c-1.135,1.431-2.504,2.439-4.104,3.025
							c-1.597,0.59-3.371,0.884-5.326,0.884c-0.965,0-2-0.154-3.104-0.464c-1.105-0.31-2.11-0.746-3.011-1.306l2.096-4.824
							c0.489,0.365,1.149,0.669,1.975,0.915c0.83,0.25,1.67,0.369,2.524,0.369c1.035,0,1.955-0.165,2.771-0.494
							c0.814-0.336,1.505-0.921,2.076-1.756c0.568-0.835,1.004-1.984,1.305-3.444c0.299-1.46,0.449-3.315,0.449-5.565v-14.165
							c0-2.569-0.135-4.66-0.4-6.255c-0.27-1.6-0.674-2.845-1.209-3.735c-0.536-0.89-1.206-1.484-2.011-1.784
							c-0.805-0.301-1.745-0.45-2.815-0.45c-1.159,0-2.29,0.274-3.395,0.82c-1.104,0.545-2.12,1.255-3.045,2.125
							c-0.92,0.865-1.735,1.85-2.445,2.944c-0.704,1.091-1.229,2.186-1.574,3.28v18.665h-5.955v-19.79
							c0-3.175-0.181-5.859-0.545-8.061c-0.365-2.199-0.721-3.854-1.064-4.975h5.794c0.13,0.345,0.255,0.79,0.385,1.34
							c0.131,0.545,0.245,1.12,0.355,1.721c0.104,0.6,0.205,1.189,0.29,1.77l0.255,1.445c2.06-2.445,4.13-4.21,6.215-5.29
							c2.08-1.085,4.25-1.63,6.5-1.63c1.715,0,3.235,0.284,4.55,0.854c1.32,0.57,2.436,1.47,3.336,2.705s1.58,2.83,2.039,4.795
							c0.465,1.966,0.695,4.325,0.695,7.095V199.371z M228.513,202.911h-11.165v-3.805h6.47v-43.875h-6.47v-3.81h11.165V202.911z"/>
					</g>
				</g>
			</g>
		</g>
	</g>
	<g clip-path="url(#SVGID_2_)">
		<path fill="#A49B4B" d="M102.705,426.164v-67.756h8.154v60.572h28.83v7.184H102.705z"/>
		<path fill="#A49B4B" d="M154.443,364.33c-1.684,0-2.896-0.402-3.641-1.213c-0.744-0.809-1.115-1.859-1.115-3.155v-1.263
			c0-1.293,0.371-2.344,1.115-3.154c0.744-0.809,1.957-1.213,3.641-1.213c1.682,0,2.896,0.404,3.641,1.213
			c0.743,0.811,1.116,1.861,1.116,3.154v1.263c0,1.296-0.373,2.347-1.116,3.155C157.34,363.928,156.125,364.33,154.443,364.33z
			 M150.561,376.076h7.766v50.088h-7.766V376.076z"/>
		<path fill="#A49B4B" d="M174.828,426.164v-50.088h7.766v8.061h0.389c1.229-2.817,2.961-5.061,5.193-6.727
			c2.232-1.665,5.225-2.499,8.979-2.499c5.178,0,9.271,1.667,12.28,4.999c3.009,3.334,4.514,8.041,4.514,14.124v32.13h-7.766
			v-30.838c0-9.016-3.786-13.523-11.357-13.523c-1.554,0-3.058,0.195-4.515,0.584c-1.455,0.39-2.766,0.974-3.931,1.752
			c-1.165,0.777-2.087,1.767-2.767,2.967c-0.68,1.199-1.02,2.609-1.02,4.231v34.827H174.828z"/>
		<path fill="#A49B4B" d="M269.764,424.514c0,6.924-1.941,12.36-5.824,16.309c-3.883,3.946-9.353,5.922-16.405,5.922
			c-4.077,0-7.589-0.635-10.532-1.9c-2.945-1.271-5.387-2.943-7.328-5.023l4.562-5.362c1.683,1.731,3.624,3.065,5.824,3.997
			c2.199,0.932,4.757,1.396,7.669,1.396c4.529,0,8.04-1.252,10.531-3.752c2.491-2.504,3.738-6.193,3.738-11.068v-6.928h-0.389
			c-1.489,3.075-3.431,5.381-5.824,6.918c-2.395,1.539-5.339,2.308-8.834,2.308c-3.105,0-5.921-0.616-8.445-1.845
			c-2.523-1.229-4.658-2.975-6.406-5.241c-1.747-2.265-3.105-5.015-4.076-8.251c-0.971-3.235-1.457-6.859-1.457-10.872
			c0-4.012,0.486-7.636,1.457-10.872c0.971-3.234,2.329-5.984,4.076-8.251c1.748-2.265,3.883-4.012,6.406-5.242
			c2.524-1.229,5.34-1.844,8.445-1.844c3.495,0,6.488,0.753,8.979,2.258c2.491,1.507,4.384,3.829,5.679,6.968h0.389v-8.061h7.766
			V424.514z M249.281,420.438c1.748,0,3.397-0.229,4.951-0.684c1.553-0.455,2.895-1.122,4.027-2
			c1.133-0.877,2.039-1.951,2.719-3.219s1.02-2.748,1.02-4.439v-18.635c0-1.365-0.324-2.649-0.971-3.854
			c-0.648-1.203-1.554-2.227-2.719-3.072c-1.164-0.846-2.523-1.512-4.076-2c-1.554-0.488-3.203-0.732-4.951-0.732
			c-4.401,0-7.896,1.398-10.483,4.195c-2.589,2.797-3.883,6.406-3.883,10.83v8.584c0,4.423,1.294,8.033,3.883,10.83
			C241.385,419.039,244.88,420.438,249.281,420.438z"/>
		<path fill="#A49B4B" d="M317.133,418.104h-0.389c-0.518,1.154-1.148,2.291-1.893,3.412s-1.666,2.114-2.766,2.979
			c-1.102,0.865-2.428,1.554-3.98,2.066c-1.553,0.512-3.365,0.769-5.436,0.769c-5.179,0-9.287-1.665-12.328-4.999
			c-3.043-3.332-4.563-8.04-4.563-14.124v-32.13h7.766v30.838c0,9.016,3.817,13.523,11.454,13.523c1.554,0,3.058-0.194,4.514-0.584
			c1.456-0.389,2.75-0.973,3.883-1.75c1.132-0.779,2.038-1.768,2.718-2.967c0.68-1.2,1.02-2.645,1.02-4.33v-34.73h7.766v50.088
			h-7.766V418.104z"/>
		<path fill="#A49B4B" d="M345.283,364.33c-1.684,0-2.897-0.402-3.641-1.213c-0.744-0.809-1.116-1.859-1.116-3.155v-1.263
			c0-1.293,0.372-2.344,1.116-3.154c0.743-0.809,1.957-1.213,3.641-1.213c1.682,0,2.895,0.404,3.64,1.213
			c0.743,0.811,1.116,1.861,1.116,3.154v1.263c0,1.296-0.373,2.347-1.116,3.155C348.178,363.928,346.965,364.33,345.283,364.33z
			 M341.4,376.076h7.766v50.088H341.4V376.076z"/>
		<path fill="#A49B4B" d="M380.714,427.329c-4.659,0-8.56-0.89-11.697-2.669c-3.14-1.779-5.841-4.158-8.105-7.135l5.533-4.466
			c1.941,2.46,4.108,4.353,6.504,5.679c2.394,1.327,5.177,1.99,8.349,1.99c3.3,0,5.872-0.712,7.717-2.135
			c1.844-1.424,2.766-3.431,2.766-6.02c0-1.941-0.631-3.605-1.893-4.999c-1.262-1.392-3.543-2.345-6.844-2.863l-3.979-0.583
			c-2.329-0.322-4.466-0.824-6.407-1.504s-3.64-1.586-5.096-2.719c-1.456-1.131-2.589-2.539-3.397-4.223
			c-0.81-1.682-1.214-3.688-1.214-6.018c0-2.459,0.453-4.611,1.359-6.455c0.906-1.846,2.15-3.381,3.737-4.611
			c1.585-1.229,3.478-2.15,5.679-2.767c2.199-0.614,4.563-0.922,7.086-0.922c4.077,0,7.49,0.712,10.241,2.136
			c2.75,1.424,5.16,3.396,7.231,5.922l-5.145,4.658c-1.102-1.553-2.718-2.961-4.854-4.223c-2.135-1.262-4.821-1.893-8.057-1.893
			c-3.236,0-5.679,0.695-7.329,2.087c-1.649,1.392-2.476,3.285-2.476,5.679c0,2.46,0.826,4.239,2.476,5.339
			c1.65,1.103,4.028,1.909,7.135,2.427l3.883,0.582c5.565,0.842,9.513,2.443,11.843,4.805c2.33,2.363,3.494,5.453,3.494,9.271
			c0,4.854-1.65,8.672-4.95,11.454C391.004,425.938,386.473,427.329,380.714,427.329z"/>
		<path fill="#A49B4B" d="M423.329,426.164c-2.718,0-4.772-0.758-6.164-2.275c-1.392-1.516-2.087-3.502-2.087-5.957v-34.963h-8.251
			v-6.893h4.659c1.682,0,2.83-0.34,3.446-1.02c0.614-0.68,0.922-1.859,0.922-3.543v-9.319h6.989v13.882h10.969v6.893h-10.969v36.304
			h10.192v6.892H423.329z"/>
		<path fill="#A49B4B" d="M450.218,364.33c-1.684,0-2.897-0.402-3.64-1.213c-0.745-0.809-1.117-1.859-1.117-3.155v-1.263
			c0-1.293,0.372-2.344,1.117-3.154c0.742-0.809,1.956-1.213,3.64-1.213c1.683,0,2.896,0.404,3.64,1.213
			c0.744,0.811,1.117,1.861,1.117,3.154v1.263c0,1.296-0.373,2.347-1.117,3.155C453.113,363.928,451.9,364.33,450.218,364.33z
			 M446.335,376.076h7.766v50.088h-7.766V376.076z"/>
		<path fill="#A49B4B" d="M489.24,427.329c-3.494,0-6.635-0.616-9.416-1.845c-2.783-1.229-5.129-2.975-7.037-5.241
			c-1.91-2.265-3.366-5.015-4.369-8.251c-1.004-3.235-1.504-6.859-1.504-10.872c0-4.012,0.5-7.636,1.504-10.872
			c1.003-3.234,2.459-5.984,4.369-8.251c1.908-2.265,4.254-4.012,7.037-5.242c2.781-1.229,5.922-1.844,9.416-1.844
			c4.982,0,8.979,1.084,11.988,3.251c3.01,2.17,5.258,5,6.746,8.494l-6.504,3.301c-0.906-2.588-2.395-4.595-4.465-6.019
			c-2.072-1.423-4.659-2.136-7.766-2.136c-2.33,0-4.368,0.373-6.115,1.116c-1.748,0.745-3.203,1.78-4.369,3.106
			c-1.164,1.327-2.038,2.912-2.62,4.756c-0.583,1.846-0.874,3.868-0.874,6.067v8.542c0,4.402,1.18,8.009,3.543,10.824
			c2.361,2.814,5.84,4.223,10.436,4.223c6.276,0,10.807-2.912,13.59-8.736l5.631,3.785c-1.619,3.625-4.029,6.504-7.232,8.64
			S494.029,427.329,489.24,427.329z"/>
		<path fill="#A49B4B" d="M534.475,427.329c-4.66,0-8.559-0.89-11.697-2.669c-3.14-1.779-5.841-4.158-8.105-7.135l5.533-4.466
			c1.941,2.46,4.109,4.353,6.504,5.679c2.393,1.327,5.176,1.99,8.348,1.99c3.301,0,5.873-0.712,7.717-2.135
			c1.846-1.424,2.768-3.431,2.768-6.02c0-1.941-0.631-3.605-1.893-4.999c-1.263-1.392-3.544-2.345-6.844-2.863l-3.98-0.583
			c-2.33-0.322-4.465-0.824-6.406-1.504s-3.641-1.586-5.097-2.719c-1.456-1.131-2.589-2.539-3.397-4.223
			c-0.811-1.682-1.213-3.688-1.213-6.018c0-2.459,0.451-4.611,1.358-6.455c0.905-1.846,2.151-3.381,3.737-4.611
			c1.585-1.229,3.479-2.15,5.679-2.767c2.199-0.614,4.563-0.922,7.087-0.922c4.076,0,7.488,0.712,10.24,2.136
			c2.75,1.424,5.16,3.396,7.232,5.922l-5.146,4.658c-1.101-1.553-2.718-2.961-4.854-4.223s-4.821-1.893-8.057-1.893
			c-3.237,0-5.679,0.695-7.329,2.087s-2.475,3.285-2.475,5.679c0,2.46,0.824,4.239,2.475,5.339c1.65,1.103,4.029,1.909,7.135,2.427
			l3.883,0.582c5.564,0.842,9.514,2.443,11.843,4.805c2.329,2.363,3.495,5.453,3.495,9.271c0,4.854-1.65,8.672-4.951,11.454
			C544.764,425.938,540.233,427.329,534.475,427.329z"/>
		<path fill="#A49B4B" d="M121.731,543.814c-5.501,0-10.192-1.053-14.075-3.154c-3.883-2.103-7.184-5-9.901-8.688l6.019-5.049
			c2.393,3.172,5.047,5.582,7.959,7.232s6.342,2.475,10.291,2.475c4.854,0,8.557-1.164,11.113-3.494s3.835-5.436,3.835-9.318
			c0-3.235-0.971-5.728-2.912-7.475c-1.941-1.748-5.146-3.139-9.61-4.175l-5.533-1.262c-6.213-1.423-10.953-3.575-14.221-6.455
			c-3.269-2.879-4.902-6.94-4.902-12.183c0-2.976,0.549-5.63,1.65-7.959c1.1-2.33,2.637-4.271,4.611-5.824
			c1.973-1.554,4.334-2.734,7.086-3.544c2.75-0.808,5.775-1.214,9.076-1.214c5.111,0,9.496,0.939,13.153,2.816
			c3.655,1.877,6.746,4.627,9.271,8.25l-6.115,4.467c-1.879-2.589-4.143-4.627-6.795-6.117c-2.654-1.487-5.955-2.232-9.902-2.232
			c-4.336,0-7.75,0.922-10.24,2.767c-2.492,1.845-3.738,4.611-3.738,8.3c0,3.236,1.052,5.679,3.156,7.328
			c2.102,1.65,5.289,2.962,9.561,3.933l5.533,1.262c6.664,1.489,11.486,3.754,14.463,6.795c2.977,3.042,4.466,7.086,4.466,12.134
			c0,3.106-0.534,5.921-1.602,8.445c-1.067,2.523-2.606,4.659-4.61,6.406c-2.008,1.748-4.451,3.107-7.329,4.077
			C128.607,543.329,125.355,543.814,121.731,543.814z"/>
		<path fill="#A49B4B" d="M177.256,543.814c-3.366,0-6.44-0.615-9.223-1.844c-2.783-1.229-5.161-2.993-7.135-5.291
			c-1.975-2.295-3.511-5.047-4.61-8.251c-1.101-3.203-1.649-6.811-1.649-10.823c0-3.946,0.549-7.538,1.649-10.775
			c1.1-3.234,2.636-6.002,4.61-8.299c1.974-2.297,4.352-4.061,7.135-5.291c2.782-1.229,5.856-1.844,9.223-1.844
			c3.363,0,6.422,0.615,9.173,1.844c2.75,1.23,5.128,2.994,7.135,5.291c2.005,2.297,3.559,5.064,4.659,8.299
			c1.1,3.237,1.65,6.829,1.65,10.775c0,4.013-0.551,7.62-1.65,10.823c-1.101,3.204-2.654,5.956-4.659,8.251
			c-2.007,2.298-4.385,4.063-7.135,5.291C183.678,543.199,180.619,543.814,177.256,543.814z M177.256,536.922
			c4.205,0,7.635-1.293,10.289-3.883c2.652-2.587,3.98-6.535,3.98-11.842v-7.184c0-5.306-1.328-9.254-3.98-11.843
			c-2.654-2.587-6.084-3.883-10.289-3.883c-4.207,0-7.637,1.296-10.29,3.883c-2.654,2.589-3.979,6.537-3.979,11.843v7.184
			c0,5.307,1.325,9.255,3.979,11.842C169.619,535.629,173.049,536.922,177.256,536.922z"/>
		<path fill="#A49B4B" d="M231.324,543.814c-3.494,0-6.635-0.615-9.416-1.844c-2.783-1.229-5.13-2.977-7.037-5.242
			c-1.91-2.265-3.366-5.015-4.369-8.251c-1.004-3.235-1.504-6.859-1.504-10.872c0-4.012,0.5-7.636,1.504-10.872
			c1.003-3.235,2.459-5.985,4.369-8.251c1.907-2.264,4.254-4.012,7.037-5.242c2.781-1.229,5.922-1.844,9.416-1.844
			c4.982,0,8.979,1.084,11.988,3.252c3.009,2.168,5.257,4.999,6.746,8.493l-6.504,3.301c-0.906-2.588-2.395-4.595-4.465-6.019
			c-2.072-1.423-4.66-2.136-7.766-2.136c-2.33,0-4.369,0.373-6.115,1.116c-1.748,0.744-3.203,1.781-4.369,3.107
			c-1.164,1.326-2.038,2.911-2.621,4.756c-0.582,1.844-0.873,3.867-0.873,6.066v8.543c0,4.401,1.18,8.008,3.543,10.823
			c2.361,2.815,5.84,4.222,10.436,4.222c6.275,0,10.807-2.912,13.59-8.736l5.63,3.787c-1.618,3.625-4.028,6.503-7.231,8.639
			C240.109,542.746,236.112,543.814,231.324,543.814z"/>
		<path fill="#A49B4B" d="M265.395,480.815c-1.684,0-2.896-0.403-3.64-1.214c-0.745-0.809-1.116-1.859-1.116-3.154v-1.262
			c0-1.294,0.371-2.346,1.116-3.155c0.743-0.808,1.956-1.214,3.64-1.214c1.683,0,2.896,0.406,3.641,1.214
			c0.743,0.81,1.116,1.861,1.116,3.155v1.262c0,1.295-0.373,2.346-1.116,3.154C268.291,480.412,267.077,480.815,265.395,480.815z
			 M261.512,492.561h7.766v50.089h-7.766V492.561z"/>
		<path fill="#A49B4B" d="M304.611,543.814c-3.43,0-6.52-0.615-9.27-1.844c-2.752-1.229-5.113-2.993-7.086-5.291
			c-1.976-2.295-3.495-5.047-4.563-8.251c-1.068-3.203-1.602-6.811-1.602-10.823c0-3.946,0.533-7.538,1.602-10.775
			c1.067-3.234,2.587-6.002,4.563-8.299c1.973-2.297,4.334-4.061,7.086-5.291c2.75-1.229,5.84-1.844,9.27-1.844
			c3.365,0,6.373,0.613,9.027,1.838c2.654,1.226,4.918,2.92,6.795,5.08c1.877,2.159,3.316,4.723,4.32,7.689
			c1.002,2.967,1.505,6.223,1.505,9.77v3.676h-36.014v2.33c0,2.136,0.34,4.125,1.02,5.971c0.679,1.844,1.649,3.445,2.912,4.805
			c1.262,1.358,2.815,2.426,4.659,3.203c1.844,0.776,3.932,1.164,6.262,1.164c3.17,0,5.936-0.742,8.299-2.232
			c2.361-1.487,4.189-3.623,5.484-6.406l5.533,4.006c-1.618,3.452-4.143,6.235-7.571,8.352
			C313.412,542.756,309.335,543.814,304.611,543.814z M304.611,497.9c-2.135,0-4.076,0.369-5.824,1.109
			c-1.747,0.74-3.252,1.785-4.514,3.136c-1.262,1.35-2.249,2.942-2.961,4.774c-0.713,1.834-1.067,3.844-1.067,6.03v0.675h27.665
			v-1.062c0-4.438-1.213-7.989-3.64-10.659S308.623,497.9,304.611,497.9z"/>
		<path fill="#A49B4B" d="M350.138,542.649c-2.718,0-4.772-0.758-6.164-2.274c-1.392-1.518-2.087-3.504-2.087-5.958v-34.964h-8.251
			v-6.893h4.659c1.682,0,2.83-0.34,3.446-1.02c0.614-0.679,0.922-1.859,0.922-3.542v-9.319h6.989v13.881h10.969v6.893h-10.969
			v36.305h10.192v6.892H350.138z"/>
		<path fill="#A49B4B" d="M404.012,492.561h7.669l-22.423,61.738c-0.583,1.487-1.166,2.732-1.748,3.736
			c-0.582,1.003-1.295,1.797-2.135,2.379c-0.842,0.582-1.894,1.002-3.155,1.262c-1.263,0.258-2.8,0.389-4.61,0.389h-3.98v-6.893
			h7.863l3.785-10.66l-18.734-51.951h7.766l12.037,34.007l2.329,8.14h0.485l2.718-8.14L404.012,492.561z"/>
		<g>
			<path fill="#A49B4B" d="M116.111,637.563l-2.416-7.678h-10.699l-2.373,7.678h-5.781l10.095-30.112h7.075l10.008,30.112H116.111z
				 M108.433,612.628h-0.216l-3.839,12.382h7.938L108.433,612.628z"/>
			<path fill="#A49B4B" d="M146.438,637.563l-2.416-7.678h-10.699l-2.373,7.678h-5.781l10.095-30.112h7.075l10.008,30.112H146.438z
				 M138.759,612.628h-0.215l-3.839,12.382h7.938L138.759,612.628z"/>
			<path fill="#A49B4B" d="M175.904,624.837H163.35v12.726h-5.695V607.45h5.695v12.338h12.554V607.45h5.694v30.112h-5.694V624.837z"
				/>
			<path fill="#A49B4B" d="M199.242,623.931l-4.012,4.747v8.885h-5.695V607.45h5.695v14.841h0.215l4.271-5.65l7.463-9.19h6.558
				l-10.483,12.554l11.346,17.559h-6.772L199.242,623.931z"/>
			<path fill="#A49B4B" d="M225.041,607.45v18.508c0,2.359,0.453,4.127,1.359,5.307c0.905,1.18,2.437,1.769,4.594,1.769
				c2.157,0,3.689-0.589,4.595-1.769c0.905-1.18,1.358-2.947,1.358-5.307V607.45h5.608v17.775c0,2.215-0.208,4.127-0.625,5.736
				c-0.417,1.611-1.086,2.949-2.006,4.014c-0.921,1.063-2.122,1.848-3.603,2.351c-1.482,0.502-3.272,0.754-5.371,0.754
				c-2.129,0-3.919-0.252-5.371-0.754c-1.453-0.503-2.639-1.287-3.559-2.351c-0.921-1.064-1.582-2.402-1.984-4.014
				c-0.403-1.609-0.604-3.521-0.604-5.736V607.45H225.041z"/>
			<path fill="#A49B4B" d="M259.639,638.08c-2.588,0-4.782-0.46-6.58-1.382c-1.797-0.922-3.343-2.132-4.637-3.631l3.839-3.715
				c1.036,1.197,2.193,2.111,3.473,2.738c1.279,0.629,2.696,0.942,4.249,0.942c1.754,0,3.077-0.378,3.969-1.134
				c0.891-0.757,1.337-1.776,1.337-3.061c0-1-0.288-1.813-0.863-2.441c-0.576-0.627-1.654-1.084-3.235-1.37l-2.848-0.427
				c-6.012-0.951-9.017-3.874-9.017-8.77c0-1.354,0.251-2.576,0.755-3.67c0.502-1.096,1.229-2.031,2.178-2.809
				c0.95-0.777,2.092-1.375,3.43-1.793c1.337-0.417,2.854-0.626,4.551-0.626c2.272,0,4.256,0.375,5.954,1.124
				c1.696,0.75,3.149,1.857,4.357,3.329l-3.883,3.674c-0.748-0.912-1.654-1.654-2.718-2.225c-1.064-0.569-2.401-0.855-4.012-0.855
				c-1.64,0-2.869,0.307-3.688,0.92c-0.819,0.613-1.23,1.476-1.23,2.587c0,1.141,0.33,1.981,0.993,2.524
				c0.661,0.541,1.726,0.94,3.193,1.196l2.804,0.518c3.048,0.548,5.299,1.52,6.751,2.916c1.452,1.396,2.179,3.347,2.179,5.852
				c0,1.44-0.252,2.742-0.755,3.909c-0.503,1.165-1.236,2.173-2.2,3.022s-2.143,1.504-3.537,1.966
				C263.054,637.851,261.451,638.08,259.639,638.08z"/>
			<path fill="#A49B4B" d="M282.892,607.45v18.508c0,2.359,0.453,4.127,1.359,5.307c0.906,1.18,2.437,1.769,4.594,1.769
				s3.688-0.589,4.595-1.769c0.906-1.18,1.358-2.947,1.358-5.307V607.45h5.608v17.775c0,2.215-0.208,4.127-0.625,5.736
				c-0.418,1.611-1.086,2.949-2.006,4.014c-0.92,1.063-2.122,1.848-3.602,2.351c-1.482,0.502-3.272,0.754-5.371,0.754
				c-2.129,0-3.919-0.252-5.371-0.754c-1.453-0.503-2.639-1.287-3.559-2.351c-0.921-1.064-1.582-2.402-1.984-4.014
				c-0.403-1.609-0.604-3.521-0.604-5.736V607.45H282.892z"/>
		</g>
	</g>
	<g clip-path="url(#SVGID_2_)">
		<text transform="matrix(1.0154 0 0 1 92.8066 728.0898)" fill="#A49B4B" font-family="'FiraSans-Bold'" font-size="30">Session 2017–2018</text>
	</g>
</g>
</svg>
