<?xml version="1.0" encoding="utf-8"?>
<!-- Generator: Adobe Illustrator 16.0.0, SVG Export Plug-In . SVG Version: 6.00 Build 0)  -->
<!DOCTYPE svg PUBLIC "-//W3C//DTD SVG 1.0//EN" "http://www.w3.org/TR/2001/REC-SVG-20010904/DTD/svg10.dtd">
<svg version="1.0" id="Logotypes" xmlns="http://www.w3.org/2000/svg" xmlns:xlink="http://www.w3.org/1999/xlink" x="0px" y="0px"
	 width="1958.718px" height="708.659px" viewBox="0 0 1958.718 708.659" enable-background="new 0 0 1958.718 708.659"
	 xml:space="preserve">
<g>
	<defs>
		<rect id="SVGID_3_" width="1958.718" height="708.659"/>
	</defs>
	<clipPath id="SVGID_2_">
		<use xlink:href="#SVGID_3_"  overflow="visible"/>
	</clipPath>
	<g clip-path="url(#SVGID_2_)">
		<g>
			<g>
				<g>
					<path fill="#EE202E" d="M155.417,341.491c7.555,0,13.676,6.123,13.676,13.675c-0.002-0.279-0.012-0.558-0.012-0.838
						c0-102.309,82.937-185.248,185.247-185.248c7.553,0,13.676-6.121,13.676-13.674c0-7.552-6.123-13.675-13.676-13.675
						c-28.688,0-56.533,5.625-82.762,16.719c-25.318,10.709-48.051,26.033-67.566,45.548c-19.518,19.518-34.843,42.25-45.55,67.569
						c-11.094,26.228-16.719,54.073-16.719,82.761c0,0.28,0.008,0.56,0.01,0.838C141.741,347.614,147.864,341.491,155.417,341.491z"
						/>
					<path fill="#46BC96" d="M340.654,553.253c0-7.553,6.121-13.676,13.674-13.676c-102.031,0-184.784-82.486-185.235-184.411
						c0-7.553-6.121-13.675-13.676-13.675c-7.553,0-13.676,6.123-13.676,13.675c0.109,28.393,5.723,55.952,16.709,81.924
						c10.707,25.318,26.032,48.053,45.55,67.567c19.516,19.519,42.248,34.843,67.566,45.552
						c26.229,11.094,54.074,16.718,82.762,16.718C346.775,566.928,340.654,560.805,340.654,553.253z"/>
					<path fill="#00C2F3" d="M502.525,487.402c-5.338-5.341-13.996-5.341-19.34,0c-33.342,32.291-78.773,52.175-128.857,52.175
						c-7.553,0-13.674,6.123-13.674,13.676c0,7.552,6.121,13.675,13.674,13.675c28.691,0,56.535-5.625,82.764-16.718
						c24.406-10.322,46.4-24.948,65.434-43.467C507.869,501.403,507.869,492.743,502.525,487.402z"/>
				</g>
				<g>
					<path fill="#00C2F3" d="M466.912,241.747c-30.07-30.072-70.055-46.631-112.584-46.631c-42.525,0-82.51,16.559-112.582,46.631
						c-30.07,30.073-46.633,70.055-46.633,112.582c0,42.53,16.563,82.51,46.633,112.583c30.072,30.072,70.057,46.634,112.582,46.634
						c42.529,0,82.514-16.563,112.584-46.634c30.072-30.073,46.631-70.053,46.631-112.583
						C513.543,311.802,496.984,271.819,466.912,241.747z"/>
					<path fill="#333E48" d="M242.121,405.819V302.841h22.334v7.612H251.51v87.752h12.945v7.614H242.121z"/>
					<path fill="#333E48" d="M466.537,302.841v102.978h-22.328v-7.614h12.938v-87.752h-12.938v-7.612H466.537z"/>
					<path fill="#FFFFFF" d="M293.99,375.249c0,2.057,0.033,4.484,0.096,7.272c0.063,2.789,0.15,5.623,0.26,8.496
						c0.105,2.875,0.232,5.623,0.387,8.239c0.146,2.619,0.33,4.806,0.545,6.564h-13.193v-72.731c0-6.263-0.105-11.936-0.322-17.021
						c-0.213-5.086-0.535-9.496-0.965-13.226h13.193V375.249z"/>
					<path fill="#FFFFFF" d="M351.596,340.169v8.434h-12.102v48.786h12.102v8.431h-36.041v-8.431h11.906v-48.786h-11.906v-8.434
						H351.596z"/>
					<path fill="#FFFFFF" d="M378.629,340.169c0.256,0.689,0.514,1.577,0.771,2.673c0.26,1.094,0.492,2.24,0.709,3.441
						c0.211,1.201,0.404,2.382,0.58,3.541l0.512,2.893c4.121-4.89,8.258-8.418,12.422-10.584c4.162-2.166,8.5-3.25,13.002-3.25
						c3.434,0,6.469,0.567,9.107,1.704c2.639,1.14,4.861,2.942,6.662,5.406c1.801,2.47,3.162,5.667,4.088,9.592
						c0.922,3.927,1.383,8.655,1.383,14.194v28.958c0,7.253-0.635,13.272-1.9,18.054c-1.264,4.786-3.037,8.604-5.309,11.461
						c-2.273,2.85-5.012,4.867-8.207,6.046c-3.195,1.182-6.746,1.771-10.652,1.771c-1.93,0-4-0.312-6.211-0.933
						c-2.209-0.625-4.215-1.492-6.018-2.608l4.186-9.654c0.986,0.729,2.305,1.339,3.957,1.835c1.652,0.491,3.338,0.738,5.051,0.738
						c2.063,0,3.906-0.332,5.539-0.998c1.629-0.665,3.012-1.832,4.148-3.506c1.139-1.674,2.008-3.969,2.609-6.886
						c0.6-2.919,0.898-6.631,0.898-11.135v-28.32c0-5.149-0.268-9.323-0.803-12.519c-0.537-3.196-1.344-5.687-2.416-7.465
						c-1.07-1.782-2.412-2.971-4.023-3.575c-1.607-0.598-3.484-0.9-5.631-0.9c-2.314,0-4.576,0.548-6.787,1.645
						c-2.209,1.091-4.24,2.509-6.086,4.245c-1.844,1.737-3.475,3.699-4.889,5.89c-1.416,2.189-2.469,4.375-3.156,6.564v37.331
						H370.26v-39.583c0-6.35-0.365-11.725-1.096-16.124c-0.727-4.398-1.438-7.712-2.123-9.944H378.629z"/>
				</g>
			</g>
		</g>
		<g>
			<path fill="#333E48" d="M626.665,336.833V236.361h12.091v89.819h42.751v10.652H626.665z"/>
			<path fill="#333E48" d="M703.385,245.142c-2.497,0-4.296-0.598-5.398-1.799c-1.104-1.199-1.655-2.757-1.655-4.679v-1.871
				c0-1.918,0.551-3.478,1.655-4.678c1.102-1.199,2.901-1.8,5.398-1.8c2.494,0,4.293,0.601,5.397,1.8
				c1.103,1.2,1.655,2.759,1.655,4.678v1.871c0,1.921-0.553,3.479-1.655,4.679C707.678,244.543,705.879,245.142,703.385,245.142z
				 M697.627,262.56h11.516v74.273h-11.516V262.56z"/>
			<path fill="#333E48" d="M733.612,336.833V262.56h11.516v11.953h0.576c1.822-4.179,4.39-7.506,7.701-9.975
				c3.311-2.47,7.748-3.706,13.314-3.706c7.676,0,13.747,2.471,18.209,7.412c4.462,4.943,6.693,11.925,6.693,20.944v47.645h-11.515
				v-45.728c0-13.369-5.614-20.053-16.841-20.053c-2.303,0-4.535,0.29-6.694,0.865c-2.159,0.577-4.102,1.444-5.83,2.598
				c-1.728,1.154-3.095,2.62-4.103,4.399c-1.007,1.779-1.511,3.871-1.511,6.275v51.644H733.612z"/>
			<path fill="#333E48" d="M874.387,334.386c0,10.267-2.879,18.328-8.637,24.182s-13.868,8.781-24.326,8.781
				c-6.046,0-11.252-0.94-15.618-2.818c-4.367-1.882-7.988-4.363-10.867-7.447l6.765-7.952c2.495,2.568,5.373,4.545,8.637,5.927
				c3.261,1.38,7.053,2.07,11.371,2.07c6.716,0,11.923-1.855,15.618-5.563c3.693-3.714,5.542-9.184,5.542-16.411v-10.274h-0.576
				c-2.208,4.562-5.087,7.979-8.636,10.26c-3.552,2.281-7.917,3.422-13.099,3.422c-4.606,0-8.78-0.914-12.523-2.735
				c-3.742-1.822-6.909-4.413-9.5-7.773c-2.591-3.358-4.606-7.435-6.046-12.235c-1.439-4.797-2.159-10.171-2.159-16.122
				c0-5.949,0.719-11.322,2.159-16.122c1.439-4.797,3.455-8.875,6.046-12.235c2.591-3.358,5.758-5.949,9.5-7.772
				c3.743-1.822,7.917-2.734,12.523-2.734c5.182,0,9.619,1.117,13.315,3.348c3.692,2.233,6.5,5.677,8.42,10.333h0.576V262.56h11.516
				V334.386z M844.015,328.34c2.591,0,5.038-0.337,7.341-1.013c2.303-0.674,4.293-1.664,5.973-2.966
				c1.678-1.3,3.023-2.893,4.031-4.772c1.007-1.88,1.511-4.075,1.511-6.583v-27.632c0-2.024-0.481-3.93-1.439-5.716
				c-0.96-1.783-2.303-3.301-4.03-4.556c-1.728-1.253-3.742-2.241-6.045-2.965s-4.75-1.086-7.341-1.086
				c-6.527,0-11.709,2.073-15.545,6.221c-3.839,4.147-5.758,9.5-5.758,16.058v12.73c0,6.558,1.918,11.911,5.758,16.059
				C832.306,326.266,837.488,328.34,844.015,328.34z"/>
			<path fill="#333E48" d="M944.628,324.879h-0.576c-0.769,1.712-1.705,3.398-2.807,5.061c-1.104,1.662-2.472,3.135-4.102,4.417
				c-1.633,1.282-3.599,2.304-5.902,3.063s-4.991,1.141-8.061,1.141c-7.678,0-13.771-2.47-18.28-7.414
				c-4.512-4.941-6.766-11.922-6.766-20.943V262.56h11.516v45.728c0,13.369,5.661,20.053,16.985,20.053
				c2.303,0,4.535-0.288,6.694-0.866c2.159-0.575,4.077-1.44,5.757-2.595c1.678-1.154,3.023-2.62,4.03-4.399
				c1.008-1.778,1.511-3.92,1.511-6.421V262.56h11.516v74.273h-11.516V324.879z"/>
			<path fill="#333E48" d="M986.37,245.142c-2.496,0-4.295-0.598-5.397-1.799c-1.104-1.199-1.655-2.757-1.655-4.679v-1.871
				c0-1.918,0.551-3.478,1.655-4.678c1.102-1.199,2.901-1.8,5.397-1.8c2.495,0,4.294,0.601,5.398,1.8
				c1.102,1.2,1.655,2.759,1.655,4.678v1.871c0,1.921-0.553,3.479-1.655,4.679C990.664,244.543,988.865,245.142,986.37,245.142z
				 M980.613,262.56h11.515v74.273h-11.515V262.56z"/>
			<path fill="#333E48" d="M1038.909,338.561c-6.909,0-12.692-1.32-17.345-3.959c-4.656-2.639-8.662-6.165-12.02-10.58l8.205-6.621
				c2.879,3.648,6.093,6.455,9.644,8.42c3.549,1.968,7.677,2.951,12.379,2.951c4.894,0,8.708-1.055,11.443-3.167
				c2.735-2.11,4.103-5.086,4.103-8.925c0-2.879-0.936-5.348-2.807-7.413c-1.872-2.063-5.254-3.477-10.148-4.246l-5.902-0.864
				c-3.455-0.479-6.621-1.223-9.5-2.231s-5.397-2.351-7.557-4.03c-2.159-1.678-3.84-3.766-5.038-6.262
				c-1.201-2.494-1.799-5.47-1.799-8.924c0-3.646,0.67-6.837,2.015-9.573c1.343-2.735,3.189-5.012,5.542-6.836
				c2.35-1.822,5.157-3.19,8.42-4.103c3.262-0.911,6.766-1.367,10.508-1.367c6.045,0,11.106,1.057,15.186,3.166
				c4.078,2.112,7.652,5.038,10.724,8.78l-7.629,6.909c-1.633-2.303-4.03-4.391-7.197-6.261c-3.167-1.872-7.15-2.808-11.947-2.808
				c-4.8,0-8.421,1.032-10.868,3.096s-3.67,4.871-3.67,8.42c0,3.648,1.224,6.286,3.67,7.917c2.447,1.633,5.974,2.831,10.58,3.599
				l5.758,0.863c8.252,1.248,14.106,3.624,17.561,7.125c3.455,3.505,5.182,8.085,5.182,13.746c0,7.197-2.447,12.86-7.341,16.985
				C1054.167,336.498,1047.449,338.561,1038.909,338.561z"/>
			<path fill="#333E48" d="M1102.101,336.833c-4.03,0-7.078-1.125-9.14-3.374c-2.064-2.249-3.095-5.195-3.095-8.834v-51.846h-12.235
				V262.56h6.91c2.494,0,4.197-0.505,5.11-1.513c0.911-1.007,1.367-2.757,1.367-5.253v-13.819h10.364v20.585h16.266v10.219h-16.266
				v53.835h15.114v10.219H1102.101z"/>
			<path fill="#333E48" d="M1141.973,245.142c-2.496,0-4.296-0.598-5.397-1.799c-1.104-1.199-1.655-2.757-1.655-4.679v-1.871
				c0-1.918,0.551-3.478,1.655-4.678c1.102-1.199,2.901-1.8,5.397-1.8c2.495,0,4.294,0.601,5.398,1.8
				c1.102,1.2,1.655,2.759,1.655,4.678v1.871c0,1.921-0.553,3.479-1.655,4.679C1146.267,244.543,1144.467,245.142,1141.973,245.142z
				 M1136.215,262.56h11.516v74.273h-11.516V262.56z"/>
			<path fill="#333E48" d="M1199.837,338.561c-5.182,0-9.837-0.914-13.962-2.735c-4.127-1.822-7.606-4.413-10.436-7.773
				c-2.832-3.358-4.991-7.435-6.478-12.235c-1.489-4.797-2.231-10.171-2.231-16.122c0-5.949,0.742-11.322,2.231-16.122
				c1.486-4.797,3.646-8.875,6.478-12.235c2.829-3.358,6.309-5.949,10.436-7.772c4.125-1.822,8.781-2.734,13.962-2.734
				c7.388,0,13.315,1.607,17.777,4.821c4.462,3.217,7.795,7.413,10.004,12.595l-9.644,4.895c-1.345-3.837-3.551-6.813-6.621-8.925
				c-3.073-2.109-6.91-3.166-11.516-3.166c-3.455,0-6.477,0.553-9.068,1.655c-2.591,1.104-4.75,2.64-6.478,4.606
				c-1.727,1.968-3.023,4.318-3.886,7.053s-1.296,5.736-1.296,8.996v12.667c0,6.527,1.75,11.875,5.254,16.049
				c3.501,4.175,8.659,6.262,15.474,6.262c9.307,0,16.025-4.318,20.152-12.955l8.349,5.614c-2.399,5.375-5.974,9.645-10.724,12.812
				C1212.864,336.977,1206.938,338.561,1199.837,338.561z"/>
			<path fill="#333E48" d="M1266.913,338.561c-6.909,0-12.692-1.32-17.345-3.959c-4.656-2.639-8.662-6.165-12.02-10.58l8.205-6.621
				c2.879,3.648,6.093,6.455,9.644,8.42c3.549,1.968,7.676,2.951,12.379,2.951c4.894,0,8.708-1.055,11.443-3.167
				c2.735-2.11,4.103-5.086,4.103-8.925c0-2.879-0.936-5.348-2.807-7.413c-1.872-2.063-5.254-3.477-10.148-4.246l-5.902-0.864
				c-3.455-0.479-6.621-1.223-9.5-2.231s-5.397-2.351-7.557-4.03c-2.159-1.678-3.84-3.766-5.038-6.262
				c-1.201-2.494-1.799-5.47-1.799-8.924c0-3.646,0.67-6.837,2.015-9.573c1.343-2.735,3.189-5.012,5.542-6.836
				c2.35-1.822,5.157-3.19,8.42-4.103c3.261-0.911,6.766-1.367,10.508-1.367c6.045,0,11.106,1.057,15.186,3.166
				c4.078,2.112,7.652,5.038,10.724,8.78l-7.629,6.909c-1.633-2.303-4.03-4.391-7.197-6.261c-3.167-1.872-7.149-2.808-11.947-2.808
				c-4.8,0-8.421,1.032-10.868,3.096s-3.67,4.871-3.67,8.42c0,3.648,1.224,6.286,3.67,7.917c2.447,1.633,5.974,2.831,10.58,3.599
				l5.758,0.863c8.252,1.248,14.106,3.624,17.561,7.125c3.455,3.505,5.182,8.085,5.182,13.746c0,7.197-2.447,12.86-7.341,16.985
				C1282.171,336.498,1275.453,338.561,1266.913,338.561z"/>
			<path fill="#333E48" d="M1378.035,338.561c-8.157,0-15.114-1.562-20.872-4.679c-5.757-3.117-10.651-7.413-14.682-12.883
				l8.924-7.485c3.549,4.703,7.485,8.277,11.803,10.724c4.318,2.447,9.403,3.67,15.258,3.67c7.197,0,12.689-1.728,16.481-5.182
				c3.79-3.455,5.686-8.062,5.686-13.819c0-4.796-1.439-8.492-4.318-11.083c-2.878-2.592-7.629-4.654-14.25-6.19l-8.205-1.871
				c-9.212-2.11-16.243-5.301-21.087-9.571c-4.847-4.27-7.27-10.293-7.27-18.065c0-4.413,0.814-8.349,2.447-11.803
				c1.631-3.455,3.909-6.333,6.837-8.636c2.926-2.304,6.428-4.054,10.507-5.254c4.078-1.199,8.565-1.8,13.459-1.8
				c7.579,0,14.081,1.393,19.504,4.175c5.42,2.784,10.004,6.861,13.747,12.235l-9.068,6.621c-2.785-3.837-6.143-6.86-10.076-9.068
				c-3.936-2.207-8.83-3.311-14.683-3.311c-6.43,0-11.493,1.368-15.186,4.103c-3.695,2.735-5.542,6.838-5.542,12.308
				c0,4.799,1.559,8.42,4.678,10.867c3.117,2.447,7.845,4.391,14.178,5.83l8.205,1.871c9.883,2.208,17.033,5.566,21.448,10.075
				c4.413,4.512,6.621,10.508,6.621,17.993c0,4.606-0.792,8.78-2.375,12.523c-1.583,3.742-3.864,6.909-6.837,9.5
				c-2.976,2.591-6.599,4.606-10.868,6.046C1388.23,337.841,1383.408,338.561,1378.035,338.561z"/>
			<path fill="#333E48" d="M1460.369,338.561c-4.991,0-9.55-0.914-13.675-2.735c-4.127-1.822-7.654-4.438-10.58-7.845
				c-2.928-3.405-5.207-7.485-6.837-12.235c-1.633-4.75-2.447-10.099-2.447-16.049c0-5.852,0.814-11.178,2.447-15.978
				c1.631-4.797,3.909-8.899,6.837-12.307c2.926-3.405,6.453-6.021,10.58-7.845c4.125-1.822,8.684-2.734,13.675-2.734
				c4.988,0,9.522,0.912,13.603,2.734c4.077,1.824,7.604,4.439,10.579,7.845c2.974,3.407,5.277,7.51,6.91,12.307
				c1.63,4.8,2.447,10.126,2.447,15.978c0,5.951-0.816,11.299-2.447,16.049c-1.633,4.75-3.936,8.83-6.91,12.235
				c-2.975,3.408-6.502,6.023-10.579,7.845C1469.892,337.646,1465.357,338.561,1460.369,338.561z M1460.369,328.34
				c6.236,0,11.322-1.918,15.258-5.758c3.934-3.837,5.901-9.69,5.901-17.561V294.37c0-7.867-1.968-13.722-5.901-17.562
				c-3.936-3.836-9.021-5.757-15.258-5.757c-6.239,0-11.324,1.92-15.258,5.757c-3.937,3.84-5.902,9.694-5.902,17.562v10.651
				c0,7.87,1.965,13.724,5.902,17.561C1449.045,326.422,1454.13,328.34,1460.369,328.34z"/>
			<path fill="#333E48" d="M1540.544,338.561c-5.182,0-9.837-0.914-13.962-2.735c-4.127-1.822-7.606-4.413-10.436-7.773
				c-2.832-3.358-4.991-7.435-6.477-12.235c-1.489-4.797-2.231-10.171-2.231-16.122c0-5.949,0.742-11.322,2.231-16.122
				c1.486-4.797,3.646-8.875,6.477-12.235c2.83-3.358,6.309-5.949,10.436-7.772c4.125-1.822,8.78-2.734,13.962-2.734
				c7.388,0,13.314,1.607,17.776,4.821c4.462,3.217,7.795,7.413,10.004,12.595l-9.645,4.895c-1.345-3.837-3.551-6.813-6.621-8.925
				c-3.072-2.109-6.909-3.166-11.515-3.166c-3.455,0-6.478,0.553-9.069,1.655c-2.591,1.104-4.75,2.64-6.477,4.606
				c-1.727,1.968-3.023,4.318-3.886,7.053c-0.864,2.735-1.296,5.736-1.296,8.996v12.667c0,6.527,1.75,11.875,5.254,16.049
				c3.502,4.175,8.659,6.262,15.474,6.262c9.306,0,16.025-4.318,20.152-12.955l8.349,5.614c-2.4,5.375-5.974,9.645-10.724,12.812
				C1553.571,336.977,1547.645,338.561,1540.544,338.561z"/>
			<path fill="#333E48" d="M1591.066,245.142c-2.497,0-4.296-0.598-5.397-1.799c-1.104-1.199-1.655-2.757-1.655-4.679v-1.871
				c0-1.918,0.551-3.478,1.655-4.678c1.102-1.199,2.901-1.8,5.397-1.8c2.494,0,4.294,0.601,5.398,1.8
				c1.102,1.2,1.655,2.759,1.655,4.678v1.871c0,1.921-0.553,3.479-1.655,4.679C1595.36,244.543,1593.561,245.142,1591.066,245.142z
				 M1585.309,262.56h11.516v74.273h-11.516V262.56z"/>
			<path fill="#333E48" d="M1649.219,338.561c-5.087,0-9.669-0.914-13.746-2.735c-4.08-1.822-7.582-4.438-10.508-7.845
				c-2.929-3.405-5.182-7.485-6.766-12.235c-1.583-4.75-2.375-10.099-2.375-16.049c0-5.852,0.792-11.178,2.375-15.978
				c1.584-4.797,3.837-8.899,6.766-12.307c2.926-3.405,6.428-6.021,10.508-7.845c4.077-1.822,8.659-2.734,13.746-2.734
				c4.989,0,9.451,0.908,13.387,2.726c3.934,1.817,7.292,4.329,10.076,7.531c2.782,3.204,4.917,7.005,6.405,11.403
				c1.486,4.399,2.231,9.228,2.231,14.486v5.452h-53.403v3.456c0,3.166,0.504,6.117,1.511,8.852c1.008,2.734,2.447,5.11,4.318,7.125
				c1.872,2.016,4.174,3.599,6.909,4.751c2.735,1.151,5.83,1.727,9.284,1.727c4.701,0,8.803-1.102,12.308-3.311
				c3.501-2.206,6.212-5.373,8.132-9.5l8.205,5.939c-2.399,5.119-6.142,9.246-11.228,12.384
				C1662.269,336.99,1656.223,338.561,1649.219,338.561z M1649.219,270.476c-3.167,0-6.045,0.549-8.636,1.646
				c-2.591,1.098-4.822,2.647-6.693,4.648c-1.871,2.002-3.335,4.363-4.39,7.081c-1.057,2.718-1.583,5.698-1.583,8.941v1.001h41.023
				v-1.574c0-6.581-1.799-11.848-5.398-15.807C1659.942,272.455,1655.168,270.476,1649.219,270.476z"/>
			<path fill="#333E48" d="M1716.727,336.833c-4.03,0-7.078-1.125-9.14-3.374c-2.065-2.249-3.095-5.195-3.095-8.834v-51.846h-12.235
				V262.56h6.909c2.494,0,4.197-0.505,5.11-1.513c0.911-1.007,1.367-2.757,1.367-5.253v-13.819h10.364v20.585h16.266v10.219h-16.266
				v53.835h15.114v10.219H1716.727z"/>
			<path fill="#333E48" d="M1796.614,262.56h11.372l-33.251,91.546c-0.864,2.207-1.728,4.053-2.591,5.542
				c-0.864,1.487-1.921,2.664-3.167,3.527c-1.248,0.864-2.807,1.486-4.678,1.871c-1.872,0.383-4.152,0.576-6.837,0.576h-5.902
				v-10.22h11.659l5.614-15.809l-27.781-77.033h11.516l17.849,50.426l3.455,12.069h0.72l4.03-12.069L1796.614,262.56z"/>
			<g>
				<path fill="#333E48" d="M646.793,477.751l-3.61-11.477h-15.99l-3.546,11.477h-8.641l15.088-45.004h10.574l14.958,45.004H646.793
					z M635.316,440.485h-0.322l-5.738,18.504h11.863L635.316,440.485z"/>
				<path fill="#333E48" d="M692.118,477.751l-3.61-11.477h-15.99l-3.546,11.477h-8.641l15.088-45.004h10.574l14.958,45.004H692.118
					z M680.642,440.485h-0.322l-5.738,18.504h11.863L680.642,440.485z"/>
				<path fill="#333E48" d="M736.155,458.731h-18.763v19.02h-8.511v-45.004h8.511v18.439h18.763v-18.439h8.511v45.004h-8.511
					V458.731z"/>
				<path fill="#333E48" d="M771.036,457.378l-5.996,7.092v13.281h-8.511v-45.004h8.511v22.18h0.322l6.383-8.445l11.154-13.734
					h9.801l-15.668,18.762l16.957,26.242h-10.122L771.036,457.378z"/>
				<path fill="#333E48" d="M809.593,432.747v27.66c0,3.525,0.677,6.168,2.031,7.932c1.354,1.762,3.643,2.643,6.866,2.643
					s5.513-0.881,6.867-2.643c1.354-1.764,2.03-4.406,2.03-7.932v-27.66h8.382v26.564c0,3.311-0.312,6.168-0.935,8.574
					c-0.624,2.408-1.623,4.408-2.998,5.998c-1.376,1.59-3.171,2.762-5.384,3.514c-2.215,0.75-4.891,1.127-8.027,1.127
					c-3.182,0-5.857-0.377-8.027-1.127c-2.171-0.752-3.944-1.924-5.319-3.514c-1.376-1.59-2.364-3.59-2.966-5.998
					c-0.603-2.406-0.902-5.264-0.902-8.574v-26.564H809.593z"/>
				<path fill="#333E48" d="M861.302,478.524c-3.868,0-7.146-0.688-9.833-2.066c-2.687-1.377-4.996-3.186-6.931-5.426l5.738-5.553
					c1.548,1.791,3.277,3.156,5.19,4.094c1.912,0.939,4.029,1.408,6.351,1.408c2.621,0,4.599-0.564,5.932-1.695
					c1.332-1.131,1.999-2.654,1.999-4.574c0-1.494-0.43-2.709-1.289-3.648c-0.86-0.938-2.473-1.619-4.836-2.047l-4.256-0.639
					c-8.984-1.422-13.476-5.789-13.476-13.105c0-2.023,0.376-3.852,1.129-5.486c0.751-1.637,1.837-3.035,3.256-4.197
					s3.127-2.055,5.126-2.68c1.999-0.623,4.266-0.936,6.802-0.936c3.396,0,6.361,0.561,8.898,1.68
					c2.535,1.121,4.706,2.777,6.512,4.975l-5.803,5.492c-1.118-1.363-2.473-2.473-4.063-3.324c-1.591-0.852-3.589-1.279-5.996-1.279
					c-2.45,0-4.287,0.459-5.513,1.375c-1.225,0.916-1.838,2.205-1.838,3.867c0,1.703,0.494,2.961,1.483,3.771
					c0.988,0.809,2.579,1.406,4.771,1.789l4.19,0.773c4.556,0.818,7.92,2.271,10.091,4.357c2.17,2.088,3.256,5.002,3.256,8.746
					c0,2.152-0.377,4.098-1.128,5.842c-0.753,1.742-1.849,3.248-3.289,4.518s-3.202,2.248-5.286,2.938
					C866.405,478.181,864.01,478.524,861.302,478.524z"/>
				<path fill="#333E48" d="M896.054,432.747v27.66c0,3.525,0.677,6.168,2.031,7.932c1.354,1.762,3.643,2.643,6.866,2.643
					s5.513-0.881,6.867-2.643c1.354-1.764,2.03-4.406,2.03-7.932v-27.66h8.382v26.564c0,3.311-0.312,6.168-0.935,8.574
					c-0.624,2.408-1.623,4.408-2.998,5.998c-1.376,1.59-3.171,2.762-5.384,3.514c-2.215,0.75-4.891,1.127-8.027,1.127
					c-3.182,0-5.857-0.377-8.027-1.127c-2.171-0.752-3.944-1.924-5.319-3.514c-1.376-1.59-2.364-3.59-2.966-5.998
					c-0.603-2.406-0.902-5.264-0.902-8.574v-26.564H896.054z"/>
			</g>
		</g>
	</g>
</g>
</svg>
