<?xml version="1.0" encoding="utf-8"?>
<!-- Generator: Adobe Illustrator 16.0.0, SVG Export Plug-In . SVG Version: 6.00 Build 0)  -->
<!DOCTYPE svg PUBLIC "-//W3C//DTD SVG 1.0//EN" "http://www.w3.org/TR/2001/REC-SVG-20010904/DTD/svg10.dtd">
<svg version="1.0" id="Logotypes" xmlns="http://www.w3.org/2000/svg" xmlns:xlink="http://www.w3.org/1999/xlink" x="0px" y="0px"
	 width="2893.973px" height="711.559px" viewBox="0 0 2893.973 711.559" enable-background="new 0 0 2893.973 711.559"
	 xml:space="preserve">
<g>
	<defs>
		<rect id="SVGID_115_" width="2893.973" height="711.559"/>
	</defs>
	<clipPath id="SVGID_2_">
		<use xlink:href="#SVGID_115_"  overflow="visible"/>
	</clipPath>
	<g clip-path="url(#SVGID_2_)">
		<text transform="matrix(1.0154 0 0 1 1550.2686 556.8516)" fill="#A49B4B" font-family="'FiraSans-Bold'" font-size="40">Session 2017–2018</text>
		
			<text transform="matrix(1.0154 0 0 1 455.0313 566.9307)" fill="#A49B4B" font-family="'NotoSansCJKtc-Medium-B5pc-H'" font-size="40" letter-spacing="2.955">二零一七至二零一八年度</text>
		<g>
			<g>
				<g>
					<path fill="#A49B4B" d="M1093.705,271.571c-9.104,21.529-14.518,44.147-16.168,67.425c3.588-2.92,8.159-4.678,13.136-4.678
						c5.496,0,10.488,2.152,14.217,5.636c7.338-95.591,87.224-170.869,184.695-170.869c7.554,0,13.677-6.121,13.677-13.675
						c0-7.553-6.123-13.675-13.677-13.675c-28.687,0-56.532,5.625-82.761,16.718c-25.318,10.71-48.054,26.033-67.565,45.549
						C1119.741,223.52,1104.414,246.253,1093.705,271.571z"/>
					<path fill="#A49B4B" d="M1274.446,538.965c-94.952-7.685-169.668-86.964-170.097-183.794c0-7.552-6.122-13.677-13.677-13.677
						c-7.553,0-13.675,6.125-13.675,13.677c0.109,28.393,5.723,55.952,16.707,81.927c10.709,25.315,26.036,48.051,45.554,67.564
						c19.512,19.519,42.247,34.843,67.565,45.554c21.255,8.988,43.571,14.385,66.538,16.109c-2.889-3.578-4.628-8.121-4.628-13.067
						C1268.734,547.724,1270.916,542.7,1274.446,538.965z"/>
					<path fill="#A49B4B" d="M1437.783,487.407c-2.671-2.671-6.168-4.006-9.668-4.006s-7,1.335-9.672,4.006
						c-33.342,32.29-78.774,52.176-128.858,52.176c-7.552,0-13.674,6.122-13.674,13.675s6.122,13.675,13.674,13.675
						c28.692,0,56.536-5.624,82.766-16.717c24.407-10.322,46.398-24.949,65.433-43.469
						C1443.127,501.408,1443.127,492.748,1437.783,487.407z"/>
					<path fill="#A49B4B" d="M1289.585,141.731c-28.69,0-56.53,5.63-82.761,16.72c-25.319,10.71-48.05,26.03-67.569,45.551
						c-19.511,19.52-34.84,42.25-45.551,67.569c-9.1,21.53-14.52,44.151-16.17,67.42c3.591-2.92,8.16-4.67,13.141-4.67
						c5.49,0,10.49,2.151,14.21,5.63c7.34-95.59,87.229-170.869,184.7-170.869c7.55,0,13.68-6.12,13.68-13.671
						C1303.265,147.861,1297.135,141.731,1289.585,141.731z M1274.444,538.962c-94.95-7.681-169.67-86.96-170.09-183.79
						c0-7.551-6.13-13.681-13.68-13.681s-13.681,6.13-13.681,13.681c0.11,28.39,5.73,55.949,16.71,81.93
						c10.711,25.31,26.04,48.05,45.551,67.56c19.52,19.521,42.25,34.841,67.569,45.551c21.25,8.989,43.57,14.39,66.54,16.109
						c-2.89-3.569-4.63-8.12-4.63-13.06C1268.734,547.723,1270.915,542.701,1274.444,538.962z M1437.784,487.411
						c-2.67-2.68-6.17-4.01-9.67-4.01s-7,1.33-9.67,4.01c-33.34,32.29-78.779,52.171-128.859,52.171
						c-7.551,0-13.67,6.119-13.67,13.68c0,7.55,6.119,13.67,13.67,13.67c28.689,0,56.54-5.62,82.77-16.72
						c24.4-10.32,46.39-24.94,65.43-43.46C1443.125,501.411,1443.125,492.752,1437.784,487.411z"/>
				</g>
				<g>
					<g>
						<g>
							<path fill="#A49B4B" d="M1402.165,241.752c-30.061-30.07-70.051-46.631-112.58-46.631c-42.53,0-82.511,16.561-112.58,46.631
								c-30.07,30.069-46.641,70.06-46.641,112.58c0,42.529,16.57,82.51,46.641,112.59c30.069,30.069,70.05,46.631,112.58,46.631
								c42.529,0,82.52-16.562,112.58-46.631c30.079-30.08,46.63-70.061,46.63-112.59
								C1448.795,311.812,1432.244,271.821,1402.165,241.752z M1199.715,310.462h-12.95v87.75h12.95v7.609h-22.34V302.842h22.34
								V310.462z M1217.345,405.821v-72.729c0-6.26-0.11-11.931-0.33-17.021c-0.21-5.09-0.53-9.5-0.96-13.229h13.189v72.41
								c0,2.06,0.03,4.479,0.101,7.27c0.06,2.79,0.149,5.62,0.26,8.5c0.1,2.87,0.23,5.62,0.38,8.24c0.15,2.609,0.33,4.8,0.55,6.56
								H1217.345z M1286.854,348.611h-12.1v48.78h12.1v8.43h-36.04v-8.43h11.9v-48.78h-11.9v-8.439h36.04V348.611z
								 M1363.125,398.741c0,7.25-0.641,13.271-1.9,18.062c-1.271,4.779-3.04,8.599-5.31,11.449
								c-2.271,2.859-5.011,4.88-8.211,6.051c-3.189,1.179-6.739,1.769-10.649,1.769c-1.93,0-4-0.31-6.21-0.93
								s-4.22-1.49-6.021-2.61l4.19-9.649c0.979,0.729,2.3,1.341,3.95,1.83c1.66,0.5,3.34,0.739,5.05,0.739
								c2.07,0,3.91-0.33,5.54-0.989c1.63-0.67,3.01-1.841,4.149-3.511c1.141-1.67,2.011-3.97,2.61-6.89
								c0.601-2.92,0.9-6.63,0.9-11.13v-28.33c0-5.14-0.271-9.32-0.8-12.51c-0.54-3.2-1.351-5.69-2.421-7.471
								c-1.069-1.779-2.409-2.97-4.02-3.568c-1.61-0.602-3.49-0.901-5.63-0.901c-2.32,0-4.58,0.55-6.79,1.641
								c-2.21,1.09-4.24,2.511-6.09,4.25c-1.84,1.729-3.471,3.699-4.891,5.89c-1.409,2.18-2.46,4.371-3.149,6.56v37.33h-11.91
								v-39.58c0-6.35-0.36-11.72-1.09-16.12c-0.73-4.398-1.44-7.71-2.13-9.949h11.59c0.26,0.689,0.51,1.58,0.77,2.68
								c0.261,1.09,0.49,2.24,0.71,3.44c0.21,1.199,0.41,2.38,0.58,3.54l0.51,2.891c4.12-4.891,8.261-8.42,12.431-10.581
								c4.16-2.169,8.5-3.26,13-3.26c3.43,0,6.47,0.569,9.1,1.71c2.641,1.14,4.87,2.939,6.67,5.41s3.16,5.659,4.08,9.59
								c0.931,3.93,1.391,8.649,1.391,14.189V398.741z M1401.795,405.821h-22.33v-7.609h12.939v-87.75h-12.939v-7.62h22.33V405.821z
								"/>
						</g>
					</g>
				</g>
			</g>
		</g>
		<g>
			<g>
				<path fill="#A49B4B" d="M196.728,379.628h-54.993v-9.129h54.993V379.628z M189.57,476.833h-9.421v-10.006h-21.983v10.006h-9.567
					v-49.369h40.972V476.833z M189.132,398.47l-40.387,0.146v-9.129h40.387V398.47z M189.278,417.604h-40.533v-9.129h40.533V417.604
					z M187.452,361.077l-37.1,0.146v-9.128h37.1V361.077z M180.149,457.846v-21.399h-22.129v21.399H180.149z M274.506,417.751
					l-78.947,0.145v-8.982h19.572l4.236-22.565h-18.258v-8.983h19.719l3.14-16.725h-27.971v-9.128h72.521v8.981h-34.69
					l-2.994,16.726h30.09l-3.141,31.548h16.724V417.751z M261.798,477.126h-9.42v-9.859h-36.955v9.859h-9.566V427.61h55.941V477.126
					z M252.378,458.282v-21.688h-37.101v21.688H252.378z M250.917,386.2h-21.691l-4.234,22.713h23.662L250.917,386.2z"/>
				<path fill="#A49B4B" d="M439.178,379.628H306.406v-9.129h132.771V379.628z M419.605,398.323h-94.943v-8.836h94.943V398.323z
					 M419.605,417.312h-94.943v-8.836h94.943V417.312z M416.172,477.126h-9.42v-10.299h-68.504v10.299h-9.422v-49.662h87.346
					V477.126z M416.027,360.128l-86.471,0.22v-8.836h86.471V360.128z M406.752,457.846v-21.399h-68.504v21.399H406.752z"/>
				<path fill="#A49B4B" d="M603.851,450.688H545.06v10.15c0,10.857-5.77,16.287-17.311,16.287h-9.713l-3.578-8.982h13.584
					c4.771,0,7.158-2.193,7.158-6.574v-10.881h-64.123v-9.129H535.2v-6.281c10.174-3.799,17.453-7.351,21.836-10.662h-55.943v-8.4
					h72.158v7.962c-7.598,5.161-16.994,10.442-28.191,15.847v1.535h58.791V450.688z M597.716,423.594h-8.766v-15.118H486.927v15.994
					h-9.569v-24.539h12.562V355.38c6.912-0.68,14.486-3.967,22.715-9.857l4.82,6.719c-4.434,4.09-10.471,7.182-18.113,9.275v6.135
					h18.695v7.596h-18.695v7.959h18.695v7.449h-18.695v9.275h77.633v-9.275h-17.82v-7.303h17.82v-8.545H559.3v-7.449h17.674v-7.961
					h-20.668v-8.836h29.943v49.223h11.467V423.594z M556.306,366.921l-5.111,6.279c-2.777-2.676-6.551-5.574-11.32-8.688
					c-3.943,3.31-8.375,6.353-13.293,9.128l-5.988-5.26c4.723-1.945,8.859-4.234,12.416-6.863
					c-5.941-2.24-10.736-3.798-14.389-4.673l3.727-6.722c5.402,1.363,10.832,3.117,16.285,5.258
					c3.457-3.26,6.354-6.596,8.691-10.004l6.135,4.893c-1.949,3.02-4.48,5.965-7.596,8.838
					C549.464,361.149,552.946,363.755,556.306,366.921z M557.181,393.503l-6.133,4.82c-3.943-3.017-8.035-5.525-12.27-7.521
					c-2.629,1.995-7.303,4.504-14.021,7.521l-5.551-4.381c6.279-2.969,10.783-5.551,13.512-7.742
					c-2.729-1.703-6.865-3.602-12.416-5.697l5.477-4.6c5.014,1.803,9.299,3.676,12.854,5.623c1.361-0.777,4.113-3.115,8.252-7.012
					l6.719,3.434c-2.482,3.213-5.256,5.867-8.324,7.961C549.319,387.759,553.286,390.29,557.181,393.503z"/>
				<path fill="#A49B4B" d="M768.375,450.688h-58.791v10.15c0,10.857-5.77,16.287-17.309,16.287h-9.713l-3.578-8.982h13.584
					c4.77,0,7.156-2.193,7.156-6.574v-10.881h-64.121v-9.129h64.121v-6.281c10.176-3.799,17.453-7.351,21.838-10.662h-55.943v-8.4
					h72.156v7.962c-7.596,5.161-16.994,10.442-28.191,15.847v1.535h58.791V450.688z M762.242,423.594h-8.768v-15.118H651.451v15.994
					h-9.566v-24.539h12.561V355.38c6.914-0.68,14.484-3.967,22.713-9.857l4.82,6.719c-4.43,4.09-10.469,7.182-18.113,9.275v6.135
					h18.697v7.596h-18.697v7.959h18.697v7.449h-18.697v9.275h77.633v-9.275H723.68v-7.303h17.818v-8.545h-17.674v-7.449h17.674
					v-7.961H720.83v-8.836h29.943v49.223h11.469V423.594z M723.432,391.864l-6.654,6.084c-3.037-4.562-7.383-10.275-11.586-13.824
					c-6.533,7.279-11.906,11.912-16.105,13.895l-6.584-5.529c4.949-2.355,10.316-6.752,16.107-13.203
					c-6.584-4.102-11.275-6.637-14.076-7.605l5.744-5.941c2.334,0.922,6.719,3.317,13.166,7.189
					c1.916-3.135,3.406-6.568,4.48-10.301h-21.99v-8.639h11.789v-8.896h7.566v8.896h13.992v8.639h-2.77
					c-1.555,5.718-3.646,10.67-6.275,14.863C715.326,381.36,720.211,387.257,723.432,391.864z"/>
				<path fill="#A49B4B" d="M935.311,379.337l-5.258,7.594c-16.604-4.09-29.602-8.813-38.998-14.168v6.574h-49.371v-7.232
					c-14.217,7.354-26.973,12.15-38.27,14.389l-4.818-7.668c27.361-6.67,50.146-17.82,68.357-33.449l8.982,2.994
					c-0.975,1.217-1.826,2.07-2.557,2.555C889.543,364.364,910.188,373.835,935.311,379.337z M919.754,421.183H813.713v-34.252
					h106.041V421.183z M911.064,477.271h-8.982v-5.842h-70.549v5.842h-8.982v-48.42h88.514V477.271z M862.352,413.296v-18.258
					h-39.656v18.258H862.352z M902.082,446.307v-9.42h-70.549v9.42H902.082z M902.082,463.542v-9.568h-70.549v9.568H902.082z
					 M852.639,406.065l-7.521,5.258c-4.527-4.574-8.959-7.959-13.293-10.15l7.596-4.383
					C844.58,398.981,848.986,402.073,852.639,406.065z M888.061,371.229c-7.061-3.699-13.902-8.691-20.523-14.973
					c-7.061,5.844-14.971,10.834-23.734,14.973H888.061z M910.773,413.296v-18.258h-39.438v18.258H910.773z M901.936,399.348
					c-2.873,4.575-7.207,8.472-13,11.685l-8.033-4.018c6.379-3.602,10.76-7.205,13.145-10.809L901.936,399.348z"/>
			</g>
			<g>
				<path fill="#A49B4B" d="M197.415,260.241l-2.789,3.211c-8.36-2.939-16.32-8.119-23.881-15.541l0.061,11.73h14.01v25.801h-3.811
					v-3.449h-24.27v3.449h-3.932v-25.801h14.07v-11.73c-4.119,6.301-11.561,11.23-22.32,14.791l-2.819-3.18
					c9.54-2.521,16.36-6.391,20.46-11.611h-17.07v-3.75h21.75v-5.789c-4.779,0.48-10.779,0.83-18,1.049l-2.58-3.629
					c17.061-0.061,30.681-1.489,40.861-4.291l2.88,2.881c-5.66,1.52-12.07,2.689-19.229,3.51v6.27h22.05v3.75l-17.19-0.059
					C182.025,253.372,189.275,257.503,197.415,260.241z M181.005,268.673v-5.281h-24.33v5.281H181.005z M181.005,278.303v-5.94
					h-24.33v5.94H181.005z"/>
				<path fill="#A49B4B" d="M213.017,263.001c-2.521,7.822-5.821,14.232-9.9,19.232l3.51,2.221
					c4.539-5.723,7.881-12.131,10.021-19.23L213.017,263.001z M206.687,246.353l-2.521,3.15c3.98,1.699,7.131,4.139,9.453,7.318
					l2.637-3.568C214.177,250.473,210.987,248.173,206.687,246.353z M209.625,232.913l-2.819,2.879
					c3.84,1.379,6.87,3.701,9.092,6.959l2.818-3.028C216.575,236.622,213.545,234.353,209.625,232.913z"/>
				<path fill="#A49B4B" d="M248.837,272.124v-11.313c2.379,2.241,4.939,4.08,7.682,5.521l2.46-3.332
					c-5.241-2.238-9.323-5.778-12.241-10.619h10.258v-3.689h-9.808v-7.17h7.409v-3.691h-7.409v-6.328h-3.812v6.389h-11.129v-6.389
					h-3.813v6.389h-7.378v3.689h7.44v7.17h-9.781v3.691h9.9c-2.219,4.16-6.23,7.621-12.029,10.379l2.818,3.33
					c1.715-0.994,3.295-2.074,4.74-3.238v16.08c0,3.439,1.721,5.16,5.16,5.16h19.65c1.602,0,2.866-0.531,3.795-1.59
					c0.932-1.061,1.656-3.15,2.176-6.27l-3.869-1.74c-0.262,2.5-0.64,4.098-1.141,4.799c-0.5,0.701-1.17,1.051-2.01,1.051h-18.301
					c-1.102,0-1.648-0.551-1.648-1.652v-6.627H248.837z M232.247,241.522h11.189v7.17h-11.189V241.522z M232.605,252.382h10.2
					c0.982,2.32,2.461,4.591,4.44,6.813h-19.05C230.356,256.813,231.827,254.542,232.605,252.382z M227.958,262.882h17.069v5.611
					h-17.069V262.882z"/>
				<path fill="#A49B4B" d="M320.178,282.442l-2.789,3.119c-12.502-6.818-20.441-18.309-23.822-34.468
					c-4.18,16.419-12.699,27.909-25.559,34.468l-3.031-3.568c12.74-6.201,20.811-16.48,24.211-30.842h-20.4v-3.869h20.85
					c0.381-3.76,0.539-9.021,0.48-15.781l4.17,0.602c0.1,6.12-0.02,11.16-0.359,15.12h22.74v3.871h-18.93
					C300.137,264.792,307.617,275.243,320.178,282.442z"/>
				<path fill="#A49B4B" d="M381.35,274.642h-24.15v4.172c0,4.459-2.371,6.689-7.111,6.689h-3.99l-1.469-3.689h5.58
					c1.959,0,2.939-0.9,2.939-2.701v-4.471h-26.34v-3.75h26.34v-2.58c4.18-1.559,7.17-3.02,8.971-4.379h-22.98v-3.451h29.641v3.27
					c-3.121,2.121-6.98,4.291-11.58,6.512v0.629h24.15V274.642z M378.83,263.513h-3.6v-6.21h-41.912v6.569h-3.93v-10.08h5.16
					v-18.301c2.84-0.279,5.949-1.629,9.33-4.049l1.979,2.76c-1.818,1.68-4.299,2.949-7.439,3.811v2.52h7.68v3.119h-7.68v3.271h7.68
					v3.059h-7.68v3.811h31.891v-3.811h-7.32v-3h7.32v-3.509h-7.26v-3.062h7.26v-3.27h-8.49v-3.629h12.301v20.219h4.711V263.513z
					 M361.818,240.231l-2.1,2.58c-1.141-1.1-2.689-2.289-4.65-3.57c-1.619,1.361-3.439,2.611-5.459,3.75l-2.461-2.158
					c1.939-0.801,3.641-1.739,5.1-2.82c-2.439-0.919-4.41-1.561-5.91-1.922l1.531-2.76c2.219,0.561,4.449,1.281,6.689,2.16
					c1.42-1.338,2.609-2.709,3.57-4.109l2.52,2.01c-0.801,1.24-1.84,2.452-3.119,3.631
					C359.008,237.86,360.438,238.933,361.818,240.231z M362.18,251.151l-2.521,1.98c-1.619-1.24-3.299-2.27-5.039-3.09
					c-1.08,0.82-3,1.85-5.76,3.09l-2.281-1.801c2.58-1.219,4.43-2.278,5.551-3.18c-1.121-0.699-2.82-1.479-5.1-2.34l2.248-1.891
					c2.061,0.74,3.822,1.512,5.281,2.311c0.561-0.32,1.689-1.279,3.391-2.879l2.76,1.41c-1.02,1.318-2.16,2.41-3.42,3.27
					C358.949,248.792,360.578,249.831,362.18,251.151z"/>
				<path fill="#A49B4B" d="M442.791,274.642h-24.15v4.172c0,4.459-2.371,6.689-7.111,6.689h-3.988l-1.471-3.689h5.58
					c1.959,0,2.939-0.9,2.939-2.701v-4.471h-26.34v-3.75h26.34v-2.58c4.18-1.559,7.17-3.02,8.971-4.379h-22.98v-3.451h29.641v3.27
					c-3.121,2.121-6.98,4.291-11.58,6.512v0.629h24.15V274.642z M440.271,263.513h-3.602v-6.21h-41.91v6.569h-3.93v-10.08h5.16
					v-18.301c2.84-0.279,5.949-1.629,9.33-4.049l1.98,2.76c-1.82,1.68-4.301,2.949-7.441,3.811v2.52h7.682v3.119h-7.682v3.271h7.682
					v3.059h-7.682v3.811h31.891v-3.811h-7.32v-3h7.32v-3.509h-7.26v-3.062h7.26v-3.27h-8.49v-3.629h12.301v20.219h4.711V263.513z
					 M423.26,240.231l-2.1,2.58c-1.141-1.1-2.691-2.289-4.65-3.57c-1.619,1.361-3.439,2.611-5.459,3.75l-2.461-2.158
					c1.939-0.801,3.641-1.739,5.1-2.82c-2.439-0.919-4.41-1.561-5.91-1.922l1.531-2.76c2.219,0.561,4.449,1.281,6.689,2.16
					c1.42-1.338,2.609-2.709,3.57-4.109l2.52,2.01c-0.801,1.24-1.84,2.452-3.119,3.631
					C420.451,237.86,421.881,238.933,423.26,240.231z M423.621,251.151l-2.521,1.98c-1.619-1.24-3.299-2.27-5.039-3.09
					c-1.08,0.82-3,1.85-5.762,3.09l-2.279-1.801c2.58-1.219,4.43-2.278,5.551-3.18c-1.121-0.699-2.82-1.479-5.1-2.34l2.25-1.891
					c2.059,0.74,3.818,1.512,5.279,2.311c0.561-0.32,1.689-1.279,3.391-2.879l2.76,1.41c-1.02,1.318-2.16,2.41-3.42,3.27
					C420.391,248.792,422.02,249.831,423.621,251.151z"/>
				<path fill="#A49B4B" d="M504.231,282.503h-54.601v-3.869h25.441v-14.072H456.74v-3.869h18.332v-12.24H461.48
					c-1.639,4.26-4.379,8.189-8.219,11.789l-3.961-2.07c6.561-6.059,10.209-13.479,10.95-22.26l4.05,1.17
					c-0.16,2.041-0.629,4.561-1.408,7.561h12.117v-13.141h4.053v13.08h21.179v3.871h-21.179v12.18h18.06v3.869h-18.06v14.072h25.169
					V282.503z"/>
				<path fill="#A49B4B" d="M566.663,245.331l-2.16,3.121c-6.82-1.68-12.16-3.619-16.02-5.82v2.699h-20.281v-2.969
					c-5.84,3.02-11.08,4.99-15.721,5.91l-1.979-3.15c11.238-2.74,20.6-7.319,28.08-13.74l3.689,1.23c-0.4,0.5-0.75,0.85-1.049,1.049
					C547.862,239.183,556.343,243.071,566.663,245.331z M560.274,262.522h-43.563v-14.07h43.563V262.522z M556.704,285.562h-3.691
					v-2.398h-28.98v2.398h-3.689v-19.889h36.361V285.562z M536.692,259.282v-7.5h-16.291v7.5H536.692z M553.013,272.844v-3.871
					h-28.98v3.871H553.013z M553.013,279.923v-3.93h-28.98v3.93H553.013z M532.702,256.312l-3.09,2.161
					c-1.859-1.879-3.68-3.271-5.461-4.17l3.121-1.8C529.392,253.401,531.202,254.673,532.702,256.312z M547.253,242.003
					c-2.9-1.52-5.711-3.57-8.432-6.152c-2.898,2.4-6.148,4.452-9.748,6.152H547.253z M556.583,259.282v-7.5h-16.199v7.5H556.583z
					 M552.952,253.553c-1.18,1.88-2.959,3.479-5.34,4.8l-3.299-1.65c2.619-1.479,4.42-2.961,5.398-4.439L552.952,253.553z"/>
				<path fill="#A49B4B" d="M627.745,281.632l-2.641,3.512c-10.18-3-18.441-7.041-24.779-12.121
					c-5.463,4.461-14.041,8.58-25.742,12.361l-2.939-3.57c11.32-3.141,19.881-6.951,25.682-11.432
					c-5.82-5.5-9.732-12.189-11.73-20.07c-1.08,2.782-2.563,5.42-4.441,7.92l-3.178-2.908c2.52-3.002,4.547-6.291,6.088-9.871
					h-10.32v-3.689h24.063v-10.262h3.869v10.201h24.48v3.689h-10.262c-1.799,10.441-5.938,18.75-12.42,24.93
					C609.374,274.803,617.464,278.573,627.745,281.632z M611.874,245.392h-23.219c1.598,9.26,5.508,16.711,11.729,22.352
					C606.464,262.083,610.294,254.632,611.874,245.392z"/>
				<path fill="#A49B4B" d="M688.557,274.642h-24.152v4.172c0,4.459-2.369,6.689-7.109,6.689h-3.99l-1.469-3.689h5.578
					c1.961,0,2.941-0.9,2.941-2.701v-4.471h-26.339v-3.75h26.339v-2.58c4.18-1.559,7.17-3.02,8.969-4.379h-22.98v-3.451h29.641v3.27
					c-3.119,2.121-6.98,4.291-11.58,6.512v0.629h24.152V274.642z M686.037,263.513h-3.602v-6.21h-41.912v6.569h-3.93v-10.08h5.16
					v-18.301c2.84-0.279,5.951-1.629,9.332-4.049l1.979,2.76c-1.818,1.68-4.301,2.949-7.441,3.811v2.52h7.682v3.119h-7.682v3.271
					h7.682v3.059h-7.682v3.811h31.893v-3.811h-7.322v-3h7.322v-3.509h-7.26v-3.062h7.26v-3.27h-8.49v-3.629h12.299v20.219h4.713
					V263.513z M669.025,240.231l-2.102,2.58c-1.139-1.1-2.689-2.289-4.648-3.57c-1.621,1.361-3.441,2.611-5.461,3.75l-2.459-2.158
					c1.939-0.801,3.639-1.739,5.1-2.82c-2.441-0.919-4.412-1.561-5.91-1.922l1.531-2.76c2.219,0.561,4.449,1.281,6.689,2.16
					c1.42-1.338,2.609-2.709,3.568-4.109l2.521,2.01c-0.801,1.24-1.842,2.452-3.119,3.631
					C666.215,237.86,667.645,238.933,669.025,240.231z M669.385,251.151l-2.52,1.98c-1.619-1.24-3.301-2.27-5.041-3.09
					c-1.08,0.82-3,1.85-5.76,3.09l-2.281-1.801c2.582-1.219,4.432-2.278,5.551-3.18c-1.119-0.699-2.82-1.479-5.1-2.34l2.25-1.891
					c2.061,0.74,3.82,1.512,5.281,2.311c0.561-0.32,1.689-1.279,3.389-2.879l2.76,1.41c-1.02,1.318-2.158,2.41-3.418,3.27
					C666.154,248.792,667.783,249.831,669.385,251.151z"/>
				<path fill="#A49B4B" d="M709.074,251.901c4.041,4.541,6.063,8.971,6.063,13.291c0,2.1-0.545,3.77-1.637,5.01
					c-1.088,1.24-2.613,1.861-4.574,1.861c-1.08,0-2.381-0.131-3.9-0.391l-1.109-3.99c2.141,0.541,3.68,0.811,4.619,0.811
					c0.779,0,1.49-0.301,2.131-0.899c0.641-0.601,0.961-1.401,0.961-2.401c0-1.5-0.551-3.42-1.65-5.76
					c-1.102-2.339-2.752-4.57-4.951-6.689l5.852-15.031h-8.91v47.791h-3.932v-51.602h16.83v3.811L709.074,251.901z M750.447,274.493
					c-0.521,3.24-1.221,5.59-2.102,7.049c-0.879,1.461-2.311,2.191-4.289,2.191h-4.68c-3.121,0-4.68-1.64-4.68-4.92v-15.871h-6.332
					c-0.119,6.439-1.375,11.266-3.764,14.475c-2.391,3.211-6.824,5.906-13.307,8.086l-2.52-3.45c6.02-1.78,10.15-4.08,12.391-6.901
					c2.24-2.818,3.369-6.869,3.391-12.148h-8.221v-3.932h32.133v3.871h-10.023v14.941c0,0.498,0.16,0.965,0.48,1.395
					s0.701,0.645,1.141,0.645h3.811c0.779,0,1.375-0.641,1.785-1.92c0.408-1.279,0.754-2.939,1.035-4.98L750.447,274.493z
					 M746.996,247.282l-3.809,0.062v-5.282h-22.621v5.282h-3.871v-9.093h13.17v-6.809h3.932v6.75h13.199V247.282z M741.957,253.071
					h-20.281v-3.93h20.281V253.071z"/>
				<path fill="#A49B4B" d="M811.439,274.642h-24.152v4.172c0,4.459-2.371,6.689-7.109,6.689h-3.99l-1.471-3.689h5.58
					c1.961,0,2.941-0.9,2.941-2.701v-4.471h-26.342v-3.75h26.342v-2.58c4.18-1.559,7.17-3.02,8.969-4.379h-22.98v-3.451h29.641v3.27
					c-3.119,2.121-6.98,4.291-11.58,6.512v0.629h24.152V274.642z M808.918,263.513h-3.6v-6.21h-41.91v6.569h-3.932v-10.08h5.162
					v-18.301c2.838-0.279,5.949-1.629,9.328-4.049l1.98,2.76c-1.82,1.68-4.299,2.949-7.439,3.811v2.52h7.68v3.119h-7.68v3.271h7.68
					v3.059h-7.68v3.811h31.891v-3.811h-7.32v-3h7.32v-3.509h-7.26v-3.062h7.26v-3.27h-8.49v-3.629h12.299v20.219h4.711V263.513z
					 M791.908,240.231l-2.102,2.58c-1.141-1.1-2.689-2.289-4.65-3.57c-1.619,1.361-3.439,2.611-5.459,3.75l-2.461-2.158
					c1.941-0.801,3.643-1.739,5.102-2.82c-2.441-0.919-4.41-1.561-5.91-1.922l1.529-2.76c2.221,0.561,4.451,1.281,6.689,2.16
					c1.42-1.338,2.611-2.709,3.572-4.109l2.52,2.01c-0.801,1.24-1.842,2.452-3.121,3.631
					C789.098,237.86,790.527,238.933,791.908,240.231z M792.268,251.151l-2.52,1.98c-1.621-1.24-3.301-2.27-5.039-3.09
					c-1.082,0.82-3,1.85-5.762,3.09l-2.279-1.801c2.58-1.219,4.43-2.278,5.551-3.18c-1.121-0.699-2.822-1.479-5.102-2.34l2.25-1.891
					c2.061,0.74,3.82,1.512,5.279,2.311c0.561-0.32,1.689-1.279,3.391-2.879l2.76,1.41c-1.02,1.318-2.16,2.41-3.42,3.27
					C789.037,248.792,790.668,249.831,792.268,251.151z"/>
				<path fill="#A49B4B" d="M872.879,282.503h-54.6v-3.869h25.439v-14.072h-18.33v-3.869h18.33v-12.24h-13.59
					c-1.641,4.26-4.381,8.189-8.221,11.789l-3.959-2.07c6.559-6.059,10.209-13.479,10.949-22.26l4.051,1.17
					c-0.16,2.041-0.631,4.561-1.412,7.561h12.123v-13.141h4.049v13.08h21.18v3.871h-21.18v12.18h18.061v3.869h-18.061v14.072h25.17
					V282.503z"/>
				<path fill="#A49B4B" d="M935.311,245.331l-2.158,3.121c-6.82-1.68-12.162-3.619-16.021-5.82v2.699H896.85v-2.969
					c-5.84,3.02-11.08,4.99-15.719,5.91l-1.98-3.15c11.24-2.74,20.6-7.319,28.08-13.74l3.689,1.23c-0.4,0.5-0.75,0.85-1.049,1.049
					C916.51,239.183,924.992,243.071,935.311,245.331z M928.922,262.522h-43.561v-14.07h43.561V262.522z M925.352,285.562h-3.691
					v-2.398h-28.98v2.398h-3.689v-19.889h36.361V285.562z M905.34,259.282v-7.5h-16.289v7.5H905.34z M921.66,272.844v-3.871h-28.98
					v3.871H921.66z M921.66,279.923v-3.93h-28.98v3.93H921.66z M901.35,256.312l-3.09,2.161c-1.859-1.879-3.68-3.271-5.459-4.17
					l3.119-1.8C898.041,253.401,899.85,254.673,901.35,256.312z M915.9,242.003c-2.9-1.52-5.709-3.57-8.43-6.152
					c-2.902,2.4-6.15,4.452-9.75,6.152H915.9z M925.23,259.282v-7.5h-16.199v7.5H925.23z M921.602,253.553
					c-1.182,1.88-2.961,3.479-5.342,4.8l-3.299-1.65c2.619-1.479,4.42-2.961,5.4-4.439L921.602,253.553z"/>
			</g>
		</g>
		<g>
			<path fill="#A49B4B" d="M1561.928,336.833V236.361h12.091v89.819h42.751v10.652H1561.928z"/>
			<path fill="#A49B4B" d="M1638.647,245.142c-2.497,0-4.296-0.598-5.397-1.798c-1.104-1.2-1.656-2.758-1.656-4.68v-1.871
				c0-1.919,0.552-3.478,1.656-4.679c1.102-1.198,2.9-1.799,5.397-1.799c2.494,0,4.294,0.601,5.397,1.799
				c1.103,1.201,1.655,2.76,1.655,4.679v1.871c0,1.922-0.553,3.479-1.655,4.68C1642.941,244.544,1641.142,245.142,1638.647,245.142z
				 M1632.89,262.56h11.516v74.273h-11.516V262.56z"/>
			<path fill="#A49B4B" d="M1668.875,336.833V262.56h11.516v11.953h0.576c1.821-4.179,4.39-7.506,7.7-9.975
				c3.312-2.47,7.748-3.707,13.314-3.707c7.677,0,13.747,2.472,18.209,7.413c4.462,4.943,6.693,11.926,6.693,20.944v47.645h-11.515
				v-45.729c0-13.369-5.615-20.052-16.842-20.052c-2.303,0-4.535,0.289-6.693,0.864c-2.159,0.578-4.103,1.443-5.83,2.598
				c-1.727,1.154-3.095,2.62-4.102,4.399c-1.008,1.778-1.512,3.871-1.512,6.274v51.645H1668.875z"/>
			<path fill="#A49B4B" d="M1809.649,334.387c0,10.266-2.879,18.327-8.637,24.181s-13.868,8.781-24.326,8.781
				c-6.046,0-11.253-0.94-15.618-2.818c-4.367-1.883-7.988-4.363-10.867-7.447l6.766-7.952c2.494,2.568,5.373,4.545,8.637,5.927
				c3.261,1.381,7.053,2.07,11.371,2.07c6.716,0,11.922-1.855,15.617-5.563c3.693-3.714,5.542-9.184,5.542-16.411v-10.274h-0.575
				c-2.209,4.562-5.088,7.979-8.637,10.26c-3.552,2.281-7.917,3.421-13.1,3.421c-4.605,0-8.779-0.913-12.522-2.734
				c-3.742-1.822-6.909-4.413-9.5-7.772c-2.591-3.358-4.606-7.436-6.046-12.235c-1.439-4.797-2.158-10.171-2.158-16.122
				c0-5.948,0.719-11.321,2.158-16.121c1.439-4.798,3.455-8.876,6.046-12.235c2.591-3.357,5.758-5.949,9.5-7.772
				c3.743-1.822,7.917-2.735,12.522-2.735c5.183,0,9.619,1.118,13.315,3.35c3.692,2.232,6.499,5.676,8.421,10.332h0.575V262.56
				h11.516V334.387z M1779.277,328.34c2.592,0,5.038-0.337,7.342-1.013c2.303-0.674,4.293-1.664,5.973-2.966
				c1.678-1.3,3.023-2.893,4.031-4.772c1.007-1.881,1.511-4.075,1.511-6.583v-27.632c0-2.024-0.481-3.93-1.439-5.716
				c-0.96-1.783-2.304-3.302-4.03-4.556c-1.728-1.253-3.742-2.241-6.045-2.965c-2.304-0.725-4.75-1.085-7.342-1.085
				c-6.527,0-11.709,2.071-15.545,6.22c-3.84,4.147-5.758,9.5-5.758,16.059v12.729c0,6.559,1.918,11.912,5.758,16.059
				C1767.568,326.267,1772.75,328.34,1779.277,328.34z"/>
			<path fill="#A49B4B" d="M1879.891,324.879h-0.576c-0.769,1.712-1.704,3.398-2.807,5.061c-1.104,1.662-2.471,3.135-4.102,4.417
				c-1.633,1.281-3.599,2.303-5.902,3.063c-2.303,0.76-4.99,1.14-8.061,1.14c-7.678,0-13.771-2.469-18.28-7.413
				c-4.512-4.94-6.766-11.922-6.766-20.942V262.56h11.516v45.728c0,13.368,5.661,20.053,16.985,20.053
				c2.303,0,4.534-0.287,6.693-0.866c2.159-0.575,4.077-1.44,5.758-2.595c1.678-1.154,3.022-2.62,4.029-4.399
				c1.008-1.778,1.512-3.92,1.512-6.422V262.56h11.516v74.273h-11.516V324.879z"/>
			<path fill="#A49B4B" d="M1921.633,245.142c-2.496,0-4.295-0.598-5.397-1.798c-1.104-1.2-1.655-2.758-1.655-4.68v-1.871
				c0-1.919,0.551-3.478,1.655-4.679c1.103-1.198,2.901-1.799,5.397-1.799c2.494,0,4.294,0.601,5.398,1.799
				c1.102,1.201,1.654,2.76,1.654,4.679v1.871c0,1.922-0.553,3.479-1.654,4.68C1925.927,244.544,1924.127,245.142,1921.633,245.142z
				 M1915.875,262.56h11.516v74.273h-11.516V262.56z"/>
			<path fill="#A49B4B" d="M1974.172,338.56c-6.909,0-12.691-1.319-17.345-3.958c-4.655-2.638-8.661-6.165-12.02-10.58l8.204-6.621
				c2.879,3.647,6.094,6.455,9.645,8.42c3.549,1.969,7.677,2.952,12.379,2.952c4.895,0,8.709-1.056,11.443-3.167
				c2.735-2.11,4.103-5.086,4.103-8.925c0-2.878-0.936-5.348-2.807-7.413c-1.872-2.063-5.254-3.477-10.147-4.246l-5.902-0.864
				c-3.455-0.479-6.621-1.223-9.5-2.229c-2.879-1.009-5.397-2.352-7.557-4.031c-2.159-1.678-3.84-3.765-5.038-6.262
				c-1.201-2.494-1.8-5.47-1.8-8.924c0-3.646,0.67-6.837,2.016-9.573c1.343-2.734,3.189-5.012,5.542-6.835
				c2.351-1.823,5.157-3.191,8.42-4.104c3.262-0.911,6.766-1.368,10.509-1.368c6.045,0,11.105,1.058,15.186,3.167
				c4.077,2.112,7.651,5.038,10.724,8.78l-7.63,6.909c-1.633-2.303-4.029-4.39-7.196-6.26c-3.167-1.871-7.149-2.809-11.947-2.809
				c-4.8,0-8.421,1.032-10.868,3.095c-2.446,2.064-3.67,4.872-3.67,8.421c0,3.648,1.224,6.286,3.67,7.918
				c2.447,1.632,5.975,2.83,10.58,3.598l5.758,0.863c8.252,1.248,14.106,3.624,17.561,7.125c3.455,3.505,5.183,8.085,5.183,13.746
				c0,7.197-2.447,12.86-7.341,16.985C1989.43,336.498,1982.711,338.56,1974.172,338.56z"/>
			<path fill="#A49B4B" d="M2037.363,336.833c-4.029,0-7.077-1.125-9.14-3.374c-2.064-2.249-3.095-5.195-3.095-8.835v-51.846
				h-12.235V262.56h6.909c2.494,0,4.197-0.505,5.11-1.513c0.911-1.007,1.367-2.757,1.367-5.253v-13.819h10.364v20.585h16.266v10.219
				h-16.266v53.835h15.113v10.22H2037.363z"/>
			<path fill="#A49B4B" d="M2077.235,245.142c-2.496,0-4.296-0.598-5.397-1.798c-1.104-1.2-1.655-2.758-1.655-4.68v-1.871
				c0-1.919,0.551-3.478,1.655-4.679c1.102-1.198,2.901-1.799,5.397-1.799c2.495,0,4.294,0.601,5.397,1.799
				c1.103,1.201,1.656,2.76,1.656,4.679v1.871c0,1.922-0.554,3.479-1.656,4.68C2081.529,244.544,2079.73,245.142,2077.235,245.142z
				 M2071.478,262.56h11.516v74.273h-11.516V262.56z"/>
			<path fill="#A49B4B" d="M2135.1,338.56c-5.182,0-9.837-0.913-13.962-2.734c-4.127-1.822-7.606-4.413-10.436-7.772
				c-2.832-3.358-4.991-7.436-6.478-12.235c-1.488-4.797-2.23-10.171-2.23-16.122c0-5.948,0.742-11.321,2.23-16.121
				c1.486-4.798,3.646-8.876,6.478-12.235c2.829-3.357,6.309-5.949,10.436-7.772c4.125-1.822,8.78-2.735,13.962-2.735
				c7.389,0,13.315,1.608,17.777,4.822c4.462,3.217,7.795,7.413,10.004,12.595l-9.645,4.895c-1.344-3.836-3.551-6.813-6.621-8.924
				c-3.072-2.11-6.909-3.166-11.516-3.166c-3.454,0-6.477,0.552-9.068,1.653c-2.59,1.104-4.75,2.642-6.477,4.607
				c-1.728,1.967-3.023,4.318-3.887,7.053s-1.296,5.735-1.296,8.995v12.667c0,6.528,1.75,11.876,5.255,16.051
				c3.501,4.174,8.658,6.261,15.473,6.261c9.307,0,16.025-4.318,20.152-12.955l8.349,5.614c-2.399,5.375-5.974,9.645-10.724,12.811
				C2148.127,336.977,2142.201,338.56,2135.1,338.56z"/>
			<path fill="#A49B4B" d="M2202.176,338.56c-6.909,0-12.691-1.319-17.345-3.958c-4.655-2.638-8.661-6.165-12.02-10.58l8.204-6.621
				c2.879,3.647,6.094,6.455,9.645,8.42c3.549,1.969,7.676,2.952,12.379,2.952c4.895,0,8.709-1.056,11.443-3.167
				c2.735-2.11,4.103-5.086,4.103-8.925c0-2.878-0.936-5.348-2.807-7.413c-1.872-2.063-5.254-3.477-10.147-4.246l-5.902-0.864
				c-3.455-0.479-6.621-1.223-9.5-2.229c-2.879-1.009-5.397-2.352-7.557-4.031c-2.159-1.678-3.84-3.765-5.038-6.262
				c-1.201-2.494-1.8-5.47-1.8-8.924c0-3.646,0.67-6.837,2.016-9.573c1.343-2.734,3.189-5.012,5.542-6.835
				c2.351-1.823,5.157-3.191,8.42-4.104c3.261-0.911,6.766-1.368,10.509-1.368c6.045,0,11.105,1.058,15.186,3.167
				c4.077,2.112,7.651,5.038,10.724,8.78l-7.63,6.909c-1.633-2.303-4.029-4.39-7.197-6.26c-3.166-1.871-7.148-2.809-11.946-2.809
				c-4.8,0-8.421,1.032-10.868,3.095c-2.446,2.064-3.67,4.872-3.67,8.421c0,3.648,1.224,6.286,3.67,7.918
				c2.447,1.632,5.975,2.83,10.58,3.598l5.758,0.863c8.252,1.248,14.106,3.624,17.561,7.125c3.455,3.505,5.182,8.085,5.182,13.746
				c0,7.197-2.446,12.86-7.34,16.985C2217.434,336.498,2210.715,338.56,2202.176,338.56z"/>
			<path fill="#A49B4B" d="M2313.298,338.56c-8.157,0-15.114-1.561-20.872-4.678s-10.651-7.413-14.682-12.883l8.924-7.485
				c3.55,4.703,7.485,8.276,11.804,10.724s9.403,3.671,15.258,3.671c7.197,0,12.689-1.728,16.481-5.182
				c3.789-3.455,5.686-8.062,5.686-13.819c0-4.797-1.439-8.492-4.318-11.082c-2.879-2.592-7.629-4.654-14.25-6.19l-8.205-1.871
				c-9.212-2.11-16.242-5.302-21.087-9.571c-4.847-4.27-7.27-10.293-7.27-18.066c0-4.412,0.814-8.348,2.447-11.803
				c1.631-3.454,3.909-6.333,6.837-8.636c2.926-2.304,6.428-4.054,10.508-5.254c4.078-1.199,8.564-1.8,13.459-1.8
				c7.579,0,14.081,1.393,19.504,4.175c5.42,2.785,10.004,6.861,13.746,12.235l-9.068,6.621c-2.784-3.838-6.143-6.86-10.075-9.067
				c-3.937-2.208-8.83-3.312-14.683-3.312c-6.43,0-11.492,1.367-15.186,4.102c-3.695,2.735-5.542,6.838-5.542,12.307
				c0,4.801,1.559,8.422,4.679,10.868c3.117,2.446,7.844,4.391,14.178,5.83l8.205,1.871c9.883,2.209,17.032,5.566,21.447,10.075
				c4.412,4.512,6.621,10.509,6.621,17.993c0,4.606-0.791,8.78-2.375,12.523c-1.584,3.742-3.864,6.909-6.837,9.5
				c-2.976,2.591-6.599,4.606-10.868,6.046C2323.493,337.841,2318.671,338.56,2313.298,338.56z"/>
			<path fill="#A49B4B" d="M2395.632,338.56c-4.991,0-9.55-0.913-13.675-2.734c-4.127-1.822-7.654-4.438-10.58-7.846
				c-2.928-3.404-5.206-7.484-6.837-12.234c-1.633-4.75-2.446-10.099-2.446-16.05c0-5.852,0.813-11.178,2.446-15.977
				c1.631-4.798,3.909-8.9,6.837-12.308c2.926-3.405,6.453-6.021,10.58-7.845c4.125-1.822,8.684-2.735,13.675-2.735
				c4.988,0,9.522,0.913,13.603,2.735c4.077,1.823,7.604,4.439,10.579,7.845c2.974,3.407,5.276,7.51,6.909,12.308
				c1.631,4.799,2.447,10.125,2.447,15.977c0,5.951-0.816,11.3-2.447,16.05c-1.633,4.75-3.936,8.83-6.909,12.234
				c-2.976,3.408-6.502,6.023-10.579,7.846C2405.154,337.646,2400.62,338.56,2395.632,338.56z M2395.632,328.34
				c6.236,0,11.321-1.918,15.258-5.758c3.934-3.837,5.901-9.69,5.901-17.561V294.37c0-7.867-1.968-13.723-5.901-17.562
				c-3.937-3.836-9.021-5.756-15.258-5.756c-6.239,0-11.324,1.92-15.258,5.756c-3.937,3.839-5.901,9.694-5.901,17.562v10.651
				c0,7.87,1.965,13.724,5.901,17.561C2384.308,326.422,2389.393,328.34,2395.632,328.34z"/>
			<path fill="#A49B4B" d="M2475.807,338.56c-5.182,0-9.837-0.913-13.962-2.734c-4.127-1.822-7.606-4.413-10.437-7.772
				c-2.831-3.358-4.99-7.436-6.477-12.235c-1.489-4.797-2.231-10.171-2.231-16.122c0-5.948,0.742-11.321,2.231-16.121
				c1.486-4.798,3.646-8.876,6.477-12.235c2.83-3.357,6.31-5.949,10.437-7.772c4.125-1.822,8.78-2.735,13.962-2.735
				c7.389,0,13.314,1.608,17.777,4.822c4.462,3.217,7.795,7.413,10.004,12.595l-9.645,4.895c-1.345-3.836-3.551-6.813-6.621-8.924
				c-3.072-2.11-6.909-3.166-11.516-3.166c-3.455,0-6.477,0.552-9.068,1.653c-2.591,1.104-4.75,2.642-6.477,4.607
				c-1.728,1.967-3.023,4.318-3.887,7.053s-1.296,5.735-1.296,8.995v12.667c0,6.528,1.75,11.876,5.254,16.051
				c3.502,4.174,8.659,6.261,15.474,6.261c9.307,0,16.025-4.318,20.152-12.955l8.349,5.614c-2.399,5.375-5.974,9.645-10.724,12.811
				C2488.834,336.977,2482.907,338.56,2475.807,338.56z"/>
			<path fill="#A49B4B" d="M2526.329,245.142c-2.497,0-4.296-0.598-5.397-1.798c-1.104-1.2-1.655-2.758-1.655-4.68v-1.871
				c0-1.919,0.551-3.478,1.655-4.679c1.102-1.198,2.9-1.799,5.397-1.799c2.494,0,4.294,0.601,5.397,1.799
				c1.103,1.201,1.656,2.76,1.656,4.679v1.871c0,1.922-0.554,3.479-1.656,4.68C2530.623,244.544,2528.823,245.142,2526.329,245.142z
				 M2520.571,262.56h11.516v74.273h-11.516V262.56z"/>
			<path fill="#A49B4B" d="M2584.481,338.56c-5.087,0-9.669-0.913-13.746-2.734c-4.08-1.822-7.582-4.438-10.508-7.846
				c-2.929-3.404-5.182-7.484-6.766-12.234c-1.583-4.75-2.374-10.099-2.374-16.05c0-5.852,0.791-11.178,2.374-15.977
				c1.584-4.798,3.837-8.9,6.766-12.308c2.926-3.405,6.428-6.021,10.508-7.845c4.077-1.822,8.659-2.735,13.746-2.735
				c4.989,0,9.451,0.908,13.387,2.727c3.934,1.816,7.292,4.329,10.076,7.531c2.782,3.203,4.917,7.005,6.405,11.403
				c1.486,4.399,2.231,9.228,2.231,14.486v5.452h-53.403v3.456c0,3.166,0.504,6.116,1.512,8.851c1.008,2.735,2.447,5.11,4.318,7.125
				c1.871,2.016,4.174,3.599,6.909,4.751c2.735,1.151,5.83,1.727,9.284,1.727c4.701,0,8.803-1.103,12.308-3.311
				c3.501-2.206,6.212-5.373,8.132-9.5l8.205,5.939c-2.399,5.119-6.143,9.246-11.228,12.384
				C2597.531,336.99,2591.485,338.56,2584.481,338.56z M2584.481,270.476c-3.167,0-6.045,0.549-8.636,1.646
				c-2.592,1.098-4.822,2.647-6.693,4.648c-1.871,2.002-3.336,4.363-4.391,7.081c-1.057,2.719-1.584,5.698-1.584,8.941v1.001h41.023
				v-1.574c0-6.581-1.799-11.848-5.397-15.807C2595.205,272.455,2590.431,270.476,2584.481,270.476z"/>
			<path fill="#A49B4B" d="M2651.99,336.833c-4.031,0-7.078-1.125-9.141-3.374c-2.064-2.249-3.095-5.195-3.095-8.835v-51.846
				h-12.235V262.56h6.909c2.494,0,4.197-0.505,5.11-1.513c0.91-1.007,1.367-2.757,1.367-5.253v-13.819h10.363v20.585h16.266v10.219
				h-16.266v53.835h15.114v10.22H2651.99z"/>
			<path fill="#A49B4B" d="M2731.877,262.56h11.372l-33.251,91.546c-0.863,2.207-1.728,4.053-2.591,5.542
				c-0.864,1.486-1.921,2.663-3.167,3.526c-1.248,0.864-2.807,1.487-4.678,1.871c-1.871,0.383-4.152,0.576-6.838,0.576h-5.901
				v-10.22h11.659l5.614-15.808l-27.781-77.034h11.516l17.849,50.426l3.455,12.068h0.719l4.031-12.068L2731.877,262.56z"/>
			<g>
				<path fill="#A49B4B" d="M1582.056,477.75l-3.61-11.477h-15.99l-3.546,11.477h-8.641l15.088-45.004h10.574l14.958,45.004
					H1582.056z M1570.579,440.484h-0.322l-5.738,18.504h11.863L1570.579,440.484z"/>
				<path fill="#A49B4B" d="M1627.381,477.75l-3.61-11.477h-15.99l-3.546,11.477h-8.641l15.088-45.004h10.574l14.958,45.004
					H1627.381z M1615.904,440.484h-0.322l-5.738,18.504h11.863L1615.904,440.484z"/>
				<path fill="#A49B4B" d="M1671.418,458.73h-18.763v19.02h-8.511v-45.004h8.511v18.439h18.763v-18.439h8.511v45.004h-8.511V458.73
					z"/>
				<path fill="#A49B4B" d="M1706.299,457.377l-5.996,7.092v13.281h-8.511v-45.004h8.511v22.18h0.322l6.383-8.445l11.154-13.734
					h9.801l-15.668,18.762l16.957,26.242h-10.122L1706.299,457.377z"/>
				<path fill="#A49B4B" d="M1744.855,432.746v27.66c0,3.525,0.677,6.168,2.031,7.932c1.354,1.762,3.643,2.643,6.866,2.643
					s5.513-0.881,6.867-2.643c1.354-1.764,2.03-4.406,2.03-7.932v-27.66h8.382v26.564c0,3.311-0.312,6.168-0.935,8.574
					c-0.624,2.408-1.623,4.408-2.998,5.998c-1.376,1.59-3.171,2.762-5.384,3.514c-2.215,0.75-4.891,1.127-8.027,1.127
					c-3.182,0-5.857-0.377-8.027-1.127c-2.171-0.752-3.944-1.924-5.319-3.514c-1.376-1.59-2.364-3.59-2.966-5.998
					c-0.603-2.406-0.902-5.264-0.902-8.574v-26.564H1744.855z"/>
				<path fill="#A49B4B" d="M1796.564,478.523c-3.868,0-7.146-0.688-9.833-2.066c-2.687-1.377-4.996-3.186-6.931-5.426l5.738-5.553
					c1.548,1.791,3.277,3.156,5.19,4.094c1.912,0.939,4.029,1.408,6.351,1.408c2.621,0,4.599-0.564,5.932-1.695
					c1.332-1.131,1.999-2.654,1.999-4.574c0-1.494-0.43-2.709-1.289-3.648c-0.86-0.938-2.473-1.619-4.836-2.047l-4.256-0.639
					c-8.984-1.422-13.476-5.789-13.476-13.105c0-2.023,0.376-3.852,1.129-5.486c0.751-1.637,1.837-3.035,3.256-4.197
					s3.127-2.055,5.126-2.68c1.999-0.623,4.266-0.936,6.802-0.936c3.396,0,6.361,0.561,8.898,1.68
					c2.535,1.121,4.706,2.777,6.512,4.975l-5.803,5.492c-1.118-1.363-2.473-2.473-4.063-3.324c-1.591-0.852-3.589-1.279-5.996-1.279
					c-2.45,0-4.287,0.459-5.513,1.375c-1.225,0.916-1.838,2.205-1.838,3.867c0,1.703,0.494,2.961,1.483,3.771
					c0.988,0.809,2.579,1.406,4.771,1.789l4.19,0.773c4.556,0.818,7.92,2.271,10.091,4.357c2.17,2.088,3.256,5.002,3.256,8.746
					c0,2.152-0.377,4.098-1.128,5.842c-0.753,1.742-1.849,3.248-3.289,4.518s-3.202,2.248-5.286,2.938
					C1801.668,478.18,1799.272,478.523,1796.564,478.523z"/>
				<path fill="#A49B4B" d="M1831.316,432.746v27.66c0,3.525,0.677,6.168,2.031,7.932c1.354,1.762,3.643,2.643,6.866,2.643
					s5.513-0.881,6.867-2.643c1.354-1.764,2.03-4.406,2.03-7.932v-27.66h8.382v26.564c0,3.311-0.312,6.168-0.935,8.574
					c-0.624,2.408-1.623,4.408-2.998,5.998c-1.376,1.59-3.171,2.762-5.384,3.514c-2.215,0.75-4.891,1.127-8.027,1.127
					c-3.182,0-5.857-0.377-8.027-1.127c-2.171-0.752-3.944-1.924-5.319-3.514c-1.376-1.59-2.364-3.59-2.966-5.998
					c-0.603-2.406-0.902-5.264-0.902-8.574v-26.564H1831.316z"/>
			</g>
		</g>
	</g>
</g>
</svg>
