<?xml version="1.0" encoding="utf-8"?>
<!-- Generator: Adobe Illustrator 16.0.0, SVG Export Plug-In . SVG Version: 6.00 Build 0)  -->
<!DOCTYPE svg PUBLIC "-//W3C//DTD SVG 1.0//EN" "http://www.w3.org/TR/2001/REC-SVG-20010904/DTD/svg10.dtd">
<svg version="1.0" id="Logotypes" xmlns="http://www.w3.org/2000/svg" xmlns:xlink="http://www.w3.org/1999/xlink" x="0px" y="0px"
	 width="1612.255px" height="708.659px" viewBox="0 0 1612.255 708.659" enable-background="new 0 0 1612.255 708.659"
	 xml:space="preserve">
<g>
	<defs>
		<rect id="SVGID_1_" x="-0.001" width="1612.256" height="708.659"/>
	</defs>
	<clipPath id="SVGID_2_">
		<use xlink:href="#SVGID_1_"  overflow="visible"/>
	</clipPath>
	<g clip-path="url(#SVGID_2_)">
		<g>
			<g>
				<g>
					<path fill="#EE202E" d="M155.415,341.492c7.556,0,13.677,6.124,13.677,13.675c-0.001-0.279-0.011-0.558-0.011-0.837
						c0-102.311,82.936-185.248,185.248-185.248c7.552,0,13.675-6.121,13.675-13.676c0-7.552-6.123-13.675-13.675-13.675
						c-28.688,0-56.534,5.626-82.764,16.719c-25.317,10.709-48.051,26.033-67.565,45.549c-19.518,19.518-34.844,42.25-45.552,67.57
						c-11.093,26.228-16.718,54.072-16.718,82.761c0,0.279,0.008,0.558,0.01,0.837C141.74,347.615,147.862,341.492,155.415,341.492z
						"/>
					<path fill="#46BC96" d="M340.653,553.252c0-7.553,6.123-13.675,13.676-13.675c-102.031,0-184.786-82.486-185.237-184.411
						c0-7.551-6.121-13.675-13.677-13.675c-7.553,0-13.675,6.124-13.675,13.675c0.108,28.394,5.723,55.953,16.708,81.925
						c10.708,25.318,26.034,48.052,45.552,67.566c19.515,19.519,42.248,34.843,67.565,45.553
						c26.229,11.094,54.075,16.717,82.764,16.717C346.776,566.928,340.653,560.805,340.653,553.252z"/>
					<path fill="#00C2F3" d="M502.526,487.402c-5.34-5.342-13.997-5.342-19.341,0c-33.341,32.291-78.773,52.175-128.856,52.175
						c-7.553,0-13.676,6.122-13.676,13.675s6.123,13.675,13.676,13.675c28.689,0,56.533-5.624,82.763-16.717
						c24.406-10.322,46.399-24.948,65.435-43.467C507.869,501.403,507.869,492.744,502.526,487.402z"/>
				</g>
				<g>
					<path fill="#00C2F3" d="M466.912,241.747c-30.07-30.071-70.054-46.631-112.583-46.631c-42.527,0-82.511,16.56-112.582,46.631
						c-30.071,30.072-46.634,70.056-46.634,112.583c0,42.529,16.563,82.509,46.634,112.582
						c30.071,30.071,70.055,46.635,112.582,46.635c42.529,0,82.513-16.563,112.583-46.635
						c30.072-30.073,46.631-70.053,46.631-112.582C513.543,311.803,496.984,271.819,466.912,241.747z"/>
					<path fill="#333E48" d="M242.121,405.819V302.841h22.334v7.613H251.51v87.752h12.945v7.612H242.121z"/>
					<path fill="#333E48" d="M466.537,302.841v102.978h-22.329v-7.612h12.939v-87.752h-12.939v-7.613H466.537z"/>
					<path fill="#FFFFFF" d="M293.99,375.249c0,2.057,0.032,4.484,0.096,7.271c0.063,2.79,0.151,5.624,0.259,8.496
						c0.106,2.875,0.234,5.624,0.387,8.241c0.147,2.617,0.331,4.804,0.546,6.562h-13.193V333.09c0-6.264-0.106-11.938-0.322-17.021
						c-0.213-5.088-0.536-9.496-0.966-13.227h13.194V375.249z"/>
					<path fill="#FFFFFF" d="M351.596,340.17v8.433h-12.102v48.787h12.102v8.431h-36.041v-8.431h11.906v-48.787h-11.906v-8.433
						H351.596z"/>
					<path fill="#FFFFFF" d="M378.629,340.17c0.257,0.688,0.515,1.577,0.771,2.673c0.261,1.092,0.492,2.239,0.71,3.442
						c0.211,1.2,0.404,2.381,0.58,3.541l0.512,2.893c4.121-4.89,8.259-8.417,12.422-10.585c4.163-2.166,8.5-3.25,13.002-3.25
						c3.433,0,6.47,0.568,9.107,1.704c2.64,1.14,4.861,2.941,6.662,5.406c1.8,2.469,3.162,5.667,4.088,9.591
						c0.922,3.928,1.383,8.655,1.383,14.194v28.959c0,7.253-0.635,13.273-1.9,18.055c-1.263,4.786-3.036,8.603-5.309,11.461
						c-2.273,2.848-5.011,4.867-8.207,6.045c-3.195,1.181-6.746,1.771-10.651,1.771c-1.931,0-4.001-0.312-6.211-0.934
						c-2.209-0.624-4.215-1.492-6.018-2.607l4.184-9.654c0.987,0.729,2.306,1.339,3.959,1.835c1.651,0.491,3.336,0.739,5.049,0.739
						c2.063,0,3.908-0.332,5.54-0.997c1.63-0.666,3.012-1.832,4.148-3.507c1.139-1.674,2.008-3.97,2.608-6.886
						c0.601-2.919,0.9-6.632,0.9-11.135v-28.321c0-5.147-0.268-9.322-0.805-12.518c-0.535-3.196-1.343-5.687-2.415-7.466
						c-1.071-1.78-2.412-2.971-4.024-3.574c-1.606-0.598-3.483-0.9-5.629-0.9c-2.316,0-4.577,0.547-6.787,1.645
						c-2.211,1.093-4.242,2.509-6.087,4.246c-1.845,1.736-3.475,3.699-4.889,5.89c-1.416,2.188-2.469,4.375-3.157,6.564v37.331
						h-11.904v-39.583c0-6.35-0.366-11.725-1.097-16.123c-0.728-4.398-1.438-7.713-2.123-9.944H378.629z"/>
				</g>
			</g>
		</g>
		<g>
			<g>
				<path fill="#333E48" d="M731.935,379.631h-54.992v-9.129h54.992V379.631z M724.778,476.838h-9.421v-10.006h-21.983v10.006
					h-9.567v-49.371h40.971V476.838z M724.34,398.474l-40.387,0.146v-9.128h40.387V398.474z M724.486,417.608h-40.533v-9.13h40.533
					V417.608z M722.66,361.082l-37.1,0.146V352.1h37.1V361.082z M715.357,457.848v-21.397h-22.128v21.397H715.357z M809.714,417.754
					l-78.947,0.146v-8.982h19.572l4.236-22.566h-18.258v-8.984h19.719l3.141-16.724h-27.972v-9.129h72.521v8.983h-34.69
					l-2.994,16.725h30.089l-3.141,31.548h16.725V417.754z M797.007,477.13h-9.422v-9.86h-36.953v9.86h-9.568v-49.516h55.943V477.13z
					 M787.585,458.286v-21.69h-37.1v21.69H787.585z M786.124,386.205h-21.689l-4.236,22.713h23.662L786.124,386.205z"/>
				<path fill="#333E48" d="M974.386,379.631H841.614v-9.129h132.771V379.631z M954.813,398.328h-94.941v-8.836h94.941V398.328z
					 M954.813,417.316h-94.941v-8.838h94.941V417.316z M951.382,477.13h-9.422v-10.298h-68.504v10.298h-9.421v-49.663h87.347V477.13
					z M951.235,360.133l-86.471,0.219v-8.837h86.471V360.133z M941.96,457.848v-21.397h-68.504v21.397H941.96z"/>
				<path fill="#333E48" d="M1139.06,450.692h-58.791v10.151c0,10.856-5.77,16.287-17.311,16.287h-9.713l-3.578-8.983h13.584
					c4.771,0,7.158-2.192,7.158-6.573v-10.881h-64.123v-9.13h64.123v-6.281c10.174-3.797,17.453-7.35,21.836-10.662h-55.943v-8.4
					h72.158v7.962c-7.598,5.161-16.994,10.443-28.191,15.847v1.534h58.791V450.692z M1132.925,423.596h-8.766v-15.118h-102.023
					v15.995h-9.568v-24.538h12.561v-44.551c6.912-0.681,14.486-3.968,22.715-9.858l4.82,6.719
					c-4.434,4.089-10.471,7.182-18.113,9.275v6.135h18.695v7.596h-18.695v7.96h18.695v7.449h-18.695v9.276h77.633v-9.276h-17.82
					v-7.304h17.82v-8.544h-17.674v-7.449h17.674v-7.96h-20.668v-8.837h29.943v49.224h11.467V423.596z M1091.515,366.925l-5.111,6.28
					c-2.777-2.677-6.551-5.575-11.32-8.69c-3.943,3.311-8.375,6.353-13.293,9.129l-5.988-5.259
					c4.723-1.947,8.859-4.236,12.416-6.865c-5.941-2.239-10.736-3.797-14.389-4.673l3.727-6.72
					c5.402,1.363,10.832,3.117,16.285,5.258c3.457-3.26,6.354-6.596,8.691-10.005l6.135,4.894c-1.949,3.019-4.48,5.965-7.596,8.837
					C1084.673,361.154,1088.155,363.759,1091.515,366.925z M1092.39,393.507l-6.133,4.82c-3.943-3.018-8.035-5.525-12.27-7.521
					c-2.629,1.996-7.303,4.503-14.021,7.521l-5.551-4.382c6.279-2.968,10.783-5.551,13.512-7.741
					c-2.729-1.703-6.865-3.603-12.416-5.698l5.477-4.6c5.014,1.802,9.299,3.676,12.854,5.622c1.361-0.777,4.113-3.114,8.252-7.011
					l6.719,3.433c-2.482,3.214-5.256,5.869-8.324,7.961C1084.528,387.763,1088.495,390.294,1092.39,393.507z"/>
				<path fill="#333E48" d="M1303.585,450.692h-58.791v10.151c0,10.856-5.77,16.287-17.309,16.287h-9.713l-3.578-8.983h13.584
					c4.77,0,7.156-2.192,7.156-6.573v-10.881h-64.121v-9.13h64.121v-6.281c10.176-3.797,17.453-7.35,21.838-10.662h-55.943v-8.4
					h72.156v7.962c-7.596,5.161-16.994,10.443-28.191,15.847v1.534h58.791V450.692z M1297.452,423.596h-8.768v-15.118h-102.023
					v15.995h-9.566v-24.538h12.561v-44.551c6.914-0.681,14.484-3.968,22.713-9.858l4.82,6.719
					c-4.43,4.089-10.469,7.182-18.113,9.275v6.135h18.697v7.596h-18.697v7.96h18.697v7.449h-18.697v9.276h77.633v-9.276h-17.818
					v-7.304h17.818v-8.544h-17.674v-7.449h17.674v-7.96h-20.668v-8.837h29.943v49.224h11.469V423.596z M1258.642,391.869
					l-6.654,6.084c-3.037-4.563-7.383-10.276-11.586-13.825c-6.533,7.279-11.906,11.912-16.105,13.893l-6.584-5.528
					c4.949-2.354,10.316-6.752,16.107-13.203c-6.584-4.102-11.275-6.637-14.076-7.606l5.744-5.94
					c2.334,0.922,6.719,3.316,13.166,7.19c1.916-3.136,3.406-6.568,4.48-10.302h-21.99v-8.638h11.789v-8.897h7.566v8.897h13.992
					v8.638h-2.77c-1.555,5.718-3.646,10.671-6.275,14.863C1250.536,381.364,1255.421,387.261,1258.642,391.869z"/>
				<path fill="#333E48" d="M1470.521,379.341l-5.258,7.595c-16.604-4.09-29.602-8.813-38.998-14.168v6.573h-49.371v-7.232
					c-14.217,7.353-26.973,12.15-38.27,14.388l-4.818-7.668c27.361-6.67,50.146-17.82,68.357-33.45l8.982,2.995
					c-0.975,1.217-1.826,2.07-2.557,2.555C1424.753,364.368,1445.397,373.838,1470.521,379.341z M1454.964,421.187h-106.041v-34.251
					h106.041V421.187z M1446.274,477.275h-8.982v-5.843h-70.549v5.843h-8.982v-48.42h88.514V477.275z M1397.562,413.299v-18.257
					h-39.656v18.257H1397.562z M1437.292,446.31v-9.42h-70.549v9.42H1437.292z M1437.292,463.546v-9.568h-70.549v9.568H1437.292z
					 M1387.849,406.069l-7.521,5.259c-4.527-4.575-8.959-7.96-13.293-10.151l7.596-4.382
					C1379.79,398.985,1384.196,402.078,1387.849,406.069z M1423.271,371.234c-7.061-3.701-13.902-8.692-20.523-14.973
					c-7.061,5.842-14.971,10.834-23.734,14.973H1423.271z M1445.983,413.299v-18.257h-39.438v18.257H1445.983z M1437.146,399.35
					c-2.873,4.577-7.207,8.473-13,11.686l-8.033-4.017c6.379-3.602,10.76-7.206,13.145-10.809L1437.146,399.35z"/>
			</g>
			<g>
				<path fill="#333E48" d="M732.624,260.246l-2.791,3.211c-8.36-2.94-16.32-8.12-23.88-15.541l0.06,11.729h14.01v25.8h-3.81v-3.449
					h-24.271v3.449h-3.931v-25.8h14.07v-11.729c-4.12,6.299-11.561,11.229-22.32,14.791l-2.82-3.18
					c9.54-2.521,16.36-6.391,20.46-11.61h-17.071v-3.75h21.75v-5.79c-4.78,0.479-10.78,0.83-18,1.049l-2.58-3.63
					c17.06-0.061,30.68-1.489,40.861-4.29l2.88,2.881c-5.66,1.519-12.07,2.689-19.23,3.509v6.271h22.05v3.75l-17.19-0.061
					C717.233,253.376,724.483,257.507,732.624,260.246z M716.213,268.677v-5.281h-24.331v5.281H716.213z M716.213,278.307v-5.939
					h-24.331v5.939H716.213z"/>
				<path fill="#333E48" d="M748.226,263.006c-2.522,7.821-5.822,14.232-9.9,19.231l3.508,2.221
					c4.54-5.722,7.883-12.13,10.021-19.23L748.226,263.006z M741.894,246.355l-2.521,3.151c3.981,1.7,7.131,4.138,9.453,7.319
					l2.639-3.569C749.384,250.476,746.194,248.177,741.894,246.355z M744.833,232.917l-2.819,2.88
					c3.84,1.379,6.87,3.701,9.091,6.959l2.819-3.03C751.783,236.626,748.753,234.357,744.833,232.917z"/>
				<path fill="#333E48" d="M784.044,272.127v-11.312c2.381,2.241,4.941,4.081,7.682,5.523l2.461-3.332
					c-5.24-2.238-9.322-5.78-12.241-10.619h10.259v-3.69h-9.809v-7.17h7.409v-3.692h-7.409v-6.327h-3.812v6.388h-11.129v-6.388
					h-3.812v6.388h-7.379v3.689h7.439v7.17h-9.78v3.692h9.9c-2.219,4.159-6.229,7.62-12.03,10.378l2.819,3.331
					c1.716-0.995,3.294-2.074,4.741-3.24v16.082c0,3.438,1.721,5.159,5.159,5.159h19.65c1.602,0,2.866-0.531,3.794-1.589
					c0.932-1.061,1.658-3.15,2.178-6.27l-3.871-1.741c-0.26,2.5-0.639,4.099-1.139,4.798c-0.501,0.702-1.171,1.052-2.01,1.052
					h-18.303c-1.101,0-1.648-0.55-1.648-1.652v-6.628H784.044z M767.455,241.526h11.19v7.17h-11.19V241.526z M767.813,252.387
					h10.201c0.98,2.32,2.46,4.589,4.439,6.811h-19.05C765.564,256.817,767.035,254.546,767.813,252.387z M763.165,262.887h17.07
					v5.61h-17.07V262.887z"/>
				<path fill="#333E48" d="M855.387,282.447l-2.79,3.12c-12.501-6.82-20.44-18.31-23.82-34.47
					c-4.182,16.421-12.701,27.911-25.561,34.47l-3.031-3.569c12.74-6.201,20.811-16.481,24.211-30.841h-20.4v-3.871h20.851
					c0.38-3.759,0.54-9.02,0.48-15.78l4.17,0.6c0.1,6.12-0.021,11.161-0.36,15.121h22.74v3.87h-18.93
					C835.346,264.796,842.827,275.247,855.387,282.447z"/>
				<path fill="#333E48" d="M916.558,274.646h-24.15v4.171c0,4.459-2.369,6.69-7.109,6.69h-3.99l-1.471-3.69h5.58
					c1.96,0,2.94-0.9,2.94-2.7v-4.472h-26.341v-3.75h26.341v-2.579c4.181-1.56,7.171-3.02,8.97-4.381h-22.98v-3.45h29.641v3.27
					c-3.119,2.121-6.98,4.291-11.58,6.511v0.629h24.15V274.646z M914.038,263.516h-3.6v-6.209h-41.912v6.569h-3.93v-10.08h5.16
					v-18.301c2.84-0.279,5.95-1.63,9.33-4.05l1.98,2.76c-1.82,1.681-4.301,2.95-7.44,3.81v2.52h7.681v3.121h-7.681v3.271h7.681
					v3.059h-7.681v3.811h31.892v-3.811h-7.32v-3h7.32v-3.509h-7.261v-3.06h7.261v-3.271h-8.49v-3.629h12.299v20.22h4.711V263.516z
					 M897.028,240.236l-2.102,2.579c-1.139-1.1-2.689-2.289-4.648-3.569c-1.621,1.36-3.441,2.61-5.461,3.75l-2.46-2.159
					c1.939-0.801,3.64-1.74,5.1-2.82c-2.44-0.92-4.41-1.56-5.909-1.921l1.529-2.76c2.221,0.561,4.45,1.281,6.69,2.161
					c1.419-1.338,2.61-2.71,3.569-4.11l2.521,2.01c-0.801,1.24-1.841,2.451-3.121,3.631
					C894.218,237.865,895.647,238.936,897.028,240.236z M897.388,251.156l-2.52,1.979c-1.621-1.24-3.301-2.27-5.041-3.09
					c-1.08,0.82-3,1.85-5.76,3.09l-2.28-1.801c2.581-1.219,4.43-2.279,5.551-3.179c-1.121-0.7-2.82-1.479-5.101-2.34l2.25-1.891
					c2.06,0.741,3.82,1.511,5.28,2.311c0.56-0.32,1.689-1.28,3.39-2.881l2.76,1.411c-1.02,1.32-2.16,2.411-3.42,3.27
					C894.157,248.795,895.788,249.835,897.388,251.156z"/>
				<path fill="#333E48" d="M977.999,274.646h-24.15v4.171c0,4.459-2.369,6.69-7.109,6.69h-3.99l-1.471-3.69h5.58
					c1.96,0,2.941-0.9,2.941-2.7v-4.472h-26.342v-3.75H949.8v-2.579c4.179-1.56,7.169-3.02,8.969-4.381h-22.98v-3.45h29.641v3.27
					c-3.119,2.121-6.979,4.291-11.58,6.511v0.629h24.15V274.646z M975.479,263.516h-3.6v-6.209h-41.911v6.569h-3.931v-10.08h5.16
					v-18.301c2.84-0.279,5.95-1.63,9.33-4.05l1.98,2.76c-1.82,1.681-4.301,2.95-7.44,3.81v2.52h7.681v3.121h-7.681v3.271h7.681
					v3.059h-7.681v3.811h31.892v-3.811h-7.321v-3h7.321v-3.509h-7.262v-3.06h7.262v-3.271h-8.49v-3.629h12.299v20.22h4.711V263.516z
					 M958.47,240.236l-2.101,2.579c-1.14-1.1-2.69-2.289-4.649-3.569c-1.621,1.36-3.441,2.61-5.461,3.75l-2.46-2.159
					c1.94-0.801,3.64-1.74,5.101-2.82c-2.441-0.92-4.41-1.56-5.91-1.921l1.529-2.76c2.221,0.561,4.449,1.281,6.689,2.161
					c1.421-1.338,2.61-2.71,3.571-4.11l2.521,2.01c-0.801,1.24-1.841,2.451-3.121,3.631
					C955.659,237.865,957.089,238.936,958.47,240.236z M958.829,251.156l-2.52,1.979c-1.621-1.24-3.301-2.27-5.041-3.09
					c-1.08,0.82-3,1.85-5.76,3.09l-2.281-1.801c2.581-1.219,4.432-2.279,5.551-3.179c-1.119-0.7-2.819-1.479-5.1-2.34l2.25-1.891
					c2.061,0.741,3.82,1.511,5.279,2.311c0.561-0.32,1.691-1.28,3.391-2.881l2.761,1.411c-1.021,1.32-2.16,2.411-3.42,3.27
					C955.599,248.795,957.229,249.835,958.829,251.156z"/>
				<path fill="#333E48" d="M1039.44,282.507h-54.602v-3.87h25.441v-14.071h-18.33v-3.87h18.33v-12.24h-13.592
					c-1.639,4.259-4.379,8.189-8.219,11.79l-3.96-2.07c6.561-6.06,10.21-13.479,10.95-22.259l4.051,1.17
					c-0.16,2.04-0.631,4.56-1.41,7.56h12.119v-13.14h4.051v13.08h21.18v3.87h-21.18v12.18h18.061v3.87h-18.061v14.071h25.17V282.507
					z"/>
				<path fill="#333E48" d="M1101.872,245.335l-2.16,3.121c-6.82-1.68-12.16-3.62-16.02-5.82v2.699h-20.281v-2.969
					c-5.84,3.021-11.08,4.99-15.721,5.911l-1.979-3.15c11.238-2.741,20.6-7.321,28.08-13.741l3.689,1.23
					c-0.4,0.5-0.75,0.851-1.049,1.05C1083.071,239.186,1091.552,243.076,1101.872,245.335z M1095.483,262.527h-43.563v-14.071
					h43.563V262.527z M1091.913,285.566h-3.691v-2.4h-28.98v2.4h-3.689v-19.89h36.361V285.566z M1071.901,259.286v-7.5h-16.291v7.5
					H1071.901z M1088.222,272.847v-3.871h-28.98v3.871H1088.222z M1088.222,279.927v-3.93h-28.98v3.93H1088.222z M1067.911,256.316
					l-3.09,2.16c-1.859-1.878-3.68-3.27-5.461-4.169l3.121-1.8C1064.601,253.406,1066.411,254.677,1067.911,256.316z
					 M1082.462,242.007c-2.9-1.52-5.711-3.571-8.432-6.152c-2.898,2.401-6.148,4.452-9.748,6.152H1082.462z M1091.792,259.286v-7.5
					h-16.199v7.5H1091.792z M1088.161,253.556c-1.18,1.879-2.959,3.479-5.34,4.799l-3.299-1.649c2.619-1.48,4.42-2.961,5.398-4.44
					L1088.161,253.556z"/>
				<path fill="#333E48" d="M1162.954,281.636l-2.641,3.511c-10.18-3-18.441-7.04-24.779-12.12
					c-5.463,4.46-14.041,8.581-25.742,12.361l-2.939-3.57c11.32-3.14,19.881-6.95,25.682-11.43c-5.82-5.5-9.732-12.19-11.73-20.07
					c-1.08,2.78-2.563,5.42-4.441,7.92l-3.178-2.909c2.52-3.001,4.547-6.292,6.088-9.871h-10.32v-3.69h24.063v-10.26h3.869v10.2
					h24.48v3.689h-10.262c-1.799,10.441-5.938,18.75-12.42,24.93C1144.583,274.807,1152.673,278.577,1162.954,281.636z
					 M1147.083,245.396h-23.219c1.598,9.261,5.508,16.71,11.729,22.351C1141.673,262.086,1145.503,254.636,1147.083,245.396z"/>
				<path fill="#333E48" d="M1223.767,274.646h-24.152v4.171c0,4.459-2.369,6.69-7.109,6.69h-3.99l-1.469-3.69h5.578
					c1.961,0,2.941-0.9,2.941-2.7v-4.472h-26.34v-3.75h26.34v-2.579c4.18-1.56,7.17-3.02,8.969-4.381h-22.98v-3.45h29.641v3.27
					c-3.119,2.121-6.98,4.291-11.58,6.511v0.629h24.152V274.646z M1221.247,263.516h-3.602v-6.209h-41.912v6.569h-3.93v-10.08h5.16
					v-18.301c2.84-0.279,5.951-1.63,9.332-4.05l1.979,2.76c-1.818,1.681-4.301,2.95-7.441,3.81v2.52h7.682v3.121h-7.682v3.271h7.682
					v3.059h-7.682v3.811h31.893v-3.811h-7.322v-3h7.322v-3.509h-7.26v-3.06h7.26v-3.271h-8.49v-3.629h12.299v20.22h4.713V263.516z
					 M1204.235,240.236l-2.102,2.579c-1.139-1.1-2.689-2.289-4.648-3.569c-1.621,1.36-3.441,2.61-5.461,3.75l-2.459-2.159
					c1.939-0.801,3.639-1.74,5.1-2.82c-2.441-0.92-4.412-1.56-5.91-1.921l1.531-2.76c2.219,0.561,4.449,1.281,6.689,2.161
					c1.42-1.338,2.609-2.71,3.568-4.11l2.521,2.01c-0.801,1.24-1.842,2.451-3.119,3.631
					C1201.425,237.865,1202.854,238.936,1204.235,240.236z M1204.595,251.156l-2.52,1.979c-1.619-1.24-3.301-2.27-5.041-3.09
					c-1.08,0.82-3,1.85-5.76,3.09l-2.281-1.801c2.582-1.219,4.432-2.279,5.551-3.179c-1.119-0.7-2.82-1.479-5.1-2.34l2.25-1.891
					c2.061,0.741,3.82,1.511,5.281,2.311c0.561-0.32,1.689-1.28,3.389-2.881l2.76,1.411c-1.02,1.32-2.158,2.411-3.418,3.27
					C1201.364,248.795,1202.993,249.835,1204.595,251.156z"/>
				<path fill="#333E48" d="M1244.284,251.906c4.041,4.54,6.063,8.971,6.063,13.291c0,2.1-0.545,3.771-1.637,5.01
					c-1.088,1.241-2.613,1.861-4.574,1.861c-1.08,0-2.381-0.131-3.9-0.39l-1.109-3.992c2.141,0.542,3.68,0.812,4.619,0.812
					c0.779,0,1.49-0.301,2.131-0.901c0.641-0.599,0.961-1.399,0.961-2.4c0-1.5-0.551-3.419-1.65-5.761
					c-1.102-2.339-2.752-4.57-4.951-6.689l5.852-15.031h-8.91v47.792h-3.932v-51.602h16.83v3.81L1244.284,251.906z
					 M1285.657,274.497c-0.521,3.24-1.221,5.59-2.102,7.049c-0.879,1.46-2.311,2.19-4.289,2.19h-4.68c-3.121,0-4.68-1.641-4.68-4.92
					v-15.87h-6.332c-0.119,6.44-1.375,11.264-3.764,14.475c-2.391,3.209-6.824,5.905-13.307,8.085l-2.52-3.451
					c6.02-1.779,10.15-4.08,12.391-6.9s3.369-6.87,3.391-12.149h-8.221v-3.931h32.133v3.871h-10.023v14.94
					c0,0.5,0.16,0.965,0.48,1.395c0.32,0.431,0.701,0.645,1.141,0.645h3.811c0.779,0,1.375-0.641,1.785-1.92
					c0.408-1.279,0.754-2.94,1.035-4.98L1285.657,274.497z M1282.206,247.286l-3.809,0.061v-5.282h-22.621v5.282h-3.871v-9.091
					h13.17v-6.81h3.932v6.75h13.199V247.286z M1277.167,253.076h-20.281v-3.93h20.281V253.076z"/>
				<path fill="#333E48" d="M1346.649,274.646h-24.152v4.171c0,4.459-2.371,6.69-7.109,6.69h-3.99l-1.471-3.69h5.58
					c1.961,0,2.941-0.9,2.941-2.7v-4.472h-26.342v-3.75h26.342v-2.579c4.18-1.56,7.17-3.02,8.969-4.381h-22.98v-3.45h29.641v3.27
					c-3.119,2.121-6.98,4.291-11.58,6.511v0.629h24.152V274.646z M1344.128,263.516h-3.6v-6.209h-41.91v6.569h-3.932v-10.08h5.162
					v-18.301c2.838-0.279,5.949-1.63,9.328-4.05l1.98,2.76c-1.82,1.681-4.299,2.95-7.439,3.81v2.52h7.68v3.121h-7.68v3.271h7.68
					v3.059h-7.68v3.811h31.891v-3.811h-7.32v-3h7.32v-3.509h-7.26v-3.06h7.26v-3.271h-8.49v-3.629h12.299v20.22h4.711V263.516z
					 M1327.118,240.236l-2.102,2.579c-1.141-1.1-2.689-2.289-4.65-3.569c-1.619,1.36-3.439,2.61-5.459,3.75l-2.461-2.159
					c1.941-0.801,3.643-1.74,5.102-2.82c-2.441-0.92-4.41-1.56-5.91-1.921l1.529-2.76c2.221,0.561,4.451,1.281,6.689,2.161
					c1.42-1.338,2.611-2.71,3.572-4.11l2.52,2.01c-0.801,1.24-1.842,2.451-3.121,3.631
					C1324.308,237.865,1325.737,238.936,1327.118,240.236z M1327.478,251.156l-2.52,1.979c-1.621-1.24-3.301-2.27-5.039-3.09
					c-1.082,0.82-3,1.85-5.762,3.09l-2.279-1.801c2.58-1.219,4.43-2.279,5.551-3.179c-1.121-0.7-2.822-1.479-5.102-2.34l2.25-1.891
					c2.061,0.741,3.82,1.511,5.279,2.311c0.561-0.32,1.689-1.28,3.391-2.881l2.76,1.411c-1.02,1.32-2.16,2.411-3.42,3.27
					C1324.247,248.795,1325.878,249.835,1327.478,251.156z"/>
				<path fill="#333E48" d="M1408.089,282.507h-54.6v-3.87h25.439v-14.071h-18.33v-3.87h18.33v-12.24h-13.59
					c-1.641,4.259-4.381,8.189-8.221,11.79l-3.959-2.07c6.559-6.06,10.209-13.479,10.949-22.259l4.051,1.17
					c-0.16,2.04-0.631,4.56-1.412,7.56h12.123v-13.14h4.049v13.08h21.18v3.87h-21.18v12.18h18.061v3.87h-18.061v14.071h25.17
					V282.507z"/>
				<path fill="#333E48" d="M1470.521,245.335l-2.158,3.121c-6.82-1.68-12.162-3.62-16.021-5.82v2.699h-20.281v-2.969
					c-5.84,3.021-11.08,4.99-15.719,5.911l-1.98-3.15c11.24-2.741,20.6-7.321,28.08-13.741l3.689,1.23
					c-0.4,0.5-0.75,0.851-1.049,1.05C1451.72,239.186,1460.202,243.076,1470.521,245.335z M1464.132,262.527h-43.561v-14.071h43.561
					V262.527z M1460.562,285.566h-3.691v-2.4h-28.98v2.4h-3.689v-19.89h36.361V285.566z M1440.55,259.286v-7.5h-16.289v7.5H1440.55z
					 M1456.87,272.847v-3.871h-28.98v3.871H1456.87z M1456.87,279.927v-3.93h-28.98v3.93H1456.87z M1436.56,256.316l-3.09,2.16
					c-1.859-1.878-3.68-3.27-5.459-4.169l3.119-1.8C1433.251,253.406,1435.06,254.677,1436.56,256.316z M1451.11,242.007
					c-2.9-1.52-5.709-3.571-8.43-6.152c-2.902,2.401-6.15,4.452-9.75,6.152H1451.11z M1460.44,259.286v-7.5h-16.199v7.5H1460.44z
					 M1456.812,253.556c-1.182,1.879-2.961,3.479-5.342,4.799l-3.299-1.649c2.619-1.48,4.42-2.961,5.4-4.44L1456.812,253.556z"/>
			</g>
		</g>
	</g>
</g>
</svg>
