<?xml version="1.0" encoding="utf-8"?>
<!-- Generator: Adobe Illustrator 16.0.0, SVG Export Plug-In . SVG Version: 6.00 Build 0)  -->
<!DOCTYPE svg PUBLIC "-//W3C//DTD SVG 1.0//EN" "http://www.w3.org/TR/2001/REC-SVG-20010904/DTD/svg10.dtd">
<svg version="1.0" id="Logotypes" xmlns="http://www.w3.org/2000/svg" xmlns:xlink="http://www.w3.org/1999/xlink" x="0px" y="0px"
	 width="2893.979px" height="708.053px" viewBox="0 0 2893.979 708.053" enable-background="new 0 0 2893.979 708.053"
	 xml:space="preserve">
<g>
	<defs>
		<rect id="SVGID_97_" x="0.001" width="2893.979" height="708.053"/>
	</defs>
	<clipPath id="SVGID_2_">
		<use xlink:href="#SVGID_97_"  overflow="visible"/>
	</clipPath>
	<g clip-path="url(#SVGID_2_)">
		<text transform="matrix(1.0154 0 0 1 1550.2734 556.8496)" fill="#FFFFFF" font-family="'FiraSans-Bold'" font-size="40">Session 2017–2018</text>
		
			<text transform="matrix(1.0154 0 0 1 455.0332 566.9297)" fill="#FFFFFF" font-family="'NotoSansCJKtc-Medium-B5pc-H'" font-size="40" letter-spacing="2.955">二零一七至二零一八年度</text>
		<g>
			<g>
				<g>
					<path fill="#FFFFFF" d="M1093.708,271.57c-9.105,21.527-14.52,44.145-16.17,67.423c3.587-2.92,8.158-4.678,13.136-4.678
						c5.495,0,10.489,2.152,14.217,5.636c7.339-95.591,87.224-170.868,184.696-170.868c7.552,0,13.676-6.123,13.676-13.675
						c0-7.553-6.124-13.676-13.676-13.676c-28.688,0-56.533,5.625-82.764,16.719c-25.317,10.709-48.052,26.032-67.565,45.549
						C1119.739,223.516,1104.415,246.25,1093.708,271.57z"/>
					<path fill="#FFFFFF" d="M1274.448,538.96c-94.953-7.683-169.668-86.962-170.098-183.791c0-7.553-6.121-13.678-13.677-13.678
						c-7.552,0-13.675,6.125-13.675,13.678c0.108,28.393,5.723,55.951,16.709,81.923c10.707,25.319,26.031,48.054,45.55,67.568
						c19.514,19.518,42.248,34.842,67.565,45.551c21.256,8.989,43.572,14.386,66.539,16.11c-2.888-3.578-4.627-8.121-4.627-13.067
						C1268.735,547.721,1270.919,542.697,1274.448,538.96z"/>
					<path fill="#FFFFFF" d="M1437.784,487.403c-2.67-2.67-6.17-4.005-9.667-4.005c-3.499,0-7,1.335-9.674,4.005
						c-33.341,32.291-78.772,52.177-128.856,52.177c-7.553,0-13.676,6.123-13.676,13.674c0,7.553,6.123,13.676,13.676,13.676
						c28.688,0,56.535-5.625,82.762-16.719c24.408-10.32,46.4-24.947,65.436-43.466
						C1443.128,501.403,1443.128,492.745,1437.784,487.403z"/>
					<path fill="#FFFFFF" d="M1289.587,566.93c-7.553,0-13.676-6.123-13.676-13.676c0-7.551,6.123-13.674,13.676-13.674
						c50.084,0,95.516-19.886,128.856-52.177c2.674-2.67,6.175-4.005,9.674-4.005c3.497,0,6.997,1.335,9.667,4.005
						c5.344,5.342,5.344,14,0,19.342c-19.035,18.519-41.027,33.146-65.436,43.466C1346.122,561.305,1318.275,566.93,1289.587,566.93
						z M1206.823,550.211c-25.317-10.709-48.052-26.033-67.565-45.551c-19.519-19.515-34.843-42.249-45.55-67.568
						c-10.986-25.972-16.601-53.53-16.709-81.923c0-7.553,6.123-13.678,13.675-13.678c7.556,0,13.677,6.125,13.677,13.678
						c0.43,96.829,75.145,176.108,170.098,183.791c-3.529,3.737-5.713,8.761-5.713,14.294c0,4.946,1.739,9.489,4.627,13.067
						C1250.396,564.597,1228.079,559.2,1206.823,550.211z M1289.587,141.732c7.552,0,13.676,6.123,13.676,13.676
						c0,7.552-6.124,13.675-13.676,13.675c-97.473,0-177.357,75.277-184.696,170.868c-3.728-3.483-8.722-5.636-14.217-5.636
						c-4.978,0-9.549,1.758-13.136,4.678c1.65-23.278,7.064-45.896,16.17-67.423c10.707-25.32,26.031-48.055,45.55-67.57
						c19.514-19.517,42.248-34.84,67.565-45.549C1233.054,147.357,1260.899,141.732,1289.587,141.732z"/>
				</g>
				<g>
					<g>
						<g>
							<path fill="#FFFFFF" d="M1402.171,241.748c-30.07-30.071-70.053-46.63-112.584-46.63c-42.525,0-82.511,16.559-112.581,46.63
								c-30.071,30.073-46.636,70.057-46.636,112.584c0,42.528,16.564,82.508,46.636,112.582
								c30.07,30.07,70.056,46.634,112.581,46.634c42.531,0,82.514-16.563,112.584-46.634
								c30.071-30.074,46.631-70.054,46.631-112.582C1448.802,311.805,1432.242,271.821,1402.171,241.748z"/>
							<path fill="#333E48" d="M1177.38,405.82V302.844h22.332v7.613h-12.943v87.751h12.943v7.612H1177.38z"/>
							<path fill="#333E48" d="M1401.796,302.844V405.82h-22.328v-7.612h12.938v-87.751h-12.938v-7.613H1401.796z"/>
							<path fill="#00C2F3" d="M1229.249,375.25c0,2.059,0.033,4.484,0.096,7.271c0.063,2.79,0.15,5.625,0.26,8.498
								c0.104,2.873,0.233,5.62,0.387,8.237c0.146,2.618,0.33,4.806,0.545,6.563h-13.194v-72.729c0-6.264-0.106-11.938-0.321-17.021
								c-0.214-5.087-0.535-9.496-0.967-13.227h13.195V375.25z"/>
							<path fill="#00C2F3" d="M1286.854,340.172v8.434h-12.1v48.784h12.1v8.432h-36.041v-8.432h11.906v-48.784h-11.906v-8.434
								H1286.854z"/>
							<path fill="#00C2F3" d="M1313.888,340.172c0.255,0.688,0.514,1.576,0.772,2.674c0.259,1.093,0.491,2.239,0.708,3.44
								c0.211,1.201,0.403,2.383,0.58,3.541l0.511,2.894c4.122-4.89,8.261-8.418,12.423-10.585c4.164-2.167,8.5-3.252,13.002-3.252
								c3.434,0,6.471,0.569,9.108,1.706c2.638,1.14,4.858,2.941,6.661,5.406c1.801,2.469,3.162,5.667,4.089,9.592
								c0.921,3.926,1.382,8.654,1.382,14.193v28.958c0,7.253-0.635,13.273-1.901,18.055c-1.264,4.787-3.036,8.604-5.308,11.461
								c-2.273,2.85-5.01,4.868-8.206,6.046c-3.196,1.182-6.747,1.771-10.651,1.771c-1.933,0-4.003-0.313-6.211-0.934
								c-2.209-0.624-4.215-1.49-6.018-2.606l4.184-9.654c0.986,0.729,2.305,1.34,3.959,1.836c1.65,0.491,3.335,0.737,5.049,0.737
								c2.063,0,3.908-0.331,5.538-0.996c1.632-0.665,3.013-1.833,4.15-3.507c1.138-1.675,2.007-3.97,2.608-6.888
								c0.6-2.919,0.9-6.63,0.9-11.135v-28.319c0-5.149-0.267-9.323-0.805-12.519c-0.535-3.197-1.344-5.688-2.416-7.466
								c-1.071-1.78-2.412-2.971-4.023-3.574c-1.605-0.598-3.484-0.899-5.629-0.899c-2.316,0-4.578,0.548-6.79,1.644
								c-2.208,1.092-4.239,2.509-6.085,4.246c-1.845,1.735-3.475,3.698-4.889,5.888c-1.416,2.189-2.469,4.376-3.156,6.564v37.331
								h-11.906v-39.583c0-6.35-0.365-11.724-1.097-16.122c-0.726-4.398-1.437-7.713-2.122-9.944H1313.888z"/>
						</g>
					</g>
				</g>
			</g>
		</g>
		<g>
			<g>
				<path fill="#FFFFFF" d="M196.73,379.627h-54.993v-9.129h54.993V379.627z M189.573,476.832h-9.421v-10.006h-21.983v10.006h-9.567
					v-49.369h40.972V476.832z M189.135,398.469l-40.387,0.146v-9.129h40.387V398.469z M189.281,417.604h-40.533v-9.129h40.533
					V417.604z M187.455,361.076l-37.1,0.146v-9.129h37.1V361.076z M180.152,457.844v-21.398h-22.129v21.398H180.152z
					 M274.509,417.75l-78.947,0.145v-8.982h19.572l4.236-22.566h-18.258v-8.982h19.719l3.14-16.725H196v-9.129h72.521v8.982h-34.69
					l-2.994,16.725h30.09l-3.141,31.549h16.724V417.75z M261.801,477.125h-9.42v-9.859h-36.955v9.859h-9.566v-49.516h55.941V477.125
					z M252.381,458.281v-21.689H215.28v21.689H252.381z M250.92,386.199h-21.691l-4.234,22.713h23.662L250.92,386.199z"/>
				<path fill="#FFFFFF" d="M439.181,379.627H306.409v-9.129h132.771V379.627z M419.607,398.322h-94.942v-8.836h94.942V398.322z
					 M419.607,417.311h-94.942v-8.836h94.942V417.311z M416.174,477.125h-9.419v-10.299h-68.504v10.299h-9.422v-49.662h87.345
					V477.125z M416.03,360.127l-86.471,0.219v-8.836h86.471V360.127z M406.755,457.844v-21.398h-68.504v21.398H406.755z"/>
				<path fill="#FFFFFF" d="M603.854,450.688h-58.791v10.15c0,10.857-5.77,16.287-17.311,16.287h-9.713l-3.578-8.982h13.584
					c4.771,0,7.158-2.193,7.158-6.574v-10.881H471.08v-9.129h64.123v-6.281c10.174-3.799,17.453-7.352,21.836-10.662h-55.943v-8.4
					h72.158v7.961c-7.598,5.162-16.994,10.443-28.191,15.848v1.535h58.791V450.688z M597.719,423.592h-8.766v-15.117H486.93v15.994
					h-9.569V399.93h12.562v-44.551c6.912-0.68,14.486-3.967,22.715-9.857l4.82,6.719c-4.434,4.09-10.471,7.182-18.113,9.275v6.135
					h18.695v7.596h-18.695v7.959h18.695v7.449h-18.695v9.275h77.633v-9.275h-17.82v-7.303h17.82v-8.545h-17.674v-7.449h17.674
					v-7.961h-20.668v-8.836h29.943v49.223h11.467V423.592z M556.309,366.92l-5.111,6.279c-2.777-2.676-6.551-5.574-11.32-8.689
					c-3.943,3.311-8.375,6.354-13.293,9.129l-5.988-5.26c4.723-1.945,8.859-4.234,12.416-6.863
					c-5.941-2.24-10.736-3.799-14.389-4.674l3.727-6.721c5.402,1.363,10.832,3.117,16.285,5.258
					c3.457-3.26,6.354-6.596,8.691-10.004l6.135,4.893c-1.949,3.02-4.48,5.965-7.596,8.838
					C549.467,361.148,552.949,363.754,556.309,366.92z M557.184,393.502l-6.133,4.82c-3.943-3.018-8.035-5.525-12.27-7.521
					c-2.629,1.996-7.303,4.504-14.021,7.521l-5.551-4.381c6.279-2.969,10.783-5.551,13.512-7.742
					c-2.729-1.703-6.865-3.602-12.416-5.697l5.477-4.6c5.014,1.803,9.299,3.676,12.854,5.623c1.361-0.777,4.113-3.115,8.252-7.012
					l6.719,3.434c-2.482,3.213-5.256,5.867-8.324,7.961C549.322,387.758,553.289,390.289,557.184,393.502z"/>
				<path fill="#FFFFFF" d="M768.378,450.688h-58.791v10.15c0,10.857-5.77,16.287-17.309,16.287h-9.713l-3.578-8.982h13.584
					c4.77,0,7.156-2.193,7.156-6.574v-10.881h-64.121v-9.129h64.121v-6.281c10.176-3.799,17.453-7.352,21.838-10.662h-55.943v-8.4
					h72.156v7.961c-7.596,5.162-16.994,10.443-28.191,15.848v1.535h58.791V450.688z M762.245,423.592h-8.768v-15.117H651.454v15.994
					h-9.566V399.93h12.561v-44.551c6.914-0.68,14.484-3.967,22.713-9.857l4.82,6.719c-4.43,4.09-10.469,7.182-18.113,9.275v6.135
					h18.697v7.596h-18.697v7.959h18.697v7.449h-18.697v9.275h77.633v-9.275h-17.818v-7.303h17.818v-8.545h-17.674v-7.449h17.674
					v-7.961h-20.668v-8.836h29.942v49.223h11.47V423.592z M723.435,391.863l-6.654,6.084c-3.038-4.563-7.383-10.275-11.586-13.824
					c-6.533,7.279-11.906,11.912-16.105,13.895l-6.584-5.529c4.949-2.355,10.316-6.752,16.107-13.203
					c-6.584-4.102-11.275-6.637-14.076-7.605l5.744-5.941c2.334,0.922,6.719,3.316,13.166,7.189
					c1.916-3.135,3.406-6.568,4.479-10.301h-21.989v-8.639h11.789v-8.896h7.566v8.896h13.992v8.639h-2.77
					c-1.556,5.717-3.646,10.67-6.275,14.863C715.329,381.359,720.214,387.256,723.435,391.863z"/>
				<path fill="#FFFFFF" d="M935.313,379.336l-5.259,7.594c-16.603-4.09-29.601-8.813-38.997-14.168v6.574h-49.371v-7.232
					c-14.217,7.354-26.973,12.15-38.27,14.389l-4.818-7.668c27.36-6.67,50.146-17.82,68.357-33.449l8.982,2.994
					c-0.975,1.217-1.826,2.07-2.557,2.555C889.546,364.363,910.19,373.834,935.313,379.336z M919.757,421.182H813.716V386.93
					h106.041V421.182z M911.067,477.27h-8.982v-5.842h-70.549v5.842h-8.982v-48.42h88.514V477.27z M862.354,413.295v-18.258h-39.656
					v18.258H862.354z M902.085,446.305v-9.42h-70.549v9.42H902.085z M902.085,463.541v-9.568h-70.549v9.568H902.085z
					 M852.642,406.064l-7.521,5.258c-4.527-4.574-8.959-7.959-13.294-10.15l7.596-4.383
					C844.583,398.98,848.989,402.072,852.642,406.064z M888.063,371.229c-7.061-3.699-13.902-8.691-20.523-14.973
					c-7.061,5.844-14.971,10.834-23.734,14.973H888.063z M910.775,413.295v-18.258h-39.438v18.258H910.775z M901.938,399.346
					c-2.873,4.576-7.207,8.473-13,11.686l-8.033-4.018c6.379-3.602,10.76-7.205,13.145-10.809L901.938,399.346z"/>
			</g>
			<g>
				<path fill="#FFFFFF" d="M197.418,260.24l-2.789,3.211c-8.36-2.939-16.32-8.119-23.881-15.541l0.061,11.73h14.01v25.801h-3.811
					v-3.449h-24.27v3.449h-3.932v-25.801h14.07v-11.73c-4.119,6.301-11.561,11.23-22.32,14.791l-2.819-3.18
					c9.54-2.521,16.36-6.391,20.46-11.611h-17.07v-3.75h21.75v-5.789c-4.779,0.48-10.779,0.83-18,1.049l-2.58-3.629
					c17.061-0.061,30.681-1.49,40.861-4.291l2.88,2.881c-5.66,1.52-12.07,2.689-19.229,3.51v6.27h22.05v3.75l-17.19-0.059
					C182.028,253.371,189.278,257.502,197.418,260.24z M181.008,268.672v-5.281h-24.33v5.281H181.008z M181.008,278.301v-5.939
					h-24.33v5.939H181.008z"/>
				<path fill="#FFFFFF" d="M213.02,263c-2.521,7.822-5.821,14.232-9.9,19.232l3.51,2.221c4.539-5.723,7.881-12.131,10.021-19.23
					L213.02,263z M206.689,246.352l-2.521,3.15c3.98,1.699,7.131,4.139,9.453,7.318l2.637-3.568
					C214.18,250.471,210.99,248.172,206.689,246.352z M209.628,232.912l-2.819,2.879c3.84,1.379,6.87,3.701,9.092,6.959l2.818-3.029
					C216.578,236.621,213.548,234.352,209.628,232.912z"/>
				<path fill="#FFFFFF" d="M248.84,272.123v-11.313c2.379,2.24,4.939,4.08,7.682,5.521l2.46-3.332
					c-5.241-2.238-9.323-5.779-12.241-10.619h10.258v-3.689h-9.808v-7.17h7.409v-3.691h-7.409v-6.328h-3.812v6.389H232.25v-6.389
					h-3.813v6.389h-7.378v3.689h7.44v7.17h-9.781v3.691h9.9c-2.219,4.16-6.23,7.621-12.029,10.379l2.818,3.33
					c1.715-0.994,3.295-2.074,4.74-3.238v16.08c0,3.439,1.721,5.16,5.16,5.16h19.65c1.602,0,2.866-0.531,3.795-1.59
					c0.932-1.061,1.656-3.15,2.176-6.27l-3.869-1.74c-0.262,2.5-0.64,4.098-1.141,4.799c-0.5,0.701-1.17,1.051-2.01,1.051h-18.301
					c-1.102,0-1.648-0.551-1.648-1.652v-6.627H248.84z M232.25,241.521h11.189v7.17H232.25V241.521z M232.608,252.381h10.2
					c0.982,2.32,2.461,4.59,4.44,6.813h-19.05C230.359,256.813,231.83,254.541,232.608,252.381z M227.961,262.881h17.069v5.611
					h-17.069V262.881z"/>
				<path fill="#FFFFFF" d="M320.181,282.441l-2.789,3.119c-12.502-6.818-20.441-18.309-23.822-34.469
					c-4.18,16.42-12.699,27.91-25.559,34.469l-3.031-3.568c12.74-6.201,20.811-16.48,24.211-30.842h-20.4v-3.869h20.85
					c0.381-3.76,0.539-9.021,0.48-15.781l4.17,0.602c0.1,6.119-0.02,11.16-0.359,15.119h22.74v3.871h-18.93
					C300.14,264.791,307.62,275.242,320.181,282.441z"/>
				<path fill="#FFFFFF" d="M381.353,274.641h-24.15v4.172c0,4.459-2.371,6.689-7.111,6.689h-3.99l-1.469-3.689h5.58
					c1.959,0,2.939-0.9,2.939-2.701v-4.471h-26.34v-3.75h26.34v-2.58c4.18-1.559,7.17-3.02,8.971-4.379h-22.98v-3.451h29.641v3.27
					c-3.121,2.121-6.98,4.291-11.58,6.512v0.629h24.15V274.641z M378.833,263.512h-3.6v-6.211h-41.912v6.57h-3.93v-10.08h5.16
					V235.49c2.84-0.279,5.949-1.629,9.33-4.049l1.979,2.76c-1.818,1.68-4.299,2.949-7.439,3.811v2.52h7.68v3.119h-7.68v3.271h7.68
					v3.059h-7.68v3.811h31.891v-3.811h-7.32v-3h7.32v-3.51h-7.26v-3.061h7.26v-3.27h-8.49v-3.629h12.301v20.219h4.711V263.512z
					 M361.821,240.23l-2.1,2.58c-1.141-1.1-2.689-2.289-4.65-3.57c-1.619,1.361-3.439,2.611-5.459,3.75l-2.461-2.158
					c1.939-0.801,3.641-1.74,5.1-2.82c-2.439-0.92-4.41-1.561-5.91-1.922l1.531-2.76c2.219,0.561,4.449,1.281,6.689,2.16
					c1.42-1.338,2.609-2.709,3.57-4.109l2.52,2.01c-0.801,1.24-1.84,2.451-3.119,3.631
					C359.011,237.859,360.44,238.932,361.821,240.23z M362.183,251.15l-2.521,1.98c-1.619-1.24-3.299-2.27-5.039-3.09
					c-1.08,0.82-3,1.85-5.76,3.09l-2.281-1.801c2.58-1.219,4.43-2.279,5.551-3.18c-1.121-0.699-2.82-1.479-5.1-2.34l2.248-1.891
					c2.061,0.74,3.822,1.512,5.281,2.311c0.561-0.32,1.689-1.279,3.391-2.879l2.76,1.41c-1.02,1.318-2.16,2.41-3.42,3.27
					C358.952,248.791,360.581,249.83,362.183,251.15z"/>
				<path fill="#FFFFFF" d="M442.794,274.641h-24.15v4.172c0,4.459-2.372,6.689-7.111,6.689h-3.988l-1.471-3.689h5.58
					c1.959,0,2.939-0.9,2.939-2.701v-4.471h-26.34v-3.75h26.34v-2.58c4.179-1.559,7.17-3.02,8.971-4.379h-22.98v-3.451h29.64v3.27
					c-3.12,2.121-6.98,4.291-11.579,6.512v0.629h24.15V274.641z M440.274,263.512h-3.602v-6.211h-41.91v6.57h-3.93v-10.08h5.159
					V235.49c2.841-0.279,5.95-1.629,9.331-4.049l1.98,2.76c-1.82,1.68-4.301,2.949-7.441,3.811v2.52h7.682v3.119h-7.682v3.271h7.682
					v3.059h-7.682v3.811h31.891v-3.811h-7.32v-3h7.32v-3.51h-7.261v-3.061h7.261v-3.27h-8.49v-3.629h12.301v20.219h4.711V263.512z
					 M423.263,240.23l-2.1,2.58c-1.141-1.1-2.691-2.289-4.65-3.57c-1.619,1.361-3.439,2.611-5.459,3.75l-2.461-2.158
					c1.939-0.801,3.641-1.74,5.099-2.82c-2.438-0.92-4.409-1.561-5.909-1.922l1.531-2.76c2.219,0.561,4.449,1.281,6.689,2.16
					c1.419-1.338,2.609-2.709,3.57-4.109l2.52,2.01c-0.801,1.24-1.84,2.451-3.119,3.631
					C420.454,237.859,421.884,238.932,423.263,240.23z M423.624,251.15l-2.521,1.98c-1.619-1.24-3.299-2.27-5.039-3.09
					c-1.08,0.82-3,1.85-5.762,3.09l-2.279-1.801c2.58-1.219,4.43-2.279,5.551-3.18c-1.121-0.699-2.82-1.479-5.1-2.34l2.249-1.891
					c2.06,0.74,3.818,1.512,5.28,2.311c0.561-0.32,1.688-1.279,3.391-2.879l2.76,1.41c-1.02,1.318-2.161,2.41-3.42,3.27
					C420.394,248.791,422.022,249.83,423.624,251.15z"/>
				<path fill="#FFFFFF" d="M504.234,282.502h-54.601v-3.869h25.441v-14.072h-18.333v-3.869h18.333v-12.24h-13.592
					c-1.639,4.26-4.379,8.189-8.219,11.789l-3.961-2.07c6.561-6.059,10.209-13.479,10.95-22.26l4.05,1.17
					c-0.16,2.041-0.63,4.561-1.408,7.561h12.117V231.5h4.053v13.08h21.179v3.871h-21.179v12.18h18.06v3.869h-18.06v14.072h25.169
					V282.502z"/>
				<path fill="#FFFFFF" d="M566.666,245.33l-2.16,3.121c-6.82-1.68-12.16-3.619-16.02-5.82v2.699h-20.281v-2.969
					c-5.84,3.02-11.08,4.99-15.721,5.91l-1.979-3.15c11.238-2.74,20.6-7.32,28.08-13.74l3.689,1.23c-0.4,0.5-0.75,0.85-1.049,1.049
					C547.865,239.182,556.346,243.07,566.666,245.33z M560.277,262.521h-43.563v-14.07h43.563V262.521z M556.707,285.561h-3.691
					v-2.398h-28.98v2.398h-3.689v-19.889h36.361V285.561z M536.695,259.281v-7.5h-16.291v7.5H536.695z M553.016,272.842v-3.871
					h-28.98v3.871H553.016z M553.016,279.922v-3.93h-28.98v3.93H553.016z M532.705,256.311l-3.09,2.16
					c-1.859-1.879-3.68-3.27-5.461-4.17l3.121-1.799C529.395,253.4,531.205,254.672,532.705,256.311z M547.256,242.002
					c-2.9-1.52-5.711-3.57-8.432-6.152c-2.898,2.4-6.148,4.451-9.748,6.152H547.256z M556.586,259.281v-7.5h-16.199v7.5H556.586z
					 M552.955,253.551c-1.18,1.881-2.959,3.48-5.34,4.801l-3.299-1.65c2.619-1.48,4.42-2.961,5.398-4.439L552.955,253.551z"/>
				<path fill="#FFFFFF" d="M627.748,281.631l-2.641,3.512c-10.18-3-18.441-7.041-24.779-12.121
					c-5.463,4.461-14.041,8.58-25.742,12.361l-2.939-3.57c11.32-3.141,19.881-6.951,25.682-11.432
					c-5.82-5.5-9.732-12.189-11.73-20.07c-1.08,2.781-2.563,5.42-4.441,7.92l-3.178-2.908c2.52-3.002,4.547-6.291,6.088-9.871
					h-10.32v-3.689h24.063V231.5h3.869v10.201h24.48v3.689h-10.262c-1.799,10.441-5.938,18.75-12.42,24.93
					C609.377,274.801,617.467,278.572,627.748,281.631z M611.877,245.391h-23.219c1.598,9.26,5.508,16.711,11.729,22.352
					C606.467,262.082,610.297,254.631,611.877,245.391z"/>
				<path fill="#FFFFFF" d="M688.559,274.641h-24.151v4.172c0,4.459-2.369,6.689-7.109,6.689h-3.991l-1.469-3.689h5.579
					c1.961,0,2.941-0.9,2.941-2.701v-4.471H634.02v-3.75h26.339v-2.58c4.18-1.559,7.17-3.02,8.969-4.379h-22.98v-3.451h29.641v3.27
					c-3.119,2.121-6.981,4.291-11.58,6.512v0.629h24.151V274.641z M686.04,263.512h-3.602v-6.211h-41.913v6.57h-3.929v-10.08h5.16
					V235.49c2.84-0.279,5.951-1.629,9.332-4.049l1.979,2.76c-1.818,1.68-4.301,2.949-7.442,3.811v2.52h7.682v3.119h-7.682v3.271
					h7.682v3.059h-7.682v3.811h31.894v-3.811h-7.322v-3h7.322v-3.51h-7.261v-3.061h7.261v-3.27h-8.49v-3.629h12.299v20.219h4.713
					V263.512z M669.028,240.23l-2.103,2.58c-1.138-1.1-2.688-2.289-4.647-3.57c-1.621,1.361-3.441,2.611-5.461,3.75l-2.459-2.158
					c1.939-0.801,3.639-1.74,5.099-2.82c-2.44-0.92-4.411-1.561-5.909-1.922l1.531-2.76c2.219,0.561,4.449,1.281,6.689,2.16
					c1.42-1.338,2.609-2.709,3.568-4.109l2.521,2.01c-0.801,1.24-1.842,2.451-3.119,3.631
					C666.218,237.859,667.647,238.932,669.028,240.23z M669.388,251.15l-2.52,1.98c-1.619-1.24-3.301-2.27-5.041-3.09
					c-1.08,0.82-3,1.85-5.76,3.09l-2.281-1.801c2.582-1.219,4.432-2.279,5.551-3.18c-1.119-0.699-2.82-1.479-5.1-2.34l2.25-1.891
					c2.061,0.74,3.819,1.512,5.281,2.311c0.561-0.32,1.688-1.279,3.389-2.879l2.76,1.41c-1.02,1.318-2.159,2.41-3.418,3.27
					C666.157,248.791,667.786,249.83,669.388,251.15z"/>
				<path fill="#FFFFFF" d="M709.077,251.9c4.041,4.541,6.062,8.971,6.062,13.291c0,2.1-0.544,3.77-1.636,5.01
					c-1.088,1.24-2.613,1.861-4.574,1.861c-1.08,0-2.381-0.131-3.9-0.391l-1.109-3.99c2.14,0.541,3.68,0.811,4.619,0.811
					c0.779,0,1.49-0.301,2.131-0.9s0.961-1.4,0.961-2.4c0-1.5-0.551-3.42-1.65-5.76c-1.102-2.34-2.752-4.57-4.951-6.689
					l5.852-15.031h-8.91v47.791h-3.932V233.9h16.83v3.811L709.077,251.9z M750.45,274.492c-0.521,3.24-1.221,5.59-2.102,7.049
					c-0.879,1.461-2.311,2.191-4.29,2.191h-4.679c-3.122,0-4.68-1.641-4.68-4.92v-15.871h-6.332
					c-0.119,6.439-1.376,11.266-3.764,14.475c-2.391,3.211-6.824,5.906-13.307,8.086l-2.52-3.451c6.02-1.779,10.15-4.08,12.391-6.9
					c2.241-2.818,3.369-6.869,3.39-12.148h-8.221v-3.932h32.134v3.871h-10.023v14.941c0,0.498,0.159,0.965,0.48,1.395
					c0.32,0.43,0.701,0.645,1.141,0.645h3.811c0.78,0,1.375-0.641,1.785-1.92c0.408-1.279,0.754-2.939,1.035-4.98L750.45,274.492z
					 M746.999,247.281l-3.809,0.061v-5.281h-22.621v5.281h-3.871v-9.092h13.17v-6.809h3.932v6.75h13.199V247.281z M741.959,253.07
					h-20.28v-3.93h20.28V253.07z"/>
				<path fill="#FFFFFF" d="M811.442,274.641h-24.153v4.172c0,4.459-2.37,6.689-7.108,6.689h-3.99l-1.471-3.689h5.58
					c1.961,0,2.941-0.9,2.941-2.701v-4.471h-26.342v-3.75h26.342v-2.58c4.18-1.559,7.17-3.02,8.968-4.379h-22.979v-3.451h29.641
					v3.27c-3.119,2.121-6.98,4.291-11.581,6.512v0.629h24.153V274.641z M808.921,263.512h-3.6v-6.211h-41.91v6.57h-3.932v-10.08
					h5.162V235.49c2.838-0.279,5.948-1.629,9.328-4.049l1.98,2.76c-1.82,1.68-4.299,2.949-7.439,3.811v2.52h7.68v3.119h-7.68v3.271
					h7.68v3.059h-7.68v3.811h31.891v-3.811h-7.32v-3h7.32v-3.51h-7.26v-3.061h7.26v-3.27h-8.49v-3.629h12.298v20.219h4.712V263.512z
					 M791.911,240.23l-2.102,2.58c-1.141-1.1-2.689-2.289-4.649-3.57c-1.62,1.361-3.44,2.611-5.46,3.75l-2.461-2.158
					c1.941-0.801,3.643-1.74,5.102-2.82c-2.441-0.92-4.41-1.561-5.91-1.922l1.528-2.76c2.222,0.561,4.452,1.281,6.69,2.16
					c1.42-1.338,2.611-2.709,3.572-4.109l2.52,2.01c-0.802,1.24-1.842,2.451-3.121,3.631
					C789.101,237.859,790.53,238.932,791.911,240.23z M792.271,251.15l-2.52,1.98c-1.621-1.24-3.301-2.27-5.039-3.09
					c-1.082,0.82-3,1.85-5.762,3.09l-2.279-1.801c2.58-1.219,4.43-2.279,5.551-3.18c-1.121-0.699-2.822-1.479-5.102-2.34l2.25-1.891
					c2.061,0.74,3.82,1.512,5.279,2.311c0.56-0.32,1.688-1.279,3.391-2.879l2.76,1.41c-1.02,1.318-2.161,2.41-3.42,3.27
					C789.04,248.791,790.671,249.83,792.271,251.15z"/>
				<path fill="#FFFFFF" d="M872.882,282.502h-54.6v-3.869h25.439v-14.072h-18.331v-3.869h18.331v-12.24h-13.59
					c-1.641,4.26-4.381,8.189-8.221,11.789l-3.959-2.07c6.559-6.059,10.209-13.479,10.949-22.26l4.051,1.17
					c-0.16,2.041-0.631,4.561-1.412,7.561h12.123V231.5h4.049v13.08h21.179v3.871h-21.179v12.18h18.06v3.869h-18.06v14.072h25.17
					V282.502z"/>
				<path fill="#FFFFFF" d="M935.313,245.33l-2.158,3.121c-6.82-1.68-12.163-3.619-16.021-5.82v2.699h-20.281v-2.969
					c-5.84,3.02-11.081,4.99-15.719,5.91l-1.98-3.15c11.239-2.74,20.6-7.32,28.08-13.74l3.688,1.23
					c-0.399,0.5-0.749,0.85-1.049,1.049C916.513,239.182,924.995,243.07,935.313,245.33z M928.925,262.521h-43.561v-14.07h43.561
					V262.521z M925.354,285.561h-3.691v-2.398h-28.98v2.398h-3.69v-19.889h36.362V285.561z M905.342,259.281v-7.5h-16.288v7.5
					H905.342z M921.663,272.842v-3.871h-28.98v3.871H921.663z M921.663,279.922v-3.93h-28.98v3.93H921.663z M901.353,256.311
					l-3.09,2.16c-1.859-1.879-3.68-3.27-5.459-4.17l3.118-1.799C898.044,253.4,899.853,254.672,901.353,256.311z M915.903,242.002
					c-2.9-1.52-5.709-3.57-8.43-6.152c-2.902,2.4-6.15,4.451-9.751,6.152H915.903z M925.233,259.281v-7.5h-16.199v7.5H925.233z
					 M921.604,253.551c-1.183,1.881-2.962,3.48-5.342,4.801l-3.299-1.65c2.619-1.48,4.42-2.961,5.4-4.439L921.604,253.551z"/>
			</g>
		</g>
		<g>
			<path fill="#FFFFFF" d="M1561.933,336.834V236.362h12.091v89.819h42.751v10.652H1561.933z"/>
			<path fill="#FFFFFF" d="M1638.652,245.143c-2.497,0-4.297-0.598-5.397-1.799c-1.104-1.199-1.656-2.757-1.656-4.679v-1.871
				c0-1.919,0.552-3.478,1.656-4.679c1.101-1.198,2.9-1.799,5.397-1.799c2.494,0,4.294,0.601,5.397,1.799
				c1.103,1.201,1.655,2.76,1.655,4.679v1.871c0,1.922-0.553,3.479-1.655,4.679C1642.946,244.545,1641.146,245.143,1638.652,245.143
				z M1632.895,262.561h11.516v74.273h-11.516V262.561z"/>
			<path fill="#FFFFFF" d="M1668.88,336.834v-74.273h11.516v11.953h0.576c1.821-4.179,4.39-7.506,7.7-9.975
				c3.312-2.47,7.748-3.707,13.314-3.707c7.677,0,13.747,2.472,18.209,7.413c4.463,4.943,6.693,11.926,6.693,20.944v47.645h-11.516
				v-45.729c0-13.369-5.615-20.053-16.84-20.053c-2.304,0-4.536,0.29-6.695,0.865c-2.158,0.578-4.102,1.443-5.829,2.598
				c-1.726,1.154-3.095,2.62-4.101,4.399c-1.009,1.778-1.513,3.871-1.513,6.274v51.645H1668.88z"/>
			<path fill="#FFFFFF" d="M1809.654,334.387c0,10.267-2.879,18.328-8.637,24.182s-13.868,8.781-24.326,8.781
				c-6.046,0-11.253-0.94-15.618-2.818c-4.368-1.883-7.988-4.363-10.868-7.447l6.767-7.952c2.494,2.568,5.372,4.545,8.636,5.927
				c3.262,1.381,7.053,2.07,11.372,2.07c6.716,0,11.922-1.855,15.617-5.563c3.692-3.714,5.542-9.184,5.542-16.411V324.88h-0.575
				c-2.209,4.562-5.089,7.979-8.638,10.26c-3.551,2.281-7.916,3.421-13.1,3.421c-4.604,0-8.778-0.913-12.521-2.734
				c-3.742-1.822-6.909-4.413-9.5-7.772c-2.591-3.358-4.606-7.436-6.047-12.235c-1.438-4.797-2.157-10.171-2.157-16.122
				c0-5.948,0.719-11.321,2.157-16.121c1.44-4.798,3.456-8.876,6.047-12.235c2.591-3.357,5.758-5.949,9.5-7.772
				c3.743-1.822,7.917-2.735,12.521-2.735c5.184,0,9.62,1.118,13.316,3.35c3.692,2.232,6.499,5.676,8.421,10.332h0.575v-11.953
				h11.516V334.387z M1779.283,328.341c2.59,0,5.037-0.337,7.341-1.013c2.302-0.674,4.293-1.664,5.973-2.966
				c1.678-1.3,3.023-2.893,4.03-4.772c1.008-1.881,1.512-4.075,1.512-6.583v-27.632c0-2.024-0.48-3.93-1.439-5.716
				c-0.96-1.783-2.304-3.302-4.03-4.556c-1.728-1.253-3.743-2.241-6.045-2.965c-2.304-0.725-4.751-1.086-7.341-1.086
				c-6.528,0-11.71,2.072-15.546,6.221c-3.84,4.147-5.758,9.5-5.758,16.059v12.729c0,6.559,1.918,11.911,5.758,16.059
				C1767.573,326.268,1772.755,328.341,1779.283,328.341z"/>
			<path fill="#FFFFFF" d="M1879.896,324.88h-0.576c-0.769,1.712-1.704,3.398-2.807,5.061s-2.472,3.135-4.103,4.417
				c-1.632,1.281-3.598,2.303-5.901,3.063c-2.304,0.76-4.99,1.14-8.061,1.14c-7.678,0-13.772-2.469-18.28-7.413
				c-4.512-4.94-6.766-11.922-6.766-20.942v-47.645h11.516v45.728c0,13.368,5.661,20.053,16.985,20.053
				c2.302,0,4.534-0.287,6.693-0.866c2.159-0.575,4.077-1.44,5.758-2.595c1.679-1.154,3.022-2.62,4.029-4.399
				c1.007-1.778,1.512-3.92,1.512-6.422v-51.498h11.515v74.273h-11.515V324.88z"/>
			<path fill="#FFFFFF" d="M1921.638,245.143c-2.496,0-4.296-0.598-5.397-1.799c-1.104-1.199-1.655-2.757-1.655-4.679v-1.871
				c0-1.919,0.551-3.478,1.655-4.679c1.102-1.198,2.901-1.799,5.397-1.799c2.494,0,4.294,0.601,5.398,1.799
				c1.102,1.201,1.654,2.76,1.654,4.679v1.871c0,1.922-0.553,3.479-1.654,4.679C1925.932,244.545,1924.132,245.143,1921.638,245.143
				z M1915.88,262.561h11.516v74.273h-11.516V262.561z"/>
			<path fill="#FFFFFF" d="M1974.176,338.561c-6.908,0-12.69-1.319-17.344-3.958c-4.656-2.638-8.661-6.165-12.02-10.58l8.204-6.621
				c2.879,3.647,6.093,6.455,9.644,8.42c3.549,1.969,7.678,2.952,12.38,2.952c4.895,0,8.709-1.056,11.443-3.167
				c2.735-2.11,4.103-5.086,4.103-8.925c0-2.879-0.936-5.348-2.807-7.413c-1.871-2.063-5.254-3.477-10.147-4.246l-5.902-0.864
				c-3.455-0.479-6.622-1.223-9.5-2.23c-2.879-1.008-5.397-2.351-7.557-4.03c-2.159-1.678-3.84-3.765-5.038-6.262
				c-1.201-2.494-1.8-5.47-1.8-8.924c0-3.646,0.67-6.837,2.016-9.573c1.343-2.734,3.189-5.012,5.542-6.836
				c2.35-1.822,5.157-3.19,8.42-4.103c3.262-0.911,6.766-1.368,10.509-1.368c6.046,0,11.104,1.058,15.185,3.167
				c4.078,2.112,7.652,5.038,10.725,8.78l-7.63,6.909c-1.633-2.303-4.029-4.39-7.196-6.261s-7.149-2.808-11.947-2.808
				c-4.799,0-8.421,1.032-10.868,3.095c-2.446,2.064-3.67,4.872-3.67,8.421c0,3.648,1.224,6.286,3.67,7.917
				c2.447,1.633,5.975,2.831,10.58,3.599l5.757,0.863c8.253,1.248,14.107,3.624,17.562,7.125c3.455,3.505,5.183,8.085,5.183,13.746
				c0,7.197-2.447,12.86-7.341,16.985C1989.435,336.499,1982.716,338.561,1974.176,338.561z"/>
			<path fill="#FFFFFF" d="M2037.368,336.834c-4.03,0-7.077-1.125-9.14-3.374c-2.064-2.249-3.095-5.195-3.095-8.835v-51.846h-12.235
				v-10.219h6.908c2.495,0,4.198-0.505,5.111-1.513c0.911-1.007,1.367-2.757,1.367-5.253v-13.819h10.364v20.585h16.266v10.219
				h-16.266v53.835h15.113v10.22H2037.368z"/>
			<path fill="#FFFFFF" d="M2077.24,245.143c-2.496,0-4.297-0.598-5.398-1.799c-1.104-1.199-1.654-2.757-1.654-4.679v-1.871
				c0-1.919,0.551-3.478,1.654-4.679c1.102-1.198,2.902-1.799,5.398-1.799c2.495,0,4.294,0.601,5.397,1.799
				c1.103,1.201,1.655,2.76,1.655,4.679v1.871c0,1.922-0.553,3.479-1.655,4.679C2081.534,244.545,2079.735,245.143,2077.24,245.143z
				 M2071.482,262.561h11.516v74.273h-11.516V262.561z"/>
			<path fill="#FFFFFF" d="M2135.104,338.561c-5.183,0-9.837-0.913-13.962-2.734c-4.127-1.822-7.606-4.413-10.436-7.772
				c-2.832-3.358-4.991-7.436-6.478-12.235c-1.487-4.797-2.23-10.171-2.23-16.122c0-5.948,0.743-11.321,2.23-16.121
				c1.486-4.798,3.646-8.876,6.478-12.235c2.829-3.357,6.309-5.949,10.436-7.772c4.125-1.822,8.779-2.735,13.962-2.735
				c7.388,0,13.315,1.608,17.777,4.822c4.462,3.217,7.794,7.413,10.004,12.595l-9.644,4.895c-1.345-3.837-3.552-6.813-6.622-8.925
				c-3.072-2.109-6.909-3.166-11.516-3.166c-3.454,0-6.478,0.553-9.068,1.654c-2.59,1.104-4.75,2.641-6.478,4.607
				c-1.727,1.967-3.022,4.318-3.886,7.053s-1.296,5.735-1.296,8.995v12.667c0,6.527,1.75,11.876,5.255,16.051
				c3.501,4.174,8.657,6.261,15.473,6.261c9.306,0,16.025-4.318,20.152-12.955l8.349,5.614c-2.4,5.375-5.974,9.645-10.724,12.811
				C2148.132,336.978,2142.205,338.561,2135.104,338.561z"/>
			<path fill="#FFFFFF" d="M2202.181,338.561c-6.909,0-12.691-1.319-17.345-3.958c-4.655-2.638-8.662-6.165-12.02-10.58l8.204-6.621
				c2.879,3.647,6.094,6.455,9.645,8.42c3.549,1.969,7.676,2.952,12.378,2.952c4.896,0,8.71-1.056,11.444-3.167
				c2.735-2.11,4.103-5.086,4.103-8.925c0-2.879-0.936-5.348-2.807-7.413c-1.873-2.063-5.254-3.477-10.147-4.246l-5.902-0.864
				c-3.456-0.479-6.621-1.223-9.5-2.23s-5.397-2.351-7.558-4.03c-2.158-1.678-3.839-3.765-5.037-6.262
				c-1.201-2.494-1.801-5.47-1.801-8.924c0-3.646,0.671-6.837,2.017-9.573c1.343-2.734,3.188-5.012,5.542-6.836
				c2.351-1.822,5.157-3.19,8.42-4.103c3.26-0.911,6.766-1.368,10.51-1.368c6.044,0,11.104,1.058,15.184,3.167
				c4.078,2.112,7.652,5.038,10.725,8.78l-7.63,6.909c-1.633-2.303-4.028-4.39-7.196-6.261c-3.166-1.871-7.15-2.808-11.947-2.808
				c-4.801,0-8.421,1.032-10.868,3.095c-2.446,2.064-3.671,4.872-3.671,8.421c0,3.648,1.225,6.286,3.671,7.917
				c2.447,1.633,5.975,2.831,10.58,3.599l5.758,0.863c8.252,1.248,14.106,3.624,17.562,7.125c3.454,3.505,5.181,8.085,5.181,13.746
				c0,7.197-2.446,12.86-7.34,16.985C2217.438,336.499,2210.72,338.561,2202.181,338.561z"/>
			<path fill="#FFFFFF" d="M2313.303,338.561c-8.157,0-15.114-1.561-20.872-4.678s-10.651-7.413-14.682-12.883l8.924-7.485
				c3.55,4.703,7.485,8.276,11.804,10.724s9.403,3.671,15.258,3.671c7.197,0,12.689-1.728,16.481-5.182
				c3.789-3.455,5.686-8.062,5.686-13.819c0-4.797-1.44-8.492-4.318-11.082c-2.879-2.592-7.629-4.654-14.25-6.19l-8.206-1.871
				c-9.211-2.11-16.241-5.302-21.086-9.571c-4.848-4.27-7.27-10.293-7.27-18.066c0-4.412,0.814-8.348,2.447-11.803
				c1.631-3.454,3.908-6.333,6.836-8.636c2.927-2.304,6.429-4.054,10.509-5.254c4.078-1.199,8.563-1.8,13.459-1.8
				c7.579,0,14.081,1.393,19.503,4.175c5.421,2.784,10.005,6.861,13.746,12.235l-9.067,6.621c-2.784-3.838-6.144-6.86-10.075-9.068
				c-3.938-2.207-8.83-3.311-14.683-3.311c-6.43,0-11.492,1.367-15.187,4.102c-3.694,2.735-5.541,6.838-5.541,12.307
				c0,4.801,1.559,8.422,4.679,10.868c3.117,2.446,7.845,4.391,14.179,5.83l8.204,1.871c9.883,2.208,17.032,5.566,21.446,10.075
				c4.412,4.512,6.622,10.508,6.622,17.993c0,4.606-0.791,8.78-2.375,12.523c-1.584,3.742-3.864,6.909-6.837,9.5
				c-2.977,2.591-6.599,4.606-10.868,6.046C2323.498,337.842,2318.676,338.561,2313.303,338.561z"/>
			<path fill="#FFFFFF" d="M2395.637,338.561c-4.991,0-9.55-0.913-13.676-2.734c-4.126-1.822-7.654-4.438-10.579-7.846
				c-2.928-3.404-5.206-7.484-6.837-12.234c-1.633-4.75-2.446-10.099-2.446-16.05c0-5.852,0.813-11.178,2.446-15.978
				c1.631-4.797,3.909-8.899,6.837-12.307c2.925-3.405,6.453-6.021,10.579-7.845c4.126-1.822,8.685-2.735,13.676-2.735
				c4.988,0,9.523,0.913,13.604,2.735c4.076,1.823,7.602,4.439,10.578,7.845c2.974,3.407,5.275,7.51,6.908,12.307
				c1.632,4.8,2.447,10.126,2.447,15.978c0,5.951-0.815,11.3-2.447,16.05c-1.633,4.75-3.935,8.83-6.908,12.234
				c-2.977,3.408-6.502,6.023-10.578,7.846C2405.16,337.647,2400.625,338.561,2395.637,338.561z M2395.637,328.341
				c6.236,0,11.32-1.918,15.258-5.758c3.934-3.837,5.901-9.69,5.901-17.561v-10.651c0-7.867-1.968-13.723-5.901-17.562
				c-3.938-3.837-9.021-5.757-15.258-5.757c-6.239,0-11.324,1.92-15.258,5.757c-3.937,3.839-5.902,9.694-5.902,17.562v10.651
				c0,7.87,1.966,13.724,5.902,17.561C2384.313,326.423,2389.397,328.341,2395.637,328.341z"/>
			<path fill="#FFFFFF" d="M2475.811,338.561c-5.181,0-9.836-0.913-13.961-2.734c-4.127-1.822-7.607-4.413-10.437-7.772
				c-2.831-3.358-4.991-7.436-6.477-12.235c-1.489-4.797-2.231-10.171-2.231-16.122c0-5.948,0.742-11.321,2.231-16.121
				c1.485-4.798,3.646-8.876,6.477-12.235c2.829-3.357,6.31-5.949,10.437-7.772c4.125-1.822,8.78-2.735,13.961-2.735
				c7.391,0,13.314,1.608,17.778,4.822c4.462,3.217,7.795,7.413,10.004,12.595l-9.644,4.895c-1.346-3.837-3.552-6.813-6.623-8.925
				c-3.071-2.109-6.908-3.166-11.516-3.166c-3.455,0-6.476,0.553-9.068,1.654c-2.59,1.104-4.75,2.641-6.476,4.607
				c-1.728,1.967-3.024,4.318-3.887,7.053c-0.863,2.734-1.296,5.735-1.296,8.995v12.667c0,6.527,1.75,11.876,5.254,16.051
				c3.502,4.174,8.659,6.261,15.473,6.261c9.308,0,16.026-4.318,20.153-12.955l8.349,5.614c-2.399,5.375-5.975,9.645-10.724,12.811
				C2488.838,336.978,2482.912,338.561,2475.811,338.561z"/>
			<path fill="#FFFFFF" d="M2526.334,245.143c-2.497,0-4.296-0.598-5.397-1.799c-1.104-1.199-1.655-2.757-1.655-4.679v-1.871
				c0-1.919,0.551-3.478,1.655-4.679c1.102-1.198,2.9-1.799,5.397-1.799c2.494,0,4.293,0.601,5.397,1.799
				c1.103,1.201,1.656,2.76,1.656,4.679v1.871c0,1.922-0.554,3.479-1.656,4.679C2530.627,244.545,2528.828,245.143,2526.334,245.143
				z M2520.576,262.561h11.516v74.273h-11.516V262.561z"/>
			<path fill="#FFFFFF" d="M2584.486,338.561c-5.087,0-9.669-0.913-13.746-2.734c-4.08-1.822-7.582-4.438-10.508-7.846
				c-2.929-3.404-5.182-7.484-6.766-12.234c-1.583-4.75-2.374-10.099-2.374-16.05c0-5.852,0.791-11.178,2.374-15.978
				c1.584-4.797,3.837-8.899,6.766-12.307c2.926-3.405,6.428-6.021,10.508-7.845c4.077-1.822,8.659-2.735,13.746-2.735
				c4.988,0,9.451,0.908,13.387,2.727c3.934,1.816,7.292,4.329,10.076,7.531c2.782,3.203,4.918,7.004,6.405,11.403
				c1.486,4.399,2.231,9.228,2.231,14.486v5.452h-53.403v3.455c0,3.166,0.504,6.117,1.511,8.852c1.009,2.734,2.448,5.11,4.319,7.125
				c1.871,2.016,4.174,3.599,6.909,4.751c2.736,1.151,5.83,1.727,9.283,1.727c4.703,0,8.804-1.103,12.309-3.311
				c3.501-2.206,6.212-5.373,8.131-9.5l8.206,5.939c-2.399,5.119-6.143,9.246-11.228,12.384
				C2597.536,336.991,2591.49,338.561,2584.486,338.561z M2584.486,270.477c-3.167,0-6.045,0.549-8.636,1.646
				c-2.593,1.098-4.823,2.647-6.692,4.648c-1.872,2.002-3.337,4.363-4.392,7.081c-1.058,2.719-1.584,5.698-1.584,8.941v1.001h41.022
				v-1.574c0-6.581-1.797-11.848-5.396-15.807C2595.209,272.456,2590.436,270.477,2584.486,270.477z"/>
			<path fill="#FFFFFF" d="M2651.994,336.834c-4.03,0-7.077-1.125-9.14-3.374c-2.065-2.249-3.095-5.195-3.095-8.835v-51.846h-12.236
				v-10.219h6.91c2.494,0,4.197-0.505,5.109-1.513c0.911-1.007,1.367-2.757,1.367-5.253v-13.819h10.364v20.585h16.266v10.219
				h-16.266v53.835h15.114v10.22H2651.994z"/>
			<path fill="#FFFFFF" d="M2731.882,262.561h11.372l-33.251,91.546c-0.864,2.207-1.728,4.053-2.591,5.542
				c-0.864,1.486-1.92,2.663-3.168,3.526c-1.247,0.864-2.806,1.487-4.677,1.871c-1.871,0.382-4.152,0.576-6.838,0.576h-5.901v-10.22
				h11.659l5.614-15.809l-27.781-77.033h11.516l17.849,50.426l3.454,12.068h0.72l4.031-12.068L2731.882,262.561z"/>
			<g>
				<path fill="#FFFFFF" d="M1582.061,477.752l-3.609-11.477h-15.992l-3.545,11.477h-8.641l15.088-45.004h10.574l14.957,45.004
					H1582.061z M1570.584,440.486h-0.322l-5.738,18.504h11.863L1570.584,440.486z"/>
				<path fill="#FFFFFF" d="M1627.386,477.752l-3.61-11.477h-15.99l-3.546,11.477h-8.641l15.088-45.004h10.573l14.959,45.004
					H1627.386z M1615.91,440.486h-0.323l-5.738,18.504h11.863L1615.91,440.486z"/>
				<path fill="#FFFFFF" d="M1671.422,458.732h-18.762v19.02h-8.511v-45.004h8.511v18.439h18.762v-18.439h8.512v45.004h-8.512
					V458.732z"/>
				<path fill="#FFFFFF" d="M1706.304,457.379l-5.997,7.092v13.281h-8.51v-45.004h8.51v22.18h0.323l6.383-8.445l11.154-13.734h9.801
					L1712.3,451.51l16.957,26.242h-10.122L1706.304,457.379z"/>
				<path fill="#FFFFFF" d="M1744.859,432.748v27.66c0,3.525,0.678,6.168,2.031,7.932c1.354,1.762,3.644,2.643,6.867,2.643
					s5.513-0.881,6.867-2.643c1.354-1.764,2.03-4.406,2.03-7.932v-27.66h8.382v26.564c0,3.311-0.312,6.168-0.935,8.574
					c-0.624,2.408-1.623,4.408-2.998,5.998c-1.376,1.59-3.171,2.762-5.384,3.514c-2.215,0.75-4.891,1.127-8.027,1.127
					c-3.182,0-5.857-0.377-8.027-1.127c-2.171-0.752-3.944-1.924-5.319-3.514c-1.376-1.59-2.364-3.59-2.966-5.998
					c-0.603-2.406-0.902-5.264-0.902-8.574v-26.564H1744.859z"/>
				<path fill="#FFFFFF" d="M1796.569,478.525c-3.868,0-7.147-0.688-9.833-2.066c-2.687-1.377-4.996-3.186-6.931-5.426l5.737-5.553
					c1.549,1.791,3.278,3.156,5.191,4.094c1.912,0.939,4.029,1.408,6.351,1.408c2.62,0,4.599-0.564,5.932-1.695
					c1.332-1.131,1.999-2.654,1.999-4.574c0-1.494-0.43-2.709-1.289-3.648c-0.859-0.938-2.473-1.619-4.836-2.047l-4.256-0.639
					c-8.984-1.422-13.475-5.789-13.475-13.105c0-2.023,0.375-3.852,1.128-5.486c0.751-1.637,1.837-3.035,3.255-4.197
					c1.42-1.162,3.128-2.055,5.127-2.68c1.999-0.623,4.266-0.936,6.802-0.936c3.396,0,6.361,0.561,8.898,1.68
					c2.535,1.121,4.706,2.777,6.512,4.975l-5.803,5.492c-1.118-1.363-2.473-2.473-4.063-3.324c-1.591-0.852-3.589-1.279-5.996-1.279
					c-2.45,0-4.287,0.459-5.513,1.375c-1.225,0.916-1.838,2.205-1.838,3.867c0,1.703,0.494,2.961,1.483,3.771
					c0.988,0.809,2.579,1.406,4.771,1.789l4.19,0.773c4.556,0.818,7.92,2.271,10.09,4.357c2.171,2.088,3.257,5.002,3.257,8.746
					c0,2.152-0.377,4.098-1.128,5.842c-0.753,1.742-1.849,3.248-3.289,4.518s-3.203,2.248-5.287,2.938
					C1801.673,478.182,1799.277,478.525,1796.569,478.525z"/>
				<path fill="#FFFFFF" d="M1831.321,432.748v27.66c0,3.525,0.677,6.168,2.031,7.932c1.353,1.762,3.643,2.643,6.866,2.643
					s5.513-0.881,6.867-2.643c1.354-1.764,2.031-4.406,2.031-7.932v-27.66h8.381v26.564c0,3.311-0.312,6.168-0.935,8.574
					c-0.624,2.408-1.624,4.408-2.998,5.998c-1.376,1.59-3.171,2.762-5.384,3.514c-2.215,0.75-4.891,1.127-8.027,1.127
					c-3.182,0-5.857-0.377-8.027-1.127c-2.171-0.752-3.944-1.924-5.32-3.514c-1.375-1.59-2.363-3.59-2.965-5.998
					c-0.603-2.406-0.902-5.264-0.902-8.574v-26.564H1831.321z"/>
			</g>
		</g>
	</g>
</g>
</svg>
