<?xml version="1.0" encoding="utf-8"?>
<!-- Generator: Adobe Illustrator 16.0.0, SVG Export Plug-In . SVG Version: 6.00 Build 0)  -->
<!DOCTYPE svg PUBLIC "-//W3C//DTD SVG 1.0//EN" "http://www.w3.org/TR/2001/REC-SVG-20010904/DTD/svg10.dtd">
<svg version="1.0" id="Logotypes" xmlns="http://www.w3.org/2000/svg" xmlns:xlink="http://www.w3.org/1999/xlink" x="0px" y="0px"
	 width="633.19px" height="927.727px" viewBox="0 0 633.19 927.727" enable-background="new 0 0 633.19 927.727"
	 xml:space="preserve">
<g>
	<defs>
		<rect id="SVGID_65_" x="-0.001" width="633.191" height="927.728"/>
	</defs>
	<clipPath id="SVGID_2_">
		<use xlink:href="#SVGID_65_"  overflow="visible"/>
	</clipPath>
	<g clip-path="url(#SVGID_2_)">
		<g>
			<g>
				<g>
					<path fill="#333E48" d="M129.761,442.96H97.552v-5.347h32.209V442.96z M125.569,499.89h-5.52v-5.86h-12.873v5.86h-5.604
						v-28.914h23.996V499.89z M125.312,453.995l-23.652,0.085v-5.346h23.652V453.995z M125.397,465.201h-23.738v-5.347h23.738
						V465.201z M124.327,432.096l-21.729,0.086v-5.347h21.729V432.096z M120.05,488.769v-12.532h-12.959v12.532H120.05z
						 M175.312,465.286l-46.236,0.086v-5.261h11.463l2.48-13.217h-10.691v-5.261h11.549l1.838-9.795h-16.381v-5.347h42.473v5.262
						h-20.318l-1.752,9.795h17.621l-1.84,18.477h9.795V465.286z M167.87,500.061h-5.518v-5.774H140.71v5.774h-5.604v-28.999h32.764
						V500.061z M162.353,489.025v-12.703h-21.729v12.703H162.353z M161.497,446.81h-12.703l-2.48,13.302h13.857L161.497,446.81z"/>
					<path fill="#333E48" d="M271.755,442.96h-77.76v-5.347h77.76V442.96z M260.292,453.909h-55.604v-5.175h55.604V453.909z
						 M260.292,465.03h-55.604v-5.176h55.604V465.03z M258.282,500.061h-5.518v-6.031h-40.121v6.031h-5.518v-29.085h51.156V500.061z
						 M258.196,431.54l-50.643,0.128v-5.176h50.643V431.54z M252.765,488.769v-12.532h-40.121v12.532H252.765z"/>
					<path fill="#333E48" d="M368.198,484.577h-34.432v5.945c0,6.358-3.379,9.538-10.139,9.538h-5.688l-2.096-5.261h7.955
						c2.795,0,4.193-1.284,4.193-3.85v-6.373h-37.555v-5.347h37.555v-3.679c5.957-2.225,10.221-4.305,12.787-6.244h-32.764v-4.919
						h42.262v4.662c-4.451,3.022-9.953,6.116-16.512,9.281v0.898h34.432V484.577z M364.606,468.708h-5.135v-8.854H299.72v9.367
						h-5.604v-14.371h7.357v-26.092c4.047-0.398,8.482-2.324,13.303-5.773l2.822,3.935c-2.596,2.396-6.131,4.207-10.607,5.433v3.593
						h10.949v4.448h-10.949v4.662h10.949v4.362h-10.949v5.433h45.467v-5.433h-10.438v-4.277h10.438v-5.004h-10.352v-4.362h10.352
						v-4.663h-12.105v-5.175h17.537v28.828h6.717V468.708z M340.353,435.518l-2.992,3.678c-1.627-1.567-3.838-3.265-6.631-5.09
						c-2.309,1.939-4.904,3.722-7.785,5.347l-3.508-3.08c2.768-1.14,5.189-2.48,7.273-4.02c-3.48-1.312-6.289-2.225-8.428-2.737
						l2.182-3.936c3.164,0.798,6.344,1.825,9.539,3.079c2.023-1.909,3.721-3.863,5.09-5.859l3.592,2.866
						c-1.141,1.768-2.623,3.493-4.447,5.175C336.347,432.138,338.386,433.664,340.353,435.518z M340.866,451.086l-3.592,2.823
						c-2.311-1.768-4.707-3.236-7.186-4.405c-1.541,1.169-4.277,2.638-8.213,4.405l-3.25-2.566c3.678-1.738,6.314-3.251,7.912-4.533
						c-1.598-0.998-4.02-2.11-7.271-3.337l3.207-2.694c2.938,1.056,5.447,2.153,7.529,3.293c0.797-0.455,2.408-1.824,4.832-4.105
						l3.936,2.01c-1.455,1.883-3.078,3.437-4.875,4.663C336.261,447.722,338.585,449.204,340.866,451.086z"/>
					<path fill="#333E48" d="M464.556,484.577h-34.432v5.945c0,6.358-3.379,9.538-10.137,9.538h-5.689l-2.096-5.261h7.955
						c2.795,0,4.191-1.284,4.191-3.85v-6.373h-37.553v-5.347h37.553v-3.679c5.961-2.225,10.223-4.305,12.791-6.244h-32.766v-4.919
						h42.26v4.662c-4.447,3.022-9.953,6.116-16.51,9.281v0.898h34.432V484.577z M460.964,468.708h-5.135v-8.854h-59.752v9.367
						h-5.604v-14.371h7.357v-26.092c4.049-0.398,8.482-2.324,13.303-5.773l2.822,3.935c-2.594,2.396-6.131,4.207-10.607,5.433v3.593
						h10.949v4.448h-10.949v4.662h10.949v4.362h-10.949v5.433h45.467v-5.433H438.38v-4.277h10.436v-5.004h-10.352v-4.362h10.352
						v-4.663H436.71v-5.175h17.537v28.828h6.717V468.708z M438.233,450.127l-3.896,3.563c-1.779-2.673-4.324-6.019-6.785-8.096
						c-3.826,4.263-6.975,6.976-9.434,8.137l-3.855-3.238c2.898-1.379,6.041-3.955,9.434-7.732
						c-3.855-2.402-6.604-3.888-8.244-4.455l3.363-3.479c1.367,0.54,3.936,1.941,7.711,4.21c1.123-1.836,1.996-3.847,2.625-6.033
						h-12.879v-5.06h6.904v-5.21h4.432v5.21h8.195v5.06h-1.623c-0.91,3.349-2.135,6.25-3.676,8.705
						C433.487,443.975,436.347,447.428,438.233,450.127z"/>
					<path fill="#333E48" d="M562.323,442.789l-3.078,4.448c-9.725-2.396-17.338-5.161-22.84-8.298v3.85h-28.916v-4.235
						c-8.326,4.307-15.797,7.115-22.412,8.427l-2.822-4.491c16.023-3.906,29.369-10.437,40.035-19.59l5.26,1.754
						c-0.57,0.713-1.07,1.212-1.498,1.496C535.519,434.021,547.61,439.566,562.323,442.789z M553.212,467.297h-62.104v-20.06h62.104
						V467.297z M548.124,500.146h-5.262v-3.422h-41.316v3.422h-5.262v-28.357h51.84V500.146z M519.595,462.678v-10.693h-23.227
						v10.693H519.595z M542.862,482.011v-5.518h-41.316v5.518H542.862z M542.862,492.105v-5.604h-41.316v5.604H542.862z
						 M513.905,458.443l-4.404,3.079c-2.652-2.679-5.248-4.661-7.785-5.945l4.447-2.565
						C509.187,454.294,511.767,456.105,513.905,458.443z M534.651,438.041c-4.135-2.167-8.143-5.09-12.02-8.769
						c-4.135,3.422-8.768,6.345-13.9,8.769H534.651z M547.954,462.678v-10.693h-23.098v10.693H547.954z M542.776,454.508
						c-1.682,2.681-4.221,4.963-7.613,6.844L530.458,459c3.736-2.11,6.303-4.221,7.699-6.331L542.776,454.508z"/>
				</g>
				<g>
					<path fill="#333E48" d="M130.163,373.039l-1.635,1.881c-4.895-1.722-9.557-4.756-13.984-9.102l0.035,6.87h8.205v15.109h-2.232
						v-2.02h-14.215v2.02h-2.301v-15.109h8.24v-6.87c-2.412,3.689-6.771,6.577-13.072,8.662l-1.652-1.862
						c5.588-1.477,9.582-3.742,11.984-6.8h-9.998v-2.196h12.738v-3.392c-2.799,0.282-6.314,0.486-10.543,0.615l-1.51-2.126
						c9.99-0.035,17.969-0.872,23.93-2.513l1.688,1.688c-3.314,0.89-7.07,1.575-11.262,2.056v3.672h12.914v2.196l-10.068-0.035
						C121.149,369.017,125.396,371.436,130.163,373.039z M120.552,377.977v-3.092h-14.25v3.092H120.552z M120.552,383.617v-3.479
						h-14.25v3.479H120.552z"/>
					<path fill="#333E48" d="M139.3,374.655c-1.477,4.581-3.408,8.336-5.797,11.264l2.055,1.301
						c2.658-3.352,4.615-7.104,5.869-11.263L139.3,374.655z M135.593,364.904l-1.477,1.846c2.33,0.995,4.176,2.424,5.535,4.286
						l1.545-2.09C139.979,367.317,138.11,365.971,135.593,364.904z M137.313,357.033l-1.65,1.688
						c2.248,0.808,4.023,2.167,5.324,4.075l1.65-1.774C141.384,359.206,139.61,357.877,137.313,357.033z"/>
					<path fill="#333E48" d="M160.278,379.998v-6.625c1.395,1.313,2.895,2.39,4.5,3.234l1.439-1.952
						c-3.068-1.311-5.459-3.385-7.168-6.219h6.008v-2.161h-5.744v-4.199h4.338v-2.162h-4.338v-3.706h-2.232v3.742h-6.518v-3.742
						h-2.232v3.742h-4.322v2.16h4.357v4.199h-5.729v2.162h5.799c-1.299,2.437-3.648,4.463-7.045,6.078l1.65,1.951
						c1.004-0.583,1.93-1.216,2.775-1.897v9.418c0,2.015,1.008,3.021,3.023,3.021h11.508c0.938,0,1.678-0.311,2.223-0.931
						c0.545-0.621,0.971-1.845,1.273-3.671l-2.266-1.021c-0.152,1.465-0.375,2.4-0.668,2.811c-0.293,0.411-0.686,0.615-1.176,0.615
						h-10.719c-0.646,0-0.967-0.321-0.967-0.967v-3.882H160.278z M150.563,362.076h6.553v4.199h-6.553V362.076z M150.772,368.437
						h5.975c0.574,1.358,1.441,2.688,2.6,3.989H148.19C149.456,371.031,150.317,369.701,150.772,368.437z M148.05,374.586h9.998
						v3.286h-9.998V374.586z"/>
					<path fill="#333E48" d="M202.062,386.042l-1.635,1.826c-7.32-3.993-11.971-10.723-13.951-20.188
						c-2.447,9.617-7.438,16.347-14.969,20.188l-1.775-2.09c7.461-3.632,12.188-9.652,14.18-18.063h-11.947v-2.267h12.211
						c0.223-2.202,0.316-5.283,0.281-9.242l2.441,0.352c0.059,3.584-0.012,6.536-0.211,8.855h13.318v2.267h-11.086
						C190.323,375.705,194.706,381.825,202.062,386.042z"/>
					<path fill="#333E48" d="M237.888,381.474h-14.145v2.442c0,2.611-1.389,3.918-4.164,3.918h-2.338l-0.859-2.161h3.268
						c1.146,0,1.721-0.527,1.721-1.581v-2.618h-15.426v-2.196h15.426v-1.512c2.449-0.913,4.201-1.769,5.254-2.564h-13.459v-2.021
						h17.359v1.915c-1.826,1.242-4.088,2.514-6.781,3.813v0.369h14.145V381.474z M236.411,374.955h-2.107v-3.638h-24.547v3.848
						h-2.301v-5.902h3.021v-10.719c1.662-0.163,3.484-0.954,5.465-2.372l1.158,1.617c-1.064,0.983-2.518,1.728-4.357,2.231v1.475
						h4.498v1.828h-4.498v1.915h4.498v1.792h-4.498v2.232h18.678v-2.232h-4.287v-1.757h4.287v-2.056h-4.252v-1.792h4.252v-1.915
						h-4.973v-2.126h7.205v11.842h2.758V374.955z M226.448,361.32l-1.23,1.511c-0.666-0.645-1.574-1.341-2.723-2.091
						c-0.947,0.797-2.014,1.529-3.197,2.196l-1.441-1.265c1.137-0.469,2.133-1.019,2.986-1.651
						c-1.428-0.539-2.582-0.914-3.461-1.125l0.896-1.616c1.301,0.328,2.607,0.75,3.918,1.265c0.832-0.784,1.529-1.587,2.092-2.407
						l1.477,1.178c-0.471,0.726-1.078,1.435-1.828,2.126C224.804,359.932,225.64,360.56,226.448,361.32z M226.659,367.716
						l-1.475,1.16c-0.949-0.727-1.934-1.33-2.953-1.811c-0.633,0.48-1.756,1.084-3.373,1.811l-1.336-1.055
						c1.512-0.715,2.596-1.335,3.252-1.862c-0.656-0.41-1.652-0.866-2.988-1.37l1.318-1.107c1.207,0.434,2.238,0.885,3.092,1.353
						c0.328-0.188,0.99-0.749,1.986-1.687l1.615,0.826c-0.596,0.772-1.264,1.411-2.002,1.915
						C224.769,366.333,225.722,366.942,226.659,367.716z"/>
					<path fill="#333E48" d="M273.872,381.474h-14.145v2.442c0,2.611-1.389,3.918-4.164,3.918h-2.338l-0.859-2.161h3.268
						c1.146,0,1.721-0.527,1.721-1.581v-2.618h-15.426v-2.196h15.426v-1.512c2.449-0.913,4.199-1.769,5.254-2.564h-13.459v-2.021
						h17.359v1.915c-1.826,1.242-4.088,2.514-6.781,3.813v0.369h14.145V381.474z M272.396,374.955h-2.109v-3.638h-24.545v3.848
						h-2.303v-5.902h3.023v-10.719c1.662-0.163,3.484-0.954,5.463-2.372l1.16,1.617c-1.066,0.983-2.518,1.728-4.357,2.231v1.475
						h4.498v1.828h-4.498v1.915h4.498v1.792h-4.498v2.232h18.678v-2.232h-4.287v-1.757h4.287v-2.056h-4.252v-1.792h4.252v-1.915
						h-4.973v-2.126h7.203v11.842h2.76V374.955z M262.433,361.32l-1.229,1.511c-0.668-0.645-1.576-1.341-2.725-2.091
						c-0.949,0.797-2.016,1.529-3.197,2.196l-1.441-1.265c1.137-0.469,2.133-1.019,2.986-1.651
						c-1.428-0.539-2.582-0.914-3.461-1.125l0.896-1.616c1.301,0.328,2.605,0.75,3.918,1.265c0.832-0.784,1.529-1.587,2.092-2.407
						l1.475,1.178c-0.469,0.726-1.076,1.435-1.826,2.126C260.788,359.932,261.624,360.56,262.433,361.32z M262.644,367.716
						l-1.477,1.16c-0.947-0.727-1.932-1.33-2.951-1.811c-0.633,0.48-1.758,1.084-3.373,1.811l-1.336-1.055
						c1.512-0.715,2.596-1.335,3.25-1.862c-0.654-0.41-1.65-0.866-2.986-1.37l1.318-1.107c1.207,0.434,2.236,0.885,3.092,1.353
						c0.328-0.188,0.99-0.749,1.986-1.687l1.615,0.826c-0.598,0.772-1.264,1.411-2.002,1.915
						C260.753,366.333,261.706,366.942,262.644,367.716z"/>
					<path fill="#333E48" d="M309.854,386.077h-31.977v-2.267h14.898v-8.241h-10.734v-2.267h10.734v-7.168h-7.959
						c-0.961,2.494-2.564,4.797-4.814,6.904l-2.318-1.212c3.842-3.549,5.979-7.895,6.412-13.037l2.373,0.686
						c-0.094,1.194-0.369,2.671-0.826,4.428h7.098v-7.696h2.373v7.661h12.404v2.267h-12.404v7.134h10.578v2.266h-10.578v8.241h14.74
						V386.077z"/>
					<path fill="#333E48" d="M346.419,364.307l-1.266,1.828c-3.994-0.984-7.121-2.12-9.381-3.408v1.58h-11.879v-1.739
						c-3.42,1.77-6.488,2.923-9.207,3.462l-1.158-1.846c6.582-1.604,12.064-4.287,16.445-8.047l2.16,0.721
						c-0.234,0.293-0.439,0.498-0.613,0.615C335.409,360.705,340.374,362.983,346.419,364.307z M342.677,374.375h-25.512v-8.24
						h25.512V374.375z M340.587,387.868h-2.162v-1.405h-16.973v1.405h-2.162V376.22h21.297V387.868z M328.866,372.478v-4.393h-9.541
						v4.393H328.866z M338.425,380.419v-2.267h-16.973v2.267H338.425z M338.425,384.565v-2.301h-16.973v2.301H338.425z
						 M326.53,370.738l-1.811,1.265c-1.09-1.101-2.154-1.915-3.197-2.442l1.826-1.054
						C324.591,369.033,325.651,369.777,326.53,370.738z M335.052,362.357c-1.699-0.89-3.346-2.091-4.939-3.603
						c-1.697,1.405-3.6,2.606-5.709,3.603H335.052z M340.517,372.478v-4.393h-9.488v4.393H340.517z M338.39,369.122
						c-0.691,1.101-1.734,2.037-3.127,2.811l-1.934-0.966c1.535-0.867,2.59-1.734,3.162-2.601L338.39,369.122z"/>
					<path fill="#333E48" d="M382.192,385.567l-1.547,2.056c-5.961-1.757-10.799-4.123-14.512-7.099
						c-3.199,2.612-8.223,5.025-15.076,7.239l-1.721-2.091c6.629-1.839,11.643-4.07,15.039-6.694
						c-3.408-3.222-5.699-7.139-6.869-11.755c-0.633,1.629-1.5,3.175-2.602,4.639l-1.861-1.704c1.477-1.757,2.664-3.685,3.566-5.781
						h-6.045v-2.16h14.094v-6.01h2.266v5.974h14.336v2.162h-6.01c-1.053,6.114-3.477,10.98-7.273,14.601
						C371.433,381.567,376.171,383.775,382.192,385.567z M372.897,364.343H359.3c0.936,5.423,3.225,9.786,6.869,13.09
						C369.729,374.117,371.972,369.754,372.897,364.343z"/>
					<path fill="#333E48" d="M417.81,381.474h-14.146v2.442c0,2.611-1.387,3.918-4.164,3.918h-2.336l-0.861-2.161h3.268
						c1.148,0,1.723-0.527,1.723-1.581v-2.618h-15.426v-2.196h15.426v-1.512c2.447-0.913,4.199-1.769,5.252-2.564h-13.457v-2.021
						h17.359v1.915c-1.828,1.242-4.09,2.514-6.783,3.813v0.369h14.146V381.474z M416.333,374.955h-2.109v-3.638h-24.547v3.848
						h-2.301v-5.902h3.021v-10.719c1.664-0.163,3.486-0.954,5.467-2.372l1.158,1.617c-1.064,0.983-2.52,1.728-4.359,2.231v1.475h4.5
						v1.828h-4.5v1.915h4.5v1.792h-4.5v2.232h18.68v-2.232h-4.289v-1.757h4.289v-2.056h-4.252v-1.792h4.252v-1.915h-4.973v-2.126
						h7.203v11.842h2.76V374.955z M406.37,361.32l-1.23,1.511c-0.668-0.645-1.576-1.341-2.723-2.091
						c-0.949,0.797-2.016,1.529-3.199,2.196l-1.439-1.265c1.135-0.469,2.131-1.019,2.986-1.651c-1.43-0.539-2.584-0.914-3.461-1.125
						l0.896-1.616c1.299,0.328,2.605,0.75,3.918,1.265c0.832-0.784,1.527-1.587,2.09-2.407l1.477,1.178
						c-0.469,0.726-1.078,1.435-1.826,2.126C404.724,359.932,405.562,360.56,406.37,361.32z M406.581,367.716l-1.477,1.16
						c-0.947-0.727-1.934-1.33-2.951-1.811c-0.633,0.48-1.758,1.084-3.375,1.811l-1.336-1.055c1.514-0.715,2.596-1.335,3.252-1.862
						c-0.656-0.41-1.652-0.866-2.986-1.37l1.316-1.107c1.207,0.434,2.238,0.885,3.094,1.353c0.328-0.188,0.99-0.749,1.984-1.687
						l1.617,0.826c-0.598,0.772-1.266,1.411-2.002,1.915C404.688,366.333,405.642,366.942,406.581,367.716z"/>
					<path fill="#333E48" d="M429.825,368.155c2.367,2.659,3.551,5.254,3.551,7.783c0,1.23-0.32,2.208-0.959,2.935
						c-0.637,0.727-1.531,1.09-2.68,1.09c-0.631,0-1.395-0.077-2.283-0.229l-0.65-2.337c1.254,0.316,2.156,0.475,2.705,0.475
						c0.457,0,0.873-0.177,1.248-0.527c0.375-0.352,0.563-0.82,0.563-1.406c0-0.878-0.322-2.002-0.965-3.373
						c-0.646-1.37-1.613-2.677-2.9-3.918l3.426-8.804h-5.217v27.99h-2.303v-30.221h9.855v2.23L429.825,368.155z M454.056,381.386
						c-0.305,1.897-0.715,3.274-1.23,4.129s-1.354,1.283-2.512,1.283h-2.74c-1.828,0-2.742-0.961-2.742-2.882v-9.295h-3.707
						c-0.07,3.771-0.807,6.598-2.205,8.478c-1.4,1.88-3.996,3.459-7.793,4.735l-1.477-2.021c3.525-1.042,5.945-2.39,7.258-4.042
						c1.313-1.651,1.973-4.022,1.984-7.115h-4.814v-2.302h18.82v2.267h-5.871v8.75c0,0.293,0.094,0.565,0.281,0.817
						s0.41,0.377,0.668,0.377h2.232c0.457,0,0.805-0.374,1.045-1.124c0.24-0.749,0.441-1.722,0.607-2.917L454.056,381.386z
						 M452.034,365.449l-2.23,0.035v-3.093h-13.248v3.093h-2.268v-5.324h7.713v-3.988h2.303v3.954h7.73V365.449z M449.083,368.84
						h-11.877v-2.301h11.877V368.84z"/>
					<path fill="#333E48" d="M489.776,381.474h-14.145v2.442c0,2.611-1.389,3.918-4.164,3.918h-2.336l-0.861-2.161h3.268
						c1.148,0,1.723-0.527,1.723-1.581v-2.618h-15.428v-2.196h15.428v-1.512c2.447-0.913,4.199-1.769,5.252-2.564h-13.459v-2.021
						h17.359v1.915c-1.826,1.242-4.088,2.514-6.781,3.813v0.369h14.145V381.474z M488.3,374.955h-2.107v-3.638h-24.545v3.848h-2.303
						v-5.902h3.023v-10.719c1.66-0.163,3.482-0.954,5.463-2.372l1.16,1.617c-1.066,0.983-2.52,1.728-4.357,2.231v1.475h4.498v1.828
						h-4.498v1.915h4.498v1.792h-4.498v2.232h18.676v-2.232h-4.287v-1.757h4.287v-2.056h-4.25v-1.792h4.25v-1.915h-4.971v-2.126
						h7.203v11.842h2.758V374.955z M478.339,361.32l-1.232,1.511c-0.668-0.645-1.574-1.341-2.723-2.091
						c-0.949,0.797-2.014,1.529-3.197,2.196l-1.441-1.265c1.137-0.469,2.133-1.019,2.988-1.651c-1.43-0.539-2.584-0.914-3.461-1.125
						l0.895-1.616c1.301,0.328,2.607,0.75,3.918,1.265c0.832-0.784,1.529-1.587,2.092-2.407l1.477,1.178
						c-0.469,0.726-1.08,1.435-1.828,2.126C476.692,359.932,477.53,360.56,478.339,361.32z M478.548,367.716l-1.475,1.16
						c-0.949-0.727-1.934-1.33-2.951-1.811c-0.635,0.48-1.758,1.084-3.375,1.811l-1.334-1.055c1.51-0.715,2.594-1.335,3.25-1.862
						c-0.656-0.41-1.652-0.866-2.988-1.37l1.318-1.107c1.207,0.434,2.238,0.885,3.092,1.353c0.328-0.188,0.99-0.749,1.986-1.687
						l1.615,0.826c-0.596,0.772-1.264,1.411-2.002,1.915C476.657,366.333,477.612,366.942,478.548,367.716z"/>
					<path fill="#333E48" d="M525.761,386.077h-31.979v-2.267h14.9v-8.241h-10.736v-2.267h10.736v-7.168h-7.961
						c-0.959,2.494-2.564,4.797-4.814,6.904l-2.318-1.212c3.842-3.549,5.98-7.895,6.414-13.037l2.371,0.686
						c-0.094,1.194-0.369,2.671-0.826,4.428h7.1v-7.696h2.371v7.661h12.404v2.267h-12.404v7.134h10.578v2.266h-10.578v8.241h14.742
						V386.077z"/>
					<path fill="#333E48" d="M562.323,364.307l-1.264,1.828c-3.994-0.984-7.123-2.12-9.383-3.408v1.58h-11.879v-1.739
						c-3.42,1.77-6.488,2.923-9.205,3.462l-1.16-1.846c6.584-1.604,12.064-4.287,16.445-8.047l2.162,0.721
						c-0.236,0.293-0.439,0.498-0.615,0.615C551.313,360.705,556.28,362.983,562.323,364.307z M558.583,374.375h-25.512v-8.24
						h25.512V374.375z M556.491,387.868h-2.162v-1.405h-16.973v1.405h-2.16V376.22h21.295V387.868z M544.771,372.478v-4.393h-9.539
						v4.393H544.771z M554.329,380.419v-2.267h-16.973v2.267H554.329z M554.329,384.565v-2.301h-16.973v2.301H554.329z
						 M542.435,370.738l-1.811,1.265c-1.088-1.101-2.154-1.915-3.197-2.442l1.828-1.054
						C540.497,369.033,541.556,369.777,542.435,370.738z M550.956,362.357c-1.699-0.89-3.344-2.091-4.938-3.603
						c-1.699,1.405-3.602,2.606-5.709,3.603H550.956z M556.421,372.478v-4.393h-9.488v4.393H556.421z M554.296,369.122
						c-0.693,1.101-1.734,2.037-3.129,2.811l-1.932-0.966c1.533-0.867,2.588-1.734,3.162-2.601L554.296,369.122z"/>
				</g>
			</g>
			<g>
				<path fill="#333E48" d="M105.421,645.462v-67.756h8.154v60.572h28.83v7.184H105.421z"/>
				<path fill="#333E48" d="M157.159,583.628c-1.684,0-2.896-0.403-3.641-1.214c-0.744-0.809-1.115-1.859-1.115-3.154v-1.263
					c0-1.294,0.371-2.345,1.115-3.154c0.744-0.809,1.957-1.214,3.641-1.214c1.682,0,2.896,0.405,3.641,1.214
					c0.742,0.81,1.115,1.86,1.115,3.154v1.263c0,1.295-0.373,2.346-1.115,3.154C160.056,583.225,158.841,583.628,157.159,583.628z
					 M153.276,595.373h7.766v50.089h-7.766V595.373z"/>
				<path fill="#333E48" d="M177.544,645.462v-50.089h7.766v8.062h0.389c1.229-2.817,2.961-5.062,5.193-6.727
					s5.225-2.499,8.979-2.499c5.178,0,9.271,1.666,12.279,4.998c3.01,3.334,4.514,8.042,4.514,14.125v32.13h-7.766v-30.838
					c0-9.016-3.785-13.523-11.357-13.523c-1.553,0-3.057,0.195-4.514,0.584c-1.455,0.39-2.766,0.974-3.932,1.752
					c-1.164,0.777-2.086,1.766-2.766,2.967c-0.68,1.199-1.02,2.609-1.02,4.231v34.827H177.544z"/>
				<path fill="#333E48" d="M272.479,643.812c0,6.924-1.941,12.36-5.824,16.308s-9.354,5.922-16.406,5.922
					c-4.076,0-7.588-0.634-10.531-1.9c-2.945-1.27-5.387-2.942-7.328-5.022l4.561-5.362c1.684,1.731,3.625,3.064,5.824,3.996
					s4.758,1.396,7.67,1.396c4.529,0,8.039-1.251,10.531-3.752c2.49-2.504,3.738-6.193,3.738-11.068V637.4h-0.389
					c-1.49,3.076-3.432,5.382-5.824,6.919c-2.395,1.539-5.34,2.308-8.834,2.308c-3.105,0-5.922-0.616-8.445-1.845
					s-4.658-2.976-6.406-5.241c-1.748-2.265-3.105-5.015-4.076-8.251c-0.971-3.235-1.457-6.859-1.457-10.872
					c0-4.012,0.486-7.636,1.457-10.872c0.971-3.235,2.328-5.985,4.076-8.251c1.748-2.265,3.883-4.012,6.406-5.242
					c2.523-1.229,5.34-1.844,8.445-1.844c3.494,0,6.488,0.753,8.979,2.258c2.492,1.506,4.385,3.828,5.68,6.968h0.389v-8.062h7.766
					V643.812z M251.997,639.734c1.748,0,3.396-0.228,4.951-0.683c1.553-0.455,2.895-1.122,4.027-2
					c1.133-0.877,2.039-1.951,2.719-3.219s1.02-2.748,1.02-4.439v-18.635c0-1.365-0.324-2.649-0.971-3.854
					c-0.648-1.203-1.555-2.227-2.719-3.073c-1.164-0.845-2.523-1.511-4.076-1.999c-1.555-0.488-3.203-0.732-4.951-0.732
					c-4.402,0-7.896,1.398-10.484,4.195s-3.883,6.406-3.883,10.829v8.585c0,4.423,1.295,8.032,3.883,10.83
					C244.101,638.336,247.595,639.734,251.997,639.734z"/>
				<path fill="#333E48" d="M319.849,637.4h-0.389c-0.518,1.154-1.148,2.292-1.893,3.413c-0.744,1.12-1.666,2.114-2.766,2.979
					c-1.102,0.864-2.428,1.554-3.98,2.066c-1.553,0.512-3.365,0.769-5.436,0.769c-5.18,0-9.287-1.665-12.328-4.999
					c-3.043-3.333-4.563-8.04-4.563-14.124v-32.131h7.766v30.839c0,9.015,3.816,13.522,11.453,13.522
					c1.555,0,3.059-0.193,4.514-0.584c1.457-0.388,2.75-0.972,3.883-1.75s2.039-1.767,2.719-2.967c0.68-1.199,1.02-2.644,1.02-4.33
					v-34.73h7.766v50.089h-7.766V637.4z"/>
				<path fill="#333E48" d="M347.999,583.628c-1.684,0-2.898-0.403-3.641-1.214c-0.744-0.809-1.117-1.859-1.117-3.154v-1.263
					c0-1.294,0.373-2.345,1.117-3.154c0.742-0.809,1.957-1.214,3.641-1.214c1.682,0,2.895,0.405,3.639,1.214
					c0.744,0.81,1.117,1.86,1.117,3.154v1.263c0,1.295-0.373,2.346-1.117,3.154C350.894,583.225,349.681,583.628,347.999,583.628z
					 M344.116,595.373h7.766v50.089h-7.766V595.373z"/>
				<path fill="#333E48" d="M383.429,646.627c-4.658,0-8.559-0.891-11.697-2.67c-3.139-1.778-5.84-4.157-8.105-7.135l5.533-4.465
					c1.941,2.46,4.109,4.353,6.504,5.678c2.395,1.328,5.178,1.991,8.35,1.991c3.299,0,5.871-0.712,7.717-2.136
					c1.844-1.423,2.766-3.43,2.766-6.019c0-1.941-0.631-3.606-1.893-4.999c-1.262-1.392-3.543-2.345-6.844-2.863l-3.98-0.583
					c-2.328-0.323-4.465-0.825-6.406-1.505s-3.641-1.585-5.096-2.718c-1.457-1.132-2.59-2.539-3.398-4.223
					c-0.809-1.682-1.213-3.688-1.213-6.018c0-2.459,0.453-4.611,1.359-6.456s2.15-3.381,3.736-4.61
					c1.586-1.229,3.479-2.151,5.68-2.767c2.199-0.614,4.563-0.922,7.086-0.922c4.076,0,7.49,0.712,10.24,2.135
					c2.75,1.425,5.16,3.397,7.232,5.922l-5.145,4.659c-1.102-1.553-2.719-2.961-4.854-4.223s-4.822-1.893-8.057-1.893
					c-3.236,0-5.68,0.695-7.33,2.087c-1.648,1.392-2.475,3.285-2.475,5.679c0,2.46,0.826,4.239,2.475,5.339
					c1.65,1.102,4.029,1.909,7.135,2.427l3.883,0.582c5.566,0.842,9.514,2.443,11.844,4.805c2.33,2.363,3.494,5.453,3.494,9.271
					c0,4.854-1.65,8.673-4.951,11.454C393.72,645.236,389.188,646.627,383.429,646.627z"/>
				<path fill="#333E48" d="M426.044,645.462c-2.717,0-4.771-0.759-6.164-2.275c-1.391-1.517-2.086-3.503-2.086-5.957v-34.964
					h-8.252v-6.893h4.66c1.682,0,2.83-0.34,3.445-1.02c0.615-0.679,0.922-1.859,0.922-3.543v-9.318h6.99v13.881h10.969v6.893H425.56
					v36.305h10.191v6.892H426.044z"/>
				<path fill="#333E48" d="M452.933,583.628c-1.684,0-2.896-0.403-3.639-1.214c-0.746-0.809-1.117-1.859-1.117-3.154v-1.263
					c0-1.294,0.371-2.345,1.117-3.154c0.742-0.809,1.955-1.214,3.639-1.214s2.896,0.405,3.641,1.214
					c0.744,0.81,1.117,1.86,1.117,3.154v1.263c0,1.295-0.373,2.346-1.117,3.154C455.829,583.225,454.616,583.628,452.933,583.628z
					 M449.05,595.373h7.766v50.089h-7.766V595.373z"/>
				<path fill="#333E48" d="M491.956,646.627c-3.494,0-6.635-0.616-9.416-1.845c-2.783-1.229-5.129-2.976-7.037-5.241
					c-1.91-2.265-3.367-5.015-4.369-8.251c-1.004-3.235-1.504-6.859-1.504-10.872c0-4.012,0.5-7.636,1.504-10.872
					c1.002-3.235,2.459-5.985,4.369-8.251c1.908-2.265,4.254-4.012,7.037-5.242c2.781-1.229,5.922-1.844,9.416-1.844
					c4.982,0,8.979,1.084,11.988,3.251c3.01,2.169,5.258,5,6.746,8.493l-6.504,3.302c-0.906-2.588-2.395-4.595-4.465-6.019
					c-2.072-1.423-4.66-2.136-7.766-2.136c-2.33,0-4.369,0.373-6.115,1.116c-1.748,0.744-3.203,1.78-4.369,3.106
					c-1.164,1.327-2.039,2.912-2.621,4.756c-0.582,1.845-0.873,3.868-0.873,6.067v8.542c0,4.402,1.18,8.009,3.543,10.823
					c2.361,2.815,5.84,4.223,10.436,4.223c6.275,0,10.807-2.912,13.59-8.736l5.631,3.786c-1.619,3.625-4.029,6.504-7.232,8.64
					C500.741,645.559,496.745,646.627,491.956,646.627z"/>
				<path fill="#333E48" d="M537.19,646.627c-4.66,0-8.559-0.891-11.697-2.67c-3.141-1.778-5.842-4.157-8.105-7.135l5.533-4.465
					c1.941,2.46,4.109,4.353,6.504,5.678c2.393,1.328,5.176,1.991,8.348,1.991c3.301,0,5.873-0.712,7.717-2.136
					c1.846-1.423,2.768-3.43,2.768-6.019c0-1.941-0.631-3.606-1.893-4.999c-1.264-1.392-3.545-2.345-6.844-2.863l-3.98-0.583
					c-2.33-0.323-4.465-0.825-6.406-1.505s-3.641-1.585-5.098-2.718c-1.455-1.132-2.588-2.539-3.396-4.223
					c-0.811-1.682-1.213-3.688-1.213-6.018c0-2.459,0.451-4.611,1.357-6.456s2.152-3.381,3.738-4.61
					c1.584-1.229,3.479-2.151,5.678-2.767c2.199-0.614,4.563-0.922,7.088-0.922c4.076,0,7.488,0.712,10.24,2.135
					c2.75,1.425,5.16,3.397,7.232,5.922l-5.146,4.659c-1.1-1.553-2.717-2.961-4.854-4.223c-2.135-1.262-4.82-1.893-8.057-1.893
					s-5.678,0.695-7.328,2.087s-2.475,3.285-2.475,5.679c0,2.46,0.824,4.239,2.475,5.339c1.65,1.102,4.029,1.909,7.135,2.427
					l3.883,0.582c5.564,0.842,9.514,2.443,11.842,4.805c2.33,2.363,3.496,5.453,3.496,9.271c0,4.854-1.65,8.673-4.951,11.454
					C547.479,645.236,542.948,646.627,537.19,646.627z"/>
				<path fill="#333E48" d="M124.446,763.112c-5.5,0-10.191-1.053-14.074-3.155c-3.883-2.102-7.184-4.999-9.902-8.688l6.02-5.048
					c2.393,3.172,5.047,5.582,7.959,7.232c2.912,1.649,6.342,2.475,10.291,2.475c4.854,0,8.557-1.165,11.113-3.494
					c2.557-2.33,3.834-5.437,3.834-9.319c0-3.234-0.971-5.727-2.912-7.474c-1.941-1.748-5.145-3.139-9.609-4.175l-5.533-1.262
					c-6.213-1.423-10.953-3.575-14.221-6.455c-3.27-2.879-4.902-6.94-4.902-12.183c0-2.976,0.549-5.63,1.65-7.96
					c1.1-2.329,2.637-4.271,4.611-5.824c1.973-1.553,4.334-2.733,7.086-3.543c2.75-0.809,5.775-1.214,9.076-1.214
					c5.111,0,9.496,0.939,13.152,2.815c3.656,1.878,6.746,4.628,9.271,8.251l-6.115,4.466c-1.879-2.588-4.143-4.626-6.795-6.116
					c-2.654-1.487-5.955-2.232-9.902-2.232c-4.336,0-7.75,0.922-10.24,2.767c-2.492,1.845-3.738,4.611-3.738,8.3
					c0,3.236,1.051,5.679,3.156,7.328c2.102,1.65,5.289,2.962,9.561,3.932l5.533,1.263c6.664,1.489,11.486,3.754,14.463,6.795
					c2.977,3.042,4.465,7.086,4.465,12.134c0,3.106-0.533,5.921-1.602,8.445c-1.066,2.523-2.605,4.659-4.609,6.406
					c-2.008,1.747-4.451,3.106-7.33,4.077S128.071,763.112,124.446,763.112z"/>
				<path fill="#333E48" d="M179.972,763.112c-3.367,0-6.441-0.616-9.223-1.845c-2.783-1.229-5.162-2.992-7.135-5.29
					c-1.975-2.296-3.512-5.048-4.611-8.251s-1.648-6.811-1.648-10.823c0-3.946,0.549-7.538,1.648-10.775
					c1.1-3.234,2.637-6.002,4.611-8.3c1.973-2.296,4.352-4.06,7.135-5.29c2.781-1.229,5.855-1.844,9.223-1.844
					c3.363,0,6.422,0.615,9.172,1.844c2.75,1.23,5.129,2.994,7.135,5.29c2.006,2.298,3.559,5.065,4.66,8.3
					c1.1,3.237,1.65,6.829,1.65,10.775c0,4.013-0.551,7.62-1.65,10.823c-1.102,3.203-2.654,5.955-4.66,8.251
					c-2.006,2.298-4.385,4.062-7.135,5.29S183.335,763.112,179.972,763.112z M179.972,756.22c4.205,0,7.635-1.293,10.289-3.883
					c2.652-2.587,3.98-6.535,3.98-11.843v-7.183c0-5.306-1.328-9.254-3.98-11.843c-2.654-2.588-6.084-3.883-10.289-3.883
					c-4.207,0-7.637,1.295-10.291,3.883c-2.654,2.589-3.979,6.537-3.979,11.843v7.183c0,5.308,1.324,9.256,3.979,11.843
					C172.335,754.927,175.765,756.22,179.972,756.22z"/>
				<path fill="#333E48" d="M234.04,763.112c-3.494,0-6.635-0.616-9.416-1.845c-2.783-1.229-5.131-2.976-7.037-5.241
					c-1.91-2.265-3.367-5.015-4.369-8.251c-1.004-3.235-1.504-6.859-1.504-10.872c0-4.012,0.5-7.636,1.504-10.872
					c1.002-3.235,2.459-5.985,4.369-8.251c1.906-2.265,4.254-4.012,7.037-5.242c2.781-1.229,5.922-1.844,9.416-1.844
					c4.982,0,8.979,1.084,11.988,3.251c3.008,2.169,5.256,5,6.746,8.494l-6.504,3.301c-0.906-2.588-2.395-4.595-4.465-6.019
					c-2.072-1.423-4.66-2.136-7.766-2.136c-2.33,0-4.369,0.373-6.115,1.116c-1.748,0.744-3.203,1.78-4.369,3.106
					c-1.164,1.327-2.039,2.912-2.621,4.756c-0.582,1.845-0.873,3.868-0.873,6.067v8.542c0,4.402,1.18,8.009,3.543,10.824
					c2.361,2.814,5.84,4.222,10.436,4.222c6.275,0,10.807-2.912,13.59-8.736l5.629,3.786c-1.617,3.625-4.027,6.504-7.23,8.64
					C242.825,762.044,238.827,763.112,234.04,763.112z"/>
				<path fill="#333E48" d="M268.11,700.113c-1.684,0-2.896-0.403-3.641-1.214c-0.744-0.809-1.115-1.859-1.115-3.155v-1.261
					c0-1.294,0.371-2.346,1.115-3.156c0.744-0.808,1.957-1.213,3.641-1.213c1.682,0,2.896,0.405,3.641,1.213
					c0.742,0.811,1.115,1.862,1.115,3.156v1.261c0,1.296-0.373,2.347-1.115,3.155C271.007,699.71,269.792,700.113,268.11,700.113z
					 M264.228,711.858h7.766v50.089h-7.766V711.858z"/>
				<path fill="#333E48" d="M307.327,763.112c-3.43,0-6.52-0.616-9.27-1.845c-2.752-1.229-5.113-2.992-7.086-5.29
					c-1.977-2.296-3.496-5.048-4.563-8.251c-1.068-3.203-1.602-6.811-1.602-10.823c0-3.946,0.533-7.538,1.602-10.775
					c1.066-3.234,2.586-6.002,4.563-8.3c1.973-2.296,4.334-4.06,7.086-5.29c2.75-1.229,5.84-1.844,9.27-1.844
					c3.365,0,6.373,0.612,9.027,1.838s4.918,2.92,6.795,5.079c1.877,2.16,3.316,4.724,4.32,7.69
					c1.002,2.967,1.504,6.223,1.504,9.769v3.677H292.96v2.33c0,2.136,0.34,4.125,1.02,5.97s1.65,3.446,2.912,4.805
					c1.262,1.359,2.816,2.427,4.66,3.204c1.844,0.776,3.932,1.164,6.262,1.164c3.17,0,5.936-0.743,8.299-2.232
					c2.361-1.487,4.189-3.623,5.484-6.406l5.533,4.005c-1.619,3.453-4.143,6.236-7.572,8.352
					C316.128,762.054,312.05,763.112,307.327,763.112z M307.327,717.197c-2.135,0-4.076,0.37-5.824,1.11s-3.252,1.785-4.514,3.136
					c-1.262,1.35-2.25,2.942-2.961,4.774c-0.713,1.833-1.068,3.843-1.068,6.03v0.675h27.666v-1.062c0-4.438-1.213-7.99-3.641-10.659
					C314.56,718.532,311.339,717.197,307.327,717.197z"/>
				<path fill="#333E48" d="M352.853,761.947c-2.717,0-4.771-0.758-6.164-2.275c-1.391-1.517-2.086-3.503-2.086-5.957v-34.964
					h-8.252v-6.893h4.66c1.682,0,2.83-0.34,3.445-1.02c0.615-0.679,0.922-1.859,0.922-3.542v-9.319h6.99v13.881h10.969v6.893
					h-10.969v36.305h10.191v6.892H352.853z"/>
				<path fill="#333E48" d="M406.728,711.858h7.668l-22.422,61.737c-0.584,1.488-1.166,2.733-1.748,3.737
					c-0.582,1.003-1.295,1.796-2.135,2.378c-0.842,0.583-1.895,1.003-3.156,1.263c-1.262,0.258-2.799,0.388-4.609,0.388h-3.98
					v-6.892h7.863l3.785-10.661l-18.734-51.95h7.766l12.037,34.007l2.328,8.139h0.486l2.717-8.139L406.728,711.858z"/>
				<g>
					<path fill="#333E48" d="M118.827,856.86l-2.416-7.679h-10.699l-2.373,7.679h-5.781l10.096-30.112h7.074l10.01,30.112H118.827z
						 M111.147,831.926h-0.215l-3.84,12.381h7.938L111.147,831.926z"/>
					<path fill="#333E48" d="M149.153,856.86l-2.416-7.679h-10.699l-2.371,7.679h-5.781l10.094-30.112h7.076l10.008,30.112H149.153z
						 M141.474,831.926h-0.215l-3.84,12.381h7.938L141.474,831.926z"/>
					<path fill="#333E48" d="M178.618,844.135h-12.553v12.726h-5.695v-30.112h5.695v12.338h12.553v-12.338h5.695v30.112h-5.695
						V844.135z"/>
					<path fill="#333E48" d="M201.958,843.229l-4.012,4.746v8.886h-5.695v-30.112h5.695v14.841h0.215l4.271-5.65l7.463-9.19h6.557
						l-10.482,12.554l11.346,17.559h-6.773L201.958,843.229z"/>
					<path fill="#333E48" d="M227.755,826.748v18.508c0,2.359,0.453,4.127,1.359,5.307s2.438,1.769,4.594,1.769
						c2.158,0,3.689-0.589,4.596-1.769s1.359-2.947,1.359-5.307v-18.508h5.607v17.775c0,2.215-0.209,4.127-0.625,5.736
						c-0.418,1.611-1.086,2.949-2.006,4.014c-0.922,1.063-2.123,1.848-3.604,2.351c-1.48,0.502-3.271,0.754-5.371,0.754
						c-2.129,0-3.918-0.252-5.371-0.754c-1.451-0.503-2.639-1.287-3.559-2.351c-0.92-1.064-1.582-2.402-1.984-4.014
						c-0.402-1.609-0.604-3.521-0.604-5.736v-17.775H227.755z"/>
					<path fill="#333E48" d="M262.354,857.378c-2.588,0-4.781-0.46-6.58-1.382c-1.797-0.922-3.342-2.132-4.637-3.631l3.84-3.715
						c1.035,1.197,2.191,2.111,3.473,2.738c1.279,0.629,2.695,0.942,4.248,0.942c1.754,0,3.078-0.379,3.971-1.134
						c0.891-0.757,1.336-1.776,1.336-3.061c0-1-0.287-1.813-0.861-2.441c-0.576-0.627-1.654-1.084-3.236-1.37l-2.848-0.427
						c-6.012-0.951-9.016-3.874-9.016-8.77c0-1.354,0.25-2.576,0.754-3.67c0.504-1.096,1.23-2.031,2.18-2.809
						s2.092-1.375,3.43-1.793c1.338-0.417,2.854-0.626,4.551-0.626c2.271,0,4.256,0.375,5.953,1.124
						c1.697,0.75,3.15,1.857,4.357,3.328l-3.883,3.675c-0.748-0.912-1.654-1.654-2.717-2.225c-1.064-0.569-2.402-0.855-4.014-0.855
						c-1.639,0-2.867,0.307-3.688,0.92c-0.82,0.612-1.23,1.476-1.23,2.587c0,1.141,0.33,1.981,0.992,2.523
						c0.662,0.541,1.727,0.941,3.193,1.197l2.805,0.518c3.047,0.548,5.299,1.52,6.75,2.916c1.453,1.396,2.18,3.346,2.18,5.852
						c0,1.44-0.252,2.742-0.756,3.909c-0.502,1.165-1.236,2.173-2.199,3.022c-0.965,0.85-2.143,1.504-3.537,1.966
						C265.769,857.148,264.167,857.378,262.354,857.378z"/>
					<path fill="#333E48" d="M285.606,826.748v18.508c0,2.359,0.453,4.127,1.359,5.307s2.438,1.769,4.594,1.769
						c2.158,0,3.689-0.589,4.596-1.769c0.904-1.18,1.357-2.947,1.357-5.307v-18.508h5.609v17.775c0,2.215-0.209,4.127-0.625,5.736
						c-0.418,1.611-1.086,2.949-2.008,4.014c-0.92,1.063-2.121,1.848-3.602,2.351c-1.482,0.502-3.271,0.754-5.371,0.754
						c-2.129,0-3.92-0.252-5.371-0.754c-1.453-0.503-2.639-1.287-3.559-2.351c-0.922-1.064-1.582-2.402-1.984-4.014
						c-0.404-1.609-0.604-3.521-0.604-5.736v-17.775H285.606z"/>
				</g>
			</g>
		</g>
		<g>
			<g>
				<path fill="#5A5C66" d="M77.708,170.748c3.777,0,6.839,3.062,6.839,6.838c-0.001-0.14-0.006-0.279-0.006-0.419
					c0-51.155,41.468-92.626,92.626-92.626c3.775,0,6.837-3.061,6.837-6.837s-3.062-6.838-6.837-6.838
					c-14.345,0-28.268,2.813-41.383,8.359C123.125,84.58,111.759,92.242,102.001,102c-9.76,9.759-17.422,21.126-22.775,33.785
					c-5.547,13.115-8.359,27.037-8.359,41.382c0,0.14,0.004,0.279,0.005,0.419C70.871,173.81,73.932,170.748,77.708,170.748z"/>
				<path fill="#858591" d="M170.329,276.63c0-3.776,3.061-6.838,6.838-6.838c-51.018,0-92.395-41.243-92.62-92.206
					c0-3.776-3.062-6.838-6.839-6.838c-3.776,0-6.837,3.062-6.837,6.838c0.054,14.196,2.861,27.976,8.354,40.963
					c5.354,12.658,13.016,24.026,22.775,33.784c9.758,9.759,21.124,17.421,33.783,22.775c13.115,5.548,27.038,8.36,41.383,8.36
					C173.39,283.469,170.329,280.406,170.329,276.63z"/>
				<path fill="#9F9EA7" d="M251.267,243.705c-2.672-2.671-7-2.671-9.671,0c-16.671,16.145-39.388,26.087-64.429,26.087
					c-3.777,0-6.838,3.062-6.838,6.838s3.061,6.839,6.838,6.839c14.344,0,28.267-2.813,41.381-8.36
					c12.203-5.161,23.199-12.474,32.719-21.733C253.937,250.705,253.937,246.375,251.267,243.705z"/>
			</g>
			<g>
				<g>
					<g>
						<path fill="#9F9EA7" d="M233.458,120.875c-15.035-15.036-35.027-23.315-56.293-23.315c-21.263,0-41.256,8.279-56.291,23.315
							s-23.317,35.028-23.317,56.292c0,21.265,8.282,41.255,23.317,56.292c15.035,15.035,35.028,23.317,56.291,23.317
							c21.266,0,41.258-8.282,56.293-23.317c15.035-15.037,23.315-35.027,23.315-56.292
							C256.773,155.903,248.493,135.911,233.458,120.875z"/>
						<path fill="#333E48" d="M121.062,202.912v-51.489h11.166v3.807h-6.473v43.876h6.473v3.807H121.062z"/>
						<path fill="#333E48" d="M233.271,151.423v51.489h-11.164v-3.807h6.469v-43.876h-6.469v-3.807H233.271z"/>
						<path fill="#FFFFFF" d="M146.995,187.627c0,1.027,0.017,2.242,0.049,3.635c0.031,1.395,0.075,2.813,0.129,4.249
							c0.053,1.438,0.117,2.812,0.193,4.12c0.074,1.309,0.166,2.402,0.273,3.281h-6.598v-36.365c0-3.131-0.053-5.969-0.16-8.512
							s-0.268-4.747-0.483-6.612h6.597V187.627z"/>
						<path fill="#FFFFFF" d="M175.799,170.088v4.217h-6.05v24.393h6.05v4.216h-18.021v-4.216h5.953v-24.393h-5.953v-4.217H175.799z
							"/>
						<path fill="#FFFFFF" d="M189.315,170.088c0.129,0.344,0.258,0.787,0.386,1.336c0.13,0.547,0.246,1.12,0.354,1.721
							c0.105,0.601,0.203,1.191,0.29,1.771l0.256,1.446c2.061-2.445,4.13-4.209,6.211-5.293c2.081-1.082,4.25-1.625,6.501-1.625
							c1.718,0,3.235,0.284,4.555,0.854s2.43,1.471,3.331,2.703c0.9,1.234,1.581,2.832,2.044,4.795
							c0.461,1.964,0.691,4.327,0.691,7.098v14.479c0,3.627-0.317,6.637-0.95,9.027c-0.632,2.395-1.519,4.303-2.654,5.73
							c-1.137,1.425-2.506,2.434-4.104,3.023c-1.599,0.591-3.374,0.885-5.327,0.885c-0.965,0-2-0.154-3.105-0.466
							c-1.104-0.312-2.107-0.745-3.008-1.304l2.092-4.827c0.493,0.364,1.152,0.67,1.979,0.918c0.826,0.246,1.669,0.369,2.525,0.369
							c1.031,0,1.954-0.165,2.771-0.498c0.814-0.333,1.506-0.917,2.074-1.753c0.568-0.838,1.003-1.985,1.304-3.444
							c0.3-1.46,0.45-3.315,0.45-5.567v-14.16c0-2.574-0.134-4.662-0.402-6.26c-0.268-1.598-0.671-2.843-1.207-3.732
							c-0.536-0.891-1.207-1.486-2.013-1.787c-0.803-0.299-1.742-0.45-2.814-0.45c-1.158,0-2.289,0.274-3.395,0.821
							c-1.104,0.547-2.12,1.256-3.043,2.124c-0.922,0.868-1.736,1.849-2.444,2.944c-0.708,1.094-1.234,2.188-1.578,3.282v18.666
							h-5.952v-19.792c0-3.176-0.184-5.862-0.549-8.063c-0.363-2.198-0.719-3.855-1.062-4.971H189.315z"/>
					</g>
				</g>
			</g>
		</g>
	</g>
</g>
</svg>
