<?xml version="1.0" encoding="utf-8"?>
<!-- Generator: Adobe Illustrator 16.0.0, SVG Export Plug-In . SVG Version: 6.00 Build 0)  -->
<!DOCTYPE svg PUBLIC "-//W3C//DTD SVG 1.0//EN" "http://www.w3.org/TR/2001/REC-SVG-20010904/DTD/svg10.dtd">
<svg version="1.0" id="Logotypes" xmlns="http://www.w3.org/2000/svg" xmlns:xlink="http://www.w3.org/1999/xlink" x="0px" y="0px"
	 width="655.268px" height="708.668px" viewBox="0 0 655.268 708.668" enable-background="new 0 0 655.268 708.668"
	 xml:space="preserve">
<g>
	<defs>
		<rect id="SVGID_121_" width="655.268" height="708.668"/>
	</defs>
	<clipPath id="SVGID_2_">
		<use xlink:href="#SVGID_121_"  overflow="visible"/>
	</clipPath>
	<g clip-path="url(#SVGID_2_)">
		<g>
			<path fill="#5A5C66" d="M155.417,341.496c7.555,0,13.677,6.124,13.677,13.676c-0.002-0.278-0.012-0.558-0.012-0.837
				c0-102.311,82.936-185.249,185.249-185.249c7.552,0,13.675-6.122,13.675-13.675c0-7.553-6.123-13.676-13.675-13.676
				c-28.688,0-56.534,5.625-82.763,16.719c-25.319,10.709-48.053,26.033-67.567,45.549c-19.518,19.518-34.844,42.25-45.551,67.57
				c-11.094,26.229-16.718,54.073-16.718,82.762c0,0.279,0.008,0.559,0.01,0.837C141.742,347.62,147.863,341.496,155.417,341.496z"
				/>
			<path fill="#858591" d="M340.655,553.259c0-7.553,6.122-13.676,13.676-13.676c-102.032,0-184.787-82.486-185.237-184.411
				c0-7.552-6.122-13.676-13.677-13.676c-7.554,0-13.675,6.124-13.675,13.676c0.108,28.394,5.723,55.952,16.708,81.925
				c10.707,25.318,26.033,48.053,45.551,67.568c19.515,19.518,42.248,34.842,67.567,45.551c26.229,11.095,54.074,16.72,82.763,16.72
				C346.777,566.936,340.655,560.813,340.655,553.259z"/>
			<path fill="#9F9EA7" d="M502.53,487.409c-5.343-5.342-14-5.342-19.342,0c-33.341,32.289-78.775,52.174-128.857,52.174
				c-7.554,0-13.676,6.123-13.676,13.676c0,7.554,6.122,13.677,13.676,13.677c28.689,0,56.533-5.625,82.761-16.72
				c24.407-10.322,46.4-24.947,65.438-43.467C507.871,501.409,507.871,492.749,502.53,487.409z"/>
		</g>
		<g>
			<g>
				<g>
					<path fill="#9F9EA7" d="M466.914,241.751c-30.071-30.07-70.056-46.63-112.585-46.63c-42.526,0-82.511,16.56-112.582,46.63
						c-30.071,30.072-46.635,70.057-46.635,112.584c0,42.529,16.563,82.508,46.635,112.582
						c30.071,30.071,70.056,46.636,112.582,46.636c42.529,0,82.514-16.564,112.585-46.636c30.07-30.074,46.63-70.053,46.63-112.582
						C513.544,311.808,496.984,271.823,466.914,241.751z"/>
					<path fill="#333E48" d="M242.121,405.825V302.848h22.334v7.612H251.51v87.752h12.945v7.613H242.121z"/>
					<path fill="#333E48" d="M466.539,302.848v102.978h-22.33v-7.613h12.939V310.46h-12.939v-7.612H466.539z"/>
					<path fill="#FFFFFF" d="M293.99,375.255c0,2.056,0.032,4.483,0.096,7.271c0.063,2.789,0.151,5.624,0.259,8.497
						c0.106,2.875,0.234,5.623,0.387,8.24c0.147,2.617,0.331,4.805,0.546,6.563h-13.193v-72.73c0-6.263-0.106-11.938-0.322-17.022
						c-0.213-5.086-0.535-9.495-0.966-13.225h13.194V375.255z"/>
					<path fill="#FFFFFF" d="M351.596,340.176v8.434h-12.101v48.786h12.101v8.432h-36.041v-8.432h11.906v-48.786h-11.906v-8.434
						H351.596z"/>
					<path fill="#FFFFFF" d="M378.629,340.176c0.257,0.688,0.515,1.576,0.771,2.674c0.261,1.093,0.492,2.239,0.709,3.44
						c0.212,1.201,0.405,2.382,0.58,3.541l0.512,2.893c4.121-4.89,8.259-8.417,12.422-10.585c4.163-2.166,8.5-3.251,13.003-3.251
						c3.434,0,6.47,0.568,9.107,1.706c2.639,1.14,4.86,2.941,6.663,5.406c1.8,2.469,3.161,5.666,4.087,9.591
						c0.922,3.928,1.383,8.654,1.383,14.194v28.958c0,7.254-0.635,13.273-1.9,18.055c-1.264,4.787-3.036,8.605-5.309,11.461
						c-2.272,2.85-5.011,4.867-8.207,6.047c-3.196,1.182-6.746,1.77-10.652,1.77c-1.93,0-4-0.311-6.211-0.932
						c-2.209-0.625-4.215-1.49-6.018-2.607l4.185-9.654c0.986,0.729,2.306,1.34,3.958,1.836c1.651,0.492,3.337,0.738,5.051,0.738
						c2.063,0,3.907-0.332,5.539-0.996c1.63-0.666,3.012-1.834,4.148-3.508c1.138-1.674,2.007-3.969,2.608-6.887
						c0.6-2.92,0.9-6.631,0.9-11.135v-28.321c0-5.148-0.269-9.322-0.805-12.518c-0.536-3.196-1.343-5.687-2.415-7.467
						c-1.071-1.78-2.413-2.972-4.024-3.574c-1.605-0.598-3.483-0.899-5.63-0.899c-2.315,0-4.577,0.548-6.787,1.644
						c-2.21,1.093-4.241,2.51-6.086,4.247c-1.845,1.736-3.475,3.697-4.89,5.889c-1.415,2.188-2.469,4.375-3.156,6.564v37.332
						h-11.905v-39.584c0-6.351-0.365-11.725-1.096-16.124c-0.728-4.397-1.438-7.713-2.124-9.943H378.629z"/>
				</g>
			</g>
		</g>
	</g>
</g>
</svg>
