<?xml version="1.0" encoding="utf-8"?>
<!-- Generator: Adobe Illustrator 16.0.0, SVG Export Plug-In . SVG Version: 6.00 Build 0)  -->
<!DOCTYPE svg PUBLIC "-//W3C//DTD SVG 1.0//EN" "http://www.w3.org/TR/2001/REC-SVG-20010904/DTD/svg10.dtd">
<svg version="1.0" id="Logotypes" xmlns="http://www.w3.org/2000/svg" xmlns:xlink="http://www.w3.org/1999/xlink" x="0px" y="0px"
	 width="633.19px" height="575.327px" viewBox="0 0 633.19 575.327" enable-background="new 0 0 633.19 575.327"
	 xml:space="preserve">
<g>
	<defs>
		<rect id="SVGID_39_" width="633.19" height="575.327"/>
	</defs>
	<clipPath id="SVGID_2_">
		<use xlink:href="#SVGID_39_"  overflow="visible"/>
	</clipPath>
	<g clip-path="url(#SVGID_2_)">
		<g>
			<g>
				<g>
					<path fill="#A49B4B" d="M79.222,135.787c-4.553,10.764-7.26,22.072-8.085,33.713c1.794-1.461,4.08-2.34,6.568-2.34
						c2.748,0,5.244,1.078,7.108,2.818c3.669-47.795,43.612-85.436,92.351-85.436c3.777,0,6.838-3.063,6.838-6.838
						c0-3.777-3.06-6.838-6.838-6.838c-14.344,0-28.268,2.813-41.383,8.359c-12.659,5.355-24.025,13.016-33.784,22.775
						C92.238,111.76,84.575,123.127,79.222,135.787z"/>
					<path fill="#A49B4B" d="M169.594,269.486c-47.478-3.842-84.836-43.482-85.051-91.898c0-3.775-3.06-6.838-6.838-6.838
						c-3.776,0-6.838,3.063-6.838,6.838c0.055,14.197,2.861,27.977,8.354,40.963c5.354,12.66,13.017,24.027,22.776,33.785
						c9.758,9.76,21.125,17.422,33.784,22.777c10.629,4.494,21.787,7.193,33.27,8.055c-1.443-1.789-2.313-4.061-2.313-6.533
						C166.738,273.867,167.83,271.355,169.594,269.486z"/>
					<path fill="#A49B4B" d="M251.266,243.707c-1.335-1.334-3.084-2.002-4.834-2.002s-3.501,0.668-4.836,2.002
						c-16.672,16.146-39.389,26.09-64.432,26.09c-3.775,0-6.838,3.061-6.838,6.838c0,3.775,3.063,6.838,6.838,6.838
						c14.346,0,28.268-2.813,41.383-8.359c12.203-5.162,23.201-12.475,32.719-21.734
						C253.938,250.709,253.938,246.379,251.266,243.707z"/>
					<path fill="#A49B4B" d="M177.165,70.869c-14.34,0-28.27,2.811-41.38,8.36c-12.66,5.35-24.03,13.01-33.79,22.77
						c-9.76,9.761-17.42,21.131-22.77,33.79c-4.56,10.761-7.26,22.07-8.09,33.71c1.8-1.46,4.08-2.34,6.57-2.34
						c2.75,0,5.24,1.08,7.11,2.82c3.67-47.8,43.61-85.44,92.35-85.44c3.78,0,6.84-3.06,6.84-6.829
						C184.004,73.93,180.944,70.869,177.165,70.869z M169.595,269.489c-47.48-3.84-84.84-43.49-85.05-91.899
						c0-3.78-3.06-6.841-6.84-6.841c-3.78,0-6.84,3.061-6.84,6.841c0.06,14.199,2.86,27.97,8.36,40.96
						c5.35,12.66,13.01,24.029,22.77,33.79c9.76,9.76,21.13,17.42,33.79,22.77c10.63,4.5,21.78,7.2,33.27,8.061
						c-1.45-1.79-2.32-4.061-2.32-6.53C166.734,273.869,167.834,271.359,169.595,269.489z M251.265,243.71
						c-1.33-1.341-3.08-2-4.83-2s-3.5,0.659-4.84,2c-16.67,16.14-39.39,26.09-64.43,26.09c-3.78,0-6.84,3.06-6.84,6.84
						c0,3.77,3.06,6.83,6.84,6.83c14.35,0,28.27-2.811,41.38-8.36c12.21-5.16,23.2-12.47,32.72-21.729
						C253.935,250.71,253.935,246.38,251.265,243.71z"/>
				</g>
				<g>
					<g>
						<g>
							<path fill="#A49B4B" d="M233.455,120.88c-15.03-15.04-35.02-23.32-56.29-23.32c-21.26,0-41.26,8.28-56.29,23.32
								c-15.04,15.029-23.32,35.02-23.32,56.29c0,21.27,8.28,41.26,23.32,56.29c15.03,15.039,35.03,23.319,56.29,23.319
								c21.27,0,41.26-8.28,56.29-23.319c15.04-15.03,23.32-35.021,23.32-56.29C256.774,155.899,248.495,135.909,233.455,120.88z
								 M132.225,155.229h-6.47v43.88h6.47v3.8h-11.17V151.43h11.17V155.229z M141.044,202.909V166.55c0-3.13-0.06-5.971-0.16-8.511
								c-0.11-2.55-0.27-4.75-0.49-6.609h6.6v36.2c0,1.029,0.02,2.239,0.05,3.64c0.03,1.39,0.07,2.81,0.13,4.24
								c0.05,1.439,0.11,2.81,0.19,4.12c0.07,1.31,0.17,2.409,0.27,3.279H141.044z M175.794,174.31h-6.05v24.39h6.05v4.221h-18.02
								v-4.221h5.96v-24.39h-5.96v-4.22h18.02V174.31z M213.935,199.38c0,3.619-0.32,6.63-0.95,9.02c-0.63,2.4-1.52,4.311-2.65,5.73
								c-1.14,1.43-2.51,2.439-4.11,3.029s-3.37,0.88-5.32,0.88c-0.97,0-2.01-0.149-3.11-0.47c-1.11-0.31-2.11-0.74-3.01-1.3
								l2.09-4.83c0.5,0.37,1.16,0.67,1.98,0.92c0.83,0.25,1.67,0.37,2.53,0.37c1.03,0,1.95-0.17,2.77-0.5
								c0.81-0.33,1.5-0.91,2.07-1.75c0.57-0.84,1-1.99,1.31-3.44c0.3-1.46,0.45-3.319,0.45-5.569v-14.16
								c0-2.58-0.14-4.66-0.41-6.26c-0.26-1.601-0.67-2.84-1.2-3.74c-0.54-0.89-1.21-1.48-2.02-1.78c-0.8-0.3-1.74-0.45-2.81-0.45
								c-1.16,0-2.29,0.271-3.4,0.82c-1.1,0.55-2.12,1.25-3.04,2.12s-1.74,1.85-2.44,2.95c-0.71,1.09-1.24,2.18-1.58,3.279v18.671
								h-5.95v-19.801c0-3.17-0.19-5.859-0.55-8.06c-0.37-2.2-0.72-3.85-1.06-4.97h5.79c0.13,0.34,0.26,0.79,0.39,1.34
								c0.13,0.54,0.24,1.12,0.35,1.72c0.11,0.6,0.2,1.19,0.29,1.771l0.26,1.439c2.06-2.439,4.13-4.21,6.21-5.29s4.25-1.62,6.5-1.62
								c1.72,0,3.23,0.28,4.55,0.851c1.32,0.569,2.43,1.47,3.33,2.699c0.91,1.24,1.58,2.841,2.05,4.801
								c0.46,1.96,0.69,4.33,0.69,7.1V199.38z M233.274,202.909h-11.17v-3.8h6.47v-43.88h-6.47v-3.8h11.17V202.909z"/>
						</g>
					</g>
				</g>
			</g>
		</g>
		<g>
			<g>
				<path fill="#A49B4B" d="M129.768,442.097H97.559v-5.346h32.209V442.097z M125.576,499.027h-5.52v-5.86h-12.873v5.86h-5.604
					v-28.915h23.996V499.027z M125.318,453.133l-23.653,0.085v-5.346h23.653V453.133z M125.404,464.339h-23.739v-5.347h23.739
					V464.339z M124.334,431.233l-21.728,0.086v-5.348h21.728V431.233z M120.057,487.905v-12.531h-12.959v12.531H120.057z
					 M175.318,464.425l-46.237,0.085v-5.261h11.463l2.48-13.217h-10.692v-5.261h11.549l1.838-9.796H129.34v-5.346h42.473v5.262
					h-20.318l-1.752,9.795h17.621l-1.84,18.477h9.795V464.425z M167.877,499.198h-5.517v-5.774h-21.643v5.774h-5.604v-29h32.763
					V499.198z M162.359,488.163V475.46h-21.729v12.703H162.359z M161.504,445.946h-12.703l-2.48,13.303h13.857L161.504,445.946z"/>
				<path fill="#A49B4B" d="M271.761,442.097h-77.76v-5.346h77.76V442.097z M260.299,453.047h-55.604v-5.175h55.604V453.047z
					 M260.299,464.167h-55.604v-5.175h55.604V464.167z M258.289,499.198h-5.518v-6.031H212.65v6.031h-5.518v-29.086h51.156V499.198z
					 M258.203,430.677l-50.643,0.129v-5.176h50.643V430.677z M252.771,487.905v-12.531H212.65v12.531H252.771z"/>
				<path fill="#A49B4B" d="M368.205,483.715h-34.432v5.945c0,6.358-3.379,9.538-10.139,9.538h-5.688l-2.095-5.261h7.955
					c2.795,0,4.193-1.284,4.193-3.85v-6.373h-37.555v-5.347H328v-3.679c5.957-2.224,10.221-4.305,12.787-6.244h-32.764v-4.919
					h42.262v4.662c-4.451,3.022-9.953,6.116-16.512,9.281v0.898h34.432V483.715z M364.613,467.846h-5.135v-8.854h-59.752v9.367
					h-5.604v-14.371h7.357v-26.092c4.047-0.399,8.482-2.324,13.302-5.774l2.823,3.936c-2.596,2.396-6.131,4.207-10.607,5.432v3.594
					h10.949v4.448h-10.949v4.662h10.949v4.362h-10.949v5.433h45.467v-5.433h-10.438v-4.277h10.438v-5.004h-10.352v-4.363h10.352
					v-4.662h-12.105v-5.176h17.537v28.829h6.717V467.846z M340.359,434.655l-2.992,3.678c-1.627-1.567-3.838-3.265-6.631-5.09
					c-2.309,1.939-4.904,3.721-7.785,5.347l-3.508-3.08c2.768-1.14,5.189-2.48,7.273-4.021c-3.48-1.311-6.289-2.224-8.428-2.736
					l2.182-3.936c3.164,0.798,6.344,1.825,9.539,3.079c2.023-1.909,3.721-3.863,5.09-5.859l3.592,2.866
					c-1.141,1.768-2.623,3.493-4.448,5.175C336.353,431.275,338.393,432.802,340.359,434.655z M340.873,450.224l-3.592,2.823
					c-2.311-1.769-4.708-3.236-7.186-4.405c-1.541,1.169-4.277,2.637-8.213,4.405l-3.25-2.566c3.678-1.739,6.314-3.251,7.912-4.534
					c-1.598-0.997-4.02-2.109-7.271-3.336l3.207-2.694c2.938,1.056,5.447,2.153,7.529,3.293c0.797-0.455,2.408-1.824,4.832-4.106
					l3.936,2.011c-1.455,1.882-3.079,3.437-4.875,4.663C336.267,446.859,338.592,448.342,340.873,450.224z"/>
				<path fill="#A49B4B" d="M464.563,483.715h-34.432v5.945c0,6.358-3.379,9.538-10.137,9.538h-5.689l-2.096-5.261h7.955
					c2.795,0,4.191-1.284,4.191-3.85v-6.373h-37.553v-5.347h37.553v-3.679c5.961-2.224,10.223-4.305,12.791-6.244h-32.766v-4.919
					h42.26v4.662c-4.447,3.022-9.953,6.116-16.51,9.281v0.898h34.432V483.715z M460.971,467.846h-5.135v-8.854h-59.752v9.367h-5.603
					v-14.371h7.357v-26.092c4.049-0.399,8.482-2.324,13.303-5.774l2.822,3.936c-2.594,2.396-6.131,4.207-10.607,5.432v3.594h10.949
					v4.448h-10.949v4.662h10.949v4.362h-10.949v5.433h45.467v-5.433h-10.436v-4.277h10.436v-5.004h-10.352v-4.363h10.352v-4.662
					h-12.105v-5.176h17.537v28.829h6.717V467.846z M438.24,449.265l-3.896,3.563c-1.779-2.673-4.324-6.019-6.785-8.096
					c-3.826,4.263-6.975,6.976-9.434,8.137l-3.855-3.238c2.898-1.379,6.041-3.955,9.434-7.732c-3.855-2.402-6.604-3.888-8.244-4.455
					l3.364-3.479c1.367,0.539,3.936,1.941,7.711,4.21c1.123-1.836,1.996-3.847,2.625-6.033h-12.879v-5.06h6.904v-5.21h4.432v5.21
					h8.195v5.06h-1.623c-0.91,3.349-2.135,6.249-3.676,8.705C433.494,443.112,436.354,446.565,438.24,449.265z"/>
				<path fill="#A49B4B" d="M562.33,441.927l-3.078,4.447c-9.725-2.395-17.338-5.16-22.84-8.297v3.85h-28.916v-4.235
					c-8.326,4.306-15.797,7.115-22.412,8.427l-2.822-4.491c16.023-3.906,29.369-10.437,40.035-19.59l5.26,1.753
					c-0.57,0.713-1.07,1.213-1.498,1.497C535.525,433.157,547.617,438.704,562.33,441.927z M553.219,466.435h-62.104v-20.061h62.104
					V466.435z M548.131,499.283h-5.262v-3.422h-41.316v3.422h-5.262v-28.357h51.84V499.283z M519.602,461.815v-10.693h-23.227
					v10.693H519.602z M542.869,481.148v-5.518h-41.316v5.518H542.869z M542.869,491.243v-5.604h-41.316v5.604H542.869z
					 M513.912,457.581l-4.404,3.079c-2.652-2.679-5.248-4.661-7.785-5.945l4.447-2.565
					C509.193,453.432,511.773,455.243,513.912,457.581z M534.658,437.179c-4.135-2.167-8.143-5.09-12.02-8.769
					c-4.135,3.422-8.768,6.345-13.9,8.769H534.658z M547.961,461.815v-10.693h-23.098v10.693H547.961z M542.783,453.646
					c-1.682,2.681-4.221,4.963-7.613,6.844l-4.705-2.352c3.736-2.11,6.303-4.221,7.699-6.332L542.783,453.646z"/>
			</g>
			<g>
				<path fill="#A49B4B" d="M130.17,372.177l-1.635,1.881c-4.895-1.723-9.557-4.756-13.984-9.102l0.035,6.869h8.205v15.11h-2.232
					v-2.021h-14.215v2.021h-2.301v-15.11h8.24v-6.869c-2.412,3.689-6.771,6.577-13.072,8.662l-1.652-1.863
					c5.588-1.476,9.582-3.742,11.984-6.799h-9.998v-2.197h12.738v-3.391c-2.799,0.281-6.314,0.486-10.543,0.615l-1.51-2.126
					c9.99-0.036,17.969-0.872,23.93-2.513l1.688,1.688c-3.314,0.89-7.07,1.574-11.262,2.055v3.672H127.5v2.197l-10.068-0.035
					C121.156,368.153,125.402,370.573,130.17,372.177z M120.559,377.114v-3.092h-14.25v3.092H120.559z M120.559,382.755v-3.479
					h-14.25v3.479H120.559z"/>
				<path fill="#A49B4B" d="M139.307,373.793c-1.477,4.581-3.408,8.336-5.797,11.264l2.055,1.3
					c2.658-3.351,4.615-7.104,5.869-11.262L139.307,373.793z M135.6,364.042l-1.477,1.846c2.331,0.995,4.176,2.424,5.536,4.286
					l1.545-2.091C139.986,366.454,138.117,365.108,135.6,364.042z M137.32,356.171l-1.65,1.688c2.248,0.807,4.023,2.166,5.324,4.075
					l1.65-1.774C141.391,358.343,139.617,357.015,137.32,356.171z"/>
				<path fill="#A49B4B" d="M160.285,379.136v-6.625c1.395,1.313,2.895,2.39,4.5,3.234l1.439-1.952
					c-3.068-1.311-5.459-3.386-7.168-6.219h6.008v-2.161h-5.744v-4.199h4.338v-2.162h-4.338v-3.706h-2.232v3.741h-6.518v-3.741
					h-2.232v3.741h-4.322v2.16h4.357v4.199h-5.728v2.163h5.799c-1.299,2.437-3.648,4.463-7.045,6.078l1.65,1.95
					c1.004-0.582,1.93-1.215,2.775-1.896v9.418c0,2.015,1.008,3.021,3.023,3.021h11.508c0.937,0,1.678-0.311,2.223-0.931
					c0.545-0.621,0.971-1.845,1.273-3.671l-2.266-1.021c-0.152,1.464-0.375,2.4-0.668,2.811c-0.293,0.411-0.685,0.615-1.176,0.615
					h-10.719c-0.647,0-0.967-0.321-0.967-0.967v-3.882H160.285z M150.57,361.214h6.552v4.199h-6.552V361.214z M150.779,367.574
					h5.975c0.574,1.358,1.441,2.688,2.6,3.989h-11.156C149.463,370.169,150.324,368.839,150.779,367.574z M148.057,373.724h9.998
					v3.285h-9.998V373.724z"/>
				<path fill="#A49B4B" d="M202.068,385.179l-1.635,1.827c-7.32-3.993-11.97-10.724-13.951-20.188
					c-2.447,9.617-7.438,16.347-14.969,20.188l-1.775-2.091c7.461-3.631,12.188-9.651,14.179-18.062h-11.947v-2.267h12.211
					c0.223-2.202,0.316-5.283,0.281-9.242l2.441,0.352c0.059,3.584-0.012,6.536-0.211,8.855h13.318v2.267h-11.086
					C190.33,374.843,194.713,380.962,202.068,385.179z"/>
				<path fill="#A49B4B" d="M237.894,380.61H223.75v2.443c0,2.611-1.389,3.918-4.164,3.918h-2.338l-0.859-2.161h3.267
					c1.147,0,1.721-0.527,1.721-1.581v-2.619h-15.426v-2.195h15.426v-1.512c2.449-0.913,4.201-1.769,5.254-2.564h-13.459v-2.021
					h17.359v1.915c-1.826,1.242-4.088,2.513-6.781,3.813v0.369h14.145V380.61z M236.418,374.093h-2.107v-3.638h-24.547v3.848h-2.301
					v-5.903h3.021v-10.718c1.662-0.163,3.484-0.954,5.465-2.372l1.158,1.617c-1.064,0.983-2.518,1.727-4.357,2.23v1.477h4.498v1.827
					h-4.498v1.915h4.498v1.792h-4.498v2.231h18.678v-2.231h-4.287v-1.757h4.287v-2.056h-4.252v-1.792h4.252v-1.915h-4.973v-2.126
					h7.205v11.842h2.758V374.093z M226.455,360.458l-1.23,1.51c-0.666-0.644-1.574-1.34-2.723-2.09
					c-0.947,0.797-2.014,1.529-3.197,2.196l-1.442-1.265c1.137-0.469,2.133-1.02,2.987-1.652c-1.428-0.538-2.582-0.913-3.461-1.125
					l0.896-1.615c1.301,0.328,2.607,0.75,3.918,1.265c0.832-0.784,1.529-1.587,2.092-2.407l1.477,1.178
					c-0.471,0.726-1.078,1.435-1.828,2.126C224.81,359.069,225.646,359.696,226.455,360.458z M226.666,366.854l-1.475,1.159
					c-0.949-0.726-1.934-1.329-2.953-1.81c-0.633,0.48-1.756,1.084-3.373,1.81l-1.336-1.055c1.512-0.714,2.596-1.334,3.252-1.861
					c-0.656-0.41-1.652-0.867-2.988-1.371l1.318-1.107c1.207,0.434,2.238,0.886,3.092,1.354c0.328-0.188,0.99-0.749,1.986-1.687
					l1.615,0.826c-0.596,0.772-1.264,1.411-2.002,1.915C224.775,365.471,225.728,366.08,226.666,366.854z"/>
				<path fill="#A49B4B" d="M273.879,380.61h-14.145v2.443c0,2.611-1.389,3.918-4.164,3.918h-2.338l-0.859-2.161h3.268
					c1.146,0,1.721-0.527,1.721-1.581v-2.619h-15.426v-2.195h15.426v-1.512c2.449-0.913,4.199-1.769,5.254-2.564h-13.459v-2.021
					h17.36v1.915c-1.826,1.242-4.088,2.513-6.781,3.813v0.369h14.145V380.61z M272.402,374.093h-2.109v-3.638h-24.545v3.848h-2.303
					v-5.903h3.023v-10.718c1.662-0.163,3.484-0.954,5.463-2.372l1.16,1.617c-1.066,0.983-2.518,1.727-4.357,2.23v1.477h4.498v1.827
					h-4.498v1.915h4.498v1.792h-4.498v2.231h18.678v-2.231h-4.287v-1.757h4.287v-2.056h-4.252v-1.792h4.252v-1.915h-4.973v-2.126
					h7.203v11.842h2.76V374.093z M262.439,360.458l-1.229,1.51c-0.668-0.644-1.576-1.34-2.725-2.09
					c-0.949,0.797-2.016,1.529-3.197,2.196l-1.441-1.265c1.137-0.469,2.133-1.02,2.986-1.652c-1.428-0.538-2.582-0.913-3.461-1.125
					l0.896-1.615c1.301,0.328,2.605,0.75,3.918,1.265c0.832-0.784,1.529-1.587,2.092-2.407l1.475,1.178
					c-0.469,0.726-1.076,1.435-1.826,2.126C260.795,359.069,261.631,359.696,262.439,360.458z M262.65,366.854l-1.477,1.159
					c-0.947-0.726-1.932-1.329-2.951-1.81c-0.633,0.48-1.758,1.084-3.373,1.81l-1.336-1.055c1.512-0.714,2.596-1.334,3.25-1.861
					c-0.654-0.41-1.651-0.867-2.986-1.371l1.318-1.107c1.207,0.434,2.236,0.886,3.092,1.354c0.328-0.188,0.99-0.749,1.986-1.687
					l1.615,0.826c-0.598,0.772-1.264,1.411-2.002,1.915C260.76,365.471,261.713,366.08,262.65,366.854z"/>
				<path fill="#A49B4B" d="M309.861,385.214h-31.977v-2.266h14.898v-8.241h-10.734v-2.267h10.734v-7.168h-7.959
					c-0.961,2.494-2.564,4.797-4.814,6.904l-2.318-1.213c3.842-3.549,5.979-7.895,6.412-13.036l2.373,0.685
					c-0.094,1.195-0.369,2.672-0.826,4.429h7.098v-7.696h2.373v7.66h12.404v2.268h-12.404v7.133h10.578v2.267h-10.578v8.241h14.74
					V385.214z"/>
				<path fill="#A49B4B" d="M346.426,363.444l-1.266,1.828c-3.994-0.984-7.121-2.12-9.381-3.408v1.58H323.9v-1.739
					c-3.42,1.769-6.488,2.923-9.207,3.462l-1.158-1.846c6.582-1.604,12.064-4.287,16.445-8.047l2.16,0.721
					c-0.235,0.293-0.439,0.498-0.613,0.615C335.416,359.843,340.381,362.121,346.426,363.444z M342.684,373.513h-25.512v-8.24
					h25.512V373.513z M340.594,387.006h-2.162v-1.405h-16.973v1.405h-2.162v-11.648h21.297V387.006z M328.873,371.614v-4.393h-9.541
					v4.393H328.873z M338.432,379.557v-2.267h-16.973v2.267H338.432z M338.432,383.703v-2.302h-16.973v2.302H338.432z
					 M326.537,369.876l-1.811,1.265c-1.09-1.101-2.155-1.915-3.197-2.442l1.826-1.054
					C324.597,368.171,325.658,368.915,326.537,369.876z M335.058,361.495c-1.699-0.891-3.346-2.092-4.939-3.604
					c-1.697,1.406-3.6,2.607-5.709,3.604H335.058z M340.523,371.614v-4.393h-9.489v4.393H340.523z M338.396,368.259
					c-0.691,1.102-1.735,2.038-3.127,2.812l-1.934-0.966c1.535-0.867,2.59-1.734,3.162-2.602L338.396,368.259z"/>
				<path fill="#A49B4B" d="M382.199,384.704l-1.547,2.057c-5.961-1.757-10.799-4.123-14.512-7.099
					c-3.199,2.612-8.223,5.025-15.076,7.239l-1.721-2.091c6.629-1.839,11.643-4.07,15.039-6.694
					c-3.408-3.222-5.699-7.139-6.869-11.755c-0.633,1.628-1.5,3.175-2.602,4.639l-1.861-1.704c1.477-1.758,2.664-3.685,3.566-5.781
					h-6.045v-2.16h14.094v-6.01h2.266v5.974h14.336v2.161h-6.01c-1.053,6.115-3.477,10.981-7.273,14.602
					C371.439,380.704,376.178,382.913,382.199,384.704z M372.904,363.479h-13.598c0.936,5.424,3.225,9.787,6.869,13.09
					C369.736,373.255,371.979,368.892,372.904,363.479z"/>
				<path fill="#A49B4B" d="M417.816,380.61H403.67v2.443c0,2.611-1.387,3.918-4.164,3.918h-2.336l-0.861-2.161h3.268
					c1.148,0,1.723-0.527,1.723-1.581v-2.619h-15.426v-2.195h15.426v-1.512c2.447-0.913,4.199-1.769,5.252-2.564h-13.457v-2.021
					h17.359v1.915c-1.828,1.242-4.09,2.513-6.783,3.813v0.369h14.146V380.61z M416.34,374.093h-2.109v-3.638h-24.547v3.848h-2.301
					v-5.903h3.021v-10.718c1.664-0.163,3.486-0.954,5.467-2.372l1.158,1.617c-1.064,0.983-2.52,1.727-4.359,2.23v1.477h4.5v1.827
					h-4.5v1.915h4.5v1.792h-4.5v2.231h18.68v-2.231h-4.289v-1.757h4.289v-2.056h-4.252v-1.792h4.252v-1.915h-4.973v-2.126h7.203
					v11.842h2.76V374.093z M406.377,360.458l-1.23,1.51c-0.668-0.644-1.576-1.34-2.723-2.09c-0.949,0.797-2.016,1.529-3.199,2.196
					l-1.439-1.265c1.135-0.469,2.131-1.02,2.986-1.652c-1.43-0.538-2.584-0.913-3.461-1.125l0.896-1.615
					c1.299,0.328,2.606,0.75,3.918,1.265c0.832-0.784,1.528-1.587,2.09-2.407l1.477,1.178c-0.469,0.726-1.078,1.435-1.826,2.126
					C404.73,359.069,405.568,359.696,406.377,360.458z M406.588,366.854l-1.477,1.159c-0.947-0.726-1.934-1.329-2.951-1.81
					c-0.633,0.48-1.758,1.084-3.375,1.81l-1.336-1.055c1.514-0.714,2.596-1.334,3.252-1.861c-0.656-0.41-1.652-0.867-2.986-1.371
					l1.316-1.107c1.207,0.434,2.238,0.886,3.094,1.354c0.328-0.188,0.99-0.749,1.985-1.687l1.617,0.826
					c-0.598,0.772-1.266,1.411-2.002,1.915C404.695,365.471,405.648,366.08,406.588,366.854z"/>
				<path fill="#A49B4B" d="M429.832,367.292c2.367,2.66,3.551,5.254,3.551,7.784c0,1.229-0.32,2.208-0.959,2.935
					c-0.637,0.727-1.531,1.09-2.68,1.09c-0.631,0-1.395-0.077-2.283-0.229l-0.65-2.338c1.254,0.317,2.156,0.475,2.705,0.475
					c0.457,0,0.873-0.176,1.248-0.527c0.375-0.351,0.563-0.819,0.563-1.405c0-0.878-0.322-2.003-0.965-3.374
					c-0.646-1.369-1.614-2.676-2.9-3.917l3.426-8.804h-5.217v27.99h-2.303v-30.221h9.855v2.23L429.832,367.292z M454.063,380.523
					c-0.305,1.897-0.715,3.274-1.23,4.128c-0.516,0.855-1.354,1.283-2.512,1.283h-2.74c-1.828,0-2.742-0.961-2.742-2.881v-9.295
					h-3.707c-0.07,3.771-0.807,6.598-2.205,8.478c-1.4,1.88-3.996,3.458-7.793,4.735l-1.477-2.021
					c3.525-1.041,5.945-2.389,7.258-4.041c1.313-1.651,1.973-4.023,1.984-7.115h-4.815v-2.303h18.821v2.268h-5.871v8.75
					c0,0.293,0.094,0.565,0.281,0.816c0.187,0.253,0.41,0.378,0.668,0.378h2.232c0.457,0,0.805-0.374,1.045-1.124
					s0.441-1.722,0.607-2.917L454.063,380.523z M452.041,364.587l-2.23,0.035v-3.093h-13.248v3.093h-2.268v-5.324h7.713v-3.988
					h2.303v3.953h7.73V364.587z M449.09,367.978h-11.877v-2.301h11.877V367.978z"/>
				<path fill="#A49B4B" d="M489.783,380.61h-14.145v2.443c0,2.611-1.389,3.918-4.164,3.918h-2.336l-0.861-2.161h3.268
					c1.148,0,1.723-0.527,1.723-1.581v-2.619H457.84v-2.195h15.428v-1.512c2.447-0.913,4.199-1.769,5.252-2.564h-13.459v-2.021
					h17.359v1.915c-1.826,1.242-4.088,2.513-6.781,3.813v0.369h14.145V380.61z M488.307,374.093h-2.107v-3.638h-24.545v3.848h-2.303
					v-5.903h3.023v-10.718c1.66-0.163,3.482-0.954,5.463-2.372l1.16,1.617c-1.066,0.983-2.52,1.727-4.357,2.23v1.477h4.498v1.827
					h-4.498v1.915h4.498v1.792h-4.498v2.231h18.676v-2.231h-4.287v-1.757h4.287v-2.056h-4.25v-1.792h4.25v-1.915h-4.971v-2.126
					h7.203v11.842h2.758V374.093z M478.346,360.458l-1.232,1.51c-0.668-0.644-1.574-1.34-2.723-2.09
					c-0.949,0.797-2.014,1.529-3.197,2.196l-1.441-1.265c1.137-0.469,2.133-1.02,2.988-1.652c-1.43-0.538-2.584-0.913-3.461-1.125
					l0.895-1.615c1.301,0.328,2.607,0.75,3.918,1.265c0.832-0.784,1.529-1.587,2.092-2.407l1.477,1.178
					c-0.469,0.726-1.08,1.435-1.828,2.126C476.699,359.069,477.537,359.696,478.346,360.458z M478.555,366.854l-1.475,1.159
					c-0.949-0.726-1.934-1.329-2.951-1.81c-0.635,0.48-1.758,1.084-3.375,1.81l-1.334-1.055c1.51-0.714,2.594-1.334,3.25-1.861
					c-0.656-0.41-1.652-0.867-2.988-1.371l1.318-1.107c1.207,0.434,2.238,0.886,3.092,1.354c0.328-0.188,0.99-0.749,1.986-1.687
					l1.615,0.826c-0.596,0.772-1.264,1.411-2.002,1.915C476.664,365.471,477.619,366.08,478.555,366.854z"/>
				<path fill="#A49B4B" d="M525.768,385.214h-31.979v-2.266h14.9v-8.241h-10.736v-2.267h10.736v-7.168h-7.961
					c-0.959,2.494-2.564,4.797-4.814,6.904l-2.318-1.213c3.842-3.549,5.98-7.895,6.414-13.036l2.371,0.685
					c-0.094,1.195-0.369,2.672-0.826,4.429h7.1v-7.696h2.371v7.66h12.404v2.268h-12.404v7.133h10.578v2.267h-10.578v8.241h14.742
					V385.214z"/>
				<path fill="#A49B4B" d="M562.33,363.444l-1.264,1.828c-3.994-0.984-7.123-2.12-9.383-3.408v1.58h-11.879v-1.739
					c-3.42,1.769-6.488,2.923-9.205,3.462l-1.16-1.846c6.584-1.604,12.064-4.287,16.445-8.047l2.162,0.721
					c-0.236,0.293-0.439,0.498-0.615,0.615C551.32,359.843,556.287,362.121,562.33,363.444z M558.59,373.513h-25.512v-8.24h25.512
					V373.513z M556.498,387.006h-2.162v-1.405h-16.973v1.405h-2.16v-11.648h21.295V387.006z M544.777,371.614v-4.393h-9.539v4.393
					H544.777z M554.336,379.557v-2.267h-16.973v2.267H554.336z M554.336,383.703v-2.302h-16.973v2.302H554.336z M542.441,369.876
					l-1.811,1.265c-1.088-1.101-2.154-1.915-3.197-2.442l1.828-1.054C540.504,368.171,541.563,368.915,542.441,369.876z
					 M550.963,361.495c-1.699-0.891-3.344-2.092-4.938-3.604c-1.699,1.406-3.602,2.607-5.709,3.604H550.963z M556.428,371.614
					v-4.393h-9.488v4.393H556.428z M554.303,368.259c-0.693,1.102-1.734,2.038-3.129,2.812l-1.932-0.966
					c1.533-0.867,2.588-1.734,3.162-2.602L554.303,368.259z"/>
			</g>
		</g>
	</g>
</g>
</svg>
