<?xml version="1.0" encoding="utf-8"?>
<!-- Generator: Adobe Illustrator 16.0.0, SVG Export Plug-In . SVG Version: 6.00 Build 0)  -->
<!DOCTYPE svg PUBLIC "-//W3C//DTD SVG 1.0//EN" "http://www.w3.org/TR/2001/REC-SVG-20010904/DTD/svg10.dtd">
<svg version="1.0" id="Logotypes" xmlns="http://www.w3.org/2000/svg" xmlns:xlink="http://www.w3.org/1999/xlink" x="0px" y="0px"
	 width="633.189px" height="708.429px" viewBox="0 0 633.189 708.429" enable-background="new 0 0 633.189 708.429"
	 xml:space="preserve">
<g>
	<defs>
		<rect id="SVGID_53_" y="-0.002" width="633.189" height="708.431"/>
	</defs>
	<clipPath id="SVGID_2_">
		<use xlink:href="#SVGID_53_"  overflow="visible"/>
	</clipPath>
	<g clip-path="url(#SVGID_2_)">
		<g>
			<g>
				<g>
					<path fill="#FFFFFF" d="M79.223,135.785c-4.553,10.764-7.26,22.072-8.086,33.713c1.795-1.461,4.08-2.34,6.568-2.34
						c2.748,0,5.244,1.078,7.109,2.818c3.668-47.797,43.611-85.436,92.351-85.436c3.776,0,6.836-3.063,6.836-6.838
						c0-3.777-3.06-6.838-6.836-6.838c-14.345,0-28.269,2.813-41.385,8.359C123.123,84.58,111.756,92.24,101.998,102
						C92.238,111.758,84.576,123.125,79.223,135.785z"/>
					<path fill="#FFFFFF" d="M169.596,269.484c-47.479-3.842-84.838-43.482-85.053-91.898c0-3.775-3.06-6.838-6.838-6.838
						c-3.775,0-6.838,3.063-6.838,6.838c0.055,14.197,2.861,27.977,8.355,40.963c5.354,12.66,13.016,24.027,22.775,33.785
						c9.758,9.76,21.125,17.422,33.783,22.777c10.629,4.494,21.787,7.193,33.271,8.055c-1.443-1.789-2.314-4.061-2.314-6.533
						C166.738,273.865,167.83,271.354,169.596,269.484z"/>
					<path fill="#FFFFFF" d="M251.266,243.705c-1.334-1.334-3.084-2.002-4.834-2.002s-3.5,0.668-4.836,2.002
						c-16.672,16.146-39.389,26.09-64.43,26.09c-3.777,0-6.838,3.061-6.838,6.838c0,3.775,3.061,6.838,6.838,6.838
						c14.344,0,28.266-2.813,41.381-8.359c12.205-5.162,23.201-12.475,32.719-21.734
						C253.938,250.707,253.938,246.377,251.266,243.705z"/>
					<path fill="#FFFFFF" d="M177.166,283.471c-3.777,0-6.838-3.063-6.838-6.838c0-3.777,3.061-6.838,6.838-6.838
						c25.041,0,47.758-9.943,64.43-26.09c1.336-1.334,3.086-2.002,4.836-2.002s3.5,0.668,4.834,2.002
						c2.672,2.672,2.672,7.002,0,9.672c-9.518,9.26-20.514,16.572-32.719,21.734C205.432,280.658,191.51,283.471,177.166,283.471z
						 M135.781,275.111c-12.658-5.355-24.025-13.018-33.783-22.777c-9.76-9.758-17.422-21.125-22.775-33.785
						c-5.494-12.986-8.301-26.766-8.355-40.963c0-3.775,3.063-6.838,6.838-6.838c3.777,0,6.838,3.063,6.838,6.838
						c0.215,48.416,37.574,88.057,85.053,91.898c-1.766,1.869-2.857,4.381-2.857,7.148c0,2.473,0.871,4.744,2.314,6.533
						C157.568,282.305,146.41,279.605,135.781,275.111z M177.166,70.865c3.776,0,6.836,3.061,6.836,6.838
						c0,3.775-3.06,6.838-6.836,6.838c-48.74,0-88.683,37.639-92.351,85.436c-1.865-1.74-4.361-2.818-7.109-2.818
						c-2.488,0-4.773,0.879-6.568,2.34c0.826-11.641,3.533-22.949,8.086-33.713c5.354-12.66,13.016-24.027,22.775-33.785
						c9.758-9.76,21.125-17.42,33.783-22.775C148.896,73.678,162.82,70.865,177.166,70.865z"/>
				</g>
				<g>
					<g>
						<g>
							<path fill="#FFFFFF" d="M233.459,120.873c-15.035-15.035-35.029-23.314-56.293-23.314c-21.265,0-41.258,8.279-56.293,23.314
								c-15.037,15.037-23.318,35.029-23.318,56.295c0,21.264,8.281,41.256,23.318,56.293
								c15.035,15.035,35.028,23.318,56.293,23.318c21.264,0,41.258-8.283,56.293-23.318c15.037-15.037,23.317-35.029,23.317-56.293
								C256.775,155.902,248.496,135.91,233.459,120.873z"/>
							<path fill="#333E48" d="M121.061,202.912v-51.488h11.166v3.805h-6.473v43.877h6.473v3.807H121.061z"/>
							<path fill="#333E48" d="M233.271,151.424v51.488h-11.164v-3.807h6.469v-43.877h-6.469v-3.805H233.271z"/>
							<path fill="#333E48" d="M146.996,187.627c0,1.029,0.016,2.242,0.047,3.637c0.031,1.395,0.076,2.811,0.129,4.248
								c0.055,1.438,0.117,2.811,0.193,4.119c0.074,1.309,0.166,2.402,0.273,3.281h-6.598v-36.365c0-3.131-0.052-5.969-0.16-8.512
								s-0.268-4.746-0.484-6.611h6.6V187.627z"/>
							<path fill="#333E48" d="M175.799,170.088v4.217h-6.051v24.393h6.051v4.217h-18.021v-4.217h5.953v-24.393h-5.953v-4.217
								H175.799z"/>
							<path fill="#333E48" d="M189.316,170.088c0.127,0.344,0.256,0.787,0.385,1.336c0.131,0.547,0.246,1.121,0.355,1.721
								c0.105,0.602,0.201,1.191,0.289,1.771l0.256,1.445c2.061-2.443,4.131-4.209,6.211-5.293c2.082-1.082,4.25-1.625,6.502-1.625
								c1.717,0,3.234,0.285,4.553,0.854c1.32,0.57,2.432,1.471,3.332,2.703c0.9,1.234,1.58,2.834,2.043,4.795
								c0.463,1.965,0.691,4.328,0.691,7.098v14.48c0,3.625-0.316,6.637-0.949,9.027c-0.631,2.393-1.518,4.303-2.654,5.73
								c-1.137,1.424-2.506,2.434-4.104,3.023s-3.373,0.885-5.326,0.885c-0.965,0-2-0.156-3.105-0.467
								c-1.104-0.311-2.107-0.744-3.008-1.303l2.092-4.828c0.492,0.365,1.152,0.67,1.979,0.918c0.826,0.246,1.668,0.369,2.525,0.369
								c1.031,0,1.953-0.166,2.77-0.498c0.814-0.332,1.506-0.916,2.074-1.754c0.568-0.836,1.004-1.984,1.305-3.443
								c0.299-1.459,0.449-3.314,0.449-5.568v-14.16c0-2.574-0.135-4.66-0.402-6.258c-0.268-1.6-0.672-2.844-1.207-3.734
								s-1.207-1.484-2.012-1.787c-0.805-0.299-1.742-0.449-2.817-0.449c-1.158,0-2.287,0.273-3.392,0.822
								c-1.105,0.545-2.121,1.254-3.043,2.123c-0.922,0.867-1.738,1.85-2.445,2.943c-0.707,1.096-1.234,2.188-1.578,3.283v18.666
								h-5.953v-19.793c0-3.174-0.182-5.861-0.547-8.061c-0.363-2.199-0.719-3.857-1.062-4.973H189.316z"/>
						</g>
					</g>
				</g>
			</g>
		</g>
		<g>
			<path fill="#FFFFFF" d="M107.457,426.164v-67.755h8.155v60.572h28.83v7.183H107.457z"/>
			<path fill="#FFFFFF" d="M159.195,364.33c-1.684,0-2.896-0.403-3.641-1.213c-0.744-0.809-1.115-1.859-1.115-3.155v-1.262
				c0-1.293,0.371-2.345,1.115-3.155c0.744-0.809,1.957-1.213,3.641-1.213c1.681,0,2.896,0.405,3.641,1.213
				c0.743,0.81,1.116,1.861,1.116,3.155v1.262c0,1.295-0.373,2.346-1.116,3.155C162.092,363.926,160.877,364.33,159.195,364.33z
				 M155.313,376.075h7.766v50.088h-7.766V376.075z"/>
			<path fill="#FFFFFF" d="M179.58,426.164v-50.088h7.766v8.062h0.389c1.229-2.818,2.961-5.062,5.193-6.727
				c2.232-1.666,5.225-2.5,8.979-2.5c5.177,0,9.271,1.667,12.28,4.999c3.009,3.334,4.514,8.042,4.514,14.125v32.13h-7.766v-30.838
				c0-9.016-3.786-13.523-11.357-13.523c-1.554,0-3.058,0.196-4.515,0.584c-1.455,0.39-2.766,0.974-3.931,1.752
				c-1.165,0.778-2.087,1.767-2.767,2.967c-0.68,1.199-1.02,2.61-1.02,4.231v34.827H179.58z"/>
			<path fill="#FFFFFF" d="M274.516,424.514c0,6.924-1.941,12.36-5.824,16.308c-3.883,3.947-9.353,5.922-16.405,5.922
				c-4.077,0-7.589-0.634-10.532-1.901c-2.945-1.27-5.387-2.942-7.328-5.022l4.562-5.363c1.683,1.732,3.624,3.065,5.824,3.997
				c2.199,0.931,4.757,1.396,7.669,1.396c4.529,0,8.04-1.251,10.531-3.752c2.491-2.504,3.738-6.193,3.738-11.068v-6.928h-0.389
				c-1.489,3.076-3.431,5.381-5.824,6.919c-2.395,1.539-5.339,2.307-8.834,2.307c-3.105,0-5.921-0.616-8.445-1.844
				c-2.523-1.229-4.658-2.976-6.406-5.242c-1.747-2.265-3.105-5.015-4.076-8.251c-0.971-3.235-1.457-6.859-1.457-10.872
				c0-4.012,0.486-7.636,1.457-10.872c0.971-3.235,2.329-5.985,4.076-8.251c1.748-2.265,3.883-4.012,6.406-5.242
				c2.524-1.229,5.34-1.844,8.445-1.844c3.495,0,6.488,0.753,8.979,2.258c2.491,1.506,4.384,3.829,5.679,6.968h0.389v-8.062h7.766
				V424.514z M254.033,420.437c1.748,0,3.397-0.228,4.951-0.683c1.553-0.455,2.895-1.123,4.027-2
				c1.133-0.877,2.039-1.951,2.719-3.218c0.68-1.268,1.02-2.749,1.02-4.439v-18.635c0-1.365-0.324-2.65-0.971-3.854
				c-0.648-1.203-1.554-2.227-2.719-3.073c-1.164-0.845-2.523-1.511-4.076-2c-1.554-0.488-3.203-0.732-4.951-0.732
				c-4.401,0-7.896,1.398-10.483,4.195c-2.589,2.797-3.883,6.407-3.883,10.83v8.584c0,4.423,1.294,8.033,3.883,10.83
				C246.137,419.038,249.632,420.437,254.033,420.437z"/>
			<path fill="#FFFFFF" d="M321.885,418.103h-0.389c-0.518,1.154-1.148,2.292-1.893,3.413c-0.744,1.121-1.666,2.114-2.766,2.979
				c-1.102,0.865-2.428,1.554-3.98,2.066c-1.553,0.512-3.365,0.769-5.436,0.769c-5.179,0-9.287-1.665-12.328-4.999
				c-3.043-3.333-4.563-8.04-4.563-14.124v-32.13h7.766v30.838c0,9.015,3.817,13.523,11.454,13.523c1.554,0,3.058-0.194,4.514-0.584
				c1.456-0.388,2.75-0.972,3.883-1.75c1.132-0.778,2.038-1.767,2.718-2.967c0.68-1.199,1.02-2.643,1.02-4.33v-34.73h7.766v50.088
				h-7.766V418.103z"/>
			<path fill="#FFFFFF" d="M350.035,364.33c-1.684,0-2.897-0.403-3.641-1.213c-0.744-0.809-1.116-1.859-1.116-3.155v-1.262
				c0-1.293,0.372-2.345,1.116-3.155c0.743-0.809,1.957-1.213,3.641-1.213c1.682,0,2.895,0.405,3.64,1.213
				c0.743,0.81,1.116,1.861,1.116,3.155v1.262c0,1.295-0.373,2.346-1.116,3.155C352.93,363.926,351.717,364.33,350.035,364.33z
				 M346.152,376.075h7.765v50.088h-7.765V376.075z"/>
			<path fill="#FFFFFF" d="M385.466,427.329c-4.659,0-8.56-0.89-11.697-2.669c-3.14-1.779-5.841-4.158-8.105-7.135l5.533-4.465
				c1.941,2.46,4.108,4.353,6.504,5.679c2.394,1.327,5.177,1.99,8.349,1.99c3.3,0,5.872-0.712,7.717-2.136
				c1.844-1.423,2.766-3.43,2.766-6.019c0-1.941-0.631-3.606-1.893-4.999c-1.262-1.391-3.543-2.345-6.844-2.863l-3.979-0.583
				c-2.329-0.323-4.466-0.825-6.407-1.504s-3.64-1.585-5.096-2.718c-1.456-1.132-2.589-2.54-3.398-4.223
				c-0.809-1.682-1.214-3.688-1.214-6.018c0-2.459,0.453-4.611,1.359-6.456c0.906-1.845,2.15-3.381,3.737-4.611
				c1.585-1.229,3.478-2.151,5.679-2.767c2.199-0.614,4.563-0.922,7.086-0.922c4.077,0,7.49,0.712,10.241,2.135
				c2.75,1.424,5.16,3.397,7.231,5.921l-5.145,4.659c-1.102-1.553-2.718-2.96-4.854-4.223c-2.135-1.262-4.821-1.893-8.057-1.893
				c-3.236,0-5.679,0.696-7.329,2.087c-1.65,1.392-2.476,3.285-2.476,5.679c0,2.46,0.826,4.239,2.476,5.339
				c1.65,1.102,4.028,1.909,7.135,2.427l3.883,0.582c5.565,0.842,9.513,2.444,11.843,4.805c2.33,2.363,3.494,5.453,3.494,9.271
				c0,4.854-1.65,8.672-4.95,11.455C395.756,425.938,391.225,427.329,385.466,427.329z"/>
			<path fill="#FFFFFF" d="M428.081,426.164c-2.718,0-4.772-0.758-6.164-2.275c-1.391-1.517-2.087-3.503-2.087-5.958v-34.964h-8.251
				v-6.892h4.659c1.682,0,2.83-0.34,3.446-1.02c0.614-0.679,0.922-1.859,0.922-3.543v-9.319h6.989v13.881h10.969v6.892h-10.969
				v36.305h10.192v6.892H428.081z"/>
			<path fill="#FFFFFF" d="M454.97,364.33c-1.684,0-2.897-0.403-3.64-1.213c-0.745-0.809-1.117-1.859-1.117-3.155v-1.262
				c0-1.293,0.372-2.345,1.117-3.155c0.742-0.809,1.956-1.213,3.64-1.213c1.683,0,2.896,0.405,3.64,1.213
				c0.744,0.81,1.117,1.861,1.117,3.155v1.262c0,1.295-0.373,2.346-1.117,3.155C457.865,363.926,456.652,364.33,454.97,364.33z
				 M451.087,376.075h7.766v50.088h-7.766V376.075z"/>
			<path fill="#FFFFFF" d="M493.992,427.329c-3.494,0-6.635-0.616-9.416-1.844c-2.783-1.229-5.129-2.976-7.037-5.242
				c-1.91-2.265-3.366-5.015-4.369-8.251c-1.004-3.235-1.504-6.859-1.504-10.872c0-4.012,0.5-7.636,1.504-10.872
				c1.003-3.235,2.459-5.985,4.369-8.251c1.908-2.265,4.254-4.012,7.037-5.242c2.781-1.229,5.922-1.844,9.416-1.844
				c4.982,0,8.979,1.084,11.988,3.251c3.01,2.169,5.258,5,6.746,8.494l-6.504,3.301c-0.906-2.588-2.395-4.595-4.465-6.019
				c-2.072-1.423-4.659-2.136-7.766-2.136c-2.33,0-4.368,0.373-6.115,1.116c-1.748,0.745-3.203,1.781-4.369,3.106
				c-1.164,1.327-2.038,2.912-2.62,4.756c-0.583,1.845-0.874,3.868-0.874,6.067v8.542c0,4.402,1.18,8.009,3.543,10.824
				c2.361,2.815,5.84,4.223,10.436,4.223c6.276,0,10.807-2.912,13.59-8.736l5.631,3.786c-1.619,3.625-4.029,6.504-7.232,8.64
				C502.777,426.261,498.781,427.329,493.992,427.329z"/>
			<path fill="#FFFFFF" d="M539.227,427.329c-4.66,0-8.559-0.89-11.697-2.669c-3.14-1.779-5.841-4.158-8.105-7.135l5.533-4.465
				c1.941,2.46,4.109,4.353,6.504,5.679c2.393,1.327,5.176,1.99,8.348,1.99c3.301,0,5.873-0.712,7.717-2.136
				c1.846-1.423,2.768-3.43,2.768-6.019c0-1.941-0.631-3.606-1.893-4.999c-1.263-1.391-3.544-2.345-6.844-2.863l-3.98-0.583
				c-2.33-0.323-4.465-0.825-6.406-1.504s-3.641-1.585-5.097-2.718c-1.456-1.132-2.589-2.54-3.397-4.223
				c-0.811-1.682-1.213-3.688-1.213-6.018c0-2.459,0.451-4.611,1.358-6.456c0.905-1.845,2.151-3.381,3.737-4.611
				c1.585-1.229,3.479-2.151,5.679-2.767c2.199-0.614,4.563-0.922,7.087-0.922c4.076,0,7.488,0.712,10.24,2.135
				c2.75,1.424,5.16,3.397,7.232,5.921l-5.146,4.659c-1.101-1.553-2.718-2.96-4.854-4.223c-2.136-1.262-4.821-1.893-8.057-1.893
				c-3.237,0-5.679,0.696-7.329,2.087c-1.65,1.392-2.475,3.285-2.475,5.679c0,2.46,0.824,4.239,2.475,5.339
				c1.65,1.102,4.029,1.909,7.135,2.427l3.883,0.582c5.564,0.842,9.514,2.444,11.843,4.805c2.329,2.363,3.495,5.453,3.495,9.271
				c0,4.854-1.65,8.672-4.951,11.455C549.516,425.938,544.985,427.329,539.227,427.329z"/>
			<path fill="#FFFFFF" d="M126.483,543.814c-5.501,0-10.193-1.053-14.075-3.155c-3.883-2.102-7.184-4.999-9.901-8.688l6.019-5.048
				c2.392,3.172,5.047,5.582,7.959,7.232c2.912,1.65,6.342,2.475,10.291,2.475c4.854,0,8.556-1.165,11.113-3.495
				c2.557-2.33,3.835-5.436,3.835-9.319c0-3.235-0.971-5.727-2.912-7.474c-1.941-1.748-5.146-3.139-9.61-4.175l-5.533-1.262
				c-6.213-1.423-10.953-3.575-14.22-6.455c-3.269-2.879-4.902-6.94-4.902-12.183c0-2.976,0.549-5.63,1.65-7.959
				c1.1-2.33,2.636-4.271,4.611-5.824c1.973-1.553,4.334-2.733,7.086-3.543c2.75-0.809,5.775-1.213,9.076-1.213
				c5.111,0,9.496,0.939,13.153,2.815c3.655,1.877,6.746,4.627,9.271,8.251l-6.115,4.465c-1.879-2.588-4.143-4.626-6.795-6.116
				c-2.654-1.488-5.955-2.232-9.902-2.232c-4.336,0-7.75,0.922-10.24,2.766c-2.492,1.845-3.738,4.611-3.738,8.3
				c0,3.237,1.052,5.679,3.156,7.329c2.102,1.65,5.289,2.961,9.561,3.932l5.533,1.262c6.664,1.489,11.486,3.754,14.463,6.795
				c2.976,3.042,4.466,7.086,4.466,12.134c0,3.106-0.534,5.921-1.602,8.445c-1.067,2.523-2.606,4.659-4.61,6.406
				c-2.008,1.748-4.451,3.106-7.329,4.077C133.359,543.329,130.107,543.814,126.483,543.814z"/>
			<path fill="#FFFFFF" d="M182.008,543.814c-3.366,0-6.44-0.616-9.223-1.844c-2.783-1.229-5.161-2.993-7.135-5.291
				c-1.975-2.296-3.511-5.047-4.61-8.251c-1.101-3.203-1.649-6.811-1.649-10.823c0-3.946,0.549-7.538,1.649-10.775
				c1.1-3.234,2.636-6.001,4.61-8.299c1.973-2.296,4.351-4.06,7.135-5.291c2.782-1.229,5.856-1.844,9.223-1.844
				c3.363,0,6.422,0.615,9.173,1.844c2.75,1.23,5.128,2.994,7.135,5.291c2.005,2.298,3.558,5.065,4.659,8.299
				c1.1,3.237,1.65,6.829,1.65,10.775c0,4.013-0.551,7.62-1.65,10.823c-1.101,3.204-2.654,5.955-4.659,8.251
				c-2.007,2.298-4.385,4.062-7.135,5.291C188.43,543.198,185.371,543.814,182.008,543.814z M182.008,536.922
				c4.205,0,7.635-1.293,10.289-3.883c2.652-2.587,3.98-6.536,3.98-11.842v-7.184c0-5.306-1.328-9.254-3.98-11.843
				c-2.654-2.587-6.084-3.883-10.289-3.883c-4.207,0-7.637,1.295-10.29,3.883c-2.654,2.589-3.979,6.537-3.979,11.843v7.184
				c0,5.307,1.325,9.255,3.979,11.842C174.371,535.628,177.801,536.922,182.008,536.922z"/>
			<path fill="#FFFFFF" d="M236.076,543.814c-3.494,0-6.635-0.616-9.416-1.844c-2.783-1.229-5.13-2.976-7.037-5.242
				c-1.91-2.265-3.366-5.015-4.369-8.251c-1.004-3.235-1.504-6.859-1.504-10.872c0-4.012,0.5-7.636,1.504-10.872
				c1.003-3.235,2.459-5.985,4.369-8.251c1.907-2.265,4.254-4.012,7.037-5.242c2.781-1.229,5.922-1.844,9.416-1.844
				c4.982,0,8.979,1.084,11.988,3.251c3.009,2.169,5.257,5,6.746,8.494l-6.504,3.301c-0.906-2.588-2.395-4.595-4.465-6.019
				c-2.072-1.423-4.66-2.136-7.766-2.136c-2.33,0-4.369,0.373-6.115,1.116c-1.748,0.745-3.203,1.781-4.369,3.106
				c-1.164,1.327-2.038,2.912-2.621,4.756c-0.582,1.845-0.873,3.868-0.873,6.067v8.542c0,4.402,1.18,8.008,3.543,10.824
				c2.361,2.815,5.84,4.222,10.436,4.222c6.275,0,10.807-2.912,13.59-8.736l5.63,3.786c-1.618,3.625-4.028,6.504-7.231,8.64
				C244.861,542.746,240.864,543.814,236.076,543.814z"/>
			<path fill="#FFFFFF" d="M270.146,480.815c-1.684,0-2.896-0.403-3.64-1.213c-0.745-0.809-1.116-1.859-1.116-3.155v-1.262
				c0-1.294,0.371-2.345,1.116-3.155c0.743-0.809,1.956-1.213,3.64-1.213c1.683,0,2.896,0.405,3.641,1.213
				c0.743,0.81,1.116,1.861,1.116,3.155v1.262c0,1.295-0.373,2.346-1.116,3.155C273.043,480.412,271.829,480.815,270.146,480.815z
				 M266.264,492.561h7.766v50.088h-7.766V492.561z"/>
			<path fill="#FFFFFF" d="M309.363,543.814c-3.43,0-6.52-0.616-9.27-1.844c-2.752-1.229-5.113-2.993-7.086-5.291
				c-1.976-2.296-3.495-5.047-4.563-8.251c-1.069-3.203-1.602-6.811-1.602-10.823c0-3.946,0.533-7.538,1.602-10.775
				c1.067-3.234,2.587-6.001,4.563-8.299c1.973-2.296,4.334-4.06,7.086-5.291c2.75-1.229,5.84-1.844,9.27-1.844
				c3.365,0,6.373,0.612,9.027,1.838s4.918,2.92,6.795,5.08s3.316,4.723,4.32,7.69c1.002,2.967,1.505,6.223,1.505,9.769v3.677
				h-36.014v2.33c0,2.136,0.34,4.125,1.02,5.97c0.679,1.844,1.649,3.446,2.912,4.805c1.262,1.359,2.815,2.427,4.659,3.204
				c1.844,0.776,3.932,1.165,6.262,1.165c3.17,0,5.936-0.743,8.299-2.232c2.361-1.488,4.189-3.624,5.484-6.407l5.533,4.005
				c-1.618,3.453-4.142,6.236-7.571,8.352C318.164,542.755,314.087,543.814,309.363,543.814z M309.363,497.899
				c-2.135,0-4.076,0.37-5.824,1.11c-1.747,0.74-3.252,1.785-4.514,3.135c-1.262,1.35-2.249,2.942-2.961,4.774
				c-0.713,1.833-1.067,3.843-1.067,6.03v0.675h27.665v-1.062c0-4.438-1.213-7.99-3.64-10.659S313.375,497.899,309.363,497.899z"/>
			<path fill="#FFFFFF" d="M354.89,542.649c-2.718,0-4.772-0.758-6.164-2.275c-1.392-1.517-2.087-3.503-2.087-5.958v-34.964h-8.251
				v-6.892h4.659c1.682,0,2.83-0.34,3.446-1.02c0.614-0.679,0.922-1.859,0.922-3.542v-9.319h6.99v13.881h10.969v6.892h-10.969
				v36.305h10.192v6.892H354.89z"/>
			<path fill="#FFFFFF" d="M408.764,492.561h7.669l-22.423,61.737c-0.583,1.488-1.166,2.733-1.748,3.737
				c-0.582,1.003-1.295,1.796-2.135,2.378c-0.842,0.583-1.893,1.003-3.155,1.262c-1.263,0.258-2.8,0.388-4.61,0.388h-3.98v-6.892
				h7.863l3.785-10.661l-18.734-51.95h7.766l12.037,34.006l2.329,8.139h0.485l2.718-8.139L408.764,492.561z"/>
			<g>
				<path fill="#FFFFFF" d="M120.863,637.562l-2.416-7.679h-10.699l-2.373,7.679h-5.781l10.096-30.112h7.074l10.01,30.112H120.863z
					 M113.184,612.627h-0.215l-3.84,12.381h7.938L113.184,612.627z"/>
				<path fill="#FFFFFF" d="M151.189,637.562l-2.416-7.679h-10.699l-2.371,7.679h-5.781l10.094-30.112h7.076l10.008,30.112H151.189z
					 M143.51,612.627h-0.215l-3.84,12.381h7.938L143.51,612.627z"/>
				<path fill="#FFFFFF" d="M180.654,624.836h-12.553v12.726h-5.695V607.45h5.695v12.338h12.553V607.45h5.695v30.112h-5.695V624.836
					z"/>
				<path fill="#FFFFFF" d="M203.994,623.93l-4.012,4.746v8.886h-5.695V607.45h5.695v14.841h0.215l4.271-5.65l7.463-9.19h6.557
					l-10.482,12.554l11.346,17.559h-6.773L203.994,623.93z"/>
				<path fill="#FFFFFF" d="M229.791,607.45v18.508c0,2.359,0.453,4.127,1.36,5.307s2.438,1.769,4.594,1.769
					c2.158,0,3.689-0.589,4.596-1.769s1.359-2.947,1.359-5.307V607.45h5.607v17.775c0,2.215-0.209,4.127-0.625,5.736
					c-0.418,1.611-1.086,2.949-2.006,4.014c-0.922,1.063-2.123,1.848-3.604,2.351c-1.48,0.502-3.271,0.754-5.371,0.754
					c-2.129,0-3.918-0.252-5.371-0.754c-1.451-0.503-2.639-1.287-3.559-2.351c-0.92-1.064-1.582-2.402-1.984-4.014
					c-0.402-1.609-0.604-3.521-0.604-5.736V607.45H229.791z"/>
				<path fill="#FFFFFF" d="M264.391,638.08c-2.588,0-4.781-0.46-6.58-1.382c-1.797-0.922-3.342-2.132-4.637-3.631l3.84-3.715
					c1.035,1.197,2.191,2.111,3.473,2.738c1.279,0.629,2.695,0.942,4.248,0.942c1.754,0,3.078-0.378,3.971-1.134
					c0.891-0.757,1.336-1.776,1.336-3.061c0-1-0.287-1.813-0.861-2.441c-0.576-0.627-1.654-1.084-3.236-1.37l-2.848-0.427
					c-6.012-0.951-9.016-3.874-9.016-8.77c0-1.354,0.25-2.576,0.754-3.67c0.504-1.096,1.231-2.031,2.18-2.809
					s2.092-1.375,3.43-1.793c1.338-0.417,2.854-0.626,4.551-0.626c2.271,0,4.256,0.375,5.953,1.124
					c1.697,0.75,3.15,1.857,4.357,3.328l-3.883,3.675c-0.748-0.912-1.654-1.654-2.717-2.225c-1.064-0.569-2.402-0.855-4.014-0.855
					c-1.639,0-2.867,0.307-3.688,0.92c-0.82,0.612-1.23,1.476-1.23,2.587c0,1.141,0.33,1.981,0.992,2.523
					c0.662,0.541,1.727,0.941,3.193,1.197l2.805,0.518c3.047,0.548,5.299,1.52,6.75,2.916c1.453,1.396,2.18,3.347,2.18,5.852
					c0,1.44-0.252,2.742-0.756,3.909c-0.502,1.165-1.236,2.173-2.199,3.022c-0.965,0.85-2.143,1.504-3.537,1.966
					C267.805,637.85,266.203,638.08,264.391,638.08z"/>
				<path fill="#FFFFFF" d="M287.643,607.45v18.508c0,2.359,0.453,4.127,1.359,5.307c0.906,1.18,2.438,1.769,4.594,1.769
					c2.158,0,3.689-0.589,4.596-1.769c0.904-1.18,1.357-2.947,1.357-5.307V607.45h5.609v17.775c0,2.215-0.209,4.127-0.625,5.736
					c-0.418,1.611-1.086,2.949-2.008,4.014c-0.92,1.063-2.121,1.848-3.602,2.351c-1.482,0.502-3.271,0.754-5.371,0.754
					c-2.129,0-3.92-0.252-5.371-0.754c-1.453-0.503-2.639-1.287-3.559-2.351c-0.922-1.064-1.582-2.402-1.984-4.014
					c-0.404-1.609-0.604-3.521-0.604-5.736V607.45H287.643z"/>
			</g>
		</g>
	</g>
</g>
</svg>
