<?xml version="1.0" encoding="utf-8"?>
<!-- Generator: Adobe Illustrator 16.0.0, SVG Export Plug-In . SVG Version: 6.00 Build 0)  -->
<!DOCTYPE svg PUBLIC "-//W3C//DTD SVG 1.0//EN" "http://www.w3.org/TR/2001/REC-SVG-20010904/DTD/svg10.dtd">
<svg version="1.0" id="Logotypes" xmlns="http://www.w3.org/2000/svg" xmlns:xlink="http://www.w3.org/1999/xlink" x="0px" y="0px"
	 width="633.19px" height="927.727px" viewBox="0 0 633.19 927.727" enable-background="new 0 0 633.19 927.727"
	 xml:space="preserve">
<g>
	<defs>
		<rect id="SVGID_69_" width="633.191" height="927.727"/>
	</defs>
	<clipPath id="SVGID_2_">
		<use xlink:href="#SVGID_69_"  overflow="visible"/>
	</clipPath>
	<g clip-path="url(#SVGID_2_)">
		<g>
			<g>
				<g>
					<path fill="#FFFFFF" d="M129.762,442.96H97.553v-5.348h32.209V442.96z M125.57,499.89h-5.52v-5.86h-12.873v5.86h-5.604v-28.914
						h23.996V499.89z M125.313,453.995l-23.652,0.085v-5.346h23.652V453.995z M125.398,465.201H101.66v-5.347h23.738V465.201z
						 M124.328,432.095l-21.729,0.087v-5.348h21.729V432.095z M120.051,488.768v-12.531h-12.959v12.531H120.051z M175.313,465.286
						l-46.236,0.086v-5.261h11.463l2.48-13.217h-10.691v-5.261h11.549l1.838-9.796h-16.381v-5.346h42.473v5.261h-20.318
						l-1.752,9.796h17.621l-1.84,18.477h9.795V465.286z M167.871,500.061h-5.518v-5.774h-21.643v5.774h-5.604v-29h32.764V500.061z
						 M162.354,489.024v-12.703h-21.729v12.703H162.354z M161.498,446.81h-12.703l-2.48,13.302h13.857L161.498,446.81z"/>
					<path fill="#FFFFFF" d="M271.756,442.96h-77.76v-5.348h77.76V442.96z M260.293,453.909h-55.604v-5.175h55.604V453.909z
						 M260.293,465.029h-55.604v-5.175h55.604V465.029z M258.283,500.061h-5.518v-6.031h-40.121v6.031h-5.518v-29.085h51.156
						V500.061z M258.197,431.54l-50.643,0.128v-5.176h50.643V431.54z M252.766,488.768v-12.531h-40.121v12.531H252.766z"/>
					<path fill="#FFFFFF" d="M368.199,484.577h-34.432v5.945c0,6.358-3.379,9.538-10.139,9.538h-5.688l-2.096-5.261h7.955
						c2.795,0,4.193-1.284,4.193-3.85v-6.373h-37.555v-5.347h37.555v-3.679c5.957-2.225,10.221-4.305,12.787-6.244h-32.764v-4.92
						h42.262v4.663c-4.451,3.022-9.953,6.116-16.512,9.281v0.898h34.432V484.577z M364.607,468.708h-5.135v-8.854h-59.752v9.367
						h-5.604v-14.371h7.357v-26.092c4.047-0.398,8.482-2.324,13.303-5.774l2.822,3.936c-2.596,2.396-6.131,4.206-10.607,5.432v3.594
						h10.949v4.448h-10.949v4.662h10.949v4.362h-10.949v5.433h45.467v-5.433h-10.438v-4.277h10.438v-5.004h-10.352v-4.362h10.352
						v-4.663h-12.105v-5.176h17.537v28.829h6.717V468.708z M340.354,435.518l-2.992,3.678c-1.627-1.567-3.838-3.265-6.631-5.09
						c-2.309,1.939-4.904,3.722-7.785,5.347l-3.508-3.08c2.768-1.14,5.189-2.48,7.273-4.021c-3.48-1.312-6.289-2.224-8.428-2.736
						l2.182-3.937c3.164,0.799,6.344,1.826,9.539,3.08c2.023-1.909,3.721-3.863,5.09-5.859l3.592,2.866
						c-1.141,1.768-2.623,3.493-4.447,5.175C336.348,432.138,338.387,433.663,340.354,435.518z M340.867,451.086l-3.592,2.823
						c-2.311-1.768-4.707-3.236-7.186-4.405c-1.541,1.169-4.277,2.638-8.213,4.405l-3.25-2.566c3.678-1.739,6.314-3.251,7.912-4.533
						c-1.598-0.998-4.02-2.11-7.271-3.338l3.207-2.693c2.938,1.056,5.447,2.153,7.529,3.293c0.797-0.455,2.408-1.824,4.832-4.106
						l3.936,2.011c-1.455,1.883-3.078,3.437-4.875,4.662C336.262,447.722,338.586,449.204,340.867,451.086z"/>
					<path fill="#FFFFFF" d="M464.557,484.577h-34.432v5.945c0,6.358-3.379,9.538-10.137,9.538h-5.689l-2.096-5.261h7.955
						c2.795,0,4.191-1.284,4.191-3.85v-6.373h-37.553v-5.347h37.553v-3.679c5.961-2.225,10.223-4.305,12.791-6.244h-32.766v-4.92
						h42.26v4.663c-4.447,3.022-9.953,6.116-16.51,9.281v0.898h34.432V484.577z M460.965,468.708h-5.135v-8.854h-59.752v9.367
						h-5.604v-14.371h7.357v-26.092c4.049-0.398,8.482-2.324,13.303-5.774l2.822,3.936c-2.594,2.396-6.131,4.206-10.607,5.432v3.594
						h10.949v4.448H403.35v4.662h10.949v4.362H403.35v5.433h45.467v-5.433h-10.436v-4.277h10.436v-5.004h-10.352v-4.362h10.352
						v-4.663h-12.105v-5.176h17.537v28.829h6.717V468.708z M438.234,450.126l-3.896,3.563c-1.779-2.673-4.324-6.019-6.785-8.097
						c-3.826,4.264-6.975,6.977-9.434,8.137l-3.855-3.238c2.898-1.379,6.041-3.954,9.434-7.732
						c-3.855-2.401-6.604-3.887-8.244-4.454l3.363-3.479c1.367,0.54,3.936,1.942,7.711,4.211c1.123-1.836,1.996-3.847,2.625-6.033
						h-12.879v-5.06h6.904v-5.21h4.432v5.21h8.195v5.06h-1.623c-0.91,3.349-2.135,6.249-3.676,8.705
						C433.488,443.974,436.348,447.428,438.234,450.126z"/>
					<path fill="#FFFFFF" d="M562.324,442.789l-3.078,4.447c-9.725-2.395-17.338-5.161-22.84-8.297v3.85H507.49v-4.235
						c-8.326,4.307-15.797,7.115-22.412,8.426l-2.822-4.49c16.023-3.906,29.369-10.437,40.035-19.59l5.26,1.753
						c-0.57,0.713-1.07,1.213-1.498,1.497C535.52,434.02,547.611,439.566,562.324,442.789z M553.213,467.297h-62.104v-20.061h62.104
						V467.297z M548.125,500.146h-5.262v-3.422h-41.316v3.422h-5.262v-28.357h51.84V500.146z M519.596,462.678v-10.693h-23.227
						v10.693H519.596z M542.863,482.011v-5.518h-41.316v5.518H542.863z M542.863,492.104v-5.603h-41.316v5.603H542.863z
						 M513.906,458.442l-4.404,3.08c-2.652-2.68-5.248-4.662-7.785-5.945l4.447-2.566
						C509.188,454.294,511.768,456.105,513.906,458.442z M534.652,438.041c-4.135-2.167-8.143-5.09-12.02-8.769
						c-4.135,3.422-8.768,6.345-13.9,8.769H534.652z M547.955,462.678v-10.693h-23.098v10.693H547.955z M542.777,454.508
						c-1.682,2.681-4.221,4.962-7.613,6.844L530.459,459c3.736-2.11,6.303-4.221,7.699-6.332L542.777,454.508z"/>
				</g>
				<g>
					<path fill="#FFFFFF" d="M130.164,373.039l-1.635,1.881c-4.895-1.723-9.557-4.756-13.984-9.102l0.035,6.869h8.205v15.11h-2.232
						v-2.021h-14.215v2.021h-2.301v-15.11h8.24v-6.869c-2.412,3.688-6.771,6.577-13.072,8.662l-1.652-1.863
						c5.588-1.476,9.582-3.741,11.984-6.799h-9.998v-2.197h12.738v-3.391c-2.799,0.281-6.314,0.486-10.543,0.615l-1.51-2.126
						c9.99-0.036,17.969-0.872,23.93-2.513l1.688,1.688c-3.314,0.89-7.07,1.574-11.262,2.055v3.672h12.914v2.197l-10.068-0.035
						C121.15,369.016,125.396,371.435,130.164,373.039z M120.553,377.977v-3.092h-14.25v3.092H120.553z M120.553,383.617v-3.479
						h-14.25v3.479H120.553z"/>
					<path fill="#FFFFFF" d="M139.301,374.655c-1.477,4.581-3.408,8.336-5.797,11.264l2.055,1.3
						c2.658-3.351,4.615-7.104,5.869-11.263L139.301,374.655z M135.594,364.904l-1.477,1.846c2.33,0.995,4.176,2.423,5.535,4.286
						l1.545-2.091C139.98,367.316,138.111,365.971,135.594,364.904z M137.314,357.033l-1.65,1.687
						c2.248,0.808,4.023,2.167,5.324,4.076l1.65-1.775C141.385,359.205,139.611,357.877,137.314,357.033z"/>
					<path fill="#FFFFFF" d="M160.279,379.998v-6.626c1.395,1.313,2.895,2.391,4.5,3.234l1.439-1.951
						c-3.068-1.311-5.459-3.386-7.168-6.219h6.008v-2.161h-5.744v-4.2h4.338v-2.161h-4.338v-3.706h-2.232v3.741h-6.518v-3.741
						h-2.232v3.741h-4.322v2.161h4.357v4.199h-5.729v2.162h5.799c-1.299,2.436-3.648,4.463-7.045,6.078l1.65,1.95
						c1.004-0.582,1.93-1.215,2.775-1.896v9.418c0,2.015,1.008,3.021,3.023,3.021h11.508c0.938,0,1.678-0.311,2.223-0.931
						c0.545-0.621,0.971-1.845,1.273-3.672l-2.266-1.02c-0.152,1.464-0.375,2.4-0.668,2.811s-0.686,0.615-1.176,0.615h-10.719
						c-0.646,0-0.967-0.322-0.967-0.967v-3.882H160.279z M150.564,362.075h6.553v4.2h-6.553V362.075z M150.773,368.437h5.975
						c0.574,1.358,1.441,2.688,2.6,3.989h-11.156C149.457,371.031,150.318,369.701,150.773,368.437z M148.051,374.586h9.998v3.285
						h-9.998V374.586z"/>
					<path fill="#FFFFFF" d="M202.063,386.042l-1.635,1.826c-7.32-3.994-11.971-10.724-13.951-20.188
						c-2.447,9.617-7.438,16.346-14.969,20.188l-1.775-2.091c7.461-3.631,12.188-9.651,14.18-18.062h-11.947v-2.267h12.211
						c0.223-2.202,0.316-5.283,0.281-9.242l2.441,0.352c0.059,3.584-0.012,6.536-0.211,8.855h13.318v2.267H188.92
						C190.324,375.704,194.707,381.825,202.063,386.042z"/>
					<path fill="#FFFFFF" d="M237.889,381.474h-14.145v2.442c0,2.611-1.389,3.918-4.164,3.918h-2.338l-0.859-2.161h3.268
						c1.146,0,1.721-0.527,1.721-1.582v-2.617h-15.426v-2.197h15.426v-1.511c2.449-0.913,4.201-1.769,5.254-2.564h-13.459v-2.021
						h17.359v1.915c-1.826,1.242-4.088,2.514-6.781,3.813v0.369h14.145V381.474z M236.412,374.954h-2.107v-3.637h-24.547v3.848
						h-2.301v-5.903h3.021v-10.718c1.662-0.164,3.484-0.955,5.465-2.372l1.158,1.616c-1.064,0.984-2.518,1.728-4.357,2.231v1.476
						h4.498v1.828h-4.498v1.915h4.498v1.792h-4.498v2.231h18.678v-2.231h-4.287v-1.757h4.287v-2.056h-4.252v-1.793h4.252v-1.914
						h-4.973v-2.126h7.205v11.842h2.758V374.954z M226.449,361.32l-1.23,1.51c-0.666-0.644-1.574-1.34-2.723-2.09
						c-0.947,0.797-2.014,1.528-3.197,2.196l-1.441-1.265c1.137-0.469,2.133-1.02,2.986-1.652c-1.428-0.538-2.582-0.913-3.461-1.125
						l0.896-1.616c1.301,0.329,2.607,0.75,3.918,1.266c0.832-0.784,1.529-1.587,2.092-2.407l1.477,1.178
						c-0.471,0.726-1.078,1.435-1.828,2.126C224.805,359.932,225.641,360.56,226.449,361.32z M226.66,367.716l-1.475,1.16
						c-0.949-0.727-1.934-1.33-2.953-1.811c-0.633,0.48-1.756,1.084-3.373,1.811l-1.336-1.056c1.512-0.714,2.596-1.335,3.252-1.862
						c-0.656-0.409-1.652-0.865-2.988-1.37l1.318-1.107c1.207,0.434,2.238,0.886,3.092,1.354c0.328-0.188,0.99-0.749,1.986-1.687
						l1.615,0.826c-0.596,0.772-1.264,1.411-2.002,1.914C224.77,366.333,225.723,366.942,226.66,367.716z"/>
					<path fill="#FFFFFF" d="M273.873,381.474h-14.145v2.442c0,2.611-1.389,3.918-4.164,3.918h-2.338l-0.859-2.161h3.268
						c1.146,0,1.721-0.527,1.721-1.582v-2.617H241.93v-2.197h15.426v-1.511c2.449-0.913,4.199-1.769,5.254-2.564H249.15v-2.021
						h17.359v1.915c-1.826,1.242-4.088,2.514-6.781,3.813v0.369h14.145V381.474z M272.396,374.954h-2.109v-3.637h-24.545v3.848
						h-2.303v-5.903h3.023v-10.718c1.662-0.164,3.484-0.955,5.463-2.372l1.16,1.616c-1.066,0.984-2.518,1.728-4.357,2.231v1.476
						h4.498v1.828h-4.498v1.915h4.498v1.792h-4.498v2.231h18.678v-2.231h-4.287v-1.757h4.287v-2.056h-4.252v-1.793h4.252v-1.914
						h-4.973v-2.126h7.203v11.842h2.76V374.954z M262.434,361.32l-1.229,1.51c-0.668-0.644-1.576-1.34-2.725-2.09
						c-0.949,0.797-2.016,1.528-3.197,2.196l-1.441-1.265c1.137-0.469,2.133-1.02,2.986-1.652c-1.428-0.538-2.582-0.913-3.461-1.125
						l0.896-1.616c1.301,0.329,2.605,0.75,3.918,1.266c0.832-0.784,1.529-1.587,2.092-2.407l1.475,1.178
						c-0.469,0.726-1.076,1.435-1.826,2.126C260.789,359.932,261.625,360.56,262.434,361.32z M262.645,367.716l-1.477,1.16
						c-0.947-0.727-1.932-1.33-2.951-1.811c-0.633,0.48-1.758,1.084-3.373,1.811l-1.336-1.056c1.512-0.714,2.596-1.335,3.25-1.862
						c-0.654-0.409-1.65-0.865-2.986-1.37l1.318-1.107c1.207,0.434,2.236,0.886,3.092,1.354c0.328-0.188,0.99-0.749,1.986-1.687
						l1.615,0.826c-0.598,0.772-1.264,1.411-2.002,1.914C260.754,366.333,261.707,366.942,262.645,367.716z"/>
					<path fill="#FFFFFF" d="M309.855,386.077h-31.977v-2.267h14.898v-8.241h-10.734v-2.267h10.734v-7.168h-7.959
						c-0.961,2.494-2.564,4.797-4.814,6.904l-2.318-1.212c3.842-3.55,5.979-7.896,6.412-13.037l2.373,0.686
						c-0.094,1.194-0.369,2.67-0.826,4.428h7.098v-7.696h2.373v7.66h12.404v2.268h-12.404v7.133h10.578v2.267h-10.578v8.24h14.74
						V386.077z"/>
					<path fill="#FFFFFF" d="M346.42,364.307l-1.266,1.828c-3.994-0.984-7.121-2.12-9.381-3.409v1.581h-11.879v-1.739
						c-3.42,1.769-6.488,2.923-9.207,3.461l-1.158-1.845c6.582-1.604,12.064-4.287,16.445-8.047l2.16,0.721
						c-0.234,0.293-0.439,0.498-0.613,0.614C335.41,360.705,340.375,362.983,346.42,364.307z M342.678,374.375h-25.512v-8.24h25.512
						V374.375z M340.588,387.868h-2.162v-1.405h-16.973v1.405h-2.162V376.22h21.297V387.868z M328.867,372.477v-4.393h-9.541v4.393
						H328.867z M338.426,380.419v-2.267h-16.973v2.267H338.426z M338.426,384.565v-2.302h-16.973v2.302H338.426z M326.531,370.737
						l-1.811,1.266c-1.09-1.101-2.154-1.915-3.197-2.442l1.826-1.054C324.592,369.033,325.652,369.777,326.531,370.737z
						 M335.053,362.356c-1.699-0.89-3.346-2.091-4.939-3.603c-1.697,1.406-3.6,2.607-5.709,3.603H335.053z M340.518,372.477v-4.393
						h-9.488v4.393H340.518z M338.391,369.121c-0.691,1.102-1.734,2.038-3.127,2.812l-1.934-0.966
						c1.535-0.867,2.59-1.734,3.162-2.602L338.391,369.121z"/>
					<path fill="#FFFFFF" d="M382.193,385.566l-1.547,2.057c-5.961-1.757-10.799-4.123-14.512-7.099
						c-3.199,2.612-8.223,5.025-15.076,7.239l-1.721-2.091c6.629-1.839,11.643-4.07,15.039-6.694
						c-3.408-3.222-5.699-7.14-6.869-11.755c-0.633,1.628-1.5,3.175-2.602,4.639l-1.861-1.704c1.477-1.758,2.664-3.685,3.566-5.781
						h-6.045v-2.16h14.094v-6.01h2.266v5.974h14.336v2.162h-6.01c-1.053,6.114-3.477,10.98-7.273,14.6
						C371.434,381.566,376.172,383.774,382.193,385.566z M372.898,364.343h-13.598c0.936,5.423,3.225,9.786,6.869,13.089
						C369.73,374.117,371.973,369.754,372.898,364.343z"/>
					<path fill="#FFFFFF" d="M417.811,381.474h-14.146v2.442c0,2.611-1.387,3.918-4.164,3.918h-2.336l-0.861-2.161h3.268
						c1.148,0,1.723-0.527,1.723-1.582v-2.617h-15.426v-2.197h15.426v-1.511c2.447-0.913,4.199-1.769,5.252-2.564h-13.457v-2.021
						h17.359v1.915c-1.828,1.242-4.09,2.514-6.783,3.813v0.369h14.146V381.474z M416.334,374.954h-2.109v-3.637h-24.547v3.848
						h-2.301v-5.903h3.021v-10.718c1.664-0.164,3.486-0.955,5.467-2.372l1.158,1.616c-1.064,0.984-2.52,1.728-4.359,2.231v1.476h4.5
						v1.828h-4.5v1.915h4.5v1.792h-4.5v2.231h18.68v-2.231h-4.289v-1.757h4.289v-2.056h-4.252v-1.793h4.252v-1.914h-4.973v-2.126
						h7.203v11.842h2.76V374.954z M406.371,361.32l-1.23,1.51c-0.668-0.644-1.576-1.34-2.723-2.09
						c-0.949,0.797-2.016,1.528-3.199,2.196l-1.439-1.265c1.135-0.469,2.131-1.02,2.986-1.652c-1.43-0.538-2.584-0.913-3.461-1.125
						l0.896-1.616c1.299,0.329,2.605,0.75,3.918,1.266c0.832-0.784,1.527-1.587,2.09-2.407l1.477,1.178
						c-0.469,0.726-1.078,1.435-1.826,2.126C404.725,359.932,405.563,360.56,406.371,361.32z M406.582,367.716l-1.477,1.16
						c-0.947-0.727-1.934-1.33-2.951-1.811c-0.633,0.48-1.758,1.084-3.375,1.811l-1.336-1.056c1.514-0.714,2.596-1.335,3.252-1.862
						c-0.656-0.409-1.652-0.865-2.986-1.37l1.316-1.107c1.207,0.434,2.238,0.886,3.094,1.354c0.328-0.188,0.99-0.749,1.984-1.687
						l1.617,0.826c-0.598,0.772-1.266,1.411-2.002,1.914C404.689,366.333,405.643,366.942,406.582,367.716z"/>
					<path fill="#FFFFFF" d="M429.826,368.154c2.367,2.659,3.551,5.255,3.551,7.784c0,1.229-0.32,2.208-0.959,2.934
						c-0.637,0.728-1.531,1.09-2.68,1.09c-0.631,0-1.395-0.076-2.283-0.228l-0.65-2.338c1.254,0.317,2.156,0.475,2.705,0.475
						c0.457,0,0.873-0.176,1.248-0.527c0.375-0.351,0.563-0.819,0.563-1.405c0-0.878-0.322-2.003-0.965-3.374
						c-0.646-1.37-1.613-2.676-2.9-3.917l3.426-8.804h-5.217v27.99h-2.303v-30.222h9.855v2.231L429.826,368.154z M454.057,381.386
						c-0.305,1.897-0.715,3.274-1.23,4.128c-0.516,0.855-1.354,1.283-2.512,1.283h-2.74c-1.828,0-2.742-0.961-2.742-2.881v-9.295
						h-3.707c-0.07,3.771-0.807,6.598-2.205,8.478c-1.4,1.88-3.996,3.459-7.793,4.735l-1.477-2.021
						c3.525-1.042,5.945-2.39,7.258-4.041s1.973-4.023,1.984-7.115h-4.814v-2.303h18.82v2.268h-5.871v8.75
						c0,0.292,0.094,0.565,0.281,0.816c0.188,0.253,0.41,0.378,0.668,0.378h2.232c0.457,0,0.805-0.375,1.045-1.125
						c0.24-0.748,0.441-1.721,0.607-2.916L454.057,381.386z M452.035,365.449l-2.23,0.035v-3.093h-13.248v3.093h-2.268v-5.324h7.713
						v-3.988h2.303v3.954h7.73V365.449z M449.084,368.84h-11.877v-2.302h11.877V368.84z"/>
					<path fill="#FFFFFF" d="M489.777,381.474h-14.145v2.442c0,2.611-1.389,3.918-4.164,3.918h-2.336l-0.861-2.161h3.268
						c1.148,0,1.723-0.527,1.723-1.582v-2.617h-15.428v-2.197h15.428v-1.511c2.447-0.913,4.199-1.769,5.252-2.564h-13.459v-2.021
						h17.359v1.915c-1.826,1.242-4.088,2.514-6.781,3.813v0.369h14.145V381.474z M488.301,374.954h-2.107v-3.637h-24.545v3.848
						h-2.303v-5.903h3.023v-10.718c1.66-0.164,3.482-0.955,5.463-2.372l1.16,1.616c-1.066,0.984-2.52,1.728-4.357,2.231v1.476h4.498
						v1.828h-4.498v1.915h4.498v1.792h-4.498v2.231h18.676v-2.231h-4.287v-1.757h4.287v-2.056h-4.25v-1.793h4.25v-1.914h-4.971
						v-2.126h7.203v11.842h2.758V374.954z M478.34,361.32l-1.232,1.51c-0.668-0.644-1.574-1.34-2.723-2.09
						c-0.949,0.797-2.014,1.528-3.197,2.196l-1.441-1.265c1.137-0.469,2.133-1.02,2.988-1.652c-1.43-0.538-2.584-0.913-3.461-1.125
						l0.895-1.616c1.301,0.329,2.607,0.75,3.918,1.266c0.832-0.784,1.529-1.587,2.092-2.407l1.477,1.178
						c-0.469,0.726-1.08,1.435-1.828,2.126C476.693,359.932,477.531,360.56,478.34,361.32z M478.549,367.716l-1.475,1.16
						c-0.949-0.727-1.934-1.33-2.951-1.811c-0.635,0.48-1.758,1.084-3.375,1.811l-1.334-1.056c1.51-0.714,2.594-1.335,3.25-1.862
						c-0.656-0.409-1.652-0.865-2.988-1.37l1.318-1.107c1.207,0.434,2.238,0.886,3.092,1.354c0.328-0.188,0.99-0.749,1.986-1.687
						l1.615,0.826c-0.596,0.772-1.264,1.411-2.002,1.914C476.658,366.333,477.613,366.942,478.549,367.716z"/>
					<path fill="#FFFFFF" d="M525.762,386.077h-31.979v-2.267h14.9v-8.241h-10.736v-2.267h10.736v-7.168h-7.961
						c-0.959,2.494-2.564,4.797-4.814,6.904l-2.318-1.212c3.842-3.55,5.98-7.896,6.414-13.037l2.371,0.686
						c-0.094,1.194-0.369,2.67-0.826,4.428h7.1v-7.696h2.371v7.66h12.404v2.268H511.02v7.133h10.578v2.267H511.02v8.24h14.742
						V386.077z"/>
					<path fill="#FFFFFF" d="M562.324,364.307l-1.264,1.828c-3.994-0.984-7.123-2.12-9.383-3.409v1.581h-11.879v-1.739
						c-3.42,1.769-6.488,2.923-9.205,3.461l-1.16-1.845c6.584-1.604,12.064-4.287,16.445-8.047l2.162,0.721
						c-0.236,0.293-0.439,0.498-0.615,0.614C551.314,360.705,556.281,362.983,562.324,364.307z M558.584,374.375h-25.512v-8.24
						h25.512V374.375z M556.492,387.868h-2.162v-1.405h-16.973v1.405h-2.16V376.22h21.295V387.868z M544.771,372.477v-4.393h-9.539
						v4.393H544.771z M554.33,380.419v-2.267h-16.973v2.267H554.33z M554.33,384.565v-2.302h-16.973v2.302H554.33z M542.436,370.737
						l-1.811,1.266c-1.088-1.101-2.154-1.915-3.197-2.442l1.828-1.054C540.498,369.033,541.557,369.777,542.436,370.737z
						 M550.957,362.356c-1.699-0.89-3.344-2.091-4.938-3.603c-1.699,1.406-3.602,2.607-5.709,3.603H550.957z M556.422,372.477
						v-4.393h-9.488v4.393H556.422z M554.297,369.121c-0.693,1.102-1.734,2.038-3.129,2.812l-1.932-0.966
						c1.533-0.867,2.588-1.734,3.162-2.602L554.297,369.121z"/>
				</g>
			</g>
			<g>
				<path fill="#FFFFFF" d="M105.422,645.461v-67.755h8.154v60.572h28.83v7.183H105.422z"/>
				<path fill="#FFFFFF" d="M157.16,583.627c-1.684,0-2.896-0.403-3.641-1.213c-0.744-0.809-1.115-1.859-1.115-3.155v-1.262
					c0-1.294,0.371-2.345,1.115-3.154s1.957-1.214,3.641-1.214c1.682,0,2.896,0.404,3.641,1.214c0.742,0.81,1.115,1.86,1.115,3.154
					v1.262c0,1.296-0.373,2.347-1.115,3.155C160.057,583.224,158.842,583.627,157.16,583.627z M153.277,595.373h7.766v50.088h-7.766
					V595.373z"/>
				<path fill="#FFFFFF" d="M177.545,645.461v-50.088h7.766v8.062h0.389c1.229-2.817,2.961-5.062,5.193-6.727
					c2.232-1.666,5.225-2.5,8.979-2.5c5.178,0,9.271,1.667,12.279,4.999c3.01,3.334,4.514,8.042,4.514,14.125v32.129h-7.766v-30.837
					c0-9.016-3.785-13.524-11.357-13.524c-1.553,0-3.057,0.196-4.514,0.584c-1.455,0.39-2.766,0.974-3.932,1.752
					c-1.164,0.778-2.086,1.767-2.766,2.967c-0.68,1.199-1.02,2.61-1.02,4.232v34.826H177.545z"/>
				<path fill="#FFFFFF" d="M272.48,643.812c0,6.924-1.941,12.359-5.824,16.308c-3.883,3.947-9.354,5.922-16.406,5.922
					c-4.076,0-7.588-0.634-10.531-1.901c-2.945-1.27-5.387-2.942-7.328-5.021l4.561-5.363c1.684,1.732,3.625,3.065,5.824,3.997
					s4.758,1.396,7.67,1.396c4.529,0,8.039-1.252,10.531-3.752c2.49-2.505,3.738-6.193,3.738-11.068V637.4h-0.389
					c-1.49,3.075-3.432,5.381-5.824,6.919c-2.395,1.539-5.34,2.307-8.834,2.307c-3.105,0-5.922-0.615-8.445-1.844
					s-4.658-2.977-6.406-5.242c-1.748-2.264-3.105-5.014-4.076-8.251c-0.971-3.235-1.457-6.859-1.457-10.871
					c0-4.013,0.486-7.637,1.457-10.873c0.971-3.235,2.328-5.985,4.076-8.251c1.748-2.265,3.883-4.011,6.406-5.242
					c2.523-1.229,5.34-1.844,8.445-1.844c3.494,0,6.488,0.754,8.979,2.259c2.492,1.506,4.385,3.828,5.68,6.968h0.389v-8.062h7.766
					V643.812z M251.998,639.734c1.748,0,3.396-0.228,4.951-0.683c1.553-0.455,2.895-1.123,4.027-2.001
					c1.133-0.876,2.039-1.95,2.719-3.218c0.68-1.269,1.02-2.749,1.02-4.439v-18.635c0-1.365-0.324-2.65-0.971-3.854
					c-0.648-1.202-1.555-2.227-2.719-3.072c-1.164-0.845-2.523-1.512-4.076-2c-1.555-0.488-3.203-0.732-4.951-0.732
					c-4.402,0-7.896,1.398-10.484,4.195c-2.588,2.798-3.883,6.407-3.883,10.83v8.585c0,4.423,1.295,8.032,3.883,10.829
					S247.596,639.734,251.998,639.734z"/>
				<path fill="#FFFFFF" d="M319.85,637.4h-0.389c-0.518,1.154-1.148,2.292-1.893,3.412c-0.744,1.121-1.666,2.114-2.766,2.979
					c-1.102,0.864-2.428,1.553-3.98,2.066c-1.553,0.512-3.365,0.768-5.436,0.768c-5.18,0-9.287-1.665-12.328-4.999
					c-3.043-3.332-4.563-8.04-4.563-14.124v-32.13h7.766v30.838c0,9.016,3.816,13.523,11.453,13.523
					c1.555,0,3.059-0.194,4.514-0.584c1.457-0.389,2.75-0.973,3.883-1.75c1.133-0.778,2.039-1.768,2.719-2.967
					s1.02-2.644,1.02-4.331v-34.729h7.766v50.088h-7.766V637.4z"/>
				<path fill="#FFFFFF" d="M348,583.627c-1.684,0-2.898-0.403-3.641-1.213c-0.744-0.809-1.117-1.859-1.117-3.155v-1.262
					c0-1.294,0.373-2.345,1.117-3.154c0.742-0.81,1.957-1.214,3.641-1.214c1.682,0,2.895,0.404,3.639,1.214s1.117,1.86,1.117,3.154
					v1.262c0,1.296-0.373,2.347-1.117,3.155C350.895,583.224,349.682,583.627,348,583.627z M344.117,595.373h7.766v50.088h-7.766
					V595.373z"/>
				<path fill="#FFFFFF" d="M383.43,646.626c-4.658,0-8.559-0.89-11.697-2.669s-5.84-4.158-8.105-7.135l5.533-4.466
					c1.941,2.46,4.109,4.354,6.504,5.679c2.395,1.327,5.178,1.991,8.35,1.991c3.299,0,5.871-0.713,7.717-2.137
					c1.844-1.423,2.766-3.43,2.766-6.019c0-1.941-0.631-3.605-1.893-4.999c-1.262-1.391-3.543-2.345-6.844-2.863l-3.98-0.582
					c-2.328-0.324-4.465-0.825-6.406-1.505s-3.641-1.585-5.096-2.718c-1.457-1.132-2.59-2.54-3.398-4.224
					c-0.809-1.682-1.213-3.688-1.213-6.018c0-2.459,0.453-4.611,1.359-6.455c0.906-1.845,2.15-3.381,3.736-4.611
					c1.586-1.229,3.479-2.15,5.68-2.767c2.199-0.614,4.563-0.922,7.086-0.922c4.076,0,7.49,0.713,10.24,2.136
					c2.75,1.424,5.16,3.397,7.232,5.922l-5.145,4.659c-1.102-1.554-2.719-2.961-4.854-4.224c-2.135-1.261-4.822-1.892-8.057-1.892
					c-3.236,0-5.68,0.695-7.33,2.086c-1.648,1.393-2.475,3.285-2.475,5.68c0,2.46,0.826,4.238,2.475,5.338
					c1.65,1.103,4.029,1.909,7.135,2.428l3.883,0.581c5.566,0.842,9.514,2.444,11.844,4.806c2.33,2.363,3.494,5.452,3.494,9.271
					c0,4.854-1.65,8.672-4.951,11.454C393.721,645.235,389.189,646.626,383.43,646.626z"/>
				<path fill="#FFFFFF" d="M426.045,645.461c-2.717,0-4.771-0.758-6.164-2.274c-1.391-1.517-2.086-3.503-2.086-5.958v-34.963
					h-8.252v-6.893h4.66c1.682,0,2.83-0.34,3.445-1.02c0.615-0.679,0.922-1.859,0.922-3.543v-9.319h6.99v13.882h10.969v6.893
					h-10.969v36.304h10.191v6.892H426.045z"/>
				<path fill="#FFFFFF" d="M452.934,583.627c-1.684,0-2.896-0.403-3.639-1.213c-0.746-0.809-1.117-1.859-1.117-3.155v-1.262
					c0-1.294,0.371-2.345,1.117-3.154c0.742-0.81,1.955-1.214,3.639-1.214s2.896,0.404,3.641,1.214s1.117,1.86,1.117,3.154v1.262
					c0,1.296-0.373,2.347-1.117,3.155C455.83,583.224,454.617,583.627,452.934,583.627z M449.051,595.373h7.766v50.088h-7.766
					V595.373z"/>
				<path fill="#FFFFFF" d="M491.957,646.626c-3.494,0-6.635-0.615-9.416-1.844c-2.783-1.229-5.129-2.977-7.037-5.242
					c-1.91-2.264-3.367-5.014-4.369-8.251c-1.004-3.235-1.504-6.859-1.504-10.871c0-4.013,0.5-7.637,1.504-10.873
					c1.002-3.235,2.459-5.985,4.369-8.251c1.908-2.265,4.254-4.011,7.037-5.242c2.781-1.229,5.922-1.844,9.416-1.844
					c4.982,0,8.979,1.084,11.988,3.252c3.01,2.169,5.258,5,6.746,8.493l-6.504,3.301c-0.906-2.588-2.395-4.595-4.465-6.019
					c-2.072-1.423-4.66-2.136-7.766-2.136c-2.33,0-4.369,0.374-6.115,1.117c-1.748,0.744-3.203,1.78-4.369,3.105
					c-1.164,1.328-2.039,2.912-2.621,4.757s-0.873,3.867-0.873,6.066v8.542c0,4.403,1.18,8.009,3.543,10.824
					c2.361,2.815,5.84,4.223,10.436,4.223c6.275,0,10.807-2.912,13.59-8.736l5.631,3.785c-1.619,3.626-4.029,6.504-7.232,8.64
					S496.746,646.626,491.957,646.626z"/>
				<path fill="#FFFFFF" d="M537.191,646.626c-4.66,0-8.559-0.89-11.697-2.669c-3.141-1.779-5.842-4.158-8.105-7.135l5.533-4.466
					c1.941,2.46,4.109,4.354,6.504,5.679c2.393,1.327,5.176,1.991,8.348,1.991c3.301,0,5.873-0.713,7.717-2.137
					c1.846-1.423,2.768-3.43,2.768-6.019c0-1.941-0.631-3.605-1.893-4.999c-1.264-1.391-3.545-2.345-6.844-2.863l-3.98-0.582
					c-2.33-0.324-4.465-0.825-6.406-1.505s-3.641-1.585-5.098-2.718c-1.455-1.132-2.588-2.54-3.396-4.224
					c-0.811-1.682-1.213-3.688-1.213-6.018c0-2.459,0.451-4.611,1.357-6.455c0.906-1.845,2.152-3.381,3.738-4.611
					c1.584-1.229,3.479-2.15,5.678-2.767c2.199-0.614,4.563-0.922,7.088-0.922c4.076,0,7.488,0.713,10.24,2.136
					c2.75,1.424,5.16,3.397,7.232,5.922l-5.146,4.659c-1.1-1.554-2.717-2.961-4.854-4.224c-2.135-1.261-4.82-1.892-8.057-1.892
					s-5.678,0.695-7.328,2.086c-1.65,1.393-2.475,3.285-2.475,5.68c0,2.46,0.824,4.238,2.475,5.338
					c1.65,1.103,4.029,1.909,7.135,2.428l3.883,0.581c5.564,0.842,9.514,2.444,11.842,4.806c2.33,2.363,3.496,5.452,3.496,9.271
					c0,4.854-1.65,8.672-4.951,11.454C547.48,645.235,542.949,646.626,537.191,646.626z"/>
				<path fill="#FFFFFF" d="M124.447,763.111c-5.5,0-10.191-1.052-14.074-3.154s-7.184-4.999-9.902-8.688l6.02-5.048
					c2.393,3.173,5.047,5.582,7.959,7.232s6.342,2.476,10.291,2.476c4.854,0,8.557-1.165,11.113-3.495s3.834-5.436,3.834-9.318
					c0-3.235-0.971-5.728-2.912-7.474c-1.941-1.748-5.145-3.14-9.609-4.175l-5.533-1.263c-6.213-1.423-10.953-3.574-14.221-6.454
					c-3.27-2.88-4.902-6.94-4.902-12.184c0-2.976,0.549-5.63,1.65-7.959c1.1-2.33,2.637-4.271,4.611-5.824
					c1.973-1.554,4.334-2.733,7.086-3.544c2.75-0.809,5.775-1.213,9.076-1.213c5.111,0,9.496,0.938,13.152,2.815
					s6.746,4.627,9.271,8.251l-6.115,4.465c-1.879-2.588-4.143-4.626-6.795-6.115c-2.654-1.488-5.955-2.232-9.902-2.232
					c-4.336,0-7.75,0.922-10.24,2.766c-2.492,1.845-3.738,4.611-3.738,8.301c0,3.236,1.051,5.678,3.156,7.328
					c2.102,1.65,5.289,2.962,9.561,3.932l5.533,1.263c6.664,1.488,11.486,3.753,14.463,6.794c2.977,3.042,4.465,7.086,4.465,12.134
					c0,3.107-0.533,5.921-1.602,8.445c-1.066,2.523-2.605,4.66-4.609,6.406c-2.008,1.748-4.451,3.106-7.33,4.077
					S128.072,763.111,124.447,763.111z"/>
				<path fill="#FFFFFF" d="M179.973,763.111c-3.367,0-6.441-0.615-9.223-1.844c-2.783-1.229-5.162-2.993-7.135-5.291
					c-1.975-2.296-3.512-5.047-4.611-8.251c-1.1-3.203-1.648-6.81-1.648-10.823c0-3.946,0.549-7.537,1.648-10.775
					c1.1-3.233,2.637-6.001,4.611-8.299c1.973-2.297,4.352-4.061,7.135-5.291c2.781-1.228,5.855-1.844,9.223-1.844
					c3.363,0,6.422,0.616,9.172,1.844c2.75,1.23,5.129,2.994,7.135,5.291c2.006,2.298,3.559,5.065,4.66,8.299
					c1.1,3.238,1.65,6.829,1.65,10.775c0,4.014-0.551,7.62-1.65,10.823c-1.102,3.204-2.654,5.955-4.66,8.251
					c-2.006,2.298-4.385,4.063-7.135,5.291S183.336,763.111,179.973,763.111z M179.973,756.22c4.205,0,7.635-1.293,10.289-3.883
					c2.652-2.587,3.98-6.536,3.98-11.843v-7.184c0-5.306-1.328-9.253-3.98-11.842c-2.654-2.588-6.084-3.884-10.289-3.884
					c-4.207,0-7.637,1.296-10.291,3.884c-2.654,2.589-3.979,6.536-3.979,11.842v7.184c0,5.307,1.324,9.256,3.979,11.843
					C172.336,754.927,175.766,756.22,179.973,756.22z"/>
				<path fill="#FFFFFF" d="M234.041,763.111c-3.494,0-6.635-0.615-9.416-1.844c-2.783-1.229-5.131-2.976-7.037-5.241
					c-1.91-2.266-3.367-5.016-4.369-8.252c-1.004-3.235-1.504-6.858-1.504-10.872c0-4.011,0.5-7.635,1.504-10.872
					c1.002-3.235,2.459-5.985,4.369-8.251c1.906-2.264,4.254-4.012,7.037-5.242c2.781-1.228,5.922-1.844,9.416-1.844
					c4.982,0,8.979,1.084,11.988,3.252c3.008,2.169,5.256,4.999,6.746,8.493l-6.504,3.301c-0.906-2.588-2.395-4.595-4.465-6.019
					c-2.072-1.422-4.66-2.136-7.766-2.136c-2.33,0-4.369,0.373-6.115,1.116c-1.748,0.745-3.203,1.781-4.369,3.106
					c-1.164,1.327-2.039,2.912-2.621,4.757s-0.873,3.867-0.873,6.066v8.543c0,4.401,1.18,8.008,3.543,10.823
					c2.361,2.815,5.84,4.223,10.436,4.223c6.275,0,10.807-2.912,13.59-8.736l5.629,3.785c-1.617,3.625-4.027,6.504-7.23,8.641
					C242.826,762.044,238.828,763.111,234.041,763.111z"/>
				<path fill="#FFFFFF" d="M268.111,700.112c-1.684,0-2.896-0.402-3.641-1.213c-0.744-0.809-1.115-1.859-1.115-3.155v-1.262
					c0-1.294,0.371-2.345,1.115-3.155c0.744-0.809,1.957-1.213,3.641-1.213c1.682,0,2.896,0.404,3.641,1.213
					c0.742,0.811,1.115,1.861,1.115,3.155v1.262c0,1.296-0.373,2.347-1.115,3.155C271.008,699.71,269.793,700.112,268.111,700.112z
					 M264.229,711.858h7.766v50.088h-7.766V711.858z"/>
				<path fill="#FFFFFF" d="M307.328,763.111c-3.43,0-6.52-0.615-9.27-1.844c-2.752-1.229-5.113-2.993-7.086-5.291
					c-1.977-2.296-3.496-5.047-4.563-8.251c-1.068-3.203-1.602-6.81-1.602-10.823c0-3.946,0.533-7.537,1.602-10.775
					c1.066-3.233,2.586-6.001,4.563-8.299c1.973-2.297,4.334-4.061,7.086-5.291c2.75-1.228,5.84-1.844,9.27-1.844
					c3.365,0,6.373,0.612,9.027,1.838s4.918,2.92,6.795,5.08c1.877,2.159,3.316,4.723,4.32,7.689
					c1.002,2.967,1.504,6.224,1.504,9.77v3.677h-36.014v2.33c0,2.135,0.34,4.125,1.02,5.97s1.65,3.446,2.912,4.805
					s2.816,2.427,4.66,3.203c1.844,0.777,3.932,1.165,6.262,1.165c3.17,0,5.936-0.743,8.299-2.232
					c2.361-1.487,4.189-3.624,5.484-6.407l5.533,4.006c-1.619,3.452-4.143,6.235-7.572,8.352
					C316.129,762.053,312.051,763.111,307.328,763.111z M307.328,717.197c-2.135,0-4.076,0.37-5.824,1.11s-3.252,1.785-4.514,3.135
					s-2.25,2.942-2.961,4.774c-0.713,1.834-1.068,3.844-1.068,6.03v0.675h27.666v-1.062c0-4.438-1.213-7.989-3.641-10.659
					C314.561,718.532,311.34,717.197,307.328,717.197z"/>
				<path fill="#FFFFFF" d="M352.854,761.946c-2.717,0-4.771-0.758-6.164-2.274c-1.391-1.517-2.086-3.504-2.086-5.958V718.75h-8.252
					v-6.892h4.66c1.682,0,2.83-0.34,3.445-1.02s0.922-1.859,0.922-3.543v-9.319h6.99v13.882h10.969v6.892h-10.969v36.305h10.191
					v6.892H352.854z"/>
				<path fill="#FFFFFF" d="M406.729,711.858h7.668l-22.422,61.737c-0.584,1.488-1.166,2.732-1.748,3.736
					c-0.582,1.003-1.295,1.797-2.135,2.379c-0.842,0.582-1.895,1.003-3.156,1.263c-1.262,0.257-2.799,0.388-4.609,0.388h-3.98
					v-6.893h7.863l3.785-10.661l-18.734-51.949h7.766l12.037,34.007l2.328,8.139h0.486l2.717-8.139L406.729,711.858z"/>
				<g>
					<path fill="#FFFFFF" d="M118.828,856.86l-2.416-7.68h-10.699l-2.373,7.68h-5.781l10.096-30.113h7.074l10.01,30.113H118.828z
						 M111.148,831.925h-0.215l-3.84,12.381h7.938L111.148,831.925z"/>
					<path fill="#FFFFFF" d="M149.154,856.86l-2.416-7.68h-10.699l-2.371,7.68h-5.781l10.094-30.113h7.076l10.008,30.113H149.154z
						 M141.475,831.925h-0.215l-3.84,12.381h7.938L141.475,831.925z"/>
					<path fill="#FFFFFF" d="M178.619,844.135h-12.553v12.726h-5.695v-30.113h5.695v12.338h12.553v-12.338h5.695v30.113h-5.695
						V844.135z"/>
					<path fill="#FFFFFF" d="M201.959,843.228l-4.012,4.746v8.887h-5.695v-30.113h5.695v14.841h0.215l4.271-5.65l7.463-9.19h6.557
						l-10.482,12.554l11.346,17.56h-6.773L201.959,843.228z"/>
					<path fill="#FFFFFF" d="M227.756,826.747v18.508c0,2.359,0.453,4.128,1.359,5.307c0.906,1.18,2.438,1.769,4.594,1.769
						c2.158,0,3.689-0.589,4.596-1.769c0.906-1.179,1.359-2.947,1.359-5.307v-18.508h5.607v17.775c0,2.215-0.209,4.128-0.625,5.736
						c-0.418,1.611-1.086,2.949-2.006,4.014c-0.922,1.063-2.123,1.848-3.604,2.352c-1.48,0.502-3.271,0.753-5.371,0.753
						c-2.129,0-3.918-0.251-5.371-0.753c-1.451-0.504-2.639-1.288-3.559-2.352c-0.92-1.064-1.582-2.402-1.984-4.014
						c-0.402-1.608-0.604-3.521-0.604-5.736v-17.775H227.756z"/>
					<path fill="#FFFFFF" d="M262.355,857.377c-2.588,0-4.781-0.459-6.58-1.382c-1.797-0.922-3.342-2.132-4.637-3.631l3.84-3.714
						c1.035,1.196,2.191,2.11,3.473,2.737c1.279,0.63,2.695,0.942,4.248,0.942c1.754,0,3.078-0.378,3.971-1.134
						c0.891-0.756,1.336-1.776,1.336-3.061c0-1-0.287-1.813-0.861-2.441c-0.576-0.626-1.654-1.084-3.236-1.369l-2.848-0.428
						c-6.012-0.951-9.016-3.873-9.016-8.77c0-1.354,0.25-2.576,0.754-3.67c0.504-1.096,1.23-2.031,2.18-2.808
						c0.949-0.778,2.092-1.376,3.43-1.794c1.338-0.416,2.854-0.626,4.551-0.626c2.271,0,4.256,0.375,5.953,1.124
						c1.697,0.75,3.15,1.857,4.357,3.329l-3.883,3.675c-0.748-0.913-1.654-1.655-2.717-2.226c-1.064-0.569-2.402-0.855-4.014-0.855
						c-1.639,0-2.867,0.307-3.688,0.92c-0.82,0.612-1.23,1.476-1.23,2.588c0,1.14,0.33,1.98,0.992,2.522s1.727,0.942,3.193,1.197
						l2.805,0.518c3.047,0.548,5.299,1.52,6.75,2.916c1.453,1.396,2.18,3.347,2.18,5.852c0,1.44-0.252,2.743-0.756,3.909
						c-0.502,1.165-1.236,2.173-2.199,3.022c-0.965,0.85-2.143,1.504-3.537,1.966C265.77,857.147,264.168,857.377,262.355,857.377z"
						/>
					<path fill="#FFFFFF" d="M285.607,826.747v18.508c0,2.359,0.453,4.128,1.359,5.307c0.906,1.18,2.438,1.769,4.594,1.769
						c2.158,0,3.689-0.589,4.596-1.769c0.904-1.179,1.357-2.947,1.357-5.307v-18.508h5.609v17.775c0,2.215-0.209,4.128-0.625,5.736
						c-0.418,1.611-1.086,2.949-2.008,4.014c-0.92,1.063-2.121,1.848-3.602,2.352c-1.482,0.502-3.271,0.753-5.371,0.753
						c-2.129,0-3.92-0.251-5.371-0.753c-1.453-0.504-2.639-1.288-3.559-2.352c-0.922-1.064-1.582-2.402-1.984-4.014
						c-0.404-1.608-0.604-3.521-0.604-5.736v-17.775H285.607z"/>
				</g>
			</g>
		</g>
		<g>
			<g>
				<g>
					<path fill="#FFFFFF" d="M79.223,135.786c-4.553,10.764-7.26,22.072-8.086,33.713c1.795-1.461,4.08-2.34,6.568-2.34
						c2.748,0,5.244,1.078,7.109,2.818c3.668-47.797,43.611-85.436,92.352-85.436c3.775,0,6.836-3.063,6.836-6.838
						c0-3.777-3.061-6.838-6.836-6.838c-14.346,0-28.27,2.813-41.385,8.359c-12.658,5.355-24.025,13.016-33.783,22.775
						C92.238,111.759,84.576,123.126,79.223,135.786z"/>
					<path fill="#FFFFFF" d="M169.596,269.485c-47.479-3.842-84.838-43.482-85.053-91.898c0-3.775-3.061-6.838-6.838-6.838
						c-3.775,0-6.838,3.063-6.838,6.838c0.055,14.197,2.861,27.977,8.355,40.963c5.354,12.66,13.016,24.027,22.775,33.785
						c9.758,9.76,21.125,17.422,33.783,22.777c10.629,4.494,21.787,7.193,33.271,8.055c-1.443-1.789-2.314-4.061-2.314-6.533
						C166.738,273.866,167.83,271.354,169.596,269.485z"/>
					<path fill="#FFFFFF" d="M251.266,243.706c-1.334-1.334-3.084-2.002-4.834-2.002s-3.5,0.668-4.836,2.002
						c-16.672,16.146-39.389,26.09-64.43,26.09c-3.777,0-6.838,3.061-6.838,6.838c0,3.775,3.061,6.838,6.838,6.838
						c14.344,0,28.266-2.813,41.381-8.359c12.205-5.162,23.201-12.475,32.719-21.734
						C253.938,250.708,253.938,246.378,251.266,243.706z"/>
					<path fill="#FFFFFF" d="M177.166,283.472c-3.777,0-6.838-3.063-6.838-6.838c0-3.777,3.061-6.838,6.838-6.838
						c25.041,0,47.758-9.943,64.43-26.09c1.336-1.334,3.086-2.002,4.836-2.002s3.5,0.668,4.834,2.002
						c2.672,2.672,2.672,7.002,0,9.672c-9.518,9.26-20.514,16.572-32.719,21.734C205.432,280.659,191.51,283.472,177.166,283.472z
						 M135.781,275.112c-12.658-5.355-24.025-13.018-33.783-22.777c-9.76-9.758-17.422-21.125-22.775-33.785
						c-5.494-12.986-8.301-26.766-8.355-40.963c0-3.775,3.063-6.838,6.838-6.838c3.777,0,6.838,3.063,6.838,6.838
						c0.215,48.416,37.574,88.057,85.053,91.898c-1.766,1.869-2.857,4.381-2.857,7.148c0,2.473,0.871,4.744,2.314,6.533
						C157.568,282.306,146.41,279.606,135.781,275.112z M177.166,70.866c3.775,0,6.836,3.061,6.836,6.838
						c0,3.775-3.061,6.838-6.836,6.838c-48.74,0-88.684,37.639-92.352,85.436c-1.865-1.74-4.361-2.818-7.109-2.818
						c-2.488,0-4.773,0.879-6.568,2.34c0.826-11.641,3.533-22.949,8.086-33.713c5.354-12.66,13.016-24.027,22.775-33.785
						c9.758-9.76,21.125-17.42,33.783-22.775C148.896,73.679,162.82,70.866,177.166,70.866z"/>
				</g>
				<g>
					<g>
						<g>
							<path fill="#FFFFFF" d="M233.459,120.874c-15.035-15.035-35.029-23.314-56.293-23.314c-21.266,0-41.258,8.279-56.293,23.314
								c-15.037,15.037-23.318,35.029-23.318,56.295c0,21.264,8.281,41.256,23.318,56.293
								c15.035,15.035,35.027,23.318,56.293,23.318c21.264,0,41.258-8.283,56.293-23.318c15.037-15.037,23.316-35.029,23.316-56.293
								C256.775,155.903,248.496,135.911,233.459,120.874z"/>
							<path fill="#333E48" d="M121.061,202.913v-51.488h11.166v3.805h-6.473v43.877h6.473v3.807H121.061z"/>
							<path fill="#333E48" d="M233.271,151.425v51.488h-11.164v-3.807h6.469v-43.877h-6.469v-3.805H233.271z"/>
							<path fill="#333E48" d="M146.996,187.628c0,1.029,0.016,2.242,0.047,3.637s0.076,2.811,0.129,4.248
								c0.055,1.438,0.117,2.811,0.193,4.119c0.074,1.309,0.166,2.402,0.273,3.281h-6.598v-36.365c0-3.131-0.053-5.969-0.16-8.512
								s-0.268-4.746-0.484-6.611h6.6V187.628z"/>
							<path fill="#333E48" d="M175.799,170.089v4.217h-6.051v24.393h6.051v4.217h-18.021v-4.217h5.953v-24.393h-5.953v-4.217
								H175.799z"/>
							<path fill="#333E48" d="M189.316,170.089c0.127,0.344,0.256,0.787,0.385,1.336c0.131,0.547,0.246,1.121,0.355,1.721
								c0.105,0.602,0.201,1.191,0.289,1.771l0.256,1.445c2.061-2.443,4.131-4.209,6.211-5.293c2.082-1.082,4.25-1.625,6.502-1.625
								c1.717,0,3.234,0.285,4.553,0.854c1.32,0.57,2.432,1.471,3.332,2.703c0.9,1.234,1.58,2.834,2.043,4.795
								c0.463,1.965,0.691,4.328,0.691,7.098v14.48c0,3.625-0.316,6.637-0.949,9.027c-0.631,2.393-1.518,4.303-2.654,5.73
								c-1.137,1.424-2.506,2.434-4.104,3.023s-3.373,0.885-5.326,0.885c-0.965,0-2-0.156-3.105-0.467
								c-1.104-0.311-2.107-0.744-3.008-1.303l2.092-4.828c0.492,0.365,1.152,0.67,1.979,0.918c0.826,0.246,1.668,0.369,2.525,0.369
								c1.031,0,1.953-0.166,2.77-0.498c0.814-0.332,1.506-0.916,2.074-1.754c0.568-0.836,1.004-1.984,1.305-3.443
								c0.299-1.459,0.449-3.314,0.449-5.568v-14.16c0-2.574-0.135-4.66-0.402-6.258c-0.268-1.6-0.672-2.844-1.207-3.734
								s-1.207-1.484-2.012-1.787c-0.805-0.299-1.742-0.449-2.816-0.449c-1.158,0-2.287,0.273-3.393,0.822
								c-1.105,0.545-2.121,1.254-3.043,2.123c-0.922,0.867-1.738,1.85-2.445,2.943c-0.707,1.096-1.234,2.188-1.578,3.283v18.666
								h-5.953v-19.793c0-3.174-0.182-5.861-0.547-8.061c-0.363-2.199-0.719-3.857-1.063-4.973H189.316z"/>
						</g>
					</g>
				</g>
			</g>
		</g>
	</g>
</g>
</svg>
