<?xml version="1.0" encoding="utf-8"?>
<!-- Generator: Adobe Illustrator 16.0.0, SVG Export Plug-In . SVG Version: 6.00 Build 0)  -->
<!DOCTYPE svg PUBLIC "-//W3C//DTD SVG 1.0//EN" "http://www.w3.org/TR/2001/REC-SVG-20010904/DTD/svg10.dtd">
<svg version="1.0" id="Logotypes" xmlns="http://www.w3.org/2000/svg" xmlns:xlink="http://www.w3.org/1999/xlink" x="0px" y="0px"
	 width="2678.857px" height="708.662px" viewBox="0 0 2678.857 708.662" enable-background="new 0 0 2678.857 708.662"
	 xml:space="preserve">
<g>
	<defs>
		<rect id="SVGID_17_" y="-0.001" width="2678.857" height="708.662"/>
	</defs>
	<clipPath id="SVGID_2_">
		<use xlink:href="#SVGID_17_"  overflow="visible"/>
	</clipPath>
	<g clip-path="url(#SVGID_2_)">
		<g>
			
				<text transform="matrix(1.0154 0 0 1 1798.8691 379.0381)" fill="#333E48" font-family="'NotoSansCJKtc-Medium-B5pc-H'" font-size="62.1189" letter-spacing="3.939">二零一七至二零一八年度</text>
		</g>
		<g>
			<g>
				<g>
					<g>
						<path fill="#EE202E" d="M155.407,341.493c7.556,0,13.677,6.123,13.677,13.674c-0.002-0.279-0.012-0.557-0.012-0.836
							c0-102.311,82.937-185.248,185.248-185.248c7.553,0,13.676-6.121,13.676-13.676c0-7.553-6.123-13.676-13.676-13.676
							c-28.688,0-56.533,5.627-82.763,16.719c-25.317,10.709-48.051,26.033-67.565,45.549c-19.518,19.518-34.844,42.25-45.552,67.57
							c-11.093,26.229-16.718,54.072-16.718,82.762c0,0.279,0.008,0.557,0.01,0.836
							C141.732,347.616,147.854,341.493,155.407,341.493z"/>
						<path fill="#46BC96" d="M340.646,553.253c0-7.553,6.122-13.674,13.675-13.674c-102.031,0-184.785-82.486-185.236-184.412
							c0-7.551-6.121-13.674-13.677-13.674c-7.553,0-13.675,6.123-13.675,13.674c0.108,28.395,5.723,55.953,16.708,81.926
							c10.708,25.318,26.034,48.051,45.552,67.566c19.515,19.518,42.248,34.842,67.565,45.553
							c26.229,11.094,54.075,16.717,82.763,16.717C346.768,566.929,340.646,560.806,340.646,553.253z"/>
						<path fill="#00C2F3" d="M502.518,487.403c-5.339-5.342-13.996-5.342-19.34,0c-33.342,32.291-78.773,52.176-128.857,52.176
							c-7.553,0-13.675,6.121-13.675,13.674s6.122,13.676,13.675,13.676c28.69,0,56.534-5.623,82.764-16.717
							c24.406-10.322,46.399-24.949,65.434-43.467C507.861,501.403,507.861,492.745,502.518,487.403z"/>
					</g>
					<g>
						<path fill="#00C2F3" d="M466.904,241.747c-30.07-30.07-70.055-46.631-112.584-46.631c-42.526,0-82.51,16.561-112.582,46.631
							c-30.07,30.072-46.633,70.057-46.633,112.584c0,42.529,16.563,82.508,46.633,112.582
							c30.072,30.07,70.056,46.635,112.582,46.635c42.529,0,82.514-16.564,112.584-46.635
							c30.072-30.074,46.631-70.053,46.631-112.582C513.535,311.804,496.977,271.819,466.904,241.747z"/>
						<path fill="#333E48" d="M242.113,405.819V302.843h22.334v7.613h-12.945v87.752h12.945v7.611H242.113z"/>
						<path fill="#333E48" d="M466.529,302.843v102.977H444.2v-7.611h12.938v-87.752H444.2v-7.613H466.529z"/>
						<path fill="#FFFFFF" d="M293.982,375.249c0,2.057,0.032,4.484,0.096,7.271c0.063,2.791,0.15,5.625,0.259,8.496
							c0.106,2.875,0.233,5.623,0.387,8.24c0.147,2.617,0.331,4.805,0.546,6.563h-13.193v-72.729c0-6.264-0.106-11.938-0.322-17.021
							c-0.213-5.088-0.536-9.496-0.966-13.227h13.194V375.249z"/>
						<path fill="#FFFFFF" d="M351.588,340.171v8.434h-12.102v48.785h12.102v8.432h-36.041v-8.432h11.906v-48.785h-11.906v-8.434
							H351.588z"/>
						<path fill="#FFFFFF" d="M378.621,340.171c0.256,0.688,0.514,1.576,0.771,2.674c0.261,1.092,0.492,2.238,0.71,3.441
							c0.211,1.201,0.404,2.381,0.58,3.541l0.512,2.893c4.121-4.891,8.258-8.418,12.422-10.586c4.162-2.166,8.5-3.25,13.002-3.25
							c3.433,0,6.469,0.568,9.107,1.705c2.639,1.139,4.861,2.941,6.662,5.406c1.8,2.469,3.162,5.666,4.088,9.59
							c0.922,3.928,1.383,8.656,1.383,14.195v28.959c0,7.252-0.635,13.271-1.9,18.055c-1.264,4.785-3.037,8.604-5.309,11.461
							c-2.273,2.848-5.012,4.867-8.207,6.045c-3.195,1.182-6.746,1.771-10.652,1.771c-1.93,0-4-0.311-6.211-0.934
							c-2.209-0.623-4.215-1.49-6.018-2.607l4.185-9.654c0.987,0.73,2.306,1.34,3.958,1.836c1.652,0.492,3.337,0.738,5.05,0.738
							c2.063,0,3.907-0.332,5.54-0.996c1.629-0.666,3.012-1.832,4.148-3.508c1.139-1.674,2.008-3.969,2.608-6.887
							s0.899-6.631,0.899-11.135v-28.32c0-5.148-0.268-9.322-0.804-12.518c-0.536-3.197-1.343-5.688-2.415-7.467
							c-1.071-1.779-2.412-2.971-4.024-3.574c-1.606-0.598-3.483-0.898-5.63-0.898c-2.315,0-4.576,0.547-6.787,1.643
							c-2.21,1.094-4.241,2.51-6.086,4.246s-3.475,3.699-4.889,5.891c-1.416,2.188-2.469,4.375-3.157,6.564v37.33h-11.905v-39.584
							c0-6.35-0.365-11.725-1.096-16.123c-0.728-4.398-1.438-7.713-2.123-9.943H378.621z"/>
					</g>
				</g>
			</g>
			<g>
				<g>
					<path fill="#333E48" d="M731.926,379.633h-54.993v-9.129h54.993V379.633z M724.769,476.839h-9.421v-10.006h-21.983v10.006
						h-9.567v-49.37h40.972V476.839z M724.33,398.476l-40.387,0.146v-9.128h40.387V398.476z M724.477,417.609h-40.533v-9.129h40.533
						V417.609z M722.65,361.083l-37.1,0.146v-9.129h37.1V361.083z M715.348,457.85v-21.397h-22.129v21.397H715.348z
						 M809.705,417.756l-78.948,0.146v-8.982h19.572l4.236-22.566h-18.258v-8.983h19.719l3.14-16.725h-27.971v-9.129h72.521v8.983
						h-34.69l-2.994,16.725h30.09l-3.141,31.549h16.725V417.756z M796.996,477.131h-9.42v-9.859h-36.955v9.859h-9.566v-49.516
						h55.941V477.131z M787.576,458.288v-21.69h-37.101v21.69H787.576z M786.115,386.206h-21.691l-4.234,22.713h23.662
						L786.115,386.206z"/>
					<path fill="#333E48" d="M974.376,379.633H841.605v-9.129h132.771V379.633z M954.804,398.329h-94.942v-8.836h94.942V398.329z
						 M954.804,417.317h-94.942v-8.837h94.942V417.317z M951.371,477.131h-9.42v-10.298h-68.505v10.298h-9.421v-49.662h87.346
						V477.131z M951.226,360.134l-86.47,0.219v-8.837h86.47V360.134z M941.951,457.85v-21.397h-68.505v21.397H941.951z"/>
					<path fill="#333E48" d="M1139.05,450.693h-58.791v10.151c0,10.856-5.77,16.286-17.311,16.286h-9.713l-3.578-8.982h13.584
						c4.771,0,7.158-2.192,7.158-6.573v-10.882h-64.123v-9.129h64.123v-6.281c10.174-3.798,17.453-7.351,21.836-10.662h-55.943
						v-8.399h72.158v7.961c-7.598,5.161-16.994,10.443-28.191,15.848v1.534h58.791V450.693z M1132.915,423.598h-8.766V408.48
						h-102.023v15.994h-9.569v-24.538h12.562v-44.551c6.912-0.681,14.486-3.968,22.715-9.858l4.82,6.719
						c-4.434,4.09-10.471,7.183-18.113,9.275v6.135h18.695v7.596h-18.695v7.96h18.695v7.448h-18.695v9.276h77.633v-9.276h-17.82
						v-7.303h17.82v-8.544h-17.674v-7.449h17.674v-7.961h-20.668v-8.837h29.943v49.224h11.467V423.598z M1091.505,366.926
						l-5.111,6.28c-2.777-2.677-6.551-5.574-11.32-8.69c-3.943,3.312-8.375,6.354-13.293,9.129l-5.988-5.259
						c4.723-1.946,8.859-4.235,12.416-6.864c-5.941-2.239-10.736-3.798-14.389-4.674l3.727-6.72
						c5.402,1.363,10.832,3.117,16.285,5.258c3.457-3.26,6.354-6.596,8.691-10.005l6.135,4.894c-1.949,3.019-4.48,5.965-7.596,8.837
						C1084.663,361.155,1088.146,363.761,1091.505,366.926z M1092.38,393.509l-6.133,4.82c-3.943-3.019-8.035-5.525-12.27-7.521
						c-2.629,1.996-7.303,4.503-14.021,7.521l-5.551-4.382c6.279-2.969,10.783-5.551,13.512-7.741
						c-2.729-1.703-6.865-3.603-12.416-5.697l5.477-4.6c5.014,1.802,9.299,3.676,12.854,5.622c1.361-0.777,4.113-3.114,8.252-7.011
						l6.719,3.433c-2.482,3.214-5.256,5.868-8.324,7.961C1084.519,387.765,1088.485,390.296,1092.38,393.509z"/>
					<path fill="#333E48" d="M1303.575,450.693h-58.791v10.151c0,10.856-5.77,16.286-17.309,16.286h-9.713l-3.578-8.982h13.584
						c4.77,0,7.156-2.192,7.156-6.573v-10.882h-64.121v-9.129h64.121v-6.281c10.176-3.798,17.453-7.351,21.838-10.662h-55.943
						v-8.399h72.156v7.961c-7.596,5.161-16.994,10.443-28.191,15.848v1.534h58.791V450.693z M1297.442,423.598h-8.768V408.48
						h-102.023v15.994h-9.566v-24.538h12.561v-44.551c6.914-0.681,14.484-3.968,22.713-9.858l4.82,6.719
						c-4.43,4.09-10.469,7.183-18.113,9.275v6.135h18.697v7.596h-18.697v7.96h18.697v7.448h-18.697v9.276h77.633v-9.276h-17.818
						v-7.303h17.818v-8.544h-17.674v-7.449h17.674v-7.961h-20.668v-8.837h29.943v49.224h11.469V423.598z M1258.632,391.87
						l-6.654,6.084c-3.037-4.563-7.383-10.276-11.586-13.824c-6.533,7.279-11.906,11.912-16.105,13.894l-6.584-5.529
						c4.949-2.354,10.316-6.752,16.107-13.203c-6.584-4.101-11.275-6.637-14.076-7.605l5.744-5.94
						c2.334,0.922,6.719,3.315,13.166,7.189c1.916-3.136,3.406-6.568,4.48-10.302h-21.99v-8.639h11.789v-8.896h7.566v8.896h13.992
						v8.639h-2.77c-1.555,5.718-3.646,10.671-6.275,14.863C1250.526,381.365,1255.411,387.263,1258.632,391.87z"/>
					<path fill="#333E48" d="M1470.511,379.342l-5.258,7.595c-16.604-4.09-29.603-8.813-38.998-14.168v6.573h-49.371v-7.231
						c-14.217,7.353-26.973,12.149-38.27,14.388l-4.818-7.668c27.361-6.67,50.146-17.819,68.357-33.449l8.981,2.994
						c-0.974,1.218-1.825,2.07-2.556,2.556C1424.743,364.369,1445.388,373.84,1470.511,379.342z M1454.954,421.188h-106.041v-34.252
						h106.041V421.188z M1446.265,477.276h-8.982v-5.843h-70.549v5.843h-8.982v-48.42h88.514V477.276z M1397.552,413.301v-18.258
						h-39.656v18.258H1397.552z M1437.282,446.312v-9.421h-70.549v9.421H1437.282z M1437.282,463.547v-9.567h-70.549v9.567H1437.282
						z M1387.839,406.07l-7.521,5.259c-4.527-4.575-8.959-7.96-13.293-10.151l7.596-4.382
						C1379.78,398.986,1384.187,402.079,1387.839,406.07z M1423.261,371.235c-7.062-3.7-13.902-8.691-20.523-14.973
						c-7.061,5.843-14.972,10.834-23.734,14.973H1423.261z M1445.974,413.301v-18.258h-39.438v18.258H1445.974z M1437.135,399.352
						c-2.872,4.577-7.206,8.473-13,11.686l-8.033-4.017c6.38-3.603,10.761-7.206,13.146-10.81L1437.135,399.352z"/>
				</g>
				<g>
					<path fill="#333E48" d="M732.613,260.247l-2.789,3.211c-8.36-2.94-16.32-8.12-23.881-15.541l0.061,11.73h14.01v25.8h-3.811
						v-3.449h-24.27v3.449h-3.932v-25.8h14.07v-11.73c-4.119,6.3-11.561,11.23-22.32,14.791l-2.819-3.181
						c9.54-2.521,16.36-6.39,20.46-11.61h-17.07v-3.75h21.75v-5.79c-4.779,0.48-10.779,0.83-18,1.05l-2.58-3.63
						c17.061-0.061,30.681-1.489,40.861-4.29l2.88,2.881c-5.66,1.52-12.07,2.689-19.229,3.51v6.27h22.05v3.75l-17.19-0.06
						C717.224,253.378,724.474,257.508,732.613,260.247z M716.203,268.678v-5.28h-24.33v5.28H716.203z M716.203,278.308v-5.939
						h-24.33v5.939H716.203z"/>
					<path fill="#333E48" d="M748.215,263.007c-2.521,7.821-5.821,14.232-9.9,19.231l3.51,2.221
						c4.539-5.722,7.881-12.13,10.021-19.23L748.215,263.007z M741.885,246.357l-2.521,3.15c3.98,1.7,7.131,4.139,9.453,7.319
						l2.637-3.569C749.375,250.477,746.186,248.178,741.885,246.357z M744.823,232.918l-2.819,2.88c3.84,1.379,6.87,3.7,9.092,6.959
						l2.818-3.03C751.773,236.627,748.743,234.358,744.823,232.918z"/>
					<path fill="#333E48" d="M784.035,272.129v-11.313c2.379,2.241,4.939,4.081,7.682,5.522l2.46-3.332
						c-5.241-2.238-9.323-5.78-12.241-10.619h10.258v-3.689h-9.808v-7.171h7.409v-3.691h-7.409v-6.327h-3.812v6.389h-11.129v-6.389
						h-3.813v6.389h-7.378v3.688h7.44v7.17h-9.781v3.692h9.9c-2.219,4.159-6.23,7.62-12.029,10.378l2.818,3.331
						c1.715-0.995,3.295-2.074,4.74-3.239v16.081c0,3.439,1.721,5.159,5.16,5.159h19.65c1.602,0,2.866-0.531,3.795-1.589
						c0.932-1.061,1.656-3.15,2.176-6.27l-3.869-1.741c-0.262,2.5-0.64,4.099-1.141,4.799c-0.5,0.701-1.17,1.051-2.01,1.051h-18.301
						c-1.102,0-1.648-0.55-1.648-1.651v-6.628H784.035z M767.445,241.527h11.189v7.171h-11.189V241.527z M767.804,252.388h10.2
						c0.982,2.32,2.461,4.59,4.44,6.812h-19.05C765.555,256.818,767.025,254.547,767.804,252.388z M763.156,262.888h17.069v5.61
						h-17.069V262.888z"/>
					<path fill="#333E48" d="M855.377,282.448l-2.79,3.119c-12.501-6.819-20.44-18.31-23.821-34.47
						c-4.18,16.421-12.7,27.91-25.56,34.47l-3.03-3.569c12.74-6.2,20.81-16.48,24.211-30.841h-20.401v-3.87h20.851
						c0.381-3.76,0.539-9.021,0.48-15.78l4.17,0.601c0.1,6.119-0.02,11.16-0.36,15.12h22.741v3.87h-18.931
						C835.336,264.798,842.816,275.248,855.377,282.448z"/>
					<path fill="#333E48" d="M916.549,274.647h-24.151v4.171c0,4.459-2.37,6.69-7.11,6.69h-3.99l-1.469-3.69h5.58
						c1.959,0,2.939-0.9,2.939-2.7v-4.471h-26.34v-3.75h26.34v-2.58c4.18-1.56,7.17-3.02,8.971-4.38h-22.98v-3.45h29.64v3.27
						c-3.12,2.121-6.979,4.291-11.58,6.511v0.63h24.151V274.647z M914.029,263.518h-3.601v-6.21h-41.911v6.569h-3.93v-10.079h5.16
						v-18.301c2.839-0.279,5.949-1.63,9.329-4.05l1.979,2.76c-1.819,1.681-4.299,2.95-7.439,3.811v2.52h7.68v3.12h-7.68v3.271h7.68
						v3.06h-7.68v3.811h31.891v-3.811h-7.32v-3h7.32v-3.51h-7.26v-3.061h7.26v-3.27h-8.49v-3.63h12.301v20.22h4.711V263.518z
						 M897.018,240.237l-2.1,2.579c-1.141-1.1-2.69-2.289-4.65-3.569c-1.619,1.36-3.439,2.61-5.46,3.75l-2.46-2.159
						c1.939-0.801,3.64-1.74,5.1-2.82c-2.439-0.92-4.41-1.561-5.91-1.921l1.531-2.76c2.219,0.561,4.449,1.28,6.689,2.16
						c1.42-1.339,2.609-2.71,3.57-4.11l2.52,2.011c-0.801,1.239-1.84,2.45-3.119,3.63
						C894.207,237.866,895.637,238.938,897.018,240.237z M897.378,251.157l-2.521,1.98c-1.619-1.24-3.3-2.271-5.039-3.091
						c-1.081,0.82-3.001,1.851-5.761,3.091l-2.28-1.801c2.58-1.22,4.43-2.279,5.551-3.18c-1.121-0.7-2.82-1.479-5.101-2.34
						l2.249-1.891c2.061,0.74,3.821,1.512,5.281,2.311c0.56-0.32,1.689-1.279,3.391-2.88l2.76,1.41c-1.02,1.319-2.16,2.41-3.42,3.27
						C894.147,248.797,895.777,249.837,897.378,251.157z"/>
					<path fill="#333E48" d="M977.99,274.647h-24.151v4.171c0,4.459-2.37,6.69-7.11,6.69h-3.989l-1.47-3.69h5.58
						c1.959,0,2.939-0.9,2.939-2.7v-4.471h-26.34v-3.75h26.34v-2.58c4.18-1.56,7.17-3.02,8.97-4.38h-22.979v-3.45h29.641v3.27
						c-3.121,2.121-6.98,4.291-11.581,6.511v0.63h24.151V274.647z M975.47,263.518h-3.601v-6.21h-41.91v6.569h-3.931v-10.079h5.161
						v-18.301c2.839-0.279,5.949-1.63,9.329-4.05l1.98,2.76c-1.82,1.681-4.301,2.95-7.44,3.811v2.52h7.681v3.12h-7.681v3.271h7.681
						v3.06h-7.681v3.811h31.891v-3.811h-7.32v-3h7.32v-3.51h-7.26v-3.061h7.26v-3.27h-8.49v-3.63h12.301v20.22h4.71V263.518z
						 M958.459,240.237l-2.1,2.579c-1.141-1.1-2.691-2.289-4.65-3.569c-1.619,1.36-3.44,2.61-5.459,3.75l-2.461-2.159
						c1.939-0.801,3.64-1.74,5.1-2.82c-2.439-0.92-4.41-1.561-5.91-1.921l1.531-2.76c2.219,0.561,4.449,1.28,6.689,2.16
						c1.42-1.339,2.609-2.71,3.57-4.11l2.52,2.011c-0.801,1.239-1.84,2.45-3.12,3.63
						C955.649,237.866,957.079,238.938,958.459,240.237z M958.82,251.157l-2.521,1.98c-1.619-1.24-3.299-2.271-5.04-3.091
						c-1.079,0.82-3,1.851-5.761,3.091l-2.279-1.801c2.58-1.22,4.43-2.279,5.551-3.18c-1.121-0.7-2.82-1.479-5.101-2.34l2.25-1.891
						c2.06,0.74,3.819,1.512,5.28,2.311c0.56-0.32,1.689-1.279,3.391-2.88l2.76,1.41c-1.021,1.319-2.16,2.41-3.42,3.27
						C955.59,248.797,957.219,249.837,958.82,251.157z"/>
					<path fill="#333E48" d="M1039.431,282.508H984.83v-3.869h25.441v-14.071h-18.332v-3.87h18.332v-12.24H996.68
						c-1.639,4.26-4.379,8.19-8.219,11.79l-3.961-2.07c6.561-6.06,10.209-13.479,10.95-22.26l4.05,1.17
						c-0.16,2.04-0.629,4.561-1.408,7.561h12.117v-13.141h4.053v13.08h21.179v3.87h-21.179v12.181h18.06v3.869h-18.06v14.071h25.169
						V282.508z"/>
					<path fill="#333E48" d="M1101.862,245.337l-2.16,3.12c-6.82-1.68-12.16-3.619-16.02-5.819v2.699h-20.281v-2.97
						c-5.84,3.021-11.08,4.99-15.721,5.91l-1.979-3.15c11.238-2.74,20.6-7.32,28.08-13.74l3.689,1.23
						c-0.4,0.5-0.75,0.851-1.049,1.05C1083.062,239.188,1091.542,243.077,1101.862,245.337z M1095.474,262.528h-43.563v-14.071
						h43.563V262.528z M1091.903,285.567h-3.691v-2.399h-28.98v2.399h-3.689v-19.89h36.361V285.567z M1071.892,259.287v-7.5h-16.291
						v7.5H1071.892z M1088.212,272.848v-3.87h-28.98v3.87H1088.212z M1088.212,279.928v-3.93h-28.98v3.93H1088.212z
						 M1067.901,256.317l-3.09,2.16c-1.859-1.879-3.68-3.27-5.461-4.17l3.121-1.8
						C1064.591,253.407,1066.401,254.678,1067.901,256.317z M1082.452,242.008c-2.9-1.52-5.711-3.57-8.432-6.151
						c-2.898,2.4-6.148,4.451-9.748,6.151H1082.452z M1091.782,259.287v-7.5h-16.199v7.5H1091.782z M1088.151,253.558
						c-1.18,1.88-2.959,3.479-5.34,4.8l-3.299-1.649c2.619-1.48,4.42-2.961,5.398-4.44L1088.151,253.558z"/>
					<path fill="#333E48" d="M1162.944,281.638l-2.641,3.511c-10.18-3-18.441-7.04-24.779-12.121
						c-5.463,4.461-14.041,8.581-25.742,12.361l-2.939-3.57c11.32-3.14,19.881-6.95,25.682-11.431
						c-5.82-5.5-9.732-12.189-11.73-20.07c-1.08,2.78-2.563,5.42-4.441,7.92l-3.178-2.909c2.52-3.001,4.547-6.291,6.088-9.871
						h-10.32v-3.689h24.063v-10.261h3.869v10.2h24.48v3.69h-10.262c-1.799,10.44-5.938,18.75-12.42,24.93
						C1144.573,274.808,1152.663,278.578,1162.944,281.638z M1147.073,245.397h-23.219c1.598,9.26,5.508,16.71,11.729,22.351
						C1141.663,262.088,1145.493,254.638,1147.073,245.397z"/>
					<path fill="#333E48" d="M1223.757,274.647h-24.152v4.171c0,4.459-2.369,6.69-7.109,6.69h-3.99l-1.469-3.69h5.578
						c1.961,0,2.941-0.9,2.941-2.7v-4.471h-26.34v-3.75h26.34v-2.58c4.18-1.56,7.17-3.02,8.969-4.38h-22.98v-3.45h29.641v3.27
						c-3.119,2.121-6.98,4.291-11.58,6.511v0.63h24.152V274.647z M1221.237,263.518h-3.602v-6.21h-41.912v6.569h-3.93v-10.079h5.16
						v-18.301c2.84-0.279,5.951-1.63,9.332-4.05l1.979,2.76c-1.818,1.681-4.301,2.95-7.441,3.811v2.52h7.682v3.12h-7.682v3.271
						h7.682v3.06h-7.682v3.811h31.893v-3.811h-7.322v-3h7.322v-3.51h-7.26v-3.061h7.26v-3.27h-8.49v-3.63h12.299v20.22h4.713
						V263.518z M1204.226,240.237l-2.102,2.579c-1.139-1.1-2.689-2.289-4.648-3.569c-1.621,1.36-3.441,2.61-5.461,3.75l-2.459-2.159
						c1.939-0.801,3.639-1.74,5.1-2.82c-2.441-0.92-4.412-1.561-5.91-1.921l1.531-2.76c2.219,0.561,4.449,1.28,6.689,2.16
						c1.42-1.339,2.609-2.71,3.568-4.11l2.521,2.011c-0.801,1.239-1.842,2.45-3.119,3.63
						C1201.415,237.866,1202.845,238.938,1204.226,240.237z M1204.585,251.157l-2.52,1.98c-1.619-1.24-3.301-2.271-5.041-3.091
						c-1.08,0.82-3,1.851-5.76,3.091l-2.281-1.801c2.582-1.22,4.432-2.279,5.551-3.18c-1.119-0.7-2.82-1.479-5.1-2.34l2.25-1.891
						c2.061,0.74,3.82,1.512,5.281,2.311c0.561-0.32,1.689-1.279,3.389-2.88l2.76,1.41c-1.02,1.319-2.158,2.41-3.418,3.27
						C1201.354,248.797,1202.983,249.837,1204.585,251.157z"/>
					<path fill="#333E48" d="M1244.274,251.907c4.041,4.54,6.063,8.971,6.063,13.29c0,2.101-0.545,3.771-1.637,5.01
						c-1.088,1.241-2.613,1.861-4.574,1.861c-1.08,0-2.381-0.131-3.9-0.39l-1.109-3.991c2.141,0.541,3.68,0.811,4.619,0.811
						c0.779,0,1.49-0.301,2.131-0.9s0.961-1.399,0.961-2.4c0-1.499-0.551-3.419-1.65-5.76c-1.102-2.34-2.752-4.57-4.951-6.689
						l5.852-15.031h-8.91v47.792h-3.932v-51.602h16.83v3.81L1244.274,251.907z M1285.647,274.498
						c-0.521,3.24-1.221,5.591-2.102,7.05c-0.879,1.46-2.311,2.19-4.289,2.19h-4.68c-3.121,0-4.68-1.641-4.68-4.92v-15.87h-6.332
						c-0.119,6.439-1.375,11.265-3.764,14.475c-2.391,3.21-6.824,5.905-13.307,8.086l-2.52-3.451c6.02-1.779,10.15-4.08,12.391-6.9
						c2.24-2.819,3.369-6.869,3.391-12.149h-8.221v-3.931h32.133v3.871h-10.023v14.94c0,0.499,0.16,0.965,0.48,1.395
						c0.32,0.431,0.701,0.645,1.141,0.645h3.811c0.779,0,1.375-0.64,1.785-1.92c0.408-1.279,0.754-2.939,1.035-4.98
						L1285.647,274.498z M1282.196,247.287l-3.809,0.061v-5.281h-22.621v5.281h-3.871v-9.091h13.17v-6.81h3.932v6.75h13.199V247.287
						z M1277.157,253.077h-20.281v-3.93h20.281V253.077z"/>
					<path fill="#333E48" d="M1346.64,274.647h-24.152v4.171c0,4.459-2.371,6.69-7.109,6.69h-3.99l-1.471-3.69h5.58
						c1.961,0,2.941-0.9,2.941-2.7v-4.471h-26.342v-3.75h26.342v-2.58c4.18-1.56,7.17-3.02,8.969-4.38h-22.98v-3.45h29.64v3.27
						c-3.119,2.121-6.979,4.291-11.579,6.511v0.63h24.152V274.647z M1344.118,263.518h-3.601v-6.21h-41.909v6.569h-3.932v-10.079
						h5.162v-18.301c2.838-0.279,5.949-1.63,9.328-4.05l1.98,2.76c-1.82,1.681-4.299,2.95-7.439,3.811v2.52h7.68v3.12h-7.68v3.271
						h7.68v3.06h-7.68v3.811h31.89v-3.811h-7.319v-3h7.319v-3.51h-7.259v-3.061h7.259v-3.27h-8.489v-3.63h12.299v20.22h4.711
						V263.518z M1327.108,240.237l-2.102,2.579c-1.141-1.1-2.689-2.289-4.65-3.569c-1.619,1.36-3.439,2.61-5.459,3.75l-2.461-2.159
						c1.941-0.801,3.643-1.74,5.102-2.82c-2.441-0.92-4.41-1.561-5.91-1.921l1.529-2.76c2.221,0.561,4.451,1.28,6.689,2.16
						c1.42-1.339,2.611-2.71,3.572-4.11l2.52,2.011c-0.801,1.239-1.842,2.45-3.121,3.63
						C1324.298,237.866,1325.728,238.938,1327.108,240.237z M1327.468,251.157l-2.52,1.98c-1.621-1.24-3.301-2.271-5.039-3.091
						c-1.082,0.82-3,1.851-5.762,3.091l-2.279-1.801c2.58-1.22,4.43-2.279,5.551-3.18c-1.121-0.7-2.822-1.479-5.102-2.34l2.25-1.891
						c2.061,0.74,3.82,1.512,5.279,2.311c0.561-0.32,1.689-1.279,3.391-2.88l2.76,1.41c-1.02,1.319-2.16,2.41-3.42,3.27
						C1324.237,248.797,1325.868,249.837,1327.468,251.157z"/>
					<path fill="#333E48" d="M1408.079,282.508h-54.6v-3.869h25.438v-14.071h-18.329v-3.87h18.329v-12.24h-13.589
						c-1.641,4.26-4.382,8.19-8.221,11.79l-3.959-2.07c6.559-6.06,10.209-13.479,10.948-22.26l4.052,1.17
						c-0.16,2.04-0.632,4.561-1.412,7.561h12.123v-13.141h4.049v13.08h21.18v3.87h-21.18v12.181h18.061v3.869h-18.061v14.071h25.17
						V282.508z"/>
					<path fill="#333E48" d="M1470.511,245.337l-2.159,3.12c-6.82-1.68-12.161-3.619-16.021-5.819v2.699h-20.282v-2.97
						c-5.839,3.021-11.079,4.99-15.718,5.91l-1.981-3.15c11.241-2.74,20.601-7.32,28.081-13.74l3.689,1.23
						c-0.4,0.5-0.75,0.851-1.049,1.05C1451.71,239.188,1460.192,243.077,1470.511,245.337z M1464.122,262.528h-43.561v-14.071
						h43.561V262.528z M1460.552,285.567h-3.691v-2.399h-28.98v2.399h-3.689v-19.89h36.361V285.567z M1440.54,259.287v-7.5h-16.289
						v7.5H1440.54z M1456.86,272.848v-3.87h-28.98v3.87H1456.86z M1456.86,279.928v-3.93h-28.98v3.93H1456.86z M1436.549,256.317
						l-3.089,2.16c-1.859-1.879-3.68-3.27-5.459-4.17l3.119-1.8C1433.241,253.407,1435.049,254.678,1436.549,256.317z
						 M1451.101,242.008c-2.901-1.52-5.709-3.57-8.43-6.151c-2.902,2.4-6.15,4.451-9.75,6.151H1451.101z M1460.431,259.287v-7.5
						h-16.2v7.5H1460.431z M1456.801,253.558c-1.181,1.88-2.96,3.479-5.341,4.8l-3.299-1.649c2.619-1.48,4.42-2.961,5.4-4.44
						L1456.801,253.558z"/>
				</g>
			</g>
		</g>
		<g>
			<rect x="1633.969" y="222.212" fill="#333E48" width="3" height="264.238"/>
		</g>
	</g>
</g>
</svg>
