<?xml version="1.0" encoding="utf-8"?>
<!-- Generator: Adobe Illustrator 16.0.0, SVG Export Plug-In . SVG Version: 6.00 Build 0)  -->
<!DOCTYPE svg PUBLIC "-//W3C//DTD SVG 1.0//EN" "http://www.w3.org/TR/2001/REC-SVG-20010904/DTD/svg10.dtd">
<svg version="1.0" id="Logotypes" xmlns="http://www.w3.org/2000/svg" xmlns:xlink="http://www.w3.org/1999/xlink" x="0px" y="0px"
	 width="655.268px" height="708.668px" viewBox="0 0 655.268 708.668" enable-background="new 0 0 655.268 708.668"
	 xml:space="preserve">
<g>
	<defs>
		<rect id="SVGID_125_" width="655.268" height="708.668"/>
	</defs>
	<clipPath id="SVGID_2_">
		<use xlink:href="#SVGID_125_"  overflow="visible"/>
	</clipPath>
	<g clip-path="url(#SVGID_2_)">
		<g>
			<g>
				<path fill="#FFFFFF" d="M158.441,271.572c-9.105,21.527-14.52,44.145-16.17,67.426c3.588-2.922,8.159-4.68,13.137-4.68
					c5.495,0,10.488,2.154,14.217,5.637c7.338-95.592,87.225-170.871,184.701-170.871c7.553,0,13.675-6.123,13.675-13.676
					c0-7.552-6.122-13.676-13.675-13.676c-28.689,0-56.536,5.625-82.766,16.719c-25.318,10.709-48.053,26.033-67.567,45.549
					C184.474,223.518,169.148,246.252,158.441,271.572z"/>
				<path fill="#FFFFFF" d="M339.185,538.969c-94.955-7.682-169.672-86.963-170.102-183.797c0-7.551-6.12-13.676-13.676-13.676
					c-7.553,0-13.676,6.125-13.676,13.676c0.109,28.395,5.723,55.955,16.709,81.928c10.707,25.318,26.033,48.053,45.552,67.568
					c19.515,19.518,42.249,34.844,67.567,45.553c21.256,8.99,43.573,14.387,66.539,16.111c-2.887-3.58-4.627-8.123-4.627-13.068
					C333.472,547.73,335.656,542.707,339.185,538.969z"/>
				<path fill="#FFFFFF" d="M502.527,487.412c-2.67-2.672-6.17-4.006-9.67-4.006c-3.498,0-7,1.334-9.672,4.006
					c-33.342,32.291-78.775,52.176-128.859,52.176c-7.553,0-13.676,6.123-13.676,13.676s6.123,13.676,13.676,13.676
					c28.69,0,56.535-5.625,82.764-16.719c24.408-10.32,46.401-24.947,65.438-43.469
					C507.871,501.412,507.871,492.754,502.527,487.412z"/>
				<path fill="#FFFFFF" d="M354.326,566.939c-7.553,0-13.676-6.123-13.676-13.676s6.123-13.676,13.676-13.676
					c50.084,0,95.518-19.885,128.859-52.176c2.672-2.672,6.174-4.006,9.672-4.006c3.5,0,7,1.334,9.67,4.006
					c5.344,5.342,5.344,14,0,19.34c-19.036,18.521-41.029,33.148-65.438,43.469C410.861,561.314,383.016,566.939,354.326,566.939z
					 M271.56,550.221c-25.318-10.709-48.053-26.035-67.567-45.553c-19.519-19.516-34.845-42.25-45.552-67.568
					c-10.986-25.973-16.6-53.533-16.709-81.928c0-7.551,6.123-13.676,13.676-13.676c7.556,0,13.676,6.125,13.676,13.676
					c0.43,96.834,75.146,176.115,170.102,183.797c-3.529,3.738-5.713,8.762-5.713,14.295c0,4.945,1.74,9.488,4.627,13.068
					C315.133,564.607,292.816,559.211,271.56,550.221z M354.326,141.732c7.553,0,13.675,6.123,13.675,13.676
					c0,7.553-6.122,13.676-13.675,13.676c-97.477,0-177.363,75.28-184.701,170.871c-3.729-3.482-8.722-5.637-14.217-5.637
					c-4.978,0-9.549,1.758-13.137,4.68c1.65-23.281,7.064-45.898,16.17-67.426c10.707-25.32,26.033-48.055,45.552-67.572
					c19.515-19.516,42.249-34.84,67.567-45.549C297.79,147.358,325.636,141.732,354.326,141.732z"/>
			</g>
			<g>
				<g>
					<g>
						<path fill="#FFFFFF" d="M466.912,241.75c-30.07-30.072-70.055-46.633-112.586-46.633c-42.527,0-82.513,16.561-112.584,46.633
							c-30.072,30.072-46.637,70.057-46.637,112.586s16.564,82.512,46.637,112.586c30.071,30.07,70.057,46.635,112.584,46.635
							c42.531,0,82.516-16.564,112.586-46.635c30.073-30.074,46.633-70.057,46.633-112.586S496.985,271.822,466.912,241.75z"/>
						<path fill="#333E48" d="M242.115,405.826V302.848h22.334v7.611h-12.944v87.754h12.944v7.613H242.115z"/>
						<path fill="#333E48" d="M466.537,302.848v102.979h-22.328v-7.613h12.938v-87.754h-12.938v-7.611H466.537z"/>
						<path fill="#333E48" d="M293.986,375.256c0,2.057,0.032,4.484,0.096,7.271c0.063,2.789,0.15,5.623,0.26,8.496
							c0.105,2.875,0.233,5.623,0.387,8.24c0.146,2.617,0.33,4.805,0.545,6.563H282.08v-72.73c0-6.264-0.107-11.938-0.322-17.023
							c-0.213-5.086-0.535-9.494-0.967-13.225h13.195V375.256z"/>
						<path fill="#333E48" d="M351.592,340.176v8.434h-12.101v48.787h12.101v8.432H315.55v-8.432h11.906v-48.787H315.55v-8.434
							H351.592z"/>
						<path fill="#333E48" d="M378.626,340.176c0.256,0.688,0.514,1.576,0.771,2.674c0.26,1.094,0.492,2.24,0.709,3.441
							c0.211,1.201,0.404,2.383,0.58,3.541l0.512,2.893c4.121-4.891,8.26-8.418,12.422-10.586c4.164-2.166,8.5-3.25,13.003-3.25
							c3.434,0,6.47,0.568,9.107,1.705c2.64,1.141,4.86,2.941,6.663,5.406c1.8,2.469,3.162,5.668,4.088,9.592
							c0.922,3.928,1.383,8.654,1.383,14.193v28.961c0,7.252-0.635,13.273-1.9,18.055c-1.264,4.787-3.037,8.604-5.309,11.461
							c-2.273,2.85-5.012,4.867-8.207,6.047c-3.197,1.18-6.748,1.771-10.652,1.771c-1.931,0-4.001-0.313-6.211-0.934
							c-2.209-0.625-4.215-1.492-6.018-2.607l4.184-9.656c0.986,0.73,2.306,1.342,3.959,1.836c1.65,0.492,3.336,0.738,5.049,0.738
							c2.063,0,3.908-0.33,5.54-0.996c1.63-0.664,3.012-1.832,4.149-3.506c1.137-1.676,2.006-3.971,2.607-6.889
							c0.6-2.918,0.9-6.631,0.9-11.135v-28.32c0-5.148-0.268-9.322-0.805-12.52c-0.535-3.195-1.343-5.686-2.415-7.465
							c-1.071-1.781-2.413-2.973-4.024-3.576c-1.605-0.598-3.483-0.898-5.629-0.898c-2.316,0-4.578,0.547-6.788,1.645
							c-2.21,1.092-4.241,2.508-6.087,4.246c-1.844,1.736-3.474,3.697-4.889,5.889c-1.415,2.189-2.469,4.375-3.156,6.564v37.332
							h-11.906v-39.584c0-6.35-0.365-11.725-1.096-16.123c-0.727-4.398-1.438-7.715-2.123-9.945H378.626z"/>
					</g>
				</g>
			</g>
		</g>
	</g>
</g>
</svg>
