<?xml version="1.0" encoding="utf-8"?>
<!-- Generator: Adobe Illustrator 16.0.0, SVG Export Plug-In . SVG Version: 6.00 Build 0)  -->
<!DOCTYPE svg PUBLIC "-//W3C//DTD SVG 1.0//EN" "http://www.w3.org/TR/2001/REC-SVG-20010904/DTD/svg10.dtd">
<svg version="1.0" id="Logotypes" xmlns="http://www.w3.org/2000/svg" xmlns:xlink="http://www.w3.org/1999/xlink" x="0px" y="0px"
	 width="633.188px" height="692.678px" viewBox="0 0 633.188 692.678" enable-background="new 0 0 633.188 692.678"
	 xml:space="preserve">
<g>
	<defs>
		<rect id="SVGID_109_" width="633.188" height="692.678"/>
	</defs>
	<clipPath id="SVGID_2_">
		<use xlink:href="#SVGID_109_"  overflow="visible"/>
	</clipPath>
	<g clip-path="url(#SVGID_2_)">
		<g>
			
				<text transform="matrix(1.0154 0 0 1 97.5547 621.8105)" fill="#A49B4B" font-family="'NotoSansCJKtc-Medium-B5pc-H'" font-size="38.7079" letter-spacing="1.97">二零一七至二零一八年度</text>
		</g>
		<g>
			<g>
				<g>
					<path fill="#A49B4B" d="M79.223,135.784c-4.553,10.765-7.26,22.073-8.084,33.712c1.795-1.46,4.08-2.339,6.568-2.339
						c2.748,0,5.244,1.076,7.108,2.818c3.67-47.795,43.611-85.434,92.348-85.434c3.775,0,6.838-3.061,6.838-6.838
						c0-3.776-3.063-6.837-6.838-6.837c-14.344,0-28.266,2.813-41.381,8.358C123.123,84.581,111.756,92.242,102,102
						C92.24,111.759,84.576,123.125,79.223,135.784z"/>
					<path fill="#A49B4B" d="M169.592,269.479c-47.475-3.842-84.832-43.481-85.047-91.896c0-3.776-3.061-6.839-6.838-6.839
						c-3.777,0-6.838,3.063-6.838,6.839c0.055,14.196,2.861,27.976,8.354,40.962c5.354,12.658,13.018,24.026,22.777,33.783
						c9.756,9.759,21.123,17.421,33.781,22.776c10.627,4.494,21.785,7.192,33.27,8.055c-1.445-1.789-2.314-4.061-2.314-6.534
						C166.736,273.859,167.826,271.348,169.592,269.479z"/>
					<path fill="#A49B4B" d="M251.26,243.701c-1.336-1.335-3.084-2.003-4.834-2.003s-3.5,0.668-4.836,2.003
						c-16.67,16.146-39.387,26.088-64.428,26.088c-3.775,0-6.838,3.061-6.838,6.837s3.063,6.838,6.838,6.838
						c14.346,0,28.268-2.813,41.381-8.358c12.205-5.161,23.199-12.475,32.717-21.734
						C253.932,250.702,253.932,246.372,251.26,243.701z"/>
					<path fill="#A49B4B" d="M177.162,70.865c-14.346,0-28.266,2.814-41.381,8.359C123.121,84.58,111.758,92.24,101.998,102
						c-9.756,9.76-17.42,21.125-22.775,33.784c-4.551,10.766-7.26,22.075-8.086,33.71c1.795-1.46,4.08-2.335,6.57-2.335
						c2.746,0,5.246,1.075,7.106,2.814c3.67-47.794,43.613-85.434,92.35-85.434c3.773,0,6.84-3.06,6.84-6.835
						S180.936,70.865,177.162,70.865z M169.592,269.479c-47.475-3.841-84.834-43.479-85.045-91.895c0-3.775-3.064-6.84-6.84-6.84
						c-3.775,0-6.84,3.064-6.84,6.84c0.055,14.195,2.865,27.975,8.355,40.965c5.355,12.654,13.02,24.024,22.775,33.779
						c9.76,9.761,21.123,17.42,33.783,22.775c10.625,4.494,21.785,7.194,33.27,8.055c-1.445-1.785-2.314-4.061-2.314-6.53
						C166.736,273.858,167.826,271.348,169.592,269.479z M251.26,243.703c-1.334-1.34-3.084-2.005-4.834-2.005
						s-3.5,0.665-4.836,2.005c-16.67,16.146-39.389,26.085-64.428,26.085c-3.775,0-6.836,3.06-6.836,6.84
						c0,3.775,3.061,6.835,6.836,6.835c14.344,0,28.27-2.81,41.385-8.359c12.199-5.16,23.193-12.47,32.713-21.729
						C253.93,250.703,253.93,246.374,251.26,243.703z"/>
				</g>
				<g>
					<g>
						<g>
							<path fill="#A49B4B" d="M233.451,120.875c-15.029-15.035-35.025-23.315-56.289-23.315c-21.266,0-41.256,8.28-56.291,23.315
								c-15.035,15.034-23.318,35.029-23.318,56.289c0,21.265,8.283,41.255,23.318,56.295
								c15.035,15.034,35.025,23.314,56.291,23.314c21.264,0,41.26-8.28,56.289-23.314c15.039-15.04,23.314-35.03,23.314-56.295
								C256.766,155.904,248.49,135.909,233.451,120.875z M132.227,155.229h-6.475v43.875h6.475v3.805h-11.17V151.42h11.17V155.229z
								 M141.041,202.909v-36.365c0-3.129-0.054-5.965-0.164-8.51c-0.105-2.545-0.265-4.75-0.48-6.614h6.596v36.204
								c0,1.03,0.014,2.24,0.049,3.635c0.031,1.396,0.076,2.811,0.131,4.25c0.049,1.436,0.115,2.811,0.189,4.12
								c0.076,1.305,0.166,2.4,0.275,3.28H141.041z M175.797,174.304h-6.051v24.391h6.051v4.215h-18.02v-4.215h5.949v-24.391h-5.949
								v-4.22h18.02V174.304z M213.932,199.369c0,3.625-0.32,6.635-0.951,9.03c-0.635,2.39-1.52,4.299-2.654,5.725
								c-1.135,1.43-2.506,2.439-4.105,3.025c-1.596,0.59-3.369,0.884-5.324,0.884c-0.965,0-2-0.154-3.106-0.464
								c-1.105-0.311-2.109-0.746-3.01-1.306l2.095-4.824c0.489,0.364,1.149,0.669,1.975,0.915c0.83,0.25,1.67,0.369,2.523,0.369
								c1.035,0,1.955-0.165,2.772-0.494c0.814-0.336,1.504-0.921,2.074-1.756c0.57-0.835,1.006-1.984,1.305-3.444
								c0.301-1.46,0.451-3.315,0.451-5.565v-14.165c0-2.569-0.135-4.66-0.4-6.255c-0.27-1.6-0.676-2.845-1.211-3.735
								c-0.535-0.89-1.205-1.484-2.01-1.784c-0.805-0.301-1.744-0.45-2.815-0.45c-1.16,0-2.291,0.274-3.394,0.82
								c-1.106,0.545-2.121,1.255-3.045,2.125c-0.92,0.864-1.736,1.85-2.445,2.944c-0.705,1.09-1.23,2.186-1.574,3.28v18.665h-5.955
								v-19.79c0-3.175-0.181-5.86-0.545-8.061c-0.365-2.199-0.72-3.854-1.066-4.975h5.795c0.131,0.345,0.256,0.79,0.385,1.34
								c0.131,0.545,0.246,1.12,0.355,1.721c0.105,0.6,0.205,1.189,0.291,1.77l0.254,1.445c2.061-2.445,4.131-4.21,6.215-5.29
								c2.08-1.085,4.25-1.63,6.5-1.63c1.715,0,3.236,0.284,4.551,0.854c1.32,0.57,2.436,1.47,3.334,2.705
								c0.9,1.235,1.58,2.83,2.041,4.795c0.465,1.965,0.695,4.325,0.695,7.095V199.369z M233.266,202.909h-11.164v-3.805h6.469
								v-43.875h-6.469v-3.81h11.164V202.909z"/>
						</g>
					</g>
				</g>
			</g>
		</g>
		<g>
			<g>
				<path fill="#A49B4B" d="M129.764,447.269H97.555v-5.346h32.209V447.269z M125.572,504.2h-5.52v-5.861H107.18v5.861h-5.604
					v-28.916h23.996V504.2z M125.314,458.306l-23.652,0.084v-5.346h23.652V458.306z M125.4,469.512h-23.738v-5.347H125.4V469.512z
					 M124.33,436.405l-21.729,0.086v-5.348h21.729V436.405z M120.053,493.077v-12.531h-12.959v12.531H120.053z M175.314,469.597
					l-46.236,0.086v-5.262h11.463l2.481-13.217H132.33v-5.26h11.549l1.838-9.797h-16.381v-5.345h42.473v5.261H151.49l-1.752,9.795
					h17.621l-1.84,18.477h9.795V469.597z M167.873,504.37h-5.517v-5.773h-21.643v5.773h-5.604v-29h32.763V504.37z M162.355,493.335
					v-12.703h-21.729v12.703H162.355z M161.5,451.118h-12.703l-2.48,13.303h13.857L161.5,451.118z"/>
				<path fill="#A49B4B" d="M271.758,447.269h-77.76v-5.346h77.76V447.269z M260.295,458.22h-55.604v-5.176h55.604V458.22z
					 M260.295,469.339h-55.604v-5.174h55.604V469.339z M258.285,504.37h-5.518v-6.031h-40.121v6.031h-5.518v-29.086h51.156V504.37z
					 M258.199,435.849l-50.643,0.129v-5.175h50.643V435.849z M252.768,493.077v-12.531h-40.121v12.531H252.768z"/>
				<path fill="#A49B4B" d="M368.201,488.888H333.77v5.945c0,6.357-3.379,9.537-10.139,9.537h-5.688l-2.096-5.26h7.955
					c2.795,0,4.193-1.285,4.193-3.849v-6.374h-37.555v-5.348h37.555v-3.678c5.957-2.225,10.221-4.305,12.787-6.244H308.02v-4.92
					h42.262v4.662c-4.451,3.024-9.953,6.117-16.512,9.281v0.898h34.432V488.888z M364.609,473.019h-5.135v-8.854h-59.752v9.367
					h-5.604v-14.371h7.357v-26.092c4.047-0.4,8.482-2.324,13.303-5.775l2.822,3.936c-2.596,2.396-6.131,4.207-10.607,5.432v3.594
					h10.949v4.449h-10.949v4.662h10.949v4.361h-10.949v5.434h45.467v-5.434h-10.438v-4.277h10.438v-5.004h-10.352v-4.363h10.352
					v-4.662h-12.105v-5.176h17.537v28.83h6.717V473.019z M340.355,439.827l-2.992,3.678c-1.627-1.566-3.838-3.264-6.631-5.09
					c-2.309,1.939-4.904,3.722-7.785,5.348l-3.508-3.08c2.767-1.141,5.189-2.48,7.273-4.021c-3.48-1.311-6.289-2.223-8.428-2.736
					l2.182-3.936c3.164,0.799,6.344,1.826,9.539,3.08c2.023-1.91,3.721-3.863,5.09-5.859l3.592,2.865
					c-1.141,1.769-2.623,3.494-4.447,5.176C336.35,436.448,338.389,437.974,340.355,439.827z M340.869,455.396l-3.592,2.824
					c-2.311-1.77-4.707-3.236-7.186-4.406c-1.541,1.17-4.277,2.637-8.213,4.406l-3.25-2.566c3.678-1.74,6.314-3.252,7.912-4.535
					c-1.597-0.996-4.019-2.108-7.271-3.336l3.207-2.693c2.938,1.055,5.447,2.152,7.529,3.293c0.797-0.454,2.408-1.824,4.832-4.107
					l3.936,2.012c-1.455,1.881-3.078,3.436-4.875,4.662C336.264,452.032,338.588,453.515,340.869,455.396z"/>
				<path fill="#A49B4B" d="M464.559,488.888h-34.432v5.945c0,6.357-3.379,9.537-10.136,9.537h-5.689l-2.096-5.26h7.955
					c2.795,0,4.191-1.285,4.191-3.849v-6.374h-37.553v-5.348h37.553v-3.678c5.961-2.225,10.223-4.305,12.791-6.244h-32.766v-4.92
					h42.26v4.662c-4.447,3.024-9.953,6.117-16.51,9.281v0.898h34.432V488.888z M460.967,473.019h-5.135v-8.854H396.08v9.367h-5.604
					v-14.371h7.357v-26.092c4.049-0.4,8.483-2.324,13.303-5.775l2.822,3.936c-2.594,2.396-6.131,4.207-10.607,5.432v3.594h10.949
					v4.449h-10.949v4.662h10.949v4.361h-10.949v5.434h45.467v-5.434h-10.436v-4.277h10.436v-5.004h-10.352v-4.363h10.352v-4.662
					h-12.105v-5.176h17.537v28.83h6.717V473.019z M438.236,454.437l-3.896,3.563c-1.779-2.672-4.324-6.018-6.785-8.096
					c-3.826,4.264-6.975,6.977-9.434,8.137l-3.855-3.237c2.898-1.38,6.041-3.956,9.434-7.733c-3.855-2.402-6.604-3.887-8.244-4.455
					l3.363-3.478c1.367,0.538,3.936,1.94,7.711,4.21c1.123-1.835,1.996-3.848,2.625-6.033h-12.879v-5.061h6.904v-5.209h4.432v5.209
					h8.195v5.061h-1.623c-0.91,3.348-2.135,6.248-3.676,8.705C433.49,448.284,436.35,451.737,438.236,454.437z"/>
				<path fill="#A49B4B" d="M562.326,447.099l-3.078,4.447c-9.725-2.395-17.338-5.159-22.84-8.297v3.85h-28.916v-4.234
					c-8.326,4.305-15.797,7.115-22.412,8.426l-2.822-4.49c16.023-3.906,29.369-10.438,40.035-19.59l5.26,1.752
					c-0.57,0.713-1.07,1.213-1.498,1.498C535.521,438.329,547.613,443.876,562.326,447.099z M553.215,471.606h-62.104v-20.061
					h62.104V471.606z M548.127,504.456h-5.262v-3.422h-41.316v3.422h-5.262v-28.357h51.84V504.456z M519.598,466.987v-10.693
					h-23.227v10.693H519.598z M542.865,486.321v-5.518h-41.316v5.518H542.865z M542.865,496.415v-5.604h-41.316v5.604H542.865z
					 M513.908,462.753l-4.404,3.08c-2.652-2.68-5.248-4.662-7.785-5.945l4.447-2.566
					C509.189,458.604,511.77,460.415,513.908,462.753z M534.654,442.351c-4.135-2.166-8.143-5.089-12.02-8.768
					c-4.135,3.422-8.768,6.345-13.9,8.768H534.654z M547.957,466.987v-10.693h-23.098v10.693H547.957z M542.779,458.817
					c-1.682,2.682-4.221,4.963-7.613,6.844l-4.705-2.352c3.736-2.109,6.303-4.221,7.699-6.332L542.779,458.817z"/>
			</g>
			<g>
				<path fill="#A49B4B" d="M130.166,377.349l-1.635,1.881c-4.895-1.723-9.557-4.756-13.984-9.102l0.035,6.869h8.205v15.111h-2.232
					v-2.021H106.34v2.021h-2.301v-15.111h8.24v-6.869c-2.412,3.689-6.771,6.578-13.073,8.662l-1.652-1.862
					c5.588-1.476,9.582-3.743,11.984-6.8h-9.998v-2.197h12.739v-3.391c-2.799,0.281-6.314,0.486-10.543,0.615l-1.51-2.125
					c9.99-0.037,17.969-0.873,23.93-2.514l1.688,1.688c-3.314,0.892-7.07,1.574-11.262,2.055v3.672h12.914v2.197l-10.068-0.034
					C121.152,373.325,125.398,375.745,130.166,377.349z M120.555,382.286v-3.092h-14.25v3.092H120.555z M120.555,387.928v-3.479
					h-14.25v3.479H120.555z"/>
				<path fill="#A49B4B" d="M139.303,378.966c-1.477,4.58-3.408,8.337-5.797,11.264l2.055,1.299
					c2.658-3.35,4.615-7.104,5.869-11.262L139.303,378.966z M135.596,369.214l-1.477,1.846c2.33,0.996,4.176,2.424,5.535,4.287
					l1.545-2.092C139.982,371.626,138.113,370.28,135.596,369.214z M137.316,361.344l-1.651,1.687
					c2.248,0.807,4.024,2.166,5.324,4.076l1.65-1.775C141.387,363.515,139.613,362.187,137.316,361.344z"/>
				<path fill="#A49B4B" d="M160.281,384.308v-6.625c1.395,1.313,2.895,2.391,4.5,3.234l1.439-1.951
					c-3.068-1.311-5.459-3.387-7.168-6.219h6.008v-2.162h-5.744v-4.198h4.338v-2.163h-4.338v-3.705h-2.233v3.74h-6.517v-3.74h-2.233
					v3.74h-4.322v2.16h4.357v4.199h-5.729v2.164h5.799c-1.299,2.437-3.649,4.463-7.045,6.078l1.65,1.949
					c1.004-0.582,1.93-1.214,2.775-1.896v9.418c0,2.016,1.008,3.021,3.023,3.021h11.508c0.938,0,1.678-0.311,2.223-0.93
					c0.545-0.62,0.971-1.846,1.273-3.672l-2.266-1.02c-0.152,1.463-0.375,2.4-0.668,2.811c-0.293,0.41-0.686,0.615-1.176,0.615
					H149.02c-0.647,0-0.967-0.322-0.967-0.967v-3.883H160.281z M150.566,366.387h6.553v4.198h-6.553V366.387z M150.775,372.747
					h5.975c0.574,1.357,1.441,2.688,2.6,3.988h-11.156C149.459,375.341,150.32,374.012,150.775,372.747z M148.053,378.896h9.998
					v3.285h-9.998V378.896z"/>
				<path fill="#A49B4B" d="M202.064,390.351l-1.635,1.828c-7.32-3.994-11.971-10.725-13.951-20.188
					c-2.447,9.617-7.438,16.346-14.969,20.188l-1.775-2.092c7.461-3.631,12.188-9.65,14.18-18.061h-11.947v-2.268h12.211
					c0.223-2.201,0.316-5.283,0.281-9.242l2.442,0.352c0.058,3.584-0.012,6.537-0.211,8.855h13.318v2.268h-11.086
					C190.326,380.015,194.709,386.134,202.064,390.351z"/>
				<path fill="#A49B4B" d="M237.891,385.782h-14.145v2.443c0,2.611-1.389,3.918-4.164,3.918h-2.338l-0.859-2.16h3.268
					c1.146,0,1.72-0.527,1.72-1.582v-2.619h-15.426v-2.195h15.426v-1.512c2.449-0.912,4.201-1.768,5.254-2.563h-13.459v-2.022h17.36
					v1.916c-1.826,1.242-4.088,2.512-6.781,3.813v0.368h14.145V385.782z M236.414,379.265h-2.107v-3.637H209.76v3.848h-2.301v-5.904
					h3.022v-10.717c1.662-0.164,3.484-0.955,5.465-2.373l1.158,1.617c-1.064,0.984-2.518,1.727-4.357,2.23v1.477h4.498v1.828h-4.498
					v1.914h4.498v1.793h-4.498v2.23h18.678v-2.23h-4.287v-1.758h4.287v-2.055h-4.252v-1.793h4.252v-1.914h-4.973v-2.127h7.205
					v11.842h2.758V379.265z M226.451,365.63l-1.23,1.51c-0.666-0.643-1.574-1.34-2.723-2.09c-0.947,0.797-2.013,1.529-3.197,2.197
					l-1.441-1.266c1.137-0.469,2.133-1.02,2.986-1.652c-1.428-0.537-2.582-0.912-3.461-1.125l0.896-1.615
					c1.301,0.328,2.607,0.75,3.918,1.266c0.832-0.785,1.529-1.588,2.092-2.408l1.477,1.178c-0.471,0.727-1.078,1.436-1.828,2.127
					C224.807,364.241,225.643,364.868,226.451,365.63z M226.662,372.026l-1.475,1.158c-0.949-0.725-1.934-1.328-2.953-1.809
					c-0.633,0.48-1.756,1.084-3.373,1.809l-1.336-1.055c1.512-0.713,2.596-1.334,3.252-1.861c-0.656-0.41-1.653-0.867-2.988-1.371
					l1.318-1.107c1.207,0.434,2.238,0.888,3.092,1.354c0.328-0.188,0.99-0.748,1.986-1.686l1.615,0.826
					c-0.596,0.771-1.264,1.41-2.002,1.914C224.771,370.644,225.725,371.253,226.662,372.026z"/>
				<path fill="#A49B4B" d="M273.875,385.782H259.73v2.443c0,2.611-1.389,3.918-4.164,3.918h-2.338l-0.859-2.16h3.268
					c1.146,0,1.721-0.527,1.721-1.582v-2.619h-15.426v-2.195h15.426v-1.512c2.449-0.912,4.199-1.768,5.254-2.563h-13.459v-2.022
					h17.359v1.916c-1.826,1.242-4.088,2.512-6.781,3.813v0.368h14.144V385.782z M272.398,379.265h-2.109v-3.637h-24.545v3.848
					h-2.303v-5.904h3.023v-10.717c1.662-0.164,3.484-0.955,5.463-2.373l1.16,1.617c-1.066,0.984-2.518,1.727-4.357,2.23v1.477h4.498
					v1.828h-4.498v1.914h4.498v1.793h-4.498v2.23h18.678v-2.23h-4.287v-1.758h4.287v-2.055h-4.252v-1.793h4.252v-1.914h-4.973
					v-2.127h7.203v11.842h2.76V379.265z M262.436,365.63l-1.229,1.51c-0.668-0.643-1.576-1.34-2.724-2.09
					c-0.949,0.797-2.016,1.529-3.197,2.197l-1.441-1.266c1.137-0.469,2.133-1.02,2.986-1.652c-1.428-0.537-2.582-0.912-3.461-1.125
					l0.896-1.615c1.301,0.328,2.605,0.75,3.918,1.266c0.832-0.785,1.529-1.588,2.092-2.408l1.475,1.178
					c-0.469,0.727-1.076,1.436-1.826,2.127C260.791,364.241,261.627,364.868,262.436,365.63z M262.646,372.026l-1.477,1.158
					c-0.947-0.725-1.932-1.328-2.951-1.809c-0.633,0.48-1.758,1.084-3.373,1.809l-1.336-1.055c1.512-0.713,2.596-1.334,3.25-1.861
					c-0.654-0.41-1.65-0.867-2.986-1.371l1.318-1.107c1.207,0.434,2.236,0.888,3.092,1.354c0.328-0.188,0.99-0.748,1.986-1.686
					l1.615,0.826c-0.598,0.771-1.264,1.41-2.002,1.914C260.756,370.644,261.709,371.253,262.646,372.026z"/>
				<path fill="#A49B4B" d="M309.857,390.387h-31.977v-2.267h14.898v-8.24h-10.734v-2.268h10.734v-7.168h-7.959
					c-0.961,2.494-2.564,4.797-4.814,6.904l-2.318-1.212c3.842-3.55,5.978-7.896,6.412-13.036l2.373,0.684
					c-0.094,1.195-0.369,2.672-0.826,4.43h7.098v-7.697h2.373v7.661h12.404v2.267h-12.404v7.133h10.578v2.269h-10.578v8.239h14.74
					V390.387z"/>
				<path fill="#A49B4B" d="M346.422,368.616l-1.266,1.828c-3.994-0.984-7.121-2.119-9.381-3.408v1.58h-11.879v-1.738
					c-3.42,1.768-6.488,2.922-9.207,3.461l-1.158-1.846c6.582-1.604,12.064-4.287,16.445-8.047l2.16,0.721
					c-0.234,0.293-0.439,0.498-0.613,0.615C335.412,365.015,340.377,367.294,346.422,368.616z M342.68,378.685h-25.512v-8.24h25.512
					V378.685z M340.59,392.179h-2.162v-1.406h-16.973v1.406h-2.162V380.53h21.297V392.179z M328.869,376.786v-4.393h-9.541v4.393
					H328.869z M338.428,384.729v-2.268h-16.973v2.268H338.428z M338.428,388.876v-2.303h-16.973v2.303H338.428z M326.533,375.048
					l-1.811,1.266c-1.09-1.102-2.154-1.916-3.197-2.443l1.826-1.053C324.594,373.344,325.654,374.087,326.533,375.048z
					 M335.055,366.667c-1.699-0.891-3.346-2.092-4.939-3.604c-1.698,1.406-3.6,2.607-5.709,3.604H335.055z M340.52,376.786v-4.393
					h-9.488v4.393H340.52z M338.393,373.431c-0.691,1.102-1.734,2.039-3.127,2.813l-1.934-0.967c1.535-0.867,2.59-1.734,3.162-2.602
					L338.393,373.431z"/>
				<path fill="#A49B4B" d="M382.195,389.876l-1.547,2.057c-5.961-1.755-10.799-4.123-14.512-7.098
					c-3.199,2.611-8.223,5.025-15.076,7.238l-1.721-2.09c6.629-1.84,11.643-4.07,15.039-6.695
					c-3.408-3.221-5.699-7.139-6.869-11.754c-0.633,1.627-1.5,3.174-2.602,4.639l-1.861-1.704c1.477-1.759,2.664-3.685,3.566-5.782
					h-6.045v-2.16h14.094v-6.01h2.266v5.975h14.336v2.16h-6.01c-1.053,6.115-3.477,10.982-7.273,14.602
					C371.436,385.876,376.174,388.085,382.195,389.876z M372.9,368.651h-13.598c0.936,5.424,3.225,9.787,6.869,13.09
					C369.732,378.428,371.975,374.063,372.9,368.651z"/>
				<path fill="#A49B4B" d="M417.813,385.782h-14.147v2.443c0,2.611-1.386,3.918-4.164,3.918h-2.336l-0.861-2.16h3.268
					c1.148,0,1.723-0.527,1.723-1.582v-2.619h-15.426v-2.195h15.426v-1.512c2.447-0.912,4.199-1.768,5.252-2.563H393.09v-2.022
					h17.359v1.916c-1.828,1.242-4.09,2.512-6.783,3.813v0.368h14.147V385.782z M416.336,379.265h-2.109v-3.637H389.68v3.848h-2.301
					v-5.904h3.021v-10.717c1.664-0.164,3.486-0.955,5.467-2.373l1.158,1.617c-1.064,0.984-2.52,1.727-4.36,2.23v1.477h4.5v1.828
					h-4.5v1.914h4.5v1.793h-4.5v2.23h18.68v-2.23h-4.289v-1.758h4.289v-2.055h-4.252v-1.793h4.252v-1.914h-4.973v-2.127h7.203
					v11.842h2.76V379.265z M406.373,365.63l-1.23,1.51c-0.668-0.643-1.576-1.34-2.723-2.09c-0.949,0.797-2.016,1.529-3.199,2.197
					l-1.439-1.266c1.135-0.469,2.131-1.02,2.986-1.652c-1.43-0.537-2.584-0.912-3.461-1.125l0.896-1.615
					c1.299,0.328,2.605,0.75,3.918,1.266c0.832-0.785,1.527-1.588,2.09-2.408l1.477,1.178c-0.469,0.727-1.078,1.436-1.826,2.127
					C404.727,364.241,405.564,364.868,406.373,365.63z M406.584,372.026l-1.476,1.158c-0.947-0.725-1.934-1.328-2.951-1.809
					c-0.633,0.48-1.758,1.084-3.375,1.809l-1.336-1.055c1.513-0.713,2.595-1.334,3.252-1.861c-0.656-0.41-1.652-0.867-2.986-1.371
					l1.316-1.107c1.207,0.434,2.238,0.888,3.094,1.354c0.328-0.188,0.99-0.748,1.984-1.686l1.617,0.826
					c-0.598,0.771-1.266,1.41-2.002,1.914C404.691,370.644,405.645,371.253,406.584,372.026z"/>
				<path fill="#A49B4B" d="M429.828,372.464c2.367,2.66,3.551,5.255,3.551,7.785c0,1.229-0.32,2.207-0.959,2.934
					c-0.637,0.727-1.531,1.09-2.68,1.09c-0.631,0-1.395-0.076-2.283-0.229l-0.65-2.338c1.254,0.318,2.156,0.475,2.705,0.475
					c0.457,0,0.873-0.176,1.248-0.527c0.375-0.35,0.563-0.818,0.563-1.404c0-0.879-0.322-2.004-0.965-3.375
					c-0.646-1.369-1.613-2.676-2.901-3.916l3.426-8.805h-5.217v27.99h-2.302v-30.221h9.855v2.23L429.828,372.464z M454.059,385.696
					c-0.305,1.897-0.715,3.273-1.23,4.127c-0.516,0.855-1.354,1.283-2.512,1.283h-2.74c-1.828,0-2.742-0.961-2.742-2.881v-9.295
					h-3.707c-0.07,3.771-0.806,6.598-2.205,8.479c-1.4,1.879-3.996,3.457-7.793,4.734l-1.477-2.021
					c3.525-1.041,5.945-2.389,7.258-4.041c1.313-1.65,1.973-4.023,1.984-7.115h-4.814v-2.303h18.82v2.268h-5.871v8.75
					c0,0.293,0.094,0.566,0.281,0.816c0.187,0.254,0.41,0.379,0.668,0.379h2.232c0.457,0,0.805-0.375,1.045-1.125
					s0.441-1.721,0.607-2.916L454.059,385.696z M452.037,369.759l-2.23,0.035v-3.092h-13.248v3.092h-2.268v-5.324h7.713v-3.988
					h2.303v3.953h7.73V369.759z M449.086,373.149h-11.877v-2.301h11.877V373.149z"/>
				<path fill="#A49B4B" d="M489.779,385.782h-14.145v2.443c0,2.611-1.389,3.918-4.164,3.918h-2.336l-0.861-2.16h3.268
					c1.148,0,1.723-0.527,1.723-1.582v-2.619h-15.428v-2.195h15.428v-1.512c2.447-0.912,4.199-1.768,5.252-2.563h-13.459v-2.022
					h17.359v1.916c-1.826,1.242-4.088,2.512-6.781,3.813v0.368h14.145V385.782z M488.303,379.265h-2.107v-3.637H461.65v3.848h-2.303
					v-5.904h3.023v-10.717c1.66-0.164,3.482-0.955,5.463-2.373l1.16,1.617c-1.066,0.984-2.52,1.727-4.357,2.23v1.477h4.498v1.828
					h-4.498v1.914h4.498v1.793h-4.498v2.23h18.676v-2.23h-4.287v-1.758h4.287v-2.055h-4.25v-1.793h4.25v-1.914h-4.971v-2.127h7.203
					v11.842h2.758V379.265z M478.342,365.63l-1.232,1.51c-0.668-0.643-1.574-1.34-2.723-2.09c-0.949,0.797-2.014,1.529-3.197,2.197
					l-1.441-1.266c1.137-0.469,2.133-1.02,2.988-1.652c-1.43-0.537-2.584-0.912-3.461-1.125l0.895-1.615
					c1.301,0.328,2.607,0.75,3.918,1.266c0.832-0.785,1.529-1.588,2.092-2.408l1.477,1.178c-0.469,0.727-1.08,1.436-1.828,2.127
					C476.695,364.241,477.533,364.868,478.342,365.63z M478.551,372.026l-1.475,1.158c-0.949-0.725-1.934-1.328-2.951-1.809
					c-0.635,0.48-1.758,1.084-3.375,1.809l-1.334-1.055c1.51-0.713,2.594-1.334,3.25-1.861c-0.656-0.41-1.652-0.867-2.988-1.371
					l1.318-1.107c1.207,0.434,2.238,0.888,3.092,1.354c0.328-0.188,0.99-0.748,1.986-1.686l1.615,0.826
					c-0.596,0.771-1.264,1.41-2.002,1.914C476.66,370.644,477.615,371.253,478.551,372.026z"/>
				<path fill="#A49B4B" d="M525.764,390.387h-31.979v-2.267h14.9v-8.24h-10.736v-2.268h10.736v-7.168h-7.961
					c-0.959,2.494-2.564,4.797-4.814,6.904l-2.318-1.212c3.842-3.55,5.98-7.896,6.414-13.036l2.371,0.684
					c-0.094,1.195-0.369,2.672-0.826,4.43h7.1v-7.697h2.371v7.661h12.404v2.267h-12.404v7.133H521.6v2.269h-10.578v8.239h14.742
					V390.387z"/>
				<path fill="#A49B4B" d="M562.326,368.616l-1.264,1.828c-3.994-0.984-7.123-2.119-9.383-3.408v1.58h-11.879v-1.738
					c-3.42,1.768-6.488,2.922-9.205,3.461l-1.16-1.846c6.584-1.604,12.064-4.287,16.445-8.047l2.162,0.721
					c-0.236,0.293-0.439,0.498-0.615,0.615C551.316,365.015,556.283,367.294,562.326,368.616z M558.586,378.685h-25.512v-8.24
					h25.512V378.685z M556.494,392.179h-2.162v-1.406h-16.973v1.406h-2.16V380.53h21.295V392.179z M544.773,376.786v-4.393h-9.539
					v4.393H544.773z M554.332,384.729v-2.268h-16.973v2.268H554.332z M554.332,388.876v-2.303h-16.973v2.303H554.332z
					 M542.438,375.048l-1.811,1.266c-1.088-1.102-2.154-1.916-3.197-2.443l1.828-1.053
					C540.5,373.344,541.559,374.087,542.438,375.048z M550.959,366.667c-1.699-0.891-3.344-2.092-4.938-3.604
					c-1.699,1.406-3.602,2.607-5.709,3.604H550.959z M556.424,376.786v-4.393h-9.488v4.393H556.424z M554.299,373.431
					c-0.693,1.102-1.734,2.039-3.129,2.813l-1.932-0.967c1.533-0.867,2.588-1.734,3.162-2.602L554.299,373.431z"/>
			</g>
		</g>
	</g>
</g>
</svg>
