<?xml version="1.0" encoding="utf-8"?>
<!-- Generator: Adobe Illustrator 16.0.0, SVG Export Plug-In . SVG Version: 6.00 Build 0)  -->
<!DOCTYPE svg PUBLIC "-//W3C//DTD SVG 1.0//EN" "http://www.w3.org/TR/2001/REC-SVG-20010904/DTD/svg10.dtd">
<svg version="1.0" id="Logotypes" xmlns="http://www.w3.org/2000/svg" xmlns:xlink="http://www.w3.org/1999/xlink" x="0px" y="0px"
	 width="2900.034px" height="708.673px" viewBox="0 0 2900.034 708.673" enable-background="new 0 0 2900.034 708.673"
	 xml:space="preserve">
<g>
	<defs>
		<rect id="SVGID_41_" width="2900.034" height="708.673"/>
	</defs>
	<clipPath id="SVGID_2_">
		<use xlink:href="#SVGID_41_"  overflow="visible"/>
	</clipPath>
	<g clip-path="url(#SVGID_2_)">
		<g>
			<g>
				<g>
					<path fill="#FFFFFF" d="M158.441,271.573c-9.105,21.527-14.52,44.145-16.171,67.426c3.589-2.922,8.16-4.68,13.138-4.68
						c5.495,0,10.487,2.153,14.217,5.637c7.338-95.593,87.225-170.872,184.701-170.872c7.553,0,13.675-6.123,13.675-13.676
						s-6.122-13.676-13.675-13.676c-28.689,0-56.536,5.625-82.767,16.719c-25.317,10.71-48.051,26.033-67.566,45.55
						C184.475,223.519,169.148,246.252,158.441,271.573z"/>
					<path fill="#FFFFFF" d="M339.186,538.97c-94.955-7.683-169.673-86.964-170.102-183.796c0-7.553-6.12-13.677-13.676-13.677
						c-7.553,0-13.676,6.124-13.676,13.677c0.109,28.393,5.722,55.953,16.709,81.926c10.707,25.319,26.033,48.055,45.552,67.568
						c19.516,19.52,42.249,34.844,67.566,45.554c21.257,8.989,43.574,14.386,66.54,16.11c-2.887-3.579-4.627-8.122-4.627-13.067
						C333.473,547.73,335.656,542.707,339.186,538.97z"/>
					<path fill="#FFFFFF" d="M502.527,487.412c-2.67-2.67-6.169-4.005-9.669-4.005c-3.499,0-7.001,1.335-9.672,4.005
						c-33.343,32.291-78.777,52.177-128.86,52.177c-7.553,0-13.676,6.123-13.676,13.676s6.123,13.676,13.676,13.676
						c28.69,0,56.534-5.625,82.764-16.719c24.407-10.322,46.401-24.948,65.438-43.468
						C507.871,501.412,507.871,492.754,502.527,487.412z"/>
					<path fill="#FFFFFF" d="M354.326,566.94c-7.553,0-13.676-6.123-13.676-13.676s6.123-13.676,13.676-13.676
						c50.083,0,95.518-19.886,128.86-52.177c2.671-2.67,6.173-4.005,9.672-4.005c3.5,0,6.999,1.335,9.669,4.005
						c5.344,5.342,5.344,14,0,19.342c-19.036,18.52-41.03,33.146-65.438,43.468C410.86,561.315,383.017,566.94,354.326,566.94z
						 M271.56,550.222c-25.317-10.71-48.051-26.034-67.566-45.554c-19.519-19.514-34.845-42.249-45.552-67.568
						c-10.987-25.973-16.6-53.533-16.709-81.926c0-7.553,6.123-13.677,13.676-13.677c7.556,0,13.676,6.124,13.676,13.677
						c0.429,96.832,75.146,176.113,170.102,183.796c-3.529,3.737-5.713,8.761-5.713,14.295c0,4.945,1.74,9.488,4.627,13.067
						C315.134,564.607,292.816,559.211,271.56,550.222z M354.326,141.732c7.553,0,13.675,6.123,13.675,13.676
						s-6.122,13.676-13.675,13.676c-97.477,0-177.363,75.279-184.701,170.872c-3.729-3.483-8.722-5.637-14.217-5.637
						c-4.978,0-9.549,1.758-13.138,4.68c1.651-23.281,7.065-45.898,16.171-67.426c10.707-25.321,26.033-48.055,45.552-67.572
						c19.516-19.517,42.249-34.84,67.566-45.55C297.79,147.357,325.637,141.732,354.326,141.732z"/>
				</g>
				<g>
					<g>
						<g>
							<path fill="#FFFFFF" d="M466.913,241.75c-30.071-30.071-70.057-46.632-112.587-46.632
								c-42.528,0-82.514,16.561-112.584,46.632c-30.072,30.073-46.637,70.058-46.637,112.586c0,42.53,16.564,82.512,46.637,112.586
								c30.07,30.07,70.056,46.635,112.584,46.635c42.53,0,82.516-16.564,112.587-46.635
								c30.072-30.074,46.632-70.056,46.632-112.586C513.545,311.808,496.985,271.823,466.913,241.75z"/>
							<path fill="#333E48" d="M242.116,405.826V302.848h22.333v7.612h-12.945v87.754h12.945v7.612H242.116z"/>
							<path fill="#333E48" d="M466.538,302.848v102.979h-22.33v-7.612h12.939V310.46h-12.939v-7.612H466.538z"/>
							<path fill="#00C2F3" d="M293.986,375.256c0,2.059,0.032,4.484,0.095,7.271c0.063,2.789,0.151,5.624,0.26,8.497
								c0.106,2.874,0.234,5.622,0.387,8.239c0.147,2.617,0.331,4.805,0.545,6.563h-13.193v-72.73
								c0-6.264-0.106-11.938-0.322-17.022c-0.213-5.086-0.535-9.495-0.966-13.226h13.195V375.256z"/>
							<path fill="#00C2F3" d="M351.593,340.177v8.434h-12.101v48.786h12.101v8.432h-36.042v-8.432h11.906V348.61h-11.906v-8.434
								H351.593z"/>
							<path fill="#00C2F3" d="M378.627,340.177c0.257,0.688,0.515,1.576,0.771,2.674c0.261,1.093,0.492,2.239,0.709,3.441
								c0.212,1.201,0.405,2.382,0.58,3.54l0.512,2.893c4.121-4.889,8.26-8.417,12.423-10.585c4.162-2.166,8.499-3.25,13.002-3.25
								c3.434,0,6.47,0.568,9.107,1.705c2.639,1.14,4.86,2.941,6.663,5.406c1.8,2.469,3.161,5.667,4.087,9.591
								c0.923,3.928,1.383,8.656,1.383,14.195v28.959c0,7.252-0.634,13.273-1.9,18.055c-1.263,4.787-3.036,8.604-5.309,11.461
								c-2.272,2.85-5.011,4.868-8.207,6.047c-3.196,1.181-6.747,1.771-10.652,1.771c-1.93,0-4.001-0.313-6.21-0.934
								c-2.209-0.624-4.215-1.491-6.018-2.607l4.184-9.655c0.987,0.73,2.306,1.341,3.958,1.836c1.651,0.492,3.337,0.738,5.05,0.738
								c2.063,0,3.907-0.331,5.54-0.996c1.629-0.665,3.012-1.833,4.148-3.507c1.138-1.675,2.007-3.97,2.608-6.888
								c0.6-2.919,0.9-6.631,0.9-11.136v-28.32c0-5.148-0.269-9.322-0.805-12.518c-0.536-3.197-1.343-5.688-2.415-7.467
								c-1.071-1.781-2.413-2.971-4.024-3.574c-1.606-0.598-3.483-0.9-5.63-0.9c-2.316,0-4.577,0.549-6.788,1.645
								c-2.208,1.092-4.24,2.508-6.085,4.246c-1.845,1.736-3.475,3.699-4.89,5.889s-2.468,4.375-3.156,6.564v37.332h-11.905v-39.584
								c0-6.35-0.366-11.725-1.096-16.123c-0.728-4.398-1.438-7.714-2.124-9.944H378.627z"/>
						</g>
					</g>
				</g>
			</g>
		</g>
		<text transform="matrix(1.0154 0 0 1 2037.9111 381.8418)" fill="#FFFFFF" font-family="'FiraSans-Bold'" font-size="80">Session 2017–2018</text>
		<g>
			<rect x="1925.949" y="242.899" fill="#FFFFFF" width="3" height="228.446"/>
		</g>
		<g>
			<path fill="#FFFFFF" d="M626.666,336.834V236.363h12.091v89.819h42.751v10.651H626.666z"/>
			<path fill="#FFFFFF" d="M703.386,245.144c-2.497,0-4.296-0.599-5.397-1.799c-1.104-1.199-1.656-2.757-1.656-4.679v-1.871
				c0-1.918,0.552-3.478,1.656-4.678c1.102-1.199,2.9-1.8,5.397-1.8c2.494,0,4.294,0.601,5.396,1.8
				c1.104,1.2,1.656,2.76,1.656,4.678v1.871c0,1.922-0.553,3.479-1.656,4.679C707.68,244.545,705.88,245.144,703.386,245.144z
				 M697.628,262.562h11.516v74.272h-11.516V262.562z"/>
			<path fill="#FFFFFF" d="M733.613,336.834v-74.272h11.516v11.953h0.576c1.821-4.179,4.39-7.506,7.7-9.975
				c3.312-2.47,7.748-3.706,13.314-3.706c7.677,0,13.747,2.471,18.209,7.412c4.462,4.943,6.693,11.926,6.693,20.943v47.645h-11.515
				v-45.729c0-13.368-5.615-20.053-16.842-20.053c-2.303,0-4.535,0.291-6.693,0.866c-2.159,0.577-4.103,1.444-5.83,2.598
				s-3.095,2.62-4.103,4.399c-1.007,1.779-1.511,3.871-1.511,6.275v51.643H733.613z"/>
			<path fill="#FFFFFF" d="M874.388,334.388c0,10.267-2.879,18.328-8.637,24.182c-5.758,5.853-13.868,8.781-24.326,8.781
				c-6.046,0-11.253-0.94-15.618-2.818c-4.367-1.882-7.989-4.363-10.867-7.447l6.766-7.952c2.494,2.568,5.373,4.545,8.637,5.927
				c3.261,1.38,7.053,2.07,11.371,2.07c6.716,0,11.922-1.855,15.617-5.563c3.693-3.714,5.542-9.184,5.542-16.412v-10.273h-0.575
				c-2.209,4.562-5.088,7.979-8.637,10.26c-3.552,2.281-7.917,3.422-13.1,3.422c-4.605,0-8.779-0.914-12.522-2.735
				c-3.742-1.822-6.909-4.413-9.5-7.772c-2.591-3.358-4.606-7.436-6.046-12.235c-1.439-4.798-2.158-10.171-2.158-16.122
				c0-5.948,0.719-11.321,2.158-16.121c1.439-4.797,3.455-8.875,6.046-12.235c2.591-3.358,5.758-5.948,9.5-7.772
				c3.743-1.822,7.917-2.734,12.522-2.734c5.183,0,9.619,1.117,13.315,3.348c3.692,2.234,6.499,5.678,8.421,10.333h0.575v-11.953
				h11.516V334.388z M844.016,328.342c2.592,0,5.038-0.338,7.342-1.013c2.303-0.675,4.292-1.664,5.973-2.966
				c1.678-1.3,3.022-2.893,4.031-4.772c1.007-1.88,1.511-4.075,1.511-6.583v-27.632c0-2.024-0.481-3.93-1.439-5.716
				c-0.96-1.783-2.304-3.301-4.031-4.557c-1.727-1.252-3.741-2.24-6.044-2.964c-2.304-0.724-4.75-1.087-7.342-1.087
				c-6.527,0-11.709,2.074-15.546,6.222c-3.839,4.147-5.757,9.499-5.757,16.058v12.73c0,6.558,1.918,11.911,5.757,16.059
				C832.307,326.268,837.488,328.342,844.016,328.342z"/>
			<path fill="#FFFFFF" d="M944.629,324.881h-0.576c-0.769,1.712-1.704,3.398-2.807,5.061c-1.104,1.662-2.471,3.135-4.102,4.417
				c-1.633,1.282-3.599,2.304-5.902,3.063c-2.303,0.76-4.991,1.141-8.061,1.141c-7.679,0-13.771-2.47-18.28-7.414
				c-4.512-4.941-6.766-11.922-6.766-20.943v-47.644h11.516v45.728c0,13.369,5.661,20.053,16.986,20.053
				c2.302,0,4.533-0.287,6.692-0.866c2.159-0.575,4.077-1.44,5.757-2.595c1.679-1.154,3.023-2.62,4.03-4.399
				c1.008-1.778,1.512-3.92,1.512-6.421v-51.499h11.516v74.272h-11.516V324.881z"/>
			<path fill="#FFFFFF" d="M986.37,245.144c-2.495,0-4.294-0.599-5.396-1.799c-1.104-1.199-1.656-2.757-1.656-4.679v-1.871
				c0-1.918,0.552-3.478,1.656-4.678c1.103-1.199,2.901-1.8,5.396-1.8s4.295,0.601,5.398,1.8c1.102,1.2,1.655,2.76,1.655,4.678
				v1.871c0,1.922-0.554,3.479-1.655,4.679C990.665,244.545,988.865,245.144,986.37,245.144z M980.613,262.562h11.516v74.272
				h-11.516V262.562z"/>
			<path fill="#FFFFFF" d="M1038.91,338.563c-6.909,0-12.692-1.32-17.345-3.959c-4.656-2.639-8.662-6.165-12.02-10.58l8.205-6.621
				c2.879,3.648,6.092,6.455,9.644,8.42c3.55,1.969,7.677,2.951,12.38,2.951c4.893,0,8.708-1.055,11.442-3.166
				c2.735-2.11,4.103-5.086,4.103-8.925c0-2.879-0.936-5.349-2.807-7.413c-1.872-2.063-5.254-3.477-10.148-4.246l-5.901-0.863
				c-3.454-0.479-6.621-1.224-9.5-2.231c-2.88-1.008-5.397-2.351-7.557-4.03c-2.159-1.678-3.841-3.766-5.038-6.262
				c-1.201-2.494-1.799-5.47-1.799-8.924c0-3.646,0.67-6.837,2.014-9.572s3.189-5.013,5.543-6.838
				c2.35-1.821,5.156-3.189,8.42-4.102c3.262-0.911,6.766-1.367,10.508-1.367c6.046,0,11.106,1.057,15.186,3.166
				c4.078,2.112,7.652,5.038,10.725,8.78l-7.629,6.909c-1.633-2.303-4.031-4.391-7.197-6.261c-3.168-1.872-7.15-2.808-11.947-2.808
				c-4.8,0-8.422,1.032-10.867,3.096c-2.447,2.063-3.671,4.871-3.671,8.42c0,3.648,1.224,6.286,3.671,7.916
				c2.445,1.634,5.973,2.832,10.578,3.6l5.759,0.863c8.252,1.248,14.106,3.623,17.562,7.125c3.454,3.505,5.182,8.086,5.182,13.746
				c0,7.197-2.447,12.86-7.342,16.985C1054.167,336.5,1047.45,338.563,1038.91,338.563z"/>
			<path fill="#FFFFFF" d="M1102.103,336.834c-4.031,0-7.078-1.124-9.141-3.373c-2.064-2.249-3.096-5.195-3.096-8.834V272.78
				h-12.234v-10.219h6.91c2.492,0,4.196-0.505,5.109-1.513c0.91-1.007,1.367-2.757,1.367-5.254v-13.818h10.363v20.585h16.266v10.219
				h-16.266v53.835h15.114v10.219H1102.103z"/>
			<path fill="#FFFFFF" d="M1141.974,245.144c-2.496,0-4.296-0.599-5.397-1.799c-1.104-1.199-1.655-2.757-1.655-4.679v-1.871
				c0-1.918,0.551-3.478,1.655-4.678c1.102-1.199,2.901-1.8,5.397-1.8c2.494,0,4.294,0.601,5.398,1.8
				c1.102,1.2,1.654,2.76,1.654,4.678v1.871c0,1.922-0.553,3.479-1.654,4.679C1146.268,244.545,1144.468,245.144,1141.974,245.144z
				 M1136.216,262.562h11.516v74.272h-11.516V262.562z"/>
			<path fill="#FFFFFF" d="M1199.839,338.563c-5.182,0-9.838-0.914-13.963-2.735c-4.127-1.822-7.607-4.413-10.436-7.772
				c-2.832-3.358-4.991-7.436-6.478-12.235c-1.489-4.798-2.231-10.171-2.231-16.122c0-5.948,0.742-11.321,2.231-16.121
				c1.486-4.797,3.646-8.875,6.478-12.235c2.828-3.358,6.309-5.948,10.436-7.772c4.125-1.822,8.781-2.734,13.963-2.734
				c7.388,0,13.314,1.607,17.776,4.821c4.462,3.216,7.796,7.413,10.003,12.595l-9.643,4.895c-1.346-3.838-3.552-6.813-6.621-8.925
				c-3.073-2.109-6.91-3.167-11.516-3.167c-3.455,0-6.478,0.554-9.068,1.656c-2.592,1.104-4.75,2.64-6.479,4.605
				c-1.727,1.969-3.023,4.318-3.886,7.053c-0.863,2.735-1.296,5.736-1.296,8.996v12.668c0,6.527,1.75,11.875,5.254,16.049
				c3.502,4.175,8.66,6.262,15.475,6.262c9.307,0,16.024-4.318,20.151-12.955l8.349,5.614c-2.399,5.376-5.974,9.645-10.724,12.812
				C1212.865,336.979,1206.938,338.563,1199.839,338.563z"/>
			<path fill="#FFFFFF" d="M1266.914,338.563c-6.909,0-12.692-1.32-17.345-3.959c-4.656-2.639-8.662-6.165-12.02-10.58l8.205-6.621
				c2.879,3.648,6.092,6.455,9.644,8.42c3.55,1.969,7.677,2.951,12.38,2.951c4.894,0,8.707-1.055,11.441-3.166
				c2.736-2.11,4.104-5.086,4.104-8.925c0-2.879-0.936-5.349-2.807-7.413c-1.871-2.063-5.254-3.477-10.148-4.246l-5.901-0.863
				c-3.454-0.479-6.621-1.224-9.5-2.231c-2.88-1.008-5.397-2.351-7.557-4.03c-2.159-1.678-3.841-3.766-5.038-6.262
				c-1.201-2.494-1.799-5.47-1.799-8.924c0-3.646,0.67-6.837,2.014-9.572s3.189-5.013,5.543-6.838
				c2.35-1.821,5.156-3.189,8.42-4.102c3.262-0.911,6.766-1.367,10.508-1.367c6.046,0,11.106,1.057,15.186,3.166
				c4.078,2.112,7.652,5.038,10.725,8.78l-7.629,6.909c-1.633-2.303-4.031-4.391-7.197-6.261c-3.167-1.872-7.15-2.808-11.947-2.808
				c-4.8,0-8.421,1.032-10.867,3.096c-2.447,2.063-3.671,4.871-3.671,8.42c0,3.648,1.224,6.286,3.671,7.916
				c2.446,1.634,5.973,2.832,10.579,3.6l5.758,0.863c8.252,1.248,14.106,3.623,17.562,7.125c3.454,3.505,5.182,8.086,5.182,13.746
				c0,7.197-2.447,12.86-7.342,16.985C1282.172,336.5,1275.454,338.563,1266.914,338.563z"/>
			<path fill="#FFFFFF" d="M1378.036,338.563c-8.157,0-15.114-1.562-20.872-4.679c-5.757-3.117-10.651-7.413-14.682-12.883
				l8.925-7.485c3.549,4.703,7.484,8.277,11.803,10.725c4.318,2.446,9.403,3.67,15.258,3.67c7.197,0,12.689-1.728,16.481-5.182
				c3.79-3.455,5.686-8.062,5.686-13.818c0-4.797-1.439-8.492-4.318-11.083c-2.878-2.592-7.63-4.654-14.251-6.19l-8.203-1.871
				c-9.213-2.109-16.244-5.301-21.088-9.571c-4.846-4.27-7.27-10.293-7.27-18.065c0-4.413,0.814-8.35,2.447-11.803
				c1.631-3.455,3.909-6.334,6.838-8.637c2.926-2.304,6.428-4.054,10.507-5.254c4.078-1.199,8.565-1.8,13.459-1.8
				c7.579,0,14.081,1.393,19.504,4.175c5.421,2.784,10.004,6.861,13.747,12.234l-9.068,6.621c-2.785-3.837-6.143-6.859-10.076-9.068
				c-3.936-2.206-8.83-3.311-14.683-3.311c-6.43,0-11.493,1.367-15.186,4.103c-3.695,2.735-5.542,6.838-5.542,12.308
				c0,4.799,1.559,8.42,4.678,10.867c3.117,2.447,7.846,4.391,14.179,5.83l8.204,1.871c9.883,2.209,17.033,5.566,21.448,10.076
				c4.413,4.511,6.621,10.508,6.621,17.992c0,4.606-0.792,8.78-2.375,12.523c-1.583,3.742-3.864,6.909-6.837,9.5
				c-2.977,2.591-6.6,4.605-10.867,6.045C1388.231,337.843,1383.409,338.563,1378.036,338.563z"/>
			<path fill="#FFFFFF" d="M1460.37,338.563c-4.991,0-9.55-0.914-13.675-2.735c-4.127-1.822-7.653-4.438-10.579-7.845
				c-2.93-3.405-5.207-7.485-6.838-12.235c-1.633-4.75-2.447-10.099-2.447-16.05c0-5.852,0.814-11.178,2.447-15.978
				c1.631-4.797,3.908-8.899,6.838-12.307c2.926-3.405,6.452-6.021,10.579-7.845c4.125-1.822,8.684-2.734,13.675-2.734
				c4.988,0,9.522,0.912,13.603,2.734c4.077,1.824,7.604,4.439,10.579,7.845c2.974,3.407,5.277,7.51,6.91,12.307
				c1.63,4.8,2.446,10.126,2.446,15.978c0,5.951-0.816,11.3-2.446,16.05c-1.633,4.75-3.937,8.83-6.91,12.235
				c-2.975,3.406-6.502,6.022-10.579,7.845C1469.893,337.648,1465.358,338.563,1460.37,338.563z M1460.37,328.342
				c6.236,0,11.322-1.918,15.258-5.758c3.934-3.837,5.901-9.69,5.901-17.561v-10.652c0-7.867-1.968-13.721-5.901-17.561
				c-3.936-3.836-9.021-5.758-15.258-5.758c-6.239,0-11.324,1.922-15.258,5.758c-3.937,3.84-5.902,9.693-5.902,17.561v10.652
				c0,7.87,1.966,13.724,5.902,17.561C1449.046,326.424,1454.131,328.342,1460.37,328.342z"/>
			<path fill="#FFFFFF" d="M1540.546,338.563c-5.183,0-9.838-0.914-13.963-2.735c-4.127-1.822-7.606-4.413-10.436-7.772
				c-2.832-3.358-4.991-7.436-6.478-12.235c-1.489-4.798-2.231-10.171-2.231-16.122c0-5.948,0.742-11.321,2.231-16.121
				c1.486-4.797,3.646-8.875,6.478-12.235c2.829-3.358,6.309-5.948,10.436-7.772c4.125-1.822,8.78-2.734,13.963-2.734
				c7.387,0,13.314,1.607,17.775,4.821c4.463,3.216,7.796,7.413,10.005,12.595l-9.645,4.895c-1.345-3.838-3.551-6.813-6.621-8.925
				c-3.073-2.109-6.909-3.167-11.515-3.167c-3.455,0-6.479,0.554-9.069,1.656c-2.591,1.104-4.75,2.64-6.478,4.605
				c-1.727,1.969-3.022,4.318-3.886,7.053c-0.864,2.735-1.296,5.736-1.296,8.996v12.668c0,6.527,1.75,11.875,5.254,16.049
				c3.502,4.175,8.659,6.262,15.475,6.262c9.306,0,16.023-4.318,20.151-12.955l8.349,5.614c-2.4,5.376-5.974,9.645-10.725,12.812
				C1553.572,336.979,1547.646,338.563,1540.546,338.563z"/>
			<path fill="#FFFFFF" d="M1591.067,245.144c-2.496,0-4.297-0.599-5.397-1.799c-1.104-1.199-1.655-2.757-1.655-4.679v-1.871
				c0-1.918,0.551-3.478,1.655-4.678c1.101-1.199,2.901-1.8,5.397-1.8c2.494,0,4.294,0.601,5.398,1.8
				c1.102,1.2,1.654,2.76,1.654,4.678v1.871c0,1.922-0.553,3.479-1.654,4.679C1595.361,244.545,1593.562,245.144,1591.067,245.144z
				 M1585.31,262.562h11.516v74.272h-11.516V262.562z"/>
			<path fill="#FFFFFF" d="M1649.22,338.563c-5.087,0-9.669-0.914-13.746-2.735c-4.08-1.822-7.582-4.438-10.508-7.845
				c-2.929-3.405-5.182-7.485-6.766-12.235c-1.583-4.75-2.375-10.099-2.375-16.05c0-5.852,0.792-11.178,2.375-15.978
				c1.584-4.797,3.837-8.899,6.766-12.307c2.926-3.405,6.428-6.021,10.508-7.845c4.077-1.822,8.659-2.734,13.746-2.734
				c4.988,0,9.451,0.908,13.387,2.726c3.934,1.817,7.291,4.329,10.076,7.532c2.782,3.203,4.916,7.004,6.404,11.402
				c1.487,4.399,2.232,9.229,2.232,14.486v5.451h-53.402v3.455c0,3.167,0.504,6.117,1.512,8.854
				c1.007,2.734,2.446,5.109,4.317,7.124c1.872,2.016,4.175,3.599,6.909,4.751c2.735,1.151,5.83,1.727,9.284,1.727
				c4.7,0,8.804-1.102,12.308-3.311c3.502-2.206,6.212-5.373,8.133-9.5l8.203,5.939c-2.398,5.119-6.141,9.246-11.227,12.384
				C1662.269,336.992,1656.224,338.563,1649.22,338.563z M1649.22,270.478c-3.166,0-6.045,0.549-8.637,1.646
				c-2.59,1.098-4.822,2.647-6.693,4.648c-1.871,2.002-3.336,4.363-4.391,7.081c-1.057,2.719-1.582,5.698-1.582,8.941v1.001h41.023
				v-1.575c0-6.58-1.8-11.848-5.398-15.806S1655.169,270.478,1649.22,270.478z"/>
			<path fill="#FFFFFF" d="M1716.728,336.834c-4.029,0-7.078-1.124-9.141-3.373c-2.064-2.249-3.094-5.195-3.094-8.834V272.78
				h-12.235v-10.219h6.909c2.494,0,4.197-0.505,5.11-1.513c0.911-1.007,1.367-2.757,1.367-5.254v-13.818h10.364v20.585h16.266
				v10.219h-16.266v53.835h15.113v10.219H1716.728z"/>
			<path fill="#FFFFFF" d="M1796.615,262.562h11.372l-33.251,91.546c-0.864,2.207-1.728,4.053-2.591,5.541
				c-0.863,1.487-1.921,2.664-3.167,3.527c-1.248,0.864-2.808,1.486-4.678,1.871c-1.872,0.383-4.151,0.576-6.837,0.576h-5.902
				v-10.22h11.658l5.615-15.809l-27.781-77.033h11.516l17.849,50.426l3.454,12.069h0.721l4.029-12.069L1796.615,262.562z"/>
			<g>
				<path fill="#FFFFFF" d="M646.794,477.753l-3.61-11.477h-15.99l-3.546,11.477h-8.641l15.088-45.004h10.574l14.958,45.004H646.794
					z M635.317,440.487h-0.322l-5.738,18.504h11.863L635.317,440.487z"/>
				<path fill="#FFFFFF" d="M692.118,477.753l-3.609-11.477h-15.99l-3.546,11.477h-8.641l15.087-45.004h10.575l14.958,45.004
					H692.118z M680.643,440.487h-0.322l-5.738,18.504h11.863L680.643,440.487z"/>
				<path fill="#FFFFFF" d="M736.156,458.733h-18.763v19.02h-8.511v-45.004h8.511v18.439h18.763v-18.439h8.511v45.004h-8.511
					V458.733z"/>
				<path fill="#FFFFFF" d="M771.037,457.38l-5.996,7.092v13.281h-8.511v-45.004h8.511v22.18h0.322l6.383-8.445l11.154-13.734h9.801
					l-15.668,18.762l16.957,26.242h-10.122L771.037,457.38z"/>
				<path fill="#FFFFFF" d="M809.594,432.749v27.66c0,3.525,0.677,6.168,2.031,7.932c1.354,1.762,3.643,2.643,6.866,2.643
					s5.512-0.881,6.867-2.643c1.354-1.764,2.03-4.406,2.03-7.932v-27.66h8.382v26.564c0,3.311-0.312,6.168-0.936,8.574
					c-0.623,2.408-1.622,4.408-2.997,5.998c-1.376,1.59-3.171,2.762-5.384,3.514c-2.215,0.75-4.891,1.127-8.027,1.127
					c-3.182,0-5.857-0.377-8.027-1.127c-2.171-0.752-3.944-1.924-5.319-3.514c-1.376-1.59-2.364-3.59-2.966-5.998
					c-0.603-2.406-0.902-5.264-0.902-8.574v-26.564H809.594z"/>
				<path fill="#FFFFFF" d="M861.303,478.526c-3.868,0-7.146-0.688-9.833-2.066c-2.688-1.377-4.996-3.186-6.931-5.426l5.738-5.553
					c1.548,1.791,3.277,3.156,5.19,4.094c1.912,0.939,4.029,1.408,6.35,1.408c2.622,0,4.6-0.564,5.933-1.695
					c1.332-1.131,1.999-2.654,1.999-4.574c0-1.494-0.43-2.709-1.289-3.648c-0.86-0.938-2.473-1.619-4.836-2.047l-4.256-0.639
					c-8.984-1.422-13.476-5.789-13.476-13.105c0-2.023,0.376-3.852,1.129-5.486c0.751-1.637,1.837-3.035,3.256-4.197
					s3.126-2.055,5.126-2.68c1.998-0.623,4.266-0.936,6.802-0.936c3.396,0,6.36,0.561,8.898,1.68
					c2.535,1.121,4.706,2.777,6.512,4.975l-5.803,5.492c-1.118-1.363-2.473-2.473-4.063-3.324c-1.591-0.852-3.589-1.279-5.997-1.279
					c-2.449,0-4.286,0.459-5.512,1.375c-1.225,0.916-1.838,2.205-1.838,3.867c0,1.703,0.494,2.961,1.484,3.771
					c0.987,0.809,2.578,1.406,4.771,1.789l4.19,0.773c4.555,0.818,7.92,2.271,10.091,4.357c2.17,2.088,3.256,5.002,3.256,8.746
					c0,2.152-0.378,4.098-1.128,5.842c-0.753,1.742-1.849,3.248-3.289,4.518s-3.202,2.248-5.286,2.938
					C866.406,478.183,864.011,478.526,861.303,478.526z"/>
				<path fill="#FFFFFF" d="M896.055,432.749v27.66c0,3.525,0.677,6.168,2.031,7.932c1.354,1.762,3.643,2.643,6.866,2.643
					s5.513-0.881,6.867-2.643c1.354-1.764,2.03-4.406,2.03-7.932v-27.66h8.382v26.564c0,3.311-0.313,6.168-0.935,8.574
					c-0.624,2.408-1.623,4.408-2.998,5.998c-1.376,1.59-3.171,2.762-5.384,3.514c-2.215,0.75-4.891,1.127-8.027,1.127
					c-3.182,0-5.857-0.377-8.027-1.127c-2.171-0.752-3.944-1.924-5.319-3.514c-1.376-1.59-2.364-3.59-2.966-5.998
					c-0.603-2.406-0.902-5.264-0.902-8.574v-26.564H896.055z"/>
			</g>
		</g>
	</g>
</g>
</svg>
