<?xml version="1.0" encoding="utf-8"?>
<!-- Generator: Adobe Illustrator 16.0.0, SVG Export Plug-In . SVG Version: 6.00 Build 0)  -->
<!DOCTYPE svg PUBLIC "-//W3C//DTD SVG 1.0//EN" "http://www.w3.org/TR/2001/REC-SVG-20010904/DTD/svg10.dtd">
<svg version="1.0" id="Logotypes" xmlns="http://www.w3.org/2000/svg" xmlns:xlink="http://www.w3.org/1999/xlink" x="0px" y="0px"
	 width="1958.72px" height="708.673px" viewBox="0 0 1958.72 708.673" enable-background="new 0 0 1958.72 708.673"
	 xml:space="preserve">
<g>
	<defs>
		<rect id="SVGID_47_" y="0.001" width="1958.72" height="708.674"/>
	</defs>
	<clipPath id="SVGID_2_">
		<use xlink:href="#SVGID_47_"  overflow="visible"/>
	</clipPath>
	<g clip-path="url(#SVGID_2_)">
		<g>
			<g>
				<path fill="#A49B4B" d="M158.441,271.575c-9.105,21.527-14.52,44.145-16.171,67.426c3.589-2.922,8.16-4.68,13.138-4.68
					c5.495,0,10.487,2.152,14.217,5.637c7.338-95.594,87.225-170.873,184.701-170.873c7.553,0,13.675-6.123,13.675-13.676
					s-6.122-13.676-13.675-13.676c-28.689,0-56.536,5.625-82.767,16.719c-25.317,10.711-48.051,26.033-67.566,45.551
					C184.475,223.521,169.148,246.253,158.441,271.575z"/>
				<path fill="#A49B4B" d="M339.186,538.972c-94.955-7.684-169.673-86.965-170.102-183.797c0-7.553-6.12-13.676-13.676-13.676
					c-7.553,0-13.676,6.123-13.676,13.676c0.109,28.395,5.722,55.953,16.709,81.926c10.707,25.32,26.033,48.055,45.552,67.57
					c19.516,19.518,42.249,34.842,67.566,45.553c21.257,8.988,43.574,14.385,66.54,16.109c-2.887-3.578-4.627-8.121-4.627-13.066
					C333.473,547.731,335.656,542.708,339.186,538.972z"/>
				<path fill="#A49B4B" d="M502.527,487.413c-2.67-2.67-6.169-4.004-9.669-4.004c-3.499,0-7.001,1.334-9.672,4.004
					c-33.343,32.293-78.777,52.178-128.86,52.178c-7.553,0-13.676,6.123-13.676,13.676s6.123,13.676,13.676,13.676
					c28.69,0,56.534-5.625,82.764-16.719c24.407-10.322,46.401-24.949,65.438-43.469
					C507.871,501.415,507.871,492.755,502.527,487.413z"/>
				<path fill="#A49B4B" d="M354.328,141.729c-28.69,0-56.54,5.63-82.77,16.72c-25.32,10.71-48.05,26.04-67.56,45.55
					c-19.52,19.521-34.85,42.25-45.56,67.58c-9.1,21.521-14.52,44.141-16.17,67.42c3.59-2.92,8.16-4.68,13.14-4.68
					c5.5,0,10.49,2.15,14.22,5.641c7.34-95.601,87.22-170.87,184.7-170.87c7.55,0,13.67-6.13,13.67-13.681
					C367.998,147.859,361.877,141.729,354.328,141.729z M339.188,538.97c-94.96-7.681-169.67-86.96-170.1-183.79
					c0-7.561-6.12-13.681-13.68-13.681c-7.55,0-13.67,6.12-13.67,13.681c0.1,28.39,5.72,55.95,16.7,81.92
					c10.71,25.32,26.04,48.06,45.56,67.57c19.51,19.52,42.24,34.84,67.56,45.55c21.26,8.99,43.58,14.39,66.54,16.109
					c-2.88-3.569-4.62-8.119-4.62-13.06C333.478,547.729,335.657,542.71,339.188,538.97z M502.527,487.409c-2.67-2.67-6.17-4-9.67-4
					s-7,1.33-9.67,4c-33.34,32.301-78.78,52.181-128.86,52.181c-7.55,0-13.68,6.12-13.68,13.68c0,7.55,6.13,13.67,13.68,13.67
					c28.69,0,56.53-5.62,82.76-16.72c24.41-10.32,46.4-24.95,65.44-43.46C507.867,501.42,507.867,492.76,502.527,487.409z"/>
			</g>
			<g>
				<g>
					<g>
						<path fill="#A49B4B" d="M466.917,241.749c-30.08-30.069-70.06-46.63-112.59-46.63c-42.53,0-82.51,16.561-112.59,46.63
							c-30.07,30.08-46.63,70.061-46.63,112.591c0,42.529,16.56,82.51,46.63,112.58c30.08,30.079,70.06,46.64,112.59,46.64
							c42.53,0,82.51-16.561,112.59-46.64c30.07-30.07,46.63-70.051,46.63-112.58C513.547,311.81,496.987,271.829,466.917,241.749z
							 M264.447,310.46h-12.94v87.76h12.94v7.609h-22.33V302.85h22.33V310.46z M282.078,405.829V333.1
							c0-6.271-0.1-11.94-0.32-17.021c-0.21-5.09-0.54-9.5-0.97-13.229h13.2v72.41c0,2.06,0.03,4.479,0.09,7.27
							c0.07,2.79,0.16,5.62,0.26,8.5c0.11,2.87,0.24,5.62,0.39,8.24c0.15,2.61,0.33,4.8,0.55,6.56H282.078z M351.598,348.609h-12.11
							v48.79h12.11v8.43h-36.05v-8.43h11.91v-48.79h-11.91v-8.43h36.05V348.609z M427.867,398.749c0,7.25-0.64,13.271-1.9,18.051
							c-1.27,4.79-3.04,8.609-5.31,11.46c-2.27,2.85-5.01,4.87-8.21,6.05c-3.2,1.18-6.75,1.77-10.65,1.77c-1.93,0-4-0.31-6.21-0.93
							c-2.21-0.63-4.22-1.49-6.02-2.61l4.18-9.649c0.99,0.729,2.31,1.34,3.96,1.83s3.34,0.74,5.05,0.74c2.06,0,3.91-0.33,5.54-1
							c1.63-0.66,3.01-1.83,4.15-3.5c1.14-1.681,2.01-3.971,2.61-6.891c0.6-2.92,0.9-6.63,0.9-11.14v-28.32
							c0-5.149-0.27-9.32-0.81-12.51c-0.53-3.2-1.34-5.69-2.41-7.47c-1.07-1.78-2.41-2.971-4.02-3.58
							c-1.61-0.59-3.49-0.891-5.63-0.891c-2.32,0-4.58,0.54-6.79,1.641c-2.21,1.09-4.24,2.51-6.09,4.25
							c-1.84,1.729-3.47,3.689-4.89,5.89c-1.41,2.18-2.46,4.37-3.15,6.56v37.33h-11.91v-39.58c0-6.35-0.36-11.729-1.09-16.13
							c-0.73-4.399-1.44-7.71-2.13-9.939h11.59c0.26,0.689,0.51,1.58,0.77,2.67c0.26,1.09,0.49,2.24,0.71,3.439
							c0.21,1.21,0.41,2.391,0.58,3.54l0.51,2.9c4.12-4.89,8.26-8.42,12.42-10.59c4.17-2.16,8.5-3.25,13.01-3.25
							c3.43,0,6.47,0.57,9.1,1.71c2.64,1.14,4.86,2.939,6.67,5.399c1.8,2.471,3.16,5.671,4.08,9.601
							c0.93,3.92,1.39,8.649,1.39,14.189V398.749z M466.538,405.829h-22.33v-7.609h12.94v-87.76h-12.94v-7.61h22.33V405.829z"/>
					</g>
				</g>
			</g>
		</g>
	</g>
	<g clip-path="url(#SVGID_2_)">
		<path fill="#A49B4B" d="M626.666,336.831V236.36h12.091v89.818h42.751v10.652H626.666z"/>
		<path fill="#A49B4B" d="M703.386,245.14c-2.497,0-4.296-0.598-5.398-1.799c-1.104-1.199-1.655-2.757-1.655-4.678v-1.871
			c0-1.919,0.551-3.479,1.655-4.678c1.102-1.199,2.901-1.801,5.398-1.801c2.494,0,4.293,0.602,5.397,1.801
			c1.103,1.199,1.655,2.759,1.655,4.678v1.871c0,1.921-0.553,3.479-1.655,4.678C707.679,244.542,705.88,245.14,703.386,245.14z
			 M697.628,262.558h11.516v74.273h-11.516V262.558z"/>
		<path fill="#A49B4B" d="M733.613,336.831v-74.273h11.516v11.953h0.576c1.822-4.178,4.39-7.506,7.701-9.975
			c3.311-2.469,7.748-3.705,13.314-3.705c7.676,0,13.747,2.471,18.209,7.412c4.462,4.943,6.693,11.925,6.693,20.943v47.645h-11.516
			v-45.729c0-13.369-5.614-20.053-16.841-20.053c-2.303,0-4.535,0.291-6.694,0.865c-2.159,0.578-4.102,1.444-5.83,2.598
			c-1.728,1.154-3.095,2.621-4.103,4.4c-1.007,1.778-1.511,3.871-1.511,6.274v51.644H733.613z"/>
		<path fill="#A49B4B" d="M874.388,334.384c0,10.268-2.879,18.328-8.637,24.182s-13.868,8.781-24.326,8.781
			c-6.046,0-11.252-0.939-15.618-2.818c-4.367-1.881-7.988-4.363-10.867-7.447l6.765-7.951c2.495,2.568,5.373,4.545,8.637,5.926
			c3.261,1.381,7.053,2.07,11.371,2.07c6.716,0,11.923-1.855,15.618-5.563c3.693-3.715,5.542-9.184,5.542-16.412v-10.273h-0.576
			c-2.208,4.561-5.087,7.979-8.636,10.26c-3.552,2.281-7.917,3.421-13.099,3.421c-4.606,0-8.78-0.913-12.523-2.735
			c-3.742-1.822-6.909-4.412-9.5-7.772c-2.591-3.358-4.606-7.435-6.046-12.235c-1.439-4.797-2.159-10.17-2.159-16.121
			c0-5.949,0.719-11.322,2.159-16.121c1.439-4.798,3.455-8.875,6.046-12.236c2.591-3.357,5.758-5.948,9.5-7.771
			c3.743-1.822,7.917-2.734,12.523-2.734c5.182,0,9.619,1.117,13.315,3.348c3.692,2.233,6.5,5.677,8.42,10.332h0.576v-11.953h11.516
			V334.384z M844.016,328.339c2.591,0,5.038-0.338,7.341-1.014c2.304-0.674,4.294-1.664,5.974-2.965
			c1.678-1.301,3.023-2.893,4.031-4.773c1.007-1.88,1.511-4.074,1.511-6.582v-27.633c0-2.023-0.481-3.93-1.439-5.715
			c-0.96-1.783-2.303-3.302-4.03-4.557c-1.728-1.252-3.742-2.24-6.046-2.965c-2.303-0.724-4.75-1.086-7.341-1.086
			c-6.527,0-11.709,2.073-15.545,6.221c-3.839,4.147-5.758,9.5-5.758,16.059v12.73c0,6.557,1.918,11.91,5.758,16.059
			C832.307,326.265,837.489,328.339,844.016,328.339z"/>
		<path fill="#A49B4B" d="M944.629,324.878h-0.576c-0.769,1.711-1.705,3.398-2.807,5.061c-1.104,1.662-2.472,3.135-4.102,4.416
			c-1.633,1.282-3.599,2.304-5.902,3.064c-2.303,0.76-4.991,1.14-8.061,1.14c-7.678,0-13.771-2.47-18.28-7.413
			c-4.512-4.941-6.766-11.922-6.766-20.943v-47.645h11.516v45.729c0,13.368,5.661,20.053,16.985,20.053
			c2.303,0,4.535-0.288,6.694-0.867c2.159-0.574,4.077-1.439,5.757-2.594c1.678-1.154,3.023-2.621,4.03-4.4
			c1.008-1.777,1.511-3.92,1.511-6.421v-51.499h11.516v74.273h-11.516V324.878z"/>
		<path fill="#A49B4B" d="M986.371,245.14c-2.496,0-4.295-0.598-5.397-1.799c-1.104-1.199-1.655-2.757-1.655-4.678v-1.871
			c0-1.919,0.551-3.479,1.655-4.678c1.102-1.199,2.901-1.801,5.397-1.801c2.495,0,4.294,0.602,5.398,1.801
			c1.102,1.199,1.655,2.759,1.655,4.678v1.871c0,1.921-0.553,3.479-1.655,4.678C990.665,244.542,988.866,245.14,986.371,245.14z
			 M980.614,262.558h11.515v74.273h-11.515V262.558z"/>
		<path fill="#A49B4B" d="M1038.91,338.559c-6.909,0-12.692-1.319-17.345-3.958c-4.656-2.639-8.662-6.166-12.02-10.58l8.205-6.621
			c2.879,3.648,6.093,6.455,9.644,8.42c3.549,1.969,7.677,2.951,12.379,2.951c4.895,0,8.709-1.055,11.443-3.166
			c2.735-2.111,4.103-5.086,4.103-8.926c0-2.879-0.936-5.348-2.807-7.412c-1.872-2.063-5.254-3.477-10.148-4.246l-5.902-0.864
			c-3.455-0.479-6.621-1.224-9.5-2.231s-5.397-2.35-7.557-4.029c-2.159-1.678-3.84-3.766-5.038-6.262
			c-1.201-2.494-1.799-5.471-1.799-8.924c0-3.646,0.67-6.838,2.015-9.573c1.343-2.735,3.189-5.013,5.542-6.837
			c2.35-1.822,5.157-3.189,8.42-4.102c3.262-0.912,6.766-1.367,10.508-1.367c6.045,0,11.106,1.057,15.186,3.166
			c4.078,2.111,7.652,5.037,10.724,8.779l-7.629,6.91c-1.633-2.303-4.03-4.391-7.197-6.262c-3.167-1.871-7.15-2.807-11.947-2.807
			c-4.8,0-8.421,1.031-10.868,3.096c-2.447,2.063-3.67,4.87-3.67,8.42c0,3.648,1.224,6.285,3.67,7.916
			c2.447,1.633,5.974,2.832,10.58,3.6l5.758,0.863c8.252,1.248,14.106,3.623,17.561,7.125c3.455,3.504,5.183,8.085,5.183,13.746
			c0,7.197-2.447,12.859-7.341,16.984C1054.168,336.497,1047.45,338.559,1038.91,338.559z"/>
		<path fill="#A49B4B" d="M1102.102,336.831c-4.03,0-7.078-1.125-9.14-3.373c-2.064-2.25-3.095-5.195-3.095-8.835v-51.847h-12.235
			v-10.219h6.91c2.494,0,4.197-0.504,5.11-1.512c0.911-1.008,1.367-2.758,1.367-5.254v-13.818h10.364v20.584h16.266v10.219h-16.266
			v53.836h15.114v10.219H1102.102z"/>
		<path fill="#A49B4B" d="M1141.974,245.14c-2.496,0-4.296-0.598-5.397-1.799c-1.104-1.199-1.655-2.757-1.655-4.678v-1.871
			c0-1.919,0.551-3.479,1.655-4.678c1.102-1.199,2.901-1.801,5.397-1.801c2.495,0,4.294,0.602,5.398,1.801
			c1.102,1.199,1.655,2.759,1.655,4.678v1.871c0,1.921-0.553,3.479-1.655,4.678C1146.268,244.542,1144.468,245.14,1141.974,245.14z
			 M1136.216,262.558h11.516v74.273h-11.516V262.558z"/>
		<path fill="#A49B4B" d="M1199.838,338.559c-5.182,0-9.837-0.913-13.962-2.735c-4.127-1.822-7.606-4.412-10.436-7.772
			c-2.832-3.358-4.991-7.435-6.478-12.235c-1.489-4.797-2.231-10.17-2.231-16.121c0-5.949,0.742-11.322,2.231-16.121
			c1.486-4.798,3.646-8.875,6.478-12.236c2.829-3.357,6.309-5.948,10.436-7.771c4.125-1.822,8.781-2.734,13.962-2.734
			c7.388,0,13.315,1.607,17.777,4.82c4.462,3.217,7.795,7.414,10.004,12.596l-9.644,4.895c-1.345-3.838-3.551-6.813-6.621-8.926
			c-3.073-2.109-6.91-3.166-11.516-3.166c-3.455,0-6.477,0.553-9.068,1.655c-2.591,1.104-4.75,2.64-6.478,4.606
			c-1.727,1.968-3.023,4.318-3.886,7.053s-1.296,5.736-1.296,8.996v12.667c0,6.527,1.75,11.876,5.254,16.05
			c3.501,4.174,8.659,6.262,15.474,6.262c9.307,0,16.025-4.318,20.152-12.955l8.349,5.613c-2.399,5.376-5.974,9.645-10.724,12.812
			S1206.939,338.559,1199.838,338.559z"/>
		<path fill="#A49B4B" d="M1266.914,338.559c-6.909,0-12.692-1.319-17.345-3.958c-4.656-2.639-8.662-6.166-12.02-10.58l8.205-6.621
			c2.879,3.648,6.093,6.455,9.644,8.42c3.549,1.969,7.676,2.951,12.379,2.951c4.894,0,8.708-1.055,11.443-3.166
			c2.735-2.111,4.103-5.086,4.103-8.926c0-2.879-0.936-5.348-2.807-7.412c-1.872-2.063-5.254-3.477-10.148-4.246l-5.902-0.864
			c-3.455-0.479-6.621-1.224-9.5-2.231s-5.397-2.35-7.557-4.029c-2.159-1.678-3.84-3.766-5.038-6.262
			c-1.201-2.494-1.799-5.471-1.799-8.924c0-3.646,0.67-6.838,2.015-9.573c1.343-2.735,3.189-5.013,5.542-6.837
			c2.35-1.822,5.157-3.189,8.42-4.102c3.261-0.912,6.766-1.367,10.508-1.367c6.045,0,11.106,1.057,15.186,3.166
			c4.078,2.111,7.652,5.037,10.724,8.779l-7.629,6.91c-1.633-2.303-4.03-4.391-7.197-6.262c-3.167-1.871-7.149-2.807-11.947-2.807
			c-4.8,0-8.421,1.031-10.868,3.096c-2.447,2.063-3.67,4.87-3.67,8.42c0,3.648,1.224,6.285,3.67,7.916
			c2.447,1.633,5.974,2.832,10.58,3.6l5.758,0.863c8.252,1.248,14.106,3.623,17.561,7.125c3.455,3.504,5.182,8.085,5.182,13.746
			c0,7.197-2.447,12.859-7.341,16.984C1282.172,336.497,1275.454,338.559,1266.914,338.559z"/>
		<path fill="#A49B4B" d="M1378.036,338.559c-8.157,0-15.114-1.562-20.872-4.679c-5.757-3.117-10.651-7.412-14.682-12.883
			l8.924-7.484c3.549,4.703,7.485,8.276,11.803,10.724c4.318,2.446,9.403,3.671,15.258,3.671c7.197,0,12.689-1.729,16.481-5.182
			c3.79-3.455,5.686-8.063,5.686-13.819c0-4.797-1.439-8.491-4.318-11.083c-2.878-2.592-7.629-4.654-14.25-6.189l-8.205-1.871
			c-9.212-2.11-16.243-5.302-21.087-9.572c-4.847-4.27-7.27-10.293-7.27-18.065c0-4.413,0.814-8.349,2.447-11.803
			c1.631-3.454,3.909-6.333,6.837-8.636c2.926-2.305,6.428-4.055,10.507-5.254c4.078-1.199,8.565-1.801,13.459-1.801
			c7.579,0,14.081,1.393,19.504,4.176c5.42,2.783,10.004,6.861,13.747,12.234l-9.068,6.621c-2.785-3.838-6.143-6.859-10.076-9.068
			c-3.936-2.207-8.83-3.311-14.683-3.311c-6.43,0-11.493,1.367-15.186,4.102c-3.695,2.736-5.542,6.838-5.542,12.308
			c0,4.8,1.559,8.421,4.678,10.868c3.117,2.446,7.845,4.391,14.178,5.83l8.204,1.871c9.883,2.208,17.033,5.566,21.448,10.075
			c4.413,4.511,6.621,10.508,6.621,17.993c0,4.605-0.792,8.779-2.375,12.523c-1.583,3.742-3.864,6.908-6.837,9.5
			c-2.976,2.59-6.599,4.605-10.868,6.045C1388.231,337.839,1383.409,338.559,1378.036,338.559z"/>
		<path fill="#A49B4B" d="M1460.37,338.559c-4.991,0-9.55-0.913-13.675-2.735c-4.127-1.822-7.654-4.438-10.58-7.845
			c-2.928-3.405-5.207-7.485-6.837-12.235c-1.633-4.75-2.447-10.098-2.447-16.049c0-5.852,0.814-11.178,2.447-15.979
			c1.631-4.797,3.909-8.898,6.837-12.307c2.926-3.404,6.453-6.021,10.58-7.844c4.125-1.822,8.684-2.734,13.675-2.734
			c4.988,0,9.522,0.912,13.603,2.734c4.077,1.823,7.604,4.439,10.579,7.844c2.974,3.408,5.277,7.51,6.91,12.307
			c1.63,4.801,2.447,10.127,2.447,15.979c0,5.951-0.816,11.299-2.447,16.049c-1.633,4.75-3.936,8.83-6.91,12.235
			c-2.975,3.407-6.502,6.022-10.579,7.845C1469.893,337.646,1465.358,338.559,1460.37,338.559z M1460.37,328.339
			c6.236,0,11.322-1.918,15.258-5.758c3.934-3.838,5.901-9.691,5.901-17.561v-10.652c0-7.867-1.968-13.721-5.901-17.561
			c-3.936-3.837-9.021-5.758-15.258-5.758c-6.239,0-11.324,1.921-15.258,5.758c-3.937,3.84-5.902,9.693-5.902,17.561v10.652
			c0,7.869,1.965,13.723,5.902,17.561C1449.046,326.421,1454.131,328.339,1460.37,328.339z"/>
		<path fill="#A49B4B" d="M1540.545,338.559c-5.182,0-9.837-0.913-13.962-2.735c-4.127-1.822-7.606-4.412-10.436-7.772
			c-2.832-3.358-4.991-7.435-6.477-12.235c-1.489-4.797-2.231-10.17-2.231-16.121c0-5.949,0.742-11.322,2.231-16.121
			c1.486-4.798,3.646-8.875,6.477-12.236c2.83-3.357,6.309-5.948,10.436-7.771c4.125-1.822,8.78-2.734,13.962-2.734
			c7.388,0,13.314,1.607,17.776,4.82c4.462,3.217,7.795,7.414,10.004,12.596l-9.645,4.895c-1.345-3.838-3.551-6.813-6.621-8.926
			c-3.072-2.109-6.909-3.166-11.515-3.166c-3.455,0-6.478,0.553-9.069,1.655c-2.591,1.104-4.75,2.64-6.477,4.606
			c-1.727,1.968-3.023,4.318-3.886,7.053c-0.864,2.734-1.296,5.736-1.296,8.996v12.667c0,6.527,1.75,11.876,5.254,16.05
			c3.502,4.174,8.659,6.262,15.474,6.262c9.306,0,16.025-4.318,20.152-12.955l8.349,5.613c-2.4,5.376-5.974,9.645-10.724,12.812
			C1553.572,336.976,1547.646,338.559,1540.545,338.559z"/>
		<path fill="#A49B4B" d="M1591.067,245.14c-2.497,0-4.296-0.598-5.397-1.799c-1.104-1.199-1.655-2.757-1.655-4.678v-1.871
			c0-1.919,0.551-3.479,1.655-4.678c1.102-1.199,2.901-1.801,5.397-1.801c2.494,0,4.294,0.602,5.398,1.801
			c1.102,1.199,1.655,2.759,1.655,4.678v1.871c0,1.921-0.553,3.479-1.655,4.678C1595.361,244.542,1593.562,245.14,1591.067,245.14z
			 M1585.31,262.558h11.516v74.273h-11.516V262.558z"/>
		<path fill="#A49B4B" d="M1649.22,338.559c-5.087,0-9.669-0.913-13.746-2.735c-4.08-1.822-7.582-4.438-10.508-7.845
			c-2.929-3.405-5.182-7.485-6.766-12.235c-1.583-4.75-2.375-10.098-2.375-16.049c0-5.852,0.792-11.178,2.375-15.979
			c1.584-4.797,3.837-8.898,6.766-12.307c2.926-3.404,6.428-6.021,10.508-7.844c4.077-1.822,8.659-2.734,13.746-2.734
			c4.989,0,9.451,0.907,13.387,2.725c3.934,1.817,7.292,4.33,10.076,7.532c2.782,3.203,4.917,7.004,6.405,11.403
			c1.486,4.398,2.231,9.228,2.231,14.486v5.451h-53.403v3.455c0,3.166,0.504,6.117,1.511,8.853c1.008,2.734,2.447,5.11,4.318,7.124
			c1.872,2.016,4.174,3.6,6.909,4.752c2.735,1.15,5.83,1.727,9.284,1.727c4.701,0,8.803-1.103,12.308-3.311
			c3.501-2.207,6.212-5.373,8.132-9.5l8.205,5.939c-2.399,5.119-6.142,9.246-11.228,12.383
			C1662.27,336.989,1656.224,338.559,1649.22,338.559z M1649.22,270.474c-3.167,0-6.045,0.549-8.636,1.646
			c-2.591,1.098-4.822,2.647-6.693,4.648c-1.871,2.002-3.335,4.363-4.39,7.082c-1.057,2.718-1.583,5.697-1.583,8.941v1h41.023
			v-1.574c0-6.58-1.799-11.848-5.398-15.807C1659.943,272.454,1655.169,270.474,1649.22,270.474z"/>
		<path fill="#A49B4B" d="M1716.728,336.831c-4.03,0-7.078-1.125-9.14-3.373c-2.065-2.25-3.095-5.195-3.095-8.835v-51.847h-12.235
			v-10.219h6.909c2.494,0,4.197-0.504,5.11-1.512c0.911-1.008,1.367-2.758,1.367-5.254v-13.818h10.364v20.584h16.266v10.219h-16.266
			v53.836h15.114v10.219H1716.728z"/>
		<path fill="#A49B4B" d="M1796.615,262.558h11.372l-33.251,91.547c-0.864,2.207-1.728,4.053-2.591,5.541
			c-0.864,1.486-1.921,2.664-3.167,3.527c-1.248,0.863-2.807,1.486-4.678,1.871c-1.872,0.382-4.152,0.576-6.837,0.576h-5.902
			v-10.221h11.659l5.614-15.809l-27.781-77.033h11.516l17.849,50.426l3.455,12.069h0.72l4.03-12.069L1796.615,262.558z"/>
		<g>
			<path fill="#A49B4B" d="M646.794,477.749l-3.61-11.477h-15.99l-3.546,11.477h-8.641l15.088-45.004h10.574l14.958,45.004H646.794z
				 M635.317,440.483h-0.322l-5.738,18.504h11.863L635.317,440.483z"/>
			<path fill="#A49B4B" d="M692.119,477.749l-3.61-11.477h-15.99l-3.546,11.477h-8.641l15.088-45.004h10.574l14.958,45.004H692.119z
				 M680.643,440.483h-0.322l-5.738,18.504h11.863L680.643,440.483z"/>
			<path fill="#A49B4B" d="M736.156,458.729h-18.763v19.02h-8.511v-45.004h8.511v18.439h18.763v-18.439h8.511v45.004h-8.511V458.729
				z"/>
			<path fill="#A49B4B" d="M771.037,457.376l-5.996,7.092v13.281h-8.511v-45.004h8.511v22.18h0.322l6.383-8.445l11.154-13.734h9.801
				l-15.668,18.762l16.957,26.242h-10.122L771.037,457.376z"/>
			<path fill="#A49B4B" d="M809.594,432.745v27.66c0,3.525,0.677,6.168,2.031,7.932c1.354,1.762,3.643,2.643,6.866,2.643
				s5.513-0.881,6.867-2.643c1.354-1.764,2.03-4.406,2.03-7.932v-27.66h8.382v26.564c0,3.311-0.312,6.168-0.935,8.574
				c-0.624,2.408-1.623,4.408-2.998,5.998c-1.376,1.59-3.171,2.762-5.384,3.514c-2.215,0.75-4.891,1.127-8.027,1.127
				c-3.182,0-5.857-0.377-8.027-1.127c-2.171-0.752-3.944-1.924-5.319-3.514c-1.376-1.59-2.364-3.59-2.966-5.998
				c-0.603-2.406-0.902-5.264-0.902-8.574v-26.564H809.594z"/>
			<path fill="#A49B4B" d="M861.303,478.522c-3.868,0-7.146-0.688-9.833-2.066c-2.687-1.377-4.996-3.186-6.931-5.426l5.738-5.553
				c1.548,1.791,3.277,3.156,5.19,4.094c1.912,0.939,4.029,1.408,6.351,1.408c2.621,0,4.599-0.564,5.932-1.695
				c1.332-1.131,1.999-2.654,1.999-4.574c0-1.494-0.43-2.709-1.289-3.648c-0.86-0.938-2.473-1.619-4.836-2.047l-4.256-0.639
				c-8.984-1.422-13.476-5.789-13.476-13.105c0-2.023,0.376-3.852,1.129-5.486c0.751-1.637,1.837-3.035,3.256-4.197
				s3.127-2.055,5.126-2.68c1.999-0.623,4.266-0.936,6.802-0.936c3.396,0,6.361,0.561,8.898,1.68
				c2.535,1.121,4.706,2.777,6.512,4.975l-5.803,5.492c-1.118-1.363-2.473-2.473-4.063-3.324c-1.591-0.852-3.589-1.279-5.996-1.279
				c-2.45,0-4.287,0.459-5.513,1.375c-1.225,0.916-1.838,2.205-1.838,3.867c0,1.703,0.494,2.961,1.483,3.771
				c0.988,0.809,2.579,1.406,4.771,1.789l4.19,0.773c4.556,0.818,7.92,2.271,10.091,4.357c2.17,2.088,3.256,5.002,3.256,8.746
				c0,2.152-0.377,4.098-1.128,5.842c-0.753,1.742-1.849,3.248-3.289,4.518s-3.202,2.248-5.286,2.938
				C866.406,478.179,864.011,478.522,861.303,478.522z"/>
			<path fill="#A49B4B" d="M896.055,432.745v27.66c0,3.525,0.677,6.168,2.031,7.932c1.354,1.762,3.643,2.643,6.866,2.643
				s5.513-0.881,6.867-2.643c1.354-1.764,2.03-4.406,2.03-7.932v-27.66h8.382v26.564c0,3.311-0.312,6.168-0.935,8.574
				c-0.624,2.408-1.623,4.408-2.998,5.998c-1.376,1.59-3.171,2.762-5.384,3.514c-2.215,0.75-4.891,1.127-8.027,1.127
				c-3.182,0-5.857-0.377-8.027-1.127c-2.171-0.752-3.944-1.924-5.319-3.514c-1.376-1.59-2.364-3.59-2.966-5.998
				c-0.603-2.406-0.902-5.264-0.902-8.574v-26.564H896.055z"/>
		</g>
	</g>
</g>
</svg>
